Tipo de divisão:0.0
Duração:1127220 ticks
Duração:9m47s
Tempo factor:1.0
Tempo in BPM:70.0
Chanel 1 program change: Instrumento: Electric Grand
Chanel 1 Note On - Duracao: 0 Nota: C1 Vol.: 54
Chanel 2 program change: Instrumento: Electric Grand
Chanel 2 Note On - Duracao: 0 Nota: C1 Vol.: 56
Chanel 3 program change: Instrumento: Honky Tonk Piano
Chanel 3 Note On - Duracao: 0 Nota: C1 Vol.: 65
Chanel 4 program change: Instrumento: Hammond Organ
Chanel 4 Note On - Duracao: 0 Nota: C1 Vol.: 63
Chanel 5 program change: Instrumento: Synth Strings 1
Chanel 5 Note On - Duracao: 0 Nota: C1 Vol.: 56
Chanel 6 program change: Instrumento: Glockenspiel
Chanel 6 Note On - Duracao: 0 Nota: C1 Vol.: 49
Chanel 7 program change: Instrumento: Vibraphone
Chanel 7 Note On - Duracao: 0 Nota: C1 Vol.: 60
Chanel 8 program change: Instrumento: Bright Piano
Chanel 8 Note On - Duracao: 0 Nota: C1 Vol.: 44
Chanel 9 program change: Instrumento: Fingered Bass
Chanel 9 Note On - Duracao: 0 Nota: C1 Vol.: 65
Chanel 1 Note Off - Duracao: 240 Nota: C1 Vol.: 54
Chanel 1 Note On - Duracao: 240 Nota: C1 Vol.: 59
Chanel 4 Note Off - Duracao: 480 Nota: C1 Vol.: 63
Chanel 4 Note On - Duracao: 480 Nota: C1 Vol.: 59
Chanel 1 Note Off - Duracao: 720 Nota: C1 Vol.: 59
Chanel 1 Note On - Duracao: 720 Nota: C1 Vol.: 57
Chanel 2 Note Off - Duracao: 960 Nota: C1 Vol.: 56
Chanel 2 Note On - Duracao: 960 Nota: C1 Vol.: 60
Chanel 3 Note Off - Duracao: 960 Nota: C1 Vol.: 65
Chanel 3 Note On - Duracao: 960 Nota: C1 Vol.: 74
Chanel 5 Note Off - Duracao: 960 Nota: C1 Vol.: 56
Chanel 5 Note On - Duracao: 960 Nota: C1 Vol.: 57
Chanel 2 Note Off - Duracao: 1440 Nota: C1 Vol.: 60
Chanel 2 Note On - Duracao: 1440 Nota: C1 Vol.: 52
Chanel 3 Note Off - Duracao: 1440 Nota: C1 Vol.: 74
Chanel 3 Note On - Duracao: 1440 Nota: C1 Vol.: 56
Chanel 4 Note Off - Duracao: 1440 Nota: C1 Vol.: 59
Chanel 4 Note On - Duracao: 1440 Nota: C1 Vol.: 62
Chanel 1 Note Off - Duracao: 1680 Nota: C1 Vol.: 57
Chanel 1 Note On - Duracao: 1680 Nota: C1 Vol.: 63
Chanel 6 Note Off - Duracao: 1920 Nota: C1 Vol.: 49
Chanel 6 Note On - Duracao: 1920 Nota: C1 Vol.: 53
Chanel 7 Note Off - Duracao: 1920 Nota: C1 Vol.: 60
Chanel 7 Note On - Duracao: 1920 Nota: C1 Vol.: 60
Chanel 9 Note Off - Duracao: 1920 Nota: C1 Vol.: 65
Chanel 9 Note On - Duracao: 1920 Nota: C1 Vol.: 59
Chanel 2 Note Off - Duracao: 2400 Nota: C1 Vol.: 52
Chanel 2 Note On - Duracao: 2400 Nota: C1 Vol.: 52
Chanel 3 Note Off - Duracao: 2400 Nota: C1 Vol.: 56
Chanel 3 Note On - Duracao: 2400 Nota: C1 Vol.: 52
Chanel 4 Note Off - Duracao: 2400 Nota: C1 Vol.: 62
Chanel 4 Note On - Duracao: 2400 Nota: C1 Vol.: 69
Chanel 1 Note Off - Duracao: 2640 Nota: C1 Vol.: 63
Chanel 1 Note On - Duracao: 2640 Nota: C1 Vol.: 56
Chanel 4 Note Off - Duracao: 2880 Nota: C1 Vol.: 69
Chanel 4 Note On - Duracao: 2880 Nota: C1 Vol.: 84
Chanel 5 Note Off - Duracao: 2880 Nota: C1 Vol.: 57
Chanel 5 Note On - Duracao: 2880 Nota: C1 Vol.: 61
Chanel 4 Note Off - Duracao: 3000 Nota: C1 Vol.: 84
Chanel 4 Note On - Duracao: 3000 Nota: C1 Vol.: 71
Chanel 4 Note Off - Duracao: 3240 Nota: C1 Vol.: 71
Chanel 4 Note On - Duracao: 3240 Nota: C1 Vol.: 73
Chanel 2 Note Off - Duracao: 3360 Nota: C1 Vol.: 52
Chanel 2 Note On - Duracao: 3360 Nota: C1 Vol.: 64
Chanel 1 Note Off - Duracao: 3600 Nota: C1 Vol.: 56
Chanel 1 Note On - Duracao: 3600 Nota: C1 Vol.: 56
Chanel 4 Note Off - Duracao: 3720 Nota: C1 Vol.: 73
Chanel 4 Note On - Duracao: 3720 Nota: C1 Vol.: 93
Chanel 6 Note Off - Duracao: 3840 Nota: C1 Vol.: 53
Chanel 6 Note On - Duracao: 3840 Nota: C1 Vol.: 48
Chanel 7 Note Off - Duracao: 3840 Nota: C1 Vol.: 60
Chanel 7 Note On - Duracao: 3840 Nota: C1 Vol.: 59
Chanel 8 Note Off - Duracao: 3840 Nota: C1 Vol.: 44
Chanel 8 Note On - Duracao: 3840 Nota: C1 Vol.: 47
Chanel 9 Note Off - Duracao: 3840 Nota: C1 Vol.: 59
Chanel 9 Note On - Duracao: 3840 Nota: C1 Vol.: 77
Chanel 4 Note Off - Duracao: 3960 Nota: C1 Vol.: 93
Chanel 4 Note On - Duracao: 3960 Nota: C1 Vol.: 100
Chanel 4 Note Off - Duracao: 4020 Nota: C1 Vol.: 100
Chanel 4 Note On - Duracao: 4020 Nota: C1 Vol.: 93
Chanel 4 Note Off - Duracao: 4140 Nota: C1 Vol.: 93
Chanel 4 Note On - Duracao: 4140 Nota: C1 Vol.: 72
Chanel 2 Note Off - Duracao: 4320 Nota: C1 Vol.: 64
Chanel 2 Note On - Duracao: 4320 Nota: C1 Vol.: 72
Chanel 3 Note Off - Duracao: 4320 Nota: C1 Vol.: 52
Chanel 3 Note On - Duracao: 4320 Nota: C1 Vol.: 55
Chanel 1 Note Off - Duracao: 4560 Nota: C1 Vol.: 56
Chanel 1 Note On - Duracao: 4560 Nota: C1 Vol.: 62
Chanel 4 Note Off - Duracao: 4620 Nota: C1 Vol.: 72
Chanel 4 Note On - Duracao: 4620 Nota: C1 Vol.: 54
Chanel 2 Note Off - Duracao: 4800 Nota: C1 Vol.: 72
Chanel 2 Note On - Duracao: 4800 Nota: C1 Vol.: 70
Chanel 5 Note Off - Duracao: 4800 Nota: C1 Vol.: 61
Chanel 5 Note On - Duracao: 4800 Nota: C1 Vol.: 60
Chanel 9 Note Off - Duracao: 4800 Nota: C1 Vol.: 77
Chanel 9 Note On - Duracao: 4800 Nota: C1 Vol.: 72
Chanel 3 Note Off - Duracao: 5280 Nota: C1 Vol.: 55
Chanel 3 Note On - Duracao: 5280 Nota: C1 Vol.: 59
Chanel 1 Note Off - Duracao: 5520 Nota: C1 Vol.: 62
Chanel 1 Note On - Duracao: 5520 Nota: C1 Vol.: 60
Chanel 2 Note Off - Duracao: 5760 Nota: C1 Vol.: 70
Chanel 2 Note On - Duracao: 5760 Nota: C1 Vol.: 70
Chanel 6 Note Off - Duracao: 5760 Nota: C1 Vol.: 48
Chanel 6 Note On - Duracao: 5760 Nota: C1 Vol.: 53
Chanel 7 Note Off - Duracao: 5760 Nota: C1 Vol.: 59
Chanel 7 Note On - Duracao: 5760 Nota: C1 Vol.: 58
Chanel 3 Note Off - Duracao: 6240 Nota: C1 Vol.: 59
Chanel 3 Note On - Duracao: 6240 Nota: C1 Vol.: 79
Chanel 6 Note Off - Duracao: 6240 Nota: C1 Vol.: 53
Chanel 6 Note On - Duracao: 6240 Nota: C1 Vol.: 59
Chanel 6 Note Off - Duracao: 6360 Nota: C1 Vol.: 59
Chanel 6 Note On - Duracao: 6360 Nota: C1 Vol.: 56
Chanel 1 Note Off - Duracao: 6480 Nota: C1 Vol.: 60
Chanel 1 Note On - Duracao: 6480 Nota: C1 Vol.: 65
Chanel 4 Note Off - Duracao: 6540 Nota: C1 Vol.: 54
Chanel 4 Note On - Duracao: 6540 Nota: C1 Vol.: 47
Chanel 6 Note Off - Duracao: 6600 Nota: C1 Vol.: 56
Chanel 6 Note On - Duracao: 6600 Nota: C1 Vol.: 56
Chanel 2 Note Off - Duracao: 6720 Nota: C1 Vol.: 70
Chanel 2 Note On - Duracao: 6720 Nota: C1 Vol.: 57
Chanel 3 Note Off - Duracao: 6720 Nota: C1 Vol.: 79
Chanel 3 Note On - Duracao: 6720 Nota: C1 Vol.: 100
Chanel 5 Note Off - Duracao: 6720 Nota: C1 Vol.: 60
Chanel 5 Note On - Duracao: 6720 Nota: C1 Vol.: 64
Chanel 9 Note Off - Duracao: 6720 Nota: C1 Vol.: 72
Chanel 9 Note On - Duracao: 6720 Nota: C1 Vol.: 91
Chanel 3 Note Off - Duracao: 6780 Nota: C1 Vol.: 100
Chanel 3 Note On - Duracao: 6780 Nota: C1 Vol.: 94
Chanel 3 Note Off - Duracao: 6900 Nota: C1 Vol.: 94
Chanel 3 Note On - Duracao: 6900 Nota: C1 Vol.: 76
Chanel 1 Note Off - Duracao: 6960 Nota: C1 Vol.: 65
Chanel 1 Note On - Duracao: 6960 Nota: C1 Vol.: 91
Chanel 1 Note Off - Duracao: 7080 Nota: C1 Vol.: 91
Chanel 1 Note On - Duracao: 7080 Nota: C1 Vol.: 85
Chanel 6 Note Off - Duracao: 7080 Nota: C1 Vol.: 56
Chanel 6 Note On - Duracao: 7080 Nota: C1 Vol.: 49
Chanel 5 Note Off - Duracao: 7200 Nota: C1 Vol.: 64
Chanel 5 Note On - Duracao: 7200 Nota: C1 Vol.: 49
Chanel 9 Note Off - Duracao: 7200 Nota: C1 Vol.: 91
Chanel 9 Note On - Duracao: 7200 Nota: C1 Vol.: 86
Chanel 1 Note Off - Duracao: 7320 Nota: C1 Vol.: 85
Chanel 1 Note On - Duracao: 7320 Nota: C1 Vol.: 92
Chanel 3 Note Off - Duracao: 7380 Nota: C1 Vol.: 76
Chanel 3 Note On - Duracao: 7380 Nota: C1 Vol.: 96
Chanel 1 Note Off - Duracao: 7440 Nota: C1 Vol.: 92
Chanel 1 Note On - Duracao: 7440 Nota: C1 Vol.: 91
Chanel 3 Note Off - Duracao: 7500 Nota: C1 Vol.: 96
Chanel 3 Note On - Duracao: 7500 Nota: C1 Vol.: 85
Chanel 1 Note Off - Duracao: 7560 Nota: C1 Vol.: 91
Chanel 1 Note On - Duracao: 7560 Nota: C1 Vol.: 98
Chanel 1 Note Off - Duracao: 7620 Nota: C1 Vol.: 98
Chanel 1 Note On - Duracao: 7620 Nota: C1 Vol.: 94
Chanel 1 Note Off - Duracao: 7680 Nota: C1 Vol.: 94
Chanel 1 Note On - Duracao: 7680 Nota: C1 Vol.: 74
Chanel 7 Note Off - Duracao: 7680 Nota: C1 Vol.: 58
Chanel 7 Note On - Duracao: 7680 Nota: C1 Vol.: 53
Chanel 8 Note Off - Duracao: 7680 Nota: C1 Vol.: 47
Chanel 8 Note On - Duracao: 7680 Nota: C1 Vol.: 49
Chanel 3 Note Off - Duracao: 7740 Nota: C1 Vol.: 85
Chanel 3 Note On - Duracao: 7740 Nota: C1 Vol.: 61
Chanel 1 Note Off - Duracao: 7920 Nota: C1 Vol.: 74
Chanel 1 Note On - Duracao: 7920 Nota: C1 Vol.: 55
Chanel 6 Note Off - Duracao: 8040 Nota: C1 Vol.: 49
Chanel 6 Note On - Duracao: 8040 Nota: C1 Vol.: 43
Chanel 9 Note Off - Duracao: 8160 Nota: C1 Vol.: 86
Chanel 9 Note On - Duracao: 8160 Nota: C1 Vol.: 67
Chanel 4 Note Off - Duracao: 8460 Nota: C1 Vol.: 47
Chanel 4 Note On - Duracao: 8460 Nota: C1 Vol.: 44
Chanel 2 Note Off - Duracao: 8640 Nota: C1 Vol.: 57
Chanel 2 Note On - Duracao: 8640 Nota: C1 Vol.: 55
Chanel 3 Note Off - Duracao: 8700 Nota: C1 Vol.: 61
Chanel 3 Note On - Duracao: 8700 Nota: C1 Vol.: 42
Chanel 1 Note Off - Duracao: 8880 Nota: C1 Vol.: 55
Chanel 1 Note On - Duracao: 8880 Nota: C1 Vol.: 52
Chanel 5 Note Off - Duracao: 9120 Nota: C1 Vol.: 49
Chanel 5 Note On - Duracao: 9120 Nota: C1 Vol.: 54
Chanel 8 Note Off - Duracao: 9600 Nota: C1 Vol.: 49
Chanel 8 Note On - Duracao: 9600 Nota: C1 Vol.: 49
Chanel 1 Note Off - Duracao: 9840 Nota: C1 Vol.: 52
Chanel 1 Note On - Duracao: 9840 Nota: C1 Vol.: 56
Chanel 6 Note Off - Duracao: 9960 Nota: C1 Vol.: 43
Chanel 6 Note On - Duracao: 9960 Nota: C1 Vol.: 64
Chanel 9 Note Off - Duracao: 10080 Nota: C1 Vol.: 67
Chanel 9 Note On - Duracao: 10080 Nota: C1 Vol.: 64
Chanel 1 Note Off - Duracao: 10320 Nota: C1 Vol.: 56
Chanel 1 Note On - Duracao: 10320 Nota: C1 Vol.: 66
Chanel 1 Note Off - Duracao: 10440 Nota: C1 Vol.: 66
Chanel 1 Note On - Duracao: 10440 Nota: C1 Vol.: 64
Chanel 6 Note Off - Duracao: 10440 Nota: C1 Vol.: 64
Chanel 6 Note On - Duracao: 10440 Nota: C1 Vol.: 66
Chanel 1 Note Off - Duracao: 10560 Nota: C1 Vol.: 64
Chanel 1 Note On - Duracao: 10560 Nota: C1 Vol.: 63
Chanel 2 Note Off - Duracao: 10560 Nota: C1 Vol.: 55
Chanel 2 Note On - Duracao: 10560 Nota: C1 Vol.: 68
Chanel 1 Note Off - Duracao: 10680 Nota: C1 Vol.: 63
Chanel 1 Note On - Duracao: 10680 Nota: C1 Vol.: 60
Chanel 1 Note Off - Duracao: 10920 Nota: C1 Vol.: 60
Chanel 1 Note On - Duracao: 10920 Nota: C1 Vol.: 66
Chanel 6 Note Off - Duracao: 10920 Nota: C1 Vol.: 66
Chanel 6 Note On - Duracao: 10920 Nota: C1 Vol.: 79
Chanel 1 Note Off - Duracao: 11040 Nota: C1 Vol.: 66
Chanel 1 Note On - Duracao: 11040 Nota: C1 Vol.: 70
Chanel 5 Note Off - Duracao: 11040 Nota: C1 Vol.: 54
Chanel 5 Note On - Duracao: 11040 Nota: C1 Vol.: 53
Chanel 6 Note Off - Duracao: 11160 Nota: C1 Vol.: 79
Chanel 6 Note On - Duracao: 11160 Nota: C1 Vol.: 61
Chanel 1 Note Off - Duracao: 11280 Nota: C1 Vol.: 70
Chanel 1 Note On - Duracao: 11280 Nota: C1 Vol.: 61
Chanel 1 Note Off - Duracao: 11520 Nota: C1 Vol.: 61
Chanel 1 Note On - Duracao: 11520 Nota: C1 Vol.: 61
Chanel 2 Note Off - Duracao: 11520 Nota: C1 Vol.: 68
Chanel 2 Note On - Duracao: 11520 Nota: C1 Vol.: 83
Chanel 7 Note Off - Duracao: 11520 Nota: C1 Vol.: 53
Chanel 7 Note On - Duracao: 11520 Nota: C1 Vol.: 53
Chanel 8 Note Off - Duracao: 11520 Nota: C1 Vol.: 49
Chanel 8 Note On - Duracao: 11520 Nota: C1 Vol.: 50
Chanel 1 Note Off - Duracao: 11640 Nota: C1 Vol.: 61
Chanel 1 Note On - Duracao: 11640 Nota: C1 Vol.: 62
Chanel 6 Note Off - Duracao: 11640 Nota: C1 Vol.: 61
Chanel 6 Note On - Duracao: 11640 Nota: C1 Vol.: 60
Chanel 1 Note Off - Duracao: 11760 Nota: C1 Vol.: 62
Chanel 1 Note On - Duracao: 11760 Nota: C1 Vol.: 58
Chanel 2 Note Off - Duracao: 11760 Nota: C1 Vol.: 83
Chanel 2 Note On - Duracao: 11760 Nota: C1 Vol.: 78
Chanel 1 Note Off - Duracao: 12000 Nota: C1 Vol.: 58
Chanel 1 Note On - Duracao: 12000 Nota: C1 Vol.: 58
Chanel 2 Note Off - Duracao: 12000 Nota: C1 Vol.: 78
Chanel 2 Note On - Duracao: 12000 Nota: C1 Vol.: 76
Chanel 9 Note Off - Duracao: 12000 Nota: C1 Vol.: 64
Chanel 9 Note On - Duracao: 12000 Nota: C1 Vol.: 54
Chanel 2 Note Off - Duracao: 12120 Nota: C1 Vol.: 76
Chanel 2 Note On - Duracao: 12120 Nota: C1 Vol.: 64
Chanel 6 Note Off - Duracao: 12120 Nota: C1 Vol.: 60
Chanel 6 Note On - Duracao: 12120 Nota: C1 Vol.: 47
Chanel 2 Note Off - Duracao: 12240 Nota: C1 Vol.: 64
Chanel 2 Note On - Duracao: 12240 Nota: C1 Vol.: 61
Chanel 2 Note Off - Duracao: 12300 Nota: C1 Vol.: 61
Chanel 2 Note On - Duracao: 12300 Nota: C1 Vol.: 56
Chanel 4 Note Off - Duracao: 12300 Nota: C1 Vol.: 44
Chanel 4 Note On - Duracao: 12300 Nota: C1 Vol.: 65
Chanel 2 Note Off - Duracao: 12420 Nota: C1 Vol.: 56
Chanel 2 Note On - Duracao: 12420 Nota: C1 Vol.: 58
Chanel 1 Note Off - Duracao: 12480 Nota: C1 Vol.: 58
Chanel 1 Note On - Duracao: 12480 Nota: C1 Vol.: 57
Chanel 2 Note Off - Duracao: 12540 Nota: C1 Vol.: 58
Chanel 2 Note On - Duracao: 12540 Nota: C1 Vol.: 48
Chanel 3 Note Off - Duracao: 12540 Nota: C1 Vol.: 42
Chanel 3 Note On - Duracao: 12540 Nota: C1 Vol.: 41
Chanel 4 Note Off - Duracao: 12780 Nota: C1 Vol.: 65
Chanel 4 Note On - Duracao: 12780 Nota: C1 Vol.: 85
Chanel 4 Note Off - Duracao: 12900 Nota: C1 Vol.: 85
Chanel 4 Note On - Duracao: 12900 Nota: C1 Vol.: 49
Chanel 5 Note Off - Duracao: 12960 Nota: C1 Vol.: 53
Chanel 5 Note On - Duracao: 12960 Nota: C1 Vol.: 50
Chanel 2 Note Off - Duracao: 13020 Nota: C1 Vol.: 48
Chanel 2 Note On - Duracao: 13020 Nota: C1 Vol.: 57
Chanel 6 Note Off - Duracao: 13080 Nota: C1 Vol.: 47
Chanel 6 Note On - Duracao: 13080 Nota: C1 Vol.: 44
Chanel 1 Note Off - Duracao: 13440 Nota: C1 Vol.: 57
Chanel 1 Note On - Duracao: 13440 Nota: C1 Vol.: 58
Chanel 7 Note Off - Duracao: 13440 Nota: C1 Vol.: 53
Chanel 7 Note On - Duracao: 13440 Nota: C1 Vol.: 51
Chanel 2 Note Off - Duracao: 13500 Nota: C1 Vol.: 57
Chanel 2 Note On - Duracao: 13500 Nota: C1 Vol.: 57
Chanel 4 Note Off - Duracao: 13860 Nota: C1 Vol.: 49
Chanel 4 Note On - Duracao: 13860 Nota: C1 Vol.: 52
Chanel 1 Note Off - Duracao: 14400 Nota: C1 Vol.: 58
Chanel 1 Note On - Duracao: 14400 Nota: C1 Vol.: 59
Chanel 2 Note Off - Duracao: 14460 Nota: C1 Vol.: 57
Chanel 2 Note On - Duracao: 14460 Nota: C1 Vol.: 67
Chanel 3 Note Off - Duracao: 14460 Nota: C1 Vol.: 41
Chanel 3 Note On - Duracao: 14460 Nota: C1 Vol.: 67
Chanel 3 Note Off - Duracao: 14700 Nota: C1 Vol.: 67
Chanel 3 Note On - Duracao: 14700 Nota: C1 Vol.: 72
Chanel 3 Note Off - Duracao: 14820 Nota: C1 Vol.: 72
Chanel 3 Note On - Duracao: 14820 Nota: C1 Vol.: 54
Chanel 4 Note Off - Duracao: 14820 Nota: C1 Vol.: 52
Chanel 4 Note On - Duracao: 14820 Nota: C1 Vol.: 71
Chanel 2 Note Off - Duracao: 14940 Nota: C1 Vol.: 67
Chanel 2 Note On - Duracao: 14940 Nota: C1 Vol.: 90
Chanel 6 Note Off - Duracao: 15000 Nota: C1 Vol.: 44
Chanel 6 Note On - Duracao: 15000 Nota: C1 Vol.: 62
Chanel 2 Note Off - Duracao: 15060 Nota: C1 Vol.: 90
Chanel 2 Note On - Duracao: 15060 Nota: C1 Vol.: 87
Chanel 4 Note Off - Duracao: 15060 Nota: C1 Vol.: 71
Chanel 4 Note On - Duracao: 15060 Nota: C1 Vol.: 72
Chanel 2 Note Off - Duracao: 15180 Nota: C1 Vol.: 87
Chanel 2 Note On - Duracao: 15180 Nota: C1 Vol.: 91
Chanel 2 Note Off - Duracao: 15300 Nota: C1 Vol.: 91
Chanel 2 Note On - Duracao: 15300 Nota: C1 Vol.: 80
Chanel 3 Note Off - Duracao: 15300 Nota: C1 Vol.: 54
Chanel 3 Note On - Duracao: 15300 Nota: C1 Vol.: 81
Chanel 4 Note Off - Duracao: 15300 Nota: C1 Vol.: 72
Chanel 4 Note On - Duracao: 15300 Nota: C1 Vol.: 93
Chanel 1 Note Off - Duracao: 15360 Nota: C1 Vol.: 59
Chanel 1 Note On - Duracao: 15360 Nota: C1 Vol.: 56
Chanel 4 Note Off - Duracao: 15360 Nota: C1 Vol.: 93
Chanel 4 Note On - Duracao: 15360 Nota: C1 Vol.: 69
Chanel 8 Note Off - Duracao: 15360 Nota: C1 Vol.: 50
Chanel 8 Note On - Duracao: 15360 Nota: C1 Vol.: 50
Chanel 3 Note Off - Duracao: 15420 Nota: C1 Vol.: 81
Chanel 3 Note On - Duracao: 15420 Nota: C1 Vol.: 66
Chanel 6 Note Off - Duracao: 15480 Nota: C1 Vol.: 62
Chanel 6 Note On - Duracao: 15480 Nota: C1 Vol.: 50
Chanel 2 Note Off - Duracao: 15540 Nota: C1 Vol.: 80
Chanel 2 Note On - Duracao: 15540 Nota: C1 Vol.: 86
Chanel 2 Note Off - Duracao: 15780 Nota: C1 Vol.: 86
Chanel 2 Note On - Duracao: 15780 Nota: C1 Vol.: 66
Chanel 4 Note Off - Duracao: 15840 Nota: C1 Vol.: 69
Chanel 4 Note On - Duracao: 15840 Nota: C1 Vol.: 66
Chanel 9 Note Off - Duracao: 15840 Nota: C1 Vol.: 54
Chanel 9 Note On - Duracao: 15840 Nota: C1 Vol.: 54
Chanel 3 Note Off - Duracao: 15900 Nota: C1 Vol.: 66
Chanel 3 Note On - Duracao: 15900 Nota: C1 Vol.: 56
Chanel 2 Note Off - Duracao: 16260 Nota: C1 Vol.: 66
Chanel 2 Note On - Duracao: 16260 Nota: C1 Vol.: 47
Chanel 4 Note Off - Duracao: 16320 Nota: C1 Vol.: 66
Chanel 4 Note On - Duracao: 16320 Nota: C1 Vol.: 67
Chanel 2 Note Off - Duracao: 16740 Nota: C1 Vol.: 47
Chanel 2 Note On - Duracao: 16740 Nota: C1 Vol.: 55
Chanel 4 Note Off - Duracao: 16800 Nota: C1 Vol.: 67
Chanel 4 Note On - Duracao: 16800 Nota: C1 Vol.: 67
Chanel 5 Note Off - Duracao: 16800 Nota: C1 Vol.: 50
Chanel 5 Note On - Duracao: 16800 Nota: C1 Vol.: 50
Chanel 2 Note Off - Duracao: 16860 Nota: C1 Vol.: 55
Chanel 2 Note On - Duracao: 16860 Nota: C1 Vol.: 56
Chanel 2 Note Off - Duracao: 16920 Nota: C1 Vol.: 56
Chanel 2 Note On - Duracao: 16920 Nota: C1 Vol.: 51
Chanel 2 Note Off - Duracao: 17040 Nota: C1 Vol.: 51
Chanel 2 Note On - Duracao: 17040 Nota: C1 Vol.: 59
Chanel 2 Note Off - Duracao: 17160 Nota: C1 Vol.: 59
Chanel 2 Note On - Duracao: 17160 Nota: C1 Vol.: 49
Chanel 1 Note Off - Duracao: 17280 Nota: C1 Vol.: 56
Chanel 1 Note On - Duracao: 17280 Nota: C1 Vol.: 56
Chanel 4 Note Off - Duracao: 17280 Nota: C1 Vol.: 67
Chanel 4 Note On - Duracao: 17280 Nota: C1 Vol.: 64
Chanel 7 Note Off - Duracao: 17280 Nota: C1 Vol.: 51
Chanel 7 Note On - Duracao: 17280 Nota: C1 Vol.: 51
Chanel 6 Note Off - Duracao: 17400 Nota: C1 Vol.: 50
Chanel 6 Note On - Duracao: 17400 Nota: C1 Vol.: 50
Chanel 2 Note Off - Duracao: 17640 Nota: C1 Vol.: 49
Chanel 2 Note On - Duracao: 17640 Nota: C1 Vol.: 45
Chanel 4 Note Off - Duracao: 17760 Nota: C1 Vol.: 64
Chanel 4 Note On - Duracao: 17760 Nota: C1 Vol.: 84
Chanel 9 Note Off - Duracao: 17760 Nota: C1 Vol.: 54
Chanel 9 Note On - Duracao: 17760 Nota: C1 Vol.: 63
Chanel 3 Note Off - Duracao: 17820 Nota: C1 Vol.: 56
Chanel 3 Note On - Duracao: 17820 Nota: C1 Vol.: 86
Chanel 4 Note Off - Duracao: 18000 Nota: C1 Vol.: 84
Chanel 4 Note On - Duracao: 18000 Nota: C1 Vol.: 55
Chanel 3 Note Off - Duracao: 18060 Nota: C1 Vol.: 86
Chanel 3 Note On - Duracao: 18060 Nota: C1 Vol.: 92
Chanel 3 Note Off - Duracao: 18180 Nota: C1 Vol.: 92
Chanel 3 Note On - Duracao: 18180 Nota: C1 Vol.: 79
Chanel 6 Note Off - Duracao: 18360 Nota: C1 Vol.: 50
Chanel 6 Note On - Duracao: 18360 Nota: C1 Vol.: 58
Chanel 3 Note Off - Duracao: 18660 Nota: C1 Vol.: 79
Chanel 3 Note On - Duracao: 18660 Nota: C1 Vol.: 65
Chanel 5 Note Off - Duracao: 18720 Nota: C1 Vol.: 50
Chanel 5 Note On - Duracao: 18720 Nota: C1 Vol.: 46
Chanel 1 Note Off - Duracao: 19200 Nota: C1 Vol.: 56
Chanel 1 Note On - Duracao: 19200 Nota: C1 Vol.: 56
Chanel 8 Note Off - Duracao: 19200 Nota: C1 Vol.: 50
Chanel 8 Note On - Duracao: 19200 Nota: C1 Vol.: 46
Chanel 6 Note Off - Duracao: 19320 Nota: C1 Vol.: 58
Chanel 6 Note On - Duracao: 19320 Nota: C1 Vol.: 60
Chanel 2 Note Off - Duracao: 19560 Nota: C1 Vol.: 45
Chanel 2 Note On - Duracao: 19560 Nota: C1 Vol.: 53
Chanel 3 Note Off - Duracao: 19620 Nota: C1 Vol.: 65
Chanel 3 Note On - Duracao: 19620 Nota: C1 Vol.: 59
Chanel 9 Note Off - Duracao: 19680 Nota: C1 Vol.: 63
Chanel 9 Note On - Duracao: 19680 Nota: C1 Vol.: 60
Chanel 4 Note Off - Duracao: 19920 Nota: C1 Vol.: 55
Chanel 4 Note On - Duracao: 19920 Nota: C1 Vol.: 73
Chanel 6 Note Off - Duracao: 20280 Nota: C1 Vol.: 60
Chanel 6 Note On - Duracao: 20280 Nota: C1 Vol.: 42
Chanel 4 Note Off - Duracao: 20400 Nota: C1 Vol.: 73
Chanel 4 Note On - Duracao: 20400 Nota: C1 Vol.: 74
Chanel 4 Note Off - Duracao: 20640 Nota: C1 Vol.: 74
Chanel 4 Note On - Duracao: 20640 Nota: C1 Vol.: 55
Chanel 5 Note Off - Duracao: 20640 Nota: C1 Vol.: 46
Chanel 5 Note On - Duracao: 20640 Nota: C1 Vol.: 56
Chanel 1 Note Off - Duracao: 21120 Nota: C1 Vol.: 56
Chanel 1 Note On - Duracao: 21120 Nota: C1 Vol.: 57
Chanel 7 Note Off - Duracao: 21120 Nota: C1 Vol.: 51
Chanel 7 Note On - Duracao: 21120 Nota: C1 Vol.: 60
Chanel 2 Note Off - Duracao: 21480 Nota: C1 Vol.: 53
Chanel 2 Note On - Duracao: 21480 Nota: C1 Vol.: 52
Chanel 3 Note Off - Duracao: 21540 Nota: C1 Vol.: 59
Chanel 3 Note On - Duracao: 21540 Nota: C1 Vol.: 60
Chanel 4 Note Off - Duracao: 21600 Nota: C1 Vol.: 55
Chanel 4 Note On - Duracao: 21600 Nota: C1 Vol.: 49
Chanel 9 Note Off - Duracao: 21600 Nota: C1 Vol.: 60
Chanel 9 Note On - Duracao: 21600 Nota: C1 Vol.: 50
Chanel 6 Note Off - Duracao: 22200 Nota: C1 Vol.: 42
Chanel 6 Note On - Duracao: 22200 Nota: C1 Vol.: 52
Chanel 3 Note Off - Duracao: 22500 Nota: C1 Vol.: 60
Chanel 3 Note On - Duracao: 22500 Nota: C1 Vol.: 90
Chanel 4 Note Off - Duracao: 22560 Nota: C1 Vol.: 49
Chanel 4 Note On - Duracao: 22560 Nota: C1 Vol.: 57
Chanel 5 Note Off - Duracao: 22560 Nota: C1 Vol.: 56
Chanel 5 Note On - Duracao: 22560 Nota: C1 Vol.: 61
Chanel 3 Note Off - Duracao: 22620 Nota: C1 Vol.: 90
Chanel 3 Note On - Duracao: 22620 Nota: C1 Vol.: 68
Chanel 1 Note Off - Duracao: 23040 Nota: C1 Vol.: 57
Chanel 1 Note On - Duracao: 23040 Nota: C1 Vol.: 55
Chanel 7 Note Off - Duracao: 23040 Nota: C1 Vol.: 60
Chanel 7 Note On - Duracao: 23040 Nota: C1 Vol.: 81
Chanel 8 Note Off - Duracao: 23040 Nota: C1 Vol.: 46
Chanel 8 Note On - Duracao: 23040 Nota: C1 Vol.: 44
Chanel 3 Note Off - Duracao: 23100 Nota: C1 Vol.: 68
Chanel 3 Note On - Duracao: 23100 Nota: C1 Vol.: 46
Chanel 6 Note Off - Duracao: 23160 Nota: C1 Vol.: 52
Chanel 6 Note On - Duracao: 23160 Nota: C1 Vol.: 56
Chanel 2 Note Off - Duracao: 23400 Nota: C1 Vol.: 52
Chanel 2 Note On - Duracao: 23400 Nota: C1 Vol.: 50
Chanel 4 Note Off - Duracao: 23520 Nota: C1 Vol.: 57
Chanel 4 Note On - Duracao: 23520 Nota: C1 Vol.: 53
Chanel 5 Note Off - Duracao: 23520 Nota: C1 Vol.: 61
Chanel 5 Note On - Duracao: 23520 Nota: C1 Vol.: 53
Chanel 7 Note Off - Duracao: 23520 Nota: C1 Vol.: 81
Chanel 7 Note On - Duracao: 23520 Nota: C1 Vol.: 96
Chanel 7 Note Off - Duracao: 23760 Nota: C1 Vol.: 96
Chanel 7 Note On - Duracao: 23760 Nota: C1 Vol.: 100
Chanel 7 Note Off - Duracao: 23880 Nota: C1 Vol.: 100
Chanel 7 Note On - Duracao: 23880 Nota: C1 Vol.: 91
Chanel 1 Note Off - Duracao: 24000 Nota: C1 Vol.: 55
Chanel 1 Note On - Duracao: 24000 Nota: C1 Vol.: 51
Chanel 6 Note Off - Duracao: 24120 Nota: C1 Vol.: 56
Chanel 6 Note On - Duracao: 24120 Nota: C1 Vol.: 47
Chanel 7 Note Off - Duracao: 24120 Nota: C1 Vol.: 91
Chanel 7 Note On - Duracao: 24120 Nota: C1 Vol.: 56
Chanel 3 Note Off - Duracao: 25020 Nota: C1 Vol.: 46
Chanel 3 Note On - Duracao: 25020 Nota: C1 Vol.: 47
Chanel 2 Note Off - Duracao: 25320 Nota: C1 Vol.: 50
Chanel 2 Note On - Duracao: 25320 Nota: C1 Vol.: 57
Chanel 4 Note Off - Duracao: 25440 Nota: C1 Vol.: 53
Chanel 4 Note On - Duracao: 25440 Nota: C1 Vol.: 63
Chanel 5 Note Off - Duracao: 25440 Nota: C1 Vol.: 53
Chanel 5 Note On - Duracao: 25440 Nota: C1 Vol.: 40
Chanel 9 Note Off - Duracao: 25440 Nota: C1 Vol.: 50
Chanel 9 Note On - Duracao: 25440 Nota: C1 Vol.: 63
Chanel 1 Note Off - Duracao: 25920 Nota: C1 Vol.: 51
Chanel 1 Note On - Duracao: 25920 Nota: C1 Vol.: 51
Chanel 6 Note Off - Duracao: 26040 Nota: C1 Vol.: 47
Chanel 6 Note On - Duracao: 26040 Nota: C1 Vol.: 52
Chanel 7 Note Off - Duracao: 26040 Nota: C1 Vol.: 56
Chanel 7 Note On - Duracao: 26040 Nota: C1 Vol.: 48
Chanel 2 Note Off - Duracao: 26280 Nota: C1 Vol.: 57
Chanel 2 Note On - Duracao: 26280 Nota: C1 Vol.: 55
Chanel 4 Note Off - Duracao: 26400 Nota: C1 Vol.: 63
Chanel 4 Note On - Duracao: 26400 Nota: C1 Vol.: 65
Chanel 8 Note Off - Duracao: 26880 Nota: C1 Vol.: 44
Chanel 8 Note On - Duracao: 26880 Nota: C1 Vol.: 45
Chanel 3 Note Off - Duracao: 26940 Nota: C1 Vol.: 47
Chanel 3 Note On - Duracao: 26940 Nota: C1 Vol.: 46
Chanel 2 Note Off - Duracao: 27240 Nota: C1 Vol.: 55
Chanel 2 Note On - Duracao: 27240 Nota: C1 Vol.: 71
Chanel 9 Note Off - Duracao: 27360 Nota: C1 Vol.: 63
Chanel 9 Note On - Duracao: 27360 Nota: C1 Vol.: 75
Chanel 2 Note Off - Duracao: 27720 Nota: C1 Vol.: 71
Chanel 2 Note On - Duracao: 27720 Nota: C1 Vol.: 68
Chanel 1 Note Off - Duracao: 27840 Nota: C1 Vol.: 51
Chanel 1 Note On - Duracao: 27840 Nota: C1 Vol.: 48
Chanel 6 Note Off - Duracao: 27960 Nota: C1 Vol.: 52
Chanel 6 Note On - Duracao: 27960 Nota: C1 Vol.: 41
Chanel 2 Note Off - Duracao: 28200 Nota: C1 Vol.: 68
Chanel 2 Note On - Duracao: 28200 Nota: C1 Vol.: 51
Chanel 4 Note Off - Duracao: 28320 Nota: C1 Vol.: 65
Chanel 4 Note On - Duracao: 28320 Nota: C1 Vol.: 78
Chanel 9 Note Off - Duracao: 28320 Nota: C1 Vol.: 75
Chanel 9 Note On - Duracao: 28320 Nota: C1 Vol.: 75
Chanel 3 Note Off - Duracao: 28860 Nota: C1 Vol.: 46
Chanel 3 Note On - Duracao: 28860 Nota: C1 Vol.: 51
Chanel 4 Note Off - Duracao: 29280 Nota: C1 Vol.: 78
Chanel 4 Note On - Duracao: 29280 Nota: C1 Vol.: 93
Chanel 5 Note Off - Duracao: 29280 Nota: C1 Vol.: 40
Chanel 5 Note On - Duracao: 29280 Nota: C1 Vol.: 54
Chanel 9 Note Off - Duracao: 29280 Nota: C1 Vol.: 75
Chanel 9 Note On - Duracao: 29280 Nota: C1 Vol.: 82
Chanel 4 Note Off - Duracao: 29520 Nota: C1 Vol.: 93
Chanel 4 Note On - Duracao: 29520 Nota: C1 Vol.: 98
Chanel 1 Note Off - Duracao: 29760 Nota: C1 Vol.: 48
Chanel 1 Note On - Duracao: 29760 Nota: C1 Vol.: 49
Chanel 4 Note Off - Duracao: 29760 Nota: C1 Vol.: 98
Chanel 4 Note On - Duracao: 29760 Nota: C1 Vol.: 88
Chanel 7 Note Off - Duracao: 29880 Nota: C1 Vol.: 48
Chanel 7 Note On - Duracao: 29880 Nota: C1 Vol.: 46
Chanel 4 Note Off - Duracao: 30000 Nota: C1 Vol.: 88
Chanel 4 Note On - Duracao: 30000 Nota: C1 Vol.: 71
Chanel 2 Note Off - Duracao: 30120 Nota: C1 Vol.: 51
Chanel 2 Note On - Duracao: 30120 Nota: C1 Vol.: 51
Chanel 5 Note Off - Duracao: 30240 Nota: C1 Vol.: 54
Chanel 5 Note On - Duracao: 30240 Nota: C1 Vol.: 51
Chanel 9 Note Off - Duracao: 30240 Nota: C1 Vol.: 82
Chanel 9 Note On - Duracao: 30240 Nota: C1 Vol.: 98
Chanel 9 Note Off - Duracao: 30480 Nota: C1 Vol.: 98
Chanel 9 Note On - Duracao: 30480 Nota: C1 Vol.: 100
Chanel 8 Note Off - Duracao: 30720 Nota: C1 Vol.: 45
Chanel 8 Note On - Duracao: 30720 Nota: C1 Vol.: 48
Chanel 9 Note Off - Duracao: 30720 Nota: C1 Vol.: 100
Chanel 9 Note On - Duracao: 30720 Nota: C1 Vol.: 82
Chanel 3 Note Off - Duracao: 30780 Nota: C1 Vol.: 51
Chanel 3 Note On - Duracao: 30780 Nota: C1 Vol.: 48
Chanel 4 Note Off - Duracao: 30960 Nota: C1 Vol.: 71
Chanel 4 Note On - Duracao: 30960 Nota: C1 Vol.: 64
Chanel 5 Note Off - Duracao: 31200 Nota: C1 Vol.: 51
Chanel 5 Note On - Duracao: 31200 Nota: C1 Vol.: 45
Chanel 9 Note Off - Duracao: 31200 Nota: C1 Vol.: 82
Chanel 9 Note On - Duracao: 31200 Nota: C1 Vol.: 60
Chanel 1 Note Off - Duracao: 31680 Nota: C1 Vol.: 49
Chanel 1 Note On - Duracao: 31680 Nota: C1 Vol.: 52
Chanel 6 Note Off - Duracao: 31800 Nota: C1 Vol.: 41
Chanel 6 Note On - Duracao: 31800 Nota: C1 Vol.: 49
Chanel 2 Note Off - Duracao: 32040 Nota: C1 Vol.: 51
Chanel 2 Note On - Duracao: 32040 Nota: C1 Vol.: 45
Chanel 9 Note Off - Duracao: 32160 Nota: C1 Vol.: 60
Chanel 9 Note On - Duracao: 32160 Nota: C1 Vol.: 52
Chanel 4 Note Off - Duracao: 32880 Nota: C1 Vol.: 64
Chanel 4 Note On - Duracao: 32880 Nota: C1 Vol.: 63
Chanel 5 Note Off - Duracao: 33120 Nota: C1 Vol.: 45
Chanel 5 Note On - Duracao: 33120 Nota: C1 Vol.: 49
Chanel 9 Note Off - Duracao: 33120 Nota: C1 Vol.: 52
Chanel 9 Note On - Duracao: 33120 Nota: C1 Vol.: 48
Chanel 1 Note Off - Duracao: 33600 Nota: C1 Vol.: 52
Chanel 1 Note On - Duracao: 33600 Nota: C1 Vol.: 52
Chanel 6 Note Off - Duracao: 33720 Nota: C1 Vol.: 49
Chanel 6 Note On - Duracao: 33720 Nota: C1 Vol.: 49
Chanel 7 Note Off - Duracao: 33720 Nota: C1 Vol.: 46
Chanel 7 Note On - Duracao: 33720 Nota: C1 Vol.: 46
Chanel 4 Note Off - Duracao: 33840 Nota: C1 Vol.: 63
Chanel 4 Note On - Duracao: 33840 Nota: C1 Vol.: 56
Chanel 2 Note Off - Duracao: 33960 Nota: C1 Vol.: 45
Chanel 2 Note On - Duracao: 33960 Nota: C1 Vol.: 43
Chanel 8 Note Off - Duracao: 34560 Nota: C1 Vol.: 48
Chanel 8 Note On - Duracao: 34560 Nota: C1 Vol.: 40
Chanel 3 Note Off - Duracao: 34620 Nota: C1 Vol.: 48
Chanel 3 Note On - Duracao: 34620 Nota: C1 Vol.: 58
Chanel 5 Note Off - Duracao: 35040 Nota: C1 Vol.: 49
Chanel 5 Note On - Duracao: 35040 Nota: C1 Vol.: 62
Chanel 9 Note Off - Duracao: 35040 Nota: C1 Vol.: 48
Chanel 9 Note On - Duracao: 35040 Nota: C1 Vol.: 40
Chanel 1 Note Off - Duracao: 35520 Nota: C1 Vol.: 52
Chanel 1 Note On - Duracao: 35520 Nota: C1 Vol.: 53
Chanel 6 Note Off - Duracao: 35640 Nota: C1 Vol.: 49
Chanel 6 Note On - Duracao: 35640 Nota: C1 Vol.: 66
Chanel 4 Note Off - Duracao: 35760 Nota: C1 Vol.: 56
Chanel 4 Note On - Duracao: 35760 Nota: C1 Vol.: 50
Chanel 2 Note Off - Duracao: 35880 Nota: C1 Vol.: 43
Chanel 2 Note On - Duracao: 35880 Nota: C1 Vol.: 41
Chanel 5 Note Off - Duracao: 36000 Nota: C1 Vol.: 62
Chanel 5 Note On - Duracao: 36000 Nota: C1 Vol.: 73
Chanel 6 Note Off - Duracao: 36120 Nota: C1 Vol.: 66
Chanel 6 Note On - Duracao: 36120 Nota: C1 Vol.: 60
Chanel 5 Note Off - Duracao: 36240 Nota: C1 Vol.: 73
Chanel 5 Note On - Duracao: 36240 Nota: C1 Vol.: 82
Chanel 5 Note Off - Duracao: 36480 Nota: C1 Vol.: 82
Chanel 5 Note On - Duracao: 36480 Nota: C1 Vol.: 90
Chanel 3 Note Off - Duracao: 36540 Nota: C1 Vol.: 58
Chanel 3 Note On - Duracao: 36540 Nota: C1 Vol.: 54
Chanel 5 Note Off - Duracao: 36600 Nota: C1 Vol.: 90
Chanel 5 Note On - Duracao: 36600 Nota: C1 Vol.: 75
Chanel 5 Note Off - Duracao: 36840 Nota: C1 Vol.: 75
Chanel 5 Note On - Duracao: 36840 Nota: C1 Vol.: 53
Chanel 6 Note Off - Duracao: 37080 Nota: C1 Vol.: 60
Chanel 6 Note On - Duracao: 37080 Nota: C1 Vol.: 52
Chanel 1 Note Off - Duracao: 37440 Nota: C1 Vol.: 53
Chanel 1 Note On - Duracao: 37440 Nota: C1 Vol.: 52
Chanel 7 Note Off - Duracao: 37560 Nota: C1 Vol.: 46
Chanel 7 Note On - Duracao: 37560 Nota: C1 Vol.: 47
Chanel 4 Note Off - Duracao: 37680 Nota: C1 Vol.: 50
Chanel 4 Note On - Duracao: 37680 Nota: C1 Vol.: 47
Chanel 2 Note Off - Duracao: 37800 Nota: C1 Vol.: 41
Chanel 2 Note On - Duracao: 37800 Nota: C1 Vol.: 55
Chanel 5 Note Off - Duracao: 37800 Nota: C1 Vol.: 53
Chanel 5 Note On - Duracao: 37800 Nota: C1 Vol.: 58
Chanel 5 Note Off - Duracao: 38280 Nota: C1 Vol.: 58
Chanel 5 Note On - Duracao: 38280 Nota: C1 Vol.: 64
Chanel 8 Note Off - Duracao: 38400 Nota: C1 Vol.: 40
Chanel 8 Note On - Duracao: 38400 Nota: C1 Vol.: 40
Chanel 3 Note Off - Duracao: 38460 Nota: C1 Vol.: 54
Chanel 3 Note On - Duracao: 38460 Nota: C1 Vol.: 52
Chanel 2 Note Off - Duracao: 38760 Nota: C1 Vol.: 55
Chanel 2 Note On - Duracao: 38760 Nota: C1 Vol.: 49
Chanel 5 Note Off - Duracao: 38760 Nota: C1 Vol.: 64
Chanel 5 Note On - Duracao: 38760 Nota: C1 Vol.: 60
Chanel 9 Note Off - Duracao: 38880 Nota: C1 Vol.: 40
Chanel 9 Note On - Duracao: 38880 Nota: C1 Vol.: 45
Chanel 6 Note Off - Duracao: 39000 Nota: C1 Vol.: 52
Chanel 6 Note On - Duracao: 39000 Nota: C1 Vol.: 52
Chanel 1 Note Off - Duracao: 39360 Nota: C1 Vol.: 52
Chanel 1 Note On - Duracao: 39360 Nota: C1 Vol.: 53
Chanel 7 Note Off - Duracao: 39480 Nota: C1 Vol.: 47
Chanel 7 Note On - Duracao: 39480 Nota: C1 Vol.: 50
Chanel 4 Note Off - Duracao: 39600 Nota: C1 Vol.: 47
Chanel 4 Note On - Duracao: 39600 Nota: C1 Vol.: 48
Chanel 2 Note Off - Duracao: 39720 Nota: C1 Vol.: 49
Chanel 2 Note On - Duracao: 39720 Nota: C1 Vol.: 46
Chanel 5 Note Off - Duracao: 39720 Nota: C1 Vol.: 60
Chanel 5 Note On - Duracao: 39720 Nota: C1 Vol.: 51
Chanel 8 Note Off - Duracao: 40320 Nota: C1 Vol.: 40
Chanel 8 Note On - Duracao: 40320 Nota: C1 Vol.: 40
Chanel 3 Note Off - Duracao: 40380 Nota: C1 Vol.: 52
Chanel 3 Note On - Duracao: 40380 Nota: C1 Vol.: 54
Chanel 7 Note Off - Duracao: 40440 Nota: C1 Vol.: 50
Chanel 7 Note On - Duracao: 40440 Nota: C1 Vol.: 64
Chanel 9 Note Off - Duracao: 40800 Nota: C1 Vol.: 45
Chanel 9 Note On - Duracao: 40800 Nota: C1 Vol.: 40
Chanel 6 Note Off - Duracao: 40920 Nota: C1 Vol.: 52
Chanel 6 Note On - Duracao: 40920 Nota: C1 Vol.: 45
Chanel 7 Note Off - Duracao: 40920 Nota: C1 Vol.: 64
Chanel 7 Note On - Duracao: 40920 Nota: C1 Vol.: 50
Chanel 1 Note Off - Duracao: 41280 Nota: C1 Vol.: 53
Chanel 1 Note On - Duracao: 41280 Nota: C1 Vol.: 50
Chanel 4 Note Off - Duracao: 41520 Nota: C1 Vol.: 48
Chanel 4 Note On - Duracao: 41520 Nota: C1 Vol.: 49
Chanel 2 Note Off - Duracao: 41640 Nota: C1 Vol.: 46
Chanel 2 Note On - Duracao: 41640 Nota: C1 Vol.: 59
Chanel 5 Note Off - Duracao: 41640 Nota: C1 Vol.: 51
Chanel 5 Note On - Duracao: 41640 Nota: C1 Vol.: 41
Chanel 8 Note Off - Duracao: 42240 Nota: C1 Vol.: 40
Chanel 8 Note On - Duracao: 42240 Nota: C1 Vol.: 53
Chanel 3 Note Off - Duracao: 42300 Nota: C1 Vol.: 54
Chanel 3 Note On - Duracao: 42300 Nota: C1 Vol.: 64
Chanel 2 Note Off - Duracao: 42600 Nota: C1 Vol.: 59
Chanel 2 Note On - Duracao: 42600 Nota: C1 Vol.: 52
Chanel 8 Note Off - Duracao: 42720 Nota: C1 Vol.: 53
Chanel 8 Note On - Duracao: 42720 Nota: C1 Vol.: 52
Chanel 3 Note Off - Duracao: 42780 Nota: C1 Vol.: 64
Chanel 3 Note On - Duracao: 42780 Nota: C1 Vol.: 71
Chanel 6 Note Off - Duracao: 42840 Nota: C1 Vol.: 45
Chanel 6 Note On - Duracao: 42840 Nota: C1 Vol.: 46
Chanel 7 Note Off - Duracao: 42840 Nota: C1 Vol.: 50
Chanel 7 Note On - Duracao: 42840 Nota: C1 Vol.: 57
Chanel 1 Note Off - Duracao: 43200 Nota: C1 Vol.: 50
Chanel 1 Note On - Duracao: 43200 Nota: C1 Vol.: 52
Chanel 8 Note Off - Duracao: 43200 Nota: C1 Vol.: 52
Chanel 8 Note On - Duracao: 43200 Nota: C1 Vol.: 41
Chanel 3 Note Off - Duracao: 43260 Nota: C1 Vol.: 71
Chanel 3 Note On - Duracao: 43260 Nota: C1 Vol.: 54
Chanel 4 Note Off - Duracao: 43440 Nota: C1 Vol.: 49
Chanel 4 Note On - Duracao: 43440 Nota: C1 Vol.: 56
Chanel 7 Note Off - Duracao: 43800 Nota: C1 Vol.: 57
Chanel 7 Note On - Duracao: 43800 Nota: C1 Vol.: 52
Chanel 4 Note Off - Duracao: 44400 Nota: C1 Vol.: 56
Chanel 4 Note On - Duracao: 44400 Nota: C1 Vol.: 60
Chanel 2 Note Off - Duracao: 44520 Nota: C1 Vol.: 52
Chanel 2 Note On - Duracao: 44520 Nota: C1 Vol.: 54
Chanel 9 Note Off - Duracao: 44640 Nota: C1 Vol.: 40
Chanel 9 Note On - Duracao: 44640 Nota: C1 Vol.: 45
Chanel 6 Note Off - Duracao: 44760 Nota: C1 Vol.: 46
Chanel 6 Note On - Duracao: 44760 Nota: C1 Vol.: 41
Chanel 7 Note Off - Duracao: 44760 Nota: C1 Vol.: 52
Chanel 7 Note On - Duracao: 44760 Nota: C1 Vol.: 59
Chanel 1 Note Off - Duracao: 45120 Nota: C1 Vol.: 52
Chanel 1 Note On - Duracao: 45120 Nota: C1 Vol.: 52
Chanel 8 Note Off - Duracao: 45120 Nota: C1 Vol.: 41
Chanel 8 Note On - Duracao: 45120 Nota: C1 Vol.: 40
Chanel 3 Note Off - Duracao: 45180 Nota: C1 Vol.: 54
Chanel 3 Note On - Duracao: 45180 Nota: C1 Vol.: 51
Chanel 4 Note Off - Duracao: 45360 Nota: C1 Vol.: 60
Chanel 4 Note On - Duracao: 45360 Nota: C1 Vol.: 60
Chanel 2 Note Off - Duracao: 45480 Nota: C1 Vol.: 54
Chanel 2 Note On - Duracao: 45480 Nota: C1 Vol.: 56
Chanel 5 Note Off - Duracao: 45480 Nota: C1 Vol.: 41
Chanel 5 Note On - Duracao: 45480 Nota: C1 Vol.: 42
Chanel 9 Note Off - Duracao: 45600 Nota: C1 Vol.: 45
Chanel 9 Note On - Duracao: 45600 Nota: C1 Vol.: 42
Chanel 7 Note Off - Duracao: 45720 Nota: C1 Vol.: 59
Chanel 7 Note On - Duracao: 45720 Nota: C1 Vol.: 47
Chanel 4 Note Off - Duracao: 45840 Nota: C1 Vol.: 60
Chanel 4 Note On - Duracao: 45840 Nota: C1 Vol.: 59
Chanel 2 Note Off - Duracao: 46440 Nota: C1 Vol.: 56
Chanel 2 Note On - Duracao: 46440 Nota: C1 Vol.: 54
Chanel 9 Note Off - Duracao: 46560 Nota: C1 Vol.: 42
Chanel 9 Note On - Duracao: 46560 Nota: C1 Vol.: 46
Chanel 4 Note Off - Duracao: 46800 Nota: C1 Vol.: 59
Chanel 4 Note On - Duracao: 46800 Nota: C1 Vol.: 64
Chanel 1 Note Off - Duracao: 47040 Nota: C1 Vol.: 52
Chanel 1 Note On - Duracao: 47040 Nota: C1 Vol.: 46
Chanel 3 Note Off - Duracao: 47100 Nota: C1 Vol.: 51
Chanel 3 Note On - Duracao: 47100 Nota: C1 Vol.: 50
Chanel 4 Note Off - Duracao: 47280 Nota: C1 Vol.: 64
Chanel 4 Note On - Duracao: 47280 Nota: C1 Vol.: 81
Chanel 5 Note Off - Duracao: 47400 Nota: C1 Vol.: 42
Chanel 5 Note On - Duracao: 47400 Nota: C1 Vol.: 47
Chanel 1 Note Off - Duracao: 47520 Nota: C1 Vol.: 46
Chanel 1 Note On - Duracao: 47520 Nota: C1 Vol.: 63
Chanel 4 Note Off - Duracao: 47520 Nota: C1 Vol.: 81
Chanel 4 Note On - Duracao: 47520 Nota: C1 Vol.: 85
Chanel 9 Note Off - Duracao: 47520 Nota: C1 Vol.: 46
Chanel 9 Note On - Duracao: 47520 Nota: C1 Vol.: 55
Chanel 4 Note Off - Duracao: 47640 Nota: C1 Vol.: 85
Chanel 4 Note On - Duracao: 47640 Nota: C1 Vol.: 60
Chanel 1 Note Off - Duracao: 47760 Nota: C1 Vol.: 63
Chanel 1 Note On - Duracao: 47760 Nota: C1 Vol.: 49
Chanel 9 Note Off - Duracao: 48000 Nota: C1 Vol.: 55
Chanel 9 Note On - Duracao: 48000 Nota: C1 Vol.: 57
Chanel 9 Note Off - Duracao: 48240 Nota: C1 Vol.: 57
Chanel 9 Note On - Duracao: 48240 Nota: C1 Vol.: 40
Chanel 2 Note Off - Duracao: 48360 Nota: C1 Vol.: 54
Chanel 2 Note On - Duracao: 48360 Nota: C1 Vol.: 63
Chanel 4 Note Off - Duracao: 48600 Nota: C1 Vol.: 60
Chanel 4 Note On - Duracao: 48600 Nota: C1 Vol.: 67
Chanel 6 Note Off - Duracao: 48600 Nota: C1 Vol.: 41
Chanel 6 Note On - Duracao: 48600 Nota: C1 Vol.: 43
Chanel 8 Note Off - Duracao: 48960 Nota: C1 Vol.: 40
Chanel 8 Note On - Duracao: 48960 Nota: C1 Vol.: 42
Chanel 3 Note Off - Duracao: 49020 Nota: C1 Vol.: 50
Chanel 3 Note On - Duracao: 49020 Nota: C1 Vol.: 64
Chanel 2 Note Off - Duracao: 49320 Nota: C1 Vol.: 63
Chanel 2 Note On - Duracao: 49320 Nota: C1 Vol.: 93
Chanel 5 Note Off - Duracao: 49320 Nota: C1 Vol.: 47
Chanel 5 Note On - Duracao: 49320 Nota: C1 Vol.: 44
Chanel 2 Note Off - Duracao: 49440 Nota: C1 Vol.: 93
Chanel 2 Note On - Duracao: 49440 Nota: C1 Vol.: 79
Chanel 3 Note Off - Duracao: 49500 Nota: C1 Vol.: 64
Chanel 3 Note On - Duracao: 49500 Nota: C1 Vol.: 72
Chanel 4 Note Off - Duracao: 49560 Nota: C1 Vol.: 67
Chanel 4 Note On - Duracao: 49560 Nota: C1 Vol.: 79
Chanel 7 Note Off - Duracao: 49560 Nota: C1 Vol.: 47
Chanel 7 Note On - Duracao: 49560 Nota: C1 Vol.: 52
Chanel 1 Note Off - Duracao: 49680 Nota: C1 Vol.: 49
Chanel 1 Note On - Duracao: 49680 Nota: C1 Vol.: 57
Chanel 2 Note Off - Duracao: 49680 Nota: C1 Vol.: 79
Chanel 2 Note On - Duracao: 49680 Nota: C1 Vol.: 55
Chanel 3 Note Off - Duracao: 49980 Nota: C1 Vol.: 72
Chanel 3 Note On - Duracao: 49980 Nota: C1 Vol.: 73
Chanel 4 Note Off - Duracao: 50040 Nota: C1 Vol.: 79
Chanel 4 Note On - Duracao: 50040 Nota: C1 Vol.: 100
Chanel 4 Note Off - Duracao: 50160 Nota: C1 Vol.: 100
Chanel 4 Note On - Duracao: 50160 Nota: C1 Vol.: 98
Chanel 9 Note Off - Duracao: 50160 Nota: C1 Vol.: 40
Chanel 9 Note On - Duracao: 50160 Nota: C1 Vol.: 40
Chanel 4 Note Off - Duracao: 50280 Nota: C1 Vol.: 98
Chanel 4 Note On - Duracao: 50280 Nota: C1 Vol.: 71
Chanel 3 Note Off - Duracao: 50460 Nota: C1 Vol.: 73
Chanel 3 Note On - Duracao: 50460 Nota: C1 Vol.: 62
Chanel 1 Note Off - Duracao: 50640 Nota: C1 Vol.: 57
Chanel 1 Note On - Duracao: 50640 Nota: C1 Vol.: 55
Chanel 4 Note Off - Duracao: 50760 Nota: C1 Vol.: 71
Chanel 4 Note On - Duracao: 50760 Nota: C1 Vol.: 45
Chanel 9 Note Off - Duracao: 51120 Nota: C1 Vol.: 40
Chanel 9 Note On - Duracao: 51120 Nota: C1 Vol.: 48
Chanel 5 Note Off - Duracao: 51240 Nota: C1 Vol.: 44
Chanel 5 Note On - Duracao: 51240 Nota: C1 Vol.: 42
Chanel 3 Note Off - Duracao: 51420 Nota: C1 Vol.: 62
Chanel 3 Note On - Duracao: 51420 Nota: C1 Vol.: 56
Chanel 1 Note Off - Duracao: 51600 Nota: C1 Vol.: 55
Chanel 1 Note On - Duracao: 51600 Nota: C1 Vol.: 54
Chanel 2 Note Off - Duracao: 51600 Nota: C1 Vol.: 55
Chanel 2 Note On - Duracao: 51600 Nota: C1 Vol.: 59
Chanel 9 Note Off - Duracao: 52080 Nota: C1 Vol.: 48
Chanel 9 Note On - Duracao: 52080 Nota: C1 Vol.: 40
Chanel 6 Note Off - Duracao: 52440 Nota: C1 Vol.: 43
Chanel 6 Note On - Duracao: 52440 Nota: C1 Vol.: 40
Chanel 1 Note Off - Duracao: 52560 Nota: C1 Vol.: 54
Chanel 1 Note On - Duracao: 52560 Nota: C1 Vol.: 55
Chanel 2 Note Off - Duracao: 52560 Nota: C1 Vol.: 59
Chanel 2 Note On - Duracao: 52560 Nota: C1 Vol.: 80
Chanel 2 Note Off - Duracao: 52800 Nota: C1 Vol.: 80
Chanel 2 Note On - Duracao: 52800 Nota: C1 Vol.: 95
Chanel 8 Note Off - Duracao: 52800 Nota: C1 Vol.: 42
Chanel 8 Note On - Duracao: 52800 Nota: C1 Vol.: 44
Chanel 2 Note Off - Duracao: 52920 Nota: C1 Vol.: 95
Chanel 2 Note On - Duracao: 52920 Nota: C1 Vol.: 82
Chanel 9 Note Off - Duracao: 53040 Nota: C1 Vol.: 40
Chanel 9 Note On - Duracao: 53040 Nota: C1 Vol.: 67
Chanel 2 Note Off - Duracao: 53160 Nota: C1 Vol.: 82
Chanel 2 Note On - Duracao: 53160 Nota: C1 Vol.: 62
Chanel 5 Note Off - Duracao: 53160 Nota: C1 Vol.: 42
Chanel 5 Note On - Duracao: 53160 Nota: C1 Vol.: 65
Chanel 9 Note Off - Duracao: 53280 Nota: C1 Vol.: 67
Chanel 9 Note On - Duracao: 53280 Nota: C1 Vol.: 78
Chanel 3 Note Off - Duracao: 53340 Nota: C1 Vol.: 56
Chanel 3 Note On - Duracao: 53340 Nota: C1 Vol.: 49
Chanel 7 Note Off - Duracao: 53400 Nota: C1 Vol.: 52
Chanel 7 Note On - Duracao: 53400 Nota: C1 Vol.: 61
Chanel 1 Note Off - Duracao: 53520 Nota: C1 Vol.: 55
Chanel 1 Note On - Duracao: 53520 Nota: C1 Vol.: 61
Chanel 9 Note Off - Duracao: 53520 Nota: C1 Vol.: 78
Chanel 9 Note On - Duracao: 53520 Nota: C1 Vol.: 77
Chanel 2 Note Off - Duracao: 53640 Nota: C1 Vol.: 62
Chanel 2 Note On - Duracao: 53640 Nota: C1 Vol.: 64
Chanel 2 Note Off - Duracao: 53760 Nota: C1 Vol.: 64
Chanel 2 Note On - Duracao: 53760 Nota: C1 Vol.: 61
Chanel 2 Note Off - Duracao: 53820 Nota: C1 Vol.: 61
Chanel 2 Note On - Duracao: 53820 Nota: C1 Vol.: 56
Chanel 2 Note Off - Duracao: 53880 Nota: C1 Vol.: 56
Chanel 2 Note On - Duracao: 53880 Nota: C1 Vol.: 62
Chanel 2 Note Off - Duracao: 54000 Nota: C1 Vol.: 62
Chanel 2 Note On - Duracao: 54000 Nota: C1 Vol.: 59
Chanel 9 Note Off - Duracao: 54000 Nota: C1 Vol.: 77
Chanel 9 Note On - Duracao: 54000 Nota: C1 Vol.: 72
Chanel 5 Note Off - Duracao: 54120 Nota: C1 Vol.: 65
Chanel 5 Note On - Duracao: 54120 Nota: C1 Vol.: 98
Chanel 5 Note Off - Duracao: 54240 Nota: C1 Vol.: 98
Chanel 5 Note On - Duracao: 54240 Nota: C1 Vol.: 100
Chanel 5 Note Off - Duracao: 54360 Nota: C1 Vol.: 100
Chanel 5 Note On - Duracao: 54360 Nota: C1 Vol.: 87
Chanel 1 Note Off - Duracao: 54480 Nota: C1 Vol.: 61
Chanel 1 Note On - Duracao: 54480 Nota: C1 Vol.: 83
Chanel 2 Note Off - Duracao: 54480 Nota: C1 Vol.: 59
Chanel 2 Note On - Duracao: 54480 Nota: C1 Vol.: 54
Chanel 4 Note Off - Duracao: 54600 Nota: C1 Vol.: 45
Chanel 4 Note On - Duracao: 54600 Nota: C1 Vol.: 47
Chanel 5 Note Off - Duracao: 54600 Nota: C1 Vol.: 87
Chanel 5 Note On - Duracao: 54600 Nota: C1 Vol.: 47
Chanel 1 Note Off - Duracao: 54720 Nota: C1 Vol.: 83
Chanel 1 Note On - Duracao: 54720 Nota: C1 Vol.: 93
Chanel 1 Note Off - Duracao: 54840 Nota: C1 Vol.: 93
Chanel 1 Note On - Duracao: 54840 Nota: C1 Vol.: 99
Chanel 1 Note Off - Duracao: 54900 Nota: C1 Vol.: 99
Chanel 1 Note On - Duracao: 54900 Nota: C1 Vol.: 93
Chanel 9 Note Off - Duracao: 54960 Nota: C1 Vol.: 72
Chanel 9 Note On - Duracao: 54960 Nota: C1 Vol.: 69
Chanel 1 Note Off - Duracao: 55020 Nota: C1 Vol.: 93
Chanel 1 Note On - Duracao: 55020 Nota: C1 Vol.: 94
Chanel 1 Note Off - Duracao: 55140 Nota: C1 Vol.: 94
Chanel 1 Note On - Duracao: 55140 Nota: C1 Vol.: 91
Chanel 1 Note Off - Duracao: 55260 Nota: C1 Vol.: 91
Chanel 1 Note On - Duracao: 55260 Nota: C1 Vol.: 73
Chanel 3 Note Off - Duracao: 55260 Nota: C1 Vol.: 49
Chanel 3 Note On - Duracao: 55260 Nota: C1 Vol.: 47
Chanel 7 Note Off - Duracao: 55320 Nota: C1 Vol.: 61
Chanel 7 Note On - Duracao: 55320 Nota: C1 Vol.: 73
Chanel 2 Note Off - Duracao: 55440 Nota: C1 Vol.: 54
Chanel 2 Note On - Duracao: 55440 Nota: C1 Vol.: 58
Chanel 1 Note Off - Duracao: 55500 Nota: C1 Vol.: 73
Chanel 1 Note On - Duracao: 55500 Nota: C1 Vol.: 66
Chanel 1 Note Off - Duracao: 55740 Nota: C1 Vol.: 66
Chanel 1 Note On - Duracao: 55740 Nota: C1 Vol.: 55
Chanel 1 Note Off - Duracao: 56220 Nota: C1 Vol.: 55
Chanel 1 Note On - Duracao: 56220 Nota: C1 Vol.: 61
Chanel 6 Note Off - Duracao: 56280 Nota: C1 Vol.: 40
Chanel 6 Note On - Duracao: 56280 Nota: C1 Vol.: 40
Chanel 7 Note Off - Duracao: 56280 Nota: C1 Vol.: 73
Chanel 7 Note On - Duracao: 56280 Nota: C1 Vol.: 87
Chanel 2 Note Off - Duracao: 56400 Nota: C1 Vol.: 58
Chanel 2 Note On - Duracao: 56400 Nota: C1 Vol.: 82
Chanel 1 Note Off - Duracao: 56460 Nota: C1 Vol.: 61
Chanel 1 Note On - Duracao: 56460 Nota: C1 Vol.: 69
Chanel 4 Note Off - Duracao: 56520 Nota: C1 Vol.: 47
Chanel 4 Note On - Duracao: 56520 Nota: C1 Vol.: 45
Chanel 5 Note Off - Duracao: 56520 Nota: C1 Vol.: 47
Chanel 5 Note On - Duracao: 56520 Nota: C1 Vol.: 43
Chanel 7 Note Off - Duracao: 56520 Nota: C1 Vol.: 87
Chanel 7 Note On - Duracao: 56520 Nota: C1 Vol.: 88
Chanel 1 Note Off - Duracao: 56580 Nota: C1 Vol.: 69
Chanel 1 Note On - Duracao: 56580 Nota: C1 Vol.: 66
Chanel 2 Note Off - Duracao: 56640 Nota: C1 Vol.: 82
Chanel 2 Note On - Duracao: 56640 Nota: C1 Vol.: 67
Chanel 8 Note Off - Duracao: 56640 Nota: C1 Vol.: 44
Chanel 8 Note On - Duracao: 56640 Nota: C1 Vol.: 44
Chanel 1 Note Off - Duracao: 56700 Nota: C1 Vol.: 66
Chanel 1 Note On - Duracao: 56700 Nota: C1 Vol.: 61
Chanel 7 Note Off - Duracao: 56760 Nota: C1 Vol.: 88
Chanel 7 Note On - Duracao: 56760 Nota: C1 Vol.: 81
Chanel 1 Note Off - Duracao: 56820 Nota: C1 Vol.: 61
Chanel 1 Note On - Duracao: 56820 Nota: C1 Vol.: 57
Chanel 9 Note Off - Duracao: 56880 Nota: C1 Vol.: 69
Chanel 9 Note On - Duracao: 56880 Nota: C1 Vol.: 78
Chanel 1 Note Off - Duracao: 57060 Nota: C1 Vol.: 57
Chanel 1 Note On - Duracao: 57060 Nota: C1 Vol.: 70
Chanel 2 Note Off - Duracao: 57120 Nota: C1 Vol.: 67
Chanel 2 Note On - Duracao: 57120 Nota: C1 Vol.: 60
Chanel 1 Note Off - Duracao: 57180 Nota: C1 Vol.: 70
Chanel 1 Note On - Duracao: 57180 Nota: C1 Vol.: 74
Chanel 3 Note Off - Duracao: 57180 Nota: C1 Vol.: 47
Chanel 3 Note On - Duracao: 57180 Nota: C1 Vol.: 67
Chanel 7 Note Off - Duracao: 57240 Nota: C1 Vol.: 81
Chanel 7 Note On - Duracao: 57240 Nota: C1 Vol.: 88
Chanel 1 Note Off - Duracao: 57300 Nota: C1 Vol.: 74
Chanel 1 Note On - Duracao: 57300 Nota: C1 Vol.: 77
Chanel 1 Note Off - Duracao: 57420 Nota: C1 Vol.: 77
Chanel 1 Note On - Duracao: 57420 Nota: C1 Vol.: 64
Chanel 7 Note Off - Duracao: 57480 Nota: C1 Vol.: 88
Chanel 7 Note On - Duracao: 57480 Nota: C1 Vol.: 57
Chanel 1 Note Off - Duracao: 57660 Nota: C1 Vol.: 64
Chanel 1 Note On - Duracao: 57660 Nota: C1 Vol.: 67
Chanel 3 Note Off - Duracao: 57660 Nota: C1 Vol.: 67
Chanel 3 Note On - Duracao: 57660 Nota: C1 Vol.: 72
Chanel 1 Note Off - Duracao: 57780 Nota: C1 Vol.: 67
Chanel 1 Note On - Duracao: 57780 Nota: C1 Vol.: 63
Chanel 9 Note Off - Duracao: 57840 Nota: C1 Vol.: 78
Chanel 9 Note On - Duracao: 57840 Nota: C1 Vol.: 67
Chanel 1 Note Off - Duracao: 57900 Nota: C1 Vol.: 63
Chanel 1 Note On - Duracao: 57900 Nota: C1 Vol.: 68
Chanel 1 Note Off - Duracao: 58020 Nota: C1 Vol.: 68
Chanel 1 Note On - Duracao: 58020 Nota: C1 Vol.: 65
Chanel 2 Note Off - Duracao: 58080 Nota: C1 Vol.: 60
Chanel 2 Note On - Duracao: 58080 Nota: C1 Vol.: 77
Chanel 3 Note Off - Duracao: 58140 Nota: C1 Vol.: 72
Chanel 3 Note On - Duracao: 58140 Nota: C1 Vol.: 65
Chanel 1 Note Off - Duracao: 58260 Nota: C1 Vol.: 65
Chanel 1 Note On - Duracao: 58260 Nota: C1 Vol.: 57
Chanel 2 Note Off - Duracao: 58320 Nota: C1 Vol.: 77
Chanel 2 Note On - Duracao: 58320 Nota: C1 Vol.: 84
Chanel 2 Note Off - Duracao: 58560 Nota: C1 Vol.: 84
Chanel 2 Note On - Duracao: 58560 Nota: C1 Vol.: 67
Chanel 3 Note Off - Duracao: 58620 Nota: C1 Vol.: 65
Chanel 3 Note On - Duracao: 58620 Nota: C1 Vol.: 53
Chanel 1 Note Off - Duracao: 58740 Nota: C1 Vol.: 57
Chanel 1 Note On - Duracao: 58740 Nota: C1 Vol.: 56
Chanel 9 Note Off - Duracao: 58800 Nota: C1 Vol.: 67
Chanel 9 Note On - Duracao: 58800 Nota: C1 Vol.: 48
Chanel 7 Note Off - Duracao: 59400 Nota: C1 Vol.: 57
Chanel 7 Note On - Duracao: 59400 Nota: C1 Vol.: 49
Chanel 2 Note Off - Duracao: 59520 Nota: C1 Vol.: 67
Chanel 2 Note On - Duracao: 59520 Nota: C1 Vol.: 54
Chanel 3 Note Off - Duracao: 59580 Nota: C1 Vol.: 53
Chanel 3 Note On - Duracao: 59580 Nota: C1 Vol.: 56
Chanel 1 Note Off - Duracao: 59700 Nota: C1 Vol.: 56
Chanel 1 Note On - Duracao: 59700 Nota: C1 Vol.: 57
Chanel 6 Note Off - Duracao: 60120 Nota: C1 Vol.: 40
Chanel 6 Note On - Duracao: 60120 Nota: C1 Vol.: 44
Chanel 4 Note Off - Duracao: 60360 Nota: C1 Vol.: 45
Chanel 4 Note On - Duracao: 60360 Nota: C1 Vol.: 79
Chanel 5 Note Off - Duracao: 60360 Nota: C1 Vol.: 43
Chanel 5 Note On - Duracao: 60360 Nota: C1 Vol.: 52
Chanel 8 Note Off - Duracao: 60480 Nota: C1 Vol.: 44
Chanel 8 Note On - Duracao: 60480 Nota: C1 Vol.: 40
Chanel 3 Note Off - Duracao: 60540 Nota: C1 Vol.: 56
Chanel 3 Note On - Duracao: 60540 Nota: C1 Vol.: 60
Chanel 4 Note Off - Duracao: 60600 Nota: C1 Vol.: 79
Chanel 4 Note On - Duracao: 60600 Nota: C1 Vol.: 77
Chanel 1 Note Off - Duracao: 60660 Nota: C1 Vol.: 57
Chanel 1 Note On - Duracao: 60660 Nota: C1 Vol.: 56
Chanel 4 Note Off - Duracao: 60840 Nota: C1 Vol.: 77
Chanel 4 Note On - Duracao: 60840 Nota: C1 Vol.: 49
Chanel 2 Note Off - Duracao: 61440 Nota: C1 Vol.: 54
Chanel 2 Note On - Duracao: 61440 Nota: C1 Vol.: 54
Chanel 3 Note Off - Duracao: 61500 Nota: C1 Vol.: 60
Chanel 3 Note On - Duracao: 61500 Nota: C1 Vol.: 82
Chanel 1 Note Off - Duracao: 61620 Nota: C1 Vol.: 56
Chanel 1 Note On - Duracao: 61620 Nota: C1 Vol.: 57
Chanel 2 Note Off - Duracao: 61680 Nota: C1 Vol.: 54
Chanel 2 Note On - Duracao: 61680 Nota: C1 Vol.: 61
Chanel 2 Note Off - Duracao: 61740 Nota: C1 Vol.: 61
Chanel 2 Note On - Duracao: 61740 Nota: C1 Vol.: 51
Chanel 3 Note Off - Duracao: 61740 Nota: C1 Vol.: 82
Chanel 3 Note On - Duracao: 61740 Nota: C1 Vol.: 100
Chanel 4 Note Off - Duracao: 61800 Nota: C1 Vol.: 49
Chanel 4 Note On - Duracao: 61800 Nota: C1 Vol.: 45
Chanel 2 Note Off - Duracao: 61860 Nota: C1 Vol.: 51
Chanel 2 Note On - Duracao: 61860 Nota: C1 Vol.: 55
Chanel 3 Note Off - Duracao: 61860 Nota: C1 Vol.: 100
Chanel 3 Note On - Duracao: 61860 Nota: C1 Vol.: 100
Chanel 2 Note Off - Duracao: 61920 Nota: C1 Vol.: 55
Chanel 2 Note On - Duracao: 61920 Nota: C1 Vol.: 55
Chanel 3 Note Off - Duracao: 61980 Nota: C1 Vol.: 100
Chanel 3 Note On - Duracao: 61980 Nota: C1 Vol.: 86
Chanel 2 Note Off - Duracao: 62040 Nota: C1 Vol.: 55
Chanel 2 Note On - Duracao: 62040 Nota: C1 Vol.: 49
Chanel 6 Note Off - Duracao: 62040 Nota: C1 Vol.: 44
Chanel 6 Note On - Duracao: 62040 Nota: C1 Vol.: 43
Chanel 3 Note Off - Duracao: 62220 Nota: C1 Vol.: 86
Chanel 3 Note On - Duracao: 62220 Nota: C1 Vol.: 93
Chanel 3 Note Off - Duracao: 62340 Nota: C1 Vol.: 93
Chanel 3 Note On - Duracao: 62340 Nota: C1 Vol.: 85
Chanel 3 Note Off - Duracao: 62460 Nota: C1 Vol.: 85
Chanel 3 Note On - Duracao: 62460 Nota: C1 Vol.: 71
Chanel 2 Note Off - Duracao: 62520 Nota: C1 Vol.: 49
Chanel 2 Note On - Duracao: 62520 Nota: C1 Vol.: 50
Chanel 1 Note Off - Duracao: 62580 Nota: C1 Vol.: 57
Chanel 1 Note On - Duracao: 62580 Nota: C1 Vol.: 55
Chanel 9 Note Off - Duracao: 62640 Nota: C1 Vol.: 48
Chanel 9 Note On - Duracao: 62640 Nota: C1 Vol.: 44
Chanel 3 Note Off - Duracao: 62940 Nota: C1 Vol.: 71
Chanel 3 Note On - Duracao: 62940 Nota: C1 Vol.: 57
Chanel 7 Note Off - Duracao: 63240 Nota: C1 Vol.: 49
Chanel 7 Note On - Duracao: 63240 Nota: C1 Vol.: 50
Chanel 2 Note Off - Duracao: 63480 Nota: C1 Vol.: 50
Chanel 2 Note On - Duracao: 63480 Nota: C1 Vol.: 51
Chanel 4 Note Off - Duracao: 63720 Nota: C1 Vol.: 45
Chanel 4 Note On - Duracao: 63720 Nota: C1 Vol.: 49
Chanel 3 Note Off - Duracao: 63900 Nota: C1 Vol.: 57
Chanel 3 Note On - Duracao: 63900 Nota: C1 Vol.: 69
Chanel 6 Note Off - Duracao: 63960 Nota: C1 Vol.: 43
Chanel 6 Note On - Duracao: 63960 Nota: C1 Vol.: 40
Chanel 3 Note Off - Duracao: 64140 Nota: C1 Vol.: 69
Chanel 3 Note On - Duracao: 64140 Nota: C1 Vol.: 75
Chanel 5 Note Off - Duracao: 64200 Nota: C1 Vol.: 52
Chanel 5 Note On - Duracao: 64200 Nota: C1 Vol.: 50
Chanel 3 Note Off - Duracao: 64260 Nota: C1 Vol.: 75
Chanel 3 Note On - Duracao: 64260 Nota: C1 Vol.: 76
Chanel 3 Note Off - Duracao: 64320 Nota: C1 Vol.: 76
Chanel 3 Note On - Duracao: 64320 Nota: C1 Vol.: 47
Chanel 8 Note Off - Duracao: 64320 Nota: C1 Vol.: 40
Chanel 8 Note On - Duracao: 64320 Nota: C1 Vol.: 41
Chanel 1 Note Off - Duracao: 64500 Nota: C1 Vol.: 55
Chanel 1 Note On - Duracao: 64500 Nota: C1 Vol.: 55
Chanel 9 Note Off - Duracao: 64560 Nota: C1 Vol.: 44
Chanel 9 Note On - Duracao: 64560 Nota: C1 Vol.: 44
Chanel 4 Note Off - Duracao: 64680 Nota: C1 Vol.: 49
Chanel 4 Note On - Duracao: 64680 Nota: C1 Vol.: 59
Chanel 3 Note Off - Duracao: 65280 Nota: C1 Vol.: 47
Chanel 3 Note On - Duracao: 65280 Nota: C1 Vol.: 83
Chanel 2 Note Off - Duracao: 65400 Nota: C1 Vol.: 51
Chanel 2 Note On - Duracao: 65400 Nota: C1 Vol.: 49
Chanel 3 Note Off - Duracao: 65400 Nota: C1 Vol.: 83
Chanel 3 Note On - Duracao: 65400 Nota: C1 Vol.: 79
Chanel 3 Note Off - Duracao: 65640 Nota: C1 Vol.: 79
Chanel 3 Note On - Duracao: 65640 Nota: C1 Vol.: 54
Chanel 4 Note Off - Duracao: 65640 Nota: C1 Vol.: 59
Chanel 4 Note On - Duracao: 65640 Nota: C1 Vol.: 78
Chanel 4 Note Off - Duracao: 65880 Nota: C1 Vol.: 78
Chanel 4 Note On - Duracao: 65880 Nota: C1 Vol.: 61
Chanel 1 Note Off - Duracao: 66420 Nota: C1 Vol.: 55
Chanel 1 Note On - Duracao: 66420 Nota: C1 Vol.: 55
Chanel 9 Note Off - Duracao: 66480 Nota: C1 Vol.: 44
Chanel 9 Note On - Duracao: 66480 Nota: C1 Vol.: 40
Chanel 4 Note Off - Duracao: 66840 Nota: C1 Vol.: 61
Chanel 4 Note On - Duracao: 66840 Nota: C1 Vol.: 59
Chanel 7 Note Off - Duracao: 67080 Nota: C1 Vol.: 50
Chanel 7 Note On - Duracao: 67080 Nota: C1 Vol.: 46
Chanel 2 Note Off - Duracao: 67320 Nota: C1 Vol.: 49
Chanel 2 Note On - Duracao: 67320 Nota: C1 Vol.: 51
Chanel 4 Note Off - Duracao: 67320 Nota: C1 Vol.: 59
Chanel 4 Note On - Duracao: 67320 Nota: C1 Vol.: 64
Chanel 3 Note Off - Duracao: 67560 Nota: C1 Vol.: 54
Chanel 3 Note On - Duracao: 67560 Nota: C1 Vol.: 78
Chanel 3 Note Off - Duracao: 67800 Nota: C1 Vol.: 78
Chanel 3 Note On - Duracao: 67800 Nota: C1 Vol.: 87
Chanel 4 Note Off - Duracao: 67800 Nota: C1 Vol.: 64
Chanel 4 Note On - Duracao: 67800 Nota: C1 Vol.: 56
Chanel 6 Note Off - Duracao: 67800 Nota: C1 Vol.: 40
Chanel 6 Note On - Duracao: 67800 Nota: C1 Vol.: 42
Chanel 3 Note Off - Duracao: 67920 Nota: C1 Vol.: 87
Chanel 3 Note On - Duracao: 67920 Nota: C1 Vol.: 95
Chanel 3 Note Off - Duracao: 67980 Nota: C1 Vol.: 95
Chanel 3 Note On - Duracao: 67980 Nota: C1 Vol.: 86
Chanel 5 Note Off - Duracao: 68040 Nota: C1 Vol.: 50
Chanel 5 Note On - Duracao: 68040 Nota: C1 Vol.: 49
Chanel 3 Note Off - Duracao: 68100 Nota: C1 Vol.: 86
Chanel 3 Note On - Duracao: 68100 Nota: C1 Vol.: 61
Chanel 8 Note Off - Duracao: 68160 Nota: C1 Vol.: 41
Chanel 8 Note On - Duracao: 68160 Nota: C1 Vol.: 43
Chanel 4 Note Off - Duracao: 68280 Nota: C1 Vol.: 56
Chanel 4 Note On - Duracao: 68280 Nota: C1 Vol.: 69
Chanel 1 Note Off - Duracao: 68340 Nota: C1 Vol.: 55
Chanel 1 Note On - Duracao: 68340 Nota: C1 Vol.: 52
Chanel 4 Note Off - Duracao: 68520 Nota: C1 Vol.: 69
Chanel 4 Note On - Duracao: 68520 Nota: C1 Vol.: 70
Chanel 4 Note Off - Duracao: 69000 Nota: C1 Vol.: 70
Chanel 4 Note On - Duracao: 69000 Nota: C1 Vol.: 58
Chanel 3 Note Off - Duracao: 69060 Nota: C1 Vol.: 61
Chanel 3 Note On - Duracao: 69060 Nota: C1 Vol.: 58
Chanel 2 Note Off - Duracao: 69240 Nota: C1 Vol.: 51
Chanel 2 Note On - Duracao: 69240 Nota: C1 Vol.: 62
Chanel 4 Note Off - Duracao: 69960 Nota: C1 Vol.: 58
Chanel 4 Note On - Duracao: 69960 Nota: C1 Vol.: 67
Chanel 3 Note Off - Duracao: 70020 Nota: C1 Vol.: 58
Chanel 3 Note On - Duracao: 70020 Nota: C1 Vol.: 91
Chanel 3 Note Off - Duracao: 70140 Nota: C1 Vol.: 91
Chanel 3 Note On - Duracao: 70140 Nota: C1 Vol.: 82
Chanel 2 Note Off - Duracao: 70200 Nota: C1 Vol.: 62
Chanel 2 Note On - Duracao: 70200 Nota: C1 Vol.: 73
Chanel 1 Note Off - Duracao: 70260 Nota: C1 Vol.: 52
Chanel 1 Note On - Duracao: 70260 Nota: C1 Vol.: 52
Chanel 9 Note Off - Duracao: 70320 Nota: C1 Vol.: 40
Chanel 9 Note On - Duracao: 70320 Nota: C1 Vol.: 45
Chanel 3 Note Off - Duracao: 70380 Nota: C1 Vol.: 82
Chanel 3 Note On - Duracao: 70380 Nota: C1 Vol.: 57
Chanel 2 Note Off - Duracao: 70440 Nota: C1 Vol.: 73
Chanel 2 Note On - Duracao: 70440 Nota: C1 Vol.: 83
Chanel 4 Note Off - Duracao: 70440 Nota: C1 Vol.: 67
Chanel 4 Note On - Duracao: 70440 Nota: C1 Vol.: 60
Chanel 2 Note Off - Duracao: 70680 Nota: C1 Vol.: 83
Chanel 2 Note On - Duracao: 70680 Nota: C1 Vol.: 78
Chanel 2 Note Off - Duracao: 70920 Nota: C1 Vol.: 78
Chanel 2 Note On - Duracao: 70920 Nota: C1 Vol.: 46
Chanel 7 Note Off - Duracao: 70920 Nota: C1 Vol.: 46
Chanel 7 Note On - Duracao: 70920 Nota: C1 Vol.: 46
Chanel 3 Note Off - Duracao: 71340 Nota: C1 Vol.: 57
Chanel 3 Note On - Duracao: 71340 Nota: C1 Vol.: 57
Chanel 4 Note Off - Duracao: 71400 Nota: C1 Vol.: 60
Chanel 4 Note On - Duracao: 71400 Nota: C1 Vol.: 69
Chanel 6 Note Off - Duracao: 71640 Nota: C1 Vol.: 42
Chanel 6 Note On - Duracao: 71640 Nota: C1 Vol.: 45
Chanel 4 Note Off - Duracao: 71880 Nota: C1 Vol.: 69
Chanel 4 Note On - Duracao: 71880 Nota: C1 Vol.: 52
Chanel 5 Note Off - Duracao: 71880 Nota: C1 Vol.: 49
Chanel 5 Note On - Duracao: 71880 Nota: C1 Vol.: 49
Chanel 8 Note Off - Duracao: 72000 Nota: C1 Vol.: 43
Chanel 8 Note On - Duracao: 72000 Nota: C1 Vol.: 45
Chanel 1 Note Off - Duracao: 72180 Nota: C1 Vol.: 52
Chanel 1 Note On - Duracao: 72180 Nota: C1 Vol.: 51
Chanel 9 Note Off - Duracao: 72240 Nota: C1 Vol.: 45
Chanel 9 Note On - Duracao: 72240 Nota: C1 Vol.: 43
Chanel 3 Note Off - Duracao: 72300 Nota: C1 Vol.: 57
Chanel 3 Note On - Duracao: 72300 Nota: C1 Vol.: 55
Chanel 4 Note Off - Duracao: 72840 Nota: C1 Vol.: 52
Chanel 4 Note On - Duracao: 72840 Nota: C1 Vol.: 51
Chanel 3 Note Off - Duracao: 73260 Nota: C1 Vol.: 55
Chanel 3 Note On - Duracao: 73260 Nota: C1 Vol.: 45
Chanel 6 Note Off - Duracao: 73560 Nota: C1 Vol.: 45
Chanel 6 Note On - Duracao: 73560 Nota: C1 Vol.: 42
Chanel 4 Note Off - Duracao: 73800 Nota: C1 Vol.: 51
Chanel 4 Note On - Duracao: 73800 Nota: C1 Vol.: 74
Chanel 5 Note Off - Duracao: 73800 Nota: C1 Vol.: 49
Chanel 5 Note On - Duracao: 73800 Nota: C1 Vol.: 47
Chanel 4 Note Off - Duracao: 74040 Nota: C1 Vol.: 74
Chanel 4 Note On - Duracao: 74040 Nota: C1 Vol.: 83
Chanel 1 Note Off - Duracao: 74100 Nota: C1 Vol.: 51
Chanel 1 Note On - Duracao: 74100 Nota: C1 Vol.: 54
Chanel 4 Note Off - Duracao: 74520 Nota: C1 Vol.: 83
Chanel 4 Note On - Duracao: 74520 Nota: C1 Vol.: 77
Chanel 2 Note Off - Duracao: 74760 Nota: C1 Vol.: 46
Chanel 2 Note On - Duracao: 74760 Nota: C1 Vol.: 53
Chanel 7 Note Off - Duracao: 74760 Nota: C1 Vol.: 46
Chanel 7 Note On - Duracao: 74760 Nota: C1 Vol.: 46
Chanel 4 Note Off - Duracao: 75480 Nota: C1 Vol.: 77
Chanel 4 Note On - Duracao: 75480 Nota: C1 Vol.: 80
Chanel 5 Note Off - Duracao: 75720 Nota: C1 Vol.: 47
Chanel 5 Note On - Duracao: 75720 Nota: C1 Vol.: 43
Chanel 8 Note Off - Duracao: 75840 Nota: C1 Vol.: 45
Chanel 8 Note On - Duracao: 75840 Nota: C1 Vol.: 49
Chanel 1 Note Off - Duracao: 76020 Nota: C1 Vol.: 54
Chanel 1 Note On - Duracao: 76020 Nota: C1 Vol.: 52
Chanel 9 Note Off - Duracao: 76080 Nota: C1 Vol.: 43
Chanel 9 Note On - Duracao: 76080 Nota: C1 Vol.: 42
Chanel 4 Note Off - Duracao: 76440 Nota: C1 Vol.: 80
Chanel 4 Note On - Duracao: 76440 Nota: C1 Vol.: 77
Chanel 2 Note Off - Duracao: 76680 Nota: C1 Vol.: 53
Chanel 2 Note On - Duracao: 76680 Nota: C1 Vol.: 46
Chanel 3 Note Off - Duracao: 77100 Nota: C1 Vol.: 45
Chanel 3 Note On - Duracao: 77100 Nota: C1 Vol.: 51
Chanel 4 Note Off - Duracao: 77400 Nota: C1 Vol.: 77
Chanel 4 Note On - Duracao: 77400 Nota: C1 Vol.: 78
Chanel 6 Note Off - Duracao: 77400 Nota: C1 Vol.: 42
Chanel 6 Note On - Duracao: 77400 Nota: C1 Vol.: 40
Chanel 5 Note Off - Duracao: 77640 Nota: C1 Vol.: 43
Chanel 5 Note On - Duracao: 77640 Nota: C1 Vol.: 72
Chanel 1 Note Off - Duracao: 77940 Nota: C1 Vol.: 52
Chanel 1 Note On - Duracao: 77940 Nota: C1 Vol.: 54
Chanel 5 Note Off - Duracao: 78120 Nota: C1 Vol.: 72
Chanel 5 Note On - Duracao: 78120 Nota: C1 Vol.: 63
Chanel 4 Note Off - Duracao: 78360 Nota: C1 Vol.: 78
Chanel 4 Note On - Duracao: 78360 Nota: C1 Vol.: 73
Chanel 2 Note Off - Duracao: 78600 Nota: C1 Vol.: 46
Chanel 2 Note On - Duracao: 78600 Nota: C1 Vol.: 44
Chanel 7 Note Off - Duracao: 78600 Nota: C1 Vol.: 46
Chanel 7 Note On - Duracao: 78600 Nota: C1 Vol.: 46
Chanel 3 Note Off - Duracao: 79020 Nota: C1 Vol.: 51
Chanel 3 Note On - Duracao: 79020 Nota: C1 Vol.: 51
Chanel 5 Note Off - Duracao: 79080 Nota: C1 Vol.: 63
Chanel 5 Note On - Duracao: 79080 Nota: C1 Vol.: 52
Chanel 4 Note Off - Duracao: 79320 Nota: C1 Vol.: 73
Chanel 4 Note On - Duracao: 79320 Nota: C1 Vol.: 63
Chanel 8 Note Off - Duracao: 79680 Nota: C1 Vol.: 49
Chanel 8 Note On - Duracao: 79680 Nota: C1 Vol.: 42
Chanel 1 Note Off - Duracao: 79860 Nota: C1 Vol.: 54
Chanel 1 Note On - Duracao: 79860 Nota: C1 Vol.: 53
Chanel 9 Note Off - Duracao: 79920 Nota: C1 Vol.: 42
Chanel 9 Note On - Duracao: 79920 Nota: C1 Vol.: 43
Chanel 5 Note Off - Duracao: 80040 Nota: C1 Vol.: 52
Chanel 5 Note On - Duracao: 80040 Nota: C1 Vol.: 51
Chanel 2 Note Off - Duracao: 80520 Nota: C1 Vol.: 44
Chanel 2 Note On - Duracao: 80520 Nota: C1 Vol.: 44
Chanel 5 Note Off - Duracao: 81000 Nota: C1 Vol.: 51
Chanel 5 Note On - Duracao: 81000 Nota: C1 Vol.: 58
Chanel 4 Note Off - Duracao: 81240 Nota: C1 Vol.: 63
Chanel 4 Note On - Duracao: 81240 Nota: C1 Vol.: 47
Chanel 6 Note Off - Duracao: 81240 Nota: C1 Vol.: 40
Chanel 6 Note On - Duracao: 81240 Nota: C1 Vol.: 40
Chanel 1 Note Off - Duracao: 81780 Nota: C1 Vol.: 53
Chanel 1 Note On - Duracao: 81780 Nota: C1 Vol.: 52
Chanel 5 Note Off - Duracao: 81960 Nota: C1 Vol.: 58
Chanel 5 Note On - Duracao: 81960 Nota: C1 Vol.: 56
Chanel 2 Note Off - Duracao: 82440 Nota: C1 Vol.: 44
Chanel 2 Note On - Duracao: 82440 Nota: C1 Vol.: 46
Chanel 7 Note Off - Duracao: 82440 Nota: C1 Vol.: 46
Chanel 7 Note On - Duracao: 82440 Nota: C1 Vol.: 45
Chanel 3 Note Off - Duracao: 82860 Nota: C1 Vol.: 51
Chanel 3 Note On - Duracao: 82860 Nota: C1 Vol.: 52
Chanel 8 Note Off - Duracao: 83520 Nota: C1 Vol.: 42
Chanel 8 Note On - Duracao: 83520 Nota: C1 Vol.: 41
Chanel 1 Note Off - Duracao: 83700 Nota: C1 Vol.: 52
Chanel 1 Note On - Duracao: 83700 Nota: C1 Vol.: 52
Chanel 9 Note Off - Duracao: 83760 Nota: C1 Vol.: 43
Chanel 9 Note On - Duracao: 83760 Nota: C1 Vol.: 50
Chanel 5 Note Off - Duracao: 83880 Nota: C1 Vol.: 56
Chanel 5 Note On - Duracao: 83880 Nota: C1 Vol.: 59
Chanel 2 Note Off - Duracao: 84360 Nota: C1 Vol.: 46
Chanel 2 Note On - Duracao: 84360 Nota: C1 Vol.: 51
Chanel 3 Note Off - Duracao: 84780 Nota: C1 Vol.: 52
Chanel 3 Note On - Duracao: 84780 Nota: C1 Vol.: 48
Chanel 4 Note Off - Duracao: 85080 Nota: C1 Vol.: 47
Chanel 4 Note On - Duracao: 85080 Nota: C1 Vol.: 55
Chanel 6 Note Off - Duracao: 85080 Nota: C1 Vol.: 40
Chanel 6 Note On - Duracao: 85080 Nota: C1 Vol.: 40
Chanel 2 Note Off - Duracao: 85320 Nota: C1 Vol.: 51
Chanel 2 Note On - Duracao: 85320 Nota: C1 Vol.: 48
Chanel 1 Note Off - Duracao: 85620 Nota: C1 Vol.: 52
Chanel 1 Note On - Duracao: 85620 Nota: C1 Vol.: 53
Chanel 5 Note Off - Duracao: 85800 Nota: C1 Vol.: 59
Chanel 5 Note On - Duracao: 85800 Nota: C1 Vol.: 58
Chanel 7 Note Off - Duracao: 86280 Nota: C1 Vol.: 45
Chanel 7 Note On - Duracao: 86280 Nota: C1 Vol.: 44
Chanel 4 Note Off - Duracao: 87000 Nota: C1 Vol.: 55
Chanel 4 Note On - Duracao: 87000 Nota: C1 Vol.: 51
Chanel 2 Note Off - Duracao: 87240 Nota: C1 Vol.: 48
Chanel 2 Note On - Duracao: 87240 Nota: C1 Vol.: 57
Chanel 8 Note Off - Duracao: 87360 Nota: C1 Vol.: 41
Chanel 8 Note On - Duracao: 87360 Nota: C1 Vol.: 64
Chanel 1 Note Off - Duracao: 87540 Nota: C1 Vol.: 53
Chanel 1 Note On - Duracao: 87540 Nota: C1 Vol.: 53
Chanel 9 Note Off - Duracao: 87600 Nota: C1 Vol.: 50
Chanel 9 Note On - Duracao: 87600 Nota: C1 Vol.: 67
Chanel 5 Note Off - Duracao: 87720 Nota: C1 Vol.: 58
Chanel 5 Note On - Duracao: 87720 Nota: C1 Vol.: 67
Chanel 8 Note Off - Duracao: 87840 Nota: C1 Vol.: 64
Chanel 8 Note On - Duracao: 87840 Nota: C1 Vol.: 76
Chanel 8 Note Off - Duracao: 88080 Nota: C1 Vol.: 76
Chanel 8 Note On - Duracao: 88080 Nota: C1 Vol.: 64
Chanel 2 Note Off - Duracao: 88200 Nota: C1 Vol.: 57
Chanel 2 Note On - Duracao: 88200 Nota: C1 Vol.: 53
Chanel 5 Note Off - Duracao: 88200 Nota: C1 Vol.: 67
Chanel 5 Note On - Duracao: 88200 Nota: C1 Vol.: 52
Chanel 9 Note Off - Duracao: 88560 Nota: C1 Vol.: 67
Chanel 9 Note On - Duracao: 88560 Nota: C1 Vol.: 85
Chanel 3 Note Off - Duracao: 88620 Nota: C1 Vol.: 48
Chanel 3 Note On - Duracao: 88620 Nota: C1 Vol.: 60
Chanel 4 Note Off - Duracao: 88920 Nota: C1 Vol.: 51
Chanel 4 Note On - Duracao: 88920 Nota: C1 Vol.: 48
Chanel 6 Note Off - Duracao: 88920 Nota: C1 Vol.: 40
Chanel 6 Note On - Duracao: 88920 Nota: C1 Vol.: 40
Chanel 8 Note Off - Duracao: 89040 Nota: C1 Vol.: 64
Chanel 8 Note On - Duracao: 89040 Nota: C1 Vol.: 87
Chanel 9 Note Off - Duracao: 89040 Nota: C1 Vol.: 85
Chanel 9 Note On - Duracao: 89040 Nota: C1 Vol.: 66
Chanel 5 Note Off - Duracao: 89160 Nota: C1 Vol.: 52
Chanel 5 Note On - Duracao: 89160 Nota: C1 Vol.: 54
Chanel 8 Note Off - Duracao: 89280 Nota: C1 Vol.: 87
Chanel 8 Note On - Duracao: 89280 Nota: C1 Vol.: 100
Chanel 8 Note Off - Duracao: 89400 Nota: C1 Vol.: 100
Chanel 8 Note On - Duracao: 89400 Nota: C1 Vol.: 100
Chanel 1 Note Off - Duracao: 89460 Nota: C1 Vol.: 53
Chanel 1 Note On - Duracao: 89460 Nota: C1 Vol.: 53
Chanel 8 Note Off - Duracao: 89520 Nota: C1 Vol.: 100
Chanel 8 Note On - Duracao: 89520 Nota: C1 Vol.: 82
Chanel 3 Note Off - Duracao: 89580 Nota: C1 Vol.: 60
Chanel 3 Note On - Duracao: 89580 Nota: C1 Vol.: 89
Chanel 3 Note Off - Duracao: 89700 Nota: C1 Vol.: 89
Chanel 3 Note On - Duracao: 89700 Nota: C1 Vol.: 85
Chanel 3 Note Off - Duracao: 89940 Nota: C1 Vol.: 85
Chanel 3 Note On - Duracao: 89940 Nota: C1 Vol.: 57
Chanel 8 Note Off - Duracao: 90000 Nota: C1 Vol.: 82
Chanel 8 Note On - Duracao: 90000 Nota: C1 Vol.: 64
Chanel 2 Note Off - Duracao: 90120 Nota: C1 Vol.: 53
Chanel 2 Note On - Duracao: 90120 Nota: C1 Vol.: 58
Chanel 7 Note Off - Duracao: 90120 Nota: C1 Vol.: 44
Chanel 7 Note On - Duracao: 90120 Nota: C1 Vol.: 44
Chanel 9 Note Off - Duracao: 90960 Nota: C1 Vol.: 66
Chanel 9 Note On - Duracao: 90960 Nota: C1 Vol.: 76
Chanel 2 Note Off - Duracao: 91080 Nota: C1 Vol.: 58
Chanel 2 Note On - Duracao: 91080 Nota: C1 Vol.: 56
Chanel 5 Note Off - Duracao: 91080 Nota: C1 Vol.: 54
Chanel 5 Note On - Duracao: 91080 Nota: C1 Vol.: 52
Chanel 1 Note Off - Duracao: 91380 Nota: C1 Vol.: 53
Chanel 1 Note On - Duracao: 91380 Nota: C1 Vol.: 45
Chanel 1 Note Off - Duracao: 91860 Nota: C1 Vol.: 45
Chanel 1 Note On - Duracao: 91860 Nota: C1 Vol.: 66
Chanel 3 Note Off - Duracao: 91860 Nota: C1 Vol.: 57
Chanel 3 Note On - Duracao: 91860 Nota: C1 Vol.: 56
Chanel 8 Note Off - Duracao: 91920 Nota: C1 Vol.: 64
Chanel 8 Note On - Duracao: 91920 Nota: C1 Vol.: 76
Chanel 1 Note Off - Duracao: 92100 Nota: C1 Vol.: 66
Chanel 1 Note On - Duracao: 92100 Nota: C1 Vol.: 53
Chanel 4 Note Off - Duracao: 92760 Nota: C1 Vol.: 48
Chanel 4 Note On - Duracao: 92760 Nota: C1 Vol.: 48
Chanel 6 Note Off - Duracao: 92760 Nota: C1 Vol.: 40
Chanel 6 Note On - Duracao: 92760 Nota: C1 Vol.: 40
Chanel 8 Note Off - Duracao: 92880 Nota: C1 Vol.: 76
Chanel 8 Note On - Duracao: 92880 Nota: C1 Vol.: 79
Chanel 9 Note Off - Duracao: 92880 Nota: C1 Vol.: 76
Chanel 9 Note On - Duracao: 92880 Nota: C1 Vol.: 75
Chanel 2 Note Off - Duracao: 93000 Nota: C1 Vol.: 56
Chanel 2 Note On - Duracao: 93000 Nota: C1 Vol.: 56
Chanel 1 Note Off - Duracao: 93060 Nota: C1 Vol.: 53
Chanel 1 Note On - Duracao: 93060 Nota: C1 Vol.: 57
Chanel 3 Note Off - Duracao: 93780 Nota: C1 Vol.: 56
Chanel 3 Note On - Duracao: 93780 Nota: C1 Vol.: 60
Chanel 8 Note Off - Duracao: 93840 Nota: C1 Vol.: 79
Chanel 8 Note On - Duracao: 93840 Nota: C1 Vol.: 54
Chanel 7 Note Off - Duracao: 93960 Nota: C1 Vol.: 44
Chanel 7 Note On - Duracao: 93960 Nota: C1 Vol.: 45
Chanel 1 Note Off - Duracao: 94020 Nota: C1 Vol.: 57
Chanel 1 Note On - Duracao: 94020 Nota: C1 Vol.: 53
Chanel 3 Note Off - Duracao: 94740 Nota: C1 Vol.: 60
Chanel 3 Note On - Duracao: 94740 Nota: C1 Vol.: 69
Chanel 9 Note Off - Duracao: 94800 Nota: C1 Vol.: 75
Chanel 9 Note On - Duracao: 94800 Nota: C1 Vol.: 75
Chanel 2 Note Off - Duracao: 94920 Nota: C1 Vol.: 56
Chanel 2 Note On - Duracao: 94920 Nota: C1 Vol.: 68
Chanel 5 Note Off - Duracao: 94920 Nota: C1 Vol.: 52
Chanel 5 Note On - Duracao: 94920 Nota: C1 Vol.: 52
Chanel 1 Note Off - Duracao: 94980 Nota: C1 Vol.: 53
Chanel 1 Note On - Duracao: 94980 Nota: C1 Vol.: 54
Chanel 3 Note Off - Duracao: 95220 Nota: C1 Vol.: 69
Chanel 3 Note On - Duracao: 95220 Nota: C1 Vol.: 53
Chanel 9 Note Off - Duracao: 95760 Nota: C1 Vol.: 75
Chanel 9 Note On - Duracao: 95760 Nota: C1 Vol.: 65
Chanel 2 Note Off - Duracao: 95880 Nota: C1 Vol.: 68
Chanel 2 Note On - Duracao: 95880 Nota: C1 Vol.: 67
Chanel 1 Note Off - Duracao: 95940 Nota: C1 Vol.: 54
Chanel 1 Note On - Duracao: 95940 Nota: C1 Vol.: 51
Chanel 2 Note Off - Duracao: 96360 Nota: C1 Vol.: 67
Chanel 2 Note On - Duracao: 96360 Nota: C1 Vol.: 61
Chanel 4 Note Off - Duracao: 96600 Nota: C1 Vol.: 48
Chanel 4 Note On - Duracao: 96600 Nota: C1 Vol.: 47
Chanel 6 Note Off - Duracao: 96600 Nota: C1 Vol.: 40
Chanel 6 Note On - Duracao: 96600 Nota: C1 Vol.: 53
Chanel 5 Note Off - Duracao: 96840 Nota: C1 Vol.: 52
Chanel 5 Note On - Duracao: 96840 Nota: C1 Vol.: 47
Chanel 1 Note Off - Duracao: 96900 Nota: C1 Vol.: 51
Chanel 1 Note On - Duracao: 96900 Nota: C1 Vol.: 66
Chanel 3 Note Off - Duracao: 97140 Nota: C1 Vol.: 53
Chanel 3 Note On - Duracao: 97140 Nota: C1 Vol.: 68
Chanel 2 Note Off - Duracao: 97320 Nota: C1 Vol.: 61
Chanel 2 Note On - Duracao: 97320 Nota: C1 Vol.: 56
Chanel 1 Note Off - Duracao: 97380 Nota: C1 Vol.: 66
Chanel 1 Note On - Duracao: 97380 Nota: C1 Vol.: 87
Chanel 1 Note Off - Duracao: 97500 Nota: C1 Vol.: 87
Chanel 1 Note On - Duracao: 97500 Nota: C1 Vol.: 92
Chanel 1 Note Off - Duracao: 97620 Nota: C1 Vol.: 92
Chanel 1 Note On - Duracao: 97620 Nota: C1 Vol.: 71
Chanel 3 Note Off - Duracao: 97620 Nota: C1 Vol.: 68
Chanel 3 Note On - Duracao: 97620 Nota: C1 Vol.: 52
Chanel 8 Note Off - Duracao: 97680 Nota: C1 Vol.: 54
Chanel 8 Note On - Duracao: 97680 Nota: C1 Vol.: 52
Chanel 9 Note Off - Duracao: 97680 Nota: C1 Vol.: 65
Chanel 9 Note On - Duracao: 97680 Nota: C1 Vol.: 52
Chanel 7 Note Off - Duracao: 97800 Nota: C1 Vol.: 45
Chanel 7 Note On - Duracao: 97800 Nota: C1 Vol.: 45
Chanel 1 Note Off - Duracao: 98100 Nota: C1 Vol.: 71
Chanel 1 Note On - Duracao: 98100 Nota: C1 Vol.: 65
Chanel 2 Note Off - Duracao: 98280 Nota: C1 Vol.: 56
Chanel 2 Note On - Duracao: 98280 Nota: C1 Vol.: 55
Chanel 6 Note Off - Duracao: 98520 Nota: C1 Vol.: 53
Chanel 6 Note On - Duracao: 98520 Nota: C1 Vol.: 52
Chanel 1 Note Off - Duracao: 99060 Nota: C1 Vol.: 65
Chanel 1 Note On - Duracao: 99060 Nota: C1 Vol.: 65
Chanel 2 Note Off - Duracao: 99240 Nota: C1 Vol.: 55
Chanel 2 Note On - Duracao: 99240 Nota: C1 Vol.: 59
Chanel 3 Note Off - Duracao: 99540 Nota: C1 Vol.: 52
Chanel 3 Note On - Duracao: 99540 Nota: C1 Vol.: 61
Chanel 1 Note Off - Duracao: 100020 Nota: C1 Vol.: 65
Chanel 1 Note On - Duracao: 100020 Nota: C1 Vol.: 63
Chanel 2 Note Off - Duracao: 100200 Nota: C1 Vol.: 59
Chanel 2 Note On - Duracao: 100200 Nota: C1 Vol.: 79
Chanel 2 Note Off - Duracao: 100440 Nota: C1 Vol.: 79
Chanel 2 Note On - Duracao: 100440 Nota: C1 Vol.: 58
Chanel 4 Note Off - Duracao: 100440 Nota: C1 Vol.: 47
Chanel 4 Note On - Duracao: 100440 Nota: C1 Vol.: 44
Chanel 6 Note Off - Duracao: 100440 Nota: C1 Vol.: 52
Chanel 6 Note On - Duracao: 100440 Nota: C1 Vol.: 47
Chanel 3 Note Off - Duracao: 100500 Nota: C1 Vol.: 61
Chanel 3 Note On - Duracao: 100500 Nota: C1 Vol.: 55
Chanel 5 Note Off - Duracao: 100680 Nota: C1 Vol.: 47
Chanel 5 Note On - Duracao: 100680 Nota: C1 Vol.: 48
Chanel 1 Note Off - Duracao: 100980 Nota: C1 Vol.: 63
Chanel 1 Note On - Duracao: 100980 Nota: C1 Vol.: 58
Chanel 2 Note Off - Duracao: 101400 Nota: C1 Vol.: 58
Chanel 2 Note On - Duracao: 101400 Nota: C1 Vol.: 59
Chanel 8 Note Off - Duracao: 101520 Nota: C1 Vol.: 52
Chanel 8 Note On - Duracao: 101520 Nota: C1 Vol.: 49
Chanel 9 Note Off - Duracao: 101520 Nota: C1 Vol.: 52
Chanel 9 Note On - Duracao: 101520 Nota: C1 Vol.: 53
Chanel 7 Note Off - Duracao: 101640 Nota: C1 Vol.: 45
Chanel 7 Note On - Duracao: 101640 Nota: C1 Vol.: 45
Chanel 2 Note Off - Duracao: 101880 Nota: C1 Vol.: 59
Chanel 2 Note On - Duracao: 101880 Nota: C1 Vol.: 61
Chanel 1 Note Off - Duracao: 101940 Nota: C1 Vol.: 58
Chanel 1 Note On - Duracao: 101940 Nota: C1 Vol.: 51
Chanel 2 Note Off - Duracao: 102000 Nota: C1 Vol.: 61
Chanel 2 Note On - Duracao: 102000 Nota: C1 Vol.: 57
Chanel 2 Note Off - Duracao: 102060 Nota: C1 Vol.: 57
Chanel 2 Note On - Duracao: 102060 Nota: C1 Vol.: 54
Chanel 2 Note Off - Duracao: 102120 Nota: C1 Vol.: 54
Chanel 2 Note On - Duracao: 102120 Nota: C1 Vol.: 60
Chanel 2 Note Off - Duracao: 102240 Nota: C1 Vol.: 60
Chanel 2 Note On - Duracao: 102240 Nota: C1 Vol.: 52
Chanel 6 Note Off - Duracao: 102360 Nota: C1 Vol.: 47
Chanel 6 Note On - Duracao: 102360 Nota: C1 Vol.: 53
Chanel 1 Note Off - Duracao: 102420 Nota: C1 Vol.: 51
Chanel 1 Note On - Duracao: 102420 Nota: C1 Vol.: 56
Chanel 3 Note Off - Duracao: 102420 Nota: C1 Vol.: 55
Chanel 3 Note On - Duracao: 102420 Nota: C1 Vol.: 52
Chanel 5 Note Off - Duracao: 102600 Nota: C1 Vol.: 48
Chanel 5 Note On - Duracao: 102600 Nota: C1 Vol.: 56
Chanel 1 Note Off - Duracao: 102660 Nota: C1 Vol.: 56
Chanel 1 Note On - Duracao: 102660 Nota: C1 Vol.: 64
Chanel 1 Note Off - Duracao: 102780 Nota: C1 Vol.: 64
Chanel 1 Note On - Duracao: 102780 Nota: C1 Vol.: 61
Chanel 6 Note Off - Duracao: 102840 Nota: C1 Vol.: 53
Chanel 6 Note On - Duracao: 102840 Nota: C1 Vol.: 58
Chanel 1 Note Off - Duracao: 102900 Nota: C1 Vol.: 61
Chanel 1 Note On - Duracao: 102900 Nota: C1 Vol.: 67
Chanel 1 Note Off - Duracao: 103020 Nota: C1 Vol.: 67
Chanel 1 Note On - Duracao: 103020 Nota: C1 Vol.: 69
Chanel 6 Note Off - Duracao: 103080 Nota: C1 Vol.: 58
Chanel 6 Note On - Duracao: 103080 Nota: C1 Vol.: 55
Chanel 1 Note Off - Duracao: 103140 Nota: C1 Vol.: 69
Chanel 1 Note On - Duracao: 103140 Nota: C1 Vol.: 61
Chanel 2 Note Off - Duracao: 103200 Nota: C1 Vol.: 52
Chanel 2 Note On - Duracao: 103200 Nota: C1 Vol.: 76
Chanel 6 Note Off - Duracao: 103320 Nota: C1 Vol.: 55
Chanel 6 Note On - Duracao: 103320 Nota: C1 Vol.: 53
Chanel 1 Note Off - Duracao: 103380 Nota: C1 Vol.: 61
Chanel 1 Note On - Duracao: 103380 Nota: C1 Vol.: 54
Chanel 2 Note Off - Duracao: 103440 Nota: C1 Vol.: 76
Chanel 2 Note On - Duracao: 103440 Nota: C1 Vol.: 66
Chanel 8 Note Off - Duracao: 103440 Nota: C1 Vol.: 49
Chanel 8 Note On - Duracao: 103440 Nota: C1 Vol.: 42
Chanel 6 Note Off - Duracao: 103800 Nota: C1 Vol.: 53
Chanel 6 Note On - Duracao: 103800 Nota: C1 Vol.: 52
Chanel 1 Note Off - Duracao: 103860 Nota: C1 Vol.: 54
Chanel 1 Note On - Duracao: 103860 Nota: C1 Vol.: 67
Chanel 1 Note Off - Duracao: 104100 Nota: C1 Vol.: 67
Chanel 1 Note On - Duracao: 104100 Nota: C1 Vol.: 73
Chanel 4 Note Off - Duracao: 104280 Nota: C1 Vol.: 44
Chanel 4 Note On - Duracao: 104280 Nota: C1 Vol.: 40
Chanel 1 Note Off - Duracao: 104340 Nota: C1 Vol.: 73
Chanel 1 Note On - Duracao: 104340 Nota: C1 Vol.: 63
Chanel 3 Note Off - Duracao: 104340 Nota: C1 Vol.: 52
Chanel 3 Note On - Duracao: 104340 Nota: C1 Vol.: 63
Chanel 2 Note Off - Duracao: 104400 Nota: C1 Vol.: 66
Chanel 2 Note On - Duracao: 104400 Nota: C1 Vol.: 95
Chanel 2 Note Off - Duracao: 104520 Nota: C1 Vol.: 95
Chanel 2 Note On - Duracao: 104520 Nota: C1 Vol.: 77
Chanel 5 Note Off - Duracao: 104520 Nota: C1 Vol.: 56
Chanel 5 Note On - Duracao: 104520 Nota: C1 Vol.: 47
Chanel 6 Note Off - Duracao: 104760 Nota: C1 Vol.: 52
Chanel 6 Note On - Duracao: 104760 Nota: C1 Vol.: 45
Chanel 1 Note Off - Duracao: 104820 Nota: C1 Vol.: 63
Chanel 1 Note On - Duracao: 104820 Nota: C1 Vol.: 57
Chanel 2 Note Off - Duracao: 105000 Nota: C1 Vol.: 77
Chanel 2 Note On - Duracao: 105000 Nota: C1 Vol.: 69
Chanel 1 Note Off - Duracao: 105300 Nota: C1 Vol.: 57
Chanel 1 Note On - Duracao: 105300 Nota: C1 Vol.: 62
Chanel 3 Note Off - Duracao: 105300 Nota: C1 Vol.: 63
Chanel 3 Note On - Duracao: 105300 Nota: C1 Vol.: 64
Chanel 9 Note Off - Duracao: 105360 Nota: C1 Vol.: 53
Chanel 9 Note On - Duracao: 105360 Nota: C1 Vol.: 62
Chanel 7 Note Off - Duracao: 105480 Nota: C1 Vol.: 45
Chanel 7 Note On - Duracao: 105480 Nota: C1 Vol.: 45
Chanel 1 Note Off - Duracao: 105540 Nota: C1 Vol.: 62
Chanel 1 Note On - Duracao: 105540 Nota: C1 Vol.: 65
Chanel 1 Note Off - Duracao: 105660 Nota: C1 Vol.: 65
Chanel 1 Note On - Duracao: 105660 Nota: C1 Vol.: 63
Chanel 1 Note Off - Duracao: 105780 Nota: C1 Vol.: 63
Chanel 1 Note On - Duracao: 105780 Nota: C1 Vol.: 60
Chanel 3 Note Off - Duracao: 105780 Nota: C1 Vol.: 64
Chanel 3 Note On - Duracao: 105780 Nota: C1 Vol.: 75
Chanel 1 Note Off - Duracao: 105900 Nota: C1 Vol.: 60
Chanel 1 Note On - Duracao: 105900 Nota: C1 Vol.: 56
Chanel 2 Note Off - Duracao: 105960 Nota: C1 Vol.: 69
Chanel 2 Note On - Duracao: 105960 Nota: C1 Vol.: 77
Chanel 3 Note Off - Duracao: 106020 Nota: C1 Vol.: 75
Chanel 3 Note On - Duracao: 106020 Nota: C1 Vol.: 66
Chanel 1 Note Off - Duracao: 106140 Nota: C1 Vol.: 56
Chanel 1 Note On - Duracao: 106140 Nota: C1 Vol.: 53
Chanel 2 Note Off - Duracao: 106440 Nota: C1 Vol.: 77
Chanel 2 Note On - Duracao: 106440 Nota: C1 Vol.: 91
Chanel 3 Note Off - Duracao: 106500 Nota: C1 Vol.: 66
Chanel 3 Note On - Duracao: 106500 Nota: C1 Vol.: 75
Chanel 2 Note Off - Duracao: 106680 Nota: C1 Vol.: 91
Chanel 2 Note On - Duracao: 106680 Nota: C1 Vol.: 71
Chanel 6 Note Off - Duracao: 106680 Nota: C1 Vol.: 45
Chanel 6 Note On - Duracao: 106680 Nota: C1 Vol.: 81
Chanel 3 Note Off - Duracao: 106740 Nota: C1 Vol.: 75
Chanel 3 Note On - Duracao: 106740 Nota: C1 Vol.: 78
Chanel 6 Note Off - Duracao: 106920 Nota: C1 Vol.: 81
Chanel 6 Note On - Duracao: 106920 Nota: C1 Vol.: 96
Chanel 3 Note Off - Duracao: 106980 Nota: C1 Vol.: 78
Chanel 3 Note On - Duracao: 106980 Nota: C1 Vol.: 82
Chanel 6 Note Off - Duracao: 106980 Nota: C1 Vol.: 96
Chanel 6 Note On - Duracao: 106980 Nota: C1 Vol.: 96
Chanel 6 Note Off - Duracao: 107040 Nota: C1 Vol.: 96
Chanel 6 Note On - Duracao: 107040 Nota: C1 Vol.: 77
Chanel 1 Note Off - Duracao: 107100 Nota: C1 Vol.: 53
Chanel 1 Note On - Duracao: 107100 Nota: C1 Vol.: 54
Chanel 3 Note Off - Duracao: 107220 Nota: C1 Vol.: 82
Chanel 3 Note On - Duracao: 107220 Nota: C1 Vol.: 100
Chanel 6 Note Off - Duracao: 107280 Nota: C1 Vol.: 77
Chanel 6 Note On - Duracao: 107280 Nota: C1 Vol.: 52
Chanel 8 Note Off - Duracao: 107280 Nota: C1 Vol.: 42
Chanel 8 Note On - Duracao: 107280 Nota: C1 Vol.: 42
Chanel 9 Note Off - Duracao: 107280 Nota: C1 Vol.: 62
Chanel 9 Note On - Duracao: 107280 Nota: C1 Vol.: 62
Chanel 3 Note Off - Duracao: 107340 Nota: C1 Vol.: 100
Chanel 3 Note On - Duracao: 107340 Nota: C1 Vol.: 100
Chanel 3 Note Off - Duracao: 107460 Nota: C1 Vol.: 100
Chanel 3 Note On - Duracao: 107460 Nota: C1 Vol.: 100
Chanel 3 Note Off - Duracao: 107520 Nota: C1 Vol.: 100
Chanel 3 Note On - Duracao: 107520 Nota: C1 Vol.: 92
Chanel 3 Note Off - Duracao: 107580 Nota: C1 Vol.: 92
Chanel 3 Note On - Duracao: 107580 Nota: C1 Vol.: 73
Chanel 2 Note Off - Duracao: 107640 Nota: C1 Vol.: 71
Chanel 2 Note On - Duracao: 107640 Nota: C1 Vol.: 62
Chanel 3 Note Off - Duracao: 107820 Nota: C1 Vol.: 73
Chanel 3 Note On - Duracao: 107820 Nota: C1 Vol.: 76
Chanel 1 Note Off - Duracao: 108060 Nota: C1 Vol.: 54
Chanel 1 Note On - Duracao: 108060 Nota: C1 Vol.: 54
Chanel 3 Note Off - Duracao: 108060 Nota: C1 Vol.: 76
Chanel 3 Note On - Duracao: 108060 Nota: C1 Vol.: 78
Chanel 4 Note Off - Duracao: 108120 Nota: C1 Vol.: 40
Chanel 4 Note On - Duracao: 108120 Nota: C1 Vol.: 42
Chanel 3 Note Off - Duracao: 108180 Nota: C1 Vol.: 78
Chanel 3 Note On - Duracao: 108180 Nota: C1 Vol.: 73
Chanel 6 Note Off - Duracao: 108240 Nota: C1 Vol.: 52
Chanel 6 Note On - Duracao: 108240 Nota: C1 Vol.: 40
Chanel 3 Note Off - Duracao: 108300 Nota: C1 Vol.: 73
Chanel 3 Note On - Duracao: 108300 Nota: C1 Vol.: 72
Chanel 5 Note Off - Duracao: 108360 Nota: C1 Vol.: 47
Chanel 5 Note On - Duracao: 108360 Nota: C1 Vol.: 45
Chanel 3 Note Off - Duracao: 108420 Nota: C1 Vol.: 72
Chanel 3 Note On - Duracao: 108420 Nota: C1 Vol.: 70
Chanel 2 Note Off - Duracao: 108600 Nota: C1 Vol.: 62
Chanel 2 Note On - Duracao: 108600 Nota: C1 Vol.: 47
Chanel 3 Note Off - Duracao: 108660 Nota: C1 Vol.: 70
Chanel 3 Note On - Duracao: 108660 Nota: C1 Vol.: 45
Chanel 1 Note Off - Duracao: 109020 Nota: C1 Vol.: 54
Chanel 1 Note On - Duracao: 109020 Nota: C1 Vol.: 52
Chanel 9 Note Off - Duracao: 109200 Nota: C1 Vol.: 62
Chanel 9 Note On - Duracao: 109200 Nota: C1 Vol.: 56
Chanel 7 Note Off - Duracao: 109320 Nota: C1 Vol.: 45
Chanel 7 Note On - Duracao: 109320 Nota: C1 Vol.: 47
Chanel 2 Note Off - Duracao: 109560 Nota: C1 Vol.: 47
Chanel 2 Note On - Duracao: 109560 Nota: C1 Vol.: 65
Chanel 2 Note Off - Duracao: 109620 Nota: C1 Vol.: 65
Chanel 2 Note On - Duracao: 109620 Nota: C1 Vol.: 55
Chanel 3 Note Off - Duracao: 109620 Nota: C1 Vol.: 45
Chanel 3 Note On - Duracao: 109620 Nota: C1 Vol.: 70
Chanel 2 Note Off - Duracao: 109680 Nota: C1 Vol.: 55
Chanel 2 Note On - Duracao: 109680 Nota: C1 Vol.: 51
Chanel 2 Note Off - Duracao: 109800 Nota: C1 Vol.: 51
Chanel 2 Note On - Duracao: 109800 Nota: C1 Vol.: 56
Chanel 3 Note Off - Duracao: 109860 Nota: C1 Vol.: 70
Chanel 3 Note On - Duracao: 109860 Nota: C1 Vol.: 59
Chanel 2 Note Off - Duracao: 109920 Nota: C1 Vol.: 56
Chanel 2 Note On - Duracao: 109920 Nota: C1 Vol.: 42
Chanel 6 Note Off - Duracao: 110160 Nota: C1 Vol.: 40
Chanel 6 Note On - Duracao: 110160 Nota: C1 Vol.: 56
Chanel 2 Note Off - Duracao: 110400 Nota: C1 Vol.: 42
Chanel 2 Note On - Duracao: 110400 Nota: C1 Vol.: 43
Chanel 6 Note Off - Duracao: 110640 Nota: C1 Vol.: 56
Chanel 6 Note On - Duracao: 110640 Nota: C1 Vol.: 53
Chanel 3 Note Off - Duracao: 110820 Nota: C1 Vol.: 59
Chanel 3 Note On - Duracao: 110820 Nota: C1 Vol.: 60
Chanel 1 Note Off - Duracao: 110940 Nota: C1 Vol.: 52
Chanel 1 Note On - Duracao: 110940 Nota: C1 Vol.: 52
Chanel 8 Note Off - Duracao: 111120 Nota: C1 Vol.: 42
Chanel 8 Note On - Duracao: 111120 Nota: C1 Vol.: 40
Chanel 6 Note Off - Duracao: 111600 Nota: C1 Vol.: 53
Chanel 6 Note On - Duracao: 111600 Nota: C1 Vol.: 40
Chanel 3 Note Off - Duracao: 111780 Nota: C1 Vol.: 60
Chanel 3 Note On - Duracao: 111780 Nota: C1 Vol.: 57
Chanel 4 Note Off - Duracao: 111960 Nota: C1 Vol.: 42
Chanel 4 Note On - Duracao: 111960 Nota: C1 Vol.: 57
Chanel 5 Note Off - Duracao: 112200 Nota: C1 Vol.: 45
Chanel 5 Note On - Duracao: 112200 Nota: C1 Vol.: 43
Chanel 2 Note Off - Duracao: 112320 Nota: C1 Vol.: 43
Chanel 2 Note On - Duracao: 112320 Nota: C1 Vol.: 48
Chanel 4 Note Off - Duracao: 112440 Nota: C1 Vol.: 57
Chanel 4 Note On - Duracao: 112440 Nota: C1 Vol.: 54
Chanel 3 Note Off - Duracao: 112740 Nota: C1 Vol.: 57
Chanel 3 Note On - Duracao: 112740 Nota: C1 Vol.: 61
Chanel 1 Note Off - Duracao: 112860 Nota: C1 Vol.: 52
Chanel 1 Note On - Duracao: 112860 Nota: C1 Vol.: 54
Chanel 9 Note Off - Duracao: 113040 Nota: C1 Vol.: 56
Chanel 9 Note On - Duracao: 113040 Nota: C1 Vol.: 54
Chanel 7 Note Off - Duracao: 113160 Nota: C1 Vol.: 47
Chanel 7 Note On - Duracao: 113160 Nota: C1 Vol.: 47
Chanel 3 Note Off - Duracao: 113220 Nota: C1 Vol.: 61
Chanel 3 Note On - Duracao: 113220 Nota: C1 Vol.: 75
Chanel 3 Note Off - Duracao: 113340 Nota: C1 Vol.: 75
Chanel 3 Note On - Duracao: 113340 Nota: C1 Vol.: 71
Chanel 4 Note Off - Duracao: 113400 Nota: C1 Vol.: 54
Chanel 4 Note On - Duracao: 113400 Nota: C1 Vol.: 67
Chanel 6 Note Off - Duracao: 113520 Nota: C1 Vol.: 40
Chanel 6 Note On - Duracao: 113520 Nota: C1 Vol.: 40
Chanel 3 Note Off - Duracao: 113580 Nota: C1 Vol.: 71
Chanel 3 Note On - Duracao: 113580 Nota: C1 Vol.: 64
Chanel 4 Note Off - Duracao: 113880 Nota: C1 Vol.: 67
Chanel 4 Note On - Duracao: 113880 Nota: C1 Vol.: 92
Chanel 4 Note Off - Duracao: 114000 Nota: C1 Vol.: 92
Chanel 4 Note On - Duracao: 114000 Nota: C1 Vol.: 97
Chanel 3 Note Off - Duracao: 114060 Nota: C1 Vol.: 64
Chanel 3 Note On - Duracao: 114060 Nota: C1 Vol.: 64
Chanel 4 Note Off - Duracao: 114060 Nota: C1 Vol.: 97
Chanel 4 Note On - Duracao: 114060 Nota: C1 Vol.: 62
Chanel 2 Note Off - Duracao: 114240 Nota: C1 Vol.: 48
Chanel 2 Note On - Duracao: 114240 Nota: C1 Vol.: 52
Chanel 3 Note Off - Duracao: 114540 Nota: C1 Vol.: 64
Chanel 3 Note On - Duracao: 114540 Nota: C1 Vol.: 76
Chanel 1 Note Off - Duracao: 114780 Nota: C1 Vol.: 54
Chanel 1 Note On - Duracao: 114780 Nota: C1 Vol.: 54
Chanel 3 Note Off - Duracao: 114780 Nota: C1 Vol.: 76
Chanel 3 Note On - Duracao: 114780 Nota: C1 Vol.: 75
Chanel 8 Note Off - Duracao: 114960 Nota: C1 Vol.: 40
Chanel 8 Note On - Duracao: 114960 Nota: C1 Vol.: 44
Chanel 3 Note Off - Duracao: 115020 Nota: C1 Vol.: 75
Chanel 3 Note On - Duracao: 115020 Nota: C1 Vol.: 50
Chanel 4 Note Off - Duracao: 115020 Nota: C1 Vol.: 62
Chanel 4 Note On - Duracao: 115020 Nota: C1 Vol.: 59
Chanel 6 Note Off - Duracao: 115440 Nota: C1 Vol.: 40
Chanel 6 Note On - Duracao: 115440 Nota: C1 Vol.: 43
Chanel 3 Note Off - Duracao: 115980 Nota: C1 Vol.: 50
Chanel 3 Note On - Duracao: 115980 Nota: C1 Vol.: 57
Chanel 5 Note Off - Duracao: 116040 Nota: C1 Vol.: 43
Chanel 5 Note On - Duracao: 116040 Nota: C1 Vol.: 48
Chanel 2 Note Off - Duracao: 116160 Nota: C1 Vol.: 52
Chanel 2 Note On - Duracao: 116160 Nota: C1 Vol.: 53
Chanel 1 Note Off - Duracao: 116700 Nota: C1 Vol.: 54
Chanel 1 Note On - Duracao: 116700 Nota: C1 Vol.: 54
Chanel 9 Note Off - Duracao: 116880 Nota: C1 Vol.: 54
Chanel 9 Note On - Duracao: 116880 Nota: C1 Vol.: 74
Chanel 3 Note Off - Duracao: 116940 Nota: C1 Vol.: 57
Chanel 3 Note On - Duracao: 116940 Nota: C1 Vol.: 65
Chanel 4 Note Off - Duracao: 116940 Nota: C1 Vol.: 59
Chanel 4 Note On - Duracao: 116940 Nota: C1 Vol.: 65
Chanel 7 Note Off - Duracao: 117000 Nota: C1 Vol.: 47
Chanel 7 Note On - Duracao: 117000 Nota: C1 Vol.: 44
Chanel 6 Note Off - Duracao: 117360 Nota: C1 Vol.: 43
Chanel 6 Note On - Duracao: 117360 Nota: C1 Vol.: 47
Chanel 3 Note Off - Duracao: 117420 Nota: C1 Vol.: 65
Chanel 3 Note On - Duracao: 117420 Nota: C1 Vol.: 52
Chanel 9 Note Off - Duracao: 117840 Nota: C1 Vol.: 74
Chanel 9 Note On - Duracao: 117840 Nota: C1 Vol.: 75
Chanel 5 Note Off - Duracao: 117960 Nota: C1 Vol.: 48
Chanel 5 Note On - Duracao: 117960 Nota: C1 Vol.: 44
Chanel 2 Note Off - Duracao: 118080 Nota: C1 Vol.: 53
Chanel 2 Note On - Duracao: 118080 Nota: C1 Vol.: 55
Chanel 1 Note Off - Duracao: 118620 Nota: C1 Vol.: 54
Chanel 1 Note On - Duracao: 118620 Nota: C1 Vol.: 52
Chanel 8 Note Off - Duracao: 118800 Nota: C1 Vol.: 44
Chanel 8 Note On - Duracao: 118800 Nota: C1 Vol.: 47
Chanel 9 Note Off - Duracao: 118800 Nota: C1 Vol.: 75
Chanel 9 Note On - Duracao: 118800 Nota: C1 Vol.: 77
Chanel 4 Note Off - Duracao: 118860 Nota: C1 Vol.: 65
Chanel 4 Note On - Duracao: 118860 Nota: C1 Vol.: 82
Chanel 6 Note Off - Duracao: 119280 Nota: C1 Vol.: 47
Chanel 6 Note On - Duracao: 119280 Nota: C1 Vol.: 40
Chanel 3 Note Off - Duracao: 119340 Nota: C1 Vol.: 52
Chanel 3 Note On - Duracao: 119340 Nota: C1 Vol.: 46
Chanel 4 Note Off - Duracao: 119340 Nota: C1 Vol.: 82
Chanel 4 Note On - Duracao: 119340 Nota: C1 Vol.: 85
Chanel 4 Note Off - Duracao: 119580 Nota: C1 Vol.: 85
Chanel 4 Note On - Duracao: 119580 Nota: C1 Vol.: 83
Chanel 4 Note Off - Duracao: 119700 Nota: C1 Vol.: 83
Chanel 4 Note On - Duracao: 119700 Nota: C1 Vol.: 60
Chanel 5 Note Off - Duracao: 119880 Nota: C1 Vol.: 44
Chanel 5 Note On - Duracao: 119880 Nota: C1 Vol.: 40
Chanel 2 Note Off - Duracao: 120000 Nota: C1 Vol.: 55
Chanel 2 Note On - Duracao: 120000 Nota: C1 Vol.: 72
Chanel 2 Note Off - Duracao: 120480 Nota: C1 Vol.: 72
Chanel 2 Note On - Duracao: 120480 Nota: C1 Vol.: 85
Chanel 1 Note Off - Duracao: 120540 Nota: C1 Vol.: 52
Chanel 1 Note On - Duracao: 120540 Nota: C1 Vol.: 55
Chanel 4 Note Off - Duracao: 120660 Nota: C1 Vol.: 60
Chanel 4 Note On - Duracao: 120660 Nota: C1 Vol.: 46
Chanel 2 Note Off - Duracao: 120720 Nota: C1 Vol.: 85
Chanel 2 Note On - Duracao: 120720 Nota: C1 Vol.: 80
Chanel 8 Note Off - Duracao: 120720 Nota: C1 Vol.: 47
Chanel 8 Note On - Duracao: 120720 Nota: C1 Vol.: 45
Chanel 9 Note Off - Duracao: 120720 Nota: C1 Vol.: 77
Chanel 9 Note On - Duracao: 120720 Nota: C1 Vol.: 90
Chanel 7 Note Off - Duracao: 120840 Nota: C1 Vol.: 44
Chanel 7 Note On - Duracao: 120840 Nota: C1 Vol.: 43
Chanel 2 Note Off - Duracao: 120960 Nota: C1 Vol.: 80
Chanel 2 Note On - Duracao: 120960 Nota: C1 Vol.: 52
Chanel 9 Note Off - Duracao: 121680 Nota: C1 Vol.: 90
Chanel 9 Note On - Duracao: 121680 Nota: C1 Vol.: 92
Chanel 9 Note Off - Duracao: 122160 Nota: C1 Vol.: 92
Chanel 9 Note On - Duracao: 122160 Nota: C1 Vol.: 80
Chanel 1 Note Off - Duracao: 122460 Nota: C1 Vol.: 55
Chanel 1 Note On - Duracao: 122460 Nota: C1 Vol.: 51
Chanel 4 Note Off - Duracao: 122580 Nota: C1 Vol.: 46
Chanel 4 Note On - Duracao: 122580 Nota: C1 Vol.: 43
Chanel 2 Note Off - Duracao: 122880 Nota: C1 Vol.: 52
Chanel 2 Note On - Duracao: 122880 Nota: C1 Vol.: 54
Chanel 6 Note Off - Duracao: 123120 Nota: C1 Vol.: 40
Chanel 6 Note On - Duracao: 123120 Nota: C1 Vol.: 53
Chanel 9 Note Off - Duracao: 123120 Nota: C1 Vol.: 80
Chanel 9 Note On - Duracao: 123120 Nota: C1 Vol.: 61
Chanel 3 Note Off - Duracao: 123180 Nota: C1 Vol.: 46
Chanel 3 Note On - Duracao: 123180 Nota: C1 Vol.: 46
Chanel 5 Note Off - Duracao: 123720 Nota: C1 Vol.: 40
Chanel 5 Note On - Duracao: 123720 Nota: C1 Vol.: 48
Chanel 6 Note Off - Duracao: 124080 Nota: C1 Vol.: 53
Chanel 6 Note On - Duracao: 124080 Nota: C1 Vol.: 50
Chanel 9 Note Off - Duracao: 124080 Nota: C1 Vol.: 61
Chanel 9 Note On - Duracao: 124080 Nota: C1 Vol.: 49
Chanel 1 Note Off - Duracao: 124380 Nota: C1 Vol.: 51
Chanel 1 Note On - Duracao: 124380 Nota: C1 Vol.: 50
Chanel 8 Note Off - Duracao: 124560 Nota: C1 Vol.: 45
Chanel 8 Note On - Duracao: 124560 Nota: C1 Vol.: 47
Chanel 7 Note Off - Duracao: 124680 Nota: C1 Vol.: 43
Chanel 7 Note On - Duracao: 124680 Nota: C1 Vol.: 62
Chanel 2 Note Off - Duracao: 124800 Nota: C1 Vol.: 54
Chanel 2 Note On - Duracao: 124800 Nota: C1 Vol.: 44
Chanel 5 Note Off - Duracao: 125640 Nota: C1 Vol.: 48
Chanel 5 Note On - Duracao: 125640 Nota: C1 Vol.: 67
Chanel 6 Note Off - Duracao: 126000 Nota: C1 Vol.: 50
Chanel 6 Note On - Duracao: 126000 Nota: C1 Vol.: 44
Chanel 9 Note Off - Duracao: 126000 Nota: C1 Vol.: 49
Chanel 9 Note On - Duracao: 126000 Nota: C1 Vol.: 47
Chanel 5 Note Off - Duracao: 126120 Nota: C1 Vol.: 67
Chanel 5 Note On - Duracao: 126120 Nota: C1 Vol.: 70
Chanel 1 Note Off - Duracao: 126300 Nota: C1 Vol.: 50
Chanel 1 Note On - Duracao: 126300 Nota: C1 Vol.: 52
Chanel 4 Note Off - Duracao: 126420 Nota: C1 Vol.: 43
Chanel 4 Note On - Duracao: 126420 Nota: C1 Vol.: 95
Chanel 4 Note Off - Duracao: 126540 Nota: C1 Vol.: 95
Chanel 4 Note On - Duracao: 126540 Nota: C1 Vol.: 68
Chanel 5 Note Off - Duracao: 126600 Nota: C1 Vol.: 70
Chanel 5 Note On - Duracao: 126600 Nota: C1 Vol.: 67
Chanel 7 Note Off - Duracao: 126600 Nota: C1 Vol.: 62
Chanel 7 Note On - Duracao: 126600 Nota: C1 Vol.: 58
Chanel 2 Note Off - Duracao: 126720 Nota: C1 Vol.: 44
Chanel 2 Note On - Duracao: 126720 Nota: C1 Vol.: 47
Chanel 3 Note Off - Duracao: 127020 Nota: C1 Vol.: 46
Chanel 3 Note On - Duracao: 127020 Nota: C1 Vol.: 47
Chanel 4 Note Off - Duracao: 127020 Nota: C1 Vol.: 68
Chanel 4 Note On - Duracao: 127020 Nota: C1 Vol.: 60
Chanel 5 Note Off - Duracao: 127080 Nota: C1 Vol.: 67
Chanel 5 Note On - Duracao: 127080 Nota: C1 Vol.: 86
Chanel 5 Note Off - Duracao: 127320 Nota: C1 Vol.: 86
Chanel 5 Note On - Duracao: 127320 Nota: C1 Vol.: 67
Chanel 5 Note Off - Duracao: 127800 Nota: C1 Vol.: 67
Chanel 5 Note On - Duracao: 127800 Nota: C1 Vol.: 61
Chanel 6 Note Off - Duracao: 127920 Nota: C1 Vol.: 44
Chanel 6 Note On - Duracao: 127920 Nota: C1 Vol.: 53
Chanel 9 Note Off - Duracao: 127920 Nota: C1 Vol.: 47
Chanel 9 Note On - Duracao: 127920 Nota: C1 Vol.: 41
Chanel 4 Note Off - Duracao: 127980 Nota: C1 Vol.: 60
Chanel 4 Note On - Duracao: 127980 Nota: C1 Vol.: 49
Chanel 5 Note Off - Duracao: 128040 Nota: C1 Vol.: 61
Chanel 5 Note On - Duracao: 128040 Nota: C1 Vol.: 61
Chanel 1 Note Off - Duracao: 128220 Nota: C1 Vol.: 52
Chanel 1 Note On - Duracao: 128220 Nota: C1 Vol.: 49
Chanel 5 Note Off - Duracao: 128280 Nota: C1 Vol.: 61
Chanel 5 Note On - Duracao: 128280 Nota: C1 Vol.: 63
Chanel 8 Note Off - Duracao: 128400 Nota: C1 Vol.: 47
Chanel 8 Note On - Duracao: 128400 Nota: C1 Vol.: 43
Chanel 2 Note Off - Duracao: 128640 Nota: C1 Vol.: 47
Chanel 2 Note On - Duracao: 128640 Nota: C1 Vol.: 47
Chanel 5 Note Off - Duracao: 128760 Nota: C1 Vol.: 63
Chanel 5 Note On - Duracao: 128760 Nota: C1 Vol.: 68
Chanel 6 Note Off - Duracao: 128880 Nota: C1 Vol.: 53
Chanel 6 Note On - Duracao: 128880 Nota: C1 Vol.: 42
Chanel 4 Note Off - Duracao: 128940 Nota: C1 Vol.: 49
Chanel 4 Note On - Duracao: 128940 Nota: C1 Vol.: 68
Chanel 4 Note Off - Duracao: 129180 Nota: C1 Vol.: 68
Chanel 4 Note On - Duracao: 129180 Nota: C1 Vol.: 75
Chanel 5 Note Off - Duracao: 129240 Nota: C1 Vol.: 68
Chanel 5 Note On - Duracao: 129240 Nota: C1 Vol.: 60
Chanel 4 Note Off - Duracao: 129420 Nota: C1 Vol.: 75
Chanel 4 Note On - Duracao: 129420 Nota: C1 Vol.: 75
Chanel 4 Note Off - Duracao: 129660 Nota: C1 Vol.: 75
Chanel 4 Note On - Duracao: 129660 Nota: C1 Vol.: 61
Chanel 1 Note Off - Duracao: 130140 Nota: C1 Vol.: 49
Chanel 1 Note On - Duracao: 130140 Nota: C1 Vol.: 49
Chanel 4 Note Off - Duracao: 130140 Nota: C1 Vol.: 61
Chanel 4 Note On - Duracao: 130140 Nota: C1 Vol.: 75
Chanel 5 Note Off - Duracao: 130200 Nota: C1 Vol.: 60
Chanel 5 Note On - Duracao: 130200 Nota: C1 Vol.: 40
Chanel 4 Note Off - Duracao: 130380 Nota: C1 Vol.: 75
Chanel 4 Note On - Duracao: 130380 Nota: C1 Vol.: 66
Chanel 7 Note Off - Duracao: 130440 Nota: C1 Vol.: 58
Chanel 7 Note On - Duracao: 130440 Nota: C1 Vol.: 55
Chanel 2 Note Off - Duracao: 130560 Nota: C1 Vol.: 47
Chanel 2 Note On - Duracao: 130560 Nota: C1 Vol.: 44
Chanel 4 Note Off - Duracao: 130620 Nota: C1 Vol.: 66
Chanel 4 Note On - Duracao: 130620 Nota: C1 Vol.: 63
Chanel 6 Note Off - Duracao: 130800 Nota: C1 Vol.: 42
Chanel 6 Note On - Duracao: 130800 Nota: C1 Vol.: 43
Chanel 3 Note Off - Duracao: 130860 Nota: C1 Vol.: 47
Chanel 3 Note On - Duracao: 130860 Nota: C1 Vol.: 54
Chanel 4 Note Off - Duracao: 131100 Nota: C1 Vol.: 63
Chanel 4 Note On - Duracao: 131100 Nota: C1 Vol.: 66
Chanel 4 Note Off - Duracao: 131340 Nota: C1 Vol.: 66
Chanel 4 Note On - Duracao: 131340 Nota: C1 Vol.: 60
Chanel 9 Note Off - Duracao: 131760 Nota: C1 Vol.: 41
Chanel 9 Note On - Duracao: 131760 Nota: C1 Vol.: 44
Chanel 4 Note Off - Duracao: 131820 Nota: C1 Vol.: 60
Chanel 4 Note On - Duracao: 131820 Nota: C1 Vol.: 58
Chanel 1 Note Off - Duracao: 132060 Nota: C1 Vol.: 49
Chanel 1 Note On - Duracao: 132060 Nota: C1 Vol.: 52
Chanel 8 Note Off - Duracao: 132240 Nota: C1 Vol.: 43
Chanel 8 Note On - Duracao: 132240 Nota: C1 Vol.: 44
Chanel 2 Note Off - Duracao: 132480 Nota: C1 Vol.: 44
Chanel 2 Note On - Duracao: 132480 Nota: C1 Vol.: 51
Chanel 6 Note Off - Duracao: 132720 Nota: C1 Vol.: 43
Chanel 6 Note On - Duracao: 132720 Nota: C1 Vol.: 47
Chanel 3 Note Off - Duracao: 132780 Nota: C1 Vol.: 54
Chanel 3 Note On - Duracao: 132780 Nota: C1 Vol.: 70
Chanel 4 Note Off - Duracao: 132780 Nota: C1 Vol.: 58
Chanel 4 Note On - Duracao: 132780 Nota: C1 Vol.: 62
Chanel 3 Note Off - Duracao: 133260 Nota: C1 Vol.: 70
Chanel 3 Note On - Duracao: 133260 Nota: C1 Vol.: 97
Chanel 4 Note Off - Duracao: 133260 Nota: C1 Vol.: 62
Chanel 4 Note On - Duracao: 133260 Nota: C1 Vol.: 52
Chanel 3 Note Off - Duracao: 133380 Nota: C1 Vol.: 97
Chanel 3 Note On - Duracao: 133380 Nota: C1 Vol.: 79
Chanel 2 Note Off - Duracao: 133440 Nota: C1 Vol.: 51
Chanel 2 Note On - Duracao: 133440 Nota: C1 Vol.: 46
Chanel 9 Note Off - Duracao: 133680 Nota: C1 Vol.: 44
Chanel 9 Note On - Duracao: 133680 Nota: C1 Vol.: 44
Chanel 3 Note Off - Duracao: 133860 Nota: C1 Vol.: 79
Chanel 3 Note On - Duracao: 133860 Nota: C1 Vol.: 64
Chanel 1 Note Off - Duracao: 133980 Nota: C1 Vol.: 52
Chanel 1 Note On - Duracao: 133980 Nota: C1 Vol.: 50
Chanel 5 Note Off - Duracao: 134040 Nota: C1 Vol.: 40
Chanel 5 Note On - Duracao: 134040 Nota: C1 Vol.: 41
Chanel 7 Note Off - Duracao: 134280 Nota: C1 Vol.: 55
Chanel 7 Note On - Duracao: 134280 Nota: C1 Vol.: 60
Chanel 6 Note Off - Duracao: 134640 Nota: C1 Vol.: 47
Chanel 6 Note On - Duracao: 134640 Nota: C1 Vol.: 63
Chanel 3 Note Off - Duracao: 134820 Nota: C1 Vol.: 64
Chanel 3 Note On - Duracao: 134820 Nota: C1 Vol.: 61
Chanel 4 Note Off - Duracao: 135180 Nota: C1 Vol.: 52
Chanel 4 Note On - Duracao: 135180 Nota: C1 Vol.: 47
Chanel 2 Note Off - Duracao: 135360 Nota: C1 Vol.: 46
Chanel 2 Note On - Duracao: 135360 Nota: C1 Vol.: 58
Chanel 6 Note Off - Duracao: 135600 Nota: C1 Vol.: 63
Chanel 6 Note On - Duracao: 135600 Nota: C1 Vol.: 58
Chanel 9 Note Off - Duracao: 135600 Nota: C1 Vol.: 44
Chanel 9 Note On - Duracao: 135600 Nota: C1 Vol.: 42
Chanel 3 Note Off - Duracao: 135780 Nota: C1 Vol.: 61
Chanel 3 Note On - Duracao: 135780 Nota: C1 Vol.: 62
Chanel 1 Note Off - Duracao: 135900 Nota: C1 Vol.: 50
Chanel 1 Note On - Duracao: 135900 Nota: C1 Vol.: 50
Chanel 8 Note Off - Duracao: 136080 Nota: C1 Vol.: 44
Chanel 8 Note On - Duracao: 136080 Nota: C1 Vol.: 44
Chanel 7 Note Off - Duracao: 136200 Nota: C1 Vol.: 60
Chanel 7 Note On - Duracao: 136200 Nota: C1 Vol.: 56
Chanel 3 Note Off - Duracao: 136260 Nota: C1 Vol.: 62
Chanel 3 Note On - Duracao: 136260 Nota: C1 Vol.: 60
Chanel 2 Note Off - Duracao: 136320 Nota: C1 Vol.: 58
Chanel 2 Note On - Duracao: 136320 Nota: C1 Vol.: 53
Chanel 6 Note Off - Duracao: 136560 Nota: C1 Vol.: 58
Chanel 6 Note On - Duracao: 136560 Nota: C1 Vol.: 42
Chanel 3 Note Off - Duracao: 136740 Nota: C1 Vol.: 60
Chanel 3 Note On - Duracao: 136740 Nota: C1 Vol.: 45
Chanel 4 Note Off - Duracao: 137100 Nota: C1 Vol.: 47
Chanel 4 Note On - Duracao: 137100 Nota: C1 Vol.: 49
Chanel 9 Note Off - Duracao: 137520 Nota: C1 Vol.: 42
Chanel 9 Note On - Duracao: 137520 Nota: C1 Vol.: 45
Chanel 1 Note Off - Duracao: 137820 Nota: C1 Vol.: 50
Chanel 1 Note On - Duracao: 137820 Nota: C1 Vol.: 41
Chanel 5 Note Off - Duracao: 137880 Nota: C1 Vol.: 41
Chanel 5 Note On - Duracao: 137880 Nota: C1 Vol.: 52
Chanel 2 Note Off - Duracao: 138240 Nota: C1 Vol.: 53
Chanel 2 Note On - Duracao: 138240 Nota: C1 Vol.: 54
Chanel 6 Note Off - Duracao: 138480 Nota: C1 Vol.: 42
Chanel 6 Note On - Duracao: 138480 Nota: C1 Vol.: 58
Chanel 9 Note Off - Duracao: 138480 Nota: C1 Vol.: 45
Chanel 9 Note On - Duracao: 138480 Nota: C1 Vol.: 49
Chanel 3 Note Off - Duracao: 138660 Nota: C1 Vol.: 45
Chanel 3 Note On - Duracao: 138660 Nota: C1 Vol.: 55
Chanel 1 Note Off - Duracao: 138780 Nota: C1 Vol.: 41
Chanel 1 Note On - Duracao: 138780 Nota: C1 Vol.: 63
Chanel 5 Note Off - Duracao: 138840 Nota: C1 Vol.: 52
Chanel 5 Note On - Duracao: 138840 Nota: C1 Vol.: 62
Chanel 1 Note Off - Duracao: 139020 Nota: C1 Vol.: 63
Chanel 1 Note On - Duracao: 139020 Nota: C1 Vol.: 50
Chanel 4 Note Off - Duracao: 139020 Nota: C1 Vol.: 49
Chanel 4 Note On - Duracao: 139020 Nota: C1 Vol.: 68
Chanel 5 Note Off - Duracao: 139080 Nota: C1 Vol.: 62
Chanel 5 Note On - Duracao: 139080 Nota: C1 Vol.: 54
Chanel 6 Note Off - Duracao: 139440 Nota: C1 Vol.: 58
Chanel 6 Note On - Duracao: 139440 Nota: C1 Vol.: 43
Chanel 9 Note Off - Duracao: 139440 Nota: C1 Vol.: 49
Chanel 9 Note On - Duracao: 139440 Nota: C1 Vol.: 40
Chanel 4 Note Off - Duracao: 139500 Nota: C1 Vol.: 68
Chanel 4 Note On - Duracao: 139500 Nota: C1 Vol.: 99
Chanel 4 Note Off - Duracao: 139560 Nota: C1 Vol.: 99
Chanel 4 Note On - Duracao: 139560 Nota: C1 Vol.: 93
Chanel 3 Note Off - Duracao: 139620 Nota: C1 Vol.: 55
Chanel 3 Note On - Duracao: 139620 Nota: C1 Vol.: 45
Chanel 4 Note Off - Duracao: 139800 Nota: C1 Vol.: 93
Chanel 4 Note On - Duracao: 139800 Nota: C1 Vol.: 77
Chanel 8 Note Off - Duracao: 139920 Nota: C1 Vol.: 44
Chanel 8 Note On - Duracao: 139920 Nota: C1 Vol.: 51
Chanel 1 Note Off - Duracao: 139980 Nota: C1 Vol.: 50
Chanel 1 Note On - Duracao: 139980 Nota: C1 Vol.: 51
Chanel 5 Note Off - Duracao: 140040 Nota: C1 Vol.: 54
Chanel 5 Note On - Duracao: 140040 Nota: C1 Vol.: 45
Chanel 7 Note Off - Duracao: 140040 Nota: C1 Vol.: 56
Chanel 7 Note On - Duracao: 140040 Nota: C1 Vol.: 57
Chanel 2 Note Off - Duracao: 140160 Nota: C1 Vol.: 54
Chanel 2 Note On - Duracao: 140160 Nota: C1 Vol.: 54
Chanel 9 Note Off - Duracao: 140400 Nota: C1 Vol.: 40
Chanel 9 Note On - Duracao: 140400 Nota: C1 Vol.: 47
Chanel 4 Note Off - Duracao: 140760 Nota: C1 Vol.: 77
Chanel 4 Note On - Duracao: 140760 Nota: C1 Vol.: 82
Chanel 1 Note Off - Duracao: 140940 Nota: C1 Vol.: 51
Chanel 1 Note On - Duracao: 140940 Nota: C1 Vol.: 53
Chanel 4 Note Off - Duracao: 141240 Nota: C1 Vol.: 82
Chanel 4 Note On - Duracao: 141240 Nota: C1 Vol.: 99
Chanel 4 Note Off - Duracao: 141360 Nota: C1 Vol.: 99
Chanel 4 Note On - Duracao: 141360 Nota: C1 Vol.: 94
Chanel 6 Note Off - Duracao: 141360 Nota: C1 Vol.: 43
Chanel 6 Note On - Duracao: 141360 Nota: C1 Vol.: 45
Chanel 9 Note Off - Duracao: 141360 Nota: C1 Vol.: 47
Chanel 9 Note On - Duracao: 141360 Nota: C1 Vol.: 40
Chanel 3 Note Off - Duracao: 141540 Nota: C1 Vol.: 45
Chanel 3 Note On - Duracao: 141540 Nota: C1 Vol.: 54
Chanel 4 Note Off - Duracao: 141600 Nota: C1 Vol.: 94
Chanel 4 Note On - Duracao: 141600 Nota: C1 Vol.: 72
Chanel 8 Note Off - Duracao: 141840 Nota: C1 Vol.: 51
Chanel 8 Note On - Duracao: 141840 Nota: C1 Vol.: 48
Chanel 1 Note Off - Duracao: 141900 Nota: C1 Vol.: 53
Chanel 1 Note On - Duracao: 141900 Nota: C1 Vol.: 50
Chanel 7 Note Off - Duracao: 141960 Nota: C1 Vol.: 57
Chanel 7 Note On - Duracao: 141960 Nota: C1 Vol.: 54
Chanel 2 Note Off - Duracao: 142080 Nota: C1 Vol.: 54
Chanel 2 Note On - Duracao: 142080 Nota: C1 Vol.: 58
Chanel 3 Note Off - Duracao: 142500 Nota: C1 Vol.: 54
Chanel 3 Note On - Duracao: 142500 Nota: C1 Vol.: 63
Chanel 4 Note Off - Duracao: 142560 Nota: C1 Vol.: 72
Chanel 4 Note On - Duracao: 142560 Nota: C1 Vol.: 51
Chanel 6 Note Off - Duracao: 143280 Nota: C1 Vol.: 45
Chanel 6 Note On - Duracao: 143280 Nota: C1 Vol.: 45
Chanel 9 Note Off - Duracao: 143280 Nota: C1 Vol.: 40
Chanel 9 Note On - Duracao: 143280 Nota: C1 Vol.: 47
Chanel 3 Note Off - Duracao: 143460 Nota: C1 Vol.: 63
Chanel 3 Note On - Duracao: 143460 Nota: C1 Vol.: 58
Chanel 1 Note Off - Duracao: 143820 Nota: C1 Vol.: 50
Chanel 1 Note On - Duracao: 143820 Nota: C1 Vol.: 51
Chanel 5 Note Off - Duracao: 143880 Nota: C1 Vol.: 45
Chanel 5 Note On - Duracao: 143880 Nota: C1 Vol.: 73
Chanel 7 Note Off - Duracao: 143880 Nota: C1 Vol.: 54
Chanel 7 Note On - Duracao: 143880 Nota: C1 Vol.: 53
Chanel 2 Note Off - Duracao: 144000 Nota: C1 Vol.: 58
Chanel 2 Note On - Duracao: 144000 Nota: C1 Vol.: 49
Chanel 9 Note Off - Duracao: 144240 Nota: C1 Vol.: 47
Chanel 9 Note On - Duracao: 144240 Nota: C1 Vol.: 53
Chanel 3 Note Off - Duracao: 144420 Nota: C1 Vol.: 58
Chanel 3 Note On - Duracao: 144420 Nota: C1 Vol.: 62
Chanel 1 Note Off - Duracao: 144780 Nota: C1 Vol.: 51
Chanel 1 Note On - Duracao: 144780 Nota: C1 Vol.: 69
Chanel 5 Note Off - Duracao: 144840 Nota: C1 Vol.: 73
Chanel 5 Note On - Duracao: 144840 Nota: C1 Vol.: 95
Chanel 5 Note Off - Duracao: 144960 Nota: C1 Vol.: 95
Chanel 5 Note On - Duracao: 144960 Nota: C1 Vol.: 88
Chanel 5 Note Off - Duracao: 145080 Nota: C1 Vol.: 88
Chanel 5 Note On - Duracao: 145080 Nota: C1 Vol.: 51
Chanel 6 Note Off - Duracao: 145200 Nota: C1 Vol.: 45
Chanel 6 Note On - Duracao: 145200 Nota: C1 Vol.: 40
Chanel 9 Note Off - Duracao: 145200 Nota: C1 Vol.: 53
Chanel 9 Note On - Duracao: 145200 Nota: C1 Vol.: 40
Chanel 1 Note Off - Duracao: 145260 Nota: C1 Vol.: 69
Chanel 1 Note On - Duracao: 145260 Nota: C1 Vol.: 94
Chanel 1 Note Off - Duracao: 145380 Nota: C1 Vol.: 94
Chanel 1 Note On - Duracao: 145380 Nota: C1 Vol.: 78
Chanel 3 Note Off - Duracao: 145380 Nota: C1 Vol.: 62
Chanel 3 Note On - Duracao: 145380 Nota: C1 Vol.: 59
Chanel 1 Note Off - Duracao: 145620 Nota: C1 Vol.: 78
Chanel 1 Note On - Duracao: 145620 Nota: C1 Vol.: 59
Chanel 8 Note Off - Duracao: 145680 Nota: C1 Vol.: 48
Chanel 8 Note On - Duracao: 145680 Nota: C1 Vol.: 48
Chanel 7 Note Off - Duracao: 145800 Nota: C1 Vol.: 53
Chanel 7 Note On - Duracao: 145800 Nota: C1 Vol.: 57
Chanel 2 Note Off - Duracao: 145920 Nota: C1 Vol.: 49
Chanel 2 Note On - Duracao: 145920 Nota: C1 Vol.: 58
Chanel 3 Note Off - Duracao: 146340 Nota: C1 Vol.: 59
Chanel 3 Note On - Duracao: 146340 Nota: C1 Vol.: 56
Chanel 4 Note Off - Duracao: 146400 Nota: C1 Vol.: 51
Chanel 4 Note On - Duracao: 146400 Nota: C1 Vol.: 51
Chanel 1 Note Off - Duracao: 146580 Nota: C1 Vol.: 59
Chanel 1 Note On - Duracao: 146580 Nota: C1 Vol.: 58
Chanel 2 Note Off - Duracao: 146880 Nota: C1 Vol.: 58
Chanel 2 Note On - Duracao: 146880 Nota: C1 Vol.: 59
Chanel 5 Note Off - Duracao: 147000 Nota: C1 Vol.: 51
Chanel 5 Note On - Duracao: 147000 Nota: C1 Vol.: 41
Chanel 9 Note Off - Duracao: 147120 Nota: C1 Vol.: 40
Chanel 9 Note On - Duracao: 147120 Nota: C1 Vol.: 62
Chanel 3 Note Off - Duracao: 147300 Nota: C1 Vol.: 56
Chanel 3 Note On - Duracao: 147300 Nota: C1 Vol.: 70
Chanel 9 Note Off - Duracao: 147360 Nota: C1 Vol.: 62
Chanel 9 Note On - Duracao: 147360 Nota: C1 Vol.: 73
Chanel 1 Note Off - Duracao: 147540 Nota: C1 Vol.: 58
Chanel 1 Note On - Duracao: 147540 Nota: C1 Vol.: 56
Chanel 3 Note Off - Duracao: 147540 Nota: C1 Vol.: 70
Chanel 3 Note On - Duracao: 147540 Nota: C1 Vol.: 97
Chanel 8 Note Off - Duracao: 147600 Nota: C1 Vol.: 48
Chanel 8 Note On - Duracao: 147600 Nota: C1 Vol.: 45
Chanel 9 Note Off - Duracao: 147600 Nota: C1 Vol.: 73
Chanel 9 Note On - Duracao: 147600 Nota: C1 Vol.: 75
Chanel 3 Note Off - Duracao: 147660 Nota: C1 Vol.: 97
Chanel 3 Note On - Duracao: 147660 Nota: C1 Vol.: 98
Chanel 7 Note Off - Duracao: 147720 Nota: C1 Vol.: 57
Chanel 7 Note On - Duracao: 147720 Nota: C1 Vol.: 73
Chanel 3 Note Off - Duracao: 147780 Nota: C1 Vol.: 98
Chanel 3 Note On - Duracao: 147780 Nota: C1 Vol.: 89
Chanel 2 Note Off - Duracao: 147840 Nota: C1 Vol.: 59
Chanel 2 Note On - Duracao: 147840 Nota: C1 Vol.: 53
Chanel 3 Note Off - Duracao: 148020 Nota: C1 Vol.: 89
Chanel 3 Note On - Duracao: 148020 Nota: C1 Vol.: 88
Chanel 9 Note Off - Duracao: 148080 Nota: C1 Vol.: 75
Chanel 9 Note On - Duracao: 148080 Nota: C1 Vol.: 85
Chanel 3 Note Off - Duracao: 148260 Nota: C1 Vol.: 88
Chanel 3 Note On - Duracao: 148260 Nota: C1 Vol.: 100
Chanel 3 Note Off - Duracao: 148380 Nota: C1 Vol.: 100
Chanel 3 Note On - Duracao: 148380 Nota: C1 Vol.: 95
Chanel 1 Note Off - Duracao: 148500 Nota: C1 Vol.: 56
Chanel 1 Note On - Duracao: 148500 Nota: C1 Vol.: 54
Chanel 3 Note Off - Duracao: 148500 Nota: C1 Vol.: 95
Chanel 3 Note On - Duracao: 148500 Nota: C1 Vol.: 81
Chanel 9 Note Off - Duracao: 148560 Nota: C1 Vol.: 85
Chanel 9 Note On - Duracao: 148560 Nota: C1 Vol.: 88
Chanel 3 Note Off - Duracao: 148620 Nota: C1 Vol.: 81
Chanel 3 Note On - Duracao: 148620 Nota: C1 Vol.: 75
Chanel 7 Note Off - Duracao: 148680 Nota: C1 Vol.: 73
Chanel 7 Note On - Duracao: 148680 Nota: C1 Vol.: 95
Chanel 3 Note Off - Duracao: 148740 Nota: C1 Vol.: 75
Chanel 3 Note On - Duracao: 148740 Nota: C1 Vol.: 74
Chanel 7 Note Off - Duracao: 148920 Nota: C1 Vol.: 95
Chanel 7 Note On - Duracao: 148920 Nota: C1 Vol.: 100
Chanel 3 Note Off - Duracao: 148980 Nota: C1 Vol.: 74
Chanel 3 Note On - Duracao: 148980 Nota: C1 Vol.: 71
Chanel 6 Note Off - Duracao: 149040 Nota: C1 Vol.: 40
Chanel 6 Note On - Duracao: 149040 Nota: C1 Vol.: 40
Chanel 7 Note Off - Duracao: 149040 Nota: C1 Vol.: 100
Chanel 7 Note On - Duracao: 149040 Nota: C1 Vol.: 98
Chanel 9 Note Off - Duracao: 149040 Nota: C1 Vol.: 88
Chanel 9 Note On - Duracao: 149040 Nota: C1 Vol.: 97
Chanel 7 Note Off - Duracao: 149160 Nota: C1 Vol.: 98
Chanel 7 Note On - Duracao: 149160 Nota: C1 Vol.: 67
Chanel 3 Note Off - Duracao: 149220 Nota: C1 Vol.: 71
Chanel 3 Note On - Duracao: 149220 Nota: C1 Vol.: 62
Chanel 9 Note Off - Duracao: 149280 Nota: C1 Vol.: 97
Chanel 9 Note On - Duracao: 149280 Nota: C1 Vol.: 98
Chanel 1 Note Off - Duracao: 149460 Nota: C1 Vol.: 54
Chanel 1 Note On - Duracao: 149460 Nota: C1 Vol.: 49
Chanel 9 Note Off - Duracao: 149520 Nota: C1 Vol.: 98
Chanel 9 Note On - Duracao: 149520 Nota: C1 Vol.: 90
Chanel 3 Note Off - Duracao: 149700 Nota: C1 Vol.: 62
Chanel 3 Note On - Duracao: 149700 Nota: C1 Vol.: 76
Chanel 2 Note Off - Duracao: 149760 Nota: C1 Vol.: 53
Chanel 2 Note On - Duracao: 149760 Nota: C1 Vol.: 51
Chanel 9 Note Off - Duracao: 149760 Nota: C1 Vol.: 90
Chanel 9 Note On - Duracao: 149760 Nota: C1 Vol.: 80
Chanel 3 Note Off - Duracao: 149820 Nota: C1 Vol.: 76
Chanel 3 Note On - Duracao: 149820 Nota: C1 Vol.: 64
Chanel 9 Note Off - Duracao: 150000 Nota: C1 Vol.: 80
Chanel 9 Note On - Duracao: 150000 Nota: C1 Vol.: 74
Chanel 3 Note Off - Duracao: 150060 Nota: C1 Vol.: 64
Chanel 3 Note On - Duracao: 150060 Nota: C1 Vol.: 44
Chanel 7 Note Off - Duracao: 150120 Nota: C1 Vol.: 67
Chanel 7 Note On - Duracao: 150120 Nota: C1 Vol.: 49
Chanel 4 Note Off - Duracao: 150240 Nota: C1 Vol.: 51
Chanel 4 Note On - Duracao: 150240 Nota: C1 Vol.: 44
Chanel 1 Note Off - Duracao: 150420 Nota: C1 Vol.: 49
Chanel 1 Note On - Duracao: 150420 Nota: C1 Vol.: 58
Chanel 9 Note Off - Duracao: 150480 Nota: C1 Vol.: 74
Chanel 9 Note On - Duracao: 150480 Nota: C1 Vol.: 53
Chanel 1 Note Off - Duracao: 150660 Nota: C1 Vol.: 58
Chanel 1 Note On - Duracao: 150660 Nota: C1 Vol.: 60
Chanel 1 Note Off - Duracao: 150780 Nota: C1 Vol.: 60
Chanel 1 Note On - Duracao: 150780 Nota: C1 Vol.: 56
Chanel 5 Note Off - Duracao: 150840 Nota: C1 Vol.: 41
Chanel 5 Note On - Duracao: 150840 Nota: C1 Vol.: 44
Chanel 1 Note Off - Duracao: 150900 Nota: C1 Vol.: 56
Chanel 1 Note On - Duracao: 150900 Nota: C1 Vol.: 61
Chanel 1 Note Off - Duracao: 151020 Nota: C1 Vol.: 61
Chanel 1 Note On - Duracao: 151020 Nota: C1 Vol.: 61
Chanel 1 Note Off - Duracao: 151140 Nota: C1 Vol.: 61
Chanel 1 Note On - Duracao: 151140 Nota: C1 Vol.: 67
Chanel 1 Note Off - Duracao: 151260 Nota: C1 Vol.: 67
Chanel 1 Note On - Duracao: 151260 Nota: C1 Vol.: 73
Chanel 1 Note Off - Duracao: 151380 Nota: C1 Vol.: 73
Chanel 1 Note On - Duracao: 151380 Nota: C1 Vol.: 67
Chanel 8 Note Off - Duracao: 151440 Nota: C1 Vol.: 45
Chanel 8 Note On - Duracao: 151440 Nota: C1 Vol.: 41
Chanel 1 Note Off - Duracao: 151620 Nota: C1 Vol.: 67
Chanel 1 Note On - Duracao: 151620 Nota: C1 Vol.: 74
Chanel 2 Note Off - Duracao: 151680 Nota: C1 Vol.: 51
Chanel 2 Note On - Duracao: 151680 Nota: C1 Vol.: 69
Chanel 1 Note Off - Duracao: 151740 Nota: C1 Vol.: 74
Chanel 1 Note On - Duracao: 151740 Nota: C1 Vol.: 77
Chanel 1 Note Off - Duracao: 151860 Nota: C1 Vol.: 77
Chanel 1 Note On - Duracao: 151860 Nota: C1 Vol.: 62
Chanel 2 Note Off - Duracao: 151920 Nota: C1 Vol.: 69
Chanel 2 Note On - Duracao: 151920 Nota: C1 Vol.: 66
Chanel 3 Note Off - Duracao: 151980 Nota: C1 Vol.: 44
Chanel 3 Note On - Duracao: 151980 Nota: C1 Vol.: 70
Chanel 2 Note Off - Duracao: 152160 Nota: C1 Vol.: 66
Chanel 2 Note On - Duracao: 152160 Nota: C1 Vol.: 54
Chanel 3 Note Off - Duracao: 152220 Nota: C1 Vol.: 70
Chanel 3 Note On - Duracao: 152220 Nota: C1 Vol.: 67
Chanel 1 Note Off - Duracao: 152340 Nota: C1 Vol.: 62
Chanel 1 Note On - Duracao: 152340 Nota: C1 Vol.: 65
Chanel 9 Note Off - Duracao: 152400 Nota: C1 Vol.: 53
Chanel 9 Note On - Duracao: 152400 Nota: C1 Vol.: 67
Chanel 1 Note Off - Duracao: 152580 Nota: C1 Vol.: 65
Chanel 1 Note On - Duracao: 152580 Nota: C1 Vol.: 60
Chanel 3 Note Off - Duracao: 152700 Nota: C1 Vol.: 67
Chanel 3 Note On - Duracao: 152700 Nota: C1 Vol.: 50
Chanel 1 Note Off - Duracao: 152820 Nota: C1 Vol.: 60
Chanel 1 Note On - Duracao: 152820 Nota: C1 Vol.: 63
Chanel 1 Note Off - Duracao: 152880 Nota: C1 Vol.: 63
Chanel 1 Note On - Duracao: 152880 Nota: C1 Vol.: 59
Chanel 6 Note Off - Duracao: 152880 Nota: C1 Vol.: 40
Chanel 6 Note On - Duracao: 152880 Nota: C1 Vol.: 43
Chanel 1 Note Off - Duracao: 152940 Nota: C1 Vol.: 59
Chanel 1 Note On - Duracao: 152940 Nota: C1 Vol.: 61
Chanel 1 Note Off - Duracao: 153000 Nota: C1 Vol.: 61
Chanel 1 Note On - Duracao: 153000 Nota: C1 Vol.: 58
Chanel 2 Note Off - Duracao: 153120 Nota: C1 Vol.: 54
Chanel 2 Note On - Duracao: 153120 Nota: C1 Vol.: 49
Chanel 1 Note Off - Duracao: 153240 Nota: C1 Vol.: 58
Chanel 1 Note On - Duracao: 153240 Nota: C1 Vol.: 54
Chanel 9 Note Off - Duracao: 153360 Nota: C1 Vol.: 67
Chanel 9 Note On - Duracao: 153360 Nota: C1 Vol.: 68
Chanel 2 Note Off - Duracao: 153600 Nota: C1 Vol.: 49
Chanel 2 Note On - Duracao: 153600 Nota: C1 Vol.: 61
Chanel 3 Note Off - Duracao: 153660 Nota: C1 Vol.: 50
Chanel 3 Note On - Duracao: 153660 Nota: C1 Vol.: 67
Chanel 1 Note Off - Duracao: 153720 Nota: C1 Vol.: 54
Chanel 1 Note On - Duracao: 153720 Nota: C1 Vol.: 52
Chanel 2 Note Off - Duracao: 153720 Nota: C1 Vol.: 61
Chanel 2 Note On - Duracao: 153720 Nota: C1 Vol.: 61
Chanel 2 Note Off - Duracao: 153780 Nota: C1 Vol.: 61
Chanel 2 Note On - Duracao: 153780 Nota: C1 Vol.: 58
Chanel 2 Note Off - Duracao: 153840 Nota: C1 Vol.: 58
Chanel 2 Note On - Duracao: 153840 Nota: C1 Vol.: 62
Chanel 3 Note Off - Duracao: 153900 Nota: C1 Vol.: 67
Chanel 3 Note On - Duracao: 153900 Nota: C1 Vol.: 70
Chanel 2 Note Off - Duracao: 153960 Nota: C1 Vol.: 62
Chanel 2 Note On - Duracao: 153960 Nota: C1 Vol.: 48
Chanel 7 Note Off - Duracao: 153960 Nota: C1 Vol.: 49
Chanel 7 Note On - Duracao: 153960 Nota: C1 Vol.: 46
Chanel 4 Note Off - Duracao: 154080 Nota: C1 Vol.: 44
Chanel 4 Note On - Duracao: 154080 Nota: C1 Vol.: 49
Chanel 3 Note Off - Duracao: 154140 Nota: C1 Vol.: 70
Chanel 3 Note On - Duracao: 154140 Nota: C1 Vol.: 70
Chanel 9 Note Off - Duracao: 154320 Nota: C1 Vol.: 68
Chanel 9 Note On - Duracao: 154320 Nota: C1 Vol.: 60
Chanel 3 Note Off - Duracao: 154380 Nota: C1 Vol.: 70
Chanel 3 Note On - Duracao: 154380 Nota: C1 Vol.: 73
Chanel 3 Note Off - Duracao: 154620 Nota: C1 Vol.: 73
Chanel 3 Note On - Duracao: 154620 Nota: C1 Vol.: 68
Chanel 1 Note Off - Duracao: 154680 Nota: C1 Vol.: 52
Chanel 1 Note On - Duracao: 154680 Nota: C1 Vol.: 52
Chanel 5 Note Off - Duracao: 154680 Nota: C1 Vol.: 44
Chanel 5 Note On - Duracao: 154680 Nota: C1 Vol.: 51
Chanel 6 Note Off - Duracao: 154800 Nota: C1 Vol.: 43
Chanel 6 Note On - Duracao: 154800 Nota: C1 Vol.: 45
Chanel 3 Note Off - Duracao: 154860 Nota: C1 Vol.: 68
Chanel 3 Note On - Duracao: 154860 Nota: C1 Vol.: 58
Chanel 2 Note Off - Duracao: 154920 Nota: C1 Vol.: 48
Chanel 2 Note On - Duracao: 154920 Nota: C1 Vol.: 63
Chanel 8 Note Off - Duracao: 155280 Nota: C1 Vol.: 41
Chanel 8 Note On - Duracao: 155280 Nota: C1 Vol.: 47
Chanel 9 Note Off - Duracao: 155280 Nota: C1 Vol.: 60
Chanel 9 Note On - Duracao: 155280 Nota: C1 Vol.: 63
Chanel 3 Note Off - Duracao: 155820 Nota: C1 Vol.: 58
Chanel 3 Note On - Duracao: 155820 Nota: C1 Vol.: 76
Chanel 2 Note Off - Duracao: 155880 Nota: C1 Vol.: 63
Chanel 2 Note On - Duracao: 155880 Nota: C1 Vol.: 64
Chanel 4 Note Off - Duracao: 156000 Nota: C1 Vol.: 49
Chanel 4 Note On - Duracao: 156000 Nota: C1 Vol.: 48
Chanel 3 Note Off - Duracao: 156060 Nota: C1 Vol.: 76
Chanel 3 Note On - Duracao: 156060 Nota: C1 Vol.: 78
Chanel 9 Note Off - Duracao: 156240 Nota: C1 Vol.: 63
Chanel 9 Note On - Duracao: 156240 Nota: C1 Vol.: 46
Chanel 3 Note Off - Duracao: 156300 Nota: C1 Vol.: 78
Chanel 3 Note On - Duracao: 156300 Nota: C1 Vol.: 58
Chanel 1 Note Off - Duracao: 156600 Nota: C1 Vol.: 52
Chanel 1 Note On - Duracao: 156600 Nota: C1 Vol.: 51
Chanel 6 Note Off - Duracao: 156720 Nota: C1 Vol.: 45
Chanel 6 Note On - Duracao: 156720 Nota: C1 Vol.: 40
Chanel 3 Note Off - Duracao: 156780 Nota: C1 Vol.: 58
Chanel 3 Note On - Duracao: 156780 Nota: C1 Vol.: 44
Chanel 2 Note Off - Duracao: 156840 Nota: C1 Vol.: 64
Chanel 2 Note On - Duracao: 156840 Nota: C1 Vol.: 91
Chanel 2 Note Off - Duracao: 156960 Nota: C1 Vol.: 91
Chanel 2 Note On - Duracao: 156960 Nota: C1 Vol.: 100
Chanel 2 Note Off - Duracao: 157080 Nota: C1 Vol.: 100
Chanel 2 Note On - Duracao: 157080 Nota: C1 Vol.: 100
Chanel 2 Note Off - Duracao: 157140 Nota: C1 Vol.: 100
Chanel 2 Note On - Duracao: 157140 Nota: C1 Vol.: 88
Chanel 2 Note Off - Duracao: 157380 Nota: C1 Vol.: 88
Chanel 2 Note On - Duracao: 157380 Nota: C1 Vol.: 100
Chanel 2 Note Off - Duracao: 157500 Nota: C1 Vol.: 100
Chanel 2 Note On - Duracao: 157500 Nota: C1 Vol.: 100
Chanel 2 Note Off - Duracao: 157620 Nota: C1 Vol.: 100
Chanel 2 Note On - Duracao: 157620 Nota: C1 Vol.: 87
Chanel 3 Note Off - Duracao: 157740 Nota: C1 Vol.: 44
Chanel 3 Note On - Duracao: 157740 Nota: C1 Vol.: 58
Chanel 7 Note Off - Duracao: 157800 Nota: C1 Vol.: 46
Chanel 7 Note On - Duracao: 157800 Nota: C1 Vol.: 50
Chanel 2 Note Off - Duracao: 157860 Nota: C1 Vol.: 87
Chanel 2 Note On - Duracao: 157860 Nota: C1 Vol.: 44
Chanel 3 Note Off - Duracao: 158220 Nota: C1 Vol.: 58
Chanel 3 Note On - Duracao: 158220 Nota: C1 Vol.: 75
Chanel 3 Note Off - Duracao: 158460 Nota: C1 Vol.: 75
Chanel 3 Note On - Duracao: 158460 Nota: C1 Vol.: 59
Chanel 1 Note Off - Duracao: 158520 Nota: C1 Vol.: 51
Chanel 1 Note On - Duracao: 158520 Nota: C1 Vol.: 50
Chanel 5 Note Off - Duracao: 158520 Nota: C1 Vol.: 51
Chanel 5 Note On - Duracao: 158520 Nota: C1 Vol.: 47
Chanel 6 Note Off - Duracao: 158640 Nota: C1 Vol.: 40
Chanel 6 Note On - Duracao: 158640 Nota: C1 Vol.: 44
Chanel 2 Note Off - Duracao: 158820 Nota: C1 Vol.: 44
Chanel 2 Note On - Duracao: 158820 Nota: C1 Vol.: 57
Chanel 2 Note Off - Duracao: 159060 Nota: C1 Vol.: 57
Chanel 2 Note On - Duracao: 159060 Nota: C1 Vol.: 57
Chanel 2 Note Off - Duracao: 159120 Nota: C1 Vol.: 57
Chanel 2 Note On - Duracao: 159120 Nota: C1 Vol.: 54
Chanel 8 Note Off - Duracao: 159120 Nota: C1 Vol.: 47
Chanel 8 Note On - Duracao: 159120 Nota: C1 Vol.: 44
Chanel 2 Note Off - Duracao: 159240 Nota: C1 Vol.: 54
Chanel 2 Note On - Duracao: 159240 Nota: C1 Vol.: 56
Chanel 2 Note Off - Duracao: 159360 Nota: C1 Vol.: 56
Chanel 2 Note On - Duracao: 159360 Nota: C1 Vol.: 42
Chanel 3 Note Off - Duracao: 159420 Nota: C1 Vol.: 59
Chanel 3 Note On - Duracao: 159420 Nota: C1 Vol.: 40
Chanel 4 Note Off - Duracao: 159840 Nota: C1 Vol.: 48
Chanel 4 Note On - Duracao: 159840 Nota: C1 Vol.: 48
Chanel 9 Note Off - Duracao: 160080 Nota: C1 Vol.: 46
Chanel 9 Note On - Duracao: 160080 Nota: C1 Vol.: 62
Chanel 2 Note Off - Duracao: 160320 Nota: C1 Vol.: 42
Chanel 2 Note On - Duracao: 160320 Nota: C1 Vol.: 46
Chanel 1 Note Off - Duracao: 160440 Nota: C1 Vol.: 50
Chanel 1 Note On - Duracao: 160440 Nota: C1 Vol.: 52
Chanel 6 Note Off - Duracao: 160560 Nota: C1 Vol.: 44
Chanel 6 Note On - Duracao: 160560 Nota: C1 Vol.: 42
Chanel 3 Note Off - Duracao: 161340 Nota: C1 Vol.: 40
Chanel 3 Note On - Duracao: 161340 Nota: C1 Vol.: 40
Chanel 7 Note Off - Duracao: 161640 Nota: C1 Vol.: 50
Chanel 7 Note On - Duracao: 161640 Nota: C1 Vol.: 43
Chanel 9 Note Off - Duracao: 162000 Nota: C1 Vol.: 62
Chanel 9 Note On - Duracao: 162000 Nota: C1 Vol.: 100
Chanel 9 Note Off - Duracao: 162120 Nota: C1 Vol.: 100
Chanel 9 Note On - Duracao: 162120 Nota: C1 Vol.: 81
Chanel 2 Note Off - Duracao: 162240 Nota: C1 Vol.: 46
Chanel 2 Note On - Duracao: 162240 Nota: C1 Vol.: 49
Chanel 1 Note Off - Duracao: 162360 Nota: C1 Vol.: 52
Chanel 1 Note On - Duracao: 162360 Nota: C1 Vol.: 53
Chanel 5 Note Off - Duracao: 162360 Nota: C1 Vol.: 47
Chanel 5 Note On - Duracao: 162360 Nota: C1 Vol.: 43
Chanel 6 Note Off - Duracao: 162480 Nota: C1 Vol.: 42
Chanel 6 Note On - Duracao: 162480 Nota: C1 Vol.: 40
Chanel 8 Note Off - Duracao: 162960 Nota: C1 Vol.: 44
Chanel 8 Note On - Duracao: 162960 Nota: C1 Vol.: 49
Chanel 9 Note Off - Duracao: 163080 Nota: C1 Vol.: 81
Chanel 9 Note On - Duracao: 163080 Nota: C1 Vol.: 63
Chanel 3 Note Off - Duracao: 163260 Nota: C1 Vol.: 40
Chanel 3 Note On - Duracao: 163260 Nota: C1 Vol.: 50
Chanel 4 Note Off - Duracao: 163680 Nota: C1 Vol.: 48
Chanel 4 Note On - Duracao: 163680 Nota: C1 Vol.: 51
Chanel 2 Note Off - Duracao: 164160 Nota: C1 Vol.: 49
Chanel 2 Note On - Duracao: 164160 Nota: C1 Vol.: 49
Chanel 1 Note Off - Duracao: 164280 Nota: C1 Vol.: 53
Chanel 1 Note On - Duracao: 164280 Nota: C1 Vol.: 54
Chanel 8 Note Off - Duracao: 164880 Nota: C1 Vol.: 49
Chanel 8 Note On - Duracao: 164880 Nota: C1 Vol.: 43
Chanel 3 Note Off - Duracao: 165180 Nota: C1 Vol.: 50
Chanel 3 Note On - Duracao: 165180 Nota: C1 Vol.: 84
Chanel 3 Note Off - Duracao: 165420 Nota: C1 Vol.: 84
Chanel 3 Note On - Duracao: 165420 Nota: C1 Vol.: 98
Chanel 7 Note Off - Duracao: 165480 Nota: C1 Vol.: 43
Chanel 7 Note On - Duracao: 165480 Nota: C1 Vol.: 47
Chanel 3 Note Off - Duracao: 165540 Nota: C1 Vol.: 98
Chanel 3 Note On - Duracao: 165540 Nota: C1 Vol.: 79
Chanel 4 Note Off - Duracao: 165600 Nota: C1 Vol.: 51
Chanel 4 Note On - Duracao: 165600 Nota: C1 Vol.: 41
Chanel 3 Note Off - Duracao: 166020 Nota: C1 Vol.: 79
Chanel 3 Note On - Duracao: 166020 Nota: C1 Vol.: 74
Chanel 2 Note Off - Duracao: 166080 Nota: C1 Vol.: 49
Chanel 2 Note On - Duracao: 166080 Nota: C1 Vol.: 51
Chanel 1 Note Off - Duracao: 166200 Nota: C1 Vol.: 54
Chanel 1 Note On - Duracao: 166200 Nota: C1 Vol.: 55
Chanel 5 Note Off - Duracao: 166200 Nota: C1 Vol.: 43
Chanel 5 Note On - Duracao: 166200 Nota: C1 Vol.: 42
Chanel 6 Note Off - Duracao: 166320 Nota: C1 Vol.: 40
Chanel 6 Note On - Duracao: 166320 Nota: C1 Vol.: 43
Chanel 9 Note Off - Duracao: 166920 Nota: C1 Vol.: 63
Chanel 9 Note On - Duracao: 166920 Nota: C1 Vol.: 66
Chanel 3 Note Off - Duracao: 166980 Nota: C1 Vol.: 74
Chanel 3 Note On - Duracao: 166980 Nota: C1 Vol.: 74
Chanel 7 Note Off - Duracao: 167400 Nota: C1 Vol.: 47
Chanel 7 Note On - Duracao: 167400 Nota: C1 Vol.: 59
Chanel 3 Note Off - Duracao: 167460 Nota: C1 Vol.: 74
Chanel 3 Note On - Duracao: 167460 Nota: C1 Vol.: 68
Chanel 7 Note Off - Duracao: 167880 Nota: C1 Vol.: 59
Chanel 7 Note On - Duracao: 167880 Nota: C1 Vol.: 46
Chanel 3 Note Off - Duracao: 167940 Nota: C1 Vol.: 68
Chanel 3 Note On - Duracao: 167940 Nota: C1 Vol.: 48
Chanel 2 Note Off - Duracao: 168000 Nota: C1 Vol.: 51
Chanel 2 Note On - Duracao: 168000 Nota: C1 Vol.: 63
Chanel 1 Note Off - Duracao: 168120 Nota: C1 Vol.: 55
Chanel 1 Note On - Duracao: 168120 Nota: C1 Vol.: 56
Chanel 8 Note Off - Duracao: 168720 Nota: C1 Vol.: 43
Chanel 8 Note On - Duracao: 168720 Nota: C1 Vol.: 51
Chanel 9 Note Off - Duracao: 168840 Nota: C1 Vol.: 66
Chanel 9 Note On - Duracao: 168840 Nota: C1 Vol.: 81
Chanel 3 Note Off - Duracao: 168900 Nota: C1 Vol.: 48
Chanel 3 Note On - Duracao: 168900 Nota: C1 Vol.: 44
Chanel 2 Note Off - Duracao: 168960 Nota: C1 Vol.: 63
Chanel 2 Note On - Duracao: 168960 Nota: C1 Vol.: 91
Chanel 2 Note Off - Duracao: 169080 Nota: C1 Vol.: 91
Chanel 2 Note On - Duracao: 169080 Nota: C1 Vol.: 89
Chanel 2 Note Off - Duracao: 169320 Nota: C1 Vol.: 89
Chanel 2 Note On - Duracao: 169320 Nota: C1 Vol.: 80
Chanel 4 Note Off - Duracao: 169440 Nota: C1 Vol.: 41
Chanel 4 Note On - Duracao: 169440 Nota: C1 Vol.: 45
Chanel 2 Note Off - Duracao: 169560 Nota: C1 Vol.: 80
Chanel 2 Note On - Duracao: 169560 Nota: C1 Vol.: 51
Chanel 7 Note Off - Duracao: 169800 Nota: C1 Vol.: 46
Chanel 7 Note On - Duracao: 169800 Nota: C1 Vol.: 45
Chanel 9 Note Off - Duracao: 169800 Nota: C1 Vol.: 81
Chanel 9 Note On - Duracao: 169800 Nota: C1 Vol.: 59
Chanel 1 Note Off - Duracao: 170040 Nota: C1 Vol.: 56
Chanel 1 Note On - Duracao: 170040 Nota: C1 Vol.: 53
Chanel 5 Note Off - Duracao: 170040 Nota: C1 Vol.: 42
Chanel 5 Note On - Duracao: 170040 Nota: C1 Vol.: 42
Chanel 6 Note Off - Duracao: 170160 Nota: C1 Vol.: 43
Chanel 6 Note On - Duracao: 170160 Nota: C1 Vol.: 41
Chanel 8 Note Off - Duracao: 170640 Nota: C1 Vol.: 51
Chanel 8 Note On - Duracao: 170640 Nota: C1 Vol.: 44
Chanel 3 Note Off - Duracao: 170820 Nota: C1 Vol.: 44
Chanel 3 Note On - Duracao: 170820 Nota: C1 Vol.: 47
Chanel 4 Note Off - Duracao: 171360 Nota: C1 Vol.: 45
Chanel 4 Note On - Duracao: 171360 Nota: C1 Vol.: 48
Chanel 2 Note Off - Duracao: 171480 Nota: C1 Vol.: 51
Chanel 2 Note On - Duracao: 171480 Nota: C1 Vol.: 50
Chanel 9 Note Off - Duracao: 171720 Nota: C1 Vol.: 59
Chanel 9 Note On - Duracao: 171720 Nota: C1 Vol.: 49
Chanel 3 Note Off - Duracao: 171780 Nota: C1 Vol.: 47
Chanel 3 Note On - Duracao: 171780 Nota: C1 Vol.: 46
Chanel 1 Note Off - Duracao: 171960 Nota: C1 Vol.: 53
Chanel 1 Note On - Duracao: 171960 Nota: C1 Vol.: 48
Chanel 3 Note Off - Duracao: 172740 Nota: C1 Vol.: 46
Chanel 3 Note On - Duracao: 172740 Nota: C1 Vol.: 52
Chanel 4 Note Off - Duracao: 173280 Nota: C1 Vol.: 48
Chanel 4 Note On - Duracao: 173280 Nota: C1 Vol.: 59
Chanel 2 Note Off - Duracao: 173400 Nota: C1 Vol.: 50
Chanel 2 Note On - Duracao: 173400 Nota: C1 Vol.: 47
Chanel 7 Note Off - Duracao: 173640 Nota: C1 Vol.: 45
Chanel 7 Note On - Duracao: 173640 Nota: C1 Vol.: 55
Chanel 3 Note Off - Duracao: 173700 Nota: C1 Vol.: 52
Chanel 3 Note On - Duracao: 173700 Nota: C1 Vol.: 44
Chanel 4 Note Off - Duracao: 173760 Nota: C1 Vol.: 59
Chanel 4 Note On - Duracao: 173760 Nota: C1 Vol.: 58
Chanel 1 Note Off - Duracao: 173880 Nota: C1 Vol.: 48
Chanel 1 Note On - Duracao: 173880 Nota: C1 Vol.: 57
Chanel 5 Note Off - Duracao: 173880 Nota: C1 Vol.: 42
Chanel 5 Note On - Duracao: 173880 Nota: C1 Vol.: 47
Chanel 6 Note Off - Duracao: 174000 Nota: C1 Vol.: 41
Chanel 6 Note On - Duracao: 174000 Nota: C1 Vol.: 40
Chanel 8 Note Off - Duracao: 174480 Nota: C1 Vol.: 44
Chanel 8 Note On - Duracao: 174480 Nota: C1 Vol.: 43
Chanel 7 Note Off - Duracao: 174600 Nota: C1 Vol.: 55
Chanel 7 Note On - Duracao: 174600 Nota: C1 Vol.: 52
Chanel 4 Note Off - Duracao: 174720 Nota: C1 Vol.: 58
Chanel 4 Note On - Duracao: 174720 Nota: C1 Vol.: 74
Chanel 1 Note Off - Duracao: 174840 Nota: C1 Vol.: 57
Chanel 1 Note On - Duracao: 174840 Nota: C1 Vol.: 48
Chanel 4 Note Off - Duracao: 175200 Nota: C1 Vol.: 74
Chanel 4 Note On - Duracao: 175200 Nota: C1 Vol.: 100
Chanel 4 Note Off - Duracao: 175260 Nota: C1 Vol.: 100
Chanel 4 Note On - Duracao: 175260 Nota: C1 Vol.: 100
Chanel 2 Note Off - Duracao: 175320 Nota: C1 Vol.: 47
Chanel 2 Note On - Duracao: 175320 Nota: C1 Vol.: 47
Chanel 4 Note Off - Duracao: 175320 Nota: C1 Vol.: 100
Chanel 4 Note On - Duracao: 175320 Nota: C1 Vol.: 79
Chanel 9 Note Off - Duracao: 175560 Nota: C1 Vol.: 49
Chanel 9 Note On - Duracao: 175560 Nota: C1 Vol.: 56
Chanel 4 Note Off - Duracao: 175800 Nota: C1 Vol.: 79
Chanel 4 Note On - Duracao: 175800 Nota: C1 Vol.: 54
Chanel 8 Note Off - Duracao: 176400 Nota: C1 Vol.: 43
Chanel 8 Note On - Duracao: 176400 Nota: C1 Vol.: 42
Chanel 7 Note Off - Duracao: 176520 Nota: C1 Vol.: 52
Chanel 7 Note On - Duracao: 176520 Nota: C1 Vol.: 47
Chanel 1 Note Off - Duracao: 176760 Nota: C1 Vol.: 48
Chanel 1 Note On - Duracao: 176760 Nota: C1 Vol.: 50
Chanel 2 Note Off - Duracao: 177240 Nota: C1 Vol.: 47
Chanel 2 Note On - Duracao: 177240 Nota: C1 Vol.: 44
Chanel 9 Note Off - Duracao: 177480 Nota: C1 Vol.: 56
Chanel 9 Note On - Duracao: 177480 Nota: C1 Vol.: 56
Chanel 3 Note Off - Duracao: 177540 Nota: C1 Vol.: 44
Chanel 3 Note On - Duracao: 177540 Nota: C1 Vol.: 42
Chanel 5 Note Off - Duracao: 177720 Nota: C1 Vol.: 47
Chanel 5 Note On - Duracao: 177720 Nota: C1 Vol.: 62
Chanel 6 Note Off - Duracao: 177840 Nota: C1 Vol.: 40
Chanel 6 Note On - Duracao: 177840 Nota: C1 Vol.: 40
Chanel 8 Note Off - Duracao: 178320 Nota: C1 Vol.: 42
Chanel 8 Note On - Duracao: 178320 Nota: C1 Vol.: 43
Chanel 1 Note Off - Duracao: 178680 Nota: C1 Vol.: 50
Chanel 1 Note On - Duracao: 178680 Nota: C1 Vol.: 51
Chanel 5 Note Off - Duracao: 178680 Nota: C1 Vol.: 62
Chanel 5 Note On - Duracao: 178680 Nota: C1 Vol.: 56
Chanel 8 Note Off - Duracao: 179280 Nota: C1 Vol.: 43
Chanel 8 Note On - Duracao: 179280 Nota: C1 Vol.: 61
Chanel 4 Note Off - Duracao: 179640 Nota: C1 Vol.: 54
Chanel 4 Note On - Duracao: 179640 Nota: C1 Vol.: 58
Chanel 5 Note Off - Duracao: 179640 Nota: C1 Vol.: 56
Chanel 5 Note On - Duracao: 179640 Nota: C1 Vol.: 54
Chanel 8 Note Off - Duracao: 179760 Nota: C1 Vol.: 61
Chanel 8 Note On - Duracao: 179760 Nota: C1 Vol.: 49
Chanel 7 Note Off - Duracao: 180360 Nota: C1 Vol.: 47
Chanel 7 Note On - Duracao: 180360 Nota: C1 Vol.: 55
Chanel 1 Note Off - Duracao: 180600 Nota: C1 Vol.: 51
Chanel 1 Note On - Duracao: 180600 Nota: C1 Vol.: 49
Chanel 5 Note Off - Duracao: 180600 Nota: C1 Vol.: 54
Chanel 5 Note On - Duracao: 180600 Nota: C1 Vol.: 53
Chanel 8 Note Off - Duracao: 180720 Nota: C1 Vol.: 49
Chanel 8 Note On - Duracao: 180720 Nota: C1 Vol.: 44
Chanel 2 Note Off - Duracao: 181080 Nota: C1 Vol.: 44
Chanel 2 Note On - Duracao: 181080 Nota: C1 Vol.: 50
Chanel 9 Note Off - Duracao: 181320 Nota: C1 Vol.: 56
Chanel 9 Note On - Duracao: 181320 Nota: C1 Vol.: 52
Chanel 3 Note Off - Duracao: 181380 Nota: C1 Vol.: 42
Chanel 3 Note On - Duracao: 181380 Nota: C1 Vol.: 59
Chanel 4 Note Off - Duracao: 181560 Nota: C1 Vol.: 58
Chanel 4 Note On - Duracao: 181560 Nota: C1 Vol.: 64
Chanel 6 Note Off - Duracao: 181680 Nota: C1 Vol.: 40
Chanel 6 Note On - Duracao: 181680 Nota: C1 Vol.: 40
Chanel 3 Note Off - Duracao: 182340 Nota: C1 Vol.: 59
Chanel 3 Note On - Duracao: 182340 Nota: C1 Vol.: 60
Chanel 1 Note Off - Duracao: 182520 Nota: C1 Vol.: 49
Chanel 1 Note On - Duracao: 182520 Nota: C1 Vol.: 47
Chanel 4 Note Off - Duracao: 182520 Nota: C1 Vol.: 64
Chanel 4 Note On - Duracao: 182520 Nota: C1 Vol.: 71
Chanel 5 Note Off - Duracao: 182520 Nota: C1 Vol.: 53
Chanel 5 Note On - Duracao: 182520 Nota: C1 Vol.: 52
Chanel 8 Note Off - Duracao: 182640 Nota: C1 Vol.: 44
Chanel 8 Note On - Duracao: 182640 Nota: C1 Vol.: 44
Chanel 2 Note Off - Duracao: 183000 Nota: C1 Vol.: 50
Chanel 2 Note On - Duracao: 183000 Nota: C1 Vol.: 48
Chanel 4 Note Off - Duracao: 183000 Nota: C1 Vol.: 71
Chanel 4 Note On - Duracao: 183000 Nota: C1 Vol.: 73
Chanel 4 Note Off - Duracao: 183240 Nota: C1 Vol.: 73
Chanel 4 Note On - Duracao: 183240 Nota: C1 Vol.: 74
Chanel 3 Note Off - Duracao: 183300 Nota: C1 Vol.: 60
Chanel 3 Note On - Duracao: 183300 Nota: C1 Vol.: 58
Chanel 4 Note Off - Duracao: 183480 Nota: C1 Vol.: 74
Chanel 4 Note On - Duracao: 183480 Nota: C1 Vol.: 49
Chanel 7 Note Off - Duracao: 184200 Nota: C1 Vol.: 55
Chanel 7 Note On - Duracao: 184200 Nota: C1 Vol.: 62
Chanel 3 Note Off - Duracao: 184260 Nota: C1 Vol.: 58
Chanel 3 Note On - Duracao: 184260 Nota: C1 Vol.: 62
Chanel 1 Note Off - Duracao: 184440 Nota: C1 Vol.: 47
Chanel 1 Note On - Duracao: 184440 Nota: C1 Vol.: 40
Chanel 5 Note Off - Duracao: 184440 Nota: C1 Vol.: 52
Chanel 5 Note On - Duracao: 184440 Nota: C1 Vol.: 54
Chanel 2 Note Off - Duracao: 184920 Nota: C1 Vol.: 48
Chanel 2 Note On - Duracao: 184920 Nota: C1 Vol.: 45
Chanel 9 Note Off - Duracao: 185160 Nota: C1 Vol.: 52
Chanel 9 Note On - Duracao: 185160 Nota: C1 Vol.: 50
Chanel 3 Note Off - Duracao: 185220 Nota: C1 Vol.: 62
Chanel 3 Note On - Duracao: 185220 Nota: C1 Vol.: 84
Chanel 1 Note Off - Duracao: 185400 Nota: C1 Vol.: 40
Chanel 1 Note On - Duracao: 185400 Nota: C1 Vol.: 60
Chanel 4 Note Off - Duracao: 185400 Nota: C1 Vol.: 49
Chanel 4 Note On - Duracao: 185400 Nota: C1 Vol.: 65
Chanel 3 Note Off - Duracao: 185460 Nota: C1 Vol.: 84
Chanel 3 Note On - Duracao: 185460 Nota: C1 Vol.: 99
Chanel 6 Note Off - Duracao: 185520 Nota: C1 Vol.: 40
Chanel 6 Note On - Duracao: 185520 Nota: C1 Vol.: 40
Chanel 3 Note Off - Duracao: 185580 Nota: C1 Vol.: 99
Chanel 3 Note On - Duracao: 185580 Nota: C1 Vol.: 95
Chanel 1 Note Off - Duracao: 185640 Nota: C1 Vol.: 60
Chanel 1 Note On - Duracao: 185640 Nota: C1 Vol.: 40
Chanel 3 Note Off - Duracao: 185700 Nota: C1 Vol.: 95
Chanel 3 Note On - Duracao: 185700 Nota: C1 Vol.: 84
Chanel 4 Note Off - Duracao: 185880 Nota: C1 Vol.: 65
Chanel 4 Note On - Duracao: 185880 Nota: C1 Vol.: 90
Chanel 3 Note Off - Duracao: 185940 Nota: C1 Vol.: 84
Chanel 3 Note On - Duracao: 185940 Nota: C1 Vol.: 78
Chanel 4 Note Off - Duracao: 186000 Nota: C1 Vol.: 90
Chanel 4 Note On - Duracao: 186000 Nota: C1 Vol.: 55
Chanel 7 Note Off - Duracao: 186120 Nota: C1 Vol.: 62
Chanel 7 Note On - Duracao: 186120 Nota: C1 Vol.: 65
Chanel 5 Note Off - Duracao: 186360 Nota: C1 Vol.: 54
Chanel 5 Note On - Duracao: 186360 Nota: C1 Vol.: 52
Chanel 3 Note Off - Duracao: 186420 Nota: C1 Vol.: 78
Chanel 3 Note On - Duracao: 186420 Nota: C1 Vol.: 76
Chanel 8 Note Off - Duracao: 186480 Nota: C1 Vol.: 44
Chanel 8 Note On - Duracao: 186480 Nota: C1 Vol.: 44
Chanel 2 Note Off - Duracao: 186840 Nota: C1 Vol.: 45
Chanel 2 Note On - Duracao: 186840 Nota: C1 Vol.: 54
Chanel 3 Note Off - Duracao: 186900 Nota: C1 Vol.: 76
Chanel 3 Note On - Duracao: 186900 Nota: C1 Vol.: 69
Chanel 4 Note Off - Duracao: 186960 Nota: C1 Vol.: 55
Chanel 4 Note On - Duracao: 186960 Nota: C1 Vol.: 53
Chanel 3 Note Off - Duracao: 187140 Nota: C1 Vol.: 69
Chanel 3 Note On - Duracao: 187140 Nota: C1 Vol.: 64
Chanel 3 Note Off - Duracao: 187380 Nota: C1 Vol.: 64
Chanel 3 Note On - Duracao: 187380 Nota: C1 Vol.: 71
Chanel 1 Note Off - Duracao: 187560 Nota: C1 Vol.: 40
Chanel 1 Note On - Duracao: 187560 Nota: C1 Vol.: 46
Chanel 3 Note Off - Duracao: 187620 Nota: C1 Vol.: 71
Chanel 3 Note On - Duracao: 187620 Nota: C1 Vol.: 70
Chanel 2 Note Off - Duracao: 187800 Nota: C1 Vol.: 54
Chanel 2 Note On - Duracao: 187800 Nota: C1 Vol.: 61
Chanel 4 Note Off - Duracao: 187920 Nota: C1 Vol.: 53
Chanel 4 Note On - Duracao: 187920 Nota: C1 Vol.: 47
Chanel 7 Note Off - Duracao: 188040 Nota: C1 Vol.: 65
Chanel 7 Note On - Duracao: 188040 Nota: C1 Vol.: 80
Chanel 3 Note Off - Duracao: 188100 Nota: C1 Vol.: 70
Chanel 3 Note On - Duracao: 188100 Nota: C1 Vol.: 48
Chanel 5 Note Off - Duracao: 188280 Nota: C1 Vol.: 52
Chanel 5 Note On - Duracao: 188280 Nota: C1 Vol.: 63
Chanel 7 Note Off - Duracao: 188520 Nota: C1 Vol.: 80
Chanel 7 Note On - Duracao: 188520 Nota: C1 Vol.: 100
Chanel 7 Note Off - Duracao: 188640 Nota: C1 Vol.: 100
Chanel 7 Note On - Duracao: 188640 Nota: C1 Vol.: 98
Chanel 2 Note Off - Duracao: 188760 Nota: C1 Vol.: 61
Chanel 2 Note On - Duracao: 188760 Nota: C1 Vol.: 58
Chanel 5 Note Off - Duracao: 188760 Nota: C1 Vol.: 63
Chanel 5 Note On - Duracao: 188760 Nota: C1 Vol.: 50
Chanel 7 Note Off - Duracao: 188760 Nota: C1 Vol.: 98
Chanel 7 Note On - Duracao: 188760 Nota: C1 Vol.: 84
Chanel 7 Note Off - Duracao: 189000 Nota: C1 Vol.: 84
Chanel 7 Note On - Duracao: 189000 Nota: C1 Vol.: 58
Chanel 9 Note Off - Duracao: 189000 Nota: C1 Vol.: 50
Chanel 9 Note On - Duracao: 189000 Nota: C1 Vol.: 65
Chanel 3 Note Off - Duracao: 189060 Nota: C1 Vol.: 48
Chanel 3 Note On - Duracao: 189060 Nota: C1 Vol.: 80
Chanel 3 Note Off - Duracao: 189180 Nota: C1 Vol.: 80
Chanel 3 Note On - Duracao: 189180 Nota: C1 Vol.: 61
Chanel 6 Note Off - Duracao: 189360 Nota: C1 Vol.: 40
Chanel 6 Note On - Duracao: 189360 Nota: C1 Vol.: 62
Chanel 1 Note Off - Duracao: 189480 Nota: C1 Vol.: 46
Chanel 1 Note On - Duracao: 189480 Nota: C1 Vol.: 57
Chanel 3 Note Off - Duracao: 189660 Nota: C1 Vol.: 61
Chanel 3 Note On - Duracao: 189660 Nota: C1 Vol.: 47
Chanel 2 Note Off - Duracao: 189720 Nota: C1 Vol.: 58
Chanel 2 Note On - Duracao: 189720 Nota: C1 Vol.: 52
Chanel 4 Note Off - Duracao: 189840 Nota: C1 Vol.: 47
Chanel 4 Note On - Duracao: 189840 Nota: C1 Vol.: 59
Chanel 4 Note Off - Duracao: 190320 Nota: C1 Vol.: 59
Chanel 4 Note On - Duracao: 190320 Nota: C1 Vol.: 83
Chanel 8 Note Off - Duracao: 190320 Nota: C1 Vol.: 44
Chanel 8 Note On - Duracao: 190320 Nota: C1 Vol.: 43
Chanel 1 Note Off - Duracao: 190440 Nota: C1 Vol.: 57
Chanel 1 Note On - Duracao: 190440 Nota: C1 Vol.: 48
Chanel 4 Note Off - Duracao: 190440 Nota: C1 Vol.: 83
Chanel 4 Note On - Duracao: 190440 Nota: C1 Vol.: 93
Chanel 4 Note Off - Duracao: 190500 Nota: C1 Vol.: 93
Chanel 4 Note On - Duracao: 190500 Nota: C1 Vol.: 63
Chanel 5 Note Off - Duracao: 190680 Nota: C1 Vol.: 50
Chanel 5 Note On - Duracao: 190680 Nota: C1 Vol.: 52
Chanel 7 Note Off - Duracao: 190920 Nota: C1 Vol.: 58
Chanel 7 Note On - Duracao: 190920 Nota: C1 Vol.: 47
Chanel 9 Note Off - Duracao: 190920 Nota: C1 Vol.: 65
Chanel 9 Note On - Duracao: 190920 Nota: C1 Vol.: 75
Chanel 4 Note Off - Duracao: 190980 Nota: C1 Vol.: 63
Chanel 4 Note On - Duracao: 190980 Nota: C1 Vol.: 83
Chanel 4 Note Off - Duracao: 191100 Nota: C1 Vol.: 83
Chanel 4 Note On - Duracao: 191100 Nota: C1 Vol.: 67
Chanel 6 Note Off - Duracao: 191280 Nota: C1 Vol.: 62
Chanel 6 Note On - Duracao: 191280 Nota: C1 Vol.: 57
Chanel 3 Note Off - Duracao: 191580 Nota: C1 Vol.: 47
Chanel 3 Note On - Duracao: 191580 Nota: C1 Vol.: 53
Chanel 4 Note Off - Duracao: 191580 Nota: C1 Vol.: 67
Chanel 4 Note On - Duracao: 191580 Nota: C1 Vol.: 64
Chanel 2 Note Off - Duracao: 191640 Nota: C1 Vol.: 52
Chanel 2 Note On - Duracao: 191640 Nota: C1 Vol.: 54
Chanel 9 Note Off - Duracao: 191880 Nota: C1 Vol.: 75
Chanel 9 Note On - Duracao: 191880 Nota: C1 Vol.: 62
Chanel 4 Note Off - Duracao: 192060 Nota: C1 Vol.: 64
Chanel 4 Note On - Duracao: 192060 Nota: C1 Vol.: 81
Chanel 4 Note Off - Duracao: 192180 Nota: C1 Vol.: 81
Chanel 4 Note On - Duracao: 192180 Nota: C1 Vol.: 62
Chanel 1 Note Off - Duracao: 192360 Nota: C1 Vol.: 48
Chanel 1 Note On - Duracao: 192360 Nota: C1 Vol.: 50
Chanel 3 Note Off - Duracao: 192540 Nota: C1 Vol.: 53
Chanel 3 Note On - Duracao: 192540 Nota: C1 Vol.: 89
Chanel 5 Note Off - Duracao: 192600 Nota: C1 Vol.: 52
Chanel 5 Note On - Duracao: 192600 Nota: C1 Vol.: 54
Chanel 3 Note Off - Duracao: 192660 Nota: C1 Vol.: 89
Chanel 3 Note On - Duracao: 192660 Nota: C1 Vol.: 66
Chanel 4 Note Off - Duracao: 192660 Nota: C1 Vol.: 62
Chanel 4 Note On - Duracao: 192660 Nota: C1 Vol.: 62
Chanel 3 Note Off - Duracao: 193140 Nota: C1 Vol.: 66
Chanel 3 Note On - Duracao: 193140 Nota: C1 Vol.: 60
Chanel 4 Note Off - Duracao: 193140 Nota: C1 Vol.: 62
Chanel 4 Note On - Duracao: 193140 Nota: C1 Vol.: 53
Chanel 6 Note Off - Duracao: 193200 Nota: C1 Vol.: 57
Chanel 6 Note On - Duracao: 193200 Nota: C1 Vol.: 53
Chanel 1 Note Off - Duracao: 193320 Nota: C1 Vol.: 50
Chanel 1 Note On - Duracao: 193320 Nota: C1 Vol.: 75
Chanel 1 Note Off - Duracao: 193560 Nota: C1 Vol.: 75
Chanel 1 Note On - Duracao: 193560 Nota: C1 Vol.: 89
Chanel 2 Note Off - Duracao: 193560 Nota: C1 Vol.: 54
Chanel 2 Note On - Duracao: 193560 Nota: C1 Vol.: 51
Chanel 3 Note Off - Duracao: 193620 Nota: C1 Vol.: 60
Chanel 3 Note On - Duracao: 193620 Nota: C1 Vol.: 61
Chanel 1 Note Off - Duracao: 193680 Nota: C1 Vol.: 89
Chanel 1 Note On - Duracao: 193680 Nota: C1 Vol.: 58
Chanel 3 Note Off - Duracao: 194100 Nota: C1 Vol.: 61
Chanel 3 Note On - Duracao: 194100 Nota: C1 Vol.: 67
Chanel 4 Note Off - Duracao: 194100 Nota: C1 Vol.: 53
Chanel 4 Note On - Duracao: 194100 Nota: C1 Vol.: 51
Chanel 8 Note Off - Duracao: 194160 Nota: C1 Vol.: 43
Chanel 8 Note On - Duracao: 194160 Nota: C1 Vol.: 42
Chanel 3 Note Off - Duracao: 194340 Nota: C1 Vol.: 67
Chanel 3 Note On - Duracao: 194340 Nota: C1 Vol.: 70
Chanel 5 Note Off - Duracao: 194520 Nota: C1 Vol.: 54
Chanel 5 Note On - Duracao: 194520 Nota: C1 Vol.: 53
Chanel 3 Note Off - Duracao: 194580 Nota: C1 Vol.: 70
Chanel 3 Note On - Duracao: 194580 Nota: C1 Vol.: 64
Chanel 1 Note Off - Duracao: 194640 Nota: C1 Vol.: 58
Chanel 1 Note On - Duracao: 194640 Nota: C1 Vol.: 58
Chanel 7 Note Off - Duracao: 194760 Nota: C1 Vol.: 47
Chanel 7 Note On - Duracao: 194760 Nota: C1 Vol.: 47
Chanel 3 Note Off - Duracao: 195060 Nota: C1 Vol.: 64
Chanel 3 Note On - Duracao: 195060 Nota: C1 Vol.: 61
Chanel 6 Note Off - Duracao: 195120 Nota: C1 Vol.: 53
Chanel 6 Note On - Duracao: 195120 Nota: C1 Vol.: 46
Chanel 2 Note Off - Duracao: 195480 Nota: C1 Vol.: 51
Chanel 2 Note On - Duracao: 195480 Nota: C1 Vol.: 65
Chanel 3 Note Off - Duracao: 195540 Nota: C1 Vol.: 61
Chanel 3 Note On - Duracao: 195540 Nota: C1 Vol.: 76
Chanel 1 Note Off - Duracao: 195600 Nota: C1 Vol.: 58
Chanel 1 Note On - Duracao: 195600 Nota: C1 Vol.: 54
Chanel 9 Note Off - Duracao: 195720 Nota: C1 Vol.: 62
Chanel 9 Note On - Duracao: 195720 Nota: C1 Vol.: 72
Chanel 3 Note Off - Duracao: 195780 Nota: C1 Vol.: 76
Chanel 3 Note On - Duracao: 195780 Nota: C1 Vol.: 72
Chanel 2 Note Off - Duracao: 195960 Nota: C1 Vol.: 65
Chanel 2 Note On - Duracao: 195960 Nota: C1 Vol.: 56
Chanel 3 Note Off - Duracao: 196020 Nota: C1 Vol.: 72
Chanel 3 Note On - Duracao: 196020 Nota: C1 Vol.: 54
Chanel 4 Note Off - Duracao: 196020 Nota: C1 Vol.: 51
Chanel 4 Note On - Duracao: 196020 Nota: C1 Vol.: 51
Chanel 5 Note Off - Duracao: 196440 Nota: C1 Vol.: 53
Chanel 5 Note On - Duracao: 196440 Nota: C1 Vol.: 50
Chanel 1 Note Off - Duracao: 196560 Nota: C1 Vol.: 54
Chanel 1 Note On - Duracao: 196560 Nota: C1 Vol.: 56
Chanel 2 Note Off - Duracao: 196920 Nota: C1 Vol.: 56
Chanel 2 Note On - Duracao: 196920 Nota: C1 Vol.: 54
Chanel 3 Note Off - Duracao: 196980 Nota: C1 Vol.: 54
Chanel 3 Note On - Duracao: 196980 Nota: C1 Vol.: 45
Chanel 6 Note Off - Duracao: 197040 Nota: C1 Vol.: 46
Chanel 6 Note On - Duracao: 197040 Nota: C1 Vol.: 57
Chanel 1 Note Off - Duracao: 197520 Nota: C1 Vol.: 56
Chanel 1 Note On - Duracao: 197520 Nota: C1 Vol.: 53
Chanel 6 Note Off - Duracao: 197520 Nota: C1 Vol.: 57
Chanel 6 Note On - Duracao: 197520 Nota: C1 Vol.: 53
Chanel 9 Note Off - Duracao: 197640 Nota: C1 Vol.: 72
Chanel 9 Note On - Duracao: 197640 Nota: C1 Vol.: 79
Chanel 2 Note Off - Duracao: 197880 Nota: C1 Vol.: 54
Chanel 2 Note On - Duracao: 197880 Nota: C1 Vol.: 52
Chanel 3 Note Off - Duracao: 197940 Nota: C1 Vol.: 45
Chanel 3 Note On - Duracao: 197940 Nota: C1 Vol.: 66
Chanel 4 Note Off - Duracao: 197940 Nota: C1 Vol.: 51
Chanel 4 Note On - Duracao: 197940 Nota: C1 Vol.: 50
Chanel 6 Note Off - Duracao: 198000 Nota: C1 Vol.: 53
Chanel 6 Note On - Duracao: 198000 Nota: C1 Vol.: 53
Chanel 8 Note Off - Duracao: 198000 Nota: C1 Vol.: 42
Chanel 8 Note On - Duracao: 198000 Nota: C1 Vol.: 44
Chanel 3 Note Off - Duracao: 198180 Nota: C1 Vol.: 66
Chanel 3 Note On - Duracao: 198180 Nota: C1 Vol.: 81
Chanel 3 Note Off - Duracao: 198300 Nota: C1 Vol.: 81
Chanel 3 Note On - Duracao: 198300 Nota: C1 Vol.: 85
Chanel 3 Note Off - Duracao: 198420 Nota: C1 Vol.: 85
Chanel 3 Note On - Duracao: 198420 Nota: C1 Vol.: 64
Chanel 1 Note Off - Duracao: 198480 Nota: C1 Vol.: 53
Chanel 1 Note On - Duracao: 198480 Nota: C1 Vol.: 49
Chanel 7 Note Off - Duracao: 198600 Nota: C1 Vol.: 47
Chanel 7 Note On - Duracao: 198600 Nota: C1 Vol.: 46
Chanel 3 Note Off - Duracao: 198660 Nota: C1 Vol.: 64
Chanel 3 Note On - Duracao: 198660 Nota: C1 Vol.: 51
Chanel 1 Note Off - Duracao: 198960 Nota: C1 Vol.: 49
Chanel 1 Note On - Duracao: 198960 Nota: C1 Vol.: 65
Chanel 6 Note Off - Duracao: 198960 Nota: C1 Vol.: 53
Chanel 6 Note On - Duracao: 198960 Nota: C1 Vol.: 47
Chanel 1 Note Off - Duracao: 199080 Nota: C1 Vol.: 65
Chanel 1 Note On - Duracao: 199080 Nota: C1 Vol.: 61
Chanel 3 Note Off - Duracao: 199140 Nota: C1 Vol.: 51
Chanel 3 Note On - Duracao: 199140 Nota: C1 Vol.: 64
Chanel 1 Note Off - Duracao: 199200 Nota: C1 Vol.: 61
Chanel 1 Note On - Duracao: 199200 Nota: C1 Vol.: 60
Chanel 1 Note Off - Duracao: 199320 Nota: C1 Vol.: 60
Chanel 1 Note On - Duracao: 199320 Nota: C1 Vol.: 62
Chanel 1 Note Off - Duracao: 199440 Nota: C1 Vol.: 62
Chanel 1 Note On - Duracao: 199440 Nota: C1 Vol.: 66
Chanel 1 Note Off - Duracao: 199560 Nota: C1 Vol.: 66
Chanel 1 Note On - Duracao: 199560 Nota: C1 Vol.: 63
Chanel 9 Note Off - Duracao: 199560 Nota: C1 Vol.: 79
Chanel 9 Note On - Duracao: 199560 Nota: C1 Vol.: 80
Chanel 3 Note Off - Duracao: 199620 Nota: C1 Vol.: 64
Chanel 3 Note On - Duracao: 199620 Nota: C1 Vol.: 92
Chanel 3 Note Off - Duracao: 199740 Nota: C1 Vol.: 92
Chanel 3 Note On - Duracao: 199740 Nota: C1 Vol.: 100
Chanel 1 Note Off - Duracao: 199800 Nota: C1 Vol.: 63
Chanel 1 Note On - Duracao: 199800 Nota: C1 Vol.: 76
Chanel 2 Note Off - Duracao: 199800 Nota: C1 Vol.: 52
Chanel 2 Note On - Duracao: 199800 Nota: C1 Vol.: 65
Chanel 3 Note Off - Duracao: 199860 Nota: C1 Vol.: 100
Chanel 3 Note On - Duracao: 199860 Nota: C1 Vol.: 74
Chanel 4 Note Off - Duracao: 199860 Nota: C1 Vol.: 50
Chanel 4 Note On - Duracao: 199860 Nota: C1 Vol.: 70
Chanel 1 Note Off - Duracao: 199920 Nota: C1 Vol.: 76
Chanel 1 Note On - Duracao: 199920 Nota: C1 Vol.: 64
Chanel 8 Note Off - Duracao: 199920 Nota: C1 Vol.: 44
Chanel 8 Note On - Duracao: 199920 Nota: C1 Vol.: 46
Chanel 1 Note Off - Duracao: 200160 Nota: C1 Vol.: 64
Chanel 1 Note On - Duracao: 200160 Nota: C1 Vol.: 66
Chanel 2 Note Off - Duracao: 200280 Nota: C1 Vol.: 65
Chanel 2 Note On - Duracao: 200280 Nota: C1 Vol.: 62
Chanel 5 Note Off - Duracao: 200280 Nota: C1 Vol.: 50
Chanel 5 Note On - Duracao: 200280 Nota: C1 Vol.: 52
Chanel 4 Note Off - Duracao: 200340 Nota: C1 Vol.: 70
Chanel 4 Note On - Duracao: 200340 Nota: C1 Vol.: 93
Chanel 1 Note Off - Duracao: 200400 Nota: C1 Vol.: 66
Chanel 1 Note On - Duracao: 200400 Nota: C1 Vol.: 58
Chanel 4 Note Off - Duracao: 200460 Nota: C1 Vol.: 93
Chanel 4 Note On - Duracao: 200460 Nota: C1 Vol.: 98
Chanel 4 Note Off - Duracao: 200580 Nota: C1 Vol.: 98
Chanel 4 Note On - Duracao: 200580 Nota: C1 Vol.: 89
Chanel 2 Note Off - Duracao: 200760 Nota: C1 Vol.: 62
Chanel 2 Note On - Duracao: 200760 Nota: C1 Vol.: 50
Chanel 3 Note Off - Duracao: 200820 Nota: C1 Vol.: 74
Chanel 3 Note On - Duracao: 200820 Nota: C1 Vol.: 91
Chanel 1 Note Off - Duracao: 200880 Nota: C1 Vol.: 58
Chanel 1 Note On - Duracao: 200880 Nota: C1 Vol.: 63
Chanel 6 Note Off - Duracao: 200880 Nota: C1 Vol.: 47
Chanel 6 Note On - Duracao: 200880 Nota: C1 Vol.: 66
Chanel 3 Note Off - Duracao: 201060 Nota: C1 Vol.: 91
Chanel 3 Note On - Duracao: 201060 Nota: C1 Vol.: 100
Chanel 4 Note Off - Duracao: 201060 Nota: C1 Vol.: 89
Chanel 4 Note On - Duracao: 201060 Nota: C1 Vol.: 77
Chanel 1 Note Off - Duracao: 201120 Nota: C1 Vol.: 63
Chanel 1 Note On - Duracao: 201120 Nota: C1 Vol.: 54
Chanel 3 Note Off - Duracao: 201120 Nota: C1 Vol.: 100
Chanel 3 Note On - Duracao: 201120 Nota: C1 Vol.: 79
Chanel 3 Note Off - Duracao: 201360 Nota: C1 Vol.: 79
Chanel 3 Note On - Duracao: 201360 Nota: C1 Vol.: 64
Chanel 9 Note Off - Duracao: 201480 Nota: C1 Vol.: 80
Chanel 9 Note On - Duracao: 201480 Nota: C1 Vol.: 74
Chanel 1 Note Off - Duracao: 201600 Nota: C1 Vol.: 54
Chanel 1 Note On - Duracao: 201600 Nota: C1 Vol.: 60
Chanel 2 Note Off - Duracao: 201720 Nota: C1 Vol.: 50
Chanel 2 Note On - Duracao: 201720 Nota: C1 Vol.: 49
Chanel 1 Note Off - Duracao: 201840 Nota: C1 Vol.: 60
Chanel 1 Note On - Duracao: 201840 Nota: C1 Vol.: 60
Chanel 3 Note Off - Duracao: 201840 Nota: C1 Vol.: 64
Chanel 3 Note On - Duracao: 201840 Nota: C1 Vol.: 57
Chanel 6 Note Off - Duracao: 201840 Nota: C1 Vol.: 66
Chanel 6 Note On - Duracao: 201840 Nota: C1 Vol.: 97
Chanel 1 Note Off - Duracao: 201960 Nota: C1 Vol.: 60
Chanel 1 Note On - Duracao: 201960 Nota: C1 Vol.: 58
Chanel 6 Note Off - Duracao: 201960 Nota: C1 Vol.: 97
Chanel 6 Note On - Duracao: 201960 Nota: C1 Vol.: 92
Chanel 1 Note Off - Duracao: 202020 Nota: C1 Vol.: 58
Chanel 1 Note On - Duracao: 202020 Nota: C1 Vol.: 63
Chanel 4 Note Off - Duracao: 202020 Nota: C1 Vol.: 77
Chanel 4 Note On - Duracao: 202020 Nota: C1 Vol.: 100
Chanel 1 Note Off - Duracao: 202080 Nota: C1 Vol.: 63
Chanel 1 Note On - Duracao: 202080 Nota: C1 Vol.: 62
Chanel 6 Note Off - Duracao: 202080 Nota: C1 Vol.: 92
Chanel 6 Note On - Duracao: 202080 Nota: C1 Vol.: 91
Chanel 4 Note Off - Duracao: 202140 Nota: C1 Vol.: 100
Chanel 4 Note On - Duracao: 202140 Nota: C1 Vol.: 100
Chanel 1 Note Off - Duracao: 202200 Nota: C1 Vol.: 62
Chanel 1 Note On - Duracao: 202200 Nota: C1 Vol.: 58
Chanel 4 Note Off - Duracao: 202200 Nota: C1 Vol.: 100
Chanel 4 Note On - Duracao: 202200 Nota: C1 Vol.: 99
Chanel 6 Note Off - Duracao: 202200 Nota: C1 Vol.: 91
Chanel 6 Note On - Duracao: 202200 Nota: C1 Vol.: 67
Chanel 4 Note Off - Duracao: 202320 Nota: C1 Vol.: 99
Chanel 4 Note On - Duracao: 202320 Nota: C1 Vol.: 76
Chanel 7 Note Off - Duracao: 202440 Nota: C1 Vol.: 46
Chanel 7 Note On - Duracao: 202440 Nota: C1 Vol.: 49
Chanel 1 Note Off - Duracao: 202680 Nota: C1 Vol.: 58
Chanel 1 Note On - Duracao: 202680 Nota: C1 Vol.: 51
Chanel 2 Note Off - Duracao: 202680 Nota: C1 Vol.: 49
Chanel 2 Note On - Duracao: 202680 Nota: C1 Vol.: 58
Chanel 6 Note Off - Duracao: 202680 Nota: C1 Vol.: 67
Chanel 6 Note On - Duracao: 202680 Nota: C1 Vol.: 46
Chanel 3 Note Off - Duracao: 202800 Nota: C1 Vol.: 57
Chanel 3 Note On - Duracao: 202800 Nota: C1 Vol.: 54
Chanel 4 Note Off - Duracao: 202800 Nota: C1 Vol.: 76
Chanel 4 Note On - Duracao: 202800 Nota: C1 Vol.: 47
Chanel 2 Note Off - Duracao: 202920 Nota: C1 Vol.: 58
Chanel 2 Note On - Duracao: 202920 Nota: C1 Vol.: 71
Chanel 2 Note Off - Duracao: 202980 Nota: C1 Vol.: 71
Chanel 2 Note On - Duracao: 202980 Nota: C1 Vol.: 73
Chanel 2 Note Off - Duracao: 203040 Nota: C1 Vol.: 73
Chanel 2 Note On - Duracao: 203040 Nota: C1 Vol.: 62
Chanel 2 Note Off - Duracao: 203280 Nota: C1 Vol.: 62
Chanel 2 Note On - Duracao: 203280 Nota: C1 Vol.: 44
Chanel 9 Note Off - Duracao: 203400 Nota: C1 Vol.: 74
Chanel 9 Note On - Duracao: 203400 Nota: C1 Vol.: 58
Chanel 1 Note Off - Duracao: 203640 Nota: C1 Vol.: 51
Chanel 1 Note On - Duracao: 203640 Nota: C1 Vol.: 49
Chanel 6 Note Off - Duracao: 203640 Nota: C1 Vol.: 46
Chanel 6 Note On - Duracao: 203640 Nota: C1 Vol.: 53
Chanel 3 Note Off - Duracao: 203760 Nota: C1 Vol.: 54
Chanel 3 Note On - Duracao: 203760 Nota: C1 Vol.: 59
Chanel 8 Note Off - Duracao: 203760 Nota: C1 Vol.: 46
Chanel 8 Note On - Duracao: 203760 Nota: C1 Vol.: 45
Chanel 5 Note Off - Duracao: 204120 Nota: C1 Vol.: 52
Chanel 5 Note On - Duracao: 204120 Nota: C1 Vol.: 49
Chanel 6 Note Off - Duracao: 204120 Nota: C1 Vol.: 53
Chanel 6 Note On - Duracao: 204120 Nota: C1 Vol.: 44
Chanel 2 Note Off - Duracao: 204240 Nota: C1 Vol.: 44
Chanel 2 Note On - Duracao: 204240 Nota: C1 Vol.: 62
Chanel 2 Note Off - Duracao: 204720 Nota: C1 Vol.: 62
Chanel 2 Note On - Duracao: 204720 Nota: C1 Vol.: 68
Chanel 3 Note Off - Duracao: 204720 Nota: C1 Vol.: 59
Chanel 3 Note On - Duracao: 204720 Nota: C1 Vol.: 41
Chanel 6 Note Off - Duracao: 205080 Nota: C1 Vol.: 44
Chanel 6 Note On - Duracao: 205080 Nota: C1 Vol.: 40
Chanel 2 Note Off - Duracao: 205200 Nota: C1 Vol.: 68
Chanel 2 Note On - Duracao: 205200 Nota: C1 Vol.: 76
Chanel 9 Note Off - Duracao: 205320 Nota: C1 Vol.: 58
Chanel 9 Note On - Duracao: 205320 Nota: C1 Vol.: 45
Chanel 1 Note Off - Duracao: 205560 Nota: C1 Vol.: 49
Chanel 1 Note On - Duracao: 205560 Nota: C1 Vol.: 51
Chanel 2 Note Off - Duracao: 205680 Nota: C1 Vol.: 76
Chanel 2 Note On - Duracao: 205680 Nota: C1 Vol.: 100
Chanel 2 Note Off - Duracao: 205800 Nota: C1 Vol.: 100
Chanel 2 Note On - Duracao: 205800 Nota: C1 Vol.: 100
Chanel 2 Note Off - Duracao: 205920 Nota: C1 Vol.: 100
Chanel 2 Note On - Duracao: 205920 Nota: C1 Vol.: 94
Chanel 2 Note Off - Duracao: 206160 Nota: C1 Vol.: 94
Chanel 2 Note On - Duracao: 206160 Nota: C1 Vol.: 73
Chanel 7 Note Off - Duracao: 206280 Nota: C1 Vol.: 49
Chanel 7 Note On - Duracao: 206280 Nota: C1 Vol.: 50
Chanel 4 Note Off - Duracao: 206640 Nota: C1 Vol.: 47
Chanel 4 Note On - Duracao: 206640 Nota: C1 Vol.: 45
Chanel 6 Note Off - Duracao: 207000 Nota: C1 Vol.: 40
Chanel 6 Note On - Duracao: 207000 Nota: C1 Vol.: 40
Chanel 2 Note Off - Duracao: 207120 Nota: C1 Vol.: 73
Chanel 2 Note On - Duracao: 207120 Nota: C1 Vol.: 87
Chanel 9 Note Off - Duracao: 207240 Nota: C1 Vol.: 45
Chanel 9 Note On - Duracao: 207240 Nota: C1 Vol.: 44
Chanel 1 Note Off - Duracao: 207480 Nota: C1 Vol.: 51
Chanel 1 Note On - Duracao: 207480 Nota: C1 Vol.: 50
Chanel 2 Note Off - Duracao: 207600 Nota: C1 Vol.: 87
Chanel 2 Note On - Duracao: 207600 Nota: C1 Vol.: 79
Chanel 8 Note Off - Duracao: 207600 Nota: C1 Vol.: 45
Chanel 8 Note On - Duracao: 207600 Nota: C1 Vol.: 41
Chanel 5 Note Off - Duracao: 207960 Nota: C1 Vol.: 49
Chanel 5 Note On - Duracao: 207960 Nota: C1 Vol.: 47
Chanel 2 Note Off - Duracao: 208080 Nota: C1 Vol.: 79
Chanel 2 Note On - Duracao: 208080 Nota: C1 Vol.: 49
Chanel 7 Note Off - Duracao: 208200 Nota: C1 Vol.: 50
Chanel 7 Note On - Duracao: 208200 Nota: C1 Vol.: 54
Chanel 3 Note Off - Duracao: 208560 Nota: C1 Vol.: 41
Chanel 3 Note On - Duracao: 208560 Nota: C1 Vol.: 40
Chanel 6 Note Off - Duracao: 208920 Nota: C1 Vol.: 40
Chanel 6 Note On - Duracao: 208920 Nota: C1 Vol.: 41
Chanel 1 Note Off - Duracao: 209400 Nota: C1 Vol.: 50
Chanel 1 Note On - Duracao: 209400 Nota: C1 Vol.: 51
Chanel 2 Note Off - Duracao: 210000 Nota: C1 Vol.: 49
Chanel 2 Note On - Duracao: 210000 Nota: C1 Vol.: 44
Chanel 7 Note Off - Duracao: 210120 Nota: C1 Vol.: 54
Chanel 7 Note On - Duracao: 210120 Nota: C1 Vol.: 41
Chanel 4 Note Off - Duracao: 210480 Nota: C1 Vol.: 45
Chanel 4 Note On - Duracao: 210480 Nota: C1 Vol.: 43
Chanel 6 Note Off - Duracao: 210840 Nota: C1 Vol.: 41
Chanel 6 Note On - Duracao: 210840 Nota: C1 Vol.: 40
Chanel 2 Note Off - Duracao: 210960 Nota: C1 Vol.: 44
Chanel 2 Note On - Duracao: 210960 Nota: C1 Vol.: 63
Chanel 2 Note Off - Duracao: 211020 Nota: C1 Vol.: 63
Chanel 2 Note On - Duracao: 211020 Nota: C1 Vol.: 57
Chanel 9 Note Off - Duracao: 211080 Nota: C1 Vol.: 44
Chanel 9 Note On - Duracao: 211080 Nota: C1 Vol.: 42
Chanel 2 Note Off - Duracao: 211140 Nota: C1 Vol.: 57
Chanel 2 Note On - Duracao: 211140 Nota: C1 Vol.: 54
Chanel 1 Note Off - Duracao: 211320 Nota: C1 Vol.: 51
Chanel 1 Note On - Duracao: 211320 Nota: C1 Vol.: 52
Chanel 2 Note Off - Duracao: 211380 Nota: C1 Vol.: 54
Chanel 2 Note On - Duracao: 211380 Nota: C1 Vol.: 43
Chanel 8 Note Off - Duracao: 211440 Nota: C1 Vol.: 41
Chanel 8 Note On - Duracao: 211440 Nota: C1 Vol.: 40
Chanel 5 Note Off - Duracao: 211800 Nota: C1 Vol.: 47
Chanel 5 Note On - Duracao: 211800 Nota: C1 Vol.: 49
Chanel 2 Note Off - Duracao: 212340 Nota: C1 Vol.: 43
Chanel 2 Note On - Duracao: 212340 Nota: C1 Vol.: 47
Chanel 3 Note Off - Duracao: 212400 Nota: C1 Vol.: 40
Chanel 3 Note On - Duracao: 212400 Nota: C1 Vol.: 40
Chanel 6 Note Off - Duracao: 212760 Nota: C1 Vol.: 40
Chanel 6 Note On - Duracao: 212760 Nota: C1 Vol.: 41
Chanel 1 Note Off - Duracao: 213240 Nota: C1 Vol.: 52
Chanel 1 Note On - Duracao: 213240 Nota: C1 Vol.: 54
Chanel 7 Note Off - Duracao: 213960 Nota: C1 Vol.: 41
Chanel 7 Note On - Duracao: 213960 Nota: C1 Vol.: 46
Chanel 2 Note Off - Duracao: 214260 Nota: C1 Vol.: 47
Chanel 2 Note On - Duracao: 214260 Nota: C1 Vol.: 50
Chanel 4 Note Off - Duracao: 214320 Nota: C1 Vol.: 43
Chanel 4 Note On - Duracao: 214320 Nota: C1 Vol.: 48
Chanel 6 Note Off - Duracao: 214680 Nota: C1 Vol.: 41
Chanel 6 Note On - Duracao: 214680 Nota: C1 Vol.: 42
Chanel 9 Note Off - Duracao: 214920 Nota: C1 Vol.: 42
Chanel 9 Note On - Duracao: 214920 Nota: C1 Vol.: 41
Chanel 1 Note Off - Duracao: 215160 Nota: C1 Vol.: 54
Chanel 1 Note On - Duracao: 215160 Nota: C1 Vol.: 56
Chanel 8 Note Off - Duracao: 215280 Nota: C1 Vol.: 40
Chanel 8 Note On - Duracao: 215280 Nota: C1 Vol.: 41
Chanel 5 Note Off - Duracao: 215640 Nota: C1 Vol.: 49
Chanel 5 Note On - Duracao: 215640 Nota: C1 Vol.: 41
Chanel 2 Note Off - Duracao: 216180 Nota: C1 Vol.: 50
Chanel 2 Note On - Duracao: 216180 Nota: C1 Vol.: 50
Chanel 3 Note Off - Duracao: 216240 Nota: C1 Vol.: 40
Chanel 3 Note On - Duracao: 216240 Nota: C1 Vol.: 61
Chanel 6 Note Off - Duracao: 216600 Nota: C1 Vol.: 42
Chanel 6 Note On - Duracao: 216600 Nota: C1 Vol.: 41
Chanel 9 Note Off - Duracao: 216840 Nota: C1 Vol.: 41
Chanel 9 Note On - Duracao: 216840 Nota: C1 Vol.: 47
Chanel 1 Note Off - Duracao: 217080 Nota: C1 Vol.: 56
Chanel 1 Note On - Duracao: 217080 Nota: C1 Vol.: 55
Chanel 3 Note Off - Duracao: 217200 Nota: C1 Vol.: 61
Chanel 3 Note On - Duracao: 217200 Nota: C1 Vol.: 60
Chanel 8 Note Off - Duracao: 217200 Nota: C1 Vol.: 41
Chanel 8 Note On - Duracao: 217200 Nota: C1 Vol.: 48
Chanel 7 Note Off - Duracao: 217800 Nota: C1 Vol.: 46
Chanel 7 Note On - Duracao: 217800 Nota: C1 Vol.: 45
Chanel 2 Note Off - Duracao: 218100 Nota: C1 Vol.: 50
Chanel 2 Note On - Duracao: 218100 Nota: C1 Vol.: 53
Chanel 3 Note Off - Duracao: 218160 Nota: C1 Vol.: 60
Chanel 3 Note On - Duracao: 218160 Nota: C1 Vol.: 58
Chanel 4 Note Off - Duracao: 218160 Nota: C1 Vol.: 48
Chanel 4 Note On - Duracao: 218160 Nota: C1 Vol.: 48
Chanel 8 Note Off - Duracao: 218160 Nota: C1 Vol.: 48
Chanel 8 Note On - Duracao: 218160 Nota: C1 Vol.: 52
Chanel 6 Note Off - Duracao: 218520 Nota: C1 Vol.: 41
Chanel 6 Note On - Duracao: 218520 Nota: C1 Vol.: 49
Chanel 9 Note Off - Duracao: 218760 Nota: C1 Vol.: 47
Chanel 9 Note On - Duracao: 218760 Nota: C1 Vol.: 40
Chanel 1 Note Off - Duracao: 219000 Nota: C1 Vol.: 55
Chanel 1 Note On - Duracao: 219000 Nota: C1 Vol.: 52
Chanel 3 Note Off - Duracao: 219120 Nota: C1 Vol.: 58
Chanel 3 Note On - Duracao: 219120 Nota: C1 Vol.: 66
Chanel 8 Note Off - Duracao: 219120 Nota: C1 Vol.: 52
Chanel 8 Note On - Duracao: 219120 Nota: C1 Vol.: 65
Chanel 5 Note Off - Duracao: 219480 Nota: C1 Vol.: 41
Chanel 5 Note On - Duracao: 219480 Nota: C1 Vol.: 46
Chanel 8 Note Off - Duracao: 219600 Nota: C1 Vol.: 65
Chanel 8 Note On - Duracao: 219600 Nota: C1 Vol.: 87
Chanel 8 Note Off - Duracao: 219840 Nota: C1 Vol.: 87
Chanel 8 Note On - Duracao: 219840 Nota: C1 Vol.: 99
Chanel 8 Note Off - Duracao: 219960 Nota: C1 Vol.: 99
Chanel 8 Note On - Duracao: 219960 Nota: C1 Vol.: 100
Chanel 2 Note Off - Duracao: 220020 Nota: C1 Vol.: 53
Chanel 2 Note On - Duracao: 220020 Nota: C1 Vol.: 57
Chanel 3 Note Off - Duracao: 220080 Nota: C1 Vol.: 66
Chanel 3 Note On - Duracao: 220080 Nota: C1 Vol.: 77
Chanel 8 Note Off - Duracao: 220080 Nota: C1 Vol.: 100
Chanel 8 Note On - Duracao: 220080 Nota: C1 Vol.: 79
Chanel 6 Note Off - Duracao: 220440 Nota: C1 Vol.: 49
Chanel 6 Note On - Duracao: 220440 Nota: C1 Vol.: 49
Chanel 3 Note Off - Duracao: 220560 Nota: C1 Vol.: 77
Chanel 3 Note On - Duracao: 220560 Nota: C1 Vol.: 81
Chanel 1 Note Off - Duracao: 220920 Nota: C1 Vol.: 52
Chanel 1 Note On - Duracao: 220920 Nota: C1 Vol.: 48
Chanel 3 Note Off - Duracao: 221040 Nota: C1 Vol.: 81
Chanel 3 Note On - Duracao: 221040 Nota: C1 Vol.: 100
Chanel 8 Note Off - Duracao: 221040 Nota: C1 Vol.: 79
Chanel 8 Note On - Duracao: 221040 Nota: C1 Vol.: 67
Chanel 3 Note Off - Duracao: 221100 Nota: C1 Vol.: 100
Chanel 3 Note On - Duracao: 221100 Nota: C1 Vol.: 95
Chanel 3 Note Off - Duracao: 221220 Nota: C1 Vol.: 95
Chanel 3 Note On - Duracao: 221220 Nota: C1 Vol.: 79
Chanel 5 Note Off - Duracao: 221400 Nota: C1 Vol.: 46
Chanel 5 Note On - Duracao: 221400 Nota: C1 Vol.: 60
Chanel 7 Note Off - Duracao: 221640 Nota: C1 Vol.: 45
Chanel 7 Note On - Duracao: 221640 Nota: C1 Vol.: 44
Chanel 3 Note Off - Duracao: 221700 Nota: C1 Vol.: 79
Chanel 3 Note On - Duracao: 221700 Nota: C1 Vol.: 87
Chanel 2 Note Off - Duracao: 221940 Nota: C1 Vol.: 57
Chanel 2 Note On - Duracao: 221940 Nota: C1 Vol.: 67
Chanel 3 Note Off - Duracao: 221940 Nota: C1 Vol.: 87
Chanel 3 Note On - Duracao: 221940 Nota: C1 Vol.: 68
Chanel 4 Note Off - Duracao: 222000 Nota: C1 Vol.: 48
Chanel 4 Note On - Duracao: 222000 Nota: C1 Vol.: 50
Chanel 3 Note Off - Duracao: 222180 Nota: C1 Vol.: 68
Chanel 3 Note On - Duracao: 222180 Nota: C1 Vol.: 64
Chanel 5 Note Off - Duracao: 222360 Nota: C1 Vol.: 60
Chanel 5 Note On - Duracao: 222360 Nota: C1 Vol.: 44
Chanel 6 Note Off - Duracao: 222360 Nota: C1 Vol.: 49
Chanel 6 Note On - Duracao: 222360 Nota: C1 Vol.: 40
Chanel 3 Note Off - Duracao: 222420 Nota: C1 Vol.: 64
Chanel 3 Note On - Duracao: 222420 Nota: C1 Vol.: 73
Chanel 9 Note Off - Duracao: 222600 Nota: C1 Vol.: 40
Chanel 9 Note On - Duracao: 222600 Nota: C1 Vol.: 43
Chanel 3 Note Off - Duracao: 222660 Nota: C1 Vol.: 73
Chanel 3 Note On - Duracao: 222660 Nota: C1 Vol.: 55
Chanel 1 Note Off - Duracao: 222840 Nota: C1 Vol.: 48
Chanel 1 Note On - Duracao: 222840 Nota: C1 Vol.: 57
Chanel 2 Note Off - Duracao: 222900 Nota: C1 Vol.: 67
Chanel 2 Note On - Duracao: 222900 Nota: C1 Vol.: 71
Chanel 8 Note Off - Duracao: 222960 Nota: C1 Vol.: 67
Chanel 8 Note On - Duracao: 222960 Nota: C1 Vol.: 77
Chanel 2 Note Off - Duracao: 223380 Nota: C1 Vol.: 71
Chanel 2 Note On - Duracao: 223380 Nota: C1 Vol.: 82
Chanel 2 Note Off - Duracao: 223620 Nota: C1 Vol.: 82
Chanel 2 Note On - Duracao: 223620 Nota: C1 Vol.: 48
Chanel 3 Note Off - Duracao: 223620 Nota: C1 Vol.: 55
Chanel 3 Note On - Duracao: 223620 Nota: C1 Vol.: 46
Chanel 1 Note Off - Duracao: 223800 Nota: C1 Vol.: 57
Chanel 1 Note On - Duracao: 223800 Nota: C1 Vol.: 48
Chanel 4 Note Off - Duracao: 223920 Nota: C1 Vol.: 50
Chanel 4 Note On - Duracao: 223920 Nota: C1 Vol.: 49
Chanel 8 Note Off - Duracao: 223920 Nota: C1 Vol.: 77
Chanel 8 Note On - Duracao: 223920 Nota: C1 Vol.: 92
Chanel 8 Note Off - Duracao: 224400 Nota: C1 Vol.: 92
Chanel 8 Note On - Duracao: 224400 Nota: C1 Vol.: 66
Chanel 9 Note Off - Duracao: 224520 Nota: C1 Vol.: 43
Chanel 9 Note On - Duracao: 224520 Nota: C1 Vol.: 40
Chanel 1 Note Off - Duracao: 224760 Nota: C1 Vol.: 48
Chanel 1 Note On - Duracao: 224760 Nota: C1 Vol.: 49
Chanel 7 Note Off - Duracao: 225480 Nota: C1 Vol.: 44
Chanel 7 Note On - Duracao: 225480 Nota: C1 Vol.: 43
Chanel 2 Note Off - Duracao: 225540 Nota: C1 Vol.: 48
Chanel 2 Note On - Duracao: 225540 Nota: C1 Vol.: 52
Chanel 3 Note Off - Duracao: 225540 Nota: C1 Vol.: 46
Chanel 3 Note On - Duracao: 225540 Nota: C1 Vol.: 83
Chanel 3 Note Off - Duracao: 225660 Nota: C1 Vol.: 83
Chanel 3 Note On - Duracao: 225660 Nota: C1 Vol.: 58
Chanel 4 Note Off - Duracao: 225840 Nota: C1 Vol.: 49
Chanel 4 Note On - Duracao: 225840 Nota: C1 Vol.: 43
Chanel 3 Note Off - Duracao: 226140 Nota: C1 Vol.: 58
Chanel 3 Note On - Duracao: 226140 Nota: C1 Vol.: 53
Chanel 5 Note Off - Duracao: 226200 Nota: C1 Vol.: 44
Chanel 5 Note On - Duracao: 226200 Nota: C1 Vol.: 43
Chanel 6 Note Off - Duracao: 226200 Nota: C1 Vol.: 40
Chanel 6 Note On - Duracao: 226200 Nota: C1 Vol.: 56
Chanel 8 Note Off - Duracao: 226320 Nota: C1 Vol.: 66
Chanel 8 Note On - Duracao: 226320 Nota: C1 Vol.: 55
Chanel 1 Note Off - Duracao: 226680 Nota: C1 Vol.: 49
Chanel 1 Note On - Duracao: 226680 Nota: C1 Vol.: 48
Chanel 3 Note Off - Duracao: 227100 Nota: C1 Vol.: 53
Chanel 3 Note On - Duracao: 227100 Nota: C1 Vol.: 59
Chanel 6 Note Off - Duracao: 227160 Nota: C1 Vol.: 56
Chanel 6 Note On - Duracao: 227160 Nota: C1 Vol.: 43
Chanel 2 Note Off - Duracao: 227460 Nota: C1 Vol.: 52
Chanel 2 Note On - Duracao: 227460 Nota: C1 Vol.: 49
Chanel 3 Note Off - Duracao: 228060 Nota: C1 Vol.: 59
Chanel 3 Note On - Duracao: 228060 Nota: C1 Vol.: 68
Chanel 8 Note Off - Duracao: 228240 Nota: C1 Vol.: 55
Chanel 8 Note On - Duracao: 228240 Nota: C1 Vol.: 44
Chanel 9 Note Off - Duracao: 228360 Nota: C1 Vol.: 40
Chanel 9 Note On - Duracao: 228360 Nota: C1 Vol.: 42
Chanel 3 Note Off - Duracao: 228540 Nota: C1 Vol.: 68
Chanel 3 Note On - Duracao: 228540 Nota: C1 Vol.: 63
Chanel 1 Note Off - Duracao: 228600 Nota: C1 Vol.: 48
Chanel 1 Note On - Duracao: 228600 Nota: C1 Vol.: 49
Chanel 3 Note Off - Duracao: 229020 Nota: C1 Vol.: 63
Chanel 3 Note On - Duracao: 229020 Nota: C1 Vol.: 72
Chanel 6 Note Off - Duracao: 229080 Nota: C1 Vol.: 43
Chanel 6 Note On - Duracao: 229080 Nota: C1 Vol.: 47
Chanel 3 Note Off - Duracao: 229260 Nota: C1 Vol.: 72
Chanel 3 Note On - Duracao: 229260 Nota: C1 Vol.: 87
Chanel 7 Note Off - Duracao: 229320 Nota: C1 Vol.: 43
Chanel 7 Note On - Duracao: 229320 Nota: C1 Vol.: 44
Chanel 2 Note Off - Duracao: 229380 Nota: C1 Vol.: 49
Chanel 2 Note On - Duracao: 229380 Nota: C1 Vol.: 53
Chanel 3 Note Off - Duracao: 229380 Nota: C1 Vol.: 87
Chanel 3 Note On - Duracao: 229380 Nota: C1 Vol.: 70
Chanel 3 Note Off - Duracao: 229620 Nota: C1 Vol.: 70
Chanel 3 Note On - Duracao: 229620 Nota: C1 Vol.: 67
Chanel 4 Note Off - Duracao: 229680 Nota: C1 Vol.: 43
Chanel 4 Note On - Duracao: 229680 Nota: C1 Vol.: 45
Chanel 5 Note Off - Duracao: 230040 Nota: C1 Vol.: 43
Chanel 5 Note On - Duracao: 230040 Nota: C1 Vol.: 56
Chanel 3 Note Off - Duracao: 230100 Nota: C1 Vol.: 67
Chanel 3 Note On - Duracao: 230100 Nota: C1 Vol.: 76
Chanel 9 Note Off - Duracao: 230280 Nota: C1 Vol.: 42
Chanel 9 Note On - Duracao: 230280 Nota: C1 Vol.: 41
Chanel 3 Note Off - Duracao: 230340 Nota: C1 Vol.: 76
Chanel 3 Note On - Duracao: 230340 Nota: C1 Vol.: 75
Chanel 1 Note Off - Duracao: 230520 Nota: C1 Vol.: 49
Chanel 1 Note On - Duracao: 230520 Nota: C1 Vol.: 48
Chanel 3 Note Off - Duracao: 230580 Nota: C1 Vol.: 75
Chanel 3 Note On - Duracao: 230580 Nota: C1 Vol.: 81
Chanel 3 Note Off - Duracao: 230820 Nota: C1 Vol.: 81
Chanel 3 Note On - Duracao: 230820 Nota: C1 Vol.: 75
Chanel 5 Note Off - Duracao: 231000 Nota: C1 Vol.: 56
Chanel 5 Note On - Duracao: 231000 Nota: C1 Vol.: 55
Chanel 6 Note Off - Duracao: 231000 Nota: C1 Vol.: 47
Chanel 6 Note On - Duracao: 231000 Nota: C1 Vol.: 48
Chanel 3 Note Off - Duracao: 231060 Nota: C1 Vol.: 75
Chanel 3 Note On - Duracao: 231060 Nota: C1 Vol.: 66
Chanel 2 Note Off - Duracao: 231300 Nota: C1 Vol.: 53
Chanel 2 Note On - Duracao: 231300 Nota: C1 Vol.: 48
Chanel 3 Note Off - Duracao: 231540 Nota: C1 Vol.: 66
Chanel 3 Note On - Duracao: 231540 Nota: C1 Vol.: 46
Chanel 4 Note Off - Duracao: 231600 Nota: C1 Vol.: 45
Chanel 4 Note On - Duracao: 231600 Nota: C1 Vol.: 68
Chanel 5 Note Off - Duracao: 231960 Nota: C1 Vol.: 55
Chanel 5 Note On - Duracao: 231960 Nota: C1 Vol.: 48
Chanel 4 Note Off - Duracao: 232080 Nota: C1 Vol.: 68
Chanel 4 Note On - Duracao: 232080 Nota: C1 Vol.: 61
Chanel 8 Note Off - Duracao: 232080 Nota: C1 Vol.: 44
Chanel 8 Note On - Duracao: 232080 Nota: C1 Vol.: 45
Chanel 1 Note Off - Duracao: 232440 Nota: C1 Vol.: 48
Chanel 1 Note On - Duracao: 232440 Nota: C1 Vol.: 50
Chanel 3 Note Off - Duracao: 232500 Nota: C1 Vol.: 46
Chanel 3 Note On - Duracao: 232500 Nota: C1 Vol.: 58
Chanel 3 Note Off - Duracao: 232740 Nota: C1 Vol.: 58
Chanel 3 Note On - Duracao: 232740 Nota: C1 Vol.: 75
Chanel 1 Note Off - Duracao: 232920 Nota: C1 Vol.: 50
Chanel 1 Note On - Duracao: 232920 Nota: C1 Vol.: 55
Chanel 6 Note Off - Duracao: 232920 Nota: C1 Vol.: 48
Chanel 6 Note On - Duracao: 232920 Nota: C1 Vol.: 59
Chanel 3 Note Off - Duracao: 232980 Nota: C1 Vol.: 75
Chanel 3 Note On - Duracao: 232980 Nota: C1 Vol.: 78
Chanel 4 Note Off - Duracao: 233040 Nota: C1 Vol.: 61
Chanel 4 Note On - Duracao: 233040 Nota: C1 Vol.: 85
Chanel 7 Note Off - Duracao: 233160 Nota: C1 Vol.: 44
Chanel 7 Note On - Duracao: 233160 Nota: C1 Vol.: 44
Chanel 2 Note Off - Duracao: 233220 Nota: C1 Vol.: 48
Chanel 2 Note On - Duracao: 233220 Nota: C1 Vol.: 56
Chanel 3 Note Off - Duracao: 233220 Nota: C1 Vol.: 78
Chanel 3 Note On - Duracao: 233220 Nota: C1 Vol.: 63
Chanel 4 Note Off - Duracao: 233280 Nota: C1 Vol.: 85
Chanel 4 Note On - Duracao: 233280 Nota: C1 Vol.: 99
Chanel 4 Note Off - Duracao: 233340 Nota: C1 Vol.: 99
Chanel 4 Note On - Duracao: 233340 Nota: C1 Vol.: 100
Chanel 1 Note Off - Duracao: 233400 Nota: C1 Vol.: 55
Chanel 1 Note On - Duracao: 233400 Nota: C1 Vol.: 48
Chanel 4 Note Off - Duracao: 233400 Nota: C1 Vol.: 100
Chanel 4 Note On - Duracao: 233400 Nota: C1 Vol.: 79
Chanel 6 Note Off - Duracao: 233400 Nota: C1 Vol.: 59
Chanel 6 Note On - Duracao: 233400 Nota: C1 Vol.: 46
Chanel 3 Note Off - Duracao: 233460 Nota: C1 Vol.: 63
Chanel 3 Note On - Duracao: 233460 Nota: C1 Vol.: 67
Chanel 3 Note Off - Duracao: 233700 Nota: C1 Vol.: 67
Chanel 3 Note On - Duracao: 233700 Nota: C1 Vol.: 73
Chanel 4 Note Off - Duracao: 233880 Nota: C1 Vol.: 79
Chanel 4 Note On - Duracao: 233880 Nota: C1 Vol.: 57
Chanel 5 Note Off - Duracao: 233880 Nota: C1 Vol.: 48
Chanel 5 Note On - Duracao: 233880 Nota: C1 Vol.: 69
Chanel 3 Note Off - Duracao: 233940 Nota: C1 Vol.: 73
Chanel 3 Note On - Duracao: 233940 Nota: C1 Vol.: 90
Chanel 8 Note Off - Duracao: 234000 Nota: C1 Vol.: 45
Chanel 8 Note On - Duracao: 234000 Nota: C1 Vol.: 44
Chanel 3 Note Off - Duracao: 234060 Nota: C1 Vol.: 90
Chanel 3 Note On - Duracao: 234060 Nota: C1 Vol.: 90
Chanel 9 Note Off - Duracao: 234120 Nota: C1 Vol.: 41
Chanel 9 Note On - Duracao: 234120 Nota: C1 Vol.: 41
Chanel 2 Note Off - Duracao: 234180 Nota: C1 Vol.: 56
Chanel 2 Note On - Duracao: 234180 Nota: C1 Vol.: 48
Chanel 3 Note Off - Duracao: 234300 Nota: C1 Vol.: 90
Chanel 3 Note On - Duracao: 234300 Nota: C1 Vol.: 98
Chanel 1 Note Off - Duracao: 234360 Nota: C1 Vol.: 48
Chanel 1 Note On - Duracao: 234360 Nota: C1 Vol.: 54
Chanel 5 Note Off - Duracao: 234360 Nota: C1 Vol.: 69
Chanel 5 Note On - Duracao: 234360 Nota: C1 Vol.: 51
Chanel 6 Note Off - Duracao: 234360 Nota: C1 Vol.: 46
Chanel 6 Note On - Duracao: 234360 Nota: C1 Vol.: 48
Chanel 3 Note Off - Duracao: 234420 Nota: C1 Vol.: 98
Chanel 3 Note On - Duracao: 234420 Nota: C1 Vol.: 100
Chanel 3 Note Off - Duracao: 234480 Nota: C1 Vol.: 100
Chanel 3 Note On - Duracao: 234480 Nota: C1 Vol.: 91
Chanel 3 Note Off - Duracao: 234720 Nota: C1 Vol.: 91
Chanel 3 Note On - Duracao: 234720 Nota: C1 Vol.: 76
Chanel 3 Note Off - Duracao: 235200 Nota: C1 Vol.: 76
Chanel 3 Note On - Duracao: 235200 Nota: C1 Vol.: 90
Chanel 1 Note Off - Duracao: 235320 Nota: C1 Vol.: 54
Chanel 1 Note On - Duracao: 235320 Nota: C1 Vol.: 54
Chanel 3 Note Off - Duracao: 235320 Nota: C1 Vol.: 90
Chanel 3 Note On - Duracao: 235320 Nota: C1 Vol.: 77
Chanel 5 Note Off - Duracao: 235320 Nota: C1 Vol.: 51
Chanel 5 Note On - Duracao: 235320 Nota: C1 Vol.: 56
Chanel 6 Note Off - Duracao: 235320 Nota: C1 Vol.: 48
Chanel 6 Note On - Duracao: 235320 Nota: C1 Vol.: 59
Chanel 3 Note Off - Duracao: 235560 Nota: C1 Vol.: 77
Chanel 3 Note On - Duracao: 235560 Nota: C1 Vol.: 54
Chanel 4 Note Off - Duracao: 235800 Nota: C1 Vol.: 57
Chanel 4 Note On - Duracao: 235800 Nota: C1 Vol.: 52
Chanel 5 Note Off - Duracao: 235800 Nota: C1 Vol.: 56
Chanel 5 Note On - Duracao: 235800 Nota: C1 Vol.: 65
Chanel 5 Note Off - Duracao: 236040 Nota: C1 Vol.: 65
Chanel 5 Note On - Duracao: 236040 Nota: C1 Vol.: 62
Chanel 2 Note Off - Duracao: 236100 Nota: C1 Vol.: 48
Chanel 2 Note On - Duracao: 236100 Nota: C1 Vol.: 46
Chanel 1 Note Off - Duracao: 236280 Nota: C1 Vol.: 54
Chanel 1 Note On - Duracao: 236280 Nota: C1 Vol.: 52
Chanel 6 Note Off - Duracao: 236280 Nota: C1 Vol.: 59
Chanel 6 Note On - Duracao: 236280 Nota: C1 Vol.: 45
Chanel 3 Note Off - Duracao: 236520 Nota: C1 Vol.: 54
Chanel 3 Note On - Duracao: 236520 Nota: C1 Vol.: 58
Chanel 5 Note Off - Duracao: 236520 Nota: C1 Vol.: 62
Chanel 5 Note On - Duracao: 236520 Nota: C1 Vol.: 48
Chanel 7 Note Off - Duracao: 237000 Nota: C1 Vol.: 44
Chanel 7 Note On - Duracao: 237000 Nota: C1 Vol.: 47
Chanel 3 Note Off - Duracao: 237480 Nota: C1 Vol.: 58
Chanel 3 Note On - Duracao: 237480 Nota: C1 Vol.: 48
Chanel 8 Note Off - Duracao: 237840 Nota: C1 Vol.: 44
Chanel 8 Note On - Duracao: 237840 Nota: C1 Vol.: 42
Chanel 9 Note Off - Duracao: 237960 Nota: C1 Vol.: 41
Chanel 9 Note On - Duracao: 237960 Nota: C1 Vol.: 54
Chanel 2 Note Off - Duracao: 238020 Nota: C1 Vol.: 46
Chanel 2 Note On - Duracao: 238020 Nota: C1 Vol.: 85
Chanel 1 Note Off - Duracao: 238200 Nota: C1 Vol.: 52
Chanel 1 Note On - Duracao: 238200 Nota: C1 Vol.: 51
Chanel 6 Note Off - Duracao: 238200 Nota: C1 Vol.: 45
Chanel 6 Note On - Duracao: 238200 Nota: C1 Vol.: 42
Chanel 2 Note Off - Duracao: 238260 Nota: C1 Vol.: 85
Chanel 2 Note On - Duracao: 238260 Nota: C1 Vol.: 86
Chanel 5 Note Off - Duracao: 238440 Nota: C1 Vol.: 48
Chanel 5 Note On - Duracao: 238440 Nota: C1 Vol.: 48
Chanel 2 Note Off - Duracao: 238500 Nota: C1 Vol.: 86
Chanel 2 Note On - Duracao: 238500 Nota: C1 Vol.: 53
Chanel 9 Note Off - Duracao: 238920 Nota: C1 Vol.: 54
Chanel 9 Note On - Duracao: 238920 Nota: C1 Vol.: 82
Chanel 9 Note Off - Duracao: 239160 Nota: C1 Vol.: 82
Chanel 9 Note On - Duracao: 239160 Nota: C1 Vol.: 66
Chanel 3 Note Off - Duracao: 239400 Nota: C1 Vol.: 48
Chanel 3 Note On - Duracao: 239400 Nota: C1 Vol.: 58
Chanel 4 Note Off - Duracao: 239640 Nota: C1 Vol.: 52
Chanel 4 Note On - Duracao: 239640 Nota: C1 Vol.: 49
Chanel 9 Note Off - Duracao: 239640 Nota: C1 Vol.: 66
Chanel 9 Note On - Duracao: 239640 Nota: C1 Vol.: 48
Chanel 1 Note Off - Duracao: 240120 Nota: C1 Vol.: 51
Chanel 1 Note On - Duracao: 240120 Nota: C1 Vol.: 80
Chanel 1 Note Off - Duracao: 240360 Nota: C1 Vol.: 80
Chanel 1 Note On - Duracao: 240360 Nota: C1 Vol.: 86
Chanel 3 Note Off - Duracao: 240360 Nota: C1 Vol.: 58
Chanel 3 Note On - Duracao: 240360 Nota: C1 Vol.: 65
Chanel 5 Note Off - Duracao: 240360 Nota: C1 Vol.: 48
Chanel 5 Note On - Duracao: 240360 Nota: C1 Vol.: 43
Chanel 2 Note Off - Duracao: 240420 Nota: C1 Vol.: 53
Chanel 2 Note On - Duracao: 240420 Nota: C1 Vol.: 54
Chanel 1 Note Off - Duracao: 240480 Nota: C1 Vol.: 86
Chanel 1 Note On - Duracao: 240480 Nota: C1 Vol.: 58
Chanel 3 Note Off - Duracao: 240840 Nota: C1 Vol.: 65
Chanel 3 Note On - Duracao: 240840 Nota: C1 Vol.: 65
Chanel 7 Note Off - Duracao: 240840 Nota: C1 Vol.: 47
Chanel 7 Note On - Duracao: 240840 Nota: C1 Vol.: 48
Chanel 1 Note Off - Duracao: 241440 Nota: C1 Vol.: 58
Chanel 1 Note On - Duracao: 241440 Nota: C1 Vol.: 57
Chanel 9 Note Off - Duracao: 241560 Nota: C1 Vol.: 48
Chanel 9 Note On - Duracao: 241560 Nota: C1 Vol.: 54
Chanel 8 Note Off - Duracao: 241680 Nota: C1 Vol.: 42
Chanel 8 Note On - Duracao: 241680 Nota: C1 Vol.: 47
Chanel 3 Note Off - Duracao: 241800 Nota: C1 Vol.: 65
Chanel 3 Note On - Duracao: 241800 Nota: C1 Vol.: 61
Chanel 6 Note Off - Duracao: 242040 Nota: C1 Vol.: 42
Chanel 6 Note On - Duracao: 242040 Nota: C1 Vol.: 43
Chanel 2 Note Off - Duracao: 242340 Nota: C1 Vol.: 54
Chanel 2 Note On - Duracao: 242340 Nota: C1 Vol.: 56
Chanel 1 Note Off - Duracao: 242400 Nota: C1 Vol.: 57
Chanel 1 Note On - Duracao: 242400 Nota: C1 Vol.: 62
Chanel 3 Note Off - Duracao: 242760 Nota: C1 Vol.: 61
Chanel 3 Note On - Duracao: 242760 Nota: C1 Vol.: 60
Chanel 1 Note Off - Duracao: 242880 Nota: C1 Vol.: 62
Chanel 1 Note On - Duracao: 242880 Nota: C1 Vol.: 68
Chanel 2 Note Off - Duracao: 243300 Nota: C1 Vol.: 56
Chanel 2 Note On - Duracao: 243300 Nota: C1 Vol.: 46
Chanel 1 Note Off - Duracao: 243360 Nota: C1 Vol.: 68
Chanel 1 Note On - Duracao: 243360 Nota: C1 Vol.: 66
Chanel 4 Note Off - Duracao: 243480 Nota: C1 Vol.: 49
Chanel 4 Note On - Duracao: 243480 Nota: C1 Vol.: 56
Chanel 9 Note Off - Duracao: 243480 Nota: C1 Vol.: 54
Chanel 9 Note On - Duracao: 243480 Nota: C1 Vol.: 70
Chanel 1 Note Off - Duracao: 243600 Nota: C1 Vol.: 66
Chanel 1 Note On - Duracao: 243600 Nota: C1 Vol.: 63
Chanel 1 Note Off - Duracao: 243720 Nota: C1 Vol.: 63
Chanel 1 Note On - Duracao: 243720 Nota: C1 Vol.: 62
Chanel 3 Note Off - Duracao: 243720 Nota: C1 Vol.: 60
Chanel 3 Note On - Duracao: 243720 Nota: C1 Vol.: 58
Chanel 1 Note Off - Duracao: 243780 Nota: C1 Vol.: 62
Chanel 1 Note On - Duracao: 243780 Nota: C1 Vol.: 58
Chanel 1 Note Off - Duracao: 243900 Nota: C1 Vol.: 58
Chanel 1 Note On - Duracao: 243900 Nota: C1 Vol.: 58
Chanel 6 Note Off - Duracao: 243960 Nota: C1 Vol.: 43
Chanel 6 Note On - Duracao: 243960 Nota: C1 Vol.: 40
Chanel 1 Note Off - Duracao: 244020 Nota: C1 Vol.: 58
Chanel 1 Note On - Duracao: 244020 Nota: C1 Vol.: 67
Chanel 1 Note Off - Duracao: 244080 Nota: C1 Vol.: 67
Chanel 1 Note On - Duracao: 244080 Nota: C1 Vol.: 65
Chanel 1 Note Off - Duracao: 244200 Nota: C1 Vol.: 65
Chanel 1 Note On - Duracao: 244200 Nota: C1 Vol.: 76
Chanel 5 Note Off - Duracao: 244200 Nota: C1 Vol.: 43
Chanel 5 Note On - Duracao: 244200 Nota: C1 Vol.: 47
Chanel 1 Note Off - Duracao: 244320 Nota: C1 Vol.: 76
Chanel 1 Note On - Duracao: 244320 Nota: C1 Vol.: 72
Chanel 1 Note Off - Duracao: 244440 Nota: C1 Vol.: 72
Chanel 1 Note On - Duracao: 244440 Nota: C1 Vol.: 70
Chanel 9 Note Off - Duracao: 244440 Nota: C1 Vol.: 70
Chanel 9 Note On - Duracao: 244440 Nota: C1 Vol.: 87
Chanel 1 Note Off - Duracao: 244680 Nota: C1 Vol.: 70
Chanel 1 Note On - Duracao: 244680 Nota: C1 Vol.: 67
Chanel 3 Note Off - Duracao: 244680 Nota: C1 Vol.: 58
Chanel 3 Note On - Duracao: 244680 Nota: C1 Vol.: 73
Chanel 7 Note Off - Duracao: 244680 Nota: C1 Vol.: 48
Chanel 7 Note On - Duracao: 244680 Nota: C1 Vol.: 43
Chanel 1 Note Off - Duracao: 244920 Nota: C1 Vol.: 67
Chanel 1 Note On - Duracao: 244920 Nota: C1 Vol.: 63
Chanel 9 Note Off - Duracao: 244920 Nota: C1 Vol.: 87
Chanel 9 Note On - Duracao: 244920 Nota: C1 Vol.: 95
Chanel 1 Note Off - Duracao: 245160 Nota: C1 Vol.: 63
Chanel 1 Note On - Duracao: 245160 Nota: C1 Vol.: 68
Chanel 3 Note Off - Duracao: 245160 Nota: C1 Vol.: 73
Chanel 3 Note On - Duracao: 245160 Nota: C1 Vol.: 94
Chanel 2 Note Off - Duracao: 245220 Nota: C1 Vol.: 46
Chanel 2 Note On - Duracao: 245220 Nota: C1 Vol.: 57
Chanel 3 Note Off - Duracao: 245280 Nota: C1 Vol.: 94
Chanel 3 Note On - Duracao: 245280 Nota: C1 Vol.: 100
Chanel 3 Note Off - Duracao: 245340 Nota: C1 Vol.: 100
Chanel 3 Note On - Duracao: 245340 Nota: C1 Vol.: 90
Chanel 1 Note Off - Duracao: 245400 Nota: C1 Vol.: 68
Chanel 1 Note On - Duracao: 245400 Nota: C1 Vol.: 68
Chanel 4 Note Off - Duracao: 245400 Nota: C1 Vol.: 56
Chanel 4 Note On - Duracao: 245400 Nota: C1 Vol.: 80
Chanel 9 Note Off - Duracao: 245400 Nota: C1 Vol.: 95
Chanel 9 Note On - Duracao: 245400 Nota: C1 Vol.: 99
Chanel 8 Note Off - Duracao: 245520 Nota: C1 Vol.: 47
Chanel 8 Note On - Duracao: 245520 Nota: C1 Vol.: 44
Chanel 3 Note Off - Duracao: 245580 Nota: C1 Vol.: 90
Chanel 3 Note On - Duracao: 245580 Nota: C1 Vol.: 99
Chanel 1 Note Off - Duracao: 245640 Nota: C1 Vol.: 68
Chanel 1 Note On - Duracao: 245640 Nota: C1 Vol.: 54
Chanel 4 Note Off - Duracao: 245640 Nota: C1 Vol.: 80
Chanel 4 Note On - Duracao: 245640 Nota: C1 Vol.: 96
Chanel 9 Note Off - Duracao: 245640 Nota: C1 Vol.: 99
Chanel 9 Note On - Duracao: 245640 Nota: C1 Vol.: 100
Chanel 3 Note Off - Duracao: 245700 Nota: C1 Vol.: 99
Chanel 3 Note On - Duracao: 245700 Nota: C1 Vol.: 100
Chanel 4 Note Off - Duracao: 245700 Nota: C1 Vol.: 96
Chanel 4 Note On - Duracao: 245700 Nota: C1 Vol.: 72
Chanel 3 Note Off - Duracao: 245760 Nota: C1 Vol.: 100
Chanel 3 Note On - Duracao: 245760 Nota: C1 Vol.: 93
Chanel 3 Note Off - Duracao: 245880 Nota: C1 Vol.: 93
Chanel 3 Note On - Duracao: 245880 Nota: C1 Vol.: 70
Chanel 6 Note Off - Duracao: 245880 Nota: C1 Vol.: 40
Chanel 6 Note On - Duracao: 245880 Nota: C1 Vol.: 45
Chanel 9 Note Off - Duracao: 245880 Nota: C1 Vol.: 100
Chanel 9 Note On - Duracao: 245880 Nota: C1 Vol.: 95
Chanel 4 Note Off - Duracao: 245940 Nota: C1 Vol.: 72
Chanel 4 Note On - Duracao: 245940 Nota: C1 Vol.: 77
Chanel 1 Note Off - Duracao: 246120 Nota: C1 Vol.: 54
Chanel 1 Note On - Duracao: 246120 Nota: C1 Vol.: 65
Chanel 5 Note Off - Duracao: 246120 Nota: C1 Vol.: 47
Chanel 5 Note On - Duracao: 246120 Nota: C1 Vol.: 54
Chanel 9 Note Off - Duracao: 246120 Nota: C1 Vol.: 95
Chanel 9 Note On - Duracao: 246120 Nota: C1 Vol.: 100
Chanel 1 Note Off - Duracao: 246180 Nota: C1 Vol.: 65
Chanel 1 Note On - Duracao: 246180 Nota: C1 Vol.: 57
Chanel 2 Note Off - Duracao: 246180 Nota: C1 Vol.: 57
Chanel 2 Note On - Duracao: 246180 Nota: C1 Vol.: 58
Chanel 4 Note Off - Duracao: 246180 Nota: C1 Vol.: 77
Chanel 4 Note On - Duracao: 246180 Nota: C1 Vol.: 85
Chanel 1 Note Off - Duracao: 246240 Nota: C1 Vol.: 57
Chanel 1 Note On - Duracao: 246240 Nota: C1 Vol.: 55
Chanel 9 Note Off - Duracao: 246240 Nota: C1 Vol.: 100
Chanel 9 Note On - Duracao: 246240 Nota: C1 Vol.: 77
Chanel 1 Note Off - Duracao: 246300 Nota: C1 Vol.: 55
Chanel 1 Note On - Duracao: 246300 Nota: C1 Vol.: 61
Chanel 4 Note Off - Duracao: 246300 Nota: C1 Vol.: 85
Chanel 4 Note On - Duracao: 246300 Nota: C1 Vol.: 40
Chanel 1 Note Off - Duracao: 246360 Nota: C1 Vol.: 61
Chanel 1 Note On - Duracao: 246360 Nota: C1 Vol.: 60
Chanel 3 Note Off - Duracao: 246360 Nota: C1 Vol.: 70
Chanel 3 Note On - Duracao: 246360 Nota: C1 Vol.: 52
Chanel 1 Note Off - Duracao: 246600 Nota: C1 Vol.: 60
Chanel 1 Note On - Duracao: 246600 Nota: C1 Vol.: 50
Chanel 9 Note Off - Duracao: 246720 Nota: C1 Vol.: 77
Chanel 9 Note On - Duracao: 246720 Nota: C1 Vol.: 82
Chanel 6 Note Off - Duracao: 246840 Nota: C1 Vol.: 45
Chanel 6 Note On - Duracao: 246840 Nota: C1 Vol.: 45
Chanel 5 Note Off - Duracao: 247080 Nota: C1 Vol.: 54
Chanel 5 Note On - Duracao: 247080 Nota: C1 Vol.: 51
Chanel 2 Note Off - Duracao: 247140 Nota: C1 Vol.: 58
Chanel 2 Note On - Duracao: 247140 Nota: C1 Vol.: 57
Chanel 9 Note Off - Duracao: 247200 Nota: C1 Vol.: 82
Chanel 9 Note On - Duracao: 247200 Nota: C1 Vol.: 91
Chanel 3 Note Off - Duracao: 247320 Nota: C1 Vol.: 52
Chanel 3 Note On - Duracao: 247320 Nota: C1 Vol.: 46
Chanel 9 Note Off - Duracao: 247440 Nota: C1 Vol.: 91
Chanel 9 Note On - Duracao: 247440 Nota: C1 Vol.: 83
Chanel 1 Note Off - Duracao: 247560 Nota: C1 Vol.: 50
Chanel 1 Note On - Duracao: 247560 Nota: C1 Vol.: 48
Chanel 5 Note Off - Duracao: 247560 Nota: C1 Vol.: 51
Chanel 5 Note On - Duracao: 247560 Nota: C1 Vol.: 74
Chanel 5 Note Off - Duracao: 247680 Nota: C1 Vol.: 74
Chanel 5 Note On - Duracao: 247680 Nota: C1 Vol.: 42
Chanel 6 Note Off - Duracao: 247800 Nota: C1 Vol.: 45
Chanel 6 Note On - Duracao: 247800 Nota: C1 Vol.: 54
Chanel 9 Note Off - Duracao: 247920 Nota: C1 Vol.: 83
Chanel 9 Note On - Duracao: 247920 Nota: C1 Vol.: 68
Chanel 2 Note Off - Duracao: 248100 Nota: C1 Vol.: 57
Chanel 2 Note On - Duracao: 248100 Nota: C1 Vol.: 53
Chanel 7 Note Off - Duracao: 248520 Nota: C1 Vol.: 43
Chanel 7 Note On - Duracao: 248520 Nota: C1 Vol.: 41
Chanel 6 Note Off - Duracao: 248760 Nota: C1 Vol.: 54
Chanel 6 Note On - Duracao: 248760 Nota: C1 Vol.: 40
Chanel 9 Note Off - Duracao: 248880 Nota: C1 Vol.: 68
Chanel 9 Note On - Duracao: 248880 Nota: C1 Vol.: 71
Chanel 3 Note Off - Duracao: 249240 Nota: C1 Vol.: 46
Chanel 3 Note On - Duracao: 249240 Nota: C1 Vol.: 56
Chanel 8 Note Off - Duracao: 249360 Nota: C1 Vol.: 44
Chanel 8 Note On - Duracao: 249360 Nota: C1 Vol.: 44
Chanel 1 Note Off - Duracao: 249480 Nota: C1 Vol.: 48
Chanel 1 Note On - Duracao: 249480 Nota: C1 Vol.: 51
Chanel 9 Note Off - Duracao: 249840 Nota: C1 Vol.: 71
Chanel 9 Note On - Duracao: 249840 Nota: C1 Vol.: 44
Chanel 2 Note Off - Duracao: 250020 Nota: C1 Vol.: 53
Chanel 2 Note On - Duracao: 250020 Nota: C1 Vol.: 60
Chanel 4 Note Off - Duracao: 250140 Nota: C1 Vol.: 40
Chanel 4 Note On - Duracao: 250140 Nota: C1 Vol.: 60
Chanel 3 Note Off - Duracao: 250200 Nota: C1 Vol.: 56
Chanel 3 Note On - Duracao: 250200 Nota: C1 Vol.: 90
Chanel 3 Note Off - Duracao: 250320 Nota: C1 Vol.: 90
Chanel 3 Note On - Duracao: 250320 Nota: C1 Vol.: 55
Chanel 2 Note Off - Duracao: 250500 Nota: C1 Vol.: 60
Chanel 2 Note On - Duracao: 250500 Nota: C1 Vol.: 56
Chanel 4 Note Off - Duracao: 250620 Nota: C1 Vol.: 60
Chanel 4 Note On - Duracao: 250620 Nota: C1 Vol.: 43
Chanel 3 Note Off - Duracao: 251280 Nota: C1 Vol.: 55
Chanel 3 Note On - Duracao: 251280 Nota: C1 Vol.: 51
Chanel 1 Note Off - Duracao: 251400 Nota: C1 Vol.: 51
Chanel 1 Note On - Duracao: 251400 Nota: C1 Vol.: 50
Chanel 2 Note Off - Duracao: 251460 Nota: C1 Vol.: 56
Chanel 2 Note On - Duracao: 251460 Nota: C1 Vol.: 53
Chanel 5 Note Off - Duracao: 251520 Nota: C1 Vol.: 42
Chanel 5 Note On - Duracao: 251520 Nota: C1 Vol.: 51
Chanel 7 Note Off - Duracao: 252360 Nota: C1 Vol.: 41
Chanel 7 Note On - Duracao: 252360 Nota: C1 Vol.: 57
Chanel 2 Note Off - Duracao: 252420 Nota: C1 Vol.: 53
Chanel 2 Note On - Duracao: 252420 Nota: C1 Vol.: 52
Chanel 4 Note Off - Duracao: 252540 Nota: C1 Vol.: 43
Chanel 4 Note On - Duracao: 252540 Nota: C1 Vol.: 71
Chanel 6 Note Off - Duracao: 252600 Nota: C1 Vol.: 40
Chanel 6 Note On - Duracao: 252600 Nota: C1 Vol.: 46
Chanel 4 Note Off - Duracao: 253020 Nota: C1 Vol.: 71
Chanel 4 Note On - Duracao: 253020 Nota: C1 Vol.: 89
Chanel 4 Note Off - Duracao: 253140 Nota: C1 Vol.: 89
Chanel 4 Note On - Duracao: 253140 Nota: C1 Vol.: 72
Chanel 3 Note Off - Duracao: 253200 Nota: C1 Vol.: 51
Chanel 3 Note On - Duracao: 253200 Nota: C1 Vol.: 52
Chanel 8 Note Off - Duracao: 253200 Nota: C1 Vol.: 44
Chanel 8 Note On - Duracao: 253200 Nota: C1 Vol.: 53
Chanel 1 Note Off - Duracao: 253320 Nota: C1 Vol.: 50
Chanel 1 Note On - Duracao: 253320 Nota: C1 Vol.: 50
Chanel 2 Note Off - Duracao: 253380 Nota: C1 Vol.: 52
Chanel 2 Note On - Duracao: 253380 Nota: C1 Vol.: 60
Chanel 5 Note Off - Duracao: 253440 Nota: C1 Vol.: 51
Chanel 5 Note On - Duracao: 253440 Nota: C1 Vol.: 67
Chanel 2 Note Off - Duracao: 253620 Nota: C1 Vol.: 60
Chanel 2 Note On - Duracao: 253620 Nota: C1 Vol.: 70
Chanel 4 Note Off - Duracao: 253620 Nota: C1 Vol.: 72
Chanel 4 Note On - Duracao: 253620 Nota: C1 Vol.: 56
Chanel 9 Note Off - Duracao: 253680 Nota: C1 Vol.: 44
Chanel 9 Note On - Duracao: 253680 Nota: C1 Vol.: 50
Chanel 2 Note Off - Duracao: 253740 Nota: C1 Vol.: 70
Chanel 2 Note On - Duracao: 253740 Nota: C1 Vol.: 66
Chanel 2 Note Off - Duracao: 253980 Nota: C1 Vol.: 66
Chanel 2 Note On - Duracao: 253980 Nota: C1 Vol.: 40
Chanel 5 Note Off - Duracao: 254400 Nota: C1 Vol.: 67
Chanel 5 Note On - Duracao: 254400 Nota: C1 Vol.: 66
Chanel 6 Note Off - Duracao: 254520 Nota: C1 Vol.: 46
Chanel 6 Note On - Duracao: 254520 Nota: C1 Vol.: 58
Chanel 4 Note Off - Duracao: 254580 Nota: C1 Vol.: 56
Chanel 4 Note On - Duracao: 254580 Nota: C1 Vol.: 87
Chanel 4 Note Off - Duracao: 254700 Nota: C1 Vol.: 87
Chanel 4 Note On - Duracao: 254700 Nota: C1 Vol.: 90
Chanel 4 Note Off - Duracao: 254820 Nota: C1 Vol.: 90
Chanel 4 Note On - Duracao: 254820 Nota: C1 Vol.: 84
Chanel 5 Note Off - Duracao: 254880 Nota: C1 Vol.: 66
Chanel 5 Note On - Duracao: 254880 Nota: C1 Vol.: 62
Chanel 4 Note Off - Duracao: 254940 Nota: C1 Vol.: 84
Chanel 4 Note On - Duracao: 254940 Nota: C1 Vol.: 65
Chanel 3 Note Off - Duracao: 255120 Nota: C1 Vol.: 52
Chanel 3 Note On - Duracao: 255120 Nota: C1 Vol.: 71
Chanel 8 Note Off - Duracao: 255120 Nota: C1 Vol.: 53
Chanel 8 Note On - Duracao: 255120 Nota: C1 Vol.: 45
Chanel 1 Note Off - Duracao: 255240 Nota: C1 Vol.: 50
Chanel 1 Note On - Duracao: 255240 Nota: C1 Vol.: 51
Chanel 3 Note Off - Duracao: 255360 Nota: C1 Vol.: 71
Chanel 3 Note On - Duracao: 255360 Nota: C1 Vol.: 67
Chanel 5 Note Off - Duracao: 255360 Nota: C1 Vol.: 62
Chanel 5 Note On - Duracao: 255360 Nota: C1 Vol.: 48
Chanel 4 Note Off - Duracao: 255420 Nota: C1 Vol.: 65
Chanel 4 Note On - Duracao: 255420 Nota: C1 Vol.: 59
Chanel 6 Note Off - Duracao: 255480 Nota: C1 Vol.: 58
Chanel 6 Note On - Duracao: 255480 Nota: C1 Vol.: 47
Chanel 3 Note Off - Duracao: 255600 Nota: C1 Vol.: 67
Chanel 3 Note On - Duracao: 255600 Nota: C1 Vol.: 59
Chanel 2 Note Off - Duracao: 255900 Nota: C1 Vol.: 40
Chanel 2 Note On - Duracao: 255900 Nota: C1 Vol.: 58
Chanel 4 Note Off - Duracao: 255900 Nota: C1 Vol.: 59
Chanel 4 Note On - Duracao: 255900 Nota: C1 Vol.: 64
Chanel 3 Note Off - Duracao: 256080 Nota: C1 Vol.: 59
Chanel 3 Note On - Duracao: 256080 Nota: C1 Vol.: 91
Chanel 3 Note Off - Duracao: 256200 Nota: C1 Vol.: 91
Chanel 3 Note On - Duracao: 256200 Nota: C1 Vol.: 82
Chanel 7 Note Off - Duracao: 256200 Nota: C1 Vol.: 57
Chanel 7 Note On - Duracao: 256200 Nota: C1 Vol.: 56
Chanel 5 Note Off - Duracao: 256320 Nota: C1 Vol.: 48
Chanel 5 Note On - Duracao: 256320 Nota: C1 Vol.: 41
Chanel 2 Note Off - Duracao: 256380 Nota: C1 Vol.: 58
Chanel 2 Note On - Duracao: 256380 Nota: C1 Vol.: 47
Chanel 4 Note Off - Duracao: 256380 Nota: C1 Vol.: 64
Chanel 4 Note On - Duracao: 256380 Nota: C1 Vol.: 52
Chanel 3 Note Off - Duracao: 256440 Nota: C1 Vol.: 82
Chanel 3 Note On - Duracao: 256440 Nota: C1 Vol.: 71
Chanel 3 Note Off - Duracao: 256920 Nota: C1 Vol.: 71
Chanel 3 Note On - Duracao: 256920 Nota: C1 Vol.: 84
Chanel 1 Note Off - Duracao: 257160 Nota: C1 Vol.: 51
Chanel 1 Note On - Duracao: 257160 Nota: C1 Vol.: 52
Chanel 3 Note Off - Duracao: 257160 Nota: C1 Vol.: 84
Chanel 3 Note On - Duracao: 257160 Nota: C1 Vol.: 68
Chanel 2 Note Off - Duracao: 257340 Nota: C1 Vol.: 47
Chanel 2 Note On - Duracao: 257340 Nota: C1 Vol.: 59
Chanel 6 Note Off - Duracao: 257400 Nota: C1 Vol.: 47
Chanel 6 Note On - Duracao: 257400 Nota: C1 Vol.: 40
Chanel 9 Note Off - Duracao: 257520 Nota: C1 Vol.: 50
Chanel 9 Note On - Duracao: 257520 Nota: C1 Vol.: 69
Chanel 3 Note Off - Duracao: 257640 Nota: C1 Vol.: 68
Chanel 3 Note On - Duracao: 257640 Nota: C1 Vol.: 80
Chanel 3 Note Off - Duracao: 257880 Nota: C1 Vol.: 80
Chanel 3 Note On - Duracao: 257880 Nota: C1 Vol.: 68
Chanel 2 Note Off - Duracao: 258300 Nota: C1 Vol.: 59
Chanel 2 Note On - Duracao: 258300 Nota: C1 Vol.: 66
Chanel 4 Note Off - Duracao: 258300 Nota: C1 Vol.: 52
Chanel 4 Note On - Duracao: 258300 Nota: C1 Vol.: 52
Chanel 3 Note Off - Duracao: 258360 Nota: C1 Vol.: 68
Chanel 3 Note On - Duracao: 258360 Nota: C1 Vol.: 81
Chanel 3 Note Off - Duracao: 258480 Nota: C1 Vol.: 81
Chanel 3 Note On - Duracao: 258480 Nota: C1 Vol.: 49
Chanel 9 Note Off - Duracao: 258480 Nota: C1 Vol.: 69
Chanel 9 Note On - Duracao: 258480 Nota: C1 Vol.: 85
Chanel 8 Note Off - Duracao: 258960 Nota: C1 Vol.: 45
Chanel 8 Note On - Duracao: 258960 Nota: C1 Vol.: 43
Chanel 9 Note Off - Duracao: 258960 Nota: C1 Vol.: 85
Chanel 9 Note On - Duracao: 258960 Nota: C1 Vol.: 69
Chanel 1 Note Off - Duracao: 259080 Nota: C1 Vol.: 52
Chanel 1 Note On - Duracao: 259080 Nota: C1 Vol.: 54
Chanel 2 Note Off - Duracao: 259260 Nota: C1 Vol.: 66
Chanel 2 Note On - Duracao: 259260 Nota: C1 Vol.: 94
Chanel 3 Note Off - Duracao: 259440 Nota: C1 Vol.: 49
Chanel 3 Note On - Duracao: 259440 Nota: C1 Vol.: 60
Chanel 2 Note Off - Duracao: 259500 Nota: C1 Vol.: 94
Chanel 2 Note On - Duracao: 259500 Nota: C1 Vol.: 91
Chanel 2 Note Off - Duracao: 259740 Nota: C1 Vol.: 91
Chanel 2 Note On - Duracao: 259740 Nota: C1 Vol.: 87
Chanel 3 Note Off - Duracao: 259920 Nota: C1 Vol.: 60
Chanel 3 Note On - Duracao: 259920 Nota: C1 Vol.: 71
Chanel 2 Note Off - Duracao: 259980 Nota: C1 Vol.: 87
Chanel 2 Note On - Duracao: 259980 Nota: C1 Vol.: 78
Chanel 7 Note Off - Duracao: 260040 Nota: C1 Vol.: 56
Chanel 7 Note On - Duracao: 260040 Nota: C1 Vol.: 58
Chanel 5 Note Off - Duracao: 260160 Nota: C1 Vol.: 41
Chanel 5 Note On - Duracao: 260160 Nota: C1 Vol.: 47
Chanel 4 Note Off - Duracao: 260220 Nota: C1 Vol.: 52
Chanel 4 Note On - Duracao: 260220 Nota: C1 Vol.: 44
Chanel 3 Note Off - Duracao: 260400 Nota: C1 Vol.: 71
Chanel 3 Note On - Duracao: 260400 Nota: C1 Vol.: 72
Chanel 2 Note Off - Duracao: 260460 Nota: C1 Vol.: 78
Chanel 2 Note On - Duracao: 260460 Nota: C1 Vol.: 68
Chanel 3 Note Off - Duracao: 260880 Nota: C1 Vol.: 72
Chanel 3 Note On - Duracao: 260880 Nota: C1 Vol.: 69
Chanel 9 Note Off - Duracao: 260880 Nota: C1 Vol.: 69
Chanel 9 Note On - Duracao: 260880 Nota: C1 Vol.: 65
Chanel 1 Note Off - Duracao: 261000 Nota: C1 Vol.: 54
Chanel 1 Note On - Duracao: 261000 Nota: C1 Vol.: 54
Chanel 3 Note Off - Duracao: 261120 Nota: C1 Vol.: 69
Chanel 3 Note On - Duracao: 261120 Nota: C1 Vol.: 67
Chanel 6 Note Off - Duracao: 261240 Nota: C1 Vol.: 40
Chanel 6 Note On - Duracao: 261240 Nota: C1 Vol.: 41
Chanel 2 Note Off - Duracao: 261420 Nota: C1 Vol.: 68
Chanel 2 Note On - Duracao: 261420 Nota: C1 Vol.: 73
Chanel 3 Note Off - Duracao: 261600 Nota: C1 Vol.: 67
Chanel 3 Note On - Duracao: 261600 Nota: C1 Vol.: 85
Chanel 3 Note Off - Duracao: 261840 Nota: C1 Vol.: 85
Chanel 3 Note On - Duracao: 261840 Nota: C1 Vol.: 97
Chanel 2 Note Off - Duracao: 261900 Nota: C1 Vol.: 73
Chanel 2 Note On - Duracao: 261900 Nota: C1 Vol.: 61
Chanel 3 Note Off - Duracao: 261960 Nota: C1 Vol.: 97
Chanel 3 Note On - Duracao: 261960 Nota: C1 Vol.: 94
Chanel 7 Note Off - Duracao: 261960 Nota: C1 Vol.: 58
Chanel 7 Note On - Duracao: 261960 Nota: C1 Vol.: 53
Chanel 3 Note Off - Duracao: 262080 Nota: C1 Vol.: 94
Chanel 3 Note On - Duracao: 262080 Nota: C1 Vol.: 100
Chanel 3 Note Off - Duracao: 262200 Nota: C1 Vol.: 100
Chanel 3 Note On - Duracao: 262200 Nota: C1 Vol.: 100
Chanel 3 Note Off - Duracao: 262320 Nota: C1 Vol.: 100
Chanel 3 Note On - Duracao: 262320 Nota: C1 Vol.: 81
Chanel 3 Note Off - Duracao: 262800 Nota: C1 Vol.: 81
Chanel 3 Note On - Duracao: 262800 Nota: C1 Vol.: 87
Chanel 8 Note Off - Duracao: 262800 Nota: C1 Vol.: 43
Chanel 8 Note On - Duracao: 262800 Nota: C1 Vol.: 42
Chanel 9 Note Off - Duracao: 262800 Nota: C1 Vol.: 65
Chanel 9 Note On - Duracao: 262800 Nota: C1 Vol.: 51
Chanel 2 Note Off - Duracao: 262860 Nota: C1 Vol.: 61
Chanel 2 Note On - Duracao: 262860 Nota: C1 Vol.: 45
Chanel 1 Note Off - Duracao: 262920 Nota: C1 Vol.: 54
Chanel 1 Note On - Duracao: 262920 Nota: C1 Vol.: 49
Chanel 3 Note Off - Duracao: 263280 Nota: C1 Vol.: 87
Chanel 3 Note On - Duracao: 263280 Nota: C1 Vol.: 79
Chanel 3 Note Off - Duracao: 263760 Nota: C1 Vol.: 79
Chanel 3 Note On - Duracao: 263760 Nota: C1 Vol.: 58
Chanel 2 Note Off - Duracao: 263820 Nota: C1 Vol.: 45
Chanel 2 Note On - Duracao: 263820 Nota: C1 Vol.: 48
Chanel 5 Note Off - Duracao: 264000 Nota: C1 Vol.: 47
Chanel 5 Note On - Duracao: 264000 Nota: C1 Vol.: 52
Chanel 4 Note Off - Duracao: 264060 Nota: C1 Vol.: 44
Chanel 4 Note On - Duracao: 264060 Nota: C1 Vol.: 53
Chanel 2 Note Off - Duracao: 264300 Nota: C1 Vol.: 48
Chanel 2 Note On - Duracao: 264300 Nota: C1 Vol.: 62
Chanel 2 Note Off - Duracao: 264420 Nota: C1 Vol.: 62
Chanel 2 Note On - Duracao: 264420 Nota: C1 Vol.: 51
Chanel 3 Note Off - Duracao: 264720 Nota: C1 Vol.: 58
Chanel 3 Note On - Duracao: 264720 Nota: C1 Vol.: 48
Chanel 1 Note Off - Duracao: 264840 Nota: C1 Vol.: 49
Chanel 1 Note On - Duracao: 264840 Nota: C1 Vol.: 49
Chanel 2 Note Off - Duracao: 264900 Nota: C1 Vol.: 51
Chanel 2 Note On - Duracao: 264900 Nota: C1 Vol.: 44
Chanel 6 Note Off - Duracao: 265080 Nota: C1 Vol.: 41
Chanel 6 Note On - Duracao: 265080 Nota: C1 Vol.: 40
Chanel 7 Note Off - Duracao: 265800 Nota: C1 Vol.: 53
Chanel 7 Note On - Duracao: 265800 Nota: C1 Vol.: 77
Chanel 2 Note Off - Duracao: 265860 Nota: C1 Vol.: 44
Chanel 2 Note On - Duracao: 265860 Nota: C1 Vol.: 48
Chanel 5 Note Off - Duracao: 265920 Nota: C1 Vol.: 52
Chanel 5 Note On - Duracao: 265920 Nota: C1 Vol.: 43
Chanel 4 Note Off - Duracao: 265980 Nota: C1 Vol.: 53
Chanel 4 Note On - Duracao: 265980 Nota: C1 Vol.: 62
Chanel 3 Note Off - Duracao: 266640 Nota: C1 Vol.: 48
Chanel 3 Note On - Duracao: 266640 Nota: C1 Vol.: 44
Chanel 8 Note Off - Duracao: 266640 Nota: C1 Vol.: 42
Chanel 8 Note On - Duracao: 266640 Nota: C1 Vol.: 49
Chanel 9 Note Off - Duracao: 266640 Nota: C1 Vol.: 51
Chanel 9 Note On - Duracao: 266640 Nota: C1 Vol.: 56
Chanel 1 Note Off - Duracao: 266760 Nota: C1 Vol.: 49
Chanel 1 Note On - Duracao: 266760 Nota: C1 Vol.: 51
Chanel 7 Note Off - Duracao: 266760 Nota: C1 Vol.: 77
Chanel 7 Note On - Duracao: 266760 Nota: C1 Vol.: 59
Chanel 1 Note Off - Duracao: 267720 Nota: C1 Vol.: 51
Chanel 1 Note On - Duracao: 267720 Nota: C1 Vol.: 48
Chanel 2 Note Off - Duracao: 267780 Nota: C1 Vol.: 48
Chanel 2 Note On - Duracao: 267780 Nota: C1 Vol.: 52
Chanel 4 Note Off - Duracao: 267900 Nota: C1 Vol.: 62
Chanel 4 Note On - Duracao: 267900 Nota: C1 Vol.: 88
Chanel 4 Note Off - Duracao: 268140 Nota: C1 Vol.: 88
Chanel 4 Note On - Duracao: 268140 Nota: C1 Vol.: 100
Chanel 4 Note Off - Duracao: 268200 Nota: C1 Vol.: 100
Chanel 4 Note On - Duracao: 268200 Nota: C1 Vol.: 95
Chanel 4 Note Off - Duracao: 268320 Nota: C1 Vol.: 95
Chanel 4 Note On - Duracao: 268320 Nota: C1 Vol.: 73
Chanel 1 Note Off - Duracao: 268680 Nota: C1 Vol.: 48
Chanel 1 Note On - Duracao: 268680 Nota: C1 Vol.: 47
Chanel 7 Note Off - Duracao: 268680 Nota: C1 Vol.: 59
Chanel 7 Note On - Duracao: 268680 Nota: C1 Vol.: 53
Chanel 6 Note Off - Duracao: 268920 Nota: C1 Vol.: 40
Chanel 6 Note On - Duracao: 268920 Nota: C1 Vol.: 41
Chanel 4 Note Off - Duracao: 269280 Nota: C1 Vol.: 73
Chanel 4 Note On - Duracao: 269280 Nota: C1 Vol.: 80
Chanel 2 Note Off - Duracao: 269700 Nota: C1 Vol.: 52
Chanel 2 Note On - Duracao: 269700 Nota: C1 Vol.: 50
Chanel 4 Note Off - Duracao: 269760 Nota: C1 Vol.: 80
Chanel 4 Note On - Duracao: 269760 Nota: C1 Vol.: 96
Chanel 5 Note Off - Duracao: 269760 Nota: C1 Vol.: 43
Chanel 5 Note On - Duracao: 269760 Nota: C1 Vol.: 40
Chanel 4 Note Off - Duracao: 269880 Nota: C1 Vol.: 96
Chanel 4 Note On - Duracao: 269880 Nota: C1 Vol.: 100
Chanel 4 Note Off - Duracao: 269940 Nota: C1 Vol.: 100
Chanel 4 Note On - Duracao: 269940 Nota: C1 Vol.: 96
Chanel 4 Note Off - Duracao: 270060 Nota: C1 Vol.: 96
Chanel 4 Note On - Duracao: 270060 Nota: C1 Vol.: 80
Chanel 4 Note Off - Duracao: 270300 Nota: C1 Vol.: 80
Chanel 4 Note On - Duracao: 270300 Nota: C1 Vol.: 47
Chanel 3 Note Off - Duracao: 270480 Nota: C1 Vol.: 44
Chanel 3 Note On - Duracao: 270480 Nota: C1 Vol.: 46
Chanel 8 Note Off - Duracao: 270480 Nota: C1 Vol.: 49
Chanel 8 Note On - Duracao: 270480 Nota: C1 Vol.: 50
Chanel 9 Note Off - Duracao: 270480 Nota: C1 Vol.: 56
Chanel 9 Note On - Duracao: 270480 Nota: C1 Vol.: 52
Chanel 1 Note Off - Duracao: 270600 Nota: C1 Vol.: 47
Chanel 1 Note On - Duracao: 270600 Nota: C1 Vol.: 45
Chanel 2 Note Off - Duracao: 271620 Nota: C1 Vol.: 50
Chanel 2 Note On - Duracao: 271620 Nota: C1 Vol.: 51
Chanel 1 Note Off - Duracao: 272520 Nota: C1 Vol.: 45
Chanel 1 Note On - Duracao: 272520 Nota: C1 Vol.: 46
Chanel 7 Note Off - Duracao: 272520 Nota: C1 Vol.: 53
Chanel 7 Note On - Duracao: 272520 Nota: C1 Vol.: 56
Chanel 6 Note Off - Duracao: 272760 Nota: C1 Vol.: 41
Chanel 6 Note On - Duracao: 272760 Nota: C1 Vol.: 41
Chanel 2 Note Off - Duracao: 273540 Nota: C1 Vol.: 51
Chanel 2 Note On - Duracao: 273540 Nota: C1 Vol.: 58
Chanel 5 Note Off - Duracao: 273600 Nota: C1 Vol.: 40
Chanel 5 Note On - Duracao: 273600 Nota: C1 Vol.: 40
Chanel 4 Note Off - Duracao: 274140 Nota: C1 Vol.: 47
Chanel 4 Note On - Duracao: 274140 Nota: C1 Vol.: 43
Chanel 3 Note Off - Duracao: 274320 Nota: C1 Vol.: 46
Chanel 3 Note On - Duracao: 274320 Nota: C1 Vol.: 59
Chanel 8 Note Off - Duracao: 274320 Nota: C1 Vol.: 50
Chanel 8 Note On - Duracao: 274320 Nota: C1 Vol.: 46
Chanel 9 Note Off - Duracao: 274320 Nota: C1 Vol.: 52
Chanel 9 Note On - Duracao: 274320 Nota: C1 Vol.: 51
Chanel 1 Note Off - Duracao: 274440 Nota: C1 Vol.: 46
Chanel 1 Note On - Duracao: 274440 Nota: C1 Vol.: 50
Chanel 2 Note Off - Duracao: 274500 Nota: C1 Vol.: 58
Chanel 2 Note On - Duracao: 274500 Nota: C1 Vol.: 65
Chanel 3 Note Off - Duracao: 275280 Nota: C1 Vol.: 59
Chanel 3 Note On - Duracao: 275280 Nota: C1 Vol.: 61
Chanel 1 Note Off - Duracao: 275400 Nota: C1 Vol.: 50
Chanel 1 Note On - Duracao: 275400 Nota: C1 Vol.: 57
Chanel 2 Note Off - Duracao: 275460 Nota: C1 Vol.: 65
Chanel 2 Note On - Duracao: 275460 Nota: C1 Vol.: 61
Chanel 1 Note Off - Duracao: 275640 Nota: C1 Vol.: 57
Chanel 1 Note On - Duracao: 275640 Nota: C1 Vol.: 53
Chanel 1 Note Off - Duracao: 276120 Nota: C1 Vol.: 53
Chanel 1 Note On - Duracao: 276120 Nota: C1 Vol.: 54
Chanel 3 Note Off - Duracao: 276240 Nota: C1 Vol.: 61
Chanel 3 Note On - Duracao: 276240 Nota: C1 Vol.: 64
Chanel 7 Note Off - Duracao: 276360 Nota: C1 Vol.: 56
Chanel 7 Note On - Duracao: 276360 Nota: C1 Vol.: 54
Chanel 2 Note Off - Duracao: 276420 Nota: C1 Vol.: 61
Chanel 2 Note On - Duracao: 276420 Nota: C1 Vol.: 57
Chanel 1 Note Off - Duracao: 276600 Nota: C1 Vol.: 54
Chanel 1 Note On - Duracao: 276600 Nota: C1 Vol.: 55
Chanel 6 Note Off - Duracao: 276600 Nota: C1 Vol.: 41
Chanel 6 Note On - Duracao: 276600 Nota: C1 Vol.: 59
Chanel 3 Note Off - Duracao: 277200 Nota: C1 Vol.: 64
Chanel 3 Note On - Duracao: 277200 Nota: C1 Vol.: 62
Chanel 2 Note Off - Duracao: 277380 Nota: C1 Vol.: 57
Chanel 2 Note On - Duracao: 277380 Nota: C1 Vol.: 56
Chanel 5 Note Off - Duracao: 277440 Nota: C1 Vol.: 40
Chanel 5 Note On - Duracao: 277440 Nota: C1 Vol.: 41
Chanel 1 Note Off - Duracao: 277560 Nota: C1 Vol.: 55
Chanel 1 Note On - Duracao: 277560 Nota: C1 Vol.: 48
Chanel 4 Note Off - Duracao: 277980 Nota: C1 Vol.: 43
Chanel 4 Note On - Duracao: 277980 Nota: C1 Vol.: 47
Chanel 3 Note Off - Duracao: 278160 Nota: C1 Vol.: 62
Chanel 3 Note On - Duracao: 278160 Nota: C1 Vol.: 61
Chanel 8 Note Off - Duracao: 278160 Nota: C1 Vol.: 46
Chanel 8 Note On - Duracao: 278160 Nota: C1 Vol.: 45
Chanel 9 Note Off - Duracao: 278160 Nota: C1 Vol.: 51
Chanel 9 Note On - Duracao: 278160 Nota: C1 Vol.: 55
Chanel 2 Note Off - Duracao: 278340 Nota: C1 Vol.: 56
Chanel 2 Note On - Duracao: 278340 Nota: C1 Vol.: 55
Chanel 6 Note Off - Duracao: 278520 Nota: C1 Vol.: 59
Chanel 6 Note On - Duracao: 278520 Nota: C1 Vol.: 59
Chanel 3 Note Off - Duracao: 279120 Nota: C1 Vol.: 61
Chanel 3 Note On - Duracao: 279120 Nota: C1 Vol.: 64
Chanel 2 Note Off - Duracao: 279300 Nota: C1 Vol.: 55
Chanel 2 Note On - Duracao: 279300 Nota: C1 Vol.: 54
Chanel 1 Note Off - Duracao: 279480 Nota: C1 Vol.: 48
Chanel 1 Note On - Duracao: 279480 Nota: C1 Vol.: 54
Chanel 3 Note Off - Duracao: 279600 Nota: C1 Vol.: 64
Chanel 3 Note On - Duracao: 279600 Nota: C1 Vol.: 72
Chanel 3 Note Off - Duracao: 279840 Nota: C1 Vol.: 72
Chanel 3 Note On - Duracao: 279840 Nota: C1 Vol.: 81
Chanel 3 Note Off - Duracao: 280080 Nota: C1 Vol.: 81
Chanel 3 Note On - Duracao: 280080 Nota: C1 Vol.: 83
Chanel 7 Note Off - Duracao: 280200 Nota: C1 Vol.: 54
Chanel 7 Note On - Duracao: 280200 Nota: C1 Vol.: 64
Chanel 3 Note Off - Duracao: 280320 Nota: C1 Vol.: 83
Chanel 3 Note On - Duracao: 280320 Nota: C1 Vol.: 97
Chanel 3 Note Off - Duracao: 280440 Nota: C1 Vol.: 97
Chanel 3 Note On - Duracao: 280440 Nota: C1 Vol.: 100
Chanel 6 Note Off - Duracao: 280440 Nota: C1 Vol.: 59
Chanel 6 Note On - Duracao: 280440 Nota: C1 Vol.: 51
Chanel 3 Note Off - Duracao: 280560 Nota: C1 Vol.: 100
Chanel 3 Note On - Duracao: 280560 Nota: C1 Vol.: 96
Chanel 3 Note Off - Duracao: 280680 Nota: C1 Vol.: 96
Chanel 3 Note On - Duracao: 280680 Nota: C1 Vol.: 78
Chanel 3 Note Off - Duracao: 281160 Nota: C1 Vol.: 78
Chanel 3 Note On - Duracao: 281160 Nota: C1 Vol.: 65
Chanel 2 Note Off - Duracao: 281220 Nota: C1 Vol.: 54
Chanel 2 Note On - Duracao: 281220 Nota: C1 Vol.: 62
Chanel 5 Note Off - Duracao: 281280 Nota: C1 Vol.: 41
Chanel 5 Note On - Duracao: 281280 Nota: C1 Vol.: 49
Chanel 1 Note Off - Duracao: 281400 Nota: C1 Vol.: 54
Chanel 1 Note On - Duracao: 281400 Nota: C1 Vol.: 59
Chanel 4 Note Off - Duracao: 281820 Nota: C1 Vol.: 47
Chanel 4 Note On - Duracao: 281820 Nota: C1 Vol.: 44
Chanel 8 Note Off - Duracao: 282000 Nota: C1 Vol.: 45
Chanel 8 Note On - Duracao: 282000 Nota: C1 Vol.: 48
Chanel 9 Note Off - Duracao: 282000 Nota: C1 Vol.: 55
Chanel 9 Note On - Duracao: 282000 Nota: C1 Vol.: 59
Chanel 3 Note Off - Duracao: 282120 Nota: C1 Vol.: 65
Chanel 3 Note On - Duracao: 282120 Nota: C1 Vol.: 48
Chanel 7 Note Off - Duracao: 282120 Nota: C1 Vol.: 64
Chanel 7 Note On - Duracao: 282120 Nota: C1 Vol.: 88
Chanel 2 Note Off - Duracao: 282180 Nota: C1 Vol.: 62
Chanel 2 Note On - Duracao: 282180 Nota: C1 Vol.: 70
Chanel 6 Note Off - Duracao: 282360 Nota: C1 Vol.: 51
Chanel 6 Note On - Duracao: 282360 Nota: C1 Vol.: 40
Chanel 7 Note Off - Duracao: 282600 Nota: C1 Vol.: 88
Chanel 7 Note On - Duracao: 282600 Nota: C1 Vol.: 97
Chanel 2 Note Off - Duracao: 282660 Nota: C1 Vol.: 70
Chanel 2 Note On - Duracao: 282660 Nota: C1 Vol.: 62
Chanel 7 Note Off - Duracao: 282840 Nota: C1 Vol.: 97
Chanel 7 Note On - Duracao: 282840 Nota: C1 Vol.: 100
Chanel 7 Note Off - Duracao: 282900 Nota: C1 Vol.: 100
Chanel 7 Note On - Duracao: 282900 Nota: C1 Vol.: 81
Chanel 7 Note Off - Duracao: 283140 Nota: C1 Vol.: 81
Chanel 7 Note On - Duracao: 283140 Nota: C1 Vol.: 52
Chanel 5 Note Off - Duracao: 283200 Nota: C1 Vol.: 49
Chanel 5 Note On - Duracao: 283200 Nota: C1 Vol.: 45
Chanel 1 Note Off - Duracao: 283320 Nota: C1 Vol.: 59
Chanel 1 Note On - Duracao: 283320 Nota: C1 Vol.: 74
Chanel 2 Note Off - Duracao: 283620 Nota: C1 Vol.: 62
Chanel 2 Note On - Duracao: 283620 Nota: C1 Vol.: 49
Chanel 1 Note Off - Duracao: 283800 Nota: C1 Vol.: 74
Chanel 1 Note On - Duracao: 283800 Nota: C1 Vol.: 89
Chanel 1 Note Off - Duracao: 283920 Nota: C1 Vol.: 89
Chanel 1 Note On - Duracao: 283920 Nota: C1 Vol.: 58
Chanel 8 Note Off - Duracao: 283920 Nota: C1 Vol.: 48
Chanel 8 Note On - Duracao: 283920 Nota: C1 Vol.: 46
Chanel 9 Note Off - Duracao: 283920 Nota: C1 Vol.: 59
Chanel 9 Note On - Duracao: 283920 Nota: C1 Vol.: 56
Chanel 3 Note Off - Duracao: 284040 Nota: C1 Vol.: 48
Chanel 3 Note On - Duracao: 284040 Nota: C1 Vol.: 42
Chanel 1 Note Off - Duracao: 284880 Nota: C1 Vol.: 58
Chanel 1 Note On - Duracao: 284880 Nota: C1 Vol.: 60
Chanel 7 Note Off - Duracao: 285060 Nota: C1 Vol.: 52
Chanel 7 Note On - Duracao: 285060 Nota: C1 Vol.: 51
Chanel 5 Note Off - Duracao: 285120 Nota: C1 Vol.: 45
Chanel 5 Note On - Duracao: 285120 Nota: C1 Vol.: 45
Chanel 2 Note Off - Duracao: 285540 Nota: C1 Vol.: 49
Chanel 2 Note On - Duracao: 285540 Nota: C1 Vol.: 46
Chanel 4 Note Off - Duracao: 285660 Nota: C1 Vol.: 44
Chanel 4 Note On - Duracao: 285660 Nota: C1 Vol.: 46
Chanel 1 Note Off - Duracao: 285840 Nota: C1 Vol.: 60
Chanel 1 Note On - Duracao: 285840 Nota: C1 Vol.: 67
Chanel 6 Note Off - Duracao: 286200 Nota: C1 Vol.: 40
Chanel 6 Note On - Duracao: 286200 Nota: C1 Vol.: 40
Chanel 1 Note Off - Duracao: 286320 Nota: C1 Vol.: 67
Chanel 1 Note On - Duracao: 286320 Nota: C1 Vol.: 70
Chanel 1 Note Off - Duracao: 286560 Nota: C1 Vol.: 70
Chanel 1 Note On - Duracao: 286560 Nota: C1 Vol.: 72
Chanel 1 Note Off - Duracao: 286680 Nota: C1 Vol.: 72
Chanel 1 Note On - Duracao: 286680 Nota: C1 Vol.: 61
Chanel 1 Note Off - Duracao: 286800 Nota: C1 Vol.: 61
Chanel 1 Note On - Duracao: 286800 Nota: C1 Vol.: 62
Chanel 1 Note Off - Duracao: 286860 Nota: C1 Vol.: 62
Chanel 1 Note On - Duracao: 286860 Nota: C1 Vol.: 60
Chanel 1 Note Off - Duracao: 286980 Nota: C1 Vol.: 60
Chanel 1 Note On - Duracao: 286980 Nota: C1 Vol.: 56
Chanel 7 Note Off - Duracao: 286980 Nota: C1 Vol.: 51
Chanel 7 Note On - Duracao: 286980 Nota: C1 Vol.: 47
Chanel 5 Note Off - Duracao: 287040 Nota: C1 Vol.: 45
Chanel 5 Note On - Duracao: 287040 Nota: C1 Vol.: 51
Chanel 1 Note Off - Duracao: 287100 Nota: C1 Vol.: 56
Chanel 1 Note On - Duracao: 287100 Nota: C1 Vol.: 65
Chanel 1 Note Off - Duracao: 287160 Nota: C1 Vol.: 65
Chanel 1 Note On - Duracao: 287160 Nota: C1 Vol.: 59
Chanel 1 Note Off - Duracao: 287400 Nota: C1 Vol.: 59
Chanel 1 Note On - Duracao: 287400 Nota: C1 Vol.: 56
Chanel 2 Note Off - Duracao: 287460 Nota: C1 Vol.: 46
Chanel 2 Note On - Duracao: 287460 Nota: C1 Vol.: 88
Chanel 2 Note Off - Duracao: 287700 Nota: C1 Vol.: 88
Chanel 2 Note On - Duracao: 287700 Nota: C1 Vol.: 82
Chanel 8 Note Off - Duracao: 287760 Nota: C1 Vol.: 46
Chanel 8 Note On - Duracao: 287760 Nota: C1 Vol.: 42
Chanel 9 Note Off - Duracao: 287760 Nota: C1 Vol.: 56
Chanel 9 Note On - Duracao: 287760 Nota: C1 Vol.: 64
Chanel 1 Note Off - Duracao: 287880 Nota: C1 Vol.: 56
Chanel 1 Note On - Duracao: 287880 Nota: C1 Vol.: 66
Chanel 3 Note Off - Duracao: 287880 Nota: C1 Vol.: 42
Chanel 3 Note On - Duracao: 287880 Nota: C1 Vol.: 51
Chanel 2 Note Off - Duracao: 287940 Nota: C1 Vol.: 82
Chanel 2 Note On - Duracao: 287940 Nota: C1 Vol.: 63
Chanel 1 Note Off - Duracao: 288120 Nota: C1 Vol.: 66
Chanel 1 Note On - Duracao: 288120 Nota: C1 Vol.: 79
Chanel 6 Note Off - Duracao: 288120 Nota: C1 Vol.: 40
Chanel 6 Note On - Duracao: 288120 Nota: C1 Vol.: 43
Chanel 1 Note Off - Duracao: 288240 Nota: C1 Vol.: 79
Chanel 1 Note On - Duracao: 288240 Nota: C1 Vol.: 84
Chanel 1 Note Off - Duracao: 288360 Nota: C1 Vol.: 84
Chanel 1 Note On - Duracao: 288360 Nota: C1 Vol.: 75
Chanel 1 Note Off - Duracao: 288600 Nota: C1 Vol.: 75
Chanel 1 Note On - Duracao: 288600 Nota: C1 Vol.: 80
Chanel 1 Note Off - Duracao: 288840 Nota: C1 Vol.: 80
Chanel 1 Note On - Duracao: 288840 Nota: C1 Vol.: 79
Chanel 2 Note Off - Duracao: 288900 Nota: C1 Vol.: 63
Chanel 2 Note On - Duracao: 288900 Nota: C1 Vol.: 50
Chanel 5 Note Off - Duracao: 288960 Nota: C1 Vol.: 51
Chanel 5 Note On - Duracao: 288960 Nota: C1 Vol.: 50
Chanel 1 Note Off - Duracao: 289080 Nota: C1 Vol.: 79
Chanel 1 Note On - Duracao: 289080 Nota: C1 Vol.: 59
Chanel 4 Note Off - Duracao: 289500 Nota: C1 Vol.: 46
Chanel 4 Note On - Duracao: 289500 Nota: C1 Vol.: 46
Chanel 9 Note Off - Duracao: 289680 Nota: C1 Vol.: 64
Chanel 9 Note On - Duracao: 289680 Nota: C1 Vol.: 60
Chanel 3 Note Off - Duracao: 289800 Nota: C1 Vol.: 51
Chanel 3 Note On - Duracao: 289800 Nota: C1 Vol.: 89
Chanel 3 Note Off - Duracao: 289920 Nota: C1 Vol.: 89
Chanel 3 Note On - Duracao: 289920 Nota: C1 Vol.: 52
Chanel 1 Note Off - Duracao: 290040 Nota: C1 Vol.: 59
Chanel 1 Note On - Duracao: 290040 Nota: C1 Vol.: 64
Chanel 6 Note Off - Duracao: 290040 Nota: C1 Vol.: 43
Chanel 6 Note On - Duracao: 290040 Nota: C1 Vol.: 45
Chanel 1 Note Off - Duracao: 290160 Nota: C1 Vol.: 64
Chanel 1 Note On - Duracao: 290160 Nota: C1 Vol.: 56
Chanel 1 Note Off - Duracao: 290220 Nota: C1 Vol.: 56
Chanel 1 Note On - Duracao: 290220 Nota: C1 Vol.: 49
Chanel 1 Note Off - Duracao: 290280 Nota: C1 Vol.: 49
Chanel 1 Note On - Duracao: 290280 Nota: C1 Vol.: 54
Chanel 1 Note Off - Duracao: 290340 Nota: C1 Vol.: 54
Chanel 1 Note On - Duracao: 290340 Nota: C1 Vol.: 58
Chanel 1 Note Off - Duracao: 290460 Nota: C1 Vol.: 58
Chanel 1 Note On - Duracao: 290460 Nota: C1 Vol.: 49
Chanel 2 Note Off - Duracao: 290820 Nota: C1 Vol.: 50
Chanel 2 Note On - Duracao: 290820 Nota: C1 Vol.: 56
Chanel 7 Note Off - Duracao: 290820 Nota: C1 Vol.: 47
Chanel 7 Note On - Duracao: 290820 Nota: C1 Vol.: 42
Chanel 3 Note Off - Duracao: 290880 Nota: C1 Vol.: 52
Chanel 3 Note On - Duracao: 290880 Nota: C1 Vol.: 54
Chanel 5 Note Off - Duracao: 290880 Nota: C1 Vol.: 50
Chanel 5 Note On - Duracao: 290880 Nota: C1 Vol.: 49
Chanel 1 Note Off - Duracao: 290940 Nota: C1 Vol.: 49
Chanel 1 Note On - Duracao: 290940 Nota: C1 Vol.: 49
Chanel 8 Note Off - Duracao: 291600 Nota: C1 Vol.: 42
Chanel 8 Note On - Duracao: 291600 Nota: C1 Vol.: 40
Chanel 2 Note Off - Duracao: 291780 Nota: C1 Vol.: 56
Chanel 2 Note On - Duracao: 291780 Nota: C1 Vol.: 54
Chanel 3 Note Off - Duracao: 291840 Nota: C1 Vol.: 54
Chanel 3 Note On - Duracao: 291840 Nota: C1 Vol.: 58
Chanel 6 Note Off - Duracao: 291960 Nota: C1 Vol.: 45
Chanel 6 Note On - Duracao: 291960 Nota: C1 Vol.: 52
Chanel 3 Note Off - Duracao: 292800 Nota: C1 Vol.: 58
Chanel 3 Note On - Duracao: 292800 Nota: C1 Vol.: 72
Chanel 5 Note Off - Duracao: 292800 Nota: C1 Vol.: 49
Chanel 5 Note On - Duracao: 292800 Nota: C1 Vol.: 49
Chanel 1 Note Off - Duracao: 292860 Nota: C1 Vol.: 49
Chanel 1 Note On - Duracao: 292860 Nota: C1 Vol.: 52
Chanel 3 Note Off - Duracao: 293040 Nota: C1 Vol.: 72
Chanel 3 Note On - Duracao: 293040 Nota: C1 Vol.: 75
Chanel 3 Note Off - Duracao: 293280 Nota: C1 Vol.: 75
Chanel 3 Note On - Duracao: 293280 Nota: C1 Vol.: 58
Chanel 4 Note Off - Duracao: 293340 Nota: C1 Vol.: 46
Chanel 4 Note On - Duracao: 293340 Nota: C1 Vol.: 44
Chanel 9 Note Off - Duracao: 293520 Nota: C1 Vol.: 60
Chanel 9 Note On - Duracao: 293520 Nota: C1 Vol.: 55
Chanel 2 Note Off - Duracao: 293700 Nota: C1 Vol.: 54
Chanel 2 Note On - Duracao: 293700 Nota: C1 Vol.: 72
Chanel 6 Note Off - Duracao: 293880 Nota: C1 Vol.: 52
Chanel 6 Note On - Duracao: 293880 Nota: C1 Vol.: 92
Chanel 6 Note Off - Duracao: 294000 Nota: C1 Vol.: 92
Chanel 6 Note On - Duracao: 294000 Nota: C1 Vol.: 100
Chanel 6 Note Off - Duracao: 294120 Nota: C1 Vol.: 100
Chanel 6 Note On - Duracao: 294120 Nota: C1 Vol.: 94
Chanel 2 Note Off - Duracao: 294180 Nota: C1 Vol.: 72
Chanel 2 Note On - Duracao: 294180 Nota: C1 Vol.: 82
Chanel 3 Note Off - Duracao: 294240 Nota: C1 Vol.: 58
Chanel 3 Note On - Duracao: 294240 Nota: C1 Vol.: 84
Chanel 6 Note Off - Duracao: 294360 Nota: C1 Vol.: 94
Chanel 6 Note On - Duracao: 294360 Nota: C1 Vol.: 82
Chanel 2 Note Off - Duracao: 294420 Nota: C1 Vol.: 82
Chanel 2 Note On - Duracao: 294420 Nota: C1 Vol.: 62
Chanel 3 Note Off - Duracao: 294480 Nota: C1 Vol.: 84
Chanel 3 Note On - Duracao: 294480 Nota: C1 Vol.: 81
Chanel 6 Note Off - Duracao: 294600 Nota: C1 Vol.: 82
Chanel 6 Note On - Duracao: 294600 Nota: C1 Vol.: 52
Chanel 7 Note Off - Duracao: 294660 Nota: C1 Vol.: 42
Chanel 7 Note On - Duracao: 294660 Nota: C1 Vol.: 47
Chanel 3 Note Off - Duracao: 294720 Nota: C1 Vol.: 81
Chanel 3 Note On - Duracao: 294720 Nota: C1 Vol.: 67
Chanel 5 Note Off - Duracao: 294720 Nota: C1 Vol.: 49
Chanel 5 Note On - Duracao: 294720 Nota: C1 Vol.: 62
Chanel 1 Note Off - Duracao: 294780 Nota: C1 Vol.: 52
Chanel 1 Note On - Duracao: 294780 Nota: C1 Vol.: 50
Chanel 5 Note Off - Duracao: 295200 Nota: C1 Vol.: 62
Chanel 5 Note On - Duracao: 295200 Nota: C1 Vol.: 54
Chanel 2 Note Off - Duracao: 295380 Nota: C1 Vol.: 62
Chanel 2 Note On - Duracao: 295380 Nota: C1 Vol.: 66
Chanel 8 Note Off - Duracao: 295440 Nota: C1 Vol.: 40
Chanel 8 Note On - Duracao: 295440 Nota: C1 Vol.: 47
Chanel 6 Note Off - Duracao: 295560 Nota: C1 Vol.: 52
Chanel 6 Note On - Duracao: 295560 Nota: C1 Vol.: 59
Chanel 3 Note Off - Duracao: 295680 Nota: C1 Vol.: 67
Chanel 3 Note On - Duracao: 295680 Nota: C1 Vol.: 78
Chanel 6 Note Off - Duracao: 296040 Nota: C1 Vol.: 59
Chanel 6 Note On - Duracao: 296040 Nota: C1 Vol.: 64
Chanel 3 Note Off - Duracao: 296160 Nota: C1 Vol.: 78
Chanel 3 Note On - Duracao: 296160 Nota: C1 Vol.: 77
Chanel 5 Note Off - Duracao: 296160 Nota: C1 Vol.: 54
Chanel 5 Note On - Duracao: 296160 Nota: C1 Vol.: 50
Chanel 6 Note Off - Duracao: 296280 Nota: C1 Vol.: 64
Chanel 6 Note On - Duracao: 296280 Nota: C1 Vol.: 49
Chanel 2 Note Off - Duracao: 296340 Nota: C1 Vol.: 66
Chanel 2 Note On - Duracao: 296340 Nota: C1 Vol.: 90
Chanel 3 Note Off - Duracao: 296400 Nota: C1 Vol.: 77
Chanel 3 Note On - Duracao: 296400 Nota: C1 Vol.: 77
Chanel 2 Note Off - Duracao: 296460 Nota: C1 Vol.: 90
Chanel 2 Note On - Duracao: 296460 Nota: C1 Vol.: 82
Chanel 7 Note Off - Duracao: 296580 Nota: C1 Vol.: 47
Chanel 7 Note On - Duracao: 296580 Nota: C1 Vol.: 48
Chanel 3 Note Off - Duracao: 296640 Nota: C1 Vol.: 77
Chanel 3 Note On - Duracao: 296640 Nota: C1 Vol.: 63
Chanel 1 Note Off - Duracao: 296700 Nota: C1 Vol.: 50
Chanel 1 Note On - Duracao: 296700 Nota: C1 Vol.: 50
Chanel 2 Note Off - Duracao: 296700 Nota: C1 Vol.: 82
Chanel 2 Note On - Duracao: 296700 Nota: C1 Vol.: 63
Chanel 4 Note Off - Duracao: 297180 Nota: C1 Vol.: 44
Chanel 4 Note On - Duracao: 297180 Nota: C1 Vol.: 44
Chanel 6 Note Off - Duracao: 297240 Nota: C1 Vol.: 49
Chanel 6 Note On - Duracao: 297240 Nota: C1 Vol.: 49
Chanel 9 Note Off - Duracao: 297360 Nota: C1 Vol.: 55
Chanel 9 Note On - Duracao: 297360 Nota: C1 Vol.: 68
Chanel 3 Note Off - Duracao: 297600 Nota: C1 Vol.: 63
Chanel 3 Note On - Duracao: 297600 Nota: C1 Vol.: 76
Chanel 2 Note Off - Duracao: 297660 Nota: C1 Vol.: 63
Chanel 2 Note On - Duracao: 297660 Nota: C1 Vol.: 52
Chanel 3 Note Off - Duracao: 297840 Nota: C1 Vol.: 76
Chanel 3 Note On - Duracao: 297840 Nota: C1 Vol.: 58
Chanel 5 Note Off - Duracao: 298080 Nota: C1 Vol.: 50
Chanel 5 Note On - Duracao: 298080 Nota: C1 Vol.: 53
Chanel 3 Note Off - Duracao: 298320 Nota: C1 Vol.: 58
Chanel 3 Note On - Duracao: 298320 Nota: C1 Vol.: 57
Chanel 7 Note Off - Duracao: 298500 Nota: C1 Vol.: 48
Chanel 7 Note On - Duracao: 298500 Nota: C1 Vol.: 40
Chanel 1 Note Off - Duracao: 298620 Nota: C1 Vol.: 50
Chanel 1 Note On - Duracao: 298620 Nota: C1 Vol.: 50
Chanel 3 Note Off - Duracao: 298800 Nota: C1 Vol.: 57
Chanel 3 Note On - Duracao: 298800 Nota: C1 Vol.: 59
Chanel 6 Note Off - Duracao: 299160 Nota: C1 Vol.: 49
Chanel 6 Note On - Duracao: 299160 Nota: C1 Vol.: 53
Chanel 8 Note Off - Duracao: 299280 Nota: C1 Vol.: 47
Chanel 8 Note On - Duracao: 299280 Nota: C1 Vol.: 51
Chanel 2 Note Off - Duracao: 299580 Nota: C1 Vol.: 52
Chanel 2 Note On - Duracao: 299580 Nota: C1 Vol.: 58
Chanel 3 Note Off - Duracao: 299760 Nota: C1 Vol.: 59
Chanel 3 Note On - Duracao: 299760 Nota: C1 Vol.: 59
Chanel 6 Note Off - Duracao: 300120 Nota: C1 Vol.: 53
Chanel 6 Note On - Duracao: 300120 Nota: C1 Vol.: 42
Chanel 1 Note Off - Duracao: 300540 Nota: C1 Vol.: 50
Chanel 1 Note On - Duracao: 300540 Nota: C1 Vol.: 50
Chanel 2 Note Off - Duracao: 300540 Nota: C1 Vol.: 58
Chanel 2 Note On - Duracao: 300540 Nota: C1 Vol.: 74
Chanel 3 Note Off - Duracao: 300720 Nota: C1 Vol.: 59
Chanel 3 Note On - Duracao: 300720 Nota: C1 Vol.: 54
Chanel 2 Note Off - Duracao: 300780 Nota: C1 Vol.: 74
Chanel 2 Note On - Duracao: 300780 Nota: C1 Vol.: 72
Chanel 2 Note Off - Duracao: 301020 Nota: C1 Vol.: 72
Chanel 2 Note On - Duracao: 301020 Nota: C1 Vol.: 47
Chanel 4 Note Off - Duracao: 301020 Nota: C1 Vol.: 44
Chanel 4 Note On - Duracao: 301020 Nota: C1 Vol.: 70
Chanel 8 Note Off - Duracao: 301200 Nota: C1 Vol.: 51
Chanel 8 Note On - Duracao: 301200 Nota: C1 Vol.: 47
Chanel 9 Note Off - Duracao: 301200 Nota: C1 Vol.: 68
Chanel 9 Note On - Duracao: 301200 Nota: C1 Vol.: 71
Chanel 4 Note Off - Duracao: 301500 Nota: C1 Vol.: 70
Chanel 4 Note On - Duracao: 301500 Nota: C1 Vol.: 56
Chanel 5 Note Off - Duracao: 301920 Nota: C1 Vol.: 53
Chanel 5 Note On - Duracao: 301920 Nota: C1 Vol.: 54
Chanel 6 Note Off - Duracao: 302040 Nota: C1 Vol.: 42
Chanel 6 Note On - Duracao: 302040 Nota: C1 Vol.: 65
Chanel 6 Note Off - Duracao: 302280 Nota: C1 Vol.: 65
Chanel 6 Note On - Duracao: 302280 Nota: C1 Vol.: 40
Chanel 7 Note Off - Duracao: 302340 Nota: C1 Vol.: 40
Chanel 7 Note On - Duracao: 302340 Nota: C1 Vol.: 40
Chanel 1 Note Off - Duracao: 302460 Nota: C1 Vol.: 50
Chanel 1 Note On - Duracao: 302460 Nota: C1 Vol.: 52
Chanel 3 Note Off - Duracao: 302640 Nota: C1 Vol.: 54
Chanel 3 Note On - Duracao: 302640 Nota: C1 Vol.: 70
Chanel 2 Note Off - Duracao: 302940 Nota: C1 Vol.: 47
Chanel 2 Note On - Duracao: 302940 Nota: C1 Vol.: 71
Chanel 3 Note Off - Duracao: 303120 Nota: C1 Vol.: 70
Chanel 3 Note On - Duracao: 303120 Nota: C1 Vol.: 97
Chanel 9 Note Off - Duracao: 303120 Nota: C1 Vol.: 71
Chanel 9 Note On - Duracao: 303120 Nota: C1 Vol.: 70
Chanel 2 Note Off - Duracao: 303180 Nota: C1 Vol.: 71
Chanel 2 Note On - Duracao: 303180 Nota: C1 Vol.: 70
Chanel 3 Note Off - Duracao: 303240 Nota: C1 Vol.: 97
Chanel 3 Note On - Duracao: 303240 Nota: C1 Vol.: 100
Chanel 3 Note Off - Duracao: 303300 Nota: C1 Vol.: 100
Chanel 3 Note On - Duracao: 303300 Nota: C1 Vol.: 100
Chanel 2 Note Off - Duracao: 303420 Nota: C1 Vol.: 70
Chanel 2 Note On - Duracao: 303420 Nota: C1 Vol.: 67
Chanel 3 Note Off - Duracao: 303420 Nota: C1 Vol.: 100
Chanel 3 Note On - Duracao: 303420 Nota: C1 Vol.: 100
Chanel 4 Note Off - Duracao: 303420 Nota: C1 Vol.: 56
Chanel 4 Note On - Duracao: 303420 Nota: C1 Vol.: 79
Chanel 3 Note Off - Duracao: 303540 Nota: C1 Vol.: 100
Chanel 3 Note On - Duracao: 303540 Nota: C1 Vol.: 86
Chanel 4 Note Off - Duracao: 303660 Nota: C1 Vol.: 79
Chanel 4 Note On - Duracao: 303660 Nota: C1 Vol.: 93
Chanel 4 Note Off - Duracao: 303780 Nota: C1 Vol.: 93
Chanel 4 Note On - Duracao: 303780 Nota: C1 Vol.: 91
Chanel 5 Note Off - Duracao: 303840 Nota: C1 Vol.: 54
Chanel 5 Note On - Duracao: 303840 Nota: C1 Vol.: 54
Chanel 2 Note Off - Duracao: 303900 Nota: C1 Vol.: 67
Chanel 2 Note On - Duracao: 303900 Nota: C1 Vol.: 67
Chanel 4 Note Off - Duracao: 303900 Nota: C1 Vol.: 91
Chanel 4 Note On - Duracao: 303900 Nota: C1 Vol.: 59
Chanel 3 Note Off - Duracao: 304020 Nota: C1 Vol.: 86
Chanel 3 Note On - Duracao: 304020 Nota: C1 Vol.: 78
Chanel 6 Note Off - Duracao: 304200 Nota: C1 Vol.: 40
Chanel 6 Note On - Duracao: 304200 Nota: C1 Vol.: 47
Chanel 1 Note Off - Duracao: 304380 Nota: C1 Vol.: 52
Chanel 1 Note On - Duracao: 304380 Nota: C1 Vol.: 52
Chanel 2 Note Off - Duracao: 304860 Nota: C1 Vol.: 67
Chanel 2 Note On - Duracao: 304860 Nota: C1 Vol.: 79
Chanel 4 Note Off - Duracao: 304860 Nota: C1 Vol.: 59
Chanel 4 Note On - Duracao: 304860 Nota: C1 Vol.: 56
Chanel 3 Note Off - Duracao: 304980 Nota: C1 Vol.: 78
Chanel 3 Note On - Duracao: 304980 Nota: C1 Vol.: 67
Chanel 8 Note Off - Duracao: 305040 Nota: C1 Vol.: 47
Chanel 8 Note On - Duracao: 305040 Nota: C1 Vol.: 48
Chanel 2 Note Off - Duracao: 305340 Nota: C1 Vol.: 79
Chanel 2 Note On - Duracao: 305340 Nota: C1 Vol.: 96
Chanel 2 Note Off - Duracao: 305580 Nota: C1 Vol.: 96
Chanel 2 Note On - Duracao: 305580 Nota: C1 Vol.: 79
Chanel 5 Note Off - Duracao: 305760 Nota: C1 Vol.: 54
Chanel 5 Note On - Duracao: 305760 Nota: C1 Vol.: 53
Chanel 2 Note Off - Duracao: 306060 Nota: C1 Vol.: 79
Chanel 2 Note On - Duracao: 306060 Nota: C1 Vol.: 67
Chanel 6 Note Off - Duracao: 306120 Nota: C1 Vol.: 47
Chanel 6 Note On - Duracao: 306120 Nota: C1 Vol.: 44
Chanel 7 Note Off - Duracao: 306180 Nota: C1 Vol.: 40
Chanel 7 Note On - Duracao: 306180 Nota: C1 Vol.: 56
Chanel 1 Note Off - Duracao: 306300 Nota: C1 Vol.: 52
Chanel 1 Note On - Duracao: 306300 Nota: C1 Vol.: 50
Chanel 4 Note Off - Duracao: 306780 Nota: C1 Vol.: 56
Chanel 4 Note On - Duracao: 306780 Nota: C1 Vol.: 52
Chanel 3 Note Off - Duracao: 306900 Nota: C1 Vol.: 67
Chanel 3 Note On - Duracao: 306900 Nota: C1 Vol.: 66
Chanel 8 Note Off - Duracao: 306960 Nota: C1 Vol.: 48
Chanel 8 Note On - Duracao: 306960 Nota: C1 Vol.: 41
Chanel 9 Note Off - Duracao: 306960 Nota: C1 Vol.: 70
Chanel 9 Note On - Duracao: 306960 Nota: C1 Vol.: 66
Chanel 2 Note Off - Duracao: 307020 Nota: C1 Vol.: 67
Chanel 2 Note On - Duracao: 307020 Nota: C1 Vol.: 68
Chanel 7 Note Off - Duracao: 307140 Nota: C1 Vol.: 56
Chanel 7 Note On - Duracao: 307140 Nota: C1 Vol.: 48
Chanel 3 Note Off - Duracao: 307860 Nota: C1 Vol.: 66
Chanel 3 Note On - Duracao: 307860 Nota: C1 Vol.: 49
Chanel 2 Note Off - Duracao: 307980 Nota: C1 Vol.: 68
Chanel 2 Note On - Duracao: 307980 Nota: C1 Vol.: 72
Chanel 6 Note Off - Duracao: 308040 Nota: C1 Vol.: 44
Chanel 6 Note On - Duracao: 308040 Nota: C1 Vol.: 47
Chanel 1 Note Off - Duracao: 308220 Nota: C1 Vol.: 50
Chanel 1 Note On - Duracao: 308220 Nota: C1 Vol.: 52
Chanel 2 Note Off - Duracao: 308460 Nota: C1 Vol.: 72
Chanel 2 Note On - Duracao: 308460 Nota: C1 Vol.: 74
Chanel 2 Note Off - Duracao: 308700 Nota: C1 Vol.: 74
Chanel 2 Note On - Duracao: 308700 Nota: C1 Vol.: 51
Chanel 4 Note Off - Duracao: 308700 Nota: C1 Vol.: 52
Chanel 4 Note On - Duracao: 308700 Nota: C1 Vol.: 53
Chanel 8 Note Off - Duracao: 308880 Nota: C1 Vol.: 41
Chanel 8 Note On - Duracao: 308880 Nota: C1 Vol.: 55
Chanel 9 Note Off - Duracao: 308880 Nota: C1 Vol.: 66
Chanel 9 Note On - Duracao: 308880 Nota: C1 Vol.: 56
Chanel 7 Note Off - Duracao: 309060 Nota: C1 Vol.: 48
Chanel 7 Note On - Duracao: 309060 Nota: C1 Vol.: 52
Chanel 5 Note Off - Duracao: 309600 Nota: C1 Vol.: 53
Chanel 5 Note On - Duracao: 309600 Nota: C1 Vol.: 46
Chanel 2 Note Off - Duracao: 309660 Nota: C1 Vol.: 51
Chanel 2 Note On - Duracao: 309660 Nota: C1 Vol.: 51
Chanel 3 Note Off - Duracao: 309780 Nota: C1 Vol.: 49
Chanel 3 Note On - Duracao: 309780 Nota: C1 Vol.: 44
Chanel 8 Note Off - Duracao: 309840 Nota: C1 Vol.: 55
Chanel 8 Note On - Duracao: 309840 Nota: C1 Vol.: 61
Chanel 6 Note Off - Duracao: 309960 Nota: C1 Vol.: 47
Chanel 6 Note On - Duracao: 309960 Nota: C1 Vol.: 44
Chanel 1 Note Off - Duracao: 310140 Nota: C1 Vol.: 52
Chanel 1 Note On - Duracao: 310140 Nota: C1 Vol.: 47
Chanel 2 Note Off - Duracao: 310620 Nota: C1 Vol.: 51
Chanel 2 Note On - Duracao: 310620 Nota: C1 Vol.: 49
Chanel 4 Note Off - Duracao: 310620 Nota: C1 Vol.: 53
Chanel 4 Note On - Duracao: 310620 Nota: C1 Vol.: 51
Chanel 8 Note Off - Duracao: 310800 Nota: C1 Vol.: 61
Chanel 8 Note On - Duracao: 310800 Nota: C1 Vol.: 56
Chanel 9 Note Off - Duracao: 310800 Nota: C1 Vol.: 56
Chanel 9 Note On - Duracao: 310800 Nota: C1 Vol.: 46
Chanel 7 Note Off - Duracao: 310980 Nota: C1 Vol.: 52
Chanel 7 Note On - Duracao: 310980 Nota: C1 Vol.: 48
Chanel 2 Note Off - Duracao: 311580 Nota: C1 Vol.: 49
Chanel 2 Note On - Duracao: 311580 Nota: C1 Vol.: 52
Chanel 3 Note Off - Duracao: 311700 Nota: C1 Vol.: 44
Chanel 3 Note On - Duracao: 311700 Nota: C1 Vol.: 47
Chanel 6 Note Off - Duracao: 311880 Nota: C1 Vol.: 44
Chanel 6 Note On - Duracao: 311880 Nota: C1 Vol.: 46
Chanel 1 Note Off - Duracao: 312060 Nota: C1 Vol.: 47
Chanel 1 Note On - Duracao: 312060 Nota: C1 Vol.: 47
Chanel 2 Note Off - Duracao: 312540 Nota: C1 Vol.: 52
Chanel 2 Note On - Duracao: 312540 Nota: C1 Vol.: 46
Chanel 8 Note Off - Duracao: 312720 Nota: C1 Vol.: 56
Chanel 8 Note On - Duracao: 312720 Nota: C1 Vol.: 47
Chanel 5 Note Off - Duracao: 313440 Nota: C1 Vol.: 46
Chanel 5 Note On - Duracao: 313440 Nota: C1 Vol.: 46
Chanel 3 Note Off - Duracao: 313620 Nota: C1 Vol.: 47
Chanel 3 Note On - Duracao: 313620 Nota: C1 Vol.: 44
Chanel 6 Note Off - Duracao: 313800 Nota: C1 Vol.: 46
Chanel 6 Note On - Duracao: 313800 Nota: C1 Vol.: 52
Chanel 1 Note Off - Duracao: 313980 Nota: C1 Vol.: 47
Chanel 1 Note On - Duracao: 313980 Nota: C1 Vol.: 49
Chanel 2 Note Off - Duracao: 314460 Nota: C1 Vol.: 46
Chanel 2 Note On - Duracao: 314460 Nota: C1 Vol.: 52
Chanel 4 Note Off - Duracao: 314460 Nota: C1 Vol.: 51
Chanel 4 Note On - Duracao: 314460 Nota: C1 Vol.: 70
Chanel 8 Note Off - Duracao: 314640 Nota: C1 Vol.: 47
Chanel 8 Note On - Duracao: 314640 Nota: C1 Vol.: 49
Chanel 9 Note Off - Duracao: 314640 Nota: C1 Vol.: 46
Chanel 9 Note On - Duracao: 314640 Nota: C1 Vol.: 44
Chanel 6 Note Off - Duracao: 314760 Nota: C1 Vol.: 52
Chanel 6 Note On - Duracao: 314760 Nota: C1 Vol.: 49
Chanel 7 Note Off - Duracao: 314820 Nota: C1 Vol.: 48
Chanel 7 Note On - Duracao: 314820 Nota: C1 Vol.: 54
Chanel 4 Note Off - Duracao: 315420 Nota: C1 Vol.: 70
Chanel 4 Note On - Duracao: 315420 Nota: C1 Vol.: 98
Chanel 4 Note Off - Duracao: 315480 Nota: C1 Vol.: 98
Chanel 4 Note On - Duracao: 315480 Nota: C1 Vol.: 69
Chanel 6 Note Off - Duracao: 315720 Nota: C1 Vol.: 49
Chanel 6 Note On - Duracao: 315720 Nota: C1 Vol.: 57
Chanel 1 Note Off - Duracao: 315900 Nota: C1 Vol.: 49
Chanel 1 Note On - Duracao: 315900 Nota: C1 Vol.: 45
Chanel 4 Note Off - Duracao: 315960 Nota: C1 Vol.: 69
Chanel 4 Note On - Duracao: 315960 Nota: C1 Vol.: 62
Chanel 2 Note Off - Duracao: 316380 Nota: C1 Vol.: 52
Chanel 2 Note On - Duracao: 316380 Nota: C1 Vol.: 55
Chanel 4 Note Off - Duracao: 316440 Nota: C1 Vol.: 62
Chanel 4 Note On - Duracao: 316440 Nota: C1 Vol.: 75
Chanel 8 Note Off - Duracao: 316560 Nota: C1 Vol.: 49
Chanel 8 Note On - Duracao: 316560 Nota: C1 Vol.: 49
Chanel 4 Note Off - Duracao: 316680 Nota: C1 Vol.: 75
Chanel 4 Note On - Duracao: 316680 Nota: C1 Vol.: 41
Chanel 6 Note Off - Duracao: 316680 Nota: C1 Vol.: 57
Chanel 6 Note On - Duracao: 316680 Nota: C1 Vol.: 80
Chanel 6 Note Off - Duracao: 316920 Nota: C1 Vol.: 80
Chanel 6 Note On - Duracao: 316920 Nota: C1 Vol.: 49
Chanel 5 Note Off - Duracao: 317280 Nota: C1 Vol.: 46
Chanel 5 Note On - Duracao: 317280 Nota: C1 Vol.: 42
Chanel 3 Note Off - Duracao: 317460 Nota: C1 Vol.: 44
Chanel 3 Note On - Duracao: 317460 Nota: C1 Vol.: 52
Chanel 1 Note Off - Duracao: 317820 Nota: C1 Vol.: 45
Chanel 1 Note On - Duracao: 317820 Nota: C1 Vol.: 44
Chanel 6 Note Off - Duracao: 317880 Nota: C1 Vol.: 49
Chanel 6 Note On - Duracao: 317880 Nota: C1 Vol.: 53
Chanel 2 Note Off - Duracao: 318300 Nota: C1 Vol.: 55
Chanel 2 Note On - Duracao: 318300 Nota: C1 Vol.: 52
Chanel 9 Note Off - Duracao: 318480 Nota: C1 Vol.: 44
Chanel 9 Note On - Duracao: 318480 Nota: C1 Vol.: 42
Chanel 4 Note Off - Duracao: 318600 Nota: C1 Vol.: 41
Chanel 4 Note On - Duracao: 318600 Nota: C1 Vol.: 46
Chanel 7 Note Off - Duracao: 318660 Nota: C1 Vol.: 54
Chanel 7 Note On - Duracao: 318660 Nota: C1 Vol.: 65
Chanel 6 Note Off - Duracao: 318840 Nota: C1 Vol.: 53
Chanel 6 Note On - Duracao: 318840 Nota: C1 Vol.: 69
Chanel 6 Note Off - Duracao: 319080 Nota: C1 Vol.: 69
Chanel 6 Note On - Duracao: 319080 Nota: C1 Vol.: 80
Chanel 6 Note Off - Duracao: 319200 Nota: C1 Vol.: 80
Chanel 6 Note On - Duracao: 319200 Nota: C1 Vol.: 52
Chanel 3 Note Off - Duracao: 319380 Nota: C1 Vol.: 52
Chanel 3 Note On - Duracao: 319380 Nota: C1 Vol.: 45
Chanel 1 Note Off - Duracao: 319740 Nota: C1 Vol.: 44
Chanel 1 Note On - Duracao: 319740 Nota: C1 Vol.: 51
Chanel 2 Note Off - Duracao: 320220 Nota: C1 Vol.: 52
Chanel 2 Note On - Duracao: 320220 Nota: C1 Vol.: 50
Chanel 8 Note Off - Duracao: 320400 Nota: C1 Vol.: 49
Chanel 8 Note On - Duracao: 320400 Nota: C1 Vol.: 49
Chanel 4 Note Off - Duracao: 320520 Nota: C1 Vol.: 46
Chanel 4 Note On - Duracao: 320520 Nota: C1 Vol.: 49
Chanel 7 Note Off - Duracao: 320580 Nota: C1 Vol.: 65
Chanel 7 Note On - Duracao: 320580 Nota: C1 Vol.: 77
Chanel 1 Note Off - Duracao: 320700 Nota: C1 Vol.: 51
Chanel 1 Note On - Duracao: 320700 Nota: C1 Vol.: 55
Chanel 7 Note Off - Duracao: 321060 Nota: C1 Vol.: 77
Chanel 7 Note On - Duracao: 321060 Nota: C1 Vol.: 91
Chanel 5 Note Off - Duracao: 321120 Nota: C1 Vol.: 42
Chanel 5 Note On - Duracao: 321120 Nota: C1 Vol.: 44
Chanel 6 Note Off - Duracao: 321120 Nota: C1 Vol.: 52
Chanel 6 Note On - Duracao: 321120 Nota: C1 Vol.: 40
Chanel 1 Note Off - Duracao: 321180 Nota: C1 Vol.: 55
Chanel 1 Note On - Duracao: 321180 Nota: C1 Vol.: 59
Chanel 3 Note Off - Duracao: 321300 Nota: C1 Vol.: 45
Chanel 7 Note Off - Duracao: 321300 Nota: C1 Vol.: 91
Chanel 7 Note On - Duracao: 321300 Nota: C1 Vol.: 98
Chanel 7 Note Off - Duracao: 321420 Nota: C1 Vol.: 98
Chanel 7 Note On - Duracao: 321420 Nota: C1 Vol.: 94
Chanel 7 Note Off - Duracao: 321540 Nota: C1 Vol.: 94
Chanel 7 Note On - Duracao: 321540 Nota: C1 Vol.: 58
Chanel 1 Note Off - Duracao: 321660 Nota: C1 Vol.: 59
Chanel 1 Note On - Duracao: 321660 Nota: C1 Vol.: 46
Chanel 2 Note Off - Duracao: 322140 Nota: C1 Vol.: 50
Chanel 2 Note On - Duracao: 322140 Nota: C1 Vol.: 55
Chanel 9 Note Off - Duracao: 322320 Nota: C1 Vol.: 42
Chanel 9 Note On - Duracao: 322320 Nota: C1 Vol.: 42
Chanel 4 Note Off - Duracao: 322440 Nota: C1 Vol.: 49
Chanel 4 Note On - Duracao: 322440 Nota: C1 Vol.: 84
Chanel 1 Note Off - Duracao: 322620 Nota: C1 Vol.: 46
Chanel 1 Note On - Duracao: 322620 Nota: C1 Vol.: 48
Chanel 4 Note Off - Duracao: 322680 Nota: C1 Vol.: 84
Chanel 4 Note On - Duracao: 322680 Nota: C1 Vol.: 95
Chanel 4 Note Off - Duracao: 322800 Nota: C1 Vol.: 95
Chanel 4 Note On - Duracao: 322800 Nota: C1 Vol.: 83
Chanel 4 Note Off - Duracao: 323040 Nota: C1 Vol.: 83
Chanel 4 Note On - Duracao: 323040 Nota: C1 Vol.: 62
Chanel 2 Note Off - Duracao: 323100 Nota: C1 Vol.: 55
Chanel 2 Note On - Duracao: 323100 Nota: C1 Vol.: 67
Chanel 7 Note Off - Duracao: 323460 Nota: C1 Vol.: 58
Chanel 7 Note On - Duracao: 323460 Nota: C1 Vol.: 48
Chanel 1 Note Off - Duracao: 323580 Nota: C1 Vol.: 48
Chanel 1 Note On - Duracao: 323580 Nota: C1 Vol.: 52
Chanel 2 Note Off - Duracao: 323580 Nota: C1 Vol.: 67
Chanel 2 Note On - Duracao: 323580 Nota: C1 Vol.: 61
Chanel 4 Note Off - Duracao: 324000 Nota: C1 Vol.: 62
Chanel 4 Note On - Duracao: 324000 Nota: C1 Vol.: 82
Chanel 4 Note Off - Duracao: 324240 Nota: C1 Vol.: 82
Chanel 4 Note On - Duracao: 324240 Nota: C1 Vol.: 93
Chanel 8 Note Off - Duracao: 324240 Nota: C1 Vol.: 49
Chanel 8 Note On - Duracao: 324240 Nota: C1 Vol.: 48
Chanel 4 Note Off - Duracao: 324360 Nota: C1 Vol.: 93
Chanel 4 Note On - Duracao: 324360 Nota: C1 Vol.: 93
Chanel 4 Note Off - Duracao: 324480 Nota: C1 Vol.: 93
Chanel 4 Note On - Duracao: 324480 Nota: C1 Vol.: 72
Chanel 2 Note Off - Duracao: 324540 Nota: C1 Vol.: 61
Chanel 2 Note On - Duracao: 324540 Nota: C1 Vol.: 50
Chanel 4 Note Off - Duracao: 324720 Nota: C1 Vol.: 72
Chanel 4 Note On - Duracao: 324720 Nota: C1 Vol.: 72
Chanel 4 Note Off - Duracao: 324960 Nota: C1 Vol.: 72
Chanel 4 Note On - Duracao: 324960 Nota: C1 Vol.: 64
Chanel 5 Note Off - Duracao: 324960 Nota: C1 Vol.: 44
Chanel 5 Note On - Duracao: 324960 Nota: C1 Vol.: 52
Chanel 6 Note Off - Duracao: 324960 Nota: C1 Vol.: 40
Chanel 6 Note On - Duracao: 324960 Nota: C1 Vol.: 40
Chanel 4 Note Off - Duracao: 325440 Nota: C1 Vol.: 64
Chanel 4 Note On - Duracao: 325440 Nota: C1 Vol.: 53
Chanel 1 Note Off - Duracao: 325500 Nota: C1 Vol.: 52
Chanel 1 Note On - Duracao: 325500 Nota: C1 Vol.: 54
Chanel 9 Note Off - Duracao: 326160 Nota: C1 Vol.: 42
Chanel 9 Note On - Duracao: 326160 Nota: C1 Vol.: 40
Chanel 2 Note Off - Duracao: 326460 Nota: C1 Vol.: 50
Chanel 2 Note On - Duracao: 326460 Nota: C1 Vol.: 44
Chanel 5 Note Off - Duracao: 326880 Nota: C1 Vol.: 52
Chanel 5 Note On - Duracao: 326880 Nota: C1 Vol.: 49
Chanel 6 Note Off - Duracao: 326880 Nota: C1 Vol.: 40
Chanel 6 Note On - Duracao: 326880 Nota: C1 Vol.: 54
Chanel 7 Note Off - Duracao: 327300 Nota: C1 Vol.: 48
Chanel 7 Note On - Duracao: 327300 Nota: C1 Vol.: 44
Chanel 4 Note Off - Duracao: 327360 Nota: C1 Vol.: 53
Chanel 4 Note On - Duracao: 327360 Nota: C1 Vol.: 43
Chanel 1 Note Off - Duracao: 327420 Nota: C1 Vol.: 54
Chanel 1 Note On - Duracao: 327420 Nota: C1 Vol.: 73
Chanel 6 Note Off - Duracao: 327840 Nota: C1 Vol.: 54
Chanel 6 Note On - Duracao: 327840 Nota: C1 Vol.: 56
Chanel 1 Note Off - Duracao: 327900 Nota: C1 Vol.: 73
Chanel 1 Note On - Duracao: 327900 Nota: C1 Vol.: 63
Chanel 8 Note Off - Duracao: 328080 Nota: C1 Vol.: 48
Chanel 8 Note On - Duracao: 328080 Nota: C1 Vol.: 46
Chanel 6 Note Off - Duracao: 328320 Nota: C1 Vol.: 56
Chanel 6 Note On - Duracao: 328320 Nota: C1 Vol.: 40
Chanel 2 Note Off - Duracao: 328380 Nota: C1 Vol.: 44
Chanel 2 Note On - Duracao: 328380 Nota: C1 Vol.: 56
Chanel 5 Note Off - Duracao: 328800 Nota: C1 Vol.: 49
Chanel 5 Note On - Duracao: 328800 Nota: C1 Vol.: 43
Chanel 1 Note Off - Duracao: 328860 Nota: C1 Vol.: 63
Chanel 1 Note On - Duracao: 328860 Nota: C1 Vol.: 68
Chanel 1 Note Off - Duracao: 329340 Nota: C1 Vol.: 68
Chanel 1 Note On - Duracao: 329340 Nota: C1 Vol.: 58
Chanel 2 Note Off - Duracao: 329340 Nota: C1 Vol.: 56
Chanel 2 Note On - Duracao: 329340 Nota: C1 Vol.: 70
Chanel 2 Note Off - Duracao: 329820 Nota: C1 Vol.: 70
Chanel 2 Note On - Duracao: 329820 Nota: C1 Vol.: 85
Chanel 9 Note Off - Duracao: 330000 Nota: C1 Vol.: 40
Chanel 9 Note On - Duracao: 330000 Nota: C1 Vol.: 47
Chanel 2 Note Off - Duracao: 330060 Nota: C1 Vol.: 85
Chanel 2 Note On - Duracao: 330060 Nota: C1 Vol.: 62
Chanel 1 Note Off - Duracao: 330300 Nota: C1 Vol.: 58
Chanel 1 Note On - Duracao: 330300 Nota: C1 Vol.: 79
Chanel 1 Note Off - Duracao: 330540 Nota: C1 Vol.: 79
Chanel 1 Note On - Duracao: 330540 Nota: C1 Vol.: 76
Chanel 1 Note Off - Duracao: 330780 Nota: C1 Vol.: 76
Chanel 1 Note On - Duracao: 330780 Nota: C1 Vol.: 78
Chanel 1 Note Off - Duracao: 331020 Nota: C1 Vol.: 78
Chanel 1 Note On - Duracao: 331020 Nota: C1 Vol.: 73
Chanel 2 Note Off - Duracao: 331020 Nota: C1 Vol.: 62
Chanel 2 Note On - Duracao: 331020 Nota: C1 Vol.: 71
Chanel 1 Note Off - Duracao: 331140 Nota: C1 Vol.: 73
Chanel 1 Note On - Duracao: 331140 Nota: C1 Vol.: 64
Chanel 7 Note Off - Duracao: 331140 Nota: C1 Vol.: 44
Chanel 7 Note On - Duracao: 331140 Nota: C1 Vol.: 44
Chanel 4 Note Off - Duracao: 331200 Nota: C1 Vol.: 43
Chanel 4 Note On - Duracao: 331200 Nota: C1 Vol.: 44
Chanel 1 Note Off - Duracao: 331260 Nota: C1 Vol.: 64
Chanel 1 Note On - Duracao: 331260 Nota: C1 Vol.: 61
Chanel 1 Note Off - Duracao: 331320 Nota: C1 Vol.: 61
Chanel 1 Note On - Duracao: 331320 Nota: C1 Vol.: 59
Chanel 1 Note Off - Duracao: 331440 Nota: C1 Vol.: 59
Chanel 1 Note On - Duracao: 331440 Nota: C1 Vol.: 49
Chanel 2 Note Off - Duracao: 331500 Nota: C1 Vol.: 71
Chanel 2 Note On - Duracao: 331500 Nota: C1 Vol.: 48
Chanel 1 Note Off - Duracao: 331680 Nota: C1 Vol.: 49
Chanel 1 Note On - Duracao: 331680 Nota: C1 Vol.: 61
Chanel 1 Note Off - Duracao: 331800 Nota: C1 Vol.: 61
Chanel 1 Note On - Duracao: 331800 Nota: C1 Vol.: 56
Chanel 8 Note Off - Duracao: 331920 Nota: C1 Vol.: 46
Chanel 8 Note On - Duracao: 331920 Nota: C1 Vol.: 47
Chanel 1 Note Off - Duracao: 332040 Nota: C1 Vol.: 56
Chanel 1 Note On - Duracao: 332040 Nota: C1 Vol.: 59
Chanel 6 Note Off - Duracao: 332160 Nota: C1 Vol.: 40
Chanel 6 Note On - Duracao: 332160 Nota: C1 Vol.: 40
Chanel 1 Note Off - Duracao: 332520 Nota: C1 Vol.: 59
Chanel 1 Note On - Duracao: 332520 Nota: C1 Vol.: 64
Chanel 5 Note Off - Duracao: 332640 Nota: C1 Vol.: 43
Chanel 5 Note On - Duracao: 332640 Nota: C1 Vol.: 48
Chanel 1 Note Off - Duracao: 333000 Nota: C1 Vol.: 64
Chanel 1 Note On - Duracao: 333000 Nota: C1 Vol.: 73
Chanel 1 Note Off - Duracao: 333240 Nota: C1 Vol.: 73
Chanel 1 Note On - Duracao: 333240 Nota: C1 Vol.: 97
Chanel 1 Note Off - Duracao: 333300 Nota: C1 Vol.: 97
Chanel 1 Note On - Duracao: 333300 Nota: C1 Vol.: 86
Chanel 1 Note Off - Duracao: 333420 Nota: C1 Vol.: 86
Chanel 1 Note On - Duracao: 333420 Nota: C1 Vol.: 79
Chanel 2 Note Off - Duracao: 333420 Nota: C1 Vol.: 48
Chanel 2 Note On - Duracao: 333420 Nota: C1 Vol.: 44
Chanel 1 Note Off - Duracao: 333660 Nota: C1 Vol.: 79
Chanel 1 Note On - Duracao: 333660 Nota: C1 Vol.: 93
Chanel 9 Note Off - Duracao: 333840 Nota: C1 Vol.: 47
Chanel 9 Note On - Duracao: 333840 Nota: C1 Vol.: 49
Chanel 1 Note Off - Duracao: 333900 Nota: C1 Vol.: 93
Chanel 1 Note On - Duracao: 333900 Nota: C1 Vol.: 61
Chanel 1 Note Off - Duracao: 334860 Nota: C1 Vol.: 61
Chanel 1 Note On - Duracao: 334860 Nota: C1 Vol.: 64
Chanel 1 Note Off - Duracao: 334980 Nota: C1 Vol.: 64
Chanel 1 Note On - Duracao: 334980 Nota: C1 Vol.: 56
Chanel 7 Note Off - Duracao: 334980 Nota: C1 Vol.: 44
Chanel 7 Note On - Duracao: 334980 Nota: C1 Vol.: 47
Chanel 1 Note Off - Duracao: 335040 Nota: C1 Vol.: 56
Chanel 1 Note On - Duracao: 335040 Nota: C1 Vol.: 50
Chanel 4 Note Off - Duracao: 335040 Nota: C1 Vol.: 44
Chanel 4 Note On - Duracao: 335040 Nota: C1 Vol.: 52
Chanel 1 Note Off - Duracao: 335100 Nota: C1 Vol.: 50
Chanel 1 Note On - Duracao: 335100 Nota: C1 Vol.: 49
Chanel 1 Note Off - Duracao: 335220 Nota: C1 Vol.: 49
Chanel 1 Note On - Duracao: 335220 Nota: C1 Vol.: 57
Chanel 1 Note Off - Duracao: 335340 Nota: C1 Vol.: 57
Chanel 1 Note On - Duracao: 335340 Nota: C1 Vol.: 49
Chanel 2 Note Off - Duracao: 335340 Nota: C1 Vol.: 44
Chanel 2 Note On - Duracao: 335340 Nota: C1 Vol.: 81
Chanel 8 Note Off - Duracao: 335760 Nota: C1 Vol.: 47
Chanel 8 Note On - Duracao: 335760 Nota: C1 Vol.: 48
Chanel 1 Note Off - Duracao: 335820 Nota: C1 Vol.: 49
Chanel 1 Note On - Duracao: 335820 Nota: C1 Vol.: 50
Chanel 2 Note Off - Duracao: 335820 Nota: C1 Vol.: 81
Chanel 2 Note On - Duracao: 335820 Nota: C1 Vol.: 89
Chanel 6 Note Off - Duracao: 336000 Nota: C1 Vol.: 40
Chanel 6 Note On - Duracao: 336000 Nota: C1 Vol.: 40
Chanel 2 Note Off - Duracao: 336060 Nota: C1 Vol.: 89
Chanel 2 Note On - Duracao: 336060 Nota: C1 Vol.: 60
Chanel 5 Note Off - Duracao: 336480 Nota: C1 Vol.: 48
Chanel 5 Note On - Duracao: 336480 Nota: C1 Vol.: 45
Chanel 4 Note Off - Duracao: 336960 Nota: C1 Vol.: 52
Chanel 4 Note On - Duracao: 336960 Nota: C1 Vol.: 60
Chanel 2 Note Off - Duracao: 337020 Nota: C1 Vol.: 60
Chanel 2 Note On - Duracao: 337020 Nota: C1 Vol.: 53
Chanel 8 Note Off - Duracao: 337680 Nota: C1 Vol.: 48
Chanel 8 Note On - Duracao: 337680 Nota: C1 Vol.: 40
Chanel 9 Note Off - Duracao: 337680 Nota: C1 Vol.: 49
Chanel 9 Note On - Duracao: 337680 Nota: C1 Vol.: 42
Chanel 1 Note Off - Duracao: 337740 Nota: C1 Vol.: 50
Chanel 1 Note On - Duracao: 337740 Nota: C1 Vol.: 53
Chanel 7 Note Off - Duracao: 338820 Nota: C1 Vol.: 47
Chanel 7 Note On - Duracao: 338820 Nota: C1 Vol.: 44
Chanel 4 Note Off - Duracao: 338880 Nota: C1 Vol.: 60
Chanel 4 Note On - Duracao: 338880 Nota: C1 Vol.: 81
Chanel 2 Note Off - Duracao: 338940 Nota: C1 Vol.: 53
Chanel 2 Note On - Duracao: 338940 Nota: C1 Vol.: 56
Chanel 4 Note Off - Duracao: 339360 Nota: C1 Vol.: 81
Chanel 4 Note On - Duracao: 339360 Nota: C1 Vol.: 100
Chanel 4 Note Off - Duracao: 339480 Nota: C1 Vol.: 100
Chanel 4 Note On - Duracao: 339480 Nota: C1 Vol.: 100
Chanel 4 Note Off - Duracao: 339600 Nota: C1 Vol.: 100
Chanel 4 Note On - Duracao: 339600 Nota: C1 Vol.: 91
Chanel 1 Note Off - Duracao: 339660 Nota: C1 Vol.: 53
Chanel 1 Note On - Duracao: 339660 Nota: C1 Vol.: 50
Chanel 4 Note Off - Duracao: 339840 Nota: C1 Vol.: 91
Chanel 4 Note On - Duracao: 339840 Nota: C1 Vol.: 61
Chanel 6 Note Off - Duracao: 339840 Nota: C1 Vol.: 40
Chanel 6 Note On - Duracao: 339840 Nota: C1 Vol.: 40
Chanel 2 Note Off - Duracao: 339900 Nota: C1 Vol.: 56
Chanel 2 Note On - Duracao: 339900 Nota: C1 Vol.: 57
Chanel 5 Note Off - Duracao: 340320 Nota: C1 Vol.: 45
Chanel 5 Note On - Duracao: 340320 Nota: C1 Vol.: 44
Chanel 2 Note Off - Duracao: 340860 Nota: C1 Vol.: 57
Chanel 2 Note On - Duracao: 340860 Nota: C1 Vol.: 81
Chanel 2 Note Off - Duracao: 341100 Nota: C1 Vol.: 81
Chanel 2 Note On - Duracao: 341100 Nota: C1 Vol.: 98
Chanel 2 Note Off - Duracao: 341220 Nota: C1 Vol.: 98
Chanel 2 Note On - Duracao: 341220 Nota: C1 Vol.: 78
Chanel 8 Note Off - Duracao: 341520 Nota: C1 Vol.: 40
Chanel 8 Note On - Duracao: 341520 Nota: C1 Vol.: 40
Chanel 9 Note Off - Duracao: 341520 Nota: C1 Vol.: 42
Chanel 9 Note On - Duracao: 341520 Nota: C1 Vol.: 44
Chanel 1 Note Off - Duracao: 341580 Nota: C1 Vol.: 50
Chanel 1 Note On - Duracao: 341580 Nota: C1 Vol.: 51
Chanel 2 Note Off - Duracao: 341700 Nota: C1 Vol.: 78
Chanel 2 Note On - Duracao: 341700 Nota: C1 Vol.: 73
Chanel 4 Note Off - Duracao: 341760 Nota: C1 Vol.: 61
Chanel 4 Note On - Duracao: 341760 Nota: C1 Vol.: 69
Chanel 2 Note Off - Duracao: 342180 Nota: C1 Vol.: 73
Chanel 2 Note On - Duracao: 342180 Nota: C1 Vol.: 99
Chanel 2 Note Off - Duracao: 342300 Nota: C1 Vol.: 99
Chanel 2 Note On - Duracao: 342300 Nota: C1 Vol.: 90
Chanel 2 Note Off - Duracao: 342420 Nota: C1 Vol.: 90
Chanel 2 Note On - Duracao: 342420 Nota: C1 Vol.: 57
Chanel 7 Note Off - Duracao: 342660 Nota: C1 Vol.: 44
Chanel 7 Note On - Duracao: 342660 Nota: C1 Vol.: 43
Chanel 4 Note Off - Duracao: 342720 Nota: C1 Vol.: 69
Chanel 4 Note On - Duracao: 342720 Nota: C1 Vol.: 90
Chanel 4 Note Off - Duracao: 342960 Nota: C1 Vol.: 90
Chanel 4 Note On - Duracao: 342960 Nota: C1 Vol.: 100
Chanel 4 Note Off - Duracao: 343080 Nota: C1 Vol.: 100
Chanel 4 Note On - Duracao: 343080 Nota: C1 Vol.: 95
Chanel 4 Note Off - Duracao: 343200 Nota: C1 Vol.: 95
Chanel 4 Note On - Duracao: 343200 Nota: C1 Vol.: 84
Chanel 4 Note Off - Duracao: 343440 Nota: C1 Vol.: 84
Chanel 4 Note On - Duracao: 343440 Nota: C1 Vol.: 52
Chanel 8 Note Off - Duracao: 343440 Nota: C1 Vol.: 40
Chanel 8 Note On - Duracao: 343440 Nota: C1 Vol.: 40
Chanel 1 Note Off - Duracao: 343500 Nota: C1 Vol.: 51
Chanel 1 Note On - Duracao: 343500 Nota: C1 Vol.: 51
Chanel 6 Note Off - Duracao: 343680 Nota: C1 Vol.: 40
Chanel 6 Note On - Duracao: 343680 Nota: C1 Vol.: 40
Chanel 5 Note Off - Duracao: 344160 Nota: C1 Vol.: 44
Chanel 5 Note On - Duracao: 344160 Nota: C1 Vol.: 46
Chanel 2 Note Off - Duracao: 344340 Nota: C1 Vol.: 57
Chanel 2 Note On - Duracao: 344340 Nota: C1 Vol.: 46
Chanel 8 Note Off - Duracao: 344400 Nota: C1 Vol.: 40
Chanel 8 Note On - Duracao: 344400 Nota: C1 Vol.: 49
Chanel 1 Note Off - Duracao: 344460 Nota: C1 Vol.: 51
Chanel 1 Note On - Duracao: 344460 Nota: C1 Vol.: 51
Chanel 8 Note Off - Duracao: 344880 Nota: C1 Vol.: 49
Chanel 8 Note On - Duracao: 344880 Nota: C1 Vol.: 63
Chanel 8 Note Off - Duracao: 345120 Nota: C1 Vol.: 63
Chanel 8 Note On - Duracao: 345120 Nota: C1 Vol.: 56
Chanel 4 Note Off - Duracao: 345360 Nota: C1 Vol.: 52
Chanel 4 Note On - Duracao: 345360 Nota: C1 Vol.: 43
Chanel 9 Note Off - Duracao: 345360 Nota: C1 Vol.: 44
Chanel 9 Note On - Duracao: 345360 Nota: C1 Vol.: 43
Chanel 8 Note Off - Duracao: 345600 Nota: C1 Vol.: 56
Chanel 8 Note On - Duracao: 345600 Nota: C1 Vol.: 77
Chanel 5 Note Off - Duracao: 346080 Nota: C1 Vol.: 46
Chanel 5 Note On - Duracao: 346080 Nota: C1 Vol.: 55
Chanel 8 Note Off - Duracao: 346080 Nota: C1 Vol.: 77
Chanel 8 Note On - Duracao: 346080 Nota: C1 Vol.: 95
Chanel 8 Note Off - Duracao: 346200 Nota: C1 Vol.: 95
Chanel 8 Note On - Duracao: 346200 Nota: C1 Vol.: 100
Chanel 8 Note Off - Duracao: 346320 Nota: C1 Vol.: 100
Chanel 8 Note On - Duracao: 346320 Nota: C1 Vol.: 79
Chanel 1 Note Off - Duracao: 346380 Nota: C1 Vol.: 51
Chanel 1 Note On - Duracao: 346380 Nota: C1 Vol.: 51
Chanel 7 Note Off - Duracao: 346500 Nota: C1 Vol.: 43
Chanel 7 Note On - Duracao: 346500 Nota: C1 Vol.: 46
Chanel 8 Note Off - Duracao: 346800 Nota: C1 Vol.: 79
Chanel 8 Note On - Duracao: 346800 Nota: C1 Vol.: 70
Chanel 5 Note Off - Duracao: 347040 Nota: C1 Vol.: 55
Chanel 5 Note On - Duracao: 347040 Nota: C1 Vol.: 40
Chanel 6 Note Off - Duracao: 347520 Nota: C1 Vol.: 40
Chanel 6 Note On - Duracao: 347520 Nota: C1 Vol.: 40
Chanel 2 Note Off - Duracao: 348180 Nota: C1 Vol.: 46
Chanel 2 Note On - Duracao: 348180 Nota: C1 Vol.: 44
Chanel 1 Note Off - Duracao: 348300 Nota: C1 Vol.: 51
Chanel 1 Note On - Duracao: 348300 Nota: C1 Vol.: 50
Chanel 8 Note Off - Duracao: 348720 Nota: C1 Vol.: 70
Chanel 8 Note On - Duracao: 348720 Nota: C1 Vol.: 79
Chanel 4 Note Off - Duracao: 349200 Nota: C1 Vol.: 43
Chanel 4 Note On - Duracao: 349200 Nota: C1 Vol.: 43
Chanel 9 Note Off - Duracao: 349200 Nota: C1 Vol.: 43
Chanel 9 Note On - Duracao: 349200 Nota: C1 Vol.: 43
Chanel 8 Note Off - Duracao: 349680 Nota: C1 Vol.: 79
Chanel 8 Note On - Duracao: 349680 Nota: C1 Vol.: 80
Chanel 1 Note Off - Duracao: 350220 Nota: C1 Vol.: 50
Chanel 1 Note On - Duracao: 350220 Nota: C1 Vol.: 52
Chanel 7 Note Off - Duracao: 350340 Nota: C1 Vol.: 46
Chanel 7 Note On - Duracao: 350340 Nota: C1 Vol.: 45
Chanel 8 Note Off - Duracao: 350640 Nota: C1 Vol.: 80
Chanel 8 Note On - Duracao: 350640 Nota: C1 Vol.: 83
Chanel 5 Note Off - Duracao: 350880 Nota: C1 Vol.: 40
Chanel 5 Note On - Duracao: 350880 Nota: C1 Vol.: 53
Chanel 8 Note Off - Duracao: 351120 Nota: C1 Vol.: 83
Chanel 8 Note On - Duracao: 351120 Nota: C1 Vol.: 50
Chanel 6 Note Off - Duracao: 351360 Nota: C1 Vol.: 40
Chanel 6 Note On - Duracao: 351360 Nota: C1 Vol.: 43
Chanel 5 Note Off - Duracao: 351840 Nota: C1 Vol.: 53
Chanel 5 Note On - Duracao: 351840 Nota: C1 Vol.: 54
Chanel 2 Note Off - Duracao: 352020 Nota: C1 Vol.: 44
Chanel 2 Note On - Duracao: 352020 Nota: C1 Vol.: 75
Chanel 1 Note Off - Duracao: 352140 Nota: C1 Vol.: 52
Chanel 1 Note On - Duracao: 352140 Nota: C1 Vol.: 50
Chanel 2 Note Off - Duracao: 352260 Nota: C1 Vol.: 75
Chanel 2 Note On - Duracao: 352260 Nota: C1 Vol.: 73
Chanel 2 Note Off - Duracao: 352500 Nota: C1 Vol.: 73
Chanel 2 Note On - Duracao: 352500 Nota: C1 Vol.: 46
Chanel 5 Note Off - Duracao: 352800 Nota: C1 Vol.: 54
Chanel 5 Note On - Duracao: 352800 Nota: C1 Vol.: 50
Chanel 4 Note Off - Duracao: 353040 Nota: C1 Vol.: 43
Chanel 4 Note On - Duracao: 353040 Nota: C1 Vol.: 45
Chanel 9 Note Off - Duracao: 353040 Nota: C1 Vol.: 43
Chanel 9 Note On - Duracao: 353040 Nota: C1 Vol.: 47
Chanel 6 Note Off - Duracao: 353280 Nota: C1 Vol.: 43
Chanel 6 Note On - Duracao: 353280 Nota: C1 Vol.: 48
Chanel 5 Note Off - Duracao: 353760 Nota: C1 Vol.: 50
Chanel 5 Note On - Duracao: 353760 Nota: C1 Vol.: 40
Chanel 1 Note Off - Duracao: 354060 Nota: C1 Vol.: 50
Chanel 1 Note On - Duracao: 354060 Nota: C1 Vol.: 44
Chanel 7 Note Off - Duracao: 354180 Nota: C1 Vol.: 45
Chanel 7 Note On - Duracao: 354180 Nota: C1 Vol.: 42
Chanel 2 Note Off - Duracao: 354420 Nota: C1 Vol.: 46
Chanel 2 Note On - Duracao: 354420 Nota: C1 Vol.: 61
Chanel 2 Note Off - Duracao: 354900 Nota: C1 Vol.: 61
Chanel 2 Note On - Duracao: 354900 Nota: C1 Vol.: 72
Chanel 8 Note Off - Duracao: 354960 Nota: C1 Vol.: 50
Chanel 8 Note On - Duracao: 354960 Nota: C1 Vol.: 44
Chanel 2 Note Off - Duracao: 355140 Nota: C1 Vol.: 72
Chanel 2 Note On - Duracao: 355140 Nota: C1 Vol.: 64
Chanel 6 Note Off - Duracao: 355200 Nota: C1 Vol.: 48
Chanel 6 Note On - Duracao: 355200 Nota: C1 Vol.: 43
Chanel 1 Note Off - Duracao: 355980 Nota: C1 Vol.: 44
Chanel 1 Note On - Duracao: 355980 Nota: C1 Vol.: 43
Chanel 2 Note Off - Duracao: 356100 Nota: C1 Vol.: 64
Chanel 2 Note On - Duracao: 356100 Nota: C1 Vol.: 76
Chanel 2 Note Off - Duracao: 356580 Nota: C1 Vol.: 76
Chanel 2 Note On - Duracao: 356580 Nota: C1 Vol.: 74
Chanel 4 Note Off - Duracao: 356880 Nota: C1 Vol.: 45
Chanel 4 Note On - Duracao: 356880 Nota: C1 Vol.: 40
Chanel 9 Note Off - Duracao: 356880 Nota: C1 Vol.: 47
Chanel 9 Note On - Duracao: 356880 Nota: C1 Vol.: 83
Chanel 9 Note Off - Duracao: 357120 Nota: C1 Vol.: 83
Chanel 9 Note On - Duracao: 357120 Nota: C1 Vol.: 76
Chanel 9 Note Off - Duracao: 357360 Nota: C1 Vol.: 76
Chanel 9 Note On - Duracao: 357360 Nota: C1 Vol.: 56
Chanel 2 Note Off - Duracao: 357540 Nota: C1 Vol.: 74
Chanel 2 Note On - Duracao: 357540 Nota: C1 Vol.: 77
Chanel 5 Note Off - Duracao: 357600 Nota: C1 Vol.: 40
Chanel 5 Note On - Duracao: 357600 Nota: C1 Vol.: 54
Chanel 1 Note Off - Duracao: 357900 Nota: C1 Vol.: 43
Chanel 1 Note On - Duracao: 357900 Nota: C1 Vol.: 51
Chanel 2 Note Off - Duracao: 358020 Nota: C1 Vol.: 77
Chanel 2 Note On - Duracao: 358020 Nota: C1 Vol.: 75
Chanel 7 Note Off - Duracao: 358020 Nota: C1 Vol.: 42
Chanel 7 Note On - Duracao: 358020 Nota: C1 Vol.: 40
Chanel 2 Note Off - Duracao: 358500 Nota: C1 Vol.: 75
Chanel 2 Note On - Duracao: 358500 Nota: C1 Vol.: 63
Chanel 5 Note Off - Duracao: 358560 Nota: C1 Vol.: 54
Chanel 5 Note On - Duracao: 358560 Nota: C1 Vol.: 50
Chanel 8 Note Off - Duracao: 358800 Nota: C1 Vol.: 44
Chanel 8 Note On - Duracao: 358800 Nota: C1 Vol.: 44
Chanel 1 Note Off - Duracao: 358860 Nota: C1 Vol.: 51
Chanel 1 Note On - Duracao: 358860 Nota: C1 Vol.: 47
Chanel 6 Note Off - Duracao: 359040 Nota: C1 Vol.: 43
Chanel 6 Note On - Duracao: 359040 Nota: C1 Vol.: 42
Chanel 9 Note Off - Duracao: 359280 Nota: C1 Vol.: 56
Chanel 9 Note On - Duracao: 359280 Nota: C1 Vol.: 56
Chanel 2 Note Off - Duracao: 359460 Nota: C1 Vol.: 63
Chanel 2 Note On - Duracao: 359460 Nota: C1 Vol.: 69
Chanel 2 Note Off - Duracao: 359940 Nota: C1 Vol.: 69
Chanel 2 Note On - Duracao: 359940 Nota: C1 Vol.: 81
Chanel 2 Note Off - Duracao: 360180 Nota: C1 Vol.: 81
Chanel 2 Note On - Duracao: 360180 Nota: C1 Vol.: 60
Chanel 5 Note Off - Duracao: 360480 Nota: C1 Vol.: 50
Chanel 5 Note On - Duracao: 360480 Nota: C1 Vol.: 51
Chanel 2 Note Off - Duracao: 360660 Nota: C1 Vol.: 60
Chanel 2 Note On - Duracao: 360660 Nota: C1 Vol.: 54
Chanel 4 Note Off - Duracao: 360720 Nota: C1 Vol.: 40
Chanel 4 Note On - Duracao: 360720 Nota: C1 Vol.: 43
Chanel 1 Note Off - Duracao: 360780 Nota: C1 Vol.: 47
Chanel 1 Note On - Duracao: 360780 Nota: C1 Vol.: 48
Chanel 9 Note Off - Duracao: 361200 Nota: C1 Vol.: 56
Chanel 9 Note On - Duracao: 361200 Nota: C1 Vol.: 65
Chanel 2 Note Off - Duracao: 361620 Nota: C1 Vol.: 54
Chanel 2 Note On - Duracao: 361620 Nota: C1 Vol.: 45
Chanel 1 Note Off - Duracao: 361740 Nota: C1 Vol.: 48
Chanel 1 Note On - Duracao: 361740 Nota: C1 Vol.: 54
Chanel 7 Note Off - Duracao: 361860 Nota: C1 Vol.: 40
Chanel 7 Note On - Duracao: 361860 Nota: C1 Vol.: 40
Chanel 1 Note Off - Duracao: 362220 Nota: C1 Vol.: 54
Chanel 5 Note Off - Duracao: 362400 Nota: C1 Vol.: 51
Chanel 5 Note On - Duracao: 362400 Nota: C1 Vol.: 68
Chanel 5 Note Off - Duracao: 362640 Nota: C1 Vol.: 68
Chanel 5 Note On - Duracao: 362640 Nota: C1 Vol.: 40
Chanel 8 Note Off - Duracao: 362640 Nota: C1 Vol.: 44
Chanel 8 Note On - Duracao: 362640 Nota: C1 Vol.: 48
Chanel 6 Note Off - Duracao: 362880 Nota: C1 Vol.: 42
Chanel 6 Note On - Duracao: 362880 Nota: C1 Vol.: 41
Chanel 9 Note Off - Duracao: 363120 Nota: C1 Vol.: 65
Chanel 9 Note On - Duracao: 363120 Nota: C1 Vol.: 67
Chanel 2 Note Off - Duracao: 363540 Nota: C1 Vol.: 45
Chanel 2 Note On - Duracao: 363540 Nota: C1 Vol.: 45
Chanel 5 Note Off - Duracao: 363600 Nota: C1 Vol.: 40
Chanel 5 Note On - Duracao: 363600 Nota: C1 Vol.: 58
Chanel 5 Note Off - Duracao: 363840 Nota: C1 Vol.: 58
Chanel 5 Note On - Duracao: 363840 Nota: C1 Vol.: 52
Chanel 4 Note Off - Duracao: 364560 Nota: C1 Vol.: 43
Chanel 4 Note On - Duracao: 364560 Nota: C1 Vol.: 43
Chanel 8 Note Off - Duracao: 364560 Nota: C1 Vol.: 48
Chanel 8 Note On - Duracao: 364560 Nota: C1 Vol.: 49
Chanel 5 Note Off - Duracao: 364800 Nota: C1 Vol.: 52
Chanel 5 Note On - Duracao: 364800 Nota: C1 Vol.: 40
Chanel 9 Note Off - Duracao: 365040 Nota: C1 Vol.: 67
Chanel 9 Note On - Duracao: 365040 Nota: C1 Vol.: 70
Chanel 2 Note Off - Duracao: 365460 Nota: C1 Vol.: 45
Chanel 2 Note On - Duracao: 365460 Nota: C1 Vol.: 49
Chanel 7 Note Off - Duracao: 365700 Nota: C1 Vol.: 40
Chanel 7 Note On - Duracao: 365700 Nota: C1 Vol.: 40
Chanel 6 Note Off - Duracao: 366720 Nota: C1 Vol.: 41
Chanel 6 Note On - Duracao: 366720 Nota: C1 Vol.: 58
Chanel 9 Note Off - Duracao: 366960 Nota: C1 Vol.: 70
Chanel 9 Note On - Duracao: 366960 Nota: C1 Vol.: 68
Chanel 2 Note Off - Duracao: 367380 Nota: C1 Vol.: 49
Chanel 2 Note On - Duracao: 367380 Nota: C1 Vol.: 49
Chanel 4 Note Off - Duracao: 368400 Nota: C1 Vol.: 43
Chanel 4 Note On - Duracao: 368400 Nota: C1 Vol.: 64
Chanel 8 Note Off - Duracao: 368400 Nota: C1 Vol.: 49
Chanel 8 Note On - Duracao: 368400 Nota: C1 Vol.: 49
Chanel 5 Note Off - Duracao: 368640 Nota: C1 Vol.: 40
Chanel 5 Note On - Duracao: 368640 Nota: C1 Vol.: 48
Chanel 6 Note Off - Duracao: 368640 Nota: C1 Vol.: 58
Chanel 6 Note On - Duracao: 368640 Nota: C1 Vol.: 55
Chanel 9 Note Off - Duracao: 368880 Nota: C1 Vol.: 68
Chanel 9 Note On - Duracao: 368880 Nota: C1 Vol.: 72
Chanel 2 Note Off - Duracao: 369300 Nota: C1 Vol.: 49
Chanel 2 Note On - Duracao: 369300 Nota: C1 Vol.: 56
Chanel 4 Note Off - Duracao: 369360 Nota: C1 Vol.: 64
Chanel 4 Note On - Duracao: 369360 Nota: C1 Vol.: 56
Chanel 7 Note Off - Duracao: 369540 Nota: C1 Vol.: 40
Chanel 7 Note On - Duracao: 369540 Nota: C1 Vol.: 43
Chanel 9 Note Off - Duracao: 369840 Nota: C1 Vol.: 72
Chanel 9 Note On - Duracao: 369840 Nota: C1 Vol.: 72
Chanel 5 Note Off - Duracao: 370560 Nota: C1 Vol.: 48
Chanel 5 Note On - Duracao: 370560 Nota: C1 Vol.: 67
Chanel 6 Note Off - Duracao: 370560 Nota: C1 Vol.: 55
Chanel 6 Note On - Duracao: 370560 Nota: C1 Vol.: 55
Chanel 9 Note Off - Duracao: 370800 Nota: C1 Vol.: 72
Chanel 9 Note On - Duracao: 370800 Nota: C1 Vol.: 68
Chanel 5 Note Off - Duracao: 371040 Nota: C1 Vol.: 67
Chanel 5 Note On - Duracao: 371040 Nota: C1 Vol.: 68
Chanel 2 Note Off - Duracao: 371220 Nota: C1 Vol.: 56
Chanel 2 Note On - Duracao: 371220 Nota: C1 Vol.: 53
Chanel 4 Note Off - Duracao: 371280 Nota: C1 Vol.: 56
Chanel 4 Note On - Duracao: 371280 Nota: C1 Vol.: 62
Chanel 5 Note Off - Duracao: 371280 Nota: C1 Vol.: 68
Chanel 5 Note On - Duracao: 371280 Nota: C1 Vol.: 53
Chanel 9 Note Off - Duracao: 371760 Nota: C1 Vol.: 68
Chanel 9 Note On - Duracao: 371760 Nota: C1 Vol.: 57
Chanel 5 Note Off - Duracao: 372240 Nota: C1 Vol.: 53
Chanel 5 Note On - Duracao: 372240 Nota: C1 Vol.: 59
Chanel 8 Note Off - Duracao: 372240 Nota: C1 Vol.: 49
Chanel 8 Note On - Duracao: 372240 Nota: C1 Vol.: 47
Chanel 6 Note Off - Duracao: 372480 Nota: C1 Vol.: 55
Chanel 6 Note On - Duracao: 372480 Nota: C1 Vol.: 47
Chanel 4 Note Off - Duracao: 373200 Nota: C1 Vol.: 62
Chanel 4 Note On - Duracao: 373200 Nota: C1 Vol.: 81
Chanel 5 Note Off - Duracao: 373200 Nota: C1 Vol.: 59
Chanel 5 Note On - Duracao: 373200 Nota: C1 Vol.: 62
Chanel 7 Note Off - Duracao: 373380 Nota: C1 Vol.: 43
Chanel 7 Note On - Duracao: 373380 Nota: C1 Vol.: 47
Chanel 4 Note Off - Duracao: 373680 Nota: C1 Vol.: 81
Chanel 4 Note On - Duracao: 373680 Nota: C1 Vol.: 72
Chanel 9 Note Off - Duracao: 373680 Nota: C1 Vol.: 57
Chanel 9 Note On - Duracao: 373680 Nota: C1 Vol.: 65
Chanel 4 Note Off - Duracao: 374160 Nota: C1 Vol.: 72
Chanel 4 Note On - Duracao: 374160 Nota: C1 Vol.: 47
Chanel 5 Note Off - Duracao: 374160 Nota: C1 Vol.: 62
Chanel 5 Note On - Duracao: 374160 Nota: C1 Vol.: 51
Chanel 6 Note Off - Duracao: 374400 Nota: C1 Vol.: 47
Chanel 6 Note On - Duracao: 374400 Nota: C1 Vol.: 45
Chanel 9 Note Off - Duracao: 374640 Nota: C1 Vol.: 65
Chanel 9 Note On - Duracao: 374640 Nota: C1 Vol.: 61
Chanel 2 Note Off - Duracao: 375060 Nota: C1 Vol.: 53
Chanel 2 Note On - Duracao: 375060 Nota: C1 Vol.: 51
Chanel 4 Note Off - Duracao: 376080 Nota: C1 Vol.: 47
Chanel 4 Note On - Duracao: 376080 Nota: C1 Vol.: 48
Chanel 5 Note Off - Duracao: 376080 Nota: C1 Vol.: 51
Chanel 5 Note On - Duracao: 376080 Nota: C1 Vol.: 48
Chanel 8 Note Off - Duracao: 376080 Nota: C1 Vol.: 47
Chanel 8 Note On - Duracao: 376080 Nota: C1 Vol.: 43
Chanel 6 Note Off - Duracao: 376320 Nota: C1 Vol.: 45
Chanel 6 Note On - Duracao: 376320 Nota: C1 Vol.: 46
Chanel 9 Note Off - Duracao: 376560 Nota: C1 Vol.: 61
Chanel 9 Note On - Duracao: 376560 Nota: C1 Vol.: 57
Chanel 2 Note Off - Duracao: 376980 Nota: C1 Vol.: 51
Chanel 2 Note On - Duracao: 376980 Nota: C1 Vol.: 52
Chanel 7 Note Off - Duracao: 377220 Nota: C1 Vol.: 47
Chanel 7 Note On - Duracao: 377220 Nota: C1 Vol.: 48
Chanel 4 Note Off - Duracao: 378000 Nota: C1 Vol.: 48
Chanel 4 Note On - Duracao: 378000 Nota: C1 Vol.: 55
Chanel 6 Note Off - Duracao: 378240 Nota: C1 Vol.: 46
Chanel 6 Note On - Duracao: 378240 Nota: C1 Vol.: 51
Chanel 9 Note Off - Duracao: 378480 Nota: C1 Vol.: 57
Chanel 9 Note On - Duracao: 378480 Nota: C1 Vol.: 51
Chanel 2 Note Off - Duracao: 378900 Nota: C1 Vol.: 52
Chanel 2 Note On - Duracao: 378900 Nota: C1 Vol.: 52
Chanel 4 Note Off - Duracao: 379920 Nota: C1 Vol.: 55
Chanel 4 Note On - Duracao: 379920 Nota: C1 Vol.: 53
Chanel 5 Note Off - Duracao: 379920 Nota: C1 Vol.: 48
Chanel 5 Note On - Duracao: 379920 Nota: C1 Vol.: 42
Chanel 8 Note Off - Duracao: 379920 Nota: C1 Vol.: 43
Chanel 8 Note On - Duracao: 379920 Nota: C1 Vol.: 43
Chanel 6 Note Off - Duracao: 380160 Nota: C1 Vol.: 51
Chanel 6 Note On - Duracao: 380160 Nota: C1 Vol.: 62
Chanel 2 Note Off - Duracao: 380820 Nota: C1 Vol.: 52
Chanel 2 Note On - Duracao: 380820 Nota: C1 Vol.: 65
Chanel 7 Note Off - Duracao: 381060 Nota: C1 Vol.: 48
Chanel 7 Note On - Duracao: 381060 Nota: C1 Vol.: 43
Chanel 6 Note Off - Duracao: 381120 Nota: C1 Vol.: 62
Chanel 6 Note On - Duracao: 381120 Nota: C1 Vol.: 95
Chanel 2 Note Off - Duracao: 381300 Nota: C1 Vol.: 65
Chanel 2 Note On - Duracao: 381300 Nota: C1 Vol.: 53
Chanel 6 Note Off - Duracao: 381360 Nota: C1 Vol.: 95
Chanel 6 Note On - Duracao: 381360 Nota: C1 Vol.: 100
Chanel 6 Note Off - Duracao: 381480 Nota: C1 Vol.: 100
Chanel 6 Note On - Duracao: 381480 Nota: C1 Vol.: 100
Chanel 6 Note Off - Duracao: 381720 Nota: C1 Vol.: 100
Chanel 6 Note On - Duracao: 381720 Nota: C1 Vol.: 76
Chanel 2 Note Off - Duracao: 382260 Nota: C1 Vol.: 53
Chanel 2 Note On - Duracao: 382260 Nota: C1 Vol.: 46
Chanel 9 Note Off - Duracao: 382320 Nota: C1 Vol.: 51
Chanel 9 Note On - Duracao: 382320 Nota: C1 Vol.: 52
Chanel 6 Note Off - Duracao: 382680 Nota: C1 Vol.: 76
Chanel 6 Note On - Duracao: 382680 Nota: C1 Vol.: 58
Chanel 6 Note Off - Duracao: 383640 Nota: C1 Vol.: 58
Chanel 6 Note On - Duracao: 383640 Nota: C1 Vol.: 74
Chanel 4 Note Off - Duracao: 383760 Nota: C1 Vol.: 53
Chanel 4 Note On - Duracao: 383760 Nota: C1 Vol.: 52
Chanel 5 Note Off - Duracao: 383760 Nota: C1 Vol.: 42
Chanel 5 Note On - Duracao: 383760 Nota: C1 Vol.: 41
Chanel 8 Note Off - Duracao: 383760 Nota: C1 Vol.: 43
Chanel 8 Note On - Duracao: 383760 Nota: C1 Vol.: 42
Chanel 6 Note Off - Duracao: 383880 Nota: C1 Vol.: 74
Chanel 6 Note On - Duracao: 383880 Nota: C1 Vol.: 65
Chanel 2 Note Off - Duracao: 384180 Nota: C1 Vol.: 46
Chanel 2 Note On - Duracao: 384180 Nota: C1 Vol.: 50
Chanel 6 Note Off - Duracao: 384360 Nota: C1 Vol.: 65
Chanel 6 Note On - Duracao: 384360 Nota: C1 Vol.: 87
Chanel 6 Note Off - Duracao: 384480 Nota: C1 Vol.: 87
Chanel 6 Note On - Duracao: 384480 Nota: C1 Vol.: 87
Chanel 6 Note Off - Duracao: 384600 Nota: C1 Vol.: 87
Chanel 6 Note On - Duracao: 384600 Nota: C1 Vol.: 75
Chanel 6 Note Off - Duracao: 384840 Nota: C1 Vol.: 75
Chanel 6 Note On - Duracao: 384840 Nota: C1 Vol.: 62
Chanel 7 Note Off - Duracao: 384900 Nota: C1 Vol.: 43
Chanel 7 Note On - Duracao: 384900 Nota: C1 Vol.: 41
Chanel 6 Note Off - Duracao: 385320 Nota: C1 Vol.: 62
Chanel 6 Note On - Duracao: 385320 Nota: C1 Vol.: 62
Chanel 6 Note Off - Duracao: 385800 Nota: C1 Vol.: 62
Chanel 6 Note On - Duracao: 385800 Nota: C1 Vol.: 49
Chanel 2 Note Off - Duracao: 386100 Nota: C1 Vol.: 50
Chanel 2 Note On - Duracao: 386100 Nota: C1 Vol.: 57
Chanel 9 Note Off - Duracao: 386160 Nota: C1 Vol.: 52
Chanel 9 Note On - Duracao: 386160 Nota: C1 Vol.: 44
Chanel 2 Note Off - Duracao: 387060 Nota: C1 Vol.: 57
Chanel 2 Note On - Duracao: 387060 Nota: C1 Vol.: 82
Chanel 2 Note Off - Duracao: 387300 Nota: C1 Vol.: 82
Chanel 2 Note On - Duracao: 387300 Nota: C1 Vol.: 92
Chanel 2 Note Off - Duracao: 387420 Nota: C1 Vol.: 92
Chanel 2 Note On - Duracao: 387420 Nota: C1 Vol.: 70
Chanel 4 Note Off - Duracao: 387600 Nota: C1 Vol.: 52
Chanel 4 Note On - Duracao: 387600 Nota: C1 Vol.: 59
Chanel 5 Note Off - Duracao: 387600 Nota: C1 Vol.: 41
Chanel 5 Note On - Duracao: 387600 Nota: C1 Vol.: 41
Chanel 8 Note Off - Duracao: 387600 Nota: C1 Vol.: 42
Chanel 8 Note On - Duracao: 387600 Nota: C1 Vol.: 42
Chanel 6 Note Off - Duracao: 387720 Nota: C1 Vol.: 49
Chanel 6 Note On - Duracao: 387720 Nota: C1 Vol.: 48
Chanel 2 Note Off - Duracao: 387900 Nota: C1 Vol.: 70
Chanel 2 Note On - Duracao: 387900 Nota: C1 Vol.: 58
Chanel 7 Note Off - Duracao: 388740 Nota: C1 Vol.: 41
Chanel 7 Note On - Duracao: 388740 Nota: C1 Vol.: 57
Chanel 2 Note Off - Duracao: 388860 Nota: C1 Vol.: 58
Chanel 2 Note On - Duracao: 388860 Nota: C1 Vol.: 48
Chanel 4 Note Off - Duracao: 389520 Nota: C1 Vol.: 59
Chanel 4 Note On - Duracao: 389520 Nota: C1 Vol.: 86
Chanel 4 Note Off - Duracao: 389640 Nota: C1 Vol.: 86
Chanel 4 Note On - Duracao: 389640 Nota: C1 Vol.: 87
Chanel 6 Note Off - Duracao: 389640 Nota: C1 Vol.: 48
Chanel 6 Note On - Duracao: 389640 Nota: C1 Vol.: 49
Chanel 4 Note Off - Duracao: 389760 Nota: C1 Vol.: 87
Chanel 4 Note On - Duracao: 389760 Nota: C1 Vol.: 66
Chanel 9 Note Off - Duracao: 390000 Nota: C1 Vol.: 44
Chanel 9 Note On - Duracao: 390000 Nota: C1 Vol.: 44
Chanel 4 Note Off - Duracao: 390240 Nota: C1 Vol.: 66
Chanel 4 Note On - Duracao: 390240 Nota: C1 Vol.: 60
Chanel 6 Note Off - Duracao: 390600 Nota: C1 Vol.: 49
Chanel 6 Note On - Duracao: 390600 Nota: C1 Vol.: 53
Chanel 4 Note Off - Duracao: 390720 Nota: C1 Vol.: 60
Chanel 4 Note On - Duracao: 390720 Nota: C1 Vol.: 40
Chanel 2 Note Off - Duracao: 390780 Nota: C1 Vol.: 48
Chanel 2 Note On - Duracao: 390780 Nota: C1 Vol.: 44
Chanel 6 Note Off - Duracao: 391080 Nota: C1 Vol.: 53
Chanel 6 Note On - Duracao: 391080 Nota: C1 Vol.: 44
Chanel 5 Note Off - Duracao: 391440 Nota: C1 Vol.: 41
Chanel 5 Note On - Duracao: 391440 Nota: C1 Vol.: 44
Chanel 8 Note Off - Duracao: 391440 Nota: C1 Vol.: 42
Chanel 8 Note On - Duracao: 391440 Nota: C1 Vol.: 42
Chanel 7 Note Off - Duracao: 392580 Nota: C1 Vol.: 57
Chanel 7 Note On - Duracao: 392580 Nota: C1 Vol.: 52
Chanel 2 Note Off - Duracao: 392700 Nota: C1 Vol.: 44
Chanel 6 Note Off - Duracao: 393000 Nota: C1 Vol.: 44
Chanel 6 Note On - Duracao: 393000 Nota: C1 Vol.: 64
Chanel 6 Note Off - Duracao: 393480 Nota: C1 Vol.: 64
Chanel 6 Note On - Duracao: 393480 Nota: C1 Vol.: 58
Chanel 9 Note Off - Duracao: 393840 Nota: C1 Vol.: 44
Chanel 9 Note On - Duracao: 393840 Nota: C1 Vol.: 49
Chanel 6 Note Off - Duracao: 394440 Nota: C1 Vol.: 58
Chanel 6 Note On - Duracao: 394440 Nota: C1 Vol.: 55
Chanel 4 Note Off - Duracao: 394560 Nota: C1 Vol.: 40
Chanel 4 Note On - Duracao: 394560 Nota: C1 Vol.: 48
Chanel 5 Note Off - Duracao: 395280 Nota: C1 Vol.: 44
Chanel 5 Note On - Duracao: 395280 Nota: C1 Vol.: 41
Chanel 8 Note Off - Duracao: 395280 Nota: C1 Vol.: 42
Chanel 8 Note On - Duracao: 395280 Nota: C1 Vol.: 54
Chanel 6 Note Off - Duracao: 395400 Nota: C1 Vol.: 55
Chanel 6 Note On - Duracao: 395400 Nota: C1 Vol.: 56
Chanel 6 Note Off - Duracao: 396360 Nota: C1 Vol.: 56
Chanel 6 Note On - Duracao: 396360 Nota: C1 Vol.: 84
Chanel 7 Note Off - Duracao: 396420 Nota: C1 Vol.: 52
Chanel 7 Note On - Duracao: 396420 Nota: C1 Vol.: 52
Chanel 4 Note Off - Duracao: 396480 Nota: C1 Vol.: 48
Chanel 4 Note On - Duracao: 396480 Nota: C1 Vol.: 51
Chanel 6 Note Off - Duracao: 396480 Nota: C1 Vol.: 84
Chanel 6 Note On - Duracao: 396480 Nota: C1 Vol.: 87
Chanel 6 Note Off - Duracao: 396600 Nota: C1 Vol.: 87
Chanel 6 Note On - Duracao: 396600 Nota: C1 Vol.: 63
Chanel 6 Note Off - Duracao: 397560 Nota: C1 Vol.: 63
Chanel 6 Note On - Duracao: 397560 Nota: C1 Vol.: 72
Chanel 9 Note Off - Duracao: 397680 Nota: C1 Vol.: 49
Chanel 9 Note On - Duracao: 397680 Nota: C1 Vol.: 63
Chanel 6 Note Off - Duracao: 398040 Nota: C1 Vol.: 72
Chanel 6 Note On - Duracao: 398040 Nota: C1 Vol.: 67
Chanel 4 Note Off - Duracao: 398400 Nota: C1 Vol.: 51
Chanel 4 Note On - Duracao: 398400 Nota: C1 Vol.: 86
Chanel 6 Note Off - Duracao: 398520 Nota: C1 Vol.: 67
Chanel 6 Note On - Duracao: 398520 Nota: C1 Vol.: 48
Chanel 4 Note Off - Duracao: 398640 Nota: C1 Vol.: 86
Chanel 4 Note On - Duracao: 398640 Nota: C1 Vol.: 96
Chanel 4 Note Off - Duracao: 398760 Nota: C1 Vol.: 96
Chanel 4 Note On - Duracao: 398760 Nota: C1 Vol.: 93
Chanel 4 Note Off - Duracao: 398880 Nota: C1 Vol.: 93
Chanel 4 Note On - Duracao: 398880 Nota: C1 Vol.: 68
Chanel 5 Note Off - Duracao: 399120 Nota: C1 Vol.: 41
Chanel 5 Note On - Duracao: 399120 Nota: C1 Vol.: 40
Chanel 8 Note Off - Duracao: 399120 Nota: C1 Vol.: 54
Chanel 8 Note On - Duracao: 399120 Nota: C1 Vol.: 50
Chanel 4 Note Off - Duracao: 399360 Nota: C1 Vol.: 68
Chanel 4 Note On - Duracao: 399360 Nota: C1 Vol.: 66
Chanel 9 Note Off - Duracao: 399600 Nota: C1 Vol.: 63
Chanel 9 Note On - Duracao: 399600 Nota: C1 Vol.: 57
Chanel 4 Note Off - Duracao: 399840 Nota: C1 Vol.: 66
Chanel 4 Note On - Duracao: 399840 Nota: C1 Vol.: 85
Chanel 4 Note Off - Duracao: 400080 Nota: C1 Vol.: 85
Chanel 4 Note On - Duracao: 400080 Nota: C1 Vol.: 87
Chanel 4 Note Off - Duracao: 400200 Nota: C1 Vol.: 87
Chanel 4 Note On - Duracao: 400200 Nota: C1 Vol.: 73
Chanel 7 Note Off - Duracao: 400260 Nota: C1 Vol.: 52
Chanel 7 Note On - Duracao: 400260 Nota: C1 Vol.: 63
Chanel 6 Note Off - Duracao: 400440 Nota: C1 Vol.: 48
Chanel 6 Note On - Duracao: 400440 Nota: C1 Vol.: 42
Chanel 4 Note Off - Duracao: 400680 Nota: C1 Vol.: 73
Chanel 4 Note On - Duracao: 400680 Nota: C1 Vol.: 71
Chanel 4 Note Off - Duracao: 401160 Nota: C1 Vol.: 71
Chanel 4 Note On - Duracao: 401160 Nota: C1 Vol.: 58
Chanel 9 Note Off - Duracao: 401520 Nota: C1 Vol.: 57
Chanel 9 Note On - Duracao: 401520 Nota: C1 Vol.: 49
Chanel 4 Note Off - Duracao: 402120 Nota: C1 Vol.: 58
Chanel 4 Note On - Duracao: 402120 Nota: C1 Vol.: 55
Chanel 7 Note Off - Duracao: 402180 Nota: C1 Vol.: 63
Chanel 7 Note On - Duracao: 402180 Nota: C1 Vol.: 50
Chanel 6 Note Off - Duracao: 402360 Nota: C1 Vol.: 42
Chanel 6 Note On - Duracao: 402360 Nota: C1 Vol.: 42
Chanel 5 Note Off - Duracao: 402960 Nota: C1 Vol.: 40
Chanel 5 Note On - Duracao: 402960 Nota: C1 Vol.: 52
Chanel 8 Note Off - Duracao: 402960 Nota: C1 Vol.: 50
Chanel 8 Note On - Duracao: 402960 Nota: C1 Vol.: 51
Chanel 4 Note Off - Duracao: 403080 Nota: C1 Vol.: 55
Chanel 4 Note On - Duracao: 403080 Nota: C1 Vol.: 42
Chanel 6 Note Off - Duracao: 404280 Nota: C1 Vol.: 42
Chanel 6 Note On - Duracao: 404280 Nota: C1 Vol.: 56
Chanel 5 Note Off - Duracao: 404880 Nota: C1 Vol.: 52
Chanel 5 Note On - Duracao: 404880 Nota: C1 Vol.: 52
Chanel 6 Note Off - Duracao: 405240 Nota: C1 Vol.: 56
Chanel 6 Note On - Duracao: 405240 Nota: C1 Vol.: 43
Chanel 9 Note Off - Duracao: 405360 Nota: C1 Vol.: 49
Chanel 9 Note On - Duracao: 405360 Nota: C1 Vol.: 48
Chanel 7 Note Off - Duracao: 406020 Nota: C1 Vol.: 50
Chanel 7 Note On - Duracao: 406020 Nota: C1 Vol.: 51
Chanel 5 Note Off - Duracao: 406800 Nota: C1 Vol.: 52
Chanel 5 Note On - Duracao: 406800 Nota: C1 Vol.: 49
Chanel 8 Note Off - Duracao: 406800 Nota: C1 Vol.: 51
Chanel 8 Note On - Duracao: 406800 Nota: C1 Vol.: 52
Chanel 4 Note Off - Duracao: 406920 Nota: C1 Vol.: 42
Chanel 4 Note On - Duracao: 406920 Nota: C1 Vol.: 47
Chanel 6 Note Off - Duracao: 407160 Nota: C1 Vol.: 43
Chanel 6 Note On - Duracao: 407160 Nota: C1 Vol.: 42
Chanel 5 Note Off - Duracao: 408720 Nota: C1 Vol.: 49
Chanel 5 Note On - Duracao: 408720 Nota: C1 Vol.: 48
Chanel 8 Note Off - Duracao: 408720 Nota: C1 Vol.: 52
Chanel 8 Note On - Duracao: 408720 Nota: C1 Vol.: 46
Chanel 4 Note Off - Duracao: 408840 Nota: C1 Vol.: 47
Chanel 4 Note On - Duracao: 408840 Nota: C1 Vol.: 51
Chanel 6 Note Off - Duracao: 409080 Nota: C1 Vol.: 42
Chanel 6 Note On - Duracao: 409080 Nota: C1 Vol.: 40
Chanel 9 Note Off - Duracao: 409200 Nota: C1 Vol.: 48
Chanel 9 Note On - Duracao: 409200 Nota: C1 Vol.: 47
Chanel 7 Note Off - Duracao: 409860 Nota: C1 Vol.: 51
Chanel 7 Note On - Duracao: 409860 Nota: C1 Vol.: 49
Chanel 5 Note Off - Duracao: 410640 Nota: C1 Vol.: 48
Chanel 5 Note On - Duracao: 410640 Nota: C1 Vol.: 56
Chanel 4 Note Off - Duracao: 410760 Nota: C1 Vol.: 51
Chanel 4 Note On - Duracao: 410760 Nota: C1 Vol.: 51
Chanel 5 Note Off - Duracao: 411600 Nota: C1 Vol.: 56
Chanel 5 Note On - Duracao: 411600 Nota: C1 Vol.: 52
Chanel 5 Note Off - Duracao: 412560 Nota: C1 Vol.: 52
Chanel 5 Note On - Duracao: 412560 Nota: C1 Vol.: 46
Chanel 8 Note Off - Duracao: 412560 Nota: C1 Vol.: 46
Chanel 8 Note On - Duracao: 412560 Nota: C1 Vol.: 47
Chanel 4 Note Off - Duracao: 412680 Nota: C1 Vol.: 51
Chanel 4 Note On - Duracao: 412680 Nota: C1 Vol.: 66
Chanel 6 Note Off - Duracao: 412920 Nota: C1 Vol.: 40
Chanel 6 Note On - Duracao: 412920 Nota: C1 Vol.: 42
Chanel 9 Note Off - Duracao: 413040 Nota: C1 Vol.: 47
Chanel 9 Note On - Duracao: 413040 Nota: C1 Vol.: 49
Chanel 4 Note Off - Duracao: 413640 Nota: C1 Vol.: 66
Chanel 4 Note On - Duracao: 413640 Nota: C1 Vol.: 97
Chanel 7 Note Off - Duracao: 413700 Nota: C1 Vol.: 49
Chanel 7 Note On - Duracao: 413700 Nota: C1 Vol.: 52
Chanel 4 Note Off - Duracao: 413760 Nota: C1 Vol.: 97
Chanel 4 Note On - Duracao: 413760 Nota: C1 Vol.: 100
Chanel 4 Note Off - Duracao: 413820 Nota: C1 Vol.: 100
Chanel 4 Note On - Duracao: 413820 Nota: C1 Vol.: 97
Chanel 4 Note Off - Duracao: 413940 Nota: C1 Vol.: 97
Chanel 4 Note On - Duracao: 413940 Nota: C1 Vol.: 59
Chanel 4 Note Off - Duracao: 415860 Nota: C1 Vol.: 59
Chanel 4 Note On - Duracao: 415860 Nota: C1 Vol.: 53
Chanel 5 Note Off - Duracao: 416400 Nota: C1 Vol.: 46
Chanel 5 Note On - Duracao: 416400 Nota: C1 Vol.: 52
Chanel 8 Note Off - Duracao: 416400 Nota: C1 Vol.: 47
Chanel 8 Note On - Duracao: 416400 Nota: C1 Vol.: 45
Chanel 6 Note Off - Duracao: 416760 Nota: C1 Vol.: 42
Chanel 6 Note On - Duracao: 416760 Nota: C1 Vol.: 40
Chanel 9 Note Off - Duracao: 416880 Nota: C1 Vol.: 49
Chanel 9 Note On - Duracao: 416880 Nota: C1 Vol.: 75
Chanel 7 Note Off - Duracao: 417540 Nota: C1 Vol.: 52
Chanel 7 Note On - Duracao: 417540 Nota: C1 Vol.: 51
Chanel 4 Note Off - Duracao: 417780 Nota: C1 Vol.: 53
Chanel 4 Note On - Duracao: 417780 Nota: C1 Vol.: 63
Chanel 9 Note Off - Duracao: 417840 Nota: C1 Vol.: 75
Chanel 9 Note On - Duracao: 417840 Nota: C1 Vol.: 100
Chanel 9 Note Off - Duracao: 417960 Nota: C1 Vol.: 100
Chanel 9 Note On - Duracao: 417960 Nota: C1 Vol.: 90
Chanel 5 Note Off - Duracao: 418320 Nota: C1 Vol.: 52
Chanel 5 Note On - Duracao: 418320 Nota: C1 Vol.: 53
Chanel 9 Note Off - Duracao: 418440 Nota: C1 Vol.: 90
Chanel 9 Note On - Duracao: 418440 Nota: C1 Vol.: 79
Chanel 4 Note Off - Duracao: 418740 Nota: C1 Vol.: 63
Chanel 4 Note On - Duracao: 418740 Nota: C1 Vol.: 81
Chanel 4 Note Off - Duracao: 419220 Nota: C1 Vol.: 81
Chanel 4 Note On - Duracao: 419220 Nota: C1 Vol.: 88
Chanel 9 Note Off - Duracao: 419400 Nota: C1 Vol.: 79
Chanel 9 Note On - Duracao: 419400 Nota: C1 Vol.: 77
Chanel 4 Note Off - Duracao: 419460 Nota: C1 Vol.: 88
Chanel 4 Note On - Duracao: 419460 Nota: C1 Vol.: 86
Chanel 4 Note Off - Duracao: 419700 Nota: C1 Vol.: 86
Chanel 4 Note On - Duracao: 419700 Nota: C1 Vol.: 62
Chanel 5 Note Off - Duracao: 420240 Nota: C1 Vol.: 53
Chanel 5 Note On - Duracao: 420240 Nota: C1 Vol.: 47
Chanel 8 Note Off - Duracao: 420240 Nota: C1 Vol.: 45
Chanel 8 Note On - Duracao: 420240 Nota: C1 Vol.: 47
Chanel 9 Note Off - Duracao: 420360 Nota: C1 Vol.: 77
Chanel 9 Note On - Duracao: 420360 Nota: C1 Vol.: 74
Chanel 6 Note Off - Duracao: 420600 Nota: C1 Vol.: 40
Chanel 6 Note On - Duracao: 420600 Nota: C1 Vol.: 40
Chanel 4 Note Off - Duracao: 420660 Nota: C1 Vol.: 62
Chanel 4 Note On - Duracao: 420660 Nota: C1 Vol.: 51
Chanel 9 Note Off - Duracao: 421320 Nota: C1 Vol.: 74
Chanel 9 Note On - Duracao: 421320 Nota: C1 Vol.: 62
Chanel 7 Note Off - Duracao: 421380 Nota: C1 Vol.: 51
Chanel 7 Note On - Duracao: 421380 Nota: C1 Vol.: 57
Chanel 4 Note Off - Duracao: 421620 Nota: C1 Vol.: 51
Chanel 4 Note On - Duracao: 421620 Nota: C1 Vol.: 50
Chanel 4 Note Off - Duracao: 422580 Nota: C1 Vol.: 50
Chanel 4 Note On - Duracao: 422580 Nota: C1 Vol.: 42
Chanel 9 Note Off - Duracao: 423240 Nota: C1 Vol.: 62
Chanel 9 Note On - Duracao: 423240 Nota: C1 Vol.: 63
Chanel 5 Note Off - Duracao: 424080 Nota: C1 Vol.: 47
Chanel 5 Note On - Duracao: 424080 Nota: C1 Vol.: 45
Chanel 8 Note Off - Duracao: 424080 Nota: C1 Vol.: 47
Chanel 8 Note On - Duracao: 424080 Nota: C1 Vol.: 47
Chanel 6 Note Off - Duracao: 424440 Nota: C1 Vol.: 40
Chanel 6 Note On - Duracao: 424440 Nota: C1 Vol.: 42
Chanel 7 Note Off - Duracao: 425220 Nota: C1 Vol.: 57
Chanel 7 Note On - Duracao: 425220 Nota: C1 Vol.: 77
Chanel 7 Note Off - Duracao: 426180 Nota: C1 Vol.: 77
Chanel 7 Note On - Duracao: 426180 Nota: C1 Vol.: 89
Chanel 4 Note Off - Duracao: 426420 Nota: C1 Vol.: 42
Chanel 4 Note On - Duracao: 426420 Nota: C1 Vol.: 48
Chanel 7 Note Off - Duracao: 426420 Nota: C1 Vol.: 89
Chanel 7 Note On - Duracao: 426420 Nota: C1 Vol.: 100
Chanel 7 Note Off - Duracao: 426540 Nota: C1 Vol.: 100
Chanel 7 Note On - Duracao: 426540 Nota: C1 Vol.: 84
Chanel 7 Note Off - Duracao: 426780 Nota: C1 Vol.: 84
Chanel 7 Note On - Duracao: 426780 Nota: C1 Vol.: 49
Chanel 9 Note Off - Duracao: 427080 Nota: C1 Vol.: 63
Chanel 9 Note On - Duracao: 427080 Nota: C1 Vol.: 64
Chanel 5 Note Off - Duracao: 427920 Nota: C1 Vol.: 45
Chanel 5 Note On - Duracao: 427920 Nota: C1 Vol.: 47
Chanel 8 Note Off - Duracao: 427920 Nota: C1 Vol.: 47
Chanel 8 Note On - Duracao: 427920 Nota: C1 Vol.: 47
Chanel 6 Note Off - Duracao: 428280 Nota: C1 Vol.: 42
Chanel 6 Note On - Duracao: 428280 Nota: C1 Vol.: 42
Chanel 4 Note Off - Duracao: 428340 Nota: C1 Vol.: 48
Chanel 4 Note On - Duracao: 428340 Nota: C1 Vol.: 44
Chanel 7 Note Off - Duracao: 428700 Nota: C1 Vol.: 49
Chanel 7 Note On - Duracao: 428700 Nota: C1 Vol.: 47
Chanel 4 Note Off - Duracao: 430260 Nota: C1 Vol.: 44
Chanel 4 Note On - Duracao: 430260 Nota: C1 Vol.: 43
Chanel 9 Note Off - Duracao: 430920 Nota: C1 Vol.: 64
Chanel 9 Note On - Duracao: 430920 Nota: C1 Vol.: 63
Chanel 5 Note Off - Duracao: 431760 Nota: C1 Vol.: 47
Chanel 5 Note On - Duracao: 431760 Nota: C1 Vol.: 41
Chanel 8 Note Off - Duracao: 431760 Nota: C1 Vol.: 47
Chanel 8 Note On - Duracao: 431760 Nota: C1 Vol.: 51
Chanel 6 Note Off - Duracao: 432120 Nota: C1 Vol.: 42
Chanel 6 Note On - Duracao: 432120 Nota: C1 Vol.: 40
Chanel 4 Note Off - Duracao: 432180 Nota: C1 Vol.: 43
Chanel 4 Note On - Duracao: 432180 Nota: C1 Vol.: 61
Chanel 7 Note Off - Duracao: 432540 Nota: C1 Vol.: 47
Chanel 7 Note On - Duracao: 432540 Nota: C1 Vol.: 45
Chanel 4 Note Off - Duracao: 433140 Nota: C1 Vol.: 61
Chanel 4 Note On - Duracao: 433140 Nota: C1 Vol.: 58
Chanel 8 Note Off - Duracao: 433680 Nota: C1 Vol.: 51
Chanel 8 Note On - Duracao: 433680 Nota: C1 Vol.: 57
Chanel 4 Note Off - Duracao: 434100 Nota: C1 Vol.: 58
Chanel 4 Note On - Duracao: 434100 Nota: C1 Vol.: 61
Chanel 9 Note Off - Duracao: 434760 Nota: C1 Vol.: 63
Chanel 9 Note On - Duracao: 434760 Nota: C1 Vol.: 61
Chanel 5 Note Off - Duracao: 435600 Nota: C1 Vol.: 41
Chanel 5 Note On - Duracao: 435600 Nota: C1 Vol.: 46
Chanel 8 Note Off - Duracao: 435600 Nota: C1 Vol.: 57
Chanel 8 Note On - Duracao: 435600 Nota: C1 Vol.: 60
Chanel 6 Note Off - Duracao: 435960 Nota: C1 Vol.: 40
Chanel 6 Note On - Duracao: 435960 Nota: C1 Vol.: 45
Chanel 4 Note Off - Duracao: 436020 Nota: C1 Vol.: 61
Chanel 4 Note On - Duracao: 436020 Nota: C1 Vol.: 56
Chanel 7 Note Off - Duracao: 436380 Nota: C1 Vol.: 45
Chanel 7 Note On - Duracao: 436380 Nota: C1 Vol.: 42
Chanel 8 Note Off - Duracao: 436560 Nota: C1 Vol.: 60
Chanel 8 Note On - Duracao: 436560 Nota: C1 Vol.: 89
Chanel 8 Note Off - Duracao: 436680 Nota: C1 Vol.: 89
Chanel 8 Note On - Duracao: 436680 Nota: C1 Vol.: 71
Chanel 5 Note Off - Duracao: 437520 Nota: C1 Vol.: 46
Chanel 5 Note On - Duracao: 437520 Nota: C1 Vol.: 66
Chanel 8 Note Off - Duracao: 437640 Nota: C1 Vol.: 71
Chanel 8 Note On - Duracao: 437640 Nota: C1 Vol.: 62
Chanel 4 Note Off - Duracao: 437940 Nota: C1 Vol.: 56
Chanel 4 Note On - Duracao: 437940 Nota: C1 Vol.: 69
Chanel 5 Note Off - Duracao: 438000 Nota: C1 Vol.: 66
Chanel 5 Note On - Duracao: 438000 Nota: C1 Vol.: 57
Chanel 4 Note Off - Duracao: 438420 Nota: C1 Vol.: 69
Chanel 4 Note On - Duracao: 438420 Nota: C1 Vol.: 46
Chanel 9 Note Off - Duracao: 438600 Nota: C1 Vol.: 61
Chanel 9 Note On - Duracao: 438600 Nota: C1 Vol.: 58
Chanel 5 Note Off - Duracao: 438960 Nota: C1 Vol.: 57
Chanel 5 Note On - Duracao: 438960 Nota: C1 Vol.: 65
Chanel 5 Note Off - Duracao: 439440 Nota: C1 Vol.: 65
Chanel 5 Note On - Duracao: 439440 Nota: C1 Vol.: 43
Chanel 8 Note Off - Duracao: 439560 Nota: C1 Vol.: 62
Chanel 8 Note On - Duracao: 439560 Nota: C1 Vol.: 51
Chanel 6 Note Off - Duracao: 439800 Nota: C1 Vol.: 45
Chanel 6 Note On - Duracao: 439800 Nota: C1 Vol.: 43
Chanel 7 Note Off - Duracao: 440220 Nota: C1 Vol.: 42
Chanel 7 Note On - Duracao: 440220 Nota: C1 Vol.: 47
Chanel 4 Note Off - Duracao: 440340 Nota: C1 Vol.: 46
Chanel 4 Note On - Duracao: 440340 Nota: C1 Vol.: 50
Chanel 9 Note Off - Duracao: 440520 Nota: C1 Vol.: 58
Chanel 9 Note On - Duracao: 440520 Nota: C1 Vol.: 58
Chanel 8 Note Off - Duracao: 441480 Nota: C1 Vol.: 51
Chanel 8 Note On - Duracao: 441480 Nota: C1 Vol.: 50
Chanel 4 Note Off - Duracao: 442260 Nota: C1 Vol.: 50
Chanel 4 Note On - Duracao: 442260 Nota: C1 Vol.: 52
Chanel 9 Note Off - Duracao: 442440 Nota: C1 Vol.: 58
Chanel 9 Note On - Duracao: 442440 Nota: C1 Vol.: 66
Chanel 5 Note Off - Duracao: 443280 Nota: C1 Vol.: 43
Chanel 5 Note On - Duracao: 443280 Nota: C1 Vol.: 40
Chanel 9 Note Off - Duracao: 443400 Nota: C1 Vol.: 66
Chanel 9 Note On - Duracao: 443400 Nota: C1 Vol.: 71
Chanel 6 Note Off - Duracao: 443640 Nota: C1 Vol.: 43
Chanel 6 Note On - Duracao: 443640 Nota: C1 Vol.: 42
Chanel 7 Note Off - Duracao: 444060 Nota: C1 Vol.: 47
Chanel 7 Note On - Duracao: 444060 Nota: C1 Vol.: 50
Chanel 4 Note Off - Duracao: 444180 Nota: C1 Vol.: 52
Chanel 4 Note On - Duracao: 444180 Nota: C1 Vol.: 55
Chanel 9 Note Off - Duracao: 444360 Nota: C1 Vol.: 71
Chanel 9 Note On - Duracao: 444360 Nota: C1 Vol.: 73
Chanel 9 Note Off - Duracao: 444840 Nota: C1 Vol.: 73
Chanel 9 Note On - Duracao: 444840 Nota: C1 Vol.: 79
Chanel 8 Note Off - Duracao: 445320 Nota: C1 Vol.: 50
Chanel 8 Note On - Duracao: 445320 Nota: C1 Vol.: 51
Chanel 9 Note Off - Duracao: 445320 Nota: C1 Vol.: 79
Chanel 9 Note On - Duracao: 445320 Nota: C1 Vol.: 84
Chanel 9 Note Off - Duracao: 445800 Nota: C1 Vol.: 84
Chanel 9 Note On - Duracao: 445800 Nota: C1 Vol.: 81
Chanel 7 Note Off - Duracao: 445980 Nota: C1 Vol.: 50
Chanel 7 Note On - Duracao: 445980 Nota: C1 Vol.: 45
Chanel 4 Note Off - Duracao: 446100 Nota: C1 Vol.: 55
Chanel 4 Note On - Duracao: 446100 Nota: C1 Vol.: 55
Chanel 9 Note Off - Duracao: 446280 Nota: C1 Vol.: 81
Chanel 9 Note On - Duracao: 446280 Nota: C1 Vol.: 53
Chanel 5 Note Off - Duracao: 447120 Nota: C1 Vol.: 40
Chanel 5 Note On - Duracao: 447120 Nota: C1 Vol.: 44
Chanel 6 Note Off - Duracao: 447480 Nota: C1 Vol.: 42
Chanel 6 Note On - Duracao: 447480 Nota: C1 Vol.: 58
Chanel 4 Note Off - Duracao: 448020 Nota: C1 Vol.: 55
Chanel 4 Note On - Duracao: 448020 Nota: C1 Vol.: 49
Chanel 9 Note Off - Duracao: 448200 Nota: C1 Vol.: 53
Chanel 9 Note On - Duracao: 448200 Nota: C1 Vol.: 63
Chanel 8 Note Off - Duracao: 449160 Nota: C1 Vol.: 51
Chanel 8 Note On - Duracao: 449160 Nota: C1 Vol.: 50
Chanel 9 Note Off - Duracao: 449160 Nota: C1 Vol.: 63
Chanel 9 Note On - Duracao: 449160 Nota: C1 Vol.: 56
Chanel 6 Note Off - Duracao: 449400 Nota: C1 Vol.: 58
Chanel 6 Note On - Duracao: 449400 Nota: C1 Vol.: 56
Chanel 7 Note Off - Duracao: 449820 Nota: C1 Vol.: 45
Chanel 7 Note On - Duracao: 449820 Nota: C1 Vol.: 42
Chanel 4 Note Off - Duracao: 449940 Nota: C1 Vol.: 49
Chanel 4 Note On - Duracao: 449940 Nota: C1 Vol.: 71
Chanel 4 Note Off - Duracao: 450420 Nota: C1 Vol.: 71
Chanel 4 Note On - Duracao: 450420 Nota: C1 Vol.: 68
Chanel 4 Note Off - Duracao: 450900 Nota: C1 Vol.: 68
Chanel 4 Note On - Duracao: 450900 Nota: C1 Vol.: 69
Chanel 5 Note Off - Duracao: 450960 Nota: C1 Vol.: 44
Chanel 5 Note On - Duracao: 450960 Nota: C1 Vol.: 45
Chanel 9 Note Off - Duracao: 451080 Nota: C1 Vol.: 56
Chanel 9 Note On - Duracao: 451080 Nota: C1 Vol.: 47
Chanel 6 Note Off - Duracao: 451320 Nota: C1 Vol.: 56
Chanel 6 Note On - Duracao: 451320 Nota: C1 Vol.: 52
Chanel 4 Note Off - Duracao: 451380 Nota: C1 Vol.: 69
Chanel 4 Note On - Duracao: 451380 Nota: C1 Vol.: 61
Chanel 4 Note Off - Duracao: 451860 Nota: C1 Vol.: 61
Chanel 4 Note On - Duracao: 451860 Nota: C1 Vol.: 43
Chanel 8 Note Off - Duracao: 453000 Nota: C1 Vol.: 50
Chanel 8 Note On - Duracao: 453000 Nota: C1 Vol.: 45
Chanel 7 Note Off - Duracao: 453660 Nota: C1 Vol.: 42
Chanel 7 Note On - Duracao: 453660 Nota: C1 Vol.: 40
Chanel 4 Note Off - Duracao: 453780 Nota: C1 Vol.: 43
Chanel 4 Note On - Duracao: 453780 Nota: C1 Vol.: 51
Chanel 4 Note Off - Duracao: 454740 Nota: C1 Vol.: 51
Chanel 4 Note On - Duracao: 454740 Nota: C1 Vol.: 48
Chanel 5 Note Off - Duracao: 454800 Nota: C1 Vol.: 45
Chanel 5 Note On - Duracao: 454800 Nota: C1 Vol.: 45
Chanel 9 Note Off - Duracao: 454920 Nota: C1 Vol.: 47
Chanel 9 Note On - Duracao: 454920 Nota: C1 Vol.: 44
Chanel 6 Note Off - Duracao: 455160 Nota: C1 Vol.: 52
Chanel 6 Note On - Duracao: 455160 Nota: C1 Vol.: 55
Chanel 4 Note Off - Duracao: 456660 Nota: C1 Vol.: 48
Chanel 4 Note On - Duracao: 456660 Nota: C1 Vol.: 69
Chanel 8 Note Off - Duracao: 456840 Nota: C1 Vol.: 45
Chanel 8 Note On - Duracao: 456840 Nota: C1 Vol.: 45
Chanel 6 Note Off - Duracao: 457080 Nota: C1 Vol.: 55
Chanel 6 Note On - Duracao: 457080 Nota: C1 Vol.: 49
Chanel 4 Note Off - Duracao: 457140 Nota: C1 Vol.: 69
Chanel 4 Note On - Duracao: 457140 Nota: C1 Vol.: 92
Chanel 4 Note Off - Duracao: 457260 Nota: C1 Vol.: 92
Chanel 4 Note On - Duracao: 457260 Nota: C1 Vol.: 79
Chanel 4 Note Off - Duracao: 457500 Nota: C1 Vol.: 79
Chanel 4 Note On - Duracao: 457500 Nota: C1 Vol.: 75
Chanel 7 Note Off - Duracao: 457500 Nota: C1 Vol.: 40
Chanel 7 Note On - Duracao: 457500 Nota: C1 Vol.: 43
Chanel 4 Note Off - Duracao: 457980 Nota: C1 Vol.: 75
Chanel 4 Note On - Duracao: 457980 Nota: C1 Vol.: 82
Chanel 4 Note Off - Duracao: 458220 Nota: C1 Vol.: 82
Chanel 4 Note On - Duracao: 458220 Nota: C1 Vol.: 79
Chanel 4 Note Off - Duracao: 458460 Nota: C1 Vol.: 79
Chanel 4 Note On - Duracao: 458460 Nota: C1 Vol.: 69
Chanel 5 Note Off - Duracao: 458640 Nota: C1 Vol.: 45
Chanel 5 Note On - Duracao: 458640 Nota: C1 Vol.: 45
Chanel 9 Note Off - Duracao: 458760 Nota: C1 Vol.: 44
Chanel 9 Note On - Duracao: 458760 Nota: C1 Vol.: 60
Chanel 4 Note Off - Duracao: 458940 Nota: C1 Vol.: 69
Chanel 4 Note On - Duracao: 458940 Nota: C1 Vol.: 53
Chanel 6 Note Off - Duracao: 459000 Nota: C1 Vol.: 49
Chanel 6 Note On - Duracao: 459000 Nota: C1 Vol.: 58
Chanel 9 Note Off - Duracao: 459720 Nota: C1 Vol.: 60
Chanel 9 Note On - Duracao: 459720 Nota: C1 Vol.: 69
Chanel 4 Note Off - Duracao: 459900 Nota: C1 Vol.: 53
Chanel 4 Note On - Duracao: 459900 Nota: C1 Vol.: 69
Chanel 6 Note Off - Duracao: 459960 Nota: C1 Vol.: 58
Chanel 6 Note On - Duracao: 459960 Nota: C1 Vol.: 52
Chanel 4 Note Off - Duracao: 460380 Nota: C1 Vol.: 69
Chanel 4 Note On - Duracao: 460380 Nota: C1 Vol.: 67
Chanel 5 Note Off - Duracao: 460560 Nota: C1 Vol.: 45
Chanel 5 Note On - Duracao: 460560 Nota: C1 Vol.: 43
Chanel 8 Note Off - Duracao: 460680 Nota: C1 Vol.: 45
Chanel 8 Note On - Duracao: 460680 Nota: C1 Vol.: 47
Chanel 9 Note Off - Duracao: 460680 Nota: C1 Vol.: 69
Chanel 9 Note On - Duracao: 460680 Nota: C1 Vol.: 66
Chanel 4 Note Off - Duracao: 460860 Nota: C1 Vol.: 67
Chanel 4 Note On - Duracao: 460860 Nota: C1 Vol.: 57
Chanel 7 Note Off - Duracao: 461340 Nota: C1 Vol.: 43
Chanel 7 Note On - Duracao: 461340 Nota: C1 Vol.: 47
Chanel 9 Note Off - Duracao: 461640 Nota: C1 Vol.: 66
Chanel 9 Note On - Duracao: 461640 Nota: C1 Vol.: 60
Chanel 4 Note Off - Duracao: 461820 Nota: C1 Vol.: 57
Chanel 4 Note On - Duracao: 461820 Nota: C1 Vol.: 44
Chanel 6 Note Off - Duracao: 461880 Nota: C1 Vol.: 52
Chanel 6 Note On - Duracao: 461880 Nota: C1 Vol.: 57
Chanel 9 Note Off - Duracao: 463560 Nota: C1 Vol.: 60
Chanel 9 Note On - Duracao: 463560 Nota: C1 Vol.: 53
Chanel 4 Note Off - Duracao: 463740 Nota: C1 Vol.: 44
Chanel 4 Note On - Duracao: 463740 Nota: C1 Vol.: 45
Chanel 6 Note Off - Duracao: 463800 Nota: C1 Vol.: 57
Chanel 6 Note On - Duracao: 463800 Nota: C1 Vol.: 86
Chanel 6 Note Off - Duracao: 464280 Nota: C1 Vol.: 86
Chanel 6 Note On - Duracao: 464280 Nota: C1 Vol.: 98
Chanel 5 Note Off - Duracao: 464400 Nota: C1 Vol.: 43
Chanel 5 Note On - Duracao: 464400 Nota: C1 Vol.: 44
Chanel 6 Note Off - Duracao: 464520 Nota: C1 Vol.: 98
Chanel 6 Note On - Duracao: 464520 Nota: C1 Vol.: 95
Chanel 8 Note Off - Duracao: 464520 Nota: C1 Vol.: 47
Chanel 8 Note On - Duracao: 464520 Nota: C1 Vol.: 41
Chanel 6 Note Off - Duracao: 464760 Nota: C1 Vol.: 95
Chanel 6 Note On - Duracao: 464760 Nota: C1 Vol.: 72
Chanel 7 Note Off - Duracao: 465180 Nota: C1 Vol.: 47
Chanel 7 Note On - Duracao: 465180 Nota: C1 Vol.: 50
Chanel 4 Note Off - Duracao: 465660 Nota: C1 Vol.: 45
Chanel 4 Note On - Duracao: 465660 Nota: C1 Vol.: 55
Chanel 6 Note Off - Duracao: 465720 Nota: C1 Vol.: 72
Chanel 6 Note On - Duracao: 465720 Nota: C1 Vol.: 60
Chanel 4 Note Off - Duracao: 466620 Nota: C1 Vol.: 55
Chanel 4 Note On - Duracao: 466620 Nota: C1 Vol.: 71
Chanel 6 Note Off - Duracao: 466680 Nota: C1 Vol.: 60
Chanel 6 Note On - Duracao: 466680 Nota: C1 Vol.: 72
Chanel 4 Note Off - Duracao: 466860 Nota: C1 Vol.: 71
Chanel 4 Note On - Duracao: 466860 Nota: C1 Vol.: 49
Chanel 6 Note Off - Duracao: 467160 Nota: C1 Vol.: 72
Chanel 6 Note On - Duracao: 467160 Nota: C1 Vol.: 70
Chanel 9 Note Off - Duracao: 467400 Nota: C1 Vol.: 53
Chanel 9 Note On - Duracao: 467400 Nota: C1 Vol.: 53
Chanel 6 Note Off - Duracao: 467640 Nota: C1 Vol.: 70
Chanel 6 Note On - Duracao: 467640 Nota: C1 Vol.: 89
Chanel 6 Note Off - Duracao: 467760 Nota: C1 Vol.: 89
Chanel 6 Note On - Duracao: 467760 Nota: C1 Vol.: 96
Chanel 6 Note Off - Duracao: 467880 Nota: C1 Vol.: 96
Chanel 6 Note On - Duracao: 467880 Nota: C1 Vol.: 79
Chanel 6 Note Off - Duracao: 468120 Nota: C1 Vol.: 79
Chanel 6 Note On - Duracao: 468120 Nota: C1 Vol.: 64
Chanel 5 Note Off - Duracao: 468240 Nota: C1 Vol.: 44
Chanel 5 Note On - Duracao: 468240 Nota: C1 Vol.: 44
Chanel 8 Note Off - Duracao: 468360 Nota: C1 Vol.: 41
Chanel 8 Note On - Duracao: 468360 Nota: C1 Vol.: 48
Chanel 6 Note Off - Duracao: 468600 Nota: C1 Vol.: 64
Chanel 6 Note On - Duracao: 468600 Nota: C1 Vol.: 56
Chanel 4 Note Off - Duracao: 468780 Nota: C1 Vol.: 49
Chanel 4 Note On - Duracao: 468780 Nota: C1 Vol.: 82
Chanel 7 Note Off - Duracao: 469020 Nota: C1 Vol.: 50
Chanel 7 Note On - Duracao: 469020 Nota: C1 Vol.: 50
Chanel 6 Note Off - Duracao: 469080 Nota: C1 Vol.: 56
Chanel 6 Note On - Duracao: 469080 Nota: C1 Vol.: 55
Chanel 4 Note Off - Duracao: 469260 Nota: C1 Vol.: 82
Chanel 4 Note On - Duracao: 469260 Nota: C1 Vol.: 100
Chanel 4 Note Off - Duracao: 469320 Nota: C1 Vol.: 100
Chanel 4 Note On - Duracao: 469320 Nota: C1 Vol.: 99
Chanel 4 Note Off - Duracao: 469440 Nota: C1 Vol.: 99
Chanel 4 Note On - Duracao: 469440 Nota: C1 Vol.: 71
Chanel 4 Note Off - Duracao: 469920 Nota: C1 Vol.: 71
Chanel 4 Note On - Duracao: 469920 Nota: C1 Vol.: 49
Chanel 6 Note Off - Duracao: 470040 Nota: C1 Vol.: 55
Chanel 6 Note On - Duracao: 470040 Nota: C1 Vol.: 79
Chanel 6 Note Off - Duracao: 470280 Nota: C1 Vol.: 79
Chanel 6 Note On - Duracao: 470280 Nota: C1 Vol.: 54
Chanel 8 Note Off - Duracao: 470280 Nota: C1 Vol.: 48
Chanel 8 Note On - Duracao: 470280 Nota: C1 Vol.: 44
Chanel 6 Note Off - Duracao: 470760 Nota: C1 Vol.: 54
Chanel 6 Note On - Duracao: 470760 Nota: C1 Vol.: 48
Chanel 8 Note Off - Duracao: 471240 Nota: C1 Vol.: 44
Chanel 8 Note On - Duracao: 471240 Nota: C1 Vol.: 40
Chanel 9 Note Off - Duracao: 471240 Nota: C1 Vol.: 53
Chanel 9 Note On - Duracao: 471240 Nota: C1 Vol.: 49
Chanel 6 Note Off - Duracao: 471720 Nota: C1 Vol.: 48
Chanel 6 Note On - Duracao: 471720 Nota: C1 Vol.: 78
Chanel 4 Note Off - Duracao: 471840 Nota: C1 Vol.: 49
Chanel 4 Note On - Duracao: 471840 Nota: C1 Vol.: 48
Chanel 6 Note Off - Duracao: 471960 Nota: C1 Vol.: 78
Chanel 6 Note On - Duracao: 471960 Nota: C1 Vol.: 93
Chanel 6 Note Off - Duracao: 472020 Nota: C1 Vol.: 93
Chanel 6 Note On - Duracao: 472020 Nota: C1 Vol.: 92
Chanel 5 Note Off - Duracao: 472080 Nota: C1 Vol.: 44
Chanel 5 Note On - Duracao: 472080 Nota: C1 Vol.: 40
Chanel 6 Note Off - Duracao: 472140 Nota: C1 Vol.: 92
Chanel 6 Note On - Duracao: 472140 Nota: C1 Vol.: 54
Chanel 7 Note Off - Duracao: 472860 Nota: C1 Vol.: 50
Chanel 7 Note On - Duracao: 472860 Nota: C1 Vol.: 54
Chanel 6 Note Off - Duracao: 473100 Nota: C1 Vol.: 54
Chanel 6 Note On - Duracao: 473100 Nota: C1 Vol.: 59
Chanel 8 Note Off - Duracao: 473160 Nota: C1 Vol.: 40
Chanel 8 Note On - Duracao: 473160 Nota: C1 Vol.: 44
Chanel 8 Note Off - Duracao: 473640 Nota: C1 Vol.: 44
Chanel 8 Note On - Duracao: 473640 Nota: C1 Vol.: 40
Chanel 6 Note Off - Duracao: 474060 Nota: C1 Vol.: 59
Chanel 6 Note On - Duracao: 474060 Nota: C1 Vol.: 50
Chanel 8 Note Off - Duracao: 474600 Nota: C1 Vol.: 40
Chanel 8 Note On - Duracao: 474600 Nota: C1 Vol.: 53
Chanel 6 Note Off - Duracao: 475020 Nota: C1 Vol.: 50
Chanel 6 Note On - Duracao: 475020 Nota: C1 Vol.: 69
Chanel 8 Note Off - Duracao: 475080 Nota: C1 Vol.: 53
Chanel 8 Note On - Duracao: 475080 Nota: C1 Vol.: 55
Chanel 9 Note Off - Duracao: 475080 Nota: C1 Vol.: 49
Chanel 9 Note On - Duracao: 475080 Nota: C1 Vol.: 50
Chanel 6 Note Off - Duracao: 475500 Nota: C1 Vol.: 69
Chanel 6 Note On - Duracao: 475500 Nota: C1 Vol.: 53
Chanel 4 Note Off - Duracao: 475680 Nota: C1 Vol.: 48
Chanel 4 Note On - Duracao: 475680 Nota: C1 Vol.: 56
Chanel 5 Note Off - Duracao: 475920 Nota: C1 Vol.: 40
Chanel 5 Note On - Duracao: 475920 Nota: C1 Vol.: 55
Chanel 8 Note Off - Duracao: 476040 Nota: C1 Vol.: 55
Chanel 8 Note On - Duracao: 476040 Nota: C1 Vol.: 80
Chanel 8 Note Off - Duracao: 476520 Nota: C1 Vol.: 80
Chanel 8 Note On - Duracao: 476520 Nota: C1 Vol.: 89
Chanel 8 Note Off - Duracao: 476640 Nota: C1 Vol.: 89
Chanel 8 Note On - Duracao: 476640 Nota: C1 Vol.: 68
Chanel 7 Note Off - Duracao: 476700 Nota: C1 Vol.: 54
Chanel 7 Note On - Duracao: 476700 Nota: C1 Vol.: 69
Chanel 5 Note Off - Duracao: 476880 Nota: C1 Vol.: 55
Chanel 5 Note On - Duracao: 476880 Nota: C1 Vol.: 86
Chanel 5 Note Off - Duracao: 477000 Nota: C1 Vol.: 86
Chanel 5 Note On - Duracao: 477000 Nota: C1 Vol.: 76
Chanel 5 Note Off - Duracao: 477240 Nota: C1 Vol.: 76
Chanel 5 Note On - Duracao: 477240 Nota: C1 Vol.: 49
Chanel 6 Note Off - Duracao: 477420 Nota: C1 Vol.: 53
Chanel 6 Note On - Duracao: 477420 Nota: C1 Vol.: 65
Chanel 8 Note Off - Duracao: 477600 Nota: C1 Vol.: 68
Chanel 8 Note On - Duracao: 477600 Nota: C1 Vol.: 56
Chanel 7 Note Off - Duracao: 477660 Nota: C1 Vol.: 69
Chanel 7 Note On - Duracao: 477660 Nota: C1 Vol.: 92
Chanel 7 Note Off - Duracao: 477900 Nota: C1 Vol.: 92
Chanel 7 Note On - Duracao: 477900 Nota: C1 Vol.: 100
Chanel 7 Note Off - Duracao: 478020 Nota: C1 Vol.: 100
Chanel 7 Note On - Duracao: 478020 Nota: C1 Vol.: 94
Chanel 7 Note Off - Duracao: 478140 Nota: C1 Vol.: 94
Chanel 7 Note On - Duracao: 478140 Nota: C1 Vol.: 64
Chanel 6 Note Off - Duracao: 478380 Nota: C1 Vol.: 65
Chanel 6 Note On - Duracao: 478380 Nota: C1 Vol.: 61
Chanel 9 Note Off - Duracao: 478920 Nota: C1 Vol.: 50
Chanel 9 Note On - Duracao: 478920 Nota: C1 Vol.: 50
Chanel 7 Note Off - Duracao: 479100 Nota: C1 Vol.: 64
Chanel 7 Note On - Duracao: 479100 Nota: C1 Vol.: 45
Chanel 5 Note Off - Duracao: 479160 Nota: C1 Vol.: 49
Chanel 5 Note On - Duracao: 479160 Nota: C1 Vol.: 47
Chanel 6 Note Off - Duracao: 479340 Nota: C1 Vol.: 61
Chanel 6 Note On - Duracao: 479340 Nota: C1 Vol.: 66
Chanel 4 Note Off - Duracao: 479520 Nota: C1 Vol.: 56
Chanel 4 Note On - Duracao: 479520 Nota: C1 Vol.: 66
Chanel 6 Note Off - Duracao: 479820 Nota: C1 Vol.: 66
Chanel 6 Note On - Duracao: 479820 Nota: C1 Vol.: 40
Chanel 5 Note Off - Duracao: 481080 Nota: C1 Vol.: 47
Chanel 5 Note On - Duracao: 481080 Nota: C1 Vol.: 46
Chanel 4 Note Off - Duracao: 481440 Nota: C1 Vol.: 66
Chanel 4 Note On - Duracao: 481440 Nota: C1 Vol.: 56
Chanel 8 Note Off - Duracao: 481440 Nota: C1 Vol.: 56
Chanel 8 Note On - Duracao: 481440 Nota: C1 Vol.: 79
Chanel 5 Note Off - Duracao: 482040 Nota: C1 Vol.: 46
Chanel 5 Note On - Duracao: 482040 Nota: C1 Vol.: 44
Chanel 8 Note Off - Duracao: 482400 Nota: C1 Vol.: 79
Chanel 8 Note On - Duracao: 482400 Nota: C1 Vol.: 91
Chanel 9 Note Off - Duracao: 482760 Nota: C1 Vol.: 50
Chanel 9 Note On - Duracao: 482760 Nota: C1 Vol.: 56
Chanel 8 Note Off - Duracao: 482880 Nota: C1 Vol.: 91
Chanel 8 Note On - Duracao: 482880 Nota: C1 Vol.: 90
Chanel 7 Note Off - Duracao: 482940 Nota: C1 Vol.: 45
Chanel 7 Note On - Duracao: 482940 Nota: C1 Vol.: 49
Chanel 5 Note Off - Duracao: 483000 Nota: C1 Vol.: 44
Chanel 5 Note On - Duracao: 483000 Nota: C1 Vol.: 61
Chanel 4 Note Off - Duracao: 483360 Nota: C1 Vol.: 56
Chanel 4 Note On - Duracao: 483360 Nota: C1 Vol.: 57
Chanel 8 Note Off - Duracao: 483360 Nota: C1 Vol.: 90
Chanel 8 Note On - Duracao: 483360 Nota: C1 Vol.: 69
Chanel 5 Note Off - Duracao: 483480 Nota: C1 Vol.: 61
Chanel 5 Note On - Duracao: 483480 Nota: C1 Vol.: 40
Chanel 6 Note Off - Duracao: 483660 Nota: C1 Vol.: 40
Chanel 6 Note On - Duracao: 483660 Nota: C1 Vol.: 40
Chanel 4 Note Off - Duracao: 484320 Nota: C1 Vol.: 57
Chanel 4 Note On - Duracao: 484320 Nota: C1 Vol.: 60
Chanel 8 Note Off - Duracao: 484320 Nota: C1 Vol.: 69
Chanel 8 Note On - Duracao: 484320 Nota: C1 Vol.: 49
Chanel 9 Note Off - Duracao: 484680 Nota: C1 Vol.: 56
Chanel 9 Note On - Duracao: 484680 Nota: C1 Vol.: 49
Chanel 4 Note Off - Duracao: 484800 Nota: C1 Vol.: 60
Chanel 4 Note On - Duracao: 484800 Nota: C1 Vol.: 56
Chanel 7 Note Off - Duracao: 484860 Nota: C1 Vol.: 49
Chanel 7 Note On - Duracao: 484860 Nota: C1 Vol.: 43
Chanel 4 Note Off - Duracao: 485760 Nota: C1 Vol.: 56
Chanel 4 Note On - Duracao: 485760 Nota: C1 Vol.: 64
Chanel 4 Note Off - Duracao: 486240 Nota: C1 Vol.: 64
Chanel 4 Note On - Duracao: 486240 Nota: C1 Vol.: 44
Chanel 5 Note Off - Duracao: 487320 Nota: C1 Vol.: 40
Chanel 5 Note On - Duracao: 487320 Nota: C1 Vol.: 40
Chanel 6 Note Off - Duracao: 487500 Nota: C1 Vol.: 40
Chanel 6 Note On - Duracao: 487500 Nota: C1 Vol.: 40
Chanel 8 Note Off - Duracao: 488160 Nota: C1 Vol.: 49
Chanel 8 Note On - Duracao: 488160 Nota: C1 Vol.: 45
Chanel 9 Note Off - Duracao: 488520 Nota: C1 Vol.: 49
Chanel 9 Note On - Duracao: 488520 Nota: C1 Vol.: 50
Chanel 7 Note Off - Duracao: 488700 Nota: C1 Vol.: 43
Chanel 7 Note On - Duracao: 488700 Nota: C1 Vol.: 41
Chanel 4 Note Off - Duracao: 490080 Nota: C1 Vol.: 44
Chanel 4 Note On - Duracao: 490080 Nota: C1 Vol.: 46
Chanel 5 Note Off - Duracao: 491160 Nota: C1 Vol.: 40
Chanel 5 Note On - Duracao: 491160 Nota: C1 Vol.: 63
Chanel 6 Note Off - Duracao: 491340 Nota: C1 Vol.: 40
Chanel 6 Note On - Duracao: 491340 Nota: C1 Vol.: 45
Chanel 5 Note Off - Duracao: 491640 Nota: C1 Vol.: 63
Chanel 5 Note On - Duracao: 491640 Nota: C1 Vol.: 72
Chanel 5 Note Off - Duracao: 491880 Nota: C1 Vol.: 72
Chanel 5 Note On - Duracao: 491880 Nota: C1 Vol.: 56
Chanel 4 Note Off - Duracao: 492000 Nota: C1 Vol.: 46
Chanel 4 Note On - Duracao: 492000 Nota: C1 Vol.: 45
Chanel 8 Note Off - Duracao: 492000 Nota: C1 Vol.: 45
Chanel 8 Note On - Duracao: 492000 Nota: C1 Vol.: 44
Chanel 9 Note Off - Duracao: 492360 Nota: C1 Vol.: 50
Chanel 9 Note On - Duracao: 492360 Nota: C1 Vol.: 48
Chanel 7 Note Off - Duracao: 492540 Nota: C1 Vol.: 41
Chanel 7 Note On - Duracao: 492540 Nota: C1 Vol.: 41
Chanel 5 Note Off - Duracao: 492840 Nota: C1 Vol.: 56
Chanel 5 Note On - Duracao: 492840 Nota: C1 Vol.: 58
Chanel 6 Note Off - Duracao: 493260 Nota: C1 Vol.: 45
Chanel 6 Note On - Duracao: 493260 Nota: C1 Vol.: 43
Chanel 5 Note Off - Duracao: 493800 Nota: C1 Vol.: 58
Chanel 5 Note On - Duracao: 493800 Nota: C1 Vol.: 52
Chanel 4 Note Off - Duracao: 493920 Nota: C1 Vol.: 45
Chanel 5 Note Off - Duracao: 494760 Nota: C1 Vol.: 52
Chanel 5 Note On - Duracao: 494760 Nota: C1 Vol.: 45
Chanel 8 Note Off - Duracao: 495840 Nota: C1 Vol.: 44
Chanel 8 Note On - Duracao: 495840 Nota: C1 Vol.: 46
Chanel 9 Note Off - Duracao: 496200 Nota: C1 Vol.: 48
Chanel 9 Note On - Duracao: 496200 Nota: C1 Vol.: 46
Chanel 7 Note Off - Duracao: 496380 Nota: C1 Vol.: 41
Chanel 7 Note On - Duracao: 496380 Nota: C1 Vol.: 46
Chanel 6 Note Off - Duracao: 497100 Nota: C1 Vol.: 43
Chanel 6 Note On - Duracao: 497100 Nota: C1 Vol.: 43
Chanel 5 Note Off - Duracao: 498600 Nota: C1 Vol.: 45
Chanel 5 Note On - Duracao: 498600 Nota: C1 Vol.: 45
Chanel 8 Note Off - Duracao: 499680 Nota: C1 Vol.: 46
Chanel 8 Note On - Duracao: 499680 Nota: C1 Vol.: 44
Chanel 9 Note Off - Duracao: 500040 Nota: C1 Vol.: 46
Chanel 9 Note On - Duracao: 500040 Nota: C1 Vol.: 46
Chanel 7 Note Off - Duracao: 500220 Nota: C1 Vol.: 46
Chanel 7 Note On - Duracao: 500220 Nota: C1 Vol.: 44
Chanel 6 Note Off - Duracao: 500940 Nota: C1 Vol.: 43
Chanel 6 Note On - Duracao: 500940 Nota: C1 Vol.: 42
Chanel 5 Note Off - Duracao: 502440 Nota: C1 Vol.: 45
Chanel 5 Note On - Duracao: 502440 Nota: C1 Vol.: 45
Chanel 8 Note Off - Duracao: 503520 Nota: C1 Vol.: 44
Chanel 8 Note On - Duracao: 503520 Nota: C1 Vol.: 46
Chanel 9 Note Off - Duracao: 503880 Nota: C1 Vol.: 46
Chanel 9 Note On - Duracao: 503880 Nota: C1 Vol.: 41
Chanel 7 Note Off - Duracao: 504060 Nota: C1 Vol.: 44
Chanel 7 Note On - Duracao: 504060 Nota: C1 Vol.: 44
Chanel 6 Note Off - Duracao: 504780 Nota: C1 Vol.: 42
Chanel 6 Note On - Duracao: 504780 Nota: C1 Vol.: 41
Chanel 5 Note Off - Duracao: 506280 Nota: C1 Vol.: 45
Chanel 5 Note On - Duracao: 506280 Nota: C1 Vol.: 43
Chanel 8 Note Off - Duracao: 507360 Nota: C1 Vol.: 46
Chanel 8 Note On - Duracao: 507360 Nota: C1 Vol.: 44
Chanel 9 Note Off - Duracao: 507720 Nota: C1 Vol.: 41
Chanel 9 Note On - Duracao: 507720 Nota: C1 Vol.: 42
Chanel 7 Note Off - Duracao: 507900 Nota: C1 Vol.: 44
Chanel 7 Note On - Duracao: 507900 Nota: C1 Vol.: 41
Chanel 6 Note Off - Duracao: 508620 Nota: C1 Vol.: 41
Chanel 6 Note On - Duracao: 508620 Nota: C1 Vol.: 41
Chanel 5 Note Off - Duracao: 510120 Nota: C1 Vol.: 43
Chanel 5 Note On - Duracao: 510120 Nota: C1 Vol.: 43
Chanel 8 Note Off - Duracao: 511200 Nota: C1 Vol.: 44
Chanel 8 Note On - Duracao: 511200 Nota: C1 Vol.: 40
Chanel 9 Note Off - Duracao: 511560 Nota: C1 Vol.: 42
Chanel 9 Note On - Duracao: 511560 Nota: C1 Vol.: 44
Chanel 7 Note Off - Duracao: 511740 Nota: C1 Vol.: 41
Chanel 7 Note On - Duracao: 511740 Nota: C1 Vol.: 40
Chanel 6 Note Off - Duracao: 512460 Nota: C1 Vol.: 41
Chanel 6 Note On - Duracao: 512460 Nota: C1 Vol.: 43
Chanel 5 Note Off - Duracao: 513960 Nota: C1 Vol.: 43
Chanel 5 Note On - Duracao: 513960 Nota: C1 Vol.: 42
Chanel 8 Note Off - Duracao: 515040 Nota: C1 Vol.: 40
Chanel 8 Note On - Duracao: 515040 Nota: C1 Vol.: 44
Chanel 9 Note Off - Duracao: 515400 Nota: C1 Vol.: 44
Chanel 9 Note On - Duracao: 515400 Nota: C1 Vol.: 44
Chanel 7 Note Off - Duracao: 515580 Nota: C1 Vol.: 40
Chanel 7 Note On - Duracao: 515580 Nota: C1 Vol.: 40
Chanel 6 Note Off - Duracao: 516300 Nota: C1 Vol.: 43
Chanel 6 Note On - Duracao: 516300 Nota: C1 Vol.: 44
Chanel 5 Note Off - Duracao: 517800 Nota: C1 Vol.: 42
Chanel 5 Note On - Duracao: 517800 Nota: C1 Vol.: 41
Chanel 8 Note Off - Duracao: 518880 Nota: C1 Vol.: 44
Chanel 8 Note On - Duracao: 518880 Nota: C1 Vol.: 40
Chanel 9 Note Off - Duracao: 519240 Nota: C1 Vol.: 44
Chanel 9 Note On - Duracao: 519240 Nota: C1 Vol.: 44
Chanel 7 Note Off - Duracao: 519420 Nota: C1 Vol.: 40
Chanel 7 Note On - Duracao: 519420 Nota: C1 Vol.: 40
Chanel 6 Note Off - Duracao: 520140 Nota: C1 Vol.: 44
Chanel 6 Note On - Duracao: 520140 Nota: C1 Vol.: 44
Chanel 5 Note Off - Duracao: 521640 Nota: C1 Vol.: 41
Chanel 5 Note On - Duracao: 521640 Nota: C1 Vol.: 41
Chanel 8 Note Off - Duracao: 522720 Nota: C1 Vol.: 40
Chanel 8 Note On - Duracao: 522720 Nota: C1 Vol.: 40
Chanel 9 Note Off - Duracao: 523080 Nota: C1 Vol.: 44
Chanel 9 Note On - Duracao: 523080 Nota: C1 Vol.: 44
Chanel 7 Note Off - Duracao: 523260 Nota: C1 Vol.: 40
Chanel 7 Note On - Duracao: 523260 Nota: C1 Vol.: 41
Chanel 6 Note Off - Duracao: 523980 Nota: C1 Vol.: 44
Chanel 6 Note On - Duracao: 523980 Nota: C1 Vol.: 43
Chanel 5 Note Off - Duracao: 525480 Nota: C1 Vol.: 41
Chanel 5 Note On - Duracao: 525480 Nota: C1 Vol.: 52
Chanel 8 Note Off - Duracao: 526560 Nota: C1 Vol.: 40
Chanel 8 Note On - Duracao: 526560 Nota: C1 Vol.: 74
Chanel 9 Note Off - Duracao: 526920 Nota: C1 Vol.: 44
Chanel 9 Note On - Duracao: 526920 Nota: C1 Vol.: 46
Chanel 7 Note Off - Duracao: 527100 Nota: C1 Vol.: 41
Chanel 7 Note On - Duracao: 527100 Nota: C1 Vol.: 45
Chanel 8 Note Off - Duracao: 527520 Nota: C1 Vol.: 74
Chanel 8 Note On - Duracao: 527520 Nota: C1 Vol.: 83
Chanel 6 Note Off - Duracao: 527820 Nota: C1 Vol.: 43
Chanel 6 Note On - Duracao: 527820 Nota: C1 Vol.: 44
Chanel 8 Note Off - Duracao: 528000 Nota: C1 Vol.: 83
Chanel 8 Note On - Duracao: 528000 Nota: C1 Vol.: 65
Chanel 5 Note Off - Duracao: 529320 Nota: C1 Vol.: 52
Chanel 5 Note On - Duracao: 529320 Nota: C1 Vol.: 51
Chanel 8 Note Off - Duracao: 529920 Nota: C1 Vol.: 65
Chanel 8 Note On - Duracao: 529920 Nota: C1 Vol.: 78
Chanel 9 Note Off - Duracao: 530760 Nota: C1 Vol.: 46
Chanel 9 Note On - Duracao: 530760 Nota: C1 Vol.: 48
Chanel 8 Note Off - Duracao: 530880 Nota: C1 Vol.: 78
Chanel 8 Note On - Duracao: 530880 Nota: C1 Vol.: 79
Chanel 7 Note Off - Duracao: 530940 Nota: C1 Vol.: 45
Chanel 7 Note On - Duracao: 530940 Nota: C1 Vol.: 47
Chanel 5 Note Off - Duracao: 531240 Nota: C1 Vol.: 51
Chanel 5 Note On - Duracao: 531240 Nota: C1 Vol.: 49
Chanel 8 Note Off - Duracao: 531360 Nota: C1 Vol.: 79
Chanel 8 Note On - Duracao: 531360 Nota: C1 Vol.: 70
Chanel 6 Note Off - Duracao: 531660 Nota: C1 Vol.: 44
Chanel 6 Note On - Duracao: 531660 Nota: C1 Vol.: 43
Chanel 8 Note Off - Duracao: 532320 Nota: C1 Vol.: 70
Chanel 8 Note On - Duracao: 532320 Nota: C1 Vol.: 60
Chanel 5 Note Off - Duracao: 533160 Nota: C1 Vol.: 49
Chanel 5 Note On - Duracao: 533160 Nota: C1 Vol.: 46
Chanel 8 Note Off - Duracao: 534240 Nota: C1 Vol.: 60
Chanel 8 Note On - Duracao: 534240 Nota: C1 Vol.: 56
Chanel 9 Note Off - Duracao: 534600 Nota: C1 Vol.: 48
Chanel 9 Note On - Duracao: 534600 Nota: C1 Vol.: 44
Chanel 7 Note Off - Duracao: 534780 Nota: C1 Vol.: 47
Chanel 7 Note On - Duracao: 534780 Nota: C1 Vol.: 42
Chanel 5 Note Off - Duracao: 535080 Nota: C1 Vol.: 46
Chanel 5 Note On - Duracao: 535080 Nota: C1 Vol.: 52
Chanel 6 Note Off - Duracao: 535500 Nota: C1 Vol.: 43
Chanel 6 Note On - Duracao: 535500 Nota: C1 Vol.: 61
Chanel 5 Note Off - Duracao: 536040 Nota: C1 Vol.: 52
Chanel 5 Note On - Duracao: 536040 Nota: C1 Vol.: 51
Chanel 8 Note Off - Duracao: 536160 Nota: C1 Vol.: 56
Chanel 8 Note On - Duracao: 536160 Nota: C1 Vol.: 58
Chanel 5 Note Off - Duracao: 537000 Nota: C1 Vol.: 51
Chanel 5 Note On - Duracao: 537000 Nota: C1 Vol.: 44
Chanel 6 Note Off - Duracao: 537420 Nota: C1 Vol.: 61
Chanel 6 Note On - Duracao: 537420 Nota: C1 Vol.: 61
Chanel 9 Note Off - Duracao: 538440 Nota: C1 Vol.: 44
Chanel 9 Note On - Duracao: 538440 Nota: C1 Vol.: 46
Chanel 7 Note Off - Duracao: 538620 Nota: C1 Vol.: 42
Chanel 7 Note On - Duracao: 538620 Nota: C1 Vol.: 42
Chanel 5 Note Off - Duracao: 538920 Nota: C1 Vol.: 44
Chanel 5 Note On - Duracao: 538920 Nota: C1 Vol.: 48
Chanel 6 Note Off - Duracao: 539340 Nota: C1 Vol.: 61
Chanel 6 Note On - Duracao: 539340 Nota: C1 Vol.: 60
Chanel 8 Note Off - Duracao: 540000 Nota: C1 Vol.: 58
Chanel 8 Note On - Duracao: 540000 Nota: C1 Vol.: 71
Chanel 5 Note Off - Duracao: 540840 Nota: C1 Vol.: 48
Chanel 5 Note On - Duracao: 540840 Nota: C1 Vol.: 49
Chanel 8 Note Off - Duracao: 540960 Nota: C1 Vol.: 71
Chanel 8 Note On - Duracao: 540960 Nota: C1 Vol.: 85
Chanel 6 Note Off - Duracao: 541260 Nota: C1 Vol.: 60
Chanel 6 Note On - Duracao: 541260 Nota: C1 Vol.: 54
Chanel 8 Note Off - Duracao: 541440 Nota: C1 Vol.: 85
Chanel 8 Note On - Duracao: 541440 Nota: C1 Vol.: 70
Chanel 9 Note Off - Duracao: 542280 Nota: C1 Vol.: 46
Chanel 9 Note On - Duracao: 542280 Nota: C1 Vol.: 63
Chanel 8 Note Off - Duracao: 542400 Nota: C1 Vol.: 70
Chanel 8 Note On - Duracao: 542400 Nota: C1 Vol.: 65
Chanel 7 Note Off - Duracao: 542460 Nota: C1 Vol.: 42
Chanel 7 Note On - Duracao: 542460 Nota: C1 Vol.: 49
Chanel 8 Note Off - Duracao: 543360 Nota: C1 Vol.: 65
Chanel 8 Note On - Duracao: 543360 Nota: C1 Vol.: 65
Chanel 9 Note Off - Duracao: 544200 Nota: C1 Vol.: 63
Chanel 9 Note On - Duracao: 544200 Nota: C1 Vol.: 84
Chanel 8 Note Off - Duracao: 544320 Nota: C1 Vol.: 65
Chanel 8 Note On - Duracao: 544320 Nota: C1 Vol.: 70
Chanel 5 Note Off - Duracao: 544680 Nota: C1 Vol.: 49
Chanel 5 Note On - Duracao: 544680 Nota: C1 Vol.: 50
Chanel 9 Note Off - Duracao: 544680 Nota: C1 Vol.: 84
Chanel 9 Note On - Duracao: 544680 Nota: C1 Vol.: 91
Chanel 9 Note Off - Duracao: 544920 Nota: C1 Vol.: 91
Chanel 9 Note On - Duracao: 544920 Nota: C1 Vol.: 87
Chanel 6 Note Off - Duracao: 545100 Nota: C1 Vol.: 54
Chanel 6 Note On - Duracao: 545100 Nota: C1 Vol.: 48
Chanel 8 Note Off - Duracao: 545280 Nota: C1 Vol.: 70
Chanel 8 Note On - Duracao: 545280 Nota: C1 Vol.: 72
Chanel 9 Note Off - Duracao: 545400 Nota: C1 Vol.: 87
Chanel 9 Note On - Duracao: 545400 Nota: C1 Vol.: 87
Chanel 9 Note Off - Duracao: 545880 Nota: C1 Vol.: 87
Chanel 9 Note On - Duracao: 545880 Nota: C1 Vol.: 94
Chanel 9 Note Off - Duracao: 546120 Nota: C1 Vol.: 94
Chanel 9 Note On - Duracao: 546120 Nota: C1 Vol.: 94
Chanel 8 Note Off - Duracao: 546240 Nota: C1 Vol.: 72
Chanel 8 Note On - Duracao: 546240 Nota: C1 Vol.: 60
Chanel 7 Note Off - Duracao: 546300 Nota: C1 Vol.: 49
Chanel 7 Note On - Duracao: 546300 Nota: C1 Vol.: 48
Chanel 9 Note Off - Duracao: 546360 Nota: C1 Vol.: 94
Chanel 9 Note On - Duracao: 546360 Nota: C1 Vol.: 75
Chanel 5 Note Off - Duracao: 546600 Nota: C1 Vol.: 50
Chanel 5 Note On - Duracao: 546600 Nota: C1 Vol.: 48
Chanel 9 Note Off - Duracao: 547320 Nota: C1 Vol.: 75
Chanel 9 Note On - Duracao: 547320 Nota: C1 Vol.: 95
Chanel 9 Note Off - Duracao: 547560 Nota: C1 Vol.: 95
Chanel 9 Note On - Duracao: 547560 Nota: C1 Vol.: 84
Chanel 8 Note Off - Duracao: 548160 Nota: C1 Vol.: 60
Chanel 8 Note On - Duracao: 548160 Nota: C1 Vol.: 67
Chanel 5 Note Off - Duracao: 548520 Nota: C1 Vol.: 48
Chanel 5 Note On - Duracao: 548520 Nota: C1 Vol.: 42
Chanel 9 Note Off - Duracao: 548520 Nota: C1 Vol.: 84
Chanel 9 Note On - Duracao: 548520 Nota: C1 Vol.: 75
Chanel 6 Note Off - Duracao: 548940 Nota: C1 Vol.: 48
Chanel 6 Note On - Duracao: 548940 Nota: C1 Vol.: 49
Chanel 8 Note Off - Duracao: 549120 Nota: C1 Vol.: 67
Chanel 8 Note On - Duracao: 549120 Nota: C1 Vol.: 60
Chanel 7 Note Off - Duracao: 550140 Nota: C1 Vol.: 48
Chanel 7 Note On - Duracao: 550140 Nota: C1 Vol.: 49
Chanel 9 Note Off - Duracao: 550440 Nota: C1 Vol.: 75
Chanel 9 Note On - Duracao: 550440 Nota: C1 Vol.: 83
Chanel 6 Note Off - Duracao: 550860 Nota: C1 Vol.: 49
Chanel 6 Note On - Duracao: 550860 Nota: C1 Vol.: 52
Chanel 8 Note Off - Duracao: 551040 Nota: C1 Vol.: 60
Chanel 8 Note On - Duracao: 551040 Nota: C1 Vol.: 52
Chanel 9 Note Off - Duracao: 551400 Nota: C1 Vol.: 83
Chanel 9 Note On - Duracao: 551400 Nota: C1 Vol.: 95
Chanel 9 Note Off - Duracao: 551640 Nota: C1 Vol.: 95
Chanel 9 Note On - Duracao: 551640 Nota: C1 Vol.: 100
Chanel 9 Note Off - Duracao: 551760 Nota: C1 Vol.: 100
Chanel 9 Note On - Duracao: 551760 Nota: C1 Vol.: 100
Chanel 9 Note Off - Duracao: 551880 Nota: C1 Vol.: 100
Chanel 9 Note On - Duracao: 551880 Nota: C1 Vol.: 97
Chanel 9 Note Off - Duracao: 552120 Nota: C1 Vol.: 97
Chanel 9 Note On - Duracao: 552120 Nota: C1 Vol.: 93
Chanel 5 Note Off - Duracao: 552360 Nota: C1 Vol.: 42
Chanel 5 Note On - Duracao: 552360 Nota: C1 Vol.: 44
Chanel 9 Note Off - Duracao: 552360 Nota: C1 Vol.: 93
Chanel 9 Note On - Duracao: 552360 Nota: C1 Vol.: 88
Chanel 9 Note Off - Duracao: 552600 Nota: C1 Vol.: 88
Chanel 9 Note On - Duracao: 552600 Nota: C1 Vol.: 75
Chanel 6 Note Off - Duracao: 552780 Nota: C1 Vol.: 52
Chanel 6 Note On - Duracao: 552780 Nota: C1 Vol.: 56
Chanel 9 Note Off - Duracao: 553560 Nota: C1 Vol.: 75
Chanel 9 Note On - Duracao: 553560 Nota: C1 Vol.: 65
Chanel 7 Note Off - Duracao: 553980 Nota: C1 Vol.: 49
Chanel 7 Note On - Duracao: 553980 Nota: C1 Vol.: 51
Chanel 5 Note Off - Duracao: 554280 Nota: C1 Vol.: 44
Chanel 5 Note On - Duracao: 554280 Nota: C1 Vol.: 63
Chanel 6 Note Off - Duracao: 554700 Nota: C1 Vol.: 56
Chanel 6 Note On - Duracao: 554700 Nota: C1 Vol.: 85
Chanel 5 Note Off - Duracao: 554760 Nota: C1 Vol.: 63
Chanel 5 Note On - Duracao: 554760 Nota: C1 Vol.: 61
Chanel 8 Note Off - Duracao: 554880 Nota: C1 Vol.: 52
Chanel 8 Note On - Duracao: 554880 Nota: C1 Vol.: 52
Chanel 6 Note Off - Duracao: 555180 Nota: C1 Vol.: 85
Chanel 6 Note On - Duracao: 555180 Nota: C1 Vol.: 93
Chanel 5 Note Off - Duracao: 555240 Nota: C1 Vol.: 61
Chanel 5 Note On - Duracao: 555240 Nota: C1 Vol.: 41
Chanel 6 Note Off - Duracao: 555420 Nota: C1 Vol.: 93
Chanel 6 Note On - Duracao: 555420 Nota: C1 Vol.: 96
Chanel 9 Note Off - Duracao: 555480 Nota: C1 Vol.: 65
Chanel 9 Note On - Duracao: 555480 Nota: C1 Vol.: 44
Chanel 6 Note Off - Duracao: 555660 Nota: C1 Vol.: 96
Chanel 6 Note On - Duracao: 555660 Nota: C1 Vol.: 78
Chanel 7 Note Off - Duracao: 555900 Nota: C1 Vol.: 51
Chanel 7 Note On - Duracao: 555900 Nota: C1 Vol.: 48
Chanel 6 Note Off - Duracao: 556620 Nota: C1 Vol.: 78
Chanel 6 Note On - Duracao: 556620 Nota: C1 Vol.: 58
Chanel 8 Note Off - Duracao: 556800 Nota: C1 Vol.: 52
Chanel 8 Note On - Duracao: 556800 Nota: C1 Vol.: 46
Chanel 5 Note Off - Duracao: 557160 Nota: C1 Vol.: 41
Chanel 5 Note On - Duracao: 557160 Nota: C1 Vol.: 47
Chanel 7 Note Off - Duracao: 557820 Nota: C1 Vol.: 48
Chanel 7 Note On - Duracao: 557820 Nota: C1 Vol.: 45
Chanel 6 Note Off - Duracao: 558540 Nota: C1 Vol.: 58
Chanel 6 Note On - Duracao: 558540 Nota: C1 Vol.: 70
Chanel 8 Note Off - Duracao: 558720 Nota: C1 Vol.: 46
Chanel 8 Note On - Duracao: 558720 Nota: C1 Vol.: 44
Chanel 6 Note Off - Duracao: 559020 Nota: C1 Vol.: 70
Chanel 6 Note On - Duracao: 559020 Nota: C1 Vol.: 82
Chanel 5 Note Off - Duracao: 559080 Nota: C1 Vol.: 47
Chanel 5 Note On - Duracao: 559080 Nota: C1 Vol.: 44
Chanel 6 Note Off - Duracao: 559260 Nota: C1 Vol.: 82
Chanel 6 Note On - Duracao: 559260 Nota: C1 Vol.: 90
Chanel 9 Note Off - Duracao: 559320 Nota: C1 Vol.: 44
Chanel 9 Note On - Duracao: 559320 Nota: C1 Vol.: 47
Chanel 6 Note Off - Duracao: 559380 Nota: C1 Vol.: 90
Chanel 6 Note On - Duracao: 559380 Nota: C1 Vol.: 92
Chanel 6 Note Off - Duracao: 559500 Nota: C1 Vol.: 92
Chanel 6 Note On - Duracao: 559500 Nota: C1 Vol.: 89
Chanel 6 Note Off - Duracao: 559620 Nota: C1 Vol.: 89
Chanel 6 Note On - Duracao: 559620 Nota: C1 Vol.: 55
Chanel 7 Note Off - Duracao: 559740 Nota: C1 Vol.: 45
Chanel 7 Note On - Duracao: 559740 Nota: C1 Vol.: 41
Chanel 6 Note Off - Duracao: 560580 Nota: C1 Vol.: 55
Chanel 6 Note On - Duracao: 560580 Nota: C1 Vol.: 55
Chanel 5 Note Off - Duracao: 561000 Nota: C1 Vol.: 44
Chanel 5 Note On - Duracao: 561000 Nota: C1 Vol.: 57
Chanel 6 Note Off - Duracao: 561060 Nota: C1 Vol.: 55
Chanel 6 Note On - Duracao: 561060 Nota: C1 Vol.: 71
Chanel 9 Note Off - Duracao: 561240 Nota: C1 Vol.: 47
Chanel 9 Note On - Duracao: 561240 Nota: C1 Vol.: 74
Chanel 6 Note Off - Duracao: 561300 Nota: C1 Vol.: 71
Chanel 6 Note On - Duracao: 561300 Nota: C1 Vol.: 88
Chanel 6 Note Off - Duracao: 561420 Nota: C1 Vol.: 88
Chanel 6 Note On - Duracao: 561420 Nota: C1 Vol.: 62
Chanel 9 Note Off - Duracao: 561720 Nota: C1 Vol.: 74
Chanel 9 Note On - Duracao: 561720 Nota: C1 Vol.: 56
Chanel 6 Note Off - Duracao: 561900 Nota: C1 Vol.: 62
Chanel 6 Note On - Duracao: 561900 Nota: C1 Vol.: 49
Chanel 5 Note Off - Duracao: 561960 Nota: C1 Vol.: 57
Chanel 5 Note On - Duracao: 561960 Nota: C1 Vol.: 60
Chanel 8 Note Off - Duracao: 562560 Nota: C1 Vol.: 44
Chanel 8 Note On - Duracao: 562560 Nota: C1 Vol.: 46
Chanel 6 Note Off - Duracao: 562860 Nota: C1 Vol.: 49
Chanel 6 Note On - Duracao: 562860 Nota: C1 Vol.: 86
Chanel 5 Note Off - Duracao: 562920 Nota: C1 Vol.: 60
Chanel 5 Note On - Duracao: 562920 Nota: C1 Vol.: 46
Chanel 6 Note Off - Duracao: 562980 Nota: C1 Vol.: 86
Chanel 6 Note On - Duracao: 562980 Nota: C1 Vol.: 89
Chanel 6 Note Off - Duracao: 563100 Nota: C1 Vol.: 89
Chanel 6 Note On - Duracao: 563100 Nota: C1 Vol.: 80
Chanel 6 Note Off - Duracao: 563580 Nota: C1 Vol.: 80
Chanel 6 Note On - Duracao: 563580 Nota: C1 Vol.: 77
Chanel 7 Note Off - Duracao: 563580 Nota: C1 Vol.: 41
Chanel 7 Note On - Duracao: 563580 Nota: C1 Vol.: 44
Chanel 9 Note Off - Duracao: 563640 Nota: C1 Vol.: 56
Chanel 9 Note On - Duracao: 563640 Nota: C1 Vol.: 44
Chanel 6 Note Off - Duracao: 564060 Nota: C1 Vol.: 77
Chanel 6 Note On - Duracao: 564060 Nota: C1 Vol.: 79
Chanel 6 Note Off - Duracao: 564300 Nota: C1 Vol.: 79
Chanel 6 Note On - Duracao: 564300 Nota: C1 Vol.: 64
Chanel 8 Note Off - Duracao: 564480 Nota: C1 Vol.: 46
Chanel 8 Note On - Duracao: 564480 Nota: C1 Vol.: 41
Chanel 6 Note Off - Duracao: 564780 Nota: C1 Vol.: 64
Chanel 6 Note On - Duracao: 564780 Nota: C1 Vol.: 60
Chanel 7 Note Off - Duracao: 565500 Nota: C1 Vol.: 44
Chanel 7 Note On - Duracao: 565500 Nota: C1 Vol.: 45
Chanel 8 Note Off - Duracao: 566400 Nota: C1 Vol.: 41
Chanel 8 Note On - Duracao: 566400 Nota: C1 Vol.: 44
Chanel 6 Note Off - Duracao: 566700 Nota: C1 Vol.: 60
Chanel 6 Note On - Duracao: 566700 Nota: C1 Vol.: 66
Chanel 5 Note Off - Duracao: 566760 Nota: C1 Vol.: 46
Chanel 5 Note On - Duracao: 566760 Nota: C1 Vol.: 41
Chanel 9 Note Off - Duracao: 567480 Nota: C1 Vol.: 44
Chanel 9 Note On - Duracao: 567480 Nota: C1 Vol.: 63
Chanel 8 Note Off - Duracao: 568320 Nota: C1 Vol.: 44
Chanel 8 Note On - Duracao: 568320 Nota: C1 Vol.: 47
Chanel 9 Note Off - Duracao: 568440 Nota: C1 Vol.: 63
Chanel 9 Note On - Duracao: 568440 Nota: C1 Vol.: 99
Chanel 9 Note Off - Duracao: 568560 Nota: C1 Vol.: 99
Chanel 9 Note On - Duracao: 568560 Nota: C1 Vol.: 91
Chanel 6 Note Off - Duracao: 568620 Nota: C1 Vol.: 66
Chanel 6 Note On - Duracao: 568620 Nota: C1 Vol.: 47
Chanel 9 Note Off - Duracao: 568800 Nota: C1 Vol.: 91
Chanel 9 Note On - Duracao: 568800 Nota: C1 Vol.: 66
Chanel 8 Note Off - Duracao: 569280 Nota: C1 Vol.: 47
Chanel 8 Note On - Duracao: 569280 Nota: C1 Vol.: 40
Chanel 7 Note Off - Duracao: 569340 Nota: C1 Vol.: 45
Chanel 7 Note On - Duracao: 569340 Nota: C1 Vol.: 52
Chanel 9 Note Off - Duracao: 569760 Nota: C1 Vol.: 66
Chanel 9 Note On - Duracao: 569760 Nota: C1 Vol.: 60
Chanel 5 Note Off - Duracao: 570600 Nota: C1 Vol.: 41
Chanel 5 Note On - Duracao: 570600 Nota: C1 Vol.: 46
Chanel 8 Note Off - Duracao: 571200 Nota: C1 Vol.: 40
Chanel 8 Note On - Duracao: 571200 Nota: C1 Vol.: 43
Chanel 9 Note Off - Duracao: 571680 Nota: C1 Vol.: 60
Chanel 9 Note On - Duracao: 571680 Nota: C1 Vol.: 48
Chanel 8 Note Off - Duracao: 572160 Nota: C1 Vol.: 43
Chanel 8 Note On - Duracao: 572160 Nota: C1 Vol.: 46
Chanel 6 Note Off - Duracao: 572460 Nota: C1 Vol.: 47
Chanel 6 Note On - Duracao: 572460 Nota: C1 Vol.: 61
Chanel 5 Note Off - Duracao: 572520 Nota: C1 Vol.: 46
Chanel 5 Note On - Duracao: 572520 Nota: C1 Vol.: 45
Chanel 8 Note Off - Duracao: 573120 Nota: C1 Vol.: 46
Chanel 8 Note On - Duracao: 573120 Nota: C1 Vol.: 46
Chanel 7 Note Off - Duracao: 573180 Nota: C1 Vol.: 52
Chanel 7 Note On - Duracao: 573180 Nota: C1 Vol.: 63
Chanel 6 Note Off - Duracao: 573420 Nota: C1 Vol.: 61
Chanel 6 Note On - Duracao: 573420 Nota: C1 Vol.: 53
Chanel 5 Note Off - Duracao: 574440 Nota: C1 Vol.: 45
Chanel 5 Note On - Duracao: 574440 Nota: C1 Vol.: 46
Chanel 8 Note Off - Duracao: 575040 Nota: C1 Vol.: 46
Chanel 8 Note On - Duracao: 575040 Nota: C1 Vol.: 59
Chanel 7 Note Off - Duracao: 575100 Nota: C1 Vol.: 63
Chanel 7 Note On - Duracao: 575100 Nota: C1 Vol.: 78
Chanel 6 Note Off - Duracao: 575340 Nota: C1 Vol.: 53
Chanel 6 Note On - Duracao: 575340 Nota: C1 Vol.: 46
Chanel 9 Note Off - Duracao: 575520 Nota: C1 Vol.: 48
Chanel 9 Note On - Duracao: 575520 Nota: C1 Vol.: 56
Chanel 7 Note Off - Duracao: 575580 Nota: C1 Vol.: 78
Chanel 7 Note On - Duracao: 575580 Nota: C1 Vol.: 90
Chanel 7 Note Off - Duracao: 575700 Nota: C1 Vol.: 90
Chanel 7 Note On - Duracao: 575700 Nota: C1 Vol.: 80
Chanel 7 Note Off - Duracao: 575940 Nota: C1 Vol.: 80
Chanel 7 Note On - Duracao: 575940 Nota: C1 Vol.: 50
Chanel 8 Note Off - Duracao: 576000 Nota: C1 Vol.: 59
Chanel 8 Note On - Duracao: 576000 Nota: C1 Vol.: 65
Chanel 8 Note Off - Duracao: 576480 Nota: C1 Vol.: 65
Chanel 8 Note On - Duracao: 576480 Nota: C1 Vol.: 52
Chanel 8 Note Off - Duracao: 577440 Nota: C1 Vol.: 52
Chanel 8 Note On - Duracao: 577440 Nota: C1 Vol.: 48
Chanel 9 Note Off - Duracao: 577440 Nota: C1 Vol.: 56
Chanel 9 Note On - Duracao: 577440 Nota: C1 Vol.: 49
Chanel 7 Note Off - Duracao: 577860 Nota: C1 Vol.: 50
Chanel 7 Note On - Duracao: 577860 Nota: C1 Vol.: 45
Chanel 5 Note Off - Duracao: 578280 Nota: C1 Vol.: 46
Chanel 5 Note On - Duracao: 578280 Nota: C1 Vol.: 43
Chanel 6 Note Off - Duracao: 579180 Nota: C1 Vol.: 46
Chanel 6 Note On - Duracao: 579180 Nota: C1 Vol.: 44
Chanel 9 Note Off - Duracao: 579360 Nota: C1 Vol.: 49
Chanel 9 Note On - Duracao: 579360 Nota: C1 Vol.: 50
Chanel 8 Note Off - Duracao: 581280 Nota: C1 Vol.: 48
Chanel 8 Note On - Duracao: 581280 Nota: C1 Vol.: 60
Chanel 9 Note Off - Duracao: 581280 Nota: C1 Vol.: 50
Chanel 9 Note On - Duracao: 581280 Nota: C1 Vol.: 46
Chanel 7 Note Off - Duracao: 581700 Nota: C1 Vol.: 45
Chanel 7 Note On - Duracao: 581700 Nota: C1 Vol.: 45
Chanel 5 Note Off - Duracao: 582120 Nota: C1 Vol.: 43
Chanel 5 Note On - Duracao: 582120 Nota: C1 Vol.: 42
Chanel 6 Note Off - Duracao: 583020 Nota: C1 Vol.: 44
Chanel 6 Note On - Duracao: 583020 Nota: C1 Vol.: 42
Chanel 8 Note Off - Duracao: 583200 Nota: C1 Vol.: 60
Chanel 8 Note On - Duracao: 583200 Nota: C1 Vol.: 84
Chanel 8 Note Off - Duracao: 584160 Nota: C1 Vol.: 84
Chanel 8 Note On - Duracao: 584160 Nota: C1 Vol.: 93
Chanel 8 Note Off - Duracao: 584640 Nota: C1 Vol.: 93
Chanel 8 Note On - Duracao: 584640 Nota: C1 Vol.: 90
Chanel 8 Note Off - Duracao: 585120 Nota: C1 Vol.: 90
Chanel 8 Note On - Duracao: 585120 Nota: C1 Vol.: 54
Chanel 9 Note Off - Duracao: 585120 Nota: C1 Vol.: 46
Chanel 9 Note On - Duracao: 585120 Nota: C1 Vol.: 47
Chanel 7 Note Off - Duracao: 585540 Nota: C1 Vol.: 45
Chanel 7 Note On - Duracao: 585540 Nota: C1 Vol.: 51
Chanel 5 Note Off - Duracao: 585960 Nota: C1 Vol.: 42
Chanel 5 Note On - Duracao: 585960 Nota: C1 Vol.: 65
Chanel 5 Note Off - Duracao: 586440 Nota: C1 Vol.: 65
Chanel 5 Note On - Duracao: 586440 Nota: C1 Vol.: 56
Chanel 6 Note Off - Duracao: 586860 Nota: C1 Vol.: 42
Chanel 6 Note On - Duracao: 586860 Nota: C1 Vol.: 40
Chanel 5 Note Off - Duracao: 587400 Nota: C1 Vol.: 56
Chanel 5 Note On - Duracao: 587400 Nota: C1 Vol.: 55
Chanel 7 Note Off - Duracao: 587460 Nota: C1 Vol.: 51
Chanel 7 Note On - Duracao: 587460 Nota: C1 Vol.: 48
Chanel 5 Note Off - Duracao: 588360 Nota: C1 Vol.: 55
Chanel 5 Note On - Duracao: 588360 Nota: C1 Vol.: 54
Chanel 8 Note Off - Duracao: 588960 Nota: C1 Vol.: 54
Chanel 8 Note On - Duracao: 588960 Nota: C1 Vol.: 48
Chanel 9 Note Off - Duracao: 588960 Nota: C1 Vol.: 47
Chanel 9 Note On - Duracao: 588960 Nota: C1 Vol.: 44
Chanel 5 Note Off - Duracao: 589320 Nota: C1 Vol.: 54
Chanel 5 Note On - Duracao: 589320 Nota: C1 Vol.: 49
Chanel 6 Note Off - Duracao: 590700 Nota: C1 Vol.: 40
Chanel 6 Note On - Duracao: 590700 Nota: C1 Vol.: 44
Chanel 5 Note Off - Duracao: 591240 Nota: C1 Vol.: 49
Chanel 5 Note On - Duracao: 591240 Nota: C1 Vol.: 40
Chanel 7 Note Off - Duracao: 591300 Nota: C1 Vol.: 48
Chanel 7 Note On - Duracao: 591300 Nota: C1 Vol.: 45
Chanel 8 Note Off - Duracao: 592800 Nota: C1 Vol.: 48
Chanel 8 Note On - Duracao: 592800 Nota: C1 Vol.: 40
Chanel 9 Note Off - Duracao: 592800 Nota: C1 Vol.: 44
Chanel 9 Note On - Duracao: 592800 Nota: C1 Vol.: 44
Chanel 5 Note Off - Duracao: 593160 Nota: C1 Vol.: 40
Chanel 5 Note On - Duracao: 593160 Nota: C1 Vol.: 40
Chanel 6 Note Off - Duracao: 594540 Nota: C1 Vol.: 44
Chanel 6 Note On - Duracao: 594540 Nota: C1 Vol.: 45
Chanel 5 Note Off - Duracao: 595080 Nota: C1 Vol.: 40
Chanel 5 Note On - Duracao: 595080 Nota: C1 Vol.: 52
Chanel 7 Note Off - Duracao: 595140 Nota: C1 Vol.: 45
Chanel 7 Note On - Duracao: 595140 Nota: C1 Vol.: 46
Chanel 5 Note Off - Duracao: 596040 Nota: C1 Vol.: 52
Chanel 5 Note On - Duracao: 596040 Nota: C1 Vol.: 62
Chanel 5 Note Off - Duracao: 596520 Nota: C1 Vol.: 62
Chanel 5 Note On - Duracao: 596520 Nota: C1 Vol.: 56
Chanel 8 Note Off - Duracao: 596640 Nota: C1 Vol.: 40
Chanel 8 Note On - Duracao: 596640 Nota: C1 Vol.: 41
Chanel 9 Note Off - Duracao: 596640 Nota: C1 Vol.: 44
Chanel 9 Note On - Duracao: 596640 Nota: C1 Vol.: 44
Chanel 5 Note Off - Duracao: 597480 Nota: C1 Vol.: 56
Chanel 5 Note On - Duracao: 597480 Nota: C1 Vol.: 67
Chanel 5 Note Off - Duracao: 597960 Nota: C1 Vol.: 67
Chanel 5 Note On - Duracao: 597960 Nota: C1 Vol.: 51
Chanel 6 Note Off - Duracao: 598380 Nota: C1 Vol.: 45
Chanel 6 Note On - Duracao: 598380 Nota: C1 Vol.: 45
Chanel 7 Note Off - Duracao: 598980 Nota: C1 Vol.: 46
Chanel 7 Note On - Duracao: 598980 Nota: C1 Vol.: 50
Chanel 5 Note Off - Duracao: 599880 Nota: C1 Vol.: 51
Chanel 5 Note On - Duracao: 599880 Nota: C1 Vol.: 73
Chanel 5 Note Off - Duracao: 600120 Nota: C1 Vol.: 73
Chanel 5 Note On - Duracao: 600120 Nota: C1 Vol.: 52
Chanel 8 Note Off - Duracao: 600480 Nota: C1 Vol.: 41
Chanel 8 Note On - Duracao: 600480 Nota: C1 Vol.: 42
Chanel 9 Note Off - Duracao: 600480 Nota: C1 Vol.: 44
Chanel 9 Note On - Duracao: 600480 Nota: C1 Vol.: 40
Chanel 5 Note Off - Duracao: 601080 Nota: C1 Vol.: 52
Chanel 5 Note On - Duracao: 601080 Nota: C1 Vol.: 42
Chanel 6 Note Off - Duracao: 602220 Nota: C1 Vol.: 45
Chanel 6 Note On - Duracao: 602220 Nota: C1 Vol.: 43
Chanel 7 Note Off - Duracao: 602820 Nota: C1 Vol.: 50
Chanel 7 Note On - Duracao: 602820 Nota: C1 Vol.: 42
Chanel 5 Note Off - Duracao: 603000 Nota: C1 Vol.: 42
Chanel 5 Note On - Duracao: 603000 Nota: C1 Vol.: 62
Chanel 5 Note Off - Duracao: 603960 Nota: C1 Vol.: 62
Chanel 5 Note On - Duracao: 603960 Nota: C1 Vol.: 44
Chanel 8 Note Off - Duracao: 604320 Nota: C1 Vol.: 42
Chanel 8 Note On - Duracao: 604320 Nota: C1 Vol.: 41
Chanel 9 Note Off - Duracao: 604320 Nota: C1 Vol.: 40
Chanel 9 Note On - Duracao: 604320 Nota: C1 Vol.: 44
Chanel 6 Note Off - Duracao: 606060 Nota: C1 Vol.: 43
Chanel 6 Note On - Duracao: 606060 Nota: C1 Vol.: 41
Chanel 9 Note Off - Duracao: 606240 Nota: C1 Vol.: 44
Chanel 9 Note On - Duracao: 606240 Nota: C1 Vol.: 41
Chanel 7 Note Off - Duracao: 606660 Nota: C1 Vol.: 42
Chanel 7 Note On - Duracao: 606660 Nota: C1 Vol.: 43
Chanel 5 Note Off - Duracao: 607800 Nota: C1 Vol.: 44
Chanel 5 Note On - Duracao: 607800 Nota: C1 Vol.: 44
Chanel 8 Note Off - Duracao: 608160 Nota: C1 Vol.: 41
Chanel 8 Note On - Duracao: 608160 Nota: C1 Vol.: 44
Chanel 9 Note Off - Duracao: 608160 Nota: C1 Vol.: 41
Chanel 9 Note On - Duracao: 608160 Nota: C1 Vol.: 47
Chanel 6 Note Off - Duracao: 609900 Nota: C1 Vol.: 41
Chanel 6 Note On - Duracao: 609900 Nota: C1 Vol.: 42
Chanel 9 Note Off - Duracao: 610080 Nota: C1 Vol.: 47
Chanel 9 Note On - Duracao: 610080 Nota: C1 Vol.: 56
Chanel 7 Note Off - Duracao: 610500 Nota: C1 Vol.: 43
Chanel 7 Note On - Duracao: 610500 Nota: C1 Vol.: 46
Chanel 5 Note Off - Duracao: 611640 Nota: C1 Vol.: 44
Chanel 5 Note On - Duracao: 611640 Nota: C1 Vol.: 46
Chanel 8 Note Off - Duracao: 612000 Nota: C1 Vol.: 44
Chanel 8 Note On - Duracao: 612000 Nota: C1 Vol.: 44
Chanel 9 Note Off - Duracao: 612000 Nota: C1 Vol.: 56
Chanel 9 Note On - Duracao: 612000 Nota: C1 Vol.: 68
Chanel 9 Note Off - Duracao: 612480 Nota: C1 Vol.: 68
Chanel 9 Note On - Duracao: 612480 Nota: C1 Vol.: 44
Chanel 6 Note Off - Duracao: 613740 Nota: C1 Vol.: 42
Chanel 6 Note On - Duracao: 613740 Nota: C1 Vol.: 42
Chanel 7 Note Off - Duracao: 614340 Nota: C1 Vol.: 46
Chanel 7 Note On - Duracao: 614340 Nota: C1 Vol.: 46
Chanel 5 Note Off - Duracao: 615480 Nota: C1 Vol.: 46
Chanel 5 Note On - Duracao: 615480 Nota: C1 Vol.: 40
Chanel 8 Note Off - Duracao: 615840 Nota: C1 Vol.: 44
Chanel 8 Note On - Duracao: 615840 Nota: C1 Vol.: 42
Chanel 9 Note Off - Duracao: 616320 Nota: C1 Vol.: 44
Chanel 9 Note On - Duracao: 616320 Nota: C1 Vol.: 44
Chanel 6 Note Off - Duracao: 617580 Nota: C1 Vol.: 42
Chanel 6 Note On - Duracao: 617580 Nota: C1 Vol.: 42
Chanel 7 Note Off - Duracao: 618180 Nota: C1 Vol.: 46
Chanel 7 Note On - Duracao: 618180 Nota: C1 Vol.: 46
Chanel 5 Note Off - Duracao: 619320 Nota: C1 Vol.: 40
Chanel 5 Note On - Duracao: 619320 Nota: C1 Vol.: 42
Chanel 8 Note Off - Duracao: 619680 Nota: C1 Vol.: 42
Chanel 8 Note On - Duracao: 619680 Nota: C1 Vol.: 42
Chanel 9 Note Off - Duracao: 620160 Nota: C1 Vol.: 44
Chanel 9 Note On - Duracao: 620160 Nota: C1 Vol.: 44
Chanel 6 Note Off - Duracao: 621420 Nota: C1 Vol.: 42
Chanel 6 Note On - Duracao: 621420 Nota: C1 Vol.: 43
Chanel 7 Note Off - Duracao: 622020 Nota: C1 Vol.: 46
Chanel 7 Note On - Duracao: 622020 Nota: C1 Vol.: 50
Chanel 5 Note Off - Duracao: 623160 Nota: C1 Vol.: 42
Chanel 5 Note On - Duracao: 623160 Nota: C1 Vol.: 41
Chanel 8 Note Off - Duracao: 623520 Nota: C1 Vol.: 42
Chanel 8 Note On - Duracao: 623520 Nota: C1 Vol.: 41
Chanel 9 Note Off - Duracao: 624000 Nota: C1 Vol.: 44
Chanel 9 Note On - Duracao: 624000 Nota: C1 Vol.: 43
Chanel 6 Note Off - Duracao: 625260 Nota: C1 Vol.: 43
Chanel 6 Note On - Duracao: 625260 Nota: C1 Vol.: 43
Chanel 7 Note Off - Duracao: 625860 Nota: C1 Vol.: 50
Chanel 7 Note On - Duracao: 625860 Nota: C1 Vol.: 63
Chanel 5 Note Off - Duracao: 627000 Nota: C1 Vol.: 41
Chanel 5 Note On - Duracao: 627000 Nota: C1 Vol.: 40
Chanel 8 Note Off - Duracao: 627360 Nota: C1 Vol.: 41
Chanel 8 Note On - Duracao: 627360 Nota: C1 Vol.: 86
Chanel 7 Note Off - Duracao: 627780 Nota: C1 Vol.: 63
Chanel 7 Note On - Duracao: 627780 Nota: C1 Vol.: 84
Chanel 8 Note Off - Duracao: 627840 Nota: C1 Vol.: 86
Chanel 8 Note On - Duracao: 627840 Nota: C1 Vol.: 93
Chanel 9 Note Off - Duracao: 627840 Nota: C1 Vol.: 43
Chanel 9 Note On - Duracao: 627840 Nota: C1 Vol.: 44
Chanel 8 Note Off - Duracao: 628080 Nota: C1 Vol.: 93
Chanel 8 Note On - Duracao: 628080 Nota: C1 Vol.: 78
Chanel 7 Note Off - Duracao: 628260 Nota: C1 Vol.: 84
Chanel 7 Note On - Duracao: 628260 Nota: C1 Vol.: 100
Chanel 7 Note Off - Duracao: 628380 Nota: C1 Vol.: 100
Chanel 7 Note On - Duracao: 628380 Nota: C1 Vol.: 100
Chanel 7 Note Off - Duracao: 628500 Nota: C1 Vol.: 100
Chanel 7 Note On - Duracao: 628500 Nota: C1 Vol.: 69
Chanel 8 Note Off - Duracao: 629040 Nota: C1 Vol.: 78
Chanel 8 Note On - Duracao: 629040 Nota: C1 Vol.: 71
Chanel 6 Note Off - Duracao: 629100 Nota: C1 Vol.: 43
Chanel 6 Note On - Duracao: 629100 Nota: C1 Vol.: 43
Chanel 7 Note Off - Duracao: 629460 Nota: C1 Vol.: 69
Chanel 7 Note On - Duracao: 629460 Nota: C1 Vol.: 51
Chanel 5 Note Off - Duracao: 630840 Nota: C1 Vol.: 40
Chanel 5 Note On - Duracao: 630840 Nota: C1 Vol.: 51
Chanel 8 Note Off - Duracao: 630960 Nota: C1 Vol.: 71
Chanel 8 Note On - Duracao: 630960 Nota: C1 Vol.: 84
Chanel 8 Note Off - Duracao: 631440 Nota: C1 Vol.: 84
Chanel 8 Note On - Duracao: 631440 Nota: C1 Vol.: 78
Chanel 9 Note Off - Duracao: 631680 Nota: C1 Vol.: 44
Chanel 9 Note On - Duracao: 631680 Nota: C1 Vol.: 52
Chanel 8 Note Off - Duracao: 632400 Nota: C1 Vol.: 78
Chanel 8 Note On - Duracao: 632400 Nota: C1 Vol.: 70
Chanel 5 Note Off - Duracao: 632760 Nota: C1 Vol.: 51
Chanel 5 Note On - Duracao: 632760 Nota: C1 Vol.: 47
Chanel 6 Note Off - Duracao: 632940 Nota: C1 Vol.: 43
Chanel 6 Note On - Duracao: 632940 Nota: C1 Vol.: 61
Chanel 7 Note Off - Duracao: 633300 Nota: C1 Vol.: 51
Chanel 7 Note On - Duracao: 633300 Nota: C1 Vol.: 45
Chanel 8 Note Off - Duracao: 634320 Nota: C1 Vol.: 70
Chanel 8 Note On - Duracao: 634320 Nota: C1 Vol.: 70
Chanel 5 Note Off - Duracao: 634680 Nota: C1 Vol.: 47
Chanel 5 Note On - Duracao: 634680 Nota: C1 Vol.: 51
Chanel 6 Note Off - Duracao: 634860 Nota: C1 Vol.: 61
Chanel 6 Note On - Duracao: 634860 Nota: C1 Vol.: 59
Chanel 9 Note Off - Duracao: 635520 Nota: C1 Vol.: 52
Chanel 9 Note On - Duracao: 635520 Nota: C1 Vol.: 69
Chanel 8 Note Off - Duracao: 636240 Nota: C1 Vol.: 70
Chanel 8 Note On - Duracao: 636240 Nota: C1 Vol.: 79
Chanel 5 Note Off - Duracao: 636600 Nota: C1 Vol.: 51
Chanel 5 Note On - Duracao: 636600 Nota: C1 Vol.: 49
Chanel 6 Note Off - Duracao: 636780 Nota: C1 Vol.: 59
Chanel 6 Note On - Duracao: 636780 Nota: C1 Vol.: 59
Chanel 7 Note Off - Duracao: 637140 Nota: C1 Vol.: 45
Chanel 7 Note On - Duracao: 637140 Nota: C1 Vol.: 40
Chanel 8 Note Off - Duracao: 637200 Nota: C1 Vol.: 79
Chanel 8 Note On - Duracao: 637200 Nota: C1 Vol.: 79
Chanel 9 Note Off - Duracao: 637440 Nota: C1 Vol.: 69
Chanel 9 Note On - Duracao: 637440 Nota: C1 Vol.: 71
Chanel 5 Note Off - Duracao: 637560 Nota: C1 Vol.: 49
Chanel 5 Note On - Duracao: 637560 Nota: C1 Vol.: 59
Chanel 5 Note Off - Duracao: 637800 Nota: C1 Vol.: 59
Chanel 5 Note On - Duracao: 637800 Nota: C1 Vol.: 58
Chanel 5 Note Off - Duracao: 638040 Nota: C1 Vol.: 58
Chanel 5 Note On - Duracao: 638040 Nota: C1 Vol.: 45
Chanel 8 Note Off - Duracao: 638160 Nota: C1 Vol.: 79
Chanel 8 Note On - Duracao: 638160 Nota: C1 Vol.: 75
Chanel 5 Note Off - Duracao: 639000 Nota: C1 Vol.: 45
Chanel 5 Note On - Duracao: 639000 Nota: C1 Vol.: 40
Chanel 8 Note Off - Duracao: 639120 Nota: C1 Vol.: 75
Chanel 8 Note On - Duracao: 639120 Nota: C1 Vol.: 88
Chanel 8 Note Off - Duracao: 639360 Nota: C1 Vol.: 88
Chanel 8 Note On - Duracao: 639360 Nota: C1 Vol.: 82
Chanel 9 Note Off - Duracao: 639360 Nota: C1 Vol.: 71
Chanel 9 Note On - Duracao: 639360 Nota: C1 Vol.: 76
Chanel 8 Note Off - Duracao: 639600 Nota: C1 Vol.: 82
Chanel 8 Note On - Duracao: 639600 Nota: C1 Vol.: 83
Chanel 8 Note Off - Duracao: 639840 Nota: C1 Vol.: 83
Chanel 8 Note On - Duracao: 639840 Nota: C1 Vol.: 76
Chanel 9 Note Off - Duracao: 640320 Nota: C1 Vol.: 76
Chanel 9 Note On - Duracao: 640320 Nota: C1 Vol.: 76
Chanel 6 Note Off - Duracao: 640620 Nota: C1 Vol.: 59
Chanel 6 Note On - Duracao: 640620 Nota: C1 Vol.: 59
Chanel 8 Note Off - Duracao: 640800 Nota: C1 Vol.: 76
Chanel 8 Note On - Duracao: 640800 Nota: C1 Vol.: 75
Chanel 7 Note Off - Duracao: 640980 Nota: C1 Vol.: 40
Chanel 7 Note On - Duracao: 640980 Nota: C1 Vol.: 41
Chanel 8 Note Off - Duracao: 641760 Nota: C1 Vol.: 75
Chanel 8 Note On - Duracao: 641760 Nota: C1 Vol.: 81
Chanel 8 Note Off - Duracao: 642240 Nota: C1 Vol.: 81
Chanel 8 Note On - Duracao: 642240 Nota: C1 Vol.: 84
Chanel 9 Note Off - Duracao: 642240 Nota: C1 Vol.: 76
Chanel 9 Note On - Duracao: 642240 Nota: C1 Vol.: 83
Chanel 6 Note Off - Duracao: 642540 Nota: C1 Vol.: 59
Chanel 6 Note On - Duracao: 642540 Nota: C1 Vol.: 53
Chanel 8 Note Off - Duracao: 642720 Nota: C1 Vol.: 84
Chanel 8 Note On - Duracao: 642720 Nota: C1 Vol.: 85
Chanel 5 Note Off - Duracao: 642840 Nota: C1 Vol.: 40
Chanel 5 Note On - Duracao: 642840 Nota: C1 Vol.: 45
Chanel 8 Note Off - Duracao: 643200 Nota: C1 Vol.: 85
Chanel 8 Note On - Duracao: 643200 Nota: C1 Vol.: 74
Chanel 9 Note Off - Duracao: 643200 Nota: C1 Vol.: 83
Chanel 9 Note On - Duracao: 643200 Nota: C1 Vol.: 81
Chanel 8 Note Off - Duracao: 644160 Nota: C1 Vol.: 74
Chanel 8 Note On - Duracao: 644160 Nota: C1 Vol.: 58
Chanel 9 Note Off - Duracao: 644160 Nota: C1 Vol.: 81
Chanel 9 Note On - Duracao: 644160 Nota: C1 Vol.: 70
Chanel 6 Note Off - Duracao: 644460 Nota: C1 Vol.: 53
Chanel 6 Note On - Duracao: 644460 Nota: C1 Vol.: 49
Chanel 7 Note Off - Duracao: 644820 Nota: C1 Vol.: 41
Chanel 7 Note On - Duracao: 644820 Nota: C1 Vol.: 44
Chanel 8 Note Off - Duracao: 645120 Nota: C1 Vol.: 58
Chanel 8 Note On - Duracao: 645120 Nota: C1 Vol.: 63
Chanel 8 Note Off - Duracao: 645600 Nota: C1 Vol.: 63
Chanel 8 Note On - Duracao: 645600 Nota: C1 Vol.: 66
Chanel 8 Note Off - Duracao: 646080 Nota: C1 Vol.: 66
Chanel 8 Note On - Duracao: 646080 Nota: C1 Vol.: 43
Chanel 9 Note Off - Duracao: 646080 Nota: C1 Vol.: 70
Chanel 9 Note On - Duracao: 646080 Nota: C1 Vol.: 89
Chanel 6 Note Off - Duracao: 646380 Nota: C1 Vol.: 49
Chanel 6 Note On - Duracao: 646380 Nota: C1 Vol.: 49
Chanel 9 Note Off - Duracao: 646560 Nota: C1 Vol.: 89
Chanel 9 Note On - Duracao: 646560 Nota: C1 Vol.: 87
Chanel 5 Note Off - Duracao: 646680 Nota: C1 Vol.: 45
Chanel 5 Note On - Duracao: 646680 Nota: C1 Vol.: 42
Chanel 9 Note Off - Duracao: 647040 Nota: C1 Vol.: 87
Chanel 9 Note On - Duracao: 647040 Nota: C1 Vol.: 85
Chanel 9 Note Off - Duracao: 647520 Nota: C1 Vol.: 85
Chanel 9 Note On - Duracao: 647520 Nota: C1 Vol.: 91
Chanel 8 Note Off - Duracao: 648000 Nota: C1 Vol.: 43
Chanel 8 Note On - Duracao: 648000 Nota: C1 Vol.: 42
Chanel 9 Note Off - Duracao: 648000 Nota: C1 Vol.: 91
Chanel 9 Note On - Duracao: 648000 Nota: C1 Vol.: 94
Chanel 9 Note Off - Duracao: 648240 Nota: C1 Vol.: 94
Chanel 9 Note On - Duracao: 648240 Nota: C1 Vol.: 90
Chanel 7 Note Off - Duracao: 648660 Nota: C1 Vol.: 44
Chanel 7 Note On - Duracao: 648660 Nota: C1 Vol.: 42
Chanel 9 Note Off - Duracao: 648720 Nota: C1 Vol.: 90
Chanel 9 Note On - Duracao: 648720 Nota: C1 Vol.: 86
Chanel 9 Note Off - Duracao: 649680 Nota: C1 Vol.: 86
Chanel 9 Note On - Duracao: 649680 Nota: C1 Vol.: 82
Chanel 8 Note Off - Duracao: 649920 Nota: C1 Vol.: 42
Chanel 8 Note On - Duracao: 649920 Nota: C1 Vol.: 40
Chanel 6 Note Off - Duracao: 650220 Nota: C1 Vol.: 49
Chanel 6 Note On - Duracao: 650220 Nota: C1 Vol.: 55
Chanel 5 Note Off - Duracao: 650520 Nota: C1 Vol.: 42
Chanel 5 Note On - Duracao: 650520 Nota: C1 Vol.: 49
Chanel 9 Note Off - Duracao: 650640 Nota: C1 Vol.: 82
Chanel 9 Note On - Duracao: 650640 Nota: C1 Vol.: 71
Chanel 6 Note Off - Duracao: 652140 Nota: C1 Vol.: 55
Chanel 6 Note On - Duracao: 652140 Nota: C1 Vol.: 70
Chanel 5 Note Off - Duracao: 652440 Nota: C1 Vol.: 49
Chanel 5 Note On - Duracao: 652440 Nota: C1 Vol.: 53
Chanel 7 Note Off - Duracao: 652500 Nota: C1 Vol.: 42
Chanel 7 Note On - Duracao: 652500 Nota: C1 Vol.: 44
Chanel 9 Note Off - Duracao: 652560 Nota: C1 Vol.: 71
Chanel 9 Note On - Duracao: 652560 Nota: C1 Vol.: 62
Chanel 6 Note Off - Duracao: 653100 Nota: C1 Vol.: 70
Chanel 6 Note On - Duracao: 653100 Nota: C1 Vol.: 86
Chanel 5 Note Off - Duracao: 653400 Nota: C1 Vol.: 53
Chanel 5 Note On - Duracao: 653400 Nota: C1 Vol.: 55
Chanel 6 Note Off - Duracao: 653580 Nota: C1 Vol.: 86
Chanel 6 Note On - Duracao: 653580 Nota: C1 Vol.: 94
Chanel 8 Note Off - Duracao: 653760 Nota: C1 Vol.: 40
Chanel 8 Note On - Duracao: 653760 Nota: C1 Vol.: 41
Chanel 6 Note Off - Duracao: 653820 Nota: C1 Vol.: 94
Chanel 6 Note On - Duracao: 653820 Nota: C1 Vol.: 96
Chanel 6 Note Off - Duracao: 654060 Nota: C1 Vol.: 96
Chanel 6 Note On - Duracao: 654060 Nota: C1 Vol.: 70
Chanel 5 Note Off - Duracao: 654360 Nota: C1 Vol.: 55
Chanel 5 Note On - Duracao: 654360 Nota: C1 Vol.: 48
Chanel 6 Note Off - Duracao: 655020 Nota: C1 Vol.: 70
Chanel 6 Note On - Duracao: 655020 Nota: C1 Vol.: 50
Chanel 5 Note Off - Duracao: 655320 Nota: C1 Vol.: 48
Chanel 5 Note On - Duracao: 655320 Nota: C1 Vol.: 41
Chanel 8 Note Off - Duracao: 655680 Nota: C1 Vol.: 41
Chanel 8 Note On - Duracao: 655680 Nota: C1 Vol.: 46
Chanel 7 Note Off - Duracao: 656340 Nota: C1 Vol.: 44
Chanel 7 Note On - Duracao: 656340 Nota: C1 Vol.: 45
Chanel 9 Note Off - Duracao: 656400 Nota: C1 Vol.: 62
Chanel 9 Note On - Duracao: 656400 Nota: C1 Vol.: 56
Chanel 8 Note Off - Duracao: 656640 Nota: C1 Vol.: 46
Chanel 8 Note On - Duracao: 656640 Nota: C1 Vol.: 42
Chanel 6 Note Off - Duracao: 656940 Nota: C1 Vol.: 50
Chanel 6 Note On - Duracao: 656940 Nota: C1 Vol.: 51
Chanel 5 Note Off - Duracao: 657240 Nota: C1 Vol.: 41
Chanel 5 Note On - Duracao: 657240 Nota: C1 Vol.: 52
Chanel 8 Note Off - Duracao: 657600 Nota: C1 Vol.: 42
Chanel 8 Note On - Duracao: 657600 Nota: C1 Vol.: 40
Chanel 5 Note Off - Duracao: 658200 Nota: C1 Vol.: 52
Chanel 5 Note On - Duracao: 658200 Nota: C1 Vol.: 41
Chanel 6 Note Off - Duracao: 658860 Nota: C1 Vol.: 51
Chanel 6 Note On - Duracao: 658860 Nota: C1 Vol.: 54
Chanel 8 Note Off - Duracao: 659520 Nota: C1 Vol.: 40
Chanel 8 Note On - Duracao: 659520 Nota: C1 Vol.: 47
Chanel 7 Note Off - Duracao: 660180 Nota: C1 Vol.: 45
Chanel 7 Note On - Duracao: 660180 Nota: C1 Vol.: 44
Chanel 9 Note Off - Duracao: 660240 Nota: C1 Vol.: 56
Chanel 9 Note On - Duracao: 660240 Nota: C1 Vol.: 47
Chanel 8 Note Off - Duracao: 660480 Nota: C1 Vol.: 47
Chanel 8 Note On - Duracao: 660480 Nota: C1 Vol.: 50
Chanel 6 Note Off - Duracao: 660780 Nota: C1 Vol.: 54
Chanel 6 Note On - Duracao: 660780 Nota: C1 Vol.: 58
Chanel 8 Note Off - Duracao: 661440 Nota: C1 Vol.: 50
Chanel 8 Note On - Duracao: 661440 Nota: C1 Vol.: 65
Chanel 8 Note Off - Duracao: 661680 Nota: C1 Vol.: 65
Chanel 8 Note On - Duracao: 661680 Nota: C1 Vol.: 49
Chanel 6 Note Off - Duracao: 661740 Nota: C1 Vol.: 58
Chanel 6 Note On - Duracao: 661740 Nota: C1 Vol.: 58
Chanel 5 Note Off - Duracao: 662040 Nota: C1 Vol.: 41
Chanel 5 Note On - Duracao: 662040 Nota: C1 Vol.: 43
Chanel 8 Note Off - Duracao: 662640 Nota: C1 Vol.: 49
Chanel 8 Note On - Duracao: 662640 Nota: C1 Vol.: 47
Chanel 6 Note Off - Duracao: 662700 Nota: C1 Vol.: 58
Chanel 6 Note On - Duracao: 662700 Nota: C1 Vol.: 49
Chanel 6 Note Off - Duracao: 663660 Nota: C1 Vol.: 49
Chanel 6 Note On - Duracao: 663660 Nota: C1 Vol.: 76
Chanel 6 Note Off - Duracao: 663780 Nota: C1 Vol.: 76
Chanel 6 Note On - Duracao: 663780 Nota: C1 Vol.: 70
Chanel 5 Note Off - Duracao: 663960 Nota: C1 Vol.: 43
Chanel 5 Note On - Duracao: 663960 Nota: C1 Vol.: 58
Chanel 7 Note Off - Duracao: 664020 Nota: C1 Vol.: 44
Chanel 7 Note On - Duracao: 664020 Nota: C1 Vol.: 41
Chanel 9 Note Off - Duracao: 664080 Nota: C1 Vol.: 47
Chanel 9 Note On - Duracao: 664080 Nota: C1 Vol.: 56
Chanel 6 Note Off - Duracao: 664260 Nota: C1 Vol.: 70
Chanel 6 Note On - Duracao: 664260 Nota: C1 Vol.: 71
Chanel 8 Note Off - Duracao: 664560 Nota: C1 Vol.: 47
Chanel 8 Note On - Duracao: 664560 Nota: C1 Vol.: 53
Chanel 6 Note Off - Duracao: 664740 Nota: C1 Vol.: 71
Chanel 6 Note On - Duracao: 664740 Nota: C1 Vol.: 58
Chanel 5 Note Off - Duracao: 664920 Nota: C1 Vol.: 58
Chanel 5 Note On - Duracao: 664920 Nota: C1 Vol.: 61
Chanel 9 Note Off - Duracao: 665040 Nota: C1 Vol.: 56
Chanel 9 Note On - Duracao: 665040 Nota: C1 Vol.: 57
Chanel 5 Note Off - Duracao: 665400 Nota: C1 Vol.: 61
Chanel 5 Note On - Duracao: 665400 Nota: C1 Vol.: 49
Chanel 6 Note Off - Duracao: 665700 Nota: C1 Vol.: 58
Chanel 6 Note On - Duracao: 665700 Nota: C1 Vol.: 55
Chanel 9 Note Off - Duracao: 666000 Nota: C1 Vol.: 57
Chanel 9 Note On - Duracao: 666000 Nota: C1 Vol.: 50
Chanel 8 Note Off - Duracao: 666480 Nota: C1 Vol.: 53
Chanel 8 Note On - Duracao: 666480 Nota: C1 Vol.: 64
Chanel 6 Note Off - Duracao: 666660 Nota: C1 Vol.: 55
Chanel 6 Note On - Duracao: 666660 Nota: C1 Vol.: 80
Chanel 6 Note Off - Duracao: 666900 Nota: C1 Vol.: 80
Chanel 6 Note On - Duracao: 666900 Nota: C1 Vol.: 61
Chanel 5 Note Off - Duracao: 667320 Nota: C1 Vol.: 49
Chanel 5 Note On - Duracao: 667320 Nota: C1 Vol.: 42
Chanel 7 Note Off - Duracao: 667860 Nota: C1 Vol.: 41
Chanel 7 Note On - Duracao: 667860 Nota: C1 Vol.: 40
Chanel 9 Note Off - Duracao: 667920 Nota: C1 Vol.: 50
Chanel 9 Note On - Duracao: 667920 Nota: C1 Vol.: 70
Chanel 8 Note Off - Duracao: 668400 Nota: C1 Vol.: 64
Chanel 8 Note On - Duracao: 668400 Nota: C1 Vol.: 84
Chanel 6 Note Off - Duracao: 668820 Nota: C1 Vol.: 61
Chanel 6 Note On - Duracao: 668820 Nota: C1 Vol.: 62
Chanel 9 Note Off - Duracao: 668880 Nota: C1 Vol.: 70
Chanel 9 Note On - Duracao: 668880 Nota: C1 Vol.: 50
Chanel 8 Note Off - Duracao: 669360 Nota: C1 Vol.: 84
Chanel 8 Note On - Duracao: 669360 Nota: C1 Vol.: 89
Chanel 8 Note Off - Duracao: 669840 Nota: C1 Vol.: 89
Chanel 8 Note On - Duracao: 669840 Nota: C1 Vol.: 82
Chanel 8 Note Off - Duracao: 670320 Nota: C1 Vol.: 82
Chanel 8 Note On - Duracao: 670320 Nota: C1 Vol.: 47
Chanel 6 Note Off - Duracao: 670740 Nota: C1 Vol.: 62
Chanel 6 Note On - Duracao: 670740 Nota: C1 Vol.: 74
Chanel 9 Note Off - Duracao: 670800 Nota: C1 Vol.: 50
Chanel 9 Note On - Duracao: 670800 Nota: C1 Vol.: 48
Chanel 5 Note Off - Duracao: 671160 Nota: C1 Vol.: 42
Chanel 5 Note On - Duracao: 671160 Nota: C1 Vol.: 61
Chanel 6 Note Off - Duracao: 671700 Nota: C1 Vol.: 74
Chanel 6 Note On - Duracao: 671700 Nota: C1 Vol.: 74
Chanel 7 Note Off - Duracao: 671700 Nota: C1 Vol.: 40
Chanel 7 Note On - Duracao: 671700 Nota: C1 Vol.: 40
Chanel 6 Note Off - Duracao: 671940 Nota: C1 Vol.: 74
Chanel 6 Note On - Duracao: 671940 Nota: C1 Vol.: 66
Chanel 5 Note Off - Duracao: 672120 Nota: C1 Vol.: 61
Chanel 5 Note On - Duracao: 672120 Nota: C1 Vol.: 73
Chanel 5 Note Off - Duracao: 672360 Nota: C1 Vol.: 73
Chanel 5 Note On - Duracao: 672360 Nota: C1 Vol.: 70
Chanel 6 Note Off - Duracao: 672420 Nota: C1 Vol.: 66
Chanel 6 Note On - Duracao: 672420 Nota: C1 Vol.: 66
Chanel 5 Note Off - Duracao: 672840 Nota: C1 Vol.: 70
Chanel 5 Note On - Duracao: 672840 Nota: C1 Vol.: 55
Chanel 6 Note Off - Duracao: 673380 Nota: C1 Vol.: 66
Chanel 6 Note On - Duracao: 673380 Nota: C1 Vol.: 80
Chanel 6 Note Off - Duracao: 673860 Nota: C1 Vol.: 80
Chanel 6 Note On - Duracao: 673860 Nota: C1 Vol.: 52
Chanel 8 Note Off - Duracao: 674160 Nota: C1 Vol.: 47
Chanel 8 Note On - Duracao: 674160 Nota: C1 Vol.: 43
Chanel 9 Note Off - Duracao: 674640 Nota: C1 Vol.: 48
Chanel 9 Note On - Duracao: 674640 Nota: C1 Vol.: 92
Chanel 5 Note Off - Duracao: 674760 Nota: C1 Vol.: 55
Chanel 5 Note On - Duracao: 674760 Nota: C1 Vol.: 43
Chanel 9 Note Off - Duracao: 674880 Nota: C1 Vol.: 92
Chanel 9 Note On - Duracao: 674880 Nota: C1 Vol.: 73
Chanel 7 Note Off - Duracao: 675540 Nota: C1 Vol.: 40
Chanel 7 Note On - Duracao: 675540 Nota: C1 Vol.: 40
Chanel 9 Note Off - Duracao: 675840 Nota: C1 Vol.: 73
Chanel 9 Note On - Duracao: 675840 Nota: C1 Vol.: 77
Chanel 9 Note Off - Duracao: 676320 Nota: C1 Vol.: 77
Chanel 9 Note On - Duracao: 676320 Nota: C1 Vol.: 58
Chanel 6 Note Off - Duracao: 677700 Nota: C1 Vol.: 52
Chanel 6 Note On - Duracao: 677700 Nota: C1 Vol.: 49
Chanel 8 Note Off - Duracao: 678000 Nota: C1 Vol.: 43
Chanel 8 Note On - Duracao: 678000 Nota: C1 Vol.: 40
Chanel 9 Note Off - Duracao: 678240 Nota: C1 Vol.: 58
Chanel 9 Note On - Duracao: 678240 Nota: C1 Vol.: 44
Chanel 5 Note Off - Duracao: 678600 Nota: C1 Vol.: 43
Chanel 5 Note On - Duracao: 678600 Nota: C1 Vol.: 72
Chanel 5 Note Off - Duracao: 679080 Nota: C1 Vol.: 72
Chanel 5 Note On - Duracao: 679080 Nota: C1 Vol.: 77
Chanel 5 Note Off - Duracao: 679320 Nota: C1 Vol.: 77
Chanel 5 Note On - Duracao: 679320 Nota: C1 Vol.: 68
Chanel 7 Note Off - Duracao: 679380 Nota: C1 Vol.: 40
Chanel 7 Note On - Duracao: 679380 Nota: C1 Vol.: 41
Chanel 5 Note Off - Duracao: 679800 Nota: C1 Vol.: 68
Chanel 5 Note On - Duracao: 679800 Nota: C1 Vol.: 55
Chanel 6 Note Off - Duracao: 681540 Nota: C1 Vol.: 49
Chanel 6 Note On - Duracao: 681540 Nota: C1 Vol.: 47
Chanel 5 Note Off - Duracao: 681720 Nota: C1 Vol.: 55
Chanel 5 Note On - Duracao: 681720 Nota: C1 Vol.: 68
Chanel 8 Note Off - Duracao: 681840 Nota: C1 Vol.: 40
Chanel 8 Note On - Duracao: 681840 Nota: C1 Vol.: 41
Chanel 9 Note Off - Duracao: 682080 Nota: C1 Vol.: 44
Chanel 9 Note On - Duracao: 682080 Nota: C1 Vol.: 47
Chanel 5 Note Off - Duracao: 682200 Nota: C1 Vol.: 68
Chanel 5 Note On - Duracao: 682200 Nota: C1 Vol.: 41
Chanel 7 Note Off - Duracao: 683220 Nota: C1 Vol.: 41
Chanel 7 Note On - Duracao: 683220 Nota: C1 Vol.: 41
Chanel 9 Note Off - Duracao: 684000 Nota: C1 Vol.: 47
Chanel 9 Note On - Duracao: 684000 Nota: C1 Vol.: 40
Chanel 5 Note Off - Duracao: 684120 Nota: C1 Vol.: 41
Chanel 5 Note On - Duracao: 684120 Nota: C1 Vol.: 44
Chanel 6 Note Off - Duracao: 685380 Nota: C1 Vol.: 47
Chanel 6 Note On - Duracao: 685380 Nota: C1 Vol.: 45
Chanel 8 Note Off - Duracao: 685680 Nota: C1 Vol.: 41
Chanel 8 Note On - Duracao: 685680 Nota: C1 Vol.: 40
Chanel 5 Note Off - Duracao: 686040 Nota: C1 Vol.: 44
Chanel 5 Note On - Duracao: 686040 Nota: C1 Vol.: 49
Chanel 7 Note Off - Duracao: 687060 Nota: C1 Vol.: 41
Chanel 7 Note On - Duracao: 687060 Nota: C1 Vol.: 41
Chanel 9 Note Off - Duracao: 687840 Nota: C1 Vol.: 40
Chanel 9 Note On - Duracao: 687840 Nota: C1 Vol.: 52
Chanel 5 Note Off - Duracao: 687960 Nota: C1 Vol.: 49
Chanel 5 Note On - Duracao: 687960 Nota: C1 Vol.: 57
Chanel 9 Note Off - Duracao: 688800 Nota: C1 Vol.: 52
Chanel 9 Note On - Duracao: 688800 Nota: C1 Vol.: 49
Chanel 5 Note Off - Duracao: 688920 Nota: C1 Vol.: 57
Chanel 5 Note On - Duracao: 688920 Nota: C1 Vol.: 59
Chanel 6 Note Off - Duracao: 689220 Nota: C1 Vol.: 45
Chanel 6 Note On - Duracao: 689220 Nota: C1 Vol.: 45
Chanel 8 Note Off - Duracao: 689520 Nota: C1 Vol.: 40
Chanel 8 Note On - Duracao: 689520 Nota: C1 Vol.: 40
Chanel 5 Note Off - Duracao: 689880 Nota: C1 Vol.: 59
Chanel 5 Note On - Duracao: 689880 Nota: C1 Vol.: 62
Chanel 9 Note Off - Duracao: 690720 Nota: C1 Vol.: 49
Chanel 9 Note On - Duracao: 690720 Nota: C1 Vol.: 46
Chanel 5 Note Off - Duracao: 690840 Nota: C1 Vol.: 62
Chanel 5 Note On - Duracao: 690840 Nota: C1 Vol.: 67
Chanel 7 Note Off - Duracao: 690900 Nota: C1 Vol.: 41
Chanel 7 Note On - Duracao: 690900 Nota: C1 Vol.: 42
Chanel 5 Note Off - Duracao: 691320 Nota: C1 Vol.: 67
Chanel 5 Note On - Duracao: 691320 Nota: C1 Vol.: 48
Chanel 6 Note Off - Duracao: 693060 Nota: C1 Vol.: 45
Chanel 6 Note On - Duracao: 693060 Nota: C1 Vol.: 44
Chanel 5 Note Off - Duracao: 693240 Nota: C1 Vol.: 48
Chanel 5 Note On - Duracao: 693240 Nota: C1 Vol.: 40
Chanel 8 Note Off - Duracao: 693360 Nota: C1 Vol.: 40
Chanel 8 Note On - Duracao: 693360 Nota: C1 Vol.: 46
Chanel 9 Note Off - Duracao: 694560 Nota: C1 Vol.: 46
Chanel 9 Note On - Duracao: 694560 Nota: C1 Vol.: 50
Chanel 7 Note Off - Duracao: 694740 Nota: C1 Vol.: 42
Chanel 7 Note On - Duracao: 694740 Nota: C1 Vol.: 49
Chanel 8 Note Off - Duracao: 695280 Nota: C1 Vol.: 46
Chanel 8 Note On - Duracao: 695280 Nota: C1 Vol.: 43
Chanel 9 Note Off - Duracao: 696480 Nota: C1 Vol.: 50
Chanel 9 Note On - Duracao: 696480 Nota: C1 Vol.: 45
Chanel 7 Note Off - Duracao: 696660 Nota: C1 Vol.: 49
Chanel 7 Note On - Duracao: 696660 Nota: C1 Vol.: 49
Chanel 6 Note Off - Duracao: 696900 Nota: C1 Vol.: 44
Chanel 6 Note On - Duracao: 696900 Nota: C1 Vol.: 45
Chanel 5 Note Off - Duracao: 697080 Nota: C1 Vol.: 40
Chanel 5 Note On - Duracao: 697080 Nota: C1 Vol.: 54
Chanel 9 Note Off - Duracao: 698400 Nota: C1 Vol.: 45
Chanel 9 Note On - Duracao: 698400 Nota: C1 Vol.: 44
Chanel 7 Note Off - Duracao: 698580 Nota: C1 Vol.: 49
Chanel 7 Note On - Duracao: 698580 Nota: C1 Vol.: 45
Chanel 5 Note Off - Duracao: 699000 Nota: C1 Vol.: 54
Chanel 5 Note On - Duracao: 699000 Nota: C1 Vol.: 45
Chanel 8 Note Off - Duracao: 699120 Nota: C1 Vol.: 43
Chanel 8 Note On - Duracao: 699120 Nota: C1 Vol.: 43
Chanel 9 Note Off - Duracao: 700320 Nota: C1 Vol.: 44
Chanel 9 Note On - Duracao: 700320 Nota: C1 Vol.: 41
Chanel 6 Note Off - Duracao: 700740 Nota: C1 Vol.: 45
Chanel 6 Note On - Duracao: 700740 Nota: C1 Vol.: 41
Chanel 9 Note Off - Duracao: 702240 Nota: C1 Vol.: 41
Chanel 9 Note On - Duracao: 702240 Nota: C1 Vol.: 48
Chanel 7 Note Off - Duracao: 702420 Nota: C1 Vol.: 45
Chanel 7 Note On - Duracao: 702420 Nota: C1 Vol.: 43
Chanel 5 Note Off - Duracao: 702840 Nota: C1 Vol.: 45
Chanel 5 Note On - Duracao: 702840 Nota: C1 Vol.: 42
Chanel 8 Note Off - Duracao: 702960 Nota: C1 Vol.: 43
Chanel 8 Note On - Duracao: 702960 Nota: C1 Vol.: 40
Chanel 9 Note Off - Duracao: 704160 Nota: C1 Vol.: 48
Chanel 9 Note On - Duracao: 704160 Nota: C1 Vol.: 42
Chanel 6 Note Off - Duracao: 704580 Nota: C1 Vol.: 41
Chanel 6 Note On - Duracao: 704580 Nota: C1 Vol.: 43
Chanel 9 Note Off - Duracao: 706080 Nota: C1 Vol.: 42
Chanel 9 Note On - Duracao: 706080 Nota: C1 Vol.: 44
Chanel 7 Note Off - Duracao: 706260 Nota: C1 Vol.: 43
Chanel 7 Note On - Duracao: 706260 Nota: C1 Vol.: 47
Chanel 5 Note Off - Duracao: 706680 Nota: C1 Vol.: 42
Chanel 5 Note On - Duracao: 706680 Nota: C1 Vol.: 43
Chanel 8 Note Off - Duracao: 706800 Nota: C1 Vol.: 40
Chanel 8 Note On - Duracao: 706800 Nota: C1 Vol.: 83
Chanel 8 Note Off - Duracao: 707760 Nota: C1 Vol.: 83
Chanel 8 Note On - Duracao: 707760 Nota: C1 Vol.: 67
Chanel 7 Note Off - Duracao: 708180 Nota: C1 Vol.: 47
Chanel 7 Note On - Duracao: 708180 Nota: C1 Vol.: 48
Chanel 6 Note Off - Duracao: 708420 Nota: C1 Vol.: 43
Chanel 6 Note On - Duracao: 708420 Nota: C1 Vol.: 44
Chanel 8 Note Off - Duracao: 709680 Nota: C1 Vol.: 67
Chanel 8 Note On - Duracao: 709680 Nota: C1 Vol.: 59
Chanel 9 Note Off - Duracao: 709920 Nota: C1 Vol.: 44
Chanel 9 Note On - Duracao: 709920 Nota: C1 Vol.: 43
Chanel 7 Note Off - Duracao: 710100 Nota: C1 Vol.: 48
Chanel 7 Note On - Duracao: 710100 Nota: C1 Vol.: 44
Chanel 5 Note Off - Duracao: 710520 Nota: C1 Vol.: 43
Chanel 5 Note On - Duracao: 710520 Nota: C1 Vol.: 40
Chanel 8 Note Off - Duracao: 711600 Nota: C1 Vol.: 59
Chanel 8 Note On - Duracao: 711600 Nota: C1 Vol.: 60
Chanel 7 Note Off - Duracao: 712020 Nota: C1 Vol.: 44
Chanel 7 Note On - Duracao: 712020 Nota: C1 Vol.: 44
Chanel 6 Note Off - Duracao: 712260 Nota: C1 Vol.: 44
Chanel 6 Note On - Duracao: 712260 Nota: C1 Vol.: 45
Chanel 8 Note Off - Duracao: 713520 Nota: C1 Vol.: 60
Chanel 8 Note On - Duracao: 713520 Nota: C1 Vol.: 77
Chanel 9 Note Off - Duracao: 713760 Nota: C1 Vol.: 43
Chanel 9 Note On - Duracao: 713760 Nota: C1 Vol.: 50
Chanel 7 Note Off - Duracao: 713940 Nota: C1 Vol.: 44
Chanel 7 Note On - Duracao: 713940 Nota: C1 Vol.: 45
Chanel 5 Note Off - Duracao: 714360 Nota: C1 Vol.: 40
Chanel 5 Note On - Duracao: 714360 Nota: C1 Vol.: 46
Chanel 8 Note Off - Duracao: 714480 Nota: C1 Vol.: 77
Chanel 8 Note On - Duracao: 714480 Nota: C1 Vol.: 72
Chanel 9 Note Off - Duracao: 715680 Nota: C1 Vol.: 50
Chanel 9 Note On - Duracao: 715680 Nota: C1 Vol.: 52
Chanel 6 Note Off - Duracao: 716100 Nota: C1 Vol.: 45
Chanel 6 Note On - Duracao: 716100 Nota: C1 Vol.: 46
Chanel 8 Note Off - Duracao: 716400 Nota: C1 Vol.: 72
Chanel 8 Note On - Duracao: 716400 Nota: C1 Vol.: 79
Chanel 8 Note Off - Duracao: 717360 Nota: C1 Vol.: 79
Chanel 8 Note On - Duracao: 717360 Nota: C1 Vol.: 64
Chanel 9 Note Off - Duracao: 717600 Nota: C1 Vol.: 52
Chanel 9 Note On - Duracao: 717600 Nota: C1 Vol.: 44
Chanel 7 Note Off - Duracao: 717780 Nota: C1 Vol.: 45
Chanel 7 Note On - Duracao: 717780 Nota: C1 Vol.: 51
Chanel 5 Note Off - Duracao: 718200 Nota: C1 Vol.: 46
Chanel 5 Note On - Duracao: 718200 Nota: C1 Vol.: 47
Chanel 8 Note Off - Duracao: 719280 Nota: C1 Vol.: 64
Chanel 8 Note On - Duracao: 719280 Nota: C1 Vol.: 54
Chanel 6 Note Off - Duracao: 719940 Nota: C1 Vol.: 46
Chanel 6 Note On - Duracao: 719940 Nota: C1 Vol.: 44
Chanel 9 Note Off - Duracao: 721440 Nota: C1 Vol.: 44
Chanel 9 Note On - Duracao: 721440 Nota: C1 Vol.: 43
Chanel 7 Note Off - Duracao: 721620 Nota: C1 Vol.: 51
Chanel 7 Note On - Duracao: 721620 Nota: C1 Vol.: 50
Chanel 5 Note Off - Duracao: 722040 Nota: C1 Vol.: 47
Chanel 5 Note On - Duracao: 722040 Nota: C1 Vol.: 44
Chanel 8 Note Off - Duracao: 723120 Nota: C1 Vol.: 54
Chanel 8 Note On - Duracao: 723120 Nota: C1 Vol.: 60
Chanel 6 Note Off - Duracao: 723780 Nota: C1 Vol.: 44
Chanel 6 Note On - Duracao: 723780 Nota: C1 Vol.: 43
Chanel 8 Note Off - Duracao: 725040 Nota: C1 Vol.: 60
Chanel 8 Note On - Duracao: 725040 Nota: C1 Vol.: 83
Chanel 9 Note Off - Duracao: 725280 Nota: C1 Vol.: 43
Chanel 9 Note On - Duracao: 725280 Nota: C1 Vol.: 42
Chanel 7 Note Off - Duracao: 725460 Nota: C1 Vol.: 50
Chanel 7 Note On - Duracao: 725460 Nota: C1 Vol.: 61
Chanel 8 Note Off - Duracao: 725520 Nota: C1 Vol.: 83
Chanel 8 Note On - Duracao: 725520 Nota: C1 Vol.: 88
Chanel 8 Note Off - Duracao: 725760 Nota: C1 Vol.: 88
Chanel 8 Note On - Duracao: 725760 Nota: C1 Vol.: 82
Chanel 5 Note Off - Duracao: 725880 Nota: C1 Vol.: 44
Chanel 5 Note On - Duracao: 725880 Nota: C1 Vol.: 42
Chanel 8 Note Off - Duracao: 726240 Nota: C1 Vol.: 82
Chanel 8 Note On - Duracao: 726240 Nota: C1 Vol.: 76
Chanel 7 Note Off - Duracao: 726420 Nota: C1 Vol.: 61
Chanel 7 Note On - Duracao: 726420 Nota: C1 Vol.: 71
Chanel 7 Note Off - Duracao: 726660 Nota: C1 Vol.: 71
Chanel 7 Note On - Duracao: 726660 Nota: C1 Vol.: 71
Chanel 7 Note Off - Duracao: 726900 Nota: C1 Vol.: 71
Chanel 7 Note On - Duracao: 726900 Nota: C1 Vol.: 53
Chanel 8 Note Off - Duracao: 727200 Nota: C1 Vol.: 76
Chanel 8 Note On - Duracao: 727200 Nota: C1 Vol.: 86
Chanel 6 Note Off - Duracao: 727620 Nota: C1 Vol.: 43
Chanel 6 Note On - Duracao: 727620 Nota: C1 Vol.: 43
Chanel 8 Note Off - Duracao: 727680 Nota: C1 Vol.: 86
Chanel 8 Note On - Duracao: 727680 Nota: C1 Vol.: 87
Chanel 7 Note Off - Duracao: 727860 Nota: C1 Vol.: 53
Chanel 7 Note On - Duracao: 727860 Nota: C1 Vol.: 45
Chanel 8 Note Off - Duracao: 728160 Nota: C1 Vol.: 87
Chanel 8 Note On - Duracao: 728160 Nota: C1 Vol.: 95
Chanel 8 Note Off - Duracao: 728400 Nota: C1 Vol.: 95
Chanel 8 Note On - Duracao: 728400 Nota: C1 Vol.: 85
Chanel 8 Note Off - Duracao: 728880 Nota: C1 Vol.: 85
Chanel 8 Note On - Duracao: 728880 Nota: C1 Vol.: 82
Chanel 9 Note Off - Duracao: 729120 Nota: C1 Vol.: 42
Chanel 9 Note On - Duracao: 729120 Nota: C1 Vol.: 46
Chanel 5 Note Off - Duracao: 729720 Nota: C1 Vol.: 42
Chanel 5 Note On - Duracao: 729720 Nota: C1 Vol.: 50
Chanel 8 Note Off - Duracao: 729840 Nota: C1 Vol.: 82
Chanel 8 Note On - Duracao: 729840 Nota: C1 Vol.: 81
Chanel 8 Note Off - Duracao: 730320 Nota: C1 Vol.: 81
Chanel 8 Note On - Duracao: 730320 Nota: C1 Vol.: 66
Chanel 8 Note Off - Duracao: 730800 Nota: C1 Vol.: 66
Chanel 8 Note On - Duracao: 730800 Nota: C1 Vol.: 55
Chanel 8 Note Off - Duracao: 731280 Nota: C1 Vol.: 55
Chanel 8 Note On - Duracao: 731280 Nota: C1 Vol.: 50
Chanel 6 Note Off - Duracao: 731460 Nota: C1 Vol.: 43
Chanel 6 Note On - Duracao: 731460 Nota: C1 Vol.: 41
Chanel 5 Note Off - Duracao: 731640 Nota: C1 Vol.: 50
Chanel 5 Note On - Duracao: 731640 Nota: C1 Vol.: 48
Chanel 7 Note Off - Duracao: 731700 Nota: C1 Vol.: 45
Chanel 7 Note On - Duracao: 731700 Nota: C1 Vol.: 46
Chanel 8 Note Off - Duracao: 732240 Nota: C1 Vol.: 50
Chanel 8 Note On - Duracao: 732240 Nota: C1 Vol.: 40
Chanel 9 Note Off - Duracao: 732960 Nota: C1 Vol.: 46
Chanel 9 Note On - Duracao: 732960 Nota: C1 Vol.: 52
Chanel 5 Note Off - Duracao: 733560 Nota: C1 Vol.: 48
Chanel 5 Note On - Duracao: 733560 Nota: C1 Vol.: 57
Chanel 5 Note Off - Duracao: 734520 Nota: C1 Vol.: 57
Chanel 5 Note On - Duracao: 734520 Nota: C1 Vol.: 48
Chanel 6 Note Off - Duracao: 735300 Nota: C1 Vol.: 41
Chanel 6 Note On - Duracao: 735300 Nota: C1 Vol.: 43
Chanel 5 Note Off - Duracao: 735480 Nota: C1 Vol.: 48
Chanel 5 Note On - Duracao: 735480 Nota: C1 Vol.: 56
Chanel 7 Note Off - Duracao: 735540 Nota: C1 Vol.: 46
Chanel 7 Note On - Duracao: 735540 Nota: C1 Vol.: 48
Chanel 5 Note Off - Duracao: 735720 Nota: C1 Vol.: 56
Chanel 5 Note On - Duracao: 735720 Nota: C1 Vol.: 54
Chanel 5 Note Off - Duracao: 735960 Nota: C1 Vol.: 54
Chanel 5 Note On - Duracao: 735960 Nota: C1 Vol.: 51
Chanel 8 Note Off - Duracao: 736080 Nota: C1 Vol.: 40
Chanel 8 Note On - Duracao: 736080 Nota: C1 Vol.: 40
Chanel 5 Note Off - Duracao: 736440 Nota: C1 Vol.: 51
Chanel 5 Note On - Duracao: 736440 Nota: C1 Vol.: 51
Chanel 9 Note Off - Duracao: 736800 Nota: C1 Vol.: 52
Chanel 9 Note On - Duracao: 736800 Nota: C1 Vol.: 57
Chanel 5 Note Off - Duracao: 737400 Nota: C1 Vol.: 51
Chanel 5 Note On - Duracao: 737400 Nota: C1 Vol.: 42
Chanel 6 Note Off - Duracao: 739140 Nota: C1 Vol.: 43
Chanel 6 Note On - Duracao: 739140 Nota: C1 Vol.: 43
Chanel 7 Note Off - Duracao: 739380 Nota: C1 Vol.: 48
Chanel 7 Note On - Duracao: 739380 Nota: C1 Vol.: 45
Chanel 8 Note Off - Duracao: 739920 Nota: C1 Vol.: 40
Chanel 8 Note On - Duracao: 739920 Nota: C1 Vol.: 40
Chanel 9 Note Off - Duracao: 740640 Nota: C1 Vol.: 57
Chanel 9 Note On - Duracao: 740640 Nota: C1 Vol.: 64
Chanel 5 Note Off - Duracao: 741240 Nota: C1 Vol.: 42
Chanel 5 Note On - Duracao: 741240 Nota: C1 Vol.: 60
Chanel 5 Note Off - Duracao: 742200 Nota: C1 Vol.: 60
Chanel 5 Note On - Duracao: 742200 Nota: C1 Vol.: 71
Chanel 5 Note Off - Duracao: 742440 Nota: C1 Vol.: 71
Chanel 5 Note On - Duracao: 742440 Nota: C1 Vol.: 56
Chanel 6 Note Off - Duracao: 742980 Nota: C1 Vol.: 43
Chanel 7 Note Off - Duracao: 743220 Nota: C1 Vol.: 45
Chanel 7 Note On - Duracao: 743220 Nota: C1 Vol.: 51
Chanel 5 Note Off - Duracao: 743400 Nota: C1 Vol.: 56
Chanel 5 Note On - Duracao: 743400 Nota: C1 Vol.: 42
Chanel 8 Note Off - Duracao: 743760 Nota: C1 Vol.: 40
Chanel 8 Note On - Duracao: 743760 Nota: C1 Vol.: 40
Chanel 9 Note Off - Duracao: 744480 Nota: C1 Vol.: 64
Chanel 9 Note On - Duracao: 744480 Nota: C1 Vol.: 60
Chanel 5 Note Off - Duracao: 745320 Nota: C1 Vol.: 42
Chanel 5 Note On - Duracao: 745320 Nota: C1 Vol.: 40
Chanel 8 Note Off - Duracao: 745680 Nota: C1 Vol.: 40
Chanel 8 Note On - Duracao: 745680 Nota: C1 Vol.: 41
Chanel 7 Note Off - Duracao: 747060 Nota: C1 Vol.: 51
Chanel 7 Note On - Duracao: 747060 Nota: C1 Vol.: 52
Chanel 8 Note Off - Duracao: 747600 Nota: C1 Vol.: 41
Chanel 8 Note On - Duracao: 747600 Nota: C1 Vol.: 43
Chanel 9 Note Off - Duracao: 748320 Nota: C1 Vol.: 60
Chanel 9 Note On - Duracao: 748320 Nota: C1 Vol.: 63
Chanel 5 Note Off - Duracao: 749160 Nota: C1 Vol.: 40
Chanel 5 Note On - Duracao: 749160 Nota: C1 Vol.: 60
Chanel 8 Note Off - Duracao: 749520 Nota: C1 Vol.: 43
Chanel 8 Note On - Duracao: 749520 Nota: C1 Vol.: 40
Chanel 5 Note Off - Duracao: 749640 Nota: C1 Vol.: 60
Chanel 5 Note On - Duracao: 749640 Nota: C1 Vol.: 52
Chanel 5 Note Off - Duracao: 750600 Nota: C1 Vol.: 52
Chanel 5 Note On - Duracao: 750600 Nota: C1 Vol.: 43
Chanel 7 Note Off - Duracao: 750900 Nota: C1 Vol.: 52
Chanel 7 Note On - Duracao: 750900 Nota: C1 Vol.: 47
Chanel 8 Note Off - Duracao: 751440 Nota: C1 Vol.: 40
Chanel 8 Note On - Duracao: 751440 Nota: C1 Vol.: 40
Chanel 9 Note Off - Duracao: 752160 Nota: C1 Vol.: 63
Chanel 9 Note On - Duracao: 752160 Nota: C1 Vol.: 65
Chanel 5 Note Off - Duracao: 752520 Nota: C1 Vol.: 43
Chanel 5 Note On - Duracao: 752520 Nota: C1 Vol.: 41
Chanel 7 Note Off - Duracao: 754740 Nota: C1 Vol.: 47
Chanel 7 Note On - Duracao: 754740 Nota: C1 Vol.: 46
Chanel 8 Note Off - Duracao: 755280 Nota: C1 Vol.: 40
Chanel 8 Note On - Duracao: 755280 Nota: C1 Vol.: 40
Chanel 9 Note Off - Duracao: 756000 Nota: C1 Vol.: 65
Chanel 9 Note On - Duracao: 756000 Nota: C1 Vol.: 62
Chanel 5 Note Off - Duracao: 756360 Nota: C1 Vol.: 41
Chanel 5 Note On - Duracao: 756360 Nota: C1 Vol.: 50
Chanel 8 Note Off - Duracao: 757200 Nota: C1 Vol.: 40
Chanel 8 Note On - Duracao: 757200 Nota: C1 Vol.: 49
Chanel 5 Note Off - Duracao: 757320 Nota: C1 Vol.: 50
Chanel 5 Note On - Duracao: 757320 Nota: C1 Vol.: 47
Chanel 8 Note Off - Duracao: 757680 Nota: C1 Vol.: 49
Chanel 8 Note On - Duracao: 757680 Nota: C1 Vol.: 45
Chanel 7 Note Off - Duracao: 758580 Nota: C1 Vol.: 46
Chanel 7 Note On - Duracao: 758580 Nota: C1 Vol.: 44
Chanel 8 Note Off - Duracao: 758640 Nota: C1 Vol.: 45
Chanel 8 Note On - Duracao: 758640 Nota: C1 Vol.: 40
Chanel 5 Note Off - Duracao: 759240 Nota: C1 Vol.: 47
Chanel 5 Note On - Duracao: 759240 Nota: C1 Vol.: 48
Chanel 9 Note Off - Duracao: 759840 Nota: C1 Vol.: 62
Chanel 9 Note On - Duracao: 759840 Nota: C1 Vol.: 59
Chanel 5 Note Off - Duracao: 761160 Nota: C1 Vol.: 48
Chanel 5 Note On - Duracao: 761160 Nota: C1 Vol.: 41
Chanel 7 Note Off - Duracao: 762420 Nota: C1 Vol.: 44
Chanel 7 Note On - Duracao: 762420 Nota: C1 Vol.: 45
Chanel 8 Note Off - Duracao: 762480 Nota: C1 Vol.: 40
Chanel 8 Note On - Duracao: 762480 Nota: C1 Vol.: 48
Chanel 9 Note Off - Duracao: 763680 Nota: C1 Vol.: 59
Chanel 9 Note On - Duracao: 763680 Nota: C1 Vol.: 63
Chanel 8 Note Off - Duracao: 764400 Nota: C1 Vol.: 48
Chanel 8 Note On - Duracao: 764400 Nota: C1 Vol.: 56
Chanel 5 Note Off - Duracao: 765000 Nota: C1 Vol.: 41
Chanel 5 Note On - Duracao: 765000 Nota: C1 Vol.: 46
Chanel 7 Note Off - Duracao: 766260 Nota: C1 Vol.: 45
Chanel 7 Note On - Duracao: 766260 Nota: C1 Vol.: 47
Chanel 8 Note Off - Duracao: 766320 Nota: C1 Vol.: 56
Chanel 8 Note On - Duracao: 766320 Nota: C1 Vol.: 67
Chanel 5 Note Off - Duracao: 766920 Nota: C1 Vol.: 46
Chanel 5 Note On - Duracao: 766920 Nota: C1 Vol.: 54
Chanel 9 Note Off - Duracao: 767520 Nota: C1 Vol.: 63
Chanel 9 Note On - Duracao: 767520 Nota: C1 Vol.: 66
Chanel 5 Note Off - Duracao: 767880 Nota: C1 Vol.: 54
Chanel 5 Note On - Duracao: 767880 Nota: C1 Vol.: 55
Chanel 8 Note Off - Duracao: 768240 Nota: C1 Vol.: 67
Chanel 8 Note On - Duracao: 768240 Nota: C1 Vol.: 78
Chanel 5 Note Off - Duracao: 768840 Nota: C1 Vol.: 55
Chanel 5 Note On - Duracao: 768840 Nota: C1 Vol.: 44
Chanel 8 Note Off - Duracao: 769200 Nota: C1 Vol.: 78
Chanel 8 Note On - Duracao: 769200 Nota: C1 Vol.: 81
Chanel 9 Note Off - Duracao: 769440 Nota: C1 Vol.: 66
Chanel 9 Note On - Duracao: 769440 Nota: C1 Vol.: 65
Chanel 8 Note Off - Duracao: 769680 Nota: C1 Vol.: 81
Chanel 8 Note On - Duracao: 769680 Nota: C1 Vol.: 58
Chanel 7 Note Off - Duracao: 770100 Nota: C1 Vol.: 47
Chanel 7 Note On - Duracao: 770100 Nota: C1 Vol.: 50
Chanel 9 Note Off - Duracao: 771360 Nota: C1 Vol.: 65
Chanel 9 Note On - Duracao: 771360 Nota: C1 Vol.: 67
Chanel 8 Note Off - Duracao: 771600 Nota: C1 Vol.: 58
Chanel 8 Note On - Duracao: 771600 Nota: C1 Vol.: 47
Chanel 5 Note Off - Duracao: 772680 Nota: C1 Vol.: 44
Chanel 5 Note On - Duracao: 772680 Nota: C1 Vol.: 45
Chanel 9 Note Off - Duracao: 773280 Nota: C1 Vol.: 67
Chanel 9 Note On - Duracao: 773280 Nota: C1 Vol.: 68
Chanel 7 Note Off - Duracao: 773940 Nota: C1 Vol.: 50
Chanel 7 Note On - Duracao: 773940 Nota: C1 Vol.: 50
Chanel 9 Note Off - Duracao: 775200 Nota: C1 Vol.: 68
Chanel 9 Note On - Duracao: 775200 Nota: C1 Vol.: 67
Chanel 8 Note Off - Duracao: 775440 Nota: C1 Vol.: 47
Chanel 8 Note On - Duracao: 775440 Nota: C1 Vol.: 40
Chanel 5 Note Off - Duracao: 776520 Nota: C1 Vol.: 45
Chanel 5 Note On - Duracao: 776520 Nota: C1 Vol.: 54
Chanel 9 Note Off - Duracao: 777120 Nota: C1 Vol.: 67
Chanel 9 Note On - Duracao: 777120 Nota: C1 Vol.: 69
Chanel 7 Note Off - Duracao: 777780 Nota: C1 Vol.: 50
Chanel 7 Note On - Duracao: 777780 Nota: C1 Vol.: 54
Chanel 5 Note Off - Duracao: 778440 Nota: C1 Vol.: 54
Chanel 5 Note On - Duracao: 778440 Nota: C1 Vol.: 55
Chanel 8 Note Off - Duracao: 779280 Nota: C1 Vol.: 40
Chanel 8 Note On - Duracao: 779280 Nota: C1 Vol.: 40
Chanel 5 Note Off - Duracao: 779400 Nota: C1 Vol.: 55
Chanel 5 Note On - Duracao: 779400 Nota: C1 Vol.: 58
Chanel 5 Note Off - Duracao: 780360 Nota: C1 Vol.: 58
Chanel 5 Note On - Duracao: 780360 Nota: C1 Vol.: 52
Chanel 9 Note Off - Duracao: 780960 Nota: C1 Vol.: 69
Chanel 9 Note On - Duracao: 780960 Nota: C1 Vol.: 68
Chanel 7 Note Off - Duracao: 781620 Nota: C1 Vol.: 54
Chanel 7 Note On - Duracao: 781620 Nota: C1 Vol.: 74
Chanel 5 Note Off - Duracao: 782280 Nota: C1 Vol.: 52
Chanel 5 Note On - Duracao: 782280 Nota: C1 Vol.: 69
Chanel 7 Note Off - Duracao: 782580 Nota: C1 Vol.: 74
Chanel 7 Note On - Duracao: 782580 Nota: C1 Vol.: 94
Chanel 5 Note Off - Duracao: 782760 Nota: C1 Vol.: 69
Chanel 5 Note On - Duracao: 782760 Nota: C1 Vol.: 47
Chanel 7 Note Off - Duracao: 782820 Nota: C1 Vol.: 94
Chanel 7 Note On - Duracao: 782820 Nota: C1 Vol.: 98
Chanel 7 Note Off - Duracao: 783060 Nota: C1 Vol.: 98
Chanel 7 Note On - Duracao: 783060 Nota: C1 Vol.: 74
Chanel 8 Note Off - Duracao: 783120 Nota: C1 Vol.: 40
Chanel 8 Note On - Duracao: 783120 Nota: C1 Vol.: 40
Chanel 7 Note Off - Duracao: 784020 Nota: C1 Vol.: 74
Chanel 7 Note On - Duracao: 784020 Nota: C1 Vol.: 71
Chanel 5 Note Off - Duracao: 784680 Nota: C1 Vol.: 47
Chanel 5 Note On - Duracao: 784680 Nota: C1 Vol.: 51
Chanel 9 Note Off - Duracao: 784800 Nota: C1 Vol.: 68
Chanel 9 Note On - Duracao: 784800 Nota: C1 Vol.: 62
Chanel 7 Note Off - Duracao: 784980 Nota: C1 Vol.: 71
Chanel 7 Note On - Duracao: 784980 Nota: C1 Vol.: 52
Chanel 5 Note Off - Duracao: 786600 Nota: C1 Vol.: 51
Chanel 5 Note On - Duracao: 786600 Nota: C1 Vol.: 42
Chanel 7 Note Off - Duracao: 786900 Nota: C1 Vol.: 52
Chanel 7 Note On - Duracao: 786900 Nota: C1 Vol.: 44
Chanel 8 Note Off - Duracao: 786960 Nota: C1 Vol.: 40
Chanel 8 Note On - Duracao: 786960 Nota: C1 Vol.: 40
Chanel 9 Note Off - Duracao: 788640 Nota: C1 Vol.: 62
Chanel 9 Note On - Duracao: 788640 Nota: C1 Vol.: 55
Chanel 5 Note Off - Duracao: 790440 Nota: C1 Vol.: 42
Chanel 5 Note On - Duracao: 790440 Nota: C1 Vol.: 44
Chanel 7 Note Off - Duracao: 790740 Nota: C1 Vol.: 44
Chanel 7 Note On - Duracao: 790740 Nota: C1 Vol.: 46
Chanel 8 Note Off - Duracao: 790800 Nota: C1 Vol.: 40
Chanel 8 Note On - Duracao: 790800 Nota: C1 Vol.: 42
Chanel 9 Note Off - Duracao: 792480 Nota: C1 Vol.: 55
Chanel 9 Note On - Duracao: 792480 Nota: C1 Vol.: 54
Chanel 8 Note Off - Duracao: 792720 Nota: C1 Vol.: 42
Chanel 8 Note On - Duracao: 792720 Nota: C1 Vol.: 48
Chanel 5 Note Off - Duracao: 794280 Nota: C1 Vol.: 44
Chanel 5 Note On - Duracao: 794280 Nota: C1 Vol.: 48
Chanel 7 Note Off - Duracao: 794580 Nota: C1 Vol.: 46
Chanel 7 Note On - Duracao: 794580 Nota: C1 Vol.: 40
Chanel 8 Note Off - Duracao: 794640 Nota: C1 Vol.: 48
Chanel 8 Note On - Duracao: 794640 Nota: C1 Vol.: 45
Chanel 5 Note Off - Duracao: 796200 Nota: C1 Vol.: 48
Chanel 5 Note On - Duracao: 796200 Nota: C1 Vol.: 56
Chanel 9 Note Off - Duracao: 796320 Nota: C1 Vol.: 54
Chanel 9 Note On - Duracao: 796320 Nota: C1 Vol.: 49
Chanel 8 Note Off - Duracao: 796560 Nota: C1 Vol.: 45
Chanel 8 Note On - Duracao: 796560 Nota: C1 Vol.: 43
Chanel 5 Note Off - Duracao: 798120 Nota: C1 Vol.: 56
Chanel 5 Note On - Duracao: 798120 Nota: C1 Vol.: 50
Chanel 7 Note Off - Duracao: 798420 Nota: C1 Vol.: 40
Chanel 7 Note On - Duracao: 798420 Nota: C1 Vol.: 44
Chanel 8 Note Off - Duracao: 798480 Nota: C1 Vol.: 43
Chanel 8 Note On - Duracao: 798480 Nota: C1 Vol.: 95
Chanel 8 Note Off - Duracao: 798720 Nota: C1 Vol.: 95
Chanel 8 Note On - Duracao: 798720 Nota: C1 Vol.: 71
Chanel 8 Note Off - Duracao: 799680 Nota: C1 Vol.: 71
Chanel 8 Note On - Duracao: 799680 Nota: C1 Vol.: 64
Chanel 5 Note Off - Duracao: 800040 Nota: C1 Vol.: 50
Chanel 5 Note On - Duracao: 800040 Nota: C1 Vol.: 40
Chanel 9 Note Off - Duracao: 800160 Nota: C1 Vol.: 49
Chanel 9 Note On - Duracao: 800160 Nota: C1 Vol.: 54
Chanel 9 Note Off - Duracao: 801120 Nota: C1 Vol.: 54
Chanel 9 Note On - Duracao: 801120 Nota: C1 Vol.: 48
Chanel 8 Note Off - Duracao: 801600 Nota: C1 Vol.: 64
Chanel 8 Note On - Duracao: 801600 Nota: C1 Vol.: 84
Chanel 8 Note Off - Duracao: 802080 Nota: C1 Vol.: 84
Chanel 8 Note On - Duracao: 802080 Nota: C1 Vol.: 100
Chanel 9 Note Off - Duracao: 802080 Nota: C1 Vol.: 48
Chanel 9 Note On - Duracao: 802080 Nota: C1 Vol.: 54
Chanel 7 Note Off - Duracao: 802260 Nota: C1 Vol.: 44
Chanel 7 Note On - Duracao: 802260 Nota: C1 Vol.: 47
Chanel 8 Note Off - Duracao: 802320 Nota: C1 Vol.: 100
Chanel 8 Note On - Duracao: 802320 Nota: C1 Vol.: 88
Chanel 8 Note Off - Duracao: 802800 Nota: C1 Vol.: 88
Chanel 8 Note On - Duracao: 802800 Nota: C1 Vol.: 74
Chanel 9 Note Off - Duracao: 803040 Nota: C1 Vol.: 54
Chanel 9 Note On - Duracao: 803040 Nota: C1 Vol.: 49
Chanel 5 Note Off - Duracao: 803880 Nota: C1 Vol.: 40
Chanel 5 Note On - Duracao: 803880 Nota: C1 Vol.: 49
Chanel 8 Note Off - Duracao: 804720 Nota: C1 Vol.: 74
Chanel 8 Note On - Duracao: 804720 Nota: C1 Vol.: 81
Chanel 9 Note Off - Duracao: 804960 Nota: C1 Vol.: 49
Chanel 9 Note On - Duracao: 804960 Nota: C1 Vol.: 47
Chanel 8 Note Off - Duracao: 805680 Nota: C1 Vol.: 81
Chanel 8 Note On - Duracao: 805680 Nota: C1 Vol.: 56
Chanel 5 Note Off - Duracao: 805800 Nota: C1 Vol.: 49
Chanel 5 Note On - Duracao: 805800 Nota: C1 Vol.: 40
Chanel 7 Note Off - Duracao: 806100 Nota: C1 Vol.: 47
Chanel 7 Note On - Duracao: 806100 Nota: C1 Vol.: 46
Chanel 8 Note Off - Duracao: 807600 Nota: C1 Vol.: 56
Chanel 8 Note On - Duracao: 807600 Nota: C1 Vol.: 58
Chanel 9 Note Off - Duracao: 808800 Nota: C1 Vol.: 47
Chanel 9 Note On - Duracao: 808800 Nota: C1 Vol.: 48
Chanel 8 Note Off - Duracao: 809520 Nota: C1 Vol.: 58
Chanel 8 Note On - Duracao: 809520 Nota: C1 Vol.: 61
Chanel 5 Note Off - Duracao: 809640 Nota: C1 Vol.: 40
Chanel 5 Note On - Duracao: 809640 Nota: C1 Vol.: 40
Chanel 7 Note Off - Duracao: 809940 Nota: C1 Vol.: 46
Chanel 7 Note On - Duracao: 809940 Nota: C1 Vol.: 45
Chanel 8 Note Off - Duracao: 811440 Nota: C1 Vol.: 61
Chanel 8 Note On - Duracao: 811440 Nota: C1 Vol.: 52
Chanel 9 Note Off - Duracao: 812640 Nota: C1 Vol.: 48
Chanel 9 Note On - Duracao: 812640 Nota: C1 Vol.: 71
Chanel 5 Note Off - Duracao: 813480 Nota: C1 Vol.: 40
Chanel 5 Note On - Duracao: 813480 Nota: C1 Vol.: 41
Chanel 9 Note Off - Duracao: 813600 Nota: C1 Vol.: 71
Chanel 9 Note On - Duracao: 813600 Nota: C1 Vol.: 79
Chanel 7 Note Off - Duracao: 813780 Nota: C1 Vol.: 45
Chanel 7 Note On - Duracao: 813780 Nota: C1 Vol.: 42
Chanel 9 Note Off - Duracao: 814080 Nota: C1 Vol.: 79
Chanel 9 Note On - Duracao: 814080 Nota: C1 Vol.: 66
Chanel 8 Note Off - Duracao: 815280 Nota: C1 Vol.: 52
Chanel 8 Note On - Duracao: 815280 Nota: C1 Vol.: 50
Chanel 9 Note Off - Duracao: 816000 Nota: C1 Vol.: 66
Chanel 9 Note On - Duracao: 816000 Nota: C1 Vol.: 54
Chanel 5 Note Off - Duracao: 817320 Nota: C1 Vol.: 41
Chanel 5 Note On - Duracao: 817320 Nota: C1 Vol.: 45
Chanel 7 Note Off - Duracao: 817620 Nota: C1 Vol.: 42
Chanel 7 Note On - Duracao: 817620 Nota: C1 Vol.: 42
Chanel 9 Note Off - Duracao: 817920 Nota: C1 Vol.: 54
Chanel 9 Note On - Duracao: 817920 Nota: C1 Vol.: 45
Chanel 8 Note Off - Duracao: 819120 Nota: C1 Vol.: 50
Chanel 8 Note On - Duracao: 819120 Nota: C1 Vol.: 76
Chanel 9 Note Off - Duracao: 819840 Nota: C1 Vol.: 45
Chanel 9 Note On - Duracao: 819840 Nota: C1 Vol.: 45
Chanel 8 Note Off - Duracao: 820080 Nota: C1 Vol.: 76
Chanel 8 Note On - Duracao: 820080 Nota: C1 Vol.: 100
Chanel 8 Note Off - Duracao: 820320 Nota: C1 Vol.: 100
Chanel 8 Note On - Duracao: 820320 Nota: C1 Vol.: 85
Chanel 8 Note Off - Duracao: 820800 Nota: C1 Vol.: 85
Chanel 8 Note On - Duracao: 820800 Nota: C1 Vol.: 93
Chanel 8 Note Off - Duracao: 821040 Nota: C1 Vol.: 93
Chanel 8 Note On - Duracao: 821040 Nota: C1 Vol.: 100
Chanel 5 Note Off - Duracao: 821160 Nota: C1 Vol.: 45
Chanel 5 Note On - Duracao: 821160 Nota: C1 Vol.: 41
Chanel 8 Note Off - Duracao: 821160 Nota: C1 Vol.: 100
Chanel 8 Note On - Duracao: 821160 Nota: C1 Vol.: 97
Chanel 8 Note Off - Duracao: 821400 Nota: C1 Vol.: 97
Chanel 8 Note On - Duracao: 821400 Nota: C1 Vol.: 77
Chanel 7 Note Off - Duracao: 821460 Nota: C1 Vol.: 42
Chanel 7 Note On - Duracao: 821460 Nota: C1 Vol.: 41
Chanel 9 Note Off - Duracao: 821760 Nota: C1 Vol.: 45
Chanel 9 Note On - Duracao: 821760 Nota: C1 Vol.: 43
Chanel 8 Note Off - Duracao: 822360 Nota: C1 Vol.: 77
Chanel 8 Note On - Duracao: 822360 Nota: C1 Vol.: 61
Chanel 8 Note Off - Duracao: 822840 Nota: C1 Vol.: 61
Chanel 8 Note On - Duracao: 822840 Nota: C1 Vol.: 50
Chanel 9 Note Off - Duracao: 823680 Nota: C1 Vol.: 43
Chanel 9 Note On - Duracao: 823680 Nota: C1 Vol.: 42
Chanel 8 Note Off - Duracao: 823800 Nota: C1 Vol.: 50
Chanel 8 Note On - Duracao: 823800 Nota: C1 Vol.: 43
Chanel 5 Note Off - Duracao: 825000 Nota: C1 Vol.: 41
Chanel 5 Note On - Duracao: 825000 Nota: C1 Vol.: 40
Chanel 7 Note Off - Duracao: 825300 Nota: C1 Vol.: 41
Chanel 7 Note On - Duracao: 825300 Nota: C1 Vol.: 40
Chanel 9 Note Off - Duracao: 825600 Nota: C1 Vol.: 42
Chanel 9 Note On - Duracao: 825600 Nota: C1 Vol.: 43
Chanel 8 Note Off - Duracao: 825720 Nota: C1 Vol.: 43
Chanel 8 Note On - Duracao: 825720 Nota: C1 Vol.: 40
Chanel 5 Note Off - Duracao: 828840 Nota: C1 Vol.: 40
Chanel 5 Note On - Duracao: 828840 Nota: C1 Vol.: 40
Chanel 7 Note Off - Duracao: 829140 Nota: C1 Vol.: 40
Chanel 7 Note On - Duracao: 829140 Nota: C1 Vol.: 40
Chanel 9 Note Off - Duracao: 829440 Nota: C1 Vol.: 43
Chanel 9 Note On - Duracao: 829440 Nota: C1 Vol.: 42
Chanel 8 Note Off - Duracao: 829560 Nota: C1 Vol.: 40
Chanel 8 Note On - Duracao: 829560 Nota: C1 Vol.: 40
Chanel 5 Note Off - Duracao: 832680 Nota: C1 Vol.: 40
Chanel 5 Note On - Duracao: 832680 Nota: C1 Vol.: 41
Chanel 7 Note Off - Duracao: 832980 Nota: C1 Vol.: 40
Chanel 7 Note On - Duracao: 832980 Nota: C1 Vol.: 40
Chanel 9 Note Off - Duracao: 833280 Nota: C1 Vol.: 42
Chanel 9 Note On - Duracao: 833280 Nota: C1 Vol.: 42
Chanel 8 Note Off - Duracao: 833400 Nota: C1 Vol.: 40
Chanel 8 Note On - Duracao: 833400 Nota: C1 Vol.: 40
Chanel 8 Note Off - Duracao: 835320 Nota: C1 Vol.: 40
Chanel 8 Note On - Duracao: 835320 Nota: C1 Vol.: 40
Chanel 5 Note Off - Duracao: 836520 Nota: C1 Vol.: 41
Chanel 5 Note On - Duracao: 836520 Nota: C1 Vol.: 40
Chanel 7 Note Off - Duracao: 836820 Nota: C1 Vol.: 40
Chanel 7 Note On - Duracao: 836820 Nota: C1 Vol.: 44
Chanel 9 Note Off - Duracao: 837120 Nota: C1 Vol.: 42
Chanel 9 Note On - Duracao: 837120 Nota: C1 Vol.: 43
Chanel 8 Note Off - Duracao: 837240 Nota: C1 Vol.: 40
Chanel 8 Note On - Duracao: 837240 Nota: C1 Vol.: 40
Chanel 9 Note Off - Duracao: 839040 Nota: C1 Vol.: 43
Chanel 9 Note On - Duracao: 839040 Nota: C1 Vol.: 42
Chanel 5 Note Off - Duracao: 840360 Nota: C1 Vol.: 40
Chanel 7 Note Off - Duracao: 840660 Nota: C1 Vol.: 44
Chanel 7 Note On - Duracao: 840660 Nota: C1 Vol.: 45
Chanel 9 Note Off - Duracao: 840960 Nota: C1 Vol.: 42
Chanel 9 Note On - Duracao: 840960 Nota: C1 Vol.: 40
Chanel 8 Note Off - Duracao: 841080 Nota: C1 Vol.: 40
Chanel 8 Note On - Duracao: 841080 Nota: C1 Vol.: 52
Chanel 8 Note Off - Duracao: 842040 Nota: C1 Vol.: 52
Chanel 8 Note On - Duracao: 842040 Nota: C1 Vol.: 40
Chanel 8 Note Off - Duracao: 843960 Nota: C1 Vol.: 40
Chanel 8 Note On - Duracao: 843960 Nota: C1 Vol.: 42
Chanel 7 Note Off - Duracao: 844500 Nota: C1 Vol.: 45
Chanel 7 Note On - Duracao: 844500 Nota: C1 Vol.: 46
Chanel 9 Note Off - Duracao: 844800 Nota: C1 Vol.: 40
Chanel 9 Note On - Duracao: 844800 Nota: C1 Vol.: 45
Chanel 8 Note Off - Duracao: 845880 Nota: C1 Vol.: 42
Chanel 8 Note On - Duracao: 845880 Nota: C1 Vol.: 41
Chanel 7 Note Off - Duracao: 846420 Nota: C1 Vol.: 46
Chanel 7 Note On - Duracao: 846420 Nota: C1 Vol.: 49
Chanel 9 Note Off - Duracao: 846720 Nota: C1 Vol.: 45
Chanel 9 Note On - Duracao: 846720 Nota: C1 Vol.: 43
Chanel 8 Note Off - Duracao: 846840 Nota: C1 Vol.: 41
Chanel 8 Note On - Duracao: 846840 Nota: C1 Vol.: 45
Chanel 8 Note Off - Duracao: 847800 Nota: C1 Vol.: 45
Chanel 8 Note On - Duracao: 847800 Nota: C1 Vol.: 45
Chanel 8 Note Off - Duracao: 848280 Nota: C1 Vol.: 45
Chanel 8 Note On - Duracao: 848280 Nota: C1 Vol.: 43
Chanel 7 Note Off - Duracao: 848340 Nota: C1 Vol.: 49
Chanel 7 Note On - Duracao: 848340 Nota: C1 Vol.: 53
Chanel 9 Note Off - Duracao: 848640 Nota: C1 Vol.: 43
Chanel 8 Note Off - Duracao: 849240 Nota: C1 Vol.: 43
Chanel 8 Note On - Duracao: 849240 Nota: C1 Vol.: 75
Chanel 8 Note Off - Duracao: 849480 Nota: C1 Vol.: 75
Chanel 8 Note On - Duracao: 849480 Nota: C1 Vol.: 77
Chanel 8 Note Off - Duracao: 849960 Nota: C1 Vol.: 77
Chanel 8 Note On - Duracao: 849960 Nota: C1 Vol.: 70
Chanel 7 Note Off - Duracao: 850260 Nota: C1 Vol.: 53
Chanel 7 Note On - Duracao: 850260 Nota: C1 Vol.: 50
Chanel 8 Note Off - Duracao: 850920 Nota: C1 Vol.: 70
Chanel 8 Note On - Duracao: 850920 Nota: C1 Vol.: 63
Chanel 7 Note Off - Duracao: 852180 Nota: C1 Vol.: 50
Chanel 7 Note On - Duracao: 852180 Nota: C1 Vol.: 47
Chanel 8 Note Off - Duracao: 852840 Nota: C1 Vol.: 63
Chanel 8 Note On - Duracao: 852840 Nota: C1 Vol.: 80
Chanel 8 Note Off - Duracao: 853800 Nota: C1 Vol.: 80
Chanel 8 Note On - Duracao: 853800 Nota: C1 Vol.: 82
Chanel 8 Note Off - Duracao: 854280 Nota: C1 Vol.: 82
Chanel 8 Note On - Duracao: 854280 Nota: C1 Vol.: 47
Chanel 7 Note Off - Duracao: 856020 Nota: C1 Vol.: 47
Chanel 7 Note On - Duracao: 856020 Nota: C1 Vol.: 48
Chanel 7 Note Off - Duracao: 857940 Nota: C1 Vol.: 48
Chanel 7 Note On - Duracao: 857940 Nota: C1 Vol.: 45
Chanel 8 Note Off - Duracao: 858120 Nota: C1 Vol.: 47
Chanel 8 Note On - Duracao: 858120 Nota: C1 Vol.: 43
Chanel 7 Note Off - Duracao: 859860 Nota: C1 Vol.: 45
Chanel 7 Note On - Duracao: 859860 Nota: C1 Vol.: 40
Chanel 8 Note Off - Duracao: 861960 Nota: C1 Vol.: 43
Chanel 8 Note On - Duracao: 861960 Nota: C1 Vol.: 42
Chanel 7 Note Off - Duracao: 863700 Nota: C1 Vol.: 40
Chanel 7 Note On - Duracao: 863700 Nota: C1 Vol.: 50
Chanel 8 Note Off - Duracao: 865800 Nota: C1 Vol.: 42
Chanel 8 Note On - Duracao: 865800 Nota: C1 Vol.: 40
Chanel 7 Note Off - Duracao: 867540 Nota: C1 Vol.: 50
Chanel 7 Note On - Duracao: 867540 Nota: C1 Vol.: 52
Chanel 8 Note Off - Duracao: 869640 Nota: C1 Vol.: 40
Chanel 8 Note On - Duracao: 869640 Nota: C1 Vol.: 42
Chanel 7 Note Off - Duracao: 871380 Nota: C1 Vol.: 52
Chanel 7 Note On - Duracao: 871380 Nota: C1 Vol.: 45
Chanel 8 Note Off - Duracao: 871560 Nota: C1 Vol.: 42
Chanel 8 Note On - Duracao: 871560 Nota: C1 Vol.: 40
Chanel 7 Note Off - Duracao: 875220 Nota: C1 Vol.: 45
Chanel 7 Note On - Duracao: 875220 Nota: C1 Vol.: 43
Chanel 8 Note Off - Duracao: 875400 Nota: C1 Vol.: 40
Chanel 8 Note On - Duracao: 875400 Nota: C1 Vol.: 40
Chanel 7 Note Off - Duracao: 877140 Nota: C1 Vol.: 43
Chanel 7 Note On - Duracao: 877140 Nota: C1 Vol.: 50
Chanel 7 Note Off - Duracao: 878100 Nota: C1 Vol.: 50
Chanel 7 Note On - Duracao: 878100 Nota: C1 Vol.: 57
Chanel 7 Note Off - Duracao: 878580 Nota: C1 Vol.: 57
Chanel 7 Note On - Duracao: 878580 Nota: C1 Vol.: 51
Chanel 8 Note Off - Duracao: 879240 Nota: C1 Vol.: 40
Chanel 8 Note On - Duracao: 879240 Nota: C1 Vol.: 40
Chanel 7 Note Off - Duracao: 879540 Nota: C1 Vol.: 51
Chanel 7 Note On - Duracao: 879540 Nota: C1 Vol.: 40
Chanel 8 Note Off - Duracao: 883080 Nota: C1 Vol.: 40
Chanel 8 Note On - Duracao: 883080 Nota: C1 Vol.: 40
Chanel 7 Note Off - Duracao: 883380 Nota: C1 Vol.: 40
Chanel 7 Note On - Duracao: 883380 Nota: C1 Vol.: 47
Chanel 7 Note Off - Duracao: 885300 Nota: C1 Vol.: 47
Chanel 7 Note On - Duracao: 885300 Nota: C1 Vol.: 52
Chanel 8 Note Off - Duracao: 886920 Nota: C1 Vol.: 40
Chanel 7 Note Off - Duracao: 887220 Nota: C1 Vol.: 52
Chanel 7 Note On - Duracao: 887220 Nota: C1 Vol.: 45
Chanel 7 Note Off - Duracao: 891060 Nota: C1 Vol.: 45
Chanel 7 Note On - Duracao: 891060 Nota: C1 Vol.: 43
Chanel 7 Note Off - Duracao: 894900 Nota: C1 Vol.: 43
Chanel 7 Note On - Duracao: 894900 Nota: C1 Vol.: 43
Chanel 7 Note Off - Duracao: 898740 Nota: C1 Vol.: 43
Chanel 7 Note On - Duracao: 898740 Nota: C1 Vol.: 43
Chanel 7 Note Off - Duracao: 902580 Nota: C1 Vol.: 43
Chanel 7 Note On - Duracao: 902580 Nota: C1 Vol.: 47
Chanel 7 Note Off - Duracao: 904500 Nota: C1 Vol.: 47
Chanel 7 Note On - Duracao: 904500 Nota: C1 Vol.: 44
Chanel 7 Note Off - Duracao: 908340 Nota: C1 Vol.: 44
Chanel 7 Note On - Duracao: 908340 Nota: C1 Vol.: 50
Chanel 7 Note Off - Duracao: 912180 Nota: C1 Vol.: 50
Chanel 7 Note On - Duracao: 912180 Nota: C1 Vol.: 47
Chanel 7 Note Off - Duracao: 916020 Nota: C1 Vol.: 47
Chanel 7 Note On - Duracao: 916020 Nota: C1 Vol.: 48
Chanel 7 Note Off - Duracao: 919860 Nota: C1 Vol.: 48
Chanel 7 Note On - Duracao: 919860 Nota: C1 Vol.: 50
Chanel 7 Note Off - Duracao: 923700 Nota: C1 Vol.: 50
Chanel 7 Note On - Duracao: 923700 Nota: C1 Vol.: 57
Chanel 7 Note Off - Duracao: 925620 Nota: C1 Vol.: 57
Chanel 7 Note On - Duracao: 925620 Nota: C1 Vol.: 71
Chanel 7 Note Off - Duracao: 926580 Nota: C1 Vol.: 71
Chanel 7 Note On - Duracao: 926580 Nota: C1 Vol.: 85
Chanel 7 Note Off - Duracao: 927060 Nota: C1 Vol.: 85
Chanel 7 Note On - Duracao: 927060 Nota: C1 Vol.: 96
Chanel 7 Note Off - Duracao: 927300 Nota: C1 Vol.: 96
Chanel 7 Note On - Duracao: 927300 Nota: C1 Vol.: 93
Chanel 7 Note Off - Duracao: 927540 Nota: C1 Vol.: 93
Chanel 7 Note On - Duracao: 927540 Nota: C1 Vol.: 69
Chanel 7 Note Off - Duracao: 928500 Nota: C1 Vol.: 69
Chanel 7 Note On - Duracao: 928500 Nota: C1 Vol.: 87
Chanel 7 Note Off - Duracao: 928740 Nota: C1 Vol.: 87
Chanel 7 Note On - Duracao: 928740 Nota: C1 Vol.: 60
Chanel 7 Note Off - Duracao: 930660 Nota: C1 Vol.: 60
Chanel 7 Note On - Duracao: 930660 Nota: C1 Vol.: 44
Chanel 7 Note Off - Duracao: 934500 Nota: C1 Vol.: 44
Chanel 7 Note On - Duracao: 934500 Nota: C1 Vol.: 47
Chanel 7 Note Off - Duracao: 938340 Nota: C1 Vol.: 47
Chanel 7 Note On - Duracao: 938340 Nota: C1 Vol.: 49
Chanel 7 Note Off - Duracao: 942180 Nota: C1 Vol.: 49
Chanel 7 Note On - Duracao: 942180 Nota: C1 Vol.: 46
Chanel 7 Note Off - Duracao: 946020 Nota: C1 Vol.: 46
Chanel 7 Note On - Duracao: 946020 Nota: C1 Vol.: 44
Chanel 7 Note Off - Duracao: 949860 Nota: C1 Vol.: 44
Chanel 7 Note On - Duracao: 949860 Nota: C1 Vol.: 42
Chanel 7 Note Off - Duracao: 953700 Nota: C1 Vol.: 42
Chanel 7 Note On - Duracao: 953700 Nota: C1 Vol.: 40
Chanel 7 Note Off - Duracao: 957540 Nota: C1 Vol.: 40
Chanel 7 Note On - Duracao: 957540 Nota: C1 Vol.: 40
Chanel 7 Note Off - Duracao: 961380 Nota: C1 Vol.: 40
Chanel 7 Note On - Duracao: 961380 Nota: C1 Vol.: 41
Chanel 7 Note Off - Duracao: 965220 Nota: C1 Vol.: 41
Chanel 7 Note On - Duracao: 965220 Nota: C1 Vol.: 41
Chanel 7 Note Off - Duracao: 969060 Nota: C1 Vol.: 41
Chanel 7 Note On - Duracao: 969060 Nota: C1 Vol.: 42
Chanel 7 Note Off - Duracao: 972900 Nota: C1 Vol.: 42
Chanel 7 Note On - Duracao: 972900 Nota: C1 Vol.: 43
Chanel 7 Note Off - Duracao: 976740 Nota: C1 Vol.: 43
Chanel 7 Note On - Duracao: 976740 Nota: C1 Vol.: 41
Chanel 7 Note Off - Duracao: 980580 Nota: C1 Vol.: 41
Chanel 7 Note On - Duracao: 980580 Nota: C1 Vol.: 41
Chanel 7 Note Off - Duracao: 984420 Nota: C1 Vol.: 41
Chanel 7 Note On - Duracao: 984420 Nota: C1 Vol.: 54
Chanel 7 Note Off - Duracao: 986340 Nota: C1 Vol.: 54
Chanel 7 Note On - Duracao: 986340 Nota: C1 Vol.: 48
Chanel 7 Note Off - Duracao: 988260 Nota: C1 Vol.: 48
Chanel 7 Note On - Duracao: 988260 Nota: C1 Vol.: 50
Chanel 7 Note Off - Duracao: 990180 Nota: C1 Vol.: 50
Chanel 7 Note On - Duracao: 990180 Nota: C1 Vol.: 48
Chanel 7 Note Off - Duracao: 994020 Nota: C1 Vol.: 48
Chanel 7 Note On - Duracao: 994020 Nota: C1 Vol.: 46
Chanel 7 Note Off - Duracao: 997860 Nota: C1 Vol.: 46
Chanel 7 Note On - Duracao: 997860 Nota: C1 Vol.: 53
Chanel 7 Note Off - Duracao: 999780 Nota: C1 Vol.: 53
Chanel 7 Note On - Duracao: 999780 Nota: C1 Vol.: 54
Chanel 7 Note Off - Duracao: 1001700 Nota: C1 Vol.: 54
Chanel 7 Note On - Duracao: 1001700 Nota: C1 Vol.: 43
Chanel 7 Note Off - Duracao: 1005540 Nota: C1 Vol.: 43
Chanel 7 Note On - Duracao: 1005540 Nota: C1 Vol.: 48
Chanel 7 Note Off - Duracao: 1009380 Nota: C1 Vol.: 48
Chanel 7 Note On - Duracao: 1009380 Nota: C1 Vol.: 51
Chanel 7 Note Off - Duracao: 1013220 Nota: C1 Vol.: 51
Chanel 7 Note On - Duracao: 1013220 Nota: C1 Vol.: 46
Chanel 7 Note Off - Duracao: 1017060 Nota: C1 Vol.: 46
Chanel 7 Note On - Duracao: 1017060 Nota: C1 Vol.: 40
Chanel 7 Note Off - Duracao: 1020900 Nota: C1 Vol.: 40
Chanel 7 Note On - Duracao: 1020900 Nota: C1 Vol.: 47
Chanel 7 Note Off - Duracao: 1021860 Nota: C1 Vol.: 47
Chanel 7 Note On - Duracao: 1021860 Nota: C1 Vol.: 58
Chanel 7 Note Off - Duracao: 1022100 Nota: C1 Vol.: 58
Chanel 7 Note On - Duracao: 1022100 Nota: C1 Vol.: 57
Chanel 7 Note Off - Duracao: 1022580 Nota: C1 Vol.: 57
Chanel 7 Note On - Duracao: 1022580 Nota: C1 Vol.: 40
Chanel 7 Note Off - Duracao: 1024500 Nota: C1 Vol.: 40
Chanel 7 Note On - Duracao: 1024500 Nota: C1 Vol.: 42
Chanel 7 Note Off - Duracao: 1028340 Nota: C1 Vol.: 42
Chanel 7 Note On - Duracao: 1028340 Nota: C1 Vol.: 46
Chanel 7 Note Off - Duracao: 1032180 Nota: C1 Vol.: 46
Chanel 7 Note On - Duracao: 1032180 Nota: C1 Vol.: 43
Chanel 7 Note Off - Duracao: 1036020 Nota: C1 Vol.: 43
Chanel 7 Note On - Duracao: 1036020 Nota: C1 Vol.: 42
Chanel 7 Note Off - Duracao: 1039860 Nota: C1 Vol.: 42
Chanel 7 Note On - Duracao: 1039860 Nota: C1 Vol.: 42
Chanel 7 Note Off - Duracao: 1043700 Nota: C1 Vol.: 42
Chanel 7 Note On - Duracao: 1043700 Nota: C1 Vol.: 44
Chanel 7 Note Off - Duracao: 1047540 Nota: C1 Vol.: 44
Chanel 7 Note On - Duracao: 1047540 Nota: C1 Vol.: 42
Chanel 7 Note Off - Duracao: 1051380 Nota: C1 Vol.: 42
Chanel 7 Note On - Duracao: 1051380 Nota: C1 Vol.: 48
Chanel 7 Note Off - Duracao: 1053300 Nota: C1 Vol.: 48
Chanel 7 Note On - Duracao: 1053300 Nota: C1 Vol.: 46
Chanel 7 Note Off - Duracao: 1057140 Nota: C1 Vol.: 46
Chanel 7 Note On - Duracao: 1057140 Nota: C1 Vol.: 48
Chanel 7 Note Off - Duracao: 1060980 Nota: C1 Vol.: 48
Chanel 7 Note On - Duracao: 1060980 Nota: C1 Vol.: 47
Chanel 7 Note Off - Duracao: 1064820 Nota: C1 Vol.: 47
Chanel 7 Note On - Duracao: 1064820 Nota: C1 Vol.: 49
Chanel 7 Note Off - Duracao: 1068660 Nota: C1 Vol.: 49
Chanel 7 Note On - Duracao: 1068660 Nota: C1 Vol.: 62
Chanel 7 Note Off - Duracao: 1069620 Nota: C1 Vol.: 62
Chanel 7 Note On - Duracao: 1069620 Nota: C1 Vol.: 71
Chanel 7 Note Off - Duracao: 1070580 Nota: C1 Vol.: 71
Chanel 7 Note On - Duracao: 1070580 Nota: C1 Vol.: 81
Chanel 7 Note Off - Duracao: 1071060 Nota: C1 Vol.: 81
Chanel 7 Note On - Duracao: 1071060 Nota: C1 Vol.: 100
Chanel 7 Note Off - Duracao: 1071180 Nota: C1 Vol.: 100
Chanel 7 Note On - Duracao: 1071180 Nota: C1 Vol.: 100
Chanel 7 Note Off - Duracao: 1071300 Nota: C1 Vol.: 100
Chanel 7 Note On - Duracao: 1071300 Nota: C1 Vol.: 73
Chanel 7 Note Off - Duracao: 1072260 Nota: C1 Vol.: 73
Chanel 7 Note On - Duracao: 1072260 Nota: C1 Vol.: 74
Chanel 7 Note Off - Duracao: 1073220 Nota: C1 Vol.: 74
Chanel 7 Note On - Duracao: 1073220 Nota: C1 Vol.: 94
Chanel 7 Note Off - Duracao: 1073460 Nota: C1 Vol.: 94
Chanel 7 Note On - Duracao: 1073460 Nota: C1 Vol.: 54
Chanel 7 Note Off - Duracao: 1077300 Nota: C1 Vol.: 54
Chanel 7 Note On - Duracao: 1077300 Nota: C1 Vol.: 46
Chanel 7 Note Off - Duracao: 1081140 Nota: C1 Vol.: 46
Chanel 7 Note On - Duracao: 1081140 Nota: C1 Vol.: 48
Chanel 7 Note Off - Duracao: 1084980 Nota: C1 Vol.: 48
Chanel 7 Note On - Duracao: 1084980 Nota: C1 Vol.: 44
Chanel 7 Note Off - Duracao: 1088820 Nota: C1 Vol.: 44
Chanel 7 Note On - Duracao: 1088820 Nota: C1 Vol.: 43
Chanel 7 Note Off - Duracao: 1092660 Nota: C1 Vol.: 43
Chanel 7 Note On - Duracao: 1092660 Nota: C1 Vol.: 41
Chanel 7 Note Off - Duracao: 1096500 Nota: C1 Vol.: 41
Chanel 7 Note On - Duracao: 1096500 Nota: C1 Vol.: 40
Chanel 7 Note Off - Duracao: 1100340 Nota: C1 Vol.: 40
Chanel 7 Note On - Duracao: 1100340 Nota: C1 Vol.: 40
Chanel 7 Note Off - Duracao: 1104180 Nota: C1 Vol.: 40
Chanel 7 Note On - Duracao: 1104180 Nota: C1 Vol.: 40
Chanel 7 Note Off - Duracao: 1108020 Nota: C1 Vol.: 40
Chanel 7 Note On - Duracao: 1108020 Nota: C1 Vol.: 41
Chanel 7 Note Off - Duracao: 1111860 Nota: C1 Vol.: 41
Chanel 7 Note On - Duracao: 1111860 Nota: C1 Vol.: 42
Chanel 7 Note Off - Duracao: 1115700 Nota: C1 Vol.: 42
Chanel 7 Note On - Duracao: 1115700 Nota: C1 Vol.: 43
Chanel 7 Note Off - Duracao: 1119540 Nota: C1 Vol.: 43
Chanel 7 Note On - Duracao: 1119540 Nota: C1 Vol.: 43
Chanel 7 Note Off - Duracao: 1123380 Nota: C1 Vol.: 43
Chanel 7 Note On - Duracao: 1123380 Nota: C1 Vol.: 43
Chanel 7 Note Off - Duracao: 1127220 Nota: C1 Vol.: 43
Tick: 1127220 - 
System reset: 
First data byte: 0 Second data byte: 0
