Tipo de divisão:0.0
Duração:2862780 ticks
Duração:24m51s
Tempo factor:1.0
Tempo in BPM:70.0
Chanel 1 program change: Instrumento: Steel String Guitar
Chanel 1 Note On - Duracao: 0 Nota: C1 Vol.: 54
Chanel 2 program change: Instrumento: Reed Organ
Chanel 2 Note On - Duracao: 0 Nota: C1 Vol.: 63
Chanel 3 program change: Instrumento: Distortion Guitar
Chanel 3 Note On - Duracao: 0 Nota: C1 Vol.: 60
Chanel 1 Note Off - Duracao: 240 Nota: C1 Vol.: 54
Chanel 1 Note On - Duracao: 240 Nota: C1 Vol.: 59
Chanel 2 Note Off - Duracao: 480 Nota: C1 Vol.: 63
Chanel 2 Note On - Duracao: 480 Nota: C1 Vol.: 59
Chanel 1 Note Off - Duracao: 720 Nota: C1 Vol.: 59
Chanel 1 Note On - Duracao: 720 Nota: C1 Vol.: 57
Chanel 2 Note Off - Duracao: 1440 Nota: C1 Vol.: 59
Chanel 2 Note On - Duracao: 1440 Nota: C1 Vol.: 62
Chanel 1 Note Off - Duracao: 1680 Nota: C1 Vol.: 57
Chanel 1 Note On - Duracao: 1680 Nota: C1 Vol.: 63
Chanel 3 Note Off - Duracao: 1920 Nota: C1 Vol.: 60
Chanel 3 Note On - Duracao: 1920 Nota: C1 Vol.: 60
Chanel 2 Note Off - Duracao: 2400 Nota: C1 Vol.: 62
Chanel 2 Note On - Duracao: 2400 Nota: C1 Vol.: 69
Chanel 1 Note Off - Duracao: 2640 Nota: C1 Vol.: 63
Chanel 1 Note On - Duracao: 2640 Nota: C1 Vol.: 56
Chanel 2 Note Off - Duracao: 2880 Nota: C1 Vol.: 69
Chanel 2 Note On - Duracao: 2880 Nota: C1 Vol.: 84
Chanel 2 Note Off - Duracao: 3000 Nota: C1 Vol.: 84
Chanel 2 Note On - Duracao: 3000 Nota: C1 Vol.: 71
Chanel 2 Note Off - Duracao: 3240 Nota: C1 Vol.: 71
Chanel 2 Note On - Duracao: 3240 Nota: C1 Vol.: 73
Chanel 1 Note Off - Duracao: 3600 Nota: C1 Vol.: 56
Chanel 1 Note On - Duracao: 3600 Nota: C1 Vol.: 56
Chanel 2 Note Off - Duracao: 3720 Nota: C1 Vol.: 73
Chanel 2 Note On - Duracao: 3720 Nota: C1 Vol.: 93
Chanel 3 Note Off - Duracao: 3840 Nota: C1 Vol.: 60
Chanel 3 Note On - Duracao: 3840 Nota: C1 Vol.: 59
Chanel 2 Note Off - Duracao: 3960 Nota: C1 Vol.: 93
Chanel 2 Note On - Duracao: 3960 Nota: C1 Vol.: 100
Chanel 2 Note Off - Duracao: 4020 Nota: C1 Vol.: 100
Chanel 2 Note On - Duracao: 4020 Nota: C1 Vol.: 93
Chanel 2 Note Off - Duracao: 4140 Nota: C1 Vol.: 93
Chanel 2 Note On - Duracao: 4140 Nota: C1 Vol.: 72
Chanel 1 Note Off - Duracao: 4560 Nota: C1 Vol.: 56
Chanel 1 Note On - Duracao: 4560 Nota: C1 Vol.: 62
Chanel 2 Note Off - Duracao: 4620 Nota: C1 Vol.: 72
Chanel 2 Note On - Duracao: 4620 Nota: C1 Vol.: 54
Chanel 1 Note Off - Duracao: 5520 Nota: C1 Vol.: 62
Chanel 1 Note On - Duracao: 5520 Nota: C1 Vol.: 60
Chanel 3 Note Off - Duracao: 5760 Nota: C1 Vol.: 59
Chanel 3 Note On - Duracao: 5760 Nota: C1 Vol.: 58
Chanel 1 Note Off - Duracao: 6480 Nota: C1 Vol.: 60
Chanel 1 Note On - Duracao: 6480 Nota: C1 Vol.: 65
Chanel 2 Note Off - Duracao: 6540 Nota: C1 Vol.: 54
Chanel 2 Note On - Duracao: 6540 Nota: C1 Vol.: 47
Chanel 1 Note Off - Duracao: 6960 Nota: C1 Vol.: 65
Chanel 1 Note On - Duracao: 6960 Nota: C1 Vol.: 91
Chanel 1 Note Off - Duracao: 7080 Nota: C1 Vol.: 91
Chanel 1 Note On - Duracao: 7080 Nota: C1 Vol.: 85
Chanel 1 Note Off - Duracao: 7320 Nota: C1 Vol.: 85
Chanel 1 Note On - Duracao: 7320 Nota: C1 Vol.: 92
Chanel 1 Note Off - Duracao: 7440 Nota: C1 Vol.: 92
Chanel 1 Note On - Duracao: 7440 Nota: C1 Vol.: 91
Chanel 1 Note Off - Duracao: 7560 Nota: C1 Vol.: 91
Chanel 1 Note On - Duracao: 7560 Nota: C1 Vol.: 98
Chanel 1 Note Off - Duracao: 7620 Nota: C1 Vol.: 98
Chanel 1 Note On - Duracao: 7620 Nota: C1 Vol.: 94
Chanel 1 Note Off - Duracao: 7680 Nota: C1 Vol.: 94
Chanel 1 Note On - Duracao: 7680 Nota: C1 Vol.: 74
Chanel 3 Note Off - Duracao: 7680 Nota: C1 Vol.: 58
Chanel 3 Note On - Duracao: 7680 Nota: C1 Vol.: 53
Chanel 1 Note Off - Duracao: 7920 Nota: C1 Vol.: 74
Chanel 1 Note On - Duracao: 7920 Nota: C1 Vol.: 55
Chanel 2 Note Off - Duracao: 8460 Nota: C1 Vol.: 47
Chanel 2 Note On - Duracao: 8460 Nota: C1 Vol.: 44
Chanel 1 Note Off - Duracao: 8880 Nota: C1 Vol.: 55
Chanel 1 Note On - Duracao: 8880 Nota: C1 Vol.: 52
Chanel 1 Note Off - Duracao: 9840 Nota: C1 Vol.: 52
Chanel 1 Note On - Duracao: 9840 Nota: C1 Vol.: 56
Chanel 1 Note Off - Duracao: 10320 Nota: C1 Vol.: 56
Chanel 1 Note On - Duracao: 10320 Nota: C1 Vol.: 66
Chanel 1 Note Off - Duracao: 10440 Nota: C1 Vol.: 66
Chanel 1 Note On - Duracao: 10440 Nota: C1 Vol.: 64
Chanel 1 Note Off - Duracao: 10560 Nota: C1 Vol.: 64
Chanel 1 Note On - Duracao: 10560 Nota: C1 Vol.: 63
Chanel 1 Note Off - Duracao: 10680 Nota: C1 Vol.: 63
Chanel 1 Note On - Duracao: 10680 Nota: C1 Vol.: 60
Chanel 1 Note Off - Duracao: 10920 Nota: C1 Vol.: 60
Chanel 1 Note On - Duracao: 10920 Nota: C1 Vol.: 66
Chanel 1 Note Off - Duracao: 11040 Nota: C1 Vol.: 66
Chanel 1 Note On - Duracao: 11040 Nota: C1 Vol.: 70
Chanel 1 Note Off - Duracao: 11280 Nota: C1 Vol.: 70
Chanel 1 Note On - Duracao: 11280 Nota: C1 Vol.: 61
Chanel 1 Note Off - Duracao: 11520 Nota: C1 Vol.: 61
Chanel 1 Note On - Duracao: 11520 Nota: C1 Vol.: 61
Chanel 3 Note Off - Duracao: 11520 Nota: C1 Vol.: 53
Chanel 3 Note On - Duracao: 11520 Nota: C1 Vol.: 53
Chanel 1 Note Off - Duracao: 11640 Nota: C1 Vol.: 61
Chanel 1 Note On - Duracao: 11640 Nota: C1 Vol.: 62
Chanel 1 Note Off - Duracao: 11760 Nota: C1 Vol.: 62
Chanel 1 Note On - Duracao: 11760 Nota: C1 Vol.: 58
Chanel 1 Note Off - Duracao: 12000 Nota: C1 Vol.: 58
Chanel 1 Note On - Duracao: 12000 Nota: C1 Vol.: 58
Chanel 2 Note Off - Duracao: 12300 Nota: C1 Vol.: 44
Chanel 2 Note On - Duracao: 12300 Nota: C1 Vol.: 65
Chanel 1 Note Off - Duracao: 12480 Nota: C1 Vol.: 58
Chanel 1 Note On - Duracao: 12480 Nota: C1 Vol.: 57
Chanel 2 Note Off - Duracao: 12780 Nota: C1 Vol.: 65
Chanel 2 Note On - Duracao: 12780 Nota: C1 Vol.: 85
Chanel 2 Note Off - Duracao: 12900 Nota: C1 Vol.: 85
Chanel 2 Note On - Duracao: 12900 Nota: C1 Vol.: 49
Chanel 1 Note Off - Duracao: 13440 Nota: C1 Vol.: 57
Chanel 1 Note On - Duracao: 13440 Nota: C1 Vol.: 58
Chanel 3 Note Off - Duracao: 13440 Nota: C1 Vol.: 53
Chanel 3 Note On - Duracao: 13440 Nota: C1 Vol.: 51
Chanel 2 Note Off - Duracao: 13860 Nota: C1 Vol.: 49
Chanel 2 Note On - Duracao: 13860 Nota: C1 Vol.: 52
Chanel 1 Note Off - Duracao: 14400 Nota: C1 Vol.: 58
Chanel 1 Note On - Duracao: 14400 Nota: C1 Vol.: 59
Chanel 2 Note Off - Duracao: 14820 Nota: C1 Vol.: 52
Chanel 2 Note On - Duracao: 14820 Nota: C1 Vol.: 71
Chanel 2 Note Off - Duracao: 15060 Nota: C1 Vol.: 71
Chanel 2 Note On - Duracao: 15060 Nota: C1 Vol.: 72
Chanel 2 Note Off - Duracao: 15300 Nota: C1 Vol.: 72
Chanel 2 Note On - Duracao: 15300 Nota: C1 Vol.: 93
Chanel 1 Note Off - Duracao: 15360 Nota: C1 Vol.: 59
Chanel 1 Note On - Duracao: 15360 Nota: C1 Vol.: 56
Chanel 2 Note Off - Duracao: 15360 Nota: C1 Vol.: 93
Chanel 2 Note On - Duracao: 15360 Nota: C1 Vol.: 69
Chanel 2 Note Off - Duracao: 15840 Nota: C1 Vol.: 69
Chanel 2 Note On - Duracao: 15840 Nota: C1 Vol.: 66
Chanel 2 Note Off - Duracao: 16320 Nota: C1 Vol.: 66
Chanel 2 Note On - Duracao: 16320 Nota: C1 Vol.: 67
Chanel 2 Note Off - Duracao: 16800 Nota: C1 Vol.: 67
Chanel 2 Note On - Duracao: 16800 Nota: C1 Vol.: 67
Chanel 1 Note Off - Duracao: 17280 Nota: C1 Vol.: 56
Chanel 1 Note On - Duracao: 17280 Nota: C1 Vol.: 56
Chanel 2 Note Off - Duracao: 17280 Nota: C1 Vol.: 67
Chanel 2 Note On - Duracao: 17280 Nota: C1 Vol.: 64
Chanel 3 Note Off - Duracao: 17280 Nota: C1 Vol.: 51
Chanel 3 Note On - Duracao: 17280 Nota: C1 Vol.: 51
Chanel 2 Note Off - Duracao: 17760 Nota: C1 Vol.: 64
Chanel 2 Note On - Duracao: 17760 Nota: C1 Vol.: 84
Chanel 2 Note Off - Duracao: 18000 Nota: C1 Vol.: 84
Chanel 2 Note On - Duracao: 18000 Nota: C1 Vol.: 55
Chanel 1 Note Off - Duracao: 19200 Nota: C1 Vol.: 56
Chanel 1 Note On - Duracao: 19200 Nota: C1 Vol.: 56
Chanel 2 Note Off - Duracao: 19920 Nota: C1 Vol.: 55
Chanel 2 Note On - Duracao: 19920 Nota: C1 Vol.: 73
Chanel 2 Note Off - Duracao: 20400 Nota: C1 Vol.: 73
Chanel 2 Note On - Duracao: 20400 Nota: C1 Vol.: 74
Chanel 2 Note Off - Duracao: 20640 Nota: C1 Vol.: 74
Chanel 2 Note On - Duracao: 20640 Nota: C1 Vol.: 55
Chanel 1 Note Off - Duracao: 21120 Nota: C1 Vol.: 56
Chanel 1 Note On - Duracao: 21120 Nota: C1 Vol.: 57
Chanel 3 Note Off - Duracao: 21120 Nota: C1 Vol.: 51
Chanel 3 Note On - Duracao: 21120 Nota: C1 Vol.: 60
Chanel 2 Note Off - Duracao: 21600 Nota: C1 Vol.: 55
Chanel 2 Note On - Duracao: 21600 Nota: C1 Vol.: 49
Chanel 2 Note Off - Duracao: 22560 Nota: C1 Vol.: 49
Chanel 2 Note On - Duracao: 22560 Nota: C1 Vol.: 57
Chanel 1 Note Off - Duracao: 23040 Nota: C1 Vol.: 57
Chanel 1 Note On - Duracao: 23040 Nota: C1 Vol.: 55
Chanel 3 Note Off - Duracao: 23040 Nota: C1 Vol.: 60
Chanel 3 Note On - Duracao: 23040 Nota: C1 Vol.: 81
Chanel 2 Note Off - Duracao: 23520 Nota: C1 Vol.: 57
Chanel 2 Note On - Duracao: 23520 Nota: C1 Vol.: 53
Chanel 3 Note Off - Duracao: 23520 Nota: C1 Vol.: 81
Chanel 3 Note On - Duracao: 23520 Nota: C1 Vol.: 96
Chanel 3 Note Off - Duracao: 23760 Nota: C1 Vol.: 96
Chanel 3 Note On - Duracao: 23760 Nota: C1 Vol.: 100
Chanel 3 Note Off - Duracao: 23880 Nota: C1 Vol.: 100
Chanel 3 Note On - Duracao: 23880 Nota: C1 Vol.: 91
Chanel 1 Note Off - Duracao: 24000 Nota: C1 Vol.: 55
Chanel 1 Note On - Duracao: 24000 Nota: C1 Vol.: 51
Chanel 3 Note Off - Duracao: 24120 Nota: C1 Vol.: 91
Chanel 3 Note On - Duracao: 24120 Nota: C1 Vol.: 56
Chanel 2 Note Off - Duracao: 25440 Nota: C1 Vol.: 53
Chanel 2 Note On - Duracao: 25440 Nota: C1 Vol.: 63
Chanel 1 Note Off - Duracao: 25920 Nota: C1 Vol.: 51
Chanel 1 Note On - Duracao: 25920 Nota: C1 Vol.: 51
Chanel 3 Note Off - Duracao: 26040 Nota: C1 Vol.: 56
Chanel 3 Note On - Duracao: 26040 Nota: C1 Vol.: 48
Chanel 2 Note Off - Duracao: 26400 Nota: C1 Vol.: 63
Chanel 2 Note On - Duracao: 26400 Nota: C1 Vol.: 65
Chanel 1 Note Off - Duracao: 27840 Nota: C1 Vol.: 51
Chanel 1 Note On - Duracao: 27840 Nota: C1 Vol.: 48
Chanel 2 Note Off - Duracao: 28320 Nota: C1 Vol.: 65
Chanel 2 Note On - Duracao: 28320 Nota: C1 Vol.: 78
Chanel 2 Note Off - Duracao: 29280 Nota: C1 Vol.: 78
Chanel 2 Note On - Duracao: 29280 Nota: C1 Vol.: 93
Chanel 2 Note Off - Duracao: 29520 Nota: C1 Vol.: 93
Chanel 2 Note On - Duracao: 29520 Nota: C1 Vol.: 98
Chanel 1 Note Off - Duracao: 29760 Nota: C1 Vol.: 48
Chanel 1 Note On - Duracao: 29760 Nota: C1 Vol.: 49
Chanel 2 Note Off - Duracao: 29760 Nota: C1 Vol.: 98
Chanel 2 Note On - Duracao: 29760 Nota: C1 Vol.: 88
Chanel 3 Note Off - Duracao: 29880 Nota: C1 Vol.: 48
Chanel 3 Note On - Duracao: 29880 Nota: C1 Vol.: 46
Chanel 2 Note Off - Duracao: 30000 Nota: C1 Vol.: 88
Chanel 2 Note On - Duracao: 30000 Nota: C1 Vol.: 71
Chanel 2 Note Off - Duracao: 30960 Nota: C1 Vol.: 71
Chanel 2 Note On - Duracao: 30960 Nota: C1 Vol.: 64
Chanel 1 Note Off - Duracao: 31680 Nota: C1 Vol.: 49
Chanel 1 Note On - Duracao: 31680 Nota: C1 Vol.: 52
Chanel 2 Note Off - Duracao: 32880 Nota: C1 Vol.: 64
Chanel 2 Note On - Duracao: 32880 Nota: C1 Vol.: 63
Chanel 1 Note Off - Duracao: 33600 Nota: C1 Vol.: 52
Chanel 1 Note On - Duracao: 33600 Nota: C1 Vol.: 52
Chanel 3 Note Off - Duracao: 33720 Nota: C1 Vol.: 46
Chanel 3 Note On - Duracao: 33720 Nota: C1 Vol.: 46
Chanel 2 Note Off - Duracao: 33840 Nota: C1 Vol.: 63
Chanel 2 Note On - Duracao: 33840 Nota: C1 Vol.: 56
Chanel 1 Note Off - Duracao: 35520 Nota: C1 Vol.: 52
Chanel 1 Note On - Duracao: 35520 Nota: C1 Vol.: 53
Chanel 2 Note Off - Duracao: 35760 Nota: C1 Vol.: 56
Chanel 2 Note On - Duracao: 35760 Nota: C1 Vol.: 50
Chanel 1 Note Off - Duracao: 37440 Nota: C1 Vol.: 53
Chanel 1 Note On - Duracao: 37440 Nota: C1 Vol.: 52
Chanel 3 Note Off - Duracao: 37560 Nota: C1 Vol.: 46
Chanel 3 Note On - Duracao: 37560 Nota: C1 Vol.: 47
Chanel 2 Note Off - Duracao: 37680 Nota: C1 Vol.: 50
Chanel 2 Note On - Duracao: 37680 Nota: C1 Vol.: 47
Chanel 1 Note Off - Duracao: 39360 Nota: C1 Vol.: 52
Chanel 1 Note On - Duracao: 39360 Nota: C1 Vol.: 53
Chanel 3 Note Off - Duracao: 39480 Nota: C1 Vol.: 47
Chanel 3 Note On - Duracao: 39480 Nota: C1 Vol.: 50
Chanel 2 Note Off - Duracao: 39600 Nota: C1 Vol.: 47
Chanel 2 Note On - Duracao: 39600 Nota: C1 Vol.: 48
Chanel 3 Note Off - Duracao: 40440 Nota: C1 Vol.: 50
Chanel 3 Note On - Duracao: 40440 Nota: C1 Vol.: 64
Chanel 3 Note Off - Duracao: 40920 Nota: C1 Vol.: 64
Chanel 3 Note On - Duracao: 40920 Nota: C1 Vol.: 50
Chanel 1 Note Off - Duracao: 41280 Nota: C1 Vol.: 53
Chanel 1 Note On - Duracao: 41280 Nota: C1 Vol.: 50
Chanel 2 Note Off - Duracao: 41520 Nota: C1 Vol.: 48
Chanel 2 Note On - Duracao: 41520 Nota: C1 Vol.: 49
Chanel 3 Note Off - Duracao: 42840 Nota: C1 Vol.: 50
Chanel 3 Note On - Duracao: 42840 Nota: C1 Vol.: 57
Chanel 1 Note Off - Duracao: 43200 Nota: C1 Vol.: 50
Chanel 1 Note On - Duracao: 43200 Nota: C1 Vol.: 52
Chanel 2 Note Off - Duracao: 43440 Nota: C1 Vol.: 49
Chanel 2 Note On - Duracao: 43440 Nota: C1 Vol.: 56
Chanel 3 Note Off - Duracao: 43800 Nota: C1 Vol.: 57
Chanel 3 Note On - Duracao: 43800 Nota: C1 Vol.: 52
Chanel 2 Note Off - Duracao: 44400 Nota: C1 Vol.: 56
Chanel 2 Note On - Duracao: 44400 Nota: C1 Vol.: 60
Chanel 3 Note Off - Duracao: 44760 Nota: C1 Vol.: 52
Chanel 3 Note On - Duracao: 44760 Nota: C1 Vol.: 59
Chanel 1 Note Off - Duracao: 45120 Nota: C1 Vol.: 52
Chanel 1 Note On - Duracao: 45120 Nota: C1 Vol.: 52
Chanel 2 Note Off - Duracao: 45360 Nota: C1 Vol.: 60
Chanel 2 Note On - Duracao: 45360 Nota: C1 Vol.: 60
Chanel 3 Note Off - Duracao: 45720 Nota: C1 Vol.: 59
Chanel 3 Note On - Duracao: 45720 Nota: C1 Vol.: 47
Chanel 2 Note Off - Duracao: 45840 Nota: C1 Vol.: 60
Chanel 2 Note On - Duracao: 45840 Nota: C1 Vol.: 59
Chanel 2 Note Off - Duracao: 46800 Nota: C1 Vol.: 59
Chanel 2 Note On - Duracao: 46800 Nota: C1 Vol.: 64
Chanel 1 Note Off - Duracao: 47040 Nota: C1 Vol.: 52
Chanel 1 Note On - Duracao: 47040 Nota: C1 Vol.: 46
Chanel 2 Note Off - Duracao: 47280 Nota: C1 Vol.: 64
Chanel 2 Note On - Duracao: 47280 Nota: C1 Vol.: 81
Chanel 1 Note Off - Duracao: 47520 Nota: C1 Vol.: 46
Chanel 1 Note On - Duracao: 47520 Nota: C1 Vol.: 63
Chanel 2 Note Off - Duracao: 47520 Nota: C1 Vol.: 81
Chanel 2 Note On - Duracao: 47520 Nota: C1 Vol.: 85
Chanel 2 Note Off - Duracao: 47640 Nota: C1 Vol.: 85
Chanel 2 Note On - Duracao: 47640 Nota: C1 Vol.: 60
Chanel 1 Note Off - Duracao: 47760 Nota: C1 Vol.: 63
Chanel 1 Note On - Duracao: 47760 Nota: C1 Vol.: 49
Chanel 2 Note Off - Duracao: 48600 Nota: C1 Vol.: 60
Chanel 2 Note On - Duracao: 48600 Nota: C1 Vol.: 67
Chanel 2 Note Off - Duracao: 49560 Nota: C1 Vol.: 67
Chanel 2 Note On - Duracao: 49560 Nota: C1 Vol.: 79
Chanel 3 Note Off - Duracao: 49560 Nota: C1 Vol.: 47
Chanel 3 Note On - Duracao: 49560 Nota: C1 Vol.: 52
Chanel 1 Note Off - Duracao: 49680 Nota: C1 Vol.: 49
Chanel 1 Note On - Duracao: 49680 Nota: C1 Vol.: 57
Chanel 2 Note Off - Duracao: 50040 Nota: C1 Vol.: 79
Chanel 2 Note On - Duracao: 50040 Nota: C1 Vol.: 100
Chanel 2 Note Off - Duracao: 50160 Nota: C1 Vol.: 100
Chanel 2 Note On - Duracao: 50160 Nota: C1 Vol.: 98
Chanel 2 Note Off - Duracao: 50280 Nota: C1 Vol.: 98
Chanel 2 Note On - Duracao: 50280 Nota: C1 Vol.: 71
Chanel 1 Note Off - Duracao: 50640 Nota: C1 Vol.: 57
Chanel 1 Note On - Duracao: 50640 Nota: C1 Vol.: 55
Chanel 2 Note Off - Duracao: 50760 Nota: C1 Vol.: 71
Chanel 2 Note On - Duracao: 50760 Nota: C1 Vol.: 45
Chanel 1 Note Off - Duracao: 51600 Nota: C1 Vol.: 55
Chanel 1 Note On - Duracao: 51600 Nota: C1 Vol.: 54
Chanel 1 Note Off - Duracao: 52560 Nota: C1 Vol.: 54
Chanel 1 Note On - Duracao: 52560 Nota: C1 Vol.: 55
Chanel 3 Note Off - Duracao: 53400 Nota: C1 Vol.: 52
Chanel 3 Note On - Duracao: 53400 Nota: C1 Vol.: 61
Chanel 1 Note Off - Duracao: 53520 Nota: C1 Vol.: 55
Chanel 1 Note On - Duracao: 53520 Nota: C1 Vol.: 61
Chanel 1 Note Off - Duracao: 54480 Nota: C1 Vol.: 61
Chanel 1 Note On - Duracao: 54480 Nota: C1 Vol.: 83
Chanel 2 Note Off - Duracao: 54600 Nota: C1 Vol.: 45
Chanel 2 Note On - Duracao: 54600 Nota: C1 Vol.: 47
Chanel 1 Note Off - Duracao: 54720 Nota: C1 Vol.: 83
Chanel 1 Note On - Duracao: 54720 Nota: C1 Vol.: 93
Chanel 1 Note Off - Duracao: 54840 Nota: C1 Vol.: 93
Chanel 1 Note On - Duracao: 54840 Nota: C1 Vol.: 99
Chanel 1 Note Off - Duracao: 54900 Nota: C1 Vol.: 99
Chanel 1 Note On - Duracao: 54900 Nota: C1 Vol.: 93
Chanel 1 Note Off - Duracao: 55020 Nota: C1 Vol.: 93
Chanel 1 Note On - Duracao: 55020 Nota: C1 Vol.: 94
Chanel 1 Note Off - Duracao: 55140 Nota: C1 Vol.: 94
Chanel 1 Note On - Duracao: 55140 Nota: C1 Vol.: 91
Chanel 1 Note Off - Duracao: 55260 Nota: C1 Vol.: 91
Chanel 1 Note On - Duracao: 55260 Nota: C1 Vol.: 73
Chanel 3 Note Off - Duracao: 55320 Nota: C1 Vol.: 61
Chanel 3 Note On - Duracao: 55320 Nota: C1 Vol.: 73
Chanel 1 Note Off - Duracao: 55500 Nota: C1 Vol.: 73
Chanel 1 Note On - Duracao: 55500 Nota: C1 Vol.: 66
Chanel 1 Note Off - Duracao: 55740 Nota: C1 Vol.: 66
Chanel 1 Note On - Duracao: 55740 Nota: C1 Vol.: 55
Chanel 1 Note Off - Duracao: 56220 Nota: C1 Vol.: 55
Chanel 1 Note On - Duracao: 56220 Nota: C1 Vol.: 61
Chanel 3 Note Off - Duracao: 56280 Nota: C1 Vol.: 73
Chanel 3 Note On - Duracao: 56280 Nota: C1 Vol.: 87
Chanel 1 Note Off - Duracao: 56460 Nota: C1 Vol.: 61
Chanel 1 Note On - Duracao: 56460 Nota: C1 Vol.: 69
Chanel 2 Note Off - Duracao: 56520 Nota: C1 Vol.: 47
Chanel 2 Note On - Duracao: 56520 Nota: C1 Vol.: 45
Chanel 3 Note Off - Duracao: 56520 Nota: C1 Vol.: 87
Chanel 3 Note On - Duracao: 56520 Nota: C1 Vol.: 88
Chanel 1 Note Off - Duracao: 56580 Nota: C1 Vol.: 69
Chanel 1 Note On - Duracao: 56580 Nota: C1 Vol.: 66
Chanel 1 Note Off - Duracao: 56700 Nota: C1 Vol.: 66
Chanel 1 Note On - Duracao: 56700 Nota: C1 Vol.: 61
Chanel 3 Note Off - Duracao: 56760 Nota: C1 Vol.: 88
Chanel 3 Note On - Duracao: 56760 Nota: C1 Vol.: 81
Chanel 1 Note Off - Duracao: 56820 Nota: C1 Vol.: 61
Chanel 1 Note On - Duracao: 56820 Nota: C1 Vol.: 57
Chanel 1 Note Off - Duracao: 57060 Nota: C1 Vol.: 57
Chanel 1 Note On - Duracao: 57060 Nota: C1 Vol.: 70
Chanel 1 Note Off - Duracao: 57180 Nota: C1 Vol.: 70
Chanel 1 Note On - Duracao: 57180 Nota: C1 Vol.: 74
Chanel 3 Note Off - Duracao: 57240 Nota: C1 Vol.: 81
Chanel 3 Note On - Duracao: 57240 Nota: C1 Vol.: 88
Chanel 1 Note Off - Duracao: 57300 Nota: C1 Vol.: 74
Chanel 1 Note On - Duracao: 57300 Nota: C1 Vol.: 77
Chanel 1 Note Off - Duracao: 57420 Nota: C1 Vol.: 77
Chanel 1 Note On - Duracao: 57420 Nota: C1 Vol.: 64
Chanel 3 Note Off - Duracao: 57480 Nota: C1 Vol.: 88
Chanel 3 Note On - Duracao: 57480 Nota: C1 Vol.: 57
Chanel 1 Note Off - Duracao: 57660 Nota: C1 Vol.: 64
Chanel 1 Note On - Duracao: 57660 Nota: C1 Vol.: 67
Chanel 1 Note Off - Duracao: 57780 Nota: C1 Vol.: 67
Chanel 1 Note On - Duracao: 57780 Nota: C1 Vol.: 63
Chanel 1 Note Off - Duracao: 57900 Nota: C1 Vol.: 63
Chanel 1 Note On - Duracao: 57900 Nota: C1 Vol.: 68
Chanel 1 Note Off - Duracao: 58020 Nota: C1 Vol.: 68
Chanel 1 Note On - Duracao: 58020 Nota: C1 Vol.: 65
Chanel 1 Note Off - Duracao: 58260 Nota: C1 Vol.: 65
Chanel 1 Note On - Duracao: 58260 Nota: C1 Vol.: 57
Chanel 1 Note Off - Duracao: 58740 Nota: C1 Vol.: 57
Chanel 1 Note On - Duracao: 58740 Nota: C1 Vol.: 56
Chanel 3 Note Off - Duracao: 59400 Nota: C1 Vol.: 57
Chanel 3 Note On - Duracao: 59400 Nota: C1 Vol.: 49
Chanel 1 Note Off - Duracao: 59700 Nota: C1 Vol.: 56
Chanel 1 Note On - Duracao: 59700 Nota: C1 Vol.: 57
Chanel 2 Note Off - Duracao: 60360 Nota: C1 Vol.: 45
Chanel 2 Note On - Duracao: 60360 Nota: C1 Vol.: 79
Chanel 2 Note Off - Duracao: 60600 Nota: C1 Vol.: 79
Chanel 2 Note On - Duracao: 60600 Nota: C1 Vol.: 77
Chanel 1 Note Off - Duracao: 60660 Nota: C1 Vol.: 57
Chanel 1 Note On - Duracao: 60660 Nota: C1 Vol.: 56
Chanel 2 Note Off - Duracao: 60840 Nota: C1 Vol.: 77
Chanel 2 Note On - Duracao: 60840 Nota: C1 Vol.: 49
Chanel 1 Note Off - Duracao: 61620 Nota: C1 Vol.: 56
Chanel 1 Note On - Duracao: 61620 Nota: C1 Vol.: 57
Chanel 2 Note Off - Duracao: 61800 Nota: C1 Vol.: 49
Chanel 2 Note On - Duracao: 61800 Nota: C1 Vol.: 45
Chanel 1 Note Off - Duracao: 62580 Nota: C1 Vol.: 57
Chanel 1 Note On - Duracao: 62580 Nota: C1 Vol.: 55
Chanel 3 Note Off - Duracao: 63240 Nota: C1 Vol.: 49
Chanel 3 Note On - Duracao: 63240 Nota: C1 Vol.: 50
Chanel 2 Note Off - Duracao: 63720 Nota: C1 Vol.: 45
Chanel 2 Note On - Duracao: 63720 Nota: C1 Vol.: 49
Chanel 1 Note Off - Duracao: 64500 Nota: C1 Vol.: 55
Chanel 1 Note On - Duracao: 64500 Nota: C1 Vol.: 55
Chanel 2 Note Off - Duracao: 64680 Nota: C1 Vol.: 49
Chanel 2 Note On - Duracao: 64680 Nota: C1 Vol.: 59
Chanel 2 Note Off - Duracao: 65640 Nota: C1 Vol.: 59
Chanel 2 Note On - Duracao: 65640 Nota: C1 Vol.: 78
Chanel 2 Note Off - Duracao: 65880 Nota: C1 Vol.: 78
Chanel 2 Note On - Duracao: 65880 Nota: C1 Vol.: 61
Chanel 1 Note Off - Duracao: 66420 Nota: C1 Vol.: 55
Chanel 1 Note On - Duracao: 66420 Nota: C1 Vol.: 55
Chanel 2 Note Off - Duracao: 66840 Nota: C1 Vol.: 61
Chanel 2 Note On - Duracao: 66840 Nota: C1 Vol.: 59
Chanel 3 Note Off - Duracao: 67080 Nota: C1 Vol.: 50
Chanel 3 Note On - Duracao: 67080 Nota: C1 Vol.: 46
Chanel 2 Note Off - Duracao: 67320 Nota: C1 Vol.: 59
Chanel 2 Note On - Duracao: 67320 Nota: C1 Vol.: 64
Chanel 2 Note Off - Duracao: 67800 Nota: C1 Vol.: 64
Chanel 2 Note On - Duracao: 67800 Nota: C1 Vol.: 56
Chanel 2 Note Off - Duracao: 68280 Nota: C1 Vol.: 56
Chanel 2 Note On - Duracao: 68280 Nota: C1 Vol.: 69
Chanel 1 Note Off - Duracao: 68340 Nota: C1 Vol.: 55
Chanel 1 Note On - Duracao: 68340 Nota: C1 Vol.: 52
Chanel 2 Note Off - Duracao: 68520 Nota: C1 Vol.: 69
Chanel 2 Note On - Duracao: 68520 Nota: C1 Vol.: 70
Chanel 2 Note Off - Duracao: 69000 Nota: C1 Vol.: 70
Chanel 2 Note On - Duracao: 69000 Nota: C1 Vol.: 58
Chanel 2 Note Off - Duracao: 69960 Nota: C1 Vol.: 58
Chanel 2 Note On - Duracao: 69960 Nota: C1 Vol.: 67
Chanel 1 Note Off - Duracao: 70260 Nota: C1 Vol.: 52
Chanel 1 Note On - Duracao: 70260 Nota: C1 Vol.: 52
Chanel 2 Note Off - Duracao: 70440 Nota: C1 Vol.: 67
Chanel 2 Note On - Duracao: 70440 Nota: C1 Vol.: 60
Chanel 3 Note Off - Duracao: 70920 Nota: C1 Vol.: 46
Chanel 3 Note On - Duracao: 70920 Nota: C1 Vol.: 46
Chanel 2 Note Off - Duracao: 71400 Nota: C1 Vol.: 60
Chanel 2 Note On - Duracao: 71400 Nota: C1 Vol.: 69
Chanel 2 Note Off - Duracao: 71880 Nota: C1 Vol.: 69
Chanel 2 Note On - Duracao: 71880 Nota: C1 Vol.: 52
Chanel 1 Note Off - Duracao: 72180 Nota: C1 Vol.: 52
Chanel 1 Note On - Duracao: 72180 Nota: C1 Vol.: 51
Chanel 2 Note Off - Duracao: 72840 Nota: C1 Vol.: 52
Chanel 2 Note On - Duracao: 72840 Nota: C1 Vol.: 51
Chanel 2 Note Off - Duracao: 73800 Nota: C1 Vol.: 51
Chanel 2 Note On - Duracao: 73800 Nota: C1 Vol.: 74
Chanel 2 Note Off - Duracao: 74040 Nota: C1 Vol.: 74
Chanel 2 Note On - Duracao: 74040 Nota: C1 Vol.: 83
Chanel 1 Note Off - Duracao: 74100 Nota: C1 Vol.: 51
Chanel 1 Note On - Duracao: 74100 Nota: C1 Vol.: 54
Chanel 2 Note Off - Duracao: 74520 Nota: C1 Vol.: 83
Chanel 2 Note On - Duracao: 74520 Nota: C1 Vol.: 77
Chanel 3 Note Off - Duracao: 74760 Nota: C1 Vol.: 46
Chanel 3 Note On - Duracao: 74760 Nota: C1 Vol.: 46
Chanel 2 Note Off - Duracao: 75480 Nota: C1 Vol.: 77
Chanel 2 Note On - Duracao: 75480 Nota: C1 Vol.: 80
Chanel 1 Note Off - Duracao: 76020 Nota: C1 Vol.: 54
Chanel 1 Note On - Duracao: 76020 Nota: C1 Vol.: 52
Chanel 2 Note Off - Duracao: 76440 Nota: C1 Vol.: 80
Chanel 2 Note On - Duracao: 76440 Nota: C1 Vol.: 77
Chanel 2 Note Off - Duracao: 77400 Nota: C1 Vol.: 77
Chanel 2 Note On - Duracao: 77400 Nota: C1 Vol.: 78
Chanel 1 Note Off - Duracao: 77940 Nota: C1 Vol.: 52
Chanel 1 Note On - Duracao: 77940 Nota: C1 Vol.: 54
Chanel 2 Note Off - Duracao: 78360 Nota: C1 Vol.: 78
Chanel 2 Note On - Duracao: 78360 Nota: C1 Vol.: 73
Chanel 3 Note Off - Duracao: 78600 Nota: C1 Vol.: 46
Chanel 3 Note On - Duracao: 78600 Nota: C1 Vol.: 46
Chanel 2 Note Off - Duracao: 79320 Nota: C1 Vol.: 73
Chanel 2 Note On - Duracao: 79320 Nota: C1 Vol.: 63
Chanel 1 Note Off - Duracao: 79860 Nota: C1 Vol.: 54
Chanel 1 Note On - Duracao: 79860 Nota: C1 Vol.: 53
Chanel 2 Note Off - Duracao: 81240 Nota: C1 Vol.: 63
Chanel 2 Note On - Duracao: 81240 Nota: C1 Vol.: 47
Chanel 1 Note Off - Duracao: 81780 Nota: C1 Vol.: 53
Chanel 1 Note On - Duracao: 81780 Nota: C1 Vol.: 52
Chanel 3 Note Off - Duracao: 82440 Nota: C1 Vol.: 46
Chanel 3 Note On - Duracao: 82440 Nota: C1 Vol.: 45
Chanel 1 Note Off - Duracao: 83700 Nota: C1 Vol.: 52
Chanel 1 Note On - Duracao: 83700 Nota: C1 Vol.: 52
Chanel 2 Note Off - Duracao: 85080 Nota: C1 Vol.: 47
Chanel 2 Note On - Duracao: 85080 Nota: C1 Vol.: 55
Chanel 1 Note Off - Duracao: 85620 Nota: C1 Vol.: 52
Chanel 1 Note On - Duracao: 85620 Nota: C1 Vol.: 53
Chanel 3 Note Off - Duracao: 86280 Nota: C1 Vol.: 45
Chanel 3 Note On - Duracao: 86280 Nota: C1 Vol.: 44
Chanel 2 Note Off - Duracao: 87000 Nota: C1 Vol.: 55
Chanel 2 Note On - Duracao: 87000 Nota: C1 Vol.: 51
Chanel 1 Note Off - Duracao: 87540 Nota: C1 Vol.: 53
Chanel 1 Note On - Duracao: 87540 Nota: C1 Vol.: 53
Chanel 2 Note Off - Duracao: 88920 Nota: C1 Vol.: 51
Chanel 2 Note On - Duracao: 88920 Nota: C1 Vol.: 48
Chanel 1 Note Off - Duracao: 89460 Nota: C1 Vol.: 53
Chanel 1 Note On - Duracao: 89460 Nota: C1 Vol.: 53
Chanel 3 Note Off - Duracao: 90120 Nota: C1 Vol.: 44
Chanel 3 Note On - Duracao: 90120 Nota: C1 Vol.: 44
Chanel 1 Note Off - Duracao: 91380 Nota: C1 Vol.: 53
Chanel 1 Note On - Duracao: 91380 Nota: C1 Vol.: 45
Chanel 1 Note Off - Duracao: 91860 Nota: C1 Vol.: 45
Chanel 1 Note On - Duracao: 91860 Nota: C1 Vol.: 66
Chanel 1 Note Off - Duracao: 92100 Nota: C1 Vol.: 66
Chanel 1 Note On - Duracao: 92100 Nota: C1 Vol.: 53
Chanel 2 Note Off - Duracao: 92760 Nota: C1 Vol.: 48
Chanel 2 Note On - Duracao: 92760 Nota: C1 Vol.: 48
Chanel 1 Note Off - Duracao: 93060 Nota: C1 Vol.: 53
Chanel 1 Note On - Duracao: 93060 Nota: C1 Vol.: 57
Chanel 3 Note Off - Duracao: 93960 Nota: C1 Vol.: 44
Chanel 3 Note On - Duracao: 93960 Nota: C1 Vol.: 45
Chanel 1 Note Off - Duracao: 94020 Nota: C1 Vol.: 57
Chanel 1 Note On - Duracao: 94020 Nota: C1 Vol.: 53
Chanel 1 Note Off - Duracao: 94980 Nota: C1 Vol.: 53
Chanel 1 Note On - Duracao: 94980 Nota: C1 Vol.: 54
Chanel 1 Note Off - Duracao: 95940 Nota: C1 Vol.: 54
Chanel 1 Note On - Duracao: 95940 Nota: C1 Vol.: 51
Chanel 2 Note Off - Duracao: 96600 Nota: C1 Vol.: 48
Chanel 2 Note On - Duracao: 96600 Nota: C1 Vol.: 47
Chanel 1 Note Off - Duracao: 96900 Nota: C1 Vol.: 51
Chanel 1 Note On - Duracao: 96900 Nota: C1 Vol.: 66
Chanel 1 Note Off - Duracao: 97380 Nota: C1 Vol.: 66
Chanel 1 Note On - Duracao: 97380 Nota: C1 Vol.: 87
Chanel 1 Note Off - Duracao: 97500 Nota: C1 Vol.: 87
Chanel 1 Note On - Duracao: 97500 Nota: C1 Vol.: 92
Chanel 1 Note Off - Duracao: 97620 Nota: C1 Vol.: 92
Chanel 1 Note On - Duracao: 97620 Nota: C1 Vol.: 71
Chanel 3 Note Off - Duracao: 97800 Nota: C1 Vol.: 45
Chanel 3 Note On - Duracao: 97800 Nota: C1 Vol.: 45
Chanel 1 Note Off - Duracao: 98100 Nota: C1 Vol.: 71
Chanel 1 Note On - Duracao: 98100 Nota: C1 Vol.: 65
Chanel 1 Note Off - Duracao: 99060 Nota: C1 Vol.: 65
Chanel 1 Note On - Duracao: 99060 Nota: C1 Vol.: 65
Chanel 1 Note Off - Duracao: 100020 Nota: C1 Vol.: 65
Chanel 1 Note On - Duracao: 100020 Nota: C1 Vol.: 63
Chanel 2 Note Off - Duracao: 100440 Nota: C1 Vol.: 47
Chanel 2 Note On - Duracao: 100440 Nota: C1 Vol.: 44
Chanel 1 Note Off - Duracao: 100980 Nota: C1 Vol.: 63
Chanel 1 Note On - Duracao: 100980 Nota: C1 Vol.: 58
Chanel 3 Note Off - Duracao: 101640 Nota: C1 Vol.: 45
Chanel 3 Note On - Duracao: 101640 Nota: C1 Vol.: 45
Chanel 1 Note Off - Duracao: 101940 Nota: C1 Vol.: 58
Chanel 1 Note On - Duracao: 101940 Nota: C1 Vol.: 51
Chanel 1 Note Off - Duracao: 102420 Nota: C1 Vol.: 51
Chanel 1 Note On - Duracao: 102420 Nota: C1 Vol.: 56
Chanel 1 Note Off - Duracao: 102660 Nota: C1 Vol.: 56
Chanel 1 Note On - Duracao: 102660 Nota: C1 Vol.: 64
Chanel 1 Note Off - Duracao: 102780 Nota: C1 Vol.: 64
Chanel 1 Note On - Duracao: 102780 Nota: C1 Vol.: 61
Chanel 1 Note Off - Duracao: 102900 Nota: C1 Vol.: 61
Chanel 1 Note On - Duracao: 102900 Nota: C1 Vol.: 67
Chanel 1 Note Off - Duracao: 103020 Nota: C1 Vol.: 67
Chanel 1 Note On - Duracao: 103020 Nota: C1 Vol.: 69
Chanel 1 Note Off - Duracao: 103140 Nota: C1 Vol.: 69
Chanel 1 Note On - Duracao: 103140 Nota: C1 Vol.: 61
Chanel 1 Note Off - Duracao: 103380 Nota: C1 Vol.: 61
Chanel 1 Note On - Duracao: 103380 Nota: C1 Vol.: 54
Chanel 1 Note Off - Duracao: 103860 Nota: C1 Vol.: 54
Chanel 1 Note On - Duracao: 103860 Nota: C1 Vol.: 67
Chanel 1 Note Off - Duracao: 104100 Nota: C1 Vol.: 67
Chanel 1 Note On - Duracao: 104100 Nota: C1 Vol.: 73
Chanel 2 Note Off - Duracao: 104280 Nota: C1 Vol.: 44
Chanel 2 Note On - Duracao: 104280 Nota: C1 Vol.: 40
Chanel 1 Note Off - Duracao: 104340 Nota: C1 Vol.: 73
Chanel 1 Note On - Duracao: 104340 Nota: C1 Vol.: 63
Chanel 1 Note Off - Duracao: 104820 Nota: C1 Vol.: 63
Chanel 1 Note On - Duracao: 104820 Nota: C1 Vol.: 57
Chanel 1 Note Off - Duracao: 105300 Nota: C1 Vol.: 57
Chanel 1 Note On - Duracao: 105300 Nota: C1 Vol.: 62
Chanel 3 Note Off - Duracao: 105480 Nota: C1 Vol.: 45
Chanel 3 Note On - Duracao: 105480 Nota: C1 Vol.: 45
Chanel 1 Note Off - Duracao: 105540 Nota: C1 Vol.: 62
Chanel 1 Note On - Duracao: 105540 Nota: C1 Vol.: 65
Chanel 1 Note Off - Duracao: 105660 Nota: C1 Vol.: 65
Chanel 1 Note On - Duracao: 105660 Nota: C1 Vol.: 63
Chanel 1 Note Off - Duracao: 105780 Nota: C1 Vol.: 63
Chanel 1 Note On - Duracao: 105780 Nota: C1 Vol.: 60
Chanel 1 Note Off - Duracao: 105900 Nota: C1 Vol.: 60
Chanel 1 Note On - Duracao: 105900 Nota: C1 Vol.: 56
Chanel 1 Note Off - Duracao: 106140 Nota: C1 Vol.: 56
Chanel 1 Note On - Duracao: 106140 Nota: C1 Vol.: 53
Chanel 1 Note Off - Duracao: 107100 Nota: C1 Vol.: 53
Chanel 1 Note On - Duracao: 107100 Nota: C1 Vol.: 54
Chanel 1 Note Off - Duracao: 108060 Nota: C1 Vol.: 54
Chanel 1 Note On - Duracao: 108060 Nota: C1 Vol.: 54
Chanel 2 Note Off - Duracao: 108120 Nota: C1 Vol.: 40
Chanel 2 Note On - Duracao: 108120 Nota: C1 Vol.: 42
Chanel 1 Note Off - Duracao: 109020 Nota: C1 Vol.: 54
Chanel 1 Note On - Duracao: 109020 Nota: C1 Vol.: 52
Chanel 3 Note Off - Duracao: 109320 Nota: C1 Vol.: 45
Chanel 3 Note On - Duracao: 109320 Nota: C1 Vol.: 47
Chanel 1 Note Off - Duracao: 110940 Nota: C1 Vol.: 52
Chanel 1 Note On - Duracao: 110940 Nota: C1 Vol.: 52
Chanel 2 Note Off - Duracao: 111960 Nota: C1 Vol.: 42
Chanel 2 Note On - Duracao: 111960 Nota: C1 Vol.: 57
Chanel 2 Note Off - Duracao: 112440 Nota: C1 Vol.: 57
Chanel 2 Note On - Duracao: 112440 Nota: C1 Vol.: 54
Chanel 1 Note Off - Duracao: 112860 Nota: C1 Vol.: 52
Chanel 1 Note On - Duracao: 112860 Nota: C1 Vol.: 54
Chanel 3 Note Off - Duracao: 113160 Nota: C1 Vol.: 47
Chanel 3 Note On - Duracao: 113160 Nota: C1 Vol.: 47
Chanel 2 Note Off - Duracao: 113400 Nota: C1 Vol.: 54
Chanel 2 Note On - Duracao: 113400 Nota: C1 Vol.: 67
Chanel 2 Note Off - Duracao: 113880 Nota: C1 Vol.: 67
Chanel 2 Note On - Duracao: 113880 Nota: C1 Vol.: 92
Chanel 2 Note Off - Duracao: 114000 Nota: C1 Vol.: 92
Chanel 2 Note On - Duracao: 114000 Nota: C1 Vol.: 97
Chanel 2 Note Off - Duracao: 114060 Nota: C1 Vol.: 97
Chanel 2 Note On - Duracao: 114060 Nota: C1 Vol.: 62
Chanel 1 Note Off - Duracao: 114780 Nota: C1 Vol.: 54
Chanel 1 Note On - Duracao: 114780 Nota: C1 Vol.: 54
Chanel 2 Note Off - Duracao: 115020 Nota: C1 Vol.: 62
Chanel 2 Note On - Duracao: 115020 Nota: C1 Vol.: 59
Chanel 1 Note Off - Duracao: 116700 Nota: C1 Vol.: 54
Chanel 1 Note On - Duracao: 116700 Nota: C1 Vol.: 54
Chanel 2 Note Off - Duracao: 116940 Nota: C1 Vol.: 59
Chanel 2 Note On - Duracao: 116940 Nota: C1 Vol.: 65
Chanel 3 Note Off - Duracao: 117000 Nota: C1 Vol.: 47
Chanel 3 Note On - Duracao: 117000 Nota: C1 Vol.: 44
Chanel 1 Note Off - Duracao: 118620 Nota: C1 Vol.: 54
Chanel 1 Note On - Duracao: 118620 Nota: C1 Vol.: 52
Chanel 2 Note Off - Duracao: 118860 Nota: C1 Vol.: 65
Chanel 2 Note On - Duracao: 118860 Nota: C1 Vol.: 82
Chanel 2 Note Off - Duracao: 119340 Nota: C1 Vol.: 82
Chanel 2 Note On - Duracao: 119340 Nota: C1 Vol.: 85
Chanel 2 Note Off - Duracao: 119580 Nota: C1 Vol.: 85
Chanel 2 Note On - Duracao: 119580 Nota: C1 Vol.: 83
Chanel 2 Note Off - Duracao: 119700 Nota: C1 Vol.: 83
Chanel 2 Note On - Duracao: 119700 Nota: C1 Vol.: 60
Chanel 1 Note Off - Duracao: 120540 Nota: C1 Vol.: 52
Chanel 1 Note On - Duracao: 120540 Nota: C1 Vol.: 55
Chanel 2 Note Off - Duracao: 120660 Nota: C1 Vol.: 60
Chanel 2 Note On - Duracao: 120660 Nota: C1 Vol.: 46
Chanel 3 Note Off - Duracao: 120840 Nota: C1 Vol.: 44
Chanel 3 Note On - Duracao: 120840 Nota: C1 Vol.: 43
Chanel 1 Note Off - Duracao: 122460 Nota: C1 Vol.: 55
Chanel 1 Note On - Duracao: 122460 Nota: C1 Vol.: 51
Chanel 2 Note Off - Duracao: 122580 Nota: C1 Vol.: 46
Chanel 2 Note On - Duracao: 122580 Nota: C1 Vol.: 43
Chanel 1 Note Off - Duracao: 124380 Nota: C1 Vol.: 51
Chanel 1 Note On - Duracao: 124380 Nota: C1 Vol.: 50
Chanel 3 Note Off - Duracao: 124680 Nota: C1 Vol.: 43
Chanel 3 Note On - Duracao: 124680 Nota: C1 Vol.: 62
Chanel 1 Note Off - Duracao: 126300 Nota: C1 Vol.: 50
Chanel 1 Note On - Duracao: 126300 Nota: C1 Vol.: 52
Chanel 2 Note Off - Duracao: 126420 Nota: C1 Vol.: 43
Chanel 2 Note On - Duracao: 126420 Nota: C1 Vol.: 95
Chanel 2 Note Off - Duracao: 126540 Nota: C1 Vol.: 95
Chanel 2 Note On - Duracao: 126540 Nota: C1 Vol.: 68
Chanel 3 Note Off - Duracao: 126600 Nota: C1 Vol.: 62
Chanel 3 Note On - Duracao: 126600 Nota: C1 Vol.: 58
Chanel 2 Note Off - Duracao: 127020 Nota: C1 Vol.: 68
Chanel 2 Note On - Duracao: 127020 Nota: C1 Vol.: 60
Chanel 2 Note Off - Duracao: 127980 Nota: C1 Vol.: 60
Chanel 2 Note On - Duracao: 127980 Nota: C1 Vol.: 49
Chanel 1 Note Off - Duracao: 128220 Nota: C1 Vol.: 52
Chanel 1 Note On - Duracao: 128220 Nota: C1 Vol.: 49
Chanel 2 Note Off - Duracao: 128940 Nota: C1 Vol.: 49
Chanel 2 Note On - Duracao: 128940 Nota: C1 Vol.: 68
Chanel 2 Note Off - Duracao: 129180 Nota: C1 Vol.: 68
Chanel 2 Note On - Duracao: 129180 Nota: C1 Vol.: 75
Chanel 2 Note Off - Duracao: 129420 Nota: C1 Vol.: 75
Chanel 2 Note On - Duracao: 129420 Nota: C1 Vol.: 75
Chanel 2 Note Off - Duracao: 129660 Nota: C1 Vol.: 75
Chanel 2 Note On - Duracao: 129660 Nota: C1 Vol.: 61
Chanel 1 Note Off - Duracao: 130140 Nota: C1 Vol.: 49
Chanel 1 Note On - Duracao: 130140 Nota: C1 Vol.: 49
Chanel 2 Note Off - Duracao: 130140 Nota: C1 Vol.: 61
Chanel 2 Note On - Duracao: 130140 Nota: C1 Vol.: 75
Chanel 2 Note Off - Duracao: 130380 Nota: C1 Vol.: 75
Chanel 2 Note On - Duracao: 130380 Nota: C1 Vol.: 66
Chanel 3 Note Off - Duracao: 130440 Nota: C1 Vol.: 58
Chanel 3 Note On - Duracao: 130440 Nota: C1 Vol.: 55
Chanel 2 Note Off - Duracao: 130620 Nota: C1 Vol.: 66
Chanel 2 Note On - Duracao: 130620 Nota: C1 Vol.: 63
Chanel 2 Note Off - Duracao: 131100 Nota: C1 Vol.: 63
Chanel 2 Note On - Duracao: 131100 Nota: C1 Vol.: 66
Chanel 2 Note Off - Duracao: 131340 Nota: C1 Vol.: 66
Chanel 2 Note On - Duracao: 131340 Nota: C1 Vol.: 60
Chanel 2 Note Off - Duracao: 131820 Nota: C1 Vol.: 60
Chanel 2 Note On - Duracao: 131820 Nota: C1 Vol.: 58
Chanel 1 Note Off - Duracao: 132060 Nota: C1 Vol.: 49
Chanel 1 Note On - Duracao: 132060 Nota: C1 Vol.: 52
Chanel 2 Note Off - Duracao: 132780 Nota: C1 Vol.: 58
Chanel 2 Note On - Duracao: 132780 Nota: C1 Vol.: 62
Chanel 2 Note Off - Duracao: 133260 Nota: C1 Vol.: 62
Chanel 2 Note On - Duracao: 133260 Nota: C1 Vol.: 52
Chanel 1 Note Off - Duracao: 133980 Nota: C1 Vol.: 52
Chanel 1 Note On - Duracao: 133980 Nota: C1 Vol.: 50
Chanel 3 Note Off - Duracao: 134280 Nota: C1 Vol.: 55
Chanel 3 Note On - Duracao: 134280 Nota: C1 Vol.: 60
Chanel 2 Note Off - Duracao: 135180 Nota: C1 Vol.: 52
Chanel 2 Note On - Duracao: 135180 Nota: C1 Vol.: 47
Chanel 1 Note Off - Duracao: 135900 Nota: C1 Vol.: 50
Chanel 1 Note On - Duracao: 135900 Nota: C1 Vol.: 50
Chanel 3 Note Off - Duracao: 136200 Nota: C1 Vol.: 60
Chanel 3 Note On - Duracao: 136200 Nota: C1 Vol.: 56
Chanel 2 Note Off - Duracao: 137100 Nota: C1 Vol.: 47
Chanel 2 Note On - Duracao: 137100 Nota: C1 Vol.: 49
Chanel 1 Note Off - Duracao: 137820 Nota: C1 Vol.: 50
Chanel 1 Note On - Duracao: 137820 Nota: C1 Vol.: 41
Chanel 1 Note Off - Duracao: 138780 Nota: C1 Vol.: 41
Chanel 1 Note On - Duracao: 138780 Nota: C1 Vol.: 63
Chanel 1 Note Off - Duracao: 139020 Nota: C1 Vol.: 63
Chanel 1 Note On - Duracao: 139020 Nota: C1 Vol.: 50
Chanel 2 Note Off - Duracao: 139020 Nota: C1 Vol.: 49
Chanel 2 Note On - Duracao: 139020 Nota: C1 Vol.: 68
Chanel 2 Note Off - Duracao: 139500 Nota: C1 Vol.: 68
Chanel 2 Note On - Duracao: 139500 Nota: C1 Vol.: 99
Chanel 2 Note Off - Duracao: 139560 Nota: C1 Vol.: 99
Chanel 2 Note On - Duracao: 139560 Nota: C1 Vol.: 93
Chanel 2 Note Off - Duracao: 139800 Nota: C1 Vol.: 93
Chanel 2 Note On - Duracao: 139800 Nota: C1 Vol.: 77
Chanel 1 Note Off - Duracao: 139980 Nota: C1 Vol.: 50
Chanel 1 Note On - Duracao: 139980 Nota: C1 Vol.: 51
Chanel 3 Note Off - Duracao: 140040 Nota: C1 Vol.: 56
Chanel 3 Note On - Duracao: 140040 Nota: C1 Vol.: 57
Chanel 2 Note Off - Duracao: 140760 Nota: C1 Vol.: 77
Chanel 2 Note On - Duracao: 140760 Nota: C1 Vol.: 82
Chanel 1 Note Off - Duracao: 140940 Nota: C1 Vol.: 51
Chanel 1 Note On - Duracao: 140940 Nota: C1 Vol.: 53
Chanel 2 Note Off - Duracao: 141240 Nota: C1 Vol.: 82
Chanel 2 Note On - Duracao: 141240 Nota: C1 Vol.: 99
Chanel 2 Note Off - Duracao: 141360 Nota: C1 Vol.: 99
Chanel 2 Note On - Duracao: 141360 Nota: C1 Vol.: 94
Chanel 2 Note Off - Duracao: 141600 Nota: C1 Vol.: 94
Chanel 2 Note On - Duracao: 141600 Nota: C1 Vol.: 72
Chanel 1 Note Off - Duracao: 141900 Nota: C1 Vol.: 53
Chanel 1 Note On - Duracao: 141900 Nota: C1 Vol.: 50
Chanel 3 Note Off - Duracao: 141960 Nota: C1 Vol.: 57
Chanel 3 Note On - Duracao: 141960 Nota: C1 Vol.: 54
Chanel 2 Note Off - Duracao: 142560 Nota: C1 Vol.: 72
Chanel 2 Note On - Duracao: 142560 Nota: C1 Vol.: 51
Chanel 1 Note Off - Duracao: 143820 Nota: C1 Vol.: 50
Chanel 1 Note On - Duracao: 143820 Nota: C1 Vol.: 51
Chanel 3 Note Off - Duracao: 143880 Nota: C1 Vol.: 54
Chanel 3 Note On - Duracao: 143880 Nota: C1 Vol.: 53
Chanel 1 Note Off - Duracao: 144780 Nota: C1 Vol.: 51
Chanel 1 Note On - Duracao: 144780 Nota: C1 Vol.: 69
Chanel 1 Note Off - Duracao: 145260 Nota: C1 Vol.: 69
Chanel 1 Note On - Duracao: 145260 Nota: C1 Vol.: 94
Chanel 1 Note Off - Duracao: 145380 Nota: C1 Vol.: 94
Chanel 1 Note On - Duracao: 145380 Nota: C1 Vol.: 78
Chanel 1 Note Off - Duracao: 145620 Nota: C1 Vol.: 78
Chanel 1 Note On - Duracao: 145620 Nota: C1 Vol.: 59
Chanel 3 Note Off - Duracao: 145800 Nota: C1 Vol.: 53
Chanel 3 Note On - Duracao: 145800 Nota: C1 Vol.: 57
Chanel 2 Note Off - Duracao: 146400 Nota: C1 Vol.: 51
Chanel 2 Note On - Duracao: 146400 Nota: C1 Vol.: 51
Chanel 1 Note Off - Duracao: 146580 Nota: C1 Vol.: 59
Chanel 1 Note On - Duracao: 146580 Nota: C1 Vol.: 58
Chanel 1 Note Off - Duracao: 147540 Nota: C1 Vol.: 58
Chanel 1 Note On - Duracao: 147540 Nota: C1 Vol.: 56
Chanel 3 Note Off - Duracao: 147720 Nota: C1 Vol.: 57
Chanel 3 Note On - Duracao: 147720 Nota: C1 Vol.: 73
Chanel 1 Note Off - Duracao: 148500 Nota: C1 Vol.: 56
Chanel 1 Note On - Duracao: 148500 Nota: C1 Vol.: 54
Chanel 3 Note Off - Duracao: 148680 Nota: C1 Vol.: 73
Chanel 3 Note On - Duracao: 148680 Nota: C1 Vol.: 95
Chanel 3 Note Off - Duracao: 148920 Nota: C1 Vol.: 95
Chanel 3 Note On - Duracao: 148920 Nota: C1 Vol.: 100
Chanel 3 Note Off - Duracao: 149040 Nota: C1 Vol.: 100
Chanel 3 Note On - Duracao: 149040 Nota: C1 Vol.: 98
Chanel 3 Note Off - Duracao: 149160 Nota: C1 Vol.: 98
Chanel 3 Note On - Duracao: 149160 Nota: C1 Vol.: 67
Chanel 1 Note Off - Duracao: 149460 Nota: C1 Vol.: 54
Chanel 1 Note On - Duracao: 149460 Nota: C1 Vol.: 49
Chanel 3 Note Off - Duracao: 150120 Nota: C1 Vol.: 67
Chanel 3 Note On - Duracao: 150120 Nota: C1 Vol.: 49
Chanel 2 Note Off - Duracao: 150240 Nota: C1 Vol.: 51
Chanel 2 Note On - Duracao: 150240 Nota: C1 Vol.: 44
Chanel 1 Note Off - Duracao: 150420 Nota: C1 Vol.: 49
Chanel 1 Note On - Duracao: 150420 Nota: C1 Vol.: 58
Chanel 1 Note Off - Duracao: 150660 Nota: C1 Vol.: 58
Chanel 1 Note On - Duracao: 150660 Nota: C1 Vol.: 60
Chanel 1 Note Off - Duracao: 150780 Nota: C1 Vol.: 60
Chanel 1 Note On - Duracao: 150780 Nota: C1 Vol.: 56
Chanel 1 Note Off - Duracao: 150900 Nota: C1 Vol.: 56
Chanel 1 Note On - Duracao: 150900 Nota: C1 Vol.: 61
Chanel 1 Note Off - Duracao: 151020 Nota: C1 Vol.: 61
Chanel 1 Note On - Duracao: 151020 Nota: C1 Vol.: 61
Chanel 1 Note Off - Duracao: 151140 Nota: C1 Vol.: 61
Chanel 1 Note On - Duracao: 151140 Nota: C1 Vol.: 67
Chanel 1 Note Off - Duracao: 151260 Nota: C1 Vol.: 67
Chanel 1 Note On - Duracao: 151260 Nota: C1 Vol.: 73
Chanel 1 Note Off - Duracao: 151380 Nota: C1 Vol.: 73
Chanel 1 Note On - Duracao: 151380 Nota: C1 Vol.: 67
Chanel 1 Note Off - Duracao: 151620 Nota: C1 Vol.: 67
Chanel 1 Note On - Duracao: 151620 Nota: C1 Vol.: 74
Chanel 1 Note Off - Duracao: 151740 Nota: C1 Vol.: 74
Chanel 1 Note On - Duracao: 151740 Nota: C1 Vol.: 77
Chanel 1 Note Off - Duracao: 151860 Nota: C1 Vol.: 77
Chanel 1 Note On - Duracao: 151860 Nota: C1 Vol.: 62
Chanel 1 Note Off - Duracao: 152340 Nota: C1 Vol.: 62
Chanel 1 Note On - Duracao: 152340 Nota: C1 Vol.: 65
Chanel 1 Note Off - Duracao: 152580 Nota: C1 Vol.: 65
Chanel 1 Note On - Duracao: 152580 Nota: C1 Vol.: 60
Chanel 1 Note Off - Duracao: 152820 Nota: C1 Vol.: 60
Chanel 1 Note On - Duracao: 152820 Nota: C1 Vol.: 63
Chanel 1 Note Off - Duracao: 152880 Nota: C1 Vol.: 63
Chanel 1 Note On - Duracao: 152880 Nota: C1 Vol.: 59
Chanel 1 Note Off - Duracao: 152940 Nota: C1 Vol.: 59
Chanel 1 Note On - Duracao: 152940 Nota: C1 Vol.: 61
Chanel 1 Note Off - Duracao: 153000 Nota: C1 Vol.: 61
Chanel 1 Note On - Duracao: 153000 Nota: C1 Vol.: 58
Chanel 1 Note Off - Duracao: 153240 Nota: C1 Vol.: 58
Chanel 1 Note On - Duracao: 153240 Nota: C1 Vol.: 54
Chanel 1 Note Off - Duracao: 153720 Nota: C1 Vol.: 54
Chanel 1 Note On - Duracao: 153720 Nota: C1 Vol.: 52
Chanel 3 Note Off - Duracao: 153960 Nota: C1 Vol.: 49
Chanel 3 Note On - Duracao: 153960 Nota: C1 Vol.: 46
Chanel 2 Note Off - Duracao: 154080 Nota: C1 Vol.: 44
Chanel 2 Note On - Duracao: 154080 Nota: C1 Vol.: 49
Chanel 1 Note Off - Duracao: 154680 Nota: C1 Vol.: 52
Chanel 1 Note On - Duracao: 154680 Nota: C1 Vol.: 52
Chanel 2 Note Off - Duracao: 156000 Nota: C1 Vol.: 49
Chanel 2 Note On - Duracao: 156000 Nota: C1 Vol.: 48
Chanel 1 Note Off - Duracao: 156600 Nota: C1 Vol.: 52
Chanel 1 Note On - Duracao: 156600 Nota: C1 Vol.: 51
Chanel 3 Note Off - Duracao: 157800 Nota: C1 Vol.: 46
Chanel 3 Note On - Duracao: 157800 Nota: C1 Vol.: 50
Chanel 1 Note Off - Duracao: 158520 Nota: C1 Vol.: 51
Chanel 1 Note On - Duracao: 158520 Nota: C1 Vol.: 50
Chanel 2 Note Off - Duracao: 159840 Nota: C1 Vol.: 48
Chanel 2 Note On - Duracao: 159840 Nota: C1 Vol.: 48
Chanel 1 Note Off - Duracao: 160440 Nota: C1 Vol.: 50
Chanel 1 Note On - Duracao: 160440 Nota: C1 Vol.: 52
Chanel 3 Note Off - Duracao: 161640 Nota: C1 Vol.: 50
Chanel 3 Note On - Duracao: 161640 Nota: C1 Vol.: 43
Chanel 1 Note Off - Duracao: 162360 Nota: C1 Vol.: 52
Chanel 1 Note On - Duracao: 162360 Nota: C1 Vol.: 53
Chanel 2 Note Off - Duracao: 163680 Nota: C1 Vol.: 48
Chanel 2 Note On - Duracao: 163680 Nota: C1 Vol.: 51
Chanel 1 Note Off - Duracao: 164280 Nota: C1 Vol.: 53
Chanel 1 Note On - Duracao: 164280 Nota: C1 Vol.: 54
Chanel 3 Note Off - Duracao: 165480 Nota: C1 Vol.: 43
Chanel 3 Note On - Duracao: 165480 Nota: C1 Vol.: 47
Chanel 2 Note Off - Duracao: 165600 Nota: C1 Vol.: 51
Chanel 2 Note On - Duracao: 165600 Nota: C1 Vol.: 41
Chanel 1 Note Off - Duracao: 166200 Nota: C1 Vol.: 54
Chanel 1 Note On - Duracao: 166200 Nota: C1 Vol.: 55
Chanel 3 Note Off - Duracao: 167400 Nota: C1 Vol.: 47
Chanel 3 Note On - Duracao: 167400 Nota: C1 Vol.: 59
Chanel 3 Note Off - Duracao: 167880 Nota: C1 Vol.: 59
Chanel 3 Note On - Duracao: 167880 Nota: C1 Vol.: 46
Chanel 1 Note Off - Duracao: 168120 Nota: C1 Vol.: 55
Chanel 1 Note On - Duracao: 168120 Nota: C1 Vol.: 56
Chanel 2 Note Off - Duracao: 169440 Nota: C1 Vol.: 41
Chanel 2 Note On - Duracao: 169440 Nota: C1 Vol.: 45
Chanel 3 Note Off - Duracao: 169800 Nota: C1 Vol.: 46
Chanel 3 Note On - Duracao: 169800 Nota: C1 Vol.: 45
Chanel 1 Note Off - Duracao: 170040 Nota: C1 Vol.: 56
Chanel 1 Note On - Duracao: 170040 Nota: C1 Vol.: 53
Chanel 2 Note Off - Duracao: 171360 Nota: C1 Vol.: 45
Chanel 2 Note On - Duracao: 171360 Nota: C1 Vol.: 48
Chanel 1 Note Off - Duracao: 171960 Nota: C1 Vol.: 53
Chanel 1 Note On - Duracao: 171960 Nota: C1 Vol.: 48
Chanel 2 Note Off - Duracao: 173280 Nota: C1 Vol.: 48
Chanel 2 Note On - Duracao: 173280 Nota: C1 Vol.: 59
Chanel 3 Note Off - Duracao: 173640 Nota: C1 Vol.: 45
Chanel 3 Note On - Duracao: 173640 Nota: C1 Vol.: 55
Chanel 2 Note Off - Duracao: 173760 Nota: C1 Vol.: 59
Chanel 2 Note On - Duracao: 173760 Nota: C1 Vol.: 58
Chanel 1 Note Off - Duracao: 173880 Nota: C1 Vol.: 48
Chanel 1 Note On - Duracao: 173880 Nota: C1 Vol.: 57
Chanel 3 Note Off - Duracao: 174600 Nota: C1 Vol.: 55
Chanel 3 Note On - Duracao: 174600 Nota: C1 Vol.: 52
Chanel 2 Note Off - Duracao: 174720 Nota: C1 Vol.: 58
Chanel 2 Note On - Duracao: 174720 Nota: C1 Vol.: 74
Chanel 1 Note Off - Duracao: 174840 Nota: C1 Vol.: 57
Chanel 1 Note On - Duracao: 174840 Nota: C1 Vol.: 48
Chanel 2 Note Off - Duracao: 175200 Nota: C1 Vol.: 74
Chanel 2 Note On - Duracao: 175200 Nota: C1 Vol.: 100
Chanel 2 Note Off - Duracao: 175260 Nota: C1 Vol.: 100
Chanel 2 Note On - Duracao: 175260 Nota: C1 Vol.: 100
Chanel 2 Note Off - Duracao: 175320 Nota: C1 Vol.: 100
Chanel 2 Note On - Duracao: 175320 Nota: C1 Vol.: 79
Chanel 2 Note Off - Duracao: 175800 Nota: C1 Vol.: 79
Chanel 2 Note On - Duracao: 175800 Nota: C1 Vol.: 54
Chanel 3 Note Off - Duracao: 176520 Nota: C1 Vol.: 52
Chanel 3 Note On - Duracao: 176520 Nota: C1 Vol.: 47
Chanel 1 Note Off - Duracao: 176760 Nota: C1 Vol.: 48
Chanel 1 Note On - Duracao: 176760 Nota: C1 Vol.: 50
Chanel 1 Note Off - Duracao: 178680 Nota: C1 Vol.: 50
Chanel 1 Note On - Duracao: 178680 Nota: C1 Vol.: 51
Chanel 2 Note Off - Duracao: 179640 Nota: C1 Vol.: 54
Chanel 2 Note On - Duracao: 179640 Nota: C1 Vol.: 58
Chanel 3 Note Off - Duracao: 180360 Nota: C1 Vol.: 47
Chanel 3 Note On - Duracao: 180360 Nota: C1 Vol.: 55
Chanel 1 Note Off - Duracao: 180600 Nota: C1 Vol.: 51
Chanel 1 Note On - Duracao: 180600 Nota: C1 Vol.: 49
Chanel 2 Note Off - Duracao: 181560 Nota: C1 Vol.: 58
Chanel 2 Note On - Duracao: 181560 Nota: C1 Vol.: 64
Chanel 1 Note Off - Duracao: 182520 Nota: C1 Vol.: 49
Chanel 1 Note On - Duracao: 182520 Nota: C1 Vol.: 47
Chanel 2 Note Off - Duracao: 182520 Nota: C1 Vol.: 64
Chanel 2 Note On - Duracao: 182520 Nota: C1 Vol.: 71
Chanel 2 Note Off - Duracao: 183000 Nota: C1 Vol.: 71
Chanel 2 Note On - Duracao: 183000 Nota: C1 Vol.: 73
Chanel 2 Note Off - Duracao: 183240 Nota: C1 Vol.: 73
Chanel 2 Note On - Duracao: 183240 Nota: C1 Vol.: 74
Chanel 2 Note Off - Duracao: 183480 Nota: C1 Vol.: 74
Chanel 2 Note On - Duracao: 183480 Nota: C1 Vol.: 49
Chanel 3 Note Off - Duracao: 184200 Nota: C1 Vol.: 55
Chanel 3 Note On - Duracao: 184200 Nota: C1 Vol.: 62
Chanel 1 Note Off - Duracao: 184440 Nota: C1 Vol.: 47
Chanel 1 Note On - Duracao: 184440 Nota: C1 Vol.: 40
Chanel 1 Note Off - Duracao: 185400 Nota: C1 Vol.: 40
Chanel 1 Note On - Duracao: 185400 Nota: C1 Vol.: 60
Chanel 2 Note Off - Duracao: 185400 Nota: C1 Vol.: 49
Chanel 2 Note On - Duracao: 185400 Nota: C1 Vol.: 65
Chanel 1 Note Off - Duracao: 185640 Nota: C1 Vol.: 60
Chanel 1 Note On - Duracao: 185640 Nota: C1 Vol.: 40
Chanel 2 Note Off - Duracao: 185880 Nota: C1 Vol.: 65
Chanel 2 Note On - Duracao: 185880 Nota: C1 Vol.: 90
Chanel 2 Note Off - Duracao: 186000 Nota: C1 Vol.: 90
Chanel 2 Note On - Duracao: 186000 Nota: C1 Vol.: 55
Chanel 3 Note Off - Duracao: 186120 Nota: C1 Vol.: 62
Chanel 3 Note On - Duracao: 186120 Nota: C1 Vol.: 65
Chanel 2 Note Off - Duracao: 186960 Nota: C1 Vol.: 55
Chanel 2 Note On - Duracao: 186960 Nota: C1 Vol.: 53
Chanel 1 Note Off - Duracao: 187560 Nota: C1 Vol.: 40
Chanel 1 Note On - Duracao: 187560 Nota: C1 Vol.: 46
Chanel 2 Note Off - Duracao: 187920 Nota: C1 Vol.: 53
Chanel 2 Note On - Duracao: 187920 Nota: C1 Vol.: 47
Chanel 3 Note Off - Duracao: 188040 Nota: C1 Vol.: 65
Chanel 3 Note On - Duracao: 188040 Nota: C1 Vol.: 80
Chanel 3 Note Off - Duracao: 188520 Nota: C1 Vol.: 80
Chanel 3 Note On - Duracao: 188520 Nota: C1 Vol.: 100
Chanel 3 Note Off - Duracao: 188640 Nota: C1 Vol.: 100
Chanel 3 Note On - Duracao: 188640 Nota: C1 Vol.: 98
Chanel 3 Note Off - Duracao: 188760 Nota: C1 Vol.: 98
Chanel 3 Note On - Duracao: 188760 Nota: C1 Vol.: 84
Chanel 3 Note Off - Duracao: 189000 Nota: C1 Vol.: 84
Chanel 3 Note On - Duracao: 189000 Nota: C1 Vol.: 58
Chanel 1 Note Off - Duracao: 189480 Nota: C1 Vol.: 46
Chanel 1 Note On - Duracao: 189480 Nota: C1 Vol.: 57
Chanel 2 Note Off - Duracao: 189840 Nota: C1 Vol.: 47
Chanel 2 Note On - Duracao: 189840 Nota: C1 Vol.: 59
Chanel 2 Note Off - Duracao: 190320 Nota: C1 Vol.: 59
Chanel 2 Note On - Duracao: 190320 Nota: C1 Vol.: 83
Chanel 1 Note Off - Duracao: 190440 Nota: C1 Vol.: 57
Chanel 1 Note On - Duracao: 190440 Nota: C1 Vol.: 48
Chanel 2 Note Off - Duracao: 190440 Nota: C1 Vol.: 83
Chanel 2 Note On - Duracao: 190440 Nota: C1 Vol.: 93
Chanel 2 Note Off - Duracao: 190500 Nota: C1 Vol.: 93
Chanel 2 Note On - Duracao: 190500 Nota: C1 Vol.: 63
Chanel 3 Note Off - Duracao: 190920 Nota: C1 Vol.: 58
Chanel 3 Note On - Duracao: 190920 Nota: C1 Vol.: 47
Chanel 2 Note Off - Duracao: 190980 Nota: C1 Vol.: 63
Chanel 2 Note On - Duracao: 190980 Nota: C1 Vol.: 83
Chanel 2 Note Off - Duracao: 191100 Nota: C1 Vol.: 83
Chanel 2 Note On - Duracao: 191100 Nota: C1 Vol.: 67
Chanel 2 Note Off - Duracao: 191580 Nota: C1 Vol.: 67
Chanel 2 Note On - Duracao: 191580 Nota: C1 Vol.: 64
Chanel 2 Note Off - Duracao: 192060 Nota: C1 Vol.: 64
Chanel 2 Note On - Duracao: 192060 Nota: C1 Vol.: 81
Chanel 2 Note Off - Duracao: 192180 Nota: C1 Vol.: 81
Chanel 2 Note On - Duracao: 192180 Nota: C1 Vol.: 62
Chanel 1 Note Off - Duracao: 192360 Nota: C1 Vol.: 48
Chanel 1 Note On - Duracao: 192360 Nota: C1 Vol.: 50
Chanel 2 Note Off - Duracao: 192660 Nota: C1 Vol.: 62
Chanel 2 Note On - Duracao: 192660 Nota: C1 Vol.: 62
Chanel 2 Note Off - Duracao: 193140 Nota: C1 Vol.: 62
Chanel 2 Note On - Duracao: 193140 Nota: C1 Vol.: 53
Chanel 1 Note Off - Duracao: 193320 Nota: C1 Vol.: 50
Chanel 1 Note On - Duracao: 193320 Nota: C1 Vol.: 75
Chanel 1 Note Off - Duracao: 193560 Nota: C1 Vol.: 75
Chanel 1 Note On - Duracao: 193560 Nota: C1 Vol.: 89
Chanel 1 Note Off - Duracao: 193680 Nota: C1 Vol.: 89
Chanel 1 Note On - Duracao: 193680 Nota: C1 Vol.: 58
Chanel 2 Note Off - Duracao: 194100 Nota: C1 Vol.: 53
Chanel 2 Note On - Duracao: 194100 Nota: C1 Vol.: 51
Chanel 1 Note Off - Duracao: 194640 Nota: C1 Vol.: 58
Chanel 1 Note On - Duracao: 194640 Nota: C1 Vol.: 58
Chanel 3 Note Off - Duracao: 194760 Nota: C1 Vol.: 47
Chanel 3 Note On - Duracao: 194760 Nota: C1 Vol.: 47
Chanel 1 Note Off - Duracao: 195600 Nota: C1 Vol.: 58
Chanel 1 Note On - Duracao: 195600 Nota: C1 Vol.: 54
Chanel 2 Note Off - Duracao: 196020 Nota: C1 Vol.: 51
Chanel 2 Note On - Duracao: 196020 Nota: C1 Vol.: 51
Chanel 1 Note Off - Duracao: 196560 Nota: C1 Vol.: 54
Chanel 1 Note On - Duracao: 196560 Nota: C1 Vol.: 56
Chanel 1 Note Off - Duracao: 197520 Nota: C1 Vol.: 56
Chanel 1 Note On - Duracao: 197520 Nota: C1 Vol.: 53
Chanel 2 Note Off - Duracao: 197940 Nota: C1 Vol.: 51
Chanel 2 Note On - Duracao: 197940 Nota: C1 Vol.: 50
Chanel 1 Note Off - Duracao: 198480 Nota: C1 Vol.: 53
Chanel 1 Note On - Duracao: 198480 Nota: C1 Vol.: 49
Chanel 3 Note Off - Duracao: 198600 Nota: C1 Vol.: 47
Chanel 3 Note On - Duracao: 198600 Nota: C1 Vol.: 46
Chanel 1 Note Off - Duracao: 198960 Nota: C1 Vol.: 49
Chanel 1 Note On - Duracao: 198960 Nota: C1 Vol.: 65
Chanel 1 Note Off - Duracao: 199080 Nota: C1 Vol.: 65
Chanel 1 Note On - Duracao: 199080 Nota: C1 Vol.: 61
Chanel 1 Note Off - Duracao: 199200 Nota: C1 Vol.: 61
Chanel 1 Note On - Duracao: 199200 Nota: C1 Vol.: 60
Chanel 1 Note Off - Duracao: 199320 Nota: C1 Vol.: 60
Chanel 1 Note On - Duracao: 199320 Nota: C1 Vol.: 62
Chanel 1 Note Off - Duracao: 199440 Nota: C1 Vol.: 62
Chanel 1 Note On - Duracao: 199440 Nota: C1 Vol.: 66
Chanel 1 Note Off - Duracao: 199560 Nota: C1 Vol.: 66
Chanel 1 Note On - Duracao: 199560 Nota: C1 Vol.: 63
Chanel 1 Note Off - Duracao: 199800 Nota: C1 Vol.: 63
Chanel 1 Note On - Duracao: 199800 Nota: C1 Vol.: 76
Chanel 2 Note Off - Duracao: 199860 Nota: C1 Vol.: 50
Chanel 2 Note On - Duracao: 199860 Nota: C1 Vol.: 70
Chanel 1 Note Off - Duracao: 199920 Nota: C1 Vol.: 76
Chanel 1 Note On - Duracao: 199920 Nota: C1 Vol.: 64
Chanel 1 Note Off - Duracao: 200160 Nota: C1 Vol.: 64
Chanel 1 Note On - Duracao: 200160 Nota: C1 Vol.: 66
Chanel 2 Note Off - Duracao: 200340 Nota: C1 Vol.: 70
Chanel 2 Note On - Duracao: 200340 Nota: C1 Vol.: 93
Chanel 1 Note Off - Duracao: 200400 Nota: C1 Vol.: 66
Chanel 1 Note On - Duracao: 200400 Nota: C1 Vol.: 58
Chanel 2 Note Off - Duracao: 200460 Nota: C1 Vol.: 93
Chanel 2 Note On - Duracao: 200460 Nota: C1 Vol.: 98
Chanel 2 Note Off - Duracao: 200580 Nota: C1 Vol.: 98
Chanel 2 Note On - Duracao: 200580 Nota: C1 Vol.: 89
Chanel 1 Note Off - Duracao: 200880 Nota: C1 Vol.: 58
Chanel 1 Note On - Duracao: 200880 Nota: C1 Vol.: 63
Chanel 2 Note Off - Duracao: 201060 Nota: C1 Vol.: 89
Chanel 2 Note On - Duracao: 201060 Nota: C1 Vol.: 77
Chanel 1 Note Off - Duracao: 201120 Nota: C1 Vol.: 63
Chanel 1 Note On - Duracao: 201120 Nota: C1 Vol.: 54
Chanel 1 Note Off - Duracao: 201600 Nota: C1 Vol.: 54
Chanel 1 Note On - Duracao: 201600 Nota: C1 Vol.: 60
Chanel 1 Note Off - Duracao: 201840 Nota: C1 Vol.: 60
Chanel 1 Note On - Duracao: 201840 Nota: C1 Vol.: 60
Chanel 1 Note Off - Duracao: 201960 Nota: C1 Vol.: 60
Chanel 1 Note On - Duracao: 201960 Nota: C1 Vol.: 58
Chanel 1 Note Off - Duracao: 202020 Nota: C1 Vol.: 58
Chanel 1 Note On - Duracao: 202020 Nota: C1 Vol.: 63
Chanel 2 Note Off - Duracao: 202020 Nota: C1 Vol.: 77
Chanel 2 Note On - Duracao: 202020 Nota: C1 Vol.: 100
Chanel 1 Note Off - Duracao: 202080 Nota: C1 Vol.: 63
Chanel 1 Note On - Duracao: 202080 Nota: C1 Vol.: 62
Chanel 2 Note Off - Duracao: 202140 Nota: C1 Vol.: 100
Chanel 2 Note On - Duracao: 202140 Nota: C1 Vol.: 100
Chanel 1 Note Off - Duracao: 202200 Nota: C1 Vol.: 62
Chanel 1 Note On - Duracao: 202200 Nota: C1 Vol.: 58
Chanel 2 Note Off - Duracao: 202200 Nota: C1 Vol.: 100
Chanel 2 Note On - Duracao: 202200 Nota: C1 Vol.: 99
Chanel 2 Note Off - Duracao: 202320 Nota: C1 Vol.: 99
Chanel 2 Note On - Duracao: 202320 Nota: C1 Vol.: 76
Chanel 3 Note Off - Duracao: 202440 Nota: C1 Vol.: 46
Chanel 3 Note On - Duracao: 202440 Nota: C1 Vol.: 49
Chanel 1 Note Off - Duracao: 202680 Nota: C1 Vol.: 58
Chanel 1 Note On - Duracao: 202680 Nota: C1 Vol.: 51
Chanel 2 Note Off - Duracao: 202800 Nota: C1 Vol.: 76
Chanel 2 Note On - Duracao: 202800 Nota: C1 Vol.: 47
Chanel 1 Note Off - Duracao: 203640 Nota: C1 Vol.: 51
Chanel 1 Note On - Duracao: 203640 Nota: C1 Vol.: 49
Chanel 1 Note Off - Duracao: 205560 Nota: C1 Vol.: 49
Chanel 1 Note On - Duracao: 205560 Nota: C1 Vol.: 51
Chanel 3 Note Off - Duracao: 206280 Nota: C1 Vol.: 49
Chanel 3 Note On - Duracao: 206280 Nota: C1 Vol.: 50
Chanel 2 Note Off - Duracao: 206640 Nota: C1 Vol.: 47
Chanel 2 Note On - Duracao: 206640 Nota: C1 Vol.: 45
Chanel 1 Note Off - Duracao: 207480 Nota: C1 Vol.: 51
Chanel 1 Note On - Duracao: 207480 Nota: C1 Vol.: 50
Chanel 3 Note Off - Duracao: 208200 Nota: C1 Vol.: 50
Chanel 3 Note On - Duracao: 208200 Nota: C1 Vol.: 54
Chanel 1 Note Off - Duracao: 209400 Nota: C1 Vol.: 50
Chanel 1 Note On - Duracao: 209400 Nota: C1 Vol.: 51
Chanel 3 Note Off - Duracao: 210120 Nota: C1 Vol.: 54
Chanel 3 Note On - Duracao: 210120 Nota: C1 Vol.: 41
Chanel 2 Note Off - Duracao: 210480 Nota: C1 Vol.: 45
Chanel 2 Note On - Duracao: 210480 Nota: C1 Vol.: 43
Chanel 1 Note Off - Duracao: 211320 Nota: C1 Vol.: 51
Chanel 1 Note On - Duracao: 211320 Nota: C1 Vol.: 52
Chanel 1 Note Off - Duracao: 213240 Nota: C1 Vol.: 52
Chanel 1 Note On - Duracao: 213240 Nota: C1 Vol.: 54
Chanel 3 Note Off - Duracao: 213960 Nota: C1 Vol.: 41
Chanel 3 Note On - Duracao: 213960 Nota: C1 Vol.: 46
Chanel 2 Note Off - Duracao: 214320 Nota: C1 Vol.: 43
Chanel 2 Note On - Duracao: 214320 Nota: C1 Vol.: 48
Chanel 1 Note Off - Duracao: 215160 Nota: C1 Vol.: 54
Chanel 1 Note On - Duracao: 215160 Nota: C1 Vol.: 56
Chanel 1 Note Off - Duracao: 217080 Nota: C1 Vol.: 56
Chanel 1 Note On - Duracao: 217080 Nota: C1 Vol.: 55
Chanel 3 Note Off - Duracao: 217800 Nota: C1 Vol.: 46
Chanel 3 Note On - Duracao: 217800 Nota: C1 Vol.: 45
Chanel 2 Note Off - Duracao: 218160 Nota: C1 Vol.: 48
Chanel 2 Note On - Duracao: 218160 Nota: C1 Vol.: 48
Chanel 1 Note Off - Duracao: 219000 Nota: C1 Vol.: 55
Chanel 1 Note On - Duracao: 219000 Nota: C1 Vol.: 52
Chanel 1 Note Off - Duracao: 220920 Nota: C1 Vol.: 52
Chanel 1 Note On - Duracao: 220920 Nota: C1 Vol.: 48
Chanel 3 Note Off - Duracao: 221640 Nota: C1 Vol.: 45
Chanel 3 Note On - Duracao: 221640 Nota: C1 Vol.: 44
Chanel 2 Note Off - Duracao: 222000 Nota: C1 Vol.: 48
Chanel 2 Note On - Duracao: 222000 Nota: C1 Vol.: 50
Chanel 1 Note Off - Duracao: 222840 Nota: C1 Vol.: 48
Chanel 1 Note On - Duracao: 222840 Nota: C1 Vol.: 57
Chanel 1 Note Off - Duracao: 223800 Nota: C1 Vol.: 57
Chanel 1 Note On - Duracao: 223800 Nota: C1 Vol.: 48
Chanel 2 Note Off - Duracao: 223920 Nota: C1 Vol.: 50
Chanel 2 Note On - Duracao: 223920 Nota: C1 Vol.: 49
Chanel 1 Note Off - Duracao: 224760 Nota: C1 Vol.: 48
Chanel 1 Note On - Duracao: 224760 Nota: C1 Vol.: 49
Chanel 3 Note Off - Duracao: 225480 Nota: C1 Vol.: 44
Chanel 3 Note On - Duracao: 225480 Nota: C1 Vol.: 43
Chanel 2 Note Off - Duracao: 225840 Nota: C1 Vol.: 49
Chanel 2 Note On - Duracao: 225840 Nota: C1 Vol.: 43
Chanel 1 Note Off - Duracao: 226680 Nota: C1 Vol.: 49
Chanel 1 Note On - Duracao: 226680 Nota: C1 Vol.: 48
Chanel 1 Note Off - Duracao: 228600 Nota: C1 Vol.: 48
Chanel 1 Note On - Duracao: 228600 Nota: C1 Vol.: 49
Chanel 3 Note Off - Duracao: 229320 Nota: C1 Vol.: 43
Chanel 3 Note On - Duracao: 229320 Nota: C1 Vol.: 44
Chanel 2 Note Off - Duracao: 229680 Nota: C1 Vol.: 43
Chanel 2 Note On - Duracao: 229680 Nota: C1 Vol.: 45
Chanel 1 Note Off - Duracao: 230520 Nota: C1 Vol.: 49
Chanel 1 Note On - Duracao: 230520 Nota: C1 Vol.: 48
Chanel 2 Note Off - Duracao: 231600 Nota: C1 Vol.: 45
Chanel 2 Note On - Duracao: 231600 Nota: C1 Vol.: 68
Chanel 2 Note Off - Duracao: 232080 Nota: C1 Vol.: 68
Chanel 2 Note On - Duracao: 232080 Nota: C1 Vol.: 61
Chanel 1 Note Off - Duracao: 232440 Nota: C1 Vol.: 48
Chanel 1 Note On - Duracao: 232440 Nota: C1 Vol.: 50
Chanel 1 Note Off - Duracao: 232920 Nota: C1 Vol.: 50
Chanel 1 Note On - Duracao: 232920 Nota: C1 Vol.: 55
Chanel 2 Note Off - Duracao: 233040 Nota: C1 Vol.: 61
Chanel 2 Note On - Duracao: 233040 Nota: C1 Vol.: 85
Chanel 3 Note Off - Duracao: 233160 Nota: C1 Vol.: 44
Chanel 3 Note On - Duracao: 233160 Nota: C1 Vol.: 44
Chanel 2 Note Off - Duracao: 233280 Nota: C1 Vol.: 85
Chanel 2 Note On - Duracao: 233280 Nota: C1 Vol.: 99
Chanel 2 Note Off - Duracao: 233340 Nota: C1 Vol.: 99
Chanel 2 Note On - Duracao: 233340 Nota: C1 Vol.: 100
Chanel 1 Note Off - Duracao: 233400 Nota: C1 Vol.: 55
Chanel 1 Note On - Duracao: 233400 Nota: C1 Vol.: 48
Chanel 2 Note Off - Duracao: 233400 Nota: C1 Vol.: 100
Chanel 2 Note On - Duracao: 233400 Nota: C1 Vol.: 79
Chanel 2 Note Off - Duracao: 233880 Nota: C1 Vol.: 79
Chanel 2 Note On - Duracao: 233880 Nota: C1 Vol.: 57
Chanel 1 Note Off - Duracao: 234360 Nota: C1 Vol.: 48
Chanel 1 Note On - Duracao: 234360 Nota: C1 Vol.: 54
Chanel 1 Note Off - Duracao: 235320 Nota: C1 Vol.: 54
Chanel 1 Note On - Duracao: 235320 Nota: C1 Vol.: 54
Chanel 2 Note Off - Duracao: 235800 Nota: C1 Vol.: 57
Chanel 2 Note On - Duracao: 235800 Nota: C1 Vol.: 52
Chanel 1 Note Off - Duracao: 236280 Nota: C1 Vol.: 54
Chanel 1 Note On - Duracao: 236280 Nota: C1 Vol.: 52
Chanel 3 Note Off - Duracao: 237000 Nota: C1 Vol.: 44
Chanel 3 Note On - Duracao: 237000 Nota: C1 Vol.: 47
Chanel 1 Note Off - Duracao: 238200 Nota: C1 Vol.: 52
Chanel 1 Note On - Duracao: 238200 Nota: C1 Vol.: 51
Chanel 2 Note Off - Duracao: 239640 Nota: C1 Vol.: 52
Chanel 2 Note On - Duracao: 239640 Nota: C1 Vol.: 49
Chanel 1 Note Off - Duracao: 240120 Nota: C1 Vol.: 51
Chanel 1 Note On - Duracao: 240120 Nota: C1 Vol.: 80
Chanel 1 Note Off - Duracao: 240360 Nota: C1 Vol.: 80
Chanel 1 Note On - Duracao: 240360 Nota: C1 Vol.: 86
Chanel 1 Note Off - Duracao: 240480 Nota: C1 Vol.: 86
Chanel 1 Note On - Duracao: 240480 Nota: C1 Vol.: 58
Chanel 3 Note Off - Duracao: 240840 Nota: C1 Vol.: 47
Chanel 3 Note On - Duracao: 240840 Nota: C1 Vol.: 48
Chanel 1 Note Off - Duracao: 241440 Nota: C1 Vol.: 58
Chanel 1 Note On - Duracao: 241440 Nota: C1 Vol.: 57
Chanel 1 Note Off - Duracao: 242400 Nota: C1 Vol.: 57
Chanel 1 Note On - Duracao: 242400 Nota: C1 Vol.: 62
Chanel 1 Note Off - Duracao: 242880 Nota: C1 Vol.: 62
Chanel 1 Note On - Duracao: 242880 Nota: C1 Vol.: 68
Chanel 1 Note Off - Duracao: 243360 Nota: C1 Vol.: 68
Chanel 1 Note On - Duracao: 243360 Nota: C1 Vol.: 66
Chanel 2 Note Off - Duracao: 243480 Nota: C1 Vol.: 49
Chanel 2 Note On - Duracao: 243480 Nota: C1 Vol.: 56
Chanel 1 Note Off - Duracao: 243600 Nota: C1 Vol.: 66
Chanel 1 Note On - Duracao: 243600 Nota: C1 Vol.: 63
Chanel 1 Note Off - Duracao: 243720 Nota: C1 Vol.: 63
Chanel 1 Note On - Duracao: 243720 Nota: C1 Vol.: 62
Chanel 1 Note Off - Duracao: 243780 Nota: C1 Vol.: 62
Chanel 1 Note On - Duracao: 243780 Nota: C1 Vol.: 58
Chanel 1 Note Off - Duracao: 243900 Nota: C1 Vol.: 58
Chanel 1 Note On - Duracao: 243900 Nota: C1 Vol.: 58
Chanel 1 Note Off - Duracao: 244020 Nota: C1 Vol.: 58
Chanel 1 Note On - Duracao: 244020 Nota: C1 Vol.: 67
Chanel 1 Note Off - Duracao: 244080 Nota: C1 Vol.: 67
Chanel 1 Note On - Duracao: 244080 Nota: C1 Vol.: 65
Chanel 1 Note Off - Duracao: 244200 Nota: C1 Vol.: 65
Chanel 1 Note On - Duracao: 244200 Nota: C1 Vol.: 76
Chanel 1 Note Off - Duracao: 244320 Nota: C1 Vol.: 76
Chanel 1 Note On - Duracao: 244320 Nota: C1 Vol.: 72
Chanel 1 Note Off - Duracao: 244440 Nota: C1 Vol.: 72
Chanel 1 Note On - Duracao: 244440 Nota: C1 Vol.: 70
Chanel 1 Note Off - Duracao: 244680 Nota: C1 Vol.: 70
Chanel 1 Note On - Duracao: 244680 Nota: C1 Vol.: 67
Chanel 3 Note Off - Duracao: 244680 Nota: C1 Vol.: 48
Chanel 3 Note On - Duracao: 244680 Nota: C1 Vol.: 43
Chanel 1 Note Off - Duracao: 244920 Nota: C1 Vol.: 67
Chanel 1 Note On - Duracao: 244920 Nota: C1 Vol.: 63
Chanel 1 Note Off - Duracao: 245160 Nota: C1 Vol.: 63
Chanel 1 Note On - Duracao: 245160 Nota: C1 Vol.: 68
Chanel 1 Note Off - Duracao: 245400 Nota: C1 Vol.: 68
Chanel 1 Note On - Duracao: 245400 Nota: C1 Vol.: 68
Chanel 2 Note Off - Duracao: 245400 Nota: C1 Vol.: 56
Chanel 2 Note On - Duracao: 245400 Nota: C1 Vol.: 80
Chanel 1 Note Off - Duracao: 245640 Nota: C1 Vol.: 68
Chanel 1 Note On - Duracao: 245640 Nota: C1 Vol.: 54
Chanel 2 Note Off - Duracao: 245640 Nota: C1 Vol.: 80
Chanel 2 Note On - Duracao: 245640 Nota: C1 Vol.: 96
Chanel 2 Note Off - Duracao: 245700 Nota: C1 Vol.: 96
Chanel 2 Note On - Duracao: 245700 Nota: C1 Vol.: 72
Chanel 2 Note Off - Duracao: 245940 Nota: C1 Vol.: 72
Chanel 2 Note On - Duracao: 245940 Nota: C1 Vol.: 77
Chanel 1 Note Off - Duracao: 246120 Nota: C1 Vol.: 54
Chanel 1 Note On - Duracao: 246120 Nota: C1 Vol.: 65
Chanel 1 Note Off - Duracao: 246180 Nota: C1 Vol.: 65
Chanel 1 Note On - Duracao: 246180 Nota: C1 Vol.: 57
Chanel 2 Note Off - Duracao: 246180 Nota: C1 Vol.: 77
Chanel 2 Note On - Duracao: 246180 Nota: C1 Vol.: 85
Chanel 1 Note Off - Duracao: 246240 Nota: C1 Vol.: 57
Chanel 1 Note On - Duracao: 246240 Nota: C1 Vol.: 55
Chanel 1 Note Off - Duracao: 246300 Nota: C1 Vol.: 55
Chanel 1 Note On - Duracao: 246300 Nota: C1 Vol.: 61
Chanel 2 Note Off - Duracao: 246300 Nota: C1 Vol.: 85
Chanel 2 Note On - Duracao: 246300 Nota: C1 Vol.: 40
Chanel 1 Note Off - Duracao: 246360 Nota: C1 Vol.: 61
Chanel 1 Note On - Duracao: 246360 Nota: C1 Vol.: 60
Chanel 1 Note Off - Duracao: 246600 Nota: C1 Vol.: 60
Chanel 1 Note On - Duracao: 246600 Nota: C1 Vol.: 50
Chanel 1 Note Off - Duracao: 247560 Nota: C1 Vol.: 50
Chanel 1 Note On - Duracao: 247560 Nota: C1 Vol.: 48
Chanel 3 Note Off - Duracao: 248520 Nota: C1 Vol.: 43
Chanel 3 Note On - Duracao: 248520 Nota: C1 Vol.: 41
Chanel 1 Note Off - Duracao: 249480 Nota: C1 Vol.: 48
Chanel 1 Note On - Duracao: 249480 Nota: C1 Vol.: 51
Chanel 2 Note Off - Duracao: 250140 Nota: C1 Vol.: 40
Chanel 2 Note On - Duracao: 250140 Nota: C1 Vol.: 60
Chanel 2 Note Off - Duracao: 250620 Nota: C1 Vol.: 60
Chanel 2 Note On - Duracao: 250620 Nota: C1 Vol.: 43
Chanel 1 Note Off - Duracao: 251400 Nota: C1 Vol.: 51
Chanel 1 Note On - Duracao: 251400 Nota: C1 Vol.: 50
Chanel 3 Note Off - Duracao: 252360 Nota: C1 Vol.: 41
Chanel 3 Note On - Duracao: 252360 Nota: C1 Vol.: 57
Chanel 2 Note Off - Duracao: 252540 Nota: C1 Vol.: 43
Chanel 2 Note On - Duracao: 252540 Nota: C1 Vol.: 71
Chanel 2 Note Off - Duracao: 253020 Nota: C1 Vol.: 71
Chanel 2 Note On - Duracao: 253020 Nota: C1 Vol.: 89
Chanel 2 Note Off - Duracao: 253140 Nota: C1 Vol.: 89
Chanel 2 Note On - Duracao: 253140 Nota: C1 Vol.: 72
Chanel 1 Note Off - Duracao: 253320 Nota: C1 Vol.: 50
Chanel 1 Note On - Duracao: 253320 Nota: C1 Vol.: 50
Chanel 2 Note Off - Duracao: 253620 Nota: C1 Vol.: 72
Chanel 2 Note On - Duracao: 253620 Nota: C1 Vol.: 56
Chanel 2 Note Off - Duracao: 254580 Nota: C1 Vol.: 56
Chanel 2 Note On - Duracao: 254580 Nota: C1 Vol.: 87
Chanel 2 Note Off - Duracao: 254700 Nota: C1 Vol.: 87
Chanel 2 Note On - Duracao: 254700 Nota: C1 Vol.: 90
Chanel 2 Note Off - Duracao: 254820 Nota: C1 Vol.: 90
Chanel 2 Note On - Duracao: 254820 Nota: C1 Vol.: 84
Chanel 2 Note Off - Duracao: 254940 Nota: C1 Vol.: 84
Chanel 2 Note On - Duracao: 254940 Nota: C1 Vol.: 65
Chanel 1 Note Off - Duracao: 255240 Nota: C1 Vol.: 50
Chanel 1 Note On - Duracao: 255240 Nota: C1 Vol.: 51
Chanel 2 Note Off - Duracao: 255420 Nota: C1 Vol.: 65
Chanel 2 Note On - Duracao: 255420 Nota: C1 Vol.: 59
Chanel 2 Note Off - Duracao: 255900 Nota: C1 Vol.: 59
Chanel 2 Note On - Duracao: 255900 Nota: C1 Vol.: 64
Chanel 3 Note Off - Duracao: 256200 Nota: C1 Vol.: 57
Chanel 3 Note On - Duracao: 256200 Nota: C1 Vol.: 56
Chanel 2 Note Off - Duracao: 256380 Nota: C1 Vol.: 64
Chanel 2 Note On - Duracao: 256380 Nota: C1 Vol.: 52
Chanel 1 Note Off - Duracao: 257160 Nota: C1 Vol.: 51
Chanel 1 Note On - Duracao: 257160 Nota: C1 Vol.: 52
Chanel 2 Note Off - Duracao: 258300 Nota: C1 Vol.: 52
Chanel 2 Note On - Duracao: 258300 Nota: C1 Vol.: 52
Chanel 1 Note Off - Duracao: 259080 Nota: C1 Vol.: 52
Chanel 1 Note On - Duracao: 259080 Nota: C1 Vol.: 54
Chanel 3 Note Off - Duracao: 260040 Nota: C1 Vol.: 56
Chanel 3 Note On - Duracao: 260040 Nota: C1 Vol.: 58
Chanel 2 Note Off - Duracao: 260220 Nota: C1 Vol.: 52
Chanel 2 Note On - Duracao: 260220 Nota: C1 Vol.: 44
Chanel 1 Note Off - Duracao: 261000 Nota: C1 Vol.: 54
Chanel 1 Note On - Duracao: 261000 Nota: C1 Vol.: 54
Chanel 3 Note Off - Duracao: 261960 Nota: C1 Vol.: 58
Chanel 3 Note On - Duracao: 261960 Nota: C1 Vol.: 53
Chanel 1 Note Off - Duracao: 262920 Nota: C1 Vol.: 54
Chanel 1 Note On - Duracao: 262920 Nota: C1 Vol.: 49
Chanel 2 Note Off - Duracao: 264060 Nota: C1 Vol.: 44
Chanel 2 Note On - Duracao: 264060 Nota: C1 Vol.: 53
Chanel 1 Note Off - Duracao: 264840 Nota: C1 Vol.: 49
Chanel 1 Note On - Duracao: 264840 Nota: C1 Vol.: 49
Chanel 3 Note Off - Duracao: 265800 Nota: C1 Vol.: 53
Chanel 3 Note On - Duracao: 265800 Nota: C1 Vol.: 77
Chanel 2 Note Off - Duracao: 265980 Nota: C1 Vol.: 53
Chanel 2 Note On - Duracao: 265980 Nota: C1 Vol.: 62
Chanel 1 Note Off - Duracao: 266760 Nota: C1 Vol.: 49
Chanel 1 Note On - Duracao: 266760 Nota: C1 Vol.: 51
Chanel 3 Note Off - Duracao: 266760 Nota: C1 Vol.: 77
Chanel 3 Note On - Duracao: 266760 Nota: C1 Vol.: 59
Chanel 1 Note Off - Duracao: 267720 Nota: C1 Vol.: 51
Chanel 1 Note On - Duracao: 267720 Nota: C1 Vol.: 48
Chanel 2 Note Off - Duracao: 267900 Nota: C1 Vol.: 62
Chanel 2 Note On - Duracao: 267900 Nota: C1 Vol.: 88
Chanel 2 Note Off - Duracao: 268140 Nota: C1 Vol.: 88
Chanel 2 Note On - Duracao: 268140 Nota: C1 Vol.: 100
Chanel 2 Note Off - Duracao: 268200 Nota: C1 Vol.: 100
Chanel 2 Note On - Duracao: 268200 Nota: C1 Vol.: 95
Chanel 2 Note Off - Duracao: 268320 Nota: C1 Vol.: 95
Chanel 2 Note On - Duracao: 268320 Nota: C1 Vol.: 73
Chanel 1 Note Off - Duracao: 268680 Nota: C1 Vol.: 48
Chanel 1 Note On - Duracao: 268680 Nota: C1 Vol.: 47
Chanel 3 Note Off - Duracao: 268680 Nota: C1 Vol.: 59
Chanel 3 Note On - Duracao: 268680 Nota: C1 Vol.: 53
Chanel 2 Note Off - Duracao: 269280 Nota: C1 Vol.: 73
Chanel 2 Note On - Duracao: 269280 Nota: C1 Vol.: 80
Chanel 2 Note Off - Duracao: 269760 Nota: C1 Vol.: 80
Chanel 2 Note On - Duracao: 269760 Nota: C1 Vol.: 96
Chanel 2 Note Off - Duracao: 269880 Nota: C1 Vol.: 96
Chanel 2 Note On - Duracao: 269880 Nota: C1 Vol.: 100
Chanel 2 Note Off - Duracao: 269940 Nota: C1 Vol.: 100
Chanel 2 Note On - Duracao: 269940 Nota: C1 Vol.: 96
Chanel 2 Note Off - Duracao: 270060 Nota: C1 Vol.: 96
Chanel 2 Note On - Duracao: 270060 Nota: C1 Vol.: 80
Chanel 2 Note Off - Duracao: 270300 Nota: C1 Vol.: 80
Chanel 2 Note On - Duracao: 270300 Nota: C1 Vol.: 47
Chanel 1 Note Off - Duracao: 270600 Nota: C1 Vol.: 47
Chanel 1 Note On - Duracao: 270600 Nota: C1 Vol.: 45
Chanel 1 Note Off - Duracao: 272520 Nota: C1 Vol.: 45
Chanel 1 Note On - Duracao: 272520 Nota: C1 Vol.: 46
Chanel 3 Note Off - Duracao: 272520 Nota: C1 Vol.: 53
Chanel 3 Note On - Duracao: 272520 Nota: C1 Vol.: 56
Chanel 2 Note Off - Duracao: 274140 Nota: C1 Vol.: 47
Chanel 2 Note On - Duracao: 274140 Nota: C1 Vol.: 43
Chanel 1 Note Off - Duracao: 274440 Nota: C1 Vol.: 46
Chanel 1 Note On - Duracao: 274440 Nota: C1 Vol.: 50
Chanel 1 Note Off - Duracao: 275400 Nota: C1 Vol.: 50
Chanel 1 Note On - Duracao: 275400 Nota: C1 Vol.: 57
Chanel 1 Note Off - Duracao: 275640 Nota: C1 Vol.: 57
Chanel 1 Note On - Duracao: 275640 Nota: C1 Vol.: 53
Chanel 1 Note Off - Duracao: 276120 Nota: C1 Vol.: 53
Chanel 1 Note On - Duracao: 276120 Nota: C1 Vol.: 54
Chanel 3 Note Off - Duracao: 276360 Nota: C1 Vol.: 56
Chanel 3 Note On - Duracao: 276360 Nota: C1 Vol.: 54
Chanel 1 Note Off - Duracao: 276600 Nota: C1 Vol.: 54
Chanel 1 Note On - Duracao: 276600 Nota: C1 Vol.: 55
Chanel 1 Note Off - Duracao: 277560 Nota: C1 Vol.: 55
Chanel 1 Note On - Duracao: 277560 Nota: C1 Vol.: 48
Chanel 2 Note Off - Duracao: 277980 Nota: C1 Vol.: 43
Chanel 2 Note On - Duracao: 277980 Nota: C1 Vol.: 47
Chanel 1 Note Off - Duracao: 279480 Nota: C1 Vol.: 48
Chanel 1 Note On - Duracao: 279480 Nota: C1 Vol.: 54
Chanel 3 Note Off - Duracao: 280200 Nota: C1 Vol.: 54
Chanel 3 Note On - Duracao: 280200 Nota: C1 Vol.: 64
Chanel 1 Note Off - Duracao: 281400 Nota: C1 Vol.: 54
Chanel 1 Note On - Duracao: 281400 Nota: C1 Vol.: 59
Chanel 2 Note Off - Duracao: 281820 Nota: C1 Vol.: 47
Chanel 2 Note On - Duracao: 281820 Nota: C1 Vol.: 44
Chanel 3 Note Off - Duracao: 282120 Nota: C1 Vol.: 64
Chanel 3 Note On - Duracao: 282120 Nota: C1 Vol.: 88
Chanel 3 Note Off - Duracao: 282600 Nota: C1 Vol.: 88
Chanel 3 Note On - Duracao: 282600 Nota: C1 Vol.: 97
Chanel 3 Note Off - Duracao: 282840 Nota: C1 Vol.: 97
Chanel 3 Note On - Duracao: 282840 Nota: C1 Vol.: 100
Chanel 3 Note Off - Duracao: 282900 Nota: C1 Vol.: 100
Chanel 3 Note On - Duracao: 282900 Nota: C1 Vol.: 81
Chanel 3 Note Off - Duracao: 283140 Nota: C1 Vol.: 81
Chanel 3 Note On - Duracao: 283140 Nota: C1 Vol.: 52
Chanel 1 Note Off - Duracao: 283320 Nota: C1 Vol.: 59
Chanel 1 Note On - Duracao: 283320 Nota: C1 Vol.: 74
Chanel 1 Note Off - Duracao: 283800 Nota: C1 Vol.: 74
Chanel 1 Note On - Duracao: 283800 Nota: C1 Vol.: 89
Chanel 1 Note Off - Duracao: 283920 Nota: C1 Vol.: 89
Chanel 1 Note On - Duracao: 283920 Nota: C1 Vol.: 58
Chanel 1 Note Off - Duracao: 284880 Nota: C1 Vol.: 58
Chanel 1 Note On - Duracao: 284880 Nota: C1 Vol.: 60
Chanel 3 Note Off - Duracao: 285060 Nota: C1 Vol.: 52
Chanel 3 Note On - Duracao: 285060 Nota: C1 Vol.: 51
Chanel 2 Note Off - Duracao: 285660 Nota: C1 Vol.: 44
Chanel 2 Note On - Duracao: 285660 Nota: C1 Vol.: 46
Chanel 1 Note Off - Duracao: 285840 Nota: C1 Vol.: 60
Chanel 1 Note On - Duracao: 285840 Nota: C1 Vol.: 67
Chanel 1 Note Off - Duracao: 286320 Nota: C1 Vol.: 67
Chanel 1 Note On - Duracao: 286320 Nota: C1 Vol.: 70
Chanel 1 Note Off - Duracao: 286560 Nota: C1 Vol.: 70
Chanel 1 Note On - Duracao: 286560 Nota: C1 Vol.: 72
Chanel 1 Note Off - Duracao: 286680 Nota: C1 Vol.: 72
Chanel 1 Note On - Duracao: 286680 Nota: C1 Vol.: 61
Chanel 1 Note Off - Duracao: 286800 Nota: C1 Vol.: 61
Chanel 1 Note On - Duracao: 286800 Nota: C1 Vol.: 62
Chanel 1 Note Off - Duracao: 286860 Nota: C1 Vol.: 62
Chanel 1 Note On - Duracao: 286860 Nota: C1 Vol.: 60
Chanel 1 Note Off - Duracao: 286980 Nota: C1 Vol.: 60
Chanel 1 Note On - Duracao: 286980 Nota: C1 Vol.: 56
Chanel 3 Note Off - Duracao: 286980 Nota: C1 Vol.: 51
Chanel 3 Note On - Duracao: 286980 Nota: C1 Vol.: 47
Chanel 1 Note Off - Duracao: 287100 Nota: C1 Vol.: 56
Chanel 1 Note On - Duracao: 287100 Nota: C1 Vol.: 65
Chanel 1 Note Off - Duracao: 287160 Nota: C1 Vol.: 65
Chanel 1 Note On - Duracao: 287160 Nota: C1 Vol.: 59
Chanel 1 Note Off - Duracao: 287400 Nota: C1 Vol.: 59
Chanel 1 Note On - Duracao: 287400 Nota: C1 Vol.: 56
Chanel 1 Note Off - Duracao: 287880 Nota: C1 Vol.: 56
Chanel 1 Note On - Duracao: 287880 Nota: C1 Vol.: 66
Chanel 1 Note Off - Duracao: 288120 Nota: C1 Vol.: 66
Chanel 1 Note On - Duracao: 288120 Nota: C1 Vol.: 79
Chanel 1 Note Off - Duracao: 288240 Nota: C1 Vol.: 79
Chanel 1 Note On - Duracao: 288240 Nota: C1 Vol.: 84
Chanel 1 Note Off - Duracao: 288360 Nota: C1 Vol.: 84
Chanel 1 Note On - Duracao: 288360 Nota: C1 Vol.: 75
Chanel 1 Note Off - Duracao: 288600 Nota: C1 Vol.: 75
Chanel 1 Note On - Duracao: 288600 Nota: C1 Vol.: 80
Chanel 1 Note Off - Duracao: 288840 Nota: C1 Vol.: 80
Chanel 1 Note On - Duracao: 288840 Nota: C1 Vol.: 79
Chanel 1 Note Off - Duracao: 289080 Nota: C1 Vol.: 79
Chanel 1 Note On - Duracao: 289080 Nota: C1 Vol.: 59
Chanel 2 Note Off - Duracao: 289500 Nota: C1 Vol.: 46
Chanel 2 Note On - Duracao: 289500 Nota: C1 Vol.: 46
Chanel 1 Note Off - Duracao: 290040 Nota: C1 Vol.: 59
Chanel 1 Note On - Duracao: 290040 Nota: C1 Vol.: 64
Chanel 1 Note Off - Duracao: 290160 Nota: C1 Vol.: 64
Chanel 1 Note On - Duracao: 290160 Nota: C1 Vol.: 56
Chanel 1 Note Off - Duracao: 290220 Nota: C1 Vol.: 56
Chanel 1 Note On - Duracao: 290220 Nota: C1 Vol.: 49
Chanel 1 Note Off - Duracao: 290280 Nota: C1 Vol.: 49
Chanel 1 Note On - Duracao: 290280 Nota: C1 Vol.: 54
Chanel 1 Note Off - Duracao: 290340 Nota: C1 Vol.: 54
Chanel 1 Note On - Duracao: 290340 Nota: C1 Vol.: 58
Chanel 1 Note Off - Duracao: 290460 Nota: C1 Vol.: 58
Chanel 1 Note On - Duracao: 290460 Nota: C1 Vol.: 49
Chanel 3 Note Off - Duracao: 290820 Nota: C1 Vol.: 47
Chanel 3 Note On - Duracao: 290820 Nota: C1 Vol.: 42
Chanel 1 Note Off - Duracao: 290940 Nota: C1 Vol.: 49
Chanel 1 Note On - Duracao: 290940 Nota: C1 Vol.: 49
Chanel 1 Note Off - Duracao: 292860 Nota: C1 Vol.: 49
Chanel 1 Note On - Duracao: 292860 Nota: C1 Vol.: 52
Chanel 2 Note Off - Duracao: 293340 Nota: C1 Vol.: 46
Chanel 2 Note On - Duracao: 293340 Nota: C1 Vol.: 44
Chanel 3 Note Off - Duracao: 294660 Nota: C1 Vol.: 42
Chanel 3 Note On - Duracao: 294660 Nota: C1 Vol.: 47
Chanel 1 Note Off - Duracao: 294780 Nota: C1 Vol.: 52
Chanel 1 Note On - Duracao: 294780 Nota: C1 Vol.: 50
Chanel 3 Note Off - Duracao: 296580 Nota: C1 Vol.: 47
Chanel 3 Note On - Duracao: 296580 Nota: C1 Vol.: 48
Chanel 1 Note Off - Duracao: 296700 Nota: C1 Vol.: 50
Chanel 1 Note On - Duracao: 296700 Nota: C1 Vol.: 50
Chanel 2 Note Off - Duracao: 297180 Nota: C1 Vol.: 44
Chanel 2 Note On - Duracao: 297180 Nota: C1 Vol.: 44
Chanel 3 Note Off - Duracao: 298500 Nota: C1 Vol.: 48
Chanel 3 Note On - Duracao: 298500 Nota: C1 Vol.: 40
Chanel 1 Note Off - Duracao: 298620 Nota: C1 Vol.: 50
Chanel 1 Note On - Duracao: 298620 Nota: C1 Vol.: 50
Chanel 1 Note Off - Duracao: 300540 Nota: C1 Vol.: 50
Chanel 1 Note On - Duracao: 300540 Nota: C1 Vol.: 50
Chanel 2 Note Off - Duracao: 301020 Nota: C1 Vol.: 44
Chanel 2 Note On - Duracao: 301020 Nota: C1 Vol.: 70
Chanel 2 Note Off - Duracao: 301500 Nota: C1 Vol.: 70
Chanel 2 Note On - Duracao: 301500 Nota: C1 Vol.: 56
Chanel 3 Note Off - Duracao: 302340 Nota: C1 Vol.: 40
Chanel 3 Note On - Duracao: 302340 Nota: C1 Vol.: 40
Chanel 1 Note Off - Duracao: 302460 Nota: C1 Vol.: 50
Chanel 1 Note On - Duracao: 302460 Nota: C1 Vol.: 52
Chanel 2 Note Off - Duracao: 303420 Nota: C1 Vol.: 56
Chanel 2 Note On - Duracao: 303420 Nota: C1 Vol.: 79
Chanel 2 Note Off - Duracao: 303660 Nota: C1 Vol.: 79
Chanel 2 Note On - Duracao: 303660 Nota: C1 Vol.: 93
Chanel 2 Note Off - Duracao: 303780 Nota: C1 Vol.: 93
Chanel 2 Note On - Duracao: 303780 Nota: C1 Vol.: 91
Chanel 2 Note Off - Duracao: 303900 Nota: C1 Vol.: 91
Chanel 2 Note On - Duracao: 303900 Nota: C1 Vol.: 59
Chanel 1 Note Off - Duracao: 304380 Nota: C1 Vol.: 52
Chanel 1 Note On - Duracao: 304380 Nota: C1 Vol.: 52
Chanel 2 Note Off - Duracao: 304860 Nota: C1 Vol.: 59
Chanel 2 Note On - Duracao: 304860 Nota: C1 Vol.: 56
Chanel 3 Note Off - Duracao: 306180 Nota: C1 Vol.: 40
Chanel 3 Note On - Duracao: 306180 Nota: C1 Vol.: 56
Chanel 1 Note Off - Duracao: 306300 Nota: C1 Vol.: 52
Chanel 1 Note On - Duracao: 306300 Nota: C1 Vol.: 50
Chanel 2 Note Off - Duracao: 306780 Nota: C1 Vol.: 56
Chanel 2 Note On - Duracao: 306780 Nota: C1 Vol.: 52
Chanel 3 Note Off - Duracao: 307140 Nota: C1 Vol.: 56
Chanel 3 Note On - Duracao: 307140 Nota: C1 Vol.: 48
Chanel 1 Note Off - Duracao: 308220 Nota: C1 Vol.: 50
Chanel 1 Note On - Duracao: 308220 Nota: C1 Vol.: 52
Chanel 2 Note Off - Duracao: 308700 Nota: C1 Vol.: 52
Chanel 2 Note On - Duracao: 308700 Nota: C1 Vol.: 53
Chanel 3 Note Off - Duracao: 309060 Nota: C1 Vol.: 48
Chanel 3 Note On - Duracao: 309060 Nota: C1 Vol.: 52
Chanel 1 Note Off - Duracao: 310140 Nota: C1 Vol.: 52
Chanel 1 Note On - Duracao: 310140 Nota: C1 Vol.: 47
Chanel 2 Note Off - Duracao: 310620 Nota: C1 Vol.: 53
Chanel 2 Note On - Duracao: 310620 Nota: C1 Vol.: 51
Chanel 3 Note Off - Duracao: 310980 Nota: C1 Vol.: 52
Chanel 3 Note On - Duracao: 310980 Nota: C1 Vol.: 48
Chanel 1 Note Off - Duracao: 312060 Nota: C1 Vol.: 47
Chanel 1 Note On - Duracao: 312060 Nota: C1 Vol.: 47
Chanel 1 Note Off - Duracao: 313980 Nota: C1 Vol.: 47
Chanel 1 Note On - Duracao: 313980 Nota: C1 Vol.: 49
Chanel 2 Note Off - Duracao: 314460 Nota: C1 Vol.: 51
Chanel 2 Note On - Duracao: 314460 Nota: C1 Vol.: 70
Chanel 3 Note Off - Duracao: 314820 Nota: C1 Vol.: 48
Chanel 3 Note On - Duracao: 314820 Nota: C1 Vol.: 54
Chanel 2 Note Off - Duracao: 315420 Nota: C1 Vol.: 70
Chanel 2 Note On - Duracao: 315420 Nota: C1 Vol.: 98
Chanel 2 Note Off - Duracao: 315480 Nota: C1 Vol.: 98
Chanel 2 Note On - Duracao: 315480 Nota: C1 Vol.: 69
Chanel 1 Note Off - Duracao: 315900 Nota: C1 Vol.: 49
Chanel 1 Note On - Duracao: 315900 Nota: C1 Vol.: 45
Chanel 2 Note Off - Duracao: 315960 Nota: C1 Vol.: 69
Chanel 2 Note On - Duracao: 315960 Nota: C1 Vol.: 62
Chanel 2 Note Off - Duracao: 316440 Nota: C1 Vol.: 62
Chanel 2 Note On - Duracao: 316440 Nota: C1 Vol.: 75
Chanel 2 Note Off - Duracao: 316680 Nota: C1 Vol.: 75
Chanel 2 Note On - Duracao: 316680 Nota: C1 Vol.: 41
Chanel 1 Note Off - Duracao: 317820 Nota: C1 Vol.: 45
Chanel 1 Note On - Duracao: 317820 Nota: C1 Vol.: 44
Chanel 2 Note Off - Duracao: 318600 Nota: C1 Vol.: 41
Chanel 2 Note On - Duracao: 318600 Nota: C1 Vol.: 46
Chanel 3 Note Off - Duracao: 318660 Nota: C1 Vol.: 54
Chanel 3 Note On - Duracao: 318660 Nota: C1 Vol.: 65
Chanel 1 Note Off - Duracao: 319740 Nota: C1 Vol.: 44
Chanel 1 Note On - Duracao: 319740 Nota: C1 Vol.: 51
Chanel 2 Note Off - Duracao: 320520 Nota: C1 Vol.: 46
Chanel 2 Note On - Duracao: 320520 Nota: C1 Vol.: 49
Chanel 3 Note Off - Duracao: 320580 Nota: C1 Vol.: 65
Chanel 3 Note On - Duracao: 320580 Nota: C1 Vol.: 77
Chanel 1 Note Off - Duracao: 320700 Nota: C1 Vol.: 51
Chanel 1 Note On - Duracao: 320700 Nota: C1 Vol.: 55
Chanel 3 Note Off - Duracao: 321060 Nota: C1 Vol.: 77
Chanel 3 Note On - Duracao: 321060 Nota: C1 Vol.: 91
Chanel 1 Note Off - Duracao: 321180 Nota: C1 Vol.: 55
Chanel 1 Note On - Duracao: 321180 Nota: C1 Vol.: 59
Chanel 3 Note Off - Duracao: 321300 Nota: C1 Vol.: 91
Chanel 3 Note On - Duracao: 321300 Nota: C1 Vol.: 98
Chanel 3 Note Off - Duracao: 321420 Nota: C1 Vol.: 98
Chanel 3 Note On - Duracao: 321420 Nota: C1 Vol.: 94
Chanel 3 Note Off - Duracao: 321540 Nota: C1 Vol.: 94
Chanel 3 Note On - Duracao: 321540 Nota: C1 Vol.: 58
Chanel 1 Note Off - Duracao: 321660 Nota: C1 Vol.: 59
Chanel 1 Note On - Duracao: 321660 Nota: C1 Vol.: 46
Chanel 2 Note Off - Duracao: 322440 Nota: C1 Vol.: 49
Chanel 2 Note On - Duracao: 322440 Nota: C1 Vol.: 84
Chanel 1 Note Off - Duracao: 322620 Nota: C1 Vol.: 46
Chanel 1 Note On - Duracao: 322620 Nota: C1 Vol.: 48
Chanel 2 Note Off - Duracao: 322680 Nota: C1 Vol.: 84
Chanel 2 Note On - Duracao: 322680 Nota: C1 Vol.: 95
Chanel 2 Note Off - Duracao: 322800 Nota: C1 Vol.: 95
Chanel 2 Note On - Duracao: 322800 Nota: C1 Vol.: 83
Chanel 2 Note Off - Duracao: 323040 Nota: C1 Vol.: 83
Chanel 2 Note On - Duracao: 323040 Nota: C1 Vol.: 62
Chanel 3 Note Off - Duracao: 323460 Nota: C1 Vol.: 58
Chanel 3 Note On - Duracao: 323460 Nota: C1 Vol.: 48
Chanel 1 Note Off - Duracao: 323580 Nota: C1 Vol.: 48
Chanel 1 Note On - Duracao: 323580 Nota: C1 Vol.: 52
Chanel 2 Note Off - Duracao: 324000 Nota: C1 Vol.: 62
Chanel 2 Note On - Duracao: 324000 Nota: C1 Vol.: 82
Chanel 2 Note Off - Duracao: 324240 Nota: C1 Vol.: 82
Chanel 2 Note On - Duracao: 324240 Nota: C1 Vol.: 93
Chanel 2 Note Off - Duracao: 324360 Nota: C1 Vol.: 93
Chanel 2 Note On - Duracao: 324360 Nota: C1 Vol.: 93
Chanel 2 Note Off - Duracao: 324480 Nota: C1 Vol.: 93
Chanel 2 Note On - Duracao: 324480 Nota: C1 Vol.: 72
Chanel 2 Note Off - Duracao: 324720 Nota: C1 Vol.: 72
Chanel 2 Note On - Duracao: 324720 Nota: C1 Vol.: 72
Chanel 2 Note Off - Duracao: 324960 Nota: C1 Vol.: 72
Chanel 2 Note On - Duracao: 324960 Nota: C1 Vol.: 64
Chanel 2 Note Off - Duracao: 325440 Nota: C1 Vol.: 64
Chanel 2 Note On - Duracao: 325440 Nota: C1 Vol.: 53
Chanel 1 Note Off - Duracao: 325500 Nota: C1 Vol.: 52
Chanel 1 Note On - Duracao: 325500 Nota: C1 Vol.: 54
Chanel 3 Note Off - Duracao: 327300 Nota: C1 Vol.: 48
Chanel 3 Note On - Duracao: 327300 Nota: C1 Vol.: 44
Chanel 2 Note Off - Duracao: 327360 Nota: C1 Vol.: 53
Chanel 2 Note On - Duracao: 327360 Nota: C1 Vol.: 43
Chanel 1 Note Off - Duracao: 327420 Nota: C1 Vol.: 54
Chanel 1 Note On - Duracao: 327420 Nota: C1 Vol.: 73
Chanel 1 Note Off - Duracao: 327900 Nota: C1 Vol.: 73
Chanel 1 Note On - Duracao: 327900 Nota: C1 Vol.: 63
Chanel 1 Note Off - Duracao: 328860 Nota: C1 Vol.: 63
Chanel 1 Note On - Duracao: 328860 Nota: C1 Vol.: 68
Chanel 1 Note Off - Duracao: 329340 Nota: C1 Vol.: 68
Chanel 1 Note On - Duracao: 329340 Nota: C1 Vol.: 58
Chanel 1 Note Off - Duracao: 330300 Nota: C1 Vol.: 58
Chanel 1 Note On - Duracao: 330300 Nota: C1 Vol.: 79
Chanel 1 Note Off - Duracao: 330540 Nota: C1 Vol.: 79
Chanel 1 Note On - Duracao: 330540 Nota: C1 Vol.: 76
Chanel 1 Note Off - Duracao: 330780 Nota: C1 Vol.: 76
Chanel 1 Note On - Duracao: 330780 Nota: C1 Vol.: 78
Chanel 1 Note Off - Duracao: 331020 Nota: C1 Vol.: 78
Chanel 1 Note On - Duracao: 331020 Nota: C1 Vol.: 73
Chanel 1 Note Off - Duracao: 331140 Nota: C1 Vol.: 73
Chanel 1 Note On - Duracao: 331140 Nota: C1 Vol.: 64
Chanel 3 Note Off - Duracao: 331140 Nota: C1 Vol.: 44
Chanel 3 Note On - Duracao: 331140 Nota: C1 Vol.: 44
Chanel 2 Note Off - Duracao: 331200 Nota: C1 Vol.: 43
Chanel 2 Note On - Duracao: 331200 Nota: C1 Vol.: 44
Chanel 1 Note Off - Duracao: 331260 Nota: C1 Vol.: 64
Chanel 1 Note On - Duracao: 331260 Nota: C1 Vol.: 61
Chanel 1 Note Off - Duracao: 331320 Nota: C1 Vol.: 61
Chanel 1 Note On - Duracao: 331320 Nota: C1 Vol.: 59
Chanel 1 Note Off - Duracao: 331440 Nota: C1 Vol.: 59
Chanel 1 Note On - Duracao: 331440 Nota: C1 Vol.: 49
Chanel 1 Note Off - Duracao: 331680 Nota: C1 Vol.: 49
Chanel 1 Note On - Duracao: 331680 Nota: C1 Vol.: 61
Chanel 1 Note Off - Duracao: 331800 Nota: C1 Vol.: 61
Chanel 1 Note On - Duracao: 331800 Nota: C1 Vol.: 56
Chanel 1 Note Off - Duracao: 332040 Nota: C1 Vol.: 56
Chanel 1 Note On - Duracao: 332040 Nota: C1 Vol.: 59
Chanel 1 Note Off - Duracao: 332520 Nota: C1 Vol.: 59
Chanel 1 Note On - Duracao: 332520 Nota: C1 Vol.: 64
Chanel 1 Note Off - Duracao: 333000 Nota: C1 Vol.: 64
Chanel 1 Note On - Duracao: 333000 Nota: C1 Vol.: 73
Chanel 1 Note Off - Duracao: 333240 Nota: C1 Vol.: 73
Chanel 1 Note On - Duracao: 333240 Nota: C1 Vol.: 97
Chanel 1 Note Off - Duracao: 333300 Nota: C1 Vol.: 97
Chanel 1 Note On - Duracao: 333300 Nota: C1 Vol.: 86
Chanel 1 Note Off - Duracao: 333420 Nota: C1 Vol.: 86
Chanel 1 Note On - Duracao: 333420 Nota: C1 Vol.: 79
Chanel 1 Note Off - Duracao: 333660 Nota: C1 Vol.: 79
Chanel 1 Note On - Duracao: 333660 Nota: C1 Vol.: 93
Chanel 1 Note Off - Duracao: 333900 Nota: C1 Vol.: 93
Chanel 1 Note On - Duracao: 333900 Nota: C1 Vol.: 61
Chanel 1 Note Off - Duracao: 334860 Nota: C1 Vol.: 61
Chanel 1 Note On - Duracao: 334860 Nota: C1 Vol.: 64
Chanel 1 Note Off - Duracao: 334980 Nota: C1 Vol.: 64
Chanel 1 Note On - Duracao: 334980 Nota: C1 Vol.: 56
Chanel 3 Note Off - Duracao: 334980 Nota: C1 Vol.: 44
Chanel 3 Note On - Duracao: 334980 Nota: C1 Vol.: 47
Chanel 1 Note Off - Duracao: 335040 Nota: C1 Vol.: 56
Chanel 1 Note On - Duracao: 335040 Nota: C1 Vol.: 50
Chanel 2 Note Off - Duracao: 335040 Nota: C1 Vol.: 44
Chanel 2 Note On - Duracao: 335040 Nota: C1 Vol.: 52
Chanel 1 Note Off - Duracao: 335100 Nota: C1 Vol.: 50
Chanel 1 Note On - Duracao: 335100 Nota: C1 Vol.: 49
Chanel 1 Note Off - Duracao: 335220 Nota: C1 Vol.: 49
Chanel 1 Note On - Duracao: 335220 Nota: C1 Vol.: 57
Chanel 1 Note Off - Duracao: 335340 Nota: C1 Vol.: 57
Chanel 1 Note On - Duracao: 335340 Nota: C1 Vol.: 49
Chanel 1 Note Off - Duracao: 335820 Nota: C1 Vol.: 49
Chanel 1 Note On - Duracao: 335820 Nota: C1 Vol.: 50
Chanel 2 Note Off - Duracao: 336960 Nota: C1 Vol.: 52
Chanel 2 Note On - Duracao: 336960 Nota: C1 Vol.: 60
Chanel 1 Note Off - Duracao: 337740 Nota: C1 Vol.: 50
Chanel 1 Note On - Duracao: 337740 Nota: C1 Vol.: 53
Chanel 3 Note Off - Duracao: 338820 Nota: C1 Vol.: 47
Chanel 3 Note On - Duracao: 338820 Nota: C1 Vol.: 44
Chanel 2 Note Off - Duracao: 338880 Nota: C1 Vol.: 60
Chanel 2 Note On - Duracao: 338880 Nota: C1 Vol.: 81
Chanel 2 Note Off - Duracao: 339360 Nota: C1 Vol.: 81
Chanel 2 Note On - Duracao: 339360 Nota: C1 Vol.: 100
Chanel 2 Note Off - Duracao: 339480 Nota: C1 Vol.: 100
Chanel 2 Note On - Duracao: 339480 Nota: C1 Vol.: 100
Chanel 2 Note Off - Duracao: 339600 Nota: C1 Vol.: 100
Chanel 2 Note On - Duracao: 339600 Nota: C1 Vol.: 91
Chanel 1 Note Off - Duracao: 339660 Nota: C1 Vol.: 53
Chanel 1 Note On - Duracao: 339660 Nota: C1 Vol.: 50
Chanel 2 Note Off - Duracao: 339840 Nota: C1 Vol.: 91
Chanel 2 Note On - Duracao: 339840 Nota: C1 Vol.: 61
Chanel 1 Note Off - Duracao: 341580 Nota: C1 Vol.: 50
Chanel 1 Note On - Duracao: 341580 Nota: C1 Vol.: 51
Chanel 2 Note Off - Duracao: 341760 Nota: C1 Vol.: 61
Chanel 2 Note On - Duracao: 341760 Nota: C1 Vol.: 69
Chanel 3 Note Off - Duracao: 342660 Nota: C1 Vol.: 44
Chanel 3 Note On - Duracao: 342660 Nota: C1 Vol.: 43
Chanel 2 Note Off - Duracao: 342720 Nota: C1 Vol.: 69
Chanel 2 Note On - Duracao: 342720 Nota: C1 Vol.: 90
Chanel 2 Note Off - Duracao: 342960 Nota: C1 Vol.: 90
Chanel 2 Note On - Duracao: 342960 Nota: C1 Vol.: 100
Chanel 2 Note Off - Duracao: 343080 Nota: C1 Vol.: 100
Chanel 2 Note On - Duracao: 343080 Nota: C1 Vol.: 95
Chanel 2 Note Off - Duracao: 343200 Nota: C1 Vol.: 95
Chanel 2 Note On - Duracao: 343200 Nota: C1 Vol.: 84
Chanel 2 Note Off - Duracao: 343440 Nota: C1 Vol.: 84
Chanel 2 Note On - Duracao: 343440 Nota: C1 Vol.: 52
Chanel 1 Note Off - Duracao: 343500 Nota: C1 Vol.: 51
Chanel 1 Note On - Duracao: 343500 Nota: C1 Vol.: 51
Chanel 1 Note Off - Duracao: 344460 Nota: C1 Vol.: 51
Chanel 1 Note On - Duracao: 344460 Nota: C1 Vol.: 51
Chanel 2 Note Off - Duracao: 345360 Nota: C1 Vol.: 52
Chanel 2 Note On - Duracao: 345360 Nota: C1 Vol.: 43
Chanel 1 Note Off - Duracao: 346380 Nota: C1 Vol.: 51
Chanel 1 Note On - Duracao: 346380 Nota: C1 Vol.: 51
Chanel 3 Note Off - Duracao: 346500 Nota: C1 Vol.: 43
Chanel 3 Note On - Duracao: 346500 Nota: C1 Vol.: 46
Chanel 1 Note Off - Duracao: 348300 Nota: C1 Vol.: 51
Chanel 1 Note On - Duracao: 348300 Nota: C1 Vol.: 50
Chanel 2 Note Off - Duracao: 349200 Nota: C1 Vol.: 43
Chanel 2 Note On - Duracao: 349200 Nota: C1 Vol.: 43
Chanel 1 Note Off - Duracao: 350220 Nota: C1 Vol.: 50
Chanel 1 Note On - Duracao: 350220 Nota: C1 Vol.: 52
Chanel 3 Note Off - Duracao: 350340 Nota: C1 Vol.: 46
Chanel 3 Note On - Duracao: 350340 Nota: C1 Vol.: 45
Chanel 1 Note Off - Duracao: 352140 Nota: C1 Vol.: 52
Chanel 1 Note On - Duracao: 352140 Nota: C1 Vol.: 50
Chanel 2 Note Off - Duracao: 353040 Nota: C1 Vol.: 43
Chanel 2 Note On - Duracao: 353040 Nota: C1 Vol.: 45
Chanel 1 Note Off - Duracao: 354060 Nota: C1 Vol.: 50
Chanel 1 Note On - Duracao: 354060 Nota: C1 Vol.: 44
Chanel 3 Note Off - Duracao: 354180 Nota: C1 Vol.: 45
Chanel 3 Note On - Duracao: 354180 Nota: C1 Vol.: 42
Chanel 1 Note Off - Duracao: 355980 Nota: C1 Vol.: 44
Chanel 1 Note On - Duracao: 355980 Nota: C1 Vol.: 43
Chanel 2 Note Off - Duracao: 356880 Nota: C1 Vol.: 45
Chanel 2 Note On - Duracao: 356880 Nota: C1 Vol.: 40
Chanel 1 Note Off - Duracao: 357900 Nota: C1 Vol.: 43
Chanel 1 Note On - Duracao: 357900 Nota: C1 Vol.: 51
Chanel 3 Note Off - Duracao: 358020 Nota: C1 Vol.: 42
Chanel 3 Note On - Duracao: 358020 Nota: C1 Vol.: 40
Chanel 1 Note Off - Duracao: 358860 Nota: C1 Vol.: 51
Chanel 1 Note On - Duracao: 358860 Nota: C1 Vol.: 47
Chanel 2 Note Off - Duracao: 360720 Nota: C1 Vol.: 40
Chanel 2 Note On - Duracao: 360720 Nota: C1 Vol.: 43
Chanel 1 Note Off - Duracao: 360780 Nota: C1 Vol.: 47
Chanel 1 Note On - Duracao: 360780 Nota: C1 Vol.: 48
Chanel 1 Note Off - Duracao: 361740 Nota: C1 Vol.: 48
Chanel 1 Note On - Duracao: 361740 Nota: C1 Vol.: 54
Chanel 3 Note Off - Duracao: 361860 Nota: C1 Vol.: 40
Chanel 3 Note On - Duracao: 361860 Nota: C1 Vol.: 40
Chanel 1 Note Off - Duracao: 362220 Nota: C1 Vol.: 54
Chanel 1 Note On - Duracao: 362220 Nota: C1 Vol.: 56
Chanel 1 Note Off - Duracao: 363180 Nota: C1 Vol.: 56
Chanel 1 Note On - Duracao: 363180 Nota: C1 Vol.: 60
Chanel 1 Note Off - Duracao: 363660 Nota: C1 Vol.: 60
Chanel 1 Note On - Duracao: 363660 Nota: C1 Vol.: 52
Chanel 2 Note Off - Duracao: 364560 Nota: C1 Vol.: 43
Chanel 2 Note On - Duracao: 364560 Nota: C1 Vol.: 43
Chanel 1 Note Off - Duracao: 364620 Nota: C1 Vol.: 52
Chanel 1 Note On - Duracao: 364620 Nota: C1 Vol.: 52
Chanel 1 Note Off - Duracao: 365580 Nota: C1 Vol.: 52
Chanel 1 Note On - Duracao: 365580 Nota: C1 Vol.: 64
Chanel 3 Note Off - Duracao: 365700 Nota: C1 Vol.: 40
Chanel 3 Note On - Duracao: 365700 Nota: C1 Vol.: 40
Chanel 1 Note Off - Duracao: 366540 Nota: C1 Vol.: 64
Chanel 1 Note On - Duracao: 366540 Nota: C1 Vol.: 72
Chanel 1 Note Off - Duracao: 367020 Nota: C1 Vol.: 72
Chanel 1 Note On - Duracao: 367020 Nota: C1 Vol.: 70
Chanel 1 Note Off - Duracao: 367980 Nota: C1 Vol.: 70
Chanel 1 Note On - Duracao: 367980 Nota: C1 Vol.: 70
Chanel 2 Note Off - Duracao: 368400 Nota: C1 Vol.: 43
Chanel 2 Note On - Duracao: 368400 Nota: C1 Vol.: 64
Chanel 1 Note Off - Duracao: 368940 Nota: C1 Vol.: 70
Chanel 1 Note On - Duracao: 368940 Nota: C1 Vol.: 57
Chanel 2 Note Off - Duracao: 369360 Nota: C1 Vol.: 64
Chanel 2 Note On - Duracao: 369360 Nota: C1 Vol.: 56
Chanel 3 Note Off - Duracao: 369540 Nota: C1 Vol.: 40
Chanel 3 Note On - Duracao: 369540 Nota: C1 Vol.: 43
Chanel 1 Note Off - Duracao: 370860 Nota: C1 Vol.: 57
Chanel 1 Note On - Duracao: 370860 Nota: C1 Vol.: 55
Chanel 2 Note Off - Duracao: 371280 Nota: C1 Vol.: 56
Chanel 2 Note On - Duracao: 371280 Nota: C1 Vol.: 62
Chanel 1 Note Off - Duracao: 372780 Nota: C1 Vol.: 55
Chanel 1 Note On - Duracao: 372780 Nota: C1 Vol.: 68
Chanel 2 Note Off - Duracao: 373200 Nota: C1 Vol.: 62
Chanel 2 Note On - Duracao: 373200 Nota: C1 Vol.: 81
Chanel 3 Note Off - Duracao: 373380 Nota: C1 Vol.: 43
Chanel 3 Note On - Duracao: 373380 Nota: C1 Vol.: 47
Chanel 2 Note Off - Duracao: 373680 Nota: C1 Vol.: 81
Chanel 2 Note On - Duracao: 373680 Nota: C1 Vol.: 72
Chanel 1 Note Off - Duracao: 373740 Nota: C1 Vol.: 68
Chanel 1 Note On - Duracao: 373740 Nota: C1 Vol.: 83
Chanel 1 Note Off - Duracao: 373980 Nota: C1 Vol.: 83
Chanel 1 Note On - Duracao: 373980 Nota: C1 Vol.: 78
Chanel 2 Note Off - Duracao: 374160 Nota: C1 Vol.: 72
Chanel 2 Note On - Duracao: 374160 Nota: C1 Vol.: 47
Chanel 1 Note Off - Duracao: 374220 Nota: C1 Vol.: 78
Chanel 1 Note On - Duracao: 374220 Nota: C1 Vol.: 76
Chanel 1 Note Off - Duracao: 374340 Nota: C1 Vol.: 76
Chanel 1 Note On - Duracao: 374340 Nota: C1 Vol.: 64
Chanel 1 Note Off - Duracao: 374460 Nota: C1 Vol.: 64
Chanel 1 Note On - Duracao: 374460 Nota: C1 Vol.: 61
Chanel 1 Note Off - Duracao: 374520 Nota: C1 Vol.: 61
Chanel 1 Note On - Duracao: 374520 Nota: C1 Vol.: 56
Chanel 1 Note Off - Duracao: 374640 Nota: C1 Vol.: 56
Chanel 1 Note On - Duracao: 374640 Nota: C1 Vol.: 58
Chanel 1 Note Off - Duracao: 374760 Nota: C1 Vol.: 58
Chanel 1 Note On - Duracao: 374760 Nota: C1 Vol.: 48
Chanel 1 Note Off - Duracao: 375240 Nota: C1 Vol.: 48
Chanel 1 Note On - Duracao: 375240 Nota: C1 Vol.: 57
Chanel 1 Note Off - Duracao: 375720 Nota: C1 Vol.: 57
Chanel 1 Note On - Duracao: 375720 Nota: C1 Vol.: 57
Chanel 2 Note Off - Duracao: 376080 Nota: C1 Vol.: 47
Chanel 2 Note On - Duracao: 376080 Nota: C1 Vol.: 48
Chanel 1 Note Off - Duracao: 376680 Nota: C1 Vol.: 57
Chanel 1 Note On - Duracao: 376680 Nota: C1 Vol.: 67
Chanel 1 Note Off - Duracao: 377160 Nota: C1 Vol.: 67
Chanel 1 Note On - Duracao: 377160 Nota: C1 Vol.: 90
Chanel 3 Note Off - Duracao: 377220 Nota: C1 Vol.: 47
Chanel 3 Note On - Duracao: 377220 Nota: C1 Vol.: 48
Chanel 1 Note Off - Duracao: 377280 Nota: C1 Vol.: 90
Chanel 1 Note On - Duracao: 377280 Nota: C1 Vol.: 87
Chanel 1 Note Off - Duracao: 377400 Nota: C1 Vol.: 87
Chanel 1 Note On - Duracao: 377400 Nota: C1 Vol.: 91
Chanel 1 Note Off - Duracao: 377520 Nota: C1 Vol.: 91
Chanel 1 Note On - Duracao: 377520 Nota: C1 Vol.: 80
Chanel 1 Note Off - Duracao: 377760 Nota: C1 Vol.: 80
Chanel 1 Note On - Duracao: 377760 Nota: C1 Vol.: 86
Chanel 1 Note Off - Duracao: 378000 Nota: C1 Vol.: 86
Chanel 1 Note On - Duracao: 378000 Nota: C1 Vol.: 66
Chanel 2 Note Off - Duracao: 378000 Nota: C1 Vol.: 48
Chanel 2 Note On - Duracao: 378000 Nota: C1 Vol.: 55
Chanel 1 Note Off - Duracao: 378480 Nota: C1 Vol.: 66
Chanel 1 Note On - Duracao: 378480 Nota: C1 Vol.: 47
Chanel 1 Note Off - Duracao: 378960 Nota: C1 Vol.: 47
Chanel 1 Note On - Duracao: 378960 Nota: C1 Vol.: 55
Chanel 1 Note Off - Duracao: 379080 Nota: C1 Vol.: 55
Chanel 1 Note On - Duracao: 379080 Nota: C1 Vol.: 56
Chanel 1 Note Off - Duracao: 379140 Nota: C1 Vol.: 56
Chanel 1 Note On - Duracao: 379140 Nota: C1 Vol.: 51
Chanel 1 Note Off - Duracao: 379260 Nota: C1 Vol.: 51
Chanel 1 Note On - Duracao: 379260 Nota: C1 Vol.: 59
Chanel 1 Note Off - Duracao: 379380 Nota: C1 Vol.: 59
Chanel 1 Note On - Duracao: 379380 Nota: C1 Vol.: 49
Chanel 1 Note Off - Duracao: 379860 Nota: C1 Vol.: 49
Chanel 1 Note On - Duracao: 379860 Nota: C1 Vol.: 45
Chanel 2 Note Off - Duracao: 379920 Nota: C1 Vol.: 55
Chanel 2 Note On - Duracao: 379920 Nota: C1 Vol.: 53
Chanel 3 Note Off - Duracao: 381060 Nota: C1 Vol.: 48
Chanel 3 Note On - Duracao: 381060 Nota: C1 Vol.: 43
Chanel 1 Note Off - Duracao: 381780 Nota: C1 Vol.: 45
Chanel 1 Note On - Duracao: 381780 Nota: C1 Vol.: 53
Chanel 1 Note Off - Duracao: 383700 Nota: C1 Vol.: 53
Chanel 1 Note On - Duracao: 383700 Nota: C1 Vol.: 52
Chanel 2 Note Off - Duracao: 383760 Nota: C1 Vol.: 53
Chanel 2 Note On - Duracao: 383760 Nota: C1 Vol.: 52
Chanel 3 Note Off - Duracao: 384900 Nota: C1 Vol.: 43
Chanel 3 Note On - Duracao: 384900 Nota: C1 Vol.: 41
Chanel 1 Note Off - Duracao: 385620 Nota: C1 Vol.: 52
Chanel 1 Note On - Duracao: 385620 Nota: C1 Vol.: 50
Chanel 1 Note Off - Duracao: 387540 Nota: C1 Vol.: 50
Chanel 1 Note On - Duracao: 387540 Nota: C1 Vol.: 57
Chanel 2 Note Off - Duracao: 387600 Nota: C1 Vol.: 52
Chanel 2 Note On - Duracao: 387600 Nota: C1 Vol.: 59
Chanel 1 Note Off - Duracao: 388500 Nota: C1 Vol.: 57
Chanel 1 Note On - Duracao: 388500 Nota: C1 Vol.: 55
Chanel 3 Note Off - Duracao: 388740 Nota: C1 Vol.: 41
Chanel 3 Note On - Duracao: 388740 Nota: C1 Vol.: 57
Chanel 1 Note Off - Duracao: 389460 Nota: C1 Vol.: 55
Chanel 1 Note On - Duracao: 389460 Nota: C1 Vol.: 71
Chanel 2 Note Off - Duracao: 389520 Nota: C1 Vol.: 59
Chanel 2 Note On - Duracao: 389520 Nota: C1 Vol.: 86
Chanel 2 Note Off - Duracao: 389640 Nota: C1 Vol.: 86
Chanel 2 Note On - Duracao: 389640 Nota: C1 Vol.: 87
Chanel 2 Note Off - Duracao: 389760 Nota: C1 Vol.: 87
Chanel 2 Note On - Duracao: 389760 Nota: C1 Vol.: 66
Chanel 1 Note Off - Duracao: 389940 Nota: C1 Vol.: 71
Chanel 1 Note On - Duracao: 389940 Nota: C1 Vol.: 68
Chanel 2 Note Off - Duracao: 390240 Nota: C1 Vol.: 66
Chanel 2 Note On - Duracao: 390240 Nota: C1 Vol.: 60
Chanel 1 Note Off - Duracao: 390420 Nota: C1 Vol.: 68
Chanel 1 Note On - Duracao: 390420 Nota: C1 Vol.: 51
Chanel 2 Note Off - Duracao: 390720 Nota: C1 Vol.: 60
Chanel 2 Note On - Duracao: 390720 Nota: C1 Vol.: 40
Chanel 1 Note Off - Duracao: 392340 Nota: C1 Vol.: 51
Chanel 1 Note On - Duracao: 392340 Nota: C1 Vol.: 51
Chanel 3 Note Off - Duracao: 392580 Nota: C1 Vol.: 57
Chanel 3 Note On - Duracao: 392580 Nota: C1 Vol.: 52
Chanel 1 Note Off - Duracao: 394260 Nota: C1 Vol.: 51
Chanel 1 Note On - Duracao: 394260 Nota: C1 Vol.: 45
Chanel 2 Note Off - Duracao: 394560 Nota: C1 Vol.: 40
Chanel 2 Note On - Duracao: 394560 Nota: C1 Vol.: 48
Chanel 1 Note Off - Duracao: 396180 Nota: C1 Vol.: 45
Chanel 1 Note On - Duracao: 396180 Nota: C1 Vol.: 43
Chanel 3 Note Off - Duracao: 396420 Nota: C1 Vol.: 52
Chanel 3 Note On - Duracao: 396420 Nota: C1 Vol.: 52
Chanel 2 Note Off - Duracao: 396480 Nota: C1 Vol.: 48
Chanel 2 Note On - Duracao: 396480 Nota: C1 Vol.: 51
Chanel 1 Note Off - Duracao: 398100 Nota: C1 Vol.: 43
Chanel 1 Note On - Duracao: 398100 Nota: C1 Vol.: 41
Chanel 2 Note Off - Duracao: 398400 Nota: C1 Vol.: 51
Chanel 2 Note On - Duracao: 398400 Nota: C1 Vol.: 86
Chanel 2 Note Off - Duracao: 398640 Nota: C1 Vol.: 86
Chanel 2 Note On - Duracao: 398640 Nota: C1 Vol.: 96
Chanel 2 Note Off - Duracao: 398760 Nota: C1 Vol.: 96
Chanel 2 Note On - Duracao: 398760 Nota: C1 Vol.: 93
Chanel 2 Note Off - Duracao: 398880 Nota: C1 Vol.: 93
Chanel 2 Note On - Duracao: 398880 Nota: C1 Vol.: 68
Chanel 2 Note Off - Duracao: 399360 Nota: C1 Vol.: 68
Chanel 2 Note On - Duracao: 399360 Nota: C1 Vol.: 66
Chanel 2 Note Off - Duracao: 399840 Nota: C1 Vol.: 66
Chanel 2 Note On - Duracao: 399840 Nota: C1 Vol.: 85
Chanel 1 Note Off - Duracao: 400020 Nota: C1 Vol.: 41
Chanel 1 Note On - Duracao: 400020 Nota: C1 Vol.: 55
Chanel 2 Note Off - Duracao: 400080 Nota: C1 Vol.: 85
Chanel 2 Note On - Duracao: 400080 Nota: C1 Vol.: 87
Chanel 2 Note Off - Duracao: 400200 Nota: C1 Vol.: 87
Chanel 2 Note On - Duracao: 400200 Nota: C1 Vol.: 73
Chanel 3 Note Off - Duracao: 400260 Nota: C1 Vol.: 52
Chanel 3 Note On - Duracao: 400260 Nota: C1 Vol.: 63
Chanel 2 Note Off - Duracao: 400680 Nota: C1 Vol.: 73
Chanel 2 Note On - Duracao: 400680 Nota: C1 Vol.: 71
Chanel 1 Note Off - Duracao: 400980 Nota: C1 Vol.: 55
Chanel 1 Note On - Duracao: 400980 Nota: C1 Vol.: 49
Chanel 2 Note Off - Duracao: 401160 Nota: C1 Vol.: 71
Chanel 2 Note On - Duracao: 401160 Nota: C1 Vol.: 58
Chanel 1 Note Off - Duracao: 401940 Nota: C1 Vol.: 49
Chanel 1 Note On - Duracao: 401940 Nota: C1 Vol.: 46
Chanel 2 Note Off - Duracao: 402120 Nota: C1 Vol.: 58
Chanel 2 Note On - Duracao: 402120 Nota: C1 Vol.: 55
Chanel 3 Note Off - Duracao: 402180 Nota: C1 Vol.: 63
Chanel 3 Note On - Duracao: 402180 Nota: C1 Vol.: 50
Chanel 2 Note Off - Duracao: 403080 Nota: C1 Vol.: 55
Chanel 2 Note On - Duracao: 403080 Nota: C1 Vol.: 42
Chanel 1 Note Off - Duracao: 403860 Nota: C1 Vol.: 46
Chanel 1 Note On - Duracao: 403860 Nota: C1 Vol.: 59
Chanel 1 Note Off - Duracao: 404820 Nota: C1 Vol.: 59
Chanel 1 Note On - Duracao: 404820 Nota: C1 Vol.: 52
Chanel 3 Note Off - Duracao: 406020 Nota: C1 Vol.: 50
Chanel 3 Note On - Duracao: 406020 Nota: C1 Vol.: 51
Chanel 1 Note Off - Duracao: 406740 Nota: C1 Vol.: 52
Chanel 1 Note On - Duracao: 406740 Nota: C1 Vol.: 54
Chanel 2 Note Off - Duracao: 406920 Nota: C1 Vol.: 42
Chanel 2 Note On - Duracao: 406920 Nota: C1 Vol.: 47
Chanel 1 Note Off - Duracao: 407700 Nota: C1 Vol.: 54
Chanel 1 Note On - Duracao: 407700 Nota: C1 Vol.: 56
Chanel 1 Note Off - Duracao: 408660 Nota: C1 Vol.: 56
Chanel 1 Note On - Duracao: 408660 Nota: C1 Vol.: 54
Chanel 2 Note Off - Duracao: 408840 Nota: C1 Vol.: 47
Chanel 2 Note On - Duracao: 408840 Nota: C1 Vol.: 51
Chanel 3 Note Off - Duracao: 409860 Nota: C1 Vol.: 51
Chanel 3 Note On - Duracao: 409860 Nota: C1 Vol.: 49
Chanel 1 Note Off - Duracao: 410580 Nota: C1 Vol.: 54
Chanel 1 Note On - Duracao: 410580 Nota: C1 Vol.: 63
Chanel 2 Note Off - Duracao: 410760 Nota: C1 Vol.: 51
Chanel 2 Note On - Duracao: 410760 Nota: C1 Vol.: 51
Chanel 1 Note Off - Duracao: 411540 Nota: C1 Vol.: 63
Chanel 1 Note On - Duracao: 411540 Nota: C1 Vol.: 93
Chanel 1 Note Off - Duracao: 411660 Nota: C1 Vol.: 93
Chanel 1 Note On - Duracao: 411660 Nota: C1 Vol.: 79
Chanel 1 Note Off - Duracao: 411900 Nota: C1 Vol.: 79
Chanel 1 Note On - Duracao: 411900 Nota: C1 Vol.: 55
Chanel 2 Note Off - Duracao: 412680 Nota: C1 Vol.: 51
Chanel 2 Note On - Duracao: 412680 Nota: C1 Vol.: 66
Chanel 2 Note Off - Duracao: 413640 Nota: C1 Vol.: 66
Chanel 2 Note On - Duracao: 413640 Nota: C1 Vol.: 97
Chanel 3 Note Off - Duracao: 413700 Nota: C1 Vol.: 49
Chanel 3 Note On - Duracao: 413700 Nota: C1 Vol.: 52
Chanel 2 Note Off - Duracao: 413760 Nota: C1 Vol.: 97
Chanel 2 Note On - Duracao: 413760 Nota: C1 Vol.: 100
Chanel 1 Note Off - Duracao: 413820 Nota: C1 Vol.: 55
Chanel 1 Note On - Duracao: 413820 Nota: C1 Vol.: 59
Chanel 2 Note Off - Duracao: 413820 Nota: C1 Vol.: 100
Chanel 2 Note On - Duracao: 413820 Nota: C1 Vol.: 97
Chanel 2 Note Off - Duracao: 413940 Nota: C1 Vol.: 97
Chanel 2 Note On - Duracao: 413940 Nota: C1 Vol.: 59
Chanel 1 Note Off - Duracao: 414780 Nota: C1 Vol.: 59
Chanel 1 Note On - Duracao: 414780 Nota: C1 Vol.: 80
Chanel 1 Note Off - Duracao: 415020 Nota: C1 Vol.: 80
Chanel 1 Note On - Duracao: 415020 Nota: C1 Vol.: 95
Chanel 1 Note Off - Duracao: 415140 Nota: C1 Vol.: 95
Chanel 1 Note On - Duracao: 415140 Nota: C1 Vol.: 82
Chanel 1 Note Off - Duracao: 415380 Nota: C1 Vol.: 82
Chanel 1 Note On - Duracao: 415380 Nota: C1 Vol.: 62
Chanel 1 Note Off - Duracao: 415860 Nota: C1 Vol.: 62
Chanel 1 Note On - Duracao: 415860 Nota: C1 Vol.: 64
Chanel 2 Note Off - Duracao: 415860 Nota: C1 Vol.: 59
Chanel 2 Note On - Duracao: 415860 Nota: C1 Vol.: 53
Chanel 1 Note Off - Duracao: 415980 Nota: C1 Vol.: 64
Chanel 1 Note On - Duracao: 415980 Nota: C1 Vol.: 61
Chanel 1 Note Off - Duracao: 416040 Nota: C1 Vol.: 61
Chanel 1 Note On - Duracao: 416040 Nota: C1 Vol.: 56
Chanel 1 Note Off - Duracao: 416100 Nota: C1 Vol.: 56
Chanel 1 Note On - Duracao: 416100 Nota: C1 Vol.: 62
Chanel 1 Note Off - Duracao: 416220 Nota: C1 Vol.: 62
Chanel 1 Note On - Duracao: 416220 Nota: C1 Vol.: 59
Chanel 1 Note Off - Duracao: 416700 Nota: C1 Vol.: 59
Chanel 1 Note On - Duracao: 416700 Nota: C1 Vol.: 54
Chanel 3 Note Off - Duracao: 417540 Nota: C1 Vol.: 52
Chanel 3 Note On - Duracao: 417540 Nota: C1 Vol.: 51
Chanel 1 Note Off - Duracao: 417660 Nota: C1 Vol.: 54
Chanel 1 Note On - Duracao: 417660 Nota: C1 Vol.: 58
Chanel 2 Note Off - Duracao: 417780 Nota: C1 Vol.: 53
Chanel 2 Note On - Duracao: 417780 Nota: C1 Vol.: 63
Chanel 1 Note Off - Duracao: 418620 Nota: C1 Vol.: 58
Chanel 1 Note On - Duracao: 418620 Nota: C1 Vol.: 82
Chanel 2 Note Off - Duracao: 418740 Nota: C1 Vol.: 63
Chanel 2 Note On - Duracao: 418740 Nota: C1 Vol.: 81
Chanel 1 Note Off - Duracao: 418860 Nota: C1 Vol.: 82
Chanel 1 Note On - Duracao: 418860 Nota: C1 Vol.: 67
Chanel 2 Note Off - Duracao: 419220 Nota: C1 Vol.: 81
Chanel 2 Note On - Duracao: 419220 Nota: C1 Vol.: 88
Chanel 1 Note Off - Duracao: 419340 Nota: C1 Vol.: 67
Chanel 1 Note On - Duracao: 419340 Nota: C1 Vol.: 60
Chanel 2 Note Off - Duracao: 419460 Nota: C1 Vol.: 88
Chanel 2 Note On - Duracao: 419460 Nota: C1 Vol.: 86
Chanel 2 Note Off - Duracao: 419700 Nota: C1 Vol.: 86
Chanel 2 Note On - Duracao: 419700 Nota: C1 Vol.: 62
Chanel 1 Note Off - Duracao: 420300 Nota: C1 Vol.: 60
Chanel 1 Note On - Duracao: 420300 Nota: C1 Vol.: 77
Chanel 1 Note Off - Duracao: 420540 Nota: C1 Vol.: 77
Chanel 1 Note On - Duracao: 420540 Nota: C1 Vol.: 84
Chanel 2 Note Off - Duracao: 420660 Nota: C1 Vol.: 62
Chanel 2 Note On - Duracao: 420660 Nota: C1 Vol.: 51
Chanel 1 Note Off - Duracao: 420780 Nota: C1 Vol.: 84
Chanel 1 Note On - Duracao: 420780 Nota: C1 Vol.: 67
Chanel 3 Note Off - Duracao: 421380 Nota: C1 Vol.: 51
Chanel 3 Note On - Duracao: 421380 Nota: C1 Vol.: 57
Chanel 2 Note Off - Duracao: 421620 Nota: C1 Vol.: 51
Chanel 2 Note On - Duracao: 421620 Nota: C1 Vol.: 50
Chanel 1 Note Off - Duracao: 421740 Nota: C1 Vol.: 67
Chanel 1 Note On - Duracao: 421740 Nota: C1 Vol.: 54
Chanel 2 Note Off - Duracao: 422580 Nota: C1 Vol.: 50
Chanel 2 Note On - Duracao: 422580 Nota: C1 Vol.: 42
Chanel 1 Note Off - Duracao: 423660 Nota: C1 Vol.: 54
Chanel 1 Note On - Duracao: 423660 Nota: C1 Vol.: 54
Chanel 1 Note Off - Duracao: 423900 Nota: C1 Vol.: 54
Chanel 1 Note On - Duracao: 423900 Nota: C1 Vol.: 61
Chanel 1 Note Off - Duracao: 423960 Nota: C1 Vol.: 61
Chanel 1 Note On - Duracao: 423960 Nota: C1 Vol.: 51
Chanel 1 Note Off - Duracao: 424080 Nota: C1 Vol.: 51
Chanel 1 Note On - Duracao: 424080 Nota: C1 Vol.: 55
Chanel 1 Note Off - Duracao: 424140 Nota: C1 Vol.: 55
Chanel 1 Note On - Duracao: 424140 Nota: C1 Vol.: 55
Chanel 1 Note Off - Duracao: 424260 Nota: C1 Vol.: 55
Chanel 1 Note On - Duracao: 424260 Nota: C1 Vol.: 49
Chanel 1 Note Off - Duracao: 424740 Nota: C1 Vol.: 49
Chanel 1 Note On - Duracao: 424740 Nota: C1 Vol.: 50
Chanel 3 Note Off - Duracao: 425220 Nota: C1 Vol.: 57
Chanel 3 Note On - Duracao: 425220 Nota: C1 Vol.: 77
Chanel 1 Note Off - Duracao: 425700 Nota: C1 Vol.: 50
Chanel 1 Note On - Duracao: 425700 Nota: C1 Vol.: 51
Chanel 3 Note Off - Duracao: 426180 Nota: C1 Vol.: 77
Chanel 3 Note On - Duracao: 426180 Nota: C1 Vol.: 89
Chanel 2 Note Off - Duracao: 426420 Nota: C1 Vol.: 42
Chanel 2 Note On - Duracao: 426420 Nota: C1 Vol.: 48
Chanel 3 Note Off - Duracao: 426420 Nota: C1 Vol.: 89
Chanel 3 Note On - Duracao: 426420 Nota: C1 Vol.: 100
Chanel 3 Note Off - Duracao: 426540 Nota: C1 Vol.: 100
Chanel 3 Note On - Duracao: 426540 Nota: C1 Vol.: 84
Chanel 3 Note Off - Duracao: 426780 Nota: C1 Vol.: 84
Chanel 3 Note On - Duracao: 426780 Nota: C1 Vol.: 49
Chanel 1 Note Off - Duracao: 427620 Nota: C1 Vol.: 51
Chanel 1 Note On - Duracao: 427620 Nota: C1 Vol.: 49
Chanel 2 Note Off - Duracao: 428340 Nota: C1 Vol.: 48
Chanel 2 Note On - Duracao: 428340 Nota: C1 Vol.: 44
Chanel 3 Note Off - Duracao: 428700 Nota: C1 Vol.: 49
Chanel 3 Note On - Duracao: 428700 Nota: C1 Vol.: 47
Chanel 1 Note Off - Duracao: 429540 Nota: C1 Vol.: 49
Chanel 1 Note On - Duracao: 429540 Nota: C1 Vol.: 51
Chanel 2 Note Off - Duracao: 430260 Nota: C1 Vol.: 44
Chanel 2 Note On - Duracao: 430260 Nota: C1 Vol.: 43
Chanel 1 Note Off - Duracao: 431460 Nota: C1 Vol.: 51
Chanel 1 Note On - Duracao: 431460 Nota: C1 Vol.: 62
Chanel 2 Note Off - Duracao: 432180 Nota: C1 Vol.: 43
Chanel 2 Note On - Duracao: 432180 Nota: C1 Vol.: 61
Chanel 1 Note Off - Duracao: 432420 Nota: C1 Vol.: 62
Chanel 1 Note On - Duracao: 432420 Nota: C1 Vol.: 73
Chanel 3 Note Off - Duracao: 432540 Nota: C1 Vol.: 47
Chanel 3 Note On - Duracao: 432540 Nota: C1 Vol.: 45
Chanel 1 Note Off - Duracao: 432660 Nota: C1 Vol.: 73
Chanel 1 Note On - Duracao: 432660 Nota: C1 Vol.: 83
Chanel 1 Note Off - Duracao: 432900 Nota: C1 Vol.: 83
Chanel 1 Note On - Duracao: 432900 Nota: C1 Vol.: 78
Chanel 1 Note Off - Duracao: 433140 Nota: C1 Vol.: 78
Chanel 1 Note On - Duracao: 433140 Nota: C1 Vol.: 46
Chanel 2 Note Off - Duracao: 433140 Nota: C1 Vol.: 61
Chanel 2 Note On - Duracao: 433140 Nota: C1 Vol.: 58
Chanel 2 Note Off - Duracao: 434100 Nota: C1 Vol.: 58
Chanel 2 Note On - Duracao: 434100 Nota: C1 Vol.: 61
Chanel 2 Note Off - Duracao: 436020 Nota: C1 Vol.: 61
Chanel 2 Note On - Duracao: 436020 Nota: C1 Vol.: 56
Chanel 3 Note Off - Duracao: 436380 Nota: C1 Vol.: 45
Chanel 3 Note On - Duracao: 436380 Nota: C1 Vol.: 42
Chanel 1 Note Off - Duracao: 436980 Nota: C1 Vol.: 46
Chanel 1 Note On - Duracao: 436980 Nota: C1 Vol.: 53
Chanel 2 Note Off - Duracao: 437940 Nota: C1 Vol.: 56
Chanel 2 Note On - Duracao: 437940 Nota: C1 Vol.: 69
Chanel 2 Note Off - Duracao: 438420 Nota: C1 Vol.: 69
Chanel 2 Note On - Duracao: 438420 Nota: C1 Vol.: 46
Chanel 1 Note Off - Duracao: 438900 Nota: C1 Vol.: 53
Chanel 1 Note On - Duracao: 438900 Nota: C1 Vol.: 46
Chanel 3 Note Off - Duracao: 440220 Nota: C1 Vol.: 42
Chanel 3 Note On - Duracao: 440220 Nota: C1 Vol.: 47
Chanel 2 Note Off - Duracao: 440340 Nota: C1 Vol.: 46
Chanel 2 Note On - Duracao: 440340 Nota: C1 Vol.: 50
Chanel 1 Note Off - Duracao: 440820 Nota: C1 Vol.: 46
Chanel 1 Note On - Duracao: 440820 Nota: C1 Vol.: 44
Chanel 2 Note Off - Duracao: 442260 Nota: C1 Vol.: 50
Chanel 2 Note On - Duracao: 442260 Nota: C1 Vol.: 52
Chanel 1 Note Off - Duracao: 442740 Nota: C1 Vol.: 44
Chanel 1 Note On - Duracao: 442740 Nota: C1 Vol.: 44
Chanel 3 Note Off - Duracao: 444060 Nota: C1 Vol.: 47
Chanel 3 Note On - Duracao: 444060 Nota: C1 Vol.: 50
Chanel 2 Note Off - Duracao: 444180 Nota: C1 Vol.: 52
Chanel 2 Note On - Duracao: 444180 Nota: C1 Vol.: 55
Chanel 1 Note Off - Duracao: 444660 Nota: C1 Vol.: 44
Chanel 1 Note On - Duracao: 444660 Nota: C1 Vol.: 46
Chanel 3 Note Off - Duracao: 445980 Nota: C1 Vol.: 50
Chanel 3 Note On - Duracao: 445980 Nota: C1 Vol.: 45
Chanel 2 Note Off - Duracao: 446100 Nota: C1 Vol.: 55
Chanel 2 Note On - Duracao: 446100 Nota: C1 Vol.: 55
Chanel 1 Note Off - Duracao: 446580 Nota: C1 Vol.: 46
Chanel 1 Note On - Duracao: 446580 Nota: C1 Vol.: 51
Chanel 1 Note Off - Duracao: 447540 Nota: C1 Vol.: 51
Chanel 1 Note On - Duracao: 447540 Nota: C1 Vol.: 48
Chanel 2 Note Off - Duracao: 448020 Nota: C1 Vol.: 55
Chanel 2 Note On - Duracao: 448020 Nota: C1 Vol.: 49
Chanel 1 Note Off - Duracao: 449460 Nota: C1 Vol.: 48
Chanel 1 Note On - Duracao: 449460 Nota: C1 Vol.: 57
Chanel 3 Note Off - Duracao: 449820 Nota: C1 Vol.: 45
Chanel 3 Note On - Duracao: 449820 Nota: C1 Vol.: 42
Chanel 2 Note Off - Duracao: 449940 Nota: C1 Vol.: 49
Chanel 2 Note On - Duracao: 449940 Nota: C1 Vol.: 71
Chanel 1 Note Off - Duracao: 450420 Nota: C1 Vol.: 57
Chanel 1 Note On - Duracao: 450420 Nota: C1 Vol.: 53
Chanel 2 Note Off - Duracao: 450420 Nota: C1 Vol.: 71
Chanel 2 Note On - Duracao: 450420 Nota: C1 Vol.: 68
Chanel 2 Note Off - Duracao: 450900 Nota: C1 Vol.: 68
Chanel 2 Note On - Duracao: 450900 Nota: C1 Vol.: 69
Chanel 2 Note Off - Duracao: 451380 Nota: C1 Vol.: 69
Chanel 2 Note On - Duracao: 451380 Nota: C1 Vol.: 61
Chanel 2 Note Off - Duracao: 451860 Nota: C1 Vol.: 61
Chanel 2 Note On - Duracao: 451860 Nota: C1 Vol.: 43
Chanel 1 Note Off - Duracao: 452340 Nota: C1 Vol.: 53
Chanel 1 Note On - Duracao: 452340 Nota: C1 Vol.: 58
Chanel 1 Note Off - Duracao: 453300 Nota: C1 Vol.: 58
Chanel 1 Note On - Duracao: 453300 Nota: C1 Vol.: 56
Chanel 3 Note Off - Duracao: 453660 Nota: C1 Vol.: 42
Chanel 3 Note On - Duracao: 453660 Nota: C1 Vol.: 40
Chanel 2 Note Off - Duracao: 453780 Nota: C1 Vol.: 43
Chanel 2 Note On - Duracao: 453780 Nota: C1 Vol.: 51
Chanel 2 Note Off - Duracao: 454740 Nota: C1 Vol.: 51
Chanel 2 Note On - Duracao: 454740 Nota: C1 Vol.: 48
Chanel 1 Note Off - Duracao: 455220 Nota: C1 Vol.: 56
Chanel 1 Note On - Duracao: 455220 Nota: C1 Vol.: 56
Chanel 2 Note Off - Duracao: 456660 Nota: C1 Vol.: 48
Chanel 2 Note On - Duracao: 456660 Nota: C1 Vol.: 69
Chanel 1 Note Off - Duracao: 457140 Nota: C1 Vol.: 56
Chanel 1 Note On - Duracao: 457140 Nota: C1 Vol.: 68
Chanel 2 Note Off - Duracao: 457140 Nota: C1 Vol.: 69
Chanel 2 Note On - Duracao: 457140 Nota: C1 Vol.: 92
Chanel 2 Note Off - Duracao: 457260 Nota: C1 Vol.: 92
Chanel 2 Note On - Duracao: 457260 Nota: C1 Vol.: 79
Chanel 2 Note Off - Duracao: 457500 Nota: C1 Vol.: 79
Chanel 2 Note On - Duracao: 457500 Nota: C1 Vol.: 75
Chanel 3 Note Off - Duracao: 457500 Nota: C1 Vol.: 40
Chanel 3 Note On - Duracao: 457500 Nota: C1 Vol.: 43
Chanel 2 Note Off - Duracao: 457980 Nota: C1 Vol.: 75
Chanel 2 Note On - Duracao: 457980 Nota: C1 Vol.: 82
Chanel 1 Note Off - Duracao: 458100 Nota: C1 Vol.: 68
Chanel 1 Note On - Duracao: 458100 Nota: C1 Vol.: 67
Chanel 2 Note Off - Duracao: 458220 Nota: C1 Vol.: 82
Chanel 2 Note On - Duracao: 458220 Nota: C1 Vol.: 79
Chanel 2 Note Off - Duracao: 458460 Nota: C1 Vol.: 79
Chanel 2 Note On - Duracao: 458460 Nota: C1 Vol.: 69
Chanel 1 Note Off - Duracao: 458580 Nota: C1 Vol.: 67
Chanel 1 Note On - Duracao: 458580 Nota: C1 Vol.: 61
Chanel 2 Note Off - Duracao: 458940 Nota: C1 Vol.: 69
Chanel 2 Note On - Duracao: 458940 Nota: C1 Vol.: 53
Chanel 1 Note Off - Duracao: 459540 Nota: C1 Vol.: 61
Chanel 1 Note On - Duracao: 459540 Nota: C1 Vol.: 56
Chanel 2 Note Off - Duracao: 459900 Nota: C1 Vol.: 53
Chanel 2 Note On - Duracao: 459900 Nota: C1 Vol.: 69
Chanel 2 Note Off - Duracao: 460380 Nota: C1 Vol.: 69
Chanel 2 Note On - Duracao: 460380 Nota: C1 Vol.: 67
Chanel 1 Note Off - Duracao: 460500 Nota: C1 Vol.: 56
Chanel 1 Note On - Duracao: 460500 Nota: C1 Vol.: 55
Chanel 2 Note Off - Duracao: 460860 Nota: C1 Vol.: 67
Chanel 2 Note On - Duracao: 460860 Nota: C1 Vol.: 57
Chanel 3 Note Off - Duracao: 461340 Nota: C1 Vol.: 43
Chanel 3 Note On - Duracao: 461340 Nota: C1 Vol.: 47
Chanel 1 Note Off - Duracao: 461460 Nota: C1 Vol.: 55
Chanel 1 Note On - Duracao: 461460 Nota: C1 Vol.: 59
Chanel 2 Note Off - Duracao: 461820 Nota: C1 Vol.: 57
Chanel 2 Note On - Duracao: 461820 Nota: C1 Vol.: 44
Chanel 1 Note Off - Duracao: 462420 Nota: C1 Vol.: 59
Chanel 1 Note On - Duracao: 462420 Nota: C1 Vol.: 79
Chanel 1 Note Off - Duracao: 462660 Nota: C1 Vol.: 79
Chanel 1 Note On - Duracao: 462660 Nota: C1 Vol.: 58
Chanel 1 Note Off - Duracao: 463620 Nota: C1 Vol.: 58
Chanel 1 Note On - Duracao: 463620 Nota: C1 Vol.: 59
Chanel 2 Note Off - Duracao: 463740 Nota: C1 Vol.: 44
Chanel 2 Note On - Duracao: 463740 Nota: C1 Vol.: 45
Chanel 1 Note Off - Duracao: 464100 Nota: C1 Vol.: 59
Chanel 1 Note On - Duracao: 464100 Nota: C1 Vol.: 61
Chanel 1 Note Off - Duracao: 464220 Nota: C1 Vol.: 61
Chanel 1 Note On - Duracao: 464220 Nota: C1 Vol.: 57
Chanel 1 Note Off - Duracao: 464280 Nota: C1 Vol.: 57
Chanel 1 Note On - Duracao: 464280 Nota: C1 Vol.: 54
Chanel 1 Note Off - Duracao: 464340 Nota: C1 Vol.: 54
Chanel 1 Note On - Duracao: 464340 Nota: C1 Vol.: 60
Chanel 1 Note Off - Duracao: 464460 Nota: C1 Vol.: 60
Chanel 1 Note On - Duracao: 464460 Nota: C1 Vol.: 52
Chanel 3 Note Off - Duracao: 465180 Nota: C1 Vol.: 47
Chanel 3 Note On - Duracao: 465180 Nota: C1 Vol.: 50
Chanel 1 Note Off - Duracao: 465420 Nota: C1 Vol.: 52
Chanel 1 Note On - Duracao: 465420 Nota: C1 Vol.: 76
Chanel 1 Note Off - Duracao: 465660 Nota: C1 Vol.: 76
Chanel 1 Note On - Duracao: 465660 Nota: C1 Vol.: 66
Chanel 2 Note Off - Duracao: 465660 Nota: C1 Vol.: 45
Chanel 2 Note On - Duracao: 465660 Nota: C1 Vol.: 55
Chanel 1 Note Off - Duracao: 466620 Nota: C1 Vol.: 66
Chanel 1 Note On - Duracao: 466620 Nota: C1 Vol.: 95
Chanel 2 Note Off - Duracao: 466620 Nota: C1 Vol.: 55
Chanel 2 Note On - Duracao: 466620 Nota: C1 Vol.: 71
Chanel 1 Note Off - Duracao: 466740 Nota: C1 Vol.: 95
Chanel 1 Note On - Duracao: 466740 Nota: C1 Vol.: 77
Chanel 2 Note Off - Duracao: 466860 Nota: C1 Vol.: 71
Chanel 2 Note On - Duracao: 466860 Nota: C1 Vol.: 49
Chanel 1 Note Off - Duracao: 467220 Nota: C1 Vol.: 77
Chanel 1 Note On - Duracao: 467220 Nota: C1 Vol.: 69
Chanel 1 Note Off - Duracao: 468180 Nota: C1 Vol.: 69
Chanel 1 Note On - Duracao: 468180 Nota: C1 Vol.: 77
Chanel 1 Note Off - Duracao: 468660 Nota: C1 Vol.: 77
Chanel 1 Note On - Duracao: 468660 Nota: C1 Vol.: 91
Chanel 2 Note Off - Duracao: 468780 Nota: C1 Vol.: 49
Chanel 2 Note On - Duracao: 468780 Nota: C1 Vol.: 82
Chanel 1 Note Off - Duracao: 468900 Nota: C1 Vol.: 91
Chanel 1 Note On - Duracao: 468900 Nota: C1 Vol.: 71
Chanel 3 Note Off - Duracao: 469020 Nota: C1 Vol.: 50
Chanel 3 Note On - Duracao: 469020 Nota: C1 Vol.: 50
Chanel 2 Note Off - Duracao: 469260 Nota: C1 Vol.: 82
Chanel 2 Note On - Duracao: 469260 Nota: C1 Vol.: 100
Chanel 2 Note Off - Duracao: 469320 Nota: C1 Vol.: 100
Chanel 2 Note On - Duracao: 469320 Nota: C1 Vol.: 99
Chanel 2 Note Off - Duracao: 469440 Nota: C1 Vol.: 99
Chanel 2 Note On - Duracao: 469440 Nota: C1 Vol.: 71
Chanel 1 Note Off - Duracao: 469860 Nota: C1 Vol.: 71
Chanel 1 Note On - Duracao: 469860 Nota: C1 Vol.: 62
Chanel 2 Note Off - Duracao: 469920 Nota: C1 Vol.: 71
Chanel 2 Note On - Duracao: 469920 Nota: C1 Vol.: 49
Chanel 1 Note Off - Duracao: 470820 Nota: C1 Vol.: 62
Chanel 1 Note On - Duracao: 470820 Nota: C1 Vol.: 47
Chanel 1 Note Off - Duracao: 471780 Nota: C1 Vol.: 47
Chanel 1 Note On - Duracao: 471780 Nota: C1 Vol.: 65
Chanel 1 Note Off - Duracao: 471840 Nota: C1 Vol.: 65
Chanel 1 Note On - Duracao: 471840 Nota: C1 Vol.: 55
Chanel 2 Note Off - Duracao: 471840 Nota: C1 Vol.: 49
Chanel 2 Note On - Duracao: 471840 Nota: C1 Vol.: 48
Chanel 1 Note Off - Duracao: 471900 Nota: C1 Vol.: 55
Chanel 1 Note On - Duracao: 471900 Nota: C1 Vol.: 51
Chanel 1 Note Off - Duracao: 472020 Nota: C1 Vol.: 51
Chanel 1 Note On - Duracao: 472020 Nota: C1 Vol.: 56
Chanel 1 Note Off - Duracao: 472140 Nota: C1 Vol.: 56
Chanel 1 Note On - Duracao: 472140 Nota: C1 Vol.: 42
Chanel 1 Note Off - Duracao: 472620 Nota: C1 Vol.: 42
Chanel 1 Note On - Duracao: 472620 Nota: C1 Vol.: 43
Chanel 3 Note Off - Duracao: 472860 Nota: C1 Vol.: 50
Chanel 3 Note On - Duracao: 472860 Nota: C1 Vol.: 54
Chanel 1 Note Off - Duracao: 474540 Nota: C1 Vol.: 43
Chanel 1 Note On - Duracao: 474540 Nota: C1 Vol.: 48
Chanel 2 Note Off - Duracao: 475680 Nota: C1 Vol.: 48
Chanel 2 Note On - Duracao: 475680 Nota: C1 Vol.: 56
Chanel 1 Note Off - Duracao: 476460 Nota: C1 Vol.: 48
Chanel 1 Note On - Duracao: 476460 Nota: C1 Vol.: 52
Chanel 3 Note Off - Duracao: 476700 Nota: C1 Vol.: 54
Chanel 3 Note On - Duracao: 476700 Nota: C1 Vol.: 69
Chanel 3 Note Off - Duracao: 477660 Nota: C1 Vol.: 69
Chanel 3 Note On - Duracao: 477660 Nota: C1 Vol.: 92
Chanel 3 Note Off - Duracao: 477900 Nota: C1 Vol.: 92
Chanel 3 Note On - Duracao: 477900 Nota: C1 Vol.: 100
Chanel 3 Note Off - Duracao: 478020 Nota: C1 Vol.: 100
Chanel 3 Note On - Duracao: 478020 Nota: C1 Vol.: 94
Chanel 3 Note Off - Duracao: 478140 Nota: C1 Vol.: 94
Chanel 3 Note On - Duracao: 478140 Nota: C1 Vol.: 64
Chanel 1 Note Off - Duracao: 478380 Nota: C1 Vol.: 52
Chanel 1 Note On - Duracao: 478380 Nota: C1 Vol.: 53
Chanel 3 Note Off - Duracao: 479100 Nota: C1 Vol.: 64
Chanel 3 Note On - Duracao: 479100 Nota: C1 Vol.: 45
Chanel 2 Note Off - Duracao: 479520 Nota: C1 Vol.: 56
Chanel 2 Note On - Duracao: 479520 Nota: C1 Vol.: 66
Chanel 1 Note Off - Duracao: 480300 Nota: C1 Vol.: 53
Chanel 1 Note On - Duracao: 480300 Nota: C1 Vol.: 55
Chanel 2 Note Off - Duracao: 481440 Nota: C1 Vol.: 66
Chanel 2 Note On - Duracao: 481440 Nota: C1 Vol.: 56
Chanel 1 Note Off - Duracao: 482220 Nota: C1 Vol.: 55
Chanel 1 Note On - Duracao: 482220 Nota: C1 Vol.: 72
Chanel 1 Note Off - Duracao: 482700 Nota: C1 Vol.: 72
Chanel 1 Note On - Duracao: 482700 Nota: C1 Vol.: 85
Chanel 1 Note Off - Duracao: 482940 Nota: C1 Vol.: 85
Chanel 1 Note On - Duracao: 482940 Nota: C1 Vol.: 80
Chanel 3 Note Off - Duracao: 482940 Nota: C1 Vol.: 45
Chanel 3 Note On - Duracao: 482940 Nota: C1 Vol.: 49
Chanel 1 Note Off - Duracao: 483180 Nota: C1 Vol.: 80
Chanel 1 Note On - Duracao: 483180 Nota: C1 Vol.: 52
Chanel 2 Note Off - Duracao: 483360 Nota: C1 Vol.: 56
Chanel 2 Note On - Duracao: 483360 Nota: C1 Vol.: 57
Chanel 2 Note Off - Duracao: 484320 Nota: C1 Vol.: 57
Chanel 2 Note On - Duracao: 484320 Nota: C1 Vol.: 60
Chanel 2 Note Off - Duracao: 484800 Nota: C1 Vol.: 60
Chanel 2 Note On - Duracao: 484800 Nota: C1 Vol.: 56
Chanel 3 Note Off - Duracao: 484860 Nota: C1 Vol.: 49
Chanel 3 Note On - Duracao: 484860 Nota: C1 Vol.: 43
Chanel 1 Note Off - Duracao: 485100 Nota: C1 Vol.: 52
Chanel 1 Note On - Duracao: 485100 Nota: C1 Vol.: 54
Chanel 2 Note Off - Duracao: 485760 Nota: C1 Vol.: 56
Chanel 2 Note On - Duracao: 485760 Nota: C1 Vol.: 64
Chanel 2 Note Off - Duracao: 486240 Nota: C1 Vol.: 64
Chanel 2 Note On - Duracao: 486240 Nota: C1 Vol.: 44
Chanel 1 Note Off - Duracao: 487020 Nota: C1 Vol.: 54
Chanel 1 Note On - Duracao: 487020 Nota: C1 Vol.: 44
Chanel 3 Note Off - Duracao: 488700 Nota: C1 Vol.: 43
Chanel 3 Note On - Duracao: 488700 Nota: C1 Vol.: 41
Chanel 1 Note Off - Duracao: 488940 Nota: C1 Vol.: 44
Chanel 1 Note On - Duracao: 488940 Nota: C1 Vol.: 47
Chanel 2 Note Off - Duracao: 490080 Nota: C1 Vol.: 44
Chanel 2 Note On - Duracao: 490080 Nota: C1 Vol.: 46
Chanel 1 Note Off - Duracao: 490860 Nota: C1 Vol.: 47
Chanel 1 Note On - Duracao: 490860 Nota: C1 Vol.: 47
Chanel 2 Note Off - Duracao: 492000 Nota: C1 Vol.: 46
Chanel 2 Note On - Duracao: 492000 Nota: C1 Vol.: 45
Chanel 3 Note Off - Duracao: 492540 Nota: C1 Vol.: 41
Chanel 3 Note On - Duracao: 492540 Nota: C1 Vol.: 41
Chanel 1 Note Off - Duracao: 492780 Nota: C1 Vol.: 47
Chanel 1 Note On - Duracao: 492780 Nota: C1 Vol.: 44
Chanel 2 Note Off - Duracao: 493920 Nota: C1 Vol.: 45
Chanel 2 Note On - Duracao: 493920 Nota: C1 Vol.: 56
Chanel 1 Note Off - Duracao: 494700 Nota: C1 Vol.: 44
Chanel 1 Note On - Duracao: 494700 Nota: C1 Vol.: 51
Chanel 2 Note Off - Duracao: 494880 Nota: C1 Vol.: 56
Chanel 2 Note On - Duracao: 494880 Nota: C1 Vol.: 57
Chanel 1 Note Off - Duracao: 495660 Nota: C1 Vol.: 51
Chanel 1 Note On - Duracao: 495660 Nota: C1 Vol.: 46
Chanel 3 Note Off - Duracao: 496380 Nota: C1 Vol.: 41
Chanel 3 Note On - Duracao: 496380 Nota: C1 Vol.: 46
Chanel 2 Note Off - Duracao: 496800 Nota: C1 Vol.: 57
Chanel 2 Note On - Duracao: 496800 Nota: C1 Vol.: 61
Chanel 1 Note Off - Duracao: 497580 Nota: C1 Vol.: 46
Chanel 1 Note On - Duracao: 497580 Nota: C1 Vol.: 58
Chanel 1 Note Off - Duracao: 498540 Nota: C1 Vol.: 58
Chanel 1 Note On - Duracao: 498540 Nota: C1 Vol.: 53
Chanel 2 Note Off - Duracao: 498720 Nota: C1 Vol.: 61
Chanel 2 Note On - Duracao: 498720 Nota: C1 Vol.: 60
Chanel 3 Note Off - Duracao: 500220 Nota: C1 Vol.: 46
Chanel 3 Note On - Duracao: 500220 Nota: C1 Vol.: 44
Chanel 1 Note Off - Duracao: 500460 Nota: C1 Vol.: 53
Chanel 1 Note On - Duracao: 500460 Nota: C1 Vol.: 54
Chanel 2 Note Off - Duracao: 500640 Nota: C1 Vol.: 60
Chanel 2 Note On - Duracao: 500640 Nota: C1 Vol.: 64
Chanel 2 Note Off - Duracao: 501120 Nota: C1 Vol.: 64
Chanel 2 Note On - Duracao: 501120 Nota: C1 Vol.: 49
Chanel 1 Note Off - Duracao: 502380 Nota: C1 Vol.: 54
Chanel 1 Note On - Duracao: 502380 Nota: C1 Vol.: 54
Chanel 2 Note Off - Duracao: 503040 Nota: C1 Vol.: 49
Chanel 2 Note On - Duracao: 503040 Nota: C1 Vol.: 54
Chanel 3 Note Off - Duracao: 504060 Nota: C1 Vol.: 44
Chanel 3 Note On - Duracao: 504060 Nota: C1 Vol.: 44
Chanel 1 Note Off - Duracao: 504300 Nota: C1 Vol.: 54
Chanel 1 Note On - Duracao: 504300 Nota: C1 Vol.: 58
Chanel 2 Note Off - Duracao: 504960 Nota: C1 Vol.: 54
Chanel 2 Note On - Duracao: 504960 Nota: C1 Vol.: 53
Chanel 1 Note Off - Duracao: 506220 Nota: C1 Vol.: 58
Chanel 1 Note On - Duracao: 506220 Nota: C1 Vol.: 49
Chanel 2 Note Off - Duracao: 506880 Nota: C1 Vol.: 53
Chanel 2 Note On - Duracao: 506880 Nota: C1 Vol.: 50
Chanel 3 Note Off - Duracao: 507900 Nota: C1 Vol.: 44
Chanel 3 Note On - Duracao: 507900 Nota: C1 Vol.: 41
Chanel 1 Note Off - Duracao: 508140 Nota: C1 Vol.: 49
Chanel 1 Note On - Duracao: 508140 Nota: C1 Vol.: 58
Chanel 1 Note Off - Duracao: 509100 Nota: C1 Vol.: 58
Chanel 1 Note On - Duracao: 509100 Nota: C1 Vol.: 59
Chanel 1 Note Off - Duracao: 510060 Nota: C1 Vol.: 59
Chanel 1 Note On - Duracao: 510060 Nota: C1 Vol.: 53
Chanel 2 Note Off - Duracao: 510720 Nota: C1 Vol.: 50
Chanel 2 Note On - Duracao: 510720 Nota: C1 Vol.: 50
Chanel 3 Note Off - Duracao: 511740 Nota: C1 Vol.: 41
Chanel 3 Note On - Duracao: 511740 Nota: C1 Vol.: 40
Chanel 1 Note Off - Duracao: 511980 Nota: C1 Vol.: 53
Chanel 1 Note On - Duracao: 511980 Nota: C1 Vol.: 51
Chanel 2 Note Off - Duracao: 512640 Nota: C1 Vol.: 50
Chanel 2 Note On - Duracao: 512640 Nota: C1 Vol.: 46
Chanel 1 Note Off - Duracao: 513900 Nota: C1 Vol.: 51
Chanel 1 Note On - Duracao: 513900 Nota: C1 Vol.: 69
Chanel 1 Note Off - Duracao: 514140 Nota: C1 Vol.: 69
Chanel 1 Note On - Duracao: 514140 Nota: C1 Vol.: 66
Chanel 1 Note Off - Duracao: 514380 Nota: C1 Vol.: 66
Chanel 1 Note On - Duracao: 514380 Nota: C1 Vol.: 54
Chanel 2 Note Off - Duracao: 514560 Nota: C1 Vol.: 46
Chanel 2 Note On - Duracao: 514560 Nota: C1 Vol.: 56
Chanel 1 Note Off - Duracao: 515340 Nota: C1 Vol.: 54
Chanel 1 Note On - Duracao: 515340 Nota: C1 Vol.: 49
Chanel 3 Note Off - Duracao: 515580 Nota: C1 Vol.: 40
Chanel 3 Note On - Duracao: 515580 Nota: C1 Vol.: 40
Chanel 1 Note Off - Duracao: 515820 Nota: C1 Vol.: 49
Chanel 1 Note On - Duracao: 515820 Nota: C1 Vol.: 61
Chanel 1 Note Off - Duracao: 515940 Nota: C1 Vol.: 61
Chanel 1 Note On - Duracao: 515940 Nota: C1 Vol.: 61
Chanel 1 Note Off - Duracao: 516000 Nota: C1 Vol.: 61
Chanel 1 Note On - Duracao: 516000 Nota: C1 Vol.: 58
Chanel 1 Note Off - Duracao: 516060 Nota: C1 Vol.: 58
Chanel 1 Note On - Duracao: 516060 Nota: C1 Vol.: 62
Chanel 1 Note Off - Duracao: 516180 Nota: C1 Vol.: 62
Chanel 1 Note On - Duracao: 516180 Nota: C1 Vol.: 48
Chanel 2 Note Off - Duracao: 516480 Nota: C1 Vol.: 56
Chanel 2 Note On - Duracao: 516480 Nota: C1 Vol.: 61
Chanel 1 Note Off - Duracao: 517140 Nota: C1 Vol.: 48
Chanel 1 Note On - Duracao: 517140 Nota: C1 Vol.: 63
Chanel 2 Note Off - Duracao: 517440 Nota: C1 Vol.: 61
Chanel 2 Note On - Duracao: 517440 Nota: C1 Vol.: 53
Chanel 1 Note Off - Duracao: 518100 Nota: C1 Vol.: 63
Chanel 1 Note On - Duracao: 518100 Nota: C1 Vol.: 64
Chanel 1 Note Off - Duracao: 519060 Nota: C1 Vol.: 64
Chanel 1 Note On - Duracao: 519060 Nota: C1 Vol.: 91
Chanel 1 Note Off - Duracao: 519180 Nota: C1 Vol.: 91
Chanel 1 Note On - Duracao: 519180 Nota: C1 Vol.: 100
Chanel 1 Note Off - Duracao: 519300 Nota: C1 Vol.: 100
Chanel 1 Note On - Duracao: 519300 Nota: C1 Vol.: 100
Chanel 1 Note Off - Duracao: 519360 Nota: C1 Vol.: 100
Chanel 1 Note On - Duracao: 519360 Nota: C1 Vol.: 88
Chanel 2 Note Off - Duracao: 519360 Nota: C1 Vol.: 53
Chanel 2 Note On - Duracao: 519360 Nota: C1 Vol.: 40
Chanel 3 Note Off - Duracao: 519420 Nota: C1 Vol.: 40
Chanel 3 Note On - Duracao: 519420 Nota: C1 Vol.: 40
Chanel 1 Note Off - Duracao: 519600 Nota: C1 Vol.: 88
Chanel 1 Note On - Duracao: 519600 Nota: C1 Vol.: 100
Chanel 1 Note Off - Duracao: 519720 Nota: C1 Vol.: 100
Chanel 1 Note On - Duracao: 519720 Nota: C1 Vol.: 100
Chanel 1 Note Off - Duracao: 519840 Nota: C1 Vol.: 100
Chanel 1 Note On - Duracao: 519840 Nota: C1 Vol.: 87
Chanel 1 Note Off - Duracao: 520080 Nota: C1 Vol.: 87
Chanel 1 Note On - Duracao: 520080 Nota: C1 Vol.: 44
Chanel 1 Note Off - Duracao: 521040 Nota: C1 Vol.: 44
Chanel 1 Note On - Duracao: 521040 Nota: C1 Vol.: 57
Chanel 1 Note Off - Duracao: 521280 Nota: C1 Vol.: 57
Chanel 1 Note On - Duracao: 521280 Nota: C1 Vol.: 57
Chanel 1 Note Off - Duracao: 521340 Nota: C1 Vol.: 57
Chanel 1 Note On - Duracao: 521340 Nota: C1 Vol.: 54
Chanel 1 Note Off - Duracao: 521460 Nota: C1 Vol.: 54
Chanel 1 Note On - Duracao: 521460 Nota: C1 Vol.: 56
Chanel 1 Note Off - Duracao: 521580 Nota: C1 Vol.: 56
Chanel 1 Note On - Duracao: 521580 Nota: C1 Vol.: 42
Chanel 1 Note Off - Duracao: 522540 Nota: C1 Vol.: 42
Chanel 1 Note On - Duracao: 522540 Nota: C1 Vol.: 46
Chanel 2 Note Off - Duracao: 523200 Nota: C1 Vol.: 40
Chanel 2 Note On - Duracao: 523200 Nota: C1 Vol.: 54
Chanel 3 Note Off - Duracao: 523260 Nota: C1 Vol.: 40
Chanel 3 Note On - Duracao: 523260 Nota: C1 Vol.: 41
Chanel 2 Note Off - Duracao: 524160 Nota: C1 Vol.: 54
Chanel 2 Note On - Duracao: 524160 Nota: C1 Vol.: 51
Chanel 1 Note Off - Duracao: 524460 Nota: C1 Vol.: 46
Chanel 1 Note On - Duracao: 524460 Nota: C1 Vol.: 49
Chanel 2 Note Off - Duracao: 525120 Nota: C1 Vol.: 51
Chanel 2 Note On - Duracao: 525120 Nota: C1 Vol.: 45
Chanel 1 Note Off - Duracao: 526380 Nota: C1 Vol.: 49
Chanel 1 Note On - Duracao: 526380 Nota: C1 Vol.: 49
Chanel 2 Note Off - Duracao: 527040 Nota: C1 Vol.: 45
Chanel 2 Note On - Duracao: 527040 Nota: C1 Vol.: 49
Chanel 3 Note Off - Duracao: 527100 Nota: C1 Vol.: 41
Chanel 3 Note On - Duracao: 527100 Nota: C1 Vol.: 45
Chanel 1 Note Off - Duracao: 528300 Nota: C1 Vol.: 49
Chanel 1 Note On - Duracao: 528300 Nota: C1 Vol.: 51
Chanel 2 Note Off - Duracao: 528960 Nota: C1 Vol.: 49
Chanel 2 Note On - Duracao: 528960 Nota: C1 Vol.: 62
Chanel 2 Note Off - Duracao: 529920 Nota: C1 Vol.: 62
Chanel 2 Note On - Duracao: 529920 Nota: C1 Vol.: 73
Chanel 2 Note Off - Duracao: 530160 Nota: C1 Vol.: 73
Chanel 2 Note On - Duracao: 530160 Nota: C1 Vol.: 82
Chanel 1 Note Off - Duracao: 530220 Nota: C1 Vol.: 51
Chanel 1 Note On - Duracao: 530220 Nota: C1 Vol.: 63
Chanel 2 Note Off - Duracao: 530400 Nota: C1 Vol.: 82
Chanel 2 Note On - Duracao: 530400 Nota: C1 Vol.: 90
Chanel 2 Note Off - Duracao: 530520 Nota: C1 Vol.: 90
Chanel 2 Note On - Duracao: 530520 Nota: C1 Vol.: 75
Chanel 2 Note Off - Duracao: 530760 Nota: C1 Vol.: 75
Chanel 2 Note On - Duracao: 530760 Nota: C1 Vol.: 53
Chanel 3 Note Off - Duracao: 530940 Nota: C1 Vol.: 45
Chanel 3 Note On - Duracao: 530940 Nota: C1 Vol.: 47
Chanel 1 Note Off - Duracao: 531180 Nota: C1 Vol.: 63
Chanel 1 Note On - Duracao: 531180 Nota: C1 Vol.: 91
Chanel 1 Note Off - Duracao: 531300 Nota: C1 Vol.: 91
Chanel 1 Note On - Duracao: 531300 Nota: C1 Vol.: 89
Chanel 1 Note Off - Duracao: 531540 Nota: C1 Vol.: 89
Chanel 1 Note On - Duracao: 531540 Nota: C1 Vol.: 80
Chanel 2 Note Off - Duracao: 531720 Nota: C1 Vol.: 53
Chanel 2 Note On - Duracao: 531720 Nota: C1 Vol.: 58
Chanel 1 Note Off - Duracao: 531780 Nota: C1 Vol.: 80
Chanel 1 Note On - Duracao: 531780 Nota: C1 Vol.: 51
Chanel 2 Note Off - Duracao: 532200 Nota: C1 Vol.: 58
Chanel 2 Note On - Duracao: 532200 Nota: C1 Vol.: 64
Chanel 2 Note Off - Duracao: 532680 Nota: C1 Vol.: 64
Chanel 2 Note On - Duracao: 532680 Nota: C1 Vol.: 60
Chanel 2 Note Off - Duracao: 533640 Nota: C1 Vol.: 60
Chanel 2 Note On - Duracao: 533640 Nota: C1 Vol.: 51
Chanel 1 Note Off - Duracao: 533700 Nota: C1 Vol.: 51
Chanel 1 Note On - Duracao: 533700 Nota: C1 Vol.: 50
Chanel 3 Note Off - Duracao: 534780 Nota: C1 Vol.: 47
Chanel 3 Note On - Duracao: 534780 Nota: C1 Vol.: 42
Chanel 2 Note Off - Duracao: 535560 Nota: C1 Vol.: 51
Chanel 2 Note On - Duracao: 535560 Nota: C1 Vol.: 41
Chanel 1 Note Off - Duracao: 535620 Nota: C1 Vol.: 50
Chanel 1 Note On - Duracao: 535620 Nota: C1 Vol.: 47
Chanel 1 Note Off - Duracao: 537540 Nota: C1 Vol.: 47
Chanel 1 Note On - Duracao: 537540 Nota: C1 Vol.: 47
Chanel 3 Note Off - Duracao: 538620 Nota: C1 Vol.: 42
Chanel 3 Note On - Duracao: 538620 Nota: C1 Vol.: 42
Chanel 2 Note Off - Duracao: 539400 Nota: C1 Vol.: 41
Chanel 2 Note On - Duracao: 539400 Nota: C1 Vol.: 42
Chanel 1 Note Off - Duracao: 539460 Nota: C1 Vol.: 47
Chanel 1 Note On - Duracao: 539460 Nota: C1 Vol.: 44
Chanel 2 Note Off - Duracao: 541320 Nota: C1 Vol.: 42
Chanel 2 Note On - Duracao: 541320 Nota: C1 Vol.: 47
Chanel 3 Note Off - Duracao: 542460 Nota: C1 Vol.: 42
Chanel 3 Note On - Duracao: 542460 Nota: C1 Vol.: 49
Chanel 2 Note Off - Duracao: 543240 Nota: C1 Vol.: 47
Chanel 2 Note On - Duracao: 543240 Nota: C1 Vol.: 44
Chanel 1 Note Off - Duracao: 543300 Nota: C1 Vol.: 44
Chanel 1 Note On - Duracao: 543300 Nota: C1 Vol.: 50
Chanel 2 Note Off - Duracao: 545160 Nota: C1 Vol.: 44
Chanel 2 Note On - Duracao: 545160 Nota: C1 Vol.: 42
Chanel 1 Note Off - Duracao: 545220 Nota: C1 Vol.: 50
Chanel 1 Note On - Duracao: 545220 Nota: C1 Vol.: 48
Chanel 3 Note Off - Duracao: 546300 Nota: C1 Vol.: 49
Chanel 3 Note On - Duracao: 546300 Nota: C1 Vol.: 48
Chanel 2 Note Off - Duracao: 547080 Nota: C1 Vol.: 42
Chanel 2 Note On - Duracao: 547080 Nota: C1 Vol.: 65
Chanel 1 Note Off - Duracao: 547140 Nota: C1 Vol.: 48
Chanel 1 Note On - Duracao: 547140 Nota: C1 Vol.: 45
Chanel 2 Note Off - Duracao: 548040 Nota: C1 Vol.: 65
Chanel 2 Note On - Duracao: 548040 Nota: C1 Vol.: 98
Chanel 2 Note Off - Duracao: 548160 Nota: C1 Vol.: 98
Chanel 2 Note On - Duracao: 548160 Nota: C1 Vol.: 100
Chanel 2 Note Off - Duracao: 548280 Nota: C1 Vol.: 100
Chanel 2 Note On - Duracao: 548280 Nota: C1 Vol.: 87
Chanel 2 Note Off - Duracao: 548520 Nota: C1 Vol.: 87
Chanel 2 Note On - Duracao: 548520 Nota: C1 Vol.: 47
Chanel 1 Note Off - Duracao: 549060 Nota: C1 Vol.: 45
Chanel 1 Note On - Duracao: 549060 Nota: C1 Vol.: 54
Chanel 1 Note Off - Duracao: 550020 Nota: C1 Vol.: 54
Chanel 1 Note On - Duracao: 550020 Nota: C1 Vol.: 61
Chanel 3 Note Off - Duracao: 550140 Nota: C1 Vol.: 48
Chanel 3 Note On - Duracao: 550140 Nota: C1 Vol.: 49
Chanel 2 Note Off - Duracao: 550440 Nota: C1 Vol.: 47
Chanel 2 Note On - Duracao: 550440 Nota: C1 Vol.: 43
Chanel 1 Note Off - Duracao: 550980 Nota: C1 Vol.: 61
Chanel 1 Note On - Duracao: 550980 Nota: C1 Vol.: 58
Chanel 1 Note Off - Duracao: 551940 Nota: C1 Vol.: 58
Chanel 1 Note On - Duracao: 551940 Nota: C1 Vol.: 52
Chanel 1 Note Off - Duracao: 553860 Nota: C1 Vol.: 52
Chanel 1 Note On - Duracao: 553860 Nota: C1 Vol.: 54
Chanel 3 Note Off - Duracao: 553980 Nota: C1 Vol.: 49
Chanel 3 Note On - Duracao: 553980 Nota: C1 Vol.: 51
Chanel 2 Note Off - Duracao: 554280 Nota: C1 Vol.: 43
Chanel 2 Note On - Duracao: 554280 Nota: C1 Vol.: 52
Chanel 1 Note Off - Duracao: 555780 Nota: C1 Vol.: 54
Chanel 1 Note On - Duracao: 555780 Nota: C1 Vol.: 51
Chanel 3 Note Off - Duracao: 555900 Nota: C1 Vol.: 51
Chanel 3 Note On - Duracao: 555900 Nota: C1 Vol.: 48
Chanel 1 Note Off - Duracao: 557700 Nota: C1 Vol.: 51
Chanel 1 Note On - Duracao: 557700 Nota: C1 Vol.: 65
Chanel 3 Note Off - Duracao: 557820 Nota: C1 Vol.: 48
Chanel 3 Note On - Duracao: 557820 Nota: C1 Vol.: 45
Chanel 2 Note Off - Duracao: 558120 Nota: C1 Vol.: 52
Chanel 2 Note On - Duracao: 558120 Nota: C1 Vol.: 50
Chanel 1 Note Off - Duracao: 558180 Nota: C1 Vol.: 65
Chanel 1 Note On - Duracao: 558180 Nota: C1 Vol.: 56
Chanel 1 Note Off - Duracao: 559140 Nota: C1 Vol.: 56
Chanel 1 Note On - Duracao: 559140 Nota: C1 Vol.: 54
Chanel 3 Note Off - Duracao: 559740 Nota: C1 Vol.: 45
Chanel 3 Note On - Duracao: 559740 Nota: C1 Vol.: 41
Chanel 1 Note Off - Duracao: 560100 Nota: C1 Vol.: 54
Chanel 1 Note On - Duracao: 560100 Nota: C1 Vol.: 52
Chanel 2 Note Off - Duracao: 561960 Nota: C1 Vol.: 50
Chanel 2 Note On - Duracao: 561960 Nota: C1 Vol.: 49
Chanel 1 Note Off - Duracao: 562020 Nota: C1 Vol.: 52
Chanel 1 Note On - Duracao: 562020 Nota: C1 Vol.: 65
Chanel 1 Note Off - Duracao: 562500 Nota: C1 Vol.: 65
Chanel 1 Note On - Duracao: 562500 Nota: C1 Vol.: 62
Chanel 1 Note Off - Duracao: 562980 Nota: C1 Vol.: 62
Chanel 1 Note On - Duracao: 562980 Nota: C1 Vol.: 50
Chanel 3 Note Off - Duracao: 563580 Nota: C1 Vol.: 41
Chanel 3 Note On - Duracao: 563580 Nota: C1 Vol.: 44
Chanel 1 Note Off - Duracao: 563940 Nota: C1 Vol.: 50
Chanel 1 Note On - Duracao: 563940 Nota: C1 Vol.: 49
Chanel 1 Note Off - Duracao: 564900 Nota: C1 Vol.: 49
Chanel 1 Note On - Duracao: 564900 Nota: C1 Vol.: 58
Chanel 1 Note Off - Duracao: 565140 Nota: C1 Vol.: 58
Chanel 1 Note On - Duracao: 565140 Nota: C1 Vol.: 71
Chanel 1 Note Off - Duracao: 565200 Nota: C1 Vol.: 71
Chanel 1 Note On - Duracao: 565200 Nota: C1 Vol.: 73
Chanel 1 Note Off - Duracao: 565260 Nota: C1 Vol.: 73
Chanel 1 Note On - Duracao: 565260 Nota: C1 Vol.: 62
Chanel 1 Note Off - Duracao: 565500 Nota: C1 Vol.: 62
Chanel 1 Note On - Duracao: 565500 Nota: C1 Vol.: 44
Chanel 3 Note Off - Duracao: 565500 Nota: C1 Vol.: 44
Chanel 3 Note On - Duracao: 565500 Nota: C1 Vol.: 45
Chanel 2 Note Off - Duracao: 565800 Nota: C1 Vol.: 49
Chanel 2 Note On - Duracao: 565800 Nota: C1 Vol.: 49
Chanel 1 Note Off - Duracao: 566460 Nota: C1 Vol.: 44
Chanel 1 Note On - Duracao: 566460 Nota: C1 Vol.: 62
Chanel 1 Note Off - Duracao: 566940 Nota: C1 Vol.: 62
Chanel 1 Note On - Duracao: 566940 Nota: C1 Vol.: 68
Chanel 1 Note Off - Duracao: 567420 Nota: C1 Vol.: 68
Chanel 1 Note On - Duracao: 567420 Nota: C1 Vol.: 76
Chanel 2 Note Off - Duracao: 567720 Nota: C1 Vol.: 49
Chanel 2 Note On - Duracao: 567720 Nota: C1 Vol.: 47
Chanel 1 Note Off - Duracao: 567900 Nota: C1 Vol.: 76
Chanel 1 Note On - Duracao: 567900 Nota: C1 Vol.: 100
Chanel 1 Note Off - Duracao: 568020 Nota: C1 Vol.: 100
Chanel 1 Note On - Duracao: 568020 Nota: C1 Vol.: 100
Chanel 1 Note Off - Duracao: 568140 Nota: C1 Vol.: 100
Chanel 1 Note On - Duracao: 568140 Nota: C1 Vol.: 94
Chanel 1 Note Off - Duracao: 568380 Nota: C1 Vol.: 94
Chanel 1 Note On - Duracao: 568380 Nota: C1 Vol.: 73
Chanel 1 Note Off - Duracao: 569340 Nota: C1 Vol.: 73
Chanel 1 Note On - Duracao: 569340 Nota: C1 Vol.: 87
Chanel 3 Note Off - Duracao: 569340 Nota: C1 Vol.: 45
Chanel 3 Note On - Duracao: 569340 Nota: C1 Vol.: 52
Chanel 2 Note Off - Duracao: 569640 Nota: C1 Vol.: 47
Chanel 2 Note On - Duracao: 569640 Nota: C1 Vol.: 43
Chanel 1 Note Off - Duracao: 569820 Nota: C1 Vol.: 87
Chanel 1 Note On - Duracao: 569820 Nota: C1 Vol.: 79
Chanel 1 Note Off - Duracao: 570300 Nota: C1 Vol.: 79
Chanel 1 Note On - Duracao: 570300 Nota: C1 Vol.: 49
Chanel 2 Note Off - Duracao: 571560 Nota: C1 Vol.: 43
Chanel 2 Note On - Duracao: 571560 Nota: C1 Vol.: 72
Chanel 2 Note Off - Duracao: 572040 Nota: C1 Vol.: 72
Chanel 2 Note On - Duracao: 572040 Nota: C1 Vol.: 63
Chanel 1 Note Off - Duracao: 572220 Nota: C1 Vol.: 49
Chanel 1 Note On - Duracao: 572220 Nota: C1 Vol.: 44
Chanel 2 Note Off - Duracao: 573000 Nota: C1 Vol.: 63
Chanel 2 Note On - Duracao: 573000 Nota: C1 Vol.: 52
Chanel 1 Note Off - Duracao: 573180 Nota: C1 Vol.: 44
Chanel 1 Note On - Duracao: 573180 Nota: C1 Vol.: 63
Chanel 3 Note Off - Duracao: 573180 Nota: C1 Vol.: 52
Chanel 3 Note On - Duracao: 573180 Nota: C1 Vol.: 63
Chanel 1 Note Off - Duracao: 573240 Nota: C1 Vol.: 63
Chanel 1 Note On - Duracao: 573240 Nota: C1 Vol.: 57
Chanel 1 Note Off - Duracao: 573360 Nota: C1 Vol.: 57
Chanel 1 Note On - Duracao: 573360 Nota: C1 Vol.: 54
Chanel 1 Note Off - Duracao: 573600 Nota: C1 Vol.: 54
Chanel 1 Note On - Duracao: 573600 Nota: C1 Vol.: 43
Chanel 2 Note Off - Duracao: 573960 Nota: C1 Vol.: 52
Chanel 2 Note On - Duracao: 573960 Nota: C1 Vol.: 51
Chanel 1 Note Off - Duracao: 574560 Nota: C1 Vol.: 43
Chanel 1 Note On - Duracao: 574560 Nota: C1 Vol.: 47
Chanel 2 Note Off - Duracao: 574920 Nota: C1 Vol.: 51
Chanel 2 Note On - Duracao: 574920 Nota: C1 Vol.: 58
Chanel 3 Note Off - Duracao: 575100 Nota: C1 Vol.: 63
Chanel 3 Note On - Duracao: 575100 Nota: C1 Vol.: 78
Chanel 3 Note Off - Duracao: 575580 Nota: C1 Vol.: 78
Chanel 3 Note On - Duracao: 575580 Nota: C1 Vol.: 90
Chanel 3 Note Off - Duracao: 575700 Nota: C1 Vol.: 90
Chanel 3 Note On - Duracao: 575700 Nota: C1 Vol.: 80
Chanel 2 Note Off - Duracao: 575880 Nota: C1 Vol.: 58
Chanel 2 Note On - Duracao: 575880 Nota: C1 Vol.: 56
Chanel 3 Note Off - Duracao: 575940 Nota: C1 Vol.: 80
Chanel 3 Note On - Duracao: 575940 Nota: C1 Vol.: 50
Chanel 1 Note Off - Duracao: 576480 Nota: C1 Vol.: 47
Chanel 1 Note On - Duracao: 576480 Nota: C1 Vol.: 50
Chanel 2 Note Off - Duracao: 577800 Nota: C1 Vol.: 56
Chanel 2 Note On - Duracao: 577800 Nota: C1 Vol.: 59
Chanel 3 Note Off - Duracao: 577860 Nota: C1 Vol.: 50
Chanel 3 Note On - Duracao: 577860 Nota: C1 Vol.: 45
Chanel 1 Note Off - Duracao: 578400 Nota: C1 Vol.: 50
Chanel 1 Note On - Duracao: 578400 Nota: C1 Vol.: 50
Chanel 2 Note Off - Duracao: 579720 Nota: C1 Vol.: 59
Chanel 2 Note On - Duracao: 579720 Nota: C1 Vol.: 58
Chanel 1 Note Off - Duracao: 580320 Nota: C1 Vol.: 50
Chanel 1 Note On - Duracao: 580320 Nota: C1 Vol.: 53
Chanel 2 Note Off - Duracao: 581640 Nota: C1 Vol.: 58
Chanel 2 Note On - Duracao: 581640 Nota: C1 Vol.: 67
Chanel 3 Note Off - Duracao: 581700 Nota: C1 Vol.: 45
Chanel 3 Note On - Duracao: 581700 Nota: C1 Vol.: 45
Chanel 2 Note Off - Duracao: 582120 Nota: C1 Vol.: 67
Chanel 2 Note On - Duracao: 582120 Nota: C1 Vol.: 52
Chanel 1 Note Off - Duracao: 582240 Nota: C1 Vol.: 53
Chanel 1 Note On - Duracao: 582240 Nota: C1 Vol.: 57
Chanel 2 Note Off - Duracao: 583080 Nota: C1 Vol.: 52
Chanel 2 Note On - Duracao: 583080 Nota: C1 Vol.: 54
Chanel 1 Note Off - Duracao: 584160 Nota: C1 Vol.: 57
Chanel 1 Note On - Duracao: 584160 Nota: C1 Vol.: 67
Chanel 2 Note Off - Duracao: 585000 Nota: C1 Vol.: 54
Chanel 2 Note On - Duracao: 585000 Nota: C1 Vol.: 52
Chanel 1 Note Off - Duracao: 585120 Nota: C1 Vol.: 67
Chanel 1 Note On - Duracao: 585120 Nota: C1 Vol.: 71
Chanel 3 Note Off - Duracao: 585540 Nota: C1 Vol.: 45
Chanel 3 Note On - Duracao: 585540 Nota: C1 Vol.: 51
Chanel 1 Note Off - Duracao: 585600 Nota: C1 Vol.: 71
Chanel 1 Note On - Duracao: 585600 Nota: C1 Vol.: 82
Chanel 1 Note Off - Duracao: 585840 Nota: C1 Vol.: 82
Chanel 1 Note On - Duracao: 585840 Nota: C1 Vol.: 48
Chanel 3 Note Off - Duracao: 587460 Nota: C1 Vol.: 51
Chanel 3 Note On - Duracao: 587460 Nota: C1 Vol.: 48
Chanel 1 Note Off - Duracao: 587760 Nota: C1 Vol.: 48
Chanel 1 Note On - Duracao: 587760 Nota: C1 Vol.: 52
Chanel 2 Note Off - Duracao: 588840 Nota: C1 Vol.: 52
Chanel 2 Note On - Duracao: 588840 Nota: C1 Vol.: 52
Chanel 1 Note Off - Duracao: 589680 Nota: C1 Vol.: 52
Chanel 1 Note On - Duracao: 589680 Nota: C1 Vol.: 49
Chanel 2 Note Off - Duracao: 590760 Nota: C1 Vol.: 52
Chanel 2 Note On - Duracao: 590760 Nota: C1 Vol.: 47
Chanel 3 Note Off - Duracao: 591300 Nota: C1 Vol.: 48
Chanel 3 Note On - Duracao: 591300 Nota: C1 Vol.: 45
Chanel 1 Note Off - Duracao: 591600 Nota: C1 Vol.: 49
Chanel 1 Note On - Duracao: 591600 Nota: C1 Vol.: 53
Chanel 1 Note Off - Duracao: 593520 Nota: C1 Vol.: 53
Chanel 1 Note On - Duracao: 593520 Nota: C1 Vol.: 48
Chanel 2 Note Off - Duracao: 594600 Nota: C1 Vol.: 47
Chanel 2 Note On - Duracao: 594600 Nota: C1 Vol.: 48
Chanel 3 Note Off - Duracao: 595140 Nota: C1 Vol.: 45
Chanel 3 Note On - Duracao: 595140 Nota: C1 Vol.: 46
Chanel 1 Note Off - Duracao: 595440 Nota: C1 Vol.: 48
Chanel 1 Note On - Duracao: 595440 Nota: C1 Vol.: 56
Chanel 1 Note Off - Duracao: 596400 Nota: C1 Vol.: 56
Chanel 1 Note On - Duracao: 596400 Nota: C1 Vol.: 48
Chanel 2 Note Off - Duracao: 596520 Nota: C1 Vol.: 48
Chanel 2 Note On - Duracao: 596520 Nota: C1 Vol.: 56
Chanel 1 Note Off - Duracao: 598320 Nota: C1 Vol.: 48
Chanel 1 Note On - Duracao: 598320 Nota: C1 Vol.: 46
Chanel 2 Note Off - Duracao: 598440 Nota: C1 Vol.: 56
Chanel 2 Note On - Duracao: 598440 Nota: C1 Vol.: 47
Chanel 3 Note Off - Duracao: 598980 Nota: C1 Vol.: 46
Chanel 3 Note On - Duracao: 598980 Nota: C1 Vol.: 50
Chanel 1 Note Off - Duracao: 600240 Nota: C1 Vol.: 46
Chanel 1 Note On - Duracao: 600240 Nota: C1 Vol.: 85
Chanel 1 Note Off - Duracao: 600480 Nota: C1 Vol.: 85
Chanel 1 Note On - Duracao: 600480 Nota: C1 Vol.: 86
Chanel 1 Note Off - Duracao: 600720 Nota: C1 Vol.: 86
Chanel 1 Note On - Duracao: 600720 Nota: C1 Vol.: 53
Chanel 2 Note Off - Duracao: 602280 Nota: C1 Vol.: 47
Chanel 2 Note On - Duracao: 602280 Nota: C1 Vol.: 45
Chanel 1 Note Off - Duracao: 602640 Nota: C1 Vol.: 53
Chanel 1 Note On - Duracao: 602640 Nota: C1 Vol.: 54
Chanel 3 Note Off - Duracao: 602820 Nota: C1 Vol.: 50
Chanel 3 Note On - Duracao: 602820 Nota: C1 Vol.: 42
Chanel 1 Note Off - Duracao: 604560 Nota: C1 Vol.: 54
Chanel 1 Note On - Duracao: 604560 Nota: C1 Vol.: 56
Chanel 1 Note Off - Duracao: 605520 Nota: C1 Vol.: 56
Chanel 1 Note On - Duracao: 605520 Nota: C1 Vol.: 46
Chanel 2 Note Off - Duracao: 606120 Nota: C1 Vol.: 45
Chanel 2 Note On - Duracao: 606120 Nota: C1 Vol.: 43
Chanel 3 Note Off - Duracao: 606660 Nota: C1 Vol.: 42
Chanel 3 Note On - Duracao: 606660 Nota: C1 Vol.: 43
Chanel 1 Note Off - Duracao: 607440 Nota: C1 Vol.: 46
Chanel 1 Note On - Duracao: 607440 Nota: C1 Vol.: 57
Chanel 1 Note Off - Duracao: 608400 Nota: C1 Vol.: 57
Chanel 1 Note On - Duracao: 608400 Nota: C1 Vol.: 58
Chanel 1 Note Off - Duracao: 609360 Nota: C1 Vol.: 58
Chanel 1 Note On - Duracao: 609360 Nota: C1 Vol.: 57
Chanel 2 Note Off - Duracao: 609960 Nota: C1 Vol.: 43
Chanel 2 Note On - Duracao: 609960 Nota: C1 Vol.: 48
Chanel 1 Note Off - Duracao: 610320 Nota: C1 Vol.: 57
Chanel 1 Note On - Duracao: 610320 Nota: C1 Vol.: 53
Chanel 3 Note Off - Duracao: 610500 Nota: C1 Vol.: 43
Chanel 3 Note On - Duracao: 610500 Nota: C1 Vol.: 46
Chanel 2 Note Off - Duracao: 611880 Nota: C1 Vol.: 48
Chanel 2 Note On - Duracao: 611880 Nota: C1 Vol.: 44
Chanel 1 Note Off - Duracao: 612240 Nota: C1 Vol.: 53
Chanel 1 Note On - Duracao: 612240 Nota: C1 Vol.: 60
Chanel 1 Note Off - Duracao: 612720 Nota: C1 Vol.: 60
Chanel 1 Note On - Duracao: 612720 Nota: C1 Vol.: 56
Chanel 1 Note Off - Duracao: 613680 Nota: C1 Vol.: 56
Chanel 1 Note On - Duracao: 613680 Nota: C1 Vol.: 53
Chanel 2 Note Off - Duracao: 613800 Nota: C1 Vol.: 44
Chanel 2 Note On - Duracao: 613800 Nota: C1 Vol.: 40
Chanel 3 Note Off - Duracao: 614340 Nota: C1 Vol.: 46
Chanel 3 Note On - Duracao: 614340 Nota: C1 Vol.: 46
Chanel 1 Note Off - Duracao: 614640 Nota: C1 Vol.: 53
Chanel 1 Note On - Duracao: 614640 Nota: C1 Vol.: 52
Chanel 1 Note Off - Duracao: 615600 Nota: C1 Vol.: 52
Chanel 1 Note On - Duracao: 615600 Nota: C1 Vol.: 60
Chanel 1 Note Off - Duracao: 615840 Nota: C1 Vol.: 60
Chanel 1 Note On - Duracao: 615840 Nota: C1 Vol.: 70
Chanel 1 Note Off - Duracao: 615960 Nota: C1 Vol.: 70
Chanel 1 Note On - Duracao: 615960 Nota: C1 Vol.: 66
Chanel 1 Note Off - Duracao: 616200 Nota: C1 Vol.: 66
Chanel 1 Note On - Duracao: 616200 Nota: C1 Vol.: 40
Chanel 2 Note Off - Duracao: 617640 Nota: C1 Vol.: 40
Chanel 2 Note On - Duracao: 617640 Nota: C1 Vol.: 48
Chanel 1 Note Off - Duracao: 618120 Nota: C1 Vol.: 40
Chanel 1 Note On - Duracao: 618120 Nota: C1 Vol.: 58
Chanel 3 Note Off - Duracao: 618180 Nota: C1 Vol.: 46
Chanel 3 Note On - Duracao: 618180 Nota: C1 Vol.: 46
Chanel 1 Note Off - Duracao: 618600 Nota: C1 Vol.: 58
Chanel 1 Note On - Duracao: 618600 Nota: C1 Vol.: 47
Chanel 1 Note Off - Duracao: 619560 Nota: C1 Vol.: 47
Chanel 1 Note On - Duracao: 619560 Nota: C1 Vol.: 59
Chanel 2 Note Off - Duracao: 619560 Nota: C1 Vol.: 48
Chanel 2 Note On - Duracao: 619560 Nota: C1 Vol.: 67
Chanel 2 Note Off - Duracao: 620040 Nota: C1 Vol.: 67
Chanel 2 Note On - Duracao: 620040 Nota: C1 Vol.: 70
Chanel 1 Note Off - Duracao: 620520 Nota: C1 Vol.: 59
Chanel 1 Note On - Duracao: 620520 Nota: C1 Vol.: 66
Chanel 2 Note Off - Duracao: 620520 Nota: C1 Vol.: 70
Chanel 2 Note On - Duracao: 620520 Nota: C1 Vol.: 67
Chanel 2 Note Off - Duracao: 621000 Nota: C1 Vol.: 67
Chanel 2 Note On - Duracao: 621000 Nota: C1 Vol.: 86
Chanel 2 Note Off - Duracao: 621240 Nota: C1 Vol.: 86
Chanel 2 Note On - Duracao: 621240 Nota: C1 Vol.: 67
Chanel 1 Note Off - Duracao: 621480 Nota: C1 Vol.: 66
Chanel 1 Note On - Duracao: 621480 Nota: C1 Vol.: 94
Chanel 1 Note Off - Duracao: 621720 Nota: C1 Vol.: 94
Chanel 1 Note On - Duracao: 621720 Nota: C1 Vol.: 91
Chanel 2 Note Off - Duracao: 621720 Nota: C1 Vol.: 67
Chanel 2 Note On - Duracao: 621720 Nota: C1 Vol.: 61
Chanel 1 Note Off - Duracao: 621960 Nota: C1 Vol.: 91
Chanel 1 Note On - Duracao: 621960 Nota: C1 Vol.: 87
Chanel 2 Note Off - Duracao: 621960 Nota: C1 Vol.: 61
Chanel 2 Note On - Duracao: 621960 Nota: C1 Vol.: 61
Chanel 3 Note Off - Duracao: 622020 Nota: C1 Vol.: 46
Chanel 3 Note On - Duracao: 622020 Nota: C1 Vol.: 50
Chanel 1 Note Off - Duracao: 622200 Nota: C1 Vol.: 87
Chanel 1 Note On - Duracao: 622200 Nota: C1 Vol.: 78
Chanel 2 Note Off - Duracao: 622200 Nota: C1 Vol.: 61
Chanel 2 Note On - Duracao: 622200 Nota: C1 Vol.: 63
Chanel 1 Note Off - Duracao: 622680 Nota: C1 Vol.: 78
Chanel 1 Note On - Duracao: 622680 Nota: C1 Vol.: 68
Chanel 2 Note Off - Duracao: 622680 Nota: C1 Vol.: 63
Chanel 2 Note On - Duracao: 622680 Nota: C1 Vol.: 68
Chanel 2 Note Off - Duracao: 623160 Nota: C1 Vol.: 68
Chanel 2 Note On - Duracao: 623160 Nota: C1 Vol.: 60
Chanel 1 Note Off - Duracao: 623640 Nota: C1 Vol.: 68
Chanel 1 Note On - Duracao: 623640 Nota: C1 Vol.: 73
Chanel 1 Note Off - Duracao: 624120 Nota: C1 Vol.: 73
Chanel 1 Note On - Duracao: 624120 Nota: C1 Vol.: 61
Chanel 2 Note Off - Duracao: 624120 Nota: C1 Vol.: 60
Chanel 2 Note On - Duracao: 624120 Nota: C1 Vol.: 40
Chanel 1 Note Off - Duracao: 625080 Nota: C1 Vol.: 61
Chanel 1 Note On - Duracao: 625080 Nota: C1 Vol.: 45
Chanel 3 Note Off - Duracao: 625860 Nota: C1 Vol.: 50
Chanel 3 Note On - Duracao: 625860 Nota: C1 Vol.: 63
Chanel 1 Note Off - Duracao: 626040 Nota: C1 Vol.: 45
Chanel 1 Note On - Duracao: 626040 Nota: C1 Vol.: 48
Chanel 1 Note Off - Duracao: 626520 Nota: C1 Vol.: 48
Chanel 1 Note On - Duracao: 626520 Nota: C1 Vol.: 62
Chanel 1 Note Off - Duracao: 626640 Nota: C1 Vol.: 62
Chanel 1 Note On - Duracao: 626640 Nota: C1 Vol.: 51
Chanel 1 Note Off - Duracao: 627120 Nota: C1 Vol.: 51
Chanel 1 Note On - Duracao: 627120 Nota: C1 Vol.: 44
Chanel 3 Note Off - Duracao: 627780 Nota: C1 Vol.: 63
Chanel 3 Note On - Duracao: 627780 Nota: C1 Vol.: 84
Chanel 2 Note Off - Duracao: 627960 Nota: C1 Vol.: 40
Chanel 2 Note On - Duracao: 627960 Nota: C1 Vol.: 41
Chanel 1 Note Off - Duracao: 628080 Nota: C1 Vol.: 44
Chanel 1 Note On - Duracao: 628080 Nota: C1 Vol.: 48
Chanel 3 Note Off - Duracao: 628260 Nota: C1 Vol.: 84
Chanel 3 Note On - Duracao: 628260 Nota: C1 Vol.: 100
Chanel 3 Note Off - Duracao: 628380 Nota: C1 Vol.: 100
Chanel 3 Note On - Duracao: 628380 Nota: C1 Vol.: 100
Chanel 3 Note Off - Duracao: 628500 Nota: C1 Vol.: 100
Chanel 3 Note On - Duracao: 628500 Nota: C1 Vol.: 69
Chanel 3 Note Off - Duracao: 629460 Nota: C1 Vol.: 69
Chanel 3 Note On - Duracao: 629460 Nota: C1 Vol.: 51
Chanel 1 Note Off - Duracao: 630000 Nota: C1 Vol.: 48
Chanel 1 Note On - Duracao: 630000 Nota: C1 Vol.: 52
Chanel 2 Note Off - Duracao: 631800 Nota: C1 Vol.: 41
Chanel 2 Note On - Duracao: 631800 Nota: C1 Vol.: 52
Chanel 1 Note Off - Duracao: 631920 Nota: C1 Vol.: 52
Chanel 1 Note On - Duracao: 631920 Nota: C1 Vol.: 50
Chanel 2 Note Off - Duracao: 632760 Nota: C1 Vol.: 52
Chanel 2 Note On - Duracao: 632760 Nota: C1 Vol.: 62
Chanel 2 Note Off - Duracao: 633000 Nota: C1 Vol.: 62
Chanel 2 Note On - Duracao: 633000 Nota: C1 Vol.: 54
Chanel 3 Note Off - Duracao: 633300 Nota: C1 Vol.: 51
Chanel 3 Note On - Duracao: 633300 Nota: C1 Vol.: 45
Chanel 1 Note Off - Duracao: 633840 Nota: C1 Vol.: 50
Chanel 1 Note On - Duracao: 633840 Nota: C1 Vol.: 51
Chanel 2 Note Off - Duracao: 633960 Nota: C1 Vol.: 54
Chanel 2 Note On - Duracao: 633960 Nota: C1 Vol.: 45
Chanel 1 Note Off - Duracao: 635760 Nota: C1 Vol.: 51
Chanel 1 Note On - Duracao: 635760 Nota: C1 Vol.: 58
Chanel 1 Note Off - Duracao: 636720 Nota: C1 Vol.: 58
Chanel 1 Note On - Duracao: 636720 Nota: C1 Vol.: 65
Chanel 3 Note Off - Duracao: 637140 Nota: C1 Vol.: 45
Chanel 3 Note On - Duracao: 637140 Nota: C1 Vol.: 40
Chanel 1 Note Off - Duracao: 637680 Nota: C1 Vol.: 65
Chanel 1 Note On - Duracao: 637680 Nota: C1 Vol.: 61
Chanel 2 Note Off - Duracao: 637800 Nota: C1 Vol.: 45
Chanel 2 Note On - Duracao: 637800 Nota: C1 Vol.: 73
Chanel 1 Note Off - Duracao: 638640 Nota: C1 Vol.: 61
Chanel 1 Note On - Duracao: 638640 Nota: C1 Vol.: 57
Chanel 2 Note Off - Duracao: 638760 Nota: C1 Vol.: 73
Chanel 2 Note On - Duracao: 638760 Nota: C1 Vol.: 95
Chanel 2 Note Off - Duracao: 638880 Nota: C1 Vol.: 95
Chanel 2 Note On - Duracao: 638880 Nota: C1 Vol.: 88
Chanel 2 Note Off - Duracao: 639000 Nota: C1 Vol.: 88
Chanel 2 Note On - Duracao: 639000 Nota: C1 Vol.: 51
Chanel 1 Note Off - Duracao: 639600 Nota: C1 Vol.: 57
Chanel 1 Note On - Duracao: 639600 Nota: C1 Vol.: 56
Chanel 1 Note Off - Duracao: 640560 Nota: C1 Vol.: 56
Chanel 1 Note On - Duracao: 640560 Nota: C1 Vol.: 55
Chanel 2 Note Off - Duracao: 640920 Nota: C1 Vol.: 51
Chanel 2 Note On - Duracao: 640920 Nota: C1 Vol.: 41
Chanel 3 Note Off - Duracao: 640980 Nota: C1 Vol.: 40
Chanel 3 Note On - Duracao: 640980 Nota: C1 Vol.: 41
Chanel 1 Note Off - Duracao: 641520 Nota: C1 Vol.: 55
Chanel 1 Note On - Duracao: 641520 Nota: C1 Vol.: 54
Chanel 1 Note Off - Duracao: 643440 Nota: C1 Vol.: 54
Chanel 1 Note On - Duracao: 643440 Nota: C1 Vol.: 62
Chanel 1 Note Off - Duracao: 644400 Nota: C1 Vol.: 62
Chanel 1 Note On - Duracao: 644400 Nota: C1 Vol.: 70
Chanel 2 Note Off - Duracao: 644760 Nota: C1 Vol.: 41
Chanel 2 Note On - Duracao: 644760 Nota: C1 Vol.: 44
Chanel 3 Note Off - Duracao: 644820 Nota: C1 Vol.: 41
Chanel 3 Note On - Duracao: 644820 Nota: C1 Vol.: 44
Chanel 1 Note Off - Duracao: 644880 Nota: C1 Vol.: 70
Chanel 1 Note On - Duracao: 644880 Nota: C1 Vol.: 62
Chanel 1 Note Off - Duracao: 645840 Nota: C1 Vol.: 62
Chanel 1 Note On - Duracao: 645840 Nota: C1 Vol.: 49
Chanel 1 Note Off - Duracao: 647760 Nota: C1 Vol.: 49
Chanel 1 Note On - Duracao: 647760 Nota: C1 Vol.: 46
Chanel 2 Note Off - Duracao: 648600 Nota: C1 Vol.: 44
Chanel 2 Note On - Duracao: 648600 Nota: C1 Vol.: 51
Chanel 3 Note Off - Duracao: 648660 Nota: C1 Vol.: 44
Chanel 3 Note On - Duracao: 648660 Nota: C1 Vol.: 42
Chanel 1 Note Off - Duracao: 649680 Nota: C1 Vol.: 46
Chanel 1 Note On - Duracao: 649680 Nota: C1 Vol.: 88
Chanel 1 Note Off - Duracao: 649920 Nota: C1 Vol.: 88
Chanel 1 Note On - Duracao: 649920 Nota: C1 Vol.: 82
Chanel 1 Note Off - Duracao: 650160 Nota: C1 Vol.: 82
Chanel 1 Note On - Duracao: 650160 Nota: C1 Vol.: 63
Chanel 1 Note Off - Duracao: 651120 Nota: C1 Vol.: 63
Chanel 1 Note On - Duracao: 651120 Nota: C1 Vol.: 50
Chanel 2 Note Off - Duracao: 652440 Nota: C1 Vol.: 51
Chanel 2 Note On - Duracao: 652440 Nota: C1 Vol.: 47
Chanel 3 Note Off - Duracao: 652500 Nota: C1 Vol.: 42
Chanel 3 Note On - Duracao: 652500 Nota: C1 Vol.: 44
Chanel 1 Note Off - Duracao: 653040 Nota: C1 Vol.: 50
Chanel 1 Note On - Duracao: 653040 Nota: C1 Vol.: 56
Chanel 1 Note Off - Duracao: 654000 Nota: C1 Vol.: 56
Chanel 1 Note On - Duracao: 654000 Nota: C1 Vol.: 54
Chanel 1 Note Off - Duracao: 655920 Nota: C1 Vol.: 54
Chanel 1 Note On - Duracao: 655920 Nota: C1 Vol.: 72
Chanel 2 Note Off - Duracao: 656280 Nota: C1 Vol.: 47
Chanel 2 Note On - Duracao: 656280 Nota: C1 Vol.: 43
Chanel 3 Note Off - Duracao: 656340 Nota: C1 Vol.: 44
Chanel 3 Note On - Duracao: 656340 Nota: C1 Vol.: 45
Chanel 1 Note Off - Duracao: 656400 Nota: C1 Vol.: 72
Chanel 1 Note On - Duracao: 656400 Nota: C1 Vol.: 82
Chanel 1 Note Off - Duracao: 656640 Nota: C1 Vol.: 82
Chanel 1 Note On - Duracao: 656640 Nota: C1 Vol.: 62
Chanel 1 Note Off - Duracao: 657600 Nota: C1 Vol.: 62
Chanel 1 Note On - Duracao: 657600 Nota: C1 Vol.: 66
Chanel 1 Note Off - Duracao: 658560 Nota: C1 Vol.: 66
Chanel 1 Note On - Duracao: 658560 Nota: C1 Vol.: 90
Chanel 1 Note Off - Duracao: 658680 Nota: C1 Vol.: 90
Chanel 1 Note On - Duracao: 658680 Nota: C1 Vol.: 82
Chanel 1 Note Off - Duracao: 658920 Nota: C1 Vol.: 82
Chanel 1 Note On - Duracao: 658920 Nota: C1 Vol.: 63
Chanel 1 Note Off - Duracao: 659880 Nota: C1 Vol.: 63
Chanel 1 Note On - Duracao: 659880 Nota: C1 Vol.: 52
Chanel 2 Note Off - Duracao: 660120 Nota: C1 Vol.: 43
Chanel 2 Note On - Duracao: 660120 Nota: C1 Vol.: 42
Chanel 3 Note Off - Duracao: 660180 Nota: C1 Vol.: 45
Chanel 3 Note On - Duracao: 660180 Nota: C1 Vol.: 44
Chanel 1 Note Off - Duracao: 661800 Nota: C1 Vol.: 52
Chanel 1 Note On - Duracao: 661800 Nota: C1 Vol.: 58
Chanel 1 Note Off - Duracao: 662760 Nota: C1 Vol.: 58
Chanel 1 Note On - Duracao: 662760 Nota: C1 Vol.: 74
Chanel 1 Note Off - Duracao: 663000 Nota: C1 Vol.: 74
Chanel 1 Note On - Duracao: 663000 Nota: C1 Vol.: 72
Chanel 1 Note Off - Duracao: 663240 Nota: C1 Vol.: 72
Chanel 1 Note On - Duracao: 663240 Nota: C1 Vol.: 47
Chanel 2 Note Off - Duracao: 663960 Nota: C1 Vol.: 42
Chanel 2 Note On - Duracao: 663960 Nota: C1 Vol.: 42
Chanel 3 Note Off - Duracao: 664020 Nota: C1 Vol.: 44
Chanel 3 Note On - Duracao: 664020 Nota: C1 Vol.: 41
Chanel 1 Note Off - Duracao: 665160 Nota: C1 Vol.: 47
Chanel 1 Note On - Duracao: 665160 Nota: C1 Vol.: 71
Chanel 1 Note Off - Duracao: 665400 Nota: C1 Vol.: 71
Chanel 1 Note On - Duracao: 665400 Nota: C1 Vol.: 70
Chanel 1 Note Off - Duracao: 665640 Nota: C1 Vol.: 70
Chanel 1 Note On - Duracao: 665640 Nota: C1 Vol.: 67
Chanel 1 Note Off - Duracao: 666120 Nota: C1 Vol.: 67
Chanel 1 Note On - Duracao: 666120 Nota: C1 Vol.: 67
Chanel 1 Note Off - Duracao: 667080 Nota: C1 Vol.: 67
Chanel 1 Note On - Duracao: 667080 Nota: C1 Vol.: 79
Chanel 1 Note Off - Duracao: 667560 Nota: C1 Vol.: 79
Chanel 1 Note On - Duracao: 667560 Nota: C1 Vol.: 96
Chanel 1 Note Off - Duracao: 667800 Nota: C1 Vol.: 96
Chanel 1 Note On - Duracao: 667800 Nota: C1 Vol.: 79
Chanel 2 Note Off - Duracao: 667800 Nota: C1 Vol.: 42
Chanel 2 Note On - Duracao: 667800 Nota: C1 Vol.: 47
Chanel 3 Note Off - Duracao: 667860 Nota: C1 Vol.: 41
Chanel 3 Note On - Duracao: 667860 Nota: C1 Vol.: 40
Chanel 1 Note Off - Duracao: 668280 Nota: C1 Vol.: 79
Chanel 1 Note On - Duracao: 668280 Nota: C1 Vol.: 67
Chanel 1 Note Off - Duracao: 669240 Nota: C1 Vol.: 67
Chanel 1 Note On - Duracao: 669240 Nota: C1 Vol.: 68
Chanel 1 Note Off - Duracao: 670200 Nota: C1 Vol.: 68
Chanel 1 Note On - Duracao: 670200 Nota: C1 Vol.: 72
Chanel 1 Note Off - Duracao: 670680 Nota: C1 Vol.: 72
Chanel 1 Note On - Duracao: 670680 Nota: C1 Vol.: 74
Chanel 1 Note Off - Duracao: 670920 Nota: C1 Vol.: 74
Chanel 1 Note On - Duracao: 670920 Nota: C1 Vol.: 51
Chanel 2 Note Off - Duracao: 671640 Nota: C1 Vol.: 47
Chanel 2 Note On - Duracao: 671640 Nota: C1 Vol.: 62
Chanel 3 Note Off - Duracao: 671700 Nota: C1 Vol.: 40
Chanel 3 Note On - Duracao: 671700 Nota: C1 Vol.: 40
Chanel 1 Note Off - Duracao: 671880 Nota: C1 Vol.: 51
Chanel 1 Note On - Duracao: 671880 Nota: C1 Vol.: 51
Chanel 2 Note Off - Duracao: 672600 Nota: C1 Vol.: 62
Chanel 2 Note On - Duracao: 672600 Nota: C1 Vol.: 56
Chanel 1 Note Off - Duracao: 672840 Nota: C1 Vol.: 51
Chanel 1 Note On - Duracao: 672840 Nota: C1 Vol.: 49
Chanel 2 Note Off - Duracao: 673560 Nota: C1 Vol.: 56
Chanel 2 Note On - Duracao: 673560 Nota: C1 Vol.: 54
Chanel 1 Note Off - Duracao: 673800 Nota: C1 Vol.: 49
Chanel 1 Note On - Duracao: 673800 Nota: C1 Vol.: 52
Chanel 2 Note Off - Duracao: 674520 Nota: C1 Vol.: 54
Chanel 2 Note On - Duracao: 674520 Nota: C1 Vol.: 53
Chanel 1 Note Off - Duracao: 674760 Nota: C1 Vol.: 52
Chanel 1 Note On - Duracao: 674760 Nota: C1 Vol.: 46
Chanel 3 Note Off - Duracao: 675540 Nota: C1 Vol.: 40
Chanel 3 Note On - Duracao: 675540 Nota: C1 Vol.: 40
Chanel 2 Note Off - Duracao: 676440 Nota: C1 Vol.: 53
Chanel 2 Note On - Duracao: 676440 Nota: C1 Vol.: 52
Chanel 1 Note Off - Duracao: 676680 Nota: C1 Vol.: 46
Chanel 1 Note On - Duracao: 676680 Nota: C1 Vol.: 52
Chanel 2 Note Off - Duracao: 678360 Nota: C1 Vol.: 52
Chanel 2 Note On - Duracao: 678360 Nota: C1 Vol.: 54
Chanel 1 Note Off - Duracao: 678600 Nota: C1 Vol.: 52
Chanel 1 Note On - Duracao: 678600 Nota: C1 Vol.: 55
Chanel 3 Note Off - Duracao: 679380 Nota: C1 Vol.: 40
Chanel 3 Note On - Duracao: 679380 Nota: C1 Vol.: 41
Chanel 2 Note Off - Duracao: 680280 Nota: C1 Vol.: 54
Chanel 2 Note On - Duracao: 680280 Nota: C1 Vol.: 52
Chanel 1 Note Off - Duracao: 680520 Nota: C1 Vol.: 55
Chanel 1 Note On - Duracao: 680520 Nota: C1 Vol.: 52
Chanel 2 Note Off - Duracao: 682200 Nota: C1 Vol.: 52
Chanel 2 Note On - Duracao: 682200 Nota: C1 Vol.: 63
Chanel 1 Note Off - Duracao: 682440 Nota: C1 Vol.: 52
Chanel 1 Note On - Duracao: 682440 Nota: C1 Vol.: 50
Chanel 2 Note Off - Duracao: 682680 Nota: C1 Vol.: 63
Chanel 2 Note On - Duracao: 682680 Nota: C1 Vol.: 50
Chanel 3 Note Off - Duracao: 683220 Nota: C1 Vol.: 41
Chanel 3 Note On - Duracao: 683220 Nota: C1 Vol.: 41
Chanel 1 Note Off - Duracao: 684360 Nota: C1 Vol.: 50
Chanel 1 Note On - Duracao: 684360 Nota: C1 Vol.: 55
Chanel 2 Note Off - Duracao: 684600 Nota: C1 Vol.: 50
Chanel 2 Note On - Duracao: 684600 Nota: C1 Vol.: 52
Chanel 1 Note Off - Duracao: 685320 Nota: C1 Vol.: 55
Chanel 1 Note On - Duracao: 685320 Nota: C1 Vol.: 67
Chanel 1 Note Off - Duracao: 685800 Nota: C1 Vol.: 67
Chanel 1 Note On - Duracao: 685800 Nota: C1 Vol.: 61
Chanel 2 Note Off - Duracao: 686520 Nota: C1 Vol.: 52
Chanel 2 Note On - Duracao: 686520 Nota: C1 Vol.: 54
Chanel 1 Note Off - Duracao: 686760 Nota: C1 Vol.: 61
Chanel 1 Note On - Duracao: 686760 Nota: C1 Vol.: 50
Chanel 3 Note Off - Duracao: 687060 Nota: C1 Vol.: 41
Chanel 3 Note On - Duracao: 687060 Nota: C1 Vol.: 41
Chanel 2 Note Off - Duracao: 688440 Nota: C1 Vol.: 54
Chanel 2 Note On - Duracao: 688440 Nota: C1 Vol.: 53
Chanel 1 Note Off - Duracao: 688680 Nota: C1 Vol.: 50
Chanel 1 Note On - Duracao: 688680 Nota: C1 Vol.: 44
Chanel 2 Note Off - Duracao: 690360 Nota: C1 Vol.: 53
Chanel 2 Note On - Duracao: 690360 Nota: C1 Vol.: 50
Chanel 1 Note Off - Duracao: 690600 Nota: C1 Vol.: 44
Chanel 1 Note On - Duracao: 690600 Nota: C1 Vol.: 56
Chanel 3 Note Off - Duracao: 690900 Nota: C1 Vol.: 41
Chanel 3 Note On - Duracao: 690900 Nota: C1 Vol.: 42
Chanel 1 Note Off - Duracao: 691560 Nota: C1 Vol.: 56
Chanel 1 Note On - Duracao: 691560 Nota: C1 Vol.: 70
Chanel 1 Note Off - Duracao: 692040 Nota: C1 Vol.: 70
Chanel 1 Note On - Duracao: 692040 Nota: C1 Vol.: 85
Chanel 1 Note Off - Duracao: 692280 Nota: C1 Vol.: 85
Chanel 1 Note On - Duracao: 692280 Nota: C1 Vol.: 62
Chanel 1 Note Off - Duracao: 693240 Nota: C1 Vol.: 62
Chanel 1 Note On - Duracao: 693240 Nota: C1 Vol.: 71
Chanel 1 Note Off - Duracao: 693720 Nota: C1 Vol.: 71
Chanel 1 Note On - Duracao: 693720 Nota: C1 Vol.: 48
Chanel 2 Note Off - Duracao: 694200 Nota: C1 Vol.: 50
Chanel 2 Note On - Duracao: 694200 Nota: C1 Vol.: 52
Chanel 3 Note Off - Duracao: 694740 Nota: C1 Vol.: 42
Chanel 3 Note On - Duracao: 694740 Nota: C1 Vol.: 49
Chanel 1 Note Off - Duracao: 695640 Nota: C1 Vol.: 48
Chanel 1 Note On - Duracao: 695640 Nota: C1 Vol.: 44
Chanel 3 Note Off - Duracao: 696660 Nota: C1 Vol.: 49
Chanel 3 Note On - Duracao: 696660 Nota: C1 Vol.: 49
Chanel 1 Note Off - Duracao: 697560 Nota: C1 Vol.: 44
Chanel 1 Note On - Duracao: 697560 Nota: C1 Vol.: 81
Chanel 1 Note Off - Duracao: 698040 Nota: C1 Vol.: 81
Chanel 1 Note On - Duracao: 698040 Nota: C1 Vol.: 89
Chanel 2 Note Off - Duracao: 698040 Nota: C1 Vol.: 52
Chanel 2 Note On - Duracao: 698040 Nota: C1 Vol.: 49
Chanel 1 Note Off - Duracao: 698280 Nota: C1 Vol.: 89
Chanel 1 Note On - Duracao: 698280 Nota: C1 Vol.: 60
Chanel 3 Note Off - Duracao: 698580 Nota: C1 Vol.: 49
Chanel 3 Note On - Duracao: 698580 Nota: C1 Vol.: 45
Chanel 1 Note Off - Duracao: 699240 Nota: C1 Vol.: 60
Chanel 1 Note On - Duracao: 699240 Nota: C1 Vol.: 53
Chanel 1 Note Off - Duracao: 701160 Nota: C1 Vol.: 53
Chanel 1 Note On - Duracao: 701160 Nota: C1 Vol.: 56
Chanel 2 Note Off - Duracao: 701880 Nota: C1 Vol.: 49
Chanel 2 Note On - Duracao: 701880 Nota: C1 Vol.: 47
Chanel 1 Note Off - Duracao: 702120 Nota: C1 Vol.: 56
Chanel 1 Note On - Duracao: 702120 Nota: C1 Vol.: 57
Chanel 3 Note Off - Duracao: 702420 Nota: C1 Vol.: 45
Chanel 3 Note On - Duracao: 702420 Nota: C1 Vol.: 43
Chanel 1 Note Off - Duracao: 703080 Nota: C1 Vol.: 57
Chanel 1 Note On - Duracao: 703080 Nota: C1 Vol.: 81
Chanel 1 Note Off - Duracao: 703320 Nota: C1 Vol.: 81
Chanel 1 Note On - Duracao: 703320 Nota: C1 Vol.: 98
Chanel 1 Note Off - Duracao: 703440 Nota: C1 Vol.: 98
Chanel 1 Note On - Duracao: 703440 Nota: C1 Vol.: 78
Chanel 1 Note Off - Duracao: 703920 Nota: C1 Vol.: 78
Chanel 1 Note On - Duracao: 703920 Nota: C1 Vol.: 73
Chanel 1 Note Off - Duracao: 704400 Nota: C1 Vol.: 73
Chanel 1 Note On - Duracao: 704400 Nota: C1 Vol.: 99
Chanel 1 Note Off - Duracao: 704520 Nota: C1 Vol.: 99
Chanel 1 Note On - Duracao: 704520 Nota: C1 Vol.: 90
Chanel 1 Note Off - Duracao: 704640 Nota: C1 Vol.: 90
Chanel 1 Note On - Duracao: 704640 Nota: C1 Vol.: 57
Chanel 2 Note Off - Duracao: 705720 Nota: C1 Vol.: 47
Chanel 2 Note On - Duracao: 705720 Nota: C1 Vol.: 49
Chanel 3 Note Off - Duracao: 706260 Nota: C1 Vol.: 43
Chanel 3 Note On - Duracao: 706260 Nota: C1 Vol.: 47
Chanel 1 Note Off - Duracao: 706560 Nota: C1 Vol.: 57
Chanel 1 Note On - Duracao: 706560 Nota: C1 Vol.: 46
Chanel 3 Note Off - Duracao: 708180 Nota: C1 Vol.: 47
Chanel 3 Note On - Duracao: 708180 Nota: C1 Vol.: 48
Chanel 2 Note Off - Duracao: 709560 Nota: C1 Vol.: 49
Chanel 2 Note On - Duracao: 709560 Nota: C1 Vol.: 41
Chanel 3 Note Off - Duracao: 710100 Nota: C1 Vol.: 48
Chanel 3 Note On - Duracao: 710100 Nota: C1 Vol.: 44
Chanel 1 Note Off - Duracao: 710400 Nota: C1 Vol.: 46
Chanel 1 Note On - Duracao: 710400 Nota: C1 Vol.: 44
Chanel 3 Note Off - Duracao: 712020 Nota: C1 Vol.: 44
Chanel 3 Note On - Duracao: 712020 Nota: C1 Vol.: 44
Chanel 2 Note Off - Duracao: 713400 Nota: C1 Vol.: 41
Chanel 2 Note On - Duracao: 713400 Nota: C1 Vol.: 46
Chanel 3 Note Off - Duracao: 713940 Nota: C1 Vol.: 44
Chanel 3 Note On - Duracao: 713940 Nota: C1 Vol.: 45
Chanel 1 Note Off - Duracao: 714240 Nota: C1 Vol.: 44
Chanel 1 Note On - Duracao: 714240 Nota: C1 Vol.: 75
Chanel 1 Note Off - Duracao: 714480 Nota: C1 Vol.: 75
Chanel 1 Note On - Duracao: 714480 Nota: C1 Vol.: 73
Chanel 1 Note Off - Duracao: 714720 Nota: C1 Vol.: 73
Chanel 1 Note On - Duracao: 714720 Nota: C1 Vol.: 46
Chanel 2 Note Off - Duracao: 715320 Nota: C1 Vol.: 46
Chanel 2 Note On - Duracao: 715320 Nota: C1 Vol.: 60
Chanel 2 Note Off - Duracao: 716280 Nota: C1 Vol.: 60
Chanel 2 Note On - Duracao: 716280 Nota: C1 Vol.: 44
Chanel 1 Note Off - Duracao: 716640 Nota: C1 Vol.: 46
Chanel 1 Note On - Duracao: 716640 Nota: C1 Vol.: 61
Chanel 1 Note Off - Duracao: 717120 Nota: C1 Vol.: 61
Chanel 1 Note On - Duracao: 717120 Nota: C1 Vol.: 72
Chanel 1 Note Off - Duracao: 717360 Nota: C1 Vol.: 72
Chanel 1 Note On - Duracao: 717360 Nota: C1 Vol.: 64
Chanel 3 Note Off - Duracao: 717780 Nota: C1 Vol.: 45
Chanel 3 Note On - Duracao: 717780 Nota: C1 Vol.: 51
Chanel 1 Note Off - Duracao: 718320 Nota: C1 Vol.: 64
Chanel 1 Note On - Duracao: 718320 Nota: C1 Vol.: 76
Chanel 1 Note Off - Duracao: 718800 Nota: C1 Vol.: 76
Chanel 1 Note On - Duracao: 718800 Nota: C1 Vol.: 74
Chanel 1 Note Off - Duracao: 719760 Nota: C1 Vol.: 74
Chanel 1 Note On - Duracao: 719760 Nota: C1 Vol.: 77
Chanel 2 Note Off - Duracao: 720120 Nota: C1 Vol.: 44
Chanel 2 Note On - Duracao: 720120 Nota: C1 Vol.: 43
Chanel 1 Note Off - Duracao: 720240 Nota: C1 Vol.: 77
Chanel 1 Note On - Duracao: 720240 Nota: C1 Vol.: 75
Chanel 1 Note Off - Duracao: 720720 Nota: C1 Vol.: 75
Chanel 1 Note On - Duracao: 720720 Nota: C1 Vol.: 63
Chanel 3 Note Off - Duracao: 721620 Nota: C1 Vol.: 51
Chanel 3 Note On - Duracao: 721620 Nota: C1 Vol.: 50
Chanel 1 Note Off - Duracao: 721680 Nota: C1 Vol.: 63
Chanel 1 Note On - Duracao: 721680 Nota: C1 Vol.: 69
Chanel 1 Note Off - Duracao: 722160 Nota: C1 Vol.: 69
Chanel 1 Note On - Duracao: 722160 Nota: C1 Vol.: 81
Chanel 1 Note Off - Duracao: 722400 Nota: C1 Vol.: 81
Chanel 1 Note On - Duracao: 722400 Nota: C1 Vol.: 60
Chanel 1 Note Off - Duracao: 722880 Nota: C1 Vol.: 60
Chanel 1 Note On - Duracao: 722880 Nota: C1 Vol.: 54
Chanel 1 Note Off - Duracao: 723840 Nota: C1 Vol.: 54
Chanel 1 Note On - Duracao: 723840 Nota: C1 Vol.: 45
Chanel 2 Note Off - Duracao: 723960 Nota: C1 Vol.: 43
Chanel 2 Note On - Duracao: 723960 Nota: C1 Vol.: 56
Chanel 2 Note Off - Duracao: 724920 Nota: C1 Vol.: 56
Chanel 2 Note On - Duracao: 724920 Nota: C1 Vol.: 55
Chanel 3 Note Off - Duracao: 725460 Nota: C1 Vol.: 50
Chanel 3 Note On - Duracao: 725460 Nota: C1 Vol.: 61
Chanel 1 Note Off - Duracao: 725760 Nota: C1 Vol.: 45
Chanel 1 Note On - Duracao: 725760 Nota: C1 Vol.: 45
Chanel 2 Note Off - Duracao: 725880 Nota: C1 Vol.: 55
Chanel 2 Note On - Duracao: 725880 Nota: C1 Vol.: 48
Chanel 3 Note Off - Duracao: 726420 Nota: C1 Vol.: 61
Chanel 3 Note On - Duracao: 726420 Nota: C1 Vol.: 71
Chanel 3 Note Off - Duracao: 726660 Nota: C1 Vol.: 71
Chanel 3 Note On - Duracao: 726660 Nota: C1 Vol.: 71
Chanel 3 Note Off - Duracao: 726900 Nota: C1 Vol.: 71
Chanel 3 Note On - Duracao: 726900 Nota: C1 Vol.: 53
Chanel 1 Note Off - Duracao: 727680 Nota: C1 Vol.: 45
Chanel 1 Note On - Duracao: 727680 Nota: C1 Vol.: 49
Chanel 2 Note Off - Duracao: 727800 Nota: C1 Vol.: 48
Chanel 2 Note On - Duracao: 727800 Nota: C1 Vol.: 69
Chanel 3 Note Off - Duracao: 727860 Nota: C1 Vol.: 53
Chanel 3 Note On - Duracao: 727860 Nota: C1 Vol.: 45
Chanel 2 Note Off - Duracao: 728280 Nota: C1 Vol.: 69
Chanel 2 Note On - Duracao: 728280 Nota: C1 Vol.: 51
Chanel 2 Note Off - Duracao: 729240 Nota: C1 Vol.: 51
Chanel 2 Note On - Duracao: 729240 Nota: C1 Vol.: 56
Chanel 1 Note Off - Duracao: 729600 Nota: C1 Vol.: 49
Chanel 1 Note On - Duracao: 729600 Nota: C1 Vol.: 49
Chanel 2 Note Off - Duracao: 729720 Nota: C1 Vol.: 56
Chanel 2 Note On - Duracao: 729720 Nota: C1 Vol.: 65
Chanel 2 Note Off - Duracao: 729960 Nota: C1 Vol.: 65
Chanel 2 Note On - Duracao: 729960 Nota: C1 Vol.: 62
Chanel 2 Note Off - Duracao: 730440 Nota: C1 Vol.: 62
Chanel 2 Note On - Duracao: 730440 Nota: C1 Vol.: 48
Chanel 1 Note Off - Duracao: 731520 Nota: C1 Vol.: 49
Chanel 1 Note On - Duracao: 731520 Nota: C1 Vol.: 56
Chanel 3 Note Off - Duracao: 731700 Nota: C1 Vol.: 45
Chanel 3 Note On - Duracao: 731700 Nota: C1 Vol.: 46
Chanel 2 Note Off - Duracao: 732360 Nota: C1 Vol.: 48
Chanel 2 Note On - Duracao: 732360 Nota: C1 Vol.: 48
Chanel 1 Note Off - Duracao: 733440 Nota: C1 Vol.: 56
Chanel 1 Note On - Duracao: 733440 Nota: C1 Vol.: 53
Chanel 2 Note Off - Duracao: 734280 Nota: C1 Vol.: 48
Chanel 2 Note On - Duracao: 734280 Nota: C1 Vol.: 43
Chanel 3 Note Off - Duracao: 735540 Nota: C1 Vol.: 46
Chanel 3 Note On - Duracao: 735540 Nota: C1 Vol.: 48
Chanel 1 Note Off - Duracao: 737280 Nota: C1 Vol.: 53
Chanel 1 Note On - Duracao: 737280 Nota: C1 Vol.: 51
Chanel 2 Note Off - Duracao: 738120 Nota: C1 Vol.: 43
Chanel 2 Note On - Duracao: 738120 Nota: C1 Vol.: 47
Chanel 1 Note Off - Duracao: 739200 Nota: C1 Vol.: 51
Chanel 1 Note On - Duracao: 739200 Nota: C1 Vol.: 52
Chanel 3 Note Off - Duracao: 739380 Nota: C1 Vol.: 48
Chanel 3 Note On - Duracao: 739380 Nota: C1 Vol.: 45
Chanel 2 Note Off - Duracao: 740040 Nota: C1 Vol.: 47
Chanel 2 Note On - Duracao: 740040 Nota: C1 Vol.: 54
Chanel 2 Note Off - Duracao: 741000 Nota: C1 Vol.: 54
Chanel 2 Note On - Duracao: 741000 Nota: C1 Vol.: 51
Chanel 1 Note Off - Duracao: 741120 Nota: C1 Vol.: 52
Chanel 1 Note On - Duracao: 741120 Nota: C1 Vol.: 52
Chanel 2 Note Off - Duracao: 741480 Nota: C1 Vol.: 51
Chanel 2 Note On - Duracao: 741480 Nota: C1 Vol.: 74
Chanel 2 Note Off - Duracao: 741600 Nota: C1 Vol.: 74
Chanel 2 Note On - Duracao: 741600 Nota: C1 Vol.: 42
Chanel 1 Note Off - Duracao: 743040 Nota: C1 Vol.: 52
Chanel 1 Note On - Duracao: 743040 Nota: C1 Vol.: 65
Chanel 3 Note Off - Duracao: 743220 Nota: C1 Vol.: 45
Chanel 3 Note On - Duracao: 743220 Nota: C1 Vol.: 51
Chanel 1 Note Off - Duracao: 743520 Nota: C1 Vol.: 65
Chanel 1 Note On - Duracao: 743520 Nota: C1 Vol.: 53
Chanel 1 Note Off - Duracao: 744480 Nota: C1 Vol.: 53
Chanel 1 Note On - Duracao: 744480 Nota: C1 Vol.: 46
Chanel 2 Note Off - Duracao: 745440 Nota: C1 Vol.: 42
Chanel 2 Note On - Duracao: 745440 Nota: C1 Vol.: 51
Chanel 1 Note Off - Duracao: 746400 Nota: C1 Vol.: 46
Chanel 1 Note On - Duracao: 746400 Nota: C1 Vol.: 50
Chanel 3 Note Off - Duracao: 747060 Nota: C1 Vol.: 51
Chanel 3 Note On - Duracao: 747060 Nota: C1 Vol.: 52
Chanel 2 Note Off - Duracao: 747360 Nota: C1 Vol.: 51
Chanel 2 Note On - Duracao: 747360 Nota: C1 Vol.: 67
Chanel 1 Note Off - Duracao: 748320 Nota: C1 Vol.: 50
Chanel 1 Note On - Duracao: 748320 Nota: C1 Vol.: 57
Chanel 2 Note Off - Duracao: 748320 Nota: C1 Vol.: 67
Chanel 2 Note On - Duracao: 748320 Nota: C1 Vol.: 66
Chanel 2 Note Off - Duracao: 748800 Nota: C1 Vol.: 66
Chanel 2 Note On - Duracao: 748800 Nota: C1 Vol.: 62
Chanel 1 Note Off - Duracao: 749280 Nota: C1 Vol.: 57
Chanel 1 Note On - Duracao: 749280 Nota: C1 Vol.: 82
Chanel 2 Note Off - Duracao: 749280 Nota: C1 Vol.: 62
Chanel 2 Note On - Duracao: 749280 Nota: C1 Vol.: 48
Chanel 1 Note Off - Duracao: 749520 Nota: C1 Vol.: 82
Chanel 1 Note On - Duracao: 749520 Nota: C1 Vol.: 92
Chanel 1 Note Off - Duracao: 749640 Nota: C1 Vol.: 92
Chanel 1 Note On - Duracao: 749640 Nota: C1 Vol.: 70
Chanel 1 Note Off - Duracao: 750120 Nota: C1 Vol.: 70
Chanel 1 Note On - Duracao: 750120 Nota: C1 Vol.: 58
Chanel 2 Note Off - Duracao: 750240 Nota: C1 Vol.: 48
Chanel 2 Note On - Duracao: 750240 Nota: C1 Vol.: 41
Chanel 3 Note Off - Duracao: 750900 Nota: C1 Vol.: 52
Chanel 3 Note On - Duracao: 750900 Nota: C1 Vol.: 47
Chanel 1 Note Off - Duracao: 751080 Nota: C1 Vol.: 58
Chanel 1 Note On - Duracao: 751080 Nota: C1 Vol.: 48
Chanel 1 Note Off - Duracao: 753000 Nota: C1 Vol.: 48
Chanel 1 Note On - Duracao: 753000 Nota: C1 Vol.: 44
Chanel 2 Note Off - Duracao: 754080 Nota: C1 Vol.: 41
Chanel 2 Note On - Duracao: 754080 Nota: C1 Vol.: 47
Chanel 3 Note Off - Duracao: 754740 Nota: C1 Vol.: 47
Chanel 3 Note On - Duracao: 754740 Nota: C1 Vol.: 46
Chanel 1 Note Off - Duracao: 754920 Nota: C1 Vol.: 44
Chanel 1 Note On - Duracao: 754920 Nota: C1 Vol.: 65
Chanel 1 Note Off - Duracao: 755880 Nota: C1 Vol.: 65
Chanel 1 Note On - Duracao: 755880 Nota: C1 Vol.: 74
Chanel 1 Note Off - Duracao: 756360 Nota: C1 Vol.: 74
Chanel 1 Note On - Duracao: 756360 Nota: C1 Vol.: 56
Chanel 1 Note Off - Duracao: 757320 Nota: C1 Vol.: 56
Chanel 1 Note On - Duracao: 757320 Nota: C1 Vol.: 52
Chanel 2 Note Off - Duracao: 757920 Nota: C1 Vol.: 47
Chanel 2 Note On - Duracao: 757920 Nota: C1 Vol.: 52
Chanel 3 Note Off - Duracao: 758580 Nota: C1 Vol.: 46
Chanel 3 Note On - Duracao: 758580 Nota: C1 Vol.: 44
Chanel 1 Note Off - Duracao: 759240 Nota: C1 Vol.: 52
Chanel 1 Note On - Duracao: 759240 Nota: C1 Vol.: 55
Chanel 2 Note Off - Duracao: 759840 Nota: C1 Vol.: 52
Chanel 2 Note On - Duracao: 759840 Nota: C1 Vol.: 43
Chanel 1 Note Off - Duracao: 760200 Nota: C1 Vol.: 55
Chanel 1 Note On - Duracao: 760200 Nota: C1 Vol.: 59
Chanel 1 Note Off - Duracao: 761160 Nota: C1 Vol.: 59
Chanel 1 Note On - Duracao: 761160 Nota: C1 Vol.: 79
Chanel 1 Note Off - Duracao: 761640 Nota: C1 Vol.: 79
Chanel 1 Note On - Duracao: 761640 Nota: C1 Vol.: 100
Chanel 1 Note Off - Duracao: 761700 Nota: C1 Vol.: 100
Chanel 1 Note On - Duracao: 761700 Nota: C1 Vol.: 94
Chanel 1 Note Off - Duracao: 761820 Nota: C1 Vol.: 94
Chanel 1 Note On - Duracao: 761820 Nota: C1 Vol.: 76
Chanel 1 Note Off - Duracao: 762300 Nota: C1 Vol.: 76
Chanel 1 Note On - Duracao: 762300 Nota: C1 Vol.: 96
Chanel 1 Note Off - Duracao: 762420 Nota: C1 Vol.: 96
Chanel 1 Note On - Duracao: 762420 Nota: C1 Vol.: 85
Chanel 3 Note Off - Duracao: 762420 Nota: C1 Vol.: 44
Chanel 3 Note On - Duracao: 762420 Nota: C1 Vol.: 45
Chanel 1 Note Off - Duracao: 762660 Nota: C1 Vol.: 85
Chanel 1 Note On - Duracao: 762660 Nota: C1 Vol.: 61
Chanel 1 Note Off - Duracao: 763620 Nota: C1 Vol.: 61
Chanel 1 Note On - Duracao: 763620 Nota: C1 Vol.: 42
Chanel 2 Note Off - Duracao: 763680 Nota: C1 Vol.: 43
Chanel 2 Note On - Duracao: 763680 Nota: C1 Vol.: 40
Chanel 3 Note Off - Duracao: 766260 Nota: C1 Vol.: 45
Chanel 3 Note On - Duracao: 766260 Nota: C1 Vol.: 47
Chanel 1 Note Off - Duracao: 767460 Nota: C1 Vol.: 42
Chanel 1 Note On - Duracao: 767460 Nota: C1 Vol.: 41
Chanel 2 Note Off - Duracao: 767520 Nota: C1 Vol.: 40
Chanel 2 Note On - Duracao: 767520 Nota: C1 Vol.: 40
Chanel 1 Note Off - Duracao: 769380 Nota: C1 Vol.: 41
Chanel 1 Note On - Duracao: 769380 Nota: C1 Vol.: 67
Chanel 1 Note Off - Duracao: 769620 Nota: C1 Vol.: 67
Chanel 1 Note On - Duracao: 769620 Nota: C1 Vol.: 72
Chanel 1 Note Off - Duracao: 769740 Nota: C1 Vol.: 72
Chanel 1 Note On - Duracao: 769740 Nota: C1 Vol.: 54
Chanel 3 Note Off - Duracao: 770100 Nota: C1 Vol.: 47
Chanel 3 Note On - Duracao: 770100 Nota: C1 Vol.: 50
Chanel 1 Note Off - Duracao: 770220 Nota: C1 Vol.: 54
Chanel 1 Note On - Duracao: 770220 Nota: C1 Vol.: 81
Chanel 1 Note Off - Duracao: 770340 Nota: C1 Vol.: 81
Chanel 1 Note On - Duracao: 770340 Nota: C1 Vol.: 66
Chanel 1 Note Off - Duracao: 770820 Nota: C1 Vol.: 66
Chanel 1 Note On - Duracao: 770820 Nota: C1 Vol.: 56
Chanel 2 Note Off - Duracao: 771360 Nota: C1 Vol.: 40
Chanel 2 Note On - Duracao: 771360 Nota: C1 Vol.: 41
Chanel 1 Note Off - Duracao: 772740 Nota: C1 Vol.: 56
Chanel 1 Note On - Duracao: 772740 Nota: C1 Vol.: 86
Chanel 1 Note Off - Duracao: 772980 Nota: C1 Vol.: 86
Chanel 1 Note On - Duracao: 772980 Nota: C1 Vol.: 92
Chanel 1 Note Off - Duracao: 773100 Nota: C1 Vol.: 92
Chanel 1 Note On - Duracao: 773100 Nota: C1 Vol.: 79
Chanel 1 Note Off - Duracao: 773580 Nota: C1 Vol.: 79
Chanel 1 Note On - Duracao: 773580 Nota: C1 Vol.: 65
Chanel 3 Note Off - Duracao: 773940 Nota: C1 Vol.: 50
Chanel 3 Note On - Duracao: 773940 Nota: C1 Vol.: 50
Chanel 1 Note Off - Duracao: 774540 Nota: C1 Vol.: 65
Chanel 1 Note On - Duracao: 774540 Nota: C1 Vol.: 59
Chanel 2 Note Off - Duracao: 775200 Nota: C1 Vol.: 41
Chanel 2 Note On - Duracao: 775200 Nota: C1 Vol.: 49
Chanel 1 Note Off - Duracao: 776460 Nota: C1 Vol.: 59
Chanel 1 Note On - Duracao: 776460 Nota: C1 Vol.: 60
Chanel 2 Note Off - Duracao: 777120 Nota: C1 Vol.: 49
Chanel 2 Note On - Duracao: 777120 Nota: C1 Vol.: 45
Chanel 1 Note Off - Duracao: 777420 Nota: C1 Vol.: 60
Chanel 1 Note On - Duracao: 777420 Nota: C1 Vol.: 90
Chanel 1 Note Off - Duracao: 777540 Nota: C1 Vol.: 90
Chanel 1 Note On - Duracao: 777540 Nota: C1 Vol.: 68
Chanel 3 Note Off - Duracao: 777780 Nota: C1 Vol.: 50
Chanel 3 Note On - Duracao: 777780 Nota: C1 Vol.: 54
Chanel 1 Note Off - Duracao: 778020 Nota: C1 Vol.: 68
Chanel 1 Note On - Duracao: 778020 Nota: C1 Vol.: 46
Chanel 2 Note Off - Duracao: 779040 Nota: C1 Vol.: 45
Chanel 2 Note On - Duracao: 779040 Nota: C1 Vol.: 45
Chanel 1 Note Off - Duracao: 779940 Nota: C1 Vol.: 46
Chanel 1 Note On - Duracao: 779940 Nota: C1 Vol.: 47
Chanel 2 Note Off - Duracao: 780960 Nota: C1 Vol.: 45
Chanel 2 Note On - Duracao: 780960 Nota: C1 Vol.: 51
Chanel 3 Note Off - Duracao: 781620 Nota: C1 Vol.: 54
Chanel 3 Note On - Duracao: 781620 Nota: C1 Vol.: 74
Chanel 1 Note Off - Duracao: 781860 Nota: C1 Vol.: 47
Chanel 1 Note On - Duracao: 781860 Nota: C1 Vol.: 46
Chanel 3 Note Off - Duracao: 782580 Nota: C1 Vol.: 74
Chanel 3 Note On - Duracao: 782580 Nota: C1 Vol.: 94
Chanel 3 Note Off - Duracao: 782820 Nota: C1 Vol.: 94
Chanel 3 Note On - Duracao: 782820 Nota: C1 Vol.: 98
Chanel 2 Note Off - Duracao: 782880 Nota: C1 Vol.: 51
Chanel 2 Note On - Duracao: 782880 Nota: C1 Vol.: 50
Chanel 3 Note Off - Duracao: 783060 Nota: C1 Vol.: 98
Chanel 3 Note On - Duracao: 783060 Nota: C1 Vol.: 74
Chanel 1 Note Off - Duracao: 783780 Nota: C1 Vol.: 46
Chanel 1 Note On - Duracao: 783780 Nota: C1 Vol.: 51
Chanel 3 Note Off - Duracao: 784020 Nota: C1 Vol.: 74
Chanel 3 Note On - Duracao: 784020 Nota: C1 Vol.: 71
Chanel 2 Note Off - Duracao: 784800 Nota: C1 Vol.: 50
Chanel 2 Note On - Duracao: 784800 Nota: C1 Vol.: 49
Chanel 3 Note Off - Duracao: 784980 Nota: C1 Vol.: 71
Chanel 3 Note On - Duracao: 784980 Nota: C1 Vol.: 52
Chanel 1 Note Off - Duracao: 785700 Nota: C1 Vol.: 51
Chanel 1 Note On - Duracao: 785700 Nota: C1 Vol.: 48
Chanel 2 Note Off - Duracao: 786720 Nota: C1 Vol.: 49
Chanel 2 Note On - Duracao: 786720 Nota: C1 Vol.: 49
Chanel 3 Note Off - Duracao: 786900 Nota: C1 Vol.: 52
Chanel 3 Note On - Duracao: 786900 Nota: C1 Vol.: 44
Chanel 2 Note Off - Duracao: 788640 Nota: C1 Vol.: 49
Chanel 2 Note On - Duracao: 788640 Nota: C1 Vol.: 62
Chanel 2 Note Off - Duracao: 789120 Nota: C1 Vol.: 62
Chanel 2 Note On - Duracao: 789120 Nota: C1 Vol.: 54
Chanel 1 Note Off - Duracao: 789540 Nota: C1 Vol.: 48
Chanel 1 Note On - Duracao: 789540 Nota: C1 Vol.: 58
Chanel 2 Note Off - Duracao: 790080 Nota: C1 Vol.: 54
Chanel 2 Note On - Duracao: 790080 Nota: C1 Vol.: 50
Chanel 3 Note Off - Duracao: 790740 Nota: C1 Vol.: 44
Chanel 3 Note On - Duracao: 790740 Nota: C1 Vol.: 46
Chanel 1 Note Off - Duracao: 791460 Nota: C1 Vol.: 58
Chanel 1 Note On - Duracao: 791460 Nota: C1 Vol.: 54
Chanel 2 Note Off - Duracao: 792000 Nota: C1 Vol.: 50
Chanel 2 Note On - Duracao: 792000 Nota: C1 Vol.: 53
Chanel 1 Note Off - Duracao: 793380 Nota: C1 Vol.: 54
Chanel 1 Note On - Duracao: 793380 Nota: C1 Vol.: 52
Chanel 3 Note Off - Duracao: 794580 Nota: C1 Vol.: 46
Chanel 3 Note On - Duracao: 794580 Nota: C1 Vol.: 40
Chanel 1 Note Off - Duracao: 795300 Nota: C1 Vol.: 52
Chanel 1 Note On - Duracao: 795300 Nota: C1 Vol.: 54
Chanel 2 Note Off - Duracao: 795840 Nota: C1 Vol.: 53
Chanel 2 Note On - Duracao: 795840 Nota: C1 Vol.: 54
Chanel 1 Note Off - Duracao: 797220 Nota: C1 Vol.: 54
Chanel 1 Note On - Duracao: 797220 Nota: C1 Vol.: 64
Chanel 1 Note Off - Duracao: 797700 Nota: C1 Vol.: 64
Chanel 1 Note On - Duracao: 797700 Nota: C1 Vol.: 71
Chanel 2 Note Off - Duracao: 797760 Nota: C1 Vol.: 54
Chanel 2 Note On - Duracao: 797760 Nota: C1 Vol.: 54
Chanel 1 Note Off - Duracao: 798180 Nota: C1 Vol.: 71
Chanel 1 Note On - Duracao: 798180 Nota: C1 Vol.: 54
Chanel 3 Note Off - Duracao: 798420 Nota: C1 Vol.: 40
Chanel 3 Note On - Duracao: 798420 Nota: C1 Vol.: 44
Chanel 2 Note Off - Duracao: 799680 Nota: C1 Vol.: 54
Chanel 2 Note On - Duracao: 799680 Nota: C1 Vol.: 53
Chanel 1 Note Off - Duracao: 800100 Nota: C1 Vol.: 54
Chanel 1 Note On - Duracao: 800100 Nota: C1 Vol.: 51
Chanel 1 Note Off - Duracao: 802020 Nota: C1 Vol.: 51
Chanel 1 Note On - Duracao: 802020 Nota: C1 Vol.: 50
Chanel 3 Note Off - Duracao: 802260 Nota: C1 Vol.: 44
Chanel 3 Note On - Duracao: 802260 Nota: C1 Vol.: 47
Chanel 2 Note Off - Duracao: 803520 Nota: C1 Vol.: 53
Chanel 2 Note On - Duracao: 803520 Nota: C1 Vol.: 46
Chanel 1 Note Off - Duracao: 803940 Nota: C1 Vol.: 50
Chanel 1 Note On - Duracao: 803940 Nota: C1 Vol.: 64
Chanel 1 Note Off - Duracao: 804420 Nota: C1 Vol.: 64
Chanel 1 Note On - Duracao: 804420 Nota: C1 Vol.: 72
Chanel 1 Note Off - Duracao: 804900 Nota: C1 Vol.: 72
Chanel 1 Note On - Duracao: 804900 Nota: C1 Vol.: 73
Chanel 1 Note Off - Duracao: 805380 Nota: C1 Vol.: 73
Chanel 1 Note On - Duracao: 805380 Nota: C1 Vol.: 62
Chanel 3 Note Off - Duracao: 806100 Nota: C1 Vol.: 47
Chanel 3 Note On - Duracao: 806100 Nota: C1 Vol.: 46
Chanel 1 Note Off - Duracao: 806340 Nota: C1 Vol.: 62
Chanel 1 Note On - Duracao: 806340 Nota: C1 Vol.: 56
Chanel 2 Note Off - Duracao: 807360 Nota: C1 Vol.: 46
Chanel 2 Note On - Duracao: 807360 Nota: C1 Vol.: 46
Chanel 1 Note Off - Duracao: 808260 Nota: C1 Vol.: 56
Chanel 1 Note On - Duracao: 808260 Nota: C1 Vol.: 49
Chanel 3 Note Off - Duracao: 809940 Nota: C1 Vol.: 46
Chanel 3 Note On - Duracao: 809940 Nota: C1 Vol.: 45
Chanel 1 Note Off - Duracao: 810180 Nota: C1 Vol.: 49
Chanel 1 Note On - Duracao: 810180 Nota: C1 Vol.: 47
Chanel 2 Note Off - Duracao: 811200 Nota: C1 Vol.: 46
Chanel 2 Note On - Duracao: 811200 Nota: C1 Vol.: 42
Chanel 1 Note Off - Duracao: 812100 Nota: C1 Vol.: 47
Chanel 1 Note On - Duracao: 812100 Nota: C1 Vol.: 67
Chanel 1 Note Off - Duracao: 812580 Nota: C1 Vol.: 67
Chanel 1 Note On - Duracao: 812580 Nota: C1 Vol.: 72
Chanel 1 Note Off - Duracao: 813060 Nota: C1 Vol.: 72
Chanel 1 Note On - Duracao: 813060 Nota: C1 Vol.: 65
Chanel 1 Note Off - Duracao: 813540 Nota: C1 Vol.: 65
Chanel 1 Note On - Duracao: 813540 Nota: C1 Vol.: 53
Chanel 3 Note Off - Duracao: 813780 Nota: C1 Vol.: 45
Chanel 3 Note On - Duracao: 813780 Nota: C1 Vol.: 42
Chanel 1 Note Off - Duracao: 814500 Nota: C1 Vol.: 53
Chanel 1 Note On - Duracao: 814500 Nota: C1 Vol.: 56
Chanel 2 Note Off - Duracao: 815040 Nota: C1 Vol.: 42
Chanel 2 Note On - Duracao: 815040 Nota: C1 Vol.: 44
Chanel 1 Note Off - Duracao: 815460 Nota: C1 Vol.: 56
Chanel 1 Note On - Duracao: 815460 Nota: C1 Vol.: 60
Chanel 1 Note Off - Duracao: 816420 Nota: C1 Vol.: 60
Chanel 1 Note On - Duracao: 816420 Nota: C1 Vol.: 82
Chanel 1 Note Off - Duracao: 816660 Nota: C1 Vol.: 82
Chanel 1 Note On - Duracao: 816660 Nota: C1 Vol.: 100
Chanel 1 Note Off - Duracao: 816780 Nota: C1 Vol.: 100
Chanel 1 Note On - Duracao: 816780 Nota: C1 Vol.: 100
Chanel 1 Note Off - Duracao: 816900 Nota: C1 Vol.: 100
Chanel 1 Note On - Duracao: 816900 Nota: C1 Vol.: 86
Chanel 1 Note Off - Duracao: 817140 Nota: C1 Vol.: 86
Chanel 1 Note On - Duracao: 817140 Nota: C1 Vol.: 93
Chanel 1 Note Off - Duracao: 817260 Nota: C1 Vol.: 93
Chanel 1 Note On - Duracao: 817260 Nota: C1 Vol.: 85
Chanel 1 Note Off - Duracao: 817380 Nota: C1 Vol.: 85
Chanel 1 Note On - Duracao: 817380 Nota: C1 Vol.: 71
Chanel 3 Note Off - Duracao: 817620 Nota: C1 Vol.: 42
Chanel 3 Note On - Duracao: 817620 Nota: C1 Vol.: 42
Chanel 1 Note Off - Duracao: 817860 Nota: C1 Vol.: 71
Chanel 1 Note On - Duracao: 817860 Nota: C1 Vol.: 57
Chanel 1 Note Off - Duracao: 818820 Nota: C1 Vol.: 57
Chanel 1 Note On - Duracao: 818820 Nota: C1 Vol.: 69
Chanel 2 Note Off - Duracao: 818880 Nota: C1 Vol.: 44
Chanel 2 Note On - Duracao: 818880 Nota: C1 Vol.: 52
Chanel 1 Note Off - Duracao: 819060 Nota: C1 Vol.: 69
Chanel 1 Note On - Duracao: 819060 Nota: C1 Vol.: 75
Chanel 1 Note Off - Duracao: 819180 Nota: C1 Vol.: 75
Chanel 1 Note On - Duracao: 819180 Nota: C1 Vol.: 76
Chanel 1 Note Off - Duracao: 819240 Nota: C1 Vol.: 76
Chanel 1 Note On - Duracao: 819240 Nota: C1 Vol.: 47
Chanel 1 Note Off - Duracao: 820200 Nota: C1 Vol.: 47
Chanel 1 Note On - Duracao: 820200 Nota: C1 Vol.: 83
Chanel 1 Note Off - Duracao: 820320 Nota: C1 Vol.: 83
Chanel 1 Note On - Duracao: 820320 Nota: C1 Vol.: 79
Chanel 1 Note Off - Duracao: 820560 Nota: C1 Vol.: 79
Chanel 1 Note On - Duracao: 820560 Nota: C1 Vol.: 54
Chanel 2 Note Off - Duracao: 820800 Nota: C1 Vol.: 52
Chanel 2 Note On - Duracao: 820800 Nota: C1 Vol.: 49
Chanel 3 Note Off - Duracao: 821460 Nota: C1 Vol.: 42
Chanel 3 Note On - Duracao: 821460 Nota: C1 Vol.: 41
Chanel 1 Note Off - Duracao: 822480 Nota: C1 Vol.: 54
Chanel 1 Note On - Duracao: 822480 Nota: C1 Vol.: 78
Chanel 1 Note Off - Duracao: 822720 Nota: C1 Vol.: 78
Chanel 1 Note On - Duracao: 822720 Nota: C1 Vol.: 87
Chanel 2 Note Off - Duracao: 822720 Nota: C1 Vol.: 49
Chanel 2 Note On - Duracao: 822720 Nota: C1 Vol.: 43
Chanel 1 Note Off - Duracao: 822840 Nota: C1 Vol.: 87
Chanel 1 Note On - Duracao: 822840 Nota: C1 Vol.: 95
Chanel 1 Note Off - Duracao: 822900 Nota: C1 Vol.: 95
Chanel 1 Note On - Duracao: 822900 Nota: C1 Vol.: 86
Chanel 1 Note Off - Duracao: 823020 Nota: C1 Vol.: 86
Chanel 1 Note On - Duracao: 823020 Nota: C1 Vol.: 61
Chanel 1 Note Off - Duracao: 823980 Nota: C1 Vol.: 61
Chanel 1 Note On - Duracao: 823980 Nota: C1 Vol.: 58
Chanel 1 Note Off - Duracao: 824940 Nota: C1 Vol.: 58
Chanel 1 Note On - Duracao: 824940 Nota: C1 Vol.: 91
Chanel 1 Note Off - Duracao: 825060 Nota: C1 Vol.: 91
Chanel 1 Note On - Duracao: 825060 Nota: C1 Vol.: 82
Chanel 1 Note Off - Duracao: 825300 Nota: C1 Vol.: 82
Chanel 1 Note On - Duracao: 825300 Nota: C1 Vol.: 57
Chanel 3 Note Off - Duracao: 825300 Nota: C1 Vol.: 41
Chanel 3 Note On - Duracao: 825300 Nota: C1 Vol.: 40
Chanel 1 Note Off - Duracao: 826260 Nota: C1 Vol.: 57
Chanel 1 Note On - Duracao: 826260 Nota: C1 Vol.: 57
Chanel 2 Note Off - Duracao: 826560 Nota: C1 Vol.: 43
Chanel 2 Note On - Duracao: 826560 Nota: C1 Vol.: 48
Chanel 1 Note Off - Duracao: 827220 Nota: C1 Vol.: 57
Chanel 1 Note On - Duracao: 827220 Nota: C1 Vol.: 55
Chanel 1 Note Off - Duracao: 828180 Nota: C1 Vol.: 55
Chanel 1 Note On - Duracao: 828180 Nota: C1 Vol.: 45
Chanel 3 Note Off - Duracao: 829140 Nota: C1 Vol.: 40
Chanel 3 Note On - Duracao: 829140 Nota: C1 Vol.: 40
Chanel 2 Note Off - Duracao: 830400 Nota: C1 Vol.: 48
Chanel 2 Note On - Duracao: 830400 Nota: C1 Vol.: 45
Chanel 1 Note Off - Duracao: 832020 Nota: C1 Vol.: 45
Chanel 1 Note On - Duracao: 832020 Nota: C1 Vol.: 51
Chanel 3 Note Off - Duracao: 832980 Nota: C1 Vol.: 40
Chanel 3 Note On - Duracao: 832980 Nota: C1 Vol.: 40
Chanel 1 Note Off - Duracao: 833940 Nota: C1 Vol.: 51
Chanel 1 Note On - Duracao: 833940 Nota: C1 Vol.: 51
Chanel 2 Note Off - Duracao: 834240 Nota: C1 Vol.: 45
Chanel 2 Note On - Duracao: 834240 Nota: C1 Vol.: 44
Chanel 3 Note Off - Duracao: 836820 Nota: C1 Vol.: 40
Chanel 3 Note On - Duracao: 836820 Nota: C1 Vol.: 44
Chanel 1 Note Off - Duracao: 837780 Nota: C1 Vol.: 51
Chanel 1 Note On - Duracao: 837780 Nota: C1 Vol.: 52
Chanel 2 Note Off - Duracao: 838080 Nota: C1 Vol.: 44
Chanel 2 Note On - Duracao: 838080 Nota: C1 Vol.: 46
Chanel 1 Note Off - Duracao: 839700 Nota: C1 Vol.: 52
Chanel 1 Note On - Duracao: 839700 Nota: C1 Vol.: 48
Chanel 2 Note Off - Duracao: 840000 Nota: C1 Vol.: 46
Chanel 2 Note On - Duracao: 840000 Nota: C1 Vol.: 55
Chanel 3 Note Off - Duracao: 840660 Nota: C1 Vol.: 44
Chanel 3 Note On - Duracao: 840660 Nota: C1 Vol.: 45
Chanel 2 Note Off - Duracao: 840960 Nota: C1 Vol.: 55
Chanel 2 Note On - Duracao: 840960 Nota: C1 Vol.: 40
Chanel 1 Note Off - Duracao: 843540 Nota: C1 Vol.: 48
Chanel 1 Note On - Duracao: 843540 Nota: C1 Vol.: 60
Chanel 1 Note Off - Duracao: 844500 Nota: C1 Vol.: 60
Chanel 1 Note On - Duracao: 844500 Nota: C1 Vol.: 89
Chanel 3 Note Off - Duracao: 844500 Nota: C1 Vol.: 45
Chanel 3 Note On - Duracao: 844500 Nota: C1 Vol.: 46
Chanel 1 Note Off - Duracao: 844620 Nota: C1 Vol.: 89
Chanel 1 Note On - Duracao: 844620 Nota: C1 Vol.: 85
Chanel 2 Note Off - Duracao: 844800 Nota: C1 Vol.: 40
Chanel 2 Note On - Duracao: 844800 Nota: C1 Vol.: 53
Chanel 1 Note Off - Duracao: 844860 Nota: C1 Vol.: 85
Chanel 1 Note On - Duracao: 844860 Nota: C1 Vol.: 57
Chanel 2 Note Off - Duracao: 845760 Nota: C1 Vol.: 53
Chanel 2 Note On - Duracao: 845760 Nota: C1 Vol.: 54
Chanel 3 Note Off - Duracao: 846420 Nota: C1 Vol.: 46
Chanel 3 Note On - Duracao: 846420 Nota: C1 Vol.: 49
Chanel 2 Note Off - Duracao: 846720 Nota: C1 Vol.: 54
Chanel 2 Note On - Duracao: 846720 Nota: C1 Vol.: 50
Chanel 1 Note Off - Duracao: 846780 Nota: C1 Vol.: 57
Chanel 1 Note On - Duracao: 846780 Nota: C1 Vol.: 56
Chanel 2 Note Off - Duracao: 847680 Nota: C1 Vol.: 50
Chanel 2 Note On - Duracao: 847680 Nota: C1 Vol.: 40
Chanel 3 Note Off - Duracao: 848340 Nota: C1 Vol.: 49
Chanel 3 Note On - Duracao: 848340 Nota: C1 Vol.: 53
Chanel 1 Note Off - Duracao: 848700 Nota: C1 Vol.: 56
Chanel 1 Note On - Duracao: 848700 Nota: C1 Vol.: 60
Chanel 1 Note Off - Duracao: 849660 Nota: C1 Vol.: 60
Chanel 1 Note On - Duracao: 849660 Nota: C1 Vol.: 69
Chanel 1 Note Off - Duracao: 850140 Nota: C1 Vol.: 69
Chanel 1 Note On - Duracao: 850140 Nota: C1 Vol.: 53
Chanel 3 Note Off - Duracao: 850260 Nota: C1 Vol.: 53
Chanel 3 Note On - Duracao: 850260 Nota: C1 Vol.: 50
Chanel 2 Note Off - Duracao: 851520 Nota: C1 Vol.: 40
Chanel 2 Note On - Duracao: 851520 Nota: C1 Vol.: 54
Chanel 1 Note Off - Duracao: 852060 Nota: C1 Vol.: 53
Chanel 1 Note On - Duracao: 852060 Nota: C1 Vol.: 68
Chanel 3 Note Off - Duracao: 852180 Nota: C1 Vol.: 50
Chanel 3 Note On - Duracao: 852180 Nota: C1 Vol.: 47
Chanel 2 Note Off - Duracao: 852480 Nota: C1 Vol.: 54
Chanel 2 Note On - Duracao: 852480 Nota: C1 Vol.: 50
Chanel 1 Note Off - Duracao: 852540 Nota: C1 Vol.: 68
Chanel 1 Note On - Duracao: 852540 Nota: C1 Vol.: 52
Chanel 2 Note Off - Duracao: 854400 Nota: C1 Vol.: 50
Chanel 2 Note On - Duracao: 854400 Nota: C1 Vol.: 51
Chanel 1 Note Off - Duracao: 854460 Nota: C1 Vol.: 52
Chanel 1 Note On - Duracao: 854460 Nota: C1 Vol.: 61
Chanel 1 Note Off - Duracao: 855420 Nota: C1 Vol.: 61
Chanel 1 Note On - Duracao: 855420 Nota: C1 Vol.: 55
Chanel 3 Note Off - Duracao: 856020 Nota: C1 Vol.: 47
Chanel 3 Note On - Duracao: 856020 Nota: C1 Vol.: 48
Chanel 2 Note Off - Duracao: 856320 Nota: C1 Vol.: 51
Chanel 2 Note On - Duracao: 856320 Nota: C1 Vol.: 68
Chanel 2 Note Off - Duracao: 856560 Nota: C1 Vol.: 68
Chanel 2 Note On - Duracao: 856560 Nota: C1 Vol.: 40
Chanel 1 Note Off - Duracao: 857340 Nota: C1 Vol.: 55
Chanel 1 Note On - Duracao: 857340 Nota: C1 Vol.: 52
Chanel 2 Note Off - Duracao: 857520 Nota: C1 Vol.: 40
Chanel 2 Note On - Duracao: 857520 Nota: C1 Vol.: 58
Chanel 2 Note Off - Duracao: 857760 Nota: C1 Vol.: 58
Chanel 2 Note On - Duracao: 857760 Nota: C1 Vol.: 52
Chanel 3 Note Off - Duracao: 857940 Nota: C1 Vol.: 48
Chanel 3 Note On - Duracao: 857940 Nota: C1 Vol.: 45
Chanel 2 Note Off - Duracao: 858720 Nota: C1 Vol.: 52
Chanel 2 Note On - Duracao: 858720 Nota: C1 Vol.: 40
Chanel 1 Note Off - Duracao: 859260 Nota: C1 Vol.: 52
Chanel 1 Note On - Duracao: 859260 Nota: C1 Vol.: 63
Chanel 3 Note Off - Duracao: 859860 Nota: C1 Vol.: 45
Chanel 3 Note On - Duracao: 859860 Nota: C1 Vol.: 40
Chanel 1 Note Off - Duracao: 860220 Nota: C1 Vol.: 63
Chanel 1 Note On - Duracao: 860220 Nota: C1 Vol.: 64
Chanel 1 Note Off - Duracao: 860700 Nota: C1 Vol.: 64
Chanel 1 Note On - Duracao: 860700 Nota: C1 Vol.: 75
Chanel 1 Note Off - Duracao: 860940 Nota: C1 Vol.: 75
Chanel 1 Note On - Duracao: 860940 Nota: C1 Vol.: 66
Chanel 1 Note Off - Duracao: 861420 Nota: C1 Vol.: 66
Chanel 1 Note On - Duracao: 861420 Nota: C1 Vol.: 75
Chanel 1 Note Off - Duracao: 861660 Nota: C1 Vol.: 75
Chanel 1 Note On - Duracao: 861660 Nota: C1 Vol.: 78
Chanel 1 Note Off - Duracao: 861900 Nota: C1 Vol.: 78
Chanel 1 Note On - Duracao: 861900 Nota: C1 Vol.: 82
Chanel 1 Note Off - Duracao: 862140 Nota: C1 Vol.: 82
Chanel 1 Note On - Duracao: 862140 Nota: C1 Vol.: 100
Chanel 1 Note Off - Duracao: 862260 Nota: C1 Vol.: 100
Chanel 1 Note On - Duracao: 862260 Nota: C1 Vol.: 100
Chanel 1 Note Off - Duracao: 862380 Nota: C1 Vol.: 100
Chanel 1 Note On - Duracao: 862380 Nota: C1 Vol.: 100
Chanel 1 Note Off - Duracao: 862440 Nota: C1 Vol.: 100
Chanel 1 Note On - Duracao: 862440 Nota: C1 Vol.: 92
Chanel 1 Note Off - Duracao: 862500 Nota: C1 Vol.: 92
Chanel 1 Note On - Duracao: 862500 Nota: C1 Vol.: 73
Chanel 2 Note Off - Duracao: 862560 Nota: C1 Vol.: 40
Chanel 2 Note On - Duracao: 862560 Nota: C1 Vol.: 48
Chanel 1 Note Off - Duracao: 862740 Nota: C1 Vol.: 73
Chanel 1 Note On - Duracao: 862740 Nota: C1 Vol.: 76
Chanel 1 Note Off - Duracao: 862980 Nota: C1 Vol.: 76
Chanel 1 Note On - Duracao: 862980 Nota: C1 Vol.: 78
Chanel 1 Note Off - Duracao: 863100 Nota: C1 Vol.: 78
Chanel 1 Note On - Duracao: 863100 Nota: C1 Vol.: 73
Chanel 1 Note Off - Duracao: 863220 Nota: C1 Vol.: 73
Chanel 1 Note On - Duracao: 863220 Nota: C1 Vol.: 72
Chanel 1 Note Off - Duracao: 863340 Nota: C1 Vol.: 72
Chanel 1 Note On - Duracao: 863340 Nota: C1 Vol.: 70
Chanel 1 Note Off - Duracao: 863580 Nota: C1 Vol.: 70
Chanel 1 Note On - Duracao: 863580 Nota: C1 Vol.: 45
Chanel 3 Note Off - Duracao: 863700 Nota: C1 Vol.: 40
Chanel 3 Note On - Duracao: 863700 Nota: C1 Vol.: 50
Chanel 2 Note Off - Duracao: 864480 Nota: C1 Vol.: 48
Chanel 2 Note On - Duracao: 864480 Nota: C1 Vol.: 67
Chanel 1 Note Off - Duracao: 864540 Nota: C1 Vol.: 45
Chanel 1 Note On - Duracao: 864540 Nota: C1 Vol.: 70
Chanel 1 Note Off - Duracao: 864780 Nota: C1 Vol.: 70
Chanel 1 Note On - Duracao: 864780 Nota: C1 Vol.: 59
Chanel 2 Note Off - Duracao: 864960 Nota: C1 Vol.: 67
Chanel 2 Note On - Duracao: 864960 Nota: C1 Vol.: 68
Chanel 2 Note Off - Duracao: 865200 Nota: C1 Vol.: 68
Chanel 2 Note On - Duracao: 865200 Nota: C1 Vol.: 53
Chanel 1 Note Off - Duracao: 865740 Nota: C1 Vol.: 59
Chanel 1 Note On - Duracao: 865740 Nota: C1 Vol.: 60
Chanel 2 Note Off - Duracao: 866160 Nota: C1 Vol.: 53
Chanel 2 Note On - Duracao: 866160 Nota: C1 Vol.: 59
Chanel 1 Note Off - Duracao: 866700 Nota: C1 Vol.: 60
Chanel 1 Note On - Duracao: 866700 Nota: C1 Vol.: 57
Chanel 2 Note Off - Duracao: 867120 Nota: C1 Vol.: 59
Chanel 2 Note On - Duracao: 867120 Nota: C1 Vol.: 62
Chanel 3 Note Off - Duracao: 867540 Nota: C1 Vol.: 50
Chanel 3 Note On - Duracao: 867540 Nota: C1 Vol.: 52
Chanel 1 Note Off - Duracao: 867660 Nota: C1 Vol.: 57
Chanel 1 Note On - Duracao: 867660 Nota: C1 Vol.: 61
Chanel 2 Note Off - Duracao: 868080 Nota: C1 Vol.: 62
Chanel 2 Note On - Duracao: 868080 Nota: C1 Vol.: 51
Chanel 1 Note Off - Duracao: 868140 Nota: C1 Vol.: 61
Chanel 1 Note On - Duracao: 868140 Nota: C1 Vol.: 75
Chanel 1 Note Off - Duracao: 868260 Nota: C1 Vol.: 75
Chanel 1 Note On - Duracao: 868260 Nota: C1 Vol.: 71
Chanel 1 Note Off - Duracao: 868500 Nota: C1 Vol.: 71
Chanel 1 Note On - Duracao: 868500 Nota: C1 Vol.: 64
Chanel 1 Note Off - Duracao: 868980 Nota: C1 Vol.: 64
Chanel 1 Note On - Duracao: 868980 Nota: C1 Vol.: 64
Chanel 1 Note Off - Duracao: 869460 Nota: C1 Vol.: 64
Chanel 1 Note On - Duracao: 869460 Nota: C1 Vol.: 76
Chanel 1 Note Off - Duracao: 869700 Nota: C1 Vol.: 76
Chanel 1 Note On - Duracao: 869700 Nota: C1 Vol.: 75
Chanel 1 Note Off - Duracao: 869940 Nota: C1 Vol.: 75
Chanel 1 Note On - Duracao: 869940 Nota: C1 Vol.: 50
Chanel 2 Note Off - Duracao: 870000 Nota: C1 Vol.: 51
Chanel 2 Note On - Duracao: 870000 Nota: C1 Vol.: 48
Chanel 1 Note Off - Duracao: 870900 Nota: C1 Vol.: 50
Chanel 1 Note On - Duracao: 870900 Nota: C1 Vol.: 57
Chanel 3 Note Off - Duracao: 871380 Nota: C1 Vol.: 52
Chanel 3 Note On - Duracao: 871380 Nota: C1 Vol.: 45
Chanel 1 Note Off - Duracao: 871860 Nota: C1 Vol.: 57
Chanel 1 Note On - Duracao: 871860 Nota: C1 Vol.: 65
Chanel 1 Note Off - Duracao: 872340 Nota: C1 Vol.: 65
Chanel 1 Note On - Duracao: 872340 Nota: C1 Vol.: 52
Chanel 2 Note Off - Duracao: 873840 Nota: C1 Vol.: 48
Chanel 2 Note On - Duracao: 873840 Nota: C1 Vol.: 42
Chanel 1 Note Off - Duracao: 874260 Nota: C1 Vol.: 52
Chanel 1 Note On - Duracao: 874260 Nota: C1 Vol.: 46
Chanel 3 Note Off - Duracao: 875220 Nota: C1 Vol.: 45
Chanel 3 Note On - Duracao: 875220 Nota: C1 Vol.: 43
Chanel 3 Note Off - Duracao: 877140 Nota: C1 Vol.: 43
Chanel 3 Note On - Duracao: 877140 Nota: C1 Vol.: 50
Chanel 2 Note Off - Duracao: 877680 Nota: C1 Vol.: 42
Chanel 2 Note On - Duracao: 877680 Nota: C1 Vol.: 41
Chanel 1 Note Off - Duracao: 878100 Nota: C1 Vol.: 46
Chanel 1 Note On - Duracao: 878100 Nota: C1 Vol.: 46
Chanel 3 Note Off - Duracao: 878100 Nota: C1 Vol.: 50
Chanel 3 Note On - Duracao: 878100 Nota: C1 Vol.: 57
Chanel 3 Note Off - Duracao: 878580 Nota: C1 Vol.: 57
Chanel 3 Note On - Duracao: 878580 Nota: C1 Vol.: 51
Chanel 3 Note Off - Duracao: 879540 Nota: C1 Vol.: 51
Chanel 3 Note On - Duracao: 879540 Nota: C1 Vol.: 40
Chanel 2 Note Off - Duracao: 881520 Nota: C1 Vol.: 41
Chanel 2 Note On - Duracao: 881520 Nota: C1 Vol.: 41
Chanel 1 Note Off - Duracao: 881940 Nota: C1 Vol.: 46
Chanel 1 Note On - Duracao: 881940 Nota: C1 Vol.: 47
Chanel 3 Note Off - Duracao: 883380 Nota: C1 Vol.: 40
Chanel 3 Note On - Duracao: 883380 Nota: C1 Vol.: 47
Chanel 3 Note Off - Duracao: 885300 Nota: C1 Vol.: 47
Chanel 3 Note On - Duracao: 885300 Nota: C1 Vol.: 52
Chanel 2 Note Off - Duracao: 885360 Nota: C1 Vol.: 41
Chanel 2 Note On - Duracao: 885360 Nota: C1 Vol.: 44
Chanel 1 Note Off - Duracao: 885780 Nota: C1 Vol.: 47
Chanel 1 Note On - Duracao: 885780 Nota: C1 Vol.: 54
Chanel 3 Note Off - Duracao: 887220 Nota: C1 Vol.: 52
Chanel 3 Note On - Duracao: 887220 Nota: C1 Vol.: 45
Chanel 1 Note Off - Duracao: 887700 Nota: C1 Vol.: 54
Chanel 1 Note On - Duracao: 887700 Nota: C1 Vol.: 70
Chanel 1 Note Off - Duracao: 888180 Nota: C1 Vol.: 70
Chanel 1 Note On - Duracao: 888180 Nota: C1 Vol.: 97
Chanel 1 Note Off - Duracao: 888300 Nota: C1 Vol.: 97
Chanel 1 Note On - Duracao: 888300 Nota: C1 Vol.: 79
Chanel 1 Note Off - Duracao: 888780 Nota: C1 Vol.: 79
Chanel 1 Note On - Duracao: 888780 Nota: C1 Vol.: 64
Chanel 2 Note Off - Duracao: 889200 Nota: C1 Vol.: 44
Chanel 2 Note On - Duracao: 889200 Nota: C1 Vol.: 41
Chanel 1 Note Off - Duracao: 889740 Nota: C1 Vol.: 64
Chanel 1 Note On - Duracao: 889740 Nota: C1 Vol.: 61
Chanel 1 Note Off - Duracao: 890700 Nota: C1 Vol.: 61
Chanel 1 Note On - Duracao: 890700 Nota: C1 Vol.: 62
Chanel 3 Note Off - Duracao: 891060 Nota: C1 Vol.: 45
Chanel 3 Note On - Duracao: 891060 Nota: C1 Vol.: 43
Chanel 1 Note Off - Duracao: 891180 Nota: C1 Vol.: 62
Chanel 1 Note On - Duracao: 891180 Nota: C1 Vol.: 60
Chanel 1 Note Off - Duracao: 891660 Nota: C1 Vol.: 60
Chanel 1 Note On - Duracao: 891660 Nota: C1 Vol.: 45
Chanel 2 Note Off - Duracao: 893040 Nota: C1 Vol.: 41
Chanel 2 Note On - Duracao: 893040 Nota: C1 Vol.: 40
Chanel 1 Note Off - Duracao: 893580 Nota: C1 Vol.: 45
Chanel 1 Note On - Duracao: 893580 Nota: C1 Vol.: 55
Chanel 1 Note Off - Duracao: 894540 Nota: C1 Vol.: 55
Chanel 1 Note On - Duracao: 894540 Nota: C1 Vol.: 45
Chanel 3 Note Off - Duracao: 894900 Nota: C1 Vol.: 43
Chanel 3 Note On - Duracao: 894900 Nota: C1 Vol.: 43
Chanel 1 Note Off - Duracao: 896460 Nota: C1 Vol.: 45
Chanel 1 Note On - Duracao: 896460 Nota: C1 Vol.: 54
Chanel 2 Note Off - Duracao: 896880 Nota: C1 Vol.: 40
Chanel 2 Note On - Duracao: 896880 Nota: C1 Vol.: 52
Chanel 1 Note Off - Duracao: 897420 Nota: C1 Vol.: 54
Chanel 1 Note On - Duracao: 897420 Nota: C1 Vol.: 63
Chanel 1 Note Off - Duracao: 898380 Nota: C1 Vol.: 63
Chanel 1 Note On - Duracao: 898380 Nota: C1 Vol.: 58
Chanel 3 Note Off - Duracao: 898740 Nota: C1 Vol.: 43
Chanel 3 Note On - Duracao: 898740 Nota: C1 Vol.: 43
Chanel 2 Note Off - Duracao: 898800 Nota: C1 Vol.: 52
Chanel 2 Note On - Duracao: 898800 Nota: C1 Vol.: 52
Chanel 1 Note Off - Duracao: 899340 Nota: C1 Vol.: 58
Chanel 1 Note On - Duracao: 899340 Nota: C1 Vol.: 62
Chanel 1 Note Off - Duracao: 900300 Nota: C1 Vol.: 62
Chanel 1 Note On - Duracao: 900300 Nota: C1 Vol.: 59
Chanel 2 Note Off - Duracao: 900720 Nota: C1 Vol.: 52
Chanel 2 Note On - Duracao: 900720 Nota: C1 Vol.: 49
Chanel 1 Note Off - Duracao: 901260 Nota: C1 Vol.: 59
Chanel 1 Note On - Duracao: 901260 Nota: C1 Vol.: 56
Chanel 1 Note Off - Duracao: 902220 Nota: C1 Vol.: 56
Chanel 1 Note On - Duracao: 902220 Nota: C1 Vol.: 70
Chanel 1 Note Off - Duracao: 902460 Nota: C1 Vol.: 70
Chanel 1 Note On - Duracao: 902460 Nota: C1 Vol.: 97
Chanel 1 Note Off - Duracao: 902580 Nota: C1 Vol.: 97
Chanel 1 Note On - Duracao: 902580 Nota: C1 Vol.: 98
Chanel 3 Note Off - Duracao: 902580 Nota: C1 Vol.: 43
Chanel 3 Note On - Duracao: 902580 Nota: C1 Vol.: 47
Chanel 2 Note Off - Duracao: 902640 Nota: C1 Vol.: 49
Chanel 2 Note On - Duracao: 902640 Nota: C1 Vol.: 48
Chanel 1 Note Off - Duracao: 902700 Nota: C1 Vol.: 98
Chanel 1 Note On - Duracao: 902700 Nota: C1 Vol.: 89
Chanel 1 Note Off - Duracao: 902940 Nota: C1 Vol.: 89
Chanel 1 Note On - Duracao: 902940 Nota: C1 Vol.: 88
Chanel 1 Note Off - Duracao: 903180 Nota: C1 Vol.: 88
Chanel 1 Note On - Duracao: 903180 Nota: C1 Vol.: 100
Chanel 1 Note Off - Duracao: 903300 Nota: C1 Vol.: 100
Chanel 1 Note On - Duracao: 903300 Nota: C1 Vol.: 95
Chanel 1 Note Off - Duracao: 903420 Nota: C1 Vol.: 95
Chanel 1 Note On - Duracao: 903420 Nota: C1 Vol.: 81
Chanel 1 Note Off - Duracao: 903540 Nota: C1 Vol.: 81
Chanel 1 Note On - Duracao: 903540 Nota: C1 Vol.: 75
Chanel 1 Note Off - Duracao: 903660 Nota: C1 Vol.: 75
Chanel 1 Note On - Duracao: 903660 Nota: C1 Vol.: 74
Chanel 1 Note Off - Duracao: 903900 Nota: C1 Vol.: 74
Chanel 1 Note On - Duracao: 903900 Nota: C1 Vol.: 71
Chanel 1 Note Off - Duracao: 904140 Nota: C1 Vol.: 71
Chanel 1 Note On - Duracao: 904140 Nota: C1 Vol.: 62
Chanel 3 Note Off - Duracao: 904500 Nota: C1 Vol.: 47
Chanel 3 Note On - Duracao: 904500 Nota: C1 Vol.: 44
Chanel 2 Note Off - Duracao: 904560 Nota: C1 Vol.: 48
Chanel 2 Note On - Duracao: 904560 Nota: C1 Vol.: 56
Chanel 1 Note Off - Duracao: 904620 Nota: C1 Vol.: 62
Chanel 1 Note On - Duracao: 904620 Nota: C1 Vol.: 76
Chanel 1 Note Off - Duracao: 904740 Nota: C1 Vol.: 76
Chanel 1 Note On - Duracao: 904740 Nota: C1 Vol.: 64
Chanel 1 Note Off - Duracao: 904980 Nota: C1 Vol.: 64
Chanel 1 Note On - Duracao: 904980 Nota: C1 Vol.: 44
Chanel 2 Note Off - Duracao: 905520 Nota: C1 Vol.: 56
Chanel 2 Note On - Duracao: 905520 Nota: C1 Vol.: 52
Chanel 2 Note Off - Duracao: 906480 Nota: C1 Vol.: 52
Chanel 2 Note On - Duracao: 906480 Nota: C1 Vol.: 46
Chanel 1 Note Off - Duracao: 906900 Nota: C1 Vol.: 44
Chanel 1 Note On - Duracao: 906900 Nota: C1 Vol.: 70
Chanel 1 Note Off - Duracao: 907140 Nota: C1 Vol.: 70
Chanel 1 Note On - Duracao: 907140 Nota: C1 Vol.: 67
Chanel 1 Note Off - Duracao: 907620 Nota: C1 Vol.: 67
Chanel 1 Note On - Duracao: 907620 Nota: C1 Vol.: 50
Chanel 3 Note Off - Duracao: 908340 Nota: C1 Vol.: 44
Chanel 3 Note On - Duracao: 908340 Nota: C1 Vol.: 50
Chanel 1 Note Off - Duracao: 908580 Nota: C1 Vol.: 50
Chanel 1 Note On - Duracao: 908580 Nota: C1 Vol.: 67
Chanel 1 Note Off - Duracao: 908820 Nota: C1 Vol.: 67
Chanel 1 Note On - Duracao: 908820 Nota: C1 Vol.: 70
Chanel 1 Note Off - Duracao: 909060 Nota: C1 Vol.: 70
Chanel 1 Note On - Duracao: 909060 Nota: C1 Vol.: 70
Chanel 1 Note Off - Duracao: 909300 Nota: C1 Vol.: 70
Chanel 1 Note On - Duracao: 909300 Nota: C1 Vol.: 73
Chanel 1 Note Off - Duracao: 909540 Nota: C1 Vol.: 73
Chanel 1 Note On - Duracao: 909540 Nota: C1 Vol.: 68
Chanel 1 Note Off - Duracao: 909780 Nota: C1 Vol.: 68
Chanel 1 Note On - Duracao: 909780 Nota: C1 Vol.: 58
Chanel 2 Note Off - Duracao: 910320 Nota: C1 Vol.: 46
Chanel 2 Note On - Duracao: 910320 Nota: C1 Vol.: 52
Chanel 1 Note Off - Duracao: 910740 Nota: C1 Vol.: 58
Chanel 1 Note On - Duracao: 910740 Nota: C1 Vol.: 76
Chanel 1 Note Off - Duracao: 910980 Nota: C1 Vol.: 76
Chanel 1 Note On - Duracao: 910980 Nota: C1 Vol.: 78
Chanel 1 Note Off - Duracao: 911220 Nota: C1 Vol.: 78
Chanel 1 Note On - Duracao: 911220 Nota: C1 Vol.: 58
Chanel 1 Note Off - Duracao: 911700 Nota: C1 Vol.: 58
Chanel 1 Note On - Duracao: 911700 Nota: C1 Vol.: 44
Chanel 3 Note Off - Duracao: 912180 Nota: C1 Vol.: 50
Chanel 3 Note On - Duracao: 912180 Nota: C1 Vol.: 47
Chanel 2 Note Off - Duracao: 912240 Nota: C1 Vol.: 52
Chanel 2 Note On - Duracao: 912240 Nota: C1 Vol.: 53
Chanel 1 Note Off - Duracao: 912660 Nota: C1 Vol.: 44
Chanel 1 Note On - Duracao: 912660 Nota: C1 Vol.: 58
Chanel 1 Note Off - Duracao: 913140 Nota: C1 Vol.: 58
Chanel 1 Note On - Duracao: 913140 Nota: C1 Vol.: 75
Chanel 1 Note Off - Duracao: 913380 Nota: C1 Vol.: 75
Chanel 1 Note On - Duracao: 913380 Nota: C1 Vol.: 59
Chanel 2 Note Off - Duracao: 914160 Nota: C1 Vol.: 53
Chanel 2 Note On - Duracao: 914160 Nota: C1 Vol.: 47
Chanel 1 Note Off - Duracao: 914340 Nota: C1 Vol.: 59
Chanel 1 Note On - Duracao: 914340 Nota: C1 Vol.: 40
Chanel 3 Note Off - Duracao: 916020 Nota: C1 Vol.: 47
Chanel 3 Note On - Duracao: 916020 Nota: C1 Vol.: 48
Chanel 1 Note Off - Duracao: 916260 Nota: C1 Vol.: 40
Chanel 1 Note On - Duracao: 916260 Nota: C1 Vol.: 40
Chanel 2 Note Off - Duracao: 918000 Nota: C1 Vol.: 47
Chanel 2 Note On - Duracao: 918000 Nota: C1 Vol.: 45
Chanel 1 Note Off - Duracao: 918180 Nota: C1 Vol.: 40
Chanel 1 Note On - Duracao: 918180 Nota: C1 Vol.: 50
Chanel 3 Note Off - Duracao: 919860 Nota: C1 Vol.: 48
Chanel 3 Note On - Duracao: 919860 Nota: C1 Vol.: 50
Chanel 1 Note Off - Duracao: 920100 Nota: C1 Vol.: 50
Chanel 1 Note On - Duracao: 920100 Nota: C1 Vol.: 84
Chanel 1 Note Off - Duracao: 920340 Nota: C1 Vol.: 84
Chanel 1 Note On - Duracao: 920340 Nota: C1 Vol.: 98
Chanel 1 Note Off - Duracao: 920460 Nota: C1 Vol.: 98
Chanel 1 Note On - Duracao: 920460 Nota: C1 Vol.: 79
Chanel 1 Note Off - Duracao: 920940 Nota: C1 Vol.: 79
Chanel 1 Note On - Duracao: 920940 Nota: C1 Vol.: 74
Chanel 2 Note Off - Duracao: 921840 Nota: C1 Vol.: 45
Chanel 2 Note On - Duracao: 921840 Nota: C1 Vol.: 47
Chanel 1 Note Off - Duracao: 921900 Nota: C1 Vol.: 74
Chanel 1 Note On - Duracao: 921900 Nota: C1 Vol.: 74
Chanel 1 Note Off - Duracao: 922380 Nota: C1 Vol.: 74
Chanel 1 Note On - Duracao: 922380 Nota: C1 Vol.: 68
Chanel 1 Note Off - Duracao: 922860 Nota: C1 Vol.: 68
Chanel 1 Note On - Duracao: 922860 Nota: C1 Vol.: 48
Chanel 3 Note Off - Duracao: 923700 Nota: C1 Vol.: 50
Chanel 3 Note On - Duracao: 923700 Nota: C1 Vol.: 57
Chanel 1 Note Off - Duracao: 923820 Nota: C1 Vol.: 48
Chanel 1 Note On - Duracao: 923820 Nota: C1 Vol.: 44
Chanel 3 Note Off - Duracao: 925620 Nota: C1 Vol.: 57
Chanel 3 Note On - Duracao: 925620 Nota: C1 Vol.: 71
Chanel 2 Note Off - Duracao: 925680 Nota: C1 Vol.: 47
Chanel 2 Note On - Duracao: 925680 Nota: C1 Vol.: 41
Chanel 1 Note Off - Duracao: 925740 Nota: C1 Vol.: 44
Chanel 1 Note On - Duracao: 925740 Nota: C1 Vol.: 47
Chanel 3 Note Off - Duracao: 926580 Nota: C1 Vol.: 71
Chanel 3 Note On - Duracao: 926580 Nota: C1 Vol.: 85
Chanel 1 Note Off - Duracao: 926700 Nota: C1 Vol.: 47
Chanel 1 Note On - Duracao: 926700 Nota: C1 Vol.: 46
Chanel 3 Note Off - Duracao: 927060 Nota: C1 Vol.: 85
Chanel 3 Note On - Duracao: 927060 Nota: C1 Vol.: 96
Chanel 3 Note Off - Duracao: 927300 Nota: C1 Vol.: 96
Chanel 3 Note On - Duracao: 927300 Nota: C1 Vol.: 93
Chanel 3 Note Off - Duracao: 927540 Nota: C1 Vol.: 93
Chanel 3 Note On - Duracao: 927540 Nota: C1 Vol.: 69
Chanel 1 Note Off - Duracao: 927660 Nota: C1 Vol.: 46
Chanel 1 Note On - Duracao: 927660 Nota: C1 Vol.: 52
Chanel 3 Note Off - Duracao: 928500 Nota: C1 Vol.: 69
Chanel 3 Note On - Duracao: 928500 Nota: C1 Vol.: 87
Chanel 1 Note Off - Duracao: 928620 Nota: C1 Vol.: 52
Chanel 1 Note On - Duracao: 928620 Nota: C1 Vol.: 44
Chanel 3 Note Off - Duracao: 928740 Nota: C1 Vol.: 87
Chanel 3 Note On - Duracao: 928740 Nota: C1 Vol.: 60
Chanel 2 Note Off - Duracao: 929520 Nota: C1 Vol.: 41
Chanel 2 Note On - Duracao: 929520 Nota: C1 Vol.: 46
Chanel 3 Note Off - Duracao: 930660 Nota: C1 Vol.: 60
Chanel 3 Note On - Duracao: 930660 Nota: C1 Vol.: 44
Chanel 2 Note Off - Duracao: 931440 Nota: C1 Vol.: 46
Chanel 2 Note On - Duracao: 931440 Nota: C1 Vol.: 66
Chanel 2 Note Off - Duracao: 931920 Nota: C1 Vol.: 66
Chanel 2 Note On - Duracao: 931920 Nota: C1 Vol.: 57
Chanel 1 Note Off - Duracao: 932460 Nota: C1 Vol.: 44
Chanel 1 Note On - Duracao: 932460 Nota: C1 Vol.: 42
Chanel 2 Note Off - Duracao: 932880 Nota: C1 Vol.: 57
Chanel 2 Note On - Duracao: 932880 Nota: C1 Vol.: 65
Chanel 2 Note Off - Duracao: 933360 Nota: C1 Vol.: 65
Chanel 2 Note On - Duracao: 933360 Nota: C1 Vol.: 43
Chanel 3 Note Off - Duracao: 934500 Nota: C1 Vol.: 44
Chanel 3 Note On - Duracao: 934500 Nota: C1 Vol.: 47
Chanel 1 Note Off - Duracao: 936300 Nota: C1 Vol.: 42
Chanel 1 Note On - Duracao: 936300 Nota: C1 Vol.: 59
Chanel 2 Note Off - Duracao: 937200 Nota: C1 Vol.: 43
Chanel 2 Note On - Duracao: 937200 Nota: C1 Vol.: 40
Chanel 1 Note Off - Duracao: 937260 Nota: C1 Vol.: 59
Chanel 1 Note On - Duracao: 937260 Nota: C1 Vol.: 60
Chanel 1 Note Off - Duracao: 938220 Nota: C1 Vol.: 60
Chanel 1 Note On - Duracao: 938220 Nota: C1 Vol.: 58
Chanel 3 Note Off - Duracao: 938340 Nota: C1 Vol.: 47
Chanel 3 Note On - Duracao: 938340 Nota: C1 Vol.: 49
Chanel 1 Note Off - Duracao: 939180 Nota: C1 Vol.: 58
Chanel 1 Note On - Duracao: 939180 Nota: C1 Vol.: 62
Chanel 1 Note Off - Duracao: 940140 Nota: C1 Vol.: 62
Chanel 1 Note On - Duracao: 940140 Nota: C1 Vol.: 84
Chanel 1 Note Off - Duracao: 940380 Nota: C1 Vol.: 84
Chanel 1 Note On - Duracao: 940380 Nota: C1 Vol.: 99
Chanel 1 Note Off - Duracao: 940500 Nota: C1 Vol.: 99
Chanel 1 Note On - Duracao: 940500 Nota: C1 Vol.: 95
Chanel 1 Note Off - Duracao: 940620 Nota: C1 Vol.: 95
Chanel 1 Note On - Duracao: 940620 Nota: C1 Vol.: 84
Chanel 1 Note Off - Duracao: 940860 Nota: C1 Vol.: 84
Chanel 1 Note On - Duracao: 940860 Nota: C1 Vol.: 78
Chanel 2 Note Off - Duracao: 941040 Nota: C1 Vol.: 40
Chanel 2 Note On - Duracao: 941040 Nota: C1 Vol.: 44
Chanel 1 Note Off - Duracao: 941340 Nota: C1 Vol.: 78
Chanel 1 Note On - Duracao: 941340 Nota: C1 Vol.: 76
Chanel 1 Note Off - Duracao: 941820 Nota: C1 Vol.: 76
Chanel 1 Note On - Duracao: 941820 Nota: C1 Vol.: 69
Chanel 1 Note Off - Duracao: 942060 Nota: C1 Vol.: 69
Chanel 1 Note On - Duracao: 942060 Nota: C1 Vol.: 64
Chanel 3 Note Off - Duracao: 942180 Nota: C1 Vol.: 49
Chanel 3 Note On - Duracao: 942180 Nota: C1 Vol.: 46
Chanel 1 Note Off - Duracao: 942300 Nota: C1 Vol.: 64
Chanel 1 Note On - Duracao: 942300 Nota: C1 Vol.: 71
Chanel 1 Note Off - Duracao: 942540 Nota: C1 Vol.: 71
Chanel 1 Note On - Duracao: 942540 Nota: C1 Vol.: 70
Chanel 1 Note Off - Duracao: 943020 Nota: C1 Vol.: 70
Chanel 1 Note On - Duracao: 943020 Nota: C1 Vol.: 48
Chanel 1 Note Off - Duracao: 943980 Nota: C1 Vol.: 48
Chanel 1 Note On - Duracao: 943980 Nota: C1 Vol.: 80
Chanel 1 Note Off - Duracao: 944100 Nota: C1 Vol.: 80
Chanel 1 Note On - Duracao: 944100 Nota: C1 Vol.: 61
Chanel 1 Note Off - Duracao: 944580 Nota: C1 Vol.: 61
Chanel 1 Note On - Duracao: 944580 Nota: C1 Vol.: 47
Chanel 2 Note Off - Duracao: 944880 Nota: C1 Vol.: 44
Chanel 2 Note On - Duracao: 944880 Nota: C1 Vol.: 45
Chanel 3 Note Off - Duracao: 946020 Nota: C1 Vol.: 46
Chanel 3 Note On - Duracao: 946020 Nota: C1 Vol.: 44
Chanel 1 Note Off - Duracao: 946500 Nota: C1 Vol.: 47
Chanel 1 Note On - Duracao: 946500 Nota: C1 Vol.: 53
Chanel 1 Note Off - Duracao: 947460 Nota: C1 Vol.: 53
Chanel 1 Note On - Duracao: 947460 Nota: C1 Vol.: 89
Chanel 1 Note Off - Duracao: 947580 Nota: C1 Vol.: 89
Chanel 1 Note On - Duracao: 947580 Nota: C1 Vol.: 66
Chanel 1 Note Off - Duracao: 948060 Nota: C1 Vol.: 66
Chanel 1 Note On - Duracao: 948060 Nota: C1 Vol.: 60
Chanel 1 Note Off - Duracao: 948540 Nota: C1 Vol.: 60
Chanel 1 Note On - Duracao: 948540 Nota: C1 Vol.: 61
Chanel 2 Note Off - Duracao: 948720 Nota: C1 Vol.: 45
Chanel 2 Note On - Duracao: 948720 Nota: C1 Vol.: 45
Chanel 1 Note Off - Duracao: 949020 Nota: C1 Vol.: 61
Chanel 1 Note On - Duracao: 949020 Nota: C1 Vol.: 67
Chanel 1 Note Off - Duracao: 949260 Nota: C1 Vol.: 67
Chanel 1 Note On - Duracao: 949260 Nota: C1 Vol.: 70
Chanel 1 Note Off - Duracao: 949500 Nota: C1 Vol.: 70
Chanel 1 Note On - Duracao: 949500 Nota: C1 Vol.: 64
Chanel 3 Note Off - Duracao: 949860 Nota: C1 Vol.: 44
Chanel 3 Note On - Duracao: 949860 Nota: C1 Vol.: 42
Chanel 1 Note Off - Duracao: 949980 Nota: C1 Vol.: 64
Chanel 1 Note On - Duracao: 949980 Nota: C1 Vol.: 61
Chanel 1 Note Off - Duracao: 950460 Nota: C1 Vol.: 61
Chanel 1 Note On - Duracao: 950460 Nota: C1 Vol.: 76
Chanel 1 Note Off - Duracao: 950700 Nota: C1 Vol.: 76
Chanel 1 Note On - Duracao: 950700 Nota: C1 Vol.: 72
Chanel 1 Note Off - Duracao: 950940 Nota: C1 Vol.: 72
Chanel 1 Note On - Duracao: 950940 Nota: C1 Vol.: 54
Chanel 1 Note Off - Duracao: 951900 Nota: C1 Vol.: 54
Chanel 1 Note On - Duracao: 951900 Nota: C1 Vol.: 45
Chanel 2 Note Off - Duracao: 952560 Nota: C1 Vol.: 45
Chanel 2 Note On - Duracao: 952560 Nota: C1 Vol.: 45
Chanel 1 Note Off - Duracao: 952860 Nota: C1 Vol.: 45
Chanel 1 Note On - Duracao: 952860 Nota: C1 Vol.: 66
Chanel 1 Note Off - Duracao: 953100 Nota: C1 Vol.: 66
Chanel 1 Note On - Duracao: 953100 Nota: C1 Vol.: 81
Chanel 1 Note Off - Duracao: 953220 Nota: C1 Vol.: 81
Chanel 1 Note On - Duracao: 953220 Nota: C1 Vol.: 85
Chanel 1 Note Off - Duracao: 953340 Nota: C1 Vol.: 85
Chanel 1 Note On - Duracao: 953340 Nota: C1 Vol.: 64
Chanel 1 Note Off - Duracao: 953580 Nota: C1 Vol.: 64
Chanel 1 Note On - Duracao: 953580 Nota: C1 Vol.: 51
Chanel 3 Note Off - Duracao: 953700 Nota: C1 Vol.: 42
Chanel 3 Note On - Duracao: 953700 Nota: C1 Vol.: 40
Chanel 1 Note Off - Duracao: 954060 Nota: C1 Vol.: 51
Chanel 1 Note On - Duracao: 954060 Nota: C1 Vol.: 64
Chanel 2 Note Off - Duracao: 954480 Nota: C1 Vol.: 45
Chanel 2 Note On - Duracao: 954480 Nota: C1 Vol.: 43
Chanel 1 Note Off - Duracao: 954540 Nota: C1 Vol.: 64
Chanel 1 Note On - Duracao: 954540 Nota: C1 Vol.: 92
Chanel 1 Note Off - Duracao: 954660 Nota: C1 Vol.: 92
Chanel 1 Note On - Duracao: 954660 Nota: C1 Vol.: 100
Chanel 1 Note Off - Duracao: 954780 Nota: C1 Vol.: 100
Chanel 1 Note On - Duracao: 954780 Nota: C1 Vol.: 74
Chanel 1 Note Off - Duracao: 955740 Nota: C1 Vol.: 74
Chanel 1 Note On - Duracao: 955740 Nota: C1 Vol.: 91
Chanel 1 Note Off - Duracao: 955980 Nota: C1 Vol.: 91
Chanel 1 Note On - Duracao: 955980 Nota: C1 Vol.: 100
Chanel 1 Note Off - Duracao: 956040 Nota: C1 Vol.: 100
Chanel 1 Note On - Duracao: 956040 Nota: C1 Vol.: 79
Chanel 1 Note Off - Duracao: 956280 Nota: C1 Vol.: 79
Chanel 1 Note On - Duracao: 956280 Nota: C1 Vol.: 64
Chanel 1 Note Off - Duracao: 956760 Nota: C1 Vol.: 64
Chanel 1 Note On - Duracao: 956760 Nota: C1 Vol.: 57
Chanel 3 Note Off - Duracao: 957540 Nota: C1 Vol.: 40
Chanel 3 Note On - Duracao: 957540 Nota: C1 Vol.: 40
Chanel 1 Note Off - Duracao: 957720 Nota: C1 Vol.: 57
Chanel 1 Note On - Duracao: 957720 Nota: C1 Vol.: 54
Chanel 2 Note Off - Duracao: 958320 Nota: C1 Vol.: 43
Chanel 2 Note On - Duracao: 958320 Nota: C1 Vol.: 44
Chanel 1 Note Off - Duracao: 958680 Nota: C1 Vol.: 54
Chanel 1 Note On - Duracao: 958680 Nota: C1 Vol.: 59
Chanel 1 Note Off - Duracao: 959640 Nota: C1 Vol.: 59
Chanel 1 Note On - Duracao: 959640 Nota: C1 Vol.: 41
Chanel 3 Note Off - Duracao: 961380 Nota: C1 Vol.: 40
Chanel 3 Note On - Duracao: 961380 Nota: C1 Vol.: 41
Chanel 2 Note Off - Duracao: 962160 Nota: C1 Vol.: 44
Chanel 2 Note On - Duracao: 962160 Nota: C1 Vol.: 44
Chanel 1 Note Off - Duracao: 963480 Nota: C1 Vol.: 41
Chanel 1 Note On - Duracao: 963480 Nota: C1 Vol.: 40
Chanel 3 Note Off - Duracao: 965220 Nota: C1 Vol.: 41
Chanel 3 Note On - Duracao: 965220 Nota: C1 Vol.: 41
Chanel 2 Note Off - Duracao: 966000 Nota: C1 Vol.: 44
Chanel 2 Note On - Duracao: 966000 Nota: C1 Vol.: 40
Chanel 1 Note Off - Duracao: 967320 Nota: C1 Vol.: 40
Chanel 1 Note On - Duracao: 967320 Nota: C1 Vol.: 40
Chanel 3 Note Off - Duracao: 969060 Nota: C1 Vol.: 41
Chanel 3 Note On - Duracao: 969060 Nota: C1 Vol.: 42
Chanel 2 Note Off - Duracao: 969840 Nota: C1 Vol.: 40
Chanel 2 Note On - Duracao: 969840 Nota: C1 Vol.: 55
Chanel 2 Note Off - Duracao: 970800 Nota: C1 Vol.: 55
Chanel 2 Note On - Duracao: 970800 Nota: C1 Vol.: 86
Chanel 2 Note Off - Duracao: 970920 Nota: C1 Vol.: 86
Chanel 2 Note On - Duracao: 970920 Nota: C1 Vol.: 76
Chanel 1 Note Off - Duracao: 971160 Nota: C1 Vol.: 40
Chanel 1 Note On - Duracao: 971160 Nota: C1 Vol.: 61
Chanel 2 Note Off - Duracao: 971160 Nota: C1 Vol.: 76
Chanel 2 Note On - Duracao: 971160 Nota: C1 Vol.: 49
Chanel 1 Note Off - Duracao: 972120 Nota: C1 Vol.: 61
Chanel 1 Note On - Duracao: 972120 Nota: C1 Vol.: 60
Chanel 3 Note Off - Duracao: 972900 Nota: C1 Vol.: 42
Chanel 3 Note On - Duracao: 972900 Nota: C1 Vol.: 43
Chanel 1 Note Off - Duracao: 973080 Nota: C1 Vol.: 60
Chanel 1 Note On - Duracao: 973080 Nota: C1 Vol.: 58
Chanel 2 Note Off - Duracao: 973080 Nota: C1 Vol.: 49
Chanel 2 Note On - Duracao: 973080 Nota: C1 Vol.: 47
Chanel 1 Note Off - Duracao: 974040 Nota: C1 Vol.: 58
Chanel 1 Note On - Duracao: 974040 Nota: C1 Vol.: 66
Chanel 1 Note Off - Duracao: 975000 Nota: C1 Vol.: 66
Chanel 1 Note On - Duracao: 975000 Nota: C1 Vol.: 77
Chanel 2 Note Off - Duracao: 975000 Nota: C1 Vol.: 47
Chanel 2 Note On - Duracao: 975000 Nota: C1 Vol.: 46
Chanel 1 Note Off - Duracao: 975480 Nota: C1 Vol.: 77
Chanel 1 Note On - Duracao: 975480 Nota: C1 Vol.: 81
Chanel 1 Note Off - Duracao: 975960 Nota: C1 Vol.: 81
Chanel 1 Note On - Duracao: 975960 Nota: C1 Vol.: 100
Chanel 2 Note Off - Duracao: 975960 Nota: C1 Vol.: 46
Chanel 2 Note On - Duracao: 975960 Nota: C1 Vol.: 44
Chanel 1 Note Off - Duracao: 976020 Nota: C1 Vol.: 100
Chanel 1 Note On - Duracao: 976020 Nota: C1 Vol.: 95
Chanel 1 Note Off - Duracao: 976140 Nota: C1 Vol.: 95
Chanel 1 Note On - Duracao: 976140 Nota: C1 Vol.: 79
Chanel 1 Note Off - Duracao: 976620 Nota: C1 Vol.: 79
Chanel 1 Note On - Duracao: 976620 Nota: C1 Vol.: 87
Chanel 3 Note Off - Duracao: 976740 Nota: C1 Vol.: 43
Chanel 3 Note On - Duracao: 976740 Nota: C1 Vol.: 41
Chanel 1 Note Off - Duracao: 976860 Nota: C1 Vol.: 87
Chanel 1 Note On - Duracao: 976860 Nota: C1 Vol.: 68
Chanel 2 Note Off - Duracao: 976920 Nota: C1 Vol.: 44
Chanel 2 Note On - Duracao: 976920 Nota: C1 Vol.: 61
Chanel 1 Note Off - Duracao: 977100 Nota: C1 Vol.: 68
Chanel 1 Note On - Duracao: 977100 Nota: C1 Vol.: 64
Chanel 1 Note Off - Duracao: 977340 Nota: C1 Vol.: 64
Chanel 1 Note On - Duracao: 977340 Nota: C1 Vol.: 73
Chanel 2 Note Off - Duracao: 977400 Nota: C1 Vol.: 61
Chanel 2 Note On - Duracao: 977400 Nota: C1 Vol.: 40
Chanel 1 Note Off - Duracao: 977580 Nota: C1 Vol.: 73
Chanel 1 Note On - Duracao: 977580 Nota: C1 Vol.: 55
Chanel 1 Note Off - Duracao: 978540 Nota: C1 Vol.: 55
Chanel 1 Note On - Duracao: 978540 Nota: C1 Vol.: 46
Chanel 1 Note Off - Duracao: 980460 Nota: C1 Vol.: 46
Chanel 1 Note On - Duracao: 980460 Nota: C1 Vol.: 83
Chanel 1 Note Off - Duracao: 980580 Nota: C1 Vol.: 83
Chanel 1 Note On - Duracao: 980580 Nota: C1 Vol.: 58
Chanel 3 Note Off - Duracao: 980580 Nota: C1 Vol.: 41
Chanel 3 Note On - Duracao: 980580 Nota: C1 Vol.: 41
Chanel 1 Note Off - Duracao: 981060 Nota: C1 Vol.: 58
Chanel 1 Note On - Duracao: 981060 Nota: C1 Vol.: 53
Chanel 2 Note Off - Duracao: 981240 Nota: C1 Vol.: 40
Chanel 2 Note On - Duracao: 981240 Nota: C1 Vol.: 40
Chanel 1 Note Off - Duracao: 982020 Nota: C1 Vol.: 53
Chanel 1 Note On - Duracao: 982020 Nota: C1 Vol.: 59
Chanel 1 Note Off - Duracao: 982980 Nota: C1 Vol.: 59
Chanel 1 Note On - Duracao: 982980 Nota: C1 Vol.: 68
Chanel 1 Note Off - Duracao: 983460 Nota: C1 Vol.: 68
Chanel 1 Note On - Duracao: 983460 Nota: C1 Vol.: 63
Chanel 1 Note Off - Duracao: 983940 Nota: C1 Vol.: 63
Chanel 1 Note On - Duracao: 983940 Nota: C1 Vol.: 72
Chanel 1 Note Off - Duracao: 984180 Nota: C1 Vol.: 72
Chanel 1 Note On - Duracao: 984180 Nota: C1 Vol.: 87
Chanel 1 Note Off - Duracao: 984300 Nota: C1 Vol.: 87
Chanel 1 Note On - Duracao: 984300 Nota: C1 Vol.: 70
Chanel 3 Note Off - Duracao: 984420 Nota: C1 Vol.: 41
Chanel 3 Note On - Duracao: 984420 Nota: C1 Vol.: 54
Chanel 1 Note Off - Duracao: 984540 Nota: C1 Vol.: 70
Chanel 1 Note On - Duracao: 984540 Nota: C1 Vol.: 67
Chanel 1 Note Off - Duracao: 985020 Nota: C1 Vol.: 67
Chanel 1 Note On - Duracao: 985020 Nota: C1 Vol.: 76
Chanel 2 Note Off - Duracao: 985080 Nota: C1 Vol.: 40
Chanel 2 Note On - Duracao: 985080 Nota: C1 Vol.: 63
Chanel 1 Note Off - Duracao: 985260 Nota: C1 Vol.: 76
Chanel 1 Note On - Duracao: 985260 Nota: C1 Vol.: 75
Chanel 1 Note Off - Duracao: 985500 Nota: C1 Vol.: 75
Chanel 1 Note On - Duracao: 985500 Nota: C1 Vol.: 81
Chanel 2 Note Off - Duracao: 985560 Nota: C1 Vol.: 63
Chanel 2 Note On - Duracao: 985560 Nota: C1 Vol.: 72
Chanel 1 Note Off - Duracao: 985740 Nota: C1 Vol.: 81
Chanel 1 Note On - Duracao: 985740 Nota: C1 Vol.: 75
Chanel 2 Note Off - Duracao: 985800 Nota: C1 Vol.: 72
Chanel 2 Note On - Duracao: 985800 Nota: C1 Vol.: 56
Chanel 1 Note Off - Duracao: 985980 Nota: C1 Vol.: 75
Chanel 1 Note On - Duracao: 985980 Nota: C1 Vol.: 66
Chanel 3 Note Off - Duracao: 986340 Nota: C1 Vol.: 54
Chanel 3 Note On - Duracao: 986340 Nota: C1 Vol.: 48
Chanel 1 Note Off - Duracao: 986460 Nota: C1 Vol.: 66
Chanel 1 Note On - Duracao: 986460 Nota: C1 Vol.: 46
Chanel 2 Note Off - Duracao: 986760 Nota: C1 Vol.: 56
Chanel 2 Note On - Duracao: 986760 Nota: C1 Vol.: 58
Chanel 1 Note Off - Duracao: 987420 Nota: C1 Vol.: 46
Chanel 1 Note On - Duracao: 987420 Nota: C1 Vol.: 58
Chanel 1 Note Off - Duracao: 987660 Nota: C1 Vol.: 58
Chanel 1 Note On - Duracao: 987660 Nota: C1 Vol.: 75
Chanel 2 Note Off - Duracao: 987720 Nota: C1 Vol.: 58
Chanel 2 Note On - Duracao: 987720 Nota: C1 Vol.: 52
Chanel 1 Note Off - Duracao: 987900 Nota: C1 Vol.: 75
Chanel 1 Note On - Duracao: 987900 Nota: C1 Vol.: 78
Chanel 1 Note Off - Duracao: 988140 Nota: C1 Vol.: 78
Chanel 1 Note On - Duracao: 988140 Nota: C1 Vol.: 63
Chanel 3 Note Off - Duracao: 988260 Nota: C1 Vol.: 48
Chanel 3 Note On - Duracao: 988260 Nota: C1 Vol.: 50
Chanel 1 Note Off - Duracao: 988380 Nota: C1 Vol.: 63
Chanel 1 Note On - Duracao: 988380 Nota: C1 Vol.: 67
Chanel 1 Note Off - Duracao: 988620 Nota: C1 Vol.: 67
Chanel 1 Note On - Duracao: 988620 Nota: C1 Vol.: 73
Chanel 2 Note Off - Duracao: 988680 Nota: C1 Vol.: 52
Chanel 2 Note On - Duracao: 988680 Nota: C1 Vol.: 45
Chanel 1 Note Off - Duracao: 988860 Nota: C1 Vol.: 73
Chanel 1 Note On - Duracao: 988860 Nota: C1 Vol.: 90
Chanel 1 Note Off - Duracao: 988980 Nota: C1 Vol.: 90
Chanel 1 Note On - Duracao: 988980 Nota: C1 Vol.: 90
Chanel 1 Note Off - Duracao: 989220 Nota: C1 Vol.: 90
Chanel 1 Note On - Duracao: 989220 Nota: C1 Vol.: 98
Chanel 1 Note Off - Duracao: 989340 Nota: C1 Vol.: 98
Chanel 1 Note On - Duracao: 989340 Nota: C1 Vol.: 100
Chanel 1 Note Off - Duracao: 989400 Nota: C1 Vol.: 100
Chanel 1 Note On - Duracao: 989400 Nota: C1 Vol.: 91
Chanel 1 Note Off - Duracao: 989640 Nota: C1 Vol.: 91
Chanel 1 Note On - Duracao: 989640 Nota: C1 Vol.: 76
Chanel 1 Note Off - Duracao: 990120 Nota: C1 Vol.: 76
Chanel 1 Note On - Duracao: 990120 Nota: C1 Vol.: 90
Chanel 3 Note Off - Duracao: 990180 Nota: C1 Vol.: 50
Chanel 3 Note On - Duracao: 990180 Nota: C1 Vol.: 48
Chanel 1 Note Off - Duracao: 990240 Nota: C1 Vol.: 90
Chanel 1 Note On - Duracao: 990240 Nota: C1 Vol.: 77
Chanel 1 Note Off - Duracao: 990480 Nota: C1 Vol.: 77
Chanel 1 Note On - Duracao: 990480 Nota: C1 Vol.: 54
Chanel 1 Note Off - Duracao: 991440 Nota: C1 Vol.: 54
Chanel 1 Note On - Duracao: 991440 Nota: C1 Vol.: 58
Chanel 1 Note Off - Duracao: 992400 Nota: C1 Vol.: 58
Chanel 1 Note On - Duracao: 992400 Nota: C1 Vol.: 48
Chanel 2 Note Off - Duracao: 992520 Nota: C1 Vol.: 45
Chanel 2 Note On - Duracao: 992520 Nota: C1 Vol.: 45
Chanel 3 Note Off - Duracao: 994020 Nota: C1 Vol.: 48
Chanel 3 Note On - Duracao: 994020 Nota: C1 Vol.: 46
Chanel 1 Note Off - Duracao: 994320 Nota: C1 Vol.: 48
Chanel 1 Note On - Duracao: 994320 Nota: C1 Vol.: 58
Chanel 1 Note Off - Duracao: 995280 Nota: C1 Vol.: 58
Chanel 1 Note On - Duracao: 995280 Nota: C1 Vol.: 65
Chanel 1 Note Off - Duracao: 995760 Nota: C1 Vol.: 65
Chanel 1 Note On - Duracao: 995760 Nota: C1 Vol.: 65
Chanel 2 Note Off - Duracao: 996360 Nota: C1 Vol.: 45
Chanel 2 Note On - Duracao: 996360 Nota: C1 Vol.: 45
Chanel 1 Note Off - Duracao: 996720 Nota: C1 Vol.: 65
Chanel 1 Note On - Duracao: 996720 Nota: C1 Vol.: 61
Chanel 1 Note Off - Duracao: 997680 Nota: C1 Vol.: 61
Chanel 1 Note On - Duracao: 997680 Nota: C1 Vol.: 60
Chanel 3 Note Off - Duracao: 997860 Nota: C1 Vol.: 46
Chanel 3 Note On - Duracao: 997860 Nota: C1 Vol.: 53
Chanel 1 Note Off - Duracao: 998640 Nota: C1 Vol.: 60
Chanel 1 Note On - Duracao: 998640 Nota: C1 Vol.: 58
Chanel 1 Note Off - Duracao: 999600 Nota: C1 Vol.: 58
Chanel 1 Note On - Duracao: 999600 Nota: C1 Vol.: 73
Chanel 3 Note Off - Duracao: 999780 Nota: C1 Vol.: 53
Chanel 3 Note On - Duracao: 999780 Nota: C1 Vol.: 54
Chanel 1 Note Off - Duracao: 1000080 Nota: C1 Vol.: 73
Chanel 1 Note On - Duracao: 1000080 Nota: C1 Vol.: 94
Chanel 1 Note Off - Duracao: 1000200 Nota: C1 Vol.: 94
Chanel 1 Note On - Duracao: 1000200 Nota: C1 Vol.: 100
Chanel 2 Note Off - Duracao: 1000200 Nota: C1 Vol.: 45
Chanel 2 Note On - Duracao: 1000200 Nota: C1 Vol.: 43
Chanel 1 Note Off - Duracao: 1000260 Nota: C1 Vol.: 100
Chanel 1 Note On - Duracao: 1000260 Nota: C1 Vol.: 90
Chanel 1 Note Off - Duracao: 1000500 Nota: C1 Vol.: 90
Chanel 1 Note On - Duracao: 1000500 Nota: C1 Vol.: 99
Chanel 1 Note Off - Duracao: 1000620 Nota: C1 Vol.: 99
Chanel 1 Note On - Duracao: 1000620 Nota: C1 Vol.: 100
Chanel 1 Note Off - Duracao: 1000680 Nota: C1 Vol.: 100
Chanel 1 Note On - Duracao: 1000680 Nota: C1 Vol.: 93
Chanel 1 Note Off - Duracao: 1000800 Nota: C1 Vol.: 93
Chanel 1 Note On - Duracao: 1000800 Nota: C1 Vol.: 70
Chanel 1 Note Off - Duracao: 1001280 Nota: C1 Vol.: 70
Chanel 1 Note On - Duracao: 1001280 Nota: C1 Vol.: 52
Chanel 3 Note Off - Duracao: 1001700 Nota: C1 Vol.: 54
Chanel 3 Note On - Duracao: 1001700 Nota: C1 Vol.: 43
Chanel 1 Note Off - Duracao: 1002240 Nota: C1 Vol.: 52
Chanel 1 Note On - Duracao: 1002240 Nota: C1 Vol.: 46
Chanel 2 Note Off - Duracao: 1004040 Nota: C1 Vol.: 43
Chanel 2 Note On - Duracao: 1004040 Nota: C1 Vol.: 43
Chanel 1 Note Off - Duracao: 1004160 Nota: C1 Vol.: 46
Chanel 1 Note On - Duracao: 1004160 Nota: C1 Vol.: 56
Chanel 1 Note Off - Duracao: 1005120 Nota: C1 Vol.: 56
Chanel 1 Note On - Duracao: 1005120 Nota: C1 Vol.: 90
Chanel 1 Note Off - Duracao: 1005240 Nota: C1 Vol.: 90
Chanel 1 Note On - Duracao: 1005240 Nota: C1 Vol.: 55
Chanel 3 Note Off - Duracao: 1005540 Nota: C1 Vol.: 43
Chanel 3 Note On - Duracao: 1005540 Nota: C1 Vol.: 48
Chanel 1 Note Off - Duracao: 1006200 Nota: C1 Vol.: 55
Chanel 1 Note On - Duracao: 1006200 Nota: C1 Vol.: 51
Chanel 2 Note Off - Duracao: 1007880 Nota: C1 Vol.: 43
Chanel 2 Note On - Duracao: 1007880 Nota: C1 Vol.: 42
Chanel 1 Note Off - Duracao: 1008120 Nota: C1 Vol.: 51
Chanel 1 Note On - Duracao: 1008120 Nota: C1 Vol.: 52
Chanel 3 Note Off - Duracao: 1009380 Nota: C1 Vol.: 48
Chanel 3 Note On - Duracao: 1009380 Nota: C1 Vol.: 51
Chanel 1 Note Off - Duracao: 1010040 Nota: C1 Vol.: 52
Chanel 1 Note On - Duracao: 1010040 Nota: C1 Vol.: 71
Chanel 1 Note Off - Duracao: 1010280 Nota: C1 Vol.: 71
Chanel 1 Note On - Duracao: 1010280 Nota: C1 Vol.: 67
Chanel 1 Note Off - Duracao: 1010520 Nota: C1 Vol.: 67
Chanel 1 Note On - Duracao: 1010520 Nota: C1 Vol.: 59
Chanel 1 Note Off - Duracao: 1011000 Nota: C1 Vol.: 59
Chanel 1 Note On - Duracao: 1011000 Nota: C1 Vol.: 91
Chanel 1 Note Off - Duracao: 1011120 Nota: C1 Vol.: 91
Chanel 1 Note On - Duracao: 1011120 Nota: C1 Vol.: 82
Chanel 1 Note Off - Duracao: 1011360 Nota: C1 Vol.: 82
Chanel 1 Note On - Duracao: 1011360 Nota: C1 Vol.: 71
Chanel 2 Note Off - Duracao: 1011720 Nota: C1 Vol.: 42
Chanel 2 Note On - Duracao: 1011720 Nota: C1 Vol.: 41
Chanel 1 Note Off - Duracao: 1011840 Nota: C1 Vol.: 71
Chanel 1 Note On - Duracao: 1011840 Nota: C1 Vol.: 84
Chanel 1 Note Off - Duracao: 1012080 Nota: C1 Vol.: 84
Chanel 1 Note On - Duracao: 1012080 Nota: C1 Vol.: 68
Chanel 1 Note Off - Duracao: 1012560 Nota: C1 Vol.: 68
Chanel 1 Note On - Duracao: 1012560 Nota: C1 Vol.: 80
Chanel 1 Note Off - Duracao: 1012800 Nota: C1 Vol.: 80
Chanel 1 Note On - Duracao: 1012800 Nota: C1 Vol.: 68
Chanel 3 Note Off - Duracao: 1013220 Nota: C1 Vol.: 51
Chanel 3 Note On - Duracao: 1013220 Nota: C1 Vol.: 46
Chanel 1 Note Off - Duracao: 1013280 Nota: C1 Vol.: 68
Chanel 1 Note On - Duracao: 1013280 Nota: C1 Vol.: 81
Chanel 1 Note Off - Duracao: 1013400 Nota: C1 Vol.: 81
Chanel 1 Note On - Duracao: 1013400 Nota: C1 Vol.: 49
Chanel 1 Note Off - Duracao: 1014360 Nota: C1 Vol.: 49
Chanel 1 Note On - Duracao: 1014360 Nota: C1 Vol.: 60
Chanel 1 Note Off - Duracao: 1014840 Nota: C1 Vol.: 60
Chanel 1 Note On - Duracao: 1014840 Nota: C1 Vol.: 71
Chanel 1 Note Off - Duracao: 1015320 Nota: C1 Vol.: 71
Chanel 1 Note On - Duracao: 1015320 Nota: C1 Vol.: 72
Chanel 2 Note Off - Duracao: 1015560 Nota: C1 Vol.: 41
Chanel 2 Note On - Duracao: 1015560 Nota: C1 Vol.: 41
Chanel 1 Note Off - Duracao: 1015800 Nota: C1 Vol.: 72
Chanel 1 Note On - Duracao: 1015800 Nota: C1 Vol.: 69
Chanel 1 Note Off - Duracao: 1016040 Nota: C1 Vol.: 69
Chanel 1 Note On - Duracao: 1016040 Nota: C1 Vol.: 67
Chanel 1 Note Off - Duracao: 1016520 Nota: C1 Vol.: 67
Chanel 1 Note On - Duracao: 1016520 Nota: C1 Vol.: 85
Chanel 1 Note Off - Duracao: 1016760 Nota: C1 Vol.: 85
Chanel 1 Note On - Duracao: 1016760 Nota: C1 Vol.: 97
Chanel 1 Note Off - Duracao: 1016880 Nota: C1 Vol.: 97
Chanel 1 Note On - Duracao: 1016880 Nota: C1 Vol.: 94
Chanel 1 Note Off - Duracao: 1017000 Nota: C1 Vol.: 94
Chanel 1 Note On - Duracao: 1017000 Nota: C1 Vol.: 100
Chanel 3 Note Off - Duracao: 1017060 Nota: C1 Vol.: 46
Chanel 3 Note On - Duracao: 1017060 Nota: C1 Vol.: 40
Chanel 1 Note Off - Duracao: 1017120 Nota: C1 Vol.: 100
Chanel 1 Note On - Duracao: 1017120 Nota: C1 Vol.: 100
Chanel 1 Note Off - Duracao: 1017240 Nota: C1 Vol.: 100
Chanel 1 Note On - Duracao: 1017240 Nota: C1 Vol.: 81
Chanel 1 Note Off - Duracao: 1017720 Nota: C1 Vol.: 81
Chanel 1 Note On - Duracao: 1017720 Nota: C1 Vol.: 87
Chanel 1 Note Off - Duracao: 1018200 Nota: C1 Vol.: 87
Chanel 1 Note On - Duracao: 1018200 Nota: C1 Vol.: 79
Chanel 1 Note Off - Duracao: 1018680 Nota: C1 Vol.: 79
Chanel 1 Note On - Duracao: 1018680 Nota: C1 Vol.: 58
Chanel 2 Note Off - Duracao: 1019400 Nota: C1 Vol.: 41
Chanel 2 Note On - Duracao: 1019400 Nota: C1 Vol.: 52
Chanel 1 Note Off - Duracao: 1019640 Nota: C1 Vol.: 58
Chanel 1 Note On - Duracao: 1019640 Nota: C1 Vol.: 48
Chanel 3 Note Off - Duracao: 1020900 Nota: C1 Vol.: 40
Chanel 3 Note On - Duracao: 1020900 Nota: C1 Vol.: 47
Chanel 1 Note Off - Duracao: 1021560 Nota: C1 Vol.: 48
Chanel 1 Note On - Duracao: 1021560 Nota: C1 Vol.: 44
Chanel 3 Note Off - Duracao: 1021860 Nota: C1 Vol.: 47
Chanel 3 Note On - Duracao: 1021860 Nota: C1 Vol.: 58
Chanel 3 Note Off - Duracao: 1022100 Nota: C1 Vol.: 58
Chanel 3 Note On - Duracao: 1022100 Nota: C1 Vol.: 57
Chanel 3 Note Off - Duracao: 1022580 Nota: C1 Vol.: 57
Chanel 3 Note On - Duracao: 1022580 Nota: C1 Vol.: 40
Chanel 2 Note Off - Duracao: 1023240 Nota: C1 Vol.: 52
Chanel 2 Note On - Duracao: 1023240 Nota: C1 Vol.: 51
Chanel 3 Note Off - Duracao: 1024500 Nota: C1 Vol.: 40
Chanel 3 Note On - Duracao: 1024500 Nota: C1 Vol.: 42
Chanel 2 Note Off - Duracao: 1025160 Nota: C1 Vol.: 51
Chanel 2 Note On - Duracao: 1025160 Nota: C1 Vol.: 49
Chanel 1 Note Off - Duracao: 1025400 Nota: C1 Vol.: 44
Chanel 1 Note On - Duracao: 1025400 Nota: C1 Vol.: 46
Chanel 2 Note Off - Duracao: 1027080 Nota: C1 Vol.: 49
Chanel 2 Note On - Duracao: 1027080 Nota: C1 Vol.: 46
Chanel 3 Note Off - Duracao: 1028340 Nota: C1 Vol.: 42
Chanel 3 Note On - Duracao: 1028340 Nota: C1 Vol.: 46
Chanel 2 Note Off - Duracao: 1029000 Nota: C1 Vol.: 46
Chanel 2 Note On - Duracao: 1029000 Nota: C1 Vol.: 52
Chanel 1 Note Off - Duracao: 1029240 Nota: C1 Vol.: 46
Chanel 1 Note On - Duracao: 1029240 Nota: C1 Vol.: 59
Chanel 2 Note Off - Duracao: 1029960 Nota: C1 Vol.: 52
Chanel 2 Note On - Duracao: 1029960 Nota: C1 Vol.: 51
Chanel 1 Note Off - Duracao: 1030200 Nota: C1 Vol.: 59
Chanel 1 Note On - Duracao: 1030200 Nota: C1 Vol.: 61
Chanel 2 Note Off - Duracao: 1030920 Nota: C1 Vol.: 51
Chanel 2 Note On - Duracao: 1030920 Nota: C1 Vol.: 44
Chanel 1 Note Off - Duracao: 1031160 Nota: C1 Vol.: 61
Chanel 1 Note On - Duracao: 1031160 Nota: C1 Vol.: 64
Chanel 1 Note Off - Duracao: 1032120 Nota: C1 Vol.: 64
Chanel 1 Note On - Duracao: 1032120 Nota: C1 Vol.: 62
Chanel 3 Note Off - Duracao: 1032180 Nota: C1 Vol.: 46
Chanel 3 Note On - Duracao: 1032180 Nota: C1 Vol.: 43
Chanel 2 Note Off - Duracao: 1032840 Nota: C1 Vol.: 44
Chanel 2 Note On - Duracao: 1032840 Nota: C1 Vol.: 48
Chanel 1 Note Off - Duracao: 1033080 Nota: C1 Vol.: 62
Chanel 1 Note On - Duracao: 1033080 Nota: C1 Vol.: 61
Chanel 1 Note Off - Duracao: 1034040 Nota: C1 Vol.: 61
Chanel 1 Note On - Duracao: 1034040 Nota: C1 Vol.: 64
Chanel 1 Note Off - Duracao: 1034520 Nota: C1 Vol.: 64
Chanel 1 Note On - Duracao: 1034520 Nota: C1 Vol.: 72
Chanel 1 Note Off - Duracao: 1034760 Nota: C1 Vol.: 72
Chanel 1 Note On - Duracao: 1034760 Nota: C1 Vol.: 81
Chanel 2 Note Off - Duracao: 1034760 Nota: C1 Vol.: 48
Chanel 2 Note On - Duracao: 1034760 Nota: C1 Vol.: 49
Chanel 1 Note Off - Duracao: 1035000 Nota: C1 Vol.: 81
Chanel 1 Note On - Duracao: 1035000 Nota: C1 Vol.: 83
Chanel 1 Note Off - Duracao: 1035240 Nota: C1 Vol.: 83
Chanel 1 Note On - Duracao: 1035240 Nota: C1 Vol.: 97
Chanel 1 Note Off - Duracao: 1035360 Nota: C1 Vol.: 97
Chanel 1 Note On - Duracao: 1035360 Nota: C1 Vol.: 100
Chanel 1 Note Off - Duracao: 1035480 Nota: C1 Vol.: 100
Chanel 1 Note On - Duracao: 1035480 Nota: C1 Vol.: 96
Chanel 1 Note Off - Duracao: 1035600 Nota: C1 Vol.: 96
Chanel 1 Note On - Duracao: 1035600 Nota: C1 Vol.: 78
Chanel 3 Note Off - Duracao: 1036020 Nota: C1 Vol.: 43
Chanel 3 Note On - Duracao: 1036020 Nota: C1 Vol.: 42
Chanel 1 Note Off - Duracao: 1036080 Nota: C1 Vol.: 78
Chanel 1 Note On - Duracao: 1036080 Nota: C1 Vol.: 65
Chanel 1 Note Off - Duracao: 1037040 Nota: C1 Vol.: 65
Chanel 1 Note On - Duracao: 1037040 Nota: C1 Vol.: 48
Chanel 2 Note Off - Duracao: 1038600 Nota: C1 Vol.: 49
Chanel 2 Note On - Duracao: 1038600 Nota: C1 Vol.: 50
Chanel 1 Note Off - Duracao: 1038960 Nota: C1 Vol.: 48
Chanel 1 Note On - Duracao: 1038960 Nota: C1 Vol.: 42
Chanel 3 Note Off - Duracao: 1039860 Nota: C1 Vol.: 42
Chanel 3 Note On - Duracao: 1039860 Nota: C1 Vol.: 42
Chanel 2 Note Off - Duracao: 1040520 Nota: C1 Vol.: 50
Chanel 2 Note On - Duracao: 1040520 Nota: C1 Vol.: 48
Chanel 2 Note Off - Duracao: 1042440 Nota: C1 Vol.: 48
Chanel 2 Note On - Duracao: 1042440 Nota: C1 Vol.: 42
Chanel 1 Note Off - Duracao: 1042800 Nota: C1 Vol.: 42
Chanel 1 Note On - Duracao: 1042800 Nota: C1 Vol.: 51
Chanel 3 Note Off - Duracao: 1043700 Nota: C1 Vol.: 42
Chanel 3 Note On - Duracao: 1043700 Nota: C1 Vol.: 44
Chanel 1 Note Off - Duracao: 1044720 Nota: C1 Vol.: 51
Chanel 1 Note On - Duracao: 1044720 Nota: C1 Vol.: 89
Chanel 1 Note Off - Duracao: 1044840 Nota: C1 Vol.: 89
Chanel 1 Note On - Duracao: 1044840 Nota: C1 Vol.: 52
Chanel 1 Note Off - Duracao: 1045800 Nota: C1 Vol.: 52
Chanel 1 Note On - Duracao: 1045800 Nota: C1 Vol.: 54
Chanel 2 Note Off - Duracao: 1046280 Nota: C1 Vol.: 42
Chanel 2 Note On - Duracao: 1046280 Nota: C1 Vol.: 44
Chanel 1 Note Off - Duracao: 1046760 Nota: C1 Vol.: 54
Chanel 1 Note On - Duracao: 1046760 Nota: C1 Vol.: 58
Chanel 3 Note Off - Duracao: 1047540 Nota: C1 Vol.: 44
Chanel 3 Note On - Duracao: 1047540 Nota: C1 Vol.: 42
Chanel 1 Note Off - Duracao: 1047720 Nota: C1 Vol.: 58
Chanel 1 Note On - Duracao: 1047720 Nota: C1 Vol.: 72
Chanel 1 Note Off - Duracao: 1047960 Nota: C1 Vol.: 72
Chanel 1 Note On - Duracao: 1047960 Nota: C1 Vol.: 75
Chanel 1 Note Off - Duracao: 1048200 Nota: C1 Vol.: 75
Chanel 1 Note On - Duracao: 1048200 Nota: C1 Vol.: 58
Chanel 2 Note Off - Duracao: 1048200 Nota: C1 Vol.: 44
Chanel 2 Note On - Duracao: 1048200 Nota: C1 Vol.: 63
Chanel 2 Note Off - Duracao: 1048680 Nota: C1 Vol.: 63
Chanel 2 Note On - Duracao: 1048680 Nota: C1 Vol.: 61
Chanel 1 Note Off - Duracao: 1049160 Nota: C1 Vol.: 58
Chanel 1 Note On - Duracao: 1049160 Nota: C1 Vol.: 84
Chanel 2 Note Off - Duracao: 1049160 Nota: C1 Vol.: 61
Chanel 2 Note On - Duracao: 1049160 Nota: C1 Vol.: 41
Chanel 1 Note Off - Duracao: 1049400 Nota: C1 Vol.: 84
Chanel 1 Note On - Duracao: 1049400 Nota: C1 Vol.: 81
Chanel 1 Note Off - Duracao: 1049640 Nota: C1 Vol.: 81
Chanel 1 Note On - Duracao: 1049640 Nota: C1 Vol.: 67
Chanel 1 Note Off - Duracao: 1050600 Nota: C1 Vol.: 67
Chanel 1 Note On - Duracao: 1050600 Nota: C1 Vol.: 78
Chanel 1 Note Off - Duracao: 1051080 Nota: C1 Vol.: 78
Chanel 1 Note On - Duracao: 1051080 Nota: C1 Vol.: 77
Chanel 2 Note Off - Duracao: 1051080 Nota: C1 Vol.: 41
Chanel 2 Note On - Duracao: 1051080 Nota: C1 Vol.: 47
Chanel 1 Note Off - Duracao: 1051320 Nota: C1 Vol.: 77
Chanel 1 Note On - Duracao: 1051320 Nota: C1 Vol.: 77
Chanel 3 Note Off - Duracao: 1051380 Nota: C1 Vol.: 42
Chanel 3 Note On - Duracao: 1051380 Nota: C1 Vol.: 48
Chanel 1 Note Off - Duracao: 1051560 Nota: C1 Vol.: 77
Chanel 1 Note On - Duracao: 1051560 Nota: C1 Vol.: 63
Chanel 1 Note Off - Duracao: 1052520 Nota: C1 Vol.: 63
Chanel 1 Note On - Duracao: 1052520 Nota: C1 Vol.: 76
Chanel 1 Note Off - Duracao: 1052760 Nota: C1 Vol.: 76
Chanel 1 Note On - Duracao: 1052760 Nota: C1 Vol.: 58
Chanel 2 Note Off - Duracao: 1053000 Nota: C1 Vol.: 47
Chanel 2 Note On - Duracao: 1053000 Nota: C1 Vol.: 44
Chanel 1 Note Off - Duracao: 1053240 Nota: C1 Vol.: 58
Chanel 1 Note On - Duracao: 1053240 Nota: C1 Vol.: 57
Chanel 3 Note Off - Duracao: 1053300 Nota: C1 Vol.: 48
Chanel 3 Note On - Duracao: 1053300 Nota: C1 Vol.: 46
Chanel 1 Note Off - Duracao: 1053720 Nota: C1 Vol.: 57
Chanel 1 Note On - Duracao: 1053720 Nota: C1 Vol.: 59
Chanel 1 Note Off - Duracao: 1054680 Nota: C1 Vol.: 59
Chanel 1 Note On - Duracao: 1054680 Nota: C1 Vol.: 59
Chanel 2 Note Off - Duracao: 1054920 Nota: C1 Vol.: 44
Chanel 2 Note On - Duracao: 1054920 Nota: C1 Vol.: 57
Chanel 1 Note Off - Duracao: 1055640 Nota: C1 Vol.: 59
Chanel 1 Note On - Duracao: 1055640 Nota: C1 Vol.: 54
Chanel 2 Note Off - Duracao: 1055880 Nota: C1 Vol.: 57
Chanel 2 Note On - Duracao: 1055880 Nota: C1 Vol.: 60
Chanel 2 Note Off - Duracao: 1056840 Nota: C1 Vol.: 60
Chanel 2 Note On - Duracao: 1056840 Nota: C1 Vol.: 46
Chanel 3 Note Off - Duracao: 1057140 Nota: C1 Vol.: 46
Chanel 3 Note On - Duracao: 1057140 Nota: C1 Vol.: 48
Chanel 1 Note Off - Duracao: 1057560 Nota: C1 Vol.: 54
Chanel 1 Note On - Duracao: 1057560 Nota: C1 Vol.: 70
Chanel 1 Note Off - Duracao: 1058040 Nota: C1 Vol.: 70
Chanel 1 Note On - Duracao: 1058040 Nota: C1 Vol.: 97
Chanel 1 Note Off - Duracao: 1058160 Nota: C1 Vol.: 97
Chanel 1 Note On - Duracao: 1058160 Nota: C1 Vol.: 100
Chanel 1 Note Off - Duracao: 1058220 Nota: C1 Vol.: 100
Chanel 1 Note On - Duracao: 1058220 Nota: C1 Vol.: 100
Chanel 1 Note Off - Duracao: 1058340 Nota: C1 Vol.: 100
Chanel 1 Note On - Duracao: 1058340 Nota: C1 Vol.: 100
Chanel 1 Note Off - Duracao: 1058460 Nota: C1 Vol.: 100
Chanel 1 Note On - Duracao: 1058460 Nota: C1 Vol.: 86
Chanel 1 Note Off - Duracao: 1058940 Nota: C1 Vol.: 86
Chanel 1 Note On - Duracao: 1058940 Nota: C1 Vol.: 78
Chanel 1 Note Off - Duracao: 1059900 Nota: C1 Vol.: 78
Chanel 1 Note On - Duracao: 1059900 Nota: C1 Vol.: 67
Chanel 2 Note Off - Duracao: 1060680 Nota: C1 Vol.: 46
Chanel 2 Note On - Duracao: 1060680 Nota: C1 Vol.: 41
Chanel 3 Note Off - Duracao: 1060980 Nota: C1 Vol.: 48
Chanel 3 Note On - Duracao: 1060980 Nota: C1 Vol.: 47
Chanel 1 Note Off - Duracao: 1061820 Nota: C1 Vol.: 67
Chanel 1 Note On - Duracao: 1061820 Nota: C1 Vol.: 66
Chanel 1 Note Off - Duracao: 1062780 Nota: C1 Vol.: 66
Chanel 1 Note On - Duracao: 1062780 Nota: C1 Vol.: 49
Chanel 2 Note Off - Duracao: 1064520 Nota: C1 Vol.: 41
Chanel 2 Note On - Duracao: 1064520 Nota: C1 Vol.: 46
Chanel 1 Note Off - Duracao: 1064700 Nota: C1 Vol.: 49
Chanel 1 Note On - Duracao: 1064700 Nota: C1 Vol.: 44
Chanel 3 Note Off - Duracao: 1064820 Nota: C1 Vol.: 47
Chanel 3 Note On - Duracao: 1064820 Nota: C1 Vol.: 49
Chanel 2 Note Off - Duracao: 1066440 Nota: C1 Vol.: 46
Chanel 2 Note On - Duracao: 1066440 Nota: C1 Vol.: 45
Chanel 1 Note Off - Duracao: 1066620 Nota: C1 Vol.: 44
Chanel 1 Note On - Duracao: 1066620 Nota: C1 Vol.: 47
Chanel 2 Note Off - Duracao: 1068360 Nota: C1 Vol.: 45
Chanel 2 Note On - Duracao: 1068360 Nota: C1 Vol.: 46
Chanel 1 Note Off - Duracao: 1068540 Nota: C1 Vol.: 47
Chanel 1 Note On - Duracao: 1068540 Nota: C1 Vol.: 44
Chanel 3 Note Off - Duracao: 1068660 Nota: C1 Vol.: 49
Chanel 3 Note On - Duracao: 1068660 Nota: C1 Vol.: 62
Chanel 3 Note Off - Duracao: 1069620 Nota: C1 Vol.: 62
Chanel 3 Note On - Duracao: 1069620 Nota: C1 Vol.: 71
Chanel 3 Note Off - Duracao: 1070580 Nota: C1 Vol.: 71
Chanel 3 Note On - Duracao: 1070580 Nota: C1 Vol.: 81
Chanel 3 Note Off - Duracao: 1071060 Nota: C1 Vol.: 81
Chanel 3 Note On - Duracao: 1071060 Nota: C1 Vol.: 100
Chanel 3 Note Off - Duracao: 1071180 Nota: C1 Vol.: 100
Chanel 3 Note On - Duracao: 1071180 Nota: C1 Vol.: 100
Chanel 3 Note Off - Duracao: 1071300 Nota: C1 Vol.: 100
Chanel 3 Note On - Duracao: 1071300 Nota: C1 Vol.: 73
Chanel 2 Note Off - Duracao: 1072200 Nota: C1 Vol.: 46
Chanel 2 Note On - Duracao: 1072200 Nota: C1 Vol.: 43
Chanel 3 Note Off - Duracao: 1072260 Nota: C1 Vol.: 73
Chanel 3 Note On - Duracao: 1072260 Nota: C1 Vol.: 74
Chanel 1 Note Off - Duracao: 1072380 Nota: C1 Vol.: 44
Chanel 1 Note On - Duracao: 1072380 Nota: C1 Vol.: 52
Chanel 3 Note Off - Duracao: 1073220 Nota: C1 Vol.: 74
Chanel 3 Note On - Duracao: 1073220 Nota: C1 Vol.: 94
Chanel 3 Note Off - Duracao: 1073460 Nota: C1 Vol.: 94
Chanel 3 Note On - Duracao: 1073460 Nota: C1 Vol.: 54
Chanel 1 Note Off - Duracao: 1074300 Nota: C1 Vol.: 52
Chanel 1 Note On - Duracao: 1074300 Nota: C1 Vol.: 45
Chanel 2 Note Off - Duracao: 1076040 Nota: C1 Vol.: 43
Chanel 2 Note On - Duracao: 1076040 Nota: C1 Vol.: 42
Chanel 1 Note Off - Duracao: 1076220 Nota: C1 Vol.: 45
Chanel 3 Note Off - Duracao: 1077300 Nota: C1 Vol.: 54
Chanel 3 Note On - Duracao: 1077300 Nota: C1 Vol.: 46
Chanel 2 Note Off - Duracao: 1079880 Nota: C1 Vol.: 42
Chanel 2 Note On - Duracao: 1079880 Nota: C1 Vol.: 65
Chanel 2 Note Off - Duracao: 1080360 Nota: C1 Vol.: 65
Chanel 2 Note On - Duracao: 1080360 Nota: C1 Vol.: 56
Chanel 3 Note Off - Duracao: 1081140 Nota: C1 Vol.: 46
Chanel 3 Note On - Duracao: 1081140 Nota: C1 Vol.: 48
Chanel 2 Note Off - Duracao: 1081320 Nota: C1 Vol.: 56
Chanel 2 Note On - Duracao: 1081320 Nota: C1 Vol.: 55
Chanel 2 Note Off - Duracao: 1082280 Nota: C1 Vol.: 55
Chanel 2 Note On - Duracao: 1082280 Nota: C1 Vol.: 54
Chanel 2 Note Off - Duracao: 1083240 Nota: C1 Vol.: 54
Chanel 2 Note On - Duracao: 1083240 Nota: C1 Vol.: 49
Chanel 3 Note Off - Duracao: 1084980 Nota: C1 Vol.: 48
Chanel 3 Note On - Duracao: 1084980 Nota: C1 Vol.: 44
Chanel 2 Note Off - Duracao: 1085160 Nota: C1 Vol.: 49
Chanel 2 Note On - Duracao: 1085160 Nota: C1 Vol.: 40
Chanel 2 Note Off - Duracao: 1087080 Nota: C1 Vol.: 40
Chanel 2 Note On - Duracao: 1087080 Nota: C1 Vol.: 40
Chanel 3 Note Off - Duracao: 1088820 Nota: C1 Vol.: 44
Chanel 3 Note On - Duracao: 1088820 Nota: C1 Vol.: 43
Chanel 2 Note Off - Duracao: 1089000 Nota: C1 Vol.: 40
Chanel 2 Note On - Duracao: 1089000 Nota: C1 Vol.: 52
Chanel 2 Note Off - Duracao: 1089960 Nota: C1 Vol.: 52
Chanel 2 Note On - Duracao: 1089960 Nota: C1 Vol.: 62
Chanel 2 Note Off - Duracao: 1090440 Nota: C1 Vol.: 62
Chanel 2 Note On - Duracao: 1090440 Nota: C1 Vol.: 56
Chanel 2 Note Off - Duracao: 1091400 Nota: C1 Vol.: 56
Chanel 2 Note On - Duracao: 1091400 Nota: C1 Vol.: 67
Chanel 2 Note Off - Duracao: 1091880 Nota: C1 Vol.: 67
Chanel 2 Note On - Duracao: 1091880 Nota: C1 Vol.: 51
Chanel 3 Note Off - Duracao: 1092660 Nota: C1 Vol.: 43
Chanel 3 Note On - Duracao: 1092660 Nota: C1 Vol.: 41
Chanel 2 Note Off - Duracao: 1093800 Nota: C1 Vol.: 51
Chanel 2 Note On - Duracao: 1093800 Nota: C1 Vol.: 73
Chanel 2 Note Off - Duracao: 1094040 Nota: C1 Vol.: 73
Chanel 2 Note On - Duracao: 1094040 Nota: C1 Vol.: 52
Chanel 2 Note Off - Duracao: 1095000 Nota: C1 Vol.: 52
Chanel 2 Note On - Duracao: 1095000 Nota: C1 Vol.: 42
Chanel 3 Note Off - Duracao: 1096500 Nota: C1 Vol.: 41
Chanel 3 Note On - Duracao: 1096500 Nota: C1 Vol.: 40
Chanel 2 Note Off - Duracao: 1096920 Nota: C1 Vol.: 42
Chanel 2 Note On - Duracao: 1096920 Nota: C1 Vol.: 62
Chanel 2 Note Off - Duracao: 1097880 Nota: C1 Vol.: 62
Chanel 2 Note On - Duracao: 1097880 Nota: C1 Vol.: 44
Chanel 3 Note Off - Duracao: 1100340 Nota: C1 Vol.: 40
Chanel 3 Note On - Duracao: 1100340 Nota: C1 Vol.: 40
Chanel 2 Note Off - Duracao: 1101720 Nota: C1 Vol.: 44
Chanel 2 Note On - Duracao: 1101720 Nota: C1 Vol.: 44
Chanel 3 Note Off - Duracao: 1104180 Nota: C1 Vol.: 40
Chanel 3 Note On - Duracao: 1104180 Nota: C1 Vol.: 40
Chanel 2 Note Off - Duracao: 1105560 Nota: C1 Vol.: 44
Chanel 2 Note On - Duracao: 1105560 Nota: C1 Vol.: 46
Chanel 3 Note Off - Duracao: 1108020 Nota: C1 Vol.: 40
Chanel 3 Note On - Duracao: 1108020 Nota: C1 Vol.: 41
Chanel 2 Note Off - Duracao: 1109400 Nota: C1 Vol.: 46
Chanel 2 Note On - Duracao: 1109400 Nota: C1 Vol.: 40
Chanel 3 Note Off - Duracao: 1111860 Nota: C1 Vol.: 41
Chanel 3 Note On - Duracao: 1111860 Nota: C1 Vol.: 42
Chanel 2 Note Off - Duracao: 1113240 Nota: C1 Vol.: 40
Chanel 2 Note On - Duracao: 1113240 Nota: C1 Vol.: 42
Chanel 3 Note Off - Duracao: 1115700 Nota: C1 Vol.: 42
Chanel 3 Note On - Duracao: 1115700 Nota: C1 Vol.: 43
Chanel 2 Note Off - Duracao: 1117080 Nota: C1 Vol.: 42
Chanel 2 Note On - Duracao: 1117080 Nota: C1 Vol.: 41
Chanel 3 Note Off - Duracao: 1119540 Nota: C1 Vol.: 43
Chanel 3 Note On - Duracao: 1119540 Nota: C1 Vol.: 43
Chanel 2 Note Off - Duracao: 1120920 Nota: C1 Vol.: 41
Chanel 2 Note On - Duracao: 1120920 Nota: C1 Vol.: 40
Chanel 3 Note Off - Duracao: 1123380 Nota: C1 Vol.: 43
Chanel 3 Note On - Duracao: 1123380 Nota: C1 Vol.: 43
Chanel 2 Note Off - Duracao: 1124760 Nota: C1 Vol.: 40
Chanel 2 Note On - Duracao: 1124760 Nota: C1 Vol.: 51
Chanel 2 Note Off - Duracao: 1126680 Nota: C1 Vol.: 51
Chanel 2 Note On - Duracao: 1126680 Nota: C1 Vol.: 47
Chanel 3 Note Off - Duracao: 1127220 Nota: C1 Vol.: 43
Chanel 3 Note On - Duracao: 1127220 Nota: C1 Vol.: 44
Chanel 2 Note Off - Duracao: 1128600 Nota: C1 Vol.: 47
Chanel 2 Note On - Duracao: 1128600 Nota: C1 Vol.: 51
Chanel 2 Note Off - Duracao: 1130520 Nota: C1 Vol.: 51
Chanel 2 Note On - Duracao: 1130520 Nota: C1 Vol.: 49
Chanel 3 Note Off - Duracao: 1131060 Nota: C1 Vol.: 44
Chanel 3 Note On - Duracao: 1131060 Nota: C1 Vol.: 47
Chanel 2 Note Off - Duracao: 1131480 Nota: C1 Vol.: 49
Chanel 2 Note On - Duracao: 1131480 Nota: C1 Vol.: 59
Chanel 2 Note Off - Duracao: 1131720 Nota: C1 Vol.: 59
Chanel 2 Note On - Duracao: 1131720 Nota: C1 Vol.: 58
Chanel 2 Note Off - Duracao: 1131960 Nota: C1 Vol.: 58
Chanel 2 Note On - Duracao: 1131960 Nota: C1 Vol.: 45
Chanel 2 Note Off - Duracao: 1132920 Nota: C1 Vol.: 45
Chanel 2 Note On - Duracao: 1132920 Nota: C1 Vol.: 40
Chanel 3 Note Off - Duracao: 1134900 Nota: C1 Vol.: 47
Chanel 3 Note On - Duracao: 1134900 Nota: C1 Vol.: 49
Chanel 2 Note Off - Duracao: 1136760 Nota: C1 Vol.: 40
Chanel 2 Note On - Duracao: 1136760 Nota: C1 Vol.: 45
Chanel 3 Note Off - Duracao: 1136820 Nota: C1 Vol.: 49
Chanel 3 Note On - Duracao: 1136820 Nota: C1 Vol.: 49
Chanel 3 Note Off - Duracao: 1138740 Nota: C1 Vol.: 49
Chanel 3 Note On - Duracao: 1138740 Nota: C1 Vol.: 50
Chanel 2 Note Off - Duracao: 1140600 Nota: C1 Vol.: 45
Chanel 2 Note On - Duracao: 1140600 Nota: C1 Vol.: 42
Chanel 3 Note Off - Duracao: 1142580 Nota: C1 Vol.: 50
Chanel 3 Note On - Duracao: 1142580 Nota: C1 Vol.: 50
Chanel 2 Note Off - Duracao: 1144440 Nota: C1 Vol.: 42
Chanel 2 Note On - Duracao: 1144440 Nota: C1 Vol.: 49
Chanel 2 Note Off - Duracao: 1146360 Nota: C1 Vol.: 49
Chanel 2 Note On - Duracao: 1146360 Nota: C1 Vol.: 53
Chanel 3 Note Off - Duracao: 1146420 Nota: C1 Vol.: 50
Chanel 3 Note On - Duracao: 1146420 Nota: C1 Vol.: 46
Chanel 2 Note Off - Duracao: 1147320 Nota: C1 Vol.: 53
Chanel 2 Note On - Duracao: 1147320 Nota: C1 Vol.: 55
Chanel 2 Note Off - Duracao: 1148280 Nota: C1 Vol.: 55
Chanel 2 Note On - Duracao: 1148280 Nota: C1 Vol.: 48
Chanel 2 Note Off - Duracao: 1149240 Nota: C1 Vol.: 48
Chanel 2 Note On - Duracao: 1149240 Nota: C1 Vol.: 41
Chanel 3 Note Off - Duracao: 1150260 Nota: C1 Vol.: 46
Chanel 3 Note On - Duracao: 1150260 Nota: C1 Vol.: 44
Chanel 2 Note Off - Duracao: 1151160 Nota: C1 Vol.: 41
Chanel 2 Note On - Duracao: 1151160 Nota: C1 Vol.: 52
Chanel 2 Note Off - Duracao: 1152120 Nota: C1 Vol.: 52
Chanel 2 Note On - Duracao: 1152120 Nota: C1 Vol.: 41
Chanel 3 Note Off - Duracao: 1154100 Nota: C1 Vol.: 44
Chanel 3 Note On - Duracao: 1154100 Nota: C1 Vol.: 45
Chanel 2 Note Off - Duracao: 1155960 Nota: C1 Vol.: 41
Chanel 2 Note On - Duracao: 1155960 Nota: C1 Vol.: 43
Chanel 2 Note Off - Duracao: 1157880 Nota: C1 Vol.: 43
Chanel 2 Note On - Duracao: 1157880 Nota: C1 Vol.: 58
Chanel 3 Note Off - Duracao: 1157940 Nota: C1 Vol.: 45
Chanel 3 Note On - Duracao: 1157940 Nota: C1 Vol.: 48
Chanel 2 Note Off - Duracao: 1158840 Nota: C1 Vol.: 58
Chanel 2 Note On - Duracao: 1158840 Nota: C1 Vol.: 61
Chanel 2 Note Off - Duracao: 1159320 Nota: C1 Vol.: 61
Chanel 2 Note On - Duracao: 1159320 Nota: C1 Vol.: 49
Chanel 2 Note Off - Duracao: 1161240 Nota: C1 Vol.: 49
Chanel 2 Note On - Duracao: 1161240 Nota: C1 Vol.: 42
Chanel 3 Note Off - Duracao: 1161780 Nota: C1 Vol.: 48
Chanel 3 Note On - Duracao: 1161780 Nota: C1 Vol.: 40
Chanel 2 Note Off - Duracao: 1165080 Nota: C1 Vol.: 42
Chanel 2 Note On - Duracao: 1165080 Nota: C1 Vol.: 61
Chanel 3 Note Off - Duracao: 1165620 Nota: C1 Vol.: 40
Chanel 3 Note On - Duracao: 1165620 Nota: C1 Vol.: 40
Chanel 2 Note Off - Duracao: 1166040 Nota: C1 Vol.: 61
Chanel 2 Note On - Duracao: 1166040 Nota: C1 Vol.: 73
Chanel 2 Note Off - Duracao: 1166280 Nota: C1 Vol.: 73
Chanel 2 Note On - Duracao: 1166280 Nota: C1 Vol.: 70
Chanel 2 Note Off - Duracao: 1166760 Nota: C1 Vol.: 70
Chanel 2 Note On - Duracao: 1166760 Nota: C1 Vol.: 55
Chanel 3 Note Off - Duracao: 1167540 Nota: C1 Vol.: 40
Chanel 3 Note On - Duracao: 1167540 Nota: C1 Vol.: 40
Chanel 2 Note Off - Duracao: 1168680 Nota: C1 Vol.: 55
Chanel 2 Note On - Duracao: 1168680 Nota: C1 Vol.: 43
Chanel 3 Note Off - Duracao: 1169460 Nota: C1 Vol.: 40
Chanel 3 Note On - Duracao: 1169460 Nota: C1 Vol.: 53
Chanel 3 Note Off - Duracao: 1169940 Nota: C1 Vol.: 53
Chanel 3 Note On - Duracao: 1169940 Nota: C1 Vol.: 52
Chanel 3 Note Off - Duracao: 1170420 Nota: C1 Vol.: 52
Chanel 3 Note On - Duracao: 1170420 Nota: C1 Vol.: 41
Chanel 3 Note Off - Duracao: 1172340 Nota: C1 Vol.: 41
Chanel 3 Note On - Duracao: 1172340 Nota: C1 Vol.: 40
Chanel 2 Note Off - Duracao: 1172520 Nota: C1 Vol.: 43
Chanel 2 Note On - Duracao: 1172520 Nota: C1 Vol.: 72
Chanel 2 Note Off - Duracao: 1173000 Nota: C1 Vol.: 72
Chanel 2 Note On - Duracao: 1173000 Nota: C1 Vol.: 77
Chanel 2 Note Off - Duracao: 1173240 Nota: C1 Vol.: 77
Chanel 2 Note On - Duracao: 1173240 Nota: C1 Vol.: 68
Chanel 2 Note Off - Duracao: 1173720 Nota: C1 Vol.: 68
Chanel 2 Note On - Duracao: 1173720 Nota: C1 Vol.: 55
Chanel 2 Note Off - Duracao: 1175640 Nota: C1 Vol.: 55
Chanel 2 Note On - Duracao: 1175640 Nota: C1 Vol.: 68
Chanel 2 Note Off - Duracao: 1176120 Nota: C1 Vol.: 68
Chanel 2 Note On - Duracao: 1176120 Nota: C1 Vol.: 41
Chanel 3 Note Off - Duracao: 1176180 Nota: C1 Vol.: 40
Chanel 3 Note On - Duracao: 1176180 Nota: C1 Vol.: 42
Chanel 2 Note Off - Duracao: 1178040 Nota: C1 Vol.: 41
Chanel 2 Note On - Duracao: 1178040 Nota: C1 Vol.: 44
Chanel 2 Note Off - Duracao: 1179960 Nota: C1 Vol.: 44
Chanel 2 Note On - Duracao: 1179960 Nota: C1 Vol.: 49
Chanel 3 Note Off - Duracao: 1180020 Nota: C1 Vol.: 42
Chanel 3 Note On - Duracao: 1180020 Nota: C1 Vol.: 44
Chanel 2 Note Off - Duracao: 1181880 Nota: C1 Vol.: 49
Chanel 2 Note On - Duracao: 1181880 Nota: C1 Vol.: 57
Chanel 2 Note Off - Duracao: 1182840 Nota: C1 Vol.: 57
Chanel 2 Note On - Duracao: 1182840 Nota: C1 Vol.: 59
Chanel 2 Note Off - Duracao: 1183800 Nota: C1 Vol.: 59
Chanel 2 Note On - Duracao: 1183800 Nota: C1 Vol.: 62
Chanel 3 Note Off - Duracao: 1183860 Nota: C1 Vol.: 44
Chanel 3 Note On - Duracao: 1183860 Nota: C1 Vol.: 44
Chanel 2 Note Off - Duracao: 1184760 Nota: C1 Vol.: 62
Chanel 2 Note On - Duracao: 1184760 Nota: C1 Vol.: 67
Chanel 2 Note Off - Duracao: 1185240 Nota: C1 Vol.: 67
Chanel 2 Note On - Duracao: 1185240 Nota: C1 Vol.: 48
Chanel 2 Note Off - Duracao: 1187160 Nota: C1 Vol.: 48
Chanel 2 Note On - Duracao: 1187160 Nota: C1 Vol.: 40
Chanel 3 Note Off - Duracao: 1187700 Nota: C1 Vol.: 44
Chanel 3 Note On - Duracao: 1187700 Nota: C1 Vol.: 40
Chanel 2 Note Off - Duracao: 1191000 Nota: C1 Vol.: 40
Chanel 2 Note On - Duracao: 1191000 Nota: C1 Vol.: 54
Chanel 3 Note Off - Duracao: 1191540 Nota: C1 Vol.: 40
Chanel 3 Note On - Duracao: 1191540 Nota: C1 Vol.: 41
Chanel 2 Note Off - Duracao: 1192920 Nota: C1 Vol.: 54
Chanel 2 Note On - Duracao: 1192920 Nota: C1 Vol.: 45
Chanel 3 Note Off - Duracao: 1195380 Nota: C1 Vol.: 41
Chanel 3 Note On - Duracao: 1195380 Nota: C1 Vol.: 43
Chanel 2 Note Off - Duracao: 1196760 Nota: C1 Vol.: 45
Chanel 2 Note On - Duracao: 1196760 Nota: C1 Vol.: 42
Chanel 3 Note Off - Duracao: 1199220 Nota: C1 Vol.: 43
Chanel 3 Note On - Duracao: 1199220 Nota: C1 Vol.: 45
Chanel 2 Note Off - Duracao: 1200600 Nota: C1 Vol.: 42
Chanel 2 Note On - Duracao: 1200600 Nota: C1 Vol.: 43
Chanel 3 Note Off - Duracao: 1203060 Nota: C1 Vol.: 45
Chanel 3 Note On - Duracao: 1203060 Nota: C1 Vol.: 49
Chanel 2 Note Off - Duracao: 1204440 Nota: C1 Vol.: 43
Chanel 2 Note On - Duracao: 1204440 Nota: C1 Vol.: 40
Chanel 3 Note Off - Duracao: 1206900 Nota: C1 Vol.: 49
Chanel 3 Note On - Duracao: 1206900 Nota: C1 Vol.: 42
Chanel 2 Note Off - Duracao: 1208280 Nota: C1 Vol.: 40
Chanel 2 Note On - Duracao: 1208280 Nota: C1 Vol.: 46
Chanel 3 Note Off - Duracao: 1210740 Nota: C1 Vol.: 42
Chanel 3 Note On - Duracao: 1210740 Nota: C1 Vol.: 41
Chanel 2 Note Off - Duracao: 1212120 Nota: C1 Vol.: 46
Chanel 2 Note On - Duracao: 1212120 Nota: C1 Vol.: 47
Chanel 3 Note Off - Duracao: 1214580 Nota: C1 Vol.: 41
Chanel 3 Note On - Duracao: 1214580 Nota: C1 Vol.: 64
Chanel 3 Note Off - Duracao: 1215060 Nota: C1 Vol.: 64
Chanel 3 Note On - Duracao: 1215060 Nota: C1 Vol.: 76
Chanel 3 Note Off - Duracao: 1215300 Nota: C1 Vol.: 76
Chanel 3 Note On - Duracao: 1215300 Nota: C1 Vol.: 64
Chanel 2 Note Off - Duracao: 1215960 Nota: C1 Vol.: 47
Chanel 2 Note On - Duracao: 1215960 Nota: C1 Vol.: 44
Chanel 3 Note Off - Duracao: 1216260 Nota: C1 Vol.: 64
Chanel 3 Note On - Duracao: 1216260 Nota: C1 Vol.: 87
Chanel 3 Note Off - Duracao: 1216500 Nota: C1 Vol.: 87
Chanel 3 Note On - Duracao: 1216500 Nota: C1 Vol.: 100
Chanel 3 Note Off - Duracao: 1216620 Nota: C1 Vol.: 100
Chanel 3 Note On - Duracao: 1216620 Nota: C1 Vol.: 100
Chanel 3 Note Off - Duracao: 1216740 Nota: C1 Vol.: 100
Chanel 3 Note On - Duracao: 1216740 Nota: C1 Vol.: 82
Chanel 3 Note Off - Duracao: 1217220 Nota: C1 Vol.: 82
Chanel 3 Note On - Duracao: 1217220 Nota: C1 Vol.: 64
Chanel 3 Note Off - Duracao: 1219140 Nota: C1 Vol.: 64
Chanel 3 Note On - Duracao: 1219140 Nota: C1 Vol.: 76
Chanel 2 Note Off - Duracao: 1219800 Nota: C1 Vol.: 44
Chanel 2 Note On - Duracao: 1219800 Nota: C1 Vol.: 42
Chanel 3 Note Off - Duracao: 1220100 Nota: C1 Vol.: 76
Chanel 3 Note On - Duracao: 1220100 Nota: C1 Vol.: 79
Chanel 3 Note Off - Duracao: 1221060 Nota: C1 Vol.: 79
Chanel 3 Note On - Duracao: 1221060 Nota: C1 Vol.: 54
Chanel 2 Note Off - Duracao: 1223640 Nota: C1 Vol.: 42
Chanel 2 Note On - Duracao: 1223640 Nota: C1 Vol.: 50
Chanel 3 Note Off - Duracao: 1224900 Nota: C1 Vol.: 54
Chanel 3 Note On - Duracao: 1224900 Nota: C1 Vol.: 52
Chanel 2 Note Off - Duracao: 1225560 Nota: C1 Vol.: 50
Chanel 2 Note On - Duracao: 1225560 Nota: C1 Vol.: 48
Chanel 2 Note Off - Duracao: 1227480 Nota: C1 Vol.: 48
Chanel 2 Note On - Duracao: 1227480 Nota: C1 Vol.: 57
Chanel 2 Note Off - Duracao: 1228440 Nota: C1 Vol.: 57
Chanel 2 Note On - Duracao: 1228440 Nota: C1 Vol.: 48
Chanel 3 Note Off - Duracao: 1228740 Nota: C1 Vol.: 52
Chanel 3 Note On - Duracao: 1228740 Nota: C1 Vol.: 49
Chanel 2 Note Off - Duracao: 1229400 Nota: C1 Vol.: 48
Chanel 2 Note On - Duracao: 1229400 Nota: C1 Vol.: 56
Chanel 2 Note Off - Duracao: 1229640 Nota: C1 Vol.: 56
Chanel 2 Note On - Duracao: 1229640 Nota: C1 Vol.: 54
Chanel 2 Note Off - Duracao: 1229880 Nota: C1 Vol.: 54
Chanel 2 Note On - Duracao: 1229880 Nota: C1 Vol.: 51
Chanel 2 Note Off - Duracao: 1230360 Nota: C1 Vol.: 51
Chanel 2 Note On - Duracao: 1230360 Nota: C1 Vol.: 51
Chanel 3 Note Off - Duracao: 1230660 Nota: C1 Vol.: 49
Chanel 3 Note On - Duracao: 1230660 Nota: C1 Vol.: 42
Chanel 2 Note Off - Duracao: 1231320 Nota: C1 Vol.: 51
Chanel 2 Note On - Duracao: 1231320 Nota: C1 Vol.: 42
Chanel 3 Note Off - Duracao: 1234500 Nota: C1 Vol.: 42
Chanel 3 Note On - Duracao: 1234500 Nota: C1 Vol.: 42
Chanel 2 Note Off - Duracao: 1235160 Nota: C1 Vol.: 42
Chanel 2 Note On - Duracao: 1235160 Nota: C1 Vol.: 60
Chanel 2 Note Off - Duracao: 1236120 Nota: C1 Vol.: 60
Chanel 2 Note On - Duracao: 1236120 Nota: C1 Vol.: 71
Chanel 2 Note Off - Duracao: 1236360 Nota: C1 Vol.: 71
Chanel 2 Note On - Duracao: 1236360 Nota: C1 Vol.: 56
Chanel 2 Note Off - Duracao: 1237320 Nota: C1 Vol.: 56
Chanel 2 Note On - Duracao: 1237320 Nota: C1 Vol.: 42
Chanel 3 Note Off - Duracao: 1238340 Nota: C1 Vol.: 42
Chanel 3 Note On - Duracao: 1238340 Nota: C1 Vol.: 40
Chanel 2 Note Off - Duracao: 1239240 Nota: C1 Vol.: 42
Chanel 2 Note On - Duracao: 1239240 Nota: C1 Vol.: 40
Chanel 3 Note Off - Duracao: 1242180 Nota: C1 Vol.: 40
Chanel 3 Note On - Duracao: 1242180 Nota: C1 Vol.: 44
Chanel 2 Note Off - Duracao: 1243080 Nota: C1 Vol.: 40
Chanel 2 Note On - Duracao: 1243080 Nota: C1 Vol.: 60
Chanel 2 Note Off - Duracao: 1243560 Nota: C1 Vol.: 60
Chanel 2 Note On - Duracao: 1243560 Nota: C1 Vol.: 52
Chanel 2 Note Off - Duracao: 1244520 Nota: C1 Vol.: 52
Chanel 2 Note On - Duracao: 1244520 Nota: C1 Vol.: 43
Chanel 3 Note Off - Duracao: 1246020 Nota: C1 Vol.: 44
Chanel 3 Note On - Duracao: 1246020 Nota: C1 Vol.: 47
Chanel 2 Note Off - Duracao: 1246440 Nota: C1 Vol.: 43
Chanel 2 Note On - Duracao: 1246440 Nota: C1 Vol.: 41
Chanel 3 Note Off - Duracao: 1247940 Nota: C1 Vol.: 47
Chanel 3 Note On - Duracao: 1247940 Nota: C1 Vol.: 45
Chanel 2 Note Off - Duracao: 1250280 Nota: C1 Vol.: 41
Chanel 2 Note On - Duracao: 1250280 Nota: C1 Vol.: 50
Chanel 2 Note Off - Duracao: 1251240 Nota: C1 Vol.: 50
Chanel 2 Note On - Duracao: 1251240 Nota: C1 Vol.: 47
Chanel 3 Note Off - Duracao: 1251780 Nota: C1 Vol.: 45
Chanel 3 Note On - Duracao: 1251780 Nota: C1 Vol.: 47
Chanel 2 Note Off - Duracao: 1253160 Nota: C1 Vol.: 47
Chanel 2 Note On - Duracao: 1253160 Nota: C1 Vol.: 48
Chanel 2 Note Off - Duracao: 1255080 Nota: C1 Vol.: 48
Chanel 2 Note On - Duracao: 1255080 Nota: C1 Vol.: 41
Chanel 3 Note Off - Duracao: 1255620 Nota: C1 Vol.: 47
Chanel 3 Note On - Duracao: 1255620 Nota: C1 Vol.: 43
Chanel 2 Note Off - Duracao: 1258920 Nota: C1 Vol.: 41
Chanel 2 Note On - Duracao: 1258920 Nota: C1 Vol.: 46
Chanel 3 Note Off - Duracao: 1259460 Nota: C1 Vol.: 43
Chanel 3 Note On - Duracao: 1259460 Nota: C1 Vol.: 44
Chanel 2 Note Off - Duracao: 1260840 Nota: C1 Vol.: 46
Chanel 2 Note On - Duracao: 1260840 Nota: C1 Vol.: 54
Chanel 2 Note Off - Duracao: 1261800 Nota: C1 Vol.: 54
Chanel 2 Note On - Duracao: 1261800 Nota: C1 Vol.: 55
Chanel 2 Note Off - Duracao: 1262760 Nota: C1 Vol.: 55
Chanel 2 Note On - Duracao: 1262760 Nota: C1 Vol.: 44
Chanel 3 Note Off - Duracao: 1263300 Nota: C1 Vol.: 44
Chanel 3 Note On - Duracao: 1263300 Nota: C1 Vol.: 44
Chanel 2 Note Off - Duracao: 1266600 Nota: C1 Vol.: 44
Chanel 2 Note On - Duracao: 1266600 Nota: C1 Vol.: 45
Chanel 3 Note Off - Duracao: 1267140 Nota: C1 Vol.: 44
Chanel 3 Note On - Duracao: 1267140 Nota: C1 Vol.: 51
Chanel 3 Note Off - Duracao: 1269060 Nota: C1 Vol.: 51
Chanel 3 Note On - Duracao: 1269060 Nota: C1 Vol.: 48
Chanel 2 Note Off - Duracao: 1270440 Nota: C1 Vol.: 45
Chanel 2 Note On - Duracao: 1270440 Nota: C1 Vol.: 54
Chanel 2 Note Off - Duracao: 1272360 Nota: C1 Vol.: 54
Chanel 2 Note On - Duracao: 1272360 Nota: C1 Vol.: 55
Chanel 3 Note Off - Duracao: 1272900 Nota: C1 Vol.: 48
Chanel 3 Note On - Duracao: 1272900 Nota: C1 Vol.: 48
Chanel 2 Note Off - Duracao: 1273320 Nota: C1 Vol.: 55
Chanel 2 Note On - Duracao: 1273320 Nota: C1 Vol.: 58
Chanel 2 Note Off - Duracao: 1274280 Nota: C1 Vol.: 58
Chanel 2 Note On - Duracao: 1274280 Nota: C1 Vol.: 52
Chanel 3 Note Off - Duracao: 1274820 Nota: C1 Vol.: 48
Chanel 3 Note On - Duracao: 1274820 Nota: C1 Vol.: 45
Chanel 2 Note Off - Duracao: 1276200 Nota: C1 Vol.: 52
Chanel 2 Note On - Duracao: 1276200 Nota: C1 Vol.: 69
Chanel 2 Note Off - Duracao: 1276680 Nota: C1 Vol.: 69
Chanel 2 Note On - Duracao: 1276680 Nota: C1 Vol.: 47
Chanel 2 Note Off - Duracao: 1278600 Nota: C1 Vol.: 47
Chanel 2 Note On - Duracao: 1278600 Nota: C1 Vol.: 51
Chanel 3 Note Off - Duracao: 1278660 Nota: C1 Vol.: 45
Chanel 3 Note On - Duracao: 1278660 Nota: C1 Vol.: 41
Chanel 2 Note Off - Duracao: 1280520 Nota: C1 Vol.: 51
Chanel 2 Note On - Duracao: 1280520 Nota: C1 Vol.: 42
Chanel 3 Note Off - Duracao: 1282500 Nota: C1 Vol.: 41
Chanel 3 Note On - Duracao: 1282500 Nota: C1 Vol.: 47
Chanel 2 Note Off - Duracao: 1284360 Nota: C1 Vol.: 42
Chanel 2 Note On - Duracao: 1284360 Nota: C1 Vol.: 44
Chanel 3 Note Off - Duracao: 1286340 Nota: C1 Vol.: 47
Chanel 3 Note On - Duracao: 1286340 Nota: C1 Vol.: 44
Chanel 2 Note Off - Duracao: 1288200 Nota: C1 Vol.: 44
Chanel 2 Note On - Duracao: 1288200 Nota: C1 Vol.: 48
Chanel 2 Note Off - Duracao: 1290120 Nota: C1 Vol.: 48
Chanel 2 Note On - Duracao: 1290120 Nota: C1 Vol.: 56
Chanel 3 Note Off - Duracao: 1290180 Nota: C1 Vol.: 44
Chanel 3 Note On - Duracao: 1290180 Nota: C1 Vol.: 49
Chanel 2 Note Off - Duracao: 1292040 Nota: C1 Vol.: 56
Chanel 2 Note On - Duracao: 1292040 Nota: C1 Vol.: 50
Chanel 3 Note Off - Duracao: 1292100 Nota: C1 Vol.: 49
Chanel 3 Note On - Duracao: 1292100 Nota: C1 Vol.: 43
Chanel 2 Note Off - Duracao: 1293960 Nota: C1 Vol.: 50
Chanel 2 Note On - Duracao: 1293960 Nota: C1 Vol.: 40
Chanel 3 Note Off - Duracao: 1295940 Nota: C1 Vol.: 43
Chanel 3 Note On - Duracao: 1295940 Nota: C1 Vol.: 51
Chanel 2 Note Off - Duracao: 1297800 Nota: C1 Vol.: 40
Chanel 2 Note On - Duracao: 1297800 Nota: C1 Vol.: 49
Chanel 3 Note Off - Duracao: 1297860 Nota: C1 Vol.: 51
Chanel 3 Note On - Duracao: 1297860 Nota: C1 Vol.: 44
Chanel 2 Note Off - Duracao: 1299720 Nota: C1 Vol.: 49
Chanel 2 Note On - Duracao: 1299720 Nota: C1 Vol.: 40
Chanel 3 Note Off - Duracao: 1301700 Nota: C1 Vol.: 44
Chanel 3 Note On - Duracao: 1301700 Nota: C1 Vol.: 43
Chanel 2 Note Off - Duracao: 1303560 Nota: C1 Vol.: 40
Chanel 2 Note On - Duracao: 1303560 Nota: C1 Vol.: 40
Chanel 3 Note Off - Duracao: 1303620 Nota: C1 Vol.: 43
Chanel 3 Note On - Duracao: 1303620 Nota: C1 Vol.: 42
Chanel 3 Note Off - Duracao: 1305540 Nota: C1 Vol.: 42
Chanel 3 Note On - Duracao: 1305540 Nota: C1 Vol.: 43
Chanel 3 Note Off - Duracao: 1306500 Nota: C1 Vol.: 43
Chanel 3 Note On - Duracao: 1306500 Nota: C1 Vol.: 61
Chanel 3 Note Off - Duracao: 1306980 Nota: C1 Vol.: 61
Chanel 3 Note On - Duracao: 1306980 Nota: C1 Vol.: 49
Chanel 2 Note Off - Duracao: 1307400 Nota: C1 Vol.: 40
Chanel 2 Note On - Duracao: 1307400 Nota: C1 Vol.: 41
Chanel 3 Note Off - Duracao: 1307940 Nota: C1 Vol.: 49
Chanel 3 Note On - Duracao: 1307940 Nota: C1 Vol.: 44
Chanel 3 Note Off - Duracao: 1309860 Nota: C1 Vol.: 44
Chanel 3 Note On - Duracao: 1309860 Nota: C1 Vol.: 44
Chanel 2 Note Off - Duracao: 1311240 Nota: C1 Vol.: 41
Chanel 2 Note On - Duracao: 1311240 Nota: C1 Vol.: 45
Chanel 3 Note Off - Duracao: 1313700 Nota: C1 Vol.: 44
Chanel 3 Note On - Duracao: 1313700 Nota: C1 Vol.: 44
Chanel 2 Note Off - Duracao: 1315080 Nota: C1 Vol.: 45
Chanel 2 Note On - Duracao: 1315080 Nota: C1 Vol.: 41
Chanel 3 Note Off - Duracao: 1317540 Nota: C1 Vol.: 44
Chanel 3 Note On - Duracao: 1317540 Nota: C1 Vol.: 43
Chanel 2 Note Off - Duracao: 1318920 Nota: C1 Vol.: 41
Chanel 2 Note On - Duracao: 1318920 Nota: C1 Vol.: 40
Chanel 3 Note Off - Duracao: 1321380 Nota: C1 Vol.: 43
Chanel 3 Note On - Duracao: 1321380 Nota: C1 Vol.: 42
Chanel 2 Note Off - Duracao: 1322760 Nota: C1 Vol.: 40
Chanel 2 Note On - Duracao: 1322760 Nota: C1 Vol.: 40
Chanel 3 Note Off - Duracao: 1325220 Nota: C1 Vol.: 42
Chanel 3 Note On - Duracao: 1325220 Nota: C1 Vol.: 44
Chanel 2 Note Off - Duracao: 1326600 Nota: C1 Vol.: 40
Chanel 2 Note On - Duracao: 1326600 Nota: C1 Vol.: 41
Chanel 3 Note Off - Duracao: 1327140 Nota: C1 Vol.: 44
Chanel 3 Note On - Duracao: 1327140 Nota: C1 Vol.: 46
Chanel 2 Note Off - Duracao: 1330440 Nota: C1 Vol.: 41
Chanel 2 Note On - Duracao: 1330440 Nota: C1 Vol.: 40
Chanel 3 Note Off - Duracao: 1330980 Nota: C1 Vol.: 46
Chanel 3 Note On - Duracao: 1330980 Nota: C1 Vol.: 45
Chanel 2 Note Off - Duracao: 1334280 Nota: C1 Vol.: 40
Chanel 2 Note On - Duracao: 1334280 Nota: C1 Vol.: 49
Chanel 3 Note Off - Duracao: 1334820 Nota: C1 Vol.: 45
Chanel 3 Note On - Duracao: 1334820 Nota: C1 Vol.: 41
Chanel 2 Note Off - Duracao: 1336200 Nota: C1 Vol.: 49
Chanel 2 Note On - Duracao: 1336200 Nota: C1 Vol.: 53
Chanel 2 Note Off - Duracao: 1338120 Nota: C1 Vol.: 53
Chanel 2 Note On - Duracao: 1338120 Nota: C1 Vol.: 48
Chanel 3 Note Off - Duracao: 1338660 Nota: C1 Vol.: 41
Chanel 3 Note On - Duracao: 1338660 Nota: C1 Vol.: 40
Chanel 2 Note Off - Duracao: 1340040 Nota: C1 Vol.: 48
Chanel 2 Note On - Duracao: 1340040 Nota: C1 Vol.: 53
Chanel 2 Note Off - Duracao: 1340520 Nota: C1 Vol.: 53
Chanel 2 Note On - Duracao: 1340520 Nota: C1 Vol.: 59
Chanel 2 Note Off - Duracao: 1340640 Nota: C1 Vol.: 59
Chanel 2 Note On - Duracao: 1340640 Nota: C1 Vol.: 56
Chanel 2 Note Off - Duracao: 1340880 Nota: C1 Vol.: 56
Chanel 2 Note On - Duracao: 1340880 Nota: C1 Vol.: 56
Chanel 2 Note Off - Duracao: 1341360 Nota: C1 Vol.: 56
Chanel 2 Note On - Duracao: 1341360 Nota: C1 Vol.: 49
Chanel 2 Note Off - Duracao: 1342320 Nota: C1 Vol.: 49
Chanel 2 Note On - Duracao: 1342320 Nota: C1 Vol.: 43
Chanel 3 Note Off - Duracao: 1342500 Nota: C1 Vol.: 40
Chanel 3 Note On - Duracao: 1342500 Nota: C1 Vol.: 41
Chanel 2 Note Off - Duracao: 1344240 Nota: C1 Vol.: 43
Chanel 2 Note On - Duracao: 1344240 Nota: C1 Vol.: 64
Chanel 3 Note Off - Duracao: 1344420 Nota: C1 Vol.: 41
Chanel 3 Note On - Duracao: 1344420 Nota: C1 Vol.: 48
Chanel 2 Note Off - Duracao: 1344720 Nota: C1 Vol.: 64
Chanel 2 Note On - Duracao: 1344720 Nota: C1 Vol.: 66
Chanel 2 Note Off - Duracao: 1345200 Nota: C1 Vol.: 66
Chanel 2 Note On - Duracao: 1345200 Nota: C1 Vol.: 79
Chanel 3 Note Off - Duracao: 1345380 Nota: C1 Vol.: 48
Chanel 3 Note On - Duracao: 1345380 Nota: C1 Vol.: 52
Chanel 2 Note Off - Duracao: 1345440 Nota: C1 Vol.: 79
Chanel 2 Note On - Duracao: 1345440 Nota: C1 Vol.: 61
Chanel 2 Note Off - Duracao: 1345920 Nota: C1 Vol.: 61
Chanel 2 Note On - Duracao: 1345920 Nota: C1 Vol.: 60
Chanel 3 Note Off - Duracao: 1346340 Nota: C1 Vol.: 52
Chanel 3 Note On - Duracao: 1346340 Nota: C1 Vol.: 65
Chanel 2 Note Off - Duracao: 1346400 Nota: C1 Vol.: 60
Chanel 2 Note On - Duracao: 1346400 Nota: C1 Vol.: 47
Chanel 3 Note Off - Duracao: 1346820 Nota: C1 Vol.: 65
Chanel 3 Note On - Duracao: 1346820 Nota: C1 Vol.: 87
Chanel 3 Note Off - Duracao: 1347060 Nota: C1 Vol.: 87
Chanel 3 Note On - Duracao: 1347060 Nota: C1 Vol.: 99
Chanel 3 Note Off - Duracao: 1347180 Nota: C1 Vol.: 99
Chanel 3 Note On - Duracao: 1347180 Nota: C1 Vol.: 100
Chanel 3 Note Off - Duracao: 1347300 Nota: C1 Vol.: 100
Chanel 3 Note On - Duracao: 1347300 Nota: C1 Vol.: 79
Chanel 2 Note Off - Duracao: 1347360 Nota: C1 Vol.: 47
Chanel 2 Note On - Duracao: 1347360 Nota: C1 Vol.: 44
Chanel 3 Note Off - Duracao: 1348260 Nota: C1 Vol.: 79
Chanel 3 Note On - Duracao: 1348260 Nota: C1 Vol.: 67
Chanel 2 Note Off - Duracao: 1349280 Nota: C1 Vol.: 44
Chanel 2 Note On - Duracao: 1349280 Nota: C1 Vol.: 62
Chanel 2 Note Off - Duracao: 1349760 Nota: C1 Vol.: 62
Chanel 2 Note On - Duracao: 1349760 Nota: C1 Vol.: 50
Chanel 3 Note Off - Duracao: 1350180 Nota: C1 Vol.: 67
Chanel 3 Note On - Duracao: 1350180 Nota: C1 Vol.: 77
Chanel 3 Note Off - Duracao: 1351140 Nota: C1 Vol.: 77
Chanel 3 Note On - Duracao: 1351140 Nota: C1 Vol.: 92
Chanel 3 Note Off - Duracao: 1351620 Nota: C1 Vol.: 92
Chanel 3 Note On - Duracao: 1351620 Nota: C1 Vol.: 66
Chanel 2 Note Off - Duracao: 1351680 Nota: C1 Vol.: 50
Chanel 2 Note On - Duracao: 1351680 Nota: C1 Vol.: 50
Chanel 2 Note Off - Duracao: 1352640 Nota: C1 Vol.: 50
Chanel 2 Note On - Duracao: 1352640 Nota: C1 Vol.: 58
Chanel 3 Note Off - Duracao: 1353540 Nota: C1 Vol.: 66
Chanel 3 Note On - Duracao: 1353540 Nota: C1 Vol.: 55
Chanel 2 Note Off - Duracao: 1353600 Nota: C1 Vol.: 58
Chanel 2 Note On - Duracao: 1353600 Nota: C1 Vol.: 60
Chanel 2 Note Off - Duracao: 1354560 Nota: C1 Vol.: 60
Chanel 2 Note On - Duracao: 1354560 Nota: C1 Vol.: 42
Chanel 3 Note Off - Duracao: 1355460 Nota: C1 Vol.: 55
Chanel 3 Note On - Duracao: 1355460 Nota: C1 Vol.: 44
Chanel 2 Note Off - Duracao: 1356480 Nota: C1 Vol.: 42
Chanel 2 Note On - Duracao: 1356480 Nota: C1 Vol.: 52
Chanel 2 Note Off - Duracao: 1357440 Nota: C1 Vol.: 52
Chanel 2 Note On - Duracao: 1357440 Nota: C1 Vol.: 56
Chanel 2 Note Off - Duracao: 1358400 Nota: C1 Vol.: 56
Chanel 2 Note On - Duracao: 1358400 Nota: C1 Vol.: 47
Chanel 3 Note Off - Duracao: 1359300 Nota: C1 Vol.: 44
Chanel 3 Note On - Duracao: 1359300 Nota: C1 Vol.: 45
Chanel 2 Note Off - Duracao: 1360320 Nota: C1 Vol.: 47
Chanel 2 Note On - Duracao: 1360320 Nota: C1 Vol.: 52
Chanel 3 Note Off - Duracao: 1361220 Nota: C1 Vol.: 45
Chanel 3 Note On - Duracao: 1361220 Nota: C1 Vol.: 44
Chanel 2 Note Off - Duracao: 1362240 Nota: C1 Vol.: 52
Chanel 2 Note On - Duracao: 1362240 Nota: C1 Vol.: 41
Chanel 3 Note Off - Duracao: 1365060 Nota: C1 Vol.: 44
Chanel 3 Note On - Duracao: 1365060 Nota: C1 Vol.: 42
Chanel 2 Note Off - Duracao: 1366080 Nota: C1 Vol.: 41
Chanel 2 Note On - Duracao: 1366080 Nota: C1 Vol.: 49
Chanel 2 Note Off - Duracao: 1368000 Nota: C1 Vol.: 49
Chanel 2 Note On - Duracao: 1368000 Nota: C1 Vol.: 49
Chanel 3 Note Off - Duracao: 1368900 Nota: C1 Vol.: 42
Chanel 3 Note On - Duracao: 1368900 Nota: C1 Vol.: 47
Chanel 2 Note Off - Duracao: 1369920 Nota: C1 Vol.: 49
Chanel 2 Note On - Duracao: 1369920 Nota: C1 Vol.: 66
Chanel 2 Note Off - Duracao: 1370400 Nota: C1 Vol.: 66
Chanel 2 Note On - Duracao: 1370400 Nota: C1 Vol.: 60
Chanel 2 Note Off - Duracao: 1371360 Nota: C1 Vol.: 60
Chanel 2 Note On - Duracao: 1371360 Nota: C1 Vol.: 52
Chanel 3 Note Off - Duracao: 1372740 Nota: C1 Vol.: 47
Chanel 3 Note On - Duracao: 1372740 Nota: C1 Vol.: 44
Chanel 2 Note Off - Duracao: 1373280 Nota: C1 Vol.: 52
Chanel 2 Note On - Duracao: 1373280 Nota: C1 Vol.: 52
Chanel 2 Note Off - Duracao: 1375200 Nota: C1 Vol.: 52
Chanel 2 Note On - Duracao: 1375200 Nota: C1 Vol.: 45
Chanel 3 Note Off - Duracao: 1376580 Nota: C1 Vol.: 44
Chanel 3 Note On - Duracao: 1376580 Nota: C1 Vol.: 44
Chanel 2 Note Off - Duracao: 1377120 Nota: C1 Vol.: 45
Chanel 2 Note On - Duracao: 1377120 Nota: C1 Vol.: 46
Chanel 2 Note Off - Duracao: 1379040 Nota: C1 Vol.: 46
Chanel 2 Note On - Duracao: 1379040 Nota: C1 Vol.: 41
Chanel 3 Note Off - Duracao: 1380420 Nota: C1 Vol.: 44
Chanel 3 Note On - Duracao: 1380420 Nota: C1 Vol.: 53
Chanel 3 Note Off - Duracao: 1382340 Nota: C1 Vol.: 53
Chanel 3 Note On - Duracao: 1382340 Nota: C1 Vol.: 45
Chanel 2 Note Off - Duracao: 1382880 Nota: C1 Vol.: 41
Chanel 2 Note On - Duracao: 1382880 Nota: C1 Vol.: 43
Chanel 3 Note Off - Duracao: 1386180 Nota: C1 Vol.: 45
Chanel 3 Note On - Duracao: 1386180 Nota: C1 Vol.: 43
Chanel 2 Note Off - Duracao: 1386720 Nota: C1 Vol.: 43
Chanel 2 Note On - Duracao: 1386720 Nota: C1 Vol.: 40
Chanel 3 Note Off - Duracao: 1390020 Nota: C1 Vol.: 43
Chanel 3 Note On - Duracao: 1390020 Nota: C1 Vol.: 42
Chanel 2 Note Off - Duracao: 1390560 Nota: C1 Vol.: 40
Chanel 2 Note On - Duracao: 1390560 Nota: C1 Vol.: 40
Chanel 3 Note Off - Duracao: 1393860 Nota: C1 Vol.: 42
Chanel 3 Note On - Duracao: 1393860 Nota: C1 Vol.: 49
Chanel 2 Note Off - Duracao: 1394400 Nota: C1 Vol.: 40
Chanel 2 Note On - Duracao: 1394400 Nota: C1 Vol.: 44
Chanel 2 Note Off - Duracao: 1396320 Nota: C1 Vol.: 44
Chanel 2 Note On - Duracao: 1396320 Nota: C1 Vol.: 43
Chanel 3 Note Off - Duracao: 1397700 Nota: C1 Vol.: 49
Chanel 3 Note On - Duracao: 1397700 Nota: C1 Vol.: 50
Chanel 2 Note Off - Duracao: 1398240 Nota: C1 Vol.: 43
Chanel 2 Note On - Duracao: 1398240 Nota: C1 Vol.: 40
Chanel 3 Note Off - Duracao: 1401540 Nota: C1 Vol.: 50
Chanel 3 Note On - Duracao: 1401540 Nota: C1 Vol.: 46
Chanel 2 Note Off - Duracao: 1402080 Nota: C1 Vol.: 40
Chanel 2 Note On - Duracao: 1402080 Nota: C1 Vol.: 42
Chanel 3 Note Off - Duracao: 1405380 Nota: C1 Vol.: 46
Chanel 3 Note On - Duracao: 1405380 Nota: C1 Vol.: 45
Chanel 2 Note Off - Duracao: 1405920 Nota: C1 Vol.: 42
Chanel 2 Note On - Duracao: 1405920 Nota: C1 Vol.: 45
Chanel 2 Note Off - Duracao: 1407840 Nota: C1 Vol.: 45
Chanel 2 Note On - Duracao: 1407840 Nota: C1 Vol.: 42
Chanel 3 Note Off - Duracao: 1409220 Nota: C1 Vol.: 45
Chanel 3 Note On - Duracao: 1409220 Nota: C1 Vol.: 48
Chanel 3 Note Off - Duracao: 1411140 Nota: C1 Vol.: 48
Chanel 3 Note On - Duracao: 1411140 Nota: C1 Vol.: 46
Chanel 2 Note Off - Duracao: 1411680 Nota: C1 Vol.: 42
Chanel 2 Note On - Duracao: 1411680 Nota: C1 Vol.: 40
Chanel 3 Note Off - Duracao: 1414980 Nota: C1 Vol.: 46
Chanel 3 Note On - Duracao: 1414980 Nota: C1 Vol.: 42
Chanel 2 Note Off - Duracao: 1415520 Nota: C1 Vol.: 40
Chanel 2 Note On - Duracao: 1415520 Nota: C1 Vol.: 40
Chanel 3 Note Off - Duracao: 1418820 Nota: C1 Vol.: 42
Chanel 3 Note On - Duracao: 1418820 Nota: C1 Vol.: 40
Chanel 2 Note Off - Duracao: 1419360 Nota: C1 Vol.: 40
Chanel 2 Note On - Duracao: 1419360 Nota: C1 Vol.: 40
Chanel 3 Note Off - Duracao: 1422660 Nota: C1 Vol.: 40
Chanel 3 Note On - Duracao: 1422660 Nota: C1 Vol.: 47
Chanel 2 Note Off - Duracao: 1423200 Nota: C1 Vol.: 40
Chanel 2 Note On - Duracao: 1423200 Nota: C1 Vol.: 40
Chanel 3 Note Off - Duracao: 1426500 Nota: C1 Vol.: 47
Chanel 3 Note On - Duracao: 1426500 Nota: C1 Vol.: 51
Chanel 2 Note Off - Duracao: 1427040 Nota: C1 Vol.: 40
Chanel 2 Note On - Duracao: 1427040 Nota: C1 Vol.: 40
Chanel 3 Note Off - Duracao: 1428420 Nota: C1 Vol.: 51
Chanel 3 Note On - Duracao: 1428420 Nota: C1 Vol.: 47
Chanel 2 Note Off - Duracao: 1430880 Nota: C1 Vol.: 40
Chanel 2 Note On - Duracao: 1430880 Nota: C1 Vol.: 53
Chanel 3 Note Off - Duracao: 1432260 Nota: C1 Vol.: 47
Chanel 3 Note On - Duracao: 1432260 Nota: C1 Vol.: 48
Chanel 2 Note Off - Duracao: 1432800 Nota: C1 Vol.: 53
Chanel 2 Note On - Duracao: 1432800 Nota: C1 Vol.: 52
Chanel 3 Note Off - Duracao: 1434180 Nota: C1 Vol.: 48
Chanel 3 Note On - Duracao: 1434180 Nota: C1 Vol.: 41
Chanel 2 Note Off - Duracao: 1434720 Nota: C1 Vol.: 52
Chanel 2 Note On - Duracao: 1434720 Nota: C1 Vol.: 47
Chanel 3 Note Off - Duracao: 1436100 Nota: C1 Vol.: 41
Chanel 3 Note On - Duracao: 1436100 Nota: C1 Vol.: 55
Chanel 2 Note Off - Duracao: 1436640 Nota: C1 Vol.: 47
Chanel 2 Note On - Duracao: 1436640 Nota: C1 Vol.: 53
Chanel 3 Note Off - Duracao: 1437060 Nota: C1 Vol.: 55
Chanel 3 Note On - Duracao: 1437060 Nota: C1 Vol.: 61
Chanel 2 Note Off - Duracao: 1437120 Nota: C1 Vol.: 53
Chanel 2 Note On - Duracao: 1437120 Nota: C1 Vol.: 58
Chanel 2 Note Off - Duracao: 1437360 Nota: C1 Vol.: 58
Chanel 2 Note On - Duracao: 1437360 Nota: C1 Vol.: 55
Chanel 2 Note Off - Duracao: 1437600 Nota: C1 Vol.: 55
Chanel 2 Note On - Duracao: 1437600 Nota: C1 Vol.: 53
Chanel 3 Note Off - Duracao: 1438020 Nota: C1 Vol.: 61
Chanel 3 Note On - Duracao: 1438020 Nota: C1 Vol.: 56
Chanel 2 Note Off - Duracao: 1438080 Nota: C1 Vol.: 53
Chanel 2 Note On - Duracao: 1438080 Nota: C1 Vol.: 52
Chanel 2 Note Off - Duracao: 1439040 Nota: C1 Vol.: 52
Chanel 2 Note On - Duracao: 1439040 Nota: C1 Vol.: 45
Chanel 3 Note Off - Duracao: 1439940 Nota: C1 Vol.: 56
Chanel 3 Note On - Duracao: 1439940 Nota: C1 Vol.: 47
Chanel 2 Note Off - Duracao: 1440960 Nota: C1 Vol.: 45
Chanel 2 Note On - Duracao: 1440960 Nota: C1 Vol.: 81
Chanel 2 Note Off - Duracao: 1441200 Nota: C1 Vol.: 81
Chanel 2 Note On - Duracao: 1441200 Nota: C1 Vol.: 96
Chanel 2 Note Off - Duracao: 1441260 Nota: C1 Vol.: 96
Chanel 2 Note On - Duracao: 1441260 Nota: C1 Vol.: 96
Chanel 2 Note Off - Duracao: 1441320 Nota: C1 Vol.: 96
Chanel 2 Note On - Duracao: 1441320 Nota: C1 Vol.: 77
Chanel 2 Note Off - Duracao: 1441560 Nota: C1 Vol.: 77
Chanel 2 Note On - Duracao: 1441560 Nota: C1 Vol.: 52
Chanel 3 Note Off - Duracao: 1441860 Nota: C1 Vol.: 47
Chanel 3 Note On - Duracao: 1441860 Nota: C1 Vol.: 49
Chanel 2 Note Off - Duracao: 1442520 Nota: C1 Vol.: 52
Chanel 2 Note On - Duracao: 1442520 Nota: C1 Vol.: 40
Chanel 3 Note Off - Duracao: 1443780 Nota: C1 Vol.: 49
Chanel 3 Note On - Duracao: 1443780 Nota: C1 Vol.: 49
Chanel 2 Note Off - Duracao: 1444440 Nota: C1 Vol.: 40
Chanel 2 Note On - Duracao: 1444440 Nota: C1 Vol.: 56
Chanel 2 Note Off - Duracao: 1444920 Nota: C1 Vol.: 56
Chanel 2 Note On - Duracao: 1444920 Nota: C1 Vol.: 53
Chanel 2 Note Off - Duracao: 1445880 Nota: C1 Vol.: 53
Chanel 2 Note On - Duracao: 1445880 Nota: C1 Vol.: 40
Chanel 3 Note Off - Duracao: 1447620 Nota: C1 Vol.: 49
Chanel 3 Note On - Duracao: 1447620 Nota: C1 Vol.: 49
Chanel 2 Note Off - Duracao: 1447800 Nota: C1 Vol.: 40
Chanel 2 Note On - Duracao: 1447800 Nota: C1 Vol.: 40
Chanel 2 Note Off - Duracao: 1449720 Nota: C1 Vol.: 40
Chanel 2 Note On - Duracao: 1449720 Nota: C1 Vol.: 43
Chanel 3 Note Off - Duracao: 1451460 Nota: C1 Vol.: 49
Chanel 3 Note On - Duracao: 1451460 Nota: C1 Vol.: 48
Chanel 2 Note Off - Duracao: 1451640 Nota: C1 Vol.: 43
Chanel 2 Note On - Duracao: 1451640 Nota: C1 Vol.: 47
Chanel 2 Note Off - Duracao: 1453560 Nota: C1 Vol.: 47
Chanel 2 Note On - Duracao: 1453560 Nota: C1 Vol.: 40
Chanel 3 Note Off - Duracao: 1455300 Nota: C1 Vol.: 48
Chanel 3 Note On - Duracao: 1455300 Nota: C1 Vol.: 46
Chanel 2 Note Off - Duracao: 1457400 Nota: C1 Vol.: 40
Chanel 2 Note On - Duracao: 1457400 Nota: C1 Vol.: 53
Chanel 2 Note Off - Duracao: 1458360 Nota: C1 Vol.: 53
Chanel 2 Note On - Duracao: 1458360 Nota: C1 Vol.: 50
Chanel 3 Note Off - Duracao: 1459140 Nota: C1 Vol.: 46
Chanel 3 Note On - Duracao: 1459140 Nota: C1 Vol.: 47
Chanel 2 Note Off - Duracao: 1460280 Nota: C1 Vol.: 50
Chanel 2 Note On - Duracao: 1460280 Nota: C1 Vol.: 44
Chanel 2 Note Off - Duracao: 1462200 Nota: C1 Vol.: 44
Chanel 2 Note On - Duracao: 1462200 Nota: C1 Vol.: 53
Chanel 3 Note Off - Duracao: 1462980 Nota: C1 Vol.: 47
Chanel 3 Note On - Duracao: 1462980 Nota: C1 Vol.: 48
Chanel 2 Note Off - Duracao: 1463160 Nota: C1 Vol.: 53
Chanel 2 Note On - Duracao: 1463160 Nota: C1 Vol.: 42
Chanel 3 Note Off - Duracao: 1464900 Nota: C1 Vol.: 48
Chanel 3 Note On - Duracao: 1464900 Nota: C1 Vol.: 40
Chanel 2 Note Off - Duracao: 1465080 Nota: C1 Vol.: 42
Chanel 2 Note On - Duracao: 1465080 Nota: C1 Vol.: 43
Chanel 2 Note Off - Duracao: 1467000 Nota: C1 Vol.: 43
Chanel 2 Note On - Duracao: 1467000 Nota: C1 Vol.: 47
Chanel 3 Note Off - Duracao: 1468740 Nota: C1 Vol.: 40
Chanel 3 Note On - Duracao: 1468740 Nota: C1 Vol.: 40
Chanel 2 Note Off - Duracao: 1468920 Nota: C1 Vol.: 47
Chanel 2 Note On - Duracao: 1468920 Nota: C1 Vol.: 63
Chanel 2 Note Off - Duracao: 1469880 Nota: C1 Vol.: 63
Chanel 2 Note On - Duracao: 1469880 Nota: C1 Vol.: 58
Chanel 3 Note Off - Duracao: 1470660 Nota: C1 Vol.: 40
Chanel 3 Note On - Duracao: 1470660 Nota: C1 Vol.: 40
Chanel 2 Note Off - Duracao: 1470840 Nota: C1 Vol.: 58
Chanel 2 Note On - Duracao: 1470840 Nota: C1 Vol.: 42
Chanel 3 Note Off - Duracao: 1471620 Nota: C1 Vol.: 40
Chanel 3 Note On - Duracao: 1471620 Nota: C1 Vol.: 49
Chanel 3 Note Off - Duracao: 1472100 Nota: C1 Vol.: 49
Chanel 3 Note On - Duracao: 1472100 Nota: C1 Vol.: 63
Chanel 3 Note Off - Duracao: 1472340 Nota: C1 Vol.: 63
Chanel 3 Note On - Duracao: 1472340 Nota: C1 Vol.: 56
Chanel 2 Note Off - Duracao: 1472760 Nota: C1 Vol.: 42
Chanel 2 Note On - Duracao: 1472760 Nota: C1 Vol.: 58
Chanel 3 Note Off - Duracao: 1472820 Nota: C1 Vol.: 56
Chanel 3 Note On - Duracao: 1472820 Nota: C1 Vol.: 77
Chanel 3 Note Off - Duracao: 1473300 Nota: C1 Vol.: 77
Chanel 3 Note On - Duracao: 1473300 Nota: C1 Vol.: 95
Chanel 3 Note Off - Duracao: 1473420 Nota: C1 Vol.: 95
Chanel 3 Note On - Duracao: 1473420 Nota: C1 Vol.: 100
Chanel 3 Note Off - Duracao: 1473540 Nota: C1 Vol.: 100
Chanel 3 Note On - Duracao: 1473540 Nota: C1 Vol.: 79
Chanel 2 Note Off - Duracao: 1473720 Nota: C1 Vol.: 58
Chanel 2 Note On - Duracao: 1473720 Nota: C1 Vol.: 43
Chanel 3 Note Off - Duracao: 1474020 Nota: C1 Vol.: 79
Chanel 3 Note On - Duracao: 1474020 Nota: C1 Vol.: 70
Chanel 2 Note Off - Duracao: 1475640 Nota: C1 Vol.: 43
Chanel 2 Note On - Duracao: 1475640 Nota: C1 Vol.: 45
Chanel 3 Note Off - Duracao: 1475940 Nota: C1 Vol.: 70
Chanel 3 Note On - Duracao: 1475940 Nota: C1 Vol.: 79
Chanel 3 Note Off - Duracao: 1476900 Nota: C1 Vol.: 79
Chanel 3 Note On - Duracao: 1476900 Nota: C1 Vol.: 80
Chanel 2 Note Off - Duracao: 1477560 Nota: C1 Vol.: 45
Chanel 2 Note On - Duracao: 1477560 Nota: C1 Vol.: 45
Chanel 3 Note Off - Duracao: 1477860 Nota: C1 Vol.: 80
Chanel 3 Note On - Duracao: 1477860 Nota: C1 Vol.: 83
Chanel 3 Note Off - Duracao: 1478340 Nota: C1 Vol.: 83
Chanel 3 Note On - Duracao: 1478340 Nota: C1 Vol.: 50
Chanel 2 Note Off - Duracao: 1479480 Nota: C1 Vol.: 45
Chanel 2 Note On - Duracao: 1479480 Nota: C1 Vol.: 40
Chanel 3 Note Off - Duracao: 1482180 Nota: C1 Vol.: 50
Chanel 3 Note On - Duracao: 1482180 Nota: C1 Vol.: 44
Chanel 2 Note Off - Duracao: 1483320 Nota: C1 Vol.: 40
Chanel 2 Note On - Duracao: 1483320 Nota: C1 Vol.: 40
Chanel 3 Note Off - Duracao: 1486020 Nota: C1 Vol.: 44
Chanel 3 Note On - Duracao: 1486020 Nota: C1 Vol.: 44
Chanel 2 Note Off - Duracao: 1487160 Nota: C1 Vol.: 40
Chanel 2 Note On - Duracao: 1487160 Nota: C1 Vol.: 43
Chanel 2 Note Off - Duracao: 1489080 Nota: C1 Vol.: 43
Chanel 2 Note On - Duracao: 1489080 Nota: C1 Vol.: 45
Chanel 3 Note Off - Duracao: 1489860 Nota: C1 Vol.: 44
Chanel 3 Note On - Duracao: 1489860 Nota: C1 Vol.: 48
Chanel 2 Note Off - Duracao: 1491000 Nota: C1 Vol.: 45
Chanel 2 Note On - Duracao: 1491000 Nota: C1 Vol.: 40
Chanel 3 Note Off - Duracao: 1491780 Nota: C1 Vol.: 48
Chanel 3 Note On - Duracao: 1491780 Nota: C1 Vol.: 49
Chanel 2 Note Off - Duracao: 1492920 Nota: C1 Vol.: 40
Chanel 2 Note On - Duracao: 1492920 Nota: C1 Vol.: 44
Chanel 2 Note Off - Duracao: 1494840 Nota: C1 Vol.: 44
Chanel 2 Note On - Duracao: 1494840 Nota: C1 Vol.: 42
Chanel 3 Note Off - Duracao: 1495620 Nota: C1 Vol.: 49
Chanel 3 Note On - Duracao: 1495620 Nota: C1 Vol.: 49
Chanel 2 Note Off - Duracao: 1496760 Nota: C1 Vol.: 42
Chanel 2 Note On - Duracao: 1496760 Nota: C1 Vol.: 40
Chanel 3 Note Off - Duracao: 1499460 Nota: C1 Vol.: 49
Chanel 3 Note On - Duracao: 1499460 Nota: C1 Vol.: 47
Chanel 2 Note Off - Duracao: 1500600 Nota: C1 Vol.: 40
Chanel 2 Note On - Duracao: 1500600 Nota: C1 Vol.: 43
Chanel 3 Note Off - Duracao: 1503300 Nota: C1 Vol.: 47
Chanel 3 Note On - Duracao: 1503300 Nota: C1 Vol.: 43
Chanel 2 Note Off - Duracao: 1504440 Nota: C1 Vol.: 43
Chanel 2 Note On - Duracao: 1504440 Nota: C1 Vol.: 41
Chanel 3 Note Off - Duracao: 1507140 Nota: C1 Vol.: 43
Chanel 3 Note On - Duracao: 1507140 Nota: C1 Vol.: 43
Chanel 2 Note Off - Duracao: 1508280 Nota: C1 Vol.: 41
Chanel 2 Note On - Duracao: 1508280 Nota: C1 Vol.: 40
Chanel 3 Note Off - Duracao: 1510980 Nota: C1 Vol.: 43
Chanel 3 Note On - Duracao: 1510980 Nota: C1 Vol.: 42
Chanel 2 Note Off - Duracao: 1512120 Nota: C1 Vol.: 40
Chanel 2 Note On - Duracao: 1512120 Nota: C1 Vol.: 40
Chanel 3 Note Off - Duracao: 1514820 Nota: C1 Vol.: 42
Chanel 3 Note On - Duracao: 1514820 Nota: C1 Vol.: 42
Chanel 2 Note Off - Duracao: 1515960 Nota: C1 Vol.: 40
Chanel 2 Note On - Duracao: 1515960 Nota: C1 Vol.: 40
Chanel 3 Note Off - Duracao: 1518660 Nota: C1 Vol.: 42
Chanel 3 Note On - Duracao: 1518660 Nota: C1 Vol.: 42
Chanel 2 Note Off - Duracao: 1519800 Nota: C1 Vol.: 40
Chanel 2 Note On - Duracao: 1519800 Nota: C1 Vol.: 40
Chanel 3 Note Off - Duracao: 1522500 Nota: C1 Vol.: 42
Chanel 3 Note On - Duracao: 1522500 Nota: C1 Vol.: 54
Chanel 2 Note Off - Duracao: 1523640 Nota: C1 Vol.: 40
Chanel 2 Note On - Duracao: 1523640 Nota: C1 Vol.: 62
Chanel 2 Note Off - Duracao: 1525560 Nota: C1 Vol.: 62
Chanel 2 Note On - Duracao: 1525560 Nota: C1 Vol.: 57
Chanel 3 Note Off - Duracao: 1526340 Nota: C1 Vol.: 54
Chanel 3 Note On - Duracao: 1526340 Nota: C1 Vol.: 50
Chanel 2 Note Off - Duracao: 1527480 Nota: C1 Vol.: 57
Chanel 2 Note On - Duracao: 1527480 Nota: C1 Vol.: 53
Chanel 2 Note Off - Duracao: 1529400 Nota: C1 Vol.: 53
Chanel 2 Note On - Duracao: 1529400 Nota: C1 Vol.: 46
Chanel 3 Note Off - Duracao: 1530180 Nota: C1 Vol.: 50
Chanel 3 Note On - Duracao: 1530180 Nota: C1 Vol.: 51
Chanel 2 Note Off - Duracao: 1531320 Nota: C1 Vol.: 46
Chanel 2 Note On - Duracao: 1531320 Nota: C1 Vol.: 57
Chanel 2 Note Off - Duracao: 1531800 Nota: C1 Vol.: 57
Chanel 2 Note On - Duracao: 1531800 Nota: C1 Vol.: 53
Chanel 2 Note Off - Duracao: 1532280 Nota: C1 Vol.: 53
Chanel 2 Note On - Duracao: 1532280 Nota: C1 Vol.: 53
Chanel 2 Note Off - Duracao: 1533240 Nota: C1 Vol.: 53
Chanel 2 Note On - Duracao: 1533240 Nota: C1 Vol.: 47
Chanel 3 Note Off - Duracao: 1534020 Nota: C1 Vol.: 51
Chanel 3 Note On - Duracao: 1534020 Nota: C1 Vol.: 52
Chanel 2 Note Off - Duracao: 1535160 Nota: C1 Vol.: 47
Chanel 2 Note On - Duracao: 1535160 Nota: C1 Vol.: 66
Chanel 3 Note Off - Duracao: 1535940 Nota: C1 Vol.: 52
Chanel 3 Note On - Duracao: 1535940 Nota: C1 Vol.: 46
Chanel 2 Note Off - Duracao: 1536120 Nota: C1 Vol.: 66
Chanel 2 Note On - Duracao: 1536120 Nota: C1 Vol.: 97
Chanel 2 Note Off - Duracao: 1536240 Nota: C1 Vol.: 97
Chanel 2 Note On - Duracao: 1536240 Nota: C1 Vol.: 92
Chanel 2 Note Off - Duracao: 1536360 Nota: C1 Vol.: 92
Chanel 2 Note On - Duracao: 1536360 Nota: C1 Vol.: 91
Chanel 2 Note Off - Duracao: 1536480 Nota: C1 Vol.: 91
Chanel 2 Note On - Duracao: 1536480 Nota: C1 Vol.: 67
Chanel 2 Note Off - Duracao: 1536960 Nota: C1 Vol.: 67
Chanel 2 Note On - Duracao: 1536960 Nota: C1 Vol.: 46
Chanel 2 Note Off - Duracao: 1537920 Nota: C1 Vol.: 46
Chanel 2 Note On - Duracao: 1537920 Nota: C1 Vol.: 53
Chanel 2 Note Off - Duracao: 1538400 Nota: C1 Vol.: 53
Chanel 2 Note On - Duracao: 1538400 Nota: C1 Vol.: 44
Chanel 2 Note Off - Duracao: 1539360 Nota: C1 Vol.: 44
Chanel 2 Note On - Duracao: 1539360 Nota: C1 Vol.: 40
Chanel 3 Note Off - Duracao: 1539780 Nota: C1 Vol.: 46
Chanel 3 Note On - Duracao: 1539780 Nota: C1 Vol.: 47
Chanel 2 Note Off - Duracao: 1541280 Nota: C1 Vol.: 40
Chanel 2 Note On - Duracao: 1541280 Nota: C1 Vol.: 40
Chanel 2 Note Off - Duracao: 1543200 Nota: C1 Vol.: 40
Chanel 2 Note On - Duracao: 1543200 Nota: C1 Vol.: 41
Chanel 3 Note Off - Duracao: 1543620 Nota: C1 Vol.: 47
Chanel 3 Note On - Duracao: 1543620 Nota: C1 Vol.: 45
Chanel 2 Note Off - Duracao: 1545120 Nota: C1 Vol.: 41
Chanel 2 Note On - Duracao: 1545120 Nota: C1 Vol.: 40
Chanel 2 Note Off - Duracao: 1547040 Nota: C1 Vol.: 40
Chanel 2 Note On - Duracao: 1547040 Nota: C1 Vol.: 41
Chanel 3 Note Off - Duracao: 1547460 Nota: C1 Vol.: 45
Chanel 3 Note On - Duracao: 1547460 Nota: C1 Vol.: 47
Chanel 2 Note Off - Duracao: 1548960 Nota: C1 Vol.: 41
Chanel 2 Note On - Duracao: 1548960 Nota: C1 Vol.: 42
Chanel 2 Note Off - Duracao: 1550880 Nota: C1 Vol.: 42
Chanel 2 Note On - Duracao: 1550880 Nota: C1 Vol.: 41
Chanel 3 Note Off - Duracao: 1551300 Nota: C1 Vol.: 47
Chanel 3 Note On - Duracao: 1551300 Nota: C1 Vol.: 47
Chanel 2 Note Off - Duracao: 1552800 Nota: C1 Vol.: 41
Chanel 2 Note On - Duracao: 1552800 Nota: C1 Vol.: 49
Chanel 2 Note Off - Duracao: 1554720 Nota: C1 Vol.: 49
Chanel 2 Note On - Duracao: 1554720 Nota: C1 Vol.: 49
Chanel 3 Note Off - Duracao: 1555140 Nota: C1 Vol.: 47
Chanel 3 Note On - Duracao: 1555140 Nota: C1 Vol.: 47
Chanel 2 Note Off - Duracao: 1556640 Nota: C1 Vol.: 49
Chanel 2 Note On - Duracao: 1556640 Nota: C1 Vol.: 40
Chanel 3 Note Off - Duracao: 1558980 Nota: C1 Vol.: 47
Chanel 3 Note On - Duracao: 1558980 Nota: C1 Vol.: 51
Chanel 2 Note Off - Duracao: 1560480 Nota: C1 Vol.: 40
Chanel 2 Note On - Duracao: 1560480 Nota: C1 Vol.: 56
Chanel 3 Note Off - Duracao: 1560900 Nota: C1 Vol.: 51
Chanel 3 Note On - Duracao: 1560900 Nota: C1 Vol.: 57
Chanel 2 Note Off - Duracao: 1561440 Nota: C1 Vol.: 56
Chanel 2 Note On - Duracao: 1561440 Nota: C1 Vol.: 43
Chanel 3 Note Off - Duracao: 1562820 Nota: C1 Vol.: 57
Chanel 3 Note On - Duracao: 1562820 Nota: C1 Vol.: 60
Chanel 2 Note Off - Duracao: 1563360 Nota: C1 Vol.: 43
Chanel 2 Note On - Duracao: 1563360 Nota: C1 Vol.: 47
Chanel 3 Note Off - Duracao: 1563780 Nota: C1 Vol.: 60
Chanel 3 Note On - Duracao: 1563780 Nota: C1 Vol.: 89
Chanel 3 Note Off - Duracao: 1563900 Nota: C1 Vol.: 89
Chanel 3 Note On - Duracao: 1563900 Nota: C1 Vol.: 71
Chanel 3 Note Off - Duracao: 1564860 Nota: C1 Vol.: 71
Chanel 3 Note On - Duracao: 1564860 Nota: C1 Vol.: 62
Chanel 2 Note Off - Duracao: 1565280 Nota: C1 Vol.: 47
Chanel 2 Note On - Duracao: 1565280 Nota: C1 Vol.: 48
Chanel 3 Note Off - Duracao: 1566780 Nota: C1 Vol.: 62
Chanel 3 Note On - Duracao: 1566780 Nota: C1 Vol.: 51
Chanel 2 Note Off - Duracao: 1567200 Nota: C1 Vol.: 48
Chanel 2 Note On - Duracao: 1567200 Nota: C1 Vol.: 59
Chanel 2 Note Off - Duracao: 1567680 Nota: C1 Vol.: 59
Chanel 2 Note On - Duracao: 1567680 Nota: C1 Vol.: 46
Chanel 2 Note Off - Duracao: 1568640 Nota: C1 Vol.: 46
Chanel 2 Note On - Duracao: 1568640 Nota: C1 Vol.: 48
Chanel 3 Note Off - Duracao: 1568700 Nota: C1 Vol.: 51
Chanel 3 Note On - Duracao: 1568700 Nota: C1 Vol.: 50
Chanel 2 Note Off - Duracao: 1569600 Nota: C1 Vol.: 48
Chanel 2 Note On - Duracao: 1569600 Nota: C1 Vol.: 59
Chanel 2 Note Off - Duracao: 1570560 Nota: C1 Vol.: 59
Chanel 2 Note On - Duracao: 1570560 Nota: C1 Vol.: 45
Chanel 2 Note Off - Duracao: 1572480 Nota: C1 Vol.: 45
Chanel 2 Note On - Duracao: 1572480 Nota: C1 Vol.: 42
Chanel 3 Note Off - Duracao: 1572540 Nota: C1 Vol.: 50
Chanel 3 Note On - Duracao: 1572540 Nota: C1 Vol.: 51
Chanel 2 Note Off - Duracao: 1576320 Nota: C1 Vol.: 42
Chanel 2 Note On - Duracao: 1576320 Nota: C1 Vol.: 43
Chanel 3 Note Off - Duracao: 1576380 Nota: C1 Vol.: 51
Chanel 3 Note On - Duracao: 1576380 Nota: C1 Vol.: 50
Chanel 2 Note Off - Duracao: 1578240 Nota: C1 Vol.: 43
Chanel 2 Note On - Duracao: 1578240 Nota: C1 Vol.: 40
Chanel 2 Note Off - Duracao: 1580160 Nota: C1 Vol.: 40
Chanel 2 Note On - Duracao: 1580160 Nota: C1 Vol.: 45
Chanel 3 Note Off - Duracao: 1580220 Nota: C1 Vol.: 50
Chanel 3 Note On - Duracao: 1580220 Nota: C1 Vol.: 45
Chanel 2 Note Off - Duracao: 1581120 Nota: C1 Vol.: 45
Chanel 2 Note On - Duracao: 1581120 Nota: C1 Vol.: 45
Chanel 2 Note Off - Duracao: 1582080 Nota: C1 Vol.: 45
Chanel 2 Note On - Duracao: 1582080 Nota: C1 Vol.: 54
Chanel 2 Note Off - Duracao: 1583040 Nota: C1 Vol.: 54
Chanel 2 Note On - Duracao: 1583040 Nota: C1 Vol.: 40
Chanel 3 Note Off - Duracao: 1584060 Nota: C1 Vol.: 45
Chanel 3 Note On - Duracao: 1584060 Nota: C1 Vol.: 45
Chanel 2 Note Off - Duracao: 1586880 Nota: C1 Vol.: 40
Chanel 2 Note On - Duracao: 1586880 Nota: C1 Vol.: 46
Chanel 3 Note Off - Duracao: 1587900 Nota: C1 Vol.: 45
Chanel 3 Note On - Duracao: 1587900 Nota: C1 Vol.: 47
Chanel 2 Note Off - Duracao: 1588800 Nota: C1 Vol.: 46
Chanel 2 Note On - Duracao: 1588800 Nota: C1 Vol.: 58
Chanel 2 Note Off - Duracao: 1589760 Nota: C1 Vol.: 58
Chanel 2 Note On - Duracao: 1589760 Nota: C1 Vol.: 47
Chanel 2 Note Off - Duracao: 1591680 Nota: C1 Vol.: 47
Chanel 2 Note On - Duracao: 1591680 Nota: C1 Vol.: 40
Chanel 3 Note Off - Duracao: 1591740 Nota: C1 Vol.: 47
Chanel 3 Note On - Duracao: 1591740 Nota: C1 Vol.: 41
Chanel 2 Note Off - Duracao: 1595520 Nota: C1 Vol.: 40
Chanel 2 Note On - Duracao: 1595520 Nota: C1 Vol.: 41
Chanel 3 Note Off - Duracao: 1595580 Nota: C1 Vol.: 41
Chanel 3 Note On - Duracao: 1595580 Nota: C1 Vol.: 48
Chanel 3 Note Off - Duracao: 1597500 Nota: C1 Vol.: 48
Chanel 3 Note On - Duracao: 1597500 Nota: C1 Vol.: 44
Chanel 3 Note Off - Duracao: 1598460 Nota: C1 Vol.: 44
Chanel 3 Note On - Duracao: 1598460 Nota: C1 Vol.: 40
Chanel 2 Note Off - Duracao: 1599360 Nota: C1 Vol.: 41
Chanel 2 Note On - Duracao: 1599360 Nota: C1 Vol.: 40
Chanel 3 Note Off - Duracao: 1600380 Nota: C1 Vol.: 40
Chanel 3 Note On - Duracao: 1600380 Nota: C1 Vol.: 44
Chanel 3 Note Off - Duracao: 1600860 Nota: C1 Vol.: 44
Chanel 3 Note On - Duracao: 1600860 Nota: C1 Vol.: 40
Chanel 3 Note Off - Duracao: 1601820 Nota: C1 Vol.: 40
Chanel 3 Note On - Duracao: 1601820 Nota: C1 Vol.: 53
Chanel 3 Note Off - Duracao: 1602300 Nota: C1 Vol.: 53
Chanel 3 Note On - Duracao: 1602300 Nota: C1 Vol.: 55
Chanel 2 Note Off - Duracao: 1603200 Nota: C1 Vol.: 40
Chanel 2 Note On - Duracao: 1603200 Nota: C1 Vol.: 41
Chanel 3 Note Off - Duracao: 1603260 Nota: C1 Vol.: 55
Chanel 3 Note On - Duracao: 1603260 Nota: C1 Vol.: 80
Chanel 3 Note Off - Duracao: 1603740 Nota: C1 Vol.: 80
Chanel 3 Note On - Duracao: 1603740 Nota: C1 Vol.: 89
Chanel 3 Note Off - Duracao: 1603860 Nota: C1 Vol.: 89
Chanel 3 Note On - Duracao: 1603860 Nota: C1 Vol.: 68
Chanel 3 Note Off - Duracao: 1604820 Nota: C1 Vol.: 68
Chanel 3 Note On - Duracao: 1604820 Nota: C1 Vol.: 56
Chanel 2 Note Off - Duracao: 1607040 Nota: C1 Vol.: 41
Chanel 2 Note On - Duracao: 1607040 Nota: C1 Vol.: 41
Chanel 3 Note Off - Duracao: 1608660 Nota: C1 Vol.: 56
Chanel 3 Note On - Duracao: 1608660 Nota: C1 Vol.: 79
Chanel 3 Note Off - Duracao: 1609620 Nota: C1 Vol.: 79
Chanel 3 Note On - Duracao: 1609620 Nota: C1 Vol.: 91
Chanel 3 Note Off - Duracao: 1610100 Nota: C1 Vol.: 91
Chanel 3 Note On - Duracao: 1610100 Nota: C1 Vol.: 90
Chanel 3 Note Off - Duracao: 1610580 Nota: C1 Vol.: 90
Chanel 3 Note On - Duracao: 1610580 Nota: C1 Vol.: 69
Chanel 2 Note Off - Duracao: 1610880 Nota: C1 Vol.: 41
Chanel 2 Note On - Duracao: 1610880 Nota: C1 Vol.: 59
Chanel 3 Note Off - Duracao: 1611540 Nota: C1 Vol.: 69
Chanel 3 Note On - Duracao: 1611540 Nota: C1 Vol.: 49
Chanel 2 Note Off - Duracao: 1612800 Nota: C1 Vol.: 59
Chanel 2 Note On - Duracao: 1612800 Nota: C1 Vol.: 59
Chanel 2 Note Off - Duracao: 1614720 Nota: C1 Vol.: 59
Chanel 2 Note On - Duracao: 1614720 Nota: C1 Vol.: 51
Chanel 3 Note Off - Duracao: 1615380 Nota: C1 Vol.: 49
Chanel 3 Note On - Duracao: 1615380 Nota: C1 Vol.: 45
Chanel 2 Note Off - Duracao: 1616640 Nota: C1 Vol.: 51
Chanel 2 Note On - Duracao: 1616640 Nota: C1 Vol.: 40
Chanel 3 Note Off - Duracao: 1619220 Nota: C1 Vol.: 45
Chanel 3 Note On - Duracao: 1619220 Nota: C1 Vol.: 44
Chanel 2 Note Off - Duracao: 1620480 Nota: C1 Vol.: 40
Chanel 2 Note On - Duracao: 1620480 Nota: C1 Vol.: 40
Chanel 2 Note Off - Duracao: 1622400 Nota: C1 Vol.: 40
Chanel 2 Note On - Duracao: 1622400 Nota: C1 Vol.: 43
Chanel 3 Note Off - Duracao: 1623060 Nota: C1 Vol.: 44
Chanel 3 Note On - Duracao: 1623060 Nota: C1 Vol.: 46
Chanel 2 Note Off - Duracao: 1624320 Nota: C1 Vol.: 43
Chanel 2 Note On - Duracao: 1624320 Nota: C1 Vol.: 45
Chanel 2 Note Off - Duracao: 1626240 Nota: C1 Vol.: 45
Chanel 2 Note On - Duracao: 1626240 Nota: C1 Vol.: 52
Chanel 3 Note Off - Duracao: 1626900 Nota: C1 Vol.: 46
Chanel 3 Note On - Duracao: 1626900 Nota: C1 Vol.: 44
Chanel 2 Note Off - Duracao: 1628160 Nota: C1 Vol.: 52
Chanel 2 Note On - Duracao: 1628160 Nota: C1 Vol.: 92
Chanel 2 Note Off - Duracao: 1628280 Nota: C1 Vol.: 92
Chanel 2 Note On - Duracao: 1628280 Nota: C1 Vol.: 100
Chanel 2 Note Off - Duracao: 1628400 Nota: C1 Vol.: 100
Chanel 2 Note On - Duracao: 1628400 Nota: C1 Vol.: 94
Chanel 2 Note Off - Duracao: 1628640 Nota: C1 Vol.: 94
Chanel 2 Note On - Duracao: 1628640 Nota: C1 Vol.: 82
Chanel 2 Note Off - Duracao: 1628880 Nota: C1 Vol.: 82
Chanel 2 Note On - Duracao: 1628880 Nota: C1 Vol.: 52
Chanel 2 Note Off - Duracao: 1629840 Nota: C1 Vol.: 52
Chanel 2 Note On - Duracao: 1629840 Nota: C1 Vol.: 59
Chanel 2 Note Off - Duracao: 1630320 Nota: C1 Vol.: 59
Chanel 2 Note On - Duracao: 1630320 Nota: C1 Vol.: 64
Chanel 2 Note Off - Duracao: 1630560 Nota: C1 Vol.: 64
Chanel 2 Note On - Duracao: 1630560 Nota: C1 Vol.: 49
Chanel 3 Note Off - Duracao: 1630740 Nota: C1 Vol.: 44
Chanel 3 Note On - Duracao: 1630740 Nota: C1 Vol.: 46
Chanel 2 Note Off - Duracao: 1631520 Nota: C1 Vol.: 49
Chanel 2 Note On - Duracao: 1631520 Nota: C1 Vol.: 49
Chanel 2 Note Off - Duracao: 1633440 Nota: C1 Vol.: 49
Chanel 2 Note On - Duracao: 1633440 Nota: C1 Vol.: 53
Chanel 2 Note Off - Duracao: 1634400 Nota: C1 Vol.: 53
Chanel 2 Note On - Duracao: 1634400 Nota: C1 Vol.: 42
Chanel 3 Note Off - Duracao: 1634580 Nota: C1 Vol.: 46
Chanel 3 Note On - Duracao: 1634580 Nota: C1 Vol.: 44
Chanel 2 Note Off - Duracao: 1636320 Nota: C1 Vol.: 42
Chanel 2 Note On - Duracao: 1636320 Nota: C1 Vol.: 65
Chanel 2 Note Off - Duracao: 1636560 Nota: C1 Vol.: 65
Chanel 2 Note On - Duracao: 1636560 Nota: C1 Vol.: 40
Chanel 3 Note Off - Duracao: 1638420 Nota: C1 Vol.: 44
Chanel 3 Note On - Duracao: 1638420 Nota: C1 Vol.: 40
Chanel 2 Note Off - Duracao: 1638480 Nota: C1 Vol.: 40
Chanel 2 Note On - Duracao: 1638480 Nota: C1 Vol.: 47
Chanel 2 Note Off - Duracao: 1640400 Nota: C1 Vol.: 47
Chanel 2 Note On - Duracao: 1640400 Nota: C1 Vol.: 44
Chanel 3 Note Off - Duracao: 1642260 Nota: C1 Vol.: 40
Chanel 3 Note On - Duracao: 1642260 Nota: C1 Vol.: 44
Chanel 2 Note Off - Duracao: 1642320 Nota: C1 Vol.: 44
Chanel 2 Note On - Duracao: 1642320 Nota: C1 Vol.: 47
Chanel 2 Note Off - Duracao: 1644240 Nota: C1 Vol.: 47
Chanel 2 Note On - Duracao: 1644240 Nota: C1 Vol.: 44
Chanel 3 Note Off - Duracao: 1646100 Nota: C1 Vol.: 44
Chanel 3 Note On - Duracao: 1646100 Nota: C1 Vol.: 40
Chanel 2 Note Off - Duracao: 1646160 Nota: C1 Vol.: 44
Chanel 2 Note On - Duracao: 1646160 Nota: C1 Vol.: 46
Chanel 2 Note Off - Duracao: 1648080 Nota: C1 Vol.: 46
Chanel 2 Note On - Duracao: 1648080 Nota: C1 Vol.: 52
Chanel 2 Note Off - Duracao: 1649040 Nota: C1 Vol.: 52
Chanel 2 Note On - Duracao: 1649040 Nota: C1 Vol.: 49
Chanel 3 Note Off - Duracao: 1649940 Nota: C1 Vol.: 40
Chanel 3 Note On - Duracao: 1649940 Nota: C1 Vol.: 40
Chanel 2 Note Off - Duracao: 1650000 Nota: C1 Vol.: 49
Chanel 2 Note On - Duracao: 1650000 Nota: C1 Vol.: 57
Chanel 2 Note Off - Duracao: 1650960 Nota: C1 Vol.: 57
Chanel 2 Note On - Duracao: 1650960 Nota: C1 Vol.: 80
Chanel 2 Note Off - Duracao: 1651200 Nota: C1 Vol.: 80
Chanel 2 Note On - Duracao: 1651200 Nota: C1 Vol.: 49
Chanel 2 Note Off - Duracao: 1652160 Nota: C1 Vol.: 49
Chanel 2 Note On - Duracao: 1652160 Nota: C1 Vol.: 53
Chanel 2 Note Off - Duracao: 1653120 Nota: C1 Vol.: 53
Chanel 2 Note On - Duracao: 1653120 Nota: C1 Vol.: 69
Chanel 2 Note Off - Duracao: 1653360 Nota: C1 Vol.: 69
Chanel 2 Note On - Duracao: 1653360 Nota: C1 Vol.: 80
Chanel 2 Note Off - Duracao: 1653480 Nota: C1 Vol.: 80
Chanel 2 Note On - Duracao: 1653480 Nota: C1 Vol.: 52
Chanel 3 Note Off - Duracao: 1653780 Nota: C1 Vol.: 40
Chanel 3 Note On - Duracao: 1653780 Nota: C1 Vol.: 74
Chanel 3 Note Off - Duracao: 1654740 Nota: C1 Vol.: 74
Chanel 3 Note On - Duracao: 1654740 Nota: C1 Vol.: 83
Chanel 3 Note Off - Duracao: 1655220 Nota: C1 Vol.: 83
Chanel 3 Note On - Duracao: 1655220 Nota: C1 Vol.: 65
Chanel 2 Note Off - Duracao: 1655400 Nota: C1 Vol.: 52
Chanel 2 Note On - Duracao: 1655400 Nota: C1 Vol.: 40
Chanel 3 Note Off - Duracao: 1657140 Nota: C1 Vol.: 65
Chanel 3 Note On - Duracao: 1657140 Nota: C1 Vol.: 78
Chanel 3 Note Off - Duracao: 1658100 Nota: C1 Vol.: 78
Chanel 3 Note On - Duracao: 1658100 Nota: C1 Vol.: 79
Chanel 3 Note Off - Duracao: 1658580 Nota: C1 Vol.: 79
Chanel 3 Note On - Duracao: 1658580 Nota: C1 Vol.: 70
Chanel 2 Note Off - Duracao: 1659240 Nota: C1 Vol.: 40
Chanel 2 Note On - Duracao: 1659240 Nota: C1 Vol.: 40
Chanel 3 Note Off - Duracao: 1659540 Nota: C1 Vol.: 70
Chanel 3 Note On - Duracao: 1659540 Nota: C1 Vol.: 60
Chanel 2 Note Off - Duracao: 1661160 Nota: C1 Vol.: 40
Chanel 2 Note On - Duracao: 1661160 Nota: C1 Vol.: 54
Chanel 3 Note Off - Duracao: 1661460 Nota: C1 Vol.: 60
Chanel 3 Note On - Duracao: 1661460 Nota: C1 Vol.: 56
Chanel 2 Note Off - Duracao: 1662120 Nota: C1 Vol.: 54
Chanel 2 Note On - Duracao: 1662120 Nota: C1 Vol.: 56
Chanel 2 Note Off - Duracao: 1662600 Nota: C1 Vol.: 56
Chanel 2 Note On - Duracao: 1662600 Nota: C1 Vol.: 40
Chanel 3 Note Off - Duracao: 1663380 Nota: C1 Vol.: 56
Chanel 3 Note On - Duracao: 1663380 Nota: C1 Vol.: 58
Chanel 2 Note Off - Duracao: 1666440 Nota: C1 Vol.: 40
Chanel 2 Note On - Duracao: 1666440 Nota: C1 Vol.: 40
Chanel 3 Note Off - Duracao: 1667220 Nota: C1 Vol.: 58
Chanel 3 Note On - Duracao: 1667220 Nota: C1 Vol.: 71
Chanel 3 Note Off - Duracao: 1668180 Nota: C1 Vol.: 71
Chanel 3 Note On - Duracao: 1668180 Nota: C1 Vol.: 85
Chanel 3 Note Off - Duracao: 1668660 Nota: C1 Vol.: 85
Chanel 3 Note On - Duracao: 1668660 Nota: C1 Vol.: 70
Chanel 3 Note Off - Duracao: 1669620 Nota: C1 Vol.: 70
Chanel 3 Note On - Duracao: 1669620 Nota: C1 Vol.: 65
Chanel 2 Note Off - Duracao: 1670280 Nota: C1 Vol.: 40
Chanel 2 Note On - Duracao: 1670280 Nota: C1 Vol.: 40
Chanel 3 Note Off - Duracao: 1670580 Nota: C1 Vol.: 65
Chanel 3 Note On - Duracao: 1670580 Nota: C1 Vol.: 65
Chanel 3 Note Off - Duracao: 1671540 Nota: C1 Vol.: 65
Chanel 3 Note On - Duracao: 1671540 Nota: C1 Vol.: 70
Chanel 3 Note Off - Duracao: 1672500 Nota: C1 Vol.: 70
Chanel 3 Note On - Duracao: 1672500 Nota: C1 Vol.: 72
Chanel 3 Note Off - Duracao: 1673460 Nota: C1 Vol.: 72
Chanel 3 Note On - Duracao: 1673460 Nota: C1 Vol.: 60
Chanel 2 Note Off - Duracao: 1674120 Nota: C1 Vol.: 40
Chanel 2 Note On - Duracao: 1674120 Nota: C1 Vol.: 40
Chanel 3 Note Off - Duracao: 1675380 Nota: C1 Vol.: 60
Chanel 3 Note On - Duracao: 1675380 Nota: C1 Vol.: 67
Chanel 3 Note Off - Duracao: 1676340 Nota: C1 Vol.: 67
Chanel 3 Note On - Duracao: 1676340 Nota: C1 Vol.: 60
Chanel 2 Note Off - Duracao: 1677960 Nota: C1 Vol.: 40
Chanel 2 Note On - Duracao: 1677960 Nota: C1 Vol.: 40
Chanel 3 Note Off - Duracao: 1678260 Nota: C1 Vol.: 60
Chanel 3 Note On - Duracao: 1678260 Nota: C1 Vol.: 52
Chanel 2 Note Off - Duracao: 1681800 Nota: C1 Vol.: 40
Chanel 2 Note On - Duracao: 1681800 Nota: C1 Vol.: 40
Chanel 3 Note Off - Duracao: 1682100 Nota: C1 Vol.: 52
Chanel 3 Note On - Duracao: 1682100 Nota: C1 Vol.: 52
Chanel 3 Note Off - Duracao: 1684020 Nota: C1 Vol.: 52
Chanel 3 Note On - Duracao: 1684020 Nota: C1 Vol.: 46
Chanel 2 Note Off - Duracao: 1685640 Nota: C1 Vol.: 40
Chanel 2 Note On - Duracao: 1685640 Nota: C1 Vol.: 43
Chanel 3 Note Off - Duracao: 1685940 Nota: C1 Vol.: 46
Chanel 3 Note On - Duracao: 1685940 Nota: C1 Vol.: 44
Chanel 2 Note Off - Duracao: 1687560 Nota: C1 Vol.: 43
Chanel 2 Note On - Duracao: 1687560 Nota: C1 Vol.: 48
Chanel 2 Note Off - Duracao: 1689480 Nota: C1 Vol.: 48
Chanel 2 Note On - Duracao: 1689480 Nota: C1 Vol.: 43
Chanel 3 Note Off - Duracao: 1689780 Nota: C1 Vol.: 44
Chanel 3 Note On - Duracao: 1689780 Nota: C1 Vol.: 46
Chanel 3 Note Off - Duracao: 1691700 Nota: C1 Vol.: 46
Chanel 3 Note On - Duracao: 1691700 Nota: C1 Vol.: 41
Chanel 2 Note Off - Duracao: 1693320 Nota: C1 Vol.: 43
Chanel 2 Note On - Duracao: 1693320 Nota: C1 Vol.: 42
Chanel 3 Note Off - Duracao: 1693620 Nota: C1 Vol.: 41
Chanel 3 Note On - Duracao: 1693620 Nota: C1 Vol.: 44
Chanel 3 Note Off - Duracao: 1695540 Nota: C1 Vol.: 44
Chanel 3 Note On - Duracao: 1695540 Nota: C1 Vol.: 47
Chanel 3 Note Off - Duracao: 1696500 Nota: C1 Vol.: 47
Chanel 3 Note On - Duracao: 1696500 Nota: C1 Vol.: 40
Chanel 2 Note Off - Duracao: 1697160 Nota: C1 Vol.: 42
Chanel 2 Note On - Duracao: 1697160 Nota: C1 Vol.: 41
Chanel 3 Note Off - Duracao: 1698420 Nota: C1 Vol.: 40
Chanel 3 Note On - Duracao: 1698420 Nota: C1 Vol.: 43
Chanel 3 Note Off - Duracao: 1699380 Nota: C1 Vol.: 43
Chanel 3 Note On - Duracao: 1699380 Nota: C1 Vol.: 46
Chanel 3 Note Off - Duracao: 1700340 Nota: C1 Vol.: 46
Chanel 3 Note On - Duracao: 1700340 Nota: C1 Vol.: 46
Chanel 2 Note Off - Duracao: 1701000 Nota: C1 Vol.: 41
Chanel 2 Note On - Duracao: 1701000 Nota: C1 Vol.: 58
Chanel 3 Note Off - Duracao: 1702260 Nota: C1 Vol.: 46
Chanel 3 Note On - Duracao: 1702260 Nota: C1 Vol.: 59
Chanel 2 Note Off - Duracao: 1702920 Nota: C1 Vol.: 58
Chanel 2 Note On - Duracao: 1702920 Nota: C1 Vol.: 55
Chanel 3 Note Off - Duracao: 1703220 Nota: C1 Vol.: 59
Chanel 3 Note On - Duracao: 1703220 Nota: C1 Vol.: 65
Chanel 3 Note Off - Duracao: 1703700 Nota: C1 Vol.: 65
Chanel 3 Note On - Duracao: 1703700 Nota: C1 Vol.: 52
Chanel 3 Note Off - Duracao: 1704660 Nota: C1 Vol.: 52
Chanel 3 Note On - Duracao: 1704660 Nota: C1 Vol.: 48
Chanel 2 Note Off - Duracao: 1704840 Nota: C1 Vol.: 55
Chanel 2 Note On - Duracao: 1704840 Nota: C1 Vol.: 55
Chanel 2 Note Off - Duracao: 1706760 Nota: C1 Vol.: 55
Chanel 2 Note On - Duracao: 1706760 Nota: C1 Vol.: 47
Chanel 3 Note Off - Duracao: 1708500 Nota: C1 Vol.: 48
Chanel 3 Note On - Duracao: 1708500 Nota: C1 Vol.: 60
Chanel 2 Note Off - Duracao: 1708680 Nota: C1 Vol.: 47
Chanel 2 Note On - Duracao: 1708680 Nota: C1 Vol.: 45
Chanel 3 Note Off - Duracao: 1710420 Nota: C1 Vol.: 60
Chanel 3 Note On - Duracao: 1710420 Nota: C1 Vol.: 84
Chanel 2 Note Off - Duracao: 1710600 Nota: C1 Vol.: 45
Chanel 2 Note On - Duracao: 1710600 Nota: C1 Vol.: 46
Chanel 3 Note Off - Duracao: 1711380 Nota: C1 Vol.: 84
Chanel 3 Note On - Duracao: 1711380 Nota: C1 Vol.: 93
Chanel 3 Note Off - Duracao: 1711860 Nota: C1 Vol.: 93
Chanel 3 Note On - Duracao: 1711860 Nota: C1 Vol.: 90
Chanel 3 Note Off - Duracao: 1712340 Nota: C1 Vol.: 90
Chanel 3 Note On - Duracao: 1712340 Nota: C1 Vol.: 54
Chanel 2 Note Off - Duracao: 1712520 Nota: C1 Vol.: 46
Chanel 2 Note On - Duracao: 1712520 Nota: C1 Vol.: 51
Chanel 2 Note Off - Duracao: 1714440 Nota: C1 Vol.: 51
Chanel 2 Note On - Duracao: 1714440 Nota: C1 Vol.: 62
Chanel 2 Note Off - Duracao: 1715400 Nota: C1 Vol.: 62
Chanel 2 Note On - Duracao: 1715400 Nota: C1 Vol.: 95
Chanel 2 Note Off - Duracao: 1715640 Nota: C1 Vol.: 95
Chanel 2 Note On - Duracao: 1715640 Nota: C1 Vol.: 100
Chanel 2 Note Off - Duracao: 1715760 Nota: C1 Vol.: 100
Chanel 2 Note On - Duracao: 1715760 Nota: C1 Vol.: 100
Chanel 2 Note Off - Duracao: 1716000 Nota: C1 Vol.: 100
Chanel 2 Note On - Duracao: 1716000 Nota: C1 Vol.: 76
Chanel 3 Note Off - Duracao: 1716180 Nota: C1 Vol.: 54
Chanel 3 Note On - Duracao: 1716180 Nota: C1 Vol.: 48
Chanel 2 Note Off - Duracao: 1716960 Nota: C1 Vol.: 76
Chanel 2 Note On - Duracao: 1716960 Nota: C1 Vol.: 58
Chanel 2 Note Off - Duracao: 1717920 Nota: C1 Vol.: 58
Chanel 2 Note On - Duracao: 1717920 Nota: C1 Vol.: 74
Chanel 2 Note Off - Duracao: 1718160 Nota: C1 Vol.: 74
Chanel 2 Note On - Duracao: 1718160 Nota: C1 Vol.: 65
Chanel 2 Note Off - Duracao: 1718640 Nota: C1 Vol.: 65
Chanel 2 Note On - Duracao: 1718640 Nota: C1 Vol.: 87
Chanel 2 Note Off - Duracao: 1718760 Nota: C1 Vol.: 87
Chanel 2 Note On - Duracao: 1718760 Nota: C1 Vol.: 87
Chanel 2 Note Off - Duracao: 1718880 Nota: C1 Vol.: 87
Chanel 2 Note On - Duracao: 1718880 Nota: C1 Vol.: 75
Chanel 2 Note Off - Duracao: 1719120 Nota: C1 Vol.: 75
Chanel 2 Note On - Duracao: 1719120 Nota: C1 Vol.: 62
Chanel 2 Note Off - Duracao: 1719600 Nota: C1 Vol.: 62
Chanel 2 Note On - Duracao: 1719600 Nota: C1 Vol.: 62
Chanel 3 Note Off - Duracao: 1720020 Nota: C1 Vol.: 48
Chanel 3 Note On - Duracao: 1720020 Nota: C1 Vol.: 40
Chanel 2 Note Off - Duracao: 1720080 Nota: C1 Vol.: 62
Chanel 2 Note On - Duracao: 1720080 Nota: C1 Vol.: 49
Chanel 2 Note Off - Duracao: 1722000 Nota: C1 Vol.: 49
Chanel 2 Note On - Duracao: 1722000 Nota: C1 Vol.: 48
Chanel 3 Note Off - Duracao: 1723860 Nota: C1 Vol.: 40
Chanel 3 Note On - Duracao: 1723860 Nota: C1 Vol.: 41
Chanel 2 Note Off - Duracao: 1723920 Nota: C1 Vol.: 48
Chanel 2 Note On - Duracao: 1723920 Nota: C1 Vol.: 49
Chanel 2 Note Off - Duracao: 1724880 Nota: C1 Vol.: 49
Chanel 2 Note On - Duracao: 1724880 Nota: C1 Vol.: 53
Chanel 2 Note Off - Duracao: 1725360 Nota: C1 Vol.: 53
Chanel 2 Note On - Duracao: 1725360 Nota: C1 Vol.: 44
Chanel 2 Note Off - Duracao: 1727280 Nota: C1 Vol.: 44
Chanel 2 Note On - Duracao: 1727280 Nota: C1 Vol.: 64
Chanel 3 Note Off - Duracao: 1727700 Nota: C1 Vol.: 41
Chanel 3 Note On - Duracao: 1727700 Nota: C1 Vol.: 42
Chanel 2 Note Off - Duracao: 1727760 Nota: C1 Vol.: 64
Chanel 2 Note On - Duracao: 1727760 Nota: C1 Vol.: 58
Chanel 2 Note Off - Duracao: 1728720 Nota: C1 Vol.: 58
Chanel 2 Note On - Duracao: 1728720 Nota: C1 Vol.: 55
Chanel 2 Note Off - Duracao: 1729680 Nota: C1 Vol.: 55
Chanel 2 Note On - Duracao: 1729680 Nota: C1 Vol.: 56
Chanel 2 Note Off - Duracao: 1730640 Nota: C1 Vol.: 56
Chanel 2 Note On - Duracao: 1730640 Nota: C1 Vol.: 84
Chanel 2 Note Off - Duracao: 1730760 Nota: C1 Vol.: 84
Chanel 2 Note On - Duracao: 1730760 Nota: C1 Vol.: 87
Chanel 2 Note Off - Duracao: 1730880 Nota: C1 Vol.: 87
Chanel 2 Note On - Duracao: 1730880 Nota: C1 Vol.: 63
Chanel 3 Note Off - Duracao: 1731540 Nota: C1 Vol.: 42
Chanel 3 Note On - Duracao: 1731540 Nota: C1 Vol.: 41
Chanel 2 Note Off - Duracao: 1731840 Nota: C1 Vol.: 63
Chanel 2 Note On - Duracao: 1731840 Nota: C1 Vol.: 72
Chanel 2 Note Off - Duracao: 1732320 Nota: C1 Vol.: 72
Chanel 2 Note On - Duracao: 1732320 Nota: C1 Vol.: 67
Chanel 2 Note Off - Duracao: 1732800 Nota: C1 Vol.: 67
Chanel 2 Note On - Duracao: 1732800 Nota: C1 Vol.: 48
Chanel 2 Note Off - Duracao: 1734720 Nota: C1 Vol.: 48
Chanel 2 Note On - Duracao: 1734720 Nota: C1 Vol.: 42
Chanel 3 Note Off - Duracao: 1735380 Nota: C1 Vol.: 41
Chanel 3 Note On - Duracao: 1735380 Nota: C1 Vol.: 44
Chanel 2 Note Off - Duracao: 1736640 Nota: C1 Vol.: 42
Chanel 2 Note On - Duracao: 1736640 Nota: C1 Vol.: 42
Chanel 2 Note Off - Duracao: 1738560 Nota: C1 Vol.: 42
Chanel 2 Note On - Duracao: 1738560 Nota: C1 Vol.: 56
Chanel 3 Note Off - Duracao: 1739220 Nota: C1 Vol.: 44
Chanel 3 Note On - Duracao: 1739220 Nota: C1 Vol.: 44
Chanel 2 Note Off - Duracao: 1739520 Nota: C1 Vol.: 56
Chanel 2 Note On - Duracao: 1739520 Nota: C1 Vol.: 43
Chanel 2 Note Off - Duracao: 1741440 Nota: C1 Vol.: 43
Chanel 2 Note On - Duracao: 1741440 Nota: C1 Vol.: 42
Chanel 3 Note Off - Duracao: 1743060 Nota: C1 Vol.: 44
Chanel 3 Note On - Duracao: 1743060 Nota: C1 Vol.: 42
Chanel 2 Note Off - Duracao: 1743360 Nota: C1 Vol.: 42
Chanel 2 Note On - Duracao: 1743360 Nota: C1 Vol.: 40
Chanel 3 Note Off - Duracao: 1746900 Nota: C1 Vol.: 42
Chanel 3 Note On - Duracao: 1746900 Nota: C1 Vol.: 42
Chanel 2 Note Off - Duracao: 1747200 Nota: C1 Vol.: 40
Chanel 2 Note On - Duracao: 1747200 Nota: C1 Vol.: 42
Chanel 3 Note Off - Duracao: 1750740 Nota: C1 Vol.: 42
Chanel 3 Note On - Duracao: 1750740 Nota: C1 Vol.: 41
Chanel 2 Note Off - Duracao: 1751040 Nota: C1 Vol.: 42
Chanel 2 Note On - Duracao: 1751040 Nota: C1 Vol.: 40
Chanel 3 Note Off - Duracao: 1754580 Nota: C1 Vol.: 41
Chanel 3 Note On - Duracao: 1754580 Nota: C1 Vol.: 86
Chanel 2 Note Off - Duracao: 1754880 Nota: C1 Vol.: 40
Chanel 2 Note On - Duracao: 1754880 Nota: C1 Vol.: 40
Chanel 3 Note Off - Duracao: 1755060 Nota: C1 Vol.: 86
Chanel 3 Note On - Duracao: 1755060 Nota: C1 Vol.: 93
Chanel 3 Note Off - Duracao: 1755300 Nota: C1 Vol.: 93
Chanel 3 Note On - Duracao: 1755300 Nota: C1 Vol.: 78
Chanel 3 Note Off - Duracao: 1756260 Nota: C1 Vol.: 78
Chanel 3 Note On - Duracao: 1756260 Nota: C1 Vol.: 71
Chanel 3 Note Off - Duracao: 1758180 Nota: C1 Vol.: 71
Chanel 3 Note On - Duracao: 1758180 Nota: C1 Vol.: 84
Chanel 3 Note Off - Duracao: 1758660 Nota: C1 Vol.: 84
Chanel 3 Note On - Duracao: 1758660 Nota: C1 Vol.: 78
Chanel 2 Note Off - Duracao: 1758720 Nota: C1 Vol.: 40
Chanel 2 Note On - Duracao: 1758720 Nota: C1 Vol.: 42
Chanel 3 Note Off - Duracao: 1759620 Nota: C1 Vol.: 78
Chanel 3 Note On - Duracao: 1759620 Nota: C1 Vol.: 70
Chanel 3 Note Off - Duracao: 1761540 Nota: C1 Vol.: 70
Chanel 3 Note On - Duracao: 1761540 Nota: C1 Vol.: 70
Chanel 2 Note Off - Duracao: 1762560 Nota: C1 Vol.: 42
Chanel 2 Note On - Duracao: 1762560 Nota: C1 Vol.: 42
Chanel 3 Note Off - Duracao: 1763460 Nota: C1 Vol.: 70
Chanel 3 Note On - Duracao: 1763460 Nota: C1 Vol.: 79
Chanel 3 Note Off - Duracao: 1764420 Nota: C1 Vol.: 79
Chanel 3 Note On - Duracao: 1764420 Nota: C1 Vol.: 79
Chanel 3 Note Off - Duracao: 1765380 Nota: C1 Vol.: 79
Chanel 3 Note On - Duracao: 1765380 Nota: C1 Vol.: 75
Chanel 3 Note Off - Duracao: 1766340 Nota: C1 Vol.: 75
Chanel 3 Note On - Duracao: 1766340 Nota: C1 Vol.: 88
Chanel 2 Note Off - Duracao: 1766400 Nota: C1 Vol.: 42
Chanel 2 Note On - Duracao: 1766400 Nota: C1 Vol.: 40
Chanel 3 Note Off - Duracao: 1766580 Nota: C1 Vol.: 88
Chanel 3 Note On - Duracao: 1766580 Nota: C1 Vol.: 82
Chanel 3 Note Off - Duracao: 1766820 Nota: C1 Vol.: 82
Chanel 3 Note On - Duracao: 1766820 Nota: C1 Vol.: 83
Chanel 3 Note Off - Duracao: 1767060 Nota: C1 Vol.: 83
Chanel 3 Note On - Duracao: 1767060 Nota: C1 Vol.: 76
Chanel 3 Note Off - Duracao: 1768020 Nota: C1 Vol.: 76
Chanel 3 Note On - Duracao: 1768020 Nota: C1 Vol.: 75
Chanel 3 Note Off - Duracao: 1768980 Nota: C1 Vol.: 75
Chanel 3 Note On - Duracao: 1768980 Nota: C1 Vol.: 81
Chanel 3 Note Off - Duracao: 1769460 Nota: C1 Vol.: 81
Chanel 3 Note On - Duracao: 1769460 Nota: C1 Vol.: 84
Chanel 3 Note Off - Duracao: 1769940 Nota: C1 Vol.: 84
Chanel 3 Note On - Duracao: 1769940 Nota: C1 Vol.: 85
Chanel 2 Note Off - Duracao: 1770240 Nota: C1 Vol.: 40
Chanel 2 Note On - Duracao: 1770240 Nota: C1 Vol.: 45
Chanel 3 Note Off - Duracao: 1770420 Nota: C1 Vol.: 85
Chanel 3 Note On - Duracao: 1770420 Nota: C1 Vol.: 74
Chanel 3 Note Off - Duracao: 1771380 Nota: C1 Vol.: 74
Chanel 3 Note On - Duracao: 1771380 Nota: C1 Vol.: 58
Chanel 3 Note Off - Duracao: 1772340 Nota: C1 Vol.: 58
Chanel 3 Note On - Duracao: 1772340 Nota: C1 Vol.: 63
Chanel 3 Note Off - Duracao: 1772820 Nota: C1 Vol.: 63
Chanel 3 Note On - Duracao: 1772820 Nota: C1 Vol.: 66
Chanel 3 Note Off - Duracao: 1773300 Nota: C1 Vol.: 66
Chanel 3 Note On - Duracao: 1773300 Nota: C1 Vol.: 43
Chanel 2 Note Off - Duracao: 1774080 Nota: C1 Vol.: 45
Chanel 2 Note On - Duracao: 1774080 Nota: C1 Vol.: 43
Chanel 3 Note Off - Duracao: 1775220 Nota: C1 Vol.: 43
Chanel 3 Note On - Duracao: 1775220 Nota: C1 Vol.: 42
Chanel 3 Note Off - Duracao: 1777140 Nota: C1 Vol.: 42
Chanel 3 Note On - Duracao: 1777140 Nota: C1 Vol.: 40
Chanel 2 Note Off - Duracao: 1777920 Nota: C1 Vol.: 43
Chanel 2 Note On - Duracao: 1777920 Nota: C1 Vol.: 42
Chanel 3 Note Off - Duracao: 1780980 Nota: C1 Vol.: 40
Chanel 3 Note On - Duracao: 1780980 Nota: C1 Vol.: 41
Chanel 2 Note Off - Duracao: 1781760 Nota: C1 Vol.: 42
Chanel 2 Note On - Duracao: 1781760 Nota: C1 Vol.: 58
Chanel 3 Note Off - Duracao: 1782900 Nota: C1 Vol.: 41
Chanel 3 Note On - Duracao: 1782900 Nota: C1 Vol.: 46
Chanel 2 Note Off - Duracao: 1783680 Nota: C1 Vol.: 58
Chanel 2 Note On - Duracao: 1783680 Nota: C1 Vol.: 56
Chanel 3 Note Off - Duracao: 1783860 Nota: C1 Vol.: 46
Chanel 3 Note On - Duracao: 1783860 Nota: C1 Vol.: 42
Chanel 3 Note Off - Duracao: 1784820 Nota: C1 Vol.: 42
Chanel 3 Note On - Duracao: 1784820 Nota: C1 Vol.: 40
Chanel 2 Note Off - Duracao: 1785600 Nota: C1 Vol.: 56
Chanel 2 Note On - Duracao: 1785600 Nota: C1 Vol.: 52
Chanel 3 Note Off - Duracao: 1786740 Nota: C1 Vol.: 40
Chanel 3 Note On - Duracao: 1786740 Nota: C1 Vol.: 47
Chanel 3 Note Off - Duracao: 1787700 Nota: C1 Vol.: 47
Chanel 3 Note On - Duracao: 1787700 Nota: C1 Vol.: 50
Chanel 3 Note Off - Duracao: 1788660 Nota: C1 Vol.: 50
Chanel 3 Note On - Duracao: 1788660 Nota: C1 Vol.: 65
Chanel 3 Note Off - Duracao: 1788900 Nota: C1 Vol.: 65
Chanel 3 Note On - Duracao: 1788900 Nota: C1 Vol.: 49
Chanel 2 Note Off - Duracao: 1789440 Nota: C1 Vol.: 52
Chanel 2 Note On - Duracao: 1789440 Nota: C1 Vol.: 55
Chanel 3 Note Off - Duracao: 1789860 Nota: C1 Vol.: 49
Chanel 3 Note On - Duracao: 1789860 Nota: C1 Vol.: 47
Chanel 2 Note Off - Duracao: 1791360 Nota: C1 Vol.: 55
Chanel 2 Note On - Duracao: 1791360 Nota: C1 Vol.: 49
Chanel 3 Note Off - Duracao: 1791780 Nota: C1 Vol.: 47
Chanel 3 Note On - Duracao: 1791780 Nota: C1 Vol.: 53
Chanel 2 Note Off - Duracao: 1793280 Nota: C1 Vol.: 49
Chanel 2 Note On - Duracao: 1793280 Nota: C1 Vol.: 58
Chanel 3 Note Off - Duracao: 1793700 Nota: C1 Vol.: 53
Chanel 3 Note On - Duracao: 1793700 Nota: C1 Vol.: 64
Chanel 2 Note Off - Duracao: 1794240 Nota: C1 Vol.: 58
Chanel 2 Note On - Duracao: 1794240 Nota: C1 Vol.: 52
Chanel 3 Note Off - Duracao: 1795620 Nota: C1 Vol.: 64
Chanel 3 Note On - Duracao: 1795620 Nota: C1 Vol.: 84
Chanel 2 Note Off - Duracao: 1796160 Nota: C1 Vol.: 52
Chanel 2 Note On - Duracao: 1796160 Nota: C1 Vol.: 57
Chanel 3 Note Off - Duracao: 1796580 Nota: C1 Vol.: 84
Chanel 3 Note On - Duracao: 1796580 Nota: C1 Vol.: 89
Chanel 3 Note Off - Duracao: 1797060 Nota: C1 Vol.: 89
Chanel 3 Note On - Duracao: 1797060 Nota: C1 Vol.: 82
Chanel 3 Note Off - Duracao: 1797540 Nota: C1 Vol.: 82
Chanel 3 Note On - Duracao: 1797540 Nota: C1 Vol.: 47
Chanel 2 Note Off - Duracao: 1798080 Nota: C1 Vol.: 57
Chanel 2 Note On - Duracao: 1798080 Nota: C1 Vol.: 86
Chanel 2 Note Off - Duracao: 1798560 Nota: C1 Vol.: 86
Chanel 2 Note On - Duracao: 1798560 Nota: C1 Vol.: 98
Chanel 2 Note Off - Duracao: 1798800 Nota: C1 Vol.: 98
Chanel 2 Note On - Duracao: 1798800 Nota: C1 Vol.: 95
Chanel 2 Note Off - Duracao: 1799040 Nota: C1 Vol.: 95
Chanel 2 Note On - Duracao: 1799040 Nota: C1 Vol.: 72
Chanel 2 Note Off - Duracao: 1800000 Nota: C1 Vol.: 72
Chanel 2 Note On - Duracao: 1800000 Nota: C1 Vol.: 60
Chanel 2 Note Off - Duracao: 1800960 Nota: C1 Vol.: 60
Chanel 2 Note On - Duracao: 1800960 Nota: C1 Vol.: 72
Chanel 3 Note Off - Duracao: 1801380 Nota: C1 Vol.: 47
Chanel 3 Note On - Duracao: 1801380 Nota: C1 Vol.: 43
Chanel 2 Note Off - Duracao: 1801440 Nota: C1 Vol.: 72
Chanel 2 Note On - Duracao: 1801440 Nota: C1 Vol.: 70
Chanel 2 Note Off - Duracao: 1801920 Nota: C1 Vol.: 70
Chanel 2 Note On - Duracao: 1801920 Nota: C1 Vol.: 89
Chanel 2 Note Off - Duracao: 1802040 Nota: C1 Vol.: 89
Chanel 2 Note On - Duracao: 1802040 Nota: C1 Vol.: 96
Chanel 2 Note Off - Duracao: 1802160 Nota: C1 Vol.: 96
Chanel 2 Note On - Duracao: 1802160 Nota: C1 Vol.: 79
Chanel 2 Note Off - Duracao: 1802400 Nota: C1 Vol.: 79
Chanel 2 Note On - Duracao: 1802400 Nota: C1 Vol.: 64
Chanel 2 Note Off - Duracao: 1802880 Nota: C1 Vol.: 64
Chanel 2 Note On - Duracao: 1802880 Nota: C1 Vol.: 56
Chanel 2 Note Off - Duracao: 1803360 Nota: C1 Vol.: 56
Chanel 2 Note On - Duracao: 1803360 Nota: C1 Vol.: 55
Chanel 2 Note Off - Duracao: 1804320 Nota: C1 Vol.: 55
Chanel 2 Note On - Duracao: 1804320 Nota: C1 Vol.: 79
Chanel 2 Note Off - Duracao: 1804560 Nota: C1 Vol.: 79
Chanel 2 Note On - Duracao: 1804560 Nota: C1 Vol.: 54
Chanel 2 Note Off - Duracao: 1805040 Nota: C1 Vol.: 54
Chanel 2 Note On - Duracao: 1805040 Nota: C1 Vol.: 48
Chanel 3 Note Off - Duracao: 1805220 Nota: C1 Vol.: 43
Chanel 3 Note On - Duracao: 1805220 Nota: C1 Vol.: 40
Chanel 2 Note Off - Duracao: 1806000 Nota: C1 Vol.: 48
Chanel 2 Note On - Duracao: 1806000 Nota: C1 Vol.: 78
Chanel 2 Note Off - Duracao: 1806240 Nota: C1 Vol.: 78
Chanel 2 Note On - Duracao: 1806240 Nota: C1 Vol.: 93
Chanel 2 Note Off - Duracao: 1806300 Nota: C1 Vol.: 93
Chanel 2 Note On - Duracao: 1806300 Nota: C1 Vol.: 92
Chanel 2 Note Off - Duracao: 1806420 Nota: C1 Vol.: 92
Chanel 2 Note On - Duracao: 1806420 Nota: C1 Vol.: 54
Chanel 2 Note Off - Duracao: 1807380 Nota: C1 Vol.: 54
Chanel 2 Note On - Duracao: 1807380 Nota: C1 Vol.: 59
Chanel 2 Note Off - Duracao: 1808340 Nota: C1 Vol.: 59
Chanel 2 Note On - Duracao: 1808340 Nota: C1 Vol.: 50
Chanel 3 Note Off - Duracao: 1809060 Nota: C1 Vol.: 40
Chanel 3 Note On - Duracao: 1809060 Nota: C1 Vol.: 41
Chanel 2 Note Off - Duracao: 1809300 Nota: C1 Vol.: 50
Chanel 2 Note On - Duracao: 1809300 Nota: C1 Vol.: 69
Chanel 2 Note Off - Duracao: 1809780 Nota: C1 Vol.: 69
Chanel 2 Note On - Duracao: 1809780 Nota: C1 Vol.: 53
Chanel 2 Note Off - Duracao: 1811700 Nota: C1 Vol.: 53
Chanel 2 Note On - Duracao: 1811700 Nota: C1 Vol.: 65
Chanel 2 Note Off - Duracao: 1812660 Nota: C1 Vol.: 65
Chanel 2 Note On - Duracao: 1812660 Nota: C1 Vol.: 61
Chanel 3 Note Off - Duracao: 1812900 Nota: C1 Vol.: 41
Chanel 3 Note On - Duracao: 1812900 Nota: C1 Vol.: 40
Chanel 2 Note Off - Duracao: 1813620 Nota: C1 Vol.: 61
Chanel 2 Note On - Duracao: 1813620 Nota: C1 Vol.: 66
Chanel 2 Note Off - Duracao: 1814100 Nota: C1 Vol.: 66
Chanel 2 Note On - Duracao: 1814100 Nota: C1 Vol.: 40
Chanel 3 Note Off - Duracao: 1816740 Nota: C1 Vol.: 40
Chanel 3 Note On - Duracao: 1816740 Nota: C1 Vol.: 40
Chanel 2 Note Off - Duracao: 1817940 Nota: C1 Vol.: 40
Chanel 2 Note On - Duracao: 1817940 Nota: C1 Vol.: 40
Chanel 3 Note Off - Duracao: 1820580 Nota: C1 Vol.: 40
Chanel 3 Note On - Duracao: 1820580 Nota: C1 Vol.: 46
Chanel 2 Note Off - Duracao: 1821780 Nota: C1 Vol.: 40
Chanel 2 Note On - Duracao: 1821780 Nota: C1 Vol.: 40
Chanel 3 Note Off - Duracao: 1822500 Nota: C1 Vol.: 46
Chanel 3 Note On - Duracao: 1822500 Nota: C1 Vol.: 43
Chanel 2 Note Off - Duracao: 1825620 Nota: C1 Vol.: 40
Chanel 2 Note On - Duracao: 1825620 Nota: C1 Vol.: 45
Chanel 3 Note Off - Duracao: 1826340 Nota: C1 Vol.: 43
Chanel 3 Note On - Duracao: 1826340 Nota: C1 Vol.: 43
Chanel 2 Note Off - Duracao: 1827540 Nota: C1 Vol.: 45
Chanel 2 Note On - Duracao: 1827540 Nota: C1 Vol.: 43
Chanel 3 Note Off - Duracao: 1830180 Nota: C1 Vol.: 43
Chanel 3 Note On - Duracao: 1830180 Nota: C1 Vol.: 40
Chanel 2 Note Off - Duracao: 1831380 Nota: C1 Vol.: 43
Chanel 2 Note On - Duracao: 1831380 Nota: C1 Vol.: 43
Chanel 3 Note Off - Duracao: 1834020 Nota: C1 Vol.: 40
Chanel 3 Note On - Duracao: 1834020 Nota: C1 Vol.: 83
Chanel 3 Note Off - Duracao: 1834980 Nota: C1 Vol.: 83
Chanel 3 Note On - Duracao: 1834980 Nota: C1 Vol.: 67
Chanel 2 Note Off - Duracao: 1835220 Nota: C1 Vol.: 43
Chanel 2 Note On - Duracao: 1835220 Nota: C1 Vol.: 42
Chanel 3 Note Off - Duracao: 1836900 Nota: C1 Vol.: 67
Chanel 3 Note On - Duracao: 1836900 Nota: C1 Vol.: 59
Chanel 3 Note Off - Duracao: 1838820 Nota: C1 Vol.: 59
Chanel 3 Note On - Duracao: 1838820 Nota: C1 Vol.: 60
Chanel 2 Note Off - Duracao: 1839060 Nota: C1 Vol.: 42
Chanel 2 Note On - Duracao: 1839060 Nota: C1 Vol.: 41
Chanel 3 Note Off - Duracao: 1840740 Nota: C1 Vol.: 60
Chanel 3 Note On - Duracao: 1840740 Nota: C1 Vol.: 77
Chanel 3 Note Off - Duracao: 1841700 Nota: C1 Vol.: 77
Chanel 3 Note On - Duracao: 1841700 Nota: C1 Vol.: 72
Chanel 2 Note Off - Duracao: 1842900 Nota: C1 Vol.: 41
Chanel 2 Note On - Duracao: 1842900 Nota: C1 Vol.: 41
Chanel 3 Note Off - Duracao: 1843620 Nota: C1 Vol.: 72
Chanel 3 Note On - Duracao: 1843620 Nota: C1 Vol.: 79
Chanel 3 Note Off - Duracao: 1844580 Nota: C1 Vol.: 79
Chanel 3 Note On - Duracao: 1844580 Nota: C1 Vol.: 64
Chanel 3 Note Off - Duracao: 1846500 Nota: C1 Vol.: 64
Chanel 3 Note On - Duracao: 1846500 Nota: C1 Vol.: 54
Chanel 2 Note Off - Duracao: 1846740 Nota: C1 Vol.: 41
Chanel 2 Note On - Duracao: 1846740 Nota: C1 Vol.: 43
Chanel 3 Note Off - Duracao: 1850340 Nota: C1 Vol.: 54
Chanel 3 Note On - Duracao: 1850340 Nota: C1 Vol.: 60
Chanel 2 Note Off - Duracao: 1850580 Nota: C1 Vol.: 43
Chanel 2 Note On - Duracao: 1850580 Nota: C1 Vol.: 44
Chanel 3 Note Off - Duracao: 1852260 Nota: C1 Vol.: 60
Chanel 3 Note On - Duracao: 1852260 Nota: C1 Vol.: 83
Chanel 3 Note Off - Duracao: 1852740 Nota: C1 Vol.: 83
Chanel 3 Note On - Duracao: 1852740 Nota: C1 Vol.: 88
Chanel 3 Note Off - Duracao: 1852980 Nota: C1 Vol.: 88
Chanel 3 Note On - Duracao: 1852980 Nota: C1 Vol.: 82
Chanel 3 Note Off - Duracao: 1853460 Nota: C1 Vol.: 82
Chanel 3 Note On - Duracao: 1853460 Nota: C1 Vol.: 76
Chanel 2 Note Off - Duracao: 1854420 Nota: C1 Vol.: 44
Chanel 2 Note On - Duracao: 1854420 Nota: C1 Vol.: 44
Chanel 3 Note Off - Duracao: 1854420 Nota: C1 Vol.: 76
Chanel 3 Note On - Duracao: 1854420 Nota: C1 Vol.: 86
Chanel 3 Note Off - Duracao: 1854900 Nota: C1 Vol.: 86
Chanel 3 Note On - Duracao: 1854900 Nota: C1 Vol.: 87
Chanel 3 Note Off - Duracao: 1855380 Nota: C1 Vol.: 87
Chanel 3 Note On - Duracao: 1855380 Nota: C1 Vol.: 95
Chanel 3 Note Off - Duracao: 1855620 Nota: C1 Vol.: 95
Chanel 3 Note On - Duracao: 1855620 Nota: C1 Vol.: 85
Chanel 3 Note Off - Duracao: 1856100 Nota: C1 Vol.: 85
Chanel 3 Note On - Duracao: 1856100 Nota: C1 Vol.: 82
Chanel 3 Note Off - Duracao: 1857060 Nota: C1 Vol.: 82
Chanel 3 Note On - Duracao: 1857060 Nota: C1 Vol.: 81
Chanel 3 Note Off - Duracao: 1857540 Nota: C1 Vol.: 81
Chanel 3 Note On - Duracao: 1857540 Nota: C1 Vol.: 66
Chanel 3 Note Off - Duracao: 1858020 Nota: C1 Vol.: 66
Chanel 3 Note On - Duracao: 1858020 Nota: C1 Vol.: 55
Chanel 2 Note Off - Duracao: 1858260 Nota: C1 Vol.: 44
Chanel 2 Note On - Duracao: 1858260 Nota: C1 Vol.: 43
Chanel 3 Note Off - Duracao: 1858500 Nota: C1 Vol.: 55
Chanel 3 Note On - Duracao: 1858500 Nota: C1 Vol.: 50
Chanel 3 Note Off - Duracao: 1859460 Nota: C1 Vol.: 50
Chanel 3 Note On - Duracao: 1859460 Nota: C1 Vol.: 40
Chanel 2 Note Off - Duracao: 1862100 Nota: C1 Vol.: 43
Chanel 2 Note On - Duracao: 1862100 Nota: C1 Vol.: 44
Chanel 3 Note Off - Duracao: 1863300 Nota: C1 Vol.: 40
Chanel 3 Note On - Duracao: 1863300 Nota: C1 Vol.: 40
Chanel 2 Note Off - Duracao: 1865940 Nota: C1 Vol.: 44
Chanel 2 Note On - Duracao: 1865940 Nota: C1 Vol.: 43
Chanel 3 Note Off - Duracao: 1867140 Nota: C1 Vol.: 40
Chanel 3 Note On - Duracao: 1867140 Nota: C1 Vol.: 40
Chanel 2 Note Off - Duracao: 1869780 Nota: C1 Vol.: 43
Chanel 2 Note On - Duracao: 1869780 Nota: C1 Vol.: 61
Chanel 3 Note Off - Duracao: 1870980 Nota: C1 Vol.: 40
Chanel 3 Note On - Duracao: 1870980 Nota: C1 Vol.: 40
Chanel 2 Note Off - Duracao: 1871700 Nota: C1 Vol.: 61
Chanel 2 Note On - Duracao: 1871700 Nota: C1 Vol.: 61
Chanel 3 Note Off - Duracao: 1872900 Nota: C1 Vol.: 40
Chanel 3 Note On - Duracao: 1872900 Nota: C1 Vol.: 41
Chanel 2 Note Off - Duracao: 1873620 Nota: C1 Vol.: 61
Chanel 2 Note On - Duracao: 1873620 Nota: C1 Vol.: 60
Chanel 3 Note Off - Duracao: 1874820 Nota: C1 Vol.: 41
Chanel 3 Note On - Duracao: 1874820 Nota: C1 Vol.: 43
Chanel 2 Note Off - Duracao: 1875540 Nota: C1 Vol.: 60
Chanel 2 Note On - Duracao: 1875540 Nota: C1 Vol.: 54
Chanel 3 Note Off - Duracao: 1876740 Nota: C1 Vol.: 43
Chanel 3 Note On - Duracao: 1876740 Nota: C1 Vol.: 40
Chanel 3 Note Off - Duracao: 1878660 Nota: C1 Vol.: 40
Chanel 3 Note On - Duracao: 1878660 Nota: C1 Vol.: 40
Chanel 2 Note Off - Duracao: 1879380 Nota: C1 Vol.: 54
Chanel 2 Note On - Duracao: 1879380 Nota: C1 Vol.: 48
Chanel 3 Note Off - Duracao: 1882500 Nota: C1 Vol.: 40
Chanel 3 Note On - Duracao: 1882500 Nota: C1 Vol.: 40
Chanel 2 Note Off - Duracao: 1883220 Nota: C1 Vol.: 48
Chanel 2 Note On - Duracao: 1883220 Nota: C1 Vol.: 49
Chanel 3 Note Off - Duracao: 1884420 Nota: C1 Vol.: 40
Chanel 3 Note On - Duracao: 1884420 Nota: C1 Vol.: 49
Chanel 3 Note Off - Duracao: 1884900 Nota: C1 Vol.: 49
Chanel 3 Note On - Duracao: 1884900 Nota: C1 Vol.: 45
Chanel 2 Note Off - Duracao: 1885140 Nota: C1 Vol.: 49
Chanel 2 Note On - Duracao: 1885140 Nota: C1 Vol.: 52
Chanel 3 Note Off - Duracao: 1885860 Nota: C1 Vol.: 45
Chanel 3 Note On - Duracao: 1885860 Nota: C1 Vol.: 40
Chanel 2 Note Off - Duracao: 1887060 Nota: C1 Vol.: 52
Chanel 2 Note On - Duracao: 1887060 Nota: C1 Vol.: 56
Chanel 2 Note Off - Duracao: 1888980 Nota: C1 Vol.: 56
Chanel 2 Note On - Duracao: 1888980 Nota: C1 Vol.: 85
Chanel 2 Note Off - Duracao: 1889460 Nota: C1 Vol.: 85
Chanel 2 Note On - Duracao: 1889460 Nota: C1 Vol.: 93
Chanel 2 Note Off - Duracao: 1889700 Nota: C1 Vol.: 93
Chanel 2 Note On - Duracao: 1889700 Nota: C1 Vol.: 96
Chanel 3 Note Off - Duracao: 1889700 Nota: C1 Vol.: 40
Chanel 3 Note On - Duracao: 1889700 Nota: C1 Vol.: 48
Chanel 2 Note Off - Duracao: 1889940 Nota: C1 Vol.: 96
Chanel 2 Note On - Duracao: 1889940 Nota: C1 Vol.: 78
Chanel 2 Note Off - Duracao: 1890900 Nota: C1 Vol.: 78
Chanel 2 Note On - Duracao: 1890900 Nota: C1 Vol.: 58
Chanel 3 Note Off - Duracao: 1891620 Nota: C1 Vol.: 48
Chanel 3 Note On - Duracao: 1891620 Nota: C1 Vol.: 56
Chanel 2 Note Off - Duracao: 1892820 Nota: C1 Vol.: 58
Chanel 2 Note On - Duracao: 1892820 Nota: C1 Vol.: 70
Chanel 2 Note Off - Duracao: 1893300 Nota: C1 Vol.: 70
Chanel 2 Note On - Duracao: 1893300 Nota: C1 Vol.: 82
Chanel 2 Note Off - Duracao: 1893540 Nota: C1 Vol.: 82
Chanel 2 Note On - Duracao: 1893540 Nota: C1 Vol.: 90
Chanel 3 Note Off - Duracao: 1893540 Nota: C1 Vol.: 56
Chanel 3 Note On - Duracao: 1893540 Nota: C1 Vol.: 67
Chanel 2 Note Off - Duracao: 1893660 Nota: C1 Vol.: 90
Chanel 2 Note On - Duracao: 1893660 Nota: C1 Vol.: 92
Chanel 2 Note Off - Duracao: 1893780 Nota: C1 Vol.: 92
Chanel 2 Note On - Duracao: 1893780 Nota: C1 Vol.: 89
Chanel 2 Note Off - Duracao: 1893900 Nota: C1 Vol.: 89
Chanel 2 Note On - Duracao: 1893900 Nota: C1 Vol.: 55
Chanel 2 Note Off - Duracao: 1894860 Nota: C1 Vol.: 55
Chanel 2 Note On - Duracao: 1894860 Nota: C1 Vol.: 55
Chanel 2 Note Off - Duracao: 1895340 Nota: C1 Vol.: 55
Chanel 2 Note On - Duracao: 1895340 Nota: C1 Vol.: 71
Chanel 3 Note Off - Duracao: 1895460 Nota: C1 Vol.: 67
Chanel 3 Note On - Duracao: 1895460 Nota: C1 Vol.: 78
Chanel 2 Note Off - Duracao: 1895580 Nota: C1 Vol.: 71
Chanel 2 Note On - Duracao: 1895580 Nota: C1 Vol.: 88
Chanel 2 Note Off - Duracao: 1895700 Nota: C1 Vol.: 88
Chanel 2 Note On - Duracao: 1895700 Nota: C1 Vol.: 62
Chanel 2 Note Off - Duracao: 1896180 Nota: C1 Vol.: 62
Chanel 2 Note On - Duracao: 1896180 Nota: C1 Vol.: 49
Chanel 3 Note Off - Duracao: 1896420 Nota: C1 Vol.: 78
Chanel 3 Note On - Duracao: 1896420 Nota: C1 Vol.: 81
Chanel 3 Note Off - Duracao: 1896900 Nota: C1 Vol.: 81
Chanel 3 Note On - Duracao: 1896900 Nota: C1 Vol.: 58
Chanel 2 Note Off - Duracao: 1897140 Nota: C1 Vol.: 49
Chanel 2 Note On - Duracao: 1897140 Nota: C1 Vol.: 86
Chanel 2 Note Off - Duracao: 1897260 Nota: C1 Vol.: 86
Chanel 2 Note On - Duracao: 1897260 Nota: C1 Vol.: 89
Chanel 2 Note Off - Duracao: 1897380 Nota: C1 Vol.: 89
Chanel 2 Note On - Duracao: 1897380 Nota: C1 Vol.: 80
Chanel 2 Note Off - Duracao: 1897860 Nota: C1 Vol.: 80
Chanel 2 Note On - Duracao: 1897860 Nota: C1 Vol.: 77
Chanel 2 Note Off - Duracao: 1898340 Nota: C1 Vol.: 77
Chanel 2 Note On - Duracao: 1898340 Nota: C1 Vol.: 79
Chanel 2 Note Off - Duracao: 1898580 Nota: C1 Vol.: 79
Chanel 2 Note On - Duracao: 1898580 Nota: C1 Vol.: 64
Chanel 3 Note Off - Duracao: 1898820 Nota: C1 Vol.: 58
Chanel 3 Note On - Duracao: 1898820 Nota: C1 Vol.: 47
Chanel 2 Note Off - Duracao: 1899060 Nota: C1 Vol.: 64
Chanel 2 Note On - Duracao: 1899060 Nota: C1 Vol.: 60
Chanel 2 Note Off - Duracao: 1900980 Nota: C1 Vol.: 60
Chanel 2 Note On - Duracao: 1900980 Nota: C1 Vol.: 66
Chanel 3 Note Off - Duracao: 1902660 Nota: C1 Vol.: 47
Chanel 3 Note On - Duracao: 1902660 Nota: C1 Vol.: 40
Chanel 2 Note Off - Duracao: 1902900 Nota: C1 Vol.: 66
Chanel 2 Note On - Duracao: 1902900 Nota: C1 Vol.: 47
Chanel 3 Note Off - Duracao: 1906500 Nota: C1 Vol.: 40
Chanel 3 Note On - Duracao: 1906500 Nota: C1 Vol.: 40
Chanel 2 Note Off - Duracao: 1906740 Nota: C1 Vol.: 47
Chanel 2 Note On - Duracao: 1906740 Nota: C1 Vol.: 61
Chanel 2 Note Off - Duracao: 1907700 Nota: C1 Vol.: 61
Chanel 2 Note On - Duracao: 1907700 Nota: C1 Vol.: 53
Chanel 2 Note Off - Duracao: 1909620 Nota: C1 Vol.: 53
Chanel 2 Note On - Duracao: 1909620 Nota: C1 Vol.: 46
Chanel 3 Note Off - Duracao: 1910340 Nota: C1 Vol.: 40
Chanel 3 Note On - Duracao: 1910340 Nota: C1 Vol.: 40
Chanel 2 Note Off - Duracao: 1913460 Nota: C1 Vol.: 46
Chanel 2 Note On - Duracao: 1913460 Nota: C1 Vol.: 44
Chanel 3 Note Off - Duracao: 1914180 Nota: C1 Vol.: 40
Chanel 3 Note On - Duracao: 1914180 Nota: C1 Vol.: 40
Chanel 2 Note Off - Duracao: 1917300 Nota: C1 Vol.: 44
Chanel 2 Note On - Duracao: 1917300 Nota: C1 Vol.: 42
Chanel 3 Note Off - Duracao: 1918020 Nota: C1 Vol.: 40
Chanel 3 Note On - Duracao: 1918020 Nota: C1 Vol.: 42
Chanel 3 Note Off - Duracao: 1919940 Nota: C1 Vol.: 42
Chanel 3 Note On - Duracao: 1919940 Nota: C1 Vol.: 48
Chanel 2 Note Off - Duracao: 1921140 Nota: C1 Vol.: 42
Chanel 2 Note On - Duracao: 1921140 Nota: C1 Vol.: 40
Chanel 3 Note Off - Duracao: 1921860 Nota: C1 Vol.: 48
Chanel 3 Note On - Duracao: 1921860 Nota: C1 Vol.: 45
Chanel 3 Note Off - Duracao: 1923780 Nota: C1 Vol.: 45
Chanel 3 Note On - Duracao: 1923780 Nota: C1 Vol.: 43
Chanel 2 Note Off - Duracao: 1924980 Nota: C1 Vol.: 40
Chanel 2 Note On - Duracao: 1924980 Nota: C1 Vol.: 44
Chanel 3 Note Off - Duracao: 1925700 Nota: C1 Vol.: 43
Chanel 3 Note On - Duracao: 1925700 Nota: C1 Vol.: 95
Chanel 3 Note Off - Duracao: 1925940 Nota: C1 Vol.: 95
Chanel 3 Note On - Duracao: 1925940 Nota: C1 Vol.: 71
Chanel 3 Note Off - Duracao: 1926900 Nota: C1 Vol.: 71
Chanel 3 Note On - Duracao: 1926900 Nota: C1 Vol.: 64
Chanel 2 Note Off - Duracao: 1928820 Nota: C1 Vol.: 44
Chanel 2 Note On - Duracao: 1928820 Nota: C1 Vol.: 45
Chanel 3 Note Off - Duracao: 1928820 Nota: C1 Vol.: 64
Chanel 3 Note On - Duracao: 1928820 Nota: C1 Vol.: 84
Chanel 3 Note Off - Duracao: 1929300 Nota: C1 Vol.: 84
Chanel 3 Note On - Duracao: 1929300 Nota: C1 Vol.: 100
Chanel 3 Note Off - Duracao: 1929540 Nota: C1 Vol.: 100
Chanel 3 Note On - Duracao: 1929540 Nota: C1 Vol.: 88
Chanel 3 Note Off - Duracao: 1930020 Nota: C1 Vol.: 88
Chanel 3 Note On - Duracao: 1930020 Nota: C1 Vol.: 74
Chanel 3 Note Off - Duracao: 1931940 Nota: C1 Vol.: 74
Chanel 3 Note On - Duracao: 1931940 Nota: C1 Vol.: 81
Chanel 2 Note Off - Duracao: 1932660 Nota: C1 Vol.: 45
Chanel 2 Note On - Duracao: 1932660 Nota: C1 Vol.: 45
Chanel 3 Note Off - Duracao: 1932900 Nota: C1 Vol.: 81
Chanel 3 Note On - Duracao: 1932900 Nota: C1 Vol.: 56
Chanel 3 Note Off - Duracao: 1934820 Nota: C1 Vol.: 56
Chanel 3 Note On - Duracao: 1934820 Nota: C1 Vol.: 58
Chanel 2 Note Off - Duracao: 1936500 Nota: C1 Vol.: 45
Chanel 2 Note On - Duracao: 1936500 Nota: C1 Vol.: 43
Chanel 3 Note Off - Duracao: 1936740 Nota: C1 Vol.: 58
Chanel 3 Note On - Duracao: 1936740 Nota: C1 Vol.: 61
Chanel 3 Note Off - Duracao: 1938660 Nota: C1 Vol.: 61
Chanel 3 Note On - Duracao: 1938660 Nota: C1 Vol.: 52
Chanel 2 Note Off - Duracao: 1940340 Nota: C1 Vol.: 43
Chanel 2 Note On - Duracao: 1940340 Nota: C1 Vol.: 41
Chanel 3 Note Off - Duracao: 1942500 Nota: C1 Vol.: 52
Chanel 3 Note On - Duracao: 1942500 Nota: C1 Vol.: 50
Chanel 2 Note Off - Duracao: 1944180 Nota: C1 Vol.: 41
Chanel 2 Note On - Duracao: 1944180 Nota: C1 Vol.: 42
Chanel 3 Note Off - Duracao: 1946340 Nota: C1 Vol.: 50
Chanel 3 Note On - Duracao: 1946340 Nota: C1 Vol.: 76
Chanel 3 Note Off - Duracao: 1947300 Nota: C1 Vol.: 76
Chanel 3 Note On - Duracao: 1947300 Nota: C1 Vol.: 100
Chanel 3 Note Off - Duracao: 1947540 Nota: C1 Vol.: 100
Chanel 3 Note On - Duracao: 1947540 Nota: C1 Vol.: 85
Chanel 2 Note Off - Duracao: 1948020 Nota: C1 Vol.: 42
Chanel 2 Note On - Duracao: 1948020 Nota: C1 Vol.: 42
Chanel 3 Note Off - Duracao: 1948020 Nota: C1 Vol.: 85
Chanel 3 Note On - Duracao: 1948020 Nota: C1 Vol.: 93
Chanel 3 Note Off - Duracao: 1948260 Nota: C1 Vol.: 93
Chanel 3 Note On - Duracao: 1948260 Nota: C1 Vol.: 100
Chanel 3 Note Off - Duracao: 1948380 Nota: C1 Vol.: 100
Chanel 3 Note On - Duracao: 1948380 Nota: C1 Vol.: 97
Chanel 3 Note Off - Duracao: 1948620 Nota: C1 Vol.: 97
Chanel 3 Note On - Duracao: 1948620 Nota: C1 Vol.: 77
Chanel 3 Note Off - Duracao: 1949580 Nota: C1 Vol.: 77
Chanel 3 Note On - Duracao: 1949580 Nota: C1 Vol.: 61
Chanel 3 Note Off - Duracao: 1950060 Nota: C1 Vol.: 61
Chanel 3 Note On - Duracao: 1950060 Nota: C1 Vol.: 50
Chanel 3 Note Off - Duracao: 1951020 Nota: C1 Vol.: 50
Chanel 3 Note On - Duracao: 1951020 Nota: C1 Vol.: 43
Chanel 2 Note Off - Duracao: 1951860 Nota: C1 Vol.: 42
Chanel 2 Note On - Duracao: 1951860 Nota: C1 Vol.: 42
Chanel 3 Note Off - Duracao: 1952940 Nota: C1 Vol.: 43
Chanel 3 Note On - Duracao: 1952940 Nota: C1 Vol.: 40
Chanel 2 Note Off - Duracao: 1955700 Nota: C1 Vol.: 42
Chanel 2 Note On - Duracao: 1955700 Nota: C1 Vol.: 43
Chanel 3 Note Off - Duracao: 1956780 Nota: C1 Vol.: 40
Chanel 3 Note On - Duracao: 1956780 Nota: C1 Vol.: 40
Chanel 2 Note Off - Duracao: 1959540 Nota: C1 Vol.: 43
Chanel 2 Note On - Duracao: 1959540 Nota: C1 Vol.: 43
Chanel 3 Note Off - Duracao: 1960620 Nota: C1 Vol.: 40
Chanel 3 Note On - Duracao: 1960620 Nota: C1 Vol.: 40
Chanel 3 Note Off - Duracao: 1962540 Nota: C1 Vol.: 40
Chanel 3 Note On - Duracao: 1962540 Nota: C1 Vol.: 40
Chanel 2 Note Off - Duracao: 1963380 Nota: C1 Vol.: 43
Chanel 2 Note On - Duracao: 1963380 Nota: C1 Vol.: 43
Chanel 3 Note Off - Duracao: 1964460 Nota: C1 Vol.: 40
Chanel 3 Note On - Duracao: 1964460 Nota: C1 Vol.: 40
Chanel 2 Note Off - Duracao: 1967220 Nota: C1 Vol.: 43
Chanel 2 Note On - Duracao: 1967220 Nota: C1 Vol.: 61
Chanel 3 Note Off - Duracao: 1968300 Nota: C1 Vol.: 40
Chanel 3 Note On - Duracao: 1968300 Nota: C1 Vol.: 52
Chanel 2 Note Off - Duracao: 1969140 Nota: C1 Vol.: 61
Chanel 2 Note On - Duracao: 1969140 Nota: C1 Vol.: 59
Chanel 3 Note Off - Duracao: 1969260 Nota: C1 Vol.: 52
Chanel 3 Note On - Duracao: 1969260 Nota: C1 Vol.: 40
Chanel 2 Note Off - Duracao: 1971060 Nota: C1 Vol.: 59
Chanel 2 Note On - Duracao: 1971060 Nota: C1 Vol.: 59
Chanel 3 Note Off - Duracao: 1971180 Nota: C1 Vol.: 40
Chanel 3 Note On - Duracao: 1971180 Nota: C1 Vol.: 42
Chanel 3 Note Off - Duracao: 1973100 Nota: C1 Vol.: 42
Chanel 3 Note On - Duracao: 1973100 Nota: C1 Vol.: 41
Chanel 3 Note Off - Duracao: 1974060 Nota: C1 Vol.: 41
Chanel 3 Note On - Duracao: 1974060 Nota: C1 Vol.: 45
Chanel 2 Note Off - Duracao: 1974900 Nota: C1 Vol.: 59
Chanel 2 Note On - Duracao: 1974900 Nota: C1 Vol.: 59
Chanel 3 Note Off - Duracao: 1975020 Nota: C1 Vol.: 45
Chanel 3 Note On - Duracao: 1975020 Nota: C1 Vol.: 45
Chanel 3 Note Off - Duracao: 1975500 Nota: C1 Vol.: 45
Chanel 3 Note On - Duracao: 1975500 Nota: C1 Vol.: 43
Chanel 3 Note Off - Duracao: 1976460 Nota: C1 Vol.: 43
Chanel 3 Note On - Duracao: 1976460 Nota: C1 Vol.: 75
Chanel 3 Note Off - Duracao: 1976700 Nota: C1 Vol.: 75
Chanel 3 Note On - Duracao: 1976700 Nota: C1 Vol.: 77
Chanel 2 Note Off - Duracao: 1976820 Nota: C1 Vol.: 59
Chanel 2 Note On - Duracao: 1976820 Nota: C1 Vol.: 53
Chanel 3 Note Off - Duracao: 1977180 Nota: C1 Vol.: 77
Chanel 3 Note On - Duracao: 1977180 Nota: C1 Vol.: 70
Chanel 3 Note Off - Duracao: 1978140 Nota: C1 Vol.: 70
Chanel 3 Note On - Duracao: 1978140 Nota: C1 Vol.: 63
Chanel 2 Note Off - Duracao: 1978740 Nota: C1 Vol.: 53
Chanel 2 Note On - Duracao: 1978740 Nota: C1 Vol.: 49
Chanel 3 Note Off - Duracao: 1980060 Nota: C1 Vol.: 63
Chanel 3 Note On - Duracao: 1980060 Nota: C1 Vol.: 80
Chanel 2 Note Off - Duracao: 1980660 Nota: C1 Vol.: 49
Chanel 2 Note On - Duracao: 1980660 Nota: C1 Vol.: 49
Chanel 3 Note Off - Duracao: 1981020 Nota: C1 Vol.: 80
Chanel 3 Note On - Duracao: 1981020 Nota: C1 Vol.: 82
Chanel 3 Note Off - Duracao: 1981500 Nota: C1 Vol.: 82
Chanel 3 Note On - Duracao: 1981500 Nota: C1 Vol.: 47
Chanel 2 Note Off - Duracao: 1984500 Nota: C1 Vol.: 49
Chanel 2 Note On - Duracao: 1984500 Nota: C1 Vol.: 55
Chanel 3 Note Off - Duracao: 1985340 Nota: C1 Vol.: 47
Chanel 3 Note On - Duracao: 1985340 Nota: C1 Vol.: 43
Chanel 2 Note Off - Duracao: 1986420 Nota: C1 Vol.: 55
Chanel 2 Note On - Duracao: 1986420 Nota: C1 Vol.: 70
Chanel 2 Note Off - Duracao: 1987380 Nota: C1 Vol.: 70
Chanel 2 Note On - Duracao: 1987380 Nota: C1 Vol.: 86
Chanel 2 Note Off - Duracao: 1987860 Nota: C1 Vol.: 86
Chanel 2 Note On - Duracao: 1987860 Nota: C1 Vol.: 94
Chanel 2 Note Off - Duracao: 1988100 Nota: C1 Vol.: 94
Chanel 2 Note On - Duracao: 1988100 Nota: C1 Vol.: 96
Chanel 2 Note Off - Duracao: 1988340 Nota: C1 Vol.: 96
Chanel 2 Note On - Duracao: 1988340 Nota: C1 Vol.: 70
Chanel 3 Note Off - Duracao: 1989180 Nota: C1 Vol.: 43
Chanel 3 Note On - Duracao: 1989180 Nota: C1 Vol.: 42
Chanel 2 Note Off - Duracao: 1989300 Nota: C1 Vol.: 70
Chanel 2 Note On - Duracao: 1989300 Nota: C1 Vol.: 50
Chanel 2 Note Off - Duracao: 1991220 Nota: C1 Vol.: 50
Chanel 2 Note On - Duracao: 1991220 Nota: C1 Vol.: 51
Chanel 3 Note Off - Duracao: 1993020 Nota: C1 Vol.: 42
Chanel 3 Note On - Duracao: 1993020 Nota: C1 Vol.: 40
Chanel 2 Note Off - Duracao: 1993140 Nota: C1 Vol.: 51
Chanel 2 Note On - Duracao: 1993140 Nota: C1 Vol.: 54
Chanel 2 Note Off - Duracao: 1995060 Nota: C1 Vol.: 54
Chanel 2 Note On - Duracao: 1995060 Nota: C1 Vol.: 58
Chanel 2 Note Off - Duracao: 1996020 Nota: C1 Vol.: 58
Chanel 2 Note On - Duracao: 1996020 Nota: C1 Vol.: 58
Chanel 3 Note Off - Duracao: 1996860 Nota: C1 Vol.: 40
Chanel 3 Note On - Duracao: 1996860 Nota: C1 Vol.: 42
Chanel 2 Note Off - Duracao: 1996980 Nota: C1 Vol.: 58
Chanel 2 Note On - Duracao: 1996980 Nota: C1 Vol.: 49
Chanel 2 Note Off - Duracao: 1997940 Nota: C1 Vol.: 49
Chanel 2 Note On - Duracao: 1997940 Nota: C1 Vol.: 76
Chanel 2 Note Off - Duracao: 1998060 Nota: C1 Vol.: 76
Chanel 2 Note On - Duracao: 1998060 Nota: C1 Vol.: 70
Chanel 2 Note Off - Duracao: 1998540 Nota: C1 Vol.: 70
Chanel 2 Note On - Duracao: 1998540 Nota: C1 Vol.: 71
Chanel 3 Note Off - Duracao: 1998780 Nota: C1 Vol.: 42
Chanel 3 Note On - Duracao: 1998780 Nota: C1 Vol.: 40
Chanel 2 Note Off - Duracao: 1999020 Nota: C1 Vol.: 71
Chanel 2 Note On - Duracao: 1999020 Nota: C1 Vol.: 58
Chanel 2 Note Off - Duracao: 1999980 Nota: C1 Vol.: 58
Chanel 2 Note On - Duracao: 1999980 Nota: C1 Vol.: 55
Chanel 2 Note Off - Duracao: 2000940 Nota: C1 Vol.: 55
Chanel 2 Note On - Duracao: 2000940 Nota: C1 Vol.: 80
Chanel 2 Note Off - Duracao: 2001180 Nota: C1 Vol.: 80
Chanel 2 Note On - Duracao: 2001180 Nota: C1 Vol.: 61
Chanel 3 Note Off - Duracao: 2002620 Nota: C1 Vol.: 40
Chanel 3 Note On - Duracao: 2002620 Nota: C1 Vol.: 40
Chanel 2 Note Off - Duracao: 2003100 Nota: C1 Vol.: 61
Chanel 2 Note On - Duracao: 2003100 Nota: C1 Vol.: 62
Chanel 2 Note Off - Duracao: 2005020 Nota: C1 Vol.: 62
Chanel 2 Note On - Duracao: 2005020 Nota: C1 Vol.: 74
Chanel 2 Note Off - Duracao: 2005980 Nota: C1 Vol.: 74
Chanel 2 Note On - Duracao: 2005980 Nota: C1 Vol.: 74
Chanel 2 Note Off - Duracao: 2006220 Nota: C1 Vol.: 74
Chanel 2 Note On - Duracao: 2006220 Nota: C1 Vol.: 66
Chanel 3 Note Off - Duracao: 2006460 Nota: C1 Vol.: 40
Chanel 3 Note On - Duracao: 2006460 Nota: C1 Vol.: 40
Chanel 2 Note Off - Duracao: 2006700 Nota: C1 Vol.: 66
Chanel 2 Note On - Duracao: 2006700 Nota: C1 Vol.: 66
Chanel 2 Note Off - Duracao: 2007660 Nota: C1 Vol.: 66
Chanel 2 Note On - Duracao: 2007660 Nota: C1 Vol.: 80
Chanel 2 Note Off - Duracao: 2008140 Nota: C1 Vol.: 80
Chanel 2 Note On - Duracao: 2008140 Nota: C1 Vol.: 52
Chanel 3 Note Off - Duracao: 2010300 Nota: C1 Vol.: 40
Chanel 3 Note On - Duracao: 2010300 Nota: C1 Vol.: 40
Chanel 2 Note Off - Duracao: 2011980 Nota: C1 Vol.: 52
Chanel 2 Note On - Duracao: 2011980 Nota: C1 Vol.: 49
Chanel 3 Note Off - Duracao: 2014140 Nota: C1 Vol.: 40
Chanel 3 Note On - Duracao: 2014140 Nota: C1 Vol.: 65
Chanel 2 Note Off - Duracao: 2015820 Nota: C1 Vol.: 49
Chanel 2 Note On - Duracao: 2015820 Nota: C1 Vol.: 47
Chanel 3 Note Off - Duracao: 2016060 Nota: C1 Vol.: 65
Chanel 3 Note On - Duracao: 2016060 Nota: C1 Vol.: 59
Chanel 3 Note Off - Duracao: 2017980 Nota: C1 Vol.: 59
Chanel 3 Note On - Duracao: 2017980 Nota: C1 Vol.: 77
Chanel 3 Note Off - Duracao: 2018940 Nota: C1 Vol.: 77
Chanel 3 Note On - Duracao: 2018940 Nota: C1 Vol.: 72
Chanel 2 Note Off - Duracao: 2019660 Nota: C1 Vol.: 47
Chanel 2 Note On - Duracao: 2019660 Nota: C1 Vol.: 45
Chanel 3 Note Off - Duracao: 2020860 Nota: C1 Vol.: 72
Chanel 3 Note On - Duracao: 2020860 Nota: C1 Vol.: 91
Chanel 3 Note Off - Duracao: 2021340 Nota: C1 Vol.: 91
Chanel 3 Note On - Duracao: 2021340 Nota: C1 Vol.: 86
Chanel 3 Note Off - Duracao: 2022300 Nota: C1 Vol.: 86
Chanel 3 Note On - Duracao: 2022300 Nota: C1 Vol.: 67
Chanel 2 Note Off - Duracao: 2023500 Nota: C1 Vol.: 45
Chanel 2 Note On - Duracao: 2023500 Nota: C1 Vol.: 45
Chanel 3 Note Off - Duracao: 2024220 Nota: C1 Vol.: 67
Chanel 3 Note On - Duracao: 2024220 Nota: C1 Vol.: 64
Chanel 3 Note Off - Duracao: 2026140 Nota: C1 Vol.: 64
Chanel 3 Note On - Duracao: 2026140 Nota: C1 Vol.: 54
Chanel 2 Note Off - Duracao: 2027340 Nota: C1 Vol.: 45
Chanel 2 Note On - Duracao: 2027340 Nota: C1 Vol.: 44
Chanel 3 Note Off - Duracao: 2029980 Nota: C1 Vol.: 54
Chanel 3 Note On - Duracao: 2029980 Nota: C1 Vol.: 54
Chanel 2 Note Off - Duracao: 2031180 Nota: C1 Vol.: 44
Chanel 2 Note On - Duracao: 2031180 Nota: C1 Vol.: 45
Chanel 3 Note Off - Duracao: 2031900 Nota: C1 Vol.: 54
Chanel 3 Note On - Duracao: 2031900 Nota: C1 Vol.: 63
Chanel 3 Note Off - Duracao: 2033820 Nota: C1 Vol.: 63
Chanel 3 Note On - Duracao: 2033820 Nota: C1 Vol.: 60
Chanel 2 Note Off - Duracao: 2035020 Nota: C1 Vol.: 45
Chanel 2 Note On - Duracao: 2035020 Nota: C1 Vol.: 41
Chanel 3 Note Off - Duracao: 2035740 Nota: C1 Vol.: 60
Chanel 3 Note On - Duracao: 2035740 Nota: C1 Vol.: 50
Chanel 2 Note Off - Duracao: 2038860 Nota: C1 Vol.: 41
Chanel 2 Note On - Duracao: 2038860 Nota: C1 Vol.: 43
Chanel 3 Note Off - Duracao: 2039580 Nota: C1 Vol.: 50
Chanel 3 Note On - Duracao: 2039580 Nota: C1 Vol.: 63
Chanel 3 Note Off - Duracao: 2041500 Nota: C1 Vol.: 63
Chanel 3 Note On - Duracao: 2041500 Nota: C1 Vol.: 75
Chanel 3 Note Off - Duracao: 2042460 Nota: C1 Vol.: 75
Chanel 3 Note On - Duracao: 2042460 Nota: C1 Vol.: 75
Chanel 2 Note Off - Duracao: 2042700 Nota: C1 Vol.: 43
Chanel 2 Note On - Duracao: 2042700 Nota: C1 Vol.: 44
Chanel 3 Note Off - Duracao: 2043420 Nota: C1 Vol.: 75
Chanel 3 Note On - Duracao: 2043420 Nota: C1 Vol.: 82
Chanel 3 Note Off - Duracao: 2044380 Nota: C1 Vol.: 82
Chanel 3 Note On - Duracao: 2044380 Nota: C1 Vol.: 98
Chanel 3 Note Off - Duracao: 2044620 Nota: C1 Vol.: 98
Chanel 3 Note On - Duracao: 2044620 Nota: C1 Vol.: 100
Chanel 3 Note Off - Duracao: 2044860 Nota: C1 Vol.: 100
Chanel 3 Note On - Duracao: 2044860 Nota: C1 Vol.: 82
Chanel 3 Note Off - Duracao: 2045340 Nota: C1 Vol.: 82
Chanel 3 Note On - Duracao: 2045340 Nota: C1 Vol.: 60
Chanel 3 Note Off - Duracao: 2046300 Nota: C1 Vol.: 60
Chanel 3 Note On - Duracao: 2046300 Nota: C1 Vol.: 52
Chanel 2 Note Off - Duracao: 2046540 Nota: C1 Vol.: 44
Chanel 2 Note On - Duracao: 2046540 Nota: C1 Vol.: 45
Chanel 3 Note Off - Duracao: 2047260 Nota: C1 Vol.: 52
Chanel 3 Note On - Duracao: 2047260 Nota: C1 Vol.: 48
Chanel 3 Note Off - Duracao: 2049180 Nota: C1 Vol.: 48
Chanel 3 Note On - Duracao: 2049180 Nota: C1 Vol.: 40
Chanel 2 Note Off - Duracao: 2050380 Nota: C1 Vol.: 45
Chanel 2 Note On - Duracao: 2050380 Nota: C1 Vol.: 46
Chanel 3 Note Off - Duracao: 2053020 Nota: C1 Vol.: 40
Chanel 3 Note On - Duracao: 2053020 Nota: C1 Vol.: 45
Chanel 2 Note Off - Duracao: 2054220 Nota: C1 Vol.: 46
Chanel 2 Note On - Duracao: 2054220 Nota: C1 Vol.: 44
Chanel 3 Note Off - Duracao: 2054940 Nota: C1 Vol.: 45
Chanel 3 Note On - Duracao: 2054940 Nota: C1 Vol.: 40
Chanel 2 Note Off - Duracao: 2058060 Nota: C1 Vol.: 44
Chanel 2 Note On - Duracao: 2058060 Nota: C1 Vol.: 43
Chanel 3 Note Off - Duracao: 2058780 Nota: C1 Vol.: 40
Chanel 3 Note On - Duracao: 2058780 Nota: C1 Vol.: 45
Chanel 3 Note Off - Duracao: 2059740 Nota: C1 Vol.: 45
Chanel 3 Note On - Duracao: 2059740 Nota: C1 Vol.: 42
Chanel 3 Note Off - Duracao: 2060700 Nota: C1 Vol.: 42
Chanel 3 Note On - Duracao: 2060700 Nota: C1 Vol.: 46
Chanel 3 Note Off - Duracao: 2061660 Nota: C1 Vol.: 46
Chanel 3 Note On - Duracao: 2061660 Nota: C1 Vol.: 55
Chanel 2 Note Off - Duracao: 2061900 Nota: C1 Vol.: 43
Chanel 2 Note On - Duracao: 2061900 Nota: C1 Vol.: 43
Chanel 3 Note Off - Duracao: 2062140 Nota: C1 Vol.: 55
Chanel 3 Note On - Duracao: 2062140 Nota: C1 Vol.: 57
Chanel 3 Note Off - Duracao: 2062380 Nota: C1 Vol.: 57
Chanel 3 Note On - Duracao: 2062380 Nota: C1 Vol.: 40
Chanel 3 Note Off - Duracao: 2064300 Nota: C1 Vol.: 40
Chanel 3 Note On - Duracao: 2064300 Nota: C1 Vol.: 40
Chanel 3 Note Off - Duracao: 2065260 Nota: C1 Vol.: 40
Chanel 3 Note On - Duracao: 2065260 Nota: C1 Vol.: 48
Chanel 2 Note Off - Duracao: 2065740 Nota: C1 Vol.: 43
Chanel 2 Note On - Duracao: 2065740 Nota: C1 Vol.: 41
Chanel 3 Note Off - Duracao: 2066220 Nota: C1 Vol.: 48
Chanel 3 Note On - Duracao: 2066220 Nota: C1 Vol.: 40
Chanel 3 Note Off - Duracao: 2067180 Nota: C1 Vol.: 40
Chanel 3 Note On - Duracao: 2067180 Nota: C1 Vol.: 67
Chanel 3 Note Off - Duracao: 2067420 Nota: C1 Vol.: 67
Chanel 3 Note On - Duracao: 2067420 Nota: C1 Vol.: 78
Chanel 3 Note Off - Duracao: 2067660 Nota: C1 Vol.: 78
Chanel 3 Note On - Duracao: 2067660 Nota: C1 Vol.: 77
Chanel 3 Note Off - Duracao: 2068140 Nota: C1 Vol.: 77
Chanel 3 Note On - Duracao: 2068140 Nota: C1 Vol.: 72
Chanel 3 Note Off - Duracao: 2069100 Nota: C1 Vol.: 72
Chanel 3 Note On - Duracao: 2069100 Nota: C1 Vol.: 69
Chanel 2 Note Off - Duracao: 2069580 Nota: C1 Vol.: 41
Chanel 2 Note On - Duracao: 2069580 Nota: C1 Vol.: 43
Chanel 3 Note Off - Duracao: 2071020 Nota: C1 Vol.: 69
Chanel 3 Note On - Duracao: 2071020 Nota: C1 Vol.: 78
Chanel 3 Note Off - Duracao: 2071980 Nota: C1 Vol.: 78
Chanel 3 Note On - Duracao: 2071980 Nota: C1 Vol.: 67
Chanel 3 Note Off - Duracao: 2072940 Nota: C1 Vol.: 67
Chanel 3 Note On - Duracao: 2072940 Nota: C1 Vol.: 48
Chanel 2 Note Off - Duracao: 2073420 Nota: C1 Vol.: 43
Chanel 2 Note On - Duracao: 2073420 Nota: C1 Vol.: 43
Chanel 3 Note Off - Duracao: 2076780 Nota: C1 Vol.: 48
Chanel 3 Note On - Duracao: 2076780 Nota: C1 Vol.: 44
Chanel 2 Note Off - Duracao: 2077260 Nota: C1 Vol.: 43
Chanel 3 Note Off - Duracao: 2078700 Nota: C1 Vol.: 44
Chanel 3 Note On - Duracao: 2078700 Nota: C1 Vol.: 44
Chanel 3 Note Off - Duracao: 2080620 Nota: C1 Vol.: 44
Chanel 3 Note On - Duracao: 2080620 Nota: C1 Vol.: 40
Chanel 3 Note Off - Duracao: 2084460 Nota: C1 Vol.: 40
Chanel 3 Note On - Duracao: 2084460 Nota: C1 Vol.: 45
Chanel 3 Note Off - Duracao: 2086380 Nota: C1 Vol.: 45
Chanel 3 Note On - Duracao: 2086380 Nota: C1 Vol.: 43
Chanel 3 Note Off - Duracao: 2090220 Nota: C1 Vol.: 43
Chanel 3 Note On - Duracao: 2090220 Nota: C1 Vol.: 42
Chanel 3 Note Off - Duracao: 2094060 Nota: C1 Vol.: 42
Chanel 3 Note On - Duracao: 2094060 Nota: C1 Vol.: 43
Chanel 3 Note Off - Duracao: 2097900 Nota: C1 Vol.: 43
Chanel 3 Note On - Duracao: 2097900 Nota: C1 Vol.: 50
Chanel 3 Note Off - Duracao: 2101740 Nota: C1 Vol.: 50
Chanel 3 Note On - Duracao: 2101740 Nota: C1 Vol.: 67
Chanel 3 Note Off - Duracao: 2102700 Nota: C1 Vol.: 67
Chanel 3 Note On - Duracao: 2102700 Nota: C1 Vol.: 85
Chanel 3 Note Off - Duracao: 2103180 Nota: C1 Vol.: 85
Chanel 3 Note On - Duracao: 2103180 Nota: C1 Vol.: 66
Chanel 3 Note Off - Duracao: 2105100 Nota: C1 Vol.: 66
Chanel 3 Note On - Duracao: 2105100 Nota: C1 Vol.: 76
Chanel 3 Note Off - Duracao: 2107020 Nota: C1 Vol.: 76
Chanel 3 Note On - Duracao: 2107020 Nota: C1 Vol.: 75
Chanel 3 Note Off - Duracao: 2108940 Nota: C1 Vol.: 75
Chanel 3 Note On - Duracao: 2108940 Nota: C1 Vol.: 75
Chanel 3 Note Off - Duracao: 2109900 Nota: C1 Vol.: 75
Chanel 3 Note On - Duracao: 2109900 Nota: C1 Vol.: 65
Chanel 3 Note Off - Duracao: 2111820 Nota: C1 Vol.: 65
Chanel 3 Note On - Duracao: 2111820 Nota: C1 Vol.: 52
Chanel 3 Note Off - Duracao: 2115660 Nota: C1 Vol.: 52
Chanel 3 Note On - Duracao: 2115660 Nota: C1 Vol.: 53
Chanel 3 Note Off - Duracao: 2119500 Nota: C1 Vol.: 53
Chanel 3 Note On - Duracao: 2119500 Nota: C1 Vol.: 62
Chanel 3 Note Off - Duracao: 2121420 Nota: C1 Vol.: 62
Chanel 3 Note On - Duracao: 2121420 Nota: C1 Vol.: 62
Chanel 3 Note Off - Duracao: 2123340 Nota: C1 Vol.: 62
Chanel 3 Note On - Duracao: 2123340 Nota: C1 Vol.: 56
Chanel 3 Note Off - Duracao: 2127180 Nota: C1 Vol.: 56
Chanel 3 Note On - Duracao: 2127180 Nota: C1 Vol.: 54
Chanel 3 Note Off - Duracao: 2131020 Nota: C1 Vol.: 54
Chanel 3 Note On - Duracao: 2131020 Nota: C1 Vol.: 74
Chanel 3 Note Off - Duracao: 2131980 Nota: C1 Vol.: 74
Chanel 3 Note On - Duracao: 2131980 Nota: C1 Vol.: 75
Chanel 3 Note Off - Duracao: 2132940 Nota: C1 Vol.: 75
Chanel 3 Note On - Duracao: 2132940 Nota: C1 Vol.: 77
Chanel 3 Note Off - Duracao: 2134860 Nota: C1 Vol.: 77
Chanel 3 Note On - Duracao: 2134860 Nota: C1 Vol.: 90
Chanel 3 Note Off - Duracao: 2135820 Nota: C1 Vol.: 90
Chanel 3 Note On - Duracao: 2135820 Nota: C1 Vol.: 92
Chanel 3 Note Off - Duracao: 2136300 Nota: C1 Vol.: 92
Chanel 3 Note On - Duracao: 2136300 Nota: C1 Vol.: 80
Chanel 3 Note Off - Duracao: 2137260 Nota: C1 Vol.: 80
Chanel 3 Note On - Duracao: 2137260 Nota: C1 Vol.: 61
Chanel 3 Note Off - Duracao: 2138220 Nota: C1 Vol.: 61
Chanel 3 Note On - Duracao: 2138220 Nota: C1 Vol.: 49
Chanel 3 Note Off - Duracao: 2140140 Nota: C1 Vol.: 49
Chanel 3 Note On - Duracao: 2140140 Nota: C1 Vol.: 47
Chanel 3 Note Off - Duracao: 2142060 Nota: C1 Vol.: 47
Chanel 3 Note On - Duracao: 2142060 Nota: C1 Vol.: 41
Chanel 3 Note Off - Duracao: 2145900 Nota: C1 Vol.: 41
Chanel 3 Note On - Duracao: 2145900 Nota: C1 Vol.: 44
Chanel 3 Note Off - Duracao: 2147820 Nota: C1 Vol.: 44
Chanel 3 Note On - Duracao: 2147820 Nota: C1 Vol.: 44
Chanel 3 Note Off - Duracao: 2149740 Nota: C1 Vol.: 44
Chanel 3 Note On - Duracao: 2149740 Nota: C1 Vol.: 42
Chanel 3 Note Off - Duracao: 2151660 Nota: C1 Vol.: 42
Chanel 3 Note On - Duracao: 2151660 Nota: C1 Vol.: 45
Chanel 3 Note Off - Duracao: 2152620 Nota: C1 Vol.: 45
Chanel 3 Note On - Duracao: 2152620 Nota: C1 Vol.: 49
Chanel 3 Note Off - Duracao: 2153580 Nota: C1 Vol.: 49
Chanel 3 Note On - Duracao: 2153580 Nota: C1 Vol.: 40
Chanel 3 Note Off - Duracao: 2154540 Nota: C1 Vol.: 40
Chanel 3 Note On - Duracao: 2154540 Nota: C1 Vol.: 47
Chanel 3 Note Off - Duracao: 2155500 Nota: C1 Vol.: 47
Chanel 3 Note On - Duracao: 2155500 Nota: C1 Vol.: 40
Chanel 3 Note Off - Duracao: 2157420 Nota: C1 Vol.: 40
Chanel 3 Note On - Duracao: 2157420 Nota: C1 Vol.: 47
Chanel 3 Note Off - Duracao: 2158380 Nota: C1 Vol.: 47
Chanel 3 Note On - Duracao: 2158380 Nota: C1 Vol.: 53
Chanel 3 Note Off - Duracao: 2159340 Nota: C1 Vol.: 53
Chanel 3 Note On - Duracao: 2159340 Nota: C1 Vol.: 40
Chanel 3 Note Off - Duracao: 2161260 Nota: C1 Vol.: 40
Chanel 3 Note On - Duracao: 2161260 Nota: C1 Vol.: 62
Chanel 3 Note Off - Duracao: 2161500 Nota: C1 Vol.: 62
Chanel 3 Note On - Duracao: 2161500 Nota: C1 Vol.: 73
Chanel 3 Note Off - Duracao: 2161740 Nota: C1 Vol.: 73
Chanel 3 Note On - Duracao: 2161740 Nota: C1 Vol.: 75
Chanel 3 Note Off - Duracao: 2162220 Nota: C1 Vol.: 75
Chanel 3 Note On - Duracao: 2162220 Nota: C1 Vol.: 85
Chanel 3 Note Off - Duracao: 2162700 Nota: C1 Vol.: 85
Chanel 3 Note On - Duracao: 2162700 Nota: C1 Vol.: 88
Chanel 3 Note Off - Duracao: 2163180 Nota: C1 Vol.: 88
Chanel 3 Note On - Duracao: 2163180 Nota: C1 Vol.: 97
Chanel 3 Note Off - Duracao: 2163420 Nota: C1 Vol.: 97
Chanel 3 Note On - Duracao: 2163420 Nota: C1 Vol.: 98
Chanel 3 Note Off - Duracao: 2163660 Nota: C1 Vol.: 98
Chanel 3 Note On - Duracao: 2163660 Nota: C1 Vol.: 90
Chanel 3 Note Off - Duracao: 2163900 Nota: C1 Vol.: 90
Chanel 3 Note On - Duracao: 2163900 Nota: C1 Vol.: 80
Chanel 3 Note Off - Duracao: 2164140 Nota: C1 Vol.: 80
Chanel 3 Note On - Duracao: 2164140 Nota: C1 Vol.: 74
Chanel 3 Note Off - Duracao: 2164620 Nota: C1 Vol.: 74
Chanel 3 Note On - Duracao: 2164620 Nota: C1 Vol.: 53
Chanel 3 Note Off - Duracao: 2166540 Nota: C1 Vol.: 53
Chanel 3 Note On - Duracao: 2166540 Nota: C1 Vol.: 67
Chanel 3 Note Off - Duracao: 2167500 Nota: C1 Vol.: 67
Chanel 3 Note On - Duracao: 2167500 Nota: C1 Vol.: 68
Chanel 3 Note Off - Duracao: 2168460 Nota: C1 Vol.: 68
Chanel 3 Note On - Duracao: 2168460 Nota: C1 Vol.: 60
Chanel 3 Note Off - Duracao: 2169420 Nota: C1 Vol.: 60
Chanel 3 Note On - Duracao: 2169420 Nota: C1 Vol.: 63
Chanel 3 Note Off - Duracao: 2170380 Nota: C1 Vol.: 63
Chanel 3 Note On - Duracao: 2170380 Nota: C1 Vol.: 46
Chanel 3 Note Off - Duracao: 2174220 Nota: C1 Vol.: 46
Chanel 3 Note On - Duracao: 2174220 Nota: C1 Vol.: 62
Chanel 3 Note Off - Duracao: 2176140 Nota: C1 Vol.: 62
Chanel 3 Note On - Duracao: 2176140 Nota: C1 Vol.: 100
Chanel 3 Note Off - Duracao: 2176260 Nota: C1 Vol.: 100
Chanel 3 Note On - Duracao: 2176260 Nota: C1 Vol.: 81
Chanel 3 Note Off - Duracao: 2177220 Nota: C1 Vol.: 81
Chanel 3 Note On - Duracao: 2177220 Nota: C1 Vol.: 63
Chanel 3 Note Off - Duracao: 2181060 Nota: C1 Vol.: 63
Chanel 3 Note On - Duracao: 2181060 Nota: C1 Vol.: 66
Chanel 3 Note Off - Duracao: 2182980 Nota: C1 Vol.: 66
Chanel 3 Note On - Duracao: 2182980 Nota: C1 Vol.: 81
Chanel 3 Note Off - Duracao: 2183940 Nota: C1 Vol.: 81
Chanel 3 Note On - Duracao: 2183940 Nota: C1 Vol.: 59
Chanel 3 Note Off - Duracao: 2185860 Nota: C1 Vol.: 59
Chanel 3 Note On - Duracao: 2185860 Nota: C1 Vol.: 49
Chanel 3 Note Off - Duracao: 2189700 Nota: C1 Vol.: 49
Chanel 3 Note On - Duracao: 2189700 Nota: C1 Vol.: 56
Chanel 3 Note Off - Duracao: 2191620 Nota: C1 Vol.: 56
Chanel 3 Note On - Duracao: 2191620 Nota: C1 Vol.: 56
Chanel 3 Note Off - Duracao: 2195460 Nota: C1 Vol.: 56
Chanel 3 Note On - Duracao: 2195460 Nota: C1 Vol.: 52
Chanel 3 Note Off - Duracao: 2199300 Nota: C1 Vol.: 52
Chanel 3 Note On - Duracao: 2199300 Nota: C1 Vol.: 50
Chanel 3 Note Off - Duracao: 2203140 Nota: C1 Vol.: 50
Chanel 3 Note On - Duracao: 2203140 Nota: C1 Vol.: 65
Chanel 3 Note Off - Duracao: 2205060 Nota: C1 Vol.: 65
Chanel 3 Note On - Duracao: 2205060 Nota: C1 Vol.: 75
Chanel 3 Note Off - Duracao: 2206020 Nota: C1 Vol.: 75
Chanel 3 Note On - Duracao: 2206020 Nota: C1 Vol.: 62
Chanel 3 Note Off - Duracao: 2209860 Nota: C1 Vol.: 62
Chanel 3 Note On - Duracao: 2209860 Nota: C1 Vol.: 72
Chanel 3 Note Off - Duracao: 2211780 Nota: C1 Vol.: 72
Chanel 3 Note On - Duracao: 2211780 Nota: C1 Vol.: 79
Chanel 3 Note Off - Duracao: 2213700 Nota: C1 Vol.: 79
Chanel 3 Note On - Duracao: 2213700 Nota: C1 Vol.: 80
Chanel 3 Note Off - Duracao: 2215620 Nota: C1 Vol.: 80
Chanel 3 Note On - Duracao: 2215620 Nota: C1 Vol.: 74
Chanel 3 Note Off - Duracao: 2217540 Nota: C1 Vol.: 74
Chanel 3 Note On - Duracao: 2217540 Nota: C1 Vol.: 58
Chanel 3 Note Off - Duracao: 2219460 Nota: C1 Vol.: 58
Chanel 3 Note On - Duracao: 2219460 Nota: C1 Vol.: 45
Chanel 3 Note Off - Duracao: 2221380 Nota: C1 Vol.: 45
Chanel 3 Note On - Duracao: 2221380 Nota: C1 Vol.: 44
Chanel 3 Note Off - Duracao: 2225220 Nota: C1 Vol.: 44
Chanel 3 Note On - Duracao: 2225220 Nota: C1 Vol.: 42
Chanel 3 Note Off - Duracao: 2229060 Nota: C1 Vol.: 42
Chanel 3 Note On - Duracao: 2229060 Nota: C1 Vol.: 41
Chanel 3 Note Off - Duracao: 2230980 Nota: C1 Vol.: 41
Chanel 3 Note On - Duracao: 2230980 Nota: C1 Vol.: 47
Chanel 3 Note Off - Duracao: 2232900 Nota: C1 Vol.: 47
Chanel 3 Note On - Duracao: 2232900 Nota: C1 Vol.: 40
Chanel 3 Note Off - Duracao: 2236740 Nota: C1 Vol.: 40
Chanel 3 Note On - Duracao: 2236740 Nota: C1 Vol.: 43
Chanel 3 Note Off - Duracao: 2238660 Nota: C1 Vol.: 43
Chanel 3 Note On - Duracao: 2238660 Nota: C1 Vol.: 40
Chanel 3 Note Off - Duracao: 2242500 Nota: C1 Vol.: 40
Chanel 3 Note On - Duracao: 2242500 Nota: C1 Vol.: 42
Chanel 3 Note Off - Duracao: 2244420 Nota: C1 Vol.: 42
Chanel 3 Note On - Duracao: 2244420 Nota: C1 Vol.: 41
Chanel 3 Note Off - Duracao: 2248260 Nota: C1 Vol.: 41
Chanel 3 Note On - Duracao: 2248260 Nota: C1 Vol.: 41
Chanel 3 Note Off - Duracao: 2252100 Nota: C1 Vol.: 41
Chanel 3 Note On - Duracao: 2252100 Nota: C1 Vol.: 54
Chanel 3 Note Off - Duracao: 2253060 Nota: C1 Vol.: 54
Chanel 3 Note On - Duracao: 2253060 Nota: C1 Vol.: 82
Chanel 3 Note Off - Duracao: 2253300 Nota: C1 Vol.: 82
Chanel 3 Note On - Duracao: 2253300 Nota: C1 Vol.: 66
Chanel 3 Note Off - Duracao: 2253780 Nota: C1 Vol.: 66
Chanel 3 Note On - Duracao: 2253780 Nota: C1 Vol.: 48
Chanel 3 Note Off - Duracao: 2255700 Nota: C1 Vol.: 48
Chanel 3 Note On - Duracao: 2255700 Nota: C1 Vol.: 54
Chanel 3 Note Off - Duracao: 2257620 Nota: C1 Vol.: 54
Chanel 3 Note On - Duracao: 2257620 Nota: C1 Vol.: 70
Chanel 3 Note Off - Duracao: 2258580 Nota: C1 Vol.: 70
Chanel 3 Note On - Duracao: 2258580 Nota: C1 Vol.: 87
Chanel 3 Note Off - Duracao: 2259060 Nota: C1 Vol.: 87
Chanel 3 Note On - Duracao: 2259060 Nota: C1 Vol.: 95
Chanel 3 Note Off - Duracao: 2259540 Nota: C1 Vol.: 95
Chanel 3 Note On - Duracao: 2259540 Nota: C1 Vol.: 99
Chanel 3 Note Off - Duracao: 2259780 Nota: C1 Vol.: 99
Chanel 3 Note On - Duracao: 2259780 Nota: C1 Vol.: 100
Chanel 3 Note Off - Duracao: 2260020 Nota: C1 Vol.: 100
Chanel 3 Note On - Duracao: 2260020 Nota: C1 Vol.: 95
Chanel 3 Note Off - Duracao: 2260260 Nota: C1 Vol.: 95
Chanel 3 Note On - Duracao: 2260260 Nota: C1 Vol.: 100
Chanel 3 Note Off - Duracao: 2260380 Nota: C1 Vol.: 100
Chanel 3 Note On - Duracao: 2260380 Nota: C1 Vol.: 77
Chanel 3 Note Off - Duracao: 2260860 Nota: C1 Vol.: 77
Chanel 3 Note On - Duracao: 2260860 Nota: C1 Vol.: 82
Chanel 3 Note Off - Duracao: 2261340 Nota: C1 Vol.: 82
Chanel 3 Note On - Duracao: 2261340 Nota: C1 Vol.: 91
Chanel 3 Note Off - Duracao: 2261580 Nota: C1 Vol.: 91
Chanel 3 Note On - Duracao: 2261580 Nota: C1 Vol.: 83
Chanel 3 Note Off - Duracao: 2262060 Nota: C1 Vol.: 83
Chanel 3 Note On - Duracao: 2262060 Nota: C1 Vol.: 68
Chanel 3 Note Off - Duracao: 2263020 Nota: C1 Vol.: 68
Chanel 3 Note On - Duracao: 2263020 Nota: C1 Vol.: 71
Chanel 3 Note Off - Duracao: 2263980 Nota: C1 Vol.: 71
Chanel 3 Note On - Duracao: 2263980 Nota: C1 Vol.: 44
Chanel 3 Note Off - Duracao: 2267820 Nota: C1 Vol.: 44
Chanel 3 Note On - Duracao: 2267820 Nota: C1 Vol.: 50
Chanel 3 Note Off - Duracao: 2271660 Nota: C1 Vol.: 50
Chanel 3 Note On - Duracao: 2271660 Nota: C1 Vol.: 69
Chanel 3 Note Off - Duracao: 2272620 Nota: C1 Vol.: 69
Chanel 3 Note On - Duracao: 2272620 Nota: C1 Vol.: 85
Chanel 3 Note Off - Duracao: 2273100 Nota: C1 Vol.: 85
Chanel 3 Note On - Duracao: 2273100 Nota: C1 Vol.: 69
Chanel 3 Note Off - Duracao: 2275020 Nota: C1 Vol.: 69
Chanel 3 Note On - Duracao: 2275020 Nota: C1 Vol.: 65
Chanel 3 Note Off - Duracao: 2276940 Nota: C1 Vol.: 65
Chanel 3 Note On - Duracao: 2276940 Nota: C1 Vol.: 51
Chanel 3 Note Off - Duracao: 2280780 Nota: C1 Vol.: 51
Chanel 3 Note On - Duracao: 2280780 Nota: C1 Vol.: 56
Chanel 3 Note Off - Duracao: 2284620 Nota: C1 Vol.: 56
Chanel 3 Note On - Duracao: 2284620 Nota: C1 Vol.: 52
Chanel 3 Note Off - Duracao: 2288460 Nota: C1 Vol.: 52
Chanel 3 Note On - Duracao: 2288460 Nota: C1 Vol.: 51
Chanel 3 Note Off - Duracao: 2292300 Nota: C1 Vol.: 51
Chanel 3 Note On - Duracao: 2292300 Nota: C1 Vol.: 55
Chanel 3 Note Off - Duracao: 2296140 Nota: C1 Vol.: 55
Chanel 3 Note On - Duracao: 2296140 Nota: C1 Vol.: 59
Chanel 3 Note Off - Duracao: 2298060 Nota: C1 Vol.: 59
Chanel 3 Note On - Duracao: 2298060 Nota: C1 Vol.: 56
Chanel 3 Note Off - Duracao: 2301900 Nota: C1 Vol.: 56
Chanel 3 Note On - Duracao: 2301900 Nota: C1 Vol.: 64
Chanel 3 Note Off - Duracao: 2303820 Nota: C1 Vol.: 64
Chanel 3 Note On - Duracao: 2303820 Nota: C1 Vol.: 60
Chanel 3 Note Off - Duracao: 2307660 Nota: C1 Vol.: 60
Chanel 3 Note On - Duracao: 2307660 Nota: C1 Vol.: 55
Chanel 3 Note Off - Duracao: 2311500 Nota: C1 Vol.: 55
Chanel 3 Note On - Duracao: 2311500 Nota: C1 Vol.: 68
Chanel 3 Note Off - Duracao: 2315340 Nota: C1 Vol.: 68
Chanel 3 Note On - Duracao: 2315340 Nota: C1 Vol.: 71
Chanel 3 Note Off - Duracao: 2317260 Nota: C1 Vol.: 71
Chanel 3 Note On - Duracao: 2317260 Nota: C1 Vol.: 70
Chanel 3 Note Off - Duracao: 2321100 Nota: C1 Vol.: 70
Chanel 3 Note On - Duracao: 2321100 Nota: C1 Vol.: 66
Chanel 3 Note Off - Duracao: 2323020 Nota: C1 Vol.: 66
Chanel 3 Note On - Duracao: 2323020 Nota: C1 Vol.: 56
Chanel 3 Note Off - Duracao: 2324940 Nota: C1 Vol.: 56
Chanel 3 Note On - Duracao: 2324940 Nota: C1 Vol.: 46
Chanel 3 Note Off - Duracao: 2328780 Nota: C1 Vol.: 46
Chanel 3 Note On - Duracao: 2328780 Nota: C1 Vol.: 44
Chanel 3 Note Off - Duracao: 2332620 Nota: C1 Vol.: 44
Chanel 3 Note On - Duracao: 2332620 Nota: C1 Vol.: 42
Chanel 3 Note Off - Duracao: 2336460 Nota: C1 Vol.: 42
Chanel 3 Note On - Duracao: 2336460 Nota: C1 Vol.: 42
Chanel 3 Note Off - Duracao: 2340300 Nota: C1 Vol.: 42
Chanel 3 Note On - Duracao: 2340300 Nota: C1 Vol.: 40
Chanel 3 Note Off - Duracao: 2344140 Nota: C1 Vol.: 40
Chanel 3 Note On - Duracao: 2344140 Nota: C1 Vol.: 47
Chanel 3 Note Off - Duracao: 2347980 Nota: C1 Vol.: 47
Chanel 3 Note On - Duracao: 2347980 Nota: C1 Vol.: 49
Chanel 3 Note Off - Duracao: 2351820 Nota: C1 Vol.: 49
Chanel 3 Note On - Duracao: 2351820 Nota: C1 Vol.: 42
Chanel 3 Note Off - Duracao: 2355660 Nota: C1 Vol.: 42
Chanel 3 Note On - Duracao: 2355660 Nota: C1 Vol.: 44
Chanel 3 Note Off - Duracao: 2359500 Nota: C1 Vol.: 44
Chanel 3 Note On - Duracao: 2359500 Nota: C1 Vol.: 43
Chanel 3 Note Off - Duracao: 2363340 Nota: C1 Vol.: 43
Chanel 3 Note On - Duracao: 2363340 Nota: C1 Vol.: 43
Chanel 3 Note Off - Duracao: 2367180 Nota: C1 Vol.: 43
Chanel 3 Note On - Duracao: 2367180 Nota: C1 Vol.: 47
Chanel 3 Note Off - Duracao: 2371020 Nota: C1 Vol.: 47
Chanel 3 Note On - Duracao: 2371020 Nota: C1 Vol.: 83
Chanel 3 Note Off - Duracao: 2371260 Nota: C1 Vol.: 83
Chanel 3 Note On - Duracao: 2371260 Nota: C1 Vol.: 76
Chanel 3 Note Off - Duracao: 2371500 Nota: C1 Vol.: 76
Chanel 3 Note On - Duracao: 2371500 Nota: C1 Vol.: 56
Chanel 3 Note Off - Duracao: 2373420 Nota: C1 Vol.: 56
Chanel 3 Note On - Duracao: 2373420 Nota: C1 Vol.: 56
Chanel 3 Note Off - Duracao: 2375340 Nota: C1 Vol.: 56
Chanel 3 Note On - Duracao: 2375340 Nota: C1 Vol.: 65
Chanel 3 Note Off - Duracao: 2377260 Nota: C1 Vol.: 65
Chanel 3 Note On - Duracao: 2377260 Nota: C1 Vol.: 67
Chanel 3 Note Off - Duracao: 2379180 Nota: C1 Vol.: 67
Chanel 3 Note On - Duracao: 2379180 Nota: C1 Vol.: 70
Chanel 3 Note Off - Duracao: 2381100 Nota: C1 Vol.: 70
Chanel 3 Note On - Duracao: 2381100 Nota: C1 Vol.: 68
Chanel 3 Note Off - Duracao: 2383020 Nota: C1 Vol.: 68
Chanel 3 Note On - Duracao: 2383020 Nota: C1 Vol.: 72
Chanel 3 Note Off - Duracao: 2383980 Nota: C1 Vol.: 72
Chanel 3 Note On - Duracao: 2383980 Nota: C1 Vol.: 72
Chanel 3 Note Off - Duracao: 2384940 Nota: C1 Vol.: 72
Chanel 3 Note On - Duracao: 2384940 Nota: C1 Vol.: 68
Chanel 3 Note Off - Duracao: 2385900 Nota: C1 Vol.: 68
Chanel 3 Note On - Duracao: 2385900 Nota: C1 Vol.: 57
Chanel 3 Note Off - Duracao: 2387820 Nota: C1 Vol.: 57
Chanel 3 Note On - Duracao: 2387820 Nota: C1 Vol.: 65
Chanel 3 Note Off - Duracao: 2388780 Nota: C1 Vol.: 65
Chanel 3 Note On - Duracao: 2388780 Nota: C1 Vol.: 61
Chanel 3 Note Off - Duracao: 2390700 Nota: C1 Vol.: 61
Chanel 3 Note On - Duracao: 2390700 Nota: C1 Vol.: 57
Chanel 3 Note Off - Duracao: 2392620 Nota: C1 Vol.: 57
Chanel 3 Note On - Duracao: 2392620 Nota: C1 Vol.: 51
Chanel 3 Note Off - Duracao: 2396460 Nota: C1 Vol.: 51
Chanel 3 Note On - Duracao: 2396460 Nota: C1 Vol.: 52
Chanel 3 Note Off - Duracao: 2400300 Nota: C1 Vol.: 52
Chanel 3 Note On - Duracao: 2400300 Nota: C1 Vol.: 44
Chanel 3 Note Off - Duracao: 2404140 Nota: C1 Vol.: 44
Chanel 3 Note On - Duracao: 2404140 Nota: C1 Vol.: 44
Chanel 3 Note Off - Duracao: 2407980 Nota: C1 Vol.: 44
Chanel 3 Note On - Duracao: 2407980 Nota: C1 Vol.: 49
Chanel 3 Note Off - Duracao: 2411820 Nota: C1 Vol.: 49
Chanel 3 Note On - Duracao: 2411820 Nota: C1 Vol.: 63
Chanel 3 Note Off - Duracao: 2413740 Nota: C1 Vol.: 63
Chanel 3 Note On - Duracao: 2413740 Nota: C1 Vol.: 57
Chanel 3 Note Off - Duracao: 2415660 Nota: C1 Vol.: 57
Chanel 3 Note On - Duracao: 2415660 Nota: C1 Vol.: 49
Chanel 3 Note Off - Duracao: 2419500 Nota: C1 Vol.: 49
Chanel 3 Note On - Duracao: 2419500 Nota: C1 Vol.: 48
Chanel 3 Note Off - Duracao: 2423340 Nota: C1 Vol.: 48
Chanel 3 Note On - Duracao: 2423340 Nota: C1 Vol.: 47
Chanel 3 Note Off - Duracao: 2427180 Nota: C1 Vol.: 47
Chanel 3 Note On - Duracao: 2427180 Nota: C1 Vol.: 49
Chanel 3 Note Off - Duracao: 2431020 Nota: C1 Vol.: 49
Chanel 3 Note On - Duracao: 2431020 Nota: C1 Vol.: 75
Chanel 3 Note Off - Duracao: 2431980 Nota: C1 Vol.: 75
Chanel 3 Note On - Duracao: 2431980 Nota: C1 Vol.: 100
Chanel 3 Note Off - Duracao: 2432100 Nota: C1 Vol.: 100
Chanel 3 Note On - Duracao: 2432100 Nota: C1 Vol.: 90
Chanel 3 Note Off - Duracao: 2432580 Nota: C1 Vol.: 90
Chanel 3 Note On - Duracao: 2432580 Nota: C1 Vol.: 79
Chanel 3 Note Off - Duracao: 2433540 Nota: C1 Vol.: 79
Chanel 3 Note On - Duracao: 2433540 Nota: C1 Vol.: 77
Chanel 3 Note Off - Duracao: 2434500 Nota: C1 Vol.: 77
Chanel 3 Note On - Duracao: 2434500 Nota: C1 Vol.: 74
Chanel 3 Note Off - Duracao: 2435460 Nota: C1 Vol.: 74
Chanel 3 Note On - Duracao: 2435460 Nota: C1 Vol.: 62
Chanel 3 Note Off - Duracao: 2437380 Nota: C1 Vol.: 62
Chanel 3 Note On - Duracao: 2437380 Nota: C1 Vol.: 63
Chanel 3 Note Off - Duracao: 2441220 Nota: C1 Vol.: 63
Chanel 3 Note On - Duracao: 2441220 Nota: C1 Vol.: 64
Chanel 3 Note Off - Duracao: 2445060 Nota: C1 Vol.: 64
Chanel 3 Note On - Duracao: 2445060 Nota: C1 Vol.: 63
Chanel 3 Note Off - Duracao: 2448900 Nota: C1 Vol.: 63
Chanel 3 Note On - Duracao: 2448900 Nota: C1 Vol.: 61
Chanel 3 Note Off - Duracao: 2452740 Nota: C1 Vol.: 61
Chanel 3 Note On - Duracao: 2452740 Nota: C1 Vol.: 58
Chanel 3 Note Off - Duracao: 2454660 Nota: C1 Vol.: 58
Chanel 3 Note On - Duracao: 2454660 Nota: C1 Vol.: 58
Chanel 3 Note Off - Duracao: 2456580 Nota: C1 Vol.: 58
Chanel 3 Note On - Duracao: 2456580 Nota: C1 Vol.: 66
Chanel 3 Note Off - Duracao: 2457540 Nota: C1 Vol.: 66
Chanel 3 Note On - Duracao: 2457540 Nota: C1 Vol.: 71
Chanel 3 Note Off - Duracao: 2458500 Nota: C1 Vol.: 71
Chanel 3 Note On - Duracao: 2458500 Nota: C1 Vol.: 73
Chanel 3 Note Off - Duracao: 2458980 Nota: C1 Vol.: 73
Chanel 3 Note On - Duracao: 2458980 Nota: C1 Vol.: 79
Chanel 3 Note Off - Duracao: 2459460 Nota: C1 Vol.: 79
Chanel 3 Note On - Duracao: 2459460 Nota: C1 Vol.: 84
Chanel 3 Note Off - Duracao: 2459940 Nota: C1 Vol.: 84
Chanel 3 Note On - Duracao: 2459940 Nota: C1 Vol.: 81
Chanel 3 Note Off - Duracao: 2460420 Nota: C1 Vol.: 81
Chanel 3 Note On - Duracao: 2460420 Nota: C1 Vol.: 53
Chanel 3 Note Off - Duracao: 2462340 Nota: C1 Vol.: 53
Chanel 3 Note On - Duracao: 2462340 Nota: C1 Vol.: 63
Chanel 3 Note Off - Duracao: 2463300 Nota: C1 Vol.: 63
Chanel 3 Note On - Duracao: 2463300 Nota: C1 Vol.: 56
Chanel 3 Note Off - Duracao: 2465220 Nota: C1 Vol.: 56
Chanel 3 Note On - Duracao: 2465220 Nota: C1 Vol.: 47
Chanel 3 Note Off - Duracao: 2469060 Nota: C1 Vol.: 47
Chanel 3 Note On - Duracao: 2469060 Nota: C1 Vol.: 44
Chanel 3 Note Off - Duracao: 2472900 Nota: C1 Vol.: 44
Chanel 3 Note On - Duracao: 2472900 Nota: C1 Vol.: 60
Chanel 3 Note Off - Duracao: 2473860 Nota: C1 Vol.: 60
Chanel 3 Note On - Duracao: 2473860 Nota: C1 Vol.: 69
Chanel 3 Note Off - Duracao: 2474820 Nota: C1 Vol.: 69
Chanel 3 Note On - Duracao: 2474820 Nota: C1 Vol.: 66
Chanel 3 Note Off - Duracao: 2475780 Nota: C1 Vol.: 66
Chanel 3 Note On - Duracao: 2475780 Nota: C1 Vol.: 60
Chanel 3 Note Off - Duracao: 2477700 Nota: C1 Vol.: 60
Chanel 3 Note On - Duracao: 2477700 Nota: C1 Vol.: 53
Chanel 3 Note Off - Duracao: 2481540 Nota: C1 Vol.: 53
Chanel 3 Note On - Duracao: 2481540 Nota: C1 Vol.: 53
Chanel 3 Note Off - Duracao: 2485380 Nota: C1 Vol.: 53
Chanel 3 Note On - Duracao: 2485380 Nota: C1 Vol.: 49
Chanel 3 Note Off - Duracao: 2489220 Nota: C1 Vol.: 49
Chanel 3 Note On - Duracao: 2489220 Nota: C1 Vol.: 50
Chanel 3 Note Off - Duracao: 2493060 Nota: C1 Vol.: 50
Chanel 3 Note On - Duracao: 2493060 Nota: C1 Vol.: 50
Chanel 3 Note Off - Duracao: 2496900 Nota: C1 Vol.: 50
Chanel 3 Note On - Duracao: 2496900 Nota: C1 Vol.: 56
Chanel 3 Note Off - Duracao: 2498820 Nota: C1 Vol.: 56
Chanel 3 Note On - Duracao: 2498820 Nota: C1 Vol.: 49
Chanel 3 Note Off - Duracao: 2502660 Nota: C1 Vol.: 49
Chanel 3 Note On - Duracao: 2502660 Nota: C1 Vol.: 50
Chanel 3 Note Off - Duracao: 2506500 Nota: C1 Vol.: 50
Chanel 3 Note On - Duracao: 2506500 Nota: C1 Vol.: 48
Chanel 3 Note Off - Duracao: 2510340 Nota: C1 Vol.: 48
Chanel 3 Note On - Duracao: 2510340 Nota: C1 Vol.: 46
Chanel 3 Note Off - Duracao: 2514180 Nota: C1 Vol.: 46
Chanel 3 Note On - Duracao: 2514180 Nota: C1 Vol.: 46
Chanel 3 Note Off - Duracao: 2518020 Nota: C1 Vol.: 46
Chanel 3 Note On - Duracao: 2518020 Nota: C1 Vol.: 41
Chanel 3 Note Off - Duracao: 2521860 Nota: C1 Vol.: 41
Chanel 3 Note On - Duracao: 2521860 Nota: C1 Vol.: 42
Chanel 3 Note Off - Duracao: 2525700 Nota: C1 Vol.: 42
Chanel 3 Note On - Duracao: 2525700 Nota: C1 Vol.: 44
Chanel 3 Note Off - Duracao: 2529540 Nota: C1 Vol.: 44
Chanel 3 Note On - Duracao: 2529540 Nota: C1 Vol.: 44
Chanel 3 Note Off - Duracao: 2533380 Nota: C1 Vol.: 44
Chanel 3 Note On - Duracao: 2533380 Nota: C1 Vol.: 44
Chanel 3 Note Off - Duracao: 2537220 Nota: C1 Vol.: 44
Chanel 3 Note On - Duracao: 2537220 Nota: C1 Vol.: 44
Chanel 3 Note Off - Duracao: 2541060 Nota: C1 Vol.: 44
Chanel 3 Note On - Duracao: 2541060 Nota: C1 Vol.: 46
Chanel 3 Note Off - Duracao: 2544900 Nota: C1 Vol.: 46
Chanel 3 Note On - Duracao: 2544900 Nota: C1 Vol.: 48
Chanel 3 Note Off - Duracao: 2548740 Nota: C1 Vol.: 48
Chanel 3 Note On - Duracao: 2548740 Nota: C1 Vol.: 44
Chanel 3 Note Off - Duracao: 2552580 Nota: C1 Vol.: 44
Chanel 3 Note On - Duracao: 2552580 Nota: C1 Vol.: 46
Chanel 3 Note Off - Duracao: 2556420 Nota: C1 Vol.: 46
Chanel 3 Note On - Duracao: 2556420 Nota: C1 Vol.: 63
Chanel 3 Note Off - Duracao: 2558340 Nota: C1 Vol.: 63
Chanel 3 Note On - Duracao: 2558340 Nota: C1 Vol.: 84
Chanel 3 Note Off - Duracao: 2558820 Nota: C1 Vol.: 84
Chanel 3 Note On - Duracao: 2558820 Nota: C1 Vol.: 91
Chanel 3 Note Off - Duracao: 2559060 Nota: C1 Vol.: 91
Chanel 3 Note On - Duracao: 2559060 Nota: C1 Vol.: 87
Chanel 3 Note Off - Duracao: 2559540 Nota: C1 Vol.: 87
Chanel 3 Note On - Duracao: 2559540 Nota: C1 Vol.: 87
Chanel 3 Note Off - Duracao: 2560020 Nota: C1 Vol.: 87
Chanel 3 Note On - Duracao: 2560020 Nota: C1 Vol.: 94
Chanel 3 Note Off - Duracao: 2560260 Nota: C1 Vol.: 94
Chanel 3 Note On - Duracao: 2560260 Nota: C1 Vol.: 94
Chanel 3 Note Off - Duracao: 2560500 Nota: C1 Vol.: 94
Chanel 3 Note On - Duracao: 2560500 Nota: C1 Vol.: 75
Chanel 3 Note Off - Duracao: 2561460 Nota: C1 Vol.: 75
Chanel 3 Note On - Duracao: 2561460 Nota: C1 Vol.: 95
Chanel 3 Note Off - Duracao: 2561700 Nota: C1 Vol.: 95
Chanel 3 Note On - Duracao: 2561700 Nota: C1 Vol.: 84
Chanel 3 Note Off - Duracao: 2562660 Nota: C1 Vol.: 84
Chanel 3 Note On - Duracao: 2562660 Nota: C1 Vol.: 75
Chanel 3 Note Off - Duracao: 2564580 Nota: C1 Vol.: 75
Chanel 3 Note On - Duracao: 2564580 Nota: C1 Vol.: 83
Chanel 3 Note Off - Duracao: 2565540 Nota: C1 Vol.: 83
Chanel 3 Note On - Duracao: 2565540 Nota: C1 Vol.: 95
Chanel 3 Note Off - Duracao: 2565780 Nota: C1 Vol.: 95
Chanel 3 Note On - Duracao: 2565780 Nota: C1 Vol.: 100
Chanel 3 Note Off - Duracao: 2565900 Nota: C1 Vol.: 100
Chanel 3 Note On - Duracao: 2565900 Nota: C1 Vol.: 100
Chanel 3 Note Off - Duracao: 2566020 Nota: C1 Vol.: 100
Chanel 3 Note On - Duracao: 2566020 Nota: C1 Vol.: 97
Chanel 3 Note Off - Duracao: 2566260 Nota: C1 Vol.: 97
Chanel 3 Note On - Duracao: 2566260 Nota: C1 Vol.: 93
Chanel 3 Note Off - Duracao: 2566500 Nota: C1 Vol.: 93
Chanel 3 Note On - Duracao: 2566500 Nota: C1 Vol.: 88
Chanel 3 Note Off - Duracao: 2566740 Nota: C1 Vol.: 88
Chanel 3 Note On - Duracao: 2566740 Nota: C1 Vol.: 75
Chanel 3 Note Off - Duracao: 2567700 Nota: C1 Vol.: 75
Chanel 3 Note On - Duracao: 2567700 Nota: C1 Vol.: 65
Chanel 3 Note Off - Duracao: 2569620 Nota: C1 Vol.: 65
Chanel 3 Note On - Duracao: 2569620 Nota: C1 Vol.: 44
Chanel 3 Note Off - Duracao: 2573460 Nota: C1 Vol.: 44
Chanel 3 Note On - Duracao: 2573460 Nota: C1 Vol.: 47
Chanel 3 Note Off - Duracao: 2575380 Nota: C1 Vol.: 47
Chanel 3 Note On - Duracao: 2575380 Nota: C1 Vol.: 74
Chanel 3 Note Off - Duracao: 2575860 Nota: C1 Vol.: 74
Chanel 3 Note On - Duracao: 2575860 Nota: C1 Vol.: 56
Chanel 3 Note Off - Duracao: 2577780 Nota: C1 Vol.: 56
Chanel 3 Note On - Duracao: 2577780 Nota: C1 Vol.: 44
Chanel 3 Note Off - Duracao: 2581620 Nota: C1 Vol.: 44
Chanel 3 Note On - Duracao: 2581620 Nota: C1 Vol.: 63
Chanel 3 Note Off - Duracao: 2582580 Nota: C1 Vol.: 63
Chanel 3 Note On - Duracao: 2582580 Nota: C1 Vol.: 99
Chanel 3 Note Off - Duracao: 2582700 Nota: C1 Vol.: 99
Chanel 3 Note On - Duracao: 2582700 Nota: C1 Vol.: 91
Chanel 3 Note Off - Duracao: 2582940 Nota: C1 Vol.: 91
Chanel 3 Note On - Duracao: 2582940 Nota: C1 Vol.: 66
Chanel 3 Note Off - Duracao: 2583900 Nota: C1 Vol.: 66
Chanel 3 Note On - Duracao: 2583900 Nota: C1 Vol.: 60
Chanel 3 Note Off - Duracao: 2585820 Nota: C1 Vol.: 60
Chanel 3 Note On - Duracao: 2585820 Nota: C1 Vol.: 48
Chanel 3 Note Off - Duracao: 2589660 Nota: C1 Vol.: 48
Chanel 3 Note On - Duracao: 2589660 Nota: C1 Vol.: 56
Chanel 3 Note Off - Duracao: 2591580 Nota: C1 Vol.: 56
Chanel 3 Note On - Duracao: 2591580 Nota: C1 Vol.: 49
Chanel 3 Note Off - Duracao: 2593500 Nota: C1 Vol.: 49
Chanel 3 Note On - Duracao: 2593500 Nota: C1 Vol.: 50
Chanel 3 Note Off - Duracao: 2595420 Nota: C1 Vol.: 50
Chanel 3 Note On - Duracao: 2595420 Nota: C1 Vol.: 46
Chanel 3 Note Off - Duracao: 2599260 Nota: C1 Vol.: 46
Chanel 3 Note On - Duracao: 2599260 Nota: C1 Vol.: 47
Chanel 3 Note Off - Duracao: 2603100 Nota: C1 Vol.: 47
Chanel 3 Note On - Duracao: 2603100 Nota: C1 Vol.: 44
Chanel 3 Note Off - Duracao: 2606940 Nota: C1 Vol.: 44
Chanel 3 Note On - Duracao: 2606940 Nota: C1 Vol.: 44
Chanel 3 Note Off - Duracao: 2610780 Nota: C1 Vol.: 44
Chanel 3 Note On - Duracao: 2610780 Nota: C1 Vol.: 44
Chanel 3 Note Off - Duracao: 2614620 Nota: C1 Vol.: 44
Chanel 3 Note On - Duracao: 2614620 Nota: C1 Vol.: 40
Chanel 3 Note Off - Duracao: 2618460 Nota: C1 Vol.: 40
Chanel 3 Note On - Duracao: 2618460 Nota: C1 Vol.: 44
Chanel 3 Note Off - Duracao: 2620380 Nota: C1 Vol.: 44
Chanel 3 Note On - Duracao: 2620380 Nota: C1 Vol.: 41
Chanel 3 Note Off - Duracao: 2622300 Nota: C1 Vol.: 41
Chanel 3 Note On - Duracao: 2622300 Nota: C1 Vol.: 47
Chanel 3 Note Off - Duracao: 2624220 Nota: C1 Vol.: 47
Chanel 3 Note On - Duracao: 2624220 Nota: C1 Vol.: 56
Chanel 3 Note Off - Duracao: 2626140 Nota: C1 Vol.: 56
Chanel 3 Note On - Duracao: 2626140 Nota: C1 Vol.: 68
Chanel 3 Note Off - Duracao: 2626620 Nota: C1 Vol.: 68
Chanel 3 Note On - Duracao: 2626620 Nota: C1 Vol.: 44
Chanel 3 Note Off - Duracao: 2630460 Nota: C1 Vol.: 44
Chanel 3 Note On - Duracao: 2630460 Nota: C1 Vol.: 44
Chanel 3 Note Off - Duracao: 2634300 Nota: C1 Vol.: 44
Chanel 3 Note On - Duracao: 2634300 Nota: C1 Vol.: 44
Chanel 3 Note Off - Duracao: 2638140 Nota: C1 Vol.: 44
Chanel 3 Note On - Duracao: 2638140 Nota: C1 Vol.: 43
Chanel 3 Note Off - Duracao: 2641980 Nota: C1 Vol.: 43
Chanel 3 Note On - Duracao: 2641980 Nota: C1 Vol.: 44
Chanel 3 Note Off - Duracao: 2645820 Nota: C1 Vol.: 44
Chanel 3 Note On - Duracao: 2645820 Nota: C1 Vol.: 52
Chanel 3 Note Off - Duracao: 2649660 Nota: C1 Vol.: 52
Chanel 3 Note On - Duracao: 2649660 Nota: C1 Vol.: 69
Chanel 3 Note Off - Duracao: 2651580 Nota: C1 Vol.: 69
Chanel 3 Note On - Duracao: 2651580 Nota: C1 Vol.: 71
Chanel 3 Note Off - Duracao: 2653500 Nota: C1 Vol.: 71
Chanel 3 Note On - Duracao: 2653500 Nota: C1 Vol.: 76
Chanel 3 Note Off - Duracao: 2654460 Nota: C1 Vol.: 76
Chanel 3 Note On - Duracao: 2654460 Nota: C1 Vol.: 76
Chanel 3 Note Off - Duracao: 2656380 Nota: C1 Vol.: 76
Chanel 3 Note On - Duracao: 2656380 Nota: C1 Vol.: 83
Chanel 3 Note Off - Duracao: 2657340 Nota: C1 Vol.: 83
Chanel 3 Note On - Duracao: 2657340 Nota: C1 Vol.: 81
Chanel 3 Note Off - Duracao: 2658300 Nota: C1 Vol.: 81
Chanel 3 Note On - Duracao: 2658300 Nota: C1 Vol.: 70
Chanel 3 Note Off - Duracao: 2660220 Nota: C1 Vol.: 70
Chanel 3 Note On - Duracao: 2660220 Nota: C1 Vol.: 89
Chanel 3 Note Off - Duracao: 2660700 Nota: C1 Vol.: 89
Chanel 3 Note On - Duracao: 2660700 Nota: C1 Vol.: 87
Chanel 3 Note Off - Duracao: 2661180 Nota: C1 Vol.: 87
Chanel 3 Note On - Duracao: 2661180 Nota: C1 Vol.: 85
Chanel 3 Note Off - Duracao: 2661660 Nota: C1 Vol.: 85
Chanel 3 Note On - Duracao: 2661660 Nota: C1 Vol.: 91
Chanel 3 Note Off - Duracao: 2662140 Nota: C1 Vol.: 91
Chanel 3 Note On - Duracao: 2662140 Nota: C1 Vol.: 94
Chanel 3 Note Off - Duracao: 2662380 Nota: C1 Vol.: 94
Chanel 3 Note On - Duracao: 2662380 Nota: C1 Vol.: 90
Chanel 3 Note Off - Duracao: 2662860 Nota: C1 Vol.: 90
Chanel 3 Note On - Duracao: 2662860 Nota: C1 Vol.: 86
Chanel 3 Note Off - Duracao: 2663820 Nota: C1 Vol.: 86
Chanel 3 Note On - Duracao: 2663820 Nota: C1 Vol.: 82
Chanel 3 Note Off - Duracao: 2664780 Nota: C1 Vol.: 82
Chanel 3 Note On - Duracao: 2664780 Nota: C1 Vol.: 71
Chanel 3 Note Off - Duracao: 2666700 Nota: C1 Vol.: 71
Chanel 3 Note On - Duracao: 2666700 Nota: C1 Vol.: 62
Chanel 3 Note Off - Duracao: 2670540 Nota: C1 Vol.: 62
Chanel 3 Note On - Duracao: 2670540 Nota: C1 Vol.: 56
Chanel 3 Note Off - Duracao: 2674380 Nota: C1 Vol.: 56
Chanel 3 Note On - Duracao: 2674380 Nota: C1 Vol.: 47
Chanel 3 Note Off - Duracao: 2678220 Nota: C1 Vol.: 47
Chanel 3 Note On - Duracao: 2678220 Nota: C1 Vol.: 56
Chanel 3 Note Off - Duracao: 2679180 Nota: C1 Vol.: 56
Chanel 3 Note On - Duracao: 2679180 Nota: C1 Vol.: 57
Chanel 3 Note Off - Duracao: 2680140 Nota: C1 Vol.: 57
Chanel 3 Note On - Duracao: 2680140 Nota: C1 Vol.: 50
Chanel 3 Note Off - Duracao: 2682060 Nota: C1 Vol.: 50
Chanel 3 Note On - Duracao: 2682060 Nota: C1 Vol.: 70
Chanel 3 Note Off - Duracao: 2683020 Nota: C1 Vol.: 70
Chanel 3 Note On - Duracao: 2683020 Nota: C1 Vol.: 50
Chanel 3 Note Off - Duracao: 2684940 Nota: C1 Vol.: 50
Chanel 3 Note On - Duracao: 2684940 Nota: C1 Vol.: 48
Chanel 3 Note Off - Duracao: 2688780 Nota: C1 Vol.: 48
Chanel 3 Note On - Duracao: 2688780 Nota: C1 Vol.: 92
Chanel 3 Note Off - Duracao: 2689020 Nota: C1 Vol.: 92
Chanel 3 Note On - Duracao: 2689020 Nota: C1 Vol.: 73
Chanel 3 Note Off - Duracao: 2689980 Nota: C1 Vol.: 73
Chanel 3 Note On - Duracao: 2689980 Nota: C1 Vol.: 77
Chanel 3 Note Off - Duracao: 2690460 Nota: C1 Vol.: 77
Chanel 3 Note On - Duracao: 2690460 Nota: C1 Vol.: 58
Chanel 3 Note Off - Duracao: 2692380 Nota: C1 Vol.: 58
Chanel 3 Note On - Duracao: 2692380 Nota: C1 Vol.: 44
Chanel 3 Note Off - Duracao: 2696220 Nota: C1 Vol.: 44
Chanel 3 Note On - Duracao: 2696220 Nota: C1 Vol.: 47
Chanel 3 Note Off - Duracao: 2698140 Nota: C1 Vol.: 47
Chanel 3 Note On - Duracao: 2698140 Nota: C1 Vol.: 40
Chanel 3 Note Off - Duracao: 2701980 Nota: C1 Vol.: 40
Chanel 3 Note On - Duracao: 2701980 Nota: C1 Vol.: 52
Chanel 3 Note Off - Duracao: 2702940 Nota: C1 Vol.: 52
Chanel 3 Note On - Duracao: 2702940 Nota: C1 Vol.: 49
Chanel 3 Note Off - Duracao: 2704860 Nota: C1 Vol.: 49
Chanel 3 Note On - Duracao: 2704860 Nota: C1 Vol.: 46
Chanel 3 Note Off - Duracao: 2708700 Nota: C1 Vol.: 46
Chanel 3 Note On - Duracao: 2708700 Nota: C1 Vol.: 50
Chanel 3 Note Off - Duracao: 2710620 Nota: C1 Vol.: 50
Chanel 3 Note On - Duracao: 2710620 Nota: C1 Vol.: 45
Chanel 3 Note Off - Duracao: 2712540 Nota: C1 Vol.: 45
Chanel 3 Note On - Duracao: 2712540 Nota: C1 Vol.: 44
Chanel 3 Note Off - Duracao: 2714460 Nota: C1 Vol.: 44
Chanel 3 Note On - Duracao: 2714460 Nota: C1 Vol.: 41
Chanel 3 Note Off - Duracao: 2716380 Nota: C1 Vol.: 41
Chanel 3 Note On - Duracao: 2716380 Nota: C1 Vol.: 48
Chanel 3 Note Off - Duracao: 2718300 Nota: C1 Vol.: 48
Chanel 3 Note On - Duracao: 2718300 Nota: C1 Vol.: 42
Chanel 3 Note Off - Duracao: 2720220 Nota: C1 Vol.: 42
Chanel 3 Note On - Duracao: 2720220 Nota: C1 Vol.: 44
Chanel 3 Note Off - Duracao: 2724060 Nota: C1 Vol.: 44
Chanel 3 Note On - Duracao: 2724060 Nota: C1 Vol.: 43
Chanel 3 Note Off - Duracao: 2727900 Nota: C1 Vol.: 43
Chanel 3 Note On - Duracao: 2727900 Nota: C1 Vol.: 50
Chanel 3 Note Off - Duracao: 2729820 Nota: C1 Vol.: 50
Chanel 3 Note On - Duracao: 2729820 Nota: C1 Vol.: 52
Chanel 3 Note Off - Duracao: 2731740 Nota: C1 Vol.: 52
Chanel 3 Note On - Duracao: 2731740 Nota: C1 Vol.: 44
Chanel 3 Note Off - Duracao: 2735580 Nota: C1 Vol.: 44
Chanel 3 Note On - Duracao: 2735580 Nota: C1 Vol.: 43
Chanel 3 Note Off - Duracao: 2739420 Nota: C1 Vol.: 43
Chanel 3 Note On - Duracao: 2739420 Nota: C1 Vol.: 42
Chanel 3 Note Off - Duracao: 2743260 Nota: C1 Vol.: 42
Chanel 3 Note On - Duracao: 2743260 Nota: C1 Vol.: 46
Chanel 3 Note Off - Duracao: 2747100 Nota: C1 Vol.: 46
Chanel 3 Note On - Duracao: 2747100 Nota: C1 Vol.: 52
Chanel 3 Note Off - Duracao: 2750940 Nota: C1 Vol.: 52
Chanel 3 Note On - Duracao: 2750940 Nota: C1 Vol.: 57
Chanel 3 Note Off - Duracao: 2754780 Nota: C1 Vol.: 57
Chanel 3 Note On - Duracao: 2754780 Nota: C1 Vol.: 64
Chanel 3 Note Off - Duracao: 2758620 Nota: C1 Vol.: 64
Chanel 3 Note On - Duracao: 2758620 Nota: C1 Vol.: 60
Chanel 3 Note Off - Duracao: 2762460 Nota: C1 Vol.: 60
Chanel 3 Note On - Duracao: 2762460 Nota: C1 Vol.: 63
Chanel 3 Note Off - Duracao: 2766300 Nota: C1 Vol.: 63
Chanel 3 Note On - Duracao: 2766300 Nota: C1 Vol.: 65
Chanel 3 Note Off - Duracao: 2770140 Nota: C1 Vol.: 65
Chanel 3 Note On - Duracao: 2770140 Nota: C1 Vol.: 62
Chanel 3 Note Off - Duracao: 2773980 Nota: C1 Vol.: 62
Chanel 3 Note On - Duracao: 2773980 Nota: C1 Vol.: 59
Chanel 3 Note Off - Duracao: 2777820 Nota: C1 Vol.: 59
Chanel 3 Note On - Duracao: 2777820 Nota: C1 Vol.: 63
Chanel 3 Note Off - Duracao: 2781660 Nota: C1 Vol.: 63
Chanel 3 Note On - Duracao: 2781660 Nota: C1 Vol.: 66
Chanel 3 Note Off - Duracao: 2783580 Nota: C1 Vol.: 66
Chanel 3 Note On - Duracao: 2783580 Nota: C1 Vol.: 65
Chanel 3 Note Off - Duracao: 2785500 Nota: C1 Vol.: 65
Chanel 3 Note On - Duracao: 2785500 Nota: C1 Vol.: 67
Chanel 3 Note Off - Duracao: 2787420 Nota: C1 Vol.: 67
Chanel 3 Note On - Duracao: 2787420 Nota: C1 Vol.: 68
Chanel 3 Note Off - Duracao: 2789340 Nota: C1 Vol.: 68
Chanel 3 Note On - Duracao: 2789340 Nota: C1 Vol.: 67
Chanel 3 Note Off - Duracao: 2791260 Nota: C1 Vol.: 67
Chanel 3 Note On - Duracao: 2791260 Nota: C1 Vol.: 69
Chanel 3 Note Off - Duracao: 2795100 Nota: C1 Vol.: 69
Chanel 3 Note On - Duracao: 2795100 Nota: C1 Vol.: 68
Chanel 3 Note Off - Duracao: 2798940 Nota: C1 Vol.: 68
Chanel 3 Note On - Duracao: 2798940 Nota: C1 Vol.: 62
Chanel 3 Note Off - Duracao: 2802780 Nota: C1 Vol.: 62
Chanel 3 Note On - Duracao: 2802780 Nota: C1 Vol.: 55
Chanel 3 Note Off - Duracao: 2806620 Nota: C1 Vol.: 55
Chanel 3 Note On - Duracao: 2806620 Nota: C1 Vol.: 54
Chanel 3 Note Off - Duracao: 2810460 Nota: C1 Vol.: 54
Chanel 3 Note On - Duracao: 2810460 Nota: C1 Vol.: 49
Chanel 3 Note Off - Duracao: 2814300 Nota: C1 Vol.: 49
Chanel 3 Note On - Duracao: 2814300 Nota: C1 Vol.: 54
Chanel 3 Note Off - Duracao: 2815260 Nota: C1 Vol.: 54
Chanel 3 Note On - Duracao: 2815260 Nota: C1 Vol.: 48
Chanel 3 Note Off - Duracao: 2816220 Nota: C1 Vol.: 48
Chanel 3 Note On - Duracao: 2816220 Nota: C1 Vol.: 54
Chanel 3 Note Off - Duracao: 2817180 Nota: C1 Vol.: 54
Chanel 3 Note On - Duracao: 2817180 Nota: C1 Vol.: 49
Chanel 3 Note Off - Duracao: 2819100 Nota: C1 Vol.: 49
Chanel 3 Note On - Duracao: 2819100 Nota: C1 Vol.: 47
Chanel 3 Note Off - Duracao: 2822940 Nota: C1 Vol.: 47
Chanel 3 Note On - Duracao: 2822940 Nota: C1 Vol.: 48
Chanel 3 Note Off - Duracao: 2826780 Nota: C1 Vol.: 48
Chanel 3 Note On - Duracao: 2826780 Nota: C1 Vol.: 71
Chanel 3 Note Off - Duracao: 2827740 Nota: C1 Vol.: 71
Chanel 3 Note On - Duracao: 2827740 Nota: C1 Vol.: 79
Chanel 3 Note Off - Duracao: 2828220 Nota: C1 Vol.: 79
Chanel 3 Note On - Duracao: 2828220 Nota: C1 Vol.: 66
Chanel 3 Note Off - Duracao: 2830140 Nota: C1 Vol.: 66
Chanel 3 Note On - Duracao: 2830140 Nota: C1 Vol.: 54
Chanel 3 Note Off - Duracao: 2832060 Nota: C1 Vol.: 54
Chanel 3 Note On - Duracao: 2832060 Nota: C1 Vol.: 45
Chanel 3 Note Off - Duracao: 2833980 Nota: C1 Vol.: 45
Chanel 3 Note On - Duracao: 2833980 Nota: C1 Vol.: 45
Chanel 3 Note Off - Duracao: 2835900 Nota: C1 Vol.: 45
Chanel 3 Note On - Duracao: 2835900 Nota: C1 Vol.: 43
Chanel 3 Note Off - Duracao: 2837820 Nota: C1 Vol.: 43
Chanel 3 Note On - Duracao: 2837820 Nota: C1 Vol.: 42
Chanel 3 Note Off - Duracao: 2839740 Nota: C1 Vol.: 42
Chanel 3 Note On - Duracao: 2839740 Nota: C1 Vol.: 43
Chanel 3 Note Off - Duracao: 2843580 Nota: C1 Vol.: 43
Chanel 3 Note On - Duracao: 2843580 Nota: C1 Vol.: 42
Chanel 3 Note Off - Duracao: 2847420 Nota: C1 Vol.: 42
Chanel 3 Note On - Duracao: 2847420 Nota: C1 Vol.: 42
Chanel 3 Note Off - Duracao: 2851260 Nota: C1 Vol.: 42
Chanel 3 Note On - Duracao: 2851260 Nota: C1 Vol.: 43
Chanel 3 Note Off - Duracao: 2853180 Nota: C1 Vol.: 43
Chanel 3 Note On - Duracao: 2853180 Nota: C1 Vol.: 42
Chanel 3 Note Off - Duracao: 2855100 Nota: C1 Vol.: 42
Chanel 3 Note On - Duracao: 2855100 Nota: C1 Vol.: 40
Chanel 3 Note Off - Duracao: 2858940 Nota: C1 Vol.: 40
Chanel 3 Note On - Duracao: 2858940 Nota: C1 Vol.: 45
Chanel 3 Note Off - Duracao: 2860860 Nota: C1 Vol.: 45
Chanel 3 Note On - Duracao: 2860860 Nota: C1 Vol.: 43
Chanel 3 Note Off - Duracao: 2862780 Nota: C1 Vol.: 43
Tick: 2862780 - 
System reset: 
First data byte: 0 Second data byte: 0
