Tipo de divisão:0.0
Duração:1545900 ticks
Duração:13m25s
Tempo factor:1.0
Tempo in BPM:70.0
Chanel 1 program change: Instrumento: Electric Grand
Chanel 1 Note On - Duracao: 0 Nota: C1 Vol.: 100
Chanel 2 program change: Instrumento: Electric Grand
Chanel 2 Note On - Duracao: 0 Nota: C1 Vol.: 83
Chanel 3 program change: Instrumento: Distortion Guitar
Chanel 3 Note On - Duracao: 0 Nota: C1 Vol.: 73
Chanel 4 program change: Instrumento: Music Box
Chanel 4 Note On - Duracao: 0 Nota: C1 Vol.: 62
Chanel 5 program change: Instrumento: Music Box
Chanel 5 Note On - Duracao: 0 Nota: C1 Vol.: 92
Chanel 6 program change: Instrumento: Polysynth
Chanel 6 Note On - Duracao: 0 Nota: C1 Vol.: 65
Chanel 7 program change: Instrumento: Violin
Chanel 7 Note On - Duracao: 0 Nota: C1 Vol.: 59
Chanel 8 program change: Instrumento: Violin
Chanel 8 Note On - Duracao: 0 Nota: C1 Vol.: 58
Chanel 9 program change: Instrumento: Distortion Guitar
Chanel 9 Note On - Duracao: 0 Nota: C1 Vol.: 55
Chanel 1 Note Off - Duracao: 60 Nota: C1 Vol.: 100
Chanel 1 Note On - Duracao: 60 Nota: C1 Vol.: 100
Chanel 1 Note Off - Duracao: 120 Nota: C1 Vol.: 100
Chanel 1 Note On - Duracao: 120 Nota: C1 Vol.: 100
Chanel 5 Note Off - Duracao: 120 Nota: C1 Vol.: 92
Chanel 5 Note On - Duracao: 120 Nota: C1 Vol.: 91
Chanel 1 Note Off - Duracao: 180 Nota: C1 Vol.: 100
Chanel 1 Note On - Duracao: 180 Nota: C1 Vol.: 100
Chanel 1 Note Off - Duracao: 240 Nota: C1 Vol.: 100
Chanel 1 Note On - Duracao: 240 Nota: C1 Vol.: 100
Chanel 2 Note Off - Duracao: 240 Nota: C1 Vol.: 83
Chanel 2 Note On - Duracao: 240 Nota: C1 Vol.: 89
Chanel 3 Note Off - Duracao: 240 Nota: C1 Vol.: 73
Chanel 3 Note On - Duracao: 240 Nota: C1 Vol.: 54
Chanel 4 Note Off - Duracao: 240 Nota: C1 Vol.: 62
Chanel 4 Note On - Duracao: 240 Nota: C1 Vol.: 60
Chanel 5 Note Off - Duracao: 240 Nota: C1 Vol.: 91
Chanel 5 Note On - Duracao: 240 Nota: C1 Vol.: 87
Chanel 1 Note Off - Duracao: 300 Nota: C1 Vol.: 100
Chanel 1 Note On - Duracao: 300 Nota: C1 Vol.: 100
Chanel 1 Note Off - Duracao: 360 Nota: C1 Vol.: 100
Chanel 1 Note On - Duracao: 360 Nota: C1 Vol.: 100
Chanel 5 Note Off - Duracao: 360 Nota: C1 Vol.: 87
Chanel 5 Note On - Duracao: 360 Nota: C1 Vol.: 64
Chanel 1 Note Off - Duracao: 480 Nota: C1 Vol.: 100
Chanel 1 Note On - Duracao: 480 Nota: C1 Vol.: 99
Chanel 2 Note Off - Duracao: 480 Nota: C1 Vol.: 89
Chanel 2 Note On - Duracao: 480 Nota: C1 Vol.: 88
Chanel 1 Note Off - Duracao: 600 Nota: C1 Vol.: 99
Chanel 1 Note On - Duracao: 600 Nota: C1 Vol.: 98
Chanel 1 Note Off - Duracao: 720 Nota: C1 Vol.: 98
Chanel 1 Note On - Duracao: 720 Nota: C1 Vol.: 97
Chanel 2 Note Off - Duracao: 720 Nota: C1 Vol.: 88
Chanel 2 Note On - Duracao: 720 Nota: C1 Vol.: 78
Chanel 3 Note Off - Duracao: 720 Nota: C1 Vol.: 54
Chanel 3 Note On - Duracao: 720 Nota: C1 Vol.: 52
Chanel 4 Note Off - Duracao: 720 Nota: C1 Vol.: 60
Chanel 4 Note On - Duracao: 720 Nota: C1 Vol.: 52
Chanel 1 Note Off - Duracao: 840 Nota: C1 Vol.: 97
Chanel 1 Note On - Duracao: 840 Nota: C1 Vol.: 98
Chanel 1 Note Off - Duracao: 900 Nota: C1 Vol.: 98
Chanel 1 Note On - Duracao: 900 Nota: C1 Vol.: 98
Chanel 1 Note Off - Duracao: 960 Nota: C1 Vol.: 98
Chanel 1 Note On - Duracao: 960 Nota: C1 Vol.: 98
Chanel 8 Note Off - Duracao: 960 Nota: C1 Vol.: 58
Chanel 8 Note On - Duracao: 960 Nota: C1 Vol.: 53
Chanel 9 Note Off - Duracao: 960 Nota: C1 Vol.: 55
Chanel 9 Note On - Duracao: 960 Nota: C1 Vol.: 58
Chanel 1 Note Off - Duracao: 1080 Nota: C1 Vol.: 98
Chanel 1 Note On - Duracao: 1080 Nota: C1 Vol.: 98
Chanel 1 Note Off - Duracao: 1140 Nota: C1 Vol.: 98
Chanel 1 Note On - Duracao: 1140 Nota: C1 Vol.: 99
Chanel 1 Note Off - Duracao: 1200 Nota: C1 Vol.: 99
Chanel 1 Note On - Duracao: 1200 Nota: C1 Vol.: 99
Chanel 2 Note Off - Duracao: 1200 Nota: C1 Vol.: 78
Chanel 2 Note On - Duracao: 1200 Nota: C1 Vol.: 73
Chanel 1 Note Off - Duracao: 1320 Nota: C1 Vol.: 99
Chanel 1 Note On - Duracao: 1320 Nota: C1 Vol.: 99
Chanel 5 Note Off - Duracao: 1320 Nota: C1 Vol.: 64
Chanel 5 Note On - Duracao: 1320 Nota: C1 Vol.: 50
Chanel 1 Note Off - Duracao: 1440 Nota: C1 Vol.: 99
Chanel 1 Note On - Duracao: 1440 Nota: C1 Vol.: 99
Chanel 1 Note Off - Duracao: 1560 Nota: C1 Vol.: 99
Chanel 1 Note On - Duracao: 1560 Nota: C1 Vol.: 89
Chanel 1 Note Off - Duracao: 1680 Nota: C1 Vol.: 89
Chanel 1 Note On - Duracao: 1680 Nota: C1 Vol.: 76
Chanel 2 Note Off - Duracao: 1680 Nota: C1 Vol.: 73
Chanel 2 Note On - Duracao: 1680 Nota: C1 Vol.: 76
Chanel 3 Note Off - Duracao: 1680 Nota: C1 Vol.: 52
Chanel 3 Note On - Duracao: 1680 Nota: C1 Vol.: 46
Chanel 4 Note Off - Duracao: 1680 Nota: C1 Vol.: 52
Chanel 4 Note On - Duracao: 1680 Nota: C1 Vol.: 46
Chanel 1 Note Off - Duracao: 1920 Nota: C1 Vol.: 76
Chanel 1 Note On - Duracao: 1920 Nota: C1 Vol.: 74
Chanel 2 Note Off - Duracao: 1920 Nota: C1 Vol.: 76
Chanel 2 Note On - Duracao: 1920 Nota: C1 Vol.: 80
Chanel 9 Note Off - Duracao: 1920 Nota: C1 Vol.: 58
Chanel 9 Note On - Duracao: 1920 Nota: C1 Vol.: 57
Chanel 2 Note Off - Duracao: 2160 Nota: C1 Vol.: 80
Chanel 2 Note On - Duracao: 2160 Nota: C1 Vol.: 83
Chanel 1 Note Off - Duracao: 2400 Nota: C1 Vol.: 74
Chanel 1 Note On - Duracao: 2400 Nota: C1 Vol.: 73
Chanel 2 Note Off - Duracao: 2400 Nota: C1 Vol.: 83
Chanel 2 Note On - Duracao: 2400 Nota: C1 Vol.: 91
Chanel 9 Note Off - Duracao: 2400 Nota: C1 Vol.: 57
Chanel 9 Note On - Duracao: 2400 Nota: C1 Vol.: 66
Chanel 2 Note Off - Duracao: 2520 Nota: C1 Vol.: 91
Chanel 2 Note On - Duracao: 2520 Nota: C1 Vol.: 90
Chanel 2 Note Off - Duracao: 2640 Nota: C1 Vol.: 90
Chanel 2 Note On - Duracao: 2640 Nota: C1 Vol.: 87
Chanel 3 Note Off - Duracao: 2640 Nota: C1 Vol.: 46
Chanel 3 Note On - Duracao: 2640 Nota: C1 Vol.: 54
Chanel 9 Note Off - Duracao: 2640 Nota: C1 Vol.: 66
Chanel 9 Note On - Duracao: 2640 Nota: C1 Vol.: 70
Chanel 9 Note Off - Duracao: 2760 Nota: C1 Vol.: 70
Chanel 9 Note On - Duracao: 2760 Nota: C1 Vol.: 66
Chanel 1 Note Off - Duracao: 2880 Nota: C1 Vol.: 73
Chanel 1 Note On - Duracao: 2880 Nota: C1 Vol.: 81
Chanel 2 Note Off - Duracao: 2880 Nota: C1 Vol.: 87
Chanel 2 Note On - Duracao: 2880 Nota: C1 Vol.: 90
Chanel 8 Note Off - Duracao: 2880 Nota: C1 Vol.: 53
Chanel 8 Note On - Duracao: 2880 Nota: C1 Vol.: 51
Chanel 2 Note Off - Duracao: 3000 Nota: C1 Vol.: 90
Chanel 2 Note On - Duracao: 3000 Nota: C1 Vol.: 91
Chanel 9 Note Off - Duracao: 3000 Nota: C1 Vol.: 66
Chanel 9 Note On - Duracao: 3000 Nota: C1 Vol.: 67
Chanel 1 Note Off - Duracao: 3120 Nota: C1 Vol.: 81
Chanel 1 Note On - Duracao: 3120 Nota: C1 Vol.: 94
Chanel 2 Note Off - Duracao: 3120 Nota: C1 Vol.: 91
Chanel 2 Note On - Duracao: 3120 Nota: C1 Vol.: 92
Chanel 1 Note Off - Duracao: 3240 Nota: C1 Vol.: 94
Chanel 1 Note On - Duracao: 3240 Nota: C1 Vol.: 95
Chanel 2 Note Off - Duracao: 3240 Nota: C1 Vol.: 92
Chanel 2 Note On - Duracao: 3240 Nota: C1 Vol.: 91
Chanel 9 Note Off - Duracao: 3240 Nota: C1 Vol.: 67
Chanel 9 Note On - Duracao: 3240 Nota: C1 Vol.: 65
Chanel 1 Note Off - Duracao: 3360 Nota: C1 Vol.: 95
Chanel 1 Note On - Duracao: 3360 Nota: C1 Vol.: 88
Chanel 2 Note Off - Duracao: 3360 Nota: C1 Vol.: 91
Chanel 2 Note On - Duracao: 3360 Nota: C1 Vol.: 89
Chanel 1 Note Off - Duracao: 3480 Nota: C1 Vol.: 88
Chanel 1 Note On - Duracao: 3480 Nota: C1 Vol.: 61
Chanel 2 Note Off - Duracao: 3480 Nota: C1 Vol.: 89
Chanel 2 Note On - Duracao: 3480 Nota: C1 Vol.: 69
Chanel 9 Note Off - Duracao: 3480 Nota: C1 Vol.: 65
Chanel 9 Note On - Duracao: 3480 Nota: C1 Vol.: 74
Chanel 3 Note Off - Duracao: 3600 Nota: C1 Vol.: 54
Chanel 3 Note On - Duracao: 3600 Nota: C1 Vol.: 56
Chanel 4 Note Off - Duracao: 3600 Nota: C1 Vol.: 46
Chanel 4 Note On - Duracao: 3600 Nota: C1 Vol.: 51
Chanel 9 Note Off - Duracao: 3600 Nota: C1 Vol.: 74
Chanel 9 Note On - Duracao: 3600 Nota: C1 Vol.: 75
Chanel 1 Note Off - Duracao: 3720 Nota: C1 Vol.: 61
Chanel 1 Note On - Duracao: 3720 Nota: C1 Vol.: 58
Chanel 2 Note Off - Duracao: 3720 Nota: C1 Vol.: 69
Chanel 2 Note On - Duracao: 3720 Nota: C1 Vol.: 58
Chanel 9 Note Off - Duracao: 3720 Nota: C1 Vol.: 75
Chanel 9 Note On - Duracao: 3720 Nota: C1 Vol.: 63
Chanel 6 Note Off - Duracao: 3840 Nota: C1 Vol.: 65
Chanel 6 Note On - Duracao: 3840 Nota: C1 Vol.: 73
Chanel 7 Note Off - Duracao: 3840 Nota: C1 Vol.: 59
Chanel 7 Note On - Duracao: 3840 Nota: C1 Vol.: 55
Chanel 1 Note Off - Duracao: 3960 Nota: C1 Vol.: 58
Chanel 1 Note On - Duracao: 3960 Nota: C1 Vol.: 57
Chanel 9 Note Off - Duracao: 3960 Nota: C1 Vol.: 63
Chanel 9 Note On - Duracao: 3960 Nota: C1 Vol.: 75
Chanel 3 Note Off - Duracao: 4080 Nota: C1 Vol.: 56
Chanel 3 Note On - Duracao: 4080 Nota: C1 Vol.: 52
Chanel 9 Note Off - Duracao: 4080 Nota: C1 Vol.: 75
Chanel 9 Note On - Duracao: 4080 Nota: C1 Vol.: 61
Chanel 1 Note Off - Duracao: 4200 Nota: C1 Vol.: 57
Chanel 1 Note On - Duracao: 4200 Nota: C1 Vol.: 56
Chanel 2 Note Off - Duracao: 4200 Nota: C1 Vol.: 58
Chanel 2 Note On - Duracao: 4200 Nota: C1 Vol.: 56
Chanel 1 Note Off - Duracao: 4440 Nota: C1 Vol.: 56
Chanel 1 Note On - Duracao: 4440 Nota: C1 Vol.: 71
Chanel 2 Note Off - Duracao: 4440 Nota: C1 Vol.: 56
Chanel 2 Note On - Duracao: 4440 Nota: C1 Vol.: 52
Chanel 1 Note Off - Duracao: 4560 Nota: C1 Vol.: 71
Chanel 1 Note On - Duracao: 4560 Nota: C1 Vol.: 77
Chanel 4 Note Off - Duracao: 4560 Nota: C1 Vol.: 51
Chanel 4 Note On - Duracao: 4560 Nota: C1 Vol.: 46
Chanel 9 Note Off - Duracao: 4560 Nota: C1 Vol.: 61
Chanel 9 Note On - Duracao: 4560 Nota: C1 Vol.: 67
Chanel 1 Note Off - Duracao: 4680 Nota: C1 Vol.: 77
Chanel 1 Note On - Duracao: 4680 Nota: C1 Vol.: 79
Chanel 1 Note Off - Duracao: 4800 Nota: C1 Vol.: 79
Chanel 1 Note On - Duracao: 4800 Nota: C1 Vol.: 71
Chanel 8 Note Off - Duracao: 4800 Nota: C1 Vol.: 51
Chanel 8 Note On - Duracao: 4800 Nota: C1 Vol.: 47
Chanel 1 Note Off - Duracao: 4920 Nota: C1 Vol.: 71
Chanel 1 Note On - Duracao: 4920 Nota: C1 Vol.: 67
Chanel 2 Note Off - Duracao: 4920 Nota: C1 Vol.: 52
Chanel 2 Note On - Duracao: 4920 Nota: C1 Vol.: 56
Chanel 1 Note Off - Duracao: 5040 Nota: C1 Vol.: 67
Chanel 1 Note On - Duracao: 5040 Nota: C1 Vol.: 64
Chanel 3 Note Off - Duracao: 5040 Nota: C1 Vol.: 52
Chanel 3 Note On - Duracao: 5040 Nota: C1 Vol.: 69
Chanel 9 Note Off - Duracao: 5040 Nota: C1 Vol.: 67
Chanel 9 Note On - Duracao: 5040 Nota: C1 Vol.: 51
Chanel 1 Note Off - Duracao: 5160 Nota: C1 Vol.: 64
Chanel 1 Note On - Duracao: 5160 Nota: C1 Vol.: 64
Chanel 2 Note Off - Duracao: 5160 Nota: C1 Vol.: 56
Chanel 2 Note On - Duracao: 5160 Nota: C1 Vol.: 53
Chanel 5 Note Off - Duracao: 5160 Nota: C1 Vol.: 50
Chanel 5 Note On - Duracao: 5160 Nota: C1 Vol.: 52
Chanel 1 Note Off - Duracao: 5280 Nota: C1 Vol.: 64
Chanel 1 Note On - Duracao: 5280 Nota: C1 Vol.: 67
Chanel 3 Note Off - Duracao: 5280 Nota: C1 Vol.: 69
Chanel 3 Note On - Duracao: 5280 Nota: C1 Vol.: 59
Chanel 1 Note Off - Duracao: 5400 Nota: C1 Vol.: 67
Chanel 1 Note On - Duracao: 5400 Nota: C1 Vol.: 80
Chanel 2 Note Off - Duracao: 5400 Nota: C1 Vol.: 53
Chanel 2 Note On - Duracao: 5400 Nota: C1 Vol.: 57
Chanel 1 Note Off - Duracao: 5520 Nota: C1 Vol.: 80
Chanel 1 Note On - Duracao: 5520 Nota: C1 Vol.: 92
Chanel 2 Note Off - Duracao: 5520 Nota: C1 Vol.: 57
Chanel 2 Note On - Duracao: 5520 Nota: C1 Vol.: 63
Chanel 4 Note Off - Duracao: 5520 Nota: C1 Vol.: 46
Chanel 4 Note On - Duracao: 5520 Nota: C1 Vol.: 64
Chanel 1 Note Off - Duracao: 5640 Nota: C1 Vol.: 92
Chanel 1 Note On - Duracao: 5640 Nota: C1 Vol.: 94
Chanel 2 Note Off - Duracao: 5640 Nota: C1 Vol.: 63
Chanel 2 Note On - Duracao: 5640 Nota: C1 Vol.: 61
Chanel 1 Note Off - Duracao: 5760 Nota: C1 Vol.: 94
Chanel 1 Note On - Duracao: 5760 Nota: C1 Vol.: 96
Chanel 2 Note Off - Duracao: 5760 Nota: C1 Vol.: 61
Chanel 2 Note On - Duracao: 5760 Nota: C1 Vol.: 66
Chanel 3 Note Off - Duracao: 5760 Nota: C1 Vol.: 59
Chanel 3 Note On - Duracao: 5760 Nota: C1 Vol.: 65
Chanel 4 Note Off - Duracao: 5760 Nota: C1 Vol.: 64
Chanel 4 Note On - Duracao: 5760 Nota: C1 Vol.: 60
Chanel 6 Note Off - Duracao: 5760 Nota: C1 Vol.: 73
Chanel 6 Note On - Duracao: 5760 Nota: C1 Vol.: 71
Chanel 1 Note Off - Duracao: 5820 Nota: C1 Vol.: 96
Chanel 1 Note On - Duracao: 5820 Nota: C1 Vol.: 76
Chanel 2 Note Off - Duracao: 5880 Nota: C1 Vol.: 66
Chanel 2 Note On - Duracao: 5880 Nota: C1 Vol.: 55
Chanel 3 Note Off - Duracao: 6000 Nota: C1 Vol.: 65
Chanel 3 Note On - Duracao: 6000 Nota: C1 Vol.: 64
Chanel 4 Note Off - Duracao: 6000 Nota: C1 Vol.: 60
Chanel 4 Note On - Duracao: 6000 Nota: C1 Vol.: 55
Chanel 9 Note Off - Duracao: 6000 Nota: C1 Vol.: 51
Chanel 9 Note On - Duracao: 6000 Nota: C1 Vol.: 51
Chanel 1 Note Off - Duracao: 6060 Nota: C1 Vol.: 76
Chanel 1 Note On - Duracao: 6060 Nota: C1 Vol.: 62
Chanel 2 Note Off - Duracao: 6120 Nota: C1 Vol.: 55
Chanel 2 Note On - Duracao: 6120 Nota: C1 Vol.: 57
Chanel 3 Note Off - Duracao: 6240 Nota: C1 Vol.: 64
Chanel 3 Note On - Duracao: 6240 Nota: C1 Vol.: 52
Chanel 4 Note Off - Duracao: 6240 Nota: C1 Vol.: 55
Chanel 4 Note On - Duracao: 6240 Nota: C1 Vol.: 57
Chanel 2 Note Off - Duracao: 6360 Nota: C1 Vol.: 57
Chanel 2 Note On - Duracao: 6360 Nota: C1 Vol.: 60
Chanel 4 Note Off - Duracao: 6480 Nota: C1 Vol.: 57
Chanel 4 Note On - Duracao: 6480 Nota: C1 Vol.: 55
Chanel 1 Note Off - Duracao: 6540 Nota: C1 Vol.: 62
Chanel 1 Note On - Duracao: 6540 Nota: C1 Vol.: 69
Chanel 2 Note Off - Duracao: 6600 Nota: C1 Vol.: 60
Chanel 2 Note On - Duracao: 6600 Nota: C1 Vol.: 66
Chanel 8 Note Off - Duracao: 6720 Nota: C1 Vol.: 47
Chanel 8 Note On - Duracao: 6720 Nota: C1 Vol.: 45
Chanel 1 Note Off - Duracao: 6780 Nota: C1 Vol.: 69
Chanel 1 Note On - Duracao: 6780 Nota: C1 Vol.: 75
Chanel 2 Note Off - Duracao: 6840 Nota: C1 Vol.: 66
Chanel 2 Note On - Duracao: 6840 Nota: C1 Vol.: 69
Chanel 1 Note Off - Duracao: 6900 Nota: C1 Vol.: 75
Chanel 1 Note On - Duracao: 6900 Nota: C1 Vol.: 75
Chanel 4 Note Off - Duracao: 6960 Nota: C1 Vol.: 55
Chanel 4 Note On - Duracao: 6960 Nota: C1 Vol.: 57
Chanel 9 Note Off - Duracao: 6960 Nota: C1 Vol.: 51
Chanel 9 Note On - Duracao: 6960 Nota: C1 Vol.: 53
Chanel 2 Note Off - Duracao: 7080 Nota: C1 Vol.: 69
Chanel 2 Note On - Duracao: 7080 Nota: C1 Vol.: 81
Chanel 5 Note Off - Duracao: 7080 Nota: C1 Vol.: 52
Chanel 5 Note On - Duracao: 7080 Nota: C1 Vol.: 48
Chanel 1 Note Off - Duracao: 7140 Nota: C1 Vol.: 75
Chanel 1 Note On - Duracao: 7140 Nota: C1 Vol.: 90
Chanel 2 Note Off - Duracao: 7200 Nota: C1 Vol.: 81
Chanel 2 Note On - Duracao: 7200 Nota: C1 Vol.: 81
Chanel 3 Note Off - Duracao: 7200 Nota: C1 Vol.: 52
Chanel 3 Note On - Duracao: 7200 Nota: C1 Vol.: 59
Chanel 1 Note Off - Duracao: 7260 Nota: C1 Vol.: 90
Chanel 1 Note On - Duracao: 7260 Nota: C1 Vol.: 91
Chanel 2 Note Off - Duracao: 7320 Nota: C1 Vol.: 81
Chanel 2 Note On - Duracao: 7320 Nota: C1 Vol.: 75
Chanel 1 Note Off - Duracao: 7380 Nota: C1 Vol.: 91
Chanel 1 Note On - Duracao: 7380 Nota: C1 Vol.: 91
Chanel 4 Note Off - Duracao: 7440 Nota: C1 Vol.: 57
Chanel 4 Note On - Duracao: 7440 Nota: C1 Vol.: 61
Chanel 9 Note Off - Duracao: 7440 Nota: C1 Vol.: 53
Chanel 9 Note On - Duracao: 7440 Nota: C1 Vol.: 56
Chanel 1 Note Off - Duracao: 7500 Nota: C1 Vol.: 91
Chanel 1 Note On - Duracao: 7500 Nota: C1 Vol.: 96
Chanel 1 Note Off - Duracao: 7560 Nota: C1 Vol.: 96
Chanel 1 Note On - Duracao: 7560 Nota: C1 Vol.: 96
Chanel 2 Note Off - Duracao: 7560 Nota: C1 Vol.: 75
Chanel 2 Note On - Duracao: 7560 Nota: C1 Vol.: 69
Chanel 1 Note Off - Duracao: 7620 Nota: C1 Vol.: 96
Chanel 1 Note On - Duracao: 7620 Nota: C1 Vol.: 95
Chanel 3 Note Off - Duracao: 7680 Nota: C1 Vol.: 59
Chanel 3 Note On - Duracao: 7680 Nota: C1 Vol.: 55
Chanel 4 Note Off - Duracao: 7680 Nota: C1 Vol.: 61
Chanel 4 Note On - Duracao: 7680 Nota: C1 Vol.: 65
Chanel 6 Note Off - Duracao: 7680 Nota: C1 Vol.: 71
Chanel 6 Note On - Duracao: 7680 Nota: C1 Vol.: 73
Chanel 7 Note Off - Duracao: 7680 Nota: C1 Vol.: 55
Chanel 7 Note On - Duracao: 7680 Nota: C1 Vol.: 58
Chanel 1 Note Off - Duracao: 7740 Nota: C1 Vol.: 95
Chanel 1 Note On - Duracao: 7740 Nota: C1 Vol.: 96
Chanel 2 Note Off - Duracao: 7800 Nota: C1 Vol.: 69
Chanel 2 Note On - Duracao: 7800 Nota: C1 Vol.: 68
Chanel 1 Note Off - Duracao: 7860 Nota: C1 Vol.: 96
Chanel 1 Note On - Duracao: 7860 Nota: C1 Vol.: 98
Chanel 1 Note Off - Duracao: 7920 Nota: C1 Vol.: 98
Chanel 1 Note On - Duracao: 7920 Nota: C1 Vol.: 98
Chanel 4 Note Off - Duracao: 7920 Nota: C1 Vol.: 65
Chanel 4 Note On - Duracao: 7920 Nota: C1 Vol.: 40
Chanel 9 Note Off - Duracao: 7920 Nota: C1 Vol.: 56
Chanel 9 Note On - Duracao: 7920 Nota: C1 Vol.: 56
Chanel 1 Note Off - Duracao: 7980 Nota: C1 Vol.: 98
Chanel 1 Note On - Duracao: 7980 Nota: C1 Vol.: 99
Chanel 1 Note Off - Duracao: 8040 Nota: C1 Vol.: 99
Chanel 1 Note On - Duracao: 8040 Nota: C1 Vol.: 97
Chanel 2 Note Off - Duracao: 8040 Nota: C1 Vol.: 68
Chanel 2 Note On - Duracao: 8040 Nota: C1 Vol.: 66
Chanel 1 Note Off - Duracao: 8100 Nota: C1 Vol.: 97
Chanel 1 Note On - Duracao: 8100 Nota: C1 Vol.: 96
Chanel 1 Note Off - Duracao: 8160 Nota: C1 Vol.: 96
Chanel 1 Note On - Duracao: 8160 Nota: C1 Vol.: 94
Chanel 1 Note Off - Duracao: 8220 Nota: C1 Vol.: 94
Chanel 1 Note On - Duracao: 8220 Nota: C1 Vol.: 92
Chanel 1 Note Off - Duracao: 8280 Nota: C1 Vol.: 92
Chanel 1 Note On - Duracao: 8280 Nota: C1 Vol.: 88
Chanel 2 Note Off - Duracao: 8280 Nota: C1 Vol.: 66
Chanel 2 Note On - Duracao: 8280 Nota: C1 Vol.: 66
Chanel 1 Note Off - Duracao: 8400 Nota: C1 Vol.: 88
Chanel 1 Note On - Duracao: 8400 Nota: C1 Vol.: 83
Chanel 9 Note Off - Duracao: 8400 Nota: C1 Vol.: 56
Chanel 9 Note On - Duracao: 8400 Nota: C1 Vol.: 57
Chanel 2 Note Off - Duracao: 8520 Nota: C1 Vol.: 66
Chanel 2 Note On - Duracao: 8520 Nota: C1 Vol.: 60
Chanel 1 Note Off - Duracao: 8640 Nota: C1 Vol.: 83
Chanel 1 Note On - Duracao: 8640 Nota: C1 Vol.: 77
Chanel 3 Note Off - Duracao: 8640 Nota: C1 Vol.: 55
Chanel 3 Note On - Duracao: 8640 Nota: C1 Vol.: 59
Chanel 8 Note Off - Duracao: 8640 Nota: C1 Vol.: 45
Chanel 8 Note On - Duracao: 8640 Nota: C1 Vol.: 44
Chanel 2 Note Off - Duracao: 8760 Nota: C1 Vol.: 60
Chanel 2 Note On - Duracao: 8760 Nota: C1 Vol.: 62
Chanel 1 Note Off - Duracao: 8880 Nota: C1 Vol.: 77
Chanel 1 Note On - Duracao: 8880 Nota: C1 Vol.: 73
Chanel 9 Note Off - Duracao: 8880 Nota: C1 Vol.: 57
Chanel 9 Note On - Duracao: 8880 Nota: C1 Vol.: 56
Chanel 2 Note Off - Duracao: 9000 Nota: C1 Vol.: 62
Chanel 2 Note On - Duracao: 9000 Nota: C1 Vol.: 40
Chanel 5 Note Off - Duracao: 9000 Nota: C1 Vol.: 48
Chanel 5 Note On - Duracao: 9000 Nota: C1 Vol.: 66
Chanel 1 Note Off - Duracao: 9120 Nota: C1 Vol.: 73
Chanel 1 Note On - Duracao: 9120 Nota: C1 Vol.: 72
Chanel 3 Note Off - Duracao: 9120 Nota: C1 Vol.: 59
Chanel 3 Note On - Duracao: 9120 Nota: C1 Vol.: 62
Chanel 5 Note Off - Duracao: 9240 Nota: C1 Vol.: 66
Chanel 5 Note On - Duracao: 9240 Nota: C1 Vol.: 60
Chanel 1 Note Off - Duracao: 9360 Nota: C1 Vol.: 72
Chanel 1 Note On - Duracao: 9360 Nota: C1 Vol.: 76
Chanel 9 Note Off - Duracao: 9360 Nota: C1 Vol.: 56
Chanel 9 Note On - Duracao: 9360 Nota: C1 Vol.: 54
Chanel 5 Note Off - Duracao: 9480 Nota: C1 Vol.: 60
Chanel 5 Note On - Duracao: 9480 Nota: C1 Vol.: 57
Chanel 1 Note Off - Duracao: 9600 Nota: C1 Vol.: 76
Chanel 1 Note On - Duracao: 9600 Nota: C1 Vol.: 83
Chanel 3 Note Off - Duracao: 9600 Nota: C1 Vol.: 62
Chanel 3 Note On - Duracao: 9600 Nota: C1 Vol.: 81
Chanel 6 Note Off - Duracao: 9600 Nota: C1 Vol.: 73
Chanel 6 Note On - Duracao: 9600 Nota: C1 Vol.: 69
Chanel 1 Note Off - Duracao: 9720 Nota: C1 Vol.: 83
Chanel 1 Note On - Duracao: 9720 Nota: C1 Vol.: 88
Chanel 3 Note Off - Duracao: 9720 Nota: C1 Vol.: 81
Chanel 3 Note On - Duracao: 9720 Nota: C1 Vol.: 78
Chanel 1 Note Off - Duracao: 9840 Nota: C1 Vol.: 88
Chanel 1 Note On - Duracao: 9840 Nota: C1 Vol.: 92
Chanel 4 Note Off - Duracao: 9840 Nota: C1 Vol.: 40
Chanel 4 Note On - Duracao: 9840 Nota: C1 Vol.: 60
Chanel 9 Note Off - Duracao: 9840 Nota: C1 Vol.: 54
Chanel 9 Note On - Duracao: 9840 Nota: C1 Vol.: 56
Chanel 1 Note Off - Duracao: 9960 Nota: C1 Vol.: 92
Chanel 1 Note On - Duracao: 9960 Nota: C1 Vol.: 95
Chanel 2 Note Off - Duracao: 9960 Nota: C1 Vol.: 40
Chanel 2 Note On - Duracao: 9960 Nota: C1 Vol.: 40
Chanel 3 Note Off - Duracao: 9960 Nota: C1 Vol.: 78
Chanel 3 Note On - Duracao: 9960 Nota: C1 Vol.: 71
Chanel 5 Note Off - Duracao: 9960 Nota: C1 Vol.: 57
Chanel 5 Note On - Duracao: 9960 Nota: C1 Vol.: 61
Chanel 1 Note Off - Duracao: 10020 Nota: C1 Vol.: 95
Chanel 1 Note On - Duracao: 10020 Nota: C1 Vol.: 94
Chanel 1 Note Off - Duracao: 10080 Nota: C1 Vol.: 94
Chanel 1 Note On - Duracao: 10080 Nota: C1 Vol.: 97
Chanel 1 Note Off - Duracao: 10140 Nota: C1 Vol.: 97
Chanel 1 Note On - Duracao: 10140 Nota: C1 Vol.: 95
Chanel 3 Note Off - Duracao: 10200 Nota: C1 Vol.: 71
Chanel 3 Note On - Duracao: 10200 Nota: C1 Vol.: 63
Chanel 5 Note Off - Duracao: 10200 Nota: C1 Vol.: 61
Chanel 5 Note On - Duracao: 10200 Nota: C1 Vol.: 62
Chanel 1 Note Off - Duracao: 10260 Nota: C1 Vol.: 95
Chanel 1 Note On - Duracao: 10260 Nota: C1 Vol.: 98
Chanel 1 Note Off - Duracao: 10320 Nota: C1 Vol.: 98
Chanel 1 Note On - Duracao: 10320 Nota: C1 Vol.: 91
Chanel 4 Note Off - Duracao: 10320 Nota: C1 Vol.: 60
Chanel 4 Note On - Duracao: 10320 Nota: C1 Vol.: 64
Chanel 9 Note Off - Duracao: 10320 Nota: C1 Vol.: 56
Chanel 9 Note On - Duracao: 10320 Nota: C1 Vol.: 60
Chanel 1 Note Off - Duracao: 10440 Nota: C1 Vol.: 91
Chanel 1 Note On - Duracao: 10440 Nota: C1 Vol.: 85
Chanel 5 Note Off - Duracao: 10440 Nota: C1 Vol.: 62
Chanel 5 Note On - Duracao: 10440 Nota: C1 Vol.: 60
Chanel 1 Note Off - Duracao: 10560 Nota: C1 Vol.: 85
Chanel 1 Note On - Duracao: 10560 Nota: C1 Vol.: 85
Chanel 4 Note Off - Duracao: 10560 Nota: C1 Vol.: 64
Chanel 4 Note On - Duracao: 10560 Nota: C1 Vol.: 42
Chanel 8 Note Off - Duracao: 10560 Nota: C1 Vol.: 44
Chanel 8 Note On - Duracao: 10560 Nota: C1 Vol.: 45
Chanel 1 Note Off - Duracao: 10680 Nota: C1 Vol.: 85
Chanel 1 Note On - Duracao: 10680 Nota: C1 Vol.: 87
Chanel 3 Note Off - Duracao: 10680 Nota: C1 Vol.: 63
Chanel 3 Note On - Duracao: 10680 Nota: C1 Vol.: 72
Chanel 5 Note Off - Duracao: 10680 Nota: C1 Vol.: 60
Chanel 5 Note On - Duracao: 10680 Nota: C1 Vol.: 55
Chanel 1 Note Off - Duracao: 10800 Nota: C1 Vol.: 87
Chanel 1 Note On - Duracao: 10800 Nota: C1 Vol.: 86
Chanel 9 Note Off - Duracao: 10800 Nota: C1 Vol.: 60
Chanel 9 Note On - Duracao: 10800 Nota: C1 Vol.: 56
Chanel 2 Note Off - Duracao: 10920 Nota: C1 Vol.: 40
Chanel 2 Note On - Duracao: 10920 Nota: C1 Vol.: 56
Chanel 3 Note Off - Duracao: 10920 Nota: C1 Vol.: 72
Chanel 3 Note On - Duracao: 10920 Nota: C1 Vol.: 72
Chanel 1 Note Off - Duracao: 11040 Nota: C1 Vol.: 86
Chanel 1 Note On - Duracao: 11040 Nota: C1 Vol.: 85
Chanel 2 Note Off - Duracao: 11160 Nota: C1 Vol.: 56
Chanel 2 Note On - Duracao: 11160 Nota: C1 Vol.: 49
Chanel 3 Note Off - Duracao: 11160 Nota: C1 Vol.: 72
Chanel 3 Note On - Duracao: 11160 Nota: C1 Vol.: 55
Chanel 5 Note Off - Duracao: 11160 Nota: C1 Vol.: 55
Chanel 5 Note On - Duracao: 11160 Nota: C1 Vol.: 51
Chanel 1 Note Off - Duracao: 11280 Nota: C1 Vol.: 85
Chanel 1 Note On - Duracao: 11280 Nota: C1 Vol.: 83
Chanel 9 Note Off - Duracao: 11280 Nota: C1 Vol.: 56
Chanel 9 Note On - Duracao: 11280 Nota: C1 Vol.: 48
Chanel 2 Note Off - Duracao: 11400 Nota: C1 Vol.: 49
Chanel 2 Note On - Duracao: 11400 Nota: C1 Vol.: 42
Chanel 1 Note Off - Duracao: 11520 Nota: C1 Vol.: 83
Chanel 1 Note On - Duracao: 11520 Nota: C1 Vol.: 79
Chanel 6 Note Off - Duracao: 11520 Nota: C1 Vol.: 69
Chanel 6 Note On - Duracao: 11520 Nota: C1 Vol.: 68
Chanel 7 Note Off - Duracao: 11520 Nota: C1 Vol.: 58
Chanel 7 Note On - Duracao: 11520 Nota: C1 Vol.: 58
Chanel 2 Note Off - Duracao: 11640 Nota: C1 Vol.: 42
Chanel 2 Note On - Duracao: 11640 Nota: C1 Vol.: 41
Chanel 3 Note Off - Duracao: 11640 Nota: C1 Vol.: 55
Chanel 3 Note On - Duracao: 11640 Nota: C1 Vol.: 59
Chanel 5 Note Off - Duracao: 11640 Nota: C1 Vol.: 51
Chanel 5 Note On - Duracao: 11640 Nota: C1 Vol.: 56
Chanel 1 Note Off - Duracao: 11760 Nota: C1 Vol.: 79
Chanel 1 Note On - Duracao: 11760 Nota: C1 Vol.: 89
Chanel 1 Note Off - Duracao: 11880 Nota: C1 Vol.: 89
Chanel 1 Note On - Duracao: 11880 Nota: C1 Vol.: 87
Chanel 2 Note Off - Duracao: 11880 Nota: C1 Vol.: 41
Chanel 2 Note On - Duracao: 11880 Nota: C1 Vol.: 44
Chanel 1 Note Off - Duracao: 12000 Nota: C1 Vol.: 87
Chanel 1 Note On - Duracao: 12000 Nota: C1 Vol.: 85
Chanel 2 Note Off - Duracao: 12120 Nota: C1 Vol.: 44
Chanel 2 Note On - Duracao: 12120 Nota: C1 Vol.: 54
Chanel 3 Note Off - Duracao: 12120 Nota: C1 Vol.: 59
Chanel 3 Note On - Duracao: 12120 Nota: C1 Vol.: 55
Chanel 5 Note Off - Duracao: 12120 Nota: C1 Vol.: 56
Chanel 5 Note On - Duracao: 12120 Nota: C1 Vol.: 64
Chanel 1 Note Off - Duracao: 12240 Nota: C1 Vol.: 85
Chanel 1 Note On - Duracao: 12240 Nota: C1 Vol.: 92
Chanel 9 Note Off - Duracao: 12240 Nota: C1 Vol.: 48
Chanel 9 Note On - Duracao: 12240 Nota: C1 Vol.: 41
Chanel 1 Note Off - Duracao: 12360 Nota: C1 Vol.: 92
Chanel 1 Note On - Duracao: 12360 Nota: C1 Vol.: 98
Chanel 2 Note Off - Duracao: 12360 Nota: C1 Vol.: 54
Chanel 2 Note On - Duracao: 12360 Nota: C1 Vol.: 60
Chanel 5 Note Off - Duracao: 12360 Nota: C1 Vol.: 64
Chanel 5 Note On - Duracao: 12360 Nota: C1 Vol.: 62
Chanel 1 Note Off - Duracao: 12480 Nota: C1 Vol.: 98
Chanel 1 Note On - Duracao: 12480 Nota: C1 Vol.: 97
Chanel 4 Note Off - Duracao: 12480 Nota: C1 Vol.: 42
Chanel 4 Note On - Duracao: 12480 Nota: C1 Vol.: 43
Chanel 8 Note Off - Duracao: 12480 Nota: C1 Vol.: 45
Chanel 8 Note On - Duracao: 12480 Nota: C1 Vol.: 48
Chanel 1 Note Off - Duracao: 12600 Nota: C1 Vol.: 97
Chanel 1 Note On - Duracao: 12600 Nota: C1 Vol.: 97
Chanel 2 Note Off - Duracao: 12600 Nota: C1 Vol.: 60
Chanel 2 Note On - Duracao: 12600 Nota: C1 Vol.: 54
Chanel 3 Note Off - Duracao: 12600 Nota: C1 Vol.: 55
Chanel 3 Note On - Duracao: 12600 Nota: C1 Vol.: 62
Chanel 5 Note Off - Duracao: 12600 Nota: C1 Vol.: 62
Chanel 5 Note On - Duracao: 12600 Nota: C1 Vol.: 66
Chanel 1 Note Off - Duracao: 12660 Nota: C1 Vol.: 97
Chanel 1 Note On - Duracao: 12660 Nota: C1 Vol.: 96
Chanel 1 Note Off - Duracao: 12720 Nota: C1 Vol.: 96
Chanel 1 Note On - Duracao: 12720 Nota: C1 Vol.: 97
Chanel 1 Note Off - Duracao: 12780 Nota: C1 Vol.: 97
Chanel 1 Note On - Duracao: 12780 Nota: C1 Vol.: 100
Chanel 1 Note Off - Duracao: 12840 Nota: C1 Vol.: 100
Chanel 1 Note On - Duracao: 12840 Nota: C1 Vol.: 99
Chanel 3 Note Off - Duracao: 12840 Nota: C1 Vol.: 62
Chanel 3 Note On - Duracao: 12840 Nota: C1 Vol.: 66
Chanel 5 Note Off - Duracao: 12840 Nota: C1 Vol.: 66
Chanel 5 Note On - Duracao: 12840 Nota: C1 Vol.: 64
Chanel 1 Note Off - Duracao: 12960 Nota: C1 Vol.: 99
Chanel 1 Note On - Duracao: 12960 Nota: C1 Vol.: 100
Chanel 1 Note Off - Duracao: 13020 Nota: C1 Vol.: 100
Chanel 1 Note On - Duracao: 13020 Nota: C1 Vol.: 100
Chanel 1 Note Off - Duracao: 13080 Nota: C1 Vol.: 100
Chanel 1 Note On - Duracao: 13080 Nota: C1 Vol.: 99
Chanel 3 Note Off - Duracao: 13080 Nota: C1 Vol.: 66
Chanel 3 Note On - Duracao: 13080 Nota: C1 Vol.: 47
Chanel 5 Note Off - Duracao: 13080 Nota: C1 Vol.: 64
Chanel 5 Note On - Duracao: 13080 Nota: C1 Vol.: 67
Chanel 1 Note Off - Duracao: 13200 Nota: C1 Vol.: 99
Chanel 1 Note On - Duracao: 13200 Nota: C1 Vol.: 97
Chanel 1 Note Off - Duracao: 13320 Nota: C1 Vol.: 97
Chanel 1 Note On - Duracao: 13320 Nota: C1 Vol.: 96
Chanel 5 Note Off - Duracao: 13320 Nota: C1 Vol.: 67
Chanel 5 Note On - Duracao: 13320 Nota: C1 Vol.: 68
Chanel 1 Note Off - Duracao: 13440 Nota: C1 Vol.: 96
Chanel 1 Note On - Duracao: 13440 Nota: C1 Vol.: 98
Chanel 6 Note Off - Duracao: 13440 Nota: C1 Vol.: 68
Chanel 6 Note On - Duracao: 13440 Nota: C1 Vol.: 65
Chanel 8 Note Off - Duracao: 13440 Nota: C1 Vol.: 48
Chanel 8 Note On - Duracao: 13440 Nota: C1 Vol.: 50
Chanel 1 Note Off - Duracao: 13560 Nota: C1 Vol.: 98
Chanel 1 Note On - Duracao: 13560 Nota: C1 Vol.: 99
Chanel 5 Note Off - Duracao: 13560 Nota: C1 Vol.: 68
Chanel 5 Note On - Duracao: 13560 Nota: C1 Vol.: 67
Chanel 1 Note Off - Duracao: 13620 Nota: C1 Vol.: 99
Chanel 1 Note On - Duracao: 13620 Nota: C1 Vol.: 99
Chanel 1 Note Off - Duracao: 13740 Nota: C1 Vol.: 99
Chanel 1 Note On - Duracao: 13740 Nota: C1 Vol.: 100
Chanel 1 Note Off - Duracao: 13800 Nota: C1 Vol.: 100
Chanel 1 Note On - Duracao: 13800 Nota: C1 Vol.: 100
Chanel 5 Note Off - Duracao: 13800 Nota: C1 Vol.: 67
Chanel 5 Note On - Duracao: 13800 Nota: C1 Vol.: 69
Chanel 1 Note Off - Duracao: 13860 Nota: C1 Vol.: 100
Chanel 1 Note On - Duracao: 13860 Nota: C1 Vol.: 100
Chanel 1 Note Off - Duracao: 13920 Nota: C1 Vol.: 100
Chanel 1 Note On - Duracao: 13920 Nota: C1 Vol.: 100
Chanel 1 Note Off - Duracao: 14040 Nota: C1 Vol.: 100
Chanel 1 Note On - Duracao: 14040 Nota: C1 Vol.: 100
Chanel 3 Note Off - Duracao: 14040 Nota: C1 Vol.: 47
Chanel 3 Note On - Duracao: 14040 Nota: C1 Vol.: 40
Chanel 5 Note Off - Duracao: 14040 Nota: C1 Vol.: 69
Chanel 5 Note On - Duracao: 14040 Nota: C1 Vol.: 69
Chanel 1 Note Off - Duracao: 14100 Nota: C1 Vol.: 100
Chanel 1 Note On - Duracao: 14100 Nota: C1 Vol.: 98
Chanel 9 Note Off - Duracao: 14160 Nota: C1 Vol.: 41
Chanel 9 Note On - Duracao: 14160 Nota: C1 Vol.: 52
Chanel 1 Note Off - Duracao: 14220 Nota: C1 Vol.: 98
Chanel 1 Note On - Duracao: 14220 Nota: C1 Vol.: 99
Chanel 1 Note Off - Duracao: 14280 Nota: C1 Vol.: 99
Chanel 1 Note On - Duracao: 14280 Nota: C1 Vol.: 99
Chanel 5 Note Off - Duracao: 14280 Nota: C1 Vol.: 69
Chanel 5 Note On - Duracao: 14280 Nota: C1 Vol.: 70
Chanel 1 Note Off - Duracao: 14340 Nota: C1 Vol.: 99
Chanel 1 Note On - Duracao: 14340 Nota: C1 Vol.: 97
Chanel 4 Note Off - Duracao: 14400 Nota: C1 Vol.: 43
Chanel 4 Note On - Duracao: 14400 Nota: C1 Vol.: 82
Chanel 8 Note Off - Duracao: 14400 Nota: C1 Vol.: 50
Chanel 8 Note On - Duracao: 14400 Nota: C1 Vol.: 49
Chanel 1 Note Off - Duracao: 14460 Nota: C1 Vol.: 97
Chanel 1 Note On - Duracao: 14460 Nota: C1 Vol.: 99
Chanel 1 Note Off - Duracao: 14520 Nota: C1 Vol.: 99
Chanel 1 Note On - Duracao: 14520 Nota: C1 Vol.: 98
Chanel 2 Note Off - Duracao: 14520 Nota: C1 Vol.: 54
Chanel 2 Note On - Duracao: 14520 Nota: C1 Vol.: 61
Chanel 4 Note Off - Duracao: 14520 Nota: C1 Vol.: 82
Chanel 4 Note On - Duracao: 14520 Nota: C1 Vol.: 79
Chanel 5 Note Off - Duracao: 14520 Nota: C1 Vol.: 70
Chanel 5 Note On - Duracao: 14520 Nota: C1 Vol.: 72
Chanel 1 Note Off - Duracao: 14640 Nota: C1 Vol.: 98
Chanel 1 Note On - Duracao: 14640 Nota: C1 Vol.: 96
Chanel 5 Note Off - Duracao: 14640 Nota: C1 Vol.: 72
Chanel 5 Note On - Duracao: 14640 Nota: C1 Vol.: 69
Chanel 1 Note Off - Duracao: 14760 Nota: C1 Vol.: 96
Chanel 1 Note On - Duracao: 14760 Nota: C1 Vol.: 99
Chanel 4 Note Off - Duracao: 14760 Nota: C1 Vol.: 79
Chanel 4 Note On - Duracao: 14760 Nota: C1 Vol.: 81
Chanel 1 Note Off - Duracao: 14820 Nota: C1 Vol.: 99
Chanel 1 Note On - Duracao: 14820 Nota: C1 Vol.: 99
Chanel 5 Note Off - Duracao: 14880 Nota: C1 Vol.: 69
Chanel 5 Note On - Duracao: 14880 Nota: C1 Vol.: 74
Chanel 1 Note Off - Duracao: 14940 Nota: C1 Vol.: 99
Chanel 1 Note On - Duracao: 14940 Nota: C1 Vol.: 100
Chanel 1 Note Off - Duracao: 15000 Nota: C1 Vol.: 100
Chanel 1 Note On - Duracao: 15000 Nota: C1 Vol.: 99
Chanel 4 Note Off - Duracao: 15000 Nota: C1 Vol.: 81
Chanel 4 Note On - Duracao: 15000 Nota: C1 Vol.: 70
Chanel 5 Note Off - Duracao: 15000 Nota: C1 Vol.: 74
Chanel 5 Note On - Duracao: 15000 Nota: C1 Vol.: 73
Chanel 1 Note Off - Duracao: 15120 Nota: C1 Vol.: 99
Chanel 1 Note On - Duracao: 15120 Nota: C1 Vol.: 97
Chanel 5 Note Off - Duracao: 15120 Nota: C1 Vol.: 73
Chanel 5 Note On - Duracao: 15120 Nota: C1 Vol.: 73
Chanel 9 Note Off - Duracao: 15120 Nota: C1 Vol.: 52
Chanel 9 Note On - Duracao: 15120 Nota: C1 Vol.: 51
Chanel 1 Note Off - Duracao: 15240 Nota: C1 Vol.: 97
Chanel 1 Note On - Duracao: 15240 Nota: C1 Vol.: 98
Chanel 1 Note Off - Duracao: 15300 Nota: C1 Vol.: 98
Chanel 1 Note On - Duracao: 15300 Nota: C1 Vol.: 95
Chanel 5 Note Off - Duracao: 15360 Nota: C1 Vol.: 73
Chanel 5 Note On - Duracao: 15360 Nota: C1 Vol.: 58
Chanel 6 Note Off - Duracao: 15360 Nota: C1 Vol.: 65
Chanel 6 Note On - Duracao: 15360 Nota: C1 Vol.: 62
Chanel 7 Note Off - Duracao: 15360 Nota: C1 Vol.: 58
Chanel 7 Note On - Duracao: 15360 Nota: C1 Vol.: 58
Chanel 8 Note Off - Duracao: 15360 Nota: C1 Vol.: 49
Chanel 8 Note On - Duracao: 15360 Nota: C1 Vol.: 52
Chanel 1 Note Off - Duracao: 15420 Nota: C1 Vol.: 95
Chanel 1 Note On - Duracao: 15420 Nota: C1 Vol.: 95
Chanel 4 Note Off - Duracao: 15480 Nota: C1 Vol.: 70
Chanel 4 Note On - Duracao: 15480 Nota: C1 Vol.: 44
Chanel 1 Note Off - Duracao: 15540 Nota: C1 Vol.: 95
Chanel 1 Note On - Duracao: 15540 Nota: C1 Vol.: 95
Chanel 9 Note Off - Duracao: 15600 Nota: C1 Vol.: 51
Chanel 9 Note On - Duracao: 15600 Nota: C1 Vol.: 61
Chanel 1 Note Off - Duracao: 15660 Nota: C1 Vol.: 95
Chanel 1 Note On - Duracao: 15660 Nota: C1 Vol.: 95
Chanel 1 Note Off - Duracao: 15780 Nota: C1 Vol.: 95
Chanel 1 Note On - Duracao: 15780 Nota: C1 Vol.: 93
Chanel 5 Note Off - Duracao: 15840 Nota: C1 Vol.: 58
Chanel 5 Note On - Duracao: 15840 Nota: C1 Vol.: 41
Chanel 9 Note Off - Duracao: 15840 Nota: C1 Vol.: 61
Chanel 9 Note On - Duracao: 15840 Nota: C1 Vol.: 66
Chanel 1 Note Off - Duracao: 15900 Nota: C1 Vol.: 93
Chanel 1 Note On - Duracao: 15900 Nota: C1 Vol.: 85
Chanel 3 Note Off - Duracao: 15960 Nota: C1 Vol.: 40
Chanel 3 Note On - Duracao: 15960 Nota: C1 Vol.: 41
Chanel 9 Note Off - Duracao: 15960 Nota: C1 Vol.: 66
Chanel 9 Note On - Duracao: 15960 Nota: C1 Vol.: 62
Chanel 1 Note Off - Duracao: 16020 Nota: C1 Vol.: 85
Chanel 1 Note On - Duracao: 16020 Nota: C1 Vol.: 60
Chanel 9 Note Off - Duracao: 16200 Nota: C1 Vol.: 62
Chanel 9 Note On - Duracao: 16200 Nota: C1 Vol.: 66
Chanel 1 Note Off - Duracao: 16260 Nota: C1 Vol.: 60
Chanel 1 Note On - Duracao: 16260 Nota: C1 Vol.: 50
Chanel 8 Note Off - Duracao: 16320 Nota: C1 Vol.: 52
Chanel 8 Note On - Duracao: 16320 Nota: C1 Vol.: 53
Chanel 9 Note Off - Duracao: 16320 Nota: C1 Vol.: 66
Chanel 9 Note On - Duracao: 16320 Nota: C1 Vol.: 50
Chanel 2 Note Off - Duracao: 16440 Nota: C1 Vol.: 61
Chanel 2 Note On - Duracao: 16440 Nota: C1 Vol.: 63
Chanel 1 Note Off - Duracao: 16500 Nota: C1 Vol.: 50
Chanel 1 Note On - Duracao: 16500 Nota: C1 Vol.: 52
Chanel 9 Note Off - Duracao: 16560 Nota: C1 Vol.: 50
Chanel 9 Note On - Duracao: 16560 Nota: C1 Vol.: 53
Chanel 9 Note Off - Duracao: 16680 Nota: C1 Vol.: 53
Chanel 9 Note On - Duracao: 16680 Nota: C1 Vol.: 52
Chanel 1 Note Off - Duracao: 16740 Nota: C1 Vol.: 52
Chanel 1 Note On - Duracao: 16740 Nota: C1 Vol.: 51
Chanel 9 Note Off - Duracao: 16800 Nota: C1 Vol.: 52
Chanel 9 Note On - Duracao: 16800 Nota: C1 Vol.: 45
Chanel 9 Note Off - Duracao: 17040 Nota: C1 Vol.: 45
Chanel 9 Note On - Duracao: 17040 Nota: C1 Vol.: 51
Chanel 9 Note Off - Duracao: 17160 Nota: C1 Vol.: 51
Chanel 9 Note On - Duracao: 17160 Nota: C1 Vol.: 52
Chanel 1 Note Off - Duracao: 17220 Nota: C1 Vol.: 51
Chanel 1 Note On - Duracao: 17220 Nota: C1 Vol.: 60
Chanel 6 Note Off - Duracao: 17280 Nota: C1 Vol.: 62
Chanel 6 Note On - Duracao: 17280 Nota: C1 Vol.: 60
Chanel 8 Note Off - Duracao: 17280 Nota: C1 Vol.: 53
Chanel 8 Note On - Duracao: 17280 Nota: C1 Vol.: 53
Chanel 9 Note Off - Duracao: 17280 Nota: C1 Vol.: 52
Chanel 9 Note On - Duracao: 17280 Nota: C1 Vol.: 53
Chanel 9 Note Off - Duracao: 17400 Nota: C1 Vol.: 53
Chanel 9 Note On - Duracao: 17400 Nota: C1 Vol.: 51
Chanel 1 Note Off - Duracao: 17460 Nota: C1 Vol.: 60
Chanel 1 Note On - Duracao: 17460 Nota: C1 Vol.: 64
Chanel 9 Note Off - Duracao: 17520 Nota: C1 Vol.: 51
Chanel 9 Note On - Duracao: 17520 Nota: C1 Vol.: 43
Chanel 1 Note Off - Duracao: 17700 Nota: C1 Vol.: 64
Chanel 1 Note On - Duracao: 17700 Nota: C1 Vol.: 69
Chanel 5 Note Off - Duracao: 17760 Nota: C1 Vol.: 41
Chanel 5 Note On - Duracao: 17760 Nota: C1 Vol.: 83
Chanel 9 Note Off - Duracao: 17760 Nota: C1 Vol.: 43
Chanel 9 Note On - Duracao: 17760 Nota: C1 Vol.: 54
Chanel 3 Note Off - Duracao: 17880 Nota: C1 Vol.: 41
Chanel 3 Note On - Duracao: 17880 Nota: C1 Vol.: 65
Chanel 5 Note Off - Duracao: 17880 Nota: C1 Vol.: 83
Chanel 5 Note On - Duracao: 17880 Nota: C1 Vol.: 63
Chanel 9 Note Off - Duracao: 17880 Nota: C1 Vol.: 54
Chanel 9 Note On - Duracao: 17880 Nota: C1 Vol.: 55
Chanel 1 Note Off - Duracao: 17940 Nota: C1 Vol.: 69
Chanel 1 Note On - Duracao: 17940 Nota: C1 Vol.: 74
Chanel 9 Note Off - Duracao: 18000 Nota: C1 Vol.: 55
Chanel 9 Note On - Duracao: 18000 Nota: C1 Vol.: 54
Chanel 1 Note Off - Duracao: 18060 Nota: C1 Vol.: 74
Chanel 1 Note On - Duracao: 18060 Nota: C1 Vol.: 71
Chanel 9 Note Off - Duracao: 18120 Nota: C1 Vol.: 54
Chanel 9 Note On - Duracao: 18120 Nota: C1 Vol.: 47
Chanel 1 Note Off - Duracao: 18180 Nota: C1 Vol.: 71
Chanel 1 Note On - Duracao: 18180 Nota: C1 Vol.: 69
Chanel 8 Note Off - Duracao: 18240 Nota: C1 Vol.: 53
Chanel 8 Note On - Duracao: 18240 Nota: C1 Vol.: 52
Chanel 1 Note Off - Duracao: 18300 Nota: C1 Vol.: 69
Chanel 1 Note On - Duracao: 18300 Nota: C1 Vol.: 68
Chanel 2 Note Off - Duracao: 18360 Nota: C1 Vol.: 63
Chanel 2 Note On - Duracao: 18360 Nota: C1 Vol.: 65
Chanel 3 Note Off - Duracao: 18360 Nota: C1 Vol.: 65
Chanel 3 Note On - Duracao: 18360 Nota: C1 Vol.: 63
Chanel 9 Note Off - Duracao: 18360 Nota: C1 Vol.: 47
Chanel 9 Note On - Duracao: 18360 Nota: C1 Vol.: 62
Chanel 1 Note Off - Duracao: 18420 Nota: C1 Vol.: 68
Chanel 1 Note On - Duracao: 18420 Nota: C1 Vol.: 70
Chanel 9 Note Off - Duracao: 18480 Nota: C1 Vol.: 62
Chanel 9 Note On - Duracao: 18480 Nota: C1 Vol.: 60
Chanel 1 Note Off - Duracao: 18540 Nota: C1 Vol.: 70
Chanel 1 Note On - Duracao: 18540 Nota: C1 Vol.: 81
Chanel 1 Note Off - Duracao: 18660 Nota: C1 Vol.: 81
Chanel 1 Note On - Duracao: 18660 Nota: C1 Vol.: 94
Chanel 9 Note Off - Duracao: 18720 Nota: C1 Vol.: 60
Chanel 9 Note On - Duracao: 18720 Nota: C1 Vol.: 48
Chanel 1 Note Off - Duracao: 18780 Nota: C1 Vol.: 94
Chanel 1 Note On - Duracao: 18780 Nota: C1 Vol.: 96
Chanel 1 Note Off - Duracao: 18840 Nota: C1 Vol.: 96
Chanel 1 Note On - Duracao: 18840 Nota: C1 Vol.: 87
Chanel 3 Note Off - Duracao: 18840 Nota: C1 Vol.: 63
Chanel 3 Note On - Duracao: 18840 Nota: C1 Vol.: 93
Chanel 5 Note Off - Duracao: 18840 Nota: C1 Vol.: 63
Chanel 5 Note On - Duracao: 18840 Nota: C1 Vol.: 86
Chanel 3 Note Off - Duracao: 18900 Nota: C1 Vol.: 93
Chanel 3 Note On - Duracao: 18900 Nota: C1 Vol.: 97
Chanel 1 Note Off - Duracao: 18960 Nota: C1 Vol.: 87
Chanel 1 Note On - Duracao: 18960 Nota: C1 Vol.: 77
Chanel 3 Note Off - Duracao: 18960 Nota: C1 Vol.: 97
Chanel 3 Note On - Duracao: 18960 Nota: C1 Vol.: 98
Chanel 5 Note Off - Duracao: 18960 Nota: C1 Vol.: 86
Chanel 5 Note On - Duracao: 18960 Nota: C1 Vol.: 87
Chanel 3 Note Off - Duracao: 19020 Nota: C1 Vol.: 98
Chanel 3 Note On - Duracao: 19020 Nota: C1 Vol.: 77
Chanel 5 Note Off - Duracao: 19080 Nota: C1 Vol.: 87
Chanel 5 Note On - Duracao: 19080 Nota: C1 Vol.: 87
Chanel 1 Note Off - Duracao: 19200 Nota: C1 Vol.: 77
Chanel 1 Note On - Duracao: 19200 Nota: C1 Vol.: 68
Chanel 5 Note Off - Duracao: 19200 Nota: C1 Vol.: 87
Chanel 5 Note On - Duracao: 19200 Nota: C1 Vol.: 88
Chanel 6 Note Off - Duracao: 19200 Nota: C1 Vol.: 60
Chanel 6 Note On - Duracao: 19200 Nota: C1 Vol.: 56
Chanel 7 Note Off - Duracao: 19200 Nota: C1 Vol.: 58
Chanel 7 Note On - Duracao: 19200 Nota: C1 Vol.: 57
Chanel 8 Note Off - Duracao: 19200 Nota: C1 Vol.: 52
Chanel 8 Note On - Duracao: 19200 Nota: C1 Vol.: 56
Chanel 3 Note Off - Duracao: 19260 Nota: C1 Vol.: 77
Chanel 3 Note On - Duracao: 19260 Nota: C1 Vol.: 71
Chanel 4 Note Off - Duracao: 19320 Nota: C1 Vol.: 44
Chanel 4 Note On - Duracao: 19320 Nota: C1 Vol.: 52
Chanel 5 Note Off - Duracao: 19320 Nota: C1 Vol.: 88
Chanel 5 Note On - Duracao: 19320 Nota: C1 Vol.: 87
Chanel 1 Note Off - Duracao: 19440 Nota: C1 Vol.: 68
Chanel 1 Note On - Duracao: 19440 Nota: C1 Vol.: 68
Chanel 5 Note Off - Duracao: 19440 Nota: C1 Vol.: 87
Chanel 5 Note On - Duracao: 19440 Nota: C1 Vol.: 87
Chanel 5 Note Off - Duracao: 19560 Nota: C1 Vol.: 87
Chanel 5 Note On - Duracao: 19560 Nota: C1 Vol.: 86
Chanel 1 Note Off - Duracao: 19680 Nota: C1 Vol.: 68
Chanel 1 Note On - Duracao: 19680 Nota: C1 Vol.: 73
Chanel 5 Note Off - Duracao: 19680 Nota: C1 Vol.: 86
Chanel 5 Note On - Duracao: 19680 Nota: C1 Vol.: 88
Chanel 8 Note Off - Duracao: 19680 Nota: C1 Vol.: 56
Chanel 8 Note On - Duracao: 19680 Nota: C1 Vol.: 40
Chanel 9 Note Off - Duracao: 19680 Nota: C1 Vol.: 48
Chanel 9 Note On - Duracao: 19680 Nota: C1 Vol.: 51
Chanel 3 Note Off - Duracao: 19740 Nota: C1 Vol.: 71
Chanel 3 Note On - Duracao: 19740 Nota: C1 Vol.: 40
Chanel 1 Note Off - Duracao: 19800 Nota: C1 Vol.: 73
Chanel 1 Note On - Duracao: 19800 Nota: C1 Vol.: 82
Chanel 5 Note Off - Duracao: 19800 Nota: C1 Vol.: 88
Chanel 5 Note On - Duracao: 19800 Nota: C1 Vol.: 93
Chanel 1 Note Off - Duracao: 19920 Nota: C1 Vol.: 82
Chanel 1 Note On - Duracao: 19920 Nota: C1 Vol.: 80
Chanel 5 Note Off - Duracao: 19920 Nota: C1 Vol.: 93
Chanel 5 Note On - Duracao: 19920 Nota: C1 Vol.: 51
Chanel 1 Note Off - Duracao: 20040 Nota: C1 Vol.: 80
Chanel 1 Note On - Duracao: 20040 Nota: C1 Vol.: 81
Chanel 1 Note Off - Duracao: 20280 Nota: C1 Vol.: 81
Chanel 1 Note On - Duracao: 20280 Nota: C1 Vol.: 87
Chanel 2 Note Off - Duracao: 20280 Nota: C1 Vol.: 65
Chanel 2 Note On - Duracao: 20280 Nota: C1 Vol.: 72
Chanel 1 Note Off - Duracao: 20400 Nota: C1 Vol.: 87
Chanel 1 Note On - Duracao: 20400 Nota: C1 Vol.: 85
Chanel 1 Note Off - Duracao: 20520 Nota: C1 Vol.: 85
Chanel 1 Note On - Duracao: 20520 Nota: C1 Vol.: 87
Chanel 1 Note Off - Duracao: 20640 Nota: C1 Vol.: 87
Chanel 1 Note On - Duracao: 20640 Nota: C1 Vol.: 91
Chanel 9 Note Off - Duracao: 20640 Nota: C1 Vol.: 51
Chanel 9 Note On - Duracao: 20640 Nota: C1 Vol.: 51
Chanel 1 Note Off - Duracao: 20760 Nota: C1 Vol.: 91
Chanel 1 Note On - Duracao: 20760 Nota: C1 Vol.: 93
Chanel 1 Note Off - Duracao: 20880 Nota: C1 Vol.: 93
Chanel 1 Note On - Duracao: 20880 Nota: C1 Vol.: 98
Chanel 1 Note Off - Duracao: 20940 Nota: C1 Vol.: 98
Chanel 1 Note On - Duracao: 20940 Nota: C1 Vol.: 99
Chanel 1 Note Off - Duracao: 21000 Nota: C1 Vol.: 99
Chanel 1 Note On - Duracao: 21000 Nota: C1 Vol.: 99
Chanel 1 Note Off - Duracao: 21060 Nota: C1 Vol.: 99
Chanel 1 Note On - Duracao: 21060 Nota: C1 Vol.: 98
Chanel 1 Note Off - Duracao: 21120 Nota: C1 Vol.: 98
Chanel 1 Note On - Duracao: 21120 Nota: C1 Vol.: 95
Chanel 6 Note Off - Duracao: 21120 Nota: C1 Vol.: 56
Chanel 6 Note On - Duracao: 21120 Nota: C1 Vol.: 52
Chanel 1 Note Off - Duracao: 21180 Nota: C1 Vol.: 95
Chanel 1 Note On - Duracao: 21180 Nota: C1 Vol.: 95
Chanel 1 Note Off - Duracao: 21240 Nota: C1 Vol.: 95
Chanel 1 Note On - Duracao: 21240 Nota: C1 Vol.: 75
Chanel 2 Note Off - Duracao: 21240 Nota: C1 Vol.: 72
Chanel 2 Note On - Duracao: 21240 Nota: C1 Vol.: 74
Chanel 4 Note Off - Duracao: 21240 Nota: C1 Vol.: 52
Chanel 4 Note On - Duracao: 21240 Nota: C1 Vol.: 64
Chanel 1 Note Off - Duracao: 21480 Nota: C1 Vol.: 75
Chanel 1 Note On - Duracao: 21480 Nota: C1 Vol.: 44
Chanel 8 Note Off - Duracao: 21600 Nota: C1 Vol.: 40
Chanel 8 Note On - Duracao: 21600 Nota: C1 Vol.: 62
Chanel 9 Note Off - Duracao: 21600 Nota: C1 Vol.: 51
Chanel 9 Note On - Duracao: 21600 Nota: C1 Vol.: 56
Chanel 3 Note Off - Duracao: 21660 Nota: C1 Vol.: 40
Chanel 3 Note On - Duracao: 21660 Nota: C1 Vol.: 40
Chanel 5 Note Off - Duracao: 21840 Nota: C1 Vol.: 51
Chanel 5 Note On - Duracao: 21840 Nota: C1 Vol.: 55
Chanel 8 Note Off - Duracao: 21840 Nota: C1 Vol.: 62
Chanel 8 Note On - Duracao: 21840 Nota: C1 Vol.: 67
Chanel 8 Note Off - Duracao: 22080 Nota: C1 Vol.: 67
Chanel 8 Note On - Duracao: 22080 Nota: C1 Vol.: 58
Chanel 2 Note Off - Duracao: 22200 Nota: C1 Vol.: 74
Chanel 2 Note On - Duracao: 22200 Nota: C1 Vol.: 69
Chanel 4 Note Off - Duracao: 22200 Nota: C1 Vol.: 64
Chanel 4 Note On - Duracao: 22200 Nota: C1 Vol.: 67
Chanel 8 Note Off - Duracao: 22560 Nota: C1 Vol.: 58
Chanel 8 Note On - Duracao: 22560 Nota: C1 Vol.: 47
Chanel 9 Note Off - Duracao: 22560 Nota: C1 Vol.: 56
Chanel 9 Note On - Duracao: 22560 Nota: C1 Vol.: 59
Chanel 5 Note Off - Duracao: 22800 Nota: C1 Vol.: 55
Chanel 5 Note On - Duracao: 22800 Nota: C1 Vol.: 75
Chanel 5 Note Off - Duracao: 23040 Nota: C1 Vol.: 75
Chanel 5 Note On - Duracao: 23040 Nota: C1 Vol.: 97
Chanel 6 Note Off - Duracao: 23040 Nota: C1 Vol.: 52
Chanel 6 Note On - Duracao: 23040 Nota: C1 Vol.: 49
Chanel 7 Note Off - Duracao: 23040 Nota: C1 Vol.: 57
Chanel 7 Note On - Duracao: 23040 Nota: C1 Vol.: 55
Chanel 9 Note Off - Duracao: 23040 Nota: C1 Vol.: 59
Chanel 9 Note On - Duracao: 23040 Nota: C1 Vol.: 58
Chanel 5 Note Off - Duracao: 23100 Nota: C1 Vol.: 97
Chanel 5 Note On - Duracao: 23100 Nota: C1 Vol.: 97
Chanel 2 Note Off - Duracao: 23160 Nota: C1 Vol.: 69
Chanel 2 Note On - Duracao: 23160 Nota: C1 Vol.: 65
Chanel 4 Note Off - Duracao: 23160 Nota: C1 Vol.: 67
Chanel 4 Note On - Duracao: 23160 Nota: C1 Vol.: 66
Chanel 5 Note Off - Duracao: 23160 Nota: C1 Vol.: 97
Chanel 5 Note On - Duracao: 23160 Nota: C1 Vol.: 98
Chanel 5 Note Off - Duracao: 23220 Nota: C1 Vol.: 98
Chanel 5 Note On - Duracao: 23220 Nota: C1 Vol.: 98
Chanel 5 Note Off - Duracao: 23280 Nota: C1 Vol.: 98
Chanel 5 Note On - Duracao: 23280 Nota: C1 Vol.: 99
Chanel 5 Note Off - Duracao: 23340 Nota: C1 Vol.: 99
Chanel 5 Note On - Duracao: 23340 Nota: C1 Vol.: 96
Chanel 1 Note Off - Duracao: 23400 Nota: C1 Vol.: 44
Chanel 1 Note On - Duracao: 23400 Nota: C1 Vol.: 40
Chanel 5 Note Off - Duracao: 23400 Nota: C1 Vol.: 96
Chanel 5 Note On - Duracao: 23400 Nota: C1 Vol.: 99
Chanel 5 Note Off - Duracao: 23460 Nota: C1 Vol.: 99
Chanel 5 Note On - Duracao: 23460 Nota: C1 Vol.: 95
Chanel 5 Note Off - Duracao: 23520 Nota: C1 Vol.: 95
Chanel 5 Note On - Duracao: 23520 Nota: C1 Vol.: 99
Chanel 8 Note Off - Duracao: 23520 Nota: C1 Vol.: 47
Chanel 8 Note On - Duracao: 23520 Nota: C1 Vol.: 47
Chanel 9 Note Off - Duracao: 23520 Nota: C1 Vol.: 58
Chanel 9 Note On - Duracao: 23520 Nota: C1 Vol.: 53
Chanel 3 Note Off - Duracao: 23580 Nota: C1 Vol.: 40
Chanel 3 Note On - Duracao: 23580 Nota: C1 Vol.: 58
Chanel 5 Note Off - Duracao: 23580 Nota: C1 Vol.: 99
Chanel 5 Note On - Duracao: 23580 Nota: C1 Vol.: 97
Chanel 5 Note Off - Duracao: 23640 Nota: C1 Vol.: 97
Chanel 5 Note On - Duracao: 23640 Nota: C1 Vol.: 92
Chanel 5 Note Off - Duracao: 23760 Nota: C1 Vol.: 92
Chanel 5 Note On - Duracao: 23760 Nota: C1 Vol.: 100
Chanel 5 Note Off - Duracao: 23820 Nota: C1 Vol.: 100
Chanel 5 Note On - Duracao: 23820 Nota: C1 Vol.: 99
Chanel 5 Note Off - Duracao: 23880 Nota: C1 Vol.: 99
Chanel 5 Note On - Duracao: 23880 Nota: C1 Vol.: 98
Chanel 5 Note Off - Duracao: 23940 Nota: C1 Vol.: 98
Chanel 5 Note On - Duracao: 23940 Nota: C1 Vol.: 99
Chanel 5 Note Off - Duracao: 24000 Nota: C1 Vol.: 99
Chanel 5 Note On - Duracao: 24000 Nota: C1 Vol.: 98
Chanel 3 Note Off - Duracao: 24060 Nota: C1 Vol.: 58
Chanel 3 Note On - Duracao: 24060 Nota: C1 Vol.: 62
Chanel 5 Note Off - Duracao: 24060 Nota: C1 Vol.: 98
Chanel 5 Note On - Duracao: 24060 Nota: C1 Vol.: 97
Chanel 2 Note Off - Duracao: 24120 Nota: C1 Vol.: 65
Chanel 2 Note On - Duracao: 24120 Nota: C1 Vol.: 69
Chanel 5 Note Off - Duracao: 24120 Nota: C1 Vol.: 97
Chanel 5 Note On - Duracao: 24120 Nota: C1 Vol.: 100
Chanel 5 Note Off - Duracao: 24180 Nota: C1 Vol.: 100
Chanel 5 Note On - Duracao: 24180 Nota: C1 Vol.: 91
Chanel 3 Note Off - Duracao: 24300 Nota: C1 Vol.: 62
Chanel 3 Note On - Duracao: 24300 Nota: C1 Vol.: 63
Chanel 5 Note Off - Duracao: 24300 Nota: C1 Vol.: 91
Chanel 5 Note On - Duracao: 24300 Nota: C1 Vol.: 93
Chanel 5 Note Off - Duracao: 24420 Nota: C1 Vol.: 93
Chanel 5 Note On - Duracao: 24420 Nota: C1 Vol.: 91
Chanel 8 Note Off - Duracao: 24480 Nota: C1 Vol.: 47
Chanel 8 Note On - Duracao: 24480 Nota: C1 Vol.: 56
Chanel 9 Note Off - Duracao: 24480 Nota: C1 Vol.: 53
Chanel 9 Note On - Duracao: 24480 Nota: C1 Vol.: 60
Chanel 3 Note Off - Duracao: 24540 Nota: C1 Vol.: 63
Chanel 3 Note On - Duracao: 24540 Nota: C1 Vol.: 67
Chanel 5 Note Off - Duracao: 24540 Nota: C1 Vol.: 91
Chanel 5 Note On - Duracao: 24540 Nota: C1 Vol.: 92
Chanel 5 Note Off - Duracao: 24660 Nota: C1 Vol.: 92
Chanel 5 Note On - Duracao: 24660 Nota: C1 Vol.: 85
Chanel 3 Note Off - Duracao: 24780 Nota: C1 Vol.: 67
Chanel 3 Note On - Duracao: 24780 Nota: C1 Vol.: 50
Chanel 5 Note Off - Duracao: 24780 Nota: C1 Vol.: 85
Chanel 5 Note On - Duracao: 24780 Nota: C1 Vol.: 73
Chanel 6 Note Off - Duracao: 24960 Nota: C1 Vol.: 49
Chanel 6 Note On - Duracao: 24960 Nota: C1 Vol.: 48
Chanel 8 Note Off - Duracao: 24960 Nota: C1 Vol.: 56
Chanel 8 Note On - Duracao: 24960 Nota: C1 Vol.: 55
Chanel 9 Note Off - Duracao: 24960 Nota: C1 Vol.: 60
Chanel 9 Note On - Duracao: 24960 Nota: C1 Vol.: 58
Chanel 2 Note Off - Duracao: 25080 Nota: C1 Vol.: 69
Chanel 2 Note On - Duracao: 25080 Nota: C1 Vol.: 71
Chanel 4 Note Off - Duracao: 25080 Nota: C1 Vol.: 66
Chanel 4 Note On - Duracao: 25080 Nota: C1 Vol.: 68
Chanel 5 Note Off - Duracao: 25260 Nota: C1 Vol.: 73
Chanel 5 Note On - Duracao: 25260 Nota: C1 Vol.: 56
Chanel 1 Note Off - Duracao: 25320 Nota: C1 Vol.: 40
Chanel 1 Note On - Duracao: 25320 Nota: C1 Vol.: 40
Chanel 9 Note Off - Duracao: 25440 Nota: C1 Vol.: 58
Chanel 9 Note On - Duracao: 25440 Nota: C1 Vol.: 59
Chanel 3 Note Off - Duracao: 25740 Nota: C1 Vol.: 50
Chanel 3 Note On - Duracao: 25740 Nota: C1 Vol.: 47
Chanel 8 Note Off - Duracao: 25920 Nota: C1 Vol.: 55
Chanel 8 Note On - Duracao: 25920 Nota: C1 Vol.: 75
Chanel 9 Note Off - Duracao: 25920 Nota: C1 Vol.: 59
Chanel 9 Note On - Duracao: 25920 Nota: C1 Vol.: 61
Chanel 2 Note Off - Duracao: 26040 Nota: C1 Vol.: 71
Chanel 2 Note On - Duracao: 26040 Nota: C1 Vol.: 67
Chanel 8 Note Off - Duracao: 26160 Nota: C1 Vol.: 75
Chanel 8 Note On - Duracao: 26160 Nota: C1 Vol.: 74
Chanel 8 Note Off - Duracao: 26400 Nota: C1 Vol.: 74
Chanel 8 Note On - Duracao: 26400 Nota: C1 Vol.: 72
Chanel 9 Note Off - Duracao: 26400 Nota: C1 Vol.: 61
Chanel 9 Note On - Duracao: 26400 Nota: C1 Vol.: 63
Chanel 8 Note Off - Duracao: 26640 Nota: C1 Vol.: 72
Chanel 8 Note On - Duracao: 26640 Nota: C1 Vol.: 70
Chanel 6 Note Off - Duracao: 26880 Nota: C1 Vol.: 48
Chanel 6 Note On - Duracao: 26880 Nota: C1 Vol.: 48
Chanel 7 Note Off - Duracao: 26880 Nota: C1 Vol.: 55
Chanel 7 Note On - Duracao: 26880 Nota: C1 Vol.: 58
Chanel 8 Note Off - Duracao: 26880 Nota: C1 Vol.: 70
Chanel 8 Note On - Duracao: 26880 Nota: C1 Vol.: 72
Chanel 9 Note Off - Duracao: 26880 Nota: C1 Vol.: 63
Chanel 9 Note On - Duracao: 26880 Nota: C1 Vol.: 51
Chanel 2 Note Off - Duracao: 27000 Nota: C1 Vol.: 67
Chanel 2 Note On - Duracao: 27000 Nota: C1 Vol.: 56
Chanel 4 Note Off - Duracao: 27000 Nota: C1 Vol.: 68
Chanel 4 Note On - Duracao: 27000 Nota: C1 Vol.: 70
Chanel 8 Note Off - Duracao: 27120 Nota: C1 Vol.: 72
Chanel 8 Note On - Duracao: 27120 Nota: C1 Vol.: 72
Chanel 5 Note Off - Duracao: 27180 Nota: C1 Vol.: 56
Chanel 5 Note On - Duracao: 27180 Nota: C1 Vol.: 67
Chanel 1 Note Off - Duracao: 27240 Nota: C1 Vol.: 40
Chanel 1 Note On - Duracao: 27240 Nota: C1 Vol.: 40
Chanel 8 Note Off - Duracao: 27360 Nota: C1 Vol.: 72
Chanel 8 Note On - Duracao: 27360 Nota: C1 Vol.: 76
Chanel 8 Note Off - Duracao: 27600 Nota: C1 Vol.: 76
Chanel 8 Note On - Duracao: 27600 Nota: C1 Vol.: 77
Chanel 3 Note Off - Duracao: 27660 Nota: C1 Vol.: 47
Chanel 3 Note On - Duracao: 27660 Nota: C1 Vol.: 40
Chanel 8 Note Off - Duracao: 27840 Nota: C1 Vol.: 77
Chanel 8 Note On - Duracao: 27840 Nota: C1 Vol.: 82
Chanel 9 Note Off - Duracao: 27840 Nota: C1 Vol.: 51
Chanel 9 Note On - Duracao: 27840 Nota: C1 Vol.: 56
Chanel 2 Note Off - Duracao: 27960 Nota: C1 Vol.: 56
Chanel 2 Note On - Duracao: 27960 Nota: C1 Vol.: 62
Chanel 4 Note Off - Duracao: 27960 Nota: C1 Vol.: 70
Chanel 4 Note On - Duracao: 27960 Nota: C1 Vol.: 66
Chanel 2 Note Off - Duracao: 28080 Nota: C1 Vol.: 62
Chanel 2 Note On - Duracao: 28080 Nota: C1 Vol.: 54
Chanel 8 Note Off - Duracao: 28080 Nota: C1 Vol.: 82
Chanel 8 Note On - Duracao: 28080 Nota: C1 Vol.: 79
Chanel 5 Note Off - Duracao: 28140 Nota: C1 Vol.: 67
Chanel 5 Note On - Duracao: 28140 Nota: C1 Vol.: 70
Chanel 2 Note Off - Duracao: 28200 Nota: C1 Vol.: 54
Chanel 2 Note On - Duracao: 28200 Nota: C1 Vol.: 47
Chanel 2 Note Off - Duracao: 28320 Nota: C1 Vol.: 47
Chanel 2 Note On - Duracao: 28320 Nota: C1 Vol.: 42
Chanel 8 Note Off - Duracao: 28320 Nota: C1 Vol.: 79
Chanel 8 Note On - Duracao: 28320 Nota: C1 Vol.: 85
Chanel 9 Note Off - Duracao: 28320 Nota: C1 Vol.: 56
Chanel 9 Note On - Duracao: 28320 Nota: C1 Vol.: 60
Chanel 2 Note Off - Duracao: 28440 Nota: C1 Vol.: 42
Chanel 2 Note On - Duracao: 28440 Nota: C1 Vol.: 42
Chanel 8 Note Off - Duracao: 28440 Nota: C1 Vol.: 85
Chanel 8 Note On - Duracao: 28440 Nota: C1 Vol.: 85
Chanel 2 Note Off - Duracao: 28560 Nota: C1 Vol.: 42
Chanel 2 Note On - Duracao: 28560 Nota: C1 Vol.: 40
Chanel 8 Note Off - Duracao: 28560 Nota: C1 Vol.: 85
Chanel 8 Note On - Duracao: 28560 Nota: C1 Vol.: 94
Chanel 5 Note Off - Duracao: 28620 Nota: C1 Vol.: 70
Chanel 5 Note On - Duracao: 28620 Nota: C1 Vol.: 62
Chanel 8 Note Off - Duracao: 28620 Nota: C1 Vol.: 94
Chanel 8 Note On - Duracao: 28620 Nota: C1 Vol.: 84
Chanel 2 Note Off - Duracao: 28680 Nota: C1 Vol.: 40
Chanel 2 Note On - Duracao: 28680 Nota: C1 Vol.: 40
Chanel 8 Note Off - Duracao: 28740 Nota: C1 Vol.: 84
Chanel 8 Note On - Duracao: 28740 Nota: C1 Vol.: 84
Chanel 2 Note Off - Duracao: 28800 Nota: C1 Vol.: 40
Chanel 2 Note On - Duracao: 28800 Nota: C1 Vol.: 42
Chanel 6 Note Off - Duracao: 28800 Nota: C1 Vol.: 48
Chanel 6 Note On - Duracao: 28800 Nota: C1 Vol.: 49
Chanel 9 Note Off - Duracao: 28800 Nota: C1 Vol.: 60
Chanel 9 Note On - Duracao: 28800 Nota: C1 Vol.: 58
Chanel 8 Note Off - Duracao: 28860 Nota: C1 Vol.: 84
Chanel 8 Note On - Duracao: 28860 Nota: C1 Vol.: 71
Chanel 2 Note Off - Duracao: 28920 Nota: C1 Vol.: 42
Chanel 2 Note On - Duracao: 28920 Nota: C1 Vol.: 49
Chanel 2 Note Off - Duracao: 29040 Nota: C1 Vol.: 49
Chanel 2 Note On - Duracao: 29040 Nota: C1 Vol.: 58
Chanel 5 Note Off - Duracao: 29100 Nota: C1 Vol.: 62
Chanel 5 Note On - Duracao: 29100 Nota: C1 Vol.: 56
Chanel 1 Note Off - Duracao: 29160 Nota: C1 Vol.: 40
Chanel 1 Note On - Duracao: 29160 Nota: C1 Vol.: 40
Chanel 2 Note Off - Duracao: 29160 Nota: C1 Vol.: 58
Chanel 2 Note On - Duracao: 29160 Nota: C1 Vol.: 40
Chanel 9 Note Off - Duracao: 29280 Nota: C1 Vol.: 58
Chanel 9 Note On - Duracao: 29280 Nota: C1 Vol.: 47
Chanel 8 Note Off - Duracao: 29340 Nota: C1 Vol.: 71
Chanel 8 Note On - Duracao: 29340 Nota: C1 Vol.: 67
Chanel 3 Note Off - Duracao: 29580 Nota: C1 Vol.: 40
Chanel 3 Note On - Duracao: 29580 Nota: C1 Vol.: 42
Chanel 4 Note Off - Duracao: 29880 Nota: C1 Vol.: 66
Chanel 4 Note On - Duracao: 29880 Nota: C1 Vol.: 68
Chanel 5 Note Off - Duracao: 30060 Nota: C1 Vol.: 56
Chanel 5 Note On - Duracao: 30060 Nota: C1 Vol.: 59
Chanel 2 Note Off - Duracao: 30120 Nota: C1 Vol.: 40
Chanel 2 Note On - Duracao: 30120 Nota: C1 Vol.: 59
Chanel 9 Note Off - Duracao: 30240 Nota: C1 Vol.: 47
Chanel 9 Note On - Duracao: 30240 Nota: C1 Vol.: 58
Chanel 8 Note Off - Duracao: 30300 Nota: C1 Vol.: 67
Chanel 8 Note On - Duracao: 30300 Nota: C1 Vol.: 74
Chanel 5 Note Off - Duracao: 30540 Nota: C1 Vol.: 59
Chanel 5 Note On - Duracao: 30540 Nota: C1 Vol.: 58
Chanel 2 Note Off - Duracao: 30600 Nota: C1 Vol.: 59
Chanel 2 Note On - Duracao: 30600 Nota: C1 Vol.: 65
Chanel 6 Note Off - Duracao: 30720 Nota: C1 Vol.: 49
Chanel 6 Note On - Duracao: 30720 Nota: C1 Vol.: 52
Chanel 7 Note Off - Duracao: 30720 Nota: C1 Vol.: 58
Chanel 7 Note On - Duracao: 30720 Nota: C1 Vol.: 59
Chanel 9 Note Off - Duracao: 30720 Nota: C1 Vol.: 58
Chanel 9 Note On - Duracao: 30720 Nota: C1 Vol.: 62
Chanel 4 Note Off - Duracao: 30840 Nota: C1 Vol.: 68
Chanel 4 Note On - Duracao: 30840 Nota: C1 Vol.: 60
Chanel 9 Note Off - Duracao: 30960 Nota: C1 Vol.: 62
Chanel 9 Note On - Duracao: 30960 Nota: C1 Vol.: 61
Chanel 5 Note Off - Duracao: 31020 Nota: C1 Vol.: 58
Chanel 5 Note On - Duracao: 31020 Nota: C1 Vol.: 55
Chanel 1 Note Off - Duracao: 31080 Nota: C1 Vol.: 40
Chanel 1 Note On - Duracao: 31080 Nota: C1 Vol.: 40
Chanel 2 Note Off - Duracao: 31080 Nota: C1 Vol.: 65
Chanel 2 Note On - Duracao: 31080 Nota: C1 Vol.: 73
Chanel 9 Note Off - Duracao: 31200 Nota: C1 Vol.: 61
Chanel 9 Note On - Duracao: 31200 Nota: C1 Vol.: 50
Chanel 8 Note Off - Duracao: 31260 Nota: C1 Vol.: 74
Chanel 8 Note On - Duracao: 31260 Nota: C1 Vol.: 79
Chanel 2 Note Off - Duracao: 31320 Nota: C1 Vol.: 73
Chanel 2 Note On - Duracao: 31320 Nota: C1 Vol.: 74
Chanel 3 Note Off - Duracao: 31500 Nota: C1 Vol.: 42
Chanel 3 Note On - Duracao: 31500 Nota: C1 Vol.: 62
Chanel 5 Note Off - Duracao: 31500 Nota: C1 Vol.: 55
Chanel 5 Note On - Duracao: 31500 Nota: C1 Vol.: 47
Chanel 2 Note Off - Duracao: 31560 Nota: C1 Vol.: 74
Chanel 2 Note On - Duracao: 31560 Nota: C1 Vol.: 70
Chanel 9 Note Off - Duracao: 31680 Nota: C1 Vol.: 50
Chanel 9 Note On - Duracao: 31680 Nota: C1 Vol.: 57
Chanel 8 Note Off - Duracao: 31740 Nota: C1 Vol.: 79
Chanel 8 Note On - Duracao: 31740 Nota: C1 Vol.: 78
Chanel 2 Note Off - Duracao: 31800 Nota: C1 Vol.: 70
Chanel 2 Note On - Duracao: 31800 Nota: C1 Vol.: 72
Chanel 9 Note Off - Duracao: 31920 Nota: C1 Vol.: 57
Chanel 9 Note On - Duracao: 31920 Nota: C1 Vol.: 53
Chanel 2 Note Off - Duracao: 32040 Nota: C1 Vol.: 72
Chanel 2 Note On - Duracao: 32040 Nota: C1 Vol.: 76
Chanel 9 Note Off - Duracao: 32160 Nota: C1 Vol.: 53
Chanel 9 Note On - Duracao: 32160 Nota: C1 Vol.: 58
Chanel 2 Note Off - Duracao: 32280 Nota: C1 Vol.: 76
Chanel 2 Note On - Duracao: 32280 Nota: C1 Vol.: 78
Chanel 9 Note Off - Duracao: 32400 Nota: C1 Vol.: 58
Chanel 9 Note On - Duracao: 32400 Nota: C1 Vol.: 59
Chanel 3 Note Off - Duracao: 32460 Nota: C1 Vol.: 62
Chanel 3 Note On - Duracao: 32460 Nota: C1 Vol.: 96
Chanel 5 Note Off - Duracao: 32460 Nota: C1 Vol.: 47
Chanel 5 Note On - Duracao: 32460 Nota: C1 Vol.: 61
Chanel 2 Note Off - Duracao: 32520 Nota: C1 Vol.: 78
Chanel 2 Note On - Duracao: 32520 Nota: C1 Vol.: 75
Chanel 3 Note Off - Duracao: 32520 Nota: C1 Vol.: 96
Chanel 3 Note On - Duracao: 32520 Nota: C1 Vol.: 97
Chanel 3 Note Off - Duracao: 32580 Nota: C1 Vol.: 97
Chanel 3 Note On - Duracao: 32580 Nota: C1 Vol.: 63
Chanel 6 Note Off - Duracao: 32640 Nota: C1 Vol.: 52
Chanel 6 Note On - Duracao: 32640 Nota: C1 Vol.: 56
Chanel 7 Note Off - Duracao: 32640 Nota: C1 Vol.: 59
Chanel 7 Note On - Duracao: 32640 Nota: C1 Vol.: 55
Chanel 9 Note Off - Duracao: 32640 Nota: C1 Vol.: 59
Chanel 9 Note On - Duracao: 32640 Nota: C1 Vol.: 62
Chanel 5 Note Off - Duracao: 32700 Nota: C1 Vol.: 61
Chanel 5 Note On - Duracao: 32700 Nota: C1 Vol.: 67
Chanel 8 Note Off - Duracao: 32700 Nota: C1 Vol.: 78
Chanel 8 Note On - Duracao: 32700 Nota: C1 Vol.: 71
Chanel 2 Note Off - Duracao: 32760 Nota: C1 Vol.: 75
Chanel 2 Note On - Duracao: 32760 Nota: C1 Vol.: 75
Chanel 4 Note Off - Duracao: 32760 Nota: C1 Vol.: 60
Chanel 4 Note On - Duracao: 32760 Nota: C1 Vol.: 65
Chanel 5 Note Off - Duracao: 32820 Nota: C1 Vol.: 67
Chanel 5 Note On - Duracao: 32820 Nota: C1 Vol.: 67
Chanel 9 Note Off - Duracao: 32880 Nota: C1 Vol.: 62
Chanel 9 Note On - Duracao: 32880 Nota: C1 Vol.: 65
Chanel 1 Note Off - Duracao: 33000 Nota: C1 Vol.: 40
Chanel 1 Note On - Duracao: 33000 Nota: C1 Vol.: 40
Chanel 2 Note Off - Duracao: 33000 Nota: C1 Vol.: 75
Chanel 2 Note On - Duracao: 33000 Nota: C1 Vol.: 71
Chanel 5 Note Off - Duracao: 33060 Nota: C1 Vol.: 67
Chanel 5 Note On - Duracao: 33060 Nota: C1 Vol.: 60
Chanel 9 Note Off - Duracao: 33120 Nota: C1 Vol.: 65
Chanel 9 Note On - Duracao: 33120 Nota: C1 Vol.: 64
Chanel 2 Note Off - Duracao: 33240 Nota: C1 Vol.: 71
Chanel 2 Note On - Duracao: 33240 Nota: C1 Vol.: 64
Chanel 9 Note Off - Duracao: 33360 Nota: C1 Vol.: 64
Chanel 9 Note On - Duracao: 33360 Nota: C1 Vol.: 64
Chanel 2 Note Off - Duracao: 33480 Nota: C1 Vol.: 64
Chanel 2 Note On - Duracao: 33480 Nota: C1 Vol.: 64
Chanel 3 Note Off - Duracao: 33540 Nota: C1 Vol.: 63
Chanel 3 Note On - Duracao: 33540 Nota: C1 Vol.: 70
Chanel 5 Note Off - Duracao: 33540 Nota: C1 Vol.: 60
Chanel 5 Note On - Duracao: 33540 Nota: C1 Vol.: 57
Chanel 9 Note Off - Duracao: 33600 Nota: C1 Vol.: 64
Chanel 9 Note On - Duracao: 33600 Nota: C1 Vol.: 61
Chanel 8 Note Off - Duracao: 33660 Nota: C1 Vol.: 71
Chanel 8 Note On - Duracao: 33660 Nota: C1 Vol.: 67
Chanel 2 Note Off - Duracao: 33720 Nota: C1 Vol.: 64
Chanel 2 Note On - Duracao: 33720 Nota: C1 Vol.: 67
Chanel 4 Note Off - Duracao: 33720 Nota: C1 Vol.: 65
Chanel 4 Note On - Duracao: 33720 Nota: C1 Vol.: 65
Chanel 2 Note Off - Duracao: 33840 Nota: C1 Vol.: 67
Chanel 2 Note On - Duracao: 33840 Nota: C1 Vol.: 69
Chanel 9 Note Off - Duracao: 33840 Nota: C1 Vol.: 61
Chanel 9 Note On - Duracao: 33840 Nota: C1 Vol.: 58
Chanel 2 Note Off - Duracao: 33960 Nota: C1 Vol.: 69
Chanel 2 Note On - Duracao: 33960 Nota: C1 Vol.: 65
Chanel 3 Note Off - Duracao: 34020 Nota: C1 Vol.: 70
Chanel 3 Note On - Duracao: 34020 Nota: C1 Vol.: 97
Chanel 5 Note Off - Duracao: 34020 Nota: C1 Vol.: 57
Chanel 5 Note On - Duracao: 34020 Nota: C1 Vol.: 62
Chanel 2 Note Off - Duracao: 34080 Nota: C1 Vol.: 65
Chanel 2 Note On - Duracao: 34080 Nota: C1 Vol.: 58
Chanel 3 Note Off - Duracao: 34080 Nota: C1 Vol.: 97
Chanel 3 Note On - Duracao: 34080 Nota: C1 Vol.: 87
Chanel 9 Note Off - Duracao: 34080 Nota: C1 Vol.: 58
Chanel 9 Note On - Duracao: 34080 Nota: C1 Vol.: 51
Chanel 3 Note Off - Duracao: 34200 Nota: C1 Vol.: 87
Chanel 3 Note On - Duracao: 34200 Nota: C1 Vol.: 69
Chanel 5 Note Off - Duracao: 34260 Nota: C1 Vol.: 62
Chanel 5 Note On - Duracao: 34260 Nota: C1 Vol.: 57
Chanel 2 Note Off - Duracao: 34320 Nota: C1 Vol.: 58
Chanel 2 Note On - Duracao: 34320 Nota: C1 Vol.: 99
Chanel 2 Note Off - Duracao: 34440 Nota: C1 Vol.: 99
Chanel 2 Note On - Duracao: 34440 Nota: C1 Vol.: 98
Chanel 2 Note Off - Duracao: 34560 Nota: C1 Vol.: 98
Chanel 2 Note On - Duracao: 34560 Nota: C1 Vol.: 89
Chanel 6 Note Off - Duracao: 34560 Nota: C1 Vol.: 56
Chanel 6 Note On - Duracao: 34560 Nota: C1 Vol.: 54
Chanel 9 Note Off - Duracao: 34560 Nota: C1 Vol.: 51
Chanel 9 Note On - Duracao: 34560 Nota: C1 Vol.: 52
Chanel 8 Note Off - Duracao: 34620 Nota: C1 Vol.: 67
Chanel 8 Note On - Duracao: 34620 Nota: C1 Vol.: 70
Chanel 2 Note Off - Duracao: 34680 Nota: C1 Vol.: 89
Chanel 2 Note On - Duracao: 34680 Nota: C1 Vol.: 80
Chanel 3 Note Off - Duracao: 34680 Nota: C1 Vol.: 69
Chanel 3 Note On - Duracao: 34680 Nota: C1 Vol.: 53
Chanel 4 Note Off - Duracao: 34680 Nota: C1 Vol.: 65
Chanel 4 Note On - Duracao: 34680 Nota: C1 Vol.: 52
Chanel 5 Note Off - Duracao: 34740 Nota: C1 Vol.: 57
Chanel 5 Note On - Duracao: 34740 Nota: C1 Vol.: 52
Chanel 1 Note Off - Duracao: 34920 Nota: C1 Vol.: 40
Chanel 1 Note On - Duracao: 34920 Nota: C1 Vol.: 40
Chanel 2 Note Off - Duracao: 34920 Nota: C1 Vol.: 80
Chanel 2 Note On - Duracao: 34920 Nota: C1 Vol.: 76
Chanel 9 Note Off - Duracao: 35040 Nota: C1 Vol.: 52
Chanel 9 Note On - Duracao: 35040 Nota: C1 Vol.: 53
Chanel 8 Note Off - Duracao: 35100 Nota: C1 Vol.: 70
Chanel 8 Note On - Duracao: 35100 Nota: C1 Vol.: 77
Chanel 5 Note Off - Duracao: 35220 Nota: C1 Vol.: 52
Chanel 5 Note On - Duracao: 35220 Nota: C1 Vol.: 64
Chanel 8 Note Off - Duracao: 35340 Nota: C1 Vol.: 77
Chanel 8 Note On - Duracao: 35340 Nota: C1 Vol.: 79
Chanel 2 Note Off - Duracao: 35400 Nota: C1 Vol.: 76
Chanel 2 Note On - Duracao: 35400 Nota: C1 Vol.: 80
Chanel 5 Note Off - Duracao: 35460 Nota: C1 Vol.: 64
Chanel 5 Note On - Duracao: 35460 Nota: C1 Vol.: 63
Chanel 9 Note Off - Duracao: 35520 Nota: C1 Vol.: 53
Chanel 9 Note On - Duracao: 35520 Nota: C1 Vol.: 62
Chanel 8 Note Off - Duracao: 35580 Nota: C1 Vol.: 79
Chanel 8 Note On - Duracao: 35580 Nota: C1 Vol.: 71
Chanel 2 Note Off - Duracao: 35640 Nota: C1 Vol.: 80
Chanel 2 Note On - Duracao: 35640 Nota: C1 Vol.: 77
Chanel 3 Note Off - Duracao: 35640 Nota: C1 Vol.: 53
Chanel 3 Note On - Duracao: 35640 Nota: C1 Vol.: 53
Chanel 5 Note Off - Duracao: 35700 Nota: C1 Vol.: 63
Chanel 5 Note On - Duracao: 35700 Nota: C1 Vol.: 55
Chanel 2 Note Off - Duracao: 35880 Nota: C1 Vol.: 77
Chanel 2 Note On - Duracao: 35880 Nota: C1 Vol.: 80
Chanel 9 Note Off - Duracao: 36000 Nota: C1 Vol.: 62
Chanel 9 Note On - Duracao: 36000 Nota: C1 Vol.: 70
Chanel 8 Note Off - Duracao: 36060 Nota: C1 Vol.: 71
Chanel 8 Note On - Duracao: 36060 Nota: C1 Vol.: 77
Chanel 2 Note Off - Duracao: 36120 Nota: C1 Vol.: 80
Chanel 2 Note On - Duracao: 36120 Nota: C1 Vol.: 76
Chanel 5 Note Off - Duracao: 36180 Nota: C1 Vol.: 55
Chanel 5 Note On - Duracao: 36180 Nota: C1 Vol.: 51
Chanel 9 Note Off - Duracao: 36240 Nota: C1 Vol.: 70
Chanel 9 Note On - Duracao: 36240 Nota: C1 Vol.: 71
Chanel 2 Note Off - Duracao: 36360 Nota: C1 Vol.: 76
Chanel 2 Note On - Duracao: 36360 Nota: C1 Vol.: 77
Chanel 7 Note Off - Duracao: 36480 Nota: C1 Vol.: 55
Chanel 7 Note On - Duracao: 36480 Nota: C1 Vol.: 55
Chanel 9 Note Off - Duracao: 36480 Nota: C1 Vol.: 71
Chanel 9 Note On - Duracao: 36480 Nota: C1 Vol.: 67
Chanel 8 Note Off - Duracao: 36540 Nota: C1 Vol.: 77
Chanel 8 Note On - Duracao: 36540 Nota: C1 Vol.: 78
Chanel 2 Note Off - Duracao: 36600 Nota: C1 Vol.: 77
Chanel 2 Note On - Duracao: 36600 Nota: C1 Vol.: 82
Chanel 3 Note Off - Duracao: 36600 Nota: C1 Vol.: 53
Chanel 3 Note On - Duracao: 36600 Nota: C1 Vol.: 45
Chanel 4 Note Off - Duracao: 36600 Nota: C1 Vol.: 52
Chanel 4 Note On - Duracao: 36600 Nota: C1 Vol.: 44
Chanel 1 Note Off - Duracao: 36840 Nota: C1 Vol.: 40
Chanel 1 Note On - Duracao: 36840 Nota: C1 Vol.: 43
Chanel 2 Note Off - Duracao: 36840 Nota: C1 Vol.: 82
Chanel 2 Note On - Duracao: 36840 Nota: C1 Vol.: 83
Chanel 9 Note Off - Duracao: 36960 Nota: C1 Vol.: 67
Chanel 9 Note On - Duracao: 36960 Nota: C1 Vol.: 64
Chanel 2 Note Off - Duracao: 37080 Nota: C1 Vol.: 83
Chanel 2 Note On - Duracao: 37080 Nota: C1 Vol.: 82
Chanel 5 Note Off - Duracao: 37140 Nota: C1 Vol.: 51
Chanel 5 Note On - Duracao: 37140 Nota: C1 Vol.: 45
Chanel 2 Note Off - Duracao: 37320 Nota: C1 Vol.: 82
Chanel 2 Note On - Duracao: 37320 Nota: C1 Vol.: 81
Chanel 9 Note Off - Duracao: 37440 Nota: C1 Vol.: 64
Chanel 9 Note On - Duracao: 37440 Nota: C1 Vol.: 71
Chanel 8 Note Off - Duracao: 37500 Nota: C1 Vol.: 78
Chanel 8 Note On - Duracao: 37500 Nota: C1 Vol.: 83
Chanel 2 Note Off - Duracao: 37560 Nota: C1 Vol.: 81
Chanel 2 Note On - Duracao: 37560 Nota: C1 Vol.: 81
Chanel 3 Note Off - Duracao: 37560 Nota: C1 Vol.: 45
Chanel 3 Note On - Duracao: 37560 Nota: C1 Vol.: 46
Chanel 2 Note Off - Duracao: 37800 Nota: C1 Vol.: 81
Chanel 2 Note On - Duracao: 37800 Nota: C1 Vol.: 73
Chanel 9 Note Off - Duracao: 37920 Nota: C1 Vol.: 71
Chanel 9 Note On - Duracao: 37920 Nota: C1 Vol.: 75
Chanel 8 Note Off - Duracao: 37980 Nota: C1 Vol.: 83
Chanel 8 Note On - Duracao: 37980 Nota: C1 Vol.: 78
Chanel 5 Note Off - Duracao: 38100 Nota: C1 Vol.: 45
Chanel 5 Note On - Duracao: 38100 Nota: C1 Vol.: 47
Chanel 2 Note Off - Duracao: 38280 Nota: C1 Vol.: 73
Chanel 2 Note On - Duracao: 38280 Nota: C1 Vol.: 72
Chanel 6 Note Off - Duracao: 38400 Nota: C1 Vol.: 54
Chanel 6 Note On - Duracao: 38400 Nota: C1 Vol.: 60
Chanel 9 Note Off - Duracao: 38400 Nota: C1 Vol.: 75
Chanel 9 Note On - Duracao: 38400 Nota: C1 Vol.: 75
Chanel 3 Note Off - Duracao: 38520 Nota: C1 Vol.: 46
Chanel 3 Note On - Duracao: 38520 Nota: C1 Vol.: 51
Chanel 1 Note Off - Duracao: 38760 Nota: C1 Vol.: 43
Chanel 1 Note On - Duracao: 38760 Nota: C1 Vol.: 49
Chanel 2 Note Off - Duracao: 38760 Nota: C1 Vol.: 72
Chanel 2 Note On - Duracao: 38760 Nota: C1 Vol.: 76
Chanel 3 Note Off - Duracao: 38760 Nota: C1 Vol.: 51
Chanel 3 Note On - Duracao: 38760 Nota: C1 Vol.: 49
Chanel 9 Note Off - Duracao: 38880 Nota: C1 Vol.: 75
Chanel 9 Note On - Duracao: 38880 Nota: C1 Vol.: 72
Chanel 8 Note Off - Duracao: 38940 Nota: C1 Vol.: 78
Chanel 8 Note On - Duracao: 38940 Nota: C1 Vol.: 74
Chanel 2 Note Off - Duracao: 39000 Nota: C1 Vol.: 76
Chanel 2 Note On - Duracao: 39000 Nota: C1 Vol.: 86
Chanel 3 Note Off - Duracao: 39000 Nota: C1 Vol.: 49
Chanel 3 Note On - Duracao: 39000 Nota: C1 Vol.: 42
Chanel 5 Note Off - Duracao: 39060 Nota: C1 Vol.: 47
Chanel 5 Note On - Duracao: 39060 Nota: C1 Vol.: 58
Chanel 2 Note Off - Duracao: 39240 Nota: C1 Vol.: 86
Chanel 2 Note On - Duracao: 39240 Nota: C1 Vol.: 79
Chanel 3 Note Off - Duracao: 39240 Nota: C1 Vol.: 42
Chanel 3 Note On - Duracao: 39240 Nota: C1 Vol.: 45
Chanel 3 Note Off - Duracao: 39360 Nota: C1 Vol.: 45
Chanel 3 Note On - Duracao: 39360 Nota: C1 Vol.: 45
Chanel 9 Note Off - Duracao: 39360 Nota: C1 Vol.: 72
Chanel 9 Note On - Duracao: 39360 Nota: C1 Vol.: 69
Chanel 8 Note Off - Duracao: 39420 Nota: C1 Vol.: 74
Chanel 8 Note On - Duracao: 39420 Nota: C1 Vol.: 62
Chanel 2 Note Off - Duracao: 39480 Nota: C1 Vol.: 79
Chanel 2 Note On - Duracao: 39480 Nota: C1 Vol.: 77
Chanel 3 Note Off - Duracao: 39480 Nota: C1 Vol.: 45
Chanel 3 Note On - Duracao: 39480 Nota: C1 Vol.: 43
Chanel 5 Note Off - Duracao: 39540 Nota: C1 Vol.: 58
Chanel 5 Note On - Duracao: 39540 Nota: C1 Vol.: 44
Chanel 3 Note Off - Duracao: 39600 Nota: C1 Vol.: 43
Chanel 3 Note On - Duracao: 39600 Nota: C1 Vol.: 41
Chanel 1 Note Off - Duracao: 39720 Nota: C1 Vol.: 49
Chanel 1 Note On - Duracao: 39720 Nota: C1 Vol.: 61
Chanel 3 Note Off - Duracao: 39720 Nota: C1 Vol.: 41
Chanel 3 Note On - Duracao: 39720 Nota: C1 Vol.: 47
Chanel 3 Note Off - Duracao: 39840 Nota: C1 Vol.: 47
Chanel 3 Note On - Duracao: 39840 Nota: C1 Vol.: 55
Chanel 9 Note Off - Duracao: 39840 Nota: C1 Vol.: 69
Chanel 9 Note On - Duracao: 39840 Nota: C1 Vol.: 65
Chanel 2 Note Off - Duracao: 39960 Nota: C1 Vol.: 77
Chanel 2 Note On - Duracao: 39960 Nota: C1 Vol.: 81
Chanel 3 Note Off - Duracao: 39960 Nota: C1 Vol.: 55
Chanel 3 Note On - Duracao: 39960 Nota: C1 Vol.: 64
Chanel 3 Note Off - Duracao: 40080 Nota: C1 Vol.: 64
Chanel 3 Note On - Duracao: 40080 Nota: C1 Vol.: 40
Chanel 1 Note Off - Duracao: 40200 Nota: C1 Vol.: 61
Chanel 1 Note On - Duracao: 40200 Nota: C1 Vol.: 83
Chanel 2 Note Off - Duracao: 40200 Nota: C1 Vol.: 81
Chanel 2 Note On - Duracao: 40200 Nota: C1 Vol.: 91
Chanel 1 Note Off - Duracao: 40320 Nota: C1 Vol.: 83
Chanel 1 Note On - Duracao: 40320 Nota: C1 Vol.: 97
Chanel 2 Note Off - Duracao: 40320 Nota: C1 Vol.: 91
Chanel 2 Note On - Duracao: 40320 Nota: C1 Vol.: 95
Chanel 6 Note Off - Duracao: 40320 Nota: C1 Vol.: 60
Chanel 6 Note On - Duracao: 40320 Nota: C1 Vol.: 55
Chanel 7 Note Off - Duracao: 40320 Nota: C1 Vol.: 55
Chanel 7 Note On - Duracao: 40320 Nota: C1 Vol.: 54
Chanel 9 Note Off - Duracao: 40320 Nota: C1 Vol.: 65
Chanel 9 Note On - Duracao: 40320 Nota: C1 Vol.: 57
Chanel 1 Note Off - Duracao: 40380 Nota: C1 Vol.: 97
Chanel 1 Note On - Duracao: 40380 Nota: C1 Vol.: 96
Chanel 2 Note Off - Duracao: 40380 Nota: C1 Vol.: 95
Chanel 2 Note On - Duracao: 40380 Nota: C1 Vol.: 98
Chanel 8 Note Off - Duracao: 40380 Nota: C1 Vol.: 62
Chanel 8 Note On - Duracao: 40380 Nota: C1 Vol.: 56
Chanel 1 Note Off - Duracao: 40440 Nota: C1 Vol.: 96
Chanel 1 Note On - Duracao: 40440 Nota: C1 Vol.: 90
Chanel 2 Note Off - Duracao: 40440 Nota: C1 Vol.: 98
Chanel 2 Note On - Duracao: 40440 Nota: C1 Vol.: 87
Chanel 4 Note Off - Duracao: 40440 Nota: C1 Vol.: 44
Chanel 4 Note On - Duracao: 40440 Nota: C1 Vol.: 42
Chanel 1 Note Off - Duracao: 40560 Nota: C1 Vol.: 90
Chanel 1 Note On - Duracao: 40560 Nota: C1 Vol.: 89
Chanel 2 Note Off - Duracao: 40560 Nota: C1 Vol.: 87
Chanel 2 Note On - Duracao: 40560 Nota: C1 Vol.: 86
Chanel 8 Note Off - Duracao: 40620 Nota: C1 Vol.: 56
Chanel 8 Note On - Duracao: 40620 Nota: C1 Vol.: 58
Chanel 1 Note Off - Duracao: 40680 Nota: C1 Vol.: 89
Chanel 1 Note On - Duracao: 40680 Nota: C1 Vol.: 85
Chanel 2 Note Off - Duracao: 40680 Nota: C1 Vol.: 86
Chanel 2 Note On - Duracao: 40680 Nota: C1 Vol.: 71
Chanel 1 Note Off - Duracao: 40800 Nota: C1 Vol.: 85
Chanel 1 Note On - Duracao: 40800 Nota: C1 Vol.: 84
Chanel 8 Note Off - Duracao: 40860 Nota: C1 Vol.: 58
Chanel 8 Note On - Duracao: 40860 Nota: C1 Vol.: 57
Chanel 2 Note Off - Duracao: 40920 Nota: C1 Vol.: 71
Chanel 2 Note On - Duracao: 40920 Nota: C1 Vol.: 63
Chanel 1 Note Off - Duracao: 41040 Nota: C1 Vol.: 84
Chanel 1 Note On - Duracao: 41040 Nota: C1 Vol.: 82
Chanel 8 Note Off - Duracao: 41100 Nota: C1 Vol.: 57
Chanel 8 Note On - Duracao: 41100 Nota: C1 Vol.: 50
Chanel 2 Note Off - Duracao: 41160 Nota: C1 Vol.: 63
Chanel 2 Note On - Duracao: 41160 Nota: C1 Vol.: 64
Chanel 1 Note Off - Duracao: 41280 Nota: C1 Vol.: 82
Chanel 1 Note On - Duracao: 41280 Nota: C1 Vol.: 85
Chanel 2 Note Off - Duracao: 41280 Nota: C1 Vol.: 64
Chanel 2 Note On - Duracao: 41280 Nota: C1 Vol.: 62
Chanel 9 Note Off - Duracao: 41280 Nota: C1 Vol.: 57
Chanel 9 Note On - Duracao: 41280 Nota: C1 Vol.: 58
Chanel 8 Note Off - Duracao: 41340 Nota: C1 Vol.: 50
Chanel 8 Note On - Duracao: 41340 Nota: C1 Vol.: 41
Chanel 2 Note Off - Duracao: 41400 Nota: C1 Vol.: 62
Chanel 2 Note On - Duracao: 41400 Nota: C1 Vol.: 61
Chanel 5 Note Off - Duracao: 41460 Nota: C1 Vol.: 44
Chanel 5 Note On - Duracao: 41460 Nota: C1 Vol.: 50
Chanel 1 Note Off - Duracao: 41520 Nota: C1 Vol.: 85
Chanel 1 Note On - Duracao: 41520 Nota: C1 Vol.: 82
Chanel 2 Note Off - Duracao: 41520 Nota: C1 Vol.: 61
Chanel 2 Note On - Duracao: 41520 Nota: C1 Vol.: 59
Chanel 2 Note Off - Duracao: 41640 Nota: C1 Vol.: 59
Chanel 2 Note On - Duracao: 41640 Nota: C1 Vol.: 63
Chanel 1 Note Off - Duracao: 41760 Nota: C1 Vol.: 82
Chanel 1 Note On - Duracao: 41760 Nota: C1 Vol.: 85
Chanel 2 Note Off - Duracao: 41760 Nota: C1 Vol.: 63
Chanel 2 Note On - Duracao: 41760 Nota: C1 Vol.: 61
Chanel 8 Note Off - Duracao: 41820 Nota: C1 Vol.: 41
Chanel 8 Note On - Duracao: 41820 Nota: C1 Vol.: 44
Chanel 1 Note Off - Duracao: 41880 Nota: C1 Vol.: 85
Chanel 1 Note On - Duracao: 41880 Nota: C1 Vol.: 87
Chanel 2 Note Off - Duracao: 41880 Nota: C1 Vol.: 61
Chanel 2 Note On - Duracao: 41880 Nota: C1 Vol.: 60
Chanel 1 Note Off - Duracao: 42000 Nota: C1 Vol.: 87
Chanel 1 Note On - Duracao: 42000 Nota: C1 Vol.: 91
Chanel 3 Note Off - Duracao: 42000 Nota: C1 Vol.: 40
Chanel 3 Note On - Duracao: 42000 Nota: C1 Vol.: 54
Chanel 1 Note Off - Duracao: 42120 Nota: C1 Vol.: 91
Chanel 1 Note On - Duracao: 42120 Nota: C1 Vol.: 88
Chanel 2 Note Off - Duracao: 42120 Nota: C1 Vol.: 60
Chanel 2 Note On - Duracao: 42120 Nota: C1 Vol.: 54
Chanel 1 Note Off - Duracao: 42240 Nota: C1 Vol.: 88
Chanel 1 Note On - Duracao: 42240 Nota: C1 Vol.: 93
Chanel 6 Note Off - Duracao: 42240 Nota: C1 Vol.: 55
Chanel 6 Note On - Duracao: 42240 Nota: C1 Vol.: 87
Chanel 9 Note Off - Duracao: 42240 Nota: C1 Vol.: 58
Chanel 9 Note On - Duracao: 42240 Nota: C1 Vol.: 53
Chanel 8 Note Off - Duracao: 42300 Nota: C1 Vol.: 44
Chanel 8 Note On - Duracao: 42300 Nota: C1 Vol.: 44
Chanel 1 Note Off - Duracao: 42360 Nota: C1 Vol.: 93
Chanel 1 Note On - Duracao: 42360 Nota: C1 Vol.: 88
Chanel 2 Note Off - Duracao: 42360 Nota: C1 Vol.: 54
Chanel 2 Note On - Duracao: 42360 Nota: C1 Vol.: 68
Chanel 5 Note Off - Duracao: 42420 Nota: C1 Vol.: 50
Chanel 5 Note On - Duracao: 42420 Nota: C1 Vol.: 58
Chanel 2 Note Off - Duracao: 42480 Nota: C1 Vol.: 68
Chanel 2 Note On - Duracao: 42480 Nota: C1 Vol.: 55
Chanel 3 Note Off - Duracao: 42480 Nota: C1 Vol.: 54
Chanel 3 Note On - Duracao: 42480 Nota: C1 Vol.: 58
Chanel 6 Note Off - Duracao: 42480 Nota: C1 Vol.: 87
Chanel 6 Note On - Duracao: 42480 Nota: C1 Vol.: 94
Chanel 1 Note Off - Duracao: 42600 Nota: C1 Vol.: 88
Chanel 1 Note On - Duracao: 42600 Nota: C1 Vol.: 96
Chanel 6 Note Off - Duracao: 42600 Nota: C1 Vol.: 94
Chanel 6 Note On - Duracao: 42600 Nota: C1 Vol.: 93
Chanel 1 Note Off - Duracao: 42720 Nota: C1 Vol.: 96
Chanel 1 Note On - Duracao: 42720 Nota: C1 Vol.: 96
Chanel 2 Note Off - Duracao: 42720 Nota: C1 Vol.: 55
Chanel 2 Note On - Duracao: 42720 Nota: C1 Vol.: 59
Chanel 6 Note Off - Duracao: 42720 Nota: C1 Vol.: 93
Chanel 6 Note On - Duracao: 42720 Nota: C1 Vol.: 95
Chanel 8 Note Off - Duracao: 42780 Nota: C1 Vol.: 44
Chanel 8 Note On - Duracao: 42780 Nota: C1 Vol.: 46
Chanel 1 Note Off - Duracao: 42840 Nota: C1 Vol.: 96
Chanel 1 Note On - Duracao: 42840 Nota: C1 Vol.: 95
Chanel 6 Note Off - Duracao: 42840 Nota: C1 Vol.: 95
Chanel 6 Note On - Duracao: 42840 Nota: C1 Vol.: 92
Chanel 1 Note Off - Duracao: 42960 Nota: C1 Vol.: 95
Chanel 1 Note On - Duracao: 42960 Nota: C1 Vol.: 98
Chanel 3 Note Off - Duracao: 42960 Nota: C1 Vol.: 58
Chanel 3 Note On - Duracao: 42960 Nota: C1 Vol.: 54
Chanel 6 Note Off - Duracao: 42960 Nota: C1 Vol.: 92
Chanel 6 Note On - Duracao: 42960 Nota: C1 Vol.: 85
Chanel 1 Note Off - Duracao: 43020 Nota: C1 Vol.: 98
Chanel 1 Note On - Duracao: 43020 Nota: C1 Vol.: 97
Chanel 1 Note Off - Duracao: 43080 Nota: C1 Vol.: 97
Chanel 1 Note On - Duracao: 43080 Nota: C1 Vol.: 99
Chanel 1 Note Off - Duracao: 43140 Nota: C1 Vol.: 99
Chanel 1 Note On - Duracao: 43140 Nota: C1 Vol.: 100
Chanel 1 Note Off - Duracao: 43200 Nota: C1 Vol.: 100
Chanel 1 Note On - Duracao: 43200 Nota: C1 Vol.: 99
Chanel 2 Note Off - Duracao: 43200 Nota: C1 Vol.: 59
Chanel 2 Note On - Duracao: 43200 Nota: C1 Vol.: 75
Chanel 6 Note Off - Duracao: 43200 Nota: C1 Vol.: 85
Chanel 6 Note On - Duracao: 43200 Nota: C1 Vol.: 52
Chanel 9 Note Off - Duracao: 43200 Nota: C1 Vol.: 53
Chanel 9 Note On - Duracao: 43200 Nota: C1 Vol.: 50
Chanel 8 Note Off - Duracao: 43260 Nota: C1 Vol.: 46
Chanel 8 Note On - Duracao: 43260 Nota: C1 Vol.: 43
Chanel 1 Note Off - Duracao: 43320 Nota: C1 Vol.: 99
Chanel 1 Note On - Duracao: 43320 Nota: C1 Vol.: 97
Chanel 5 Note Off - Duracao: 43380 Nota: C1 Vol.: 58
Chanel 5 Note On - Duracao: 43380 Nota: C1 Vol.: 84
Chanel 1 Note Off - Duracao: 43440 Nota: C1 Vol.: 97
Chanel 1 Note On - Duracao: 43440 Nota: C1 Vol.: 93
Chanel 2 Note Off - Duracao: 43440 Nota: C1 Vol.: 75
Chanel 2 Note On - Duracao: 43440 Nota: C1 Vol.: 80
Chanel 3 Note Off - Duracao: 43440 Nota: C1 Vol.: 54
Chanel 3 Note On - Duracao: 43440 Nota: C1 Vol.: 64
Chanel 5 Note Off - Duracao: 43500 Nota: C1 Vol.: 84
Chanel 5 Note On - Duracao: 43500 Nota: C1 Vol.: 94
Chanel 1 Note Off - Duracao: 43560 Nota: C1 Vol.: 93
Chanel 1 Note On - Duracao: 43560 Nota: C1 Vol.: 95
Chanel 2 Note Off - Duracao: 43560 Nota: C1 Vol.: 80
Chanel 2 Note On - Duracao: 43560 Nota: C1 Vol.: 76
Chanel 5 Note Off - Duracao: 43560 Nota: C1 Vol.: 94
Chanel 5 Note On - Duracao: 43560 Nota: C1 Vol.: 92
Chanel 1 Note Off - Duracao: 43680 Nota: C1 Vol.: 95
Chanel 1 Note On - Duracao: 43680 Nota: C1 Vol.: 95
Chanel 3 Note Off - Duracao: 43680 Nota: C1 Vol.: 64
Chanel 3 Note On - Duracao: 43680 Nota: C1 Vol.: 67
Chanel 5 Note Off - Duracao: 43680 Nota: C1 Vol.: 92
Chanel 5 Note On - Duracao: 43680 Nota: C1 Vol.: 85
Chanel 1 Note Off - Duracao: 43800 Nota: C1 Vol.: 95
Chanel 1 Note On - Duracao: 43800 Nota: C1 Vol.: 99
Chanel 2 Note Off - Duracao: 43800 Nota: C1 Vol.: 76
Chanel 2 Note On - Duracao: 43800 Nota: C1 Vol.: 72
Chanel 5 Note Off - Duracao: 43800 Nota: C1 Vol.: 85
Chanel 5 Note On - Duracao: 43800 Nota: C1 Vol.: 74
Chanel 1 Note Off - Duracao: 43860 Nota: C1 Vol.: 99
Chanel 1 Note On - Duracao: 43860 Nota: C1 Vol.: 98
Chanel 1 Note Off - Duracao: 43920 Nota: C1 Vol.: 98
Chanel 1 Note On - Duracao: 43920 Nota: C1 Vol.: 99
Chanel 3 Note Off - Duracao: 43920 Nota: C1 Vol.: 67
Chanel 3 Note On - Duracao: 43920 Nota: C1 Vol.: 61
Chanel 1 Note Off - Duracao: 43980 Nota: C1 Vol.: 99
Chanel 1 Note On - Duracao: 43980 Nota: C1 Vol.: 99
Chanel 1 Note Off - Duracao: 44040 Nota: C1 Vol.: 99
Chanel 1 Note On - Duracao: 44040 Nota: C1 Vol.: 99
Chanel 2 Note Off - Duracao: 44040 Nota: C1 Vol.: 72
Chanel 2 Note On - Duracao: 44040 Nota: C1 Vol.: 76
Chanel 5 Note Off - Duracao: 44040 Nota: C1 Vol.: 74
Chanel 5 Note On - Duracao: 44040 Nota: C1 Vol.: 47
Chanel 1 Note Off - Duracao: 44100 Nota: C1 Vol.: 99
Chanel 1 Note On - Duracao: 44100 Nota: C1 Vol.: 100
Chanel 1 Note Off - Duracao: 44160 Nota: C1 Vol.: 100
Chanel 1 Note On - Duracao: 44160 Nota: C1 Vol.: 100
Chanel 3 Note Off - Duracao: 44160 Nota: C1 Vol.: 61
Chanel 3 Note On - Duracao: 44160 Nota: C1 Vol.: 55
Chanel 7 Note Off - Duracao: 44160 Nota: C1 Vol.: 54
Chanel 7 Note On - Duracao: 44160 Nota: C1 Vol.: 54
Chanel 1 Note Off - Duracao: 44220 Nota: C1 Vol.: 100
Chanel 1 Note On - Duracao: 44220 Nota: C1 Vol.: 99
Chanel 8 Note Off - Duracao: 44220 Nota: C1 Vol.: 43
Chanel 8 Note On - Duracao: 44220 Nota: C1 Vol.: 63
Chanel 2 Note Off - Duracao: 44280 Nota: C1 Vol.: 76
Chanel 2 Note On - Duracao: 44280 Nota: C1 Vol.: 70
Chanel 4 Note Off - Duracao: 44280 Nota: C1 Vol.: 42
Chanel 4 Note On - Duracao: 44280 Nota: C1 Vol.: 42
Chanel 1 Note Off - Duracao: 44340 Nota: C1 Vol.: 99
Chanel 1 Note On - Duracao: 44340 Nota: C1 Vol.: 97
Chanel 1 Note Off - Duracao: 44460 Nota: C1 Vol.: 97
Chanel 1 Note On - Duracao: 44460 Nota: C1 Vol.: 98
Chanel 8 Note Off - Duracao: 44460 Nota: C1 Vol.: 63
Chanel 8 Note On - Duracao: 44460 Nota: C1 Vol.: 51
Chanel 1 Note Off - Duracao: 44520 Nota: C1 Vol.: 98
Chanel 1 Note On - Duracao: 44520 Nota: C1 Vol.: 97
Chanel 2 Note Off - Duracao: 44520 Nota: C1 Vol.: 70
Chanel 2 Note On - Duracao: 44520 Nota: C1 Vol.: 67
Chanel 1 Note Off - Duracao: 44640 Nota: C1 Vol.: 97
Chanel 1 Note On - Duracao: 44640 Nota: C1 Vol.: 98
Chanel 3 Note Off - Duracao: 44640 Nota: C1 Vol.: 55
Chanel 3 Note On - Duracao: 44640 Nota: C1 Vol.: 66
Chanel 1 Note Off - Duracao: 44700 Nota: C1 Vol.: 98
Chanel 1 Note On - Duracao: 44700 Nota: C1 Vol.: 98
Chanel 8 Note Off - Duracao: 44700 Nota: C1 Vol.: 51
Chanel 8 Note On - Duracao: 44700 Nota: C1 Vol.: 53
Chanel 2 Note Off - Duracao: 44760 Nota: C1 Vol.: 67
Chanel 2 Note On - Duracao: 44760 Nota: C1 Vol.: 75
Chanel 1 Note Off - Duracao: 44820 Nota: C1 Vol.: 98
Chanel 1 Note On - Duracao: 44820 Nota: C1 Vol.: 98
Chanel 2 Note Off - Duracao: 44880 Nota: C1 Vol.: 75
Chanel 2 Note On - Duracao: 44880 Nota: C1 Vol.: 68
Chanel 3 Note Off - Duracao: 44880 Nota: C1 Vol.: 66
Chanel 3 Note On - Duracao: 44880 Nota: C1 Vol.: 94
Chanel 1 Note Off - Duracao: 44940 Nota: C1 Vol.: 98
Chanel 1 Note On - Duracao: 44940 Nota: C1 Vol.: 100
Chanel 8 Note Off - Duracao: 44940 Nota: C1 Vol.: 53
Chanel 8 Note On - Duracao: 44940 Nota: C1 Vol.: 60
Chanel 1 Note Off - Duracao: 45000 Nota: C1 Vol.: 100
Chanel 1 Note On - Duracao: 45000 Nota: C1 Vol.: 98
Chanel 3 Note Off - Duracao: 45000 Nota: C1 Vol.: 94
Chanel 3 Note On - Duracao: 45000 Nota: C1 Vol.: 71
Chanel 1 Note Off - Duracao: 45120 Nota: C1 Vol.: 98
Chanel 1 Note On - Duracao: 45120 Nota: C1 Vol.: 100
Chanel 2 Note Off - Duracao: 45120 Nota: C1 Vol.: 68
Chanel 2 Note On - Duracao: 45120 Nota: C1 Vol.: 58
Chanel 6 Note Off - Duracao: 45120 Nota: C1 Vol.: 52
Chanel 6 Note On - Duracao: 45120 Nota: C1 Vol.: 51
Chanel 9 Note Off - Duracao: 45120 Nota: C1 Vol.: 50
Chanel 9 Note On - Duracao: 45120 Nota: C1 Vol.: 49
Chanel 1 Note Off - Duracao: 45180 Nota: C1 Vol.: 100
Chanel 1 Note On - Duracao: 45180 Nota: C1 Vol.: 99
Chanel 8 Note Off - Duracao: 45180 Nota: C1 Vol.: 60
Chanel 8 Note On - Duracao: 45180 Nota: C1 Vol.: 63
Chanel 1 Note Off - Duracao: 45300 Nota: C1 Vol.: 99
Chanel 1 Note On - Duracao: 45300 Nota: C1 Vol.: 98
Chanel 1 Note Off - Duracao: 45420 Nota: C1 Vol.: 98
Chanel 1 Note On - Duracao: 45420 Nota: C1 Vol.: 97
Chanel 8 Note Off - Duracao: 45420 Nota: C1 Vol.: 63
Chanel 8 Note On - Duracao: 45420 Nota: C1 Vol.: 64
Chanel 3 Note Off - Duracao: 45480 Nota: C1 Vol.: 71
Chanel 3 Note On - Duracao: 45480 Nota: C1 Vol.: 67
Chanel 1 Note Off - Duracao: 45540 Nota: C1 Vol.: 97
Chanel 1 Note On - Duracao: 45540 Nota: C1 Vol.: 98
Chanel 2 Note Off - Duracao: 45600 Nota: C1 Vol.: 58
Chanel 2 Note On - Duracao: 45600 Nota: C1 Vol.: 40
Chanel 1 Note Off - Duracao: 45660 Nota: C1 Vol.: 98
Chanel 1 Note On - Duracao: 45660 Nota: C1 Vol.: 98
Chanel 8 Note Off - Duracao: 45660 Nota: C1 Vol.: 64
Chanel 8 Note On - Duracao: 45660 Nota: C1 Vol.: 62
Chanel 1 Note Off - Duracao: 45780 Nota: C1 Vol.: 98
Chanel 1 Note On - Duracao: 45780 Nota: C1 Vol.: 98
Chanel 1 Note Off - Duracao: 45840 Nota: C1 Vol.: 98
Chanel 1 Note On - Duracao: 45840 Nota: C1 Vol.: 95
Chanel 1 Note Off - Duracao: 45900 Nota: C1 Vol.: 95
Chanel 1 Note On - Duracao: 45900 Nota: C1 Vol.: 95
Chanel 8 Note Off - Duracao: 45900 Nota: C1 Vol.: 62
Chanel 8 Note On - Duracao: 45900 Nota: C1 Vol.: 58
Chanel 1 Note Off - Duracao: 45960 Nota: C1 Vol.: 95
Chanel 1 Note On - Duracao: 45960 Nota: C1 Vol.: 75
Chanel 3 Note Off - Duracao: 45960 Nota: C1 Vol.: 67
Chanel 3 Note On - Duracao: 45960 Nota: C1 Vol.: 74
Chanel 8 Note Off - Duracao: 46140 Nota: C1 Vol.: 58
Chanel 8 Note On - Duracao: 46140 Nota: C1 Vol.: 58
Chanel 1 Note Off - Duracao: 46200 Nota: C1 Vol.: 75
Chanel 1 Note On - Duracao: 46200 Nota: C1 Vol.: 53
Chanel 8 Note Off - Duracao: 46380 Nota: C1 Vol.: 58
Chanel 8 Note On - Duracao: 46380 Nota: C1 Vol.: 56
Chanel 3 Note Off - Duracao: 46440 Nota: C1 Vol.: 74
Chanel 3 Note On - Duracao: 46440 Nota: C1 Vol.: 84
Chanel 8 Note Off - Duracao: 46620 Nota: C1 Vol.: 56
Chanel 8 Note On - Duracao: 46620 Nota: C1 Vol.: 55
Chanel 1 Note Off - Duracao: 46680 Nota: C1 Vol.: 53
Chanel 1 Note On - Duracao: 46680 Nota: C1 Vol.: 48
Chanel 3 Note Off - Duracao: 46680 Nota: C1 Vol.: 84
Chanel 3 Note On - Duracao: 46680 Nota: C1 Vol.: 84
Chanel 8 Note Off - Duracao: 46860 Nota: C1 Vol.: 55
Chanel 8 Note On - Duracao: 46860 Nota: C1 Vol.: 58
Chanel 3 Note Off - Duracao: 46920 Nota: C1 Vol.: 84
Chanel 3 Note On - Duracao: 46920 Nota: C1 Vol.: 80
Chanel 6 Note Off - Duracao: 47040 Nota: C1 Vol.: 51
Chanel 6 Note On - Duracao: 47040 Nota: C1 Vol.: 47
Chanel 9 Note Off - Duracao: 47040 Nota: C1 Vol.: 49
Chanel 9 Note On - Duracao: 47040 Nota: C1 Vol.: 50
Chanel 8 Note Off - Duracao: 47100 Nota: C1 Vol.: 58
Chanel 8 Note On - Duracao: 47100 Nota: C1 Vol.: 53
Chanel 1 Note Off - Duracao: 47160 Nota: C1 Vol.: 48
Chanel 1 Note On - Duracao: 47160 Nota: C1 Vol.: 48
Chanel 3 Note Off - Duracao: 47160 Nota: C1 Vol.: 80
Chanel 3 Note On - Duracao: 47160 Nota: C1 Vol.: 79
Chanel 8 Note Off - Duracao: 47340 Nota: C1 Vol.: 53
Chanel 8 Note On - Duracao: 47340 Nota: C1 Vol.: 55
Chanel 3 Note Off - Duracao: 47400 Nota: C1 Vol.: 79
Chanel 3 Note On - Duracao: 47400 Nota: C1 Vol.: 75
Chanel 2 Note Off - Duracao: 47520 Nota: C1 Vol.: 40
Chanel 2 Note On - Duracao: 47520 Nota: C1 Vol.: 51
Chanel 8 Note Off - Duracao: 47580 Nota: C1 Vol.: 55
Chanel 8 Note On - Duracao: 47580 Nota: C1 Vol.: 45
Chanel 1 Note Off - Duracao: 47640 Nota: C1 Vol.: 48
Chanel 1 Note On - Duracao: 47640 Nota: C1 Vol.: 55
Chanel 3 Note Off - Duracao: 47640 Nota: C1 Vol.: 75
Chanel 3 Note On - Duracao: 47640 Nota: C1 Vol.: 81
Chanel 2 Note Off - Duracao: 47760 Nota: C1 Vol.: 51
Chanel 2 Note On - Duracao: 47760 Nota: C1 Vol.: 52
Chanel 1 Note Off - Duracao: 47880 Nota: C1 Vol.: 55
Chanel 1 Note On - Duracao: 47880 Nota: C1 Vol.: 60
Chanel 2 Note Off - Duracao: 47880 Nota: C1 Vol.: 52
Chanel 2 Note On - Duracao: 47880 Nota: C1 Vol.: 49
Chanel 3 Note Off - Duracao: 47880 Nota: C1 Vol.: 81
Chanel 3 Note On - Duracao: 47880 Nota: C1 Vol.: 87
Chanel 5 Note Off - Duracao: 47880 Nota: C1 Vol.: 47
Chanel 5 Note On - Duracao: 47880 Nota: C1 Vol.: 55
Chanel 2 Note Off - Duracao: 48000 Nota: C1 Vol.: 49
Chanel 2 Note On - Duracao: 48000 Nota: C1 Vol.: 46
Chanel 7 Note Off - Duracao: 48000 Nota: C1 Vol.: 54
Chanel 7 Note On - Duracao: 48000 Nota: C1 Vol.: 56
Chanel 9 Note Off - Duracao: 48000 Nota: C1 Vol.: 50
Chanel 9 Note On - Duracao: 48000 Nota: C1 Vol.: 53
Chanel 8 Note Off - Duracao: 48060 Nota: C1 Vol.: 45
Chanel 8 Note On - Duracao: 48060 Nota: C1 Vol.: 54
Chanel 1 Note Off - Duracao: 48120 Nota: C1 Vol.: 60
Chanel 1 Note On - Duracao: 48120 Nota: C1 Vol.: 67
Chanel 3 Note Off - Duracao: 48120 Nota: C1 Vol.: 87
Chanel 3 Note On - Duracao: 48120 Nota: C1 Vol.: 88
Chanel 4 Note Off - Duracao: 48120 Nota: C1 Vol.: 42
Chanel 4 Note On - Duracao: 48120 Nota: C1 Vol.: 42
Chanel 1 Note Off - Duracao: 48240 Nota: C1 Vol.: 67
Chanel 1 Note On - Duracao: 48240 Nota: C1 Vol.: 70
Chanel 2 Note Off - Duracao: 48240 Nota: C1 Vol.: 46
Chanel 2 Note On - Duracao: 48240 Nota: C1 Vol.: 46
Chanel 3 Note Off - Duracao: 48240 Nota: C1 Vol.: 88
Chanel 3 Note On - Duracao: 48240 Nota: C1 Vol.: 99
Chanel 3 Note Off - Duracao: 48300 Nota: C1 Vol.: 99
Chanel 3 Note On - Duracao: 48300 Nota: C1 Vol.: 91
Chanel 8 Note Off - Duracao: 48300 Nota: C1 Vol.: 54
Chanel 8 Note On - Duracao: 48300 Nota: C1 Vol.: 52
Chanel 1 Note Off - Duracao: 48360 Nota: C1 Vol.: 70
Chanel 1 Note On - Duracao: 48360 Nota: C1 Vol.: 68
Chanel 3 Note Off - Duracao: 48420 Nota: C1 Vol.: 91
Chanel 3 Note On - Duracao: 48420 Nota: C1 Vol.: 81
Chanel 1 Note Off - Duracao: 48480 Nota: C1 Vol.: 68
Chanel 1 Note On - Duracao: 48480 Nota: C1 Vol.: 66
Chanel 2 Note Off - Duracao: 48480 Nota: C1 Vol.: 46
Chanel 2 Note On - Duracao: 48480 Nota: C1 Vol.: 43
Chanel 8 Note Off - Duracao: 48540 Nota: C1 Vol.: 52
Chanel 8 Note On - Duracao: 48540 Nota: C1 Vol.: 63
Chanel 1 Note Off - Duracao: 48600 Nota: C1 Vol.: 66
Chanel 1 Note On - Duracao: 48600 Nota: C1 Vol.: 65
Chanel 3 Note Off - Duracao: 48660 Nota: C1 Vol.: 81
Chanel 3 Note On - Duracao: 48660 Nota: C1 Vol.: 79
Chanel 8 Note Off - Duracao: 48660 Nota: C1 Vol.: 63
Chanel 8 Note On - Duracao: 48660 Nota: C1 Vol.: 67
Chanel 2 Note Off - Duracao: 48720 Nota: C1 Vol.: 43
Chanel 2 Note On - Duracao: 48720 Nota: C1 Vol.: 45
Chanel 8 Note Off - Duracao: 48780 Nota: C1 Vol.: 67
Chanel 8 Note On - Duracao: 48780 Nota: C1 Vol.: 67
Chanel 1 Note Off - Duracao: 48840 Nota: C1 Vol.: 65
Chanel 1 Note On - Duracao: 48840 Nota: C1 Vol.: 66
Chanel 3 Note Off - Duracao: 48900 Nota: C1 Vol.: 79
Chanel 3 Note On - Duracao: 48900 Nota: C1 Vol.: 85
Chanel 8 Note Off - Duracao: 48900 Nota: C1 Vol.: 67
Chanel 8 Note On - Duracao: 48900 Nota: C1 Vol.: 67
Chanel 2 Note Off - Duracao: 48960 Nota: C1 Vol.: 45
Chanel 2 Note On - Duracao: 48960 Nota: C1 Vol.: 55
Chanel 9 Note Off - Duracao: 48960 Nota: C1 Vol.: 53
Chanel 9 Note On - Duracao: 48960 Nota: C1 Vol.: 53
Chanel 8 Note Off - Duracao: 49020 Nota: C1 Vol.: 67
Chanel 8 Note On - Duracao: 49020 Nota: C1 Vol.: 58
Chanel 1 Note Off - Duracao: 49080 Nota: C1 Vol.: 66
Chanel 1 Note On - Duracao: 49080 Nota: C1 Vol.: 70
Chanel 3 Note Off - Duracao: 49140 Nota: C1 Vol.: 85
Chanel 3 Note On - Duracao: 49140 Nota: C1 Vol.: 82
Chanel 2 Note Off - Duracao: 49200 Nota: C1 Vol.: 55
Chanel 2 Note On - Duracao: 49200 Nota: C1 Vol.: 67
Chanel 8 Note Off - Duracao: 49260 Nota: C1 Vol.: 58
Chanel 8 Note On - Duracao: 49260 Nota: C1 Vol.: 66
Chanel 1 Note Off - Duracao: 49320 Nota: C1 Vol.: 70
Chanel 1 Note On - Duracao: 49320 Nota: C1 Vol.: 91
Chanel 3 Note Off - Duracao: 49380 Nota: C1 Vol.: 82
Chanel 3 Note On - Duracao: 49380 Nota: C1 Vol.: 80
Chanel 8 Note Off - Duracao: 49380 Nota: C1 Vol.: 66
Chanel 8 Note On - Duracao: 49380 Nota: C1 Vol.: 63
Chanel 1 Note Off - Duracao: 49440 Nota: C1 Vol.: 91
Chanel 1 Note On - Duracao: 49440 Nota: C1 Vol.: 97
Chanel 2 Note Off - Duracao: 49440 Nota: C1 Vol.: 67
Chanel 2 Note On - Duracao: 49440 Nota: C1 Vol.: 73
Chanel 1 Note Off - Duracao: 49500 Nota: C1 Vol.: 97
Chanel 1 Note On - Duracao: 49500 Nota: C1 Vol.: 93
Chanel 1 Note Off - Duracao: 49620 Nota: C1 Vol.: 93
Chanel 1 Note On - Duracao: 49620 Nota: C1 Vol.: 84
Chanel 3 Note Off - Duracao: 49620 Nota: C1 Vol.: 80
Chanel 3 Note On - Duracao: 49620 Nota: C1 Vol.: 73
Chanel 8 Note Off - Duracao: 49620 Nota: C1 Vol.: 63
Chanel 8 Note On - Duracao: 49620 Nota: C1 Vol.: 68
Chanel 1 Note Off - Duracao: 49740 Nota: C1 Vol.: 84
Chanel 1 Note On - Duracao: 49740 Nota: C1 Vol.: 79
Chanel 5 Note Off - Duracao: 49800 Nota: C1 Vol.: 55
Chanel 5 Note On - Duracao: 49800 Nota: C1 Vol.: 50
Chanel 1 Note Off - Duracao: 49860 Nota: C1 Vol.: 79
Chanel 1 Note On - Duracao: 49860 Nota: C1 Vol.: 70
Chanel 8 Note Off - Duracao: 49860 Nota: C1 Vol.: 68
Chanel 8 Note On - Duracao: 49860 Nota: C1 Vol.: 57
Chanel 2 Note Off - Duracao: 49920 Nota: C1 Vol.: 73
Chanel 2 Note On - Duracao: 49920 Nota: C1 Vol.: 61
Chanel 9 Note Off - Duracao: 49920 Nota: C1 Vol.: 53
Chanel 9 Note On - Duracao: 49920 Nota: C1 Vol.: 56
Chanel 1 Note Off - Duracao: 50100 Nota: C1 Vol.: 70
Chanel 1 Note On - Duracao: 50100 Nota: C1 Vol.: 67
Chanel 3 Note Off - Duracao: 50100 Nota: C1 Vol.: 73
Chanel 3 Note On - Duracao: 50100 Nota: C1 Vol.: 70
Chanel 1 Note Off - Duracao: 50340 Nota: C1 Vol.: 67
Chanel 1 Note On - Duracao: 50340 Nota: C1 Vol.: 68
Chanel 8 Note Off - Duracao: 50340 Nota: C1 Vol.: 57
Chanel 8 Note On - Duracao: 50340 Nota: C1 Vol.: 48
Chanel 1 Note Off - Duracao: 50580 Nota: C1 Vol.: 68
Chanel 1 Note On - Duracao: 50580 Nota: C1 Vol.: 75
Chanel 3 Note Off - Duracao: 50580 Nota: C1 Vol.: 70
Chanel 3 Note On - Duracao: 50580 Nota: C1 Vol.: 73
Chanel 1 Note Off - Duracao: 50820 Nota: C1 Vol.: 75
Chanel 1 Note On - Duracao: 50820 Nota: C1 Vol.: 77
Chanel 3 Note Off - Duracao: 50820 Nota: C1 Vol.: 73
Chanel 3 Note On - Duracao: 50820 Nota: C1 Vol.: 66
Chanel 6 Note Off - Duracao: 50880 Nota: C1 Vol.: 47
Chanel 6 Note On - Duracao: 50880 Nota: C1 Vol.: 59
Chanel 9 Note Off - Duracao: 50880 Nota: C1 Vol.: 56
Chanel 9 Note On - Duracao: 50880 Nota: C1 Vol.: 54
Chanel 1 Note Off - Duracao: 50940 Nota: C1 Vol.: 77
Chanel 1 Note On - Duracao: 50940 Nota: C1 Vol.: 71
Chanel 3 Note Off - Duracao: 51060 Nota: C1 Vol.: 66
Chanel 3 Note On - Duracao: 51060 Nota: C1 Vol.: 44
Chanel 1 Note Off - Duracao: 51180 Nota: C1 Vol.: 71
Chanel 1 Note On - Duracao: 51180 Nota: C1 Vol.: 65
Chanel 8 Note Off - Duracao: 51300 Nota: C1 Vol.: 48
Chanel 8 Note On - Duracao: 51300 Nota: C1 Vol.: 51
Chanel 1 Note Off - Duracao: 51660 Nota: C1 Vol.: 65
Chanel 1 Note On - Duracao: 51660 Nota: C1 Vol.: 86
Chanel 1 Note Off - Duracao: 51780 Nota: C1 Vol.: 86
Chanel 1 Note On - Duracao: 51780 Nota: C1 Vol.: 90
Chanel 2 Note Off - Duracao: 51840 Nota: C1 Vol.: 61
Chanel 2 Note On - Duracao: 51840 Nota: C1 Vol.: 61
Chanel 6 Note Off - Duracao: 51840 Nota: C1 Vol.: 59
Chanel 6 Note On - Duracao: 51840 Nota: C1 Vol.: 83
Chanel 7 Note Off - Duracao: 51840 Nota: C1 Vol.: 56
Chanel 7 Note On - Duracao: 51840 Nota: C1 Vol.: 55
Chanel 9 Note Off - Duracao: 51840 Nota: C1 Vol.: 54
Chanel 9 Note On - Duracao: 51840 Nota: C1 Vol.: 64
Chanel 1 Note Off - Duracao: 51900 Nota: C1 Vol.: 90
Chanel 1 Note On - Duracao: 51900 Nota: C1 Vol.: 88
Chanel 4 Note Off - Duracao: 51960 Nota: C1 Vol.: 42
Chanel 4 Note On - Duracao: 51960 Nota: C1 Vol.: 44
Chanel 1 Note Off - Duracao: 52020 Nota: C1 Vol.: 88
Chanel 1 Note On - Duracao: 52020 Nota: C1 Vol.: 98
Chanel 3 Note Off - Duracao: 52020 Nota: C1 Vol.: 44
Chanel 3 Note On - Duracao: 52020 Nota: C1 Vol.: 51
Chanel 1 Note Off - Duracao: 52080 Nota: C1 Vol.: 98
Chanel 1 Note On - Duracao: 52080 Nota: C1 Vol.: 98
Chanel 6 Note Off - Duracao: 52080 Nota: C1 Vol.: 83
Chanel 6 Note On - Duracao: 52080 Nota: C1 Vol.: 91
Chanel 9 Note Off - Duracao: 52080 Nota: C1 Vol.: 64
Chanel 9 Note On - Duracao: 52080 Nota: C1 Vol.: 72
Chanel 1 Note Off - Duracao: 52140 Nota: C1 Vol.: 98
Chanel 1 Note On - Duracao: 52140 Nota: C1 Vol.: 99
Chanel 1 Note Off - Duracao: 52200 Nota: C1 Vol.: 99
Chanel 1 Note On - Duracao: 52200 Nota: C1 Vol.: 99
Chanel 6 Note Off - Duracao: 52200 Nota: C1 Vol.: 91
Chanel 6 Note On - Duracao: 52200 Nota: C1 Vol.: 89
Chanel 9 Note Off - Duracao: 52200 Nota: C1 Vol.: 72
Chanel 9 Note On - Duracao: 52200 Nota: C1 Vol.: 70
Chanel 1 Note Off - Duracao: 52260 Nota: C1 Vol.: 99
Chanel 1 Note On - Duracao: 52260 Nota: C1 Vol.: 97
Chanel 8 Note Off - Duracao: 52260 Nota: C1 Vol.: 51
Chanel 8 Note On - Duracao: 52260 Nota: C1 Vol.: 48
Chanel 1 Note Off - Duracao: 52320 Nota: C1 Vol.: 97
Chanel 1 Note On - Duracao: 52320 Nota: C1 Vol.: 94
Chanel 6 Note Off - Duracao: 52320 Nota: C1 Vol.: 89
Chanel 6 Note On - Duracao: 52320 Nota: C1 Vol.: 98
Chanel 9 Note Off - Duracao: 52320 Nota: C1 Vol.: 70
Chanel 9 Note On - Duracao: 52320 Nota: C1 Vol.: 65
Chanel 6 Note Off - Duracao: 52380 Nota: C1 Vol.: 98
Chanel 6 Note On - Duracao: 52380 Nota: C1 Vol.: 99
Chanel 1 Note Off - Duracao: 52440 Nota: C1 Vol.: 94
Chanel 1 Note On - Duracao: 52440 Nota: C1 Vol.: 64
Chanel 6 Note Off - Duracao: 52440 Nota: C1 Vol.: 99
Chanel 6 Note On - Duracao: 52440 Nota: C1 Vol.: 98
Chanel 6 Note Off - Duracao: 52500 Nota: C1 Vol.: 98
Chanel 6 Note On - Duracao: 52500 Nota: C1 Vol.: 97
Chanel 6 Note Off - Duracao: 52560 Nota: C1 Vol.: 97
Chanel 6 Note On - Duracao: 52560 Nota: C1 Vol.: 99
Chanel 9 Note Off - Duracao: 52560 Nota: C1 Vol.: 65
Chanel 9 Note On - Duracao: 52560 Nota: C1 Vol.: 67
Chanel 6 Note Off - Duracao: 52620 Nota: C1 Vol.: 99
Chanel 6 Note On - Duracao: 52620 Nota: C1 Vol.: 99
Chanel 6 Note Off - Duracao: 52680 Nota: C1 Vol.: 99
Chanel 6 Note On - Duracao: 52680 Nota: C1 Vol.: 99
Chanel 6 Note Off - Duracao: 52740 Nota: C1 Vol.: 99
Chanel 6 Note On - Duracao: 52740 Nota: C1 Vol.: 99
Chanel 6 Note Off - Duracao: 52800 Nota: C1 Vol.: 99
Chanel 6 Note On - Duracao: 52800 Nota: C1 Vol.: 91
Chanel 9 Note Off - Duracao: 52800 Nota: C1 Vol.: 67
Chanel 9 Note On - Duracao: 52800 Nota: C1 Vol.: 70
Chanel 1 Note Off - Duracao: 52920 Nota: C1 Vol.: 64
Chanel 1 Note On - Duracao: 52920 Nota: C1 Vol.: 40
Chanel 6 Note Off - Duracao: 52920 Nota: C1 Vol.: 91
Chanel 6 Note On - Duracao: 52920 Nota: C1 Vol.: 85
Chanel 3 Note Off - Duracao: 52980 Nota: C1 Vol.: 51
Chanel 3 Note On - Duracao: 52980 Nota: C1 Vol.: 50
Chanel 6 Note Off - Duracao: 53040 Nota: C1 Vol.: 85
Chanel 6 Note On - Duracao: 53040 Nota: C1 Vol.: 47
Chanel 9 Note Off - Duracao: 53040 Nota: C1 Vol.: 70
Chanel 9 Note On - Duracao: 53040 Nota: C1 Vol.: 74
Chanel 9 Note Off - Duracao: 53160 Nota: C1 Vol.: 74
Chanel 9 Note On - Duracao: 53160 Nota: C1 Vol.: 71
Chanel 9 Note Off - Duracao: 53400 Nota: C1 Vol.: 71
Chanel 9 Note On - Duracao: 53400 Nota: C1 Vol.: 62
Chanel 5 Note Off - Duracao: 53640 Nota: C1 Vol.: 50
Chanel 5 Note On - Duracao: 53640 Nota: C1 Vol.: 40
Chanel 2 Note Off - Duracao: 53760 Nota: C1 Vol.: 61
Chanel 2 Note On - Duracao: 53760 Nota: C1 Vol.: 62
Chanel 4 Note Off - Duracao: 53880 Nota: C1 Vol.: 44
Chanel 4 Note On - Duracao: 53880 Nota: C1 Vol.: 66
Chanel 9 Note Off - Duracao: 53880 Nota: C1 Vol.: 62
Chanel 9 Note On - Duracao: 53880 Nota: C1 Vol.: 75
Chanel 3 Note Off - Duracao: 53940 Nota: C1 Vol.: 50
Chanel 3 Note On - Duracao: 53940 Nota: C1 Vol.: 57
Chanel 9 Note Off - Duracao: 54120 Nota: C1 Vol.: 75
Chanel 9 Note On - Duracao: 54120 Nota: C1 Vol.: 62
Chanel 8 Note Off - Duracao: 54180 Nota: C1 Vol.: 48
Chanel 8 Note On - Duracao: 54180 Nota: C1 Vol.: 50
Chanel 4 Note Off - Duracao: 54360 Nota: C1 Vol.: 66
Chanel 4 Note On - Duracao: 54360 Nota: C1 Vol.: 42
Chanel 3 Note Off - Duracao: 54420 Nota: C1 Vol.: 57
Chanel 3 Note On - Duracao: 54420 Nota: C1 Vol.: 56
Chanel 9 Note Off - Duracao: 54600 Nota: C1 Vol.: 62
Chanel 9 Note On - Duracao: 54600 Nota: C1 Vol.: 52
Chanel 1 Note Off - Duracao: 54840 Nota: C1 Vol.: 40
Chanel 1 Note On - Duracao: 54840 Nota: C1 Vol.: 50
Chanel 3 Note Off - Duracao: 54900 Nota: C1 Vol.: 56
Chanel 3 Note On - Duracao: 54900 Nota: C1 Vol.: 56
Chanel 6 Note Off - Duracao: 54960 Nota: C1 Vol.: 47
Chanel 6 Note On - Duracao: 54960 Nota: C1 Vol.: 83
Chanel 8 Note Off - Duracao: 55140 Nota: C1 Vol.: 50
Chanel 8 Note On - Duracao: 55140 Nota: C1 Vol.: 53
Chanel 6 Note Off - Duracao: 55200 Nota: C1 Vol.: 83
Chanel 6 Note On - Duracao: 55200 Nota: C1 Vol.: 97
Chanel 1 Note Off - Duracao: 55320 Nota: C1 Vol.: 50
Chanel 1 Note On - Duracao: 55320 Nota: C1 Vol.: 62
Chanel 6 Note Off - Duracao: 55320 Nota: C1 Vol.: 97
Chanel 6 Note On - Duracao: 55320 Nota: C1 Vol.: 99
Chanel 3 Note Off - Duracao: 55380 Nota: C1 Vol.: 56
Chanel 3 Note On - Duracao: 55380 Nota: C1 Vol.: 65
Chanel 6 Note Off - Duracao: 55380 Nota: C1 Vol.: 99
Chanel 6 Note On - Duracao: 55380 Nota: C1 Vol.: 99
Chanel 1 Note Off - Duracao: 55440 Nota: C1 Vol.: 62
Chanel 1 Note On - Duracao: 55440 Nota: C1 Vol.: 59
Chanel 6 Note Off - Duracao: 55440 Nota: C1 Vol.: 99
Chanel 6 Note On - Duracao: 55440 Nota: C1 Vol.: 93
Chanel 1 Note Off - Duracao: 55560 Nota: C1 Vol.: 59
Chanel 1 Note On - Duracao: 55560 Nota: C1 Vol.: 59
Chanel 6 Note Off - Duracao: 55560 Nota: C1 Vol.: 93
Chanel 6 Note On - Duracao: 55560 Nota: C1 Vol.: 98
Chanel 9 Note Off - Duracao: 55560 Nota: C1 Vol.: 52
Chanel 9 Note On - Duracao: 55560 Nota: C1 Vol.: 49
Chanel 3 Note Off - Duracao: 55620 Nota: C1 Vol.: 65
Chanel 3 Note On - Duracao: 55620 Nota: C1 Vol.: 55
Chanel 6 Note Off - Duracao: 55620 Nota: C1 Vol.: 98
Chanel 6 Note On - Duracao: 55620 Nota: C1 Vol.: 97
Chanel 1 Note Off - Duracao: 55680 Nota: C1 Vol.: 59
Chanel 1 Note On - Duracao: 55680 Nota: C1 Vol.: 58
Chanel 2 Note Off - Duracao: 55680 Nota: C1 Vol.: 62
Chanel 2 Note On - Duracao: 55680 Nota: C1 Vol.: 66
Chanel 6 Note Off - Duracao: 55680 Nota: C1 Vol.: 97
Chanel 6 Note On - Duracao: 55680 Nota: C1 Vol.: 73
Chanel 7 Note Off - Duracao: 55680 Nota: C1 Vol.: 55
Chanel 7 Note On - Duracao: 55680 Nota: C1 Vol.: 55
Chanel 1 Note Off - Duracao: 55800 Nota: C1 Vol.: 58
Chanel 1 Note On - Duracao: 55800 Nota: C1 Vol.: 54
Chanel 1 Note Off - Duracao: 55920 Nota: C1 Vol.: 54
Chanel 1 Note On - Duracao: 55920 Nota: C1 Vol.: 52
Chanel 6 Note Off - Duracao: 55920 Nota: C1 Vol.: 73
Chanel 6 Note On - Duracao: 55920 Nota: C1 Vol.: 67
Chanel 1 Note Off - Duracao: 56040 Nota: C1 Vol.: 52
Chanel 1 Note On - Duracao: 56040 Nota: C1 Vol.: 50
Chanel 3 Note Off - Duracao: 56100 Nota: C1 Vol.: 55
Chanel 3 Note On - Duracao: 56100 Nota: C1 Vol.: 57
Chanel 8 Note Off - Duracao: 56100 Nota: C1 Vol.: 53
Chanel 8 Note On - Duracao: 56100 Nota: C1 Vol.: 52
Chanel 1 Note Off - Duracao: 56280 Nota: C1 Vol.: 50
Chanel 1 Note On - Duracao: 56280 Nota: C1 Vol.: 48
Chanel 4 Note Off - Duracao: 56280 Nota: C1 Vol.: 42
Chanel 4 Note On - Duracao: 56280 Nota: C1 Vol.: 40
Chanel 6 Note Off - Duracao: 56400 Nota: C1 Vol.: 67
Chanel 6 Note On - Duracao: 56400 Nota: C1 Vol.: 70
Chanel 1 Note Off - Duracao: 56520 Nota: C1 Vol.: 48
Chanel 1 Note On - Duracao: 56520 Nota: C1 Vol.: 47
Chanel 9 Note Off - Duracao: 56520 Nota: C1 Vol.: 49
Chanel 9 Note On - Duracao: 56520 Nota: C1 Vol.: 51
Chanel 3 Note Off - Duracao: 56580 Nota: C1 Vol.: 57
Chanel 3 Note On - Duracao: 56580 Nota: C1 Vol.: 52
Chanel 6 Note Off - Duracao: 56880 Nota: C1 Vol.: 70
Chanel 6 Note On - Duracao: 56880 Nota: C1 Vol.: 68
Chanel 1 Note Off - Duracao: 57000 Nota: C1 Vol.: 47
Chanel 1 Note On - Duracao: 57000 Nota: C1 Vol.: 43
Chanel 8 Note Off - Duracao: 57060 Nota: C1 Vol.: 52
Chanel 8 Note On - Duracao: 57060 Nota: C1 Vol.: 55
Chanel 6 Note Off - Duracao: 57360 Nota: C1 Vol.: 68
Chanel 6 Note On - Duracao: 57360 Nota: C1 Vol.: 80
Chanel 5 Note Off - Duracao: 57480 Nota: C1 Vol.: 40
Chanel 5 Note On - Duracao: 57480 Nota: C1 Vol.: 67
Chanel 6 Note Off - Duracao: 57480 Nota: C1 Vol.: 80
Chanel 6 Note On - Duracao: 57480 Nota: C1 Vol.: 67
Chanel 9 Note Off - Duracao: 57480 Nota: C1 Vol.: 51
Chanel 9 Note On - Duracao: 57480 Nota: C1 Vol.: 60
Chanel 3 Note Off - Duracao: 57540 Nota: C1 Vol.: 52
Chanel 3 Note On - Duracao: 57540 Nota: C1 Vol.: 60
Chanel 2 Note Off - Duracao: 57600 Nota: C1 Vol.: 66
Chanel 2 Note On - Duracao: 57600 Nota: C1 Vol.: 71
Chanel 5 Note Off - Duracao: 57720 Nota: C1 Vol.: 67
Chanel 5 Note On - Duracao: 57720 Nota: C1 Vol.: 60
Chanel 6 Note Off - Duracao: 57720 Nota: C1 Vol.: 67
Chanel 6 Note On - Duracao: 57720 Nota: C1 Vol.: 51
Chanel 1 Note Off - Duracao: 57960 Nota: C1 Vol.: 43
Chanel 1 Note On - Duracao: 57960 Nota: C1 Vol.: 40
Chanel 5 Note Off - Duracao: 57960 Nota: C1 Vol.: 60
Chanel 5 Note On - Duracao: 57960 Nota: C1 Vol.: 58
Chanel 9 Note Off - Duracao: 57960 Nota: C1 Vol.: 60
Chanel 9 Note On - Duracao: 57960 Nota: C1 Vol.: 59
Chanel 3 Note Off - Duracao: 58020 Nota: C1 Vol.: 60
Chanel 3 Note On - Duracao: 58020 Nota: C1 Vol.: 56
Chanel 8 Note Off - Duracao: 58020 Nota: C1 Vol.: 55
Chanel 8 Note On - Duracao: 58020 Nota: C1 Vol.: 65
Chanel 5 Note Off - Duracao: 58200 Nota: C1 Vol.: 58
Chanel 5 Note On - Duracao: 58200 Nota: C1 Vol.: 58
Chanel 5 Note Off - Duracao: 58440 Nota: C1 Vol.: 58
Chanel 5 Note On - Duracao: 58440 Nota: C1 Vol.: 62
Chanel 9 Note Off - Duracao: 58440 Nota: C1 Vol.: 59
Chanel 9 Note On - Duracao: 58440 Nota: C1 Vol.: 59
Chanel 3 Note Off - Duracao: 58500 Nota: C1 Vol.: 56
Chanel 3 Note On - Duracao: 58500 Nota: C1 Vol.: 58
Chanel 8 Note Off - Duracao: 58500 Nota: C1 Vol.: 65
Chanel 8 Note On - Duracao: 58500 Nota: C1 Vol.: 68
Chanel 2 Note Off - Duracao: 58560 Nota: C1 Vol.: 71
Chanel 2 Note On - Duracao: 58560 Nota: C1 Vol.: 67
Chanel 5 Note Off - Duracao: 58680 Nota: C1 Vol.: 62
Chanel 5 Note On - Duracao: 58680 Nota: C1 Vol.: 64
Chanel 6 Note Off - Duracao: 58680 Nota: C1 Vol.: 51
Chanel 6 Note On - Duracao: 58680 Nota: C1 Vol.: 67
Chanel 5 Note Off - Duracao: 58920 Nota: C1 Vol.: 64
Chanel 5 Note On - Duracao: 58920 Nota: C1 Vol.: 68
Chanel 6 Note Off - Duracao: 58920 Nota: C1 Vol.: 67
Chanel 6 Note On - Duracao: 58920 Nota: C1 Vol.: 58
Chanel 9 Note Off - Duracao: 58920 Nota: C1 Vol.: 59
Chanel 9 Note On - Duracao: 58920 Nota: C1 Vol.: 60
Chanel 3 Note Off - Duracao: 58980 Nota: C1 Vol.: 58
Chanel 3 Note On - Duracao: 58980 Nota: C1 Vol.: 53
Chanel 8 Note Off - Duracao: 58980 Nota: C1 Vol.: 68
Chanel 8 Note On - Duracao: 58980 Nota: C1 Vol.: 62
Chanel 5 Note Off - Duracao: 59160 Nota: C1 Vol.: 68
Chanel 5 Note On - Duracao: 59160 Nota: C1 Vol.: 63
Chanel 6 Note Off - Duracao: 59160 Nota: C1 Vol.: 58
Chanel 6 Note On - Duracao: 59160 Nota: C1 Vol.: 62
Chanel 5 Note Off - Duracao: 59400 Nota: C1 Vol.: 63
Chanel 5 Note On - Duracao: 59400 Nota: C1 Vol.: 52
Chanel 6 Note Off - Duracao: 59400 Nota: C1 Vol.: 62
Chanel 6 Note On - Duracao: 59400 Nota: C1 Vol.: 56
Chanel 9 Note Off - Duracao: 59400 Nota: C1 Vol.: 60
Chanel 9 Note On - Duracao: 59400 Nota: C1 Vol.: 59
Chanel 7 Note Off - Duracao: 59520 Nota: C1 Vol.: 55
Chanel 7 Note On - Duracao: 59520 Nota: C1 Vol.: 57
Chanel 6 Note Off - Duracao: 59640 Nota: C1 Vol.: 56
Chanel 6 Note On - Duracao: 59640 Nota: C1 Vol.: 65
Chanel 1 Note Off - Duracao: 59880 Nota: C1 Vol.: 40
Chanel 1 Note On - Duracao: 59880 Nota: C1 Vol.: 52
Chanel 5 Note Off - Duracao: 59880 Nota: C1 Vol.: 52
Chanel 5 Note On - Duracao: 59880 Nota: C1 Vol.: 40
Chanel 6 Note Off - Duracao: 59880 Nota: C1 Vol.: 65
Chanel 6 Note On - Duracao: 59880 Nota: C1 Vol.: 62
Chanel 9 Note Off - Duracao: 59880 Nota: C1 Vol.: 59
Chanel 9 Note On - Duracao: 59880 Nota: C1 Vol.: 55
Chanel 3 Note Off - Duracao: 59940 Nota: C1 Vol.: 53
Chanel 3 Note On - Duracao: 59940 Nota: C1 Vol.: 61
Chanel 8 Note Off - Duracao: 59940 Nota: C1 Vol.: 62
Chanel 8 Note On - Duracao: 59940 Nota: C1 Vol.: 60
Chanel 4 Note Off - Duracao: 60120 Nota: C1 Vol.: 40
Chanel 4 Note On - Duracao: 60120 Nota: C1 Vol.: 60
Chanel 6 Note Off - Duracao: 60120 Nota: C1 Vol.: 62
Chanel 6 Note On - Duracao: 60120 Nota: C1 Vol.: 44
Chanel 9 Note Off - Duracao: 60360 Nota: C1 Vol.: 55
Chanel 9 Note On - Duracao: 60360 Nota: C1 Vol.: 59
Chanel 3 Note Off - Duracao: 60420 Nota: C1 Vol.: 61
Chanel 3 Note On - Duracao: 60420 Nota: C1 Vol.: 66
Chanel 2 Note Off - Duracao: 60480 Nota: C1 Vol.: 67
Chanel 2 Note On - Duracao: 60480 Nota: C1 Vol.: 70
Chanel 3 Note Off - Duracao: 60660 Nota: C1 Vol.: 66
Chanel 3 Note On - Duracao: 60660 Nota: C1 Vol.: 62
Chanel 1 Note Off - Duracao: 60840 Nota: C1 Vol.: 52
Chanel 1 Note On - Duracao: 60840 Nota: C1 Vol.: 85
Chanel 9 Note Off - Duracao: 60840 Nota: C1 Vol.: 59
Chanel 9 Note On - Duracao: 60840 Nota: C1 Vol.: 58
Chanel 8 Note Off - Duracao: 60900 Nota: C1 Vol.: 60
Chanel 8 Note On - Duracao: 60900 Nota: C1 Vol.: 52
Chanel 1 Note Off - Duracao: 60960 Nota: C1 Vol.: 85
Chanel 1 Note On - Duracao: 60960 Nota: C1 Vol.: 98
Chanel 1 Note Off - Duracao: 61020 Nota: C1 Vol.: 98
Chanel 1 Note On - Duracao: 61020 Nota: C1 Vol.: 91
Chanel 4 Note Off - Duracao: 61080 Nota: C1 Vol.: 60
Chanel 4 Note On - Duracao: 61080 Nota: C1 Vol.: 40
Chanel 6 Note Off - Duracao: 61080 Nota: C1 Vol.: 44
Chanel 6 Note On - Duracao: 61080 Nota: C1 Vol.: 61
Chanel 1 Note Off - Duracao: 61140 Nota: C1 Vol.: 91
Chanel 1 Note On - Duracao: 61140 Nota: C1 Vol.: 87
Chanel 3 Note Off - Duracao: 61140 Nota: C1 Vol.: 62
Chanel 3 Note On - Duracao: 61140 Nota: C1 Vol.: 74
Chanel 1 Note Off - Duracao: 61260 Nota: C1 Vol.: 87
Chanel 1 Note On - Duracao: 61260 Nota: C1 Vol.: 85
Chanel 3 Note Off - Duracao: 61260 Nota: C1 Vol.: 74
Chanel 3 Note On - Duracao: 61260 Nota: C1 Vol.: 67
Chanel 6 Note Off - Duracao: 61320 Nota: C1 Vol.: 61
Chanel 6 Note On - Duracao: 61320 Nota: C1 Vol.: 60
Chanel 9 Note Off - Duracao: 61320 Nota: C1 Vol.: 58
Chanel 9 Note On - Duracao: 61320 Nota: C1 Vol.: 55
Chanel 1 Note Off - Duracao: 61380 Nota: C1 Vol.: 85
Chanel 1 Note On - Duracao: 61380 Nota: C1 Vol.: 86
Chanel 2 Note Off - Duracao: 61440 Nota: C1 Vol.: 70
Chanel 2 Note On - Duracao: 61440 Nota: C1 Vol.: 70
Chanel 1 Note Off - Duracao: 61500 Nota: C1 Vol.: 86
Chanel 1 Note On - Duracao: 61500 Nota: C1 Vol.: 80
Chanel 3 Note Off - Duracao: 61500 Nota: C1 Vol.: 67
Chanel 3 Note On - Duracao: 61500 Nota: C1 Vol.: 70
Chanel 6 Note Off - Duracao: 61560 Nota: C1 Vol.: 60
Chanel 6 Note On - Duracao: 61560 Nota: C1 Vol.: 54
Chanel 1 Note Off - Duracao: 61740 Nota: C1 Vol.: 80
Chanel 1 Note On - Duracao: 61740 Nota: C1 Vol.: 85
Chanel 3 Note Off - Duracao: 61740 Nota: C1 Vol.: 70
Chanel 3 Note On - Duracao: 61740 Nota: C1 Vol.: 70
Chanel 5 Note Off - Duracao: 61800 Nota: C1 Vol.: 40
Chanel 5 Note On - Duracao: 61800 Nota: C1 Vol.: 44
Chanel 9 Note Off - Duracao: 61800 Nota: C1 Vol.: 55
Chanel 9 Note On - Duracao: 61800 Nota: C1 Vol.: 52
Chanel 1 Note Off - Duracao: 61860 Nota: C1 Vol.: 85
Chanel 1 Note On - Duracao: 61860 Nota: C1 Vol.: 86
Chanel 1 Note Off - Duracao: 61980 Nota: C1 Vol.: 86
Chanel 1 Note On - Duracao: 61980 Nota: C1 Vol.: 87
Chanel 3 Note Off - Duracao: 61980 Nota: C1 Vol.: 70
Chanel 3 Note On - Duracao: 61980 Nota: C1 Vol.: 62
Chanel 6 Note Off - Duracao: 62040 Nota: C1 Vol.: 54
Chanel 6 Note On - Duracao: 62040 Nota: C1 Vol.: 48
Chanel 1 Note Off - Duracao: 62100 Nota: C1 Vol.: 87
Chanel 1 Note On - Duracao: 62100 Nota: C1 Vol.: 92
Chanel 1 Note Off - Duracao: 62220 Nota: C1 Vol.: 92
Chanel 1 Note On - Duracao: 62220 Nota: C1 Vol.: 93
Chanel 1 Note Off - Duracao: 62340 Nota: C1 Vol.: 93
Chanel 1 Note On - Duracao: 62340 Nota: C1 Vol.: 92
Chanel 2 Note Off - Duracao: 62400 Nota: C1 Vol.: 70
Chanel 2 Note On - Duracao: 62400 Nota: C1 Vol.: 67
Chanel 1 Note Off - Duracao: 62460 Nota: C1 Vol.: 92
Chanel 1 Note On - Duracao: 62460 Nota: C1 Vol.: 95
Chanel 3 Note Off - Duracao: 62460 Nota: C1 Vol.: 62
Chanel 3 Note On - Duracao: 62460 Nota: C1 Vol.: 54
Chanel 6 Note Off - Duracao: 62520 Nota: C1 Vol.: 48
Chanel 6 Note On - Duracao: 62520 Nota: C1 Vol.: 51
Chanel 1 Note Off - Duracao: 62580 Nota: C1 Vol.: 95
Chanel 1 Note On - Duracao: 62580 Nota: C1 Vol.: 88
Chanel 1 Note Off - Duracao: 62700 Nota: C1 Vol.: 88
Chanel 1 Note On - Duracao: 62700 Nota: C1 Vol.: 91
Chanel 5 Note Off - Duracao: 62760 Nota: C1 Vol.: 44
Chanel 5 Note On - Duracao: 62760 Nota: C1 Vol.: 51
Chanel 9 Note Off - Duracao: 62760 Nota: C1 Vol.: 52
Chanel 9 Note On - Duracao: 62760 Nota: C1 Vol.: 56
Chanel 1 Note Off - Duracao: 62820 Nota: C1 Vol.: 91
Chanel 1 Note On - Duracao: 62820 Nota: C1 Vol.: 96
Chanel 8 Note Off - Duracao: 62820 Nota: C1 Vol.: 52
Chanel 8 Note On - Duracao: 62820 Nota: C1 Vol.: 50
Chanel 1 Note Off - Duracao: 62940 Nota: C1 Vol.: 96
Chanel 1 Note On - Duracao: 62940 Nota: C1 Vol.: 96
Chanel 3 Note Off - Duracao: 62940 Nota: C1 Vol.: 54
Chanel 3 Note On - Duracao: 62940 Nota: C1 Vol.: 60
Chanel 6 Note Off - Duracao: 63000 Nota: C1 Vol.: 51
Chanel 6 Note On - Duracao: 63000 Nota: C1 Vol.: 62
Chanel 1 Note Off - Duracao: 63060 Nota: C1 Vol.: 96
Chanel 1 Note On - Duracao: 63060 Nota: C1 Vol.: 94
Chanel 1 Note Off - Duracao: 63180 Nota: C1 Vol.: 94
Chanel 1 Note On - Duracao: 63180 Nota: C1 Vol.: 95
Chanel 6 Note Off - Duracao: 63240 Nota: C1 Vol.: 62
Chanel 6 Note On - Duracao: 63240 Nota: C1 Vol.: 53
Chanel 9 Note Off - Duracao: 63240 Nota: C1 Vol.: 56
Chanel 9 Note On - Duracao: 63240 Nota: C1 Vol.: 51
Chanel 1 Note Off - Duracao: 63300 Nota: C1 Vol.: 95
Chanel 1 Note On - Duracao: 63300 Nota: C1 Vol.: 96
Chanel 2 Note Off - Duracao: 63360 Nota: C1 Vol.: 67
Chanel 2 Note On - Duracao: 63360 Nota: C1 Vol.: 64
Chanel 7 Note Off - Duracao: 63360 Nota: C1 Vol.: 57
Chanel 7 Note On - Duracao: 63360 Nota: C1 Vol.: 59
Chanel 1 Note Off - Duracao: 63420 Nota: C1 Vol.: 96
Chanel 1 Note On - Duracao: 63420 Nota: C1 Vol.: 99
Chanel 3 Note Off - Duracao: 63420 Nota: C1 Vol.: 60
Chanel 3 Note On - Duracao: 63420 Nota: C1 Vol.: 45
Chanel 1 Note Off - Duracao: 63480 Nota: C1 Vol.: 99
Chanel 1 Note On - Duracao: 63480 Nota: C1 Vol.: 95
Chanel 1 Note Off - Duracao: 63600 Nota: C1 Vol.: 95
Chanel 1 Note On - Duracao: 63600 Nota: C1 Vol.: 91
Chanel 1 Note Off - Duracao: 63720 Nota: C1 Vol.: 91
Chanel 1 Note On - Duracao: 63720 Nota: C1 Vol.: 87
Chanel 5 Note Off - Duracao: 63720 Nota: C1 Vol.: 51
Chanel 5 Note On - Duracao: 63720 Nota: C1 Vol.: 56
Chanel 6 Note Off - Duracao: 63720 Nota: C1 Vol.: 53
Chanel 6 Note On - Duracao: 63720 Nota: C1 Vol.: 49
Chanel 1 Note Off - Duracao: 63840 Nota: C1 Vol.: 87
Chanel 1 Note On - Duracao: 63840 Nota: C1 Vol.: 96
Chanel 1 Note Off - Duracao: 63900 Nota: C1 Vol.: 96
Chanel 1 Note On - Duracao: 63900 Nota: C1 Vol.: 98
Chanel 1 Note Off - Duracao: 63960 Nota: C1 Vol.: 98
Chanel 1 Note On - Duracao: 63960 Nota: C1 Vol.: 98
Chanel 1 Note Off - Duracao: 64020 Nota: C1 Vol.: 98
Chanel 1 Note On - Duracao: 64020 Nota: C1 Vol.: 98
Chanel 1 Note Off - Duracao: 64080 Nota: C1 Vol.: 98
Chanel 1 Note On - Duracao: 64080 Nota: C1 Vol.: 98
Chanel 1 Note Off - Duracao: 64140 Nota: C1 Vol.: 98
Chanel 1 Note On - Duracao: 64140 Nota: C1 Vol.: 98
Chanel 1 Note Off - Duracao: 64200 Nota: C1 Vol.: 98
Chanel 1 Note On - Duracao: 64200 Nota: C1 Vol.: 99
Chanel 5 Note Off - Duracao: 64200 Nota: C1 Vol.: 56
Chanel 5 Note On - Duracao: 64200 Nota: C1 Vol.: 59
Chanel 6 Note Off - Duracao: 64200 Nota: C1 Vol.: 49
Chanel 6 Note On - Duracao: 64200 Nota: C1 Vol.: 47
Chanel 9 Note Off - Duracao: 64200 Nota: C1 Vol.: 51
Chanel 9 Note On - Duracao: 64200 Nota: C1 Vol.: 57
Chanel 1 Note Off - Duracao: 64260 Nota: C1 Vol.: 99
Chanel 1 Note On - Duracao: 64260 Nota: C1 Vol.: 98
Chanel 1 Note Off - Duracao: 64320 Nota: C1 Vol.: 98
Chanel 1 Note On - Duracao: 64320 Nota: C1 Vol.: 98
Chanel 2 Note Off - Duracao: 64320 Nota: C1 Vol.: 64
Chanel 2 Note On - Duracao: 64320 Nota: C1 Vol.: 79
Chanel 1 Note Off - Duracao: 64380 Nota: C1 Vol.: 98
Chanel 1 Note On - Duracao: 64380 Nota: C1 Vol.: 99
Chanel 3 Note Off - Duracao: 64380 Nota: C1 Vol.: 45
Chanel 3 Note On - Duracao: 64380 Nota: C1 Vol.: 64
Chanel 1 Note Off - Duracao: 64440 Nota: C1 Vol.: 99
Chanel 1 Note On - Duracao: 64440 Nota: C1 Vol.: 97
Chanel 2 Note Off - Duracao: 64440 Nota: C1 Vol.: 79
Chanel 2 Note On - Duracao: 64440 Nota: C1 Vol.: 60
Chanel 1 Note Off - Duracao: 64560 Nota: C1 Vol.: 97
Chanel 1 Note On - Duracao: 64560 Nota: C1 Vol.: 99
Chanel 2 Note Off - Duracao: 64560 Nota: C1 Vol.: 60
Chanel 2 Note On - Duracao: 64560 Nota: C1 Vol.: 47
Chanel 1 Note Off - Duracao: 64620 Nota: C1 Vol.: 99
Chanel 1 Note On - Duracao: 64620 Nota: C1 Vol.: 99
Chanel 1 Note Off - Duracao: 64680 Nota: C1 Vol.: 99
Chanel 1 Note On - Duracao: 64680 Nota: C1 Vol.: 98
Chanel 2 Note Off - Duracao: 64680 Nota: C1 Vol.: 47
Chanel 2 Note On - Duracao: 64680 Nota: C1 Vol.: 44
Chanel 5 Note Off - Duracao: 64680 Nota: C1 Vol.: 59
Chanel 5 Note On - Duracao: 64680 Nota: C1 Vol.: 60
Chanel 6 Note Off - Duracao: 64680 Nota: C1 Vol.: 47
Chanel 6 Note On - Duracao: 64680 Nota: C1 Vol.: 49
Chanel 9 Note Off - Duracao: 64680 Nota: C1 Vol.: 57
Chanel 9 Note On - Duracao: 64680 Nota: C1 Vol.: 56
Chanel 8 Note Off - Duracao: 64740 Nota: C1 Vol.: 50
Chanel 8 Note On - Duracao: 64740 Nota: C1 Vol.: 46
Chanel 1 Note Off - Duracao: 64800 Nota: C1 Vol.: 98
Chanel 1 Note On - Duracao: 64800 Nota: C1 Vol.: 97
Chanel 2 Note Off - Duracao: 64800 Nota: C1 Vol.: 44
Chanel 2 Note On - Duracao: 64800 Nota: C1 Vol.: 40
Chanel 3 Note Off - Duracao: 64860 Nota: C1 Vol.: 64
Chanel 3 Note On - Duracao: 64860 Nota: C1 Vol.: 60
Chanel 1 Note Off - Duracao: 64920 Nota: C1 Vol.: 97
Chanel 1 Note On - Duracao: 64920 Nota: C1 Vol.: 97
Chanel 2 Note Off - Duracao: 64920 Nota: C1 Vol.: 40
Chanel 2 Note On - Duracao: 64920 Nota: C1 Vol.: 40
Chanel 4 Note Off - Duracao: 64920 Nota: C1 Vol.: 40
Chanel 4 Note On - Duracao: 64920 Nota: C1 Vol.: 74
Chanel 1 Note Off - Duracao: 65040 Nota: C1 Vol.: 97
Chanel 1 Note On - Duracao: 65040 Nota: C1 Vol.: 99
Chanel 2 Note Off - Duracao: 65040 Nota: C1 Vol.: 40
Chanel 2 Note On - Duracao: 65040 Nota: C1 Vol.: 40
Chanel 1 Note Off - Duracao: 65100 Nota: C1 Vol.: 99
Chanel 1 Note On - Duracao: 65100 Nota: C1 Vol.: 99
Chanel 1 Note Off - Duracao: 65160 Nota: C1 Vol.: 99
Chanel 1 Note On - Duracao: 65160 Nota: C1 Vol.: 98
Chanel 2 Note Off - Duracao: 65160 Nota: C1 Vol.: 40
Chanel 2 Note On - Duracao: 65160 Nota: C1 Vol.: 43
Chanel 4 Note Off - Duracao: 65160 Nota: C1 Vol.: 74
Chanel 4 Note On - Duracao: 65160 Nota: C1 Vol.: 61
Chanel 5 Note Off - Duracao: 65160 Nota: C1 Vol.: 60
Chanel 5 Note On - Duracao: 65160 Nota: C1 Vol.: 63
Chanel 6 Note Off - Duracao: 65160 Nota: C1 Vol.: 49
Chanel 6 Note On - Duracao: 65160 Nota: C1 Vol.: 50
Chanel 9 Note Off - Duracao: 65160 Nota: C1 Vol.: 56
Chanel 9 Note On - Duracao: 65160 Nota: C1 Vol.: 60
Chanel 1 Note Off - Duracao: 65220 Nota: C1 Vol.: 98
Chanel 1 Note On - Duracao: 65220 Nota: C1 Vol.: 99
Chanel 1 Note Off - Duracao: 65280 Nota: C1 Vol.: 99
Chanel 1 Note On - Duracao: 65280 Nota: C1 Vol.: 100
Chanel 2 Note Off - Duracao: 65280 Nota: C1 Vol.: 43
Chanel 2 Note On - Duracao: 65280 Nota: C1 Vol.: 42
Chanel 1 Note Off - Duracao: 65340 Nota: C1 Vol.: 100
Chanel 1 Note On - Duracao: 65340 Nota: C1 Vol.: 100
Chanel 3 Note Off - Duracao: 65340 Nota: C1 Vol.: 60
Chanel 3 Note On - Duracao: 65340 Nota: C1 Vol.: 42
Chanel 1 Note Off - Duracao: 65400 Nota: C1 Vol.: 100
Chanel 1 Note On - Duracao: 65400 Nota: C1 Vol.: 95
Chanel 2 Note Off - Duracao: 65400 Nota: C1 Vol.: 42
Chanel 2 Note On - Duracao: 65400 Nota: C1 Vol.: 43
Chanel 5 Note Off - Duracao: 65400 Nota: C1 Vol.: 63
Chanel 5 Note On - Duracao: 65400 Nota: C1 Vol.: 60
Chanel 9 Note Off - Duracao: 65400 Nota: C1 Vol.: 60
Chanel 9 Note On - Duracao: 65400 Nota: C1 Vol.: 70
Chanel 1 Note Off - Duracao: 65520 Nota: C1 Vol.: 95
Chanel 1 Note On - Duracao: 65520 Nota: C1 Vol.: 91
Chanel 2 Note Off - Duracao: 65520 Nota: C1 Vol.: 43
Chanel 2 Note On - Duracao: 65520 Nota: C1 Vol.: 48
Chanel 9 Note Off - Duracao: 65520 Nota: C1 Vol.: 70
Chanel 9 Note On - Duracao: 65520 Nota: C1 Vol.: 56
Chanel 1 Note Off - Duracao: 65640 Nota: C1 Vol.: 91
Chanel 1 Note On - Duracao: 65640 Nota: C1 Vol.: 94
Chanel 2 Note Off - Duracao: 65640 Nota: C1 Vol.: 48
Chanel 2 Note On - Duracao: 65640 Nota: C1 Vol.: 58
Chanel 4 Note Off - Duracao: 65640 Nota: C1 Vol.: 61
Chanel 4 Note On - Duracao: 65640 Nota: C1 Vol.: 42
Chanel 5 Note Off - Duracao: 65640 Nota: C1 Vol.: 60
Chanel 5 Note On - Duracao: 65640 Nota: C1 Vol.: 61
Chanel 1 Note Off - Duracao: 65760 Nota: C1 Vol.: 94
Chanel 1 Note On - Duracao: 65760 Nota: C1 Vol.: 92
Chanel 2 Note Off - Duracao: 65760 Nota: C1 Vol.: 58
Chanel 2 Note On - Duracao: 65760 Nota: C1 Vol.: 40
Chanel 9 Note Off - Duracao: 65760 Nota: C1 Vol.: 56
Chanel 9 Note On - Duracao: 65760 Nota: C1 Vol.: 66
Chanel 1 Note Off - Duracao: 65880 Nota: C1 Vol.: 92
Chanel 1 Note On - Duracao: 65880 Nota: C1 Vol.: 79
Chanel 5 Note Off - Duracao: 65880 Nota: C1 Vol.: 61
Chanel 5 Note On - Duracao: 65880 Nota: C1 Vol.: 68
Chanel 9 Note Off - Duracao: 65880 Nota: C1 Vol.: 66
Chanel 9 Note On - Duracao: 65880 Nota: C1 Vol.: 51
Chanel 1 Note Off - Duracao: 66000 Nota: C1 Vol.: 79
Chanel 1 Note On - Duracao: 66000 Nota: C1 Vol.: 54
Chanel 5 Note Off - Duracao: 66120 Nota: C1 Vol.: 68
Chanel 5 Note On - Duracao: 66120 Nota: C1 Vol.: 68
Chanel 6 Note Off - Duracao: 66120 Nota: C1 Vol.: 50
Chanel 6 Note On - Duracao: 66120 Nota: C1 Vol.: 52
Chanel 9 Note Off - Duracao: 66120 Nota: C1 Vol.: 51
Chanel 9 Note On - Duracao: 66120 Nota: C1 Vol.: 51
Chanel 5 Note Off - Duracao: 66360 Nota: C1 Vol.: 68
Chanel 5 Note On - Duracao: 66360 Nota: C1 Vol.: 66
Chanel 9 Note Off - Duracao: 66360 Nota: C1 Vol.: 51
Chanel 9 Note On - Duracao: 66360 Nota: C1 Vol.: 55
Chanel 1 Note Off - Duracao: 66480 Nota: C1 Vol.: 54
Chanel 1 Note On - Duracao: 66480 Nota: C1 Vol.: 53
Chanel 9 Note Off - Duracao: 66480 Nota: C1 Vol.: 55
Chanel 9 Note On - Duracao: 66480 Nota: C1 Vol.: 50
Chanel 5 Note Off - Duracao: 66600 Nota: C1 Vol.: 66
Chanel 5 Note On - Duracao: 66600 Nota: C1 Vol.: 66
Chanel 8 Note Off - Duracao: 66660 Nota: C1 Vol.: 46
Chanel 8 Note On - Duracao: 66660 Nota: C1 Vol.: 46
Chanel 1 Note Off - Duracao: 66720 Nota: C1 Vol.: 53
Chanel 1 Note On - Duracao: 66720 Nota: C1 Vol.: 60
Chanel 9 Note Off - Duracao: 66720 Nota: C1 Vol.: 50
Chanel 9 Note On - Duracao: 66720 Nota: C1 Vol.: 55
Chanel 1 Note Off - Duracao: 66840 Nota: C1 Vol.: 60
Chanel 1 Note On - Duracao: 66840 Nota: C1 Vol.: 60
Chanel 5 Note Off - Duracao: 66840 Nota: C1 Vol.: 66
Chanel 5 Note On - Duracao: 66840 Nota: C1 Vol.: 65
Chanel 9 Note Off - Duracao: 66840 Nota: C1 Vol.: 55
Chanel 9 Note On - Duracao: 66840 Nota: C1 Vol.: 54
Chanel 9 Note Off - Duracao: 66960 Nota: C1 Vol.: 54
Chanel 9 Note On - Duracao: 66960 Nota: C1 Vol.: 47
Chanel 1 Note Off - Duracao: 67080 Nota: C1 Vol.: 60
Chanel 1 Note On - Duracao: 67080 Nota: C1 Vol.: 67
Chanel 5 Note Off - Duracao: 67080 Nota: C1 Vol.: 65
Chanel 5 Note On - Duracao: 67080 Nota: C1 Vol.: 67
Chanel 6 Note Off - Duracao: 67080 Nota: C1 Vol.: 52
Chanel 6 Note On - Duracao: 67080 Nota: C1 Vol.: 56
Chanel 1 Note Off - Duracao: 67200 Nota: C1 Vol.: 67
Chanel 1 Note On - Duracao: 67200 Nota: C1 Vol.: 69
Chanel 7 Note Off - Duracao: 67200 Nota: C1 Vol.: 59
Chanel 7 Note On - Duracao: 67200 Nota: C1 Vol.: 67
Chanel 9 Note Off - Duracao: 67200 Nota: C1 Vol.: 47
Chanel 9 Note On - Duracao: 67200 Nota: C1 Vol.: 56
Chanel 3 Note Off - Duracao: 67260 Nota: C1 Vol.: 42
Chanel 3 Note On - Duracao: 67260 Nota: C1 Vol.: 45
Chanel 1 Note Off - Duracao: 67320 Nota: C1 Vol.: 69
Chanel 1 Note On - Duracao: 67320 Nota: C1 Vol.: 71
Chanel 5 Note Off - Duracao: 67320 Nota: C1 Vol.: 67
Chanel 5 Note On - Duracao: 67320 Nota: C1 Vol.: 61
Chanel 9 Note Off - Duracao: 67320 Nota: C1 Vol.: 56
Chanel 9 Note On - Duracao: 67320 Nota: C1 Vol.: 44
Chanel 1 Note Off - Duracao: 67440 Nota: C1 Vol.: 71
Chanel 1 Note On - Duracao: 67440 Nota: C1 Vol.: 69
Chanel 1 Note Off - Duracao: 67560 Nota: C1 Vol.: 69
Chanel 1 Note On - Duracao: 67560 Nota: C1 Vol.: 62
Chanel 4 Note Off - Duracao: 67560 Nota: C1 Vol.: 42
Chanel 4 Note On - Duracao: 67560 Nota: C1 Vol.: 43
Chanel 6 Note Off - Duracao: 67560 Nota: C1 Vol.: 56
Chanel 6 Note On - Duracao: 67560 Nota: C1 Vol.: 59
Chanel 9 Note Off - Duracao: 67560 Nota: C1 Vol.: 44
Chanel 9 Note On - Duracao: 67560 Nota: C1 Vol.: 49
Chanel 2 Note Off - Duracao: 67680 Nota: C1 Vol.: 40
Chanel 2 Note On - Duracao: 67680 Nota: C1 Vol.: 59
Chanel 1 Note Off - Duracao: 67800 Nota: C1 Vol.: 62
Chanel 1 Note On - Duracao: 67800 Nota: C1 Vol.: 67
Chanel 5 Note Off - Duracao: 67800 Nota: C1 Vol.: 61
Chanel 5 Note On - Duracao: 67800 Nota: C1 Vol.: 41
Chanel 9 Note Off - Duracao: 67800 Nota: C1 Vol.: 49
Chanel 9 Note On - Duracao: 67800 Nota: C1 Vol.: 66
Chanel 9 Note Off - Duracao: 67920 Nota: C1 Vol.: 66
Chanel 9 Note On - Duracao: 67920 Nota: C1 Vol.: 60
Chanel 1 Note Off - Duracao: 68040 Nota: C1 Vol.: 67
Chanel 1 Note On - Duracao: 68040 Nota: C1 Vol.: 70
Chanel 6 Note Off - Duracao: 68040 Nota: C1 Vol.: 59
Chanel 6 Note On - Duracao: 68040 Nota: C1 Vol.: 53
Chanel 2 Note Off - Duracao: 68160 Nota: C1 Vol.: 59
Chanel 2 Note On - Duracao: 68160 Nota: C1 Vol.: 67
Chanel 9 Note Off - Duracao: 68160 Nota: C1 Vol.: 60
Chanel 9 Note On - Duracao: 68160 Nota: C1 Vol.: 48
Chanel 1 Note Off - Duracao: 68280 Nota: C1 Vol.: 70
Chanel 1 Note On - Duracao: 68280 Nota: C1 Vol.: 84
Chanel 1 Note Off - Duracao: 68400 Nota: C1 Vol.: 84
Chanel 1 Note On - Duracao: 68400 Nota: C1 Vol.: 89
Chanel 2 Note Off - Duracao: 68400 Nota: C1 Vol.: 67
Chanel 2 Note On - Duracao: 68400 Nota: C1 Vol.: 69
Chanel 1 Note Off - Duracao: 68520 Nota: C1 Vol.: 89
Chanel 1 Note On - Duracao: 68520 Nota: C1 Vol.: 91
Chanel 6 Note Off - Duracao: 68520 Nota: C1 Vol.: 53
Chanel 6 Note On - Duracao: 68520 Nota: C1 Vol.: 56
Chanel 8 Note Off - Duracao: 68580 Nota: C1 Vol.: 46
Chanel 8 Note On - Duracao: 68580 Nota: C1 Vol.: 44
Chanel 1 Note Off - Duracao: 68640 Nota: C1 Vol.: 91
Chanel 1 Note On - Duracao: 68640 Nota: C1 Vol.: 80
Chanel 2 Note Off - Duracao: 68640 Nota: C1 Vol.: 69
Chanel 2 Note On - Duracao: 68640 Nota: C1 Vol.: 68
Chanel 6 Note Off - Duracao: 68760 Nota: C1 Vol.: 56
Chanel 6 Note On - Duracao: 68760 Nota: C1 Vol.: 52
Chanel 1 Note Off - Duracao: 68880 Nota: C1 Vol.: 80
Chanel 1 Note On - Duracao: 68880 Nota: C1 Vol.: 74
Chanel 2 Note Off - Duracao: 68880 Nota: C1 Vol.: 68
Chanel 2 Note On - Duracao: 68880 Nota: C1 Vol.: 61
Chanel 1 Note Off - Duracao: 69120 Nota: C1 Vol.: 74
Chanel 1 Note On - Duracao: 69120 Nota: C1 Vol.: 72
Chanel 7 Note Off - Duracao: 69120 Nota: C1 Vol.: 67
Chanel 7 Note On - Duracao: 69120 Nota: C1 Vol.: 71
Chanel 9 Note Off - Duracao: 69120 Nota: C1 Vol.: 48
Chanel 9 Note On - Duracao: 69120 Nota: C1 Vol.: 48
Chanel 3 Note Off - Duracao: 69180 Nota: C1 Vol.: 45
Chanel 3 Note On - Duracao: 69180 Nota: C1 Vol.: 68
Chanel 6 Note Off - Duracao: 69240 Nota: C1 Vol.: 52
Chanel 6 Note On - Duracao: 69240 Nota: C1 Vol.: 61
Chanel 1 Note Off - Duracao: 69360 Nota: C1 Vol.: 72
Chanel 1 Note On - Duracao: 69360 Nota: C1 Vol.: 68
Chanel 2 Note Off - Duracao: 69360 Nota: C1 Vol.: 61
Chanel 2 Note On - Duracao: 69360 Nota: C1 Vol.: 71
Chanel 4 Note Off - Duracao: 69480 Nota: C1 Vol.: 43
Chanel 4 Note On - Duracao: 69480 Nota: C1 Vol.: 44
Chanel 6 Note Off - Duracao: 69480 Nota: C1 Vol.: 61
Chanel 6 Note On - Duracao: 69480 Nota: C1 Vol.: 58
Chanel 1 Note Off - Duracao: 69600 Nota: C1 Vol.: 68
Chanel 1 Note On - Duracao: 69600 Nota: C1 Vol.: 63
Chanel 2 Note Off - Duracao: 69600 Nota: C1 Vol.: 71
Chanel 2 Note On - Duracao: 69600 Nota: C1 Vol.: 75
Chanel 3 Note Off - Duracao: 69660 Nota: C1 Vol.: 68
Chanel 3 Note On - Duracao: 69660 Nota: C1 Vol.: 63
Chanel 5 Note Off - Duracao: 69720 Nota: C1 Vol.: 41
Chanel 5 Note On - Duracao: 69720 Nota: C1 Vol.: 77
Chanel 6 Note Off - Duracao: 69720 Nota: C1 Vol.: 58
Chanel 6 Note On - Duracao: 69720 Nota: C1 Vol.: 57
Chanel 1 Note Off - Duracao: 69840 Nota: C1 Vol.: 63
Chanel 1 Note On - Duracao: 69840 Nota: C1 Vol.: 69
Chanel 2 Note Off - Duracao: 69840 Nota: C1 Vol.: 75
Chanel 2 Note On - Duracao: 69840 Nota: C1 Vol.: 69
Chanel 5 Note Off - Duracao: 69960 Nota: C1 Vol.: 77
Chanel 5 Note On - Duracao: 69960 Nota: C1 Vol.: 83
Chanel 6 Note Off - Duracao: 69960 Nota: C1 Vol.: 57
Chanel 6 Note On - Duracao: 69960 Nota: C1 Vol.: 67
Chanel 1 Note Off - Duracao: 70080 Nota: C1 Vol.: 69
Chanel 1 Note On - Duracao: 70080 Nota: C1 Vol.: 77
Chanel 9 Note Off - Duracao: 70080 Nota: C1 Vol.: 48
Chanel 9 Note On - Duracao: 70080 Nota: C1 Vol.: 57
Chanel 3 Note Off - Duracao: 70140 Nota: C1 Vol.: 63
Chanel 3 Note On - Duracao: 70140 Nota: C1 Vol.: 92
Chanel 1 Note Off - Duracao: 70200 Nota: C1 Vol.: 77
Chanel 1 Note On - Duracao: 70200 Nota: C1 Vol.: 71
Chanel 3 Note Off - Duracao: 70200 Nota: C1 Vol.: 92
Chanel 3 Note On - Duracao: 70200 Nota: C1 Vol.: 97
Chanel 5 Note Off - Duracao: 70200 Nota: C1 Vol.: 83
Chanel 5 Note On - Duracao: 70200 Nota: C1 Vol.: 58
Chanel 6 Note Off - Duracao: 70200 Nota: C1 Vol.: 67
Chanel 6 Note On - Duracao: 70200 Nota: C1 Vol.: 71
Chanel 3 Note Off - Duracao: 70260 Nota: C1 Vol.: 97
Chanel 3 Note On - Duracao: 70260 Nota: C1 Vol.: 98
Chanel 2 Note Off - Duracao: 70320 Nota: C1 Vol.: 69
Chanel 2 Note On - Duracao: 70320 Nota: C1 Vol.: 76
Chanel 3 Note Off - Duracao: 70320 Nota: C1 Vol.: 98
Chanel 3 Note On - Duracao: 70320 Nota: C1 Vol.: 99
Chanel 3 Note Off - Duracao: 70380 Nota: C1 Vol.: 99
Chanel 3 Note On - Duracao: 70380 Nota: C1 Vol.: 90
Chanel 1 Note Off - Duracao: 70440 Nota: C1 Vol.: 71
Chanel 1 Note On - Duracao: 70440 Nota: C1 Vol.: 69
Chanel 6 Note Off - Duracao: 70440 Nota: C1 Vol.: 71
Chanel 6 Note On - Duracao: 70440 Nota: C1 Vol.: 50
Chanel 3 Note Off - Duracao: 70500 Nota: C1 Vol.: 90
Chanel 3 Note On - Duracao: 70500 Nota: C1 Vol.: 71
Chanel 8 Note Off - Duracao: 70500 Nota: C1 Vol.: 44
Chanel 8 Note On - Duracao: 70500 Nota: C1 Vol.: 43
Chanel 2 Note Off - Duracao: 70560 Nota: C1 Vol.: 76
Chanel 2 Note On - Duracao: 70560 Nota: C1 Vol.: 64
Chanel 9 Note Off - Duracao: 70560 Nota: C1 Vol.: 57
Chanel 9 Note On - Duracao: 70560 Nota: C1 Vol.: 50
Chanel 1 Note Off - Duracao: 70680 Nota: C1 Vol.: 69
Chanel 1 Note On - Duracao: 70680 Nota: C1 Vol.: 72
Chanel 1 Note Off - Duracao: 70920 Nota: C1 Vol.: 72
Chanel 1 Note On - Duracao: 70920 Nota: C1 Vol.: 78
Chanel 3 Note Off - Duracao: 70980 Nota: C1 Vol.: 71
Chanel 3 Note On - Duracao: 70980 Nota: C1 Vol.: 40
Chanel 2 Note Off - Duracao: 71040 Nota: C1 Vol.: 64
Chanel 2 Note On - Duracao: 71040 Nota: C1 Vol.: 57
Chanel 7 Note Off - Duracao: 71040 Nota: C1 Vol.: 71
Chanel 7 Note On - Duracao: 71040 Nota: C1 Vol.: 73
Chanel 1 Note Off - Duracao: 71160 Nota: C1 Vol.: 78
Chanel 1 Note On - Duracao: 71160 Nota: C1 Vol.: 84
Chanel 5 Note Off - Duracao: 71160 Nota: C1 Vol.: 58
Chanel 5 Note On - Duracao: 71160 Nota: C1 Vol.: 88
Chanel 1 Note Off - Duracao: 71280 Nota: C1 Vol.: 84
Chanel 1 Note On - Duracao: 71280 Nota: C1 Vol.: 94
Chanel 5 Note Off - Duracao: 71280 Nota: C1 Vol.: 88
Chanel 5 Note On - Duracao: 71280 Nota: C1 Vol.: 87
Chanel 1 Note Off - Duracao: 71340 Nota: C1 Vol.: 94
Chanel 1 Note On - Duracao: 71340 Nota: C1 Vol.: 96
Chanel 1 Note Off - Duracao: 71400 Nota: C1 Vol.: 96
Chanel 1 Note On - Duracao: 71400 Nota: C1 Vol.: 98
Chanel 4 Note Off - Duracao: 71400 Nota: C1 Vol.: 44
Chanel 4 Note On - Duracao: 71400 Nota: C1 Vol.: 53
Chanel 5 Note Off - Duracao: 71400 Nota: C1 Vol.: 87
Chanel 5 Note On - Duracao: 71400 Nota: C1 Vol.: 87
Chanel 6 Note Off - Duracao: 71400 Nota: C1 Vol.: 50
Chanel 6 Note On - Duracao: 71400 Nota: C1 Vol.: 57
Chanel 1 Note Off - Duracao: 71460 Nota: C1 Vol.: 98
Chanel 1 Note On - Duracao: 71460 Nota: C1 Vol.: 98
Chanel 1 Note Off - Duracao: 71520 Nota: C1 Vol.: 98
Chanel 1 Note On - Duracao: 71520 Nota: C1 Vol.: 96
Chanel 2 Note Off - Duracao: 71520 Nota: C1 Vol.: 57
Chanel 2 Note On - Duracao: 71520 Nota: C1 Vol.: 72
Chanel 5 Note Off - Duracao: 71520 Nota: C1 Vol.: 87
Chanel 5 Note On - Duracao: 71520 Nota: C1 Vol.: 88
Chanel 9 Note Off - Duracao: 71520 Nota: C1 Vol.: 50
Chanel 9 Note On - Duracao: 71520 Nota: C1 Vol.: 56
Chanel 1 Note Off - Duracao: 71580 Nota: C1 Vol.: 96
Chanel 1 Note On - Duracao: 71580 Nota: C1 Vol.: 94
Chanel 1 Note Off - Duracao: 71640 Nota: C1 Vol.: 94
Chanel 1 Note On - Duracao: 71640 Nota: C1 Vol.: 62
Chanel 5 Note Off - Duracao: 71640 Nota: C1 Vol.: 88
Chanel 5 Note On - Duracao: 71640 Nota: C1 Vol.: 88
Chanel 2 Note Off - Duracao: 71760 Nota: C1 Vol.: 72
Chanel 2 Note On - Duracao: 71760 Nota: C1 Vol.: 71
Chanel 5 Note Off - Duracao: 71760 Nota: C1 Vol.: 88
Chanel 5 Note On - Duracao: 71760 Nota: C1 Vol.: 87
Chanel 2 Note Off - Duracao: 71880 Nota: C1 Vol.: 71
Chanel 2 Note On - Duracao: 71880 Nota: C1 Vol.: 59
Chanel 5 Note Off - Duracao: 71880 Nota: C1 Vol.: 87
Chanel 5 Note On - Duracao: 71880 Nota: C1 Vol.: 88
Chanel 5 Note Off - Duracao: 72000 Nota: C1 Vol.: 88
Chanel 5 Note On - Duracao: 72000 Nota: C1 Vol.: 82
Chanel 1 Note Off - Duracao: 72120 Nota: C1 Vol.: 62
Chanel 1 Note On - Duracao: 72120 Nota: C1 Vol.: 43
Chanel 2 Note Off - Duracao: 72120 Nota: C1 Vol.: 59
Chanel 2 Note On - Duracao: 72120 Nota: C1 Vol.: 61
Chanel 5 Note Off - Duracao: 72240 Nota: C1 Vol.: 82
Chanel 5 Note On - Duracao: 72240 Nota: C1 Vol.: 48
Chanel 2 Note Off - Duracao: 72360 Nota: C1 Vol.: 61
Chanel 2 Note On - Duracao: 72360 Nota: C1 Vol.: 67
Chanel 4 Note Off - Duracao: 72360 Nota: C1 Vol.: 53
Chanel 4 Note On - Duracao: 72360 Nota: C1 Vol.: 49
Chanel 8 Note Off - Duracao: 72420 Nota: C1 Vol.: 43
Chanel 8 Note On - Duracao: 72420 Nota: C1 Vol.: 46
Chanel 9 Note Off - Duracao: 72480 Nota: C1 Vol.: 56
Chanel 9 Note On - Duracao: 72480 Nota: C1 Vol.: 58
Chanel 2 Note Off - Duracao: 72600 Nota: C1 Vol.: 67
Chanel 2 Note On - Duracao: 72600 Nota: C1 Vol.: 99
Chanel 2 Note Off - Duracao: 72720 Nota: C1 Vol.: 99
Chanel 2 Note On - Duracao: 72720 Nota: C1 Vol.: 93
Chanel 2 Note Off - Duracao: 72840 Nota: C1 Vol.: 93
Chanel 2 Note On - Duracao: 72840 Nota: C1 Vol.: 77
Chanel 7 Note Off - Duracao: 72960 Nota: C1 Vol.: 73
Chanel 7 Note On - Duracao: 72960 Nota: C1 Vol.: 72
Chanel 9 Note Off - Duracao: 72960 Nota: C1 Vol.: 58
Chanel 9 Note On - Duracao: 72960 Nota: C1 Vol.: 61
Chanel 1 Note Off - Duracao: 73080 Nota: C1 Vol.: 43
Chanel 1 Note On - Duracao: 73080 Nota: C1 Vol.: 57
Chanel 1 Note Off - Duracao: 73320 Nota: C1 Vol.: 57
Chanel 1 Note On - Duracao: 73320 Nota: C1 Vol.: 54
Chanel 2 Note Off - Duracao: 73320 Nota: C1 Vol.: 77
Chanel 2 Note On - Duracao: 73320 Nota: C1 Vol.: 73
Chanel 6 Note Off - Duracao: 73320 Nota: C1 Vol.: 57
Chanel 6 Note On - Duracao: 73320 Nota: C1 Vol.: 60
Chanel 8 Note Off - Duracao: 73380 Nota: C1 Vol.: 46
Chanel 8 Note On - Duracao: 73380 Nota: C1 Vol.: 48
Chanel 1 Note Off - Duracao: 73440 Nota: C1 Vol.: 54
Chanel 1 Note On - Duracao: 73440 Nota: C1 Vol.: 46
Chanel 9 Note Off - Duracao: 73440 Nota: C1 Vol.: 61
Chanel 9 Note On - Duracao: 73440 Nota: C1 Vol.: 53
Chanel 1 Note Off - Duracao: 73560 Nota: C1 Vol.: 46
Chanel 1 Note On - Duracao: 73560 Nota: C1 Vol.: 46
Chanel 1 Note Off - Duracao: 73680 Nota: C1 Vol.: 46
Chanel 1 Note On - Duracao: 73680 Nota: C1 Vol.: 46
Chanel 1 Note Off - Duracao: 73800 Nota: C1 Vol.: 46
Chanel 1 Note On - Duracao: 73800 Nota: C1 Vol.: 48
Chanel 2 Note Off - Duracao: 73800 Nota: C1 Vol.: 73
Chanel 2 Note On - Duracao: 73800 Nota: C1 Vol.: 75
Chanel 1 Note Off - Duracao: 73920 Nota: C1 Vol.: 48
Chanel 1 Note On - Duracao: 73920 Nota: C1 Vol.: 43
Chanel 1 Note Off - Duracao: 74040 Nota: C1 Vol.: 43
Chanel 1 Note On - Duracao: 74040 Nota: C1 Vol.: 41
Chanel 1 Note Off - Duracao: 74160 Nota: C1 Vol.: 41
Chanel 1 Note On - Duracao: 74160 Nota: C1 Vol.: 45
Chanel 5 Note Off - Duracao: 74160 Nota: C1 Vol.: 48
Chanel 5 Note On - Duracao: 74160 Nota: C1 Vol.: 92
Chanel 1 Note Off - Duracao: 74280 Nota: C1 Vol.: 45
Chanel 1 Note On - Duracao: 74280 Nota: C1 Vol.: 49
Chanel 2 Note Off - Duracao: 74280 Nota: C1 Vol.: 75
Chanel 2 Note On - Duracao: 74280 Nota: C1 Vol.: 76
Chanel 4 Note Off - Duracao: 74280 Nota: C1 Vol.: 49
Chanel 4 Note On - Duracao: 74280 Nota: C1 Vol.: 41
Chanel 5 Note Off - Duracao: 74280 Nota: C1 Vol.: 92
Chanel 5 Note On - Duracao: 74280 Nota: C1 Vol.: 44
Chanel 8 Note Off - Duracao: 74340 Nota: C1 Vol.: 48
Chanel 8 Note On - Duracao: 74340 Nota: C1 Vol.: 50
Chanel 1 Note Off - Duracao: 74400 Nota: C1 Vol.: 49
Chanel 1 Note On - Duracao: 74400 Nota: C1 Vol.: 53
Chanel 9 Note Off - Duracao: 74400 Nota: C1 Vol.: 53
Chanel 9 Note On - Duracao: 74400 Nota: C1 Vol.: 59
Chanel 1 Note Off - Duracao: 74520 Nota: C1 Vol.: 53
Chanel 1 Note On - Duracao: 74520 Nota: C1 Vol.: 57
Chanel 2 Note Off - Duracao: 74520 Nota: C1 Vol.: 76
Chanel 2 Note On - Duracao: 74520 Nota: C1 Vol.: 81
Chanel 1 Note Off - Duracao: 74640 Nota: C1 Vol.: 57
Chanel 1 Note On - Duracao: 74640 Nota: C1 Vol.: 61
Chanel 1 Note Off - Duracao: 74760 Nota: C1 Vol.: 61
Chanel 1 Note On - Duracao: 74760 Nota: C1 Vol.: 48
Chanel 2 Note Off - Duracao: 74760 Nota: C1 Vol.: 81
Chanel 2 Note On - Duracao: 74760 Nota: C1 Vol.: 81
Chanel 3 Note Off - Duracao: 74820 Nota: C1 Vol.: 40
Chanel 3 Note On - Duracao: 74820 Nota: C1 Vol.: 73
Chanel 7 Note Off - Duracao: 74880 Nota: C1 Vol.: 72
Chanel 7 Note On - Duracao: 74880 Nota: C1 Vol.: 71
Chanel 9 Note Off - Duracao: 74880 Nota: C1 Vol.: 59
Chanel 9 Note On - Duracao: 74880 Nota: C1 Vol.: 61
Chanel 2 Note Off - Duracao: 75000 Nota: C1 Vol.: 81
Chanel 2 Note On - Duracao: 75000 Nota: C1 Vol.: 82
Chanel 3 Note Off - Duracao: 75060 Nota: C1 Vol.: 73
Chanel 3 Note On - Duracao: 75060 Nota: C1 Vol.: 75
Chanel 1 Note Off - Duracao: 75240 Nota: C1 Vol.: 48
Chanel 1 Note On - Duracao: 75240 Nota: C1 Vol.: 40
Chanel 2 Note Off - Duracao: 75240 Nota: C1 Vol.: 82
Chanel 2 Note On - Duracao: 75240 Nota: C1 Vol.: 84
Chanel 6 Note Off - Duracao: 75240 Nota: C1 Vol.: 60
Chanel 6 Note On - Duracao: 75240 Nota: C1 Vol.: 58
Chanel 3 Note Off - Duracao: 75300 Nota: C1 Vol.: 75
Chanel 3 Note On - Duracao: 75300 Nota: C1 Vol.: 74
Chanel 8 Note Off - Duracao: 75300 Nota: C1 Vol.: 50
Chanel 8 Note On - Duracao: 75300 Nota: C1 Vol.: 52
Chanel 9 Note Off - Duracao: 75360 Nota: C1 Vol.: 61
Chanel 9 Note On - Duracao: 75360 Nota: C1 Vol.: 60
Chanel 2 Note Off - Duracao: 75480 Nota: C1 Vol.: 84
Chanel 2 Note On - Duracao: 75480 Nota: C1 Vol.: 82
Chanel 3 Note Off - Duracao: 75540 Nota: C1 Vol.: 74
Chanel 3 Note On - Duracao: 75540 Nota: C1 Vol.: 78
Chanel 3 Note Off - Duracao: 75660 Nota: C1 Vol.: 78
Chanel 3 Note On - Duracao: 75660 Nota: C1 Vol.: 40
Chanel 2 Note Off - Duracao: 75720 Nota: C1 Vol.: 82
Chanel 2 Note On - Duracao: 75720 Nota: C1 Vol.: 80
Chanel 9 Note Off - Duracao: 75840 Nota: C1 Vol.: 60
Chanel 9 Note On - Duracao: 75840 Nota: C1 Vol.: 58
Chanel 2 Note Off - Duracao: 75960 Nota: C1 Vol.: 80
Chanel 2 Note On - Duracao: 75960 Nota: C1 Vol.: 87
Chanel 2 Note Off - Duracao: 76200 Nota: C1 Vol.: 87
Chanel 2 Note On - Duracao: 76200 Nota: C1 Vol.: 89
Chanel 4 Note Off - Duracao: 76200 Nota: C1 Vol.: 41
Chanel 4 Note On - Duracao: 76200 Nota: C1 Vol.: 53
Chanel 5 Note Off - Duracao: 76200 Nota: C1 Vol.: 44
Chanel 5 Note On - Duracao: 76200 Nota: C1 Vol.: 93
Chanel 5 Note Off - Duracao: 76260 Nota: C1 Vol.: 93
Chanel 5 Note On - Duracao: 76260 Nota: C1 Vol.: 97
Chanel 8 Note Off - Duracao: 76260 Nota: C1 Vol.: 52
Chanel 8 Note On - Duracao: 76260 Nota: C1 Vol.: 52
Chanel 5 Note Off - Duracao: 76320 Nota: C1 Vol.: 97
Chanel 5 Note On - Duracao: 76320 Nota: C1 Vol.: 99
Chanel 9 Note Off - Duracao: 76320 Nota: C1 Vol.: 58
Chanel 9 Note On - Duracao: 76320 Nota: C1 Vol.: 64
Chanel 5 Note Off - Duracao: 76380 Nota: C1 Vol.: 99
Chanel 5 Note On - Duracao: 76380 Nota: C1 Vol.: 100
Chanel 2 Note Off - Duracao: 76440 Nota: C1 Vol.: 89
Chanel 2 Note On - Duracao: 76440 Nota: C1 Vol.: 75
Chanel 5 Note Off - Duracao: 76440 Nota: C1 Vol.: 100
Chanel 5 Note On - Duracao: 76440 Nota: C1 Vol.: 97
Chanel 5 Note Off - Duracao: 76500 Nota: C1 Vol.: 97
Chanel 5 Note On - Duracao: 76500 Nota: C1 Vol.: 99
Chanel 5 Note Off - Duracao: 76560 Nota: C1 Vol.: 99
Chanel 5 Note On - Duracao: 76560 Nota: C1 Vol.: 99
Chanel 5 Note Off - Duracao: 76620 Nota: C1 Vol.: 99
Chanel 5 Note On - Duracao: 76620 Nota: C1 Vol.: 97
Chanel 5 Note Off - Duracao: 76680 Nota: C1 Vol.: 97
Chanel 5 Note On - Duracao: 76680 Nota: C1 Vol.: 96
Chanel 5 Note Off - Duracao: 76740 Nota: C1 Vol.: 96
Chanel 5 Note On - Duracao: 76740 Nota: C1 Vol.: 95
Chanel 7 Note Off - Duracao: 76800 Nota: C1 Vol.: 71
Chanel 7 Note On - Duracao: 76800 Nota: C1 Vol.: 66
Chanel 9 Note Off - Duracao: 76800 Nota: C1 Vol.: 64
Chanel 9 Note On - Duracao: 76800 Nota: C1 Vol.: 56
Chanel 5 Note Off - Duracao: 76860 Nota: C1 Vol.: 95
Chanel 5 Note On - Duracao: 76860 Nota: C1 Vol.: 100
Chanel 2 Note Off - Duracao: 76920 Nota: C1 Vol.: 75
Chanel 2 Note On - Duracao: 76920 Nota: C1 Vol.: 73
Chanel 5 Note Off - Duracao: 76920 Nota: C1 Vol.: 100
Chanel 5 Note On - Duracao: 76920 Nota: C1 Vol.: 100
Chanel 5 Note Off - Duracao: 76980 Nota: C1 Vol.: 100
Chanel 5 Note On - Duracao: 76980 Nota: C1 Vol.: 99
Chanel 5 Note Off - Duracao: 77040 Nota: C1 Vol.: 99
Chanel 5 Note On - Duracao: 77040 Nota: C1 Vol.: 99
Chanel 5 Note Off - Duracao: 77100 Nota: C1 Vol.: 99
Chanel 5 Note On - Duracao: 77100 Nota: C1 Vol.: 99
Chanel 1 Note Off - Duracao: 77160 Nota: C1 Vol.: 40
Chanel 1 Note On - Duracao: 77160 Nota: C1 Vol.: 77
Chanel 4 Note Off - Duracao: 77160 Nota: C1 Vol.: 53
Chanel 4 Note On - Duracao: 77160 Nota: C1 Vol.: 89
Chanel 5 Note Off - Duracao: 77160 Nota: C1 Vol.: 99
Chanel 5 Note On - Duracao: 77160 Nota: C1 Vol.: 99
Chanel 5 Note Off - Duracao: 77220 Nota: C1 Vol.: 99
Chanel 5 Note On - Duracao: 77220 Nota: C1 Vol.: 100
Chanel 8 Note Off - Duracao: 77220 Nota: C1 Vol.: 52
Chanel 8 Note On - Duracao: 77220 Nota: C1 Vol.: 51
Chanel 4 Note Off - Duracao: 77280 Nota: C1 Vol.: 89
Chanel 4 Note On - Duracao: 77280 Nota: C1 Vol.: 89
Chanel 5 Note Off - Duracao: 77280 Nota: C1 Vol.: 100
Chanel 5 Note On - Duracao: 77280 Nota: C1 Vol.: 97
Chanel 1 Note Off - Duracao: 77400 Nota: C1 Vol.: 77
Chanel 1 Note On - Duracao: 77400 Nota: C1 Vol.: 94
Chanel 2 Note Off - Duracao: 77400 Nota: C1 Vol.: 73
Chanel 2 Note On - Duracao: 77400 Nota: C1 Vol.: 72
Chanel 4 Note Off - Duracao: 77400 Nota: C1 Vol.: 89
Chanel 4 Note On - Duracao: 77400 Nota: C1 Vol.: 97
Chanel 5 Note Off - Duracao: 77400 Nota: C1 Vol.: 97
Chanel 5 Note On - Duracao: 77400 Nota: C1 Vol.: 94
Chanel 1 Note Off - Duracao: 77460 Nota: C1 Vol.: 94
Chanel 1 Note On - Duracao: 77460 Nota: C1 Vol.: 95
Chanel 4 Note Off - Duracao: 77460 Nota: C1 Vol.: 97
Chanel 4 Note On - Duracao: 77460 Nota: C1 Vol.: 100
Chanel 1 Note Off - Duracao: 77520 Nota: C1 Vol.: 95
Chanel 1 Note On - Duracao: 77520 Nota: C1 Vol.: 82
Chanel 4 Note Off - Duracao: 77520 Nota: C1 Vol.: 100
Chanel 4 Note On - Duracao: 77520 Nota: C1 Vol.: 100
Chanel 5 Note Off - Duracao: 77520 Nota: C1 Vol.: 94
Chanel 5 Note On - Duracao: 77520 Nota: C1 Vol.: 92
Chanel 3 Note Off - Duracao: 77580 Nota: C1 Vol.: 40
Chanel 3 Note On - Duracao: 77580 Nota: C1 Vol.: 41
Chanel 4 Note Off - Duracao: 77580 Nota: C1 Vol.: 100
Chanel 4 Note On - Duracao: 77580 Nota: C1 Vol.: 100
Chanel 4 Note Off - Duracao: 77640 Nota: C1 Vol.: 100
Chanel 4 Note On - Duracao: 77640 Nota: C1 Vol.: 100
Chanel 5 Note Off - Duracao: 77640 Nota: C1 Vol.: 92
Chanel 5 Note On - Duracao: 77640 Nota: C1 Vol.: 83
Chanel 4 Note Off - Duracao: 77700 Nota: C1 Vol.: 100
Chanel 4 Note On - Duracao: 77700 Nota: C1 Vol.: 96
Chanel 1 Note Off - Duracao: 77760 Nota: C1 Vol.: 82
Chanel 1 Note On - Duracao: 77760 Nota: C1 Vol.: 81
Chanel 4 Note Off - Duracao: 77760 Nota: C1 Vol.: 96
Chanel 4 Note On - Duracao: 77760 Nota: C1 Vol.: 94
Chanel 5 Note Off - Duracao: 77760 Nota: C1 Vol.: 83
Chanel 5 Note On - Duracao: 77760 Nota: C1 Vol.: 84
Chanel 9 Note Off - Duracao: 77760 Nota: C1 Vol.: 56
Chanel 9 Note On - Duracao: 77760 Nota: C1 Vol.: 56
Chanel 4 Note Off - Duracao: 77820 Nota: C1 Vol.: 94
Chanel 4 Note On - Duracao: 77820 Nota: C1 Vol.: 49
Chanel 2 Note Off - Duracao: 77880 Nota: C1 Vol.: 72
Chanel 2 Note On - Duracao: 77880 Nota: C1 Vol.: 72
Chanel 5 Note Off - Duracao: 77880 Nota: C1 Vol.: 84
Chanel 5 Note On - Duracao: 77880 Nota: C1 Vol.: 83
Chanel 1 Note Off - Duracao: 78000 Nota: C1 Vol.: 81
Chanel 1 Note On - Duracao: 78000 Nota: C1 Vol.: 79
Chanel 5 Note Off - Duracao: 78000 Nota: C1 Vol.: 83
Chanel 5 Note On - Duracao: 78000 Nota: C1 Vol.: 76
Chanel 8 Note Off - Duracao: 78180 Nota: C1 Vol.: 51
Chanel 8 Note On - Duracao: 78180 Nota: C1 Vol.: 52
Chanel 1 Note Off - Duracao: 78240 Nota: C1 Vol.: 79
Chanel 1 Note On - Duracao: 78240 Nota: C1 Vol.: 82
Chanel 5 Note Off - Duracao: 78240 Nota: C1 Vol.: 76
Chanel 5 Note On - Duracao: 78240 Nota: C1 Vol.: 62
Chanel 2 Note Off - Duracao: 78360 Nota: C1 Vol.: 72
Chanel 2 Note On - Duracao: 78360 Nota: C1 Vol.: 72
Chanel 1 Note Off - Duracao: 78480 Nota: C1 Vol.: 82
Chanel 1 Note On - Duracao: 78480 Nota: C1 Vol.: 88
Chanel 1 Note Off - Duracao: 78600 Nota: C1 Vol.: 88
Chanel 1 Note On - Duracao: 78600 Nota: C1 Vol.: 89
Chanel 1 Note Off - Duracao: 78720 Nota: C1 Vol.: 89
Chanel 1 Note On - Duracao: 78720 Nota: C1 Vol.: 89
Chanel 7 Note Off - Duracao: 78720 Nota: C1 Vol.: 66
Chanel 7 Note On - Duracao: 78720 Nota: C1 Vol.: 48
Chanel 9 Note Off - Duracao: 78720 Nota: C1 Vol.: 56
Chanel 9 Note On - Duracao: 78720 Nota: C1 Vol.: 65
Chanel 1 Note Off - Duracao: 78840 Nota: C1 Vol.: 89
Chanel 1 Note On - Duracao: 78840 Nota: C1 Vol.: 89
Chanel 2 Note Off - Duracao: 78840 Nota: C1 Vol.: 72
Chanel 2 Note On - Duracao: 78840 Nota: C1 Vol.: 79
Chanel 1 Note Off - Duracao: 78960 Nota: C1 Vol.: 89
Chanel 1 Note On - Duracao: 78960 Nota: C1 Vol.: 94
Chanel 1 Note Off - Duracao: 79080 Nota: C1 Vol.: 94
Chanel 1 Note On - Duracao: 79080 Nota: C1 Vol.: 95
Chanel 2 Note Off - Duracao: 79080 Nota: C1 Vol.: 79
Chanel 2 Note On - Duracao: 79080 Nota: C1 Vol.: 78
Chanel 6 Note Off - Duracao: 79080 Nota: C1 Vol.: 58
Chanel 6 Note On - Duracao: 79080 Nota: C1 Vol.: 59
Chanel 1 Note Off - Duracao: 79140 Nota: C1 Vol.: 95
Chanel 1 Note On - Duracao: 79140 Nota: C1 Vol.: 92
Chanel 8 Note Off - Duracao: 79140 Nota: C1 Vol.: 52
Chanel 8 Note On - Duracao: 79140 Nota: C1 Vol.: 49
Chanel 5 Note Off - Duracao: 79200 Nota: C1 Vol.: 62
Chanel 5 Note On - Duracao: 79200 Nota: C1 Vol.: 72
Chanel 9 Note Off - Duracao: 79200 Nota: C1 Vol.: 65
Chanel 9 Note On - Duracao: 79200 Nota: C1 Vol.: 60
Chanel 1 Note Off - Duracao: 79260 Nota: C1 Vol.: 92
Chanel 1 Note On - Duracao: 79260 Nota: C1 Vol.: 97
Chanel 1 Note Off - Duracao: 79320 Nota: C1 Vol.: 97
Chanel 1 Note On - Duracao: 79320 Nota: C1 Vol.: 91
Chanel 2 Note Off - Duracao: 79320 Nota: C1 Vol.: 78
Chanel 2 Note On - Duracao: 79320 Nota: C1 Vol.: 83
Chanel 1 Note Off - Duracao: 79440 Nota: C1 Vol.: 91
Chanel 1 Note On - Duracao: 79440 Nota: C1 Vol.: 83
Chanel 3 Note Off - Duracao: 79500 Nota: C1 Vol.: 41
Chanel 3 Note On - Duracao: 79500 Nota: C1 Vol.: 40
Chanel 2 Note Off - Duracao: 79560 Nota: C1 Vol.: 83
Chanel 2 Note On - Duracao: 79560 Nota: C1 Vol.: 92
Chanel 1 Note Off - Duracao: 79680 Nota: C1 Vol.: 83
Chanel 1 Note On - Duracao: 79680 Nota: C1 Vol.: 92
Chanel 2 Note Off - Duracao: 79680 Nota: C1 Vol.: 92
Chanel 2 Note On - Duracao: 79680 Nota: C1 Vol.: 95
Chanel 5 Note Off - Duracao: 79680 Nota: C1 Vol.: 72
Chanel 5 Note On - Duracao: 79680 Nota: C1 Vol.: 69
Chanel 9 Note Off - Duracao: 79680 Nota: C1 Vol.: 60
Chanel 9 Note On - Duracao: 79680 Nota: C1 Vol.: 58
Chanel 1 Note Off - Duracao: 79740 Nota: C1 Vol.: 92
Chanel 1 Note On - Duracao: 79740 Nota: C1 Vol.: 89
Chanel 4 Note Off - Duracao: 79740 Nota: C1 Vol.: 49
Chanel 4 Note On - Duracao: 79740 Nota: C1 Vol.: 51
Chanel 2 Note Off - Duracao: 79800 Nota: C1 Vol.: 95
Chanel 2 Note On - Duracao: 79800 Nota: C1 Vol.: 95
Chanel 1 Note Off - Duracao: 79860 Nota: C1 Vol.: 89
Chanel 1 Note On - Duracao: 79860 Nota: C1 Vol.: 90
Chanel 2 Note Off - Duracao: 79920 Nota: C1 Vol.: 95
Chanel 2 Note On - Duracao: 79920 Nota: C1 Vol.: 88
Chanel 1 Note Off - Duracao: 79980 Nota: C1 Vol.: 90
Chanel 1 Note On - Duracao: 79980 Nota: C1 Vol.: 91
Chanel 2 Note Off - Duracao: 80040 Nota: C1 Vol.: 88
Chanel 2 Note On - Duracao: 80040 Nota: C1 Vol.: 89
Chanel 1 Note Off - Duracao: 80100 Nota: C1 Vol.: 91
Chanel 1 Note On - Duracao: 80100 Nota: C1 Vol.: 84
Chanel 8 Note Off - Duracao: 80100 Nota: C1 Vol.: 49
Chanel 8 Note On - Duracao: 80100 Nota: C1 Vol.: 47
Chanel 2 Note Off - Duracao: 80160 Nota: C1 Vol.: 89
Chanel 2 Note On - Duracao: 80160 Nota: C1 Vol.: 80
Chanel 5 Note Off - Duracao: 80160 Nota: C1 Vol.: 69
Chanel 5 Note On - Duracao: 80160 Nota: C1 Vol.: 55
Chanel 9 Note Off - Duracao: 80160 Nota: C1 Vol.: 58
Chanel 9 Note On - Duracao: 80160 Nota: C1 Vol.: 54
Chanel 1 Note Off - Duracao: 80220 Nota: C1 Vol.: 84
Chanel 1 Note On - Duracao: 80220 Nota: C1 Vol.: 88
Chanel 2 Note Off - Duracao: 80280 Nota: C1 Vol.: 80
Chanel 2 Note On - Duracao: 80280 Nota: C1 Vol.: 71
Chanel 1 Note Off - Duracao: 80340 Nota: C1 Vol.: 88
Chanel 1 Note On - Duracao: 80340 Nota: C1 Vol.: 95
Chanel 1 Note Off - Duracao: 80400 Nota: C1 Vol.: 95
Chanel 1 Note On - Duracao: 80400 Nota: C1 Vol.: 93
Chanel 2 Note Off - Duracao: 80400 Nota: C1 Vol.: 71
Chanel 2 Note On - Duracao: 80400 Nota: C1 Vol.: 69
Chanel 1 Note Off - Duracao: 80520 Nota: C1 Vol.: 93
Chanel 1 Note On - Duracao: 80520 Nota: C1 Vol.: 97
Chanel 2 Note Off - Duracao: 80520 Nota: C1 Vol.: 69
Chanel 2 Note On - Duracao: 80520 Nota: C1 Vol.: 68
Chanel 1 Note Off - Duracao: 80580 Nota: C1 Vol.: 97
Chanel 1 Note On - Duracao: 80580 Nota: C1 Vol.: 98
Chanel 1 Note Off - Duracao: 80640 Nota: C1 Vol.: 98
Chanel 1 Note On - Duracao: 80640 Nota: C1 Vol.: 97
Chanel 2 Note Off - Duracao: 80640 Nota: C1 Vol.: 68
Chanel 2 Note On - Duracao: 80640 Nota: C1 Vol.: 62
Chanel 1 Note Off - Duracao: 80700 Nota: C1 Vol.: 97
Chanel 1 Note On - Duracao: 80700 Nota: C1 Vol.: 97
Chanel 2 Note Off - Duracao: 80760 Nota: C1 Vol.: 62
Chanel 2 Note On - Duracao: 80760 Nota: C1 Vol.: 62
Chanel 1 Note Off - Duracao: 80820 Nota: C1 Vol.: 97
Chanel 1 Note On - Duracao: 80820 Nota: C1 Vol.: 99
Chanel 1 Note Off - Duracao: 80880 Nota: C1 Vol.: 99
Chanel 1 Note On - Duracao: 80880 Nota: C1 Vol.: 98
Chanel 2 Note Off - Duracao: 80880 Nota: C1 Vol.: 62
Chanel 2 Note On - Duracao: 80880 Nota: C1 Vol.: 61
Chanel 1 Note Off - Duracao: 80940 Nota: C1 Vol.: 98
Chanel 1 Note On - Duracao: 80940 Nota: C1 Vol.: 97
Chanel 2 Note Off - Duracao: 81000 Nota: C1 Vol.: 61
Chanel 2 Note On - Duracao: 81000 Nota: C1 Vol.: 64
Chanel 1 Note Off - Duracao: 81060 Nota: C1 Vol.: 97
Chanel 1 Note On - Duracao: 81060 Nota: C1 Vol.: 98
Chanel 8 Note Off - Duracao: 81060 Nota: C1 Vol.: 47
Chanel 8 Note On - Duracao: 81060 Nota: C1 Vol.: 69
Chanel 1 Note Off - Duracao: 81120 Nota: C1 Vol.: 98
Chanel 1 Note On - Duracao: 81120 Nota: C1 Vol.: 98
Chanel 2 Note Off - Duracao: 81120 Nota: C1 Vol.: 64
Chanel 2 Note On - Duracao: 81120 Nota: C1 Vol.: 65
Chanel 5 Note Off - Duracao: 81120 Nota: C1 Vol.: 55
Chanel 5 Note On - Duracao: 81120 Nota: C1 Vol.: 52
Chanel 9 Note Off - Duracao: 81120 Nota: C1 Vol.: 54
Chanel 9 Note On - Duracao: 81120 Nota: C1 Vol.: 58
Chanel 1 Note Off - Duracao: 81180 Nota: C1 Vol.: 98
Chanel 1 Note On - Duracao: 81180 Nota: C1 Vol.: 99
Chanel 1 Note Off - Duracao: 81240 Nota: C1 Vol.: 99
Chanel 1 Note On - Duracao: 81240 Nota: C1 Vol.: 98
Chanel 2 Note Off - Duracao: 81240 Nota: C1 Vol.: 65
Chanel 2 Note On - Duracao: 81240 Nota: C1 Vol.: 55
Chanel 8 Note Off - Duracao: 81300 Nota: C1 Vol.: 69
Chanel 8 Note On - Duracao: 81300 Nota: C1 Vol.: 57
Chanel 1 Note Off - Duracao: 81360 Nota: C1 Vol.: 98
Chanel 1 Note On - Duracao: 81360 Nota: C1 Vol.: 97
Chanel 3 Note Off - Duracao: 81420 Nota: C1 Vol.: 40
Chanel 3 Note On - Duracao: 81420 Nota: C1 Vol.: 67
Chanel 1 Note Off - Duracao: 81480 Nota: C1 Vol.: 97
Chanel 1 Note On - Duracao: 81480 Nota: C1 Vol.: 98
Chanel 2 Note Off - Duracao: 81480 Nota: C1 Vol.: 55
Chanel 2 Note On - Duracao: 81480 Nota: C1 Vol.: 54
Chanel 1 Note Off - Duracao: 81600 Nota: C1 Vol.: 98
Chanel 1 Note On - Duracao: 81600 Nota: C1 Vol.: 100
Chanel 5 Note Off - Duracao: 81600 Nota: C1 Vol.: 52
Chanel 5 Note On - Duracao: 81600 Nota: C1 Vol.: 52
Chanel 9 Note Off - Duracao: 81600 Nota: C1 Vol.: 58
Chanel 9 Note On - Duracao: 81600 Nota: C1 Vol.: 50
Chanel 1 Note Off - Duracao: 81660 Nota: C1 Vol.: 100
Chanel 1 Note On - Duracao: 81660 Nota: C1 Vol.: 100
Chanel 4 Note Off - Duracao: 81660 Nota: C1 Vol.: 51
Chanel 4 Note On - Duracao: 81660 Nota: C1 Vol.: 49
Chanel 1 Note Off - Duracao: 81720 Nota: C1 Vol.: 100
Chanel 1 Note On - Duracao: 81720 Nota: C1 Vol.: 96
Chanel 8 Note Off - Duracao: 81780 Nota: C1 Vol.: 57
Chanel 8 Note On - Duracao: 81780 Nota: C1 Vol.: 65
Chanel 1 Note Off - Duracao: 81840 Nota: C1 Vol.: 96
Chanel 1 Note On - Duracao: 81840 Nota: C1 Vol.: 96
Chanel 1 Note Off - Duracao: 81900 Nota: C1 Vol.: 96
Chanel 1 Note On - Duracao: 81900 Nota: C1 Vol.: 100
Chanel 3 Note Off - Duracao: 81900 Nota: C1 Vol.: 67
Chanel 3 Note On - Duracao: 81900 Nota: C1 Vol.: 98
Chanel 1 Note Off - Duracao: 81960 Nota: C1 Vol.: 100
Chanel 1 Note On - Duracao: 81960 Nota: C1 Vol.: 99
Chanel 2 Note Off - Duracao: 81960 Nota: C1 Vol.: 54
Chanel 2 Note On - Duracao: 81960 Nota: C1 Vol.: 55
Chanel 3 Note Off - Duracao: 81960 Nota: C1 Vol.: 98
Chanel 3 Note On - Duracao: 81960 Nota: C1 Vol.: 98
Chanel 1 Note Off - Duracao: 82020 Nota: C1 Vol.: 99
Chanel 1 Note On - Duracao: 82020 Nota: C1 Vol.: 97
Chanel 3 Note Off - Duracao: 82020 Nota: C1 Vol.: 98
Chanel 3 Note On - Duracao: 82020 Nota: C1 Vol.: 97
Chanel 8 Note Off - Duracao: 82020 Nota: C1 Vol.: 65
Chanel 8 Note On - Duracao: 82020 Nota: C1 Vol.: 63
Chanel 3 Note Off - Duracao: 82080 Nota: C1 Vol.: 97
Chanel 3 Note On - Duracao: 82080 Nota: C1 Vol.: 63
Chanel 5 Note Off - Duracao: 82080 Nota: C1 Vol.: 52
Chanel 5 Note On - Duracao: 82080 Nota: C1 Vol.: 47
Chanel 1 Note Off - Duracao: 82140 Nota: C1 Vol.: 97
Chanel 1 Note On - Duracao: 82140 Nota: C1 Vol.: 93
Chanel 1 Note Off - Duracao: 82260 Nota: C1 Vol.: 93
Chanel 1 Note On - Duracao: 82260 Nota: C1 Vol.: 99
Chanel 8 Note Off - Duracao: 82260 Nota: C1 Vol.: 63
Chanel 8 Note On - Duracao: 82260 Nota: C1 Vol.: 50
Chanel 1 Note Off - Duracao: 82380 Nota: C1 Vol.: 99
Chanel 1 Note On - Duracao: 82380 Nota: C1 Vol.: 96
Chanel 2 Note Off - Duracao: 82440 Nota: C1 Vol.: 55
Chanel 2 Note On - Duracao: 82440 Nota: C1 Vol.: 62
Chanel 1 Note Off - Duracao: 82500 Nota: C1 Vol.: 96
Chanel 1 Note On - Duracao: 82500 Nota: C1 Vol.: 91
Chanel 7 Note Off - Duracao: 82560 Nota: C1 Vol.: 48
Chanel 7 Note On - Duracao: 82560 Nota: C1 Vol.: 56
Chanel 9 Note Off - Duracao: 82560 Nota: C1 Vol.: 50
Chanel 9 Note On - Duracao: 82560 Nota: C1 Vol.: 41
Chanel 1 Note Off - Duracao: 82620 Nota: C1 Vol.: 91
Chanel 1 Note On - Duracao: 82620 Nota: C1 Vol.: 88
Chanel 1 Note Off - Duracao: 82740 Nota: C1 Vol.: 88
Chanel 1 Note On - Duracao: 82740 Nota: C1 Vol.: 75
Chanel 2 Note Off - Duracao: 82920 Nota: C1 Vol.: 62
Chanel 2 Note On - Duracao: 82920 Nota: C1 Vol.: 82
Chanel 6 Note Off - Duracao: 82920 Nota: C1 Vol.: 59
Chanel 6 Note On - Duracao: 82920 Nota: C1 Vol.: 56
Chanel 1 Note Off - Duracao: 82980 Nota: C1 Vol.: 75
Chanel 1 Note On - Duracao: 82980 Nota: C1 Vol.: 62
Chanel 2 Note Off - Duracao: 83040 Nota: C1 Vol.: 82
Chanel 2 Note On - Duracao: 83040 Nota: C1 Vol.: 79
Chanel 3 Note Off - Duracao: 83040 Nota: C1 Vol.: 63
Chanel 3 Note On - Duracao: 83040 Nota: C1 Vol.: 80
Chanel 5 Note Off - Duracao: 83040 Nota: C1 Vol.: 47
Chanel 5 Note On - Duracao: 83040 Nota: C1 Vol.: 49
Chanel 1 Note Off - Duracao: 83220 Nota: C1 Vol.: 62
Chanel 1 Note On - Duracao: 83220 Nota: C1 Vol.: 63
Chanel 8 Note Off - Duracao: 83220 Nota: C1 Vol.: 50
Chanel 8 Note On - Duracao: 83220 Nota: C1 Vol.: 48
Chanel 2 Note Off - Duracao: 83280 Nota: C1 Vol.: 79
Chanel 2 Note On - Duracao: 83280 Nota: C1 Vol.: 68
Chanel 3 Note Off - Duracao: 83280 Nota: C1 Vol.: 80
Chanel 3 Note On - Duracao: 83280 Nota: C1 Vol.: 98
Chanel 3 Note Off - Duracao: 83340 Nota: C1 Vol.: 98
Chanel 3 Note On - Duracao: 83340 Nota: C1 Vol.: 83
Chanel 1 Note Off - Duracao: 83460 Nota: C1 Vol.: 63
Chanel 1 Note On - Duracao: 83460 Nota: C1 Vol.: 63
Chanel 2 Note Off - Duracao: 83520 Nota: C1 Vol.: 68
Chanel 2 Note On - Duracao: 83520 Nota: C1 Vol.: 71
Chanel 7 Note Off - Duracao: 83520 Nota: C1 Vol.: 56
Chanel 7 Note On - Duracao: 83520 Nota: C1 Vol.: 61
Chanel 9 Note Off - Duracao: 83520 Nota: C1 Vol.: 41
Chanel 9 Note On - Duracao: 83520 Nota: C1 Vol.: 51
Chanel 3 Note Off - Duracao: 83580 Nota: C1 Vol.: 83
Chanel 3 Note On - Duracao: 83580 Nota: C1 Vol.: 82
Chanel 4 Note Off - Duracao: 83580 Nota: C1 Vol.: 49
Chanel 4 Note On - Duracao: 83580 Nota: C1 Vol.: 97
Chanel 4 Note Off - Duracao: 83640 Nota: C1 Vol.: 97
Chanel 4 Note On - Duracao: 83640 Nota: C1 Vol.: 100
Chanel 1 Note Off - Duracao: 83700 Nota: C1 Vol.: 63
Chanel 1 Note On - Duracao: 83700 Nota: C1 Vol.: 73
Chanel 4 Note Off - Duracao: 83700 Nota: C1 Vol.: 100
Chanel 4 Note On - Duracao: 83700 Nota: C1 Vol.: 99
Chanel 2 Note Off - Duracao: 83760 Nota: C1 Vol.: 71
Chanel 2 Note On - Duracao: 83760 Nota: C1 Vol.: 77
Chanel 4 Note Off - Duracao: 83760 Nota: C1 Vol.: 99
Chanel 4 Note On - Duracao: 83760 Nota: C1 Vol.: 98
Chanel 1 Note Off - Duracao: 83820 Nota: C1 Vol.: 73
Chanel 1 Note On - Duracao: 83820 Nota: C1 Vol.: 75
Chanel 3 Note Off - Duracao: 83820 Nota: C1 Vol.: 82
Chanel 3 Note On - Duracao: 83820 Nota: C1 Vol.: 65
Chanel 4 Note Off - Duracao: 83820 Nota: C1 Vol.: 98
Chanel 4 Note On - Duracao: 83820 Nota: C1 Vol.: 100
Chanel 2 Note Off - Duracao: 83880 Nota: C1 Vol.: 77
Chanel 2 Note On - Duracao: 83880 Nota: C1 Vol.: 71
Chanel 4 Note Off - Duracao: 83880 Nota: C1 Vol.: 100
Chanel 4 Note On - Duracao: 83880 Nota: C1 Vol.: 100
Chanel 1 Note Off - Duracao: 83940 Nota: C1 Vol.: 75
Chanel 1 Note On - Duracao: 83940 Nota: C1 Vol.: 72
Chanel 4 Note Off - Duracao: 83940 Nota: C1 Vol.: 100
Chanel 4 Note On - Duracao: 83940 Nota: C1 Vol.: 99
Chanel 4 Note Off - Duracao: 84000 Nota: C1 Vol.: 99
Chanel 4 Note On - Duracao: 84000 Nota: C1 Vol.: 99
Chanel 5 Note Off - Duracao: 84000 Nota: C1 Vol.: 49
Chanel 5 Note On - Duracao: 84000 Nota: C1 Vol.: 54
Chanel 7 Note Off - Duracao: 84000 Nota: C1 Vol.: 61
Chanel 7 Note On - Duracao: 84000 Nota: C1 Vol.: 63
Chanel 9 Note Off - Duracao: 84000 Nota: C1 Vol.: 51
Chanel 9 Note On - Duracao: 84000 Nota: C1 Vol.: 55
Chanel 1 Note Off - Duracao: 84060 Nota: C1 Vol.: 72
Chanel 1 Note On - Duracao: 84060 Nota: C1 Vol.: 70
Chanel 4 Note Off - Duracao: 84060 Nota: C1 Vol.: 99
Chanel 4 Note On - Duracao: 84060 Nota: C1 Vol.: 93
Chanel 2 Note Off - Duracao: 84120 Nota: C1 Vol.: 71
Chanel 2 Note On - Duracao: 84120 Nota: C1 Vol.: 65
Chanel 4 Note Off - Duracao: 84120 Nota: C1 Vol.: 93
Chanel 4 Note On - Duracao: 84120 Nota: C1 Vol.: 71
Chanel 1 Note Off - Duracao: 84180 Nota: C1 Vol.: 70
Chanel 1 Note On - Duracao: 84180 Nota: C1 Vol.: 60
Chanel 8 Note Off - Duracao: 84180 Nota: C1 Vol.: 48
Chanel 8 Note On - Duracao: 84180 Nota: C1 Vol.: 51
Chanel 7 Note Off - Duracao: 84240 Nota: C1 Vol.: 63
Chanel 7 Note On - Duracao: 84240 Nota: C1 Vol.: 60
Chanel 3 Note Off - Duracao: 84300 Nota: C1 Vol.: 65
Chanel 3 Note On - Duracao: 84300 Nota: C1 Vol.: 65
Chanel 2 Note Off - Duracao: 84360 Nota: C1 Vol.: 65
Chanel 2 Note On - Duracao: 84360 Nota: C1 Vol.: 72
Chanel 1 Note Off - Duracao: 84420 Nota: C1 Vol.: 60
Chanel 1 Note On - Duracao: 84420 Nota: C1 Vol.: 65
Chanel 2 Note Off - Duracao: 84480 Nota: C1 Vol.: 72
Chanel 2 Note On - Duracao: 84480 Nota: C1 Vol.: 62
Chanel 5 Note Off - Duracao: 84480 Nota: C1 Vol.: 54
Chanel 5 Note On - Duracao: 84480 Nota: C1 Vol.: 65
Chanel 7 Note Off - Duracao: 84480 Nota: C1 Vol.: 60
Chanel 7 Note On - Duracao: 84480 Nota: C1 Vol.: 56
Chanel 9 Note Off - Duracao: 84480 Nota: C1 Vol.: 55
Chanel 9 Note On - Duracao: 84480 Nota: C1 Vol.: 57
Chanel 3 Note Off - Duracao: 84540 Nota: C1 Vol.: 65
Chanel 3 Note On - Duracao: 84540 Nota: C1 Vol.: 63
Chanel 4 Note Off - Duracao: 84600 Nota: C1 Vol.: 71
Chanel 4 Note On - Duracao: 84600 Nota: C1 Vol.: 64
Chanel 5 Note Off - Duracao: 84600 Nota: C1 Vol.: 65
Chanel 5 Note On - Duracao: 84600 Nota: C1 Vol.: 70
Chanel 1 Note Off - Duracao: 84660 Nota: C1 Vol.: 65
Chanel 1 Note On - Duracao: 84660 Nota: C1 Vol.: 66
Chanel 5 Note Off - Duracao: 84720 Nota: C1 Vol.: 70
Chanel 5 Note On - Duracao: 84720 Nota: C1 Vol.: 70
Chanel 9 Note Off - Duracao: 84720 Nota: C1 Vol.: 57
Chanel 9 Note On - Duracao: 84720 Nota: C1 Vol.: 63
Chanel 3 Note Off - Duracao: 84780 Nota: C1 Vol.: 63
Chanel 3 Note On - Duracao: 84780 Nota: C1 Vol.: 54
Chanel 5 Note Off - Duracao: 84840 Nota: C1 Vol.: 70
Chanel 5 Note On - Duracao: 84840 Nota: C1 Vol.: 63
Chanel 1 Note Off - Duracao: 84900 Nota: C1 Vol.: 66
Chanel 1 Note On - Duracao: 84900 Nota: C1 Vol.: 69
Chanel 2 Note Off - Duracao: 84960 Nota: C1 Vol.: 62
Chanel 2 Note On - Duracao: 84960 Nota: C1 Vol.: 40
Chanel 7 Note Off - Duracao: 84960 Nota: C1 Vol.: 56
Chanel 7 Note On - Duracao: 84960 Nota: C1 Vol.: 57
Chanel 9 Note Off - Duracao: 84960 Nota: C1 Vol.: 63
Chanel 9 Note On - Duracao: 84960 Nota: C1 Vol.: 64
Chanel 4 Note Off - Duracao: 85080 Nota: C1 Vol.: 64
Chanel 4 Note On - Duracao: 85080 Nota: C1 Vol.: 66
Chanel 5 Note Off - Duracao: 85080 Nota: C1 Vol.: 63
Chanel 5 Note On - Duracao: 85080 Nota: C1 Vol.: 62
Chanel 1 Note Off - Duracao: 85140 Nota: C1 Vol.: 69
Chanel 1 Note On - Duracao: 85140 Nota: C1 Vol.: 88
Chanel 8 Note Off - Duracao: 85140 Nota: C1 Vol.: 51
Chanel 8 Note On - Duracao: 85140 Nota: C1 Vol.: 69
Chanel 9 Note Off - Duracao: 85200 Nota: C1 Vol.: 64
Chanel 9 Note On - Duracao: 85200 Nota: C1 Vol.: 68
Chanel 1 Note Off - Duracao: 85260 Nota: C1 Vol.: 88
Chanel 1 Note On - Duracao: 85260 Nota: C1 Vol.: 92
Chanel 3 Note Off - Duracao: 85260 Nota: C1 Vol.: 54
Chanel 3 Note On - Duracao: 85260 Nota: C1 Vol.: 40
Chanel 5 Note Off - Duracao: 85320 Nota: C1 Vol.: 62
Chanel 5 Note On - Duracao: 85320 Nota: C1 Vol.: 58
Chanel 1 Note Off - Duracao: 85380 Nota: C1 Vol.: 92
Chanel 1 Note On - Duracao: 85380 Nota: C1 Vol.: 91
Chanel 7 Note Off - Duracao: 85440 Nota: C1 Vol.: 57
Chanel 7 Note On - Duracao: 85440 Nota: C1 Vol.: 51
Chanel 9 Note Off - Duracao: 85440 Nota: C1 Vol.: 68
Chanel 9 Note On - Duracao: 85440 Nota: C1 Vol.: 64
Chanel 1 Note Off - Duracao: 85500 Nota: C1 Vol.: 91
Chanel 1 Note On - Duracao: 85500 Nota: C1 Vol.: 85
Chanel 4 Note Off - Duracao: 85560 Nota: C1 Vol.: 66
Chanel 4 Note On - Duracao: 85560 Nota: C1 Vol.: 73
Chanel 1 Note Off - Duracao: 85620 Nota: C1 Vol.: 85
Chanel 1 Note On - Duracao: 85620 Nota: C1 Vol.: 71
Chanel 8 Note Off - Duracao: 85620 Nota: C1 Vol.: 69
Chanel 8 Note On - Duracao: 85620 Nota: C1 Vol.: 65
Chanel 9 Note Off - Duracao: 85680 Nota: C1 Vol.: 64
Chanel 9 Note On - Duracao: 85680 Nota: C1 Vol.: 64
Chanel 4 Note Off - Duracao: 85800 Nota: C1 Vol.: 73
Chanel 4 Note On - Duracao: 85800 Nota: C1 Vol.: 70
Chanel 5 Note Off - Duracao: 85800 Nota: C1 Vol.: 58
Chanel 5 Note On - Duracao: 85800 Nota: C1 Vol.: 56
Chanel 1 Note Off - Duracao: 85860 Nota: C1 Vol.: 71
Chanel 1 Note On - Duracao: 85860 Nota: C1 Vol.: 64
Chanel 9 Note Off - Duracao: 85920 Nota: C1 Vol.: 64
Chanel 9 Note On - Duracao: 85920 Nota: C1 Vol.: 63
Chanel 4 Note Off - Duracao: 86040 Nota: C1 Vol.: 70
Chanel 4 Note On - Duracao: 86040 Nota: C1 Vol.: 76
Chanel 1 Note Off - Duracao: 86100 Nota: C1 Vol.: 64
Chanel 1 Note On - Duracao: 86100 Nota: C1 Vol.: 70
Chanel 8 Note Off - Duracao: 86100 Nota: C1 Vol.: 65
Chanel 8 Note On - Duracao: 86100 Nota: C1 Vol.: 65
Chanel 4 Note Off - Duracao: 86160 Nota: C1 Vol.: 76
Chanel 4 Note On - Duracao: 86160 Nota: C1 Vol.: 84
Chanel 9 Note Off - Duracao: 86160 Nota: C1 Vol.: 63
Chanel 9 Note On - Duracao: 86160 Nota: C1 Vol.: 62
Chanel 4 Note Off - Duracao: 86220 Nota: C1 Vol.: 84
Chanel 4 Note On - Duracao: 86220 Nota: C1 Vol.: 79
Chanel 5 Note Off - Duracao: 86280 Nota: C1 Vol.: 56
Chanel 5 Note On - Duracao: 86280 Nota: C1 Vol.: 57
Chanel 1 Note Off - Duracao: 86340 Nota: C1 Vol.: 70
Chanel 1 Note On - Duracao: 86340 Nota: C1 Vol.: 64
Chanel 4 Note Off - Duracao: 86340 Nota: C1 Vol.: 79
Chanel 4 Note On - Duracao: 86340 Nota: C1 Vol.: 77
Chanel 7 Note Off - Duracao: 86400 Nota: C1 Vol.: 51
Chanel 7 Note On - Duracao: 86400 Nota: C1 Vol.: 47
Chanel 9 Note Off - Duracao: 86400 Nota: C1 Vol.: 62
Chanel 9 Note On - Duracao: 86400 Nota: C1 Vol.: 52
Chanel 4 Note Off - Duracao: 86460 Nota: C1 Vol.: 77
Chanel 4 Note On - Duracao: 86460 Nota: C1 Vol.: 91
Chanel 1 Note Off - Duracao: 86580 Nota: C1 Vol.: 64
Chanel 1 Note On - Duracao: 86580 Nota: C1 Vol.: 61
Chanel 4 Note Off - Duracao: 86580 Nota: C1 Vol.: 91
Chanel 4 Note On - Duracao: 86580 Nota: C1 Vol.: 94
Chanel 8 Note Off - Duracao: 86580 Nota: C1 Vol.: 65
Chanel 8 Note On - Duracao: 86580 Nota: C1 Vol.: 68
Chanel 4 Note Off - Duracao: 86640 Nota: C1 Vol.: 94
Chanel 4 Note On - Duracao: 86640 Nota: C1 Vol.: 92
Chanel 4 Note Off - Duracao: 86760 Nota: C1 Vol.: 92
Chanel 4 Note On - Duracao: 86760 Nota: C1 Vol.: 91
Chanel 5 Note Off - Duracao: 86760 Nota: C1 Vol.: 57
Chanel 5 Note On - Duracao: 86760 Nota: C1 Vol.: 57
Chanel 6 Note Off - Duracao: 86760 Nota: C1 Vol.: 56
Chanel 6 Note On - Duracao: 86760 Nota: C1 Vol.: 67
Chanel 4 Note Off - Duracao: 86820 Nota: C1 Vol.: 91
Chanel 4 Note On - Duracao: 86820 Nota: C1 Vol.: 87
Chanel 2 Note Off - Duracao: 86880 Nota: C1 Vol.: 40
Chanel 2 Note On - Duracao: 86880 Nota: C1 Vol.: 56
Chanel 9 Note Off - Duracao: 86880 Nota: C1 Vol.: 52
Chanel 9 Note On - Duracao: 86880 Nota: C1 Vol.: 48
Chanel 4 Note Off - Duracao: 86940 Nota: C1 Vol.: 87
Chanel 4 Note On - Duracao: 86940 Nota: C1 Vol.: 66
Chanel 1 Note Off - Duracao: 87060 Nota: C1 Vol.: 61
Chanel 1 Note On - Duracao: 87060 Nota: C1 Vol.: 74
Chanel 8 Note Off - Duracao: 87060 Nota: C1 Vol.: 68
Chanel 8 Note On - Duracao: 87060 Nota: C1 Vol.: 62
Chanel 2 Note Off - Duracao: 87120 Nota: C1 Vol.: 56
Chanel 2 Note On - Duracao: 87120 Nota: C1 Vol.: 54
Chanel 1 Note Off - Duracao: 87180 Nota: C1 Vol.: 74
Chanel 1 Note On - Duracao: 87180 Nota: C1 Vol.: 74
Chanel 3 Note Off - Duracao: 87180 Nota: C1 Vol.: 40
Chanel 3 Note On - Duracao: 87180 Nota: C1 Vol.: 45
Chanel 2 Note Off - Duracao: 87240 Nota: C1 Vol.: 54
Chanel 2 Note On - Duracao: 87240 Nota: C1 Vol.: 55
Chanel 5 Note Off - Duracao: 87240 Nota: C1 Vol.: 57
Chanel 5 Note On - Duracao: 87240 Nota: C1 Vol.: 67
Chanel 1 Note Off - Duracao: 87300 Nota: C1 Vol.: 74
Chanel 1 Note On - Duracao: 87300 Nota: C1 Vol.: 75
Chanel 2 Note Off - Duracao: 87360 Nota: C1 Vol.: 55
Chanel 2 Note On - Duracao: 87360 Nota: C1 Vol.: 47
Chanel 9 Note Off - Duracao: 87360 Nota: C1 Vol.: 48
Chanel 9 Note On - Duracao: 87360 Nota: C1 Vol.: 54
Chanel 1 Note Off - Duracao: 87420 Nota: C1 Vol.: 75
Chanel 1 Note On - Duracao: 87420 Nota: C1 Vol.: 80
Chanel 4 Note Off - Duracao: 87420 Nota: C1 Vol.: 66
Chanel 4 Note On - Duracao: 87420 Nota: C1 Vol.: 52
Chanel 5 Note Off - Duracao: 87480 Nota: C1 Vol.: 67
Chanel 5 Note On - Duracao: 87480 Nota: C1 Vol.: 59
Chanel 1 Note Off - Duracao: 87540 Nota: C1 Vol.: 80
Chanel 1 Note On - Duracao: 87540 Nota: C1 Vol.: 93
Chanel 8 Note Off - Duracao: 87540 Nota: C1 Vol.: 62
Chanel 8 Note On - Duracao: 87540 Nota: C1 Vol.: 72
Chanel 2 Note Off - Duracao: 87600 Nota: C1 Vol.: 47
Chanel 2 Note On - Duracao: 87600 Nota: C1 Vol.: 47
Chanel 1 Note Off - Duracao: 87660 Nota: C1 Vol.: 93
Chanel 1 Note On - Duracao: 87660 Nota: C1 Vol.: 91
Chanel 3 Note Off - Duracao: 87660 Nota: C1 Vol.: 45
Chanel 3 Note On - Duracao: 87660 Nota: C1 Vol.: 49
Chanel 1 Note Off - Duracao: 87780 Nota: C1 Vol.: 91
Chanel 1 Note On - Duracao: 87780 Nota: C1 Vol.: 88
Chanel 8 Note Off - Duracao: 87780 Nota: C1 Vol.: 72
Chanel 8 Note On - Duracao: 87780 Nota: C1 Vol.: 75
Chanel 9 Note Off - Duracao: 87840 Nota: C1 Vol.: 54
Chanel 9 Note On - Duracao: 87840 Nota: C1 Vol.: 65
Chanel 1 Note Off - Duracao: 87900 Nota: C1 Vol.: 88
Chanel 1 Note On - Duracao: 87900 Nota: C1 Vol.: 91
Chanel 3 Note Off - Duracao: 87900 Nota: C1 Vol.: 49
Chanel 3 Note On - Duracao: 87900 Nota: C1 Vol.: 44
Chanel 5 Note Off - Duracao: 87960 Nota: C1 Vol.: 59
Chanel 5 Note On - Duracao: 87960 Nota: C1 Vol.: 57
Chanel 1 Note Off - Duracao: 88020 Nota: C1 Vol.: 91
Chanel 1 Note On - Duracao: 88020 Nota: C1 Vol.: 92
Chanel 8 Note Off - Duracao: 88020 Nota: C1 Vol.: 75
Chanel 8 Note On - Duracao: 88020 Nota: C1 Vol.: 78
Chanel 2 Note Off - Duracao: 88080 Nota: C1 Vol.: 47
Chanel 2 Note On - Duracao: 88080 Nota: C1 Vol.: 50
Chanel 1 Note Off - Duracao: 88140 Nota: C1 Vol.: 92
Chanel 1 Note On - Duracao: 88140 Nota: C1 Vol.: 96
Chanel 3 Note Off - Duracao: 88140 Nota: C1 Vol.: 44
Chanel 3 Note On - Duracao: 88140 Nota: C1 Vol.: 47
Chanel 1 Note Off - Duracao: 88200 Nota: C1 Vol.: 96
Chanel 1 Note On - Duracao: 88200 Nota: C1 Vol.: 94
Chanel 3 Note Off - Duracao: 88260 Nota: C1 Vol.: 47
Chanel 3 Note On - Duracao: 88260 Nota: C1 Vol.: 45
Chanel 8 Note Off - Duracao: 88260 Nota: C1 Vol.: 78
Chanel 8 Note On - Duracao: 88260 Nota: C1 Vol.: 79
Chanel 1 Note Off - Duracao: 88320 Nota: C1 Vol.: 94
Chanel 1 Note On - Duracao: 88320 Nota: C1 Vol.: 62
Chanel 2 Note Off - Duracao: 88320 Nota: C1 Vol.: 50
Chanel 2 Note On - Duracao: 88320 Nota: C1 Vol.: 49
Chanel 7 Note Off - Duracao: 88320 Nota: C1 Vol.: 47
Chanel 7 Note On - Duracao: 88320 Nota: C1 Vol.: 54
Chanel 9 Note Off - Duracao: 88320 Nota: C1 Vol.: 65
Chanel 9 Note On - Duracao: 88320 Nota: C1 Vol.: 69
Chanel 3 Note Off - Duracao: 88380 Nota: C1 Vol.: 45
Chanel 3 Note On - Duracao: 88380 Nota: C1 Vol.: 50
Chanel 4 Note Off - Duracao: 88380 Nota: C1 Vol.: 52
Chanel 4 Note On - Duracao: 88380 Nota: C1 Vol.: 55
Chanel 5 Note Off - Duracao: 88440 Nota: C1 Vol.: 57
Chanel 5 Note On - Duracao: 88440 Nota: C1 Vol.: 60
Chanel 3 Note Off - Duracao: 88500 Nota: C1 Vol.: 50
Chanel 3 Note On - Duracao: 88500 Nota: C1 Vol.: 55
Chanel 8 Note Off - Duracao: 88500 Nota: C1 Vol.: 79
Chanel 8 Note On - Duracao: 88500 Nota: C1 Vol.: 80
Chanel 2 Note Off - Duracao: 88560 Nota: C1 Vol.: 49
Chanel 2 Note On - Duracao: 88560 Nota: C1 Vol.: 50
Chanel 3 Note Off - Duracao: 88620 Nota: C1 Vol.: 55
Chanel 3 Note On - Duracao: 88620 Nota: C1 Vol.: 57
Chanel 6 Note Off - Duracao: 88680 Nota: C1 Vol.: 67
Chanel 6 Note On - Duracao: 88680 Nota: C1 Vol.: 65
Chanel 3 Note Off - Duracao: 88740 Nota: C1 Vol.: 57
Chanel 3 Note On - Duracao: 88740 Nota: C1 Vol.: 40
Chanel 8 Note Off - Duracao: 88740 Nota: C1 Vol.: 80
Chanel 8 Note On - Duracao: 88740 Nota: C1 Vol.: 83
Chanel 1 Note Off - Duracao: 88800 Nota: C1 Vol.: 62
Chanel 1 Note On - Duracao: 88800 Nota: C1 Vol.: 40
Chanel 2 Note Off - Duracao: 88800 Nota: C1 Vol.: 50
Chanel 2 Note On - Duracao: 88800 Nota: C1 Vol.: 55
Chanel 9 Note Off - Duracao: 88800 Nota: C1 Vol.: 69
Chanel 9 Note On - Duracao: 88800 Nota: C1 Vol.: 69
Chanel 4 Note Off - Duracao: 88860 Nota: C1 Vol.: 55
Chanel 4 Note On - Duracao: 88860 Nota: C1 Vol.: 55
Chanel 5 Note Off - Duracao: 88920 Nota: C1 Vol.: 60
Chanel 5 Note On - Duracao: 88920 Nota: C1 Vol.: 62
Chanel 8 Note Off - Duracao: 88980 Nota: C1 Vol.: 83
Chanel 8 Note On - Duracao: 88980 Nota: C1 Vol.: 85
Chanel 2 Note Off - Duracao: 89040 Nota: C1 Vol.: 55
Chanel 2 Note On - Duracao: 89040 Nota: C1 Vol.: 62
Chanel 8 Note Off - Duracao: 89100 Nota: C1 Vol.: 85
Chanel 8 Note On - Duracao: 89100 Nota: C1 Vol.: 83
Chanel 5 Note Off - Duracao: 89160 Nota: C1 Vol.: 62
Chanel 5 Note On - Duracao: 89160 Nota: C1 Vol.: 55
Chanel 8 Note Off - Duracao: 89220 Nota: C1 Vol.: 83
Chanel 8 Note On - Duracao: 89220 Nota: C1 Vol.: 79
Chanel 2 Note Off - Duracao: 89280 Nota: C1 Vol.: 62
Chanel 2 Note On - Duracao: 89280 Nota: C1 Vol.: 83
Chanel 7 Note Off - Duracao: 89280 Nota: C1 Vol.: 54
Chanel 7 Note On - Duracao: 89280 Nota: C1 Vol.: 52
Chanel 9 Note Off - Duracao: 89280 Nota: C1 Vol.: 69
Chanel 9 Note On - Duracao: 89280 Nota: C1 Vol.: 81
Chanel 4 Note Off - Duracao: 89340 Nota: C1 Vol.: 55
Chanel 4 Note On - Duracao: 89340 Nota: C1 Vol.: 63
Chanel 2 Note Off - Duracao: 89400 Nota: C1 Vol.: 83
Chanel 2 Note On - Duracao: 89400 Nota: C1 Vol.: 57
Chanel 8 Note Off - Duracao: 89460 Nota: C1 Vol.: 79
Chanel 8 Note On - Duracao: 89460 Nota: C1 Vol.: 88
Chanel 9 Note Off - Duracao: 89520 Nota: C1 Vol.: 81
Chanel 9 Note On - Duracao: 89520 Nota: C1 Vol.: 80
Chanel 8 Note Off - Duracao: 89580 Nota: C1 Vol.: 88
Chanel 8 Note On - Duracao: 89580 Nota: C1 Vol.: 67
Chanel 5 Note Off - Duracao: 89640 Nota: C1 Vol.: 55
Chanel 5 Note On - Duracao: 89640 Nota: C1 Vol.: 40
Chanel 3 Note Off - Duracao: 89700 Nota: C1 Vol.: 40
Chanel 3 Note On - Duracao: 89700 Nota: C1 Vol.: 40
Chanel 9 Note Off - Duracao: 89760 Nota: C1 Vol.: 80
Chanel 9 Note On - Duracao: 89760 Nota: C1 Vol.: 82
Chanel 4 Note Off - Duracao: 89820 Nota: C1 Vol.: 63
Chanel 4 Note On - Duracao: 89820 Nota: C1 Vol.: 57
Chanel 9 Note Off - Duracao: 90000 Nota: C1 Vol.: 82
Chanel 9 Note On - Duracao: 90000 Nota: C1 Vol.: 85
Chanel 8 Note Off - Duracao: 90060 Nota: C1 Vol.: 67
Chanel 8 Note On - Duracao: 90060 Nota: C1 Vol.: 64
Chanel 7 Note Off - Duracao: 90240 Nota: C1 Vol.: 52
Chanel 7 Note On - Duracao: 90240 Nota: C1 Vol.: 59
Chanel 9 Note Off - Duracao: 90240 Nota: C1 Vol.: 85
Chanel 9 Note On - Duracao: 90240 Nota: C1 Vol.: 83
Chanel 4 Note Off - Duracao: 90300 Nota: C1 Vol.: 57
Chanel 4 Note On - Duracao: 90300 Nota: C1 Vol.: 55
Chanel 2 Note Off - Duracao: 90360 Nota: C1 Vol.: 57
Chanel 2 Note On - Duracao: 90360 Nota: C1 Vol.: 46
Chanel 9 Note Off - Duracao: 90480 Nota: C1 Vol.: 83
Chanel 9 Note On - Duracao: 90480 Nota: C1 Vol.: 81
Chanel 1 Note Off - Duracao: 90720 Nota: C1 Vol.: 40
Chanel 1 Note On - Duracao: 90720 Nota: C1 Vol.: 54
Chanel 7 Note Off - Duracao: 90720 Nota: C1 Vol.: 59
Chanel 7 Note On - Duracao: 90720 Nota: C1 Vol.: 63
Chanel 9 Note Off - Duracao: 90720 Nota: C1 Vol.: 81
Chanel 9 Note On - Duracao: 90720 Nota: C1 Vol.: 84
Chanel 4 Note Off - Duracao: 90780 Nota: C1 Vol.: 55
Chanel 4 Note On - Duracao: 90780 Nota: C1 Vol.: 53
Chanel 1 Note Off - Duracao: 90960 Nota: C1 Vol.: 54
Chanel 1 Note On - Duracao: 90960 Nota: C1 Vol.: 48
Chanel 9 Note Off - Duracao: 90960 Nota: C1 Vol.: 84
Chanel 9 Note On - Duracao: 90960 Nota: C1 Vol.: 85
Chanel 8 Note Off - Duracao: 91020 Nota: C1 Vol.: 64
Chanel 8 Note On - Duracao: 91020 Nota: C1 Vol.: 74
Chanel 9 Note Off - Duracao: 91080 Nota: C1 Vol.: 85
Chanel 9 Note On - Duracao: 91080 Nota: C1 Vol.: 73
Chanel 1 Note Off - Duracao: 91200 Nota: C1 Vol.: 48
Chanel 1 Note On - Duracao: 91200 Nota: C1 Vol.: 47
Chanel 7 Note Off - Duracao: 91200 Nota: C1 Vol.: 63
Chanel 7 Note On - Duracao: 91200 Nota: C1 Vol.: 92
Chanel 4 Note Off - Duracao: 91260 Nota: C1 Vol.: 53
Chanel 4 Note On - Duracao: 91260 Nota: C1 Vol.: 54
Chanel 1 Note Off - Duracao: 91320 Nota: C1 Vol.: 47
Chanel 1 Note On - Duracao: 91320 Nota: C1 Vol.: 44
Chanel 7 Note Off - Duracao: 91320 Nota: C1 Vol.: 92
Chanel 7 Note On - Duracao: 91320 Nota: C1 Vol.: 78
Chanel 9 Note Off - Duracao: 91320 Nota: C1 Vol.: 73
Chanel 9 Note On - Duracao: 91320 Nota: C1 Vol.: 61
Chanel 1 Note Off - Duracao: 91440 Nota: C1 Vol.: 44
Chanel 1 Note On - Duracao: 91440 Nota: C1 Vol.: 43
Chanel 8 Note Off - Duracao: 91500 Nota: C1 Vol.: 74
Chanel 8 Note On - Duracao: 91500 Nota: C1 Vol.: 77
Chanel 1 Note Off - Duracao: 91560 Nota: C1 Vol.: 43
Chanel 1 Note On - Duracao: 91560 Nota: C1 Vol.: 47
Chanel 5 Note Off - Duracao: 91560 Nota: C1 Vol.: 40
Chanel 5 Note On - Duracao: 91560 Nota: C1 Vol.: 94
Chanel 7 Note Off - Duracao: 91560 Nota: C1 Vol.: 78
Chanel 7 Note On - Duracao: 91560 Nota: C1 Vol.: 94
Chanel 3 Note Off - Duracao: 91620 Nota: C1 Vol.: 40
Chanel 3 Note On - Duracao: 91620 Nota: C1 Vol.: 40
Chanel 5 Note Off - Duracao: 91620 Nota: C1 Vol.: 94
Chanel 5 Note On - Duracao: 91620 Nota: C1 Vol.: 95
Chanel 1 Note Off - Duracao: 91680 Nota: C1 Vol.: 47
Chanel 1 Note On - Duracao: 91680 Nota: C1 Vol.: 44
Chanel 5 Note Off - Duracao: 91680 Nota: C1 Vol.: 95
Chanel 5 Note On - Duracao: 91680 Nota: C1 Vol.: 95
Chanel 7 Note Off - Duracao: 91680 Nota: C1 Vol.: 94
Chanel 7 Note On - Duracao: 91680 Nota: C1 Vol.: 87
Chanel 4 Note Off - Duracao: 91740 Nota: C1 Vol.: 54
Chanel 4 Note On - Duracao: 91740 Nota: C1 Vol.: 56
Chanel 5 Note Off - Duracao: 91740 Nota: C1 Vol.: 95
Chanel 5 Note On - Duracao: 91740 Nota: C1 Vol.: 90
Chanel 1 Note Off - Duracao: 91800 Nota: C1 Vol.: 44
Chanel 1 Note On - Duracao: 91800 Nota: C1 Vol.: 43
Chanel 7 Note Off - Duracao: 91800 Nota: C1 Vol.: 87
Chanel 7 Note On - Duracao: 91800 Nota: C1 Vol.: 80
Chanel 5 Note Off - Duracao: 91860 Nota: C1 Vol.: 90
Chanel 5 Note On - Duracao: 91860 Nota: C1 Vol.: 87
Chanel 1 Note Off - Duracao: 91920 Nota: C1 Vol.: 43
Chanel 1 Note On - Duracao: 91920 Nota: C1 Vol.: 40
Chanel 5 Note Off - Duracao: 91980 Nota: C1 Vol.: 87
Chanel 5 Note On - Duracao: 91980 Nota: C1 Vol.: 75
Chanel 1 Note Off - Duracao: 92040 Nota: C1 Vol.: 40
Chanel 1 Note On - Duracao: 92040 Nota: C1 Vol.: 40
Chanel 7 Note Off - Duracao: 92040 Nota: C1 Vol.: 80
Chanel 7 Note On - Duracao: 92040 Nota: C1 Vol.: 87
Chanel 1 Note Off - Duracao: 92160 Nota: C1 Vol.: 40
Chanel 1 Note On - Duracao: 92160 Nota: C1 Vol.: 45
Chanel 7 Note Off - Duracao: 92160 Nota: C1 Vol.: 87
Chanel 7 Note On - Duracao: 92160 Nota: C1 Vol.: 80
Chanel 4 Note Off - Duracao: 92220 Nota: C1 Vol.: 56
Chanel 4 Note On - Duracao: 92220 Nota: C1 Vol.: 68
Chanel 5 Note Off - Duracao: 92220 Nota: C1 Vol.: 75
Chanel 5 Note On - Duracao: 92220 Nota: C1 Vol.: 63
Chanel 1 Note Off - Duracao: 92280 Nota: C1 Vol.: 45
Chanel 1 Note On - Duracao: 92280 Nota: C1 Vol.: 46
Chanel 2 Note Off - Duracao: 92280 Nota: C1 Vol.: 46
Chanel 2 Note On - Duracao: 92280 Nota: C1 Vol.: 46
Chanel 9 Note Off - Duracao: 92280 Nota: C1 Vol.: 61
Chanel 9 Note On - Duracao: 92280 Nota: C1 Vol.: 55
Chanel 1 Note Off - Duracao: 92400 Nota: C1 Vol.: 46
Chanel 1 Note On - Duracao: 92400 Nota: C1 Vol.: 49
Chanel 7 Note Off - Duracao: 92400 Nota: C1 Vol.: 80
Chanel 7 Note On - Duracao: 92400 Nota: C1 Vol.: 81
Chanel 4 Note Off - Duracao: 92460 Nota: C1 Vol.: 68
Chanel 4 Note On - Duracao: 92460 Nota: C1 Vol.: 61
Chanel 8 Note Off - Duracao: 92460 Nota: C1 Vol.: 77
Chanel 8 Note On - Duracao: 92460 Nota: C1 Vol.: 77
Chanel 1 Note Off - Duracao: 92520 Nota: C1 Vol.: 49
Chanel 1 Note On - Duracao: 92520 Nota: C1 Vol.: 48
Chanel 6 Note Off - Duracao: 92520 Nota: C1 Vol.: 65
Chanel 6 Note On - Duracao: 92520 Nota: C1 Vol.: 61
Chanel 1 Note Off - Duracao: 92640 Nota: C1 Vol.: 48
Chanel 1 Note On - Duracao: 92640 Nota: C1 Vol.: 55
Chanel 7 Note Off - Duracao: 92640 Nota: C1 Vol.: 81
Chanel 7 Note On - Duracao: 92640 Nota: C1 Vol.: 93
Chanel 5 Note Off - Duracao: 92700 Nota: C1 Vol.: 63
Chanel 5 Note On - Duracao: 92700 Nota: C1 Vol.: 64
Chanel 1 Note Off - Duracao: 92760 Nota: C1 Vol.: 55
Chanel 1 Note On - Duracao: 92760 Nota: C1 Vol.: 48
Chanel 7 Note Off - Duracao: 92760 Nota: C1 Vol.: 93
Chanel 7 Note On - Duracao: 92760 Nota: C1 Vol.: 94
Chanel 7 Note Off - Duracao: 92820 Nota: C1 Vol.: 94
Chanel 7 Note On - Duracao: 92820 Nota: C1 Vol.: 75
Chanel 4 Note Off - Duracao: 92940 Nota: C1 Vol.: 61
Chanel 4 Note On - Duracao: 92940 Nota: C1 Vol.: 49
Chanel 1 Note Off - Duracao: 93000 Nota: C1 Vol.: 48
Chanel 1 Note On - Duracao: 93000 Nota: C1 Vol.: 40
Chanel 7 Note Off - Duracao: 93060 Nota: C1 Vol.: 75
Chanel 7 Note On - Duracao: 93060 Nota: C1 Vol.: 66
Chanel 9 Note Off - Duracao: 93240 Nota: C1 Vol.: 55
Chanel 9 Note On - Duracao: 93240 Nota: C1 Vol.: 55
Chanel 8 Note Off - Duracao: 93420 Nota: C1 Vol.: 77
Chanel 8 Note On - Duracao: 93420 Nota: C1 Vol.: 72
Chanel 7 Note Off - Duracao: 93540 Nota: C1 Vol.: 66
Chanel 7 Note On - Duracao: 93540 Nota: C1 Vol.: 83
Chanel 5 Note Off - Duracao: 93660 Nota: C1 Vol.: 64
Chanel 5 Note On - Duracao: 93660 Nota: C1 Vol.: 89
Chanel 7 Note Off - Duracao: 93660 Nota: C1 Vol.: 83
Chanel 7 Note On - Duracao: 93660 Nota: C1 Vol.: 84
Chanel 7 Note Off - Duracao: 93780 Nota: C1 Vol.: 84
Chanel 7 Note On - Duracao: 93780 Nota: C1 Vol.: 58
Chanel 4 Note Off - Duracao: 93900 Nota: C1 Vol.: 49
Chanel 4 Note On - Duracao: 93900 Nota: C1 Vol.: 47
Chanel 5 Note Off - Duracao: 93900 Nota: C1 Vol.: 89
Chanel 5 Note On - Duracao: 93900 Nota: C1 Vol.: 54
Chanel 2 Note Off - Duracao: 94200 Nota: C1 Vol.: 46
Chanel 2 Note On - Duracao: 94200 Nota: C1 Vol.: 56
Chanel 9 Note Off - Duracao: 94200 Nota: C1 Vol.: 55
Chanel 9 Note On - Duracao: 94200 Nota: C1 Vol.: 49
Chanel 8 Note Off - Duracao: 94380 Nota: C1 Vol.: 72
Chanel 8 Note On - Duracao: 94380 Nota: C1 Vol.: 67
Chanel 7 Note Off - Duracao: 94740 Nota: C1 Vol.: 58
Chanel 7 Note On - Duracao: 94740 Nota: C1 Vol.: 51
Chanel 4 Note Off - Duracao: 94860 Nota: C1 Vol.: 47
Chanel 4 Note On - Duracao: 94860 Nota: C1 Vol.: 41
Chanel 1 Note Off - Duracao: 94920 Nota: C1 Vol.: 40
Chanel 1 Note On - Duracao: 94920 Nota: C1 Vol.: 70
Chanel 1 Note Off - Duracao: 95160 Nota: C1 Vol.: 70
Chanel 1 Note On - Duracao: 95160 Nota: C1 Vol.: 98
Chanel 2 Note Off - Duracao: 95160 Nota: C1 Vol.: 56
Chanel 2 Note On - Duracao: 95160 Nota: C1 Vol.: 75
Chanel 9 Note Off - Duracao: 95160 Nota: C1 Vol.: 49
Chanel 9 Note On - Duracao: 95160 Nota: C1 Vol.: 48
Chanel 1 Note Off - Duracao: 95220 Nota: C1 Vol.: 98
Chanel 1 Note On - Duracao: 95220 Nota: C1 Vol.: 96
Chanel 1 Note Off - Duracao: 95340 Nota: C1 Vol.: 96
Chanel 1 Note On - Duracao: 95340 Nota: C1 Vol.: 93
Chanel 8 Note Off - Duracao: 95340 Nota: C1 Vol.: 67
Chanel 8 Note On - Duracao: 95340 Nota: C1 Vol.: 69
Chanel 2 Note Off - Duracao: 95400 Nota: C1 Vol.: 75
Chanel 2 Note On - Duracao: 95400 Nota: C1 Vol.: 51
Chanel 1 Note Off - Duracao: 95460 Nota: C1 Vol.: 93
Chanel 1 Note On - Duracao: 95460 Nota: C1 Vol.: 89
Chanel 3 Note Off - Duracao: 95460 Nota: C1 Vol.: 40
Chanel 3 Note On - Duracao: 95460 Nota: C1 Vol.: 40
Chanel 1 Note Off - Duracao: 95580 Nota: C1 Vol.: 89
Chanel 1 Note On - Duracao: 95580 Nota: C1 Vol.: 82
Chanel 7 Note Off - Duracao: 95700 Nota: C1 Vol.: 51
Chanel 7 Note On - Duracao: 95700 Nota: C1 Vol.: 50
Chanel 1 Note Off - Duracao: 95820 Nota: C1 Vol.: 82
Chanel 1 Note On - Duracao: 95820 Nota: C1 Vol.: 81
Chanel 5 Note Off - Duracao: 95820 Nota: C1 Vol.: 54
Chanel 5 Note On - Duracao: 95820 Nota: C1 Vol.: 44
Chanel 8 Note Off - Duracao: 95820 Nota: C1 Vol.: 69
Chanel 8 Note On - Duracao: 95820 Nota: C1 Vol.: 81
Chanel 1 Note Off - Duracao: 96060 Nota: C1 Vol.: 81
Chanel 1 Note On - Duracao: 96060 Nota: C1 Vol.: 88
Chanel 8 Note Off - Duracao: 96060 Nota: C1 Vol.: 81
Chanel 8 Note On - Duracao: 96060 Nota: C1 Vol.: 85
Chanel 1 Note Off - Duracao: 96180 Nota: C1 Vol.: 88
Chanel 1 Note On - Duracao: 96180 Nota: C1 Vol.: 88
Chanel 1 Note Off - Duracao: 96300 Nota: C1 Vol.: 88
Chanel 1 Note On - Duracao: 96300 Nota: C1 Vol.: 88
Chanel 8 Note Off - Duracao: 96300 Nota: C1 Vol.: 85
Chanel 8 Note On - Duracao: 96300 Nota: C1 Vol.: 73
Chanel 6 Note Off - Duracao: 96360 Nota: C1 Vol.: 61
Chanel 6 Note On - Duracao: 96360 Nota: C1 Vol.: 59
Chanel 1 Note Off - Duracao: 96420 Nota: C1 Vol.: 88
Chanel 1 Note On - Duracao: 96420 Nota: C1 Vol.: 95
Chanel 1 Note Off - Duracao: 96540 Nota: C1 Vol.: 95
Chanel 1 Note On - Duracao: 96540 Nota: C1 Vol.: 92
Chanel 1 Note Off - Duracao: 96660 Nota: C1 Vol.: 92
Chanel 1 Note On - Duracao: 96660 Nota: C1 Vol.: 91
Chanel 1 Note Off - Duracao: 96780 Nota: C1 Vol.: 91
Chanel 1 Note On - Duracao: 96780 Nota: C1 Vol.: 87
Chanel 4 Note Off - Duracao: 96780 Nota: C1 Vol.: 41
Chanel 4 Note On - Duracao: 96780 Nota: C1 Vol.: 64
Chanel 8 Note Off - Duracao: 96780 Nota: C1 Vol.: 73
Chanel 8 Note On - Duracao: 96780 Nota: C1 Vol.: 75
Chanel 1 Note Off - Duracao: 96900 Nota: C1 Vol.: 87
Chanel 1 Note On - Duracao: 96900 Nota: C1 Vol.: 84
Chanel 9 Note Off - Duracao: 97080 Nota: C1 Vol.: 48
Chanel 9 Note On - Duracao: 97080 Nota: C1 Vol.: 50
Chanel 1 Note Off - Duracao: 97140 Nota: C1 Vol.: 84
Chanel 1 Note On - Duracao: 97140 Nota: C1 Vol.: 92
Chanel 1 Note Off - Duracao: 97260 Nota: C1 Vol.: 92
Chanel 1 Note On - Duracao: 97260 Nota: C1 Vol.: 71
Chanel 4 Note Off - Duracao: 97260 Nota: C1 Vol.: 64
Chanel 4 Note On - Duracao: 97260 Nota: C1 Vol.: 63
Chanel 2 Note Off - Duracao: 97320 Nota: C1 Vol.: 51
Chanel 2 Note On - Duracao: 97320 Nota: C1 Vol.: 56
Chanel 3 Note Off - Duracao: 97380 Nota: C1 Vol.: 40
Chanel 3 Note On - Duracao: 97380 Nota: C1 Vol.: 40
Chanel 1 Note Off - Duracao: 97500 Nota: C1 Vol.: 71
Chanel 1 Note On - Duracao: 97500 Nota: C1 Vol.: 74
Chanel 4 Note Off - Duracao: 97500 Nota: C1 Vol.: 63
Chanel 4 Note On - Duracao: 97500 Nota: C1 Vol.: 60
Chanel 1 Note Off - Duracao: 97620 Nota: C1 Vol.: 74
Chanel 1 Note On - Duracao: 97620 Nota: C1 Vol.: 74
Chanel 7 Note Off - Duracao: 97620 Nota: C1 Vol.: 50
Chanel 7 Note On - Duracao: 97620 Nota: C1 Vol.: 59
Chanel 1 Note Off - Duracao: 97740 Nota: C1 Vol.: 74
Chanel 1 Note On - Duracao: 97740 Nota: C1 Vol.: 78
Chanel 4 Note Off - Duracao: 97740 Nota: C1 Vol.: 60
Chanel 4 Note On - Duracao: 97740 Nota: C1 Vol.: 56
Chanel 5 Note Off - Duracao: 97740 Nota: C1 Vol.: 44
Chanel 5 Note On - Duracao: 97740 Nota: C1 Vol.: 52
Chanel 8 Note Off - Duracao: 97740 Nota: C1 Vol.: 75
Chanel 8 Note On - Duracao: 97740 Nota: C1 Vol.: 79
Chanel 1 Note Off - Duracao: 97860 Nota: C1 Vol.: 78
Chanel 1 Note On - Duracao: 97860 Nota: C1 Vol.: 71
Chanel 4 Note Off - Duracao: 97980 Nota: C1 Vol.: 56
Chanel 4 Note On - Duracao: 97980 Nota: C1 Vol.: 56
Chanel 9 Note Off - Duracao: 98040 Nota: C1 Vol.: 50
Chanel 9 Note On - Duracao: 98040 Nota: C1 Vol.: 54
Chanel 1 Note Off - Duracao: 98100 Nota: C1 Vol.: 71
Chanel 1 Note On - Duracao: 98100 Nota: C1 Vol.: 90
Chanel 1 Note Off - Duracao: 98220 Nota: C1 Vol.: 90
Chanel 1 Note On - Duracao: 98220 Nota: C1 Vol.: 88
Chanel 4 Note Off - Duracao: 98220 Nota: C1 Vol.: 56
Chanel 4 Note On - Duracao: 98220 Nota: C1 Vol.: 58
Chanel 1 Note Off - Duracao: 98340 Nota: C1 Vol.: 88
Chanel 1 Note On - Duracao: 98340 Nota: C1 Vol.: 87
Chanel 1 Note Off - Duracao: 98460 Nota: C1 Vol.: 87
Chanel 1 Note On - Duracao: 98460 Nota: C1 Vol.: 97
Chanel 4 Note Off - Duracao: 98460 Nota: C1 Vol.: 58
Chanel 4 Note On - Duracao: 98460 Nota: C1 Vol.: 60
Chanel 1 Note Off - Duracao: 98520 Nota: C1 Vol.: 97
Chanel 1 Note On - Duracao: 98520 Nota: C1 Vol.: 96
Chanel 1 Note Off - Duracao: 98580 Nota: C1 Vol.: 96
Chanel 1 Note On - Duracao: 98580 Nota: C1 Vol.: 95
Chanel 7 Note Off - Duracao: 98580 Nota: C1 Vol.: 59
Chanel 7 Note On - Duracao: 98580 Nota: C1 Vol.: 64
Chanel 1 Note Off - Duracao: 98700 Nota: C1 Vol.: 95
Chanel 1 Note On - Duracao: 98700 Nota: C1 Vol.: 95
Chanel 5 Note Off - Duracao: 98700 Nota: C1 Vol.: 52
Chanel 5 Note On - Duracao: 98700 Nota: C1 Vol.: 61
Chanel 8 Note Off - Duracao: 98700 Nota: C1 Vol.: 79
Chanel 8 Note On - Duracao: 98700 Nota: C1 Vol.: 80
Chanel 1 Note Off - Duracao: 98820 Nota: C1 Vol.: 95
Chanel 1 Note On - Duracao: 98820 Nota: C1 Vol.: 96
Chanel 1 Note Off - Duracao: 98940 Nota: C1 Vol.: 96
Chanel 1 Note On - Duracao: 98940 Nota: C1 Vol.: 96
Chanel 4 Note Off - Duracao: 98940 Nota: C1 Vol.: 60
Chanel 4 Note On - Duracao: 98940 Nota: C1 Vol.: 66
Chanel 9 Note Off - Duracao: 99000 Nota: C1 Vol.: 54
Chanel 9 Note On - Duracao: 99000 Nota: C1 Vol.: 49
Chanel 1 Note Off - Duracao: 99060 Nota: C1 Vol.: 96
Chanel 1 Note On - Duracao: 99060 Nota: C1 Vol.: 96
Chanel 1 Note Off - Duracao: 99180 Nota: C1 Vol.: 96
Chanel 1 Note On - Duracao: 99180 Nota: C1 Vol.: 99
Chanel 4 Note Off - Duracao: 99180 Nota: C1 Vol.: 66
Chanel 4 Note On - Duracao: 99180 Nota: C1 Vol.: 50
Chanel 5 Note Off - Duracao: 99180 Nota: C1 Vol.: 61
Chanel 5 Note On - Duracao: 99180 Nota: C1 Vol.: 61
Chanel 1 Note Off - Duracao: 99240 Nota: C1 Vol.: 99
Chanel 1 Note On - Duracao: 99240 Nota: C1 Vol.: 97
Chanel 2 Note Off - Duracao: 99240 Nota: C1 Vol.: 56
Chanel 2 Note On - Duracao: 99240 Nota: C1 Vol.: 56
Chanel 3 Note Off - Duracao: 99300 Nota: C1 Vol.: 40
Chanel 3 Note On - Duracao: 99300 Nota: C1 Vol.: 43
Chanel 1 Note Off - Duracao: 99360 Nota: C1 Vol.: 97
Chanel 1 Note On - Duracao: 99360 Nota: C1 Vol.: 99
Chanel 1 Note Off - Duracao: 99420 Nota: C1 Vol.: 99
Chanel 1 Note On - Duracao: 99420 Nota: C1 Vol.: 98
Chanel 5 Note Off - Duracao: 99420 Nota: C1 Vol.: 61
Chanel 5 Note On - Duracao: 99420 Nota: C1 Vol.: 58
Chanel 1 Note Off - Duracao: 99540 Nota: C1 Vol.: 98
Chanel 1 Note On - Duracao: 99540 Nota: C1 Vol.: 100
Chanel 7 Note Off - Duracao: 99540 Nota: C1 Vol.: 64
Chanel 7 Note On - Duracao: 99540 Nota: C1 Vol.: 76
Chanel 1 Note Off - Duracao: 99600 Nota: C1 Vol.: 100
Chanel 1 Note On - Duracao: 99600 Nota: C1 Vol.: 100
Chanel 1 Note Off - Duracao: 99660 Nota: C1 Vol.: 100
Chanel 1 Note On - Duracao: 99660 Nota: C1 Vol.: 97
Chanel 5 Note Off - Duracao: 99660 Nota: C1 Vol.: 58
Chanel 5 Note On - Duracao: 99660 Nota: C1 Vol.: 57
Chanel 8 Note Off - Duracao: 99660 Nota: C1 Vol.: 80
Chanel 8 Note On - Duracao: 99660 Nota: C1 Vol.: 75
Chanel 1 Note Off - Duracao: 99780 Nota: C1 Vol.: 97
Chanel 1 Note On - Duracao: 99780 Nota: C1 Vol.: 100
Chanel 1 Note Off - Duracao: 99840 Nota: C1 Vol.: 100
Chanel 1 Note On - Duracao: 99840 Nota: C1 Vol.: 98
Chanel 1 Note Off - Duracao: 99900 Nota: C1 Vol.: 98
Chanel 1 Note On - Duracao: 99900 Nota: C1 Vol.: 98
Chanel 5 Note Off - Duracao: 99900 Nota: C1 Vol.: 57
Chanel 5 Note On - Duracao: 99900 Nota: C1 Vol.: 67
Chanel 1 Note Off - Duracao: 99960 Nota: C1 Vol.: 98
Chanel 1 Note On - Duracao: 99960 Nota: C1 Vol.: 96
Chanel 9 Note Off - Duracao: 99960 Nota: C1 Vol.: 49
Chanel 9 Note On - Duracao: 99960 Nota: C1 Vol.: 52
Chanel 1 Note Off - Duracao: 100020 Nota: C1 Vol.: 96
Chanel 1 Note On - Duracao: 100020 Nota: C1 Vol.: 96
Chanel 7 Note Off - Duracao: 100020 Nota: C1 Vol.: 76
Chanel 7 Note On - Duracao: 100020 Nota: C1 Vol.: 80
Chanel 1 Note Off - Duracao: 100080 Nota: C1 Vol.: 96
Chanel 1 Note On - Duracao: 100080 Nota: C1 Vol.: 92
Chanel 4 Note Off - Duracao: 100140 Nota: C1 Vol.: 50
Chanel 4 Note On - Duracao: 100140 Nota: C1 Vol.: 40
Chanel 5 Note Off - Duracao: 100140 Nota: C1 Vol.: 67
Chanel 5 Note On - Duracao: 100140 Nota: C1 Vol.: 67
Chanel 1 Note Off - Duracao: 100200 Nota: C1 Vol.: 92
Chanel 1 Note On - Duracao: 100200 Nota: C1 Vol.: 98
Chanel 6 Note Off - Duracao: 100200 Nota: C1 Vol.: 59
Chanel 6 Note On - Duracao: 100200 Nota: C1 Vol.: 60
Chanel 3 Note Off - Duracao: 100260 Nota: C1 Vol.: 43
Chanel 3 Note On - Duracao: 100260 Nota: C1 Vol.: 51
Chanel 7 Note Off - Duracao: 100260 Nota: C1 Vol.: 80
Chanel 7 Note On - Duracao: 100260 Nota: C1 Vol.: 79
Chanel 1 Note Off - Duracao: 100320 Nota: C1 Vol.: 98
Chanel 1 Note On - Duracao: 100320 Nota: C1 Vol.: 98
Chanel 5 Note Off - Duracao: 100380 Nota: C1 Vol.: 67
Chanel 5 Note On - Duracao: 100380 Nota: C1 Vol.: 69
Chanel 1 Note Off - Duracao: 100440 Nota: C1 Vol.: 98
Chanel 1 Note On - Duracao: 100440 Nota: C1 Vol.: 98
Chanel 1 Note Off - Duracao: 100500 Nota: C1 Vol.: 98
Chanel 1 Note On - Duracao: 100500 Nota: C1 Vol.: 95
Chanel 7 Note Off - Duracao: 100500 Nota: C1 Vol.: 79
Chanel 7 Note On - Duracao: 100500 Nota: C1 Vol.: 71
Chanel 1 Note Off - Duracao: 100560 Nota: C1 Vol.: 95
Chanel 1 Note On - Duracao: 100560 Nota: C1 Vol.: 93
Chanel 1 Note Off - Duracao: 100620 Nota: C1 Vol.: 93
Chanel 1 Note On - Duracao: 100620 Nota: C1 Vol.: 79
Chanel 5 Note Off - Duracao: 100620 Nota: C1 Vol.: 69
Chanel 5 Note On - Duracao: 100620 Nota: C1 Vol.: 54
Chanel 8 Note Off - Duracao: 100620 Nota: C1 Vol.: 75
Chanel 8 Note On - Duracao: 100620 Nota: C1 Vol.: 65
Chanel 1 Note Off - Duracao: 100740 Nota: C1 Vol.: 79
Chanel 1 Note On - Duracao: 100740 Nota: C1 Vol.: 68
Chanel 1 Note Off - Duracao: 100860 Nota: C1 Vol.: 68
Chanel 1 Note On - Duracao: 100860 Nota: C1 Vol.: 71
Chanel 9 Note Off - Duracao: 100920 Nota: C1 Vol.: 52
Chanel 9 Note On - Duracao: 100920 Nota: C1 Vol.: 67
Chanel 1 Note Off - Duracao: 100980 Nota: C1 Vol.: 71
Chanel 1 Note On - Duracao: 100980 Nota: C1 Vol.: 72
Chanel 7 Note Off - Duracao: 100980 Nota: C1 Vol.: 71
Chanel 7 Note On - Duracao: 100980 Nota: C1 Vol.: 59
Chanel 1 Note Off - Duracao: 101100 Nota: C1 Vol.: 72
Chanel 1 Note On - Duracao: 101100 Nota: C1 Vol.: 71
Chanel 5 Note Off - Duracao: 101100 Nota: C1 Vol.: 54
Chanel 5 Note On - Duracao: 101100 Nota: C1 Vol.: 47
Chanel 2 Note Off - Duracao: 101160 Nota: C1 Vol.: 56
Chanel 2 Note On - Duracao: 101160 Nota: C1 Vol.: 59
Chanel 9 Note Off - Duracao: 101160 Nota: C1 Vol.: 67
Chanel 9 Note On - Duracao: 101160 Nota: C1 Vol.: 66
Chanel 1 Note Off - Duracao: 101220 Nota: C1 Vol.: 71
Chanel 1 Note On - Duracao: 101220 Nota: C1 Vol.: 69
Chanel 3 Note Off - Duracao: 101220 Nota: C1 Vol.: 51
Chanel 3 Note On - Duracao: 101220 Nota: C1 Vol.: 67
Chanel 1 Note Off - Duracao: 101340 Nota: C1 Vol.: 69
Chanel 1 Note On - Duracao: 101340 Nota: C1 Vol.: 70
Chanel 9 Note Off - Duracao: 101400 Nota: C1 Vol.: 66
Chanel 9 Note On - Duracao: 101400 Nota: C1 Vol.: 59
Chanel 1 Note Off - Duracao: 101460 Nota: C1 Vol.: 70
Chanel 1 Note On - Duracao: 101460 Nota: C1 Vol.: 58
Chanel 3 Note Off - Duracao: 101460 Nota: C1 Vol.: 67
Chanel 3 Note On - Duracao: 101460 Nota: C1 Vol.: 69
Chanel 8 Note Off - Duracao: 101580 Nota: C1 Vol.: 65
Chanel 8 Note On - Duracao: 101580 Nota: C1 Vol.: 55
Chanel 9 Note Off - Duracao: 101640 Nota: C1 Vol.: 59
Chanel 9 Note On - Duracao: 101640 Nota: C1 Vol.: 51
Chanel 1 Note Off - Duracao: 101700 Nota: C1 Vol.: 58
Chanel 1 Note On - Duracao: 101700 Nota: C1 Vol.: 71
Chanel 3 Note Off - Duracao: 101700 Nota: C1 Vol.: 69
Chanel 3 Note On - Duracao: 101700 Nota: C1 Vol.: 58
Chanel 1 Note Off - Duracao: 101820 Nota: C1 Vol.: 71
Chanel 1 Note On - Duracao: 101820 Nota: C1 Vol.: 57
Chanel 7 Note Off - Duracao: 101940 Nota: C1 Vol.: 59
Chanel 7 Note On - Duracao: 101940 Nota: C1 Vol.: 72
Chanel 4 Note Off - Duracao: 102060 Nota: C1 Vol.: 40
Chanel 4 Note On - Duracao: 102060 Nota: C1 Vol.: 64
Chanel 5 Note Off - Duracao: 102060 Nota: C1 Vol.: 47
Chanel 5 Note On - Duracao: 102060 Nota: C1 Vol.: 66
Chanel 2 Note Off - Duracao: 102120 Nota: C1 Vol.: 59
Chanel 2 Note On - Duracao: 102120 Nota: C1 Vol.: 88
Chanel 3 Note Off - Duracao: 102180 Nota: C1 Vol.: 58
Chanel 3 Note On - Duracao: 102180 Nota: C1 Vol.: 86
Chanel 2 Note Off - Duracao: 102240 Nota: C1 Vol.: 88
Chanel 2 Note On - Duracao: 102240 Nota: C1 Vol.: 75
Chanel 1 Note Off - Duracao: 102300 Nota: C1 Vol.: 57
Chanel 1 Note On - Duracao: 102300 Nota: C1 Vol.: 59
Chanel 4 Note Off - Duracao: 102300 Nota: C1 Vol.: 64
Chanel 4 Note On - Duracao: 102300 Nota: C1 Vol.: 61
Chanel 5 Note Off - Duracao: 102300 Nota: C1 Vol.: 66
Chanel 5 Note On - Duracao: 102300 Nota: C1 Vol.: 68
Chanel 2 Note Off - Duracao: 102360 Nota: C1 Vol.: 75
Chanel 2 Note On - Duracao: 102360 Nota: C1 Vol.: 53
Chanel 3 Note Off - Duracao: 102420 Nota: C1 Vol.: 86
Chanel 3 Note On - Duracao: 102420 Nota: C1 Vol.: 74
Chanel 7 Note Off - Duracao: 102420 Nota: C1 Vol.: 72
Chanel 7 Note On - Duracao: 102420 Nota: C1 Vol.: 68
Chanel 2 Note Off - Duracao: 102480 Nota: C1 Vol.: 53
Chanel 2 Note On - Duracao: 102480 Nota: C1 Vol.: 49
Chanel 5 Note Off - Duracao: 102540 Nota: C1 Vol.: 68
Chanel 5 Note On - Duracao: 102540 Nota: C1 Vol.: 63
Chanel 8 Note Off - Duracao: 102540 Nota: C1 Vol.: 55
Chanel 8 Note On - Duracao: 102540 Nota: C1 Vol.: 57
Chanel 2 Note Off - Duracao: 102600 Nota: C1 Vol.: 49
Chanel 2 Note On - Duracao: 102600 Nota: C1 Vol.: 48
Chanel 9 Note Off - Duracao: 102600 Nota: C1 Vol.: 51
Chanel 9 Note On - Duracao: 102600 Nota: C1 Vol.: 58
Chanel 2 Note Off - Duracao: 102720 Nota: C1 Vol.: 48
Chanel 2 Note On - Duracao: 102720 Nota: C1 Vol.: 44
Chanel 1 Note Off - Duracao: 102780 Nota: C1 Vol.: 59
Chanel 1 Note On - Duracao: 102780 Nota: C1 Vol.: 68
Chanel 4 Note Off - Duracao: 102780 Nota: C1 Vol.: 61
Chanel 4 Note On - Duracao: 102780 Nota: C1 Vol.: 41
Chanel 5 Note Off - Duracao: 102780 Nota: C1 Vol.: 63
Chanel 5 Note On - Duracao: 102780 Nota: C1 Vol.: 60
Chanel 8 Note Off - Duracao: 102780 Nota: C1 Vol.: 57
Chanel 8 Note On - Duracao: 102780 Nota: C1 Vol.: 55
Chanel 2 Note Off - Duracao: 102840 Nota: C1 Vol.: 44
Chanel 2 Note On - Duracao: 102840 Nota: C1 Vol.: 44
Chanel 3 Note Off - Duracao: 102900 Nota: C1 Vol.: 74
Chanel 3 Note On - Duracao: 102900 Nota: C1 Vol.: 67
Chanel 7 Note Off - Duracao: 102900 Nota: C1 Vol.: 68
Chanel 7 Note On - Duracao: 102900 Nota: C1 Vol.: 69
Chanel 8 Note Off - Duracao: 102900 Nota: C1 Vol.: 55
Chanel 8 Note On - Duracao: 102900 Nota: C1 Vol.: 52
Chanel 2 Note Off - Duracao: 102960 Nota: C1 Vol.: 44
Chanel 2 Note On - Duracao: 102960 Nota: C1 Vol.: 44
Chanel 1 Note Off - Duracao: 103020 Nota: C1 Vol.: 68
Chanel 1 Note On - Duracao: 103020 Nota: C1 Vol.: 90
Chanel 2 Note Off - Duracao: 103080 Nota: C1 Vol.: 44
Chanel 2 Note On - Duracao: 103080 Nota: C1 Vol.: 42
Chanel 9 Note Off - Duracao: 103080 Nota: C1 Vol.: 58
Chanel 9 Note On - Duracao: 103080 Nota: C1 Vol.: 60
Chanel 1 Note Off - Duracao: 103140 Nota: C1 Vol.: 90
Chanel 1 Note On - Duracao: 103140 Nota: C1 Vol.: 93
Chanel 7 Note Off - Duracao: 103140 Nota: C1 Vol.: 69
Chanel 7 Note On - Duracao: 103140 Nota: C1 Vol.: 67
Chanel 8 Note Off - Duracao: 103140 Nota: C1 Vol.: 52
Chanel 8 Note On - Duracao: 103140 Nota: C1 Vol.: 53
Chanel 2 Note Off - Duracao: 103200 Nota: C1 Vol.: 42
Chanel 2 Note On - Duracao: 103200 Nota: C1 Vol.: 41
Chanel 1 Note Off - Duracao: 103260 Nota: C1 Vol.: 93
Chanel 1 Note On - Duracao: 103260 Nota: C1 Vol.: 89
Chanel 5 Note Off - Duracao: 103260 Nota: C1 Vol.: 60
Chanel 5 Note On - Duracao: 103260 Nota: C1 Vol.: 59
Chanel 2 Note Off - Duracao: 103320 Nota: C1 Vol.: 41
Chanel 2 Note On - Duracao: 103320 Nota: C1 Vol.: 42
Chanel 1 Note Off - Duracao: 103380 Nota: C1 Vol.: 89
Chanel 1 Note On - Duracao: 103380 Nota: C1 Vol.: 72
Chanel 3 Note Off - Duracao: 103380 Nota: C1 Vol.: 67
Chanel 3 Note On - Duracao: 103380 Nota: C1 Vol.: 71
Chanel 7 Note Off - Duracao: 103380 Nota: C1 Vol.: 67
Chanel 7 Note On - Duracao: 103380 Nota: C1 Vol.: 59
Chanel 8 Note Off - Duracao: 103380 Nota: C1 Vol.: 53
Chanel 8 Note On - Duracao: 103380 Nota: C1 Vol.: 52
Chanel 2 Note Off - Duracao: 103440 Nota: C1 Vol.: 42
Chanel 2 Note On - Duracao: 103440 Nota: C1 Vol.: 45
Chanel 2 Note Off - Duracao: 103560 Nota: C1 Vol.: 45
Chanel 2 Note On - Duracao: 103560 Nota: C1 Vol.: 51
Chanel 9 Note Off - Duracao: 103560 Nota: C1 Vol.: 60
Chanel 9 Note On - Duracao: 103560 Nota: C1 Vol.: 60
Chanel 1 Note Off - Duracao: 103620 Nota: C1 Vol.: 72
Chanel 1 Note On - Duracao: 103620 Nota: C1 Vol.: 65
Chanel 7 Note Off - Duracao: 103620 Nota: C1 Vol.: 59
Chanel 7 Note On - Duracao: 103620 Nota: C1 Vol.: 62
Chanel 8 Note Off - Duracao: 103620 Nota: C1 Vol.: 52
Chanel 8 Note On - Duracao: 103620 Nota: C1 Vol.: 48
Chanel 2 Note Off - Duracao: 103680 Nota: C1 Vol.: 51
Chanel 2 Note On - Duracao: 103680 Nota: C1 Vol.: 56
Chanel 5 Note Off - Duracao: 103740 Nota: C1 Vol.: 59
Chanel 5 Note On - Duracao: 103740 Nota: C1 Vol.: 59
Chanel 2 Note Off - Duracao: 103800 Nota: C1 Vol.: 56
Chanel 2 Note On - Duracao: 103800 Nota: C1 Vol.: 40
Chanel 1 Note Off - Duracao: 103860 Nota: C1 Vol.: 65
Chanel 1 Note On - Duracao: 103860 Nota: C1 Vol.: 63
Chanel 3 Note Off - Duracao: 103860 Nota: C1 Vol.: 71
Chanel 3 Note On - Duracao: 103860 Nota: C1 Vol.: 79
Chanel 7 Note Off - Duracao: 103860 Nota: C1 Vol.: 62
Chanel 7 Note On - Duracao: 103860 Nota: C1 Vol.: 67
Chanel 8 Note Off - Duracao: 103860 Nota: C1 Vol.: 48
Chanel 8 Note On - Duracao: 103860 Nota: C1 Vol.: 45
Chanel 7 Note Off - Duracao: 103980 Nota: C1 Vol.: 67
Chanel 7 Note On - Duracao: 103980 Nota: C1 Vol.: 80
Chanel 6 Note Off - Duracao: 104040 Nota: C1 Vol.: 60
Chanel 6 Note On - Duracao: 104040 Nota: C1 Vol.: 61
Chanel 9 Note Off - Duracao: 104040 Nota: C1 Vol.: 60
Chanel 9 Note On - Duracao: 104040 Nota: C1 Vol.: 69
Chanel 1 Note Off - Duracao: 104100 Nota: C1 Vol.: 63
Chanel 1 Note On - Duracao: 104100 Nota: C1 Vol.: 63
Chanel 3 Note Off - Duracao: 104100 Nota: C1 Vol.: 79
Chanel 3 Note On - Duracao: 104100 Nota: C1 Vol.: 83
Chanel 7 Note Off - Duracao: 104100 Nota: C1 Vol.: 80
Chanel 7 Note On - Duracao: 104100 Nota: C1 Vol.: 68
Chanel 5 Note Off - Duracao: 104220 Nota: C1 Vol.: 59
Chanel 5 Note On - Duracao: 104220 Nota: C1 Vol.: 63
Chanel 9 Note Off - Duracao: 104280 Nota: C1 Vol.: 69
Chanel 9 Note On - Duracao: 104280 Nota: C1 Vol.: 74
Chanel 1 Note Off - Duracao: 104340 Nota: C1 Vol.: 63
Chanel 1 Note On - Duracao: 104340 Nota: C1 Vol.: 66
Chanel 3 Note Off - Duracao: 104340 Nota: C1 Vol.: 83
Chanel 3 Note On - Duracao: 104340 Nota: C1 Vol.: 82
Chanel 7 Note Off - Duracao: 104340 Nota: C1 Vol.: 68
Chanel 7 Note On - Duracao: 104340 Nota: C1 Vol.: 71
Chanel 8 Note Off - Duracao: 104340 Nota: C1 Vol.: 45
Chanel 8 Note On - Duracao: 104340 Nota: C1 Vol.: 45
Chanel 9 Note Off - Duracao: 104400 Nota: C1 Vol.: 74
Chanel 9 Note On - Duracao: 104400 Nota: C1 Vol.: 83
Chanel 5 Note Off - Duracao: 104460 Nota: C1 Vol.: 63
Chanel 5 Note On - Duracao: 104460 Nota: C1 Vol.: 69
Chanel 9 Note Off - Duracao: 104520 Nota: C1 Vol.: 83
Chanel 9 Note On - Duracao: 104520 Nota: C1 Vol.: 72
Chanel 1 Note Off - Duracao: 104580 Nota: C1 Vol.: 66
Chanel 1 Note On - Duracao: 104580 Nota: C1 Vol.: 67
Chanel 3 Note Off - Duracao: 104580 Nota: C1 Vol.: 82
Chanel 3 Note On - Duracao: 104580 Nota: C1 Vol.: 83
Chanel 7 Note Off - Duracao: 104580 Nota: C1 Vol.: 71
Chanel 7 Note On - Duracao: 104580 Nota: C1 Vol.: 80
Chanel 5 Note Off - Duracao: 104700 Nota: C1 Vol.: 69
Chanel 5 Note On - Duracao: 104700 Nota: C1 Vol.: 72
Chanel 7 Note Off - Duracao: 104700 Nota: C1 Vol.: 80
Chanel 7 Note On - Duracao: 104700 Nota: C1 Vol.: 58
Chanel 9 Note Off - Duracao: 104760 Nota: C1 Vol.: 72
Chanel 9 Note On - Duracao: 104760 Nota: C1 Vol.: 64
Chanel 1 Note Off - Duracao: 104820 Nota: C1 Vol.: 67
Chanel 1 Note On - Duracao: 104820 Nota: C1 Vol.: 70
Chanel 3 Note Off - Duracao: 104820 Nota: C1 Vol.: 83
Chanel 3 Note On - Duracao: 104820 Nota: C1 Vol.: 79
Chanel 5 Note Off - Duracao: 104820 Nota: C1 Vol.: 72
Chanel 5 Note On - Duracao: 104820 Nota: C1 Vol.: 67
Chanel 8 Note Off - Duracao: 104820 Nota: C1 Vol.: 45
Chanel 8 Note On - Duracao: 104820 Nota: C1 Vol.: 40
Chanel 1 Note Off - Duracao: 105060 Nota: C1 Vol.: 70
Chanel 1 Note On - Duracao: 105060 Nota: C1 Vol.: 77
Chanel 3 Note Off - Duracao: 105060 Nota: C1 Vol.: 79
Chanel 3 Note On - Duracao: 105060 Nota: C1 Vol.: 84
Chanel 5 Note Off - Duracao: 105060 Nota: C1 Vol.: 67
Chanel 5 Note On - Duracao: 105060 Nota: C1 Vol.: 55
Chanel 1 Note Off - Duracao: 105180 Nota: C1 Vol.: 77
Chanel 1 Note On - Duracao: 105180 Nota: C1 Vol.: 79
Chanel 7 Note Off - Duracao: 105180 Nota: C1 Vol.: 58
Chanel 7 Note On - Duracao: 105180 Nota: C1 Vol.: 57
Chanel 9 Note Off - Duracao: 105240 Nota: C1 Vol.: 64
Chanel 9 Note On - Duracao: 105240 Nota: C1 Vol.: 44
Chanel 1 Note Off - Duracao: 105300 Nota: C1 Vol.: 79
Chanel 1 Note On - Duracao: 105300 Nota: C1 Vol.: 86
Chanel 3 Note Off - Duracao: 105300 Nota: C1 Vol.: 84
Chanel 3 Note On - Duracao: 105300 Nota: C1 Vol.: 96
Chanel 3 Note Off - Duracao: 105360 Nota: C1 Vol.: 96
Chanel 3 Note On - Duracao: 105360 Nota: C1 Vol.: 97
Chanel 1 Note Off - Duracao: 105420 Nota: C1 Vol.: 86
Chanel 1 Note On - Duracao: 105420 Nota: C1 Vol.: 94
Chanel 3 Note Off - Duracao: 105420 Nota: C1 Vol.: 97
Chanel 3 Note On - Duracao: 105420 Nota: C1 Vol.: 83
Chanel 7 Note Off - Duracao: 105420 Nota: C1 Vol.: 57
Chanel 7 Note On - Duracao: 105420 Nota: C1 Vol.: 64
Chanel 1 Note Off - Duracao: 105540 Nota: C1 Vol.: 94
Chanel 1 Note On - Duracao: 105540 Nota: C1 Vol.: 99
Chanel 5 Note Off - Duracao: 105540 Nota: C1 Vol.: 55
Chanel 5 Note On - Duracao: 105540 Nota: C1 Vol.: 61
Chanel 1 Note Off - Duracao: 105600 Nota: C1 Vol.: 99
Chanel 1 Note On - Duracao: 105600 Nota: C1 Vol.: 93
Chanel 3 Note Off - Duracao: 105660 Nota: C1 Vol.: 83
Chanel 3 Note On - Duracao: 105660 Nota: C1 Vol.: 72
Chanel 7 Note Off - Duracao: 105660 Nota: C1 Vol.: 64
Chanel 7 Note On - Duracao: 105660 Nota: C1 Vol.: 68
Chanel 1 Note Off - Duracao: 105720 Nota: C1 Vol.: 93
Chanel 1 Note On - Duracao: 105720 Nota: C1 Vol.: 94
Chanel 2 Note Off - Duracao: 105720 Nota: C1 Vol.: 40
Chanel 2 Note On - Duracao: 105720 Nota: C1 Vol.: 67
Chanel 7 Note Off - Duracao: 105780 Nota: C1 Vol.: 68
Chanel 7 Note On - Duracao: 105780 Nota: C1 Vol.: 68
Chanel 8 Note Off - Duracao: 105780 Nota: C1 Vol.: 40
Chanel 8 Note On - Duracao: 105780 Nota: C1 Vol.: 62
Chanel 1 Note Off - Duracao: 105840 Nota: C1 Vol.: 94
Chanel 1 Note On - Duracao: 105840 Nota: C1 Vol.: 95
Chanel 1 Note Off - Duracao: 105900 Nota: C1 Vol.: 95
Chanel 1 Note On - Duracao: 105900 Nota: C1 Vol.: 94
Chanel 1 Note Off - Duracao: 105960 Nota: C1 Vol.: 94
Chanel 1 Note On - Duracao: 105960 Nota: C1 Vol.: 71
Chanel 2 Note Off - Duracao: 105960 Nota: C1 Vol.: 67
Chanel 2 Note On - Duracao: 105960 Nota: C1 Vol.: 80
Chanel 5 Note Off - Duracao: 106020 Nota: C1 Vol.: 61
Chanel 5 Note On - Duracao: 106020 Nota: C1 Vol.: 65
Chanel 7 Note Off - Duracao: 106020 Nota: C1 Vol.: 68
Chanel 7 Note On - Duracao: 106020 Nota: C1 Vol.: 48
Chanel 8 Note Off - Duracao: 106020 Nota: C1 Vol.: 62
Chanel 8 Note On - Duracao: 106020 Nota: C1 Vol.: 59
Chanel 2 Note Off - Duracao: 106080 Nota: C1 Vol.: 80
Chanel 2 Note On - Duracao: 106080 Nota: C1 Vol.: 65
Chanel 3 Note Off - Duracao: 106140 Nota: C1 Vol.: 72
Chanel 3 Note On - Duracao: 106140 Nota: C1 Vol.: 76
Chanel 1 Note Off - Duracao: 106200 Nota: C1 Vol.: 71
Chanel 1 Note On - Duracao: 106200 Nota: C1 Vol.: 40
Chanel 8 Note Off - Duracao: 106260 Nota: C1 Vol.: 59
Chanel 8 Note On - Duracao: 106260 Nota: C1 Vol.: 55
Chanel 3 Note Off - Duracao: 106380 Nota: C1 Vol.: 76
Chanel 3 Note On - Duracao: 106380 Nota: C1 Vol.: 78
Chanel 5 Note Off - Duracao: 106500 Nota: C1 Vol.: 65
Chanel 5 Note On - Duracao: 106500 Nota: C1 Vol.: 52
Chanel 8 Note Off - Duracao: 106500 Nota: C1 Vol.: 55
Chanel 8 Note On - Duracao: 106500 Nota: C1 Vol.: 55
Chanel 2 Note Off - Duracao: 106560 Nota: C1 Vol.: 65
Chanel 2 Note On - Duracao: 106560 Nota: C1 Vol.: 64
Chanel 3 Note Off - Duracao: 106620 Nota: C1 Vol.: 78
Chanel 3 Note On - Duracao: 106620 Nota: C1 Vol.: 75
Chanel 4 Note Off - Duracao: 106620 Nota: C1 Vol.: 41
Chanel 4 Note On - Duracao: 106620 Nota: C1 Vol.: 70
Chanel 3 Note Off - Duracao: 106860 Nota: C1 Vol.: 75
Chanel 3 Note On - Duracao: 106860 Nota: C1 Vol.: 74
Chanel 7 Note Off - Duracao: 106980 Nota: C1 Vol.: 48
Chanel 7 Note On - Duracao: 106980 Nota: C1 Vol.: 43
Chanel 8 Note Off - Duracao: 106980 Nota: C1 Vol.: 55
Chanel 8 Note On - Duracao: 106980 Nota: C1 Vol.: 55
Chanel 2 Note Off - Duracao: 107040 Nota: C1 Vol.: 64
Chanel 2 Note On - Duracao: 107040 Nota: C1 Vol.: 67
Chanel 3 Note Off - Duracao: 107100 Nota: C1 Vol.: 74
Chanel 3 Note On - Duracao: 107100 Nota: C1 Vol.: 76
Chanel 4 Note Off - Duracao: 107100 Nota: C1 Vol.: 70
Chanel 4 Note On - Duracao: 107100 Nota: C1 Vol.: 80
Chanel 9 Note Off - Duracao: 107160 Nota: C1 Vol.: 44
Chanel 9 Note On - Duracao: 107160 Nota: C1 Vol.: 52
Chanel 3 Note Off - Duracao: 107340 Nota: C1 Vol.: 76
Chanel 3 Note On - Duracao: 107340 Nota: C1 Vol.: 75
Chanel 4 Note Off - Duracao: 107340 Nota: C1 Vol.: 80
Chanel 4 Note On - Duracao: 107340 Nota: C1 Vol.: 78
Chanel 5 Note Off - Duracao: 107460 Nota: C1 Vol.: 52
Chanel 5 Note On - Duracao: 107460 Nota: C1 Vol.: 47
Chanel 8 Note Off - Duracao: 107460 Nota: C1 Vol.: 55
Chanel 8 Note On - Duracao: 107460 Nota: C1 Vol.: 51
Chanel 2 Note Off - Duracao: 107520 Nota: C1 Vol.: 67
Chanel 2 Note On - Duracao: 107520 Nota: C1 Vol.: 71
Chanel 3 Note Off - Duracao: 107580 Nota: C1 Vol.: 75
Chanel 3 Note On - Duracao: 107580 Nota: C1 Vol.: 68
Chanel 4 Note Off - Duracao: 107580 Nota: C1 Vol.: 78
Chanel 4 Note On - Duracao: 107580 Nota: C1 Vol.: 90
Chanel 4 Note Off - Duracao: 107700 Nota: C1 Vol.: 90
Chanel 4 Note On - Duracao: 107700 Nota: C1 Vol.: 90
Chanel 3 Note Off - Duracao: 107820 Nota: C1 Vol.: 68
Chanel 3 Note On - Duracao: 107820 Nota: C1 Vol.: 68
Chanel 4 Note Off - Duracao: 107820 Nota: C1 Vol.: 90
Chanel 4 Note On - Duracao: 107820 Nota: C1 Vol.: 59
Chanel 6 Note Off - Duracao: 107880 Nota: C1 Vol.: 61
Chanel 6 Note On - Duracao: 107880 Nota: C1 Vol.: 63
Chanel 7 Note Off - Duracao: 107940 Nota: C1 Vol.: 43
Chanel 7 Note On - Duracao: 107940 Nota: C1 Vol.: 40
Chanel 8 Note Off - Duracao: 107940 Nota: C1 Vol.: 51
Chanel 8 Note On - Duracao: 107940 Nota: C1 Vol.: 47
Chanel 2 Note Off - Duracao: 108000 Nota: C1 Vol.: 71
Chanel 2 Note On - Duracao: 108000 Nota: C1 Vol.: 69
Chanel 3 Note Off - Duracao: 108060 Nota: C1 Vol.: 68
Chanel 3 Note On - Duracao: 108060 Nota: C1 Vol.: 72
Chanel 1 Note Off - Duracao: 108120 Nota: C1 Vol.: 40
Chanel 1 Note On - Duracao: 108120 Nota: C1 Vol.: 58
Chanel 9 Note Off - Duracao: 108120 Nota: C1 Vol.: 52
Chanel 9 Note On - Duracao: 108120 Nota: C1 Vol.: 62
Chanel 3 Note Off - Duracao: 108300 Nota: C1 Vol.: 72
Chanel 3 Note On - Duracao: 108300 Nota: C1 Vol.: 49
Chanel 1 Note Off - Duracao: 108360 Nota: C1 Vol.: 58
Chanel 1 Note On - Duracao: 108360 Nota: C1 Vol.: 49
Chanel 8 Note Off - Duracao: 108420 Nota: C1 Vol.: 47
Chanel 8 Note On - Duracao: 108420 Nota: C1 Vol.: 47
Chanel 2 Note Off - Duracao: 108480 Nota: C1 Vol.: 69
Chanel 2 Note On - Duracao: 108480 Nota: C1 Vol.: 60
Chanel 1 Note Off - Duracao: 108600 Nota: C1 Vol.: 49
Chanel 1 Note On - Duracao: 108600 Nota: C1 Vol.: 46
Chanel 9 Note Off - Duracao: 108600 Nota: C1 Vol.: 62
Chanel 9 Note On - Duracao: 108600 Nota: C1 Vol.: 58
Chanel 4 Note Off - Duracao: 108780 Nota: C1 Vol.: 59
Chanel 4 Note On - Duracao: 108780 Nota: C1 Vol.: 46
Chanel 1 Note Off - Duracao: 108840 Nota: C1 Vol.: 46
Chanel 1 Note On - Duracao: 108840 Nota: C1 Vol.: 48
Chanel 8 Note Off - Duracao: 108900 Nota: C1 Vol.: 47
Chanel 8 Note On - Duracao: 108900 Nota: C1 Vol.: 44
Chanel 1 Note Off - Duracao: 108960 Nota: C1 Vol.: 48
Chanel 1 Note On - Duracao: 108960 Nota: C1 Vol.: 45
Chanel 1 Note Off - Duracao: 109080 Nota: C1 Vol.: 45
Chanel 1 Note On - Duracao: 109080 Nota: C1 Vol.: 45
Chanel 9 Note Off - Duracao: 109080 Nota: C1 Vol.: 58
Chanel 9 Note On - Duracao: 109080 Nota: C1 Vol.: 61
Chanel 1 Note Off - Duracao: 109200 Nota: C1 Vol.: 45
Chanel 1 Note On - Duracao: 109200 Nota: C1 Vol.: 49
Chanel 3 Note Off - Duracao: 109260 Nota: C1 Vol.: 49
Chanel 3 Note On - Duracao: 109260 Nota: C1 Vol.: 48
Chanel 1 Note Off - Duracao: 109320 Nota: C1 Vol.: 49
Chanel 1 Note On - Duracao: 109320 Nota: C1 Vol.: 52
Chanel 5 Note Off - Duracao: 109380 Nota: C1 Vol.: 47
Chanel 5 Note On - Duracao: 109380 Nota: C1 Vol.: 43
Chanel 1 Note Off - Duracao: 109440 Nota: C1 Vol.: 52
Chanel 1 Note On - Duracao: 109440 Nota: C1 Vol.: 49
Chanel 2 Note Off - Duracao: 109440 Nota: C1 Vol.: 60
Chanel 2 Note On - Duracao: 109440 Nota: C1 Vol.: 67
Chanel 1 Note Off - Duracao: 109560 Nota: C1 Vol.: 49
Chanel 1 Note On - Duracao: 109560 Nota: C1 Vol.: 47
Chanel 9 Note Off - Duracao: 109560 Nota: C1 Vol.: 61
Chanel 9 Note On - Duracao: 109560 Nota: C1 Vol.: 60
Chanel 1 Note Off - Duracao: 109680 Nota: C1 Vol.: 47
Chanel 1 Note On - Duracao: 109680 Nota: C1 Vol.: 44
Chanel 1 Note Off - Duracao: 109800 Nota: C1 Vol.: 44
Chanel 1 Note On - Duracao: 109800 Nota: C1 Vol.: 43
Chanel 7 Note Off - Duracao: 109860 Nota: C1 Vol.: 40
Chanel 7 Note On - Duracao: 109860 Nota: C1 Vol.: 40
Chanel 8 Note Off - Duracao: 109860 Nota: C1 Vol.: 44
Chanel 8 Note On - Duracao: 109860 Nota: C1 Vol.: 45
Chanel 1 Note Off - Duracao: 109920 Nota: C1 Vol.: 43
Chanel 1 Note On - Duracao: 109920 Nota: C1 Vol.: 45
Chanel 2 Note Off - Duracao: 109920 Nota: C1 Vol.: 67
Chanel 2 Note On - Duracao: 109920 Nota: C1 Vol.: 64
Chanel 1 Note Off - Duracao: 110040 Nota: C1 Vol.: 45
Chanel 1 Note On - Duracao: 110040 Nota: C1 Vol.: 42
Chanel 9 Note Off - Duracao: 110040 Nota: C1 Vol.: 60
Chanel 9 Note On - Duracao: 110040 Nota: C1 Vol.: 60
Chanel 1 Note Off - Duracao: 110160 Nota: C1 Vol.: 42
Chanel 1 Note On - Duracao: 110160 Nota: C1 Vol.: 40
Chanel 3 Note Off - Duracao: 110220 Nota: C1 Vol.: 48
Chanel 3 Note On - Duracao: 110220 Nota: C1 Vol.: 50
Chanel 1 Note Off - Duracao: 110280 Nota: C1 Vol.: 40
Chanel 1 Note On - Duracao: 110280 Nota: C1 Vol.: 43
Chanel 1 Note Off - Duracao: 110400 Nota: C1 Vol.: 43
Chanel 1 Note On - Duracao: 110400 Nota: C1 Vol.: 52
Chanel 2 Note Off - Duracao: 110400 Nota: C1 Vol.: 64
Chanel 2 Note On - Duracao: 110400 Nota: C1 Vol.: 63
Chanel 1 Note Off - Duracao: 110520 Nota: C1 Vol.: 52
Chanel 1 Note On - Duracao: 110520 Nota: C1 Vol.: 54
Chanel 9 Note Off - Duracao: 110520 Nota: C1 Vol.: 60
Chanel 9 Note On - Duracao: 110520 Nota: C1 Vol.: 57
Chanel 1 Note Off - Duracao: 110760 Nota: C1 Vol.: 54
Chanel 1 Note On - Duracao: 110760 Nota: C1 Vol.: 40
Chanel 8 Note Off - Duracao: 110820 Nota: C1 Vol.: 45
Chanel 8 Note On - Duracao: 110820 Nota: C1 Vol.: 44
Chanel 2 Note Off - Duracao: 110880 Nota: C1 Vol.: 63
Chanel 2 Note On - Duracao: 110880 Nota: C1 Vol.: 69
Chanel 9 Note Off - Duracao: 111000 Nota: C1 Vol.: 57
Chanel 9 Note On - Duracao: 111000 Nota: C1 Vol.: 58
Chanel 2 Note Off - Duracao: 111120 Nota: C1 Vol.: 69
Chanel 2 Note On - Duracao: 111120 Nota: C1 Vol.: 74
Chanel 3 Note Off - Duracao: 111180 Nota: C1 Vol.: 50
Chanel 3 Note On - Duracao: 111180 Nota: C1 Vol.: 52
Chanel 2 Note Off - Duracao: 111240 Nota: C1 Vol.: 74
Chanel 2 Note On - Duracao: 111240 Nota: C1 Vol.: 62
Chanel 5 Note Off - Duracao: 111300 Nota: C1 Vol.: 43
Chanel 5 Note On - Duracao: 111300 Nota: C1 Vol.: 70
Chanel 9 Note Off - Duracao: 111480 Nota: C1 Vol.: 58
Chanel 9 Note On - Duracao: 111480 Nota: C1 Vol.: 61
Chanel 2 Note Off - Duracao: 111720 Nota: C1 Vol.: 62
Chanel 2 Note On - Duracao: 111720 Nota: C1 Vol.: 52
Chanel 6 Note Off - Duracao: 111720 Nota: C1 Vol.: 63
Chanel 6 Note On - Duracao: 111720 Nota: C1 Vol.: 63
Chanel 5 Note Off - Duracao: 111780 Nota: C1 Vol.: 70
Chanel 5 Note On - Duracao: 111780 Nota: C1 Vol.: 86
Chanel 7 Note Off - Duracao: 111780 Nota: C1 Vol.: 40
Chanel 7 Note On - Duracao: 111780 Nota: C1 Vol.: 40
Chanel 8 Note Off - Duracao: 111780 Nota: C1 Vol.: 44
Chanel 8 Note On - Duracao: 111780 Nota: C1 Vol.: 49
Chanel 5 Note Off - Duracao: 111900 Nota: C1 Vol.: 86
Chanel 5 Note On - Duracao: 111900 Nota: C1 Vol.: 64
Chanel 9 Note Off - Duracao: 111960 Nota: C1 Vol.: 61
Chanel 9 Note On - Duracao: 111960 Nota: C1 Vol.: 58
Chanel 3 Note Off - Duracao: 112140 Nota: C1 Vol.: 52
Chanel 3 Note On - Duracao: 112140 Nota: C1 Vol.: 55
Chanel 8 Note Off - Duracao: 112260 Nota: C1 Vol.: 49
Chanel 8 Note On - Duracao: 112260 Nota: C1 Vol.: 58
Chanel 9 Note Off - Duracao: 112440 Nota: C1 Vol.: 58
Chanel 9 Note On - Duracao: 112440 Nota: C1 Vol.: 62
Chanel 8 Note Off - Duracao: 112500 Nota: C1 Vol.: 58
Chanel 8 Note On - Duracao: 112500 Nota: C1 Vol.: 44
Chanel 4 Note Off - Duracao: 112620 Nota: C1 Vol.: 46
Chanel 4 Note On - Duracao: 112620 Nota: C1 Vol.: 58
Chanel 1 Note Off - Duracao: 112680 Nota: C1 Vol.: 40
Chanel 1 Note On - Duracao: 112680 Nota: C1 Vol.: 65
Chanel 2 Note Off - Duracao: 112680 Nota: C1 Vol.: 52
Chanel 2 Note On - Duracao: 112680 Nota: C1 Vol.: 95
Chanel 2 Note Off - Duracao: 112800 Nota: C1 Vol.: 95
Chanel 2 Note On - Duracao: 112800 Nota: C1 Vol.: 84
Chanel 5 Note Off - Duracao: 112860 Nota: C1 Vol.: 64
Chanel 5 Note On - Duracao: 112860 Nota: C1 Vol.: 55
Chanel 9 Note Off - Duracao: 112920 Nota: C1 Vol.: 62
Chanel 9 Note On - Duracao: 112920 Nota: C1 Vol.: 61
Chanel 8 Note Off - Duracao: 112980 Nota: C1 Vol.: 44
Chanel 8 Note On - Duracao: 112980 Nota: C1 Vol.: 60
Chanel 2 Note Off - Duracao: 113040 Nota: C1 Vol.: 84
Chanel 2 Note On - Duracao: 113040 Nota: C1 Vol.: 75
Chanel 3 Note Off - Duracao: 113100 Nota: C1 Vol.: 55
Chanel 3 Note On - Duracao: 113100 Nota: C1 Vol.: 59
Chanel 1 Note Off - Duracao: 113160 Nota: C1 Vol.: 65
Chanel 1 Note On - Duracao: 113160 Nota: C1 Vol.: 96
Chanel 1 Note Off - Duracao: 113220 Nota: C1 Vol.: 96
Chanel 1 Note On - Duracao: 113220 Nota: C1 Vol.: 97
Chanel 8 Note Off - Duracao: 113220 Nota: C1 Vol.: 60
Chanel 8 Note On - Duracao: 113220 Nota: C1 Vol.: 60
Chanel 1 Note Off - Duracao: 113280 Nota: C1 Vol.: 97
Chanel 1 Note On - Duracao: 113280 Nota: C1 Vol.: 80
Chanel 8 Note Off - Duracao: 113340 Nota: C1 Vol.: 60
Chanel 8 Note On - Duracao: 113340 Nota: C1 Vol.: 64
Chanel 9 Note Off - Duracao: 113400 Nota: C1 Vol.: 61
Chanel 9 Note On - Duracao: 113400 Nota: C1 Vol.: 65
Chanel 8 Note Off - Duracao: 113460 Nota: C1 Vol.: 64
Chanel 8 Note On - Duracao: 113460 Nota: C1 Vol.: 67
Chanel 1 Note Off - Duracao: 113520 Nota: C1 Vol.: 80
Chanel 1 Note On - Duracao: 113520 Nota: C1 Vol.: 80
Chanel 2 Note Off - Duracao: 113520 Nota: C1 Vol.: 75
Chanel 2 Note On - Duracao: 113520 Nota: C1 Vol.: 76
Chanel 3 Note Off - Duracao: 113580 Nota: C1 Vol.: 59
Chanel 3 Note On - Duracao: 113580 Nota: C1 Vol.: 67
Chanel 8 Note Off - Duracao: 113580 Nota: C1 Vol.: 67
Chanel 8 Note On - Duracao: 113580 Nota: C1 Vol.: 64
Chanel 7 Note Off - Duracao: 113700 Nota: C1 Vol.: 40
Chanel 7 Note On - Duracao: 113700 Nota: C1 Vol.: 59
Chanel 8 Note Off - Duracao: 113700 Nota: C1 Vol.: 64
Chanel 8 Note On - Duracao: 113700 Nota: C1 Vol.: 62
Chanel 1 Note Off - Duracao: 113760 Nota: C1 Vol.: 80
Chanel 1 Note On - Duracao: 113760 Nota: C1 Vol.: 86
Chanel 3 Note Off - Duracao: 113820 Nota: C1 Vol.: 67
Chanel 3 Note On - Duracao: 113820 Nota: C1 Vol.: 52
Chanel 5 Note Off - Duracao: 113820 Nota: C1 Vol.: 55
Chanel 5 Note On - Duracao: 113820 Nota: C1 Vol.: 86
Chanel 1 Note Off - Duracao: 113880 Nota: C1 Vol.: 86
Chanel 1 Note On - Duracao: 113880 Nota: C1 Vol.: 81
Chanel 9 Note Off - Duracao: 113880 Nota: C1 Vol.: 65
Chanel 9 Note On - Duracao: 113880 Nota: C1 Vol.: 53
Chanel 5 Note Off - Duracao: 113940 Nota: C1 Vol.: 86
Chanel 5 Note On - Duracao: 113940 Nota: C1 Vol.: 85
Chanel 7 Note Off - Duracao: 113940 Nota: C1 Vol.: 59
Chanel 7 Note On - Duracao: 113940 Nota: C1 Vol.: 60
Chanel 8 Note Off - Duracao: 113940 Nota: C1 Vol.: 62
Chanel 8 Note On - Duracao: 113940 Nota: C1 Vol.: 52
Chanel 2 Note Off - Duracao: 114000 Nota: C1 Vol.: 76
Chanel 2 Note On - Duracao: 114000 Nota: C1 Vol.: 79
Chanel 5 Note Off - Duracao: 114060 Nota: C1 Vol.: 85
Chanel 5 Note On - Duracao: 114060 Nota: C1 Vol.: 87
Chanel 1 Note Off - Duracao: 114120 Nota: C1 Vol.: 81
Chanel 1 Note On - Duracao: 114120 Nota: C1 Vol.: 90
Chanel 5 Note Off - Duracao: 114180 Nota: C1 Vol.: 87
Chanel 5 Note On - Duracao: 114180 Nota: C1 Vol.: 88
Chanel 7 Note Off - Duracao: 114180 Nota: C1 Vol.: 60
Chanel 7 Note On - Duracao: 114180 Nota: C1 Vol.: 65
Chanel 1 Note Off - Duracao: 114240 Nota: C1 Vol.: 90
Chanel 1 Note On - Duracao: 114240 Nota: C1 Vol.: 81
Chanel 2 Note Off - Duracao: 114240 Nota: C1 Vol.: 79
Chanel 2 Note On - Duracao: 114240 Nota: C1 Vol.: 74
Chanel 5 Note Off - Duracao: 114300 Nota: C1 Vol.: 88
Chanel 5 Note On - Duracao: 114300 Nota: C1 Vol.: 86
Chanel 5 Note Off - Duracao: 114420 Nota: C1 Vol.: 86
Chanel 5 Note On - Duracao: 114420 Nota: C1 Vol.: 65
Chanel 7 Note Off - Duracao: 114420 Nota: C1 Vol.: 65
Chanel 7 Note On - Duracao: 114420 Nota: C1 Vol.: 48
Chanel 8 Note Off - Duracao: 114420 Nota: C1 Vol.: 52
Chanel 8 Note On - Duracao: 114420 Nota: C1 Vol.: 56
Chanel 1 Note Off - Duracao: 114480 Nota: C1 Vol.: 81
Chanel 1 Note On - Duracao: 114480 Nota: C1 Vol.: 91
Chanel 4 Note Off - Duracao: 114540 Nota: C1 Vol.: 58
Chanel 4 Note On - Duracao: 114540 Nota: C1 Vol.: 63
Chanel 1 Note Off - Duracao: 114600 Nota: C1 Vol.: 91
Chanel 1 Note On - Duracao: 114600 Nota: C1 Vol.: 82
Chanel 8 Note Off - Duracao: 114660 Nota: C1 Vol.: 56
Chanel 8 Note On - Duracao: 114660 Nota: C1 Vol.: 60
Chanel 2 Note Off - Duracao: 114720 Nota: C1 Vol.: 74
Chanel 2 Note On - Duracao: 114720 Nota: C1 Vol.: 83
Chanel 3 Note Off - Duracao: 114780 Nota: C1 Vol.: 52
Chanel 3 Note On - Duracao: 114780 Nota: C1 Vol.: 59
Chanel 1 Note Off - Duracao: 114840 Nota: C1 Vol.: 82
Chanel 1 Note On - Duracao: 114840 Nota: C1 Vol.: 77
Chanel 9 Note Off - Duracao: 114840 Nota: C1 Vol.: 53
Chanel 9 Note On - Duracao: 114840 Nota: C1 Vol.: 51
Chanel 5 Note Off - Duracao: 114900 Nota: C1 Vol.: 65
Chanel 5 Note On - Duracao: 114900 Nota: C1 Vol.: 46
Chanel 8 Note Off - Duracao: 114900 Nota: C1 Vol.: 60
Chanel 8 Note On - Duracao: 114900 Nota: C1 Vol.: 65
Chanel 2 Note Off - Duracao: 114960 Nota: C1 Vol.: 83
Chanel 2 Note On - Duracao: 114960 Nota: C1 Vol.: 84
Chanel 8 Note Off - Duracao: 115140 Nota: C1 Vol.: 65
Chanel 8 Note On - Duracao: 115140 Nota: C1 Vol.: 66
Chanel 2 Note Off - Duracao: 115200 Nota: C1 Vol.: 84
Chanel 2 Note On - Duracao: 115200 Nota: C1 Vol.: 82
Chanel 3 Note Off - Duracao: 115260 Nota: C1 Vol.: 59
Chanel 3 Note On - Duracao: 115260 Nota: C1 Vol.: 59
Chanel 1 Note Off - Duracao: 115320 Nota: C1 Vol.: 77
Chanel 1 Note On - Duracao: 115320 Nota: C1 Vol.: 76
Chanel 7 Note Off - Duracao: 115380 Nota: C1 Vol.: 48
Chanel 7 Note On - Duracao: 115380 Nota: C1 Vol.: 44
Chanel 8 Note Off - Duracao: 115380 Nota: C1 Vol.: 66
Chanel 8 Note On - Duracao: 115380 Nota: C1 Vol.: 50
Chanel 2 Note Off - Duracao: 115440 Nota: C1 Vol.: 82
Chanel 2 Note On - Duracao: 115440 Nota: C1 Vol.: 82
Chanel 4 Note Off - Duracao: 115500 Nota: C1 Vol.: 63
Chanel 4 Note On - Duracao: 115500 Nota: C1 Vol.: 65
Chanel 6 Note Off - Duracao: 115560 Nota: C1 Vol.: 63
Chanel 6 Note On - Duracao: 115560 Nota: C1 Vol.: 67
Chanel 2 Note Off - Duracao: 115680 Nota: C1 Vol.: 82
Chanel 2 Note On - Duracao: 115680 Nota: C1 Vol.: 82
Chanel 3 Note Off - Duracao: 115740 Nota: C1 Vol.: 59
Chanel 3 Note On - Duracao: 115740 Nota: C1 Vol.: 58
Chanel 1 Note Off - Duracao: 115800 Nota: C1 Vol.: 76
Chanel 1 Note On - Duracao: 115800 Nota: C1 Vol.: 72
Chanel 9 Note Off - Duracao: 115800 Nota: C1 Vol.: 51
Chanel 9 Note On - Duracao: 115800 Nota: C1 Vol.: 42
Chanel 2 Note Off - Duracao: 115920 Nota: C1 Vol.: 82
Chanel 2 Note On - Duracao: 115920 Nota: C1 Vol.: 86
Chanel 2 Note Off - Duracao: 116160 Nota: C1 Vol.: 86
Chanel 2 Note On - Duracao: 116160 Nota: C1 Vol.: 85
Chanel 3 Note Off - Duracao: 116220 Nota: C1 Vol.: 58
Chanel 3 Note On - Duracao: 116220 Nota: C1 Vol.: 54
Chanel 1 Note Off - Duracao: 116280 Nota: C1 Vol.: 72
Chanel 1 Note On - Duracao: 116280 Nota: C1 Vol.: 66
Chanel 7 Note Off - Duracao: 116340 Nota: C1 Vol.: 44
Chanel 7 Note On - Duracao: 116340 Nota: C1 Vol.: 45
Chanel 8 Note Off - Duracao: 116340 Nota: C1 Vol.: 50
Chanel 8 Note On - Duracao: 116340 Nota: C1 Vol.: 48
Chanel 2 Note Off - Duracao: 116400 Nota: C1 Vol.: 85
Chanel 2 Note On - Duracao: 116400 Nota: C1 Vol.: 84
Chanel 4 Note Off - Duracao: 116460 Nota: C1 Vol.: 65
Chanel 4 Note On - Duracao: 116460 Nota: C1 Vol.: 65
Chanel 2 Note Off - Duracao: 116640 Nota: C1 Vol.: 84
Chanel 2 Note On - Duracao: 116640 Nota: C1 Vol.: 79
Chanel 1 Note Off - Duracao: 116760 Nota: C1 Vol.: 66
Chanel 1 Note On - Duracao: 116760 Nota: C1 Vol.: 60
Chanel 9 Note Off - Duracao: 116760 Nota: C1 Vol.: 42
Chanel 9 Note On - Duracao: 116760 Nota: C1 Vol.: 65
Chanel 5 Note Off - Duracao: 116820 Nota: C1 Vol.: 46
Chanel 5 Note On - Duracao: 116820 Nota: C1 Vol.: 76
Chanel 9 Note Off - Duracao: 117000 Nota: C1 Vol.: 65
Chanel 9 Note On - Duracao: 117000 Nota: C1 Vol.: 64
Chanel 5 Note Off - Duracao: 117060 Nota: C1 Vol.: 76
Chanel 5 Note On - Duracao: 117060 Nota: C1 Vol.: 97
Chanel 2 Note Off - Duracao: 117120 Nota: C1 Vol.: 79
Chanel 2 Note On - Duracao: 117120 Nota: C1 Vol.: 71
Chanel 5 Note Off - Duracao: 117120 Nota: C1 Vol.: 97
Chanel 5 Note On - Duracao: 117120 Nota: C1 Vol.: 56
Chanel 9 Note Off - Duracao: 117120 Nota: C1 Vol.: 64
Chanel 9 Note On - Duracao: 117120 Nota: C1 Vol.: 57
Chanel 3 Note Off - Duracao: 117180 Nota: C1 Vol.: 54
Chanel 3 Note On - Duracao: 117180 Nota: C1 Vol.: 59
Chanel 1 Note Off - Duracao: 117240 Nota: C1 Vol.: 60
Chanel 1 Note On - Duracao: 117240 Nota: C1 Vol.: 69
Chanel 7 Note Off - Duracao: 117300 Nota: C1 Vol.: 45
Chanel 7 Note On - Duracao: 117300 Nota: C1 Vol.: 45
Chanel 8 Note Off - Duracao: 117300 Nota: C1 Vol.: 48
Chanel 8 Note On - Duracao: 117300 Nota: C1 Vol.: 47
Chanel 9 Note Off - Duracao: 117360 Nota: C1 Vol.: 57
Chanel 9 Note On - Duracao: 117360 Nota: C1 Vol.: 64
Chanel 4 Note Off - Duracao: 117420 Nota: C1 Vol.: 65
Chanel 4 Note On - Duracao: 117420 Nota: C1 Vol.: 64
Chanel 1 Note Off - Duracao: 117480 Nota: C1 Vol.: 69
Chanel 1 Note On - Duracao: 117480 Nota: C1 Vol.: 78
Chanel 9 Note Off - Duracao: 117480 Nota: C1 Vol.: 64
Chanel 9 Note On - Duracao: 117480 Nota: C1 Vol.: 65
Chanel 1 Note Off - Duracao: 117540 Nota: C1 Vol.: 78
Chanel 1 Note On - Duracao: 117540 Nota: C1 Vol.: 66
Chanel 2 Note Off - Duracao: 117600 Nota: C1 Vol.: 71
Chanel 2 Note On - Duracao: 117600 Nota: C1 Vol.: 71
Chanel 9 Note Off - Duracao: 117600 Nota: C1 Vol.: 65
Chanel 9 Note On - Duracao: 117600 Nota: C1 Vol.: 57
Chanel 3 Note Off - Duracao: 117660 Nota: C1 Vol.: 59
Chanel 3 Note On - Duracao: 117660 Nota: C1 Vol.: 60
Chanel 9 Note Off - Duracao: 117720 Nota: C1 Vol.: 57
Chanel 9 Note On - Duracao: 117720 Nota: C1 Vol.: 52
Chanel 1 Note Off - Duracao: 117780 Nota: C1 Vol.: 66
Chanel 1 Note On - Duracao: 117780 Nota: C1 Vol.: 72
Chanel 9 Note Off - Duracao: 117960 Nota: C1 Vol.: 52
Chanel 9 Note On - Duracao: 117960 Nota: C1 Vol.: 47
Chanel 1 Note Off - Duracao: 118020 Nota: C1 Vol.: 72
Chanel 1 Note On - Duracao: 118020 Nota: C1 Vol.: 83
Chanel 2 Note Off - Duracao: 118080 Nota: C1 Vol.: 71
Chanel 2 Note On - Duracao: 118080 Nota: C1 Vol.: 74
Chanel 5 Note Off - Duracao: 118080 Nota: C1 Vol.: 56
Chanel 5 Note On - Duracao: 118080 Nota: C1 Vol.: 88
Chanel 1 Note Off - Duracao: 118140 Nota: C1 Vol.: 83
Chanel 1 Note On - Duracao: 118140 Nota: C1 Vol.: 93
Chanel 3 Note Off - Duracao: 118140 Nota: C1 Vol.: 60
Chanel 3 Note On - Duracao: 118140 Nota: C1 Vol.: 64
Chanel 1 Note Off - Duracao: 118200 Nota: C1 Vol.: 93
Chanel 1 Note On - Duracao: 118200 Nota: C1 Vol.: 92
Chanel 5 Note Off - Duracao: 118200 Nota: C1 Vol.: 88
Chanel 5 Note On - Duracao: 118200 Nota: C1 Vol.: 98
Chanel 9 Note Off - Duracao: 118200 Nota: C1 Vol.: 47
Chanel 9 Note On - Duracao: 118200 Nota: C1 Vol.: 47
Chanel 1 Note Off - Duracao: 118260 Nota: C1 Vol.: 92
Chanel 1 Note On - Duracao: 118260 Nota: C1 Vol.: 96
Chanel 5 Note Off - Duracao: 118260 Nota: C1 Vol.: 98
Chanel 5 Note On - Duracao: 118260 Nota: C1 Vol.: 98
Chanel 7 Note Off - Duracao: 118260 Nota: C1 Vol.: 45
Chanel 7 Note On - Duracao: 118260 Nota: C1 Vol.: 48
Chanel 8 Note Off - Duracao: 118260 Nota: C1 Vol.: 47
Chanel 8 Note On - Duracao: 118260 Nota: C1 Vol.: 48
Chanel 1 Note Off - Duracao: 118320 Nota: C1 Vol.: 96
Chanel 1 Note On - Duracao: 118320 Nota: C1 Vol.: 90
Chanel 5 Note Off - Duracao: 118320 Nota: C1 Vol.: 98
Chanel 5 Note On - Duracao: 118320 Nota: C1 Vol.: 100
Chanel 3 Note Off - Duracao: 118380 Nota: C1 Vol.: 64
Chanel 3 Note On - Duracao: 118380 Nota: C1 Vol.: 69
Chanel 4 Note Off - Duracao: 118380 Nota: C1 Vol.: 64
Chanel 4 Note On - Duracao: 118380 Nota: C1 Vol.: 67
Chanel 5 Note Off - Duracao: 118380 Nota: C1 Vol.: 100
Chanel 5 Note On - Duracao: 118380 Nota: C1 Vol.: 100
Chanel 1 Note Off - Duracao: 118440 Nota: C1 Vol.: 90
Chanel 1 Note On - Duracao: 118440 Nota: C1 Vol.: 90
Chanel 5 Note Off - Duracao: 118440 Nota: C1 Vol.: 100
Chanel 5 Note On - Duracao: 118440 Nota: C1 Vol.: 99
Chanel 9 Note Off - Duracao: 118440 Nota: C1 Vol.: 47
Chanel 9 Note On - Duracao: 118440 Nota: C1 Vol.: 51
Chanel 5 Note Off - Duracao: 118500 Nota: C1 Vol.: 99
Chanel 5 Note On - Duracao: 118500 Nota: C1 Vol.: 98
Chanel 1 Note Off - Duracao: 118560 Nota: C1 Vol.: 90
Chanel 1 Note On - Duracao: 118560 Nota: C1 Vol.: 93
Chanel 2 Note Off - Duracao: 118560 Nota: C1 Vol.: 74
Chanel 2 Note On - Duracao: 118560 Nota: C1 Vol.: 82
Chanel 5 Note Off - Duracao: 118560 Nota: C1 Vol.: 98
Chanel 5 Note On - Duracao: 118560 Nota: C1 Vol.: 97
Chanel 3 Note Off - Duracao: 118620 Nota: C1 Vol.: 69
Chanel 3 Note On - Duracao: 118620 Nota: C1 Vol.: 69
Chanel 5 Note Off - Duracao: 118620 Nota: C1 Vol.: 97
Chanel 5 Note On - Duracao: 118620 Nota: C1 Vol.: 77
Chanel 1 Note Off - Duracao: 118680 Nota: C1 Vol.: 93
Chanel 1 Note On - Duracao: 118680 Nota: C1 Vol.: 91
Chanel 9 Note Off - Duracao: 118680 Nota: C1 Vol.: 51
Chanel 9 Note On - Duracao: 118680 Nota: C1 Vol.: 50
Chanel 1 Note Off - Duracao: 118800 Nota: C1 Vol.: 91
Chanel 1 Note On - Duracao: 118800 Nota: C1 Vol.: 92
Chanel 2 Note Off - Duracao: 118800 Nota: C1 Vol.: 82
Chanel 2 Note On - Duracao: 118800 Nota: C1 Vol.: 75
Chanel 3 Note Off - Duracao: 118860 Nota: C1 Vol.: 69
Chanel 3 Note On - Duracao: 118860 Nota: C1 Vol.: 51
Chanel 5 Note Off - Duracao: 118860 Nota: C1 Vol.: 77
Chanel 5 Note On - Duracao: 118860 Nota: C1 Vol.: 97
Chanel 1 Note Off - Duracao: 118920 Nota: C1 Vol.: 92
Chanel 1 Note On - Duracao: 118920 Nota: C1 Vol.: 97
Chanel 9 Note Off - Duracao: 118920 Nota: C1 Vol.: 50
Chanel 9 Note On - Duracao: 118920 Nota: C1 Vol.: 55
Chanel 5 Note Off - Duracao: 118980 Nota: C1 Vol.: 97
Chanel 5 Note On - Duracao: 118980 Nota: C1 Vol.: 100
Chanel 1 Note Off - Duracao: 119040 Nota: C1 Vol.: 97
Chanel 1 Note On - Duracao: 119040 Nota: C1 Vol.: 98
Chanel 2 Note Off - Duracao: 119040 Nota: C1 Vol.: 75
Chanel 2 Note On - Duracao: 119040 Nota: C1 Vol.: 82
Chanel 5 Note Off - Duracao: 119040 Nota: C1 Vol.: 100
Chanel 5 Note On - Duracao: 119040 Nota: C1 Vol.: 98
Chanel 1 Note Off - Duracao: 119100 Nota: C1 Vol.: 98
Chanel 1 Note On - Duracao: 119100 Nota: C1 Vol.: 99
Chanel 1 Note Off - Duracao: 119160 Nota: C1 Vol.: 99
Chanel 1 Note On - Duracao: 119160 Nota: C1 Vol.: 99
Chanel 5 Note Off - Duracao: 119160 Nota: C1 Vol.: 98
Chanel 5 Note On - Duracao: 119160 Nota: C1 Vol.: 100
Chanel 9 Note Off - Duracao: 119160 Nota: C1 Vol.: 55
Chanel 9 Note On - Duracao: 119160 Nota: C1 Vol.: 67
Chanel 1 Note Off - Duracao: 119220 Nota: C1 Vol.: 99
Chanel 1 Note On - Duracao: 119220 Nota: C1 Vol.: 100
Chanel 5 Note Off - Duracao: 119220 Nota: C1 Vol.: 100
Chanel 5 Note On - Duracao: 119220 Nota: C1 Vol.: 99
Chanel 7 Note Off - Duracao: 119220 Nota: C1 Vol.: 48
Chanel 7 Note On - Duracao: 119220 Nota: C1 Vol.: 46
Chanel 8 Note Off - Duracao: 119220 Nota: C1 Vol.: 48
Chanel 8 Note On - Duracao: 119220 Nota: C1 Vol.: 54
Chanel 1 Note Off - Duracao: 119280 Nota: C1 Vol.: 100
Chanel 1 Note On - Duracao: 119280 Nota: C1 Vol.: 100
Chanel 2 Note Off - Duracao: 119280 Nota: C1 Vol.: 82
Chanel 2 Note On - Duracao: 119280 Nota: C1 Vol.: 89
Chanel 5 Note Off - Duracao: 119280 Nota: C1 Vol.: 99
Chanel 5 Note On - Duracao: 119280 Nota: C1 Vol.: 99
Chanel 9 Note Off - Duracao: 119280 Nota: C1 Vol.: 67
Chanel 9 Note On - Duracao: 119280 Nota: C1 Vol.: 59
Chanel 1 Note Off - Duracao: 119340 Nota: C1 Vol.: 100
Chanel 1 Note On - Duracao: 119340 Nota: C1 Vol.: 94
Chanel 4 Note Off - Duracao: 119340 Nota: C1 Vol.: 67
Chanel 4 Note On - Duracao: 119340 Nota: C1 Vol.: 58
Chanel 5 Note Off - Duracao: 119340 Nota: C1 Vol.: 99
Chanel 5 Note On - Duracao: 119340 Nota: C1 Vol.: 100
Chanel 2 Note Off - Duracao: 119400 Nota: C1 Vol.: 89
Chanel 2 Note On - Duracao: 119400 Nota: C1 Vol.: 96
Chanel 5 Note Off - Duracao: 119400 Nota: C1 Vol.: 100
Chanel 5 Note On - Duracao: 119400 Nota: C1 Vol.: 99
Chanel 6 Note Off - Duracao: 119400 Nota: C1 Vol.: 67
Chanel 6 Note On - Duracao: 119400 Nota: C1 Vol.: 72
Chanel 1 Note Off - Duracao: 119460 Nota: C1 Vol.: 94
Chanel 1 Note On - Duracao: 119460 Nota: C1 Vol.: 87
Chanel 2 Note Off - Duracao: 119460 Nota: C1 Vol.: 96
Chanel 2 Note On - Duracao: 119460 Nota: C1 Vol.: 95
Chanel 5 Note Off - Duracao: 119460 Nota: C1 Vol.: 99
Chanel 5 Note On - Duracao: 119460 Nota: C1 Vol.: 94
Chanel 2 Note Off - Duracao: 119520 Nota: C1 Vol.: 95
Chanel 2 Note On - Duracao: 119520 Nota: C1 Vol.: 92
Chanel 9 Note Off - Duracao: 119520 Nota: C1 Vol.: 59
Chanel 9 Note On - Duracao: 119520 Nota: C1 Vol.: 44
Chanel 5 Note Off - Duracao: 119580 Nota: C1 Vol.: 94
Chanel 5 Note On - Duracao: 119580 Nota: C1 Vol.: 96
Chanel 2 Note Off - Duracao: 119640 Nota: C1 Vol.: 92
Chanel 2 Note On - Duracao: 119640 Nota: C1 Vol.: 97
Chanel 5 Note Off - Duracao: 119640 Nota: C1 Vol.: 96
Chanel 5 Note On - Duracao: 119640 Nota: C1 Vol.: 69
Chanel 1 Note Off - Duracao: 119700 Nota: C1 Vol.: 87
Chanel 1 Note On - Duracao: 119700 Nota: C1 Vol.: 91
Chanel 2 Note Off - Duracao: 119700 Nota: C1 Vol.: 97
Chanel 2 Note On - Duracao: 119700 Nota: C1 Vol.: 98
Chanel 2 Note Off - Duracao: 119760 Nota: C1 Vol.: 98
Chanel 2 Note On - Duracao: 119760 Nota: C1 Vol.: 88
Chanel 1 Note Off - Duracao: 119820 Nota: C1 Vol.: 91
Chanel 1 Note On - Duracao: 119820 Nota: C1 Vol.: 98
Chanel 3 Note Off - Duracao: 119820 Nota: C1 Vol.: 51
Chanel 3 Note On - Duracao: 119820 Nota: C1 Vol.: 60
Chanel 1 Note Off - Duracao: 119880 Nota: C1 Vol.: 98
Chanel 1 Note On - Duracao: 119880 Nota: C1 Vol.: 98
Chanel 2 Note Off - Duracao: 119880 Nota: C1 Vol.: 88
Chanel 2 Note On - Duracao: 119880 Nota: C1 Vol.: 80
Chanel 1 Note Off - Duracao: 119940 Nota: C1 Vol.: 98
Chanel 1 Note On - Duracao: 119940 Nota: C1 Vol.: 96
Chanel 1 Note Off - Duracao: 120000 Nota: C1 Vol.: 96
Chanel 1 Note On - Duracao: 120000 Nota: C1 Vol.: 94
Chanel 2 Note Off - Duracao: 120000 Nota: C1 Vol.: 80
Chanel 2 Note On - Duracao: 120000 Nota: C1 Vol.: 80
Chanel 1 Note Off - Duracao: 120060 Nota: C1 Vol.: 94
Chanel 1 Note On - Duracao: 120060 Nota: C1 Vol.: 88
Chanel 2 Note Off - Duracao: 120120 Nota: C1 Vol.: 80
Chanel 2 Note On - Duracao: 120120 Nota: C1 Vol.: 73
Chanel 5 Note Off - Duracao: 120120 Nota: C1 Vol.: 69
Chanel 5 Note On - Duracao: 120120 Nota: C1 Vol.: 80
Chanel 1 Note Off - Duracao: 120180 Nota: C1 Vol.: 88
Chanel 1 Note On - Duracao: 120180 Nota: C1 Vol.: 96
Chanel 7 Note Off - Duracao: 120180 Nota: C1 Vol.: 46
Chanel 7 Note On - Duracao: 120180 Nota: C1 Vol.: 54
Chanel 8 Note Off - Duracao: 120180 Nota: C1 Vol.: 54
Chanel 8 Note On - Duracao: 120180 Nota: C1 Vol.: 45
Chanel 2 Note Off - Duracao: 120240 Nota: C1 Vol.: 73
Chanel 2 Note On - Duracao: 120240 Nota: C1 Vol.: 65
Chanel 1 Note Off - Duracao: 120300 Nota: C1 Vol.: 96
Chanel 1 Note On - Duracao: 120300 Nota: C1 Vol.: 95
Chanel 3 Note Off - Duracao: 120300 Nota: C1 Vol.: 60
Chanel 3 Note On - Duracao: 120300 Nota: C1 Vol.: 54
Chanel 5 Note Off - Duracao: 120360 Nota: C1 Vol.: 80
Chanel 5 Note On - Duracao: 120360 Nota: C1 Vol.: 79
Chanel 1 Note Off - Duracao: 120420 Nota: C1 Vol.: 95
Chanel 1 Note On - Duracao: 120420 Nota: C1 Vol.: 96
Chanel 1 Note Off - Duracao: 120480 Nota: C1 Vol.: 96
Chanel 1 Note On - Duracao: 120480 Nota: C1 Vol.: 93
Chanel 2 Note Off - Duracao: 120480 Nota: C1 Vol.: 65
Chanel 2 Note On - Duracao: 120480 Nota: C1 Vol.: 71
Chanel 9 Note Off - Duracao: 120480 Nota: C1 Vol.: 44
Chanel 9 Note On - Duracao: 120480 Nota: C1 Vol.: 57
Chanel 1 Note Off - Duracao: 120540 Nota: C1 Vol.: 93
Chanel 1 Note On - Duracao: 120540 Nota: C1 Vol.: 84
Chanel 2 Note Off - Duracao: 120600 Nota: C1 Vol.: 71
Chanel 2 Note On - Duracao: 120600 Nota: C1 Vol.: 65
Chanel 5 Note Off - Duracao: 120600 Nota: C1 Vol.: 79
Chanel 5 Note On - Duracao: 120600 Nota: C1 Vol.: 64
Chanel 1 Note Off - Duracao: 120660 Nota: C1 Vol.: 84
Chanel 1 Note On - Duracao: 120660 Nota: C1 Vol.: 65
Chanel 7 Note Off - Duracao: 120660 Nota: C1 Vol.: 54
Chanel 7 Note On - Duracao: 120660 Nota: C1 Vol.: 57
Chanel 3 Note Off - Duracao: 120780 Nota: C1 Vol.: 54
Chanel 3 Note On - Duracao: 120780 Nota: C1 Vol.: 57
Chanel 2 Note Off - Duracao: 120840 Nota: C1 Vol.: 65
Chanel 2 Note On - Duracao: 120840 Nota: C1 Vol.: 66
Chanel 1 Note Off - Duracao: 120900 Nota: C1 Vol.: 65
Chanel 1 Note On - Duracao: 120900 Nota: C1 Vol.: 69
Chanel 9 Note Off - Duracao: 120960 Nota: C1 Vol.: 57
Chanel 9 Note On - Duracao: 120960 Nota: C1 Vol.: 52
Chanel 1 Note Off - Duracao: 121020 Nota: C1 Vol.: 69
Chanel 1 Note On - Duracao: 121020 Nota: C1 Vol.: 64
Chanel 2 Note Off - Duracao: 121080 Nota: C1 Vol.: 66
Chanel 2 Note On - Duracao: 121080 Nota: C1 Vol.: 55
Chanel 5 Note Off - Duracao: 121080 Nota: C1 Vol.: 64
Chanel 5 Note On - Duracao: 121080 Nota: C1 Vol.: 61
Chanel 1 Note Off - Duracao: 121140 Nota: C1 Vol.: 64
Chanel 1 Note On - Duracao: 121140 Nota: C1 Vol.: 68
Chanel 7 Note Off - Duracao: 121140 Nota: C1 Vol.: 57
Chanel 7 Note On - Duracao: 121140 Nota: C1 Vol.: 57
Chanel 1 Note Off - Duracao: 121260 Nota: C1 Vol.: 68
Chanel 1 Note On - Duracao: 121260 Nota: C1 Vol.: 59
Chanel 3 Note Off - Duracao: 121260 Nota: C1 Vol.: 57
Chanel 3 Note On - Duracao: 121260 Nota: C1 Vol.: 60
Chanel 4 Note Off - Duracao: 121260 Nota: C1 Vol.: 58
Chanel 4 Note On - Duracao: 121260 Nota: C1 Vol.: 46
Chanel 6 Note Off - Duracao: 121320 Nota: C1 Vol.: 72
Chanel 6 Note On - Duracao: 121320 Nota: C1 Vol.: 73
Chanel 1 Note Off - Duracao: 121500 Nota: C1 Vol.: 59
Chanel 1 Note On - Duracao: 121500 Nota: C1 Vol.: 60
Chanel 2 Note Off - Duracao: 121560 Nota: C1 Vol.: 55
Chanel 2 Note On - Duracao: 121560 Nota: C1 Vol.: 63
Chanel 1 Note Off - Duracao: 121740 Nota: C1 Vol.: 60
Chanel 1 Note On - Duracao: 121740 Nota: C1 Vol.: 58
Chanel 3 Note Off - Duracao: 121740 Nota: C1 Vol.: 60
Chanel 3 Note On - Duracao: 121740 Nota: C1 Vol.: 47
Chanel 2 Note Off - Duracao: 121800 Nota: C1 Vol.: 63
Chanel 2 Note On - Duracao: 121800 Nota: C1 Vol.: 61
Chanel 9 Note Off - Duracao: 121920 Nota: C1 Vol.: 52
Chanel 9 Note On - Duracao: 121920 Nota: C1 Vol.: 52
Chanel 1 Note Off - Duracao: 121980 Nota: C1 Vol.: 58
Chanel 1 Note On - Duracao: 121980 Nota: C1 Vol.: 70
Chanel 2 Note Off - Duracao: 122040 Nota: C1 Vol.: 61
Chanel 2 Note On - Duracao: 122040 Nota: C1 Vol.: 58
Chanel 5 Note Off - Duracao: 122040 Nota: C1 Vol.: 61
Chanel 5 Note On - Duracao: 122040 Nota: C1 Vol.: 71
Chanel 1 Note Off - Duracao: 122100 Nota: C1 Vol.: 70
Chanel 1 Note On - Duracao: 122100 Nota: C1 Vol.: 54
Chanel 7 Note Off - Duracao: 122100 Nota: C1 Vol.: 57
Chanel 7 Note On - Duracao: 122100 Nota: C1 Vol.: 53
Chanel 8 Note Off - Duracao: 122100 Nota: C1 Vol.: 45
Chanel 8 Note On - Duracao: 122100 Nota: C1 Vol.: 54
Chanel 2 Note Off - Duracao: 122520 Nota: C1 Vol.: 58
Chanel 2 Note On - Duracao: 122520 Nota: C1 Vol.: 55
Chanel 5 Note Off - Duracao: 122520 Nota: C1 Vol.: 71
Chanel 5 Note On - Duracao: 122520 Nota: C1 Vol.: 70
Chanel 1 Note Off - Duracao: 122580 Nota: C1 Vol.: 54
Chanel 1 Note On - Duracao: 122580 Nota: C1 Vol.: 57
Chanel 3 Note Off - Duracao: 122700 Nota: C1 Vol.: 47
Chanel 3 Note On - Duracao: 122700 Nota: C1 Vol.: 67
Chanel 5 Note Off - Duracao: 122760 Nota: C1 Vol.: 70
Chanel 5 Note On - Duracao: 122760 Nota: C1 Vol.: 69
Chanel 9 Note Off - Duracao: 122880 Nota: C1 Vol.: 52
Chanel 9 Note On - Duracao: 122880 Nota: C1 Vol.: 61
Chanel 3 Note Off - Duracao: 122940 Nota: C1 Vol.: 67
Chanel 3 Note On - Duracao: 122940 Nota: C1 Vol.: 49
Chanel 2 Note Off - Duracao: 123000 Nota: C1 Vol.: 55
Chanel 2 Note On - Duracao: 123000 Nota: C1 Vol.: 66
Chanel 5 Note Off - Duracao: 123000 Nota: C1 Vol.: 69
Chanel 5 Note On - Duracao: 123000 Nota: C1 Vol.: 62
Chanel 1 Note Off - Duracao: 123060 Nota: C1 Vol.: 57
Chanel 1 Note On - Duracao: 123060 Nota: C1 Vol.: 61
Chanel 7 Note Off - Duracao: 123060 Nota: C1 Vol.: 53
Chanel 7 Note On - Duracao: 123060 Nota: C1 Vol.: 45
Chanel 8 Note Off - Duracao: 123060 Nota: C1 Vol.: 54
Chanel 8 Note On - Duracao: 123060 Nota: C1 Vol.: 56
Chanel 2 Note Off - Duracao: 123240 Nota: C1 Vol.: 66
Chanel 2 Note On - Duracao: 123240 Nota: C1 Vol.: 70
Chanel 5 Note Off - Duracao: 123240 Nota: C1 Vol.: 62
Chanel 5 Note On - Duracao: 123240 Nota: C1 Vol.: 60
Chanel 6 Note Off - Duracao: 123240 Nota: C1 Vol.: 73
Chanel 6 Note On - Duracao: 123240 Nota: C1 Vol.: 71
Chanel 9 Note Off - Duracao: 123360 Nota: C1 Vol.: 61
Chanel 9 Note On - Duracao: 123360 Nota: C1 Vol.: 54
Chanel 2 Note Off - Duracao: 123480 Nota: C1 Vol.: 70
Chanel 2 Note On - Duracao: 123480 Nota: C1 Vol.: 69
Chanel 5 Note Off - Duracao: 123480 Nota: C1 Vol.: 60
Chanel 5 Note On - Duracao: 123480 Nota: C1 Vol.: 53
Chanel 1 Note Off - Duracao: 123540 Nota: C1 Vol.: 61
Chanel 1 Note On - Duracao: 123540 Nota: C1 Vol.: 62
Chanel 2 Note Off - Duracao: 123720 Nota: C1 Vol.: 69
Chanel 2 Note On - Duracao: 123720 Nota: C1 Vol.: 77
Chanel 2 Note Off - Duracao: 123840 Nota: C1 Vol.: 77
Chanel 2 Note On - Duracao: 123840 Nota: C1 Vol.: 67
Chanel 3 Note Off - Duracao: 123900 Nota: C1 Vol.: 49
Chanel 3 Note On - Duracao: 123900 Nota: C1 Vol.: 55
Chanel 5 Note Off - Duracao: 123960 Nota: C1 Vol.: 53
Chanel 5 Note On - Duracao: 123960 Nota: C1 Vol.: 52
Chanel 1 Note Off - Duracao: 124020 Nota: C1 Vol.: 62
Chanel 1 Note On - Duracao: 124020 Nota: C1 Vol.: 83
Chanel 8 Note Off - Duracao: 124020 Nota: C1 Vol.: 56
Chanel 8 Note On - Duracao: 124020 Nota: C1 Vol.: 66
Chanel 2 Note Off - Duracao: 124080 Nota: C1 Vol.: 67
Chanel 2 Note On - Duracao: 124080 Nota: C1 Vol.: 66
Chanel 1 Note Off - Duracao: 124140 Nota: C1 Vol.: 83
Chanel 1 Note On - Duracao: 124140 Nota: C1 Vol.: 88
Chanel 1 Note Off - Duracao: 124260 Nota: C1 Vol.: 88
Chanel 1 Note On - Duracao: 124260 Nota: C1 Vol.: 86
Chanel 2 Note Off - Duracao: 124320 Nota: C1 Vol.: 66
Chanel 2 Note On - Duracao: 124320 Nota: C1 Vol.: 66
Chanel 9 Note Off - Duracao: 124320 Nota: C1 Vol.: 54
Chanel 9 Note On - Duracao: 124320 Nota: C1 Vol.: 55
Chanel 1 Note Off - Duracao: 124380 Nota: C1 Vol.: 86
Chanel 1 Note On - Duracao: 124380 Nota: C1 Vol.: 84
Chanel 5 Note Off - Duracao: 124440 Nota: C1 Vol.: 52
Chanel 5 Note On - Duracao: 124440 Nota: C1 Vol.: 53
Chanel 1 Note Off - Duracao: 124500 Nota: C1 Vol.: 84
Chanel 1 Note On - Duracao: 124500 Nota: C1 Vol.: 67
Chanel 8 Note Off - Duracao: 124500 Nota: C1 Vol.: 66
Chanel 8 Note On - Duracao: 124500 Nota: C1 Vol.: 69
Chanel 2 Note Off - Duracao: 124560 Nota: C1 Vol.: 66
Chanel 2 Note On - Duracao: 124560 Nota: C1 Vol.: 64
Chanel 1 Note Off - Duracao: 124740 Nota: C1 Vol.: 67
Chanel 1 Note On - Duracao: 124740 Nota: C1 Vol.: 66
Chanel 2 Note Off - Duracao: 124800 Nota: C1 Vol.: 64
Chanel 2 Note On - Duracao: 124800 Nota: C1 Vol.: 40
Chanel 3 Note Off - Duracao: 124860 Nota: C1 Vol.: 55
Chanel 3 Note On - Duracao: 124860 Nota: C1 Vol.: 47
Chanel 5 Note Off - Duracao: 124920 Nota: C1 Vol.: 53
Chanel 5 Note On - Duracao: 124920 Nota: C1 Vol.: 47
Chanel 1 Note Off - Duracao: 124980 Nota: C1 Vol.: 66
Chanel 1 Note On - Duracao: 124980 Nota: C1 Vol.: 63
Chanel 8 Note Off - Duracao: 124980 Nota: C1 Vol.: 69
Chanel 8 Note On - Duracao: 124980 Nota: C1 Vol.: 71
Chanel 4 Note Off - Duracao: 125100 Nota: C1 Vol.: 46
Chanel 4 Note On - Duracao: 125100 Nota: C1 Vol.: 48
Chanel 6 Note Off - Duracao: 125160 Nota: C1 Vol.: 71
Chanel 6 Note On - Duracao: 125160 Nota: C1 Vol.: 70
Chanel 1 Note Off - Duracao: 125220 Nota: C1 Vol.: 63
Chanel 1 Note On - Duracao: 125220 Nota: C1 Vol.: 63
Chanel 8 Note Off - Duracao: 125220 Nota: C1 Vol.: 71
Chanel 8 Note On - Duracao: 125220 Nota: C1 Vol.: 68
Chanel 9 Note Off - Duracao: 125280 Nota: C1 Vol.: 55
Chanel 9 Note On - Duracao: 125280 Nota: C1 Vol.: 65
Chanel 1 Note Off - Duracao: 125460 Nota: C1 Vol.: 63
Chanel 1 Note On - Duracao: 125460 Nota: C1 Vol.: 68
Chanel 1 Note Off - Duracao: 125700 Nota: C1 Vol.: 68
Chanel 1 Note On - Duracao: 125700 Nota: C1 Vol.: 67
Chanel 8 Note Off - Duracao: 125700 Nota: C1 Vol.: 68
Chanel 8 Note On - Duracao: 125700 Nota: C1 Vol.: 60
Chanel 9 Note Off - Duracao: 125760 Nota: C1 Vol.: 65
Chanel 9 Note On - Duracao: 125760 Nota: C1 Vol.: 56
Chanel 5 Note Off - Duracao: 125880 Nota: C1 Vol.: 47
Chanel 5 Note On - Duracao: 125880 Nota: C1 Vol.: 56
Chanel 1 Note Off - Duracao: 125940 Nota: C1 Vol.: 67
Chanel 1 Note On - Duracao: 125940 Nota: C1 Vol.: 76
Chanel 1 Note Off - Duracao: 126060 Nota: C1 Vol.: 76
Chanel 1 Note On - Duracao: 126060 Nota: C1 Vol.: 91
Chanel 5 Note Off - Duracao: 126120 Nota: C1 Vol.: 56
Chanel 5 Note On - Duracao: 126120 Nota: C1 Vol.: 66
Chanel 1 Note Off - Duracao: 126180 Nota: C1 Vol.: 91
Chanel 1 Note On - Duracao: 126180 Nota: C1 Vol.: 96
Chanel 1 Note Off - Duracao: 126240 Nota: C1 Vol.: 96
Chanel 1 Note On - Duracao: 126240 Nota: C1 Vol.: 95
Chanel 5 Note Off - Duracao: 126240 Nota: C1 Vol.: 66
Chanel 5 Note On - Duracao: 126240 Nota: C1 Vol.: 61
Chanel 1 Note Off - Duracao: 126360 Nota: C1 Vol.: 95
Chanel 1 Note On - Duracao: 126360 Nota: C1 Vol.: 96
Chanel 1 Note Off - Duracao: 126420 Nota: C1 Vol.: 96
Chanel 1 Note On - Duracao: 126420 Nota: C1 Vol.: 92
Chanel 5 Note Off - Duracao: 126480 Nota: C1 Vol.: 61
Chanel 5 Note On - Duracao: 126480 Nota: C1 Vol.: 57
Chanel 1 Note Off - Duracao: 126540 Nota: C1 Vol.: 92
Chanel 1 Note On - Duracao: 126540 Nota: C1 Vol.: 91
Chanel 1 Note Off - Duracao: 126660 Nota: C1 Vol.: 91
Chanel 1 Note On - Duracao: 126660 Nota: C1 Vol.: 94
Chanel 8 Note Off - Duracao: 126660 Nota: C1 Vol.: 60
Chanel 8 Note On - Duracao: 126660 Nota: C1 Vol.: 55
Chanel 2 Note Off - Duracao: 126720 Nota: C1 Vol.: 40
Chanel 2 Note On - Duracao: 126720 Nota: C1 Vol.: 59
Chanel 9 Note Off - Duracao: 126720 Nota: C1 Vol.: 56
Chanel 9 Note On - Duracao: 126720 Nota: C1 Vol.: 59
Chanel 1 Note Off - Duracao: 126780 Nota: C1 Vol.: 94
Chanel 1 Note On - Duracao: 126780 Nota: C1 Vol.: 75
Chanel 3 Note Off - Duracao: 126780 Nota: C1 Vol.: 47
Chanel 3 Note On - Duracao: 126780 Nota: C1 Vol.: 43
Chanel 7 Note Off - Duracao: 126900 Nota: C1 Vol.: 45
Chanel 7 Note On - Duracao: 126900 Nota: C1 Vol.: 44
Chanel 2 Note Off - Duracao: 126960 Nota: C1 Vol.: 59
Chanel 2 Note On - Duracao: 126960 Nota: C1 Vol.: 52
Chanel 5 Note Off - Duracao: 126960 Nota: C1 Vol.: 57
Chanel 5 Note On - Duracao: 126960 Nota: C1 Vol.: 57
Chanel 1 Note Off - Duracao: 127020 Nota: C1 Vol.: 75
Chanel 1 Note On - Duracao: 127020 Nota: C1 Vol.: 40
Chanel 2 Note Off - Duracao: 127080 Nota: C1 Vol.: 52
Chanel 2 Note On - Duracao: 127080 Nota: C1 Vol.: 49
Chanel 6 Note Off - Duracao: 127080 Nota: C1 Vol.: 70
Chanel 6 Note On - Duracao: 127080 Nota: C1 Vol.: 71
Chanel 9 Note Off - Duracao: 127200 Nota: C1 Vol.: 59
Chanel 9 Note On - Duracao: 127200 Nota: C1 Vol.: 57
Chanel 2 Note Off - Duracao: 127320 Nota: C1 Vol.: 49
Chanel 2 Note On - Duracao: 127320 Nota: C1 Vol.: 51
Chanel 5 Note Off - Duracao: 127440 Nota: C1 Vol.: 57
Chanel 5 Note On - Duracao: 127440 Nota: C1 Vol.: 57
Chanel 2 Note Off - Duracao: 127560 Nota: C1 Vol.: 51
Chanel 2 Note On - Duracao: 127560 Nota: C1 Vol.: 40
Chanel 8 Note Off - Duracao: 127620 Nota: C1 Vol.: 55
Chanel 8 Note On - Duracao: 127620 Nota: C1 Vol.: 52
Chanel 5 Note Off - Duracao: 127920 Nota: C1 Vol.: 57
Chanel 5 Note On - Duracao: 127920 Nota: C1 Vol.: 57
Chanel 9 Note Off - Duracao: 128160 Nota: C1 Vol.: 57
Chanel 9 Note On - Duracao: 128160 Nota: C1 Vol.: 67
Chanel 5 Note Off - Duracao: 128400 Nota: C1 Vol.: 57
Chanel 5 Note On - Duracao: 128400 Nota: C1 Vol.: 54
Chanel 9 Note Off - Duracao: 128400 Nota: C1 Vol.: 67
Chanel 9 Note On - Duracao: 128400 Nota: C1 Vol.: 56
Chanel 8 Note Off - Duracao: 128580 Nota: C1 Vol.: 52
Chanel 8 Note On - Duracao: 128580 Nota: C1 Vol.: 48
Chanel 3 Note Off - Duracao: 128700 Nota: C1 Vol.: 43
Chanel 3 Note On - Duracao: 128700 Nota: C1 Vol.: 47
Chanel 5 Note Off - Duracao: 128880 Nota: C1 Vol.: 54
Chanel 5 Note On - Duracao: 128880 Nota: C1 Vol.: 58
Chanel 9 Note Off - Duracao: 128880 Nota: C1 Vol.: 56
Chanel 9 Note On - Duracao: 128880 Nota: C1 Vol.: 63
Chanel 1 Note Off - Duracao: 128940 Nota: C1 Vol.: 40
Chanel 1 Note On - Duracao: 128940 Nota: C1 Vol.: 59
Chanel 4 Note Off - Duracao: 128940 Nota: C1 Vol.: 48
Chanel 4 Note On - Duracao: 128940 Nota: C1 Vol.: 45
Chanel 6 Note Off - Duracao: 129000 Nota: C1 Vol.: 71
Chanel 6 Note On - Duracao: 129000 Nota: C1 Vol.: 71
Chanel 1 Note Off - Duracao: 129180 Nota: C1 Vol.: 59
Chanel 1 Note On - Duracao: 129180 Nota: C1 Vol.: 54
Chanel 5 Note Off - Duracao: 129360 Nota: C1 Vol.: 58
Chanel 5 Note On - Duracao: 129360 Nota: C1 Vol.: 58
Chanel 9 Note Off - Duracao: 129360 Nota: C1 Vol.: 63
Chanel 9 Note On - Duracao: 129360 Nota: C1 Vol.: 62
Chanel 1 Note Off - Duracao: 129420 Nota: C1 Vol.: 54
Chanel 1 Note On - Duracao: 129420 Nota: C1 Vol.: 55
Chanel 2 Note Off - Duracao: 129480 Nota: C1 Vol.: 40
Chanel 2 Note On - Duracao: 129480 Nota: C1 Vol.: 40
Chanel 1 Note Off - Duracao: 129540 Nota: C1 Vol.: 55
Chanel 1 Note On - Duracao: 129540 Nota: C1 Vol.: 43
Chanel 1 Note Off - Duracao: 129780 Nota: C1 Vol.: 43
Chanel 1 Note On - Duracao: 129780 Nota: C1 Vol.: 58
Chanel 5 Note Off - Duracao: 129840 Nota: C1 Vol.: 58
Chanel 5 Note On - Duracao: 129840 Nota: C1 Vol.: 62
Chanel 9 Note Off - Duracao: 129840 Nota: C1 Vol.: 62
Chanel 9 Note On - Duracao: 129840 Nota: C1 Vol.: 56
Chanel 1 Note Off - Duracao: 129900 Nota: C1 Vol.: 58
Chanel 1 Note On - Duracao: 129900 Nota: C1 Vol.: 58
Chanel 1 Note Off - Duracao: 130020 Nota: C1 Vol.: 58
Chanel 1 Note On - Duracao: 130020 Nota: C1 Vol.: 49
Chanel 5 Note Off - Duracao: 130080 Nota: C1 Vol.: 62
Chanel 5 Note On - Duracao: 130080 Nota: C1 Vol.: 57
Chanel 1 Note Off - Duracao: 130260 Nota: C1 Vol.: 49
Chanel 1 Note On - Duracao: 130260 Nota: C1 Vol.: 55
Chanel 1 Note Off - Duracao: 130500 Nota: C1 Vol.: 55
Chanel 1 Note On - Duracao: 130500 Nota: C1 Vol.: 58
Chanel 8 Note Off - Duracao: 130500 Nota: C1 Vol.: 48
Chanel 8 Note On - Duracao: 130500 Nota: C1 Vol.: 44
Chanel 5 Note Off - Duracao: 130560 Nota: C1 Vol.: 57
Chanel 5 Note On - Duracao: 130560 Nota: C1 Vol.: 52
Chanel 1 Note Off - Duracao: 130620 Nota: C1 Vol.: 58
Chanel 1 Note On - Duracao: 130620 Nota: C1 Vol.: 52
Chanel 3 Note Off - Duracao: 130620 Nota: C1 Vol.: 47
Chanel 3 Note On - Duracao: 130620 Nota: C1 Vol.: 69
Chanel 7 Note Off - Duracao: 130740 Nota: C1 Vol.: 44
Chanel 7 Note On - Duracao: 130740 Nota: C1 Vol.: 48
Chanel 9 Note Off - Duracao: 130800 Nota: C1 Vol.: 56
Chanel 9 Note On - Duracao: 130800 Nota: C1 Vol.: 69
Chanel 1 Note Off - Duracao: 130860 Nota: C1 Vol.: 52
Chanel 1 Note On - Duracao: 130860 Nota: C1 Vol.: 53
Chanel 3 Note Off - Duracao: 130860 Nota: C1 Vol.: 69
Chanel 3 Note On - Duracao: 130860 Nota: C1 Vol.: 61
Chanel 6 Note Off - Duracao: 130920 Nota: C1 Vol.: 71
Chanel 6 Note On - Duracao: 130920 Nota: C1 Vol.: 69
Chanel 1 Note Off - Duracao: 130980 Nota: C1 Vol.: 53
Chanel 1 Note On - Duracao: 130980 Nota: C1 Vol.: 55
Chanel 5 Note Off - Duracao: 131040 Nota: C1 Vol.: 52
Chanel 5 Note On - Duracao: 131040 Nota: C1 Vol.: 55
Chanel 1 Note Off - Duracao: 131100 Nota: C1 Vol.: 55
Chanel 1 Note On - Duracao: 131100 Nota: C1 Vol.: 50
Chanel 1 Note Off - Duracao: 131220 Nota: C1 Vol.: 50
Chanel 1 Note On - Duracao: 131220 Nota: C1 Vol.: 48
Chanel 9 Note Off - Duracao: 131280 Nota: C1 Vol.: 69
Chanel 9 Note On - Duracao: 131280 Nota: C1 Vol.: 61
Chanel 1 Note Off - Duracao: 131340 Nota: C1 Vol.: 48
Chanel 1 Note On - Duracao: 131340 Nota: C1 Vol.: 46
Chanel 3 Note Off - Duracao: 131340 Nota: C1 Vol.: 61
Chanel 3 Note On - Duracao: 131340 Nota: C1 Vol.: 85
Chanel 2 Note Off - Duracao: 131400 Nota: C1 Vol.: 40
Chanel 2 Note On - Duracao: 131400 Nota: C1 Vol.: 40
Chanel 1 Note Off - Duracao: 131460 Nota: C1 Vol.: 46
Chanel 1 Note On - Duracao: 131460 Nota: C1 Vol.: 42
Chanel 3 Note Off - Duracao: 131460 Nota: C1 Vol.: 85
Chanel 3 Note On - Duracao: 131460 Nota: C1 Vol.: 95
Chanel 3 Note Off - Duracao: 131520 Nota: C1 Vol.: 95
Chanel 3 Note On - Duracao: 131520 Nota: C1 Vol.: 98
Chanel 5 Note Off - Duracao: 131520 Nota: C1 Vol.: 55
Chanel 5 Note On - Duracao: 131520 Nota: C1 Vol.: 59
Chanel 1 Note Off - Duracao: 131580 Nota: C1 Vol.: 42
Chanel 1 Note On - Duracao: 131580 Nota: C1 Vol.: 42
Chanel 3 Note Off - Duracao: 131580 Nota: C1 Vol.: 98
Chanel 3 Note On - Duracao: 131580 Nota: C1 Vol.: 98
Chanel 3 Note Off - Duracao: 131640 Nota: C1 Vol.: 98
Chanel 3 Note On - Duracao: 131640 Nota: C1 Vol.: 99
Chanel 1 Note Off - Duracao: 131700 Nota: C1 Vol.: 42
Chanel 1 Note On - Duracao: 131700 Nota: C1 Vol.: 44
Chanel 3 Note Off - Duracao: 131700 Nota: C1 Vol.: 99
Chanel 3 Note On - Duracao: 131700 Nota: C1 Vol.: 79
Chanel 9 Note Off - Duracao: 131760 Nota: C1 Vol.: 61
Chanel 9 Note On - Duracao: 131760 Nota: C1 Vol.: 64
Chanel 1 Note Off - Duracao: 131820 Nota: C1 Vol.: 44
Chanel 1 Note On - Duracao: 131820 Nota: C1 Vol.: 52
Chanel 1 Note Off - Duracao: 131940 Nota: C1 Vol.: 52
Chanel 1 Note On - Duracao: 131940 Nota: C1 Vol.: 58
Chanel 3 Note Off - Duracao: 131940 Nota: C1 Vol.: 79
Chanel 3 Note On - Duracao: 131940 Nota: C1 Vol.: 56
Chanel 5 Note Off - Duracao: 132000 Nota: C1 Vol.: 59
Chanel 5 Note On - Duracao: 132000 Nota: C1 Vol.: 42
Chanel 1 Note Off - Duracao: 132060 Nota: C1 Vol.: 58
Chanel 1 Note On - Duracao: 132060 Nota: C1 Vol.: 40
Chanel 9 Note Off - Duracao: 132240 Nota: C1 Vol.: 64
Chanel 9 Note On - Duracao: 132240 Nota: C1 Vol.: 64
Chanel 8 Note Off - Duracao: 132420 Nota: C1 Vol.: 44
Chanel 8 Note On - Duracao: 132420 Nota: C1 Vol.: 45
Chanel 9 Note Off - Duracao: 132720 Nota: C1 Vol.: 64
Chanel 9 Note On - Duracao: 132720 Nota: C1 Vol.: 56
Chanel 4 Note Off - Duracao: 132780 Nota: C1 Vol.: 45
Chanel 4 Note On - Duracao: 132780 Nota: C1 Vol.: 44
Chanel 6 Note Off - Duracao: 132840 Nota: C1 Vol.: 69
Chanel 6 Note On - Duracao: 132840 Nota: C1 Vol.: 70
Chanel 1 Note Off - Duracao: 133020 Nota: C1 Vol.: 40
Chanel 1 Note On - Duracao: 133020 Nota: C1 Vol.: 59
Chanel 1 Note Off - Duracao: 133500 Nota: C1 Vol.: 59
Chanel 1 Note On - Duracao: 133500 Nota: C1 Vol.: 93
Chanel 1 Note Off - Duracao: 133560 Nota: C1 Vol.: 93
Chanel 1 Note On - Duracao: 133560 Nota: C1 Vol.: 95
Chanel 1 Note Off - Duracao: 133620 Nota: C1 Vol.: 95
Chanel 1 Note On - Duracao: 133620 Nota: C1 Vol.: 83
Chanel 9 Note Off - Duracao: 133680 Nota: C1 Vol.: 56
Chanel 9 Note On - Duracao: 133680 Nota: C1 Vol.: 54
Chanel 1 Note Off - Duracao: 133860 Nota: C1 Vol.: 83
Chanel 1 Note On - Duracao: 133860 Nota: C1 Vol.: 80
Chanel 3 Note Off - Duracao: 133860 Nota: C1 Vol.: 56
Chanel 3 Note On - Duracao: 133860 Nota: C1 Vol.: 61
Chanel 5 Note Off - Duracao: 133920 Nota: C1 Vol.: 42
Chanel 5 Note On - Duracao: 133920 Nota: C1 Vol.: 73
Chanel 1 Note Off - Duracao: 134100 Nota: C1 Vol.: 80
Chanel 1 Note On - Duracao: 134100 Nota: C1 Vol.: 86
Chanel 5 Note Off - Duracao: 134160 Nota: C1 Vol.: 73
Chanel 5 Note On - Duracao: 134160 Nota: C1 Vol.: 88
Chanel 1 Note Off - Duracao: 134220 Nota: C1 Vol.: 86
Chanel 1 Note On - Duracao: 134220 Nota: C1 Vol.: 86
Chanel 5 Note Off - Duracao: 134280 Nota: C1 Vol.: 88
Chanel 5 Note On - Duracao: 134280 Nota: C1 Vol.: 86
Chanel 1 Note Off - Duracao: 134340 Nota: C1 Vol.: 86
Chanel 1 Note On - Duracao: 134340 Nota: C1 Vol.: 82
Chanel 8 Note Off - Duracao: 134340 Nota: C1 Vol.: 45
Chanel 8 Note On - Duracao: 134340 Nota: C1 Vol.: 41
Chanel 5 Note Off - Duracao: 134400 Nota: C1 Vol.: 86
Chanel 5 Note On - Duracao: 134400 Nota: C1 Vol.: 86
Chanel 5 Note Off - Duracao: 134520 Nota: C1 Vol.: 86
Chanel 5 Note On - Duracao: 134520 Nota: C1 Vol.: 67
Chanel 1 Note Off - Duracao: 134580 Nota: C1 Vol.: 82
Chanel 1 Note On - Duracao: 134580 Nota: C1 Vol.: 85
Chanel 7 Note Off - Duracao: 134580 Nota: C1 Vol.: 48
Chanel 7 Note On - Duracao: 134580 Nota: C1 Vol.: 52
Chanel 9 Note Off - Duracao: 134640 Nota: C1 Vol.: 54
Chanel 9 Note On - Duracao: 134640 Nota: C1 Vol.: 43
Chanel 6 Note Off - Duracao: 134760 Nota: C1 Vol.: 70
Chanel 6 Note On - Duracao: 134760 Nota: C1 Vol.: 67
Chanel 1 Note Off - Duracao: 134820 Nota: C1 Vol.: 85
Chanel 1 Note On - Duracao: 134820 Nota: C1 Vol.: 76
Chanel 3 Note Off - Duracao: 134820 Nota: C1 Vol.: 61
Chanel 3 Note On - Duracao: 134820 Nota: C1 Vol.: 60
Chanel 5 Note Off - Duracao: 135000 Nota: C1 Vol.: 67
Chanel 5 Note On - Duracao: 135000 Nota: C1 Vol.: 65
Chanel 1 Note Off - Duracao: 135060 Nota: C1 Vol.: 76
Chanel 1 Note On - Duracao: 135060 Nota: C1 Vol.: 79
Chanel 2 Note Off - Duracao: 135240 Nota: C1 Vol.: 40
Chanel 2 Note On - Duracao: 135240 Nota: C1 Vol.: 40
Chanel 1 Note Off - Duracao: 135300 Nota: C1 Vol.: 79
Chanel 1 Note On - Duracao: 135300 Nota: C1 Vol.: 78
Chanel 5 Note Off - Duracao: 135480 Nota: C1 Vol.: 65
Chanel 5 Note On - Duracao: 135480 Nota: C1 Vol.: 66
Chanel 1 Note Off - Duracao: 135540 Nota: C1 Vol.: 78
Chanel 1 Note On - Duracao: 135540 Nota: C1 Vol.: 74
Chanel 3 Note Off - Duracao: 135780 Nota: C1 Vol.: 60
Chanel 3 Note On - Duracao: 135780 Nota: C1 Vol.: 60
Chanel 5 Note Off - Duracao: 135960 Nota: C1 Vol.: 66
Chanel 5 Note On - Duracao: 135960 Nota: C1 Vol.: 88
Chanel 1 Note Off - Duracao: 136020 Nota: C1 Vol.: 74
Chanel 1 Note On - Duracao: 136020 Nota: C1 Vol.: 80
Chanel 5 Note Off - Duracao: 136080 Nota: C1 Vol.: 88
Chanel 5 Note On - Duracao: 136080 Nota: C1 Vol.: 95
Chanel 5 Note Off - Duracao: 136200 Nota: C1 Vol.: 95
Chanel 5 Note On - Duracao: 136200 Nota: C1 Vol.: 70
Chanel 1 Note Off - Duracao: 136260 Nota: C1 Vol.: 80
Chanel 1 Note On - Duracao: 136260 Nota: C1 Vol.: 70
Chanel 8 Note Off - Duracao: 136260 Nota: C1 Vol.: 41
Chanel 8 Note On - Duracao: 136260 Nota: C1 Vol.: 40
Chanel 1 Note Off - Duracao: 136500 Nota: C1 Vol.: 70
Chanel 1 Note On - Duracao: 136500 Nota: C1 Vol.: 53
Chanel 9 Note Off - Duracao: 136560 Nota: C1 Vol.: 43
Chanel 9 Note On - Duracao: 136560 Nota: C1 Vol.: 52
Chanel 4 Note Off - Duracao: 136620 Nota: C1 Vol.: 44
Chanel 4 Note On - Duracao: 136620 Nota: C1 Vol.: 44
Chanel 5 Note Off - Duracao: 136680 Nota: C1 Vol.: 70
Chanel 5 Note On - Duracao: 136680 Nota: C1 Vol.: 47
Chanel 6 Note Off - Duracao: 136680 Nota: C1 Vol.: 67
Chanel 6 Note On - Duracao: 136680 Nota: C1 Vol.: 65
Chanel 3 Note Off - Duracao: 136740 Nota: C1 Vol.: 60
Chanel 3 Note On - Duracao: 136740 Nota: C1 Vol.: 62
Chanel 1 Note Off - Duracao: 136980 Nota: C1 Vol.: 53
Chanel 1 Note On - Duracao: 136980 Nota: C1 Vol.: 69
Chanel 1 Note Off - Duracao: 137100 Nota: C1 Vol.: 69
Chanel 1 Note On - Duracao: 137100 Nota: C1 Vol.: 73
Chanel 2 Note Off - Duracao: 137160 Nota: C1 Vol.: 40
Chanel 2 Note On - Duracao: 137160 Nota: C1 Vol.: 57
Chanel 1 Note Off - Duracao: 137220 Nota: C1 Vol.: 73
Chanel 1 Note On - Duracao: 137220 Nota: C1 Vol.: 62
Chanel 2 Note Off - Duracao: 137400 Nota: C1 Vol.: 57
Chanel 2 Note On - Duracao: 137400 Nota: C1 Vol.: 57
Chanel 9 Note Off - Duracao: 137520 Nota: C1 Vol.: 52
Chanel 9 Note On - Duracao: 137520 Nota: C1 Vol.: 47
Chanel 2 Note Off - Duracao: 137640 Nota: C1 Vol.: 57
Chanel 2 Note On - Duracao: 137640 Nota: C1 Vol.: 50
Chanel 1 Note Off - Duracao: 137700 Nota: C1 Vol.: 62
Chanel 1 Note On - Duracao: 137700 Nota: C1 Vol.: 70
Chanel 3 Note Off - Duracao: 137700 Nota: C1 Vol.: 62
Chanel 3 Note On - Duracao: 137700 Nota: C1 Vol.: 41
Chanel 1 Note Off - Duracao: 137940 Nota: C1 Vol.: 70
Chanel 1 Note On - Duracao: 137940 Nota: C1 Vol.: 78
Chanel 2 Note Off - Duracao: 138120 Nota: C1 Vol.: 50
Chanel 2 Note On - Duracao: 138120 Nota: C1 Vol.: 44
Chanel 1 Note Off - Duracao: 138180 Nota: C1 Vol.: 78
Chanel 1 Note On - Duracao: 138180 Nota: C1 Vol.: 90
Chanel 8 Note Off - Duracao: 138180 Nota: C1 Vol.: 40
Chanel 8 Note On - Duracao: 138180 Nota: C1 Vol.: 45
Chanel 1 Note Off - Duracao: 138300 Nota: C1 Vol.: 90
Chanel 1 Note On - Duracao: 138300 Nota: C1 Vol.: 95
Chanel 1 Note Off - Duracao: 138420 Nota: C1 Vol.: 95
Chanel 1 Note On - Duracao: 138420 Nota: C1 Vol.: 87
Chanel 7 Note Off - Duracao: 138420 Nota: C1 Vol.: 52
Chanel 7 Note On - Duracao: 138420 Nota: C1 Vol.: 52
Chanel 9 Note Off - Duracao: 138480 Nota: C1 Vol.: 47
Chanel 9 Note On - Duracao: 138480 Nota: C1 Vol.: 49
Chanel 1 Note Off - Duracao: 138540 Nota: C1 Vol.: 87
Chanel 1 Note On - Duracao: 138540 Nota: C1 Vol.: 91
Chanel 5 Note Off - Duracao: 138600 Nota: C1 Vol.: 47
Chanel 5 Note On - Duracao: 138600 Nota: C1 Vol.: 40
Chanel 6 Note Off - Duracao: 138600 Nota: C1 Vol.: 65
Chanel 6 Note On - Duracao: 138600 Nota: C1 Vol.: 65
Chanel 1 Note Off - Duracao: 138660 Nota: C1 Vol.: 91
Chanel 1 Note On - Duracao: 138660 Nota: C1 Vol.: 95
Chanel 1 Note Off - Duracao: 138780 Nota: C1 Vol.: 95
Chanel 1 Note On - Duracao: 138780 Nota: C1 Vol.: 91
Chanel 1 Note Off - Duracao: 138900 Nota: C1 Vol.: 91
Chanel 1 Note On - Duracao: 138900 Nota: C1 Vol.: 94
Chanel 9 Note Off - Duracao: 138960 Nota: C1 Vol.: 49
Chanel 9 Note On - Duracao: 138960 Nota: C1 Vol.: 48
Chanel 1 Note Off - Duracao: 139020 Nota: C1 Vol.: 94
Chanel 1 Note On - Duracao: 139020 Nota: C1 Vol.: 100
Chanel 1 Note Off - Duracao: 139080 Nota: C1 Vol.: 100
Chanel 1 Note On - Duracao: 139080 Nota: C1 Vol.: 99
Chanel 2 Note Off - Duracao: 139080 Nota: C1 Vol.: 44
Chanel 2 Note On - Duracao: 139080 Nota: C1 Vol.: 44
Chanel 1 Note Off - Duracao: 139140 Nota: C1 Vol.: 99
Chanel 1 Note On - Duracao: 139140 Nota: C1 Vol.: 100
Chanel 8 Note Off - Duracao: 139140 Nota: C1 Vol.: 45
Chanel 8 Note On - Duracao: 139140 Nota: C1 Vol.: 45
Chanel 1 Note Off - Duracao: 139200 Nota: C1 Vol.: 100
Chanel 1 Note On - Duracao: 139200 Nota: C1 Vol.: 99
Chanel 1 Note Off - Duracao: 139260 Nota: C1 Vol.: 99
Chanel 1 Note On - Duracao: 139260 Nota: C1 Vol.: 99
Chanel 1 Note Off - Duracao: 139380 Nota: C1 Vol.: 99
Chanel 1 Note On - Duracao: 139380 Nota: C1 Vol.: 83
Chanel 2 Note Off - Duracao: 139560 Nota: C1 Vol.: 44
Chanel 2 Note On - Duracao: 139560 Nota: C1 Vol.: 58
Chanel 1 Note Off - Duracao: 139620 Nota: C1 Vol.: 83
Chanel 1 Note On - Duracao: 139620 Nota: C1 Vol.: 81
Chanel 2 Note Off - Duracao: 139800 Nota: C1 Vol.: 58
Chanel 2 Note On - Duracao: 139800 Nota: C1 Vol.: 59
Chanel 1 Note Off - Duracao: 139860 Nota: C1 Vol.: 81
Chanel 1 Note On - Duracao: 139860 Nota: C1 Vol.: 95
Chanel 2 Note Off - Duracao: 139920 Nota: C1 Vol.: 59
Chanel 2 Note On - Duracao: 139920 Nota: C1 Vol.: 57
Chanel 9 Note Off - Duracao: 139920 Nota: C1 Vol.: 48
Chanel 9 Note On - Duracao: 139920 Nota: C1 Vol.: 50
Chanel 1 Note Off - Duracao: 139980 Nota: C1 Vol.: 95
Chanel 1 Note On - Duracao: 139980 Nota: C1 Vol.: 91
Chanel 2 Note Off - Duracao: 140040 Nota: C1 Vol.: 57
Chanel 2 Note On - Duracao: 140040 Nota: C1 Vol.: 55
Chanel 1 Note Off - Duracao: 140100 Nota: C1 Vol.: 91
Chanel 1 Note On - Duracao: 140100 Nota: C1 Vol.: 87
Chanel 8 Note Off - Duracao: 140100 Nota: C1 Vol.: 45
Chanel 8 Note On - Duracao: 140100 Nota: C1 Vol.: 46
Chanel 1 Note Off - Duracao: 140220 Nota: C1 Vol.: 87
Chanel 1 Note On - Duracao: 140220 Nota: C1 Vol.: 96
Chanel 1 Note Off - Duracao: 140280 Nota: C1 Vol.: 96
Chanel 1 Note On - Duracao: 140280 Nota: C1 Vol.: 94
Chanel 2 Note Off - Duracao: 140280 Nota: C1 Vol.: 55
Chanel 2 Note On - Duracao: 140280 Nota: C1 Vol.: 50
Chanel 1 Note Off - Duracao: 140400 Nota: C1 Vol.: 94
Chanel 1 Note On - Duracao: 140400 Nota: C1 Vol.: 94
Chanel 4 Note Off - Duracao: 140460 Nota: C1 Vol.: 44
Chanel 4 Note On - Duracao: 140460 Nota: C1 Vol.: 59
Chanel 1 Note Off - Duracao: 140520 Nota: C1 Vol.: 94
Chanel 1 Note On - Duracao: 140520 Nota: C1 Vol.: 97
Chanel 2 Note Off - Duracao: 140520 Nota: C1 Vol.: 50
Chanel 2 Note On - Duracao: 140520 Nota: C1 Vol.: 49
Chanel 6 Note Off - Duracao: 140520 Nota: C1 Vol.: 65
Chanel 6 Note On - Duracao: 140520 Nota: C1 Vol.: 65
Chanel 1 Note Off - Duracao: 140580 Nota: C1 Vol.: 97
Chanel 1 Note On - Duracao: 140580 Nota: C1 Vol.: 91
Chanel 1 Note Off - Duracao: 140700 Nota: C1 Vol.: 91
Chanel 1 Note On - Duracao: 140700 Nota: C1 Vol.: 96
Chanel 1 Note Off - Duracao: 140760 Nota: C1 Vol.: 96
Chanel 1 Note On - Duracao: 140760 Nota: C1 Vol.: 91
Chanel 1 Note Off - Duracao: 140820 Nota: C1 Vol.: 91
Chanel 1 Note On - Duracao: 140820 Nota: C1 Vol.: 83
Chanel 9 Note Off - Duracao: 140880 Nota: C1 Vol.: 50
Chanel 9 Note On - Duracao: 140880 Nota: C1 Vol.: 59
Chanel 1 Note Off - Duracao: 140940 Nota: C1 Vol.: 83
Chanel 1 Note On - Duracao: 140940 Nota: C1 Vol.: 68
Chanel 2 Note Off - Duracao: 141000 Nota: C1 Vol.: 49
Chanel 2 Note On - Duracao: 141000 Nota: C1 Vol.: 40
Chanel 8 Note Off - Duracao: 141060 Nota: C1 Vol.: 46
Chanel 8 Note On - Duracao: 141060 Nota: C1 Vol.: 44
Chanel 1 Note Off - Duracao: 141180 Nota: C1 Vol.: 68
Chanel 1 Note On - Duracao: 141180 Nota: C1 Vol.: 69
Chanel 1 Note Off - Duracao: 141300 Nota: C1 Vol.: 69
Chanel 1 Note On - Duracao: 141300 Nota: C1 Vol.: 64
Chanel 9 Note Off - Duracao: 141360 Nota: C1 Vol.: 59
Chanel 9 Note On - Duracao: 141360 Nota: C1 Vol.: 51
Chanel 1 Note Off - Duracao: 141420 Nota: C1 Vol.: 64
Chanel 1 Note On - Duracao: 141420 Nota: C1 Vol.: 60
Chanel 4 Note Off - Duracao: 141420 Nota: C1 Vol.: 59
Chanel 4 Note On - Duracao: 141420 Nota: C1 Vol.: 42
Chanel 1 Note Off - Duracao: 141540 Nota: C1 Vol.: 60
Chanel 1 Note On - Duracao: 141540 Nota: C1 Vol.: 57
Chanel 3 Note Off - Duracao: 141540 Nota: C1 Vol.: 41
Chanel 3 Note On - Duracao: 141540 Nota: C1 Vol.: 50
Chanel 1 Note Off - Duracao: 141780 Nota: C1 Vol.: 57
Chanel 1 Note On - Duracao: 141780 Nota: C1 Vol.: 64
Chanel 1 Note Off - Duracao: 141900 Nota: C1 Vol.: 64
Chanel 1 Note On - Duracao: 141900 Nota: C1 Vol.: 67
Chanel 2 Note Off - Duracao: 141960 Nota: C1 Vol.: 40
Chanel 2 Note On - Duracao: 141960 Nota: C1 Vol.: 65
Chanel 1 Note Off - Duracao: 142020 Nota: C1 Vol.: 67
Chanel 1 Note On - Duracao: 142020 Nota: C1 Vol.: 56
Chanel 2 Note Off - Duracao: 142200 Nota: C1 Vol.: 65
Chanel 2 Note On - Duracao: 142200 Nota: C1 Vol.: 78
Chanel 1 Note Off - Duracao: 142260 Nota: C1 Vol.: 56
Chanel 1 Note On - Duracao: 142260 Nota: C1 Vol.: 51
Chanel 7 Note Off - Duracao: 142260 Nota: C1 Vol.: 52
Chanel 7 Note On - Duracao: 142260 Nota: C1 Vol.: 53
Chanel 2 Note Off - Duracao: 142320 Nota: C1 Vol.: 78
Chanel 2 Note On - Duracao: 142320 Nota: C1 Vol.: 58
Chanel 9 Note Off - Duracao: 142320 Nota: C1 Vol.: 51
Chanel 9 Note On - Duracao: 142320 Nota: C1 Vol.: 57
Chanel 5 Note Off - Duracao: 142440 Nota: C1 Vol.: 40
Chanel 5 Note On - Duracao: 142440 Nota: C1 Vol.: 60
Chanel 6 Note Off - Duracao: 142440 Nota: C1 Vol.: 65
Chanel 6 Note On - Duracao: 142440 Nota: C1 Vol.: 66
Chanel 3 Note Off - Duracao: 142500 Nota: C1 Vol.: 50
Chanel 3 Note On - Duracao: 142500 Nota: C1 Vol.: 77
Chanel 2 Note Off - Duracao: 142560 Nota: C1 Vol.: 58
Chanel 2 Note On - Duracao: 142560 Nota: C1 Vol.: 54
Chanel 2 Note Off - Duracao: 142680 Nota: C1 Vol.: 54
Chanel 2 Note On - Duracao: 142680 Nota: C1 Vol.: 53
Chanel 1 Note Off - Duracao: 142740 Nota: C1 Vol.: 51
Chanel 1 Note On - Duracao: 142740 Nota: C1 Vol.: 54
Chanel 3 Note Off - Duracao: 142740 Nota: C1 Vol.: 77
Chanel 3 Note On - Duracao: 142740 Nota: C1 Vol.: 96
Chanel 2 Note Off - Duracao: 142800 Nota: C1 Vol.: 53
Chanel 2 Note On - Duracao: 142800 Nota: C1 Vol.: 54
Chanel 3 Note Off - Duracao: 142800 Nota: C1 Vol.: 96
Chanel 3 Note On - Duracao: 142800 Nota: C1 Vol.: 98
Chanel 9 Note Off - Duracao: 142800 Nota: C1 Vol.: 57
Chanel 9 Note On - Duracao: 142800 Nota: C1 Vol.: 62
Chanel 3 Note Off - Duracao: 142860 Nota: C1 Vol.: 98
Chanel 3 Note On - Duracao: 142860 Nota: C1 Vol.: 98
Chanel 2 Note Off - Duracao: 142920 Nota: C1 Vol.: 54
Chanel 2 Note On - Duracao: 142920 Nota: C1 Vol.: 56
Chanel 3 Note Off - Duracao: 142920 Nota: C1 Vol.: 98
Chanel 3 Note On - Duracao: 142920 Nota: C1 Vol.: 98
Chanel 5 Note Off - Duracao: 142920 Nota: C1 Vol.: 60
Chanel 5 Note On - Duracao: 142920 Nota: C1 Vol.: 57
Chanel 3 Note Off - Duracao: 142980 Nota: C1 Vol.: 98
Chanel 3 Note On - Duracao: 142980 Nota: C1 Vol.: 82
Chanel 8 Note Off - Duracao: 142980 Nota: C1 Vol.: 44
Chanel 8 Note On - Duracao: 142980 Nota: C1 Vol.: 46
Chanel 2 Note Off - Duracao: 143040 Nota: C1 Vol.: 56
Chanel 2 Note On - Duracao: 143040 Nota: C1 Vol.: 53
Chanel 9 Note Off - Duracao: 143040 Nota: C1 Vol.: 62
Chanel 9 Note On - Duracao: 143040 Nota: C1 Vol.: 60
Chanel 2 Note Off - Duracao: 143160 Nota: C1 Vol.: 53
Chanel 2 Note On - Duracao: 143160 Nota: C1 Vol.: 49
Chanel 1 Note Off - Duracao: 143220 Nota: C1 Vol.: 54
Chanel 1 Note On - Duracao: 143220 Nota: C1 Vol.: 57
Chanel 3 Note Off - Duracao: 143220 Nota: C1 Vol.: 82
Chanel 3 Note On - Duracao: 143220 Nota: C1 Vol.: 94
Chanel 2 Note Off - Duracao: 143280 Nota: C1 Vol.: 49
Chanel 2 Note On - Duracao: 143280 Nota: C1 Vol.: 45
Chanel 3 Note Off - Duracao: 143340 Nota: C1 Vol.: 94
Chanel 3 Note On - Duracao: 143340 Nota: C1 Vol.: 99
Chanel 2 Note Off - Duracao: 143400 Nota: C1 Vol.: 45
Chanel 2 Note On - Duracao: 143400 Nota: C1 Vol.: 46
Chanel 3 Note Off - Duracao: 143400 Nota: C1 Vol.: 99
Chanel 3 Note On - Duracao: 143400 Nota: C1 Vol.: 82
Chanel 5 Note Off - Duracao: 143400 Nota: C1 Vol.: 57
Chanel 5 Note On - Duracao: 143400 Nota: C1 Vol.: 58
Chanel 2 Note Off - Duracao: 143520 Nota: C1 Vol.: 46
Chanel 2 Note On - Duracao: 143520 Nota: C1 Vol.: 40
Chanel 9 Note Off - Duracao: 143520 Nota: C1 Vol.: 60
Chanel 9 Note On - Duracao: 143520 Nota: C1 Vol.: 53
Chanel 2 Note Off - Duracao: 143640 Nota: C1 Vol.: 40
Chanel 2 Note On - Duracao: 143640 Nota: C1 Vol.: 40
Chanel 3 Note Off - Duracao: 143640 Nota: C1 Vol.: 82
Chanel 3 Note On - Duracao: 143640 Nota: C1 Vol.: 80
Chanel 5 Note Off - Duracao: 143640 Nota: C1 Vol.: 58
Chanel 5 Note On - Duracao: 143640 Nota: C1 Vol.: 60
Chanel 1 Note Off - Duracao: 143700 Nota: C1 Vol.: 57
Chanel 1 Note On - Duracao: 143700 Nota: C1 Vol.: 54
Chanel 2 Note Off - Duracao: 143760 Nota: C1 Vol.: 40
Chanel 2 Note On - Duracao: 143760 Nota: C1 Vol.: 44
Chanel 2 Note Off - Duracao: 143880 Nota: C1 Vol.: 44
Chanel 2 Note On - Duracao: 143880 Nota: C1 Vol.: 52
Chanel 3 Note Off - Duracao: 143880 Nota: C1 Vol.: 80
Chanel 3 Note On - Duracao: 143880 Nota: C1 Vol.: 71
Chanel 5 Note Off - Duracao: 143880 Nota: C1 Vol.: 60
Chanel 5 Note On - Duracao: 143880 Nota: C1 Vol.: 59
Chanel 8 Note Off - Duracao: 143940 Nota: C1 Vol.: 46
Chanel 8 Note On - Duracao: 143940 Nota: C1 Vol.: 43
Chanel 2 Note Off - Duracao: 144000 Nota: C1 Vol.: 52
Chanel 2 Note On - Duracao: 144000 Nota: C1 Vol.: 48
Chanel 9 Note Off - Duracao: 144000 Nota: C1 Vol.: 53
Chanel 9 Note On - Duracao: 144000 Nota: C1 Vol.: 51
Chanel 3 Note Off - Duracao: 144120 Nota: C1 Vol.: 71
Chanel 3 Note On - Duracao: 144120 Nota: C1 Vol.: 71
Chanel 5 Note Off - Duracao: 144120 Nota: C1 Vol.: 59
Chanel 5 Note On - Duracao: 144120 Nota: C1 Vol.: 66
Chanel 1 Note Off - Duracao: 144180 Nota: C1 Vol.: 54
Chanel 1 Note On - Duracao: 144180 Nota: C1 Vol.: 54
Chanel 3 Note Off - Duracao: 144360 Nota: C1 Vol.: 71
Chanel 3 Note On - Duracao: 144360 Nota: C1 Vol.: 69
Chanel 5 Note Off - Duracao: 144360 Nota: C1 Vol.: 66
Chanel 5 Note On - Duracao: 144360 Nota: C1 Vol.: 66
Chanel 6 Note Off - Duracao: 144360 Nota: C1 Vol.: 66
Chanel 6 Note On - Duracao: 144360 Nota: C1 Vol.: 67
Chanel 2 Note Off - Duracao: 144480 Nota: C1 Vol.: 48
Chanel 2 Note On - Duracao: 144480 Nota: C1 Vol.: 40
Chanel 9 Note Off - Duracao: 144480 Nota: C1 Vol.: 51
Chanel 9 Note On - Duracao: 144480 Nota: C1 Vol.: 58
Chanel 3 Note Off - Duracao: 144600 Nota: C1 Vol.: 69
Chanel 3 Note On - Duracao: 144600 Nota: C1 Vol.: 59
Chanel 5 Note Off - Duracao: 144600 Nota: C1 Vol.: 66
Chanel 5 Note On - Duracao: 144600 Nota: C1 Vol.: 42
Chanel 1 Note Off - Duracao: 144660 Nota: C1 Vol.: 54
Chanel 1 Note On - Duracao: 144660 Nota: C1 Vol.: 67
Chanel 1 Note Off - Duracao: 144900 Nota: C1 Vol.: 67
Chanel 1 Note On - Duracao: 144900 Nota: C1 Vol.: 69
Chanel 8 Note Off - Duracao: 144900 Nota: C1 Vol.: 43
Chanel 8 Note On - Duracao: 144900 Nota: C1 Vol.: 60
Chanel 9 Note Off - Duracao: 144960 Nota: C1 Vol.: 58
Chanel 9 Note On - Duracao: 144960 Nota: C1 Vol.: 58
Chanel 3 Note Off - Duracao: 145080 Nota: C1 Vol.: 59
Chanel 3 Note On - Duracao: 145080 Nota: C1 Vol.: 40
Chanel 1 Note Off - Duracao: 145140 Nota: C1 Vol.: 69
Chanel 1 Note On - Duracao: 145140 Nota: C1 Vol.: 80
Chanel 1 Note Off - Duracao: 145260 Nota: C1 Vol.: 80
Chanel 1 Note On - Duracao: 145260 Nota: C1 Vol.: 76
Chanel 4 Note Off - Duracao: 145260 Nota: C1 Vol.: 42
Chanel 4 Note On - Duracao: 145260 Nota: C1 Vol.: 44
Chanel 1 Note Off - Duracao: 145380 Nota: C1 Vol.: 76
Chanel 1 Note On - Duracao: 145380 Nota: C1 Vol.: 68
Chanel 8 Note Off - Duracao: 145380 Nota: C1 Vol.: 60
Chanel 8 Note On - Duracao: 145380 Nota: C1 Vol.: 65
Chanel 2 Note Off - Duracao: 145440 Nota: C1 Vol.: 40
Chanel 2 Note On - Duracao: 145440 Nota: C1 Vol.: 70
Chanel 9 Note Off - Duracao: 145440 Nota: C1 Vol.: 58
Chanel 9 Note On - Duracao: 145440 Nota: C1 Vol.: 61
Chanel 5 Note Off - Duracao: 145560 Nota: C1 Vol.: 42
Chanel 5 Note On - Duracao: 145560 Nota: C1 Vol.: 59
Chanel 1 Note Off - Duracao: 145620 Nota: C1 Vol.: 68
Chanel 1 Note On - Duracao: 145620 Nota: C1 Vol.: 63
Chanel 8 Note Off - Duracao: 145620 Nota: C1 Vol.: 65
Chanel 8 Note On - Duracao: 145620 Nota: C1 Vol.: 67
Chanel 2 Note Off - Duracao: 145680 Nota: C1 Vol.: 70
Chanel 2 Note On - Duracao: 145680 Nota: C1 Vol.: 68
Chanel 1 Note Off - Duracao: 145860 Nota: C1 Vol.: 63
Chanel 1 Note On - Duracao: 145860 Nota: C1 Vol.: 69
Chanel 8 Note Off - Duracao: 145860 Nota: C1 Vol.: 67
Chanel 8 Note On - Duracao: 145860 Nota: C1 Vol.: 73
Chanel 2 Note Off - Duracao: 145920 Nota: C1 Vol.: 68
Chanel 2 Note On - Duracao: 145920 Nota: C1 Vol.: 57
Chanel 9 Note Off - Duracao: 145920 Nota: C1 Vol.: 61
Chanel 9 Note On - Duracao: 145920 Nota: C1 Vol.: 83
Chanel 1 Note Off - Duracao: 145980 Nota: C1 Vol.: 69
Chanel 1 Note On - Duracao: 145980 Nota: C1 Vol.: 62
Chanel 5 Note Off - Duracao: 146040 Nota: C1 Vol.: 59
Chanel 5 Note On - Duracao: 146040 Nota: C1 Vol.: 64
Chanel 7 Note Off - Duracao: 146100 Nota: C1 Vol.: 53
Chanel 7 Note On - Duracao: 146100 Nota: C1 Vol.: 51
Chanel 8 Note Off - Duracao: 146100 Nota: C1 Vol.: 73
Chanel 8 Note On - Duracao: 146100 Nota: C1 Vol.: 66
Chanel 9 Note Off - Duracao: 146160 Nota: C1 Vol.: 83
Chanel 9 Note On - Duracao: 146160 Nota: C1 Vol.: 84
Chanel 1 Note Off - Duracao: 146220 Nota: C1 Vol.: 62
Chanel 1 Note On - Duracao: 146220 Nota: C1 Vol.: 68
Chanel 5 Note Off - Duracao: 146280 Nota: C1 Vol.: 64
Chanel 5 Note On - Duracao: 146280 Nota: C1 Vol.: 71
Chanel 6 Note Off - Duracao: 146280 Nota: C1 Vol.: 67
Chanel 6 Note On - Duracao: 146280 Nota: C1 Vol.: 67
Chanel 8 Note Off - Duracao: 146340 Nota: C1 Vol.: 66
Chanel 8 Note On - Duracao: 146340 Nota: C1 Vol.: 60
Chanel 2 Note Off - Duracao: 146400 Nota: C1 Vol.: 57
Chanel 2 Note On - Duracao: 146400 Nota: C1 Vol.: 67
Chanel 5 Note Off - Duracao: 146400 Nota: C1 Vol.: 71
Chanel 5 Note On - Duracao: 146400 Nota: C1 Vol.: 70
Chanel 9 Note Off - Duracao: 146400 Nota: C1 Vol.: 84
Chanel 9 Note On - Duracao: 146400 Nota: C1 Vol.: 87
Chanel 1 Note Off - Duracao: 146460 Nota: C1 Vol.: 68
Chanel 1 Note On - Duracao: 146460 Nota: C1 Vol.: 78
Chanel 1 Note Off - Duracao: 146580 Nota: C1 Vol.: 78
Chanel 1 Note On - Duracao: 146580 Nota: C1 Vol.: 86
Chanel 1 Note Off - Duracao: 146640 Nota: C1 Vol.: 86
Chanel 1 Note On - Duracao: 146640 Nota: C1 Vol.: 92
Chanel 5 Note Off - Duracao: 146640 Nota: C1 Vol.: 70
Chanel 5 Note On - Duracao: 146640 Nota: C1 Vol.: 70
Chanel 9 Note Off - Duracao: 146640 Nota: C1 Vol.: 87
Chanel 9 Note On - Duracao: 146640 Nota: C1 Vol.: 90
Chanel 1 Note Off - Duracao: 146700 Nota: C1 Vol.: 92
Chanel 1 Note On - Duracao: 146700 Nota: C1 Vol.: 91
Chanel 9 Note Off - Duracao: 146760 Nota: C1 Vol.: 90
Chanel 9 Note On - Duracao: 146760 Nota: C1 Vol.: 91
Chanel 1 Note Off - Duracao: 146820 Nota: C1 Vol.: 91
Chanel 1 Note On - Duracao: 146820 Nota: C1 Vol.: 92
Chanel 8 Note Off - Duracao: 146820 Nota: C1 Vol.: 60
Chanel 8 Note On - Duracao: 146820 Nota: C1 Vol.: 61
Chanel 2 Note Off - Duracao: 146880 Nota: C1 Vol.: 67
Chanel 2 Note On - Duracao: 146880 Nota: C1 Vol.: 67
Chanel 5 Note Off - Duracao: 146880 Nota: C1 Vol.: 70
Chanel 5 Note On - Duracao: 146880 Nota: C1 Vol.: 69
Chanel 9 Note Off - Duracao: 146880 Nota: C1 Vol.: 91
Chanel 9 Note On - Duracao: 146880 Nota: C1 Vol.: 92
Chanel 1 Note Off - Duracao: 146940 Nota: C1 Vol.: 92
Chanel 1 Note On - Duracao: 146940 Nota: C1 Vol.: 89
Chanel 3 Note Off - Duracao: 147000 Nota: C1 Vol.: 40
Chanel 3 Note On - Duracao: 147000 Nota: C1 Vol.: 40
Chanel 9 Note Off - Duracao: 147000 Nota: C1 Vol.: 92
Chanel 9 Note On - Duracao: 147000 Nota: C1 Vol.: 88
Chanel 1 Note Off - Duracao: 147060 Nota: C1 Vol.: 89
Chanel 1 Note On - Duracao: 147060 Nota: C1 Vol.: 95
Chanel 1 Note Off - Duracao: 147120 Nota: C1 Vol.: 95
Chanel 1 Note On - Duracao: 147120 Nota: C1 Vol.: 95
Chanel 5 Note Off - Duracao: 147120 Nota: C1 Vol.: 69
Chanel 5 Note On - Duracao: 147120 Nota: C1 Vol.: 71
Chanel 9 Note Off - Duracao: 147120 Nota: C1 Vol.: 88
Chanel 9 Note On - Duracao: 147120 Nota: C1 Vol.: 89
Chanel 1 Note Off - Duracao: 147180 Nota: C1 Vol.: 95
Chanel 1 Note On - Duracao: 147180 Nota: C1 Vol.: 89
Chanel 4 Note Off - Duracao: 147180 Nota: C1 Vol.: 44
Chanel 4 Note On - Duracao: 147180 Nota: C1 Vol.: 79
Chanel 5 Note Off - Duracao: 147240 Nota: C1 Vol.: 71
Chanel 5 Note On - Duracao: 147240 Nota: C1 Vol.: 70
Chanel 9 Note Off - Duracao: 147240 Nota: C1 Vol.: 89
Chanel 9 Note On - Duracao: 147240 Nota: C1 Vol.: 87
Chanel 1 Note Off - Duracao: 147300 Nota: C1 Vol.: 89
Chanel 1 Note On - Duracao: 147300 Nota: C1 Vol.: 41
Chanel 8 Note Off - Duracao: 147300 Nota: C1 Vol.: 61
Chanel 8 Note On - Duracao: 147300 Nota: C1 Vol.: 54
Chanel 2 Note Off - Duracao: 147360 Nota: C1 Vol.: 67
Chanel 2 Note On - Duracao: 147360 Nota: C1 Vol.: 68
Chanel 5 Note Off - Duracao: 147360 Nota: C1 Vol.: 70
Chanel 5 Note On - Duracao: 147360 Nota: C1 Vol.: 68
Chanel 9 Note Off - Duracao: 147360 Nota: C1 Vol.: 87
Chanel 9 Note On - Duracao: 147360 Nota: C1 Vol.: 80
Chanel 4 Note Off - Duracao: 147420 Nota: C1 Vol.: 79
Chanel 4 Note On - Duracao: 147420 Nota: C1 Vol.: 87
Chanel 4 Note Off - Duracao: 147540 Nota: C1 Vol.: 87
Chanel 4 Note On - Duracao: 147540 Nota: C1 Vol.: 77
Chanel 5 Note Off - Duracao: 147600 Nota: C1 Vol.: 68
Chanel 5 Note On - Duracao: 147600 Nota: C1 Vol.: 70
Chanel 9 Note Off - Duracao: 147600 Nota: C1 Vol.: 80
Chanel 9 Note On - Duracao: 147600 Nota: C1 Vol.: 64
Chanel 4 Note Off - Duracao: 147780 Nota: C1 Vol.: 77
Chanel 4 Note On - Duracao: 147780 Nota: C1 Vol.: 60
Chanel 8 Note Off - Duracao: 147780 Nota: C1 Vol.: 54
Chanel 8 Note On - Duracao: 147780 Nota: C1 Vol.: 67
Chanel 2 Note Off - Duracao: 147840 Nota: C1 Vol.: 68
Chanel 2 Note On - Duracao: 147840 Nota: C1 Vol.: 69
Chanel 5 Note Off - Duracao: 147840 Nota: C1 Vol.: 70
Chanel 5 Note On - Duracao: 147840 Nota: C1 Vol.: 72
Chanel 5 Note Off - Duracao: 147960 Nota: C1 Vol.: 72
Chanel 5 Note On - Duracao: 147960 Nota: C1 Vol.: 73
Chanel 9 Note Off - Duracao: 148080 Nota: C1 Vol.: 64
Chanel 9 Note On - Duracao: 148080 Nota: C1 Vol.: 56
Chanel 5 Note Off - Duracao: 148200 Nota: C1 Vol.: 73
Chanel 5 Note On - Duracao: 148200 Nota: C1 Vol.: 40
Chanel 6 Note Off - Duracao: 148200 Nota: C1 Vol.: 67
Chanel 6 Note On - Duracao: 148200 Nota: C1 Vol.: 62
Chanel 8 Note Off - Duracao: 148260 Nota: C1 Vol.: 67
Chanel 8 Note On - Duracao: 148260 Nota: C1 Vol.: 63
Chanel 2 Note Off - Duracao: 148320 Nota: C1 Vol.: 69
Chanel 2 Note On - Duracao: 148320 Nota: C1 Vol.: 68
Chanel 4 Note Off - Duracao: 148740 Nota: C1 Vol.: 60
Chanel 4 Note On - Duracao: 148740 Nota: C1 Vol.: 88
Chanel 8 Note Off - Duracao: 148740 Nota: C1 Vol.: 63
Chanel 8 Note On - Duracao: 148740 Nota: C1 Vol.: 71
Chanel 4 Note Off - Duracao: 148860 Nota: C1 Vol.: 88
Chanel 4 Note On - Duracao: 148860 Nota: C1 Vol.: 60
Chanel 3 Note Off - Duracao: 148920 Nota: C1 Vol.: 40
Chanel 3 Note On - Duracao: 148920 Nota: C1 Vol.: 40
Chanel 8 Note Off - Duracao: 148980 Nota: C1 Vol.: 71
Chanel 8 Note On - Duracao: 148980 Nota: C1 Vol.: 69
Chanel 9 Note Off - Duracao: 149040 Nota: C1 Vol.: 56
Chanel 9 Note On - Duracao: 149040 Nota: C1 Vol.: 55
Chanel 1 Note Off - Duracao: 149220 Nota: C1 Vol.: 41
Chanel 1 Note On - Duracao: 149220 Nota: C1 Vol.: 56
Chanel 8 Note Off - Duracao: 149220 Nota: C1 Vol.: 69
Chanel 8 Note On - Duracao: 149220 Nota: C1 Vol.: 70
Chanel 2 Note Off - Duracao: 149280 Nota: C1 Vol.: 68
Chanel 2 Note On - Duracao: 149280 Nota: C1 Vol.: 74
Chanel 1 Note Off - Duracao: 149460 Nota: C1 Vol.: 56
Chanel 1 Note On - Duracao: 149460 Nota: C1 Vol.: 54
Chanel 8 Note Off - Duracao: 149460 Nota: C1 Vol.: 70
Chanel 8 Note On - Duracao: 149460 Nota: C1 Vol.: 72
Chanel 1 Note Off - Duracao: 149700 Nota: C1 Vol.: 54
Chanel 1 Note On - Duracao: 149700 Nota: C1 Vol.: 56
Chanel 8 Note Off - Duracao: 149700 Nota: C1 Vol.: 72
Chanel 8 Note On - Duracao: 149700 Nota: C1 Vol.: 68
Chanel 2 Note Off - Duracao: 149760 Nota: C1 Vol.: 74
Chanel 2 Note On - Duracao: 149760 Nota: C1 Vol.: 70
Chanel 4 Note Off - Duracao: 149820 Nota: C1 Vol.: 60
Chanel 4 Note On - Duracao: 149820 Nota: C1 Vol.: 64
Chanel 3 Note Off - Duracao: 149880 Nota: C1 Vol.: 40
Chanel 3 Note On - Duracao: 149880 Nota: C1 Vol.: 49
Chanel 1 Note Off - Duracao: 149940 Nota: C1 Vol.: 56
Chanel 1 Note On - Duracao: 149940 Nota: C1 Vol.: 46
Chanel 7 Note Off - Duracao: 149940 Nota: C1 Vol.: 51
Chanel 7 Note On - Duracao: 149940 Nota: C1 Vol.: 54
Chanel 9 Note Off - Duracao: 150000 Nota: C1 Vol.: 55
Chanel 9 Note On - Duracao: 150000 Nota: C1 Vol.: 52
Chanel 3 Note Off - Duracao: 150120 Nota: C1 Vol.: 49
Chanel 3 Note On - Duracao: 150120 Nota: C1 Vol.: 46
Chanel 5 Note Off - Duracao: 150120 Nota: C1 Vol.: 40
Chanel 5 Note On - Duracao: 150120 Nota: C1 Vol.: 40
Chanel 6 Note Off - Duracao: 150120 Nota: C1 Vol.: 62
Chanel 6 Note On - Duracao: 150120 Nota: C1 Vol.: 54
Chanel 8 Note Off - Duracao: 150180 Nota: C1 Vol.: 68
Chanel 8 Note On - Duracao: 150180 Nota: C1 Vol.: 74
Chanel 4 Note Off - Duracao: 150300 Nota: C1 Vol.: 64
Chanel 4 Note On - Duracao: 150300 Nota: C1 Vol.: 82
Chanel 3 Note Off - Duracao: 150360 Nota: C1 Vol.: 46
Chanel 3 Note On - Duracao: 150360 Nota: C1 Vol.: 49
Chanel 1 Note Off - Duracao: 150420 Nota: C1 Vol.: 46
Chanel 1 Note On - Duracao: 150420 Nota: C1 Vol.: 40
Chanel 4 Note Off - Duracao: 150420 Nota: C1 Vol.: 82
Chanel 4 Note On - Duracao: 150420 Nota: C1 Vol.: 49
Chanel 8 Note Off - Duracao: 150420 Nota: C1 Vol.: 74
Chanel 8 Note On - Duracao: 150420 Nota: C1 Vol.: 74
Chanel 3 Note Off - Duracao: 150480 Nota: C1 Vol.: 49
Chanel 3 Note On - Duracao: 150480 Nota: C1 Vol.: 51
Chanel 8 Note Off - Duracao: 150660 Nota: C1 Vol.: 74
Chanel 8 Note On - Duracao: 150660 Nota: C1 Vol.: 75
Chanel 2 Note Off - Duracao: 150720 Nota: C1 Vol.: 70
Chanel 2 Note On - Duracao: 150720 Nota: C1 Vol.: 61
Chanel 3 Note Off - Duracao: 150720 Nota: C1 Vol.: 51
Chanel 3 Note On - Duracao: 150720 Nota: C1 Vol.: 47
Chanel 8 Note Off - Duracao: 150900 Nota: C1 Vol.: 75
Chanel 8 Note On - Duracao: 150900 Nota: C1 Vol.: 86
Chanel 9 Note Off - Duracao: 150960 Nota: C1 Vol.: 52
Chanel 9 Note On - Duracao: 150960 Nota: C1 Vol.: 50
Chanel 8 Note Off - Duracao: 151020 Nota: C1 Vol.: 86
Chanel 8 Note On - Duracao: 151020 Nota: C1 Vol.: 78
Chanel 3 Note Off - Duracao: 151200 Nota: C1 Vol.: 47
Chanel 3 Note On - Duracao: 151200 Nota: C1 Vol.: 40
Chanel 8 Note Off - Duracao: 151260 Nota: C1 Vol.: 78
Chanel 8 Note On - Duracao: 151260 Nota: C1 Vol.: 67
Chanel 1 Note Off - Duracao: 151380 Nota: C1 Vol.: 40
Chanel 1 Note On - Duracao: 151380 Nota: C1 Vol.: 65
Chanel 1 Note Off - Duracao: 151500 Nota: C1 Vol.: 65
Chanel 1 Note On - Duracao: 151500 Nota: C1 Vol.: 56
Chanel 2 Note Off - Duracao: 151680 Nota: C1 Vol.: 61
Chanel 2 Note On - Duracao: 151680 Nota: C1 Vol.: 74
Chanel 1 Note Off - Duracao: 151740 Nota: C1 Vol.: 56
Chanel 1 Note On - Duracao: 151740 Nota: C1 Vol.: 72
Chanel 8 Note Off - Duracao: 151740 Nota: C1 Vol.: 67
Chanel 8 Note On - Duracao: 151740 Nota: C1 Vol.: 65
Chanel 1 Note Off - Duracao: 151860 Nota: C1 Vol.: 72
Chanel 1 Note On - Duracao: 151860 Nota: C1 Vol.: 85
Chanel 1 Note Off - Duracao: 151920 Nota: C1 Vol.: 85
Chanel 1 Note On - Duracao: 151920 Nota: C1 Vol.: 75
Chanel 2 Note Off - Duracao: 151920 Nota: C1 Vol.: 74
Chanel 2 Note On - Duracao: 151920 Nota: C1 Vol.: 76
Chanel 9 Note Off - Duracao: 151920 Nota: C1 Vol.: 50
Chanel 9 Note On - Duracao: 151920 Nota: C1 Vol.: 49
Chanel 1 Note Off - Duracao: 152040 Nota: C1 Vol.: 75
Chanel 1 Note On - Duracao: 152040 Nota: C1 Vol.: 85
Chanel 1 Note Off - Duracao: 152100 Nota: C1 Vol.: 85
Chanel 1 Note On - Duracao: 152100 Nota: C1 Vol.: 73
Chanel 2 Note Off - Duracao: 152160 Nota: C1 Vol.: 76
Chanel 2 Note On - Duracao: 152160 Nota: C1 Vol.: 70
Chanel 1 Note Off - Duracao: 152220 Nota: C1 Vol.: 73
Chanel 1 Note On - Duracao: 152220 Nota: C1 Vol.: 54
Chanel 8 Note Off - Duracao: 152220 Nota: C1 Vol.: 65
Chanel 8 Note On - Duracao: 152220 Nota: C1 Vol.: 66
Chanel 4 Note Off - Duracao: 152340 Nota: C1 Vol.: 49
Chanel 4 Note On - Duracao: 152340 Nota: C1 Vol.: 43
Chanel 2 Note Off - Duracao: 152400 Nota: C1 Vol.: 70
Chanel 2 Note On - Duracao: 152400 Nota: C1 Vol.: 83
Chanel 1 Note Off - Duracao: 152460 Nota: C1 Vol.: 54
Chanel 1 Note On - Duracao: 152460 Nota: C1 Vol.: 62
Chanel 1 Note Off - Duracao: 152580 Nota: C1 Vol.: 62
Chanel 1 Note On - Duracao: 152580 Nota: C1 Vol.: 60
Chanel 2 Note Off - Duracao: 152640 Nota: C1 Vol.: 83
Chanel 2 Note On - Duracao: 152640 Nota: C1 Vol.: 87
Chanel 1 Note Off - Duracao: 152700 Nota: C1 Vol.: 60
Chanel 1 Note On - Duracao: 152700 Nota: C1 Vol.: 51
Chanel 8 Note Off - Duracao: 152700 Nota: C1 Vol.: 66
Chanel 8 Note On - Duracao: 152700 Nota: C1 Vol.: 65
Chanel 1 Note Off - Duracao: 152820 Nota: C1 Vol.: 51
Chanel 1 Note On - Duracao: 152820 Nota: C1 Vol.: 51
Chanel 2 Note Off - Duracao: 152880 Nota: C1 Vol.: 87
Chanel 2 Note On - Duracao: 152880 Nota: C1 Vol.: 86
Chanel 9 Note Off - Duracao: 152880 Nota: C1 Vol.: 49
Chanel 9 Note On - Duracao: 152880 Nota: C1 Vol.: 48
Chanel 1 Note Off - Duracao: 152940 Nota: C1 Vol.: 51
Chanel 1 Note On - Duracao: 152940 Nota: C1 Vol.: 46
Chanel 1 Note Off - Duracao: 153060 Nota: C1 Vol.: 46
Chanel 1 Note On - Duracao: 153060 Nota: C1 Vol.: 41
Chanel 2 Note Off - Duracao: 153120 Nota: C1 Vol.: 86
Chanel 2 Note On - Duracao: 153120 Nota: C1 Vol.: 76
Chanel 3 Note Off - Duracao: 153120 Nota: C1 Vol.: 40
Chanel 3 Note On - Duracao: 153120 Nota: C1 Vol.: 50
Chanel 1 Note Off - Duracao: 153180 Nota: C1 Vol.: 41
Chanel 1 Note On - Duracao: 153180 Nota: C1 Vol.: 44
Chanel 8 Note Off - Duracao: 153180 Nota: C1 Vol.: 65
Chanel 8 Note On - Duracao: 153180 Nota: C1 Vol.: 61
Chanel 1 Note Off - Duracao: 153300 Nota: C1 Vol.: 44
Chanel 1 Note On - Duracao: 153300 Nota: C1 Vol.: 53
Chanel 1 Note Off - Duracao: 153420 Nota: C1 Vol.: 53
Chanel 1 Note On - Duracao: 153420 Nota: C1 Vol.: 58
Chanel 1 Note Off - Duracao: 153540 Nota: C1 Vol.: 58
Chanel 1 Note On - Duracao: 153540 Nota: C1 Vol.: 40
Chanel 2 Note Off - Duracao: 153600 Nota: C1 Vol.: 76
Chanel 2 Note On - Duracao: 153600 Nota: C1 Vol.: 79
Chanel 7 Note Off - Duracao: 153780 Nota: C1 Vol.: 54
Chanel 7 Note On - Duracao: 153780 Nota: C1 Vol.: 54
Chanel 2 Note Off - Duracao: 153840 Nota: C1 Vol.: 79
Chanel 2 Note On - Duracao: 153840 Nota: C1 Vol.: 80
Chanel 9 Note Off - Duracao: 153840 Nota: C1 Vol.: 48
Chanel 9 Note On - Duracao: 153840 Nota: C1 Vol.: 54
Chanel 5 Note Off - Duracao: 153960 Nota: C1 Vol.: 40
Chanel 5 Note On - Duracao: 153960 Nota: C1 Vol.: 45
Chanel 6 Note Off - Duracao: 153960 Nota: C1 Vol.: 54
Chanel 6 Note On - Duracao: 153960 Nota: C1 Vol.: 60
Chanel 2 Note Off - Duracao: 154080 Nota: C1 Vol.: 80
Chanel 2 Note On - Duracao: 154080 Nota: C1 Vol.: 81
Chanel 3 Note Off - Duracao: 154080 Nota: C1 Vol.: 50
Chanel 3 Note On - Duracao: 154080 Nota: C1 Vol.: 75
Chanel 8 Note Off - Duracao: 154140 Nota: C1 Vol.: 61
Chanel 8 Note On - Duracao: 154140 Nota: C1 Vol.: 71
Chanel 4 Note Off - Duracao: 154260 Nota: C1 Vol.: 43
Chanel 4 Note On - Duracao: 154260 Nota: C1 Vol.: 43
Chanel 2 Note Off - Duracao: 154320 Nota: C1 Vol.: 81
Chanel 2 Note On - Duracao: 154320 Nota: C1 Vol.: 82
Chanel 3 Note Off - Duracao: 154320 Nota: C1 Vol.: 75
Chanel 3 Note On - Duracao: 154320 Nota: C1 Vol.: 79
Chanel 1 Note Off - Duracao: 154500 Nota: C1 Vol.: 40
Chanel 1 Note On - Duracao: 154500 Nota: C1 Vol.: 60
Chanel 2 Note Off - Duracao: 154560 Nota: C1 Vol.: 82
Chanel 2 Note On - Duracao: 154560 Nota: C1 Vol.: 86
Chanel 3 Note Off - Duracao: 154560 Nota: C1 Vol.: 79
Chanel 3 Note On - Duracao: 154560 Nota: C1 Vol.: 70
Chanel 8 Note Off - Duracao: 154620 Nota: C1 Vol.: 71
Chanel 8 Note On - Duracao: 154620 Nota: C1 Vol.: 74
Chanel 2 Note Off - Duracao: 154800 Nota: C1 Vol.: 86
Chanel 2 Note On - Duracao: 154800 Nota: C1 Vol.: 83
Chanel 9 Note Off - Duracao: 154800 Nota: C1 Vol.: 54
Chanel 9 Note On - Duracao: 154800 Nota: C1 Vol.: 61
Chanel 1 Note Off - Duracao: 154980 Nota: C1 Vol.: 60
Chanel 1 Note On - Duracao: 154980 Nota: C1 Vol.: 92
Chanel 1 Note Off - Duracao: 155040 Nota: C1 Vol.: 92
Chanel 1 Note On - Duracao: 155040 Nota: C1 Vol.: 95
Chanel 2 Note Off - Duracao: 155040 Nota: C1 Vol.: 83
Chanel 2 Note On - Duracao: 155040 Nota: C1 Vol.: 82
Chanel 3 Note Off - Duracao: 155040 Nota: C1 Vol.: 70
Chanel 3 Note On - Duracao: 155040 Nota: C1 Vol.: 67
Chanel 1 Note Off - Duracao: 155100 Nota: C1 Vol.: 95
Chanel 1 Note On - Duracao: 155100 Nota: C1 Vol.: 85
Chanel 8 Note Off - Duracao: 155100 Nota: C1 Vol.: 74
Chanel 8 Note On - Duracao: 155100 Nota: C1 Vol.: 66
Chanel 1 Note Off - Duracao: 155220 Nota: C1 Vol.: 85
Chanel 1 Note On - Duracao: 155220 Nota: C1 Vol.: 83
Chanel 2 Note Off - Duracao: 155280 Nota: C1 Vol.: 82
Chanel 2 Note On - Duracao: 155280 Nota: C1 Vol.: 79
Chanel 9 Note Off - Duracao: 155280 Nota: C1 Vol.: 61
Chanel 9 Note On - Duracao: 155280 Nota: C1 Vol.: 68
Chanel 1 Note Off - Duracao: 155460 Nota: C1 Vol.: 83
Chanel 1 Note On - Duracao: 155460 Nota: C1 Vol.: 77
Chanel 2 Note Off - Duracao: 155520 Nota: C1 Vol.: 79
Chanel 2 Note On - Duracao: 155520 Nota: C1 Vol.: 81
Chanel 3 Note Off - Duracao: 155520 Nota: C1 Vol.: 67
Chanel 3 Note On - Duracao: 155520 Nota: C1 Vol.: 56
Chanel 9 Note Off - Duracao: 155520 Nota: C1 Vol.: 68
Chanel 9 Note On - Duracao: 155520 Nota: C1 Vol.: 63
Chanel 1 Note Off - Duracao: 155700 Nota: C1 Vol.: 77
Chanel 1 Note On - Duracao: 155700 Nota: C1 Vol.: 88
Chanel 2 Note Off - Duracao: 155760 Nota: C1 Vol.: 81
Chanel 2 Note On - Duracao: 155760 Nota: C1 Vol.: 84
Chanel 9 Note Off - Duracao: 155760 Nota: C1 Vol.: 63
Chanel 9 Note On - Duracao: 155760 Nota: C1 Vol.: 54
Chanel 1 Note Off - Duracao: 155820 Nota: C1 Vol.: 88
Chanel 1 Note On - Duracao: 155820 Nota: C1 Vol.: 82
Chanel 5 Note Off - Duracao: 155880 Nota: C1 Vol.: 45
Chanel 5 Note On - Duracao: 155880 Nota: C1 Vol.: 48
Chanel 6 Note Off - Duracao: 155880 Nota: C1 Vol.: 60
Chanel 6 Note On - Duracao: 155880 Nota: C1 Vol.: 56
Chanel 2 Note Off - Duracao: 156000 Nota: C1 Vol.: 84
Chanel 2 Note On - Duracao: 156000 Nota: C1 Vol.: 83
Chanel 1 Note Off - Duracao: 156060 Nota: C1 Vol.: 82
Chanel 1 Note On - Duracao: 156060 Nota: C1 Vol.: 75
Chanel 8 Note Off - Duracao: 156060 Nota: C1 Vol.: 66
Chanel 8 Note On - Duracao: 156060 Nota: C1 Vol.: 69
Chanel 4 Note Off - Duracao: 156180 Nota: C1 Vol.: 43
Chanel 4 Note On - Duracao: 156180 Nota: C1 Vol.: 43
Chanel 2 Note Off - Duracao: 156240 Nota: C1 Vol.: 83
Chanel 2 Note On - Duracao: 156240 Nota: C1 Vol.: 75
Chanel 9 Note Off - Duracao: 156240 Nota: C1 Vol.: 54
Chanel 9 Note On - Duracao: 156240 Nota: C1 Vol.: 44
Chanel 3 Note Off - Duracao: 156480 Nota: C1 Vol.: 56
Chanel 3 Note On - Duracao: 156480 Nota: C1 Vol.: 41
Chanel 1 Note Off - Duracao: 156540 Nota: C1 Vol.: 75
Chanel 1 Note On - Duracao: 156540 Nota: C1 Vol.: 78
Chanel 2 Note Off - Duracao: 156720 Nota: C1 Vol.: 75
Chanel 2 Note On - Duracao: 156720 Nota: C1 Vol.: 75
Chanel 1 Note Off - Duracao: 156780 Nota: C1 Vol.: 78
Chanel 1 Note On - Duracao: 156780 Nota: C1 Vol.: 79
Chanel 1 Note Off - Duracao: 157020 Nota: C1 Vol.: 79
Chanel 1 Note On - Duracao: 157020 Nota: C1 Vol.: 75
Chanel 8 Note Off - Duracao: 157020 Nota: C1 Vol.: 69
Chanel 8 Note On - Duracao: 157020 Nota: C1 Vol.: 68
Chanel 2 Note Off - Duracao: 157200 Nota: C1 Vol.: 75
Chanel 2 Note On - Duracao: 157200 Nota: C1 Vol.: 75
Chanel 9 Note Off - Duracao: 157200 Nota: C1 Vol.: 44
Chanel 9 Note On - Duracao: 157200 Nota: C1 Vol.: 56
Chanel 1 Note Off - Duracao: 157260 Nota: C1 Vol.: 75
Chanel 1 Note On - Duracao: 157260 Nota: C1 Vol.: 71
Chanel 7 Note Off - Duracao: 157620 Nota: C1 Vol.: 54
Chanel 7 Note On - Duracao: 157620 Nota: C1 Vol.: 52
Chanel 2 Note Off - Duracao: 157680 Nota: C1 Vol.: 75
Chanel 2 Note On - Duracao: 157680 Nota: C1 Vol.: 75
Chanel 9 Note Off - Duracao: 157680 Nota: C1 Vol.: 56
Chanel 9 Note On - Duracao: 157680 Nota: C1 Vol.: 58
Chanel 1 Note Off - Duracao: 157740 Nota: C1 Vol.: 71
Chanel 1 Note On - Duracao: 157740 Nota: C1 Vol.: 64
Chanel 5 Note Off - Duracao: 157800 Nota: C1 Vol.: 48
Chanel 5 Note On - Duracao: 157800 Nota: C1 Vol.: 45
Chanel 6 Note Off - Duracao: 157800 Nota: C1 Vol.: 56
Chanel 6 Note On - Duracao: 157800 Nota: C1 Vol.: 84
Chanel 2 Note Off - Duracao: 157920 Nota: C1 Vol.: 75
Chanel 2 Note On - Duracao: 157920 Nota: C1 Vol.: 82
Chanel 8 Note Off - Duracao: 157980 Nota: C1 Vol.: 68
Chanel 8 Note On - Duracao: 157980 Nota: C1 Vol.: 65
Chanel 2 Note Off - Duracao: 158040 Nota: C1 Vol.: 82
Chanel 2 Note On - Duracao: 158040 Nota: C1 Vol.: 82
Chanel 6 Note Off - Duracao: 158040 Nota: C1 Vol.: 84
Chanel 6 Note On - Duracao: 158040 Nota: C1 Vol.: 87
Chanel 4 Note Off - Duracao: 158100 Nota: C1 Vol.: 43
Chanel 4 Note On - Duracao: 158100 Nota: C1 Vol.: 50
Chanel 2 Note Off - Duracao: 158160 Nota: C1 Vol.: 82
Chanel 2 Note On - Duracao: 158160 Nota: C1 Vol.: 91
Chanel 9 Note Off - Duracao: 158160 Nota: C1 Vol.: 58
Chanel 9 Note On - Duracao: 158160 Nota: C1 Vol.: 61
Chanel 1 Note Off - Duracao: 158220 Nota: C1 Vol.: 64
Chanel 1 Note On - Duracao: 158220 Nota: C1 Vol.: 71
Chanel 2 Note Off - Duracao: 158280 Nota: C1 Vol.: 91
Chanel 2 Note On - Duracao: 158280 Nota: C1 Vol.: 90
Chanel 6 Note Off - Duracao: 158280 Nota: C1 Vol.: 87
Chanel 6 Note On - Duracao: 158280 Nota: C1 Vol.: 89
Chanel 2 Note Off - Duracao: 158400 Nota: C1 Vol.: 90
Chanel 2 Note On - Duracao: 158400 Nota: C1 Vol.: 91
Chanel 3 Note Off - Duracao: 158400 Nota: C1 Vol.: 41
Chanel 3 Note On - Duracao: 158400 Nota: C1 Vol.: 40
Chanel 1 Note Off - Duracao: 158460 Nota: C1 Vol.: 71
Chanel 1 Note On - Duracao: 158460 Nota: C1 Vol.: 62
Chanel 2 Note Off - Duracao: 158520 Nota: C1 Vol.: 91
Chanel 2 Note On - Duracao: 158520 Nota: C1 Vol.: 93
Chanel 6 Note Off - Duracao: 158520 Nota: C1 Vol.: 89
Chanel 6 Note On - Duracao: 158520 Nota: C1 Vol.: 70
Chanel 2 Note Off - Duracao: 158580 Nota: C1 Vol.: 93
Chanel 2 Note On - Duracao: 158580 Nota: C1 Vol.: 96
Chanel 2 Note Off - Duracao: 158640 Nota: C1 Vol.: 96
Chanel 2 Note On - Duracao: 158640 Nota: C1 Vol.: 98
Chanel 9 Note Off - Duracao: 158640 Nota: C1 Vol.: 61
Chanel 9 Note On - Duracao: 158640 Nota: C1 Vol.: 62
Chanel 1 Note Off - Duracao: 158700 Nota: C1 Vol.: 62
Chanel 1 Note On - Duracao: 158700 Nota: C1 Vol.: 66
Chanel 2 Note Off - Duracao: 158700 Nota: C1 Vol.: 98
Chanel 2 Note On - Duracao: 158700 Nota: C1 Vol.: 95
Chanel 2 Note Off - Duracao: 158760 Nota: C1 Vol.: 95
Chanel 2 Note On - Duracao: 158760 Nota: C1 Vol.: 89
Chanel 1 Note Off - Duracao: 158820 Nota: C1 Vol.: 66
Chanel 1 Note On - Duracao: 158820 Nota: C1 Vol.: 64
Chanel 2 Note Off - Duracao: 158820 Nota: C1 Vol.: 89
Chanel 2 Note On - Duracao: 158820 Nota: C1 Vol.: 83
Chanel 2 Note Off - Duracao: 158940 Nota: C1 Vol.: 83
Chanel 2 Note On - Duracao: 158940 Nota: C1 Vol.: 66
Chanel 8 Note Off - Duracao: 158940 Nota: C1 Vol.: 65
Chanel 8 Note On - Duracao: 158940 Nota: C1 Vol.: 72
Chanel 1 Note Off - Duracao: 159060 Nota: C1 Vol.: 64
Chanel 1 Note On - Duracao: 159060 Nota: C1 Vol.: 76
Chanel 9 Note Off - Duracao: 159120 Nota: C1 Vol.: 62
Chanel 9 Note On - Duracao: 159120 Nota: C1 Vol.: 61
Chanel 2 Note Off - Duracao: 159180 Nota: C1 Vol.: 66
Chanel 2 Note On - Duracao: 159180 Nota: C1 Vol.: 68
Chanel 1 Note Off - Duracao: 159300 Nota: C1 Vol.: 76
Chanel 1 Note On - Duracao: 159300 Nota: C1 Vol.: 76
Chanel 2 Note Off - Duracao: 159420 Nota: C1 Vol.: 68
Chanel 2 Note On - Duracao: 159420 Nota: C1 Vol.: 63
Chanel 8 Note Off - Duracao: 159420 Nota: C1 Vol.: 72
Chanel 8 Note On - Duracao: 159420 Nota: C1 Vol.: 78
Chanel 6 Note Off - Duracao: 159480 Nota: C1 Vol.: 70
Chanel 6 Note On - Duracao: 159480 Nota: C1 Vol.: 52
Chanel 1 Note Off - Duracao: 159540 Nota: C1 Vol.: 76
Chanel 1 Note On - Duracao: 159540 Nota: C1 Vol.: 71
Chanel 9 Note Off - Duracao: 159600 Nota: C1 Vol.: 61
Chanel 9 Note On - Duracao: 159600 Nota: C1 Vol.: 89
Chanel 2 Note Off - Duracao: 159660 Nota: C1 Vol.: 63
Chanel 2 Note On - Duracao: 159660 Nota: C1 Vol.: 60
Chanel 8 Note Off - Duracao: 159660 Nota: C1 Vol.: 78
Chanel 8 Note On - Duracao: 159660 Nota: C1 Vol.: 71
Chanel 9 Note Off - Duracao: 159720 Nota: C1 Vol.: 89
Chanel 9 Note On - Duracao: 159720 Nota: C1 Vol.: 70
Chanel 1 Note Off - Duracao: 159780 Nota: C1 Vol.: 71
Chanel 1 Note On - Duracao: 159780 Nota: C1 Vol.: 95
Chanel 1 Note Off - Duracao: 159900 Nota: C1 Vol.: 95
Chanel 1 Note On - Duracao: 159900 Nota: C1 Vol.: 91
Chanel 2 Note Off - Duracao: 159900 Nota: C1 Vol.: 60
Chanel 2 Note On - Duracao: 159900 Nota: C1 Vol.: 60
Chanel 9 Note Off - Duracao: 159960 Nota: C1 Vol.: 70
Chanel 9 Note On - Duracao: 159960 Nota: C1 Vol.: 58
Chanel 1 Note Off - Duracao: 160020 Nota: C1 Vol.: 91
Chanel 1 Note On - Duracao: 160020 Nota: C1 Vol.: 88
Chanel 4 Note Off - Duracao: 160020 Nota: C1 Vol.: 50
Chanel 4 Note On - Duracao: 160020 Nota: C1 Vol.: 41
Chanel 2 Note Off - Duracao: 160140 Nota: C1 Vol.: 60
Chanel 2 Note On - Duracao: 160140 Nota: C1 Vol.: 61
Chanel 8 Note Off - Duracao: 160140 Nota: C1 Vol.: 71
Chanel 8 Note On - Duracao: 160140 Nota: C1 Vol.: 75
Chanel 1 Note Off - Duracao: 160260 Nota: C1 Vol.: 88
Chanel 1 Note On - Duracao: 160260 Nota: C1 Vol.: 89
Chanel 3 Note Off - Duracao: 160320 Nota: C1 Vol.: 40
Chanel 3 Note On - Duracao: 160320 Nota: C1 Vol.: 52
Chanel 1 Note Off - Duracao: 160380 Nota: C1 Vol.: 89
Chanel 1 Note On - Duracao: 160380 Nota: C1 Vol.: 89
Chanel 2 Note Off - Duracao: 160380 Nota: C1 Vol.: 61
Chanel 2 Note On - Duracao: 160380 Nota: C1 Vol.: 56
Chanel 9 Note Off - Duracao: 160440 Nota: C1 Vol.: 58
Chanel 9 Note On - Duracao: 160440 Nota: C1 Vol.: 43
Chanel 1 Note Off - Duracao: 160620 Nota: C1 Vol.: 89
Chanel 1 Note On - Duracao: 160620 Nota: C1 Vol.: 91
Chanel 8 Note Off - Duracao: 160620 Nota: C1 Vol.: 75
Chanel 8 Note On - Duracao: 160620 Nota: C1 Vol.: 75
Chanel 1 Note Off - Duracao: 160740 Nota: C1 Vol.: 91
Chanel 1 Note On - Duracao: 160740 Nota: C1 Vol.: 98
Chanel 1 Note Off - Duracao: 160800 Nota: C1 Vol.: 98
Chanel 1 Note On - Duracao: 160800 Nota: C1 Vol.: 98
Chanel 1 Note Off - Duracao: 160860 Nota: C1 Vol.: 98
Chanel 1 Note On - Duracao: 160860 Nota: C1 Vol.: 99
Chanel 2 Note Off - Duracao: 160860 Nota: C1 Vol.: 56
Chanel 2 Note On - Duracao: 160860 Nota: C1 Vol.: 56
Chanel 1 Note Off - Duracao: 160920 Nota: C1 Vol.: 99
Chanel 1 Note On - Duracao: 160920 Nota: C1 Vol.: 91
Chanel 1 Note Off - Duracao: 161040 Nota: C1 Vol.: 91
Chanel 1 Note On - Duracao: 161040 Nota: C1 Vol.: 80
Chanel 1 Note Off - Duracao: 161280 Nota: C1 Vol.: 80
Chanel 1 Note On - Duracao: 161280 Nota: C1 Vol.: 87
Chanel 3 Note Off - Duracao: 161280 Nota: C1 Vol.: 52
Chanel 3 Note On - Duracao: 161280 Nota: C1 Vol.: 66
Chanel 2 Note Off - Duracao: 161340 Nota: C1 Vol.: 56
Chanel 2 Note On - Duracao: 161340 Nota: C1 Vol.: 56
Chanel 7 Note Off - Duracao: 161460 Nota: C1 Vol.: 52
Chanel 7 Note On - Duracao: 161460 Nota: C1 Vol.: 50
Chanel 1 Note Off - Duracao: 161520 Nota: C1 Vol.: 87
Chanel 1 Note On - Duracao: 161520 Nota: C1 Vol.: 97
Chanel 3 Note Off - Duracao: 161520 Nota: C1 Vol.: 66
Chanel 3 Note On - Duracao: 161520 Nota: C1 Vol.: 85
Chanel 8 Note Off - Duracao: 161580 Nota: C1 Vol.: 75
Chanel 8 Note On - Duracao: 161580 Nota: C1 Vol.: 70
Chanel 1 Note Off - Duracao: 161640 Nota: C1 Vol.: 97
Chanel 1 Note On - Duracao: 161640 Nota: C1 Vol.: 82
Chanel 5 Note Off - Duracao: 161640 Nota: C1 Vol.: 45
Chanel 5 Note On - Duracao: 161640 Nota: C1 Vol.: 58
Chanel 3 Note Off - Duracao: 161760 Nota: C1 Vol.: 85
Chanel 3 Note On - Duracao: 161760 Nota: C1 Vol.: 74
Chanel 2 Note Off - Duracao: 161820 Nota: C1 Vol.: 56
Chanel 2 Note On - Duracao: 161820 Nota: C1 Vol.: 53
Chanel 1 Note Off - Duracao: 161880 Nota: C1 Vol.: 82
Chanel 1 Note On - Duracao: 161880 Nota: C1 Vol.: 80
Chanel 4 Note Off - Duracao: 161940 Nota: C1 Vol.: 41
Chanel 4 Note On - Duracao: 161940 Nota: C1 Vol.: 65
Chanel 1 Note Off - Duracao: 162120 Nota: C1 Vol.: 80
Chanel 1 Note On - Duracao: 162120 Nota: C1 Vol.: 89
Chanel 1 Note Off - Duracao: 162240 Nota: C1 Vol.: 89
Chanel 1 Note On - Duracao: 162240 Nota: C1 Vol.: 92
Chanel 3 Note Off - Duracao: 162240 Nota: C1 Vol.: 74
Chanel 3 Note On - Duracao: 162240 Nota: C1 Vol.: 72
Chanel 2 Note Off - Duracao: 162300 Nota: C1 Vol.: 53
Chanel 2 Note On - Duracao: 162300 Nota: C1 Vol.: 56
Chanel 1 Note Off - Duracao: 162360 Nota: C1 Vol.: 92
Chanel 1 Note On - Duracao: 162360 Nota: C1 Vol.: 96
Chanel 9 Note Off - Duracao: 162360 Nota: C1 Vol.: 43
Chanel 9 Note On - Duracao: 162360 Nota: C1 Vol.: 50
Chanel 4 Note Off - Duracao: 162420 Nota: C1 Vol.: 65
Chanel 4 Note On - Duracao: 162420 Nota: C1 Vol.: 85
Chanel 1 Note Off - Duracao: 162480 Nota: C1 Vol.: 96
Chanel 1 Note On - Duracao: 162480 Nota: C1 Vol.: 98
Chanel 1 Note Off - Duracao: 162540 Nota: C1 Vol.: 98
Chanel 1 Note On - Duracao: 162540 Nota: C1 Vol.: 93
Chanel 4 Note Off - Duracao: 162540 Nota: C1 Vol.: 85
Chanel 4 Note On - Duracao: 162540 Nota: C1 Vol.: 90
Chanel 8 Note Off - Duracao: 162540 Nota: C1 Vol.: 70
Chanel 8 Note On - Duracao: 162540 Nota: C1 Vol.: 66
Chanel 5 Note Off - Duracao: 162600 Nota: C1 Vol.: 58
Chanel 5 Note On - Duracao: 162600 Nota: C1 Vol.: 89
Chanel 1 Note Off - Duracao: 162660 Nota: C1 Vol.: 93
Chanel 1 Note On - Duracao: 162660 Nota: C1 Vol.: 83
Chanel 4 Note Off - Duracao: 162660 Nota: C1 Vol.: 90
Chanel 4 Note On - Duracao: 162660 Nota: C1 Vol.: 99
Chanel 3 Note Off - Duracao: 162720 Nota: C1 Vol.: 72
Chanel 3 Note On - Duracao: 162720 Nota: C1 Vol.: 77
Chanel 4 Note Off - Duracao: 162720 Nota: C1 Vol.: 99
Chanel 4 Note On - Duracao: 162720 Nota: C1 Vol.: 100
Chanel 5 Note Off - Duracao: 162720 Nota: C1 Vol.: 89
Chanel 5 Note On - Duracao: 162720 Nota: C1 Vol.: 89
Chanel 2 Note Off - Duracao: 162780 Nota: C1 Vol.: 56
Chanel 2 Note On - Duracao: 162780 Nota: C1 Vol.: 64
Chanel 4 Note Off - Duracao: 162780 Nota: C1 Vol.: 100
Chanel 4 Note On - Duracao: 162780 Nota: C1 Vol.: 100
Chanel 4 Note Off - Duracao: 162840 Nota: C1 Vol.: 100
Chanel 4 Note On - Duracao: 162840 Nota: C1 Vol.: 99
Chanel 5 Note Off - Duracao: 162840 Nota: C1 Vol.: 89
Chanel 5 Note On - Duracao: 162840 Nota: C1 Vol.: 59
Chanel 1 Note Off - Duracao: 162900 Nota: C1 Vol.: 83
Chanel 1 Note On - Duracao: 162900 Nota: C1 Vol.: 84
Chanel 4 Note Off - Duracao: 162900 Nota: C1 Vol.: 99
Chanel 4 Note On - Duracao: 162900 Nota: C1 Vol.: 99
Chanel 3 Note Off - Duracao: 162960 Nota: C1 Vol.: 77
Chanel 3 Note On - Duracao: 162960 Nota: C1 Vol.: 80
Chanel 4 Note Off - Duracao: 162960 Nota: C1 Vol.: 99
Chanel 4 Note On - Duracao: 162960 Nota: C1 Vol.: 98
Chanel 1 Note Off - Duracao: 163020 Nota: C1 Vol.: 84
Chanel 1 Note On - Duracao: 163020 Nota: C1 Vol.: 75
Chanel 2 Note Off - Duracao: 163020 Nota: C1 Vol.: 64
Chanel 2 Note On - Duracao: 163020 Nota: C1 Vol.: 73
Chanel 4 Note Off - Duracao: 163020 Nota: C1 Vol.: 98
Chanel 4 Note On - Duracao: 163020 Nota: C1 Vol.: 86
Chanel 4 Note Off - Duracao: 163140 Nota: C1 Vol.: 86
Chanel 4 Note On - Duracao: 163140 Nota: C1 Vol.: 42
Chanel 3 Note Off - Duracao: 163200 Nota: C1 Vol.: 80
Chanel 3 Note On - Duracao: 163200 Nota: C1 Vol.: 91
Chanel 1 Note Off - Duracao: 163260 Nota: C1 Vol.: 75
Chanel 1 Note On - Duracao: 163260 Nota: C1 Vol.: 69
Chanel 2 Note Off - Duracao: 163260 Nota: C1 Vol.: 73
Chanel 2 Note On - Duracao: 163260 Nota: C1 Vol.: 72
Chanel 3 Note Off - Duracao: 163320 Nota: C1 Vol.: 91
Chanel 3 Note On - Duracao: 163320 Nota: C1 Vol.: 100
Chanel 6 Note Off - Duracao: 163320 Nota: C1 Vol.: 52
Chanel 6 Note On - Duracao: 163320 Nota: C1 Vol.: 59
Chanel 9 Note Off - Duracao: 163320 Nota: C1 Vol.: 50
Chanel 9 Note On - Duracao: 163320 Nota: C1 Vol.: 57
Chanel 3 Note Off - Duracao: 163380 Nota: C1 Vol.: 100
Chanel 3 Note On - Duracao: 163380 Nota: C1 Vol.: 90
Chanel 1 Note Off - Duracao: 163500 Nota: C1 Vol.: 69
Chanel 1 Note On - Duracao: 163500 Nota: C1 Vol.: 68
Chanel 2 Note Off - Duracao: 163500 Nota: C1 Vol.: 72
Chanel 2 Note On - Duracao: 163500 Nota: C1 Vol.: 75
Chanel 3 Note Off - Duracao: 163500 Nota: C1 Vol.: 90
Chanel 3 Note On - Duracao: 163500 Nota: C1 Vol.: 95
Chanel 8 Note Off - Duracao: 163500 Nota: C1 Vol.: 66
Chanel 8 Note On - Duracao: 163500 Nota: C1 Vol.: 55
Chanel 2 Note Off - Duracao: 163620 Nota: C1 Vol.: 75
Chanel 2 Note On - Duracao: 163620 Nota: C1 Vol.: 70
Chanel 3 Note Off - Duracao: 163620 Nota: C1 Vol.: 95
Chanel 3 Note On - Duracao: 163620 Nota: C1 Vol.: 100
Chanel 3 Note Off - Duracao: 163680 Nota: C1 Vol.: 100
Chanel 3 Note On - Duracao: 163680 Nota: C1 Vol.: 94
Chanel 1 Note Off - Duracao: 163740 Nota: C1 Vol.: 68
Chanel 1 Note On - Duracao: 163740 Nota: C1 Vol.: 65
Chanel 3 Note Off - Duracao: 163740 Nota: C1 Vol.: 94
Chanel 3 Note On - Duracao: 163740 Nota: C1 Vol.: 77
Chanel 5 Note Off - Duracao: 163800 Nota: C1 Vol.: 59
Chanel 5 Note On - Duracao: 163800 Nota: C1 Vol.: 47
Chanel 9 Note Off - Duracao: 163800 Nota: C1 Vol.: 57
Chanel 9 Note On - Duracao: 163800 Nota: C1 Vol.: 61
Chanel 2 Note Off - Duracao: 163860 Nota: C1 Vol.: 70
Chanel 2 Note On - Duracao: 163860 Nota: C1 Vol.: 66
Chanel 1 Note Off - Duracao: 163980 Nota: C1 Vol.: 65
Chanel 1 Note On - Duracao: 163980 Nota: C1 Vol.: 64
Chanel 3 Note Off - Duracao: 163980 Nota: C1 Vol.: 77
Chanel 3 Note On - Duracao: 163980 Nota: C1 Vol.: 76
Chanel 1 Note Off - Duracao: 164100 Nota: C1 Vol.: 64
Chanel 1 Note On - Duracao: 164100 Nota: C1 Vol.: 61
Chanel 2 Note Off - Duracao: 164100 Nota: C1 Vol.: 66
Chanel 2 Note On - Duracao: 164100 Nota: C1 Vol.: 40
Chanel 3 Note Off - Duracao: 164220 Nota: C1 Vol.: 76
Chanel 3 Note On - Duracao: 164220 Nota: C1 Vol.: 74
Chanel 9 Note Off - Duracao: 164280 Nota: C1 Vol.: 61
Chanel 9 Note On - Duracao: 164280 Nota: C1 Vol.: 61
Chanel 1 Note Off - Duracao: 164340 Nota: C1 Vol.: 61
Chanel 1 Note On - Duracao: 164340 Nota: C1 Vol.: 60
Chanel 3 Note Off - Duracao: 164460 Nota: C1 Vol.: 74
Chanel 3 Note On - Duracao: 164460 Nota: C1 Vol.: 74
Chanel 8 Note Off - Duracao: 164460 Nota: C1 Vol.: 55
Chanel 8 Note On - Duracao: 164460 Nota: C1 Vol.: 62
Chanel 1 Note Off - Duracao: 164580 Nota: C1 Vol.: 60
Chanel 1 Note On - Duracao: 164580 Nota: C1 Vol.: 58
Chanel 3 Note Off - Duracao: 164700 Nota: C1 Vol.: 74
Chanel 3 Note On - Duracao: 164700 Nota: C1 Vol.: 74
Chanel 8 Note Off - Duracao: 164700 Nota: C1 Vol.: 62
Chanel 8 Note On - Duracao: 164700 Nota: C1 Vol.: 61
Chanel 9 Note Off - Duracao: 164760 Nota: C1 Vol.: 61
Chanel 9 Note On - Duracao: 164760 Nota: C1 Vol.: 60
Chanel 1 Note Off - Duracao: 164820 Nota: C1 Vol.: 58
Chanel 1 Note On - Duracao: 164820 Nota: C1 Vol.: 59
Chanel 8 Note Off - Duracao: 164820 Nota: C1 Vol.: 61
Chanel 8 Note On - Duracao: 164820 Nota: C1 Vol.: 54
Chanel 3 Note Off - Duracao: 164940 Nota: C1 Vol.: 74
Chanel 3 Note On - Duracao: 164940 Nota: C1 Vol.: 69
Chanel 8 Note Off - Duracao: 164940 Nota: C1 Vol.: 54
Chanel 8 Note On - Duracao: 164940 Nota: C1 Vol.: 52
Chanel 4 Note Off - Duracao: 165060 Nota: C1 Vol.: 42
Chanel 4 Note On - Duracao: 165060 Nota: C1 Vol.: 44
Chanel 8 Note Off - Duracao: 165060 Nota: C1 Vol.: 52
Chanel 8 Note On - Duracao: 165060 Nota: C1 Vol.: 53
Chanel 8 Note Off - Duracao: 165180 Nota: C1 Vol.: 53
Chanel 8 Note On - Duracao: 165180 Nota: C1 Vol.: 52
Chanel 6 Note Off - Duracao: 165240 Nota: C1 Vol.: 59
Chanel 6 Note On - Duracao: 165240 Nota: C1 Vol.: 51
Chanel 9 Note Off - Duracao: 165240 Nota: C1 Vol.: 60
Chanel 9 Note On - Duracao: 165240 Nota: C1 Vol.: 58
Chanel 1 Note Off - Duracao: 165300 Nota: C1 Vol.: 59
Chanel 1 Note On - Duracao: 165300 Nota: C1 Vol.: 63
Chanel 7 Note Off - Duracao: 165300 Nota: C1 Vol.: 50
Chanel 7 Note On - Duracao: 165300 Nota: C1 Vol.: 52
Chanel 8 Note Off - Duracao: 165300 Nota: C1 Vol.: 52
Chanel 8 Note On - Duracao: 165300 Nota: C1 Vol.: 51
Chanel 3 Note Off - Duracao: 165420 Nota: C1 Vol.: 69
Chanel 3 Note On - Duracao: 165420 Nota: C1 Vol.: 72
Chanel 8 Note Off - Duracao: 165420 Nota: C1 Vol.: 51
Chanel 8 Note On - Duracao: 165420 Nota: C1 Vol.: 48
Chanel 1 Note Off - Duracao: 165540 Nota: C1 Vol.: 63
Chanel 1 Note On - Duracao: 165540 Nota: C1 Vol.: 58
Chanel 3 Note Off - Duracao: 165660 Nota: C1 Vol.: 72
Chanel 3 Note On - Duracao: 165660 Nota: C1 Vol.: 73
Chanel 8 Note Off - Duracao: 165660 Nota: C1 Vol.: 48
Chanel 8 Note On - Duracao: 165660 Nota: C1 Vol.: 43
Chanel 5 Note Off - Duracao: 165720 Nota: C1 Vol.: 47
Chanel 5 Note On - Duracao: 165720 Nota: C1 Vol.: 75
Chanel 9 Note Off - Duracao: 165720 Nota: C1 Vol.: 58
Chanel 9 Note On - Duracao: 165720 Nota: C1 Vol.: 59
Chanel 1 Note Off - Duracao: 165780 Nota: C1 Vol.: 58
Chanel 1 Note On - Duracao: 165780 Nota: C1 Vol.: 47
Chanel 3 Note Off - Duracao: 165900 Nota: C1 Vol.: 73
Chanel 3 Note On - Duracao: 165900 Nota: C1 Vol.: 71
Chanel 5 Note Off - Duracao: 165960 Nota: C1 Vol.: 75
Chanel 5 Note On - Duracao: 165960 Nota: C1 Vol.: 74
Chanel 2 Note Off - Duracao: 166020 Nota: C1 Vol.: 40
Chanel 2 Note On - Duracao: 166020 Nota: C1 Vol.: 52
Chanel 3 Note Off - Duracao: 166140 Nota: C1 Vol.: 71
Chanel 3 Note On - Duracao: 166140 Nota: C1 Vol.: 67
Chanel 8 Note Off - Duracao: 166140 Nota: C1 Vol.: 43
Chanel 8 Note On - Duracao: 166140 Nota: C1 Vol.: 42
Chanel 9 Note Off - Duracao: 166200 Nota: C1 Vol.: 59
Chanel 9 Note On - Duracao: 166200 Nota: C1 Vol.: 60
Chanel 1 Note Off - Duracao: 166260 Nota: C1 Vol.: 47
Chanel 1 Note On - Duracao: 166260 Nota: C1 Vol.: 52
Chanel 3 Note Off - Duracao: 166380 Nota: C1 Vol.: 67
Chanel 3 Note On - Duracao: 166380 Nota: C1 Vol.: 58
Chanel 5 Note Off - Duracao: 166440 Nota: C1 Vol.: 74
Chanel 5 Note On - Duracao: 166440 Nota: C1 Vol.: 59
Chanel 2 Note Off - Duracao: 166500 Nota: C1 Vol.: 52
Chanel 2 Note On - Duracao: 166500 Nota: C1 Vol.: 56
Chanel 2 Note Off - Duracao: 166620 Nota: C1 Vol.: 56
Chanel 2 Note On - Duracao: 166620 Nota: C1 Vol.: 47
Chanel 9 Note Off - Duracao: 166680 Nota: C1 Vol.: 60
Chanel 9 Note On - Duracao: 166680 Nota: C1 Vol.: 58
Chanel 1 Note Off - Duracao: 166740 Nota: C1 Vol.: 52
Chanel 1 Note On - Duracao: 166740 Nota: C1 Vol.: 52
Chanel 2 Note Off - Duracao: 166860 Nota: C1 Vol.: 47
Chanel 2 Note On - Duracao: 166860 Nota: C1 Vol.: 50
Chanel 3 Note Off - Duracao: 166860 Nota: C1 Vol.: 58
Chanel 3 Note On - Duracao: 166860 Nota: C1 Vol.: 72
Chanel 3 Note Off - Duracao: 166980 Nota: C1 Vol.: 72
Chanel 3 Note On - Duracao: 166980 Nota: C1 Vol.: 69
Chanel 4 Note Off - Duracao: 166980 Nota: C1 Vol.: 44
Chanel 4 Note On - Duracao: 166980 Nota: C1 Vol.: 68
Chanel 2 Note Off - Duracao: 167100 Nota: C1 Vol.: 50
Chanel 2 Note On - Duracao: 167100 Nota: C1 Vol.: 40
Chanel 8 Note Off - Duracao: 167100 Nota: C1 Vol.: 42
Chanel 8 Note On - Duracao: 167100 Nota: C1 Vol.: 61
Chanel 9 Note Off - Duracao: 167160 Nota: C1 Vol.: 58
Chanel 9 Note On - Duracao: 167160 Nota: C1 Vol.: 61
Chanel 1 Note Off - Duracao: 167220 Nota: C1 Vol.: 52
Chanel 1 Note On - Duracao: 167220 Nota: C1 Vol.: 58
Chanel 3 Note Off - Duracao: 167220 Nota: C1 Vol.: 69
Chanel 3 Note On - Duracao: 167220 Nota: C1 Vol.: 56
Chanel 7 Note Off - Duracao: 167220 Nota: C1 Vol.: 52
Chanel 7 Note On - Duracao: 167220 Nota: C1 Vol.: 48
Chanel 8 Note Off - Duracao: 167340 Nota: C1 Vol.: 61
Chanel 8 Note On - Duracao: 167340 Nota: C1 Vol.: 49
Chanel 5 Note Off - Duracao: 167400 Nota: C1 Vol.: 59
Chanel 5 Note On - Duracao: 167400 Nota: C1 Vol.: 45
Chanel 1 Note Off - Duracao: 167460 Nota: C1 Vol.: 58
Chanel 1 Note On - Duracao: 167460 Nota: C1 Vol.: 62
Chanel 4 Note Off - Duracao: 167460 Nota: C1 Vol.: 68
Chanel 4 Note On - Duracao: 167460 Nota: C1 Vol.: 100
Chanel 4 Note Off - Duracao: 167520 Nota: C1 Vol.: 100
Chanel 4 Note On - Duracao: 167520 Nota: C1 Vol.: 99
Chanel 4 Note Off - Duracao: 167580 Nota: C1 Vol.: 99
Chanel 4 Note On - Duracao: 167580 Nota: C1 Vol.: 96
Chanel 4 Note Off - Duracao: 167640 Nota: C1 Vol.: 96
Chanel 4 Note On - Duracao: 167640 Nota: C1 Vol.: 99
Chanel 9 Note Off - Duracao: 167640 Nota: C1 Vol.: 61
Chanel 9 Note On - Duracao: 167640 Nota: C1 Vol.: 60
Chanel 1 Note Off - Duracao: 167700 Nota: C1 Vol.: 62
Chanel 1 Note On - Duracao: 167700 Nota: C1 Vol.: 65
Chanel 3 Note Off - Duracao: 167700 Nota: C1 Vol.: 56
Chanel 3 Note On - Duracao: 167700 Nota: C1 Vol.: 56
Chanel 4 Note Off - Duracao: 167700 Nota: C1 Vol.: 99
Chanel 4 Note On - Duracao: 167700 Nota: C1 Vol.: 100
Chanel 4 Note Off - Duracao: 167760 Nota: C1 Vol.: 100
Chanel 4 Note On - Duracao: 167760 Nota: C1 Vol.: 99
Chanel 1 Note Off - Duracao: 167820 Nota: C1 Vol.: 65
Chanel 1 Note On - Duracao: 167820 Nota: C1 Vol.: 62
Chanel 4 Note Off - Duracao: 167820 Nota: C1 Vol.: 99
Chanel 4 Note On - Duracao: 167820 Nota: C1 Vol.: 99
Chanel 8 Note Off - Duracao: 167820 Nota: C1 Vol.: 49
Chanel 8 Note On - Duracao: 167820 Nota: C1 Vol.: 40
Chanel 4 Note Off - Duracao: 167880 Nota: C1 Vol.: 99
Chanel 4 Note On - Duracao: 167880 Nota: C1 Vol.: 93
Chanel 4 Note Off - Duracao: 167940 Nota: C1 Vol.: 93
Chanel 4 Note On - Duracao: 167940 Nota: C1 Vol.: 73
Chanel 1 Note Off - Duracao: 168060 Nota: C1 Vol.: 62
Chanel 1 Note On - Duracao: 168060 Nota: C1 Vol.: 60
Chanel 9 Note Off - Duracao: 168120 Nota: C1 Vol.: 60
Chanel 9 Note On - Duracao: 168120 Nota: C1 Vol.: 64
Chanel 4 Note Off - Duracao: 168180 Nota: C1 Vol.: 73
Chanel 4 Note On - Duracao: 168180 Nota: C1 Vol.: 71
Chanel 1 Note Off - Duracao: 168300 Nota: C1 Vol.: 60
Chanel 1 Note On - Duracao: 168300 Nota: C1 Vol.: 61
Chanel 1 Note Off - Duracao: 168540 Nota: C1 Vol.: 61
Chanel 1 Note On - Duracao: 168540 Nota: C1 Vol.: 63
Chanel 9 Note Off - Duracao: 168600 Nota: C1 Vol.: 64
Chanel 9 Note On - Duracao: 168600 Nota: C1 Vol.: 67
Chanel 3 Note Off - Duracao: 168660 Nota: C1 Vol.: 56
Chanel 3 Note On - Duracao: 168660 Nota: C1 Vol.: 47
Chanel 4 Note Off - Duracao: 168660 Nota: C1 Vol.: 71
Chanel 4 Note On - Duracao: 168660 Nota: C1 Vol.: 70
Chanel 1 Note Off - Duracao: 168780 Nota: C1 Vol.: 63
Chanel 1 Note On - Duracao: 168780 Nota: C1 Vol.: 67
Chanel 9 Note Off - Duracao: 168840 Nota: C1 Vol.: 67
Chanel 9 Note On - Duracao: 168840 Nota: C1 Vol.: 65
Chanel 1 Note Off - Duracao: 169020 Nota: C1 Vol.: 67
Chanel 1 Note On - Duracao: 169020 Nota: C1 Vol.: 63
Chanel 2 Note Off - Duracao: 169020 Nota: C1 Vol.: 40
Chanel 2 Note On - Duracao: 169020 Nota: C1 Vol.: 40
Chanel 6 Note Off - Duracao: 169080 Nota: C1 Vol.: 51
Chanel 6 Note On - Duracao: 169080 Nota: C1 Vol.: 57
Chanel 4 Note Off - Duracao: 169140 Nota: C1 Vol.: 70
Chanel 4 Note On - Duracao: 169140 Nota: C1 Vol.: 61
Chanel 1 Note Off - Duracao: 169260 Nota: C1 Vol.: 63
Chanel 1 Note On - Duracao: 169260 Nota: C1 Vol.: 67
Chanel 5 Note Off - Duracao: 169320 Nota: C1 Vol.: 45
Chanel 5 Note On - Duracao: 169320 Nota: C1 Vol.: 53
Chanel 9 Note Off - Duracao: 169320 Nota: C1 Vol.: 65
Chanel 9 Note On - Duracao: 169320 Nota: C1 Vol.: 55
Chanel 1 Note Off - Duracao: 169500 Nota: C1 Vol.: 67
Chanel 1 Note On - Duracao: 169500 Nota: C1 Vol.: 72
Chanel 3 Note Off - Duracao: 169620 Nota: C1 Vol.: 47
Chanel 3 Note On - Duracao: 169620 Nota: C1 Vol.: 45
Chanel 1 Note Off - Duracao: 169740 Nota: C1 Vol.: 72
Chanel 1 Note On - Duracao: 169740 Nota: C1 Vol.: 75
Chanel 8 Note Off - Duracao: 169740 Nota: C1 Vol.: 40
Chanel 8 Note On - Duracao: 169740 Nota: C1 Vol.: 40
Chanel 1 Note Off - Duracao: 169860 Nota: C1 Vol.: 75
Chanel 1 Note On - Duracao: 169860 Nota: C1 Vol.: 78
Chanel 1 Note Off - Duracao: 169980 Nota: C1 Vol.: 78
Chanel 1 Note On - Duracao: 169980 Nota: C1 Vol.: 75
Chanel 4 Note Off - Duracao: 170100 Nota: C1 Vol.: 61
Chanel 4 Note On - Duracao: 170100 Nota: C1 Vol.: 67
Chanel 1 Note Off - Duracao: 170220 Nota: C1 Vol.: 75
Chanel 1 Note On - Duracao: 170220 Nota: C1 Vol.: 73
Chanel 5 Note Off - Duracao: 170280 Nota: C1 Vol.: 53
Chanel 5 Note On - Duracao: 170280 Nota: C1 Vol.: 84
Chanel 9 Note Off - Duracao: 170280 Nota: C1 Vol.: 55
Chanel 9 Note On - Duracao: 170280 Nota: C1 Vol.: 51
Chanel 5 Note Off - Duracao: 170400 Nota: C1 Vol.: 84
Chanel 5 Note On - Duracao: 170400 Nota: C1 Vol.: 93
Chanel 1 Note Off - Duracao: 170460 Nota: C1 Vol.: 73
Chanel 1 Note On - Duracao: 170460 Nota: C1 Vol.: 87
Chanel 5 Note Off - Duracao: 170460 Nota: C1 Vol.: 93
Chanel 5 Note On - Duracao: 170460 Nota: C1 Vol.: 95
Chanel 5 Note Off - Duracao: 170520 Nota: C1 Vol.: 95
Chanel 5 Note On - Duracao: 170520 Nota: C1 Vol.: 61
Chanel 1 Note Off - Duracao: 170580 Nota: C1 Vol.: 87
Chanel 1 Note On - Duracao: 170580 Nota: C1 Vol.: 95
Chanel 4 Note Off - Duracao: 170580 Nota: C1 Vol.: 67
Chanel 4 Note On - Duracao: 170580 Nota: C1 Vol.: 87
Chanel 1 Note Off - Duracao: 170640 Nota: C1 Vol.: 95
Chanel 1 Note On - Duracao: 170640 Nota: C1 Vol.: 92
Chanel 1 Note Off - Duracao: 170700 Nota: C1 Vol.: 92
Chanel 1 Note On - Duracao: 170700 Nota: C1 Vol.: 47
Chanel 4 Note Off - Duracao: 170700 Nota: C1 Vol.: 87
Chanel 4 Note On - Duracao: 170700 Nota: C1 Vol.: 90
Chanel 4 Note Off - Duracao: 170760 Nota: C1 Vol.: 90
Chanel 4 Note On - Duracao: 170760 Nota: C1 Vol.: 81
Chanel 4 Note Off - Duracao: 170880 Nota: C1 Vol.: 81
Chanel 4 Note On - Duracao: 170880 Nota: C1 Vol.: 83
Chanel 4 Note Off - Duracao: 171000 Nota: C1 Vol.: 83
Chanel 4 Note On - Duracao: 171000 Nota: C1 Vol.: 86
Chanel 6 Note Off - Duracao: 171000 Nota: C1 Vol.: 57
Chanel 6 Note On - Duracao: 171000 Nota: C1 Vol.: 57
Chanel 7 Note Off - Duracao: 171060 Nota: C1 Vol.: 48
Chanel 7 Note On - Duracao: 171060 Nota: C1 Vol.: 51
Chanel 4 Note Off - Duracao: 171120 Nota: C1 Vol.: 86
Chanel 4 Note On - Duracao: 171120 Nota: C1 Vol.: 92
Chanel 4 Note Off - Duracao: 171240 Nota: C1 Vol.: 92
Chanel 4 Note On - Duracao: 171240 Nota: C1 Vol.: 94
Chanel 9 Note Off - Duracao: 171240 Nota: C1 Vol.: 51
Chanel 9 Note On - Duracao: 171240 Nota: C1 Vol.: 45
Chanel 4 Note Off - Duracao: 171360 Nota: C1 Vol.: 94
Chanel 4 Note On - Duracao: 171360 Nota: C1 Vol.: 90
Chanel 4 Note Off - Duracao: 171480 Nota: C1 Vol.: 90
Chanel 4 Note On - Duracao: 171480 Nota: C1 Vol.: 78
Chanel 5 Note Off - Duracao: 171480 Nota: C1 Vol.: 61
Chanel 5 Note On - Duracao: 171480 Nota: C1 Vol.: 92
Chanel 3 Note Off - Duracao: 171540 Nota: C1 Vol.: 45
Chanel 3 Note On - Duracao: 171540 Nota: C1 Vol.: 48
Chanel 4 Note Off - Duracao: 171600 Nota: C1 Vol.: 78
Chanel 4 Note On - Duracao: 171600 Nota: C1 Vol.: 70
Chanel 5 Note Off - Duracao: 171600 Nota: C1 Vol.: 92
Chanel 5 Note On - Duracao: 171600 Nota: C1 Vol.: 99
Chanel 1 Note Off - Duracao: 171660 Nota: C1 Vol.: 47
Chanel 1 Note On - Duracao: 171660 Nota: C1 Vol.: 51
Chanel 5 Note Off - Duracao: 171660 Nota: C1 Vol.: 99
Chanel 5 Note On - Duracao: 171660 Nota: C1 Vol.: 100
Chanel 8 Note Off - Duracao: 171660 Nota: C1 Vol.: 40
Chanel 8 Note On - Duracao: 171660 Nota: C1 Vol.: 40
Chanel 5 Note Off - Duracao: 171720 Nota: C1 Vol.: 100
Chanel 5 Note On - Duracao: 171720 Nota: C1 Vol.: 99
Chanel 5 Note Off - Duracao: 171780 Nota: C1 Vol.: 99
Chanel 5 Note On - Duracao: 171780 Nota: C1 Vol.: 100
Chanel 4 Note Off - Duracao: 171840 Nota: C1 Vol.: 70
Chanel 4 Note On - Duracao: 171840 Nota: C1 Vol.: 63
Chanel 5 Note Off - Duracao: 171840 Nota: C1 Vol.: 100
Chanel 5 Note On - Duracao: 171840 Nota: C1 Vol.: 100
Chanel 5 Note Off - Duracao: 171900 Nota: C1 Vol.: 100
Chanel 5 Note On - Duracao: 171900 Nota: C1 Vol.: 99
Chanel 5 Note Off - Duracao: 171960 Nota: C1 Vol.: 99
Chanel 5 Note On - Duracao: 171960 Nota: C1 Vol.: 98
Chanel 5 Note Off - Duracao: 172020 Nota: C1 Vol.: 98
Chanel 5 Note On - Duracao: 172020 Nota: C1 Vol.: 96
Chanel 5 Note Off - Duracao: 172080 Nota: C1 Vol.: 96
Chanel 5 Note On - Duracao: 172080 Nota: C1 Vol.: 97
Chanel 1 Note Off - Duracao: 172140 Nota: C1 Vol.: 51
Chanel 1 Note On - Duracao: 172140 Nota: C1 Vol.: 49
Chanel 5 Note Off - Duracao: 172140 Nota: C1 Vol.: 97
Chanel 5 Note On - Duracao: 172140 Nota: C1 Vol.: 98
Chanel 5 Note Off - Duracao: 172200 Nota: C1 Vol.: 98
Chanel 5 Note On - Duracao: 172200 Nota: C1 Vol.: 98
Chanel 9 Note Off - Duracao: 172200 Nota: C1 Vol.: 45
Chanel 9 Note On - Duracao: 172200 Nota: C1 Vol.: 46
Chanel 5 Note Off - Duracao: 172260 Nota: C1 Vol.: 98
Chanel 5 Note On - Duracao: 172260 Nota: C1 Vol.: 97
Chanel 4 Note Off - Duracao: 172320 Nota: C1 Vol.: 63
Chanel 4 Note On - Duracao: 172320 Nota: C1 Vol.: 58
Chanel 5 Note Off - Duracao: 172320 Nota: C1 Vol.: 97
Chanel 5 Note On - Duracao: 172320 Nota: C1 Vol.: 98
Chanel 1 Note Off - Duracao: 172380 Nota: C1 Vol.: 49
Chanel 1 Note On - Duracao: 172380 Nota: C1 Vol.: 50
Chanel 5 Note Off - Duracao: 172380 Nota: C1 Vol.: 98
Chanel 5 Note On - Duracao: 172380 Nota: C1 Vol.: 100
Chanel 5 Note Off - Duracao: 172440 Nota: C1 Vol.: 100
Chanel 5 Note On - Duracao: 172440 Nota: C1 Vol.: 100
Chanel 3 Note Off - Duracao: 172500 Nota: C1 Vol.: 48
Chanel 3 Note On - Duracao: 172500 Nota: C1 Vol.: 64
Chanel 5 Note Off - Duracao: 172500 Nota: C1 Vol.: 100
Chanel 5 Note On - Duracao: 172500 Nota: C1 Vol.: 96
Chanel 1 Note Off - Duracao: 172620 Nota: C1 Vol.: 50
Chanel 1 Note On - Duracao: 172620 Nota: C1 Vol.: 57
Chanel 5 Note Off - Duracao: 172620 Nota: C1 Vol.: 96
Chanel 5 Note On - Duracao: 172620 Nota: C1 Vol.: 97
Chanel 5 Note Off - Duracao: 172680 Nota: C1 Vol.: 97
Chanel 5 Note On - Duracao: 172680 Nota: C1 Vol.: 86
Chanel 9 Note Off - Duracao: 172680 Nota: C1 Vol.: 46
Chanel 9 Note On - Duracao: 172680 Nota: C1 Vol.: 57
Chanel 4 Note Off - Duracao: 172800 Nota: C1 Vol.: 58
Chanel 4 Note On - Duracao: 172800 Nota: C1 Vol.: 40
Chanel 5 Note Off - Duracao: 172800 Nota: C1 Vol.: 86
Chanel 5 Note On - Duracao: 172800 Nota: C1 Vol.: 55
Chanel 1 Note Off - Duracao: 172860 Nota: C1 Vol.: 57
Chanel 1 Note On - Duracao: 172860 Nota: C1 Vol.: 40
Chanel 2 Note Off - Duracao: 172860 Nota: C1 Vol.: 40
Chanel 2 Note On - Duracao: 172860 Nota: C1 Vol.: 43
Chanel 6 Note Off - Duracao: 172920 Nota: C1 Vol.: 57
Chanel 6 Note On - Duracao: 172920 Nota: C1 Vol.: 49
Chanel 9 Note Off - Duracao: 172920 Nota: C1 Vol.: 57
Chanel 9 Note On - Duracao: 172920 Nota: C1 Vol.: 59
Chanel 3 Note Off - Duracao: 172980 Nota: C1 Vol.: 64
Chanel 3 Note On - Duracao: 172980 Nota: C1 Vol.: 54
Chanel 9 Note Off - Duracao: 173160 Nota: C1 Vol.: 59
Chanel 9 Note On - Duracao: 173160 Nota: C1 Vol.: 63
Chanel 9 Note Off - Duracao: 173280 Nota: C1 Vol.: 63
Chanel 9 Note On - Duracao: 173280 Nota: C1 Vol.: 67
Chanel 9 Note Off - Duracao: 173400 Nota: C1 Vol.: 67
Chanel 9 Note On - Duracao: 173400 Nota: C1 Vol.: 63
Chanel 3 Note Off - Duracao: 173460 Nota: C1 Vol.: 54
Chanel 3 Note On - Duracao: 173460 Nota: C1 Vol.: 65
Chanel 9 Note Off - Duracao: 173520 Nota: C1 Vol.: 63
Chanel 9 Note On - Duracao: 173520 Nota: C1 Vol.: 60
Chanel 8 Note Off - Duracao: 173580 Nota: C1 Vol.: 40
Chanel 8 Note On - Duracao: 173580 Nota: C1 Vol.: 42
Chanel 9 Note Off - Duracao: 173640 Nota: C1 Vol.: 60
Chanel 9 Note On - Duracao: 173640 Nota: C1 Vol.: 58
Chanel 3 Note Off - Duracao: 173700 Nota: C1 Vol.: 65
Chanel 3 Note On - Duracao: 173700 Nota: C1 Vol.: 64
Chanel 9 Note Off - Duracao: 173760 Nota: C1 Vol.: 58
Chanel 9 Note On - Duracao: 173760 Nota: C1 Vol.: 62
Chanel 9 Note Off - Duracao: 173880 Nota: C1 Vol.: 62
Chanel 9 Note On - Duracao: 173880 Nota: C1 Vol.: 58
Chanel 9 Note Off - Duracao: 174000 Nota: C1 Vol.: 58
Chanel 9 Note On - Duracao: 174000 Nota: C1 Vol.: 57
Chanel 3 Note Off - Duracao: 174180 Nota: C1 Vol.: 64
Chanel 3 Note On - Duracao: 174180 Nota: C1 Vol.: 67
Chanel 9 Note Off - Duracao: 174240 Nota: C1 Vol.: 57
Chanel 9 Note On - Duracao: 174240 Nota: C1 Vol.: 61
Chanel 3 Note Off - Duracao: 174420 Nota: C1 Vol.: 67
Chanel 3 Note On - Duracao: 174420 Nota: C1 Vol.: 75
Chanel 9 Note Off - Duracao: 174480 Nota: C1 Vol.: 61
Chanel 9 Note On - Duracao: 174480 Nota: C1 Vol.: 50
Chanel 3 Note Off - Duracao: 174660 Nota: C1 Vol.: 75
Chanel 3 Note On - Duracao: 174660 Nota: C1 Vol.: 69
Chanel 4 Note Off - Duracao: 174720 Nota: C1 Vol.: 40
Chanel 4 Note On - Duracao: 174720 Nota: C1 Vol.: 46
Chanel 5 Note Off - Duracao: 174720 Nota: C1 Vol.: 55
Chanel 5 Note On - Duracao: 174720 Nota: C1 Vol.: 58
Chanel 1 Note Off - Duracao: 174780 Nota: C1 Vol.: 40
Chanel 1 Note On - Duracao: 174780 Nota: C1 Vol.: 46
Chanel 2 Note Off - Duracao: 174780 Nota: C1 Vol.: 43
Chanel 2 Note On - Duracao: 174780 Nota: C1 Vol.: 42
Chanel 3 Note Off - Duracao: 174900 Nota: C1 Vol.: 69
Chanel 3 Note On - Duracao: 174900 Nota: C1 Vol.: 76
Chanel 7 Note Off - Duracao: 174900 Nota: C1 Vol.: 51
Chanel 7 Note On - Duracao: 174900 Nota: C1 Vol.: 51
Chanel 3 Note Off - Duracao: 175020 Nota: C1 Vol.: 76
Chanel 3 Note On - Duracao: 175020 Nota: C1 Vol.: 73
Chanel 3 Note Off - Duracao: 175260 Nota: C1 Vol.: 73
Chanel 3 Note On - Duracao: 175260 Nota: C1 Vol.: 65
Chanel 9 Note Off - Duracao: 175440 Nota: C1 Vol.: 50
Chanel 9 Note On - Duracao: 175440 Nota: C1 Vol.: 50
Chanel 3 Note Off - Duracao: 175500 Nota: C1 Vol.: 65
Chanel 3 Note On - Duracao: 175500 Nota: C1 Vol.: 70
Chanel 8 Note Off - Duracao: 175500 Nota: C1 Vol.: 42
Chanel 8 Note On - Duracao: 175500 Nota: C1 Vol.: 42
Chanel 4 Note Off - Duracao: 175680 Nota: C1 Vol.: 46
Chanel 4 Note On - Duracao: 175680 Nota: C1 Vol.: 45
Chanel 5 Note Off - Duracao: 175680 Nota: C1 Vol.: 58
Chanel 5 Note On - Duracao: 175680 Nota: C1 Vol.: 59
Chanel 3 Note Off - Duracao: 175740 Nota: C1 Vol.: 70
Chanel 3 Note On - Duracao: 175740 Nota: C1 Vol.: 52
Chanel 3 Note Off - Duracao: 176220 Nota: C1 Vol.: 52
Chanel 3 Note On - Duracao: 176220 Nota: C1 Vol.: 60
Chanel 9 Note Off - Duracao: 176400 Nota: C1 Vol.: 50
Chanel 9 Note On - Duracao: 176400 Nota: C1 Vol.: 57
Chanel 3 Note Off - Duracao: 176460 Nota: C1 Vol.: 60
Chanel 3 Note On - Duracao: 176460 Nota: C1 Vol.: 69
Chanel 4 Note Off - Duracao: 176640 Nota: C1 Vol.: 45
Chanel 4 Note On - Duracao: 176640 Nota: C1 Vol.: 49
Chanel 5 Note Off - Duracao: 176640 Nota: C1 Vol.: 59
Chanel 5 Note On - Duracao: 176640 Nota: C1 Vol.: 58
Chanel 1 Note Off - Duracao: 176700 Nota: C1 Vol.: 46
Chanel 1 Note On - Duracao: 176700 Nota: C1 Vol.: 60
Chanel 2 Note Off - Duracao: 176700 Nota: C1 Vol.: 42
Chanel 2 Note On - Duracao: 176700 Nota: C1 Vol.: 40
Chanel 3 Note Off - Duracao: 176700 Nota: C1 Vol.: 69
Chanel 3 Note On - Duracao: 176700 Nota: C1 Vol.: 71
Chanel 6 Note Off - Duracao: 176760 Nota: C1 Vol.: 49
Chanel 6 Note On - Duracao: 176760 Nota: C1 Vol.: 86
Chanel 3 Note Off - Duracao: 176820 Nota: C1 Vol.: 71
Chanel 3 Note On - Duracao: 176820 Nota: C1 Vol.: 55
Chanel 9 Note Off - Duracao: 176880 Nota: C1 Vol.: 57
Chanel 9 Note On - Duracao: 176880 Nota: C1 Vol.: 56
Chanel 6 Note Off - Duracao: 177000 Nota: C1 Vol.: 86
Chanel 6 Note On - Duracao: 177000 Nota: C1 Vol.: 88
Chanel 6 Note Off - Duracao: 177120 Nota: C1 Vol.: 88
Chanel 6 Note On - Duracao: 177120 Nota: C1 Vol.: 88
Chanel 6 Note Off - Duracao: 177240 Nota: C1 Vol.: 88
Chanel 6 Note On - Duracao: 177240 Nota: C1 Vol.: 97
Chanel 3 Note Off - Duracao: 177300 Nota: C1 Vol.: 55
Chanel 3 Note On - Duracao: 177300 Nota: C1 Vol.: 40
Chanel 6 Note Off - Duracao: 177300 Nota: C1 Vol.: 97
Chanel 6 Note On - Duracao: 177300 Nota: C1 Vol.: 98
Chanel 6 Note Off - Duracao: 177360 Nota: C1 Vol.: 98
Chanel 6 Note On - Duracao: 177360 Nota: C1 Vol.: 99
Chanel 6 Note Off - Duracao: 177420 Nota: C1 Vol.: 99
Chanel 6 Note On - Duracao: 177420 Nota: C1 Vol.: 99
Chanel 8 Note Off - Duracao: 177420 Nota: C1 Vol.: 42
Chanel 8 Note On - Duracao: 177420 Nota: C1 Vol.: 40
Chanel 6 Note Off - Duracao: 177480 Nota: C1 Vol.: 99
Chanel 6 Note On - Duracao: 177480 Nota: C1 Vol.: 100
Chanel 6 Note Off - Duracao: 177540 Nota: C1 Vol.: 100
Chanel 6 Note On - Duracao: 177540 Nota: C1 Vol.: 100
Chanel 4 Note Off - Duracao: 177600 Nota: C1 Vol.: 49
Chanel 4 Note On - Duracao: 177600 Nota: C1 Vol.: 52
Chanel 5 Note Off - Duracao: 177600 Nota: C1 Vol.: 58
Chanel 5 Note On - Duracao: 177600 Nota: C1 Vol.: 72
Chanel 6 Note Off - Duracao: 177600 Nota: C1 Vol.: 100
Chanel 6 Note On - Duracao: 177600 Nota: C1 Vol.: 99
Chanel 1 Note Off - Duracao: 177660 Nota: C1 Vol.: 60
Chanel 1 Note On - Duracao: 177660 Nota: C1 Vol.: 94
Chanel 6 Note Off - Duracao: 177660 Nota: C1 Vol.: 99
Chanel 6 Note On - Duracao: 177660 Nota: C1 Vol.: 88
Chanel 1 Note Off - Duracao: 177720 Nota: C1 Vol.: 94
Chanel 1 Note On - Duracao: 177720 Nota: C1 Vol.: 94
Chanel 1 Note Off - Duracao: 177780 Nota: C1 Vol.: 94
Chanel 1 Note On - Duracao: 177780 Nota: C1 Vol.: 91
Chanel 6 Note Off - Duracao: 177780 Nota: C1 Vol.: 88
Chanel 6 Note On - Duracao: 177780 Nota: C1 Vol.: 87
Chanel 9 Note Off - Duracao: 177840 Nota: C1 Vol.: 56
Chanel 9 Note On - Duracao: 177840 Nota: C1 Vol.: 54
Chanel 1 Note Off - Duracao: 177900 Nota: C1 Vol.: 91
Chanel 1 Note On - Duracao: 177900 Nota: C1 Vol.: 55
Chanel 6 Note Off - Duracao: 177900 Nota: C1 Vol.: 87
Chanel 6 Note On - Duracao: 177900 Nota: C1 Vol.: 48
Chanel 4 Note Off - Duracao: 178080 Nota: C1 Vol.: 52
Chanel 4 Note On - Duracao: 178080 Nota: C1 Vol.: 57
Chanel 5 Note Off - Duracao: 178080 Nota: C1 Vol.: 72
Chanel 5 Note On - Duracao: 178080 Nota: C1 Vol.: 72
Chanel 4 Note Off - Duracao: 178560 Nota: C1 Vol.: 57
Chanel 4 Note On - Duracao: 178560 Nota: C1 Vol.: 67
Chanel 5 Note Off - Duracao: 178560 Nota: C1 Vol.: 72
Chanel 5 Note On - Duracao: 178560 Nota: C1 Vol.: 67
Chanel 7 Note Off - Duracao: 178740 Nota: C1 Vol.: 51
Chanel 7 Note On - Duracao: 178740 Nota: C1 Vol.: 50
Chanel 4 Note Off - Duracao: 178800 Nota: C1 Vol.: 67
Chanel 4 Note On - Duracao: 178800 Nota: C1 Vol.: 66
Chanel 5 Note Off - Duracao: 178800 Nota: C1 Vol.: 67
Chanel 5 Note On - Duracao: 178800 Nota: C1 Vol.: 75
Chanel 9 Note Off - Duracao: 178800 Nota: C1 Vol.: 54
Chanel 9 Note On - Duracao: 178800 Nota: C1 Vol.: 62
Chanel 1 Note Off - Duracao: 178860 Nota: C1 Vol.: 55
Chanel 1 Note On - Duracao: 178860 Nota: C1 Vol.: 86
Chanel 5 Note Off - Duracao: 178920 Nota: C1 Vol.: 75
Chanel 5 Note On - Duracao: 178920 Nota: C1 Vol.: 63
Chanel 1 Note Off - Duracao: 178980 Nota: C1 Vol.: 86
Chanel 1 Note On - Duracao: 178980 Nota: C1 Vol.: 94
Chanel 1 Note Off - Duracao: 179040 Nota: C1 Vol.: 94
Chanel 1 Note On - Duracao: 179040 Nota: C1 Vol.: 90
Chanel 4 Note Off - Duracao: 179040 Nota: C1 Vol.: 66
Chanel 4 Note On - Duracao: 179040 Nota: C1 Vol.: 61
Chanel 1 Note Off - Duracao: 179100 Nota: C1 Vol.: 90
Chanel 1 Note On - Duracao: 179100 Nota: C1 Vol.: 81
Chanel 5 Note Off - Duracao: 179160 Nota: C1 Vol.: 63
Chanel 5 Note On - Duracao: 179160 Nota: C1 Vol.: 56
Chanel 1 Note Off - Duracao: 179220 Nota: C1 Vol.: 81
Chanel 1 Note On - Duracao: 179220 Nota: C1 Vol.: 57
Chanel 3 Note Off - Duracao: 179220 Nota: C1 Vol.: 40
Chanel 3 Note On - Duracao: 179220 Nota: C1 Vol.: 63
Chanel 9 Note Off - Duracao: 179280 Nota: C1 Vol.: 62
Chanel 9 Note On - Duracao: 179280 Nota: C1 Vol.: 58
Chanel 8 Note Off - Duracao: 179340 Nota: C1 Vol.: 40
Chanel 8 Note On - Duracao: 179340 Nota: C1 Vol.: 40
Chanel 5 Note Off - Duracao: 179400 Nota: C1 Vol.: 56
Chanel 5 Note On - Duracao: 179400 Nota: C1 Vol.: 52
Chanel 4 Note Off - Duracao: 179520 Nota: C1 Vol.: 61
Chanel 4 Note On - Duracao: 179520 Nota: C1 Vol.: 61
Chanel 3 Note Off - Duracao: 179700 Nota: C1 Vol.: 63
Chanel 3 Note On - Duracao: 179700 Nota: C1 Vol.: 64
Chanel 6 Note Off - Duracao: 179820 Nota: C1 Vol.: 48
Chanel 6 Note On - Duracao: 179820 Nota: C1 Vol.: 76
Chanel 5 Note Off - Duracao: 179880 Nota: C1 Vol.: 52
Chanel 5 Note On - Duracao: 179880 Nota: C1 Vol.: 57
Chanel 4 Note Off - Duracao: 180000 Nota: C1 Vol.: 61
Chanel 4 Note On - Duracao: 180000 Nota: C1 Vol.: 60
Chanel 6 Note Off - Duracao: 180060 Nota: C1 Vol.: 76
Chanel 6 Note On - Duracao: 180060 Nota: C1 Vol.: 100
Chanel 6 Note Off - Duracao: 180120 Nota: C1 Vol.: 100
Chanel 6 Note On - Duracao: 180120 Nota: C1 Vol.: 99
Chanel 1 Note Off - Duracao: 180180 Nota: C1 Vol.: 57
Chanel 1 Note On - Duracao: 180180 Nota: C1 Vol.: 44
Chanel 3 Note Off - Duracao: 180180 Nota: C1 Vol.: 64
Chanel 3 Note On - Duracao: 180180 Nota: C1 Vol.: 54
Chanel 6 Note Off - Duracao: 180180 Nota: C1 Vol.: 99
Chanel 6 Note On - Duracao: 180180 Nota: C1 Vol.: 94
Chanel 9 Note Off - Duracao: 180240 Nota: C1 Vol.: 58
Chanel 9 Note On - Duracao: 180240 Nota: C1 Vol.: 58
Chanel 6 Note Off - Duracao: 180300 Nota: C1 Vol.: 94
Chanel 6 Note On - Duracao: 180300 Nota: C1 Vol.: 89
Chanel 5 Note Off - Duracao: 180360 Nota: C1 Vol.: 57
Chanel 5 Note On - Duracao: 180360 Nota: C1 Vol.: 56
Chanel 6 Note Off - Duracao: 180420 Nota: C1 Vol.: 89
Chanel 6 Note On - Duracao: 180420 Nota: C1 Vol.: 97
Chanel 4 Note Off - Duracao: 180480 Nota: C1 Vol.: 60
Chanel 4 Note On - Duracao: 180480 Nota: C1 Vol.: 49
Chanel 6 Note Off - Duracao: 180480 Nota: C1 Vol.: 97
Chanel 6 Note On - Duracao: 180480 Nota: C1 Vol.: 93
Chanel 2 Note Off - Duracao: 180540 Nota: C1 Vol.: 40
Chanel 2 Note On - Duracao: 180540 Nota: C1 Vol.: 40
Chanel 6 Note Off - Duracao: 180600 Nota: C1 Vol.: 93
Chanel 6 Note On - Duracao: 180600 Nota: C1 Vol.: 69
Chanel 5 Note Off - Duracao: 180840 Nota: C1 Vol.: 56
Chanel 5 Note On - Duracao: 180840 Nota: C1 Vol.: 53
Chanel 6 Note Off - Duracao: 181080 Nota: C1 Vol.: 69
Chanel 6 Note On - Duracao: 181080 Nota: C1 Vol.: 73
Chanel 1 Note Off - Duracao: 181140 Nota: C1 Vol.: 44
Chanel 1 Note On - Duracao: 181140 Nota: C1 Vol.: 58
Chanel 3 Note Off - Duracao: 181140 Nota: C1 Vol.: 54
Chanel 3 Note On - Duracao: 181140 Nota: C1 Vol.: 40
Chanel 9 Note Off - Duracao: 181200 Nota: C1 Vol.: 58
Chanel 9 Note On - Duracao: 181200 Nota: C1 Vol.: 67
Chanel 8 Note Off - Duracao: 181260 Nota: C1 Vol.: 40
Chanel 8 Note On - Duracao: 181260 Nota: C1 Vol.: 40
Chanel 5 Note Off - Duracao: 181320 Nota: C1 Vol.: 53
Chanel 5 Note On - Duracao: 181320 Nota: C1 Vol.: 45
Chanel 6 Note Off - Duracao: 181320 Nota: C1 Vol.: 73
Chanel 6 Note On - Duracao: 181320 Nota: C1 Vol.: 71
Chanel 1 Note Off - Duracao: 181380 Nota: C1 Vol.: 58
Chanel 1 Note On - Duracao: 181380 Nota: C1 Vol.: 56
Chanel 4 Note Off - Duracao: 181440 Nota: C1 Vol.: 49
Chanel 4 Note On - Duracao: 181440 Nota: C1 Vol.: 42
Chanel 1 Note Off - Duracao: 181500 Nota: C1 Vol.: 56
Chanel 1 Note On - Duracao: 181500 Nota: C1 Vol.: 47
Chanel 1 Note Off - Duracao: 181620 Nota: C1 Vol.: 47
Chanel 1 Note On - Duracao: 181620 Nota: C1 Vol.: 42
Chanel 9 Note Off - Duracao: 181680 Nota: C1 Vol.: 67
Chanel 9 Note On - Duracao: 181680 Nota: C1 Vol.: 63
Chanel 1 Note Off - Duracao: 181740 Nota: C1 Vol.: 42
Chanel 1 Note On - Duracao: 181740 Nota: C1 Vol.: 46
Chanel 5 Note Off - Duracao: 181800 Nota: C1 Vol.: 45
Chanel 5 Note On - Duracao: 181800 Nota: C1 Vol.: 49
Chanel 6 Note Off - Duracao: 181800 Nota: C1 Vol.: 71
Chanel 6 Note On - Duracao: 181800 Nota: C1 Vol.: 66
Chanel 1 Note Off - Duracao: 181860 Nota: C1 Vol.: 46
Chanel 1 Note On - Duracao: 181860 Nota: C1 Vol.: 52
Chanel 1 Note Off - Duracao: 181980 Nota: C1 Vol.: 52
Chanel 1 Note On - Duracao: 181980 Nota: C1 Vol.: 57
Chanel 1 Note Off - Duracao: 182100 Nota: C1 Vol.: 57
Chanel 1 Note On - Duracao: 182100 Nota: C1 Vol.: 40
Chanel 9 Note Off - Duracao: 182160 Nota: C1 Vol.: 63
Chanel 9 Note On - Duracao: 182160 Nota: C1 Vol.: 57
Chanel 5 Note Off - Duracao: 182280 Nota: C1 Vol.: 49
Chanel 5 Note On - Duracao: 182280 Nota: C1 Vol.: 57
Chanel 6 Note Off - Duracao: 182280 Nota: C1 Vol.: 66
Chanel 6 Note On - Duracao: 182280 Nota: C1 Vol.: 74
Chanel 2 Note Off - Duracao: 182460 Nota: C1 Vol.: 40
Chanel 2 Note On - Duracao: 182460 Nota: C1 Vol.: 44
Chanel 6 Note Off - Duracao: 182520 Nota: C1 Vol.: 74
Chanel 6 Note On - Duracao: 182520 Nota: C1 Vol.: 67
Chanel 7 Note Off - Duracao: 182580 Nota: C1 Vol.: 50
Chanel 7 Note On - Duracao: 182580 Nota: C1 Vol.: 49
Chanel 5 Note Off - Duracao: 182760 Nota: C1 Vol.: 57
Chanel 5 Note On - Duracao: 182760 Nota: C1 Vol.: 64
Chanel 6 Note Off - Duracao: 182760 Nota: C1 Vol.: 67
Chanel 6 Note On - Duracao: 182760 Nota: C1 Vol.: 72
Chanel 5 Note Off - Duracao: 183000 Nota: C1 Vol.: 64
Chanel 5 Note On - Duracao: 183000 Nota: C1 Vol.: 52
Chanel 6 Note Off - Duracao: 183000 Nota: C1 Vol.: 72
Chanel 6 Note On - Duracao: 183000 Nota: C1 Vol.: 68
Chanel 1 Note Off - Duracao: 183060 Nota: C1 Vol.: 40
Chanel 1 Note On - Duracao: 183060 Nota: C1 Vol.: 58
Chanel 3 Note Off - Duracao: 183060 Nota: C1 Vol.: 40
Chanel 3 Note On - Duracao: 183060 Nota: C1 Vol.: 40
Chanel 9 Note Off - Duracao: 183120 Nota: C1 Vol.: 57
Chanel 9 Note On - Duracao: 183120 Nota: C1 Vol.: 62
Chanel 8 Note Off - Duracao: 183180 Nota: C1 Vol.: 40
Chanel 8 Note On - Duracao: 183180 Nota: C1 Vol.: 40
Chanel 6 Note Off - Duracao: 183240 Nota: C1 Vol.: 68
Chanel 6 Note On - Duracao: 183240 Nota: C1 Vol.: 64
Chanel 4 Note Off - Duracao: 183360 Nota: C1 Vol.: 42
Chanel 4 Note On - Duracao: 183360 Nota: C1 Vol.: 58
Chanel 2 Note Off - Duracao: 183420 Nota: C1 Vol.: 44
Chanel 2 Note On - Duracao: 183420 Nota: C1 Vol.: 47
Chanel 5 Note Off - Duracao: 183480 Nota: C1 Vol.: 52
Chanel 5 Note On - Duracao: 183480 Nota: C1 Vol.: 61
Chanel 6 Note Off - Duracao: 183480 Nota: C1 Vol.: 64
Chanel 6 Note On - Duracao: 183480 Nota: C1 Vol.: 70
Chanel 1 Note Off - Duracao: 183540 Nota: C1 Vol.: 58
Chanel 1 Note On - Duracao: 183540 Nota: C1 Vol.: 83
Chanel 6 Note Off - Duracao: 183600 Nota: C1 Vol.: 70
Chanel 6 Note On - Duracao: 183600 Nota: C1 Vol.: 54
Chanel 9 Note Off - Duracao: 183600 Nota: C1 Vol.: 62
Chanel 9 Note On - Duracao: 183600 Nota: C1 Vol.: 72
Chanel 1 Note Off - Duracao: 183660 Nota: C1 Vol.: 83
Chanel 1 Note On - Duracao: 183660 Nota: C1 Vol.: 86
Chanel 5 Note Off - Duracao: 183720 Nota: C1 Vol.: 61
Chanel 5 Note On - Duracao: 183720 Nota: C1 Vol.: 64
Chanel 1 Note Off - Duracao: 183780 Nota: C1 Vol.: 86
Chanel 1 Note On - Duracao: 183780 Nota: C1 Vol.: 81
Chanel 4 Note Off - Duracao: 183840 Nota: C1 Vol.: 58
Chanel 4 Note On - Duracao: 183840 Nota: C1 Vol.: 62
Chanel 9 Note Off - Duracao: 183840 Nota: C1 Vol.: 72
Chanel 9 Note On - Duracao: 183840 Nota: C1 Vol.: 67
Chanel 2 Note Off - Duracao: 183900 Nota: C1 Vol.: 47
Chanel 2 Note On - Duracao: 183900 Nota: C1 Vol.: 57
Chanel 5 Note Off - Duracao: 183960 Nota: C1 Vol.: 64
Chanel 5 Note On - Duracao: 183960 Nota: C1 Vol.: 63
Chanel 1 Note Off - Duracao: 184020 Nota: C1 Vol.: 81
Chanel 1 Note On - Duracao: 184020 Nota: C1 Vol.: 76
Chanel 4 Note Off - Duracao: 184080 Nota: C1 Vol.: 62
Chanel 4 Note On - Duracao: 184080 Nota: C1 Vol.: 58
Chanel 6 Note Off - Duracao: 184080 Nota: C1 Vol.: 54
Chanel 6 Note On - Duracao: 184080 Nota: C1 Vol.: 56
Chanel 2 Note Off - Duracao: 184140 Nota: C1 Vol.: 57
Chanel 2 Note On - Duracao: 184140 Nota: C1 Vol.: 56
Chanel 5 Note Off - Duracao: 184200 Nota: C1 Vol.: 63
Chanel 5 Note On - Duracao: 184200 Nota: C1 Vol.: 56
Chanel 1 Note Off - Duracao: 184260 Nota: C1 Vol.: 76
Chanel 1 Note On - Duracao: 184260 Nota: C1 Vol.: 86
Chanel 2 Note Off - Duracao: 184260 Nota: C1 Vol.: 56
Chanel 2 Note On - Duracao: 184260 Nota: C1 Vol.: 55
Chanel 4 Note Off - Duracao: 184320 Nota: C1 Vol.: 58
Chanel 4 Note On - Duracao: 184320 Nota: C1 Vol.: 58
Chanel 6 Note Off - Duracao: 184320 Nota: C1 Vol.: 56
Chanel 6 Note On - Duracao: 184320 Nota: C1 Vol.: 48
Chanel 9 Note Off - Duracao: 184320 Nota: C1 Vol.: 67
Chanel 9 Note On - Duracao: 184320 Nota: C1 Vol.: 63
Chanel 1 Note Off - Duracao: 184380 Nota: C1 Vol.: 86
Chanel 1 Note On - Duracao: 184380 Nota: C1 Vol.: 91
Chanel 2 Note Off - Duracao: 184380 Nota: C1 Vol.: 55
Chanel 2 Note On - Duracao: 184380 Nota: C1 Vol.: 54
Chanel 1 Note Off - Duracao: 184500 Nota: C1 Vol.: 91
Chanel 1 Note On - Duracao: 184500 Nota: C1 Vol.: 75
Chanel 2 Note Off - Duracao: 184500 Nota: C1 Vol.: 54
Chanel 2 Note On - Duracao: 184500 Nota: C1 Vol.: 54
Chanel 4 Note Off - Duracao: 184560 Nota: C1 Vol.: 58
Chanel 4 Note On - Duracao: 184560 Nota: C1 Vol.: 57
Chanel 2 Note Off - Duracao: 184620 Nota: C1 Vol.: 54
Chanel 2 Note On - Duracao: 184620 Nota: C1 Vol.: 54
Chanel 5 Note Off - Duracao: 184680 Nota: C1 Vol.: 56
Chanel 5 Note On - Duracao: 184680 Nota: C1 Vol.: 52
Chanel 2 Note Off - Duracao: 184740 Nota: C1 Vol.: 54
Chanel 2 Note On - Duracao: 184740 Nota: C1 Vol.: 55
Chanel 4 Note Off - Duracao: 184800 Nota: C1 Vol.: 57
Chanel 4 Note On - Duracao: 184800 Nota: C1 Vol.: 59
Chanel 6 Note Off - Duracao: 184800 Nota: C1 Vol.: 48
Chanel 6 Note On - Duracao: 184800 Nota: C1 Vol.: 52
Chanel 9 Note Off - Duracao: 184800 Nota: C1 Vol.: 63
Chanel 9 Note On - Duracao: 184800 Nota: C1 Vol.: 69
Chanel 2 Note Off - Duracao: 184860 Nota: C1 Vol.: 55
Chanel 2 Note On - Duracao: 184860 Nota: C1 Vol.: 57
Chanel 1 Note Off - Duracao: 184980 Nota: C1 Vol.: 75
Chanel 1 Note On - Duracao: 184980 Nota: C1 Vol.: 75
Chanel 2 Note Off - Duracao: 184980 Nota: C1 Vol.: 57
Chanel 2 Note On - Duracao: 184980 Nota: C1 Vol.: 59
Chanel 4 Note Off - Duracao: 185040 Nota: C1 Vol.: 59
Chanel 4 Note On - Duracao: 185040 Nota: C1 Vol.: 62
Chanel 9 Note Off - Duracao: 185040 Nota: C1 Vol.: 69
Chanel 9 Note On - Duracao: 185040 Nota: C1 Vol.: 57
Chanel 2 Note Off - Duracao: 185100 Nota: C1 Vol.: 59
Chanel 2 Note On - Duracao: 185100 Nota: C1 Vol.: 51
Chanel 8 Note Off - Duracao: 185100 Nota: C1 Vol.: 40
Chanel 8 Note On - Duracao: 185100 Nota: C1 Vol.: 54
Chanel 4 Note Off - Duracao: 185280 Nota: C1 Vol.: 62
Chanel 4 Note On - Duracao: 185280 Nota: C1 Vol.: 62
Chanel 6 Note Off - Duracao: 185280 Nota: C1 Vol.: 52
Chanel 6 Note On - Duracao: 185280 Nota: C1 Vol.: 56
Chanel 2 Note Off - Duracao: 185340 Nota: C1 Vol.: 51
Chanel 2 Note On - Duracao: 185340 Nota: C1 Vol.: 48
Chanel 1 Note Off - Duracao: 185460 Nota: C1 Vol.: 75
Chanel 1 Note On - Duracao: 185460 Nota: C1 Vol.: 72
Chanel 6 Note Off - Duracao: 185520 Nota: C1 Vol.: 56
Chanel 6 Note On - Duracao: 185520 Nota: C1 Vol.: 59
Chanel 8 Note Off - Duracao: 185580 Nota: C1 Vol.: 54
Chanel 8 Note On - Duracao: 185580 Nota: C1 Vol.: 53
Chanel 5 Note Off - Duracao: 185640 Nota: C1 Vol.: 52
Chanel 5 Note On - Duracao: 185640 Nota: C1 Vol.: 52
Chanel 4 Note Off - Duracao: 185760 Nota: C1 Vol.: 62
Chanel 4 Note On - Duracao: 185760 Nota: C1 Vol.: 44
Chanel 6 Note Off - Duracao: 185760 Nota: C1 Vol.: 59
Chanel 6 Note On - Duracao: 185760 Nota: C1 Vol.: 56
Chanel 2 Note Off - Duracao: 185820 Nota: C1 Vol.: 48
Chanel 2 Note On - Duracao: 185820 Nota: C1 Vol.: 49
Chanel 1 Note Off - Duracao: 185940 Nota: C1 Vol.: 72
Chanel 1 Note On - Duracao: 185940 Nota: C1 Vol.: 75
Chanel 6 Note Off - Duracao: 186000 Nota: C1 Vol.: 56
Chanel 6 Note On - Duracao: 186000 Nota: C1 Vol.: 51
Chanel 9 Note Off - Duracao: 186000 Nota: C1 Vol.: 57
Chanel 9 Note On - Duracao: 186000 Nota: C1 Vol.: 60
Chanel 8 Note Off - Duracao: 186060 Nota: C1 Vol.: 53
Chanel 8 Note On - Duracao: 186060 Nota: C1 Vol.: 49
Chanel 5 Note Off - Duracao: 186120 Nota: C1 Vol.: 52
Chanel 5 Note On - Duracao: 186120 Nota: C1 Vol.: 46
Chanel 1 Note Off - Duracao: 186180 Nota: C1 Vol.: 75
Chanel 1 Note On - Duracao: 186180 Nota: C1 Vol.: 72
Chanel 2 Note Off - Duracao: 186300 Nota: C1 Vol.: 49
Chanel 2 Note On - Duracao: 186300 Nota: C1 Vol.: 56
Chanel 7 Note Off - Duracao: 186420 Nota: C1 Vol.: 49
Chanel 7 Note On - Duracao: 186420 Nota: C1 Vol.: 50
Chanel 6 Note Off - Duracao: 186480 Nota: C1 Vol.: 51
Chanel 6 Note On - Duracao: 186480 Nota: C1 Vol.: 50
Chanel 9 Note Off - Duracao: 186480 Nota: C1 Vol.: 60
Chanel 9 Note On - Duracao: 186480 Nota: C1 Vol.: 66
Chanel 2 Note Off - Duracao: 186540 Nota: C1 Vol.: 56
Chanel 2 Note On - Duracao: 186540 Nota: C1 Vol.: 46
Chanel 8 Note Off - Duracao: 186540 Nota: C1 Vol.: 49
Chanel 8 Note On - Duracao: 186540 Nota: C1 Vol.: 59
Chanel 1 Note Off - Duracao: 186660 Nota: C1 Vol.: 72
Chanel 1 Note On - Duracao: 186660 Nota: C1 Vol.: 77
Chanel 8 Note Off - Duracao: 186660 Nota: C1 Vol.: 59
Chanel 8 Note On - Duracao: 186660 Nota: C1 Vol.: 63
Chanel 4 Note Off - Duracao: 186720 Nota: C1 Vol.: 44
Chanel 4 Note On - Duracao: 186720 Nota: C1 Vol.: 40
Chanel 8 Note Off - Duracao: 186780 Nota: C1 Vol.: 63
Chanel 8 Note On - Duracao: 186780 Nota: C1 Vol.: 54
Chanel 1 Note Off - Duracao: 186900 Nota: C1 Vol.: 77
Chanel 1 Note On - Duracao: 186900 Nota: C1 Vol.: 81
Chanel 3 Note Off - Duracao: 186900 Nota: C1 Vol.: 40
Chanel 3 Note On - Duracao: 186900 Nota: C1 Vol.: 58
Chanel 6 Note Off - Duracao: 186960 Nota: C1 Vol.: 50
Chanel 6 Note On - Duracao: 186960 Nota: C1 Vol.: 56
Chanel 9 Note Off - Duracao: 186960 Nota: C1 Vol.: 66
Chanel 9 Note On - Duracao: 186960 Nota: C1 Vol.: 63
Chanel 1 Note Off - Duracao: 187020 Nota: C1 Vol.: 81
Chanel 1 Note On - Duracao: 187020 Nota: C1 Vol.: 58
Chanel 2 Note Off - Duracao: 187020 Nota: C1 Vol.: 46
Chanel 2 Note On - Duracao: 187020 Nota: C1 Vol.: 41
Chanel 8 Note Off - Duracao: 187020 Nota: C1 Vol.: 54
Chanel 8 Note On - Duracao: 187020 Nota: C1 Vol.: 69
Chanel 5 Note Off - Duracao: 187080 Nota: C1 Vol.: 46
Chanel 5 Note On - Duracao: 187080 Nota: C1 Vol.: 45
Chanel 8 Note Off - Duracao: 187140 Nota: C1 Vol.: 69
Chanel 8 Note On - Duracao: 187140 Nota: C1 Vol.: 69
Chanel 8 Note Off - Duracao: 187260 Nota: C1 Vol.: 69
Chanel 8 Note On - Duracao: 187260 Nota: C1 Vol.: 68
Chanel 8 Note Off - Duracao: 187380 Nota: C1 Vol.: 68
Chanel 8 Note On - Duracao: 187380 Nota: C1 Vol.: 67
Chanel 6 Note Off - Duracao: 187440 Nota: C1 Vol.: 56
Chanel 6 Note On - Duracao: 187440 Nota: C1 Vol.: 52
Chanel 9 Note Off - Duracao: 187440 Nota: C1 Vol.: 63
Chanel 9 Note On - Duracao: 187440 Nota: C1 Vol.: 59
Chanel 1 Note Off - Duracao: 187500 Nota: C1 Vol.: 58
Chanel 1 Note On - Duracao: 187500 Nota: C1 Vol.: 54
Chanel 8 Note Off - Duracao: 187500 Nota: C1 Vol.: 67
Chanel 8 Note On - Duracao: 187500 Nota: C1 Vol.: 61
Chanel 8 Note Off - Duracao: 187740 Nota: C1 Vol.: 61
Chanel 8 Note On - Duracao: 187740 Nota: C1 Vol.: 59
Chanel 3 Note Off - Duracao: 187860 Nota: C1 Vol.: 58
Chanel 3 Note On - Duracao: 187860 Nota: C1 Vol.: 67
Chanel 6 Note Off - Duracao: 187920 Nota: C1 Vol.: 52
Chanel 6 Note On - Duracao: 187920 Nota: C1 Vol.: 49
Chanel 9 Note Off - Duracao: 187920 Nota: C1 Vol.: 59
Chanel 9 Note On - Duracao: 187920 Nota: C1 Vol.: 60
Chanel 1 Note Off - Duracao: 187980 Nota: C1 Vol.: 54
Chanel 1 Note On - Duracao: 187980 Nota: C1 Vol.: 58
Chanel 2 Note Off - Duracao: 187980 Nota: C1 Vol.: 41
Chanel 2 Note On - Duracao: 187980 Nota: C1 Vol.: 40
Chanel 8 Note Off - Duracao: 187980 Nota: C1 Vol.: 59
Chanel 8 Note On - Duracao: 187980 Nota: C1 Vol.: 60
Chanel 5 Note Off - Duracao: 188040 Nota: C1 Vol.: 45
Chanel 5 Note On - Duracao: 188040 Nota: C1 Vol.: 54
Chanel 3 Note Off - Duracao: 188100 Nota: C1 Vol.: 67
Chanel 3 Note On - Duracao: 188100 Nota: C1 Vol.: 50
Chanel 8 Note Off - Duracao: 188220 Nota: C1 Vol.: 60
Chanel 8 Note On - Duracao: 188220 Nota: C1 Vol.: 50
Chanel 6 Note Off - Duracao: 188400 Nota: C1 Vol.: 49
Chanel 6 Note On - Duracao: 188400 Nota: C1 Vol.: 62
Chanel 9 Note Off - Duracao: 188400 Nota: C1 Vol.: 60
Chanel 9 Note On - Duracao: 188400 Nota: C1 Vol.: 56
Chanel 1 Note Off - Duracao: 188460 Nota: C1 Vol.: 58
Chanel 1 Note On - Duracao: 188460 Nota: C1 Vol.: 76
Chanel 5 Note Off - Duracao: 188520 Nota: C1 Vol.: 54
Chanel 5 Note On - Duracao: 188520 Nota: C1 Vol.: 54
Chanel 1 Note Off - Duracao: 188580 Nota: C1 Vol.: 76
Chanel 1 Note On - Duracao: 188580 Nota: C1 Vol.: 78
Chanel 4 Note Off - Duracao: 188640 Nota: C1 Vol.: 40
Chanel 4 Note On - Duracao: 188640 Nota: C1 Vol.: 62
Chanel 6 Note Off - Duracao: 188640 Nota: C1 Vol.: 62
Chanel 6 Note On - Duracao: 188640 Nota: C1 Vol.: 65
Chanel 1 Note Off - Duracao: 188700 Nota: C1 Vol.: 78
Chanel 1 Note On - Duracao: 188700 Nota: C1 Vol.: 67
Chanel 8 Note Off - Duracao: 188700 Nota: C1 Vol.: 50
Chanel 8 Note On - Duracao: 188700 Nota: C1 Vol.: 51
Chanel 6 Note Off - Duracao: 188760 Nota: C1 Vol.: 65
Chanel 6 Note On - Duracao: 188760 Nota: C1 Vol.: 58
Chanel 4 Note Off - Duracao: 188880 Nota: C1 Vol.: 62
Chanel 4 Note On - Duracao: 188880 Nota: C1 Vol.: 63
Chanel 1 Note Off - Duracao: 188940 Nota: C1 Vol.: 67
Chanel 1 Note On - Duracao: 188940 Nota: C1 Vol.: 97
Chanel 2 Note Off - Duracao: 188940 Nota: C1 Vol.: 40
Chanel 2 Note On - Duracao: 188940 Nota: C1 Vol.: 40
Chanel 1 Note Off - Duracao: 189000 Nota: C1 Vol.: 97
Chanel 1 Note On - Duracao: 189000 Nota: C1 Vol.: 96
Chanel 5 Note Off - Duracao: 189000 Nota: C1 Vol.: 54
Chanel 5 Note On - Duracao: 189000 Nota: C1 Vol.: 56
Chanel 3 Note Off - Duracao: 189060 Nota: C1 Vol.: 50
Chanel 3 Note On - Duracao: 189060 Nota: C1 Vol.: 57
Chanel 1 Note Off - Duracao: 189120 Nota: C1 Vol.: 96
Chanel 1 Note On - Duracao: 189120 Nota: C1 Vol.: 91
Chanel 8 Note Off - Duracao: 189180 Nota: C1 Vol.: 51
Chanel 8 Note On - Duracao: 189180 Nota: C1 Vol.: 52
Chanel 1 Note Off - Duracao: 189240 Nota: C1 Vol.: 91
Chanel 1 Note On - Duracao: 189240 Nota: C1 Vol.: 86
Chanel 6 Note Off - Duracao: 189240 Nota: C1 Vol.: 58
Chanel 6 Note On - Duracao: 189240 Nota: C1 Vol.: 53
Chanel 4 Note Off - Duracao: 189360 Nota: C1 Vol.: 63
Chanel 4 Note On - Duracao: 189360 Nota: C1 Vol.: 40
Chanel 9 Note Off - Duracao: 189360 Nota: C1 Vol.: 56
Chanel 9 Note On - Duracao: 189360 Nota: C1 Vol.: 47
Chanel 1 Note Off - Duracao: 189480 Nota: C1 Vol.: 86
Chanel 1 Note On - Duracao: 189480 Nota: C1 Vol.: 90
Chanel 5 Note Off - Duracao: 189480 Nota: C1 Vol.: 56
Chanel 5 Note On - Duracao: 189480 Nota: C1 Vol.: 57
Chanel 1 Note Off - Duracao: 189600 Nota: C1 Vol.: 90
Chanel 1 Note On - Duracao: 189600 Nota: C1 Vol.: 87
Chanel 1 Note Off - Duracao: 189720 Nota: C1 Vol.: 87
Chanel 1 Note On - Duracao: 189720 Nota: C1 Vol.: 95
Chanel 6 Note Off - Duracao: 189720 Nota: C1 Vol.: 53
Chanel 6 Note On - Duracao: 189720 Nota: C1 Vol.: 64
Chanel 1 Note Off - Duracao: 189840 Nota: C1 Vol.: 95
Chanel 1 Note On - Duracao: 189840 Nota: C1 Vol.: 95
Chanel 2 Note Off - Duracao: 189900 Nota: C1 Vol.: 40
Chanel 2 Note On - Duracao: 189900 Nota: C1 Vol.: 41
Chanel 1 Note Off - Duracao: 189960 Nota: C1 Vol.: 95
Chanel 1 Note On - Duracao: 189960 Nota: C1 Vol.: 86
Chanel 5 Note Off - Duracao: 189960 Nota: C1 Vol.: 57
Chanel 5 Note On - Duracao: 189960 Nota: C1 Vol.: 49
Chanel 6 Note Off - Duracao: 189960 Nota: C1 Vol.: 64
Chanel 6 Note On - Duracao: 189960 Nota: C1 Vol.: 63
Chanel 3 Note Off - Duracao: 190020 Nota: C1 Vol.: 57
Chanel 3 Note On - Duracao: 190020 Nota: C1 Vol.: 84
Chanel 3 Note Off - Duracao: 190140 Nota: C1 Vol.: 84
Chanel 3 Note On - Duracao: 190140 Nota: C1 Vol.: 95
Chanel 8 Note Off - Duracao: 190140 Nota: C1 Vol.: 52
Chanel 8 Note On - Duracao: 190140 Nota: C1 Vol.: 46
Chanel 1 Note Off - Duracao: 190200 Nota: C1 Vol.: 86
Chanel 1 Note On - Duracao: 190200 Nota: C1 Vol.: 77
Chanel 6 Note Off - Duracao: 190200 Nota: C1 Vol.: 63
Chanel 6 Note On - Duracao: 190200 Nota: C1 Vol.: 54
Chanel 3 Note Off - Duracao: 190260 Nota: C1 Vol.: 95
Chanel 3 Note On - Duracao: 190260 Nota: C1 Vol.: 98
Chanel 7 Note Off - Duracao: 190260 Nota: C1 Vol.: 50
Chanel 7 Note On - Duracao: 190260 Nota: C1 Vol.: 52
Chanel 2 Note Off - Duracao: 190380 Nota: C1 Vol.: 41
Chanel 2 Note On - Duracao: 190380 Nota: C1 Vol.: 53
Chanel 3 Note Off - Duracao: 190380 Nota: C1 Vol.: 98
Chanel 3 Note On - Duracao: 190380 Nota: C1 Vol.: 95
Chanel 2 Note Off - Duracao: 190500 Nota: C1 Vol.: 53
Chanel 2 Note On - Duracao: 190500 Nota: C1 Vol.: 50
Chanel 3 Note Off - Duracao: 190500 Nota: C1 Vol.: 95
Chanel 3 Note On - Duracao: 190500 Nota: C1 Vol.: 64
Chanel 2 Note Off - Duracao: 190620 Nota: C1 Vol.: 50
Chanel 2 Note On - Duracao: 190620 Nota: C1 Vol.: 45
Chanel 1 Note Off - Duracao: 190680 Nota: C1 Vol.: 77
Chanel 1 Note On - Duracao: 190680 Nota: C1 Vol.: 88
Chanel 6 Note Off - Duracao: 190680 Nota: C1 Vol.: 54
Chanel 6 Note On - Duracao: 190680 Nota: C1 Vol.: 50
Chanel 2 Note Off - Duracao: 190740 Nota: C1 Vol.: 45
Chanel 2 Note On - Duracao: 190740 Nota: C1 Vol.: 41
Chanel 2 Note Off - Duracao: 190860 Nota: C1 Vol.: 41
Chanel 2 Note On - Duracao: 190860 Nota: C1 Vol.: 42
Chanel 1 Note Off - Duracao: 190920 Nota: C1 Vol.: 88
Chanel 1 Note On - Duracao: 190920 Nota: C1 Vol.: 97
Chanel 5 Note Off - Duracao: 190920 Nota: C1 Vol.: 49
Chanel 5 Note On - Duracao: 190920 Nota: C1 Vol.: 66
Chanel 2 Note Off - Duracao: 190980 Nota: C1 Vol.: 42
Chanel 2 Note On - Duracao: 190980 Nota: C1 Vol.: 46
Chanel 1 Note Off - Duracao: 191040 Nota: C1 Vol.: 97
Chanel 1 Note On - Duracao: 191040 Nota: C1 Vol.: 80
Chanel 2 Note Off - Duracao: 191100 Nota: C1 Vol.: 46
Chanel 2 Note On - Duracao: 191100 Nota: C1 Vol.: 53
Chanel 8 Note Off - Duracao: 191100 Nota: C1 Vol.: 46
Chanel 8 Note On - Duracao: 191100 Nota: C1 Vol.: 52
Chanel 6 Note Off - Duracao: 191160 Nota: C1 Vol.: 50
Chanel 6 Note On - Duracao: 191160 Nota: C1 Vol.: 57
Chanel 2 Note Off - Duracao: 191220 Nota: C1 Vol.: 53
Chanel 2 Note On - Duracao: 191220 Nota: C1 Vol.: 46
Chanel 1 Note Off - Duracao: 191280 Nota: C1 Vol.: 80
Chanel 1 Note On - Duracao: 191280 Nota: C1 Vol.: 80
Chanel 9 Note Off - Duracao: 191280 Nota: C1 Vol.: 47
Chanel 9 Note On - Duracao: 191280 Nota: C1 Vol.: 49
Chanel 5 Note Off - Duracao: 191400 Nota: C1 Vol.: 66
Chanel 5 Note On - Duracao: 191400 Nota: C1 Vol.: 74
Chanel 6 Note Off - Duracao: 191400 Nota: C1 Vol.: 57
Chanel 6 Note On - Duracao: 191400 Nota: C1 Vol.: 52
Chanel 3 Note Off - Duracao: 191460 Nota: C1 Vol.: 64
Chanel 3 Note On - Duracao: 191460 Nota: C1 Vol.: 71
Chanel 1 Note Off - Duracao: 191520 Nota: C1 Vol.: 80
Chanel 1 Note On - Duracao: 191520 Nota: C1 Vol.: 89
Chanel 1 Note Off - Duracao: 191640 Nota: C1 Vol.: 89
Chanel 1 Note On - Duracao: 191640 Nota: C1 Vol.: 82
Chanel 6 Note Off - Duracao: 191640 Nota: C1 Vol.: 52
Chanel 6 Note On - Duracao: 191640 Nota: C1 Vol.: 52
Chanel 2 Note Off - Duracao: 191700 Nota: C1 Vol.: 46
Chanel 2 Note On - Duracao: 191700 Nota: C1 Vol.: 40
Chanel 1 Note Off - Duracao: 191880 Nota: C1 Vol.: 82
Chanel 1 Note On - Duracao: 191880 Nota: C1 Vol.: 84
Chanel 5 Note Off - Duracao: 191880 Nota: C1 Vol.: 74
Chanel 5 Note On - Duracao: 191880 Nota: C1 Vol.: 73
Chanel 8 Note Off - Duracao: 192060 Nota: C1 Vol.: 52
Chanel 8 Note On - Duracao: 192060 Nota: C1 Vol.: 52
Chanel 1 Note Off - Duracao: 192120 Nota: C1 Vol.: 84
Chanel 1 Note On - Duracao: 192120 Nota: C1 Vol.: 80
Chanel 6 Note Off - Duracao: 192120 Nota: C1 Vol.: 52
Chanel 6 Note On - Duracao: 192120 Nota: C1 Vol.: 65
Chanel 6 Note Off - Duracao: 192240 Nota: C1 Vol.: 65
Chanel 6 Note On - Duracao: 192240 Nota: C1 Vol.: 59
Chanel 9 Note Off - Duracao: 192240 Nota: C1 Vol.: 49
Chanel 9 Note On - Duracao: 192240 Nota: C1 Vol.: 56
Chanel 1 Note Off - Duracao: 192360 Nota: C1 Vol.: 80
Chanel 1 Note On - Duracao: 192360 Nota: C1 Vol.: 84
Chanel 5 Note Off - Duracao: 192360 Nota: C1 Vol.: 73
Chanel 5 Note On - Duracao: 192360 Nota: C1 Vol.: 91
Chanel 3 Note Off - Duracao: 192420 Nota: C1 Vol.: 71
Chanel 3 Note On - Duracao: 192420 Nota: C1 Vol.: 71
Chanel 5 Note Off - Duracao: 192480 Nota: C1 Vol.: 91
Chanel 5 Note On - Duracao: 192480 Nota: C1 Vol.: 74
Chanel 6 Note Off - Duracao: 192480 Nota: C1 Vol.: 59
Chanel 6 Note On - Duracao: 192480 Nota: C1 Vol.: 68
Chanel 1 Note Off - Duracao: 192600 Nota: C1 Vol.: 84
Chanel 1 Note On - Duracao: 192600 Nota: C1 Vol.: 80
Chanel 2 Note Off - Duracao: 192660 Nota: C1 Vol.: 40
Chanel 2 Note On - Duracao: 192660 Nota: C1 Vol.: 57
Chanel 6 Note Off - Duracao: 192720 Nota: C1 Vol.: 68
Chanel 6 Note On - Duracao: 192720 Nota: C1 Vol.: 50
Chanel 9 Note Off - Duracao: 192720 Nota: C1 Vol.: 56
Chanel 9 Note On - Duracao: 192720 Nota: C1 Vol.: 51
Chanel 1 Note Off - Duracao: 192840 Nota: C1 Vol.: 80
Chanel 1 Note On - Duracao: 192840 Nota: C1 Vol.: 73
Chanel 5 Note Off - Duracao: 192960 Nota: C1 Vol.: 74
Chanel 5 Note On - Duracao: 192960 Nota: C1 Vol.: 88
Chanel 8 Note Off - Duracao: 193020 Nota: C1 Vol.: 52
Chanel 8 Note On - Duracao: 193020 Nota: C1 Vol.: 48
Chanel 5 Note Off - Duracao: 193080 Nota: C1 Vol.: 88
Chanel 5 Note On - Duracao: 193080 Nota: C1 Vol.: 94
Chanel 2 Note Off - Duracao: 193140 Nota: C1 Vol.: 57
Chanel 2 Note On - Duracao: 193140 Nota: C1 Vol.: 60
Chanel 4 Note Off - Duracao: 193200 Nota: C1 Vol.: 40
Chanel 4 Note On - Duracao: 193200 Nota: C1 Vol.: 78
Chanel 5 Note Off - Duracao: 193200 Nota: C1 Vol.: 94
Chanel 5 Note On - Duracao: 193200 Nota: C1 Vol.: 71
Chanel 1 Note Off - Duracao: 193320 Nota: C1 Vol.: 73
Chanel 1 Note On - Duracao: 193320 Nota: C1 Vol.: 75
Chanel 3 Note Off - Duracao: 193380 Nota: C1 Vol.: 71
Chanel 3 Note On - Duracao: 193380 Nota: C1 Vol.: 75
Chanel 4 Note Off - Duracao: 193440 Nota: C1 Vol.: 78
Chanel 4 Note On - Duracao: 193440 Nota: C1 Vol.: 89
Chanel 1 Note Off - Duracao: 193560 Nota: C1 Vol.: 75
Chanel 1 Note On - Duracao: 193560 Nota: C1 Vol.: 81
Chanel 4 Note Off - Duracao: 193560 Nota: C1 Vol.: 89
Chanel 4 Note On - Duracao: 193560 Nota: C1 Vol.: 77
Chanel 2 Note Off - Duracao: 193620 Nota: C1 Vol.: 60
Chanel 2 Note On - Duracao: 193620 Nota: C1 Vol.: 60
Chanel 1 Note Off - Duracao: 193680 Nota: C1 Vol.: 81
Chanel 1 Note On - Duracao: 193680 Nota: C1 Vol.: 74
Chanel 5 Note Off - Duracao: 193680 Nota: C1 Vol.: 71
Chanel 5 Note On - Duracao: 193680 Nota: C1 Vol.: 52
Chanel 9 Note Off - Duracao: 193680 Nota: C1 Vol.: 51
Chanel 9 Note On - Duracao: 193680 Nota: C1 Vol.: 57
Chanel 1 Note Off - Duracao: 193800 Nota: C1 Vol.: 74
Chanel 1 Note On - Duracao: 193800 Nota: C1 Vol.: 63
Chanel 3 Note Off - Duracao: 193860 Nota: C1 Vol.: 75
Chanel 3 Note On - Duracao: 193860 Nota: C1 Vol.: 73
Chanel 8 Note Off - Duracao: 193980 Nota: C1 Vol.: 48
Chanel 8 Note On - Duracao: 193980 Nota: C1 Vol.: 50
Chanel 1 Note Off - Duracao: 194040 Nota: C1 Vol.: 63
Chanel 1 Note On - Duracao: 194040 Nota: C1 Vol.: 67
Chanel 4 Note Off - Duracao: 194040 Nota: C1 Vol.: 77
Chanel 4 Note On - Duracao: 194040 Nota: C1 Vol.: 89
Chanel 2 Note Off - Duracao: 194100 Nota: C1 Vol.: 60
Chanel 2 Note On - Duracao: 194100 Nota: C1 Vol.: 64
Chanel 7 Note Off - Duracao: 194100 Nota: C1 Vol.: 52
Chanel 7 Note On - Duracao: 194100 Nota: C1 Vol.: 56
Chanel 4 Note Off - Duracao: 194160 Nota: C1 Vol.: 89
Chanel 4 Note On - Duracao: 194160 Nota: C1 Vol.: 85
Chanel 9 Note Off - Duracao: 194160 Nota: C1 Vol.: 57
Chanel 9 Note On - Duracao: 194160 Nota: C1 Vol.: 56
Chanel 1 Note Off - Duracao: 194280 Nota: C1 Vol.: 67
Chanel 1 Note On - Duracao: 194280 Nota: C1 Vol.: 60
Chanel 4 Note Off - Duracao: 194280 Nota: C1 Vol.: 85
Chanel 4 Note On - Duracao: 194280 Nota: C1 Vol.: 81
Chanel 3 Note Off - Duracao: 194340 Nota: C1 Vol.: 73
Chanel 3 Note On - Duracao: 194340 Nota: C1 Vol.: 66
Chanel 1 Note Off - Duracao: 194520 Nota: C1 Vol.: 60
Chanel 1 Note On - Duracao: 194520 Nota: C1 Vol.: 55
Chanel 4 Note Off - Duracao: 194520 Nota: C1 Vol.: 81
Chanel 4 Note On - Duracao: 194520 Nota: C1 Vol.: 81
Chanel 6 Note Off - Duracao: 194640 Nota: C1 Vol.: 50
Chanel 6 Note On - Duracao: 194640 Nota: C1 Vol.: 55
Chanel 9 Note Off - Duracao: 194640 Nota: C1 Vol.: 56
Chanel 9 Note On - Duracao: 194640 Nota: C1 Vol.: 60
Chanel 4 Note Off - Duracao: 194760 Nota: C1 Vol.: 81
Chanel 4 Note On - Duracao: 194760 Nota: C1 Vol.: 87
Chanel 8 Note Off - Duracao: 194940 Nota: C1 Vol.: 50
Chanel 8 Note On - Duracao: 194940 Nota: C1 Vol.: 59
Chanel 1 Note Off - Duracao: 195000 Nota: C1 Vol.: 55
Chanel 1 Note On - Duracao: 195000 Nota: C1 Vol.: 53
Chanel 4 Note Off - Duracao: 195000 Nota: C1 Vol.: 87
Chanel 4 Note On - Duracao: 195000 Nota: C1 Vol.: 71
Chanel 2 Note Off - Duracao: 195060 Nota: C1 Vol.: 64
Chanel 2 Note On - Duracao: 195060 Nota: C1 Vol.: 65
Chanel 9 Note Off - Duracao: 195120 Nota: C1 Vol.: 60
Chanel 9 Note On - Duracao: 195120 Nota: C1 Vol.: 54
Chanel 3 Note Off - Duracao: 195300 Nota: C1 Vol.: 66
Chanel 3 Note On - Duracao: 195300 Nota: C1 Vol.: 63
Chanel 8 Note Off - Duracao: 195420 Nota: C1 Vol.: 59
Chanel 8 Note On - Duracao: 195420 Nota: C1 Vol.: 54
Chanel 1 Note Off - Duracao: 195480 Nota: C1 Vol.: 53
Chanel 1 Note On - Duracao: 195480 Nota: C1 Vol.: 55
Chanel 4 Note Off - Duracao: 195480 Nota: C1 Vol.: 71
Chanel 4 Note On - Duracao: 195480 Nota: C1 Vol.: 61
Chanel 5 Note Off - Duracao: 195600 Nota: C1 Vol.: 52
Chanel 5 Note On - Duracao: 195600 Nota: C1 Vol.: 48
Chanel 9 Note Off - Duracao: 195600 Nota: C1 Vol.: 54
Chanel 9 Note On - Duracao: 195600 Nota: C1 Vol.: 56
Chanel 1 Note Off - Duracao: 195960 Nota: C1 Vol.: 55
Chanel 1 Note On - Duracao: 195960 Nota: C1 Vol.: 58
Chanel 2 Note Off - Duracao: 196020 Nota: C1 Vol.: 65
Chanel 2 Note On - Duracao: 196020 Nota: C1 Vol.: 70
Chanel 9 Note Off - Duracao: 196080 Nota: C1 Vol.: 56
Chanel 9 Note On - Duracao: 196080 Nota: C1 Vol.: 64
Chanel 3 Note Off - Duracao: 196260 Nota: C1 Vol.: 63
Chanel 3 Note On - Duracao: 196260 Nota: C1 Vol.: 78
Chanel 8 Note Off - Duracao: 196380 Nota: C1 Vol.: 54
Chanel 8 Note On - Duracao: 196380 Nota: C1 Vol.: 62
Chanel 1 Note Off - Duracao: 196440 Nota: C1 Vol.: 58
Chanel 1 Note On - Duracao: 196440 Nota: C1 Vol.: 62
Chanel 4 Note Off - Duracao: 196440 Nota: C1 Vol.: 61
Chanel 4 Note On - Duracao: 196440 Nota: C1 Vol.: 58
Chanel 3 Note Off - Duracao: 196500 Nota: C1 Vol.: 78
Chanel 3 Note On - Duracao: 196500 Nota: C1 Vol.: 95
Chanel 3 Note Off - Duracao: 196560 Nota: C1 Vol.: 95
Chanel 3 Note On - Duracao: 196560 Nota: C1 Vol.: 98
Chanel 6 Note Off - Duracao: 196560 Nota: C1 Vol.: 55
Chanel 6 Note On - Duracao: 196560 Nota: C1 Vol.: 59
Chanel 9 Note Off - Duracao: 196560 Nota: C1 Vol.: 64
Chanel 9 Note On - Duracao: 196560 Nota: C1 Vol.: 58
Chanel 3 Note Off - Duracao: 196620 Nota: C1 Vol.: 98
Chanel 3 Note On - Duracao: 196620 Nota: C1 Vol.: 95
Chanel 1 Note Off - Duracao: 196680 Nota: C1 Vol.: 62
Chanel 1 Note On - Duracao: 196680 Nota: C1 Vol.: 50
Chanel 3 Note Off - Duracao: 196680 Nota: C1 Vol.: 95
Chanel 3 Note On - Duracao: 196680 Nota: C1 Vol.: 97
Chanel 3 Note Off - Duracao: 196740 Nota: C1 Vol.: 97
Chanel 3 Note On - Duracao: 196740 Nota: C1 Vol.: 98
Chanel 3 Note Off - Duracao: 196800 Nota: C1 Vol.: 98
Chanel 3 Note On - Duracao: 196800 Nota: C1 Vol.: 96
Chanel 3 Note Off - Duracao: 196860 Nota: C1 Vol.: 96
Chanel 3 Note On - Duracao: 196860 Nota: C1 Vol.: 96
Chanel 8 Note Off - Duracao: 196860 Nota: C1 Vol.: 62
Chanel 8 Note On - Duracao: 196860 Nota: C1 Vol.: 70
Chanel 3 Note Off - Duracao: 196920 Nota: C1 Vol.: 96
Chanel 3 Note On - Duracao: 196920 Nota: C1 Vol.: 98
Chanel 2 Note Off - Duracao: 196980 Nota: C1 Vol.: 70
Chanel 2 Note On - Duracao: 196980 Nota: C1 Vol.: 75
Chanel 3 Note Off - Duracao: 196980 Nota: C1 Vol.: 98
Chanel 3 Note On - Duracao: 196980 Nota: C1 Vol.: 78
Chanel 9 Note Off - Duracao: 197040 Nota: C1 Vol.: 58
Chanel 9 Note On - Duracao: 197040 Nota: C1 Vol.: 57
Chanel 8 Note Off - Duracao: 197100 Nota: C1 Vol.: 70
Chanel 8 Note On - Duracao: 197100 Nota: C1 Vol.: 72
Chanel 1 Note Off - Duracao: 197160 Nota: C1 Vol.: 50
Chanel 1 Note On - Duracao: 197160 Nota: C1 Vol.: 53
Chanel 3 Note Off - Duracao: 197220 Nota: C1 Vol.: 78
Chanel 3 Note On - Duracao: 197220 Nota: C1 Vol.: 66
Chanel 1 Note Off - Duracao: 197400 Nota: C1 Vol.: 53
Chanel 1 Note On - Duracao: 197400 Nota: C1 Vol.: 54
Chanel 2 Note Off - Duracao: 197460 Nota: C1 Vol.: 75
Chanel 2 Note On - Duracao: 197460 Nota: C1 Vol.: 78
Chanel 5 Note Off - Duracao: 197520 Nota: C1 Vol.: 48
Chanel 5 Note On - Duracao: 197520 Nota: C1 Vol.: 54
Chanel 9 Note Off - Duracao: 197520 Nota: C1 Vol.: 57
Chanel 9 Note On - Duracao: 197520 Nota: C1 Vol.: 59
Chanel 8 Note Off - Duracao: 197580 Nota: C1 Vol.: 72
Chanel 8 Note On - Duracao: 197580 Nota: C1 Vol.: 69
Chanel 1 Note Off - Duracao: 197640 Nota: C1 Vol.: 54
Chanel 1 Note On - Duracao: 197640 Nota: C1 Vol.: 56
Chanel 3 Note Off - Duracao: 197700 Nota: C1 Vol.: 66
Chanel 3 Note On - Duracao: 197700 Nota: C1 Vol.: 75
Chanel 9 Note Off - Duracao: 197760 Nota: C1 Vol.: 59
Chanel 9 Note On - Duracao: 197760 Nota: C1 Vol.: 62
Chanel 1 Note Off - Duracao: 197880 Nota: C1 Vol.: 56
Chanel 1 Note On - Duracao: 197880 Nota: C1 Vol.: 61
Chanel 3 Note Off - Duracao: 197940 Nota: C1 Vol.: 75
Chanel 3 Note On - Duracao: 197940 Nota: C1 Vol.: 74
Chanel 7 Note Off - Duracao: 197940 Nota: C1 Vol.: 56
Chanel 7 Note On - Duracao: 197940 Nota: C1 Vol.: 56
Chanel 1 Note Off - Duracao: 198000 Nota: C1 Vol.: 61
Chanel 1 Note On - Duracao: 198000 Nota: C1 Vol.: 63
Chanel 9 Note Off - Duracao: 198000 Nota: C1 Vol.: 62
Chanel 9 Note On - Duracao: 198000 Nota: C1 Vol.: 57
Chanel 3 Note Off - Duracao: 198060 Nota: C1 Vol.: 74
Chanel 3 Note On - Duracao: 198060 Nota: C1 Vol.: 72
Chanel 8 Note Off - Duracao: 198060 Nota: C1 Vol.: 69
Chanel 8 Note On - Duracao: 198060 Nota: C1 Vol.: 56
Chanel 1 Note Off - Duracao: 198120 Nota: C1 Vol.: 63
Chanel 1 Note On - Duracao: 198120 Nota: C1 Vol.: 62
Chanel 3 Note Off - Duracao: 198180 Nota: C1 Vol.: 72
Chanel 3 Note On - Duracao: 198180 Nota: C1 Vol.: 66
Chanel 1 Note Off - Duracao: 198240 Nota: C1 Vol.: 62
Chanel 1 Note On - Duracao: 198240 Nota: C1 Vol.: 59
Chanel 1 Note Off - Duracao: 198360 Nota: C1 Vol.: 59
Chanel 1 Note On - Duracao: 198360 Nota: C1 Vol.: 60
Chanel 4 Note Off - Duracao: 198360 Nota: C1 Vol.: 58
Chanel 4 Note On - Duracao: 198360 Nota: C1 Vol.: 57
Chanel 2 Note Off - Duracao: 198420 Nota: C1 Vol.: 78
Chanel 2 Note On - Duracao: 198420 Nota: C1 Vol.: 77
Chanel 3 Note Off - Duracao: 198420 Nota: C1 Vol.: 66
Chanel 3 Note On - Duracao: 198420 Nota: C1 Vol.: 40
Chanel 5 Note Off - Duracao: 198480 Nota: C1 Vol.: 54
Chanel 5 Note On - Duracao: 198480 Nota: C1 Vol.: 45
Chanel 9 Note Off - Duracao: 198480 Nota: C1 Vol.: 57
Chanel 9 Note On - Duracao: 198480 Nota: C1 Vol.: 67
Chanel 1 Note Off - Duracao: 198600 Nota: C1 Vol.: 60
Chanel 1 Note On - Duracao: 198600 Nota: C1 Vol.: 60
Chanel 1 Note Off - Duracao: 198840 Nota: C1 Vol.: 60
Chanel 1 Note On - Duracao: 198840 Nota: C1 Vol.: 60
Chanel 2 Note Off - Duracao: 198900 Nota: C1 Vol.: 77
Chanel 2 Note On - Duracao: 198900 Nota: C1 Vol.: 66
Chanel 9 Note Off - Duracao: 198960 Nota: C1 Vol.: 67
Chanel 9 Note On - Duracao: 198960 Nota: C1 Vol.: 88
Chanel 8 Note Off - Duracao: 199020 Nota: C1 Vol.: 56
Chanel 8 Note On - Duracao: 199020 Nota: C1 Vol.: 53
Chanel 1 Note Off - Duracao: 199080 Nota: C1 Vol.: 60
Chanel 1 Note On - Duracao: 199080 Nota: C1 Vol.: 74
Chanel 9 Note Off - Duracao: 199080 Nota: C1 Vol.: 88
Chanel 9 Note On - Duracao: 199080 Nota: C1 Vol.: 87
Chanel 1 Note Off - Duracao: 199200 Nota: C1 Vol.: 74
Chanel 1 Note On - Duracao: 199200 Nota: C1 Vol.: 65
Chanel 9 Note Off - Duracao: 199200 Nota: C1 Vol.: 87
Chanel 9 Note On - Duracao: 199200 Nota: C1 Vol.: 91
Chanel 9 Note Off - Duracao: 199320 Nota: C1 Vol.: 91
Chanel 9 Note On - Duracao: 199320 Nota: C1 Vol.: 93
Chanel 1 Note Off - Duracao: 199440 Nota: C1 Vol.: 65
Chanel 1 Note On - Duracao: 199440 Nota: C1 Vol.: 69
Chanel 5 Note Off - Duracao: 199440 Nota: C1 Vol.: 45
Chanel 5 Note On - Duracao: 199440 Nota: C1 Vol.: 41
Chanel 9 Note Off - Duracao: 199440 Nota: C1 Vol.: 93
Chanel 9 Note On - Duracao: 199440 Nota: C1 Vol.: 94
Chanel 9 Note Off - Duracao: 199560 Nota: C1 Vol.: 94
Chanel 9 Note On - Duracao: 199560 Nota: C1 Vol.: 95
Chanel 9 Note Off - Duracao: 199620 Nota: C1 Vol.: 95
Chanel 9 Note On - Duracao: 199620 Nota: C1 Vol.: 91
Chanel 1 Note Off - Duracao: 199680 Nota: C1 Vol.: 69
Chanel 1 Note On - Duracao: 199680 Nota: C1 Vol.: 64
Chanel 9 Note Off - Duracao: 199740 Nota: C1 Vol.: 91
Chanel 9 Note On - Duracao: 199740 Nota: C1 Vol.: 90
Chanel 2 Note Off - Duracao: 199860 Nota: C1 Vol.: 66
Chanel 2 Note On - Duracao: 199860 Nota: C1 Vol.: 65
Chanel 9 Note Off - Duracao: 199860 Nota: C1 Vol.: 90
Chanel 9 Note On - Duracao: 199860 Nota: C1 Vol.: 88
Chanel 1 Note Off - Duracao: 199920 Nota: C1 Vol.: 64
Chanel 1 Note On - Duracao: 199920 Nota: C1 Vol.: 71
Chanel 8 Note Off - Duracao: 199980 Nota: C1 Vol.: 53
Chanel 8 Note On - Duracao: 199980 Nota: C1 Vol.: 43
Chanel 9 Note Off - Duracao: 199980 Nota: C1 Vol.: 88
Chanel 9 Note On - Duracao: 199980 Nota: C1 Vol.: 88
Chanel 9 Note Off - Duracao: 200100 Nota: C1 Vol.: 88
Chanel 9 Note On - Duracao: 200100 Nota: C1 Vol.: 82
Chanel 1 Note Off - Duracao: 200160 Nota: C1 Vol.: 71
Chanel 1 Note On - Duracao: 200160 Nota: C1 Vol.: 75
Chanel 1 Note Off - Duracao: 200280 Nota: C1 Vol.: 75
Chanel 1 Note On - Duracao: 200280 Nota: C1 Vol.: 75
Chanel 4 Note Off - Duracao: 200280 Nota: C1 Vol.: 57
Chanel 4 Note On - Duracao: 200280 Nota: C1 Vol.: 66
Chanel 2 Note Off - Duracao: 200340 Nota: C1 Vol.: 65
Chanel 2 Note On - Duracao: 200340 Nota: C1 Vol.: 78
Chanel 3 Note Off - Duracao: 200340 Nota: C1 Vol.: 40
Chanel 3 Note On - Duracao: 200340 Nota: C1 Vol.: 44
Chanel 9 Note Off - Duracao: 200340 Nota: C1 Vol.: 82
Chanel 9 Note On - Duracao: 200340 Nota: C1 Vol.: 68
Chanel 1 Note Off - Duracao: 200400 Nota: C1 Vol.: 75
Chanel 1 Note On - Duracao: 200400 Nota: C1 Vol.: 67
Chanel 5 Note Off - Duracao: 200400 Nota: C1 Vol.: 41
Chanel 5 Note On - Duracao: 200400 Nota: C1 Vol.: 50
Chanel 6 Note Off - Duracao: 200400 Nota: C1 Vol.: 59
Chanel 6 Note On - Duracao: 200400 Nota: C1 Vol.: 63
Chanel 2 Note Off - Duracao: 200580 Nota: C1 Vol.: 78
Chanel 2 Note On - Duracao: 200580 Nota: C1 Vol.: 76
Chanel 1 Note Off - Duracao: 200640 Nota: C1 Vol.: 67
Chanel 1 Note On - Duracao: 200640 Nota: C1 Vol.: 78
Chanel 1 Note Off - Duracao: 200760 Nota: C1 Vol.: 78
Chanel 1 Note On - Duracao: 200760 Nota: C1 Vol.: 89
Chanel 2 Note Off - Duracao: 200820 Nota: C1 Vol.: 76
Chanel 2 Note On - Duracao: 200820 Nota: C1 Vol.: 85
Chanel 9 Note Off - Duracao: 200820 Nota: C1 Vol.: 68
Chanel 9 Note On - Duracao: 200820 Nota: C1 Vol.: 53
Chanel 1 Note Off - Duracao: 200880 Nota: C1 Vol.: 89
Chanel 1 Note On - Duracao: 200880 Nota: C1 Vol.: 69
Chanel 5 Note Off - Duracao: 200880 Nota: C1 Vol.: 50
Chanel 5 Note On - Duracao: 200880 Nota: C1 Vol.: 63
Chanel 2 Note Off - Duracao: 201060 Nota: C1 Vol.: 85
Chanel 2 Note On - Duracao: 201060 Nota: C1 Vol.: 93
Chanel 1 Note Off - Duracao: 201120 Nota: C1 Vol.: 69
Chanel 1 Note On - Duracao: 201120 Nota: C1 Vol.: 45
Chanel 5 Note Off - Duracao: 201120 Nota: C1 Vol.: 63
Chanel 5 Note On - Duracao: 201120 Nota: C1 Vol.: 65
Chanel 2 Note Off - Duracao: 201180 Nota: C1 Vol.: 93
Chanel 2 Note On - Duracao: 201180 Nota: C1 Vol.: 83
Chanel 4 Note Off - Duracao: 201240 Nota: C1 Vol.: 66
Chanel 4 Note On - Duracao: 201240 Nota: C1 Vol.: 83
Chanel 5 Note Off - Duracao: 201360 Nota: C1 Vol.: 65
Chanel 5 Note On - Duracao: 201360 Nota: C1 Vol.: 67
Chanel 2 Note Off - Duracao: 201420 Nota: C1 Vol.: 83
Chanel 2 Note On - Duracao: 201420 Nota: C1 Vol.: 77
Chanel 4 Note Off - Duracao: 201480 Nota: C1 Vol.: 83
Chanel 4 Note On - Duracao: 201480 Nota: C1 Vol.: 82
Chanel 1 Note Off - Duracao: 201600 Nota: C1 Vol.: 45
Chanel 1 Note On - Duracao: 201600 Nota: C1 Vol.: 54
Chanel 5 Note Off - Duracao: 201600 Nota: C1 Vol.: 67
Chanel 5 Note On - Duracao: 201600 Nota: C1 Vol.: 40
Chanel 1 Note Off - Duracao: 201720 Nota: C1 Vol.: 54
Chanel 1 Note On - Duracao: 201720 Nota: C1 Vol.: 46
Chanel 4 Note Off - Duracao: 201720 Nota: C1 Vol.: 82
Chanel 4 Note On - Duracao: 201720 Nota: C1 Vol.: 47
Chanel 7 Note Off - Duracao: 201780 Nota: C1 Vol.: 56
Chanel 7 Note On - Duracao: 201780 Nota: C1 Vol.: 59
Chanel 9 Note Off - Duracao: 201780 Nota: C1 Vol.: 53
Chanel 9 Note On - Duracao: 201780 Nota: C1 Vol.: 56
Chanel 2 Note Off - Duracao: 201900 Nota: C1 Vol.: 77
Chanel 2 Note On - Duracao: 201900 Nota: C1 Vol.: 80
Chanel 8 Note Off - Duracao: 201900 Nota: C1 Vol.: 43
Chanel 8 Note On - Duracao: 201900 Nota: C1 Vol.: 41
Chanel 1 Note Off - Duracao: 201960 Nota: C1 Vol.: 46
Chanel 1 Note On - Duracao: 201960 Nota: C1 Vol.: 45
Chanel 2 Note Off - Duracao: 202140 Nota: C1 Vol.: 80
Chanel 2 Note On - Duracao: 202140 Nota: C1 Vol.: 77
Chanel 1 Note Off - Duracao: 202200 Nota: C1 Vol.: 45
Chanel 1 Note On - Duracao: 202200 Nota: C1 Vol.: 50
Chanel 3 Note Off - Duracao: 202260 Nota: C1 Vol.: 44
Chanel 3 Note On - Duracao: 202260 Nota: C1 Vol.: 46
Chanel 2 Note Off - Duracao: 202620 Nota: C1 Vol.: 77
Chanel 2 Note On - Duracao: 202620 Nota: C1 Vol.: 84
Chanel 1 Note Off - Duracao: 202680 Nota: C1 Vol.: 50
Chanel 1 Note On - Duracao: 202680 Nota: C1 Vol.: 42
Chanel 9 Note Off - Duracao: 202740 Nota: C1 Vol.: 56
Chanel 9 Note On - Duracao: 202740 Nota: C1 Vol.: 53
Chanel 2 Note Off - Duracao: 202860 Nota: C1 Vol.: 84
Chanel 2 Note On - Duracao: 202860 Nota: C1 Vol.: 81
Chanel 2 Note Off - Duracao: 203100 Nota: C1 Vol.: 81
Chanel 2 Note On - Duracao: 203100 Nota: C1 Vol.: 85
Chanel 3 Note Off - Duracao: 203220 Nota: C1 Vol.: 46
Chanel 3 Note On - Duracao: 203220 Nota: C1 Vol.: 40
Chanel 2 Note Off - Duracao: 203340 Nota: C1 Vol.: 85
Chanel 2 Note On - Duracao: 203340 Nota: C1 Vol.: 86
Chanel 5 Note Off - Duracao: 203520 Nota: C1 Vol.: 40
Chanel 5 Note On - Duracao: 203520 Nota: C1 Vol.: 55
Chanel 2 Note Off - Duracao: 203580 Nota: C1 Vol.: 86
Chanel 2 Note On - Duracao: 203580 Nota: C1 Vol.: 75
Chanel 4 Note Off - Duracao: 203640 Nota: C1 Vol.: 47
Chanel 4 Note On - Duracao: 203640 Nota: C1 Vol.: 45
Chanel 9 Note Off - Duracao: 203700 Nota: C1 Vol.: 53
Chanel 9 Note On - Duracao: 203700 Nota: C1 Vol.: 48
Chanel 8 Note Off - Duracao: 203820 Nota: C1 Vol.: 41
Chanel 8 Note On - Duracao: 203820 Nota: C1 Vol.: 44
Chanel 5 Note Off - Duracao: 204000 Nota: C1 Vol.: 55
Chanel 5 Note On - Duracao: 204000 Nota: C1 Vol.: 62
Chanel 2 Note Off - Duracao: 204060 Nota: C1 Vol.: 75
Chanel 2 Note On - Duracao: 204060 Nota: C1 Vol.: 80
Chanel 5 Note Off - Duracao: 204240 Nota: C1 Vol.: 62
Chanel 5 Note On - Duracao: 204240 Nota: C1 Vol.: 62
Chanel 6 Note Off - Duracao: 204240 Nota: C1 Vol.: 63
Chanel 6 Note On - Duracao: 204240 Nota: C1 Vol.: 59
Chanel 2 Note Off - Duracao: 204300 Nota: C1 Vol.: 80
Chanel 2 Note On - Duracao: 204300 Nota: C1 Vol.: 81
Chanel 5 Note Off - Duracao: 204480 Nota: C1 Vol.: 62
Chanel 5 Note On - Duracao: 204480 Nota: C1 Vol.: 63
Chanel 2 Note Off - Duracao: 204540 Nota: C1 Vol.: 81
Chanel 2 Note On - Duracao: 204540 Nota: C1 Vol.: 82
Chanel 1 Note Off - Duracao: 204600 Nota: C1 Vol.: 42
Chanel 1 Note On - Duracao: 204600 Nota: C1 Vol.: 54
Chanel 9 Note Off - Duracao: 204660 Nota: C1 Vol.: 48
Chanel 9 Note On - Duracao: 204660 Nota: C1 Vol.: 49
Chanel 5 Note Off - Duracao: 204720 Nota: C1 Vol.: 63
Chanel 5 Note On - Duracao: 204720 Nota: C1 Vol.: 68
Chanel 2 Note Off - Duracao: 204780 Nota: C1 Vol.: 82
Chanel 2 Note On - Duracao: 204780 Nota: C1 Vol.: 83
Chanel 5 Note Off - Duracao: 204960 Nota: C1 Vol.: 68
Chanel 5 Note On - Duracao: 204960 Nota: C1 Vol.: 70
Chanel 2 Note Off - Duracao: 205020 Nota: C1 Vol.: 83
Chanel 2 Note On - Duracao: 205020 Nota: C1 Vol.: 76
Chanel 3 Note Off - Duracao: 205140 Nota: C1 Vol.: 40
Chanel 3 Note On - Duracao: 205140 Nota: C1 Vol.: 51
Chanel 5 Note Off - Duracao: 205200 Nota: C1 Vol.: 70
Chanel 5 Note On - Duracao: 205200 Nota: C1 Vol.: 71
Chanel 3 Note Off - Duracao: 205380 Nota: C1 Vol.: 51
Chanel 3 Note On - Duracao: 205380 Nota: C1 Vol.: 52
Chanel 5 Note Off - Duracao: 205440 Nota: C1 Vol.: 71
Chanel 5 Note On - Duracao: 205440 Nota: C1 Vol.: 71
Chanel 2 Note Off - Duracao: 205500 Nota: C1 Vol.: 76
Chanel 2 Note On - Duracao: 205500 Nota: C1 Vol.: 77
Chanel 4 Note Off - Duracao: 205560 Nota: C1 Vol.: 45
Chanel 4 Note On - Duracao: 205560 Nota: C1 Vol.: 55
Chanel 3 Note Off - Duracao: 205620 Nota: C1 Vol.: 52
Chanel 3 Note On - Duracao: 205620 Nota: C1 Vol.: 56
Chanel 7 Note Off - Duracao: 205620 Nota: C1 Vol.: 59
Chanel 7 Note On - Duracao: 205620 Nota: C1 Vol.: 61
Chanel 9 Note Off - Duracao: 205620 Nota: C1 Vol.: 49
Chanel 9 Note On - Duracao: 205620 Nota: C1 Vol.: 48
Chanel 5 Note Off - Duracao: 205680 Nota: C1 Vol.: 71
Chanel 5 Note On - Duracao: 205680 Nota: C1 Vol.: 68
Chanel 8 Note Off - Duracao: 205740 Nota: C1 Vol.: 44
Chanel 8 Note On - Duracao: 205740 Nota: C1 Vol.: 47
Chanel 3 Note Off - Duracao: 205860 Nota: C1 Vol.: 56
Chanel 3 Note On - Duracao: 205860 Nota: C1 Vol.: 40
Chanel 5 Note Off - Duracao: 205920 Nota: C1 Vol.: 68
Chanel 5 Note On - Duracao: 205920 Nota: C1 Vol.: 71
Chanel 2 Note Off - Duracao: 205980 Nota: C1 Vol.: 77
Chanel 2 Note On - Duracao: 205980 Nota: C1 Vol.: 80
Chanel 5 Note Off - Duracao: 206040 Nota: C1 Vol.: 71
Chanel 5 Note On - Duracao: 206040 Nota: C1 Vol.: 72
Chanel 2 Note Off - Duracao: 206220 Nota: C1 Vol.: 80
Chanel 2 Note On - Duracao: 206220 Nota: C1 Vol.: 75
Chanel 5 Note Off - Duracao: 206280 Nota: C1 Vol.: 72
Chanel 5 Note On - Duracao: 206280 Nota: C1 Vol.: 73
Chanel 2 Note Off - Duracao: 206460 Nota: C1 Vol.: 75
Chanel 2 Note On - Duracao: 206460 Nota: C1 Vol.: 79
Chanel 1 Note Off - Duracao: 206520 Nota: C1 Vol.: 54
Chanel 1 Note On - Duracao: 206520 Nota: C1 Vol.: 56
Chanel 4 Note Off - Duracao: 206520 Nota: C1 Vol.: 55
Chanel 4 Note On - Duracao: 206520 Nota: C1 Vol.: 82
Chanel 5 Note Off - Duracao: 206520 Nota: C1 Vol.: 73
Chanel 5 Note On - Duracao: 206520 Nota: C1 Vol.: 42
Chanel 9 Note Off - Duracao: 206580 Nota: C1 Vol.: 48
Chanel 9 Note On - Duracao: 206580 Nota: C1 Vol.: 57
Chanel 2 Note Off - Duracao: 206700 Nota: C1 Vol.: 79
Chanel 2 Note On - Duracao: 206700 Nota: C1 Vol.: 78
Chanel 8 Note Off - Duracao: 206700 Nota: C1 Vol.: 47
Chanel 8 Note On - Duracao: 206700 Nota: C1 Vol.: 55
Chanel 4 Note Off - Duracao: 206760 Nota: C1 Vol.: 82
Chanel 4 Note On - Duracao: 206760 Nota: C1 Vol.: 89
Chanel 4 Note Off - Duracao: 206880 Nota: C1 Vol.: 89
Chanel 4 Note On - Duracao: 206880 Nota: C1 Vol.: 69
Chanel 2 Note Off - Duracao: 206940 Nota: C1 Vol.: 78
Chanel 2 Note On - Duracao: 206940 Nota: C1 Vol.: 76
Chanel 9 Note Off - Duracao: 207060 Nota: C1 Vol.: 57
Chanel 9 Note On - Duracao: 207060 Nota: C1 Vol.: 67
Chanel 2 Note Off - Duracao: 207180 Nota: C1 Vol.: 76
Chanel 2 Note On - Duracao: 207180 Nota: C1 Vol.: 85
Chanel 8 Note Off - Duracao: 207180 Nota: C1 Vol.: 55
Chanel 8 Note On - Duracao: 207180 Nota: C1 Vol.: 55
Chanel 2 Note Off - Duracao: 207300 Nota: C1 Vol.: 85
Chanel 2 Note On - Duracao: 207300 Nota: C1 Vol.: 94
Chanel 9 Note Off - Duracao: 207300 Nota: C1 Vol.: 67
Chanel 9 Note On - Duracao: 207300 Nota: C1 Vol.: 69
Chanel 2 Note Off - Duracao: 207360 Nota: C1 Vol.: 94
Chanel 2 Note On - Duracao: 207360 Nota: C1 Vol.: 95
Chanel 4 Note Off - Duracao: 207360 Nota: C1 Vol.: 69
Chanel 4 Note On - Duracao: 207360 Nota: C1 Vol.: 85
Chanel 2 Note Off - Duracao: 207420 Nota: C1 Vol.: 95
Chanel 2 Note On - Duracao: 207420 Nota: C1 Vol.: 96
Chanel 9 Note Off - Duracao: 207420 Nota: C1 Vol.: 69
Chanel 9 Note On - Duracao: 207420 Nota: C1 Vol.: 62
Chanel 2 Note Off - Duracao: 207480 Nota: C1 Vol.: 96
Chanel 2 Note On - Duracao: 207480 Nota: C1 Vol.: 95
Chanel 2 Note Off - Duracao: 207540 Nota: C1 Vol.: 95
Chanel 2 Note On - Duracao: 207540 Nota: C1 Vol.: 92
Chanel 2 Note Off - Duracao: 207600 Nota: C1 Vol.: 92
Chanel 2 Note On - Duracao: 207600 Nota: C1 Vol.: 79
Chanel 4 Note Off - Duracao: 207600 Nota: C1 Vol.: 85
Chanel 4 Note On - Duracao: 207600 Nota: C1 Vol.: 99
Chanel 4 Note Off - Duracao: 207660 Nota: C1 Vol.: 99
Chanel 4 Note On - Duracao: 207660 Nota: C1 Vol.: 95
Chanel 8 Note Off - Duracao: 207660 Nota: C1 Vol.: 55
Chanel 8 Note On - Duracao: 207660 Nota: C1 Vol.: 56
Chanel 9 Note Off - Duracao: 207660 Nota: C1 Vol.: 62
Chanel 9 Note On - Duracao: 207660 Nota: C1 Vol.: 50
Chanel 2 Note Off - Duracao: 207720 Nota: C1 Vol.: 79
Chanel 2 Note On - Duracao: 207720 Nota: C1 Vol.: 67
Chanel 3 Note Off - Duracao: 207780 Nota: C1 Vol.: 40
Chanel 3 Note On - Duracao: 207780 Nota: C1 Vol.: 54
Chanel 4 Note Off - Duracao: 207780 Nota: C1 Vol.: 95
Chanel 4 Note On - Duracao: 207780 Nota: C1 Vol.: 90
Chanel 4 Note Off - Duracao: 207900 Nota: C1 Vol.: 90
Chanel 4 Note On - Duracao: 207900 Nota: C1 Vol.: 87
Chanel 2 Note Off - Duracao: 207960 Nota: C1 Vol.: 67
Chanel 2 Note On - Duracao: 207960 Nota: C1 Vol.: 61
Chanel 4 Note Off - Duracao: 208020 Nota: C1 Vol.: 87
Chanel 4 Note On - Duracao: 208020 Nota: C1 Vol.: 91
Chanel 6 Note Off - Duracao: 208080 Nota: C1 Vol.: 59
Chanel 6 Note On - Duracao: 208080 Nota: C1 Vol.: 60
Chanel 4 Note Off - Duracao: 208140 Nota: C1 Vol.: 91
Chanel 4 Note On - Duracao: 208140 Nota: C1 Vol.: 49
Chanel 8 Note Off - Duracao: 208140 Nota: C1 Vol.: 56
Chanel 8 Note On - Duracao: 208140 Nota: C1 Vol.: 61
Chanel 1 Note Off - Duracao: 208440 Nota: C1 Vol.: 56
Chanel 1 Note On - Duracao: 208440 Nota: C1 Vol.: 86
Chanel 2 Note Off - Duracao: 208440 Nota: C1 Vol.: 61
Chanel 2 Note On - Duracao: 208440 Nota: C1 Vol.: 60
Chanel 8 Note Off - Duracao: 208620 Nota: C1 Vol.: 61
Chanel 8 Note On - Duracao: 208620 Nota: C1 Vol.: 66
Chanel 9 Note Off - Duracao: 208620 Nota: C1 Vol.: 50
Chanel 9 Note On - Duracao: 208620 Nota: C1 Vol.: 50
Chanel 1 Note Off - Duracao: 208680 Nota: C1 Vol.: 86
Chanel 1 Note On - Duracao: 208680 Nota: C1 Vol.: 100
Chanel 1 Note Off - Duracao: 208740 Nota: C1 Vol.: 100
Chanel 1 Note On - Duracao: 208740 Nota: C1 Vol.: 76
Chanel 3 Note Off - Duracao: 208740 Nota: C1 Vol.: 54
Chanel 3 Note On - Duracao: 208740 Nota: C1 Vol.: 87
Chanel 3 Note Off - Duracao: 208860 Nota: C1 Vol.: 87
Chanel 3 Note On - Duracao: 208860 Nota: C1 Vol.: 85
Chanel 8 Note Off - Duracao: 208860 Nota: C1 Vol.: 66
Chanel 8 Note On - Duracao: 208860 Nota: C1 Vol.: 65
Chanel 2 Note Off - Duracao: 208920 Nota: C1 Vol.: 60
Chanel 2 Note On - Duracao: 208920 Nota: C1 Vol.: 61
Chanel 3 Note Off - Duracao: 208980 Nota: C1 Vol.: 85
Chanel 3 Note On - Duracao: 208980 Nota: C1 Vol.: 91
Chanel 3 Note Off - Duracao: 209100 Nota: C1 Vol.: 91
Chanel 3 Note On - Duracao: 209100 Nota: C1 Vol.: 97
Chanel 8 Note Off - Duracao: 209100 Nota: C1 Vol.: 65
Chanel 8 Note On - Duracao: 209100 Nota: C1 Vol.: 57
Chanel 3 Note Off - Duracao: 209160 Nota: C1 Vol.: 97
Chanel 3 Note On - Duracao: 209160 Nota: C1 Vol.: 99
Chanel 1 Note Off - Duracao: 209220 Nota: C1 Vol.: 76
Chanel 1 Note On - Duracao: 209220 Nota: C1 Vol.: 65
Chanel 3 Note Off - Duracao: 209220 Nota: C1 Vol.: 99
Chanel 3 Note On - Duracao: 209220 Nota: C1 Vol.: 98
Chanel 3 Note Off - Duracao: 209280 Nota: C1 Vol.: 98
Chanel 3 Note On - Duracao: 209280 Nota: C1 Vol.: 93
Chanel 2 Note Off - Duracao: 209400 Nota: C1 Vol.: 61
Chanel 2 Note On - Duracao: 209400 Nota: C1 Vol.: 58
Chanel 3 Note Off - Duracao: 209400 Nota: C1 Vol.: 93
Chanel 3 Note On - Duracao: 209400 Nota: C1 Vol.: 69
Chanel 7 Note Off - Duracao: 209460 Nota: C1 Vol.: 61
Chanel 7 Note On - Duracao: 209460 Nota: C1 Vol.: 67
Chanel 8 Note Off - Duracao: 209580 Nota: C1 Vol.: 57
Chanel 8 Note On - Duracao: 209580 Nota: C1 Vol.: 57
Chanel 9 Note Off - Duracao: 209580 Nota: C1 Vol.: 50
Chanel 9 Note On - Duracao: 209580 Nota: C1 Vol.: 52
Chanel 2 Note Off - Duracao: 209880 Nota: C1 Vol.: 58
Chanel 2 Note On - Duracao: 209880 Nota: C1 Vol.: 55
Chanel 3 Note Off - Duracao: 209880 Nota: C1 Vol.: 69
Chanel 3 Note On - Duracao: 209880 Nota: C1 Vol.: 40
Chanel 4 Note Off - Duracao: 210060 Nota: C1 Vol.: 49
Chanel 4 Note On - Duracao: 210060 Nota: C1 Vol.: 54
Chanel 8 Note Off - Duracao: 210060 Nota: C1 Vol.: 57
Chanel 8 Note On - Duracao: 210060 Nota: C1 Vol.: 55
Chanel 1 Note Off - Duracao: 210180 Nota: C1 Vol.: 65
Chanel 1 Note On - Duracao: 210180 Nota: C1 Vol.: 72
Chanel 2 Note Off - Duracao: 210360 Nota: C1 Vol.: 55
Chanel 2 Note On - Duracao: 210360 Nota: C1 Vol.: 57
Chanel 5 Note Off - Duracao: 210360 Nota: C1 Vol.: 42
Chanel 5 Note On - Duracao: 210360 Nota: C1 Vol.: 48
Chanel 8 Note Off - Duracao: 210540 Nota: C1 Vol.: 55
Chanel 8 Note On - Duracao: 210540 Nota: C1 Vol.: 81
Chanel 9 Note Off - Duracao: 210540 Nota: C1 Vol.: 52
Chanel 9 Note On - Duracao: 210540 Nota: C1 Vol.: 60
Chanel 2 Note Off - Duracao: 210600 Nota: C1 Vol.: 57
Chanel 2 Note On - Duracao: 210600 Nota: C1 Vol.: 54
Chanel 1 Note Off - Duracao: 210660 Nota: C1 Vol.: 72
Chanel 1 Note On - Duracao: 210660 Nota: C1 Vol.: 100
Chanel 8 Note Off - Duracao: 210660 Nota: C1 Vol.: 81
Chanel 8 Note On - Duracao: 210660 Nota: C1 Vol.: 83
Chanel 1 Note Off - Duracao: 210720 Nota: C1 Vol.: 100
Chanel 1 Note On - Duracao: 210720 Nota: C1 Vol.: 100
Chanel 1 Note Off - Duracao: 210780 Nota: C1 Vol.: 100
Chanel 1 Note On - Duracao: 210780 Nota: C1 Vol.: 75
Chanel 8 Note Off - Duracao: 210780 Nota: C1 Vol.: 83
Chanel 8 Note On - Duracao: 210780 Nota: C1 Vol.: 68
Chanel 2 Note Off - Duracao: 210840 Nota: C1 Vol.: 54
Chanel 2 Note On - Duracao: 210840 Nota: C1 Vol.: 58
Chanel 4 Note Off - Duracao: 211020 Nota: C1 Vol.: 54
Chanel 4 Note On - Duracao: 211020 Nota: C1 Vol.: 48
Chanel 8 Note Off - Duracao: 211020 Nota: C1 Vol.: 68
Chanel 8 Note On - Duracao: 211020 Nota: C1 Vol.: 56
Chanel 9 Note Off - Duracao: 211020 Nota: C1 Vol.: 60
Chanel 9 Note On - Duracao: 211020 Nota: C1 Vol.: 64
Chanel 2 Note Off - Duracao: 211080 Nota: C1 Vol.: 58
Chanel 2 Note On - Duracao: 211080 Nota: C1 Vol.: 57
Chanel 1 Note Off - Duracao: 211260 Nota: C1 Vol.: 75
Chanel 1 Note On - Duracao: 211260 Nota: C1 Vol.: 60
Chanel 2 Note Off - Duracao: 211320 Nota: C1 Vol.: 57
Chanel 2 Note On - Duracao: 211320 Nota: C1 Vol.: 59
Chanel 7 Note Off - Duracao: 211380 Nota: C1 Vol.: 67
Chanel 7 Note On - Duracao: 211380 Nota: C1 Vol.: 72
Chanel 8 Note Off - Duracao: 211500 Nota: C1 Vol.: 56
Chanel 8 Note On - Duracao: 211500 Nota: C1 Vol.: 67
Chanel 9 Note Off - Duracao: 211500 Nota: C1 Vol.: 64
Chanel 9 Note On - Duracao: 211500 Nota: C1 Vol.: 55
Chanel 2 Note Off - Duracao: 211560 Nota: C1 Vol.: 59
Chanel 2 Note On - Duracao: 211560 Nota: C1 Vol.: 57
Chanel 8 Note Off - Duracao: 211740 Nota: C1 Vol.: 67
Chanel 8 Note On - Duracao: 211740 Nota: C1 Vol.: 52
Chanel 2 Note Off - Duracao: 211800 Nota: C1 Vol.: 57
Chanel 2 Note On - Duracao: 211800 Nota: C1 Vol.: 57
Chanel 3 Note Off - Duracao: 211800 Nota: C1 Vol.: 40
Chanel 3 Note On - Duracao: 211800 Nota: C1 Vol.: 49
Chanel 6 Note Off - Duracao: 211920 Nota: C1 Vol.: 60
Chanel 6 Note On - Duracao: 211920 Nota: C1 Vol.: 65
Chanel 2 Note Off - Duracao: 212280 Nota: C1 Vol.: 57
Chanel 2 Note On - Duracao: 212280 Nota: C1 Vol.: 58
Chanel 9 Note Off - Duracao: 212460 Nota: C1 Vol.: 55
Chanel 9 Note On - Duracao: 212460 Nota: C1 Vol.: 95
Chanel 9 Note Off - Duracao: 212520 Nota: C1 Vol.: 95
Chanel 9 Note On - Duracao: 212520 Nota: C1 Vol.: 82
Chanel 9 Note Off - Duracao: 212640 Nota: C1 Vol.: 82
Chanel 9 Note On - Duracao: 212640 Nota: C1 Vol.: 67
Chanel 8 Note Off - Duracao: 212700 Nota: C1 Vol.: 52
Chanel 8 Note On - Duracao: 212700 Nota: C1 Vol.: 52
Chanel 2 Note Off - Duracao: 212760 Nota: C1 Vol.: 58
Chanel 2 Note On - Duracao: 212760 Nota: C1 Vol.: 71
Chanel 3 Note Off - Duracao: 212760 Nota: C1 Vol.: 49
Chanel 3 Note On - Duracao: 212760 Nota: C1 Vol.: 78
Chanel 2 Note Off - Duracao: 212880 Nota: C1 Vol.: 71
Chanel 2 Note On - Duracao: 212880 Nota: C1 Vol.: 75
Chanel 4 Note Off - Duracao: 212940 Nota: C1 Vol.: 48
Chanel 4 Note On - Duracao: 212940 Nota: C1 Vol.: 48
Chanel 2 Note Off - Duracao: 213000 Nota: C1 Vol.: 75
Chanel 2 Note On - Duracao: 213000 Nota: C1 Vol.: 67
Chanel 9 Note Off - Duracao: 213120 Nota: C1 Vol.: 67
Chanel 9 Note On - Duracao: 213120 Nota: C1 Vol.: 73
Chanel 1 Note Off - Duracao: 213180 Nota: C1 Vol.: 60
Chanel 1 Note On - Duracao: 213180 Nota: C1 Vol.: 59
Chanel 2 Note Off - Duracao: 213240 Nota: C1 Vol.: 67
Chanel 2 Note On - Duracao: 213240 Nota: C1 Vol.: 65
Chanel 3 Note Off - Duracao: 213240 Nota: C1 Vol.: 78
Chanel 3 Note On - Duracao: 213240 Nota: C1 Vol.: 86
Chanel 7 Note Off - Duracao: 213300 Nota: C1 Vol.: 72
Chanel 7 Note On - Duracao: 213300 Nota: C1 Vol.: 74
Chanel 9 Note Off - Duracao: 213360 Nota: C1 Vol.: 73
Chanel 9 Note On - Duracao: 213360 Nota: C1 Vol.: 48
Chanel 2 Note Off - Duracao: 213480 Nota: C1 Vol.: 65
Chanel 2 Note On - Duracao: 213480 Nota: C1 Vol.: 40
Chanel 3 Note Off - Duracao: 213480 Nota: C1 Vol.: 86
Chanel 3 Note On - Duracao: 213480 Nota: C1 Vol.: 75
Chanel 8 Note Off - Duracao: 213660 Nota: C1 Vol.: 52
Chanel 8 Note On - Duracao: 213660 Nota: C1 Vol.: 63
Chanel 3 Note Off - Duracao: 213960 Nota: C1 Vol.: 75
Chanel 3 Note On - Duracao: 213960 Nota: C1 Vol.: 90
Chanel 3 Note Off - Duracao: 214080 Nota: C1 Vol.: 90
Chanel 3 Note On - Duracao: 214080 Nota: C1 Vol.: 100
Chanel 1 Note Off - Duracao: 214140 Nota: C1 Vol.: 59
Chanel 1 Note On - Duracao: 214140 Nota: C1 Vol.: 40
Chanel 3 Note Off - Duracao: 214140 Nota: C1 Vol.: 100
Chanel 3 Note On - Duracao: 214140 Nota: C1 Vol.: 100
Chanel 8 Note Off - Duracao: 214140 Nota: C1 Vol.: 63
Chanel 8 Note On - Duracao: 214140 Nota: C1 Vol.: 69
Chanel 3 Note Off - Duracao: 214200 Nota: C1 Vol.: 100
Chanel 3 Note On - Duracao: 214200 Nota: C1 Vol.: 100
Chanel 5 Note Off - Duracao: 214200 Nota: C1 Vol.: 48
Chanel 5 Note On - Duracao: 214200 Nota: C1 Vol.: 52
Chanel 3 Note Off - Duracao: 214260 Nota: C1 Vol.: 100
Chanel 3 Note On - Duracao: 214260 Nota: C1 Vol.: 99
Chanel 3 Note Off - Duracao: 214320 Nota: C1 Vol.: 99
Chanel 3 Note On - Duracao: 214320 Nota: C1 Vol.: 100
Chanel 9 Note Off - Duracao: 214320 Nota: C1 Vol.: 48
Chanel 9 Note On - Duracao: 214320 Nota: C1 Vol.: 53
Chanel 3 Note Off - Duracao: 214380 Nota: C1 Vol.: 100
Chanel 3 Note On - Duracao: 214380 Nota: C1 Vol.: 91
Chanel 8 Note Off - Duracao: 214380 Nota: C1 Vol.: 69
Chanel 8 Note On - Duracao: 214380 Nota: C1 Vol.: 63
Chanel 3 Note Off - Duracao: 214500 Nota: C1 Vol.: 91
Chanel 3 Note On - Duracao: 214500 Nota: C1 Vol.: 71
Chanel 4 Note Off - Duracao: 214860 Nota: C1 Vol.: 48
Chanel 4 Note On - Duracao: 214860 Nota: C1 Vol.: 60
Chanel 8 Note Off - Duracao: 214860 Nota: C1 Vol.: 63
Chanel 8 Note On - Duracao: 214860 Nota: C1 Vol.: 69
Chanel 3 Note Off - Duracao: 214980 Nota: C1 Vol.: 71
Chanel 3 Note On - Duracao: 214980 Nota: C1 Vol.: 75
Chanel 1 Note Off - Duracao: 215100 Nota: C1 Vol.: 40
Chanel 1 Note On - Duracao: 215100 Nota: C1 Vol.: 51
Chanel 3 Note Off - Duracao: 215220 Nota: C1 Vol.: 75
Chanel 3 Note On - Duracao: 215220 Nota: C1 Vol.: 81
Chanel 7 Note Off - Duracao: 215220 Nota: C1 Vol.: 74
Chanel 7 Note On - Duracao: 215220 Nota: C1 Vol.: 76
Chanel 9 Note Off - Duracao: 215280 Nota: C1 Vol.: 53
Chanel 9 Note On - Duracao: 215280 Nota: C1 Vol.: 61
Chanel 1 Note Off - Duracao: 215340 Nota: C1 Vol.: 51
Chanel 1 Note On - Duracao: 215340 Nota: C1 Vol.: 45
Chanel 8 Note Off - Duracao: 215340 Nota: C1 Vol.: 69
Chanel 8 Note On - Duracao: 215340 Nota: C1 Vol.: 75
Chanel 2 Note Off - Duracao: 215400 Nota: C1 Vol.: 40
Chanel 2 Note On - Duracao: 215400 Nota: C1 Vol.: 55
Chanel 1 Note Off - Duracao: 215460 Nota: C1 Vol.: 45
Chanel 1 Note On - Duracao: 215460 Nota: C1 Vol.: 42
Chanel 3 Note Off - Duracao: 215460 Nota: C1 Vol.: 81
Chanel 3 Note On - Duracao: 215460 Nota: C1 Vol.: 73
Chanel 1 Note Off - Duracao: 215580 Nota: C1 Vol.: 42
Chanel 1 Note On - Duracao: 215580 Nota: C1 Vol.: 43
Chanel 8 Note Off - Duracao: 215580 Nota: C1 Vol.: 75
Chanel 8 Note On - Duracao: 215580 Nota: C1 Vol.: 67
Chanel 2 Note Off - Duracao: 215640 Nota: C1 Vol.: 55
Chanel 2 Note On - Duracao: 215640 Nota: C1 Vol.: 49
Chanel 1 Note Off - Duracao: 215700 Nota: C1 Vol.: 43
Chanel 1 Note On - Duracao: 215700 Nota: C1 Vol.: 44
Chanel 3 Note Off - Duracao: 215700 Nota: C1 Vol.: 73
Chanel 3 Note On - Duracao: 215700 Nota: C1 Vol.: 76
Chanel 6 Note Off - Duracao: 215760 Nota: C1 Vol.: 65
Chanel 6 Note On - Duracao: 215760 Nota: C1 Vol.: 70
Chanel 9 Note Off - Duracao: 215760 Nota: C1 Vol.: 61
Chanel 9 Note On - Duracao: 215760 Nota: C1 Vol.: 61
Chanel 1 Note Off - Duracao: 215820 Nota: C1 Vol.: 44
Chanel 1 Note On - Duracao: 215820 Nota: C1 Vol.: 50
Chanel 4 Note Off - Duracao: 215820 Nota: C1 Vol.: 60
Chanel 4 Note On - Duracao: 215820 Nota: C1 Vol.: 57
Chanel 2 Note Off - Duracao: 215880 Nota: C1 Vol.: 49
Chanel 2 Note On - Duracao: 215880 Nota: C1 Vol.: 52
Chanel 1 Note Off - Duracao: 215940 Nota: C1 Vol.: 50
Chanel 1 Note On - Duracao: 215940 Nota: C1 Vol.: 57
Chanel 3 Note Off - Duracao: 215940 Nota: C1 Vol.: 76
Chanel 3 Note On - Duracao: 215940 Nota: C1 Vol.: 72
Chanel 1 Note Off - Duracao: 216060 Nota: C1 Vol.: 57
Chanel 1 Note On - Duracao: 216060 Nota: C1 Vol.: 40
Chanel 8 Note Off - Duracao: 216060 Nota: C1 Vol.: 67
Chanel 8 Note On - Duracao: 216060 Nota: C1 Vol.: 75
Chanel 2 Note Off - Duracao: 216120 Nota: C1 Vol.: 52
Chanel 2 Note On - Duracao: 216120 Nota: C1 Vol.: 40
Chanel 3 Note Off - Duracao: 216180 Nota: C1 Vol.: 72
Chanel 3 Note On - Duracao: 216180 Nota: C1 Vol.: 77
Chanel 9 Note Off - Duracao: 216240 Nota: C1 Vol.: 61
Chanel 9 Note On - Duracao: 216240 Nota: C1 Vol.: 60
Chanel 8 Note Off - Duracao: 216300 Nota: C1 Vol.: 75
Chanel 8 Note On - Duracao: 216300 Nota: C1 Vol.: 61
Chanel 3 Note Off - Duracao: 216420 Nota: C1 Vol.: 77
Chanel 3 Note On - Duracao: 216420 Nota: C1 Vol.: 72
Chanel 2 Note Off - Duracao: 216600 Nota: C1 Vol.: 40
Chanel 2 Note On - Duracao: 216600 Nota: C1 Vol.: 40
Chanel 3 Note Off - Duracao: 216660 Nota: C1 Vol.: 72
Chanel 3 Note On - Duracao: 216660 Nota: C1 Vol.: 71
Chanel 9 Note Off - Duracao: 216720 Nota: C1 Vol.: 60
Chanel 9 Note On - Duracao: 216720 Nota: C1 Vol.: 59
Chanel 4 Note Off - Duracao: 216780 Nota: C1 Vol.: 57
Chanel 4 Note On - Duracao: 216780 Nota: C1 Vol.: 40
Chanel 3 Note Off - Duracao: 216900 Nota: C1 Vol.: 71
Chanel 3 Note On - Duracao: 216900 Nota: C1 Vol.: 60
Chanel 1 Note Off - Duracao: 217020 Nota: C1 Vol.: 40
Chanel 1 Note On - Duracao: 217020 Nota: C1 Vol.: 58
Chanel 7 Note Off - Duracao: 217140 Nota: C1 Vol.: 76
Chanel 7 Note On - Duracao: 217140 Nota: C1 Vol.: 74
Chanel 9 Note Off - Duracao: 217200 Nota: C1 Vol.: 59
Chanel 9 Note On - Duracao: 217200 Nota: C1 Vol.: 61
Chanel 8 Note Off - Duracao: 217260 Nota: C1 Vol.: 61
Chanel 8 Note On - Duracao: 217260 Nota: C1 Vol.: 83
Chanel 3 Note Off - Duracao: 217380 Nota: C1 Vol.: 60
Chanel 3 Note On - Duracao: 217380 Nota: C1 Vol.: 65
Chanel 8 Note Off - Duracao: 217380 Nota: C1 Vol.: 83
Chanel 8 Note On - Duracao: 217380 Nota: C1 Vol.: 83
Chanel 1 Note Off - Duracao: 217500 Nota: C1 Vol.: 58
Chanel 1 Note On - Duracao: 217500 Nota: C1 Vol.: 74
Chanel 3 Note Off - Duracao: 217620 Nota: C1 Vol.: 65
Chanel 3 Note On - Duracao: 217620 Nota: C1 Vol.: 59
Chanel 8 Note Off - Duracao: 217620 Nota: C1 Vol.: 83
Chanel 8 Note On - Duracao: 217620 Nota: C1 Vol.: 65
Chanel 6 Note Off - Duracao: 217680 Nota: C1 Vol.: 70
Chanel 6 Note On - Duracao: 217680 Nota: C1 Vol.: 61
Chanel 9 Note Off - Duracao: 217680 Nota: C1 Vol.: 61
Chanel 9 Note On - Duracao: 217680 Nota: C1 Vol.: 62
Chanel 1 Note Off - Duracao: 217740 Nota: C1 Vol.: 74
Chanel 1 Note On - Duracao: 217740 Nota: C1 Vol.: 78
Chanel 1 Note Off - Duracao: 217980 Nota: C1 Vol.: 78
Chanel 1 Note On - Duracao: 217980 Nota: C1 Vol.: 77
Chanel 5 Note Off - Duracao: 218040 Nota: C1 Vol.: 52
Chanel 5 Note On - Duracao: 218040 Nota: C1 Vol.: 53
Chanel 3 Note Off - Duracao: 218100 Nota: C1 Vol.: 59
Chanel 3 Note On - Duracao: 218100 Nota: C1 Vol.: 68
Chanel 8 Note Off - Duracao: 218100 Nota: C1 Vol.: 65
Chanel 8 Note On - Duracao: 218100 Nota: C1 Vol.: 68
Chanel 9 Note Off - Duracao: 218160 Nota: C1 Vol.: 62
Chanel 9 Note On - Duracao: 218160 Nota: C1 Vol.: 58
Chanel 1 Note Off - Duracao: 218220 Nota: C1 Vol.: 77
Chanel 1 Note On - Duracao: 218220 Nota: C1 Vol.: 81
Chanel 3 Note Off - Duracao: 218340 Nota: C1 Vol.: 68
Chanel 3 Note On - Duracao: 218340 Nota: C1 Vol.: 71
Chanel 1 Note Off - Duracao: 218460 Nota: C1 Vol.: 81
Chanel 1 Note On - Duracao: 218460 Nota: C1 Vol.: 80
Chanel 2 Note Off - Duracao: 218520 Nota: C1 Vol.: 40
Chanel 2 Note On - Duracao: 218520 Nota: C1 Vol.: 40
Chanel 3 Note Off - Duracao: 218580 Nota: C1 Vol.: 71
Chanel 3 Note On - Duracao: 218580 Nota: C1 Vol.: 82
Chanel 8 Note Off - Duracao: 218580 Nota: C1 Vol.: 68
Chanel 8 Note On - Duracao: 218580 Nota: C1 Vol.: 71
Chanel 9 Note Off - Duracao: 218640 Nota: C1 Vol.: 58
Chanel 9 Note On - Duracao: 218640 Nota: C1 Vol.: 59
Chanel 1 Note Off - Duracao: 218700 Nota: C1 Vol.: 80
Chanel 1 Note On - Duracao: 218700 Nota: C1 Vol.: 85
Chanel 3 Note Off - Duracao: 218700 Nota: C1 Vol.: 82
Chanel 3 Note On - Duracao: 218700 Nota: C1 Vol.: 48
Chanel 1 Note Off - Duracao: 218820 Nota: C1 Vol.: 85
Chanel 1 Note On - Duracao: 218820 Nota: C1 Vol.: 68
Chanel 8 Note Off - Duracao: 218820 Nota: C1 Vol.: 71
Chanel 8 Note On - Duracao: 218820 Nota: C1 Vol.: 54
Chanel 7 Note Off - Duracao: 219060 Nota: C1 Vol.: 74
Chanel 7 Note On - Duracao: 219060 Nota: C1 Vol.: 66
Chanel 9 Note Off - Duracao: 219120 Nota: C1 Vol.: 59
Chanel 9 Note On - Duracao: 219120 Nota: C1 Vol.: 60
Chanel 1 Note Off - Duracao: 219300 Nota: C1 Vol.: 68
Chanel 1 Note On - Duracao: 219300 Nota: C1 Vol.: 71
Chanel 9 Note Off - Duracao: 219600 Nota: C1 Vol.: 60
Chanel 9 Note On - Duracao: 219600 Nota: C1 Vol.: 65
Chanel 1 Note Off - Duracao: 219780 Nota: C1 Vol.: 71
Chanel 1 Note On - Duracao: 219780 Nota: C1 Vol.: 69
Chanel 8 Note Off - Duracao: 219780 Nota: C1 Vol.: 54
Chanel 8 Note On - Duracao: 219780 Nota: C1 Vol.: 62
Chanel 9 Note Off - Duracao: 219840 Nota: C1 Vol.: 65
Chanel 9 Note On - Duracao: 219840 Nota: C1 Vol.: 67
Chanel 9 Note Off - Duracao: 220080 Nota: C1 Vol.: 67
Chanel 9 Note On - Duracao: 220080 Nota: C1 Vol.: 67
Chanel 1 Note Off - Duracao: 220260 Nota: C1 Vol.: 69
Chanel 1 Note On - Duracao: 220260 Nota: C1 Vol.: 72
Chanel 8 Note Off - Duracao: 220260 Nota: C1 Vol.: 62
Chanel 8 Note On - Duracao: 220260 Nota: C1 Vol.: 66
Chanel 9 Note Off - Duracao: 220320 Nota: C1 Vol.: 67
Chanel 9 Note On - Duracao: 220320 Nota: C1 Vol.: 64
Chanel 2 Note Off - Duracao: 220440 Nota: C1 Vol.: 40
Chanel 2 Note On - Duracao: 220440 Nota: C1 Vol.: 41
Chanel 3 Note Off - Duracao: 220620 Nota: C1 Vol.: 48
Chanel 3 Note On - Duracao: 220620 Nota: C1 Vol.: 46
Chanel 4 Note Off - Duracao: 220620 Nota: C1 Vol.: 40
Chanel 4 Note On - Duracao: 220620 Nota: C1 Vol.: 44
Chanel 1 Note Off - Duracao: 220740 Nota: C1 Vol.: 72
Chanel 1 Note On - Duracao: 220740 Nota: C1 Vol.: 59
Chanel 8 Note Off - Duracao: 220740 Nota: C1 Vol.: 66
Chanel 8 Note On - Duracao: 220740 Nota: C1 Vol.: 66
Chanel 9 Note Off - Duracao: 220800 Nota: C1 Vol.: 64
Chanel 9 Note On - Duracao: 220800 Nota: C1 Vol.: 57
Chanel 7 Note Off - Duracao: 220980 Nota: C1 Vol.: 66
Chanel 7 Note On - Duracao: 220980 Nota: C1 Vol.: 51
Chanel 8 Note Off - Duracao: 221220 Nota: C1 Vol.: 66
Chanel 8 Note On - Duracao: 221220 Nota: C1 Vol.: 67
Chanel 9 Note Off - Duracao: 221280 Nota: C1 Vol.: 57
Chanel 9 Note On - Duracao: 221280 Nota: C1 Vol.: 52
Chanel 6 Note Off - Duracao: 221520 Nota: C1 Vol.: 61
Chanel 6 Note On - Duracao: 221520 Nota: C1 Vol.: 59
Chanel 1 Note Off - Duracao: 221700 Nota: C1 Vol.: 59
Chanel 1 Note On - Duracao: 221700 Nota: C1 Vol.: 58
Chanel 8 Note Off - Duracao: 221700 Nota: C1 Vol.: 67
Chanel 8 Note On - Duracao: 221700 Nota: C1 Vol.: 59
Chanel 9 Note Off - Duracao: 221760 Nota: C1 Vol.: 52
Chanel 9 Note On - Duracao: 221760 Nota: C1 Vol.: 49
Chanel 5 Note Off - Duracao: 221880 Nota: C1 Vol.: 53
Chanel 5 Note On - Duracao: 221880 Nota: C1 Vol.: 53
Chanel 9 Note Off - Duracao: 222240 Nota: C1 Vol.: 49
Chanel 9 Note On - Duracao: 222240 Nota: C1 Vol.: 67
Chanel 9 Note Off - Duracao: 222360 Nota: C1 Vol.: 67
Chanel 9 Note On - Duracao: 222360 Nota: C1 Vol.: 49
Chanel 3 Note Off - Duracao: 222540 Nota: C1 Vol.: 46
Chanel 3 Note On - Duracao: 222540 Nota: C1 Vol.: 43
Chanel 4 Note Off - Duracao: 222540 Nota: C1 Vol.: 44
Chanel 4 Note On - Duracao: 222540 Nota: C1 Vol.: 40
Chanel 1 Note Off - Duracao: 222660 Nota: C1 Vol.: 58
Chanel 1 Note On - Duracao: 222660 Nota: C1 Vol.: 56
Chanel 8 Note Off - Duracao: 222660 Nota: C1 Vol.: 59
Chanel 8 Note On - Duracao: 222660 Nota: C1 Vol.: 61
Chanel 9 Note Off - Duracao: 222840 Nota: C1 Vol.: 49
Chanel 9 Note On - Duracao: 222840 Nota: C1 Vol.: 52
Chanel 1 Note Off - Duracao: 223140 Nota: C1 Vol.: 56
Chanel 1 Note On - Duracao: 223140 Nota: C1 Vol.: 57
Chanel 9 Note Off - Duracao: 223320 Nota: C1 Vol.: 52
Chanel 9 Note On - Duracao: 223320 Nota: C1 Vol.: 57
Chanel 9 Note Off - Duracao: 223560 Nota: C1 Vol.: 57
Chanel 9 Note On - Duracao: 223560 Nota: C1 Vol.: 63
Chanel 1 Note Off - Duracao: 223620 Nota: C1 Vol.: 57
Chanel 1 Note On - Duracao: 223620 Nota: C1 Vol.: 65
Chanel 8 Note Off - Duracao: 223620 Nota: C1 Vol.: 61
Chanel 8 Note On - Duracao: 223620 Nota: C1 Vol.: 62
Chanel 5 Note Off - Duracao: 223800 Nota: C1 Vol.: 53
Chanel 5 Note On - Duracao: 223800 Nota: C1 Vol.: 47
Chanel 9 Note Off - Duracao: 223800 Nota: C1 Vol.: 63
Chanel 9 Note On - Duracao: 223800 Nota: C1 Vol.: 54
Chanel 1 Note Off - Duracao: 223860 Nota: C1 Vol.: 65
Chanel 1 Note On - Duracao: 223860 Nota: C1 Vol.: 74
Chanel 1 Note Off - Duracao: 223980 Nota: C1 Vol.: 74
Chanel 1 Note On - Duracao: 223980 Nota: C1 Vol.: 68
Chanel 9 Note Off - Duracao: 224040 Nota: C1 Vol.: 54
Chanel 9 Note On - Duracao: 224040 Nota: C1 Vol.: 55
Chanel 1 Note Off - Duracao: 224220 Nota: C1 Vol.: 68
Chanel 1 Note On - Duracao: 224220 Nota: C1 Vol.: 67
Chanel 2 Note Off - Duracao: 224280 Nota: C1 Vol.: 41
Chanel 2 Note On - Duracao: 224280 Nota: C1 Vol.: 43
Chanel 9 Note Off - Duracao: 224280 Nota: C1 Vol.: 55
Chanel 9 Note On - Duracao: 224280 Nota: C1 Vol.: 53
Chanel 1 Note Off - Duracao: 224460 Nota: C1 Vol.: 67
Chanel 1 Note On - Duracao: 224460 Nota: C1 Vol.: 95
Chanel 3 Note Off - Duracao: 224460 Nota: C1 Vol.: 43
Chanel 3 Note On - Duracao: 224460 Nota: C1 Vol.: 47
Chanel 9 Note Off - Duracao: 224520 Nota: C1 Vol.: 53
Chanel 9 Note On - Duracao: 224520 Nota: C1 Vol.: 61
Chanel 1 Note Off - Duracao: 224580 Nota: C1 Vol.: 95
Chanel 1 Note On - Duracao: 224580 Nota: C1 Vol.: 96
Chanel 8 Note Off - Duracao: 224580 Nota: C1 Vol.: 62
Chanel 8 Note On - Duracao: 224580 Nota: C1 Vol.: 64
Chanel 9 Note Off - Duracao: 224640 Nota: C1 Vol.: 61
Chanel 9 Note On - Duracao: 224640 Nota: C1 Vol.: 58
Chanel 1 Note Off - Duracao: 224700 Nota: C1 Vol.: 96
Chanel 1 Note On - Duracao: 224700 Nota: C1 Vol.: 95
Chanel 1 Note Off - Duracao: 224820 Nota: C1 Vol.: 95
Chanel 1 Note On - Duracao: 224820 Nota: C1 Vol.: 81
Chanel 7 Note Off - Duracao: 224820 Nota: C1 Vol.: 51
Chanel 7 Note On - Duracao: 224820 Nota: C1 Vol.: 54
Chanel 9 Note Off - Duracao: 224880 Nota: C1 Vol.: 58
Chanel 9 Note On - Duracao: 224880 Nota: C1 Vol.: 45
Chanel 1 Note Off - Duracao: 225060 Nota: C1 Vol.: 81
Chanel 1 Note On - Duracao: 225060 Nota: C1 Vol.: 77
Chanel 6 Note Off - Duracao: 225360 Nota: C1 Vol.: 59
Chanel 6 Note On - Duracao: 225360 Nota: C1 Vol.: 61
Chanel 1 Note Off - Duracao: 225540 Nota: C1 Vol.: 77
Chanel 1 Note On - Duracao: 225540 Nota: C1 Vol.: 77
Chanel 8 Note Off - Duracao: 225540 Nota: C1 Vol.: 64
Chanel 8 Note On - Duracao: 225540 Nota: C1 Vol.: 61
Chanel 1 Note Off - Duracao: 225780 Nota: C1 Vol.: 77
Chanel 1 Note On - Duracao: 225780 Nota: C1 Vol.: 81
Chanel 7 Note Off - Duracao: 225780 Nota: C1 Vol.: 54
Chanel 7 Note On - Duracao: 225780 Nota: C1 Vol.: 54
Chanel 9 Note Off - Duracao: 225840 Nota: C1 Vol.: 45
Chanel 9 Note On - Duracao: 225840 Nota: C1 Vol.: 57
Chanel 1 Note Off - Duracao: 226020 Nota: C1 Vol.: 81
Chanel 1 Note On - Duracao: 226020 Nota: C1 Vol.: 77
Chanel 2 Note Off - Duracao: 226200 Nota: C1 Vol.: 43
Chanel 2 Note On - Duracao: 226200 Nota: C1 Vol.: 40
Chanel 1 Note Off - Duracao: 226260 Nota: C1 Vol.: 77
Chanel 1 Note On - Duracao: 226260 Nota: C1 Vol.: 85
Chanel 9 Note Off - Duracao: 226320 Nota: C1 Vol.: 57
Chanel 9 Note On - Duracao: 226320 Nota: C1 Vol.: 55
Chanel 3 Note Off - Duracao: 226380 Nota: C1 Vol.: 47
Chanel 3 Note On - Duracao: 226380 Nota: C1 Vol.: 58
Chanel 4 Note Off - Duracao: 226380 Nota: C1 Vol.: 40
Chanel 4 Note On - Duracao: 226380 Nota: C1 Vol.: 77
Chanel 1 Note Off - Duracao: 226500 Nota: C1 Vol.: 85
Chanel 1 Note On - Duracao: 226500 Nota: C1 Vol.: 91
Chanel 8 Note Off - Duracao: 226500 Nota: C1 Vol.: 61
Chanel 8 Note On - Duracao: 226500 Nota: C1 Vol.: 61
Chanel 1 Note Off - Duracao: 226620 Nota: C1 Vol.: 91
Chanel 1 Note On - Duracao: 226620 Nota: C1 Vol.: 88
Chanel 4 Note Off - Duracao: 226620 Nota: C1 Vol.: 77
Chanel 4 Note On - Duracao: 226620 Nota: C1 Vol.: 88
Chanel 4 Note Off - Duracao: 226740 Nota: C1 Vol.: 88
Chanel 4 Note On - Duracao: 226740 Nota: C1 Vol.: 91
Chanel 7 Note Off - Duracao: 226740 Nota: C1 Vol.: 54
Chanel 7 Note On - Duracao: 226740 Nota: C1 Vol.: 53
Chanel 1 Note Off - Duracao: 226860 Nota: C1 Vol.: 88
Chanel 1 Note On - Duracao: 226860 Nota: C1 Vol.: 82
Chanel 3 Note Off - Duracao: 226860 Nota: C1 Vol.: 58
Chanel 3 Note On - Duracao: 226860 Nota: C1 Vol.: 60
Chanel 4 Note Off - Duracao: 226860 Nota: C1 Vol.: 91
Chanel 4 Note On - Duracao: 226860 Nota: C1 Vol.: 100
Chanel 4 Note Off - Duracao: 226920 Nota: C1 Vol.: 100
Chanel 4 Note On - Duracao: 226920 Nota: C1 Vol.: 100
Chanel 4 Note Off - Duracao: 226980 Nota: C1 Vol.: 100
Chanel 4 Note On - Duracao: 226980 Nota: C1 Vol.: 100
Chanel 4 Note Off - Duracao: 227040 Nota: C1 Vol.: 100
Chanel 4 Note On - Duracao: 227040 Nota: C1 Vol.: 99
Chanel 1 Note Off - Duracao: 227100 Nota: C1 Vol.: 82
Chanel 1 Note On - Duracao: 227100 Nota: C1 Vol.: 79
Chanel 4 Note Off - Duracao: 227100 Nota: C1 Vol.: 99
Chanel 4 Note On - Duracao: 227100 Nota: C1 Vol.: 99
Chanel 4 Note Off - Duracao: 227160 Nota: C1 Vol.: 99
Chanel 4 Note On - Duracao: 227160 Nota: C1 Vol.: 97
Chanel 4 Note Off - Duracao: 227220 Nota: C1 Vol.: 97
Chanel 4 Note On - Duracao: 227220 Nota: C1 Vol.: 58
Chanel 7 Note Off - Duracao: 227220 Nota: C1 Vol.: 53
Chanel 7 Note On - Duracao: 227220 Nota: C1 Vol.: 55
Chanel 9 Note Off - Duracao: 227280 Nota: C1 Vol.: 55
Chanel 9 Note On - Duracao: 227280 Nota: C1 Vol.: 56
Chanel 3 Note Off - Duracao: 227340 Nota: C1 Vol.: 60
Chanel 3 Note On - Duracao: 227340 Nota: C1 Vol.: 63
Chanel 8 Note Off - Duracao: 227460 Nota: C1 Vol.: 61
Chanel 8 Note On - Duracao: 227460 Nota: C1 Vol.: 64
Chanel 1 Note Off - Duracao: 227580 Nota: C1 Vol.: 79
Chanel 1 Note On - Duracao: 227580 Nota: C1 Vol.: 86
Chanel 5 Note Off - Duracao: 227640 Nota: C1 Vol.: 47
Chanel 5 Note On - Duracao: 227640 Nota: C1 Vol.: 86
Chanel 7 Note Off - Duracao: 227700 Nota: C1 Vol.: 55
Chanel 7 Note On - Duracao: 227700 Nota: C1 Vol.: 55
Chanel 5 Note Off - Duracao: 227760 Nota: C1 Vol.: 86
Chanel 5 Note On - Duracao: 227760 Nota: C1 Vol.: 88
Chanel 1 Note Off - Duracao: 227820 Nota: C1 Vol.: 86
Chanel 1 Note On - Duracao: 227820 Nota: C1 Vol.: 88
Chanel 3 Note Off - Duracao: 227820 Nota: C1 Vol.: 63
Chanel 3 Note On - Duracao: 227820 Nota: C1 Vol.: 75
Chanel 5 Note Off - Duracao: 227880 Nota: C1 Vol.: 88
Chanel 5 Note On - Duracao: 227880 Nota: C1 Vol.: 87
Chanel 1 Note Off - Duracao: 227940 Nota: C1 Vol.: 88
Chanel 1 Note On - Duracao: 227940 Nota: C1 Vol.: 79
Chanel 5 Note Off - Duracao: 228000 Nota: C1 Vol.: 87
Chanel 5 Note On - Duracao: 228000 Nota: C1 Vol.: 76
Chanel 3 Note Off - Duracao: 228060 Nota: C1 Vol.: 75
Chanel 3 Note On - Duracao: 228060 Nota: C1 Vol.: 78
Chanel 2 Note Off - Duracao: 228120 Nota: C1 Vol.: 40
Chanel 2 Note On - Duracao: 228120 Nota: C1 Vol.: 40
Chanel 1 Note Off - Duracao: 228180 Nota: C1 Vol.: 79
Chanel 1 Note On - Duracao: 228180 Nota: C1 Vol.: 80
Chanel 3 Note Off - Duracao: 228180 Nota: C1 Vol.: 78
Chanel 3 Note On - Duracao: 228180 Nota: C1 Vol.: 77
Chanel 4 Note Off - Duracao: 228180 Nota: C1 Vol.: 58
Chanel 4 Note On - Duracao: 228180 Nota: C1 Vol.: 41
Chanel 7 Note Off - Duracao: 228180 Nota: C1 Vol.: 55
Chanel 7 Note On - Duracao: 228180 Nota: C1 Vol.: 49
Chanel 5 Note Off - Duracao: 228240 Nota: C1 Vol.: 76
Chanel 5 Note On - Duracao: 228240 Nota: C1 Vol.: 63
Chanel 9 Note Off - Duracao: 228240 Nota: C1 Vol.: 56
Chanel 9 Note On - Duracao: 228240 Nota: C1 Vol.: 59
Chanel 3 Note Off - Duracao: 228300 Nota: C1 Vol.: 77
Chanel 3 Note On - Duracao: 228300 Nota: C1 Vol.: 71
Chanel 1 Note Off - Duracao: 228420 Nota: C1 Vol.: 80
Chanel 1 Note On - Duracao: 228420 Nota: C1 Vol.: 79
Chanel 8 Note Off - Duracao: 228420 Nota: C1 Vol.: 64
Chanel 8 Note On - Duracao: 228420 Nota: C1 Vol.: 69
Chanel 3 Note Off - Duracao: 228540 Nota: C1 Vol.: 71
Chanel 3 Note On - Duracao: 228540 Nota: C1 Vol.: 69
Chanel 1 Note Off - Duracao: 228660 Nota: C1 Vol.: 79
Chanel 1 Note On - Duracao: 228660 Nota: C1 Vol.: 79
Chanel 9 Note Off - Duracao: 228720 Nota: C1 Vol.: 59
Chanel 9 Note On - Duracao: 228720 Nota: C1 Vol.: 56
Chanel 3 Note Off - Duracao: 228780 Nota: C1 Vol.: 69
Chanel 3 Note On - Duracao: 228780 Nota: C1 Vol.: 68
Chanel 3 Note Off - Duracao: 229020 Nota: C1 Vol.: 68
Chanel 3 Note On - Duracao: 229020 Nota: C1 Vol.: 64
Chanel 1 Note Off - Duracao: 229140 Nota: C1 Vol.: 79
Chanel 1 Note On - Duracao: 229140 Nota: C1 Vol.: 80
Chanel 7 Note Off - Duracao: 229140 Nota: C1 Vol.: 49
Chanel 7 Note On - Duracao: 229140 Nota: C1 Vol.: 49
Chanel 5 Note Off - Duracao: 229200 Nota: C1 Vol.: 63
Chanel 5 Note On - Duracao: 229200 Nota: C1 Vol.: 69
Chanel 6 Note Off - Duracao: 229200 Nota: C1 Vol.: 61
Chanel 6 Note On - Duracao: 229200 Nota: C1 Vol.: 60
Chanel 3 Note Off - Duracao: 229260 Nota: C1 Vol.: 64
Chanel 3 Note On - Duracao: 229260 Nota: C1 Vol.: 55
Chanel 1 Note Off - Duracao: 229380 Nota: C1 Vol.: 80
Chanel 1 Note On - Duracao: 229380 Nota: C1 Vol.: 93
Chanel 8 Note Off - Duracao: 229380 Nota: C1 Vol.: 69
Chanel 8 Note On - Duracao: 229380 Nota: C1 Vol.: 64
Chanel 1 Note Off - Duracao: 229500 Nota: C1 Vol.: 93
Chanel 1 Note On - Duracao: 229500 Nota: C1 Vol.: 92
Chanel 1 Note Off - Duracao: 229620 Nota: C1 Vol.: 92
Chanel 1 Note On - Duracao: 229620 Nota: C1 Vol.: 84
Chanel 5 Note Off - Duracao: 229680 Nota: C1 Vol.: 69
Chanel 5 Note On - Duracao: 229680 Nota: C1 Vol.: 76
Chanel 9 Note Off - Duracao: 229680 Nota: C1 Vol.: 56
Chanel 9 Note On - Duracao: 229680 Nota: C1 Vol.: 63
Chanel 1 Note Off - Duracao: 229740 Nota: C1 Vol.: 84
Chanel 1 Note On - Duracao: 229740 Nota: C1 Vol.: 85
Chanel 3 Note Off - Duracao: 229740 Nota: C1 Vol.: 55
Chanel 3 Note On - Duracao: 229740 Nota: C1 Vol.: 63
Chanel 1 Note Off - Duracao: 229860 Nota: C1 Vol.: 85
Chanel 1 Note On - Duracao: 229860 Nota: C1 Vol.: 83
Chanel 5 Note Off - Duracao: 229920 Nota: C1 Vol.: 76
Chanel 5 Note On - Duracao: 229920 Nota: C1 Vol.: 84
Chanel 1 Note Off - Duracao: 229980 Nota: C1 Vol.: 83
Chanel 1 Note On - Duracao: 229980 Nota: C1 Vol.: 83
Chanel 3 Note Off - Duracao: 229980 Nota: C1 Vol.: 63
Chanel 3 Note On - Duracao: 229980 Nota: C1 Vol.: 57
Chanel 5 Note Off - Duracao: 230040 Nota: C1 Vol.: 84
Chanel 5 Note On - Duracao: 230040 Nota: C1 Vol.: 88
Chanel 1 Note Off - Duracao: 230100 Nota: C1 Vol.: 83
Chanel 1 Note On - Duracao: 230100 Nota: C1 Vol.: 72
Chanel 7 Note Off - Duracao: 230100 Nota: C1 Vol.: 49
Chanel 7 Note On - Duracao: 230100 Nota: C1 Vol.: 54
Chanel 5 Note Off - Duracao: 230160 Nota: C1 Vol.: 88
Chanel 5 Note On - Duracao: 230160 Nota: C1 Vol.: 85
Chanel 9 Note Off - Duracao: 230160 Nota: C1 Vol.: 63
Chanel 9 Note On - Duracao: 230160 Nota: C1 Vol.: 62
Chanel 5 Note Off - Duracao: 230280 Nota: C1 Vol.: 85
Chanel 5 Note On - Duracao: 230280 Nota: C1 Vol.: 93
Chanel 1 Note Off - Duracao: 230340 Nota: C1 Vol.: 72
Chanel 1 Note On - Duracao: 230340 Nota: C1 Vol.: 63
Chanel 5 Note Off - Duracao: 230340 Nota: C1 Vol.: 93
Chanel 5 Note On - Duracao: 230340 Nota: C1 Vol.: 97
Chanel 8 Note Off - Duracao: 230340 Nota: C1 Vol.: 64
Chanel 8 Note On - Duracao: 230340 Nota: C1 Vol.: 65
Chanel 5 Note Off - Duracao: 230400 Nota: C1 Vol.: 97
Chanel 5 Note On - Duracao: 230400 Nota: C1 Vol.: 64
Chanel 3 Note Off - Duracao: 230460 Nota: C1 Vol.: 57
Chanel 3 Note On - Duracao: 230460 Nota: C1 Vol.: 62
Chanel 1 Note Off - Duracao: 230580 Nota: C1 Vol.: 63
Chanel 1 Note On - Duracao: 230580 Nota: C1 Vol.: 60
Chanel 9 Note Off - Duracao: 230640 Nota: C1 Vol.: 62
Chanel 9 Note On - Duracao: 230640 Nota: C1 Vol.: 60
Chanel 3 Note Off - Duracao: 230700 Nota: C1 Vol.: 62
Chanel 3 Note On - Duracao: 230700 Nota: C1 Vol.: 67
Chanel 1 Note Off - Duracao: 230820 Nota: C1 Vol.: 60
Chanel 1 Note On - Duracao: 230820 Nota: C1 Vol.: 56
Chanel 5 Note Off - Duracao: 230880 Nota: C1 Vol.: 64
Chanel 5 Note On - Duracao: 230880 Nota: C1 Vol.: 96
Chanel 3 Note Off - Duracao: 230940 Nota: C1 Vol.: 67
Chanel 3 Note On - Duracao: 230940 Nota: C1 Vol.: 59
Chanel 5 Note Off - Duracao: 230940 Nota: C1 Vol.: 96
Chanel 5 Note On - Duracao: 230940 Nota: C1 Vol.: 100
Chanel 5 Note Off - Duracao: 231000 Nota: C1 Vol.: 100
Chanel 5 Note On - Duracao: 231000 Nota: C1 Vol.: 100
Chanel 1 Note Off - Duracao: 231060 Nota: C1 Vol.: 56
Chanel 1 Note On - Duracao: 231060 Nota: C1 Vol.: 52
Chanel 5 Note Off - Duracao: 231060 Nota: C1 Vol.: 100
Chanel 5 Note On - Duracao: 231060 Nota: C1 Vol.: 100
Chanel 7 Note Off - Duracao: 231060 Nota: C1 Vol.: 54
Chanel 7 Note On - Duracao: 231060 Nota: C1 Vol.: 60
Chanel 5 Note Off - Duracao: 231120 Nota: C1 Vol.: 100
Chanel 5 Note On - Duracao: 231120 Nota: C1 Vol.: 100
Chanel 5 Note Off - Duracao: 231180 Nota: C1 Vol.: 100
Chanel 5 Note On - Duracao: 231180 Nota: C1 Vol.: 100
Chanel 5 Note Off - Duracao: 231240 Nota: C1 Vol.: 100
Chanel 5 Note On - Duracao: 231240 Nota: C1 Vol.: 100
Chanel 5 Note Off - Duracao: 231300 Nota: C1 Vol.: 100
Chanel 5 Note On - Duracao: 231300 Nota: C1 Vol.: 99
Chanel 8 Note Off - Duracao: 231300 Nota: C1 Vol.: 65
Chanel 8 Note On - Duracao: 231300 Nota: C1 Vol.: 59
Chanel 5 Note Off - Duracao: 231360 Nota: C1 Vol.: 99
Chanel 5 Note On - Duracao: 231360 Nota: C1 Vol.: 98
Chanel 3 Note Off - Duracao: 231420 Nota: C1 Vol.: 59
Chanel 3 Note On - Duracao: 231420 Nota: C1 Vol.: 52
Chanel 5 Note Off - Duracao: 231420 Nota: C1 Vol.: 98
Chanel 5 Note On - Duracao: 231420 Nota: C1 Vol.: 98
Chanel 5 Note Off - Duracao: 231480 Nota: C1 Vol.: 98
Chanel 5 Note On - Duracao: 231480 Nota: C1 Vol.: 97
Chanel 1 Note Off - Duracao: 231540 Nota: C1 Vol.: 52
Chanel 1 Note On - Duracao: 231540 Nota: C1 Vol.: 53
Chanel 5 Note Off - Duracao: 231540 Nota: C1 Vol.: 97
Chanel 5 Note On - Duracao: 231540 Nota: C1 Vol.: 98
Chanel 5 Note Off - Duracao: 231600 Nota: C1 Vol.: 98
Chanel 5 Note On - Duracao: 231600 Nota: C1 Vol.: 98
Chanel 9 Note Off - Duracao: 231600 Nota: C1 Vol.: 60
Chanel 9 Note On - Duracao: 231600 Nota: C1 Vol.: 64
Chanel 5 Note Off - Duracao: 231660 Nota: C1 Vol.: 98
Chanel 5 Note On - Duracao: 231660 Nota: C1 Vol.: 96
Chanel 5 Note Off - Duracao: 231720 Nota: C1 Vol.: 96
Chanel 5 Note On - Duracao: 231720 Nota: C1 Vol.: 97
Chanel 5 Note Off - Duracao: 231780 Nota: C1 Vol.: 97
Chanel 5 Note On - Duracao: 231780 Nota: C1 Vol.: 100
Chanel 5 Note Off - Duracao: 231840 Nota: C1 Vol.: 100
Chanel 5 Note On - Duracao: 231840 Nota: C1 Vol.: 100
Chanel 5 Note Off - Duracao: 231900 Nota: C1 Vol.: 100
Chanel 5 Note On - Duracao: 231900 Nota: C1 Vol.: 96
Chanel 2 Note Off - Duracao: 231960 Nota: C1 Vol.: 40
Chanel 2 Note On - Duracao: 231960 Nota: C1 Vol.: 41
Chanel 5 Note Off - Duracao: 231960 Nota: C1 Vol.: 96
Chanel 5 Note On - Duracao: 231960 Nota: C1 Vol.: 75
Chanel 1 Note Off - Duracao: 232020 Nota: C1 Vol.: 53
Chanel 1 Note On - Duracao: 232020 Nota: C1 Vol.: 48
Chanel 4 Note Off - Duracao: 232020 Nota: C1 Vol.: 41
Chanel 4 Note On - Duracao: 232020 Nota: C1 Vol.: 56
Chanel 7 Note Off - Duracao: 232020 Nota: C1 Vol.: 60
Chanel 7 Note On - Duracao: 232020 Nota: C1 Vol.: 59
Chanel 9 Note Off - Duracao: 232080 Nota: C1 Vol.: 64
Chanel 9 Note On - Duracao: 232080 Nota: C1 Vol.: 61
Chanel 5 Note Off - Duracao: 232200 Nota: C1 Vol.: 75
Chanel 5 Note On - Duracao: 232200 Nota: C1 Vol.: 56
Chanel 1 Note Off - Duracao: 232260 Nota: C1 Vol.: 48
Chanel 1 Note On - Duracao: 232260 Nota: C1 Vol.: 50
Chanel 7 Note Off - Duracao: 232260 Nota: C1 Vol.: 59
Chanel 7 Note On - Duracao: 232260 Nota: C1 Vol.: 59
Chanel 8 Note Off - Duracao: 232260 Nota: C1 Vol.: 59
Chanel 8 Note On - Duracao: 232260 Nota: C1 Vol.: 56
Chanel 3 Note Off - Duracao: 232380 Nota: C1 Vol.: 52
Chanel 3 Note On - Duracao: 232380 Nota: C1 Vol.: 56
Chanel 1 Note Off - Duracao: 232500 Nota: C1 Vol.: 50
Chanel 1 Note On - Duracao: 232500 Nota: C1 Vol.: 55
Chanel 1 Note Off - Duracao: 232740 Nota: C1 Vol.: 55
Chanel 1 Note On - Duracao: 232740 Nota: C1 Vol.: 64
Chanel 7 Note Off - Duracao: 232740 Nota: C1 Vol.: 59
Chanel 7 Note On - Duracao: 232740 Nota: C1 Vol.: 69
Chanel 8 Note Off - Duracao: 232740 Nota: C1 Vol.: 56
Chanel 8 Note On - Duracao: 232740 Nota: C1 Vol.: 57
Chanel 1 Note Off - Duracao: 232860 Nota: C1 Vol.: 64
Chanel 1 Note On - Duracao: 232860 Nota: C1 Vol.: 62
Chanel 3 Note Off - Duracao: 232860 Nota: C1 Vol.: 56
Chanel 3 Note On - Duracao: 232860 Nota: C1 Vol.: 53
Chanel 1 Note Off - Duracao: 232980 Nota: C1 Vol.: 62
Chanel 1 Note On - Duracao: 232980 Nota: C1 Vol.: 66
Chanel 4 Note Off - Duracao: 232980 Nota: C1 Vol.: 56
Chanel 4 Note On - Duracao: 232980 Nota: C1 Vol.: 86
Chanel 7 Note Off - Duracao: 232980 Nota: C1 Vol.: 69
Chanel 7 Note On - Duracao: 232980 Nota: C1 Vol.: 88
Chanel 8 Note Off - Duracao: 232980 Nota: C1 Vol.: 57
Chanel 8 Note On - Duracao: 232980 Nota: C1 Vol.: 56
Chanel 6 Note Off - Duracao: 233040 Nota: C1 Vol.: 60
Chanel 6 Note On - Duracao: 233040 Nota: C1 Vol.: 63
Chanel 9 Note Off - Duracao: 233040 Nota: C1 Vol.: 61
Chanel 9 Note On - Duracao: 233040 Nota: C1 Vol.: 69
Chanel 1 Note Off - Duracao: 233100 Nota: C1 Vol.: 66
Chanel 1 Note On - Duracao: 233100 Nota: C1 Vol.: 57
Chanel 4 Note Off - Duracao: 233100 Nota: C1 Vol.: 86
Chanel 4 Note On - Duracao: 233100 Nota: C1 Vol.: 99
Chanel 7 Note Off - Duracao: 233100 Nota: C1 Vol.: 88
Chanel 7 Note On - Duracao: 233100 Nota: C1 Vol.: 94
Chanel 8 Note Off - Duracao: 233100 Nota: C1 Vol.: 56
Chanel 8 Note On - Duracao: 233100 Nota: C1 Vol.: 48
Chanel 4 Note Off - Duracao: 233160 Nota: C1 Vol.: 99
Chanel 4 Note On - Duracao: 233160 Nota: C1 Vol.: 99
Chanel 5 Note Off - Duracao: 233160 Nota: C1 Vol.: 56
Chanel 5 Note On - Duracao: 233160 Nota: C1 Vol.: 62
Chanel 1 Note Off - Duracao: 233220 Nota: C1 Vol.: 57
Chanel 1 Note On - Duracao: 233220 Nota: C1 Vol.: 55
Chanel 4 Note Off - Duracao: 233220 Nota: C1 Vol.: 99
Chanel 4 Note On - Duracao: 233220 Nota: C1 Vol.: 100
Chanel 7 Note Off - Duracao: 233220 Nota: C1 Vol.: 94
Chanel 7 Note On - Duracao: 233220 Nota: C1 Vol.: 92
Chanel 8 Note Off - Duracao: 233220 Nota: C1 Vol.: 48
Chanel 8 Note On - Duracao: 233220 Nota: C1 Vol.: 48
Chanel 4 Note Off - Duracao: 233280 Nota: C1 Vol.: 100
Chanel 4 Note On - Duracao: 233280 Nota: C1 Vol.: 97
Chanel 3 Note Off - Duracao: 233340 Nota: C1 Vol.: 53
Chanel 3 Note On - Duracao: 233340 Nota: C1 Vol.: 47
Chanel 4 Note Off - Duracao: 233340 Nota: C1 Vol.: 97
Chanel 4 Note On - Duracao: 233340 Nota: C1 Vol.: 96
Chanel 7 Note Off - Duracao: 233340 Nota: C1 Vol.: 92
Chanel 7 Note On - Duracao: 233340 Nota: C1 Vol.: 87
Chanel 8 Note Off - Duracao: 233340 Nota: C1 Vol.: 48
Chanel 8 Note On - Duracao: 233340 Nota: C1 Vol.: 46
Chanel 4 Note Off - Duracao: 233400 Nota: C1 Vol.: 96
Chanel 4 Note On - Duracao: 233400 Nota: C1 Vol.: 98
Chanel 1 Note Off - Duracao: 233460 Nota: C1 Vol.: 55
Chanel 1 Note On - Duracao: 233460 Nota: C1 Vol.: 62
Chanel 4 Note Off - Duracao: 233460 Nota: C1 Vol.: 98
Chanel 4 Note On - Duracao: 233460 Nota: C1 Vol.: 94
Chanel 7 Note Off - Duracao: 233460 Nota: C1 Vol.: 87
Chanel 7 Note On - Duracao: 233460 Nota: C1 Vol.: 80
Chanel 8 Note Off - Duracao: 233460 Nota: C1 Vol.: 46
Chanel 8 Note On - Duracao: 233460 Nota: C1 Vol.: 46
Chanel 4 Note Off - Duracao: 233520 Nota: C1 Vol.: 94
Chanel 4 Note On - Duracao: 233520 Nota: C1 Vol.: 73
Chanel 9 Note Off - Duracao: 233520 Nota: C1 Vol.: 69
Chanel 9 Note On - Duracao: 233520 Nota: C1 Vol.: 65
Chanel 8 Note Off - Duracao: 233580 Nota: C1 Vol.: 46
Chanel 8 Note On - Duracao: 233580 Nota: C1 Vol.: 47
Chanel 1 Note Off - Duracao: 233700 Nota: C1 Vol.: 62
Chanel 1 Note On - Duracao: 233700 Nota: C1 Vol.: 63
Chanel 7 Note Off - Duracao: 233700 Nota: C1 Vol.: 80
Chanel 7 Note On - Duracao: 233700 Nota: C1 Vol.: 75
Chanel 4 Note Off - Duracao: 233760 Nota: C1 Vol.: 73
Chanel 4 Note On - Duracao: 233760 Nota: C1 Vol.: 67
Chanel 8 Note Off - Duracao: 233820 Nota: C1 Vol.: 47
Chanel 8 Note On - Duracao: 233820 Nota: C1 Vol.: 48
Chanel 2 Note Off - Duracao: 233880 Nota: C1 Vol.: 41
Chanel 2 Note On - Duracao: 233880 Nota: C1 Vol.: 63
Chanel 1 Note Off - Duracao: 233940 Nota: C1 Vol.: 63
Chanel 1 Note On - Duracao: 233940 Nota: C1 Vol.: 76
Chanel 7 Note Off - Duracao: 233940 Nota: C1 Vol.: 75
Chanel 7 Note On - Duracao: 233940 Nota: C1 Vol.: 75
Chanel 9 Note Off - Duracao: 234000 Nota: C1 Vol.: 65
Chanel 9 Note On - Duracao: 234000 Nota: C1 Vol.: 62
Chanel 1 Note Off - Duracao: 234060 Nota: C1 Vol.: 76
Chanel 1 Note On - Duracao: 234060 Nota: C1 Vol.: 85
Chanel 8 Note Off - Duracao: 234060 Nota: C1 Vol.: 48
Chanel 8 Note On - Duracao: 234060 Nota: C1 Vol.: 43
Chanel 2 Note Off - Duracao: 234120 Nota: C1 Vol.: 63
Chanel 2 Note On - Duracao: 234120 Nota: C1 Vol.: 59
Chanel 5 Note Off - Duracao: 234120 Nota: C1 Vol.: 62
Chanel 5 Note On - Duracao: 234120 Nota: C1 Vol.: 63
Chanel 1 Note Off - Duracao: 234180 Nota: C1 Vol.: 85
Chanel 1 Note On - Duracao: 234180 Nota: C1 Vol.: 74
Chanel 7 Note Off - Duracao: 234180 Nota: C1 Vol.: 75
Chanel 7 Note On - Duracao: 234180 Nota: C1 Vol.: 79
Chanel 4 Note Off - Duracao: 234240 Nota: C1 Vol.: 67
Chanel 4 Note On - Duracao: 234240 Nota: C1 Vol.: 71
Chanel 3 Note Off - Duracao: 234300 Nota: C1 Vol.: 47
Chanel 3 Note On - Duracao: 234300 Nota: C1 Vol.: 40
Chanel 2 Note Off - Duracao: 234360 Nota: C1 Vol.: 59
Chanel 2 Note On - Duracao: 234360 Nota: C1 Vol.: 62
Chanel 1 Note Off - Duracao: 234420 Nota: C1 Vol.: 74
Chanel 1 Note On - Duracao: 234420 Nota: C1 Vol.: 66
Chanel 7 Note Off - Duracao: 234420 Nota: C1 Vol.: 79
Chanel 7 Note On - Duracao: 234420 Nota: C1 Vol.: 79
Chanel 2 Note Off - Duracao: 234480 Nota: C1 Vol.: 62
Chanel 2 Note On - Duracao: 234480 Nota: C1 Vol.: 61
Chanel 8 Note Off - Duracao: 234540 Nota: C1 Vol.: 43
Chanel 8 Note On - Duracao: 234540 Nota: C1 Vol.: 43
Chanel 2 Note Off - Duracao: 234600 Nota: C1 Vol.: 61
Chanel 2 Note On - Duracao: 234600 Nota: C1 Vol.: 58
Chanel 5 Note Off - Duracao: 234600 Nota: C1 Vol.: 63
Chanel 5 Note On - Duracao: 234600 Nota: C1 Vol.: 68
Chanel 1 Note Off - Duracao: 234660 Nota: C1 Vol.: 66
Chanel 1 Note On - Duracao: 234660 Nota: C1 Vol.: 64
Chanel 7 Note Off - Duracao: 234660 Nota: C1 Vol.: 79
Chanel 7 Note On - Duracao: 234660 Nota: C1 Vol.: 87
Chanel 2 Note Off - Duracao: 234720 Nota: C1 Vol.: 58
Chanel 2 Note On - Duracao: 234720 Nota: C1 Vol.: 57
Chanel 4 Note Off - Duracao: 234720 Nota: C1 Vol.: 71
Chanel 4 Note On - Duracao: 234720 Nota: C1 Vol.: 64
Chanel 7 Note Off - Duracao: 234780 Nota: C1 Vol.: 87
Chanel 7 Note On - Duracao: 234780 Nota: C1 Vol.: 96
Chanel 2 Note Off - Duracao: 234840 Nota: C1 Vol.: 57
Chanel 2 Note On - Duracao: 234840 Nota: C1 Vol.: 56
Chanel 7 Note Off - Duracao: 234840 Nota: C1 Vol.: 96
Chanel 7 Note On - Duracao: 234840 Nota: C1 Vol.: 84
Chanel 1 Note Off - Duracao: 234900 Nota: C1 Vol.: 64
Chanel 1 Note On - Duracao: 234900 Nota: C1 Vol.: 64
Chanel 2 Note Off - Duracao: 234960 Nota: C1 Vol.: 56
Chanel 2 Note On - Duracao: 234960 Nota: C1 Vol.: 58
Chanel 9 Note Off - Duracao: 234960 Nota: C1 Vol.: 62
Chanel 9 Note On - Duracao: 234960 Nota: C1 Vol.: 62
Chanel 8 Note Off - Duracao: 235020 Nota: C1 Vol.: 43
Chanel 8 Note On - Duracao: 235020 Nota: C1 Vol.: 49
Chanel 2 Note Off - Duracao: 235080 Nota: C1 Vol.: 58
Chanel 2 Note On - Duracao: 235080 Nota: C1 Vol.: 59
Chanel 5 Note Off - Duracao: 235080 Nota: C1 Vol.: 68
Chanel 5 Note On - Duracao: 235080 Nota: C1 Vol.: 74
Chanel 7 Note Off - Duracao: 235080 Nota: C1 Vol.: 84
Chanel 7 Note On - Duracao: 235080 Nota: C1 Vol.: 72
Chanel 1 Note Off - Duracao: 235140 Nota: C1 Vol.: 64
Chanel 1 Note On - Duracao: 235140 Nota: C1 Vol.: 69
Chanel 2 Note Off - Duracao: 235200 Nota: C1 Vol.: 59
Chanel 2 Note On - Duracao: 235200 Nota: C1 Vol.: 59
Chanel 4 Note Off - Duracao: 235200 Nota: C1 Vol.: 64
Chanel 4 Note On - Duracao: 235200 Nota: C1 Vol.: 75
Chanel 1 Note Off - Duracao: 235260 Nota: C1 Vol.: 69
Chanel 1 Note On - Duracao: 235260 Nota: C1 Vol.: 70
Chanel 2 Note Off - Duracao: 235320 Nota: C1 Vol.: 59
Chanel 2 Note On - Duracao: 235320 Nota: C1 Vol.: 60
Chanel 1 Note Off - Duracao: 235380 Nota: C1 Vol.: 70
Chanel 1 Note On - Duracao: 235380 Nota: C1 Vol.: 68
Chanel 2 Note Off - Duracao: 235440 Nota: C1 Vol.: 60
Chanel 2 Note On - Duracao: 235440 Nota: C1 Vol.: 65
Chanel 4 Note Off - Duracao: 235440 Nota: C1 Vol.: 75
Chanel 4 Note On - Duracao: 235440 Nota: C1 Vol.: 92
Chanel 9 Note Off - Duracao: 235440 Nota: C1 Vol.: 62
Chanel 9 Note On - Duracao: 235440 Nota: C1 Vol.: 65
Chanel 8 Note Off - Duracao: 235500 Nota: C1 Vol.: 49
Chanel 8 Note On - Duracao: 235500 Nota: C1 Vol.: 56
Chanel 2 Note Off - Duracao: 235560 Nota: C1 Vol.: 65
Chanel 2 Note On - Duracao: 235560 Nota: C1 Vol.: 51
Chanel 4 Note Off - Duracao: 235560 Nota: C1 Vol.: 92
Chanel 4 Note On - Duracao: 235560 Nota: C1 Vol.: 96
Chanel 5 Note Off - Duracao: 235560 Nota: C1 Vol.: 74
Chanel 5 Note On - Duracao: 235560 Nota: C1 Vol.: 64
Chanel 7 Note Off - Duracao: 235560 Nota: C1 Vol.: 72
Chanel 7 Note On - Duracao: 235560 Nota: C1 Vol.: 72
Chanel 1 Note Off - Duracao: 235620 Nota: C1 Vol.: 68
Chanel 1 Note On - Duracao: 235620 Nota: C1 Vol.: 69
Chanel 4 Note Off - Duracao: 235620 Nota: C1 Vol.: 96
Chanel 4 Note On - Duracao: 235620 Nota: C1 Vol.: 94
Chanel 4 Note Off - Duracao: 235680 Nota: C1 Vol.: 94
Chanel 4 Note On - Duracao: 235680 Nota: C1 Vol.: 79
Chanel 7 Note Off - Duracao: 235800 Nota: C1 Vol.: 72
Chanel 7 Note On - Duracao: 235800 Nota: C1 Vol.: 65
Chanel 1 Note Off - Duracao: 235860 Nota: C1 Vol.: 69
Chanel 1 Note On - Duracao: 235860 Nota: C1 Vol.: 57
Chanel 4 Note Off - Duracao: 235920 Nota: C1 Vol.: 79
Chanel 4 Note On - Duracao: 235920 Nota: C1 Vol.: 90
Chanel 9 Note Off - Duracao: 235920 Nota: C1 Vol.: 65
Chanel 9 Note On - Duracao: 235920 Nota: C1 Vol.: 72
Chanel 8 Note Off - Duracao: 235980 Nota: C1 Vol.: 56
Chanel 8 Note On - Duracao: 235980 Nota: C1 Vol.: 41
Chanel 2 Note Off - Duracao: 236040 Nota: C1 Vol.: 51
Chanel 2 Note On - Duracao: 236040 Nota: C1 Vol.: 40
Chanel 4 Note Off - Duracao: 236040 Nota: C1 Vol.: 90
Chanel 4 Note On - Duracao: 236040 Nota: C1 Vol.: 95
Chanel 5 Note Off - Duracao: 236040 Nota: C1 Vol.: 64
Chanel 5 Note On - Duracao: 236040 Nota: C1 Vol.: 59
Chanel 4 Note Off - Duracao: 236100 Nota: C1 Vol.: 95
Chanel 4 Note On - Duracao: 236100 Nota: C1 Vol.: 93
Chanel 9 Note Off - Duracao: 236160 Nota: C1 Vol.: 72
Chanel 9 Note On - Duracao: 236160 Nota: C1 Vol.: 60
Chanel 3 Note Off - Duracao: 236220 Nota: C1 Vol.: 40
Chanel 3 Note On - Duracao: 236220 Nota: C1 Vol.: 40
Chanel 4 Note Off - Duracao: 236220 Nota: C1 Vol.: 93
Chanel 4 Note On - Duracao: 236220 Nota: C1 Vol.: 92
Chanel 7 Note Off - Duracao: 236280 Nota: C1 Vol.: 65
Chanel 7 Note On - Duracao: 236280 Nota: C1 Vol.: 58
Chanel 1 Note Off - Duracao: 236340 Nota: C1 Vol.: 57
Chanel 1 Note On - Duracao: 236340 Nota: C1 Vol.: 40
Chanel 4 Note Off - Duracao: 236340 Nota: C1 Vol.: 92
Chanel 4 Note On - Duracao: 236340 Nota: C1 Vol.: 71
Chanel 5 Note Off - Duracao: 236520 Nota: C1 Vol.: 59
Chanel 5 Note On - Duracao: 236520 Nota: C1 Vol.: 69
Chanel 4 Note Off - Duracao: 236580 Nota: C1 Vol.: 71
Chanel 4 Note On - Duracao: 236580 Nota: C1 Vol.: 66
Chanel 5 Note Off - Duracao: 236640 Nota: C1 Vol.: 69
Chanel 5 Note On - Duracao: 236640 Nota: C1 Vol.: 64
Chanel 5 Note Off - Duracao: 236760 Nota: C1 Vol.: 64
Chanel 5 Note On - Duracao: 236760 Nota: C1 Vol.: 53
Chanel 4 Note Off - Duracao: 236820 Nota: C1 Vol.: 66
Chanel 4 Note On - Duracao: 236820 Nota: C1 Vol.: 62
Chanel 6 Note Off - Duracao: 236880 Nota: C1 Vol.: 63
Chanel 6 Note On - Duracao: 236880 Nota: C1 Vol.: 63
Chanel 2 Note Off - Duracao: 237000 Nota: C1 Vol.: 40
Chanel 2 Note On - Duracao: 237000 Nota: C1 Vol.: 40
Chanel 9 Note Off - Duracao: 237120 Nota: C1 Vol.: 60
Chanel 9 Note On - Duracao: 237120 Nota: C1 Vol.: 60
Chanel 5 Note Off - Duracao: 237240 Nota: C1 Vol.: 53
Chanel 5 Note On - Duracao: 237240 Nota: C1 Vol.: 48
Chanel 7 Note Off - Duracao: 237240 Nota: C1 Vol.: 58
Chanel 7 Note On - Duracao: 237240 Nota: C1 Vol.: 56
Chanel 1 Note Off - Duracao: 237300 Nota: C1 Vol.: 40
Chanel 1 Note On - Duracao: 237300 Nota: C1 Vol.: 56
Chanel 4 Note Off - Duracao: 237300 Nota: C1 Vol.: 62
Chanel 4 Note On - Duracao: 237300 Nota: C1 Vol.: 62
Chanel 1 Note Off - Duracao: 237420 Nota: C1 Vol.: 56
Chanel 1 Note On - Duracao: 237420 Nota: C1 Vol.: 45
Chanel 9 Note Off - Duracao: 237600 Nota: C1 Vol.: 60
Chanel 9 Note On - Duracao: 237600 Nota: C1 Vol.: 69
Chanel 1 Note Off - Duracao: 237660 Nota: C1 Vol.: 45
Chanel 1 Note On - Duracao: 237660 Nota: C1 Vol.: 41
Chanel 4 Note Off - Duracao: 237780 Nota: C1 Vol.: 62
Chanel 4 Note On - Duracao: 237780 Nota: C1 Vol.: 48
Chanel 9 Note Off - Duracao: 237840 Nota: C1 Vol.: 69
Chanel 9 Note On - Duracao: 237840 Nota: C1 Vol.: 65
Chanel 1 Note Off - Duracao: 237900 Nota: C1 Vol.: 41
Chanel 1 Note On - Duracao: 237900 Nota: C1 Vol.: 46
Chanel 8 Note Off - Duracao: 237900 Nota: C1 Vol.: 41
Chanel 8 Note On - Duracao: 237900 Nota: C1 Vol.: 41
Chanel 1 Note Off - Duracao: 238140 Nota: C1 Vol.: 46
Chanel 1 Note On - Duracao: 238140 Nota: C1 Vol.: 59
Chanel 3 Note Off - Duracao: 238140 Nota: C1 Vol.: 40
Chanel 3 Note On - Duracao: 238140 Nota: C1 Vol.: 60
Chanel 5 Note Off - Duracao: 238200 Nota: C1 Vol.: 48
Chanel 5 Note On - Duracao: 238200 Nota: C1 Vol.: 53
Chanel 7 Note Off - Duracao: 238200 Nota: C1 Vol.: 56
Chanel 7 Note On - Duracao: 238200 Nota: C1 Vol.: 50
Chanel 9 Note Off - Duracao: 238320 Nota: C1 Vol.: 65
Chanel 9 Note On - Duracao: 238320 Nota: C1 Vol.: 62
Chanel 1 Note Off - Duracao: 238380 Nota: C1 Vol.: 59
Chanel 1 Note On - Duracao: 238380 Nota: C1 Vol.: 46
Chanel 3 Note Off - Duracao: 238620 Nota: C1 Vol.: 60
Chanel 3 Note On - Duracao: 238620 Nota: C1 Vol.: 56
Chanel 5 Note Off - Duracao: 238680 Nota: C1 Vol.: 53
Chanel 5 Note On - Duracao: 238680 Nota: C1 Vol.: 61
Chanel 4 Note Off - Duracao: 238740 Nota: C1 Vol.: 48
Chanel 4 Note On - Duracao: 238740 Nota: C1 Vol.: 58
Chanel 9 Note Off - Duracao: 238800 Nota: C1 Vol.: 62
Chanel 9 Note On - Duracao: 238800 Nota: C1 Vol.: 63
Chanel 2 Note Off - Duracao: 238920 Nota: C1 Vol.: 40
Chanel 2 Note On - Duracao: 238920 Nota: C1 Vol.: 40
Chanel 5 Note Off - Duracao: 238920 Nota: C1 Vol.: 61
Chanel 5 Note On - Duracao: 238920 Nota: C1 Vol.: 53
Chanel 4 Note Off - Duracao: 239220 Nota: C1 Vol.: 58
Chanel 4 Note On - Duracao: 239220 Nota: C1 Vol.: 46
Chanel 9 Note Off - Duracao: 239280 Nota: C1 Vol.: 63
Chanel 9 Note On - Duracao: 239280 Nota: C1 Vol.: 56
Chanel 1 Note Off - Duracao: 239340 Nota: C1 Vol.: 46
Chanel 1 Note On - Duracao: 239340 Nota: C1 Vol.: 56
Chanel 5 Note Off - Duracao: 239400 Nota: C1 Vol.: 53
Chanel 5 Note On - Duracao: 239400 Nota: C1 Vol.: 50
Chanel 3 Note Off - Duracao: 239580 Nota: C1 Vol.: 56
Chanel 3 Note On - Duracao: 239580 Nota: C1 Vol.: 61
Chanel 8 Note Off - Duracao: 239820 Nota: C1 Vol.: 41
Chanel 8 Note On - Duracao: 239820 Nota: C1 Vol.: 43
Chanel 5 Note Off - Duracao: 239880 Nota: C1 Vol.: 50
Chanel 5 Note On - Duracao: 239880 Nota: C1 Vol.: 55
Chanel 3 Note Off - Duracao: 240060 Nota: C1 Vol.: 61
Chanel 3 Note On - Duracao: 240060 Nota: C1 Vol.: 68
Chanel 5 Note Off - Duracao: 240120 Nota: C1 Vol.: 55
Chanel 5 Note On - Duracao: 240120 Nota: C1 Vol.: 52
Chanel 7 Note Off - Duracao: 240120 Nota: C1 Vol.: 50
Chanel 7 Note On - Duracao: 240120 Nota: C1 Vol.: 62
Chanel 4 Note Off - Duracao: 240180 Nota: C1 Vol.: 46
Chanel 4 Note On - Duracao: 240180 Nota: C1 Vol.: 44
Chanel 9 Note Off - Duracao: 240240 Nota: C1 Vol.: 56
Chanel 9 Note On - Duracao: 240240 Nota: C1 Vol.: 48
Chanel 3 Note Off - Duracao: 240540 Nota: C1 Vol.: 68
Chanel 3 Note On - Duracao: 240540 Nota: C1 Vol.: 67
Chanel 5 Note Off - Duracao: 240600 Nota: C1 Vol.: 52
Chanel 5 Note On - Duracao: 240600 Nota: C1 Vol.: 52
Chanel 6 Note Off - Duracao: 240720 Nota: C1 Vol.: 63
Chanel 6 Note On - Duracao: 240720 Nota: C1 Vol.: 63
Chanel 2 Note Off - Duracao: 240840 Nota: C1 Vol.: 40
Chanel 2 Note On - Duracao: 240840 Nota: C1 Vol.: 40
Chanel 3 Note Off - Duracao: 241020 Nota: C1 Vol.: 67
Chanel 3 Note On - Duracao: 241020 Nota: C1 Vol.: 58
Chanel 5 Note Off - Duracao: 241080 Nota: C1 Vol.: 52
Chanel 5 Note On - Duracao: 241080 Nota: C1 Vol.: 46
Chanel 7 Note Off - Duracao: 241080 Nota: C1 Vol.: 62
Chanel 7 Note On - Duracao: 241080 Nota: C1 Vol.: 70
Chanel 1 Note Off - Duracao: 241260 Nota: C1 Vol.: 56
Chanel 1 Note On - Duracao: 241260 Nota: C1 Vol.: 59
Chanel 5 Note Off - Duracao: 241560 Nota: C1 Vol.: 46
Chanel 5 Note On - Duracao: 241560 Nota: C1 Vol.: 60
Chanel 7 Note Off - Duracao: 241560 Nota: C1 Vol.: 70
Chanel 7 Note On - Duracao: 241560 Nota: C1 Vol.: 74
Chanel 8 Note Off - Duracao: 241740 Nota: C1 Vol.: 43
Chanel 8 Note On - Duracao: 241740 Nota: C1 Vol.: 43
Chanel 5 Note Off - Duracao: 241800 Nota: C1 Vol.: 60
Chanel 5 Note On - Duracao: 241800 Nota: C1 Vol.: 64
Chanel 3 Note Off - Duracao: 241980 Nota: C1 Vol.: 58
Chanel 3 Note On - Duracao: 241980 Nota: C1 Vol.: 58
Chanel 5 Note Off - Duracao: 242040 Nota: C1 Vol.: 64
Chanel 5 Note On - Duracao: 242040 Nota: C1 Vol.: 60
Chanel 7 Note Off - Duracao: 242040 Nota: C1 Vol.: 74
Chanel 7 Note On - Duracao: 242040 Nota: C1 Vol.: 67
Chanel 4 Note Off - Duracao: 242100 Nota: C1 Vol.: 44
Chanel 4 Note On - Duracao: 242100 Nota: C1 Vol.: 41
Chanel 9 Note Off - Duracao: 242160 Nota: C1 Vol.: 48
Chanel 9 Note On - Duracao: 242160 Nota: C1 Vol.: 55
Chanel 5 Note Off - Duracao: 242280 Nota: C1 Vol.: 60
Chanel 5 Note On - Duracao: 242280 Nota: C1 Vol.: 68
Chanel 5 Note Off - Duracao: 242520 Nota: C1 Vol.: 68
Chanel 5 Note On - Duracao: 242520 Nota: C1 Vol.: 50
Chanel 7 Note Off - Duracao: 242520 Nota: C1 Vol.: 67
Chanel 7 Note On - Duracao: 242520 Nota: C1 Vol.: 58
Chanel 2 Note Off - Duracao: 242760 Nota: C1 Vol.: 40
Chanel 2 Note On - Duracao: 242760 Nota: C1 Vol.: 40
Chanel 9 Note Off - Duracao: 243120 Nota: C1 Vol.: 55
Chanel 9 Note On - Duracao: 243120 Nota: C1 Vol.: 55
Chanel 1 Note Off - Duracao: 243180 Nota: C1 Vol.: 59
Chanel 1 Note On - Duracao: 243180 Nota: C1 Vol.: 66
Chanel 5 Note Off - Duracao: 243480 Nota: C1 Vol.: 50
Chanel 5 Note On - Duracao: 243480 Nota: C1 Vol.: 47
Chanel 7 Note Off - Duracao: 243480 Nota: C1 Vol.: 58
Chanel 7 Note On - Duracao: 243480 Nota: C1 Vol.: 69
Chanel 8 Note Off - Duracao: 243660 Nota: C1 Vol.: 43
Chanel 8 Note On - Duracao: 243660 Nota: C1 Vol.: 45
Chanel 3 Note Off - Duracao: 243900 Nota: C1 Vol.: 58
Chanel 3 Note On - Duracao: 243900 Nota: C1 Vol.: 62
Chanel 7 Note Off - Duracao: 243960 Nota: C1 Vol.: 69
Chanel 7 Note On - Duracao: 243960 Nota: C1 Vol.: 66
Chanel 4 Note Off - Duracao: 244020 Nota: C1 Vol.: 41
Chanel 4 Note On - Duracao: 244020 Nota: C1 Vol.: 45
Chanel 9 Note Off - Duracao: 244080 Nota: C1 Vol.: 55
Chanel 9 Note On - Duracao: 244080 Nota: C1 Vol.: 56
Chanel 1 Note Off - Duracao: 244140 Nota: C1 Vol.: 66
Chanel 1 Note On - Duracao: 244140 Nota: C1 Vol.: 86
Chanel 5 Note Off - Duracao: 244440 Nota: C1 Vol.: 47
Chanel 5 Note On - Duracao: 244440 Nota: C1 Vol.: 46
Chanel 7 Note Off - Duracao: 244440 Nota: C1 Vol.: 66
Chanel 7 Note On - Duracao: 244440 Nota: C1 Vol.: 69
Chanel 6 Note Off - Duracao: 244560 Nota: C1 Vol.: 63
Chanel 6 Note On - Duracao: 244560 Nota: C1 Vol.: 68
Chanel 9 Note Off - Duracao: 244560 Nota: C1 Vol.: 56
Chanel 9 Note On - Duracao: 244560 Nota: C1 Vol.: 60
Chanel 1 Note Off - Duracao: 244620 Nota: C1 Vol.: 86
Chanel 1 Note On - Duracao: 244620 Nota: C1 Vol.: 71
Chanel 2 Note Off - Duracao: 244680 Nota: C1 Vol.: 40
Chanel 2 Note On - Duracao: 244680 Nota: C1 Vol.: 40
Chanel 7 Note Off - Duracao: 244680 Nota: C1 Vol.: 69
Chanel 7 Note On - Duracao: 244680 Nota: C1 Vol.: 66
Chanel 7 Note Off - Duracao: 244920 Nota: C1 Vol.: 66
Chanel 7 Note On - Duracao: 244920 Nota: C1 Vol.: 63
Chanel 4 Note Off - Duracao: 244980 Nota: C1 Vol.: 45
Chanel 4 Note On - Duracao: 244980 Nota: C1 Vol.: 47
Chanel 9 Note Off - Duracao: 245040 Nota: C1 Vol.: 60
Chanel 9 Note On - Duracao: 245040 Nota: C1 Vol.: 58
Chanel 7 Note Off - Duracao: 245160 Nota: C1 Vol.: 63
Chanel 7 Note On - Duracao: 245160 Nota: C1 Vol.: 56
Chanel 5 Note Off - Duracao: 245400 Nota: C1 Vol.: 46
Chanel 5 Note On - Duracao: 245400 Nota: C1 Vol.: 54
Chanel 7 Note Off - Duracao: 245400 Nota: C1 Vol.: 56
Chanel 7 Note On - Duracao: 245400 Nota: C1 Vol.: 62
Chanel 7 Note Off - Duracao: 245520 Nota: C1 Vol.: 62
Chanel 7 Note On - Duracao: 245520 Nota: C1 Vol.: 65
Chanel 9 Note Off - Duracao: 245520 Nota: C1 Vol.: 58
Chanel 9 Note On - Duracao: 245520 Nota: C1 Vol.: 57
Chanel 1 Note Off - Duracao: 245580 Nota: C1 Vol.: 71
Chanel 1 Note On - Duracao: 245580 Nota: C1 Vol.: 75
Chanel 8 Note Off - Duracao: 245580 Nota: C1 Vol.: 45
Chanel 8 Note On - Duracao: 245580 Nota: C1 Vol.: 42
Chanel 7 Note Off - Duracao: 245640 Nota: C1 Vol.: 65
Chanel 7 Note On - Duracao: 245640 Nota: C1 Vol.: 64
Chanel 3 Note Off - Duracao: 245820 Nota: C1 Vol.: 62
Chanel 3 Note On - Duracao: 245820 Nota: C1 Vol.: 67
Chanel 5 Note Off - Duracao: 245880 Nota: C1 Vol.: 54
Chanel 5 Note On - Duracao: 245880 Nota: C1 Vol.: 59
Chanel 7 Note Off - Duracao: 245880 Nota: C1 Vol.: 64
Chanel 7 Note On - Duracao: 245880 Nota: C1 Vol.: 62
Chanel 4 Note Off - Duracao: 245940 Nota: C1 Vol.: 47
Chanel 4 Note On - Duracao: 245940 Nota: C1 Vol.: 63
Chanel 9 Note Off - Duracao: 246000 Nota: C1 Vol.: 57
Chanel 9 Note On - Duracao: 246000 Nota: C1 Vol.: 56
Chanel 5 Note Off - Duracao: 246120 Nota: C1 Vol.: 59
Chanel 5 Note On - Duracao: 246120 Nota: C1 Vol.: 53
Chanel 7 Note Off - Duracao: 246120 Nota: C1 Vol.: 62
Chanel 7 Note On - Duracao: 246120 Nota: C1 Vol.: 56
Chanel 4 Note Off - Duracao: 246420 Nota: C1 Vol.: 63
Chanel 4 Note On - Duracao: 246420 Nota: C1 Vol.: 71
Chanel 9 Note Off - Duracao: 246480 Nota: C1 Vol.: 56
Chanel 9 Note On - Duracao: 246480 Nota: C1 Vol.: 56
Chanel 1 Note Off - Duracao: 246540 Nota: C1 Vol.: 75
Chanel 1 Note On - Duracao: 246540 Nota: C1 Vol.: 63
Chanel 2 Note Off - Duracao: 246600 Nota: C1 Vol.: 40
Chanel 2 Note On - Duracao: 246600 Nota: C1 Vol.: 40
Chanel 5 Note Off - Duracao: 246600 Nota: C1 Vol.: 53
Chanel 5 Note On - Duracao: 246600 Nota: C1 Vol.: 57
Chanel 7 Note Off - Duracao: 246600 Nota: C1 Vol.: 56
Chanel 7 Note On - Duracao: 246600 Nota: C1 Vol.: 62
Chanel 4 Note Off - Duracao: 246660 Nota: C1 Vol.: 71
Chanel 4 Note On - Duracao: 246660 Nota: C1 Vol.: 63
Chanel 3 Note Off - Duracao: 246780 Nota: C1 Vol.: 67
Chanel 3 Note On - Duracao: 246780 Nota: C1 Vol.: 72
Chanel 7 Note Off - Duracao: 246840 Nota: C1 Vol.: 62
Chanel 7 Note On - Duracao: 246840 Nota: C1 Vol.: 53
Chanel 5 Note Off - Duracao: 247080 Nota: C1 Vol.: 57
Chanel 5 Note On - Duracao: 247080 Nota: C1 Vol.: 61
Chanel 7 Note Off - Duracao: 247080 Nota: C1 Vol.: 53
Chanel 7 Note On - Duracao: 247080 Nota: C1 Vol.: 56
Chanel 4 Note Off - Duracao: 247140 Nota: C1 Vol.: 63
Chanel 4 Note On - Duracao: 247140 Nota: C1 Vol.: 61
Chanel 5 Note Off - Duracao: 247320 Nota: C1 Vol.: 61
Chanel 5 Note On - Duracao: 247320 Nota: C1 Vol.: 54
Chanel 7 Note Off - Duracao: 247320 Nota: C1 Vol.: 56
Chanel 7 Note On - Duracao: 247320 Nota: C1 Vol.: 60
Chanel 9 Note Off - Duracao: 247440 Nota: C1 Vol.: 56
Chanel 9 Note On - Duracao: 247440 Nota: C1 Vol.: 58
Chanel 8 Note Off - Duracao: 247500 Nota: C1 Vol.: 42
Chanel 8 Note On - Duracao: 247500 Nota: C1 Vol.: 42
Chanel 7 Note Off - Duracao: 247560 Nota: C1 Vol.: 60
Chanel 7 Note On - Duracao: 247560 Nota: C1 Vol.: 56
Chanel 4 Note Off - Duracao: 247620 Nota: C1 Vol.: 61
Chanel 4 Note On - Duracao: 247620 Nota: C1 Vol.: 66
Chanel 3 Note Off - Duracao: 247740 Nota: C1 Vol.: 72
Chanel 3 Note On - Duracao: 247740 Nota: C1 Vol.: 74
Chanel 7 Note Off - Duracao: 247800 Nota: C1 Vol.: 56
Chanel 7 Note On - Duracao: 247800 Nota: C1 Vol.: 63
Chanel 4 Note Off - Duracao: 247860 Nota: C1 Vol.: 66
Chanel 4 Note On - Duracao: 247860 Nota: C1 Vol.: 65
Chanel 9 Note Off - Duracao: 247920 Nota: C1 Vol.: 58
Chanel 9 Note On - Duracao: 247920 Nota: C1 Vol.: 57
Chanel 7 Note Off - Duracao: 248040 Nota: C1 Vol.: 63
Chanel 7 Note On - Duracao: 248040 Nota: C1 Vol.: 53
Chanel 4 Note Off - Duracao: 248100 Nota: C1 Vol.: 65
Chanel 4 Note On - Duracao: 248100 Nota: C1 Vol.: 48
Chanel 5 Note Off - Duracao: 248280 Nota: C1 Vol.: 54
Chanel 5 Note On - Duracao: 248280 Nota: C1 Vol.: 59
Chanel 6 Note Off - Duracao: 248400 Nota: C1 Vol.: 68
Chanel 6 Note On - Duracao: 248400 Nota: C1 Vol.: 72
Chanel 9 Note Off - Duracao: 248400 Nota: C1 Vol.: 57
Chanel 9 Note On - Duracao: 248400 Nota: C1 Vol.: 57
Chanel 1 Note Off - Duracao: 248460 Nota: C1 Vol.: 63
Chanel 1 Note On - Duracao: 248460 Nota: C1 Vol.: 92
Chanel 2 Note Off - Duracao: 248520 Nota: C1 Vol.: 40
Chanel 2 Note On - Duracao: 248520 Nota: C1 Vol.: 56
Chanel 7 Note Off - Duracao: 248520 Nota: C1 Vol.: 53
Chanel 7 Note On - Duracao: 248520 Nota: C1 Vol.: 44
Chanel 1 Note Off - Duracao: 248580 Nota: C1 Vol.: 92
Chanel 1 Note On - Duracao: 248580 Nota: C1 Vol.: 79
Chanel 2 Note Off - Duracao: 248640 Nota: C1 Vol.: 56
Chanel 2 Note On - Duracao: 248640 Nota: C1 Vol.: 50
Chanel 3 Note Off - Duracao: 248700 Nota: C1 Vol.: 74
Chanel 3 Note On - Duracao: 248700 Nota: C1 Vol.: 74
Chanel 2 Note Off - Duracao: 248760 Nota: C1 Vol.: 50
Chanel 2 Note On - Duracao: 248760 Nota: C1 Vol.: 43
Chanel 2 Note Off - Duracao: 248880 Nota: C1 Vol.: 43
Chanel 2 Note On - Duracao: 248880 Nota: C1 Vol.: 43
Chanel 9 Note Off - Duracao: 248880 Nota: C1 Vol.: 57
Chanel 9 Note On - Duracao: 248880 Nota: C1 Vol.: 60
Chanel 2 Note Off - Duracao: 249000 Nota: C1 Vol.: 43
Chanel 2 Note On - Duracao: 249000 Nota: C1 Vol.: 43
Chanel 1 Note Off - Duracao: 249060 Nota: C1 Vol.: 79
Chanel 1 Note On - Duracao: 249060 Nota: C1 Vol.: 64
Chanel 4 Note Off - Duracao: 249060 Nota: C1 Vol.: 48
Chanel 4 Note On - Duracao: 249060 Nota: C1 Vol.: 40
Chanel 2 Note Off - Duracao: 249120 Nota: C1 Vol.: 43
Chanel 2 Note On - Duracao: 249120 Nota: C1 Vol.: 44
Chanel 9 Note Off - Duracao: 249120 Nota: C1 Vol.: 60
Chanel 9 Note On - Duracao: 249120 Nota: C1 Vol.: 64
Chanel 2 Note Off - Duracao: 249240 Nota: C1 Vol.: 44
Chanel 2 Note On - Duracao: 249240 Nota: C1 Vol.: 47
Chanel 5 Note Off - Duracao: 249240 Nota: C1 Vol.: 59
Chanel 5 Note On - Duracao: 249240 Nota: C1 Vol.: 88
Chanel 2 Note Off - Duracao: 249360 Nota: C1 Vol.: 47
Chanel 2 Note On - Duracao: 249360 Nota: C1 Vol.: 54
Chanel 5 Note Off - Duracao: 249360 Nota: C1 Vol.: 88
Chanel 5 Note On - Duracao: 249360 Nota: C1 Vol.: 51
Chanel 9 Note Off - Duracao: 249360 Nota: C1 Vol.: 64
Chanel 9 Note On - Duracao: 249360 Nota: C1 Vol.: 66
Chanel 8 Note Off - Duracao: 249420 Nota: C1 Vol.: 42
Chanel 8 Note On - Duracao: 249420 Nota: C1 Vol.: 42
Chanel 2 Note Off - Duracao: 249480 Nota: C1 Vol.: 54
Chanel 2 Note On - Duracao: 249480 Nota: C1 Vol.: 40
Chanel 7 Note Off - Duracao: 249480 Nota: C1 Vol.: 44
Chanel 7 Note On - Duracao: 249480 Nota: C1 Vol.: 45
Chanel 9 Note Off - Duracao: 249600 Nota: C1 Vol.: 66
Chanel 9 Note On - Duracao: 249600 Nota: C1 Vol.: 68
Chanel 3 Note Off - Duracao: 249660 Nota: C1 Vol.: 74
Chanel 3 Note On - Duracao: 249660 Nota: C1 Vol.: 79
Chanel 9 Note Off - Duracao: 249840 Nota: C1 Vol.: 68
Chanel 9 Note On - Duracao: 249840 Nota: C1 Vol.: 78
Chanel 9 Note Off - Duracao: 249960 Nota: C1 Vol.: 78
Chanel 9 Note On - Duracao: 249960 Nota: C1 Vol.: 78
Chanel 1 Note Off - Duracao: 250020 Nota: C1 Vol.: 64
Chanel 1 Note On - Duracao: 250020 Nota: C1 Vol.: 68
Chanel 3 Note Off - Duracao: 250140 Nota: C1 Vol.: 79
Chanel 3 Note On - Duracao: 250140 Nota: C1 Vol.: 77
Chanel 9 Note Off - Duracao: 250200 Nota: C1 Vol.: 78
Chanel 9 Note On - Duracao: 250200 Nota: C1 Vol.: 76
Chanel 6 Note Off - Duracao: 250320 Nota: C1 Vol.: 72
Chanel 6 Note On - Duracao: 250320 Nota: C1 Vol.: 72
Chanel 2 Note Off - Duracao: 250440 Nota: C1 Vol.: 40
Chanel 2 Note On - Duracao: 250440 Nota: C1 Vol.: 46
Chanel 7 Note Off - Duracao: 250440 Nota: C1 Vol.: 45
Chanel 7 Note On - Duracao: 250440 Nota: C1 Vol.: 47
Chanel 9 Note Off - Duracao: 250440 Nota: C1 Vol.: 76
Chanel 9 Note On - Duracao: 250440 Nota: C1 Vol.: 78
Chanel 3 Note Off - Duracao: 250620 Nota: C1 Vol.: 77
Chanel 3 Note On - Duracao: 250620 Nota: C1 Vol.: 66
Chanel 9 Note Off - Duracao: 250680 Nota: C1 Vol.: 78
Chanel 9 Note On - Duracao: 250680 Nota: C1 Vol.: 79
Chanel 7 Note Off - Duracao: 250920 Nota: C1 Vol.: 47
Chanel 7 Note On - Duracao: 250920 Nota: C1 Vol.: 42
Chanel 9 Note Off - Duracao: 250920 Nota: C1 Vol.: 79
Chanel 9 Note On - Duracao: 250920 Nota: C1 Vol.: 84
Chanel 1 Note Off - Duracao: 250980 Nota: C1 Vol.: 68
Chanel 1 Note On - Duracao: 250980 Nota: C1 Vol.: 58
Chanel 4 Note Off - Duracao: 250980 Nota: C1 Vol.: 40
Chanel 4 Note On - Duracao: 250980 Nota: C1 Vol.: 61
Chanel 9 Note Off - Duracao: 251040 Nota: C1 Vol.: 84
Chanel 9 Note On - Duracao: 251040 Nota: C1 Vol.: 93
Chanel 9 Note Off - Duracao: 251100 Nota: C1 Vol.: 93
Chanel 9 Note On - Duracao: 251100 Nota: C1 Vol.: 89
Chanel 4 Note Off - Duracao: 251220 Nota: C1 Vol.: 61
Chanel 4 Note On - Duracao: 251220 Nota: C1 Vol.: 59
Chanel 9 Note Off - Duracao: 251220 Nota: C1 Vol.: 89
Chanel 9 Note On - Duracao: 251220 Nota: C1 Vol.: 89
Chanel 5 Note Off - Duracao: 251280 Nota: C1 Vol.: 51
Chanel 5 Note On - Duracao: 251280 Nota: C1 Vol.: 66
Chanel 8 Note Off - Duracao: 251340 Nota: C1 Vol.: 42
Chanel 8 Note On - Duracao: 251340 Nota: C1 Vol.: 40
Chanel 9 Note Off - Duracao: 251340 Nota: C1 Vol.: 89
Chanel 9 Note On - Duracao: 251340 Nota: C1 Vol.: 91
Chanel 2 Note Off - Duracao: 251400 Nota: C1 Vol.: 46
Chanel 2 Note On - Duracao: 251400 Nota: C1 Vol.: 59
Chanel 4 Note Off - Duracao: 251460 Nota: C1 Vol.: 59
Chanel 4 Note On - Duracao: 251460 Nota: C1 Vol.: 57
Chanel 9 Note Off - Duracao: 251460 Nota: C1 Vol.: 91
Chanel 9 Note On - Duracao: 251460 Nota: C1 Vol.: 92
Chanel 3 Note Off - Duracao: 251580 Nota: C1 Vol.: 66
Chanel 3 Note On - Duracao: 251580 Nota: C1 Vol.: 58
Chanel 9 Note Off - Duracao: 251580 Nota: C1 Vol.: 92
Chanel 9 Note On - Duracao: 251580 Nota: C1 Vol.: 85
Chanel 4 Note Off - Duracao: 251700 Nota: C1 Vol.: 57
Chanel 4 Note On - Duracao: 251700 Nota: C1 Vol.: 58
Chanel 9 Note Off - Duracao: 251700 Nota: C1 Vol.: 85
Chanel 9 Note On - Duracao: 251700 Nota: C1 Vol.: 59
Chanel 2 Note Off - Duracao: 251880 Nota: C1 Vol.: 59
Chanel 2 Note On - Duracao: 251880 Nota: C1 Vol.: 62
Chanel 7 Note Off - Duracao: 251880 Nota: C1 Vol.: 42
Chanel 7 Note On - Duracao: 251880 Nota: C1 Vol.: 59
Chanel 1 Note Off - Duracao: 251940 Nota: C1 Vol.: 58
Chanel 1 Note On - Duracao: 251940 Nota: C1 Vol.: 40
Chanel 4 Note Off - Duracao: 251940 Nota: C1 Vol.: 58
Chanel 4 Note On - Duracao: 251940 Nota: C1 Vol.: 59
Chanel 7 Note Off - Duracao: 252120 Nota: C1 Vol.: 59
Chanel 7 Note On - Duracao: 252120 Nota: C1 Vol.: 52
Chanel 5 Note Off - Duracao: 252240 Nota: C1 Vol.: 66
Chanel 5 Note On - Duracao: 252240 Nota: C1 Vol.: 79
Chanel 6 Note Off - Duracao: 252240 Nota: C1 Vol.: 72
Chanel 6 Note On - Duracao: 252240 Nota: C1 Vol.: 71
Chanel 2 Note Off - Duracao: 252360 Nota: C1 Vol.: 62
Chanel 2 Note On - Duracao: 252360 Nota: C1 Vol.: 66
Chanel 4 Note Off - Duracao: 252420 Nota: C1 Vol.: 59
Chanel 4 Note On - Duracao: 252420 Nota: C1 Vol.: 61
Chanel 5 Note Off - Duracao: 252480 Nota: C1 Vol.: 79
Chanel 5 Note On - Duracao: 252480 Nota: C1 Vol.: 90
Chanel 3 Note Off - Duracao: 252540 Nota: C1 Vol.: 58
Chanel 3 Note On - Duracao: 252540 Nota: C1 Vol.: 73
Chanel 5 Note Off - Duracao: 252600 Nota: C1 Vol.: 90
Chanel 5 Note On - Duracao: 252600 Nota: C1 Vol.: 96
Chanel 7 Note Off - Duracao: 252600 Nota: C1 Vol.: 52
Chanel 7 Note On - Duracao: 252600 Nota: C1 Vol.: 51
Chanel 4 Note Off - Duracao: 252660 Nota: C1 Vol.: 61
Chanel 4 Note On - Duracao: 252660 Nota: C1 Vol.: 54
Chanel 9 Note Off - Duracao: 252660 Nota: C1 Vol.: 59
Chanel 9 Note On - Duracao: 252660 Nota: C1 Vol.: 55
Chanel 5 Note Off - Duracao: 252720 Nota: C1 Vol.: 96
Chanel 5 Note On - Duracao: 252720 Nota: C1 Vol.: 62
Chanel 2 Note Off - Duracao: 252840 Nota: C1 Vol.: 66
Chanel 2 Note On - Duracao: 252840 Nota: C1 Vol.: 63
Chanel 1 Note Off - Duracao: 252900 Nota: C1 Vol.: 40
Chanel 1 Note On - Duracao: 252900 Nota: C1 Vol.: 53
Chanel 1 Note Off - Duracao: 253020 Nota: C1 Vol.: 53
Chanel 1 Note On - Duracao: 253020 Nota: C1 Vol.: 46
Chanel 3 Note Off - Duracao: 253020 Nota: C1 Vol.: 73
Chanel 3 Note On - Duracao: 253020 Nota: C1 Vol.: 95
Chanel 7 Note Off - Duracao: 253080 Nota: C1 Vol.: 51
Chanel 7 Note On - Duracao: 253080 Nota: C1 Vol.: 54
Chanel 1 Note Off - Duracao: 253140 Nota: C1 Vol.: 46
Chanel 1 Note On - Duracao: 253140 Nota: C1 Vol.: 41
Chanel 3 Note Off - Duracao: 253140 Nota: C1 Vol.: 95
Chanel 3 Note On - Duracao: 253140 Nota: C1 Vol.: 100
Chanel 4 Note Off - Duracao: 253140 Nota: C1 Vol.: 54
Chanel 4 Note On - Duracao: 253140 Nota: C1 Vol.: 54
Chanel 3 Note Off - Duracao: 253200 Nota: C1 Vol.: 100
Chanel 3 Note On - Duracao: 253200 Nota: C1 Vol.: 96
Chanel 1 Note Off - Duracao: 253260 Nota: C1 Vol.: 41
Chanel 1 Note On - Duracao: 253260 Nota: C1 Vol.: 43
Chanel 3 Note Off - Duracao: 253260 Nota: C1 Vol.: 96
Chanel 3 Note On - Duracao: 253260 Nota: C1 Vol.: 97
Chanel 8 Note Off - Duracao: 253260 Nota: C1 Vol.: 40
Chanel 8 Note On - Duracao: 253260 Nota: C1 Vol.: 62
Chanel 3 Note Off - Duracao: 253320 Nota: C1 Vol.: 97
Chanel 3 Note On - Duracao: 253320 Nota: C1 Vol.: 95
Chanel 1 Note Off - Duracao: 253380 Nota: C1 Vol.: 43
Chanel 1 Note On - Duracao: 253380 Nota: C1 Vol.: 44
Chanel 3 Note Off - Duracao: 253380 Nota: C1 Vol.: 95
Chanel 3 Note On - Duracao: 253380 Nota: C1 Vol.: 96
Chanel 3 Note Off - Duracao: 253440 Nota: C1 Vol.: 96
Chanel 3 Note On - Duracao: 253440 Nota: C1 Vol.: 96
Chanel 1 Note Off - Duracao: 253500 Nota: C1 Vol.: 44
Chanel 1 Note On - Duracao: 253500 Nota: C1 Vol.: 42
Chanel 3 Note Off - Duracao: 253500 Nota: C1 Vol.: 96
Chanel 3 Note On - Duracao: 253500 Nota: C1 Vol.: 72
Chanel 8 Note Off - Duracao: 253500 Nota: C1 Vol.: 62
Chanel 8 Note On - Duracao: 253500 Nota: C1 Vol.: 46
Chanel 7 Note Off - Duracao: 253560 Nota: C1 Vol.: 54
Chanel 7 Note On - Duracao: 253560 Nota: C1 Vol.: 42
Chanel 1 Note Off - Duracao: 253620 Nota: C1 Vol.: 42
Chanel 1 Note On - Duracao: 253620 Nota: C1 Vol.: 49
Chanel 4 Note Off - Duracao: 253620 Nota: C1 Vol.: 54
Chanel 4 Note On - Duracao: 253620 Nota: C1 Vol.: 40
Chanel 9 Note Off - Duracao: 253620 Nota: C1 Vol.: 55
Chanel 9 Note On - Duracao: 253620 Nota: C1 Vol.: 58
Chanel 5 Note Off - Duracao: 253680 Nota: C1 Vol.: 62
Chanel 5 Note On - Duracao: 253680 Nota: C1 Vol.: 60
Chanel 1 Note Off - Duracao: 253740 Nota: C1 Vol.: 49
Chanel 1 Note On - Duracao: 253740 Nota: C1 Vol.: 55
Chanel 3 Note Off - Duracao: 253740 Nota: C1 Vol.: 72
Chanel 3 Note On - Duracao: 253740 Nota: C1 Vol.: 61
Chanel 2 Note Off - Duracao: 253800 Nota: C1 Vol.: 63
Chanel 2 Note On - Duracao: 253800 Nota: C1 Vol.: 69
Chanel 1 Note Off - Duracao: 253860 Nota: C1 Vol.: 55
Chanel 1 Note On - Duracao: 253860 Nota: C1 Vol.: 40
Chanel 8 Note Off - Duracao: 253980 Nota: C1 Vol.: 46
Chanel 8 Note On - Duracao: 253980 Nota: C1 Vol.: 56
Chanel 6 Note Off - Duracao: 254160 Nota: C1 Vol.: 71
Chanel 6 Note On - Duracao: 254160 Nota: C1 Vol.: 72
Chanel 3 Note Off - Duracao: 254220 Nota: C1 Vol.: 61
Chanel 3 Note On - Duracao: 254220 Nota: C1 Vol.: 79
Chanel 8 Note Off - Duracao: 254220 Nota: C1 Vol.: 56
Chanel 8 Note On - Duracao: 254220 Nota: C1 Vol.: 60
Chanel 3 Note Off - Duracao: 254340 Nota: C1 Vol.: 79
Chanel 3 Note On - Duracao: 254340 Nota: C1 Vol.: 71
Chanel 8 Note Off - Duracao: 254340 Nota: C1 Vol.: 60
Chanel 8 Note On - Duracao: 254340 Nota: C1 Vol.: 50
Chanel 7 Note Off - Duracao: 254520 Nota: C1 Vol.: 42
Chanel 7 Note On - Duracao: 254520 Nota: C1 Vol.: 46
Chanel 3 Note Off - Duracao: 254580 Nota: C1 Vol.: 71
Chanel 3 Note On - Duracao: 254580 Nota: C1 Vol.: 73
Chanel 8 Note Off - Duracao: 254580 Nota: C1 Vol.: 50
Chanel 8 Note On - Duracao: 254580 Nota: C1 Vol.: 53
Chanel 9 Note Off - Duracao: 254580 Nota: C1 Vol.: 58
Chanel 9 Note On - Duracao: 254580 Nota: C1 Vol.: 48
Chanel 3 Note Off - Duracao: 254700 Nota: C1 Vol.: 73
Chanel 3 Note On - Duracao: 254700 Nota: C1 Vol.: 68
Chanel 2 Note Off - Duracao: 254760 Nota: C1 Vol.: 69
Chanel 2 Note On - Duracao: 254760 Nota: C1 Vol.: 78
Chanel 1 Note Off - Duracao: 254820 Nota: C1 Vol.: 40
Chanel 1 Note On - Duracao: 254820 Nota: C1 Vol.: 54
Chanel 8 Note Off - Duracao: 254820 Nota: C1 Vol.: 53
Chanel 8 Note On - Duracao: 254820 Nota: C1 Vol.: 65
Chanel 3 Note Off - Duracao: 254940 Nota: C1 Vol.: 68
Chanel 3 Note On - Duracao: 254940 Nota: C1 Vol.: 44
Chanel 8 Note Off - Duracao: 254940 Nota: C1 Vol.: 65
Chanel 8 Note On - Duracao: 254940 Nota: C1 Vol.: 65
Chanel 8 Note Off - Duracao: 255060 Nota: C1 Vol.: 65
Chanel 8 Note On - Duracao: 255060 Nota: C1 Vol.: 65
Chanel 8 Note Off - Duracao: 255180 Nota: C1 Vol.: 65
Chanel 8 Note On - Duracao: 255180 Nota: C1 Vol.: 65
Chanel 2 Note Off - Duracao: 255240 Nota: C1 Vol.: 78
Chanel 2 Note On - Duracao: 255240 Nota: C1 Vol.: 76
Chanel 8 Note Off - Duracao: 255420 Nota: C1 Vol.: 65
Chanel 8 Note On - Duracao: 255420 Nota: C1 Vol.: 62
Chanel 7 Note Off - Duracao: 255480 Nota: C1 Vol.: 46
Chanel 7 Note On - Duracao: 255480 Nota: C1 Vol.: 45
Chanel 4 Note Off - Duracao: 255540 Nota: C1 Vol.: 40
Chanel 4 Note On - Duracao: 255540 Nota: C1 Vol.: 61
Chanel 9 Note Off - Duracao: 255540 Nota: C1 Vol.: 48
Chanel 9 Note On - Duracao: 255540 Nota: C1 Vol.: 48
Chanel 5 Note Off - Duracao: 255600 Nota: C1 Vol.: 60
Chanel 5 Note On - Duracao: 255600 Nota: C1 Vol.: 48
Chanel 8 Note Off - Duracao: 255660 Nota: C1 Vol.: 62
Chanel 8 Note On - Duracao: 255660 Nota: C1 Vol.: 61
Chanel 1 Note Off - Duracao: 255780 Nota: C1 Vol.: 54
Chanel 1 Note On - Duracao: 255780 Nota: C1 Vol.: 78
Chanel 4 Note Off - Duracao: 255780 Nota: C1 Vol.: 61
Chanel 4 Note On - Duracao: 255780 Nota: C1 Vol.: 61
Chanel 8 Note Off - Duracao: 255900 Nota: C1 Vol.: 61
Chanel 8 Note On - Duracao: 255900 Nota: C1 Vol.: 63
Chanel 1 Note Off - Duracao: 256020 Nota: C1 Vol.: 78
Chanel 1 Note On - Duracao: 256020 Nota: C1 Vol.: 74
Chanel 6 Note Off - Duracao: 256080 Nota: C1 Vol.: 72
Chanel 6 Note On - Duracao: 256080 Nota: C1 Vol.: 74
Chanel 8 Note Off - Duracao: 256140 Nota: C1 Vol.: 63
Chanel 8 Note On - Duracao: 256140 Nota: C1 Vol.: 64
Chanel 2 Note Off - Duracao: 256200 Nota: C1 Vol.: 76
Chanel 2 Note On - Duracao: 256200 Nota: C1 Vol.: 72
Chanel 1 Note Off - Duracao: 256260 Nota: C1 Vol.: 74
Chanel 1 Note On - Duracao: 256260 Nota: C1 Vol.: 79
Chanel 4 Note Off - Duracao: 256260 Nota: C1 Vol.: 61
Chanel 4 Note On - Duracao: 256260 Nota: C1 Vol.: 40
Chanel 8 Note Off - Duracao: 256380 Nota: C1 Vol.: 64
Chanel 8 Note On - Duracao: 256380 Nota: C1 Vol.: 64
Chanel 7 Note Off - Duracao: 256440 Nota: C1 Vol.: 45
Chanel 7 Note On - Duracao: 256440 Nota: C1 Vol.: 47
Chanel 1 Note Off - Duracao: 256500 Nota: C1 Vol.: 79
Chanel 1 Note On - Duracao: 256500 Nota: C1 Vol.: 79
Chanel 9 Note Off - Duracao: 256500 Nota: C1 Vol.: 48
Chanel 9 Note On - Duracao: 256500 Nota: C1 Vol.: 49
Chanel 8 Note Off - Duracao: 256620 Nota: C1 Vol.: 64
Chanel 8 Note On - Duracao: 256620 Nota: C1 Vol.: 49
Chanel 2 Note Off - Duracao: 256680 Nota: C1 Vol.: 72
Chanel 2 Note On - Duracao: 256680 Nota: C1 Vol.: 65
Chanel 1 Note Off - Duracao: 256740 Nota: C1 Vol.: 79
Chanel 1 Note On - Duracao: 256740 Nota: C1 Vol.: 79
Chanel 3 Note Off - Duracao: 256860 Nota: C1 Vol.: 44
Chanel 3 Note On - Duracao: 256860 Nota: C1 Vol.: 40
Chanel 1 Note Off - Duracao: 256980 Nota: C1 Vol.: 79
Chanel 1 Note On - Duracao: 256980 Nota: C1 Vol.: 79
Chanel 1 Note Off - Duracao: 257220 Nota: C1 Vol.: 79
Chanel 1 Note On - Duracao: 257220 Nota: C1 Vol.: 82
Chanel 1 Note Off - Duracao: 257340 Nota: C1 Vol.: 82
Chanel 1 Note On - Duracao: 257340 Nota: C1 Vol.: 75
Chanel 7 Note Off - Duracao: 257400 Nota: C1 Vol.: 47
Chanel 7 Note On - Duracao: 257400 Nota: C1 Vol.: 44
Chanel 9 Note Off - Duracao: 257460 Nota: C1 Vol.: 49
Chanel 9 Note On - Duracao: 257460 Nota: C1 Vol.: 64
Chanel 5 Note Off - Duracao: 257520 Nota: C1 Vol.: 48
Chanel 5 Note On - Duracao: 257520 Nota: C1 Vol.: 66
Chanel 1 Note Off - Duracao: 257580 Nota: C1 Vol.: 75
Chanel 1 Note On - Duracao: 257580 Nota: C1 Vol.: 90
Chanel 8 Note Off - Duracao: 257580 Nota: C1 Vol.: 49
Chanel 8 Note On - Duracao: 257580 Nota: C1 Vol.: 59
Chanel 2 Note Off - Duracao: 257640 Nota: C1 Vol.: 65
Chanel 2 Note On - Duracao: 257640 Nota: C1 Vol.: 78
Chanel 1 Note Off - Duracao: 257700 Nota: C1 Vol.: 90
Chanel 1 Note On - Duracao: 257700 Nota: C1 Vol.: 90
Chanel 9 Note Off - Duracao: 257700 Nota: C1 Vol.: 64
Chanel 9 Note On - Duracao: 257700 Nota: C1 Vol.: 70
Chanel 1 Note Off - Duracao: 257820 Nota: C1 Vol.: 90
Chanel 1 Note On - Duracao: 257820 Nota: C1 Vol.: 88
Chanel 9 Note Off - Duracao: 257820 Nota: C1 Vol.: 70
Chanel 9 Note On - Duracao: 257820 Nota: C1 Vol.: 66
Chanel 2 Note Off - Duracao: 257880 Nota: C1 Vol.: 78
Chanel 2 Note On - Duracao: 257880 Nota: C1 Vol.: 85
Chanel 1 Note Off - Duracao: 257940 Nota: C1 Vol.: 88
Chanel 1 Note On - Duracao: 257940 Nota: C1 Vol.: 62
Chanel 2 Note Off - Duracao: 258000 Nota: C1 Vol.: 85
Chanel 2 Note On - Duracao: 258000 Nota: C1 Vol.: 86
Chanel 5 Note Off - Duracao: 258000 Nota: C1 Vol.: 66
Chanel 5 Note On - Duracao: 258000 Nota: C1 Vol.: 70
Chanel 6 Note Off - Duracao: 258000 Nota: C1 Vol.: 74
Chanel 6 Note On - Duracao: 258000 Nota: C1 Vol.: 75
Chanel 8 Note Off - Duracao: 258060 Nota: C1 Vol.: 59
Chanel 8 Note On - Duracao: 258060 Nota: C1 Vol.: 58
Chanel 9 Note Off - Duracao: 258060 Nota: C1 Vol.: 66
Chanel 9 Note On - Duracao: 258060 Nota: C1 Vol.: 70
Chanel 1 Note Off - Duracao: 258180 Nota: C1 Vol.: 62
Chanel 1 Note On - Duracao: 258180 Nota: C1 Vol.: 63
Chanel 4 Note Off - Duracao: 258180 Nota: C1 Vol.: 40
Chanel 4 Note On - Duracao: 258180 Nota: C1 Vol.: 68
Chanel 9 Note Off - Duracao: 258180 Nota: C1 Vol.: 70
Chanel 9 Note On - Duracao: 258180 Nota: C1 Vol.: 66
Chanel 2 Note Off - Duracao: 258240 Nota: C1 Vol.: 86
Chanel 2 Note On - Duracao: 258240 Nota: C1 Vol.: 83
Chanel 5 Note Off - Duracao: 258240 Nota: C1 Vol.: 70
Chanel 5 Note On - Duracao: 258240 Nota: C1 Vol.: 59
Chanel 7 Note Off - Duracao: 258360 Nota: C1 Vol.: 44
Chanel 7 Note On - Duracao: 258360 Nota: C1 Vol.: 55
Chanel 1 Note Off - Duracao: 258420 Nota: C1 Vol.: 63
Chanel 1 Note On - Duracao: 258420 Nota: C1 Vol.: 64
Chanel 9 Note Off - Duracao: 258420 Nota: C1 Vol.: 66
Chanel 9 Note On - Duracao: 258420 Nota: C1 Vol.: 50
Chanel 2 Note Off - Duracao: 258480 Nota: C1 Vol.: 83
Chanel 2 Note On - Duracao: 258480 Nota: C1 Vol.: 75
Chanel 1 Note Off - Duracao: 258540 Nota: C1 Vol.: 64
Chanel 1 Note On - Duracao: 258540 Nota: C1 Vol.: 61
Chanel 8 Note Off - Duracao: 258540 Nota: C1 Vol.: 58
Chanel 8 Note On - Duracao: 258540 Nota: C1 Vol.: 57
Chanel 4 Note Off - Duracao: 258660 Nota: C1 Vol.: 68
Chanel 4 Note On - Duracao: 258660 Nota: C1 Vol.: 85
Chanel 5 Note Off - Duracao: 258720 Nota: C1 Vol.: 59
Chanel 5 Note On - Duracao: 258720 Nota: C1 Vol.: 44
Chanel 1 Note Off - Duracao: 258780 Nota: C1 Vol.: 61
Chanel 1 Note On - Duracao: 258780 Nota: C1 Vol.: 51
Chanel 3 Note Off - Duracao: 258780 Nota: C1 Vol.: 40
Chanel 3 Note On - Duracao: 258780 Nota: C1 Vol.: 44
Chanel 4 Note Off - Duracao: 258780 Nota: C1 Vol.: 85
Chanel 4 Note On - Duracao: 258780 Nota: C1 Vol.: 85
Chanel 7 Note Off - Duracao: 258840 Nota: C1 Vol.: 55
Chanel 7 Note On - Duracao: 258840 Nota: C1 Vol.: 58
Chanel 4 Note Off - Duracao: 258900 Nota: C1 Vol.: 85
Chanel 4 Note On - Duracao: 258900 Nota: C1 Vol.: 88
Chanel 2 Note Off - Duracao: 258960 Nota: C1 Vol.: 75
Chanel 2 Note On - Duracao: 258960 Nota: C1 Vol.: 82
Chanel 4 Note Off - Duracao: 259020 Nota: C1 Vol.: 88
Chanel 4 Note On - Duracao: 259020 Nota: C1 Vol.: 83
Chanel 8 Note Off - Duracao: 259020 Nota: C1 Vol.: 57
Chanel 8 Note On - Duracao: 259020 Nota: C1 Vol.: 60
Chanel 2 Note Off - Duracao: 259200 Nota: C1 Vol.: 82
Chanel 2 Note On - Duracao: 259200 Nota: C1 Vol.: 80
Chanel 1 Note Off - Duracao: 259260 Nota: C1 Vol.: 51
Chanel 1 Note On - Duracao: 259260 Nota: C1 Vol.: 53
Chanel 4 Note Off - Duracao: 259260 Nota: C1 Vol.: 83
Chanel 4 Note On - Duracao: 259260 Nota: C1 Vol.: 67
Chanel 7 Note Off - Duracao: 259320 Nota: C1 Vol.: 58
Chanel 7 Note On - Duracao: 259320 Nota: C1 Vol.: 57
Chanel 9 Note Off - Duracao: 259380 Nota: C1 Vol.: 50
Chanel 9 Note On - Duracao: 259380 Nota: C1 Vol.: 52
Chanel 8 Note Off - Duracao: 259500 Nota: C1 Vol.: 60
Chanel 8 Note On - Duracao: 259500 Nota: C1 Vol.: 58
Chanel 2 Note Off - Duracao: 259680 Nota: C1 Vol.: 80
Chanel 2 Note On - Duracao: 259680 Nota: C1 Vol.: 89
Chanel 5 Note Off - Duracao: 259680 Nota: C1 Vol.: 44
Chanel 5 Note On - Duracao: 259680 Nota: C1 Vol.: 40
Chanel 1 Note Off - Duracao: 259740 Nota: C1 Vol.: 53
Chanel 1 Note On - Duracao: 259740 Nota: C1 Vol.: 99
Chanel 4 Note Off - Duracao: 259740 Nota: C1 Vol.: 67
Chanel 4 Note On - Duracao: 259740 Nota: C1 Vol.: 93
Chanel 1 Note Off - Duracao: 259800 Nota: C1 Vol.: 99
Chanel 1 Note On - Duracao: 259800 Nota: C1 Vol.: 97
Chanel 7 Note Off - Duracao: 259800 Nota: C1 Vol.: 57
Chanel 7 Note On - Duracao: 259800 Nota: C1 Vol.: 61
Chanel 4 Note Off - Duracao: 259860 Nota: C1 Vol.: 93
Chanel 4 Note On - Duracao: 259860 Nota: C1 Vol.: 91
Chanel 1 Note Off - Duracao: 259920 Nota: C1 Vol.: 97
Chanel 1 Note On - Duracao: 259920 Nota: C1 Vol.: 97
Chanel 2 Note Off - Duracao: 259920 Nota: C1 Vol.: 89
Chanel 2 Note On - Duracao: 259920 Nota: C1 Vol.: 86
Chanel 6 Note Off - Duracao: 259920 Nota: C1 Vol.: 75
Chanel 6 Note On - Duracao: 259920 Nota: C1 Vol.: 74
Chanel 4 Note Off - Duracao: 259980 Nota: C1 Vol.: 91
Chanel 4 Note On - Duracao: 259980 Nota: C1 Vol.: 90
Chanel 8 Note Off - Duracao: 259980 Nota: C1 Vol.: 58
Chanel 8 Note On - Duracao: 259980 Nota: C1 Vol.: 65
Chanel 1 Note Off - Duracao: 260040 Nota: C1 Vol.: 97
Chanel 1 Note On - Duracao: 260040 Nota: C1 Vol.: 86
Chanel 4 Note Off - Duracao: 260100 Nota: C1 Vol.: 90
Chanel 4 Note On - Duracao: 260100 Nota: C1 Vol.: 91
Chanel 2 Note Off - Duracao: 260160 Nota: C1 Vol.: 86
Chanel 2 Note On - Duracao: 260160 Nota: C1 Vol.: 80
Chanel 4 Note Off - Duracao: 260220 Nota: C1 Vol.: 91
Chanel 4 Note On - Duracao: 260220 Nota: C1 Vol.: 87
Chanel 8 Note Off - Duracao: 260220 Nota: C1 Vol.: 65
Chanel 8 Note On - Duracao: 260220 Nota: C1 Vol.: 70
Chanel 1 Note Off - Duracao: 260280 Nota: C1 Vol.: 86
Chanel 1 Note On - Duracao: 260280 Nota: C1 Vol.: 75
Chanel 7 Note Off - Duracao: 260280 Nota: C1 Vol.: 61
Chanel 7 Note On - Duracao: 260280 Nota: C1 Vol.: 59
Chanel 9 Note Off - Duracao: 260340 Nota: C1 Vol.: 52
Chanel 9 Note On - Duracao: 260340 Nota: C1 Vol.: 56
Chanel 2 Note Off - Duracao: 260400 Nota: C1 Vol.: 80
Chanel 2 Note On - Duracao: 260400 Nota: C1 Vol.: 82
Chanel 4 Note Off - Duracao: 260460 Nota: C1 Vol.: 87
Chanel 4 Note On - Duracao: 260460 Nota: C1 Vol.: 93
Chanel 8 Note Off - Duracao: 260460 Nota: C1 Vol.: 70
Chanel 8 Note On - Duracao: 260460 Nota: C1 Vol.: 67
Chanel 4 Note Off - Duracao: 260580 Nota: C1 Vol.: 93
Chanel 4 Note On - Duracao: 260580 Nota: C1 Vol.: 95
Chanel 2 Note Off - Duracao: 260640 Nota: C1 Vol.: 82
Chanel 2 Note On - Duracao: 260640 Nota: C1 Vol.: 84
Chanel 4 Note Off - Duracao: 260640 Nota: C1 Vol.: 95
Chanel 4 Note On - Duracao: 260640 Nota: C1 Vol.: 98
Chanel 3 Note Off - Duracao: 260700 Nota: C1 Vol.: 44
Chanel 3 Note On - Duracao: 260700 Nota: C1 Vol.: 43
Chanel 4 Note Off - Duracao: 260700 Nota: C1 Vol.: 98
Chanel 4 Note On - Duracao: 260700 Nota: C1 Vol.: 96
Chanel 8 Note Off - Duracao: 260700 Nota: C1 Vol.: 67
Chanel 8 Note On - Duracao: 260700 Nota: C1 Vol.: 75
Chanel 1 Note Off - Duracao: 260760 Nota: C1 Vol.: 75
Chanel 1 Note On - Duracao: 260760 Nota: C1 Vol.: 77
Chanel 4 Note Off - Duracao: 260760 Nota: C1 Vol.: 96
Chanel 4 Note On - Duracao: 260760 Nota: C1 Vol.: 78
Chanel 7 Note Off - Duracao: 260760 Nota: C1 Vol.: 59
Chanel 7 Note On - Duracao: 260760 Nota: C1 Vol.: 55
Chanel 2 Note Off - Duracao: 260880 Nota: C1 Vol.: 84
Chanel 2 Note On - Duracao: 260880 Nota: C1 Vol.: 75
Chanel 8 Note Off - Duracao: 260940 Nota: C1 Vol.: 75
Chanel 8 Note On - Duracao: 260940 Nota: C1 Vol.: 82
Chanel 1 Note Off - Duracao: 261000 Nota: C1 Vol.: 77
Chanel 1 Note On - Duracao: 261000 Nota: C1 Vol.: 76
Chanel 4 Note Off - Duracao: 261000 Nota: C1 Vol.: 78
Chanel 4 Note On - Duracao: 261000 Nota: C1 Vol.: 57
Chanel 2 Note Off - Duracao: 261120 Nota: C1 Vol.: 75
Chanel 2 Note On - Duracao: 261120 Nota: C1 Vol.: 79
Chanel 8 Note Off - Duracao: 261180 Nota: C1 Vol.: 82
Chanel 8 Note On - Duracao: 261180 Nota: C1 Vol.: 79
Chanel 1 Note Off - Duracao: 261240 Nota: C1 Vol.: 76
Chanel 1 Note On - Duracao: 261240 Nota: C1 Vol.: 76
Chanel 9 Note Off - Duracao: 261300 Nota: C1 Vol.: 56
Chanel 9 Note On - Duracao: 261300 Nota: C1 Vol.: 59
Chanel 2 Note Off - Duracao: 261360 Nota: C1 Vol.: 79
Chanel 2 Note On - Duracao: 261360 Nota: C1 Vol.: 82
Chanel 8 Note Off - Duracao: 261420 Nota: C1 Vol.: 79
Chanel 8 Note On - Duracao: 261420 Nota: C1 Vol.: 67
Chanel 1 Note Off - Duracao: 261480 Nota: C1 Vol.: 76
Chanel 1 Note On - Duracao: 261480 Nota: C1 Vol.: 85
Chanel 2 Note Off - Duracao: 261600 Nota: C1 Vol.: 82
Chanel 2 Note On - Duracao: 261600 Nota: C1 Vol.: 77
Chanel 5 Note Off - Duracao: 261600 Nota: C1 Vol.: 40
Chanel 5 Note On - Duracao: 261600 Nota: C1 Vol.: 40
Chanel 3 Note Off - Duracao: 261660 Nota: C1 Vol.: 43
Chanel 3 Note On - Duracao: 261660 Nota: C1 Vol.: 40
Chanel 1 Note Off - Duracao: 261720 Nota: C1 Vol.: 85
Chanel 1 Note On - Duracao: 261720 Nota: C1 Vol.: 77
Chanel 7 Note Off - Duracao: 261720 Nota: C1 Vol.: 55
Chanel 7 Note On - Duracao: 261720 Nota: C1 Vol.: 45
Chanel 9 Note Off - Duracao: 261780 Nota: C1 Vol.: 59
Chanel 9 Note On - Duracao: 261780 Nota: C1 Vol.: 64
Chanel 2 Note Off - Duracao: 261840 Nota: C1 Vol.: 77
Chanel 2 Note On - Duracao: 261840 Nota: C1 Vol.: 81
Chanel 6 Note Off - Duracao: 261840 Nota: C1 Vol.: 74
Chanel 6 Note On - Duracao: 261840 Nota: C1 Vol.: 74
Chanel 8 Note Off - Duracao: 261900 Nota: C1 Vol.: 67
Chanel 8 Note On - Duracao: 261900 Nota: C1 Vol.: 53
Chanel 1 Note Off - Duracao: 261960 Nota: C1 Vol.: 77
Chanel 1 Note On - Duracao: 261960 Nota: C1 Vol.: 80
Chanel 4 Note Off - Duracao: 261960 Nota: C1 Vol.: 57
Chanel 4 Note On - Duracao: 261960 Nota: C1 Vol.: 87
Chanel 2 Note Off - Duracao: 262080 Nota: C1 Vol.: 81
Chanel 2 Note On - Duracao: 262080 Nota: C1 Vol.: 83
Chanel 4 Note Off - Duracao: 262080 Nota: C1 Vol.: 87
Chanel 4 Note On - Duracao: 262080 Nota: C1 Vol.: 89
Chanel 1 Note Off - Duracao: 262200 Nota: C1 Vol.: 80
Chanel 4 Note Off - Duracao: 262200 Nota: C1 Vol.: 89
Chanel 4 Note On - Duracao: 262200 Nota: C1 Vol.: 95
Chanel 4 Note Off - Duracao: 262260 Nota: C1 Vol.: 95
Chanel 4 Note On - Duracao: 262260 Nota: C1 Vol.: 98
Chanel 9 Note Off - Duracao: 262260 Nota: C1 Vol.: 64
Chanel 9 Note On - Duracao: 262260 Nota: C1 Vol.: 92
Chanel 2 Note Off - Duracao: 262320 Nota: C1 Vol.: 83
Chanel 2 Note On - Duracao: 262320 Nota: C1 Vol.: 83
Chanel 4 Note Off - Duracao: 262320 Nota: C1 Vol.: 98
Chanel 4 Note On - Duracao: 262320 Nota: C1 Vol.: 98
Chanel 4 Note Off - Duracao: 262380 Nota: C1 Vol.: 98
Chanel 4 Note On - Duracao: 262380 Nota: C1 Vol.: 89
Chanel 9 Note Off - Duracao: 262380 Nota: C1 Vol.: 92
Chanel 9 Note On - Duracao: 262380 Nota: C1 Vol.: 91
Chanel 4 Note Off - Duracao: 262500 Nota: C1 Vol.: 89
Chanel 4 Note On - Duracao: 262500 Nota: C1 Vol.: 100
Chanel 9 Note Off - Duracao: 262500 Nota: C1 Vol.: 91
Chanel 9 Note On - Duracao: 262500 Nota: C1 Vol.: 74
Chanel 2 Note Off - Duracao: 262560 Nota: C1 Vol.: 83
Chanel 2 Note On - Duracao: 262560 Nota: C1 Vol.: 94
Chanel 4 Note Off - Duracao: 262560 Nota: C1 Vol.: 100
Chanel 4 Note On - Duracao: 262560 Nota: C1 Vol.: 98
Chanel 5 Note Off - Duracao: 262560 Nota: C1 Vol.: 40
Chanel 5 Note On - Duracao: 262560 Nota: C1 Vol.: 40
Chanel 4 Note Off - Duracao: 262620 Nota: C1 Vol.: 98
Chanel 4 Note On - Duracao: 262620 Nota: C1 Vol.: 92
Chanel 2 Note Off - Duracao: 262680 Nota: C1 Vol.: 94
Chanel 2 Note On - Duracao: 262680 Nota: C1 Vol.: 81
Chanel 4 Note Off - Duracao: 262740 Nota: C1 Vol.: 92
Chanel 4 Note On - Duracao: 262740 Nota: C1 Vol.: 54
Chanel 9 Note Off - Duracao: 262740 Nota: C1 Vol.: 74
Chanel 9 Note On - Duracao: 262740 Nota: C1 Vol.: 64
Chanel 8 Note Off - Duracao: 262860 Nota: C1 Vol.: 53
Chanel 8 Note On - Duracao: 262860 Nota: C1 Vol.: 45
Chanel 2 Note Off - Duracao: 262920 Nota: C1 Vol.: 81
Chanel 2 Note On - Duracao: 262920 Nota: C1 Vol.: 72
Chanel 2 Note Off - Duracao: 263160 Nota: C1 Vol.: 72
Chanel 2 Note On - Duracao: 263160 Nota: C1 Vol.: 80
Chanel 9 Note Off - Duracao: 263220 Nota: C1 Vol.: 64
Chanel 9 Note On - Duracao: 263220 Nota: C1 Vol.: 56
Chanel 2 Note Off - Duracao: 263280 Nota: C1 Vol.: 80
Chanel 2 Note On - Duracao: 263280 Nota: C1 Vol.: 68
Chanel 2 Note Off - Duracao: 263520 Nota: C1 Vol.: 68
Chanel 2 Note On - Duracao: 263520 Nota: C1 Vol.: 76
Chanel 3 Note Off - Duracao: 263580 Nota: C1 Vol.: 40
Chanel 3 Note On - Duracao: 263580 Nota: C1 Vol.: 50
Chanel 2 Note Off - Duracao: 263640 Nota: C1 Vol.: 76
Chanel 2 Note On - Duracao: 263640 Nota: C1 Vol.: 81
Chanel 7 Note Off - Duracao: 263640 Nota: C1 Vol.: 45
Chanel 7 Note On - Duracao: 263640 Nota: C1 Vol.: 48
Chanel 4 Note Off - Duracao: 263700 Nota: C1 Vol.: 54
Chanel 4 Note On - Duracao: 263700 Nota: C1 Vol.: 47
Chanel 2 Note Off - Duracao: 263760 Nota: C1 Vol.: 81
Chanel 2 Note On - Duracao: 263760 Nota: C1 Vol.: 86
Chanel 6 Note Off - Duracao: 263760 Nota: C1 Vol.: 74
Chanel 6 Note On - Duracao: 263760 Nota: C1 Vol.: 73
Chanel 2 Note Off - Duracao: 263880 Nota: C1 Vol.: 86
Chanel 2 Note On - Duracao: 263880 Nota: C1 Vol.: 95
Chanel 2 Note Off - Duracao: 263940 Nota: C1 Vol.: 95
Chanel 2 Note On - Duracao: 263940 Nota: C1 Vol.: 90
Chanel 2 Note Off - Duracao: 264060 Nota: C1 Vol.: 90
Chanel 2 Note On - Duracao: 264060 Nota: C1 Vol.: 77
Chanel 9 Note Off - Duracao: 264180 Nota: C1 Vol.: 56
Chanel 9 Note On - Duracao: 264180 Nota: C1 Vol.: 50
Chanel 2 Note Off - Duracao: 264300 Nota: C1 Vol.: 77
Chanel 2 Note On - Duracao: 264300 Nota: C1 Vol.: 64
Chanel 5 Note Off - Duracao: 264480 Nota: C1 Vol.: 40
Chanel 5 Note On - Duracao: 264480 Nota: C1 Vol.: 40
Chanel 3 Note Off - Duracao: 264540 Nota: C1 Vol.: 50
Chanel 3 Note On - Duracao: 264540 Nota: C1 Vol.: 40
Chanel 2 Note Off - Duracao: 264780 Nota: C1 Vol.: 64
Chanel 2 Note On - Duracao: 264780 Nota: C1 Vol.: 52
Chanel 8 Note Off - Duracao: 264780 Nota: C1 Vol.: 45
Chanel 8 Note On - Duracao: 264780 Nota: C1 Vol.: 43
Chanel 9 Note Off - Duracao: 265140 Nota: C1 Vol.: 50
Chanel 9 Note On - Duracao: 265140 Nota: C1 Vol.: 56
Chanel 7 Note Off - Duracao: 265560 Nota: C1 Vol.: 48
Chanel 7 Note On - Duracao: 265560 Nota: C1 Vol.: 48
Chanel 4 Note Off - Duracao: 265620 Nota: C1 Vol.: 47
Chanel 4 Note On - Duracao: 265620 Nota: C1 Vol.: 61
Chanel 9 Note Off - Duracao: 265620 Nota: C1 Vol.: 56
Chanel 9 Note On - Duracao: 265620 Nota: C1 Vol.: 59
Chanel 6 Note Off - Duracao: 265680 Nota: C1 Vol.: 73
Chanel 6 Note On - Duracao: 265680 Nota: C1 Vol.: 73
Chanel 2 Note Off - Duracao: 265740 Nota: C1 Vol.: 52
Chanel 2 Note On - Duracao: 265740 Nota: C1 Vol.: 58
Chanel 9 Note Off - Duracao: 266100 Nota: C1 Vol.: 59
Chanel 9 Note On - Duracao: 266100 Nota: C1 Vol.: 58
Chanel 2 Note Off - Duracao: 266220 Nota: C1 Vol.: 58
Chanel 2 Note On - Duracao: 266220 Nota: C1 Vol.: 56
Chanel 5 Note Off - Duracao: 266400 Nota: C1 Vol.: 40
Chanel 5 Note On - Duracao: 266400 Nota: C1 Vol.: 45
Chanel 3 Note Off - Duracao: 266460 Nota: C1 Vol.: 40
Chanel 3 Note On - Duracao: 266460 Nota: C1 Vol.: 40
Chanel 4 Note Off - Duracao: 266580 Nota: C1 Vol.: 61
Chanel 4 Note On - Duracao: 266580 Nota: C1 Vol.: 84
Chanel 9 Note Off - Duracao: 266580 Nota: C1 Vol.: 58
Chanel 9 Note On - Duracao: 266580 Nota: C1 Vol.: 60
Chanel 2 Note Off - Duracao: 266700 Nota: C1 Vol.: 56
Chanel 2 Note On - Duracao: 266700 Nota: C1 Vol.: 53
Chanel 4 Note Off - Duracao: 266700 Nota: C1 Vol.: 84
Chanel 4 Note On - Duracao: 266700 Nota: C1 Vol.: 95
Chanel 8 Note Off - Duracao: 266700 Nota: C1 Vol.: 43
Chanel 8 Note On - Duracao: 266700 Nota: C1 Vol.: 60
Chanel 4 Note Off - Duracao: 266760 Nota: C1 Vol.: 95
Chanel 4 Note On - Duracao: 266760 Nota: C1 Vol.: 96
Chanel 4 Note Off - Duracao: 266820 Nota: C1 Vol.: 96
Chanel 4 Note On - Duracao: 266820 Nota: C1 Vol.: 94
Chanel 4 Note Off - Duracao: 266880 Nota: C1 Vol.: 94
Chanel 4 Note On - Duracao: 266880 Nota: C1 Vol.: 62
Chanel 9 Note Off - Duracao: 267060 Nota: C1 Vol.: 60
Chanel 9 Note On - Duracao: 267060 Nota: C1 Vol.: 60
Chanel 8 Note Off - Duracao: 267180 Nota: C1 Vol.: 60
Chanel 8 Note On - Duracao: 267180 Nota: C1 Vol.: 68
Chanel 5 Note Off - Duracao: 267360 Nota: C1 Vol.: 45
Chanel 5 Note On - Duracao: 267360 Nota: C1 Vol.: 56
Chanel 8 Note Off - Duracao: 267420 Nota: C1 Vol.: 68
Chanel 8 Note On - Duracao: 267420 Nota: C1 Vol.: 69
Chanel 7 Note Off - Duracao: 267480 Nota: C1 Vol.: 48
Chanel 7 Note On - Duracao: 267480 Nota: C1 Vol.: 48
Chanel 9 Note Off - Duracao: 267540 Nota: C1 Vol.: 60
Chanel 9 Note On - Duracao: 267540 Nota: C1 Vol.: 63
Chanel 6 Note Off - Duracao: 267600 Nota: C1 Vol.: 73
Chanel 6 Note On - Duracao: 267600 Nota: C1 Vol.: 73
Chanel 2 Note Off - Duracao: 267660 Nota: C1 Vol.: 53
Chanel 2 Note On - Duracao: 267660 Nota: C1 Vol.: 49
Chanel 8 Note Off - Duracao: 267660 Nota: C1 Vol.: 69
Chanel 8 Note On - Duracao: 267660 Nota: C1 Vol.: 71
Chanel 8 Note Off - Duracao: 267780 Nota: C1 Vol.: 71
Chanel 8 Note On - Duracao: 267780 Nota: C1 Vol.: 73
Chanel 4 Note Off - Duracao: 267840 Nota: C1 Vol.: 62
Chanel 4 Note On - Duracao: 267840 Nota: C1 Vol.: 46
Chanel 5 Note Off - Duracao: 267840 Nota: C1 Vol.: 56
Chanel 5 Note On - Duracao: 267840 Nota: C1 Vol.: 59
Chanel 8 Note Off - Duracao: 267900 Nota: C1 Vol.: 73
Chanel 8 Note On - Duracao: 267900 Nota: C1 Vol.: 75
Chanel 8 Note Off - Duracao: 268020 Nota: C1 Vol.: 75
Chanel 8 Note On - Duracao: 268020 Nota: C1 Vol.: 72
Chanel 9 Note Off - Duracao: 268020 Nota: C1 Vol.: 63
Chanel 9 Note On - Duracao: 268020 Nota: C1 Vol.: 60
Chanel 5 Note Off - Duracao: 268080 Nota: C1 Vol.: 59
Chanel 5 Note On - Duracao: 268080 Nota: C1 Vol.: 59
Chanel 8 Note Off - Duracao: 268140 Nota: C1 Vol.: 72
Chanel 8 Note On - Duracao: 268140 Nota: C1 Vol.: 74
Chanel 8 Note Off - Duracao: 268260 Nota: C1 Vol.: 74
Chanel 8 Note On - Duracao: 268260 Nota: C1 Vol.: 69
Chanel 5 Note Off - Duracao: 268320 Nota: C1 Vol.: 59
Chanel 5 Note On - Duracao: 268320 Nota: C1 Vol.: 61
Chanel 3 Note Off - Duracao: 268380 Nota: C1 Vol.: 40
Chanel 3 Note On - Duracao: 268380 Nota: C1 Vol.: 75
Chanel 8 Note Off - Duracao: 268500 Nota: C1 Vol.: 69
Chanel 8 Note On - Duracao: 268500 Nota: C1 Vol.: 72
Chanel 9 Note Off - Duracao: 268500 Nota: C1 Vol.: 60
Chanel 9 Note On - Duracao: 268500 Nota: C1 Vol.: 55
Chanel 5 Note Off - Duracao: 268560 Nota: C1 Vol.: 61
Chanel 5 Note On - Duracao: 268560 Nota: C1 Vol.: 62
Chanel 2 Note Off - Duracao: 268620 Nota: C1 Vol.: 49
Chanel 2 Note On - Duracao: 268620 Nota: C1 Vol.: 56
Chanel 3 Note Off - Duracao: 268620 Nota: C1 Vol.: 75
Chanel 3 Note On - Duracao: 268620 Nota: C1 Vol.: 86
Chanel 8 Note Off - Duracao: 268620 Nota: C1 Vol.: 72
Chanel 8 Note On - Duracao: 268620 Nota: C1 Vol.: 65
Chanel 3 Note Off - Duracao: 268740 Nota: C1 Vol.: 86
Chanel 3 Note On - Duracao: 268740 Nota: C1 Vol.: 90
Chanel 5 Note Off - Duracao: 268800 Nota: C1 Vol.: 62
Chanel 5 Note On - Duracao: 268800 Nota: C1 Vol.: 63
Chanel 3 Note Off - Duracao: 268860 Nota: C1 Vol.: 90
Chanel 3 Note On - Duracao: 268860 Nota: C1 Vol.: 98
Chanel 8 Note Off - Duracao: 268860 Nota: C1 Vol.: 65
Chanel 8 Note On - Duracao: 268860 Nota: C1 Vol.: 77
Chanel 3 Note Off - Duracao: 268920 Nota: C1 Vol.: 98
Chanel 3 Note On - Duracao: 268920 Nota: C1 Vol.: 99
Chanel 3 Note Off - Duracao: 268980 Nota: C1 Vol.: 99
Chanel 3 Note On - Duracao: 268980 Nota: C1 Vol.: 100
Chanel 9 Note Off - Duracao: 268980 Nota: C1 Vol.: 55
Chanel 9 Note On - Duracao: 268980 Nota: C1 Vol.: 57
Chanel 3 Note Off - Duracao: 269040 Nota: C1 Vol.: 100
Chanel 3 Note On - Duracao: 269040 Nota: C1 Vol.: 99
Chanel 5 Note Off - Duracao: 269040 Nota: C1 Vol.: 63
Chanel 5 Note On - Duracao: 269040 Nota: C1 Vol.: 65
Chanel 2 Note Off - Duracao: 269100 Nota: C1 Vol.: 56
Chanel 2 Note On - Duracao: 269100 Nota: C1 Vol.: 61
Chanel 3 Note Off - Duracao: 269100 Nota: C1 Vol.: 99
Chanel 3 Note On - Duracao: 269100 Nota: C1 Vol.: 100
Chanel 8 Note Off - Duracao: 269100 Nota: C1 Vol.: 77
Chanel 8 Note On - Duracao: 269100 Nota: C1 Vol.: 83
Chanel 3 Note Off - Duracao: 269160 Nota: C1 Vol.: 100
Chanel 3 Note On - Duracao: 269160 Nota: C1 Vol.: 99
Chanel 3 Note Off - Duracao: 269220 Nota: C1 Vol.: 99
Chanel 3 Note On - Duracao: 269220 Nota: C1 Vol.: 61
Chanel 8 Note Off - Duracao: 269220 Nota: C1 Vol.: 83
Chanel 8 Note On - Duracao: 269220 Nota: C1 Vol.: 83
Chanel 5 Note Off - Duracao: 269280 Nota: C1 Vol.: 65
Chanel 5 Note On - Duracao: 269280 Nota: C1 Vol.: 67
Chanel 2 Note Off - Duracao: 269340 Nota: C1 Vol.: 61
Chanel 2 Note On - Duracao: 269340 Nota: C1 Vol.: 57
Chanel 8 Note Off - Duracao: 269340 Nota: C1 Vol.: 83
Chanel 8 Note On - Duracao: 269340 Nota: C1 Vol.: 63
Chanel 7 Note Off - Duracao: 269400 Nota: C1 Vol.: 48
Chanel 7 Note On - Duracao: 269400 Nota: C1 Vol.: 46
Chanel 9 Note Off - Duracao: 269460 Nota: C1 Vol.: 57
Chanel 9 Note On - Duracao: 269460 Nota: C1 Vol.: 58
Chanel 5 Note Off - Duracao: 269520 Nota: C1 Vol.: 67
Chanel 5 Note On - Duracao: 269520 Nota: C1 Vol.: 68
Chanel 6 Note Off - Duracao: 269520 Nota: C1 Vol.: 73
Chanel 6 Note On - Duracao: 269520 Nota: C1 Vol.: 72
Chanel 2 Note Off - Duracao: 269580 Nota: C1 Vol.: 57
Chanel 2 Note On - Duracao: 269580 Nota: C1 Vol.: 60
Chanel 4 Note Off - Duracao: 269760 Nota: C1 Vol.: 46
Chanel 4 Note On - Duracao: 269760 Nota: C1 Vol.: 44
Chanel 5 Note Off - Duracao: 269760 Nota: C1 Vol.: 68
Chanel 5 Note On - Duracao: 269760 Nota: C1 Vol.: 74
Chanel 2 Note Off - Duracao: 269820 Nota: C1 Vol.: 60
Chanel 2 Note On - Duracao: 269820 Nota: C1 Vol.: 61
Chanel 8 Note Off - Duracao: 269820 Nota: C1 Vol.: 63
Chanel 8 Note On - Duracao: 269820 Nota: C1 Vol.: 66
Chanel 5 Note Off - Duracao: 269880 Nota: C1 Vol.: 74
Chanel 5 Note On - Duracao: 269880 Nota: C1 Vol.: 60
Chanel 9 Note Off - Duracao: 269940 Nota: C1 Vol.: 58
Chanel 9 Note On - Duracao: 269940 Nota: C1 Vol.: 61
Chanel 2 Note Off - Duracao: 270060 Nota: C1 Vol.: 61
Chanel 2 Note On - Duracao: 270060 Nota: C1 Vol.: 63
Chanel 3 Note Off - Duracao: 270180 Nota: C1 Vol.: 61
Chanel 3 Note On - Duracao: 270180 Nota: C1 Vol.: 44
Chanel 2 Note Off - Duracao: 270300 Nota: C1 Vol.: 63
Chanel 2 Note On - Duracao: 270300 Nota: C1 Vol.: 70
Chanel 8 Note Off - Duracao: 270300 Nota: C1 Vol.: 66
Chanel 8 Note On - Duracao: 270300 Nota: C1 Vol.: 55
Chanel 5 Note Off - Duracao: 270360 Nota: C1 Vol.: 60
Chanel 5 Note On - Duracao: 270360 Nota: C1 Vol.: 53
Chanel 2 Note Off - Duracao: 270420 Nota: C1 Vol.: 70
Chanel 2 Note On - Duracao: 270420 Nota: C1 Vol.: 62
Chanel 9 Note Off - Duracao: 270420 Nota: C1 Vol.: 61
Chanel 9 Note On - Duracao: 270420 Nota: C1 Vol.: 62
Chanel 2 Note Off - Duracao: 270660 Nota: C1 Vol.: 62
Chanel 2 Note On - Duracao: 270660 Nota: C1 Vol.: 56
Chanel 9 Note Off - Duracao: 270900 Nota: C1 Vol.: 62
Chanel 9 Note On - Duracao: 270900 Nota: C1 Vol.: 65
Chanel 2 Note Off - Duracao: 271140 Nota: C1 Vol.: 56
Chanel 2 Note On - Duracao: 271140 Nota: C1 Vol.: 65
Chanel 8 Note Off - Duracao: 271260 Nota: C1 Vol.: 55
Chanel 8 Note On - Duracao: 271260 Nota: C1 Vol.: 48
Chanel 7 Note Off - Duracao: 271320 Nota: C1 Vol.: 46
Chanel 7 Note On - Duracao: 271320 Nota: C1 Vol.: 44
Chanel 2 Note Off - Duracao: 271380 Nota: C1 Vol.: 65
Chanel 2 Note On - Duracao: 271380 Nota: C1 Vol.: 75
Chanel 9 Note Off - Duracao: 271380 Nota: C1 Vol.: 65
Chanel 9 Note On - Duracao: 271380 Nota: C1 Vol.: 64
Chanel 6 Note Off - Duracao: 271440 Nota: C1 Vol.: 72
Chanel 6 Note On - Duracao: 271440 Nota: C1 Vol.: 73
Chanel 2 Note Off - Duracao: 271500 Nota: C1 Vol.: 75
Chanel 2 Note On - Duracao: 271500 Nota: C1 Vol.: 72
Chanel 4 Note Off - Duracao: 271680 Nota: C1 Vol.: 44
Chanel 4 Note On - Duracao: 271680 Nota: C1 Vol.: 87
Chanel 2 Note Off - Duracao: 271740 Nota: C1 Vol.: 72
Chanel 2 Note On - Duracao: 271740 Nota: C1 Vol.: 71
Chanel 4 Note Off - Duracao: 271800 Nota: C1 Vol.: 87
Chanel 4 Note On - Duracao: 271800 Nota: C1 Vol.: 86
Chanel 9 Note Off - Duracao: 271860 Nota: C1 Vol.: 64
Chanel 9 Note On - Duracao: 271860 Nota: C1 Vol.: 59
Chanel 4 Note Off - Duracao: 271920 Nota: C1 Vol.: 86
Chanel 4 Note On - Duracao: 271920 Nota: C1 Vol.: 96
Chanel 2 Note Off - Duracao: 271980 Nota: C1 Vol.: 71
Chanel 2 Note On - Duracao: 271980 Nota: C1 Vol.: 40
Chanel 4 Note Off - Duracao: 271980 Nota: C1 Vol.: 96
Chanel 4 Note On - Duracao: 271980 Nota: C1 Vol.: 99
Chanel 4 Note Off - Duracao: 272040 Nota: C1 Vol.: 99
Chanel 4 Note On - Duracao: 272040 Nota: C1 Vol.: 100
Chanel 3 Note Off - Duracao: 272100 Nota: C1 Vol.: 44
Chanel 3 Note On - Duracao: 272100 Nota: C1 Vol.: 83
Chanel 4 Note Off - Duracao: 272100 Nota: C1 Vol.: 100
Chanel 4 Note On - Duracao: 272100 Nota: C1 Vol.: 99
Chanel 4 Note Off - Duracao: 272160 Nota: C1 Vol.: 99
Chanel 4 Note On - Duracao: 272160 Nota: C1 Vol.: 98
Chanel 4 Note Off - Duracao: 272220 Nota: C1 Vol.: 98
Chanel 4 Note On - Duracao: 272220 Nota: C1 Vol.: 97
Chanel 4 Note Off - Duracao: 272280 Nota: C1 Vol.: 97
Chanel 4 Note On - Duracao: 272280 Nota: C1 Vol.: 90
Chanel 5 Note Off - Duracao: 272280 Nota: C1 Vol.: 53
Chanel 5 Note On - Duracao: 272280 Nota: C1 Vol.: 49
Chanel 3 Note Off - Duracao: 272340 Nota: C1 Vol.: 83
Chanel 3 Note On - Duracao: 272340 Nota: C1 Vol.: 79
Chanel 9 Note Off - Duracao: 272340 Nota: C1 Vol.: 59
Chanel 9 Note On - Duracao: 272340 Nota: C1 Vol.: 54
Chanel 4 Note Off - Duracao: 272400 Nota: C1 Vol.: 90
Chanel 4 Note On - Duracao: 272400 Nota: C1 Vol.: 44
Chanel 3 Note Off - Duracao: 272820 Nota: C1 Vol.: 79
Chanel 3 Note On - Duracao: 272820 Nota: C1 Vol.: 91
Chanel 9 Note Off - Duracao: 272820 Nota: C1 Vol.: 54
Chanel 9 Note On - Duracao: 272820 Nota: C1 Vol.: 59
Chanel 3 Note Off - Duracao: 272940 Nota: C1 Vol.: 91
Chanel 3 Note On - Duracao: 272940 Nota: C1 Vol.: 100
Chanel 3 Note Off - Duracao: 273000 Nota: C1 Vol.: 100
Chanel 3 Note On - Duracao: 273000 Nota: C1 Vol.: 100
Chanel 3 Note Off - Duracao: 273060 Nota: C1 Vol.: 100
Chanel 3 Note On - Duracao: 273060 Nota: C1 Vol.: 100
Chanel 3 Note Off - Duracao: 273120 Nota: C1 Vol.: 100
Chanel 3 Note On - Duracao: 273120 Nota: C1 Vol.: 99
Chanel 3 Note Off - Duracao: 273180 Nota: C1 Vol.: 99
Chanel 3 Note On - Duracao: 273180 Nota: C1 Vol.: 98
Chanel 8 Note Off - Duracao: 273180 Nota: C1 Vol.: 48
Chanel 8 Note On - Duracao: 273180 Nota: C1 Vol.: 61
Chanel 3 Note Off - Duracao: 273240 Nota: C1 Vol.: 98
Chanel 3 Note On - Duracao: 273240 Nota: C1 Vol.: 91
Chanel 9 Note Off - Duracao: 273300 Nota: C1 Vol.: 59
Chanel 9 Note On - Duracao: 273300 Nota: C1 Vol.: 48
Chanel 3 Note Off - Duracao: 273360 Nota: C1 Vol.: 91
Chanel 3 Note On - Duracao: 273360 Nota: C1 Vol.: 78
Chanel 6 Note Off - Duracao: 273360 Nota: C1 Vol.: 73
Chanel 6 Note On - Duracao: 273360 Nota: C1 Vol.: 72
Chanel 8 Note Off - Duracao: 273660 Nota: C1 Vol.: 61
Chanel 8 Note On - Duracao: 273660 Nota: C1 Vol.: 65
Chanel 3 Note Off - Duracao: 273840 Nota: C1 Vol.: 78
Chanel 3 Note On - Duracao: 273840 Nota: C1 Vol.: 77
Chanel 2 Note Off - Duracao: 273900 Nota: C1 Vol.: 40
Chanel 2 Note On - Duracao: 273900 Nota: C1 Vol.: 52
Chanel 3 Note Off - Duracao: 274080 Nota: C1 Vol.: 77
Chanel 3 Note On - Duracao: 274080 Nota: C1 Vol.: 74
Chanel 2 Note Off - Duracao: 274140 Nota: C1 Vol.: 52
Chanel 2 Note On - Duracao: 274140 Nota: C1 Vol.: 49
Chanel 8 Note Off - Duracao: 274140 Nota: C1 Vol.: 65
Chanel 8 Note On - Duracao: 274140 Nota: C1 Vol.: 62
Chanel 9 Note Off - Duracao: 274260 Nota: C1 Vol.: 48
Chanel 9 Note On - Duracao: 274260 Nota: C1 Vol.: 47
Chanel 3 Note Off - Duracao: 274320 Nota: C1 Vol.: 74
Chanel 3 Note On - Duracao: 274320 Nota: C1 Vol.: 69
Chanel 4 Note Off - Duracao: 274320 Nota: C1 Vol.: 44
Chanel 4 Note On - Duracao: 274320 Nota: C1 Vol.: 45
Chanel 2 Note Off - Duracao: 274380 Nota: C1 Vol.: 49
Chanel 2 Note On - Duracao: 274380 Nota: C1 Vol.: 52
Chanel 2 Note Off - Duracao: 274620 Nota: C1 Vol.: 52
Chanel 2 Note On - Duracao: 274620 Nota: C1 Vol.: 40
Chanel 8 Note Off - Duracao: 274620 Nota: C1 Vol.: 62
Chanel 8 Note On - Duracao: 274620 Nota: C1 Vol.: 65
Chanel 3 Note Off - Duracao: 274800 Nota: C1 Vol.: 69
Chanel 3 Note On - Duracao: 274800 Nota: C1 Vol.: 76
Chanel 3 Note Off - Duracao: 275040 Nota: C1 Vol.: 76
Chanel 3 Note On - Duracao: 275040 Nota: C1 Vol.: 73
Chanel 8 Note Off - Duracao: 275100 Nota: C1 Vol.: 65
Chanel 8 Note On - Duracao: 275100 Nota: C1 Vol.: 66
Chanel 7 Note Off - Duracao: 275160 Nota: C1 Vol.: 44
Chanel 7 Note On - Duracao: 275160 Nota: C1 Vol.: 46
Chanel 9 Note Off - Duracao: 275220 Nota: C1 Vol.: 47
Chanel 9 Note On - Duracao: 275220 Nota: C1 Vol.: 50
Chanel 3 Note Off - Duracao: 275280 Nota: C1 Vol.: 73
Chanel 3 Note On - Duracao: 275280 Nota: C1 Vol.: 74
Chanel 6 Note Off - Duracao: 275280 Nota: C1 Vol.: 72
Chanel 6 Note On - Duracao: 275280 Nota: C1 Vol.: 68
Chanel 3 Note Off - Duracao: 275520 Nota: C1 Vol.: 74
Chanel 3 Note On - Duracao: 275520 Nota: C1 Vol.: 72
Chanel 2 Note Off - Duracao: 275580 Nota: C1 Vol.: 40
Chanel 2 Note On - Duracao: 275580 Nota: C1 Vol.: 40
Chanel 8 Note Off - Duracao: 275580 Nota: C1 Vol.: 66
Chanel 8 Note On - Duracao: 275580 Nota: C1 Vol.: 72
Chanel 3 Note Off - Duracao: 275760 Nota: C1 Vol.: 72
Chanel 3 Note On - Duracao: 275760 Nota: C1 Vol.: 68
Chanel 8 Note Off - Duracao: 276060 Nota: C1 Vol.: 72
Chanel 8 Note On - Duracao: 276060 Nota: C1 Vol.: 68
Chanel 5 Note Off - Duracao: 276120 Nota: C1 Vol.: 49
Chanel 5 Note On - Duracao: 276120 Nota: C1 Vol.: 57
Chanel 9 Note Off - Duracao: 276180 Nota: C1 Vol.: 50
Chanel 9 Note On - Duracao: 276180 Nota: C1 Vol.: 45
Chanel 3 Note Off - Duracao: 276240 Nota: C1 Vol.: 68
Chanel 3 Note On - Duracao: 276240 Nota: C1 Vol.: 64
Chanel 4 Note Off - Duracao: 276240 Nota: C1 Vol.: 45
Chanel 4 Note On - Duracao: 276240 Nota: C1 Vol.: 81
Chanel 4 Note Off - Duracao: 276480 Nota: C1 Vol.: 81
Chanel 4 Note On - Duracao: 276480 Nota: C1 Vol.: 86
Chanel 8 Note Off - Duracao: 276540 Nota: C1 Vol.: 68
Chanel 8 Note On - Duracao: 276540 Nota: C1 Vol.: 64
Chanel 4 Note Off - Duracao: 276600 Nota: C1 Vol.: 86
Chanel 4 Note On - Duracao: 276600 Nota: C1 Vol.: 100
Chanel 4 Note Off - Duracao: 276660 Nota: C1 Vol.: 100
Chanel 4 Note On - Duracao: 276660 Nota: C1 Vol.: 100
Chanel 3 Note Off - Duracao: 276720 Nota: C1 Vol.: 64
Chanel 3 Note On - Duracao: 276720 Nota: C1 Vol.: 61
Chanel 4 Note Off - Duracao: 276720 Nota: C1 Vol.: 100
Chanel 4 Note On - Duracao: 276720 Nota: C1 Vol.: 97
Chanel 4 Note Off - Duracao: 276780 Nota: C1 Vol.: 97
Chanel 4 Note On - Duracao: 276780 Nota: C1 Vol.: 95
Chanel 4 Note Off - Duracao: 276840 Nota: C1 Vol.: 95
Chanel 4 Note On - Duracao: 276840 Nota: C1 Vol.: 99
Chanel 4 Note Off - Duracao: 276900 Nota: C1 Vol.: 99
Chanel 4 Note On - Duracao: 276900 Nota: C1 Vol.: 91
Chanel 4 Note Off - Duracao: 277020 Nota: C1 Vol.: 91
Chanel 4 Note On - Duracao: 277020 Nota: C1 Vol.: 68
Chanel 8 Note Off - Duracao: 277020 Nota: C1 Vol.: 64
Chanel 8 Note On - Duracao: 277020 Nota: C1 Vol.: 77
Chanel 9 Note Off - Duracao: 277140 Nota: C1 Vol.: 45
Chanel 9 Note On - Duracao: 277140 Nota: C1 Vol.: 59
Chanel 3 Note Off - Duracao: 277200 Nota: C1 Vol.: 61
Chanel 3 Note On - Duracao: 277200 Nota: C1 Vol.: 60
Chanel 6 Note Off - Duracao: 277200 Nota: C1 Vol.: 68
Chanel 6 Note On - Duracao: 277200 Nota: C1 Vol.: 58
Chanel 8 Note Off - Duracao: 277260 Nota: C1 Vol.: 77
Chanel 8 Note On - Duracao: 277260 Nota: C1 Vol.: 67
Chanel 2 Note Off - Duracao: 277500 Nota: C1 Vol.: 40
Chanel 2 Note On - Duracao: 277500 Nota: C1 Vol.: 40
Chanel 4 Note Off - Duracao: 277500 Nota: C1 Vol.: 68
Chanel 4 Note On - Duracao: 277500 Nota: C1 Vol.: 67
Chanel 9 Note Off - Duracao: 277620 Nota: C1 Vol.: 59
Chanel 9 Note On - Duracao: 277620 Nota: C1 Vol.: 54
Chanel 3 Note Off - Duracao: 277680 Nota: C1 Vol.: 60
Chanel 3 Note On - Duracao: 277680 Nota: C1 Vol.: 75
Chanel 8 Note Off - Duracao: 277740 Nota: C1 Vol.: 67
Chanel 8 Note On - Duracao: 277740 Nota: C1 Vol.: 73
Chanel 3 Note Off - Duracao: 277920 Nota: C1 Vol.: 75
Chanel 3 Note On - Duracao: 277920 Nota: C1 Vol.: 80
Chanel 4 Note Off - Duracao: 277980 Nota: C1 Vol.: 67
Chanel 4 Note On - Duracao: 277980 Nota: C1 Vol.: 67
Chanel 8 Note Off - Duracao: 277980 Nota: C1 Vol.: 73
Chanel 8 Note On - Duracao: 277980 Nota: C1 Vol.: 67
Chanel 3 Note Off - Duracao: 278040 Nota: C1 Vol.: 80
Chanel 3 Note On - Duracao: 278040 Nota: C1 Vol.: 87
Chanel 5 Note Off - Duracao: 278040 Nota: C1 Vol.: 57
Chanel 5 Note On - Duracao: 278040 Nota: C1 Vol.: 59
Chanel 9 Note Off - Duracao: 278100 Nota: C1 Vol.: 54
Chanel 9 Note On - Duracao: 278100 Nota: C1 Vol.: 56
Chanel 3 Note Off - Duracao: 278160 Nota: C1 Vol.: 87
Chanel 3 Note On - Duracao: 278160 Nota: C1 Vol.: 87
Chanel 8 Note Off - Duracao: 278220 Nota: C1 Vol.: 67
Chanel 8 Note On - Duracao: 278220 Nota: C1 Vol.: 64
Chanel 3 Note Off - Duracao: 278280 Nota: C1 Vol.: 87
Chanel 3 Note On - Duracao: 278280 Nota: C1 Vol.: 66
Chanel 9 Note Off - Duracao: 278340 Nota: C1 Vol.: 56
Chanel 9 Note On - Duracao: 278340 Nota: C1 Vol.: 56
Chanel 4 Note Off - Duracao: 278460 Nota: C1 Vol.: 67
Chanel 4 Note On - Duracao: 278460 Nota: C1 Vol.: 79
Chanel 8 Note Off - Duracao: 278460 Nota: C1 Vol.: 64
Chanel 8 Note On - Duracao: 278460 Nota: C1 Vol.: 54
Chanel 9 Note Off - Duracao: 278580 Nota: C1 Vol.: 56
Chanel 9 Note On - Duracao: 278580 Nota: C1 Vol.: 55
Chanel 4 Note Off - Duracao: 278700 Nota: C1 Vol.: 79
Chanel 4 Note On - Duracao: 278700 Nota: C1 Vol.: 97
Chanel 3 Note Off - Duracao: 278760 Nota: C1 Vol.: 66
Chanel 3 Note On - Duracao: 278760 Nota: C1 Vol.: 48
Chanel 4 Note Off - Duracao: 278760 Nota: C1 Vol.: 97
Chanel 4 Note On - Duracao: 278760 Nota: C1 Vol.: 97
Chanel 4 Note Off - Duracao: 278820 Nota: C1 Vol.: 97
Chanel 4 Note On - Duracao: 278820 Nota: C1 Vol.: 99
Chanel 4 Note Off - Duracao: 278880 Nota: C1 Vol.: 99
Chanel 4 Note On - Duracao: 278880 Nota: C1 Vol.: 97
Chanel 4 Note Off - Duracao: 278940 Nota: C1 Vol.: 97
Chanel 4 Note On - Duracao: 278940 Nota: C1 Vol.: 93
Chanel 8 Note Off - Duracao: 278940 Nota: C1 Vol.: 54
Chanel 8 Note On - Duracao: 278940 Nota: C1 Vol.: 53
Chanel 7 Note Off - Duracao: 279000 Nota: C1 Vol.: 46
Chanel 7 Note On - Duracao: 279000 Nota: C1 Vol.: 43
Chanel 4 Note Off - Duracao: 279060 Nota: C1 Vol.: 93
Chanel 4 Note On - Duracao: 279060 Nota: C1 Vol.: 93
Chanel 9 Note Off - Duracao: 279060 Nota: C1 Vol.: 55
Chanel 9 Note On - Duracao: 279060 Nota: C1 Vol.: 51
Chanel 4 Note Off - Duracao: 279180 Nota: C1 Vol.: 93
Chanel 4 Note On - Duracao: 279180 Nota: C1 Vol.: 96
Chanel 4 Note Off - Duracao: 279240 Nota: C1 Vol.: 96
Chanel 4 Note On - Duracao: 279240 Nota: C1 Vol.: 94
Chanel 4 Note Off - Duracao: 279360 Nota: C1 Vol.: 94
Chanel 4 Note On - Duracao: 279360 Nota: C1 Vol.: 93
Chanel 2 Note Off - Duracao: 279420 Nota: C1 Vol.: 40
Chanel 2 Note On - Duracao: 279420 Nota: C1 Vol.: 44
Chanel 8 Note Off - Duracao: 279420 Nota: C1 Vol.: 53
Chanel 8 Note On - Duracao: 279420 Nota: C1 Vol.: 62
Chanel 4 Note Off - Duracao: 279480 Nota: C1 Vol.: 93
Chanel 4 Note On - Duracao: 279480 Nota: C1 Vol.: 74
Chanel 4 Note Off - Duracao: 279720 Nota: C1 Vol.: 74
Chanel 4 Note On - Duracao: 279720 Nota: C1 Vol.: 67
Chanel 8 Note Off - Duracao: 279900 Nota: C1 Vol.: 62
Chanel 8 Note On - Duracao: 279900 Nota: C1 Vol.: 60
Chanel 4 Note Off - Duracao: 279960 Nota: C1 Vol.: 67
Chanel 4 Note On - Duracao: 279960 Nota: C1 Vol.: 69
Chanel 5 Note Off - Duracao: 279960 Nota: C1 Vol.: 59
Chanel 5 Note On - Duracao: 279960 Nota: C1 Vol.: 52
Chanel 9 Note Off - Duracao: 280020 Nota: C1 Vol.: 51
Chanel 9 Note On - Duracao: 280020 Nota: C1 Vol.: 59
Chanel 4 Note Off - Duracao: 280200 Nota: C1 Vol.: 69
Chanel 4 Note On - Duracao: 280200 Nota: C1 Vol.: 59
Chanel 8 Note Off - Duracao: 280380 Nota: C1 Vol.: 60
Chanel 8 Note On - Duracao: 280380 Nota: C1 Vol.: 62
Chanel 9 Note Off - Duracao: 280500 Nota: C1 Vol.: 59
Chanel 9 Note On - Duracao: 280500 Nota: C1 Vol.: 59
Chanel 3 Note Off - Duracao: 280680 Nota: C1 Vol.: 48
Chanel 3 Note On - Duracao: 280680 Nota: C1 Vol.: 45
Chanel 4 Note Off - Duracao: 280680 Nota: C1 Vol.: 59
Chanel 4 Note On - Duracao: 280680 Nota: C1 Vol.: 48
Chanel 8 Note Off - Duracao: 280860 Nota: C1 Vol.: 62
Chanel 8 Note On - Duracao: 280860 Nota: C1 Vol.: 66
Chanel 9 Note Off - Duracao: 280980 Nota: C1 Vol.: 59
Chanel 9 Note On - Duracao: 280980 Nota: C1 Vol.: 55
Chanel 6 Note Off - Duracao: 281040 Nota: C1 Vol.: 58
Chanel 6 Note On - Duracao: 281040 Nota: C1 Vol.: 52
Chanel 2 Note Off - Duracao: 281340 Nota: C1 Vol.: 44
Chanel 2 Note On - Duracao: 281340 Nota: C1 Vol.: 44
Chanel 8 Note Off - Duracao: 281340 Nota: C1 Vol.: 66
Chanel 8 Note On - Duracao: 281340 Nota: C1 Vol.: 56
Chanel 4 Note Off - Duracao: 281640 Nota: C1 Vol.: 48
Chanel 4 Note On - Duracao: 281640 Nota: C1 Vol.: 57
Chanel 8 Note Off - Duracao: 281820 Nota: C1 Vol.: 56
Chanel 8 Note On - Duracao: 281820 Nota: C1 Vol.: 69
Chanel 9 Note Off - Duracao: 281940 Nota: C1 Vol.: 55
Chanel 9 Note On - Duracao: 281940 Nota: C1 Vol.: 56
Chanel 8 Note Off - Duracao: 282060 Nota: C1 Vol.: 69
Chanel 8 Note On - Duracao: 282060 Nota: C1 Vol.: 69
Chanel 4 Note Off - Duracao: 282120 Nota: C1 Vol.: 57
Chanel 4 Note On - Duracao: 282120 Nota: C1 Vol.: 60
Chanel 8 Note Off - Duracao: 282300 Nota: C1 Vol.: 69
Chanel 8 Note On - Duracao: 282300 Nota: C1 Vol.: 55
Chanel 3 Note Off - Duracao: 282600 Nota: C1 Vol.: 45
Chanel 3 Note On - Duracao: 282600 Nota: C1 Vol.: 45
Chanel 4 Note Off - Duracao: 282600 Nota: C1 Vol.: 60
Chanel 4 Note On - Duracao: 282600 Nota: C1 Vol.: 60
Chanel 7 Note Off - Duracao: 282840 Nota: C1 Vol.: 43
Chanel 7 Note On - Duracao: 282840 Nota: C1 Vol.: 43
Chanel 9 Note Off - Duracao: 282900 Nota: C1 Vol.: 56
Chanel 9 Note On - Duracao: 282900 Nota: C1 Vol.: 66
Chanel 4 Note Off - Duracao: 283080 Nota: C1 Vol.: 60
Chanel 4 Note On - Duracao: 283080 Nota: C1 Vol.: 61
Chanel 2 Note Off - Duracao: 283260 Nota: C1 Vol.: 44
Chanel 2 Note On - Duracao: 283260 Nota: C1 Vol.: 42
Chanel 8 Note Off - Duracao: 283260 Nota: C1 Vol.: 55
Chanel 8 Note On - Duracao: 283260 Nota: C1 Vol.: 57
Chanel 9 Note Off - Duracao: 283380 Nota: C1 Vol.: 66
Chanel 9 Note On - Duracao: 283380 Nota: C1 Vol.: 64
Chanel 4 Note Off - Duracao: 283560 Nota: C1 Vol.: 61
Chanel 4 Note On - Duracao: 283560 Nota: C1 Vol.: 56
Chanel 5 Note Off - Duracao: 283800 Nota: C1 Vol.: 52
Chanel 5 Note On - Duracao: 283800 Nota: C1 Vol.: 48
Chanel 9 Note Off - Duracao: 283860 Nota: C1 Vol.: 64
Chanel 9 Note On - Duracao: 283860 Nota: C1 Vol.: 65
Chanel 4 Note Off - Duracao: 284040 Nota: C1 Vol.: 56
Chanel 4 Note On - Duracao: 284040 Nota: C1 Vol.: 48
Chanel 8 Note Off - Duracao: 284220 Nota: C1 Vol.: 57
Chanel 8 Note On - Duracao: 284220 Nota: C1 Vol.: 57
Chanel 9 Note Off - Duracao: 284340 Nota: C1 Vol.: 65
Chanel 9 Note On - Duracao: 284340 Nota: C1 Vol.: 70
Chanel 3 Note Off - Duracao: 284520 Nota: C1 Vol.: 45
Chanel 3 Note On - Duracao: 284520 Nota: C1 Vol.: 49
Chanel 9 Note Off - Duracao: 284820 Nota: C1 Vol.: 70
Chanel 9 Note On - Duracao: 284820 Nota: C1 Vol.: 69
Chanel 6 Note Off - Duracao: 284880 Nota: C1 Vol.: 52
Chanel 6 Note On - Duracao: 284880 Nota: C1 Vol.: 56
Chanel 4 Note Off - Duracao: 285000 Nota: C1 Vol.: 48
Chanel 4 Note On - Duracao: 285000 Nota: C1 Vol.: 47
Chanel 2 Note Off - Duracao: 285180 Nota: C1 Vol.: 42
Chanel 2 Note On - Duracao: 285180 Nota: C1 Vol.: 40
Chanel 8 Note Off - Duracao: 285180 Nota: C1 Vol.: 57
Chanel 8 Note On - Duracao: 285180 Nota: C1 Vol.: 56
Chanel 9 Note Off - Duracao: 285300 Nota: C1 Vol.: 69
Chanel 9 Note On - Duracao: 285300 Nota: C1 Vol.: 69
Chanel 3 Note Off - Duracao: 285480 Nota: C1 Vol.: 49
Chanel 3 Note On - Duracao: 285480 Nota: C1 Vol.: 57
Chanel 9 Note Off - Duracao: 285780 Nota: C1 Vol.: 69
Chanel 9 Note On - Duracao: 285780 Nota: C1 Vol.: 71
Chanel 3 Note Off - Duracao: 285960 Nota: C1 Vol.: 57
Chanel 3 Note On - Duracao: 285960 Nota: C1 Vol.: 58
Chanel 4 Note Off - Duracao: 285960 Nota: C1 Vol.: 47
Chanel 4 Note On - Duracao: 285960 Nota: C1 Vol.: 48
Chanel 8 Note Off - Duracao: 286140 Nota: C1 Vol.: 56
Chanel 8 Note On - Duracao: 286140 Nota: C1 Vol.: 64
Chanel 9 Note Off - Duracao: 286260 Nota: C1 Vol.: 71
Chanel 9 Note On - Duracao: 286260 Nota: C1 Vol.: 74
Chanel 3 Note Off - Duracao: 286440 Nota: C1 Vol.: 58
Chanel 3 Note On - Duracao: 286440 Nota: C1 Vol.: 68
Chanel 3 Note Off - Duracao: 286680 Nota: C1 Vol.: 68
Chanel 3 Note On - Duracao: 286680 Nota: C1 Vol.: 77
Chanel 7 Note Off - Duracao: 286680 Nota: C1 Vol.: 43
Chanel 7 Note On - Duracao: 286680 Nota: C1 Vol.: 45
Chanel 9 Note Off - Duracao: 286740 Nota: C1 Vol.: 74
Chanel 9 Note On - Duracao: 286740 Nota: C1 Vol.: 70
Chanel 3 Note Off - Duracao: 286800 Nota: C1 Vol.: 77
Chanel 3 Note On - Duracao: 286800 Nota: C1 Vol.: 78
Chanel 6 Note Off - Duracao: 286800 Nota: C1 Vol.: 56
Chanel 6 Note On - Duracao: 286800 Nota: C1 Vol.: 57
Chanel 3 Note Off - Duracao: 286920 Nota: C1 Vol.: 78
Chanel 3 Note On - Duracao: 286920 Nota: C1 Vol.: 68
Chanel 4 Note Off - Duracao: 286920 Nota: C1 Vol.: 48
Chanel 4 Note On - Duracao: 286920 Nota: C1 Vol.: 57
Chanel 2 Note Off - Duracao: 287100 Nota: C1 Vol.: 40
Chanel 2 Note On - Duracao: 287100 Nota: C1 Vol.: 40
Chanel 8 Note Off - Duracao: 287100 Nota: C1 Vol.: 64
Chanel 8 Note On - Duracao: 287100 Nota: C1 Vol.: 61
Chanel 3 Note Off - Duracao: 287160 Nota: C1 Vol.: 68
Chanel 3 Note On - Duracao: 287160 Nota: C1 Vol.: 62
Chanel 9 Note Off - Duracao: 287220 Nota: C1 Vol.: 70
Chanel 9 Note On - Duracao: 287220 Nota: C1 Vol.: 72
Chanel 3 Note Off - Duracao: 287400 Nota: C1 Vol.: 62
Chanel 3 Note On - Duracao: 287400 Nota: C1 Vol.: 64
Chanel 4 Note Off - Duracao: 287400 Nota: C1 Vol.: 57
Chanel 4 Note On - Duracao: 287400 Nota: C1 Vol.: 62
Chanel 8 Note Off - Duracao: 287580 Nota: C1 Vol.: 61
Chanel 8 Note On - Duracao: 287580 Nota: C1 Vol.: 48
Chanel 3 Note Off - Duracao: 287640 Nota: C1 Vol.: 64
Chanel 3 Note On - Duracao: 287640 Nota: C1 Vol.: 63
Chanel 5 Note Off - Duracao: 287640 Nota: C1 Vol.: 48
Chanel 5 Note On - Duracao: 287640 Nota: C1 Vol.: 63
Chanel 9 Note Off - Duracao: 287700 Nota: C1 Vol.: 72
Chanel 9 Note On - Duracao: 287700 Nota: C1 Vol.: 63
Chanel 3 Note Off - Duracao: 287880 Nota: C1 Vol.: 63
Chanel 3 Note On - Duracao: 287880 Nota: C1 Vol.: 56
Chanel 4 Note Off - Duracao: 287880 Nota: C1 Vol.: 62
Chanel 4 Note On - Duracao: 287880 Nota: C1 Vol.: 70
Chanel 4 Note Off - Duracao: 288120 Nota: C1 Vol.: 70
Chanel 4 Note On - Duracao: 288120 Nota: C1 Vol.: 73
Chanel 3 Note Off - Duracao: 288360 Nota: C1 Vol.: 56
Chanel 3 Note On - Duracao: 288360 Nota: C1 Vol.: 60
Chanel 4 Note Off - Duracao: 288360 Nota: C1 Vol.: 73
Chanel 4 Note On - Duracao: 288360 Nota: C1 Vol.: 67
Chanel 8 Note Off - Duracao: 288540 Nota: C1 Vol.: 48
Chanel 8 Note On - Duracao: 288540 Nota: C1 Vol.: 51
Chanel 4 Note Off - Duracao: 288600 Nota: C1 Vol.: 67
Chanel 4 Note On - Duracao: 288600 Nota: C1 Vol.: 60
Chanel 5 Note Off - Duracao: 288600 Nota: C1 Vol.: 63
Chanel 5 Note On - Duracao: 288600 Nota: C1 Vol.: 88
Chanel 7 Note Off - Duracao: 288600 Nota: C1 Vol.: 45
Chanel 7 Note On - Duracao: 288600 Nota: C1 Vol.: 50
Chanel 9 Note Off - Duracao: 288660 Nota: C1 Vol.: 63
Chanel 9 Note On - Duracao: 288660 Nota: C1 Vol.: 63
Chanel 5 Note Off - Duracao: 288720 Nota: C1 Vol.: 88
Chanel 5 Note On - Duracao: 288720 Nota: C1 Vol.: 89
Chanel 6 Note Off - Duracao: 288720 Nota: C1 Vol.: 57
Chanel 6 Note On - Duracao: 288720 Nota: C1 Vol.: 57
Chanel 3 Note Off - Duracao: 288840 Nota: C1 Vol.: 60
Chanel 3 Note On - Duracao: 288840 Nota: C1 Vol.: 66
Chanel 5 Note Off - Duracao: 288840 Nota: C1 Vol.: 89
Chanel 5 Note On - Duracao: 288840 Nota: C1 Vol.: 90
Chanel 5 Note Off - Duracao: 288960 Nota: C1 Vol.: 90
Chanel 5 Note On - Duracao: 288960 Nota: C1 Vol.: 91
Chanel 2 Note Off - Duracao: 289020 Nota: C1 Vol.: 40
Chanel 2 Note On - Duracao: 289020 Nota: C1 Vol.: 65
Chanel 8 Note Off - Duracao: 289020 Nota: C1 Vol.: 51
Chanel 8 Note On - Duracao: 289020 Nota: C1 Vol.: 51
Chanel 3 Note Off - Duracao: 289080 Nota: C1 Vol.: 66
Chanel 3 Note On - Duracao: 289080 Nota: C1 Vol.: 56
Chanel 4 Note Off - Duracao: 289080 Nota: C1 Vol.: 60
Chanel 4 Note On - Duracao: 289080 Nota: C1 Vol.: 40
Chanel 5 Note Off - Duracao: 289080 Nota: C1 Vol.: 91
Chanel 5 Note On - Duracao: 289080 Nota: C1 Vol.: 89
Chanel 5 Note Off - Duracao: 289200 Nota: C1 Vol.: 89
Chanel 5 Note On - Duracao: 289200 Nota: C1 Vol.: 88
Chanel 2 Note Off - Duracao: 289260 Nota: C1 Vol.: 65
Chanel 2 Note On - Duracao: 289260 Nota: C1 Vol.: 67
Chanel 8 Note Off - Duracao: 289260 Nota: C1 Vol.: 51
Chanel 8 Note On - Duracao: 289260 Nota: C1 Vol.: 51
Chanel 5 Note Off - Duracao: 289320 Nota: C1 Vol.: 88
Chanel 5 Note On - Duracao: 289320 Nota: C1 Vol.: 88
Chanel 8 Note Off - Duracao: 289380 Nota: C1 Vol.: 51
Chanel 8 Note On - Duracao: 289380 Nota: C1 Vol.: 50
Chanel 5 Note Off - Duracao: 289440 Nota: C1 Vol.: 88
Chanel 5 Note On - Duracao: 289440 Nota: C1 Vol.: 86
Chanel 2 Note Off - Duracao: 289500 Nota: C1 Vol.: 67
Chanel 2 Note On - Duracao: 289500 Nota: C1 Vol.: 64
Chanel 8 Note Off - Duracao: 289500 Nota: C1 Vol.: 50
Chanel 8 Note On - Duracao: 289500 Nota: C1 Vol.: 51
Chanel 3 Note Off - Duracao: 289560 Nota: C1 Vol.: 56
Chanel 3 Note On - Duracao: 289560 Nota: C1 Vol.: 54
Chanel 5 Note Off - Duracao: 289560 Nota: C1 Vol.: 86
Chanel 5 Note On - Duracao: 289560 Nota: C1 Vol.: 90
Chanel 8 Note Off - Duracao: 289620 Nota: C1 Vol.: 51
Chanel 8 Note On - Duracao: 289620 Nota: C1 Vol.: 45
Chanel 9 Note Off - Duracao: 289620 Nota: C1 Vol.: 63
Chanel 9 Note On - Duracao: 289620 Nota: C1 Vol.: 68
Chanel 5 Note Off - Duracao: 289680 Nota: C1 Vol.: 90
Chanel 5 Note On - Duracao: 289680 Nota: C1 Vol.: 96
Chanel 2 Note Off - Duracao: 289740 Nota: C1 Vol.: 64
Chanel 2 Note On - Duracao: 289740 Nota: C1 Vol.: 61
Chanel 5 Note Off - Duracao: 289740 Nota: C1 Vol.: 96
Chanel 5 Note On - Duracao: 289740 Nota: C1 Vol.: 98
Chanel 8 Note Off - Duracao: 289740 Nota: C1 Vol.: 45
Chanel 8 Note On - Duracao: 289740 Nota: C1 Vol.: 41
Chanel 5 Note Off - Duracao: 289800 Nota: C1 Vol.: 98
Chanel 5 Note On - Duracao: 289800 Nota: C1 Vol.: 70
Chanel 2 Note Off - Duracao: 289980 Nota: C1 Vol.: 61
Chanel 2 Note On - Duracao: 289980 Nota: C1 Vol.: 58
Chanel 8 Note Off - Duracao: 289980 Nota: C1 Vol.: 41
Chanel 8 Note On - Duracao: 289980 Nota: C1 Vol.: 50
Chanel 3 Note Off - Duracao: 290040 Nota: C1 Vol.: 54
Chanel 3 Note On - Duracao: 290040 Nota: C1 Vol.: 67
Chanel 8 Note Off - Duracao: 290100 Nota: C1 Vol.: 50
Chanel 8 Note On - Duracao: 290100 Nota: C1 Vol.: 53
Chanel 9 Note Off - Duracao: 290100 Nota: C1 Vol.: 68
Chanel 9 Note On - Duracao: 290100 Nota: C1 Vol.: 60
Chanel 2 Note Off - Duracao: 290220 Nota: C1 Vol.: 58
Chanel 2 Note On - Duracao: 290220 Nota: C1 Vol.: 52
Chanel 8 Note Off - Duracao: 290220 Nota: C1 Vol.: 53
Chanel 8 Note On - Duracao: 290220 Nota: C1 Vol.: 48
Chanel 3 Note Off - Duracao: 290280 Nota: C1 Vol.: 67
Chanel 3 Note On - Duracao: 290280 Nota: C1 Vol.: 69
Chanel 5 Note Off - Duracao: 290280 Nota: C1 Vol.: 70
Chanel 5 Note On - Duracao: 290280 Nota: C1 Vol.: 99
Chanel 5 Note Off - Duracao: 290340 Nota: C1 Vol.: 99
Chanel 5 Note On - Duracao: 290340 Nota: C1 Vol.: 100
Chanel 5 Note Off - Duracao: 290400 Nota: C1 Vol.: 100
Chanel 5 Note On - Duracao: 290400 Nota: C1 Vol.: 100
Chanel 2 Note Off - Duracao: 290460 Nota: C1 Vol.: 52
Chanel 2 Note On - Duracao: 290460 Nota: C1 Vol.: 52
Chanel 5 Note Off - Duracao: 290460 Nota: C1 Vol.: 100
Chanel 5 Note On - Duracao: 290460 Nota: C1 Vol.: 99
Chanel 8 Note Off - Duracao: 290460 Nota: C1 Vol.: 48
Chanel 8 Note On - Duracao: 290460 Nota: C1 Vol.: 43
Chanel 3 Note Off - Duracao: 290520 Nota: C1 Vol.: 69
Chanel 3 Note On - Duracao: 290520 Nota: C1 Vol.: 45
Chanel 5 Note Off - Duracao: 290520 Nota: C1 Vol.: 99
Chanel 5 Note On - Duracao: 290520 Nota: C1 Vol.: 99
Chanel 7 Note Off - Duracao: 290520 Nota: C1 Vol.: 50
Chanel 7 Note On - Duracao: 290520 Nota: C1 Vol.: 51
Chanel 5 Note Off - Duracao: 290580 Nota: C1 Vol.: 99
Chanel 5 Note On - Duracao: 290580 Nota: C1 Vol.: 100
Chanel 5 Note Off - Duracao: 290640 Nota: C1 Vol.: 100
Chanel 5 Note On - Duracao: 290640 Nota: C1 Vol.: 100
Chanel 6 Note Off - Duracao: 290640 Nota: C1 Vol.: 57
Chanel 6 Note On - Duracao: 290640 Nota: C1 Vol.: 56
Chanel 2 Note Off - Duracao: 290700 Nota: C1 Vol.: 52
Chanel 2 Note On - Duracao: 290700 Nota: C1 Vol.: 48
Chanel 5 Note Off - Duracao: 290700 Nota: C1 Vol.: 100
Chanel 5 Note On - Duracao: 290700 Nota: C1 Vol.: 98
Chanel 5 Note Off - Duracao: 290760 Nota: C1 Vol.: 98
Chanel 5 Note On - Duracao: 290760 Nota: C1 Vol.: 98
Chanel 5 Note Off - Duracao: 290820 Nota: C1 Vol.: 98
Chanel 5 Note On - Duracao: 290820 Nota: C1 Vol.: 98
Chanel 5 Note Off - Duracao: 290940 Nota: C1 Vol.: 98
Chanel 5 Note On - Duracao: 290940 Nota: C1 Vol.: 99
Chanel 8 Note Off - Duracao: 290940 Nota: C1 Vol.: 43
Chanel 8 Note On - Duracao: 290940 Nota: C1 Vol.: 40
Chanel 4 Note Off - Duracao: 291000 Nota: C1 Vol.: 40
Chanel 4 Note On - Duracao: 291000 Nota: C1 Vol.: 59
Chanel 5 Note Off - Duracao: 291000 Nota: C1 Vol.: 99
Chanel 5 Note On - Duracao: 291000 Nota: C1 Vol.: 97
Chanel 5 Note Off - Duracao: 291060 Nota: C1 Vol.: 97
Chanel 5 Note On - Duracao: 291060 Nota: C1 Vol.: 97
Chanel 9 Note Off - Duracao: 291060 Nota: C1 Vol.: 60
Chanel 9 Note On - Duracao: 291060 Nota: C1 Vol.: 64
Chanel 5 Note Off - Duracao: 291120 Nota: C1 Vol.: 97
Chanel 5 Note On - Duracao: 291120 Nota: C1 Vol.: 99
Chanel 2 Note Off - Duracao: 291180 Nota: C1 Vol.: 48
Chanel 2 Note On - Duracao: 291180 Nota: C1 Vol.: 44
Chanel 5 Note Off - Duracao: 291180 Nota: C1 Vol.: 99
Chanel 5 Note On - Duracao: 291180 Nota: C1 Vol.: 99
Chanel 4 Note Off - Duracao: 291240 Nota: C1 Vol.: 59
Chanel 4 Note On - Duracao: 291240 Nota: C1 Vol.: 57
Chanel 5 Note Off - Duracao: 291240 Nota: C1 Vol.: 99
Chanel 5 Note On - Duracao: 291240 Nota: C1 Vol.: 98
Chanel 5 Note Off - Duracao: 291360 Nota: C1 Vol.: 98
Chanel 5 Note On - Duracao: 291360 Nota: C1 Vol.: 98
Chanel 8 Note Off - Duracao: 291420 Nota: C1 Vol.: 40
Chanel 8 Note On - Duracao: 291420 Nota: C1 Vol.: 59
Chanel 3 Note Off - Duracao: 291480 Nota: C1 Vol.: 45
Chanel 3 Note On - Duracao: 291480 Nota: C1 Vol.: 60
Chanel 5 Note Off - Duracao: 291480 Nota: C1 Vol.: 98
Chanel 5 Note On - Duracao: 291480 Nota: C1 Vol.: 92
Chanel 9 Note Off - Duracao: 291540 Nota: C1 Vol.: 64
Chanel 9 Note On - Duracao: 291540 Nota: C1 Vol.: 58
Chanel 5 Note Off - Duracao: 291600 Nota: C1 Vol.: 92
Chanel 5 Note On - Duracao: 291600 Nota: C1 Vol.: 83
Chanel 2 Note Off - Duracao: 291660 Nota: C1 Vol.: 44
Chanel 2 Note On - Duracao: 291660 Nota: C1 Vol.: 40
Chanel 8 Note Off - Duracao: 291660 Nota: C1 Vol.: 59
Chanel 8 Note On - Duracao: 291660 Nota: C1 Vol.: 40
Chanel 4 Note Off - Duracao: 291720 Nota: C1 Vol.: 57
Chanel 4 Note On - Duracao: 291720 Nota: C1 Vol.: 49
Chanel 5 Note Off - Duracao: 291840 Nota: C1 Vol.: 83
Chanel 5 Note On - Duracao: 291840 Nota: C1 Vol.: 64
Chanel 3 Note Off - Duracao: 291960 Nota: C1 Vol.: 60
Chanel 3 Note On - Duracao: 291960 Nota: C1 Vol.: 54
Chanel 9 Note Off - Duracao: 292020 Nota: C1 Vol.: 58
Chanel 9 Note On - Duracao: 292020 Nota: C1 Vol.: 64
Chanel 2 Note Off - Duracao: 292140 Nota: C1 Vol.: 40
Chanel 2 Note On - Duracao: 292140 Nota: C1 Vol.: 48
Chanel 4 Note Off - Duracao: 292200 Nota: C1 Vol.: 49
Chanel 4 Note On - Duracao: 292200 Nota: C1 Vol.: 61
Chanel 3 Note Off - Duracao: 292440 Nota: C1 Vol.: 54
Chanel 3 Note On - Duracao: 292440 Nota: C1 Vol.: 55
Chanel 4 Note Off - Duracao: 292440 Nota: C1 Vol.: 61
Chanel 4 Note On - Duracao: 292440 Nota: C1 Vol.: 60
Chanel 7 Note Off - Duracao: 292440 Nota: C1 Vol.: 51
Chanel 7 Note On - Duracao: 292440 Nota: C1 Vol.: 62
Chanel 9 Note Off - Duracao: 292500 Nota: C1 Vol.: 64
Chanel 9 Note On - Duracao: 292500 Nota: C1 Vol.: 65
Chanel 6 Note Off - Duracao: 292560 Nota: C1 Vol.: 56
Chanel 6 Note On - Duracao: 292560 Nota: C1 Vol.: 59
Chanel 2 Note Off - Duracao: 292620 Nota: C1 Vol.: 48
Chanel 2 Note On - Duracao: 292620 Nota: C1 Vol.: 57
Chanel 4 Note Off - Duracao: 292680 Nota: C1 Vol.: 60
Chanel 4 Note On - Duracao: 292680 Nota: C1 Vol.: 60
Chanel 5 Note Off - Duracao: 292800 Nota: C1 Vol.: 64
Chanel 5 Note On - Duracao: 292800 Nota: C1 Vol.: 70
Chanel 2 Note Off - Duracao: 292860 Nota: C1 Vol.: 57
Chanel 2 Note On - Duracao: 292860 Nota: C1 Vol.: 40
Chanel 3 Note Off - Duracao: 292920 Nota: C1 Vol.: 55
Chanel 3 Note On - Duracao: 292920 Nota: C1 Vol.: 43
Chanel 4 Note Off - Duracao: 292920 Nota: C1 Vol.: 60
Chanel 4 Note On - Duracao: 292920 Nota: C1 Vol.: 44
Chanel 9 Note Off - Duracao: 292980 Nota: C1 Vol.: 65
Chanel 9 Note On - Duracao: 292980 Nota: C1 Vol.: 57
Chanel 5 Note Off - Duracao: 293280 Nota: C1 Vol.: 70
Chanel 5 Note On - Duracao: 293280 Nota: C1 Vol.: 80
Chanel 5 Note Off - Duracao: 293400 Nota: C1 Vol.: 80
Chanel 5 Note On - Duracao: 293400 Nota: C1 Vol.: 76
Chanel 7 Note Off - Duracao: 293400 Nota: C1 Vol.: 62
Chanel 7 Note On - Duracao: 293400 Nota: C1 Vol.: 62
Chanel 8 Note Off - Duracao: 293580 Nota: C1 Vol.: 40
Chanel 8 Note On - Duracao: 293580 Nota: C1 Vol.: 40
Chanel 5 Note Off - Duracao: 293640 Nota: C1 Vol.: 76
Chanel 5 Note On - Duracao: 293640 Nota: C1 Vol.: 67
Chanel 4 Note Off - Duracao: 293880 Nota: C1 Vol.: 44
Chanel 4 Note On - Duracao: 293880 Nota: C1 Vol.: 55
Chanel 9 Note Off - Duracao: 293940 Nota: C1 Vol.: 57
Chanel 9 Note On - Duracao: 293940 Nota: C1 Vol.: 52
Chanel 4 Note Off - Duracao: 294120 Nota: C1 Vol.: 55
Chanel 4 Note On - Duracao: 294120 Nota: C1 Vol.: 42
Chanel 5 Note Off - Duracao: 294120 Nota: C1 Vol.: 67
Chanel 5 Note On - Duracao: 294120 Nota: C1 Vol.: 51
Chanel 7 Note Off - Duracao: 294360 Nota: C1 Vol.: 62
Chanel 7 Note On - Duracao: 294360 Nota: C1 Vol.: 48
Chanel 6 Note Off - Duracao: 294480 Nota: C1 Vol.: 59
Chanel 6 Note On - Duracao: 294480 Nota: C1 Vol.: 61
Chanel 2 Note Off - Duracao: 294780 Nota: C1 Vol.: 40
Chanel 2 Note On - Duracao: 294780 Nota: C1 Vol.: 40
Chanel 3 Note Off - Duracao: 294840 Nota: C1 Vol.: 43
Chanel 3 Note On - Duracao: 294840 Nota: C1 Vol.: 40
Chanel 9 Note Off - Duracao: 294900 Nota: C1 Vol.: 52
Chanel 9 Note On - Duracao: 294900 Nota: C1 Vol.: 56
Chanel 4 Note Off - Duracao: 295080 Nota: C1 Vol.: 42
Chanel 4 Note On - Duracao: 295080 Nota: C1 Vol.: 49
Chanel 5 Note Off - Duracao: 295080 Nota: C1 Vol.: 51
Chanel 5 Note On - Duracao: 295080 Nota: C1 Vol.: 55
Chanel 8 Note Off - Duracao: 295500 Nota: C1 Vol.: 40
Chanel 8 Note On - Duracao: 295500 Nota: C1 Vol.: 42
Chanel 4 Note Off - Duracao: 295560 Nota: C1 Vol.: 49
Chanel 4 Note On - Duracao: 295560 Nota: C1 Vol.: 62
Chanel 5 Note Off - Duracao: 295560 Nota: C1 Vol.: 55
Chanel 5 Note On - Duracao: 295560 Nota: C1 Vol.: 55
Chanel 4 Note Off - Duracao: 295800 Nota: C1 Vol.: 62
Chanel 4 Note On - Duracao: 295800 Nota: C1 Vol.: 54
Chanel 9 Note Off - Duracao: 295860 Nota: C1 Vol.: 56
Chanel 9 Note On - Duracao: 295860 Nota: C1 Vol.: 59
Chanel 5 Note Off - Duracao: 296040 Nota: C1 Vol.: 55
Chanel 5 Note On - Duracao: 296040 Nota: C1 Vol.: 57
Chanel 4 Note Off - Duracao: 296280 Nota: C1 Vol.: 54
Chanel 4 Note On - Duracao: 296280 Nota: C1 Vol.: 48
Chanel 7 Note Off - Duracao: 296280 Nota: C1 Vol.: 48
Chanel 7 Note On - Duracao: 296280 Nota: C1 Vol.: 49
Chanel 9 Note Off - Duracao: 296340 Nota: C1 Vol.: 59
Chanel 9 Note On - Duracao: 296340 Nota: C1 Vol.: 57
Chanel 6 Note Off - Duracao: 296400 Nota: C1 Vol.: 61
Chanel 6 Note On - Duracao: 296400 Nota: C1 Vol.: 54
Chanel 5 Note Off - Duracao: 296520 Nota: C1 Vol.: 57
Chanel 5 Note On - Duracao: 296520 Nota: C1 Vol.: 46
Chanel 2 Note Off - Duracao: 296700 Nota: C1 Vol.: 40
Chanel 2 Note On - Duracao: 296700 Nota: C1 Vol.: 40
Chanel 9 Note Off - Duracao: 296820 Nota: C1 Vol.: 57
Chanel 9 Note On - Duracao: 296820 Nota: C1 Vol.: 60
Chanel 4 Note Off - Duracao: 297240 Nota: C1 Vol.: 48
Chanel 4 Note On - Duracao: 297240 Nota: C1 Vol.: 81
Chanel 9 Note Off - Duracao: 297300 Nota: C1 Vol.: 60
Chanel 9 Note On - Duracao: 297300 Nota: C1 Vol.: 58
Chanel 4 Note Off - Duracao: 297360 Nota: C1 Vol.: 81
Chanel 4 Note On - Duracao: 297360 Nota: C1 Vol.: 86
Chanel 8 Note Off - Duracao: 297420 Nota: C1 Vol.: 42
Chanel 8 Note On - Duracao: 297420 Nota: C1 Vol.: 42
Chanel 4 Note Off - Duracao: 297480 Nota: C1 Vol.: 86
Chanel 4 Note On - Duracao: 297480 Nota: C1 Vol.: 88
Chanel 5 Note Off - Duracao: 297480 Nota: C1 Vol.: 46
Chanel 5 Note On - Duracao: 297480 Nota: C1 Vol.: 48
Chanel 4 Note Off - Duracao: 297600 Nota: C1 Vol.: 88
Chanel 4 Note On - Duracao: 297600 Nota: C1 Vol.: 89
Chanel 4 Note Off - Duracao: 297720 Nota: C1 Vol.: 89
Chanel 4 Note On - Duracao: 297720 Nota: C1 Vol.: 79
Chanel 9 Note Off - Duracao: 297780 Nota: C1 Vol.: 58
Chanel 9 Note On - Duracao: 297780 Nota: C1 Vol.: 54
Chanel 4 Note Off - Duracao: 297960 Nota: C1 Vol.: 79
Chanel 4 Note On - Duracao: 297960 Nota: C1 Vol.: 98
Chanel 4 Note Off - Duracao: 298020 Nota: C1 Vol.: 98
Chanel 4 Note On - Duracao: 298020 Nota: C1 Vol.: 99
Chanel 4 Note Off - Duracao: 298080 Nota: C1 Vol.: 99
Chanel 4 Note On - Duracao: 298080 Nota: C1 Vol.: 99
Chanel 4 Note Off - Duracao: 298140 Nota: C1 Vol.: 99
Chanel 4 Note On - Duracao: 298140 Nota: C1 Vol.: 86
Chanel 4 Note Off - Duracao: 298380 Nota: C1 Vol.: 86
Chanel 4 Note On - Duracao: 298380 Nota: C1 Vol.: 68
Chanel 5 Note Off - Duracao: 298440 Nota: C1 Vol.: 48
Chanel 5 Note On - Duracao: 298440 Nota: C1 Vol.: 59
Chanel 2 Note Off - Duracao: 298620 Nota: C1 Vol.: 40
Chanel 2 Note On - Duracao: 298620 Nota: C1 Vol.: 40
Chanel 3 Note Off - Duracao: 298680 Nota: C1 Vol.: 40
Chanel 3 Note On - Duracao: 298680 Nota: C1 Vol.: 40
Chanel 9 Note Off - Duracao: 298740 Nota: C1 Vol.: 54
Chanel 9 Note On - Duracao: 298740 Nota: C1 Vol.: 55
Chanel 4 Note Off - Duracao: 298860 Nota: C1 Vol.: 68
Chanel 4 Note On - Duracao: 298860 Nota: C1 Vol.: 97
Chanel 4 Note Off - Duracao: 298920 Nota: C1 Vol.: 97
Chanel 4 Note On - Duracao: 298920 Nota: C1 Vol.: 97
Chanel 5 Note Off - Duracao: 298920 Nota: C1 Vol.: 59
Chanel 5 Note On - Duracao: 298920 Nota: C1 Vol.: 62
Chanel 4 Note Off - Duracao: 298980 Nota: C1 Vol.: 97
Chanel 4 Note On - Duracao: 298980 Nota: C1 Vol.: 97
Chanel 4 Note Off - Duracao: 299040 Nota: C1 Vol.: 97
Chanel 4 Note On - Duracao: 299040 Nota: C1 Vol.: 95
Chanel 4 Note Off - Duracao: 299100 Nota: C1 Vol.: 95
Chanel 4 Note On - Duracao: 299100 Nota: C1 Vol.: 97
Chanel 4 Note Off - Duracao: 299160 Nota: C1 Vol.: 97
Chanel 4 Note On - Duracao: 299160 Nota: C1 Vol.: 80
Chanel 5 Note Off - Duracao: 299160 Nota: C1 Vol.: 62
Chanel 5 Note On - Duracao: 299160 Nota: C1 Vol.: 60
Chanel 8 Note Off - Duracao: 299340 Nota: C1 Vol.: 42
Chanel 8 Note On - Duracao: 299340 Nota: C1 Vol.: 40
Chanel 4 Note Off - Duracao: 299400 Nota: C1 Vol.: 80
Chanel 4 Note On - Duracao: 299400 Nota: C1 Vol.: 93
Chanel 5 Note Off - Duracao: 299400 Nota: C1 Vol.: 60
Chanel 5 Note On - Duracao: 299400 Nota: C1 Vol.: 57
Chanel 4 Note Off - Duracao: 299460 Nota: C1 Vol.: 93
Chanel 4 Note On - Duracao: 299460 Nota: C1 Vol.: 97
Chanel 4 Note Off - Duracao: 299520 Nota: C1 Vol.: 97
Chanel 4 Note On - Duracao: 299520 Nota: C1 Vol.: 98
Chanel 4 Note Off - Duracao: 299580 Nota: C1 Vol.: 98
Chanel 4 Note On - Duracao: 299580 Nota: C1 Vol.: 96
Chanel 4 Note Off - Duracao: 299640 Nota: C1 Vol.: 96
Chanel 4 Note On - Duracao: 299640 Nota: C1 Vol.: 87
Chanel 5 Note Off - Duracao: 299640 Nota: C1 Vol.: 57
Chanel 5 Note On - Duracao: 299640 Nota: C1 Vol.: 52
Chanel 9 Note Off - Duracao: 299700 Nota: C1 Vol.: 55
Chanel 9 Note On - Duracao: 299700 Nota: C1 Vol.: 54
Chanel 4 Note Off - Duracao: 299760 Nota: C1 Vol.: 87
Chanel 4 Note On - Duracao: 299760 Nota: C1 Vol.: 68
Chanel 5 Note Off - Duracao: 300120 Nota: C1 Vol.: 52
Chanel 5 Note On - Duracao: 300120 Nota: C1 Vol.: 55
Chanel 7 Note Off - Duracao: 300120 Nota: C1 Vol.: 49
Chanel 7 Note On - Duracao: 300120 Nota: C1 Vol.: 51
Chanel 4 Note Off - Duracao: 300240 Nota: C1 Vol.: 68
Chanel 4 Note On - Duracao: 300240 Nota: C1 Vol.: 93
Chanel 6 Note Off - Duracao: 300240 Nota: C1 Vol.: 54
Chanel 6 Note On - Duracao: 300240 Nota: C1 Vol.: 60
Chanel 4 Note Off - Duracao: 300360 Nota: C1 Vol.: 93
Chanel 4 Note On - Duracao: 300360 Nota: C1 Vol.: 100
Chanel 4 Note Off - Duracao: 300420 Nota: C1 Vol.: 100
Chanel 4 Note On - Duracao: 300420 Nota: C1 Vol.: 65
Chanel 3 Note Off - Duracao: 300600 Nota: C1 Vol.: 40
Chanel 3 Note On - Duracao: 300600 Nota: C1 Vol.: 42
Chanel 5 Note Off - Duracao: 300600 Nota: C1 Vol.: 55
Chanel 5 Note On - Duracao: 300600 Nota: C1 Vol.: 56
Chanel 9 Note Off - Duracao: 300660 Nota: C1 Vol.: 54
Chanel 9 Note On - Duracao: 300660 Nota: C1 Vol.: 50
Chanel 5 Note Off - Duracao: 300840 Nota: C1 Vol.: 56
Chanel 5 Note On - Duracao: 300840 Nota: C1 Vol.: 50
Chanel 8 Note Off - Duracao: 301260 Nota: C1 Vol.: 40
Chanel 8 Note On - Duracao: 301260 Nota: C1 Vol.: 40
Chanel 5 Note Off - Duracao: 301320 Nota: C1 Vol.: 50
Chanel 5 Note On - Duracao: 301320 Nota: C1 Vol.: 54
Chanel 4 Note Off - Duracao: 301380 Nota: C1 Vol.: 65
Chanel 4 Note On - Duracao: 301380 Nota: C1 Vol.: 61
Chanel 9 Note Off - Duracao: 301620 Nota: C1 Vol.: 50
Chanel 9 Note On - Duracao: 301620 Nota: C1 Vol.: 52
Chanel 5 Note Off - Duracao: 301800 Nota: C1 Vol.: 54
Chanel 5 Note On - Duracao: 301800 Nota: C1 Vol.: 54
Chanel 6 Note Off - Duracao: 302160 Nota: C1 Vol.: 60
Chanel 6 Note On - Duracao: 302160 Nota: C1 Vol.: 65
Chanel 5 Note Off - Duracao: 302280 Nota: C1 Vol.: 54
Chanel 5 Note On - Duracao: 302280 Nota: C1 Vol.: 57
Chanel 4 Note Off - Duracao: 302340 Nota: C1 Vol.: 61
Chanel 4 Note On - Duracao: 302340 Nota: C1 Vol.: 88
Chanel 2 Note Off - Duracao: 302460 Nota: C1 Vol.: 40
Chanel 2 Note On - Duracao: 302460 Nota: C1 Vol.: 40
Chanel 4 Note Off - Duracao: 302460 Nota: C1 Vol.: 88
Chanel 4 Note On - Duracao: 302460 Nota: C1 Vol.: 95
Chanel 3 Note Off - Duracao: 302520 Nota: C1 Vol.: 42
Chanel 3 Note On - Duracao: 302520 Nota: C1 Vol.: 43
Chanel 4 Note Off - Duracao: 302520 Nota: C1 Vol.: 95
Chanel 4 Note On - Duracao: 302520 Nota: C1 Vol.: 97
Chanel 4 Note Off - Duracao: 302580 Nota: C1 Vol.: 97
Chanel 4 Note On - Duracao: 302580 Nota: C1 Vol.: 99
Chanel 9 Note Off - Duracao: 302580 Nota: C1 Vol.: 52
Chanel 9 Note On - Duracao: 302580 Nota: C1 Vol.: 55
Chanel 4 Note Off - Duracao: 302640 Nota: C1 Vol.: 99
Chanel 4 Note On - Duracao: 302640 Nota: C1 Vol.: 96
Chanel 4 Note Off - Duracao: 302700 Nota: C1 Vol.: 96
Chanel 4 Note On - Duracao: 302700 Nota: C1 Vol.: 97
Chanel 4 Note Off - Duracao: 302760 Nota: C1 Vol.: 97
Chanel 4 Note On - Duracao: 302760 Nota: C1 Vol.: 95
Chanel 5 Note Off - Duracao: 302760 Nota: C1 Vol.: 57
Chanel 5 Note On - Duracao: 302760 Nota: C1 Vol.: 51
Chanel 4 Note Off - Duracao: 302820 Nota: C1 Vol.: 95
Chanel 4 Note On - Duracao: 302820 Nota: C1 Vol.: 60
Chanel 9 Note Off - Duracao: 303060 Nota: C1 Vol.: 55
Chanel 9 Note On - Duracao: 303060 Nota: C1 Vol.: 57
Chanel 8 Note Off - Duracao: 303180 Nota: C1 Vol.: 40
Chanel 8 Note On - Duracao: 303180 Nota: C1 Vol.: 40
Chanel 5 Note Off - Duracao: 303240 Nota: C1 Vol.: 51
Chanel 5 Note On - Duracao: 303240 Nota: C1 Vol.: 48
Chanel 9 Note Off - Duracao: 303540 Nota: C1 Vol.: 57
Chanel 9 Note On - Duracao: 303540 Nota: C1 Vol.: 61
Chanel 4 Note Off - Duracao: 303780 Nota: C1 Vol.: 60
Chanel 4 Note On - Duracao: 303780 Nota: C1 Vol.: 46
Chanel 9 Note Off - Duracao: 303780 Nota: C1 Vol.: 61
Chanel 9 Note On - Duracao: 303780 Nota: C1 Vol.: 66
Chanel 7 Note Off - Duracao: 303960 Nota: C1 Vol.: 51
Chanel 7 Note On - Duracao: 303960 Nota: C1 Vol.: 54
Chanel 9 Note Off - Duracao: 304020 Nota: C1 Vol.: 66
Chanel 9 Note On - Duracao: 304020 Nota: C1 Vol.: 55
Chanel 6 Note Off - Duracao: 304080 Nota: C1 Vol.: 65
Chanel 6 Note On - Duracao: 304080 Nota: C1 Vol.: 63
Chanel 5 Note Off - Duracao: 304200 Nota: C1 Vol.: 48
Chanel 5 Note On - Duracao: 304200 Nota: C1 Vol.: 64
Chanel 3 Note Off - Duracao: 304440 Nota: C1 Vol.: 43
Chanel 3 Note On - Duracao: 304440 Nota: C1 Vol.: 44
Chanel 5 Note Off - Duracao: 304440 Nota: C1 Vol.: 64
Chanel 5 Note On - Duracao: 304440 Nota: C1 Vol.: 57
Chanel 9 Note Off - Duracao: 304500 Nota: C1 Vol.: 55
Chanel 9 Note On - Duracao: 304500 Nota: C1 Vol.: 57
Chanel 5 Note Off - Duracao: 304680 Nota: C1 Vol.: 57
Chanel 5 Note On - Duracao: 304680 Nota: C1 Vol.: 49
Chanel 9 Note Off - Duracao: 304980 Nota: C1 Vol.: 57
Chanel 9 Note On - Duracao: 304980 Nota: C1 Vol.: 69
Chanel 8 Note Off - Duracao: 305100 Nota: C1 Vol.: 40
Chanel 8 Note On - Duracao: 305100 Nota: C1 Vol.: 40
Chanel 9 Note Off - Duracao: 305220 Nota: C1 Vol.: 69
Chanel 9 Note On - Duracao: 305220 Nota: C1 Vol.: 65
Chanel 9 Note Off - Duracao: 305460 Nota: C1 Vol.: 65
Chanel 9 Note On - Duracao: 305460 Nota: C1 Vol.: 71
Chanel 5 Note Off - Duracao: 305640 Nota: C1 Vol.: 49
Chanel 5 Note On - Duracao: 305640 Nota: C1 Vol.: 54
Chanel 4 Note Off - Duracao: 305700 Nota: C1 Vol.: 46
Chanel 4 Note On - Duracao: 305700 Nota: C1 Vol.: 89
Chanel 9 Note Off - Duracao: 305700 Nota: C1 Vol.: 71
Chanel 9 Note On - Duracao: 305700 Nota: C1 Vol.: 79
Chanel 4 Note Off - Duracao: 305820 Nota: C1 Vol.: 89
Chanel 4 Note On - Duracao: 305820 Nota: C1 Vol.: 87
Chanel 9 Note Off - Duracao: 305820 Nota: C1 Vol.: 79
Chanel 9 Note On - Duracao: 305820 Nota: C1 Vol.: 73
Chanel 4 Note Off - Duracao: 305940 Nota: C1 Vol.: 87
Chanel 4 Note On - Duracao: 305940 Nota: C1 Vol.: 99
Chanel 4 Note Off - Duracao: 306000 Nota: C1 Vol.: 99
Chanel 4 Note On - Duracao: 306000 Nota: C1 Vol.: 99
Chanel 6 Note Off - Duracao: 306000 Nota: C1 Vol.: 63
Chanel 6 Note On - Duracao: 306000 Nota: C1 Vol.: 53
Chanel 4 Note Off - Duracao: 306060 Nota: C1 Vol.: 99
Chanel 4 Note On - Duracao: 306060 Nota: C1 Vol.: 99
Chanel 9 Note Off - Duracao: 306060 Nota: C1 Vol.: 73
Chanel 9 Note On - Duracao: 306060 Nota: C1 Vol.: 82
Chanel 4 Note Off - Duracao: 306120 Nota: C1 Vol.: 99
Chanel 4 Note On - Duracao: 306120 Nota: C1 Vol.: 99
Chanel 5 Note Off - Duracao: 306120 Nota: C1 Vol.: 54
Chanel 5 Note On - Duracao: 306120 Nota: C1 Vol.: 56
Chanel 4 Note Off - Duracao: 306180 Nota: C1 Vol.: 99
Chanel 4 Note On - Duracao: 306180 Nota: C1 Vol.: 97
Chanel 9 Note Off - Duracao: 306180 Nota: C1 Vol.: 82
Chanel 9 Note On - Duracao: 306180 Nota: C1 Vol.: 90
Chanel 4 Note Off - Duracao: 306240 Nota: C1 Vol.: 97
Chanel 4 Note On - Duracao: 306240 Nota: C1 Vol.: 98
Chanel 2 Note Off - Duracao: 306300 Nota: C1 Vol.: 40
Chanel 2 Note On - Duracao: 306300 Nota: C1 Vol.: 41
Chanel 4 Note Off - Duracao: 306300 Nota: C1 Vol.: 98
Chanel 4 Note On - Duracao: 306300 Nota: C1 Vol.: 72
Chanel 9 Note Off - Duracao: 306300 Nota: C1 Vol.: 90
Chanel 9 Note On - Duracao: 306300 Nota: C1 Vol.: 90
Chanel 9 Note Off - Duracao: 306420 Nota: C1 Vol.: 90
Chanel 9 Note On - Duracao: 306420 Nota: C1 Vol.: 93
Chanel 9 Note Off - Duracao: 306540 Nota: C1 Vol.: 93
Chanel 9 Note On - Duracao: 306540 Nota: C1 Vol.: 93
Chanel 5 Note Off - Duracao: 306600 Nota: C1 Vol.: 56
Chanel 5 Note On - Duracao: 306600 Nota: C1 Vol.: 60
Chanel 9 Note Off - Duracao: 306660 Nota: C1 Vol.: 93
Chanel 9 Note On - Duracao: 306660 Nota: C1 Vol.: 95
Chanel 4 Note Off - Duracao: 306780 Nota: C1 Vol.: 72
Chanel 4 Note On - Duracao: 306780 Nota: C1 Vol.: 45
Chanel 9 Note Off - Duracao: 306780 Nota: C1 Vol.: 95
Chanel 9 Note On - Duracao: 306780 Nota: C1 Vol.: 72
Chanel 5 Note Off - Duracao: 306840 Nota: C1 Vol.: 60
Chanel 5 Note On - Duracao: 306840 Nota: C1 Vol.: 55
Chanel 8 Note Off - Duracao: 307020 Nota: C1 Vol.: 40
Chanel 8 Note On - Duracao: 307020 Nota: C1 Vol.: 47
Chanel 9 Note Off - Duracao: 307260 Nota: C1 Vol.: 72
Chanel 9 Note On - Duracao: 307260 Nota: C1 Vol.: 56
Chanel 5 Note Off - Duracao: 307320 Nota: C1 Vol.: 55
Chanel 5 Note On - Duracao: 307320 Nota: C1 Vol.: 58
Chanel 8 Note Off - Duracao: 307500 Nota: C1 Vol.: 47
Chanel 8 Note On - Duracao: 307500 Nota: C1 Vol.: 56
Chanel 8 Note Off - Duracao: 307740 Nota: C1 Vol.: 56
Chanel 8 Note On - Duracao: 307740 Nota: C1 Vol.: 43
Chanel 5 Note Off - Duracao: 307800 Nota: C1 Vol.: 58
Chanel 5 Note On - Duracao: 307800 Nota: C1 Vol.: 43
Chanel 7 Note Off - Duracao: 307800 Nota: C1 Vol.: 54
Chanel 7 Note On - Duracao: 307800 Nota: C1 Vol.: 57
Chanel 2 Note Off - Duracao: 308220 Nota: C1 Vol.: 41
Chanel 2 Note On - Duracao: 308220 Nota: C1 Vol.: 40
Chanel 8 Note Off - Duracao: 308220 Nota: C1 Vol.: 43
Chanel 8 Note On - Duracao: 308220 Nota: C1 Vol.: 49
Chanel 9 Note Off - Duracao: 308220 Nota: C1 Vol.: 56
Chanel 9 Note On - Duracao: 308220 Nota: C1 Vol.: 60
Chanel 3 Note Off - Duracao: 308280 Nota: C1 Vol.: 44
Chanel 3 Note On - Duracao: 308280 Nota: C1 Vol.: 61
Chanel 8 Note Off - Duracao: 308460 Nota: C1 Vol.: 49
Chanel 8 Note On - Duracao: 308460 Nota: C1 Vol.: 51
Chanel 4 Note Off - Duracao: 308700 Nota: C1 Vol.: 45
Chanel 4 Note On - Duracao: 308700 Nota: C1 Vol.: 67
Chanel 8 Note Off - Duracao: 308700 Nota: C1 Vol.: 51
Chanel 8 Note On - Duracao: 308700 Nota: C1 Vol.: 60
Chanel 8 Note Off - Duracao: 308820 Nota: C1 Vol.: 60
Chanel 8 Note On - Duracao: 308820 Nota: C1 Vol.: 49
Chanel 8 Note Off - Duracao: 309060 Nota: C1 Vol.: 49
Chanel 8 Note On - Duracao: 309060 Nota: C1 Vol.: 64
Chanel 4 Note Off - Duracao: 309180 Nota: C1 Vol.: 67
Chanel 4 Note On - Duracao: 309180 Nota: C1 Vol.: 88
Chanel 8 Note Off - Duracao: 309180 Nota: C1 Vol.: 64
Chanel 8 Note On - Duracao: 309180 Nota: C1 Vol.: 63
Chanel 9 Note Off - Duracao: 309180 Nota: C1 Vol.: 60
Chanel 9 Note On - Duracao: 309180 Nota: C1 Vol.: 50
Chanel 4 Note Off - Duracao: 309300 Nota: C1 Vol.: 88
Chanel 4 Note On - Duracao: 309300 Nota: C1 Vol.: 88
Chanel 8 Note Off - Duracao: 309300 Nota: C1 Vol.: 63
Chanel 8 Note On - Duracao: 309300 Nota: C1 Vol.: 66
Chanel 4 Note Off - Duracao: 309420 Nota: C1 Vol.: 88
Chanel 4 Note On - Duracao: 309420 Nota: C1 Vol.: 100
Chanel 8 Note Off - Duracao: 309420 Nota: C1 Vol.: 66
Chanel 8 Note On - Duracao: 309420 Nota: C1 Vol.: 65
Chanel 4 Note Off - Duracao: 309480 Nota: C1 Vol.: 100
Chanel 4 Note On - Duracao: 309480 Nota: C1 Vol.: 99
Chanel 4 Note Off - Duracao: 309540 Nota: C1 Vol.: 99
Chanel 4 Note On - Duracao: 309540 Nota: C1 Vol.: 98
Chanel 4 Note Off - Duracao: 309600 Nota: C1 Vol.: 98
Chanel 4 Note On - Duracao: 309600 Nota: C1 Vol.: 98
Chanel 4 Note Off - Duracao: 309660 Nota: C1 Vol.: 98
Chanel 4 Note On - Duracao: 309660 Nota: C1 Vol.: 93
Chanel 8 Note Off - Duracao: 309660 Nota: C1 Vol.: 65
Chanel 8 Note On - Duracao: 309660 Nota: C1 Vol.: 60
Chanel 5 Note Off - Duracao: 309720 Nota: C1 Vol.: 43
Chanel 5 Note On - Duracao: 309720 Nota: C1 Vol.: 55
Chanel 4 Note Off - Duracao: 309780 Nota: C1 Vol.: 93
Chanel 4 Note On - Duracao: 309780 Nota: C1 Vol.: 83
Chanel 6 Note Off - Duracao: 309840 Nota: C1 Vol.: 53
Chanel 6 Note On - Duracao: 309840 Nota: C1 Vol.: 57
Chanel 8 Note Off - Duracao: 309900 Nota: C1 Vol.: 60
Chanel 8 Note On - Duracao: 309900 Nota: C1 Vol.: 62
Chanel 4 Note Off - Duracao: 310020 Nota: C1 Vol.: 83
Chanel 4 Note On - Duracao: 310020 Nota: C1 Vol.: 69
Chanel 8 Note Off - Duracao: 310140 Nota: C1 Vol.: 62
Chanel 8 Note On - Duracao: 310140 Nota: C1 Vol.: 62
Chanel 9 Note Off - Duracao: 310140 Nota: C1 Vol.: 50
Chanel 9 Note On - Duracao: 310140 Nota: C1 Vol.: 48
Chanel 3 Note Off - Duracao: 310200 Nota: C1 Vol.: 61
Chanel 3 Note On - Duracao: 310200 Nota: C1 Vol.: 66
Chanel 8 Note Off - Duracao: 310380 Nota: C1 Vol.: 62
Chanel 8 Note On - Duracao: 310380 Nota: C1 Vol.: 59
Chanel 4 Note Off - Duracao: 310500 Nota: C1 Vol.: 69
Chanel 4 Note On - Duracao: 310500 Nota: C1 Vol.: 66
Chanel 8 Note Off - Duracao: 310620 Nota: C1 Vol.: 59
Chanel 8 Note On - Duracao: 310620 Nota: C1 Vol.: 57
Chanel 4 Note Off - Duracao: 310980 Nota: C1 Vol.: 66
Chanel 4 Note On - Duracao: 310980 Nota: C1 Vol.: 76
Chanel 8 Note Off - Duracao: 311100 Nota: C1 Vol.: 57
Chanel 8 Note On - Duracao: 311100 Nota: C1 Vol.: 51
Chanel 9 Note Off - Duracao: 311100 Nota: C1 Vol.: 48
Chanel 9 Note On - Duracao: 311100 Nota: C1 Vol.: 52
Chanel 3 Note Off - Duracao: 311160 Nota: C1 Vol.: 66
Chanel 3 Note On - Duracao: 311160 Nota: C1 Vol.: 68
Chanel 4 Note Off - Duracao: 311220 Nota: C1 Vol.: 76
Chanel 4 Note On - Duracao: 311220 Nota: C1 Vol.: 95
Chanel 4 Note Off - Duracao: 311280 Nota: C1 Vol.: 95
Chanel 4 Note On - Duracao: 311280 Nota: C1 Vol.: 97
Chanel 4 Note Off - Duracao: 311340 Nota: C1 Vol.: 97
Chanel 4 Note On - Duracao: 311340 Nota: C1 Vol.: 97
Chanel 4 Note Off - Duracao: 311400 Nota: C1 Vol.: 97
Chanel 4 Note On - Duracao: 311400 Nota: C1 Vol.: 97
Chanel 4 Note Off - Duracao: 311460 Nota: C1 Vol.: 97
Chanel 4 Note On - Duracao: 311460 Nota: C1 Vol.: 99
Chanel 4 Note Off - Duracao: 311520 Nota: C1 Vol.: 99
Chanel 4 Note On - Duracao: 311520 Nota: C1 Vol.: 97
Chanel 4 Note Off - Duracao: 311580 Nota: C1 Vol.: 97
Chanel 4 Note On - Duracao: 311580 Nota: C1 Vol.: 96
Chanel 5 Note Off - Duracao: 311640 Nota: C1 Vol.: 55
Chanel 5 Note On - Duracao: 311640 Nota: C1 Vol.: 55
Chanel 7 Note Off - Duracao: 311640 Nota: C1 Vol.: 57
Chanel 7 Note On - Duracao: 311640 Nota: C1 Vol.: 59
Chanel 4 Note Off - Duracao: 311700 Nota: C1 Vol.: 96
Chanel 4 Note On - Duracao: 311700 Nota: C1 Vol.: 97
Chanel 6 Note Off - Duracao: 311760 Nota: C1 Vol.: 57
Chanel 6 Note On - Duracao: 311760 Nota: C1 Vol.: 88
Chanel 4 Note Off - Duracao: 311820 Nota: C1 Vol.: 97
Chanel 4 Note On - Duracao: 311820 Nota: C1 Vol.: 95
Chanel 6 Note Off - Duracao: 311880 Nota: C1 Vol.: 88
Chanel 6 Note On - Duracao: 311880 Nota: C1 Vol.: 88
Chanel 4 Note Off - Duracao: 311940 Nota: C1 Vol.: 95
Chanel 4 Note On - Duracao: 311940 Nota: C1 Vol.: 81
Chanel 6 Note Off - Duracao: 312000 Nota: C1 Vol.: 88
Chanel 6 Note On - Duracao: 312000 Nota: C1 Vol.: 88
Chanel 2 Note Off - Duracao: 312060 Nota: C1 Vol.: 40
Chanel 2 Note On - Duracao: 312060 Nota: C1 Vol.: 40
Chanel 4 Note Off - Duracao: 312060 Nota: C1 Vol.: 81
Chanel 4 Note On - Duracao: 312060 Nota: C1 Vol.: 81
Chanel 8 Note Off - Duracao: 312060 Nota: C1 Vol.: 51
Chanel 8 Note On - Duracao: 312060 Nota: C1 Vol.: 47
Chanel 9 Note Off - Duracao: 312060 Nota: C1 Vol.: 52
Chanel 9 Note On - Duracao: 312060 Nota: C1 Vol.: 57
Chanel 3 Note Off - Duracao: 312120 Nota: C1 Vol.: 68
Chanel 3 Note On - Duracao: 312120 Nota: C1 Vol.: 67
Chanel 6 Note Off - Duracao: 312120 Nota: C1 Vol.: 88
Chanel 6 Note On - Duracao: 312120 Nota: C1 Vol.: 96
Chanel 4 Note Off - Duracao: 312180 Nota: C1 Vol.: 81
Chanel 4 Note On - Duracao: 312180 Nota: C1 Vol.: 60
Chanel 6 Note Off - Duracao: 312180 Nota: C1 Vol.: 96
Chanel 6 Note On - Duracao: 312180 Nota: C1 Vol.: 99
Chanel 6 Note Off - Duracao: 312240 Nota: C1 Vol.: 99
Chanel 6 Note On - Duracao: 312240 Nota: C1 Vol.: 100
Chanel 6 Note Off - Duracao: 312300 Nota: C1 Vol.: 100
Chanel 6 Note On - Duracao: 312300 Nota: C1 Vol.: 100
Chanel 6 Note Off - Duracao: 312360 Nota: C1 Vol.: 100
Chanel 6 Note On - Duracao: 312360 Nota: C1 Vol.: 99
Chanel 6 Note Off - Duracao: 312420 Nota: C1 Vol.: 99
Chanel 6 Note On - Duracao: 312420 Nota: C1 Vol.: 96
Chanel 6 Note Off - Duracao: 312480 Nota: C1 Vol.: 96
Chanel 6 Note On - Duracao: 312480 Nota: C1 Vol.: 87
Chanel 9 Note Off - Duracao: 312540 Nota: C1 Vol.: 57
Chanel 9 Note On - Duracao: 312540 Nota: C1 Vol.: 63
Chanel 6 Note Off - Duracao: 312600 Nota: C1 Vol.: 87
Chanel 6 Note On - Duracao: 312600 Nota: C1 Vol.: 90
Chanel 4 Note Off - Duracao: 312660 Nota: C1 Vol.: 60
Chanel 4 Note On - Duracao: 312660 Nota: C1 Vol.: 54
Chanel 6 Note Off - Duracao: 312720 Nota: C1 Vol.: 90
Chanel 6 Note On - Duracao: 312720 Nota: C1 Vol.: 58
Chanel 9 Note Off - Duracao: 312780 Nota: C1 Vol.: 63
Chanel 9 Note On - Duracao: 312780 Nota: C1 Vol.: 70
Chanel 9 Note Off - Duracao: 312900 Nota: C1 Vol.: 70
Chanel 9 Note On - Duracao: 312900 Nota: C1 Vol.: 70
Chanel 8 Note Off - Duracao: 313020 Nota: C1 Vol.: 47
Chanel 8 Note On - Duracao: 313020 Nota: C1 Vol.: 55
Chanel 9 Note Off - Duracao: 313020 Nota: C1 Vol.: 70
Chanel 9 Note On - Duracao: 313020 Nota: C1 Vol.: 68
Chanel 3 Note Off - Duracao: 313080 Nota: C1 Vol.: 67
Chanel 3 Note On - Duracao: 313080 Nota: C1 Vol.: 73
Chanel 4 Note Off - Duracao: 313140 Nota: C1 Vol.: 54
Chanel 4 Note On - Duracao: 313140 Nota: C1 Vol.: 60
Chanel 9 Note Off - Duracao: 313260 Nota: C1 Vol.: 68
Chanel 9 Note On - Duracao: 313260 Nota: C1 Vol.: 61
Chanel 8 Note Off - Duracao: 313500 Nota: C1 Vol.: 55
Chanel 8 Note On - Duracao: 313500 Nota: C1 Vol.: 60
Chanel 5 Note Off - Duracao: 313560 Nota: C1 Vol.: 55
Chanel 5 Note On - Duracao: 313560 Nota: C1 Vol.: 56
Chanel 4 Note Off - Duracao: 313620 Nota: C1 Vol.: 60
Chanel 4 Note On - Duracao: 313620 Nota: C1 Vol.: 51
Chanel 6 Note Off - Duracao: 313680 Nota: C1 Vol.: 58
Chanel 6 Note On - Duracao: 313680 Nota: C1 Vol.: 58
Chanel 9 Note Off - Duracao: 313740 Nota: C1 Vol.: 61
Chanel 9 Note On - Duracao: 313740 Nota: C1 Vol.: 44
Chanel 2 Note Off - Duracao: 313980 Nota: C1 Vol.: 40
Chanel 2 Note On - Duracao: 313980 Nota: C1 Vol.: 40
Chanel 8 Note Off - Duracao: 313980 Nota: C1 Vol.: 60
Chanel 8 Note On - Duracao: 313980 Nota: C1 Vol.: 64
Chanel 3 Note Off - Duracao: 314040 Nota: C1 Vol.: 73
Chanel 3 Note On - Duracao: 314040 Nota: C1 Vol.: 72
Chanel 8 Note Off - Duracao: 314460 Nota: C1 Vol.: 64
Chanel 8 Note On - Duracao: 314460 Nota: C1 Vol.: 66
Chanel 4 Note Off - Duracao: 314580 Nota: C1 Vol.: 51
Chanel 4 Note On - Duracao: 314580 Nota: C1 Vol.: 51
Chanel 6 Note Off - Duracao: 314640 Nota: C1 Vol.: 58
Chanel 6 Note On - Duracao: 314640 Nota: C1 Vol.: 98
Chanel 6 Note Off - Duracao: 314700 Nota: C1 Vol.: 98
Chanel 6 Note On - Duracao: 314700 Nota: C1 Vol.: 100
Chanel 8 Note Off - Duracao: 314700 Nota: C1 Vol.: 66
Chanel 8 Note On - Duracao: 314700 Nota: C1 Vol.: 67
Chanel 6 Note Off - Duracao: 314760 Nota: C1 Vol.: 100
Chanel 6 Note On - Duracao: 314760 Nota: C1 Vol.: 92
Chanel 6 Note Off - Duracao: 314880 Nota: C1 Vol.: 92
Chanel 6 Note On - Duracao: 314880 Nota: C1 Vol.: 88
Chanel 8 Note Off - Duracao: 314940 Nota: C1 Vol.: 67
Chanel 8 Note On - Duracao: 314940 Nota: C1 Vol.: 69
Chanel 3 Note Off - Duracao: 315000 Nota: C1 Vol.: 72
Chanel 3 Note On - Duracao: 315000 Nota: C1 Vol.: 76
Chanel 6 Note Off - Duracao: 315000 Nota: C1 Vol.: 88
Chanel 6 Note On - Duracao: 315000 Nota: C1 Vol.: 99
Chanel 6 Note Off - Duracao: 315060 Nota: C1 Vol.: 99
Chanel 6 Note On - Duracao: 315060 Nota: C1 Vol.: 80
Chanel 8 Note Off - Duracao: 315180 Nota: C1 Vol.: 69
Chanel 8 Note On - Duracao: 315180 Nota: C1 Vol.: 73
Chanel 6 Note Off - Duracao: 315300 Nota: C1 Vol.: 80
Chanel 6 Note On - Duracao: 315300 Nota: C1 Vol.: 67
Chanel 8 Note Off - Duracao: 315420 Nota: C1 Vol.: 73
Chanel 8 Note On - Duracao: 315420 Nota: C1 Vol.: 66
Chanel 5 Note Off - Duracao: 315480 Nota: C1 Vol.: 56
Chanel 5 Note On - Duracao: 315480 Nota: C1 Vol.: 75
Chanel 7 Note Off - Duracao: 315480 Nota: C1 Vol.: 59
Chanel 7 Note On - Duracao: 315480 Nota: C1 Vol.: 60
Chanel 4 Note Off - Duracao: 315540 Nota: C1 Vol.: 51
Chanel 4 Note On - Duracao: 315540 Nota: C1 Vol.: 53
Chanel 9 Note Off - Duracao: 315660 Nota: C1 Vol.: 44
Chanel 9 Note On - Duracao: 315660 Nota: C1 Vol.: 54
Chanel 6 Note Off - Duracao: 315780 Nota: C1 Vol.: 67
Chanel 6 Note On - Duracao: 315780 Nota: C1 Vol.: 71
Chanel 2 Note Off - Duracao: 315900 Nota: C1 Vol.: 40
Chanel 2 Note On - Duracao: 315900 Nota: C1 Vol.: 53
Chanel 8 Note Off - Duracao: 315900 Nota: C1 Vol.: 66
Chanel 8 Note On - Duracao: 315900 Nota: C1 Vol.: 79
Chanel 3 Note Off - Duracao: 315960 Nota: C1 Vol.: 76
Chanel 3 Note On - Duracao: 315960 Nota: C1 Vol.: 80
Chanel 5 Note Off - Duracao: 315960 Nota: C1 Vol.: 75
Chanel 5 Note On - Duracao: 315960 Nota: C1 Vol.: 92
Chanel 2 Note Off - Duracao: 316020 Nota: C1 Vol.: 53
Chanel 2 Note On - Duracao: 316020 Nota: C1 Vol.: 47
Chanel 5 Note Off - Duracao: 316080 Nota: C1 Vol.: 92
Chanel 5 Note On - Duracao: 316080 Nota: C1 Vol.: 97
Chanel 2 Note Off - Duracao: 316140 Nota: C1 Vol.: 47
Chanel 2 Note On - Duracao: 316140 Nota: C1 Vol.: 44
Chanel 8 Note Off - Duracao: 316140 Nota: C1 Vol.: 79
Chanel 8 Note On - Duracao: 316140 Nota: C1 Vol.: 87
Chanel 5 Note Off - Duracao: 316200 Nota: C1 Vol.: 97
Chanel 5 Note On - Duracao: 316200 Nota: C1 Vol.: 51
Chanel 2 Note Off - Duracao: 316260 Nota: C1 Vol.: 44
Chanel 2 Note On - Duracao: 316260 Nota: C1 Vol.: 41
Chanel 6 Note Off - Duracao: 316260 Nota: C1 Vol.: 71
Chanel 6 Note On - Duracao: 316260 Nota: C1 Vol.: 71
Chanel 8 Note Off - Duracao: 316260 Nota: C1 Vol.: 87
Chanel 8 Note On - Duracao: 316260 Nota: C1 Vol.: 83
Chanel 2 Note Off - Duracao: 316380 Nota: C1 Vol.: 41
Chanel 2 Note On - Duracao: 316380 Nota: C1 Vol.: 42
Chanel 8 Note Off - Duracao: 316380 Nota: C1 Vol.: 83
Chanel 8 Note On - Duracao: 316380 Nota: C1 Vol.: 61
Chanel 2 Note Off - Duracao: 316440 Nota: C1 Vol.: 42
Chanel 2 Note On - Duracao: 316440 Nota: C1 Vol.: 43
Chanel 3 Note Off - Duracao: 316440 Nota: C1 Vol.: 80
Chanel 3 Note On - Duracao: 316440 Nota: C1 Vol.: 81
Chanel 4 Note Off - Duracao: 316500 Nota: C1 Vol.: 53
Chanel 4 Note On - Duracao: 316500 Nota: C1 Vol.: 57
Chanel 2 Note Off - Duracao: 316560 Nota: C1 Vol.: 43
Chanel 2 Note On - Duracao: 316560 Nota: C1 Vol.: 48
Chanel 9 Note Off - Duracao: 316620 Nota: C1 Vol.: 54
Chanel 9 Note On - Duracao: 316620 Nota: C1 Vol.: 51
Chanel 2 Note Off - Duracao: 316680 Nota: C1 Vol.: 48
Chanel 2 Note On - Duracao: 316680 Nota: C1 Vol.: 55
Chanel 6 Note Off - Duracao: 316740 Nota: C1 Vol.: 71
Chanel 6 Note On - Duracao: 316740 Nota: C1 Vol.: 70
Chanel 2 Note Off - Duracao: 316800 Nota: C1 Vol.: 55
Chanel 2 Note On - Duracao: 316800 Nota: C1 Vol.: 40
Chanel 8 Note Off - Duracao: 316860 Nota: C1 Vol.: 61
Chanel 8 Note On - Duracao: 316860 Nota: C1 Vol.: 52
Chanel 3 Note Off - Duracao: 316920 Nota: C1 Vol.: 81
Chanel 3 Note On - Duracao: 316920 Nota: C1 Vol.: 72
Chanel 4 Note Off - Duracao: 316980 Nota: C1 Vol.: 57
Chanel 4 Note On - Duracao: 316980 Nota: C1 Vol.: 63
Chanel 6 Note Off - Duracao: 317220 Nota: C1 Vol.: 70
Chanel 6 Note On - Duracao: 317220 Nota: C1 Vol.: 75
Chanel 4 Note Off - Duracao: 317460 Nota: C1 Vol.: 63
Chanel 4 Note On - Duracao: 317460 Nota: C1 Vol.: 62
Chanel 6 Note Off - Duracao: 317460 Nota: C1 Vol.: 75
Chanel 6 Note On - Duracao: 317460 Nota: C1 Vol.: 67
Chanel 9 Note Off - Duracao: 317580 Nota: C1 Vol.: 51
Chanel 9 Note On - Duracao: 317580 Nota: C1 Vol.: 62
Chanel 6 Note Off - Duracao: 317700 Nota: C1 Vol.: 67
Chanel 6 Note On - Duracao: 317700 Nota: C1 Vol.: 66
Chanel 2 Note Off - Duracao: 317760 Nota: C1 Vol.: 40
Chanel 2 Note On - Duracao: 317760 Nota: C1 Vol.: 40
Chanel 8 Note Off - Duracao: 317820 Nota: C1 Vol.: 52
Chanel 8 Note On - Duracao: 317820 Nota: C1 Vol.: 53
Chanel 3 Note Off - Duracao: 317880 Nota: C1 Vol.: 72
Chanel 3 Note On - Duracao: 317880 Nota: C1 Vol.: 71
Chanel 4 Note Off - Duracao: 317940 Nota: C1 Vol.: 62
Chanel 4 Note On - Duracao: 317940 Nota: C1 Vol.: 64
Chanel 6 Note Off - Duracao: 317940 Nota: C1 Vol.: 66
Chanel 6 Note On - Duracao: 317940 Nota: C1 Vol.: 58
Chanel 9 Note Off - Duracao: 318060 Nota: C1 Vol.: 62
Chanel 9 Note On - Duracao: 318060 Nota: C1 Vol.: 87
Chanel 5 Note Off - Duracao: 318120 Nota: C1 Vol.: 51
Chanel 5 Note On - Duracao: 318120 Nota: C1 Vol.: 60
Chanel 4 Note Off - Duracao: 318180 Nota: C1 Vol.: 64
Chanel 4 Note On - Duracao: 318180 Nota: C1 Vol.: 68
Chanel 9 Note Off - Duracao: 318180 Nota: C1 Vol.: 87
Chanel 9 Note On - Duracao: 318180 Nota: C1 Vol.: 90
Chanel 9 Note Off - Duracao: 318300 Nota: C1 Vol.: 90
Chanel 9 Note On - Duracao: 318300 Nota: C1 Vol.: 79
Chanel 4 Note Off - Duracao: 318420 Nota: C1 Vol.: 68
Chanel 4 Note On - Duracao: 318420 Nota: C1 Vol.: 49
Chanel 6 Note Off - Duracao: 318420 Nota: C1 Vol.: 58
Chanel 6 Note On - Duracao: 318420 Nota: C1 Vol.: 69
Chanel 9 Note Off - Duracao: 318540 Nota: C1 Vol.: 79
Chanel 9 Note On - Duracao: 318540 Nota: C1 Vol.: 68
Chanel 6 Note Off - Duracao: 318660 Nota: C1 Vol.: 69
Chanel 6 Note On - Duracao: 318660 Nota: C1 Vol.: 74
Chanel 2 Note Off - Duracao: 318720 Nota: C1 Vol.: 40
Chanel 2 Note On - Duracao: 318720 Nota: C1 Vol.: 68
Chanel 6 Note Off - Duracao: 318780 Nota: C1 Vol.: 74
Chanel 6 Note On - Duracao: 318780 Nota: C1 Vol.: 64
Chanel 8 Note Off - Duracao: 318780 Nota: C1 Vol.: 53
Chanel 8 Note On - Duracao: 318780 Nota: C1 Vol.: 65
Chanel 9 Note Off - Duracao: 318780 Nota: C1 Vol.: 68
Chanel 9 Note On - Duracao: 318780 Nota: C1 Vol.: 73
Chanel 3 Note Off - Duracao: 318840 Nota: C1 Vol.: 71
Chanel 3 Note On - Duracao: 318840 Nota: C1 Vol.: 72
Chanel 2 Note Off - Duracao: 318960 Nota: C1 Vol.: 68
Chanel 2 Note On - Duracao: 318960 Nota: C1 Vol.: 67
Chanel 6 Note Off - Duracao: 319020 Nota: C1 Vol.: 64
Chanel 6 Note On - Duracao: 319020 Nota: C1 Vol.: 66
Chanel 8 Note Off - Duracao: 319020 Nota: C1 Vol.: 65
Chanel 8 Note On - Duracao: 319020 Nota: C1 Vol.: 67
Chanel 9 Note Off - Duracao: 319020 Nota: C1 Vol.: 73
Chanel 9 Note On - Duracao: 319020 Nota: C1 Vol.: 56
Chanel 6 Note Off - Duracao: 319140 Nota: C1 Vol.: 66
Chanel 6 Note On - Duracao: 319140 Nota: C1 Vol.: 58
Chanel 8 Note Off - Duracao: 319260 Nota: C1 Vol.: 67
Chanel 8 Note On - Duracao: 319260 Nota: C1 Vol.: 66
Chanel 3 Note Off - Duracao: 319320 Nota: C1 Vol.: 72
Chanel 3 Note On - Duracao: 319320 Nota: C1 Vol.: 65
Chanel 7 Note Off - Duracao: 319320 Nota: C1 Vol.: 60
Chanel 7 Note On - Duracao: 319320 Nota: C1 Vol.: 66
Chanel 4 Note Off - Duracao: 319380 Nota: C1 Vol.: 49
Chanel 4 Note On - Duracao: 319380 Nota: C1 Vol.: 50
Chanel 6 Note Off - Duracao: 319380 Nota: C1 Vol.: 58
Chanel 6 Note On - Duracao: 319380 Nota: C1 Vol.: 55
Chanel 2 Note Off - Duracao: 319440 Nota: C1 Vol.: 67
Chanel 2 Note On - Duracao: 319440 Nota: C1 Vol.: 69
Chanel 8 Note Off - Duracao: 319500 Nota: C1 Vol.: 66
Chanel 8 Note On - Duracao: 319500 Nota: C1 Vol.: 66
Chanel 9 Note Off - Duracao: 319500 Nota: C1 Vol.: 56
Chanel 9 Note On - Duracao: 319500 Nota: C1 Vol.: 45
Chanel 8 Note Off - Duracao: 319740 Nota: C1 Vol.: 66
Chanel 8 Note On - Duracao: 319740 Nota: C1 Vol.: 69
Chanel 6 Note Off - Duracao: 319860 Nota: C1 Vol.: 55
Chanel 6 Note On - Duracao: 319860 Nota: C1 Vol.: 56
Chanel 8 Note Off - Duracao: 319860 Nota: C1 Vol.: 69
Chanel 8 Note On - Duracao: 319860 Nota: C1 Vol.: 67
Chanel 2 Note Off - Duracao: 319920 Nota: C1 Vol.: 69
Chanel 2 Note On - Duracao: 319920 Nota: C1 Vol.: 64
Chanel 8 Note Off - Duracao: 319980 Nota: C1 Vol.: 67
Chanel 8 Note On - Duracao: 319980 Nota: C1 Vol.: 73
Chanel 5 Note Off - Duracao: 320040 Nota: C1 Vol.: 60
Chanel 5 Note On - Duracao: 320040 Nota: C1 Vol.: 50
Chanel 6 Note Off - Duracao: 320100 Nota: C1 Vol.: 56
Chanel 6 Note On - Duracao: 320100 Nota: C1 Vol.: 49
Chanel 8 Note Off - Duracao: 320100 Nota: C1 Vol.: 73
Chanel 8 Note On - Duracao: 320100 Nota: C1 Vol.: 70
Chanel 8 Note Off - Duracao: 320220 Nota: C1 Vol.: 70
Chanel 8 Note On - Duracao: 320220 Nota: C1 Vol.: 72
Chanel 3 Note Off - Duracao: 320280 Nota: C1 Vol.: 65
Chanel 3 Note On - Duracao: 320280 Nota: C1 Vol.: 73
Chanel 4 Note Off - Duracao: 320340 Nota: C1 Vol.: 50
Chanel 4 Note On - Duracao: 320340 Nota: C1 Vol.: 65
Chanel 8 Note Off - Duracao: 320340 Nota: C1 Vol.: 72
Chanel 8 Note On - Duracao: 320340 Nota: C1 Vol.: 73
Chanel 8 Note Off - Duracao: 320460 Nota: C1 Vol.: 73
Chanel 8 Note On - Duracao: 320460 Nota: C1 Vol.: 74
Chanel 9 Note Off - Duracao: 320460 Nota: C1 Vol.: 45
Chanel 9 Note On - Duracao: 320460 Nota: C1 Vol.: 57
Chanel 4 Note Off - Duracao: 320580 Nota: C1 Vol.: 65
Chanel 4 Note On - Duracao: 320580 Nota: C1 Vol.: 73
Chanel 6 Note Off - Duracao: 320580 Nota: C1 Vol.: 49
Chanel 6 Note On - Duracao: 320580 Nota: C1 Vol.: 48
Chanel 8 Note Off - Duracao: 320580 Nota: C1 Vol.: 74
Chanel 8 Note On - Duracao: 320580 Nota: C1 Vol.: 61
Chanel 3 Note Off - Duracao: 320760 Nota: C1 Vol.: 73
Chanel 3 Note On - Duracao: 320760 Nota: C1 Vol.: 68
Chanel 4 Note Off - Duracao: 320820 Nota: C1 Vol.: 73
Chanel 4 Note On - Duracao: 320820 Nota: C1 Vol.: 67
Chanel 2 Note Off - Duracao: 320880 Nota: C1 Vol.: 64
Chanel 2 Note On - Duracao: 320880 Nota: C1 Vol.: 67
Chanel 9 Note Off - Duracao: 320940 Nota: C1 Vol.: 57
Chanel 9 Note On - Duracao: 320940 Nota: C1 Vol.: 60
Chanel 4 Note Off - Duracao: 321060 Nota: C1 Vol.: 67
Chanel 4 Note On - Duracao: 321060 Nota: C1 Vol.: 74
Chanel 6 Note Off - Duracao: 321060 Nota: C1 Vol.: 48
Chanel 6 Note On - Duracao: 321060 Nota: C1 Vol.: 45
Chanel 8 Note Off - Duracao: 321060 Nota: C1 Vol.: 61
Chanel 8 Note On - Duracao: 321060 Nota: C1 Vol.: 53
Chanel 4 Note Off - Duracao: 321180 Nota: C1 Vol.: 74
Chanel 4 Note On - Duracao: 321180 Nota: C1 Vol.: 57
Chanel 3 Note Off - Duracao: 321240 Nota: C1 Vol.: 68
Chanel 3 Note On - Duracao: 321240 Nota: C1 Vol.: 64
Chanel 9 Note Off - Duracao: 321420 Nota: C1 Vol.: 60
Chanel 9 Note On - Duracao: 321420 Nota: C1 Vol.: 59
Chanel 4 Note Off - Duracao: 321660 Nota: C1 Vol.: 57
Chanel 4 Note On - Duracao: 321660 Nota: C1 Vol.: 42
Chanel 3 Note Off - Duracao: 321720 Nota: C1 Vol.: 64
Chanel 3 Note On - Duracao: 321720 Nota: C1 Vol.: 64
Chanel 2 Note Off - Duracao: 321840 Nota: C1 Vol.: 67
Chanel 2 Note On - Duracao: 321840 Nota: C1 Vol.: 72
Chanel 9 Note Off - Duracao: 321900 Nota: C1 Vol.: 59
Chanel 9 Note On - Duracao: 321900 Nota: C1 Vol.: 61
Chanel 6 Note Off - Duracao: 322020 Nota: C1 Vol.: 45
Chanel 6 Note On - Duracao: 322020 Nota: C1 Vol.: 58
Chanel 8 Note Off - Duracao: 322020 Nota: C1 Vol.: 53
Chanel 8 Note On - Duracao: 322020 Nota: C1 Vol.: 56
Chanel 3 Note Off - Duracao: 322200 Nota: C1 Vol.: 64
Chanel 3 Note On - Duracao: 322200 Nota: C1 Vol.: 59
Chanel 6 Note Off - Duracao: 322260 Nota: C1 Vol.: 58
Chanel 6 Note On - Duracao: 322260 Nota: C1 Vol.: 54
Chanel 9 Note Off - Duracao: 322380 Nota: C1 Vol.: 61
Chanel 9 Note On - Duracao: 322380 Nota: C1 Vol.: 63
Chanel 4 Note Off - Duracao: 322620 Nota: C1 Vol.: 42
Chanel 4 Note On - Duracao: 322620 Nota: C1 Vol.: 60
Chanel 3 Note Off - Duracao: 322680 Nota: C1 Vol.: 59
Chanel 3 Note On - Duracao: 322680 Nota: C1 Vol.: 57
Chanel 6 Note Off - Duracao: 322740 Nota: C1 Vol.: 54
Chanel 6 Note On - Duracao: 322740 Nota: C1 Vol.: 54
Chanel 2 Note Off - Duracao: 322800 Nota: C1 Vol.: 72
Chanel 2 Note On - Duracao: 322800 Nota: C1 Vol.: 67
Chanel 4 Note Off - Duracao: 322860 Nota: C1 Vol.: 60
Chanel 4 Note On - Duracao: 322860 Nota: C1 Vol.: 59
Chanel 9 Note Off - Duracao: 322860 Nota: C1 Vol.: 63
Chanel 9 Note On - Duracao: 322860 Nota: C1 Vol.: 60
Chanel 6 Note Off - Duracao: 322980 Nota: C1 Vol.: 54
Chanel 6 Note On - Duracao: 322980 Nota: C1 Vol.: 61
Chanel 8 Note Off - Duracao: 322980 Nota: C1 Vol.: 56
Chanel 8 Note On - Duracao: 322980 Nota: C1 Vol.: 74
Chanel 4 Note Off - Duracao: 323100 Nota: C1 Vol.: 59
Chanel 4 Note On - Duracao: 323100 Nota: C1 Vol.: 45
Chanel 7 Note Off - Duracao: 323160 Nota: C1 Vol.: 66
Chanel 7 Note On - Duracao: 323160 Nota: C1 Vol.: 75
Chanel 6 Note Off - Duracao: 323220 Nota: C1 Vol.: 61
Chanel 6 Note On - Duracao: 323220 Nota: C1 Vol.: 65
Chanel 8 Note Off - Duracao: 323220 Nota: C1 Vol.: 74
Chanel 8 Note On - Duracao: 323220 Nota: C1 Vol.: 70
Chanel 6 Note Off - Duracao: 323340 Nota: C1 Vol.: 65
Chanel 6 Note On - Duracao: 323340 Nota: C1 Vol.: 65
Chanel 9 Note Off - Duracao: 323340 Nota: C1 Vol.: 60
Chanel 9 Note On - Duracao: 323340 Nota: C1 Vol.: 59
Chanel 6 Note Off - Duracao: 323460 Nota: C1 Vol.: 65
Chanel 6 Note On - Duracao: 323460 Nota: C1 Vol.: 54
Chanel 3 Note Off - Duracao: 323640 Nota: C1 Vol.: 57
Chanel 3 Note On - Duracao: 323640 Nota: C1 Vol.: 63
Chanel 8 Note Off - Duracao: 323700 Nota: C1 Vol.: 70
Chanel 8 Note On - Duracao: 323700 Nota: C1 Vol.: 51
Chanel 2 Note Off - Duracao: 323760 Nota: C1 Vol.: 67
Chanel 2 Note On - Duracao: 323760 Nota: C1 Vol.: 66
Chanel 9 Note Off - Duracao: 323820 Nota: C1 Vol.: 59
Chanel 9 Note On - Duracao: 323820 Nota: C1 Vol.: 56
Chanel 5 Note Off - Duracao: 323880 Nota: C1 Vol.: 50
Chanel 5 Note On - Duracao: 323880 Nota: C1 Vol.: 48
Chanel 6 Note Off - Duracao: 323940 Nota: C1 Vol.: 54
Chanel 6 Note On - Duracao: 323940 Nota: C1 Vol.: 50
Chanel 4 Note Off - Duracao: 324060 Nota: C1 Vol.: 45
Chanel 4 Note On - Duracao: 324060 Nota: C1 Vol.: 61
Chanel 3 Note Off - Duracao: 324120 Nota: C1 Vol.: 63
Chanel 3 Note On - Duracao: 324120 Nota: C1 Vol.: 77
Chanel 3 Note Off - Duracao: 324240 Nota: C1 Vol.: 77
Chanel 3 Note On - Duracao: 324240 Nota: C1 Vol.: 76
Chanel 4 Note Off - Duracao: 324300 Nota: C1 Vol.: 61
Chanel 4 Note On - Duracao: 324300 Nota: C1 Vol.: 60
Chanel 9 Note Off - Duracao: 324300 Nota: C1 Vol.: 56
Chanel 9 Note On - Duracao: 324300 Nota: C1 Vol.: 59
Chanel 3 Note Off - Duracao: 324360 Nota: C1 Vol.: 76
Chanel 3 Note On - Duracao: 324360 Nota: C1 Vol.: 70
Chanel 4 Note Off - Duracao: 324540 Nota: C1 Vol.: 60
Chanel 4 Note On - Duracao: 324540 Nota: C1 Vol.: 59
Chanel 3 Note Off - Duracao: 324600 Nota: C1 Vol.: 70
Chanel 3 Note On - Duracao: 324600 Nota: C1 Vol.: 40
Chanel 8 Note Off - Duracao: 324660 Nota: C1 Vol.: 51
Chanel 8 Note On - Duracao: 324660 Nota: C1 Vol.: 50
Chanel 2 Note Off - Duracao: 324720 Nota: C1 Vol.: 66
Chanel 2 Note On - Duracao: 324720 Nota: C1 Vol.: 74
Chanel 4 Note Off - Duracao: 324780 Nota: C1 Vol.: 59
Chanel 4 Note On - Duracao: 324780 Nota: C1 Vol.: 40
Chanel 9 Note Off - Duracao: 324780 Nota: C1 Vol.: 59
Chanel 9 Note On - Duracao: 324780 Nota: C1 Vol.: 60
Chanel 6 Note Off - Duracao: 324900 Nota: C1 Vol.: 50
Chanel 6 Note On - Duracao: 324900 Nota: C1 Vol.: 59
Chanel 7 Note Off - Duracao: 325080 Nota: C1 Vol.: 75
Chanel 7 Note On - Duracao: 325080 Nota: C1 Vol.: 76
Chanel 2 Note Off - Duracao: 325200 Nota: C1 Vol.: 74
Chanel 2 Note On - Duracao: 325200 Nota: C1 Vol.: 71
Chanel 9 Note Off - Duracao: 325260 Nota: C1 Vol.: 60
Chanel 9 Note On - Duracao: 325260 Nota: C1 Vol.: 63
Chanel 6 Note Off - Duracao: 325380 Nota: C1 Vol.: 59
Chanel 6 Note On - Duracao: 325380 Nota: C1 Vol.: 70
Chanel 6 Note Off - Duracao: 325500 Nota: C1 Vol.: 70
Chanel 6 Note On - Duracao: 325500 Nota: C1 Vol.: 64
Chanel 8 Note Off - Duracao: 325620 Nota: C1 Vol.: 50
Chanel 8 Note On - Duracao: 325620 Nota: C1 Vol.: 58
Chanel 2 Note Off - Duracao: 325680 Nota: C1 Vol.: 71
Chanel 2 Note On - Duracao: 325680 Nota: C1 Vol.: 83
Chanel 4 Note Off - Duracao: 325740 Nota: C1 Vol.: 40
Chanel 4 Note On - Duracao: 325740 Nota: C1 Vol.: 53
Chanel 6 Note Off - Duracao: 325740 Nota: C1 Vol.: 64
Chanel 6 Note On - Duracao: 325740 Nota: C1 Vol.: 50
Chanel 9 Note Off - Duracao: 325740 Nota: C1 Vol.: 63
Chanel 9 Note On - Duracao: 325740 Nota: C1 Vol.: 63
Chanel 2 Note Off - Duracao: 325920 Nota: C1 Vol.: 83
Chanel 2 Note On - Duracao: 325920 Nota: C1 Vol.: 78
Chanel 4 Note Off - Duracao: 325980 Nota: C1 Vol.: 53
Chanel 4 Note On - Duracao: 325980 Nota: C1 Vol.: 50
Chanel 8 Note Off - Duracao: 326100 Nota: C1 Vol.: 58
Chanel 8 Note On - Duracao: 326100 Nota: C1 Vol.: 59
Chanel 4 Note Off - Duracao: 326220 Nota: C1 Vol.: 50
Chanel 4 Note On - Duracao: 326220 Nota: C1 Vol.: 40
Chanel 6 Note Off - Duracao: 326220 Nota: C1 Vol.: 50
Chanel 6 Note On - Duracao: 326220 Nota: C1 Vol.: 56
Chanel 9 Note Off - Duracao: 326220 Nota: C1 Vol.: 63
Chanel 9 Note On - Duracao: 326220 Nota: C1 Vol.: 65
Chanel 2 Note Off - Duracao: 326400 Nota: C1 Vol.: 78
Chanel 2 Note On - Duracao: 326400 Nota: C1 Vol.: 83
Chanel 6 Note Off - Duracao: 326460 Nota: C1 Vol.: 56
Chanel 6 Note On - Duracao: 326460 Nota: C1 Vol.: 52
Chanel 3 Note Off - Duracao: 326520 Nota: C1 Vol.: 40
Chanel 3 Note On - Duracao: 326520 Nota: C1 Vol.: 62
Chanel 8 Note Off - Duracao: 326580 Nota: C1 Vol.: 59
Chanel 8 Note On - Duracao: 326580 Nota: C1 Vol.: 62
Chanel 2 Note Off - Duracao: 326640 Nota: C1 Vol.: 83
Chanel 2 Note On - Duracao: 326640 Nota: C1 Vol.: 81
Chanel 6 Note Off - Duracao: 326700 Nota: C1 Vol.: 52
Chanel 6 Note On - Duracao: 326700 Nota: C1 Vol.: 49
Chanel 9 Note Off - Duracao: 326700 Nota: C1 Vol.: 65
Chanel 9 Note On - Duracao: 326700 Nota: C1 Vol.: 66
Chanel 2 Note Off - Duracao: 326880 Nota: C1 Vol.: 81
Chanel 2 Note On - Duracao: 326880 Nota: C1 Vol.: 91
Chanel 9 Note Off - Duracao: 326940 Nota: C1 Vol.: 66
Chanel 9 Note On - Duracao: 326940 Nota: C1 Vol.: 63
Chanel 2 Note Off - Duracao: 327000 Nota: C1 Vol.: 91
Chanel 2 Note On - Duracao: 327000 Nota: C1 Vol.: 86
Chanel 3 Note Off - Duracao: 327000 Nota: C1 Vol.: 62
Chanel 3 Note On - Duracao: 327000 Nota: C1 Vol.: 40
Chanel 7 Note Off - Duracao: 327000 Nota: C1 Vol.: 76
Chanel 7 Note On - Duracao: 327000 Nota: C1 Vol.: 75
Chanel 8 Note Off - Duracao: 327060 Nota: C1 Vol.: 62
Chanel 8 Note On - Duracao: 327060 Nota: C1 Vol.: 63
Chanel 6 Note Off - Duracao: 327180 Nota: C1 Vol.: 49
Chanel 6 Note On - Duracao: 327180 Nota: C1 Vol.: 50
Chanel 2 Note Off - Duracao: 327240 Nota: C1 Vol.: 86
Chanel 2 Note On - Duracao: 327240 Nota: C1 Vol.: 72
Chanel 9 Note Off - Duracao: 327420 Nota: C1 Vol.: 63
Chanel 9 Note On - Duracao: 327420 Nota: C1 Vol.: 63
Chanel 8 Note Off - Duracao: 327540 Nota: C1 Vol.: 63
Chanel 8 Note On - Duracao: 327540 Nota: C1 Vol.: 71
Chanel 6 Note Off - Duracao: 327660 Nota: C1 Vol.: 50
Chanel 6 Note On - Duracao: 327660 Nota: C1 Vol.: 57
Chanel 2 Note Off - Duracao: 327720 Nota: C1 Vol.: 72
Chanel 2 Note On - Duracao: 327720 Nota: C1 Vol.: 77
Chanel 5 Note Off - Duracao: 327720 Nota: C1 Vol.: 48
Chanel 5 Note On - Duracao: 327720 Nota: C1 Vol.: 53
Chanel 8 Note Off - Duracao: 327780 Nota: C1 Vol.: 71
Chanel 8 Note On - Duracao: 327780 Nota: C1 Vol.: 66
Chanel 9 Note Off - Duracao: 327900 Nota: C1 Vol.: 63
Chanel 9 Note On - Duracao: 327900 Nota: C1 Vol.: 55
Chanel 2 Note Off - Duracao: 327960 Nota: C1 Vol.: 77
Chanel 2 Note On - Duracao: 327960 Nota: C1 Vol.: 71
Chanel 4 Note Off - Duracao: 328140 Nota: C1 Vol.: 40
Chanel 4 Note On - Duracao: 328140 Nota: C1 Vol.: 64
Chanel 6 Note Off - Duracao: 328140 Nota: C1 Vol.: 57
Chanel 6 Note On - Duracao: 328140 Nota: C1 Vol.: 72
Chanel 8 Note Off - Duracao: 328260 Nota: C1 Vol.: 66
Chanel 8 Note On - Duracao: 328260 Nota: C1 Vol.: 68
Chanel 4 Note Off - Duracao: 328380 Nota: C1 Vol.: 64
Chanel 4 Note On - Duracao: 328380 Nota: C1 Vol.: 63
Chanel 6 Note Off - Duracao: 328380 Nota: C1 Vol.: 72
Chanel 6 Note On - Duracao: 328380 Nota: C1 Vol.: 58
Chanel 9 Note Off - Duracao: 328380 Nota: C1 Vol.: 55
Chanel 9 Note On - Duracao: 328380 Nota: C1 Vol.: 52
Chanel 2 Note Off - Duracao: 328440 Nota: C1 Vol.: 71
Chanel 2 Note On - Duracao: 328440 Nota: C1 Vol.: 77
Chanel 4 Note Off - Duracao: 328620 Nota: C1 Vol.: 63
Chanel 4 Note On - Duracao: 328620 Nota: C1 Vol.: 54
Chanel 2 Note Off - Duracao: 328680 Nota: C1 Vol.: 77
Chanel 2 Note On - Duracao: 328680 Nota: C1 Vol.: 75
Chanel 5 Note Off - Duracao: 328680 Nota: C1 Vol.: 53
Chanel 5 Note On - Duracao: 328680 Nota: C1 Vol.: 62
Chanel 8 Note Off - Duracao: 328740 Nota: C1 Vol.: 68
Chanel 8 Note On - Duracao: 328740 Nota: C1 Vol.: 76
Chanel 2 Note Off - Duracao: 328920 Nota: C1 Vol.: 75
Chanel 2 Note On - Duracao: 328920 Nota: C1 Vol.: 79
Chanel 3 Note Off - Duracao: 328920 Nota: C1 Vol.: 40
Chanel 3 Note On - Duracao: 328920 Nota: C1 Vol.: 40
Chanel 5 Note Off - Duracao: 328920 Nota: C1 Vol.: 62
Chanel 5 Note On - Duracao: 328920 Nota: C1 Vol.: 59
Chanel 7 Note Off - Duracao: 328920 Nota: C1 Vol.: 75
Chanel 7 Note On - Duracao: 328920 Nota: C1 Vol.: 71
Chanel 8 Note Off - Duracao: 328980 Nota: C1 Vol.: 76
Chanel 8 Note On - Duracao: 328980 Nota: C1 Vol.: 58
Chanel 4 Note Off - Duracao: 329100 Nota: C1 Vol.: 54
Chanel 4 Note On - Duracao: 329100 Nota: C1 Vol.: 60
Chanel 2 Note Off - Duracao: 329160 Nota: C1 Vol.: 79
Chanel 2 Note On - Duracao: 329160 Nota: C1 Vol.: 79
Chanel 5 Note Off - Duracao: 329160 Nota: C1 Vol.: 59
Chanel 5 Note On - Duracao: 329160 Nota: C1 Vol.: 51
Chanel 6 Note Off - Duracao: 329340 Nota: C1 Vol.: 58
Chanel 6 Note On - Duracao: 329340 Nota: C1 Vol.: 56
Chanel 9 Note Off - Duracao: 329340 Nota: C1 Vol.: 52
Chanel 9 Note On - Duracao: 329340 Nota: C1 Vol.: 53
Chanel 2 Note Off - Duracao: 329400 Nota: C1 Vol.: 79
Chanel 2 Note On - Duracao: 329400 Nota: C1 Vol.: 79
Chanel 5 Note Off - Duracao: 329400 Nota: C1 Vol.: 51
Chanel 5 Note On - Duracao: 329400 Nota: C1 Vol.: 51
Chanel 4 Note Off - Duracao: 329580 Nota: C1 Vol.: 60
Chanel 4 Note On - Duracao: 329580 Nota: C1 Vol.: 78
Chanel 2 Note Off - Duracao: 329640 Nota: C1 Vol.: 79
Chanel 2 Note On - Duracao: 329640 Nota: C1 Vol.: 77
Chanel 5 Note Off - Duracao: 329640 Nota: C1 Vol.: 51
Chanel 5 Note On - Duracao: 329640 Nota: C1 Vol.: 48
Chanel 4 Note Off - Duracao: 329700 Nota: C1 Vol.: 78
Chanel 4 Note On - Duracao: 329700 Nota: C1 Vol.: 86
Chanel 4 Note Off - Duracao: 329820 Nota: C1 Vol.: 86
Chanel 4 Note On - Duracao: 329820 Nota: C1 Vol.: 86
Chanel 2 Note Off - Duracao: 329880 Nota: C1 Vol.: 77
Chanel 2 Note On - Duracao: 329880 Nota: C1 Vol.: 84
Chanel 5 Note Off - Duracao: 329880 Nota: C1 Vol.: 48
Chanel 5 Note On - Duracao: 329880 Nota: C1 Vol.: 54
Chanel 4 Note Off - Duracao: 329940 Nota: C1 Vol.: 86
Chanel 4 Note On - Duracao: 329940 Nota: C1 Vol.: 97
Chanel 8 Note Off - Duracao: 329940 Nota: C1 Vol.: 58
Chanel 8 Note On - Duracao: 329940 Nota: C1 Vol.: 63
Chanel 4 Note Off - Duracao: 330000 Nota: C1 Vol.: 97
Chanel 4 Note On - Duracao: 330000 Nota: C1 Vol.: 98
Chanel 4 Note Off - Duracao: 330060 Nota: C1 Vol.: 98
Chanel 4 Note On - Duracao: 330060 Nota: C1 Vol.: 99
Chanel 2 Note Off - Duracao: 330120 Nota: C1 Vol.: 84
Chanel 2 Note On - Duracao: 330120 Nota: C1 Vol.: 80
Chanel 4 Note Off - Duracao: 330120 Nota: C1 Vol.: 99
Chanel 4 Note On - Duracao: 330120 Nota: C1 Vol.: 99
Chanel 5 Note Off - Duracao: 330120 Nota: C1 Vol.: 54
Chanel 5 Note On - Duracao: 330120 Nota: C1 Vol.: 40
Chanel 4 Note Off - Duracao: 330180 Nota: C1 Vol.: 99
Chanel 4 Note On - Duracao: 330180 Nota: C1 Vol.: 99
Chanel 4 Note Off - Duracao: 330240 Nota: C1 Vol.: 99
Chanel 4 Note On - Duracao: 330240 Nota: C1 Vol.: 67
Chanel 9 Note Off - Duracao: 330300 Nota: C1 Vol.: 53
Chanel 9 Note On - Duracao: 330300 Nota: C1 Vol.: 54
Chanel 2 Note Off - Duracao: 330360 Nota: C1 Vol.: 80
Chanel 2 Note On - Duracao: 330360 Nota: C1 Vol.: 81
Chanel 8 Note Off - Duracao: 330420 Nota: C1 Vol.: 63
Chanel 8 Note On - Duracao: 330420 Nota: C1 Vol.: 63
Chanel 2 Note Off - Duracao: 330600 Nota: C1 Vol.: 81
Chanel 2 Note On - Duracao: 330600 Nota: C1 Vol.: 79
Chanel 4 Note Off - Duracao: 330720 Nota: C1 Vol.: 67
Chanel 4 Note On - Duracao: 330720 Nota: C1 Vol.: 84
Chanel 2 Note Off - Duracao: 330840 Nota: C1 Vol.: 79
Chanel 2 Note On - Duracao: 330840 Nota: C1 Vol.: 70
Chanel 3 Note Off - Duracao: 330840 Nota: C1 Vol.: 40
Chanel 3 Note On - Duracao: 330840 Nota: C1 Vol.: 51
Chanel 4 Note Off - Duracao: 330840 Nota: C1 Vol.: 84
Chanel 4 Note On - Duracao: 330840 Nota: C1 Vol.: 95
Chanel 7 Note Off - Duracao: 330840 Nota: C1 Vol.: 71
Chanel 7 Note On - Duracao: 330840 Nota: C1 Vol.: 67
Chanel 4 Note Off - Duracao: 330900 Nota: C1 Vol.: 95
Chanel 4 Note On - Duracao: 330900 Nota: C1 Vol.: 99
Chanel 8 Note Off - Duracao: 330900 Nota: C1 Vol.: 63
Chanel 8 Note On - Duracao: 330900 Nota: C1 Vol.: 49
Chanel 4 Note Off - Duracao: 330960 Nota: C1 Vol.: 99
Chanel 4 Note On - Duracao: 330960 Nota: C1 Vol.: 92
Chanel 2 Note Off - Duracao: 331080 Nota: C1 Vol.: 70
Chanel 2 Note On - Duracao: 331080 Nota: C1 Vol.: 75
Chanel 4 Note Off - Duracao: 331080 Nota: C1 Vol.: 92
Chanel 4 Note On - Duracao: 331080 Nota: C1 Vol.: 79
Chanel 5 Note Off - Duracao: 331080 Nota: C1 Vol.: 40
Chanel 5 Note On - Duracao: 331080 Nota: C1 Vol.: 40
Chanel 2 Note Off - Duracao: 331200 Nota: C1 Vol.: 75
Chanel 2 Note On - Duracao: 331200 Nota: C1 Vol.: 73
Chanel 6 Note Off - Duracao: 331260 Nota: C1 Vol.: 56
Chanel 6 Note On - Duracao: 331260 Nota: C1 Vol.: 56
Chanel 9 Note Off - Duracao: 331260 Nota: C1 Vol.: 54
Chanel 9 Note On - Duracao: 331260 Nota: C1 Vol.: 52
Chanel 2 Note Off - Duracao: 331320 Nota: C1 Vol.: 73
Chanel 2 Note On - Duracao: 331320 Nota: C1 Vol.: 70
Chanel 4 Note Off - Duracao: 331320 Nota: C1 Vol.: 79
Chanel 4 Note On - Duracao: 331320 Nota: C1 Vol.: 62
Chanel 2 Note Off - Duracao: 331560 Nota: C1 Vol.: 70
Chanel 2 Note On - Duracao: 331560 Nota: C1 Vol.: 75
Chanel 2 Note Off - Duracao: 331680 Nota: C1 Vol.: 75
Chanel 2 Note On - Duracao: 331680 Nota: C1 Vol.: 80
Chanel 2 Note Off - Duracao: 331800 Nota: C1 Vol.: 80
Chanel 2 Note On - Duracao: 331800 Nota: C1 Vol.: 92
Chanel 3 Note Off - Duracao: 331800 Nota: C1 Vol.: 51
Chanel 3 Note On - Duracao: 331800 Nota: C1 Vol.: 51
Chanel 8 Note Off - Duracao: 331860 Nota: C1 Vol.: 49
Chanel 8 Note On - Duracao: 331860 Nota: C1 Vol.: 54
Chanel 2 Note Off - Duracao: 331920 Nota: C1 Vol.: 92
Chanel 2 Note On - Duracao: 331920 Nota: C1 Vol.: 83
Chanel 2 Note Off - Duracao: 332040 Nota: C1 Vol.: 83
Chanel 2 Note On - Duracao: 332040 Nota: C1 Vol.: 78
Chanel 9 Note Off - Duracao: 332220 Nota: C1 Vol.: 52
Chanel 9 Note On - Duracao: 332220 Nota: C1 Vol.: 50
Chanel 2 Note Off - Duracao: 332280 Nota: C1 Vol.: 78
Chanel 2 Note On - Duracao: 332280 Nota: C1 Vol.: 56
Chanel 4 Note Off - Duracao: 332280 Nota: C1 Vol.: 62
Chanel 4 Note On - Duracao: 332280 Nota: C1 Vol.: 85
Chanel 8 Note Off - Duracao: 332340 Nota: C1 Vol.: 54
Chanel 8 Note On - Duracao: 332340 Nota: C1 Vol.: 64
Chanel 4 Note Off - Duracao: 332400 Nota: C1 Vol.: 85
Chanel 4 Note On - Duracao: 332400 Nota: C1 Vol.: 95
Chanel 4 Note Off - Duracao: 332460 Nota: C1 Vol.: 95
Chanel 4 Note On - Duracao: 332460 Nota: C1 Vol.: 98
Chanel 8 Note Off - Duracao: 332460 Nota: C1 Vol.: 64
Chanel 8 Note On - Duracao: 332460 Nota: C1 Vol.: 54
Chanel 4 Note Off - Duracao: 332520 Nota: C1 Vol.: 98
Chanel 4 Note On - Duracao: 332520 Nota: C1 Vol.: 98
Chanel 4 Note Off - Duracao: 332580 Nota: C1 Vol.: 98
Chanel 4 Note On - Duracao: 332580 Nota: C1 Vol.: 100
Chanel 4 Note Off - Duracao: 332640 Nota: C1 Vol.: 100
Chanel 4 Note On - Duracao: 332640 Nota: C1 Vol.: 88
Chanel 8 Note Off - Duracao: 332700 Nota: C1 Vol.: 54
Chanel 8 Note On - Duracao: 332700 Nota: C1 Vol.: 49
Chanel 3 Note Off - Duracao: 332760 Nota: C1 Vol.: 51
Chanel 3 Note On - Duracao: 332760 Nota: C1 Vol.: 51
Chanel 4 Note Off - Duracao: 332760 Nota: C1 Vol.: 88
Chanel 4 Note On - Duracao: 332760 Nota: C1 Vol.: 99
Chanel 7 Note Off - Duracao: 332760 Nota: C1 Vol.: 67
Chanel 7 Note On - Duracao: 332760 Nota: C1 Vol.: 54
Chanel 4 Note Off - Duracao: 332820 Nota: C1 Vol.: 99
Chanel 4 Note On - Duracao: 332820 Nota: C1 Vol.: 97
Chanel 4 Note Off - Duracao: 332880 Nota: C1 Vol.: 97
Chanel 4 Note On - Duracao: 332880 Nota: C1 Vol.: 43
Chanel 5 Note Off - Duracao: 333000 Nota: C1 Vol.: 40
Chanel 5 Note On - Duracao: 333000 Nota: C1 Vol.: 40
Chanel 9 Note Off - Duracao: 333180 Nota: C1 Vol.: 50
Chanel 9 Note On - Duracao: 333180 Nota: C1 Vol.: 52
Chanel 2 Note Off - Duracao: 333240 Nota: C1 Vol.: 56
Chanel 2 Note On - Duracao: 333240 Nota: C1 Vol.: 71
Chanel 2 Note Off - Duracao: 333480 Nota: C1 Vol.: 71
Chanel 2 Note On - Duracao: 333480 Nota: C1 Vol.: 74
Chanel 8 Note Off - Duracao: 333660 Nota: C1 Vol.: 49
Chanel 8 Note On - Duracao: 333660 Nota: C1 Vol.: 56
Chanel 9 Note Off - Duracao: 333660 Nota: C1 Vol.: 52
Chanel 9 Note On - Duracao: 333660 Nota: C1 Vol.: 47
Chanel 2 Note Off - Duracao: 333720 Nota: C1 Vol.: 74
Chanel 2 Note On - Duracao: 333720 Nota: C1 Vol.: 73
Chanel 3 Note Off - Duracao: 333720 Nota: C1 Vol.: 51
Chanel 3 Note On - Duracao: 333720 Nota: C1 Vol.: 49
Chanel 2 Note Off - Duracao: 333960 Nota: C1 Vol.: 73
Chanel 2 Note On - Duracao: 333960 Nota: C1 Vol.: 67
Chanel 5 Note Off - Duracao: 333960 Nota: C1 Vol.: 40
Chanel 5 Note On - Duracao: 333960 Nota: C1 Vol.: 53
Chanel 8 Note Off - Duracao: 334140 Nota: C1 Vol.: 56
Chanel 8 Note On - Duracao: 334140 Nota: C1 Vol.: 49
Chanel 2 Note Off - Duracao: 334200 Nota: C1 Vol.: 67
Chanel 2 Note On - Duracao: 334200 Nota: C1 Vol.: 67
Chanel 2 Note Off - Duracao: 334440 Nota: C1 Vol.: 67
Chanel 2 Note On - Duracao: 334440 Nota: C1 Vol.: 61
Chanel 5 Note Off - Duracao: 334440 Nota: C1 Vol.: 53
Chanel 5 Note On - Duracao: 334440 Nota: C1 Vol.: 60
Chanel 9 Note Off - Duracao: 334620 Nota: C1 Vol.: 47
Chanel 9 Note On - Duracao: 334620 Nota: C1 Vol.: 47
Chanel 3 Note Off - Duracao: 334680 Nota: C1 Vol.: 49
Chanel 3 Note On - Duracao: 334680 Nota: C1 Vol.: 64
Chanel 5 Note Off - Duracao: 334680 Nota: C1 Vol.: 60
Chanel 5 Note On - Duracao: 334680 Nota: C1 Vol.: 63
Chanel 7 Note Off - Duracao: 334680 Nota: C1 Vol.: 54
Chanel 7 Note On - Duracao: 334680 Nota: C1 Vol.: 48
Chanel 2 Note Off - Duracao: 334920 Nota: C1 Vol.: 61
Chanel 2 Note On - Duracao: 334920 Nota: C1 Vol.: 51
Chanel 5 Note Off - Duracao: 334920 Nota: C1 Vol.: 63
Chanel 5 Note On - Duracao: 334920 Nota: C1 Vol.: 64
Chanel 6 Note Off - Duracao: 335100 Nota: C1 Vol.: 56
Chanel 6 Note On - Duracao: 335100 Nota: C1 Vol.: 60
Chanel 8 Note Off - Duracao: 335100 Nota: C1 Vol.: 49
Chanel 8 Note On - Duracao: 335100 Nota: C1 Vol.: 54
Chanel 3 Note Off - Duracao: 335160 Nota: C1 Vol.: 64
Chanel 3 Note On - Duracao: 335160 Nota: C1 Vol.: 46
Chanel 5 Note Off - Duracao: 335160 Nota: C1 Vol.: 64
Chanel 5 Note On - Duracao: 335160 Nota: C1 Vol.: 62
Chanel 5 Note Off - Duracao: 335400 Nota: C1 Vol.: 62
Chanel 5 Note On - Duracao: 335400 Nota: C1 Vol.: 63
Chanel 8 Note Off - Duracao: 335580 Nota: C1 Vol.: 54
Chanel 8 Note On - Duracao: 335580 Nota: C1 Vol.: 60
Chanel 9 Note Off - Duracao: 335580 Nota: C1 Vol.: 47
Chanel 9 Note On - Duracao: 335580 Nota: C1 Vol.: 53
Chanel 5 Note Off - Duracao: 335640 Nota: C1 Vol.: 63
Chanel 5 Note On - Duracao: 335640 Nota: C1 Vol.: 63
Chanel 8 Note Off - Duracao: 335820 Nota: C1 Vol.: 60
Chanel 8 Note On - Duracao: 335820 Nota: C1 Vol.: 69
Chanel 2 Note Off - Duracao: 335880 Nota: C1 Vol.: 51
Chanel 2 Note On - Duracao: 335880 Nota: C1 Vol.: 51
Chanel 5 Note Off - Duracao: 335880 Nota: C1 Vol.: 63
Chanel 5 Note On - Duracao: 335880 Nota: C1 Vol.: 64
Chanel 8 Note Off - Duracao: 335940 Nota: C1 Vol.: 69
Chanel 8 Note On - Duracao: 335940 Nota: C1 Vol.: 63
Chanel 5 Note Off - Duracao: 336120 Nota: C1 Vol.: 64
Chanel 5 Note On - Duracao: 336120 Nota: C1 Vol.: 49
Chanel 8 Note Off - Duracao: 336180 Nota: C1 Vol.: 63
Chanel 8 Note On - Duracao: 336180 Nota: C1 Vol.: 60
Chanel 2 Note Off - Duracao: 336360 Nota: C1 Vol.: 51
Chanel 2 Note On - Duracao: 336360 Nota: C1 Vol.: 69
Chanel 9 Note Off - Duracao: 336540 Nota: C1 Vol.: 53
Chanel 9 Note On - Duracao: 336540 Nota: C1 Vol.: 60
Chanel 2 Note Off - Duracao: 336600 Nota: C1 Vol.: 69
Chanel 2 Note On - Duracao: 336600 Nota: C1 Vol.: 79
Chanel 7 Note Off - Duracao: 336600 Nota: C1 Vol.: 48
Chanel 7 Note On - Duracao: 336600 Nota: C1 Vol.: 48
Chanel 8 Note Off - Duracao: 336660 Nota: C1 Vol.: 60
Chanel 8 Note On - Duracao: 336660 Nota: C1 Vol.: 64
Chanel 2 Note Off - Duracao: 336720 Nota: C1 Vol.: 79
Chanel 2 Note On - Duracao: 336720 Nota: C1 Vol.: 83
Chanel 4 Note Off - Duracao: 336720 Nota: C1 Vol.: 43
Chanel 4 Note On - Duracao: 336720 Nota: C1 Vol.: 78
Chanel 2 Note Off - Duracao: 336840 Nota: C1 Vol.: 83
Chanel 2 Note On - Duracao: 336840 Nota: C1 Vol.: 71
Chanel 2 Note Off - Duracao: 336960 Nota: C1 Vol.: 71
Chanel 2 Note On - Duracao: 336960 Nota: C1 Vol.: 60
Chanel 4 Note Off - Duracao: 336960 Nota: C1 Vol.: 78
Chanel 4 Note On - Duracao: 336960 Nota: C1 Vol.: 90
Chanel 9 Note Off - Duracao: 337020 Nota: C1 Vol.: 60
Chanel 9 Note On - Duracao: 337020 Nota: C1 Vol.: 55
Chanel 3 Note Off - Duracao: 337080 Nota: C1 Vol.: 46
Chanel 3 Note On - Duracao: 337080 Nota: C1 Vol.: 87
Chanel 4 Note Off - Duracao: 337080 Nota: C1 Vol.: 90
Chanel 4 Note On - Duracao: 337080 Nota: C1 Vol.: 97
Chanel 5 Note Off - Duracao: 337080 Nota: C1 Vol.: 49
Chanel 5 Note On - Duracao: 337080 Nota: C1 Vol.: 55
Chanel 4 Note Off - Duracao: 337140 Nota: C1 Vol.: 97
Chanel 4 Note On - Duracao: 337140 Nota: C1 Vol.: 98
Chanel 8 Note Off - Duracao: 337140 Nota: C1 Vol.: 64
Chanel 8 Note On - Duracao: 337140 Nota: C1 Vol.: 61
Chanel 2 Note Off - Duracao: 337200 Nota: C1 Vol.: 60
Chanel 2 Note On - Duracao: 337200 Nota: C1 Vol.: 59
Chanel 3 Note Off - Duracao: 337200 Nota: C1 Vol.: 87
Chanel 3 Note On - Duracao: 337200 Nota: C1 Vol.: 85
Chanel 4 Note Off - Duracao: 337200 Nota: C1 Vol.: 98
Chanel 4 Note On - Duracao: 337200 Nota: C1 Vol.: 99
Chanel 4 Note Off - Duracao: 337260 Nota: C1 Vol.: 99
Chanel 4 Note On - Duracao: 337260 Nota: C1 Vol.: 99
Chanel 3 Note Off - Duracao: 337320 Nota: C1 Vol.: 85
Chanel 3 Note On - Duracao: 337320 Nota: C1 Vol.: 95
Chanel 4 Note Off - Duracao: 337320 Nota: C1 Vol.: 99
Chanel 4 Note On - Duracao: 337320 Nota: C1 Vol.: 97
Chanel 3 Note Off - Duracao: 337380 Nota: C1 Vol.: 95
Chanel 3 Note On - Duracao: 337380 Nota: C1 Vol.: 98
Chanel 4 Note Off - Duracao: 337380 Nota: C1 Vol.: 97
Chanel 4 Note On - Duracao: 337380 Nota: C1 Vol.: 96
Chanel 2 Note Off - Duracao: 337440 Nota: C1 Vol.: 59
Chanel 2 Note On - Duracao: 337440 Nota: C1 Vol.: 59
Chanel 3 Note Off - Duracao: 337440 Nota: C1 Vol.: 98
Chanel 3 Note On - Duracao: 337440 Nota: C1 Vol.: 99
Chanel 4 Note Off - Duracao: 337440 Nota: C1 Vol.: 96
Chanel 4 Note On - Duracao: 337440 Nota: C1 Vol.: 98
Chanel 3 Note Off - Duracao: 337500 Nota: C1 Vol.: 99
Chanel 3 Note On - Duracao: 337500 Nota: C1 Vol.: 100
Chanel 4 Note Off - Duracao: 337500 Nota: C1 Vol.: 98
Chanel 4 Note On - Duracao: 337500 Nota: C1 Vol.: 60
Chanel 3 Note Off - Duracao: 337560 Nota: C1 Vol.: 100
Chanel 3 Note On - Duracao: 337560 Nota: C1 Vol.: 100
Chanel 7 Note Off - Duracao: 337560 Nota: C1 Vol.: 48
Chanel 7 Note On - Duracao: 337560 Nota: C1 Vol.: 52
Chanel 3 Note Off - Duracao: 337620 Nota: C1 Vol.: 100
Chanel 3 Note On - Duracao: 337620 Nota: C1 Vol.: 100
Chanel 8 Note Off - Duracao: 337620 Nota: C1 Vol.: 61
Chanel 8 Note On - Duracao: 337620 Nota: C1 Vol.: 65
Chanel 3 Note Off - Duracao: 337680 Nota: C1 Vol.: 100
Chanel 3 Note On - Duracao: 337680 Nota: C1 Vol.: 100
Chanel 3 Note Off - Duracao: 337740 Nota: C1 Vol.: 100
Chanel 3 Note On - Duracao: 337740 Nota: C1 Vol.: 90
Chanel 3 Note Off - Duracao: 337860 Nota: C1 Vol.: 90
Chanel 3 Note On - Duracao: 337860 Nota: C1 Vol.: 47
Chanel 2 Note Off - Duracao: 337920 Nota: C1 Vol.: 59
Chanel 2 Note On - Duracao: 337920 Nota: C1 Vol.: 74
Chanel 9 Note Off - Duracao: 337980 Nota: C1 Vol.: 55
Chanel 9 Note On - Duracao: 337980 Nota: C1 Vol.: 56
Chanel 5 Note Off - Duracao: 338040 Nota: C1 Vol.: 55
Chanel 5 Note On - Duracao: 338040 Nota: C1 Vol.: 56
Chanel 7 Note Off - Duracao: 338040 Nota: C1 Vol.: 52
Chanel 7 Note On - Duracao: 338040 Nota: C1 Vol.: 54
Chanel 8 Note Off - Duracao: 338100 Nota: C1 Vol.: 65
Chanel 8 Note On - Duracao: 338100 Nota: C1 Vol.: 56
Chanel 2 Note Off - Duracao: 338160 Nota: C1 Vol.: 74
Chanel 2 Note On - Duracao: 338160 Nota: C1 Vol.: 80
Chanel 2 Note Off - Duracao: 338280 Nota: C1 Vol.: 80
Chanel 2 Note On - Duracao: 338280 Nota: C1 Vol.: 78
Chanel 4 Note Off - Duracao: 338460 Nota: C1 Vol.: 60
Chanel 4 Note On - Duracao: 338460 Nota: C1 Vol.: 57
Chanel 2 Note Off - Duracao: 338520 Nota: C1 Vol.: 78
Chanel 2 Note On - Duracao: 338520 Nota: C1 Vol.: 40
Chanel 7 Note Off - Duracao: 338520 Nota: C1 Vol.: 54
Chanel 7 Note On - Duracao: 338520 Nota: C1 Vol.: 59
Chanel 6 Note Off - Duracao: 338940 Nota: C1 Vol.: 60
Chanel 6 Note On - Duracao: 338940 Nota: C1 Vol.: 60
Chanel 9 Note Off - Duracao: 338940 Nota: C1 Vol.: 56
Chanel 9 Note On - Duracao: 338940 Nota: C1 Vol.: 61
Chanel 7 Note Off - Duracao: 339000 Nota: C1 Vol.: 59
Chanel 7 Note On - Duracao: 339000 Nota: C1 Vol.: 48
Chanel 8 Note Off - Duracao: 339060 Nota: C1 Vol.: 56
Chanel 8 Note On - Duracao: 339060 Nota: C1 Vol.: 61
Chanel 4 Note Off - Duracao: 339420 Nota: C1 Vol.: 57
Chanel 4 Note On - Duracao: 339420 Nota: C1 Vol.: 88
Chanel 9 Note Off - Duracao: 339420 Nota: C1 Vol.: 61
Chanel 9 Note On - Duracao: 339420 Nota: C1 Vol.: 61
Chanel 4 Note Off - Duracao: 339540 Nota: C1 Vol.: 88
Chanel 4 Note On - Duracao: 339540 Nota: C1 Vol.: 98
Chanel 8 Note Off - Duracao: 339540 Nota: C1 Vol.: 61
Chanel 8 Note On - Duracao: 339540 Nota: C1 Vol.: 53
Chanel 4 Note Off - Duracao: 339600 Nota: C1 Vol.: 98
Chanel 4 Note On - Duracao: 339600 Nota: C1 Vol.: 99
Chanel 4 Note Off - Duracao: 339660 Nota: C1 Vol.: 99
Chanel 4 Note On - Duracao: 339660 Nota: C1 Vol.: 98
Chanel 4 Note Off - Duracao: 339720 Nota: C1 Vol.: 98
Chanel 4 Note On - Duracao: 339720 Nota: C1 Vol.: 98
Chanel 3 Note Off - Duracao: 339780 Nota: C1 Vol.: 47
Chanel 3 Note On - Duracao: 339780 Nota: C1 Vol.: 99
Chanel 4 Note Off - Duracao: 339780 Nota: C1 Vol.: 98
Chanel 4 Note On - Duracao: 339780 Nota: C1 Vol.: 97
Chanel 4 Note Off - Duracao: 339840 Nota: C1 Vol.: 97
Chanel 4 Note On - Duracao: 339840 Nota: C1 Vol.: 94
Chanel 3 Note Off - Duracao: 339900 Nota: C1 Vol.: 99
Chanel 3 Note On - Duracao: 339900 Nota: C1 Vol.: 100
Chanel 9 Note Off - Duracao: 339900 Nota: C1 Vol.: 61
Chanel 9 Note On - Duracao: 339900 Nota: C1 Vol.: 68
Chanel 3 Note Off - Duracao: 339960 Nota: C1 Vol.: 100
Chanel 3 Note On - Duracao: 339960 Nota: C1 Vol.: 100
Chanel 4 Note Off - Duracao: 339960 Nota: C1 Vol.: 94
Chanel 4 Note On - Duracao: 339960 Nota: C1 Vol.: 50
Chanel 5 Note Off - Duracao: 339960 Nota: C1 Vol.: 56
Chanel 5 Note On - Duracao: 339960 Nota: C1 Vol.: 60
Chanel 7 Note Off - Duracao: 339960 Nota: C1 Vol.: 48
Chanel 7 Note On - Duracao: 339960 Nota: C1 Vol.: 50
Chanel 3 Note Off - Duracao: 340020 Nota: C1 Vol.: 100
Chanel 3 Note On - Duracao: 340020 Nota: C1 Vol.: 100
Chanel 8 Note Off - Duracao: 340020 Nota: C1 Vol.: 53
Chanel 8 Note On - Duracao: 340020 Nota: C1 Vol.: 45
Chanel 3 Note Off - Duracao: 340080 Nota: C1 Vol.: 100
Chanel 3 Note On - Duracao: 340080 Nota: C1 Vol.: 100
Chanel 3 Note Off - Duracao: 340140 Nota: C1 Vol.: 100
Chanel 3 Note On - Duracao: 340140 Nota: C1 Vol.: 100
Chanel 3 Note Off - Duracao: 340200 Nota: C1 Vol.: 100
Chanel 3 Note On - Duracao: 340200 Nota: C1 Vol.: 94
Chanel 3 Note Off - Duracao: 340320 Nota: C1 Vol.: 94
Chanel 3 Note On - Duracao: 340320 Nota: C1 Vol.: 84
Chanel 9 Note Off - Duracao: 340380 Nota: C1 Vol.: 68
Chanel 9 Note On - Duracao: 340380 Nota: C1 Vol.: 74
Chanel 2 Note Off - Duracao: 340440 Nota: C1 Vol.: 40
Chanel 2 Note On - Duracao: 340440 Nota: C1 Vol.: 52
Chanel 8 Note Off - Duracao: 340500 Nota: C1 Vol.: 45
Chanel 8 Note On - Duracao: 340500 Nota: C1 Vol.: 40
Chanel 3 Note Off - Duracao: 340560 Nota: C1 Vol.: 84
Chanel 3 Note On - Duracao: 340560 Nota: C1 Vol.: 85
Chanel 2 Note Off - Duracao: 340680 Nota: C1 Vol.: 52
Chanel 2 Note On - Duracao: 340680 Nota: C1 Vol.: 51
Chanel 3 Note Off - Duracao: 340800 Nota: C1 Vol.: 85
Chanel 3 Note On - Duracao: 340800 Nota: C1 Vol.: 91
Chanel 9 Note Off - Duracao: 340860 Nota: C1 Vol.: 74
Chanel 9 Note On - Duracao: 340860 Nota: C1 Vol.: 77
Chanel 2 Note Off - Duracao: 340920 Nota: C1 Vol.: 51
Chanel 2 Note On - Duracao: 340920 Nota: C1 Vol.: 52
Chanel 3 Note Off - Duracao: 340920 Nota: C1 Vol.: 91
Chanel 3 Note On - Duracao: 340920 Nota: C1 Vol.: 83
Chanel 7 Note Off - Duracao: 340920 Nota: C1 Vol.: 50
Chanel 7 Note On - Duracao: 340920 Nota: C1 Vol.: 60
Chanel 8 Note Off - Duracao: 340980 Nota: C1 Vol.: 40
Chanel 8 Note On - Duracao: 340980 Nota: C1 Vol.: 51
Chanel 8 Note Off - Duracao: 341100 Nota: C1 Vol.: 51
Chanel 8 Note On - Duracao: 341100 Nota: C1 Vol.: 47
Chanel 2 Note Off - Duracao: 341160 Nota: C1 Vol.: 52
Chanel 2 Note On - Duracao: 341160 Nota: C1 Vol.: 42
Chanel 3 Note Off - Duracao: 341160 Nota: C1 Vol.: 83
Chanel 3 Note On - Duracao: 341160 Nota: C1 Vol.: 76
Chanel 8 Note Off - Duracao: 341220 Nota: C1 Vol.: 47
Chanel 8 Note On - Duracao: 341220 Nota: C1 Vol.: 51
Chanel 8 Note Off - Duracao: 341340 Nota: C1 Vol.: 51
Chanel 8 Note On - Duracao: 341340 Nota: C1 Vol.: 54
Chanel 9 Note Off - Duracao: 341340 Nota: C1 Vol.: 77
Chanel 9 Note On - Duracao: 341340 Nota: C1 Vol.: 74
Chanel 3 Note Off - Duracao: 341400 Nota: C1 Vol.: 76
Chanel 3 Note On - Duracao: 341400 Nota: C1 Vol.: 73
Chanel 8 Note Off - Duracao: 341460 Nota: C1 Vol.: 54
Chanel 8 Note On - Duracao: 341460 Nota: C1 Vol.: 52
Chanel 8 Note Off - Duracao: 341580 Nota: C1 Vol.: 52
Chanel 8 Note On - Duracao: 341580 Nota: C1 Vol.: 54
Chanel 2 Note Off - Duracao: 341640 Nota: C1 Vol.: 42
Chanel 2 Note On - Duracao: 341640 Nota: C1 Vol.: 40
Chanel 3 Note Off - Duracao: 341640 Nota: C1 Vol.: 73
Chanel 3 Note On - Duracao: 341640 Nota: C1 Vol.: 79
Chanel 8 Note Off - Duracao: 341700 Nota: C1 Vol.: 54
Chanel 8 Note On - Duracao: 341700 Nota: C1 Vol.: 52
Chanel 8 Note Off - Duracao: 341820 Nota: C1 Vol.: 52
Chanel 8 Note On - Duracao: 341820 Nota: C1 Vol.: 51
Chanel 9 Note Off - Duracao: 341820 Nota: C1 Vol.: 74
Chanel 9 Note On - Duracao: 341820 Nota: C1 Vol.: 79
Chanel 3 Note Off - Duracao: 341880 Nota: C1 Vol.: 79
Chanel 3 Note On - Duracao: 341880 Nota: C1 Vol.: 87
Chanel 4 Note Off - Duracao: 341880 Nota: C1 Vol.: 50
Chanel 4 Note On - Duracao: 341880 Nota: C1 Vol.: 50
Chanel 5 Note Off - Duracao: 341880 Nota: C1 Vol.: 60
Chanel 5 Note On - Duracao: 341880 Nota: C1 Vol.: 57
Chanel 7 Note Off - Duracao: 341880 Nota: C1 Vol.: 60
Chanel 7 Note On - Duracao: 341880 Nota: C1 Vol.: 65
Chanel 8 Note Off - Duracao: 341940 Nota: C1 Vol.: 51
Chanel 8 Note On - Duracao: 341940 Nota: C1 Vol.: 48
Chanel 3 Note Off - Duracao: 342000 Nota: C1 Vol.: 87
Chanel 3 Note On - Duracao: 342000 Nota: C1 Vol.: 84
Chanel 9 Note Off - Duracao: 342060 Nota: C1 Vol.: 79
Chanel 9 Note On - Duracao: 342060 Nota: C1 Vol.: 81
Chanel 3 Note Off - Duracao: 342120 Nota: C1 Vol.: 84
Chanel 3 Note On - Duracao: 342120 Nota: C1 Vol.: 72
Chanel 8 Note Off - Duracao: 342180 Nota: C1 Vol.: 48
Chanel 8 Note On - Duracao: 342180 Nota: C1 Vol.: 52
Chanel 9 Note Off - Duracao: 342300 Nota: C1 Vol.: 81
Chanel 9 Note On - Duracao: 342300 Nota: C1 Vol.: 78
Chanel 3 Note Off - Duracao: 342360 Nota: C1 Vol.: 72
Chanel 3 Note On - Duracao: 342360 Nota: C1 Vol.: 65
Chanel 7 Note Off - Duracao: 342360 Nota: C1 Vol.: 65
Chanel 7 Note On - Duracao: 342360 Nota: C1 Vol.: 67
Chanel 8 Note Off - Duracao: 342420 Nota: C1 Vol.: 52
Chanel 8 Note On - Duracao: 342420 Nota: C1 Vol.: 56
Chanel 9 Note Off - Duracao: 342540 Nota: C1 Vol.: 78
Chanel 9 Note On - Duracao: 342540 Nota: C1 Vol.: 75
Chanel 7 Note Off - Duracao: 342600 Nota: C1 Vol.: 67
Chanel 7 Note On - Duracao: 342600 Nota: C1 Vol.: 70
Chanel 8 Note Off - Duracao: 342660 Nota: C1 Vol.: 56
Chanel 8 Note On - Duracao: 342660 Nota: C1 Vol.: 44
Chanel 6 Note Off - Duracao: 342780 Nota: C1 Vol.: 60
Chanel 6 Note On - Duracao: 342780 Nota: C1 Vol.: 59
Chanel 3 Note Off - Duracao: 342840 Nota: C1 Vol.: 65
Chanel 3 Note On - Duracao: 342840 Nota: C1 Vol.: 61
Chanel 7 Note Off - Duracao: 342840 Nota: C1 Vol.: 70
Chanel 7 Note On - Duracao: 342840 Nota: C1 Vol.: 87
Chanel 7 Note Off - Duracao: 342960 Nota: C1 Vol.: 87
Chanel 7 Note On - Duracao: 342960 Nota: C1 Vol.: 91
Chanel 9 Note Off - Duracao: 343020 Nota: C1 Vol.: 75
Chanel 9 Note On - Duracao: 343020 Nota: C1 Vol.: 78
Chanel 7 Note Off - Duracao: 343080 Nota: C1 Vol.: 91
Chanel 7 Note On - Duracao: 343080 Nota: C1 Vol.: 95
Chanel 8 Note Off - Duracao: 343140 Nota: C1 Vol.: 44
Chanel 8 Note On - Duracao: 343140 Nota: C1 Vol.: 40
Chanel 7 Note Off - Duracao: 343200 Nota: C1 Vol.: 95
Chanel 7 Note On - Duracao: 343200 Nota: C1 Vol.: 92
Chanel 9 Note Off - Duracao: 343260 Nota: C1 Vol.: 78
Chanel 9 Note On - Duracao: 343260 Nota: C1 Vol.: 79
Chanel 3 Note Off - Duracao: 343320 Nota: C1 Vol.: 61
Chanel 3 Note On - Duracao: 343320 Nota: C1 Vol.: 64
Chanel 7 Note Off - Duracao: 343320 Nota: C1 Vol.: 92
Chanel 7 Note On - Duracao: 343320 Nota: C1 Vol.: 79
Chanel 9 Note Off - Duracao: 343500 Nota: C1 Vol.: 79
Chanel 9 Note On - Duracao: 343500 Nota: C1 Vol.: 75
Chanel 2 Note Off - Duracao: 343560 Nota: C1 Vol.: 40
Chanel 2 Note On - Duracao: 343560 Nota: C1 Vol.: 40
Chanel 7 Note Off - Duracao: 343560 Nota: C1 Vol.: 79
Chanel 7 Note On - Duracao: 343560 Nota: C1 Vol.: 76
Chanel 3 Note Off - Duracao: 343800 Nota: C1 Vol.: 64
Chanel 3 Note On - Duracao: 343800 Nota: C1 Vol.: 79
Chanel 4 Note Off - Duracao: 343800 Nota: C1 Vol.: 50
Chanel 4 Note On - Duracao: 343800 Nota: C1 Vol.: 86
Chanel 5 Note Off - Duracao: 343800 Nota: C1 Vol.: 57
Chanel 5 Note On - Duracao: 343800 Nota: C1 Vol.: 80
Chanel 7 Note Off - Duracao: 343800 Nota: C1 Vol.: 76
Chanel 7 Note On - Duracao: 343800 Nota: C1 Vol.: 89
Chanel 3 Note Off - Duracao: 343920 Nota: C1 Vol.: 79
Chanel 3 Note On - Duracao: 343920 Nota: C1 Vol.: 90
Chanel 4 Note Off - Duracao: 343920 Nota: C1 Vol.: 86
Chanel 4 Note On - Duracao: 343920 Nota: C1 Vol.: 87
Chanel 7 Note Off - Duracao: 343920 Nota: C1 Vol.: 89
Chanel 7 Note On - Duracao: 343920 Nota: C1 Vol.: 95
Chanel 7 Note Off - Duracao: 343980 Nota: C1 Vol.: 95
Chanel 7 Note On - Duracao: 343980 Nota: C1 Vol.: 85
Chanel 9 Note Off - Duracao: 343980 Nota: C1 Vol.: 75
Chanel 9 Note On - Duracao: 343980 Nota: C1 Vol.: 70
Chanel 3 Note Off - Duracao: 344040 Nota: C1 Vol.: 90
Chanel 3 Note On - Duracao: 344040 Nota: C1 Vol.: 96
Chanel 4 Note Off - Duracao: 344040 Nota: C1 Vol.: 87
Chanel 4 Note On - Duracao: 344040 Nota: C1 Vol.: 94
Chanel 5 Note Off - Duracao: 344040 Nota: C1 Vol.: 80
Chanel 5 Note On - Duracao: 344040 Nota: C1 Vol.: 59
Chanel 3 Note Off - Duracao: 344100 Nota: C1 Vol.: 96
Chanel 3 Note On - Duracao: 344100 Nota: C1 Vol.: 92
Chanel 4 Note Off - Duracao: 344100 Nota: C1 Vol.: 94
Chanel 4 Note On - Duracao: 344100 Nota: C1 Vol.: 100
Chanel 7 Note Off - Duracao: 344100 Nota: C1 Vol.: 85
Chanel 7 Note On - Duracao: 344100 Nota: C1 Vol.: 77
Chanel 4 Note Off - Duracao: 344160 Nota: C1 Vol.: 100
Chanel 4 Note On - Duracao: 344160 Nota: C1 Vol.: 100
Chanel 3 Note Off - Duracao: 344220 Nota: C1 Vol.: 92
Chanel 3 Note On - Duracao: 344220 Nota: C1 Vol.: 84
Chanel 4 Note Off - Duracao: 344220 Nota: C1 Vol.: 100
Chanel 4 Note On - Duracao: 344220 Nota: C1 Vol.: 100
Chanel 4 Note Off - Duracao: 344280 Nota: C1 Vol.: 100
Chanel 4 Note On - Duracao: 344280 Nota: C1 Vol.: 93
Chanel 3 Note Off - Duracao: 344340 Nota: C1 Vol.: 84
Chanel 3 Note On - Duracao: 344340 Nota: C1 Vol.: 58
Chanel 7 Note Off - Duracao: 344340 Nota: C1 Vol.: 77
Chanel 7 Note On - Duracao: 344340 Nota: C1 Vol.: 76
Chanel 4 Note Off - Duracao: 344400 Nota: C1 Vol.: 93
Chanel 4 Note On - Duracao: 344400 Nota: C1 Vol.: 95
Chanel 9 Note Off - Duracao: 344460 Nota: C1 Vol.: 70
Chanel 9 Note On - Duracao: 344460 Nota: C1 Vol.: 69
Chanel 4 Note Off - Duracao: 344520 Nota: C1 Vol.: 95
Chanel 4 Note On - Duracao: 344520 Nota: C1 Vol.: 73
Chanel 7 Note Off - Duracao: 344580 Nota: C1 Vol.: 76
Chanel 7 Note On - Duracao: 344580 Nota: C1 Vol.: 93
Chanel 7 Note Off - Duracao: 344700 Nota: C1 Vol.: 93
Chanel 7 Note On - Duracao: 344700 Nota: C1 Vol.: 96
Chanel 7 Note Off - Duracao: 344760 Nota: C1 Vol.: 96
Chanel 7 Note On - Duracao: 344760 Nota: C1 Vol.: 81
Chanel 9 Note Off - Duracao: 344940 Nota: C1 Vol.: 69
Chanel 9 Note On - Duracao: 344940 Nota: C1 Vol.: 64
Chanel 4 Note Off - Duracao: 345000 Nota: C1 Vol.: 73
Chanel 4 Note On - Duracao: 345000 Nota: C1 Vol.: 71
Chanel 5 Note Off - Duracao: 345000 Nota: C1 Vol.: 59
Chanel 5 Note On - Duracao: 345000 Nota: C1 Vol.: 44
Chanel 7 Note Off - Duracao: 345000 Nota: C1 Vol.: 81
Chanel 7 Note On - Duracao: 345000 Nota: C1 Vol.: 76
Chanel 8 Note Off - Duracao: 345060 Nota: C1 Vol.: 40
Chanel 8 Note On - Duracao: 345060 Nota: C1 Vol.: 40
Chanel 7 Note Off - Duracao: 345240 Nota: C1 Vol.: 76
Chanel 7 Note On - Duracao: 345240 Nota: C1 Vol.: 78
Chanel 3 Note Off - Duracao: 345300 Nota: C1 Vol.: 58
Chanel 3 Note On - Duracao: 345300 Nota: C1 Vol.: 53
Chanel 9 Note Off - Duracao: 345420 Nota: C1 Vol.: 64
Chanel 9 Note On - Duracao: 345420 Nota: C1 Vol.: 65
Chanel 4 Note Off - Duracao: 345480 Nota: C1 Vol.: 71
Chanel 4 Note On - Duracao: 345480 Nota: C1 Vol.: 67
Chanel 7 Note Off - Duracao: 345480 Nota: C1 Vol.: 78
Chanel 7 Note On - Duracao: 345480 Nota: C1 Vol.: 59
Chanel 9 Note Off - Duracao: 345900 Nota: C1 Vol.: 65
Chanel 9 Note On - Duracao: 345900 Nota: C1 Vol.: 63
Chanel 4 Note Off - Duracao: 345960 Nota: C1 Vol.: 67
Chanel 4 Note On - Duracao: 345960 Nota: C1 Vol.: 89
Chanel 7 Note Off - Duracao: 345960 Nota: C1 Vol.: 59
Chanel 7 Note On - Duracao: 345960 Nota: C1 Vol.: 71
Chanel 8 Note Off - Duracao: 346020 Nota: C1 Vol.: 40
Chanel 8 Note On - Duracao: 346020 Nota: C1 Vol.: 40
Chanel 4 Note Off - Duracao: 346080 Nota: C1 Vol.: 89
Chanel 4 Note On - Duracao: 346080 Nota: C1 Vol.: 98
Chanel 4 Note Off - Duracao: 346140 Nota: C1 Vol.: 98
Chanel 4 Note On - Duracao: 346140 Nota: C1 Vol.: 99
Chanel 4 Note Off - Duracao: 346200 Nota: C1 Vol.: 99
Chanel 4 Note On - Duracao: 346200 Nota: C1 Vol.: 99
Chanel 7 Note Off - Duracao: 346200 Nota: C1 Vol.: 71
Chanel 7 Note On - Duracao: 346200 Nota: C1 Vol.: 70
Chanel 3 Note Off - Duracao: 346260 Nota: C1 Vol.: 53
Chanel 3 Note On - Duracao: 346260 Nota: C1 Vol.: 52
Chanel 4 Note Off - Duracao: 346260 Nota: C1 Vol.: 99
Chanel 4 Note On - Duracao: 346260 Nota: C1 Vol.: 99
Chanel 4 Note Off - Duracao: 346320 Nota: C1 Vol.: 99
Chanel 4 Note On - Duracao: 346320 Nota: C1 Vol.: 96
Chanel 9 Note Off - Duracao: 346380 Nota: C1 Vol.: 63
Chanel 9 Note On - Duracao: 346380 Nota: C1 Vol.: 62
Chanel 4 Note Off - Duracao: 346440 Nota: C1 Vol.: 96
Chanel 4 Note On - Duracao: 346440 Nota: C1 Vol.: 97
Chanel 4 Note Off - Duracao: 346560 Nota: C1 Vol.: 97
Chanel 4 Note On - Duracao: 346560 Nota: C1 Vol.: 96
Chanel 6 Note Off - Duracao: 346620 Nota: C1 Vol.: 59
Chanel 6 Note On - Duracao: 346620 Nota: C1 Vol.: 56
Chanel 4 Note Off - Duracao: 346680 Nota: C1 Vol.: 96
Chanel 4 Note On - Duracao: 346680 Nota: C1 Vol.: 97
Chanel 7 Note Off - Duracao: 346680 Nota: C1 Vol.: 70
Chanel 7 Note On - Duracao: 346680 Nota: C1 Vol.: 68
Chanel 4 Note Off - Duracao: 346800 Nota: C1 Vol.: 97
Chanel 4 Note On - Duracao: 346800 Nota: C1 Vol.: 91
Chanel 9 Note Off - Duracao: 346860 Nota: C1 Vol.: 62
Chanel 9 Note On - Duracao: 346860 Nota: C1 Vol.: 60
Chanel 4 Note Off - Duracao: 346920 Nota: C1 Vol.: 91
Chanel 4 Note On - Duracao: 346920 Nota: C1 Vol.: 87
Chanel 5 Note Off - Duracao: 346920 Nota: C1 Vol.: 44
Chanel 5 Note On - Duracao: 346920 Nota: C1 Vol.: 85
Chanel 8 Note Off - Duracao: 346980 Nota: C1 Vol.: 40
Chanel 8 Note On - Duracao: 346980 Nota: C1 Vol.: 48
Chanel 4 Note Off - Duracao: 347040 Nota: C1 Vol.: 87
Chanel 4 Note On - Duracao: 347040 Nota: C1 Vol.: 68
Chanel 5 Note Off - Duracao: 347040 Nota: C1 Vol.: 85
Chanel 5 Note On - Duracao: 347040 Nota: C1 Vol.: 87
Chanel 5 Note Off - Duracao: 347160 Nota: C1 Vol.: 87
Chanel 5 Note On - Duracao: 347160 Nota: C1 Vol.: 91
Chanel 7 Note Off - Duracao: 347160 Nota: C1 Vol.: 68
Chanel 7 Note On - Duracao: 347160 Nota: C1 Vol.: 57
Chanel 3 Note Off - Duracao: 347220 Nota: C1 Vol.: 52
Chanel 3 Note On - Duracao: 347220 Nota: C1 Vol.: 49
Chanel 4 Note Off - Duracao: 347280 Nota: C1 Vol.: 68
Chanel 4 Note On - Duracao: 347280 Nota: C1 Vol.: 52
Chanel 5 Note Off - Duracao: 347280 Nota: C1 Vol.: 91
Chanel 5 Note On - Duracao: 347280 Nota: C1 Vol.: 89
Chanel 2 Note Off - Duracao: 347400 Nota: C1 Vol.: 40
Chanel 2 Note On - Duracao: 347400 Nota: C1 Vol.: 44
Chanel 5 Note Off - Duracao: 347400 Nota: C1 Vol.: 89
Chanel 5 Note On - Duracao: 347400 Nota: C1 Vol.: 89
Chanel 8 Note Off - Duracao: 347460 Nota: C1 Vol.: 48
Chanel 8 Note On - Duracao: 347460 Nota: C1 Vol.: 49
Chanel 5 Note Off - Duracao: 347520 Nota: C1 Vol.: 89
Chanel 5 Note On - Duracao: 347520 Nota: C1 Vol.: 90
Chanel 5 Note Off - Duracao: 347640 Nota: C1 Vol.: 90
Chanel 5 Note On - Duracao: 347640 Nota: C1 Vol.: 95
Chanel 5 Note Off - Duracao: 347700 Nota: C1 Vol.: 95
Chanel 5 Note On - Duracao: 347700 Nota: C1 Vol.: 97
Chanel 4 Note Off - Duracao: 347760 Nota: C1 Vol.: 52
Chanel 4 Note On - Duracao: 347760 Nota: C1 Vol.: 48
Chanel 5 Note Off - Duracao: 347760 Nota: C1 Vol.: 97
Chanel 5 Note On - Duracao: 347760 Nota: C1 Vol.: 99
Chanel 5 Note Off - Duracao: 347820 Nota: C1 Vol.: 99
Chanel 5 Note On - Duracao: 347820 Nota: C1 Vol.: 98
Chanel 9 Note Off - Duracao: 347820 Nota: C1 Vol.: 60
Chanel 9 Note On - Duracao: 347820 Nota: C1 Vol.: 53
Chanel 5 Note Off - Duracao: 347880 Nota: C1 Vol.: 98
Chanel 5 Note On - Duracao: 347880 Nota: C1 Vol.: 99
Chanel 5 Note Off - Duracao: 347940 Nota: C1 Vol.: 99
Chanel 5 Note On - Duracao: 347940 Nota: C1 Vol.: 80
Chanel 8 Note Off - Duracao: 347940 Nota: C1 Vol.: 49
Chanel 8 Note On - Duracao: 347940 Nota: C1 Vol.: 40
Chanel 7 Note Off - Duracao: 348120 Nota: C1 Vol.: 57
Chanel 7 Note On - Duracao: 348120 Nota: C1 Vol.: 70
Chanel 5 Note Off - Duracao: 348180 Nota: C1 Vol.: 80
Chanel 5 Note On - Duracao: 348180 Nota: C1 Vol.: 100
Chanel 5 Note Off - Duracao: 348240 Nota: C1 Vol.: 100
Chanel 5 Note On - Duracao: 348240 Nota: C1 Vol.: 100
Chanel 5 Note Off - Duracao: 348300 Nota: C1 Vol.: 100
Chanel 5 Note On - Duracao: 348300 Nota: C1 Vol.: 100
Chanel 5 Note Off - Duracao: 348360 Nota: C1 Vol.: 100
Chanel 5 Note On - Duracao: 348360 Nota: C1 Vol.: 100
Chanel 5 Note Off - Duracao: 348420 Nota: C1 Vol.: 100
Chanel 5 Note On - Duracao: 348420 Nota: C1 Vol.: 100
Chanel 5 Note Off - Duracao: 348480 Nota: C1 Vol.: 100
Chanel 5 Note On - Duracao: 348480 Nota: C1 Vol.: 98
Chanel 5 Note Off - Duracao: 348540 Nota: C1 Vol.: 98
Chanel 5 Note On - Duracao: 348540 Nota: C1 Vol.: 99
Chanel 5 Note Off - Duracao: 348600 Nota: C1 Vol.: 99
Chanel 5 Note On - Duracao: 348600 Nota: C1 Vol.: 98
Chanel 7 Note Off - Duracao: 348600 Nota: C1 Vol.: 70
Chanel 7 Note On - Duracao: 348600 Nota: C1 Vol.: 71
Chanel 5 Note Off - Duracao: 348660 Nota: C1 Vol.: 98
Chanel 5 Note On - Duracao: 348660 Nota: C1 Vol.: 95
Chanel 4 Note Off - Duracao: 348720 Nota: C1 Vol.: 48
Chanel 4 Note On - Duracao: 348720 Nota: C1 Vol.: 53
Chanel 5 Note Off - Duracao: 348720 Nota: C1 Vol.: 95
Chanel 5 Note On - Duracao: 348720 Nota: C1 Vol.: 98
Chanel 9 Note Off - Duracao: 348780 Nota: C1 Vol.: 53
Chanel 9 Note On - Duracao: 348780 Nota: C1 Vol.: 59
Chanel 5 Note Off - Duracao: 348840 Nota: C1 Vol.: 98
Chanel 5 Note On - Duracao: 348840 Nota: C1 Vol.: 98
Chanel 5 Note Off - Duracao: 348900 Nota: C1 Vol.: 98
Chanel 5 Note On - Duracao: 348900 Nota: C1 Vol.: 99
Chanel 8 Note Off - Duracao: 348900 Nota: C1 Vol.: 40
Chanel 8 Note On - Duracao: 348900 Nota: C1 Vol.: 44
Chanel 5 Note Off - Duracao: 348960 Nota: C1 Vol.: 99
Chanel 5 Note On - Duracao: 348960 Nota: C1 Vol.: 97
Chanel 5 Note Off - Duracao: 349020 Nota: C1 Vol.: 97
Chanel 5 Note On - Duracao: 349020 Nota: C1 Vol.: 95
Chanel 5 Note Off - Duracao: 349080 Nota: C1 Vol.: 95
Chanel 5 Note On - Duracao: 349080 Nota: C1 Vol.: 98
Chanel 7 Note Off - Duracao: 349080 Nota: C1 Vol.: 71
Chanel 7 Note On - Duracao: 349080 Nota: C1 Vol.: 64
Chanel 3 Note Off - Duracao: 349140 Nota: C1 Vol.: 49
Chanel 3 Note On - Duracao: 349140 Nota: C1 Vol.: 49
Chanel 5 Note Off - Duracao: 349140 Nota: C1 Vol.: 98
Chanel 5 Note On - Duracao: 349140 Nota: C1 Vol.: 99
Chanel 5 Note Off - Duracao: 349200 Nota: C1 Vol.: 99
Chanel 5 Note On - Duracao: 349200 Nota: C1 Vol.: 95
Chanel 2 Note Off - Duracao: 349320 Nota: C1 Vol.: 44
Chanel 2 Note On - Duracao: 349320 Nota: C1 Vol.: 49
Chanel 5 Note Off - Duracao: 349320 Nota: C1 Vol.: 95
Chanel 5 Note On - Duracao: 349320 Nota: C1 Vol.: 93
Chanel 8 Note Off - Duracao: 349380 Nota: C1 Vol.: 44
Chanel 8 Note On - Duracao: 349380 Nota: C1 Vol.: 60
Chanel 5 Note Off - Duracao: 349440 Nota: C1 Vol.: 93
Chanel 5 Note On - Duracao: 349440 Nota: C1 Vol.: 65
Chanel 8 Note Off - Duracao: 349500 Nota: C1 Vol.: 60
Chanel 8 Note On - Duracao: 349500 Nota: C1 Vol.: 51
Chanel 7 Note Off - Duracao: 349560 Nota: C1 Vol.: 64
Chanel 7 Note On - Duracao: 349560 Nota: C1 Vol.: 66
Chanel 4 Note Off - Duracao: 349680 Nota: C1 Vol.: 53
Chanel 4 Note On - Duracao: 349680 Nota: C1 Vol.: 53
Chanel 8 Note Off - Duracao: 349740 Nota: C1 Vol.: 51
Chanel 8 Note On - Duracao: 349740 Nota: C1 Vol.: 51
Chanel 9 Note Off - Duracao: 349740 Nota: C1 Vol.: 59
Chanel 9 Note On - Duracao: 349740 Nota: C1 Vol.: 59
Chanel 5 Note Off - Duracao: 349920 Nota: C1 Vol.: 65
Chanel 5 Note On - Duracao: 349920 Nota: C1 Vol.: 67
Chanel 8 Note Off - Duracao: 349980 Nota: C1 Vol.: 51
Chanel 8 Note On - Duracao: 349980 Nota: C1 Vol.: 45
Chanel 7 Note Off - Duracao: 350040 Nota: C1 Vol.: 66
Chanel 7 Note On - Duracao: 350040 Nota: C1 Vol.: 73
Chanel 3 Note Off - Duracao: 350100 Nota: C1 Vol.: 49
Chanel 3 Note On - Duracao: 350100 Nota: C1 Vol.: 66
Chanel 8 Note Off - Duracao: 350220 Nota: C1 Vol.: 45
Chanel 8 Note On - Duracao: 350220 Nota: C1 Vol.: 54
Chanel 7 Note Off - Duracao: 350280 Nota: C1 Vol.: 73
Chanel 7 Note On - Duracao: 350280 Nota: C1 Vol.: 83
Chanel 3 Note Off - Duracao: 350340 Nota: C1 Vol.: 66
Chanel 3 Note On - Duracao: 350340 Nota: C1 Vol.: 63
Chanel 8 Note Off - Duracao: 350340 Nota: C1 Vol.: 54
Chanel 8 Note On - Duracao: 350340 Nota: C1 Vol.: 53
Chanel 5 Note Off - Duracao: 350400 Nota: C1 Vol.: 67
Chanel 5 Note On - Duracao: 350400 Nota: C1 Vol.: 64
Chanel 7 Note Off - Duracao: 350400 Nota: C1 Vol.: 83
Chanel 7 Note On - Duracao: 350400 Nota: C1 Vol.: 70
Chanel 6 Note Off - Duracao: 350460 Nota: C1 Vol.: 56
Chanel 6 Note On - Duracao: 350460 Nota: C1 Vol.: 64
Chanel 8 Note Off - Duracao: 350460 Nota: C1 Vol.: 53
Chanel 8 Note On - Duracao: 350460 Nota: C1 Vol.: 50
Chanel 3 Note Off - Duracao: 350580 Nota: C1 Vol.: 63
Chanel 3 Note On - Duracao: 350580 Nota: C1 Vol.: 66
Chanel 4 Note Off - Duracao: 350640 Nota: C1 Vol.: 53
Chanel 4 Note On - Duracao: 350640 Nota: C1 Vol.: 59
Chanel 7 Note Off - Duracao: 350640 Nota: C1 Vol.: 70
Chanel 7 Note On - Duracao: 350640 Nota: C1 Vol.: 65
Chanel 8 Note Off - Duracao: 350700 Nota: C1 Vol.: 50
Chanel 8 Note On - Duracao: 350700 Nota: C1 Vol.: 65
Chanel 9 Note Off - Duracao: 350700 Nota: C1 Vol.: 59
Chanel 9 Note On - Duracao: 350700 Nota: C1 Vol.: 64
Chanel 3 Note Off - Duracao: 350820 Nota: C1 Vol.: 66
Chanel 3 Note On - Duracao: 350820 Nota: C1 Vol.: 67
Chanel 8 Note Off - Duracao: 350820 Nota: C1 Vol.: 65
Chanel 8 Note On - Duracao: 350820 Nota: C1 Vol.: 65
Chanel 5 Note Off - Duracao: 350880 Nota: C1 Vol.: 64
Chanel 5 Note On - Duracao: 350880 Nota: C1 Vol.: 66
Chanel 7 Note Off - Duracao: 350880 Nota: C1 Vol.: 65
Chanel 7 Note On - Duracao: 350880 Nota: C1 Vol.: 56
Chanel 8 Note Off - Duracao: 350940 Nota: C1 Vol.: 65
Chanel 8 Note On - Duracao: 350940 Nota: C1 Vol.: 67
Chanel 3 Note Off - Duracao: 351060 Nota: C1 Vol.: 67
Chanel 3 Note On - Duracao: 351060 Nota: C1 Vol.: 74
Chanel 8 Note Off - Duracao: 351060 Nota: C1 Vol.: 67
Chanel 8 Note On - Duracao: 351060 Nota: C1 Vol.: 65
Chanel 4 Note Off - Duracao: 351120 Nota: C1 Vol.: 59
Chanel 4 Note On - Duracao: 351120 Nota: C1 Vol.: 43
Chanel 7 Note Off - Duracao: 351120 Nota: C1 Vol.: 56
Chanel 7 Note On - Duracao: 351120 Nota: C1 Vol.: 61
Chanel 9 Note Off - Duracao: 351180 Nota: C1 Vol.: 64
Chanel 9 Note On - Duracao: 351180 Nota: C1 Vol.: 59
Chanel 2 Note Off - Duracao: 351240 Nota: C1 Vol.: 49
Chanel 2 Note On - Duracao: 351240 Nota: C1 Vol.: 48
Chanel 7 Note Off - Duracao: 351240 Nota: C1 Vol.: 61
Chanel 7 Note On - Duracao: 351240 Nota: C1 Vol.: 65
Chanel 3 Note Off - Duracao: 351300 Nota: C1 Vol.: 74
Chanel 3 Note On - Duracao: 351300 Nota: C1 Vol.: 67
Chanel 8 Note Off - Duracao: 351300 Nota: C1 Vol.: 65
Chanel 8 Note On - Duracao: 351300 Nota: C1 Vol.: 64
Chanel 5 Note Off - Duracao: 351360 Nota: C1 Vol.: 66
Chanel 5 Note On - Duracao: 351360 Nota: C1 Vol.: 66
Chanel 7 Note Off - Duracao: 351360 Nota: C1 Vol.: 65
Chanel 7 Note On - Duracao: 351360 Nota: C1 Vol.: 69
Chanel 8 Note Off - Duracao: 351420 Nota: C1 Vol.: 64
Chanel 8 Note On - Duracao: 351420 Nota: C1 Vol.: 58
Chanel 7 Note Off - Duracao: 351480 Nota: C1 Vol.: 69
Chanel 7 Note On - Duracao: 351480 Nota: C1 Vol.: 67
Chanel 3 Note Off - Duracao: 351540 Nota: C1 Vol.: 67
Chanel 3 Note On - Duracao: 351540 Nota: C1 Vol.: 65
Chanel 5 Note Off - Duracao: 351600 Nota: C1 Vol.: 66
Chanel 5 Note On - Duracao: 351600 Nota: C1 Vol.: 51
Chanel 8 Note Off - Duracao: 351660 Nota: C1 Vol.: 58
Chanel 8 Note On - Duracao: 351660 Nota: C1 Vol.: 51
Chanel 7 Note Off - Duracao: 351720 Nota: C1 Vol.: 67
Chanel 7 Note On - Duracao: 351720 Nota: C1 Vol.: 66
Chanel 3 Note Off - Duracao: 351780 Nota: C1 Vol.: 65
Chanel 3 Note On - Duracao: 351780 Nota: C1 Vol.: 63
Chanel 7 Note Off - Duracao: 351960 Nota: C1 Vol.: 66
Chanel 7 Note On - Duracao: 351960 Nota: C1 Vol.: 52
Chanel 3 Note Off - Duracao: 352020 Nota: C1 Vol.: 63
Chanel 3 Note On - Duracao: 352020 Nota: C1 Vol.: 65
Chanel 8 Note Off - Duracao: 352140 Nota: C1 Vol.: 51
Chanel 8 Note On - Duracao: 352140 Nota: C1 Vol.: 55
Chanel 9 Note Off - Duracao: 352140 Nota: C1 Vol.: 59
Chanel 9 Note On - Duracao: 352140 Nota: C1 Vol.: 59
Chanel 3 Note Off - Duracao: 352260 Nota: C1 Vol.: 65
Chanel 3 Note On - Duracao: 352260 Nota: C1 Vol.: 57
Chanel 6 Note Off - Duracao: 352380 Nota: C1 Vol.: 64
Chanel 6 Note On - Duracao: 352380 Nota: C1 Vol.: 64
Chanel 7 Note Off - Duracao: 352440 Nota: C1 Vol.: 52
Chanel 7 Note On - Duracao: 352440 Nota: C1 Vol.: 48
Chanel 5 Note Off - Duracao: 352560 Nota: C1 Vol.: 51
Chanel 5 Note On - Duracao: 352560 Nota: C1 Vol.: 60
Chanel 8 Note Off - Duracao: 352620 Nota: C1 Vol.: 55
Chanel 8 Note On - Duracao: 352620 Nota: C1 Vol.: 47
Chanel 9 Note Off - Duracao: 352620 Nota: C1 Vol.: 59
Chanel 9 Note On - Duracao: 352620 Nota: C1 Vol.: 55
Chanel 7 Note Off - Duracao: 352680 Nota: C1 Vol.: 48
Chanel 7 Note On - Duracao: 352680 Nota: C1 Vol.: 54
Chanel 3 Note Off - Duracao: 352740 Nota: C1 Vol.: 57
Chanel 3 Note On - Duracao: 352740 Nota: C1 Vol.: 65
Chanel 7 Note Off - Duracao: 352920 Nota: C1 Vol.: 54
Chanel 7 Note On - Duracao: 352920 Nota: C1 Vol.: 54
Chanel 3 Note Off - Duracao: 352980 Nota: C1 Vol.: 65
Chanel 3 Note On - Duracao: 352980 Nota: C1 Vol.: 53
Chanel 4 Note Off - Duracao: 353040 Nota: C1 Vol.: 43
Chanel 4 Note On - Duracao: 353040 Nota: C1 Vol.: 46
Chanel 5 Note Off - Duracao: 353040 Nota: C1 Vol.: 60
Chanel 5 Note On - Duracao: 353040 Nota: C1 Vol.: 46
Chanel 2 Note Off - Duracao: 353160 Nota: C1 Vol.: 48
Chanel 2 Note On - Duracao: 353160 Nota: C1 Vol.: 46
Chanel 7 Note Off - Duracao: 353160 Nota: C1 Vol.: 54
Chanel 7 Note On - Duracao: 353160 Nota: C1 Vol.: 58
Chanel 7 Note Off - Duracao: 353400 Nota: C1 Vol.: 58
Chanel 7 Note On - Duracao: 353400 Nota: C1 Vol.: 46
Chanel 3 Note Off - Duracao: 353460 Nota: C1 Vol.: 53
Chanel 3 Note On - Duracao: 353460 Nota: C1 Vol.: 53
Chanel 8 Note Off - Duracao: 353580 Nota: C1 Vol.: 47
Chanel 8 Note On - Duracao: 353580 Nota: C1 Vol.: 51
Chanel 9 Note Off - Duracao: 353580 Nota: C1 Vol.: 55
Chanel 9 Note On - Duracao: 353580 Nota: C1 Vol.: 55
Chanel 7 Note Off - Duracao: 353880 Nota: C1 Vol.: 46
Chanel 7 Note On - Duracao: 353880 Nota: C1 Vol.: 67
Chanel 3 Note Off - Duracao: 353940 Nota: C1 Vol.: 53
Chanel 3 Note On - Duracao: 353940 Nota: C1 Vol.: 51
Chanel 4 Note Off - Duracao: 354000 Nota: C1 Vol.: 46
Chanel 4 Note On - Duracao: 354000 Nota: C1 Vol.: 51
Chanel 5 Note Off - Duracao: 354000 Nota: C1 Vol.: 46
Chanel 5 Note On - Duracao: 354000 Nota: C1 Vol.: 46
Chanel 7 Note Off - Duracao: 354000 Nota: C1 Vol.: 67
Chanel 7 Note On - Duracao: 354000 Nota: C1 Vol.: 50
Chanel 6 Note Off - Duracao: 354300 Nota: C1 Vol.: 64
Chanel 6 Note On - Duracao: 354300 Nota: C1 Vol.: 58
Chanel 7 Note Off - Duracao: 354480 Nota: C1 Vol.: 50
Chanel 7 Note On - Duracao: 354480 Nota: C1 Vol.: 60
Chanel 8 Note Off - Duracao: 354540 Nota: C1 Vol.: 51
Chanel 8 Note On - Duracao: 354540 Nota: C1 Vol.: 55
Chanel 9 Note Off - Duracao: 354540 Nota: C1 Vol.: 55
Chanel 9 Note On - Duracao: 354540 Nota: C1 Vol.: 56
Chanel 7 Note Off - Duracao: 354720 Nota: C1 Vol.: 60
Chanel 7 Note On - Duracao: 354720 Nota: C1 Vol.: 66
Chanel 7 Note Off - Duracao: 354840 Nota: C1 Vol.: 66
Chanel 7 Note On - Duracao: 354840 Nota: C1 Vol.: 54
Chanel 3 Note Off - Duracao: 354900 Nota: C1 Vol.: 51
Chanel 3 Note On - Duracao: 354900 Nota: C1 Vol.: 69
Chanel 4 Note Off - Duracao: 354960 Nota: C1 Vol.: 51
Chanel 4 Note On - Duracao: 354960 Nota: C1 Vol.: 58
Chanel 5 Note Off - Duracao: 354960 Nota: C1 Vol.: 46
Chanel 5 Note On - Duracao: 354960 Nota: C1 Vol.: 45
Chanel 8 Note Off - Duracao: 355020 Nota: C1 Vol.: 55
Chanel 8 Note On - Duracao: 355020 Nota: C1 Vol.: 50
Chanel 9 Note Off - Duracao: 355020 Nota: C1 Vol.: 56
Chanel 9 Note On - Duracao: 355020 Nota: C1 Vol.: 57
Chanel 2 Note Off - Duracao: 355080 Nota: C1 Vol.: 46
Chanel 2 Note On - Duracao: 355080 Nota: C1 Vol.: 44
Chanel 7 Note Off - Duracao: 355080 Nota: C1 Vol.: 54
Chanel 7 Note On - Duracao: 355080 Nota: C1 Vol.: 59
Chanel 3 Note Off - Duracao: 355140 Nota: C1 Vol.: 69
Chanel 3 Note On - Duracao: 355140 Nota: C1 Vol.: 66
Chanel 7 Note Off - Duracao: 355320 Nota: C1 Vol.: 59
Chanel 7 Note On - Duracao: 355320 Nota: C1 Vol.: 48
Chanel 3 Note Off - Duracao: 355380 Nota: C1 Vol.: 66
Chanel 3 Note On - Duracao: 355380 Nota: C1 Vol.: 53
Chanel 4 Note Off - Duracao: 355440 Nota: C1 Vol.: 58
Chanel 4 Note On - Duracao: 355440 Nota: C1 Vol.: 62
Chanel 9 Note Off - Duracao: 355500 Nota: C1 Vol.: 57
Chanel 9 Note On - Duracao: 355500 Nota: C1 Vol.: 57
Chanel 7 Note Off - Duracao: 355800 Nota: C1 Vol.: 48
Chanel 7 Note On - Duracao: 355800 Nota: C1 Vol.: 49
Chanel 3 Note Off - Duracao: 355860 Nota: C1 Vol.: 53
Chanel 3 Note On - Duracao: 355860 Nota: C1 Vol.: 61
Chanel 4 Note Off - Duracao: 355920 Nota: C1 Vol.: 62
Chanel 4 Note On - Duracao: 355920 Nota: C1 Vol.: 67
Chanel 5 Note Off - Duracao: 355920 Nota: C1 Vol.: 45
Chanel 5 Note On - Duracao: 355920 Nota: C1 Vol.: 46
Chanel 8 Note Off - Duracao: 355980 Nota: C1 Vol.: 50
Chanel 8 Note On - Duracao: 355980 Nota: C1 Vol.: 54
Chanel 9 Note Off - Duracao: 355980 Nota: C1 Vol.: 57
Chanel 9 Note On - Duracao: 355980 Nota: C1 Vol.: 58
Chanel 3 Note Off - Duracao: 356100 Nota: C1 Vol.: 61
Chanel 3 Note On - Duracao: 356100 Nota: C1 Vol.: 48
Chanel 4 Note Off - Duracao: 356160 Nota: C1 Vol.: 67
Chanel 4 Note On - Duracao: 356160 Nota: C1 Vol.: 64
Chanel 7 Note Off - Duracao: 356280 Nota: C1 Vol.: 49
Chanel 7 Note On - Duracao: 356280 Nota: C1 Vol.: 52
Chanel 4 Note Off - Duracao: 356400 Nota: C1 Vol.: 64
Chanel 4 Note On - Duracao: 356400 Nota: C1 Vol.: 62
Chanel 9 Note Off - Duracao: 356460 Nota: C1 Vol.: 58
Chanel 9 Note On - Duracao: 356460 Nota: C1 Vol.: 57
Chanel 7 Note Off - Duracao: 356760 Nota: C1 Vol.: 52
Chanel 7 Note On - Duracao: 356760 Nota: C1 Vol.: 47
Chanel 4 Note Off - Duracao: 356880 Nota: C1 Vol.: 62
Chanel 4 Note On - Duracao: 356880 Nota: C1 Vol.: 71
Chanel 5 Note Off - Duracao: 356880 Nota: C1 Vol.: 46
Chanel 5 Note On - Duracao: 356880 Nota: C1 Vol.: 48
Chanel 8 Note Off - Duracao: 356940 Nota: C1 Vol.: 54
Chanel 8 Note On - Duracao: 356940 Nota: C1 Vol.: 62
Chanel 9 Note Off - Duracao: 356940 Nota: C1 Vol.: 57
Chanel 9 Note On - Duracao: 356940 Nota: C1 Vol.: 55
Chanel 2 Note Off - Duracao: 357000 Nota: C1 Vol.: 44
Chanel 2 Note On - Duracao: 357000 Nota: C1 Vol.: 70
Chanel 3 Note Off - Duracao: 357060 Nota: C1 Vol.: 48
Chanel 3 Note On - Duracao: 357060 Nota: C1 Vol.: 66
Chanel 4 Note Off - Duracao: 357120 Nota: C1 Vol.: 71
Chanel 4 Note On - Duracao: 357120 Nota: C1 Vol.: 71
Chanel 3 Note Off - Duracao: 357300 Nota: C1 Vol.: 66
Chanel 3 Note On - Duracao: 357300 Nota: C1 Vol.: 64
Chanel 4 Note Off - Duracao: 357360 Nota: C1 Vol.: 71
Chanel 4 Note On - Duracao: 357360 Nota: C1 Vol.: 70
Chanel 8 Note Off - Duracao: 357420 Nota: C1 Vol.: 62
Chanel 8 Note On - Duracao: 357420 Nota: C1 Vol.: 65
Chanel 9 Note Off - Duracao: 357420 Nota: C1 Vol.: 55
Chanel 9 Note On - Duracao: 357420 Nota: C1 Vol.: 61
Chanel 2 Note Off - Duracao: 357480 Nota: C1 Vol.: 70
Chanel 2 Note On - Duracao: 357480 Nota: C1 Vol.: 83
Chanel 2 Note Off - Duracao: 357600 Nota: C1 Vol.: 83
Chanel 2 Note On - Duracao: 357600 Nota: C1 Vol.: 82
Chanel 4 Note Off - Duracao: 357600 Nota: C1 Vol.: 70
Chanel 4 Note On - Duracao: 357600 Nota: C1 Vol.: 65
Chanel 9 Note Off - Duracao: 357660 Nota: C1 Vol.: 61
Chanel 9 Note On - Duracao: 357660 Nota: C1 Vol.: 58
Chanel 2 Note Off - Duracao: 357720 Nota: C1 Vol.: 82
Chanel 2 Note On - Duracao: 357720 Nota: C1 Vol.: 81
Chanel 7 Note Off - Duracao: 357720 Nota: C1 Vol.: 47
Chanel 7 Note On - Duracao: 357720 Nota: C1 Vol.: 44
Chanel 3 Note Off - Duracao: 357780 Nota: C1 Vol.: 64
Chanel 3 Note On - Duracao: 357780 Nota: C1 Vol.: 40
Chanel 2 Note Off - Duracao: 357840 Nota: C1 Vol.: 81
Chanel 2 Note On - Duracao: 357840 Nota: C1 Vol.: 82
Chanel 4 Note Off - Duracao: 357840 Nota: C1 Vol.: 65
Chanel 4 Note On - Duracao: 357840 Nota: C1 Vol.: 49
Chanel 5 Note Off - Duracao: 357840 Nota: C1 Vol.: 48
Chanel 5 Note On - Duracao: 357840 Nota: C1 Vol.: 66
Chanel 8 Note Off - Duracao: 357900 Nota: C1 Vol.: 65
Chanel 8 Note On - Duracao: 357900 Nota: C1 Vol.: 68
Chanel 2 Note Off - Duracao: 357960 Nota: C1 Vol.: 82
Chanel 2 Note On - Duracao: 357960 Nota: C1 Vol.: 84
Chanel 2 Note Off - Duracao: 358020 Nota: C1 Vol.: 84
Chanel 2 Note On - Duracao: 358020 Nota: C1 Vol.: 84
Chanel 5 Note Off - Duracao: 358080 Nota: C1 Vol.: 66
Chanel 5 Note On - Duracao: 358080 Nota: C1 Vol.: 65
Chanel 2 Note Off - Duracao: 358140 Nota: C1 Vol.: 84
Chanel 2 Note On - Duracao: 358140 Nota: C1 Vol.: 88
Chanel 6 Note Off - Duracao: 358140 Nota: C1 Vol.: 58
Chanel 6 Note On - Duracao: 358140 Nota: C1 Vol.: 59
Chanel 8 Note Off - Duracao: 358140 Nota: C1 Vol.: 68
Chanel 8 Note On - Duracao: 358140 Nota: C1 Vol.: 63
Chanel 9 Note Off - Duracao: 358140 Nota: C1 Vol.: 58
Chanel 9 Note On - Duracao: 358140 Nota: C1 Vol.: 53
Chanel 2 Note Off - Duracao: 358200 Nota: C1 Vol.: 88
Chanel 2 Note On - Duracao: 358200 Nota: C1 Vol.: 90
Chanel 2 Note Off - Duracao: 358260 Nota: C1 Vol.: 90
Chanel 2 Note On - Duracao: 358260 Nota: C1 Vol.: 88
Chanel 2 Note Off - Duracao: 358320 Nota: C1 Vol.: 88
Chanel 2 Note On - Duracao: 358320 Nota: C1 Vol.: 65
Chanel 5 Note Off - Duracao: 358320 Nota: C1 Vol.: 65
Chanel 5 Note On - Duracao: 358320 Nota: C1 Vol.: 47
Chanel 2 Note Off - Duracao: 358560 Nota: C1 Vol.: 65
Chanel 2 Note On - Duracao: 358560 Nota: C1 Vol.: 40
Chanel 8 Note Off - Duracao: 358620 Nota: C1 Vol.: 63
Chanel 8 Note On - Duracao: 358620 Nota: C1 Vol.: 72
Chanel 9 Note Off - Duracao: 358620 Nota: C1 Vol.: 53
Chanel 9 Note On - Duracao: 358620 Nota: C1 Vol.: 67
Chanel 7 Note Off - Duracao: 358680 Nota: C1 Vol.: 44
Chanel 7 Note On - Duracao: 358680 Nota: C1 Vol.: 49
Chanel 4 Note Off - Duracao: 358800 Nota: C1 Vol.: 49
Chanel 4 Note On - Duracao: 358800 Nota: C1 Vol.: 49
Chanel 5 Note Off - Duracao: 358800 Nota: C1 Vol.: 47
Chanel 5 Note On - Duracao: 358800 Nota: C1 Vol.: 56
Chanel 8 Note Off - Duracao: 358860 Nota: C1 Vol.: 72
Chanel 8 Note On - Duracao: 358860 Nota: C1 Vol.: 67
Chanel 9 Note Off - Duracao: 358860 Nota: C1 Vol.: 67
Chanel 9 Note On - Duracao: 358860 Nota: C1 Vol.: 64
Chanel 9 Note Off - Duracao: 359100 Nota: C1 Vol.: 64
Chanel 9 Note On - Duracao: 359100 Nota: C1 Vol.: 65
Chanel 5 Note Off - Duracao: 359280 Nota: C1 Vol.: 56
Chanel 5 Note On - Duracao: 359280 Nota: C1 Vol.: 59
Chanel 8 Note Off - Duracao: 359340 Nota: C1 Vol.: 67
Chanel 8 Note On - Duracao: 359340 Nota: C1 Vol.: 81
Chanel 9 Note Off - Duracao: 359340 Nota: C1 Vol.: 65
Chanel 9 Note On - Duracao: 359340 Nota: C1 Vol.: 68
Chanel 8 Note Off - Duracao: 359460 Nota: C1 Vol.: 81
Chanel 8 Note On - Duracao: 359460 Nota: C1 Vol.: 85
Chanel 5 Note Off - Duracao: 359520 Nota: C1 Vol.: 59
Chanel 5 Note On - Duracao: 359520 Nota: C1 Vol.: 61
Chanel 8 Note Off - Duracao: 359580 Nota: C1 Vol.: 85
Chanel 8 Note On - Duracao: 359580 Nota: C1 Vol.: 82
Chanel 9 Note Off - Duracao: 359580 Nota: C1 Vol.: 68
Chanel 9 Note On - Duracao: 359580 Nota: C1 Vol.: 63
Chanel 7 Note Off - Duracao: 359640 Nota: C1 Vol.: 49
Chanel 7 Note On - Duracao: 359640 Nota: C1 Vol.: 45
Chanel 4 Note Off - Duracao: 359760 Nota: C1 Vol.: 49
Chanel 4 Note On - Duracao: 359760 Nota: C1 Vol.: 61
Chanel 5 Note Off - Duracao: 359760 Nota: C1 Vol.: 61
Chanel 5 Note On - Duracao: 359760 Nota: C1 Vol.: 54
Chanel 8 Note Off - Duracao: 359820 Nota: C1 Vol.: 82
Chanel 8 Note On - Duracao: 359820 Nota: C1 Vol.: 59
Chanel 4 Note Off - Duracao: 360000 Nota: C1 Vol.: 61
Chanel 4 Note On - Duracao: 360000 Nota: C1 Vol.: 59
Chanel 9 Note Off - Duracao: 360060 Nota: C1 Vol.: 63
Chanel 9 Note On - Duracao: 360060 Nota: C1 Vol.: 75
Chanel 4 Note Off - Duracao: 360240 Nota: C1 Vol.: 59
Chanel 4 Note On - Duracao: 360240 Nota: C1 Vol.: 57
Chanel 5 Note Off - Duracao: 360240 Nota: C1 Vol.: 54
Chanel 5 Note On - Duracao: 360240 Nota: C1 Vol.: 57
Chanel 9 Note Off - Duracao: 360300 Nota: C1 Vol.: 75
Chanel 9 Note On - Duracao: 360300 Nota: C1 Vol.: 81
Chanel 5 Note Off - Duracao: 360480 Nota: C1 Vol.: 57
Chanel 5 Note On - Duracao: 360480 Nota: C1 Vol.: 58
Chanel 9 Note Off - Duracao: 360540 Nota: C1 Vol.: 81
Chanel 9 Note On - Duracao: 360540 Nota: C1 Vol.: 85
Chanel 7 Note Off - Duracao: 360600 Nota: C1 Vol.: 45
Chanel 7 Note On - Duracao: 360600 Nota: C1 Vol.: 48
Chanel 4 Note Off - Duracao: 360720 Nota: C1 Vol.: 57
Chanel 4 Note On - Duracao: 360720 Nota: C1 Vol.: 48
Chanel 5 Note Off - Duracao: 360720 Nota: C1 Vol.: 58
Chanel 5 Note On - Duracao: 360720 Nota: C1 Vol.: 56
Chanel 8 Note Off - Duracao: 360780 Nota: C1 Vol.: 59
Chanel 8 Note On - Duracao: 360780 Nota: C1 Vol.: 52
Chanel 9 Note Off - Duracao: 360780 Nota: C1 Vol.: 85
Chanel 9 Note On - Duracao: 360780 Nota: C1 Vol.: 93
Chanel 9 Note Off - Duracao: 360900 Nota: C1 Vol.: 93
Chanel 9 Note On - Duracao: 360900 Nota: C1 Vol.: 95
Chanel 9 Note Off - Duracao: 361020 Nota: C1 Vol.: 95
Chanel 9 Note On - Duracao: 361020 Nota: C1 Vol.: 94
Chanel 9 Note Off - Duracao: 361140 Nota: C1 Vol.: 94
Chanel 9 Note On - Duracao: 361140 Nota: C1 Vol.: 81
Chanel 5 Note Off - Duracao: 361200 Nota: C1 Vol.: 56
Chanel 5 Note On - Duracao: 361200 Nota: C1 Vol.: 57
Chanel 9 Note Off - Duracao: 361380 Nota: C1 Vol.: 81
Chanel 9 Note On - Duracao: 361380 Nota: C1 Vol.: 63
Chanel 7 Note Off - Duracao: 361560 Nota: C1 Vol.: 48
Chanel 7 Note On - Duracao: 361560 Nota: C1 Vol.: 50
Chanel 3 Note Off - Duracao: 361620 Nota: C1 Vol.: 40
Chanel 3 Note On - Duracao: 361620 Nota: C1 Vol.: 40
Chanel 4 Note Off - Duracao: 361680 Nota: C1 Vol.: 48
Chanel 4 Note On - Duracao: 361680 Nota: C1 Vol.: 60
Chanel 5 Note Off - Duracao: 361680 Nota: C1 Vol.: 57
Chanel 5 Note On - Duracao: 361680 Nota: C1 Vol.: 41
Chanel 8 Note Off - Duracao: 361740 Nota: C1 Vol.: 52
Chanel 8 Note On - Duracao: 361740 Nota: C1 Vol.: 56
Chanel 4 Note Off - Duracao: 361920 Nota: C1 Vol.: 60
Chanel 4 Note On - Duracao: 361920 Nota: C1 Vol.: 59
Chanel 6 Note Off - Duracao: 361980 Nota: C1 Vol.: 59
Chanel 6 Note On - Duracao: 361980 Nota: C1 Vol.: 61
Chanel 4 Note Off - Duracao: 362160 Nota: C1 Vol.: 59
Chanel 4 Note On - Duracao: 362160 Nota: C1 Vol.: 40
Chanel 9 Note Off - Duracao: 362340 Nota: C1 Vol.: 63
Chanel 9 Note On - Duracao: 362340 Nota: C1 Vol.: 61
Chanel 2 Note Off - Duracao: 362400 Nota: C1 Vol.: 40
Chanel 2 Note On - Duracao: 362400 Nota: C1 Vol.: 40
Chanel 7 Note Off - Duracao: 362520 Nota: C1 Vol.: 50
Chanel 7 Note On - Duracao: 362520 Nota: C1 Vol.: 53
Chanel 5 Note Off - Duracao: 362640 Nota: C1 Vol.: 41
Chanel 5 Note On - Duracao: 362640 Nota: C1 Vol.: 53
Chanel 8 Note Off - Duracao: 362700 Nota: C1 Vol.: 56
Chanel 8 Note On - Duracao: 362700 Nota: C1 Vol.: 57
Chanel 7 Note Off - Duracao: 363000 Nota: C1 Vol.: 53
Chanel 7 Note On - Duracao: 363000 Nota: C1 Vol.: 52
Chanel 4 Note Off - Duracao: 363120 Nota: C1 Vol.: 40
Chanel 4 Note On - Duracao: 363120 Nota: C1 Vol.: 49
Chanel 5 Note Off - Duracao: 363120 Nota: C1 Vol.: 53
Chanel 5 Note On - Duracao: 363120 Nota: C1 Vol.: 52
Chanel 8 Note Off - Duracao: 363180 Nota: C1 Vol.: 57
Chanel 8 Note On - Duracao: 363180 Nota: C1 Vol.: 64
Chanel 9 Note Off - Duracao: 363300 Nota: C1 Vol.: 61
Chanel 9 Note On - Duracao: 363300 Nota: C1 Vol.: 56
Chanel 4 Note Off - Duracao: 363360 Nota: C1 Vol.: 49
Chanel 4 Note On - Duracao: 363360 Nota: C1 Vol.: 48
Chanel 8 Note Off - Duracao: 363420 Nota: C1 Vol.: 64
Chanel 8 Note On - Duracao: 363420 Nota: C1 Vol.: 65
Chanel 4 Note Off - Duracao: 363600 Nota: C1 Vol.: 48
Chanel 4 Note On - Duracao: 363600 Nota: C1 Vol.: 43
Chanel 5 Note Off - Duracao: 363600 Nota: C1 Vol.: 52
Chanel 5 Note On - Duracao: 363600 Nota: C1 Vol.: 72
Chanel 8 Note Off - Duracao: 363660 Nota: C1 Vol.: 65
Chanel 8 Note On - Duracao: 363660 Nota: C1 Vol.: 65
Chanel 5 Note Off - Duracao: 363720 Nota: C1 Vol.: 72
Chanel 5 Note On - Duracao: 363720 Nota: C1 Vol.: 59
Chanel 8 Note Off - Duracao: 363900 Nota: C1 Vol.: 65
Chanel 8 Note On - Duracao: 363900 Nota: C1 Vol.: 54
Chanel 5 Note Off - Duracao: 363960 Nota: C1 Vol.: 59
Chanel 5 Note On - Duracao: 363960 Nota: C1 Vol.: 52
Chanel 7 Note Off - Duracao: 363960 Nota: C1 Vol.: 52
Chanel 7 Note On - Duracao: 363960 Nota: C1 Vol.: 54
Chanel 9 Note Off - Duracao: 364260 Nota: C1 Vol.: 56
Chanel 9 Note On - Duracao: 364260 Nota: C1 Vol.: 51
Chanel 2 Note Off - Duracao: 364320 Nota: C1 Vol.: 40
Chanel 2 Note On - Duracao: 364320 Nota: C1 Vol.: 41
Chanel 8 Note Off - Duracao: 364380 Nota: C1 Vol.: 54
Chanel 8 Note On - Duracao: 364380 Nota: C1 Vol.: 57
Chanel 5 Note Off - Duracao: 364440 Nota: C1 Vol.: 52
Chanel 5 Note On - Duracao: 364440 Nota: C1 Vol.: 60
Chanel 7 Note Off - Duracao: 364440 Nota: C1 Vol.: 54
Chanel 7 Note On - Duracao: 364440 Nota: C1 Vol.: 54
Chanel 4 Note Off - Duracao: 364560 Nota: C1 Vol.: 43
Chanel 4 Note On - Duracao: 364560 Nota: C1 Vol.: 44
Chanel 8 Note Off - Duracao: 364620 Nota: C1 Vol.: 57
Chanel 8 Note On - Duracao: 364620 Nota: C1 Vol.: 64
Chanel 5 Note Off - Duracao: 364680 Nota: C1 Vol.: 60
Chanel 5 Note On - Duracao: 364680 Nota: C1 Vol.: 53
Chanel 8 Note Off - Duracao: 364860 Nota: C1 Vol.: 64
Chanel 8 Note On - Duracao: 364860 Nota: C1 Vol.: 67
Chanel 8 Note Off - Duracao: 364980 Nota: C1 Vol.: 67
Chanel 8 Note On - Duracao: 364980 Nota: C1 Vol.: 64
Chanel 5 Note Off - Duracao: 365160 Nota: C1 Vol.: 53
Chanel 5 Note On - Duracao: 365160 Nota: C1 Vol.: 54
Chanel 8 Note Off - Duracao: 365220 Nota: C1 Vol.: 64
Chanel 8 Note On - Duracao: 365220 Nota: C1 Vol.: 69
Chanel 9 Note Off - Duracao: 365220 Nota: C1 Vol.: 51
Chanel 9 Note On - Duracao: 365220 Nota: C1 Vol.: 54
Chanel 8 Note Off - Duracao: 365340 Nota: C1 Vol.: 69
Chanel 8 Note On - Duracao: 365340 Nota: C1 Vol.: 70
Chanel 7 Note Off - Duracao: 365400 Nota: C1 Vol.: 54
Chanel 7 Note On - Duracao: 365400 Nota: C1 Vol.: 54
Chanel 3 Note Off - Duracao: 365460 Nota: C1 Vol.: 40
Chanel 3 Note On - Duracao: 365460 Nota: C1 Vol.: 40
Chanel 4 Note Off - Duracao: 365520 Nota: C1 Vol.: 44
Chanel 4 Note On - Duracao: 365520 Nota: C1 Vol.: 61
Chanel 8 Note Off - Duracao: 365580 Nota: C1 Vol.: 70
Chanel 8 Note On - Duracao: 365580 Nota: C1 Vol.: 67
Chanel 5 Note Off - Duracao: 365640 Nota: C1 Vol.: 54
Chanel 5 Note On - Duracao: 365640 Nota: C1 Vol.: 70
Chanel 4 Note Off - Duracao: 365760 Nota: C1 Vol.: 61
Chanel 4 Note On - Duracao: 365760 Nota: C1 Vol.: 62
Chanel 6 Note Off - Duracao: 365820 Nota: C1 Vol.: 61
Chanel 6 Note On - Duracao: 365820 Nota: C1 Vol.: 62
Chanel 8 Note Off - Duracao: 365820 Nota: C1 Vol.: 67
Chanel 8 Note On - Duracao: 365820 Nota: C1 Vol.: 64
Chanel 5 Note Off - Duracao: 365880 Nota: C1 Vol.: 70
Chanel 5 Note On - Duracao: 365880 Nota: C1 Vol.: 51
Chanel 7 Note Off - Duracao: 365880 Nota: C1 Vol.: 54
Chanel 7 Note On - Duracao: 365880 Nota: C1 Vol.: 49
Chanel 4 Note Off - Duracao: 366000 Nota: C1 Vol.: 62
Chanel 4 Note On - Duracao: 366000 Nota: C1 Vol.: 61
Chanel 9 Note Off - Duracao: 366180 Nota: C1 Vol.: 54
Chanel 9 Note On - Duracao: 366180 Nota: C1 Vol.: 49
Chanel 8 Note Off - Duracao: 366300 Nota: C1 Vol.: 64
Chanel 8 Note On - Duracao: 366300 Nota: C1 Vol.: 86
Chanel 8 Note Off - Duracao: 366420 Nota: C1 Vol.: 86
Chanel 8 Note On - Duracao: 366420 Nota: C1 Vol.: 89
Chanel 4 Note Off - Duracao: 366480 Nota: C1 Vol.: 61
Chanel 4 Note On - Duracao: 366480 Nota: C1 Vol.: 57
Chanel 8 Note Off - Duracao: 366540 Nota: C1 Vol.: 89
Chanel 8 Note On - Duracao: 366540 Nota: C1 Vol.: 90
Chanel 8 Note Off - Duracao: 366660 Nota: C1 Vol.: 90
Chanel 8 Note On - Duracao: 366660 Nota: C1 Vol.: 54
Chanel 5 Note Off - Duracao: 366840 Nota: C1 Vol.: 51
Chanel 5 Note On - Duracao: 366840 Nota: C1 Vol.: 57
Chanel 7 Note Off - Duracao: 366840 Nota: C1 Vol.: 49
Chanel 7 Note On - Duracao: 366840 Nota: C1 Vol.: 53
Chanel 4 Note Off - Duracao: 366960 Nota: C1 Vol.: 57
Chanel 4 Note On - Duracao: 366960 Nota: C1 Vol.: 70
Chanel 9 Note Off - Duracao: 367140 Nota: C1 Vol.: 49
Chanel 9 Note On - Duracao: 367140 Nota: C1 Vol.: 54
Chanel 4 Note Off - Duracao: 367200 Nota: C1 Vol.: 70
Chanel 4 Note On - Duracao: 367200 Nota: C1 Vol.: 84
Chanel 4 Note Off - Duracao: 367320 Nota: C1 Vol.: 84
Chanel 4 Note On - Duracao: 367320 Nota: C1 Vol.: 92
Chanel 4 Note Off - Duracao: 367380 Nota: C1 Vol.: 92
Chanel 4 Note On - Duracao: 367380 Nota: C1 Vol.: 95
Chanel 4 Note Off - Duracao: 367440 Nota: C1 Vol.: 95
Chanel 4 Note On - Duracao: 367440 Nota: C1 Vol.: 98
Chanel 4 Note Off - Duracao: 367500 Nota: C1 Vol.: 98
Chanel 4 Note On - Duracao: 367500 Nota: C1 Vol.: 98
Chanel 4 Note Off - Duracao: 367560 Nota: C1 Vol.: 98
Chanel 4 Note On - Duracao: 367560 Nota: C1 Vol.: 99
Chanel 4 Note Off - Duracao: 367620 Nota: C1 Vol.: 99
Chanel 4 Note On - Duracao: 367620 Nota: C1 Vol.: 90
Chanel 8 Note Off - Duracao: 367620 Nota: C1 Vol.: 54
Chanel 8 Note On - Duracao: 367620 Nota: C1 Vol.: 61
Chanel 9 Note Off - Duracao: 367620 Nota: C1 Vol.: 54
Chanel 9 Note On - Duracao: 367620 Nota: C1 Vol.: 65
Chanel 4 Note Off - Duracao: 367740 Nota: C1 Vol.: 90
Chanel 4 Note On - Duracao: 367740 Nota: C1 Vol.: 99
Chanel 4 Note Off - Duracao: 367800 Nota: C1 Vol.: 99
Chanel 4 Note On - Duracao: 367800 Nota: C1 Vol.: 98
Chanel 5 Note Off - Duracao: 367800 Nota: C1 Vol.: 57
Chanel 5 Note On - Duracao: 367800 Nota: C1 Vol.: 61
Chanel 7 Note Off - Duracao: 367800 Nota: C1 Vol.: 53
Chanel 7 Note On - Duracao: 367800 Nota: C1 Vol.: 51
Chanel 4 Note Off - Duracao: 367860 Nota: C1 Vol.: 98
Chanel 4 Note On - Duracao: 367860 Nota: C1 Vol.: 99
Chanel 9 Note Off - Duracao: 367860 Nota: C1 Vol.: 65
Chanel 9 Note On - Duracao: 367860 Nota: C1 Vol.: 66
Chanel 4 Note Off - Duracao: 367920 Nota: C1 Vol.: 99
Chanel 4 Note On - Duracao: 367920 Nota: C1 Vol.: 100
Chanel 4 Note Off - Duracao: 367980 Nota: C1 Vol.: 100
Chanel 4 Note On - Duracao: 367980 Nota: C1 Vol.: 100
Chanel 4 Note Off - Duracao: 368040 Nota: C1 Vol.: 100
Chanel 4 Note On - Duracao: 368040 Nota: C1 Vol.: 90
Chanel 8 Note Off - Duracao: 368100 Nota: C1 Vol.: 61
Chanel 8 Note On - Duracao: 368100 Nota: C1 Vol.: 52
Chanel 9 Note Off - Duracao: 368100 Nota: C1 Vol.: 66
Chanel 9 Note On - Duracao: 368100 Nota: C1 Vol.: 67
Chanel 2 Note Off - Duracao: 368160 Nota: C1 Vol.: 41
Chanel 2 Note On - Duracao: 368160 Nota: C1 Vol.: 41
Chanel 4 Note Off - Duracao: 368160 Nota: C1 Vol.: 90
Chanel 4 Note On - Duracao: 368160 Nota: C1 Vol.: 99
Chanel 4 Note Off - Duracao: 368220 Nota: C1 Vol.: 99
Chanel 4 Note On - Duracao: 368220 Nota: C1 Vol.: 99
Chanel 4 Note Off - Duracao: 368280 Nota: C1 Vol.: 99
Chanel 4 Note On - Duracao: 368280 Nota: C1 Vol.: 98
Chanel 4 Note Off - Duracao: 368340 Nota: C1 Vol.: 98
Chanel 4 Note On - Duracao: 368340 Nota: C1 Vol.: 99
Chanel 9 Note Off - Duracao: 368340 Nota: C1 Vol.: 67
Chanel 9 Note On - Duracao: 368340 Nota: C1 Vol.: 69
Chanel 4 Note Off - Duracao: 368400 Nota: C1 Vol.: 99
Chanel 4 Note On - Duracao: 368400 Nota: C1 Vol.: 97
Chanel 4 Note Off - Duracao: 368460 Nota: C1 Vol.: 97
Chanel 4 Note On - Duracao: 368460 Nota: C1 Vol.: 98
Chanel 4 Note Off - Duracao: 368520 Nota: C1 Vol.: 98
Chanel 4 Note On - Duracao: 368520 Nota: C1 Vol.: 99
Chanel 4 Note Off - Duracao: 368580 Nota: C1 Vol.: 99
Chanel 4 Note On - Duracao: 368580 Nota: C1 Vol.: 80
Chanel 9 Note Off - Duracao: 368580 Nota: C1 Vol.: 69
Chanel 9 Note On - Duracao: 368580 Nota: C1 Vol.: 55
Chanel 5 Note Off - Duracao: 368760 Nota: C1 Vol.: 61
Chanel 5 Note On - Duracao: 368760 Nota: C1 Vol.: 75
Chanel 7 Note Off - Duracao: 368760 Nota: C1 Vol.: 51
Chanel 7 Note On - Duracao: 368760 Nota: C1 Vol.: 59
Chanel 4 Note Off - Duracao: 368820 Nota: C1 Vol.: 80
Chanel 4 Note On - Duracao: 368820 Nota: C1 Vol.: 47
Chanel 8 Note Off - Duracao: 369060 Nota: C1 Vol.: 52
Chanel 8 Note On - Duracao: 369060 Nota: C1 Vol.: 56
Chanel 5 Note Off - Duracao: 369240 Nota: C1 Vol.: 75
Chanel 5 Note On - Duracao: 369240 Nota: C1 Vol.: 66
Chanel 7 Note Off - Duracao: 369240 Nota: C1 Vol.: 59
Chanel 7 Note On - Duracao: 369240 Nota: C1 Vol.: 48
Chanel 3 Note Off - Duracao: 369300 Nota: C1 Vol.: 40
Chanel 3 Note On - Duracao: 369300 Nota: C1 Vol.: 42
Chanel 8 Note Off - Duracao: 369540 Nota: C1 Vol.: 56
Chanel 8 Note On - Duracao: 369540 Nota: C1 Vol.: 55
Chanel 9 Note Off - Duracao: 369540 Nota: C1 Vol.: 55
Chanel 9 Note On - Duracao: 369540 Nota: C1 Vol.: 47
Chanel 6 Note Off - Duracao: 369660 Nota: C1 Vol.: 62
Chanel 6 Note On - Duracao: 369660 Nota: C1 Vol.: 63
Chanel 5 Note Off - Duracao: 370200 Nota: C1 Vol.: 66
Chanel 5 Note On - Duracao: 370200 Nota: C1 Vol.: 89
Chanel 5 Note Off - Duracao: 370320 Nota: C1 Vol.: 89
Chanel 5 Note On - Duracao: 370320 Nota: C1 Vol.: 70
Chanel 8 Note Off - Duracao: 370500 Nota: C1 Vol.: 55
Chanel 8 Note On - Duracao: 370500 Nota: C1 Vol.: 63
Chanel 9 Note Off - Duracao: 370500 Nota: C1 Vol.: 47
Chanel 9 Note On - Duracao: 370500 Nota: C1 Vol.: 50
Chanel 4 Note Off - Duracao: 370740 Nota: C1 Vol.: 47
Chanel 4 Note On - Duracao: 370740 Nota: C1 Vol.: 85
Chanel 5 Note Off - Duracao: 370800 Nota: C1 Vol.: 70
Chanel 5 Note On - Duracao: 370800 Nota: C1 Vol.: 58
Chanel 4 Note Off - Duracao: 370860 Nota: C1 Vol.: 85
Chanel 4 Note On - Duracao: 370860 Nota: C1 Vol.: 94
Chanel 4 Note Off - Duracao: 370920 Nota: C1 Vol.: 94
Chanel 4 Note On - Duracao: 370920 Nota: C1 Vol.: 97
Chanel 4 Note Off - Duracao: 370980 Nota: C1 Vol.: 97
Chanel 4 Note On - Duracao: 370980 Nota: C1 Vol.: 100
Chanel 8 Note Off - Duracao: 370980 Nota: C1 Vol.: 63
Chanel 8 Note On - Duracao: 370980 Nota: C1 Vol.: 70
Chanel 4 Note Off - Duracao: 371040 Nota: C1 Vol.: 100
Chanel 4 Note On - Duracao: 371040 Nota: C1 Vol.: 99
Chanel 4 Note Off - Duracao: 371100 Nota: C1 Vol.: 99
Chanel 4 Note On - Duracao: 371100 Nota: C1 Vol.: 100
Chanel 4 Note Off - Duracao: 371160 Nota: C1 Vol.: 100
Chanel 4 Note On - Duracao: 371160 Nota: C1 Vol.: 99
Chanel 7 Note Off - Duracao: 371160 Nota: C1 Vol.: 48
Chanel 7 Note On - Duracao: 371160 Nota: C1 Vol.: 54
Chanel 4 Note Off - Duracao: 371220 Nota: C1 Vol.: 99
Chanel 4 Note On - Duracao: 371220 Nota: C1 Vol.: 99
Chanel 8 Note Off - Duracao: 371220 Nota: C1 Vol.: 70
Chanel 8 Note On - Duracao: 371220 Nota: C1 Vol.: 63
Chanel 4 Note Off - Duracao: 371280 Nota: C1 Vol.: 99
Chanel 4 Note On - Duracao: 371280 Nota: C1 Vol.: 98
Chanel 4 Note Off - Duracao: 371340 Nota: C1 Vol.: 98
Chanel 4 Note On - Duracao: 371340 Nota: C1 Vol.: 94
Chanel 4 Note Off - Duracao: 371460 Nota: C1 Vol.: 94
Chanel 4 Note On - Duracao: 371460 Nota: C1 Vol.: 64
Chanel 9 Note Off - Duracao: 371460 Nota: C1 Vol.: 50
Chanel 9 Note On - Duracao: 371460 Nota: C1 Vol.: 59
Chanel 8 Note Off - Duracao: 371700 Nota: C1 Vol.: 63
Chanel 8 Note On - Duracao: 371700 Nota: C1 Vol.: 59
Chanel 9 Note Off - Duracao: 371940 Nota: C1 Vol.: 59
Chanel 9 Note On - Duracao: 371940 Nota: C1 Vol.: 91
Chanel 2 Note Off - Duracao: 372000 Nota: C1 Vol.: 41
Chanel 2 Note On - Duracao: 372000 Nota: C1 Vol.: 42
Chanel 9 Note Off - Duracao: 372060 Nota: C1 Vol.: 91
Chanel 9 Note On - Duracao: 372060 Nota: C1 Vol.: 73
Chanel 7 Note Off - Duracao: 372120 Nota: C1 Vol.: 54
Chanel 7 Note On - Duracao: 372120 Nota: C1 Vol.: 51
Chanel 4 Note Off - Duracao: 372420 Nota: C1 Vol.: 64
Chanel 4 Note On - Duracao: 372420 Nota: C1 Vol.: 63
Chanel 9 Note Off - Duracao: 372540 Nota: C1 Vol.: 73
Chanel 9 Note On - Duracao: 372540 Nota: C1 Vol.: 74
Chanel 8 Note Off - Duracao: 372660 Nota: C1 Vol.: 59
Chanel 8 Note On - Duracao: 372660 Nota: C1 Vol.: 62
Chanel 5 Note Off - Duracao: 372720 Nota: C1 Vol.: 58
Chanel 5 Note On - Duracao: 372720 Nota: C1 Vol.: 59
Chanel 9 Note Off - Duracao: 372780 Nota: C1 Vol.: 74
Chanel 9 Note On - Duracao: 372780 Nota: C1 Vol.: 73
Chanel 9 Note Off - Duracao: 373020 Nota: C1 Vol.: 73
Chanel 9 Note On - Duracao: 373020 Nota: C1 Vol.: 71
Chanel 7 Note Off - Duracao: 373080 Nota: C1 Vol.: 51
Chanel 7 Note On - Duracao: 373080 Nota: C1 Vol.: 60
Chanel 3 Note Off - Duracao: 373140 Nota: C1 Vol.: 42
Chanel 3 Note On - Duracao: 373140 Nota: C1 Vol.: 57
Chanel 8 Note Off - Duracao: 373140 Nota: C1 Vol.: 62
Chanel 8 Note On - Duracao: 373140 Nota: C1 Vol.: 56
Chanel 9 Note Off - Duracao: 373260 Nota: C1 Vol.: 71
Chanel 9 Note On - Duracao: 373260 Nota: C1 Vol.: 69
Chanel 4 Note Off - Duracao: 373380 Nota: C1 Vol.: 63
Chanel 4 Note On - Duracao: 373380 Nota: C1 Vol.: 96
Chanel 4 Note Off - Duracao: 373440 Nota: C1 Vol.: 96
Chanel 4 Note On - Duracao: 373440 Nota: C1 Vol.: 98
Chanel 4 Note Off - Duracao: 373500 Nota: C1 Vol.: 98
Chanel 4 Note On - Duracao: 373500 Nota: C1 Vol.: 99
Chanel 6 Note Off - Duracao: 373500 Nota: C1 Vol.: 63
Chanel 6 Note On - Duracao: 373500 Nota: C1 Vol.: 62
Chanel 9 Note Off - Duracao: 373500 Nota: C1 Vol.: 69
Chanel 9 Note On - Duracao: 373500 Nota: C1 Vol.: 48
Chanel 4 Note Off - Duracao: 373560 Nota: C1 Vol.: 99
Chanel 4 Note On - Duracao: 373560 Nota: C1 Vol.: 97
Chanel 4 Note Off - Duracao: 373620 Nota: C1 Vol.: 97
Chanel 4 Note On - Duracao: 373620 Nota: C1 Vol.: 98
Chanel 4 Note Off - Duracao: 373680 Nota: C1 Vol.: 98
Chanel 4 Note On - Duracao: 373680 Nota: C1 Vol.: 73
Chanel 2 Note Off - Duracao: 373920 Nota: C1 Vol.: 42
Chanel 2 Note On - Duracao: 373920 Nota: C1 Vol.: 41
Chanel 7 Note Off - Duracao: 374040 Nota: C1 Vol.: 60
Chanel 7 Note On - Duracao: 374040 Nota: C1 Vol.: 60
Chanel 8 Note Off - Duracao: 374100 Nota: C1 Vol.: 56
Chanel 8 Note On - Duracao: 374100 Nota: C1 Vol.: 64
Chanel 4 Note Off - Duracao: 374160 Nota: C1 Vol.: 73
Chanel 4 Note On - Duracao: 374160 Nota: C1 Vol.: 42
Chanel 9 Note Off - Duracao: 374460 Nota: C1 Vol.: 48
Chanel 9 Note On - Duracao: 374460 Nota: C1 Vol.: 46
Chanel 7 Note Off - Duracao: 374520 Nota: C1 Vol.: 60
Chanel 7 Note On - Duracao: 374520 Nota: C1 Vol.: 61
Chanel 8 Note Off - Duracao: 374580 Nota: C1 Vol.: 64
Chanel 8 Note On - Duracao: 374580 Nota: C1 Vol.: 52
Chanel 5 Note Off - Duracao: 374640 Nota: C1 Vol.: 59
Chanel 5 Note On - Duracao: 374640 Nota: C1 Vol.: 57
Chanel 7 Note Off - Duracao: 375000 Nota: C1 Vol.: 61
Chanel 7 Note On - Duracao: 375000 Nota: C1 Vol.: 64
Chanel 3 Note Off - Duracao: 375060 Nota: C1 Vol.: 57
Chanel 3 Note On - Duracao: 375060 Nota: C1 Vol.: 65
Chanel 9 Note Off - Duracao: 375420 Nota: C1 Vol.: 46
Chanel 9 Note On - Duracao: 375420 Nota: C1 Vol.: 60
Chanel 7 Note Off - Duracao: 375480 Nota: C1 Vol.: 64
Chanel 7 Note On - Duracao: 375480 Nota: C1 Vol.: 67
Chanel 8 Note Off - Duracao: 375540 Nota: C1 Vol.: 52
Chanel 8 Note On - Duracao: 375540 Nota: C1 Vol.: 42
Chanel 9 Note Off - Duracao: 375900 Nota: C1 Vol.: 60
Chanel 9 Note On - Duracao: 375900 Nota: C1 Vol.: 60
Chanel 7 Note Off - Duracao: 375960 Nota: C1 Vol.: 67
Chanel 7 Note On - Duracao: 375960 Nota: C1 Vol.: 71
Chanel 7 Note Off - Duracao: 376200 Nota: C1 Vol.: 71
Chanel 7 Note On - Duracao: 376200 Nota: C1 Vol.: 54
Chanel 9 Note Off - Duracao: 376380 Nota: C1 Vol.: 60
Chanel 9 Note On - Duracao: 376380 Nota: C1 Vol.: 60
Chanel 8 Note Off - Duracao: 376500 Nota: C1 Vol.: 42
Chanel 8 Note On - Duracao: 376500 Nota: C1 Vol.: 57
Chanel 8 Note Off - Duracao: 376740 Nota: C1 Vol.: 57
Chanel 8 Note On - Duracao: 376740 Nota: C1 Vol.: 59
Chanel 8 Note Off - Duracao: 376860 Nota: C1 Vol.: 59
Chanel 8 Note On - Duracao: 376860 Nota: C1 Vol.: 57
Chanel 9 Note Off - Duracao: 376860 Nota: C1 Vol.: 60
Chanel 9 Note On - Duracao: 376860 Nota: C1 Vol.: 63
Chanel 3 Note Off - Duracao: 376980 Nota: C1 Vol.: 65
Chanel 3 Note On - Duracao: 376980 Nota: C1 Vol.: 70
Chanel 8 Note Off - Duracao: 377100 Nota: C1 Vol.: 57
Chanel 8 Note On - Duracao: 377100 Nota: C1 Vol.: 52
Chanel 7 Note Off - Duracao: 377160 Nota: C1 Vol.: 54
Chanel 7 Note On - Duracao: 377160 Nota: C1 Vol.: 45
Chanel 6 Note Off - Duracao: 377340 Nota: C1 Vol.: 62
Chanel 6 Note On - Duracao: 377340 Nota: C1 Vol.: 63
Chanel 8 Note Off - Duracao: 377340 Nota: C1 Vol.: 52
Chanel 8 Note On - Duracao: 377340 Nota: C1 Vol.: 47
Chanel 9 Note Off - Duracao: 377340 Nota: C1 Vol.: 63
Chanel 9 Note On - Duracao: 377340 Nota: C1 Vol.: 61
Chanel 2 Note Off - Duracao: 377760 Nota: C1 Vol.: 41
Chanel 2 Note On - Duracao: 377760 Nota: C1 Vol.: 41
Chanel 8 Note Off - Duracao: 377820 Nota: C1 Vol.: 47
Chanel 8 Note On - Duracao: 377820 Nota: C1 Vol.: 44
Chanel 9 Note Off - Duracao: 377820 Nota: C1 Vol.: 61
Chanel 9 Note On - Duracao: 377820 Nota: C1 Vol.: 60
Chanel 3 Note Off - Duracao: 377940 Nota: C1 Vol.: 70
Chanel 3 Note On - Duracao: 377940 Nota: C1 Vol.: 67
Chanel 4 Note Off - Duracao: 378000 Nota: C1 Vol.: 42
Chanel 4 Note On - Duracao: 378000 Nota: C1 Vol.: 77
Chanel 4 Note Off - Duracao: 378240 Nota: C1 Vol.: 77
Chanel 4 Note On - Duracao: 378240 Nota: C1 Vol.: 89
Chanel 8 Note Off - Duracao: 378300 Nota: C1 Vol.: 44
Chanel 8 Note On - Duracao: 378300 Nota: C1 Vol.: 50
Chanel 9 Note Off - Duracao: 378300 Nota: C1 Vol.: 60
Chanel 9 Note On - Duracao: 378300 Nota: C1 Vol.: 59
Chanel 4 Note Off - Duracao: 378360 Nota: C1 Vol.: 89
Chanel 4 Note On - Duracao: 378360 Nota: C1 Vol.: 92
Chanel 4 Note Off - Duracao: 378480 Nota: C1 Vol.: 92
Chanel 4 Note On - Duracao: 378480 Nota: C1 Vol.: 97
Chanel 5 Note Off - Duracao: 378480 Nota: C1 Vol.: 57
Chanel 5 Note On - Duracao: 378480 Nota: C1 Vol.: 54
Chanel 4 Note Off - Duracao: 378540 Nota: C1 Vol.: 97
Chanel 4 Note On - Duracao: 378540 Nota: C1 Vol.: 100
Chanel 4 Note Off - Duracao: 378600 Nota: C1 Vol.: 100
Chanel 4 Note On - Duracao: 378600 Nota: C1 Vol.: 100
Chanel 4 Note Off - Duracao: 378660 Nota: C1 Vol.: 100
Chanel 4 Note On - Duracao: 378660 Nota: C1 Vol.: 96
Chanel 4 Note Off - Duracao: 378780 Nota: C1 Vol.: 96
Chanel 4 Note On - Duracao: 378780 Nota: C1 Vol.: 100
Chanel 8 Note Off - Duracao: 378780 Nota: C1 Vol.: 50
Chanel 8 Note On - Duracao: 378780 Nota: C1 Vol.: 54
Chanel 9 Note Off - Duracao: 378780 Nota: C1 Vol.: 59
Chanel 9 Note On - Duracao: 378780 Nota: C1 Vol.: 58
Chanel 4 Note Off - Duracao: 378840 Nota: C1 Vol.: 100
Chanel 4 Note On - Duracao: 378840 Nota: C1 Vol.: 87
Chanel 4 Note Off - Duracao: 378960 Nota: C1 Vol.: 87
Chanel 4 Note On - Duracao: 378960 Nota: C1 Vol.: 60
Chanel 8 Note Off - Duracao: 379020 Nota: C1 Vol.: 54
Chanel 8 Note On - Duracao: 379020 Nota: C1 Vol.: 57
Chanel 7 Note Off - Duracao: 379080 Nota: C1 Vol.: 45
Chanel 7 Note On - Duracao: 379080 Nota: C1 Vol.: 50
Chanel 8 Note Off - Duracao: 379260 Nota: C1 Vol.: 57
Chanel 8 Note On - Duracao: 379260 Nota: C1 Vol.: 56
Chanel 9 Note Off - Duracao: 379260 Nota: C1 Vol.: 58
Chanel 9 Note On - Duracao: 379260 Nota: C1 Vol.: 59
Chanel 8 Note Off - Duracao: 379740 Nota: C1 Vol.: 56
Chanel 8 Note On - Duracao: 379740 Nota: C1 Vol.: 52
Chanel 9 Note Off - Duracao: 379740 Nota: C1 Vol.: 59
Chanel 9 Note On - Duracao: 379740 Nota: C1 Vol.: 58
Chanel 3 Note Off - Duracao: 379860 Nota: C1 Vol.: 67
Chanel 3 Note On - Duracao: 379860 Nota: C1 Vol.: 72
Chanel 4 Note Off - Duracao: 379920 Nota: C1 Vol.: 60
Chanel 4 Note On - Duracao: 379920 Nota: C1 Vol.: 71
Chanel 8 Note Off - Duracao: 380220 Nota: C1 Vol.: 52
Chanel 8 Note On - Duracao: 380220 Nota: C1 Vol.: 61
Chanel 9 Note Off - Duracao: 380220 Nota: C1 Vol.: 58
Chanel 9 Note On - Duracao: 380220 Nota: C1 Vol.: 63
Chanel 4 Note Off - Duracao: 380400 Nota: C1 Vol.: 71
Chanel 4 Note On - Duracao: 380400 Nota: C1 Vol.: 93
Chanel 4 Note Off - Duracao: 380520 Nota: C1 Vol.: 93
Chanel 4 Note On - Duracao: 380520 Nota: C1 Vol.: 97
Chanel 4 Note Off - Duracao: 380580 Nota: C1 Vol.: 97
Chanel 4 Note On - Duracao: 380580 Nota: C1 Vol.: 99
Chanel 4 Note Off - Duracao: 380640 Nota: C1 Vol.: 99
Chanel 4 Note On - Duracao: 380640 Nota: C1 Vol.: 97
Chanel 4 Note Off - Duracao: 380700 Nota: C1 Vol.: 97
Chanel 4 Note On - Duracao: 380700 Nota: C1 Vol.: 97
Chanel 8 Note Off - Duracao: 380700 Nota: C1 Vol.: 61
Chanel 8 Note On - Duracao: 380700 Nota: C1 Vol.: 59
Chanel 9 Note Off - Duracao: 380700 Nota: C1 Vol.: 63
Chanel 9 Note On - Duracao: 380700 Nota: C1 Vol.: 64
Chanel 4 Note Off - Duracao: 380760 Nota: C1 Vol.: 97
Chanel 4 Note On - Duracao: 380760 Nota: C1 Vol.: 97
Chanel 3 Note Off - Duracao: 380820 Nota: C1 Vol.: 72
Chanel 3 Note On - Duracao: 380820 Nota: C1 Vol.: 76
Chanel 4 Note Off - Duracao: 380820 Nota: C1 Vol.: 97
Chanel 4 Note On - Duracao: 380820 Nota: C1 Vol.: 97
Chanel 4 Note Off - Duracao: 380880 Nota: C1 Vol.: 97
Chanel 4 Note On - Duracao: 380880 Nota: C1 Vol.: 95
Chanel 4 Note Off - Duracao: 381000 Nota: C1 Vol.: 95
Chanel 4 Note On - Duracao: 381000 Nota: C1 Vol.: 95
Chanel 7 Note Off - Duracao: 381000 Nota: C1 Vol.: 50
Chanel 7 Note On - Duracao: 381000 Nota: C1 Vol.: 50
Chanel 4 Note Off - Duracao: 381120 Nota: C1 Vol.: 95
Chanel 4 Note On - Duracao: 381120 Nota: C1 Vol.: 94
Chanel 6 Note Off - Duracao: 381180 Nota: C1 Vol.: 63
Chanel 6 Note On - Duracao: 381180 Nota: C1 Vol.: 66
Chanel 8 Note Off - Duracao: 381180 Nota: C1 Vol.: 59
Chanel 8 Note On - Duracao: 381180 Nota: C1 Vol.: 62
Chanel 9 Note Off - Duracao: 381180 Nota: C1 Vol.: 64
Chanel 9 Note On - Duracao: 381180 Nota: C1 Vol.: 64
Chanel 4 Note Off - Duracao: 381240 Nota: C1 Vol.: 94
Chanel 4 Note On - Duracao: 381240 Nota: C1 Vol.: 93
Chanel 3 Note Off - Duracao: 381300 Nota: C1 Vol.: 76
Chanel 3 Note On - Duracao: 381300 Nota: C1 Vol.: 74
Chanel 4 Note Off - Duracao: 381300 Nota: C1 Vol.: 93
Chanel 4 Note On - Duracao: 381300 Nota: C1 Vol.: 75
Chanel 4 Note Off - Duracao: 381420 Nota: C1 Vol.: 75
Chanel 4 Note On - Duracao: 381420 Nota: C1 Vol.: 60
Chanel 2 Note Off - Duracao: 381600 Nota: C1 Vol.: 41
Chanel 2 Note On - Duracao: 381600 Nota: C1 Vol.: 44
Chanel 8 Note Off - Duracao: 381660 Nota: C1 Vol.: 62
Chanel 8 Note On - Duracao: 381660 Nota: C1 Vol.: 59
Chanel 9 Note Off - Duracao: 381660 Nota: C1 Vol.: 64
Chanel 9 Note On - Duracao: 381660 Nota: C1 Vol.: 66
Chanel 4 Note Off - Duracao: 381900 Nota: C1 Vol.: 60
Chanel 4 Note On - Duracao: 381900 Nota: C1 Vol.: 50
Chanel 9 Note Off - Duracao: 381900 Nota: C1 Vol.: 66
Chanel 9 Note On - Duracao: 381900 Nota: C1 Vol.: 67
Chanel 8 Note Off - Duracao: 382140 Nota: C1 Vol.: 59
Chanel 8 Note On - Duracao: 382140 Nota: C1 Vol.: 52
Chanel 9 Note Off - Duracao: 382140 Nota: C1 Vol.: 67
Chanel 9 Note On - Duracao: 382140 Nota: C1 Vol.: 61
Chanel 3 Note Off - Duracao: 382260 Nota: C1 Vol.: 74
Chanel 3 Note On - Duracao: 382260 Nota: C1 Vol.: 73
Chanel 5 Note Off - Duracao: 382320 Nota: C1 Vol.: 54
Chanel 5 Note On - Duracao: 382320 Nota: C1 Vol.: 47
Chanel 9 Note Off - Duracao: 382620 Nota: C1 Vol.: 61
Chanel 9 Note On - Duracao: 382620 Nota: C1 Vol.: 60
Chanel 4 Note Off - Duracao: 382860 Nota: C1 Vol.: 50
Chanel 4 Note On - Duracao: 382860 Nota: C1 Vol.: 47
Chanel 7 Note Off - Duracao: 382920 Nota: C1 Vol.: 50
Chanel 7 Note On - Duracao: 382920 Nota: C1 Vol.: 52
Chanel 8 Note Off - Duracao: 383100 Nota: C1 Vol.: 52
Chanel 8 Note On - Duracao: 383100 Nota: C1 Vol.: 55
Chanel 9 Note Off - Duracao: 383100 Nota: C1 Vol.: 60
Chanel 9 Note On - Duracao: 383100 Nota: C1 Vol.: 60
Chanel 3 Note Off - Duracao: 383220 Nota: C1 Vol.: 73
Chanel 3 Note On - Duracao: 383220 Nota: C1 Vol.: 79
Chanel 2 Note Off - Duracao: 383520 Nota: C1 Vol.: 44
Chanel 2 Note On - Duracao: 383520 Nota: C1 Vol.: 40
Chanel 8 Note Off - Duracao: 383580 Nota: C1 Vol.: 55
Chanel 8 Note On - Duracao: 383580 Nota: C1 Vol.: 53
Chanel 9 Note Off - Duracao: 383580 Nota: C1 Vol.: 60
Chanel 9 Note On - Duracao: 383580 Nota: C1 Vol.: 52
Chanel 3 Note Off - Duracao: 383700 Nota: C1 Vol.: 79
Chanel 3 Note On - Duracao: 383700 Nota: C1 Vol.: 81
Chanel 4 Note Off - Duracao: 383820 Nota: C1 Vol.: 47
Chanel 4 Note On - Duracao: 383820 Nota: C1 Vol.: 53
Chanel 8 Note Off - Duracao: 383820 Nota: C1 Vol.: 53
Chanel 8 Note On - Duracao: 383820 Nota: C1 Vol.: 48
Chanel 8 Note Off - Duracao: 383940 Nota: C1 Vol.: 48
Chanel 8 Note On - Duracao: 383940 Nota: C1 Vol.: 49
Chanel 8 Note Off - Duracao: 384060 Nota: C1 Vol.: 49
Chanel 8 Note On - Duracao: 384060 Nota: C1 Vol.: 50
Chanel 3 Note Off - Duracao: 384180 Nota: C1 Vol.: 81
Chanel 3 Note On - Duracao: 384180 Nota: C1 Vol.: 76
Chanel 8 Note Off - Duracao: 384180 Nota: C1 Vol.: 50
Chanel 8 Note On - Duracao: 384180 Nota: C1 Vol.: 50
Chanel 8 Note Off - Duracao: 384300 Nota: C1 Vol.: 50
Chanel 8 Note On - Duracao: 384300 Nota: C1 Vol.: 52
Chanel 8 Note Off - Duracao: 384420 Nota: C1 Vol.: 52
Chanel 8 Note On - Duracao: 384420 Nota: C1 Vol.: 50
Chanel 8 Note Off - Duracao: 384540 Nota: C1 Vol.: 50
Chanel 8 Note On - Duracao: 384540 Nota: C1 Vol.: 53
Chanel 9 Note Off - Duracao: 384540 Nota: C1 Vol.: 52
Chanel 9 Note On - Duracao: 384540 Nota: C1 Vol.: 58
Chanel 8 Note Off - Duracao: 384660 Nota: C1 Vol.: 53
Chanel 8 Note On - Duracao: 384660 Nota: C1 Vol.: 51
Chanel 4 Note Off - Duracao: 384780 Nota: C1 Vol.: 53
Chanel 4 Note On - Duracao: 384780 Nota: C1 Vol.: 62
Chanel 8 Note Off - Duracao: 384780 Nota: C1 Vol.: 51
Chanel 8 Note On - Duracao: 384780 Nota: C1 Vol.: 53
Chanel 8 Note Off - Duracao: 384900 Nota: C1 Vol.: 53
Chanel 8 Note On - Duracao: 384900 Nota: C1 Vol.: 52
Chanel 6 Note Off - Duracao: 385020 Nota: C1 Vol.: 66
Chanel 6 Note On - Duracao: 385020 Nota: C1 Vol.: 71
Chanel 8 Note Off - Duracao: 385020 Nota: C1 Vol.: 52
Chanel 8 Note On - Duracao: 385020 Nota: C1 Vol.: 44
Chanel 9 Note Off - Duracao: 385020 Nota: C1 Vol.: 58
Chanel 9 Note On - Duracao: 385020 Nota: C1 Vol.: 54
Chanel 3 Note Off - Duracao: 385140 Nota: C1 Vol.: 76
Chanel 3 Note On - Duracao: 385140 Nota: C1 Vol.: 75
Chanel 4 Note Off - Duracao: 385260 Nota: C1 Vol.: 62
Chanel 4 Note On - Duracao: 385260 Nota: C1 Vol.: 48
Chanel 8 Note Off - Duracao: 385260 Nota: C1 Vol.: 44
Chanel 8 Note On - Duracao: 385260 Nota: C1 Vol.: 44
Chanel 8 Note Off - Duracao: 385500 Nota: C1 Vol.: 44
Chanel 8 Note On - Duracao: 385500 Nota: C1 Vol.: 55
Chanel 3 Note Off - Duracao: 385620 Nota: C1 Vol.: 75
Chanel 3 Note On - Duracao: 385620 Nota: C1 Vol.: 71
Chanel 8 Note Off - Duracao: 385620 Nota: C1 Vol.: 55
Chanel 8 Note On - Duracao: 385620 Nota: C1 Vol.: 49
Chanel 8 Note Off - Duracao: 385860 Nota: C1 Vol.: 49
Chanel 8 Note On - Duracao: 385860 Nota: C1 Vol.: 58
Chanel 8 Note Off - Duracao: 385980 Nota: C1 Vol.: 58
Chanel 8 Note On - Duracao: 385980 Nota: C1 Vol.: 56
Chanel 9 Note Off - Duracao: 385980 Nota: C1 Vol.: 54
Chanel 9 Note On - Duracao: 385980 Nota: C1 Vol.: 57
Chanel 8 Note Off - Duracao: 386100 Nota: C1 Vol.: 56
Chanel 8 Note On - Duracao: 386100 Nota: C1 Vol.: 55
Chanel 5 Note Off - Duracao: 386160 Nota: C1 Vol.: 47
Chanel 5 Note On - Duracao: 386160 Nota: C1 Vol.: 41
Chanel 4 Note Off - Duracao: 386220 Nota: C1 Vol.: 48
Chanel 4 Note On - Duracao: 386220 Nota: C1 Vol.: 46
Chanel 8 Note Off - Duracao: 386220 Nota: C1 Vol.: 55
Chanel 8 Note On - Duracao: 386220 Nota: C1 Vol.: 52
Chanel 8 Note Off - Duracao: 386460 Nota: C1 Vol.: 52
Chanel 8 Note On - Duracao: 386460 Nota: C1 Vol.: 53
Chanel 9 Note Off - Duracao: 386460 Nota: C1 Vol.: 57
Chanel 9 Note On - Duracao: 386460 Nota: C1 Vol.: 52
Chanel 3 Note Off - Duracao: 386580 Nota: C1 Vol.: 71
Chanel 3 Note On - Duracao: 386580 Nota: C1 Vol.: 68
Chanel 8 Note Off - Duracao: 386700 Nota: C1 Vol.: 53
Chanel 8 Note On - Duracao: 386700 Nota: C1 Vol.: 55
Chanel 7 Note Off - Duracao: 386760 Nota: C1 Vol.: 52
Chanel 7 Note On - Duracao: 386760 Nota: C1 Vol.: 55
Chanel 8 Note Off - Duracao: 386820 Nota: C1 Vol.: 55
Chanel 8 Note On - Duracao: 386820 Nota: C1 Vol.: 55
Chanel 6 Note Off - Duracao: 386940 Nota: C1 Vol.: 71
Chanel 6 Note On - Duracao: 386940 Nota: C1 Vol.: 73
Chanel 8 Note Off - Duracao: 386940 Nota: C1 Vol.: 55
Chanel 8 Note On - Duracao: 386940 Nota: C1 Vol.: 49
Chanel 8 Note Off - Duracao: 387060 Nota: C1 Vol.: 49
Chanel 8 Note On - Duracao: 387060 Nota: C1 Vol.: 50
Chanel 4 Note Off - Duracao: 387180 Nota: C1 Vol.: 46
Chanel 4 Note On - Duracao: 387180 Nota: C1 Vol.: 53
Chanel 8 Note Off - Duracao: 387180 Nota: C1 Vol.: 50
Chanel 8 Note On - Duracao: 387180 Nota: C1 Vol.: 54
Chanel 8 Note Off - Duracao: 387300 Nota: C1 Vol.: 54
Chanel 8 Note On - Duracao: 387300 Nota: C1 Vol.: 52
Chanel 2 Note Off - Duracao: 387360 Nota: C1 Vol.: 40
Chanel 2 Note On - Duracao: 387360 Nota: C1 Vol.: 40
Chanel 8 Note Off - Duracao: 387420 Nota: C1 Vol.: 52
Chanel 8 Note On - Duracao: 387420 Nota: C1 Vol.: 53
Chanel 9 Note Off - Duracao: 387420 Nota: C1 Vol.: 52
Chanel 9 Note On - Duracao: 387420 Nota: C1 Vol.: 55
Chanel 3 Note Off - Duracao: 387540 Nota: C1 Vol.: 68
Chanel 3 Note On - Duracao: 387540 Nota: C1 Vol.: 61
Chanel 8 Note Off - Duracao: 387540 Nota: C1 Vol.: 53
Chanel 8 Note On - Duracao: 387540 Nota: C1 Vol.: 56
Chanel 4 Note Off - Duracao: 387660 Nota: C1 Vol.: 53
Chanel 4 Note On - Duracao: 387660 Nota: C1 Vol.: 43
Chanel 8 Note Off - Duracao: 387780 Nota: C1 Vol.: 56
Chanel 8 Note On - Duracao: 387780 Nota: C1 Vol.: 60
Chanel 8 Note Off - Duracao: 387900 Nota: C1 Vol.: 60
Chanel 8 Note On - Duracao: 387900 Nota: C1 Vol.: 62
Chanel 5 Note Off - Duracao: 388080 Nota: C1 Vol.: 41
Chanel 5 Note On - Duracao: 388080 Nota: C1 Vol.: 50
Chanel 8 Note Off - Duracao: 388140 Nota: C1 Vol.: 62
Chanel 8 Note On - Duracao: 388140 Nota: C1 Vol.: 65
Chanel 8 Note Off - Duracao: 388260 Nota: C1 Vol.: 65
Chanel 8 Note On - Duracao: 388260 Nota: C1 Vol.: 68
Chanel 8 Note Off - Duracao: 388380 Nota: C1 Vol.: 68
Chanel 8 Note On - Duracao: 388380 Nota: C1 Vol.: 61
Chanel 9 Note Off - Duracao: 388380 Nota: C1 Vol.: 55
Chanel 9 Note On - Duracao: 388380 Nota: C1 Vol.: 58
Chanel 3 Note Off - Duracao: 388500 Nota: C1 Vol.: 61
Chanel 3 Note On - Duracao: 388500 Nota: C1 Vol.: 75
Chanel 4 Note Off - Duracao: 388620 Nota: C1 Vol.: 43
Chanel 4 Note On - Duracao: 388620 Nota: C1 Vol.: 44
Chanel 8 Note Off - Duracao: 388620 Nota: C1 Vol.: 61
Chanel 8 Note On - Duracao: 388620 Nota: C1 Vol.: 55
Chanel 3 Note Off - Duracao: 388740 Nota: C1 Vol.: 75
Chanel 3 Note On - Duracao: 388740 Nota: C1 Vol.: 52
Chanel 6 Note Off - Duracao: 388860 Nota: C1 Vol.: 73
Chanel 6 Note On - Duracao: 388860 Nota: C1 Vol.: 72
Chanel 8 Note Off - Duracao: 388860 Nota: C1 Vol.: 55
Chanel 8 Note On - Duracao: 388860 Nota: C1 Vol.: 51
Chanel 5 Note Off - Duracao: 389040 Nota: C1 Vol.: 50
Chanel 5 Note On - Duracao: 389040 Nota: C1 Vol.: 56
Chanel 2 Note Off - Duracao: 389280 Nota: C1 Vol.: 40
Chanel 2 Note On - Duracao: 389280 Nota: C1 Vol.: 40
Chanel 5 Note Off - Duracao: 389280 Nota: C1 Vol.: 56
Chanel 5 Note On - Duracao: 389280 Nota: C1 Vol.: 55
Chanel 8 Note Off - Duracao: 389340 Nota: C1 Vol.: 51
Chanel 8 Note On - Duracao: 389340 Nota: C1 Vol.: 45
Chanel 9 Note Off - Duracao: 389340 Nota: C1 Vol.: 58
Chanel 9 Note On - Duracao: 389340 Nota: C1 Vol.: 59
Chanel 5 Note Off - Duracao: 389520 Nota: C1 Vol.: 55
Chanel 5 Note On - Duracao: 389520 Nota: C1 Vol.: 51
Chanel 4 Note Off - Duracao: 389580 Nota: C1 Vol.: 44
Chanel 4 Note On - Duracao: 389580 Nota: C1 Vol.: 47
Chanel 3 Note Off - Duracao: 389700 Nota: C1 Vol.: 52
Chanel 3 Note On - Duracao: 389700 Nota: C1 Vol.: 75
Chanel 2 Note Off - Duracao: 389760 Nota: C1 Vol.: 40
Chanel 2 Note On - Duracao: 389760 Nota: C1 Vol.: 51
Chanel 5 Note Off - Duracao: 389760 Nota: C1 Vol.: 51
Chanel 5 Note On - Duracao: 389760 Nota: C1 Vol.: 51
Chanel 9 Note Off - Duracao: 389820 Nota: C1 Vol.: 59
Chanel 9 Note On - Duracao: 389820 Nota: C1 Vol.: 60
Chanel 2 Note Off - Duracao: 389880 Nota: C1 Vol.: 51
Chanel 2 Note On - Duracao: 389880 Nota: C1 Vol.: 44
Chanel 3 Note Off - Duracao: 389940 Nota: C1 Vol.: 75
Chanel 3 Note On - Duracao: 389940 Nota: C1 Vol.: 79
Chanel 2 Note Off - Duracao: 390000 Nota: C1 Vol.: 44
Chanel 2 Note On - Duracao: 390000 Nota: C1 Vol.: 42
Chanel 5 Note Off - Duracao: 390000 Nota: C1 Vol.: 51
Chanel 5 Note On - Duracao: 390000 Nota: C1 Vol.: 55
Chanel 3 Note Off - Duracao: 390060 Nota: C1 Vol.: 79
Chanel 3 Note On - Duracao: 390060 Nota: C1 Vol.: 57
Chanel 2 Note Off - Duracao: 390120 Nota: C1 Vol.: 42
Chanel 2 Note On - Duracao: 390120 Nota: C1 Vol.: 41
Chanel 2 Note Off - Duracao: 390240 Nota: C1 Vol.: 41
Chanel 2 Note On - Duracao: 390240 Nota: C1 Vol.: 42
Chanel 5 Note Off - Duracao: 390240 Nota: C1 Vol.: 55
Chanel 5 Note On - Duracao: 390240 Nota: C1 Vol.: 53
Chanel 8 Note Off - Duracao: 390300 Nota: C1 Vol.: 45
Chanel 8 Note On - Duracao: 390300 Nota: C1 Vol.: 47
Chanel 9 Note Off - Duracao: 390300 Nota: C1 Vol.: 60
Chanel 9 Note On - Duracao: 390300 Nota: C1 Vol.: 62
Chanel 2 Note Off - Duracao: 390360 Nota: C1 Vol.: 42
Chanel 2 Note On - Duracao: 390360 Nota: C1 Vol.: 44
Chanel 2 Note Off - Duracao: 390480 Nota: C1 Vol.: 44
Chanel 2 Note On - Duracao: 390480 Nota: C1 Vol.: 49
Chanel 5 Note Off - Duracao: 390480 Nota: C1 Vol.: 53
Chanel 5 Note On - Duracao: 390480 Nota: C1 Vol.: 45
Chanel 3 Note Off - Duracao: 390540 Nota: C1 Vol.: 57
Chanel 3 Note On - Duracao: 390540 Nota: C1 Vol.: 62
Chanel 4 Note Off - Duracao: 390540 Nota: C1 Vol.: 47
Chanel 4 Note On - Duracao: 390540 Nota: C1 Vol.: 52
Chanel 2 Note Off - Duracao: 390600 Nota: C1 Vol.: 49
Chanel 2 Note On - Duracao: 390600 Nota: C1 Vol.: 58
Chanel 7 Note Off - Duracao: 390600 Nota: C1 Vol.: 55
Chanel 7 Note On - Duracao: 390600 Nota: C1 Vol.: 59
Chanel 2 Note Off - Duracao: 390720 Nota: C1 Vol.: 58
Chanel 2 Note On - Duracao: 390720 Nota: C1 Vol.: 47
Chanel 6 Note Off - Duracao: 390780 Nota: C1 Vol.: 72
Chanel 6 Note On - Duracao: 390780 Nota: C1 Vol.: 70
Chanel 9 Note Off - Duracao: 390780 Nota: C1 Vol.: 62
Chanel 9 Note On - Duracao: 390780 Nota: C1 Vol.: 71
Chanel 5 Note Off - Duracao: 390960 Nota: C1 Vol.: 45
Chanel 5 Note On - Duracao: 390960 Nota: C1 Vol.: 40
Chanel 3 Note Off - Duracao: 391020 Nota: C1 Vol.: 62
Chanel 3 Note On - Duracao: 391020 Nota: C1 Vol.: 72
Chanel 9 Note Off - Duracao: 391020 Nota: C1 Vol.: 71
Chanel 9 Note On - Duracao: 391020 Nota: C1 Vol.: 63
Chanel 2 Note Off - Duracao: 391200 Nota: C1 Vol.: 47
Chanel 2 Note On - Duracao: 391200 Nota: C1 Vol.: 40
Chanel 3 Note Off - Duracao: 391260 Nota: C1 Vol.: 72
Chanel 3 Note On - Duracao: 391260 Nota: C1 Vol.: 79
Chanel 8 Note Off - Duracao: 391260 Nota: C1 Vol.: 47
Chanel 8 Note On - Duracao: 391260 Nota: C1 Vol.: 52
Chanel 3 Note Off - Duracao: 391380 Nota: C1 Vol.: 79
Chanel 3 Note On - Duracao: 391380 Nota: C1 Vol.: 74
Chanel 4 Note Off - Duracao: 391500 Nota: C1 Vol.: 52
Chanel 4 Note On - Duracao: 391500 Nota: C1 Vol.: 62
Chanel 9 Note Off - Duracao: 391500 Nota: C1 Vol.: 63
Chanel 9 Note On - Duracao: 391500 Nota: C1 Vol.: 72
Chanel 3 Note Off - Duracao: 391620 Nota: C1 Vol.: 74
Chanel 3 Note On - Duracao: 391620 Nota: C1 Vol.: 41
Chanel 5 Note Off - Duracao: 391920 Nota: C1 Vol.: 40
Chanel 5 Note On - Duracao: 391920 Nota: C1 Vol.: 40
Chanel 4 Note Off - Duracao: 391980 Nota: C1 Vol.: 62
Chanel 4 Note On - Duracao: 391980 Nota: C1 Vol.: 65
Chanel 9 Note Off - Duracao: 391980 Nota: C1 Vol.: 72
Chanel 9 Note On - Duracao: 391980 Nota: C1 Vol.: 81
Chanel 4 Note Off - Duracao: 392220 Nota: C1 Vol.: 65
Chanel 4 Note On - Duracao: 392220 Nota: C1 Vol.: 66
Chanel 8 Note Off - Duracao: 392220 Nota: C1 Vol.: 52
Chanel 8 Note On - Duracao: 392220 Nota: C1 Vol.: 52
Chanel 9 Note Off - Duracao: 392220 Nota: C1 Vol.: 81
Chanel 9 Note On - Duracao: 392220 Nota: C1 Vol.: 76
Chanel 4 Note Off - Duracao: 392460 Nota: C1 Vol.: 66
Chanel 4 Note On - Duracao: 392460 Nota: C1 Vol.: 61
Chanel 6 Note Off - Duracao: 392700 Nota: C1 Vol.: 70
Chanel 6 Note On - Duracao: 392700 Nota: C1 Vol.: 71
Chanel 9 Note Off - Duracao: 392700 Nota: C1 Vol.: 76
Chanel 9 Note On - Duracao: 392700 Nota: C1 Vol.: 77
Chanel 4 Note Off - Duracao: 392940 Nota: C1 Vol.: 61
Chanel 4 Note On - Duracao: 392940 Nota: C1 Vol.: 65
Chanel 2 Note Off - Duracao: 393120 Nota: C1 Vol.: 40
Chanel 2 Note On - Duracao: 393120 Nota: C1 Vol.: 60
Chanel 4 Note Off - Duracao: 393180 Nota: C1 Vol.: 65
Chanel 4 Note On - Duracao: 393180 Nota: C1 Vol.: 61
Chanel 8 Note Off - Duracao: 393180 Nota: C1 Vol.: 52
Chanel 8 Note On - Duracao: 393180 Nota: C1 Vol.: 58
Chanel 9 Note Off - Duracao: 393180 Nota: C1 Vol.: 77
Chanel 9 Note On - Duracao: 393180 Nota: C1 Vol.: 84
Chanel 9 Note Off - Duracao: 393420 Nota: C1 Vol.: 84
Chanel 9 Note On - Duracao: 393420 Nota: C1 Vol.: 85
Chanel 3 Note Off - Duracao: 393540 Nota: C1 Vol.: 41
Chanel 3 Note On - Duracao: 393540 Nota: C1 Vol.: 40
Chanel 2 Note Off - Duracao: 393600 Nota: C1 Vol.: 60
Chanel 2 Note On - Duracao: 393600 Nota: C1 Vol.: 67
Chanel 4 Note Off - Duracao: 393660 Nota: C1 Vol.: 61
Chanel 4 Note On - Duracao: 393660 Nota: C1 Vol.: 40
Chanel 8 Note Off - Duracao: 393660 Nota: C1 Vol.: 58
Chanel 8 Note On - Duracao: 393660 Nota: C1 Vol.: 49
Chanel 9 Note Off - Duracao: 393660 Nota: C1 Vol.: 85
Chanel 9 Note On - Duracao: 393660 Nota: C1 Vol.: 84
Chanel 5 Note Off - Duracao: 393840 Nota: C1 Vol.: 40
Chanel 5 Note On - Duracao: 393840 Nota: C1 Vol.: 40
Chanel 9 Note Off - Duracao: 393900 Nota: C1 Vol.: 84
Chanel 9 Note On - Duracao: 393900 Nota: C1 Vol.: 85
Chanel 2 Note Off - Duracao: 394080 Nota: C1 Vol.: 67
Chanel 2 Note On - Duracao: 394080 Nota: C1 Vol.: 70
Chanel 9 Note Off - Duracao: 394140 Nota: C1 Vol.: 85
Chanel 9 Note On - Duracao: 394140 Nota: C1 Vol.: 84
Chanel 9 Note Off - Duracao: 394380 Nota: C1 Vol.: 84
Chanel 9 Note On - Duracao: 394380 Nota: C1 Vol.: 85
Chanel 7 Note Off - Duracao: 394440 Nota: C1 Vol.: 59
Chanel 7 Note On - Duracao: 394440 Nota: C1 Vol.: 62
Chanel 2 Note Off - Duracao: 394560 Nota: C1 Vol.: 70
Chanel 2 Note On - Duracao: 394560 Nota: C1 Vol.: 67
Chanel 6 Note Off - Duracao: 394620 Nota: C1 Vol.: 71
Chanel 6 Note On - Duracao: 394620 Nota: C1 Vol.: 74
Chanel 8 Note Off - Duracao: 394620 Nota: C1 Vol.: 49
Chanel 8 Note On - Duracao: 394620 Nota: C1 Vol.: 63
Chanel 9 Note Off - Duracao: 394620 Nota: C1 Vol.: 85
Chanel 9 Note On - Duracao: 394620 Nota: C1 Vol.: 79
Chanel 9 Note Off - Duracao: 394860 Nota: C1 Vol.: 79
Chanel 9 Note On - Duracao: 394860 Nota: C1 Vol.: 77
Chanel 2 Note Off - Duracao: 395040 Nota: C1 Vol.: 67
Chanel 2 Note On - Duracao: 395040 Nota: C1 Vol.: 63
Chanel 8 Note Off - Duracao: 395100 Nota: C1 Vol.: 63
Chanel 8 Note On - Duracao: 395100 Nota: C1 Vol.: 70
Chanel 9 Note Off - Duracao: 395100 Nota: C1 Vol.: 77
Chanel 9 Note On - Duracao: 395100 Nota: C1 Vol.: 73
Chanel 8 Note Off - Duracao: 395340 Nota: C1 Vol.: 70
Chanel 8 Note On - Duracao: 395340 Nota: C1 Vol.: 65
Chanel 4 Note Off - Duracao: 395580 Nota: C1 Vol.: 40
Chanel 4 Note On - Duracao: 395580 Nota: C1 Vol.: 53
Chanel 9 Note Off - Duracao: 395580 Nota: C1 Vol.: 73
Chanel 9 Note On - Duracao: 395580 Nota: C1 Vol.: 74
Chanel 5 Note Off - Duracao: 395760 Nota: C1 Vol.: 40
Chanel 5 Note On - Duracao: 395760 Nota: C1 Vol.: 40
Chanel 8 Note Off - Duracao: 395820 Nota: C1 Vol.: 65
Chanel 8 Note On - Duracao: 395820 Nota: C1 Vol.: 67
Chanel 2 Note Off - Duracao: 396000 Nota: C1 Vol.: 63
Chanel 2 Note On - Duracao: 396000 Nota: C1 Vol.: 64
Chanel 4 Note Off - Duracao: 396060 Nota: C1 Vol.: 53
Chanel 4 Note On - Duracao: 396060 Nota: C1 Vol.: 62
Chanel 8 Note Off - Duracao: 396060 Nota: C1 Vol.: 67
Chanel 8 Note On - Duracao: 396060 Nota: C1 Vol.: 67
Chanel 9 Note Off - Duracao: 396060 Nota: C1 Vol.: 74
Chanel 9 Note On - Duracao: 396060 Nota: C1 Vol.: 72
Chanel 4 Note Off - Duracao: 396300 Nota: C1 Vol.: 62
Chanel 4 Note On - Duracao: 396300 Nota: C1 Vol.: 61
Chanel 8 Note Off - Duracao: 396300 Nota: C1 Vol.: 67
Chanel 8 Note On - Duracao: 396300 Nota: C1 Vol.: 64
Chanel 4 Note Off - Duracao: 396540 Nota: C1 Vol.: 61
Chanel 4 Note On - Duracao: 396540 Nota: C1 Vol.: 58
Chanel 6 Note Off - Duracao: 396540 Nota: C1 Vol.: 74
Chanel 6 Note On - Duracao: 396540 Nota: C1 Vol.: 74
Chanel 9 Note Off - Duracao: 396540 Nota: C1 Vol.: 72
Chanel 9 Note On - Duracao: 396540 Nota: C1 Vol.: 69
Chanel 5 Note Off - Duracao: 396720 Nota: C1 Vol.: 40
Chanel 5 Note On - Duracao: 396720 Nota: C1 Vol.: 40
Chanel 4 Note Off - Duracao: 396780 Nota: C1 Vol.: 58
Chanel 4 Note On - Duracao: 396780 Nota: C1 Vol.: 52
Chanel 8 Note Off - Duracao: 396780 Nota: C1 Vol.: 64
Chanel 8 Note On - Duracao: 396780 Nota: C1 Vol.: 76
Chanel 2 Note Off - Duracao: 396960 Nota: C1 Vol.: 64
Chanel 2 Note On - Duracao: 396960 Nota: C1 Vol.: 65
Chanel 8 Note Off - Duracao: 397020 Nota: C1 Vol.: 76
Chanel 8 Note On - Duracao: 397020 Nota: C1 Vol.: 86
Chanel 9 Note Off - Duracao: 397020 Nota: C1 Vol.: 69
Chanel 9 Note On - Duracao: 397020 Nota: C1 Vol.: 67
Chanel 8 Note Off - Duracao: 397140 Nota: C1 Vol.: 86
Chanel 8 Note On - Duracao: 397140 Nota: C1 Vol.: 81
Chanel 4 Note Off - Duracao: 397260 Nota: C1 Vol.: 52
Chanel 4 Note On - Duracao: 397260 Nota: C1 Vol.: 50
Chanel 3 Note Off - Duracao: 397380 Nota: C1 Vol.: 40
Chanel 3 Note On - Duracao: 397380 Nota: C1 Vol.: 41
Chanel 8 Note Off - Duracao: 397380 Nota: C1 Vol.: 81
Chanel 8 Note On - Duracao: 397380 Nota: C1 Vol.: 55
Chanel 2 Note Off - Duracao: 397440 Nota: C1 Vol.: 65
Chanel 2 Note On - Duracao: 397440 Nota: C1 Vol.: 67
Chanel 9 Note Off - Duracao: 397500 Nota: C1 Vol.: 67
Chanel 9 Note On - Duracao: 397500 Nota: C1 Vol.: 70
Chanel 5 Note Off - Duracao: 397680 Nota: C1 Vol.: 40
Chanel 5 Note On - Duracao: 397680 Nota: C1 Vol.: 40
Chanel 4 Note Off - Duracao: 397740 Nota: C1 Vol.: 50
Chanel 4 Note On - Duracao: 397740 Nota: C1 Vol.: 62
Chanel 2 Note Off - Duracao: 397920 Nota: C1 Vol.: 67
Chanel 2 Note On - Duracao: 397920 Nota: C1 Vol.: 83
Chanel 4 Note Off - Duracao: 397980 Nota: C1 Vol.: 62
Chanel 4 Note On - Duracao: 397980 Nota: C1 Vol.: 40
Chanel 9 Note Off - Duracao: 397980 Nota: C1 Vol.: 70
Chanel 9 Note On - Duracao: 397980 Nota: C1 Vol.: 63
Chanel 2 Note Off - Duracao: 398040 Nota: C1 Vol.: 83
Chanel 2 Note On - Duracao: 398040 Nota: C1 Vol.: 80
Chanel 7 Note Off - Duracao: 398280 Nota: C1 Vol.: 62
Chanel 7 Note On - Duracao: 398280 Nota: C1 Vol.: 65
Chanel 8 Note Off - Duracao: 398340 Nota: C1 Vol.: 55
Chanel 8 Note On - Duracao: 398340 Nota: C1 Vol.: 57
Chanel 6 Note Off - Duracao: 398460 Nota: C1 Vol.: 74
Chanel 6 Note On - Duracao: 398460 Nota: C1 Vol.: 73
Chanel 2 Note Off - Duracao: 398520 Nota: C1 Vol.: 80
Chanel 2 Note On - Duracao: 398520 Nota: C1 Vol.: 81
Chanel 5 Note Off - Duracao: 398640 Nota: C1 Vol.: 40
Chanel 5 Note On - Duracao: 398640 Nota: C1 Vol.: 40
Chanel 2 Note Off - Duracao: 398760 Nota: C1 Vol.: 81
Chanel 2 Note On - Duracao: 398760 Nota: C1 Vol.: 89
Chanel 4 Note Off - Duracao: 398940 Nota: C1 Vol.: 40
Chanel 4 Note On - Duracao: 398940 Nota: C1 Vol.: 51
Chanel 9 Note Off - Duracao: 398940 Nota: C1 Vol.: 63
Chanel 9 Note On - Duracao: 398940 Nota: C1 Vol.: 61
Chanel 2 Note Off - Duracao: 399000 Nota: C1 Vol.: 89
Chanel 2 Note On - Duracao: 399000 Nota: C1 Vol.: 91
Chanel 2 Note Off - Duracao: 399120 Nota: C1 Vol.: 91
Chanel 2 Note On - Duracao: 399120 Nota: C1 Vol.: 88
Chanel 4 Note Off - Duracao: 399180 Nota: C1 Vol.: 51
Chanel 4 Note On - Duracao: 399180 Nota: C1 Vol.: 49
Chanel 3 Note Off - Duracao: 399300 Nota: C1 Vol.: 41
Chanel 3 Note On - Duracao: 399300 Nota: C1 Vol.: 40
Chanel 8 Note Off - Duracao: 399300 Nota: C1 Vol.: 57
Chanel 8 Note On - Duracao: 399300 Nota: C1 Vol.: 52
Chanel 2 Note Off - Duracao: 399360 Nota: C1 Vol.: 88
Chanel 2 Note On - Duracao: 399360 Nota: C1 Vol.: 78
Chanel 4 Note Off - Duracao: 399420 Nota: C1 Vol.: 49
Chanel 4 Note On - Duracao: 399420 Nota: C1 Vol.: 56
Chanel 2 Note Off - Duracao: 399600 Nota: C1 Vol.: 78
Chanel 2 Note On - Duracao: 399600 Nota: C1 Vol.: 79
Chanel 5 Note Off - Duracao: 399600 Nota: C1 Vol.: 40
Chanel 5 Note On - Duracao: 399600 Nota: C1 Vol.: 40
Chanel 4 Note Off - Duracao: 399660 Nota: C1 Vol.: 56
Chanel 4 Note On - Duracao: 399660 Nota: C1 Vol.: 40
Chanel 2 Note Off - Duracao: 399840 Nota: C1 Vol.: 79
Chanel 2 Note On - Duracao: 399840 Nota: C1 Vol.: 75
Chanel 9 Note Off - Duracao: 399900 Nota: C1 Vol.: 61
Chanel 9 Note On - Duracao: 399900 Nota: C1 Vol.: 63
Chanel 2 Note Off - Duracao: 400080 Nota: C1 Vol.: 75
Chanel 2 Note On - Duracao: 400080 Nota: C1 Vol.: 75
Chanel 8 Note Off - Duracao: 400260 Nota: C1 Vol.: 52
Chanel 8 Note On - Duracao: 400260 Nota: C1 Vol.: 60
Chanel 2 Note Off - Duracao: 400320 Nota: C1 Vol.: 75
Chanel 2 Note On - Duracao: 400320 Nota: C1 Vol.: 71
Chanel 6 Note Off - Duracao: 400380 Nota: C1 Vol.: 73
Chanel 6 Note On - Duracao: 400380 Nota: C1 Vol.: 72
Chanel 9 Note Off - Duracao: 400380 Nota: C1 Vol.: 63
Chanel 9 Note On - Duracao: 400380 Nota: C1 Vol.: 62
Chanel 8 Note Off - Duracao: 400740 Nota: C1 Vol.: 60
Chanel 8 Note On - Duracao: 400740 Nota: C1 Vol.: 55
Chanel 2 Note Off - Duracao: 400800 Nota: C1 Vol.: 71
Chanel 2 Note On - Duracao: 400800 Nota: C1 Vol.: 79
Chanel 9 Note Off - Duracao: 400860 Nota: C1 Vol.: 62
Chanel 9 Note On - Duracao: 400860 Nota: C1 Vol.: 64
Chanel 2 Note Off - Duracao: 401040 Nota: C1 Vol.: 79
Chanel 2 Note On - Duracao: 401040 Nota: C1 Vol.: 77
Chanel 3 Note Off - Duracao: 401220 Nota: C1 Vol.: 40
Chanel 3 Note On - Duracao: 401220 Nota: C1 Vol.: 45
Chanel 8 Note Off - Duracao: 401220 Nota: C1 Vol.: 55
Chanel 8 Note On - Duracao: 401220 Nota: C1 Vol.: 66
Chanel 2 Note Off - Duracao: 401280 Nota: C1 Vol.: 77
Chanel 2 Note On - Duracao: 401280 Nota: C1 Vol.: 79
Chanel 9 Note Off - Duracao: 401340 Nota: C1 Vol.: 64
Chanel 9 Note On - Duracao: 401340 Nota: C1 Vol.: 60
Chanel 8 Note Off - Duracao: 401460 Nota: C1 Vol.: 66
Chanel 8 Note On - Duracao: 401460 Nota: C1 Vol.: 62
Chanel 2 Note Off - Duracao: 401520 Nota: C1 Vol.: 79
Chanel 2 Note On - Duracao: 401520 Nota: C1 Vol.: 75
Chanel 5 Note Off - Duracao: 401520 Nota: C1 Vol.: 40
Chanel 5 Note On - Duracao: 401520 Nota: C1 Vol.: 70
Chanel 4 Note Off - Duracao: 401580 Nota: C1 Vol.: 40
Chanel 4 Note On - Duracao: 401580 Nota: C1 Vol.: 56
Chanel 8 Note Off - Duracao: 401700 Nota: C1 Vol.: 62
Chanel 8 Note On - Duracao: 401700 Nota: C1 Vol.: 45
Chanel 2 Note Off - Duracao: 401760 Nota: C1 Vol.: 75
Chanel 2 Note On - Duracao: 401760 Nota: C1 Vol.: 74
Chanel 5 Note Off - Duracao: 401760 Nota: C1 Vol.: 70
Chanel 5 Note On - Duracao: 401760 Nota: C1 Vol.: 48
Chanel 9 Note Off - Duracao: 401820 Nota: C1 Vol.: 60
Chanel 9 Note On - Duracao: 401820 Nota: C1 Vol.: 52
Chanel 4 Note Off - Duracao: 402060 Nota: C1 Vol.: 56
Chanel 4 Note On - Duracao: 402060 Nota: C1 Vol.: 62
Chanel 7 Note Off - Duracao: 402120 Nota: C1 Vol.: 65
Chanel 7 Note On - Duracao: 402120 Nota: C1 Vol.: 72
Chanel 3 Note Off - Duracao: 402180 Nota: C1 Vol.: 45
Chanel 3 Note On - Duracao: 402180 Nota: C1 Vol.: 51
Chanel 8 Note Off - Duracao: 402180 Nota: C1 Vol.: 45
Chanel 8 Note On - Duracao: 402180 Nota: C1 Vol.: 63
Chanel 2 Note Off - Duracao: 402240 Nota: C1 Vol.: 74
Chanel 2 Note On - Duracao: 402240 Nota: C1 Vol.: 83
Chanel 4 Note Off - Duracao: 402300 Nota: C1 Vol.: 62
Chanel 4 Note On - Duracao: 402300 Nota: C1 Vol.: 63
Chanel 6 Note Off - Duracao: 402300 Nota: C1 Vol.: 72
Chanel 6 Note On - Duracao: 402300 Nota: C1 Vol.: 70
Chanel 8 Note Off - Duracao: 402420 Nota: C1 Vol.: 63
Chanel 8 Note On - Duracao: 402420 Nota: C1 Vol.: 63
Chanel 2 Note Off - Duracao: 402480 Nota: C1 Vol.: 83
Chanel 2 Note On - Duracao: 402480 Nota: C1 Vol.: 90
Chanel 4 Note Off - Duracao: 402540 Nota: C1 Vol.: 63
Chanel 4 Note On - Duracao: 402540 Nota: C1 Vol.: 67
Chanel 2 Note Off - Duracao: 402600 Nota: C1 Vol.: 90
Chanel 2 Note On - Duracao: 402600 Nota: C1 Vol.: 81
Chanel 8 Note Off - Duracao: 402660 Nota: C1 Vol.: 63
Chanel 8 Note On - Duracao: 402660 Nota: C1 Vol.: 61
Chanel 4 Note Off - Duracao: 402780 Nota: C1 Vol.: 67
Chanel 4 Note On - Duracao: 402780 Nota: C1 Vol.: 63
Chanel 9 Note Off - Duracao: 402780 Nota: C1 Vol.: 52
Chanel 9 Note On - Duracao: 402780 Nota: C1 Vol.: 56
Chanel 2 Note Off - Duracao: 402840 Nota: C1 Vol.: 81
Chanel 2 Note On - Duracao: 402840 Nota: C1 Vol.: 77
Chanel 8 Note Off - Duracao: 402900 Nota: C1 Vol.: 61
Chanel 8 Note On - Duracao: 402900 Nota: C1 Vol.: 61
Chanel 4 Note Off - Duracao: 403020 Nota: C1 Vol.: 63
Chanel 4 Note On - Duracao: 403020 Nota: C1 Vol.: 60
Chanel 2 Note Off - Duracao: 403080 Nota: C1 Vol.: 77
Chanel 2 Note On - Duracao: 403080 Nota: C1 Vol.: 76
Chanel 3 Note Off - Duracao: 403140 Nota: C1 Vol.: 51
Chanel 3 Note On - Duracao: 403140 Nota: C1 Vol.: 48
Chanel 8 Note Off - Duracao: 403140 Nota: C1 Vol.: 61
Chanel 8 Note On - Duracao: 403140 Nota: C1 Vol.: 55
Chanel 9 Note Off - Duracao: 403260 Nota: C1 Vol.: 56
Chanel 9 Note On - Duracao: 403260 Nota: C1 Vol.: 55
Chanel 2 Note Off - Duracao: 403320 Nota: C1 Vol.: 76
Chanel 2 Note On - Duracao: 403320 Nota: C1 Vol.: 68
Chanel 4 Note Off - Duracao: 403500 Nota: C1 Vol.: 60
Chanel 4 Note On - Duracao: 403500 Nota: C1 Vol.: 81
Chanel 2 Note Off - Duracao: 403560 Nota: C1 Vol.: 68
Chanel 2 Note On - Duracao: 403560 Nota: C1 Vol.: 74
Chanel 4 Note Off - Duracao: 403620 Nota: C1 Vol.: 81
Chanel 4 Note On - Duracao: 403620 Nota: C1 Vol.: 85
Chanel 8 Note Off - Duracao: 403620 Nota: C1 Vol.: 55
Chanel 8 Note On - Duracao: 403620 Nota: C1 Vol.: 62
Chanel 2 Note Off - Duracao: 403680 Nota: C1 Vol.: 74
Chanel 2 Note On - Duracao: 403680 Nota: C1 Vol.: 71
Chanel 5 Note Off - Duracao: 403680 Nota: C1 Vol.: 48
Chanel 5 Note On - Duracao: 403680 Nota: C1 Vol.: 60
Chanel 4 Note Off - Duracao: 403740 Nota: C1 Vol.: 85
Chanel 4 Note On - Duracao: 403740 Nota: C1 Vol.: 95
Chanel 9 Note Off - Duracao: 403740 Nota: C1 Vol.: 55
Chanel 9 Note On - Duracao: 403740 Nota: C1 Vol.: 60
Chanel 2 Note Off - Duracao: 403800 Nota: C1 Vol.: 71
Chanel 2 Note On - Duracao: 403800 Nota: C1 Vol.: 71
Chanel 4 Note Off - Duracao: 403800 Nota: C1 Vol.: 95
Chanel 4 Note On - Duracao: 403800 Nota: C1 Vol.: 95
Chanel 4 Note Off - Duracao: 403860 Nota: C1 Vol.: 95
Chanel 4 Note On - Duracao: 403860 Nota: C1 Vol.: 98
Chanel 8 Note Off - Duracao: 403860 Nota: C1 Vol.: 62
Chanel 8 Note On - Duracao: 403860 Nota: C1 Vol.: 56
Chanel 4 Note Off - Duracao: 403920 Nota: C1 Vol.: 98
Chanel 4 Note On - Duracao: 403920 Nota: C1 Vol.: 98
Chanel 4 Note Off - Duracao: 403980 Nota: C1 Vol.: 98
Chanel 4 Note On - Duracao: 403980 Nota: C1 Vol.: 97
Chanel 2 Note Off - Duracao: 404040 Nota: C1 Vol.: 71
Chanel 2 Note On - Duracao: 404040 Nota: C1 Vol.: 76
Chanel 4 Note Off - Duracao: 404040 Nota: C1 Vol.: 97
Chanel 4 Note On - Duracao: 404040 Nota: C1 Vol.: 100
Chanel 7 Note Off - Duracao: 404040 Nota: C1 Vol.: 72
Chanel 7 Note On - Duracao: 404040 Nota: C1 Vol.: 72
Chanel 3 Note Off - Duracao: 404100 Nota: C1 Vol.: 48
Chanel 3 Note On - Duracao: 404100 Nota: C1 Vol.: 67
Chanel 4 Note Off - Duracao: 404100 Nota: C1 Vol.: 100
Chanel 4 Note On - Duracao: 404100 Nota: C1 Vol.: 100
Chanel 4 Note Off - Duracao: 404160 Nota: C1 Vol.: 100
Chanel 4 Note On - Duracao: 404160 Nota: C1 Vol.: 100
Chanel 4 Note Off - Duracao: 404220 Nota: C1 Vol.: 100
Chanel 4 Note On - Duracao: 404220 Nota: C1 Vol.: 99
Chanel 6 Note Off - Duracao: 404220 Nota: C1 Vol.: 70
Chanel 6 Note On - Duracao: 404220 Nota: C1 Vol.: 70
Chanel 9 Note Off - Duracao: 404220 Nota: C1 Vol.: 60
Chanel 9 Note On - Duracao: 404220 Nota: C1 Vol.: 55
Chanel 2 Note Off - Duracao: 404280 Nota: C1 Vol.: 76
Chanel 2 Note On - Duracao: 404280 Nota: C1 Vol.: 66
Chanel 4 Note Off - Duracao: 404280 Nota: C1 Vol.: 99
Chanel 4 Note On - Duracao: 404280 Nota: C1 Vol.: 99
Chanel 4 Note Off - Duracao: 404340 Nota: C1 Vol.: 99
Chanel 4 Note On - Duracao: 404340 Nota: C1 Vol.: 100
Chanel 8 Note Off - Duracao: 404340 Nota: C1 Vol.: 56
Chanel 8 Note On - Duracao: 404340 Nota: C1 Vol.: 62
Chanel 4 Note Off - Duracao: 404400 Nota: C1 Vol.: 100
Chanel 4 Note On - Duracao: 404400 Nota: C1 Vol.: 99
Chanel 4 Note Off - Duracao: 404460 Nota: C1 Vol.: 99
Chanel 4 Note On - Duracao: 404460 Nota: C1 Vol.: 99
Chanel 4 Note Off - Duracao: 404520 Nota: C1 Vol.: 99
Chanel 4 Note On - Duracao: 404520 Nota: C1 Vol.: 98
Chanel 3 Note Off - Duracao: 404580 Nota: C1 Vol.: 67
Chanel 3 Note On - Duracao: 404580 Nota: C1 Vol.: 53
Chanel 4 Note Off - Duracao: 404580 Nota: C1 Vol.: 98
Chanel 4 Note On - Duracao: 404580 Nota: C1 Vol.: 97
Chanel 4 Note Off - Duracao: 404640 Nota: C1 Vol.: 97
Chanel 4 Note On - Duracao: 404640 Nota: C1 Vol.: 96
Chanel 4 Note Off - Duracao: 404700 Nota: C1 Vol.: 96
Chanel 4 Note On - Duracao: 404700 Nota: C1 Vol.: 97
Chanel 9 Note Off - Duracao: 404700 Nota: C1 Vol.: 55
Chanel 9 Note On - Duracao: 404700 Nota: C1 Vol.: 56
Chanel 2 Note Off - Duracao: 404760 Nota: C1 Vol.: 66
Chanel 2 Note On - Duracao: 404760 Nota: C1 Vol.: 62
Chanel 4 Note Off - Duracao: 404760 Nota: C1 Vol.: 97
Chanel 4 Note On - Duracao: 404760 Nota: C1 Vol.: 71
Chanel 8 Note Off - Duracao: 404820 Nota: C1 Vol.: 62
Chanel 8 Note On - Duracao: 404820 Nota: C1 Vol.: 81
Chanel 8 Note Off - Duracao: 404940 Nota: C1 Vol.: 81
Chanel 8 Note On - Duracao: 404940 Nota: C1 Vol.: 90
Chanel 8 Note Off - Duracao: 405060 Nota: C1 Vol.: 90
Chanel 8 Note On - Duracao: 405060 Nota: C1 Vol.: 91
Chanel 8 Note Off - Duracao: 405180 Nota: C1 Vol.: 91
Chanel 8 Note On - Duracao: 405180 Nota: C1 Vol.: 71
Chanel 9 Note Off - Duracao: 405180 Nota: C1 Vol.: 56
Chanel 9 Note On - Duracao: 405180 Nota: C1 Vol.: 49
Chanel 2 Note Off - Duracao: 405240 Nota: C1 Vol.: 62
Chanel 2 Note On - Duracao: 405240 Nota: C1 Vol.: 72
Chanel 4 Note Off - Duracao: 405240 Nota: C1 Vol.: 71
Chanel 4 Note On - Duracao: 405240 Nota: C1 Vol.: 52
Chanel 2 Note Off - Duracao: 405480 Nota: C1 Vol.: 72
Chanel 2 Note On - Duracao: 405480 Nota: C1 Vol.: 76
Chanel 3 Note Off - Duracao: 405540 Nota: C1 Vol.: 53
Chanel 3 Note On - Duracao: 405540 Nota: C1 Vol.: 60
Chanel 5 Note Off - Duracao: 405600 Nota: C1 Vol.: 60
Chanel 5 Note On - Duracao: 405600 Nota: C1 Vol.: 57
Chanel 8 Note Off - Duracao: 405660 Nota: C1 Vol.: 71
Chanel 8 Note On - Duracao: 405660 Nota: C1 Vol.: 57
Chanel 2 Note Off - Duracao: 405720 Nota: C1 Vol.: 76
Chanel 2 Note On - Duracao: 405720 Nota: C1 Vol.: 75
Chanel 2 Note Off - Duracao: 405960 Nota: C1 Vol.: 75
Chanel 2 Note On - Duracao: 405960 Nota: C1 Vol.: 70
Chanel 7 Note Off - Duracao: 405960 Nota: C1 Vol.: 72
Chanel 7 Note On - Duracao: 405960 Nota: C1 Vol.: 71
Chanel 3 Note Off - Duracao: 406020 Nota: C1 Vol.: 60
Chanel 3 Note On - Duracao: 406020 Nota: C1 Vol.: 85
Chanel 3 Note Off - Duracao: 406140 Nota: C1 Vol.: 85
Chanel 3 Note On - Duracao: 406140 Nota: C1 Vol.: 87
Chanel 6 Note Off - Duracao: 406140 Nota: C1 Vol.: 70
Chanel 6 Note On - Duracao: 406140 Nota: C1 Vol.: 71
Chanel 9 Note Off - Duracao: 406140 Nota: C1 Vol.: 49
Chanel 9 Note On - Duracao: 406140 Nota: C1 Vol.: 54
Chanel 2 Note Off - Duracao: 406200 Nota: C1 Vol.: 70
Chanel 2 Note On - Duracao: 406200 Nota: C1 Vol.: 71
Chanel 3 Note Off - Duracao: 406260 Nota: C1 Vol.: 87
Chanel 3 Note On - Duracao: 406260 Nota: C1 Vol.: 95
Chanel 3 Note Off - Duracao: 406320 Nota: C1 Vol.: 95
Chanel 3 Note On - Duracao: 406320 Nota: C1 Vol.: 99
Chanel 3 Note Off - Duracao: 406380 Nota: C1 Vol.: 99
Chanel 3 Note On - Duracao: 406380 Nota: C1 Vol.: 99
Chanel 2 Note Off - Duracao: 406440 Nota: C1 Vol.: 71
Chanel 2 Note On - Duracao: 406440 Nota: C1 Vol.: 73
Chanel 3 Note Off - Duracao: 406440 Nota: C1 Vol.: 99
Chanel 3 Note On - Duracao: 406440 Nota: C1 Vol.: 99
Chanel 3 Note Off - Duracao: 406500 Nota: C1 Vol.: 99
Chanel 3 Note On - Duracao: 406500 Nota: C1 Vol.: 98
Chanel 3 Note Off - Duracao: 406560 Nota: C1 Vol.: 98
Chanel 3 Note On - Duracao: 406560 Nota: C1 Vol.: 98
Chanel 3 Note Off - Duracao: 406620 Nota: C1 Vol.: 98
Chanel 3 Note On - Duracao: 406620 Nota: C1 Vol.: 98
Chanel 8 Note Off - Duracao: 406620 Nota: C1 Vol.: 57
Chanel 8 Note On - Duracao: 406620 Nota: C1 Vol.: 49
Chanel 9 Note Off - Duracao: 406620 Nota: C1 Vol.: 54
Chanel 9 Note On - Duracao: 406620 Nota: C1 Vol.: 61
Chanel 2 Note Off - Duracao: 406680 Nota: C1 Vol.: 73
Chanel 2 Note On - Duracao: 406680 Nota: C1 Vol.: 56
Chanel 3 Note Off - Duracao: 406680 Nota: C1 Vol.: 98
Chanel 3 Note On - Duracao: 406680 Nota: C1 Vol.: 88
Chanel 3 Note Off - Duracao: 406800 Nota: C1 Vol.: 88
Chanel 3 Note On - Duracao: 406800 Nota: C1 Vol.: 43
Chanel 9 Note Off - Duracao: 406860 Nota: C1 Vol.: 61
Chanel 9 Note On - Duracao: 406860 Nota: C1 Vol.: 54
Chanel 2 Note Off - Duracao: 407160 Nota: C1 Vol.: 56
Chanel 2 Note On - Duracao: 407160 Nota: C1 Vol.: 70
Chanel 4 Note Off - Duracao: 407160 Nota: C1 Vol.: 52
Chanel 4 Note On - Duracao: 407160 Nota: C1 Vol.: 90
Chanel 4 Note Off - Duracao: 407280 Nota: C1 Vol.: 90
Chanel 4 Note On - Duracao: 407280 Nota: C1 Vol.: 92
Chanel 9 Note Off - Duracao: 407340 Nota: C1 Vol.: 54
Chanel 9 Note On - Duracao: 407340 Nota: C1 Vol.: 58
Chanel 2 Note Off - Duracao: 407400 Nota: C1 Vol.: 70
Chanel 2 Note On - Duracao: 407400 Nota: C1 Vol.: 72
Chanel 4 Note Off - Duracao: 407400 Nota: C1 Vol.: 92
Chanel 4 Note On - Duracao: 407400 Nota: C1 Vol.: 100
Chanel 4 Note Off - Duracao: 407460 Nota: C1 Vol.: 100
Chanel 4 Note On - Duracao: 407460 Nota: C1 Vol.: 100
Chanel 4 Note Off - Duracao: 407520 Nota: C1 Vol.: 100
Chanel 4 Note On - Duracao: 407520 Nota: C1 Vol.: 100
Chanel 5 Note Off - Duracao: 407520 Nota: C1 Vol.: 57
Chanel 5 Note On - Duracao: 407520 Nota: C1 Vol.: 85
Chanel 4 Note Off - Duracao: 407580 Nota: C1 Vol.: 100
Chanel 4 Note On - Duracao: 407580 Nota: C1 Vol.: 100
Chanel 8 Note Off - Duracao: 407580 Nota: C1 Vol.: 49
Chanel 8 Note On - Duracao: 407580 Nota: C1 Vol.: 53
Chanel 9 Note Off - Duracao: 407580 Nota: C1 Vol.: 58
Chanel 9 Note On - Duracao: 407580 Nota: C1 Vol.: 62
Chanel 2 Note Off - Duracao: 407640 Nota: C1 Vol.: 72
Chanel 2 Note On - Duracao: 407640 Nota: C1 Vol.: 71
Chanel 4 Note Off - Duracao: 407640 Nota: C1 Vol.: 100
Chanel 4 Note On - Duracao: 407640 Nota: C1 Vol.: 98
Chanel 4 Note Off - Duracao: 407700 Nota: C1 Vol.: 98
Chanel 4 Note On - Duracao: 407700 Nota: C1 Vol.: 99
Chanel 4 Note Off - Duracao: 407760 Nota: C1 Vol.: 99
Chanel 4 Note On - Duracao: 407760 Nota: C1 Vol.: 96
Chanel 5 Note Off - Duracao: 407760 Nota: C1 Vol.: 85
Chanel 5 Note On - Duracao: 407760 Nota: C1 Vol.: 97
Chanel 4 Note Off - Duracao: 407820 Nota: C1 Vol.: 96
Chanel 4 Note On - Duracao: 407820 Nota: C1 Vol.: 98
Chanel 5 Note Off - Duracao: 407820 Nota: C1 Vol.: 97
Chanel 5 Note On - Duracao: 407820 Nota: C1 Vol.: 81
Chanel 9 Note Off - Duracao: 407820 Nota: C1 Vol.: 62
Chanel 9 Note On - Duracao: 407820 Nota: C1 Vol.: 59
Chanel 2 Note Off - Duracao: 407880 Nota: C1 Vol.: 71
Chanel 2 Note On - Duracao: 407880 Nota: C1 Vol.: 72
Chanel 4 Note Off - Duracao: 407880 Nota: C1 Vol.: 98
Chanel 4 Note On - Duracao: 407880 Nota: C1 Vol.: 96
Chanel 7 Note Off - Duracao: 407880 Nota: C1 Vol.: 71
Chanel 7 Note On - Duracao: 407880 Nota: C1 Vol.: 70
Chanel 4 Note Off - Duracao: 407940 Nota: C1 Vol.: 96
Chanel 4 Note On - Duracao: 407940 Nota: C1 Vol.: 48
Chanel 5 Note Off - Duracao: 408060 Nota: C1 Vol.: 81
Chanel 5 Note On - Duracao: 408060 Nota: C1 Vol.: 42
Chanel 6 Note Off - Duracao: 408060 Nota: C1 Vol.: 71
Chanel 6 Note On - Duracao: 408060 Nota: C1 Vol.: 72
Chanel 9 Note Off - Duracao: 408060 Nota: C1 Vol.: 59
Chanel 9 Note On - Duracao: 408060 Nota: C1 Vol.: 61
Chanel 2 Note Off - Duracao: 408120 Nota: C1 Vol.: 72
Chanel 2 Note On - Duracao: 408120 Nota: C1 Vol.: 91
Chanel 2 Note Off - Duracao: 408180 Nota: C1 Vol.: 91
Chanel 2 Note On - Duracao: 408180 Nota: C1 Vol.: 91
Chanel 2 Note Off - Duracao: 408240 Nota: C1 Vol.: 91
Chanel 2 Note On - Duracao: 408240 Nota: C1 Vol.: 80
Chanel 9 Note Off - Duracao: 408300 Nota: C1 Vol.: 61
Chanel 9 Note On - Duracao: 408300 Nota: C1 Vol.: 61
Chanel 2 Note Off - Duracao: 408360 Nota: C1 Vol.: 80
Chanel 2 Note On - Duracao: 408360 Nota: C1 Vol.: 68
Chanel 8 Note Off - Duracao: 408540 Nota: C1 Vol.: 53
Chanel 8 Note On - Duracao: 408540 Nota: C1 Vol.: 59
Chanel 9 Note Off - Duracao: 408540 Nota: C1 Vol.: 61
Chanel 9 Note On - Duracao: 408540 Nota: C1 Vol.: 57
Chanel 2 Note Off - Duracao: 408600 Nota: C1 Vol.: 68
Chanel 2 Note On - Duracao: 408600 Nota: C1 Vol.: 73
Chanel 2 Note Off - Duracao: 408720 Nota: C1 Vol.: 73
Chanel 2 Note On - Duracao: 408720 Nota: C1 Vol.: 67
Chanel 2 Note Off - Duracao: 408960 Nota: C1 Vol.: 67
Chanel 2 Note On - Duracao: 408960 Nota: C1 Vol.: 60
Chanel 8 Note Off - Duracao: 409020 Nota: C1 Vol.: 59
Chanel 8 Note On - Duracao: 409020 Nota: C1 Vol.: 64
Chanel 9 Note Off - Duracao: 409020 Nota: C1 Vol.: 57
Chanel 9 Note On - Duracao: 409020 Nota: C1 Vol.: 64
Chanel 9 Note Off - Duracao: 409260 Nota: C1 Vol.: 64
Chanel 9 Note On - Duracao: 409260 Nota: C1 Vol.: 73
Chanel 2 Note Off - Duracao: 409440 Nota: C1 Vol.: 60
Chanel 2 Note On - Duracao: 409440 Nota: C1 Vol.: 48
Chanel 8 Note Off - Duracao: 409500 Nota: C1 Vol.: 64
Chanel 8 Note On - Duracao: 409500 Nota: C1 Vol.: 63
Chanel 9 Note Off - Duracao: 409500 Nota: C1 Vol.: 73
Chanel 9 Note On - Duracao: 409500 Nota: C1 Vol.: 85
Chanel 9 Note Off - Duracao: 409620 Nota: C1 Vol.: 85
Chanel 9 Note On - Duracao: 409620 Nota: C1 Vol.: 93
Chanel 9 Note Off - Duracao: 409740 Nota: C1 Vol.: 93
Chanel 9 Note On - Duracao: 409740 Nota: C1 Vol.: 92
Chanel 7 Note Off - Duracao: 409800 Nota: C1 Vol.: 70
Chanel 7 Note On - Duracao: 409800 Nota: C1 Vol.: 62
Chanel 4 Note Off - Duracao: 409860 Nota: C1 Vol.: 48
Chanel 4 Note On - Duracao: 409860 Nota: C1 Vol.: 75
Chanel 9 Note Off - Duracao: 409860 Nota: C1 Vol.: 92
Chanel 9 Note On - Duracao: 409860 Nota: C1 Vol.: 84
Chanel 6 Note Off - Duracao: 409980 Nota: C1 Vol.: 72
Chanel 6 Note On - Duracao: 409980 Nota: C1 Vol.: 69
Chanel 8 Note Off - Duracao: 409980 Nota: C1 Vol.: 63
Chanel 8 Note On - Duracao: 409980 Nota: C1 Vol.: 58
Chanel 4 Note Off - Duracao: 410100 Nota: C1 Vol.: 75
Chanel 4 Note On - Duracao: 410100 Nota: C1 Vol.: 96
Chanel 9 Note Off - Duracao: 410100 Nota: C1 Vol.: 84
Chanel 9 Note On - Duracao: 410100 Nota: C1 Vol.: 75
Chanel 4 Note Off - Duracao: 410160 Nota: C1 Vol.: 96
Chanel 4 Note On - Duracao: 410160 Nota: C1 Vol.: 96
Chanel 4 Note Off - Duracao: 410220 Nota: C1 Vol.: 96
Chanel 4 Note On - Duracao: 410220 Nota: C1 Vol.: 97
Chanel 4 Note Off - Duracao: 410280 Nota: C1 Vol.: 97
Chanel 4 Note On - Duracao: 410280 Nota: C1 Vol.: 91
Chanel 2 Note Off - Duracao: 410400 Nota: C1 Vol.: 48
Chanel 2 Note On - Duracao: 410400 Nota: C1 Vol.: 52
Chanel 4 Note Off - Duracao: 410400 Nota: C1 Vol.: 91
Chanel 4 Note On - Duracao: 410400 Nota: C1 Vol.: 44
Chanel 8 Note Off - Duracao: 410460 Nota: C1 Vol.: 58
Chanel 8 Note On - Duracao: 410460 Nota: C1 Vol.: 60
Chanel 9 Note Off - Duracao: 410580 Nota: C1 Vol.: 75
Chanel 9 Note On - Duracao: 410580 Nota: C1 Vol.: 71
Chanel 3 Note Off - Duracao: 410640 Nota: C1 Vol.: 43
Chanel 3 Note On - Duracao: 410640 Nota: C1 Vol.: 100
Chanel 3 Note Off - Duracao: 410700 Nota: C1 Vol.: 100
Chanel 3 Note On - Duracao: 410700 Nota: C1 Vol.: 100
Chanel 3 Note Off - Duracao: 410760 Nota: C1 Vol.: 100
Chanel 3 Note On - Duracao: 410760 Nota: C1 Vol.: 100
Chanel 3 Note Off - Duracao: 410820 Nota: C1 Vol.: 100
Chanel 3 Note On - Duracao: 410820 Nota: C1 Vol.: 100
Chanel 3 Note Off - Duracao: 410880 Nota: C1 Vol.: 100
Chanel 3 Note On - Duracao: 410880 Nota: C1 Vol.: 99
Chanel 3 Note Off - Duracao: 410940 Nota: C1 Vol.: 99
Chanel 3 Note On - Duracao: 410940 Nota: C1 Vol.: 94
Chanel 8 Note Off - Duracao: 410940 Nota: C1 Vol.: 60
Chanel 8 Note On - Duracao: 410940 Nota: C1 Vol.: 60
Chanel 3 Note Off - Duracao: 411060 Nota: C1 Vol.: 94
Chanel 3 Note On - Duracao: 411060 Nota: C1 Vol.: 87
Chanel 9 Note Off - Duracao: 411060 Nota: C1 Vol.: 71
Chanel 9 Note On - Duracao: 411060 Nota: C1 Vol.: 66
Chanel 3 Note Off - Duracao: 411180 Nota: C1 Vol.: 87
Chanel 3 Note On - Duracao: 411180 Nota: C1 Vol.: 91
Chanel 3 Note Off - Duracao: 411300 Nota: C1 Vol.: 91
Chanel 3 Note On - Duracao: 411300 Nota: C1 Vol.: 93
Chanel 2 Note Off - Duracao: 411360 Nota: C1 Vol.: 52
Chanel 2 Note On - Duracao: 411360 Nota: C1 Vol.: 41
Chanel 3 Note Off - Duracao: 411420 Nota: C1 Vol.: 93
Chanel 3 Note On - Duracao: 411420 Nota: C1 Vol.: 80
Chanel 8 Note Off - Duracao: 411420 Nota: C1 Vol.: 60
Chanel 8 Note On - Duracao: 411420 Nota: C1 Vol.: 63
Chanel 3 Note Off - Duracao: 411660 Nota: C1 Vol.: 80
Chanel 3 Note On - Duracao: 411660 Nota: C1 Vol.: 83
Chanel 7 Note Off - Duracao: 411720 Nota: C1 Vol.: 62
Chanel 7 Note On - Duracao: 411720 Nota: C1 Vol.: 53
Chanel 3 Note Off - Duracao: 411900 Nota: C1 Vol.: 83
Chanel 3 Note On - Duracao: 411900 Nota: C1 Vol.: 85
Chanel 5 Note Off - Duracao: 411900 Nota: C1 Vol.: 42
Chanel 5 Note On - Duracao: 411900 Nota: C1 Vol.: 70
Chanel 6 Note Off - Duracao: 411900 Nota: C1 Vol.: 69
Chanel 6 Note On - Duracao: 411900 Nota: C1 Vol.: 69
Chanel 8 Note Off - Duracao: 411900 Nota: C1 Vol.: 63
Chanel 8 Note On - Duracao: 411900 Nota: C1 Vol.: 53
Chanel 9 Note Off - Duracao: 412020 Nota: C1 Vol.: 66
Chanel 9 Note On - Duracao: 412020 Nota: C1 Vol.: 59
Chanel 3 Note Off - Duracao: 412140 Nota: C1 Vol.: 85
Chanel 3 Note On - Duracao: 412140 Nota: C1 Vol.: 87
Chanel 3 Note Off - Duracao: 412260 Nota: C1 Vol.: 87
Chanel 3 Note On - Duracao: 412260 Nota: C1 Vol.: 89
Chanel 3 Note Off - Duracao: 412320 Nota: C1 Vol.: 89
Chanel 3 Note On - Duracao: 412320 Nota: C1 Vol.: 85
Chanel 4 Note Off - Duracao: 412320 Nota: C1 Vol.: 44
Chanel 4 Note On - Duracao: 412320 Nota: C1 Vol.: 62
Chanel 5 Note Off - Duracao: 412380 Nota: C1 Vol.: 70
Chanel 5 Note On - Duracao: 412380 Nota: C1 Vol.: 90
Chanel 3 Note Off - Duracao: 412440 Nota: C1 Vol.: 85
Chanel 3 Note On - Duracao: 412440 Nota: C1 Vol.: 70
Chanel 5 Note Off - Duracao: 412500 Nota: C1 Vol.: 90
Chanel 5 Note On - Duracao: 412500 Nota: C1 Vol.: 89
Chanel 5 Note Off - Duracao: 412620 Nota: C1 Vol.: 89
Chanel 5 Note On - Duracao: 412620 Nota: C1 Vol.: 87
Chanel 3 Note Off - Duracao: 412680 Nota: C1 Vol.: 70
Chanel 3 Note On - Duracao: 412680 Nota: C1 Vol.: 65
Chanel 5 Note Off - Duracao: 412740 Nota: C1 Vol.: 87
Chanel 5 Note On - Duracao: 412740 Nota: C1 Vol.: 88
Chanel 5 Note Off - Duracao: 412860 Nota: C1 Vol.: 88
Chanel 5 Note On - Duracao: 412860 Nota: C1 Vol.: 87
Chanel 8 Note Off - Duracao: 412860 Nota: C1 Vol.: 53
Chanel 8 Note On - Duracao: 412860 Nota: C1 Vol.: 44
Chanel 3 Note Off - Duracao: 412920 Nota: C1 Vol.: 65
Chanel 3 Note On - Duracao: 412920 Nota: C1 Vol.: 64
Chanel 5 Note Off - Duracao: 412980 Nota: C1 Vol.: 87
Chanel 5 Note On - Duracao: 412980 Nota: C1 Vol.: 92
Chanel 9 Note Off - Duracao: 412980 Nota: C1 Vol.: 59
Chanel 9 Note On - Duracao: 412980 Nota: C1 Vol.: 60
Chanel 5 Note Off - Duracao: 413100 Nota: C1 Vol.: 92
Chanel 5 Note On - Duracao: 413100 Nota: C1 Vol.: 97
Chanel 3 Note Off - Duracao: 413160 Nota: C1 Vol.: 64
Chanel 3 Note On - Duracao: 413160 Nota: C1 Vol.: 66
Chanel 5 Note Off - Duracao: 413160 Nota: C1 Vol.: 97
Chanel 5 Note On - Duracao: 413160 Nota: C1 Vol.: 99
Chanel 5 Note Off - Duracao: 413220 Nota: C1 Vol.: 99
Chanel 5 Note On - Duracao: 413220 Nota: C1 Vol.: 100
Chanel 2 Note Off - Duracao: 413280 Nota: C1 Vol.: 41
Chanel 2 Note On - Duracao: 413280 Nota: C1 Vol.: 50
Chanel 4 Note Off - Duracao: 413280 Nota: C1 Vol.: 62
Chanel 4 Note On - Duracao: 413280 Nota: C1 Vol.: 89
Chanel 5 Note Off - Duracao: 413280 Nota: C1 Vol.: 100
Chanel 5 Note On - Duracao: 413280 Nota: C1 Vol.: 100
Chanel 5 Note Off - Duracao: 413340 Nota: C1 Vol.: 100
Chanel 5 Note On - Duracao: 413340 Nota: C1 Vol.: 94
Chanel 3 Note Off - Duracao: 413400 Nota: C1 Vol.: 66
Chanel 3 Note On - Duracao: 413400 Nota: C1 Vol.: 69
Chanel 4 Note Off - Duracao: 413400 Nota: C1 Vol.: 89
Chanel 4 Note On - Duracao: 413400 Nota: C1 Vol.: 90
Chanel 5 Note Off - Duracao: 413460 Nota: C1 Vol.: 94
Chanel 5 Note On - Duracao: 413460 Nota: C1 Vol.: 100
Chanel 4 Note Off - Duracao: 413520 Nota: C1 Vol.: 90
Chanel 4 Note On - Duracao: 413520 Nota: C1 Vol.: 99
Chanel 5 Note Off - Duracao: 413520 Nota: C1 Vol.: 100
Chanel 5 Note On - Duracao: 413520 Nota: C1 Vol.: 100
Chanel 4 Note Off - Duracao: 413580 Nota: C1 Vol.: 99
Chanel 4 Note On - Duracao: 413580 Nota: C1 Vol.: 96
Chanel 5 Note Off - Duracao: 413580 Nota: C1 Vol.: 100
Chanel 5 Note On - Duracao: 413580 Nota: C1 Vol.: 99
Chanel 3 Note Off - Duracao: 413640 Nota: C1 Vol.: 69
Chanel 3 Note On - Duracao: 413640 Nota: C1 Vol.: 89
Chanel 4 Note Off - Duracao: 413640 Nota: C1 Vol.: 96
Chanel 4 Note On - Duracao: 413640 Nota: C1 Vol.: 98
Chanel 5 Note Off - Duracao: 413640 Nota: C1 Vol.: 99
Chanel 5 Note On - Duracao: 413640 Nota: C1 Vol.: 100
Chanel 7 Note Off - Duracao: 413640 Nota: C1 Vol.: 53
Chanel 7 Note On - Duracao: 413640 Nota: C1 Vol.: 46
Chanel 3 Note Off - Duracao: 413700 Nota: C1 Vol.: 89
Chanel 3 Note On - Duracao: 413700 Nota: C1 Vol.: 95
Chanel 5 Note Off - Duracao: 413700 Nota: C1 Vol.: 100
Chanel 5 Note On - Duracao: 413700 Nota: C1 Vol.: 100
Chanel 2 Note Off - Duracao: 413760 Nota: C1 Vol.: 50
Chanel 2 Note On - Duracao: 413760 Nota: C1 Vol.: 50
Chanel 3 Note Off - Duracao: 413760 Nota: C1 Vol.: 95
Chanel 3 Note On - Duracao: 413760 Nota: C1 Vol.: 97
Chanel 4 Note Off - Duracao: 413760 Nota: C1 Vol.: 98
Chanel 4 Note On - Duracao: 413760 Nota: C1 Vol.: 100
Chanel 5 Note Off - Duracao: 413760 Nota: C1 Vol.: 100
Chanel 5 Note On - Duracao: 413760 Nota: C1 Vol.: 99
Chanel 3 Note Off - Duracao: 413820 Nota: C1 Vol.: 97
Chanel 3 Note On - Duracao: 413820 Nota: C1 Vol.: 96
Chanel 4 Note Off - Duracao: 413820 Nota: C1 Vol.: 100
Chanel 4 Note On - Duracao: 413820 Nota: C1 Vol.: 100
Chanel 5 Note Off - Duracao: 413820 Nota: C1 Vol.: 99
Chanel 5 Note On - Duracao: 413820 Nota: C1 Vol.: 92
Chanel 6 Note Off - Duracao: 413820 Nota: C1 Vol.: 69
Chanel 6 Note On - Duracao: 413820 Nota: C1 Vol.: 65
Chanel 8 Note Off - Duracao: 413820 Nota: C1 Vol.: 44
Chanel 8 Note On - Duracao: 413820 Nota: C1 Vol.: 60
Chanel 3 Note Off - Duracao: 413880 Nota: C1 Vol.: 96
Chanel 3 Note On - Duracao: 413880 Nota: C1 Vol.: 74
Chanel 4 Note Off - Duracao: 413880 Nota: C1 Vol.: 100
Chanel 4 Note On - Duracao: 413880 Nota: C1 Vol.: 94
Chanel 5 Note Off - Duracao: 413940 Nota: C1 Vol.: 92
Chanel 5 Note On - Duracao: 413940 Nota: C1 Vol.: 80
Chanel 9 Note Off - Duracao: 413940 Nota: C1 Vol.: 60
Chanel 9 Note On - Duracao: 413940 Nota: C1 Vol.: 56
Chanel 2 Note Off - Duracao: 414000 Nota: C1 Vol.: 50
Chanel 2 Note On - Duracao: 414000 Nota: C1 Vol.: 54
Chanel 4 Note Off - Duracao: 414000 Nota: C1 Vol.: 94
Chanel 4 Note On - Duracao: 414000 Nota: C1 Vol.: 70
Chanel 8 Note Off - Duracao: 414060 Nota: C1 Vol.: 60
Chanel 8 Note On - Duracao: 414060 Nota: C1 Vol.: 61
Chanel 3 Note Off - Duracao: 414120 Nota: C1 Vol.: 74
Chanel 3 Note On - Duracao: 414120 Nota: C1 Vol.: 54
Chanel 5 Note Off - Duracao: 414180 Nota: C1 Vol.: 80
Chanel 5 Note On - Duracao: 414180 Nota: C1 Vol.: 53
Chanel 8 Note Off - Duracao: 414180 Nota: C1 Vol.: 61
Chanel 8 Note On - Duracao: 414180 Nota: C1 Vol.: 59
Chanel 2 Note Off - Duracao: 414240 Nota: C1 Vol.: 54
Chanel 2 Note On - Duracao: 414240 Nota: C1 Vol.: 60
Chanel 8 Note Off - Duracao: 414300 Nota: C1 Vol.: 59
Chanel 8 Note On - Duracao: 414300 Nota: C1 Vol.: 52
Chanel 2 Note Off - Duracao: 414480 Nota: C1 Vol.: 60
Chanel 2 Note On - Duracao: 414480 Nota: C1 Vol.: 48
Chanel 4 Note Off - Duracao: 414480 Nota: C1 Vol.: 70
Chanel 4 Note On - Duracao: 414480 Nota: C1 Vol.: 65
Chanel 8 Note Off - Duracao: 414540 Nota: C1 Vol.: 52
Chanel 8 Note On - Duracao: 414540 Nota: C1 Vol.: 50
Chanel 8 Note Off - Duracao: 414780 Nota: C1 Vol.: 50
Chanel 8 Note On - Duracao: 414780 Nota: C1 Vol.: 47
Chanel 9 Note Off - Duracao: 414900 Nota: C1 Vol.: 56
Chanel 9 Note On - Duracao: 414900 Nota: C1 Vol.: 54
Chanel 4 Note Off - Duracao: 414960 Nota: C1 Vol.: 65
Chanel 4 Note On - Duracao: 414960 Nota: C1 Vol.: 72
Chanel 8 Note Off - Duracao: 415020 Nota: C1 Vol.: 47
Chanel 8 Note On - Duracao: 415020 Nota: C1 Vol.: 45
Chanel 3 Note Off - Duracao: 415080 Nota: C1 Vol.: 54
Chanel 3 Note On - Duracao: 415080 Nota: C1 Vol.: 55
Chanel 5 Note Off - Duracao: 415140 Nota: C1 Vol.: 53
Chanel 5 Note On - Duracao: 415140 Nota: C1 Vol.: 96
Chanel 5 Note Off - Duracao: 415260 Nota: C1 Vol.: 96
Chanel 5 Note On - Duracao: 415260 Nota: C1 Vol.: 100
Chanel 8 Note Off - Duracao: 415260 Nota: C1 Vol.: 45
Chanel 8 Note On - Duracao: 415260 Nota: C1 Vol.: 46
Chanel 5 Note Off - Duracao: 415320 Nota: C1 Vol.: 100
Chanel 5 Note On - Duracao: 415320 Nota: C1 Vol.: 99
Chanel 5 Note Off - Duracao: 415380 Nota: C1 Vol.: 99
Chanel 5 Note On - Duracao: 415380 Nota: C1 Vol.: 95
Chanel 9 Note Off - Duracao: 415380 Nota: C1 Vol.: 54
Chanel 9 Note On - Duracao: 415380 Nota: C1 Vol.: 49
Chanel 2 Note Off - Duracao: 415440 Nota: C1 Vol.: 48
Chanel 2 Note On - Duracao: 415440 Nota: C1 Vol.: 46
Chanel 4 Note Off - Duracao: 415440 Nota: C1 Vol.: 72
Chanel 4 Note On - Duracao: 415440 Nota: C1 Vol.: 99
Chanel 5 Note Off - Duracao: 415440 Nota: C1 Vol.: 95
Chanel 5 Note On - Duracao: 415440 Nota: C1 Vol.: 96
Chanel 4 Note Off - Duracao: 415500 Nota: C1 Vol.: 99
Chanel 4 Note On - Duracao: 415500 Nota: C1 Vol.: 97
Chanel 5 Note Off - Duracao: 415500 Nota: C1 Vol.: 96
Chanel 5 Note On - Duracao: 415500 Nota: C1 Vol.: 95
Chanel 8 Note Off - Duracao: 415500 Nota: C1 Vol.: 46
Chanel 8 Note On - Duracao: 415500 Nota: C1 Vol.: 46
Chanel 4 Note Off - Duracao: 415560 Nota: C1 Vol.: 97
Chanel 4 Note On - Duracao: 415560 Nota: C1 Vol.: 99
Chanel 5 Note Off - Duracao: 415560 Nota: C1 Vol.: 95
Chanel 5 Note On - Duracao: 415560 Nota: C1 Vol.: 91
Chanel 7 Note Off - Duracao: 415560 Nota: C1 Vol.: 46
Chanel 7 Note On - Duracao: 415560 Nota: C1 Vol.: 45
Chanel 4 Note Off - Duracao: 415620 Nota: C1 Vol.: 99
Chanel 4 Note On - Duracao: 415620 Nota: C1 Vol.: 94
Chanel 5 Note Off - Duracao: 415680 Nota: C1 Vol.: 91
Chanel 5 Note On - Duracao: 415680 Nota: C1 Vol.: 90
Chanel 4 Note Off - Duracao: 415740 Nota: C1 Vol.: 94
Chanel 4 Note On - Duracao: 415740 Nota: C1 Vol.: 98
Chanel 6 Note Off - Duracao: 415740 Nota: C1 Vol.: 65
Chanel 6 Note On - Duracao: 415740 Nota: C1 Vol.: 57
Chanel 4 Note Off - Duracao: 415800 Nota: C1 Vol.: 98
Chanel 4 Note On - Duracao: 415800 Nota: C1 Vol.: 97
Chanel 5 Note Off - Duracao: 415800 Nota: C1 Vol.: 90
Chanel 5 Note On - Duracao: 415800 Nota: C1 Vol.: 71
Chanel 4 Note Off - Duracao: 415860 Nota: C1 Vol.: 97
Chanel 4 Note On - Duracao: 415860 Nota: C1 Vol.: 94
Chanel 9 Note Off - Duracao: 415860 Nota: C1 Vol.: 49
Chanel 9 Note On - Duracao: 415860 Nota: C1 Vol.: 57
Chanel 4 Note Off - Duracao: 415980 Nota: C1 Vol.: 94
Chanel 4 Note On - Duracao: 415980 Nota: C1 Vol.: 95
Chanel 8 Note Off - Duracao: 415980 Nota: C1 Vol.: 46
Chanel 8 Note On - Duracao: 415980 Nota: C1 Vol.: 48
Chanel 3 Note Off - Duracao: 416040 Nota: C1 Vol.: 55
Chanel 3 Note On - Duracao: 416040 Nota: C1 Vol.: 57
Chanel 4 Note Off - Duracao: 416100 Nota: C1 Vol.: 95
Chanel 4 Note On - Duracao: 416100 Nota: C1 Vol.: 97
Chanel 9 Note Off - Duracao: 416100 Nota: C1 Vol.: 57
Chanel 9 Note On - Duracao: 416100 Nota: C1 Vol.: 61
Chanel 4 Note Off - Duracao: 416220 Nota: C1 Vol.: 97
Chanel 4 Note On - Duracao: 416220 Nota: C1 Vol.: 92
Chanel 5 Note Off - Duracao: 416280 Nota: C1 Vol.: 71
Chanel 5 Note On - Duracao: 416280 Nota: C1 Vol.: 69
Chanel 4 Note Off - Duracao: 416340 Nota: C1 Vol.: 92
Chanel 4 Note On - Duracao: 416340 Nota: C1 Vol.: 82
Chanel 9 Note Off - Duracao: 416340 Nota: C1 Vol.: 61
Chanel 9 Note On - Duracao: 416340 Nota: C1 Vol.: 69
Chanel 4 Note Off - Duracao: 416460 Nota: C1 Vol.: 82
Chanel 4 Note On - Duracao: 416460 Nota: C1 Vol.: 63
Chanel 8 Note Off - Duracao: 416460 Nota: C1 Vol.: 48
Chanel 8 Note On - Duracao: 416460 Nota: C1 Vol.: 48
Chanel 9 Note Off - Duracao: 416460 Nota: C1 Vol.: 69
Chanel 9 Note On - Duracao: 416460 Nota: C1 Vol.: 72
Chanel 9 Note Off - Duracao: 416580 Nota: C1 Vol.: 72
Chanel 9 Note On - Duracao: 416580 Nota: C1 Vol.: 55
Chanel 5 Note Off - Duracao: 416760 Nota: C1 Vol.: 69
Chanel 5 Note On - Duracao: 416760 Nota: C1 Vol.: 69
Chanel 4 Note Off - Duracao: 416940 Nota: C1 Vol.: 63
Chanel 4 Note On - Duracao: 416940 Nota: C1 Vol.: 48
Chanel 8 Note Off - Duracao: 416940 Nota: C1 Vol.: 48
Chanel 8 Note On - Duracao: 416940 Nota: C1 Vol.: 47
Chanel 3 Note Off - Duracao: 417000 Nota: C1 Vol.: 57
Chanel 3 Note On - Duracao: 417000 Nota: C1 Vol.: 57
Chanel 5 Note Off - Duracao: 417240 Nota: C1 Vol.: 69
Chanel 5 Note On - Duracao: 417240 Nota: C1 Vol.: 70
Chanel 2 Note Off - Duracao: 417360 Nota: C1 Vol.: 46
Chanel 2 Note On - Duracao: 417360 Nota: C1 Vol.: 57
Chanel 8 Note Off - Duracao: 417420 Nota: C1 Vol.: 47
Chanel 8 Note On - Duracao: 417420 Nota: C1 Vol.: 55
Chanel 7 Note Off - Duracao: 417480 Nota: C1 Vol.: 45
Chanel 7 Note On - Duracao: 417480 Nota: C1 Vol.: 53
Chanel 9 Note Off - Duracao: 417540 Nota: C1 Vol.: 55
Chanel 9 Note On - Duracao: 417540 Nota: C1 Vol.: 51
Chanel 5 Note Off - Duracao: 417720 Nota: C1 Vol.: 70
Chanel 5 Note On - Duracao: 417720 Nota: C1 Vol.: 65
Chanel 4 Note Off - Duracao: 417900 Nota: C1 Vol.: 48
Chanel 4 Note On - Duracao: 417900 Nota: C1 Vol.: 48
Chanel 8 Note Off - Duracao: 417900 Nota: C1 Vol.: 55
Chanel 8 Note On - Duracao: 417900 Nota: C1 Vol.: 46
Chanel 3 Note Off - Duracao: 417960 Nota: C1 Vol.: 57
Chanel 3 Note On - Duracao: 417960 Nota: C1 Vol.: 54
Chanel 7 Note Off - Duracao: 417960 Nota: C1 Vol.: 53
Chanel 7 Note On - Duracao: 417960 Nota: C1 Vol.: 56
Chanel 5 Note Off - Duracao: 418200 Nota: C1 Vol.: 65
Chanel 5 Note On - Duracao: 418200 Nota: C1 Vol.: 52
Chanel 2 Note Off - Duracao: 418320 Nota: C1 Vol.: 57
Chanel 2 Note On - Duracao: 418320 Nota: C1 Vol.: 94
Chanel 2 Note Off - Duracao: 418380 Nota: C1 Vol.: 94
Chanel 2 Note On - Duracao: 418380 Nota: C1 Vol.: 95
Chanel 2 Note Off - Duracao: 418440 Nota: C1 Vol.: 95
Chanel 2 Note On - Duracao: 418440 Nota: C1 Vol.: 64
Chanel 7 Note Off - Duracao: 418440 Nota: C1 Vol.: 56
Chanel 7 Note On - Duracao: 418440 Nota: C1 Vol.: 58
Chanel 9 Note Off - Duracao: 418500 Nota: C1 Vol.: 51
Chanel 9 Note On - Duracao: 418500 Nota: C1 Vol.: 54
Chanel 4 Note Off - Duracao: 418860 Nota: C1 Vol.: 48
Chanel 4 Note On - Duracao: 418860 Nota: C1 Vol.: 54
Chanel 8 Note Off - Duracao: 418860 Nota: C1 Vol.: 46
Chanel 8 Note On - Duracao: 418860 Nota: C1 Vol.: 56
Chanel 3 Note Off - Duracao: 418920 Nota: C1 Vol.: 54
Chanel 3 Note On - Duracao: 418920 Nota: C1 Vol.: 60
Chanel 7 Note Off - Duracao: 418920 Nota: C1 Vol.: 58
Chanel 7 Note On - Duracao: 418920 Nota: C1 Vol.: 46
Chanel 5 Note Off - Duracao: 419160 Nota: C1 Vol.: 52
Chanel 5 Note On - Duracao: 419160 Nota: C1 Vol.: 64
Chanel 4 Note Off - Duracao: 419340 Nota: C1 Vol.: 54
Chanel 4 Note On - Duracao: 419340 Nota: C1 Vol.: 60
Chanel 8 Note Off - Duracao: 419340 Nota: C1 Vol.: 56
Chanel 8 Note On - Duracao: 419340 Nota: C1 Vol.: 56
Chanel 2 Note Off - Duracao: 419400 Nota: C1 Vol.: 64
Chanel 2 Note On - Duracao: 419400 Nota: C1 Vol.: 46
Chanel 3 Note Off - Duracao: 419400 Nota: C1 Vol.: 60
Chanel 3 Note On - Duracao: 419400 Nota: C1 Vol.: 61
Chanel 5 Note Off - Duracao: 419400 Nota: C1 Vol.: 64
Chanel 5 Note On - Duracao: 419400 Nota: C1 Vol.: 50
Chanel 9 Note Off - Duracao: 419460 Nota: C1 Vol.: 54
Chanel 9 Note On - Duracao: 419460 Nota: C1 Vol.: 65
Chanel 6 Note Off - Duracao: 419580 Nota: C1 Vol.: 57
Chanel 6 Note On - Duracao: 419580 Nota: C1 Vol.: 52
Chanel 3 Note Off - Duracao: 419640 Nota: C1 Vol.: 61
Chanel 3 Note On - Duracao: 419640 Nota: C1 Vol.: 63
Chanel 4 Note Off - Duracao: 419820 Nota: C1 Vol.: 60
Chanel 4 Note On - Duracao: 419820 Nota: C1 Vol.: 50
Chanel 8 Note Off - Duracao: 419820 Nota: C1 Vol.: 56
Chanel 8 Note On - Duracao: 419820 Nota: C1 Vol.: 50
Chanel 7 Note Off - Duracao: 419880 Nota: C1 Vol.: 46
Chanel 7 Note On - Duracao: 419880 Nota: C1 Vol.: 53
Chanel 9 Note Off - Duracao: 419940 Nota: C1 Vol.: 65
Chanel 9 Note On - Duracao: 419940 Nota: C1 Vol.: 96
Chanel 9 Note Off - Duracao: 420000 Nota: C1 Vol.: 96
Chanel 9 Note On - Duracao: 420000 Nota: C1 Vol.: 84
Chanel 3 Note Off - Duracao: 420120 Nota: C1 Vol.: 63
Chanel 3 Note On - Duracao: 420120 Nota: C1 Vol.: 57
Chanel 9 Note Off - Duracao: 420240 Nota: C1 Vol.: 84
Chanel 9 Note On - Duracao: 420240 Nota: C1 Vol.: 65
Chanel 8 Note Off - Duracao: 420300 Nota: C1 Vol.: 50
Chanel 8 Note On - Duracao: 420300 Nota: C1 Vol.: 50
Chanel 5 Note Off - Duracao: 420360 Nota: C1 Vol.: 50
Chanel 5 Note On - Duracao: 420360 Nota: C1 Vol.: 43
Chanel 3 Note Off - Duracao: 420600 Nota: C1 Vol.: 57
Chanel 3 Note On - Duracao: 420600 Nota: C1 Vol.: 61
Chanel 9 Note Off - Duracao: 420720 Nota: C1 Vol.: 65
Chanel 9 Note On - Duracao: 420720 Nota: C1 Vol.: 66
Chanel 4 Note Off - Duracao: 420780 Nota: C1 Vol.: 50
Chanel 4 Note On - Duracao: 420780 Nota: C1 Vol.: 54
Chanel 8 Note Off - Duracao: 420780 Nota: C1 Vol.: 50
Chanel 8 Note On - Duracao: 420780 Nota: C1 Vol.: 52
Chanel 7 Note Off - Duracao: 420840 Nota: C1 Vol.: 53
Chanel 7 Note On - Duracao: 420840 Nota: C1 Vol.: 54
Chanel 8 Note Off - Duracao: 420900 Nota: C1 Vol.: 52
Chanel 8 Note On - Duracao: 420900 Nota: C1 Vol.: 52
Chanel 8 Note Off - Duracao: 421020 Nota: C1 Vol.: 52
Chanel 8 Note On - Duracao: 421020 Nota: C1 Vol.: 49
Chanel 3 Note Off - Duracao: 421080 Nota: C1 Vol.: 61
Chanel 3 Note On - Duracao: 421080 Nota: C1 Vol.: 66
Chanel 8 Note Off - Duracao: 421140 Nota: C1 Vol.: 49
Chanel 8 Note On - Duracao: 421140 Nota: C1 Vol.: 49
Chanel 9 Note Off - Duracao: 421200 Nota: C1 Vol.: 66
Chanel 9 Note On - Duracao: 421200 Nota: C1 Vol.: 65
Chanel 8 Note Off - Duracao: 421260 Nota: C1 Vol.: 49
Chanel 8 Note On - Duracao: 421260 Nota: C1 Vol.: 51
Chanel 3 Note Off - Duracao: 421320 Nota: C1 Vol.: 66
Chanel 3 Note On - Duracao: 421320 Nota: C1 Vol.: 67
Chanel 5 Note Off - Duracao: 421320 Nota: C1 Vol.: 43
Chanel 5 Note On - Duracao: 421320 Nota: C1 Vol.: 43
Chanel 8 Note Off - Duracao: 421380 Nota: C1 Vol.: 51
Chanel 8 Note On - Duracao: 421380 Nota: C1 Vol.: 51
Chanel 8 Note Off - Duracao: 421500 Nota: C1 Vol.: 51
Chanel 8 Note On - Duracao: 421500 Nota: C1 Vol.: 54
Chanel 3 Note Off - Duracao: 421560 Nota: C1 Vol.: 67
Chanel 3 Note On - Duracao: 421560 Nota: C1 Vol.: 63
Chanel 8 Note Off - Duracao: 421620 Nota: C1 Vol.: 54
Chanel 8 Note On - Duracao: 421620 Nota: C1 Vol.: 51
Chanel 9 Note Off - Duracao: 421680 Nota: C1 Vol.: 65
Chanel 9 Note On - Duracao: 421680 Nota: C1 Vol.: 67
Chanel 4 Note Off - Duracao: 421740 Nota: C1 Vol.: 54
Chanel 4 Note On - Duracao: 421740 Nota: C1 Vol.: 55
Chanel 8 Note Off - Duracao: 421740 Nota: C1 Vol.: 51
Chanel 8 Note On - Duracao: 421740 Nota: C1 Vol.: 54
Chanel 3 Note Off - Duracao: 421800 Nota: C1 Vol.: 63
Chanel 3 Note On - Duracao: 421800 Nota: C1 Vol.: 65
Chanel 7 Note Off - Duracao: 421800 Nota: C1 Vol.: 54
Chanel 7 Note On - Duracao: 421800 Nota: C1 Vol.: 58
Chanel 8 Note Off - Duracao: 421860 Nota: C1 Vol.: 54
Chanel 8 Note On - Duracao: 421860 Nota: C1 Vol.: 54
Chanel 9 Note Off - Duracao: 421920 Nota: C1 Vol.: 67
Chanel 9 Note On - Duracao: 421920 Nota: C1 Vol.: 57
Chanel 8 Note Off - Duracao: 421980 Nota: C1 Vol.: 54
Chanel 8 Note On - Duracao: 421980 Nota: C1 Vol.: 54
Chanel 3 Note Off - Duracao: 422040 Nota: C1 Vol.: 65
Chanel 3 Note On - Duracao: 422040 Nota: C1 Vol.: 66
Chanel 8 Note Off - Duracao: 422100 Nota: C1 Vol.: 54
Chanel 8 Note On - Duracao: 422100 Nota: C1 Vol.: 56
Chanel 4 Note Off - Duracao: 422220 Nota: C1 Vol.: 55
Chanel 4 Note On - Duracao: 422220 Nota: C1 Vol.: 57
Chanel 8 Note Off - Duracao: 422220 Nota: C1 Vol.: 56
Chanel 8 Note On - Duracao: 422220 Nota: C1 Vol.: 55
Chanel 3 Note Off - Duracao: 422280 Nota: C1 Vol.: 66
Chanel 3 Note On - Duracao: 422280 Nota: C1 Vol.: 62
Chanel 5 Note Off - Duracao: 422280 Nota: C1 Vol.: 43
Chanel 5 Note On - Duracao: 422280 Nota: C1 Vol.: 43
Chanel 8 Note Off - Duracao: 422340 Nota: C1 Vol.: 55
Chanel 8 Note On - Duracao: 422340 Nota: C1 Vol.: 49
Chanel 9 Note Off - Duracao: 422400 Nota: C1 Vol.: 57
Chanel 9 Note On - Duracao: 422400 Nota: C1 Vol.: 44
Chanel 3 Note Off - Duracao: 422520 Nota: C1 Vol.: 62
Chanel 3 Note On - Duracao: 422520 Nota: C1 Vol.: 55
Chanel 8 Note Off - Duracao: 422580 Nota: C1 Vol.: 49
Chanel 8 Note On - Duracao: 422580 Nota: C1 Vol.: 53
Chanel 4 Note Off - Duracao: 422700 Nota: C1 Vol.: 57
Chanel 4 Note On - Duracao: 422700 Nota: C1 Vol.: 48
Chanel 8 Note Off - Duracao: 422700 Nota: C1 Vol.: 53
Chanel 8 Note On - Duracao: 422700 Nota: C1 Vol.: 55
Chanel 7 Note Off - Duracao: 422760 Nota: C1 Vol.: 58
Chanel 7 Note On - Duracao: 422760 Nota: C1 Vol.: 56
Chanel 8 Note Off - Duracao: 422820 Nota: C1 Vol.: 55
Chanel 8 Note On - Duracao: 422820 Nota: C1 Vol.: 53
Chanel 8 Note Off - Duracao: 422940 Nota: C1 Vol.: 53
Chanel 8 Note On - Duracao: 422940 Nota: C1 Vol.: 52
Chanel 3 Note Off - Duracao: 423000 Nota: C1 Vol.: 55
Chanel 3 Note On - Duracao: 423000 Nota: C1 Vol.: 59
Chanel 8 Note Off - Duracao: 423060 Nota: C1 Vol.: 52
Chanel 8 Note On - Duracao: 423060 Nota: C1 Vol.: 52
Chanel 8 Note Off - Duracao: 423180 Nota: C1 Vol.: 52
Chanel 8 Note On - Duracao: 423180 Nota: C1 Vol.: 56
Chanel 2 Note Off - Duracao: 423240 Nota: C1 Vol.: 46
Chanel 2 Note On - Duracao: 423240 Nota: C1 Vol.: 48
Chanel 5 Note Off - Duracao: 423240 Nota: C1 Vol.: 43
Chanel 5 Note On - Duracao: 423240 Nota: C1 Vol.: 48
Chanel 7 Note Off - Duracao: 423240 Nota: C1 Vol.: 56
Chanel 7 Note On - Duracao: 423240 Nota: C1 Vol.: 69
Chanel 8 Note Off - Duracao: 423300 Nota: C1 Vol.: 56
Chanel 8 Note On - Duracao: 423300 Nota: C1 Vol.: 56
Chanel 6 Note Off - Duracao: 423420 Nota: C1 Vol.: 52
Chanel 6 Note On - Duracao: 423420 Nota: C1 Vol.: 53
Chanel 8 Note Off - Duracao: 423420 Nota: C1 Vol.: 56
Chanel 8 Note On - Duracao: 423420 Nota: C1 Vol.: 55
Chanel 3 Note Off - Duracao: 423480 Nota: C1 Vol.: 59
Chanel 3 Note On - Duracao: 423480 Nota: C1 Vol.: 51
Chanel 7 Note Off - Duracao: 423480 Nota: C1 Vol.: 69
Chanel 7 Note On - Duracao: 423480 Nota: C1 Vol.: 79
Chanel 8 Note Off - Duracao: 423540 Nota: C1 Vol.: 55
Chanel 8 Note On - Duracao: 423540 Nota: C1 Vol.: 55
Chanel 7 Note Off - Duracao: 423600 Nota: C1 Vol.: 79
Chanel 7 Note On - Duracao: 423600 Nota: C1 Vol.: 89
Chanel 4 Note Off - Duracao: 423660 Nota: C1 Vol.: 48
Chanel 4 Note On - Duracao: 423660 Nota: C1 Vol.: 44
Chanel 8 Note Off - Duracao: 423660 Nota: C1 Vol.: 55
Chanel 8 Note On - Duracao: 423660 Nota: C1 Vol.: 50
Chanel 7 Note Off - Duracao: 423720 Nota: C1 Vol.: 89
Chanel 7 Note On - Duracao: 423720 Nota: C1 Vol.: 92
Chanel 8 Note Off - Duracao: 423780 Nota: C1 Vol.: 50
Chanel 8 Note On - Duracao: 423780 Nota: C1 Vol.: 44
Chanel 7 Note Off - Duracao: 423840 Nota: C1 Vol.: 92
Chanel 7 Note On - Duracao: 423840 Nota: C1 Vol.: 85
Chanel 7 Note Off - Duracao: 423960 Nota: C1 Vol.: 85
Chanel 7 Note On - Duracao: 423960 Nota: C1 Vol.: 80
Chanel 8 Note Off - Duracao: 424020 Nota: C1 Vol.: 44
Chanel 8 Note On - Duracao: 424020 Nota: C1 Vol.: 57
Chanel 8 Note Off - Duracao: 424140 Nota: C1 Vol.: 57
Chanel 8 Note On - Duracao: 424140 Nota: C1 Vol.: 48
Chanel 5 Note Off - Duracao: 424200 Nota: C1 Vol.: 48
Chanel 5 Note On - Duracao: 424200 Nota: C1 Vol.: 47
Chanel 7 Note Off - Duracao: 424200 Nota: C1 Vol.: 80
Chanel 7 Note On - Duracao: 424200 Nota: C1 Vol.: 81
Chanel 9 Note Off - Duracao: 424320 Nota: C1 Vol.: 44
Chanel 9 Note On - Duracao: 424320 Nota: C1 Vol.: 55
Chanel 8 Note Off - Duracao: 424380 Nota: C1 Vol.: 48
Chanel 8 Note On - Duracao: 424380 Nota: C1 Vol.: 43
Chanel 3 Note Off - Duracao: 424440 Nota: C1 Vol.: 51
Chanel 3 Note On - Duracao: 424440 Nota: C1 Vol.: 52
Chanel 7 Note Off - Duracao: 424440 Nota: C1 Vol.: 81
Chanel 7 Note On - Duracao: 424440 Nota: C1 Vol.: 95
Chanel 7 Note Off - Duracao: 424500 Nota: C1 Vol.: 95
Chanel 7 Note On - Duracao: 424500 Nota: C1 Vol.: 81
Chanel 4 Note Off - Duracao: 424620 Nota: C1 Vol.: 44
Chanel 4 Note On - Duracao: 424620 Nota: C1 Vol.: 44
Chanel 7 Note Off - Duracao: 424740 Nota: C1 Vol.: 81
Chanel 7 Note On - Duracao: 424740 Nota: C1 Vol.: 84
Chanel 7 Note Off - Duracao: 424860 Nota: C1 Vol.: 84
Chanel 7 Note On - Duracao: 424860 Nota: C1 Vol.: 80
Chanel 8 Note Off - Duracao: 424860 Nota: C1 Vol.: 43
Chanel 8 Note On - Duracao: 424860 Nota: C1 Vol.: 58
Chanel 7 Note Off - Duracao: 425100 Nota: C1 Vol.: 80
Chanel 7 Note On - Duracao: 425100 Nota: C1 Vol.: 77
Chanel 8 Note Off - Duracao: 425100 Nota: C1 Vol.: 58
Chanel 8 Note On - Duracao: 425100 Nota: C1 Vol.: 59
Chanel 2 Note Off - Duracao: 425160 Nota: C1 Vol.: 48
Chanel 2 Note On - Duracao: 425160 Nota: C1 Vol.: 55
Chanel 5 Note Off - Duracao: 425160 Nota: C1 Vol.: 47
Chanel 5 Note On - Duracao: 425160 Nota: C1 Vol.: 57
Chanel 9 Note Off - Duracao: 425280 Nota: C1 Vol.: 55
Chanel 9 Note On - Duracao: 425280 Nota: C1 Vol.: 61
Chanel 7 Note Off - Duracao: 425340 Nota: C1 Vol.: 77
Chanel 7 Note On - Duracao: 425340 Nota: C1 Vol.: 90
Chanel 8 Note Off - Duracao: 425340 Nota: C1 Vol.: 59
Chanel 8 Note On - Duracao: 425340 Nota: C1 Vol.: 69
Chanel 3 Note Off - Duracao: 425400 Nota: C1 Vol.: 52
Chanel 3 Note On - Duracao: 425400 Nota: C1 Vol.: 40
Chanel 5 Note Off - Duracao: 425400 Nota: C1 Vol.: 57
Chanel 5 Note On - Duracao: 425400 Nota: C1 Vol.: 57
Chanel 7 Note Off - Duracao: 425460 Nota: C1 Vol.: 90
Chanel 7 Note On - Duracao: 425460 Nota: C1 Vol.: 97
Chanel 8 Note Off - Duracao: 425460 Nota: C1 Vol.: 69
Chanel 8 Note On - Duracao: 425460 Nota: C1 Vol.: 66
Chanel 7 Note Off - Duracao: 425520 Nota: C1 Vol.: 97
Chanel 7 Note On - Duracao: 425520 Nota: C1 Vol.: 87
Chanel 4 Note Off - Duracao: 425580 Nota: C1 Vol.: 44
Chanel 4 Note On - Duracao: 425580 Nota: C1 Vol.: 44
Chanel 8 Note Off - Duracao: 425580 Nota: C1 Vol.: 66
Chanel 8 Note On - Duracao: 425580 Nota: C1 Vol.: 64
Chanel 5 Note Off - Duracao: 425640 Nota: C1 Vol.: 57
Chanel 5 Note On - Duracao: 425640 Nota: C1 Vol.: 46
Chanel 7 Note Off - Duracao: 425640 Nota: C1 Vol.: 87
Chanel 7 Note On - Duracao: 425640 Nota: C1 Vol.: 80
Chanel 8 Note Off - Duracao: 425700 Nota: C1 Vol.: 64
Chanel 8 Note On - Duracao: 425700 Nota: C1 Vol.: 64
Chanel 7 Note Off - Duracao: 425760 Nota: C1 Vol.: 80
Chanel 7 Note On - Duracao: 425760 Nota: C1 Vol.: 77
Chanel 9 Note Off - Duracao: 425760 Nota: C1 Vol.: 61
Chanel 9 Note On - Duracao: 425760 Nota: C1 Vol.: 62
Chanel 8 Note Off - Duracao: 425820 Nota: C1 Vol.: 64
Chanel 8 Note On - Duracao: 425820 Nota: C1 Vol.: 48
Chanel 7 Note Off - Duracao: 426000 Nota: C1 Vol.: 77
Chanel 7 Note On - Duracao: 426000 Nota: C1 Vol.: 60
Chanel 2 Note Off - Duracao: 426120 Nota: C1 Vol.: 55
Chanel 2 Note On - Duracao: 426120 Nota: C1 Vol.: 49
Chanel 9 Note Off - Duracao: 426240 Nota: C1 Vol.: 62
Chanel 9 Note On - Duracao: 426240 Nota: C1 Vol.: 62
Chanel 8 Note Off - Duracao: 426300 Nota: C1 Vol.: 48
Chanel 8 Note On - Duracao: 426300 Nota: C1 Vol.: 44
Chanel 7 Note Off - Duracao: 426480 Nota: C1 Vol.: 60
Chanel 7 Note On - Duracao: 426480 Nota: C1 Vol.: 64
Chanel 4 Note Off - Duracao: 426540 Nota: C1 Vol.: 44
Chanel 4 Note On - Duracao: 426540 Nota: C1 Vol.: 47
Chanel 5 Note Off - Duracao: 426600 Nota: C1 Vol.: 46
Chanel 5 Note On - Duracao: 426600 Nota: C1 Vol.: 49
Chanel 9 Note Off - Duracao: 426720 Nota: C1 Vol.: 62
Chanel 9 Note On - Duracao: 426720 Nota: C1 Vol.: 61
Chanel 7 Note Off - Duracao: 426960 Nota: C1 Vol.: 64
Chanel 7 Note On - Duracao: 426960 Nota: C1 Vol.: 69
Chanel 2 Note Off - Duracao: 427080 Nota: C1 Vol.: 49
Chanel 2 Note On - Duracao: 427080 Nota: C1 Vol.: 51
Chanel 9 Note Off - Duracao: 427200 Nota: C1 Vol.: 61
Chanel 9 Note On - Duracao: 427200 Nota: C1 Vol.: 62
Chanel 6 Note Off - Duracao: 427260 Nota: C1 Vol.: 53
Chanel 6 Note On - Duracao: 427260 Nota: C1 Vol.: 56
Chanel 8 Note Off - Duracao: 427260 Nota: C1 Vol.: 44
Chanel 8 Note On - Duracao: 427260 Nota: C1 Vol.: 45
Chanel 3 Note Off - Duracao: 427320 Nota: C1 Vol.: 40
Chanel 3 Note On - Duracao: 427320 Nota: C1 Vol.: 59
Chanel 7 Note Off - Duracao: 427440 Nota: C1 Vol.: 69
Chanel 7 Note On - Duracao: 427440 Nota: C1 Vol.: 67
Chanel 4 Note Off - Duracao: 427500 Nota: C1 Vol.: 47
Chanel 4 Note On - Duracao: 427500 Nota: C1 Vol.: 52
Chanel 5 Note Off - Duracao: 427560 Nota: C1 Vol.: 49
Chanel 5 Note On - Duracao: 427560 Nota: C1 Vol.: 55
Chanel 9 Note Off - Duracao: 427680 Nota: C1 Vol.: 62
Chanel 9 Note On - Duracao: 427680 Nota: C1 Vol.: 60
Chanel 3 Note Off - Duracao: 427800 Nota: C1 Vol.: 59
Chanel 3 Note On - Duracao: 427800 Nota: C1 Vol.: 59
Chanel 2 Note Off - Duracao: 428040 Nota: C1 Vol.: 51
Chanel 2 Note On - Duracao: 428040 Nota: C1 Vol.: 47
Chanel 5 Note Off - Duracao: 428040 Nota: C1 Vol.: 55
Chanel 5 Note On - Duracao: 428040 Nota: C1 Vol.: 58
Chanel 9 Note Off - Duracao: 428160 Nota: C1 Vol.: 60
Chanel 9 Note On - Duracao: 428160 Nota: C1 Vol.: 59
Chanel 8 Note Off - Duracao: 428220 Nota: C1 Vol.: 45
Chanel 8 Note On - Duracao: 428220 Nota: C1 Vol.: 49
Chanel 3 Note Off - Duracao: 428280 Nota: C1 Vol.: 59
Chanel 3 Note On - Duracao: 428280 Nota: C1 Vol.: 49
Chanel 7 Note Off - Duracao: 428400 Nota: C1 Vol.: 67
Chanel 7 Note On - Duracao: 428400 Nota: C1 Vol.: 66
Chanel 4 Note Off - Duracao: 428460 Nota: C1 Vol.: 52
Chanel 4 Note On - Duracao: 428460 Nota: C1 Vol.: 69
Chanel 5 Note Off - Duracao: 428520 Nota: C1 Vol.: 58
Chanel 5 Note On - Duracao: 428520 Nota: C1 Vol.: 46
Chanel 9 Note Off - Duracao: 428640 Nota: C1 Vol.: 59
Chanel 9 Note On - Duracao: 428640 Nota: C1 Vol.: 57
Chanel 4 Note Off - Duracao: 428700 Nota: C1 Vol.: 69
Chanel 4 Note On - Duracao: 428700 Nota: C1 Vol.: 69
Chanel 7 Note Off - Duracao: 428880 Nota: C1 Vol.: 66
Chanel 7 Note On - Duracao: 428880 Nota: C1 Vol.: 63
Chanel 4 Note Off - Duracao: 428940 Nota: C1 Vol.: 69
Chanel 4 Note On - Duracao: 428940 Nota: C1 Vol.: 55
Chanel 2 Note Off - Duracao: 429000 Nota: C1 Vol.: 47
Chanel 2 Note On - Duracao: 429000 Nota: C1 Vol.: 52
Chanel 9 Note Off - Duracao: 429120 Nota: C1 Vol.: 57
Chanel 9 Note On - Duracao: 429120 Nota: C1 Vol.: 57
Chanel 8 Note Off - Duracao: 429180 Nota: C1 Vol.: 49
Chanel 8 Note On - Duracao: 429180 Nota: C1 Vol.: 50
Chanel 3 Note Off - Duracao: 429240 Nota: C1 Vol.: 49
Chanel 3 Note On - Duracao: 429240 Nota: C1 Vol.: 64
Chanel 4 Note Off - Duracao: 429420 Nota: C1 Vol.: 55
Chanel 4 Note On - Duracao: 429420 Nota: C1 Vol.: 54
Chanel 3 Note Off - Duracao: 429480 Nota: C1 Vol.: 64
Chanel 3 Note On - Duracao: 429480 Nota: C1 Vol.: 59
Chanel 5 Note Off - Duracao: 429480 Nota: C1 Vol.: 46
Chanel 5 Note On - Duracao: 429480 Nota: C1 Vol.: 56
Chanel 9 Note Off - Duracao: 429600 Nota: C1 Vol.: 57
Chanel 9 Note On - Duracao: 429600 Nota: C1 Vol.: 61
Chanel 5 Note Off - Duracao: 429720 Nota: C1 Vol.: 56
Chanel 5 Note On - Duracao: 429720 Nota: C1 Vol.: 66
Chanel 7 Note Off - Duracao: 429840 Nota: C1 Vol.: 63
Chanel 7 Note On - Duracao: 429840 Nota: C1 Vol.: 66
Chanel 2 Note Off - Duracao: 429960 Nota: C1 Vol.: 52
Chanel 2 Note On - Duracao: 429960 Nota: C1 Vol.: 58
Chanel 3 Note Off - Duracao: 429960 Nota: C1 Vol.: 59
Chanel 3 Note On - Duracao: 429960 Nota: C1 Vol.: 40
Chanel 5 Note Off - Duracao: 429960 Nota: C1 Vol.: 66
Chanel 5 Note On - Duracao: 429960 Nota: C1 Vol.: 66
Chanel 9 Note Off - Duracao: 430080 Nota: C1 Vol.: 61
Chanel 9 Note On - Duracao: 430080 Nota: C1 Vol.: 60
Chanel 8 Note Off - Duracao: 430140 Nota: C1 Vol.: 50
Chanel 8 Note On - Duracao: 430140 Nota: C1 Vol.: 55
Chanel 5 Note Off - Duracao: 430200 Nota: C1 Vol.: 66
Chanel 5 Note On - Duracao: 430200 Nota: C1 Vol.: 49
Chanel 7 Note Off - Duracao: 430320 Nota: C1 Vol.: 66
Chanel 7 Note On - Duracao: 430320 Nota: C1 Vol.: 76
Chanel 4 Note Off - Duracao: 430380 Nota: C1 Vol.: 54
Chanel 4 Note On - Duracao: 430380 Nota: C1 Vol.: 45
Chanel 7 Note Off - Duracao: 430560 Nota: C1 Vol.: 76
Chanel 7 Note On - Duracao: 430560 Nota: C1 Vol.: 84
Chanel 9 Note Off - Duracao: 430560 Nota: C1 Vol.: 60
Chanel 9 Note On - Duracao: 430560 Nota: C1 Vol.: 64
Chanel 8 Note Off - Duracao: 430620 Nota: C1 Vol.: 55
Chanel 8 Note On - Duracao: 430620 Nota: C1 Vol.: 58
Chanel 7 Note Off - Duracao: 430680 Nota: C1 Vol.: 84
Chanel 7 Note On - Duracao: 430680 Nota: C1 Vol.: 83
Chanel 7 Note Off - Duracao: 430800 Nota: C1 Vol.: 83
Chanel 7 Note On - Duracao: 430800 Nota: C1 Vol.: 81
Chanel 2 Note Off - Duracao: 430920 Nota: C1 Vol.: 58
Chanel 2 Note On - Duracao: 430920 Nota: C1 Vol.: 66
Chanel 7 Note Off - Duracao: 430920 Nota: C1 Vol.: 81
Chanel 7 Note On - Duracao: 430920 Nota: C1 Vol.: 69
Chanel 9 Note Off - Duracao: 431040 Nota: C1 Vol.: 64
Chanel 9 Note On - Duracao: 431040 Nota: C1 Vol.: 67
Chanel 6 Note Off - Duracao: 431100 Nota: C1 Vol.: 56
Chanel 6 Note On - Duracao: 431100 Nota: C1 Vol.: 56
Chanel 8 Note Off - Duracao: 431100 Nota: C1 Vol.: 58
Chanel 8 Note On - Duracao: 431100 Nota: C1 Vol.: 62
Chanel 5 Note Off - Duracao: 431160 Nota: C1 Vol.: 49
Chanel 5 Note On - Duracao: 431160 Nota: C1 Vol.: 52
Chanel 7 Note Off - Duracao: 431160 Nota: C1 Vol.: 69
Chanel 7 Note On - Duracao: 431160 Nota: C1 Vol.: 68
Chanel 9 Note Off - Duracao: 431280 Nota: C1 Vol.: 67
Chanel 9 Note On - Duracao: 431280 Nota: C1 Vol.: 65
Chanel 2 Note Off - Duracao: 431400 Nota: C1 Vol.: 66
Chanel 2 Note On - Duracao: 431400 Nota: C1 Vol.: 71
Chanel 7 Note Off - Duracao: 431400 Nota: C1 Vol.: 68
Chanel 7 Note On - Duracao: 431400 Nota: C1 Vol.: 56
Chanel 8 Note Off - Duracao: 431580 Nota: C1 Vol.: 62
Chanel 8 Note On - Duracao: 431580 Nota: C1 Vol.: 71
Chanel 5 Note Off - Duracao: 431640 Nota: C1 Vol.: 52
Chanel 5 Note On - Duracao: 431640 Nota: C1 Vol.: 50
Chanel 9 Note Off - Duracao: 431760 Nota: C1 Vol.: 65
Chanel 9 Note On - Duracao: 431760 Nota: C1 Vol.: 62
Chanel 8 Note Off - Duracao: 431820 Nota: C1 Vol.: 71
Chanel 8 Note On - Duracao: 431820 Nota: C1 Vol.: 72
Chanel 2 Note Off - Duracao: 431880 Nota: C1 Vol.: 71
Chanel 2 Note On - Duracao: 431880 Nota: C1 Vol.: 68
Chanel 3 Note Off - Duracao: 431880 Nota: C1 Vol.: 40
Chanel 3 Note On - Duracao: 431880 Nota: C1 Vol.: 41
Chanel 7 Note Off - Duracao: 431880 Nota: C1 Vol.: 56
Chanel 7 Note On - Duracao: 431880 Nota: C1 Vol.: 67
Chanel 7 Note Off - Duracao: 432000 Nota: C1 Vol.: 67
Chanel 7 Note On - Duracao: 432000 Nota: C1 Vol.: 67
Chanel 8 Note Off - Duracao: 432060 Nota: C1 Vol.: 72
Chanel 8 Note On - Duracao: 432060 Nota: C1 Vol.: 72
Chanel 7 Note Off - Duracao: 432120 Nota: C1 Vol.: 67
Chanel 7 Note On - Duracao: 432120 Nota: C1 Vol.: 69
Chanel 7 Note Off - Duracao: 432240 Nota: C1 Vol.: 69
Chanel 7 Note On - Duracao: 432240 Nota: C1 Vol.: 65
Chanel 9 Note Off - Duracao: 432240 Nota: C1 Vol.: 62
Chanel 9 Note On - Duracao: 432240 Nota: C1 Vol.: 65
Chanel 4 Note Off - Duracao: 432300 Nota: C1 Vol.: 45
Chanel 4 Note On - Duracao: 432300 Nota: C1 Vol.: 52
Chanel 8 Note Off - Duracao: 432300 Nota: C1 Vol.: 72
Chanel 8 Note On - Duracao: 432300 Nota: C1 Vol.: 69
Chanel 2 Note Off - Duracao: 432360 Nota: C1 Vol.: 68
Chanel 2 Note On - Duracao: 432360 Nota: C1 Vol.: 41
Chanel 7 Note Off - Duracao: 432480 Nota: C1 Vol.: 65
Chanel 7 Note On - Duracao: 432480 Nota: C1 Vol.: 63
Chanel 8 Note Off - Duracao: 432540 Nota: C1 Vol.: 69
Chanel 8 Note On - Duracao: 432540 Nota: C1 Vol.: 72
Chanel 5 Note Off - Duracao: 432600 Nota: C1 Vol.: 50
Chanel 5 Note On - Duracao: 432600 Nota: C1 Vol.: 48
Chanel 7 Note Off - Duracao: 432720 Nota: C1 Vol.: 63
Chanel 7 Note On - Duracao: 432720 Nota: C1 Vol.: 62
Chanel 9 Note Off - Duracao: 432720 Nota: C1 Vol.: 65
Chanel 9 Note On - Duracao: 432720 Nota: C1 Vol.: 62
Chanel 8 Note Off - Duracao: 432780 Nota: C1 Vol.: 72
Chanel 8 Note On - Duracao: 432780 Nota: C1 Vol.: 77
Chanel 7 Note Off - Duracao: 432960 Nota: C1 Vol.: 62
Chanel 7 Note On - Duracao: 432960 Nota: C1 Vol.: 58
Chanel 8 Note Off - Duracao: 433020 Nota: C1 Vol.: 77
Chanel 8 Note On - Duracao: 433020 Nota: C1 Vol.: 83
Chanel 5 Note Off - Duracao: 433080 Nota: C1 Vol.: 48
Chanel 5 Note On - Duracao: 433080 Nota: C1 Vol.: 67
Chanel 5 Note Off - Duracao: 433200 Nota: C1 Vol.: 67
Chanel 5 Note On - Duracao: 433200 Nota: C1 Vol.: 70
Chanel 7 Note Off - Duracao: 433200 Nota: C1 Vol.: 58
Chanel 7 Note On - Duracao: 433200 Nota: C1 Vol.: 56
Chanel 9 Note Off - Duracao: 433200 Nota: C1 Vol.: 62
Chanel 9 Note On - Duracao: 433200 Nota: C1 Vol.: 57
Chanel 4 Note Off - Duracao: 433260 Nota: C1 Vol.: 52
Chanel 4 Note On - Duracao: 433260 Nota: C1 Vol.: 68
Chanel 8 Note Off - Duracao: 433260 Nota: C1 Vol.: 83
Chanel 8 Note On - Duracao: 433260 Nota: C1 Vol.: 79
Chanel 5 Note Off - Duracao: 433320 Nota: C1 Vol.: 70
Chanel 5 Note On - Duracao: 433320 Nota: C1 Vol.: 54
Chanel 7 Note Off - Duracao: 433440 Nota: C1 Vol.: 56
Chanel 7 Note On - Duracao: 433440 Nota: C1 Vol.: 60
Chanel 4 Note Off - Duracao: 433500 Nota: C1 Vol.: 68
Chanel 4 Note On - Duracao: 433500 Nota: C1 Vol.: 66
Chanel 8 Note Off - Duracao: 433500 Nota: C1 Vol.: 79
Chanel 8 Note On - Duracao: 433500 Nota: C1 Vol.: 53
Chanel 7 Note Off - Duracao: 433680 Nota: C1 Vol.: 60
Chanel 7 Note On - Duracao: 433680 Nota: C1 Vol.: 63
Chanel 4 Note Off - Duracao: 433740 Nota: C1 Vol.: 66
Chanel 4 Note On - Duracao: 433740 Nota: C1 Vol.: 62
Chanel 3 Note Off - Duracao: 433800 Nota: C1 Vol.: 41
Chanel 3 Note On - Duracao: 433800 Nota: C1 Vol.: 42
Chanel 5 Note Off - Duracao: 433800 Nota: C1 Vol.: 54
Chanel 5 Note On - Duracao: 433800 Nota: C1 Vol.: 45
Chanel 7 Note Off - Duracao: 433920 Nota: C1 Vol.: 63
Chanel 7 Note On - Duracao: 433920 Nota: C1 Vol.: 50
Chanel 4 Note Off - Duracao: 433980 Nota: C1 Vol.: 62
Chanel 4 Note On - Duracao: 433980 Nota: C1 Vol.: 60
Chanel 9 Note Off - Duracao: 434160 Nota: C1 Vol.: 57
Chanel 9 Note On - Duracao: 434160 Nota: C1 Vol.: 54
Chanel 4 Note Off - Duracao: 434220 Nota: C1 Vol.: 60
Chanel 4 Note On - Duracao: 434220 Nota: C1 Vol.: 56
Chanel 2 Note Off - Duracao: 434280 Nota: C1 Vol.: 41
Chanel 2 Note On - Duracao: 434280 Nota: C1 Vol.: 40
Chanel 7 Note Off - Duracao: 434400 Nota: C1 Vol.: 50
Chanel 7 Note On - Duracao: 434400 Nota: C1 Vol.: 65
Chanel 8 Note Off - Duracao: 434460 Nota: C1 Vol.: 53
Chanel 8 Note On - Duracao: 434460 Nota: C1 Vol.: 52
Chanel 7 Note Off - Duracao: 434520 Nota: C1 Vol.: 65
Chanel 7 Note On - Duracao: 434520 Nota: C1 Vol.: 59
Chanel 7 Note Off - Duracao: 434640 Nota: C1 Vol.: 59
Chanel 7 Note On - Duracao: 434640 Nota: C1 Vol.: 57
Chanel 4 Note Off - Duracao: 434700 Nota: C1 Vol.: 56
Chanel 4 Note On - Duracao: 434700 Nota: C1 Vol.: 47
Chanel 5 Note Off - Duracao: 434760 Nota: C1 Vol.: 45
Chanel 5 Note On - Duracao: 434760 Nota: C1 Vol.: 53
Chanel 7 Note Off - Duracao: 434760 Nota: C1 Vol.: 57
Chanel 7 Note On - Duracao: 434760 Nota: C1 Vol.: 54
Chanel 7 Note Off - Duracao: 434880 Nota: C1 Vol.: 54
Chanel 7 Note On - Duracao: 434880 Nota: C1 Vol.: 58
Chanel 6 Note Off - Duracao: 434940 Nota: C1 Vol.: 56
Chanel 6 Note On - Duracao: 434940 Nota: C1 Vol.: 56
Chanel 7 Note Off - Duracao: 435000 Nota: C1 Vol.: 58
Chanel 7 Note On - Duracao: 435000 Nota: C1 Vol.: 55
Chanel 9 Note Off - Duracao: 435120 Nota: C1 Vol.: 54
Chanel 9 Note On - Duracao: 435120 Nota: C1 Vol.: 59
Chanel 5 Note Off - Duracao: 435240 Nota: C1 Vol.: 53
Chanel 5 Note On - Duracao: 435240 Nota: C1 Vol.: 49
Chanel 7 Note Off - Duracao: 435240 Nota: C1 Vol.: 55
Chanel 7 Note On - Duracao: 435240 Nota: C1 Vol.: 54
Chanel 8 Note Off - Duracao: 435420 Nota: C1 Vol.: 52
Chanel 8 Note On - Duracao: 435420 Nota: C1 Vol.: 54
Chanel 7 Note Off - Duracao: 435480 Nota: C1 Vol.: 54
Chanel 7 Note On - Duracao: 435480 Nota: C1 Vol.: 60
Chanel 9 Note Off - Duracao: 435600 Nota: C1 Vol.: 59
Chanel 9 Note On - Duracao: 435600 Nota: C1 Vol.: 59
Chanel 4 Note Off - Duracao: 435660 Nota: C1 Vol.: 47
Chanel 4 Note On - Duracao: 435660 Nota: C1 Vol.: 42
Chanel 7 Note Off - Duracao: 435720 Nota: C1 Vol.: 60
Chanel 7 Note On - Duracao: 435720 Nota: C1 Vol.: 61
Chanel 7 Note Off - Duracao: 435960 Nota: C1 Vol.: 61
Chanel 7 Note On - Duracao: 435960 Nota: C1 Vol.: 64
Chanel 5 Note Off - Duracao: 436200 Nota: C1 Vol.: 49
Chanel 5 Note On - Duracao: 436200 Nota: C1 Vol.: 58
Chanel 7 Note Off - Duracao: 436200 Nota: C1 Vol.: 64
Chanel 7 Note On - Duracao: 436200 Nota: C1 Vol.: 66
Chanel 8 Note Off - Duracao: 436380 Nota: C1 Vol.: 54
Chanel 8 Note On - Duracao: 436380 Nota: C1 Vol.: 54
Chanel 7 Note Off - Duracao: 436440 Nota: C1 Vol.: 66
Chanel 7 Note On - Duracao: 436440 Nota: C1 Vol.: 62
Chanel 9 Note Off - Duracao: 436560 Nota: C1 Vol.: 59
Chanel 9 Note On - Duracao: 436560 Nota: C1 Vol.: 58
Chanel 4 Note Off - Duracao: 436620 Nota: C1 Vol.: 42
Chanel 4 Note On - Duracao: 436620 Nota: C1 Vol.: 55
Chanel 5 Note Off - Duracao: 436680 Nota: C1 Vol.: 58
Chanel 5 Note On - Duracao: 436680 Nota: C1 Vol.: 59
Chanel 7 Note Off - Duracao: 436680 Nota: C1 Vol.: 62
Chanel 7 Note On - Duracao: 436680 Nota: C1 Vol.: 58
Chanel 4 Note Off - Duracao: 436860 Nota: C1 Vol.: 55
Chanel 4 Note On - Duracao: 436860 Nota: C1 Vol.: 56
Chanel 4 Note Off - Duracao: 437100 Nota: C1 Vol.: 56
Chanel 4 Note On - Duracao: 437100 Nota: C1 Vol.: 62
Chanel 5 Note Off - Duracao: 437160 Nota: C1 Vol.: 59
Chanel 5 Note On - Duracao: 437160 Nota: C1 Vol.: 65
Chanel 7 Note Off - Duracao: 437160 Nota: C1 Vol.: 58
Chanel 7 Note On - Duracao: 437160 Nota: C1 Vol.: 47
Chanel 4 Note Off - Duracao: 437340 Nota: C1 Vol.: 62
Chanel 4 Note On - Duracao: 437340 Nota: C1 Vol.: 40
Chanel 8 Note Off - Duracao: 437340 Nota: C1 Vol.: 54
Chanel 8 Note On - Duracao: 437340 Nota: C1 Vol.: 51
Chanel 9 Note Off - Duracao: 437520 Nota: C1 Vol.: 58
Chanel 9 Note On - Duracao: 437520 Nota: C1 Vol.: 53
Chanel 3 Note Off - Duracao: 437640 Nota: C1 Vol.: 42
Chanel 3 Note On - Duracao: 437640 Nota: C1 Vol.: 44
Chanel 5 Note Off - Duracao: 437640 Nota: C1 Vol.: 65
Chanel 5 Note On - Duracao: 437640 Nota: C1 Vol.: 79
Chanel 5 Note Off - Duracao: 437880 Nota: C1 Vol.: 79
Chanel 5 Note On - Duracao: 437880 Nota: C1 Vol.: 91
Chanel 5 Note Off - Duracao: 438000 Nota: C1 Vol.: 91
Chanel 5 Note On - Duracao: 438000 Nota: C1 Vol.: 54
Chanel 2 Note Off - Duracao: 438120 Nota: C1 Vol.: 40
Chanel 2 Note On - Duracao: 438120 Nota: C1 Vol.: 43
Chanel 7 Note Off - Duracao: 438120 Nota: C1 Vol.: 47
Chanel 7 Note On - Duracao: 438120 Nota: C1 Vol.: 46
Chanel 8 Note Off - Duracao: 438300 Nota: C1 Vol.: 51
Chanel 8 Note On - Duracao: 438300 Nota: C1 Vol.: 55
Chanel 9 Note Off - Duracao: 438480 Nota: C1 Vol.: 53
Chanel 9 Note On - Duracao: 438480 Nota: C1 Vol.: 58
Chanel 6 Note Off - Duracao: 438780 Nota: C1 Vol.: 56
Chanel 6 Note On - Duracao: 438780 Nota: C1 Vol.: 66
Chanel 8 Note Off - Duracao: 438780 Nota: C1 Vol.: 55
Chanel 8 Note On - Duracao: 438780 Nota: C1 Vol.: 56
Chanel 7 Note Off - Duracao: 439080 Nota: C1 Vol.: 46
Chanel 7 Note On - Duracao: 439080 Nota: C1 Vol.: 58
Chanel 4 Note Off - Duracao: 439260 Nota: C1 Vol.: 40
Chanel 4 Note On - Duracao: 439260 Nota: C1 Vol.: 40
Chanel 8 Note Off - Duracao: 439260 Nota: C1 Vol.: 56
Chanel 8 Note On - Duracao: 439260 Nota: C1 Vol.: 47
Chanel 9 Note Off - Duracao: 439440 Nota: C1 Vol.: 58
Chanel 9 Note On - Duracao: 439440 Nota: C1 Vol.: 61
Chanel 7 Note Off - Duracao: 439560 Nota: C1 Vol.: 58
Chanel 7 Note On - Duracao: 439560 Nota: C1 Vol.: 58
Chanel 5 Note Off - Duracao: 439920 Nota: C1 Vol.: 54
Chanel 5 Note On - Duracao: 439920 Nota: C1 Vol.: 50
Chanel 9 Note Off - Duracao: 439920 Nota: C1 Vol.: 61
Chanel 9 Note On - Duracao: 439920 Nota: C1 Vol.: 60
Chanel 2 Note Off - Duracao: 440040 Nota: C1 Vol.: 43
Chanel 2 Note On - Duracao: 440040 Nota: C1 Vol.: 42
Chanel 7 Note Off - Duracao: 440040 Nota: C1 Vol.: 58
Chanel 7 Note On - Duracao: 440040 Nota: C1 Vol.: 58
Chanel 8 Note Off - Duracao: 440220 Nota: C1 Vol.: 47
Chanel 8 Note On - Duracao: 440220 Nota: C1 Vol.: 52
Chanel 9 Note Off - Duracao: 440400 Nota: C1 Vol.: 60
Chanel 9 Note On - Duracao: 440400 Nota: C1 Vol.: 67
Chanel 7 Note Off - Duracao: 440520 Nota: C1 Vol.: 58
Chanel 7 Note On - Duracao: 440520 Nota: C1 Vol.: 60
Chanel 6 Note Off - Duracao: 440700 Nota: C1 Vol.: 66
Chanel 6 Note On - Duracao: 440700 Nota: C1 Vol.: 68
Chanel 8 Note Off - Duracao: 440700 Nota: C1 Vol.: 52
Chanel 8 Note On - Duracao: 440700 Nota: C1 Vol.: 72
Chanel 8 Note Off - Duracao: 440820 Nota: C1 Vol.: 72
Chanel 8 Note On - Duracao: 440820 Nota: C1 Vol.: 73
Chanel 9 Note Off - Duracao: 440880 Nota: C1 Vol.: 67
Chanel 9 Note On - Duracao: 440880 Nota: C1 Vol.: 69
Chanel 8 Note Off - Duracao: 440940 Nota: C1 Vol.: 73
Chanel 8 Note On - Duracao: 440940 Nota: C1 Vol.: 70
Chanel 7 Note Off - Duracao: 441000 Nota: C1 Vol.: 60
Chanel 7 Note On - Duracao: 441000 Nota: C1 Vol.: 54
Chanel 8 Note Off - Duracao: 441060 Nota: C1 Vol.: 70
Chanel 8 Note On - Duracao: 441060 Nota: C1 Vol.: 70
Chanel 4 Note Off - Duracao: 441180 Nota: C1 Vol.: 40
Chanel 4 Note On - Duracao: 441180 Nota: C1 Vol.: 61
Chanel 8 Note Off - Duracao: 441180 Nota: C1 Vol.: 70
Chanel 8 Note On - Duracao: 441180 Nota: C1 Vol.: 70
Chanel 8 Note Off - Duracao: 441300 Nota: C1 Vol.: 70
Chanel 8 Note On - Duracao: 441300 Nota: C1 Vol.: 67
Chanel 9 Note Off - Duracao: 441360 Nota: C1 Vol.: 69
Chanel 9 Note On - Duracao: 441360 Nota: C1 Vol.: 67
Chanel 3 Note Off - Duracao: 441480 Nota: C1 Vol.: 44
Chanel 3 Note On - Duracao: 441480 Nota: C1 Vol.: 64
Chanel 8 Note Off - Duracao: 441540 Nota: C1 Vol.: 67
Chanel 8 Note On - Duracao: 441540 Nota: C1 Vol.: 48
Chanel 4 Note Off - Duracao: 441660 Nota: C1 Vol.: 61
Chanel 4 Note On - Duracao: 441660 Nota: C1 Vol.: 51
Chanel 5 Note Off - Duracao: 441840 Nota: C1 Vol.: 50
Chanel 5 Note On - Duracao: 441840 Nota: C1 Vol.: 56
Chanel 9 Note Off - Duracao: 441840 Nota: C1 Vol.: 67
Chanel 9 Note On - Duracao: 441840 Nota: C1 Vol.: 69
Chanel 7 Note Off - Duracao: 441960 Nota: C1 Vol.: 54
Chanel 7 Note On - Duracao: 441960 Nota: C1 Vol.: 46
Chanel 9 Note Off - Duracao: 442320 Nota: C1 Vol.: 69
Chanel 9 Note On - Duracao: 442320 Nota: C1 Vol.: 73
Chanel 3 Note Off - Duracao: 442440 Nota: C1 Vol.: 64
Chanel 3 Note On - Duracao: 442440 Nota: C1 Vol.: 70
Chanel 8 Note Off - Duracao: 442500 Nota: C1 Vol.: 48
Chanel 8 Note On - Duracao: 442500 Nota: C1 Vol.: 75
Chanel 4 Note Off - Duracao: 442620 Nota: C1 Vol.: 51
Chanel 4 Note On - Duracao: 442620 Nota: C1 Vol.: 61
Chanel 6 Note Off - Duracao: 442620 Nota: C1 Vol.: 68
Chanel 6 Note On - Duracao: 442620 Nota: C1 Vol.: 68
Chanel 8 Note Off - Duracao: 442740 Nota: C1 Vol.: 75
Chanel 8 Note On - Duracao: 442740 Nota: C1 Vol.: 80
Chanel 9 Note Off - Duracao: 442800 Nota: C1 Vol.: 73
Chanel 9 Note On - Duracao: 442800 Nota: C1 Vol.: 77
Chanel 4 Note Off - Duracao: 442860 Nota: C1 Vol.: 61
Chanel 4 Note On - Duracao: 442860 Nota: C1 Vol.: 66
Chanel 7 Note Off - Duracao: 442920 Nota: C1 Vol.: 46
Chanel 7 Note On - Duracao: 442920 Nota: C1 Vol.: 52
Chanel 8 Note Off - Duracao: 442980 Nota: C1 Vol.: 80
Chanel 8 Note On - Duracao: 442980 Nota: C1 Vol.: 83
Chanel 9 Note Off - Duracao: 443040 Nota: C1 Vol.: 77
Chanel 9 Note On - Duracao: 443040 Nota: C1 Vol.: 79
Chanel 4 Note Off - Duracao: 443100 Nota: C1 Vol.: 66
Chanel 4 Note On - Duracao: 443100 Nota: C1 Vol.: 70
Chanel 8 Note Off - Duracao: 443100 Nota: C1 Vol.: 83
Chanel 8 Note On - Duracao: 443100 Nota: C1 Vol.: 67
Chanel 9 Note Off - Duracao: 443280 Nota: C1 Vol.: 79
Chanel 9 Note On - Duracao: 443280 Nota: C1 Vol.: 85
Chanel 4 Note Off - Duracao: 443340 Nota: C1 Vol.: 70
Chanel 4 Note On - Duracao: 443340 Nota: C1 Vol.: 71
Chanel 3 Note Off - Duracao: 443400 Nota: C1 Vol.: 70
Chanel 3 Note On - Duracao: 443400 Nota: C1 Vol.: 69
Chanel 9 Note Off - Duracao: 443520 Nota: C1 Vol.: 85
Chanel 9 Note On - Duracao: 443520 Nota: C1 Vol.: 86
Chanel 4 Note Off - Duracao: 443580 Nota: C1 Vol.: 71
Chanel 4 Note On - Duracao: 443580 Nota: C1 Vol.: 71
Chanel 8 Note Off - Duracao: 443580 Nota: C1 Vol.: 67
Chanel 8 Note On - Duracao: 443580 Nota: C1 Vol.: 76
Chanel 5 Note Off - Duracao: 443760 Nota: C1 Vol.: 56
Chanel 5 Note On - Duracao: 443760 Nota: C1 Vol.: 61
Chanel 9 Note Off - Duracao: 443760 Nota: C1 Vol.: 86
Chanel 9 Note On - Duracao: 443760 Nota: C1 Vol.: 85
Chanel 4 Note Off - Duracao: 443820 Nota: C1 Vol.: 71
Chanel 4 Note On - Duracao: 443820 Nota: C1 Vol.: 66
Chanel 8 Note Off - Duracao: 443820 Nota: C1 Vol.: 76
Chanel 8 Note On - Duracao: 443820 Nota: C1 Vol.: 50
Chanel 2 Note Off - Duracao: 443880 Nota: C1 Vol.: 42
Chanel 2 Note On - Duracao: 443880 Nota: C1 Vol.: 41
Chanel 7 Note Off - Duracao: 443880 Nota: C1 Vol.: 52
Chanel 7 Note On - Duracao: 443880 Nota: C1 Vol.: 54
Chanel 9 Note Off - Duracao: 444000 Nota: C1 Vol.: 85
Chanel 9 Note On - Duracao: 444000 Nota: C1 Vol.: 85
Chanel 9 Note Off - Duracao: 444240 Nota: C1 Vol.: 85
Chanel 9 Note On - Duracao: 444240 Nota: C1 Vol.: 84
Chanel 4 Note Off - Duracao: 444300 Nota: C1 Vol.: 66
Chanel 4 Note On - Duracao: 444300 Nota: C1 Vol.: 73
Chanel 9 Note Off - Duracao: 444480 Nota: C1 Vol.: 84
Chanel 9 Note On - Duracao: 444480 Nota: C1 Vol.: 85
Chanel 4 Note Off - Duracao: 444540 Nota: C1 Vol.: 73
Chanel 4 Note On - Duracao: 444540 Nota: C1 Vol.: 88
Chanel 6 Note Off - Duracao: 444540 Nota: C1 Vol.: 68
Chanel 6 Note On - Duracao: 444540 Nota: C1 Vol.: 67
Chanel 4 Note Off - Duracao: 444660 Nota: C1 Vol.: 88
Chanel 4 Note On - Duracao: 444660 Nota: C1 Vol.: 94
Chanel 4 Note Off - Duracao: 444720 Nota: C1 Vol.: 94
Chanel 4 Note On - Duracao: 444720 Nota: C1 Vol.: 96
Chanel 9 Note Off - Duracao: 444720 Nota: C1 Vol.: 85
Chanel 9 Note On - Duracao: 444720 Nota: C1 Vol.: 84
Chanel 4 Note Off - Duracao: 444780 Nota: C1 Vol.: 96
Chanel 4 Note On - Duracao: 444780 Nota: C1 Vol.: 97
Chanel 8 Note Off - Duracao: 444780 Nota: C1 Vol.: 50
Chanel 8 Note On - Duracao: 444780 Nota: C1 Vol.: 50
Chanel 4 Note Off - Duracao: 444840 Nota: C1 Vol.: 97
Chanel 4 Note On - Duracao: 444840 Nota: C1 Vol.: 96
Chanel 7 Note Off - Duracao: 444840 Nota: C1 Vol.: 54
Chanel 7 Note On - Duracao: 444840 Nota: C1 Vol.: 57
Chanel 4 Note Off - Duracao: 444900 Nota: C1 Vol.: 96
Chanel 4 Note On - Duracao: 444900 Nota: C1 Vol.: 97
Chanel 4 Note Off - Duracao: 444960 Nota: C1 Vol.: 97
Chanel 4 Note On - Duracao: 444960 Nota: C1 Vol.: 98
Chanel 9 Note Off - Duracao: 444960 Nota: C1 Vol.: 84
Chanel 9 Note On - Duracao: 444960 Nota: C1 Vol.: 83
Chanel 4 Note Off - Duracao: 445020 Nota: C1 Vol.: 98
Chanel 4 Note On - Duracao: 445020 Nota: C1 Vol.: 97
Chanel 4 Note Off - Duracao: 445080 Nota: C1 Vol.: 97
Chanel 4 Note On - Duracao: 445080 Nota: C1 Vol.: 97
Chanel 4 Note Off - Duracao: 445140 Nota: C1 Vol.: 97
Chanel 4 Note On - Duracao: 445140 Nota: C1 Vol.: 97
Chanel 4 Note Off - Duracao: 445200 Nota: C1 Vol.: 97
Chanel 4 Note On - Duracao: 445200 Nota: C1 Vol.: 95
Chanel 9 Note Off - Duracao: 445200 Nota: C1 Vol.: 83
Chanel 9 Note On - Duracao: 445200 Nota: C1 Vol.: 83
Chanel 4 Note Off - Duracao: 445260 Nota: C1 Vol.: 95
Chanel 4 Note On - Duracao: 445260 Nota: C1 Vol.: 95
Chanel 3 Note Off - Duracao: 445320 Nota: C1 Vol.: 69
Chanel 3 Note On - Duracao: 445320 Nota: C1 Vol.: 70
Chanel 4 Note Off - Duracao: 445320 Nota: C1 Vol.: 95
Chanel 4 Note On - Duracao: 445320 Nota: C1 Vol.: 93
Chanel 7 Note Off - Duracao: 445320 Nota: C1 Vol.: 57
Chanel 7 Note On - Duracao: 445320 Nota: C1 Vol.: 55
Chanel 4 Note Off - Duracao: 445380 Nota: C1 Vol.: 93
Chanel 4 Note On - Duracao: 445380 Nota: C1 Vol.: 94
Chanel 4 Note Off - Duracao: 445440 Nota: C1 Vol.: 94
Chanel 4 Note On - Duracao: 445440 Nota: C1 Vol.: 87
Chanel 9 Note Off - Duracao: 445440 Nota: C1 Vol.: 83
Chanel 9 Note On - Duracao: 445440 Nota: C1 Vol.: 85
Chanel 4 Note Off - Duracao: 445560 Nota: C1 Vol.: 87
Chanel 4 Note On - Duracao: 445560 Nota: C1 Vol.: 54
Chanel 5 Note Off - Duracao: 445680 Nota: C1 Vol.: 61
Chanel 5 Note On - Duracao: 445680 Nota: C1 Vol.: 57
Chanel 9 Note Off - Duracao: 445680 Nota: C1 Vol.: 85
Chanel 9 Note On - Duracao: 445680 Nota: C1 Vol.: 85
Chanel 8 Note Off - Duracao: 445740 Nota: C1 Vol.: 50
Chanel 8 Note On - Duracao: 445740 Nota: C1 Vol.: 54
Chanel 9 Note Off - Duracao: 445920 Nota: C1 Vol.: 85
Chanel 9 Note On - Duracao: 445920 Nota: C1 Vol.: 81
Chanel 9 Note Off - Duracao: 446160 Nota: C1 Vol.: 81
Chanel 9 Note On - Duracao: 446160 Nota: C1 Vol.: 76
Chanel 3 Note Off - Duracao: 446280 Nota: C1 Vol.: 70
Chanel 3 Note On - Duracao: 446280 Nota: C1 Vol.: 75
Chanel 7 Note Off - Duracao: 446280 Nota: C1 Vol.: 55
Chanel 7 Note On - Duracao: 446280 Nota: C1 Vol.: 52
Chanel 6 Note Off - Duracao: 446460 Nota: C1 Vol.: 67
Chanel 6 Note On - Duracao: 446460 Nota: C1 Vol.: 63
Chanel 4 Note Off - Duracao: 446520 Nota: C1 Vol.: 54
Chanel 4 Note On - Duracao: 446520 Nota: C1 Vol.: 54
Chanel 9 Note Off - Duracao: 446640 Nota: C1 Vol.: 76
Chanel 9 Note On - Duracao: 446640 Nota: C1 Vol.: 75
Chanel 8 Note Off - Duracao: 446700 Nota: C1 Vol.: 54
Chanel 8 Note On - Duracao: 446700 Nota: C1 Vol.: 59
Chanel 9 Note Off - Duracao: 447120 Nota: C1 Vol.: 75
Chanel 9 Note On - Duracao: 447120 Nota: C1 Vol.: 72
Chanel 8 Note Off - Duracao: 447180 Nota: C1 Vol.: 59
Chanel 8 Note On - Duracao: 447180 Nota: C1 Vol.: 60
Chanel 3 Note Off - Duracao: 447240 Nota: C1 Vol.: 75
Chanel 3 Note On - Duracao: 447240 Nota: C1 Vol.: 75
Chanel 7 Note Off - Duracao: 447240 Nota: C1 Vol.: 52
Chanel 7 Note On - Duracao: 447240 Nota: C1 Vol.: 59
Chanel 4 Note Off - Duracao: 447480 Nota: C1 Vol.: 54
Chanel 4 Note On - Duracao: 447480 Nota: C1 Vol.: 88
Chanel 4 Note Off - Duracao: 447600 Nota: C1 Vol.: 88
Chanel 4 Note On - Duracao: 447600 Nota: C1 Vol.: 92
Chanel 9 Note Off - Duracao: 447600 Nota: C1 Vol.: 72
Chanel 9 Note On - Duracao: 447600 Nota: C1 Vol.: 65
Chanel 8 Note Off - Duracao: 447660 Nota: C1 Vol.: 60
Chanel 8 Note On - Duracao: 447660 Nota: C1 Vol.: 59
Chanel 2 Note Off - Duracao: 447720 Nota: C1 Vol.: 41
Chanel 2 Note On - Duracao: 447720 Nota: C1 Vol.: 42
Chanel 4 Note Off - Duracao: 447720 Nota: C1 Vol.: 92
Chanel 4 Note On - Duracao: 447720 Nota: C1 Vol.: 96
Chanel 4 Note Off - Duracao: 447840 Nota: C1 Vol.: 96
Chanel 4 Note On - Duracao: 447840 Nota: C1 Vol.: 100
Chanel 4 Note Off - Duracao: 447900 Nota: C1 Vol.: 100
Chanel 4 Note On - Duracao: 447900 Nota: C1 Vol.: 100
Chanel 4 Note Off - Duracao: 447960 Nota: C1 Vol.: 100
Chanel 4 Note On - Duracao: 447960 Nota: C1 Vol.: 99
Chanel 4 Note Off - Duracao: 448020 Nota: C1 Vol.: 99
Chanel 4 Note On - Duracao: 448020 Nota: C1 Vol.: 100
Chanel 4 Note Off - Duracao: 448080 Nota: C1 Vol.: 100
Chanel 4 Note On - Duracao: 448080 Nota: C1 Vol.: 99
Chanel 9 Note Off - Duracao: 448080 Nota: C1 Vol.: 65
Chanel 9 Note On - Duracao: 448080 Nota: C1 Vol.: 62
Chanel 4 Note Off - Duracao: 448140 Nota: C1 Vol.: 99
Chanel 4 Note On - Duracao: 448140 Nota: C1 Vol.: 98
Chanel 8 Note Off - Duracao: 448140 Nota: C1 Vol.: 59
Chanel 8 Note On - Duracao: 448140 Nota: C1 Vol.: 59
Chanel 3 Note Off - Duracao: 448200 Nota: C1 Vol.: 75
Chanel 3 Note On - Duracao: 448200 Nota: C1 Vol.: 74
Chanel 4 Note Off - Duracao: 448200 Nota: C1 Vol.: 98
Chanel 4 Note On - Duracao: 448200 Nota: C1 Vol.: 96
Chanel 7 Note Off - Duracao: 448200 Nota: C1 Vol.: 59
Chanel 7 Note On - Duracao: 448200 Nota: C1 Vol.: 58
Chanel 4 Note Off - Duracao: 448260 Nota: C1 Vol.: 96
Chanel 4 Note On - Duracao: 448260 Nota: C1 Vol.: 96
Chanel 4 Note Off - Duracao: 448320 Nota: C1 Vol.: 96
Chanel 4 Note On - Duracao: 448320 Nota: C1 Vol.: 53
Chanel 6 Note Off - Duracao: 448380 Nota: C1 Vol.: 63
Chanel 6 Note On - Duracao: 448380 Nota: C1 Vol.: 51
Chanel 8 Note Off - Duracao: 448620 Nota: C1 Vol.: 59
Chanel 8 Note On - Duracao: 448620 Nota: C1 Vol.: 58
Chanel 9 Note Off - Duracao: 449040 Nota: C1 Vol.: 62
Chanel 9 Note On - Duracao: 449040 Nota: C1 Vol.: 61
Chanel 8 Note Off - Duracao: 449100 Nota: C1 Vol.: 58
Chanel 8 Note On - Duracao: 449100 Nota: C1 Vol.: 61
Chanel 3 Note Off - Duracao: 449160 Nota: C1 Vol.: 74
Chanel 3 Note On - Duracao: 449160 Nota: C1 Vol.: 75
Chanel 7 Note Off - Duracao: 449160 Nota: C1 Vol.: 58
Chanel 7 Note On - Duracao: 449160 Nota: C1 Vol.: 60
Chanel 5 Note Off - Duracao: 449520 Nota: C1 Vol.: 57
Chanel 5 Note On - Duracao: 449520 Nota: C1 Vol.: 61
Chanel 8 Note Off - Duracao: 449580 Nota: C1 Vol.: 61
Chanel 8 Note On - Duracao: 449580 Nota: C1 Vol.: 56
Chanel 7 Note Off - Duracao: 449640 Nota: C1 Vol.: 60
Chanel 7 Note On - Duracao: 449640 Nota: C1 Vol.: 61
Chanel 9 Note Off - Duracao: 450000 Nota: C1 Vol.: 61
Chanel 9 Note On - Duracao: 450000 Nota: C1 Vol.: 66
Chanel 8 Note Off - Duracao: 450060 Nota: C1 Vol.: 56
Chanel 8 Note On - Duracao: 450060 Nota: C1 Vol.: 52
Chanel 3 Note Off - Duracao: 450120 Nota: C1 Vol.: 75
Chanel 3 Note On - Duracao: 450120 Nota: C1 Vol.: 73
Chanel 7 Note Off - Duracao: 450120 Nota: C1 Vol.: 61
Chanel 7 Note On - Duracao: 450120 Nota: C1 Vol.: 64
Chanel 4 Note Off - Duracao: 450240 Nota: C1 Vol.: 53
Chanel 4 Note On - Duracao: 450240 Nota: C1 Vol.: 67
Chanel 9 Note Off - Duracao: 450480 Nota: C1 Vol.: 66
Chanel 9 Note On - Duracao: 450480 Nota: C1 Vol.: 63
Chanel 8 Note Off - Duracao: 450540 Nota: C1 Vol.: 52
Chanel 8 Note On - Duracao: 450540 Nota: C1 Vol.: 62
Chanel 7 Note Off - Duracao: 450600 Nota: C1 Vol.: 64
Chanel 7 Note On - Duracao: 450600 Nota: C1 Vol.: 70
Chanel 8 Note Off - Duracao: 450660 Nota: C1 Vol.: 62
Chanel 8 Note On - Duracao: 450660 Nota: C1 Vol.: 60
Chanel 4 Note Off - Duracao: 450720 Nota: C1 Vol.: 67
Chanel 4 Note On - Duracao: 450720 Nota: C1 Vol.: 91
Chanel 8 Note Off - Duracao: 450780 Nota: C1 Vol.: 60
Chanel 8 Note On - Duracao: 450780 Nota: C1 Vol.: 59
Chanel 4 Note Off - Duracao: 450840 Nota: C1 Vol.: 91
Chanel 4 Note On - Duracao: 450840 Nota: C1 Vol.: 92
Chanel 4 Note Off - Duracao: 450900 Nota: C1 Vol.: 92
Chanel 4 Note On - Duracao: 450900 Nota: C1 Vol.: 72
Chanel 8 Note Off - Duracao: 450900 Nota: C1 Vol.: 59
Chanel 8 Note On - Duracao: 450900 Nota: C1 Vol.: 56
Chanel 9 Note Off - Duracao: 450960 Nota: C1 Vol.: 63
Chanel 9 Note On - Duracao: 450960 Nota: C1 Vol.: 53
Chanel 3 Note Off - Duracao: 451080 Nota: C1 Vol.: 73
Chanel 3 Note On - Duracao: 451080 Nota: C1 Vol.: 76
Chanel 7 Note Off - Duracao: 451080 Nota: C1 Vol.: 70
Chanel 7 Note On - Duracao: 451080 Nota: C1 Vol.: 66
Chanel 4 Note Off - Duracao: 451140 Nota: C1 Vol.: 72
Chanel 4 Note On - Duracao: 451140 Nota: C1 Vol.: 66
Chanel 8 Note Off - Duracao: 451140 Nota: C1 Vol.: 56
Chanel 8 Note On - Duracao: 451140 Nota: C1 Vol.: 50
Chanel 8 Note Off - Duracao: 451380 Nota: C1 Vol.: 50
Chanel 8 Note On - Duracao: 451380 Nota: C1 Vol.: 51
Chanel 2 Note Off - Duracao: 451560 Nota: C1 Vol.: 42
Chanel 2 Note On - Duracao: 451560 Nota: C1 Vol.: 44
Chanel 7 Note Off - Duracao: 451560 Nota: C1 Vol.: 66
Chanel 7 Note On - Duracao: 451560 Nota: C1 Vol.: 50
Chanel 4 Note Off - Duracao: 451620 Nota: C1 Vol.: 66
Chanel 4 Note On - Duracao: 451620 Nota: C1 Vol.: 44
Chanel 8 Note Off - Duracao: 451620 Nota: C1 Vol.: 51
Chanel 8 Note On - Duracao: 451620 Nota: C1 Vol.: 55
Chanel 8 Note Off - Duracao: 451740 Nota: C1 Vol.: 55
Chanel 8 Note On - Duracao: 451740 Nota: C1 Vol.: 54
Chanel 8 Note Off - Duracao: 451860 Nota: C1 Vol.: 54
Chanel 8 Note On - Duracao: 451860 Nota: C1 Vol.: 57
Chanel 9 Note Off - Duracao: 451920 Nota: C1 Vol.: 53
Chanel 9 Note On - Duracao: 451920 Nota: C1 Vol.: 53
Chanel 8 Note Off - Duracao: 451980 Nota: C1 Vol.: 57
Chanel 8 Note On - Duracao: 451980 Nota: C1 Vol.: 55
Chanel 3 Note Off - Duracao: 452040 Nota: C1 Vol.: 76
Chanel 3 Note On - Duracao: 452040 Nota: C1 Vol.: 77
Chanel 8 Note Off - Duracao: 452100 Nota: C1 Vol.: 55
Chanel 8 Note On - Duracao: 452100 Nota: C1 Vol.: 53
Chanel 6 Note Off - Duracao: 452220 Nota: C1 Vol.: 51
Chanel 6 Note On - Duracao: 452220 Nota: C1 Vol.: 58
Chanel 8 Note Off - Duracao: 452340 Nota: C1 Vol.: 53
Chanel 8 Note On - Duracao: 452340 Nota: C1 Vol.: 53
Chanel 8 Note Off - Duracao: 452580 Nota: C1 Vol.: 53
Chanel 8 Note On - Duracao: 452580 Nota: C1 Vol.: 50
Chanel 9 Note Off - Duracao: 452880 Nota: C1 Vol.: 53
Chanel 9 Note On - Duracao: 452880 Nota: C1 Vol.: 56
Chanel 3 Note Off - Duracao: 453000 Nota: C1 Vol.: 77
Chanel 3 Note On - Duracao: 453000 Nota: C1 Vol.: 75
Chanel 8 Note Off - Duracao: 453060 Nota: C1 Vol.: 50
Chanel 8 Note On - Duracao: 453060 Nota: C1 Vol.: 51
Chanel 5 Note Off - Duracao: 453360 Nota: C1 Vol.: 61
Chanel 5 Note On - Duracao: 453360 Nota: C1 Vol.: 59
Chanel 9 Note Off - Duracao: 453360 Nota: C1 Vol.: 56
Chanel 9 Note On - Duracao: 453360 Nota: C1 Vol.: 56
Chanel 2 Note Off - Duracao: 453480 Nota: C1 Vol.: 44
Chanel 2 Note On - Duracao: 453480 Nota: C1 Vol.: 42
Chanel 7 Note Off - Duracao: 453480 Nota: C1 Vol.: 50
Chanel 7 Note On - Duracao: 453480 Nota: C1 Vol.: 52
Chanel 4 Note Off - Duracao: 453540 Nota: C1 Vol.: 44
Chanel 4 Note On - Duracao: 453540 Nota: C1 Vol.: 81
Chanel 8 Note Off - Duracao: 453540 Nota: C1 Vol.: 51
Chanel 8 Note On - Duracao: 453540 Nota: C1 Vol.: 44
Chanel 4 Note Off - Duracao: 453780 Nota: C1 Vol.: 81
Chanel 4 Note On - Duracao: 453780 Nota: C1 Vol.: 87
Chanel 9 Note Off - Duracao: 453840 Nota: C1 Vol.: 56
Chanel 9 Note On - Duracao: 453840 Nota: C1 Vol.: 58
Chanel 4 Note Off - Duracao: 453900 Nota: C1 Vol.: 87
Chanel 4 Note On - Duracao: 453900 Nota: C1 Vol.: 97
Chanel 3 Note Off - Duracao: 453960 Nota: C1 Vol.: 75
Chanel 3 Note On - Duracao: 453960 Nota: C1 Vol.: 75
Chanel 4 Note Off - Duracao: 453960 Nota: C1 Vol.: 97
Chanel 4 Note On - Duracao: 453960 Nota: C1 Vol.: 99
Chanel 4 Note Off - Duracao: 454020 Nota: C1 Vol.: 99
Chanel 4 Note On - Duracao: 454020 Nota: C1 Vol.: 99
Chanel 8 Note Off - Duracao: 454020 Nota: C1 Vol.: 44
Chanel 8 Note On - Duracao: 454020 Nota: C1 Vol.: 43
Chanel 4 Note Off - Duracao: 454080 Nota: C1 Vol.: 99
Chanel 4 Note On - Duracao: 454080 Nota: C1 Vol.: 100
Chanel 4 Note Off - Duracao: 454140 Nota: C1 Vol.: 100
Chanel 4 Note On - Duracao: 454140 Nota: C1 Vol.: 98
Chanel 6 Note Off - Duracao: 454140 Nota: C1 Vol.: 58
Chanel 6 Note On - Duracao: 454140 Nota: C1 Vol.: 86
Chanel 4 Note Off - Duracao: 454200 Nota: C1 Vol.: 98
Chanel 4 Note On - Duracao: 454200 Nota: C1 Vol.: 98
Chanel 4 Note Off - Duracao: 454260 Nota: C1 Vol.: 98
Chanel 4 Note On - Duracao: 454260 Nota: C1 Vol.: 72
Chanel 9 Note Off - Duracao: 454320 Nota: C1 Vol.: 58
Chanel 9 Note On - Duracao: 454320 Nota: C1 Vol.: 57
Chanel 6 Note Off - Duracao: 454380 Nota: C1 Vol.: 86
Chanel 6 Note On - Duracao: 454380 Nota: C1 Vol.: 88
Chanel 3 Note Off - Duracao: 454440 Nota: C1 Vol.: 75
Chanel 3 Note On - Duracao: 454440 Nota: C1 Vol.: 73
Chanel 6 Note Off - Duracao: 454500 Nota: C1 Vol.: 88
Chanel 6 Note On - Duracao: 454500 Nota: C1 Vol.: 89
Chanel 8 Note Off - Duracao: 454500 Nota: C1 Vol.: 43
Chanel 8 Note On - Duracao: 454500 Nota: C1 Vol.: 48
Chanel 6 Note Off - Duracao: 454620 Nota: C1 Vol.: 89
Chanel 6 Note On - Duracao: 454620 Nota: C1 Vol.: 91
Chanel 4 Note Off - Duracao: 454740 Nota: C1 Vol.: 72
Chanel 4 Note On - Duracao: 454740 Nota: C1 Vol.: 61
Chanel 6 Note Off - Duracao: 454740 Nota: C1 Vol.: 91
Chanel 6 Note On - Duracao: 454740 Nota: C1 Vol.: 90
Chanel 8 Note Off - Duracao: 454740 Nota: C1 Vol.: 48
Chanel 8 Note On - Duracao: 454740 Nota: C1 Vol.: 55
Chanel 9 Note Off - Duracao: 454800 Nota: C1 Vol.: 57
Chanel 9 Note On - Duracao: 454800 Nota: C1 Vol.: 52
Chanel 6 Note Off - Duracao: 454860 Nota: C1 Vol.: 90
Chanel 6 Note On - Duracao: 454860 Nota: C1 Vol.: 90
Chanel 8 Note Off - Duracao: 454860 Nota: C1 Vol.: 55
Chanel 8 Note On - Duracao: 454860 Nota: C1 Vol.: 55
Chanel 3 Note Off - Duracao: 454920 Nota: C1 Vol.: 73
Chanel 3 Note On - Duracao: 454920 Nota: C1 Vol.: 56
Chanel 6 Note Off - Duracao: 454980 Nota: C1 Vol.: 90
Chanel 6 Note On - Duracao: 454980 Nota: C1 Vol.: 90
Chanel 8 Note Off - Duracao: 454980 Nota: C1 Vol.: 55
Chanel 8 Note On - Duracao: 454980 Nota: C1 Vol.: 53
Chanel 6 Note Off - Duracao: 455100 Nota: C1 Vol.: 90
Chanel 6 Note On - Duracao: 455100 Nota: C1 Vol.: 88
Chanel 8 Note Off - Duracao: 455100 Nota: C1 Vol.: 53
Chanel 8 Note On - Duracao: 455100 Nota: C1 Vol.: 52
Chanel 6 Note Off - Duracao: 455220 Nota: C1 Vol.: 88
Chanel 6 Note On - Duracao: 455220 Nota: C1 Vol.: 89
Chanel 8 Note Off - Duracao: 455220 Nota: C1 Vol.: 52
Chanel 8 Note On - Duracao: 455220 Nota: C1 Vol.: 53
Chanel 9 Note Off - Duracao: 455280 Nota: C1 Vol.: 52
Chanel 9 Note On - Duracao: 455280 Nota: C1 Vol.: 56
Chanel 6 Note Off - Duracao: 455340 Nota: C1 Vol.: 89
Chanel 6 Note On - Duracao: 455340 Nota: C1 Vol.: 88
Chanel 8 Note Off - Duracao: 455340 Nota: C1 Vol.: 53
Chanel 8 Note On - Duracao: 455340 Nota: C1 Vol.: 45
Chanel 7 Note Off - Duracao: 455400 Nota: C1 Vol.: 52
Chanel 7 Note On - Duracao: 455400 Nota: C1 Vol.: 49
Chanel 6 Note Off - Duracao: 455460 Nota: C1 Vol.: 88
Chanel 6 Note On - Duracao: 455460 Nota: C1 Vol.: 83
Chanel 8 Note Off - Duracao: 455580 Nota: C1 Vol.: 45
Chanel 8 Note On - Duracao: 455580 Nota: C1 Vol.: 53
Chanel 4 Note Off - Duracao: 455700 Nota: C1 Vol.: 61
Chanel 4 Note On - Duracao: 455700 Nota: C1 Vol.: 78
Chanel 6 Note Off - Duracao: 455700 Nota: C1 Vol.: 83
Chanel 6 Note On - Duracao: 455700 Nota: C1 Vol.: 57
Chanel 8 Note Off - Duracao: 455700 Nota: C1 Vol.: 53
Chanel 8 Note On - Duracao: 455700 Nota: C1 Vol.: 46
Chanel 9 Note Off - Duracao: 455760 Nota: C1 Vol.: 56
Chanel 9 Note On - Duracao: 455760 Nota: C1 Vol.: 57
Chanel 4 Note Off - Duracao: 455940 Nota: C1 Vol.: 78
Chanel 4 Note On - Duracao: 455940 Nota: C1 Vol.: 97
Chanel 8 Note Off - Duracao: 455940 Nota: C1 Vol.: 46
Chanel 8 Note On - Duracao: 455940 Nota: C1 Vol.: 55
Chanel 4 Note Off - Duracao: 456000 Nota: C1 Vol.: 97
Chanel 4 Note On - Duracao: 456000 Nota: C1 Vol.: 95
Chanel 9 Note Off - Duracao: 456000 Nota: C1 Vol.: 57
Chanel 9 Note On - Duracao: 456000 Nota: C1 Vol.: 56
Chanel 4 Note Off - Duracao: 456120 Nota: C1 Vol.: 95
Chanel 4 Note On - Duracao: 456120 Nota: C1 Vol.: 100
Chanel 4 Note Off - Duracao: 456180 Nota: C1 Vol.: 100
Chanel 4 Note On - Duracao: 456180 Nota: C1 Vol.: 98
Chanel 8 Note Off - Duracao: 456180 Nota: C1 Vol.: 55
Chanel 8 Note On - Duracao: 456180 Nota: C1 Vol.: 55
Chanel 4 Note Off - Duracao: 456240 Nota: C1 Vol.: 98
Chanel 4 Note On - Duracao: 456240 Nota: C1 Vol.: 98
Chanel 4 Note Off - Duracao: 456300 Nota: C1 Vol.: 98
Chanel 4 Note On - Duracao: 456300 Nota: C1 Vol.: 94
Chanel 4 Note Off - Duracao: 456420 Nota: C1 Vol.: 94
Chanel 4 Note On - Duracao: 456420 Nota: C1 Vol.: 93
Chanel 8 Note Off - Duracao: 456420 Nota: C1 Vol.: 55
Chanel 8 Note On - Duracao: 456420 Nota: C1 Vol.: 53
Chanel 9 Note Off - Duracao: 456480 Nota: C1 Vol.: 56
Chanel 9 Note On - Duracao: 456480 Nota: C1 Vol.: 54
Chanel 4 Note Off - Duracao: 456540 Nota: C1 Vol.: 93
Chanel 4 Note On - Duracao: 456540 Nota: C1 Vol.: 95
Chanel 4 Note Off - Duracao: 456660 Nota: C1 Vol.: 95
Chanel 4 Note On - Duracao: 456660 Nota: C1 Vol.: 99
Chanel 6 Note Off - Duracao: 456660 Nota: C1 Vol.: 57
Chanel 6 Note On - Duracao: 456660 Nota: C1 Vol.: 100
Chanel 8 Note Off - Duracao: 456660 Nota: C1 Vol.: 53
Chanel 8 Note On - Duracao: 456660 Nota: C1 Vol.: 47
Chanel 4 Note Off - Duracao: 456720 Nota: C1 Vol.: 99
Chanel 4 Note On - Duracao: 456720 Nota: C1 Vol.: 97
Chanel 6 Note Off - Duracao: 456720 Nota: C1 Vol.: 100
Chanel 6 Note On - Duracao: 456720 Nota: C1 Vol.: 98
Chanel 6 Note Off - Duracao: 456780 Nota: C1 Vol.: 98
Chanel 6 Note On - Duracao: 456780 Nota: C1 Vol.: 87
Chanel 3 Note Off - Duracao: 456840 Nota: C1 Vol.: 56
Chanel 3 Note On - Duracao: 456840 Nota: C1 Vol.: 40
Chanel 4 Note Off - Duracao: 456840 Nota: C1 Vol.: 97
Chanel 4 Note On - Duracao: 456840 Nota: C1 Vol.: 87
Chanel 6 Note Off - Duracao: 456900 Nota: C1 Vol.: 87
Chanel 6 Note On - Duracao: 456900 Nota: C1 Vol.: 89
Chanel 4 Note Off - Duracao: 456960 Nota: C1 Vol.: 87
Chanel 4 Note On - Duracao: 456960 Nota: C1 Vol.: 68
Chanel 9 Note Off - Duracao: 456960 Nota: C1 Vol.: 54
Chanel 9 Note On - Duracao: 456960 Nota: C1 Vol.: 58
Chanel 6 Note Off - Duracao: 457020 Nota: C1 Vol.: 89
Chanel 6 Note On - Duracao: 457020 Nota: C1 Vol.: 92
Chanel 6 Note Off - Duracao: 457140 Nota: C1 Vol.: 92
Chanel 6 Note On - Duracao: 457140 Nota: C1 Vol.: 64
Chanel 8 Note Off - Duracao: 457140 Nota: C1 Vol.: 47
Chanel 8 Note On - Duracao: 457140 Nota: C1 Vol.: 55
Chanel 5 Note Off - Duracao: 457200 Nota: C1 Vol.: 59
Chanel 5 Note On - Duracao: 457200 Nota: C1 Vol.: 59
Chanel 2 Note Off - Duracao: 457320 Nota: C1 Vol.: 42
Chanel 2 Note On - Duracao: 457320 Nota: C1 Vol.: 44
Chanel 7 Note Off - Duracao: 457320 Nota: C1 Vol.: 49
Chanel 7 Note On - Duracao: 457320 Nota: C1 Vol.: 50
Chanel 8 Note Off - Duracao: 457380 Nota: C1 Vol.: 55
Chanel 8 Note On - Duracao: 457380 Nota: C1 Vol.: 54
Chanel 4 Note Off - Duracao: 457440 Nota: C1 Vol.: 68
Chanel 4 Note On - Duracao: 457440 Nota: C1 Vol.: 68
Chanel 9 Note Off - Duracao: 457440 Nota: C1 Vol.: 58
Chanel 9 Note On - Duracao: 457440 Nota: C1 Vol.: 58
Chanel 8 Note Off - Duracao: 457500 Nota: C1 Vol.: 54
Chanel 8 Note On - Duracao: 457500 Nota: C1 Vol.: 46
Chanel 6 Note Off - Duracao: 457620 Nota: C1 Vol.: 64
Chanel 6 Note On - Duracao: 457620 Nota: C1 Vol.: 69
Chanel 4 Note Off - Duracao: 457680 Nota: C1 Vol.: 68
Chanel 4 Note On - Duracao: 457680 Nota: C1 Vol.: 51
Chanel 8 Note Off - Duracao: 457740 Nota: C1 Vol.: 46
Chanel 8 Note On - Duracao: 457740 Nota: C1 Vol.: 47
Chanel 9 Note Off - Duracao: 457920 Nota: C1 Vol.: 58
Chanel 9 Note On - Duracao: 457920 Nota: C1 Vol.: 56
Chanel 8 Note Off - Duracao: 457980 Nota: C1 Vol.: 47
Chanel 8 Note On - Duracao: 457980 Nota: C1 Vol.: 50
Chanel 6 Note Off - Duracao: 458100 Nota: C1 Vol.: 69
Chanel 6 Note On - Duracao: 458100 Nota: C1 Vol.: 68
Chanel 8 Note Off - Duracao: 458220 Nota: C1 Vol.: 50
Chanel 8 Note On - Duracao: 458220 Nota: C1 Vol.: 48
Chanel 9 Note Off - Duracao: 458400 Nota: C1 Vol.: 56
Chanel 9 Note On - Duracao: 458400 Nota: C1 Vol.: 55
Chanel 8 Note Off - Duracao: 458460 Nota: C1 Vol.: 48
Chanel 8 Note On - Duracao: 458460 Nota: C1 Vol.: 47
Chanel 6 Note Off - Duracao: 458580 Nota: C1 Vol.: 68
Chanel 6 Note On - Duracao: 458580 Nota: C1 Vol.: 70
Chanel 4 Note Off - Duracao: 458640 Nota: C1 Vol.: 51
Chanel 4 Note On - Duracao: 458640 Nota: C1 Vol.: 53
Chanel 8 Note Off - Duracao: 458700 Nota: C1 Vol.: 47
Chanel 8 Note On - Duracao: 458700 Nota: C1 Vol.: 59
Chanel 8 Note Off - Duracao: 458820 Nota: C1 Vol.: 59
Chanel 8 Note On - Duracao: 458820 Nota: C1 Vol.: 59
Chanel 9 Note Off - Duracao: 458880 Nota: C1 Vol.: 55
Chanel 9 Note On - Duracao: 458880 Nota: C1 Vol.: 57
Chanel 8 Note Off - Duracao: 458940 Nota: C1 Vol.: 59
Chanel 8 Note On - Duracao: 458940 Nota: C1 Vol.: 50
Chanel 6 Note Off - Duracao: 459060 Nota: C1 Vol.: 70
Chanel 6 Note On - Duracao: 459060 Nota: C1 Vol.: 92
Chanel 6 Note Off - Duracao: 459120 Nota: C1 Vol.: 92
Chanel 6 Note On - Duracao: 459120 Nota: C1 Vol.: 73
Chanel 8 Note Off - Duracao: 459180 Nota: C1 Vol.: 50
Chanel 8 Note On - Duracao: 459180 Nota: C1 Vol.: 51
Chanel 7 Note Off - Duracao: 459240 Nota: C1 Vol.: 50
Chanel 7 Note On - Duracao: 459240 Nota: C1 Vol.: 54
Chanel 6 Note Off - Duracao: 459360 Nota: C1 Vol.: 73
Chanel 6 Note On - Duracao: 459360 Nota: C1 Vol.: 67
Chanel 9 Note Off - Duracao: 459360 Nota: C1 Vol.: 57
Chanel 9 Note On - Duracao: 459360 Nota: C1 Vol.: 68
Chanel 8 Note Off - Duracao: 459420 Nota: C1 Vol.: 51
Chanel 8 Note On - Duracao: 459420 Nota: C1 Vol.: 49
Chanel 4 Note Off - Duracao: 459600 Nota: C1 Vol.: 53
Chanel 4 Note On - Duracao: 459600 Nota: C1 Vol.: 52
Chanel 9 Note Off - Duracao: 459600 Nota: C1 Vol.: 68
Chanel 9 Note On - Duracao: 459600 Nota: C1 Vol.: 79
Chanel 8 Note Off - Duracao: 459660 Nota: C1 Vol.: 49
Chanel 8 Note On - Duracao: 459660 Nota: C1 Vol.: 49
Chanel 9 Note Off - Duracao: 459720 Nota: C1 Vol.: 79
Chanel 9 Note On - Duracao: 459720 Nota: C1 Vol.: 77
Chanel 6 Note Off - Duracao: 459840 Nota: C1 Vol.: 67
Chanel 6 Note On - Duracao: 459840 Nota: C1 Vol.: 87
Chanel 8 Note Off - Duracao: 459900 Nota: C1 Vol.: 49
Chanel 8 Note On - Duracao: 459900 Nota: C1 Vol.: 45
Chanel 6 Note Off - Duracao: 459960 Nota: C1 Vol.: 87
Chanel 6 Note On - Duracao: 459960 Nota: C1 Vol.: 79
Chanel 9 Note Off - Duracao: 459960 Nota: C1 Vol.: 77
Chanel 9 Note On - Duracao: 459960 Nota: C1 Vol.: 84
Chanel 6 Note Off - Duracao: 460080 Nota: C1 Vol.: 79
Chanel 6 Note On - Duracao: 460080 Nota: C1 Vol.: 84
Chanel 9 Note Off - Duracao: 460080 Nota: C1 Vol.: 84
Chanel 9 Note On - Duracao: 460080 Nota: C1 Vol.: 87
Chanel 8 Note Off - Duracao: 460140 Nota: C1 Vol.: 45
Chanel 8 Note On - Duracao: 460140 Nota: C1 Vol.: 57
Chanel 6 Note Off - Duracao: 460200 Nota: C1 Vol.: 84
Chanel 6 Note On - Duracao: 460200 Nota: C1 Vol.: 67
Chanel 9 Note Off - Duracao: 460200 Nota: C1 Vol.: 87
Chanel 9 Note On - Duracao: 460200 Nota: C1 Vol.: 86
Chanel 8 Note Off - Duracao: 460260 Nota: C1 Vol.: 57
Chanel 8 Note On - Duracao: 460260 Nota: C1 Vol.: 62
Chanel 8 Note Off - Duracao: 460380 Nota: C1 Vol.: 62
Chanel 8 Note On - Duracao: 460380 Nota: C1 Vol.: 59
Chanel 6 Note Off - Duracao: 460440 Nota: C1 Vol.: 67
Chanel 6 Note On - Duracao: 460440 Nota: C1 Vol.: 60
Chanel 9 Note Off - Duracao: 460440 Nota: C1 Vol.: 86
Chanel 9 Note On - Duracao: 460440 Nota: C1 Vol.: 80
Chanel 4 Note Off - Duracao: 460560 Nota: C1 Vol.: 52
Chanel 4 Note On - Duracao: 460560 Nota: C1 Vol.: 49
Chanel 8 Note Off - Duracao: 460620 Nota: C1 Vol.: 59
Chanel 8 Note On - Duracao: 460620 Nota: C1 Vol.: 58
Chanel 3 Note Off - Duracao: 460680 Nota: C1 Vol.: 40
Chanel 3 Note On - Duracao: 460680 Nota: C1 Vol.: 40
Chanel 6 Note Off - Duracao: 460680 Nota: C1 Vol.: 60
Chanel 6 Note On - Duracao: 460680 Nota: C1 Vol.: 57
Chanel 9 Note Off - Duracao: 460680 Nota: C1 Vol.: 80
Chanel 9 Note On - Duracao: 460680 Nota: C1 Vol.: 76
Chanel 8 Note Off - Duracao: 460860 Nota: C1 Vol.: 58
Chanel 8 Note On - Duracao: 460860 Nota: C1 Vol.: 68
Chanel 6 Note Off - Duracao: 460920 Nota: C1 Vol.: 57
Chanel 6 Note On - Duracao: 460920 Nota: C1 Vol.: 66
Chanel 8 Note Off - Duracao: 460980 Nota: C1 Vol.: 68
Chanel 8 Note On - Duracao: 460980 Nota: C1 Vol.: 65
Chanel 5 Note Off - Duracao: 461040 Nota: C1 Vol.: 59
Chanel 5 Note On - Duracao: 461040 Nota: C1 Vol.: 55
Chanel 6 Note Off - Duracao: 461040 Nota: C1 Vol.: 66
Chanel 6 Note On - Duracao: 461040 Nota: C1 Vol.: 51
Chanel 2 Note Off - Duracao: 461160 Nota: C1 Vol.: 44
Chanel 2 Note On - Duracao: 461160 Nota: C1 Vol.: 42
Chanel 7 Note Off - Duracao: 461160 Nota: C1 Vol.: 54
Chanel 7 Note On - Duracao: 461160 Nota: C1 Vol.: 54
Chanel 9 Note Off - Duracao: 461160 Nota: C1 Vol.: 76
Chanel 9 Note On - Duracao: 461160 Nota: C1 Vol.: 74
Chanel 8 Note Off - Duracao: 461220 Nota: C1 Vol.: 65
Chanel 8 Note On - Duracao: 461220 Nota: C1 Vol.: 68
Chanel 8 Note Off - Duracao: 461340 Nota: C1 Vol.: 68
Chanel 8 Note On - Duracao: 461340 Nota: C1 Vol.: 67
Chanel 8 Note Off - Duracao: 461460 Nota: C1 Vol.: 67
Chanel 8 Note On - Duracao: 461460 Nota: C1 Vol.: 63
Chanel 4 Note Off - Duracao: 461520 Nota: C1 Vol.: 49
Chanel 4 Note On - Duracao: 461520 Nota: C1 Vol.: 52
Chanel 6 Note Off - Duracao: 461520 Nota: C1 Vol.: 51
Chanel 6 Note On - Duracao: 461520 Nota: C1 Vol.: 62
Chanel 9 Note Off - Duracao: 461640 Nota: C1 Vol.: 74
Chanel 9 Note On - Duracao: 461640 Nota: C1 Vol.: 72
Chanel 8 Note Off - Duracao: 461700 Nota: C1 Vol.: 63
Chanel 8 Note On - Duracao: 461700 Nota: C1 Vol.: 64
Chanel 6 Note Off - Duracao: 461760 Nota: C1 Vol.: 62
Chanel 6 Note On - Duracao: 461760 Nota: C1 Vol.: 67
Chanel 6 Note Off - Duracao: 461880 Nota: C1 Vol.: 67
Chanel 6 Note On - Duracao: 461880 Nota: C1 Vol.: 71
Chanel 8 Note Off - Duracao: 461940 Nota: C1 Vol.: 64
Chanel 8 Note On - Duracao: 461940 Nota: C1 Vol.: 60
Chanel 6 Note Off - Duracao: 462000 Nota: C1 Vol.: 71
Chanel 6 Note On - Duracao: 462000 Nota: C1 Vol.: 71
Chanel 6 Note Off - Duracao: 462120 Nota: C1 Vol.: 71
Chanel 6 Note On - Duracao: 462120 Nota: C1 Vol.: 56
Chanel 9 Note Off - Duracao: 462120 Nota: C1 Vol.: 72
Chanel 9 Note On - Duracao: 462120 Nota: C1 Vol.: 63
Chanel 8 Note Off - Duracao: 462180 Nota: C1 Vol.: 60
Chanel 8 Note On - Duracao: 462180 Nota: C1 Vol.: 54
Chanel 4 Note Off - Duracao: 462480 Nota: C1 Vol.: 52
Chanel 4 Note On - Duracao: 462480 Nota: C1 Vol.: 61
Chanel 6 Note Off - Duracao: 462600 Nota: C1 Vol.: 56
Chanel 6 Note On - Duracao: 462600 Nota: C1 Vol.: 44
Chanel 8 Note Off - Duracao: 462660 Nota: C1 Vol.: 54
Chanel 8 Note On - Duracao: 462660 Nota: C1 Vol.: 52
Chanel 4 Note Off - Duracao: 462960 Nota: C1 Vol.: 61
Chanel 4 Note On - Duracao: 462960 Nota: C1 Vol.: 53
Chanel 9 Note Off - Duracao: 463080 Nota: C1 Vol.: 63
Chanel 9 Note On - Duracao: 463080 Nota: C1 Vol.: 70
Chanel 8 Note Off - Duracao: 463140 Nota: C1 Vol.: 52
Chanel 8 Note On - Duracao: 463140 Nota: C1 Vol.: 45
Chanel 9 Note Off - Duracao: 463320 Nota: C1 Vol.: 70
Chanel 9 Note On - Duracao: 463320 Nota: C1 Vol.: 54
Chanel 4 Note Off - Duracao: 463440 Nota: C1 Vol.: 53
Chanel 4 Note On - Duracao: 463440 Nota: C1 Vol.: 56
Chanel 6 Note Off - Duracao: 463560 Nota: C1 Vol.: 44
Chanel 6 Note On - Duracao: 463560 Nota: C1 Vol.: 61
Chanel 6 Note Off - Duracao: 463800 Nota: C1 Vol.: 61
Chanel 6 Note On - Duracao: 463800 Nota: C1 Vol.: 64
Chanel 9 Note Off - Duracao: 463800 Nota: C1 Vol.: 54
Chanel 9 Note On - Duracao: 463800 Nota: C1 Vol.: 52
Chanel 4 Note Off - Duracao: 463920 Nota: C1 Vol.: 56
Chanel 4 Note On - Duracao: 463920 Nota: C1 Vol.: 54
Chanel 6 Note Off - Duracao: 463920 Nota: C1 Vol.: 64
Chanel 6 Note On - Duracao: 463920 Nota: C1 Vol.: 66
Chanel 6 Note Off - Duracao: 464040 Nota: C1 Vol.: 66
Chanel 6 Note On - Duracao: 464040 Nota: C1 Vol.: 55
Chanel 8 Note Off - Duracao: 464100 Nota: C1 Vol.: 45
Chanel 8 Note On - Duracao: 464100 Nota: C1 Vol.: 51
Chanel 9 Note Off - Duracao: 464280 Nota: C1 Vol.: 52
Chanel 9 Note On - Duracao: 464280 Nota: C1 Vol.: 55
Chanel 4 Note Off - Duracao: 464400 Nota: C1 Vol.: 54
Chanel 4 Note On - Duracao: 464400 Nota: C1 Vol.: 57
Chanel 3 Note Off - Duracao: 464520 Nota: C1 Vol.: 40
Chanel 3 Note On - Duracao: 464520 Nota: C1 Vol.: 52
Chanel 6 Note Off - Duracao: 464520 Nota: C1 Vol.: 55
Chanel 6 Note On - Duracao: 464520 Nota: C1 Vol.: 50
Chanel 9 Note Off - Duracao: 464760 Nota: C1 Vol.: 55
Chanel 9 Note On - Duracao: 464760 Nota: C1 Vol.: 64
Chanel 4 Note Off - Duracao: 464880 Nota: C1 Vol.: 57
Chanel 4 Note On - Duracao: 464880 Nota: C1 Vol.: 48
Chanel 5 Note Off - Duracao: 464880 Nota: C1 Vol.: 55
Chanel 5 Note On - Duracao: 464880 Nota: C1 Vol.: 59
Chanel 2 Note Off - Duracao: 465000 Nota: C1 Vol.: 42
Chanel 2 Note On - Duracao: 465000 Nota: C1 Vol.: 40
Chanel 7 Note Off - Duracao: 465000 Nota: C1 Vol.: 54
Chanel 7 Note On - Duracao: 465000 Nota: C1 Vol.: 56
Chanel 9 Note Off - Duracao: 465000 Nota: C1 Vol.: 64
Chanel 9 Note On - Duracao: 465000 Nota: C1 Vol.: 66
Chanel 8 Note Off - Duracao: 465060 Nota: C1 Vol.: 51
Chanel 8 Note On - Duracao: 465060 Nota: C1 Vol.: 59
Chanel 9 Note Off - Duracao: 465240 Nota: C1 Vol.: 66
Chanel 9 Note On - Duracao: 465240 Nota: C1 Vol.: 62
Chanel 3 Note Off - Duracao: 465480 Nota: C1 Vol.: 52
Chanel 3 Note On - Duracao: 465480 Nota: C1 Vol.: 51
Chanel 6 Note Off - Duracao: 465480 Nota: C1 Vol.: 50
Chanel 6 Note On - Duracao: 465480 Nota: C1 Vol.: 48
Chanel 8 Note Off - Duracao: 465540 Nota: C1 Vol.: 59
Chanel 8 Note On - Duracao: 465540 Nota: C1 Vol.: 63
Chanel 9 Note Off - Duracao: 465720 Nota: C1 Vol.: 62
Chanel 9 Note On - Duracao: 465720 Nota: C1 Vol.: 60
Chanel 4 Note Off - Duracao: 465840 Nota: C1 Vol.: 48
Chanel 4 Note On - Duracao: 465840 Nota: C1 Vol.: 47
Chanel 8 Note Off - Duracao: 466020 Nota: C1 Vol.: 63
Chanel 8 Note On - Duracao: 466020 Nota: C1 Vol.: 71
Chanel 9 Note Off - Duracao: 466200 Nota: C1 Vol.: 60
Chanel 9 Note On - Duracao: 466200 Nota: C1 Vol.: 60
Chanel 8 Note Off - Duracao: 466260 Nota: C1 Vol.: 71
Chanel 8 Note On - Duracao: 466260 Nota: C1 Vol.: 72
Chanel 3 Note Off - Duracao: 466440 Nota: C1 Vol.: 51
Chanel 3 Note On - Duracao: 466440 Nota: C1 Vol.: 40
Chanel 6 Note Off - Duracao: 466440 Nota: C1 Vol.: 48
Chanel 6 Note On - Duracao: 466440 Nota: C1 Vol.: 47
Chanel 8 Note Off - Duracao: 466500 Nota: C1 Vol.: 72
Chanel 8 Note On - Duracao: 466500 Nota: C1 Vol.: 67
Chanel 8 Note Off - Duracao: 466740 Nota: C1 Vol.: 67
Chanel 8 Note On - Duracao: 466740 Nota: C1 Vol.: 68
Chanel 4 Note Off - Duracao: 466800 Nota: C1 Vol.: 47
Chanel 4 Note On - Duracao: 466800 Nota: C1 Vol.: 47
Chanel 5 Note Off - Duracao: 466800 Nota: C1 Vol.: 59
Chanel 5 Note On - Duracao: 466800 Nota: C1 Vol.: 50
Chanel 2 Note Off - Duracao: 466920 Nota: C1 Vol.: 40
Chanel 2 Note On - Duracao: 466920 Nota: C1 Vol.: 40
Chanel 8 Note Off - Duracao: 466980 Nota: C1 Vol.: 68
Chanel 8 Note On - Duracao: 466980 Nota: C1 Vol.: 67
Chanel 9 Note Off - Duracao: 467160 Nota: C1 Vol.: 60
Chanel 9 Note On - Duracao: 467160 Nota: C1 Vol.: 62
Chanel 6 Note Off - Duracao: 467400 Nota: C1 Vol.: 47
Chanel 6 Note On - Duracao: 467400 Nota: C1 Vol.: 54
Chanel 8 Note Off - Duracao: 467460 Nota: C1 Vol.: 67
Chanel 8 Note On - Duracao: 467460 Nota: C1 Vol.: 81
Chanel 8 Note Off - Duracao: 467700 Nota: C1 Vol.: 81
Chanel 8 Note On - Duracao: 467700 Nota: C1 Vol.: 80
Chanel 4 Note Off - Duracao: 467760 Nota: C1 Vol.: 47
Chanel 4 Note On - Duracao: 467760 Nota: C1 Vol.: 46
Chanel 2 Note Off - Duracao: 467880 Nota: C1 Vol.: 40
Chanel 2 Note On - Duracao: 467880 Nota: C1 Vol.: 55
Chanel 6 Note Off - Duracao: 467880 Nota: C1 Vol.: 54
Chanel 6 Note On - Duracao: 467880 Nota: C1 Vol.: 60
Chanel 8 Note Off - Duracao: 467940 Nota: C1 Vol.: 80
Chanel 8 Note On - Duracao: 467940 Nota: C1 Vol.: 66
Chanel 2 Note Off - Duracao: 468000 Nota: C1 Vol.: 55
Chanel 2 Note On - Duracao: 468000 Nota: C1 Vol.: 46
Chanel 2 Note Off - Duracao: 468120 Nota: C1 Vol.: 46
Chanel 2 Note On - Duracao: 468120 Nota: C1 Vol.: 42
Chanel 6 Note Off - Duracao: 468120 Nota: C1 Vol.: 60
Chanel 6 Note On - Duracao: 468120 Nota: C1 Vol.: 57
Chanel 9 Note Off - Duracao: 468120 Nota: C1 Vol.: 62
Chanel 9 Note On - Duracao: 468120 Nota: C1 Vol.: 69
Chanel 2 Note Off - Duracao: 468240 Nota: C1 Vol.: 42
Chanel 2 Note On - Duracao: 468240 Nota: C1 Vol.: 43
Chanel 2 Note Off - Duracao: 468360 Nota: C1 Vol.: 43
Chanel 2 Note On - Duracao: 468360 Nota: C1 Vol.: 43
Chanel 6 Note Off - Duracao: 468360 Nota: C1 Vol.: 57
Chanel 6 Note On - Duracao: 468360 Nota: C1 Vol.: 53
Chanel 2 Note Off - Duracao: 468480 Nota: C1 Vol.: 43
Chanel 2 Note On - Duracao: 468480 Nota: C1 Vol.: 42
Chanel 2 Note Off - Duracao: 468600 Nota: C1 Vol.: 42
Chanel 2 Note On - Duracao: 468600 Nota: C1 Vol.: 44
Chanel 6 Note Off - Duracao: 468600 Nota: C1 Vol.: 53
Chanel 6 Note On - Duracao: 468600 Nota: C1 Vol.: 53
Chanel 9 Note Off - Duracao: 468600 Nota: C1 Vol.: 69
Chanel 9 Note On - Duracao: 468600 Nota: C1 Vol.: 97
Chanel 9 Note Off - Duracao: 468660 Nota: C1 Vol.: 97
Chanel 9 Note On - Duracao: 468660 Nota: C1 Vol.: 91
Chanel 2 Note Off - Duracao: 468720 Nota: C1 Vol.: 44
Chanel 2 Note On - Duracao: 468720 Nota: C1 Vol.: 47
Chanel 4 Note Off - Duracao: 468720 Nota: C1 Vol.: 46
Chanel 4 Note On - Duracao: 468720 Nota: C1 Vol.: 50
Chanel 5 Note Off - Duracao: 468720 Nota: C1 Vol.: 50
Chanel 5 Note On - Duracao: 468720 Nota: C1 Vol.: 46
Chanel 9 Note Off - Duracao: 468780 Nota: C1 Vol.: 91
Chanel 9 Note On - Duracao: 468780 Nota: C1 Vol.: 81
Chanel 2 Note Off - Duracao: 468840 Nota: C1 Vol.: 47
Chanel 2 Note On - Duracao: 468840 Nota: C1 Vol.: 56
Chanel 6 Note Off - Duracao: 468840 Nota: C1 Vol.: 53
Chanel 6 Note On - Duracao: 468840 Nota: C1 Vol.: 54
Chanel 7 Note Off - Duracao: 468840 Nota: C1 Vol.: 56
Chanel 7 Note On - Duracao: 468840 Nota: C1 Vol.: 59
Chanel 8 Note Off - Duracao: 468900 Nota: C1 Vol.: 66
Chanel 8 Note On - Duracao: 468900 Nota: C1 Vol.: 57
Chanel 2 Note Off - Duracao: 468960 Nota: C1 Vol.: 56
Chanel 2 Note On - Duracao: 468960 Nota: C1 Vol.: 56
Chanel 9 Note Off - Duracao: 469020 Nota: C1 Vol.: 81
Chanel 9 Note On - Duracao: 469020 Nota: C1 Vol.: 62
Chanel 6 Note Off - Duracao: 469080 Nota: C1 Vol.: 54
Chanel 6 Note On - Duracao: 469080 Nota: C1 Vol.: 52
Chanel 2 Note Off - Duracao: 469200 Nota: C1 Vol.: 56
Chanel 2 Note On - Duracao: 469200 Nota: C1 Vol.: 40
Chanel 9 Note Off - Duracao: 469500 Nota: C1 Vol.: 62
Chanel 9 Note On - Duracao: 469500 Nota: C1 Vol.: 61
Chanel 6 Note Off - Duracao: 469560 Nota: C1 Vol.: 52
Chanel 6 Note On - Duracao: 469560 Nota: C1 Vol.: 68
Chanel 4 Note Off - Duracao: 469680 Nota: C1 Vol.: 50
Chanel 4 Note On - Duracao: 469680 Nota: C1 Vol.: 61
Chanel 6 Note Off - Duracao: 469680 Nota: C1 Vol.: 68
Chanel 6 Note On - Duracao: 469680 Nota: C1 Vol.: 71
Chanel 8 Note Off - Duracao: 469860 Nota: C1 Vol.: 57
Chanel 8 Note On - Duracao: 469860 Nota: C1 Vol.: 51
Chanel 6 Note Off - Duracao: 469920 Nota: C1 Vol.: 71
Chanel 6 Note On - Duracao: 469920 Nota: C1 Vol.: 72
Chanel 9 Note Off - Duracao: 469980 Nota: C1 Vol.: 61
Chanel 9 Note On - Duracao: 469980 Nota: C1 Vol.: 58
Chanel 4 Note Off - Duracao: 470160 Nota: C1 Vol.: 61
Chanel 4 Note On - Duracao: 470160 Nota: C1 Vol.: 53
Chanel 6 Note Off - Duracao: 470160 Nota: C1 Vol.: 72
Chanel 6 Note On - Duracao: 470160 Nota: C1 Vol.: 49
Chanel 3 Note Off - Duracao: 470280 Nota: C1 Vol.: 40
Chanel 3 Note On - Duracao: 470280 Nota: C1 Vol.: 44
Chanel 9 Note Off - Duracao: 470460 Nota: C1 Vol.: 58
Chanel 9 Note On - Duracao: 470460 Nota: C1 Vol.: 63
Chanel 4 Note Off - Duracao: 470640 Nota: C1 Vol.: 53
Chanel 4 Note On - Duracao: 470640 Nota: C1 Vol.: 61
Chanel 5 Note Off - Duracao: 470640 Nota: C1 Vol.: 46
Chanel 5 Note On - Duracao: 470640 Nota: C1 Vol.: 57
Chanel 8 Note Off - Duracao: 470820 Nota: C1 Vol.: 51
Chanel 8 Note On - Duracao: 470820 Nota: C1 Vol.: 54
Chanel 9 Note Off - Duracao: 470940 Nota: C1 Vol.: 63
Chanel 9 Note On - Duracao: 470940 Nota: C1 Vol.: 52
Chanel 2 Note Off - Duracao: 471120 Nota: C1 Vol.: 40
Chanel 2 Note On - Duracao: 471120 Nota: C1 Vol.: 60
Chanel 4 Note Off - Duracao: 471120 Nota: C1 Vol.: 61
Chanel 4 Note On - Duracao: 471120 Nota: C1 Vol.: 48
Chanel 5 Note Off - Duracao: 471120 Nota: C1 Vol.: 57
Chanel 5 Note On - Duracao: 471120 Nota: C1 Vol.: 59
Chanel 5 Note Off - Duracao: 471360 Nota: C1 Vol.: 59
Chanel 5 Note On - Duracao: 471360 Nota: C1 Vol.: 58
Chanel 5 Note Off - Duracao: 471480 Nota: C1 Vol.: 58
Chanel 5 Note On - Duracao: 471480 Nota: C1 Vol.: 57
Chanel 2 Note Off - Duracao: 471600 Nota: C1 Vol.: 60
Chanel 2 Note On - Duracao: 471600 Nota: C1 Vol.: 62
Chanel 5 Note Off - Duracao: 471600 Nota: C1 Vol.: 57
Chanel 5 Note On - Duracao: 471600 Nota: C1 Vol.: 58
Chanel 5 Note Off - Duracao: 471720 Nota: C1 Vol.: 58
Chanel 5 Note On - Duracao: 471720 Nota: C1 Vol.: 53
Chanel 8 Note Off - Duracao: 471780 Nota: C1 Vol.: 54
Chanel 8 Note On - Duracao: 471780 Nota: C1 Vol.: 53
Chanel 5 Note Off - Duracao: 471840 Nota: C1 Vol.: 53
Chanel 5 Note On - Duracao: 471840 Nota: C1 Vol.: 50
Chanel 9 Note Off - Duracao: 471900 Nota: C1 Vol.: 52
Chanel 9 Note On - Duracao: 471900 Nota: C1 Vol.: 48
Chanel 5 Note Off - Duracao: 471960 Nota: C1 Vol.: 50
Chanel 5 Note On - Duracao: 471960 Nota: C1 Vol.: 50
Chanel 2 Note Off - Duracao: 472080 Nota: C1 Vol.: 62
Chanel 2 Note On - Duracao: 472080 Nota: C1 Vol.: 71
Chanel 4 Note Off - Duracao: 472080 Nota: C1 Vol.: 48
Chanel 4 Note On - Duracao: 472080 Nota: C1 Vol.: 45
Chanel 5 Note Off - Duracao: 472080 Nota: C1 Vol.: 50
Chanel 5 Note On - Duracao: 472080 Nota: C1 Vol.: 52
Chanel 6 Note Off - Duracao: 472080 Nota: C1 Vol.: 49
Chanel 6 Note On - Duracao: 472080 Nota: C1 Vol.: 54
Chanel 3 Note Off - Duracao: 472200 Nota: C1 Vol.: 44
Chanel 3 Note On - Duracao: 472200 Nota: C1 Vol.: 74
Chanel 5 Note Off - Duracao: 472200 Nota: C1 Vol.: 52
Chanel 5 Note On - Duracao: 472200 Nota: C1 Vol.: 49
Chanel 2 Note Off - Duracao: 472320 Nota: C1 Vol.: 71
Chanel 2 Note On - Duracao: 472320 Nota: C1 Vol.: 75
Chanel 5 Note Off - Duracao: 472320 Nota: C1 Vol.: 49
Chanel 5 Note On - Duracao: 472320 Nota: C1 Vol.: 48
Chanel 3 Note Off - Duracao: 472440 Nota: C1 Vol.: 74
Chanel 3 Note On - Duracao: 472440 Nota: C1 Vol.: 63
Chanel 5 Note Off - Duracao: 472440 Nota: C1 Vol.: 48
Chanel 5 Note On - Duracao: 472440 Nota: C1 Vol.: 46
Chanel 2 Note Off - Duracao: 472560 Nota: C1 Vol.: 75
Chanel 2 Note On - Duracao: 472560 Nota: C1 Vol.: 70
Chanel 5 Note Off - Duracao: 472560 Nota: C1 Vol.: 46
Chanel 5 Note On - Duracao: 472560 Nota: C1 Vol.: 54
Chanel 5 Note Off - Duracao: 472680 Nota: C1 Vol.: 54
Chanel 5 Note On - Duracao: 472680 Nota: C1 Vol.: 64
Chanel 7 Note Off - Duracao: 472680 Nota: C1 Vol.: 59
Chanel 7 Note On - Duracao: 472680 Nota: C1 Vol.: 59
Chanel 8 Note Off - Duracao: 472740 Nota: C1 Vol.: 53
Chanel 8 Note On - Duracao: 472740 Nota: C1 Vol.: 53
Chanel 5 Note Off - Duracao: 472800 Nota: C1 Vol.: 64
Chanel 5 Note On - Duracao: 472800 Nota: C1 Vol.: 45
Chanel 9 Note Off - Duracao: 472860 Nota: C1 Vol.: 48
Chanel 9 Note On - Duracao: 472860 Nota: C1 Vol.: 58
Chanel 3 Note Off - Duracao: 472920 Nota: C1 Vol.: 63
Chanel 3 Note On - Duracao: 472920 Nota: C1 Vol.: 41
Chanel 2 Note Off - Duracao: 473040 Nota: C1 Vol.: 70
Chanel 2 Note On - Duracao: 473040 Nota: C1 Vol.: 67
Chanel 9 Note Off - Duracao: 473340 Nota: C1 Vol.: 58
Chanel 9 Note On - Duracao: 473340 Nota: C1 Vol.: 61
Chanel 2 Note Off - Duracao: 473520 Nota: C1 Vol.: 67
Chanel 2 Note On - Duracao: 473520 Nota: C1 Vol.: 80
Chanel 8 Note Off - Duracao: 473700 Nota: C1 Vol.: 53
Chanel 8 Note On - Duracao: 473700 Nota: C1 Vol.: 52
Chanel 2 Note Off - Duracao: 473760 Nota: C1 Vol.: 80
Chanel 2 Note On - Duracao: 473760 Nota: C1 Vol.: 86
Chanel 9 Note Off - Duracao: 473820 Nota: C1 Vol.: 61
Chanel 9 Note On - Duracao: 473820 Nota: C1 Vol.: 60
Chanel 2 Note Off - Duracao: 473880 Nota: C1 Vol.: 86
Chanel 2 Note On - Duracao: 473880 Nota: C1 Vol.: 79
Chanel 4 Note Off - Duracao: 474000 Nota: C1 Vol.: 45
Chanel 4 Note On - Duracao: 474000 Nota: C1 Vol.: 67
Chanel 4 Note Off - Duracao: 474240 Nota: C1 Vol.: 67
Chanel 4 Note On - Duracao: 474240 Nota: C1 Vol.: 67
Chanel 9 Note Off - Duracao: 474300 Nota: C1 Vol.: 60
Chanel 9 Note On - Duracao: 474300 Nota: C1 Vol.: 60
Chanel 2 Note Off - Duracao: 474360 Nota: C1 Vol.: 79
Chanel 2 Note On - Duracao: 474360 Nota: C1 Vol.: 87
Chanel 4 Note Off - Duracao: 474480 Nota: C1 Vol.: 67
Chanel 4 Note On - Duracao: 474480 Nota: C1 Vol.: 70
Chanel 2 Note Off - Duracao: 474600 Nota: C1 Vol.: 87
Chanel 2 Note On - Duracao: 474600 Nota: C1 Vol.: 83
Chanel 4 Note Off - Duracao: 474600 Nota: C1 Vol.: 70
Chanel 4 Note On - Duracao: 474600 Nota: C1 Vol.: 68
Chanel 8 Note Off - Duracao: 474660 Nota: C1 Vol.: 52
Chanel 8 Note On - Duracao: 474660 Nota: C1 Vol.: 47
Chanel 5 Note Off - Duracao: 474720 Nota: C1 Vol.: 45
Chanel 5 Note On - Duracao: 474720 Nota: C1 Vol.: 60
Chanel 9 Note Off - Duracao: 474780 Nota: C1 Vol.: 60
Chanel 9 Note On - Duracao: 474780 Nota: C1 Vol.: 62
Chanel 2 Note Off - Duracao: 474840 Nota: C1 Vol.: 83
Chanel 2 Note On - Duracao: 474840 Nota: C1 Vol.: 87
Chanel 4 Note Off - Duracao: 474840 Nota: C1 Vol.: 68
Chanel 4 Note On - Duracao: 474840 Nota: C1 Vol.: 66
Chanel 2 Note Off - Duracao: 475080 Nota: C1 Vol.: 87
Chanel 2 Note On - Duracao: 475080 Nota: C1 Vol.: 82
Chanel 4 Note Off - Duracao: 475080 Nota: C1 Vol.: 66
Chanel 4 Note On - Duracao: 475080 Nota: C1 Vol.: 56
Chanel 9 Note Off - Duracao: 475260 Nota: C1 Vol.: 62
Chanel 9 Note On - Duracao: 475260 Nota: C1 Vol.: 61
Chanel 2 Note Off - Duracao: 475320 Nota: C1 Vol.: 82
Chanel 2 Note On - Duracao: 475320 Nota: C1 Vol.: 78
Chanel 2 Note Off - Duracao: 475560 Nota: C1 Vol.: 78
Chanel 2 Note On - Duracao: 475560 Nota: C1 Vol.: 78
Chanel 8 Note Off - Duracao: 475620 Nota: C1 Vol.: 47
Chanel 8 Note On - Duracao: 475620 Nota: C1 Vol.: 48
Chanel 9 Note Off - Duracao: 475740 Nota: C1 Vol.: 61
Chanel 9 Note On - Duracao: 475740 Nota: C1 Vol.: 60
Chanel 2 Note Off - Duracao: 475800 Nota: C1 Vol.: 78
Chanel 2 Note On - Duracao: 475800 Nota: C1 Vol.: 74
Chanel 6 Note Off - Duracao: 475920 Nota: C1 Vol.: 54
Chanel 6 Note On - Duracao: 475920 Nota: C1 Vol.: 56
Chanel 2 Note Off - Duracao: 476040 Nota: C1 Vol.: 74
Chanel 2 Note On - Duracao: 476040 Nota: C1 Vol.: 74
Chanel 4 Note Off - Duracao: 476040 Nota: C1 Vol.: 56
Chanel 4 Note On - Duracao: 476040 Nota: C1 Vol.: 47
Chanel 9 Note Off - Duracao: 476220 Nota: C1 Vol.: 60
Chanel 9 Note On - Duracao: 476220 Nota: C1 Vol.: 58
Chanel 2 Note Off - Duracao: 476280 Nota: C1 Vol.: 74
Chanel 2 Note On - Duracao: 476280 Nota: C1 Vol.: 72
Chanel 2 Note Off - Duracao: 476520 Nota: C1 Vol.: 72
Chanel 2 Note On - Duracao: 476520 Nota: C1 Vol.: 81
Chanel 7 Note Off - Duracao: 476520 Nota: C1 Vol.: 59
Chanel 7 Note On - Duracao: 476520 Nota: C1 Vol.: 63
Chanel 8 Note Off - Duracao: 476580 Nota: C1 Vol.: 48
Chanel 8 Note On - Duracao: 476580 Nota: C1 Vol.: 50
Chanel 5 Note Off - Duracao: 476640 Nota: C1 Vol.: 60
Chanel 5 Note On - Duracao: 476640 Nota: C1 Vol.: 67
Chanel 9 Note Off - Duracao: 476700 Nota: C1 Vol.: 58
Chanel 9 Note On - Duracao: 476700 Nota: C1 Vol.: 59
Chanel 2 Note Off - Duracao: 476760 Nota: C1 Vol.: 81
Chanel 2 Note On - Duracao: 476760 Nota: C1 Vol.: 78
Chanel 3 Note Off - Duracao: 476760 Nota: C1 Vol.: 41
Chanel 3 Note On - Duracao: 476760 Nota: C1 Vol.: 44
Chanel 2 Note Off - Duracao: 477000 Nota: C1 Vol.: 78
Chanel 2 Note On - Duracao: 477000 Nota: C1 Vol.: 75
Chanel 4 Note Off - Duracao: 477000 Nota: C1 Vol.: 47
Chanel 4 Note On - Duracao: 477000 Nota: C1 Vol.: 44
Chanel 9 Note Off - Duracao: 477180 Nota: C1 Vol.: 59
Chanel 9 Note On - Duracao: 477180 Nota: C1 Vol.: 60
Chanel 2 Note Off - Duracao: 477240 Nota: C1 Vol.: 75
Chanel 2 Note On - Duracao: 477240 Nota: C1 Vol.: 80
Chanel 2 Note Off - Duracao: 477480 Nota: C1 Vol.: 80
Chanel 2 Note On - Duracao: 477480 Nota: C1 Vol.: 84
Chanel 8 Note Off - Duracao: 477540 Nota: C1 Vol.: 50
Chanel 8 Note On - Duracao: 477540 Nota: C1 Vol.: 60
Chanel 5 Note Off - Duracao: 477600 Nota: C1 Vol.: 67
Chanel 5 Note On - Duracao: 477600 Nota: C1 Vol.: 100
Chanel 5 Note Off - Duracao: 477660 Nota: C1 Vol.: 100
Chanel 5 Note On - Duracao: 477660 Nota: C1 Vol.: 96
Chanel 9 Note Off - Duracao: 477660 Nota: C1 Vol.: 60
Chanel 9 Note On - Duracao: 477660 Nota: C1 Vol.: 60
Chanel 2 Note Off - Duracao: 477720 Nota: C1 Vol.: 84
Chanel 2 Note On - Duracao: 477720 Nota: C1 Vol.: 84
Chanel 5 Note Off - Duracao: 477720 Nota: C1 Vol.: 96
Chanel 5 Note On - Duracao: 477720 Nota: C1 Vol.: 97
Chanel 5 Note Off - Duracao: 477780 Nota: C1 Vol.: 97
Chanel 5 Note On - Duracao: 477780 Nota: C1 Vol.: 58
Chanel 2 Note Off - Duracao: 477960 Nota: C1 Vol.: 84
Chanel 2 Note On - Duracao: 477960 Nota: C1 Vol.: 81
Chanel 4 Note Off - Duracao: 477960 Nota: C1 Vol.: 44
Chanel 4 Note On - Duracao: 477960 Nota: C1 Vol.: 61
Chanel 8 Note Off - Duracao: 478020 Nota: C1 Vol.: 60
Chanel 8 Note On - Duracao: 478020 Nota: C1 Vol.: 73
Chanel 9 Note Off - Duracao: 478140 Nota: C1 Vol.: 60
Chanel 9 Note On - Duracao: 478140 Nota: C1 Vol.: 64
Chanel 2 Note Off - Duracao: 478200 Nota: C1 Vol.: 81
Chanel 2 Note On - Duracao: 478200 Nota: C1 Vol.: 84
Chanel 4 Note Off - Duracao: 478200 Nota: C1 Vol.: 61
Chanel 4 Note On - Duracao: 478200 Nota: C1 Vol.: 58
Chanel 8 Note Off - Duracao: 478260 Nota: C1 Vol.: 73
Chanel 8 Note On - Duracao: 478260 Nota: C1 Vol.: 72
Chanel 8 Note Off - Duracao: 478380 Nota: C1 Vol.: 72
Chanel 8 Note On - Duracao: 478380 Nota: C1 Vol.: 71
Chanel 2 Note Off - Duracao: 478440 Nota: C1 Vol.: 84
Chanel 2 Note On - Duracao: 478440 Nota: C1 Vol.: 87
Chanel 8 Note Off - Duracao: 478500 Nota: C1 Vol.: 71
Chanel 8 Note On - Duracao: 478500 Nota: C1 Vol.: 66
Chanel 9 Note Off - Duracao: 478620 Nota: C1 Vol.: 64
Chanel 9 Note On - Duracao: 478620 Nota: C1 Vol.: 68
Chanel 2 Note Off - Duracao: 478680 Nota: C1 Vol.: 87
Chanel 2 Note On - Duracao: 478680 Nota: C1 Vol.: 83
Chanel 4 Note Off - Duracao: 478680 Nota: C1 Vol.: 58
Chanel 4 Note On - Duracao: 478680 Nota: C1 Vol.: 40
Chanel 5 Note Off - Duracao: 478740 Nota: C1 Vol.: 58
Chanel 5 Note On - Duracao: 478740 Nota: C1 Vol.: 45
Chanel 8 Note Off - Duracao: 478740 Nota: C1 Vol.: 66
Chanel 8 Note On - Duracao: 478740 Nota: C1 Vol.: 64
Chanel 9 Note Off - Duracao: 478860 Nota: C1 Vol.: 68
Chanel 9 Note On - Duracao: 478860 Nota: C1 Vol.: 61
Chanel 2 Note Off - Duracao: 478920 Nota: C1 Vol.: 83
Chanel 2 Note On - Duracao: 478920 Nota: C1 Vol.: 70
Chanel 8 Note Off - Duracao: 478980 Nota: C1 Vol.: 64
Chanel 8 Note On - Duracao: 478980 Nota: C1 Vol.: 70
Chanel 8 Note Off - Duracao: 479100 Nota: C1 Vol.: 70
Chanel 8 Note On - Duracao: 479100 Nota: C1 Vol.: 52
Chanel 2 Note Off - Duracao: 479160 Nota: C1 Vol.: 70
Chanel 2 Note On - Duracao: 479160 Nota: C1 Vol.: 73
Chanel 2 Note Off - Duracao: 479280 Nota: C1 Vol.: 73
Chanel 2 Note On - Duracao: 479280 Nota: C1 Vol.: 73
Chanel 9 Note Off - Duracao: 479340 Nota: C1 Vol.: 61
Chanel 9 Note On - Duracao: 479340 Nota: C1 Vol.: 63
Chanel 2 Note Off - Duracao: 479400 Nota: C1 Vol.: 73
Chanel 2 Note On - Duracao: 479400 Nota: C1 Vol.: 69
Chanel 8 Note Off - Duracao: 479580 Nota: C1 Vol.: 52
Chanel 8 Note On - Duracao: 479580 Nota: C1 Vol.: 60
Chanel 2 Note Off - Duracao: 479640 Nota: C1 Vol.: 69
Chanel 2 Note On - Duracao: 479640 Nota: C1 Vol.: 77
Chanel 2 Note Off - Duracao: 479760 Nota: C1 Vol.: 77
Chanel 2 Note On - Duracao: 479760 Nota: C1 Vol.: 64
Chanel 6 Note Off - Duracao: 479760 Nota: C1 Vol.: 56
Chanel 6 Note On - Duracao: 479760 Nota: C1 Vol.: 57
Chanel 9 Note Off - Duracao: 479820 Nota: C1 Vol.: 63
Chanel 9 Note On - Duracao: 479820 Nota: C1 Vol.: 68
Chanel 8 Note Off - Duracao: 480060 Nota: C1 Vol.: 60
Chanel 8 Note On - Duracao: 480060 Nota: C1 Vol.: 58
Chanel 9 Note Off - Duracao: 480060 Nota: C1 Vol.: 68
Chanel 9 Note On - Duracao: 480060 Nota: C1 Vol.: 71
Chanel 2 Note Off - Duracao: 480240 Nota: C1 Vol.: 64
Chanel 2 Note On - Duracao: 480240 Nota: C1 Vol.: 57
Chanel 9 Note Off - Duracao: 480300 Nota: C1 Vol.: 71
Chanel 9 Note On - Duracao: 480300 Nota: C1 Vol.: 71
Chanel 7 Note Off - Duracao: 480360 Nota: C1 Vol.: 63
Chanel 7 Note On - Duracao: 480360 Nota: C1 Vol.: 67
Chanel 8 Note Off - Duracao: 480540 Nota: C1 Vol.: 58
Chanel 8 Note On - Duracao: 480540 Nota: C1 Vol.: 60
Chanel 9 Note Off - Duracao: 480540 Nota: C1 Vol.: 71
Chanel 9 Note On - Duracao: 480540 Nota: C1 Vol.: 63
Chanel 3 Note Off - Duracao: 480600 Nota: C1 Vol.: 44
Chanel 3 Note On - Duracao: 480600 Nota: C1 Vol.: 42
Chanel 5 Note Off - Duracao: 480660 Nota: C1 Vol.: 45
Chanel 5 Note On - Duracao: 480660 Nota: C1 Vol.: 83
Chanel 5 Note Off - Duracao: 480900 Nota: C1 Vol.: 83
Chanel 5 Note On - Duracao: 480900 Nota: C1 Vol.: 86
Chanel 5 Note Off - Duracao: 481020 Nota: C1 Vol.: 86
Chanel 5 Note On - Duracao: 481020 Nota: C1 Vol.: 89
Chanel 8 Note Off - Duracao: 481020 Nota: C1 Vol.: 60
Chanel 8 Note On - Duracao: 481020 Nota: C1 Vol.: 74
Chanel 9 Note Off - Duracao: 481020 Nota: C1 Vol.: 63
Chanel 9 Note On - Duracao: 481020 Nota: C1 Vol.: 59
Chanel 5 Note Off - Duracao: 481140 Nota: C1 Vol.: 89
Chanel 5 Note On - Duracao: 481140 Nota: C1 Vol.: 86
Chanel 2 Note Off - Duracao: 481200 Nota: C1 Vol.: 57
Chanel 2 Note On - Duracao: 481200 Nota: C1 Vol.: 65
Chanel 5 Note Off - Duracao: 481260 Nota: C1 Vol.: 86
Chanel 5 Note On - Duracao: 481260 Nota: C1 Vol.: 87
Chanel 8 Note Off - Duracao: 481260 Nota: C1 Vol.: 74
Chanel 8 Note On - Duracao: 481260 Nota: C1 Vol.: 63
Chanel 5 Note Off - Duracao: 481380 Nota: C1 Vol.: 87
Chanel 5 Note On - Duracao: 481380 Nota: C1 Vol.: 89
Chanel 5 Note Off - Duracao: 481500 Nota: C1 Vol.: 89
Chanel 5 Note On - Duracao: 481500 Nota: C1 Vol.: 93
Chanel 9 Note Off - Duracao: 481500 Nota: C1 Vol.: 59
Chanel 9 Note On - Duracao: 481500 Nota: C1 Vol.: 54
Chanel 5 Note Off - Duracao: 481620 Nota: C1 Vol.: 93
Chanel 5 Note On - Duracao: 481620 Nota: C1 Vol.: 94
Chanel 2 Note Off - Duracao: 481680 Nota: C1 Vol.: 65
Chanel 2 Note On - Duracao: 481680 Nota: C1 Vol.: 66
Chanel 5 Note Off - Duracao: 481740 Nota: C1 Vol.: 94
Chanel 5 Note On - Duracao: 481740 Nota: C1 Vol.: 98
Chanel 8 Note Off - Duracao: 481740 Nota: C1 Vol.: 63
Chanel 8 Note On - Duracao: 481740 Nota: C1 Vol.: 47
Chanel 5 Note Off - Duracao: 481800 Nota: C1 Vol.: 98
Chanel 5 Note On - Duracao: 481800 Nota: C1 Vol.: 100
Chanel 5 Note Off - Duracao: 481860 Nota: C1 Vol.: 100
Chanel 5 Note On - Duracao: 481860 Nota: C1 Vol.: 100
Chanel 5 Note Off - Duracao: 481920 Nota: C1 Vol.: 100
Chanel 5 Note On - Duracao: 481920 Nota: C1 Vol.: 99
Chanel 5 Note Off - Duracao: 481980 Nota: C1 Vol.: 99
Chanel 5 Note On - Duracao: 481980 Nota: C1 Vol.: 99
Chanel 5 Note Off - Duracao: 482040 Nota: C1 Vol.: 99
Chanel 5 Note On - Duracao: 482040 Nota: C1 Vol.: 99
Chanel 5 Note Off - Duracao: 482100 Nota: C1 Vol.: 99
Chanel 5 Note On - Duracao: 482100 Nota: C1 Vol.: 99
Chanel 2 Note Off - Duracao: 482160 Nota: C1 Vol.: 66
Chanel 2 Note On - Duracao: 482160 Nota: C1 Vol.: 71
Chanel 5 Note Off - Duracao: 482160 Nota: C1 Vol.: 99
Chanel 5 Note On - Duracao: 482160 Nota: C1 Vol.: 100
Chanel 5 Note Off - Duracao: 482220 Nota: C1 Vol.: 100
Chanel 5 Note On - Duracao: 482220 Nota: C1 Vol.: 98
Chanel 5 Note Off - Duracao: 482280 Nota: C1 Vol.: 98
Chanel 5 Note On - Duracao: 482280 Nota: C1 Vol.: 90
Chanel 7 Note Off - Duracao: 482280 Nota: C1 Vol.: 67
Chanel 7 Note On - Duracao: 482280 Nota: C1 Vol.: 67
Chanel 2 Note Off - Duracao: 482400 Nota: C1 Vol.: 71
Chanel 2 Note On - Duracao: 482400 Nota: C1 Vol.: 73
Chanel 5 Note Off - Duracao: 482400 Nota: C1 Vol.: 90
Chanel 5 Note On - Duracao: 482400 Nota: C1 Vol.: 52
Chanel 9 Note Off - Duracao: 482460 Nota: C1 Vol.: 54
Chanel 9 Note On - Duracao: 482460 Nota: C1 Vol.: 56
Chanel 4 Note Off - Duracao: 482520 Nota: C1 Vol.: 40
Chanel 4 Note On - Duracao: 482520 Nota: C1 Vol.: 40
Chanel 2 Note Off - Duracao: 482640 Nota: C1 Vol.: 73
Chanel 2 Note On - Duracao: 482640 Nota: C1 Vol.: 69
Chanel 8 Note Off - Duracao: 482700 Nota: C1 Vol.: 47
Chanel 8 Note On - Duracao: 482700 Nota: C1 Vol.: 54
Chanel 2 Note Off - Duracao: 482880 Nota: C1 Vol.: 69
Chanel 2 Note On - Duracao: 482880 Nota: C1 Vol.: 53
Chanel 2 Note Off - Duracao: 483360 Nota: C1 Vol.: 53
Chanel 2 Note On - Duracao: 483360 Nota: C1 Vol.: 61
Chanel 9 Note Off - Duracao: 483420 Nota: C1 Vol.: 56
Chanel 9 Note On - Duracao: 483420 Nota: C1 Vol.: 55
Chanel 6 Note Off - Duracao: 483600 Nota: C1 Vol.: 57
Chanel 6 Note On - Duracao: 483600 Nota: C1 Vol.: 57
Chanel 8 Note Off - Duracao: 483660 Nota: C1 Vol.: 54
Chanel 8 Note On - Duracao: 483660 Nota: C1 Vol.: 58
Chanel 2 Note Off - Duracao: 483840 Nota: C1 Vol.: 61
Chanel 2 Note On - Duracao: 483840 Nota: C1 Vol.: 55
Chanel 8 Note Off - Duracao: 484140 Nota: C1 Vol.: 58
Chanel 8 Note On - Duracao: 484140 Nota: C1 Vol.: 58
Chanel 7 Note Off - Duracao: 484200 Nota: C1 Vol.: 67
Chanel 7 Note On - Duracao: 484200 Nota: C1 Vol.: 64
Chanel 2 Note Off - Duracao: 484320 Nota: C1 Vol.: 55
Chanel 2 Note On - Duracao: 484320 Nota: C1 Vol.: 70
Chanel 5 Note Off - Duracao: 484320 Nota: C1 Vol.: 52
Chanel 5 Note On - Duracao: 484320 Nota: C1 Vol.: 82
Chanel 9 Note Off - Duracao: 484380 Nota: C1 Vol.: 55
Chanel 9 Note On - Duracao: 484380 Nota: C1 Vol.: 51
Chanel 3 Note Off - Duracao: 484440 Nota: C1 Vol.: 42
Chanel 3 Note On - Duracao: 484440 Nota: C1 Vol.: 49
Chanel 2 Note Off - Duracao: 484560 Nota: C1 Vol.: 70
Chanel 2 Note On - Duracao: 484560 Nota: C1 Vol.: 64
Chanel 5 Note Off - Duracao: 484560 Nota: C1 Vol.: 82
Chanel 5 Note On - Duracao: 484560 Nota: C1 Vol.: 97
Chanel 5 Note Off - Duracao: 484620 Nota: C1 Vol.: 97
Chanel 5 Note On - Duracao: 484620 Nota: C1 Vol.: 97
Chanel 8 Note Off - Duracao: 484620 Nota: C1 Vol.: 58
Chanel 8 Note On - Duracao: 484620 Nota: C1 Vol.: 56
Chanel 5 Note Off - Duracao: 484680 Nota: C1 Vol.: 97
Chanel 5 Note On - Duracao: 484680 Nota: C1 Vol.: 98
Chanel 5 Note Off - Duracao: 484740 Nota: C1 Vol.: 98
Chanel 5 Note On - Duracao: 484740 Nota: C1 Vol.: 99
Chanel 5 Note Off - Duracao: 484800 Nota: C1 Vol.: 99
Chanel 5 Note On - Duracao: 484800 Nota: C1 Vol.: 97
Chanel 5 Note Off - Duracao: 484860 Nota: C1 Vol.: 97
Chanel 5 Note On - Duracao: 484860 Nota: C1 Vol.: 93
Chanel 5 Note Off - Duracao: 484920 Nota: C1 Vol.: 93
Chanel 5 Note On - Duracao: 484920 Nota: C1 Vol.: 87
Chanel 2 Note Off - Duracao: 485040 Nota: C1 Vol.: 64
Chanel 2 Note On - Duracao: 485040 Nota: C1 Vol.: 72
Chanel 5 Note Off - Duracao: 485040 Nota: C1 Vol.: 87
Chanel 5 Note On - Duracao: 485040 Nota: C1 Vol.: 82
Chanel 8 Note Off - Duracao: 485100 Nota: C1 Vol.: 56
Chanel 8 Note On - Duracao: 485100 Nota: C1 Vol.: 56
Chanel 5 Note Off - Duracao: 485160 Nota: C1 Vol.: 82
Chanel 5 Note On - Duracao: 485160 Nota: C1 Vol.: 73
Chanel 2 Note Off - Duracao: 485280 Nota: C1 Vol.: 72
Chanel 2 Note On - Duracao: 485280 Nota: C1 Vol.: 95
Chanel 2 Note Off - Duracao: 485340 Nota: C1 Vol.: 95
Chanel 2 Note On - Duracao: 485340 Nota: C1 Vol.: 92
Chanel 9 Note Off - Duracao: 485340 Nota: C1 Vol.: 51
Chanel 9 Note On - Duracao: 485340 Nota: C1 Vol.: 58
Chanel 2 Note Off - Duracao: 485400 Nota: C1 Vol.: 92
Chanel 2 Note On - Duracao: 485400 Nota: C1 Vol.: 89
Chanel 5 Note Off - Duracao: 485400 Nota: C1 Vol.: 73
Chanel 5 Note On - Duracao: 485400 Nota: C1 Vol.: 67
Chanel 2 Note Off - Duracao: 485460 Nota: C1 Vol.: 89
Chanel 2 Note On - Duracao: 485460 Nota: C1 Vol.: 89
Chanel 2 Note Off - Duracao: 485520 Nota: C1 Vol.: 89
Chanel 2 Note On - Duracao: 485520 Nota: C1 Vol.: 77
Chanel 8 Note Off - Duracao: 485580 Nota: C1 Vol.: 56
Chanel 8 Note On - Duracao: 485580 Nota: C1 Vol.: 58
Chanel 2 Note Off - Duracao: 485640 Nota: C1 Vol.: 77
Chanel 2 Note On - Duracao: 485640 Nota: C1 Vol.: 63
Chanel 5 Note Off - Duracao: 485880 Nota: C1 Vol.: 67
Chanel 5 Note On - Duracao: 485880 Nota: C1 Vol.: 68
Chanel 8 Note Off - Duracao: 486060 Nota: C1 Vol.: 58
Chanel 8 Note On - Duracao: 486060 Nota: C1 Vol.: 54
Chanel 2 Note Off - Duracao: 486120 Nota: C1 Vol.: 63
Chanel 2 Note On - Duracao: 486120 Nota: C1 Vol.: 54
Chanel 7 Note Off - Duracao: 486120 Nota: C1 Vol.: 64
Chanel 7 Note On - Duracao: 486120 Nota: C1 Vol.: 60
Chanel 9 Note Off - Duracao: 486300 Nota: C1 Vol.: 58
Chanel 9 Note On - Duracao: 486300 Nota: C1 Vol.: 60
Chanel 3 Note Off - Duracao: 486360 Nota: C1 Vol.: 49
Chanel 3 Note On - Duracao: 486360 Nota: C1 Vol.: 40
Chanel 4 Note Off - Duracao: 486360 Nota: C1 Vol.: 40
Chanel 4 Note On - Duracao: 486360 Nota: C1 Vol.: 43
Chanel 5 Note Off - Duracao: 486360 Nota: C1 Vol.: 68
Chanel 5 Note On - Duracao: 486360 Nota: C1 Vol.: 71
Chanel 8 Note Off - Duracao: 486540 Nota: C1 Vol.: 54
Chanel 8 Note On - Duracao: 486540 Nota: C1 Vol.: 60
Chanel 8 Note Off - Duracao: 486780 Nota: C1 Vol.: 60
Chanel 8 Note On - Duracao: 486780 Nota: C1 Vol.: 58
Chanel 9 Note Off - Duracao: 486780 Nota: C1 Vol.: 60
Chanel 9 Note On - Duracao: 486780 Nota: C1 Vol.: 68
Chanel 5 Note Off - Duracao: 486840 Nota: C1 Vol.: 71
Chanel 5 Note On - Duracao: 486840 Nota: C1 Vol.: 64
Chanel 8 Note Off - Duracao: 487020 Nota: C1 Vol.: 58
Chanel 8 Note On - Duracao: 487020 Nota: C1 Vol.: 66
Chanel 2 Note Off - Duracao: 487080 Nota: C1 Vol.: 54
Chanel 2 Note On - Duracao: 487080 Nota: C1 Vol.: 68
Chanel 8 Note Off - Duracao: 487140 Nota: C1 Vol.: 66
Chanel 8 Note On - Duracao: 487140 Nota: C1 Vol.: 56
Chanel 9 Note Off - Duracao: 487260 Nota: C1 Vol.: 68
Chanel 9 Note On - Duracao: 487260 Nota: C1 Vol.: 62
Chanel 2 Note Off - Duracao: 487320 Nota: C1 Vol.: 68
Chanel 2 Note On - Duracao: 487320 Nota: C1 Vol.: 61
Chanel 5 Note Off - Duracao: 487320 Nota: C1 Vol.: 64
Chanel 5 Note On - Duracao: 487320 Nota: C1 Vol.: 62
Chanel 8 Note Off - Duracao: 487380 Nota: C1 Vol.: 56
Chanel 8 Note On - Duracao: 487380 Nota: C1 Vol.: 65
Chanel 6 Note Off - Duracao: 487440 Nota: C1 Vol.: 57
Chanel 6 Note On - Duracao: 487440 Nota: C1 Vol.: 55
Chanel 8 Note Off - Duracao: 487500 Nota: C1 Vol.: 65
Chanel 8 Note On - Duracao: 487500 Nota: C1 Vol.: 68
Chanel 8 Note Off - Duracao: 487620 Nota: C1 Vol.: 68
Chanel 8 Note On - Duracao: 487620 Nota: C1 Vol.: 67
Chanel 8 Note Off - Duracao: 487740 Nota: C1 Vol.: 67
Chanel 8 Note On - Duracao: 487740 Nota: C1 Vol.: 53
Chanel 9 Note Off - Duracao: 487740 Nota: C1 Vol.: 62
Chanel 9 Note On - Duracao: 487740 Nota: C1 Vol.: 66
Chanel 2 Note Off - Duracao: 487800 Nota: C1 Vol.: 61
Chanel 2 Note On - Duracao: 487800 Nota: C1 Vol.: 40
Chanel 5 Note Off - Duracao: 487800 Nota: C1 Vol.: 62
Chanel 5 Note On - Duracao: 487800 Nota: C1 Vol.: 49
Chanel 8 Note Off - Duracao: 487980 Nota: C1 Vol.: 53
Chanel 8 Note On - Duracao: 487980 Nota: C1 Vol.: 48
Chanel 7 Note Off - Duracao: 488040 Nota: C1 Vol.: 60
Chanel 7 Note On - Duracao: 488040 Nota: C1 Vol.: 45
Chanel 8 Note Off - Duracao: 488220 Nota: C1 Vol.: 48
Chanel 8 Note On - Duracao: 488220 Nota: C1 Vol.: 55
Chanel 9 Note Off - Duracao: 488220 Nota: C1 Vol.: 66
Chanel 9 Note On - Duracao: 488220 Nota: C1 Vol.: 72
Chanel 3 Note Off - Duracao: 488280 Nota: C1 Vol.: 40
Chanel 3 Note On - Duracao: 488280 Nota: C1 Vol.: 49
Chanel 4 Note Off - Duracao: 488280 Nota: C1 Vol.: 43
Chanel 4 Note On - Duracao: 488280 Nota: C1 Vol.: 58
Chanel 8 Note Off - Duracao: 488340 Nota: C1 Vol.: 55
Chanel 8 Note On - Duracao: 488340 Nota: C1 Vol.: 46
Chanel 8 Note Off - Duracao: 488580 Nota: C1 Vol.: 46
Chanel 8 Note On - Duracao: 488580 Nota: C1 Vol.: 53
Chanel 8 Note Off - Duracao: 488700 Nota: C1 Vol.: 53
Chanel 8 Note On - Duracao: 488700 Nota: C1 Vol.: 52
Chanel 9 Note Off - Duracao: 488700 Nota: C1 Vol.: 72
Chanel 9 Note On - Duracao: 488700 Nota: C1 Vol.: 77
Chanel 4 Note Off - Duracao: 488760 Nota: C1 Vol.: 58
Chanel 4 Note On - Duracao: 488760 Nota: C1 Vol.: 62
Chanel 5 Note Off - Duracao: 488760 Nota: C1 Vol.: 49
Chanel 5 Note On - Duracao: 488760 Nota: C1 Vol.: 52
Chanel 8 Note Off - Duracao: 488940 Nota: C1 Vol.: 52
Chanel 8 Note On - Duracao: 488940 Nota: C1 Vol.: 57
Chanel 9 Note Off - Duracao: 488940 Nota: C1 Vol.: 77
Chanel 9 Note On - Duracao: 488940 Nota: C1 Vol.: 80
Chanel 8 Note Off - Duracao: 489060 Nota: C1 Vol.: 57
Chanel 8 Note On - Duracao: 489060 Nota: C1 Vol.: 47
Chanel 9 Note Off - Duracao: 489180 Nota: C1 Vol.: 80
Chanel 9 Note On - Duracao: 489180 Nota: C1 Vol.: 83
Chanel 3 Note Off - Duracao: 489240 Nota: C1 Vol.: 49
Chanel 3 Note On - Duracao: 489240 Nota: C1 Vol.: 50
Chanel 4 Note Off - Duracao: 489240 Nota: C1 Vol.: 62
Chanel 4 Note On - Duracao: 489240 Nota: C1 Vol.: 62
Chanel 5 Note Off - Duracao: 489240 Nota: C1 Vol.: 52
Chanel 5 Note On - Duracao: 489240 Nota: C1 Vol.: 70
Chanel 8 Note Off - Duracao: 489300 Nota: C1 Vol.: 47
Chanel 8 Note On - Duracao: 489300 Nota: C1 Vol.: 40
Chanel 5 Note Off - Duracao: 489360 Nota: C1 Vol.: 70
Chanel 5 Note On - Duracao: 489360 Nota: C1 Vol.: 48
Chanel 9 Note Off - Duracao: 489420 Nota: C1 Vol.: 83
Chanel 9 Note On - Duracao: 489420 Nota: C1 Vol.: 85
Chanel 4 Note Off - Duracao: 489480 Nota: C1 Vol.: 62
Chanel 4 Note On - Duracao: 489480 Nota: C1 Vol.: 60
Chanel 9 Note Off - Duracao: 489660 Nota: C1 Vol.: 85
Chanel 9 Note On - Duracao: 489660 Nota: C1 Vol.: 83
Chanel 2 Note Off - Duracao: 489720 Nota: C1 Vol.: 40
Chanel 2 Note On - Duracao: 489720 Nota: C1 Vol.: 40
Chanel 8 Note Off - Duracao: 489780 Nota: C1 Vol.: 40
Chanel 8 Note On - Duracao: 489780 Nota: C1 Vol.: 49
Chanel 5 Note Off - Duracao: 489840 Nota: C1 Vol.: 48
Chanel 5 Note On - Duracao: 489840 Nota: C1 Vol.: 47
Chanel 9 Note Off - Duracao: 489900 Nota: C1 Vol.: 83
Chanel 9 Note On - Duracao: 489900 Nota: C1 Vol.: 82
Chanel 4 Note Off - Duracao: 489960 Nota: C1 Vol.: 60
Chanel 4 Note On - Duracao: 489960 Nota: C1 Vol.: 66
Chanel 8 Note Off - Duracao: 490020 Nota: C1 Vol.: 49
Chanel 8 Note On - Duracao: 490020 Nota: C1 Vol.: 52
Chanel 8 Note Off - Duracao: 490140 Nota: C1 Vol.: 52
Chanel 8 Note On - Duracao: 490140 Nota: C1 Vol.: 53
Chanel 9 Note Off - Duracao: 490140 Nota: C1 Vol.: 82
Chanel 9 Note On - Duracao: 490140 Nota: C1 Vol.: 83
Chanel 3 Note Off - Duracao: 490200 Nota: C1 Vol.: 50
Chanel 3 Note On - Duracao: 490200 Nota: C1 Vol.: 48
Chanel 4 Note Off - Duracao: 490200 Nota: C1 Vol.: 66
Chanel 4 Note On - Duracao: 490200 Nota: C1 Vol.: 70
Chanel 8 Note Off - Duracao: 490260 Nota: C1 Vol.: 53
Chanel 8 Note On - Duracao: 490260 Nota: C1 Vol.: 52
Chanel 8 Note Off - Duracao: 490380 Nota: C1 Vol.: 52
Chanel 8 Note On - Duracao: 490380 Nota: C1 Vol.: 50
Chanel 9 Note Off - Duracao: 490380 Nota: C1 Vol.: 83
Chanel 9 Note On - Duracao: 490380 Nota: C1 Vol.: 84
Chanel 4 Note Off - Duracao: 490440 Nota: C1 Vol.: 70
Chanel 4 Note On - Duracao: 490440 Nota: C1 Vol.: 73
Chanel 8 Note Off - Duracao: 490500 Nota: C1 Vol.: 50
Chanel 8 Note On - Duracao: 490500 Nota: C1 Vol.: 51
Chanel 4 Note Off - Duracao: 490560 Nota: C1 Vol.: 73
Chanel 4 Note On - Duracao: 490560 Nota: C1 Vol.: 72
Chanel 8 Note Off - Duracao: 490620 Nota: C1 Vol.: 51
Chanel 8 Note On - Duracao: 490620 Nota: C1 Vol.: 52
Chanel 9 Note Off - Duracao: 490620 Nota: C1 Vol.: 84
Chanel 9 Note On - Duracao: 490620 Nota: C1 Vol.: 85
Chanel 2 Note Off - Duracao: 490680 Nota: C1 Vol.: 40
Chanel 2 Note On - Duracao: 490680 Nota: C1 Vol.: 59
Chanel 8 Note Off - Duracao: 490740 Nota: C1 Vol.: 52
Chanel 8 Note On - Duracao: 490740 Nota: C1 Vol.: 47
Chanel 4 Note Off - Duracao: 490800 Nota: C1 Vol.: 72
Chanel 4 Note On - Duracao: 490800 Nota: C1 Vol.: 63
Chanel 5 Note Off - Duracao: 490800 Nota: C1 Vol.: 47
Chanel 5 Note On - Duracao: 490800 Nota: C1 Vol.: 52
Chanel 9 Note Off - Duracao: 490860 Nota: C1 Vol.: 85
Chanel 9 Note On - Duracao: 490860 Nota: C1 Vol.: 84
Chanel 2 Note Off - Duracao: 490920 Nota: C1 Vol.: 59
Chanel 2 Note On - Duracao: 490920 Nota: C1 Vol.: 57
Chanel 8 Note Off - Duracao: 490980 Nota: C1 Vol.: 47
Chanel 8 Note On - Duracao: 490980 Nota: C1 Vol.: 49
Chanel 9 Note Off - Duracao: 491100 Nota: C1 Vol.: 84
Chanel 9 Note On - Duracao: 491100 Nota: C1 Vol.: 82
Chanel 2 Note Off - Duracao: 491160 Nota: C1 Vol.: 57
Chanel 2 Note On - Duracao: 491160 Nota: C1 Vol.: 48
Chanel 8 Note Off - Duracao: 491220 Nota: C1 Vol.: 49
Chanel 8 Note On - Duracao: 491220 Nota: C1 Vol.: 58
Chanel 4 Note Off - Duracao: 491280 Nota: C1 Vol.: 63
Chanel 4 Note On - Duracao: 491280 Nota: C1 Vol.: 64
Chanel 5 Note Off - Duracao: 491280 Nota: C1 Vol.: 52
Chanel 5 Note On - Duracao: 491280 Nota: C1 Vol.: 49
Chanel 6 Note Off - Duracao: 491280 Nota: C1 Vol.: 55
Chanel 6 Note On - Duracao: 491280 Nota: C1 Vol.: 57
Chanel 8 Note Off - Duracao: 491340 Nota: C1 Vol.: 58
Chanel 8 Note On - Duracao: 491340 Nota: C1 Vol.: 50
Chanel 9 Note Off - Duracao: 491340 Nota: C1 Vol.: 82
Chanel 9 Note On - Duracao: 491340 Nota: C1 Vol.: 81
Chanel 8 Note Off - Duracao: 491580 Nota: C1 Vol.: 50
Chanel 8 Note On - Duracao: 491580 Nota: C1 Vol.: 40
Chanel 9 Note Off - Duracao: 491580 Nota: C1 Vol.: 81
Chanel 9 Note On - Duracao: 491580 Nota: C1 Vol.: 82
Chanel 2 Note Off - Duracao: 491640 Nota: C1 Vol.: 48
Chanel 2 Note On - Duracao: 491640 Nota: C1 Vol.: 49
Chanel 4 Note Off - Duracao: 491760 Nota: C1 Vol.: 64
Chanel 4 Note On - Duracao: 491760 Nota: C1 Vol.: 67
Chanel 5 Note Off - Duracao: 491760 Nota: C1 Vol.: 49
Chanel 5 Note On - Duracao: 491760 Nota: C1 Vol.: 43
Chanel 9 Note Off - Duracao: 491820 Nota: C1 Vol.: 82
Chanel 9 Note On - Duracao: 491820 Nota: C1 Vol.: 83
Chanel 7 Note Off - Duracao: 491880 Nota: C1 Vol.: 45
Chanel 7 Note On - Duracao: 491880 Nota: C1 Vol.: 46
Chanel 4 Note Off - Duracao: 492000 Nota: C1 Vol.: 67
Chanel 4 Note On - Duracao: 492000 Nota: C1 Vol.: 71
Chanel 9 Note Off - Duracao: 492060 Nota: C1 Vol.: 83
Chanel 9 Note On - Duracao: 492060 Nota: C1 Vol.: 82
Chanel 3 Note Off - Duracao: 492120 Nota: C1 Vol.: 48
Chanel 3 Note On - Duracao: 492120 Nota: C1 Vol.: 73
Chanel 4 Note Off - Duracao: 492240 Nota: C1 Vol.: 71
Chanel 4 Note On - Duracao: 492240 Nota: C1 Vol.: 77
Chanel 9 Note Off - Duracao: 492300 Nota: C1 Vol.: 82
Chanel 9 Note On - Duracao: 492300 Nota: C1 Vol.: 79
Chanel 3 Note Off - Duracao: 492360 Nota: C1 Vol.: 73
Chanel 3 Note On - Duracao: 492360 Nota: C1 Vol.: 42
Chanel 4 Note Off - Duracao: 492480 Nota: C1 Vol.: 77
Chanel 4 Note On - Duracao: 492480 Nota: C1 Vol.: 80
Chanel 8 Note Off - Duracao: 492540 Nota: C1 Vol.: 40
Chanel 8 Note On - Duracao: 492540 Nota: C1 Vol.: 48
Chanel 9 Note Off - Duracao: 492540 Nota: C1 Vol.: 79
Chanel 9 Note On - Duracao: 492540 Nota: C1 Vol.: 77
Chanel 2 Note Off - Duracao: 492600 Nota: C1 Vol.: 49
Chanel 2 Note On - Duracao: 492600 Nota: C1 Vol.: 67
Chanel 4 Note Off - Duracao: 492600 Nota: C1 Vol.: 80
Chanel 4 Note On - Duracao: 492600 Nota: C1 Vol.: 78
Chanel 5 Note Off - Duracao: 492720 Nota: C1 Vol.: 43
Chanel 5 Note On - Duracao: 492720 Nota: C1 Vol.: 42
Chanel 4 Note Off - Duracao: 492840 Nota: C1 Vol.: 78
Chanel 4 Note On - Duracao: 492840 Nota: C1 Vol.: 79
Chanel 4 Note Off - Duracao: 492960 Nota: C1 Vol.: 79
Chanel 4 Note On - Duracao: 492960 Nota: C1 Vol.: 78
Chanel 8 Note Off - Duracao: 493020 Nota: C1 Vol.: 48
Chanel 8 Note On - Duracao: 493020 Nota: C1 Vol.: 52
Chanel 9 Note Off - Duracao: 493020 Nota: C1 Vol.: 77
Chanel 9 Note On - Duracao: 493020 Nota: C1 Vol.: 76
Chanel 2 Note Off - Duracao: 493080 Nota: C1 Vol.: 67
Chanel 2 Note On - Duracao: 493080 Nota: C1 Vol.: 77
Chanel 4 Note Off - Duracao: 493200 Nota: C1 Vol.: 78
Chanel 4 Note On - Duracao: 493200 Nota: C1 Vol.: 74
Chanel 9 Note Off - Duracao: 493260 Nota: C1 Vol.: 76
Chanel 9 Note On - Duracao: 493260 Nota: C1 Vol.: 72
Chanel 2 Note Off - Duracao: 493320 Nota: C1 Vol.: 77
Chanel 2 Note On - Duracao: 493320 Nota: C1 Vol.: 97
Chanel 2 Note Off - Duracao: 493380 Nota: C1 Vol.: 97
Chanel 2 Note On - Duracao: 493380 Nota: C1 Vol.: 95
Chanel 2 Note Off - Duracao: 493440 Nota: C1 Vol.: 95
Chanel 2 Note On - Duracao: 493440 Nota: C1 Vol.: 94
Chanel 4 Note Off - Duracao: 493440 Nota: C1 Vol.: 74
Chanel 4 Note On - Duracao: 493440 Nota: C1 Vol.: 72
Chanel 2 Note Off - Duracao: 493500 Nota: C1 Vol.: 94
Chanel 2 Note On - Duracao: 493500 Nota: C1 Vol.: 44
Chanel 8 Note Off - Duracao: 493500 Nota: C1 Vol.: 52
Chanel 8 Note On - Duracao: 493500 Nota: C1 Vol.: 65
Chanel 4 Note Off - Duracao: 493680 Nota: C1 Vol.: 72
Chanel 4 Note On - Duracao: 493680 Nota: C1 Vol.: 67
Chanel 5 Note Off - Duracao: 493680 Nota: C1 Vol.: 42
Chanel 5 Note On - Duracao: 493680 Nota: C1 Vol.: 44
Chanel 8 Note Off - Duracao: 493740 Nota: C1 Vol.: 65
Chanel 8 Note On - Duracao: 493740 Nota: C1 Vol.: 59
Chanel 9 Note Off - Duracao: 493740 Nota: C1 Vol.: 72
Chanel 9 Note On - Duracao: 493740 Nota: C1 Vol.: 70
Chanel 7 Note Off - Duracao: 493800 Nota: C1 Vol.: 46
Chanel 7 Note On - Duracao: 493800 Nota: C1 Vol.: 44
Chanel 4 Note Off - Duracao: 493920 Nota: C1 Vol.: 67
Chanel 4 Note On - Duracao: 493920 Nota: C1 Vol.: 63
Chanel 8 Note Off - Duracao: 493980 Nota: C1 Vol.: 59
Chanel 8 Note On - Duracao: 493980 Nota: C1 Vol.: 55
Chanel 8 Note Off - Duracao: 494220 Nota: C1 Vol.: 55
Chanel 8 Note On - Duracao: 494220 Nota: C1 Vol.: 57
Chanel 9 Note Off - Duracao: 494220 Nota: C1 Vol.: 70
Chanel 9 Note On - Duracao: 494220 Nota: C1 Vol.: 66
Chanel 3 Note Off - Duracao: 494280 Nota: C1 Vol.: 42
Chanel 3 Note On - Duracao: 494280 Nota: C1 Vol.: 70
Chanel 4 Note Off - Duracao: 494400 Nota: C1 Vol.: 63
Chanel 4 Note On - Duracao: 494400 Nota: C1 Vol.: 55
Chanel 8 Note Off - Duracao: 494460 Nota: C1 Vol.: 57
Chanel 8 Note On - Duracao: 494460 Nota: C1 Vol.: 64
Chanel 3 Note Off - Duracao: 494520 Nota: C1 Vol.: 70
Chanel 3 Note On - Duracao: 494520 Nota: C1 Vol.: 84
Chanel 8 Note Off - Duracao: 494580 Nota: C1 Vol.: 64
Chanel 8 Note On - Duracao: 494580 Nota: C1 Vol.: 62
Chanel 3 Note Off - Duracao: 494640 Nota: C1 Vol.: 84
Chanel 3 Note On - Duracao: 494640 Nota: C1 Vol.: 88
Chanel 5 Note Off - Duracao: 494640 Nota: C1 Vol.: 44
Chanel 5 Note On - Duracao: 494640 Nota: C1 Vol.: 46
Chanel 8 Note Off - Duracao: 494700 Nota: C1 Vol.: 62
Chanel 8 Note On - Duracao: 494700 Nota: C1 Vol.: 62
Chanel 9 Note Off - Duracao: 494700 Nota: C1 Vol.: 66
Chanel 9 Note On - Duracao: 494700 Nota: C1 Vol.: 65
Chanel 3 Note Off - Duracao: 494760 Nota: C1 Vol.: 88
Chanel 3 Note On - Duracao: 494760 Nota: C1 Vol.: 100
Chanel 3 Note Off - Duracao: 494820 Nota: C1 Vol.: 100
Chanel 3 Note On - Duracao: 494820 Nota: C1 Vol.: 99
Chanel 8 Note Off - Duracao: 494820 Nota: C1 Vol.: 62
Chanel 8 Note On - Duracao: 494820 Nota: C1 Vol.: 61
Chanel 3 Note Off - Duracao: 494880 Nota: C1 Vol.: 99
Chanel 3 Note On - Duracao: 494880 Nota: C1 Vol.: 96
Chanel 3 Note Off - Duracao: 494940 Nota: C1 Vol.: 96
Chanel 3 Note On - Duracao: 494940 Nota: C1 Vol.: 99
Chanel 3 Note Off - Duracao: 495000 Nota: C1 Vol.: 99
Chanel 3 Note On - Duracao: 495000 Nota: C1 Vol.: 99
Chanel 3 Note Off - Duracao: 495060 Nota: C1 Vol.: 99
Chanel 3 Note On - Duracao: 495060 Nota: C1 Vol.: 98
Chanel 8 Note Off - Duracao: 495060 Nota: C1 Vol.: 61
Chanel 8 Note On - Duracao: 495060 Nota: C1 Vol.: 52
Chanel 3 Note Off - Duracao: 495120 Nota: C1 Vol.: 98
Chanel 3 Note On - Duracao: 495120 Nota: C1 Vol.: 97
Chanel 6 Note Off - Duracao: 495120 Nota: C1 Vol.: 57
Chanel 6 Note On - Duracao: 495120 Nota: C1 Vol.: 64
Chanel 3 Note Off - Duracao: 495180 Nota: C1 Vol.: 97
Chanel 3 Note On - Duracao: 495180 Nota: C1 Vol.: 78
Chanel 9 Note Off - Duracao: 495180 Nota: C1 Vol.: 65
Chanel 9 Note On - Duracao: 495180 Nota: C1 Vol.: 62
Chanel 8 Note Off - Duracao: 495300 Nota: C1 Vol.: 52
Chanel 8 Note On - Duracao: 495300 Nota: C1 Vol.: 49
Chanel 4 Note Off - Duracao: 495360 Nota: C1 Vol.: 55
Chanel 4 Note On - Duracao: 495360 Nota: C1 Vol.: 59
Chanel 2 Note Off - Duracao: 495420 Nota: C1 Vol.: 44
Chanel 2 Note On - Duracao: 495420 Nota: C1 Vol.: 42
Chanel 3 Note Off - Duracao: 495420 Nota: C1 Vol.: 78
Chanel 3 Note On - Duracao: 495420 Nota: C1 Vol.: 44
Chanel 5 Note Off - Duracao: 495600 Nota: C1 Vol.: 46
Chanel 5 Note On - Duracao: 495600 Nota: C1 Vol.: 47
Chanel 9 Note Off - Duracao: 495660 Nota: C1 Vol.: 62
Chanel 9 Note On - Duracao: 495660 Nota: C1 Vol.: 54
Chanel 7 Note Off - Duracao: 495720 Nota: C1 Vol.: 44
Chanel 7 Note On - Duracao: 495720 Nota: C1 Vol.: 51
Chanel 8 Note Off - Duracao: 495780 Nota: C1 Vol.: 49
Chanel 8 Note On - Duracao: 495780 Nota: C1 Vol.: 56
Chanel 4 Note Off - Duracao: 495840 Nota: C1 Vol.: 59
Chanel 4 Note On - Duracao: 495840 Nota: C1 Vol.: 51
Chanel 8 Note Off - Duracao: 496020 Nota: C1 Vol.: 56
Chanel 8 Note On - Duracao: 496020 Nota: C1 Vol.: 60
Chanel 8 Note Off - Duracao: 496140 Nota: C1 Vol.: 60
Chanel 8 Note On - Duracao: 496140 Nota: C1 Vol.: 63
Chanel 8 Note Off - Duracao: 496260 Nota: C1 Vol.: 63
Chanel 8 Note On - Duracao: 496260 Nota: C1 Vol.: 65
Chanel 8 Note Off - Duracao: 496380 Nota: C1 Vol.: 65
Chanel 8 Note On - Duracao: 496380 Nota: C1 Vol.: 64
Chanel 8 Note Off - Duracao: 496500 Nota: C1 Vol.: 64
Chanel 8 Note On - Duracao: 496500 Nota: C1 Vol.: 55
Chanel 5 Note Off - Duracao: 496560 Nota: C1 Vol.: 47
Chanel 5 Note On - Duracao: 496560 Nota: C1 Vol.: 53
Chanel 9 Note Off - Duracao: 496620 Nota: C1 Vol.: 54
Chanel 9 Note On - Duracao: 496620 Nota: C1 Vol.: 57
Chanel 7 Note Off - Duracao: 496680 Nota: C1 Vol.: 51
Chanel 7 Note On - Duracao: 496680 Nota: C1 Vol.: 54
Chanel 8 Note Off - Duracao: 496740 Nota: C1 Vol.: 55
Chanel 8 Note On - Duracao: 496740 Nota: C1 Vol.: 56
Chanel 4 Note Off - Duracao: 496800 Nota: C1 Vol.: 51
Chanel 4 Note On - Duracao: 496800 Nota: C1 Vol.: 52
Chanel 8 Note Off - Duracao: 496980 Nota: C1 Vol.: 56
Chanel 8 Note On - Duracao: 496980 Nota: C1 Vol.: 58
Chanel 5 Note Off - Duracao: 497040 Nota: C1 Vol.: 53
Chanel 5 Note On - Duracao: 497040 Nota: C1 Vol.: 40
Chanel 6 Note Off - Duracao: 497040 Nota: C1 Vol.: 64
Chanel 6 Note On - Duracao: 497040 Nota: C1 Vol.: 60
Chanel 9 Note Off - Duracao: 497100 Nota: C1 Vol.: 57
Chanel 9 Note On - Duracao: 497100 Nota: C1 Vol.: 57
Chanel 7 Note Off - Duracao: 497160 Nota: C1 Vol.: 54
Chanel 7 Note On - Duracao: 497160 Nota: C1 Vol.: 59
Chanel 8 Note Off - Duracao: 497220 Nota: C1 Vol.: 58
Chanel 8 Note On - Duracao: 497220 Nota: C1 Vol.: 64
Chanel 2 Note Off - Duracao: 497340 Nota: C1 Vol.: 42
Chanel 2 Note On - Duracao: 497340 Nota: C1 Vol.: 65
Chanel 3 Note Off - Duracao: 497340 Nota: C1 Vol.: 44
Chanel 3 Note On - Duracao: 497340 Nota: C1 Vol.: 99
Chanel 3 Note Off - Duracao: 497400 Nota: C1 Vol.: 99
Chanel 3 Note On - Duracao: 497400 Nota: C1 Vol.: 99
Chanel 3 Note Off - Duracao: 497460 Nota: C1 Vol.: 99
Chanel 3 Note On - Duracao: 497460 Nota: C1 Vol.: 99
Chanel 8 Note Off - Duracao: 497460 Nota: C1 Vol.: 64
Chanel 8 Note On - Duracao: 497460 Nota: C1 Vol.: 66
Chanel 3 Note Off - Duracao: 497520 Nota: C1 Vol.: 99
Chanel 3 Note On - Duracao: 497520 Nota: C1 Vol.: 96
Chanel 8 Note Off - Duracao: 497580 Nota: C1 Vol.: 66
Chanel 8 Note On - Duracao: 497580 Nota: C1 Vol.: 67
Chanel 9 Note Off - Duracao: 497580 Nota: C1 Vol.: 57
Chanel 9 Note On - Duracao: 497580 Nota: C1 Vol.: 58
Chanel 3 Note Off - Duracao: 497640 Nota: C1 Vol.: 96
Chanel 3 Note On - Duracao: 497640 Nota: C1 Vol.: 95
Chanel 7 Note Off - Duracao: 497640 Nota: C1 Vol.: 59
Chanel 7 Note On - Duracao: 497640 Nota: C1 Vol.: 59
Chanel 8 Note Off - Duracao: 497700 Nota: C1 Vol.: 67
Chanel 8 Note On - Duracao: 497700 Nota: C1 Vol.: 66
Chanel 3 Note Off - Duracao: 497760 Nota: C1 Vol.: 95
Chanel 3 Note On - Duracao: 497760 Nota: C1 Vol.: 92
Chanel 2 Note Off - Duracao: 497820 Nota: C1 Vol.: 65
Chanel 2 Note On - Duracao: 497820 Nota: C1 Vol.: 65
Chanel 8 Note Off - Duracao: 497820 Nota: C1 Vol.: 66
Chanel 8 Note On - Duracao: 497820 Nota: C1 Vol.: 64
Chanel 3 Note Off - Duracao: 497880 Nota: C1 Vol.: 92
Chanel 3 Note On - Duracao: 497880 Nota: C1 Vol.: 99
Chanel 3 Note Off - Duracao: 497940 Nota: C1 Vol.: 99
Chanel 3 Note On - Duracao: 497940 Nota: C1 Vol.: 89
Chanel 8 Note Off - Duracao: 497940 Nota: C1 Vol.: 64
Chanel 8 Note On - Duracao: 497940 Nota: C1 Vol.: 65
Chanel 5 Note Off - Duracao: 498000 Nota: C1 Vol.: 40
Chanel 5 Note On - Duracao: 498000 Nota: C1 Vol.: 56
Chanel 2 Note Off - Duracao: 498060 Nota: C1 Vol.: 65
Chanel 2 Note On - Duracao: 498060 Nota: C1 Vol.: 65
Chanel 3 Note Off - Duracao: 498060 Nota: C1 Vol.: 89
Chanel 3 Note On - Duracao: 498060 Nota: C1 Vol.: 89
Chanel 8 Note Off - Duracao: 498060 Nota: C1 Vol.: 65
Chanel 8 Note On - Duracao: 498060 Nota: C1 Vol.: 63
Chanel 9 Note Off - Duracao: 498060 Nota: C1 Vol.: 58
Chanel 9 Note On - Duracao: 498060 Nota: C1 Vol.: 61
Chanel 7 Note Off - Duracao: 498120 Nota: C1 Vol.: 59
Chanel 7 Note On - Duracao: 498120 Nota: C1 Vol.: 45
Chanel 3 Note Off - Duracao: 498180 Nota: C1 Vol.: 89
Chanel 3 Note On - Duracao: 498180 Nota: C1 Vol.: 99
Chanel 8 Note Off - Duracao: 498180 Nota: C1 Vol.: 63
Chanel 8 Note On - Duracao: 498180 Nota: C1 Vol.: 61
Chanel 3 Note Off - Duracao: 498240 Nota: C1 Vol.: 99
Chanel 3 Note On - Duracao: 498240 Nota: C1 Vol.: 100
Chanel 2 Note Off - Duracao: 498300 Nota: C1 Vol.: 65
Chanel 2 Note On - Duracao: 498300 Nota: C1 Vol.: 64
Chanel 3 Note Off - Duracao: 498300 Nota: C1 Vol.: 100
Chanel 3 Note On - Duracao: 498300 Nota: C1 Vol.: 96
Chanel 3 Note Off - Duracao: 498360 Nota: C1 Vol.: 96
Chanel 3 Note On - Duracao: 498360 Nota: C1 Vol.: 87
Chanel 8 Note Off - Duracao: 498420 Nota: C1 Vol.: 61
Chanel 8 Note On - Duracao: 498420 Nota: C1 Vol.: 62
Chanel 3 Note Off - Duracao: 498480 Nota: C1 Vol.: 87
Chanel 3 Note On - Duracao: 498480 Nota: C1 Vol.: 76
Chanel 5 Note Off - Duracao: 498480 Nota: C1 Vol.: 56
Chanel 5 Note On - Duracao: 498480 Nota: C1 Vol.: 59
Chanel 2 Note Off - Duracao: 498540 Nota: C1 Vol.: 64
Chanel 2 Note On - Duracao: 498540 Nota: C1 Vol.: 61
Chanel 9 Note Off - Duracao: 498540 Nota: C1 Vol.: 61
Chanel 9 Note On - Duracao: 498540 Nota: C1 Vol.: 58
Chanel 3 Note Off - Duracao: 498600 Nota: C1 Vol.: 76
Chanel 3 Note On - Duracao: 498600 Nota: C1 Vol.: 71
Chanel 8 Note Off - Duracao: 498660 Nota: C1 Vol.: 62
Chanel 8 Note On - Duracao: 498660 Nota: C1 Vol.: 54
Chanel 4 Note Off - Duracao: 498720 Nota: C1 Vol.: 52
Chanel 4 Note On - Duracao: 498720 Nota: C1 Vol.: 87
Chanel 5 Note Off - Duracao: 498720 Nota: C1 Vol.: 59
Chanel 5 Note On - Duracao: 498720 Nota: C1 Vol.: 51
Chanel 2 Note Off - Duracao: 498780 Nota: C1 Vol.: 61
Chanel 2 Note On - Duracao: 498780 Nota: C1 Vol.: 62
Chanel 3 Note Off - Duracao: 498840 Nota: C1 Vol.: 71
Chanel 3 Note On - Duracao: 498840 Nota: C1 Vol.: 57
Chanel 4 Note Off - Duracao: 498840 Nota: C1 Vol.: 87
Chanel 4 Note On - Duracao: 498840 Nota: C1 Vol.: 89
Chanel 4 Note Off - Duracao: 498960 Nota: C1 Vol.: 89
Chanel 4 Note On - Duracao: 498960 Nota: C1 Vol.: 92
Chanel 9 Note Off - Duracao: 499020 Nota: C1 Vol.: 58
Chanel 9 Note On - Duracao: 499020 Nota: C1 Vol.: 55
Chanel 4 Note Off - Duracao: 499080 Nota: C1 Vol.: 92
Chanel 4 Note On - Duracao: 499080 Nota: C1 Vol.: 97
Chanel 4 Note Off - Duracao: 499140 Nota: C1 Vol.: 97
Chanel 4 Note On - Duracao: 499140 Nota: C1 Vol.: 98
Chanel 8 Note Off - Duracao: 499140 Nota: C1 Vol.: 54
Chanel 8 Note On - Duracao: 499140 Nota: C1 Vol.: 55
Chanel 4 Note Off - Duracao: 499200 Nota: C1 Vol.: 98
Chanel 4 Note On - Duracao: 499200 Nota: C1 Vol.: 100
Chanel 5 Note Off - Duracao: 499200 Nota: C1 Vol.: 51
Chanel 5 Note On - Duracao: 499200 Nota: C1 Vol.: 44
Chanel 2 Note Off - Duracao: 499260 Nota: C1 Vol.: 62
Chanel 2 Note On - Duracao: 499260 Nota: C1 Vol.: 59
Chanel 4 Note Off - Duracao: 499260 Nota: C1 Vol.: 100
Chanel 4 Note On - Duracao: 499260 Nota: C1 Vol.: 97
Chanel 3 Note Off - Duracao: 499320 Nota: C1 Vol.: 57
Chanel 3 Note On - Duracao: 499320 Nota: C1 Vol.: 61
Chanel 4 Note Off - Duracao: 499320 Nota: C1 Vol.: 97
Chanel 4 Note On - Duracao: 499320 Nota: C1 Vol.: 98
Chanel 4 Note Off - Duracao: 499380 Nota: C1 Vol.: 98
Chanel 4 Note On - Duracao: 499380 Nota: C1 Vol.: 98
Chanel 4 Note Off - Duracao: 499440 Nota: C1 Vol.: 98
Chanel 4 Note On - Duracao: 499440 Nota: C1 Vol.: 92
Chanel 9 Note Off - Duracao: 499500 Nota: C1 Vol.: 55
Chanel 9 Note On - Duracao: 499500 Nota: C1 Vol.: 56
Chanel 3 Note Off - Duracao: 499560 Nota: C1 Vol.: 61
Chanel 3 Note On - Duracao: 499560 Nota: C1 Vol.: 59
Chanel 4 Note Off - Duracao: 499560 Nota: C1 Vol.: 92
Chanel 4 Note On - Duracao: 499560 Nota: C1 Vol.: 95
Chanel 4 Note Off - Duracao: 499620 Nota: C1 Vol.: 95
Chanel 4 Note On - Duracao: 499620 Nota: C1 Vol.: 50
Chanel 8 Note Off - Duracao: 499620 Nota: C1 Vol.: 55
Chanel 8 Note On - Duracao: 499620 Nota: C1 Vol.: 48
Chanel 2 Note Off - Duracao: 499740 Nota: C1 Vol.: 59
Chanel 2 Note On - Duracao: 499740 Nota: C1 Vol.: 54
Chanel 3 Note Off - Duracao: 499800 Nota: C1 Vol.: 59
Chanel 3 Note On - Duracao: 499800 Nota: C1 Vol.: 65
Chanel 3 Note Off - Duracao: 499920 Nota: C1 Vol.: 65
Chanel 3 Note On - Duracao: 499920 Nota: C1 Vol.: 63
Chanel 9 Note Off - Duracao: 499980 Nota: C1 Vol.: 56
Chanel 9 Note On - Duracao: 499980 Nota: C1 Vol.: 55
Chanel 7 Note Off - Duracao: 500040 Nota: C1 Vol.: 45
Chanel 7 Note On - Duracao: 500040 Nota: C1 Vol.: 61
Chanel 3 Note Off - Duracao: 500160 Nota: C1 Vol.: 63
Chanel 3 Note On - Duracao: 500160 Nota: C1 Vol.: 89
Chanel 5 Note Off - Duracao: 500160 Nota: C1 Vol.: 44
Chanel 5 Note On - Duracao: 500160 Nota: C1 Vol.: 54
Chanel 3 Note Off - Duracao: 500220 Nota: C1 Vol.: 89
Chanel 3 Note On - Duracao: 500220 Nota: C1 Vol.: 94
Chanel 3 Note Off - Duracao: 500280 Nota: C1 Vol.: 94
Chanel 3 Note On - Duracao: 500280 Nota: C1 Vol.: 97
Chanel 3 Note Off - Duracao: 500340 Nota: C1 Vol.: 97
Chanel 3 Note On - Duracao: 500340 Nota: C1 Vol.: 98
Chanel 3 Note Off - Duracao: 500400 Nota: C1 Vol.: 98
Chanel 3 Note On - Duracao: 500400 Nota: C1 Vol.: 87
Chanel 9 Note Off - Duracao: 500460 Nota: C1 Vol.: 55
Chanel 9 Note On - Duracao: 500460 Nota: C1 Vol.: 55
Chanel 3 Note Off - Duracao: 500520 Nota: C1 Vol.: 87
Chanel 3 Note On - Duracao: 500520 Nota: C1 Vol.: 52
Chanel 8 Note Off - Duracao: 500580 Nota: C1 Vol.: 48
Chanel 8 Note On - Duracao: 500580 Nota: C1 Vol.: 60
Chanel 5 Note Off - Duracao: 500640 Nota: C1 Vol.: 54
Chanel 5 Note On - Duracao: 500640 Nota: C1 Vol.: 53
Chanel 2 Note Off - Duracao: 500700 Nota: C1 Vol.: 54
Chanel 2 Note On - Duracao: 500700 Nota: C1 Vol.: 41
Chanel 6 Note Off - Duracao: 500880 Nota: C1 Vol.: 60
Chanel 6 Note On - Duracao: 500880 Nota: C1 Vol.: 59
Chanel 9 Note Off - Duracao: 500940 Nota: C1 Vol.: 55
Chanel 9 Note On - Duracao: 500940 Nota: C1 Vol.: 54
Chanel 7 Note Off - Duracao: 501000 Nota: C1 Vol.: 61
Chanel 7 Note On - Duracao: 501000 Nota: C1 Vol.: 65
Chanel 8 Note Off - Duracao: 501060 Nota: C1 Vol.: 60
Chanel 8 Note On - Duracao: 501060 Nota: C1 Vol.: 66
Chanel 5 Note Off - Duracao: 501120 Nota: C1 Vol.: 53
Chanel 5 Note On - Duracao: 501120 Nota: C1 Vol.: 52
Chanel 8 Note Off - Duracao: 501300 Nota: C1 Vol.: 66
Chanel 8 Note On - Duracao: 501300 Nota: C1 Vol.: 72
Chanel 9 Note Off - Duracao: 501420 Nota: C1 Vol.: 54
Chanel 9 Note On - Duracao: 501420 Nota: C1 Vol.: 56
Chanel 3 Note Off - Duracao: 501480 Nota: C1 Vol.: 52
Chanel 3 Note On - Duracao: 501480 Nota: C1 Vol.: 53
Chanel 4 Note Off - Duracao: 501540 Nota: C1 Vol.: 50
Chanel 4 Note On - Duracao: 501540 Nota: C1 Vol.: 75
Chanel 8 Note Off - Duracao: 501540 Nota: C1 Vol.: 72
Chanel 8 Note On - Duracao: 501540 Nota: C1 Vol.: 68
Chanel 5 Note Off - Duracao: 501600 Nota: C1 Vol.: 52
Chanel 5 Note On - Duracao: 501600 Nota: C1 Vol.: 51
Chanel 4 Note Off - Duracao: 501780 Nota: C1 Vol.: 75
Chanel 4 Note On - Duracao: 501780 Nota: C1 Vol.: 90
Chanel 8 Note Off - Duracao: 501780 Nota: C1 Vol.: 68
Chanel 8 Note On - Duracao: 501780 Nota: C1 Vol.: 69
Chanel 4 Note Off - Duracao: 501900 Nota: C1 Vol.: 90
Chanel 4 Note On - Duracao: 501900 Nota: C1 Vol.: 97
Chanel 9 Note Off - Duracao: 501900 Nota: C1 Vol.: 56
Chanel 9 Note On - Duracao: 501900 Nota: C1 Vol.: 57
Chanel 4 Note Off - Duracao: 501960 Nota: C1 Vol.: 97
Chanel 4 Note On - Duracao: 501960 Nota: C1 Vol.: 94
Chanel 7 Note Off - Duracao: 501960 Nota: C1 Vol.: 65
Chanel 7 Note On - Duracao: 501960 Nota: C1 Vol.: 58
Chanel 4 Note Off - Duracao: 502020 Nota: C1 Vol.: 94
Chanel 4 Note On - Duracao: 502020 Nota: C1 Vol.: 69
Chanel 8 Note Off - Duracao: 502020 Nota: C1 Vol.: 69
Chanel 8 Note On - Duracao: 502020 Nota: C1 Vol.: 70
Chanel 5 Note Off - Duracao: 502080 Nota: C1 Vol.: 51
Chanel 5 Note On - Duracao: 502080 Nota: C1 Vol.: 62
Chanel 8 Note Off - Duracao: 502260 Nota: C1 Vol.: 70
Chanel 8 Note On - Duracao: 502260 Nota: C1 Vol.: 66
Chanel 5 Note Off - Duracao: 502320 Nota: C1 Vol.: 62
Chanel 5 Note On - Duracao: 502320 Nota: C1 Vol.: 60
Chanel 9 Note Off - Duracao: 502380 Nota: C1 Vol.: 57
Chanel 9 Note On - Duracao: 502380 Nota: C1 Vol.: 53
Chanel 3 Note Off - Duracao: 502440 Nota: C1 Vol.: 53
Chanel 3 Note On - Duracao: 502440 Nota: C1 Vol.: 55
Chanel 7 Note Off - Duracao: 502440 Nota: C1 Vol.: 58
Chanel 7 Note On - Duracao: 502440 Nota: C1 Vol.: 87
Chanel 4 Note Off - Duracao: 502500 Nota: C1 Vol.: 69
Chanel 4 Note On - Duracao: 502500 Nota: C1 Vol.: 60
Chanel 7 Note Off - Duracao: 502500 Nota: C1 Vol.: 87
Chanel 7 Note On - Duracao: 502500 Nota: C1 Vol.: 87
Chanel 5 Note Off - Duracao: 502560 Nota: C1 Vol.: 60
Chanel 5 Note On - Duracao: 502560 Nota: C1 Vol.: 51
Chanel 2 Note Off - Duracao: 502620 Nota: C1 Vol.: 41
Chanel 2 Note On - Duracao: 502620 Nota: C1 Vol.: 41
Chanel 7 Note Off - Duracao: 502620 Nota: C1 Vol.: 87
Chanel 7 Note On - Duracao: 502620 Nota: C1 Vol.: 90
Chanel 7 Note Off - Duracao: 502740 Nota: C1 Vol.: 90
Chanel 7 Note On - Duracao: 502740 Nota: C1 Vol.: 94
Chanel 8 Note Off - Duracao: 502740 Nota: C1 Vol.: 66
Chanel 8 Note On - Duracao: 502740 Nota: C1 Vol.: 81
Chanel 7 Note Off - Duracao: 502800 Nota: C1 Vol.: 94
Chanel 7 Note On - Duracao: 502800 Nota: C1 Vol.: 86
Chanel 9 Note Off - Duracao: 502860 Nota: C1 Vol.: 53
Chanel 9 Note On - Duracao: 502860 Nota: C1 Vol.: 48
Chanel 3 Note Off - Duracao: 502920 Nota: C1 Vol.: 55
Chanel 3 Note On - Duracao: 502920 Nota: C1 Vol.: 61
Chanel 7 Note Off - Duracao: 502920 Nota: C1 Vol.: 86
Chanel 7 Note On - Duracao: 502920 Nota: C1 Vol.: 80
Chanel 8 Note Off - Duracao: 502980 Nota: C1 Vol.: 81
Chanel 8 Note On - Duracao: 502980 Nota: C1 Vol.: 72
Chanel 5 Note Off - Duracao: 503040 Nota: C1 Vol.: 51
Chanel 5 Note On - Duracao: 503040 Nota: C1 Vol.: 48
Chanel 7 Note Off - Duracao: 503160 Nota: C1 Vol.: 80
Chanel 7 Note On - Duracao: 503160 Nota: C1 Vol.: 86
Chanel 7 Note Off - Duracao: 503280 Nota: C1 Vol.: 86
Chanel 7 Note On - Duracao: 503280 Nota: C1 Vol.: 91
Chanel 3 Note Off - Duracao: 503400 Nota: C1 Vol.: 61
Chanel 3 Note On - Duracao: 503400 Nota: C1 Vol.: 61
Chanel 7 Note Off - Duracao: 503400 Nota: C1 Vol.: 91
Chanel 7 Note On - Duracao: 503400 Nota: C1 Vol.: 78
Chanel 4 Note Off - Duracao: 503460 Nota: C1 Vol.: 60
Chanel 4 Note On - Duracao: 503460 Nota: C1 Vol.: 87
Chanel 8 Note Off - Duracao: 503460 Nota: C1 Vol.: 72
Chanel 8 Note On - Duracao: 503460 Nota: C1 Vol.: 69
Chanel 4 Note Off - Duracao: 503580 Nota: C1 Vol.: 87
Chanel 4 Note On - Duracao: 503580 Nota: C1 Vol.: 95
Chanel 4 Note Off - Duracao: 503640 Nota: C1 Vol.: 95
Chanel 4 Note On - Duracao: 503640 Nota: C1 Vol.: 97
Chanel 7 Note Off - Duracao: 503640 Nota: C1 Vol.: 78
Chanel 7 Note On - Duracao: 503640 Nota: C1 Vol.: 78
Chanel 4 Note Off - Duracao: 503700 Nota: C1 Vol.: 97
Chanel 4 Note On - Duracao: 503700 Nota: C1 Vol.: 99
Chanel 4 Note Off - Duracao: 503760 Nota: C1 Vol.: 99
Chanel 4 Note On - Duracao: 503760 Nota: C1 Vol.: 99
Chanel 4 Note Off - Duracao: 503820 Nota: C1 Vol.: 99
Chanel 4 Note On - Duracao: 503820 Nota: C1 Vol.: 96
Chanel 9 Note Off - Duracao: 503820 Nota: C1 Vol.: 48
Chanel 9 Note On - Duracao: 503820 Nota: C1 Vol.: 50
Chanel 3 Note Off - Duracao: 503880 Nota: C1 Vol.: 61
Chanel 3 Note On - Duracao: 503880 Nota: C1 Vol.: 63
Chanel 4 Note Off - Duracao: 503880 Nota: C1 Vol.: 96
Chanel 4 Note On - Duracao: 503880 Nota: C1 Vol.: 96
Chanel 7 Note Off - Duracao: 503880 Nota: C1 Vol.: 78
Chanel 7 Note On - Duracao: 503880 Nota: C1 Vol.: 78
Chanel 4 Note Off - Duracao: 503940 Nota: C1 Vol.: 96
Chanel 4 Note On - Duracao: 503940 Nota: C1 Vol.: 96
Chanel 8 Note Off - Duracao: 503940 Nota: C1 Vol.: 69
Chanel 8 Note On - Duracao: 503940 Nota: C1 Vol.: 55
Chanel 4 Note Off - Duracao: 504000 Nota: C1 Vol.: 96
Chanel 4 Note On - Duracao: 504000 Nota: C1 Vol.: 79
Chanel 5 Note Off - Duracao: 504000 Nota: C1 Vol.: 48
Chanel 5 Note On - Duracao: 504000 Nota: C1 Vol.: 50
Chanel 3 Note Off - Duracao: 504120 Nota: C1 Vol.: 63
Chanel 3 Note On - Duracao: 504120 Nota: C1 Vol.: 60
Chanel 7 Note Off - Duracao: 504120 Nota: C1 Vol.: 78
Chanel 7 Note On - Duracao: 504120 Nota: C1 Vol.: 84
Chanel 4 Note Off - Duracao: 504240 Nota: C1 Vol.: 79
Chanel 4 Note On - Duracao: 504240 Nota: C1 Vol.: 82
Chanel 7 Note Off - Duracao: 504240 Nota: C1 Vol.: 84
Chanel 7 Note On - Duracao: 504240 Nota: C1 Vol.: 93
Chanel 7 Note Off - Duracao: 504300 Nota: C1 Vol.: 93
Chanel 7 Note On - Duracao: 504300 Nota: C1 Vol.: 96
Chanel 7 Note Off - Duracao: 504360 Nota: C1 Vol.: 96
Chanel 7 Note On - Duracao: 504360 Nota: C1 Vol.: 92
Chanel 7 Note Off - Duracao: 504420 Nota: C1 Vol.: 92
Chanel 7 Note On - Duracao: 504420 Nota: C1 Vol.: 65
Chanel 4 Note Off - Duracao: 504480 Nota: C1 Vol.: 82
Chanel 4 Note On - Duracao: 504480 Nota: C1 Vol.: 98
Chanel 2 Note Off - Duracao: 504540 Nota: C1 Vol.: 41
Chanel 2 Note On - Duracao: 504540 Nota: C1 Vol.: 42
Chanel 4 Note Off - Duracao: 504540 Nota: C1 Vol.: 98
Chanel 4 Note On - Duracao: 504540 Nota: C1 Vol.: 99
Chanel 3 Note Off - Duracao: 504600 Nota: C1 Vol.: 60
Chanel 3 Note On - Duracao: 504600 Nota: C1 Vol.: 64
Chanel 4 Note Off - Duracao: 504600 Nota: C1 Vol.: 99
Chanel 4 Note On - Duracao: 504600 Nota: C1 Vol.: 97
Chanel 4 Note Off - Duracao: 504660 Nota: C1 Vol.: 97
Chanel 4 Note On - Duracao: 504660 Nota: C1 Vol.: 100
Chanel 4 Note Off - Duracao: 504720 Nota: C1 Vol.: 100
Chanel 4 Note On - Duracao: 504720 Nota: C1 Vol.: 96
Chanel 6 Note Off - Duracao: 504720 Nota: C1 Vol.: 59
Chanel 6 Note On - Duracao: 504720 Nota: C1 Vol.: 61
Chanel 9 Note Off - Duracao: 504780 Nota: C1 Vol.: 50
Chanel 9 Note On - Duracao: 504780 Nota: C1 Vol.: 60
Chanel 3 Note Off - Duracao: 504840 Nota: C1 Vol.: 64
Chanel 3 Note On - Duracao: 504840 Nota: C1 Vol.: 46
Chanel 4 Note Off - Duracao: 504840 Nota: C1 Vol.: 96
Chanel 4 Note On - Duracao: 504840 Nota: C1 Vol.: 95
Chanel 7 Note Off - Duracao: 504900 Nota: C1 Vol.: 65
Chanel 7 Note On - Duracao: 504900 Nota: C1 Vol.: 72
Chanel 8 Note Off - Duracao: 504900 Nota: C1 Vol.: 55
Chanel 8 Note On - Duracao: 504900 Nota: C1 Vol.: 54
Chanel 4 Note Off - Duracao: 504960 Nota: C1 Vol.: 95
Chanel 4 Note On - Duracao: 504960 Nota: C1 Vol.: 91
Chanel 5 Note Off - Duracao: 504960 Nota: C1 Vol.: 50
Chanel 5 Note On - Duracao: 504960 Nota: C1 Vol.: 53
Chanel 4 Note Off - Duracao: 505080 Nota: C1 Vol.: 91
Chanel 4 Note On - Duracao: 505080 Nota: C1 Vol.: 93
Chanel 7 Note Off - Duracao: 505140 Nota: C1 Vol.: 72
Chanel 7 Note On - Duracao: 505140 Nota: C1 Vol.: 61
Chanel 4 Note Off - Duracao: 505200 Nota: C1 Vol.: 93
Chanel 4 Note On - Duracao: 505200 Nota: C1 Vol.: 95
Chanel 9 Note Off - Duracao: 505260 Nota: C1 Vol.: 60
Chanel 9 Note On - Duracao: 505260 Nota: C1 Vol.: 72
Chanel 4 Note Off - Duracao: 505320 Nota: C1 Vol.: 95
Chanel 4 Note On - Duracao: 505320 Nota: C1 Vol.: 97
Chanel 4 Note Off - Duracao: 505440 Nota: C1 Vol.: 97
Chanel 4 Note On - Duracao: 505440 Nota: C1 Vol.: 89
Chanel 5 Note Off - Duracao: 505440 Nota: C1 Vol.: 53
Chanel 5 Note On - Duracao: 505440 Nota: C1 Vol.: 57
Chanel 9 Note Off - Duracao: 505500 Nota: C1 Vol.: 72
Chanel 9 Note On - Duracao: 505500 Nota: C1 Vol.: 79
Chanel 4 Note Off - Duracao: 505560 Nota: C1 Vol.: 89
Chanel 4 Note On - Duracao: 505560 Nota: C1 Vol.: 54
Chanel 7 Note Off - Duracao: 505620 Nota: C1 Vol.: 61
Chanel 7 Note On - Duracao: 505620 Nota: C1 Vol.: 71
Chanel 9 Note Off - Duracao: 505740 Nota: C1 Vol.: 79
Chanel 9 Note On - Duracao: 505740 Nota: C1 Vol.: 78
Chanel 3 Note Off - Duracao: 505800 Nota: C1 Vol.: 46
Chanel 3 Note On - Duracao: 505800 Nota: C1 Vol.: 52
Chanel 7 Note Off - Duracao: 505860 Nota: C1 Vol.: 71
Chanel 7 Note On - Duracao: 505860 Nota: C1 Vol.: 78
Chanel 8 Note Off - Duracao: 505860 Nota: C1 Vol.: 54
Chanel 8 Note On - Duracao: 505860 Nota: C1 Vol.: 52
Chanel 5 Note Off - Duracao: 505920 Nota: C1 Vol.: 57
Chanel 5 Note On - Duracao: 505920 Nota: C1 Vol.: 55
Chanel 9 Note Off - Duracao: 505980 Nota: C1 Vol.: 78
Chanel 9 Note On - Duracao: 505980 Nota: C1 Vol.: 75
Chanel 7 Note Off - Duracao: 506100 Nota: C1 Vol.: 78
Chanel 7 Note On - Duracao: 506100 Nota: C1 Vol.: 76
Chanel 9 Note Off - Duracao: 506220 Nota: C1 Vol.: 75
Chanel 9 Note On - Duracao: 506220 Nota: C1 Vol.: 74
Chanel 7 Note Off - Duracao: 506340 Nota: C1 Vol.: 76
Chanel 7 Note On - Duracao: 506340 Nota: C1 Vol.: 77
Chanel 7 Note Off - Duracao: 506580 Nota: C1 Vol.: 77
Chanel 7 Note On - Duracao: 506580 Nota: C1 Vol.: 85
Chanel 7 Note Off - Duracao: 506700 Nota: C1 Vol.: 85
Chanel 7 Note On - Duracao: 506700 Nota: C1 Vol.: 86
Chanel 9 Note Off - Duracao: 506700 Nota: C1 Vol.: 74
Chanel 9 Note On - Duracao: 506700 Nota: C1 Vol.: 76
Chanel 3 Note Off - Duracao: 506760 Nota: C1 Vol.: 52
Chanel 3 Note On - Duracao: 506760 Nota: C1 Vol.: 63
Chanel 7 Note Off - Duracao: 506820 Nota: C1 Vol.: 86
Chanel 7 Note On - Duracao: 506820 Nota: C1 Vol.: 78
Chanel 5 Note Off - Duracao: 506880 Nota: C1 Vol.: 55
Chanel 5 Note On - Duracao: 506880 Nota: C1 Vol.: 56
Chanel 7 Note Off - Duracao: 506940 Nota: C1 Vol.: 78
Chanel 7 Note On - Duracao: 506940 Nota: C1 Vol.: 75
Chanel 7 Note Off - Duracao: 507180 Nota: C1 Vol.: 75
Chanel 7 Note On - Duracao: 507180 Nota: C1 Vol.: 78
Chanel 9 Note Off - Duracao: 507180 Nota: C1 Vol.: 76
Chanel 9 Note On - Duracao: 507180 Nota: C1 Vol.: 75
Chanel 3 Note Off - Duracao: 507240 Nota: C1 Vol.: 63
Chanel 3 Note On - Duracao: 507240 Nota: C1 Vol.: 66
Chanel 7 Note Off - Duracao: 507300 Nota: C1 Vol.: 78
Chanel 7 Note On - Duracao: 507300 Nota: C1 Vol.: 63
Chanel 4 Note Off - Duracao: 507480 Nota: C1 Vol.: 54
Chanel 4 Note On - Duracao: 507480 Nota: C1 Vol.: 59
Chanel 9 Note Off - Duracao: 507660 Nota: C1 Vol.: 75
Chanel 9 Note On - Duracao: 507660 Nota: C1 Vol.: 75
Chanel 3 Note Off - Duracao: 507720 Nota: C1 Vol.: 66
Chanel 3 Note On - Duracao: 507720 Nota: C1 Vol.: 72
Chanel 7 Note Off - Duracao: 507780 Nota: C1 Vol.: 63
Chanel 7 Note On - Duracao: 507780 Nota: C1 Vol.: 55
Chanel 8 Note Off - Duracao: 507780 Nota: C1 Vol.: 52
Chanel 8 Note On - Duracao: 507780 Nota: C1 Vol.: 53
Chanel 5 Note Off - Duracao: 507840 Nota: C1 Vol.: 56
Chanel 5 Note On - Duracao: 507840 Nota: C1 Vol.: 76
Chanel 3 Note Off - Duracao: 507960 Nota: C1 Vol.: 72
Chanel 3 Note On - Duracao: 507960 Nota: C1 Vol.: 67
Chanel 9 Note Off - Duracao: 508140 Nota: C1 Vol.: 75
Chanel 9 Note On - Duracao: 508140 Nota: C1 Vol.: 72
Chanel 3 Note Off - Duracao: 508200 Nota: C1 Vol.: 67
Chanel 3 Note On - Duracao: 508200 Nota: C1 Vol.: 65
Chanel 7 Note Off - Duracao: 508260 Nota: C1 Vol.: 55
Chanel 7 Note On - Duracao: 508260 Nota: C1 Vol.: 59
Chanel 5 Note Off - Duracao: 508320 Nota: C1 Vol.: 76
Chanel 5 Note On - Duracao: 508320 Nota: C1 Vol.: 60
Chanel 2 Note Off - Duracao: 508380 Nota: C1 Vol.: 42
Chanel 2 Note On - Duracao: 508380 Nota: C1 Vol.: 47
Chanel 3 Note Off - Duracao: 508440 Nota: C1 Vol.: 65
Chanel 3 Note On - Duracao: 508440 Nota: C1 Vol.: 69
Chanel 4 Note Off - Duracao: 508440 Nota: C1 Vol.: 59
Chanel 4 Note On - Duracao: 508440 Nota: C1 Vol.: 59
Chanel 6 Note Off - Duracao: 508560 Nota: C1 Vol.: 61
Chanel 6 Note On - Duracao: 508560 Nota: C1 Vol.: 62
Chanel 9 Note Off - Duracao: 508620 Nota: C1 Vol.: 72
Chanel 9 Note On - Duracao: 508620 Nota: C1 Vol.: 64
Chanel 3 Note Off - Duracao: 508680 Nota: C1 Vol.: 69
Chanel 3 Note On - Duracao: 508680 Nota: C1 Vol.: 53
Chanel 7 Note Off - Duracao: 508740 Nota: C1 Vol.: 59
Chanel 7 Note On - Duracao: 508740 Nota: C1 Vol.: 58
Chanel 8 Note Off - Duracao: 508740 Nota: C1 Vol.: 53
Chanel 8 Note On - Duracao: 508740 Nota: C1 Vol.: 52
Chanel 7 Note Off - Duracao: 509220 Nota: C1 Vol.: 58
Chanel 7 Note On - Duracao: 509220 Nota: C1 Vol.: 62
Chanel 5 Note Off - Duracao: 509280 Nota: C1 Vol.: 60
Chanel 5 Note On - Duracao: 509280 Nota: C1 Vol.: 51
Chanel 4 Note Off - Duracao: 509400 Nota: C1 Vol.: 59
Chanel 4 Note On - Duracao: 509400 Nota: C1 Vol.: 51
Chanel 7 Note Off - Duracao: 509460 Nota: C1 Vol.: 62
Chanel 7 Note On - Duracao: 509460 Nota: C1 Vol.: 64
Chanel 9 Note Off - Duracao: 509580 Nota: C1 Vol.: 64
Chanel 9 Note On - Duracao: 509580 Nota: C1 Vol.: 66
Chanel 3 Note Off - Duracao: 509640 Nota: C1 Vol.: 53
Chanel 3 Note On - Duracao: 509640 Nota: C1 Vol.: 41
Chanel 7 Note Off - Duracao: 509700 Nota: C1 Vol.: 64
Chanel 7 Note On - Duracao: 509700 Nota: C1 Vol.: 60
Chanel 8 Note Off - Duracao: 509700 Nota: C1 Vol.: 52
Chanel 8 Note On - Duracao: 509700 Nota: C1 Vol.: 48
Chanel 7 Note Off - Duracao: 509940 Nota: C1 Vol.: 60
Chanel 7 Note On - Duracao: 509940 Nota: C1 Vol.: 63
Chanel 9 Note Off - Duracao: 510060 Nota: C1 Vol.: 66
Chanel 9 Note On - Duracao: 510060 Nota: C1 Vol.: 57
Chanel 7 Note Off - Duracao: 510180 Nota: C1 Vol.: 63
Chanel 7 Note On - Duracao: 510180 Nota: C1 Vol.: 63
Chanel 2 Note Off - Duracao: 510300 Nota: C1 Vol.: 47
Chanel 2 Note On - Duracao: 510300 Nota: C1 Vol.: 64
Chanel 4 Note Off - Duracao: 510360 Nota: C1 Vol.: 51
Chanel 4 Note On - Duracao: 510360 Nota: C1 Vol.: 53
Chanel 7 Note Off - Duracao: 510420 Nota: C1 Vol.: 63
Chanel 7 Note On - Duracao: 510420 Nota: C1 Vol.: 59
Chanel 9 Note Off - Duracao: 510540 Nota: C1 Vol.: 57
Chanel 9 Note On - Duracao: 510540 Nota: C1 Vol.: 60
Chanel 7 Note Off - Duracao: 510660 Nota: C1 Vol.: 59
Chanel 7 Note On - Duracao: 510660 Nota: C1 Vol.: 63
Chanel 8 Note Off - Duracao: 510660 Nota: C1 Vol.: 48
Chanel 8 Note On - Duracao: 510660 Nota: C1 Vol.: 45
Chanel 2 Note Off - Duracao: 510780 Nota: C1 Vol.: 64
Chanel 2 Note On - Duracao: 510780 Nota: C1 Vol.: 78
Chanel 7 Note Off - Duracao: 510900 Nota: C1 Vol.: 63
Chanel 7 Note On - Duracao: 510900 Nota: C1 Vol.: 67
Chanel 2 Note Off - Duracao: 511020 Nota: C1 Vol.: 78
Chanel 2 Note On - Duracao: 511020 Nota: C1 Vol.: 60
Chanel 9 Note Off - Duracao: 511020 Nota: C1 Vol.: 60
Chanel 9 Note On - Duracao: 511020 Nota: C1 Vol.: 58
Chanel 7 Note Off - Duracao: 511140 Nota: C1 Vol.: 67
Chanel 7 Note On - Duracao: 511140 Nota: C1 Vol.: 72
Chanel 5 Note Off - Duracao: 511200 Nota: C1 Vol.: 51
Chanel 5 Note On - Duracao: 511200 Nota: C1 Vol.: 58
Chanel 7 Note Off - Duracao: 511260 Nota: C1 Vol.: 72
Chanel 7 Note On - Duracao: 511260 Nota: C1 Vol.: 53
Chanel 4 Note Off - Duracao: 511320 Nota: C1 Vol.: 53
Chanel 4 Note On - Duracao: 511320 Nota: C1 Vol.: 42
Chanel 9 Note Off - Duracao: 511500 Nota: C1 Vol.: 58
Chanel 9 Note On - Duracao: 511500 Nota: C1 Vol.: 63
Chanel 3 Note Off - Duracao: 511560 Nota: C1 Vol.: 41
Chanel 3 Note On - Duracao: 511560 Nota: C1 Vol.: 52
Chanel 8 Note Off - Duracao: 511620 Nota: C1 Vol.: 45
Chanel 8 Note On - Duracao: 511620 Nota: C1 Vol.: 51
Chanel 7 Note Off - Duracao: 511740 Nota: C1 Vol.: 53
Chanel 7 Note On - Duracao: 511740 Nota: C1 Vol.: 56
Chanel 9 Note Off - Duracao: 511740 Nota: C1 Vol.: 63
Chanel 9 Note On - Duracao: 511740 Nota: C1 Vol.: 69
Chanel 2 Note Off - Duracao: 511980 Nota: C1 Vol.: 60
Chanel 2 Note On - Duracao: 511980 Nota: C1 Vol.: 42
Chanel 7 Note Off - Duracao: 511980 Nota: C1 Vol.: 56
Chanel 7 Note On - Duracao: 511980 Nota: C1 Vol.: 60
Chanel 9 Note Off - Duracao: 511980 Nota: C1 Vol.: 69
Chanel 9 Note On - Duracao: 511980 Nota: C1 Vol.: 60
Chanel 7 Note Off - Duracao: 512100 Nota: C1 Vol.: 60
Chanel 7 Note On - Duracao: 512100 Nota: C1 Vol.: 65
Chanel 7 Note Off - Duracao: 512220 Nota: C1 Vol.: 65
Chanel 7 Note On - Duracao: 512220 Nota: C1 Vol.: 63
Chanel 7 Note Off - Duracao: 512340 Nota: C1 Vol.: 63
Chanel 7 Note On - Duracao: 512340 Nota: C1 Vol.: 60
Chanel 6 Note Off - Duracao: 512400 Nota: C1 Vol.: 62
Chanel 6 Note On - Duracao: 512400 Nota: C1 Vol.: 63
Chanel 7 Note Off - Duracao: 512460 Nota: C1 Vol.: 60
Chanel 7 Note On - Duracao: 512460 Nota: C1 Vol.: 58
Chanel 9 Note Off - Duracao: 512460 Nota: C1 Vol.: 60
Chanel 9 Note On - Duracao: 512460 Nota: C1 Vol.: 66
Chanel 3 Note Off - Duracao: 512520 Nota: C1 Vol.: 52
Chanel 3 Note On - Duracao: 512520 Nota: C1 Vol.: 60
Chanel 8 Note Off - Duracao: 512580 Nota: C1 Vol.: 51
Chanel 8 Note On - Duracao: 512580 Nota: C1 Vol.: 53
Chanel 7 Note Off - Duracao: 512700 Nota: C1 Vol.: 58
Chanel 7 Note On - Duracao: 512700 Nota: C1 Vol.: 51
Chanel 7 Note Off - Duracao: 512940 Nota: C1 Vol.: 51
Chanel 7 Note On - Duracao: 512940 Nota: C1 Vol.: 56
Chanel 9 Note Off - Duracao: 512940 Nota: C1 Vol.: 66
Chanel 9 Note On - Duracao: 512940 Nota: C1 Vol.: 72
Chanel 3 Note Off - Duracao: 513000 Nota: C1 Vol.: 60
Chanel 3 Note On - Duracao: 513000 Nota: C1 Vol.: 53
Chanel 5 Note Off - Duracao: 513120 Nota: C1 Vol.: 58
Chanel 5 Note On - Duracao: 513120 Nota: C1 Vol.: 58
Chanel 7 Note Off - Duracao: 513180 Nota: C1 Vol.: 56
Chanel 7 Note On - Duracao: 513180 Nota: C1 Vol.: 57
Chanel 4 Note Off - Duracao: 513240 Nota: C1 Vol.: 42
Chanel 4 Note On - Duracao: 513240 Nota: C1 Vol.: 56
Chanel 7 Note Off - Duracao: 513420 Nota: C1 Vol.: 57
Chanel 7 Note On - Duracao: 513420 Nota: C1 Vol.: 52
Chanel 9 Note Off - Duracao: 513420 Nota: C1 Vol.: 72
Chanel 9 Note On - Duracao: 513420 Nota: C1 Vol.: 74
Chanel 8 Note Off - Duracao: 513540 Nota: C1 Vol.: 53
Chanel 8 Note On - Duracao: 513540 Nota: C1 Vol.: 66
Chanel 4 Note Off - Duracao: 513720 Nota: C1 Vol.: 56
Chanel 4 Note On - Duracao: 513720 Nota: C1 Vol.: 57
Chanel 7 Note Off - Duracao: 513900 Nota: C1 Vol.: 52
Chanel 7 Note On - Duracao: 513900 Nota: C1 Vol.: 46
Chanel 9 Note Off - Duracao: 513900 Nota: C1 Vol.: 74
Chanel 9 Note On - Duracao: 513900 Nota: C1 Vol.: 79
Chanel 3 Note Off - Duracao: 513960 Nota: C1 Vol.: 53
Chanel 3 Note On - Duracao: 513960 Nota: C1 Vol.: 57
Chanel 8 Note Off - Duracao: 514020 Nota: C1 Vol.: 66
Chanel 8 Note On - Duracao: 514020 Nota: C1 Vol.: 64
Chanel 9 Note Off - Duracao: 514140 Nota: C1 Vol.: 79
Chanel 9 Note On - Duracao: 514140 Nota: C1 Vol.: 95
Chanel 4 Note Off - Duracao: 514200 Nota: C1 Vol.: 57
Chanel 4 Note On - Duracao: 514200 Nota: C1 Vol.: 53
Chanel 9 Note Off - Duracao: 514260 Nota: C1 Vol.: 95
Chanel 9 Note On - Duracao: 514260 Nota: C1 Vol.: 95
Chanel 9 Note Off - Duracao: 514320 Nota: C1 Vol.: 95
Chanel 9 Note On - Duracao: 514320 Nota: C1 Vol.: 92
Chanel 3 Note Off - Duracao: 514440 Nota: C1 Vol.: 57
Chanel 3 Note On - Duracao: 514440 Nota: C1 Vol.: 56
Chanel 9 Note Off - Duracao: 514440 Nota: C1 Vol.: 92
Chanel 9 Note On - Duracao: 514440 Nota: C1 Vol.: 68
Chanel 8 Note Off - Duracao: 514500 Nota: C1 Vol.: 64
Chanel 8 Note On - Duracao: 514500 Nota: C1 Vol.: 76
Chanel 8 Note Off - Duracao: 514620 Nota: C1 Vol.: 76
Chanel 8 Note On - Duracao: 514620 Nota: C1 Vol.: 70
Chanel 4 Note Off - Duracao: 514680 Nota: C1 Vol.: 53
Chanel 4 Note On - Duracao: 514680 Nota: C1 Vol.: 53
Chanel 8 Note Off - Duracao: 514740 Nota: C1 Vol.: 70
Chanel 8 Note On - Duracao: 514740 Nota: C1 Vol.: 69
Chanel 7 Note Off - Duracao: 514860 Nota: C1 Vol.: 46
Chanel 7 Note On - Duracao: 514860 Nota: C1 Vol.: 46
Chanel 8 Note Off - Duracao: 514860 Nota: C1 Vol.: 69
Chanel 8 Note On - Duracao: 514860 Nota: C1 Vol.: 60
Chanel 3 Note Off - Duracao: 514920 Nota: C1 Vol.: 56
Chanel 3 Note On - Duracao: 514920 Nota: C1 Vol.: 52
Chanel 9 Note Off - Duracao: 514920 Nota: C1 Vol.: 68
Chanel 9 Note On - Duracao: 514920 Nota: C1 Vol.: 53
Chanel 8 Note Off - Duracao: 515100 Nota: C1 Vol.: 60
Chanel 8 Note On - Duracao: 515100 Nota: C1 Vol.: 66
Chanel 4 Note Off - Duracao: 515160 Nota: C1 Vol.: 53
Chanel 4 Note On - Duracao: 515160 Nota: C1 Vol.: 55
Chanel 8 Note Off - Duracao: 515340 Nota: C1 Vol.: 66
Chanel 8 Note On - Duracao: 515340 Nota: C1 Vol.: 70
Chanel 3 Note Off - Duracao: 515400 Nota: C1 Vol.: 52
Chanel 3 Note On - Duracao: 515400 Nota: C1 Vol.: 63
Chanel 8 Note Off - Duracao: 515460 Nota: C1 Vol.: 70
Chanel 8 Note On - Duracao: 515460 Nota: C1 Vol.: 71
Chanel 8 Note Off - Duracao: 515580 Nota: C1 Vol.: 71
Chanel 8 Note On - Duracao: 515580 Nota: C1 Vol.: 72
Chanel 4 Note Off - Duracao: 515640 Nota: C1 Vol.: 55
Chanel 4 Note On - Duracao: 515640 Nota: C1 Vol.: 57
Chanel 8 Note Off - Duracao: 515700 Nota: C1 Vol.: 72
Chanel 8 Note On - Duracao: 515700 Nota: C1 Vol.: 66
Chanel 2 Note Off - Duracao: 515820 Nota: C1 Vol.: 42
Chanel 2 Note On - Duracao: 515820 Nota: C1 Vol.: 47
Chanel 7 Note Off - Duracao: 515820 Nota: C1 Vol.: 46
Chanel 7 Note On - Duracao: 515820 Nota: C1 Vol.: 53
Chanel 3 Note Off - Duracao: 515880 Nota: C1 Vol.: 63
Chanel 3 Note On - Duracao: 515880 Nota: C1 Vol.: 44
Chanel 9 Note Off - Duracao: 515880 Nota: C1 Vol.: 53
Chanel 9 Note On - Duracao: 515880 Nota: C1 Vol.: 62
Chanel 8 Note Off - Duracao: 515940 Nota: C1 Vol.: 66
Chanel 8 Note On - Duracao: 515940 Nota: C1 Vol.: 56
Chanel 4 Note Off - Duracao: 516120 Nota: C1 Vol.: 57
Chanel 4 Note On - Duracao: 516120 Nota: C1 Vol.: 55
Chanel 6 Note Off - Duracao: 516240 Nota: C1 Vol.: 63
Chanel 6 Note On - Duracao: 516240 Nota: C1 Vol.: 63
Chanel 7 Note Off - Duracao: 516300 Nota: C1 Vol.: 53
Chanel 7 Note On - Duracao: 516300 Nota: C1 Vol.: 65
Chanel 9 Note Off - Duracao: 516360 Nota: C1 Vol.: 62
Chanel 9 Note On - Duracao: 516360 Nota: C1 Vol.: 62
Chanel 7 Note Off - Duracao: 516540 Nota: C1 Vol.: 65
Chanel 7 Note On - Duracao: 516540 Nota: C1 Vol.: 64
Chanel 4 Note Off - Duracao: 516600 Nota: C1 Vol.: 55
Chanel 4 Note On - Duracao: 516600 Nota: C1 Vol.: 53
Chanel 7 Note Off - Duracao: 516780 Nota: C1 Vol.: 64
Chanel 7 Note On - Duracao: 516780 Nota: C1 Vol.: 46
Chanel 9 Note Off - Duracao: 516840 Nota: C1 Vol.: 62
Chanel 9 Note On - Duracao: 516840 Nota: C1 Vol.: 61
Chanel 8 Note Off - Duracao: 516900 Nota: C1 Vol.: 56
Chanel 8 Note On - Duracao: 516900 Nota: C1 Vol.: 68
Chanel 5 Note Off - Duracao: 516960 Nota: C1 Vol.: 58
Chanel 5 Note On - Duracao: 516960 Nota: C1 Vol.: 58
Chanel 8 Note Off - Duracao: 517140 Nota: C1 Vol.: 68
Chanel 8 Note On - Duracao: 517140 Nota: C1 Vol.: 49
Chanel 9 Note Off - Duracao: 517320 Nota: C1 Vol.: 61
Chanel 9 Note On - Duracao: 517320 Nota: C1 Vol.: 45
Chanel 4 Note Off - Duracao: 517560 Nota: C1 Vol.: 53
Chanel 4 Note On - Duracao: 517560 Nota: C1 Vol.: 49
Chanel 2 Note Off - Duracao: 517740 Nota: C1 Vol.: 47
Chanel 2 Note On - Duracao: 517740 Nota: C1 Vol.: 43
Chanel 7 Note Off - Duracao: 517740 Nota: C1 Vol.: 46
Chanel 7 Note On - Duracao: 517740 Nota: C1 Vol.: 56
Chanel 3 Note Off - Duracao: 517800 Nota: C1 Vol.: 44
Chanel 3 Note On - Duracao: 517800 Nota: C1 Vol.: 40
Chanel 8 Note Off - Duracao: 518100 Nota: C1 Vol.: 49
Chanel 8 Note On - Duracao: 518100 Nota: C1 Vol.: 49
Chanel 7 Note Off - Duracao: 518220 Nota: C1 Vol.: 56
Chanel 7 Note On - Duracao: 518220 Nota: C1 Vol.: 58
Chanel 4 Note Off - Duracao: 518520 Nota: C1 Vol.: 49
Chanel 4 Note On - Duracao: 518520 Nota: C1 Vol.: 46
Chanel 7 Note Off - Duracao: 518700 Nota: C1 Vol.: 58
Chanel 7 Note On - Duracao: 518700 Nota: C1 Vol.: 60
Chanel 8 Note Off - Duracao: 519060 Nota: C1 Vol.: 49
Chanel 8 Note On - Duracao: 519060 Nota: C1 Vol.: 54
Chanel 7 Note Off - Duracao: 519180 Nota: C1 Vol.: 60
Chanel 7 Note On - Duracao: 519180 Nota: C1 Vol.: 60
Chanel 9 Note Off - Duracao: 519240 Nota: C1 Vol.: 45
Chanel 9 Note On - Duracao: 519240 Nota: C1 Vol.: 52
Chanel 4 Note Off - Duracao: 519480 Nota: C1 Vol.: 46
Chanel 4 Note On - Duracao: 519480 Nota: C1 Vol.: 45
Chanel 8 Note Off - Duracao: 519540 Nota: C1 Vol.: 54
Chanel 8 Note On - Duracao: 519540 Nota: C1 Vol.: 55
Chanel 7 Note Off - Duracao: 519660 Nota: C1 Vol.: 60
Chanel 7 Note On - Duracao: 519660 Nota: C1 Vol.: 48
Chanel 8 Note Off - Duracao: 520020 Nota: C1 Vol.: 55
Chanel 8 Note On - Duracao: 520020 Nota: C1 Vol.: 56
Chanel 6 Note Off - Duracao: 520080 Nota: C1 Vol.: 63
Chanel 6 Note On - Duracao: 520080 Nota: C1 Vol.: 61
Chanel 9 Note Off - Duracao: 520200 Nota: C1 Vol.: 52
Chanel 9 Note On - Duracao: 520200 Nota: C1 Vol.: 55
Chanel 4 Note Off - Duracao: 520440 Nota: C1 Vol.: 45
Chanel 4 Note On - Duracao: 520440 Nota: C1 Vol.: 47
Chanel 8 Note Off - Duracao: 520500 Nota: C1 Vol.: 56
Chanel 8 Note On - Duracao: 520500 Nota: C1 Vol.: 56
Chanel 7 Note Off - Duracao: 520620 Nota: C1 Vol.: 48
Chanel 7 Note On - Duracao: 520620 Nota: C1 Vol.: 42
Chanel 9 Note Off - Duracao: 520680 Nota: C1 Vol.: 55
Chanel 9 Note On - Duracao: 520680 Nota: C1 Vol.: 58
Chanel 5 Note Off - Duracao: 520800 Nota: C1 Vol.: 58
Chanel 5 Note On - Duracao: 520800 Nota: C1 Vol.: 62
Chanel 8 Note Off - Duracao: 520980 Nota: C1 Vol.: 56
Chanel 8 Note On - Duracao: 520980 Nota: C1 Vol.: 58
Chanel 9 Note Off - Duracao: 521160 Nota: C1 Vol.: 58
Chanel 9 Note On - Duracao: 521160 Nota: C1 Vol.: 60
Chanel 4 Note Off - Duracao: 521400 Nota: C1 Vol.: 47
Chanel 4 Note On - Duracao: 521400 Nota: C1 Vol.: 46
Chanel 8 Note Off - Duracao: 521460 Nota: C1 Vol.: 58
Chanel 8 Note On - Duracao: 521460 Nota: C1 Vol.: 55
Chanel 2 Note Off - Duracao: 521580 Nota: C1 Vol.: 43
Chanel 2 Note On - Duracao: 521580 Nota: C1 Vol.: 42
Chanel 3 Note Off - Duracao: 521640 Nota: C1 Vol.: 40
Chanel 3 Note On - Duracao: 521640 Nota: C1 Vol.: 40
Chanel 9 Note Off - Duracao: 521640 Nota: C1 Vol.: 60
Chanel 9 Note On - Duracao: 521640 Nota: C1 Vol.: 62
Chanel 8 Note Off - Duracao: 521940 Nota: C1 Vol.: 55
Chanel 8 Note On - Duracao: 521940 Nota: C1 Vol.: 56
Chanel 9 Note Off - Duracao: 522120 Nota: C1 Vol.: 62
Chanel 9 Note On - Duracao: 522120 Nota: C1 Vol.: 60
Chanel 4 Note Off - Duracao: 522360 Nota: C1 Vol.: 46
Chanel 4 Note On - Duracao: 522360 Nota: C1 Vol.: 60
Chanel 8 Note Off - Duracao: 522420 Nota: C1 Vol.: 56
Chanel 8 Note On - Duracao: 522420 Nota: C1 Vol.: 57
Chanel 7 Note Off - Duracao: 522540 Nota: C1 Vol.: 42
Chanel 7 Note On - Duracao: 522540 Nota: C1 Vol.: 48
Chanel 9 Note Off - Duracao: 522600 Nota: C1 Vol.: 60
Chanel 9 Note On - Duracao: 522600 Nota: C1 Vol.: 59
Chanel 4 Note Off - Duracao: 522840 Nota: C1 Vol.: 60
Chanel 4 Note On - Duracao: 522840 Nota: C1 Vol.: 62
Chanel 8 Note Off - Duracao: 522900 Nota: C1 Vol.: 57
Chanel 8 Note On - Duracao: 522900 Nota: C1 Vol.: 61
Chanel 9 Note Off - Duracao: 523080 Nota: C1 Vol.: 59
Chanel 9 Note On - Duracao: 523080 Nota: C1 Vol.: 58
Chanel 8 Note Off - Duracao: 523140 Nota: C1 Vol.: 61
Chanel 8 Note On - Duracao: 523140 Nota: C1 Vol.: 42
Chanel 4 Note Off - Duracao: 523320 Nota: C1 Vol.: 62
Chanel 4 Note On - Duracao: 523320 Nota: C1 Vol.: 58
Chanel 2 Note Off - Duracao: 523500 Nota: C1 Vol.: 42
Chanel 2 Note On - Duracao: 523500 Nota: C1 Vol.: 40
Chanel 7 Note Off - Duracao: 523500 Nota: C1 Vol.: 48
Chanel 7 Note On - Duracao: 523500 Nota: C1 Vol.: 50
Chanel 9 Note Off - Duracao: 523560 Nota: C1 Vol.: 58
Chanel 9 Note On - Duracao: 523560 Nota: C1 Vol.: 59
Chanel 4 Note Off - Duracao: 523800 Nota: C1 Vol.: 58
Chanel 4 Note On - Duracao: 523800 Nota: C1 Vol.: 40
Chanel 6 Note Off - Duracao: 523920 Nota: C1 Vol.: 61
Chanel 6 Note On - Duracao: 523920 Nota: C1 Vol.: 61
Chanel 9 Note Off - Duracao: 524040 Nota: C1 Vol.: 59
Chanel 9 Note On - Duracao: 524040 Nota: C1 Vol.: 58
Chanel 8 Note Off - Duracao: 524100 Nota: C1 Vol.: 42
Chanel 8 Note On - Duracao: 524100 Nota: C1 Vol.: 50
Chanel 7 Note Off - Duracao: 524460 Nota: C1 Vol.: 50
Chanel 7 Note On - Duracao: 524460 Nota: C1 Vol.: 54
Chanel 9 Note Off - Duracao: 524520 Nota: C1 Vol.: 58
Chanel 9 Note On - Duracao: 524520 Nota: C1 Vol.: 59
Chanel 8 Note Off - Duracao: 524580 Nota: C1 Vol.: 50
Chanel 8 Note On - Duracao: 524580 Nota: C1 Vol.: 64
Chanel 5 Note Off - Duracao: 524640 Nota: C1 Vol.: 62
Chanel 5 Note On - Duracao: 524640 Nota: C1 Vol.: 64
Chanel 8 Note Off - Duracao: 524820 Nota: C1 Vol.: 64
Chanel 8 Note On - Duracao: 524820 Nota: C1 Vol.: 70
Chanel 8 Note Off - Duracao: 524940 Nota: C1 Vol.: 70
Chanel 8 Note On - Duracao: 524940 Nota: C1 Vol.: 70
Chanel 9 Note Off - Duracao: 525000 Nota: C1 Vol.: 59
Chanel 9 Note On - Duracao: 525000 Nota: C1 Vol.: 63
Chanel 8 Note Off - Duracao: 525060 Nota: C1 Vol.: 70
Chanel 8 Note On - Duracao: 525060 Nota: C1 Vol.: 64
Chanel 8 Note Off - Duracao: 525180 Nota: C1 Vol.: 64
Chanel 8 Note On - Duracao: 525180 Nota: C1 Vol.: 59
Chanel 8 Note Off - Duracao: 525300 Nota: C1 Vol.: 59
Chanel 8 Note On - Duracao: 525300 Nota: C1 Vol.: 50
Chanel 7 Note Off - Duracao: 525420 Nota: C1 Vol.: 54
Chanel 7 Note On - Duracao: 525420 Nota: C1 Vol.: 51
Chanel 3 Note Off - Duracao: 525480 Nota: C1 Vol.: 40
Chanel 3 Note On - Duracao: 525480 Nota: C1 Vol.: 43
Chanel 9 Note Off - Duracao: 525480 Nota: C1 Vol.: 63
Chanel 9 Note On - Duracao: 525480 Nota: C1 Vol.: 70
Chanel 8 Note Off - Duracao: 525540 Nota: C1 Vol.: 50
Chanel 8 Note On - Duracao: 525540 Nota: C1 Vol.: 56
Chanel 8 Note Off - Duracao: 525660 Nota: C1 Vol.: 56
Chanel 8 Note On - Duracao: 525660 Nota: C1 Vol.: 50
Chanel 4 Note Off - Duracao: 525720 Nota: C1 Vol.: 40
Chanel 4 Note On - Duracao: 525720 Nota: C1 Vol.: 57
Chanel 9 Note Off - Duracao: 525720 Nota: C1 Vol.: 70
Chanel 9 Note On - Duracao: 525720 Nota: C1 Vol.: 64
Chanel 8 Note Off - Duracao: 525780 Nota: C1 Vol.: 50
Chanel 8 Note On - Duracao: 525780 Nota: C1 Vol.: 48
Chanel 8 Note Off - Duracao: 526020 Nota: C1 Vol.: 48
Chanel 8 Note On - Duracao: 526020 Nota: C1 Vol.: 50
Chanel 4 Note Off - Duracao: 526200 Nota: C1 Vol.: 57
Chanel 4 Note On - Duracao: 526200 Nota: C1 Vol.: 64
Chanel 9 Note Off - Duracao: 526200 Nota: C1 Vol.: 64
Chanel 9 Note On - Duracao: 526200 Nota: C1 Vol.: 67
Chanel 8 Note Off - Duracao: 526260 Nota: C1 Vol.: 50
Chanel 8 Note On - Duracao: 526260 Nota: C1 Vol.: 56
Chanel 7 Note Off - Duracao: 526380 Nota: C1 Vol.: 51
Chanel 7 Note On - Duracao: 526380 Nota: C1 Vol.: 50
Chanel 8 Note Off - Duracao: 526380 Nota: C1 Vol.: 56
Chanel 8 Note On - Duracao: 526380 Nota: C1 Vol.: 54
Chanel 4 Note Off - Duracao: 526440 Nota: C1 Vol.: 64
Chanel 4 Note On - Duracao: 526440 Nota: C1 Vol.: 68
Chanel 9 Note Off - Duracao: 526440 Nota: C1 Vol.: 67
Chanel 9 Note On - Duracao: 526440 Nota: C1 Vol.: 69
Chanel 8 Note Off - Duracao: 526500 Nota: C1 Vol.: 54
Chanel 8 Note On - Duracao: 526500 Nota: C1 Vol.: 53
Chanel 8 Note Off - Duracao: 526620 Nota: C1 Vol.: 53
Chanel 8 Note On - Duracao: 526620 Nota: C1 Vol.: 54
Chanel 4 Note Off - Duracao: 526680 Nota: C1 Vol.: 68
Chanel 4 Note On - Duracao: 526680 Nota: C1 Vol.: 71
Chanel 9 Note Off - Duracao: 526680 Nota: C1 Vol.: 69
Chanel 9 Note On - Duracao: 526680 Nota: C1 Vol.: 71
Chanel 8 Note Off - Duracao: 526740 Nota: C1 Vol.: 54
Chanel 8 Note On - Duracao: 526740 Nota: C1 Vol.: 51
Chanel 8 Note Off - Duracao: 526860 Nota: C1 Vol.: 51
Chanel 8 Note On - Duracao: 526860 Nota: C1 Vol.: 43
Chanel 4 Note Off - Duracao: 526920 Nota: C1 Vol.: 71
Chanel 4 Note On - Duracao: 526920 Nota: C1 Vol.: 69
Chanel 9 Note Off - Duracao: 526920 Nota: C1 Vol.: 71
Chanel 9 Note On - Duracao: 526920 Nota: C1 Vol.: 69
Chanel 8 Note Off - Duracao: 527100 Nota: C1 Vol.: 43
Chanel 8 Note On - Duracao: 527100 Nota: C1 Vol.: 49
Chanel 4 Note Off - Duracao: 527160 Nota: C1 Vol.: 69
Chanel 4 Note On - Duracao: 527160 Nota: C1 Vol.: 63
Chanel 9 Note Off - Duracao: 527160 Nota: C1 Vol.: 69
Chanel 9 Note On - Duracao: 527160 Nota: C1 Vol.: 69
Chanel 8 Note Off - Duracao: 527220 Nota: C1 Vol.: 49
Chanel 8 Note On - Duracao: 527220 Nota: C1 Vol.: 49
Chanel 2 Note Off - Duracao: 527340 Nota: C1 Vol.: 40
Chanel 2 Note On - Duracao: 527340 Nota: C1 Vol.: 40
Chanel 7 Note Off - Duracao: 527340 Nota: C1 Vol.: 50
Chanel 7 Note On - Duracao: 527340 Nota: C1 Vol.: 60
Chanel 8 Note Off - Duracao: 527340 Nota: C1 Vol.: 49
Chanel 8 Note On - Duracao: 527340 Nota: C1 Vol.: 50
Chanel 3 Note Off - Duracao: 527400 Nota: C1 Vol.: 43
Chanel 3 Note On - Duracao: 527400 Nota: C1 Vol.: 44
Chanel 9 Note Off - Duracao: 527400 Nota: C1 Vol.: 69
Chanel 9 Note On - Duracao: 527400 Nota: C1 Vol.: 66
Chanel 8 Note Off - Duracao: 527580 Nota: C1 Vol.: 50
Chanel 8 Note On - Duracao: 527580 Nota: C1 Vol.: 44
Chanel 4 Note Off - Duracao: 527640 Nota: C1 Vol.: 63
Chanel 4 Note On - Duracao: 527640 Nota: C1 Vol.: 83
Chanel 4 Note Off - Duracao: 527760 Nota: C1 Vol.: 83
Chanel 4 Note On - Duracao: 527760 Nota: C1 Vol.: 70
Chanel 6 Note Off - Duracao: 527760 Nota: C1 Vol.: 61
Chanel 6 Note On - Duracao: 527760 Nota: C1 Vol.: 65
Chanel 2 Note Off - Duracao: 527820 Nota: C1 Vol.: 40
Chanel 2 Note On - Duracao: 527820 Nota: C1 Vol.: 48
Chanel 7 Note Off - Duracao: 527820 Nota: C1 Vol.: 60
Chanel 7 Note On - Duracao: 527820 Nota: C1 Vol.: 60
Chanel 9 Note Off - Duracao: 527880 Nota: C1 Vol.: 66
Chanel 9 Note On - Duracao: 527880 Nota: C1 Vol.: 62
Chanel 2 Note Off - Duracao: 527940 Nota: C1 Vol.: 48
Chanel 2 Note On - Duracao: 527940 Nota: C1 Vol.: 44
Chanel 4 Note Off - Duracao: 528000 Nota: C1 Vol.: 70
Chanel 4 Note On - Duracao: 528000 Nota: C1 Vol.: 50
Chanel 2 Note Off - Duracao: 528060 Nota: C1 Vol.: 44
Chanel 2 Note On - Duracao: 528060 Nota: C1 Vol.: 43
Chanel 8 Note Off - Duracao: 528060 Nota: C1 Vol.: 44
Chanel 8 Note On - Duracao: 528060 Nota: C1 Vol.: 55
Chanel 2 Note Off - Duracao: 528180 Nota: C1 Vol.: 43
Chanel 2 Note On - Duracao: 528180 Nota: C1 Vol.: 45
Chanel 2 Note Off - Duracao: 528300 Nota: C1 Vol.: 45
Chanel 2 Note On - Duracao: 528300 Nota: C1 Vol.: 45
Chanel 7 Note Off - Duracao: 528300 Nota: C1 Vol.: 60
Chanel 7 Note On - Duracao: 528300 Nota: C1 Vol.: 59
Chanel 8 Note Off - Duracao: 528300 Nota: C1 Vol.: 55
Chanel 8 Note On - Duracao: 528300 Nota: C1 Vol.: 54
Chanel 9 Note Off - Duracao: 528360 Nota: C1 Vol.: 62
Chanel 9 Note On - Duracao: 528360 Nota: C1 Vol.: 61
Chanel 2 Note Off - Duracao: 528420 Nota: C1 Vol.: 45
Chanel 2 Note On - Duracao: 528420 Nota: C1 Vol.: 41
Chanel 5 Note Off - Duracao: 528480 Nota: C1 Vol.: 64
Chanel 5 Note On - Duracao: 528480 Nota: C1 Vol.: 63
Chanel 2 Note Off - Duracao: 528540 Nota: C1 Vol.: 41
Chanel 2 Note On - Duracao: 528540 Nota: C1 Vol.: 40
Chanel 2 Note Off - Duracao: 528660 Nota: C1 Vol.: 40
Chanel 2 Note On - Duracao: 528660 Nota: C1 Vol.: 44
Chanel 2 Note Off - Duracao: 528780 Nota: C1 Vol.: 44
Chanel 2 Note On - Duracao: 528780 Nota: C1 Vol.: 50
Chanel 7 Note Off - Duracao: 528780 Nota: C1 Vol.: 59
Chanel 7 Note On - Duracao: 528780 Nota: C1 Vol.: 60
Chanel 8 Note Off - Duracao: 528780 Nota: C1 Vol.: 54
Chanel 8 Note On - Duracao: 528780 Nota: C1 Vol.: 46
Chanel 9 Note Off - Duracao: 528840 Nota: C1 Vol.: 61
Chanel 9 Note On - Duracao: 528840 Nota: C1 Vol.: 61
Chanel 2 Note Off - Duracao: 528900 Nota: C1 Vol.: 50
Chanel 2 Note On - Duracao: 528900 Nota: C1 Vol.: 62
Chanel 4 Note Off - Duracao: 528960 Nota: C1 Vol.: 50
Chanel 4 Note On - Duracao: 528960 Nota: C1 Vol.: 47
Chanel 2 Note Off - Duracao: 529020 Nota: C1 Vol.: 62
Chanel 2 Note On - Duracao: 529020 Nota: C1 Vol.: 40
Chanel 7 Note Off - Duracao: 529260 Nota: C1 Vol.: 60
Chanel 7 Note On - Duracao: 529260 Nota: C1 Vol.: 63
Chanel 9 Note Off - Duracao: 529320 Nota: C1 Vol.: 61
Chanel 9 Note On - Duracao: 529320 Nota: C1 Vol.: 57
Chanel 7 Note Off - Duracao: 529740 Nota: C1 Vol.: 63
Chanel 7 Note On - Duracao: 529740 Nota: C1 Vol.: 70
Chanel 8 Note Off - Duracao: 529740 Nota: C1 Vol.: 46
Chanel 8 Note On - Duracao: 529740 Nota: C1 Vol.: 49
Chanel 7 Note Off - Duracao: 530220 Nota: C1 Vol.: 70
Chanel 7 Note On - Duracao: 530220 Nota: C1 Vol.: 71
Chanel 9 Note Off - Duracao: 530280 Nota: C1 Vol.: 57
Chanel 9 Note On - Duracao: 530280 Nota: C1 Vol.: 54
Chanel 7 Note Off - Duracao: 530700 Nota: C1 Vol.: 71
Chanel 7 Note On - Duracao: 530700 Nota: C1 Vol.: 51
Chanel 8 Note Off - Duracao: 530700 Nota: C1 Vol.: 49
Chanel 8 Note On - Duracao: 530700 Nota: C1 Vol.: 53
Chanel 4 Note Off - Duracao: 530880 Nota: C1 Vol.: 47
Chanel 4 Note On - Duracao: 530880 Nota: C1 Vol.: 48
Chanel 2 Note Off - Duracao: 530940 Nota: C1 Vol.: 40
Chanel 2 Note On - Duracao: 530940 Nota: C1 Vol.: 52
Chanel 3 Note Off - Duracao: 531240 Nota: C1 Vol.: 44
Chanel 3 Note On - Duracao: 531240 Nota: C1 Vol.: 67
Chanel 9 Note Off - Duracao: 531240 Nota: C1 Vol.: 54
Chanel 9 Note On - Duracao: 531240 Nota: C1 Vol.: 55
Chanel 2 Note Off - Duracao: 531420 Nota: C1 Vol.: 52
Chanel 2 Note On - Duracao: 531420 Nota: C1 Vol.: 60
Chanel 6 Note Off - Duracao: 531600 Nota: C1 Vol.: 65
Chanel 6 Note On - Duracao: 531600 Nota: C1 Vol.: 70
Chanel 2 Note Off - Duracao: 531660 Nota: C1 Vol.: 60
Chanel 2 Note On - Duracao: 531660 Nota: C1 Vol.: 54
Chanel 8 Note Off - Duracao: 531660 Nota: C1 Vol.: 53
Chanel 8 Note On - Duracao: 531660 Nota: C1 Vol.: 58
Chanel 2 Note Off - Duracao: 532140 Nota: C1 Vol.: 54
Chanel 2 Note On - Duracao: 532140 Nota: C1 Vol.: 62
Chanel 8 Note Off - Duracao: 532140 Nota: C1 Vol.: 58
Chanel 8 Note On - Duracao: 532140 Nota: C1 Vol.: 50
Chanel 3 Note Off - Duracao: 532200 Nota: C1 Vol.: 67
Chanel 3 Note On - Duracao: 532200 Nota: C1 Vol.: 70
Chanel 9 Note Off - Duracao: 532200 Nota: C1 Vol.: 55
Chanel 9 Note On - Duracao: 532200 Nota: C1 Vol.: 61
Chanel 5 Note Off - Duracao: 532320 Nota: C1 Vol.: 63
Chanel 5 Note On - Duracao: 532320 Nota: C1 Vol.: 62
Chanel 2 Note Off - Duracao: 532620 Nota: C1 Vol.: 62
Chanel 2 Note On - Duracao: 532620 Nota: C1 Vol.: 72
Chanel 7 Note Off - Duracao: 532620 Nota: C1 Vol.: 51
Chanel 7 Note On - Duracao: 532620 Nota: C1 Vol.: 53
Chanel 9 Note Off - Duracao: 532680 Nota: C1 Vol.: 61
Chanel 9 Note On - Duracao: 532680 Nota: C1 Vol.: 62
Chanel 4 Note Off - Duracao: 532800 Nota: C1 Vol.: 48
Chanel 4 Note On - Duracao: 532800 Nota: C1 Vol.: 41
Chanel 2 Note Off - Duracao: 532860 Nota: C1 Vol.: 72
Chanel 2 Note On - Duracao: 532860 Nota: C1 Vol.: 69
Chanel 2 Note Off - Duracao: 533100 Nota: C1 Vol.: 69
Chanel 2 Note On - Duracao: 533100 Nota: C1 Vol.: 68
Chanel 8 Note Off - Duracao: 533100 Nota: C1 Vol.: 50
Chanel 8 Note On - Duracao: 533100 Nota: C1 Vol.: 54
Chanel 3 Note Off - Duracao: 533160 Nota: C1 Vol.: 70
Chanel 3 Note On - Duracao: 533160 Nota: C1 Vol.: 70
Chanel 9 Note Off - Duracao: 533160 Nota: C1 Vol.: 62
Chanel 9 Note On - Duracao: 533160 Nota: C1 Vol.: 70
Chanel 2 Note Off - Duracao: 533340 Nota: C1 Vol.: 68
Chanel 2 Note On - Duracao: 533340 Nota: C1 Vol.: 70
Chanel 6 Note Off - Duracao: 533520 Nota: C1 Vol.: 70
Chanel 6 Note On - Duracao: 533520 Nota: C1 Vol.: 71
Chanel 2 Note Off - Duracao: 533580 Nota: C1 Vol.: 70
Chanel 2 Note On - Duracao: 533580 Nota: C1 Vol.: 91
Chanel 7 Note Off - Duracao: 533580 Nota: C1 Vol.: 53
Chanel 7 Note On - Duracao: 533580 Nota: C1 Vol.: 53
Chanel 8 Note Off - Duracao: 533580 Nota: C1 Vol.: 54
Chanel 8 Note On - Duracao: 533580 Nota: C1 Vol.: 54
Chanel 9 Note Off - Duracao: 533640 Nota: C1 Vol.: 70
Chanel 9 Note On - Duracao: 533640 Nota: C1 Vol.: 78
Chanel 2 Note Off - Duracao: 533700 Nota: C1 Vol.: 91
Chanel 2 Note On - Duracao: 533700 Nota: C1 Vol.: 85
Chanel 9 Note Off - Duracao: 533880 Nota: C1 Vol.: 78
Chanel 9 Note On - Duracao: 533880 Nota: C1 Vol.: 75
Chanel 2 Note Off - Duracao: 533940 Nota: C1 Vol.: 85
Chanel 2 Note On - Duracao: 533940 Nota: C1 Vol.: 81
Chanel 8 Note Off - Duracao: 534060 Nota: C1 Vol.: 54
Chanel 8 Note On - Duracao: 534060 Nota: C1 Vol.: 52
Chanel 2 Note Off - Duracao: 534180 Nota: C1 Vol.: 81
Chanel 2 Note On - Duracao: 534180 Nota: C1 Vol.: 81
Chanel 9 Note Off - Duracao: 534360 Nota: C1 Vol.: 75
Chanel 9 Note On - Duracao: 534360 Nota: C1 Vol.: 74
Chanel 2 Note Off - Duracao: 534420 Nota: C1 Vol.: 81
Chanel 2 Note On - Duracao: 534420 Nota: C1 Vol.: 78
Chanel 7 Note Off - Duracao: 534540 Nota: C1 Vol.: 53
Chanel 7 Note On - Duracao: 534540 Nota: C1 Vol.: 52
Chanel 8 Note Off - Duracao: 534540 Nota: C1 Vol.: 52
Chanel 8 Note On - Duracao: 534540 Nota: C1 Vol.: 54
Chanel 9 Note Off - Duracao: 534840 Nota: C1 Vol.: 74
Chanel 9 Note On - Duracao: 534840 Nota: C1 Vol.: 82
Chanel 2 Note Off - Duracao: 534900 Nota: C1 Vol.: 78
Chanel 2 Note On - Duracao: 534900 Nota: C1 Vol.: 76
Chanel 8 Note Off - Duracao: 535020 Nota: C1 Vol.: 54
Chanel 8 Note On - Duracao: 535020 Nota: C1 Vol.: 59
Chanel 3 Note Off - Duracao: 535080 Nota: C1 Vol.: 70
Chanel 3 Note On - Duracao: 535080 Nota: C1 Vol.: 68
Chanel 9 Note Off - Duracao: 535080 Nota: C1 Vol.: 82
Chanel 9 Note On - Duracao: 535080 Nota: C1 Vol.: 84
Chanel 9 Note Off - Duracao: 535320 Nota: C1 Vol.: 84
Chanel 9 Note On - Duracao: 535320 Nota: C1 Vol.: 84
Chanel 2 Note Off - Duracao: 535380 Nota: C1 Vol.: 76
Chanel 2 Note On - Duracao: 535380 Nota: C1 Vol.: 76
Chanel 6 Note Off - Duracao: 535440 Nota: C1 Vol.: 71
Chanel 6 Note On - Duracao: 535440 Nota: C1 Vol.: 70
Chanel 8 Note Off - Duracao: 535500 Nota: C1 Vol.: 59
Chanel 8 Note On - Duracao: 535500 Nota: C1 Vol.: 53
Chanel 9 Note Off - Duracao: 535560 Nota: C1 Vol.: 84
Chanel 9 Note On - Duracao: 535560 Nota: C1 Vol.: 84
Chanel 2 Note Off - Duracao: 535620 Nota: C1 Vol.: 76
Chanel 2 Note On - Duracao: 535620 Nota: C1 Vol.: 78
Chanel 9 Note Off - Duracao: 535800 Nota: C1 Vol.: 84
Chanel 9 Note On - Duracao: 535800 Nota: C1 Vol.: 83
Chanel 2 Note Off - Duracao: 535860 Nota: C1 Vol.: 78
Chanel 2 Note On - Duracao: 535860 Nota: C1 Vol.: 78
Chanel 8 Note Off - Duracao: 535980 Nota: C1 Vol.: 53
Chanel 8 Note On - Duracao: 535980 Nota: C1 Vol.: 48
Chanel 9 Note Off - Duracao: 536040 Nota: C1 Vol.: 83
Chanel 9 Note On - Duracao: 536040 Nota: C1 Vol.: 84
Chanel 2 Note Off - Duracao: 536100 Nota: C1 Vol.: 78
Chanel 2 Note On - Duracao: 536100 Nota: C1 Vol.: 76
Chanel 5 Note Off - Duracao: 536160 Nota: C1 Vol.: 62
Chanel 5 Note On - Duracao: 536160 Nota: C1 Vol.: 64
Chanel 9 Note Off - Duracao: 536280 Nota: C1 Vol.: 84
Chanel 9 Note On - Duracao: 536280 Nota: C1 Vol.: 84
Chanel 2 Note Off - Duracao: 536340 Nota: C1 Vol.: 76
Chanel 2 Note On - Duracao: 536340 Nota: C1 Vol.: 75
Chanel 7 Note Off - Duracao: 536460 Nota: C1 Vol.: 52
Chanel 7 Note On - Duracao: 536460 Nota: C1 Vol.: 51
Chanel 9 Note Off - Duracao: 536520 Nota: C1 Vol.: 84
Chanel 9 Note On - Duracao: 536520 Nota: C1 Vol.: 84
Chanel 4 Note Off - Duracao: 536640 Nota: C1 Vol.: 41
Chanel 4 Note On - Duracao: 536640 Nota: C1 Vol.: 66
Chanel 9 Note Off - Duracao: 536760 Nota: C1 Vol.: 84
Chanel 9 Note On - Duracao: 536760 Nota: C1 Vol.: 84
Chanel 2 Note Off - Duracao: 536820 Nota: C1 Vol.: 75
Chanel 2 Note On - Duracao: 536820 Nota: C1 Vol.: 82
Chanel 8 Note Off - Duracao: 536940 Nota: C1 Vol.: 48
Chanel 8 Note On - Duracao: 536940 Nota: C1 Vol.: 54
Chanel 3 Note Off - Duracao: 537000 Nota: C1 Vol.: 68
Chanel 3 Note On - Duracao: 537000 Nota: C1 Vol.: 74
Chanel 9 Note Off - Duracao: 537000 Nota: C1 Vol.: 84
Chanel 9 Note On - Duracao: 537000 Nota: C1 Vol.: 85
Chanel 2 Note Off - Duracao: 537060 Nota: C1 Vol.: 82
Chanel 2 Note On - Duracao: 537060 Nota: C1 Vol.: 75
Chanel 4 Note Off - Duracao: 537120 Nota: C1 Vol.: 66
Chanel 4 Note On - Duracao: 537120 Nota: C1 Vol.: 63
Chanel 9 Note Off - Duracao: 537240 Nota: C1 Vol.: 85
Chanel 9 Note On - Duracao: 537240 Nota: C1 Vol.: 87
Chanel 6 Note Off - Duracao: 537360 Nota: C1 Vol.: 70
Chanel 6 Note On - Duracao: 537360 Nota: C1 Vol.: 70
Chanel 8 Note Off - Duracao: 537420 Nota: C1 Vol.: 54
Chanel 8 Note On - Duracao: 537420 Nota: C1 Vol.: 51
Chanel 9 Note Off - Duracao: 537480 Nota: C1 Vol.: 87
Chanel 9 Note On - Duracao: 537480 Nota: C1 Vol.: 86
Chanel 2 Note Off - Duracao: 537540 Nota: C1 Vol.: 75
Chanel 2 Note On - Duracao: 537540 Nota: C1 Vol.: 81
Chanel 4 Note Off - Duracao: 537600 Nota: C1 Vol.: 63
Chanel 4 Note On - Duracao: 537600 Nota: C1 Vol.: 61
Chanel 9 Note Off - Duracao: 537720 Nota: C1 Vol.: 86
Chanel 9 Note On - Duracao: 537720 Nota: C1 Vol.: 86
Chanel 2 Note Off - Duracao: 537780 Nota: C1 Vol.: 81
Chanel 2 Note On - Duracao: 537780 Nota: C1 Vol.: 85
Chanel 4 Note Off - Duracao: 537840 Nota: C1 Vol.: 61
Chanel 4 Note On - Duracao: 537840 Nota: C1 Vol.: 57
Chanel 8 Note Off - Duracao: 537900 Nota: C1 Vol.: 51
Chanel 8 Note On - Duracao: 537900 Nota: C1 Vol.: 52
Chanel 3 Note Off - Duracao: 537960 Nota: C1 Vol.: 74
Chanel 3 Note On - Duracao: 537960 Nota: C1 Vol.: 76
Chanel 9 Note Off - Duracao: 537960 Nota: C1 Vol.: 86
Chanel 9 Note On - Duracao: 537960 Nota: C1 Vol.: 83
Chanel 2 Note Off - Duracao: 538020 Nota: C1 Vol.: 85
Chanel 2 Note On - Duracao: 538020 Nota: C1 Vol.: 83
Chanel 5 Note Off - Duracao: 538080 Nota: C1 Vol.: 64
Chanel 5 Note On - Duracao: 538080 Nota: C1 Vol.: 63
Chanel 9 Note Off - Duracao: 538200 Nota: C1 Vol.: 83
Chanel 9 Note On - Duracao: 538200 Nota: C1 Vol.: 81
Chanel 2 Note Off - Duracao: 538260 Nota: C1 Vol.: 83
Chanel 2 Note On - Duracao: 538260 Nota: C1 Vol.: 79
Chanel 4 Note Off - Duracao: 538320 Nota: C1 Vol.: 57
Chanel 4 Note On - Duracao: 538320 Nota: C1 Vol.: 60
Chanel 7 Note Off - Duracao: 538380 Nota: C1 Vol.: 51
Chanel 7 Note On - Duracao: 538380 Nota: C1 Vol.: 52
Chanel 8 Note Off - Duracao: 538380 Nota: C1 Vol.: 52
Chanel 8 Note On - Duracao: 538380 Nota: C1 Vol.: 59
Chanel 9 Note Off - Duracao: 538440 Nota: C1 Vol.: 81
Chanel 9 Note On - Duracao: 538440 Nota: C1 Vol.: 75
Chanel 8 Note Off - Duracao: 538620 Nota: C1 Vol.: 59
Chanel 8 Note On - Duracao: 538620 Nota: C1 Vol.: 65
Chanel 2 Note Off - Duracao: 538740 Nota: C1 Vol.: 79
Chanel 2 Note On - Duracao: 538740 Nota: C1 Vol.: 84
Chanel 8 Note Off - Duracao: 538740 Nota: C1 Vol.: 65
Chanel 8 Note On - Duracao: 538740 Nota: C1 Vol.: 60
Chanel 4 Note Off - Duracao: 538800 Nota: C1 Vol.: 60
Chanel 4 Note On - Duracao: 538800 Nota: C1 Vol.: 60
Chanel 3 Note Off - Duracao: 538920 Nota: C1 Vol.: 76
Chanel 3 Note On - Duracao: 538920 Nota: C1 Vol.: 76
Chanel 9 Note Off - Duracao: 538920 Nota: C1 Vol.: 75
Chanel 9 Note On - Duracao: 538920 Nota: C1 Vol.: 73
Chanel 2 Note Off - Duracao: 538980 Nota: C1 Vol.: 84
Chanel 2 Note On - Duracao: 538980 Nota: C1 Vol.: 86
Chanel 8 Note Off - Duracao: 538980 Nota: C1 Vol.: 60
Chanel 8 Note On - Duracao: 538980 Nota: C1 Vol.: 61
Chanel 4 Note Off - Duracao: 539040 Nota: C1 Vol.: 60
Chanel 4 Note On - Duracao: 539040 Nota: C1 Vol.: 61
Chanel 2 Note Off - Duracao: 539220 Nota: C1 Vol.: 86
Chanel 2 Note On - Duracao: 539220 Nota: C1 Vol.: 81
Chanel 8 Note Off - Duracao: 539220 Nota: C1 Vol.: 61
Chanel 8 Note On - Duracao: 539220 Nota: C1 Vol.: 53
Chanel 4 Note Off - Duracao: 539280 Nota: C1 Vol.: 61
Chanel 4 Note On - Duracao: 539280 Nota: C1 Vol.: 63
Chanel 6 Note Off - Duracao: 539280 Nota: C1 Vol.: 70
Chanel 6 Note On - Duracao: 539280 Nota: C1 Vol.: 72
Chanel 9 Note Off - Duracao: 539400 Nota: C1 Vol.: 73
Chanel 9 Note On - Duracao: 539400 Nota: C1 Vol.: 73
Chanel 2 Note Off - Duracao: 539460 Nota: C1 Vol.: 81
Chanel 2 Note On - Duracao: 539460 Nota: C1 Vol.: 70
Chanel 8 Note Off - Duracao: 539460 Nota: C1 Vol.: 53
Chanel 8 Note On - Duracao: 539460 Nota: C1 Vol.: 52
Chanel 4 Note Off - Duracao: 539520 Nota: C1 Vol.: 63
Chanel 4 Note On - Duracao: 539520 Nota: C1 Vol.: 64
Chanel 8 Note Off - Duracao: 539700 Nota: C1 Vol.: 52
Chanel 8 Note On - Duracao: 539700 Nota: C1 Vol.: 56
Chanel 4 Note Off - Duracao: 539760 Nota: C1 Vol.: 64
Chanel 4 Note On - Duracao: 539760 Nota: C1 Vol.: 69
Chanel 3 Note Off - Duracao: 539880 Nota: C1 Vol.: 76
Chanel 3 Note On - Duracao: 539880 Nota: C1 Vol.: 76
Chanel 9 Note Off - Duracao: 539880 Nota: C1 Vol.: 73
Chanel 9 Note On - Duracao: 539880 Nota: C1 Vol.: 71
Chanel 2 Note Off - Duracao: 539940 Nota: C1 Vol.: 70
Chanel 2 Note On - Duracao: 539940 Nota: C1 Vol.: 73
Chanel 8 Note Off - Duracao: 539940 Nota: C1 Vol.: 56
Chanel 8 Note On - Duracao: 539940 Nota: C1 Vol.: 61
Chanel 4 Note Off - Duracao: 540000 Nota: C1 Vol.: 69
Chanel 4 Note On - Duracao: 540000 Nota: C1 Vol.: 71
Chanel 5 Note Off - Duracao: 540000 Nota: C1 Vol.: 63
Chanel 5 Note On - Duracao: 540000 Nota: C1 Vol.: 57
Chanel 4 Note Off - Duracao: 540120 Nota: C1 Vol.: 71
Chanel 4 Note On - Duracao: 540120 Nota: C1 Vol.: 70
Chanel 2 Note Off - Duracao: 540180 Nota: C1 Vol.: 73
Chanel 2 Note On - Duracao: 540180 Nota: C1 Vol.: 73
Chanel 8 Note Off - Duracao: 540180 Nota: C1 Vol.: 61
Chanel 8 Note On - Duracao: 540180 Nota: C1 Vol.: 61
Chanel 2 Note Off - Duracao: 540300 Nota: C1 Vol.: 73
Chanel 2 Note On - Duracao: 540300 Nota: C1 Vol.: 62
Chanel 7 Note Off - Duracao: 540300 Nota: C1 Vol.: 52
Chanel 7 Note On - Duracao: 540300 Nota: C1 Vol.: 55
Chanel 4 Note Off - Duracao: 540360 Nota: C1 Vol.: 70
Chanel 4 Note On - Duracao: 540360 Nota: C1 Vol.: 74
Chanel 9 Note Off - Duracao: 540360 Nota: C1 Vol.: 71
Chanel 9 Note On - Duracao: 540360 Nota: C1 Vol.: 71
Chanel 8 Note Off - Duracao: 540420 Nota: C1 Vol.: 61
Chanel 8 Note On - Duracao: 540420 Nota: C1 Vol.: 64
Chanel 4 Note Off - Duracao: 540480 Nota: C1 Vol.: 74
Chanel 4 Note On - Duracao: 540480 Nota: C1 Vol.: 72
Chanel 2 Note Off - Duracao: 540540 Nota: C1 Vol.: 62
Chanel 2 Note On - Duracao: 540540 Nota: C1 Vol.: 66
Chanel 8 Note Off - Duracao: 540540 Nota: C1 Vol.: 64
Chanel 8 Note On - Duracao: 540540 Nota: C1 Vol.: 65
Chanel 8 Note Off - Duracao: 540660 Nota: C1 Vol.: 65
Chanel 8 Note On - Duracao: 540660 Nota: C1 Vol.: 64
Chanel 4 Note Off - Duracao: 540720 Nota: C1 Vol.: 72
Chanel 4 Note On - Duracao: 540720 Nota: C1 Vol.: 72
Chanel 2 Note Off - Duracao: 540780 Nota: C1 Vol.: 66
Chanel 2 Note On - Duracao: 540780 Nota: C1 Vol.: 60
Chanel 8 Note Off - Duracao: 540780 Nota: C1 Vol.: 64
Chanel 8 Note On - Duracao: 540780 Nota: C1 Vol.: 62
Chanel 3 Note Off - Duracao: 540840 Nota: C1 Vol.: 76
Chanel 3 Note On - Duracao: 540840 Nota: C1 Vol.: 77
Chanel 9 Note Off - Duracao: 540840 Nota: C1 Vol.: 71
Chanel 9 Note On - Duracao: 540840 Nota: C1 Vol.: 69
Chanel 4 Note Off - Duracao: 540960 Nota: C1 Vol.: 72
Chanel 4 Note On - Duracao: 540960 Nota: C1 Vol.: 76
Chanel 8 Note Off - Duracao: 541020 Nota: C1 Vol.: 62
Chanel 8 Note On - Duracao: 541020 Nota: C1 Vol.: 64
Chanel 4 Note Off - Duracao: 541080 Nota: C1 Vol.: 76
Chanel 4 Note On - Duracao: 541080 Nota: C1 Vol.: 75
Chanel 8 Note Off - Duracao: 541140 Nota: C1 Vol.: 64
Chanel 8 Note On - Duracao: 541140 Nota: C1 Vol.: 58
Chanel 4 Note Off - Duracao: 541200 Nota: C1 Vol.: 75
Chanel 4 Note On - Duracao: 541200 Nota: C1 Vol.: 74
Chanel 6 Note Off - Duracao: 541200 Nota: C1 Vol.: 72
Chanel 6 Note On - Duracao: 541200 Nota: C1 Vol.: 73
Chanel 2 Note Off - Duracao: 541260 Nota: C1 Vol.: 60
Chanel 2 Note On - Duracao: 541260 Nota: C1 Vol.: 57
Chanel 9 Note Off - Duracao: 541320 Nota: C1 Vol.: 69
Chanel 9 Note On - Duracao: 541320 Nota: C1 Vol.: 64
Chanel 8 Note Off - Duracao: 541380 Nota: C1 Vol.: 58
Chanel 8 Note On - Duracao: 541380 Nota: C1 Vol.: 54
Chanel 4 Note Off - Duracao: 541440 Nota: C1 Vol.: 74
Chanel 4 Note On - Duracao: 541440 Nota: C1 Vol.: 74
Chanel 4 Note Off - Duracao: 541680 Nota: C1 Vol.: 74
Chanel 4 Note On - Duracao: 541680 Nota: C1 Vol.: 72
Chanel 3 Note Off - Duracao: 541800 Nota: C1 Vol.: 77
Chanel 3 Note On - Duracao: 541800 Nota: C1 Vol.: 78
Chanel 9 Note Off - Duracao: 541800 Nota: C1 Vol.: 64
Chanel 9 Note On - Duracao: 541800 Nota: C1 Vol.: 68
Chanel 8 Note Off - Duracao: 541860 Nota: C1 Vol.: 54
Chanel 8 Note On - Duracao: 541860 Nota: C1 Vol.: 51
Chanel 4 Note Off - Duracao: 541920 Nota: C1 Vol.: 72
Chanel 4 Note On - Duracao: 541920 Nota: C1 Vol.: 74
Chanel 5 Note Off - Duracao: 541920 Nota: C1 Vol.: 57
Chanel 5 Note On - Duracao: 541920 Nota: C1 Vol.: 48
Chanel 4 Note Off - Duracao: 542040 Nota: C1 Vol.: 74
Chanel 4 Note On - Duracao: 542040 Nota: C1 Vol.: 72
Chanel 9 Note Off - Duracao: 542040 Nota: C1 Vol.: 68
Chanel 9 Note On - Duracao: 542040 Nota: C1 Vol.: 63
Chanel 2 Note Off - Duracao: 542220 Nota: C1 Vol.: 57
Chanel 2 Note On - Duracao: 542220 Nota: C1 Vol.: 60
Chanel 7 Note Off - Duracao: 542220 Nota: C1 Vol.: 55
Chanel 7 Note On - Duracao: 542220 Nota: C1 Vol.: 55
Chanel 4 Note Off - Duracao: 542280 Nota: C1 Vol.: 72
Chanel 4 Note On - Duracao: 542280 Nota: C1 Vol.: 74
Chanel 8 Note Off - Duracao: 542340 Nota: C1 Vol.: 51
Chanel 8 Note On - Duracao: 542340 Nota: C1 Vol.: 54
Chanel 4 Note Off - Duracao: 542520 Nota: C1 Vol.: 74
Chanel 4 Note On - Duracao: 542520 Nota: C1 Vol.: 76
Chanel 9 Note Off - Duracao: 542520 Nota: C1 Vol.: 63
Chanel 9 Note On - Duracao: 542520 Nota: C1 Vol.: 68
Chanel 2 Note Off - Duracao: 542700 Nota: C1 Vol.: 60
Chanel 2 Note On - Duracao: 542700 Nota: C1 Vol.: 62
Chanel 3 Note Off - Duracao: 542760 Nota: C1 Vol.: 78
Chanel 3 Note On - Duracao: 542760 Nota: C1 Vol.: 78
Chanel 4 Note Off - Duracao: 542760 Nota: C1 Vol.: 76
Chanel 4 Note On - Duracao: 542760 Nota: C1 Vol.: 56
Chanel 9 Note Off - Duracao: 542760 Nota: C1 Vol.: 68
Chanel 9 Note On - Duracao: 542760 Nota: C1 Vol.: 67
Chanel 8 Note Off - Duracao: 542820 Nota: C1 Vol.: 54
Chanel 8 Note On - Duracao: 542820 Nota: C1 Vol.: 60
Chanel 9 Note Off - Duracao: 543000 Nota: C1 Vol.: 67
Chanel 9 Note On - Duracao: 543000 Nota: C1 Vol.: 63
Chanel 6 Note Off - Duracao: 543120 Nota: C1 Vol.: 73
Chanel 6 Note On - Duracao: 543120 Nota: C1 Vol.: 74
Chanel 2 Note Off - Duracao: 543180 Nota: C1 Vol.: 62
Chanel 2 Note On - Duracao: 543180 Nota: C1 Vol.: 70
Chanel 8 Note Off - Duracao: 543300 Nota: C1 Vol.: 60
Chanel 8 Note On - Duracao: 543300 Nota: C1 Vol.: 67
Chanel 2 Note Off - Duracao: 543420 Nota: C1 Vol.: 70
Chanel 2 Note On - Duracao: 543420 Nota: C1 Vol.: 61
Chanel 9 Note Off - Duracao: 543480 Nota: C1 Vol.: 63
Chanel 9 Note On - Duracao: 543480 Nota: C1 Vol.: 60
Chanel 8 Note Off - Duracao: 543540 Nota: C1 Vol.: 67
Chanel 8 Note On - Duracao: 543540 Nota: C1 Vol.: 71
Chanel 3 Note Off - Duracao: 543720 Nota: C1 Vol.: 78
Chanel 3 Note On - Duracao: 543720 Nota: C1 Vol.: 76
Chanel 4 Note Off - Duracao: 543720 Nota: C1 Vol.: 56
Chanel 4 Note On - Duracao: 543720 Nota: C1 Vol.: 45
Chanel 8 Note Off - Duracao: 543780 Nota: C1 Vol.: 71
Chanel 8 Note On - Duracao: 543780 Nota: C1 Vol.: 72
Chanel 5 Note Off - Duracao: 543840 Nota: C1 Vol.: 48
Chanel 5 Note On - Duracao: 543840 Nota: C1 Vol.: 48
Chanel 2 Note Off - Duracao: 543900 Nota: C1 Vol.: 61
Chanel 2 Note On - Duracao: 543900 Nota: C1 Vol.: 59
Chanel 9 Note Off - Duracao: 543960 Nota: C1 Vol.: 60
Chanel 9 Note On - Duracao: 543960 Nota: C1 Vol.: 59
Chanel 8 Note Off - Duracao: 544020 Nota: C1 Vol.: 72
Chanel 8 Note On - Duracao: 544020 Nota: C1 Vol.: 73
Chanel 8 Note Off - Duracao: 544260 Nota: C1 Vol.: 73
Chanel 8 Note On - Duracao: 544260 Nota: C1 Vol.: 69
Chanel 2 Note Off - Duracao: 544380 Nota: C1 Vol.: 59
Chanel 2 Note On - Duracao: 544380 Nota: C1 Vol.: 57
Chanel 9 Note Off - Duracao: 544440 Nota: C1 Vol.: 59
Chanel 9 Note On - Duracao: 544440 Nota: C1 Vol.: 61
Chanel 3 Note Off - Duracao: 544680 Nota: C1 Vol.: 76
Chanel 3 Note On - Duracao: 544680 Nota: C1 Vol.: 75
Chanel 9 Note Off - Duracao: 544680 Nota: C1 Vol.: 61
Chanel 9 Note On - Duracao: 544680 Nota: C1 Vol.: 56
Chanel 8 Note Off - Duracao: 544740 Nota: C1 Vol.: 69
Chanel 8 Note On - Duracao: 544740 Nota: C1 Vol.: 71
Chanel 5 Note Off - Duracao: 544800 Nota: C1 Vol.: 48
Chanel 5 Note On - Duracao: 544800 Nota: C1 Vol.: 52
Chanel 2 Note Off - Duracao: 544860 Nota: C1 Vol.: 57
Chanel 2 Note On - Duracao: 544860 Nota: C1 Vol.: 64
Chanel 6 Note Off - Duracao: 545040 Nota: C1 Vol.: 74
Chanel 6 Note On - Duracao: 545040 Nota: C1 Vol.: 73
Chanel 2 Note Off - Duracao: 545100 Nota: C1 Vol.: 64
Chanel 2 Note On - Duracao: 545100 Nota: C1 Vol.: 60
Chanel 9 Note Off - Duracao: 545160 Nota: C1 Vol.: 56
Chanel 9 Note On - Duracao: 545160 Nota: C1 Vol.: 60
Chanel 8 Note Off - Duracao: 545220 Nota: C1 Vol.: 71
Chanel 8 Note On - Duracao: 545220 Nota: C1 Vol.: 74
Chanel 5 Note Off - Duracao: 545280 Nota: C1 Vol.: 52
Chanel 5 Note On - Duracao: 545280 Nota: C1 Vol.: 56
Chanel 9 Note Off - Duracao: 545400 Nota: C1 Vol.: 60
Chanel 9 Note On - Duracao: 545400 Nota: C1 Vol.: 59
Chanel 5 Note Off - Duracao: 545520 Nota: C1 Vol.: 56
Chanel 5 Note On - Duracao: 545520 Nota: C1 Vol.: 59
Chanel 2 Note Off - Duracao: 545580 Nota: C1 Vol.: 60
Chanel 2 Note On - Duracao: 545580 Nota: C1 Vol.: 56
Chanel 3 Note Off - Duracao: 545640 Nota: C1 Vol.: 75
Chanel 3 Note On - Duracao: 545640 Nota: C1 Vol.: 75
Chanel 4 Note Off - Duracao: 545640 Nota: C1 Vol.: 45
Chanel 4 Note On - Duracao: 545640 Nota: C1 Vol.: 79
Chanel 8 Note Off - Duracao: 545700 Nota: C1 Vol.: 74
Chanel 8 Note On - Duracao: 545700 Nota: C1 Vol.: 69
Chanel 5 Note Off - Duracao: 545760 Nota: C1 Vol.: 59
Chanel 5 Note On - Duracao: 545760 Nota: C1 Vol.: 61
Chanel 4 Note Off - Duracao: 545880 Nota: C1 Vol.: 79
Chanel 4 Note On - Duracao: 545880 Nota: C1 Vol.: 78
Chanel 5 Note Off - Duracao: 545880 Nota: C1 Vol.: 61
Chanel 5 Note On - Duracao: 545880 Nota: C1 Vol.: 56
Chanel 9 Note Off - Duracao: 545880 Nota: C1 Vol.: 59
Chanel 9 Note On - Duracao: 545880 Nota: C1 Vol.: 61
Chanel 5 Note Off - Duracao: 546000 Nota: C1 Vol.: 56
Chanel 5 Note On - Duracao: 546000 Nota: C1 Vol.: 54
Chanel 2 Note Off - Duracao: 546060 Nota: C1 Vol.: 56
Chanel 2 Note On - Duracao: 546060 Nota: C1 Vol.: 67
Chanel 7 Note Off - Duracao: 546060 Nota: C1 Vol.: 55
Chanel 7 Note On - Duracao: 546060 Nota: C1 Vol.: 55
Chanel 3 Note Off - Duracao: 546120 Nota: C1 Vol.: 75
Chanel 3 Note On - Duracao: 546120 Nota: C1 Vol.: 65
Chanel 4 Note Off - Duracao: 546120 Nota: C1 Vol.: 78
Chanel 4 Note On - Duracao: 546120 Nota: C1 Vol.: 90
Chanel 5 Note Off - Duracao: 546120 Nota: C1 Vol.: 54
Chanel 5 Note On - Duracao: 546120 Nota: C1 Vol.: 54
Chanel 8 Note Off - Duracao: 546180 Nota: C1 Vol.: 69
Chanel 8 Note On - Duracao: 546180 Nota: C1 Vol.: 76
Chanel 4 Note Off - Duracao: 546240 Nota: C1 Vol.: 90
Chanel 4 Note On - Duracao: 546240 Nota: C1 Vol.: 90
Chanel 5 Note Off - Duracao: 546240 Nota: C1 Vol.: 54
Chanel 5 Note On - Duracao: 546240 Nota: C1 Vol.: 54
Chanel 2 Note Off - Duracao: 546300 Nota: C1 Vol.: 67
Chanel 2 Note On - Duracao: 546300 Nota: C1 Vol.: 76
Chanel 4 Note Off - Duracao: 546360 Nota: C1 Vol.: 90
Chanel 4 Note On - Duracao: 546360 Nota: C1 Vol.: 97
Chanel 5 Note Off - Duracao: 546360 Nota: C1 Vol.: 54
Chanel 5 Note On - Duracao: 546360 Nota: C1 Vol.: 52
Chanel 9 Note Off - Duracao: 546360 Nota: C1 Vol.: 61
Chanel 9 Note On - Duracao: 546360 Nota: C1 Vol.: 60
Chanel 4 Note Off - Duracao: 546420 Nota: C1 Vol.: 97
Chanel 4 Note On - Duracao: 546420 Nota: C1 Vol.: 97
Chanel 4 Note Off - Duracao: 546480 Nota: C1 Vol.: 97
Chanel 4 Note On - Duracao: 546480 Nota: C1 Vol.: 96
Chanel 5 Note Off - Duracao: 546480 Nota: C1 Vol.: 52
Chanel 5 Note On - Duracao: 546480 Nota: C1 Vol.: 53
Chanel 2 Note Off - Duracao: 546540 Nota: C1 Vol.: 76
Chanel 2 Note On - Duracao: 546540 Nota: C1 Vol.: 88
Chanel 4 Note Off - Duracao: 546540 Nota: C1 Vol.: 96
Chanel 4 Note On - Duracao: 546540 Nota: C1 Vol.: 88
Chanel 5 Note Off - Duracao: 546600 Nota: C1 Vol.: 53
Chanel 5 Note On - Duracao: 546600 Nota: C1 Vol.: 53
Chanel 2 Note Off - Duracao: 546660 Nota: C1 Vol.: 88
Chanel 2 Note On - Duracao: 546660 Nota: C1 Vol.: 95
Chanel 4 Note Off - Duracao: 546660 Nota: C1 Vol.: 88
Chanel 4 Note On - Duracao: 546660 Nota: C1 Vol.: 88
Chanel 8 Note Off - Duracao: 546660 Nota: C1 Vol.: 76
Chanel 8 Note On - Duracao: 546660 Nota: C1 Vol.: 55
Chanel 2 Note Off - Duracao: 546720 Nota: C1 Vol.: 95
Chanel 2 Note On - Duracao: 546720 Nota: C1 Vol.: 86
Chanel 5 Note Off - Duracao: 546720 Nota: C1 Vol.: 53
Chanel 5 Note On - Duracao: 546720 Nota: C1 Vol.: 66
Chanel 4 Note Off - Duracao: 546780 Nota: C1 Vol.: 88
Chanel 4 Note On - Duracao: 546780 Nota: C1 Vol.: 89
Chanel 2 Note Off - Duracao: 546840 Nota: C1 Vol.: 86
Chanel 2 Note On - Duracao: 546840 Nota: C1 Vol.: 69
Chanel 5 Note Off - Duracao: 546840 Nota: C1 Vol.: 66
Chanel 5 Note On - Duracao: 546840 Nota: C1 Vol.: 47
Chanel 9 Note Off - Duracao: 546840 Nota: C1 Vol.: 60
Chanel 9 Note On - Duracao: 546840 Nota: C1 Vol.: 51
Chanel 4 Note Off - Duracao: 546900 Nota: C1 Vol.: 89
Chanel 4 Note On - Duracao: 546900 Nota: C1 Vol.: 94
Chanel 6 Note Off - Duracao: 546960 Nota: C1 Vol.: 73
Chanel 6 Note On - Duracao: 546960 Nota: C1 Vol.: 71
Chanel 4 Note Off - Duracao: 547020 Nota: C1 Vol.: 94
Chanel 4 Note On - Duracao: 547020 Nota: C1 Vol.: 50
Chanel 2 Note Off - Duracao: 547080 Nota: C1 Vol.: 69
Chanel 2 Note On - Duracao: 547080 Nota: C1 Vol.: 74
Chanel 3 Note Off - Duracao: 547080 Nota: C1 Vol.: 65
Chanel 3 Note On - Duracao: 547080 Nota: C1 Vol.: 41
Chanel 2 Note Off - Duracao: 547320 Nota: C1 Vol.: 74
Chanel 2 Note On - Duracao: 547320 Nota: C1 Vol.: 70
Chanel 9 Note Off - Duracao: 547320 Nota: C1 Vol.: 51
Chanel 9 Note On - Duracao: 547320 Nota: C1 Vol.: 48
Chanel 2 Note Off - Duracao: 547560 Nota: C1 Vol.: 70
Chanel 2 Note On - Duracao: 547560 Nota: C1 Vol.: 66
Chanel 8 Note Off - Duracao: 547620 Nota: C1 Vol.: 55
Chanel 8 Note On - Duracao: 547620 Nota: C1 Vol.: 53
Chanel 2 Note Off - Duracao: 547800 Nota: C1 Vol.: 66
Chanel 2 Note On - Duracao: 547800 Nota: C1 Vol.: 64
Chanel 2 Note Off - Duracao: 548040 Nota: C1 Vol.: 64
Chanel 2 Note On - Duracao: 548040 Nota: C1 Vol.: 60
Chanel 9 Note Off - Duracao: 548280 Nota: C1 Vol.: 48
Chanel 9 Note On - Duracao: 548280 Nota: C1 Vol.: 58
Chanel 2 Note Off - Duracao: 548520 Nota: C1 Vol.: 60
Chanel 2 Note On - Duracao: 548520 Nota: C1 Vol.: 61
Chanel 8 Note Off - Duracao: 548580 Nota: C1 Vol.: 53
Chanel 8 Note On - Duracao: 548580 Nota: C1 Vol.: 56
Chanel 2 Note Off - Duracao: 548760 Nota: C1 Vol.: 61
Chanel 2 Note On - Duracao: 548760 Nota: C1 Vol.: 41
Chanel 5 Note Off - Duracao: 548760 Nota: C1 Vol.: 47
Chanel 5 Note On - Duracao: 548760 Nota: C1 Vol.: 60
Chanel 9 Note Off - Duracao: 548760 Nota: C1 Vol.: 58
Chanel 9 Note On - Duracao: 548760 Nota: C1 Vol.: 69
Chanel 6 Note Off - Duracao: 548880 Nota: C1 Vol.: 71
Chanel 6 Note On - Duracao: 548880 Nota: C1 Vol.: 70
Chanel 4 Note Off - Duracao: 548940 Nota: C1 Vol.: 50
Chanel 4 Note On - Duracao: 548940 Nota: C1 Vol.: 60
Chanel 9 Note Off - Duracao: 549000 Nota: C1 Vol.: 69
Chanel 9 Note On - Duracao: 549000 Nota: C1 Vol.: 77
Chanel 9 Note Off - Duracao: 549240 Nota: C1 Vol.: 77
Chanel 9 Note On - Duracao: 549240 Nota: C1 Vol.: 76
Chanel 9 Note Off - Duracao: 549480 Nota: C1 Vol.: 76
Chanel 9 Note On - Duracao: 549480 Nota: C1 Vol.: 75
Chanel 8 Note Off - Duracao: 549540 Nota: C1 Vol.: 56
Chanel 8 Note On - Duracao: 549540 Nota: C1 Vol.: 55
Chanel 2 Note Off - Duracao: 549720 Nota: C1 Vol.: 41
Chanel 2 Note On - Duracao: 549720 Nota: C1 Vol.: 40
Chanel 9 Note Off - Duracao: 549720 Nota: C1 Vol.: 75
Chanel 9 Note On - Duracao: 549720 Nota: C1 Vol.: 72
Chanel 4 Note Off - Duracao: 549900 Nota: C1 Vol.: 60
Chanel 4 Note On - Duracao: 549900 Nota: C1 Vol.: 93
Chanel 7 Note Off - Duracao: 549900 Nota: C1 Vol.: 55
Chanel 7 Note On - Duracao: 549900 Nota: C1 Vol.: 57
Chanel 4 Note Off - Duracao: 549960 Nota: C1 Vol.: 93
Chanel 4 Note On - Duracao: 549960 Nota: C1 Vol.: 97
Chanel 4 Note Off - Duracao: 550020 Nota: C1 Vol.: 97
Chanel 4 Note On - Duracao: 550020 Nota: C1 Vol.: 95
Chanel 4 Note Off - Duracao: 550080 Nota: C1 Vol.: 95
Chanel 4 Note On - Duracao: 550080 Nota: C1 Vol.: 96
Chanel 4 Note Off - Duracao: 550140 Nota: C1 Vol.: 96
Chanel 4 Note On - Duracao: 550140 Nota: C1 Vol.: 95
Chanel 4 Note Off - Duracao: 550200 Nota: C1 Vol.: 95
Chanel 4 Note On - Duracao: 550200 Nota: C1 Vol.: 77
Chanel 9 Note Off - Duracao: 550200 Nota: C1 Vol.: 72
Chanel 9 Note On - Duracao: 550200 Nota: C1 Vol.: 75
Chanel 4 Note Off - Duracao: 550440 Nota: C1 Vol.: 77
Chanel 4 Note On - Duracao: 550440 Nota: C1 Vol.: 98
Chanel 4 Note Off - Duracao: 550500 Nota: C1 Vol.: 98
Chanel 4 Note On - Duracao: 550500 Nota: C1 Vol.: 99
Chanel 8 Note Off - Duracao: 550500 Nota: C1 Vol.: 55
Chanel 8 Note On - Duracao: 550500 Nota: C1 Vol.: 51
Chanel 4 Note Off - Duracao: 550560 Nota: C1 Vol.: 99
Chanel 4 Note On - Duracao: 550560 Nota: C1 Vol.: 99
Chanel 4 Note Off - Duracao: 550620 Nota: C1 Vol.: 99
Chanel 4 Note On - Duracao: 550620 Nota: C1 Vol.: 97
Chanel 4 Note Off - Duracao: 550680 Nota: C1 Vol.: 97
Chanel 4 Note On - Duracao: 550680 Nota: C1 Vol.: 97
Chanel 5 Note Off - Duracao: 550680 Nota: C1 Vol.: 60
Chanel 5 Note On - Duracao: 550680 Nota: C1 Vol.: 78
Chanel 9 Note Off - Duracao: 550680 Nota: C1 Vol.: 75
Chanel 9 Note On - Duracao: 550680 Nota: C1 Vol.: 76
Chanel 4 Note Off - Duracao: 550740 Nota: C1 Vol.: 97
Chanel 4 Note On - Duracao: 550740 Nota: C1 Vol.: 97
Chanel 4 Note Off - Duracao: 550800 Nota: C1 Vol.: 97
Chanel 4 Note On - Duracao: 550800 Nota: C1 Vol.: 93
Chanel 6 Note Off - Duracao: 550800 Nota: C1 Vol.: 70
Chanel 6 Note On - Duracao: 550800 Nota: C1 Vol.: 71
Chanel 3 Note Off - Duracao: 550920 Nota: C1 Vol.: 41
Chanel 3 Note On - Duracao: 550920 Nota: C1 Vol.: 41
Chanel 4 Note Off - Duracao: 550920 Nota: C1 Vol.: 93
Chanel 4 Note On - Duracao: 550920 Nota: C1 Vol.: 97
Chanel 4 Note Off - Duracao: 550980 Nota: C1 Vol.: 97
Chanel 4 Note On - Duracao: 550980 Nota: C1 Vol.: 98
Chanel 4 Note Off - Duracao: 551040 Nota: C1 Vol.: 98
Chanel 4 Note On - Duracao: 551040 Nota: C1 Vol.: 96
Chanel 4 Note Off - Duracao: 551100 Nota: C1 Vol.: 96
Chanel 4 Note On - Duracao: 551100 Nota: C1 Vol.: 96
Chanel 4 Note Off - Duracao: 551160 Nota: C1 Vol.: 96
Chanel 4 Note On - Duracao: 551160 Nota: C1 Vol.: 100
Chanel 5 Note Off - Duracao: 551160 Nota: C1 Vol.: 78
Chanel 5 Note On - Duracao: 551160 Nota: C1 Vol.: 100
Chanel 9 Note Off - Duracao: 551160 Nota: C1 Vol.: 76
Chanel 9 Note On - Duracao: 551160 Nota: C1 Vol.: 77
Chanel 4 Note Off - Duracao: 551220 Nota: C1 Vol.: 100
Chanel 4 Note On - Duracao: 551220 Nota: C1 Vol.: 98
Chanel 5 Note Off - Duracao: 551220 Nota: C1 Vol.: 100
Chanel 5 Note On - Duracao: 551220 Nota: C1 Vol.: 98
Chanel 5 Note Off - Duracao: 551280 Nota: C1 Vol.: 98
Chanel 5 Note On - Duracao: 551280 Nota: C1 Vol.: 95
Chanel 4 Note Off - Duracao: 551340 Nota: C1 Vol.: 98
Chanel 4 Note On - Duracao: 551340 Nota: C1 Vol.: 100
Chanel 5 Note Off - Duracao: 551340 Nota: C1 Vol.: 95
Chanel 5 Note On - Duracao: 551340 Nota: C1 Vol.: 94
Chanel 4 Note Off - Duracao: 551400 Nota: C1 Vol.: 100
Chanel 4 Note On - Duracao: 551400 Nota: C1 Vol.: 92
Chanel 5 Note Off - Duracao: 551460 Nota: C1 Vol.: 94
Chanel 5 Note On - Duracao: 551460 Nota: C1 Vol.: 49
Chanel 8 Note Off - Duracao: 551460 Nota: C1 Vol.: 51
Chanel 8 Note On - Duracao: 551460 Nota: C1 Vol.: 47
Chanel 4 Note Off - Duracao: 551520 Nota: C1 Vol.: 92
Chanel 4 Note On - Duracao: 551520 Nota: C1 Vol.: 92
Chanel 2 Note Off - Duracao: 551640 Nota: C1 Vol.: 40
Chanel 2 Note On - Duracao: 551640 Nota: C1 Vol.: 44
Chanel 4 Note Off - Duracao: 551640 Nota: C1 Vol.: 92
Chanel 4 Note On - Duracao: 551640 Nota: C1 Vol.: 94
Chanel 9 Note Off - Duracao: 551640 Nota: C1 Vol.: 77
Chanel 9 Note On - Duracao: 551640 Nota: C1 Vol.: 73
Chanel 4 Note Off - Duracao: 551700 Nota: C1 Vol.: 94
Chanel 4 Note On - Duracao: 551700 Nota: C1 Vol.: 91
Chanel 4 Note Off - Duracao: 551820 Nota: C1 Vol.: 91
Chanel 4 Note On - Duracao: 551820 Nota: C1 Vol.: 84
Chanel 7 Note Off - Duracao: 551820 Nota: C1 Vol.: 57
Chanel 7 Note On - Duracao: 551820 Nota: C1 Vol.: 63
Chanel 4 Note Off - Duracao: 552060 Nota: C1 Vol.: 84
Chanel 4 Note On - Duracao: 552060 Nota: C1 Vol.: 67
Chanel 9 Note Off - Duracao: 552120 Nota: C1 Vol.: 73
Chanel 9 Note On - Duracao: 552120 Nota: C1 Vol.: 68
Chanel 2 Note Off - Duracao: 552600 Nota: C1 Vol.: 44
Chanel 2 Note On - Duracao: 552600 Nota: C1 Vol.: 40
Chanel 9 Note Off - Duracao: 552600 Nota: C1 Vol.: 68
Chanel 9 Note On - Duracao: 552600 Nota: C1 Vol.: 62
Chanel 6 Note Off - Duracao: 552720 Nota: C1 Vol.: 71
Chanel 6 Note On - Duracao: 552720 Nota: C1 Vol.: 71
Chanel 3 Note Off - Duracao: 552840 Nota: C1 Vol.: 41
Chanel 3 Note On - Duracao: 552840 Nota: C1 Vol.: 41
Chanel 4 Note Off - Duracao: 553020 Nota: C1 Vol.: 67
Chanel 4 Note On - Duracao: 553020 Nota: C1 Vol.: 61
Chanel 9 Note Off - Duracao: 553080 Nota: C1 Vol.: 62
Chanel 9 Note On - Duracao: 553080 Nota: C1 Vol.: 59
Chanel 5 Note Off - Duracao: 553380 Nota: C1 Vol.: 49
Chanel 5 Note On - Duracao: 553380 Nota: C1 Vol.: 48
Chanel 8 Note Off - Duracao: 553380 Nota: C1 Vol.: 47
Chanel 8 Note On - Duracao: 553380 Nota: C1 Vol.: 52
Chanel 9 Note Off - Duracao: 553560 Nota: C1 Vol.: 59
Chanel 9 Note On - Duracao: 553560 Nota: C1 Vol.: 56
Chanel 7 Note Off - Duracao: 553740 Nota: C1 Vol.: 63
Chanel 7 Note On - Duracao: 553740 Nota: C1 Vol.: 59
Chanel 4 Note Off - Duracao: 553980 Nota: C1 Vol.: 61
Chanel 4 Note On - Duracao: 553980 Nota: C1 Vol.: 65
Chanel 9 Note Off - Duracao: 554040 Nota: C1 Vol.: 56
Chanel 9 Note On - Duracao: 554040 Nota: C1 Vol.: 56
Chanel 8 Note Off - Duracao: 554340 Nota: C1 Vol.: 52
Chanel 8 Note On - Duracao: 554340 Nota: C1 Vol.: 51
Chanel 2 Note Off - Duracao: 554520 Nota: C1 Vol.: 40
Chanel 2 Note On - Duracao: 554520 Nota: C1 Vol.: 61
Chanel 9 Note Off - Duracao: 554520 Nota: C1 Vol.: 56
Chanel 9 Note On - Duracao: 554520 Nota: C1 Vol.: 50
Chanel 6 Note Off - Duracao: 554640 Nota: C1 Vol.: 71
Chanel 6 Note On - Duracao: 554640 Nota: C1 Vol.: 72
Chanel 3 Note Off - Duracao: 554760 Nota: C1 Vol.: 41
Chanel 3 Note On - Duracao: 554760 Nota: C1 Vol.: 43
Chanel 4 Note Off - Duracao: 554940 Nota: C1 Vol.: 65
Chanel 4 Note On - Duracao: 554940 Nota: C1 Vol.: 66
Chanel 2 Note Off - Duracao: 555000 Nota: C1 Vol.: 61
Chanel 2 Note On - Duracao: 555000 Nota: C1 Vol.: 61
Chanel 5 Note Off - Duracao: 555300 Nota: C1 Vol.: 48
Chanel 5 Note On - Duracao: 555300 Nota: C1 Vol.: 75
Chanel 8 Note Off - Duracao: 555300 Nota: C1 Vol.: 51
Chanel 4 Note Off - Duracao: 555420 Nota: C1 Vol.: 66
Chanel 4 Note On - Duracao: 555420 Nota: C1 Vol.: 60
Chanel 9 Note Off - Duracao: 555480 Nota: C1 Vol.: 50
Chanel 9 Note On - Duracao: 555480 Nota: C1 Vol.: 56
Chanel 5 Note Off - Duracao: 555540 Nota: C1 Vol.: 75
Chanel 5 Note On - Duracao: 555540 Nota: C1 Vol.: 83
Chanel 5 Note Off - Duracao: 555660 Nota: C1 Vol.: 83
Chanel 5 Note On - Duracao: 555660 Nota: C1 Vol.: 89
Chanel 7 Note Off - Duracao: 555660 Nota: C1 Vol.: 59
Chanel 7 Note On - Duracao: 555660 Nota: C1 Vol.: 56
Chanel 5 Note Off - Duracao: 555780 Nota: C1 Vol.: 89
Chanel 5 Note On - Duracao: 555780 Nota: C1 Vol.: 85
Chanel 4 Note Off - Duracao: 555900 Nota: C1 Vol.: 60
Chanel 4 Note On - Duracao: 555900 Nota: C1 Vol.: 59
Chanel 5 Note Off - Duracao: 555900 Nota: C1 Vol.: 85
Chanel 5 Note On - Duracao: 555900 Nota: C1 Vol.: 88
Chanel 2 Note Off - Duracao: 555960 Nota: C1 Vol.: 61
Chanel 2 Note On - Duracao: 555960 Nota: C1 Vol.: 90
Chanel 9 Note Off - Duracao: 555960 Nota: C1 Vol.: 56
Chanel 9 Note On - Duracao: 555960 Nota: C1 Vol.: 60
Chanel 5 Note Off - Duracao: 556020 Nota: C1 Vol.: 88
Chanel 5 Note On - Duracao: 556020 Nota: C1 Vol.: 92
Chanel 2 Note Off - Duracao: 556080 Nota: C1 Vol.: 90
Chanel 2 Note On - Duracao: 556080 Nota: C1 Vol.: 97
Chanel 2 Note Off - Duracao: 556140 Nota: C1 Vol.: 97
Chanel 2 Note On - Duracao: 556140 Nota: C1 Vol.: 97
Chanel 5 Note Off - Duracao: 556140 Nota: C1 Vol.: 92
Chanel 5 Note On - Duracao: 556140 Nota: C1 Vol.: 89
Chanel 2 Note Off - Duracao: 556200 Nota: C1 Vol.: 97
Chanel 2 Note On - Duracao: 556200 Nota: C1 Vol.: 85
Chanel 5 Note Off - Duracao: 556260 Nota: C1 Vol.: 89
Chanel 5 Note On - Duracao: 556260 Nota: C1 Vol.: 92
Chanel 2 Note Off - Duracao: 556320 Nota: C1 Vol.: 85
Chanel 2 Note On - Duracao: 556320 Nota: C1 Vol.: 46
Chanel 4 Note Off - Duracao: 556380 Nota: C1 Vol.: 59
Chanel 4 Note On - Duracao: 556380 Nota: C1 Vol.: 51
Chanel 5 Note Off - Duracao: 556380 Nota: C1 Vol.: 92
Chanel 5 Note On - Duracao: 556380 Nota: C1 Vol.: 97
Chanel 5 Note Off - Duracao: 556440 Nota: C1 Vol.: 97
Chanel 5 Note On - Duracao: 556440 Nota: C1 Vol.: 99
Chanel 9 Note Off - Duracao: 556440 Nota: C1 Vol.: 60
Chanel 9 Note On - Duracao: 556440 Nota: C1 Vol.: 71
Chanel 5 Note Off - Duracao: 556500 Nota: C1 Vol.: 99
Chanel 5 Note On - Duracao: 556500 Nota: C1 Vol.: 99
Chanel 5 Note Off - Duracao: 556560 Nota: C1 Vol.: 99
Chanel 5 Note On - Duracao: 556560 Nota: C1 Vol.: 96
Chanel 6 Note Off - Duracao: 556560 Nota: C1 Vol.: 72
Chanel 6 Note On - Duracao: 556560 Nota: C1 Vol.: 71
Chanel 5 Note Off - Duracao: 556620 Nota: C1 Vol.: 96
Chanel 5 Note On - Duracao: 556620 Nota: C1 Vol.: 99
Chanel 3 Note Off - Duracao: 556680 Nota: C1 Vol.: 43
Chanel 3 Note On - Duracao: 556680 Nota: C1 Vol.: 41
Chanel 5 Note Off - Duracao: 556680 Nota: C1 Vol.: 99
Chanel 5 Note On - Duracao: 556680 Nota: C1 Vol.: 99
Chanel 5 Note Off - Duracao: 556740 Nota: C1 Vol.: 99
Chanel 5 Note On - Duracao: 556740 Nota: C1 Vol.: 100
Chanel 5 Note Off - Duracao: 556800 Nota: C1 Vol.: 100
Chanel 5 Note On - Duracao: 556800 Nota: C1 Vol.: 96
Chanel 5 Note Off - Duracao: 556860 Nota: C1 Vol.: 96
Chanel 5 Note On - Duracao: 556860 Nota: C1 Vol.: 89
Chanel 9 Note Off - Duracao: 556920 Nota: C1 Vol.: 71
Chanel 9 Note On - Duracao: 556920 Nota: C1 Vol.: 80
Chanel 5 Note Off - Duracao: 556980 Nota: C1 Vol.: 89
Chanel 5 Note On - Duracao: 556980 Nota: C1 Vol.: 49
Chanel 9 Note Off - Duracao: 557160 Nota: C1 Vol.: 80
Chanel 9 Note On - Duracao: 557160 Nota: C1 Vol.: 81
Chanel 4 Note Off - Duracao: 557340 Nota: C1 Vol.: 51
Chanel 4 Note On - Duracao: 557340 Nota: C1 Vol.: 54
Chanel 9 Note Off - Duracao: 557400 Nota: C1 Vol.: 81
Chanel 7 Note Off - Duracao: 557580 Nota: C1 Vol.: 56
Chanel 7 Note On - Duracao: 557580 Nota: C1 Vol.: 46
Chanel 2 Note Off - Duracao: 558240 Nota: C1 Vol.: 46
Chanel 2 Note On - Duracao: 558240 Nota: C1 Vol.: 40
Chanel 4 Note Off - Duracao: 558300 Nota: C1 Vol.: 54
Chanel 4 Note On - Duracao: 558300 Nota: C1 Vol.: 47
Chanel 6 Note Off - Duracao: 558480 Nota: C1 Vol.: 71
Chanel 6 Note On - Duracao: 558480 Nota: C1 Vol.: 70
Chanel 5 Note Off - Duracao: 558900 Nota: C1 Vol.: 49
Chanel 5 Note On - Duracao: 558900 Nota: C1 Vol.: 84
Chanel 5 Note Off - Duracao: 559020 Nota: C1 Vol.: 84
Chanel 5 Note On - Duracao: 559020 Nota: C1 Vol.: 95
Chanel 5 Note Off - Duracao: 559140 Nota: C1 Vol.: 95
Chanel 5 Note On - Duracao: 559140 Nota: C1 Vol.: 99
Chanel 5 Note Off - Duracao: 559200 Nota: C1 Vol.: 99
Chanel 5 Note On - Duracao: 559200 Nota: C1 Vol.: 98
Chanel 4 Note Off - Duracao: 559260 Nota: C1 Vol.: 47
Chanel 4 Note On - Duracao: 559260 Nota: C1 Vol.: 53
Chanel 5 Note Off - Duracao: 559260 Nota: C1 Vol.: 98
Chanel 5 Note On - Duracao: 559260 Nota: C1 Vol.: 97
Chanel 5 Note Off - Duracao: 559320 Nota: C1 Vol.: 97
Chanel 5 Note On - Duracao: 559320 Nota: C1 Vol.: 98
Chanel 5 Note Off - Duracao: 559380 Nota: C1 Vol.: 98
Chanel 5 Note On - Duracao: 559380 Nota: C1 Vol.: 93
Chanel 5 Note Off - Duracao: 559500 Nota: C1 Vol.: 93
Chanel 5 Note On - Duracao: 559500 Nota: C1 Vol.: 83
Chanel 5 Note Off - Duracao: 559620 Nota: C1 Vol.: 83
Chanel 5 Note On - Duracao: 559620 Nota: C1 Vol.: 81
Chanel 4 Note Off - Duracao: 559740 Nota: C1 Vol.: 53
Chanel 4 Note On - Duracao: 559740 Nota: C1 Vol.: 52
Chanel 5 Note Off - Duracao: 559740 Nota: C1 Vol.: 81
Chanel 5 Note On - Duracao: 559740 Nota: C1 Vol.: 75
Chanel 5 Note Off - Duracao: 559980 Nota: C1 Vol.: 75
Chanel 5 Note On - Duracao: 559980 Nota: C1 Vol.: 67
Chanel 2 Note Off - Duracao: 560160 Nota: C1 Vol.: 40
Chanel 2 Note On - Duracao: 560160 Nota: C1 Vol.: 45
Chanel 4 Note Off - Duracao: 560220 Nota: C1 Vol.: 52
Chanel 4 Note On - Duracao: 560220 Nota: C1 Vol.: 56
Chanel 6 Note Off - Duracao: 560400 Nota: C1 Vol.: 70
Chanel 6 Note On - Duracao: 560400 Nota: C1 Vol.: 70
Chanel 5 Note Off - Duracao: 560460 Nota: C1 Vol.: 67
Chanel 5 Note On - Duracao: 560460 Nota: C1 Vol.: 66
Chanel 3 Note Off - Duracao: 560520 Nota: C1 Vol.: 41
Chanel 3 Note On - Duracao: 560520 Nota: C1 Vol.: 41
Chanel 4 Note Off - Duracao: 560700 Nota: C1 Vol.: 56
Chanel 4 Note On - Duracao: 560700 Nota: C1 Vol.: 51
Chanel 5 Note Off - Duracao: 560940 Nota: C1 Vol.: 66
Chanel 5 Note On - Duracao: 560940 Nota: C1 Vol.: 73
Chanel 2 Note Off - Duracao: 561120 Nota: C1 Vol.: 45
Chanel 2 Note On - Duracao: 561120 Nota: C1 Vol.: 50
Chanel 5 Note Off - Duracao: 561180 Nota: C1 Vol.: 73
Chanel 5 Note On - Duracao: 561180 Nota: C1 Vol.: 81
Chanel 5 Note Off - Duracao: 561300 Nota: C1 Vol.: 81
Chanel 5 Note On - Duracao: 561300 Nota: C1 Vol.: 61
Chanel 7 Note Off - Duracao: 561420 Nota: C1 Vol.: 46
Chanel 7 Note On - Duracao: 561420 Nota: C1 Vol.: 52
Chanel 4 Note Off - Duracao: 561660 Nota: C1 Vol.: 51
Chanel 4 Note On - Duracao: 561660 Nota: C1 Vol.: 53
Chanel 5 Note Off - Duracao: 561780 Nota: C1 Vol.: 61
Chanel 5 Note On - Duracao: 561780 Nota: C1 Vol.: 59
Chanel 2 Note Off - Duracao: 562080 Nota: C1 Vol.: 50
Chanel 2 Note On - Duracao: 562080 Nota: C1 Vol.: 61
Chanel 4 Note Off - Duracao: 562140 Nota: C1 Vol.: 53
Chanel 4 Note On - Duracao: 562140 Nota: C1 Vol.: 53
Chanel 5 Note Off - Duracao: 562260 Nota: C1 Vol.: 59
Chanel 5 Note On - Duracao: 562260 Nota: C1 Vol.: 54
Chanel 2 Note Off - Duracao: 562320 Nota: C1 Vol.: 61
Chanel 2 Note On - Duracao: 562320 Nota: C1 Vol.: 58
Chanel 6 Note Off - Duracao: 562320 Nota: C1 Vol.: 70
Chanel 6 Note On - Duracao: 562320 Nota: C1 Vol.: 66
Chanel 3 Note Off - Duracao: 562440 Nota: C1 Vol.: 41
Chanel 3 Note On - Duracao: 562440 Nota: C1 Vol.: 40
Chanel 4 Note Off - Duracao: 562620 Nota: C1 Vol.: 53
Chanel 4 Note On - Duracao: 562620 Nota: C1 Vol.: 56
Chanel 5 Note Off - Duracao: 562740 Nota: C1 Vol.: 54
Chanel 5 Note On - Duracao: 562740 Nota: C1 Vol.: 67
Chanel 2 Note Off - Duracao: 562800 Nota: C1 Vol.: 58
Chanel 2 Note On - Duracao: 562800 Nota: C1 Vol.: 56
Chanel 5 Note Off - Duracao: 562980 Nota: C1 Vol.: 67
Chanel 5 Note On - Duracao: 562980 Nota: C1 Vol.: 54
Chanel 4 Note Off - Duracao: 563100 Nota: C1 Vol.: 56
Chanel 4 Note On - Duracao: 563100 Nota: C1 Vol.: 55
Chanel 2 Note Off - Duracao: 563280 Nota: C1 Vol.: 56
Chanel 2 Note On - Duracao: 563280 Nota: C1 Vol.: 56
Chanel 7 Note Off - Duracao: 563340 Nota: C1 Vol.: 52
Chanel 7 Note On - Duracao: 563340 Nota: C1 Vol.: 51
Chanel 5 Note Off - Duracao: 563460 Nota: C1 Vol.: 54
Chanel 5 Note On - Duracao: 563460 Nota: C1 Vol.: 61
Chanel 4 Note Off - Duracao: 563580 Nota: C1 Vol.: 55
Chanel 4 Note On - Duracao: 563580 Nota: C1 Vol.: 54
Chanel 5 Note Off - Duracao: 563700 Nota: C1 Vol.: 61
Chanel 5 Note On - Duracao: 563700 Nota: C1 Vol.: 63
Chanel 2 Note Off - Duracao: 563760 Nota: C1 Vol.: 56
Chanel 2 Note On - Duracao: 563760 Nota: C1 Vol.: 66
Chanel 5 Note Off - Duracao: 563940 Nota: C1 Vol.: 63
Chanel 5 Note On - Duracao: 563940 Nota: C1 Vol.: 54
Chanel 2 Note Off - Duracao: 564000 Nota: C1 Vol.: 66
Chanel 2 Note On - Duracao: 564000 Nota: C1 Vol.: 46
Chanel 4 Note Off - Duracao: 564060 Nota: C1 Vol.: 54
Chanel 4 Note On - Duracao: 564060 Nota: C1 Vol.: 49
Chanel 6 Note Off - Duracao: 564240 Nota: C1 Vol.: 66
Chanel 6 Note On - Duracao: 564240 Nota: C1 Vol.: 63
Chanel 7 Note Off - Duracao: 564300 Nota: C1 Vol.: 51
Chanel 7 Note On - Duracao: 564300 Nota: C1 Vol.: 45
Chanel 3 Note Off - Duracao: 564360 Nota: C1 Vol.: 40
Chanel 3 Note On - Duracao: 564360 Nota: C1 Vol.: 40
Chanel 5 Note Off - Duracao: 564420 Nota: C1 Vol.: 54
Chanel 5 Note On - Duracao: 564420 Nota: C1 Vol.: 42
Chanel 4 Note Off - Duracao: 565020 Nota: C1 Vol.: 49
Chanel 4 Note On - Duracao: 565020 Nota: C1 Vol.: 46
Chanel 5 Note Off - Duracao: 565380 Nota: C1 Vol.: 42
Chanel 5 Note On - Duracao: 565380 Nota: C1 Vol.: 48
Chanel 2 Note Off - Duracao: 565920 Nota: C1 Vol.: 46
Chanel 2 Note On - Duracao: 565920 Nota: C1 Vol.: 40
Chanel 4 Note Off - Duracao: 565980 Nota: C1 Vol.: 46
Chanel 4 Note On - Duracao: 565980 Nota: C1 Vol.: 51
Chanel 6 Note Off - Duracao: 566160 Nota: C1 Vol.: 63
Chanel 6 Note On - Duracao: 566160 Nota: C1 Vol.: 63
Chanel 7 Note Off - Duracao: 566220 Nota: C1 Vol.: 45
Chanel 7 Note On - Duracao: 566220 Nota: C1 Vol.: 52
Chanel 3 Note Off - Duracao: 566280 Nota: C1 Vol.: 40
Chanel 3 Note On - Duracao: 566280 Nota: C1 Vol.: 43
Chanel 5 Note Off - Duracao: 566340 Nota: C1 Vol.: 48
Chanel 5 Note On - Duracao: 566340 Nota: C1 Vol.: 44
Chanel 4 Note Off - Duracao: 566940 Nota: C1 Vol.: 51
Chanel 4 Note On - Duracao: 566940 Nota: C1 Vol.: 54
Chanel 7 Note Off - Duracao: 567180 Nota: C1 Vol.: 52
Chanel 7 Note On - Duracao: 567180 Nota: C1 Vol.: 57
Chanel 5 Note Off - Duracao: 567300 Nota: C1 Vol.: 44
Chanel 5 Note On - Duracao: 567300 Nota: C1 Vol.: 45
Chanel 7 Note Off - Duracao: 567660 Nota: C1 Vol.: 57
Chanel 7 Note On - Duracao: 567660 Nota: C1 Vol.: 57
Chanel 4 Note Off - Duracao: 567900 Nota: C1 Vol.: 54
Chanel 4 Note On - Duracao: 567900 Nota: C1 Vol.: 52
Chanel 6 Note Off - Duracao: 568080 Nota: C1 Vol.: 63
Chanel 6 Note On - Duracao: 568080 Nota: C1 Vol.: 65
Chanel 7 Note Off - Duracao: 568140 Nota: C1 Vol.: 57
Chanel 7 Note On - Duracao: 568140 Nota: C1 Vol.: 55
Chanel 5 Note Off - Duracao: 568260 Nota: C1 Vol.: 45
Chanel 5 Note On - Duracao: 568260 Nota: C1 Vol.: 41
Chanel 7 Note Off - Duracao: 568620 Nota: C1 Vol.: 55
Chanel 7 Note On - Duracao: 568620 Nota: C1 Vol.: 50
Chanel 4 Note Off - Duracao: 568860 Nota: C1 Vol.: 52
Chanel 4 Note On - Duracao: 568860 Nota: C1 Vol.: 49
Chanel 5 Note Off - Duracao: 569220 Nota: C1 Vol.: 41
Chanel 5 Note On - Duracao: 569220 Nota: C1 Vol.: 52
Chanel 7 Note Off - Duracao: 569580 Nota: C1 Vol.: 50
Chanel 7 Note On - Duracao: 569580 Nota: C1 Vol.: 50
Chanel 5 Note Off - Duracao: 569700 Nota: C1 Vol.: 52
Chanel 5 Note On - Duracao: 569700 Nota: C1 Vol.: 44
Chanel 2 Note Off - Duracao: 569760 Nota: C1 Vol.: 40
Chanel 2 Note On - Duracao: 569760 Nota: C1 Vol.: 43
Chanel 4 Note Off - Duracao: 569820 Nota: C1 Vol.: 49
Chanel 4 Note On - Duracao: 569820 Nota: C1 Vol.: 41
Chanel 6 Note Off - Duracao: 570000 Nota: C1 Vol.: 65
Chanel 6 Note On - Duracao: 570000 Nota: C1 Vol.: 70
Chanel 3 Note Off - Duracao: 570120 Nota: C1 Vol.: 43
Chanel 3 Note On - Duracao: 570120 Nota: C1 Vol.: 41
Chanel 5 Note Off - Duracao: 570660 Nota: C1 Vol.: 44
Chanel 5 Note On - Duracao: 570660 Nota: C1 Vol.: 50
Chanel 5 Note Off - Duracao: 571140 Nota: C1 Vol.: 50
Chanel 5 Note On - Duracao: 571140 Nota: C1 Vol.: 51
Chanel 7 Note Off - Duracao: 571500 Nota: C1 Vol.: 50
Chanel 7 Note On - Duracao: 571500 Nota: C1 Vol.: 62
Chanel 5 Note Off - Duracao: 571620 Nota: C1 Vol.: 51
Chanel 5 Note On - Duracao: 571620 Nota: C1 Vol.: 49
Chanel 2 Note Off - Duracao: 571680 Nota: C1 Vol.: 43
Chanel 2 Note On - Duracao: 571680 Nota: C1 Vol.: 62
Chanel 4 Note Off - Duracao: 571740 Nota: C1 Vol.: 41
Chanel 4 Note On - Duracao: 571740 Nota: C1 Vol.: 60
Chanel 6 Note Off - Duracao: 571920 Nota: C1 Vol.: 70
Chanel 6 Note On - Duracao: 571920 Nota: C1 Vol.: 70
Chanel 4 Note Off - Duracao: 572220 Nota: C1 Vol.: 60
Chanel 4 Note On - Duracao: 572220 Nota: C1 Vol.: 67
Chanel 4 Note Off - Duracao: 572460 Nota: C1 Vol.: 67
Chanel 4 Note On - Duracao: 572460 Nota: C1 Vol.: 59
Chanel 7 Note Off - Duracao: 572460 Nota: C1 Vol.: 62
Chanel 7 Note On - Duracao: 572460 Nota: C1 Vol.: 85
Chanel 5 Note Off - Duracao: 572580 Nota: C1 Vol.: 49
Chanel 5 Note On - Duracao: 572580 Nota: C1 Vol.: 56
Chanel 7 Note Off - Duracao: 572580 Nota: C1 Vol.: 85
Chanel 7 Note On - Duracao: 572580 Nota: C1 Vol.: 91
Chanel 2 Note Off - Duracao: 572640 Nota: C1 Vol.: 62
Chanel 2 Note On - Duracao: 572640 Nota: C1 Vol.: 92
Chanel 7 Note Off - Duracao: 572700 Nota: C1 Vol.: 91
Chanel 7 Note On - Duracao: 572700 Nota: C1 Vol.: 90
Chanel 2 Note Off - Duracao: 572760 Nota: C1 Vol.: 92
Chanel 2 Note On - Duracao: 572760 Nota: C1 Vol.: 96
Chanel 2 Note Off - Duracao: 572820 Nota: C1 Vol.: 96
Chanel 2 Note On - Duracao: 572820 Nota: C1 Vol.: 94
Chanel 7 Note Off - Duracao: 572820 Nota: C1 Vol.: 90
Chanel 7 Note On - Duracao: 572820 Nota: C1 Vol.: 93
Chanel 2 Note Off - Duracao: 572880 Nota: C1 Vol.: 94
Chanel 2 Note On - Duracao: 572880 Nota: C1 Vol.: 96
Chanel 2 Note Off - Duracao: 572940 Nota: C1 Vol.: 96
Chanel 2 Note On - Duracao: 572940 Nota: C1 Vol.: 74
Chanel 4 Note Off - Duracao: 572940 Nota: C1 Vol.: 59
Chanel 4 Note On - Duracao: 572940 Nota: C1 Vol.: 64
Chanel 7 Note Off - Duracao: 572940 Nota: C1 Vol.: 93
Chanel 7 Note On - Duracao: 572940 Nota: C1 Vol.: 97
Chanel 5 Note Off - Duracao: 573060 Nota: C1 Vol.: 56
Chanel 5 Note On - Duracao: 573060 Nota: C1 Vol.: 59
Chanel 7 Note Off - Duracao: 573060 Nota: C1 Vol.: 97
Chanel 7 Note On - Duracao: 573060 Nota: C1 Vol.: 95
Chanel 2 Note Off - Duracao: 573180 Nota: C1 Vol.: 74
Chanel 2 Note On - Duracao: 573180 Nota: C1 Vol.: 40
Chanel 7 Note Off - Duracao: 573180 Nota: C1 Vol.: 95
Chanel 7 Note On - Duracao: 573180 Nota: C1 Vol.: 79
Chanel 4 Note Off - Duracao: 573420 Nota: C1 Vol.: 64
Chanel 7 Note Off - Duracao: 573420 Nota: C1 Vol.: 79
Chanel 7 Note On - Duracao: 573420 Nota: C1 Vol.: 79
Chanel 5 Note Off - Duracao: 573540 Nota: C1 Vol.: 59
Chanel 5 Note On - Duracao: 573540 Nota: C1 Vol.: 58
Chanel 7 Note Off - Duracao: 573660 Nota: C1 Vol.: 79
Chanel 7 Note On - Duracao: 573660 Nota: C1 Vol.: 92
Chanel 7 Note Off - Duracao: 573780 Nota: C1 Vol.: 92
Chanel 7 Note On - Duracao: 573780 Nota: C1 Vol.: 86
Chanel 6 Note Off - Duracao: 573840 Nota: C1 Vol.: 70
Chanel 6 Note On - Duracao: 573840 Nota: C1 Vol.: 71
Chanel 7 Note Off - Duracao: 573900 Nota: C1 Vol.: 86
Chanel 7 Note On - Duracao: 573900 Nota: C1 Vol.: 79
Chanel 3 Note Off - Duracao: 573960 Nota: C1 Vol.: 41
Chanel 3 Note On - Duracao: 573960 Nota: C1 Vol.: 44
Chanel 5 Note Off - Duracao: 574020 Nota: C1 Vol.: 58
Chanel 5 Note On - Duracao: 574020 Nota: C1 Vol.: 48
Chanel 7 Note Off - Duracao: 574140 Nota: C1 Vol.: 79
Chanel 7 Note On - Duracao: 574140 Nota: C1 Vol.: 79
Chanel 7 Note Off - Duracao: 574380 Nota: C1 Vol.: 79
Chanel 7 Note On - Duracao: 574380 Nota: C1 Vol.: 84
Chanel 7 Note Off - Duracao: 574500 Nota: C1 Vol.: 84
Chanel 7 Note On - Duracao: 574500 Nota: C1 Vol.: 96
Chanel 7 Note Off - Duracao: 574560 Nota: C1 Vol.: 96
Chanel 7 Note On - Duracao: 574560 Nota: C1 Vol.: 94
Chanel 7 Note Off - Duracao: 574620 Nota: C1 Vol.: 94
Chanel 7 Note On - Duracao: 574620 Nota: C1 Vol.: 91
Chanel 7 Note Off - Duracao: 574680 Nota: C1 Vol.: 91
Chanel 7 Note On - Duracao: 574680 Nota: C1 Vol.: 57
Chanel 5 Note Off - Duracao: 574980 Nota: C1 Vol.: 48
Chanel 5 Note On - Duracao: 574980 Nota: C1 Vol.: 61
Chanel 7 Note Off - Duracao: 575160 Nota: C1 Vol.: 57
Chanel 7 Note On - Duracao: 575160 Nota: C1 Vol.: 66
Chanel 5 Note Off - Duracao: 575220 Nota: C1 Vol.: 61
Chanel 5 Note On - Duracao: 575220 Nota: C1 Vol.: 61
Chanel 7 Note Off - Duracao: 575400 Nota: C1 Vol.: 66
Chanel 7 Note On - Duracao: 575400 Nota: C1 Vol.: 65
Chanel 5 Note Off - Duracao: 575460 Nota: C1 Vol.: 61
Chanel 5 Note On - Duracao: 575460 Nota: C1 Vol.: 63
Chanel 7 Note Off - Duracao: 575640 Nota: C1 Vol.: 65
Chanel 7 Note On - Duracao: 575640 Nota: C1 Vol.: 65
Chanel 5 Note Off - Duracao: 575700 Nota: C1 Vol.: 63
Chanel 5 Note On - Duracao: 575700 Nota: C1 Vol.: 66
Chanel 6 Note Off - Duracao: 575760 Nota: C1 Vol.: 71
Chanel 6 Note On - Duracao: 575760 Nota: C1 Vol.: 72
Chanel 3 Note Off - Duracao: 575880 Nota: C1 Vol.: 44
Chanel 3 Note On - Duracao: 575880 Nota: C1 Vol.: 45
Chanel 7 Note Off - Duracao: 575880 Nota: C1 Vol.: 65
Chanel 7 Note On - Duracao: 575880 Nota: C1 Vol.: 75
Chanel 5 Note Off - Duracao: 575940 Nota: C1 Vol.: 66
Chanel 5 Note On - Duracao: 575940 Nota: C1 Vol.: 65
Chanel 7 Note Off - Duracao: 576120 Nota: C1 Vol.: 75
Chanel 7 Note On - Duracao: 576120 Nota: C1 Vol.: 73
Chanel 5 Note Off - Duracao: 576180 Nota: C1 Vol.: 65
Chanel 5 Note On - Duracao: 576180 Nota: C1 Vol.: 40
Chanel 7 Note Off - Duracao: 576360 Nota: C1 Vol.: 73
Chanel 7 Note On - Duracao: 576360 Nota: C1 Vol.: 78
Chanel 7 Note Off - Duracao: 576480 Nota: C1 Vol.: 78
Chanel 7 Note On - Duracao: 576480 Nota: C1 Vol.: 80
Chanel 7 Note Off - Duracao: 576600 Nota: C1 Vol.: 80
Chanel 7 Note On - Duracao: 576600 Nota: C1 Vol.: 67
Chanel 7 Note Off - Duracao: 576840 Nota: C1 Vol.: 67
Chanel 7 Note On - Duracao: 576840 Nota: C1 Vol.: 66
Chanel 2 Note Off - Duracao: 577020 Nota: C1 Vol.: 40
Chanel 2 Note On - Duracao: 577020 Nota: C1 Vol.: 44
Chanel 7 Note Off - Duracao: 577080 Nota: C1 Vol.: 66
Chanel 7 Note On - Duracao: 577080 Nota: C1 Vol.: 73
Chanel 7 Note Off - Duracao: 577200 Nota: C1 Vol.: 73
Chanel 7 Note On - Duracao: 577200 Nota: C1 Vol.: 65
Chanel 7 Note Off - Duracao: 577440 Nota: C1 Vol.: 65
Chanel 7 Note On - Duracao: 577440 Nota: C1 Vol.: 58
Chanel 6 Note Off - Duracao: 577680 Nota: C1 Vol.: 72
Chanel 6 Note On - Duracao: 577680 Nota: C1 Vol.: 69
Chanel 7 Note Off - Duracao: 577680 Nota: C1 Vol.: 58
Chanel 7 Note On - Duracao: 577680 Nota: C1 Vol.: 69
Chanel 3 Note Off - Duracao: 577800 Nota: C1 Vol.: 45
Chanel 3 Note On - Duracao: 577800 Nota: C1 Vol.: 51
Chanel 7 Note Off - Duracao: 577800 Nota: C1 Vol.: 69
Chanel 7 Note On - Duracao: 577800 Nota: C1 Vol.: 57
Chanel 5 Note Off - Duracao: 578100 Nota: C1 Vol.: 40
Chanel 5 Note On - Duracao: 578100 Nota: C1 Vol.: 53
Chanel 5 Note Off - Duracao: 578580 Nota: C1 Vol.: 53
Chanel 5 Note On - Duracao: 578580 Nota: C1 Vol.: 59
Chanel 3 Note Off - Duracao: 578760 Nota: C1 Vol.: 51
Chanel 3 Note On - Duracao: 578760 Nota: C1 Vol.: 47
Chanel 7 Note Off - Duracao: 578760 Nota: C1 Vol.: 57
Chanel 7 Note On - Duracao: 578760 Nota: C1 Vol.: 80
Chanel 2 Note Off - Duracao: 578940 Nota: C1 Vol.: 44
Chanel 2 Note On - Duracao: 578940 Nota: C1 Vol.: 40
Chanel 7 Note Off - Duracao: 579000 Nota: C1 Vol.: 80
Chanel 7 Note On - Duracao: 579000 Nota: C1 Vol.: 55
Chanel 5 Note Off - Duracao: 579060 Nota: C1 Vol.: 59
Chanel 5 Note On - Duracao: 579060 Nota: C1 Vol.: 56
Chanel 7 Note Off - Duracao: 579480 Nota: C1 Vol.: 55
Chanel 7 Note On - Duracao: 579480 Nota: C1 Vol.: 63
Chanel 6 Note Off - Duracao: 579600 Nota: C1 Vol.: 69
Chanel 6 Note On - Duracao: 579600 Nota: C1 Vol.: 67
Chanel 3 Note Off - Duracao: 579720 Nota: C1 Vol.: 47
Chanel 3 Note On - Duracao: 579720 Nota: C1 Vol.: 51
Chanel 7 Note Off - Duracao: 579720 Nota: C1 Vol.: 63
Chanel 7 Note On - Duracao: 579720 Nota: C1 Vol.: 63
Chanel 7 Note Off - Duracao: 579960 Nota: C1 Vol.: 63
Chanel 7 Note On - Duracao: 579960 Nota: C1 Vol.: 70
Chanel 5 Note Off - Duracao: 580020 Nota: C1 Vol.: 56
Chanel 5 Note On - Duracao: 580020 Nota: C1 Vol.: 46
Chanel 7 Note Off - Duracao: 580080 Nota: C1 Vol.: 70
Chanel 7 Note On - Duracao: 580080 Nota: C1 Vol.: 65
Chanel 7 Note Off - Duracao: 580320 Nota: C1 Vol.: 65
Chanel 7 Note On - Duracao: 580320 Nota: C1 Vol.: 78
Chanel 7 Note Off - Duracao: 580440 Nota: C1 Vol.: 78
Chanel 7 Note On - Duracao: 580440 Nota: C1 Vol.: 84
Chanel 7 Note Off - Duracao: 580560 Nota: C1 Vol.: 84
Chanel 7 Note On - Duracao: 580560 Nota: C1 Vol.: 82
Chanel 3 Note Off - Duracao: 580680 Nota: C1 Vol.: 51
Chanel 3 Note On - Duracao: 580680 Nota: C1 Vol.: 45
Chanel 7 Note Off - Duracao: 580680 Nota: C1 Vol.: 82
Chanel 7 Note On - Duracao: 580680 Nota: C1 Vol.: 76
Chanel 7 Note Off - Duracao: 580800 Nota: C1 Vol.: 76
Chanel 7 Note On - Duracao: 580800 Nota: C1 Vol.: 49
Chanel 6 Note Off - Duracao: 581520 Nota: C1 Vol.: 67
Chanel 6 Note On - Duracao: 581520 Nota: C1 Vol.: 61
Chanel 7 Note Off - Duracao: 581760 Nota: C1 Vol.: 49
Chanel 7 Note On - Duracao: 581760 Nota: C1 Vol.: 59
Chanel 7 Note Off - Duracao: 582000 Nota: C1 Vol.: 59
Chanel 7 Note On - Duracao: 582000 Nota: C1 Vol.: 65
Chanel 7 Note Off - Duracao: 582120 Nota: C1 Vol.: 65
Chanel 7 Note On - Duracao: 582120 Nota: C1 Vol.: 64
Chanel 7 Note Off - Duracao: 582360 Nota: C1 Vol.: 64
Chanel 7 Note On - Duracao: 582360 Nota: C1 Vol.: 77
Chanel 7 Note Off - Duracao: 582480 Nota: C1 Vol.: 77
Chanel 7 Note On - Duracao: 582480 Nota: C1 Vol.: 77
Chanel 3 Note Off - Duracao: 582600 Nota: C1 Vol.: 45
Chanel 3 Note On - Duracao: 582600 Nota: C1 Vol.: 60
Chanel 7 Note Off - Duracao: 582600 Nota: C1 Vol.: 77
Chanel 7 Note On - Duracao: 582600 Nota: C1 Vol.: 73
Chanel 2 Note Off - Duracao: 582780 Nota: C1 Vol.: 40
Chanel 2 Note On - Duracao: 582780 Nota: C1 Vol.: 44
Chanel 7 Note Off - Duracao: 582840 Nota: C1 Vol.: 73
Chanel 7 Note On - Duracao: 582840 Nota: C1 Vol.: 63
Chanel 7 Note Off - Duracao: 583320 Nota: C1 Vol.: 63
Chanel 7 Note On - Duracao: 583320 Nota: C1 Vol.: 57
Chanel 6 Note Off - Duracao: 583440 Nota: C1 Vol.: 61
Chanel 6 Note On - Duracao: 583440 Nota: C1 Vol.: 49
Chanel 3 Note Off - Duracao: 583560 Nota: C1 Vol.: 60
Chanel 3 Note On - Duracao: 583560 Nota: C1 Vol.: 41
Chanel 2 Note Off - Duracao: 583740 Nota: C1 Vol.: 44
Chanel 2 Note On - Duracao: 583740 Nota: C1 Vol.: 57
Chanel 7 Note Off - Duracao: 583800 Nota: C1 Vol.: 57
Chanel 7 Note On - Duracao: 583800 Nota: C1 Vol.: 50
Chanel 5 Note Off - Duracao: 583860 Nota: C1 Vol.: 46
Chanel 5 Note On - Duracao: 583860 Nota: C1 Vol.: 57
Chanel 2 Note Off - Duracao: 583980 Nota: C1 Vol.: 57
Chanel 2 Note On - Duracao: 583980 Nota: C1 Vol.: 50
Chanel 2 Note Off - Duracao: 584220 Nota: C1 Vol.: 50
Chanel 2 Note On - Duracao: 584220 Nota: C1 Vol.: 44
Chanel 2 Note Off - Duracao: 584460 Nota: C1 Vol.: 44
Chanel 2 Note On - Duracao: 584460 Nota: C1 Vol.: 45
Chanel 2 Note Off - Duracao: 584580 Nota: C1 Vol.: 45
Chanel 2 Note On - Duracao: 584580 Nota: C1 Vol.: 48
Chanel 2 Note Off - Duracao: 584700 Nota: C1 Vol.: 48
Chanel 2 Note On - Duracao: 584700 Nota: C1 Vol.: 43
Chanel 7 Note Off - Duracao: 584760 Nota: C1 Vol.: 50
Chanel 7 Note On - Duracao: 584760 Nota: C1 Vol.: 40
Chanel 2 Note Off - Duracao: 584820 Nota: C1 Vol.: 43
Chanel 2 Note On - Duracao: 584820 Nota: C1 Vol.: 41
Chanel 2 Note Off - Duracao: 584940 Nota: C1 Vol.: 41
Chanel 2 Note On - Duracao: 584940 Nota: C1 Vol.: 41
Chanel 2 Note Off - Duracao: 585060 Nota: C1 Vol.: 41
Chanel 2 Note On - Duracao: 585060 Nota: C1 Vol.: 43
Chanel 2 Note Off - Duracao: 585180 Nota: C1 Vol.: 43
Chanel 2 Note On - Duracao: 585180 Nota: C1 Vol.: 48
Chanel 2 Note Off - Duracao: 585300 Nota: C1 Vol.: 48
Chanel 2 Note On - Duracao: 585300 Nota: C1 Vol.: 64
Chanel 2 Note Off - Duracao: 585420 Nota: C1 Vol.: 64
Chanel 2 Note On - Duracao: 585420 Nota: C1 Vol.: 40
Chanel 3 Note Off - Duracao: 585480 Nota: C1 Vol.: 41
Chanel 3 Note On - Duracao: 585480 Nota: C1 Vol.: 78
Chanel 3 Note Off - Duracao: 585720 Nota: C1 Vol.: 78
Chanel 3 Note On - Duracao: 585720 Nota: C1 Vol.: 87
Chanel 5 Note Off - Duracao: 585780 Nota: C1 Vol.: 57
Chanel 5 Note On - Duracao: 585780 Nota: C1 Vol.: 48
Chanel 3 Note Off - Duracao: 585840 Nota: C1 Vol.: 87
Chanel 3 Note On - Duracao: 585840 Nota: C1 Vol.: 94
Chanel 3 Note Off - Duracao: 585960 Nota: C1 Vol.: 94
Chanel 3 Note On - Duracao: 585960 Nota: C1 Vol.: 100
Chanel 3 Note Off - Duracao: 586020 Nota: C1 Vol.: 100
Chanel 3 Note On - Duracao: 586020 Nota: C1 Vol.: 97
Chanel 3 Note Off - Duracao: 586080 Nota: C1 Vol.: 97
Chanel 3 Note On - Duracao: 586080 Nota: C1 Vol.: 99
Chanel 3 Note Off - Duracao: 586140 Nota: C1 Vol.: 99
Chanel 3 Note On - Duracao: 586140 Nota: C1 Vol.: 98
Chanel 3 Note Off - Duracao: 586200 Nota: C1 Vol.: 98
Chanel 3 Note On - Duracao: 586200 Nota: C1 Vol.: 97
Chanel 3 Note Off - Duracao: 586260 Nota: C1 Vol.: 97
Chanel 3 Note On - Duracao: 586260 Nota: C1 Vol.: 97
Chanel 3 Note Off - Duracao: 586320 Nota: C1 Vol.: 97
Chanel 3 Note On - Duracao: 586320 Nota: C1 Vol.: 96
Chanel 3 Note Off - Duracao: 586380 Nota: C1 Vol.: 96
Chanel 3 Note On - Duracao: 586380 Nota: C1 Vol.: 52
Chanel 7 Note Off - Duracao: 586680 Nota: C1 Vol.: 40
Chanel 7 Note On - Duracao: 586680 Nota: C1 Vol.: 41
Chanel 6 Note Off - Duracao: 587280 Nota: C1 Vol.: 49
Chanel 6 Note On - Duracao: 587280 Nota: C1 Vol.: 53
Chanel 2 Note Off - Duracao: 587340 Nota: C1 Vol.: 40
Chanel 2 Note On - Duracao: 587340 Nota: C1 Vol.: 54
Chanel 3 Note Off - Duracao: 587340 Nota: C1 Vol.: 52
Chanel 3 Note On - Duracao: 587340 Nota: C1 Vol.: 51
Chanel 2 Note Off - Duracao: 587820 Nota: C1 Vol.: 54
Chanel 2 Note On - Duracao: 587820 Nota: C1 Vol.: 57
Chanel 2 Note Off - Duracao: 588300 Nota: C1 Vol.: 57
Chanel 2 Note On - Duracao: 588300 Nota: C1 Vol.: 61
Chanel 2 Note Off - Duracao: 588540 Nota: C1 Vol.: 61
Chanel 2 Note On - Duracao: 588540 Nota: C1 Vol.: 60
Chanel 7 Note Off - Duracao: 588600 Nota: C1 Vol.: 41
Chanel 7 Note On - Duracao: 588600 Nota: C1 Vol.: 40
Chanel 2 Note Off - Duracao: 589020 Nota: C1 Vol.: 60
Chanel 2 Note On - Duracao: 589020 Nota: C1 Vol.: 58
Chanel 6 Note Off - Duracao: 589200 Nota: C1 Vol.: 53
Chanel 6 Note On - Duracao: 589200 Nota: C1 Vol.: 81
Chanel 3 Note Off - Duracao: 589260 Nota: C1 Vol.: 51
Chanel 3 Note On - Duracao: 589260 Nota: C1 Vol.: 98
Chanel 3 Note Off - Duracao: 589320 Nota: C1 Vol.: 98
Chanel 3 Note On - Duracao: 589320 Nota: C1 Vol.: 98
Chanel 3 Note Off - Duracao: 589380 Nota: C1 Vol.: 98
Chanel 3 Note On - Duracao: 589380 Nota: C1 Vol.: 97
Chanel 3 Note Off - Duracao: 589440 Nota: C1 Vol.: 97
Chanel 3 Note On - Duracao: 589440 Nota: C1 Vol.: 99
Chanel 6 Note Off - Duracao: 589440 Nota: C1 Vol.: 81
Chanel 6 Note On - Duracao: 589440 Nota: C1 Vol.: 86
Chanel 2 Note Off - Duracao: 589500 Nota: C1 Vol.: 58
Chanel 2 Note On - Duracao: 589500 Nota: C1 Vol.: 64
Chanel 3 Note Off - Duracao: 589500 Nota: C1 Vol.: 99
Chanel 3 Note On - Duracao: 589500 Nota: C1 Vol.: 100
Chanel 3 Note Off - Duracao: 589560 Nota: C1 Vol.: 100
Chanel 3 Note On - Duracao: 589560 Nota: C1 Vol.: 100
Chanel 6 Note Off - Duracao: 589560 Nota: C1 Vol.: 86
Chanel 6 Note On - Duracao: 589560 Nota: C1 Vol.: 89
Chanel 3 Note Off - Duracao: 589620 Nota: C1 Vol.: 100
Chanel 3 Note On - Duracao: 589620 Nota: C1 Vol.: 95
Chanel 5 Note Off - Duracao: 589620 Nota: C1 Vol.: 48
Chanel 5 Note On - Duracao: 589620 Nota: C1 Vol.: 49
Chanel 6 Note Off - Duracao: 589680 Nota: C1 Vol.: 89
Chanel 6 Note On - Duracao: 589680 Nota: C1 Vol.: 89
Chanel 3 Note Off - Duracao: 589740 Nota: C1 Vol.: 95
Chanel 3 Note On - Duracao: 589740 Nota: C1 Vol.: 95
Chanel 6 Note Off - Duracao: 589800 Nota: C1 Vol.: 89
Chanel 6 Note On - Duracao: 589800 Nota: C1 Vol.: 89
Chanel 3 Note Off - Duracao: 589860 Nota: C1 Vol.: 95
Chanel 3 Note On - Duracao: 589860 Nota: C1 Vol.: 99
Chanel 3 Note Off - Duracao: 589920 Nota: C1 Vol.: 99
Chanel 3 Note On - Duracao: 589920 Nota: C1 Vol.: 97
Chanel 6 Note Off - Duracao: 589920 Nota: C1 Vol.: 89
Chanel 6 Note On - Duracao: 589920 Nota: C1 Vol.: 87
Chanel 2 Note Off - Duracao: 589980 Nota: C1 Vol.: 64
Chanel 2 Note On - Duracao: 589980 Nota: C1 Vol.: 79
Chanel 3 Note Off - Duracao: 589980 Nota: C1 Vol.: 97
Chanel 3 Note On - Duracao: 589980 Nota: C1 Vol.: 99
Chanel 3 Note Off - Duracao: 590040 Nota: C1 Vol.: 99
Chanel 3 Note On - Duracao: 590040 Nota: C1 Vol.: 91
Chanel 6 Note Off - Duracao: 590040 Nota: C1 Vol.: 87
Chanel 6 Note On - Duracao: 590040 Nota: C1 Vol.: 90
Chanel 2 Note Off - Duracao: 590100 Nota: C1 Vol.: 79
Chanel 2 Note On - Duracao: 590100 Nota: C1 Vol.: 79
Chanel 3 Note Off - Duracao: 590160 Nota: C1 Vol.: 91
Chanel 3 Note On - Duracao: 590160 Nota: C1 Vol.: 75
Chanel 6 Note Off - Duracao: 590160 Nota: C1 Vol.: 90
Chanel 6 Note On - Duracao: 590160 Nota: C1 Vol.: 90
Chanel 2 Note Off - Duracao: 590220 Nota: C1 Vol.: 79
Chanel 2 Note On - Duracao: 590220 Nota: C1 Vol.: 88
Chanel 6 Note Off - Duracao: 590280 Nota: C1 Vol.: 90
Chanel 6 Note On - Duracao: 590280 Nota: C1 Vol.: 87
Chanel 3 Note Off - Duracao: 590400 Nota: C1 Vol.: 75
Chanel 3 Note On - Duracao: 590400 Nota: C1 Vol.: 77
Chanel 6 Note Off - Duracao: 590400 Nota: C1 Vol.: 87
Chanel 6 Note On - Duracao: 590400 Nota: C1 Vol.: 90
Chanel 2 Note Off - Duracao: 590460 Nota: C1 Vol.: 88
Chanel 2 Note On - Duracao: 590460 Nota: C1 Vol.: 75
Chanel 3 Note Off - Duracao: 590520 Nota: C1 Vol.: 77
Chanel 3 Note On - Duracao: 590520 Nota: C1 Vol.: 68
Chanel 6 Note Off - Duracao: 590520 Nota: C1 Vol.: 90
Chanel 6 Note On - Duracao: 590520 Nota: C1 Vol.: 89
Chanel 7 Note Off - Duracao: 590520 Nota: C1 Vol.: 40
Chanel 7 Note On - Duracao: 590520 Nota: C1 Vol.: 40
Chanel 6 Note Off - Duracao: 590640 Nota: C1 Vol.: 89
Chanel 6 Note On - Duracao: 590640 Nota: C1 Vol.: 96
Chanel 6 Note Off - Duracao: 590700 Nota: C1 Vol.: 96
Chanel 6 Note On - Duracao: 590700 Nota: C1 Vol.: 92
Chanel 3 Note Off - Duracao: 590760 Nota: C1 Vol.: 68
Chanel 3 Note On - Duracao: 590760 Nota: C1 Vol.: 62
Chanel 6 Note Off - Duracao: 590820 Nota: C1 Vol.: 92
Chanel 6 Note On - Duracao: 590820 Nota: C1 Vol.: 86
Chanel 2 Note Off - Duracao: 590940 Nota: C1 Vol.: 75
Chanel 2 Note On - Duracao: 590940 Nota: C1 Vol.: 72
Chanel 6 Note Off - Duracao: 590940 Nota: C1 Vol.: 86
Chanel 6 Note On - Duracao: 590940 Nota: C1 Vol.: 79
Chanel 3 Note Off - Duracao: 591000 Nota: C1 Vol.: 62
Chanel 3 Note On - Duracao: 591000 Nota: C1 Vol.: 57
Chanel 6 Note Off - Duracao: 591180 Nota: C1 Vol.: 79
Chanel 6 Note On - Duracao: 591180 Nota: C1 Vol.: 72
Chanel 3 Note Off - Duracao: 591240 Nota: C1 Vol.: 57
Chanel 3 Note On - Duracao: 591240 Nota: C1 Vol.: 57
Chanel 2 Note Off - Duracao: 591420 Nota: C1 Vol.: 72
Chanel 2 Note On - Duracao: 591420 Nota: C1 Vol.: 84
Chanel 3 Note Off - Duracao: 591480 Nota: C1 Vol.: 57
Chanel 3 Note On - Duracao: 591480 Nota: C1 Vol.: 57
Chanel 2 Note Off - Duracao: 591660 Nota: C1 Vol.: 84
Chanel 2 Note On - Duracao: 591660 Nota: C1 Vol.: 83
Chanel 6 Note Off - Duracao: 591660 Nota: C1 Vol.: 72
Chanel 6 Note On - Duracao: 591660 Nota: C1 Vol.: 61
Chanel 3 Note Off - Duracao: 591720 Nota: C1 Vol.: 57
Chanel 3 Note On - Duracao: 591720 Nota: C1 Vol.: 69
Chanel 2 Note Off - Duracao: 591900 Nota: C1 Vol.: 83
Chanel 2 Note On - Duracao: 591900 Nota: C1 Vol.: 78
Chanel 3 Note Off - Duracao: 591960 Nota: C1 Vol.: 69
Chanel 3 Note On - Duracao: 591960 Nota: C1 Vol.: 90
Chanel 3 Note Off - Duracao: 592020 Nota: C1 Vol.: 90
Chanel 3 Note On - Duracao: 592020 Nota: C1 Vol.: 95
Chanel 3 Note Off - Duracao: 592080 Nota: C1 Vol.: 95
Chanel 3 Note On - Duracao: 592080 Nota: C1 Vol.: 96
Chanel 3 Note Off - Duracao: 592200 Nota: C1 Vol.: 96
Chanel 3 Note On - Duracao: 592200 Nota: C1 Vol.: 94
Chanel 3 Note Off - Duracao: 592320 Nota: C1 Vol.: 94
Chanel 3 Note On - Duracao: 592320 Nota: C1 Vol.: 88
Chanel 2 Note Off - Duracao: 592380 Nota: C1 Vol.: 78
Chanel 2 Note On - Duracao: 592380 Nota: C1 Vol.: 77
Chanel 3 Note Off - Duracao: 592440 Nota: C1 Vol.: 88
Chanel 3 Note On - Duracao: 592440 Nota: C1 Vol.: 87
Chanel 7 Note Off - Duracao: 592440 Nota: C1 Vol.: 40
Chanel 7 Note On - Duracao: 592440 Nota: C1 Vol.: 42
Chanel 3 Note Off - Duracao: 592560 Nota: C1 Vol.: 87
Chanel 3 Note On - Duracao: 592560 Nota: C1 Vol.: 47
Chanel 6 Note Off - Duracao: 592620 Nota: C1 Vol.: 61
Chanel 6 Note On - Duracao: 592620 Nota: C1 Vol.: 66
Chanel 2 Note Off - Duracao: 592860 Nota: C1 Vol.: 77
Chanel 2 Note On - Duracao: 592860 Nota: C1 Vol.: 76
Chanel 6 Note Off - Duracao: 593100 Nota: C1 Vol.: 66
Chanel 6 Note On - Duracao: 593100 Nota: C1 Vol.: 68
Chanel 2 Note Off - Duracao: 593340 Nota: C1 Vol.: 76
Chanel 2 Note On - Duracao: 593340 Nota: C1 Vol.: 77
Chanel 7 Note Off - Duracao: 593400 Nota: C1 Vol.: 42
Chanel 7 Note On - Duracao: 593400 Nota: C1 Vol.: 64
Chanel 5 Note Off - Duracao: 593460 Nota: C1 Vol.: 49
Chanel 5 Note On - Duracao: 593460 Nota: C1 Vol.: 53
Chanel 3 Note Off - Duracao: 593520 Nota: C1 Vol.: 47
Chanel 3 Note On - Duracao: 593520 Nota: C1 Vol.: 42
Chanel 2 Note Off - Duracao: 593580 Nota: C1 Vol.: 77
Chanel 2 Note On - Duracao: 593580 Nota: C1 Vol.: 79
Chanel 6 Note Off - Duracao: 593580 Nota: C1 Vol.: 68
Chanel 6 Note On - Duracao: 593580 Nota: C1 Vol.: 89
Chanel 7 Note Off - Duracao: 593640 Nota: C1 Vol.: 64
Chanel 7 Note On - Duracao: 593640 Nota: C1 Vol.: 49
Chanel 6 Note Off - Duracao: 593700 Nota: C1 Vol.: 89
Chanel 6 Note On - Duracao: 593700 Nota: C1 Vol.: 73
Chanel 2 Note Off - Duracao: 593820 Nota: C1 Vol.: 79
Chanel 2 Note On - Duracao: 593820 Nota: C1 Vol.: 79
Chanel 6 Note Off - Duracao: 593940 Nota: C1 Vol.: 73
Chanel 6 Note On - Duracao: 593940 Nota: C1 Vol.: 56
Chanel 2 Note Off - Duracao: 594060 Nota: C1 Vol.: 79
Chanel 2 Note On - Duracao: 594060 Nota: C1 Vol.: 79
Chanel 7 Note Off - Duracao: 594120 Nota: C1 Vol.: 49
Chanel 7 Note On - Duracao: 594120 Nota: C1 Vol.: 57
Chanel 2 Note Off - Duracao: 594540 Nota: C1 Vol.: 79
Chanel 2 Note On - Duracao: 594540 Nota: C1 Vol.: 85
Chanel 7 Note Off - Duracao: 594600 Nota: C1 Vol.: 57
Chanel 7 Note On - Duracao: 594600 Nota: C1 Vol.: 58
Chanel 2 Note Off - Duracao: 594780 Nota: C1 Vol.: 85
Chanel 2 Note On - Duracao: 594780 Nota: C1 Vol.: 87
Chanel 6 Note Off - Duracao: 594900 Nota: C1 Vol.: 56
Chanel 6 Note On - Duracao: 594900 Nota: C1 Vol.: 87
Chanel 2 Note Off - Duracao: 595020 Nota: C1 Vol.: 87
Chanel 2 Note On - Duracao: 595020 Nota: C1 Vol.: 88
Chanel 6 Note Off - Duracao: 595020 Nota: C1 Vol.: 87
Chanel 6 Note On - Duracao: 595020 Nota: C1 Vol.: 87
Chanel 7 Note Off - Duracao: 595080 Nota: C1 Vol.: 58
Chanel 7 Note On - Duracao: 595080 Nota: C1 Vol.: 59
Chanel 2 Note Off - Duracao: 595140 Nota: C1 Vol.: 88
Chanel 2 Note On - Duracao: 595140 Nota: C1 Vol.: 82
Chanel 6 Note Off - Duracao: 595140 Nota: C1 Vol.: 87
Chanel 6 Note On - Duracao: 595140 Nota: C1 Vol.: 95
Chanel 6 Note Off - Duracao: 595200 Nota: C1 Vol.: 95
Chanel 6 Note On - Duracao: 595200 Nota: C1 Vol.: 96
Chanel 6 Note Off - Duracao: 595260 Nota: C1 Vol.: 96
Chanel 6 Note On - Duracao: 595260 Nota: C1 Vol.: 72
Chanel 2 Note Off - Duracao: 595380 Nota: C1 Vol.: 82
Chanel 2 Note On - Duracao: 595380 Nota: C1 Vol.: 78
Chanel 3 Note Off - Duracao: 595440 Nota: C1 Vol.: 42
Chanel 3 Note On - Duracao: 595440 Nota: C1 Vol.: 47
Chanel 6 Note Off - Duracao: 595500 Nota: C1 Vol.: 72
Chanel 6 Note On - Duracao: 595500 Nota: C1 Vol.: 60
Chanel 7 Note Off - Duracao: 595560 Nota: C1 Vol.: 59
Chanel 7 Note On - Duracao: 595560 Nota: C1 Vol.: 59
Chanel 2 Note Off - Duracao: 595620 Nota: C1 Vol.: 78
Chanel 2 Note On - Duracao: 595620 Nota: C1 Vol.: 87
Chanel 2 Note Off - Duracao: 595860 Nota: C1 Vol.: 87
Chanel 2 Note On - Duracao: 595860 Nota: C1 Vol.: 85
Chanel 6 Note Off - Duracao: 595980 Nota: C1 Vol.: 60
Chanel 6 Note On - Duracao: 595980 Nota: C1 Vol.: 64
Chanel 7 Note Off - Duracao: 596040 Nota: C1 Vol.: 59
Chanel 7 Note On - Duracao: 596040 Nota: C1 Vol.: 44
Chanel 2 Note Off - Duracao: 596100 Nota: C1 Vol.: 85
Chanel 2 Note On - Duracao: 596100 Nota: C1 Vol.: 87
Chanel 2 Note Off - Duracao: 596220 Nota: C1 Vol.: 87
Chanel 2 Note On - Duracao: 596220 Nota: C1 Vol.: 72
Chanel 6 Note Off - Duracao: 596220 Nota: C1 Vol.: 64
Chanel 6 Note On - Duracao: 596220 Nota: C1 Vol.: 42
Chanel 3 Note Off - Duracao: 596400 Nota: C1 Vol.: 47
Chanel 3 Note On - Duracao: 596400 Nota: C1 Vol.: 56
Chanel 2 Note Off - Duracao: 596700 Nota: C1 Vol.: 72
Chanel 2 Note On - Duracao: 596700 Nota: C1 Vol.: 69
Chanel 3 Note Off - Duracao: 596880 Nota: C1 Vol.: 56
Chanel 3 Note On - Duracao: 596880 Nota: C1 Vol.: 64
Chanel 3 Note Off - Duracao: 597120 Nota: C1 Vol.: 64
Chanel 3 Note On - Duracao: 597120 Nota: C1 Vol.: 61
Chanel 2 Note Off - Duracao: 597180 Nota: C1 Vol.: 69
Chanel 6 Note Off - Duracao: 597180 Nota: C1 Vol.: 42
Chanel 6 Note On - Duracao: 597180 Nota: C1 Vol.: 67
Chanel 5 Note Off - Duracao: 597300 Nota: C1 Vol.: 53
Chanel 5 Note On - Duracao: 597300 Nota: C1 Vol.: 55
Chanel 6 Note Off - Duracao: 597300 Nota: C1 Vol.: 67
Chanel 6 Note On - Duracao: 597300 Nota: C1 Vol.: 73
Chanel 6 Note Off - Duracao: 597420 Nota: C1 Vol.: 73
Chanel 6 Note On - Duracao: 597420 Nota: C1 Vol.: 74
Chanel 6 Note Off - Duracao: 597540 Nota: C1 Vol.: 74
Chanel 6 Note On - Duracao: 597540 Nota: C1 Vol.: 76
Chanel 3 Note Off - Duracao: 597600 Nota: C1 Vol.: 61
Chanel 3 Note On - Duracao: 597600 Nota: C1 Vol.: 49
Chanel 6 Note Off - Duracao: 597660 Nota: C1 Vol.: 76
Chanel 6 Note On - Duracao: 597660 Nota: C1 Vol.: 67
Chanel 6 Note Off - Duracao: 597900 Nota: C1 Vol.: 67
Chanel 6 Note On - Duracao: 597900 Nota: C1 Vol.: 74
Chanel 7 Note Off - Duracao: 597960 Nota: C1 Vol.: 44
Chanel 7 Note On - Duracao: 597960 Nota: C1 Vol.: 42
Chanel 6 Note Off - Duracao: 598020 Nota: C1 Vol.: 74
Chanel 6 Note On - Duracao: 598020 Nota: C1 Vol.: 65
Chanel 3 Note Off - Duracao: 598080 Nota: C1 Vol.: 49
Chanel 3 Note On - Duracao: 598080 Nota: C1 Vol.: 45
Chanel 6 Note Off - Duracao: 598140 Nota: C1 Vol.: 65
Chanel 6 Note On - Duracao: 598140 Nota: C1 Vol.: 52
Chanel 6 Note Off - Duracao: 598380 Nota: C1 Vol.: 52
Chanel 6 Note On - Duracao: 598380 Nota: C1 Vol.: 60
Chanel 6 Note Off - Duracao: 598620 Nota: C1 Vol.: 60
Chanel 6 Note On - Duracao: 598620 Nota: C1 Vol.: 51
Chanel 3 Note Off - Duracao: 599040 Nota: C1 Vol.: 45
Chanel 3 Note On - Duracao: 599040 Nota: C1 Vol.: 44
Chanel 6 Note Off - Duracao: 599100 Nota: C1 Vol.: 51
Chanel 6 Note On - Duracao: 599100 Nota: C1 Vol.: 45
Chanel 7 Note Off - Duracao: 599880 Nota: C1 Vol.: 42
Chanel 7 Note On - Duracao: 599880 Nota: C1 Vol.: 46
Chanel 3 Note Off - Duracao: 600000 Nota: C1 Vol.: 44
Chanel 3 Note On - Duracao: 600000 Nota: C1 Vol.: 52
Chanel 6 Note Off - Duracao: 600060 Nota: C1 Vol.: 45
Chanel 6 Note On - Duracao: 600060 Nota: C1 Vol.: 49
Chanel 3 Note Off - Duracao: 600960 Nota: C1 Vol.: 52
Chanel 3 Note On - Duracao: 600960 Nota: C1 Vol.: 65
Chanel 6 Note Off - Duracao: 601020 Nota: C1 Vol.: 49
Chanel 6 Note On - Duracao: 601020 Nota: C1 Vol.: 50
Chanel 5 Note Off - Duracao: 601140 Nota: C1 Vol.: 55
Chanel 5 Note On - Duracao: 601140 Nota: C1 Vol.: 61
Chanel 3 Note Off - Duracao: 601440 Nota: C1 Vol.: 65
Chanel 3 Note On - Duracao: 601440 Nota: C1 Vol.: 69
Chanel 7 Note Off - Duracao: 601800 Nota: C1 Vol.: 46
Chanel 7 Note On - Duracao: 601800 Nota: C1 Vol.: 51
Chanel 3 Note Off - Duracao: 601920 Nota: C1 Vol.: 69
Chanel 3 Note On - Duracao: 601920 Nota: C1 Vol.: 71
Chanel 6 Note Off - Duracao: 601980 Nota: C1 Vol.: 50
Chanel 6 Note On - Duracao: 601980 Nota: C1 Vol.: 50
Chanel 3 Note Off - Duracao: 602160 Nota: C1 Vol.: 71
Chanel 3 Note On - Duracao: 602160 Nota: C1 Vol.: 67
Chanel 3 Note Off - Duracao: 602400 Nota: C1 Vol.: 67
Chanel 3 Note On - Duracao: 602400 Nota: C1 Vol.: 52
Chanel 7 Note Off - Duracao: 602760 Nota: C1 Vol.: 51
Chanel 7 Note On - Duracao: 602760 Nota: C1 Vol.: 53
Chanel 6 Note Off - Duracao: 602940 Nota: C1 Vol.: 50
Chanel 6 Note On - Duracao: 602940 Nota: C1 Vol.: 52
Chanel 3 Note Off - Duracao: 603360 Nota: C1 Vol.: 52
Chanel 3 Note On - Duracao: 603360 Nota: C1 Vol.: 50
Chanel 6 Note Off - Duracao: 603420 Nota: C1 Vol.: 52
Chanel 6 Note On - Duracao: 603420 Nota: C1 Vol.: 59
Chanel 6 Note Off - Duracao: 603660 Nota: C1 Vol.: 59
Chanel 6 Note On - Duracao: 603660 Nota: C1 Vol.: 59
Chanel 7 Note Off - Duracao: 603720 Nota: C1 Vol.: 53
Chanel 7 Note On - Duracao: 603720 Nota: C1 Vol.: 49
Chanel 6 Note Off - Duracao: 603900 Nota: C1 Vol.: 59
Chanel 6 Note On - Duracao: 603900 Nota: C1 Vol.: 53
Chanel 3 Note Off - Duracao: 604320 Nota: C1 Vol.: 50
Chanel 3 Note On - Duracao: 604320 Nota: C1 Vol.: 65
Chanel 6 Note Off - Duracao: 604380 Nota: C1 Vol.: 53
Chanel 6 Note On - Duracao: 604380 Nota: C1 Vol.: 56
Chanel 3 Note Off - Duracao: 604560 Nota: C1 Vol.: 65
Chanel 3 Note On - Duracao: 604560 Nota: C1 Vol.: 62
Chanel 6 Note Off - Duracao: 604620 Nota: C1 Vol.: 56
Chanel 6 Note On - Duracao: 604620 Nota: C1 Vol.: 63
Chanel 7 Note Off - Duracao: 604680 Nota: C1 Vol.: 49
Chanel 7 Note On - Duracao: 604680 Nota: C1 Vol.: 52
Chanel 6 Note Off - Duracao: 604860 Nota: C1 Vol.: 63
Chanel 6 Note On - Duracao: 604860 Nota: C1 Vol.: 64
Chanel 5 Note Off - Duracao: 604980 Nota: C1 Vol.: 61
Chanel 5 Note On - Duracao: 604980 Nota: C1 Vol.: 60
Chanel 3 Note Off - Duracao: 605040 Nota: C1 Vol.: 62
Chanel 3 Note On - Duracao: 605040 Nota: C1 Vol.: 67
Chanel 6 Note Off - Duracao: 605100 Nota: C1 Vol.: 64
Chanel 6 Note On - Duracao: 605100 Nota: C1 Vol.: 67
Chanel 3 Note Off - Duracao: 605280 Nota: C1 Vol.: 67
Chanel 3 Note On - Duracao: 605280 Nota: C1 Vol.: 64
Chanel 6 Note Off - Duracao: 605340 Nota: C1 Vol.: 67
Chanel 6 Note On - Duracao: 605340 Nota: C1 Vol.: 47
Chanel 7 Note Off - Duracao: 605640 Nota: C1 Vol.: 52
Chanel 7 Note On - Duracao: 605640 Nota: C1 Vol.: 53
Chanel 3 Note Off - Duracao: 605760 Nota: C1 Vol.: 64
Chanel 3 Note On - Duracao: 605760 Nota: C1 Vol.: 43
Chanel 6 Note Off - Duracao: 606300 Nota: C1 Vol.: 47
Chanel 6 Note On - Duracao: 606300 Nota: C1 Vol.: 51
Chanel 7 Note Off - Duracao: 606600 Nota: C1 Vol.: 53
Chanel 7 Note On - Duracao: 606600 Nota: C1 Vol.: 53
Chanel 3 Note Off - Duracao: 606720 Nota: C1 Vol.: 43
Chanel 3 Note On - Duracao: 606720 Nota: C1 Vol.: 45
Chanel 6 Note Off - Duracao: 607260 Nota: C1 Vol.: 51
Chanel 6 Note On - Duracao: 607260 Nota: C1 Vol.: 56
Chanel 7 Note Off - Duracao: 607560 Nota: C1 Vol.: 53
Chanel 7 Note On - Duracao: 607560 Nota: C1 Vol.: 57
Chanel 3 Note Off - Duracao: 607680 Nota: C1 Vol.: 45
Chanel 3 Note On - Duracao: 607680 Nota: C1 Vol.: 56
Chanel 3 Note Off - Duracao: 608160 Nota: C1 Vol.: 56
Chanel 3 Note On - Duracao: 608160 Nota: C1 Vol.: 61
Chanel 6 Note Off - Duracao: 608220 Nota: C1 Vol.: 56
Chanel 6 Note On - Duracao: 608220 Nota: C1 Vol.: 46
Chanel 7 Note Off - Duracao: 608520 Nota: C1 Vol.: 57
Chanel 7 Note On - Duracao: 608520 Nota: C1 Vol.: 63
Chanel 3 Note Off - Duracao: 608640 Nota: C1 Vol.: 61
Chanel 3 Note On - Duracao: 608640 Nota: C1 Vol.: 40
Chanel 5 Note Off - Duracao: 608820 Nota: C1 Vol.: 60
Chanel 5 Note On - Duracao: 608820 Nota: C1 Vol.: 61
Chanel 7 Note Off - Duracao: 609000 Nota: C1 Vol.: 63
Chanel 7 Note On - Duracao: 609000 Nota: C1 Vol.: 63
Chanel 7 Note Off - Duracao: 609480 Nota: C1 Vol.: 63
Chanel 7 Note On - Duracao: 609480 Nota: C1 Vol.: 70
Chanel 7 Note Off - Duracao: 609960 Nota: C1 Vol.: 70
Chanel 7 Note On - Duracao: 609960 Nota: C1 Vol.: 70
Chanel 6 Note Off - Duracao: 610140 Nota: C1 Vol.: 46
Chanel 6 Note On - Duracao: 610140 Nota: C1 Vol.: 49
Chanel 7 Note Off - Duracao: 610440 Nota: C1 Vol.: 70
Chanel 7 Note On - Duracao: 610440 Nota: C1 Vol.: 66
Chanel 3 Note Off - Duracao: 610560 Nota: C1 Vol.: 40
Chanel 3 Note On - Duracao: 610560 Nota: C1 Vol.: 50
Chanel 7 Note Off - Duracao: 610920 Nota: C1 Vol.: 66
Chanel 7 Note On - Duracao: 610920 Nota: C1 Vol.: 51
Chanel 3 Note Off - Duracao: 611520 Nota: C1 Vol.: 50
Chanel 3 Note On - Duracao: 611520 Nota: C1 Vol.: 60
Chanel 7 Note Off - Duracao: 611880 Nota: C1 Vol.: 51
Chanel 7 Note On - Duracao: 611880 Nota: C1 Vol.: 50
Chanel 3 Note Off - Duracao: 612000 Nota: C1 Vol.: 60
Chanel 3 Note On - Duracao: 612000 Nota: C1 Vol.: 67
Chanel 6 Note Off - Duracao: 612060 Nota: C1 Vol.: 49
Chanel 6 Note On - Duracao: 612060 Nota: C1 Vol.: 52
Chanel 3 Note Off - Duracao: 612480 Nota: C1 Vol.: 67
Chanel 3 Note On - Duracao: 612480 Nota: C1 Vol.: 45
Chanel 5 Note Off - Duracao: 612660 Nota: C1 Vol.: 61
Chanel 5 Note On - Duracao: 612660 Nota: C1 Vol.: 60
Chanel 7 Note Off - Duracao: 612840 Nota: C1 Vol.: 50
Chanel 7 Note On - Duracao: 612840 Nota: C1 Vol.: 52
Chanel 7 Note Off - Duracao: 613800 Nota: C1 Vol.: 52
Chanel 7 Note On - Duracao: 613800 Nota: C1 Vol.: 54
Chanel 6 Note Off - Duracao: 613980 Nota: C1 Vol.: 52
Chanel 6 Note On - Duracao: 613980 Nota: C1 Vol.: 52
Chanel 7 Note Off - Duracao: 614760 Nota: C1 Vol.: 54
Chanel 7 Note On - Duracao: 614760 Nota: C1 Vol.: 55
Chanel 7 Note Off - Duracao: 615720 Nota: C1 Vol.: 55
Chanel 7 Note On - Duracao: 615720 Nota: C1 Vol.: 55
Chanel 3 Note Off - Duracao: 616320 Nota: C1 Vol.: 45
Chanel 3 Note On - Duracao: 616320 Nota: C1 Vol.: 63
Chanel 5 Note Off - Duracao: 616500 Nota: C1 Vol.: 60
Chanel 5 Note On - Duracao: 616500 Nota: C1 Vol.: 62
Chanel 3 Note Off - Duracao: 617280 Nota: C1 Vol.: 63
Chanel 3 Note On - Duracao: 617280 Nota: C1 Vol.: 67
Chanel 7 Note Off - Duracao: 617640 Nota: C1 Vol.: 55
Chanel 7 Note On - Duracao: 617640 Nota: C1 Vol.: 55
Chanel 6 Note Off - Duracao: 617820 Nota: C1 Vol.: 52
Chanel 6 Note On - Duracao: 617820 Nota: C1 Vol.: 52
Chanel 3 Note Off - Duracao: 619200 Nota: C1 Vol.: 67
Chanel 3 Note On - Duracao: 619200 Nota: C1 Vol.: 67
Chanel 7 Note Off - Duracao: 619560 Nota: C1 Vol.: 55
Chanel 7 Note On - Duracao: 619560 Nota: C1 Vol.: 50
Chanel 5 Note Off - Duracao: 620340 Nota: C1 Vol.: 62
Chanel 5 Note On - Duracao: 620340 Nota: C1 Vol.: 67
Chanel 3 Note Off - Duracao: 621120 Nota: C1 Vol.: 67
Chanel 3 Note On - Duracao: 621120 Nota: C1 Vol.: 67
Chanel 7 Note Off - Duracao: 621480 Nota: C1 Vol.: 50
Chanel 7 Note On - Duracao: 621480 Nota: C1 Vol.: 47
Chanel 6 Note Off - Duracao: 621660 Nota: C1 Vol.: 52
Chanel 6 Note On - Duracao: 621660 Nota: C1 Vol.: 52
Chanel 5 Note Off - Duracao: 622260 Nota: C1 Vol.: 67
Chanel 5 Note On - Duracao: 622260 Nota: C1 Vol.: 68
Chanel 3 Note Off - Duracao: 623040 Nota: C1 Vol.: 67
Chanel 3 Note On - Duracao: 623040 Nota: C1 Vol.: 71
Chanel 7 Note Off - Duracao: 623400 Nota: C1 Vol.: 47
Chanel 7 Note On - Duracao: 623400 Nota: C1 Vol.: 49
Chanel 3 Note Off - Duracao: 624000 Nota: C1 Vol.: 71
Chanel 3 Note On - Duracao: 624000 Nota: C1 Vol.: 77
Chanel 5 Note Off - Duracao: 624180 Nota: C1 Vol.: 68
Chanel 5 Note On - Duracao: 624180 Nota: C1 Vol.: 68
Chanel 3 Note Off - Duracao: 624960 Nota: C1 Vol.: 77
Chanel 3 Note On - Duracao: 624960 Nota: C1 Vol.: 78
Chanel 7 Note Off - Duracao: 625320 Nota: C1 Vol.: 49
Chanel 7 Note On - Duracao: 625320 Nota: C1 Vol.: 46
Chanel 6 Note Off - Duracao: 625500 Nota: C1 Vol.: 52
Chanel 6 Note On - Duracao: 625500 Nota: C1 Vol.: 51
Chanel 3 Note Off - Duracao: 625920 Nota: C1 Vol.: 78
Chanel 3 Note On - Duracao: 625920 Nota: C1 Vol.: 77
Chanel 5 Note Off - Duracao: 626100 Nota: C1 Vol.: 68
Chanel 5 Note On - Duracao: 626100 Nota: C1 Vol.: 63
Chanel 3 Note Off - Duracao: 626880 Nota: C1 Vol.: 77
Chanel 3 Note On - Duracao: 626880 Nota: C1 Vol.: 76
Chanel 7 Note Off - Duracao: 627240 Nota: C1 Vol.: 46
Chanel 7 Note On - Duracao: 627240 Nota: C1 Vol.: 56
Chanel 3 Note Off - Duracao: 627840 Nota: C1 Vol.: 76
Chanel 3 Note On - Duracao: 627840 Nota: C1 Vol.: 76
Chanel 5 Note Off - Duracao: 628020 Nota: C1 Vol.: 63
Chanel 5 Note On - Duracao: 628020 Nota: C1 Vol.: 61
Chanel 7 Note Off - Duracao: 628200 Nota: C1 Vol.: 56
Chanel 7 Note On - Duracao: 628200 Nota: C1 Vol.: 49
Chanel 3 Note Off - Duracao: 628800 Nota: C1 Vol.: 76
Chanel 3 Note On - Duracao: 628800 Nota: C1 Vol.: 72
Chanel 6 Note Off - Duracao: 629340 Nota: C1 Vol.: 51
Chanel 6 Note On - Duracao: 629340 Nota: C1 Vol.: 60
Chanel 3 Note Off - Duracao: 629760 Nota: C1 Vol.: 72
Chanel 3 Note On - Duracao: 629760 Nota: C1 Vol.: 72
Chanel 5 Note Off - Duracao: 629940 Nota: C1 Vol.: 61
Chanel 5 Note On - Duracao: 629940 Nota: C1 Vol.: 57
Chanel 7 Note Off - Duracao: 630120 Nota: C1 Vol.: 49
Chanel 7 Note On - Duracao: 630120 Nota: C1 Vol.: 49
Chanel 3 Note Off - Duracao: 630720 Nota: C1 Vol.: 72
Chanel 3 Note On - Duracao: 630720 Nota: C1 Vol.: 73
Chanel 7 Note Off - Duracao: 631080 Nota: C1 Vol.: 49
Chanel 7 Note On - Duracao: 631080 Nota: C1 Vol.: 42
Chanel 6 Note Off - Duracao: 631260 Nota: C1 Vol.: 60
Chanel 6 Note On - Duracao: 631260 Nota: C1 Vol.: 59
Chanel 3 Note Off - Duracao: 631680 Nota: C1 Vol.: 73
Chanel 3 Note On - Duracao: 631680 Nota: C1 Vol.: 71
Chanel 5 Note Off - Duracao: 631860 Nota: C1 Vol.: 57
Chanel 5 Note On - Duracao: 631860 Nota: C1 Vol.: 51
Chanel 3 Note Off - Duracao: 632640 Nota: C1 Vol.: 71
Chanel 3 Note On - Duracao: 632640 Nota: C1 Vol.: 67
Chanel 7 Note Off - Duracao: 633000 Nota: C1 Vol.: 42
Chanel 7 Note On - Duracao: 633000 Nota: C1 Vol.: 52
Chanel 3 Note Off - Duracao: 633600 Nota: C1 Vol.: 67
Chanel 3 Note On - Duracao: 633600 Nota: C1 Vol.: 43
Chanel 5 Note Off - Duracao: 633780 Nota: C1 Vol.: 51
Chanel 5 Note On - Duracao: 633780 Nota: C1 Vol.: 45
Chanel 7 Note Off - Duracao: 633960 Nota: C1 Vol.: 52
Chanel 7 Note On - Duracao: 633960 Nota: C1 Vol.: 55
Chanel 7 Note Off - Duracao: 634440 Nota: C1 Vol.: 55
Chanel 7 Note On - Duracao: 634440 Nota: C1 Vol.: 56
Chanel 7 Note Off - Duracao: 634920 Nota: C1 Vol.: 56
Chanel 7 Note On - Duracao: 634920 Nota: C1 Vol.: 56
Chanel 6 Note Off - Duracao: 635100 Nota: C1 Vol.: 59
Chanel 6 Note On - Duracao: 635100 Nota: C1 Vol.: 60
Chanel 7 Note Off - Duracao: 635400 Nota: C1 Vol.: 56
Chanel 7 Note On - Duracao: 635400 Nota: C1 Vol.: 48
Chanel 5 Note Off - Duracao: 635700 Nota: C1 Vol.: 45
Chanel 5 Note On - Duracao: 635700 Nota: C1 Vol.: 43
Chanel 7 Note Off - Duracao: 636360 Nota: C1 Vol.: 48
Chanel 7 Note On - Duracao: 636360 Nota: C1 Vol.: 51
Chanel 7 Note Off - Duracao: 637320 Nota: C1 Vol.: 51
Chanel 7 Note On - Duracao: 637320 Nota: C1 Vol.: 53
Chanel 3 Note Off - Duracao: 637440 Nota: C1 Vol.: 43
Chanel 3 Note On - Duracao: 637440 Nota: C1 Vol.: 42
Chanel 5 Note Off - Duracao: 637620 Nota: C1 Vol.: 43
Chanel 5 Note On - Duracao: 637620 Nota: C1 Vol.: 50
Chanel 7 Note Off - Duracao: 638280 Nota: C1 Vol.: 53
Chanel 7 Note On - Duracao: 638280 Nota: C1 Vol.: 53
Chanel 5 Note Off - Duracao: 638580 Nota: C1 Vol.: 50
Chanel 5 Note On - Duracao: 638580 Nota: C1 Vol.: 57
Chanel 6 Note Off - Duracao: 638940 Nota: C1 Vol.: 60
Chanel 6 Note On - Duracao: 638940 Nota: C1 Vol.: 63
Chanel 5 Note Off - Duracao: 639060 Nota: C1 Vol.: 57
Chanel 5 Note On - Duracao: 639060 Nota: C1 Vol.: 64
Chanel 7 Note Off - Duracao: 639240 Nota: C1 Vol.: 53
Chanel 7 Note On - Duracao: 639240 Nota: C1 Vol.: 91
Chanel 5 Note Off - Duracao: 639300 Nota: C1 Vol.: 64
Chanel 5 Note On - Duracao: 639300 Nota: C1 Vol.: 63
Chanel 7 Note Off - Duracao: 639360 Nota: C1 Vol.: 91
Chanel 7 Note On - Duracao: 639360 Nota: C1 Vol.: 91
Chanel 7 Note Off - Duracao: 639480 Nota: C1 Vol.: 91
Chanel 7 Note On - Duracao: 639480 Nota: C1 Vol.: 87
Chanel 5 Note Off - Duracao: 639540 Nota: C1 Vol.: 63
Chanel 5 Note On - Duracao: 639540 Nota: C1 Vol.: 63
Chanel 7 Note Off - Duracao: 639600 Nota: C1 Vol.: 87
Chanel 7 Note On - Duracao: 639600 Nota: C1 Vol.: 95
Chanel 7 Note Off - Duracao: 639720 Nota: C1 Vol.: 95
Chanel 7 Note On - Duracao: 639720 Nota: C1 Vol.: 95
Chanel 5 Note Off - Duracao: 639780 Nota: C1 Vol.: 63
Chanel 5 Note On - Duracao: 639780 Nota: C1 Vol.: 64
Chanel 7 Note Off - Duracao: 639840 Nota: C1 Vol.: 95
Chanel 7 Note On - Duracao: 639840 Nota: C1 Vol.: 96
Chanel 7 Note Off - Duracao: 639960 Nota: C1 Vol.: 96
Chanel 7 Note On - Duracao: 639960 Nota: C1 Vol.: 86
Chanel 5 Note Off - Duracao: 640020 Nota: C1 Vol.: 64
Chanel 5 Note On - Duracao: 640020 Nota: C1 Vol.: 65
Chanel 7 Note Off - Duracao: 640080 Nota: C1 Vol.: 86
Chanel 7 Note On - Duracao: 640080 Nota: C1 Vol.: 81
Chanel 5 Note Off - Duracao: 640260 Nota: C1 Vol.: 65
Chanel 5 Note On - Duracao: 640260 Nota: C1 Vol.: 65
Chanel 7 Note Off - Duracao: 640320 Nota: C1 Vol.: 81
Chanel 7 Note On - Duracao: 640320 Nota: C1 Vol.: 75
Chanel 7 Note Off - Duracao: 640560 Nota: C1 Vol.: 75
Chanel 7 Note On - Duracao: 640560 Nota: C1 Vol.: 77
Chanel 5 Note Off - Duracao: 640740 Nota: C1 Vol.: 65
Chanel 5 Note On - Duracao: 640740 Nota: C1 Vol.: 48
Chanel 7 Note Off - Duracao: 640800 Nota: C1 Vol.: 77
Chanel 7 Note On - Duracao: 640800 Nota: C1 Vol.: 79
Chanel 7 Note Off - Duracao: 641040 Nota: C1 Vol.: 79
Chanel 7 Note On - Duracao: 641040 Nota: C1 Vol.: 83
Chanel 3 Note Off - Duracao: 641280 Nota: C1 Vol.: 42
Chanel 3 Note On - Duracao: 641280 Nota: C1 Vol.: 41
Chanel 7 Note Off - Duracao: 641280 Nota: C1 Vol.: 83
Chanel 7 Note On - Duracao: 641280 Nota: C1 Vol.: 97
Chanel 7 Note Off - Duracao: 641340 Nota: C1 Vol.: 97
Chanel 7 Note On - Duracao: 641340 Nota: C1 Vol.: 94
Chanel 7 Note Off - Duracao: 641400 Nota: C1 Vol.: 94
Chanel 7 Note On - Duracao: 641400 Nota: C1 Vol.: 92
Chanel 7 Note Off - Duracao: 641460 Nota: C1 Vol.: 92
Chanel 7 Note On - Duracao: 641460 Nota: C1 Vol.: 80
Chanel 7 Note Off - Duracao: 641580 Nota: C1 Vol.: 80
Chanel 7 Note On - Duracao: 641580 Nota: C1 Vol.: 70
Chanel 7 Note Off - Duracao: 641700 Nota: C1 Vol.: 70
Chanel 7 Note On - Duracao: 641700 Nota: C1 Vol.: 62
Chanel 7 Note Off - Duracao: 641940 Nota: C1 Vol.: 62
Chanel 7 Note On - Duracao: 641940 Nota: C1 Vol.: 72
Chanel 7 Note Off - Duracao: 642060 Nota: C1 Vol.: 72
Chanel 7 Note On - Duracao: 642060 Nota: C1 Vol.: 51
Chanel 7 Note Off - Duracao: 642540 Nota: C1 Vol.: 51
Chanel 7 Note On - Duracao: 642540 Nota: C1 Vol.: 52
Chanel 6 Note Off - Duracao: 642780 Nota: C1 Vol.: 63
Chanel 6 Note On - Duracao: 642780 Nota: C1 Vol.: 64
Chanel 7 Note Off - Duracao: 643500 Nota: C1 Vol.: 52
Chanel 7 Note On - Duracao: 643500 Nota: C1 Vol.: 68
Chanel 7 Note Off - Duracao: 643740 Nota: C1 Vol.: 68
Chanel 7 Note On - Duracao: 643740 Nota: C1 Vol.: 71
Chanel 7 Note Off - Duracao: 643980 Nota: C1 Vol.: 71
Chanel 7 Note On - Duracao: 643980 Nota: C1 Vol.: 64
Chanel 7 Note Off - Duracao: 644220 Nota: C1 Vol.: 64
Chanel 7 Note On - Duracao: 644220 Nota: C1 Vol.: 62
Chanel 7 Note Off - Duracao: 644460 Nota: C1 Vol.: 62
Chanel 7 Note On - Duracao: 644460 Nota: C1 Vol.: 56
Chanel 5 Note Off - Duracao: 644580 Nota: C1 Vol.: 48
Chanel 5 Note On - Duracao: 644580 Nota: C1 Vol.: 58
Chanel 7 Note Off - Duracao: 644940 Nota: C1 Vol.: 56
Chanel 7 Note On - Duracao: 644940 Nota: C1 Vol.: 57
Chanel 3 Note Off - Duracao: 645120 Nota: C1 Vol.: 41
Chanel 3 Note On - Duracao: 645120 Nota: C1 Vol.: 42
Chanel 7 Note Off - Duracao: 645180 Nota: C1 Vol.: 57
Chanel 7 Note On - Duracao: 645180 Nota: C1 Vol.: 60
Chanel 7 Note Off - Duracao: 645420 Nota: C1 Vol.: 60
Chanel 7 Note On - Duracao: 645420 Nota: C1 Vol.: 71
Chanel 7 Note Off - Duracao: 645540 Nota: C1 Vol.: 71
Chanel 7 Note On - Duracao: 645540 Nota: C1 Vol.: 72
Chanel 7 Note Off - Duracao: 645660 Nota: C1 Vol.: 72
Chanel 7 Note On - Duracao: 645660 Nota: C1 Vol.: 63
Chanel 5 Note Off - Duracao: 646500 Nota: C1 Vol.: 58
Chanel 5 Note On - Duracao: 646500 Nota: C1 Vol.: 72
Chanel 6 Note Off - Duracao: 646620 Nota: C1 Vol.: 64
Chanel 6 Note On - Duracao: 646620 Nota: C1 Vol.: 61
Chanel 7 Note Off - Duracao: 646620 Nota: C1 Vol.: 63
Chanel 7 Note On - Duracao: 646620 Nota: C1 Vol.: 87
Chanel 7 Note Off - Duracao: 646740 Nota: C1 Vol.: 87
Chanel 7 Note On - Duracao: 646740 Nota: C1 Vol.: 68
Chanel 7 Note Off - Duracao: 646980 Nota: C1 Vol.: 68
Chanel 7 Note On - Duracao: 646980 Nota: C1 Vol.: 60
Chanel 7 Note Off - Duracao: 647220 Nota: C1 Vol.: 60
Chanel 7 Note On - Duracao: 647220 Nota: C1 Vol.: 69
Chanel 7 Note Off - Duracao: 647340 Nota: C1 Vol.: 69
Chanel 7 Note On - Duracao: 647340 Nota: C1 Vol.: 71
Chanel 5 Note Off - Duracao: 647460 Nota: C1 Vol.: 72
Chanel 5 Note On - Duracao: 647460 Nota: C1 Vol.: 95
Chanel 7 Note Off - Duracao: 647460 Nota: C1 Vol.: 71
Chanel 7 Note On - Duracao: 647460 Nota: C1 Vol.: 69
Chanel 5 Note Off - Duracao: 647580 Nota: C1 Vol.: 95
Chanel 5 Note On - Duracao: 647580 Nota: C1 Vol.: 98
Chanel 5 Note Off - Duracao: 647640 Nota: C1 Vol.: 98
Chanel 5 Note On - Duracao: 647640 Nota: C1 Vol.: 99
Chanel 5 Note Off - Duracao: 647700 Nota: C1 Vol.: 99
Chanel 5 Note On - Duracao: 647700 Nota: C1 Vol.: 96
Chanel 7 Note Off - Duracao: 647700 Nota: C1 Vol.: 69
Chanel 7 Note On - Duracao: 647700 Nota: C1 Vol.: 80
Chanel 5 Note Off - Duracao: 647760 Nota: C1 Vol.: 96
Chanel 5 Note On - Duracao: 647760 Nota: C1 Vol.: 88
Chanel 7 Note Off - Duracao: 647820 Nota: C1 Vol.: 80
Chanel 7 Note On - Duracao: 647820 Nota: C1 Vol.: 77
Chanel 5 Note Off - Duracao: 647880 Nota: C1 Vol.: 88
Chanel 5 Note On - Duracao: 647880 Nota: C1 Vol.: 48
Chanel 7 Note Off - Duracao: 648060 Nota: C1 Vol.: 77
Chanel 7 Note On - Duracao: 648060 Nota: C1 Vol.: 77
Chanel 7 Note Off - Duracao: 648300 Nota: C1 Vol.: 77
Chanel 7 Note On - Duracao: 648300 Nota: C1 Vol.: 74
Chanel 7 Note Off - Duracao: 648540 Nota: C1 Vol.: 74
Chanel 7 Note On - Duracao: 648540 Nota: C1 Vol.: 49
Chanel 3 Note Off - Duracao: 648960 Nota: C1 Vol.: 42
Chanel 3 Note On - Duracao: 648960 Nota: C1 Vol.: 42
Chanel 7 Note Off - Duracao: 649500 Nota: C1 Vol.: 49
Chanel 7 Note On - Duracao: 649500 Nota: C1 Vol.: 70
Chanel 7 Note Off - Duracao: 649620 Nota: C1 Vol.: 70
Chanel 7 Note On - Duracao: 649620 Nota: C1 Vol.: 68
Chanel 7 Note Off - Duracao: 649740 Nota: C1 Vol.: 68
Chanel 7 Note On - Duracao: 649740 Nota: C1 Vol.: 77
Chanel 5 Note Off - Duracao: 649800 Nota: C1 Vol.: 48
Chanel 5 Note On - Duracao: 649800 Nota: C1 Vol.: 47
Chanel 7 Note Off - Duracao: 649860 Nota: C1 Vol.: 77
Chanel 7 Note On - Duracao: 649860 Nota: C1 Vol.: 88
Chanel 7 Note Off - Duracao: 649980 Nota: C1 Vol.: 88
Chanel 7 Note On - Duracao: 649980 Nota: C1 Vol.: 82
Chanel 7 Note Off - Duracao: 650220 Nota: C1 Vol.: 82
Chanel 7 Note On - Duracao: 650220 Nota: C1 Vol.: 83
Chanel 6 Note Off - Duracao: 650460 Nota: C1 Vol.: 61
Chanel 6 Note On - Duracao: 650460 Nota: C1 Vol.: 61
Chanel 7 Note Off - Duracao: 650460 Nota: C1 Vol.: 83
Chanel 7 Note On - Duracao: 650460 Nota: C1 Vol.: 72
Chanel 3 Note Off - Duracao: 650880 Nota: C1 Vol.: 42
Chanel 3 Note On - Duracao: 650880 Nota: C1 Vol.: 41
Chanel 7 Note Off - Duracao: 650940 Nota: C1 Vol.: 72
Chanel 7 Note On - Duracao: 650940 Nota: C1 Vol.: 66
Chanel 7 Note Off - Duracao: 651420 Nota: C1 Vol.: 66
Chanel 7 Note On - Duracao: 651420 Nota: C1 Vol.: 63
Chanel 5 Note Off - Duracao: 651720 Nota: C1 Vol.: 47
Chanel 5 Note On - Duracao: 651720 Nota: C1 Vol.: 53
Chanel 7 Note Off - Duracao: 651900 Nota: C1 Vol.: 63
Chanel 7 Note On - Duracao: 651900 Nota: C1 Vol.: 47
Chanel 3 Note Off - Duracao: 652800 Nota: C1 Vol.: 41
Chanel 3 Note On - Duracao: 652800 Nota: C1 Vol.: 40
Chanel 7 Note Off - Duracao: 652860 Nota: C1 Vol.: 47
Chanel 7 Note On - Duracao: 652860 Nota: C1 Vol.: 41
Chanel 5 Note Off - Duracao: 653640 Nota: C1 Vol.: 53
Chanel 5 Note On - Duracao: 653640 Nota: C1 Vol.: 83
Chanel 5 Note Off - Duracao: 653880 Nota: C1 Vol.: 83
Chanel 5 Note On - Duracao: 653880 Nota: C1 Vol.: 87
Chanel 5 Note Off - Duracao: 654000 Nota: C1 Vol.: 87
Chanel 5 Note On - Duracao: 654000 Nota: C1 Vol.: 87
Chanel 5 Note Off - Duracao: 654120 Nota: C1 Vol.: 87
Chanel 5 Note On - Duracao: 654120 Nota: C1 Vol.: 88
Chanel 5 Note Off - Duracao: 654240 Nota: C1 Vol.: 88
Chanel 5 Note On - Duracao: 654240 Nota: C1 Vol.: 93
Chanel 6 Note Off - Duracao: 654300 Nota: C1 Vol.: 61
Chanel 6 Note On - Duracao: 654300 Nota: C1 Vol.: 60
Chanel 5 Note Off - Duracao: 654360 Nota: C1 Vol.: 93
Chanel 5 Note On - Duracao: 654360 Nota: C1 Vol.: 95
Chanel 5 Note Off - Duracao: 654480 Nota: C1 Vol.: 95
Chanel 5 Note On - Duracao: 654480 Nota: C1 Vol.: 99
Chanel 5 Note Off - Duracao: 654540 Nota: C1 Vol.: 99
Chanel 5 Note On - Duracao: 654540 Nota: C1 Vol.: 99
Chanel 5 Note Off - Duracao: 654600 Nota: C1 Vol.: 99
Chanel 5 Note On - Duracao: 654600 Nota: C1 Vol.: 98
Chanel 5 Note Off - Duracao: 654660 Nota: C1 Vol.: 98
Chanel 5 Note On - Duracao: 654660 Nota: C1 Vol.: 97
Chanel 3 Note Off - Duracao: 654720 Nota: C1 Vol.: 40
Chanel 3 Note On - Duracao: 654720 Nota: C1 Vol.: 40
Chanel 5 Note Off - Duracao: 654720 Nota: C1 Vol.: 97
Chanel 5 Note On - Duracao: 654720 Nota: C1 Vol.: 98
Chanel 5 Note Off - Duracao: 654780 Nota: C1 Vol.: 98
Chanel 5 Note On - Duracao: 654780 Nota: C1 Vol.: 98
Chanel 7 Note Off - Duracao: 654780 Nota: C1 Vol.: 41
Chanel 7 Note On - Duracao: 654780 Nota: C1 Vol.: 42
Chanel 5 Note Off - Duracao: 654840 Nota: C1 Vol.: 98
Chanel 5 Note On - Duracao: 654840 Nota: C1 Vol.: 100
Chanel 5 Note Off - Duracao: 654900 Nota: C1 Vol.: 100
Chanel 5 Note On - Duracao: 654900 Nota: C1 Vol.: 92
Chanel 5 Note Off - Duracao: 655020 Nota: C1 Vol.: 92
Chanel 5 Note On - Duracao: 655020 Nota: C1 Vol.: 87
Chanel 5 Note Off - Duracao: 655140 Nota: C1 Vol.: 87
Chanel 5 Note On - Duracao: 655140 Nota: C1 Vol.: 47
Chanel 3 Note Off - Duracao: 656640 Nota: C1 Vol.: 40
Chanel 3 Note On - Duracao: 656640 Nota: C1 Vol.: 45
Chanel 7 Note Off - Duracao: 656700 Nota: C1 Vol.: 42
Chanel 7 Note On - Duracao: 656700 Nota: C1 Vol.: 40
Chanel 5 Note Off - Duracao: 657060 Nota: C1 Vol.: 47
Chanel 5 Note On - Duracao: 657060 Nota: C1 Vol.: 86
Chanel 5 Note Off - Duracao: 657180 Nota: C1 Vol.: 86
Chanel 5 Note On - Duracao: 657180 Nota: C1 Vol.: 96
Chanel 5 Note Off - Duracao: 657240 Nota: C1 Vol.: 96
Chanel 5 Note On - Duracao: 657240 Nota: C1 Vol.: 98
Chanel 5 Note Off - Duracao: 657300 Nota: C1 Vol.: 98
Chanel 5 Note On - Duracao: 657300 Nota: C1 Vol.: 97
Chanel 5 Note Off - Duracao: 657360 Nota: C1 Vol.: 97
Chanel 5 Note On - Duracao: 657360 Nota: C1 Vol.: 96
Chanel 5 Note Off - Duracao: 657420 Nota: C1 Vol.: 96
Chanel 5 Note On - Duracao: 657420 Nota: C1 Vol.: 98
Chanel 5 Note Off - Duracao: 657480 Nota: C1 Vol.: 98
Chanel 5 Note On - Duracao: 657480 Nota: C1 Vol.: 94
Chanel 5 Note Off - Duracao: 657540 Nota: C1 Vol.: 94
Chanel 5 Note On - Duracao: 657540 Nota: C1 Vol.: 80
Chanel 5 Note Off - Duracao: 657660 Nota: C1 Vol.: 80
Chanel 5 Note On - Duracao: 657660 Nota: C1 Vol.: 70
Chanel 5 Note Off - Duracao: 657900 Nota: C1 Vol.: 70
Chanel 5 Note On - Duracao: 657900 Nota: C1 Vol.: 67
Chanel 6 Note Off - Duracao: 658140 Nota: C1 Vol.: 60
Chanel 6 Note On - Duracao: 658140 Nota: C1 Vol.: 58
Chanel 5 Note Off - Duracao: 658380 Nota: C1 Vol.: 67
Chanel 5 Note On - Duracao: 658380 Nota: C1 Vol.: 68
Chanel 3 Note Off - Duracao: 658560 Nota: C1 Vol.: 45
Chanel 3 Note On - Duracao: 658560 Nota: C1 Vol.: 48
Chanel 7 Note Off - Duracao: 658620 Nota: C1 Vol.: 40
Chanel 7 Note On - Duracao: 658620 Nota: C1 Vol.: 41
Chanel 5 Note Off - Duracao: 658860 Nota: C1 Vol.: 68
Chanel 5 Note On - Duracao: 658860 Nota: C1 Vol.: 64
Chanel 5 Note Off - Duracao: 659340 Nota: C1 Vol.: 64
Chanel 5 Note On - Duracao: 659340 Nota: C1 Vol.: 62
Chanel 5 Note Off - Duracao: 659820 Nota: C1 Vol.: 62
Chanel 5 Note On - Duracao: 659820 Nota: C1 Vol.: 71
Chanel 5 Note Off - Duracao: 660060 Nota: C1 Vol.: 71
Chanel 5 Note On - Duracao: 660060 Nota: C1 Vol.: 58
Chanel 3 Note Off - Duracao: 660480 Nota: C1 Vol.: 48
Chanel 3 Note On - Duracao: 660480 Nota: C1 Vol.: 42
Chanel 5 Note Off - Duracao: 660540 Nota: C1 Vol.: 58
Chanel 5 Note On - Duracao: 660540 Nota: C1 Vol.: 62
Chanel 7 Note Off - Duracao: 660540 Nota: C1 Vol.: 41
Chanel 7 Note On - Duracao: 660540 Nota: C1 Vol.: 43
Chanel 5 Note Off - Duracao: 660780 Nota: C1 Vol.: 62
Chanel 5 Note On - Duracao: 660780 Nota: C1 Vol.: 64
Chanel 5 Note Off - Duracao: 661020 Nota: C1 Vol.: 64
Chanel 5 Note On - Duracao: 661020 Nota: C1 Vol.: 51
Chanel 5 Note Off - Duracao: 661500 Nota: C1 Vol.: 51
Chanel 5 Note On - Duracao: 661500 Nota: C1 Vol.: 59
Chanel 7 Note Off - Duracao: 661500 Nota: C1 Vol.: 43
Chanel 7 Note On - Duracao: 661500 Nota: C1 Vol.: 55
Chanel 5 Note Off - Duracao: 661740 Nota: C1 Vol.: 59
Chanel 5 Note On - Duracao: 661740 Nota: C1 Vol.: 69
Chanel 5 Note Off - Duracao: 661860 Nota: C1 Vol.: 69
Chanel 5 Note On - Duracao: 661860 Nota: C1 Vol.: 62
Chanel 6 Note Off - Duracao: 661980 Nota: C1 Vol.: 58
Chanel 6 Note On - Duracao: 661980 Nota: C1 Vol.: 62
Chanel 7 Note Off - Duracao: 661980 Nota: C1 Vol.: 55
Chanel 7 Note On - Duracao: 661980 Nota: C1 Vol.: 52
Chanel 5 Note Off - Duracao: 662100 Nota: C1 Vol.: 62
Chanel 5 Note On - Duracao: 662100 Nota: C1 Vol.: 69
Chanel 5 Note Off - Duracao: 662220 Nota: C1 Vol.: 69
Chanel 5 Note On - Duracao: 662220 Nota: C1 Vol.: 61
Chanel 3 Note Off - Duracao: 662400 Nota: C1 Vol.: 42
Chanel 3 Note On - Duracao: 662400 Nota: C1 Vol.: 42
Chanel 5 Note Off - Duracao: 662460 Nota: C1 Vol.: 61
Chanel 5 Note On - Duracao: 662460 Nota: C1 Vol.: 48
Chanel 7 Note Off - Duracao: 662460 Nota: C1 Vol.: 52
Chanel 7 Note On - Duracao: 662460 Nota: C1 Vol.: 56
Chanel 5 Note Off - Duracao: 662940 Nota: C1 Vol.: 48
Chanel 5 Note On - Duracao: 662940 Nota: C1 Vol.: 48
Chanel 7 Note Off - Duracao: 662940 Nota: C1 Vol.: 56
Chanel 7 Note On - Duracao: 662940 Nota: C1 Vol.: 59
Chanel 5 Note Off - Duracao: 663420 Nota: C1 Vol.: 48
Chanel 5 Note On - Duracao: 663420 Nota: C1 Vol.: 51
Chanel 7 Note Off - Duracao: 663420 Nota: C1 Vol.: 59
Chanel 7 Note On - Duracao: 663420 Nota: C1 Vol.: 59
Chanel 5 Note Off - Duracao: 663900 Nota: C1 Vol.: 51
Chanel 5 Note On - Duracao: 663900 Nota: C1 Vol.: 53
Chanel 7 Note Off - Duracao: 663900 Nota: C1 Vol.: 59
Chanel 7 Note On - Duracao: 663900 Nota: C1 Vol.: 50
Chanel 3 Note Off - Duracao: 664320 Nota: C1 Vol.: 42
Chanel 3 Note On - Duracao: 664320 Nota: C1 Vol.: 49
Chanel 5 Note Off - Duracao: 664380 Nota: C1 Vol.: 53
Chanel 5 Note On - Duracao: 664380 Nota: C1 Vol.: 51
Chanel 5 Note Off - Duracao: 664860 Nota: C1 Vol.: 51
Chanel 5 Note On - Duracao: 664860 Nota: C1 Vol.: 51
Chanel 7 Note Off - Duracao: 664860 Nota: C1 Vol.: 50
Chanel 7 Note On - Duracao: 664860 Nota: C1 Vol.: 45
Chanel 3 Note Off - Duracao: 665280 Nota: C1 Vol.: 49
Chanel 3 Note On - Duracao: 665280 Nota: C1 Vol.: 50
Chanel 5 Note Off - Duracao: 665340 Nota: C1 Vol.: 51
Chanel 5 Note On - Duracao: 665340 Nota: C1 Vol.: 50
Chanel 5 Note Off - Duracao: 665820 Nota: C1 Vol.: 50
Chanel 5 Note On - Duracao: 665820 Nota: C1 Vol.: 40
Chanel 6 Note Off - Duracao: 665820 Nota: C1 Vol.: 62
Chanel 6 Note On - Duracao: 665820 Nota: C1 Vol.: 68
Chanel 7 Note Off - Duracao: 665820 Nota: C1 Vol.: 45
Chanel 7 Note On - Duracao: 665820 Nota: C1 Vol.: 45
Chanel 3 Note Off - Duracao: 666240 Nota: C1 Vol.: 50
Chanel 3 Note On - Duracao: 666240 Nota: C1 Vol.: 50
Chanel 7 Note Off - Duracao: 666780 Nota: C1 Vol.: 45
Chanel 7 Note On - Duracao: 666780 Nota: C1 Vol.: 44
Chanel 3 Note Off - Duracao: 667200 Nota: C1 Vol.: 50
Chanel 3 Note On - Duracao: 667200 Nota: C1 Vol.: 43
Chanel 5 Note Off - Duracao: 667740 Nota: C1 Vol.: 40
Chanel 5 Note On - Duracao: 667740 Nota: C1 Vol.: 44
Chanel 6 Note Off - Duracao: 667740 Nota: C1 Vol.: 68
Chanel 6 Note On - Duracao: 667740 Nota: C1 Vol.: 71
Chanel 5 Note Off - Duracao: 668700 Nota: C1 Vol.: 44
Chanel 5 Note On - Duracao: 668700 Nota: C1 Vol.: 54
Chanel 7 Note Off - Duracao: 668700 Nota: C1 Vol.: 44
Chanel 7 Note On - Duracao: 668700 Nota: C1 Vol.: 48
Chanel 3 Note Off - Duracao: 669120 Nota: C1 Vol.: 43
Chanel 3 Note On - Duracao: 669120 Nota: C1 Vol.: 49
Chanel 5 Note Off - Duracao: 669180 Nota: C1 Vol.: 54
Chanel 5 Note On - Duracao: 669180 Nota: C1 Vol.: 56
Chanel 6 Note Off - Duracao: 669660 Nota: C1 Vol.: 71
Chanel 6 Note On - Duracao: 669660 Nota: C1 Vol.: 71
Chanel 7 Note Off - Duracao: 669660 Nota: C1 Vol.: 48
Chanel 7 Note On - Duracao: 669660 Nota: C1 Vol.: 51
Chanel 5 Note Off - Duracao: 670140 Nota: C1 Vol.: 56
Chanel 5 Note On - Duracao: 670140 Nota: C1 Vol.: 59
Chanel 5 Note Off - Duracao: 670620 Nota: C1 Vol.: 59
Chanel 5 Note On - Duracao: 670620 Nota: C1 Vol.: 50
Chanel 7 Note Off - Duracao: 670620 Nota: C1 Vol.: 51
Chanel 7 Note On - Duracao: 670620 Nota: C1 Vol.: 51
Chanel 3 Note Off - Duracao: 671040 Nota: C1 Vol.: 49
Chanel 3 Note On - Duracao: 671040 Nota: C1 Vol.: 45
Chanel 5 Note Off - Duracao: 671100 Nota: C1 Vol.: 50
Chanel 5 Note On - Duracao: 671100 Nota: C1 Vol.: 56
Chanel 5 Note Off - Duracao: 671340 Nota: C1 Vol.: 56
Chanel 5 Note On - Duracao: 671340 Nota: C1 Vol.: 56
Chanel 5 Note Off - Duracao: 671580 Nota: C1 Vol.: 56
Chanel 5 Note On - Duracao: 671580 Nota: C1 Vol.: 55
Chanel 6 Note Off - Duracao: 671580 Nota: C1 Vol.: 71
Chanel 6 Note On - Duracao: 671580 Nota: C1 Vol.: 72
Chanel 7 Note Off - Duracao: 671580 Nota: C1 Vol.: 51
Chanel 7 Note On - Duracao: 671580 Nota: C1 Vol.: 52
Chanel 5 Note Off - Duracao: 671820 Nota: C1 Vol.: 55
Chanel 5 Note On - Duracao: 671820 Nota: C1 Vol.: 69
Chanel 5 Note Off - Duracao: 671940 Nota: C1 Vol.: 69
Chanel 5 Note On - Duracao: 671940 Nota: C1 Vol.: 68
Chanel 5 Note Off - Duracao: 672180 Nota: C1 Vol.: 68
Chanel 5 Note On - Duracao: 672180 Nota: C1 Vol.: 62
Chanel 5 Note Off - Duracao: 672420 Nota: C1 Vol.: 62
Chanel 5 Note On - Duracao: 672420 Nota: C1 Vol.: 54
Chanel 7 Note Off - Duracao: 672540 Nota: C1 Vol.: 52
Chanel 7 Note On - Duracao: 672540 Nota: C1 Vol.: 53
Chanel 5 Note Off - Duracao: 672900 Nota: C1 Vol.: 54
Chanel 5 Note On - Duracao: 672900 Nota: C1 Vol.: 52
Chanel 3 Note Off - Duracao: 672960 Nota: C1 Vol.: 45
Chanel 3 Note On - Duracao: 672960 Nota: C1 Vol.: 81
Chanel 3 Note Off - Duracao: 673200 Nota: C1 Vol.: 81
Chanel 3 Note On - Duracao: 673200 Nota: C1 Vol.: 89
Chanel 3 Note Off - Duracao: 673320 Nota: C1 Vol.: 89
Chanel 3 Note On - Duracao: 673320 Nota: C1 Vol.: 96
Chanel 3 Note Off - Duracao: 673440 Nota: C1 Vol.: 96
Chanel 3 Note On - Duracao: 673440 Nota: C1 Vol.: 100
Chanel 3 Note Off - Duracao: 673500 Nota: C1 Vol.: 100
Chanel 3 Note On - Duracao: 673500 Nota: C1 Vol.: 99
Chanel 6 Note Off - Duracao: 673500 Nota: C1 Vol.: 72
Chanel 6 Note On - Duracao: 673500 Nota: C1 Vol.: 72
Chanel 7 Note Off - Duracao: 673500 Nota: C1 Vol.: 53
Chanel 7 Note On - Duracao: 673500 Nota: C1 Vol.: 55
Chanel 3 Note Off - Duracao: 673560 Nota: C1 Vol.: 99
Chanel 3 Note On - Duracao: 673560 Nota: C1 Vol.: 98
Chanel 3 Note Off - Duracao: 673620 Nota: C1 Vol.: 98
Chanel 3 Note On - Duracao: 673620 Nota: C1 Vol.: 99
Chanel 3 Note Off - Duracao: 673680 Nota: C1 Vol.: 99
Chanel 3 Note On - Duracao: 673680 Nota: C1 Vol.: 98
Chanel 3 Note Off - Duracao: 673740 Nota: C1 Vol.: 98
Chanel 3 Note On - Duracao: 673740 Nota: C1 Vol.: 95
Chanel 3 Note Off - Duracao: 673800 Nota: C1 Vol.: 95
Chanel 3 Note On - Duracao: 673800 Nota: C1 Vol.: 89
Chanel 5 Note Off - Duracao: 673860 Nota: C1 Vol.: 52
Chanel 5 Note On - Duracao: 673860 Nota: C1 Vol.: 43
Chanel 3 Note Off - Duracao: 673920 Nota: C1 Vol.: 89
Chanel 3 Note On - Duracao: 673920 Nota: C1 Vol.: 42
Chanel 7 Note Off - Duracao: 674460 Nota: C1 Vol.: 55
Chanel 7 Note On - Duracao: 674460 Nota: C1 Vol.: 62
Chanel 7 Note Off - Duracao: 674940 Nota: C1 Vol.: 62
Chanel 7 Note On - Duracao: 674940 Nota: C1 Vol.: 60
Chanel 6 Note Off - Duracao: 675420 Nota: C1 Vol.: 72
Chanel 6 Note On - Duracao: 675420 Nota: C1 Vol.: 71
Chanel 5 Note Off - Duracao: 675780 Nota: C1 Vol.: 43
Chanel 5 Note On - Duracao: 675780 Nota: C1 Vol.: 56
Chanel 3 Note Off - Duracao: 675840 Nota: C1 Vol.: 42
Chanel 3 Note On - Duracao: 675840 Nota: C1 Vol.: 62
Chanel 7 Note Off - Duracao: 675900 Nota: C1 Vol.: 60
Chanel 7 Note On - Duracao: 675900 Nota: C1 Vol.: 71
Chanel 3 Note Off - Duracao: 676320 Nota: C1 Vol.: 62
Chanel 3 Note On - Duracao: 676320 Nota: C1 Vol.: 100
Chanel 3 Note Off - Duracao: 676380 Nota: C1 Vol.: 100
Chanel 3 Note On - Duracao: 676380 Nota: C1 Vol.: 99
Chanel 7 Note Off - Duracao: 676380 Nota: C1 Vol.: 71
Chanel 7 Note On - Duracao: 676380 Nota: C1 Vol.: 71
Chanel 3 Note Off - Duracao: 676440 Nota: C1 Vol.: 99
Chanel 3 Note On - Duracao: 676440 Nota: C1 Vol.: 98
Chanel 3 Note Off - Duracao: 676500 Nota: C1 Vol.: 98
Chanel 3 Note On - Duracao: 676500 Nota: C1 Vol.: 99
Chanel 3 Note Off - Duracao: 676560 Nota: C1 Vol.: 99
Chanel 3 Note On - Duracao: 676560 Nota: C1 Vol.: 100
Chanel 3 Note Off - Duracao: 676620 Nota: C1 Vol.: 100
Chanel 3 Note On - Duracao: 676620 Nota: C1 Vol.: 100
Chanel 3 Note Off - Duracao: 676680 Nota: C1 Vol.: 100
Chanel 3 Note On - Duracao: 676680 Nota: C1 Vol.: 100
Chanel 3 Note Off - Duracao: 676740 Nota: C1 Vol.: 100
Chanel 3 Note On - Duracao: 676740 Nota: C1 Vol.: 100
Chanel 3 Note Off - Duracao: 676800 Nota: C1 Vol.: 100
Chanel 3 Note On - Duracao: 676800 Nota: C1 Vol.: 99
Chanel 3 Note Off - Duracao: 676860 Nota: C1 Vol.: 99
Chanel 3 Note On - Duracao: 676860 Nota: C1 Vol.: 97
Chanel 7 Note Off - Duracao: 676860 Nota: C1 Vol.: 71
Chanel 7 Note On - Duracao: 676860 Nota: C1 Vol.: 66
Chanel 3 Note Off - Duracao: 676920 Nota: C1 Vol.: 97
Chanel 3 Note On - Duracao: 676920 Nota: C1 Vol.: 96
Chanel 3 Note Off - Duracao: 676980 Nota: C1 Vol.: 96
Chanel 3 Note On - Duracao: 676980 Nota: C1 Vol.: 79
Chanel 3 Note Off - Duracao: 677220 Nota: C1 Vol.: 79
Chanel 3 Note On - Duracao: 677220 Nota: C1 Vol.: 65
Chanel 6 Note Off - Duracao: 677340 Nota: C1 Vol.: 71
Chanel 6 Note On - Duracao: 677340 Nota: C1 Vol.: 71
Chanel 7 Note Off - Duracao: 677340 Nota: C1 Vol.: 66
Chanel 7 Note On - Duracao: 677340 Nota: C1 Vol.: 49
Chanel 3 Note Off - Duracao: 677700 Nota: C1 Vol.: 65
Chanel 3 Note On - Duracao: 677700 Nota: C1 Vol.: 68
Chanel 5 Note Off - Duracao: 677700 Nota: C1 Vol.: 56
Chanel 5 Note On - Duracao: 677700 Nota: C1 Vol.: 58
Chanel 3 Note Off - Duracao: 677940 Nota: C1 Vol.: 68
Chanel 3 Note On - Duracao: 677940 Nota: C1 Vol.: 67
Chanel 3 Note Off - Duracao: 678180 Nota: C1 Vol.: 67
Chanel 3 Note On - Duracao: 678180 Nota: C1 Vol.: 63
Chanel 7 Note Off - Duracao: 678300 Nota: C1 Vol.: 49
Chanel 7 Note On - Duracao: 678300 Nota: C1 Vol.: 46
Chanel 3 Note Off - Duracao: 678420 Nota: C1 Vol.: 63
Chanel 3 Note On - Duracao: 678420 Nota: C1 Vol.: 55
Chanel 3 Note Off - Duracao: 678660 Nota: C1 Vol.: 55
Chanel 3 Note On - Duracao: 678660 Nota: C1 Vol.: 60
Chanel 3 Note Off - Duracao: 678900 Nota: C1 Vol.: 60
Chanel 3 Note On - Duracao: 678900 Nota: C1 Vol.: 69
Chanel 3 Note Off - Duracao: 679020 Nota: C1 Vol.: 69
Chanel 3 Note On - Duracao: 679020 Nota: C1 Vol.: 79
Chanel 3 Note Off - Duracao: 679140 Nota: C1 Vol.: 79
Chanel 3 Note On - Duracao: 679140 Nota: C1 Vol.: 93
Chanel 3 Note Off - Duracao: 679200 Nota: C1 Vol.: 93
Chanel 3 Note On - Duracao: 679200 Nota: C1 Vol.: 96
Chanel 3 Note Off - Duracao: 679260 Nota: C1 Vol.: 96
Chanel 3 Note On - Duracao: 679260 Nota: C1 Vol.: 98
Chanel 6 Note Off - Duracao: 679260 Nota: C1 Vol.: 71
Chanel 6 Note On - Duracao: 679260 Nota: C1 Vol.: 70
Chanel 7 Note Off - Duracao: 679260 Nota: C1 Vol.: 46
Chanel 7 Note On - Duracao: 679260 Nota: C1 Vol.: 48
Chanel 3 Note Off - Duracao: 679320 Nota: C1 Vol.: 98
Chanel 3 Note On - Duracao: 679320 Nota: C1 Vol.: 96
Chanel 3 Note Off - Duracao: 679440 Nota: C1 Vol.: 96
Chanel 3 Note On - Duracao: 679440 Nota: C1 Vol.: 81
Chanel 3 Note Off - Duracao: 679560 Nota: C1 Vol.: 81
Chanel 3 Note On - Duracao: 679560 Nota: C1 Vol.: 56
Chanel 5 Note Off - Duracao: 679620 Nota: C1 Vol.: 58
Chanel 5 Note On - Duracao: 679620 Nota: C1 Vol.: 52
Chanel 7 Note Off - Duracao: 680220 Nota: C1 Vol.: 48
Chanel 7 Note On - Duracao: 680220 Nota: C1 Vol.: 52
Chanel 3 Note Off - Duracao: 680520 Nota: C1 Vol.: 56
Chanel 3 Note On - Duracao: 680520 Nota: C1 Vol.: 48
Chanel 6 Note Off - Duracao: 681180 Nota: C1 Vol.: 70
Chanel 6 Note On - Duracao: 681180 Nota: C1 Vol.: 70
Chanel 7 Note Off - Duracao: 681180 Nota: C1 Vol.: 52
Chanel 7 Note On - Duracao: 681180 Nota: C1 Vol.: 55
Chanel 3 Note Off - Duracao: 681480 Nota: C1 Vol.: 48
Chanel 3 Note On - Duracao: 681480 Nota: C1 Vol.: 43
Chanel 7 Note Off - Duracao: 682140 Nota: C1 Vol.: 55
Chanel 7 Note On - Duracao: 682140 Nota: C1 Vol.: 54
Chanel 6 Note Off - Duracao: 683100 Nota: C1 Vol.: 70
Chanel 6 Note On - Duracao: 683100 Nota: C1 Vol.: 71
Chanel 7 Note Off - Duracao: 683100 Nota: C1 Vol.: 54
Chanel 7 Note On - Duracao: 683100 Nota: C1 Vol.: 55
Chanel 3 Note Off - Duracao: 683400 Nota: C1 Vol.: 43
Chanel 3 Note On - Duracao: 683400 Nota: C1 Vol.: 40
Chanel 5 Note Off - Duracao: 683460 Nota: C1 Vol.: 52
Chanel 5 Note On - Duracao: 683460 Nota: C1 Vol.: 53
Chanel 7 Note Off - Duracao: 684060 Nota: C1 Vol.: 55
Chanel 7 Note On - Duracao: 684060 Nota: C1 Vol.: 54
Chanel 6 Note Off - Duracao: 685020 Nota: C1 Vol.: 71
Chanel 6 Note On - Duracao: 685020 Nota: C1 Vol.: 72
Chanel 7 Note Off - Duracao: 685020 Nota: C1 Vol.: 54
Chanel 7 Note On - Duracao: 685020 Nota: C1 Vol.: 50
Chanel 3 Note Off - Duracao: 685320 Nota: C1 Vol.: 40
Chanel 3 Note On - Duracao: 685320 Nota: C1 Vol.: 40
Chanel 7 Note Off - Duracao: 685980 Nota: C1 Vol.: 50
Chanel 7 Note On - Duracao: 685980 Nota: C1 Vol.: 50
Chanel 6 Note Off - Duracao: 686940 Nota: C1 Vol.: 72
Chanel 6 Note On - Duracao: 686940 Nota: C1 Vol.: 70
Chanel 7 Note Off - Duracao: 686940 Nota: C1 Vol.: 50
Chanel 7 Note On - Duracao: 686940 Nota: C1 Vol.: 55
Chanel 3 Note Off - Duracao: 687240 Nota: C1 Vol.: 40
Chanel 3 Note On - Duracao: 687240 Nota: C1 Vol.: 60
Chanel 5 Note Off - Duracao: 687300 Nota: C1 Vol.: 53
Chanel 5 Note On - Duracao: 687300 Nota: C1 Vol.: 56
Chanel 3 Note Off - Duracao: 687720 Nota: C1 Vol.: 60
Chanel 3 Note On - Duracao: 687720 Nota: C1 Vol.: 55
Chanel 7 Note Off - Duracao: 687900 Nota: C1 Vol.: 55
Chanel 7 Note On - Duracao: 687900 Nota: C1 Vol.: 60
Chanel 3 Note Off - Duracao: 688200 Nota: C1 Vol.: 55
Chanel 3 Note On - Duracao: 688200 Nota: C1 Vol.: 55
Chanel 7 Note Off - Duracao: 688380 Nota: C1 Vol.: 60
Chanel 7 Note On - Duracao: 688380 Nota: C1 Vol.: 54
Chanel 3 Note Off - Duracao: 688680 Nota: C1 Vol.: 55
Chanel 3 Note On - Duracao: 688680 Nota: C1 Vol.: 52
Chanel 6 Note Off - Duracao: 688860 Nota: C1 Vol.: 70
Chanel 6 Note On - Duracao: 688860 Nota: C1 Vol.: 72
Chanel 3 Note Off - Duracao: 689160 Nota: C1 Vol.: 52
Chanel 3 Note On - Duracao: 689160 Nota: C1 Vol.: 44
Chanel 7 Note Off - Duracao: 689340 Nota: C1 Vol.: 54
Chanel 7 Note On - Duracao: 689340 Nota: C1 Vol.: 46
Chanel 3 Note Off - Duracao: 690120 Nota: C1 Vol.: 44
Chanel 3 Note On - Duracao: 690120 Nota: C1 Vol.: 52
Chanel 7 Note Off - Duracao: 690300 Nota: C1 Vol.: 46
Chanel 7 Note On - Duracao: 690300 Nota: C1 Vol.: 47
Chanel 6 Note Off - Duracao: 690780 Nota: C1 Vol.: 72
Chanel 6 Note On - Duracao: 690780 Nota: C1 Vol.: 72
Chanel 3 Note Off - Duracao: 691080 Nota: C1 Vol.: 52
Chanel 3 Note On - Duracao: 691080 Nota: C1 Vol.: 55
Chanel 5 Note Off - Duracao: 691140 Nota: C1 Vol.: 56
Chanel 5 Note On - Duracao: 691140 Nota: C1 Vol.: 58
Chanel 7 Note Off - Duracao: 691260 Nota: C1 Vol.: 47
Chanel 7 Note On - Duracao: 691260 Nota: C1 Vol.: 54
Chanel 7 Note Off - Duracao: 691740 Nota: C1 Vol.: 54
Chanel 7 Note On - Duracao: 691740 Nota: C1 Vol.: 61
Chanel 3 Note Off - Duracao: 692040 Nota: C1 Vol.: 55
Chanel 3 Note On - Duracao: 692040 Nota: C1 Vol.: 65
Chanel 7 Note Off - Duracao: 692220 Nota: C1 Vol.: 61
Chanel 7 Note On - Duracao: 692220 Nota: C1 Vol.: 58
Chanel 3 Note Off - Duracao: 692520 Nota: C1 Vol.: 65
Chanel 3 Note On - Duracao: 692520 Nota: C1 Vol.: 55
Chanel 6 Note Off - Duracao: 692700 Nota: C1 Vol.: 72
Chanel 6 Note On - Duracao: 692700 Nota: C1 Vol.: 74
Chanel 7 Note Off - Duracao: 692700 Nota: C1 Vol.: 58
Chanel 7 Note On - Duracao: 692700 Nota: C1 Vol.: 59
Chanel 7 Note Off - Duracao: 692940 Nota: C1 Vol.: 59
Chanel 7 Note On - Duracao: 692940 Nota: C1 Vol.: 56
Chanel 7 Note Off - Duracao: 693420 Nota: C1 Vol.: 56
Chanel 7 Note On - Duracao: 693420 Nota: C1 Vol.: 53
Chanel 3 Note Off - Duracao: 693480 Nota: C1 Vol.: 55
Chanel 3 Note On - Duracao: 693480 Nota: C1 Vol.: 40
Chanel 7 Note Off - Duracao: 693900 Nota: C1 Vol.: 53
Chanel 7 Note On - Duracao: 693900 Nota: C1 Vol.: 63
Chanel 7 Note Off - Duracao: 694380 Nota: C1 Vol.: 63
Chanel 7 Note On - Duracao: 694380 Nota: C1 Vol.: 47
Chanel 6 Note Off - Duracao: 694620 Nota: C1 Vol.: 74
Chanel 6 Note On - Duracao: 694620 Nota: C1 Vol.: 71
Chanel 5 Note Off - Duracao: 694980 Nota: C1 Vol.: 58
Chanel 5 Note On - Duracao: 694980 Nota: C1 Vol.: 60
Chanel 3 Note Off - Duracao: 695400 Nota: C1 Vol.: 40
Chanel 3 Note On - Duracao: 695400 Nota: C1 Vol.: 42
Chanel 7 Note Off - Duracao: 696300 Nota: C1 Vol.: 47
Chanel 7 Note On - Duracao: 696300 Nota: C1 Vol.: 72
Chanel 3 Note Off - Duracao: 696360 Nota: C1 Vol.: 42
Chanel 3 Note On - Duracao: 696360 Nota: C1 Vol.: 61
Chanel 6 Note Off - Duracao: 696540 Nota: C1 Vol.: 71
Chanel 6 Note On - Duracao: 696540 Nota: C1 Vol.: 71
Chanel 3 Note Off - Duracao: 696600 Nota: C1 Vol.: 61
Chanel 3 Note On - Duracao: 696600 Nota: C1 Vol.: 57
Chanel 7 Note Off - Duracao: 696780 Nota: C1 Vol.: 72
Chanel 7 Note On - Duracao: 696780 Nota: C1 Vol.: 84
Chanel 3 Note Off - Duracao: 696840 Nota: C1 Vol.: 57
Chanel 3 Note On - Duracao: 696840 Nota: C1 Vol.: 56
Chanel 7 Note Off - Duracao: 697020 Nota: C1 Vol.: 84
Chanel 7 Note On - Duracao: 697020 Nota: C1 Vol.: 87
Chanel 7 Note Off - Duracao: 697140 Nota: C1 Vol.: 87
Chanel 7 Note On - Duracao: 697140 Nota: C1 Vol.: 82
Chanel 3 Note Off - Duracao: 697320 Nota: C1 Vol.: 56
Chanel 3 Note On - Duracao: 697320 Nota: C1 Vol.: 63
Chanel 7 Note Off - Duracao: 697380 Nota: C1 Vol.: 82
Chanel 7 Note On - Duracao: 697380 Nota: C1 Vol.: 89
Chanel 7 Note Off - Duracao: 697500 Nota: C1 Vol.: 89
Chanel 7 Note On - Duracao: 697500 Nota: C1 Vol.: 93
Chanel 3 Note Off - Duracao: 697560 Nota: C1 Vol.: 63
Chanel 3 Note On - Duracao: 697560 Nota: C1 Vol.: 61
Chanel 7 Note Off - Duracao: 697620 Nota: C1 Vol.: 93
Chanel 7 Note On - Duracao: 697620 Nota: C1 Vol.: 93
Chanel 7 Note Off - Duracao: 697740 Nota: C1 Vol.: 93
Chanel 7 Note On - Duracao: 697740 Nota: C1 Vol.: 93
Chanel 7 Note Off - Duracao: 697860 Nota: C1 Vol.: 93
Chanel 7 Note On - Duracao: 697860 Nota: C1 Vol.: 86
Chanel 7 Note Off - Duracao: 697980 Nota: C1 Vol.: 86
Chanel 7 Note On - Duracao: 697980 Nota: C1 Vol.: 84
Chanel 3 Note Off - Duracao: 698040 Nota: C1 Vol.: 61
Chanel 3 Note On - Duracao: 698040 Nota: C1 Vol.: 56
Chanel 7 Note Off - Duracao: 698100 Nota: C1 Vol.: 84
Chanel 7 Note On - Duracao: 698100 Nota: C1 Vol.: 92
Chanel 7 Note Off - Duracao: 698220 Nota: C1 Vol.: 92
Chanel 7 Note On - Duracao: 698220 Nota: C1 Vol.: 98
Chanel 7 Note Off - Duracao: 698280 Nota: C1 Vol.: 98
Chanel 7 Note On - Duracao: 698280 Nota: C1 Vol.: 98
Chanel 7 Note Off - Duracao: 698340 Nota: C1 Vol.: 98
Chanel 7 Note On - Duracao: 698340 Nota: C1 Vol.: 95
Chanel 7 Note Off - Duracao: 698400 Nota: C1 Vol.: 95
Chanel 7 Note On - Duracao: 698400 Nota: C1 Vol.: 87
Chanel 6 Note Off - Duracao: 698460 Nota: C1 Vol.: 71
Chanel 6 Note On - Duracao: 698460 Nota: C1 Vol.: 69
Chanel 7 Note Off - Duracao: 698460 Nota: C1 Vol.: 87
Chanel 7 Note On - Duracao: 698460 Nota: C1 Vol.: 71
Chanel 3 Note Off - Duracao: 698520 Nota: C1 Vol.: 56
Chanel 3 Note On - Duracao: 698520 Nota: C1 Vol.: 40
Chanel 7 Note Off - Duracao: 698700 Nota: C1 Vol.: 71
Chanel 7 Note On - Duracao: 698700 Nota: C1 Vol.: 71
Chanel 5 Note Off - Duracao: 698820 Nota: C1 Vol.: 60
Chanel 5 Note On - Duracao: 698820 Nota: C1 Vol.: 60
Chanel 7 Note Off - Duracao: 698820 Nota: C1 Vol.: 71
Chanel 7 Note On - Duracao: 698820 Nota: C1 Vol.: 66
Chanel 7 Note Off - Duracao: 698940 Nota: C1 Vol.: 66
Chanel 7 Note On - Duracao: 698940 Nota: C1 Vol.: 68
Chanel 7 Note Off - Duracao: 699060 Nota: C1 Vol.: 68
Chanel 7 Note On - Duracao: 699060 Nota: C1 Vol.: 56
Chanel 7 Note Off - Duracao: 699540 Nota: C1 Vol.: 56
Chanel 7 Note On - Duracao: 699540 Nota: C1 Vol.: 58
Chanel 6 Note Off - Duracao: 700380 Nota: C1 Vol.: 69
Chanel 6 Note On - Duracao: 700380 Nota: C1 Vol.: 68
Chanel 3 Note Off - Duracao: 700440 Nota: C1 Vol.: 40
Chanel 3 Note On - Duracao: 700440 Nota: C1 Vol.: 62
Chanel 7 Note Off - Duracao: 700500 Nota: C1 Vol.: 58
Chanel 7 Note On - Duracao: 700500 Nota: C1 Vol.: 55
Chanel 3 Note Off - Duracao: 700920 Nota: C1 Vol.: 62
Chanel 3 Note On - Duracao: 700920 Nota: C1 Vol.: 60
Chanel 3 Note Off - Duracao: 701400 Nota: C1 Vol.: 60
Chanel 3 Note On - Duracao: 701400 Nota: C1 Vol.: 40
Chanel 7 Note Off - Duracao: 701460 Nota: C1 Vol.: 55
Chanel 7 Note On - Duracao: 701460 Nota: C1 Vol.: 64
Chanel 7 Note Off - Duracao: 701700 Nota: C1 Vol.: 64
Chanel 7 Note On - Duracao: 701700 Nota: C1 Vol.: 63
Chanel 7 Note Off - Duracao: 701820 Nota: C1 Vol.: 63
Chanel 7 Note On - Duracao: 701820 Nota: C1 Vol.: 59
Chanel 7 Note Off - Duracao: 701940 Nota: C1 Vol.: 59
Chanel 7 Note On - Duracao: 701940 Nota: C1 Vol.: 62
Chanel 7 Note Off - Duracao: 702060 Nota: C1 Vol.: 62
Chanel 7 Note On - Duracao: 702060 Nota: C1 Vol.: 68
Chanel 7 Note Off - Duracao: 702180 Nota: C1 Vol.: 68
Chanel 7 Note On - Duracao: 702180 Nota: C1 Vol.: 72
Chanel 6 Note Off - Duracao: 702300 Nota: C1 Vol.: 68
Chanel 6 Note On - Duracao: 702300 Nota: C1 Vol.: 69
Chanel 7 Note Off - Duracao: 702300 Nota: C1 Vol.: 72
Chanel 7 Note On - Duracao: 702300 Nota: C1 Vol.: 67
Chanel 7 Note Off - Duracao: 702540 Nota: C1 Vol.: 67
Chanel 7 Note On - Duracao: 702540 Nota: C1 Vol.: 57
Chanel 5 Note Off - Duracao: 702660 Nota: C1 Vol.: 60
Chanel 5 Note On - Duracao: 702660 Nota: C1 Vol.: 61
Chanel 3 Note Off - Duracao: 703320 Nota: C1 Vol.: 40
Chanel 3 Note On - Duracao: 703320 Nota: C1 Vol.: 51
Chanel 7 Note Off - Duracao: 703500 Nota: C1 Vol.: 57
Chanel 7 Note On - Duracao: 703500 Nota: C1 Vol.: 72
Chanel 7 Note Off - Duracao: 703980 Nota: C1 Vol.: 72
Chanel 7 Note On - Duracao: 703980 Nota: C1 Vol.: 63
Chanel 6 Note Off - Duracao: 704220 Nota: C1 Vol.: 69
Chanel 6 Note On - Duracao: 704220 Nota: C1 Vol.: 72
Chanel 3 Note Off - Duracao: 704280 Nota: C1 Vol.: 51
Chanel 3 Note On - Duracao: 704280 Nota: C1 Vol.: 82
Chanel 3 Note Off - Duracao: 704400 Nota: C1 Vol.: 82
Chanel 3 Note On - Duracao: 704400 Nota: C1 Vol.: 85
Chanel 3 Note Off - Duracao: 704520 Nota: C1 Vol.: 85
Chanel 3 Note On - Duracao: 704520 Nota: C1 Vol.: 49
Chanel 7 Note Off - Duracao: 704940 Nota: C1 Vol.: 63
Chanel 7 Note On - Duracao: 704940 Nota: C1 Vol.: 52
Chanel 7 Note Off - Duracao: 705900 Nota: C1 Vol.: 52
Chanel 7 Note On - Duracao: 705900 Nota: C1 Vol.: 62
Chanel 6 Note Off - Duracao: 706140 Nota: C1 Vol.: 72
Chanel 6 Note On - Duracao: 706140 Nota: C1 Vol.: 72
Chanel 7 Note Off - Duracao: 706140 Nota: C1 Vol.: 62
Chanel 7 Note On - Duracao: 706140 Nota: C1 Vol.: 66
Chanel 7 Note Off - Duracao: 706380 Nota: C1 Vol.: 66
Chanel 7 Note On - Duracao: 706380 Nota: C1 Vol.: 68
Chanel 3 Note Off - Duracao: 706440 Nota: C1 Vol.: 49
Chanel 3 Note On - Duracao: 706440 Nota: C1 Vol.: 50
Chanel 5 Note Off - Duracao: 706500 Nota: C1 Vol.: 61
Chanel 5 Note On - Duracao: 706500 Nota: C1 Vol.: 63
Chanel 7 Note Off - Duracao: 706620 Nota: C1 Vol.: 68
Chanel 7 Note On - Duracao: 706620 Nota: C1 Vol.: 72
Chanel 7 Note Off - Duracao: 706740 Nota: C1 Vol.: 72
Chanel 7 Note On - Duracao: 706740 Nota: C1 Vol.: 69
Chanel 7 Note Off - Duracao: 706980 Nota: C1 Vol.: 69
Chanel 7 Note On - Duracao: 706980 Nota: C1 Vol.: 67
Chanel 7 Note Off - Duracao: 707220 Nota: C1 Vol.: 67
Chanel 7 Note On - Duracao: 707220 Nota: C1 Vol.: 62
Chanel 7 Note Off - Duracao: 707460 Nota: C1 Vol.: 62
Chanel 7 Note On - Duracao: 707460 Nota: C1 Vol.: 65
Chanel 7 Note Off - Duracao: 707700 Nota: C1 Vol.: 65
Chanel 7 Note On - Duracao: 707700 Nota: C1 Vol.: 57
Chanel 6 Note Off - Duracao: 708060 Nota: C1 Vol.: 72
Chanel 6 Note On - Duracao: 708060 Nota: C1 Vol.: 71
Chanel 7 Note Off - Duracao: 708180 Nota: C1 Vol.: 57
Chanel 7 Note On - Duracao: 708180 Nota: C1 Vol.: 63
Chanel 3 Note Off - Duracao: 708360 Nota: C1 Vol.: 50
Chanel 3 Note On - Duracao: 708360 Nota: C1 Vol.: 63
Chanel 7 Note Off - Duracao: 708420 Nota: C1 Vol.: 63
Chanel 7 Note On - Duracao: 708420 Nota: C1 Vol.: 67
Chanel 7 Note Off - Duracao: 708660 Nota: C1 Vol.: 67
Chanel 7 Note On - Duracao: 708660 Nota: C1 Vol.: 77
Chanel 7 Note Off - Duracao: 708900 Nota: C1 Vol.: 77
Chanel 7 Note On - Duracao: 708900 Nota: C1 Vol.: 88
Chanel 7 Note Off - Duracao: 709020 Nota: C1 Vol.: 88
Chanel 7 Note On - Duracao: 709020 Nota: C1 Vol.: 87
Chanel 7 Note Off - Duracao: 709140 Nota: C1 Vol.: 87
Chanel 7 Note On - Duracao: 709140 Nota: C1 Vol.: 83
Chanel 3 Note Off - Duracao: 709320 Nota: C1 Vol.: 63
Chanel 3 Note On - Duracao: 709320 Nota: C1 Vol.: 62
Chanel 7 Note Off - Duracao: 709380 Nota: C1 Vol.: 83
Chanel 7 Note On - Duracao: 709380 Nota: C1 Vol.: 80
Chanel 7 Note Off - Duracao: 709620 Nota: C1 Vol.: 80
Chanel 7 Note On - Duracao: 709620 Nota: C1 Vol.: 75
Chanel 7 Note Off - Duracao: 709860 Nota: C1 Vol.: 75
Chanel 7 Note On - Duracao: 709860 Nota: C1 Vol.: 60
Chanel 6 Note Off - Duracao: 709980 Nota: C1 Vol.: 71
Chanel 6 Note On - Duracao: 709980 Nota: C1 Vol.: 72
Chanel 5 Note Off - Duracao: 710340 Nota: C1 Vol.: 63
Chanel 5 Note On - Duracao: 710340 Nota: C1 Vol.: 62
Chanel 7 Note Off - Duracao: 710340 Nota: C1 Vol.: 60
Chanel 7 Note On - Duracao: 710340 Nota: C1 Vol.: 60
Chanel 7 Note Off - Duracao: 710580 Nota: C1 Vol.: 60
Chanel 7 Note On - Duracao: 710580 Nota: C1 Vol.: 40
Chanel 3 Note Off - Duracao: 711240 Nota: C1 Vol.: 62
Chanel 3 Note On - Duracao: 711240 Nota: C1 Vol.: 67
Chanel 6 Note Off - Duracao: 711900 Nota: C1 Vol.: 72
Chanel 6 Note On - Duracao: 711900 Nota: C1 Vol.: 66
Chanel 3 Note Off - Duracao: 712200 Nota: C1 Vol.: 67
Chanel 3 Note On - Duracao: 712200 Nota: C1 Vol.: 66
Chanel 7 Note Off - Duracao: 712500 Nota: C1 Vol.: 40
Chanel 7 Note On - Duracao: 712500 Nota: C1 Vol.: 40
Chanel 6 Note Off - Duracao: 713820 Nota: C1 Vol.: 66
Chanel 6 Note On - Duracao: 713820 Nota: C1 Vol.: 56
Chanel 3 Note Off - Duracao: 714120 Nota: C1 Vol.: 66
Chanel 3 Note On - Duracao: 714120 Nota: C1 Vol.: 72
Chanel 5 Note Off - Duracao: 714180 Nota: C1 Vol.: 62
Chanel 7 Note Off - Duracao: 714420 Nota: C1 Vol.: 40
Chanel 7 Note On - Duracao: 714420 Nota: C1 Vol.: 44
Chanel 3 Note Off - Duracao: 715080 Nota: C1 Vol.: 72
Chanel 3 Note On - Duracao: 715080 Nota: C1 Vol.: 76
Chanel 3 Note Off - Duracao: 716040 Nota: C1 Vol.: 76
Chanel 3 Note On - Duracao: 716040 Nota: C1 Vol.: 74
Chanel 7 Note Off - Duracao: 716340 Nota: C1 Vol.: 44
Chanel 7 Note On - Duracao: 716340 Nota: C1 Vol.: 46
Chanel 3 Note Off - Duracao: 717000 Nota: C1 Vol.: 74
Chanel 3 Note On - Duracao: 717000 Nota: C1 Vol.: 74
Chanel 6 Note Off - Duracao: 717660 Nota: C1 Vol.: 56
Chanel 6 Note On - Duracao: 717660 Nota: C1 Vol.: 52
Chanel 3 Note Off - Duracao: 717960 Nota: C1 Vol.: 74
Chanel 3 Note On - Duracao: 717960 Nota: C1 Vol.: 69
Chanel 7 Note Off - Duracao: 718260 Nota: C1 Vol.: 46
Chanel 7 Note On - Duracao: 718260 Nota: C1 Vol.: 43
Chanel 3 Note Off - Duracao: 718920 Nota: C1 Vol.: 69
Chanel 3 Note On - Duracao: 718920 Nota: C1 Vol.: 70
Chanel 3 Note Off - Duracao: 719880 Nota: C1 Vol.: 70
Chanel 3 Note On - Duracao: 719880 Nota: C1 Vol.: 67
Chanel 7 Note Off - Duracao: 720180 Nota: C1 Vol.: 43
Chanel 7 Note On - Duracao: 720180 Nota: C1 Vol.: 54
Chanel 7 Note Off - Duracao: 720660 Nota: C1 Vol.: 54
Chanel 7 Note On - Duracao: 720660 Nota: C1 Vol.: 46
Chanel 3 Note Off - Duracao: 720840 Nota: C1 Vol.: 67
Chanel 3 Note On - Duracao: 720840 Nota: C1 Vol.: 65
Chanel 6 Note Off - Duracao: 721500 Nota: C1 Vol.: 52
Chanel 6 Note On - Duracao: 721500 Nota: C1 Vol.: 48
Chanel 7 Note Off - Duracao: 721620 Nota: C1 Vol.: 46
Chanel 7 Note On - Duracao: 721620 Nota: C1 Vol.: 56
Chanel 3 Note Off - Duracao: 721800 Nota: C1 Vol.: 65
Chanel 3 Note On - Duracao: 721800 Nota: C1 Vol.: 67
Chanel 7 Note Off - Duracao: 722100 Nota: C1 Vol.: 56
Chanel 7 Note On - Duracao: 722100 Nota: C1 Vol.: 55
Chanel 7 Note Off - Duracao: 722580 Nota: C1 Vol.: 55
Chanel 7 Note On - Duracao: 722580 Nota: C1 Vol.: 54
Chanel 3 Note Off - Duracao: 722760 Nota: C1 Vol.: 67
Chanel 3 Note On - Duracao: 722760 Nota: C1 Vol.: 50
Chanel 7 Note Off - Duracao: 723060 Nota: C1 Vol.: 54
Chanel 7 Note On - Duracao: 723060 Nota: C1 Vol.: 52
Chanel 7 Note Off - Duracao: 723540 Nota: C1 Vol.: 52
Chanel 7 Note On - Duracao: 723540 Nota: C1 Vol.: 49
Chanel 7 Note Off - Duracao: 724020 Nota: C1 Vol.: 49
Chanel 7 Note On - Duracao: 724020 Nota: C1 Vol.: 55
Chanel 7 Note Off - Duracao: 724500 Nota: C1 Vol.: 55
Chanel 7 Note On - Duracao: 724500 Nota: C1 Vol.: 51
Chanel 3 Note Off - Duracao: 724680 Nota: C1 Vol.: 50
Chanel 3 Note On - Duracao: 724680 Nota: C1 Vol.: 44
Chanel 6 Note Off - Duracao: 725340 Nota: C1 Vol.: 48
Chanel 6 Note On - Duracao: 725340 Nota: C1 Vol.: 48
Chanel 7 Note Off - Duracao: 725460 Nota: C1 Vol.: 51
Chanel 7 Note On - Duracao: 725460 Nota: C1 Vol.: 48
Chanel 7 Note Off - Duracao: 726420 Nota: C1 Vol.: 48
Chanel 7 Note On - Duracao: 726420 Nota: C1 Vol.: 48
Chanel 6 Note Off - Duracao: 727260 Nota: C1 Vol.: 48
Chanel 6 Note On - Duracao: 727260 Nota: C1 Vol.: 72
Chanel 7 Note Off - Duracao: 727380 Nota: C1 Vol.: 48
Chanel 7 Note On - Duracao: 727380 Nota: C1 Vol.: 52
Chanel 6 Note Off - Duracao: 727740 Nota: C1 Vol.: 72
Chanel 6 Note On - Duracao: 727740 Nota: C1 Vol.: 83
Chanel 6 Note Off - Duracao: 727980 Nota: C1 Vol.: 83
Chanel 6 Note On - Duracao: 727980 Nota: C1 Vol.: 88
Chanel 6 Note Off - Duracao: 728100 Nota: C1 Vol.: 88
Chanel 6 Note On - Duracao: 728100 Nota: C1 Vol.: 87
Chanel 6 Note Off - Duracao: 728220 Nota: C1 Vol.: 87
Chanel 6 Note On - Duracao: 728220 Nota: C1 Vol.: 87
Chanel 6 Note Off - Duracao: 728340 Nota: C1 Vol.: 87
Chanel 6 Note On - Duracao: 728340 Nota: C1 Vol.: 87
Chanel 7 Note Off - Duracao: 728340 Nota: C1 Vol.: 52
Chanel 7 Note On - Duracao: 728340 Nota: C1 Vol.: 53
Chanel 6 Note Off - Duracao: 728460 Nota: C1 Vol.: 87
Chanel 6 Note On - Duracao: 728460 Nota: C1 Vol.: 88
Chanel 3 Note Off - Duracao: 728520 Nota: C1 Vol.: 44
Chanel 3 Note On - Duracao: 728520 Nota: C1 Vol.: 42
Chanel 6 Note Off - Duracao: 728580 Nota: C1 Vol.: 88
Chanel 6 Note On - Duracao: 728580 Nota: C1 Vol.: 89
Chanel 6 Note Off - Duracao: 728700 Nota: C1 Vol.: 89
Chanel 6 Note On - Duracao: 728700 Nota: C1 Vol.: 87
Chanel 6 Note Off - Duracao: 728820 Nota: C1 Vol.: 87
Chanel 6 Note On - Duracao: 728820 Nota: C1 Vol.: 83
Chanel 6 Note Off - Duracao: 729060 Nota: C1 Vol.: 83
Chanel 6 Note On - Duracao: 729060 Nota: C1 Vol.: 94
Chanel 6 Note Off - Duracao: 729120 Nota: C1 Vol.: 94
Chanel 6 Note On - Duracao: 729120 Nota: C1 Vol.: 78
Chanel 7 Note Off - Duracao: 729300 Nota: C1 Vol.: 53
Chanel 7 Note On - Duracao: 729300 Nota: C1 Vol.: 54
Chanel 6 Note Off - Duracao: 729360 Nota: C1 Vol.: 78
Chanel 6 Note On - Duracao: 729360 Nota: C1 Vol.: 86
Chanel 6 Note Off - Duracao: 729480 Nota: C1 Vol.: 86
Chanel 6 Note On - Duracao: 729480 Nota: C1 Vol.: 72
Chanel 6 Note Off - Duracao: 729960 Nota: C1 Vol.: 72
Chanel 6 Note On - Duracao: 729960 Nota: C1 Vol.: 63
Chanel 7 Note Off - Duracao: 730260 Nota: C1 Vol.: 54
Chanel 7 Note On - Duracao: 730260 Nota: C1 Vol.: 58
Chanel 6 Note Off - Duracao: 730440 Nota: C1 Vol.: 63
Chanel 6 Note On - Duracao: 730440 Nota: C1 Vol.: 59
Chanel 7 Note Off - Duracao: 730740 Nota: C1 Vol.: 58
Chanel 7 Note On - Duracao: 730740 Nota: C1 Vol.: 60
Chanel 6 Note Off - Duracao: 731400 Nota: C1 Vol.: 59
Chanel 6 Note On - Duracao: 731400 Nota: C1 Vol.: 62
Chanel 7 Note Off - Duracao: 731700 Nota: C1 Vol.: 60
Chanel 7 Note On - Duracao: 731700 Nota: C1 Vol.: 60
Chanel 6 Note Off - Duracao: 731880 Nota: C1 Vol.: 62
Chanel 6 Note On - Duracao: 731880 Nota: C1 Vol.: 84
Chanel 6 Note Off - Duracao: 732000 Nota: C1 Vol.: 84
Chanel 6 Note On - Duracao: 732000 Nota: C1 Vol.: 80
Chanel 6 Note Off - Duracao: 732240 Nota: C1 Vol.: 80
Chanel 6 Note On - Duracao: 732240 Nota: C1 Vol.: 68
Chanel 3 Note Off - Duracao: 732360 Nota: C1 Vol.: 42
Chanel 3 Note On - Duracao: 732360 Nota: C1 Vol.: 41
Chanel 7 Note Off - Duracao: 732660 Nota: C1 Vol.: 60
Chanel 7 Note On - Duracao: 732660 Nota: C1 Vol.: 69
Chanel 6 Note Off - Duracao: 732720 Nota: C1 Vol.: 68
Chanel 6 Note On - Duracao: 732720 Nota: C1 Vol.: 62
Chanel 7 Note Off - Duracao: 733140 Nota: C1 Vol.: 69
Chanel 7 Note On - Duracao: 733140 Nota: C1 Vol.: 69
Chanel 6 Note Off - Duracao: 733200 Nota: C1 Vol.: 62
Chanel 6 Note On - Duracao: 733200 Nota: C1 Vol.: 83
Chanel 6 Note Off - Duracao: 733320 Nota: C1 Vol.: 83
Chanel 6 Note On - Duracao: 733320 Nota: C1 Vol.: 78
Chanel 6 Note Off - Duracao: 733560 Nota: C1 Vol.: 78
Chanel 6 Note On - Duracao: 733560 Nota: C1 Vol.: 81
Chanel 7 Note Off - Duracao: 733620 Nota: C1 Vol.: 69
Chanel 7 Note On - Duracao: 733620 Nota: C1 Vol.: 60
Chanel 6 Note Off - Duracao: 733800 Nota: C1 Vol.: 81
Chanel 6 Note On - Duracao: 733800 Nota: C1 Vol.: 95
Chanel 6 Note Off - Duracao: 733860 Nota: C1 Vol.: 95
Chanel 6 Note On - Duracao: 733860 Nota: C1 Vol.: 84
Chanel 6 Note Off - Duracao: 733980 Nota: C1 Vol.: 84
Chanel 6 Note On - Duracao: 733980 Nota: C1 Vol.: 61
Chanel 6 Note Off - Duracao: 734460 Nota: C1 Vol.: 61
Chanel 6 Note On - Duracao: 734460 Nota: C1 Vol.: 60
Chanel 7 Note Off - Duracao: 734580 Nota: C1 Vol.: 60
Chanel 7 Note On - Duracao: 734580 Nota: C1 Vol.: 56
Chanel 6 Note Off - Duracao: 734940 Nota: C1 Vol.: 60
Chanel 6 Note On - Duracao: 734940 Nota: C1 Vol.: 55
Chanel 6 Note Off - Duracao: 735420 Nota: C1 Vol.: 55
Chanel 6 Note On - Duracao: 735420 Nota: C1 Vol.: 55
Chanel 7 Note Off - Duracao: 735540 Nota: C1 Vol.: 56
Chanel 7 Note On - Duracao: 735540 Nota: C1 Vol.: 46
Chanel 6 Note Off - Duracao: 735660 Nota: C1 Vol.: 55
Chanel 6 Note On - Duracao: 735660 Nota: C1 Vol.: 63
Chanel 6 Note Off - Duracao: 735900 Nota: C1 Vol.: 63
Chanel 6 Note On - Duracao: 735900 Nota: C1 Vol.: 69
Chanel 6 Note Off - Duracao: 736140 Nota: C1 Vol.: 69
Chanel 6 Note On - Duracao: 736140 Nota: C1 Vol.: 69
Chanel 3 Note Off - Duracao: 736200 Nota: C1 Vol.: 41
Chanel 3 Note On - Duracao: 736200 Nota: C1 Vol.: 40
Chanel 6 Note Off - Duracao: 736380 Nota: C1 Vol.: 69
Chanel 6 Note On - Duracao: 736380 Nota: C1 Vol.: 53
Chanel 7 Note Off - Duracao: 736500 Nota: C1 Vol.: 46
Chanel 7 Note On - Duracao: 736500 Nota: C1 Vol.: 41
Chanel 6 Note Off - Duracao: 736860 Nota: C1 Vol.: 53
Chanel 6 Note On - Duracao: 736860 Nota: C1 Vol.: 69
Chanel 6 Note Off - Duracao: 736980 Nota: C1 Vol.: 69
Chanel 6 Note On - Duracao: 736980 Nota: C1 Vol.: 66
Chanel 6 Note Off - Duracao: 737100 Nota: C1 Vol.: 66
Chanel 6 Note On - Duracao: 737100 Nota: C1 Vol.: 65
Chanel 6 Note Off - Duracao: 737220 Nota: C1 Vol.: 65
Chanel 6 Note On - Duracao: 737220 Nota: C1 Vol.: 63
Chanel 6 Note Off - Duracao: 737460 Nota: C1 Vol.: 63
Chanel 6 Note On - Duracao: 737460 Nota: C1 Vol.: 45
Chanel 6 Note Off - Duracao: 738420 Nota: C1 Vol.: 45
Chanel 6 Note On - Duracao: 738420 Nota: C1 Vol.: 43
Chanel 7 Note Off - Duracao: 738420 Nota: C1 Vol.: 41
Chanel 7 Note On - Duracao: 738420 Nota: C1 Vol.: 47
Chanel 6 Note Off - Duracao: 739380 Nota: C1 Vol.: 43
Chanel 6 Note On - Duracao: 739380 Nota: C1 Vol.: 47
Chanel 3 Note Off - Duracao: 740040 Nota: C1 Vol.: 40
Chanel 3 Note On - Duracao: 740040 Nota: C1 Vol.: 40
Chanel 6 Note Off - Duracao: 740340 Nota: C1 Vol.: 47
Chanel 6 Note On - Duracao: 740340 Nota: C1 Vol.: 50
Chanel 7 Note Off - Duracao: 740340 Nota: C1 Vol.: 47
Chanel 7 Note On - Duracao: 740340 Nota: C1 Vol.: 52
Chanel 6 Note Off - Duracao: 741300 Nota: C1 Vol.: 50
Chanel 6 Note On - Duracao: 741300 Nota: C1 Vol.: 53
Chanel 7 Note Off - Duracao: 741300 Nota: C1 Vol.: 52
Chanel 7 Note On - Duracao: 741300 Nota: C1 Vol.: 53
Chanel 3 Note Off - Duracao: 741960 Nota: C1 Vol.: 40
Chanel 3 Note On - Duracao: 741960 Nota: C1 Vol.: 40
Chanel 6 Note Off - Duracao: 742260 Nota: C1 Vol.: 53
Chanel 6 Note On - Duracao: 742260 Nota: C1 Vol.: 53
Chanel 7 Note Off - Duracao: 742260 Nota: C1 Vol.: 53
Chanel 7 Note On - Duracao: 742260 Nota: C1 Vol.: 52
Chanel 6 Note Off - Duracao: 742740 Nota: C1 Vol.: 53
Chanel 6 Note On - Duracao: 742740 Nota: C1 Vol.: 54
Chanel 6 Note Off - Duracao: 743220 Nota: C1 Vol.: 54
Chanel 6 Note On - Duracao: 743220 Nota: C1 Vol.: 52
Chanel 7 Note Off - Duracao: 743220 Nota: C1 Vol.: 52
Chanel 7 Note On - Duracao: 743220 Nota: C1 Vol.: 51
Chanel 3 Note Off - Duracao: 743880 Nota: C1 Vol.: 40
Chanel 3 Note On - Duracao: 743880 Nota: C1 Vol.: 40
Chanel 6 Note Off - Duracao: 744180 Nota: C1 Vol.: 52
Chanel 6 Note On - Duracao: 744180 Nota: C1 Vol.: 51
Chanel 7 Note Off - Duracao: 744180 Nota: C1 Vol.: 51
Chanel 7 Note On - Duracao: 744180 Nota: C1 Vol.: 49
Chanel 6 Note Off - Duracao: 745140 Nota: C1 Vol.: 51
Chanel 6 Note On - Duracao: 745140 Nota: C1 Vol.: 60
Chanel 7 Note Off - Duracao: 745140 Nota: C1 Vol.: 49
Chanel 7 Note On - Duracao: 745140 Nota: C1 Vol.: 49
Chanel 6 Note Off - Duracao: 745620 Nota: C1 Vol.: 60
Chanel 6 Note On - Duracao: 745620 Nota: C1 Vol.: 59
Chanel 3 Note Off - Duracao: 745800 Nota: C1 Vol.: 40
Chanel 3 Note On - Duracao: 745800 Nota: C1 Vol.: 40
Chanel 6 Note Off - Duracao: 745860 Nota: C1 Vol.: 59
Chanel 6 Note On - Duracao: 745860 Nota: C1 Vol.: 65
Chanel 6 Note Off - Duracao: 746100 Nota: C1 Vol.: 65
Chanel 6 Note On - Duracao: 746100 Nota: C1 Vol.: 53
Chanel 7 Note Off - Duracao: 746100 Nota: C1 Vol.: 49
Chanel 7 Note On - Duracao: 746100 Nota: C1 Vol.: 54
Chanel 6 Note Off - Duracao: 746580 Nota: C1 Vol.: 53
Chanel 6 Note On - Duracao: 746580 Nota: C1 Vol.: 42
Chanel 7 Note Off - Duracao: 746580 Nota: C1 Vol.: 54
Chanel 7 Note On - Duracao: 746580 Nota: C1 Vol.: 57
Chanel 7 Note Off - Duracao: 747060 Nota: C1 Vol.: 57
Chanel 7 Note On - Duracao: 747060 Nota: C1 Vol.: 49
Chanel 6 Note Off - Duracao: 747540 Nota: C1 Vol.: 42
Chanel 6 Note On - Duracao: 747540 Nota: C1 Vol.: 51
Chanel 7 Note Off - Duracao: 748020 Nota: C1 Vol.: 49
Chanel 7 Note On - Duracao: 748020 Nota: C1 Vol.: 50
Chanel 6 Note Off - Duracao: 748500 Nota: C1 Vol.: 51
Chanel 6 Note On - Duracao: 748500 Nota: C1 Vol.: 48
Chanel 7 Note Off - Duracao: 748980 Nota: C1 Vol.: 50
Chanel 7 Note On - Duracao: 748980 Nota: C1 Vol.: 51
Chanel 6 Note Off - Duracao: 749460 Nota: C1 Vol.: 48
Chanel 6 Note On - Duracao: 749460 Nota: C1 Vol.: 50
Chanel 3 Note Off - Duracao: 749640 Nota: C1 Vol.: 40
Chanel 3 Note On - Duracao: 749640 Nota: C1 Vol.: 51
Chanel 7 Note Off - Duracao: 749940 Nota: C1 Vol.: 51
Chanel 7 Note On - Duracao: 749940 Nota: C1 Vol.: 41
Chanel 6 Note Off - Duracao: 750420 Nota: C1 Vol.: 50
Chanel 6 Note On - Duracao: 750420 Nota: C1 Vol.: 56
Chanel 3 Note Off - Duracao: 750600 Nota: C1 Vol.: 51
Chanel 3 Note On - Duracao: 750600 Nota: C1 Vol.: 74
Chanel 3 Note Off - Duracao: 750840 Nota: C1 Vol.: 74
Chanel 3 Note On - Duracao: 750840 Nota: C1 Vol.: 40
Chanel 6 Note Off - Duracao: 751380 Nota: C1 Vol.: 56
Chanel 6 Note On - Duracao: 751380 Nota: C1 Vol.: 51
Chanel 7 Note Off - Duracao: 751860 Nota: C1 Vol.: 41
Chanel 7 Note On - Duracao: 751860 Nota: C1 Vol.: 69
Chanel 7 Note Off - Duracao: 752100 Nota: C1 Vol.: 69
Chanel 7 Note On - Duracao: 752100 Nota: C1 Vol.: 64
Chanel 7 Note Off - Duracao: 752340 Nota: C1 Vol.: 64
Chanel 7 Note On - Duracao: 752340 Nota: C1 Vol.: 63
Chanel 7 Note Off - Duracao: 752580 Nota: C1 Vol.: 63
Chanel 7 Note On - Duracao: 752580 Nota: C1 Vol.: 50
Chanel 3 Note Off - Duracao: 752760 Nota: C1 Vol.: 40
Chanel 3 Note On - Duracao: 752760 Nota: C1 Vol.: 42
Chanel 7 Note Off - Duracao: 753060 Nota: C1 Vol.: 50
Chanel 7 Note On - Duracao: 753060 Nota: C1 Vol.: 51
Chanel 6 Note Off - Duracao: 753300 Nota: C1 Vol.: 51
Chanel 6 Note On - Duracao: 753300 Nota: C1 Vol.: 51
Chanel 7 Note Off - Duracao: 753540 Nota: C1 Vol.: 51
Chanel 7 Note On - Duracao: 753540 Nota: C1 Vol.: 57
Chanel 7 Note Off - Duracao: 754020 Nota: C1 Vol.: 57
Chanel 7 Note On - Duracao: 754020 Nota: C1 Vol.: 58
Chanel 7 Note Off - Duracao: 754500 Nota: C1 Vol.: 58
Chanel 7 Note On - Duracao: 754500 Nota: C1 Vol.: 85
Chanel 3 Note Off - Duracao: 754680 Nota: C1 Vol.: 42
Chanel 3 Note On - Duracao: 754680 Nota: C1 Vol.: 45
Chanel 7 Note Off - Duracao: 754740 Nota: C1 Vol.: 85
Chanel 7 Note On - Duracao: 754740 Nota: C1 Vol.: 79
Chanel 7 Note Off - Duracao: 754980 Nota: C1 Vol.: 79
Chanel 7 Note On - Duracao: 754980 Nota: C1 Vol.: 81
Chanel 6 Note Off - Duracao: 755220 Nota: C1 Vol.: 51
Chanel 6 Note On - Duracao: 755220 Nota: C1 Vol.: 49
Chanel 7 Note Off - Duracao: 755220 Nota: C1 Vol.: 81
Chanel 7 Note On - Duracao: 755220 Nota: C1 Vol.: 76
Chanel 7 Note Off - Duracao: 755460 Nota: C1 Vol.: 76
Chanel 7 Note On - Duracao: 755460 Nota: C1 Vol.: 77
Chanel 7 Note Off - Duracao: 755700 Nota: C1 Vol.: 77
Chanel 7 Note On - Duracao: 755700 Nota: C1 Vol.: 88
Chanel 7 Note Off - Duracao: 755820 Nota: C1 Vol.: 88
Chanel 7 Note On - Duracao: 755820 Nota: C1 Vol.: 92
Chanel 7 Note Off - Duracao: 755940 Nota: C1 Vol.: 92
Chanel 7 Note On - Duracao: 755940 Nota: C1 Vol.: 97
Chanel 7 Note Off - Duracao: 756000 Nota: C1 Vol.: 97
Chanel 7 Note On - Duracao: 756000 Nota: C1 Vol.: 98
Chanel 7 Note Off - Duracao: 756060 Nota: C1 Vol.: 98
Chanel 7 Note On - Duracao: 756060 Nota: C1 Vol.: 97
Chanel 7 Note Off - Duracao: 756120 Nota: C1 Vol.: 97
Chanel 7 Note On - Duracao: 756120 Nota: C1 Vol.: 97
Chanel 7 Note Off - Duracao: 756180 Nota: C1 Vol.: 97
Chanel 7 Note On - Duracao: 756180 Nota: C1 Vol.: 96
Chanel 7 Note Off - Duracao: 756240 Nota: C1 Vol.: 96
Chanel 7 Note On - Duracao: 756240 Nota: C1 Vol.: 97
Chanel 7 Note Off - Duracao: 756300 Nota: C1 Vol.: 97
Chanel 7 Note On - Duracao: 756300 Nota: C1 Vol.: 95
Chanel 7 Note Off - Duracao: 756360 Nota: C1 Vol.: 95
Chanel 7 Note On - Duracao: 756360 Nota: C1 Vol.: 89
Chanel 7 Note Off - Duracao: 756420 Nota: C1 Vol.: 89
Chanel 7 Note On - Duracao: 756420 Nota: C1 Vol.: 81
Chanel 7 Note Off - Duracao: 756540 Nota: C1 Vol.: 81
Chanel 7 Note On - Duracao: 756540 Nota: C1 Vol.: 61
Chanel 3 Note Off - Duracao: 756600 Nota: C1 Vol.: 45
Chanel 3 Note On - Duracao: 756600 Nota: C1 Vol.: 52
Chanel 7 Note Off - Duracao: 757020 Nota: C1 Vol.: 61
Chanel 7 Note On - Duracao: 757020 Nota: C1 Vol.: 56
Chanel 6 Note Off - Duracao: 757140 Nota: C1 Vol.: 49
Chanel 6 Note On - Duracao: 757140 Nota: C1 Vol.: 47
Chanel 7 Note Off - Duracao: 757500 Nota: C1 Vol.: 56
Chanel 7 Note On - Duracao: 757500 Nota: C1 Vol.: 65
Chanel 3 Note Off - Duracao: 757560 Nota: C1 Vol.: 52
Chanel 3 Note On - Duracao: 757560 Nota: C1 Vol.: 52
Chanel 7 Note Off - Duracao: 757740 Nota: C1 Vol.: 65
Chanel 7 Note On - Duracao: 757740 Nota: C1 Vol.: 63
Chanel 7 Note Off - Duracao: 758220 Nota: C1 Vol.: 63
Chanel 7 Note On - Duracao: 758220 Nota: C1 Vol.: 87
Chanel 7 Note Off - Duracao: 758340 Nota: C1 Vol.: 87
Chanel 7 Note On - Duracao: 758340 Nota: C1 Vol.: 66
Chanel 3 Note Off - Duracao: 758520 Nota: C1 Vol.: 52
Chanel 3 Note On - Duracao: 758520 Nota: C1 Vol.: 42
Chanel 7 Note Off - Duracao: 758820 Nota: C1 Vol.: 66
Chanel 7 Note On - Duracao: 758820 Nota: C1 Vol.: 75
Chanel 7 Note Off - Duracao: 758940 Nota: C1 Vol.: 75
Chanel 7 Note On - Duracao: 758940 Nota: C1 Vol.: 72
Chanel 6 Note Off - Duracao: 759060 Nota: C1 Vol.: 47
Chanel 6 Note On - Duracao: 759060 Nota: C1 Vol.: 48
Chanel 7 Note Off - Duracao: 759060 Nota: C1 Vol.: 72
Chanel 7 Note On - Duracao: 759060 Nota: C1 Vol.: 66
Chanel 7 Note Off - Duracao: 759180 Nota: C1 Vol.: 66
Chanel 7 Note On - Duracao: 759180 Nota: C1 Vol.: 63
Chanel 7 Note Off - Duracao: 759300 Nota: C1 Vol.: 63
Chanel 7 Note On - Duracao: 759300 Nota: C1 Vol.: 64
Chanel 7 Note Off - Duracao: 759540 Nota: C1 Vol.: 64
Chanel 7 Note On - Duracao: 759540 Nota: C1 Vol.: 62
Chanel 7 Note Off - Duracao: 760020 Nota: C1 Vol.: 62
Chanel 7 Note On - Duracao: 760020 Nota: C1 Vol.: 62
Chanel 3 Note Off - Duracao: 760440 Nota: C1 Vol.: 42
Chanel 3 Note On - Duracao: 760440 Nota: C1 Vol.: 53
Chanel 7 Note Off - Duracao: 760500 Nota: C1 Vol.: 62
Chanel 7 Note On - Duracao: 760500 Nota: C1 Vol.: 71
Chanel 6 Note Off - Duracao: 760980 Nota: C1 Vol.: 48
Chanel 6 Note On - Duracao: 760980 Nota: C1 Vol.: 49
Chanel 7 Note Off - Duracao: 760980 Nota: C1 Vol.: 71
Chanel 7 Note On - Duracao: 760980 Nota: C1 Vol.: 74
Chanel 3 Note Off - Duracao: 761400 Nota: C1 Vol.: 53
Chanel 3 Note On - Duracao: 761400 Nota: C1 Vol.: 45
Chanel 7 Note Off - Duracao: 761460 Nota: C1 Vol.: 74
Chanel 7 Note On - Duracao: 761460 Nota: C1 Vol.: 74
Chanel 7 Note Off - Duracao: 761940 Nota: C1 Vol.: 74
Chanel 7 Note On - Duracao: 761940 Nota: C1 Vol.: 53
Chanel 7 Note Off - Duracao: 762900 Nota: C1 Vol.: 53
Chanel 7 Note On - Duracao: 762900 Nota: C1 Vol.: 75
Chanel 7 Note Off - Duracao: 763020 Nota: C1 Vol.: 75
Chanel 7 Note On - Duracao: 763020 Nota: C1 Vol.: 80
Chanel 7 Note Off - Duracao: 763140 Nota: C1 Vol.: 80
Chanel 7 Note On - Duracao: 763140 Nota: C1 Vol.: 72
Chanel 7 Note Off - Duracao: 763260 Nota: C1 Vol.: 72
Chanel 7 Note On - Duracao: 763260 Nota: C1 Vol.: 55
Chanel 3 Note Off - Duracao: 763320 Nota: C1 Vol.: 45
Chanel 3 Note On - Duracao: 763320 Nota: C1 Vol.: 84
Chanel 3 Note Off - Duracao: 763440 Nota: C1 Vol.: 84
Chanel 3 Note On - Duracao: 763440 Nota: C1 Vol.: 87
Chanel 3 Note Off - Duracao: 763560 Nota: C1 Vol.: 87
Chanel 3 Note On - Duracao: 763560 Nota: C1 Vol.: 100
Chanel 3 Note Off - Duracao: 763620 Nota: C1 Vol.: 100
Chanel 3 Note On - Duracao: 763620 Nota: C1 Vol.: 100
Chanel 3 Note Off - Duracao: 763680 Nota: C1 Vol.: 100
Chanel 3 Note On - Duracao: 763680 Nota: C1 Vol.: 100
Chanel 3 Note Off - Duracao: 763740 Nota: C1 Vol.: 100
Chanel 3 Note On - Duracao: 763740 Nota: C1 Vol.: 99
Chanel 7 Note Off - Duracao: 763740 Nota: C1 Vol.: 55
Chanel 7 Note On - Duracao: 763740 Nota: C1 Vol.: 55
Chanel 3 Note Off - Duracao: 763800 Nota: C1 Vol.: 99
Chanel 3 Note On - Duracao: 763800 Nota: C1 Vol.: 99
Chanel 3 Note Off - Duracao: 763860 Nota: C1 Vol.: 99
Chanel 3 Note On - Duracao: 763860 Nota: C1 Vol.: 98
Chanel 3 Note Off - Duracao: 763920 Nota: C1 Vol.: 98
Chanel 3 Note On - Duracao: 763920 Nota: C1 Vol.: 96
Chanel 3 Note Off - Duracao: 763980 Nota: C1 Vol.: 96
Chanel 3 Note On - Duracao: 763980 Nota: C1 Vol.: 66
Chanel 7 Note Off - Duracao: 763980 Nota: C1 Vol.: 55
Chanel 7 Note On - Duracao: 763980 Nota: C1 Vol.: 53
Chanel 7 Note Off - Duracao: 764220 Nota: C1 Vol.: 53
Chanel 7 Note On - Duracao: 764220 Nota: C1 Vol.: 52
Chanel 3 Note Off - Duracao: 764460 Nota: C1 Vol.: 66
Chanel 3 Note On - Duracao: 764460 Nota: C1 Vol.: 46
Chanel 7 Note Off - Duracao: 764700 Nota: C1 Vol.: 52
Chanel 7 Note On - Duracao: 764700 Nota: C1 Vol.: 51
Chanel 6 Note Off - Duracao: 764820 Nota: C1 Vol.: 49
Chanel 6 Note On - Duracao: 764820 Nota: C1 Vol.: 61
Chanel 7 Note Off - Duracao: 765180 Nota: C1 Vol.: 51
Chanel 7 Note On - Duracao: 765180 Nota: C1 Vol.: 58
Chanel 7 Note Off - Duracao: 765420 Nota: C1 Vol.: 58
Chanel 7 Note On - Duracao: 765420 Nota: C1 Vol.: 67
Chanel 7 Note Off - Duracao: 765540 Nota: C1 Vol.: 67
Chanel 7 Note On - Duracao: 765540 Nota: C1 Vol.: 75
Chanel 7 Note Off - Duracao: 765660 Nota: C1 Vol.: 75
Chanel 7 Note On - Duracao: 765660 Nota: C1 Vol.: 80
Chanel 7 Note Off - Duracao: 765900 Nota: C1 Vol.: 80
Chanel 7 Note On - Duracao: 765900 Nota: C1 Vol.: 83
Chanel 7 Note Off - Duracao: 766140 Nota: C1 Vol.: 83
Chanel 7 Note On - Duracao: 766140 Nota: C1 Vol.: 85
Chanel 7 Note Off - Duracao: 766260 Nota: C1 Vol.: 85
Chanel 7 Note On - Duracao: 766260 Nota: C1 Vol.: 78
Chanel 3 Note Off - Duracao: 766380 Nota: C1 Vol.: 46
Chanel 3 Note On - Duracao: 766380 Nota: C1 Vol.: 49
Chanel 7 Note Off - Duracao: 766500 Nota: C1 Vol.: 78
Chanel 7 Note On - Duracao: 766500 Nota: C1 Vol.: 73
Chanel 6 Note Off - Duracao: 766740 Nota: C1 Vol.: 61
Chanel 6 Note On - Duracao: 766740 Nota: C1 Vol.: 60
Chanel 7 Note Off - Duracao: 766980 Nota: C1 Vol.: 73
Chanel 7 Note On - Duracao: 766980 Nota: C1 Vol.: 71
Chanel 7 Note Off - Duracao: 767220 Nota: C1 Vol.: 71
Chanel 7 Note On - Duracao: 767220 Nota: C1 Vol.: 64
Chanel 7 Note Off - Duracao: 767460 Nota: C1 Vol.: 64
Chanel 7 Note On - Duracao: 767460 Nota: C1 Vol.: 55
Chanel 7 Note Off - Duracao: 767700 Nota: C1 Vol.: 55
Chanel 7 Note On - Duracao: 767700 Nota: C1 Vol.: 56
Chanel 7 Note Off - Duracao: 768180 Nota: C1 Vol.: 56
Chanel 7 Note On - Duracao: 768180 Nota: C1 Vol.: 40
Chanel 3 Note Off - Duracao: 768300 Nota: C1 Vol.: 49
Chanel 3 Note On - Duracao: 768300 Nota: C1 Vol.: 98
Chanel 3 Note Off - Duracao: 768360 Nota: C1 Vol.: 98
Chanel 3 Note On - Duracao: 768360 Nota: C1 Vol.: 97
Chanel 3 Note Off - Duracao: 768420 Nota: C1 Vol.: 97
Chanel 3 Note On - Duracao: 768420 Nota: C1 Vol.: 100
Chanel 3 Note Off - Duracao: 768480 Nota: C1 Vol.: 100
Chanel 3 Note On - Duracao: 768480 Nota: C1 Vol.: 99
Chanel 3 Note Off - Duracao: 768540 Nota: C1 Vol.: 99
Chanel 3 Note On - Duracao: 768540 Nota: C1 Vol.: 100
Chanel 3 Note Off - Duracao: 768600 Nota: C1 Vol.: 100
Chanel 3 Note On - Duracao: 768600 Nota: C1 Vol.: 100
Chanel 3 Note Off - Duracao: 768660 Nota: C1 Vol.: 100
Chanel 3 Note On - Duracao: 768660 Nota: C1 Vol.: 100
Chanel 3 Note Off - Duracao: 768720 Nota: C1 Vol.: 100
Chanel 3 Note On - Duracao: 768720 Nota: C1 Vol.: 100
Chanel 3 Note Off - Duracao: 768780 Nota: C1 Vol.: 100
Chanel 3 Note On - Duracao: 768780 Nota: C1 Vol.: 98
Chanel 3 Note Off - Duracao: 768840 Nota: C1 Vol.: 98
Chanel 3 Note On - Duracao: 768840 Nota: C1 Vol.: 92
Chanel 3 Note Off - Duracao: 768900 Nota: C1 Vol.: 92
Chanel 3 Note On - Duracao: 768900 Nota: C1 Vol.: 72
Chanel 3 Note Off - Duracao: 769140 Nota: C1 Vol.: 72
Chanel 3 Note On - Duracao: 769140 Nota: C1 Vol.: 70
Chanel 3 Note Off - Duracao: 769620 Nota: C1 Vol.: 70
Chanel 3 Note On - Duracao: 769620 Nota: C1 Vol.: 68
Chanel 3 Note Off - Duracao: 770100 Nota: C1 Vol.: 68
Chanel 3 Note On - Duracao: 770100 Nota: C1 Vol.: 59
Chanel 7 Note Off - Duracao: 770100 Nota: C1 Vol.: 40
Chanel 7 Note On - Duracao: 770100 Nota: C1 Vol.: 46
Chanel 3 Note Off - Duracao: 770580 Nota: C1 Vol.: 59
Chanel 3 Note On - Duracao: 770580 Nota: C1 Vol.: 58
Chanel 6 Note Off - Duracao: 770580 Nota: C1 Vol.: 60
Chanel 6 Note On - Duracao: 770580 Nota: C1 Vol.: 64
Chanel 3 Note Off - Duracao: 771060 Nota: C1 Vol.: 58
Chanel 3 Note On - Duracao: 771060 Nota: C1 Vol.: 69
Chanel 3 Note Off - Duracao: 771180 Nota: C1 Vol.: 69
Chanel 3 Note On - Duracao: 771180 Nota: C1 Vol.: 76
Chanel 3 Note Off - Duracao: 771240 Nota: C1 Vol.: 76
Chanel 3 Note On - Duracao: 771240 Nota: C1 Vol.: 70
Chanel 3 Note Off - Duracao: 771360 Nota: C1 Vol.: 70
Chanel 3 Note On - Duracao: 771360 Nota: C1 Vol.: 79
Chanel 3 Note Off - Duracao: 771480 Nota: C1 Vol.: 79
Chanel 3 Note On - Duracao: 771480 Nota: C1 Vol.: 89
Chanel 3 Note Off - Duracao: 771540 Nota: C1 Vol.: 89
Chanel 3 Note On - Duracao: 771540 Nota: C1 Vol.: 95
Chanel 3 Note Off - Duracao: 771600 Nota: C1 Vol.: 95
Chanel 3 Note On - Duracao: 771600 Nota: C1 Vol.: 95
Chanel 3 Note Off - Duracao: 771660 Nota: C1 Vol.: 95
Chanel 3 Note On - Duracao: 771660 Nota: C1 Vol.: 94
Chanel 3 Note Off - Duracao: 771720 Nota: C1 Vol.: 94
Chanel 3 Note On - Duracao: 771720 Nota: C1 Vol.: 91
Chanel 3 Note Off - Duracao: 771840 Nota: C1 Vol.: 91
Chanel 3 Note On - Duracao: 771840 Nota: C1 Vol.: 54
Chanel 7 Note Off - Duracao: 772020 Nota: C1 Vol.: 46
Chanel 7 Note On - Duracao: 772020 Nota: C1 Vol.: 44
Chanel 3 Note Off - Duracao: 772800 Nota: C1 Vol.: 54
Chanel 3 Note On - Duracao: 772800 Nota: C1 Vol.: 64
Chanel 3 Note Off - Duracao: 773280 Nota: C1 Vol.: 64
Chanel 3 Note On - Duracao: 773280 Nota: C1 Vol.: 57
Chanel 3 Note Off - Duracao: 773760 Nota: C1 Vol.: 57
Chanel 3 Note On - Duracao: 773760 Nota: C1 Vol.: 49
Chanel 7 Note Off - Duracao: 773940 Nota: C1 Vol.: 44
Chanel 7 Note On - Duracao: 773940 Nota: C1 Vol.: 42
Chanel 6 Note Off - Duracao: 774420 Nota: C1 Vol.: 64
Chanel 6 Note On - Duracao: 774420 Nota: C1 Vol.: 64
Chanel 3 Note Off - Duracao: 774720 Nota: C1 Vol.: 49
Chanel 3 Note On - Duracao: 774720 Nota: C1 Vol.: 48
Chanel 3 Note Off - Duracao: 775680 Nota: C1 Vol.: 48
Chanel 3 Note On - Duracao: 775680 Nota: C1 Vol.: 44
Chanel 7 Note Off - Duracao: 775860 Nota: C1 Vol.: 42
Chanel 7 Note On - Duracao: 775860 Nota: C1 Vol.: 52
Chanel 7 Note Off - Duracao: 776340 Nota: C1 Vol.: 52
Chanel 7 Note On - Duracao: 776340 Nota: C1 Vol.: 51
Chanel 3 Note Off - Duracao: 776640 Nota: C1 Vol.: 44
Chanel 3 Note On - Duracao: 776640 Nota: C1 Vol.: 48
Chanel 7 Note Off - Duracao: 776820 Nota: C1 Vol.: 51
Chanel 7 Note On - Duracao: 776820 Nota: C1 Vol.: 56
Chanel 7 Note Off - Duracao: 777060 Nota: C1 Vol.: 56
Chanel 7 Note On - Duracao: 777060 Nota: C1 Vol.: 55
Chanel 7 Note Off - Duracao: 777540 Nota: C1 Vol.: 55
Chanel 7 Note On - Duracao: 777540 Nota: C1 Vol.: 55
Chanel 3 Note Off - Duracao: 777600 Nota: C1 Vol.: 48
Chanel 3 Note On - Duracao: 777600 Nota: C1 Vol.: 63
Chanel 3 Note Off - Duracao: 777840 Nota: C1 Vol.: 63
Chanel 3 Note On - Duracao: 777840 Nota: C1 Vol.: 54
Chanel 7 Note Off - Duracao: 778020 Nota: C1 Vol.: 55
Chanel 7 Note On - Duracao: 778020 Nota: C1 Vol.: 52
Chanel 6 Note Off - Duracao: 778260 Nota: C1 Vol.: 64
Chanel 6 Note On - Duracao: 778260 Nota: C1 Vol.: 62
Chanel 3 Note Off - Duracao: 778320 Nota: C1 Vol.: 54
Chanel 7 Note Off - Duracao: 778500 Nota: C1 Vol.: 52
Chanel 7 Note On - Duracao: 778500 Nota: C1 Vol.: 52
Chanel 7 Note Off - Duracao: 778980 Nota: C1 Vol.: 52
Chanel 7 Note On - Duracao: 778980 Nota: C1 Vol.: 53
Chanel 7 Note Off - Duracao: 779460 Nota: C1 Vol.: 53
Chanel 7 Note On - Duracao: 779460 Nota: C1 Vol.: 53
Chanel 7 Note Off - Duracao: 779940 Nota: C1 Vol.: 53
Chanel 7 Note On - Duracao: 779940 Nota: C1 Vol.: 51
Chanel 7 Note Off - Duracao: 780900 Nota: C1 Vol.: 51
Chanel 7 Note On - Duracao: 780900 Nota: C1 Vol.: 43
Chanel 6 Note Off - Duracao: 782100 Nota: C1 Vol.: 62
Chanel 6 Note On - Duracao: 782100 Nota: C1 Vol.: 60
Chanel 7 Note Off - Duracao: 782820 Nota: C1 Vol.: 43
Chanel 7 Note On - Duracao: 782820 Nota: C1 Vol.: 47
Chanel 7 Note Off - Duracao: 783780 Nota: C1 Vol.: 47
Chanel 7 Note On - Duracao: 783780 Nota: C1 Vol.: 48
Chanel 7 Note Off - Duracao: 784740 Nota: C1 Vol.: 48
Chanel 7 Note On - Duracao: 784740 Nota: C1 Vol.: 47
Chanel 6 Note Off - Duracao: 785940 Nota: C1 Vol.: 60
Chanel 6 Note On - Duracao: 785940 Nota: C1 Vol.: 59
Chanel 7 Note Off - Duracao: 786660 Nota: C1 Vol.: 47
Chanel 7 Note On - Duracao: 786660 Nota: C1 Vol.: 54
Chanel 7 Note Off - Duracao: 787620 Nota: C1 Vol.: 54
Chanel 7 Note On - Duracao: 787620 Nota: C1 Vol.: 61
Chanel 7 Note Off - Duracao: 788100 Nota: C1 Vol.: 61
Chanel 7 Note On - Duracao: 788100 Nota: C1 Vol.: 60
Chanel 7 Note Off - Duracao: 789060 Nota: C1 Vol.: 60
Chanel 7 Note On - Duracao: 789060 Nota: C1 Vol.: 70
Chanel 7 Note Off - Duracao: 789540 Nota: C1 Vol.: 70
Chanel 7 Note On - Duracao: 789540 Nota: C1 Vol.: 71
Chanel 6 Note Off - Duracao: 789780 Nota: C1 Vol.: 59
Chanel 6 Note On - Duracao: 789780 Nota: C1 Vol.: 59
Chanel 7 Note Off - Duracao: 790020 Nota: C1 Vol.: 71
Chanel 7 Note On - Duracao: 790020 Nota: C1 Vol.: 59
Chanel 7 Note Off - Duracao: 790980 Nota: C1 Vol.: 59
Chanel 7 Note On - Duracao: 790980 Nota: C1 Vol.: 59
Chanel 7 Note Off - Duracao: 791940 Nota: C1 Vol.: 59
Chanel 7 Note On - Duracao: 791940 Nota: C1 Vol.: 50
Chanel 7 Note Off - Duracao: 792900 Nota: C1 Vol.: 50
Chanel 7 Note On - Duracao: 792900 Nota: C1 Vol.: 47
Chanel 6 Note Off - Duracao: 793620 Nota: C1 Vol.: 59
Chanel 6 Note On - Duracao: 793620 Nota: C1 Vol.: 60
Chanel 7 Note Off - Duracao: 793860 Nota: C1 Vol.: 47
Chanel 7 Note On - Duracao: 793860 Nota: C1 Vol.: 45
Chanel 7 Note Off - Duracao: 795780 Nota: C1 Vol.: 45
Chanel 7 Note On - Duracao: 795780 Nota: C1 Vol.: 46
Chanel 6 Note Off - Duracao: 797460 Nota: C1 Vol.: 60
Chanel 6 Note On - Duracao: 797460 Nota: C1 Vol.: 63
Chanel 7 Note Off - Duracao: 797700 Nota: C1 Vol.: 46
Chanel 7 Note On - Duracao: 797700 Nota: C1 Vol.: 51
Chanel 7 Note Off - Duracao: 798660 Nota: C1 Vol.: 51
Chanel 7 Note On - Duracao: 798660 Nota: C1 Vol.: 51
Chanel 7 Note Off - Duracao: 799620 Nota: C1 Vol.: 51
Chanel 7 Note On - Duracao: 799620 Nota: C1 Vol.: 48
Chanel 7 Note Off - Duracao: 800580 Nota: C1 Vol.: 48
Chanel 7 Note On - Duracao: 800580 Nota: C1 Vol.: 49
Chanel 6 Note Off - Duracao: 801300 Nota: C1 Vol.: 63
Chanel 6 Note On - Duracao: 801300 Nota: C1 Vol.: 67
Chanel 7 Note Off - Duracao: 801540 Nota: C1 Vol.: 49
Chanel 7 Note On - Duracao: 801540 Nota: C1 Vol.: 49
Chanel 7 Note Off - Duracao: 802500 Nota: C1 Vol.: 49
Chanel 7 Note On - Duracao: 802500 Nota: C1 Vol.: 49
Chanel 7 Note Off - Duracao: 803460 Nota: C1 Vol.: 49
Chanel 7 Note On - Duracao: 803460 Nota: C1 Vol.: 49
Chanel 7 Note Off - Duracao: 804420 Nota: C1 Vol.: 49
Chanel 7 Note On - Duracao: 804420 Nota: C1 Vol.: 54
Chanel 6 Note Off - Duracao: 805140 Nota: C1 Vol.: 67
Chanel 6 Note On - Duracao: 805140 Nota: C1 Vol.: 70
Chanel 7 Note Off - Duracao: 805380 Nota: C1 Vol.: 54
Chanel 7 Note On - Duracao: 805380 Nota: C1 Vol.: 52
Chanel 7 Note Off - Duracao: 806340 Nota: C1 Vol.: 52
Chanel 7 Note On - Duracao: 806340 Nota: C1 Vol.: 53
Chanel 7 Note Off - Duracao: 806820 Nota: C1 Vol.: 53
Chanel 7 Note On - Duracao: 806820 Nota: C1 Vol.: 40
Chanel 6 Note Off - Duracao: 807060 Nota: C1 Vol.: 70
Chanel 6 Note On - Duracao: 807060 Nota: C1 Vol.: 71
Chanel 7 Note Off - Duracao: 808740 Nota: C1 Vol.: 40
Chanel 7 Note On - Duracao: 808740 Nota: C1 Vol.: 65
Chanel 6 Note Off - Duracao: 808980 Nota: C1 Vol.: 71
Chanel 6 Note On - Duracao: 808980 Nota: C1 Vol.: 71
Chanel 7 Note Off - Duracao: 808980 Nota: C1 Vol.: 65
Chanel 7 Note On - Duracao: 808980 Nota: C1 Vol.: 65
Chanel 7 Note Off - Duracao: 809220 Nota: C1 Vol.: 65
Chanel 7 Note On - Duracao: 809220 Nota: C1 Vol.: 50
Chanel 7 Note Off - Duracao: 809700 Nota: C1 Vol.: 50
Chanel 7 Note On - Duracao: 809700 Nota: C1 Vol.: 47
Chanel 7 Note Off - Duracao: 810660 Nota: C1 Vol.: 47
Chanel 7 Note On - Duracao: 810660 Nota: C1 Vol.: 60
Chanel 6 Note Off - Duracao: 810900 Nota: C1 Vol.: 71
Chanel 6 Note On - Duracao: 810900 Nota: C1 Vol.: 70
Chanel 7 Note Off - Duracao: 810900 Nota: C1 Vol.: 60
Chanel 7 Note On - Duracao: 810900 Nota: C1 Vol.: 58
Chanel 7 Note Off - Duracao: 811380 Nota: C1 Vol.: 58
Chanel 7 Note On - Duracao: 811380 Nota: C1 Vol.: 65
Chanel 7 Note Off - Duracao: 811620 Nota: C1 Vol.: 65
Chanel 7 Note On - Duracao: 811620 Nota: C1 Vol.: 74
Chanel 7 Note Off - Duracao: 812100 Nota: C1 Vol.: 74
Chanel 7 Note On - Duracao: 812100 Nota: C1 Vol.: 64
Chanel 7 Note Off - Duracao: 812580 Nota: C1 Vol.: 64
Chanel 7 Note On - Duracao: 812580 Nota: C1 Vol.: 77
Chanel 6 Note Off - Duracao: 812820 Nota: C1 Vol.: 70
Chanel 6 Note On - Duracao: 812820 Nota: C1 Vol.: 70
Chanel 7 Note Off - Duracao: 812820 Nota: C1 Vol.: 77
Chanel 7 Note On - Duracao: 812820 Nota: C1 Vol.: 71
Chanel 7 Note Off - Duracao: 813060 Nota: C1 Vol.: 71
Chanel 7 Note On - Duracao: 813060 Nota: C1 Vol.: 73
Chanel 7 Note Off - Duracao: 813300 Nota: C1 Vol.: 73
Chanel 7 Note On - Duracao: 813300 Nota: C1 Vol.: 70
Chanel 7 Note Off - Duracao: 813540 Nota: C1 Vol.: 70
Chanel 7 Note On - Duracao: 813540 Nota: C1 Vol.: 80
Chanel 7 Note Off - Duracao: 813780 Nota: C1 Vol.: 80
Chanel 7 Note On - Duracao: 813780 Nota: C1 Vol.: 86
Chanel 7 Note Off - Duracao: 813900 Nota: C1 Vol.: 86
Chanel 7 Note On - Duracao: 813900 Nota: C1 Vol.: 92
Chanel 7 Note Off - Duracao: 814020 Nota: C1 Vol.: 92
Chanel 7 Note On - Duracao: 814020 Nota: C1 Vol.: 98
Chanel 7 Note Off - Duracao: 814080 Nota: C1 Vol.: 98
Chanel 7 Note On - Duracao: 814080 Nota: C1 Vol.: 92
Chanel 7 Note Off - Duracao: 814140 Nota: C1 Vol.: 92
Chanel 7 Note On - Duracao: 814140 Nota: C1 Vol.: 94
Chanel 7 Note Off - Duracao: 814200 Nota: C1 Vol.: 94
Chanel 7 Note On - Duracao: 814200 Nota: C1 Vol.: 92
Chanel 7 Note Off - Duracao: 814260 Nota: C1 Vol.: 92
Chanel 7 Note On - Duracao: 814260 Nota: C1 Vol.: 86
Chanel 7 Note Off - Duracao: 814380 Nota: C1 Vol.: 86
Chanel 7 Note On - Duracao: 814380 Nota: C1 Vol.: 93
Chanel 7 Note Off - Duracao: 814440 Nota: C1 Vol.: 93
Chanel 7 Note On - Duracao: 814440 Nota: C1 Vol.: 94
Chanel 7 Note Off - Duracao: 814500 Nota: C1 Vol.: 94
Chanel 7 Note On - Duracao: 814500 Nota: C1 Vol.: 61
Chanel 6 Note Off - Duracao: 814740 Nota: C1 Vol.: 70
Chanel 6 Note On - Duracao: 814740 Nota: C1 Vol.: 71
Chanel 7 Note Off - Duracao: 815460 Nota: C1 Vol.: 61
Chanel 7 Note On - Duracao: 815460 Nota: C1 Vol.: 59
Chanel 7 Note Off - Duracao: 816420 Nota: C1 Vol.: 59
Chanel 7 Note On - Duracao: 816420 Nota: C1 Vol.: 65
Chanel 6 Note Off - Duracao: 816660 Nota: C1 Vol.: 71
Chanel 6 Note On - Duracao: 816660 Nota: C1 Vol.: 72
Chanel 7 Note Off - Duracao: 817380 Nota: C1 Vol.: 65
Chanel 7 Note On - Duracao: 817380 Nota: C1 Vol.: 67
Chanel 7 Note Off - Duracao: 817860 Nota: C1 Vol.: 67
Chanel 7 Note On - Duracao: 817860 Nota: C1 Vol.: 95
Chanel 7 Note Off - Duracao: 817980 Nota: C1 Vol.: 95
Chanel 7 Note On - Duracao: 817980 Nota: C1 Vol.: 67
Chanel 6 Note Off - Duracao: 818580 Nota: C1 Vol.: 72
Chanel 6 Note On - Duracao: 818580 Nota: C1 Vol.: 72
Chanel 7 Note Off - Duracao: 818940 Nota: C1 Vol.: 67
Chanel 7 Note On - Duracao: 818940 Nota: C1 Vol.: 59
Chanel 7 Note Off - Duracao: 819900 Nota: C1 Vol.: 59
Chanel 7 Note On - Duracao: 819900 Nota: C1 Vol.: 60
Chanel 6 Note Off - Duracao: 820500 Nota: C1 Vol.: 72
Chanel 6 Note On - Duracao: 820500 Nota: C1 Vol.: 71
Chanel 7 Note Off - Duracao: 820860 Nota: C1 Vol.: 60
Chanel 7 Note On - Duracao: 820860 Nota: C1 Vol.: 62
Chanel 7 Note Off - Duracao: 821340 Nota: C1 Vol.: 62
Chanel 7 Note On - Duracao: 821340 Nota: C1 Vol.: 62
Chanel 7 Note Off - Duracao: 822300 Nota: C1 Vol.: 62
Chanel 7 Note On - Duracao: 822300 Nota: C1 Vol.: 69
Chanel 6 Note Off - Duracao: 822420 Nota: C1 Vol.: 71
Chanel 6 Note On - Duracao: 822420 Nota: C1 Vol.: 72
Chanel 7 Note Off - Duracao: 822780 Nota: C1 Vol.: 69
Chanel 7 Note On - Duracao: 822780 Nota: C1 Vol.: 72
Chanel 7 Note Off - Duracao: 823260 Nota: C1 Vol.: 72
Chanel 7 Note On - Duracao: 823260 Nota: C1 Vol.: 75
Chanel 7 Note Off - Duracao: 823740 Nota: C1 Vol.: 75
Chanel 7 Note On - Duracao: 823740 Nota: C1 Vol.: 73
Chanel 6 Note Off - Duracao: 824340 Nota: C1 Vol.: 72
Chanel 6 Note On - Duracao: 824340 Nota: C1 Vol.: 71
Chanel 7 Note Off - Duracao: 824700 Nota: C1 Vol.: 73
Chanel 7 Note On - Duracao: 824700 Nota: C1 Vol.: 75
Chanel 7 Note Off - Duracao: 825180 Nota: C1 Vol.: 75
Chanel 7 Note On - Duracao: 825180 Nota: C1 Vol.: 73
Chanel 7 Note Off - Duracao: 825660 Nota: C1 Vol.: 73
Chanel 7 Note On - Duracao: 825660 Nota: C1 Vol.: 56
Chanel 6 Note Off - Duracao: 826260 Nota: C1 Vol.: 71
Chanel 6 Note On - Duracao: 826260 Nota: C1 Vol.: 74
Chanel 7 Note Off - Duracao: 826620 Nota: C1 Vol.: 56
Chanel 7 Note On - Duracao: 826620 Nota: C1 Vol.: 71
Chanel 7 Note Off - Duracao: 826860 Nota: C1 Vol.: 71
Chanel 7 Note On - Duracao: 826860 Nota: C1 Vol.: 64
Chanel 7 Note Off - Duracao: 827100 Nota: C1 Vol.: 64
Chanel 7 Note On - Duracao: 827100 Nota: C1 Vol.: 54
Chanel 7 Note Off - Duracao: 827580 Nota: C1 Vol.: 54
Chanel 7 Note On - Duracao: 827580 Nota: C1 Vol.: 57
Chanel 7 Note Off - Duracao: 827820 Nota: C1 Vol.: 57
Chanel 7 Note On - Duracao: 827820 Nota: C1 Vol.: 50
Chanel 6 Note Off - Duracao: 828180 Nota: C1 Vol.: 74
Chanel 6 Note On - Duracao: 828180 Nota: C1 Vol.: 73
Chanel 7 Note Off - Duracao: 828300 Nota: C1 Vol.: 50
Chanel 7 Note On - Duracao: 828300 Nota: C1 Vol.: 61
Chanel 7 Note Off - Duracao: 828540 Nota: C1 Vol.: 61
Chanel 7 Note On - Duracao: 828540 Nota: C1 Vol.: 48
Chanel 7 Note Off - Duracao: 829020 Nota: C1 Vol.: 48
Chanel 7 Note On - Duracao: 829020 Nota: C1 Vol.: 45
Chanel 7 Note Off - Duracao: 829500 Nota: C1 Vol.: 45
Chanel 7 Note On - Duracao: 829500 Nota: C1 Vol.: 57
Chanel 7 Note Off - Duracao: 829740 Nota: C1 Vol.: 57
Chanel 7 Note On - Duracao: 829740 Nota: C1 Vol.: 56
Chanel 7 Note Off - Duracao: 829980 Nota: C1 Vol.: 56
Chanel 7 Note On - Duracao: 829980 Nota: C1 Vol.: 75
Chanel 6 Note Off - Duracao: 830100 Nota: C1 Vol.: 73
Chanel 6 Note On - Duracao: 830100 Nota: C1 Vol.: 75
Chanel 7 Note Off - Duracao: 830100 Nota: C1 Vol.: 75
Chanel 7 Note On - Duracao: 830100 Nota: C1 Vol.: 76
Chanel 7 Note Off - Duracao: 830340 Nota: C1 Vol.: 76
Chanel 7 Note On - Duracao: 830340 Nota: C1 Vol.: 80
Chanel 7 Note Off - Duracao: 830580 Nota: C1 Vol.: 80
Chanel 7 Note On - Duracao: 830580 Nota: C1 Vol.: 79
Chanel 7 Note Off - Duracao: 830820 Nota: C1 Vol.: 79
Chanel 7 Note On - Duracao: 830820 Nota: C1 Vol.: 78
Chanel 7 Note Off - Duracao: 831060 Nota: C1 Vol.: 78
Chanel 7 Note On - Duracao: 831060 Nota: C1 Vol.: 66
Chanel 7 Note Off - Duracao: 831300 Nota: C1 Vol.: 66
Chanel 7 Note On - Duracao: 831300 Nota: C1 Vol.: 58
Chanel 7 Note Off - Duracao: 831540 Nota: C1 Vol.: 58
Chanel 7 Note On - Duracao: 831540 Nota: C1 Vol.: 54
Chanel 7 Note Off - Duracao: 831780 Nota: C1 Vol.: 54
Chanel 7 Note On - Duracao: 831780 Nota: C1 Vol.: 58
Chanel 7 Note Off - Duracao: 831900 Nota: C1 Vol.: 58
Chanel 7 Note On - Duracao: 831900 Nota: C1 Vol.: 45
Chanel 6 Note Off - Duracao: 832020 Nota: C1 Vol.: 75
Chanel 6 Note On - Duracao: 832020 Nota: C1 Vol.: 72
Chanel 7 Note Off - Duracao: 832380 Nota: C1 Vol.: 45
Chanel 7 Note On - Duracao: 832380 Nota: C1 Vol.: 53
Chanel 7 Note Off - Duracao: 832860 Nota: C1 Vol.: 53
Chanel 7 Note On - Duracao: 832860 Nota: C1 Vol.: 40
Chanel 6 Note Off - Duracao: 833940 Nota: C1 Vol.: 72
Chanel 6 Note On - Duracao: 833940 Nota: C1 Vol.: 72
Chanel 7 Note Off - Duracao: 834780 Nota: C1 Vol.: 40
Chanel 7 Note On - Duracao: 834780 Nota: C1 Vol.: 44
Chanel 6 Note Off - Duracao: 835860 Nota: C1 Vol.: 72
Chanel 6 Note On - Duracao: 835860 Nota: C1 Vol.: 71
Chanel 7 Note Off - Duracao: 836700 Nota: C1 Vol.: 44
Chanel 7 Note On - Duracao: 836700 Nota: C1 Vol.: 49
Chanel 7 Note Off - Duracao: 837660 Nota: C1 Vol.: 49
Chanel 7 Note On - Duracao: 837660 Nota: C1 Vol.: 48
Chanel 6 Note Off - Duracao: 837780 Nota: C1 Vol.: 71
Chanel 6 Note On - Duracao: 837780 Nota: C1 Vol.: 73
Chanel 7 Note Off - Duracao: 838140 Nota: C1 Vol.: 48
Chanel 7 Note On - Duracao: 838140 Nota: C1 Vol.: 56
Chanel 7 Note Off - Duracao: 838380 Nota: C1 Vol.: 56
Chanel 7 Note On - Duracao: 838380 Nota: C1 Vol.: 65
Chanel 7 Note Off - Duracao: 838500 Nota: C1 Vol.: 65
Chanel 7 Note On - Duracao: 838500 Nota: C1 Vol.: 61
Chanel 7 Note Off - Duracao: 838740 Nota: C1 Vol.: 61
Chanel 7 Note On - Duracao: 838740 Nota: C1 Vol.: 62
Chanel 7 Note Off - Duracao: 838980 Nota: C1 Vol.: 62
Chanel 7 Note On - Duracao: 838980 Nota: C1 Vol.: 54
Chanel 7 Note Off - Duracao: 839460 Nota: C1 Vol.: 54
Chanel 7 Note On - Duracao: 839460 Nota: C1 Vol.: 50
Chanel 6 Note Off - Duracao: 839700 Nota: C1 Vol.: 73
Chanel 6 Note On - Duracao: 839700 Nota: C1 Vol.: 72
Chanel 7 Note Off - Duracao: 839940 Nota: C1 Vol.: 50
Chanel 7 Note On - Duracao: 839940 Nota: C1 Vol.: 52
Chanel 7 Note Off - Duracao: 840420 Nota: C1 Vol.: 52
Chanel 7 Note On - Duracao: 840420 Nota: C1 Vol.: 51
Chanel 7 Note Off - Duracao: 840900 Nota: C1 Vol.: 51
Chanel 7 Note On - Duracao: 840900 Nota: C1 Vol.: 52
Chanel 7 Note Off - Duracao: 841380 Nota: C1 Vol.: 52
Chanel 7 Note On - Duracao: 841380 Nota: C1 Vol.: 42
Chanel 6 Note Off - Duracao: 841620 Nota: C1 Vol.: 72
Chanel 6 Note On - Duracao: 841620 Nota: C1 Vol.: 72
Chanel 7 Note Off - Duracao: 843300 Nota: C1 Vol.: 42
Chanel 7 Note On - Duracao: 843300 Nota: C1 Vol.: 47
Chanel 6 Note Off - Duracao: 843540 Nota: C1 Vol.: 72
Chanel 6 Note On - Duracao: 843540 Nota: C1 Vol.: 72
Chanel 7 Note Off - Duracao: 844260 Nota: C1 Vol.: 47
Chanel 7 Note On - Duracao: 844260 Nota: C1 Vol.: 50
Chanel 7 Note Off - Duracao: 845220 Nota: C1 Vol.: 50
Chanel 7 Note On - Duracao: 845220 Nota: C1 Vol.: 49
Chanel 6 Note Off - Duracao: 845460 Nota: C1 Vol.: 72
Chanel 6 Note On - Duracao: 845460 Nota: C1 Vol.: 65
Chanel 7 Note Off - Duracao: 846180 Nota: C1 Vol.: 49
Chanel 7 Note On - Duracao: 846180 Nota: C1 Vol.: 53
Chanel 7 Note Off - Duracao: 847140 Nota: C1 Vol.: 53
Chanel 7 Note On - Duracao: 847140 Nota: C1 Vol.: 60
Chanel 7 Note Off - Duracao: 848100 Nota: C1 Vol.: 60
Chanel 7 Note On - Duracao: 848100 Nota: C1 Vol.: 60
Chanel 7 Note Off - Duracao: 849060 Nota: C1 Vol.: 60
Chanel 7 Note On - Duracao: 849060 Nota: C1 Vol.: 73
Chanel 6 Note Off - Duracao: 849300 Nota: C1 Vol.: 65
Chanel 6 Note On - Duracao: 849300 Nota: C1 Vol.: 60
Chanel 7 Note Off - Duracao: 849540 Nota: C1 Vol.: 73
Chanel 7 Note On - Duracao: 849540 Nota: C1 Vol.: 67
Chanel 7 Note Off - Duracao: 850500 Nota: C1 Vol.: 67
Chanel 7 Note On - Duracao: 850500 Nota: C1 Vol.: 61
Chanel 7 Note Off - Duracao: 851460 Nota: C1 Vol.: 61
Chanel 7 Note On - Duracao: 851460 Nota: C1 Vol.: 62
Chanel 7 Note Off - Duracao: 852420 Nota: C1 Vol.: 62
Chanel 7 Note On - Duracao: 852420 Nota: C1 Vol.: 59
Chanel 6 Note Off - Duracao: 853140 Nota: C1 Vol.: 60
Chanel 6 Note On - Duracao: 853140 Nota: C1 Vol.: 57
Chanel 7 Note Off - Duracao: 853380 Nota: C1 Vol.: 59
Chanel 7 Note On - Duracao: 853380 Nota: C1 Vol.: 52
Chanel 7 Note Off - Duracao: 854340 Nota: C1 Vol.: 52
Chanel 7 Note On - Duracao: 854340 Nota: C1 Vol.: 48
Chanel 7 Note Off - Duracao: 856260 Nota: C1 Vol.: 48
Chanel 7 Note On - Duracao: 856260 Nota: C1 Vol.: 43
Chanel 6 Note Off - Duracao: 856980 Nota: C1 Vol.: 57
Chanel 6 Note On - Duracao: 856980 Nota: C1 Vol.: 57
Chanel 7 Note Off - Duracao: 858180 Nota: C1 Vol.: 43
Chanel 7 Note On - Duracao: 858180 Nota: C1 Vol.: 47
Chanel 6 Note Off - Duracao: 858900 Nota: C1 Vol.: 57
Chanel 6 Note On - Duracao: 858900 Nota: C1 Vol.: 52
Chanel 7 Note Off - Duracao: 860100 Nota: C1 Vol.: 47
Chanel 7 Note On - Duracao: 860100 Nota: C1 Vol.: 50
Chanel 6 Note Off - Duracao: 860820 Nota: C1 Vol.: 52
Chanel 6 Note On - Duracao: 860820 Nota: C1 Vol.: 44
Chanel 7 Note Off - Duracao: 861060 Nota: C1 Vol.: 50
Chanel 7 Note On - Duracao: 861060 Nota: C1 Vol.: 50
Chanel 7 Note Off - Duracao: 862020 Nota: C1 Vol.: 50
Chanel 7 Note On - Duracao: 862020 Nota: C1 Vol.: 50
Chanel 7 Note Off - Duracao: 862980 Nota: C1 Vol.: 50
Chanel 7 Note On - Duracao: 862980 Nota: C1 Vol.: 50
Chanel 7 Note Off - Duracao: 863940 Nota: C1 Vol.: 50
Chanel 7 Note On - Duracao: 863940 Nota: C1 Vol.: 51
Chanel 6 Note Off - Duracao: 864660 Nota: C1 Vol.: 44
Chanel 6 Note On - Duracao: 864660 Nota: C1 Vol.: 45
Chanel 7 Note Off - Duracao: 864900 Nota: C1 Vol.: 51
Chanel 7 Note On - Duracao: 864900 Nota: C1 Vol.: 55
Chanel 7 Note Off - Duracao: 865860 Nota: C1 Vol.: 55
Chanel 7 Note On - Duracao: 865860 Nota: C1 Vol.: 52
Chanel 6 Note Off - Duracao: 866580 Nota: C1 Vol.: 45
Chanel 6 Note On - Duracao: 866580 Nota: C1 Vol.: 45
Chanel 7 Note Off - Duracao: 866820 Nota: C1 Vol.: 52
Chanel 7 Note On - Duracao: 866820 Nota: C1 Vol.: 50
Chanel 7 Note Off - Duracao: 867780 Nota: C1 Vol.: 50
Chanel 7 Note On - Duracao: 867780 Nota: C1 Vol.: 52
Chanel 6 Note Off - Duracao: 868500 Nota: C1 Vol.: 45
Chanel 6 Note On - Duracao: 868500 Nota: C1 Vol.: 45
Chanel 7 Note Off - Duracao: 868740 Nota: C1 Vol.: 52
Chanel 7 Note On - Duracao: 868740 Nota: C1 Vol.: 42
Chanel 7 Note Off - Duracao: 869700 Nota: C1 Vol.: 42
Chanel 7 Note On - Duracao: 869700 Nota: C1 Vol.: 65
Chanel 7 Note Off - Duracao: 869940 Nota: C1 Vol.: 65
Chanel 7 Note On - Duracao: 869940 Nota: C1 Vol.: 65
Chanel 7 Note Off - Duracao: 870180 Nota: C1 Vol.: 65
Chanel 7 Note On - Duracao: 870180 Nota: C1 Vol.: 43
Chanel 6 Note Off - Duracao: 870420 Nota: C1 Vol.: 45
Chanel 6 Note On - Duracao: 870420 Nota: C1 Vol.: 56
Chanel 7 Note Off - Duracao: 871140 Nota: C1 Vol.: 43
Chanel 7 Note On - Duracao: 871140 Nota: C1 Vol.: 44
Chanel 6 Note Off - Duracao: 871380 Nota: C1 Vol.: 56
Chanel 6 Note On - Duracao: 871380 Nota: C1 Vol.: 63
Chanel 6 Note Off - Duracao: 871860 Nota: C1 Vol.: 63
Chanel 6 Note On - Duracao: 871860 Nota: C1 Vol.: 61
Chanel 7 Note Off - Duracao: 872100 Nota: C1 Vol.: 44
Chanel 7 Note On - Duracao: 872100 Nota: C1 Vol.: 49
Chanel 6 Note Off - Duracao: 872340 Nota: C1 Vol.: 61
Chanel 6 Note On - Duracao: 872340 Nota: C1 Vol.: 59
Chanel 7 Note Off - Duracao: 873060 Nota: C1 Vol.: 49
Chanel 7 Note On - Duracao: 873060 Nota: C1 Vol.: 53
Chanel 6 Note Off - Duracao: 873300 Nota: C1 Vol.: 59
Chanel 6 Note On - Duracao: 873300 Nota: C1 Vol.: 51
Chanel 7 Note Off - Duracao: 874020 Nota: C1 Vol.: 53
Chanel 7 Note On - Duracao: 874020 Nota: C1 Vol.: 61
Chanel 6 Note Off - Duracao: 874260 Nota: C1 Vol.: 51
Chanel 6 Note On - Duracao: 874260 Nota: C1 Vol.: 45
Chanel 7 Note Off - Duracao: 874500 Nota: C1 Vol.: 61
Chanel 7 Note On - Duracao: 874500 Nota: C1 Vol.: 72
Chanel 7 Note Off - Duracao: 874980 Nota: C1 Vol.: 72
Chanel 7 Note On - Duracao: 874980 Nota: C1 Vol.: 75
Chanel 7 Note Off - Duracao: 875220 Nota: C1 Vol.: 75
Chanel 7 Note On - Duracao: 875220 Nota: C1 Vol.: 74
Chanel 7 Note Off - Duracao: 875460 Nota: C1 Vol.: 74
Chanel 7 Note On - Duracao: 875460 Nota: C1 Vol.: 70
Chanel 7 Note Off - Duracao: 875700 Nota: C1 Vol.: 70
Chanel 7 Note On - Duracao: 875700 Nota: C1 Vol.: 75
Chanel 7 Note Off - Duracao: 875820 Nota: C1 Vol.: 75
Chanel 7 Note On - Duracao: 875820 Nota: C1 Vol.: 74
Chanel 7 Note Off - Duracao: 875940 Nota: C1 Vol.: 74
Chanel 7 Note On - Duracao: 875940 Nota: C1 Vol.: 75
Chanel 6 Note Off - Duracao: 876180 Nota: C1 Vol.: 45
Chanel 6 Note On - Duracao: 876180 Nota: C1 Vol.: 40
Chanel 7 Note Off - Duracao: 876180 Nota: C1 Vol.: 75
Chanel 7 Note On - Duracao: 876180 Nota: C1 Vol.: 79
Chanel 7 Note Off - Duracao: 876420 Nota: C1 Vol.: 79
Chanel 7 Note On - Duracao: 876420 Nota: C1 Vol.: 87
Chanel 7 Note Off - Duracao: 876540 Nota: C1 Vol.: 87
Chanel 7 Note On - Duracao: 876540 Nota: C1 Vol.: 89
Chanel 7 Note Off - Duracao: 876660 Nota: C1 Vol.: 89
Chanel 7 Note On - Duracao: 876660 Nota: C1 Vol.: 89
Chanel 7 Note Off - Duracao: 876780 Nota: C1 Vol.: 89
Chanel 7 Note On - Duracao: 876780 Nota: C1 Vol.: 95
Chanel 7 Note Off - Duracao: 876840 Nota: C1 Vol.: 95
Chanel 7 Note On - Duracao: 876840 Nota: C1 Vol.: 90
Chanel 7 Note Off - Duracao: 876900 Nota: C1 Vol.: 90
Chanel 7 Note On - Duracao: 876900 Nota: C1 Vol.: 82
Chanel 7 Note Off - Duracao: 877020 Nota: C1 Vol.: 82
Chanel 7 Note On - Duracao: 877020 Nota: C1 Vol.: 88
Chanel 7 Note Off - Duracao: 877140 Nota: C1 Vol.: 88
Chanel 7 Note On - Duracao: 877140 Nota: C1 Vol.: 85
Chanel 7 Note Off - Duracao: 877380 Nota: C1 Vol.: 85
Chanel 7 Note On - Duracao: 877380 Nota: C1 Vol.: 66
Chanel 6 Note Off - Duracao: 878100 Nota: C1 Vol.: 40
Chanel 6 Note On - Duracao: 878100 Nota: C1 Vol.: 83
Chanel 6 Note Off - Duracao: 878340 Nota: C1 Vol.: 83
Chanel 6 Note On - Duracao: 878340 Nota: C1 Vol.: 75
Chanel 7 Note Off - Duracao: 878340 Nota: C1 Vol.: 66
Chanel 7 Note On - Duracao: 878340 Nota: C1 Vol.: 72
Chanel 6 Note Off - Duracao: 878580 Nota: C1 Vol.: 75
Chanel 6 Note On - Duracao: 878580 Nota: C1 Vol.: 82
Chanel 6 Note Off - Duracao: 878820 Nota: C1 Vol.: 82
Chanel 6 Note On - Duracao: 878820 Nota: C1 Vol.: 63
Chanel 6 Note Off - Duracao: 879300 Nota: C1 Vol.: 63
Chanel 6 Note On - Duracao: 879300 Nota: C1 Vol.: 59
Chanel 7 Note Off - Duracao: 879300 Nota: C1 Vol.: 72
Chanel 7 Note On - Duracao: 879300 Nota: C1 Vol.: 67
Chanel 6 Note Off - Duracao: 880260 Nota: C1 Vol.: 59
Chanel 6 Note On - Duracao: 880260 Nota: C1 Vol.: 61
Chanel 7 Note Off - Duracao: 880260 Nota: C1 Vol.: 67
Chanel 7 Note On - Duracao: 880260 Nota: C1 Vol.: 66
Chanel 6 Note Off - Duracao: 880740 Nota: C1 Vol.: 61
Chanel 6 Note On - Duracao: 880740 Nota: C1 Vol.: 79
Chanel 6 Note Off - Duracao: 880980 Nota: C1 Vol.: 79
Chanel 6 Note On - Duracao: 880980 Nota: C1 Vol.: 94
Chanel 6 Note Off - Duracao: 881100 Nota: C1 Vol.: 94
Chanel 6 Note On - Duracao: 881100 Nota: C1 Vol.: 77
Chanel 7 Note Off - Duracao: 881220 Nota: C1 Vol.: 66
Chanel 7 Note On - Duracao: 881220 Nota: C1 Vol.: 64
Chanel 6 Note Off - Duracao: 881340 Nota: C1 Vol.: 77
Chanel 6 Note On - Duracao: 881340 Nota: C1 Vol.: 67
Chanel 6 Note Off - Duracao: 881820 Nota: C1 Vol.: 67
Chanel 6 Note On - Duracao: 881820 Nota: C1 Vol.: 76
Chanel 6 Note Off - Duracao: 882060 Nota: C1 Vol.: 76
Chanel 6 Note On - Duracao: 882060 Nota: C1 Vol.: 90
Chanel 6 Note Off - Duracao: 882180 Nota: C1 Vol.: 90
Chanel 6 Note On - Duracao: 882180 Nota: C1 Vol.: 89
Chanel 7 Note Off - Duracao: 882180 Nota: C1 Vol.: 64
Chanel 7 Note On - Duracao: 882180 Nota: C1 Vol.: 64
Chanel 6 Note Off - Duracao: 882300 Nota: C1 Vol.: 89
Chanel 6 Note On - Duracao: 882300 Nota: C1 Vol.: 77
Chanel 6 Note Off - Duracao: 882540 Nota: C1 Vol.: 77
Chanel 6 Note On - Duracao: 882540 Nota: C1 Vol.: 87
Chanel 6 Note Off - Duracao: 882660 Nota: C1 Vol.: 87
Chanel 6 Note On - Duracao: 882660 Nota: C1 Vol.: 95
Chanel 6 Note Off - Duracao: 882720 Nota: C1 Vol.: 95
Chanel 6 Note On - Duracao: 882720 Nota: C1 Vol.: 85
Chanel 6 Note Off - Duracao: 882840 Nota: C1 Vol.: 85
Chanel 6 Note On - Duracao: 882840 Nota: C1 Vol.: 59
Chanel 7 Note Off - Duracao: 883140 Nota: C1 Vol.: 64
Chanel 7 Note On - Duracao: 883140 Nota: C1 Vol.: 71
Chanel 6 Note Off - Duracao: 883320 Nota: C1 Vol.: 59
Chanel 6 Note On - Duracao: 883320 Nota: C1 Vol.: 70
Chanel 6 Note Off - Duracao: 883560 Nota: C1 Vol.: 70
Chanel 6 Note On - Duracao: 883560 Nota: C1 Vol.: 63
Chanel 7 Note Off - Duracao: 883620 Nota: C1 Vol.: 71
Chanel 7 Note On - Duracao: 883620 Nota: C1 Vol.: 70
Chanel 6 Note Off - Duracao: 883800 Nota: C1 Vol.: 63
Chanel 6 Note On - Duracao: 883800 Nota: C1 Vol.: 61
Chanel 7 Note Off - Duracao: 884100 Nota: C1 Vol.: 70
Chanel 7 Note On - Duracao: 884100 Nota: C1 Vol.: 71
Chanel 6 Note Off - Duracao: 884280 Nota: C1 Vol.: 61
Chanel 6 Note On - Duracao: 884280 Nota: C1 Vol.: 58
Chanel 7 Note Off - Duracao: 884580 Nota: C1 Vol.: 71
Chanel 7 Note On - Duracao: 884580 Nota: C1 Vol.: 73
Chanel 6 Note Off - Duracao: 884760 Nota: C1 Vol.: 58
Chanel 6 Note On - Duracao: 884760 Nota: C1 Vol.: 57
Chanel 7 Note Off - Duracao: 885060 Nota: C1 Vol.: 73
Chanel 7 Note On - Duracao: 885060 Nota: C1 Vol.: 77
Chanel 6 Note Off - Duracao: 885240 Nota: C1 Vol.: 57
Chanel 6 Note On - Duracao: 885240 Nota: C1 Vol.: 63
Chanel 7 Note Off - Duracao: 885540 Nota: C1 Vol.: 77
Chanel 7 Note On - Duracao: 885540 Nota: C1 Vol.: 78
Chanel 6 Note Off - Duracao: 885720 Nota: C1 Vol.: 63
Chanel 6 Note On - Duracao: 885720 Nota: C1 Vol.: 64
Chanel 6 Note Off - Duracao: 885960 Nota: C1 Vol.: 64
Chanel 6 Note On - Duracao: 885960 Nota: C1 Vol.: 40
Chanel 7 Note Off - Duracao: 886500 Nota: C1 Vol.: 78
Chanel 7 Note On - Duracao: 886500 Nota: C1 Vol.: 77
Chanel 7 Note Off - Duracao: 887460 Nota: C1 Vol.: 77
Chanel 7 Note On - Duracao: 887460 Nota: C1 Vol.: 77
Chanel 6 Note Off - Duracao: 887880 Nota: C1 Vol.: 40
Chanel 6 Note On - Duracao: 887880 Nota: C1 Vol.: 40
Chanel 7 Note Off - Duracao: 888420 Nota: C1 Vol.: 77
Chanel 7 Note On - Duracao: 888420 Nota: C1 Vol.: 76
Chanel 7 Note Off - Duracao: 888900 Nota: C1 Vol.: 76
Chanel 7 Note On - Duracao: 888900 Nota: C1 Vol.: 71
Chanel 7 Note Off - Duracao: 889380 Nota: C1 Vol.: 71
Chanel 7 Note On - Duracao: 889380 Nota: C1 Vol.: 51
Chanel 6 Note Off - Duracao: 889800 Nota: C1 Vol.: 40
Chanel 6 Note On - Duracao: 889800 Nota: C1 Vol.: 73
Chanel 6 Note Off - Duracao: 889920 Nota: C1 Vol.: 73
Chanel 6 Note On - Duracao: 889920 Nota: C1 Vol.: 74
Chanel 6 Note Off - Duracao: 889980 Nota: C1 Vol.: 74
Chanel 6 Note On - Duracao: 889980 Nota: C1 Vol.: 52
Chanel 7 Note Off - Duracao: 890340 Nota: C1 Vol.: 51
Chanel 7 Note On - Duracao: 890340 Nota: C1 Vol.: 72
Chanel 6 Note Off - Duracao: 890460 Nota: C1 Vol.: 52
Chanel 6 Note On - Duracao: 890460 Nota: C1 Vol.: 54
Chanel 7 Note Off - Duracao: 890460 Nota: C1 Vol.: 72
Chanel 7 Note On - Duracao: 890460 Nota: C1 Vol.: 57
Chanel 7 Note Off - Duracao: 890700 Nota: C1 Vol.: 57
Chanel 7 Note On - Duracao: 890700 Nota: C1 Vol.: 57
Chanel 6 Note Off - Duracao: 890940 Nota: C1 Vol.: 54
Chanel 6 Note On - Duracao: 890940 Nota: C1 Vol.: 54
Chanel 7 Note Off - Duracao: 890940 Nota: C1 Vol.: 57
Chanel 7 Note On - Duracao: 890940 Nota: C1 Vol.: 41
Chanel 7 Note Off - Duracao: 891420 Nota: C1 Vol.: 41
Chanel 7 Note On - Duracao: 891420 Nota: C1 Vol.: 48
Chanel 6 Note Off - Duracao: 891900 Nota: C1 Vol.: 54
Chanel 6 Note On - Duracao: 891900 Nota: C1 Vol.: 55
Chanel 7 Note Off - Duracao: 891900 Nota: C1 Vol.: 48
Chanel 7 Note On - Duracao: 891900 Nota: C1 Vol.: 46
Chanel 6 Note Off - Duracao: 892380 Nota: C1 Vol.: 55
Chanel 6 Note On - Duracao: 892380 Nota: C1 Vol.: 55
Chanel 7 Note Off - Duracao: 892380 Nota: C1 Vol.: 46
Chanel 7 Note On - Duracao: 892380 Nota: C1 Vol.: 52
Chanel 6 Note Off - Duracao: 892860 Nota: C1 Vol.: 55
Chanel 6 Note On - Duracao: 892860 Nota: C1 Vol.: 68
Chanel 7 Note Off - Duracao: 892860 Nota: C1 Vol.: 52
Chanel 7 Note On - Duracao: 892860 Nota: C1 Vol.: 44
Chanel 6 Note Off - Duracao: 893100 Nota: C1 Vol.: 68
Chanel 6 Note On - Duracao: 893100 Nota: C1 Vol.: 79
Chanel 6 Note Off - Duracao: 893220 Nota: C1 Vol.: 79
Chanel 6 Note On - Duracao: 893220 Nota: C1 Vol.: 81
Chanel 6 Note Off - Duracao: 893340 Nota: C1 Vol.: 81
Chanel 6 Note On - Duracao: 893340 Nota: C1 Vol.: 74
Chanel 7 Note Off - Duracao: 893340 Nota: C1 Vol.: 44
Chanel 7 Note On - Duracao: 893340 Nota: C1 Vol.: 57
Chanel 6 Note Off - Duracao: 893580 Nota: C1 Vol.: 74
Chanel 6 Note On - Duracao: 893580 Nota: C1 Vol.: 58
Chanel 7 Note Off - Duracao: 893580 Nota: C1 Vol.: 57
Chanel 7 Note On - Duracao: 893580 Nota: C1 Vol.: 58
Chanel 7 Note Off - Duracao: 893820 Nota: C1 Vol.: 58
Chanel 7 Note On - Duracao: 893820 Nota: C1 Vol.: 61
Chanel 6 Note Off - Duracao: 894060 Nota: C1 Vol.: 58
Chanel 6 Note On - Duracao: 894060 Nota: C1 Vol.: 63
Chanel 7 Note Off - Duracao: 894060 Nota: C1 Vol.: 61
Chanel 7 Note On - Duracao: 894060 Nota: C1 Vol.: 69
Chanel 6 Note Off - Duracao: 894300 Nota: C1 Vol.: 63
Chanel 6 Note On - Duracao: 894300 Nota: C1 Vol.: 51
Chanel 7 Note Off - Duracao: 894300 Nota: C1 Vol.: 69
Chanel 7 Note On - Duracao: 894300 Nota: C1 Vol.: 70
Chanel 6 Note Off - Duracao: 894780 Nota: C1 Vol.: 51
Chanel 6 Note On - Duracao: 894780 Nota: C1 Vol.: 53
Chanel 7 Note Off - Duracao: 894780 Nota: C1 Vol.: 70
Chanel 7 Note On - Duracao: 894780 Nota: C1 Vol.: 67
Chanel 6 Note Off - Duracao: 895260 Nota: C1 Vol.: 53
Chanel 6 Note On - Duracao: 895260 Nota: C1 Vol.: 54
Chanel 7 Note Off - Duracao: 895260 Nota: C1 Vol.: 67
Chanel 7 Note On - Duracao: 895260 Nota: C1 Vol.: 74
Chanel 7 Note Off - Duracao: 895500 Nota: C1 Vol.: 74
Chanel 7 Note On - Duracao: 895500 Nota: C1 Vol.: 64
Chanel 7 Note Off - Duracao: 895740 Nota: C1 Vol.: 64
Chanel 7 Note On - Duracao: 895740 Nota: C1 Vol.: 54
Chanel 7 Note Off - Duracao: 895980 Nota: C1 Vol.: 54
Chanel 7 Note On - Duracao: 895980 Nota: C1 Vol.: 47
Chanel 6 Note Off - Duracao: 896220 Nota: C1 Vol.: 54
Chanel 6 Note On - Duracao: 896220 Nota: C1 Vol.: 50
Chanel 7 Note Off - Duracao: 896220 Nota: C1 Vol.: 47
Chanel 7 Note On - Duracao: 896220 Nota: C1 Vol.: 44
Chanel 7 Note Off - Duracao: 896700 Nota: C1 Vol.: 44
Chanel 7 Note On - Duracao: 896700 Nota: C1 Vol.: 47
Chanel 6 Note Off - Duracao: 897180 Nota: C1 Vol.: 50
Chanel 6 Note On - Duracao: 897180 Nota: C1 Vol.: 48
Chanel 7 Note Off - Duracao: 897180 Nota: C1 Vol.: 47
Chanel 7 Note On - Duracao: 897180 Nota: C1 Vol.: 49
Chanel 7 Note Off - Duracao: 897660 Nota: C1 Vol.: 49
Chanel 7 Note On - Duracao: 897660 Nota: C1 Vol.: 50
Chanel 6 Note Off - Duracao: 898140 Nota: C1 Vol.: 48
Chanel 6 Note On - Duracao: 898140 Nota: C1 Vol.: 51
Chanel 7 Note Off - Duracao: 898620 Nota: C1 Vol.: 50
Chanel 7 Note On - Duracao: 898620 Nota: C1 Vol.: 52
Chanel 6 Note Off - Duracao: 899100 Nota: C1 Vol.: 51
Chanel 6 Note On - Duracao: 899100 Nota: C1 Vol.: 51
Chanel 7 Note Off - Duracao: 899100 Nota: C1 Vol.: 52
Chanel 7 Note On - Duracao: 899100 Nota: C1 Vol.: 49
Chanel 7 Note Off - Duracao: 899580 Nota: C1 Vol.: 49
Chanel 7 Note On - Duracao: 899580 Nota: C1 Vol.: 56
Chanel 7 Note Off - Duracao: 899820 Nota: C1 Vol.: 56
Chanel 7 Note On - Duracao: 899820 Nota: C1 Vol.: 50
Chanel 6 Note Off - Duracao: 900060 Nota: C1 Vol.: 51
Chanel 6 Note On - Duracao: 900060 Nota: C1 Vol.: 51
Chanel 7 Note Off - Duracao: 900300 Nota: C1 Vol.: 50
Chanel 7 Note On - Duracao: 900300 Nota: C1 Vol.: 60
Chanel 7 Note Off - Duracao: 900540 Nota: C1 Vol.: 60
Chanel 7 Note On - Duracao: 900540 Nota: C1 Vol.: 67
Chanel 7 Note Off - Duracao: 900660 Nota: C1 Vol.: 67
Chanel 7 Note On - Duracao: 900660 Nota: C1 Vol.: 71
Chanel 7 Note Off - Duracao: 900780 Nota: C1 Vol.: 71
Chanel 7 Note On - Duracao: 900780 Nota: C1 Vol.: 68
Chanel 7 Note Off - Duracao: 900900 Nota: C1 Vol.: 68
Chanel 7 Note On - Duracao: 900900 Nota: C1 Vol.: 63
Chanel 6 Note Off - Duracao: 901020 Nota: C1 Vol.: 51
Chanel 6 Note On - Duracao: 901020 Nota: C1 Vol.: 50
Chanel 7 Note Off - Duracao: 901140 Nota: C1 Vol.: 63
Chanel 7 Note On - Duracao: 901140 Nota: C1 Vol.: 64
Chanel 7 Note Off - Duracao: 901380 Nota: C1 Vol.: 64
Chanel 7 Note On - Duracao: 901380 Nota: C1 Vol.: 62
Chanel 7 Note Off - Duracao: 901620 Nota: C1 Vol.: 62
Chanel 7 Note On - Duracao: 901620 Nota: C1 Vol.: 56
Chanel 6 Note Off - Duracao: 901980 Nota: C1 Vol.: 50
Chanel 6 Note On - Duracao: 901980 Nota: C1 Vol.: 50
Chanel 7 Note Off - Duracao: 902100 Nota: C1 Vol.: 56
Chanel 7 Note On - Duracao: 902100 Nota: C1 Vol.: 43
Chanel 6 Note Off - Duracao: 902940 Nota: C1 Vol.: 50
Chanel 6 Note On - Duracao: 902940 Nota: C1 Vol.: 48
Chanel 7 Note Off - Duracao: 903060 Nota: C1 Vol.: 43
Chanel 7 Note On - Duracao: 903060 Nota: C1 Vol.: 49
Chanel 7 Note Off - Duracao: 904020 Nota: C1 Vol.: 49
Chanel 7 Note On - Duracao: 904020 Nota: C1 Vol.: 49
Chanel 6 Note Off - Duracao: 904860 Nota: C1 Vol.: 48
Chanel 6 Note On - Duracao: 904860 Nota: C1 Vol.: 48
Chanel 7 Note Off - Duracao: 904980 Nota: C1 Vol.: 49
Chanel 7 Note On - Duracao: 904980 Nota: C1 Vol.: 47
Chanel 6 Note Off - Duracao: 906780 Nota: C1 Vol.: 48
Chanel 6 Note On - Duracao: 906780 Nota: C1 Vol.: 50
Chanel 7 Note Off - Duracao: 906900 Nota: C1 Vol.: 47
Chanel 7 Note On - Duracao: 906900 Nota: C1 Vol.: 52
Chanel 7 Note Off - Duracao: 907860 Nota: C1 Vol.: 52
Chanel 7 Note On - Duracao: 907860 Nota: C1 Vol.: 58
Chanel 6 Note Off - Duracao: 908700 Nota: C1 Vol.: 50
Chanel 6 Note On - Duracao: 908700 Nota: C1 Vol.: 61
Chanel 7 Note Off - Duracao: 908820 Nota: C1 Vol.: 58
Chanel 7 Note On - Duracao: 908820 Nota: C1 Vol.: 53
Chanel 6 Note Off - Duracao: 910620 Nota: C1 Vol.: 61
Chanel 6 Note On - Duracao: 910620 Nota: C1 Vol.: 57
Chanel 7 Note Off - Duracao: 910740 Nota: C1 Vol.: 53
Chanel 7 Note On - Duracao: 910740 Nota: C1 Vol.: 65
Chanel 7 Note Off - Duracao: 911700 Nota: C1 Vol.: 65
Chanel 7 Note On - Duracao: 911700 Nota: C1 Vol.: 67
Chanel 7 Note Off - Duracao: 912660 Nota: C1 Vol.: 67
Chanel 7 Note On - Duracao: 912660 Nota: C1 Vol.: 63
Chanel 7 Note Off - Duracao: 913620 Nota: C1 Vol.: 63
Chanel 6 Note Off - Duracao: 914460 Nota: C1 Vol.: 57
Chanel 6 Note On - Duracao: 914460 Nota: C1 Vol.: 61
Chanel 6 Note Off - Duracao: 918300 Nota: C1 Vol.: 61
Chanel 6 Note On - Duracao: 918300 Nota: C1 Vol.: 63
Chanel 6 Note Off - Duracao: 922140 Nota: C1 Vol.: 63
Chanel 6 Note On - Duracao: 922140 Nota: C1 Vol.: 60
Chanel 6 Note Off - Duracao: 925980 Nota: C1 Vol.: 60
Chanel 6 Note On - Duracao: 925980 Nota: C1 Vol.: 60
Chanel 6 Note Off - Duracao: 929820 Nota: C1 Vol.: 60
Chanel 6 Note On - Duracao: 929820 Nota: C1 Vol.: 62
Chanel 6 Note Off - Duracao: 933660 Nota: C1 Vol.: 62
Chanel 6 Note On - Duracao: 933660 Nota: C1 Vol.: 64
Chanel 6 Note Off - Duracao: 937500 Nota: C1 Vol.: 64
Chanel 6 Note On - Duracao: 937500 Nota: C1 Vol.: 63
Chanel 6 Note Off - Duracao: 941340 Nota: C1 Vol.: 63
Chanel 6 Note On - Duracao: 941340 Nota: C1 Vol.: 64
Chanel 6 Note Off - Duracao: 945180 Nota: C1 Vol.: 64
Chanel 6 Note On - Duracao: 945180 Nota: C1 Vol.: 65
Chanel 6 Note Off - Duracao: 949020 Nota: C1 Vol.: 65
Chanel 6 Note On - Duracao: 949020 Nota: C1 Vol.: 65
Chanel 6 Note Off - Duracao: 952860 Nota: C1 Vol.: 65
Chanel 6 Note On - Duracao: 952860 Nota: C1 Vol.: 67
Chanel 6 Note Off - Duracao: 954780 Nota: C1 Vol.: 67
Chanel 6 Note On - Duracao: 954780 Nota: C1 Vol.: 70
Chanel 6 Note Off - Duracao: 956700 Nota: C1 Vol.: 70
Chanel 6 Note On - Duracao: 956700 Nota: C1 Vol.: 72
Chanel 6 Note Off - Duracao: 958620 Nota: C1 Vol.: 72
Chanel 6 Note On - Duracao: 958620 Nota: C1 Vol.: 75
Chanel 6 Note Off - Duracao: 960540 Nota: C1 Vol.: 75
Chanel 6 Note On - Duracao: 960540 Nota: C1 Vol.: 74
Chanel 6 Note Off - Duracao: 962460 Nota: C1 Vol.: 74
Chanel 6 Note On - Duracao: 962460 Nota: C1 Vol.: 71
Chanel 6 Note Off - Duracao: 964380 Nota: C1 Vol.: 71
Chanel 6 Note On - Duracao: 964380 Nota: C1 Vol.: 70
Chanel 6 Note Off - Duracao: 966300 Nota: C1 Vol.: 70
Chanel 6 Note On - Duracao: 966300 Nota: C1 Vol.: 72
Chanel 6 Note Off - Duracao: 968220 Nota: C1 Vol.: 72
Chanel 6 Note On - Duracao: 968220 Nota: C1 Vol.: 72
Chanel 6 Note Off - Duracao: 970140 Nota: C1 Vol.: 72
Chanel 6 Note On - Duracao: 970140 Nota: C1 Vol.: 71
Chanel 6 Note Off - Duracao: 972060 Nota: C1 Vol.: 71
Chanel 6 Note On - Duracao: 972060 Nota: C1 Vol.: 72
Chanel 6 Note Off - Duracao: 973980 Nota: C1 Vol.: 72
Chanel 6 Note On - Duracao: 973980 Nota: C1 Vol.: 72
Chanel 6 Note Off - Duracao: 975900 Nota: C1 Vol.: 72
Chanel 6 Note On - Duracao: 975900 Nota: C1 Vol.: 73
Chanel 6 Note Off - Duracao: 977820 Nota: C1 Vol.: 73
Chanel 6 Note On - Duracao: 977820 Nota: C1 Vol.: 71
Chanel 6 Note Off - Duracao: 979740 Nota: C1 Vol.: 71
Chanel 6 Note On - Duracao: 979740 Nota: C1 Vol.: 70
Chanel 6 Note Off - Duracao: 981660 Nota: C1 Vol.: 70
Chanel 6 Note On - Duracao: 981660 Nota: C1 Vol.: 71
Chanel 6 Note Off - Duracao: 983580 Nota: C1 Vol.: 71
Chanel 6 Note On - Duracao: 983580 Nota: C1 Vol.: 71
Chanel 6 Note Off - Duracao: 985500 Nota: C1 Vol.: 71
Chanel 6 Note On - Duracao: 985500 Nota: C1 Vol.: 70
Chanel 6 Note Off - Duracao: 987420 Nota: C1 Vol.: 70
Chanel 6 Note On - Duracao: 987420 Nota: C1 Vol.: 64
Chanel 6 Note Off - Duracao: 991260 Nota: C1 Vol.: 64
Chanel 6 Note On - Duracao: 991260 Nota: C1 Vol.: 58
Chanel 6 Note Off - Duracao: 995100 Nota: C1 Vol.: 58
Chanel 6 Note On - Duracao: 995100 Nota: C1 Vol.: 61
Chanel 6 Note Off - Duracao: 998940 Nota: C1 Vol.: 61
Chanel 6 Note On - Duracao: 998940 Nota: C1 Vol.: 56
Chanel 6 Note Off - Duracao: 1002780 Nota: C1 Vol.: 56
Chanel 6 Note On - Duracao: 1002780 Nota: C1 Vol.: 54
Chanel 6 Note Off - Duracao: 1006620 Nota: C1 Vol.: 54
Chanel 6 Note On - Duracao: 1006620 Nota: C1 Vol.: 50
Chanel 6 Note Off - Duracao: 1010460 Nota: C1 Vol.: 50
Chanel 6 Note On - Duracao: 1010460 Nota: C1 Vol.: 44
Chanel 6 Note Off - Duracao: 1014300 Nota: C1 Vol.: 44
Chanel 6 Note On - Duracao: 1014300 Nota: C1 Vol.: 67
Chanel 6 Note Off - Duracao: 1014780 Nota: C1 Vol.: 67
Chanel 6 Note On - Duracao: 1014780 Nota: C1 Vol.: 55
Chanel 6 Note Off - Duracao: 1015740 Nota: C1 Vol.: 55
Chanel 6 Note On - Duracao: 1015740 Nota: C1 Vol.: 52
Chanel 6 Note Off - Duracao: 1016700 Nota: C1 Vol.: 52
Chanel 6 Note On - Duracao: 1016700 Nota: C1 Vol.: 51
Chanel 6 Note Off - Duracao: 1017660 Nota: C1 Vol.: 51
Chanel 6 Note On - Duracao: 1017660 Nota: C1 Vol.: 51
Chanel 6 Note Off - Duracao: 1018620 Nota: C1 Vol.: 51
Chanel 6 Note On - Duracao: 1018620 Nota: C1 Vol.: 51
Chanel 6 Note Off - Duracao: 1019580 Nota: C1 Vol.: 51
Chanel 6 Note On - Duracao: 1019580 Nota: C1 Vol.: 49
Chanel 6 Note Off - Duracao: 1020540 Nota: C1 Vol.: 49
Chanel 6 Note On - Duracao: 1020540 Nota: C1 Vol.: 51
Chanel 6 Note Off - Duracao: 1021500 Nota: C1 Vol.: 51
Chanel 6 Note On - Duracao: 1021500 Nota: C1 Vol.: 56
Chanel 6 Note Off - Duracao: 1021980 Nota: C1 Vol.: 56
Chanel 6 Note On - Duracao: 1021980 Nota: C1 Vol.: 65
Chanel 6 Note Off - Duracao: 1022220 Nota: C1 Vol.: 65
Chanel 6 Note On - Duracao: 1022220 Nota: C1 Vol.: 62
Chanel 6 Note Off - Duracao: 1023180 Nota: C1 Vol.: 62
Chanel 6 Note On - Duracao: 1023180 Nota: C1 Vol.: 72
Chanel 6 Note Off - Duracao: 1023420 Nota: C1 Vol.: 72
Chanel 6 Note On - Duracao: 1023420 Nota: C1 Vol.: 65
Chanel 6 Note Off - Duracao: 1023900 Nota: C1 Vol.: 65
Chanel 6 Note On - Duracao: 1023900 Nota: C1 Vol.: 59
Chanel 6 Note Off - Duracao: 1024860 Nota: C1 Vol.: 59
Chanel 6 Note On - Duracao: 1024860 Nota: C1 Vol.: 57
Chanel 6 Note Off - Duracao: 1025820 Nota: C1 Vol.: 57
Chanel 6 Note On - Duracao: 1025820 Nota: C1 Vol.: 61
Chanel 6 Note Off - Duracao: 1026300 Nota: C1 Vol.: 61
Chanel 6 Note On - Duracao: 1026300 Nota: C1 Vol.: 95
Chanel 6 Note Off - Duracao: 1026360 Nota: C1 Vol.: 95
Chanel 6 Note On - Duracao: 1026360 Nota: C1 Vol.: 84
Chanel 6 Note Off - Duracao: 1026600 Nota: C1 Vol.: 84
Chanel 6 Note On - Duracao: 1026600 Nota: C1 Vol.: 74
Chanel 6 Note Off - Duracao: 1026840 Nota: C1 Vol.: 74
Chanel 6 Note On - Duracao: 1026840 Nota: C1 Vol.: 80
Chanel 6 Note Off - Duracao: 1027080 Nota: C1 Vol.: 80
Chanel 6 Note On - Duracao: 1027080 Nota: C1 Vol.: 86
Chanel 6 Note Off - Duracao: 1027200 Nota: C1 Vol.: 86
Chanel 6 Note On - Duracao: 1027200 Nota: C1 Vol.: 70
Chanel 6 Note Off - Duracao: 1027680 Nota: C1 Vol.: 70
Chanel 6 Note On - Duracao: 1027680 Nota: C1 Vol.: 87
Chanel 6 Note Off - Duracao: 1027800 Nota: C1 Vol.: 87
Chanel 6 Note On - Duracao: 1027800 Nota: C1 Vol.: 73
Chanel 6 Note Off - Duracao: 1028040 Nota: C1 Vol.: 73
Chanel 6 Note On - Duracao: 1028040 Nota: C1 Vol.: 94
Chanel 6 Note Off - Duracao: 1028100 Nota: C1 Vol.: 94
Chanel 6 Note On - Duracao: 1028100 Nota: C1 Vol.: 92
Chanel 6 Note Off - Duracao: 1028220 Nota: C1 Vol.: 92
Chanel 6 Note On - Duracao: 1028220 Nota: C1 Vol.: 91
Chanel 6 Note Off - Duracao: 1028340 Nota: C1 Vol.: 91
Chanel 6 Note On - Duracao: 1028340 Nota: C1 Vol.: 90
Chanel 6 Note Off - Duracao: 1028400 Nota: C1 Vol.: 90
Chanel 6 Note On - Duracao: 1028400 Nota: C1 Vol.: 57
Chanel 6 Note Off - Duracao: 1028880 Nota: C1 Vol.: 57
Chanel 6 Note On - Duracao: 1028880 Nota: C1 Vol.: 51
Chanel 6 Note Off - Duracao: 1029840 Nota: C1 Vol.: 51
Chanel 6 Note On - Duracao: 1029840 Nota: C1 Vol.: 66
Chanel 6 Note Off - Duracao: 1030320 Nota: C1 Vol.: 66
Chanel 6 Note On - Duracao: 1030320 Nota: C1 Vol.: 73
Chanel 6 Note Off - Duracao: 1030560 Nota: C1 Vol.: 73
Chanel 6 Note On - Duracao: 1030560 Nota: C1 Vol.: 77
Chanel 6 Note Off - Duracao: 1030800 Nota: C1 Vol.: 77
Chanel 6 Note On - Duracao: 1030800 Nota: C1 Vol.: 78
Chanel 6 Note Off - Duracao: 1030920 Nota: C1 Vol.: 78
Chanel 6 Note On - Duracao: 1030920 Nota: C1 Vol.: 52
Chanel 6 Note Off - Duracao: 1031880 Nota: C1 Vol.: 52
Chanel 6 Note On - Duracao: 1031880 Nota: C1 Vol.: 69
Chanel 6 Note Off - Duracao: 1032120 Nota: C1 Vol.: 69
Chanel 6 Note On - Duracao: 1032120 Nota: C1 Vol.: 58
Chanel 6 Note Off - Duracao: 1032600 Nota: C1 Vol.: 58
Chanel 6 Note On - Duracao: 1032600 Nota: C1 Vol.: 69
Chanel 6 Note Off - Duracao: 1032840 Nota: C1 Vol.: 69
Chanel 6 Note On - Duracao: 1032840 Nota: C1 Vol.: 61
Chanel 6 Note Off - Duracao: 1033080 Nota: C1 Vol.: 61
Chanel 6 Note On - Duracao: 1033080 Nota: C1 Vol.: 60
Chanel 6 Note Off - Duracao: 1033320 Nota: C1 Vol.: 60
Chanel 6 Note On - Duracao: 1033320 Nota: C1 Vol.: 70
Chanel 6 Note Off - Duracao: 1033560 Nota: C1 Vol.: 70
Chanel 6 Note On - Duracao: 1033560 Nota: C1 Vol.: 48
Chanel 6 Note Off - Duracao: 1034520 Nota: C1 Vol.: 48
Chanel 6 Note On - Duracao: 1034520 Nota: C1 Vol.: 52
Chanel 6 Note Off - Duracao: 1035480 Nota: C1 Vol.: 52
Chanel 6 Note On - Duracao: 1035480 Nota: C1 Vol.: 60
Chanel 6 Note Off - Duracao: 1035960 Nota: C1 Vol.: 60
Chanel 6 Note On - Duracao: 1035960 Nota: C1 Vol.: 92
Chanel 6 Note Off - Duracao: 1036020 Nota: C1 Vol.: 92
Chanel 6 Note On - Duracao: 1036020 Nota: C1 Vol.: 91
Chanel 6 Note Off - Duracao: 1036140 Nota: C1 Vol.: 91
Chanel 6 Note On - Duracao: 1036140 Nota: C1 Vol.: 92
Chanel 6 Note Off - Duracao: 1036260 Nota: C1 Vol.: 92
Chanel 6 Note On - Duracao: 1036260 Nota: C1 Vol.: 87
Chanel 6 Note Off - Duracao: 1036380 Nota: C1 Vol.: 87
Chanel 6 Note On - Duracao: 1036380 Nota: C1 Vol.: 76
Chanel 6 Note Off - Duracao: 1036500 Nota: C1 Vol.: 76
Chanel 6 Note On - Duracao: 1036500 Nota: C1 Vol.: 65
Chanel 6 Note Off - Duracao: 1036740 Nota: C1 Vol.: 65
Chanel 6 Note On - Duracao: 1036740 Nota: C1 Vol.: 47
Chanel 6 Note Off - Duracao: 1037700 Nota: C1 Vol.: 47
Chanel 6 Note On - Duracao: 1037700 Nota: C1 Vol.: 52
Chanel 6 Note Off - Duracao: 1038180 Nota: C1 Vol.: 52
Chanel 6 Note On - Duracao: 1038180 Nota: C1 Vol.: 56
Chanel 6 Note Off - Duracao: 1038660 Nota: C1 Vol.: 56
Chanel 6 Note On - Duracao: 1038660 Nota: C1 Vol.: 55
Chanel 6 Note Off - Duracao: 1039140 Nota: C1 Vol.: 55
Chanel 6 Note On - Duracao: 1039140 Nota: C1 Vol.: 50
Chanel 6 Note Off - Duracao: 1040100 Nota: C1 Vol.: 50
Chanel 6 Note On - Duracao: 1040100 Nota: C1 Vol.: 48
Chanel 6 Note Off - Duracao: 1041060 Nota: C1 Vol.: 48
Chanel 6 Note On - Duracao: 1041060 Nota: C1 Vol.: 51
Chanel 6 Note Off - Duracao: 1042020 Nota: C1 Vol.: 51
Chanel 6 Note On - Duracao: 1042020 Nota: C1 Vol.: 51
Chanel 6 Note Off - Duracao: 1042980 Nota: C1 Vol.: 51
Chanel 6 Note On - Duracao: 1042980 Nota: C1 Vol.: 49
Chanel 6 Note Off - Duracao: 1043940 Nota: C1 Vol.: 49
Chanel 6 Note On - Duracao: 1043940 Nota: C1 Vol.: 45
Chanel 6 Note Off - Duracao: 1044900 Nota: C1 Vol.: 45
Chanel 6 Note On - Duracao: 1044900 Nota: C1 Vol.: 45
Chanel 6 Note Off - Duracao: 1045860 Nota: C1 Vol.: 45
Chanel 6 Note On - Duracao: 1045860 Nota: C1 Vol.: 44
Chanel 6 Note Off - Duracao: 1047780 Nota: C1 Vol.: 44
Chanel 6 Note On - Duracao: 1047780 Nota: C1 Vol.: 44
Chanel 6 Note Off - Duracao: 1049700 Nota: C1 Vol.: 44
Chanel 6 Note On - Duracao: 1049700 Nota: C1 Vol.: 46
Chanel 6 Note Off - Duracao: 1053540 Nota: C1 Vol.: 46
Chanel 6 Note On - Duracao: 1053540 Nota: C1 Vol.: 54
Chanel 6 Note Off - Duracao: 1057380 Nota: C1 Vol.: 54
Chanel 6 Note On - Duracao: 1057380 Nota: C1 Vol.: 56
Chanel 6 Note Off - Duracao: 1061220 Nota: C1 Vol.: 56
Chanel 6 Note On - Duracao: 1061220 Nota: C1 Vol.: 57
Chanel 6 Note Off - Duracao: 1065060 Nota: C1 Vol.: 57
Chanel 6 Note On - Duracao: 1065060 Nota: C1 Vol.: 60
Chanel 6 Note Off - Duracao: 1068900 Nota: C1 Vol.: 60
Chanel 6 Note On - Duracao: 1068900 Nota: C1 Vol.: 61
Chanel 6 Note Off - Duracao: 1072740 Nota: C1 Vol.: 61
Chanel 6 Note On - Duracao: 1072740 Nota: C1 Vol.: 61
Chanel 6 Note Off - Duracao: 1076580 Nota: C1 Vol.: 61
Chanel 6 Note On - Duracao: 1076580 Nota: C1 Vol.: 63
Chanel 6 Note Off - Duracao: 1080420 Nota: C1 Vol.: 63
Chanel 6 Note On - Duracao: 1080420 Nota: C1 Vol.: 64
Chanel 6 Note Off - Duracao: 1084260 Nota: C1 Vol.: 64
Chanel 6 Note On - Duracao: 1084260 Nota: C1 Vol.: 64
Chanel 6 Note Off - Duracao: 1088100 Nota: C1 Vol.: 64
Chanel 6 Note On - Duracao: 1088100 Nota: C1 Vol.: 62
Chanel 6 Note Off - Duracao: 1091940 Nota: C1 Vol.: 62
Chanel 6 Note On - Duracao: 1091940 Nota: C1 Vol.: 62
Chanel 6 Note Off - Duracao: 1095780 Nota: C1 Vol.: 62
Chanel 6 Note On - Duracao: 1095780 Nota: C1 Vol.: 62
Chanel 6 Note Off - Duracao: 1099620 Nota: C1 Vol.: 62
Chanel 6 Note On - Duracao: 1099620 Nota: C1 Vol.: 63
Chanel 6 Note Off - Duracao: 1103460 Nota: C1 Vol.: 63
Chanel 6 Note On - Duracao: 1103460 Nota: C1 Vol.: 65
Chanel 6 Note Off - Duracao: 1107300 Nota: C1 Vol.: 65
Chanel 6 Note On - Duracao: 1107300 Nota: C1 Vol.: 68
Chanel 6 Note Off - Duracao: 1111140 Nota: C1 Vol.: 68
Chanel 6 Note On - Duracao: 1111140 Nota: C1 Vol.: 70
Chanel 6 Note Off - Duracao: 1113060 Nota: C1 Vol.: 70
Chanel 6 Note On - Duracao: 1113060 Nota: C1 Vol.: 71
Chanel 6 Note Off - Duracao: 1114980 Nota: C1 Vol.: 71
Chanel 6 Note On - Duracao: 1114980 Nota: C1 Vol.: 71
Chanel 6 Note Off - Duracao: 1116900 Nota: C1 Vol.: 71
Chanel 6 Note On - Duracao: 1116900 Nota: C1 Vol.: 71
Chanel 6 Note Off - Duracao: 1118820 Nota: C1 Vol.: 71
Chanel 6 Note On - Duracao: 1118820 Nota: C1 Vol.: 73
Chanel 6 Note Off - Duracao: 1120740 Nota: C1 Vol.: 73
Chanel 6 Note On - Duracao: 1120740 Nota: C1 Vol.: 72
Chanel 6 Note Off - Duracao: 1122660 Nota: C1 Vol.: 72
Chanel 6 Note On - Duracao: 1122660 Nota: C1 Vol.: 73
Chanel 6 Note Off - Duracao: 1124580 Nota: C1 Vol.: 73
Chanel 6 Note On - Duracao: 1124580 Nota: C1 Vol.: 72
Chanel 6 Note Off - Duracao: 1126500 Nota: C1 Vol.: 72
Chanel 6 Note On - Duracao: 1126500 Nota: C1 Vol.: 72
Chanel 6 Note Off - Duracao: 1128420 Nota: C1 Vol.: 72
Chanel 6 Note On - Duracao: 1128420 Nota: C1 Vol.: 71
Chanel 6 Note Off - Duracao: 1130340 Nota: C1 Vol.: 71
Chanel 6 Note On - Duracao: 1130340 Nota: C1 Vol.: 71
Chanel 6 Note Off - Duracao: 1132260 Nota: C1 Vol.: 71
Chanel 6 Note On - Duracao: 1132260 Nota: C1 Vol.: 69
Chanel 6 Note Off - Duracao: 1134180 Nota: C1 Vol.: 69
Chanel 6 Note On - Duracao: 1134180 Nota: C1 Vol.: 65
Chanel 6 Note Off - Duracao: 1138020 Nota: C1 Vol.: 65
Chanel 6 Note On - Duracao: 1138020 Nota: C1 Vol.: 60
Chanel 6 Note Off - Duracao: 1141860 Nota: C1 Vol.: 60
Chanel 6 Note On - Duracao: 1141860 Nota: C1 Vol.: 60
Chanel 6 Note Off - Duracao: 1145700 Nota: C1 Vol.: 60
Chanel 6 Note On - Duracao: 1145700 Nota: C1 Vol.: 58
Chanel 6 Note Off - Duracao: 1149540 Nota: C1 Vol.: 58
Chanel 6 Note On - Duracao: 1149540 Nota: C1 Vol.: 57
Chanel 6 Note Off - Duracao: 1153380 Nota: C1 Vol.: 57
Chanel 6 Note On - Duracao: 1153380 Nota: C1 Vol.: 57
Chanel 6 Note Off - Duracao: 1157220 Nota: C1 Vol.: 57
Chanel 6 Note On - Duracao: 1157220 Nota: C1 Vol.: 53
Chanel 6 Note Off - Duracao: 1161060 Nota: C1 Vol.: 53
Chanel 6 Note On - Duracao: 1161060 Nota: C1 Vol.: 57
Chanel 6 Note Off - Duracao: 1162980 Nota: C1 Vol.: 57
Chanel 6 Note On - Duracao: 1162980 Nota: C1 Vol.: 55
Chanel 6 Note Off - Duracao: 1164900 Nota: C1 Vol.: 55
Chanel 6 Note On - Duracao: 1164900 Nota: C1 Vol.: 53
Chanel 6 Note Off - Duracao: 1165860 Nota: C1 Vol.: 53
Chanel 6 Note On - Duracao: 1165860 Nota: C1 Vol.: 58
Chanel 6 Note Off - Duracao: 1166340 Nota: C1 Vol.: 58
Chanel 6 Note On - Duracao: 1166340 Nota: C1 Vol.: 55
Chanel 6 Note Off - Duracao: 1166820 Nota: C1 Vol.: 55
Chanel 6 Note On - Duracao: 1166820 Nota: C1 Vol.: 60
Chanel 6 Note Off - Duracao: 1167300 Nota: C1 Vol.: 60
Chanel 6 Note On - Duracao: 1167300 Nota: C1 Vol.: 66
Chanel 6 Note Off - Duracao: 1167540 Nota: C1 Vol.: 66
Chanel 6 Note On - Duracao: 1167540 Nota: C1 Vol.: 67
Chanel 6 Note Off - Duracao: 1167780 Nota: C1 Vol.: 67
Chanel 6 Note On - Duracao: 1167780 Nota: C1 Vol.: 62
Chanel 6 Note Off - Duracao: 1168020 Nota: C1 Vol.: 62
Chanel 6 Note On - Duracao: 1168020 Nota: C1 Vol.: 49
Chanel 6 Note Off - Duracao: 1168980 Nota: C1 Vol.: 49
Chanel 6 Note On - Duracao: 1168980 Nota: C1 Vol.: 72
Chanel 6 Note Off - Duracao: 1169100 Nota: C1 Vol.: 72
Chanel 6 Note On - Duracao: 1169100 Nota: C1 Vol.: 73
Chanel 6 Note Off - Duracao: 1169220 Nota: C1 Vol.: 73
Chanel 6 Note On - Duracao: 1169220 Nota: C1 Vol.: 52
Chanel 6 Note Off - Duracao: 1170180 Nota: C1 Vol.: 52
Chanel 6 Note On - Duracao: 1170180 Nota: C1 Vol.: 54
Chanel 6 Note Off - Duracao: 1171140 Nota: C1 Vol.: 54
Chanel 6 Note On - Duracao: 1171140 Nota: C1 Vol.: 54
Chanel 6 Note Off - Duracao: 1172100 Nota: C1 Vol.: 54
Chanel 6 Note On - Duracao: 1172100 Nota: C1 Vol.: 53
Chanel 6 Note Off - Duracao: 1173060 Nota: C1 Vol.: 53
Chanel 6 Note On - Duracao: 1173060 Nota: C1 Vol.: 59
Chanel 6 Note Off - Duracao: 1173540 Nota: C1 Vol.: 59
Chanel 6 Note On - Duracao: 1173540 Nota: C1 Vol.: 88
Chanel 6 Note Off - Duracao: 1173660 Nota: C1 Vol.: 88
Chanel 6 Note On - Duracao: 1173660 Nota: C1 Vol.: 85
Chanel 6 Note Off - Duracao: 1173780 Nota: C1 Vol.: 85
Chanel 6 Note On - Duracao: 1173780 Nota: C1 Vol.: 83
Chanel 6 Note Off - Duracao: 1174020 Nota: C1 Vol.: 83
Chanel 6 Note On - Duracao: 1174020 Nota: C1 Vol.: 75
Chanel 6 Note Off - Duracao: 1174260 Nota: C1 Vol.: 75
Chanel 6 Note On - Duracao: 1174260 Nota: C1 Vol.: 80
Chanel 6 Note Off - Duracao: 1174500 Nota: C1 Vol.: 80
Chanel 6 Note On - Duracao: 1174500 Nota: C1 Vol.: 81
Chanel 6 Note Off - Duracao: 1174740 Nota: C1 Vol.: 81
Chanel 6 Note On - Duracao: 1174740 Nota: C1 Vol.: 93
Chanel 6 Note Off - Duracao: 1174860 Nota: C1 Vol.: 93
Chanel 6 Note On - Duracao: 1174860 Nota: C1 Vol.: 68
Chanel 6 Note Off - Duracao: 1175340 Nota: C1 Vol.: 68
Chanel 6 Note On - Duracao: 1175340 Nota: C1 Vol.: 69
Chanel 6 Note Off - Duracao: 1175820 Nota: C1 Vol.: 69
Chanel 6 Note On - Duracao: 1175820 Nota: C1 Vol.: 83
Chanel 6 Note Off - Duracao: 1175940 Nota: C1 Vol.: 83
Chanel 6 Note On - Duracao: 1175940 Nota: C1 Vol.: 73
Chanel 6 Note Off - Duracao: 1176180 Nota: C1 Vol.: 73
Chanel 6 Note On - Duracao: 1176180 Nota: C1 Vol.: 74
Chanel 6 Note Off - Duracao: 1176420 Nota: C1 Vol.: 74
Chanel 6 Note On - Duracao: 1176420 Nota: C1 Vol.: 95
Chanel 6 Note Off - Duracao: 1176480 Nota: C1 Vol.: 95
Chanel 6 Note On - Duracao: 1176480 Nota: C1 Vol.: 68
Chanel 6 Note Off - Duracao: 1176960 Nota: C1 Vol.: 68
Chanel 6 Note On - Duracao: 1176960 Nota: C1 Vol.: 56
Chanel 6 Note Off - Duracao: 1177920 Nota: C1 Vol.: 56
Chanel 6 Note On - Duracao: 1177920 Nota: C1 Vol.: 57
Chanel 6 Note Off - Duracao: 1178880 Nota: C1 Vol.: 57
Chanel 6 Note On - Duracao: 1178880 Nota: C1 Vol.: 67
Chanel 6 Note Off - Duracao: 1179360 Nota: C1 Vol.: 67
Chanel 6 Note On - Duracao: 1179360 Nota: C1 Vol.: 78
Chanel 6 Note Off - Duracao: 1179600 Nota: C1 Vol.: 78
Chanel 6 Note On - Duracao: 1179600 Nota: C1 Vol.: 73
Chanel 6 Note Off - Duracao: 1179840 Nota: C1 Vol.: 73
Chanel 6 Note On - Duracao: 1179840 Nota: C1 Vol.: 57
Chanel 6 Note Off - Duracao: 1180800 Nota: C1 Vol.: 57
Chanel 6 Note On - Duracao: 1180800 Nota: C1 Vol.: 95
Chanel 6 Note Off - Duracao: 1180860 Nota: C1 Vol.: 95
Chanel 6 Note On - Duracao: 1180860 Nota: C1 Vol.: 78
Chanel 6 Note Off - Duracao: 1181100 Nota: C1 Vol.: 78
Chanel 6 Note On - Duracao: 1181100 Nota: C1 Vol.: 61
Chanel 6 Note Off - Duracao: 1181580 Nota: C1 Vol.: 61
Chanel 6 Note On - Duracao: 1181580 Nota: C1 Vol.: 50
Chanel 6 Note Off - Duracao: 1182540 Nota: C1 Vol.: 50
Chanel 6 Note On - Duracao: 1182540 Nota: C1 Vol.: 67
Chanel 6 Note Off - Duracao: 1182780 Nota: C1 Vol.: 67
Chanel 6 Note On - Duracao: 1182780 Nota: C1 Vol.: 71
Chanel 6 Note Off - Duracao: 1183020 Nota: C1 Vol.: 71
Chanel 6 Note On - Duracao: 1183020 Nota: C1 Vol.: 68
Chanel 6 Note Off - Duracao: 1183260 Nota: C1 Vol.: 68
Chanel 6 Note On - Duracao: 1183260 Nota: C1 Vol.: 73
Chanel 6 Note Off - Duracao: 1183500 Nota: C1 Vol.: 73
Chanel 6 Note On - Duracao: 1183500 Nota: C1 Vol.: 80
Chanel 6 Note Off - Duracao: 1183740 Nota: C1 Vol.: 80
Chanel 6 Note On - Duracao: 1183740 Nota: C1 Vol.: 77
Chanel 6 Note Off - Duracao: 1183980 Nota: C1 Vol.: 77
Chanel 6 Note On - Duracao: 1183980 Nota: C1 Vol.: 77
Chanel 6 Note Off - Duracao: 1184220 Nota: C1 Vol.: 77
Chanel 6 Note On - Duracao: 1184220 Nota: C1 Vol.: 92
Chanel 6 Note Off - Duracao: 1184340 Nota: C1 Vol.: 92
Chanel 6 Note On - Duracao: 1184340 Nota: C1 Vol.: 62
Chanel 6 Note Off - Duracao: 1184820 Nota: C1 Vol.: 62
Chanel 6 Note On - Duracao: 1184820 Nota: C1 Vol.: 58
Chanel 6 Note Off - Duracao: 1185300 Nota: C1 Vol.: 58
Chanel 6 Note On - Duracao: 1185300 Nota: C1 Vol.: 61
Chanel 6 Note Off - Duracao: 1185540 Nota: C1 Vol.: 61
Chanel 6 Note On - Duracao: 1185540 Nota: C1 Vol.: 57
Chanel 6 Note Off - Duracao: 1186020 Nota: C1 Vol.: 57
Chanel 6 Note On - Duracao: 1186020 Nota: C1 Vol.: 48
Chanel 6 Note Off - Duracao: 1186980 Nota: C1 Vol.: 48
Chanel 6 Note On - Duracao: 1186980 Nota: C1 Vol.: 55
Chanel 6 Note Off - Duracao: 1187460 Nota: C1 Vol.: 55
Chanel 6 Note On - Duracao: 1187460 Nota: C1 Vol.: 51
Chanel 6 Note Off - Duracao: 1188420 Nota: C1 Vol.: 51
Chanel 6 Note On - Duracao: 1188420 Nota: C1 Vol.: 52
Chanel 6 Note Off - Duracao: 1189380 Nota: C1 Vol.: 52
Chanel 6 Note On - Duracao: 1189380 Nota: C1 Vol.: 51
Chanel 6 Note Off - Duracao: 1190340 Nota: C1 Vol.: 51
Chanel 6 Note On - Duracao: 1190340 Nota: C1 Vol.: 50
Chanel 6 Note Off - Duracao: 1191300 Nota: C1 Vol.: 50
Chanel 6 Note On - Duracao: 1191300 Nota: C1 Vol.: 47
Chanel 6 Note Off - Duracao: 1192260 Nota: C1 Vol.: 47
Chanel 6 Note On - Duracao: 1192260 Nota: C1 Vol.: 51
Chanel 6 Note Off - Duracao: 1192740 Nota: C1 Vol.: 51
Chanel 6 Note On - Duracao: 1192740 Nota: C1 Vol.: 56
Chanel 6 Note Off - Duracao: 1193220 Nota: C1 Vol.: 56
Chanel 6 Note On - Duracao: 1193220 Nota: C1 Vol.: 54
Chanel 6 Note Off - Duracao: 1193700 Nota: C1 Vol.: 54
Chanel 6 Note On - Duracao: 1193700 Nota: C1 Vol.: 56
Chanel 6 Note Off - Duracao: 1194180 Nota: C1 Vol.: 56
Chanel 6 Note On - Duracao: 1194180 Nota: C1 Vol.: 55
Chanel 6 Note Off - Duracao: 1194660 Nota: C1 Vol.: 55
Chanel 6 Note On - Duracao: 1194660 Nota: C1 Vol.: 48
Chanel 6 Note Off - Duracao: 1195620 Nota: C1 Vol.: 48
Chanel 6 Note On - Duracao: 1195620 Nota: C1 Vol.: 41
Chanel 6 Note Off - Duracao: 1199460 Nota: C1 Vol.: 41
Chanel 6 Note On - Duracao: 1199460 Nota: C1 Vol.: 44
Chanel 6 Note Off - Duracao: 1203300 Nota: C1 Vol.: 44
Chanel 6 Note On - Duracao: 1203300 Nota: C1 Vol.: 50
Chanel 6 Note Off - Duracao: 1207140 Nota: C1 Vol.: 50
Chanel 6 Note On - Duracao: 1207140 Nota: C1 Vol.: 55
Chanel 6 Note Off - Duracao: 1210980 Nota: C1 Vol.: 55
Chanel 6 Note On - Duracao: 1210980 Nota: C1 Vol.: 58
Chanel 6 Note Off - Duracao: 1214820 Nota: C1 Vol.: 58
Chanel 6 Note On - Duracao: 1214820 Nota: C1 Vol.: 61
Chanel 6 Note Off - Duracao: 1218660 Nota: C1 Vol.: 61
Chanel 6 Note On - Duracao: 1218660 Nota: C1 Vol.: 62
Chanel 6 Note Off - Duracao: 1222500 Nota: C1 Vol.: 62
Chanel 6 Note On - Duracao: 1222500 Nota: C1 Vol.: 63
Chanel 6 Note Off - Duracao: 1226340 Nota: C1 Vol.: 63
Chanel 6 Note On - Duracao: 1226340 Nota: C1 Vol.: 63
Chanel 6 Note Off - Duracao: 1230180 Nota: C1 Vol.: 63
Chanel 6 Note On - Duracao: 1230180 Nota: C1 Vol.: 62
Chanel 6 Note Off - Duracao: 1234020 Nota: C1 Vol.: 62
Chanel 6 Note On - Duracao: 1234020 Nota: C1 Vol.: 63
Chanel 6 Note Off - Duracao: 1237860 Nota: C1 Vol.: 63
Chanel 6 Note On - Duracao: 1237860 Nota: C1 Vol.: 62
Chanel 6 Note Off - Duracao: 1241700 Nota: C1 Vol.: 62
Chanel 6 Note On - Duracao: 1241700 Nota: C1 Vol.: 60
Chanel 6 Note Off - Duracao: 1245540 Nota: C1 Vol.: 60
Chanel 6 Note On - Duracao: 1245540 Nota: C1 Vol.: 60
Chanel 6 Note Off - Duracao: 1249380 Nota: C1 Vol.: 60
Chanel 6 Note On - Duracao: 1249380 Nota: C1 Vol.: 62
Chanel 6 Note Off - Duracao: 1253220 Nota: C1 Vol.: 62
Chanel 6 Note On - Duracao: 1253220 Nota: C1 Vol.: 62
Chanel 6 Note Off - Duracao: 1257060 Nota: C1 Vol.: 62
Chanel 6 Note On - Duracao: 1257060 Nota: C1 Vol.: 62
Chanel 6 Note Off - Duracao: 1260900 Nota: C1 Vol.: 62
Chanel 6 Note On - Duracao: 1260900 Nota: C1 Vol.: 65
Chanel 6 Note Off - Duracao: 1264740 Nota: C1 Vol.: 65
Chanel 6 Note On - Duracao: 1264740 Nota: C1 Vol.: 66
Chanel 6 Note Off - Duracao: 1268580 Nota: C1 Vol.: 66
Chanel 6 Note On - Duracao: 1268580 Nota: C1 Vol.: 67
Chanel 6 Note Off - Duracao: 1272420 Nota: C1 Vol.: 67
Chanel 6 Note On - Duracao: 1272420 Nota: C1 Vol.: 70
Chanel 6 Note Off - Duracao: 1276260 Nota: C1 Vol.: 70
Chanel 6 Note On - Duracao: 1276260 Nota: C1 Vol.: 69
Chanel 6 Note Off - Duracao: 1280100 Nota: C1 Vol.: 69
Chanel 6 Note On - Duracao: 1280100 Nota: C1 Vol.: 66
Chanel 6 Note Off - Duracao: 1283940 Nota: C1 Vol.: 66
Chanel 6 Note On - Duracao: 1283940 Nota: C1 Vol.: 64
Chanel 6 Note Off - Duracao: 1287780 Nota: C1 Vol.: 64
Chanel 6 Note On - Duracao: 1287780 Nota: C1 Vol.: 64
Chanel 6 Note Off - Duracao: 1291620 Nota: C1 Vol.: 64
Chanel 6 Note On - Duracao: 1291620 Nota: C1 Vol.: 63
Chanel 6 Note Off - Duracao: 1295460 Nota: C1 Vol.: 63
Chanel 6 Note On - Duracao: 1295460 Nota: C1 Vol.: 61
Chanel 6 Note Off - Duracao: 1299300 Nota: C1 Vol.: 61
Chanel 6 Note On - Duracao: 1299300 Nota: C1 Vol.: 60
Chanel 6 Note Off - Duracao: 1303140 Nota: C1 Vol.: 60
Chanel 6 Note On - Duracao: 1303140 Nota: C1 Vol.: 56
Chanel 6 Note Off - Duracao: 1306980 Nota: C1 Vol.: 56
Chanel 6 Note On - Duracao: 1306980 Nota: C1 Vol.: 56
Chanel 6 Note Off - Duracao: 1310820 Nota: C1 Vol.: 56
Chanel 6 Note On - Duracao: 1310820 Nota: C1 Vol.: 53
Chanel 6 Note Off - Duracao: 1314660 Nota: C1 Vol.: 53
Chanel 6 Note On - Duracao: 1314660 Nota: C1 Vol.: 54
Chanel 6 Note Off - Duracao: 1318500 Nota: C1 Vol.: 54
Chanel 6 Note On - Duracao: 1318500 Nota: C1 Vol.: 60
Chanel 6 Note Off - Duracao: 1322340 Nota: C1 Vol.: 60
Chanel 6 Note On - Duracao: 1322340 Nota: C1 Vol.: 65
Chanel 6 Note Off - Duracao: 1324260 Nota: C1 Vol.: 65
Chanel 6 Note On - Duracao: 1324260 Nota: C1 Vol.: 64
Chanel 6 Note Off - Duracao: 1326180 Nota: C1 Vol.: 64
Chanel 6 Note On - Duracao: 1326180 Nota: C1 Vol.: 60
Chanel 6 Note Off - Duracao: 1328100 Nota: C1 Vol.: 60
Chanel 6 Note On - Duracao: 1328100 Nota: C1 Vol.: 55
Chanel 6 Note Off - Duracao: 1329060 Nota: C1 Vol.: 55
Chanel 6 Note On - Duracao: 1329060 Nota: C1 Vol.: 62
Chanel 6 Note Off - Duracao: 1329540 Nota: C1 Vol.: 62
Chanel 6 Note On - Duracao: 1329540 Nota: C1 Vol.: 56
Chanel 6 Note Off - Duracao: 1330020 Nota: C1 Vol.: 56
Chanel 6 Note On - Duracao: 1330020 Nota: C1 Vol.: 53
Chanel 6 Note Off - Duracao: 1330500 Nota: C1 Vol.: 53
Chanel 6 Note On - Duracao: 1330500 Nota: C1 Vol.: 47
Chanel 6 Note Off - Duracao: 1331460 Nota: C1 Vol.: 47
Chanel 6 Note On - Duracao: 1331460 Nota: C1 Vol.: 56
Chanel 6 Note Off - Duracao: 1331940 Nota: C1 Vol.: 56
Chanel 6 Note On - Duracao: 1331940 Nota: C1 Vol.: 53
Chanel 6 Note Off - Duracao: 1332420 Nota: C1 Vol.: 53
Chanel 6 Note On - Duracao: 1332420 Nota: C1 Vol.: 55
Chanel 6 Note Off - Duracao: 1332900 Nota: C1 Vol.: 55
Chanel 6 Note On - Duracao: 1332900 Nota: C1 Vol.: 67
Chanel 6 Note Off - Duracao: 1333140 Nota: C1 Vol.: 67
Chanel 6 Note On - Duracao: 1333140 Nota: C1 Vol.: 52
Chanel 6 Note Off - Duracao: 1333620 Nota: C1 Vol.: 52
Chanel 6 Note On - Duracao: 1333620 Nota: C1 Vol.: 52
Chanel 6 Note Off - Duracao: 1334580 Nota: C1 Vol.: 52
Chanel 6 Note On - Duracao: 1334580 Nota: C1 Vol.: 53
Chanel 6 Note Off - Duracao: 1335540 Nota: C1 Vol.: 53
Chanel 6 Note On - Duracao: 1335540 Nota: C1 Vol.: 56
Chanel 6 Note Off - Duracao: 1336020 Nota: C1 Vol.: 56
Chanel 6 Note On - Duracao: 1336020 Nota: C1 Vol.: 53
Chanel 6 Note Off - Duracao: 1336980 Nota: C1 Vol.: 53
Chanel 6 Note On - Duracao: 1336980 Nota: C1 Vol.: 74
Chanel 6 Note Off - Duracao: 1337220 Nota: C1 Vol.: 74
Chanel 6 Note On - Duracao: 1337220 Nota: C1 Vol.: 84
Chanel 6 Note Off - Duracao: 1337340 Nota: C1 Vol.: 84
Chanel 6 Note On - Duracao: 1337340 Nota: C1 Vol.: 89
Chanel 6 Note Off - Duracao: 1337460 Nota: C1 Vol.: 89
Chanel 6 Note On - Duracao: 1337460 Nota: C1 Vol.: 84
Chanel 6 Note Off - Duracao: 1337580 Nota: C1 Vol.: 84
Chanel 6 Note On - Duracao: 1337580 Nota: C1 Vol.: 88
Chanel 6 Note Off - Duracao: 1337700 Nota: C1 Vol.: 88
Chanel 6 Note On - Duracao: 1337700 Nota: C1 Vol.: 88
Chanel 6 Note Off - Duracao: 1337820 Nota: C1 Vol.: 88
Chanel 6 Note On - Duracao: 1337820 Nota: C1 Vol.: 82
Chanel 6 Note Off - Duracao: 1338060 Nota: C1 Vol.: 82
Chanel 6 Note On - Duracao: 1338060 Nota: C1 Vol.: 72
Chanel 6 Note Off - Duracao: 1338540 Nota: C1 Vol.: 72
Chanel 6 Note On - Duracao: 1338540 Nota: C1 Vol.: 74
Chanel 6 Note Off - Duracao: 1339020 Nota: C1 Vol.: 74
Chanel 6 Note On - Duracao: 1339020 Nota: C1 Vol.: 70
Chanel 6 Note Off - Duracao: 1339500 Nota: C1 Vol.: 70
Chanel 6 Note On - Duracao: 1339500 Nota: C1 Vol.: 92
Chanel 6 Note Off - Duracao: 1339560 Nota: C1 Vol.: 92
Chanel 6 Note On - Duracao: 1339560 Nota: C1 Vol.: 95
Chanel 6 Note Off - Duracao: 1339620 Nota: C1 Vol.: 95
Chanel 6 Note On - Duracao: 1339620 Nota: C1 Vol.: 83
Chanel 6 Note Off - Duracao: 1339740 Nota: C1 Vol.: 83
Chanel 6 Note On - Duracao: 1339740 Nota: C1 Vol.: 67
Chanel 6 Note Off - Duracao: 1340220 Nota: C1 Vol.: 67
Chanel 6 Note On - Duracao: 1340220 Nota: C1 Vol.: 61
Chanel 6 Note Off - Duracao: 1341180 Nota: C1 Vol.: 61
Chanel 6 Note On - Duracao: 1341180 Nota: C1 Vol.: 86
Chanel 6 Note Off - Duracao: 1341300 Nota: C1 Vol.: 86
Chanel 6 Note On - Duracao: 1341300 Nota: C1 Vol.: 84
Chanel 6 Note Off - Duracao: 1341420 Nota: C1 Vol.: 84
Chanel 6 Note On - Duracao: 1341420 Nota: C1 Vol.: 66
Chanel 6 Note Off - Duracao: 1341900 Nota: C1 Vol.: 66
Chanel 6 Note On - Duracao: 1341900 Nota: C1 Vol.: 61
Chanel 6 Note Off - Duracao: 1342860 Nota: C1 Vol.: 61
Chanel 6 Note On - Duracao: 1342860 Nota: C1 Vol.: 70
Chanel 6 Note Off - Duracao: 1343340 Nota: C1 Vol.: 70
Chanel 6 Note On - Duracao: 1343340 Nota: C1 Vol.: 81
Chanel 6 Note Off - Duracao: 1343580 Nota: C1 Vol.: 81
Chanel 6 Note On - Duracao: 1343580 Nota: C1 Vol.: 87
Chanel 6 Note Off - Duracao: 1343700 Nota: C1 Vol.: 87
Chanel 6 Note On - Duracao: 1343700 Nota: C1 Vol.: 67
Chanel 6 Note Off - Duracao: 1344180 Nota: C1 Vol.: 67
Chanel 6 Note On - Duracao: 1344180 Nota: C1 Vol.: 53
Chanel 6 Note Off - Duracao: 1345140 Nota: C1 Vol.: 53
Chanel 6 Note On - Duracao: 1345140 Nota: C1 Vol.: 52
Chanel 6 Note Off - Duracao: 1346100 Nota: C1 Vol.: 52
Chanel 6 Note On - Duracao: 1346100 Nota: C1 Vol.: 56
Chanel 6 Note Off - Duracao: 1346580 Nota: C1 Vol.: 56
Chanel 6 Note On - Duracao: 1346580 Nota: C1 Vol.: 65
Chanel 6 Note Off - Duracao: 1346820 Nota: C1 Vol.: 65
Chanel 6 Note On - Duracao: 1346820 Nota: C1 Vol.: 77
Chanel 6 Note Off - Duracao: 1346940 Nota: C1 Vol.: 77
Chanel 6 Note On - Duracao: 1346940 Nota: C1 Vol.: 80
Chanel 6 Note Off - Duracao: 1347060 Nota: C1 Vol.: 80
Chanel 6 Note On - Duracao: 1347060 Nota: C1 Vol.: 77
Chanel 6 Note Off - Duracao: 1347300 Nota: C1 Vol.: 77
Chanel 6 Note On - Duracao: 1347300 Nota: C1 Vol.: 90
Chanel 6 Note Off - Duracao: 1347420 Nota: C1 Vol.: 90
Chanel 6 Note On - Duracao: 1347420 Nota: C1 Vol.: 93
Chanel 6 Note Off - Duracao: 1347480 Nota: C1 Vol.: 93
Chanel 6 Note On - Duracao: 1347480 Nota: C1 Vol.: 92
Chanel 6 Note Off - Duracao: 1347540 Nota: C1 Vol.: 92
Chanel 6 Note On - Duracao: 1347540 Nota: C1 Vol.: 64
Chanel 6 Note Off - Duracao: 1348020 Nota: C1 Vol.: 64
Chanel 6 Note On - Duracao: 1348020 Nota: C1 Vol.: 64
Chanel 6 Note Off - Duracao: 1348260 Nota: C1 Vol.: 64
Chanel 6 Note On - Duracao: 1348260 Nota: C1 Vol.: 61
Chanel 6 Note Off - Duracao: 1348500 Nota: C1 Vol.: 61
Chanel 6 Note On - Duracao: 1348500 Nota: C1 Vol.: 67
Chanel 6 Note Off - Duracao: 1348620 Nota: C1 Vol.: 67
Chanel 6 Note On - Duracao: 1348620 Nota: C1 Vol.: 45
Chanel 6 Note Off - Duracao: 1349580 Nota: C1 Vol.: 45
Chanel 6 Note On - Duracao: 1349580 Nota: C1 Vol.: 51
Chanel 6 Note Off - Duracao: 1350060 Nota: C1 Vol.: 51
Chanel 6 Note On - Duracao: 1350060 Nota: C1 Vol.: 51
Chanel 6 Note Off - Duracao: 1351020 Nota: C1 Vol.: 51
Chanel 6 Note On - Duracao: 1351020 Nota: C1 Vol.: 52
Chanel 6 Note Off - Duracao: 1351980 Nota: C1 Vol.: 52
Chanel 6 Note On - Duracao: 1351980 Nota: C1 Vol.: 51
Chanel 6 Note Off - Duracao: 1352940 Nota: C1 Vol.: 51
Chanel 6 Note On - Duracao: 1352940 Nota: C1 Vol.: 49
Chanel 6 Note Off - Duracao: 1353900 Nota: C1 Vol.: 49
Chanel 6 Note On - Duracao: 1353900 Nota: C1 Vol.: 43
Chanel 6 Note Off - Duracao: 1354860 Nota: C1 Vol.: 43
Chanel 6 Note On - Duracao: 1354860 Nota: C1 Vol.: 60
Chanel 6 Note Off - Duracao: 1355100 Nota: C1 Vol.: 60
Chanel 6 Note On - Duracao: 1355100 Nota: C1 Vol.: 63
Chanel 6 Note Off - Duracao: 1355340 Nota: C1 Vol.: 63
Chanel 6 Note On - Duracao: 1355340 Nota: C1 Vol.: 51
Chanel 6 Note Off - Duracao: 1355820 Nota: C1 Vol.: 51
Chanel 6 Note On - Duracao: 1355820 Nota: C1 Vol.: 55
Chanel 6 Note Off - Duracao: 1356300 Nota: C1 Vol.: 55
Chanel 6 Note On - Duracao: 1356300 Nota: C1 Vol.: 52
Chanel 6 Note Off - Duracao: 1356780 Nota: C1 Vol.: 52
Chanel 6 Note On - Duracao: 1356780 Nota: C1 Vol.: 58
Chanel 6 Note Off - Duracao: 1357260 Nota: C1 Vol.: 58
Chanel 6 Note On - Duracao: 1357260 Nota: C1 Vol.: 60
Chanel 6 Note Off - Duracao: 1357740 Nota: C1 Vol.: 60
Chanel 6 Note On - Duracao: 1357740 Nota: C1 Vol.: 44
Chanel 6 Note Off - Duracao: 1359660 Nota: C1 Vol.: 44
Chanel 6 Note On - Duracao: 1359660 Nota: C1 Vol.: 41
Chanel 6 Note Off - Duracao: 1363500 Nota: C1 Vol.: 41
Chanel 6 Note On - Duracao: 1363500 Nota: C1 Vol.: 47
Chanel 6 Note Off - Duracao: 1367340 Nota: C1 Vol.: 47
Chanel 6 Note On - Duracao: 1367340 Nota: C1 Vol.: 51
Chanel 6 Note Off - Duracao: 1371180 Nota: C1 Vol.: 51
Chanel 6 Note On - Duracao: 1371180 Nota: C1 Vol.: 54
Chanel 6 Note Off - Duracao: 1375020 Nota: C1 Vol.: 54
Chanel 6 Note On - Duracao: 1375020 Nota: C1 Vol.: 57
Chanel 6 Note Off - Duracao: 1378860 Nota: C1 Vol.: 57
Chanel 6 Note On - Duracao: 1378860 Nota: C1 Vol.: 58
Chanel 6 Note Off - Duracao: 1382700 Nota: C1 Vol.: 58
Chanel 6 Note On - Duracao: 1382700 Nota: C1 Vol.: 59
Chanel 6 Note Off - Duracao: 1386540 Nota: C1 Vol.: 59
Chanel 6 Note On - Duracao: 1386540 Nota: C1 Vol.: 61
Chanel 6 Note Off - Duracao: 1390380 Nota: C1 Vol.: 61
Chanel 6 Note On - Duracao: 1390380 Nota: C1 Vol.: 60
Chanel 6 Note Off - Duracao: 1394220 Nota: C1 Vol.: 60
Chanel 6 Note On - Duracao: 1394220 Nota: C1 Vol.: 60
Chanel 6 Note Off - Duracao: 1398060 Nota: C1 Vol.: 60
Chanel 6 Note On - Duracao: 1398060 Nota: C1 Vol.: 60
Chanel 6 Note Off - Duracao: 1401900 Nota: C1 Vol.: 60
Chanel 6 Note On - Duracao: 1401900 Nota: C1 Vol.: 59
Chanel 6 Note Off - Duracao: 1405740 Nota: C1 Vol.: 59
Chanel 6 Note On - Duracao: 1405740 Nota: C1 Vol.: 61
Chanel 6 Note Off - Duracao: 1409580 Nota: C1 Vol.: 61
Chanel 6 Note On - Duracao: 1409580 Nota: C1 Vol.: 60
Chanel 6 Note Off - Duracao: 1413420 Nota: C1 Vol.: 60
Chanel 6 Note On - Duracao: 1413420 Nota: C1 Vol.: 60
Chanel 6 Note Off - Duracao: 1417260 Nota: C1 Vol.: 60
Chanel 6 Note On - Duracao: 1417260 Nota: C1 Vol.: 61
Chanel 6 Note Off - Duracao: 1421100 Nota: C1 Vol.: 61
Chanel 6 Note On - Duracao: 1421100 Nota: C1 Vol.: 63
Chanel 6 Note Off - Duracao: 1424940 Nota: C1 Vol.: 63
Chanel 6 Note On - Duracao: 1424940 Nota: C1 Vol.: 63
Chanel 6 Note Off - Duracao: 1428780 Nota: C1 Vol.: 63
Chanel 6 Note On - Duracao: 1428780 Nota: C1 Vol.: 62
Chanel 6 Note Off - Duracao: 1432620 Nota: C1 Vol.: 62
Chanel 6 Note On - Duracao: 1432620 Nota: C1 Vol.: 63
Chanel 6 Note Off - Duracao: 1436460 Nota: C1 Vol.: 63
Chanel 6 Note On - Duracao: 1436460 Nota: C1 Vol.: 60
Chanel 6 Note Off - Duracao: 1440300 Nota: C1 Vol.: 60
Chanel 6 Note On - Duracao: 1440300 Nota: C1 Vol.: 57
Chanel 6 Note Off - Duracao: 1444140 Nota: C1 Vol.: 57
Chanel 6 Note On - Duracao: 1444140 Nota: C1 Vol.: 61
Chanel 6 Note Off - Duracao: 1447980 Nota: C1 Vol.: 61
Chanel 6 Note On - Duracao: 1447980 Nota: C1 Vol.: 57
Chanel 6 Note Off - Duracao: 1451820 Nota: C1 Vol.: 57
Chanel 6 Note On - Duracao: 1451820 Nota: C1 Vol.: 58
Chanel 6 Note Off - Duracao: 1455660 Nota: C1 Vol.: 58
Chanel 6 Note On - Duracao: 1455660 Nota: C1 Vol.: 56
Chanel 6 Note Off - Duracao: 1459500 Nota: C1 Vol.: 56
Chanel 6 Note On - Duracao: 1459500 Nota: C1 Vol.: 53
Chanel 6 Note Off - Duracao: 1463340 Nota: C1 Vol.: 53
Chanel 6 Note On - Duracao: 1463340 Nota: C1 Vol.: 53
Chanel 6 Note Off - Duracao: 1467180 Nota: C1 Vol.: 53
Chanel 6 Note On - Duracao: 1467180 Nota: C1 Vol.: 58
Chanel 6 Note Off - Duracao: 1469100 Nota: C1 Vol.: 58
Chanel 6 Note On - Duracao: 1469100 Nota: C1 Vol.: 64
Chanel 6 Note Off - Duracao: 1471020 Nota: C1 Vol.: 64
Chanel 6 Note On - Duracao: 1471020 Nota: C1 Vol.: 69
Chanel 6 Note Off - Duracao: 1472940 Nota: C1 Vol.: 69
Chanel 6 Note On - Duracao: 1472940 Nota: C1 Vol.: 69
Chanel 6 Note Off - Duracao: 1474860 Nota: C1 Vol.: 69
Chanel 6 Note On - Duracao: 1474860 Nota: C1 Vol.: 68
Chanel 6 Note Off - Duracao: 1476780 Nota: C1 Vol.: 68
Chanel 6 Note On - Duracao: 1476780 Nota: C1 Vol.: 65
Chanel 6 Note Off - Duracao: 1478700 Nota: C1 Vol.: 65
Chanel 6 Note On - Duracao: 1478700 Nota: C1 Vol.: 46
Chanel 6 Note Off - Duracao: 1482540 Nota: C1 Vol.: 46
Chanel 6 Note On - Duracao: 1482540 Nota: C1 Vol.: 63
Chanel 6 Note Off - Duracao: 1483020 Nota: C1 Vol.: 63
Chanel 6 Note On - Duracao: 1483020 Nota: C1 Vol.: 55
Chanel 6 Note Off - Duracao: 1483500 Nota: C1 Vol.: 55
Chanel 6 Note On - Duracao: 1483500 Nota: C1 Vol.: 61
Chanel 6 Note Off - Duracao: 1483740 Nota: C1 Vol.: 61
Chanel 6 Note On - Duracao: 1483740 Nota: C1 Vol.: 64
Chanel 6 Note Off - Duracao: 1483980 Nota: C1 Vol.: 64
Chanel 6 Note On - Duracao: 1483980 Nota: C1 Vol.: 56
Chanel 6 Note Off - Duracao: 1484460 Nota: C1 Vol.: 56
Chanel 6 Note On - Duracao: 1484460 Nota: C1 Vol.: 43
Chanel 6 Note Off - Duracao: 1485420 Nota: C1 Vol.: 43
Chanel 6 Note On - Duracao: 1485420 Nota: C1 Vol.: 59
Chanel 6 Note Off - Duracao: 1485900 Nota: C1 Vol.: 59
Chanel 6 Note On - Duracao: 1485900 Nota: C1 Vol.: 44
Chanel 6 Note Off - Duracao: 1486860 Nota: C1 Vol.: 44
Chanel 6 Note On - Duracao: 1486860 Nota: C1 Vol.: 49
Chanel 6 Note Off - Duracao: 1487820 Nota: C1 Vol.: 49
Chanel 6 Note On - Duracao: 1487820 Nota: C1 Vol.: 53
Chanel 6 Note Off - Duracao: 1488780 Nota: C1 Vol.: 53
Chanel 6 Note On - Duracao: 1488780 Nota: C1 Vol.: 60
Chanel 6 Note Off - Duracao: 1489260 Nota: C1 Vol.: 60
Chanel 6 Note On - Duracao: 1489260 Nota: C1 Vol.: 60
Chanel 6 Note Off - Duracao: 1489740 Nota: C1 Vol.: 60
Chanel 6 Note On - Duracao: 1489740 Nota: C1 Vol.: 61
Chanel 6 Note Off - Duracao: 1490700 Nota: C1 Vol.: 61
Chanel 6 Note On - Duracao: 1490700 Nota: C1 Vol.: 85
Chanel 6 Note Off - Duracao: 1490820 Nota: C1 Vol.: 85
Chanel 6 Note On - Duracao: 1490820 Nota: C1 Vol.: 71
Chanel 6 Note Off - Duracao: 1491300 Nota: C1 Vol.: 71
Chanel 6 Note On - Duracao: 1491300 Nota: C1 Vol.: 86
Chanel 6 Note Off - Duracao: 1491420 Nota: C1 Vol.: 86
Chanel 6 Note On - Duracao: 1491420 Nota: C1 Vol.: 87
Chanel 6 Note Off - Duracao: 1491540 Nota: C1 Vol.: 87
Chanel 6 Note On - Duracao: 1491540 Nota: C1 Vol.: 75
Chanel 6 Note Off - Duracao: 1491780 Nota: C1 Vol.: 75
Chanel 6 Note On - Duracao: 1491780 Nota: C1 Vol.: 79
Chanel 6 Note Off - Duracao: 1492020 Nota: C1 Vol.: 79
Chanel 6 Note On - Duracao: 1492020 Nota: C1 Vol.: 72
Chanel 6 Note Off - Duracao: 1492500 Nota: C1 Vol.: 72
Chanel 6 Note On - Duracao: 1492500 Nota: C1 Vol.: 78
Chanel 6 Note Off - Duracao: 1492740 Nota: C1 Vol.: 78
Chanel 6 Note On - Duracao: 1492740 Nota: C1 Vol.: 79
Chanel 6 Note Off - Duracao: 1492980 Nota: C1 Vol.: 79
Chanel 6 Note On - Duracao: 1492980 Nota: C1 Vol.: 68
Chanel 6 Note Off - Duracao: 1493460 Nota: C1 Vol.: 68
Chanel 6 Note On - Duracao: 1493460 Nota: C1 Vol.: 80
Chanel 6 Note Off - Duracao: 1493700 Nota: C1 Vol.: 80
Chanel 6 Note On - Duracao: 1493700 Nota: C1 Vol.: 81
Chanel 6 Note Off - Duracao: 1493940 Nota: C1 Vol.: 81
Chanel 6 Note On - Duracao: 1493940 Nota: C1 Vol.: 90
Chanel 6 Note Off - Duracao: 1494060 Nota: C1 Vol.: 90
Chanel 6 Note On - Duracao: 1494060 Nota: C1 Vol.: 58
Chanel 6 Note Off - Duracao: 1495020 Nota: C1 Vol.: 58
Chanel 6 Note On - Duracao: 1495020 Nota: C1 Vol.: 67
Chanel 6 Note Off - Duracao: 1495500 Nota: C1 Vol.: 67
Chanel 6 Note On - Duracao: 1495500 Nota: C1 Vol.: 78
Chanel 6 Note Off - Duracao: 1495740 Nota: C1 Vol.: 78
Chanel 6 Note On - Duracao: 1495740 Nota: C1 Vol.: 83
Chanel 6 Note Off - Duracao: 1495980 Nota: C1 Vol.: 83
Chanel 6 Note On - Duracao: 1495980 Nota: C1 Vol.: 90
Chanel 6 Note Off - Duracao: 1496100 Nota: C1 Vol.: 90
Chanel 6 Note On - Duracao: 1496100 Nota: C1 Vol.: 73
Chanel 6 Note Off - Duracao: 1496580 Nota: C1 Vol.: 73
Chanel 6 Note On - Duracao: 1496580 Nota: C1 Vol.: 79
Chanel 6 Note Off - Duracao: 1496820 Nota: C1 Vol.: 79
Chanel 6 Note On - Duracao: 1496820 Nota: C1 Vol.: 77
Chanel 6 Note Off - Duracao: 1497060 Nota: C1 Vol.: 77
Chanel 6 Note On - Duracao: 1497060 Nota: C1 Vol.: 64
Chanel 6 Note Off - Duracao: 1498020 Nota: C1 Vol.: 64
Chanel 6 Note On - Duracao: 1498020 Nota: C1 Vol.: 52
Chanel 6 Note Off - Duracao: 1499940 Nota: C1 Vol.: 52
Chanel 6 Note On - Duracao: 1499940 Nota: C1 Vol.: 51
Chanel 6 Note Off - Duracao: 1501860 Nota: C1 Vol.: 51
Chanel 6 Note On - Duracao: 1501860 Nota: C1 Vol.: 60
Chanel 6 Note Off - Duracao: 1502340 Nota: C1 Vol.: 60
Chanel 6 Note On - Duracao: 1502340 Nota: C1 Vol.: 59
Chanel 6 Note Off - Duracao: 1502820 Nota: C1 Vol.: 59
Chanel 6 Note On - Duracao: 1502820 Nota: C1 Vol.: 60
Chanel 6 Note Off - Duracao: 1503300 Nota: C1 Vol.: 60
Chanel 6 Note On - Duracao: 1503300 Nota: C1 Vol.: 64
Chanel 6 Note Off - Duracao: 1503540 Nota: C1 Vol.: 64
Chanel 6 Note On - Duracao: 1503540 Nota: C1 Vol.: 71
Chanel 6 Note Off - Duracao: 1503660 Nota: C1 Vol.: 71
Chanel 6 Note On - Duracao: 1503660 Nota: C1 Vol.: 69
Chanel 6 Note Off - Duracao: 1503900 Nota: C1 Vol.: 69
Chanel 6 Note On - Duracao: 1503900 Nota: C1 Vol.: 84
Chanel 6 Note Off - Duracao: 1504020 Nota: C1 Vol.: 84
Chanel 6 Note On - Duracao: 1504020 Nota: C1 Vol.: 87
Chanel 6 Note Off - Duracao: 1504140 Nota: C1 Vol.: 87
Chanel 6 Note On - Duracao: 1504140 Nota: C1 Vol.: 90
Chanel 6 Note Off - Duracao: 1504260 Nota: C1 Vol.: 90
Chanel 6 Note On - Duracao: 1504260 Nota: C1 Vol.: 83
Chanel 6 Note Off - Duracao: 1504380 Nota: C1 Vol.: 83
Chanel 6 Note On - Duracao: 1504380 Nota: C1 Vol.: 63
Chanel 6 Note Off - Duracao: 1504620 Nota: C1 Vol.: 63
Chanel 6 Note On - Duracao: 1504620 Nota: C1 Vol.: 65
Chanel 6 Note Off - Duracao: 1504860 Nota: C1 Vol.: 65
Chanel 6 Note On - Duracao: 1504860 Nota: C1 Vol.: 68
Chanel 6 Note Off - Duracao: 1504980 Nota: C1 Vol.: 68
Chanel 6 Note On - Duracao: 1504980 Nota: C1 Vol.: 69
Chanel 6 Note Off - Duracao: 1505100 Nota: C1 Vol.: 69
Chanel 6 Note On - Duracao: 1505100 Nota: C1 Vol.: 50
Chanel 6 Note Off - Duracao: 1505580 Nota: C1 Vol.: 50
Chanel 6 Note On - Duracao: 1505580 Nota: C1 Vol.: 44
Chanel 6 Note Off - Duracao: 1506540 Nota: C1 Vol.: 44
Chanel 6 Note On - Duracao: 1506540 Nota: C1 Vol.: 45
Chanel 6 Note Off - Duracao: 1507500 Nota: C1 Vol.: 45
Chanel 6 Note On - Duracao: 1507500 Nota: C1 Vol.: 49
Chanel 6 Note Off - Duracao: 1508460 Nota: C1 Vol.: 49
Chanel 6 Note On - Duracao: 1508460 Nota: C1 Vol.: 48
Chanel 6 Note Off - Duracao: 1509420 Nota: C1 Vol.: 48
Chanel 6 Note On - Duracao: 1509420 Nota: C1 Vol.: 44
Chanel 6 Note Off - Duracao: 1510380 Nota: C1 Vol.: 44
Chanel 6 Note On - Duracao: 1510380 Nota: C1 Vol.: 63
Chanel 6 Note Off - Duracao: 1510620 Nota: C1 Vol.: 63
Chanel 6 Note On - Duracao: 1510620 Nota: C1 Vol.: 59
Chanel 6 Note Off - Duracao: 1510860 Nota: C1 Vol.: 59
Chanel 6 Note On - Duracao: 1510860 Nota: C1 Vol.: 51
Chanel 6 Note Off - Duracao: 1511340 Nota: C1 Vol.: 51
Chanel 6 Note On - Duracao: 1511340 Nota: C1 Vol.: 52
Chanel 6 Note Off - Duracao: 1511820 Nota: C1 Vol.: 52
Chanel 6 Note On - Duracao: 1511820 Nota: C1 Vol.: 44
Chanel 6 Note Off - Duracao: 1512780 Nota: C1 Vol.: 44
Chanel 6 Note On - Duracao: 1512780 Nota: C1 Vol.: 44
Chanel 6 Note Off - Duracao: 1513740 Nota: C1 Vol.: 44
Chanel 6 Note On - Duracao: 1513740 Nota: C1 Vol.: 51
Chanel 6 Note Off - Duracao: 1514700 Nota: C1 Vol.: 51
Chanel 6 Note On - Duracao: 1514700 Nota: C1 Vol.: 56
Chanel 6 Note Off - Duracao: 1515180 Nota: C1 Vol.: 56
Chanel 6 Note On - Duracao: 1515180 Nota: C1 Vol.: 48
Chanel 6 Note Off - Duracao: 1516140 Nota: C1 Vol.: 48
Chanel 6 Note On - Duracao: 1516140 Nota: C1 Vol.: 50
Chanel 6 Note Off - Duracao: 1517100 Nota: C1 Vol.: 50
Chanel 6 Note On - Duracao: 1517100 Nota: C1 Vol.: 47
Chanel 6 Note Off - Duracao: 1519020 Nota: C1 Vol.: 47
Chanel 6 Note On - Duracao: 1519020 Nota: C1 Vol.: 42
Chanel 6 Note Off - Duracao: 1522860 Nota: C1 Vol.: 42
Chanel 6 Note On - Duracao: 1522860 Nota: C1 Vol.: 46
Chanel 6 Note Off - Duracao: 1526700 Nota: C1 Vol.: 46
Chanel 6 Note On - Duracao: 1526700 Nota: C1 Vol.: 51
Chanel 6 Note Off - Duracao: 1530540 Nota: C1 Vol.: 51
Chanel 6 Note On - Duracao: 1530540 Nota: C1 Vol.: 54
Chanel 6 Note Off - Duracao: 1534380 Nota: C1 Vol.: 54
Chanel 6 Note On - Duracao: 1534380 Nota: C1 Vol.: 56
Chanel 6 Note Off - Duracao: 1538220 Nota: C1 Vol.: 56
Chanel 6 Note On - Duracao: 1538220 Nota: C1 Vol.: 59
Chanel 6 Note Off - Duracao: 1542060 Nota: C1 Vol.: 59
Chanel 6 Note On - Duracao: 1542060 Nota: C1 Vol.: 59
Chanel 6 Note Off - Duracao: 1545900 Nota: C1 Vol.: 59
Tick: 1545900 - 
System reset: 
First data byte: 0 Second data byte: 0
