Tipo de divisão:0.0
Duração:1361160 ticks
Duração:11m48s
Tempo factor:1.0
Tempo in BPM:10.0
Chanel 1 program change: Instrumento: Trumpet
Chanel 1 Note On - Duracao: 0 Nota: C1 Vol.: 96
Chanel 2 program change: Instrumento: Alto Sax
Chanel 2 Note On - Duracao: 0 Nota: C1 Vol.: 93
Chanel 3 program change: Instrumento: French Horn
Chanel 3 Note On - Duracao: 0 Nota: C1 Vol.: 73
Chanel 4 program change: Instrumento: Synth Strings 1
Chanel 4 Note On - Duracao: 0 Nota: C1 Vol.: 99
Chanel 5 program change: Instrumento: Bassoon
Chanel 5 Note On - Duracao: 0 Nota: C1 Vol.: 95
Chanel 6 program change: Instrumento: Polysynth
Chanel 6 Note On - Duracao: 0 Nota: C1 Vol.: 94
Chanel 7 program change: Instrumento: Syn Square Wave
Chanel 7 Note On - Duracao: 0 Nota: C1 Vol.: 97
Chanel 8 program change: Instrumento: Syn Charang
Chanel 8 Note On - Duracao: 0 Nota: C1 Vol.: 71
Chanel 9 program change: Instrumento: Syn Chiff
Chanel 9 Note On - Duracao: 0 Nota: C1 Vol.: 71
Chanel 10 program change: Instrumento: Fiddle
Chanel 10 Note On - Duracao: 0 Nota: C1 Vol.: 82
Chanel 1 Note Off - Duracao: 60 Nota: C1 Vol.: 96
Chanel 1 Note On - Duracao: 60 Nota: C1 Vol.: 95
Chanel 4 Note Off - Duracao: 60 Nota: C1 Vol.: 99
Chanel 4 Note On - Duracao: 60 Nota: C1 Vol.: 98
Chanel 5 Note Off - Duracao: 60 Nota: C1 Vol.: 95
Chanel 5 Note On - Duracao: 60 Nota: C1 Vol.: 96
Chanel 6 Note Off - Duracao: 60 Nota: C1 Vol.: 94
Chanel 6 Note On - Duracao: 60 Nota: C1 Vol.: 96
Chanel 7 Note Off - Duracao: 60 Nota: C1 Vol.: 97
Chanel 7 Note On - Duracao: 60 Nota: C1 Vol.: 93
Chanel 1 Note Off - Duracao: 120 Nota: C1 Vol.: 95
Chanel 1 Note On - Duracao: 120 Nota: C1 Vol.: 96
Chanel 2 Note Off - Duracao: 120 Nota: C1 Vol.: 93
Chanel 2 Note On - Duracao: 120 Nota: C1 Vol.: 94
Chanel 4 Note Off - Duracao: 120 Nota: C1 Vol.: 98
Chanel 4 Note On - Duracao: 120 Nota: C1 Vol.: 98
Chanel 5 Note Off - Duracao: 120 Nota: C1 Vol.: 96
Chanel 5 Note On - Duracao: 120 Nota: C1 Vol.: 92
Chanel 6 Note Off - Duracao: 120 Nota: C1 Vol.: 96
Chanel 6 Note On - Duracao: 120 Nota: C1 Vol.: 97
Chanel 1 Note Off - Duracao: 180 Nota: C1 Vol.: 96
Chanel 1 Note On - Duracao: 180 Nota: C1 Vol.: 97
Chanel 2 Note Off - Duracao: 180 Nota: C1 Vol.: 94
Chanel 2 Note On - Duracao: 180 Nota: C1 Vol.: 91
Chanel 4 Note Off - Duracao: 180 Nota: C1 Vol.: 98
Chanel 4 Note On - Duracao: 180 Nota: C1 Vol.: 95
Chanel 5 Note Off - Duracao: 180 Nota: C1 Vol.: 92
Chanel 5 Note On - Duracao: 180 Nota: C1 Vol.: 98
Chanel 6 Note Off - Duracao: 180 Nota: C1 Vol.: 97
Chanel 6 Note On - Duracao: 180 Nota: C1 Vol.: 98
Chanel 7 Note Off - Duracao: 180 Nota: C1 Vol.: 93
Chanel 7 Note On - Duracao: 180 Nota: C1 Vol.: 86
Chanel 1 Note Off - Duracao: 240 Nota: C1 Vol.: 97
Chanel 1 Note On - Duracao: 240 Nota: C1 Vol.: 95
Chanel 3 Note Off - Duracao: 240 Nota: C1 Vol.: 73
Chanel 3 Note On - Duracao: 240 Nota: C1 Vol.: 83
Chanel 4 Note Off - Duracao: 240 Nota: C1 Vol.: 95
Chanel 4 Note On - Duracao: 240 Nota: C1 Vol.: 94
Chanel 5 Note Off - Duracao: 240 Nota: C1 Vol.: 98
Chanel 5 Note On - Duracao: 240 Nota: C1 Vol.: 87
Chanel 6 Note Off - Duracao: 240 Nota: C1 Vol.: 98
Chanel 6 Note On - Duracao: 240 Nota: C1 Vol.: 99
Chanel 1 Note Off - Duracao: 300 Nota: C1 Vol.: 95
Chanel 1 Note On - Duracao: 300 Nota: C1 Vol.: 95
Chanel 2 Note Off - Duracao: 300 Nota: C1 Vol.: 91
Chanel 2 Note On - Duracao: 300 Nota: C1 Vol.: 78
Chanel 6 Note Off - Duracao: 300 Nota: C1 Vol.: 99
Chanel 6 Note On - Duracao: 300 Nota: C1 Vol.: 98
Chanel 7 Note Off - Duracao: 300 Nota: C1 Vol.: 86
Chanel 7 Note On - Duracao: 300 Nota: C1 Vol.: 80
Chanel 1 Note Off - Duracao: 360 Nota: C1 Vol.: 95
Chanel 1 Note On - Duracao: 360 Nota: C1 Vol.: 95
Chanel 3 Note Off - Duracao: 360 Nota: C1 Vol.: 83
Chanel 3 Note On - Duracao: 360 Nota: C1 Vol.: 79
Chanel 4 Note Off - Duracao: 360 Nota: C1 Vol.: 94
Chanel 4 Note On - Duracao: 360 Nota: C1 Vol.: 91
Chanel 5 Note Off - Duracao: 360 Nota: C1 Vol.: 87
Chanel 5 Note On - Duracao: 360 Nota: C1 Vol.: 60
Chanel 6 Note Off - Duracao: 360 Nota: C1 Vol.: 98
Chanel 6 Note On - Duracao: 360 Nota: C1 Vol.: 95
Chanel 1 Note Off - Duracao: 420 Nota: C1 Vol.: 95
Chanel 1 Note On - Duracao: 420 Nota: C1 Vol.: 95
Chanel 6 Note Off - Duracao: 420 Nota: C1 Vol.: 95
Chanel 6 Note On - Duracao: 420 Nota: C1 Vol.: 94
Chanel 1 Note Off - Duracao: 480 Nota: C1 Vol.: 95
Chanel 1 Note On - Duracao: 480 Nota: C1 Vol.: 95
Chanel 4 Note Off - Duracao: 480 Nota: C1 Vol.: 91
Chanel 4 Note On - Duracao: 480 Nota: C1 Vol.: 98
Chanel 6 Note Off - Duracao: 480 Nota: C1 Vol.: 94
Chanel 6 Note On - Duracao: 480 Nota: C1 Vol.: 90
Chanel 9 Note Off - Duracao: 480 Nota: C1 Vol.: 71
Chanel 9 Note On - Duracao: 480 Nota: C1 Vol.: 68
Chanel 10 Note Off - Duracao: 480 Nota: C1 Vol.: 82
Chanel 10 Note On - Duracao: 480 Nota: C1 Vol.: 70
Chanel 1 Note Off - Duracao: 540 Nota: C1 Vol.: 95
Chanel 1 Note On - Duracao: 540 Nota: C1 Vol.: 95
Chanel 2 Note Off - Duracao: 540 Nota: C1 Vol.: 78
Chanel 2 Note On - Duracao: 540 Nota: C1 Vol.: 74
Chanel 4 Note Off - Duracao: 540 Nota: C1 Vol.: 98
Chanel 4 Note On - Duracao: 540 Nota: C1 Vol.: 89
Chanel 7 Note Off - Duracao: 540 Nota: C1 Vol.: 80
Chanel 7 Note On - Duracao: 540 Nota: C1 Vol.: 75
Chanel 1 Note Off - Duracao: 600 Nota: C1 Vol.: 95
Chanel 1 Note On - Duracao: 600 Nota: C1 Vol.: 95
Chanel 3 Note Off - Duracao: 600 Nota: C1 Vol.: 79
Chanel 3 Note On - Duracao: 600 Nota: C1 Vol.: 83
Chanel 6 Note Off - Duracao: 600 Nota: C1 Vol.: 90
Chanel 6 Note On - Duracao: 600 Nota: C1 Vol.: 83
Chanel 1 Note Off - Duracao: 660 Nota: C1 Vol.: 95
Chanel 1 Note On - Duracao: 660 Nota: C1 Vol.: 95
Chanel 4 Note Off - Duracao: 660 Nota: C1 Vol.: 89
Chanel 4 Note On - Duracao: 660 Nota: C1 Vol.: 89
Chanel 1 Note Off - Duracao: 720 Nota: C1 Vol.: 95
Chanel 1 Note On - Duracao: 720 Nota: C1 Vol.: 95
Chanel 3 Note Off - Duracao: 720 Nota: C1 Vol.: 83
Chanel 3 Note On - Duracao: 720 Nota: C1 Vol.: 79
Chanel 1 Note Off - Duracao: 780 Nota: C1 Vol.: 95
Chanel 1 Note On - Duracao: 780 Nota: C1 Vol.: 95
Chanel 2 Note Off - Duracao: 780 Nota: C1 Vol.: 74
Chanel 2 Note On - Duracao: 780 Nota: C1 Vol.: 75
Chanel 4 Note Off - Duracao: 780 Nota: C1 Vol.: 89
Chanel 4 Note On - Duracao: 780 Nota: C1 Vol.: 99
Chanel 1 Note Off - Duracao: 840 Nota: C1 Vol.: 95
Chanel 1 Note On - Duracao: 840 Nota: C1 Vol.: 95
Chanel 4 Note Off - Duracao: 840 Nota: C1 Vol.: 99
Chanel 4 Note On - Duracao: 840 Nota: C1 Vol.: 98
Chanel 6 Note Off - Duracao: 840 Nota: C1 Vol.: 83
Chanel 6 Note On - Duracao: 840 Nota: C1 Vol.: 65
Chanel 1 Note Off - Duracao: 900 Nota: C1 Vol.: 95
Chanel 1 Note On - Duracao: 900 Nota: C1 Vol.: 95
Chanel 4 Note Off - Duracao: 900 Nota: C1 Vol.: 98
Chanel 4 Note On - Duracao: 900 Nota: C1 Vol.: 98
Chanel 1 Note Off - Duracao: 960 Nota: C1 Vol.: 95
Chanel 1 Note On - Duracao: 960 Nota: C1 Vol.: 94
Chanel 3 Note Off - Duracao: 960 Nota: C1 Vol.: 79
Chanel 3 Note On - Duracao: 960 Nota: C1 Vol.: 75
Chanel 4 Note Off - Duracao: 960 Nota: C1 Vol.: 98
Chanel 4 Note On - Duracao: 960 Nota: C1 Vol.: 95
Chanel 8 Note Off - Duracao: 960 Nota: C1 Vol.: 71
Chanel 8 Note On - Duracao: 960 Nota: C1 Vol.: 82
Chanel 1 Note Off - Duracao: 1020 Nota: C1 Vol.: 94
Chanel 1 Note On - Duracao: 1020 Nota: C1 Vol.: 94
Chanel 2 Note Off - Duracao: 1020 Nota: C1 Vol.: 75
Chanel 2 Note On - Duracao: 1020 Nota: C1 Vol.: 81
Chanel 7 Note Off - Duracao: 1020 Nota: C1 Vol.: 75
Chanel 7 Note On - Duracao: 1020 Nota: C1 Vol.: 65
Chanel 1 Note Off - Duracao: 1080 Nota: C1 Vol.: 94
Chanel 1 Note On - Duracao: 1080 Nota: C1 Vol.: 87
Chanel 4 Note Off - Duracao: 1080 Nota: C1 Vol.: 95
Chanel 4 Note On - Duracao: 1080 Nota: C1 Vol.: 88
Chanel 1 Note Off - Duracao: 1200 Nota: C1 Vol.: 87
Chanel 1 Note On - Duracao: 1200 Nota: C1 Vol.: 75
Chanel 3 Note Off - Duracao: 1200 Nota: C1 Vol.: 75
Chanel 3 Note On - Duracao: 1200 Nota: C1 Vol.: 80
Chanel 2 Note Off - Duracao: 1260 Nota: C1 Vol.: 81
Chanel 2 Note On - Duracao: 1260 Nota: C1 Vol.: 76
Chanel 4 Note Off - Duracao: 1320 Nota: C1 Vol.: 88
Chanel 4 Note On - Duracao: 1320 Nota: C1 Vol.: 84
Chanel 5 Note Off - Duracao: 1320 Nota: C1 Vol.: 60
Chanel 5 Note On - Duracao: 1320 Nota: C1 Vol.: 71
Chanel 1 Note Off - Duracao: 1440 Nota: C1 Vol.: 75
Chanel 1 Note On - Duracao: 1440 Nota: C1 Vol.: 71
Chanel 3 Note Off - Duracao: 1440 Nota: C1 Vol.: 80
Chanel 3 Note On - Duracao: 1440 Nota: C1 Vol.: 79
Chanel 8 Note Off - Duracao: 1440 Nota: C1 Vol.: 82
Chanel 8 Note On - Duracao: 1440 Nota: C1 Vol.: 87
Chanel 9 Note Off - Duracao: 1440 Nota: C1 Vol.: 68
Chanel 9 Note On - Duracao: 1440 Nota: C1 Vol.: 78
Chanel 10 Note Off - Duracao: 1440 Nota: C1 Vol.: 70
Chanel 10 Note On - Duracao: 1440 Nota: C1 Vol.: 62
Chanel 2 Note Off - Duracao: 1500 Nota: C1 Vol.: 76
Chanel 2 Note On - Duracao: 1500 Nota: C1 Vol.: 83
Chanel 8 Note Off - Duracao: 1680 Nota: C1 Vol.: 87
Chanel 8 Note On - Duracao: 1680 Nota: C1 Vol.: 93
Chanel 2 Note Off - Duracao: 1740 Nota: C1 Vol.: 83
Chanel 2 Note On - Duracao: 1740 Nota: C1 Vol.: 89
Chanel 4 Note Off - Duracao: 1800 Nota: C1 Vol.: 84
Chanel 4 Note On - Duracao: 1800 Nota: C1 Vol.: 73
Chanel 5 Note Off - Duracao: 1800 Nota: C1 Vol.: 71
Chanel 5 Note On - Duracao: 1800 Nota: C1 Vol.: 94
Chanel 6 Note Off - Duracao: 1800 Nota: C1 Vol.: 65
Chanel 6 Note On - Duracao: 1800 Nota: C1 Vol.: 73
Chanel 8 Note Off - Duracao: 1800 Nota: C1 Vol.: 93
Chanel 8 Note On - Duracao: 1800 Nota: C1 Vol.: 94
Chanel 2 Note Off - Duracao: 1860 Nota: C1 Vol.: 89
Chanel 2 Note On - Duracao: 1860 Nota: C1 Vol.: 84
Chanel 1 Note Off - Duracao: 1920 Nota: C1 Vol.: 71
Chanel 1 Note On - Duracao: 1920 Nota: C1 Vol.: 71
Chanel 3 Note Off - Duracao: 1920 Nota: C1 Vol.: 79
Chanel 3 Note On - Duracao: 1920 Nota: C1 Vol.: 80
Chanel 5 Note Off - Duracao: 1920 Nota: C1 Vol.: 94
Chanel 5 Note On - Duracao: 1920 Nota: C1 Vol.: 98
Chanel 8 Note Off - Duracao: 1920 Nota: C1 Vol.: 94
Chanel 8 Note On - Duracao: 1920 Nota: C1 Vol.: 87
Chanel 9 Note Off - Duracao: 1920 Nota: C1 Vol.: 78
Chanel 9 Note On - Duracao: 1920 Nota: C1 Vol.: 77
Chanel 2 Note Off - Duracao: 1980 Nota: C1 Vol.: 84
Chanel 2 Note On - Duracao: 1980 Nota: C1 Vol.: 78
Chanel 5 Note Off - Duracao: 1980 Nota: C1 Vol.: 98
Chanel 5 Note On - Duracao: 1980 Nota: C1 Vol.: 99
Chanel 7 Note Off - Duracao: 1980 Nota: C1 Vol.: 65
Chanel 7 Note On - Duracao: 1980 Nota: C1 Vol.: 69
Chanel 5 Note Off - Duracao: 2040 Nota: C1 Vol.: 99
Chanel 5 Note On - Duracao: 2040 Nota: C1 Vol.: 96
Chanel 8 Note Off - Duracao: 2040 Nota: C1 Vol.: 87
Chanel 8 Note On - Duracao: 2040 Nota: C1 Vol.: 82
Chanel 5 Note Off - Duracao: 2100 Nota: C1 Vol.: 96
Chanel 5 Note On - Duracao: 2100 Nota: C1 Vol.: 96
Chanel 5 Note Off - Duracao: 2160 Nota: C1 Vol.: 96
Chanel 5 Note On - Duracao: 2160 Nota: C1 Vol.: 95
Chanel 2 Note Off - Duracao: 2220 Nota: C1 Vol.: 78
Chanel 2 Note On - Duracao: 2220 Nota: C1 Vol.: 74
Chanel 5 Note Off - Duracao: 2220 Nota: C1 Vol.: 95
Chanel 5 Note On - Duracao: 2220 Nota: C1 Vol.: 95
Chanel 5 Note Off - Duracao: 2280 Nota: C1 Vol.: 95
Chanel 5 Note On - Duracao: 2280 Nota: C1 Vol.: 93
Chanel 6 Note Off - Duracao: 2280 Nota: C1 Vol.: 73
Chanel 6 Note On - Duracao: 2280 Nota: C1 Vol.: 87
Chanel 8 Note Off - Duracao: 2280 Nota: C1 Vol.: 82
Chanel 8 Note On - Duracao: 2280 Nota: C1 Vol.: 83
Chanel 5 Note Off - Duracao: 2340 Nota: C1 Vol.: 93
Chanel 5 Note On - Duracao: 2340 Nota: C1 Vol.: 94
Chanel 1 Note Off - Duracao: 2400 Nota: C1 Vol.: 71
Chanel 1 Note On - Duracao: 2400 Nota: C1 Vol.: 80
Chanel 3 Note Off - Duracao: 2400 Nota: C1 Vol.: 80
Chanel 3 Note On - Duracao: 2400 Nota: C1 Vol.: 77
Chanel 5 Note Off - Duracao: 2400 Nota: C1 Vol.: 94
Chanel 5 Note On - Duracao: 2400 Nota: C1 Vol.: 93
Chanel 9 Note Off - Duracao: 2400 Nota: C1 Vol.: 77
Chanel 9 Note On - Duracao: 2400 Nota: C1 Vol.: 75
Chanel 2 Note Off - Duracao: 2460 Nota: C1 Vol.: 74
Chanel 2 Note On - Duracao: 2460 Nota: C1 Vol.: 82
Chanel 7 Note Off - Duracao: 2460 Nota: C1 Vol.: 69
Chanel 7 Note On - Duracao: 2460 Nota: C1 Vol.: 71
Chanel 5 Note Off - Duracao: 2520 Nota: C1 Vol.: 93
Chanel 5 Note On - Duracao: 2520 Nota: C1 Vol.: 96
Chanel 6 Note Off - Duracao: 2520 Nota: C1 Vol.: 87
Chanel 6 Note On - Duracao: 2520 Nota: C1 Vol.: 83
Chanel 8 Note Off - Duracao: 2520 Nota: C1 Vol.: 83
Chanel 8 Note On - Duracao: 2520 Nota: C1 Vol.: 97
Chanel 2 Note Off - Duracao: 2580 Nota: C1 Vol.: 82
Chanel 2 Note On - Duracao: 2580 Nota: C1 Vol.: 85
Chanel 1 Note Off - Duracao: 2640 Nota: C1 Vol.: 80
Chanel 1 Note On - Duracao: 2640 Nota: C1 Vol.: 94
Chanel 5 Note Off - Duracao: 2640 Nota: C1 Vol.: 96
Chanel 5 Note On - Duracao: 2640 Nota: C1 Vol.: 85
Chanel 8 Note Off - Duracao: 2640 Nota: C1 Vol.: 97
Chanel 8 Note On - Duracao: 2640 Nota: C1 Vol.: 84
Chanel 2 Note Off - Duracao: 2700 Nota: C1 Vol.: 85
Chanel 2 Note On - Duracao: 2700 Nota: C1 Vol.: 77
Chanel 1 Note Off - Duracao: 2760 Nota: C1 Vol.: 94
Chanel 1 Note On - Duracao: 2760 Nota: C1 Vol.: 94
Chanel 4 Note Off - Duracao: 2760 Nota: C1 Vol.: 73
Chanel 4 Note On - Duracao: 2760 Nota: C1 Vol.: 81
Chanel 6 Note Off - Duracao: 2760 Nota: C1 Vol.: 83
Chanel 6 Note On - Duracao: 2760 Nota: C1 Vol.: 72
Chanel 1 Note Off - Duracao: 2880 Nota: C1 Vol.: 94
Chanel 1 Note On - Duracao: 2880 Nota: C1 Vol.: 95
Chanel 3 Note Off - Duracao: 2880 Nota: C1 Vol.: 77
Chanel 3 Note On - Duracao: 2880 Nota: C1 Vol.: 80
Chanel 5 Note Off - Duracao: 2880 Nota: C1 Vol.: 85
Chanel 5 Note On - Duracao: 2880 Nota: C1 Vol.: 74
Chanel 8 Note Off - Duracao: 2880 Nota: C1 Vol.: 84
Chanel 8 Note On - Duracao: 2880 Nota: C1 Vol.: 88
Chanel 9 Note Off - Duracao: 2880 Nota: C1 Vol.: 75
Chanel 9 Note On - Duracao: 2880 Nota: C1 Vol.: 76
Chanel 2 Note Off - Duracao: 2940 Nota: C1 Vol.: 77
Chanel 2 Note On - Duracao: 2940 Nota: C1 Vol.: 79
Chanel 7 Note Off - Duracao: 2940 Nota: C1 Vol.: 71
Chanel 7 Note On - Duracao: 2940 Nota: C1 Vol.: 93
Chanel 1 Note Off - Duracao: 3000 Nota: C1 Vol.: 95
Chanel 1 Note On - Duracao: 3000 Nota: C1 Vol.: 80
Chanel 7 Note Off - Duracao: 3060 Nota: C1 Vol.: 93
Chanel 7 Note On - Duracao: 3060 Nota: C1 Vol.: 78
Chanel 3 Note Off - Duracao: 3120 Nota: C1 Vol.: 80
Chanel 3 Note On - Duracao: 3120 Nota: C1 Vol.: 75
Chanel 8 Note Off - Duracao: 3120 Nota: C1 Vol.: 88
Chanel 8 Note On - Duracao: 3120 Nota: C1 Vol.: 84
Chanel 2 Note Off - Duracao: 3180 Nota: C1 Vol.: 79
Chanel 2 Note On - Duracao: 3180 Nota: C1 Vol.: 78
Chanel 6 Note Off - Duracao: 3240 Nota: C1 Vol.: 72
Chanel 6 Note On - Duracao: 3240 Nota: C1 Vol.: 58
Chanel 3 Note Off - Duracao: 3360 Nota: C1 Vol.: 75
Chanel 3 Note On - Duracao: 3360 Nota: C1 Vol.: 77
Chanel 8 Note Off - Duracao: 3360 Nota: C1 Vol.: 84
Chanel 8 Note On - Duracao: 3360 Nota: C1 Vol.: 81
Chanel 9 Note Off - Duracao: 3360 Nota: C1 Vol.: 76
Chanel 9 Note On - Duracao: 3360 Nota: C1 Vol.: 71
Chanel 10 Note Off - Duracao: 3360 Nota: C1 Vol.: 62
Chanel 10 Note On - Duracao: 3360 Nota: C1 Vol.: 59
Chanel 2 Note Off - Duracao: 3420 Nota: C1 Vol.: 78
Chanel 2 Note On - Duracao: 3420 Nota: C1 Vol.: 75
Chanel 7 Note Off - Duracao: 3540 Nota: C1 Vol.: 78
Chanel 7 Note On - Duracao: 3540 Nota: C1 Vol.: 62
Chanel 3 Note Off - Duracao: 3600 Nota: C1 Vol.: 77
Chanel 3 Note On - Duracao: 3600 Nota: C1 Vol.: 82
Chanel 8 Note Off - Duracao: 3600 Nota: C1 Vol.: 81
Chanel 8 Note On - Duracao: 3600 Nota: C1 Vol.: 92
Chanel 2 Note Off - Duracao: 3660 Nota: C1 Vol.: 75
Chanel 2 Note On - Duracao: 3660 Nota: C1 Vol.: 75
Chanel 4 Note Off - Duracao: 3720 Nota: C1 Vol.: 81
Chanel 4 Note On - Duracao: 3720 Nota: C1 Vol.: 81
Chanel 8 Note Off - Duracao: 3720 Nota: C1 Vol.: 92
Chanel 8 Note On - Duracao: 3720 Nota: C1 Vol.: 96
Chanel 8 Note Off - Duracao: 3780 Nota: C1 Vol.: 96
Chanel 8 Note On - Duracao: 3780 Nota: C1 Vol.: 88
Chanel 3 Note Off - Duracao: 3840 Nota: C1 Vol.: 82
Chanel 3 Note On - Duracao: 3840 Nota: C1 Vol.: 82
Chanel 5 Note Off - Duracao: 3840 Nota: C1 Vol.: 74
Chanel 5 Note On - Duracao: 3840 Nota: C1 Vol.: 65
Chanel 9 Note Off - Duracao: 3840 Nota: C1 Vol.: 71
Chanel 9 Note On - Duracao: 3840 Nota: C1 Vol.: 76
Chanel 2 Note Off - Duracao: 3900 Nota: C1 Vol.: 75
Chanel 2 Note On - Duracao: 3900 Nota: C1 Vol.: 89
Chanel 8 Note Off - Duracao: 3900 Nota: C1 Vol.: 88
Chanel 8 Note On - Duracao: 3900 Nota: C1 Vol.: 86
Chanel 1 Note Off - Duracao: 3960 Nota: C1 Vol.: 80
Chanel 1 Note On - Duracao: 3960 Nota: C1 Vol.: 82
Chanel 2 Note Off - Duracao: 4020 Nota: C1 Vol.: 89
Chanel 2 Note On - Duracao: 4020 Nota: C1 Vol.: 91
Chanel 3 Note Off - Duracao: 4080 Nota: C1 Vol.: 82
Chanel 3 Note On - Duracao: 4080 Nota: C1 Vol.: 79
Chanel 2 Note Off - Duracao: 4140 Nota: C1 Vol.: 91
Chanel 2 Note On - Duracao: 4140 Nota: C1 Vol.: 87
Chanel 8 Note Off - Duracao: 4140 Nota: C1 Vol.: 86
Chanel 8 Note On - Duracao: 4140 Nota: C1 Vol.: 84
Chanel 3 Note Off - Duracao: 4320 Nota: C1 Vol.: 79
Chanel 3 Note On - Duracao: 4320 Nota: C1 Vol.: 76
Chanel 9 Note Off - Duracao: 4320 Nota: C1 Vol.: 76
Chanel 9 Note On - Duracao: 4320 Nota: C1 Vol.: 77
Chanel 2 Note Off - Duracao: 4380 Nota: C1 Vol.: 87
Chanel 2 Note On - Duracao: 4380 Nota: C1 Vol.: 91
Chanel 8 Note Off - Duracao: 4380 Nota: C1 Vol.: 84
Chanel 8 Note On - Duracao: 4380 Nota: C1 Vol.: 67
Chanel 7 Note Off - Duracao: 4500 Nota: C1 Vol.: 62
Chanel 7 Note On - Duracao: 4500 Nota: C1 Vol.: 91
Chanel 3 Note Off - Duracao: 4560 Nota: C1 Vol.: 76
Chanel 3 Note On - Duracao: 4560 Nota: C1 Vol.: 79
Chanel 2 Note Off - Duracao: 4620 Nota: C1 Vol.: 91
Chanel 2 Note On - Duracao: 4620 Nota: C1 Vol.: 88
Chanel 7 Note Off - Duracao: 4620 Nota: C1 Vol.: 91
Chanel 7 Note On - Duracao: 4620 Nota: C1 Vol.: 91
Chanel 4 Note Off - Duracao: 4680 Nota: C1 Vol.: 81
Chanel 4 Note On - Duracao: 4680 Nota: C1 Vol.: 86
Chanel 7 Note Off - Duracao: 4740 Nota: C1 Vol.: 91
Chanel 7 Note On - Duracao: 4740 Nota: C1 Vol.: 98
Chanel 3 Note Off - Duracao: 4800 Nota: C1 Vol.: 79
Chanel 3 Note On - Duracao: 4800 Nota: C1 Vol.: 85
Chanel 9 Note Off - Duracao: 4800 Nota: C1 Vol.: 77
Chanel 9 Note On - Duracao: 4800 Nota: C1 Vol.: 77
Chanel 2 Note Off - Duracao: 4860 Nota: C1 Vol.: 88
Chanel 2 Note On - Duracao: 4860 Nota: C1 Vol.: 89
Chanel 7 Note Off - Duracao: 4860 Nota: C1 Vol.: 98
Chanel 7 Note On - Duracao: 4860 Nota: C1 Vol.: 98
Chanel 1 Note Off - Duracao: 4920 Nota: C1 Vol.: 82
Chanel 1 Note On - Duracao: 4920 Nota: C1 Vol.: 79
Chanel 3 Note Off - Duracao: 4920 Nota: C1 Vol.: 85
Chanel 3 Note On - Duracao: 4920 Nota: C1 Vol.: 84
Chanel 7 Note Off - Duracao: 4920 Nota: C1 Vol.: 98
Chanel 7 Note On - Duracao: 4920 Nota: C1 Vol.: 79
Chanel 9 Note Off - Duracao: 5040 Nota: C1 Vol.: 77
Chanel 9 Note On - Duracao: 5040 Nota: C1 Vol.: 86
Chanel 2 Note Off - Duracao: 5100 Nota: C1 Vol.: 89
Chanel 2 Note On - Duracao: 5100 Nota: C1 Vol.: 82
Chanel 3 Note Off - Duracao: 5160 Nota: C1 Vol.: 84
Chanel 3 Note On - Duracao: 5160 Nota: C1 Vol.: 78
Chanel 4 Note Off - Duracao: 5160 Nota: C1 Vol.: 86
Chanel 4 Note On - Duracao: 5160 Nota: C1 Vol.: 79
Chanel 6 Note Off - Duracao: 5160 Nota: C1 Vol.: 58
Chanel 6 Note On - Duracao: 5160 Nota: C1 Vol.: 67
Chanel 9 Note Off - Duracao: 5160 Nota: C1 Vol.: 86
Chanel 9 Note On - Duracao: 5160 Nota: C1 Vol.: 79
Chanel 10 Note Off - Duracao: 5280 Nota: C1 Vol.: 59
Chanel 10 Note On - Duracao: 5280 Nota: C1 Vol.: 62
Chanel 8 Note Off - Duracao: 5340 Nota: C1 Vol.: 67
Chanel 8 Note On - Duracao: 5340 Nota: C1 Vol.: 70
Chanel 7 Note Off - Duracao: 5400 Nota: C1 Vol.: 79
Chanel 7 Note On - Duracao: 5400 Nota: C1 Vol.: 72
Chanel 9 Note Off - Duracao: 5400 Nota: C1 Vol.: 79
Chanel 9 Note On - Duracao: 5400 Nota: C1 Vol.: 69
Chanel 2 Note Off - Duracao: 5580 Nota: C1 Vol.: 82
Chanel 2 Note On - Duracao: 5580 Nota: C1 Vol.: 76
Chanel 3 Note Off - Duracao: 5640 Nota: C1 Vol.: 78
Chanel 3 Note On - Duracao: 5640 Nota: C1 Vol.: 85
Chanel 5 Note Off - Duracao: 5760 Nota: C1 Vol.: 65
Chanel 5 Note On - Duracao: 5760 Nota: C1 Vol.: 60
Chanel 1 Note Off - Duracao: 5880 Nota: C1 Vol.: 79
Chanel 1 Note On - Duracao: 5880 Nota: C1 Vol.: 75
Chanel 9 Note Off - Duracao: 5880 Nota: C1 Vol.: 69
Chanel 9 Note On - Duracao: 5880 Nota: C1 Vol.: 69
Chanel 3 Note Off - Duracao: 6120 Nota: C1 Vol.: 85
Chanel 3 Note On - Duracao: 6120 Nota: C1 Vol.: 87
Chanel 4 Note Off - Duracao: 6120 Nota: C1 Vol.: 79
Chanel 4 Note On - Duracao: 6120 Nota: C1 Vol.: 98
Chanel 6 Note Off - Duracao: 6120 Nota: C1 Vol.: 67
Chanel 6 Note On - Duracao: 6120 Nota: C1 Vol.: 71
Chanel 4 Note Off - Duracao: 6240 Nota: C1 Vol.: 98
Chanel 4 Note On - Duracao: 6240 Nota: C1 Vol.: 96
Chanel 8 Note Off - Duracao: 6300 Nota: C1 Vol.: 70
Chanel 8 Note On - Duracao: 6300 Nota: C1 Vol.: 69
Chanel 4 Note Off - Duracao: 6360 Nota: C1 Vol.: 96
Chanel 4 Note On - Duracao: 6360 Nota: C1 Vol.: 96
Chanel 7 Note Off - Duracao: 6360 Nota: C1 Vol.: 72
Chanel 7 Note On - Duracao: 6360 Nota: C1 Vol.: 82
Chanel 9 Note Off - Duracao: 6360 Nota: C1 Vol.: 69
Chanel 9 Note On - Duracao: 6360 Nota: C1 Vol.: 72
Chanel 4 Note Off - Duracao: 6420 Nota: C1 Vol.: 96
Chanel 4 Note On - Duracao: 6420 Nota: C1 Vol.: 97
Chanel 4 Note Off - Duracao: 6480 Nota: C1 Vol.: 97
Chanel 4 Note On - Duracao: 6480 Nota: C1 Vol.: 90
Chanel 2 Note Off - Duracao: 6540 Nota: C1 Vol.: 76
Chanel 2 Note On - Duracao: 6540 Nota: C1 Vol.: 77
Chanel 3 Note Off - Duracao: 6600 Nota: C1 Vol.: 87
Chanel 3 Note On - Duracao: 6600 Nota: C1 Vol.: 83
Chanel 4 Note Off - Duracao: 6600 Nota: C1 Vol.: 90
Chanel 4 Note On - Duracao: 6600 Nota: C1 Vol.: 60
Chanel 8 Note Off - Duracao: 6780 Nota: C1 Vol.: 69
Chanel 8 Note On - Duracao: 6780 Nota: C1 Vol.: 64
Chanel 1 Note Off - Duracao: 6840 Nota: C1 Vol.: 75
Chanel 1 Note On - Duracao: 6840 Nota: C1 Vol.: 87
Chanel 9 Note Off - Duracao: 6840 Nota: C1 Vol.: 72
Chanel 9 Note On - Duracao: 6840 Nota: C1 Vol.: 71
Chanel 3 Note Off - Duracao: 7080 Nota: C1 Vol.: 83
Chanel 3 Note On - Duracao: 7080 Nota: C1 Vol.: 87
Chanel 6 Note Off - Duracao: 7080 Nota: C1 Vol.: 71
Chanel 6 Note On - Duracao: 7080 Nota: C1 Vol.: 73
Chanel 10 Note Off - Duracao: 7200 Nota: C1 Vol.: 62
Chanel 10 Note On - Duracao: 7200 Nota: C1 Vol.: 72
Chanel 8 Note Off - Duracao: 7260 Nota: C1 Vol.: 64
Chanel 8 Note On - Duracao: 7260 Nota: C1 Vol.: 66
Chanel 1 Note Off - Duracao: 7320 Nota: C1 Vol.: 87
Chanel 1 Note On - Duracao: 7320 Nota: C1 Vol.: 91
Chanel 3 Note Off - Duracao: 7320 Nota: C1 Vol.: 87
Chanel 3 Note On - Duracao: 7320 Nota: C1 Vol.: 72
Chanel 7 Note Off - Duracao: 7320 Nota: C1 Vol.: 82
Chanel 7 Note On - Duracao: 7320 Nota: C1 Vol.: 64
Chanel 9 Note Off - Duracao: 7320 Nota: C1 Vol.: 71
Chanel 9 Note On - Duracao: 7320 Nota: C1 Vol.: 62
Chanel 2 Note Off - Duracao: 7500 Nota: C1 Vol.: 77
Chanel 2 Note On - Duracao: 7500 Nota: C1 Vol.: 76
Chanel 1 Note Off - Duracao: 7560 Nota: C1 Vol.: 91
Chanel 1 Note On - Duracao: 7560 Nota: C1 Vol.: 92
Chanel 5 Note Off - Duracao: 7680 Nota: C1 Vol.: 60
Chanel 5 Note On - Duracao: 7680 Nota: C1 Vol.: 60
Chanel 8 Note Off - Duracao: 7740 Nota: C1 Vol.: 66
Chanel 8 Note On - Duracao: 7740 Nota: C1 Vol.: 64
Chanel 1 Note Off - Duracao: 7800 Nota: C1 Vol.: 92
Chanel 1 Note On - Duracao: 7800 Nota: C1 Vol.: 85
Chanel 6 Note Off - Duracao: 8040 Nota: C1 Vol.: 73
Chanel 6 Note On - Duracao: 8040 Nota: C1 Vol.: 62
Chanel 10 Note Off - Duracao: 8160 Nota: C1 Vol.: 72
Chanel 10 Note On - Duracao: 8160 Nota: C1 Vol.: 73
Chanel 1 Note Off - Duracao: 8280 Nota: C1 Vol.: 85
Chanel 1 Note On - Duracao: 8280 Nota: C1 Vol.: 85
Chanel 3 Note Off - Duracao: 8280 Nota: C1 Vol.: 72
Chanel 3 Note On - Duracao: 8280 Nota: C1 Vol.: 63
Chanel 9 Note Off - Duracao: 8280 Nota: C1 Vol.: 62
Chanel 9 Note On - Duracao: 8280 Nota: C1 Vol.: 68
Chanel 2 Note Off - Duracao: 8460 Nota: C1 Vol.: 76
Chanel 2 Note On - Duracao: 8460 Nota: C1 Vol.: 70
Chanel 4 Note Off - Duracao: 8520 Nota: C1 Vol.: 60
Chanel 4 Note On - Duracao: 8520 Nota: C1 Vol.: 64
Chanel 8 Note Off - Duracao: 8700 Nota: C1 Vol.: 64
Chanel 8 Note On - Duracao: 8700 Nota: C1 Vol.: 70
Chanel 1 Note Off - Duracao: 8760 Nota: C1 Vol.: 85
Chanel 1 Note On - Duracao: 8760 Nota: C1 Vol.: 86
Chanel 9 Note Off - Duracao: 8760 Nota: C1 Vol.: 68
Chanel 9 Note On - Duracao: 8760 Nota: C1 Vol.: 67
Chanel 10 Note Off - Duracao: 9120 Nota: C1 Vol.: 73
Chanel 10 Note On - Duracao: 9120 Nota: C1 Vol.: 74
Chanel 8 Note Off - Duracao: 9180 Nota: C1 Vol.: 70
Chanel 8 Note On - Duracao: 9180 Nota: C1 Vol.: 81
Chanel 3 Note Off - Duracao: 9240 Nota: C1 Vol.: 63
Chanel 3 Note On - Duracao: 9240 Nota: C1 Vol.: 70
Chanel 9 Note Off - Duracao: 9240 Nota: C1 Vol.: 67
Chanel 9 Note On - Duracao: 9240 Nota: C1 Vol.: 57
Chanel 8 Note Off - Duracao: 9420 Nota: C1 Vol.: 81
Chanel 8 Note On - Duracao: 9420 Nota: C1 Vol.: 88
Chanel 5 Note Off - Duracao: 9600 Nota: C1 Vol.: 60
Chanel 5 Note On - Duracao: 9600 Nota: C1 Vol.: 68
Chanel 8 Note Off - Duracao: 9660 Nota: C1 Vol.: 88
Chanel 8 Note On - Duracao: 9660 Nota: C1 Vol.: 87
Chanel 1 Note Off - Duracao: 9720 Nota: C1 Vol.: 86
Chanel 1 Note On - Duracao: 9720 Nota: C1 Vol.: 87
Chanel 9 Note Off - Duracao: 9720 Nota: C1 Vol.: 57
Chanel 9 Note On - Duracao: 9720 Nota: C1 Vol.: 60
Chanel 8 Note Off - Duracao: 9900 Nota: C1 Vol.: 87
Chanel 8 Note On - Duracao: 9900 Nota: C1 Vol.: 88
Chanel 6 Note Off - Duracao: 9960 Nota: C1 Vol.: 62
Chanel 6 Note On - Duracao: 9960 Nota: C1 Vol.: 61
Chanel 10 Note Off - Duracao: 10080 Nota: C1 Vol.: 74
Chanel 10 Note On - Duracao: 10080 Nota: C1 Vol.: 73
Chanel 8 Note Off - Duracao: 10140 Nota: C1 Vol.: 88
Chanel 8 Note On - Duracao: 10140 Nota: C1 Vol.: 78
Chanel 3 Note Off - Duracao: 10200 Nota: C1 Vol.: 70
Chanel 3 Note On - Duracao: 10200 Nota: C1 Vol.: 71
Chanel 9 Note Off - Duracao: 10200 Nota: C1 Vol.: 60
Chanel 9 Note On - Duracao: 10200 Nota: C1 Vol.: 60
Chanel 2 Note Off - Duracao: 10380 Nota: C1 Vol.: 70
Chanel 2 Note On - Duracao: 10380 Nota: C1 Vol.: 74
Chanel 4 Note Off - Duracao: 10440 Nota: C1 Vol.: 64
Chanel 4 Note On - Duracao: 10440 Nota: C1 Vol.: 66
Chanel 5 Note Off - Duracao: 10560 Nota: C1 Vol.: 68
Chanel 5 Note On - Duracao: 10560 Nota: C1 Vol.: 59
Chanel 8 Note Off - Duracao: 10620 Nota: C1 Vol.: 78
Chanel 8 Note On - Duracao: 10620 Nota: C1 Vol.: 79
Chanel 1 Note Off - Duracao: 10680 Nota: C1 Vol.: 87
Chanel 1 Note On - Duracao: 10680 Nota: C1 Vol.: 86
Chanel 3 Note Off - Duracao: 10680 Nota: C1 Vol.: 71
Chanel 3 Note On - Duracao: 10680 Nota: C1 Vol.: 77
Chanel 9 Note Off - Duracao: 10680 Nota: C1 Vol.: 60
Chanel 9 Note On - Duracao: 10680 Nota: C1 Vol.: 61
Chanel 10 Note Off - Duracao: 11040 Nota: C1 Vol.: 73
Chanel 10 Note On - Duracao: 11040 Nota: C1 Vol.: 71
Chanel 8 Note Off - Duracao: 11100 Nota: C1 Vol.: 79
Chanel 8 Note On - Duracao: 11100 Nota: C1 Vol.: 71
Chanel 1 Note Off - Duracao: 11160 Nota: C1 Vol.: 86
Chanel 1 Note On - Duracao: 11160 Nota: C1 Vol.: 88
Chanel 3 Note Off - Duracao: 11160 Nota: C1 Vol.: 77
Chanel 3 Note On - Duracao: 11160 Nota: C1 Vol.: 80
Chanel 7 Note Off - Duracao: 11160 Nota: C1 Vol.: 64
Chanel 7 Note On - Duracao: 11160 Nota: C1 Vol.: 88
Chanel 1 Note Off - Duracao: 11400 Nota: C1 Vol.: 88
Chanel 1 Note On - Duracao: 11400 Nota: C1 Vol.: 95
Chanel 4 Note Off - Duracao: 11400 Nota: C1 Vol.: 66
Chanel 4 Note On - Duracao: 11400 Nota: C1 Vol.: 72
Chanel 1 Note Off - Duracao: 11520 Nota: C1 Vol.: 95
Chanel 1 Note On - Duracao: 11520 Nota: C1 Vol.: 94
Chanel 1 Note Off - Duracao: 11640 Nota: C1 Vol.: 94
Chanel 1 Note On - Duracao: 11640 Nota: C1 Vol.: 98
Chanel 3 Note Off - Duracao: 11640 Nota: C1 Vol.: 80
Chanel 3 Note On - Duracao: 11640 Nota: C1 Vol.: 77
Chanel 7 Note Off - Duracao: 11640 Nota: C1 Vol.: 88
Chanel 7 Note On - Duracao: 11640 Nota: C1 Vol.: 93
Chanel 9 Note Off - Duracao: 11640 Nota: C1 Vol.: 61
Chanel 9 Note On - Duracao: 11640 Nota: C1 Vol.: 71
Chanel 1 Note Off - Duracao: 11700 Nota: C1 Vol.: 98
Chanel 1 Note On - Duracao: 11700 Nota: C1 Vol.: 83
Chanel 6 Note Off - Duracao: 11880 Nota: C1 Vol.: 61
Chanel 6 Note On - Duracao: 11880 Nota: C1 Vol.: 73
Chanel 1 Note Off - Duracao: 11940 Nota: C1 Vol.: 83
Chanel 1 Note On - Duracao: 11940 Nota: C1 Vol.: 73
Chanel 10 Note Off - Duracao: 12000 Nota: C1 Vol.: 71
Chanel 10 Note On - Duracao: 12000 Nota: C1 Vol.: 67
Chanel 8 Note Off - Duracao: 12060 Nota: C1 Vol.: 71
Chanel 8 Note On - Duracao: 12060 Nota: C1 Vol.: 87
Chanel 3 Note Off - Duracao: 12120 Nota: C1 Vol.: 77
Chanel 3 Note On - Duracao: 12120 Nota: C1 Vol.: 65
Chanel 7 Note Off - Duracao: 12120 Nota: C1 Vol.: 93
Chanel 7 Note On - Duracao: 12120 Nota: C1 Vol.: 91
Chanel 9 Note Off - Duracao: 12120 Nota: C1 Vol.: 71
Chanel 9 Note On - Duracao: 12120 Nota: C1 Vol.: 77
Chanel 2 Note Off - Duracao: 12300 Nota: C1 Vol.: 74
Chanel 2 Note On - Duracao: 12300 Nota: C1 Vol.: 77
Chanel 4 Note Off - Duracao: 12360 Nota: C1 Vol.: 72
Chanel 4 Note On - Duracao: 12360 Nota: C1 Vol.: 72
Chanel 9 Note Off - Duracao: 12360 Nota: C1 Vol.: 77
Chanel 9 Note On - Duracao: 12360 Nota: C1 Vol.: 67
Chanel 5 Note Off - Duracao: 12480 Nota: C1 Vol.: 59
Chanel 5 Note On - Duracao: 12480 Nota: C1 Vol.: 59
Chanel 8 Note Off - Duracao: 12540 Nota: C1 Vol.: 87
Chanel 8 Note On - Duracao: 12540 Nota: C1 Vol.: 88
Chanel 7 Note Off - Duracao: 12600 Nota: C1 Vol.: 91
Chanel 7 Note On - Duracao: 12600 Nota: C1 Vol.: 91
Chanel 6 Note Off - Duracao: 12840 Nota: C1 Vol.: 73
Chanel 6 Note On - Duracao: 12840 Nota: C1 Vol.: 79
Chanel 7 Note Off - Duracao: 12840 Nota: C1 Vol.: 91
Chanel 7 Note On - Duracao: 12840 Nota: C1 Vol.: 84
Chanel 9 Note Off - Duracao: 12840 Nota: C1 Vol.: 67
Chanel 9 Note On - Duracao: 12840 Nota: C1 Vol.: 66
Chanel 1 Note Off - Duracao: 12900 Nota: C1 Vol.: 73
Chanel 1 Note On - Duracao: 12900 Nota: C1 Vol.: 83
Chanel 10 Note Off - Duracao: 12960 Nota: C1 Vol.: 67
Chanel 10 Note On - Duracao: 12960 Nota: C1 Vol.: 71
Chanel 8 Note Off - Duracao: 13020 Nota: C1 Vol.: 88
Chanel 8 Note On - Duracao: 13020 Nota: C1 Vol.: 86
Chanel 9 Note Off - Duracao: 13080 Nota: C1 Vol.: 66
Chanel 9 Note On - Duracao: 13080 Nota: C1 Vol.: 63
Chanel 4 Note Off - Duracao: 13320 Nota: C1 Vol.: 72
Chanel 4 Note On - Duracao: 13320 Nota: C1 Vol.: 76
Chanel 7 Note Off - Duracao: 13320 Nota: C1 Vol.: 84
Chanel 7 Note On - Duracao: 13320 Nota: C1 Vol.: 93
Chanel 9 Note Off - Duracao: 13320 Nota: C1 Vol.: 63
Chanel 9 Note On - Duracao: 13320 Nota: C1 Vol.: 60
Chanel 1 Note Off - Duracao: 13380 Nota: C1 Vol.: 83
Chanel 1 Note On - Duracao: 13380 Nota: C1 Vol.: 88
Chanel 8 Note Off - Duracao: 13500 Nota: C1 Vol.: 86
Chanel 8 Note On - Duracao: 13500 Nota: C1 Vol.: 81
Chanel 6 Note Off - Duracao: 13800 Nota: C1 Vol.: 79
Chanel 6 Note On - Duracao: 13800 Nota: C1 Vol.: 79
Chanel 7 Note Off - Duracao: 13800 Nota: C1 Vol.: 93
Chanel 7 Note On - Duracao: 13800 Nota: C1 Vol.: 87
Chanel 9 Note Off - Duracao: 13800 Nota: C1 Vol.: 60
Chanel 9 Note On - Duracao: 13800 Nota: C1 Vol.: 61
Chanel 1 Note Off - Duracao: 13860 Nota: C1 Vol.: 88
Chanel 1 Note On - Duracao: 13860 Nota: C1 Vol.: 83
Chanel 10 Note Off - Duracao: 13920 Nota: C1 Vol.: 71
Chanel 10 Note On - Duracao: 13920 Nota: C1 Vol.: 72
Chanel 3 Note Off - Duracao: 14040 Nota: C1 Vol.: 65
Chanel 3 Note On - Duracao: 14040 Nota: C1 Vol.: 73
Chanel 1 Note Off - Duracao: 14100 Nota: C1 Vol.: 83
Chanel 1 Note On - Duracao: 14100 Nota: C1 Vol.: 93
Chanel 1 Note Off - Duracao: 14220 Nota: C1 Vol.: 93
Chanel 1 Note On - Duracao: 14220 Nota: C1 Vol.: 92
Chanel 2 Note Off - Duracao: 14220 Nota: C1 Vol.: 77
Chanel 2 Note On - Duracao: 14220 Nota: C1 Vol.: 81
Chanel 4 Note Off - Duracao: 14280 Nota: C1 Vol.: 76
Chanel 4 Note On - Duracao: 14280 Nota: C1 Vol.: 74
Chanel 7 Note Off - Duracao: 14280 Nota: C1 Vol.: 87
Chanel 7 Note On - Duracao: 14280 Nota: C1 Vol.: 75
Chanel 9 Note Off - Duracao: 14280 Nota: C1 Vol.: 61
Chanel 9 Note On - Duracao: 14280 Nota: C1 Vol.: 60
Chanel 1 Note Off - Duracao: 14340 Nota: C1 Vol.: 92
Chanel 1 Note On - Duracao: 14340 Nota: C1 Vol.: 90
Chanel 5 Note Off - Duracao: 14400 Nota: C1 Vol.: 59
Chanel 5 Note On - Duracao: 14400 Nota: C1 Vol.: 66
Chanel 1 Note Off - Duracao: 14460 Nota: C1 Vol.: 90
Chanel 1 Note On - Duracao: 14460 Nota: C1 Vol.: 97
Chanel 8 Note Off - Duracao: 14460 Nota: C1 Vol.: 81
Chanel 8 Note On - Duracao: 14460 Nota: C1 Vol.: 81
Chanel 1 Note Off - Duracao: 14520 Nota: C1 Vol.: 97
Chanel 1 Note On - Duracao: 14520 Nota: C1 Vol.: 96
Chanel 1 Note Off - Duracao: 14580 Nota: C1 Vol.: 96
Chanel 1 Note On - Duracao: 14580 Nota: C1 Vol.: 94
Chanel 1 Note Off - Duracao: 14700 Nota: C1 Vol.: 94
Chanel 1 Note On - Duracao: 14700 Nota: C1 Vol.: 94
Chanel 1 Note Off - Duracao: 14760 Nota: C1 Vol.: 94
Chanel 1 Note On - Duracao: 14760 Nota: C1 Vol.: 96
Chanel 6 Note Off - Duracao: 14760 Nota: C1 Vol.: 79
Chanel 6 Note On - Duracao: 14760 Nota: C1 Vol.: 78
Chanel 1 Note Off - Duracao: 14820 Nota: C1 Vol.: 96
Chanel 1 Note On - Duracao: 14820 Nota: C1 Vol.: 95
Chanel 1 Note Off - Duracao: 14880 Nota: C1 Vol.: 95
Chanel 1 Note On - Duracao: 14880 Nota: C1 Vol.: 97
Chanel 10 Note Off - Duracao: 14880 Nota: C1 Vol.: 72
Chanel 10 Note On - Duracao: 14880 Nota: C1 Vol.: 69
Chanel 1 Note Off - Duracao: 14940 Nota: C1 Vol.: 97
Chanel 1 Note On - Duracao: 14940 Nota: C1 Vol.: 96
Chanel 1 Note Off - Duracao: 15000 Nota: C1 Vol.: 96
Chanel 1 Note On - Duracao: 15000 Nota: C1 Vol.: 98
Chanel 3 Note Off - Duracao: 15000 Nota: C1 Vol.: 73
Chanel 3 Note On - Duracao: 15000 Nota: C1 Vol.: 65
Chanel 1 Note Off - Duracao: 15060 Nota: C1 Vol.: 98
Chanel 1 Note On - Duracao: 15060 Nota: C1 Vol.: 98
Chanel 1 Note Off - Duracao: 15180 Nota: C1 Vol.: 98
Chanel 1 Note On - Duracao: 15180 Nota: C1 Vol.: 96
Chanel 4 Note Off - Duracao: 15240 Nota: C1 Vol.: 74
Chanel 4 Note On - Duracao: 15240 Nota: C1 Vol.: 80
Chanel 1 Note Off - Duracao: 15300 Nota: C1 Vol.: 96
Chanel 1 Note On - Duracao: 15300 Nota: C1 Vol.: 90
Chanel 1 Note Off - Duracao: 15420 Nota: C1 Vol.: 90
Chanel 1 Note On - Duracao: 15420 Nota: C1 Vol.: 83
Chanel 8 Note Off - Duracao: 15420 Nota: C1 Vol.: 81
Chanel 8 Note On - Duracao: 15420 Nota: C1 Vol.: 83
Chanel 1 Note Off - Duracao: 15660 Nota: C1 Vol.: 83
Chanel 1 Note On - Duracao: 15660 Nota: C1 Vol.: 78
Chanel 6 Note Off - Duracao: 15720 Nota: C1 Vol.: 78
Chanel 6 Note On - Duracao: 15720 Nota: C1 Vol.: 72
Chanel 10 Note Off - Duracao: 15840 Nota: C1 Vol.: 69
Chanel 10 Note On - Duracao: 15840 Nota: C1 Vol.: 63
Chanel 1 Note Off - Duracao: 15900 Nota: C1 Vol.: 78
Chanel 1 Note On - Duracao: 15900 Nota: C1 Vol.: 78
Chanel 3 Note Off - Duracao: 15960 Nota: C1 Vol.: 65
Chanel 3 Note On - Duracao: 15960 Nota: C1 Vol.: 79
Chanel 2 Note Off - Duracao: 16140 Nota: C1 Vol.: 81
Chanel 2 Note On - Duracao: 16140 Nota: C1 Vol.: 84
Chanel 4 Note Off - Duracao: 16200 Nota: C1 Vol.: 80
Chanel 4 Note On - Duracao: 16200 Nota: C1 Vol.: 61
Chanel 7 Note Off - Duracao: 16200 Nota: C1 Vol.: 75
Chanel 7 Note On - Duracao: 16200 Nota: C1 Vol.: 82
Chanel 9 Note Off - Duracao: 16200 Nota: C1 Vol.: 60
Chanel 9 Note On - Duracao: 16200 Nota: C1 Vol.: 80
Chanel 5 Note Off - Duracao: 16320 Nota: C1 Vol.: 66
Chanel 5 Note On - Duracao: 16320 Nota: C1 Vol.: 56
Chanel 1 Note Off - Duracao: 16380 Nota: C1 Vol.: 78
Chanel 1 Note On - Duracao: 16380 Nota: C1 Vol.: 79
Chanel 8 Note Off - Duracao: 16380 Nota: C1 Vol.: 83
Chanel 8 Note On - Duracao: 16380 Nota: C1 Vol.: 84
Chanel 3 Note Off - Duracao: 16440 Nota: C1 Vol.: 79
Chanel 3 Note On - Duracao: 16440 Nota: C1 Vol.: 73
Chanel 1 Note Off - Duracao: 16860 Nota: C1 Vol.: 79
Chanel 1 Note On - Duracao: 16860 Nota: C1 Vol.: 82
Chanel 1 Note Off - Duracao: 17100 Nota: C1 Vol.: 82
Chanel 1 Note On - Duracao: 17100 Nota: C1 Vol.: 86
Chanel 7 Note Off - Duracao: 17160 Nota: C1 Vol.: 82
Chanel 7 Note On - Duracao: 17160 Nota: C1 Vol.: 70
Chanel 9 Note Off - Duracao: 17160 Nota: C1 Vol.: 80
Chanel 9 Note On - Duracao: 17160 Nota: C1 Vol.: 90
Chanel 1 Note Off - Duracao: 17340 Nota: C1 Vol.: 86
Chanel 1 Note On - Duracao: 17340 Nota: C1 Vol.: 87
Chanel 8 Note Off - Duracao: 17340 Nota: C1 Vol.: 84
Chanel 8 Note On - Duracao: 17340 Nota: C1 Vol.: 81
Chanel 3 Note Off - Duracao: 17400 Nota: C1 Vol.: 73
Chanel 3 Note On - Duracao: 17400 Nota: C1 Vol.: 79
Chanel 1 Note Off - Duracao: 17460 Nota: C1 Vol.: 87
Chanel 1 Note On - Duracao: 17460 Nota: C1 Vol.: 91
Chanel 1 Note Off - Duracao: 17580 Nota: C1 Vol.: 91
Chanel 1 Note On - Duracao: 17580 Nota: C1 Vol.: 96
Chanel 6 Note Off - Duracao: 17640 Nota: C1 Vol.: 72
Chanel 6 Note On - Duracao: 17640 Nota: C1 Vol.: 73
Chanel 1 Note Off - Duracao: 17700 Nota: C1 Vol.: 96
Chanel 1 Note On - Duracao: 17700 Nota: C1 Vol.: 95
Chanel 10 Note Off - Duracao: 17760 Nota: C1 Vol.: 63
Chanel 10 Note On - Duracao: 17760 Nota: C1 Vol.: 66
Chanel 1 Note Off - Duracao: 17820 Nota: C1 Vol.: 95
Chanel 1 Note On - Duracao: 17820 Nota: C1 Vol.: 97
Chanel 1 Note Off - Duracao: 17880 Nota: C1 Vol.: 97
Chanel 1 Note On - Duracao: 17880 Nota: C1 Vol.: 94
Chanel 3 Note Off - Duracao: 17880 Nota: C1 Vol.: 79
Chanel 3 Note On - Duracao: 17880 Nota: C1 Vol.: 97
Chanel 1 Note Off - Duracao: 17940 Nota: C1 Vol.: 94
Chanel 1 Note On - Duracao: 17940 Nota: C1 Vol.: 95
Chanel 1 Note Off - Duracao: 18000 Nota: C1 Vol.: 95
Chanel 1 Note On - Duracao: 18000 Nota: C1 Vol.: 90
Chanel 3 Note Off - Duracao: 18000 Nota: C1 Vol.: 97
Chanel 3 Note On - Duracao: 18000 Nota: C1 Vol.: 96
Chanel 2 Note Off - Duracao: 18060 Nota: C1 Vol.: 84
Chanel 2 Note On - Duracao: 18060 Nota: C1 Vol.: 92
Chanel 1 Note Off - Duracao: 18120 Nota: C1 Vol.: 90
Chanel 1 Note On - Duracao: 18120 Nota: C1 Vol.: 86
Chanel 3 Note Off - Duracao: 18120 Nota: C1 Vol.: 96
Chanel 3 Note On - Duracao: 18120 Nota: C1 Vol.: 96
Chanel 4 Note Off - Duracao: 18120 Nota: C1 Vol.: 61
Chanel 4 Note On - Duracao: 18120 Nota: C1 Vol.: 64
Chanel 9 Note Off - Duracao: 18120 Nota: C1 Vol.: 90
Chanel 9 Note On - Duracao: 18120 Nota: C1 Vol.: 90
Chanel 1 Note Off - Duracao: 18240 Nota: C1 Vol.: 86
Chanel 1 Note On - Duracao: 18240 Nota: C1 Vol.: 86
Chanel 3 Note Off - Duracao: 18240 Nota: C1 Vol.: 96
Chanel 3 Note On - Duracao: 18240 Nota: C1 Vol.: 98
Chanel 8 Note Off - Duracao: 18300 Nota: C1 Vol.: 81
Chanel 8 Note On - Duracao: 18300 Nota: C1 Vol.: 80
Chanel 3 Note Off - Duracao: 18360 Nota: C1 Vol.: 98
Chanel 3 Note On - Duracao: 18360 Nota: C1 Vol.: 89
Chanel 1 Note Off - Duracao: 18480 Nota: C1 Vol.: 86
Chanel 1 Note On - Duracao: 18480 Nota: C1 Vol.: 86
Chanel 1 Note Off - Duracao: 18600 Nota: C1 Vol.: 86
Chanel 1 Note On - Duracao: 18600 Nota: C1 Vol.: 84
Chanel 3 Note Off - Duracao: 18600 Nota: C1 Vol.: 89
Chanel 3 Note On - Duracao: 18600 Nota: C1 Vol.: 75
Chanel 1 Note Off - Duracao: 18720 Nota: C1 Vol.: 84
Chanel 1 Note On - Duracao: 18720 Nota: C1 Vol.: 82
Chanel 10 Note Off - Duracao: 18720 Nota: C1 Vol.: 66
Chanel 10 Note On - Duracao: 18720 Nota: C1 Vol.: 64
Chanel 1 Note Off - Duracao: 18840 Nota: C1 Vol.: 82
Chanel 1 Note On - Duracao: 18840 Nota: C1 Vol.: 82
Chanel 2 Note Off - Duracao: 19020 Nota: C1 Vol.: 92
Chanel 2 Note On - Duracao: 19020 Nota: C1 Vol.: 88
Chanel 1 Note Off - Duracao: 19080 Nota: C1 Vol.: 82
Chanel 1 Note On - Duracao: 19080 Nota: C1 Vol.: 81
Chanel 7 Note Off - Duracao: 19080 Nota: C1 Vol.: 70
Chanel 7 Note On - Duracao: 19080 Nota: C1 Vol.: 61
Chanel 8 Note Off - Duracao: 19260 Nota: C1 Vol.: 80
Chanel 8 Note On - Duracao: 19260 Nota: C1 Vol.: 82
Chanel 1 Note Off - Duracao: 19320 Nota: C1 Vol.: 81
Chanel 1 Note On - Duracao: 19320 Nota: C1 Vol.: 92
Chanel 1 Note Off - Duracao: 19440 Nota: C1 Vol.: 92
Chanel 1 Note On - Duracao: 19440 Nota: C1 Vol.: 89
Chanel 1 Note Off - Duracao: 19560 Nota: C1 Vol.: 89
Chanel 1 Note On - Duracao: 19560 Nota: C1 Vol.: 84
Chanel 3 Note Off - Duracao: 19560 Nota: C1 Vol.: 75
Chanel 3 Note On - Duracao: 19560 Nota: C1 Vol.: 64
Chanel 6 Note Off - Duracao: 19560 Nota: C1 Vol.: 73
Chanel 6 Note On - Duracao: 19560 Nota: C1 Vol.: 75
Chanel 1 Note Off - Duracao: 19680 Nota: C1 Vol.: 84
Chanel 1 Note On - Duracao: 19680 Nota: C1 Vol.: 88
Chanel 1 Note Off - Duracao: 19800 Nota: C1 Vol.: 88
Chanel 1 Note On - Duracao: 19800 Nota: C1 Vol.: 93
Chanel 1 Note Off - Duracao: 19860 Nota: C1 Vol.: 93
Chanel 1 Note On - Duracao: 19860 Nota: C1 Vol.: 94
Chanel 1 Note Off - Duracao: 19920 Nota: C1 Vol.: 94
Chanel 1 Note On - Duracao: 19920 Nota: C1 Vol.: 95
Chanel 1 Note Off - Duracao: 19980 Nota: C1 Vol.: 95
Chanel 1 Note On - Duracao: 19980 Nota: C1 Vol.: 96
Chanel 2 Note Off - Duracao: 19980 Nota: C1 Vol.: 88
Chanel 2 Note On - Duracao: 19980 Nota: C1 Vol.: 93
Chanel 1 Note Off - Duracao: 20040 Nota: C1 Vol.: 96
Chanel 1 Note On - Duracao: 20040 Nota: C1 Vol.: 97
Chanel 4 Note Off - Duracao: 20040 Nota: C1 Vol.: 64
Chanel 4 Note On - Duracao: 20040 Nota: C1 Vol.: 72
Chanel 9 Note Off - Duracao: 20040 Nota: C1 Vol.: 90
Chanel 9 Note On - Duracao: 20040 Nota: C1 Vol.: 89
Chanel 1 Note Off - Duracao: 20100 Nota: C1 Vol.: 97
Chanel 1 Note On - Duracao: 20100 Nota: C1 Vol.: 98
Chanel 1 Note Off - Duracao: 20160 Nota: C1 Vol.: 98
Chanel 1 Note On - Duracao: 20160 Nota: C1 Vol.: 95
Chanel 5 Note Off - Duracao: 20160 Nota: C1 Vol.: 56
Chanel 5 Note On - Duracao: 20160 Nota: C1 Vol.: 57
Chanel 1 Note Off - Duracao: 20220 Nota: C1 Vol.: 95
Chanel 1 Note On - Duracao: 20220 Nota: C1 Vol.: 95
Chanel 8 Note Off - Duracao: 20220 Nota: C1 Vol.: 82
Chanel 8 Note On - Duracao: 20220 Nota: C1 Vol.: 72
Chanel 1 Note Off - Duracao: 20280 Nota: C1 Vol.: 95
Chanel 1 Note On - Duracao: 20280 Nota: C1 Vol.: 95
Chanel 1 Note Off - Duracao: 20340 Nota: C1 Vol.: 95
Chanel 1 Note On - Duracao: 20340 Nota: C1 Vol.: 95
Chanel 1 Note Off - Duracao: 20400 Nota: C1 Vol.: 95
Chanel 1 Note On - Duracao: 20400 Nota: C1 Vol.: 93
Chanel 1 Note Off - Duracao: 20460 Nota: C1 Vol.: 93
Chanel 1 Note On - Duracao: 20460 Nota: C1 Vol.: 92
Chanel 2 Note Off - Duracao: 20460 Nota: C1 Vol.: 93
Chanel 2 Note On - Duracao: 20460 Nota: C1 Vol.: 85
Chanel 1 Note Off - Duracao: 20520 Nota: C1 Vol.: 92
Chanel 1 Note On - Duracao: 20520 Nota: C1 Vol.: 94
Chanel 6 Note Off - Duracao: 20520 Nota: C1 Vol.: 75
Chanel 6 Note On - Duracao: 20520 Nota: C1 Vol.: 70
Chanel 1 Note Off - Duracao: 20580 Nota: C1 Vol.: 94
Chanel 1 Note On - Duracao: 20580 Nota: C1 Vol.: 95
Chanel 1 Note Off - Duracao: 20640 Nota: C1 Vol.: 95
Chanel 1 Note On - Duracao: 20640 Nota: C1 Vol.: 95
Chanel 10 Note Off - Duracao: 20640 Nota: C1 Vol.: 64
Chanel 10 Note On - Duracao: 20640 Nota: C1 Vol.: 71
Chanel 1 Note Off - Duracao: 20700 Nota: C1 Vol.: 95
Chanel 1 Note On - Duracao: 20700 Nota: C1 Vol.: 96
Chanel 1 Note Off - Duracao: 20760 Nota: C1 Vol.: 96
Chanel 1 Note On - Duracao: 20760 Nota: C1 Vol.: 97
Chanel 1 Note Off - Duracao: 20820 Nota: C1 Vol.: 97
Chanel 1 Note On - Duracao: 20820 Nota: C1 Vol.: 95
Chanel 1 Note Off - Duracao: 20880 Nota: C1 Vol.: 95
Chanel 1 Note On - Duracao: 20880 Nota: C1 Vol.: 95
Chanel 1 Note Off - Duracao: 20940 Nota: C1 Vol.: 95
Chanel 1 Note On - Duracao: 20940 Nota: C1 Vol.: 95
Chanel 1 Note Off - Duracao: 21000 Nota: C1 Vol.: 95
Chanel 1 Note On - Duracao: 21000 Nota: C1 Vol.: 94
Chanel 4 Note Off - Duracao: 21000 Nota: C1 Vol.: 72
Chanel 4 Note On - Duracao: 21000 Nota: C1 Vol.: 73
Chanel 1 Note Off - Duracao: 21060 Nota: C1 Vol.: 94
Chanel 1 Note On - Duracao: 21060 Nota: C1 Vol.: 95
Chanel 1 Note Off - Duracao: 21120 Nota: C1 Vol.: 95
Chanel 1 Note On - Duracao: 21120 Nota: C1 Vol.: 96
Chanel 1 Note Off - Duracao: 21180 Nota: C1 Vol.: 96
Chanel 1 Note On - Duracao: 21180 Nota: C1 Vol.: 95
Chanel 1 Note Off - Duracao: 21240 Nota: C1 Vol.: 95
Chanel 1 Note On - Duracao: 21240 Nota: C1 Vol.: 96
Chanel 1 Note Off - Duracao: 21300 Nota: C1 Vol.: 96
Chanel 1 Note On - Duracao: 21300 Nota: C1 Vol.: 94
Chanel 1 Note Off - Duracao: 21360 Nota: C1 Vol.: 94
Chanel 1 Note On - Duracao: 21360 Nota: C1 Vol.: 93
Chanel 1 Note Off - Duracao: 21420 Nota: C1 Vol.: 93
Chanel 1 Note On - Duracao: 21420 Nota: C1 Vol.: 96
Chanel 2 Note Off - Duracao: 21420 Nota: C1 Vol.: 85
Chanel 2 Note On - Duracao: 21420 Nota: C1 Vol.: 81
Chanel 1 Note Off - Duracao: 21480 Nota: C1 Vol.: 96
Chanel 1 Note On - Duracao: 21480 Nota: C1 Vol.: 95
Chanel 3 Note Off - Duracao: 21480 Nota: C1 Vol.: 64
Chanel 3 Note On - Duracao: 21480 Nota: C1 Vol.: 78
Chanel 4 Note Off - Duracao: 21480 Nota: C1 Vol.: 73
Chanel 4 Note On - Duracao: 21480 Nota: C1 Vol.: 79
Chanel 1 Note Off - Duracao: 21540 Nota: C1 Vol.: 95
Chanel 1 Note On - Duracao: 21540 Nota: C1 Vol.: 95
Chanel 1 Note Off - Duracao: 21600 Nota: C1 Vol.: 95
Chanel 1 Note On - Duracao: 21600 Nota: C1 Vol.: 94
Chanel 10 Note Off - Duracao: 21600 Nota: C1 Vol.: 71
Chanel 10 Note On - Duracao: 21600 Nota: C1 Vol.: 73
Chanel 1 Note Off - Duracao: 21660 Nota: C1 Vol.: 94
Chanel 1 Note On - Duracao: 21660 Nota: C1 Vol.: 94
Chanel 1 Note Off - Duracao: 21720 Nota: C1 Vol.: 94
Chanel 1 Note On - Duracao: 21720 Nota: C1 Vol.: 96
Chanel 1 Note Off - Duracao: 21780 Nota: C1 Vol.: 96
Chanel 1 Note On - Duracao: 21780 Nota: C1 Vol.: 91
Chanel 1 Note Off - Duracao: 21900 Nota: C1 Vol.: 91
Chanel 1 Note On - Duracao: 21900 Nota: C1 Vol.: 93
Chanel 1 Note Off - Duracao: 21960 Nota: C1 Vol.: 93
Chanel 1 Note On - Duracao: 21960 Nota: C1 Vol.: 94
Chanel 3 Note Off - Duracao: 21960 Nota: C1 Vol.: 78
Chanel 3 Note On - Duracao: 21960 Nota: C1 Vol.: 72
Chanel 4 Note Off - Duracao: 21960 Nota: C1 Vol.: 79
Chanel 4 Note On - Duracao: 21960 Nota: C1 Vol.: 76
Chanel 9 Note Off - Duracao: 21960 Nota: C1 Vol.: 89
Chanel 9 Note On - Duracao: 21960 Nota: C1 Vol.: 91
Chanel 1 Note Off - Duracao: 22080 Nota: C1 Vol.: 94
Chanel 1 Note On - Duracao: 22080 Nota: C1 Vol.: 94
Chanel 8 Note Off - Duracao: 22140 Nota: C1 Vol.: 72
Chanel 8 Note On - Duracao: 22140 Nota: C1 Vol.: 91
Chanel 1 Note Off - Duracao: 22200 Nota: C1 Vol.: 94
Chanel 1 Note On - Duracao: 22200 Nota: C1 Vol.: 93
Chanel 1 Note Off - Duracao: 22320 Nota: C1 Vol.: 93
Chanel 1 Note On - Duracao: 22320 Nota: C1 Vol.: 91
Chanel 1 Note Off - Duracao: 22440 Nota: C1 Vol.: 91
Chanel 1 Note On - Duracao: 22440 Nota: C1 Vol.: 79
Chanel 4 Note Off - Duracao: 22440 Nota: C1 Vol.: 76
Chanel 4 Note On - Duracao: 22440 Nota: C1 Vol.: 75
Chanel 6 Note Off - Duracao: 22440 Nota: C1 Vol.: 70
Chanel 6 Note On - Duracao: 22440 Nota: C1 Vol.: 74
Chanel 10 Note Off - Duracao: 22560 Nota: C1 Vol.: 73
Chanel 10 Note On - Duracao: 22560 Nota: C1 Vol.: 79
Chanel 8 Note Off - Duracao: 22620 Nota: C1 Vol.: 91
Chanel 8 Note On - Duracao: 22620 Nota: C1 Vol.: 86
Chanel 3 Note Off - Duracao: 22920 Nota: C1 Vol.: 72
Chanel 3 Note On - Duracao: 22920 Nota: C1 Vol.: 50
Chanel 4 Note Off - Duracao: 22920 Nota: C1 Vol.: 75
Chanel 4 Note On - Duracao: 22920 Nota: C1 Vol.: 79
Chanel 7 Note Off - Duracao: 22920 Nota: C1 Vol.: 61
Chanel 7 Note On - Duracao: 22920 Nota: C1 Vol.: 62
Chanel 2 Note Off - Duracao: 23340 Nota: C1 Vol.: 81
Chanel 2 Note On - Duracao: 23340 Nota: C1 Vol.: 83
Chanel 1 Note Off - Duracao: 23400 Nota: C1 Vol.: 79
Chanel 1 Note On - Duracao: 23400 Nota: C1 Vol.: 75
Chanel 4 Note Off - Duracao: 23400 Nota: C1 Vol.: 79
Chanel 4 Note On - Duracao: 23400 Nota: C1 Vol.: 63
Chanel 10 Note Off - Duracao: 23520 Nota: C1 Vol.: 79
Chanel 10 Note On - Duracao: 23520 Nota: C1 Vol.: 91
Chanel 8 Note Off - Duracao: 23580 Nota: C1 Vol.: 86
Chanel 8 Note On - Duracao: 23580 Nota: C1 Vol.: 86
Chanel 9 Note Off - Duracao: 23880 Nota: C1 Vol.: 91
Chanel 9 Note On - Duracao: 23880 Nota: C1 Vol.: 89
Chanel 5 Note Off - Duracao: 24000 Nota: C1 Vol.: 57
Chanel 5 Note On - Duracao: 24000 Nota: C1 Vol.: 60
Chanel 10 Note Off - Duracao: 24000 Nota: C1 Vol.: 91
Chanel 10 Note On - Duracao: 24000 Nota: C1 Vol.: 80
Chanel 2 Note Off - Duracao: 24300 Nota: C1 Vol.: 83
Chanel 2 Note On - Duracao: 24300 Nota: C1 Vol.: 78
Chanel 6 Note Off - Duracao: 24360 Nota: C1 Vol.: 74
Chanel 6 Note On - Duracao: 24360 Nota: C1 Vol.: 73
Chanel 8 Note Off - Duracao: 24540 Nota: C1 Vol.: 86
Chanel 8 Note On - Duracao: 24540 Nota: C1 Vol.: 86
Chanel 7 Note Off - Duracao: 24840 Nota: C1 Vol.: 62
Chanel 7 Note On - Duracao: 24840 Nota: C1 Vol.: 62
Chanel 10 Note Off - Duracao: 24960 Nota: C1 Vol.: 80
Chanel 10 Note On - Duracao: 24960 Nota: C1 Vol.: 93
Chanel 2 Note Off - Duracao: 25260 Nota: C1 Vol.: 78
Chanel 2 Note On - Duracao: 25260 Nota: C1 Vol.: 86
Chanel 1 Note Off - Duracao: 25320 Nota: C1 Vol.: 75
Chanel 1 Note On - Duracao: 25320 Nota: C1 Vol.: 75
Chanel 4 Note Off - Duracao: 25320 Nota: C1 Vol.: 63
Chanel 4 Note On - Duracao: 25320 Nota: C1 Vol.: 52
Chanel 10 Note Off - Duracao: 25440 Nota: C1 Vol.: 93
Chanel 10 Note On - Duracao: 25440 Nota: C1 Vol.: 81
Chanel 2 Note Off - Duracao: 25500 Nota: C1 Vol.: 86
Chanel 2 Note On - Duracao: 25500 Nota: C1 Vol.: 93
Chanel 2 Note Off - Duracao: 25740 Nota: C1 Vol.: 93
Chanel 2 Note On - Duracao: 25740 Nota: C1 Vol.: 84
Chanel 9 Note Off - Duracao: 25800 Nota: C1 Vol.: 89
Chanel 9 Note On - Duracao: 25800 Nota: C1 Vol.: 86
Chanel 5 Note Off - Duracao: 25920 Nota: C1 Vol.: 60
Chanel 5 Note On - Duracao: 25920 Nota: C1 Vol.: 64
Chanel 2 Note Off - Duracao: 26220 Nota: C1 Vol.: 84
Chanel 2 Note On - Duracao: 26220 Nota: C1 Vol.: 80
Chanel 6 Note Off - Duracao: 26280 Nota: C1 Vol.: 73
Chanel 6 Note On - Duracao: 26280 Nota: C1 Vol.: 74
Chanel 8 Note Off - Duracao: 26460 Nota: C1 Vol.: 86
Chanel 8 Note On - Duracao: 26460 Nota: C1 Vol.: 89
Chanel 2 Note Off - Duracao: 26700 Nota: C1 Vol.: 80
Chanel 2 Note On - Duracao: 26700 Nota: C1 Vol.: 79
Chanel 3 Note Off - Duracao: 26760 Nota: C1 Vol.: 50
Chanel 3 Note On - Duracao: 26760 Nota: C1 Vol.: 60
Chanel 7 Note Off - Duracao: 26760 Nota: C1 Vol.: 62
Chanel 7 Note On - Duracao: 26760 Nota: C1 Vol.: 63
Chanel 1 Note Off - Duracao: 27240 Nota: C1 Vol.: 75
Chanel 1 Note On - Duracao: 27240 Nota: C1 Vol.: 72
Chanel 6 Note Off - Duracao: 27240 Nota: C1 Vol.: 74
Chanel 6 Note On - Duracao: 27240 Nota: C1 Vol.: 65
Chanel 10 Note Off - Duracao: 27360 Nota: C1 Vol.: 81
Chanel 10 Note On - Duracao: 27360 Nota: C1 Vol.: 83
Chanel 8 Note Off - Duracao: 27420 Nota: C1 Vol.: 89
Chanel 8 Note On - Duracao: 27420 Nota: C1 Vol.: 84
Chanel 2 Note Off - Duracao: 27660 Nota: C1 Vol.: 79
Chanel 2 Note On - Duracao: 27660 Nota: C1 Vol.: 81
Chanel 9 Note Off - Duracao: 27720 Nota: C1 Vol.: 86
Chanel 9 Note On - Duracao: 27720 Nota: C1 Vol.: 79
Chanel 5 Note Off - Duracao: 27840 Nota: C1 Vol.: 64
Chanel 5 Note On - Duracao: 27840 Nota: C1 Vol.: 74
Chanel 2 Note Off - Duracao: 28620 Nota: C1 Vol.: 81
Chanel 2 Note On - Duracao: 28620 Nota: C1 Vol.: 87
Chanel 7 Note Off - Duracao: 28680 Nota: C1 Vol.: 63
Chanel 7 Note On - Duracao: 28680 Nota: C1 Vol.: 67
Chanel 5 Note Off - Duracao: 28800 Nota: C1 Vol.: 74
Chanel 5 Note On - Duracao: 28800 Nota: C1 Vol.: 76
Chanel 2 Note Off - Duracao: 29100 Nota: C1 Vol.: 87
Chanel 2 Note On - Duracao: 29100 Nota: C1 Vol.: 86
Chanel 1 Note Off - Duracao: 29160 Nota: C1 Vol.: 72
Chanel 1 Note On - Duracao: 29160 Nota: C1 Vol.: 79
Chanel 4 Note Off - Duracao: 29160 Nota: C1 Vol.: 52
Chanel 4 Note On - Duracao: 29160 Nota: C1 Vol.: 63
Chanel 6 Note Off - Duracao: 29160 Nota: C1 Vol.: 65
Chanel 6 Note On - Duracao: 29160 Nota: C1 Vol.: 63
Chanel 5 Note Off - Duracao: 29280 Nota: C1 Vol.: 76
Chanel 5 Note On - Duracao: 29280 Nota: C1 Vol.: 78
Chanel 10 Note Off - Duracao: 29280 Nota: C1 Vol.: 83
Chanel 10 Note On - Duracao: 29280 Nota: C1 Vol.: 87
Chanel 8 Note Off - Duracao: 29340 Nota: C1 Vol.: 84
Chanel 8 Note On - Duracao: 29340 Nota: C1 Vol.: 80
Chanel 2 Note Off - Duracao: 29580 Nota: C1 Vol.: 86
Chanel 2 Note On - Duracao: 29580 Nota: C1 Vol.: 81
Chanel 9 Note Off - Duracao: 29640 Nota: C1 Vol.: 79
Chanel 9 Note On - Duracao: 29640 Nota: C1 Vol.: 70
Chanel 5 Note Off - Duracao: 29760 Nota: C1 Vol.: 78
Chanel 5 Note On - Duracao: 29760 Nota: C1 Vol.: 74
Chanel 2 Note Off - Duracao: 30060 Nota: C1 Vol.: 81
Chanel 2 Note On - Duracao: 30060 Nota: C1 Vol.: 80
Chanel 1 Note Off - Duracao: 30120 Nota: C1 Vol.: 79
Chanel 1 Note On - Duracao: 30120 Nota: C1 Vol.: 80
Chanel 2 Note Off - Duracao: 30540 Nota: C1 Vol.: 80
Chanel 2 Note On - Duracao: 30540 Nota: C1 Vol.: 69
Chanel 3 Note Off - Duracao: 30600 Nota: C1 Vol.: 60
Chanel 3 Note On - Duracao: 30600 Nota: C1 Vol.: 81
Chanel 7 Note Off - Duracao: 30600 Nota: C1 Vol.: 67
Chanel 7 Note On - Duracao: 30600 Nota: C1 Vol.: 75
Chanel 5 Note Off - Duracao: 30720 Nota: C1 Vol.: 74
Chanel 5 Note On - Duracao: 30720 Nota: C1 Vol.: 78
Chanel 1 Note Off - Duracao: 31080 Nota: C1 Vol.: 80
Chanel 1 Note On - Duracao: 31080 Nota: C1 Vol.: 84
Chanel 4 Note Off - Duracao: 31080 Nota: C1 Vol.: 63
Chanel 4 Note On - Duracao: 31080 Nota: C1 Vol.: 67
Chanel 6 Note Off - Duracao: 31080 Nota: C1 Vol.: 63
Chanel 6 Note On - Duracao: 31080 Nota: C1 Vol.: 82
Chanel 10 Note Off - Duracao: 31200 Nota: C1 Vol.: 87
Chanel 10 Note On - Duracao: 31200 Nota: C1 Vol.: 82
Chanel 8 Note Off - Duracao: 31260 Nota: C1 Vol.: 80
Chanel 8 Note On - Duracao: 31260 Nota: C1 Vol.: 81
Chanel 2 Note Off - Duracao: 31500 Nota: C1 Vol.: 69
Chanel 2 Note On - Duracao: 31500 Nota: C1 Vol.: 58
Chanel 1 Note Off - Duracao: 31560 Nota: C1 Vol.: 84
Chanel 1 Note On - Duracao: 31560 Nota: C1 Vol.: 90
Chanel 3 Note Off - Duracao: 31560 Nota: C1 Vol.: 81
Chanel 3 Note On - Duracao: 31560 Nota: C1 Vol.: 79
Chanel 7 Note Off - Duracao: 31560 Nota: C1 Vol.: 75
Chanel 7 Note On - Duracao: 31560 Nota: C1 Vol.: 76
Chanel 5 Note Off - Duracao: 31680 Nota: C1 Vol.: 78
Chanel 5 Note On - Duracao: 31680 Nota: C1 Vol.: 72
Chanel 1 Note Off - Duracao: 32040 Nota: C1 Vol.: 90
Chanel 1 Note On - Duracao: 32040 Nota: C1 Vol.: 91
Chanel 4 Note Off - Duracao: 32040 Nota: C1 Vol.: 67
Chanel 4 Note On - Duracao: 32040 Nota: C1 Vol.: 61
Chanel 6 Note Off - Duracao: 32040 Nota: C1 Vol.: 82
Chanel 6 Note On - Duracao: 32040 Nota: C1 Vol.: 75
Chanel 8 Note Off - Duracao: 32220 Nota: C1 Vol.: 81
Chanel 8 Note On - Duracao: 32220 Nota: C1 Vol.: 79
Chanel 1 Note Off - Duracao: 32520 Nota: C1 Vol.: 91
Chanel 1 Note On - Duracao: 32520 Nota: C1 Vol.: 90
Chanel 3 Note Off - Duracao: 32520 Nota: C1 Vol.: 79
Chanel 3 Note On - Duracao: 32520 Nota: C1 Vol.: 66
Chanel 7 Note Off - Duracao: 32520 Nota: C1 Vol.: 76
Chanel 7 Note On - Duracao: 32520 Nota: C1 Vol.: 71
Chanel 5 Note Off - Duracao: 32640 Nota: C1 Vol.: 72
Chanel 5 Note On - Duracao: 32640 Nota: C1 Vol.: 51
Chanel 1 Note Off - Duracao: 33000 Nota: C1 Vol.: 90
Chanel 1 Note On - Duracao: 33000 Nota: C1 Vol.: 89
Chanel 6 Note Off - Duracao: 33000 Nota: C1 Vol.: 75
Chanel 6 Note On - Duracao: 33000 Nota: C1 Vol.: 65
Chanel 10 Note Off - Duracao: 33120 Nota: C1 Vol.: 82
Chanel 10 Note On - Duracao: 33120 Nota: C1 Vol.: 87
Chanel 8 Note Off - Duracao: 33180 Nota: C1 Vol.: 79
Chanel 8 Note On - Duracao: 33180 Nota: C1 Vol.: 80
Chanel 1 Note Off - Duracao: 33480 Nota: C1 Vol.: 89
Chanel 1 Note On - Duracao: 33480 Nota: C1 Vol.: 86
Chanel 9 Note Off - Duracao: 33480 Nota: C1 Vol.: 70
Chanel 9 Note On - Duracao: 33480 Nota: C1 Vol.: 64
Chanel 1 Note Off - Duracao: 33960 Nota: C1 Vol.: 86
Chanel 1 Note On - Duracao: 33960 Nota: C1 Vol.: 88
Chanel 4 Note Off - Duracao: 33960 Nota: C1 Vol.: 61
Chanel 4 Note On - Duracao: 33960 Nota: C1 Vol.: 69
Chanel 8 Note Off - Duracao: 34140 Nota: C1 Vol.: 80
Chanel 8 Note On - Duracao: 34140 Nota: C1 Vol.: 82
Chanel 1 Note Off - Duracao: 34200 Nota: C1 Vol.: 88
Chanel 1 Note On - Duracao: 34200 Nota: C1 Vol.: 95
Chanel 1 Note Off - Duracao: 34320 Nota: C1 Vol.: 95
Chanel 1 Note On - Duracao: 34320 Nota: C1 Vol.: 97
Chanel 1 Note Off - Duracao: 34380 Nota: C1 Vol.: 97
Chanel 1 Note On - Duracao: 34380 Nota: C1 Vol.: 89
Chanel 3 Note Off - Duracao: 34440 Nota: C1 Vol.: 66
Chanel 3 Note On - Duracao: 34440 Nota: C1 Vol.: 59
Chanel 7 Note Off - Duracao: 34440 Nota: C1 Vol.: 71
Chanel 7 Note On - Duracao: 34440 Nota: C1 Vol.: 76
Chanel 1 Note Off - Duracao: 34500 Nota: C1 Vol.: 89
Chanel 1 Note On - Duracao: 34500 Nota: C1 Vol.: 84
Chanel 8 Note Off - Duracao: 34620 Nota: C1 Vol.: 82
Chanel 8 Note On - Duracao: 34620 Nota: C1 Vol.: 78
Chanel 1 Note Off - Duracao: 34740 Nota: C1 Vol.: 84
Chanel 1 Note On - Duracao: 34740 Nota: C1 Vol.: 79
Chanel 4 Note Off - Duracao: 34920 Nota: C1 Vol.: 69
Chanel 4 Note On - Duracao: 34920 Nota: C1 Vol.: 70
Chanel 6 Note Off - Duracao: 34920 Nota: C1 Vol.: 65
Chanel 6 Note On - Duracao: 34920 Nota: C1 Vol.: 69
Chanel 10 Note Off - Duracao: 35040 Nota: C1 Vol.: 87
Chanel 10 Note On - Duracao: 35040 Nota: C1 Vol.: 87
Chanel 1 Note Off - Duracao: 35220 Nota: C1 Vol.: 79
Chanel 1 Note On - Duracao: 35220 Nota: C1 Vol.: 82
Chanel 2 Note Off - Duracao: 35340 Nota: C1 Vol.: 58
Chanel 2 Note On - Duracao: 35340 Nota: C1 Vol.: 86
Chanel 7 Note Off - Duracao: 35400 Nota: C1 Vol.: 76
Chanel 7 Note On - Duracao: 35400 Nota: C1 Vol.: 83
Chanel 8 Note Off - Duracao: 35580 Nota: C1 Vol.: 78
Chanel 8 Note On - Duracao: 35580 Nota: C1 Vol.: 73
Chanel 1 Note Off - Duracao: 35700 Nota: C1 Vol.: 82
Chanel 1 Note On - Duracao: 35700 Nota: C1 Vol.: 86
Chanel 4 Note Off - Duracao: 35880 Nota: C1 Vol.: 70
Chanel 4 Note On - Duracao: 35880 Nota: C1 Vol.: 66
Chanel 1 Note Off - Duracao: 36180 Nota: C1 Vol.: 86
Chanel 1 Note On - Duracao: 36180 Nota: C1 Vol.: 90
Chanel 2 Note Off - Duracao: 36300 Nota: C1 Vol.: 86
Chanel 2 Note On - Duracao: 36300 Nota: C1 Vol.: 83
Chanel 3 Note Off - Duracao: 36360 Nota: C1 Vol.: 59
Chanel 3 Note On - Duracao: 36360 Nota: C1 Vol.: 71
Chanel 7 Note Off - Duracao: 36360 Nota: C1 Vol.: 83
Chanel 7 Note On - Duracao: 36360 Nota: C1 Vol.: 83
Chanel 1 Note Off - Duracao: 36420 Nota: C1 Vol.: 90
Chanel 1 Note On - Duracao: 36420 Nota: C1 Vol.: 85
Chanel 5 Note Off - Duracao: 36480 Nota: C1 Vol.: 51
Chanel 5 Note On - Duracao: 36480 Nota: C1 Vol.: 65
Chanel 8 Note Off - Duracao: 36540 Nota: C1 Vol.: 73
Chanel 8 Note On - Duracao: 36540 Nota: C1 Vol.: 62
Chanel 1 Note Off - Duracao: 36660 Nota: C1 Vol.: 85
Chanel 1 Note On - Duracao: 36660 Nota: C1 Vol.: 84
Chanel 3 Note Off - Duracao: 36840 Nota: C1 Vol.: 71
Chanel 3 Note On - Duracao: 36840 Nota: C1 Vol.: 80
Chanel 6 Note Off - Duracao: 36840 Nota: C1 Vol.: 69
Chanel 6 Note On - Duracao: 36840 Nota: C1 Vol.: 73
Chanel 1 Note Off - Duracao: 36900 Nota: C1 Vol.: 84
Chanel 1 Note On - Duracao: 36900 Nota: C1 Vol.: 90
Chanel 10 Note Off - Duracao: 36960 Nota: C1 Vol.: 87
Chanel 10 Note On - Duracao: 36960 Nota: C1 Vol.: 79
Chanel 1 Note Off - Duracao: 37020 Nota: C1 Vol.: 90
Chanel 1 Note On - Duracao: 37020 Nota: C1 Vol.: 87
Chanel 3 Note Off - Duracao: 37080 Nota: C1 Vol.: 80
Chanel 3 Note On - Duracao: 37080 Nota: C1 Vol.: 99
Chanel 3 Note Off - Duracao: 37140 Nota: C1 Vol.: 99
Chanel 3 Note On - Duracao: 37140 Nota: C1 Vol.: 98
Chanel 1 Note Off - Duracao: 37260 Nota: C1 Vol.: 87
Chanel 1 Note On - Duracao: 37260 Nota: C1 Vol.: 89
Chanel 3 Note Off - Duracao: 37260 Nota: C1 Vol.: 98
Chanel 3 Note On - Duracao: 37260 Nota: C1 Vol.: 97
Chanel 7 Note Off - Duracao: 37320 Nota: C1 Vol.: 83
Chanel 7 Note On - Duracao: 37320 Nota: C1 Vol.: 83
Chanel 9 Note Off - Duracao: 37320 Nota: C1 Vol.: 64
Chanel 9 Note On - Duracao: 37320 Nota: C1 Vol.: 81
Chanel 1 Note Off - Duracao: 37380 Nota: C1 Vol.: 89
Chanel 1 Note On - Duracao: 37380 Nota: C1 Vol.: 91
Chanel 3 Note Off - Duracao: 37380 Nota: C1 Vol.: 97
Chanel 3 Note On - Duracao: 37380 Nota: C1 Vol.: 46
Chanel 1 Note Off - Duracao: 37500 Nota: C1 Vol.: 91
Chanel 1 Note On - Duracao: 37500 Nota: C1 Vol.: 91
Chanel 1 Note Off - Duracao: 37620 Nota: C1 Vol.: 91
Chanel 1 Note On - Duracao: 37620 Nota: C1 Vol.: 96
Chanel 1 Note Off - Duracao: 37680 Nota: C1 Vol.: 96
Chanel 1 Note On - Duracao: 37680 Nota: C1 Vol.: 97
Chanel 1 Note Off - Duracao: 37740 Nota: C1 Vol.: 97
Chanel 1 Note On - Duracao: 37740 Nota: C1 Vol.: 96
Chanel 1 Note Off - Duracao: 37800 Nota: C1 Vol.: 96
Chanel 1 Note On - Duracao: 37800 Nota: C1 Vol.: 97
Chanel 4 Note Off - Duracao: 37800 Nota: C1 Vol.: 66
Chanel 4 Note On - Duracao: 37800 Nota: C1 Vol.: 75
Chanel 6 Note Off - Duracao: 37800 Nota: C1 Vol.: 73
Chanel 6 Note On - Duracao: 37800 Nota: C1 Vol.: 77
Chanel 7 Note Off - Duracao: 37800 Nota: C1 Vol.: 83
Chanel 7 Note On - Duracao: 37800 Nota: C1 Vol.: 61
Chanel 1 Note Off - Duracao: 37860 Nota: C1 Vol.: 97
Chanel 1 Note On - Duracao: 37860 Nota: C1 Vol.: 97
Chanel 1 Note Off - Duracao: 37920 Nota: C1 Vol.: 97
Chanel 1 Note On - Duracao: 37920 Nota: C1 Vol.: 99
Chanel 1 Note Off - Duracao: 38040 Nota: C1 Vol.: 99
Chanel 1 Note On - Duracao: 38040 Nota: C1 Vol.: 83
Chanel 2 Note Off - Duracao: 38220 Nota: C1 Vol.: 83
Chanel 2 Note On - Duracao: 38220 Nota: C1 Vol.: 82
Chanel 1 Note Off - Duracao: 38280 Nota: C1 Vol.: 83
Chanel 1 Note On - Duracao: 38280 Nota: C1 Vol.: 53
Chanel 9 Note Off - Duracao: 38280 Nota: C1 Vol.: 81
Chanel 9 Note On - Duracao: 38280 Nota: C1 Vol.: 67
Chanel 5 Note Off - Duracao: 38400 Nota: C1 Vol.: 65
Chanel 5 Note On - Duracao: 38400 Nota: C1 Vol.: 76
Chanel 8 Note Off - Duracao: 38460 Nota: C1 Vol.: 62
Chanel 8 Note On - Duracao: 38460 Nota: C1 Vol.: 60
Chanel 4 Note Off - Duracao: 38760 Nota: C1 Vol.: 75
Chanel 4 Note On - Duracao: 38760 Nota: C1 Vol.: 51
Chanel 6 Note Off - Duracao: 38760 Nota: C1 Vol.: 77
Chanel 6 Note On - Duracao: 38760 Nota: C1 Vol.: 70
Chanel 10 Note Off - Duracao: 38880 Nota: C1 Vol.: 79
Chanel 10 Note On - Duracao: 38880 Nota: C1 Vol.: 90
Chanel 5 Note Off - Duracao: 39360 Nota: C1 Vol.: 76
Chanel 5 Note On - Duracao: 39360 Nota: C1 Vol.: 79
Chanel 7 Note Off - Duracao: 39720 Nota: C1 Vol.: 61
Chanel 7 Note On - Duracao: 39720 Nota: C1 Vol.: 60
Chanel 10 Note Off - Duracao: 39840 Nota: C1 Vol.: 90
Chanel 10 Note On - Duracao: 39840 Nota: C1 Vol.: 75
Chanel 9 Note Off - Duracao: 40200 Nota: C1 Vol.: 67
Chanel 9 Note On - Duracao: 40200 Nota: C1 Vol.: 52
Chanel 5 Note Off - Duracao: 40320 Nota: C1 Vol.: 79
Chanel 5 Note On - Duracao: 40320 Nota: C1 Vol.: 76
Chanel 8 Note Off - Duracao: 40380 Nota: C1 Vol.: 60
Chanel 8 Note On - Duracao: 40380 Nota: C1 Vol.: 72
Chanel 6 Note Off - Duracao: 40680 Nota: C1 Vol.: 70
Chanel 6 Note On - Duracao: 40680 Nota: C1 Vol.: 69
Chanel 3 Note Off - Duracao: 41220 Nota: C1 Vol.: 46
Chanel 3 Note On - Duracao: 41220 Nota: C1 Vol.: 46
Chanel 5 Note Off - Duracao: 41280 Nota: C1 Vol.: 76
Chanel 5 Note On - Duracao: 41280 Nota: C1 Vol.: 68
Chanel 8 Note Off - Duracao: 41340 Nota: C1 Vol.: 72
Chanel 8 Note On - Duracao: 41340 Nota: C1 Vol.: 71
Chanel 6 Note Off - Duracao: 41640 Nota: C1 Vol.: 69
Chanel 6 Note On - Duracao: 41640 Nota: C1 Vol.: 46
Chanel 7 Note Off - Duracao: 41640 Nota: C1 Vol.: 60
Chanel 7 Note On - Duracao: 41640 Nota: C1 Vol.: 61
Chanel 2 Note Off - Duracao: 42060 Nota: C1 Vol.: 82
Chanel 2 Note On - Duracao: 42060 Nota: C1 Vol.: 83
Chanel 1 Note Off - Duracao: 42120 Nota: C1 Vol.: 53
Chanel 1 Note On - Duracao: 42120 Nota: C1 Vol.: 48
Chanel 8 Note Off - Duracao: 42300 Nota: C1 Vol.: 71
Chanel 8 Note On - Duracao: 42300 Nota: C1 Vol.: 71
Chanel 4 Note Off - Duracao: 42600 Nota: C1 Vol.: 51
Chanel 4 Note On - Duracao: 42600 Nota: C1 Vol.: 43
Chanel 7 Note Off - Duracao: 42600 Nota: C1 Vol.: 61
Chanel 7 Note On - Duracao: 42600 Nota: C1 Vol.: 47
Chanel 5 Note Off - Duracao: 43200 Nota: C1 Vol.: 68
Chanel 5 Note On - Duracao: 43200 Nota: C1 Vol.: 65
Chanel 8 Note Off - Duracao: 43260 Nota: C1 Vol.: 71
Chanel 8 Note On - Duracao: 43260 Nota: C1 Vol.: 71
Chanel 10 Note Off - Duracao: 43680 Nota: C1 Vol.: 75
Chanel 10 Note On - Duracao: 43680 Nota: C1 Vol.: 76
Chanel 2 Note Off - Duracao: 43980 Nota: C1 Vol.: 83
Chanel 2 Note On - Duracao: 43980 Nota: C1 Vol.: 84
Chanel 9 Note Off - Duracao: 44040 Nota: C1 Vol.: 52
Chanel 9 Note On - Duracao: 44040 Nota: C1 Vol.: 51
Chanel 8 Note Off - Duracao: 44220 Nota: C1 Vol.: 71
Chanel 8 Note On - Duracao: 44220 Nota: C1 Vol.: 65
Chanel 7 Note Off - Duracao: 44520 Nota: C1 Vol.: 47
Chanel 7 Note On - Duracao: 44520 Nota: C1 Vol.: 46
Chanel 2 Note Off - Duracao: 44940 Nota: C1 Vol.: 84
Chanel 2 Note On - Duracao: 44940 Nota: C1 Vol.: 60
Chanel 3 Note Off - Duracao: 45060 Nota: C1 Vol.: 46
Chanel 3 Note On - Duracao: 45060 Nota: C1 Vol.: 74
Chanel 5 Note Off - Duracao: 45120 Nota: C1 Vol.: 65
Chanel 5 Note On - Duracao: 45120 Nota: C1 Vol.: 78
Chanel 6 Note Off - Duracao: 45480 Nota: C1 Vol.: 46
Chanel 6 Note On - Duracao: 45480 Nota: C1 Vol.: 53
Chanel 3 Note Off - Duracao: 45540 Nota: C1 Vol.: 74
Chanel 3 Note On - Duracao: 45540 Nota: C1 Vol.: 78
Chanel 10 Note Off - Duracao: 45600 Nota: C1 Vol.: 76
Chanel 10 Note On - Duracao: 45600 Nota: C1 Vol.: 89
Chanel 1 Note Off - Duracao: 45960 Nota: C1 Vol.: 48
Chanel 1 Note On - Duracao: 45960 Nota: C1 Vol.: 47
Chanel 5 Note Off - Duracao: 46080 Nota: C1 Vol.: 78
Chanel 5 Note On - Duracao: 46080 Nota: C1 Vol.: 57
Chanel 10 Note Off - Duracao: 46080 Nota: C1 Vol.: 89
Chanel 10 Note On - Duracao: 46080 Nota: C1 Vol.: 79
Chanel 8 Note Off - Duracao: 46140 Nota: C1 Vol.: 65
Chanel 8 Note On - Duracao: 46140 Nota: C1 Vol.: 56
Chanel 4 Note Off - Duracao: 46440 Nota: C1 Vol.: 43
Chanel 4 Note On - Duracao: 46440 Nota: C1 Vol.: 43
Chanel 7 Note Off - Duracao: 46440 Nota: C1 Vol.: 46
Chanel 7 Note On - Duracao: 46440 Nota: C1 Vol.: 47
Chanel 3 Note Off - Duracao: 46500 Nota: C1 Vol.: 78
Chanel 3 Note On - Duracao: 46500 Nota: C1 Vol.: 79
Chanel 2 Note Off - Duracao: 46860 Nota: C1 Vol.: 60
Chanel 2 Note On - Duracao: 46860 Nota: C1 Vol.: 54
Chanel 10 Note Off - Duracao: 47040 Nota: C1 Vol.: 79
Chanel 10 Note On - Duracao: 47040 Nota: C1 Vol.: 63
Chanel 6 Note Off - Duracao: 47400 Nota: C1 Vol.: 53
Chanel 6 Note On - Duracao: 47400 Nota: C1 Vol.: 52
Chanel 3 Note Off - Duracao: 47460 Nota: C1 Vol.: 79
Chanel 3 Note On - Duracao: 47460 Nota: C1 Vol.: 79
Chanel 2 Note Off - Duracao: 47820 Nota: C1 Vol.: 54
Chanel 2 Note On - Duracao: 47820 Nota: C1 Vol.: 50
Chanel 9 Note Off - Duracao: 47880 Nota: C1 Vol.: 51
Chanel 9 Note On - Duracao: 47880 Nota: C1 Vol.: 49
Chanel 8 Note Off - Duracao: 48060 Nota: C1 Vol.: 56
Chanel 8 Note On - Duracao: 48060 Nota: C1 Vol.: 61
Chanel 6 Note Off - Duracao: 48360 Nota: C1 Vol.: 52
Chanel 6 Note On - Duracao: 48360 Nota: C1 Vol.: 53
Chanel 7 Note Off - Duracao: 48360 Nota: C1 Vol.: 47
Chanel 7 Note On - Duracao: 48360 Nota: C1 Vol.: 45
Chanel 3 Note Off - Duracao: 48420 Nota: C1 Vol.: 79
Chanel 3 Note On - Duracao: 48420 Nota: C1 Vol.: 76
Chanel 2 Note Off - Duracao: 48780 Nota: C1 Vol.: 50
Chanel 2 Note On - Duracao: 48780 Nota: C1 Vol.: 56
Chanel 10 Note Off - Duracao: 48960 Nota: C1 Vol.: 63
Chanel 10 Note On - Duracao: 48960 Nota: C1 Vol.: 60
Chanel 2 Note Off - Duracao: 49260 Nota: C1 Vol.: 56
Chanel 2 Note On - Duracao: 49260 Nota: C1 Vol.: 74
Chanel 6 Note Off - Duracao: 49320 Nota: C1 Vol.: 53
Chanel 6 Note On - Duracao: 49320 Nota: C1 Vol.: 72
Chanel 2 Note Off - Duracao: 49380 Nota: C1 Vol.: 74
Chanel 2 Note On - Duracao: 49380 Nota: C1 Vol.: 56
Chanel 3 Note Off - Duracao: 49380 Nota: C1 Vol.: 76
Chanel 3 Note On - Duracao: 49380 Nota: C1 Vol.: 75
Chanel 6 Note Off - Duracao: 49560 Nota: C1 Vol.: 72
Chanel 6 Note On - Duracao: 49560 Nota: C1 Vol.: 89
Chanel 6 Note Off - Duracao: 49680 Nota: C1 Vol.: 89
Chanel 6 Note On - Duracao: 49680 Nota: C1 Vol.: 93
Chanel 6 Note Off - Duracao: 49740 Nota: C1 Vol.: 93
Chanel 6 Note On - Duracao: 49740 Nota: C1 Vol.: 46
Chanel 1 Note Off - Duracao: 49800 Nota: C1 Vol.: 47
Chanel 1 Note On - Duracao: 49800 Nota: C1 Vol.: 50
Chanel 2 Note Off - Duracao: 49860 Nota: C1 Vol.: 56
Chanel 2 Note On - Duracao: 49860 Nota: C1 Vol.: 60
Chanel 5 Note Off - Duracao: 49920 Nota: C1 Vol.: 57
Chanel 5 Note On - Duracao: 49920 Nota: C1 Vol.: 83
Chanel 8 Note Off - Duracao: 49980 Nota: C1 Vol.: 61
Chanel 8 Note On - Duracao: 49980 Nota: C1 Vol.: 63
Chanel 4 Note Off - Duracao: 50280 Nota: C1 Vol.: 43
Chanel 4 Note On - Duracao: 50280 Nota: C1 Vol.: 46
Chanel 7 Note Off - Duracao: 50280 Nota: C1 Vol.: 45
Chanel 7 Note On - Duracao: 50280 Nota: C1 Vol.: 44
Chanel 2 Note Off - Duracao: 50340 Nota: C1 Vol.: 60
Chanel 2 Note On - Duracao: 50340 Nota: C1 Vol.: 54
Chanel 3 Note Off - Duracao: 50340 Nota: C1 Vol.: 75
Chanel 3 Note On - Duracao: 50340 Nota: C1 Vol.: 67
Chanel 10 Note Off - Duracao: 50880 Nota: C1 Vol.: 60
Chanel 10 Note On - Duracao: 50880 Nota: C1 Vol.: 67
Chanel 2 Note Off - Duracao: 51300 Nota: C1 Vol.: 54
Chanel 2 Note On - Duracao: 51300 Nota: C1 Vol.: 86
Chanel 3 Note Off - Duracao: 51300 Nota: C1 Vol.: 67
Chanel 3 Note On - Duracao: 51300 Nota: C1 Vol.: 60
Chanel 2 Note Off - Duracao: 51420 Nota: C1 Vol.: 86
Chanel 2 Note On - Duracao: 51420 Nota: C1 Vol.: 72
Chanel 2 Note Off - Duracao: 51660 Nota: C1 Vol.: 72
Chanel 2 Note On - Duracao: 51660 Nota: C1 Vol.: 56
Chanel 6 Note Off - Duracao: 51660 Nota: C1 Vol.: 46
Chanel 6 Note On - Duracao: 51660 Nota: C1 Vol.: 52
Chanel 9 Note Off - Duracao: 51720 Nota: C1 Vol.: 49
Chanel 9 Note On - Duracao: 51720 Nota: C1 Vol.: 49
Chanel 5 Note Off - Duracao: 51840 Nota: C1 Vol.: 83
Chanel 5 Note On - Duracao: 51840 Nota: C1 Vol.: 80
Chanel 10 Note Off - Duracao: 51840 Nota: C1 Vol.: 67
Chanel 10 Note On - Duracao: 51840 Nota: C1 Vol.: 59
Chanel 8 Note Off - Duracao: 51900 Nota: C1 Vol.: 63
Chanel 8 Note On - Duracao: 51900 Nota: C1 Vol.: 67
Chanel 7 Note Off - Duracao: 52200 Nota: C1 Vol.: 44
Chanel 7 Note On - Duracao: 52200 Nota: C1 Vol.: 45
Chanel 2 Note Off - Duracao: 52620 Nota: C1 Vol.: 56
Chanel 2 Note On - Duracao: 52620 Nota: C1 Vol.: 59
Chanel 6 Note Off - Duracao: 52620 Nota: C1 Vol.: 52
Chanel 6 Note On - Duracao: 52620 Nota: C1 Vol.: 42
Chanel 8 Note Off - Duracao: 52860 Nota: C1 Vol.: 67
Chanel 8 Note On - Duracao: 52860 Nota: C1 Vol.: 63
Chanel 2 Note Off - Duracao: 53100 Nota: C1 Vol.: 59
Chanel 2 Note On - Duracao: 53100 Nota: C1 Vol.: 58
Chanel 3 Note Off - Duracao: 53220 Nota: C1 Vol.: 60
Chanel 3 Note On - Duracao: 53220 Nota: C1 Vol.: 47
Chanel 1 Note Off - Duracao: 53640 Nota: C1 Vol.: 50
Chanel 1 Note On - Duracao: 53640 Nota: C1 Vol.: 49
Chanel 5 Note Off - Duracao: 53760 Nota: C1 Vol.: 80
Chanel 5 Note On - Duracao: 53760 Nota: C1 Vol.: 80
Chanel 10 Note Off - Duracao: 53760 Nota: C1 Vol.: 59
Chanel 10 Note On - Duracao: 53760 Nota: C1 Vol.: 64
Chanel 2 Note Off - Duracao: 54060 Nota: C1 Vol.: 58
Chanel 2 Note On - Duracao: 54060 Nota: C1 Vol.: 60
Chanel 4 Note Off - Duracao: 54120 Nota: C1 Vol.: 46
Chanel 4 Note On - Duracao: 54120 Nota: C1 Vol.: 41
Chanel 7 Note Off - Duracao: 54120 Nota: C1 Vol.: 45
Chanel 7 Note On - Duracao: 54120 Nota: C1 Vol.: 43
Chanel 6 Note Off - Duracao: 54540 Nota: C1 Vol.: 42
Chanel 6 Note On - Duracao: 54540 Nota: C1 Vol.: 45
Chanel 5 Note Off - Duracao: 54720 Nota: C1 Vol.: 80
Chanel 5 Note On - Duracao: 54720 Nota: C1 Vol.: 54
Chanel 10 Note Off - Duracao: 54720 Nota: C1 Vol.: 64
Chanel 10 Note On - Duracao: 54720 Nota: C1 Vol.: 65
Chanel 8 Note Off - Duracao: 54780 Nota: C1 Vol.: 63
Chanel 8 Note On - Duracao: 54780 Nota: C1 Vol.: 58
Chanel 9 Note Off - Duracao: 55560 Nota: C1 Vol.: 49
Chanel 9 Note On - Duracao: 55560 Nota: C1 Vol.: 49
Chanel 10 Note Off - Duracao: 55680 Nota: C1 Vol.: 65
Chanel 10 Note On - Duracao: 55680 Nota: C1 Vol.: 70
Chanel 7 Note Off - Duracao: 56040 Nota: C1 Vol.: 43
Chanel 7 Note On - Duracao: 56040 Nota: C1 Vol.: 50
Chanel 6 Note Off - Duracao: 56460 Nota: C1 Vol.: 45
Chanel 6 Note On - Duracao: 56460 Nota: C1 Vol.: 57
Chanel 10 Note Off - Duracao: 56640 Nota: C1 Vol.: 70
Chanel 10 Note On - Duracao: 56640 Nota: C1 Vol.: 62
Chanel 8 Note Off - Duracao: 56700 Nota: C1 Vol.: 58
Chanel 8 Note On - Duracao: 56700 Nota: C1 Vol.: 64
Chanel 7 Note Off - Duracao: 57000 Nota: C1 Vol.: 50
Chanel 7 Note On - Duracao: 57000 Nota: C1 Vol.: 44
Chanel 3 Note Off - Duracao: 57060 Nota: C1 Vol.: 47
Chanel 3 Note On - Duracao: 57060 Nota: C1 Vol.: 46
Chanel 1 Note Off - Duracao: 57480 Nota: C1 Vol.: 49
Chanel 1 Note On - Duracao: 57480 Nota: C1 Vol.: 51
Chanel 8 Note Off - Duracao: 57660 Nota: C1 Vol.: 64
Chanel 8 Note On - Duracao: 57660 Nota: C1 Vol.: 64
Chanel 2 Note Off - Duracao: 57900 Nota: C1 Vol.: 60
Chanel 2 Note On - Duracao: 57900 Nota: C1 Vol.: 89
Chanel 4 Note Off - Duracao: 57960 Nota: C1 Vol.: 41
Chanel 4 Note On - Duracao: 57960 Nota: C1 Vol.: 57
Chanel 7 Note Off - Duracao: 57960 Nota: C1 Vol.: 44
Chanel 7 Note On - Duracao: 57960 Nota: C1 Vol.: 41
Chanel 6 Note Off - Duracao: 58380 Nota: C1 Vol.: 57
Chanel 6 Note On - Duracao: 58380 Nota: C1 Vol.: 77
Chanel 4 Note Off - Duracao: 58440 Nota: C1 Vol.: 57
Chanel 4 Note On - Duracao: 58440 Nota: C1 Vol.: 56
Chanel 5 Note Off - Duracao: 58560 Nota: C1 Vol.: 54
Chanel 5 Note On - Duracao: 58560 Nota: C1 Vol.: 72
Chanel 10 Note Off - Duracao: 58560 Nota: C1 Vol.: 62
Chanel 10 Note On - Duracao: 58560 Nota: C1 Vol.: 69
Chanel 8 Note Off - Duracao: 58620 Nota: C1 Vol.: 64
Chanel 8 Note On - Duracao: 58620 Nota: C1 Vol.: 67
Chanel 4 Note Off - Duracao: 58920 Nota: C1 Vol.: 56
Chanel 4 Note On - Duracao: 58920 Nota: C1 Vol.: 53
Chanel 7 Note Off - Duracao: 58920 Nota: C1 Vol.: 41
Chanel 7 Note On - Duracao: 58920 Nota: C1 Vol.: 40
Chanel 6 Note Off - Duracao: 59340 Nota: C1 Vol.: 77
Chanel 6 Note On - Duracao: 59340 Nota: C1 Vol.: 80
Chanel 4 Note Off - Duracao: 59400 Nota: C1 Vol.: 53
Chanel 4 Note On - Duracao: 59400 Nota: C1 Vol.: 54
Chanel 9 Note Off - Duracao: 59400 Nota: C1 Vol.: 49
Chanel 9 Note On - Duracao: 59400 Nota: C1 Vol.: 49
Chanel 5 Note Off - Duracao: 59520 Nota: C1 Vol.: 72
Chanel 5 Note On - Duracao: 59520 Nota: C1 Vol.: 76
Chanel 10 Note Off - Duracao: 59520 Nota: C1 Vol.: 69
Chanel 10 Note On - Duracao: 59520 Nota: C1 Vol.: 71
Chanel 8 Note Off - Duracao: 59580 Nota: C1 Vol.: 67
Chanel 8 Note On - Duracao: 59580 Nota: C1 Vol.: 68
Chanel 2 Note Off - Duracao: 59820 Nota: C1 Vol.: 89
Chanel 2 Note On - Duracao: 59820 Nota: C1 Vol.: 92
Chanel 4 Note Off - Duracao: 59880 Nota: C1 Vol.: 54
Chanel 4 Note On - Duracao: 59880 Nota: C1 Vol.: 60
Chanel 7 Note Off - Duracao: 59880 Nota: C1 Vol.: 40
Chanel 7 Note On - Duracao: 59880 Nota: C1 Vol.: 40
Chanel 6 Note Off - Duracao: 60300 Nota: C1 Vol.: 80
Chanel 6 Note On - Duracao: 60300 Nota: C1 Vol.: 77
Chanel 4 Note Off - Duracao: 60360 Nota: C1 Vol.: 60
Chanel 4 Note On - Duracao: 60360 Nota: C1 Vol.: 62
Chanel 5 Note Off - Duracao: 60480 Nota: C1 Vol.: 76
Chanel 5 Note On - Duracao: 60480 Nota: C1 Vol.: 77
Chanel 10 Note Off - Duracao: 60480 Nota: C1 Vol.: 71
Chanel 10 Note On - Duracao: 60480 Nota: C1 Vol.: 71
Chanel 8 Note Off - Duracao: 60540 Nota: C1 Vol.: 68
Chanel 8 Note On - Duracao: 60540 Nota: C1 Vol.: 71
Chanel 4 Note Off - Duracao: 60600 Nota: C1 Vol.: 62
Chanel 4 Note On - Duracao: 60600 Nota: C1 Vol.: 61
Chanel 4 Note Off - Duracao: 60840 Nota: C1 Vol.: 61
Chanel 4 Note On - Duracao: 60840 Nota: C1 Vol.: 62
Chanel 7 Note Off - Duracao: 60840 Nota: C1 Vol.: 40
Chanel 7 Note On - Duracao: 60840 Nota: C1 Vol.: 40
Chanel 3 Note Off - Duracao: 60900 Nota: C1 Vol.: 46
Chanel 3 Note On - Duracao: 60900 Nota: C1 Vol.: 45
Chanel 4 Note Off - Duracao: 61080 Nota: C1 Vol.: 62
Chanel 4 Note On - Duracao: 61080 Nota: C1 Vol.: 62
Chanel 1 Note Off - Duracao: 61320 Nota: C1 Vol.: 51
Chanel 1 Note On - Duracao: 61320 Nota: C1 Vol.: 51
Chanel 4 Note Off - Duracao: 61320 Nota: C1 Vol.: 62
Chanel 4 Note On - Duracao: 61320 Nota: C1 Vol.: 62
Chanel 5 Note Off - Duracao: 61440 Nota: C1 Vol.: 77
Chanel 5 Note On - Duracao: 61440 Nota: C1 Vol.: 80
Chanel 10 Note Off - Duracao: 61440 Nota: C1 Vol.: 71
Chanel 10 Note On - Duracao: 61440 Nota: C1 Vol.: 69
Chanel 8 Note Off - Duracao: 61500 Nota: C1 Vol.: 71
Chanel 8 Note On - Duracao: 61500 Nota: C1 Vol.: 74
Chanel 4 Note Off - Duracao: 61560 Nota: C1 Vol.: 62
Chanel 4 Note On - Duracao: 61560 Nota: C1 Vol.: 62
Chanel 2 Note Off - Duracao: 61740 Nota: C1 Vol.: 92
Chanel 2 Note On - Duracao: 61740 Nota: C1 Vol.: 92
Chanel 4 Note Off - Duracao: 61800 Nota: C1 Vol.: 62
Chanel 4 Note On - Duracao: 61800 Nota: C1 Vol.: 62
Chanel 7 Note Off - Duracao: 61800 Nota: C1 Vol.: 40
Chanel 7 Note On - Duracao: 61800 Nota: C1 Vol.: 41
Chanel 5 Note Off - Duracao: 61920 Nota: C1 Vol.: 80
Chanel 5 Note On - Duracao: 61920 Nota: C1 Vol.: 75
Chanel 8 Note Off - Duracao: 61980 Nota: C1 Vol.: 74
Chanel 8 Note On - Duracao: 61980 Nota: C1 Vol.: 70
Chanel 4 Note Off - Duracao: 62040 Nota: C1 Vol.: 62
Chanel 4 Note On - Duracao: 62040 Nota: C1 Vol.: 64
Chanel 6 Note Off - Duracao: 62220 Nota: C1 Vol.: 77
Chanel 6 Note On - Duracao: 62220 Nota: C1 Vol.: 79
Chanel 10 Note Off - Duracao: 62400 Nota: C1 Vol.: 69
Chanel 10 Note On - Duracao: 62400 Nota: C1 Vol.: 73
Chanel 8 Note Off - Duracao: 62460 Nota: C1 Vol.: 70
Chanel 8 Note On - Duracao: 62460 Nota: C1 Vol.: 54
Chanel 4 Note Off - Duracao: 62520 Nota: C1 Vol.: 64
Chanel 4 Note On - Duracao: 62520 Nota: C1 Vol.: 67
Chanel 4 Note Off - Duracao: 62760 Nota: C1 Vol.: 67
Chanel 4 Note On - Duracao: 62760 Nota: C1 Vol.: 60
Chanel 7 Note Off - Duracao: 62760 Nota: C1 Vol.: 41
Chanel 7 Note On - Duracao: 62760 Nota: C1 Vol.: 42
Chanel 5 Note Off - Duracao: 62880 Nota: C1 Vol.: 75
Chanel 5 Note On - Duracao: 62880 Nota: C1 Vol.: 71
Chanel 9 Note Off - Duracao: 63240 Nota: C1 Vol.: 49
Chanel 9 Note On - Duracao: 63240 Nota: C1 Vol.: 49
Chanel 10 Note Off - Duracao: 63360 Nota: C1 Vol.: 73
Chanel 10 Note On - Duracao: 63360 Nota: C1 Vol.: 64
Chanel 4 Note Off - Duracao: 63720 Nota: C1 Vol.: 60
Chanel 4 Note On - Duracao: 63720 Nota: C1 Vol.: 42
Chanel 7 Note Off - Duracao: 63720 Nota: C1 Vol.: 42
Chanel 7 Note On - Duracao: 63720 Nota: C1 Vol.: 41
Chanel 5 Note Off - Duracao: 63840 Nota: C1 Vol.: 71
Chanel 5 Note On - Duracao: 63840 Nota: C1 Vol.: 90
Chanel 5 Note Off - Duracao: 64080 Nota: C1 Vol.: 90
Chanel 5 Note On - Duracao: 64080 Nota: C1 Vol.: 91
Chanel 6 Note Off - Duracao: 64140 Nota: C1 Vol.: 79
Chanel 6 Note On - Duracao: 64140 Nota: C1 Vol.: 78
Chanel 5 Note Off - Duracao: 64200 Nota: C1 Vol.: 91
Chanel 5 Note On - Duracao: 64200 Nota: C1 Vol.: 100
Chanel 5 Note Off - Duracao: 64260 Nota: C1 Vol.: 100
Chanel 5 Note On - Duracao: 64260 Nota: C1 Vol.: 98
Chanel 5 Note Off - Duracao: 64320 Nota: C1 Vol.: 98
Chanel 5 Note On - Duracao: 64320 Nota: C1 Vol.: 100
Chanel 10 Note Off - Duracao: 64320 Nota: C1 Vol.: 64
Chanel 10 Note On - Duracao: 64320 Nota: C1 Vol.: 64
Chanel 5 Note Off - Duracao: 64380 Nota: C1 Vol.: 100
Chanel 5 Note On - Duracao: 64380 Nota: C1 Vol.: 98
Chanel 8 Note Off - Duracao: 64380 Nota: C1 Vol.: 54
Chanel 8 Note On - Duracao: 64380 Nota: C1 Vol.: 54
Chanel 5 Note Off - Duracao: 64440 Nota: C1 Vol.: 98
Chanel 5 Note On - Duracao: 64440 Nota: C1 Vol.: 97
Chanel 5 Note Off - Duracao: 64500 Nota: C1 Vol.: 97
Chanel 5 Note On - Duracao: 64500 Nota: C1 Vol.: 99
Chanel 5 Note Off - Duracao: 64560 Nota: C1 Vol.: 99
Chanel 5 Note On - Duracao: 64560 Nota: C1 Vol.: 99
Chanel 5 Note Off - Duracao: 64620 Nota: C1 Vol.: 99
Chanel 5 Note On - Duracao: 64620 Nota: C1 Vol.: 100
Chanel 5 Note Off - Duracao: 64680 Nota: C1 Vol.: 100
Chanel 5 Note On - Duracao: 64680 Nota: C1 Vol.: 99
Chanel 7 Note Off - Duracao: 64680 Nota: C1 Vol.: 41
Chanel 7 Note On - Duracao: 64680 Nota: C1 Vol.: 42
Chanel 3 Note Off - Duracao: 64740 Nota: C1 Vol.: 45
Chanel 3 Note On - Duracao: 64740 Nota: C1 Vol.: 49
Chanel 5 Note Off - Duracao: 64740 Nota: C1 Vol.: 99
Chanel 5 Note On - Duracao: 64740 Nota: C1 Vol.: 99
Chanel 5 Note Off - Duracao: 64800 Nota: C1 Vol.: 99
Chanel 5 Note On - Duracao: 64800 Nota: C1 Vol.: 100
Chanel 5 Note Off - Duracao: 64860 Nota: C1 Vol.: 100
Chanel 5 Note On - Duracao: 64860 Nota: C1 Vol.: 100
Chanel 5 Note Off - Duracao: 64920 Nota: C1 Vol.: 100
Chanel 5 Note On - Duracao: 64920 Nota: C1 Vol.: 100
Chanel 5 Note Off - Duracao: 64980 Nota: C1 Vol.: 100
Chanel 5 Note On - Duracao: 64980 Nota: C1 Vol.: 100
Chanel 5 Note Off - Duracao: 65040 Nota: C1 Vol.: 100
Chanel 5 Note On - Duracao: 65040 Nota: C1 Vol.: 98
Chanel 5 Note Off - Duracao: 65100 Nota: C1 Vol.: 98
Chanel 5 Note On - Duracao: 65100 Nota: C1 Vol.: 98
Chanel 1 Note Off - Duracao: 65160 Nota: C1 Vol.: 51
Chanel 1 Note On - Duracao: 65160 Nota: C1 Vol.: 51
Chanel 5 Note Off - Duracao: 65160 Nota: C1 Vol.: 98
Chanel 5 Note On - Duracao: 65160 Nota: C1 Vol.: 99
Chanel 5 Note Off - Duracao: 65220 Nota: C1 Vol.: 99
Chanel 5 Note On - Duracao: 65220 Nota: C1 Vol.: 72
Chanel 10 Note Off - Duracao: 65280 Nota: C1 Vol.: 64
Chanel 10 Note On - Duracao: 65280 Nota: C1 Vol.: 73
Chanel 2 Note Off - Duracao: 65580 Nota: C1 Vol.: 92
Chanel 2 Note On - Duracao: 65580 Nota: C1 Vol.: 93
Chanel 7 Note Off - Duracao: 65640 Nota: C1 Vol.: 42
Chanel 7 Note On - Duracao: 65640 Nota: C1 Vol.: 47
Chanel 5 Note Off - Duracao: 65700 Nota: C1 Vol.: 72
Chanel 5 Note On - Duracao: 65700 Nota: C1 Vol.: 52
Chanel 10 Note Off - Duracao: 65760 Nota: C1 Vol.: 73
Chanel 10 Note On - Duracao: 65760 Nota: C1 Vol.: 69
Chanel 6 Note Off - Duracao: 66060 Nota: C1 Vol.: 78
Chanel 6 Note On - Duracao: 66060 Nota: C1 Vol.: 82
Chanel 7 Note Off - Duracao: 66120 Nota: C1 Vol.: 47
Chanel 7 Note On - Duracao: 66120 Nota: C1 Vol.: 49
Chanel 8 Note Off - Duracao: 66300 Nota: C1 Vol.: 54
Chanel 8 Note On - Duracao: 66300 Nota: C1 Vol.: 50
Chanel 7 Note Off - Duracao: 66600 Nota: C1 Vol.: 49
Chanel 7 Note On - Duracao: 66600 Nota: C1 Vol.: 48
Chanel 3 Note Off - Duracao: 66660 Nota: C1 Vol.: 49
Chanel 3 Note On - Duracao: 66660 Nota: C1 Vol.: 66
Chanel 10 Note Off - Duracao: 66720 Nota: C1 Vol.: 69
Chanel 10 Note On - Duracao: 66720 Nota: C1 Vol.: 67
Chanel 7 Note Off - Duracao: 67080 Nota: C1 Vol.: 48
Chanel 7 Note On - Duracao: 67080 Nota: C1 Vol.: 49
Chanel 9 Note Off - Duracao: 67080 Nota: C1 Vol.: 49
Chanel 9 Note On - Duracao: 67080 Nota: C1 Vol.: 51
Chanel 4 Note Off - Duracao: 67560 Nota: C1 Vol.: 42
Chanel 4 Note On - Duracao: 67560 Nota: C1 Vol.: 45
Chanel 7 Note Off - Duracao: 67560 Nota: C1 Vol.: 49
Chanel 7 Note On - Duracao: 67560 Nota: C1 Vol.: 48
Chanel 3 Note Off - Duracao: 67620 Nota: C1 Vol.: 66
Chanel 3 Note On - Duracao: 67620 Nota: C1 Vol.: 81
Chanel 5 Note Off - Duracao: 67620 Nota: C1 Vol.: 52
Chanel 5 Note On - Duracao: 67620 Nota: C1 Vol.: 90
Chanel 10 Note Off - Duracao: 67680 Nota: C1 Vol.: 67
Chanel 10 Note On - Duracao: 67680 Nota: C1 Vol.: 64
Chanel 5 Note Off - Duracao: 67740 Nota: C1 Vol.: 90
Chanel 5 Note On - Duracao: 67740 Nota: C1 Vol.: 91
Chanel 3 Note Off - Duracao: 67860 Nota: C1 Vol.: 81
Chanel 3 Note On - Duracao: 67860 Nota: C1 Vol.: 63
Chanel 5 Note Off - Duracao: 67860 Nota: C1 Vol.: 91
Chanel 5 Note On - Duracao: 67860 Nota: C1 Vol.: 99
Chanel 5 Note Off - Duracao: 67920 Nota: C1 Vol.: 99
Chanel 5 Note On - Duracao: 67920 Nota: C1 Vol.: 99
Chanel 5 Note Off - Duracao: 67980 Nota: C1 Vol.: 99
Chanel 5 Note On - Duracao: 67980 Nota: C1 Vol.: 98
Chanel 6 Note Off - Duracao: 67980 Nota: C1 Vol.: 82
Chanel 6 Note On - Duracao: 67980 Nota: C1 Vol.: 61
Chanel 5 Note Off - Duracao: 68040 Nota: C1 Vol.: 98
Chanel 5 Note On - Duracao: 68040 Nota: C1 Vol.: 100
Chanel 7 Note Off - Duracao: 68040 Nota: C1 Vol.: 48
Chanel 7 Note On - Duracao: 68040 Nota: C1 Vol.: 47
Chanel 5 Note Off - Duracao: 68100 Nota: C1 Vol.: 100
Chanel 5 Note On - Duracao: 68100 Nota: C1 Vol.: 99
Chanel 5 Note Off - Duracao: 68160 Nota: C1 Vol.: 99
Chanel 5 Note On - Duracao: 68160 Nota: C1 Vol.: 99
Chanel 5 Note Off - Duracao: 68220 Nota: C1 Vol.: 99
Chanel 5 Note On - Duracao: 68220 Nota: C1 Vol.: 97
Chanel 8 Note Off - Duracao: 68220 Nota: C1 Vol.: 50
Chanel 8 Note On - Duracao: 68220 Nota: C1 Vol.: 47
Chanel 5 Note Off - Duracao: 68280 Nota: C1 Vol.: 97
Chanel 5 Note On - Duracao: 68280 Nota: C1 Vol.: 99
Chanel 5 Note Off - Duracao: 68340 Nota: C1 Vol.: 99
Chanel 5 Note On - Duracao: 68340 Nota: C1 Vol.: 96
Chanel 5 Note Off - Duracao: 68400 Nota: C1 Vol.: 96
Chanel 5 Note On - Duracao: 68400 Nota: C1 Vol.: 49
Chanel 7 Note Off - Duracao: 68520 Nota: C1 Vol.: 47
Chanel 7 Note On - Duracao: 68520 Nota: C1 Vol.: 47
Chanel 3 Note Off - Duracao: 68820 Nota: C1 Vol.: 63
Chanel 3 Note On - Duracao: 68820 Nota: C1 Vol.: 44
Chanel 1 Note Off - Duracao: 69000 Nota: C1 Vol.: 51
Chanel 1 Note On - Duracao: 69000 Nota: C1 Vol.: 52
Chanel 7 Note Off - Duracao: 69000 Nota: C1 Vol.: 47
Chanel 7 Note On - Duracao: 69000 Nota: C1 Vol.: 47
Chanel 2 Note Off - Duracao: 69420 Nota: C1 Vol.: 93
Chanel 2 Note On - Duracao: 69420 Nota: C1 Vol.: 94
Chanel 7 Note Off - Duracao: 69480 Nota: C1 Vol.: 47
Chanel 7 Note On - Duracao: 69480 Nota: C1 Vol.: 48
Chanel 10 Note Off - Duracao: 69600 Nota: C1 Vol.: 64
Chanel 10 Note On - Duracao: 69600 Nota: C1 Vol.: 69
Chanel 7 Note Off - Duracao: 69960 Nota: C1 Vol.: 48
Chanel 7 Note On - Duracao: 69960 Nota: C1 Vol.: 48
Chanel 8 Note Off - Duracao: 70140 Nota: C1 Vol.: 47
Chanel 8 Note On - Duracao: 70140 Nota: C1 Vol.: 47
Chanel 5 Note Off - Duracao: 70320 Nota: C1 Vol.: 49
Chanel 5 Note On - Duracao: 70320 Nota: C1 Vol.: 76
Chanel 7 Note Off - Duracao: 70440 Nota: C1 Vol.: 48
Chanel 7 Note On - Duracao: 70440 Nota: C1 Vol.: 48
Chanel 5 Note Off - Duracao: 70560 Nota: C1 Vol.: 76
Chanel 5 Note On - Duracao: 70560 Nota: C1 Vol.: 99
Chanel 10 Note Off - Duracao: 70560 Nota: C1 Vol.: 69
Chanel 10 Note On - Duracao: 70560 Nota: C1 Vol.: 63
Chanel 5 Note Off - Duracao: 70620 Nota: C1 Vol.: 99
Chanel 5 Note On - Duracao: 70620 Nota: C1 Vol.: 98
Chanel 5 Note Off - Duracao: 70680 Nota: C1 Vol.: 98
Chanel 5 Note On - Duracao: 70680 Nota: C1 Vol.: 100
Chanel 5 Note Off - Duracao: 70740 Nota: C1 Vol.: 100
Chanel 5 Note On - Duracao: 70740 Nota: C1 Vol.: 94
Chanel 5 Note Off - Duracao: 70860 Nota: C1 Vol.: 94
Chanel 5 Note On - Duracao: 70860 Nota: C1 Vol.: 46
Chanel 7 Note Off - Duracao: 70920 Nota: C1 Vol.: 48
Chanel 7 Note On - Duracao: 70920 Nota: C1 Vol.: 47
Chanel 9 Note Off - Duracao: 70920 Nota: C1 Vol.: 51
Chanel 9 Note On - Duracao: 70920 Nota: C1 Vol.: 53
Chanel 4 Note Off - Duracao: 71400 Nota: C1 Vol.: 45
Chanel 4 Note On - Duracao: 71400 Nota: C1 Vol.: 46
Chanel 7 Note Off - Duracao: 71400 Nota: C1 Vol.: 47
Chanel 7 Note On - Duracao: 71400 Nota: C1 Vol.: 49
Chanel 6 Note Off - Duracao: 71820 Nota: C1 Vol.: 61
Chanel 6 Note On - Duracao: 71820 Nota: C1 Vol.: 51
Chanel 7 Note Off - Duracao: 71880 Nota: C1 Vol.: 49
Chanel 7 Note On - Duracao: 71880 Nota: C1 Vol.: 47
Chanel 8 Note Off - Duracao: 72060 Nota: C1 Vol.: 47
Chanel 8 Note On - Duracao: 72060 Nota: C1 Vol.: 44
Chanel 7 Note Off - Duracao: 72360 Nota: C1 Vol.: 47
Chanel 7 Note On - Duracao: 72360 Nota: C1 Vol.: 48
Chanel 10 Note Off - Duracao: 72480 Nota: C1 Vol.: 63
Chanel 10 Note On - Duracao: 72480 Nota: C1 Vol.: 56
Chanel 3 Note Off - Duracao: 72660 Nota: C1 Vol.: 44
Chanel 3 Note On - Duracao: 72660 Nota: C1 Vol.: 48
Chanel 1 Note Off - Duracao: 72840 Nota: C1 Vol.: 52
Chanel 1 Note On - Duracao: 72840 Nota: C1 Vol.: 58
Chanel 7 Note Off - Duracao: 72840 Nota: C1 Vol.: 48
Chanel 7 Note On - Duracao: 72840 Nota: C1 Vol.: 47
Chanel 2 Note Off - Duracao: 73260 Nota: C1 Vol.: 94
Chanel 2 Note On - Duracao: 73260 Nota: C1 Vol.: 92
Chanel 7 Note Off - Duracao: 73320 Nota: C1 Vol.: 47
Chanel 7 Note On - Duracao: 73320 Nota: C1 Vol.: 50
Chanel 7 Note Off - Duracao: 73800 Nota: C1 Vol.: 50
Chanel 7 Note On - Duracao: 73800 Nota: C1 Vol.: 48
Chanel 8 Note Off - Duracao: 73980 Nota: C1 Vol.: 44
Chanel 8 Note On - Duracao: 73980 Nota: C1 Vol.: 43
Chanel 7 Note Off - Duracao: 74280 Nota: C1 Vol.: 48
Chanel 7 Note On - Duracao: 74280 Nota: C1 Vol.: 48
Chanel 3 Note Off - Duracao: 74580 Nota: C1 Vol.: 48
Chanel 3 Note On - Duracao: 74580 Nota: C1 Vol.: 44
Chanel 5 Note Off - Duracao: 74700 Nota: C1 Vol.: 46
Chanel 5 Note On - Duracao: 74700 Nota: C1 Vol.: 63
Chanel 1 Note Off - Duracao: 74760 Nota: C1 Vol.: 58
Chanel 1 Note On - Duracao: 74760 Nota: C1 Vol.: 68
Chanel 7 Note Off - Duracao: 74760 Nota: C1 Vol.: 48
Chanel 7 Note On - Duracao: 74760 Nota: C1 Vol.: 47
Chanel 9 Note Off - Duracao: 74760 Nota: C1 Vol.: 53
Chanel 9 Note On - Duracao: 74760 Nota: C1 Vol.: 71
Chanel 8 Note Off - Duracao: 74940 Nota: C1 Vol.: 43
Chanel 8 Note On - Duracao: 74940 Nota: C1 Vol.: 42
Chanel 4 Note Off - Duracao: 75240 Nota: C1 Vol.: 46
Chanel 4 Note On - Duracao: 75240 Nota: C1 Vol.: 47
Chanel 7 Note Off - Duracao: 75240 Nota: C1 Vol.: 47
Chanel 7 Note On - Duracao: 75240 Nota: C1 Vol.: 48
Chanel 5 Note Off - Duracao: 75660 Nota: C1 Vol.: 63
Chanel 5 Note On - Duracao: 75660 Nota: C1 Vol.: 89
Chanel 6 Note Off - Duracao: 75660 Nota: C1 Vol.: 51
Chanel 6 Note On - Duracao: 75660 Nota: C1 Vol.: 56
Chanel 1 Note Off - Duracao: 75720 Nota: C1 Vol.: 68
Chanel 1 Note On - Duracao: 75720 Nota: C1 Vol.: 87
Chanel 7 Note Off - Duracao: 75720 Nota: C1 Vol.: 48
Chanel 7 Note On - Duracao: 75720 Nota: C1 Vol.: 48
Chanel 5 Note Off - Duracao: 75780 Nota: C1 Vol.: 89
Chanel 5 Note On - Duracao: 75780 Nota: C1 Vol.: 91
Chanel 5 Note Off - Duracao: 75900 Nota: C1 Vol.: 91
Chanel 5 Note On - Duracao: 75900 Nota: C1 Vol.: 100
Chanel 8 Note Off - Duracao: 75900 Nota: C1 Vol.: 42
Chanel 8 Note On - Duracao: 75900 Nota: C1 Vol.: 40
Chanel 1 Note Off - Duracao: 75960 Nota: C1 Vol.: 87
Chanel 1 Note On - Duracao: 75960 Nota: C1 Vol.: 98
Chanel 5 Note Off - Duracao: 75960 Nota: C1 Vol.: 100
Chanel 5 Note On - Duracao: 75960 Nota: C1 Vol.: 97
Chanel 1 Note Off - Duracao: 76020 Nota: C1 Vol.: 98
Chanel 1 Note On - Duracao: 76020 Nota: C1 Vol.: 95
Chanel 5 Note Off - Duracao: 76020 Nota: C1 Vol.: 97
Chanel 5 Note On - Duracao: 76020 Nota: C1 Vol.: 93
Chanel 1 Note Off - Duracao: 76080 Nota: C1 Vol.: 95
Chanel 1 Note On - Duracao: 76080 Nota: C1 Vol.: 89
Chanel 5 Note Off - Duracao: 76080 Nota: C1 Vol.: 93
Chanel 5 Note On - Duracao: 76080 Nota: C1 Vol.: 96
Chanel 5 Note Off - Duracao: 76140 Nota: C1 Vol.: 96
Chanel 5 Note On - Duracao: 76140 Nota: C1 Vol.: 97
Chanel 1 Note Off - Duracao: 76200 Nota: C1 Vol.: 89
Chanel 1 Note On - Duracao: 76200 Nota: C1 Vol.: 90
Chanel 5 Note Off - Duracao: 76200 Nota: C1 Vol.: 97
Chanel 5 Note On - Duracao: 76200 Nota: C1 Vol.: 92
Chanel 7 Note Off - Duracao: 76200 Nota: C1 Vol.: 48
Chanel 7 Note On - Duracao: 76200 Nota: C1 Vol.: 47
Chanel 1 Note Off - Duracao: 76320 Nota: C1 Vol.: 90
Chanel 1 Note On - Duracao: 76320 Nota: C1 Vol.: 86
Chanel 5 Note Off - Duracao: 76320 Nota: C1 Vol.: 92
Chanel 5 Note On - Duracao: 76320 Nota: C1 Vol.: 70
Chanel 10 Note Off - Duracao: 76320 Nota: C1 Vol.: 56
Chanel 10 Note On - Duracao: 76320 Nota: C1 Vol.: 68
Chanel 1 Note Off - Duracao: 76560 Nota: C1 Vol.: 86
Chanel 1 Note On - Duracao: 76560 Nota: C1 Vol.: 84
Chanel 7 Note Off - Duracao: 76680 Nota: C1 Vol.: 47
Chanel 7 Note On - Duracao: 76680 Nota: C1 Vol.: 50
Chanel 9 Note Off - Duracao: 76680 Nota: C1 Vol.: 71
Chanel 9 Note On - Duracao: 76680 Nota: C1 Vol.: 74
Chanel 1 Note Off - Duracao: 76800 Nota: C1 Vol.: 84
Chanel 1 Note On - Duracao: 76800 Nota: C1 Vol.: 80
Chanel 5 Note Off - Duracao: 76800 Nota: C1 Vol.: 70
Chanel 5 Note On - Duracao: 76800 Nota: C1 Vol.: 65
Chanel 8 Note Off - Duracao: 76860 Nota: C1 Vol.: 40
Chanel 8 Note On - Duracao: 76860 Nota: C1 Vol.: 42
Chanel 1 Note Off - Duracao: 77040 Nota: C1 Vol.: 80
Chanel 1 Note On - Duracao: 77040 Nota: C1 Vol.: 83
Chanel 2 Note Off - Duracao: 77100 Nota: C1 Vol.: 92
Chanel 2 Note On - Duracao: 77100 Nota: C1 Vol.: 93
Chanel 1 Note Off - Duracao: 77160 Nota: C1 Vol.: 83
Chanel 1 Note On - Duracao: 77160 Nota: C1 Vol.: 81
Chanel 7 Note Off - Duracao: 77160 Nota: C1 Vol.: 50
Chanel 7 Note On - Duracao: 77160 Nota: C1 Vol.: 48
Chanel 1 Note Off - Duracao: 77400 Nota: C1 Vol.: 81
Chanel 1 Note On - Duracao: 77400 Nota: C1 Vol.: 87
Chanel 1 Note Off - Duracao: 77640 Nota: C1 Vol.: 87
Chanel 1 Note On - Duracao: 77640 Nota: C1 Vol.: 89
Chanel 7 Note Off - Duracao: 77640 Nota: C1 Vol.: 48
Chanel 7 Note On - Duracao: 77640 Nota: C1 Vol.: 43
Chanel 1 Note Off - Duracao: 77760 Nota: C1 Vol.: 89
Chanel 1 Note On - Duracao: 77760 Nota: C1 Vol.: 91
Chanel 5 Note Off - Duracao: 77760 Nota: C1 Vol.: 65
Chanel 5 Note On - Duracao: 77760 Nota: C1 Vol.: 72
Chanel 8 Note Off - Duracao: 77820 Nota: C1 Vol.: 42
Chanel 8 Note On - Duracao: 77820 Nota: C1 Vol.: 47
Chanel 1 Note Off - Duracao: 77880 Nota: C1 Vol.: 91
Chanel 1 Note On - Duracao: 77880 Nota: C1 Vol.: 87
Chanel 1 Note Off - Duracao: 78000 Nota: C1 Vol.: 87
Chanel 1 Note On - Duracao: 78000 Nota: C1 Vol.: 90
Chanel 1 Note Off - Duracao: 78120 Nota: C1 Vol.: 90
Chanel 1 Note On - Duracao: 78120 Nota: C1 Vol.: 85
Chanel 1 Note Off - Duracao: 78240 Nota: C1 Vol.: 85
Chanel 1 Note On - Duracao: 78240 Nota: C1 Vol.: 93
Chanel 5 Note Off - Duracao: 78240 Nota: C1 Vol.: 72
Chanel 5 Note On - Duracao: 78240 Nota: C1 Vol.: 99
Chanel 10 Note Off - Duracao: 78240 Nota: C1 Vol.: 68
Chanel 10 Note On - Duracao: 78240 Nota: C1 Vol.: 74
Chanel 1 Note Off - Duracao: 78300 Nota: C1 Vol.: 93
Chanel 1 Note On - Duracao: 78300 Nota: C1 Vol.: 95
Chanel 5 Note Off - Duracao: 78300 Nota: C1 Vol.: 99
Chanel 5 Note On - Duracao: 78300 Nota: C1 Vol.: 96
Chanel 8 Note Off - Duracao: 78300 Nota: C1 Vol.: 47
Chanel 8 Note On - Duracao: 78300 Nota: C1 Vol.: 50
Chanel 1 Note Off - Duracao: 78360 Nota: C1 Vol.: 95
Chanel 1 Note On - Duracao: 78360 Nota: C1 Vol.: 94
Chanel 5 Note Off - Duracao: 78360 Nota: C1 Vol.: 96
Chanel 5 Note On - Duracao: 78360 Nota: C1 Vol.: 98
Chanel 3 Note Off - Duracao: 78420 Nota: C1 Vol.: 44
Chanel 3 Note On - Duracao: 78420 Nota: C1 Vol.: 46
Chanel 5 Note Off - Duracao: 78420 Nota: C1 Vol.: 98
Chanel 5 Note On - Duracao: 78420 Nota: C1 Vol.: 93
Chanel 1 Note Off - Duracao: 78480 Nota: C1 Vol.: 94
Chanel 1 Note On - Duracao: 78480 Nota: C1 Vol.: 98
Chanel 1 Note Off - Duracao: 78540 Nota: C1 Vol.: 98
Chanel 1 Note On - Duracao: 78540 Nota: C1 Vol.: 96
Chanel 5 Note Off - Duracao: 78540 Nota: C1 Vol.: 93
Chanel 5 Note On - Duracao: 78540 Nota: C1 Vol.: 97
Chanel 1 Note Off - Duracao: 78600 Nota: C1 Vol.: 96
Chanel 1 Note On - Duracao: 78600 Nota: C1 Vol.: 96
Chanel 5 Note Off - Duracao: 78600 Nota: C1 Vol.: 97
Chanel 5 Note On - Duracao: 78600 Nota: C1 Vol.: 96
Chanel 7 Note Off - Duracao: 78600 Nota: C1 Vol.: 43
Chanel 7 Note On - Duracao: 78600 Nota: C1 Vol.: 43
Chanel 9 Note Off - Duracao: 78600 Nota: C1 Vol.: 74
Chanel 9 Note On - Duracao: 78600 Nota: C1 Vol.: 73
Chanel 1 Note Off - Duracao: 78660 Nota: C1 Vol.: 96
Chanel 1 Note On - Duracao: 78660 Nota: C1 Vol.: 96
Chanel 5 Note Off - Duracao: 78660 Nota: C1 Vol.: 96
Chanel 5 Note On - Duracao: 78660 Nota: C1 Vol.: 92
Chanel 1 Note Off - Duracao: 78720 Nota: C1 Vol.: 96
Chanel 1 Note On - Duracao: 78720 Nota: C1 Vol.: 94
Chanel 1 Note Off - Duracao: 78780 Nota: C1 Vol.: 94
Chanel 1 Note On - Duracao: 78780 Nota: C1 Vol.: 94
Chanel 5 Note Off - Duracao: 78780 Nota: C1 Vol.: 92
Chanel 5 Note On - Duracao: 78780 Nota: C1 Vol.: 92
Chanel 8 Note Off - Duracao: 78780 Nota: C1 Vol.: 50
Chanel 8 Note On - Duracao: 78780 Nota: C1 Vol.: 49
Chanel 1 Note Off - Duracao: 78840 Nota: C1 Vol.: 94
Chanel 1 Note On - Duracao: 78840 Nota: C1 Vol.: 91
Chanel 5 Note Off - Duracao: 78900 Nota: C1 Vol.: 92
Chanel 5 Note On - Duracao: 78900 Nota: C1 Vol.: 95
Chanel 1 Note Off - Duracao: 78960 Nota: C1 Vol.: 91
Chanel 1 Note On - Duracao: 78960 Nota: C1 Vol.: 92
Chanel 5 Note Off - Duracao: 78960 Nota: C1 Vol.: 95
Chanel 5 Note On - Duracao: 78960 Nota: C1 Vol.: 93
Chanel 2 Note Off - Duracao: 79020 Nota: C1 Vol.: 93
Chanel 2 Note On - Duracao: 79020 Nota: C1 Vol.: 88
Chanel 1 Note Off - Duracao: 79080 Nota: C1 Vol.: 92
Chanel 1 Note On - Duracao: 79080 Nota: C1 Vol.: 92
Chanel 4 Note Off - Duracao: 79080 Nota: C1 Vol.: 47
Chanel 4 Note On - Duracao: 79080 Nota: C1 Vol.: 45
Chanel 5 Note Off - Duracao: 79080 Nota: C1 Vol.: 93
Chanel 5 Note On - Duracao: 79080 Nota: C1 Vol.: 86
Chanel 1 Note Off - Duracao: 79200 Nota: C1 Vol.: 92
Chanel 1 Note On - Duracao: 79200 Nota: C1 Vol.: 97
Chanel 10 Note Off - Duracao: 79200 Nota: C1 Vol.: 74
Chanel 10 Note On - Duracao: 79200 Nota: C1 Vol.: 76
Chanel 1 Note Off - Duracao: 79260 Nota: C1 Vol.: 97
Chanel 1 Note On - Duracao: 79260 Nota: C1 Vol.: 96
Chanel 1 Note Off - Duracao: 79320 Nota: C1 Vol.: 96
Chanel 1 Note On - Duracao: 79320 Nota: C1 Vol.: 97
Chanel 5 Note Off - Duracao: 79320 Nota: C1 Vol.: 86
Chanel 5 Note On - Duracao: 79320 Nota: C1 Vol.: 73
Chanel 1 Note Off - Duracao: 79380 Nota: C1 Vol.: 97
Chanel 1 Note On - Duracao: 79380 Nota: C1 Vol.: 96
Chanel 1 Note Off - Duracao: 79440 Nota: C1 Vol.: 96
Chanel 1 Note On - Duracao: 79440 Nota: C1 Vol.: 95
Chanel 1 Note Off - Duracao: 79500 Nota: C1 Vol.: 95
Chanel 1 Note On - Duracao: 79500 Nota: C1 Vol.: 96
Chanel 6 Note Off - Duracao: 79500 Nota: C1 Vol.: 56
Chanel 6 Note On - Duracao: 79500 Nota: C1 Vol.: 67
Chanel 1 Note Off - Duracao: 79560 Nota: C1 Vol.: 96
Chanel 1 Note On - Duracao: 79560 Nota: C1 Vol.: 97
Chanel 1 Note Off - Duracao: 79620 Nota: C1 Vol.: 97
Chanel 1 Note On - Duracao: 79620 Nota: C1 Vol.: 95
Chanel 1 Note Off - Duracao: 79680 Nota: C1 Vol.: 95
Chanel 1 Note On - Duracao: 79680 Nota: C1 Vol.: 95
Chanel 1 Note Off - Duracao: 79740 Nota: C1 Vol.: 95
Chanel 1 Note On - Duracao: 79740 Nota: C1 Vol.: 96
Chanel 8 Note Off - Duracao: 79740 Nota: C1 Vol.: 49
Chanel 8 Note On - Duracao: 79740 Nota: C1 Vol.: 52
Chanel 1 Note Off - Duracao: 79800 Nota: C1 Vol.: 96
Chanel 1 Note On - Duracao: 79800 Nota: C1 Vol.: 95
Chanel 1 Note Off - Duracao: 79860 Nota: C1 Vol.: 95
Chanel 1 Note On - Duracao: 79860 Nota: C1 Vol.: 95
Chanel 1 Note Off - Duracao: 79920 Nota: C1 Vol.: 95
Chanel 1 Note On - Duracao: 79920 Nota: C1 Vol.: 95
Chanel 1 Note Off - Duracao: 79980 Nota: C1 Vol.: 95
Chanel 1 Note On - Duracao: 79980 Nota: C1 Vol.: 95
Chanel 2 Note Off - Duracao: 79980 Nota: C1 Vol.: 88
Chanel 2 Note On - Duracao: 79980 Nota: C1 Vol.: 60
Chanel 1 Note Off - Duracao: 80040 Nota: C1 Vol.: 95
Chanel 1 Note On - Duracao: 80040 Nota: C1 Vol.: 97
Chanel 1 Note Off - Duracao: 80100 Nota: C1 Vol.: 97
Chanel 1 Note On - Duracao: 80100 Nota: C1 Vol.: 95
Chanel 1 Note Off - Duracao: 80160 Nota: C1 Vol.: 95
Chanel 1 Note On - Duracao: 80160 Nota: C1 Vol.: 96
Chanel 10 Note Off - Duracao: 80160 Nota: C1 Vol.: 76
Chanel 10 Note On - Duracao: 80160 Nota: C1 Vol.: 82
Chanel 1 Note Off - Duracao: 80220 Nota: C1 Vol.: 96
Chanel 1 Note On - Duracao: 80220 Nota: C1 Vol.: 95
Chanel 1 Note Off - Duracao: 80280 Nota: C1 Vol.: 95
Chanel 1 Note On - Duracao: 80280 Nota: C1 Vol.: 94
Chanel 5 Note Off - Duracao: 80280 Nota: C1 Vol.: 73
Chanel 5 Note On - Duracao: 80280 Nota: C1 Vol.: 62
Chanel 1 Note Off - Duracao: 80340 Nota: C1 Vol.: 94
Chanel 1 Note On - Duracao: 80340 Nota: C1 Vol.: 93
Chanel 1 Note Off - Duracao: 80400 Nota: C1 Vol.: 93
Chanel 1 Note On - Duracao: 80400 Nota: C1 Vol.: 93
Chanel 1 Note Off - Duracao: 80460 Nota: C1 Vol.: 93
Chanel 1 Note On - Duracao: 80460 Nota: C1 Vol.: 94
Chanel 1 Note Off - Duracao: 80520 Nota: C1 Vol.: 94
Chanel 1 Note On - Duracao: 80520 Nota: C1 Vol.: 96
Chanel 7 Note Off - Duracao: 80520 Nota: C1 Vol.: 43
Chanel 7 Note On - Duracao: 80520 Nota: C1 Vol.: 43
Chanel 9 Note Off - Duracao: 80520 Nota: C1 Vol.: 73
Chanel 9 Note On - Duracao: 80520 Nota: C1 Vol.: 86
Chanel 1 Note Off - Duracao: 80580 Nota: C1 Vol.: 96
Chanel 1 Note On - Duracao: 80580 Nota: C1 Vol.: 95
Chanel 1 Note Off - Duracao: 80700 Nota: C1 Vol.: 95
Chanel 1 Note On - Duracao: 80700 Nota: C1 Vol.: 95
Chanel 8 Note Off - Duracao: 80700 Nota: C1 Vol.: 52
Chanel 8 Note On - Duracao: 80700 Nota: C1 Vol.: 43
Chanel 1 Note Off - Duracao: 80820 Nota: C1 Vol.: 95
Chanel 1 Note On - Duracao: 80820 Nota: C1 Vol.: 82
Chanel 1 Note Off - Duracao: 81060 Nota: C1 Vol.: 82
Chanel 1 Note On - Duracao: 81060 Nota: C1 Vol.: 74
Chanel 10 Note Off - Duracao: 81120 Nota: C1 Vol.: 82
Chanel 10 Note On - Duracao: 81120 Nota: C1 Vol.: 81
Chanel 6 Note Off - Duracao: 81420 Nota: C1 Vol.: 67
Chanel 6 Note On - Duracao: 81420 Nota: C1 Vol.: 76
Chanel 9 Note Off - Duracao: 81480 Nota: C1 Vol.: 86
Chanel 9 Note On - Duracao: 81480 Nota: C1 Vol.: 91
Chanel 10 Note Off - Duracao: 82080 Nota: C1 Vol.: 81
Chanel 10 Note On - Duracao: 82080 Nota: C1 Vol.: 83
Chanel 5 Note Off - Duracao: 82200 Nota: C1 Vol.: 62
Chanel 5 Note On - Duracao: 82200 Nota: C1 Vol.: 63
Chanel 3 Note Off - Duracao: 82260 Nota: C1 Vol.: 46
Chanel 3 Note On - Duracao: 82260 Nota: C1 Vol.: 43
Chanel 6 Note Off - Duracao: 82380 Nota: C1 Vol.: 76
Chanel 6 Note On - Duracao: 82380 Nota: C1 Vol.: 79
Chanel 7 Note Off - Duracao: 82440 Nota: C1 Vol.: 43
Chanel 7 Note On - Duracao: 82440 Nota: C1 Vol.: 47
Chanel 9 Note Off - Duracao: 82440 Nota: C1 Vol.: 91
Chanel 9 Note On - Duracao: 82440 Nota: C1 Vol.: 81
Chanel 10 Note Off - Duracao: 82560 Nota: C1 Vol.: 83
Chanel 10 Note On - Duracao: 82560 Nota: C1 Vol.: 79
Chanel 4 Note Off - Duracao: 82920 Nota: C1 Vol.: 45
Chanel 4 Note On - Duracao: 82920 Nota: C1 Vol.: 46
Chanel 1 Note Off - Duracao: 82980 Nota: C1 Vol.: 74
Chanel 1 Note On - Duracao: 82980 Nota: C1 Vol.: 75
Chanel 6 Note Off - Duracao: 83340 Nota: C1 Vol.: 79
Chanel 6 Note On - Duracao: 83340 Nota: C1 Vol.: 77
Chanel 10 Note Off - Duracao: 83520 Nota: C1 Vol.: 79
Chanel 10 Note On - Duracao: 83520 Nota: C1 Vol.: 80
Chanel 2 Note Off - Duracao: 83820 Nota: C1 Vol.: 60
Chanel 2 Note On - Duracao: 83820 Nota: C1 Vol.: 63
Chanel 5 Note Off - Duracao: 84120 Nota: C1 Vol.: 63
Chanel 5 Note On - Duracao: 84120 Nota: C1 Vol.: 66
Chanel 6 Note Off - Duracao: 84300 Nota: C1 Vol.: 77
Chanel 6 Note On - Duracao: 84300 Nota: C1 Vol.: 76
Chanel 7 Note Off - Duracao: 84360 Nota: C1 Vol.: 47
Chanel 7 Note On - Duracao: 84360 Nota: C1 Vol.: 73
Chanel 9 Note Off - Duracao: 84360 Nota: C1 Vol.: 81
Chanel 9 Note On - Duracao: 84360 Nota: C1 Vol.: 94
Chanel 10 Note Off - Duracao: 84480 Nota: C1 Vol.: 80
Chanel 10 Note On - Duracao: 84480 Nota: C1 Vol.: 79
Chanel 8 Note Off - Duracao: 84540 Nota: C1 Vol.: 43
Chanel 8 Note On - Duracao: 84540 Nota: C1 Vol.: 51
Chanel 7 Note Off - Duracao: 84840 Nota: C1 Vol.: 73
Chanel 7 Note On - Duracao: 84840 Nota: C1 Vol.: 85
Chanel 9 Note Off - Duracao: 84840 Nota: C1 Vol.: 94
Chanel 9 Note On - Duracao: 84840 Nota: C1 Vol.: 92
Chanel 1 Note Off - Duracao: 84900 Nota: C1 Vol.: 75
Chanel 1 Note On - Duracao: 84900 Nota: C1 Vol.: 74
Chanel 7 Note Off - Duracao: 85080 Nota: C1 Vol.: 85
Chanel 7 Note On - Duracao: 85080 Nota: C1 Vol.: 90
Chanel 7 Note Off - Duracao: 85200 Nota: C1 Vol.: 90
Chanel 7 Note On - Duracao: 85200 Nota: C1 Vol.: 89
Chanel 6 Note Off - Duracao: 85260 Nota: C1 Vol.: 76
Chanel 6 Note On - Duracao: 85260 Nota: C1 Vol.: 79
Chanel 7 Note Off - Duracao: 85320 Nota: C1 Vol.: 89
Chanel 7 Note On - Duracao: 85320 Nota: C1 Vol.: 89
Chanel 9 Note Off - Duracao: 85320 Nota: C1 Vol.: 92
Chanel 9 Note On - Duracao: 85320 Nota: C1 Vol.: 89
Chanel 7 Note Off - Duracao: 85440 Nota: C1 Vol.: 89
Chanel 7 Note On - Duracao: 85440 Nota: C1 Vol.: 89
Chanel 10 Note Off - Duracao: 85440 Nota: C1 Vol.: 79
Chanel 10 Note On - Duracao: 85440 Nota: C1 Vol.: 79
Chanel 7 Note Off - Duracao: 85560 Nota: C1 Vol.: 89
Chanel 7 Note On - Duracao: 85560 Nota: C1 Vol.: 89
Chanel 7 Note Off - Duracao: 85680 Nota: C1 Vol.: 89
Chanel 7 Note On - Duracao: 85680 Nota: C1 Vol.: 90
Chanel 2 Note Off - Duracao: 85740 Nota: C1 Vol.: 63
Chanel 2 Note On - Duracao: 85740 Nota: C1 Vol.: 81
Chanel 7 Note Off - Duracao: 85800 Nota: C1 Vol.: 90
Chanel 7 Note On - Duracao: 85800 Nota: C1 Vol.: 88
Chanel 9 Note Off - Duracao: 85800 Nota: C1 Vol.: 89
Chanel 9 Note On - Duracao: 85800 Nota: C1 Vol.: 88
Chanel 7 Note Off - Duracao: 85920 Nota: C1 Vol.: 88
Chanel 7 Note On - Duracao: 85920 Nota: C1 Vol.: 85
Chanel 2 Note Off - Duracao: 85980 Nota: C1 Vol.: 81
Chanel 2 Note On - Duracao: 85980 Nota: C1 Vol.: 77
Chanel 5 Note Off - Duracao: 86040 Nota: C1 Vol.: 66
Chanel 5 Note On - Duracao: 86040 Nota: C1 Vol.: 68
Chanel 3 Note Off - Duracao: 86100 Nota: C1 Vol.: 43
Chanel 3 Note On - Duracao: 86100 Nota: C1 Vol.: 67
Chanel 7 Note Off - Duracao: 86160 Nota: C1 Vol.: 85
Chanel 7 Note On - Duracao: 86160 Nota: C1 Vol.: 96
Chanel 6 Note Off - Duracao: 86220 Nota: C1 Vol.: 79
Chanel 6 Note On - Duracao: 86220 Nota: C1 Vol.: 80
Chanel 7 Note Off - Duracao: 86280 Nota: C1 Vol.: 96
Chanel 7 Note On - Duracao: 86280 Nota: C1 Vol.: 80
Chanel 9 Note Off - Duracao: 86280 Nota: C1 Vol.: 88
Chanel 9 Note On - Duracao: 86280 Nota: C1 Vol.: 82
Chanel 10 Note Off - Duracao: 86400 Nota: C1 Vol.: 79
Chanel 10 Note On - Duracao: 86400 Nota: C1 Vol.: 69
Chanel 2 Note Off - Duracao: 86460 Nota: C1 Vol.: 77
Chanel 2 Note On - Duracao: 86460 Nota: C1 Vol.: 82
Chanel 8 Note Off - Duracao: 86460 Nota: C1 Vol.: 51
Chanel 8 Note On - Duracao: 86460 Nota: C1 Vol.: 53
Chanel 7 Note Off - Duracao: 86520 Nota: C1 Vol.: 80
Chanel 7 Note On - Duracao: 86520 Nota: C1 Vol.: 86
Chanel 7 Note Off - Duracao: 86640 Nota: C1 Vol.: 86
Chanel 7 Note On - Duracao: 86640 Nota: C1 Vol.: 73
Chanel 2 Note Off - Duracao: 86700 Nota: C1 Vol.: 82
Chanel 2 Note On - Duracao: 86700 Nota: C1 Vol.: 83
Chanel 4 Note Off - Duracao: 86760 Nota: C1 Vol.: 46
Chanel 4 Note On - Duracao: 86760 Nota: C1 Vol.: 48
Chanel 1 Note Off - Duracao: 86820 Nota: C1 Vol.: 74
Chanel 1 Note On - Duracao: 86820 Nota: C1 Vol.: 79
Chanel 2 Note Off - Duracao: 86940 Nota: C1 Vol.: 83
Chanel 2 Note On - Duracao: 86940 Nota: C1 Vol.: 84
Chanel 5 Note Off - Duracao: 87000 Nota: C1 Vol.: 68
Chanel 5 Note On - Duracao: 87000 Nota: C1 Vol.: 58
Chanel 7 Note Off - Duracao: 87120 Nota: C1 Vol.: 73
Chanel 7 Note On - Duracao: 87120 Nota: C1 Vol.: 67
Chanel 2 Note Off - Duracao: 87180 Nota: C1 Vol.: 84
Chanel 2 Note On - Duracao: 87180 Nota: C1 Vol.: 83
Chanel 6 Note Off - Duracao: 87180 Nota: C1 Vol.: 80
Chanel 6 Note On - Duracao: 87180 Nota: C1 Vol.: 78
Chanel 9 Note Off - Duracao: 87240 Nota: C1 Vol.: 82
Chanel 9 Note On - Duracao: 87240 Nota: C1 Vol.: 80
Chanel 2 Note Off - Duracao: 87420 Nota: C1 Vol.: 83
Chanel 2 Note On - Duracao: 87420 Nota: C1 Vol.: 86
Chanel 2 Note Off - Duracao: 87660 Nota: C1 Vol.: 86
Chanel 2 Note On - Duracao: 87660 Nota: C1 Vol.: 79
Chanel 2 Note Off - Duracao: 87900 Nota: C1 Vol.: 79
Chanel 2 Note On - Duracao: 87900 Nota: C1 Vol.: 93
Chanel 2 Note Off - Duracao: 88020 Nota: C1 Vol.: 93
Chanel 2 Note On - Duracao: 88020 Nota: C1 Vol.: 92
Chanel 7 Note Off - Duracao: 88080 Nota: C1 Vol.: 67
Chanel 7 Note On - Duracao: 88080 Nota: C1 Vol.: 64
Chanel 2 Note Off - Duracao: 88140 Nota: C1 Vol.: 92
Chanel 2 Note On - Duracao: 88140 Nota: C1 Vol.: 94
Chanel 6 Note Off - Duracao: 88140 Nota: C1 Vol.: 78
Chanel 6 Note On - Duracao: 88140 Nota: C1 Vol.: 59
Chanel 9 Note Off - Duracao: 88200 Nota: C1 Vol.: 80
Chanel 9 Note On - Duracao: 88200 Nota: C1 Vol.: 79
Chanel 2 Note Off - Duracao: 88260 Nota: C1 Vol.: 94
Chanel 2 Note On - Duracao: 88260 Nota: C1 Vol.: 75
Chanel 10 Note Off - Duracao: 88320 Nota: C1 Vol.: 69
Chanel 10 Note On - Duracao: 88320 Nota: C1 Vol.: 66
Chanel 1 Note Off - Duracao: 88740 Nota: C1 Vol.: 79
Chanel 1 Note On - Duracao: 88740 Nota: C1 Vol.: 83
Chanel 5 Note Off - Duracao: 88920 Nota: C1 Vol.: 58
Chanel 5 Note On - Duracao: 88920 Nota: C1 Vol.: 65
Chanel 7 Note Off - Duracao: 89040 Nota: C1 Vol.: 64
Chanel 7 Note On - Duracao: 89040 Nota: C1 Vol.: 66
Chanel 9 Note Off - Duracao: 89160 Nota: C1 Vol.: 79
Chanel 9 Note On - Duracao: 89160 Nota: C1 Vol.: 67
Chanel 2 Note Off - Duracao: 89220 Nota: C1 Vol.: 75
Chanel 2 Note On - Duracao: 89220 Nota: C1 Vol.: 81
Chanel 1 Note Off - Duracao: 89700 Nota: C1 Vol.: 83
Chanel 1 Note On - Duracao: 89700 Nota: C1 Vol.: 87
Chanel 3 Note Off - Duracao: 89940 Nota: C1 Vol.: 67
Chanel 3 Note On - Duracao: 89940 Nota: C1 Vol.: 86
Chanel 7 Note Off - Duracao: 90000 Nota: C1 Vol.: 66
Chanel 7 Note On - Duracao: 90000 Nota: C1 Vol.: 88
Chanel 6 Note Off - Duracao: 90060 Nota: C1 Vol.: 59
Chanel 6 Note On - Duracao: 90060 Nota: C1 Vol.: 55
Chanel 1 Note Off - Duracao: 90180 Nota: C1 Vol.: 87
Chanel 1 Note On - Duracao: 90180 Nota: C1 Vol.: 89
Chanel 2 Note Off - Duracao: 90180 Nota: C1 Vol.: 81
Chanel 2 Note On - Duracao: 90180 Nota: C1 Vol.: 87
Chanel 7 Note Off - Duracao: 90240 Nota: C1 Vol.: 88
Chanel 7 Note On - Duracao: 90240 Nota: C1 Vol.: 85
Chanel 10 Note Off - Duracao: 90240 Nota: C1 Vol.: 66
Chanel 10 Note On - Duracao: 90240 Nota: C1 Vol.: 70
Chanel 8 Note Off - Duracao: 90300 Nota: C1 Vol.: 53
Chanel 8 Note On - Duracao: 90300 Nota: C1 Vol.: 64
Chanel 7 Note Off - Duracao: 90480 Nota: C1 Vol.: 85
Chanel 7 Note On - Duracao: 90480 Nota: C1 Vol.: 73
Chanel 4 Note Off - Duracao: 90600 Nota: C1 Vol.: 48
Chanel 4 Note On - Duracao: 90600 Nota: C1 Vol.: 45
Chanel 1 Note Off - Duracao: 90660 Nota: C1 Vol.: 89
Chanel 1 Note On - Duracao: 90660 Nota: C1 Vol.: 88
Chanel 5 Note Off - Duracao: 90840 Nota: C1 Vol.: 65
Chanel 5 Note On - Duracao: 90840 Nota: C1 Vol.: 68
Chanel 7 Note Off - Duracao: 90960 Nota: C1 Vol.: 73
Chanel 7 Note On - Duracao: 90960 Nota: C1 Vol.: 66
Chanel 9 Note Off - Duracao: 91080 Nota: C1 Vol.: 67
Chanel 9 Note On - Duracao: 91080 Nota: C1 Vol.: 66
Chanel 1 Note Off - Duracao: 91140 Nota: C1 Vol.: 88
Chanel 1 Note On - Duracao: 91140 Nota: C1 Vol.: 87
Chanel 2 Note Off - Duracao: 91140 Nota: C1 Vol.: 87
Chanel 2 Note On - Duracao: 91140 Nota: C1 Vol.: 84
Chanel 1 Note Off - Duracao: 91620 Nota: C1 Vol.: 87
Chanel 1 Note On - Duracao: 91620 Nota: C1 Vol.: 85
Chanel 3 Note Off - Duracao: 91860 Nota: C1 Vol.: 86
Chanel 3 Note On - Duracao: 91860 Nota: C1 Vol.: 90
Chanel 7 Note Off - Duracao: 91920 Nota: C1 Vol.: 66
Chanel 7 Note On - Duracao: 91920 Nota: C1 Vol.: 87
Chanel 6 Note Off - Duracao: 91980 Nota: C1 Vol.: 55
Chanel 6 Note On - Duracao: 91980 Nota: C1 Vol.: 51
Chanel 2 Note Off - Duracao: 92100 Nota: C1 Vol.: 84
Chanel 2 Note On - Duracao: 92100 Nota: C1 Vol.: 71
Chanel 7 Note Off - Duracao: 92160 Nota: C1 Vol.: 87
Chanel 7 Note On - Duracao: 92160 Nota: C1 Vol.: 79
Chanel 10 Note Off - Duracao: 92160 Nota: C1 Vol.: 70
Chanel 10 Note On - Duracao: 92160 Nota: C1 Vol.: 75
Chanel 8 Note Off - Duracao: 92220 Nota: C1 Vol.: 64
Chanel 8 Note On - Duracao: 92220 Nota: C1 Vol.: 69
Chanel 7 Note Off - Duracao: 92400 Nota: C1 Vol.: 79
Chanel 7 Note On - Duracao: 92400 Nota: C1 Vol.: 83
Chanel 1 Note Off - Duracao: 92580 Nota: C1 Vol.: 85
Chanel 1 Note On - Duracao: 92580 Nota: C1 Vol.: 83
Chanel 7 Note Off - Duracao: 92640 Nota: C1 Vol.: 83
Chanel 7 Note On - Duracao: 92640 Nota: C1 Vol.: 96
Chanel 5 Note Off - Duracao: 92760 Nota: C1 Vol.: 68
Chanel 5 Note On - Duracao: 92760 Nota: C1 Vol.: 71
Chanel 7 Note Off - Duracao: 92760 Nota: C1 Vol.: 96
Chanel 7 Note On - Duracao: 92760 Nota: C1 Vol.: 88
Chanel 6 Note Off - Duracao: 92940 Nota: C1 Vol.: 51
Chanel 6 Note On - Duracao: 92940 Nota: C1 Vol.: 52
Chanel 7 Note Off - Duracao: 93000 Nota: C1 Vol.: 88
Chanel 7 Note On - Duracao: 93000 Nota: C1 Vol.: 69
Chanel 9 Note Off - Duracao: 93000 Nota: C1 Vol.: 66
Chanel 9 Note On - Duracao: 93000 Nota: C1 Vol.: 65
Chanel 1 Note Off - Duracao: 93060 Nota: C1 Vol.: 83
Chanel 1 Note On - Duracao: 93060 Nota: C1 Vol.: 82
Chanel 10 Note Off - Duracao: 93120 Nota: C1 Vol.: 75
Chanel 10 Note On - Duracao: 93120 Nota: C1 Vol.: 74
Chanel 1 Note Off - Duracao: 93540 Nota: C1 Vol.: 82
Chanel 1 Note On - Duracao: 93540 Nota: C1 Vol.: 94
Chanel 10 Note Off - Duracao: 93600 Nota: C1 Vol.: 74
Chanel 10 Note On - Duracao: 93600 Nota: C1 Vol.: 70
Chanel 1 Note Off - Duracao: 93660 Nota: C1 Vol.: 94
Chanel 1 Note On - Duracao: 93660 Nota: C1 Vol.: 97
Chanel 1 Note Off - Duracao: 93720 Nota: C1 Vol.: 97
Chanel 1 Note On - Duracao: 93720 Nota: C1 Vol.: 95
Chanel 5 Note Off - Duracao: 93720 Nota: C1 Vol.: 71
Chanel 5 Note On - Duracao: 93720 Nota: C1 Vol.: 62
Chanel 1 Note Off - Duracao: 93840 Nota: C1 Vol.: 95
Chanel 1 Note On - Duracao: 93840 Nota: C1 Vol.: 88
Chanel 6 Note Off - Duracao: 93900 Nota: C1 Vol.: 52
Chanel 6 Note On - Duracao: 93900 Nota: C1 Vol.: 50
Chanel 7 Note Off - Duracao: 93960 Nota: C1 Vol.: 69
Chanel 7 Note On - Duracao: 93960 Nota: C1 Vol.: 73
Chanel 2 Note Off - Duracao: 94020 Nota: C1 Vol.: 71
Chanel 2 Note On - Duracao: 94020 Nota: C1 Vol.: 73
Chanel 1 Note Off - Duracao: 94080 Nota: C1 Vol.: 88
Chanel 1 Note On - Duracao: 94080 Nota: C1 Vol.: 88
Chanel 10 Note Off - Duracao: 94080 Nota: C1 Vol.: 70
Chanel 10 Note On - Duracao: 94080 Nota: C1 Vol.: 80
Chanel 8 Note Off - Duracao: 94140 Nota: C1 Vol.: 69
Chanel 8 Note On - Duracao: 94140 Nota: C1 Vol.: 74
Chanel 1 Note Off - Duracao: 94320 Nota: C1 Vol.: 88
Chanel 1 Note On - Duracao: 94320 Nota: C1 Vol.: 81
Chanel 10 Note Off - Duracao: 94320 Nota: C1 Vol.: 80
Chanel 10 Note On - Duracao: 94320 Nota: C1 Vol.: 79
Chanel 4 Note Off - Duracao: 94440 Nota: C1 Vol.: 45
Chanel 4 Note On - Duracao: 94440 Nota: C1 Vol.: 45
Chanel 10 Note Off - Duracao: 94560 Nota: C1 Vol.: 79
Chanel 10 Note On - Duracao: 94560 Nota: C1 Vol.: 80
Chanel 1 Note Off - Duracao: 94800 Nota: C1 Vol.: 81
Chanel 1 Note On - Duracao: 94800 Nota: C1 Vol.: 81
Chanel 10 Note Off - Duracao: 94800 Nota: C1 Vol.: 80
Chanel 10 Note On - Duracao: 94800 Nota: C1 Vol.: 83
Chanel 6 Note Off - Duracao: 94860 Nota: C1 Vol.: 50
Chanel 6 Note On - Duracao: 94860 Nota: C1 Vol.: 77
Chanel 7 Note Off - Duracao: 94920 Nota: C1 Vol.: 73
Chanel 7 Note On - Duracao: 94920 Nota: C1 Vol.: 74
Chanel 9 Note Off - Duracao: 94920 Nota: C1 Vol.: 65
Chanel 9 Note On - Duracao: 94920 Nota: C1 Vol.: 58
Chanel 10 Note Off - Duracao: 94920 Nota: C1 Vol.: 83
Chanel 10 Note On - Duracao: 94920 Nota: C1 Vol.: 82
Chanel 6 Note Off - Duracao: 95100 Nota: C1 Vol.: 77
Chanel 6 Note On - Duracao: 95100 Nota: C1 Vol.: 59
Chanel 8 Note Off - Duracao: 95100 Nota: C1 Vol.: 74
Chanel 8 Note On - Duracao: 95100 Nota: C1 Vol.: 68
Chanel 10 Note Off - Duracao: 95160 Nota: C1 Vol.: 82
Chanel 10 Note On - Duracao: 95160 Nota: C1 Vol.: 80
Chanel 1 Note Off - Duracao: 95280 Nota: C1 Vol.: 81
Chanel 1 Note On - Duracao: 95280 Nota: C1 Vol.: 82
Chanel 10 Note Off - Duracao: 95400 Nota: C1 Vol.: 80
Chanel 10 Note On - Duracao: 95400 Nota: C1 Vol.: 84
Chanel 5 Note Off - Duracao: 95640 Nota: C1 Vol.: 62
Chanel 5 Note On - Duracao: 95640 Nota: C1 Vol.: 57
Chanel 10 Note Off - Duracao: 95640 Nota: C1 Vol.: 84
Chanel 10 Note On - Duracao: 95640 Nota: C1 Vol.: 87
Chanel 3 Note Off - Duracao: 95700 Nota: C1 Vol.: 90
Chanel 3 Note On - Duracao: 95700 Nota: C1 Vol.: 91
Chanel 1 Note Off - Duracao: 95760 Nota: C1 Vol.: 82
Chanel 1 Note On - Duracao: 95760 Nota: C1 Vol.: 85
Chanel 10 Note Off - Duracao: 95880 Nota: C1 Vol.: 87
Chanel 10 Note On - Duracao: 95880 Nota: C1 Vol.: 75
Chanel 2 Note Off - Duracao: 95940 Nota: C1 Vol.: 73
Chanel 2 Note On - Duracao: 95940 Nota: C1 Vol.: 96
Chanel 2 Note Off - Duracao: 96000 Nota: C1 Vol.: 96
Chanel 2 Note On - Duracao: 96000 Nota: C1 Vol.: 95
Chanel 2 Note Off - Duracao: 96060 Nota: C1 Vol.: 95
Chanel 2 Note On - Duracao: 96060 Nota: C1 Vol.: 95
Chanel 6 Note Off - Duracao: 96060 Nota: C1 Vol.: 59
Chanel 6 Note On - Duracao: 96060 Nota: C1 Vol.: 47
Chanel 8 Note Off - Duracao: 96060 Nota: C1 Vol.: 68
Chanel 8 Note On - Duracao: 96060 Nota: C1 Vol.: 49
Chanel 2 Note Off - Duracao: 96120 Nota: C1 Vol.: 95
Chanel 2 Note On - Duracao: 96120 Nota: C1 Vol.: 84
Chanel 1 Note Off - Duracao: 96240 Nota: C1 Vol.: 85
Chanel 1 Note On - Duracao: 96240 Nota: C1 Vol.: 85
Chanel 2 Note Off - Duracao: 96240 Nota: C1 Vol.: 84
Chanel 2 Note On - Duracao: 96240 Nota: C1 Vol.: 74
Chanel 10 Note Off - Duracao: 96360 Nota: C1 Vol.: 75
Chanel 10 Note On - Duracao: 96360 Nota: C1 Vol.: 64
Chanel 1 Note Off - Duracao: 96480 Nota: C1 Vol.: 85
Chanel 1 Note On - Duracao: 96480 Nota: C1 Vol.: 80
Chanel 2 Note Off - Duracao: 96480 Nota: C1 Vol.: 74
Chanel 2 Note On - Duracao: 96480 Nota: C1 Vol.: 77
Chanel 2 Note Off - Duracao: 96720 Nota: C1 Vol.: 77
Chanel 2 Note On - Duracao: 96720 Nota: C1 Vol.: 76
Chanel 7 Note Off - Duracao: 96840 Nota: C1 Vol.: 74
Chanel 7 Note On - Duracao: 96840 Nota: C1 Vol.: 75
Chanel 9 Note Off - Duracao: 96840 Nota: C1 Vol.: 58
Chanel 9 Note On - Duracao: 96840 Nota: C1 Vol.: 63
Chanel 1 Note Off - Duracao: 96960 Nota: C1 Vol.: 80
Chanel 1 Note On - Duracao: 96960 Nota: C1 Vol.: 74
Chanel 2 Note Off - Duracao: 96960 Nota: C1 Vol.: 76
Chanel 2 Note On - Duracao: 96960 Nota: C1 Vol.: 76
Chanel 2 Note Off - Duracao: 97200 Nota: C1 Vol.: 76
Chanel 2 Note On - Duracao: 97200 Nota: C1 Vol.: 84
Chanel 10 Note Off - Duracao: 97320 Nota: C1 Vol.: 64
Chanel 10 Note On - Duracao: 97320 Nota: C1 Vol.: 59
Chanel 1 Note Off - Duracao: 97440 Nota: C1 Vol.: 74
Chanel 1 Note On - Duracao: 97440 Nota: C1 Vol.: 90
Chanel 2 Note Off - Duracao: 97440 Nota: C1 Vol.: 84
Chanel 2 Note On - Duracao: 97440 Nota: C1 Vol.: 75
Chanel 1 Note Off - Duracao: 97560 Nota: C1 Vol.: 90
Chanel 1 Note On - Duracao: 97560 Nota: C1 Vol.: 93
Chanel 1 Note Off - Duracao: 97680 Nota: C1 Vol.: 93
Chanel 1 Note On - Duracao: 97680 Nota: C1 Vol.: 89
Chanel 2 Note Off - Duracao: 97680 Nota: C1 Vol.: 75
Chanel 2 Note On - Duracao: 97680 Nota: C1 Vol.: 77
Chanel 1 Note Off - Duracao: 97800 Nota: C1 Vol.: 89
Chanel 1 Note On - Duracao: 97800 Nota: C1 Vol.: 97
Chanel 7 Note Off - Duracao: 97800 Nota: C1 Vol.: 75
Chanel 7 Note On - Duracao: 97800 Nota: C1 Vol.: 78
Chanel 1 Note Off - Duracao: 97860 Nota: C1 Vol.: 97
Chanel 1 Note On - Duracao: 97860 Nota: C1 Vol.: 96
Chanel 1 Note Off - Duracao: 97920 Nota: C1 Vol.: 96
Chanel 1 Note On - Duracao: 97920 Nota: C1 Vol.: 96
Chanel 2 Note Off - Duracao: 97920 Nota: C1 Vol.: 77
Chanel 2 Note On - Duracao: 97920 Nota: C1 Vol.: 78
Chanel 1 Note Off - Duracao: 97980 Nota: C1 Vol.: 96
Chanel 1 Note On - Duracao: 97980 Nota: C1 Vol.: 97
Chanel 1 Note Off - Duracao: 98040 Nota: C1 Vol.: 97
Chanel 1 Note On - Duracao: 98040 Nota: C1 Vol.: 96
Chanel 1 Note Off - Duracao: 98100 Nota: C1 Vol.: 96
Chanel 1 Note On - Duracao: 98100 Nota: C1 Vol.: 93
Chanel 2 Note Off - Duracao: 98160 Nota: C1 Vol.: 78
Chanel 2 Note On - Duracao: 98160 Nota: C1 Vol.: 84
Chanel 1 Note Off - Duracao: 98220 Nota: C1 Vol.: 93
Chanel 1 Note On - Duracao: 98220 Nota: C1 Vol.: 69
Chanel 2 Note Off - Duracao: 98280 Nota: C1 Vol.: 84
Chanel 2 Note On - Duracao: 98280 Nota: C1 Vol.: 83
Chanel 4 Note Off - Duracao: 98280 Nota: C1 Vol.: 45
Chanel 4 Note On - Duracao: 98280 Nota: C1 Vol.: 43
Chanel 10 Note Off - Duracao: 98280 Nota: C1 Vol.: 59
Chanel 10 Note On - Duracao: 98280 Nota: C1 Vol.: 60
Chanel 2 Note Off - Duracao: 98400 Nota: C1 Vol.: 83
Chanel 2 Note On - Duracao: 98400 Nota: C1 Vol.: 74
Chanel 2 Note Off - Duracao: 98640 Nota: C1 Vol.: 74
Chanel 2 Note On - Duracao: 98640 Nota: C1 Vol.: 71
Chanel 7 Note Off - Duracao: 98760 Nota: C1 Vol.: 78
Chanel 7 Note On - Duracao: 98760 Nota: C1 Vol.: 82
Chanel 9 Note Off - Duracao: 98760 Nota: C1 Vol.: 63
Chanel 9 Note On - Duracao: 98760 Nota: C1 Vol.: 62
Chanel 2 Note Off - Duracao: 99120 Nota: C1 Vol.: 71
Chanel 2 Note On - Duracao: 99120 Nota: C1 Vol.: 76
Chanel 1 Note Off - Duracao: 99180 Nota: C1 Vol.: 69
Chanel 1 Note On - Duracao: 99180 Nota: C1 Vol.: 50
Chanel 7 Note Off - Duracao: 99240 Nota: C1 Vol.: 82
Chanel 7 Note On - Duracao: 99240 Nota: C1 Vol.: 81
Chanel 2 Note Off - Duracao: 99360 Nota: C1 Vol.: 76
Chanel 2 Note On - Duracao: 99360 Nota: C1 Vol.: 80
Chanel 5 Note Off - Duracao: 99480 Nota: C1 Vol.: 57
Chanel 5 Note On - Duracao: 99480 Nota: C1 Vol.: 57
Chanel 3 Note Off - Duracao: 99540 Nota: C1 Vol.: 91
Chanel 3 Note On - Duracao: 99540 Nota: C1 Vol.: 91
Chanel 2 Note Off - Duracao: 99600 Nota: C1 Vol.: 80
Chanel 2 Note On - Duracao: 99600 Nota: C1 Vol.: 78
Chanel 7 Note Off - Duracao: 99720 Nota: C1 Vol.: 81
Chanel 7 Note On - Duracao: 99720 Nota: C1 Vol.: 67
Chanel 2 Note Off - Duracao: 99840 Nota: C1 Vol.: 78
Chanel 2 Note On - Duracao: 99840 Nota: C1 Vol.: 86
Chanel 6 Note Off - Duracao: 99900 Nota: C1 Vol.: 47
Chanel 6 Note On - Duracao: 99900 Nota: C1 Vol.: 87
Chanel 8 Note Off - Duracao: 99900 Nota: C1 Vol.: 49
Chanel 8 Note On - Duracao: 99900 Nota: C1 Vol.: 60
Chanel 2 Note Off - Duracao: 99960 Nota: C1 Vol.: 86
Chanel 2 Note On - Duracao: 99960 Nota: C1 Vol.: 85
Chanel 2 Note Off - Duracao: 100080 Nota: C1 Vol.: 85
Chanel 2 Note On - Duracao: 100080 Nota: C1 Vol.: 84
Chanel 6 Note Off - Duracao: 100140 Nota: C1 Vol.: 87
Chanel 6 Note On - Duracao: 100140 Nota: C1 Vol.: 87
Chanel 2 Note Off - Duracao: 100200 Nota: C1 Vol.: 84
Chanel 2 Note On - Duracao: 100200 Nota: C1 Vol.: 90
Chanel 10 Note Off - Duracao: 100200 Nota: C1 Vol.: 60
Chanel 10 Note On - Duracao: 100200 Nota: C1 Vol.: 55
Chanel 6 Note Off - Duracao: 100260 Nota: C1 Vol.: 87
Chanel 6 Note On - Duracao: 100260 Nota: C1 Vol.: 90
Chanel 2 Note Off - Duracao: 100320 Nota: C1 Vol.: 90
Chanel 2 Note On - Duracao: 100320 Nota: C1 Vol.: 92
Chanel 6 Note Off - Duracao: 100380 Nota: C1 Vol.: 90
Chanel 6 Note On - Duracao: 100380 Nota: C1 Vol.: 89
Chanel 2 Note Off - Duracao: 100440 Nota: C1 Vol.: 92
Chanel 2 Note On - Duracao: 100440 Nota: C1 Vol.: 92
Chanel 6 Note Off - Duracao: 100500 Nota: C1 Vol.: 89
Chanel 6 Note On - Duracao: 100500 Nota: C1 Vol.: 89
Chanel 2 Note Off - Duracao: 100560 Nota: C1 Vol.: 92
Chanel 2 Note On - Duracao: 100560 Nota: C1 Vol.: 92
Chanel 6 Note Off - Duracao: 100620 Nota: C1 Vol.: 89
Chanel 6 Note On - Duracao: 100620 Nota: C1 Vol.: 91
Chanel 2 Note Off - Duracao: 100680 Nota: C1 Vol.: 92
Chanel 2 Note On - Duracao: 100680 Nota: C1 Vol.: 93
Chanel 9 Note Off - Duracao: 100680 Nota: C1 Vol.: 62
Chanel 9 Note On - Duracao: 100680 Nota: C1 Vol.: 59
Chanel 6 Note Off - Duracao: 100740 Nota: C1 Vol.: 91
Chanel 6 Note On - Duracao: 100740 Nota: C1 Vol.: 97
Chanel 2 Note Off - Duracao: 100800 Nota: C1 Vol.: 93
Chanel 2 Note On - Duracao: 100800 Nota: C1 Vol.: 79
Chanel 6 Note Off - Duracao: 100800 Nota: C1 Vol.: 97
Chanel 6 Note On - Duracao: 100800 Nota: C1 Vol.: 99
Chanel 6 Note Off - Duracao: 100860 Nota: C1 Vol.: 99
Chanel 6 Note On - Duracao: 100860 Nota: C1 Vol.: 100
Chanel 8 Note Off - Duracao: 100860 Nota: C1 Vol.: 60
Chanel 8 Note On - Duracao: 100860 Nota: C1 Vol.: 61
Chanel 6 Note Off - Duracao: 100920 Nota: C1 Vol.: 100
Chanel 6 Note On - Duracao: 100920 Nota: C1 Vol.: 99
Chanel 6 Note Off - Duracao: 100980 Nota: C1 Vol.: 99
Chanel 6 Note On - Duracao: 100980 Nota: C1 Vol.: 99
Chanel 6 Note Off - Duracao: 101040 Nota: C1 Vol.: 99
Chanel 6 Note On - Duracao: 101040 Nota: C1 Vol.: 79
Chanel 2 Note Off - Duracao: 101280 Nota: C1 Vol.: 79
Chanel 2 Note On - Duracao: 101280 Nota: C1 Vol.: 75
Chanel 6 Note Off - Duracao: 101280 Nota: C1 Vol.: 79
Chanel 6 Note On - Duracao: 101280 Nota: C1 Vol.: 99
Chanel 6 Note Off - Duracao: 101340 Nota: C1 Vol.: 99
Chanel 6 Note On - Duracao: 101340 Nota: C1 Vol.: 99
Chanel 8 Note Off - Duracao: 101340 Nota: C1 Vol.: 61
Chanel 8 Note On - Duracao: 101340 Nota: C1 Vol.: 69
Chanel 6 Note Off - Duracao: 101400 Nota: C1 Vol.: 99
Chanel 6 Note On - Duracao: 101400 Nota: C1 Vol.: 100
Chanel 6 Note Off - Duracao: 101460 Nota: C1 Vol.: 100
Chanel 6 Note On - Duracao: 101460 Nota: C1 Vol.: 99
Chanel 6 Note Off - Duracao: 101520 Nota: C1 Vol.: 99
Chanel 6 Note On - Duracao: 101520 Nota: C1 Vol.: 100
Chanel 6 Note Off - Duracao: 101580 Nota: C1 Vol.: 100
Chanel 6 Note On - Duracao: 101580 Nota: C1 Vol.: 99
Chanel 6 Note Off - Duracao: 101640 Nota: C1 Vol.: 99
Chanel 6 Note On - Duracao: 101640 Nota: C1 Vol.: 100
Chanel 7 Note Off - Duracao: 101640 Nota: C1 Vol.: 67
Chanel 7 Note On - Duracao: 101640 Nota: C1 Vol.: 87
Chanel 6 Note Off - Duracao: 101700 Nota: C1 Vol.: 100
Chanel 6 Note On - Duracao: 101700 Nota: C1 Vol.: 100
Chanel 6 Note Off - Duracao: 101760 Nota: C1 Vol.: 100
Chanel 6 Note On - Duracao: 101760 Nota: C1 Vol.: 96
Chanel 6 Note Off - Duracao: 101880 Nota: C1 Vol.: 96
Chanel 6 Note On - Duracao: 101880 Nota: C1 Vol.: 93
Chanel 6 Note Off - Duracao: 101940 Nota: C1 Vol.: 93
Chanel 6 Note On - Duracao: 101940 Nota: C1 Vol.: 95
Chanel 6 Note Off - Duracao: 102000 Nota: C1 Vol.: 95
Chanel 6 Note On - Duracao: 102000 Nota: C1 Vol.: 99
Chanel 6 Note Off - Duracao: 102060 Nota: C1 Vol.: 99
Chanel 6 Note On - Duracao: 102060 Nota: C1 Vol.: 99
Chanel 4 Note Off - Duracao: 102120 Nota: C1 Vol.: 43
Chanel 4 Note On - Duracao: 102120 Nota: C1 Vol.: 49
Chanel 6 Note Off - Duracao: 102120 Nota: C1 Vol.: 99
Chanel 6 Note On - Duracao: 102120 Nota: C1 Vol.: 96
Chanel 7 Note Off - Duracao: 102120 Nota: C1 Vol.: 87
Chanel 7 Note On - Duracao: 102120 Nota: C1 Vol.: 86
Chanel 10 Note Off - Duracao: 102120 Nota: C1 Vol.: 55
Chanel 10 Note On - Duracao: 102120 Nota: C1 Vol.: 54
Chanel 6 Note Off - Duracao: 102180 Nota: C1 Vol.: 96
Chanel 6 Note On - Duracao: 102180 Nota: C1 Vol.: 98
Chanel 2 Note Off - Duracao: 102240 Nota: C1 Vol.: 75
Chanel 2 Note On - Duracao: 102240 Nota: C1 Vol.: 77
Chanel 6 Note Off - Duracao: 102240 Nota: C1 Vol.: 98
Chanel 6 Note On - Duracao: 102240 Nota: C1 Vol.: 98
Chanel 6 Note Off - Duracao: 102300 Nota: C1 Vol.: 98
Chanel 6 Note On - Duracao: 102300 Nota: C1 Vol.: 94
Chanel 8 Note Off - Duracao: 102300 Nota: C1 Vol.: 69
Chanel 8 Note On - Duracao: 102300 Nota: C1 Vol.: 96
Chanel 6 Note Off - Duracao: 102360 Nota: C1 Vol.: 94
Chanel 6 Note On - Duracao: 102360 Nota: C1 Vol.: 92
Chanel 8 Note Off - Duracao: 102420 Nota: C1 Vol.: 96
Chanel 8 Note On - Duracao: 102420 Nota: C1 Vol.: 94
Chanel 6 Note Off - Duracao: 102480 Nota: C1 Vol.: 92
Chanel 6 Note On - Duracao: 102480 Nota: C1 Vol.: 65
Chanel 8 Note Off - Duracao: 102540 Nota: C1 Vol.: 94
Chanel 8 Note On - Duracao: 102540 Nota: C1 Vol.: 94
Chanel 7 Note Off - Duracao: 102600 Nota: C1 Vol.: 86
Chanel 7 Note On - Duracao: 102600 Nota: C1 Vol.: 86
Chanel 9 Note Off - Duracao: 102600 Nota: C1 Vol.: 59
Chanel 9 Note On - Duracao: 102600 Nota: C1 Vol.: 62
Chanel 8 Note Off - Duracao: 102660 Nota: C1 Vol.: 94
Chanel 8 Note On - Duracao: 102660 Nota: C1 Vol.: 95
Chanel 8 Note Off - Duracao: 102780 Nota: C1 Vol.: 95
Chanel 8 Note On - Duracao: 102780 Nota: C1 Vol.: 86
Chanel 8 Note Off - Duracao: 102900 Nota: C1 Vol.: 86
Chanel 8 Note On - Duracao: 102900 Nota: C1 Vol.: 80
Chanel 1 Note Off - Duracao: 103020 Nota: C1 Vol.: 50
Chanel 1 Note On - Duracao: 103020 Nota: C1 Vol.: 74
Chanel 8 Note Off - Duracao: 103140 Nota: C1 Vol.: 80
Chanel 8 Note On - Duracao: 103140 Nota: C1 Vol.: 87
Chanel 2 Note Off - Duracao: 103200 Nota: C1 Vol.: 77
Chanel 2 Note On - Duracao: 103200 Nota: C1 Vol.: 74
Chanel 8 Note Off - Duracao: 103260 Nota: C1 Vol.: 87
Chanel 8 Note On - Duracao: 103260 Nota: C1 Vol.: 93
Chanel 5 Note Off - Duracao: 103320 Nota: C1 Vol.: 57
Chanel 5 Note On - Duracao: 103320 Nota: C1 Vol.: 56
Chanel 3 Note Off - Duracao: 103380 Nota: C1 Vol.: 91
Chanel 3 Note On - Duracao: 103380 Nota: C1 Vol.: 93
Chanel 8 Note Off - Duracao: 103380 Nota: C1 Vol.: 93
Chanel 8 Note On - Duracao: 103380 Nota: C1 Vol.: 81
Chanel 6 Note Off - Duracao: 103440 Nota: C1 Vol.: 65
Chanel 6 Note On - Duracao: 103440 Nota: C1 Vol.: 68
Chanel 7 Note Off - Duracao: 103560 Nota: C1 Vol.: 86
Chanel 7 Note On - Duracao: 103560 Nota: C1 Vol.: 83
Chanel 8 Note Off - Duracao: 103620 Nota: C1 Vol.: 81
Chanel 8 Note On - Duracao: 103620 Nota: C1 Vol.: 81
Chanel 8 Note Off - Duracao: 103860 Nota: C1 Vol.: 81
Chanel 8 Note On - Duracao: 103860 Nota: C1 Vol.: 81
Chanel 6 Note Off - Duracao: 103920 Nota: C1 Vol.: 68
Chanel 6 Note On - Duracao: 103920 Nota: C1 Vol.: 68
Chanel 10 Note Off - Duracao: 104040 Nota: C1 Vol.: 54
Chanel 10 Note On - Duracao: 104040 Nota: C1 Vol.: 56
Chanel 8 Note Off - Duracao: 104100 Nota: C1 Vol.: 81
Chanel 8 Note On - Duracao: 104100 Nota: C1 Vol.: 88
Chanel 8 Note Off - Duracao: 104340 Nota: C1 Vol.: 88
Chanel 8 Note On - Duracao: 104340 Nota: C1 Vol.: 96
Chanel 8 Note Off - Duracao: 104460 Nota: C1 Vol.: 96
Chanel 8 Note On - Duracao: 104460 Nota: C1 Vol.: 98
Chanel 7 Note Off - Duracao: 104520 Nota: C1 Vol.: 83
Chanel 7 Note On - Duracao: 104520 Nota: C1 Vol.: 64
Chanel 8 Note Off - Duracao: 104520 Nota: C1 Vol.: 98
Chanel 8 Note On - Duracao: 104520 Nota: C1 Vol.: 95
Chanel 9 Note Off - Duracao: 104520 Nota: C1 Vol.: 62
Chanel 9 Note On - Duracao: 104520 Nota: C1 Vol.: 71
Chanel 8 Note Off - Duracao: 104640 Nota: C1 Vol.: 95
Chanel 8 Note On - Duracao: 104640 Nota: C1 Vol.: 74
Chanel 6 Note Off - Duracao: 104880 Nota: C1 Vol.: 68
Chanel 6 Note On - Duracao: 104880 Nota: C1 Vol.: 75
Chanel 1 Note Off - Duracao: 104940 Nota: C1 Vol.: 74
Chanel 1 Note On - Duracao: 104940 Nota: C1 Vol.: 92
Chanel 2 Note Off - Duracao: 105120 Nota: C1 Vol.: 74
Chanel 2 Note On - Duracao: 105120 Nota: C1 Vol.: 81
Chanel 8 Note Off - Duracao: 105120 Nota: C1 Vol.: 74
Chanel 8 Note On - Duracao: 105120 Nota: C1 Vol.: 83
Chanel 3 Note Off - Duracao: 105300 Nota: C1 Vol.: 93
Chanel 3 Note On - Duracao: 105300 Nota: C1 Vol.: 93
Chanel 6 Note Off - Duracao: 105360 Nota: C1 Vol.: 75
Chanel 6 Note On - Duracao: 105360 Nota: C1 Vol.: 76
Chanel 9 Note Off - Duracao: 105480 Nota: C1 Vol.: 71
Chanel 9 Note On - Duracao: 105480 Nota: C1 Vol.: 65
Chanel 8 Note Off - Duracao: 105600 Nota: C1 Vol.: 83
Chanel 8 Note On - Duracao: 105600 Nota: C1 Vol.: 72
Chanel 6 Note Off - Duracao: 105840 Nota: C1 Vol.: 76
Chanel 6 Note On - Duracao: 105840 Nota: C1 Vol.: 61
Chanel 1 Note Off - Duracao: 105900 Nota: C1 Vol.: 92
Chanel 1 Note On - Duracao: 105900 Nota: C1 Vol.: 93
Chanel 4 Note Off - Duracao: 105960 Nota: C1 Vol.: 49
Chanel 4 Note On - Duracao: 105960 Nota: C1 Vol.: 53
Chanel 10 Note Off - Duracao: 105960 Nota: C1 Vol.: 56
Chanel 10 Note On - Duracao: 105960 Nota: C1 Vol.: 60
Chanel 2 Note Off - Duracao: 106080 Nota: C1 Vol.: 81
Chanel 2 Note On - Duracao: 106080 Nota: C1 Vol.: 85
Chanel 7 Note Off - Duracao: 106440 Nota: C1 Vol.: 64
Chanel 7 Note On - Duracao: 106440 Nota: C1 Vol.: 58
Chanel 8 Note Off - Duracao: 106560 Nota: C1 Vol.: 72
Chanel 8 Note On - Duracao: 106560 Nota: C1 Vol.: 79
Chanel 1 Note Off - Duracao: 106860 Nota: C1 Vol.: 93
Chanel 1 Note On - Duracao: 106860 Nota: C1 Vol.: 93
Chanel 8 Note Off - Duracao: 107040 Nota: C1 Vol.: 79
Chanel 8 Note On - Duracao: 107040 Nota: C1 Vol.: 80
Chanel 5 Note Off - Duracao: 107160 Nota: C1 Vol.: 56
Chanel 5 Note On - Duracao: 107160 Nota: C1 Vol.: 59
Chanel 8 Note Off - Duracao: 107280 Nota: C1 Vol.: 80
Chanel 8 Note On - Duracao: 107280 Nota: C1 Vol.: 77
Chanel 9 Note Off - Duracao: 107400 Nota: C1 Vol.: 65
Chanel 9 Note On - Duracao: 107400 Nota: C1 Vol.: 70
Chanel 8 Note Off - Duracao: 107520 Nota: C1 Vol.: 77
Chanel 8 Note On - Duracao: 107520 Nota: C1 Vol.: 80
Chanel 6 Note Off - Duracao: 107760 Nota: C1 Vol.: 61
Chanel 6 Note On - Duracao: 107760 Nota: C1 Vol.: 71
Chanel 8 Note Off - Duracao: 107760 Nota: C1 Vol.: 80
Chanel 8 Note On - Duracao: 107760 Nota: C1 Vol.: 89
Chanel 1 Note Off - Duracao: 107820 Nota: C1 Vol.: 93
Chanel 1 Note On - Duracao: 107820 Nota: C1 Vol.: 93
Chanel 4 Note Off - Duracao: 107880 Nota: C1 Vol.: 53
Chanel 4 Note On - Duracao: 107880 Nota: C1 Vol.: 60
Chanel 10 Note Off - Duracao: 107880 Nota: C1 Vol.: 60
Chanel 10 Note On - Duracao: 107880 Nota: C1 Vol.: 57
Chanel 2 Note Off - Duracao: 108000 Nota: C1 Vol.: 85
Chanel 2 Note On - Duracao: 108000 Nota: C1 Vol.: 91
Chanel 8 Note Off - Duracao: 108000 Nota: C1 Vol.: 89
Chanel 8 Note On - Duracao: 108000 Nota: C1 Vol.: 93
Chanel 8 Note Off - Duracao: 108120 Nota: C1 Vol.: 93
Chanel 8 Note On - Duracao: 108120 Nota: C1 Vol.: 86
Chanel 8 Note Off - Duracao: 108360 Nota: C1 Vol.: 86
Chanel 8 Note On - Duracao: 108360 Nota: C1 Vol.: 84
Chanel 9 Note Off - Duracao: 108360 Nota: C1 Vol.: 70
Chanel 9 Note On - Duracao: 108360 Nota: C1 Vol.: 75
Chanel 8 Note Off - Duracao: 108600 Nota: C1 Vol.: 84
Chanel 8 Note On - Duracao: 108600 Nota: C1 Vol.: 87
Chanel 6 Note Off - Duracao: 108720 Nota: C1 Vol.: 71
Chanel 6 Note On - Duracao: 108720 Nota: C1 Vol.: 59
Chanel 1 Note Off - Duracao: 108780 Nota: C1 Vol.: 93
Chanel 1 Note On - Duracao: 108780 Nota: C1 Vol.: 93
Chanel 8 Note Off - Duracao: 108840 Nota: C1 Vol.: 87
Chanel 8 Note On - Duracao: 108840 Nota: C1 Vol.: 75
Chanel 9 Note Off - Duracao: 108840 Nota: C1 Vol.: 75
Chanel 9 Note On - Duracao: 108840 Nota: C1 Vol.: 75
Chanel 2 Note Off - Duracao: 108960 Nota: C1 Vol.: 91
Chanel 2 Note On - Duracao: 108960 Nota: C1 Vol.: 92
Chanel 5 Note Off - Duracao: 109080 Nota: C1 Vol.: 59
Chanel 5 Note On - Duracao: 109080 Nota: C1 Vol.: 63
Chanel 3 Note Off - Duracao: 109140 Nota: C1 Vol.: 93
Chanel 3 Note On - Duracao: 109140 Nota: C1 Vol.: 91
Chanel 9 Note Off - Duracao: 109320 Nota: C1 Vol.: 75
Chanel 9 Note On - Duracao: 109320 Nota: C1 Vol.: 70
Chanel 4 Note Off - Duracao: 109800 Nota: C1 Vol.: 60
Chanel 4 Note On - Duracao: 109800 Nota: C1 Vol.: 57
Chanel 8 Note Off - Duracao: 109800 Nota: C1 Vol.: 75
Chanel 8 Note On - Duracao: 109800 Nota: C1 Vol.: 66
Chanel 9 Note Off - Duracao: 109800 Nota: C1 Vol.: 70
Chanel 9 Note On - Duracao: 109800 Nota: C1 Vol.: 58
Chanel 10 Note Off - Duracao: 109800 Nota: C1 Vol.: 57
Chanel 10 Note On - Duracao: 109800 Nota: C1 Vol.: 63
Chanel 2 Note Off - Duracao: 109920 Nota: C1 Vol.: 92
Chanel 2 Note On - Duracao: 109920 Nota: C1 Vol.: 89
Chanel 7 Note Off - Duracao: 110280 Nota: C1 Vol.: 58
Chanel 7 Note On - Duracao: 110280 Nota: C1 Vol.: 59
Chanel 6 Note Off - Duracao: 110640 Nota: C1 Vol.: 59
Chanel 6 Note On - Duracao: 110640 Nota: C1 Vol.: 60
Chanel 1 Note Off - Duracao: 110700 Nota: C1 Vol.: 93
Chanel 1 Note On - Duracao: 110700 Nota: C1 Vol.: 91
Chanel 9 Note Off - Duracao: 110760 Nota: C1 Vol.: 58
Chanel 9 Note On - Duracao: 110760 Nota: C1 Vol.: 57
Chanel 2 Note Off - Duracao: 110880 Nota: C1 Vol.: 89
Chanel 2 Note On - Duracao: 110880 Nota: C1 Vol.: 92
Chanel 5 Note Off - Duracao: 111000 Nota: C1 Vol.: 63
Chanel 5 Note On - Duracao: 111000 Nota: C1 Vol.: 81
Chanel 2 Note Off - Duracao: 111360 Nota: C1 Vol.: 92
Chanel 2 Note On - Duracao: 111360 Nota: C1 Vol.: 81
Chanel 5 Note Off - Duracao: 111480 Nota: C1 Vol.: 81
Chanel 5 Note On - Duracao: 111480 Nota: C1 Vol.: 83
Chanel 4 Note Off - Duracao: 111720 Nota: C1 Vol.: 57
Chanel 4 Note On - Duracao: 111720 Nota: C1 Vol.: 58
Chanel 8 Note Off - Duracao: 111720 Nota: C1 Vol.: 66
Chanel 8 Note On - Duracao: 111720 Nota: C1 Vol.: 65
Chanel 10 Note Off - Duracao: 111720 Nota: C1 Vol.: 63
Chanel 10 Note On - Duracao: 111720 Nota: C1 Vol.: 82
Chanel 5 Note Off - Duracao: 111960 Nota: C1 Vol.: 83
Chanel 5 Note On - Duracao: 111960 Nota: C1 Vol.: 68
Chanel 7 Note Off - Duracao: 112200 Nota: C1 Vol.: 59
Chanel 7 Note On - Duracao: 112200 Nota: C1 Vol.: 61
Chanel 10 Note Off - Duracao: 112200 Nota: C1 Vol.: 82
Chanel 10 Note On - Duracao: 112200 Nota: C1 Vol.: 83
Chanel 6 Note Off - Duracao: 112560 Nota: C1 Vol.: 60
Chanel 6 Note On - Duracao: 112560 Nota: C1 Vol.: 59
Chanel 1 Note Off - Duracao: 112620 Nota: C1 Vol.: 91
Chanel 1 Note On - Duracao: 112620 Nota: C1 Vol.: 85
Chanel 8 Note Off - Duracao: 112680 Nota: C1 Vol.: 65
Chanel 8 Note On - Duracao: 112680 Nota: C1 Vol.: 67
Chanel 9 Note Off - Duracao: 112680 Nota: C1 Vol.: 57
Chanel 9 Note On - Duracao: 112680 Nota: C1 Vol.: 49
Chanel 10 Note Off - Duracao: 112680 Nota: C1 Vol.: 83
Chanel 10 Note On - Duracao: 112680 Nota: C1 Vol.: 75
Chanel 5 Note Off - Duracao: 112920 Nota: C1 Vol.: 68
Chanel 5 Note On - Duracao: 112920 Nota: C1 Vol.: 64
Chanel 3 Note Off - Duracao: 112980 Nota: C1 Vol.: 91
Chanel 3 Note On - Duracao: 112980 Nota: C1 Vol.: 94
Chanel 2 Note Off - Duracao: 113280 Nota: C1 Vol.: 81
Chanel 2 Note On - Duracao: 113280 Nota: C1 Vol.: 83
Chanel 4 Note Off - Duracao: 113640 Nota: C1 Vol.: 58
Chanel 4 Note On - Duracao: 113640 Nota: C1 Vol.: 50
Chanel 8 Note Off - Duracao: 113640 Nota: C1 Vol.: 67
Chanel 8 Note On - Duracao: 113640 Nota: C1 Vol.: 79
Chanel 10 Note Off - Duracao: 113640 Nota: C1 Vol.: 75
Chanel 10 Note On - Duracao: 113640 Nota: C1 Vol.: 64
Chanel 7 Note Off - Duracao: 114120 Nota: C1 Vol.: 61
Chanel 7 Note On - Duracao: 114120 Nota: C1 Vol.: 64
Chanel 2 Note Off - Duracao: 114240 Nota: C1 Vol.: 83
Chanel 2 Note On - Duracao: 114240 Nota: C1 Vol.: 82
Chanel 6 Note Off - Duracao: 114480 Nota: C1 Vol.: 59
Chanel 6 Note On - Duracao: 114480 Nota: C1 Vol.: 59
Chanel 1 Note Off - Duracao: 114540 Nota: C1 Vol.: 85
Chanel 1 Note On - Duracao: 114540 Nota: C1 Vol.: 79
Chanel 8 Note Off - Duracao: 114600 Nota: C1 Vol.: 79
Chanel 8 Note On - Duracao: 114600 Nota: C1 Vol.: 83
Chanel 5 Note Off - Duracao: 114840 Nota: C1 Vol.: 64
Chanel 5 Note On - Duracao: 114840 Nota: C1 Vol.: 55
Chanel 2 Note Off - Duracao: 115200 Nota: C1 Vol.: 82
Chanel 2 Note On - Duracao: 115200 Nota: C1 Vol.: 81
Chanel 8 Note Off - Duracao: 115560 Nota: C1 Vol.: 83
Chanel 8 Note On - Duracao: 115560 Nota: C1 Vol.: 78
Chanel 10 Note Off - Duracao: 115560 Nota: C1 Vol.: 64
Chanel 10 Note On - Duracao: 115560 Nota: C1 Vol.: 69
Chanel 2 Note Off - Duracao: 115680 Nota: C1 Vol.: 81
Chanel 2 Note On - Duracao: 115680 Nota: C1 Vol.: 79
Chanel 7 Note Off - Duracao: 116040 Nota: C1 Vol.: 64
Chanel 7 Note On - Duracao: 116040 Nota: C1 Vol.: 66
Chanel 2 Note Off - Duracao: 116160 Nota: C1 Vol.: 79
Chanel 2 Note On - Duracao: 116160 Nota: C1 Vol.: 88
Chanel 2 Note Off - Duracao: 116400 Nota: C1 Vol.: 88
Chanel 2 Note On - Duracao: 116400 Nota: C1 Vol.: 88
Chanel 6 Note Off - Duracao: 116400 Nota: C1 Vol.: 59
Chanel 6 Note On - Duracao: 116400 Nota: C1 Vol.: 63
Chanel 1 Note Off - Duracao: 116460 Nota: C1 Vol.: 79
Chanel 1 Note On - Duracao: 116460 Nota: C1 Vol.: 72
Chanel 8 Note Off - Duracao: 116520 Nota: C1 Vol.: 78
Chanel 8 Note On - Duracao: 116520 Nota: C1 Vol.: 79
Chanel 9 Note Off - Duracao: 116520 Nota: C1 Vol.: 49
Chanel 9 Note On - Duracao: 116520 Nota: C1 Vol.: 49
Chanel 10 Note Off - Duracao: 116520 Nota: C1 Vol.: 69
Chanel 10 Note On - Duracao: 116520 Nota: C1 Vol.: 71
Chanel 2 Note Off - Duracao: 116640 Nota: C1 Vol.: 88
Chanel 2 Note On - Duracao: 116640 Nota: C1 Vol.: 85
Chanel 5 Note Off - Duracao: 116760 Nota: C1 Vol.: 55
Chanel 5 Note On - Duracao: 116760 Nota: C1 Vol.: 63
Chanel 3 Note Off - Duracao: 116820 Nota: C1 Vol.: 94
Chanel 3 Note On - Duracao: 116820 Nota: C1 Vol.: 92
Chanel 2 Note Off - Duracao: 116880 Nota: C1 Vol.: 85
Chanel 2 Note On - Duracao: 116880 Nota: C1 Vol.: 82
Chanel 2 Note Off - Duracao: 117360 Nota: C1 Vol.: 82
Chanel 2 Note On - Duracao: 117360 Nota: C1 Vol.: 84
Chanel 4 Note Off - Duracao: 117480 Nota: C1 Vol.: 50
Chanel 4 Note On - Duracao: 117480 Nota: C1 Vol.: 65
Chanel 8 Note Off - Duracao: 117480 Nota: C1 Vol.: 79
Chanel 8 Note On - Duracao: 117480 Nota: C1 Vol.: 80
Chanel 10 Note Off - Duracao: 117480 Nota: C1 Vol.: 71
Chanel 10 Note On - Duracao: 117480 Nota: C1 Vol.: 70
Chanel 2 Note Off - Duracao: 117840 Nota: C1 Vol.: 84
Chanel 2 Note On - Duracao: 117840 Nota: C1 Vol.: 84
Chanel 7 Note Off - Duracao: 117960 Nota: C1 Vol.: 66
Chanel 7 Note On - Duracao: 117960 Nota: C1 Vol.: 65
Chanel 2 Note Off - Duracao: 118320 Nota: C1 Vol.: 84
Chanel 2 Note On - Duracao: 118320 Nota: C1 Vol.: 83
Chanel 6 Note Off - Duracao: 118320 Nota: C1 Vol.: 63
Chanel 6 Note On - Duracao: 118320 Nota: C1 Vol.: 82
Chanel 1 Note Off - Duracao: 118380 Nota: C1 Vol.: 72
Chanel 1 Note On - Duracao: 118380 Nota: C1 Vol.: 63
Chanel 4 Note Off - Duracao: 118440 Nota: C1 Vol.: 65
Chanel 4 Note On - Duracao: 118440 Nota: C1 Vol.: 45
Chanel 8 Note Off - Duracao: 118440 Nota: C1 Vol.: 80
Chanel 8 Note On - Duracao: 118440 Nota: C1 Vol.: 76
Chanel 10 Note Off - Duracao: 118440 Nota: C1 Vol.: 70
Chanel 10 Note On - Duracao: 118440 Nota: C1 Vol.: 80
Chanel 5 Note Off - Duracao: 118680 Nota: C1 Vol.: 63
Chanel 5 Note On - Duracao: 118680 Nota: C1 Vol.: 81
Chanel 3 Note Off - Duracao: 118740 Nota: C1 Vol.: 92
Chanel 3 Note On - Duracao: 118740 Nota: C1 Vol.: 90
Chanel 2 Note Off - Duracao: 118800 Nota: C1 Vol.: 83
Chanel 2 Note On - Duracao: 118800 Nota: C1 Vol.: 77
Chanel 6 Note Off - Duracao: 118800 Nota: C1 Vol.: 82
Chanel 6 Note On - Duracao: 118800 Nota: C1 Vol.: 83
Chanel 10 Note Off - Duracao: 118920 Nota: C1 Vol.: 80
Chanel 10 Note On - Duracao: 118920 Nota: C1 Vol.: 85
Chanel 5 Note Off - Duracao: 119160 Nota: C1 Vol.: 81
Chanel 5 Note On - Duracao: 119160 Nota: C1 Vol.: 84
Chanel 6 Note Off - Duracao: 119280 Nota: C1 Vol.: 83
Chanel 6 Note On - Duracao: 119280 Nota: C1 Vol.: 66
Chanel 8 Note Off - Duracao: 119400 Nota: C1 Vol.: 76
Chanel 8 Note On - Duracao: 119400 Nota: C1 Vol.: 81
Chanel 10 Note Off - Duracao: 119400 Nota: C1 Vol.: 85
Chanel 10 Note On - Duracao: 119400 Nota: C1 Vol.: 90
Chanel 5 Note Off - Duracao: 119640 Nota: C1 Vol.: 84
Chanel 5 Note On - Duracao: 119640 Nota: C1 Vol.: 81
Chanel 10 Note Off - Duracao: 119640 Nota: C1 Vol.: 90
Chanel 10 Note On - Duracao: 119640 Nota: C1 Vol.: 80
Chanel 3 Note Off - Duracao: 119700 Nota: C1 Vol.: 90
Chanel 3 Note On - Duracao: 119700 Nota: C1 Vol.: 47
Chanel 2 Note Off - Duracao: 119760 Nota: C1 Vol.: 77
Chanel 2 Note On - Duracao: 119760 Nota: C1 Vol.: 78
Chanel 7 Note Off - Duracao: 119880 Nota: C1 Vol.: 65
Chanel 7 Note On - Duracao: 119880 Nota: C1 Vol.: 64
Chanel 10 Note Off - Duracao: 120120 Nota: C1 Vol.: 80
Chanel 10 Note On - Duracao: 120120 Nota: C1 Vol.: 72
Chanel 8 Note Off - Duracao: 120360 Nota: C1 Vol.: 81
Chanel 8 Note On - Duracao: 120360 Nota: C1 Vol.: 85
Chanel 9 Note Off - Duracao: 120360 Nota: C1 Vol.: 49
Chanel 9 Note On - Duracao: 120360 Nota: C1 Vol.: 54
Chanel 5 Note Off - Duracao: 120600 Nota: C1 Vol.: 81
Chanel 5 Note On - Duracao: 120600 Nota: C1 Vol.: 75
Chanel 2 Note Off - Duracao: 120720 Nota: C1 Vol.: 78
Chanel 2 Note On - Duracao: 120720 Nota: C1 Vol.: 59
Chanel 8 Note Off - Duracao: 120840 Nota: C1 Vol.: 85
Chanel 8 Note On - Duracao: 120840 Nota: C1 Vol.: 88
Chanel 10 Note Off - Duracao: 121080 Nota: C1 Vol.: 72
Chanel 10 Note On - Duracao: 121080 Nota: C1 Vol.: 54
Chanel 6 Note Off - Duracao: 121200 Nota: C1 Vol.: 66
Chanel 6 Note On - Duracao: 121200 Nota: C1 Vol.: 74
Chanel 8 Note Off - Duracao: 121320 Nota: C1 Vol.: 88
Chanel 8 Note On - Duracao: 121320 Nota: C1 Vol.: 71
Chanel 5 Note Off - Duracao: 121560 Nota: C1 Vol.: 75
Chanel 5 Note On - Duracao: 121560 Nota: C1 Vol.: 70
Chanel 7 Note Off - Duracao: 121800 Nota: C1 Vol.: 64
Chanel 7 Note On - Duracao: 121800 Nota: C1 Vol.: 64
Chanel 6 Note Off - Duracao: 122160 Nota: C1 Vol.: 74
Chanel 6 Note On - Duracao: 122160 Nota: C1 Vol.: 77
Chanel 1 Note Off - Duracao: 122220 Nota: C1 Vol.: 63
Chanel 1 Note On - Duracao: 122220 Nota: C1 Vol.: 51
Chanel 4 Note Off - Duracao: 122280 Nota: C1 Vol.: 45
Chanel 4 Note On - Duracao: 122280 Nota: C1 Vol.: 81
Chanel 4 Note Off - Duracao: 122520 Nota: C1 Vol.: 81
Chanel 4 Note On - Duracao: 122520 Nota: C1 Vol.: 88
Chanel 5 Note Off - Duracao: 122520 Nota: C1 Vol.: 70
Chanel 5 Note On - Duracao: 122520 Nota: C1 Vol.: 60
Chanel 4 Note Off - Duracao: 122640 Nota: C1 Vol.: 88
Chanel 4 Note On - Duracao: 122640 Nota: C1 Vol.: 93
Chanel 4 Note Off - Duracao: 122760 Nota: C1 Vol.: 93
Chanel 4 Note On - Duracao: 122760 Nota: C1 Vol.: 100
Chanel 4 Note Off - Duracao: 122820 Nota: C1 Vol.: 100
Chanel 4 Note On - Duracao: 122820 Nota: C1 Vol.: 99
Chanel 4 Note Off - Duracao: 122880 Nota: C1 Vol.: 99
Chanel 4 Note On - Duracao: 122880 Nota: C1 Vol.: 100
Chanel 4 Note Off - Duracao: 122940 Nota: C1 Vol.: 100
Chanel 4 Note On - Duracao: 122940 Nota: C1 Vol.: 99
Chanel 4 Note Off - Duracao: 123000 Nota: C1 Vol.: 99
Chanel 4 Note On - Duracao: 123000 Nota: C1 Vol.: 99
Chanel 4 Note Off - Duracao: 123060 Nota: C1 Vol.: 99
Chanel 4 Note On - Duracao: 123060 Nota: C1 Vol.: 100
Chanel 4 Note Off - Duracao: 123120 Nota: C1 Vol.: 100
Chanel 4 Note On - Duracao: 123120 Nota: C1 Vol.: 100
Chanel 6 Note Off - Duracao: 123120 Nota: C1 Vol.: 77
Chanel 6 Note On - Duracao: 123120 Nota: C1 Vol.: 80
Chanel 4 Note Off - Duracao: 123180 Nota: C1 Vol.: 100
Chanel 4 Note On - Duracao: 123180 Nota: C1 Vol.: 55
Chanel 8 Note Off - Duracao: 123240 Nota: C1 Vol.: 71
Chanel 8 Note On - Duracao: 123240 Nota: C1 Vol.: 80
Chanel 3 Note Off - Duracao: 123540 Nota: C1 Vol.: 47
Chanel 3 Note On - Duracao: 123540 Nota: C1 Vol.: 70
Chanel 7 Note Off - Duracao: 123720 Nota: C1 Vol.: 64
Chanel 7 Note On - Duracao: 123720 Nota: C1 Vol.: 74
Chanel 6 Note Off - Duracao: 124080 Nota: C1 Vol.: 80
Chanel 6 Note On - Duracao: 124080 Nota: C1 Vol.: 73
Chanel 8 Note Off - Duracao: 124200 Nota: C1 Vol.: 80
Chanel 8 Note On - Duracao: 124200 Nota: C1 Vol.: 86
Chanel 9 Note Off - Duracao: 124200 Nota: C1 Vol.: 54
Chanel 9 Note On - Duracao: 124200 Nota: C1 Vol.: 59
Chanel 5 Note Off - Duracao: 124440 Nota: C1 Vol.: 60
Chanel 5 Note On - Duracao: 124440 Nota: C1 Vol.: 59
Chanel 2 Note Off - Duracao: 124560 Nota: C1 Vol.: 59
Chanel 2 Note On - Duracao: 124560 Nota: C1 Vol.: 56
Chanel 7 Note Off - Duracao: 124680 Nota: C1 Vol.: 74
Chanel 7 Note On - Duracao: 124680 Nota: C1 Vol.: 75
Chanel 10 Note Off - Duracao: 124920 Nota: C1 Vol.: 54
Chanel 10 Note On - Duracao: 124920 Nota: C1 Vol.: 62
Chanel 4 Note Off - Duracao: 125100 Nota: C1 Vol.: 55
Chanel 4 Note On - Duracao: 125100 Nota: C1 Vol.: 54
Chanel 8 Note Off - Duracao: 125160 Nota: C1 Vol.: 86
Chanel 8 Note On - Duracao: 125160 Nota: C1 Vol.: 90
Chanel 3 Note Off - Duracao: 125460 Nota: C1 Vol.: 70
Chanel 3 Note On - Duracao: 125460 Nota: C1 Vol.: 76
Chanel 7 Note Off - Duracao: 125640 Nota: C1 Vol.: 75
Chanel 7 Note On - Duracao: 125640 Nota: C1 Vol.: 82
Chanel 6 Note Off - Duracao: 126000 Nota: C1 Vol.: 73
Chanel 6 Note On - Duracao: 126000 Nota: C1 Vol.: 77
Chanel 1 Note Off - Duracao: 126060 Nota: C1 Vol.: 51
Chanel 1 Note On - Duracao: 126060 Nota: C1 Vol.: 59
Chanel 7 Note Off - Duracao: 126120 Nota: C1 Vol.: 82
Chanel 7 Note On - Duracao: 126120 Nota: C1 Vol.: 69
Chanel 8 Note Off - Duracao: 126120 Nota: C1 Vol.: 90
Chanel 8 Note On - Duracao: 126120 Nota: C1 Vol.: 88
Chanel 9 Note Off - Duracao: 126120 Nota: C1 Vol.: 59
Chanel 9 Note On - Duracao: 126120 Nota: C1 Vol.: 67
Chanel 3 Note Off - Duracao: 126420 Nota: C1 Vol.: 76
Chanel 3 Note On - Duracao: 126420 Nota: C1 Vol.: 67
Chanel 10 Note Off - Duracao: 126840 Nota: C1 Vol.: 62
Chanel 10 Note On - Duracao: 126840 Nota: C1 Vol.: 73
Chanel 6 Note Off - Duracao: 126960 Nota: C1 Vol.: 77
Chanel 6 Note On - Duracao: 126960 Nota: C1 Vol.: 77
Chanel 4 Note Off - Duracao: 127020 Nota: C1 Vol.: 54
Chanel 4 Note On - Duracao: 127020 Nota: C1 Vol.: 99
Chanel 4 Note Off - Duracao: 127080 Nota: C1 Vol.: 99
Chanel 4 Note On - Duracao: 127080 Nota: C1 Vol.: 99
Chanel 8 Note Off - Duracao: 127080 Nota: C1 Vol.: 88
Chanel 8 Note On - Duracao: 127080 Nota: C1 Vol.: 86
Chanel 4 Note Off - Duracao: 127140 Nota: C1 Vol.: 99
Chanel 4 Note On - Duracao: 127140 Nota: C1 Vol.: 97
Chanel 4 Note Off - Duracao: 127200 Nota: C1 Vol.: 97
Chanel 4 Note On - Duracao: 127200 Nota: C1 Vol.: 99
Chanel 4 Note Off - Duracao: 127260 Nota: C1 Vol.: 99
Chanel 4 Note On - Duracao: 127260 Nota: C1 Vol.: 100
Chanel 4 Note Off - Duracao: 127320 Nota: C1 Vol.: 100
Chanel 4 Note On - Duracao: 127320 Nota: C1 Vol.: 98
Chanel 4 Note Off - Duracao: 127380 Nota: C1 Vol.: 98
Chanel 4 Note On - Duracao: 127380 Nota: C1 Vol.: 94
Chanel 4 Note Off - Duracao: 127440 Nota: C1 Vol.: 94
Chanel 4 Note On - Duracao: 127440 Nota: C1 Vol.: 95
Chanel 4 Note Off - Duracao: 127500 Nota: C1 Vol.: 95
Chanel 4 Note On - Duracao: 127500 Nota: C1 Vol.: 100
Chanel 4 Note Off - Duracao: 127560 Nota: C1 Vol.: 100
Chanel 4 Note On - Duracao: 127560 Nota: C1 Vol.: 99
Chanel 4 Note Off - Duracao: 127620 Nota: C1 Vol.: 99
Chanel 4 Note On - Duracao: 127620 Nota: C1 Vol.: 99
Chanel 4 Note Off - Duracao: 127680 Nota: C1 Vol.: 99
Chanel 4 Note On - Duracao: 127680 Nota: C1 Vol.: 94
Chanel 4 Note Off - Duracao: 127800 Nota: C1 Vol.: 94
Chanel 4 Note On - Duracao: 127800 Nota: C1 Vol.: 83
Chanel 10 Note Off - Duracao: 127800 Nota: C1 Vol.: 73
Chanel 10 Note On - Duracao: 127800 Nota: C1 Vol.: 71
Chanel 6 Note Off - Duracao: 127920 Nota: C1 Vol.: 77
Chanel 6 Note On - Duracao: 127920 Nota: C1 Vol.: 73
Chanel 1 Note Off - Duracao: 127980 Nota: C1 Vol.: 59
Chanel 1 Note On - Duracao: 127980 Nota: C1 Vol.: 88
Chanel 4 Note Off - Duracao: 128040 Nota: C1 Vol.: 83
Chanel 4 Note On - Duracao: 128040 Nota: C1 Vol.: 89
Chanel 7 Note Off - Duracao: 128040 Nota: C1 Vol.: 69
Chanel 7 Note On - Duracao: 128040 Nota: C1 Vol.: 56
Chanel 8 Note Off - Duracao: 128040 Nota: C1 Vol.: 86
Chanel 8 Note On - Duracao: 128040 Nota: C1 Vol.: 83
Chanel 9 Note Off - Duracao: 128040 Nota: C1 Vol.: 67
Chanel 9 Note On - Duracao: 128040 Nota: C1 Vol.: 67
Chanel 1 Note Off - Duracao: 128100 Nota: C1 Vol.: 88
Chanel 1 Note On - Duracao: 128100 Nota: C1 Vol.: 98
Chanel 1 Note Off - Duracao: 128160 Nota: C1 Vol.: 98
Chanel 1 Note On - Duracao: 128160 Nota: C1 Vol.: 92
Chanel 1 Note Off - Duracao: 128280 Nota: C1 Vol.: 92
Chanel 1 Note On - Duracao: 128280 Nota: C1 Vol.: 88
Chanel 4 Note Off - Duracao: 128280 Nota: C1 Vol.: 89
Chanel 4 Note On - Duracao: 128280 Nota: C1 Vol.: 84
Chanel 5 Note Off - Duracao: 128280 Nota: C1 Vol.: 59
Chanel 5 Note On - Duracao: 128280 Nota: C1 Vol.: 81
Chanel 3 Note Off - Duracao: 128340 Nota: C1 Vol.: 67
Chanel 3 Note On - Duracao: 128340 Nota: C1 Vol.: 73
Chanel 1 Note Off - Duracao: 128400 Nota: C1 Vol.: 88
Chanel 1 Note On - Duracao: 128400 Nota: C1 Vol.: 86
Chanel 2 Note Off - Duracao: 128400 Nota: C1 Vol.: 56
Chanel 2 Note On - Duracao: 128400 Nota: C1 Vol.: 83
Chanel 1 Note Off - Duracao: 128640 Nota: C1 Vol.: 86
Chanel 1 Note On - Duracao: 128640 Nota: C1 Vol.: 88
Chanel 1 Note Off - Duracao: 128760 Nota: C1 Vol.: 88
Chanel 1 Note On - Duracao: 128760 Nota: C1 Vol.: 81
Chanel 4 Note Off - Duracao: 128760 Nota: C1 Vol.: 84
Chanel 4 Note On - Duracao: 128760 Nota: C1 Vol.: 81
Chanel 10 Note Off - Duracao: 128760 Nota: C1 Vol.: 71
Chanel 10 Note On - Duracao: 128760 Nota: C1 Vol.: 74
Chanel 6 Note Off - Duracao: 128880 Nota: C1 Vol.: 73
Chanel 6 Note On - Duracao: 128880 Nota: C1 Vol.: 73
Chanel 1 Note Off - Duracao: 129000 Nota: C1 Vol.: 81
Chanel 1 Note On - Duracao: 129000 Nota: C1 Vol.: 86
Chanel 8 Note Off - Duracao: 129000 Nota: C1 Vol.: 83
Chanel 8 Note On - Duracao: 129000 Nota: C1 Vol.: 75
Chanel 1 Note Off - Duracao: 129240 Nota: C1 Vol.: 86
Chanel 1 Note On - Duracao: 129240 Nota: C1 Vol.: 86
Chanel 5 Note Off - Duracao: 129240 Nota: C1 Vol.: 81
Chanel 5 Note On - Duracao: 129240 Nota: C1 Vol.: 82
Chanel 3 Note Off - Duracao: 129300 Nota: C1 Vol.: 73
Chanel 3 Note On - Duracao: 129300 Nota: C1 Vol.: 80
Chanel 1 Note Off - Duracao: 129360 Nota: C1 Vol.: 86
Chanel 1 Note On - Duracao: 129360 Nota: C1 Vol.: 86
Chanel 2 Note Off - Duracao: 129360 Nota: C1 Vol.: 83
Chanel 2 Note On - Duracao: 129360 Nota: C1 Vol.: 83
Chanel 1 Note Off - Duracao: 129480 Nota: C1 Vol.: 86
Chanel 1 Note On - Duracao: 129480 Nota: C1 Vol.: 91
Chanel 1 Note Off - Duracao: 129600 Nota: C1 Vol.: 91
Chanel 1 Note On - Duracao: 129600 Nota: C1 Vol.: 92
Chanel 1 Note Off - Duracao: 129720 Nota: C1 Vol.: 92
Chanel 1 Note On - Duracao: 129720 Nota: C1 Vol.: 91
Chanel 4 Note Off - Duracao: 129720 Nota: C1 Vol.: 81
Chanel 4 Note On - Duracao: 129720 Nota: C1 Vol.: 81
Chanel 10 Note Off - Duracao: 129720 Nota: C1 Vol.: 74
Chanel 10 Note On - Duracao: 129720 Nota: C1 Vol.: 72
Chanel 3 Note Off - Duracao: 129780 Nota: C1 Vol.: 80
Chanel 3 Note On - Duracao: 129780 Nota: C1 Vol.: 76
Chanel 1 Note Off - Duracao: 129840 Nota: C1 Vol.: 91
Chanel 1 Note On - Duracao: 129840 Nota: C1 Vol.: 95
Chanel 6 Note Off - Duracao: 129840 Nota: C1 Vol.: 73
Chanel 6 Note On - Duracao: 129840 Nota: C1 Vol.: 56
Chanel 1 Note Off - Duracao: 129900 Nota: C1 Vol.: 95
Chanel 1 Note On - Duracao: 129900 Nota: C1 Vol.: 87
Chanel 9 Note Off - Duracao: 129960 Nota: C1 Vol.: 67
Chanel 9 Note On - Duracao: 129960 Nota: C1 Vol.: 69
Chanel 1 Note Off - Duracao: 130020 Nota: C1 Vol.: 87
Chanel 1 Note On - Duracao: 130020 Nota: C1 Vol.: 90
Chanel 1 Note Off - Duracao: 130140 Nota: C1 Vol.: 90
Chanel 1 Note On - Duracao: 130140 Nota: C1 Vol.: 94
Chanel 1 Note Off - Duracao: 130200 Nota: C1 Vol.: 94
Chanel 1 Note On - Duracao: 130200 Nota: C1 Vol.: 94
Chanel 5 Note Off - Duracao: 130200 Nota: C1 Vol.: 82
Chanel 5 Note On - Duracao: 130200 Nota: C1 Vol.: 81
Chanel 1 Note Off - Duracao: 130260 Nota: C1 Vol.: 94
Chanel 1 Note On - Duracao: 130260 Nota: C1 Vol.: 94
Chanel 3 Note Off - Duracao: 130260 Nota: C1 Vol.: 76
Chanel 3 Note On - Duracao: 130260 Nota: C1 Vol.: 75
Chanel 1 Note Off - Duracao: 130380 Nota: C1 Vol.: 94
Chanel 1 Note On - Duracao: 130380 Nota: C1 Vol.: 95
Chanel 1 Note Off - Duracao: 130500 Nota: C1 Vol.: 95
Chanel 1 Note On - Duracao: 130500 Nota: C1 Vol.: 94
Chanel 1 Note Off - Duracao: 130560 Nota: C1 Vol.: 94
Chanel 1 Note On - Duracao: 130560 Nota: C1 Vol.: 97
Chanel 1 Note Off - Duracao: 130620 Nota: C1 Vol.: 97
Chanel 1 Note On - Duracao: 130620 Nota: C1 Vol.: 95
Chanel 4 Note Off - Duracao: 130680 Nota: C1 Vol.: 81
Chanel 4 Note On - Duracao: 130680 Nota: C1 Vol.: 82
Chanel 10 Note Off - Duracao: 130680 Nota: C1 Vol.: 72
Chanel 10 Note On - Duracao: 130680 Nota: C1 Vol.: 71
Chanel 1 Note Off - Duracao: 130740 Nota: C1 Vol.: 95
Chanel 1 Note On - Duracao: 130740 Nota: C1 Vol.: 91
Chanel 3 Note Off - Duracao: 130740 Nota: C1 Vol.: 75
Chanel 3 Note On - Duracao: 130740 Nota: C1 Vol.: 77
Chanel 1 Note Off - Duracao: 130860 Nota: C1 Vol.: 91
Chanel 1 Note On - Duracao: 130860 Nota: C1 Vol.: 87
Chanel 8 Note Off - Duracao: 130920 Nota: C1 Vol.: 75
Chanel 8 Note On - Duracao: 130920 Nota: C1 Vol.: 78
Chanel 9 Note Off - Duracao: 130920 Nota: C1 Vol.: 69
Chanel 9 Note On - Duracao: 130920 Nota: C1 Vol.: 72
Chanel 1 Note Off - Duracao: 130980 Nota: C1 Vol.: 87
Chanel 1 Note On - Duracao: 130980 Nota: C1 Vol.: 96
Chanel 1 Note Off - Duracao: 131040 Nota: C1 Vol.: 96
Chanel 1 Note On - Duracao: 131040 Nota: C1 Vol.: 97
Chanel 1 Note Off - Duracao: 131100 Nota: C1 Vol.: 97
Chanel 1 Note On - Duracao: 131100 Nota: C1 Vol.: 97
Chanel 1 Note Off - Duracao: 131160 Nota: C1 Vol.: 97
Chanel 1 Note On - Duracao: 131160 Nota: C1 Vol.: 96
Chanel 5 Note Off - Duracao: 131160 Nota: C1 Vol.: 81
Chanel 5 Note On - Duracao: 131160 Nota: C1 Vol.: 53
Chanel 1 Note Off - Duracao: 131220 Nota: C1 Vol.: 96
Chanel 1 Note On - Duracao: 131220 Nota: C1 Vol.: 95
Chanel 3 Note Off - Duracao: 131220 Nota: C1 Vol.: 77
Chanel 3 Note On - Duracao: 131220 Nota: C1 Vol.: 87
Chanel 1 Note Off - Duracao: 131280 Nota: C1 Vol.: 95
Chanel 1 Note On - Duracao: 131280 Nota: C1 Vol.: 95
Chanel 2 Note Off - Duracao: 131280 Nota: C1 Vol.: 83
Chanel 2 Note On - Duracao: 131280 Nota: C1 Vol.: 81
Chanel 1 Note Off - Duracao: 131340 Nota: C1 Vol.: 95
Chanel 1 Note On - Duracao: 131340 Nota: C1 Vol.: 95
Chanel 3 Note Off - Duracao: 131340 Nota: C1 Vol.: 87
Chanel 3 Note On - Duracao: 131340 Nota: C1 Vol.: 81
Chanel 1 Note Off - Duracao: 131400 Nota: C1 Vol.: 95
Chanel 1 Note On - Duracao: 131400 Nota: C1 Vol.: 95
Chanel 1 Note Off - Duracao: 131460 Nota: C1 Vol.: 95
Chanel 1 Note On - Duracao: 131460 Nota: C1 Vol.: 96
Chanel 1 Note Off - Duracao: 131520 Nota: C1 Vol.: 96
Chanel 1 Note On - Duracao: 131520 Nota: C1 Vol.: 96
Chanel 1 Note Off - Duracao: 131580 Nota: C1 Vol.: 96
Chanel 1 Note On - Duracao: 131580 Nota: C1 Vol.: 95
Chanel 3 Note Off - Duracao: 131580 Nota: C1 Vol.: 81
Chanel 3 Note On - Duracao: 131580 Nota: C1 Vol.: 78
Chanel 1 Note Off - Duracao: 131640 Nota: C1 Vol.: 95
Chanel 1 Note On - Duracao: 131640 Nota: C1 Vol.: 96
Chanel 4 Note Off - Duracao: 131640 Nota: C1 Vol.: 82
Chanel 4 Note On - Duracao: 131640 Nota: C1 Vol.: 79
Chanel 10 Note Off - Duracao: 131640 Nota: C1 Vol.: 71
Chanel 10 Note On - Duracao: 131640 Nota: C1 Vol.: 68
Chanel 1 Note Off - Duracao: 131700 Nota: C1 Vol.: 96
Chanel 1 Note On - Duracao: 131700 Nota: C1 Vol.: 96
Chanel 1 Note Off - Duracao: 131760 Nota: C1 Vol.: 96
Chanel 1 Note On - Duracao: 131760 Nota: C1 Vol.: 95
Chanel 1 Note Off - Duracao: 131820 Nota: C1 Vol.: 95
Chanel 1 Note On - Duracao: 131820 Nota: C1 Vol.: 94
Chanel 3 Note Off - Duracao: 131820 Nota: C1 Vol.: 78
Chanel 3 Note On - Duracao: 131820 Nota: C1 Vol.: 78
Chanel 1 Note Off - Duracao: 131880 Nota: C1 Vol.: 94
Chanel 1 Note On - Duracao: 131880 Nota: C1 Vol.: 94
Chanel 7 Note Off - Duracao: 131880 Nota: C1 Vol.: 56
Chanel 7 Note On - Duracao: 131880 Nota: C1 Vol.: 62
Chanel 8 Note Off - Duracao: 131880 Nota: C1 Vol.: 78
Chanel 8 Note On - Duracao: 131880 Nota: C1 Vol.: 75
Chanel 9 Note Off - Duracao: 131880 Nota: C1 Vol.: 72
Chanel 9 Note On - Duracao: 131880 Nota: C1 Vol.: 78
Chanel 1 Note Off - Duracao: 131940 Nota: C1 Vol.: 94
Chanel 1 Note On - Duracao: 131940 Nota: C1 Vol.: 96
Chanel 1 Note Off - Duracao: 132000 Nota: C1 Vol.: 96
Chanel 1 Note On - Duracao: 132000 Nota: C1 Vol.: 96
Chanel 1 Note Off - Duracao: 132060 Nota: C1 Vol.: 96
Chanel 1 Note On - Duracao: 132060 Nota: C1 Vol.: 96
Chanel 3 Note Off - Duracao: 132060 Nota: C1 Vol.: 78
Chanel 3 Note On - Duracao: 132060 Nota: C1 Vol.: 74
Chanel 1 Note Off - Duracao: 132120 Nota: C1 Vol.: 96
Chanel 1 Note On - Duracao: 132120 Nota: C1 Vol.: 96
Chanel 1 Note Off - Duracao: 132180 Nota: C1 Vol.: 96
Chanel 1 Note On - Duracao: 132180 Nota: C1 Vol.: 97
Chanel 1 Note Off - Duracao: 132240 Nota: C1 Vol.: 97
Chanel 1 Note On - Duracao: 132240 Nota: C1 Vol.: 95
Chanel 1 Note Off - Duracao: 132300 Nota: C1 Vol.: 95
Chanel 1 Note On - Duracao: 132300 Nota: C1 Vol.: 90
Chanel 3 Note Off - Duracao: 132300 Nota: C1 Vol.: 74
Chanel 3 Note On - Duracao: 132300 Nota: C1 Vol.: 74
Chanel 9 Note Off - Duracao: 132360 Nota: C1 Vol.: 78
Chanel 9 Note On - Duracao: 132360 Nota: C1 Vol.: 79
Chanel 1 Note Off - Duracao: 132420 Nota: C1 Vol.: 90
Chanel 1 Note On - Duracao: 132420 Nota: C1 Vol.: 90
Chanel 1 Note Off - Duracao: 132540 Nota: C1 Vol.: 90
Chanel 1 Note On - Duracao: 132540 Nota: C1 Vol.: 94
Chanel 3 Note Off - Duracao: 132540 Nota: C1 Vol.: 74
Chanel 3 Note On - Duracao: 132540 Nota: C1 Vol.: 76
Chanel 4 Note Off - Duracao: 132600 Nota: C1 Vol.: 79
Chanel 4 Note On - Duracao: 132600 Nota: C1 Vol.: 85
Chanel 10 Note Off - Duracao: 132600 Nota: C1 Vol.: 68
Chanel 10 Note On - Duracao: 132600 Nota: C1 Vol.: 69
Chanel 1 Note Off - Duracao: 132660 Nota: C1 Vol.: 94
Chanel 1 Note On - Duracao: 132660 Nota: C1 Vol.: 93
Chanel 1 Note Off - Duracao: 132780 Nota: C1 Vol.: 93
Chanel 1 Note On - Duracao: 132780 Nota: C1 Vol.: 86
Chanel 3 Note Off - Duracao: 132780 Nota: C1 Vol.: 76
Chanel 3 Note On - Duracao: 132780 Nota: C1 Vol.: 81
Chanel 8 Note Off - Duracao: 132840 Nota: C1 Vol.: 75
Chanel 8 Note On - Duracao: 132840 Nota: C1 Vol.: 68
Chanel 1 Note Off - Duracao: 133020 Nota: C1 Vol.: 86
Chanel 1 Note On - Duracao: 133020 Nota: C1 Vol.: 74
Chanel 3 Note Off - Duracao: 133020 Nota: C1 Vol.: 81
Chanel 3 Note On - Duracao: 133020 Nota: C1 Vol.: 83
Chanel 4 Note Off - Duracao: 133080 Nota: C1 Vol.: 85
Chanel 4 Note On - Duracao: 133080 Nota: C1 Vol.: 98
Chanel 4 Note Off - Duracao: 133200 Nota: C1 Vol.: 98
Chanel 4 Note On - Duracao: 133200 Nota: C1 Vol.: 97
Chanel 3 Note Off - Duracao: 133260 Nota: C1 Vol.: 83
Chanel 3 Note On - Duracao: 133260 Nota: C1 Vol.: 80
Chanel 4 Note Off - Duracao: 133320 Nota: C1 Vol.: 97
Chanel 4 Note On - Duracao: 133320 Nota: C1 Vol.: 95
Chanel 9 Note Off - Duracao: 133320 Nota: C1 Vol.: 79
Chanel 9 Note On - Duracao: 133320 Nota: C1 Vol.: 71
Chanel 4 Note Off - Duracao: 133380 Nota: C1 Vol.: 95
Chanel 4 Note On - Duracao: 133380 Nota: C1 Vol.: 92
Chanel 3 Note Off - Duracao: 133500 Nota: C1 Vol.: 80
Chanel 3 Note On - Duracao: 133500 Nota: C1 Vol.: 72
Chanel 4 Note Off - Duracao: 133500 Nota: C1 Vol.: 92
Chanel 4 Note On - Duracao: 133500 Nota: C1 Vol.: 92
Chanel 10 Note Off - Duracao: 133560 Nota: C1 Vol.: 69
Chanel 10 Note On - Duracao: 133560 Nota: C1 Vol.: 73
Chanel 4 Note Off - Duracao: 133620 Nota: C1 Vol.: 92
Chanel 4 Note On - Duracao: 133620 Nota: C1 Vol.: 95
Chanel 6 Note Off - Duracao: 133680 Nota: C1 Vol.: 56
Chanel 6 Note On - Duracao: 133680 Nota: C1 Vol.: 68
Chanel 3 Note Off - Duracao: 133740 Nota: C1 Vol.: 72
Chanel 3 Note On - Duracao: 133740 Nota: C1 Vol.: 78
Chanel 4 Note Off - Duracao: 133740 Nota: C1 Vol.: 95
Chanel 4 Note On - Duracao: 133740 Nota: C1 Vol.: 58
Chanel 7 Note Off - Duracao: 133800 Nota: C1 Vol.: 62
Chanel 7 Note On - Duracao: 133800 Nota: C1 Vol.: 57
Chanel 3 Note Off - Duracao: 133980 Nota: C1 Vol.: 78
Chanel 3 Note On - Duracao: 133980 Nota: C1 Vol.: 75
Chanel 3 Note Off - Duracao: 134220 Nota: C1 Vol.: 75
Chanel 3 Note On - Duracao: 134220 Nota: C1 Vol.: 81
Chanel 9 Note Off - Duracao: 134280 Nota: C1 Vol.: 71
Chanel 9 Note On - Duracao: 134280 Nota: C1 Vol.: 70
Chanel 3 Note Off - Duracao: 134460 Nota: C1 Vol.: 81
Chanel 3 Note On - Duracao: 134460 Nota: C1 Vol.: 83
Chanel 10 Note Off - Duracao: 134520 Nota: C1 Vol.: 73
Chanel 10 Note On - Duracao: 134520 Nota: C1 Vol.: 70
Chanel 3 Note Off - Duracao: 134580 Nota: C1 Vol.: 83
Chanel 3 Note On - Duracao: 134580 Nota: C1 Vol.: 79
Chanel 8 Note Off - Duracao: 134760 Nota: C1 Vol.: 68
Chanel 8 Note On - Duracao: 134760 Nota: C1 Vol.: 61
Chanel 3 Note Off - Duracao: 134820 Nota: C1 Vol.: 79
Chanel 3 Note On - Duracao: 134820 Nota: C1 Vol.: 74
Chanel 1 Note Off - Duracao: 134940 Nota: C1 Vol.: 74
Chanel 1 Note On - Duracao: 134940 Nota: C1 Vol.: 79
Chanel 5 Note Off - Duracao: 135000 Nota: C1 Vol.: 53
Chanel 5 Note On - Duracao: 135000 Nota: C1 Vol.: 48
Chanel 3 Note Off - Duracao: 135060 Nota: C1 Vol.: 74
Chanel 3 Note On - Duracao: 135060 Nota: C1 Vol.: 79
Chanel 2 Note Off - Duracao: 135120 Nota: C1 Vol.: 81
Chanel 2 Note On - Duracao: 135120 Nota: C1 Vol.: 82
Chanel 9 Note Off - Duracao: 135240 Nota: C1 Vol.: 70
Chanel 9 Note On - Duracao: 135240 Nota: C1 Vol.: 66
Chanel 3 Note Off - Duracao: 135300 Nota: C1 Vol.: 79
Chanel 3 Note On - Duracao: 135300 Nota: C1 Vol.: 82
Chanel 3 Note Off - Duracao: 135420 Nota: C1 Vol.: 82
Chanel 3 Note On - Duracao: 135420 Nota: C1 Vol.: 81
Chanel 10 Note Off - Duracao: 135480 Nota: C1 Vol.: 70
Chanel 10 Note On - Duracao: 135480 Nota: C1 Vol.: 72
Chanel 6 Note Off - Duracao: 135600 Nota: C1 Vol.: 68
Chanel 6 Note On - Duracao: 135600 Nota: C1 Vol.: 69
Chanel 3 Note Off - Duracao: 135660 Nota: C1 Vol.: 81
Chanel 3 Note On - Duracao: 135660 Nota: C1 Vol.: 75
Chanel 4 Note Off - Duracao: 135660 Nota: C1 Vol.: 58
Chanel 4 Note On - Duracao: 135660 Nota: C1 Vol.: 54
Chanel 7 Note Off - Duracao: 135720 Nota: C1 Vol.: 57
Chanel 7 Note On - Duracao: 135720 Nota: C1 Vol.: 56
Chanel 3 Note Off - Duracao: 136140 Nota: C1 Vol.: 75
Chanel 3 Note On - Duracao: 136140 Nota: C1 Vol.: 82
Chanel 10 Note Off - Duracao: 136440 Nota: C1 Vol.: 72
Chanel 10 Note On - Duracao: 136440 Nota: C1 Vol.: 70
Chanel 3 Note Off - Duracao: 136620 Nota: C1 Vol.: 82
Chanel 3 Note On - Duracao: 136620 Nota: C1 Vol.: 85
Chanel 8 Note Off - Duracao: 136680 Nota: C1 Vol.: 61
Chanel 8 Note On - Duracao: 136680 Nota: C1 Vol.: 61
Chanel 1 Note Off - Duracao: 136860 Nota: C1 Vol.: 79
Chanel 1 Note On - Duracao: 136860 Nota: C1 Vol.: 85
Chanel 3 Note Off - Duracao: 137100 Nota: C1 Vol.: 85
Chanel 3 Note On - Duracao: 137100 Nota: C1 Vol.: 75
Chanel 9 Note Off - Duracao: 137160 Nota: C1 Vol.: 66
Chanel 9 Note On - Duracao: 137160 Nota: C1 Vol.: 88
Chanel 9 Note Off - Duracao: 137400 Nota: C1 Vol.: 88
Chanel 9 Note On - Duracao: 137400 Nota: C1 Vol.: 90
Chanel 10 Note Off - Duracao: 137400 Nota: C1 Vol.: 70
Chanel 10 Note On - Duracao: 137400 Nota: C1 Vol.: 75
Chanel 6 Note Off - Duracao: 137520 Nota: C1 Vol.: 69
Chanel 6 Note On - Duracao: 137520 Nota: C1 Vol.: 91
Chanel 7 Note Off - Duracao: 137640 Nota: C1 Vol.: 56
Chanel 7 Note On - Duracao: 137640 Nota: C1 Vol.: 60
Chanel 9 Note Off - Duracao: 137640 Nota: C1 Vol.: 90
Chanel 9 Note On - Duracao: 137640 Nota: C1 Vol.: 78
Chanel 1 Note Off - Duracao: 137820 Nota: C1 Vol.: 85
Chanel 1 Note On - Duracao: 137820 Nota: C1 Vol.: 84
Chanel 6 Note Off - Duracao: 138000 Nota: C1 Vol.: 91
Chanel 6 Note On - Duracao: 138000 Nota: C1 Vol.: 75
Chanel 3 Note Off - Duracao: 138060 Nota: C1 Vol.: 75
Chanel 3 Note On - Duracao: 138060 Nota: C1 Vol.: 77
Chanel 9 Note Off - Duracao: 138120 Nota: C1 Vol.: 78
Chanel 9 Note On - Duracao: 138120 Nota: C1 Vol.: 67
Chanel 10 Note Off - Duracao: 138360 Nota: C1 Vol.: 75
Chanel 10 Note On - Duracao: 138360 Nota: C1 Vol.: 64
Chanel 3 Note Off - Duracao: 138540 Nota: C1 Vol.: 77
Chanel 3 Note On - Duracao: 138540 Nota: C1 Vol.: 70
Chanel 7 Note Off - Duracao: 138600 Nota: C1 Vol.: 60
Chanel 7 Note On - Duracao: 138600 Nota: C1 Vol.: 52
Chanel 8 Note Off - Duracao: 138600 Nota: C1 Vol.: 61
Chanel 8 Note On - Duracao: 138600 Nota: C1 Vol.: 68
Chanel 1 Note Off - Duracao: 138780 Nota: C1 Vol.: 84
Chanel 1 Note On - Duracao: 138780 Nota: C1 Vol.: 90
Chanel 5 Note Off - Duracao: 138840 Nota: C1 Vol.: 48
Chanel 5 Note On - Duracao: 138840 Nota: C1 Vol.: 73
Chanel 2 Note Off - Duracao: 138960 Nota: C1 Vol.: 82
Chanel 2 Note On - Duracao: 138960 Nota: C1 Vol.: 81
Chanel 6 Note Off - Duracao: 138960 Nota: C1 Vol.: 75
Chanel 6 Note On - Duracao: 138960 Nota: C1 Vol.: 67
Chanel 9 Note Off - Duracao: 139080 Nota: C1 Vol.: 67
Chanel 9 Note On - Duracao: 139080 Nota: C1 Vol.: 78
Chanel 1 Note Off - Duracao: 139260 Nota: C1 Vol.: 90
Chanel 1 Note On - Duracao: 139260 Nota: C1 Vol.: 90
Chanel 3 Note Off - Duracao: 139500 Nota: C1 Vol.: 70
Chanel 3 Note On - Duracao: 139500 Nota: C1 Vol.: 65
Chanel 4 Note Off - Duracao: 139500 Nota: C1 Vol.: 54
Chanel 4 Note On - Duracao: 139500 Nota: C1 Vol.: 59
Chanel 9 Note Off - Duracao: 139560 Nota: C1 Vol.: 78
Chanel 9 Note On - Duracao: 139560 Nota: C1 Vol.: 63
Chanel 1 Note Off - Duracao: 139740 Nota: C1 Vol.: 90
Chanel 1 Note On - Duracao: 139740 Nota: C1 Vol.: 92
Chanel 5 Note Off - Duracao: 139800 Nota: C1 Vol.: 73
Chanel 5 Note On - Duracao: 139800 Nota: C1 Vol.: 64
Chanel 1 Note Off - Duracao: 140220 Nota: C1 Vol.: 92
Chanel 1 Note On - Duracao: 140220 Nota: C1 Vol.: 90
Chanel 10 Note Off - Duracao: 140280 Nota: C1 Vol.: 64
Chanel 10 Note On - Duracao: 140280 Nota: C1 Vol.: 64
Chanel 3 Note Off - Duracao: 140460 Nota: C1 Vol.: 65
Chanel 3 Note On - Duracao: 140460 Nota: C1 Vol.: 67
Chanel 7 Note Off - Duracao: 140520 Nota: C1 Vol.: 52
Chanel 7 Note On - Duracao: 140520 Nota: C1 Vol.: 52
Chanel 8 Note Off - Duracao: 140520 Nota: C1 Vol.: 68
Chanel 8 Note On - Duracao: 140520 Nota: C1 Vol.: 81
Chanel 1 Note Off - Duracao: 140700 Nota: C1 Vol.: 90
Chanel 1 Note On - Duracao: 140700 Nota: C1 Vol.: 82
Chanel 6 Note Off - Duracao: 140880 Nota: C1 Vol.: 67
Chanel 6 Note On - Duracao: 140880 Nota: C1 Vol.: 75
Chanel 8 Note Off - Duracao: 141000 Nota: C1 Vol.: 81
Chanel 8 Note On - Duracao: 141000 Nota: C1 Vol.: 80
Chanel 3 Note Off - Duracao: 141420 Nota: C1 Vol.: 67
Chanel 3 Note On - Duracao: 141420 Nota: C1 Vol.: 69
Chanel 4 Note Off - Duracao: 141420 Nota: C1 Vol.: 59
Chanel 4 Note On - Duracao: 141420 Nota: C1 Vol.: 68
Chanel 9 Note Off - Duracao: 141480 Nota: C1 Vol.: 63
Chanel 9 Note On - Duracao: 141480 Nota: C1 Vol.: 57
Chanel 1 Note Off - Duracao: 141660 Nota: C1 Vol.: 82
Chanel 1 Note On - Duracao: 141660 Nota: C1 Vol.: 85
Chanel 5 Note Off - Duracao: 141720 Nota: C1 Vol.: 64
Chanel 5 Note On - Duracao: 141720 Nota: C1 Vol.: 75
Chanel 6 Note Off - Duracao: 141840 Nota: C1 Vol.: 75
Chanel 6 Note On - Duracao: 141840 Nota: C1 Vol.: 68
Chanel 8 Note Off - Duracao: 141960 Nota: C1 Vol.: 80
Chanel 8 Note On - Duracao: 141960 Nota: C1 Vol.: 61
Chanel 1 Note Off - Duracao: 142140 Nota: C1 Vol.: 85
Chanel 1 Note On - Duracao: 142140 Nota: C1 Vol.: 84
Chanel 10 Note Off - Duracao: 142200 Nota: C1 Vol.: 64
Chanel 10 Note On - Duracao: 142200 Nota: C1 Vol.: 58
Chanel 3 Note Off - Duracao: 142380 Nota: C1 Vol.: 69
Chanel 3 Note On - Duracao: 142380 Nota: C1 Vol.: 77
Chanel 4 Note Off - Duracao: 142380 Nota: C1 Vol.: 68
Chanel 4 Note On - Duracao: 142380 Nota: C1 Vol.: 76
Chanel 7 Note Off - Duracao: 142440 Nota: C1 Vol.: 52
Chanel 7 Note On - Duracao: 142440 Nota: C1 Vol.: 48
Chanel 1 Note Off - Duracao: 142620 Nota: C1 Vol.: 84
Chanel 1 Note On - Duracao: 142620 Nota: C1 Vol.: 92
Chanel 5 Note Off - Duracao: 142680 Nota: C1 Vol.: 75
Chanel 5 Note On - Duracao: 142680 Nota: C1 Vol.: 80
Chanel 2 Note Off - Duracao: 142800 Nota: C1 Vol.: 81
Chanel 2 Note On - Duracao: 142800 Nota: C1 Vol.: 82
Chanel 1 Note Off - Duracao: 142860 Nota: C1 Vol.: 92
Chanel 1 Note On - Duracao: 142860 Nota: C1 Vol.: 91
Chanel 3 Note Off - Duracao: 142860 Nota: C1 Vol.: 77
Chanel 3 Note On - Duracao: 142860 Nota: C1 Vol.: 68
Chanel 1 Note Off - Duracao: 142980 Nota: C1 Vol.: 91
Chanel 1 Note On - Duracao: 142980 Nota: C1 Vol.: 92
Chanel 1 Note Off - Duracao: 143100 Nota: C1 Vol.: 92
Chanel 1 Note On - Duracao: 143100 Nota: C1 Vol.: 83
Chanel 5 Note Off - Duracao: 143160 Nota: C1 Vol.: 80
Chanel 5 Note On - Duracao: 143160 Nota: C1 Vol.: 84
Chanel 1 Note Off - Duracao: 143340 Nota: C1 Vol.: 83
Chanel 1 Note On - Duracao: 143340 Nota: C1 Vol.: 81
Chanel 4 Note Off - Duracao: 143340 Nota: C1 Vol.: 76
Chanel 4 Note On - Duracao: 143340 Nota: C1 Vol.: 75
Chanel 9 Note Off - Duracao: 143400 Nota: C1 Vol.: 57
Chanel 9 Note On - Duracao: 143400 Nota: C1 Vol.: 70
Chanel 5 Note Off - Duracao: 143640 Nota: C1 Vol.: 84
Chanel 5 Note On - Duracao: 143640 Nota: C1 Vol.: 83
Chanel 6 Note Off - Duracao: 143760 Nota: C1 Vol.: 68
Chanel 6 Note On - Duracao: 143760 Nota: C1 Vol.: 68
Chanel 1 Note Off - Duracao: 143820 Nota: C1 Vol.: 81
Chanel 1 Note On - Duracao: 143820 Nota: C1 Vol.: 82
Chanel 3 Note Off - Duracao: 143820 Nota: C1 Vol.: 68
Chanel 3 Note On - Duracao: 143820 Nota: C1 Vol.: 68
Chanel 8 Note Off - Duracao: 143880 Nota: C1 Vol.: 61
Chanel 8 Note On - Duracao: 143880 Nota: C1 Vol.: 71
Chanel 5 Note Off - Duracao: 144120 Nota: C1 Vol.: 83
Chanel 5 Note On - Duracao: 144120 Nota: C1 Vol.: 81
Chanel 1 Note Off - Duracao: 144300 Nota: C1 Vol.: 82
Chanel 1 Note On - Duracao: 144300 Nota: C1 Vol.: 80
Chanel 4 Note Off - Duracao: 144300 Nota: C1 Vol.: 75
Chanel 4 Note On - Duracao: 144300 Nota: C1 Vol.: 66
Chanel 7 Note Off - Duracao: 144360 Nota: C1 Vol.: 48
Chanel 7 Note On - Duracao: 144360 Nota: C1 Vol.: 46
Chanel 9 Note Off - Duracao: 144360 Nota: C1 Vol.: 70
Chanel 9 Note On - Duracao: 144360 Nota: C1 Vol.: 79
Chanel 5 Note Off - Duracao: 144600 Nota: C1 Vol.: 81
Chanel 5 Note On - Duracao: 144600 Nota: C1 Vol.: 74
Chanel 2 Note Off - Duracao: 144720 Nota: C1 Vol.: 82
Chanel 2 Note On - Duracao: 144720 Nota: C1 Vol.: 75
Chanel 1 Note Off - Duracao: 144780 Nota: C1 Vol.: 80
Chanel 1 Note On - Duracao: 144780 Nota: C1 Vol.: 76
Chanel 3 Note Off - Duracao: 144780 Nota: C1 Vol.: 68
Chanel 3 Note On - Duracao: 144780 Nota: C1 Vol.: 70
Chanel 8 Note Off - Duracao: 144840 Nota: C1 Vol.: 71
Chanel 8 Note On - Duracao: 144840 Nota: C1 Vol.: 72
Chanel 9 Note Off - Duracao: 144840 Nota: C1 Vol.: 79
Chanel 9 Note On - Duracao: 144840 Nota: C1 Vol.: 72
Chanel 5 Note Off - Duracao: 145080 Nota: C1 Vol.: 74
Chanel 5 Note On - Duracao: 145080 Nota: C1 Vol.: 79
Chanel 5 Note Off - Duracao: 145560 Nota: C1 Vol.: 79
Chanel 5 Note On - Duracao: 145560 Nota: C1 Vol.: 94
Chanel 2 Note Off - Duracao: 145680 Nota: C1 Vol.: 75
Chanel 2 Note On - Duracao: 145680 Nota: C1 Vol.: 53
Chanel 5 Note Off - Duracao: 145680 Nota: C1 Vol.: 94
Chanel 5 Note On - Duracao: 145680 Nota: C1 Vol.: 98
Chanel 6 Note Off - Duracao: 145680 Nota: C1 Vol.: 68
Chanel 6 Note On - Duracao: 145680 Nota: C1 Vol.: 80
Chanel 1 Note Off - Duracao: 145740 Nota: C1 Vol.: 76
Chanel 1 Note On - Duracao: 145740 Nota: C1 Vol.: 82
Chanel 3 Note Off - Duracao: 145740 Nota: C1 Vol.: 70
Chanel 3 Note On - Duracao: 145740 Nota: C1 Vol.: 77
Chanel 5 Note Off - Duracao: 145800 Nota: C1 Vol.: 98
Chanel 5 Note On - Duracao: 145800 Nota: C1 Vol.: 99
Chanel 8 Note Off - Duracao: 145800 Nota: C1 Vol.: 72
Chanel 8 Note On - Duracao: 145800 Nota: C1 Vol.: 73
Chanel 9 Note Off - Duracao: 145800 Nota: C1 Vol.: 72
Chanel 9 Note On - Duracao: 145800 Nota: C1 Vol.: 74
Chanel 5 Note Off - Duracao: 145860 Nota: C1 Vol.: 99
Chanel 5 Note On - Duracao: 145860 Nota: C1 Vol.: 98
Chanel 5 Note Off - Duracao: 145920 Nota: C1 Vol.: 98
Chanel 5 Note On - Duracao: 145920 Nota: C1 Vol.: 98
Chanel 5 Note Off - Duracao: 145980 Nota: C1 Vol.: 98
Chanel 5 Note On - Duracao: 145980 Nota: C1 Vol.: 99
Chanel 5 Note Off - Duracao: 146040 Nota: C1 Vol.: 99
Chanel 5 Note On - Duracao: 146040 Nota: C1 Vol.: 100
Chanel 10 Note Off - Duracao: 146040 Nota: C1 Vol.: 58
Chanel 10 Note On - Duracao: 146040 Nota: C1 Vol.: 84
Chanel 5 Note Off - Duracao: 146100 Nota: C1 Vol.: 100
Chanel 5 Note On - Duracao: 146100 Nota: C1 Vol.: 99
Chanel 5 Note Off - Duracao: 146160 Nota: C1 Vol.: 99
Chanel 5 Note On - Duracao: 146160 Nota: C1 Vol.: 99
Chanel 6 Note Off - Duracao: 146160 Nota: C1 Vol.: 80
Chanel 6 Note On - Duracao: 146160 Nota: C1 Vol.: 56
Chanel 1 Note Off - Duracao: 146220 Nota: C1 Vol.: 82
Chanel 1 Note On - Duracao: 146220 Nota: C1 Vol.: 89
Chanel 4 Note Off - Duracao: 146220 Nota: C1 Vol.: 66
Chanel 4 Note On - Duracao: 146220 Nota: C1 Vol.: 61
Chanel 5 Note Off - Duracao: 146220 Nota: C1 Vol.: 99
Chanel 5 Note On - Duracao: 146220 Nota: C1 Vol.: 99
Chanel 5 Note Off - Duracao: 146280 Nota: C1 Vol.: 99
Chanel 5 Note On - Duracao: 146280 Nota: C1 Vol.: 98
Chanel 7 Note Off - Duracao: 146280 Nota: C1 Vol.: 46
Chanel 7 Note On - Duracao: 146280 Nota: C1 Vol.: 47
Chanel 9 Note Off - Duracao: 146280 Nota: C1 Vol.: 74
Chanel 9 Note On - Duracao: 146280 Nota: C1 Vol.: 77
Chanel 5 Note Off - Duracao: 146400 Nota: C1 Vol.: 98
Chanel 5 Note On - Duracao: 146400 Nota: C1 Vol.: 99
Chanel 1 Note Off - Duracao: 146460 Nota: C1 Vol.: 89
Chanel 1 Note On - Duracao: 146460 Nota: C1 Vol.: 82
Chanel 5 Note Off - Duracao: 146460 Nota: C1 Vol.: 99
Chanel 5 Note On - Duracao: 146460 Nota: C1 Vol.: 98
Chanel 10 Note Off - Duracao: 146520 Nota: C1 Vol.: 84
Chanel 10 Note On - Duracao: 146520 Nota: C1 Vol.: 85
Chanel 5 Note Off - Duracao: 146580 Nota: C1 Vol.: 98
Chanel 5 Note On - Duracao: 146580 Nota: C1 Vol.: 99
Chanel 3 Note Off - Duracao: 146700 Nota: C1 Vol.: 77
Chanel 3 Note On - Duracao: 146700 Nota: C1 Vol.: 71
Chanel 5 Note Off - Duracao: 146700 Nota: C1 Vol.: 99
Chanel 5 Note On - Duracao: 146700 Nota: C1 Vol.: 91
Chanel 8 Note Off - Duracao: 146760 Nota: C1 Vol.: 73
Chanel 8 Note On - Duracao: 146760 Nota: C1 Vol.: 71
Chanel 9 Note Off - Duracao: 146760 Nota: C1 Vol.: 77
Chanel 9 Note On - Duracao: 146760 Nota: C1 Vol.: 69
Chanel 5 Note Off - Duracao: 146820 Nota: C1 Vol.: 91
Chanel 5 Note On - Duracao: 146820 Nota: C1 Vol.: 57
Chanel 1 Note Off - Duracao: 146940 Nota: C1 Vol.: 82
Chanel 1 Note On - Duracao: 146940 Nota: C1 Vol.: 80
Chanel 9 Note Off - Duracao: 147240 Nota: C1 Vol.: 69
Chanel 9 Note On - Duracao: 147240 Nota: C1 Vol.: 76
Chanel 1 Note Off - Duracao: 147420 Nota: C1 Vol.: 80
Chanel 1 Note On - Duracao: 147420 Nota: C1 Vol.: 81
Chanel 9 Note Off - Duracao: 147480 Nota: C1 Vol.: 76
Chanel 9 Note On - Duracao: 147480 Nota: C1 Vol.: 64
Chanel 10 Note Off - Duracao: 147480 Nota: C1 Vol.: 85
Chanel 10 Note On - Duracao: 147480 Nota: C1 Vol.: 81
Chanel 2 Note Off - Duracao: 147600 Nota: C1 Vol.: 53
Chanel 2 Note On - Duracao: 147600 Nota: C1 Vol.: 52
Chanel 3 Note Off - Duracao: 147660 Nota: C1 Vol.: 71
Chanel 3 Note On - Duracao: 147660 Nota: C1 Vol.: 65
Chanel 8 Note Off - Duracao: 147720 Nota: C1 Vol.: 71
Chanel 8 Note On - Duracao: 147720 Nota: C1 Vol.: 58
Chanel 1 Note Off - Duracao: 147900 Nota: C1 Vol.: 81
Chanel 1 Note On - Duracao: 147900 Nota: C1 Vol.: 83
Chanel 6 Note Off - Duracao: 148080 Nota: C1 Vol.: 56
Chanel 6 Note On - Duracao: 148080 Nota: C1 Vol.: 57
Chanel 1 Note Off - Duracao: 148140 Nota: C1 Vol.: 83
Chanel 1 Note On - Duracao: 148140 Nota: C1 Vol.: 86
Chanel 7 Note Off - Duracao: 148200 Nota: C1 Vol.: 47
Chanel 7 Note On - Duracao: 148200 Nota: C1 Vol.: 44
Chanel 1 Note Off - Duracao: 148380 Nota: C1 Vol.: 86
Chanel 1 Note On - Duracao: 148380 Nota: C1 Vol.: 95
Chanel 9 Note Off - Duracao: 148440 Nota: C1 Vol.: 64
Chanel 9 Note On - Duracao: 148440 Nota: C1 Vol.: 86
Chanel 10 Note Off - Duracao: 148440 Nota: C1 Vol.: 81
Chanel 10 Note On - Duracao: 148440 Nota: C1 Vol.: 90
Chanel 1 Note Off - Duracao: 148500 Nota: C1 Vol.: 95
Chanel 1 Note On - Duracao: 148500 Nota: C1 Vol.: 96
Chanel 1 Note Off - Duracao: 148560 Nota: C1 Vol.: 96
Chanel 1 Note On - Duracao: 148560 Nota: C1 Vol.: 97
Chanel 2 Note Off - Duracao: 148560 Nota: C1 Vol.: 52
Chanel 2 Note On - Duracao: 148560 Nota: C1 Vol.: 52
Chanel 1 Note Off - Duracao: 148620 Nota: C1 Vol.: 97
Chanel 1 Note On - Duracao: 148620 Nota: C1 Vol.: 97
Chanel 3 Note Off - Duracao: 148620 Nota: C1 Vol.: 65
Chanel 3 Note On - Duracao: 148620 Nota: C1 Vol.: 75
Chanel 1 Note Off - Duracao: 148680 Nota: C1 Vol.: 97
Chanel 1 Note On - Duracao: 148680 Nota: C1 Vol.: 95
Chanel 9 Note Off - Duracao: 148680 Nota: C1 Vol.: 86
Chanel 9 Note On - Duracao: 148680 Nota: C1 Vol.: 85
Chanel 1 Note Off - Duracao: 148740 Nota: C1 Vol.: 95
Chanel 1 Note On - Duracao: 148740 Nota: C1 Vol.: 95
Chanel 5 Note Off - Duracao: 148740 Nota: C1 Vol.: 57
Chanel 5 Note On - Duracao: 148740 Nota: C1 Vol.: 55
Chanel 1 Note Off - Duracao: 148860 Nota: C1 Vol.: 95
Chanel 1 Note On - Duracao: 148860 Nota: C1 Vol.: 67
Chanel 9 Note Off - Duracao: 148920 Nota: C1 Vol.: 85
Chanel 9 Note On - Duracao: 148920 Nota: C1 Vol.: 66
Chanel 6 Note Off - Duracao: 149040 Nota: C1 Vol.: 57
Chanel 6 Note On - Duracao: 149040 Nota: C1 Vol.: 58
Chanel 3 Note Off - Duracao: 149100 Nota: C1 Vol.: 75
Chanel 3 Note On - Duracao: 149100 Nota: C1 Vol.: 82
Chanel 3 Note Off - Duracao: 149340 Nota: C1 Vol.: 82
Chanel 3 Note On - Duracao: 149340 Nota: C1 Vol.: 91
Chanel 10 Note Off - Duracao: 149400 Nota: C1 Vol.: 90
Chanel 10 Note On - Duracao: 149400 Nota: C1 Vol.: 93
Chanel 3 Note Off - Duracao: 149460 Nota: C1 Vol.: 91
Chanel 3 Note On - Duracao: 149460 Nota: C1 Vol.: 98
Chanel 2 Note Off - Duracao: 149520 Nota: C1 Vol.: 52
Chanel 2 Note On - Duracao: 149520 Nota: C1 Vol.: 52
Chanel 3 Note Off - Duracao: 149580 Nota: C1 Vol.: 98
Chanel 3 Note On - Duracao: 149580 Nota: C1 Vol.: 92
Chanel 8 Note Off - Duracao: 149640 Nota: C1 Vol.: 58
Chanel 8 Note On - Duracao: 149640 Nota: C1 Vol.: 52
Chanel 3 Note Off - Duracao: 149700 Nota: C1 Vol.: 92
Chanel 3 Note On - Duracao: 149700 Nota: C1 Vol.: 78
Chanel 1 Note Off - Duracao: 149820 Nota: C1 Vol.: 67
Chanel 1 Note On - Duracao: 149820 Nota: C1 Vol.: 55
Chanel 9 Note Off - Duracao: 149880 Nota: C1 Vol.: 66
Chanel 9 Note On - Duracao: 149880 Nota: C1 Vol.: 71
Chanel 10 Note Off - Duracao: 149880 Nota: C1 Vol.: 93
Chanel 10 Note On - Duracao: 149880 Nota: C1 Vol.: 85
Chanel 2 Note Off - Duracao: 150000 Nota: C1 Vol.: 52
Chanel 2 Note On - Duracao: 150000 Nota: C1 Vol.: 56
Chanel 6 Note Off - Duracao: 150000 Nota: C1 Vol.: 58
Chanel 6 Note On - Duracao: 150000 Nota: C1 Vol.: 71
Chanel 4 Note Off - Duracao: 150060 Nota: C1 Vol.: 61
Chanel 4 Note On - Duracao: 150060 Nota: C1 Vol.: 56
Chanel 7 Note Off - Duracao: 150120 Nota: C1 Vol.: 44
Chanel 7 Note On - Duracao: 150120 Nota: C1 Vol.: 50
Chanel 3 Note Off - Duracao: 150180 Nota: C1 Vol.: 78
Chanel 3 Note On - Duracao: 150180 Nota: C1 Vol.: 85
Chanel 9 Note Off - Duracao: 150360 Nota: C1 Vol.: 71
Chanel 9 Note On - Duracao: 150360 Nota: C1 Vol.: 77
Chanel 2 Note Off - Duracao: 150480 Nota: C1 Vol.: 56
Chanel 2 Note On - Duracao: 150480 Nota: C1 Vol.: 58
Chanel 6 Note Off - Duracao: 150480 Nota: C1 Vol.: 71
Chanel 6 Note On - Duracao: 150480 Nota: C1 Vol.: 63
Chanel 3 Note Off - Duracao: 150660 Nota: C1 Vol.: 85
Chanel 3 Note On - Duracao: 150660 Nota: C1 Vol.: 82
Chanel 5 Note Off - Duracao: 150660 Nota: C1 Vol.: 55
Chanel 5 Note On - Duracao: 150660 Nota: C1 Vol.: 87
Chanel 5 Note Off - Duracao: 150780 Nota: C1 Vol.: 87
Chanel 5 Note On - Duracao: 150780 Nota: C1 Vol.: 90
Chanel 9 Note Off - Duracao: 150840 Nota: C1 Vol.: 77
Chanel 9 Note On - Duracao: 150840 Nota: C1 Vol.: 64
Chanel 10 Note Off - Duracao: 150840 Nota: C1 Vol.: 85
Chanel 10 Note On - Duracao: 150840 Nota: C1 Vol.: 81
Chanel 5 Note Off - Duracao: 150900 Nota: C1 Vol.: 90
Chanel 5 Note On - Duracao: 150900 Nota: C1 Vol.: 93
Chanel 2 Note Off - Duracao: 150960 Nota: C1 Vol.: 58
Chanel 2 Note On - Duracao: 150960 Nota: C1 Vol.: 57
Chanel 5 Note Off - Duracao: 150960 Nota: C1 Vol.: 93
Chanel 5 Note On - Duracao: 150960 Nota: C1 Vol.: 99
Chanel 6 Note Off - Duracao: 150960 Nota: C1 Vol.: 63
Chanel 6 Note On - Duracao: 150960 Nota: C1 Vol.: 86
Chanel 5 Note Off - Duracao: 151020 Nota: C1 Vol.: 99
Chanel 5 Note On - Duracao: 151020 Nota: C1 Vol.: 100
Chanel 5 Note Off - Duracao: 151080 Nota: C1 Vol.: 100
Chanel 5 Note On - Duracao: 151080 Nota: C1 Vol.: 99
Chanel 6 Note Off - Duracao: 151080 Nota: C1 Vol.: 86
Chanel 6 Note On - Duracao: 151080 Nota: C1 Vol.: 66
Chanel 7 Note Off - Duracao: 151080 Nota: C1 Vol.: 50
Chanel 7 Note On - Duracao: 151080 Nota: C1 Vol.: 44
Chanel 3 Note Off - Duracao: 151140 Nota: C1 Vol.: 82
Chanel 3 Note On - Duracao: 151140 Nota: C1 Vol.: 77
Chanel 5 Note Off - Duracao: 151140 Nota: C1 Vol.: 99
Chanel 5 Note On - Duracao: 151140 Nota: C1 Vol.: 100
Chanel 5 Note Off - Duracao: 151200 Nota: C1 Vol.: 100
Chanel 5 Note On - Duracao: 151200 Nota: C1 Vol.: 100
Chanel 5 Note Off - Duracao: 151260 Nota: C1 Vol.: 100
Chanel 5 Note On - Duracao: 151260 Nota: C1 Vol.: 99
Chanel 5 Note Off - Duracao: 151320 Nota: C1 Vol.: 99
Chanel 5 Note On - Duracao: 151320 Nota: C1 Vol.: 97
Chanel 5 Note Off - Duracao: 151380 Nota: C1 Vol.: 97
Chanel 5 Note On - Duracao: 151380 Nota: C1 Vol.: 97
Chanel 2 Note Off - Duracao: 151440 Nota: C1 Vol.: 57
Chanel 2 Note On - Duracao: 151440 Nota: C1 Vol.: 55
Chanel 5 Note Off - Duracao: 151440 Nota: C1 Vol.: 97
Chanel 5 Note On - Duracao: 151440 Nota: C1 Vol.: 55
Chanel 6 Note Off - Duracao: 151560 Nota: C1 Vol.: 66
Chanel 6 Note On - Duracao: 151560 Nota: C1 Vol.: 51
Chanel 3 Note Off - Duracao: 151620 Nota: C1 Vol.: 77
Chanel 3 Note On - Duracao: 151620 Nota: C1 Vol.: 75
Chanel 2 Note Off - Duracao: 151920 Nota: C1 Vol.: 55
Chanel 2 Note On - Duracao: 151920 Nota: C1 Vol.: 58
Chanel 7 Note Off - Duracao: 152040 Nota: C1 Vol.: 44
Chanel 7 Note On - Duracao: 152040 Nota: C1 Vol.: 42
Chanel 2 Note Off - Duracao: 152400 Nota: C1 Vol.: 58
Chanel 2 Note On - Duracao: 152400 Nota: C1 Vol.: 61
Chanel 6 Note Off - Duracao: 152520 Nota: C1 Vol.: 51
Chanel 6 Note On - Duracao: 152520 Nota: C1 Vol.: 47
Chanel 3 Note Off - Duracao: 152580 Nota: C1 Vol.: 75
Chanel 3 Note On - Duracao: 152580 Nota: C1 Vol.: 73
Chanel 9 Note Off - Duracao: 152760 Nota: C1 Vol.: 64
Chanel 9 Note On - Duracao: 152760 Nota: C1 Vol.: 72
Chanel 10 Note Off - Duracao: 152760 Nota: C1 Vol.: 81
Chanel 10 Note On - Duracao: 152760 Nota: C1 Vol.: 76
Chanel 2 Note Off - Duracao: 152880 Nota: C1 Vol.: 61
Chanel 2 Note On - Duracao: 152880 Nota: C1 Vol.: 58
Chanel 7 Note Off - Duracao: 153000 Nota: C1 Vol.: 42
Chanel 7 Note On - Duracao: 153000 Nota: C1 Vol.: 40
Chanel 2 Note Off - Duracao: 153360 Nota: C1 Vol.: 58
Chanel 2 Note On - Duracao: 153360 Nota: C1 Vol.: 60
Chanel 5 Note Off - Duracao: 153360 Nota: C1 Vol.: 55
Chanel 5 Note On - Duracao: 153360 Nota: C1 Vol.: 70
Chanel 6 Note Off - Duracao: 153480 Nota: C1 Vol.: 47
Chanel 6 Note On - Duracao: 153480 Nota: C1 Vol.: 44
Chanel 8 Note Off - Duracao: 153480 Nota: C1 Vol.: 52
Chanel 8 Note On - Duracao: 153480 Nota: C1 Vol.: 58
Chanel 3 Note Off - Duracao: 153540 Nota: C1 Vol.: 73
Chanel 3 Note On - Duracao: 153540 Nota: C1 Vol.: 76
Chanel 1 Note Off - Duracao: 153660 Nota: C1 Vol.: 55
Chanel 1 Note On - Duracao: 153660 Nota: C1 Vol.: 82
Chanel 9 Note Off - Duracao: 153720 Nota: C1 Vol.: 72
Chanel 9 Note On - Duracao: 153720 Nota: C1 Vol.: 70
Chanel 5 Note Off - Duracao: 153840 Nota: C1 Vol.: 70
Chanel 5 Note On - Duracao: 153840 Nota: C1 Vol.: 94
Chanel 4 Note Off - Duracao: 153900 Nota: C1 Vol.: 56
Chanel 4 Note On - Duracao: 153900 Nota: C1 Vol.: 61
Chanel 5 Note Off - Duracao: 153960 Nota: C1 Vol.: 94
Chanel 5 Note On - Duracao: 153960 Nota: C1 Vol.: 95
Chanel 7 Note Off - Duracao: 153960 Nota: C1 Vol.: 40
Chanel 7 Note On - Duracao: 153960 Nota: C1 Vol.: 40
Chanel 5 Note Off - Duracao: 154080 Nota: C1 Vol.: 95
Chanel 5 Note On - Duracao: 154080 Nota: C1 Vol.: 75
Chanel 9 Note Off - Duracao: 154200 Nota: C1 Vol.: 70
Chanel 9 Note On - Duracao: 154200 Nota: C1 Vol.: 67
Chanel 2 Note Off - Duracao: 154320 Nota: C1 Vol.: 60
Chanel 2 Note On - Duracao: 154320 Nota: C1 Vol.: 87
Chanel 6 Note Off - Duracao: 154440 Nota: C1 Vol.: 44
Chanel 6 Note On - Duracao: 154440 Nota: C1 Vol.: 44
Chanel 3 Note Off - Duracao: 154500 Nota: C1 Vol.: 76
Chanel 3 Note On - Duracao: 154500 Nota: C1 Vol.: 58
Chanel 5 Note Off - Duracao: 154560 Nota: C1 Vol.: 75
Chanel 5 Note On - Duracao: 154560 Nota: C1 Vol.: 68
Chanel 1 Note Off - Duracao: 154620 Nota: C1 Vol.: 82
Chanel 1 Note On - Duracao: 154620 Nota: C1 Vol.: 89
Chanel 9 Note Off - Duracao: 154680 Nota: C1 Vol.: 67
Chanel 9 Note On - Duracao: 154680 Nota: C1 Vol.: 67
Chanel 10 Note Off - Duracao: 154680 Nota: C1 Vol.: 76
Chanel 10 Note On - Duracao: 154680 Nota: C1 Vol.: 77
Chanel 7 Note Off - Duracao: 154920 Nota: C1 Vol.: 40
Chanel 7 Note On - Duracao: 154920 Nota: C1 Vol.: 41
Chanel 5 Note Off - Duracao: 155040 Nota: C1 Vol.: 68
Chanel 5 Note On - Duracao: 155040 Nota: C1 Vol.: 46
Chanel 9 Note Off - Duracao: 155160 Nota: C1 Vol.: 67
Chanel 9 Note On - Duracao: 155160 Nota: C1 Vol.: 58
Chanel 2 Note Off - Duracao: 155280 Nota: C1 Vol.: 87
Chanel 2 Note On - Duracao: 155280 Nota: C1 Vol.: 94
Chanel 8 Note Off - Duracao: 155400 Nota: C1 Vol.: 58
Chanel 8 Note On - Duracao: 155400 Nota: C1 Vol.: 60
Chanel 4 Note Off - Duracao: 155820 Nota: C1 Vol.: 61
Chanel 4 Note On - Duracao: 155820 Nota: C1 Vol.: 71
Chanel 7 Note Off - Duracao: 155880 Nota: C1 Vol.: 41
Chanel 7 Note On - Duracao: 155880 Nota: C1 Vol.: 41
Chanel 9 Note Off - Duracao: 156120 Nota: C1 Vol.: 58
Chanel 9 Note On - Duracao: 156120 Nota: C1 Vol.: 60
Chanel 4 Note Off - Duracao: 156300 Nota: C1 Vol.: 71
Chanel 4 Note On - Duracao: 156300 Nota: C1 Vol.: 74
Chanel 6 Note Off - Duracao: 156360 Nota: C1 Vol.: 44
Chanel 6 Note On - Duracao: 156360 Nota: C1 Vol.: 43
Chanel 1 Note Off - Duracao: 156540 Nota: C1 Vol.: 89
Chanel 1 Note On - Duracao: 156540 Nota: C1 Vol.: 90
Chanel 10 Note Off - Duracao: 156600 Nota: C1 Vol.: 77
Chanel 10 Note On - Duracao: 156600 Nota: C1 Vol.: 81
Chanel 4 Note Off - Duracao: 156780 Nota: C1 Vol.: 74
Chanel 4 Note On - Duracao: 156780 Nota: C1 Vol.: 77
Chanel 7 Note Off - Duracao: 156840 Nota: C1 Vol.: 41
Chanel 7 Note On - Duracao: 156840 Nota: C1 Vol.: 41
Chanel 9 Note Off - Duracao: 157080 Nota: C1 Vol.: 60
Chanel 9 Note On - Duracao: 157080 Nota: C1 Vol.: 61
Chanel 2 Note Off - Duracao: 157200 Nota: C1 Vol.: 94
Chanel 2 Note On - Duracao: 157200 Nota: C1 Vol.: 93
Chanel 4 Note Off - Duracao: 157260 Nota: C1 Vol.: 77
Chanel 4 Note On - Duracao: 157260 Nota: C1 Vol.: 76
Chanel 8 Note Off - Duracao: 157320 Nota: C1 Vol.: 60
Chanel 8 Note On - Duracao: 157320 Nota: C1 Vol.: 64
Chanel 4 Note Off - Duracao: 157740 Nota: C1 Vol.: 76
Chanel 4 Note On - Duracao: 157740 Nota: C1 Vol.: 63
Chanel 7 Note Off - Duracao: 157800 Nota: C1 Vol.: 41
Chanel 7 Note On - Duracao: 157800 Nota: C1 Vol.: 41
Chanel 9 Note Off - Duracao: 158040 Nota: C1 Vol.: 61
Chanel 9 Note On - Duracao: 158040 Nota: C1 Vol.: 64
Chanel 6 Note Off - Duracao: 158280 Nota: C1 Vol.: 43
Chanel 6 Note On - Duracao: 158280 Nota: C1 Vol.: 47
Chanel 3 Note Off - Duracao: 158340 Nota: C1 Vol.: 58
Chanel 3 Note On - Duracao: 158340 Nota: C1 Vol.: 55
Chanel 1 Note Off - Duracao: 158460 Nota: C1 Vol.: 90
Chanel 1 Note On - Duracao: 158460 Nota: C1 Vol.: 92
Chanel 10 Note Off - Duracao: 158520 Nota: C1 Vol.: 81
Chanel 10 Note On - Duracao: 158520 Nota: C1 Vol.: 81
Chanel 7 Note Off - Duracao: 158760 Nota: C1 Vol.: 41
Chanel 7 Note On - Duracao: 158760 Nota: C1 Vol.: 42
Chanel 5 Note Off - Duracao: 158880 Nota: C1 Vol.: 46
Chanel 5 Note On - Duracao: 158880 Nota: C1 Vol.: 83
Chanel 9 Note Off - Duracao: 159000 Nota: C1 Vol.: 64
Chanel 9 Note On - Duracao: 159000 Nota: C1 Vol.: 62
Chanel 2 Note Off - Duracao: 159120 Nota: C1 Vol.: 93
Chanel 2 Note On - Duracao: 159120 Nota: C1 Vol.: 92
Chanel 5 Note Off - Duracao: 159120 Nota: C1 Vol.: 83
Chanel 5 Note On - Duracao: 159120 Nota: C1 Vol.: 88
Chanel 5 Note Off - Duracao: 159240 Nota: C1 Vol.: 88
Chanel 5 Note On - Duracao: 159240 Nota: C1 Vol.: 98
Chanel 8 Note Off - Duracao: 159240 Nota: C1 Vol.: 64
Chanel 8 Note On - Duracao: 159240 Nota: C1 Vol.: 59
Chanel 5 Note Off - Duracao: 159300 Nota: C1 Vol.: 98
Chanel 5 Note On - Duracao: 159300 Nota: C1 Vol.: 100
Chanel 5 Note Off - Duracao: 159360 Nota: C1 Vol.: 100
Chanel 5 Note On - Duracao: 159360 Nota: C1 Vol.: 100
Chanel 5 Note Off - Duracao: 159420 Nota: C1 Vol.: 100
Chanel 5 Note On - Duracao: 159420 Nota: C1 Vol.: 98
Chanel 5 Note Off - Duracao: 159480 Nota: C1 Vol.: 98
Chanel 5 Note On - Duracao: 159480 Nota: C1 Vol.: 96
Chanel 5 Note Off - Duracao: 159540 Nota: C1 Vol.: 96
Chanel 5 Note On - Duracao: 159540 Nota: C1 Vol.: 97
Chanel 5 Note Off - Duracao: 159600 Nota: C1 Vol.: 97
Chanel 5 Note On - Duracao: 159600 Nota: C1 Vol.: 72
Chanel 4 Note Off - Duracao: 159660 Nota: C1 Vol.: 63
Chanel 4 Note On - Duracao: 159660 Nota: C1 Vol.: 62
Chanel 7 Note Off - Duracao: 159720 Nota: C1 Vol.: 42
Chanel 7 Note On - Duracao: 159720 Nota: C1 Vol.: 44
Chanel 9 Note Off - Duracao: 159960 Nota: C1 Vol.: 62
Chanel 9 Note On - Duracao: 159960 Nota: C1 Vol.: 63
Chanel 5 Note Off - Duracao: 160080 Nota: C1 Vol.: 72
Chanel 5 Note On - Duracao: 160080 Nota: C1 Vol.: 62
Chanel 7 Note Off - Duracao: 160200 Nota: C1 Vol.: 44
Chanel 7 Note On - Duracao: 160200 Nota: C1 Vol.: 46
Chanel 1 Note Off - Duracao: 160380 Nota: C1 Vol.: 92
Chanel 1 Note On - Duracao: 160380 Nota: C1 Vol.: 91
Chanel 10 Note Off - Duracao: 160440 Nota: C1 Vol.: 81
Chanel 10 Note On - Duracao: 160440 Nota: C1 Vol.: 83
Chanel 7 Note Off - Duracao: 160680 Nota: C1 Vol.: 46
Chanel 7 Note On - Duracao: 160680 Nota: C1 Vol.: 49
Chanel 9 Note Off - Duracao: 160920 Nota: C1 Vol.: 63
Chanel 9 Note On - Duracao: 160920 Nota: C1 Vol.: 63
Chanel 5 Note Off - Duracao: 161040 Nota: C1 Vol.: 62
Chanel 5 Note On - Duracao: 161040 Nota: C1 Vol.: 80
Chanel 7 Note Off - Duracao: 161160 Nota: C1 Vol.: 49
Chanel 7 Note On - Duracao: 161160 Nota: C1 Vol.: 48
Chanel 8 Note Off - Duracao: 161160 Nota: C1 Vol.: 59
Chanel 8 Note On - Duracao: 161160 Nota: C1 Vol.: 57
Chanel 5 Note Off - Duracao: 161280 Nota: C1 Vol.: 80
Chanel 5 Note On - Duracao: 161280 Nota: C1 Vol.: 97
Chanel 5 Note Off - Duracao: 161340 Nota: C1 Vol.: 97
Chanel 5 Note On - Duracao: 161340 Nota: C1 Vol.: 95
Chanel 5 Note Off - Duracao: 161460 Nota: C1 Vol.: 95
Chanel 5 Note On - Duracao: 161460 Nota: C1 Vol.: 98
Chanel 5 Note Off - Duracao: 161520 Nota: C1 Vol.: 98
Chanel 5 Note On - Duracao: 161520 Nota: C1 Vol.: 96
Chanel 4 Note Off - Duracao: 161580 Nota: C1 Vol.: 62
Chanel 4 Note On - Duracao: 161580 Nota: C1 Vol.: 79
Chanel 5 Note Off - Duracao: 161580 Nota: C1 Vol.: 96
Chanel 5 Note On - Duracao: 161580 Nota: C1 Vol.: 96
Chanel 5 Note Off - Duracao: 161640 Nota: C1 Vol.: 96
Chanel 5 Note On - Duracao: 161640 Nota: C1 Vol.: 93
Chanel 7 Note Off - Duracao: 161640 Nota: C1 Vol.: 48
Chanel 7 Note On - Duracao: 161640 Nota: C1 Vol.: 48
Chanel 5 Note Off - Duracao: 161760 Nota: C1 Vol.: 93
Chanel 5 Note On - Duracao: 161760 Nota: C1 Vol.: 92
Chanel 5 Note Off - Duracao: 161880 Nota: C1 Vol.: 92
Chanel 5 Note On - Duracao: 161880 Nota: C1 Vol.: 93
Chanel 9 Note Off - Duracao: 161880 Nota: C1 Vol.: 63
Chanel 9 Note On - Duracao: 161880 Nota: C1 Vol.: 63
Chanel 5 Note Off - Duracao: 162000 Nota: C1 Vol.: 93
Chanel 5 Note On - Duracao: 162000 Nota: C1 Vol.: 96
Chanel 4 Note Off - Duracao: 162060 Nota: C1 Vol.: 79
Chanel 4 Note On - Duracao: 162060 Nota: C1 Vol.: 75
Chanel 5 Note Off - Duracao: 162060 Nota: C1 Vol.: 96
Chanel 5 Note On - Duracao: 162060 Nota: C1 Vol.: 94
Chanel 5 Note Off - Duracao: 162120 Nota: C1 Vol.: 94
Chanel 5 Note On - Duracao: 162120 Nota: C1 Vol.: 88
Chanel 6 Note Off - Duracao: 162120 Nota: C1 Vol.: 47
Chanel 6 Note On - Duracao: 162120 Nota: C1 Vol.: 64
Chanel 7 Note Off - Duracao: 162120 Nota: C1 Vol.: 48
Chanel 7 Note On - Duracao: 162120 Nota: C1 Vol.: 47
Chanel 3 Note Off - Duracao: 162180 Nota: C1 Vol.: 55
Chanel 3 Note On - Duracao: 162180 Nota: C1 Vol.: 61
Chanel 5 Note Off - Duracao: 162240 Nota: C1 Vol.: 88
Chanel 5 Note On - Duracao: 162240 Nota: C1 Vol.: 72
Chanel 1 Note Off - Duracao: 162300 Nota: C1 Vol.: 91
Chanel 1 Note On - Duracao: 162300 Nota: C1 Vol.: 93
Chanel 9 Note Off - Duracao: 162360 Nota: C1 Vol.: 63
Chanel 9 Note On - Duracao: 162360 Nota: C1 Vol.: 58
Chanel 10 Note Off - Duracao: 162360 Nota: C1 Vol.: 83
Chanel 10 Note On - Duracao: 162360 Nota: C1 Vol.: 89
Chanel 7 Note Off - Duracao: 162600 Nota: C1 Vol.: 47
Chanel 7 Note On - Duracao: 162600 Nota: C1 Vol.: 47
Chanel 5 Note Off - Duracao: 162720 Nota: C1 Vol.: 72
Chanel 5 Note On - Duracao: 162720 Nota: C1 Vol.: 75
Chanel 10 Note Off - Duracao: 162840 Nota: C1 Vol.: 89
Chanel 10 Note On - Duracao: 162840 Nota: C1 Vol.: 77
Chanel 2 Note Off - Duracao: 162960 Nota: C1 Vol.: 92
Chanel 2 Note On - Duracao: 162960 Nota: C1 Vol.: 93
Chanel 4 Note Off - Duracao: 163020 Nota: C1 Vol.: 75
Chanel 4 Note On - Duracao: 163020 Nota: C1 Vol.: 76
Chanel 7 Note Off - Duracao: 163080 Nota: C1 Vol.: 47
Chanel 7 Note On - Duracao: 163080 Nota: C1 Vol.: 48
Chanel 8 Note Off - Duracao: 163080 Nota: C1 Vol.: 57
Chanel 8 Note On - Duracao: 163080 Nota: C1 Vol.: 66
Chanel 5 Note Off - Duracao: 163200 Nota: C1 Vol.: 75
Chanel 5 Note On - Duracao: 163200 Nota: C1 Vol.: 61
Chanel 9 Note Off - Duracao: 163320 Nota: C1 Vol.: 58
Chanel 9 Note On - Duracao: 163320 Nota: C1 Vol.: 60
Chanel 4 Note Off - Duracao: 163500 Nota: C1 Vol.: 76
Chanel 4 Note On - Duracao: 163500 Nota: C1 Vol.: 73
Chanel 7 Note Off - Duracao: 163560 Nota: C1 Vol.: 48
Chanel 7 Note On - Duracao: 163560 Nota: C1 Vol.: 49
Chanel 10 Note Off - Duracao: 163800 Nota: C1 Vol.: 77
Chanel 10 Note On - Duracao: 163800 Nota: C1 Vol.: 58
Chanel 6 Note Off - Duracao: 164040 Nota: C1 Vol.: 64
Chanel 6 Note On - Duracao: 164040 Nota: C1 Vol.: 77
Chanel 7 Note Off - Duracao: 164040 Nota: C1 Vol.: 49
Chanel 7 Note On - Duracao: 164040 Nota: C1 Vol.: 48
Chanel 8 Note Off - Duracao: 164040 Nota: C1 Vol.: 66
Chanel 8 Note On - Duracao: 164040 Nota: C1 Vol.: 66
Chanel 1 Note Off - Duracao: 164220 Nota: C1 Vol.: 93
Chanel 1 Note On - Duracao: 164220 Nota: C1 Vol.: 93
Chanel 9 Note Off - Duracao: 164280 Nota: C1 Vol.: 60
Chanel 9 Note On - Duracao: 164280 Nota: C1 Vol.: 61
Chanel 4 Note Off - Duracao: 164460 Nota: C1 Vol.: 73
Chanel 4 Note On - Duracao: 164460 Nota: C1 Vol.: 55
Chanel 7 Note Off - Duracao: 164520 Nota: C1 Vol.: 48
Chanel 7 Note On - Duracao: 164520 Nota: C1 Vol.: 48
Chanel 6 Note Off - Duracao: 165000 Nota: C1 Vol.: 77
Chanel 6 Note On - Duracao: 165000 Nota: C1 Vol.: 81
Chanel 7 Note Off - Duracao: 165000 Nota: C1 Vol.: 48
Chanel 7 Note On - Duracao: 165000 Nota: C1 Vol.: 47
Chanel 8 Note Off - Duracao: 165000 Nota: C1 Vol.: 66
Chanel 8 Note On - Duracao: 165000 Nota: C1 Vol.: 66
Chanel 5 Note Off - Duracao: 165120 Nota: C1 Vol.: 61
Chanel 5 Note On - Duracao: 165120 Nota: C1 Vol.: 65
Chanel 9 Note Off - Duracao: 165240 Nota: C1 Vol.: 61
Chanel 9 Note On - Duracao: 165240 Nota: C1 Vol.: 68
Chanel 7 Note Off - Duracao: 165480 Nota: C1 Vol.: 47
Chanel 7 Note On - Duracao: 165480 Nota: C1 Vol.: 48
Chanel 7 Note Off - Duracao: 165960 Nota: C1 Vol.: 48
Chanel 7 Note On - Duracao: 165960 Nota: C1 Vol.: 46
Chanel 8 Note Off - Duracao: 165960 Nota: C1 Vol.: 66
Chanel 8 Note On - Duracao: 165960 Nota: C1 Vol.: 66
Chanel 3 Note Off - Duracao: 166020 Nota: C1 Vol.: 61
Chanel 3 Note On - Duracao: 166020 Nota: C1 Vol.: 46
Chanel 9 Note Off - Duracao: 166200 Nota: C1 Vol.: 68
Chanel 9 Note On - Duracao: 166200 Nota: C1 Vol.: 80
Chanel 7 Note Off - Duracao: 166440 Nota: C1 Vol.: 46
Chanel 7 Note On - Duracao: 166440 Nota: C1 Vol.: 48
Chanel 7 Note Off - Duracao: 166680 Nota: C1 Vol.: 48
Chanel 7 Note On - Duracao: 166680 Nota: C1 Vol.: 47
Chanel 2 Note Off - Duracao: 166800 Nota: C1 Vol.: 93
Chanel 2 Note On - Duracao: 166800 Nota: C1 Vol.: 92
Chanel 6 Note Off - Duracao: 166920 Nota: C1 Vol.: 81
Chanel 6 Note On - Duracao: 166920 Nota: C1 Vol.: 81
Chanel 8 Note Off - Duracao: 166920 Nota: C1 Vol.: 66
Chanel 8 Note On - Duracao: 166920 Nota: C1 Vol.: 68
Chanel 5 Note Off - Duracao: 167040 Nota: C1 Vol.: 65
Chanel 5 Note On - Duracao: 167040 Nota: C1 Vol.: 63
Chanel 7 Note Off - Duracao: 167160 Nota: C1 Vol.: 47
Chanel 7 Note On - Duracao: 167160 Nota: C1 Vol.: 49
Chanel 9 Note Off - Duracao: 167160 Nota: C1 Vol.: 80
Chanel 9 Note On - Duracao: 167160 Nota: C1 Vol.: 89
Chanel 7 Note Off - Duracao: 167640 Nota: C1 Vol.: 49
Chanel 7 Note On - Duracao: 167640 Nota: C1 Vol.: 49
Chanel 10 Note Off - Duracao: 167640 Nota: C1 Vol.: 58
Chanel 10 Note On - Duracao: 167640 Nota: C1 Vol.: 68
Chanel 8 Note Off - Duracao: 167880 Nota: C1 Vol.: 68
Chanel 8 Note On - Duracao: 167880 Nota: C1 Vol.: 73
Chanel 1 Note Off - Duracao: 168060 Nota: C1 Vol.: 93
Chanel 1 Note On - Duracao: 168060 Nota: C1 Vol.: 92
Chanel 7 Note Off - Duracao: 168120 Nota: C1 Vol.: 49
Chanel 7 Note On - Duracao: 168120 Nota: C1 Vol.: 49
Chanel 9 Note Off - Duracao: 168120 Nota: C1 Vol.: 89
Chanel 9 Note On - Duracao: 168120 Nota: C1 Vol.: 87
Chanel 4 Note Off - Duracao: 168300 Nota: C1 Vol.: 55
Chanel 4 Note On - Duracao: 168300 Nota: C1 Vol.: 59
Chanel 8 Note Off - Duracao: 168360 Nota: C1 Vol.: 73
Chanel 8 Note On - Duracao: 168360 Nota: C1 Vol.: 75
Chanel 7 Note Off - Duracao: 168600 Nota: C1 Vol.: 49
Chanel 7 Note On - Duracao: 168600 Nota: C1 Vol.: 48
Chanel 10 Note Off - Duracao: 168600 Nota: C1 Vol.: 68
Chanel 10 Note On - Duracao: 168600 Nota: C1 Vol.: 61
Chanel 6 Note Off - Duracao: 168840 Nota: C1 Vol.: 81
Chanel 6 Note On - Duracao: 168840 Nota: C1 Vol.: 81
Chanel 8 Note Off - Duracao: 168840 Nota: C1 Vol.: 75
Chanel 8 Note On - Duracao: 168840 Nota: C1 Vol.: 55
Chanel 5 Note Off - Duracao: 168960 Nota: C1 Vol.: 63
Chanel 5 Note On - Duracao: 168960 Nota: C1 Vol.: 58
Chanel 7 Note Off - Duracao: 169080 Nota: C1 Vol.: 48
Chanel 7 Note On - Duracao: 169080 Nota: C1 Vol.: 48
Chanel 7 Note Off - Duracao: 169560 Nota: C1 Vol.: 48
Chanel 7 Note On - Duracao: 169560 Nota: C1 Vol.: 49
Chanel 3 Note Off - Duracao: 169860 Nota: C1 Vol.: 46
Chanel 3 Note On - Duracao: 169860 Nota: C1 Vol.: 69
Chanel 7 Note Off - Duracao: 170040 Nota: C1 Vol.: 49
Chanel 7 Note On - Duracao: 170040 Nota: C1 Vol.: 44
Chanel 9 Note Off - Duracao: 170040 Nota: C1 Vol.: 87
Chanel 9 Note On - Duracao: 170040 Nota: C1 Vol.: 88
Chanel 4 Note Off - Duracao: 170220 Nota: C1 Vol.: 59
Chanel 4 Note On - Duracao: 170220 Nota: C1 Vol.: 70
Chanel 10 Note Off - Duracao: 170520 Nota: C1 Vol.: 61
Chanel 10 Note On - Duracao: 170520 Nota: C1 Vol.: 60
Chanel 2 Note Off - Duracao: 170640 Nota: C1 Vol.: 92
Chanel 2 Note On - Duracao: 170640 Nota: C1 Vol.: 93
Chanel 6 Note Off - Duracao: 170760 Nota: C1 Vol.: 81
Chanel 6 Note On - Duracao: 170760 Nota: C1 Vol.: 83
Chanel 8 Note Off - Duracao: 170760 Nota: C1 Vol.: 55
Chanel 8 Note On - Duracao: 170760 Nota: C1 Vol.: 57
Chanel 3 Note Off - Duracao: 170820 Nota: C1 Vol.: 69
Chanel 3 Note On - Duracao: 170820 Nota: C1 Vol.: 65
Chanel 5 Note Off - Duracao: 170880 Nota: C1 Vol.: 58
Chanel 5 Note On - Duracao: 170880 Nota: C1 Vol.: 62
Chanel 7 Note Off - Duracao: 171000 Nota: C1 Vol.: 44
Chanel 7 Note On - Duracao: 171000 Nota: C1 Vol.: 41
Chanel 4 Note Off - Duracao: 171180 Nota: C1 Vol.: 70
Chanel 4 Note On - Duracao: 171180 Nota: C1 Vol.: 73
Chanel 3 Note Off - Duracao: 171780 Nota: C1 Vol.: 65
Chanel 3 Note On - Duracao: 171780 Nota: C1 Vol.: 93
Chanel 1 Note Off - Duracao: 171900 Nota: C1 Vol.: 92
Chanel 1 Note On - Duracao: 171900 Nota: C1 Vol.: 94
Chanel 3 Note Off - Duracao: 171900 Nota: C1 Vol.: 93
Chanel 3 Note On - Duracao: 171900 Nota: C1 Vol.: 100
Chanel 3 Note Off - Duracao: 171960 Nota: C1 Vol.: 100
Chanel 3 Note On - Duracao: 171960 Nota: C1 Vol.: 100
Chanel 7 Note Off - Duracao: 171960 Nota: C1 Vol.: 41
Chanel 7 Note On - Duracao: 171960 Nota: C1 Vol.: 42
Chanel 9 Note Off - Duracao: 171960 Nota: C1 Vol.: 88
Chanel 9 Note On - Duracao: 171960 Nota: C1 Vol.: 86
Chanel 3 Note Off - Duracao: 172020 Nota: C1 Vol.: 100
Chanel 3 Note On - Duracao: 172020 Nota: C1 Vol.: 89
Chanel 3 Note Off - Duracao: 172140 Nota: C1 Vol.: 89
Chanel 3 Note On - Duracao: 172140 Nota: C1 Vol.: 50
Chanel 4 Note Off - Duracao: 172140 Nota: C1 Vol.: 73
Chanel 4 Note On - Duracao: 172140 Nota: C1 Vol.: 48
Chanel 10 Note Off - Duracao: 172440 Nota: C1 Vol.: 60
Chanel 10 Note On - Duracao: 172440 Nota: C1 Vol.: 69
Chanel 6 Note Off - Duracao: 172680 Nota: C1 Vol.: 83
Chanel 6 Note On - Duracao: 172680 Nota: C1 Vol.: 78
Chanel 8 Note Off - Duracao: 172680 Nota: C1 Vol.: 57
Chanel 8 Note On - Duracao: 172680 Nota: C1 Vol.: 57
Chanel 5 Note Off - Duracao: 172800 Nota: C1 Vol.: 62
Chanel 5 Note On - Duracao: 172800 Nota: C1 Vol.: 73
Chanel 7 Note Off - Duracao: 172920 Nota: C1 Vol.: 42
Chanel 7 Note On - Duracao: 172920 Nota: C1 Vol.: 46
Chanel 10 Note Off - Duracao: 173400 Nota: C1 Vol.: 69
Chanel 10 Note On - Duracao: 173400 Nota: C1 Vol.: 61
Chanel 5 Note Off - Duracao: 173760 Nota: C1 Vol.: 73
Chanel 5 Note On - Duracao: 173760 Nota: C1 Vol.: 67
Chanel 1 Note Off - Duracao: 173820 Nota: C1 Vol.: 94
Chanel 1 Note On - Duracao: 173820 Nota: C1 Vol.: 93
Chanel 7 Note Off - Duracao: 173880 Nota: C1 Vol.: 46
Chanel 7 Note On - Duracao: 173880 Nota: C1 Vol.: 46
Chanel 9 Note Off - Duracao: 173880 Nota: C1 Vol.: 86
Chanel 9 Note On - Duracao: 173880 Nota: C1 Vol.: 85
Chanel 3 Note Off - Duracao: 174060 Nota: C1 Vol.: 50
Chanel 3 Note On - Duracao: 174060 Nota: C1 Vol.: 46
Chanel 2 Note Off - Duracao: 174480 Nota: C1 Vol.: 93
Chanel 2 Note On - Duracao: 174480 Nota: C1 Vol.: 92
Chanel 6 Note Off - Duracao: 174600 Nota: C1 Vol.: 78
Chanel 6 Note On - Duracao: 174600 Nota: C1 Vol.: 66
Chanel 8 Note Off - Duracao: 174600 Nota: C1 Vol.: 57
Chanel 8 Note On - Duracao: 174600 Nota: C1 Vol.: 53
Chanel 10 Note Off - Duracao: 175320 Nota: C1 Vol.: 61
Chanel 10 Note On - Duracao: 175320 Nota: C1 Vol.: 63
Chanel 5 Note Off - Duracao: 175680 Nota: C1 Vol.: 67
Chanel 5 Note On - Duracao: 175680 Nota: C1 Vol.: 68
Chanel 1 Note Off - Duracao: 175740 Nota: C1 Vol.: 93
Chanel 1 Note On - Duracao: 175740 Nota: C1 Vol.: 91
Chanel 7 Note Off - Duracao: 175800 Nota: C1 Vol.: 46
Chanel 7 Note On - Duracao: 175800 Nota: C1 Vol.: 44
Chanel 9 Note Off - Duracao: 175800 Nota: C1 Vol.: 85
Chanel 9 Note On - Duracao: 175800 Nota: C1 Vol.: 84
Chanel 4 Note Off - Duracao: 175980 Nota: C1 Vol.: 48
Chanel 4 Note On - Duracao: 175980 Nota: C1 Vol.: 56
Chanel 10 Note Off - Duracao: 176280 Nota: C1 Vol.: 63
Chanel 10 Note On - Duracao: 176280 Nota: C1 Vol.: 72
Chanel 8 Note Off - Duracao: 176520 Nota: C1 Vol.: 53
Chanel 8 Note On - Duracao: 176520 Nota: C1 Vol.: 48
Chanel 5 Note Off - Duracao: 176640 Nota: C1 Vol.: 68
Chanel 5 Note On - Duracao: 176640 Nota: C1 Vol.: 67
Chanel 10 Note Off - Duracao: 177240 Nota: C1 Vol.: 72
Chanel 10 Note On - Duracao: 177240 Nota: C1 Vol.: 63
Chanel 1 Note Off - Duracao: 177660 Nota: C1 Vol.: 91
Chanel 1 Note On - Duracao: 177660 Nota: C1 Vol.: 89
Chanel 9 Note Off - Duracao: 177720 Nota: C1 Vol.: 84
Chanel 9 Note On - Duracao: 177720 Nota: C1 Vol.: 81
Chanel 3 Note Off - Duracao: 177900 Nota: C1 Vol.: 46
Chanel 3 Note On - Duracao: 177900 Nota: C1 Vol.: 56
Chanel 4 Note Off - Duracao: 177900 Nota: C1 Vol.: 56
Chanel 4 Note On - Duracao: 177900 Nota: C1 Vol.: 66
Chanel 10 Note Off - Duracao: 178200 Nota: C1 Vol.: 63
Chanel 10 Note On - Duracao: 178200 Nota: C1 Vol.: 67
Chanel 2 Note Off - Duracao: 178320 Nota: C1 Vol.: 92
Chanel 2 Note On - Duracao: 178320 Nota: C1 Vol.: 92
Chanel 6 Note Off - Duracao: 178440 Nota: C1 Vol.: 66
Chanel 6 Note On - Duracao: 178440 Nota: C1 Vol.: 58
Chanel 8 Note Off - Duracao: 178440 Nota: C1 Vol.: 48
Chanel 8 Note On - Duracao: 178440 Nota: C1 Vol.: 46
Chanel 5 Note Off - Duracao: 178560 Nota: C1 Vol.: 67
Chanel 5 Note On - Duracao: 178560 Nota: C1 Vol.: 68
Chanel 1 Note Off - Duracao: 178620 Nota: C1 Vol.: 89
Chanel 1 Note On - Duracao: 178620 Nota: C1 Vol.: 87
Chanel 4 Note Off - Duracao: 178860 Nota: C1 Vol.: 66
Chanel 4 Note On - Duracao: 178860 Nota: C1 Vol.: 71
Chanel 10 Note Off - Duracao: 179160 Nota: C1 Vol.: 67
Chanel 10 Note On - Duracao: 179160 Nota: C1 Vol.: 65
Chanel 4 Note Off - Duracao: 179340 Nota: C1 Vol.: 71
Chanel 4 Note On - Duracao: 179340 Nota: C1 Vol.: 42
Chanel 5 Note Off - Duracao: 179520 Nota: C1 Vol.: 68
Chanel 5 Note On - Duracao: 179520 Nota: C1 Vol.: 59
Chanel 1 Note Off - Duracao: 179580 Nota: C1 Vol.: 87
Chanel 1 Note On - Duracao: 179580 Nota: C1 Vol.: 67
Chanel 7 Note Off - Duracao: 179640 Nota: C1 Vol.: 44
Chanel 7 Note On - Duracao: 179640 Nota: C1 Vol.: 47
Chanel 9 Note Off - Duracao: 179640 Nota: C1 Vol.: 81
Chanel 9 Note On - Duracao: 179640 Nota: C1 Vol.: 73
Chanel 3 Note Off - Duracao: 179820 Nota: C1 Vol.: 56
Chanel 3 Note On - Duracao: 179820 Nota: C1 Vol.: 64
Chanel 10 Note Off - Duracao: 180120 Nota: C1 Vol.: 65
Chanel 10 Note On - Duracao: 180120 Nota: C1 Vol.: 76
Chanel 2 Note Off - Duracao: 180240 Nota: C1 Vol.: 92
Chanel 2 Note On - Duracao: 180240 Nota: C1 Vol.: 90
Chanel 8 Note Off - Duracao: 180360 Nota: C1 Vol.: 46
Chanel 8 Note On - Duracao: 180360 Nota: C1 Vol.: 46
Chanel 10 Note Off - Duracao: 180600 Nota: C1 Vol.: 76
Chanel 10 Note On - Duracao: 180600 Nota: C1 Vol.: 66
Chanel 2 Note Off - Duracao: 181200 Nota: C1 Vol.: 90
Chanel 2 Note On - Duracao: 181200 Nota: C1 Vol.: 58
Chanel 5 Note Off - Duracao: 181440 Nota: C1 Vol.: 59
Chanel 5 Note On - Duracao: 181440 Nota: C1 Vol.: 57
Chanel 1 Note Off - Duracao: 181500 Nota: C1 Vol.: 67
Chanel 1 Note On - Duracao: 181500 Nota: C1 Vol.: 51
Chanel 10 Note Off - Duracao: 181560 Nota: C1 Vol.: 66
Chanel 10 Note On - Duracao: 181560 Nota: C1 Vol.: 72
Chanel 3 Note Off - Duracao: 181740 Nota: C1 Vol.: 64
Chanel 3 Note On - Duracao: 181740 Nota: C1 Vol.: 77
Chanel 6 Note Off - Duracao: 182280 Nota: C1 Vol.: 58
Chanel 6 Note On - Duracao: 182280 Nota: C1 Vol.: 54
Chanel 8 Note Off - Duracao: 182280 Nota: C1 Vol.: 46
Chanel 8 Note On - Duracao: 182280 Nota: C1 Vol.: 44
Chanel 10 Note Off - Duracao: 182520 Nota: C1 Vol.: 72
Chanel 10 Note On - Duracao: 182520 Nota: C1 Vol.: 68
Chanel 3 Note Off - Duracao: 182700 Nota: C1 Vol.: 77
Chanel 3 Note On - Duracao: 182700 Nota: C1 Vol.: 75
Chanel 4 Note Off - Duracao: 183180 Nota: C1 Vol.: 42
Chanel 4 Note On - Duracao: 183180 Nota: C1 Vol.: 55
Chanel 8 Note Off - Duracao: 183240 Nota: C1 Vol.: 44
Chanel 8 Note On - Duracao: 183240 Nota: C1 Vol.: 43
Chanel 5 Note Off - Duracao: 183360 Nota: C1 Vol.: 57
Chanel 5 Note On - Duracao: 183360 Nota: C1 Vol.: 56
Chanel 7 Note Off - Duracao: 183480 Nota: C1 Vol.: 47
Chanel 7 Note On - Duracao: 183480 Nota: C1 Vol.: 50
Chanel 9 Note Off - Duracao: 183480 Nota: C1 Vol.: 73
Chanel 9 Note On - Duracao: 183480 Nota: C1 Vol.: 69
Chanel 10 Note Off - Duracao: 183480 Nota: C1 Vol.: 68
Chanel 10 Note On - Duracao: 183480 Nota: C1 Vol.: 61
Chanel 3 Note Off - Duracao: 183660 Nota: C1 Vol.: 75
Chanel 3 Note On - Duracao: 183660 Nota: C1 Vol.: 72
Chanel 4 Note Off - Duracao: 184140 Nota: C1 Vol.: 55
Chanel 4 Note On - Duracao: 184140 Nota: C1 Vol.: 55
Chanel 8 Note Off - Duracao: 184200 Nota: C1 Vol.: 43
Chanel 8 Note On - Duracao: 184200 Nota: C1 Vol.: 46
Chanel 10 Note Off - Duracao: 184440 Nota: C1 Vol.: 61
Chanel 10 Note On - Duracao: 184440 Nota: C1 Vol.: 75
Chanel 3 Note Off - Duracao: 184620 Nota: C1 Vol.: 72
Chanel 3 Note On - Duracao: 184620 Nota: C1 Vol.: 70
Chanel 4 Note Off - Duracao: 184620 Nota: C1 Vol.: 55
Chanel 4 Note On - Duracao: 184620 Nota: C1 Vol.: 53
Chanel 10 Note Off - Duracao: 184920 Nota: C1 Vol.: 75
Chanel 10 Note On - Duracao: 184920 Nota: C1 Vol.: 68
Chanel 2 Note Off - Duracao: 185040 Nota: C1 Vol.: 58
Chanel 2 Note On - Duracao: 185040 Nota: C1 Vol.: 67
Chanel 4 Note Off - Duracao: 185100 Nota: C1 Vol.: 53
Chanel 4 Note On - Duracao: 185100 Nota: C1 Vol.: 54
Chanel 8 Note Off - Duracao: 185160 Nota: C1 Vol.: 46
Chanel 8 Note On - Duracao: 185160 Nota: C1 Vol.: 53
Chanel 5 Note Off - Duracao: 185280 Nota: C1 Vol.: 56
Chanel 5 Note On - Duracao: 185280 Nota: C1 Vol.: 57
Chanel 1 Note Off - Duracao: 185340 Nota: C1 Vol.: 51
Chanel 1 Note On - Duracao: 185340 Nota: C1 Vol.: 83
Chanel 1 Note Off - Duracao: 185580 Nota: C1 Vol.: 83
Chanel 1 Note On - Duracao: 185580 Nota: C1 Vol.: 96
Chanel 3 Note Off - Duracao: 185580 Nota: C1 Vol.: 70
Chanel 3 Note On - Duracao: 185580 Nota: C1 Vol.: 76
Chanel 4 Note Off - Duracao: 185580 Nota: C1 Vol.: 54
Chanel 4 Note On - Duracao: 185580 Nota: C1 Vol.: 57
Chanel 1 Note Off - Duracao: 185700 Nota: C1 Vol.: 96
Chanel 1 Note On - Duracao: 185700 Nota: C1 Vol.: 96
Chanel 1 Note Off - Duracao: 185820 Nota: C1 Vol.: 96
Chanel 1 Note On - Duracao: 185820 Nota: C1 Vol.: 83
Chanel 10 Note Off - Duracao: 185880 Nota: C1 Vol.: 68
Chanel 10 Note On - Duracao: 185880 Nota: C1 Vol.: 71
Chanel 2 Note Off - Duracao: 186000 Nota: C1 Vol.: 67
Chanel 2 Note On - Duracao: 186000 Nota: C1 Vol.: 70
Chanel 1 Note Off - Duracao: 186060 Nota: C1 Vol.: 83
Chanel 1 Note On - Duracao: 186060 Nota: C1 Vol.: 83
Chanel 3 Note Off - Duracao: 186060 Nota: C1 Vol.: 76
Chanel 3 Note On - Duracao: 186060 Nota: C1 Vol.: 54
Chanel 4 Note Off - Duracao: 186060 Nota: C1 Vol.: 57
Chanel 4 Note On - Duracao: 186060 Nota: C1 Vol.: 61
Chanel 6 Note Off - Duracao: 186120 Nota: C1 Vol.: 54
Chanel 6 Note On - Duracao: 186120 Nota: C1 Vol.: 55
Chanel 8 Note Off - Duracao: 186120 Nota: C1 Vol.: 53
Chanel 8 Note On - Duracao: 186120 Nota: C1 Vol.: 51
Chanel 1 Note Off - Duracao: 186300 Nota: C1 Vol.: 83
Chanel 1 Note On - Duracao: 186300 Nota: C1 Vol.: 81
Chanel 4 Note Off - Duracao: 186300 Nota: C1 Vol.: 61
Chanel 4 Note On - Duracao: 186300 Nota: C1 Vol.: 61
Chanel 1 Note Off - Duracao: 186540 Nota: C1 Vol.: 81
Chanel 1 Note On - Duracao: 186540 Nota: C1 Vol.: 83
Chanel 4 Note Off - Duracao: 186540 Nota: C1 Vol.: 61
Chanel 4 Note On - Duracao: 186540 Nota: C1 Vol.: 61
Chanel 1 Note Off - Duracao: 186780 Nota: C1 Vol.: 83
Chanel 1 Note On - Duracao: 186780 Nota: C1 Vol.: 88
Chanel 4 Note Off - Duracao: 186780 Nota: C1 Vol.: 61
Chanel 4 Note On - Duracao: 186780 Nota: C1 Vol.: 60
Chanel 10 Note Off - Duracao: 186840 Nota: C1 Vol.: 71
Chanel 10 Note On - Duracao: 186840 Nota: C1 Vol.: 71
Chanel 1 Note Off - Duracao: 186900 Nota: C1 Vol.: 88
Chanel 1 Note On - Duracao: 186900 Nota: C1 Vol.: 88
Chanel 2 Note Off - Duracao: 186960 Nota: C1 Vol.: 70
Chanel 2 Note On - Duracao: 186960 Nota: C1 Vol.: 78
Chanel 1 Note Off - Duracao: 187020 Nota: C1 Vol.: 88
Chanel 1 Note On - Duracao: 187020 Nota: C1 Vol.: 87
Chanel 4 Note Off - Duracao: 187020 Nota: C1 Vol.: 60
Chanel 4 Note On - Duracao: 187020 Nota: C1 Vol.: 60
Chanel 8 Note Off - Duracao: 187080 Nota: C1 Vol.: 51
Chanel 8 Note On - Duracao: 187080 Nota: C1 Vol.: 50
Chanel 1 Note Off - Duracao: 187140 Nota: C1 Vol.: 87
Chanel 1 Note On - Duracao: 187140 Nota: C1 Vol.: 87
Chanel 5 Note Off - Duracao: 187200 Nota: C1 Vol.: 57
Chanel 5 Note On - Duracao: 187200 Nota: C1 Vol.: 63
Chanel 1 Note Off - Duracao: 187260 Nota: C1 Vol.: 87
Chanel 1 Note On - Duracao: 187260 Nota: C1 Vol.: 95
Chanel 4 Note Off - Duracao: 187260 Nota: C1 Vol.: 60
Chanel 4 Note On - Duracao: 187260 Nota: C1 Vol.: 57
Chanel 7 Note Off - Duracao: 187320 Nota: C1 Vol.: 50
Chanel 7 Note On - Duracao: 187320 Nota: C1 Vol.: 50
Chanel 9 Note Off - Duracao: 187320 Nota: C1 Vol.: 69
Chanel 9 Note On - Duracao: 187320 Nota: C1 Vol.: 71
Chanel 1 Note Off - Duracao: 187380 Nota: C1 Vol.: 95
Chanel 1 Note On - Duracao: 187380 Nota: C1 Vol.: 96
Chanel 1 Note Off - Duracao: 187440 Nota: C1 Vol.: 96
Chanel 1 Note On - Duracao: 187440 Nota: C1 Vol.: 91
Chanel 2 Note Off - Duracao: 187440 Nota: C1 Vol.: 78
Chanel 2 Note On - Duracao: 187440 Nota: C1 Vol.: 80
Chanel 1 Note Off - Duracao: 187560 Nota: C1 Vol.: 91
Chanel 1 Note On - Duracao: 187560 Nota: C1 Vol.: 95
Chanel 1 Note Off - Duracao: 187620 Nota: C1 Vol.: 95
Chanel 1 Note On - Duracao: 187620 Nota: C1 Vol.: 89
Chanel 1 Note Off - Duracao: 187740 Nota: C1 Vol.: 89
Chanel 1 Note On - Duracao: 187740 Nota: C1 Vol.: 83
Chanel 4 Note Off - Duracao: 187740 Nota: C1 Vol.: 57
Chanel 4 Note On - Duracao: 187740 Nota: C1 Vol.: 58
Chanel 10 Note Off - Duracao: 187800 Nota: C1 Vol.: 71
Chanel 10 Note On - Duracao: 187800 Nota: C1 Vol.: 64
Chanel 2 Note Off - Duracao: 187920 Nota: C1 Vol.: 80
Chanel 2 Note On - Duracao: 187920 Nota: C1 Vol.: 77
Chanel 1 Note Off - Duracao: 187980 Nota: C1 Vol.: 83
Chanel 1 Note On - Duracao: 187980 Nota: C1 Vol.: 96
Chanel 3 Note Off - Duracao: 187980 Nota: C1 Vol.: 54
Chanel 3 Note On - Duracao: 187980 Nota: C1 Vol.: 44
Chanel 8 Note Off - Duracao: 188040 Nota: C1 Vol.: 50
Chanel 8 Note On - Duracao: 188040 Nota: C1 Vol.: 43
Chanel 1 Note Off - Duracao: 188100 Nota: C1 Vol.: 96
Chanel 1 Note On - Duracao: 188100 Nota: C1 Vol.: 94
Chanel 1 Note Off - Duracao: 188220 Nota: C1 Vol.: 94
Chanel 1 Note On - Duracao: 188220 Nota: C1 Vol.: 94
Chanel 4 Note Off - Duracao: 188220 Nota: C1 Vol.: 58
Chanel 4 Note On - Duracao: 188220 Nota: C1 Vol.: 62
Chanel 1 Note Off - Duracao: 188340 Nota: C1 Vol.: 94
Chanel 1 Note On - Duracao: 188340 Nota: C1 Vol.: 95
Chanel 2 Note Off - Duracao: 188400 Nota: C1 Vol.: 77
Chanel 2 Note On - Duracao: 188400 Nota: C1 Vol.: 78
Chanel 1 Note Off - Duracao: 188460 Nota: C1 Vol.: 95
Chanel 1 Note On - Duracao: 188460 Nota: C1 Vol.: 87
Chanel 1 Note Off - Duracao: 188700 Nota: C1 Vol.: 87
Chanel 1 Note On - Duracao: 188700 Nota: C1 Vol.: 91
Chanel 4 Note Off - Duracao: 188700 Nota: C1 Vol.: 62
Chanel 4 Note On - Duracao: 188700 Nota: C1 Vol.: 62
Chanel 10 Note Off - Duracao: 188760 Nota: C1 Vol.: 64
Chanel 10 Note On - Duracao: 188760 Nota: C1 Vol.: 62
Chanel 1 Note Off - Duracao: 188820 Nota: C1 Vol.: 91
Chanel 1 Note On - Duracao: 188820 Nota: C1 Vol.: 97
Chanel 1 Note Off - Duracao: 188880 Nota: C1 Vol.: 97
Chanel 1 Note On - Duracao: 188880 Nota: C1 Vol.: 94
Chanel 2 Note Off - Duracao: 188880 Nota: C1 Vol.: 78
Chanel 2 Note On - Duracao: 188880 Nota: C1 Vol.: 82
Chanel 1 Note Off - Duracao: 189000 Nota: C1 Vol.: 94
Chanel 1 Note On - Duracao: 189000 Nota: C1 Vol.: 97
Chanel 1 Note Off - Duracao: 189060 Nota: C1 Vol.: 97
Chanel 1 Note On - Duracao: 189060 Nota: C1 Vol.: 98
Chanel 1 Note Off - Duracao: 189120 Nota: C1 Vol.: 98
Chanel 1 Note On - Duracao: 189120 Nota: C1 Vol.: 96
Chanel 2 Note Off - Duracao: 189120 Nota: C1 Vol.: 82
Chanel 2 Note On - Duracao: 189120 Nota: C1 Vol.: 83
Chanel 5 Note Off - Duracao: 189120 Nota: C1 Vol.: 63
Chanel 5 Note On - Duracao: 189120 Nota: C1 Vol.: 75
Chanel 1 Note Off - Duracao: 189180 Nota: C1 Vol.: 96
Chanel 1 Note On - Duracao: 189180 Nota: C1 Vol.: 95
Chanel 4 Note Off - Duracao: 189180 Nota: C1 Vol.: 62
Chanel 4 Note On - Duracao: 189180 Nota: C1 Vol.: 62
Chanel 1 Note Off - Duracao: 189240 Nota: C1 Vol.: 95
Chanel 1 Note On - Duracao: 189240 Nota: C1 Vol.: 97
Chanel 9 Note Off - Duracao: 189240 Nota: C1 Vol.: 71
Chanel 9 Note On - Duracao: 189240 Nota: C1 Vol.: 73
Chanel 1 Note Off - Duracao: 189300 Nota: C1 Vol.: 97
Chanel 1 Note On - Duracao: 189300 Nota: C1 Vol.: 96
Chanel 1 Note Off - Duracao: 189360 Nota: C1 Vol.: 96
Chanel 1 Note On - Duracao: 189360 Nota: C1 Vol.: 95
Chanel 2 Note Off - Duracao: 189360 Nota: C1 Vol.: 83
Chanel 2 Note On - Duracao: 189360 Nota: C1 Vol.: 79
Chanel 1 Note Off - Duracao: 189420 Nota: C1 Vol.: 95
Chanel 1 Note On - Duracao: 189420 Nota: C1 Vol.: 96
Chanel 1 Note Off - Duracao: 189480 Nota: C1 Vol.: 96
Chanel 1 Note On - Duracao: 189480 Nota: C1 Vol.: 96
Chanel 1 Note Off - Duracao: 189540 Nota: C1 Vol.: 96
Chanel 1 Note On - Duracao: 189540 Nota: C1 Vol.: 96
Chanel 1 Note Off - Duracao: 189600 Nota: C1 Vol.: 96
Chanel 1 Note On - Duracao: 189600 Nota: C1 Vol.: 95
Chanel 1 Note Off - Duracao: 189660 Nota: C1 Vol.: 95
Chanel 1 Note On - Duracao: 189660 Nota: C1 Vol.: 94
Chanel 4 Note Off - Duracao: 189660 Nota: C1 Vol.: 62
Chanel 4 Note On - Duracao: 189660 Nota: C1 Vol.: 43
Chanel 1 Note Off - Duracao: 189720 Nota: C1 Vol.: 94
Chanel 1 Note On - Duracao: 189720 Nota: C1 Vol.: 95
Chanel 1 Note Off - Duracao: 189780 Nota: C1 Vol.: 95
Chanel 1 Note On - Duracao: 189780 Nota: C1 Vol.: 98
Chanel 1 Note Off - Duracao: 189840 Nota: C1 Vol.: 98
Chanel 1 Note On - Duracao: 189840 Nota: C1 Vol.: 98
Chanel 2 Note Off - Duracao: 189840 Nota: C1 Vol.: 79
Chanel 2 Note On - Duracao: 189840 Nota: C1 Vol.: 79
Chanel 1 Note Off - Duracao: 189900 Nota: C1 Vol.: 98
Chanel 1 Note On - Duracao: 189900 Nota: C1 Vol.: 95
Chanel 1 Note Off - Duracao: 189960 Nota: C1 Vol.: 95
Chanel 1 Note On - Duracao: 189960 Nota: C1 Vol.: 95
Chanel 6 Note Off - Duracao: 189960 Nota: C1 Vol.: 55
Chanel 6 Note On - Duracao: 189960 Nota: C1 Vol.: 56
Chanel 8 Note Off - Duracao: 189960 Nota: C1 Vol.: 43
Chanel 8 Note On - Duracao: 189960 Nota: C1 Vol.: 54
Chanel 1 Note Off - Duracao: 190020 Nota: C1 Vol.: 95
Chanel 1 Note On - Duracao: 190020 Nota: C1 Vol.: 99
Chanel 1 Note Off - Duracao: 190080 Nota: C1 Vol.: 99
Chanel 1 Note On - Duracao: 190080 Nota: C1 Vol.: 97
Chanel 2 Note Off - Duracao: 190080 Nota: C1 Vol.: 79
Chanel 2 Note On - Duracao: 190080 Nota: C1 Vol.: 79
Chanel 5 Note Off - Duracao: 190080 Nota: C1 Vol.: 75
Chanel 5 Note On - Duracao: 190080 Nota: C1 Vol.: 66
Chanel 1 Note Off - Duracao: 190140 Nota: C1 Vol.: 97
Chanel 1 Note On - Duracao: 190140 Nota: C1 Vol.: 94
Chanel 1 Note Off - Duracao: 190200 Nota: C1 Vol.: 94
Chanel 1 Note On - Duracao: 190200 Nota: C1 Vol.: 88
Chanel 9 Note Off - Duracao: 190200 Nota: C1 Vol.: 73
Chanel 9 Note On - Duracao: 190200 Nota: C1 Vol.: 54
Chanel 1 Note Off - Duracao: 190320 Nota: C1 Vol.: 88
Chanel 1 Note On - Duracao: 190320 Nota: C1 Vol.: 95
Chanel 1 Note Off - Duracao: 190380 Nota: C1 Vol.: 95
Chanel 1 Note On - Duracao: 190380 Nota: C1 Vol.: 95
Chanel 1 Note Off - Duracao: 190440 Nota: C1 Vol.: 95
Chanel 1 Note On - Duracao: 190440 Nota: C1 Vol.: 91
Chanel 1 Note Off - Duracao: 190560 Nota: C1 Vol.: 91
Chanel 1 Note On - Duracao: 190560 Nota: C1 Vol.: 89
Chanel 2 Note Off - Duracao: 190560 Nota: C1 Vol.: 79
Chanel 2 Note On - Duracao: 190560 Nota: C1 Vol.: 77
Chanel 1 Note Off - Duracao: 190680 Nota: C1 Vol.: 89
Chanel 1 Note On - Duracao: 190680 Nota: C1 Vol.: 82
Chanel 10 Note Off - Duracao: 190680 Nota: C1 Vol.: 62
Chanel 10 Note On - Duracao: 190680 Nota: C1 Vol.: 54
Chanel 1 Note Off - Duracao: 191160 Nota: C1 Vol.: 82
Chanel 1 Note On - Duracao: 191160 Nota: C1 Vol.: 79
Chanel 7 Note Off - Duracao: 191160 Nota: C1 Vol.: 50
Chanel 7 Note On - Duracao: 191160 Nota: C1 Vol.: 62
Chanel 2 Note Off - Duracao: 191520 Nota: C1 Vol.: 77
Chanel 2 Note On - Duracao: 191520 Nota: C1 Vol.: 82
Chanel 3 Note Off - Duracao: 191820 Nota: C1 Vol.: 44
Chanel 3 Note On - Duracao: 191820 Nota: C1 Vol.: 47
Chanel 8 Note Off - Duracao: 191880 Nota: C1 Vol.: 54
Chanel 8 Note On - Duracao: 191880 Nota: C1 Vol.: 57
Chanel 5 Note Off - Duracao: 192000 Nota: C1 Vol.: 66
Chanel 5 Note On - Duracao: 192000 Nota: C1 Vol.: 70
Chanel 1 Note Off - Duracao: 192120 Nota: C1 Vol.: 79
Chanel 1 Note On - Duracao: 192120 Nota: C1 Vol.: 85
Chanel 7 Note Off - Duracao: 192120 Nota: C1 Vol.: 62
Chanel 7 Note On - Duracao: 192120 Nota: C1 Vol.: 68
Chanel 2 Note Off - Duracao: 192480 Nota: C1 Vol.: 82
Chanel 2 Note On - Duracao: 192480 Nota: C1 Vol.: 89
Chanel 2 Note Off - Duracao: 192960 Nota: C1 Vol.: 89
Chanel 2 Note On - Duracao: 192960 Nota: C1 Vol.: 92
Chanel 5 Note Off - Duracao: 192960 Nota: C1 Vol.: 70
Chanel 5 Note On - Duracao: 192960 Nota: C1 Vol.: 55
Chanel 1 Note Off - Duracao: 193080 Nota: C1 Vol.: 85
Chanel 1 Note On - Duracao: 193080 Nota: C1 Vol.: 84
Chanel 7 Note Off - Duracao: 193080 Nota: C1 Vol.: 68
Chanel 7 Note On - Duracao: 193080 Nota: C1 Vol.: 66
Chanel 2 Note Off - Duracao: 193440 Nota: C1 Vol.: 92
Chanel 2 Note On - Duracao: 193440 Nota: C1 Vol.: 87
Chanel 4 Note Off - Duracao: 193500 Nota: C1 Vol.: 43
Chanel 4 Note On - Duracao: 193500 Nota: C1 Vol.: 44
Chanel 6 Note Off - Duracao: 193800 Nota: C1 Vol.: 56
Chanel 6 Note On - Duracao: 193800 Nota: C1 Vol.: 61
Chanel 8 Note Off - Duracao: 193800 Nota: C1 Vol.: 57
Chanel 8 Note On - Duracao: 193800 Nota: C1 Vol.: 54
Chanel 2 Note Off - Duracao: 193920 Nota: C1 Vol.: 87
Chanel 2 Note On - Duracao: 193920 Nota: C1 Vol.: 79
Chanel 1 Note Off - Duracao: 194040 Nota: C1 Vol.: 84
Chanel 1 Note On - Duracao: 194040 Nota: C1 Vol.: 94
Chanel 7 Note Off - Duracao: 194040 Nota: C1 Vol.: 66
Chanel 7 Note On - Duracao: 194040 Nota: C1 Vol.: 63
Chanel 9 Note Off - Duracao: 194040 Nota: C1 Vol.: 54
Chanel 9 Note On - Duracao: 194040 Nota: C1 Vol.: 51
Chanel 1 Note Off - Duracao: 194520 Nota: C1 Vol.: 94
Chanel 1 Note On - Duracao: 194520 Nota: C1 Vol.: 93
Chanel 10 Note Off - Duracao: 194520 Nota: C1 Vol.: 54
Chanel 10 Note On - Duracao: 194520 Nota: C1 Vol.: 64
Chanel 2 Note Off - Duracao: 194880 Nota: C1 Vol.: 79
Chanel 2 Note On - Duracao: 194880 Nota: C1 Vol.: 95
Chanel 5 Note Off - Duracao: 194880 Nota: C1 Vol.: 55
Chanel 5 Note On - Duracao: 194880 Nota: C1 Vol.: 54
Chanel 2 Note Off - Duracao: 194940 Nota: C1 Vol.: 95
Chanel 2 Note On - Duracao: 194940 Nota: C1 Vol.: 95
Chanel 1 Note Off - Duracao: 195000 Nota: C1 Vol.: 93
Chanel 1 Note On - Duracao: 195000 Nota: C1 Vol.: 91
Chanel 2 Note Off - Duracao: 195000 Nota: C1 Vol.: 95
Chanel 2 Note On - Duracao: 195000 Nota: C1 Vol.: 86
Chanel 7 Note Off - Duracao: 195000 Nota: C1 Vol.: 63
Chanel 7 Note On - Duracao: 195000 Nota: C1 Vol.: 56
Chanel 2 Note Off - Duracao: 195120 Nota: C1 Vol.: 86
Chanel 2 Note On - Duracao: 195120 Nota: C1 Vol.: 78
Chanel 2 Note Off - Duracao: 195360 Nota: C1 Vol.: 78
Chanel 2 Note On - Duracao: 195360 Nota: C1 Vol.: 75
Chanel 1 Note Off - Duracao: 195480 Nota: C1 Vol.: 91
Chanel 1 Note On - Duracao: 195480 Nota: C1 Vol.: 91
Chanel 2 Note Off - Duracao: 195600 Nota: C1 Vol.: 75
Chanel 2 Note On - Duracao: 195600 Nota: C1 Vol.: 79
Chanel 3 Note Off - Duracao: 195660 Nota: C1 Vol.: 47
Chanel 3 Note On - Duracao: 195660 Nota: C1 Vol.: 64
Chanel 2 Note Off - Duracao: 195840 Nota: C1 Vol.: 79
Chanel 2 Note On - Duracao: 195840 Nota: C1 Vol.: 77
Chanel 1 Note Off - Duracao: 195960 Nota: C1 Vol.: 91
Chanel 1 Note On - Duracao: 195960 Nota: C1 Vol.: 81
Chanel 2 Note Off - Duracao: 196080 Nota: C1 Vol.: 77
Chanel 2 Note On - Duracao: 196080 Nota: C1 Vol.: 80
Chanel 2 Note Off - Duracao: 196320 Nota: C1 Vol.: 80
Chanel 2 Note On - Duracao: 196320 Nota: C1 Vol.: 75
Chanel 10 Note Off - Duracao: 196440 Nota: C1 Vol.: 64
Chanel 10 Note On - Duracao: 196440 Nota: C1 Vol.: 62
Chanel 2 Note Off - Duracao: 196560 Nota: C1 Vol.: 75
Chanel 2 Note On - Duracao: 196560 Nota: C1 Vol.: 75
Chanel 3 Note Off - Duracao: 196620 Nota: C1 Vol.: 64
Chanel 3 Note On - Duracao: 196620 Nota: C1 Vol.: 93
Chanel 3 Note Off - Duracao: 196740 Nota: C1 Vol.: 93
Chanel 3 Note On - Duracao: 196740 Nota: C1 Vol.: 98
Chanel 2 Note Off - Duracao: 196800 Nota: C1 Vol.: 75
Chanel 2 Note On - Duracao: 196800 Nota: C1 Vol.: 79
Chanel 3 Note Off - Duracao: 196800 Nota: C1 Vol.: 98
Chanel 3 Note On - Duracao: 196800 Nota: C1 Vol.: 96
Chanel 1 Note Off - Duracao: 196920 Nota: C1 Vol.: 81
Chanel 1 Note On - Duracao: 196920 Nota: C1 Vol.: 84
Chanel 3 Note Off - Duracao: 196920 Nota: C1 Vol.: 96
Chanel 3 Note On - Duracao: 196920 Nota: C1 Vol.: 98
Chanel 7 Note Off - Duracao: 196920 Nota: C1 Vol.: 56
Chanel 7 Note On - Duracao: 196920 Nota: C1 Vol.: 51
Chanel 3 Note Off - Duracao: 196980 Nota: C1 Vol.: 98
Chanel 3 Note On - Duracao: 196980 Nota: C1 Vol.: 76
Chanel 2 Note Off - Duracao: 197040 Nota: C1 Vol.: 79
Chanel 2 Note On - Duracao: 197040 Nota: C1 Vol.: 79
Chanel 2 Note Off - Duracao: 197280 Nota: C1 Vol.: 79
Chanel 2 Note On - Duracao: 197280 Nota: C1 Vol.: 77
Chanel 4 Note Off - Duracao: 197340 Nota: C1 Vol.: 44
Chanel 4 Note On - Duracao: 197340 Nota: C1 Vol.: 44
Chanel 1 Note Off - Duracao: 197400 Nota: C1 Vol.: 84
Chanel 1 Note On - Duracao: 197400 Nota: C1 Vol.: 80
Chanel 3 Note Off - Duracao: 197460 Nota: C1 Vol.: 76
Chanel 3 Note On - Duracao: 197460 Nota: C1 Vol.: 41
Chanel 2 Note Off - Duracao: 197520 Nota: C1 Vol.: 77
Chanel 2 Note On - Duracao: 197520 Nota: C1 Vol.: 76
Chanel 6 Note Off - Duracao: 197640 Nota: C1 Vol.: 61
Chanel 6 Note On - Duracao: 197640 Nota: C1 Vol.: 59
Chanel 8 Note Off - Duracao: 197640 Nota: C1 Vol.: 54
Chanel 8 Note On - Duracao: 197640 Nota: C1 Vol.: 65
Chanel 2 Note Off - Duracao: 197760 Nota: C1 Vol.: 76
Chanel 2 Note On - Duracao: 197760 Nota: C1 Vol.: 77
Chanel 1 Note Off - Duracao: 197880 Nota: C1 Vol.: 80
Chanel 1 Note On - Duracao: 197880 Nota: C1 Vol.: 77
Chanel 9 Note Off - Duracao: 197880 Nota: C1 Vol.: 51
Chanel 9 Note On - Duracao: 197880 Nota: C1 Vol.: 50
Chanel 2 Note Off - Duracao: 198000 Nota: C1 Vol.: 77
Chanel 2 Note On - Duracao: 198000 Nota: C1 Vol.: 71
Chanel 1 Note Off - Duracao: 198360 Nota: C1 Vol.: 77
Chanel 1 Note On - Duracao: 198360 Nota: C1 Vol.: 92
Chanel 10 Note Off - Duracao: 198360 Nota: C1 Vol.: 62
Chanel 10 Note On - Duracao: 198360 Nota: C1 Vol.: 65
Chanel 1 Note Off - Duracao: 198480 Nota: C1 Vol.: 92
Chanel 1 Note On - Duracao: 198480 Nota: C1 Vol.: 93
Chanel 2 Note Off - Duracao: 198480 Nota: C1 Vol.: 71
Chanel 2 Note On - Duracao: 198480 Nota: C1 Vol.: 72
Chanel 1 Note Off - Duracao: 198600 Nota: C1 Vol.: 93
Chanel 1 Note On - Duracao: 198600 Nota: C1 Vol.: 93
Chanel 1 Note Off - Duracao: 198720 Nota: C1 Vol.: 93
Chanel 1 Note On - Duracao: 198720 Nota: C1 Vol.: 93
Chanel 5 Note Off - Duracao: 198720 Nota: C1 Vol.: 54
Chanel 5 Note On - Duracao: 198720 Nota: C1 Vol.: 78
Chanel 7 Note Off - Duracao: 198840 Nota: C1 Vol.: 51
Chanel 7 Note On - Duracao: 198840 Nota: C1 Vol.: 46
Chanel 1 Note Off - Duracao: 198960 Nota: C1 Vol.: 93
Chanel 1 Note On - Duracao: 198960 Nota: C1 Vol.: 82
Chanel 2 Note Off - Duracao: 198960 Nota: C1 Vol.: 72
Chanel 2 Note On - Duracao: 198960 Nota: C1 Vol.: 77
Chanel 2 Note Off - Duracao: 199200 Nota: C1 Vol.: 77
Chanel 2 Note On - Duracao: 199200 Nota: C1 Vol.: 84
Chanel 5 Note Off - Duracao: 199200 Nota: C1 Vol.: 78
Chanel 5 Note On - Duracao: 199200 Nota: C1 Vol.: 83
Chanel 2 Note Off - Duracao: 199320 Nota: C1 Vol.: 84
Chanel 2 Note On - Duracao: 199320 Nota: C1 Vol.: 75
Chanel 1 Note Off - Duracao: 199440 Nota: C1 Vol.: 82
Chanel 1 Note On - Duracao: 199440 Nota: C1 Vol.: 75
Chanel 2 Note Off - Duracao: 199560 Nota: C1 Vol.: 75
Chanel 2 Note On - Duracao: 199560 Nota: C1 Vol.: 74
Chanel 8 Note Off - Duracao: 199560 Nota: C1 Vol.: 65
Chanel 8 Note On - Duracao: 199560 Nota: C1 Vol.: 72
Chanel 5 Note Off - Duracao: 199680 Nota: C1 Vol.: 83
Chanel 5 Note On - Duracao: 199680 Nota: C1 Vol.: 87
Chanel 2 Note Off - Duracao: 199800 Nota: C1 Vol.: 74
Chanel 2 Note On - Duracao: 199800 Nota: C1 Vol.: 79
Chanel 2 Note Off - Duracao: 200040 Nota: C1 Vol.: 79
Chanel 2 Note On - Duracao: 200040 Nota: C1 Vol.: 92
Chanel 2 Note Off - Duracao: 200160 Nota: C1 Vol.: 92
Chanel 2 Note On - Duracao: 200160 Nota: C1 Vol.: 95
Chanel 5 Note Off - Duracao: 200160 Nota: C1 Vol.: 87
Chanel 5 Note On - Duracao: 200160 Nota: C1 Vol.: 82
Chanel 2 Note Off - Duracao: 200280 Nota: C1 Vol.: 95
Chanel 2 Note On - Duracao: 200280 Nota: C1 Vol.: 97
Chanel 10 Note Off - Duracao: 200280 Nota: C1 Vol.: 65
Chanel 10 Note On - Duracao: 200280 Nota: C1 Vol.: 64
Chanel 2 Note Off - Duracao: 200340 Nota: C1 Vol.: 97
Chanel 2 Note On - Duracao: 200340 Nota: C1 Vol.: 86
Chanel 1 Note Off - Duracao: 200400 Nota: C1 Vol.: 75
Chanel 1 Note On - Duracao: 200400 Nota: C1 Vol.: 82
Chanel 2 Note Off - Duracao: 200460 Nota: C1 Vol.: 86
Chanel 2 Note On - Duracao: 200460 Nota: C1 Vol.: 89
Chanel 8 Note Off - Duracao: 200520 Nota: C1 Vol.: 72
Chanel 8 Note On - Duracao: 200520 Nota: C1 Vol.: 72
Chanel 2 Note Off - Duracao: 200580 Nota: C1 Vol.: 89
Chanel 2 Note On - Duracao: 200580 Nota: C1 Vol.: 80
Chanel 5 Note Off - Duracao: 200640 Nota: C1 Vol.: 82
Chanel 5 Note On - Duracao: 200640 Nota: C1 Vol.: 77
Chanel 1 Note Off - Duracao: 200880 Nota: C1 Vol.: 82
Chanel 1 Note On - Duracao: 200880 Nota: C1 Vol.: 76
Chanel 2 Note Off - Duracao: 201060 Nota: C1 Vol.: 80
Chanel 2 Note On - Duracao: 201060 Nota: C1 Vol.: 81
Chanel 5 Note Off - Duracao: 201120 Nota: C1 Vol.: 77
Chanel 5 Note On - Duracao: 201120 Nota: C1 Vol.: 65
Chanel 4 Note Off - Duracao: 201180 Nota: C1 Vol.: 44
Chanel 4 Note On - Duracao: 201180 Nota: C1 Vol.: 45
Chanel 3 Note Off - Duracao: 201300 Nota: C1 Vol.: 41
Chanel 3 Note On - Duracao: 201300 Nota: C1 Vol.: 47
Chanel 6 Note Off - Duracao: 201480 Nota: C1 Vol.: 59
Chanel 6 Note On - Duracao: 201480 Nota: C1 Vol.: 62
Chanel 8 Note Off - Duracao: 201480 Nota: C1 Vol.: 72
Chanel 8 Note On - Duracao: 201480 Nota: C1 Vol.: 67
Chanel 9 Note Off - Duracao: 201720 Nota: C1 Vol.: 50
Chanel 9 Note On - Duracao: 201720 Nota: C1 Vol.: 47
Chanel 1 Note Off - Duracao: 201840 Nota: C1 Vol.: 76
Chanel 1 Note On - Duracao: 201840 Nota: C1 Vol.: 74
Chanel 2 Note Off - Duracao: 202020 Nota: C1 Vol.: 81
Chanel 2 Note On - Duracao: 202020 Nota: C1 Vol.: 87
Chanel 5 Note Off - Duracao: 202080 Nota: C1 Vol.: 65
Chanel 5 Note On - Duracao: 202080 Nota: C1 Vol.: 57
Chanel 10 Note Off - Duracao: 202200 Nota: C1 Vol.: 64
Chanel 10 Note On - Duracao: 202200 Nota: C1 Vol.: 64
Chanel 8 Note Off - Duracao: 202440 Nota: C1 Vol.: 67
Chanel 8 Note On - Duracao: 202440 Nota: C1 Vol.: 57
Chanel 7 Note Off - Duracao: 202680 Nota: C1 Vol.: 46
Chanel 7 Note On - Duracao: 202680 Nota: C1 Vol.: 84
Chanel 1 Note Off - Duracao: 202800 Nota: C1 Vol.: 74
Chanel 1 Note On - Duracao: 202800 Nota: C1 Vol.: 87
Chanel 7 Note Off - Duracao: 202920 Nota: C1 Vol.: 84
Chanel 7 Note On - Duracao: 202920 Nota: C1 Vol.: 77
Chanel 2 Note Off - Duracao: 202980 Nota: C1 Vol.: 87
Chanel 2 Note On - Duracao: 202980 Nota: C1 Vol.: 87
Chanel 7 Note Off - Duracao: 203160 Nota: C1 Vol.: 77
Chanel 7 Note On - Duracao: 203160 Nota: C1 Vol.: 82
Chanel 1 Note Off - Duracao: 203280 Nota: C1 Vol.: 87
Chanel 1 Note On - Duracao: 203280 Nota: C1 Vol.: 86
Chanel 7 Note Off - Duracao: 203400 Nota: C1 Vol.: 82
Chanel 7 Note On - Duracao: 203400 Nota: C1 Vol.: 65
Chanel 1 Note Off - Duracao: 203760 Nota: C1 Vol.: 86
Chanel 1 Note On - Duracao: 203760 Nota: C1 Vol.: 85
Chanel 2 Note Off - Duracao: 203940 Nota: C1 Vol.: 87
Chanel 2 Note On - Duracao: 203940 Nota: C1 Vol.: 88
Chanel 1 Note Off - Duracao: 204000 Nota: C1 Vol.: 85
Chanel 1 Note On - Duracao: 204000 Nota: C1 Vol.: 86
Chanel 5 Note Off - Duracao: 204000 Nota: C1 Vol.: 57
Chanel 5 Note On - Duracao: 204000 Nota: C1 Vol.: 60
Chanel 10 Note Off - Duracao: 204120 Nota: C1 Vol.: 64
Chanel 10 Note On - Duracao: 204120 Nota: C1 Vol.: 72
Chanel 1 Note Off - Duracao: 204240 Nota: C1 Vol.: 86
Chanel 1 Note On - Duracao: 204240 Nota: C1 Vol.: 95
Chanel 1 Note Off - Duracao: 204360 Nota: C1 Vol.: 95
Chanel 1 Note On - Duracao: 204360 Nota: C1 Vol.: 91
Chanel 7 Note Off - Duracao: 204360 Nota: C1 Vol.: 65
Chanel 7 Note On - Duracao: 204360 Nota: C1 Vol.: 64
Chanel 8 Note Off - Duracao: 204360 Nota: C1 Vol.: 57
Chanel 8 Note On - Duracao: 204360 Nota: C1 Vol.: 51
Chanel 1 Note Off - Duracao: 204480 Nota: C1 Vol.: 91
Chanel 1 Note On - Duracao: 204480 Nota: C1 Vol.: 88
Chanel 1 Note Off - Duracao: 204600 Nota: C1 Vol.: 88
Chanel 1 Note On - Duracao: 204600 Nota: C1 Vol.: 92
Chanel 1 Note Off - Duracao: 204720 Nota: C1 Vol.: 92
Chanel 1 Note On - Duracao: 204720 Nota: C1 Vol.: 93
Chanel 1 Note Off - Duracao: 204840 Nota: C1 Vol.: 93
Chanel 1 Note On - Duracao: 204840 Nota: C1 Vol.: 97
Chanel 1 Note Off - Duracao: 204900 Nota: C1 Vol.: 97
Chanel 1 Note On - Duracao: 204900 Nota: C1 Vol.: 94
Chanel 2 Note Off - Duracao: 204900 Nota: C1 Vol.: 88
Chanel 2 Note On - Duracao: 204900 Nota: C1 Vol.: 88
Chanel 1 Note Off - Duracao: 205020 Nota: C1 Vol.: 94
Chanel 1 Note On - Duracao: 205020 Nota: C1 Vol.: 67
Chanel 4 Note Off - Duracao: 205020 Nota: C1 Vol.: 45
Chanel 4 Note On - Duracao: 205020 Nota: C1 Vol.: 45
Chanel 10 Note Off - Duracao: 205080 Nota: C1 Vol.: 72
Chanel 10 Note On - Duracao: 205080 Nota: C1 Vol.: 64
Chanel 3 Note Off - Duracao: 205140 Nota: C1 Vol.: 47
Chanel 3 Note On - Duracao: 205140 Nota: C1 Vol.: 45
Chanel 6 Note Off - Duracao: 205320 Nota: C1 Vol.: 62
Chanel 6 Note On - Duracao: 205320 Nota: C1 Vol.: 55
Chanel 7 Note Off - Duracao: 205320 Nota: C1 Vol.: 64
Chanel 7 Note On - Duracao: 205320 Nota: C1 Vol.: 66
Chanel 9 Note Off - Duracao: 205560 Nota: C1 Vol.: 47
Chanel 9 Note On - Duracao: 205560 Nota: C1 Vol.: 50
Chanel 2 Note Off - Duracao: 205860 Nota: C1 Vol.: 88
Chanel 2 Note On - Duracao: 205860 Nota: C1 Vol.: 92
Chanel 1 Note Off - Duracao: 205980 Nota: C1 Vol.: 67
Chanel 1 Note On - Duracao: 205980 Nota: C1 Vol.: 55
Chanel 7 Note Off - Duracao: 206280 Nota: C1 Vol.: 66
Chanel 7 Note On - Duracao: 206280 Nota: C1 Vol.: 82
Chanel 8 Note Off - Duracao: 206280 Nota: C1 Vol.: 51
Chanel 8 Note On - Duracao: 206280 Nota: C1 Vol.: 60
Chanel 7 Note Off - Duracao: 206520 Nota: C1 Vol.: 82
Chanel 7 Note On - Duracao: 206520 Nota: C1 Vol.: 95
Chanel 7 Note Off - Duracao: 206640 Nota: C1 Vol.: 95
Chanel 7 Note On - Duracao: 206640 Nota: C1 Vol.: 80
Chanel 2 Note Off - Duracao: 206820 Nota: C1 Vol.: 92
Chanel 2 Note On - Duracao: 206820 Nota: C1 Vol.: 86
Chanel 7 Note Off - Duracao: 206880 Nota: C1 Vol.: 80
Chanel 7 Note On - Duracao: 206880 Nota: C1 Vol.: 71
Chanel 10 Note Off - Duracao: 207000 Nota: C1 Vol.: 64
Chanel 10 Note On - Duracao: 207000 Nota: C1 Vol.: 70
Chanel 8 Note Off - Duracao: 207240 Nota: C1 Vol.: 60
Chanel 8 Note On - Duracao: 207240 Nota: C1 Vol.: 89
Chanel 7 Note Off - Duracao: 207360 Nota: C1 Vol.: 71
Chanel 7 Note On - Duracao: 207360 Nota: C1 Vol.: 80
Chanel 8 Note Off - Duracao: 207360 Nota: C1 Vol.: 89
Chanel 8 Note On - Duracao: 207360 Nota: C1 Vol.: 95
Chanel 8 Note Off - Duracao: 207480 Nota: C1 Vol.: 95
Chanel 8 Note On - Duracao: 207480 Nota: C1 Vol.: 91
Chanel 7 Note Off - Duracao: 207600 Nota: C1 Vol.: 80
Chanel 7 Note On - Duracao: 207600 Nota: C1 Vol.: 94
Chanel 8 Note Off - Duracao: 207600 Nota: C1 Vol.: 91
Chanel 8 Note On - Duracao: 207600 Nota: C1 Vol.: 93
Chanel 7 Note Off - Duracao: 207720 Nota: C1 Vol.: 94
Chanel 7 Note On - Duracao: 207720 Nota: C1 Vol.: 93
Chanel 8 Note Off - Duracao: 207720 Nota: C1 Vol.: 93
Chanel 8 Note On - Duracao: 207720 Nota: C1 Vol.: 95
Chanel 2 Note Off - Duracao: 207780 Nota: C1 Vol.: 86
Chanel 2 Note On - Duracao: 207780 Nota: C1 Vol.: 83
Chanel 8 Note Off - Duracao: 207780 Nota: C1 Vol.: 95
Chanel 8 Note On - Duracao: 207780 Nota: C1 Vol.: 93
Chanel 5 Note Off - Duracao: 207840 Nota: C1 Vol.: 60
Chanel 5 Note On - Duracao: 207840 Nota: C1 Vol.: 76
Chanel 7 Note Off - Duracao: 207840 Nota: C1 Vol.: 93
Chanel 7 Note On - Duracao: 207840 Nota: C1 Vol.: 80
Chanel 8 Note Off - Duracao: 207900 Nota: C1 Vol.: 93
Chanel 8 Note On - Duracao: 207900 Nota: C1 Vol.: 78
Chanel 10 Note Off - Duracao: 207960 Nota: C1 Vol.: 70
Chanel 10 Note On - Duracao: 207960 Nota: C1 Vol.: 75
Chanel 7 Note Off - Duracao: 208080 Nota: C1 Vol.: 80
Chanel 7 Note On - Duracao: 208080 Nota: C1 Vol.: 89
Chanel 8 Note Off - Duracao: 208140 Nota: C1 Vol.: 78
Chanel 8 Note On - Duracao: 208140 Nota: C1 Vol.: 80
Chanel 7 Note Off - Duracao: 208200 Nota: C1 Vol.: 89
Chanel 7 Note On - Duracao: 208200 Nota: C1 Vol.: 98
Chanel 7 Note Off - Duracao: 208260 Nota: C1 Vol.: 98
Chanel 7 Note On - Duracao: 208260 Nota: C1 Vol.: 89
Chanel 8 Note Off - Duracao: 208380 Nota: C1 Vol.: 80
Chanel 8 Note On - Duracao: 208380 Nota: C1 Vol.: 94
Chanel 7 Note Off - Duracao: 208500 Nota: C1 Vol.: 89
Chanel 7 Note On - Duracao: 208500 Nota: C1 Vol.: 68
Chanel 8 Note Off - Duracao: 208500 Nota: C1 Vol.: 94
Chanel 8 Note On - Duracao: 208500 Nota: C1 Vol.: 88
Chanel 8 Note Off - Duracao: 208620 Nota: C1 Vol.: 88
Chanel 8 Note On - Duracao: 208620 Nota: C1 Vol.: 80
Chanel 2 Note Off - Duracao: 208740 Nota: C1 Vol.: 83
Chanel 2 Note On - Duracao: 208740 Nota: C1 Vol.: 80
Chanel 5 Note Off - Duracao: 208800 Nota: C1 Vol.: 76
Chanel 5 Note On - Duracao: 208800 Nota: C1 Vol.: 66
Chanel 4 Note Off - Duracao: 208860 Nota: C1 Vol.: 45
Chanel 4 Note On - Duracao: 208860 Nota: C1 Vol.: 45
Chanel 8 Note Off - Duracao: 208860 Nota: C1 Vol.: 80
Chanel 8 Note On - Duracao: 208860 Nota: C1 Vol.: 81
Chanel 10 Note Off - Duracao: 208920 Nota: C1 Vol.: 75
Chanel 10 Note On - Duracao: 208920 Nota: C1 Vol.: 73
Chanel 3 Note Off - Duracao: 208980 Nota: C1 Vol.: 45
Chanel 3 Note On - Duracao: 208980 Nota: C1 Vol.: 58
Chanel 8 Note Off - Duracao: 209100 Nota: C1 Vol.: 81
Chanel 8 Note On - Duracao: 209100 Nota: C1 Vol.: 86
Chanel 6 Note Off - Duracao: 209160 Nota: C1 Vol.: 55
Chanel 6 Note On - Duracao: 209160 Nota: C1 Vol.: 85
Chanel 8 Note Off - Duracao: 209340 Nota: C1 Vol.: 86
Chanel 8 Note On - Duracao: 209340 Nota: C1 Vol.: 99
Chanel 8 Note Off - Duracao: 209400 Nota: C1 Vol.: 99
Chanel 8 Note On - Duracao: 209400 Nota: C1 Vol.: 99
Chanel 9 Note Off - Duracao: 209400 Nota: C1 Vol.: 50
Chanel 9 Note On - Duracao: 209400 Nota: C1 Vol.: 49
Chanel 7 Note Off - Duracao: 209460 Nota: C1 Vol.: 68
Chanel 7 Note On - Duracao: 209460 Nota: C1 Vol.: 83
Chanel 8 Note Off - Duracao: 209520 Nota: C1 Vol.: 99
Chanel 8 Note On - Duracao: 209520 Nota: C1 Vol.: 100
Chanel 6 Note Off - Duracao: 209640 Nota: C1 Vol.: 85
Chanel 6 Note On - Duracao: 209640 Nota: C1 Vol.: 50
Chanel 8 Note Off - Duracao: 209640 Nota: C1 Vol.: 100
Chanel 8 Note On - Duracao: 209640 Nota: C1 Vol.: 73
Chanel 5 Note Off - Duracao: 209760 Nota: C1 Vol.: 66
Chanel 5 Note On - Duracao: 209760 Nota: C1 Vol.: 45
Chanel 1 Note Off - Duracao: 209820 Nota: C1 Vol.: 55
Chanel 1 Note On - Duracao: 209820 Nota: C1 Vol.: 79
Chanel 10 Note Off - Duracao: 209880 Nota: C1 Vol.: 73
Chanel 10 Note On - Duracao: 209880 Nota: C1 Vol.: 68
Chanel 7 Note Off - Duracao: 209940 Nota: C1 Vol.: 83
Chanel 7 Note On - Duracao: 209940 Nota: C1 Vol.: 77
Chanel 8 Note Off - Duracao: 210600 Nota: C1 Vol.: 73
Chanel 8 Note On - Duracao: 210600 Nota: C1 Vol.: 84
Chanel 2 Note Off - Duracao: 210660 Nota: C1 Vol.: 80
Chanel 2 Note On - Duracao: 210660 Nota: C1 Vol.: 92
Chanel 7 Note Off - Duracao: 210900 Nota: C1 Vol.: 77
Chanel 7 Note On - Duracao: 210900 Nota: C1 Vol.: 70
Chanel 8 Note Off - Duracao: 211080 Nota: C1 Vol.: 84
Chanel 8 Note On - Duracao: 211080 Nota: C1 Vol.: 83
Chanel 2 Note Off - Duracao: 211140 Nota: C1 Vol.: 92
Chanel 2 Note On - Duracao: 211140 Nota: C1 Vol.: 76
Chanel 6 Note Off - Duracao: 211560 Nota: C1 Vol.: 50
Chanel 6 Note On - Duracao: 211560 Nota: C1 Vol.: 54
Chanel 8 Note Off - Duracao: 211560 Nota: C1 Vol.: 83
Chanel 8 Note On - Duracao: 211560 Nota: C1 Vol.: 79
Chanel 1 Note Off - Duracao: 211740 Nota: C1 Vol.: 79
Chanel 1 Note On - Duracao: 211740 Nota: C1 Vol.: 84
Chanel 10 Note Off - Duracao: 211800 Nota: C1 Vol.: 68
Chanel 10 Note On - Duracao: 211800 Nota: C1 Vol.: 68
Chanel 7 Note Off - Duracao: 211860 Nota: C1 Vol.: 70
Chanel 7 Note On - Duracao: 211860 Nota: C1 Vol.: 65
Chanel 8 Note Off - Duracao: 212040 Nota: C1 Vol.: 79
Chanel 8 Note On - Duracao: 212040 Nota: C1 Vol.: 83
Chanel 2 Note Off - Duracao: 212100 Nota: C1 Vol.: 76
Chanel 2 Note On - Duracao: 212100 Nota: C1 Vol.: 73
Chanel 6 Note Off - Duracao: 212520 Nota: C1 Vol.: 54
Chanel 6 Note On - Duracao: 212520 Nota: C1 Vol.: 50
Chanel 8 Note Off - Duracao: 212520 Nota: C1 Vol.: 83
Chanel 8 Note On - Duracao: 212520 Nota: C1 Vol.: 80
Chanel 4 Note Off - Duracao: 212700 Nota: C1 Vol.: 45
Chanel 4 Note On - Duracao: 212700 Nota: C1 Vol.: 45
Chanel 3 Note Off - Duracao: 212820 Nota: C1 Vol.: 58
Chanel 3 Note On - Duracao: 212820 Nota: C1 Vol.: 81
Chanel 7 Note Off - Duracao: 212820 Nota: C1 Vol.: 65
Chanel 7 Note On - Duracao: 212820 Nota: C1 Vol.: 66
Chanel 8 Note Off - Duracao: 213000 Nota: C1 Vol.: 80
Chanel 8 Note On - Duracao: 213000 Nota: C1 Vol.: 87
Chanel 2 Note Off - Duracao: 213060 Nota: C1 Vol.: 73
Chanel 2 Note On - Duracao: 213060 Nota: C1 Vol.: 83
Chanel 8 Note Off - Duracao: 213240 Nota: C1 Vol.: 87
Chanel 8 Note On - Duracao: 213240 Nota: C1 Vol.: 90
Chanel 9 Note Off - Duracao: 213240 Nota: C1 Vol.: 49
Chanel 9 Note On - Duracao: 213240 Nota: C1 Vol.: 51
Chanel 2 Note Off - Duracao: 213300 Nota: C1 Vol.: 83
Chanel 2 Note On - Duracao: 213300 Nota: C1 Vol.: 85
Chanel 6 Note Off - Duracao: 213480 Nota: C1 Vol.: 50
Chanel 6 Note On - Duracao: 213480 Nota: C1 Vol.: 80
Chanel 8 Note Off - Duracao: 213480 Nota: C1 Vol.: 90
Chanel 8 Note On - Duracao: 213480 Nota: C1 Vol.: 78
Chanel 2 Note Off - Duracao: 213540 Nota: C1 Vol.: 85
Chanel 2 Note On - Duracao: 213540 Nota: C1 Vol.: 84
Chanel 5 Note Off - Duracao: 213600 Nota: C1 Vol.: 45
Chanel 5 Note On - Duracao: 213600 Nota: C1 Vol.: 43
Chanel 1 Note Off - Duracao: 213660 Nota: C1 Vol.: 84
Chanel 1 Note On - Duracao: 213660 Nota: C1 Vol.: 90
Chanel 6 Note Off - Duracao: 213720 Nota: C1 Vol.: 80
Chanel 6 Note On - Duracao: 213720 Nota: C1 Vol.: 98
Chanel 10 Note Off - Duracao: 213720 Nota: C1 Vol.: 68
Chanel 10 Note On - Duracao: 213720 Nota: C1 Vol.: 74
Chanel 2 Note Off - Duracao: 213780 Nota: C1 Vol.: 84
Chanel 2 Note On - Duracao: 213780 Nota: C1 Vol.: 81
Chanel 3 Note Off - Duracao: 213780 Nota: C1 Vol.: 81
Chanel 3 Note On - Duracao: 213780 Nota: C1 Vol.: 83
Chanel 6 Note Off - Duracao: 213780 Nota: C1 Vol.: 98
Chanel 6 Note On - Duracao: 213780 Nota: C1 Vol.: 83
Chanel 7 Note Off - Duracao: 213780 Nota: C1 Vol.: 66
Chanel 7 Note On - Duracao: 213780 Nota: C1 Vol.: 74
Chanel 8 Note Off - Duracao: 213960 Nota: C1 Vol.: 78
Chanel 8 Note On - Duracao: 213960 Nota: C1 Vol.: 78
Chanel 6 Note Off - Duracao: 214020 Nota: C1 Vol.: 83
Chanel 6 Note On - Duracao: 214020 Nota: C1 Vol.: 45
Chanel 2 Note Off - Duracao: 214260 Nota: C1 Vol.: 81
Chanel 2 Note On - Duracao: 214260 Nota: C1 Vol.: 85
Chanel 8 Note Off - Duracao: 214440 Nota: C1 Vol.: 78
Chanel 8 Note On - Duracao: 214440 Nota: C1 Vol.: 87
Chanel 2 Note Off - Duracao: 214500 Nota: C1 Vol.: 85
Chanel 2 Note On - Duracao: 214500 Nota: C1 Vol.: 80
Chanel 10 Note Off - Duracao: 214680 Nota: C1 Vol.: 74
Chanel 10 Note On - Duracao: 214680 Nota: C1 Vol.: 68
Chanel 7 Note Off - Duracao: 214740 Nota: C1 Vol.: 74
Chanel 7 Note On - Duracao: 214740 Nota: C1 Vol.: 78
Chanel 8 Note Off - Duracao: 214920 Nota: C1 Vol.: 87
Chanel 8 Note On - Duracao: 214920 Nota: C1 Vol.: 82
Chanel 2 Note Off - Duracao: 214980 Nota: C1 Vol.: 80
Chanel 2 Note On - Duracao: 214980 Nota: C1 Vol.: 80
Chanel 2 Note Off - Duracao: 215460 Nota: C1 Vol.: 80
Chanel 2 Note On - Duracao: 215460 Nota: C1 Vol.: 89
Chanel 1 Note Off - Duracao: 215580 Nota: C1 Vol.: 90
Chanel 1 Note On - Duracao: 215580 Nota: C1 Vol.: 92
Chanel 10 Note Off - Duracao: 215640 Nota: C1 Vol.: 68
Chanel 10 Note On - Duracao: 215640 Nota: C1 Vol.: 66
Chanel 3 Note Off - Duracao: 215700 Nota: C1 Vol.: 83
Chanel 3 Note On - Duracao: 215700 Nota: C1 Vol.: 85
Chanel 7 Note Off - Duracao: 215700 Nota: C1 Vol.: 78
Chanel 7 Note On - Duracao: 215700 Nota: C1 Vol.: 53
Chanel 8 Note Off - Duracao: 215880 Nota: C1 Vol.: 82
Chanel 8 Note On - Duracao: 215880 Nota: C1 Vol.: 79
Chanel 2 Note Off - Duracao: 215940 Nota: C1 Vol.: 89
Chanel 2 Note On - Duracao: 215940 Nota: C1 Vol.: 80
Chanel 2 Note Off - Duracao: 216420 Nota: C1 Vol.: 80
Chanel 2 Note On - Duracao: 216420 Nota: C1 Vol.: 73
Chanel 4 Note Off - Duracao: 216540 Nota: C1 Vol.: 45
Chanel 4 Note On - Duracao: 216540 Nota: C1 Vol.: 45
Chanel 10 Note Off - Duracao: 216600 Nota: C1 Vol.: 66
Chanel 10 Note On - Duracao: 216600 Nota: C1 Vol.: 83
Chanel 8 Note Off - Duracao: 216840 Nota: C1 Vol.: 79
Chanel 8 Note On - Duracao: 216840 Nota: C1 Vol.: 86
Chanel 10 Note Off - Duracao: 216840 Nota: C1 Vol.: 83
Chanel 10 Note On - Duracao: 216840 Nota: C1 Vol.: 82
Chanel 9 Note Off - Duracao: 217080 Nota: C1 Vol.: 51
Chanel 9 Note On - Duracao: 217080 Nota: C1 Vol.: 52
Chanel 10 Note Off - Duracao: 217080 Nota: C1 Vol.: 82
Chanel 10 Note On - Duracao: 217080 Nota: C1 Vol.: 84
Chanel 10 Note Off - Duracao: 217200 Nota: C1 Vol.: 84
Chanel 10 Note On - Duracao: 217200 Nota: C1 Vol.: 87
Chanel 8 Note Off - Duracao: 217320 Nota: C1 Vol.: 86
Chanel 8 Note On - Duracao: 217320 Nota: C1 Vol.: 62
Chanel 10 Note Off - Duracao: 217320 Nota: C1 Vol.: 87
Chanel 10 Note On - Duracao: 217320 Nota: C1 Vol.: 90
Chanel 2 Note Off - Duracao: 217380 Nota: C1 Vol.: 73
Chanel 2 Note On - Duracao: 217380 Nota: C1 Vol.: 51
Chanel 5 Note Off - Duracao: 217440 Nota: C1 Vol.: 43
Chanel 5 Note On - Duracao: 217440 Nota: C1 Vol.: 52
Chanel 10 Note Off - Duracao: 217440 Nota: C1 Vol.: 90
Chanel 10 Note On - Duracao: 217440 Nota: C1 Vol.: 91
Chanel 10 Note Off - Duracao: 217560 Nota: C1 Vol.: 91
Chanel 10 Note On - Duracao: 217560 Nota: C1 Vol.: 88
Chanel 10 Note Off - Duracao: 217680 Nota: C1 Vol.: 88
Chanel 10 Note On - Duracao: 217680 Nota: C1 Vol.: 89
Chanel 10 Note Off - Duracao: 217800 Nota: C1 Vol.: 89
Chanel 10 Note On - Duracao: 217800 Nota: C1 Vol.: 87
Chanel 6 Note Off - Duracao: 217860 Nota: C1 Vol.: 45
Chanel 6 Note On - Duracao: 217860 Nota: C1 Vol.: 72
Chanel 10 Note Off - Duracao: 217920 Nota: C1 Vol.: 87
Chanel 10 Note On - Duracao: 217920 Nota: C1 Vol.: 82
Chanel 10 Note Off - Duracao: 218160 Nota: C1 Vol.: 82
Chanel 10 Note On - Duracao: 218160 Nota: C1 Vol.: 66
Chanel 8 Note Off - Duracao: 218280 Nota: C1 Vol.: 62
Chanel 8 Note On - Duracao: 218280 Nota: C1 Vol.: 84
Chanel 6 Note Off - Duracao: 218340 Nota: C1 Vol.: 72
Chanel 6 Note On - Duracao: 218340 Nota: C1 Vol.: 90
Chanel 6 Note Off - Duracao: 218460 Nota: C1 Vol.: 90
Chanel 6 Note On - Duracao: 218460 Nota: C1 Vol.: 89
Chanel 8 Note Off - Duracao: 218520 Nota: C1 Vol.: 84
Chanel 8 Note On - Duracao: 218520 Nota: C1 Vol.: 70
Chanel 6 Note Off - Duracao: 218580 Nota: C1 Vol.: 89
Chanel 6 Note On - Duracao: 218580 Nota: C1 Vol.: 88
Chanel 6 Note Off - Duracao: 218700 Nota: C1 Vol.: 88
Chanel 6 Note On - Duracao: 218700 Nota: C1 Vol.: 89
Chanel 6 Note Off - Duracao: 218820 Nota: C1 Vol.: 89
Chanel 6 Note On - Duracao: 218820 Nota: C1 Vol.: 89
Chanel 6 Note Off - Duracao: 218940 Nota: C1 Vol.: 89
Chanel 6 Note On - Duracao: 218940 Nota: C1 Vol.: 93
Chanel 6 Note Off - Duracao: 219060 Nota: C1 Vol.: 93
Chanel 6 Note On - Duracao: 219060 Nota: C1 Vol.: 97
Chanel 6 Note Off - Duracao: 219120 Nota: C1 Vol.: 97
Chanel 6 Note On - Duracao: 219120 Nota: C1 Vol.: 99
Chanel 10 Note Off - Duracao: 219120 Nota: C1 Vol.: 66
Chanel 10 Note On - Duracao: 219120 Nota: C1 Vol.: 60
Chanel 6 Note Off - Duracao: 219180 Nota: C1 Vol.: 99
Chanel 6 Note On - Duracao: 219180 Nota: C1 Vol.: 100
Chanel 6 Note Off - Duracao: 219240 Nota: C1 Vol.: 100
Chanel 6 Note On - Duracao: 219240 Nota: C1 Vol.: 100
Chanel 6 Note Off - Duracao: 219300 Nota: C1 Vol.: 100
Chanel 6 Note On - Duracao: 219300 Nota: C1 Vol.: 93
Chanel 1 Note Off - Duracao: 219420 Nota: C1 Vol.: 92
Chanel 1 Note On - Duracao: 219420 Nota: C1 Vol.: 93
Chanel 6 Note Off - Duracao: 219420 Nota: C1 Vol.: 93
Chanel 6 Note On - Duracao: 219420 Nota: C1 Vol.: 100
Chanel 6 Note Off - Duracao: 219480 Nota: C1 Vol.: 100
Chanel 6 Note On - Duracao: 219480 Nota: C1 Vol.: 100
Chanel 8 Note Off - Duracao: 219480 Nota: C1 Vol.: 70
Chanel 8 Note On - Duracao: 219480 Nota: C1 Vol.: 83
Chanel 3 Note Off - Duracao: 219540 Nota: C1 Vol.: 85
Chanel 3 Note On - Duracao: 219540 Nota: C1 Vol.: 91
Chanel 6 Note Off - Duracao: 219540 Nota: C1 Vol.: 100
Chanel 6 Note On - Duracao: 219540 Nota: C1 Vol.: 99
Chanel 7 Note Off - Duracao: 219540 Nota: C1 Vol.: 53
Chanel 7 Note On - Duracao: 219540 Nota: C1 Vol.: 54
Chanel 6 Note Off - Duracao: 219600 Nota: C1 Vol.: 99
Chanel 6 Note On - Duracao: 219600 Nota: C1 Vol.: 99
Chanel 6 Note Off - Duracao: 219660 Nota: C1 Vol.: 99
Chanel 6 Note On - Duracao: 219660 Nota: C1 Vol.: 99
Chanel 6 Note Off - Duracao: 219720 Nota: C1 Vol.: 99
Chanel 6 Note On - Duracao: 219720 Nota: C1 Vol.: 100
Chanel 6 Note Off - Duracao: 219780 Nota: C1 Vol.: 100
Chanel 6 Note On - Duracao: 219780 Nota: C1 Vol.: 94
Chanel 6 Note Off - Duracao: 219900 Nota: C1 Vol.: 94
Chanel 6 Note On - Duracao: 219900 Nota: C1 Vol.: 81
Chanel 10 Note Off - Duracao: 220080 Nota: C1 Vol.: 60
Chanel 10 Note On - Duracao: 220080 Nota: C1 Vol.: 60
Chanel 6 Note Off - Duracao: 220140 Nota: C1 Vol.: 81
Chanel 6 Note On - Duracao: 220140 Nota: C1 Vol.: 55
Chanel 4 Note Off - Duracao: 220380 Nota: C1 Vol.: 45
Chanel 4 Note On - Duracao: 220380 Nota: C1 Vol.: 48
Chanel 8 Note Off - Duracao: 220440 Nota: C1 Vol.: 83
Chanel 8 Note On - Duracao: 220440 Nota: C1 Vol.: 82
Chanel 9 Note Off - Duracao: 220920 Nota: C1 Vol.: 52
Chanel 9 Note On - Duracao: 220920 Nota: C1 Vol.: 53
Chanel 10 Note Off - Duracao: 221040 Nota: C1 Vol.: 60
Chanel 10 Note On - Duracao: 221040 Nota: C1 Vol.: 59
Chanel 2 Note Off - Duracao: 221220 Nota: C1 Vol.: 51
Chanel 2 Note On - Duracao: 221220 Nota: C1 Vol.: 80
Chanel 5 Note Off - Duracao: 221280 Nota: C1 Vol.: 52
Chanel 5 Note On - Duracao: 221280 Nota: C1 Vol.: 69
Chanel 8 Note Off - Duracao: 221400 Nota: C1 Vol.: 82
Chanel 8 Note On - Duracao: 221400 Nota: C1 Vol.: 87
Chanel 3 Note Off - Duracao: 221460 Nota: C1 Vol.: 91
Chanel 3 Note On - Duracao: 221460 Nota: C1 Vol.: 92
Chanel 8 Note Off - Duracao: 221880 Nota: C1 Vol.: 87
Chanel 8 Note On - Duracao: 221880 Nota: C1 Vol.: 77
Chanel 6 Note Off - Duracao: 222060 Nota: C1 Vol.: 55
Chanel 6 Note On - Duracao: 222060 Nota: C1 Vol.: 93
Chanel 6 Note Off - Duracao: 222120 Nota: C1 Vol.: 93
Chanel 6 Note On - Duracao: 222120 Nota: C1 Vol.: 99
Chanel 6 Note Off - Duracao: 222180 Nota: C1 Vol.: 99
Chanel 6 Note On - Duracao: 222180 Nota: C1 Vol.: 99
Chanel 5 Note Off - Duracao: 222240 Nota: C1 Vol.: 69
Chanel 5 Note On - Duracao: 222240 Nota: C1 Vol.: 75
Chanel 6 Note Off - Duracao: 222240 Nota: C1 Vol.: 99
Chanel 6 Note On - Duracao: 222240 Nota: C1 Vol.: 96
Chanel 4 Note Off - Duracao: 222300 Nota: C1 Vol.: 48
Chanel 4 Note On - Duracao: 222300 Nota: C1 Vol.: 51
Chanel 6 Note Off - Duracao: 222300 Nota: C1 Vol.: 96
Chanel 6 Note On - Duracao: 222300 Nota: C1 Vol.: 97
Chanel 6 Note Off - Duracao: 222360 Nota: C1 Vol.: 97
Chanel 6 Note On - Duracao: 222360 Nota: C1 Vol.: 97
Chanel 6 Note Off - Duracao: 222420 Nota: C1 Vol.: 97
Chanel 6 Note On - Duracao: 222420 Nota: C1 Vol.: 94
Chanel 6 Note Off - Duracao: 222540 Nota: C1 Vol.: 94
Chanel 6 Note On - Duracao: 222540 Nota: C1 Vol.: 94
Chanel 6 Note Off - Duracao: 222660 Nota: C1 Vol.: 94
Chanel 6 Note On - Duracao: 222660 Nota: C1 Vol.: 74
Chanel 8 Note Off - Duracao: 222840 Nota: C1 Vol.: 77
Chanel 8 Note On - Duracao: 222840 Nota: C1 Vol.: 86
Chanel 10 Note Off - Duracao: 222960 Nota: C1 Vol.: 59
Chanel 10 Note On - Duracao: 222960 Nota: C1 Vol.: 57
Chanel 8 Note Off - Duracao: 223080 Nota: C1 Vol.: 86
Chanel 8 Note On - Duracao: 223080 Nota: C1 Vol.: 90
Chanel 2 Note Off - Duracao: 223140 Nota: C1 Vol.: 80
Chanel 2 Note On - Duracao: 223140 Nota: C1 Vol.: 88
Chanel 6 Note Off - Duracao: 223140 Nota: C1 Vol.: 74
Chanel 6 Note On - Duracao: 223140 Nota: C1 Vol.: 71
Chanel 5 Note Off - Duracao: 223200 Nota: C1 Vol.: 75
Chanel 5 Note On - Duracao: 223200 Nota: C1 Vol.: 76
Chanel 1 Note Off - Duracao: 223260 Nota: C1 Vol.: 93
Chanel 1 Note On - Duracao: 223260 Nota: C1 Vol.: 94
Chanel 8 Note Off - Duracao: 223320 Nota: C1 Vol.: 90
Chanel 8 Note On - Duracao: 223320 Nota: C1 Vol.: 88
Chanel 3 Note Off - Duracao: 223380 Nota: C1 Vol.: 92
Chanel 3 Note On - Duracao: 223380 Nota: C1 Vol.: 89
Chanel 7 Note Off - Duracao: 223380 Nota: C1 Vol.: 54
Chanel 7 Note On - Duracao: 223380 Nota: C1 Vol.: 91
Chanel 8 Note Off - Duracao: 223560 Nota: C1 Vol.: 88
Chanel 8 Note On - Duracao: 223560 Nota: C1 Vol.: 87
Chanel 6 Note Off - Duracao: 223620 Nota: C1 Vol.: 71
Chanel 6 Note On - Duracao: 223620 Nota: C1 Vol.: 71
Chanel 8 Note Off - Duracao: 223800 Nota: C1 Vol.: 87
Chanel 8 Note On - Duracao: 223800 Nota: C1 Vol.: 64
Chanel 7 Note Off - Duracao: 223860 Nota: C1 Vol.: 91
Chanel 7 Note On - Duracao: 223860 Nota: C1 Vol.: 95
Chanel 6 Note Off - Duracao: 224100 Nota: C1 Vol.: 71
Chanel 6 Note On - Duracao: 224100 Nota: C1 Vol.: 73
Chanel 5 Note Off - Duracao: 224160 Nota: C1 Vol.: 76
Chanel 5 Note On - Duracao: 224160 Nota: C1 Vol.: 75
Chanel 4 Note Off - Duracao: 224220 Nota: C1 Vol.: 51
Chanel 4 Note On - Duracao: 224220 Nota: C1 Vol.: 48
Chanel 7 Note Off - Duracao: 224340 Nota: C1 Vol.: 95
Chanel 7 Note On - Duracao: 224340 Nota: C1 Vol.: 71
Chanel 6 Note Off - Duracao: 224580 Nota: C1 Vol.: 73
Chanel 6 Note On - Duracao: 224580 Nota: C1 Vol.: 72
Chanel 9 Note Off - Duracao: 224760 Nota: C1 Vol.: 53
Chanel 9 Note On - Duracao: 224760 Nota: C1 Vol.: 79
Chanel 10 Note Off - Duracao: 224880 Nota: C1 Vol.: 57
Chanel 10 Note On - Duracao: 224880 Nota: C1 Vol.: 56
Chanel 2 Note Off - Duracao: 225060 Nota: C1 Vol.: 88
Chanel 2 Note On - Duracao: 225060 Nota: C1 Vol.: 87
Chanel 5 Note Off - Duracao: 225120 Nota: C1 Vol.: 75
Chanel 5 Note On - Duracao: 225120 Nota: C1 Vol.: 79
Chanel 1 Note Off - Duracao: 225180 Nota: C1 Vol.: 94
Chanel 1 Note On - Duracao: 225180 Nota: C1 Vol.: 91
Chanel 6 Note Off - Duracao: 225540 Nota: C1 Vol.: 72
Chanel 6 Note On - Duracao: 225540 Nota: C1 Vol.: 62
Chanel 5 Note Off - Duracao: 225600 Nota: C1 Vol.: 79
Chanel 5 Note On - Duracao: 225600 Nota: C1 Vol.: 83
Chanel 8 Note Off - Duracao: 225720 Nota: C1 Vol.: 64
Chanel 8 Note On - Duracao: 225720 Nota: C1 Vol.: 82
Chanel 9 Note Off - Duracao: 225720 Nota: C1 Vol.: 79
Chanel 9 Note On - Duracao: 225720 Nota: C1 Vol.: 69
Chanel 5 Note Off - Duracao: 226080 Nota: C1 Vol.: 83
Chanel 5 Note On - Duracao: 226080 Nota: C1 Vol.: 85
Chanel 7 Note Off - Duracao: 226260 Nota: C1 Vol.: 71
Chanel 7 Note On - Duracao: 226260 Nota: C1 Vol.: 67
Chanel 5 Note Off - Duracao: 226560 Nota: C1 Vol.: 85
Chanel 5 Note On - Duracao: 226560 Nota: C1 Vol.: 84
Chanel 8 Note Off - Duracao: 226680 Nota: C1 Vol.: 82
Chanel 8 Note On - Duracao: 226680 Nota: C1 Vol.: 87
Chanel 10 Note Off - Duracao: 226800 Nota: C1 Vol.: 56
Chanel 10 Note On - Duracao: 226800 Nota: C1 Vol.: 55
Chanel 2 Note Off - Duracao: 226980 Nota: C1 Vol.: 87
Chanel 2 Note On - Duracao: 226980 Nota: C1 Vol.: 81
Chanel 5 Note Off - Duracao: 227040 Nota: C1 Vol.: 84
Chanel 5 Note On - Duracao: 227040 Nota: C1 Vol.: 75
Chanel 3 Note Off - Duracao: 227220 Nota: C1 Vol.: 89
Chanel 3 Note On - Duracao: 227220 Nota: C1 Vol.: 93
Chanel 6 Note Off - Duracao: 227460 Nota: C1 Vol.: 62
Chanel 6 Note On - Duracao: 227460 Nota: C1 Vol.: 76
Chanel 8 Note Off - Duracao: 227640 Nota: C1 Vol.: 87
Chanel 8 Note On - Duracao: 227640 Nota: C1 Vol.: 80
Chanel 9 Note Off - Duracao: 227640 Nota: C1 Vol.: 69
Chanel 9 Note On - Duracao: 227640 Nota: C1 Vol.: 82
Chanel 5 Note Off - Duracao: 228000 Nota: C1 Vol.: 75
Chanel 5 Note On - Duracao: 228000 Nota: C1 Vol.: 75
Chanel 4 Note Off - Duracao: 228060 Nota: C1 Vol.: 48
Chanel 4 Note On - Duracao: 228060 Nota: C1 Vol.: 50
Chanel 7 Note Off - Duracao: 228180 Nota: C1 Vol.: 67
Chanel 7 Note On - Duracao: 228180 Nota: C1 Vol.: 64
Chanel 6 Note Off - Duracao: 228420 Nota: C1 Vol.: 76
Chanel 6 Note On - Duracao: 228420 Nota: C1 Vol.: 64
Chanel 8 Note Off - Duracao: 228600 Nota: C1 Vol.: 80
Chanel 8 Note On - Duracao: 228600 Nota: C1 Vol.: 88
Chanel 9 Note Off - Duracao: 228600 Nota: C1 Vol.: 82
Chanel 9 Note On - Duracao: 228600 Nota: C1 Vol.: 89
Chanel 10 Note Off - Duracao: 228720 Nota: C1 Vol.: 55
Chanel 10 Note On - Duracao: 228720 Nota: C1 Vol.: 64
Chanel 8 Note Off - Duracao: 228840 Nota: C1 Vol.: 88
Chanel 8 Note On - Duracao: 228840 Nota: C1 Vol.: 85
Chanel 2 Note Off - Duracao: 228900 Nota: C1 Vol.: 81
Chanel 2 Note On - Duracao: 228900 Nota: C1 Vol.: 82
Chanel 5 Note Off - Duracao: 228960 Nota: C1 Vol.: 75
Chanel 5 Note On - Duracao: 228960 Nota: C1 Vol.: 77
Chanel 1 Note Off - Duracao: 229020 Nota: C1 Vol.: 91
Chanel 1 Note On - Duracao: 229020 Nota: C1 Vol.: 93
Chanel 8 Note Off - Duracao: 229080 Nota: C1 Vol.: 85
Chanel 8 Note On - Duracao: 229080 Nota: C1 Vol.: 81
Chanel 5 Note Off - Duracao: 229440 Nota: C1 Vol.: 77
Chanel 5 Note On - Duracao: 229440 Nota: C1 Vol.: 79
Chanel 8 Note Off - Duracao: 229560 Nota: C1 Vol.: 81
Chanel 8 Note On - Duracao: 229560 Nota: C1 Vol.: 73
Chanel 9 Note Off - Duracao: 229560 Nota: C1 Vol.: 89
Chanel 9 Note On - Duracao: 229560 Nota: C1 Vol.: 80
Chanel 5 Note Off - Duracao: 229920 Nota: C1 Vol.: 79
Chanel 5 Note On - Duracao: 229920 Nota: C1 Vol.: 84
Chanel 7 Note Off - Duracao: 230100 Nota: C1 Vol.: 64
Chanel 7 Note On - Duracao: 230100 Nota: C1 Vol.: 67
Chanel 5 Note Off - Duracao: 230160 Nota: C1 Vol.: 84
Chanel 5 Note On - Duracao: 230160 Nota: C1 Vol.: 86
Chanel 6 Note Off - Duracao: 230340 Nota: C1 Vol.: 64
Chanel 6 Note On - Duracao: 230340 Nota: C1 Vol.: 59
Chanel 5 Note Off - Duracao: 230400 Nota: C1 Vol.: 86
Chanel 5 Note On - Duracao: 230400 Nota: C1 Vol.: 85
Chanel 8 Note Off - Duracao: 230520 Nota: C1 Vol.: 73
Chanel 8 Note On - Duracao: 230520 Nota: C1 Vol.: 69
Chanel 5 Note Off - Duracao: 230640 Nota: C1 Vol.: 85
Chanel 5 Note On - Duracao: 230640 Nota: C1 Vol.: 85
Chanel 10 Note Off - Duracao: 230640 Nota: C1 Vol.: 64
Chanel 10 Note On - Duracao: 230640 Nota: C1 Vol.: 74
Chanel 2 Note Off - Duracao: 230820 Nota: C1 Vol.: 82
Chanel 2 Note On - Duracao: 230820 Nota: C1 Vol.: 83
Chanel 5 Note Off - Duracao: 230880 Nota: C1 Vol.: 85
Chanel 5 Note On - Duracao: 230880 Nota: C1 Vol.: 84
Chanel 3 Note Off - Duracao: 231060 Nota: C1 Vol.: 93
Chanel 3 Note On - Duracao: 231060 Nota: C1 Vol.: 94
Chanel 7 Note Off - Duracao: 231060 Nota: C1 Vol.: 67
Chanel 7 Note On - Duracao: 231060 Nota: C1 Vol.: 66
Chanel 5 Note Off - Duracao: 231120 Nota: C1 Vol.: 84
Chanel 5 Note On - Duracao: 231120 Nota: C1 Vol.: 80
Chanel 8 Note Off - Duracao: 231480 Nota: C1 Vol.: 69
Chanel 8 Note On - Duracao: 231480 Nota: C1 Vol.: 62
Chanel 9 Note Off - Duracao: 231480 Nota: C1 Vol.: 80
Chanel 9 Note On - Duracao: 231480 Nota: C1 Vol.: 82
Chanel 5 Note Off - Duracao: 231600 Nota: C1 Vol.: 80
Chanel 5 Note On - Duracao: 231600 Nota: C1 Vol.: 79
Chanel 10 Note Off - Duracao: 231600 Nota: C1 Vol.: 74
Chanel 10 Note On - Duracao: 231600 Nota: C1 Vol.: 84
Chanel 4 Note Off - Duracao: 231900 Nota: C1 Vol.: 50
Chanel 4 Note On - Duracao: 231900 Nota: C1 Vol.: 58
Chanel 5 Note Off - Duracao: 232080 Nota: C1 Vol.: 79
Chanel 5 Note On - Duracao: 232080 Nota: C1 Vol.: 76
Chanel 10 Note Off - Duracao: 232080 Nota: C1 Vol.: 84
Chanel 10 Note On - Duracao: 232080 Nota: C1 Vol.: 81
Chanel 5 Note Off - Duracao: 232560 Nota: C1 Vol.: 76
Chanel 5 Note On - Duracao: 232560 Nota: C1 Vol.: 72
Chanel 1 Note Off - Duracao: 232860 Nota: C1 Vol.: 93
Chanel 1 Note On - Duracao: 232860 Nota: C1 Vol.: 91
Chanel 7 Note Off - Duracao: 232980 Nota: C1 Vol.: 66
Chanel 7 Note On - Duracao: 232980 Nota: C1 Vol.: 76
Chanel 10 Note Off - Duracao: 233040 Nota: C1 Vol.: 81
Chanel 10 Note On - Duracao: 233040 Nota: C1 Vol.: 70
Chanel 8 Note Off - Duracao: 233400 Nota: C1 Vol.: 62
Chanel 8 Note On - Duracao: 233400 Nota: C1 Vol.: 51
Chanel 9 Note Off - Duracao: 233400 Nota: C1 Vol.: 82
Chanel 9 Note On - Duracao: 233400 Nota: C1 Vol.: 91
Chanel 7 Note Off - Duracao: 233460 Nota: C1 Vol.: 76
Chanel 7 Note On - Duracao: 233460 Nota: C1 Vol.: 85
Chanel 5 Note Off - Duracao: 233520 Nota: C1 Vol.: 72
Chanel 5 Note On - Duracao: 233520 Nota: C1 Vol.: 64
Chanel 7 Note Off - Duracao: 233700 Nota: C1 Vol.: 85
Chanel 7 Note On - Duracao: 233700 Nota: C1 Vol.: 86
Chanel 4 Note Off - Duracao: 233820 Nota: C1 Vol.: 58
Chanel 4 Note On - Duracao: 233820 Nota: C1 Vol.: 57
Chanel 9 Note Off - Duracao: 233880 Nota: C1 Vol.: 91
Chanel 9 Note On - Duracao: 233880 Nota: C1 Vol.: 88
Chanel 7 Note Off - Duracao: 233940 Nota: C1 Vol.: 86
Chanel 7 Note On - Duracao: 233940 Nota: C1 Vol.: 83
Chanel 6 Note Off - Duracao: 234180 Nota: C1 Vol.: 59
Chanel 6 Note On - Duracao: 234180 Nota: C1 Vol.: 59
Chanel 9 Note Off - Duracao: 234360 Nota: C1 Vol.: 88
Chanel 9 Note On - Duracao: 234360 Nota: C1 Vol.: 87
Chanel 7 Note Off - Duracao: 234420 Nota: C1 Vol.: 83
Chanel 7 Note On - Duracao: 234420 Nota: C1 Vol.: 71
Chanel 5 Note Off - Duracao: 234480 Nota: C1 Vol.: 64
Chanel 5 Note On - Duracao: 234480 Nota: C1 Vol.: 66
Chanel 2 Note Off - Duracao: 234660 Nota: C1 Vol.: 83
Chanel 2 Note On - Duracao: 234660 Nota: C1 Vol.: 82
Chanel 9 Note Off - Duracao: 234840 Nota: C1 Vol.: 87
Chanel 9 Note On - Duracao: 234840 Nota: C1 Vol.: 85
Chanel 3 Note Off - Duracao: 234900 Nota: C1 Vol.: 94
Chanel 3 Note On - Duracao: 234900 Nota: C1 Vol.: 93
Chanel 10 Note Off - Duracao: 234960 Nota: C1 Vol.: 70
Chanel 10 Note On - Duracao: 234960 Nota: C1 Vol.: 56
Chanel 7 Note Off - Duracao: 235380 Nota: C1 Vol.: 71
Chanel 7 Note On - Duracao: 235380 Nota: C1 Vol.: 78
Chanel 5 Note Off - Duracao: 235440 Nota: C1 Vol.: 66
Chanel 5 Note On - Duracao: 235440 Nota: C1 Vol.: 56
Chanel 4 Note Off - Duracao: 235740 Nota: C1 Vol.: 57
Chanel 4 Note On - Duracao: 235740 Nota: C1 Vol.: 56
Chanel 9 Note Off - Duracao: 235800 Nota: C1 Vol.: 85
Chanel 9 Note On - Duracao: 235800 Nota: C1 Vol.: 83
Chanel 7 Note Off - Duracao: 236340 Nota: C1 Vol.: 78
Chanel 7 Note On - Duracao: 236340 Nota: C1 Vol.: 66
Chanel 1 Note Off - Duracao: 236700 Nota: C1 Vol.: 91
Chanel 1 Note On - Duracao: 236700 Nota: C1 Vol.: 91
Chanel 9 Note Off - Duracao: 236760 Nota: C1 Vol.: 83
Chanel 9 Note On - Duracao: 236760 Nota: C1 Vol.: 81
Chanel 8 Note Off - Duracao: 237240 Nota: C1 Vol.: 51
Chanel 8 Note On - Duracao: 237240 Nota: C1 Vol.: 53
Chanel 5 Note Off - Duracao: 237360 Nota: C1 Vol.: 56
Chanel 5 Note On - Duracao: 237360 Nota: C1 Vol.: 54
Chanel 4 Note Off - Duracao: 237660 Nota: C1 Vol.: 56
Chanel 4 Note On - Duracao: 237660 Nota: C1 Vol.: 47
Chanel 9 Note Off - Duracao: 237720 Nota: C1 Vol.: 81
Chanel 9 Note On - Duracao: 237720 Nota: C1 Vol.: 82
Chanel 6 Note Off - Duracao: 238020 Nota: C1 Vol.: 59
Chanel 6 Note On - Duracao: 238020 Nota: C1 Vol.: 56
Chanel 7 Note Off - Duracao: 238260 Nota: C1 Vol.: 66
Chanel 7 Note On - Duracao: 238260 Nota: C1 Vol.: 67
Chanel 2 Note Off - Duracao: 238500 Nota: C1 Vol.: 82
Chanel 2 Note On - Duracao: 238500 Nota: C1 Vol.: 83
Chanel 9 Note Off - Duracao: 238680 Nota: C1 Vol.: 82
Chanel 9 Note On - Duracao: 238680 Nota: C1 Vol.: 82
Chanel 3 Note Off - Duracao: 238740 Nota: C1 Vol.: 93
Chanel 3 Note On - Duracao: 238740 Nota: C1 Vol.: 90
Chanel 10 Note Off - Duracao: 238800 Nota: C1 Vol.: 56
Chanel 10 Note On - Duracao: 238800 Nota: C1 Vol.: 66
Chanel 5 Note Off - Duracao: 239280 Nota: C1 Vol.: 54
Chanel 5 Note On - Duracao: 239280 Nota: C1 Vol.: 88
Chanel 5 Note Off - Duracao: 239400 Nota: C1 Vol.: 88
Chanel 5 Note On - Duracao: 239400 Nota: C1 Vol.: 87
Chanel 5 Note Off - Duracao: 239520 Nota: C1 Vol.: 87
Chanel 5 Note On - Duracao: 239520 Nota: C1 Vol.: 89
Chanel 5 Note Off - Duracao: 239640 Nota: C1 Vol.: 89
Chanel 5 Note On - Duracao: 239640 Nota: C1 Vol.: 95
Chanel 9 Note Off - Duracao: 239640 Nota: C1 Vol.: 82
Chanel 9 Note On - Duracao: 239640 Nota: C1 Vol.: 79
Chanel 5 Note Off - Duracao: 239700 Nota: C1 Vol.: 95
Chanel 5 Note On - Duracao: 239700 Nota: C1 Vol.: 98
Chanel 5 Note Off - Duracao: 239760 Nota: C1 Vol.: 98
Chanel 5 Note On - Duracao: 239760 Nota: C1 Vol.: 100
Chanel 10 Note Off - Duracao: 239760 Nota: C1 Vol.: 66
Chanel 10 Note On - Duracao: 239760 Nota: C1 Vol.: 67
Chanel 5 Note Off - Duracao: 239820 Nota: C1 Vol.: 100
Chanel 5 Note On - Duracao: 239820 Nota: C1 Vol.: 98
Chanel 5 Note Off - Duracao: 239880 Nota: C1 Vol.: 98
Chanel 5 Note On - Duracao: 239880 Nota: C1 Vol.: 99
Chanel 5 Note Off - Duracao: 239940 Nota: C1 Vol.: 99
Chanel 5 Note On - Duracao: 239940 Nota: C1 Vol.: 99
Chanel 5 Note Off - Duracao: 240000 Nota: C1 Vol.: 99
Chanel 5 Note On - Duracao: 240000 Nota: C1 Vol.: 93
Chanel 5 Note Off - Duracao: 240120 Nota: C1 Vol.: 93
Chanel 5 Note On - Duracao: 240120 Nota: C1 Vol.: 96
Chanel 7 Note Off - Duracao: 240180 Nota: C1 Vol.: 67
Chanel 7 Note On - Duracao: 240180 Nota: C1 Vol.: 65
Chanel 5 Note Off - Duracao: 240240 Nota: C1 Vol.: 96
Chanel 5 Note On - Duracao: 240240 Nota: C1 Vol.: 52
Chanel 2 Note Off - Duracao: 240420 Nota: C1 Vol.: 83
Chanel 2 Note On - Duracao: 240420 Nota: C1 Vol.: 84
Chanel 1 Note Off - Duracao: 240540 Nota: C1 Vol.: 91
Chanel 1 Note On - Duracao: 240540 Nota: C1 Vol.: 94
Chanel 9 Note Off - Duracao: 240600 Nota: C1 Vol.: 79
Chanel 9 Note On - Duracao: 240600 Nota: C1 Vol.: 64
Chanel 3 Note Off - Duracao: 240660 Nota: C1 Vol.: 90
Chanel 3 Note On - Duracao: 240660 Nota: C1 Vol.: 93
Chanel 10 Note Off - Duracao: 240720 Nota: C1 Vol.: 67
Chanel 10 Note On - Duracao: 240720 Nota: C1 Vol.: 70
Chanel 2 Note Off - Duracao: 240900 Nota: C1 Vol.: 84
Chanel 2 Note On - Duracao: 240900 Nota: C1 Vol.: 74
Chanel 8 Note Off - Duracao: 241080 Nota: C1 Vol.: 53
Chanel 8 Note On - Duracao: 241080 Nota: C1 Vol.: 50
Chanel 2 Note Off - Duracao: 241380 Nota: C1 Vol.: 74
Chanel 2 Note On - Duracao: 241380 Nota: C1 Vol.: 53
Chanel 4 Note Off - Duracao: 241500 Nota: C1 Vol.: 47
Chanel 4 Note On - Duracao: 241500 Nota: C1 Vol.: 53
Chanel 3 Note Off - Duracao: 241620 Nota: C1 Vol.: 93
Chanel 3 Note On - Duracao: 241620 Nota: C1 Vol.: 48
Chanel 10 Note Off - Duracao: 241680 Nota: C1 Vol.: 70
Chanel 10 Note On - Duracao: 241680 Nota: C1 Vol.: 71
Chanel 6 Note Off - Duracao: 241860 Nota: C1 Vol.: 56
Chanel 6 Note On - Duracao: 241860 Nota: C1 Vol.: 62
Chanel 7 Note Off - Duracao: 242100 Nota: C1 Vol.: 65
Chanel 7 Note On - Duracao: 242100 Nota: C1 Vol.: 60
Chanel 5 Note Off - Duracao: 242160 Nota: C1 Vol.: 52
Chanel 5 Note On - Duracao: 242160 Nota: C1 Vol.: 77
Chanel 2 Note Off - Duracao: 242340 Nota: C1 Vol.: 53
Chanel 2 Note On - Duracao: 242340 Nota: C1 Vol.: 52
Chanel 5 Note Off - Duracao: 242400 Nota: C1 Vol.: 77
Chanel 5 Note On - Duracao: 242400 Nota: C1 Vol.: 93
Chanel 1 Note Off - Duracao: 242460 Nota: C1 Vol.: 94
Chanel 1 Note On - Duracao: 242460 Nota: C1 Vol.: 92
Chanel 5 Note Off - Duracao: 242520 Nota: C1 Vol.: 93
Chanel 5 Note On - Duracao: 242520 Nota: C1 Vol.: 100
Chanel 9 Note Off - Duracao: 242520 Nota: C1 Vol.: 64
Chanel 9 Note On - Duracao: 242520 Nota: C1 Vol.: 72
Chanel 5 Note Off - Duracao: 242580 Nota: C1 Vol.: 100
Chanel 5 Note On - Duracao: 242580 Nota: C1 Vol.: 97
Chanel 10 Note Off - Duracao: 242640 Nota: C1 Vol.: 71
Chanel 10 Note On - Duracao: 242640 Nota: C1 Vol.: 71
Chanel 5 Note Off - Duracao: 242700 Nota: C1 Vol.: 97
Chanel 5 Note On - Duracao: 242700 Nota: C1 Vol.: 72
Chanel 5 Note Off - Duracao: 243180 Nota: C1 Vol.: 72
Chanel 5 Note On - Duracao: 243180 Nota: C1 Vol.: 62
Chanel 2 Note Off - Duracao: 243300 Nota: C1 Vol.: 52
Chanel 2 Note On - Duracao: 243300 Nota: C1 Vol.: 52
Chanel 4 Note Off - Duracao: 243420 Nota: C1 Vol.: 53
Chanel 4 Note On - Duracao: 243420 Nota: C1 Vol.: 48
Chanel 9 Note Off - Duracao: 243480 Nota: C1 Vol.: 72
Chanel 9 Note On - Duracao: 243480 Nota: C1 Vol.: 71
Chanel 10 Note Off - Duracao: 243600 Nota: C1 Vol.: 71
Chanel 10 Note On - Duracao: 243600 Nota: C1 Vol.: 95
Chanel 10 Note Off - Duracao: 243720 Nota: C1 Vol.: 95
Chanel 10 Note On - Duracao: 243720 Nota: C1 Vol.: 76
Chanel 6 Note Off - Duracao: 243780 Nota: C1 Vol.: 62
Chanel 6 Note On - Duracao: 243780 Nota: C1 Vol.: 64
Chanel 7 Note Off - Duracao: 244020 Nota: C1 Vol.: 60
Chanel 7 Note On - Duracao: 244020 Nota: C1 Vol.: 58
Chanel 5 Note Off - Duracao: 244140 Nota: C1 Vol.: 62
Chanel 5 Note On - Duracao: 244140 Nota: C1 Vol.: 88
Chanel 10 Note Off - Duracao: 244200 Nota: C1 Vol.: 76
Chanel 10 Note On - Duracao: 244200 Nota: C1 Vol.: 66
Chanel 2 Note Off - Duracao: 244260 Nota: C1 Vol.: 52
Chanel 2 Note On - Duracao: 244260 Nota: C1 Vol.: 54
Chanel 5 Note Off - Duracao: 244260 Nota: C1 Vol.: 88
Chanel 5 Note On - Duracao: 244260 Nota: C1 Vol.: 95
Chanel 1 Note Off - Duracao: 244380 Nota: C1 Vol.: 92
Chanel 1 Note On - Duracao: 244380 Nota: C1 Vol.: 93
Chanel 5 Note Off - Duracao: 244380 Nota: C1 Vol.: 95
Chanel 5 Note On - Duracao: 244380 Nota: C1 Vol.: 98
Chanel 5 Note Off - Duracao: 244440 Nota: C1 Vol.: 98
Chanel 5 Note On - Duracao: 244440 Nota: C1 Vol.: 100
Chanel 9 Note Off - Duracao: 244440 Nota: C1 Vol.: 71
Chanel 9 Note On - Duracao: 244440 Nota: C1 Vol.: 68
Chanel 5 Note Off - Duracao: 244500 Nota: C1 Vol.: 100
Chanel 5 Note On - Duracao: 244500 Nota: C1 Vol.: 100
Chanel 5 Note Off - Duracao: 244560 Nota: C1 Vol.: 100
Chanel 5 Note On - Duracao: 244560 Nota: C1 Vol.: 97
Chanel 5 Note Off - Duracao: 244620 Nota: C1 Vol.: 97
Chanel 5 Note On - Duracao: 244620 Nota: C1 Vol.: 97
Chanel 5 Note Off - Duracao: 244680 Nota: C1 Vol.: 97
Chanel 5 Note On - Duracao: 244680 Nota: C1 Vol.: 96
Chanel 2 Note Off - Duracao: 244740 Nota: C1 Vol.: 54
Chanel 2 Note On - Duracao: 244740 Nota: C1 Vol.: 58
Chanel 5 Note Off - Duracao: 244740 Nota: C1 Vol.: 96
Chanel 5 Note On - Duracao: 244740 Nota: C1 Vol.: 79
Chanel 8 Note Off - Duracao: 244920 Nota: C1 Vol.: 50
Chanel 8 Note On - Duracao: 244920 Nota: C1 Vol.: 52
Chanel 5 Note Off - Duracao: 244980 Nota: C1 Vol.: 79
Chanel 5 Note On - Duracao: 244980 Nota: C1 Vol.: 84
Chanel 10 Note Off - Duracao: 245160 Nota: C1 Vol.: 66
Chanel 10 Note On - Duracao: 245160 Nota: C1 Vol.: 52
Chanel 2 Note Off - Duracao: 245220 Nota: C1 Vol.: 58
Chanel 2 Note On - Duracao: 245220 Nota: C1 Vol.: 53
Chanel 5 Note Off - Duracao: 245220 Nota: C1 Vol.: 84
Chanel 5 Note On - Duracao: 245220 Nota: C1 Vol.: 99
Chanel 5 Note Off - Duracao: 245280 Nota: C1 Vol.: 99
Chanel 5 Note On - Duracao: 245280 Nota: C1 Vol.: 99
Chanel 5 Note Off - Duracao: 245340 Nota: C1 Vol.: 99
Chanel 5 Note On - Duracao: 245340 Nota: C1 Vol.: 96
Chanel 5 Note Off - Duracao: 245400 Nota: C1 Vol.: 96
Chanel 5 Note On - Duracao: 245400 Nota: C1 Vol.: 98
Chanel 9 Note Off - Duracao: 245400 Nota: C1 Vol.: 68
Chanel 9 Note On - Duracao: 245400 Nota: C1 Vol.: 71
Chanel 3 Note Off - Duracao: 245460 Nota: C1 Vol.: 48
Chanel 3 Note On - Duracao: 245460 Nota: C1 Vol.: 72
Chanel 5 Note Off - Duracao: 245460 Nota: C1 Vol.: 98
Chanel 5 Note On - Duracao: 245460 Nota: C1 Vol.: 94
Chanel 5 Note Off - Duracao: 245520 Nota: C1 Vol.: 94
Chanel 5 Note On - Duracao: 245520 Nota: C1 Vol.: 94
Chanel 5 Note Off - Duracao: 245640 Nota: C1 Vol.: 94
Chanel 5 Note On - Duracao: 245640 Nota: C1 Vol.: 91
Chanel 2 Note Off - Duracao: 245700 Nota: C1 Vol.: 53
Chanel 2 Note On - Duracao: 245700 Nota: C1 Vol.: 56
Chanel 6 Note Off - Duracao: 245700 Nota: C1 Vol.: 64
Chanel 6 Note On - Duracao: 245700 Nota: C1 Vol.: 75
Chanel 5 Note Off - Duracao: 245760 Nota: C1 Vol.: 91
Chanel 5 Note On - Duracao: 245760 Nota: C1 Vol.: 93
Chanel 5 Note Off - Duracao: 245880 Nota: C1 Vol.: 93
Chanel 5 Note On - Duracao: 245880 Nota: C1 Vol.: 94
Chanel 7 Note Off - Duracao: 245940 Nota: C1 Vol.: 58
Chanel 7 Note On - Duracao: 245940 Nota: C1 Vol.: 60
Chanel 5 Note Off - Duracao: 246000 Nota: C1 Vol.: 94
Chanel 5 Note On - Duracao: 246000 Nota: C1 Vol.: 93
Chanel 5 Note Off - Duracao: 246060 Nota: C1 Vol.: 93
Chanel 5 Note On - Duracao: 246060 Nota: C1 Vol.: 85
Chanel 2 Note Off - Duracao: 246180 Nota: C1 Vol.: 56
Chanel 2 Note On - Duracao: 246180 Nota: C1 Vol.: 57
Chanel 5 Note Off - Duracao: 246180 Nota: C1 Vol.: 85
Chanel 5 Note On - Duracao: 246180 Nota: C1 Vol.: 54
Chanel 1 Note Off - Duracao: 246300 Nota: C1 Vol.: 93
Chanel 1 Note On - Duracao: 246300 Nota: C1 Vol.: 92
Chanel 9 Note Off - Duracao: 246360 Nota: C1 Vol.: 71
Chanel 9 Note On - Duracao: 246360 Nota: C1 Vol.: 71
Chanel 2 Note Off - Duracao: 246660 Nota: C1 Vol.: 57
Chanel 2 Note On - Duracao: 246660 Nota: C1 Vol.: 57
Chanel 6 Note Off - Duracao: 246660 Nota: C1 Vol.: 75
Chanel 6 Note On - Duracao: 246660 Nota: C1 Vol.: 76
Chanel 2 Note Off - Duracao: 247140 Nota: C1 Vol.: 57
Chanel 2 Note On - Duracao: 247140 Nota: C1 Vol.: 61
Chanel 4 Note Off - Duracao: 247260 Nota: C1 Vol.: 48
Chanel 4 Note On - Duracao: 247260 Nota: C1 Vol.: 83
Chanel 9 Note Off - Duracao: 247320 Nota: C1 Vol.: 71
Chanel 9 Note On - Duracao: 247320 Nota: C1 Vol.: 79
Chanel 3 Note Off - Duracao: 247380 Nota: C1 Vol.: 72
Chanel 3 Note On - Duracao: 247380 Nota: C1 Vol.: 74
Chanel 4 Note Off - Duracao: 247500 Nota: C1 Vol.: 83
Chanel 4 Note On - Duracao: 247500 Nota: C1 Vol.: 89
Chanel 4 Note Off - Duracao: 247620 Nota: C1 Vol.: 89
Chanel 4 Note On - Duracao: 247620 Nota: C1 Vol.: 94
Chanel 6 Note Off - Duracao: 247620 Nota: C1 Vol.: 76
Chanel 6 Note On - Duracao: 247620 Nota: C1 Vol.: 64
Chanel 4 Note Off - Duracao: 247680 Nota: C1 Vol.: 94
Chanel 4 Note On - Duracao: 247680 Nota: C1 Vol.: 100
Chanel 4 Note Off - Duracao: 247740 Nota: C1 Vol.: 100
Chanel 4 Note On - Duracao: 247740 Nota: C1 Vol.: 99
Chanel 4 Note Off - Duracao: 247800 Nota: C1 Vol.: 99
Chanel 4 Note On - Duracao: 247800 Nota: C1 Vol.: 99
Chanel 9 Note Off - Duracao: 247800 Nota: C1 Vol.: 79
Chanel 9 Note On - Duracao: 247800 Nota: C1 Vol.: 83
Chanel 4 Note Off - Duracao: 247860 Nota: C1 Vol.: 99
Chanel 4 Note On - Duracao: 247860 Nota: C1 Vol.: 100
Chanel 7 Note Off - Duracao: 247860 Nota: C1 Vol.: 60
Chanel 7 Note On - Duracao: 247860 Nota: C1 Vol.: 60
Chanel 4 Note Off - Duracao: 247920 Nota: C1 Vol.: 100
Chanel 4 Note On - Duracao: 247920 Nota: C1 Vol.: 100
Chanel 4 Note Off - Duracao: 247980 Nota: C1 Vol.: 100
Chanel 4 Note On - Duracao: 247980 Nota: C1 Vol.: 99
Chanel 2 Note Off - Duracao: 248100 Nota: C1 Vol.: 61
Chanel 2 Note On - Duracao: 248100 Nota: C1 Vol.: 90
Chanel 4 Note Off - Duracao: 248100 Nota: C1 Vol.: 99
Chanel 4 Note On - Duracao: 248100 Nota: C1 Vol.: 93
Chanel 5 Note Off - Duracao: 248100 Nota: C1 Vol.: 54
Chanel 5 Note On - Duracao: 248100 Nota: C1 Vol.: 61
Chanel 1 Note Off - Duracao: 248220 Nota: C1 Vol.: 92
Chanel 1 Note On - Duracao: 248220 Nota: C1 Vol.: 93
Chanel 4 Note Off - Duracao: 248220 Nota: C1 Vol.: 93
Chanel 4 Note On - Duracao: 248220 Nota: C1 Vol.: 45
Chanel 9 Note Off - Duracao: 248280 Nota: C1 Vol.: 83
Chanel 9 Note On - Duracao: 248280 Nota: C1 Vol.: 78
Chanel 2 Note Off - Duracao: 248340 Nota: C1 Vol.: 90
Chanel 2 Note On - Duracao: 248340 Nota: C1 Vol.: 92
Chanel 3 Note Off - Duracao: 248340 Nota: C1 Vol.: 74
Chanel 3 Note On - Duracao: 248340 Nota: C1 Vol.: 77
Chanel 8 Note Off - Duracao: 248760 Nota: C1 Vol.: 52
Chanel 8 Note On - Duracao: 248760 Nota: C1 Vol.: 56
Chanel 9 Note Off - Duracao: 248760 Nota: C1 Vol.: 78
Chanel 9 Note On - Duracao: 248760 Nota: C1 Vol.: 81
Chanel 10 Note Off - Duracao: 249000 Nota: C1 Vol.: 52
Chanel 10 Note On - Duracao: 249000 Nota: C1 Vol.: 59
Chanel 5 Note Off - Duracao: 249060 Nota: C1 Vol.: 61
Chanel 5 Note On - Duracao: 249060 Nota: C1 Vol.: 64
Chanel 9 Note Off - Duracao: 249240 Nota: C1 Vol.: 81
Chanel 9 Note On - Duracao: 249240 Nota: C1 Vol.: 85
Chanel 2 Note Off - Duracao: 249300 Nota: C1 Vol.: 92
Chanel 2 Note On - Duracao: 249300 Nota: C1 Vol.: 92
Chanel 3 Note Off - Duracao: 249300 Nota: C1 Vol.: 77
Chanel 3 Note On - Duracao: 249300 Nota: C1 Vol.: 75
Chanel 9 Note Off - Duracao: 249480 Nota: C1 Vol.: 85
Chanel 9 Note On - Duracao: 249480 Nota: C1 Vol.: 79
Chanel 6 Note Off - Duracao: 249540 Nota: C1 Vol.: 64
Chanel 6 Note On - Duracao: 249540 Nota: C1 Vol.: 64
Chanel 9 Note Off - Duracao: 249720 Nota: C1 Vol.: 79
Chanel 9 Note On - Duracao: 249720 Nota: C1 Vol.: 68
Chanel 7 Note Off - Duracao: 249780 Nota: C1 Vol.: 60
Chanel 7 Note On - Duracao: 249780 Nota: C1 Vol.: 59
Chanel 5 Note Off - Duracao: 250020 Nota: C1 Vol.: 64
Chanel 5 Note On - Duracao: 250020 Nota: C1 Vol.: 59
Chanel 1 Note Off - Duracao: 250140 Nota: C1 Vol.: 93
Chanel 1 Note On - Duracao: 250140 Nota: C1 Vol.: 76
Chanel 9 Note Off - Duracao: 250200 Nota: C1 Vol.: 68
Chanel 9 Note On - Duracao: 250200 Nota: C1 Vol.: 57
Chanel 3 Note Off - Duracao: 250260 Nota: C1 Vol.: 75
Chanel 3 Note On - Duracao: 250260 Nota: C1 Vol.: 71
Chanel 10 Note Off - Duracao: 250920 Nota: C1 Vol.: 59
Chanel 10 Note On - Duracao: 250920 Nota: C1 Vol.: 67
Chanel 2 Note Off - Duracao: 251220 Nota: C1 Vol.: 92
Chanel 2 Note On - Duracao: 251220 Nota: C1 Vol.: 94
Chanel 3 Note Off - Duracao: 251220 Nota: C1 Vol.: 71
Chanel 3 Note On - Duracao: 251220 Nota: C1 Vol.: 75
Chanel 6 Note Off - Duracao: 251460 Nota: C1 Vol.: 64
Chanel 6 Note On - Duracao: 251460 Nota: C1 Vol.: 70
Chanel 7 Note Off - Duracao: 251700 Nota: C1 Vol.: 59
Chanel 7 Note On - Duracao: 251700 Nota: C1 Vol.: 58
Chanel 10 Note Off - Duracao: 251880 Nota: C1 Vol.: 67
Chanel 10 Note On - Duracao: 251880 Nota: C1 Vol.: 73
Chanel 5 Note Off - Duracao: 251940 Nota: C1 Vol.: 59
Chanel 5 Note On - Duracao: 251940 Nota: C1 Vol.: 64
Chanel 1 Note Off - Duracao: 252060 Nota: C1 Vol.: 76
Chanel 1 Note On - Duracao: 252060 Nota: C1 Vol.: 54
Chanel 4 Note Off - Duracao: 252060 Nota: C1 Vol.: 45
Chanel 4 Note On - Duracao: 252060 Nota: C1 Vol.: 65
Chanel 9 Note Off - Duracao: 252120 Nota: C1 Vol.: 57
Chanel 9 Note On - Duracao: 252120 Nota: C1 Vol.: 52
Chanel 3 Note Off - Duracao: 252180 Nota: C1 Vol.: 75
Chanel 3 Note On - Duracao: 252180 Nota: C1 Vol.: 89
Chanel 3 Note Off - Duracao: 252420 Nota: C1 Vol.: 89
Chanel 3 Note On - Duracao: 252420 Nota: C1 Vol.: 88
Chanel 8 Note Off - Duracao: 252600 Nota: C1 Vol.: 56
Chanel 8 Note On - Duracao: 252600 Nota: C1 Vol.: 80
Chanel 3 Note Off - Duracao: 252660 Nota: C1 Vol.: 88
Chanel 3 Note On - Duracao: 252660 Nota: C1 Vol.: 85
Chanel 3 Note Off - Duracao: 252780 Nota: C1 Vol.: 85
Chanel 3 Note On - Duracao: 252780 Nota: C1 Vol.: 72
Chanel 10 Note Off - Duracao: 252840 Nota: C1 Vol.: 73
Chanel 10 Note On - Duracao: 252840 Nota: C1 Vol.: 73
Chanel 4 Note Off - Duracao: 253020 Nota: C1 Vol.: 65
Chanel 4 Note On - Duracao: 253020 Nota: C1 Vol.: 99
Chanel 4 Note Off - Duracao: 253080 Nota: C1 Vol.: 99
Chanel 4 Note On - Duracao: 253080 Nota: C1 Vol.: 98
Chanel 4 Note Off - Duracao: 253140 Nota: C1 Vol.: 98
Chanel 4 Note On - Duracao: 253140 Nota: C1 Vol.: 98
Chanel 4 Note Off - Duracao: 253200 Nota: C1 Vol.: 98
Chanel 4 Note On - Duracao: 253200 Nota: C1 Vol.: 98
Chanel 3 Note Off - Duracao: 253260 Nota: C1 Vol.: 72
Chanel 3 Note On - Duracao: 253260 Nota: C1 Vol.: 70
Chanel 4 Note Off - Duracao: 253260 Nota: C1 Vol.: 98
Chanel 4 Note On - Duracao: 253260 Nota: C1 Vol.: 97
Chanel 4 Note Off - Duracao: 253320 Nota: C1 Vol.: 97
Chanel 4 Note On - Duracao: 253320 Nota: C1 Vol.: 98
Chanel 4 Note Off - Duracao: 253380 Nota: C1 Vol.: 98
Chanel 4 Note On - Duracao: 253380 Nota: C1 Vol.: 98
Chanel 6 Note Off - Duracao: 253380 Nota: C1 Vol.: 70
Chanel 6 Note On - Duracao: 253380 Nota: C1 Vol.: 75
Chanel 4 Note Off - Duracao: 253440 Nota: C1 Vol.: 98
Chanel 4 Note On - Duracao: 253440 Nota: C1 Vol.: 99
Chanel 4 Note Off - Duracao: 253500 Nota: C1 Vol.: 99
Chanel 4 Note On - Duracao: 253500 Nota: C1 Vol.: 100
Chanel 4 Note Off - Duracao: 253560 Nota: C1 Vol.: 100
Chanel 4 Note On - Duracao: 253560 Nota: C1 Vol.: 100
Chanel 8 Note Off - Duracao: 253560 Nota: C1 Vol.: 80
Chanel 8 Note On - Duracao: 253560 Nota: C1 Vol.: 65
Chanel 4 Note Off - Duracao: 253620 Nota: C1 Vol.: 100
Chanel 4 Note On - Duracao: 253620 Nota: C1 Vol.: 99
Chanel 7 Note Off - Duracao: 253620 Nota: C1 Vol.: 58
Chanel 7 Note On - Duracao: 253620 Nota: C1 Vol.: 57
Chanel 4 Note Off - Duracao: 253680 Nota: C1 Vol.: 99
Chanel 4 Note On - Duracao: 253680 Nota: C1 Vol.: 83
Chanel 3 Note Off - Duracao: 253740 Nota: C1 Vol.: 70
Chanel 3 Note On - Duracao: 253740 Nota: C1 Vol.: 82
Chanel 10 Note Off - Duracao: 253800 Nota: C1 Vol.: 73
Chanel 10 Note On - Duracao: 253800 Nota: C1 Vol.: 71
Chanel 5 Note Off - Duracao: 253860 Nota: C1 Vol.: 64
Chanel 5 Note On - Duracao: 253860 Nota: C1 Vol.: 53
Chanel 4 Note Off - Duracao: 253920 Nota: C1 Vol.: 83
Chanel 4 Note On - Duracao: 253920 Nota: C1 Vol.: 72
Chanel 3 Note Off - Duracao: 253980 Nota: C1 Vol.: 82
Chanel 3 Note On - Duracao: 253980 Nota: C1 Vol.: 79
Chanel 3 Note Off - Duracao: 254220 Nota: C1 Vol.: 79
Chanel 3 Note On - Duracao: 254220 Nota: C1 Vol.: 74
Chanel 6 Note Off - Duracao: 254340 Nota: C1 Vol.: 75
Chanel 6 Note On - Duracao: 254340 Nota: C1 Vol.: 64
Chanel 4 Note Off - Duracao: 254400 Nota: C1 Vol.: 72
Chanel 4 Note On - Duracao: 254400 Nota: C1 Vol.: 78
Chanel 3 Note Off - Duracao: 254460 Nota: C1 Vol.: 74
Chanel 3 Note On - Duracao: 254460 Nota: C1 Vol.: 74
Chanel 3 Note Off - Duracao: 254700 Nota: C1 Vol.: 74
Chanel 3 Note On - Duracao: 254700 Nota: C1 Vol.: 75
Chanel 10 Note Off - Duracao: 254760 Nota: C1 Vol.: 71
Chanel 10 Note On - Duracao: 254760 Nota: C1 Vol.: 69
Chanel 4 Note Off - Duracao: 254880 Nota: C1 Vol.: 78
Chanel 4 Note On - Duracao: 254880 Nota: C1 Vol.: 82
Chanel 3 Note Off - Duracao: 254940 Nota: C1 Vol.: 75
Chanel 3 Note On - Duracao: 254940 Nota: C1 Vol.: 80
Chanel 2 Note Off - Duracao: 255060 Nota: C1 Vol.: 94
Chanel 2 Note On - Duracao: 255060 Nota: C1 Vol.: 93
Chanel 3 Note Off - Duracao: 255180 Nota: C1 Vol.: 80
Chanel 3 Note On - Duracao: 255180 Nota: C1 Vol.: 80
Chanel 4 Note Off - Duracao: 255360 Nota: C1 Vol.: 82
Chanel 4 Note On - Duracao: 255360 Nota: C1 Vol.: 82
Chanel 3 Note Off - Duracao: 255420 Nota: C1 Vol.: 80
Chanel 3 Note On - Duracao: 255420 Nota: C1 Vol.: 75
Chanel 8 Note Off - Duracao: 255480 Nota: C1 Vol.: 65
Chanel 8 Note On - Duracao: 255480 Nota: C1 Vol.: 73
Chanel 7 Note Off - Duracao: 255540 Nota: C1 Vol.: 57
Chanel 7 Note On - Duracao: 255540 Nota: C1 Vol.: 55
Chanel 3 Note Off - Duracao: 255660 Nota: C1 Vol.: 75
Chanel 3 Note On - Duracao: 255660 Nota: C1 Vol.: 74
Chanel 10 Note Off - Duracao: 255720 Nota: C1 Vol.: 69
Chanel 10 Note On - Duracao: 255720 Nota: C1 Vol.: 70
Chanel 1 Note Off - Duracao: 255900 Nota: C1 Vol.: 54
Chanel 1 Note On - Duracao: 255900 Nota: C1 Vol.: 77
Chanel 3 Note Off - Duracao: 255900 Nota: C1 Vol.: 74
Chanel 3 Note On - Duracao: 255900 Nota: C1 Vol.: 82
Chanel 9 Note Off - Duracao: 255960 Nota: C1 Vol.: 52
Chanel 9 Note On - Duracao: 255960 Nota: C1 Vol.: 52
Chanel 3 Note Off - Duracao: 256020 Nota: C1 Vol.: 82
Chanel 3 Note On - Duracao: 256020 Nota: C1 Vol.: 84
Chanel 3 Note Off - Duracao: 256140 Nota: C1 Vol.: 84
Chanel 3 Note On - Duracao: 256140 Nota: C1 Vol.: 87
Chanel 3 Note Off - Duracao: 256260 Nota: C1 Vol.: 87
Chanel 3 Note On - Duracao: 256260 Nota: C1 Vol.: 80
Chanel 6 Note Off - Duracao: 256260 Nota: C1 Vol.: 64
Chanel 6 Note On - Duracao: 256260 Nota: C1 Vol.: 76
Chanel 4 Note Off - Duracao: 256320 Nota: C1 Vol.: 82
Chanel 4 Note On - Duracao: 256320 Nota: C1 Vol.: 79
Chanel 1 Note Off - Duracao: 256380 Nota: C1 Vol.: 77
Chanel 1 Note On - Duracao: 256380 Nota: C1 Vol.: 98
Chanel 1 Note Off - Duracao: 256440 Nota: C1 Vol.: 98
Chanel 1 Note On - Duracao: 256440 Nota: C1 Vol.: 95
Chanel 8 Note Off - Duracao: 256440 Nota: C1 Vol.: 73
Chanel 8 Note On - Duracao: 256440 Nota: C1 Vol.: 73
Chanel 1 Note Off - Duracao: 256500 Nota: C1 Vol.: 95
Chanel 1 Note On - Duracao: 256500 Nota: C1 Vol.: 92
Chanel 3 Note Off - Duracao: 256500 Nota: C1 Vol.: 80
Chanel 3 Note On - Duracao: 256500 Nota: C1 Vol.: 75
Chanel 1 Note Off - Duracao: 256620 Nota: C1 Vol.: 92
Chanel 1 Note On - Duracao: 256620 Nota: C1 Vol.: 90
Chanel 10 Note Off - Duracao: 256680 Nota: C1 Vol.: 70
Chanel 10 Note On - Duracao: 256680 Nota: C1 Vol.: 70
Chanel 1 Note Off - Duracao: 256740 Nota: C1 Vol.: 90
Chanel 1 Note On - Duracao: 256740 Nota: C1 Vol.: 83
Chanel 3 Note Off - Duracao: 256740 Nota: C1 Vol.: 75
Chanel 3 Note On - Duracao: 256740 Nota: C1 Vol.: 83
Chanel 3 Note Off - Duracao: 256860 Nota: C1 Vol.: 83
Chanel 3 Note On - Duracao: 256860 Nota: C1 Vol.: 82
Chanel 1 Note Off - Duracao: 256980 Nota: C1 Vol.: 83
Chanel 1 Note On - Duracao: 256980 Nota: C1 Vol.: 82
Chanel 3 Note Off - Duracao: 256980 Nota: C1 Vol.: 82
Chanel 3 Note On - Duracao: 256980 Nota: C1 Vol.: 86
Chanel 3 Note Off - Duracao: 257100 Nota: C1 Vol.: 86
Chanel 3 Note On - Duracao: 257100 Nota: C1 Vol.: 74
Chanel 1 Note Off - Duracao: 257220 Nota: C1 Vol.: 82
Chanel 1 Note On - Duracao: 257220 Nota: C1 Vol.: 88
Chanel 6 Note Off - Duracao: 257220 Nota: C1 Vol.: 76
Chanel 6 Note On - Duracao: 257220 Nota: C1 Vol.: 84
Chanel 4 Note Off - Duracao: 257280 Nota: C1 Vol.: 79
Chanel 4 Note On - Duracao: 257280 Nota: C1 Vol.: 83
Chanel 1 Note Off - Duracao: 257340 Nota: C1 Vol.: 88
Chanel 1 Note On - Duracao: 257340 Nota: C1 Vol.: 87
Chanel 8 Note Off - Duracao: 257400 Nota: C1 Vol.: 73
Chanel 8 Note On - Duracao: 257400 Nota: C1 Vol.: 71
Chanel 1 Note Off - Duracao: 257460 Nota: C1 Vol.: 87
Chanel 1 Note On - Duracao: 257460 Nota: C1 Vol.: 87
Chanel 7 Note Off - Duracao: 257460 Nota: C1 Vol.: 55
Chanel 7 Note On - Duracao: 257460 Nota: C1 Vol.: 51
Chanel 1 Note Off - Duracao: 257580 Nota: C1 Vol.: 87
Chanel 1 Note On - Duracao: 257580 Nota: C1 Vol.: 94
Chanel 3 Note Off - Duracao: 257580 Nota: C1 Vol.: 74
Chanel 3 Note On - Duracao: 257580 Nota: C1 Vol.: 75
Chanel 10 Note Off - Duracao: 257640 Nota: C1 Vol.: 70
Chanel 10 Note On - Duracao: 257640 Nota: C1 Vol.: 69
Chanel 1 Note Off - Duracao: 257700 Nota: C1 Vol.: 94
Chanel 1 Note On - Duracao: 257700 Nota: C1 Vol.: 92
Chanel 5 Note Off - Duracao: 257700 Nota: C1 Vol.: 53
Chanel 5 Note On - Duracao: 257700 Nota: C1 Vol.: 66
Chanel 6 Note Off - Duracao: 257700 Nota: C1 Vol.: 84
Chanel 6 Note On - Duracao: 257700 Nota: C1 Vol.: 82
Chanel 1 Note Off - Duracao: 257820 Nota: C1 Vol.: 92
Chanel 1 Note On - Duracao: 257820 Nota: C1 Vol.: 89
Chanel 1 Note Off - Duracao: 257940 Nota: C1 Vol.: 89
Chanel 1 Note On - Duracao: 257940 Nota: C1 Vol.: 85
Chanel 1 Note Off - Duracao: 258060 Nota: C1 Vol.: 85
Chanel 1 Note On - Duracao: 258060 Nota: C1 Vol.: 83
Chanel 3 Note Off - Duracao: 258060 Nota: C1 Vol.: 75
Chanel 3 Note On - Duracao: 258060 Nota: C1 Vol.: 83
Chanel 6 Note Off - Duracao: 258180 Nota: C1 Vol.: 82
Chanel 6 Note On - Duracao: 258180 Nota: C1 Vol.: 63
Chanel 4 Note Off - Duracao: 258240 Nota: C1 Vol.: 83
Chanel 4 Note On - Duracao: 258240 Nota: C1 Vol.: 87
Chanel 1 Note Off - Duracao: 258300 Nota: C1 Vol.: 83
Chanel 1 Note On - Duracao: 258300 Nota: C1 Vol.: 95
Chanel 8 Note Off - Duracao: 258360 Nota: C1 Vol.: 71
Chanel 8 Note On - Duracao: 258360 Nota: C1 Vol.: 69
Chanel 1 Note Off - Duracao: 258420 Nota: C1 Vol.: 95
Chanel 1 Note On - Duracao: 258420 Nota: C1 Vol.: 80
Chanel 3 Note Off - Duracao: 258540 Nota: C1 Vol.: 83
Chanel 3 Note On - Duracao: 258540 Nota: C1 Vol.: 66
Chanel 10 Note Off - Duracao: 258600 Nota: C1 Vol.: 69
Chanel 10 Note On - Duracao: 258600 Nota: C1 Vol.: 73
Chanel 5 Note Off - Duracao: 258660 Nota: C1 Vol.: 66
Chanel 5 Note On - Duracao: 258660 Nota: C1 Vol.: 68
Chanel 4 Note Off - Duracao: 258720 Nota: C1 Vol.: 87
Chanel 4 Note On - Duracao: 258720 Nota: C1 Vol.: 91
Chanel 1 Note Off - Duracao: 258900 Nota: C1 Vol.: 80
Chanel 1 Note On - Duracao: 258900 Nota: C1 Vol.: 87
Chanel 2 Note Off - Duracao: 258900 Nota: C1 Vol.: 93
Chanel 2 Note On - Duracao: 258900 Nota: C1 Vol.: 94
Chanel 4 Note Off - Duracao: 258960 Nota: C1 Vol.: 91
Chanel 4 Note On - Duracao: 258960 Nota: C1 Vol.: 98
Chanel 4 Note Off - Duracao: 259080 Nota: C1 Vol.: 98
Chanel 4 Note On - Duracao: 259080 Nota: C1 Vol.: 96
Chanel 4 Note Off - Duracao: 259140 Nota: C1 Vol.: 96
Chanel 4 Note On - Duracao: 259140 Nota: C1 Vol.: 96
Chanel 4 Note Off - Duracao: 259200 Nota: C1 Vol.: 96
Chanel 4 Note On - Duracao: 259200 Nota: C1 Vol.: 95
Chanel 4 Note Off - Duracao: 259260 Nota: C1 Vol.: 95
Chanel 4 Note On - Duracao: 259260 Nota: C1 Vol.: 85
Chanel 8 Note Off - Duracao: 259320 Nota: C1 Vol.: 69
Chanel 8 Note On - Duracao: 259320 Nota: C1 Vol.: 54
Chanel 1 Note Off - Duracao: 259380 Nota: C1 Vol.: 87
Chanel 1 Note On - Duracao: 259380 Nota: C1 Vol.: 87
Chanel 7 Note Off - Duracao: 259380 Nota: C1 Vol.: 51
Chanel 7 Note On - Duracao: 259380 Nota: C1 Vol.: 46
Chanel 4 Note Off - Duracao: 259500 Nota: C1 Vol.: 85
Chanel 4 Note On - Duracao: 259500 Nota: C1 Vol.: 64
Chanel 10 Note Off - Duracao: 259560 Nota: C1 Vol.: 73
Chanel 10 Note On - Duracao: 259560 Nota: C1 Vol.: 71
Chanel 5 Note Off - Duracao: 259620 Nota: C1 Vol.: 68
Chanel 5 Note On - Duracao: 259620 Nota: C1 Vol.: 67
Chanel 9 Note Off - Duracao: 259800 Nota: C1 Vol.: 52
Chanel 9 Note On - Duracao: 259800 Nota: C1 Vol.: 71
Chanel 1 Note Off - Duracao: 259860 Nota: C1 Vol.: 87
Chanel 1 Note On - Duracao: 259860 Nota: C1 Vol.: 89
Chanel 1 Note Off - Duracao: 260100 Nota: C1 Vol.: 89
Chanel 1 Note On - Duracao: 260100 Nota: C1 Vol.: 78
Chanel 6 Note Off - Duracao: 260100 Nota: C1 Vol.: 63
Chanel 6 Note On - Duracao: 260100 Nota: C1 Vol.: 66
Chanel 3 Note Off - Duracao: 260460 Nota: C1 Vol.: 66
Chanel 3 Note On - Duracao: 260460 Nota: C1 Vol.: 63
Chanel 4 Note Off - Duracao: 260460 Nota: C1 Vol.: 64
Chanel 4 Note On - Duracao: 260460 Nota: C1 Vol.: 57
Chanel 10 Note Off - Duracao: 260520 Nota: C1 Vol.: 71
Chanel 10 Note On - Duracao: 260520 Nota: C1 Vol.: 74
Chanel 1 Note Off - Duracao: 260580 Nota: C1 Vol.: 78
Chanel 1 Note On - Duracao: 260580 Nota: C1 Vol.: 95
Chanel 1 Note Off - Duracao: 260700 Nota: C1 Vol.: 95
Chanel 1 Note On - Duracao: 260700 Nota: C1 Vol.: 91
Chanel 9 Note Off - Duracao: 260760 Nota: C1 Vol.: 71
Chanel 9 Note On - Duracao: 260760 Nota: C1 Vol.: 81
Chanel 1 Note Off - Duracao: 260820 Nota: C1 Vol.: 91
Chanel 1 Note On - Duracao: 260820 Nota: C1 Vol.: 90
Chanel 1 Note Off - Duracao: 260940 Nota: C1 Vol.: 90
Chanel 1 Note On - Duracao: 260940 Nota: C1 Vol.: 97
Chanel 1 Note Off - Duracao: 261000 Nota: C1 Vol.: 97
Chanel 1 Note On - Duracao: 261000 Nota: C1 Vol.: 95
Chanel 1 Note Off - Duracao: 261060 Nota: C1 Vol.: 95
Chanel 1 Note On - Duracao: 261060 Nota: C1 Vol.: 93
Chanel 1 Note Off - Duracao: 261180 Nota: C1 Vol.: 93
Chanel 1 Note On - Duracao: 261180 Nota: C1 Vol.: 92
Chanel 9 Note Off - Duracao: 261240 Nota: C1 Vol.: 81
Chanel 9 Note On - Duracao: 261240 Nota: C1 Vol.: 83
Chanel 1 Note Off - Duracao: 261300 Nota: C1 Vol.: 92
Chanel 1 Note On - Duracao: 261300 Nota: C1 Vol.: 93
Chanel 7 Note Off - Duracao: 261300 Nota: C1 Vol.: 46
Chanel 7 Note On - Duracao: 261300 Nota: C1 Vol.: 50
Chanel 1 Note Off - Duracao: 261360 Nota: C1 Vol.: 93
Chanel 1 Note On - Duracao: 261360 Nota: C1 Vol.: 93
Chanel 1 Note Off - Duracao: 261420 Nota: C1 Vol.: 93
Chanel 1 Note On - Duracao: 261420 Nota: C1 Vol.: 94
Chanel 1 Note Off - Duracao: 261480 Nota: C1 Vol.: 94
Chanel 1 Note On - Duracao: 261480 Nota: C1 Vol.: 97
Chanel 10 Note Off - Duracao: 261480 Nota: C1 Vol.: 74
Chanel 10 Note On - Duracao: 261480 Nota: C1 Vol.: 76
Chanel 1 Note Off - Duracao: 261540 Nota: C1 Vol.: 97
Chanel 1 Note On - Duracao: 261540 Nota: C1 Vol.: 94
Chanel 5 Note Off - Duracao: 261540 Nota: C1 Vol.: 67
Chanel 5 Note On - Duracao: 261540 Nota: C1 Vol.: 68
Chanel 1 Note Off - Duracao: 261600 Nota: C1 Vol.: 94
Chanel 1 Note On - Duracao: 261600 Nota: C1 Vol.: 97
Chanel 1 Note Off - Duracao: 261660 Nota: C1 Vol.: 97
Chanel 1 Note On - Duracao: 261660 Nota: C1 Vol.: 95
Chanel 1 Note Off - Duracao: 261720 Nota: C1 Vol.: 95
Chanel 1 Note On - Duracao: 261720 Nota: C1 Vol.: 98
Chanel 9 Note Off - Duracao: 261720 Nota: C1 Vol.: 83
Chanel 9 Note On - Duracao: 261720 Nota: C1 Vol.: 86
Chanel 1 Note Off - Duracao: 261780 Nota: C1 Vol.: 98
Chanel 1 Note On - Duracao: 261780 Nota: C1 Vol.: 97
Chanel 1 Note Off - Duracao: 261840 Nota: C1 Vol.: 97
Chanel 1 Note On - Duracao: 261840 Nota: C1 Vol.: 95
Chanel 1 Note Off - Duracao: 261900 Nota: C1 Vol.: 95
Chanel 1 Note On - Duracao: 261900 Nota: C1 Vol.: 98
Chanel 1 Note Off - Duracao: 261960 Nota: C1 Vol.: 98
Chanel 1 Note On - Duracao: 261960 Nota: C1 Vol.: 96
Chanel 10 Note Off - Duracao: 261960 Nota: C1 Vol.: 76
Chanel 10 Note On - Duracao: 261960 Nota: C1 Vol.: 73
Chanel 1 Note Off - Duracao: 262020 Nota: C1 Vol.: 96
Chanel 1 Note On - Duracao: 262020 Nota: C1 Vol.: 99
Chanel 6 Note Off - Duracao: 262020 Nota: C1 Vol.: 66
Chanel 6 Note On - Duracao: 262020 Nota: C1 Vol.: 64
Chanel 1 Note Off - Duracao: 262080 Nota: C1 Vol.: 99
Chanel 1 Note On - Duracao: 262080 Nota: C1 Vol.: 97
Chanel 1 Note Off - Duracao: 262140 Nota: C1 Vol.: 97
Chanel 1 Note On - Duracao: 262140 Nota: C1 Vol.: 95
Chanel 1 Note Off - Duracao: 262200 Nota: C1 Vol.: 95
Chanel 1 Note On - Duracao: 262200 Nota: C1 Vol.: 91
Chanel 9 Note Off - Duracao: 262200 Nota: C1 Vol.: 86
Chanel 9 Note On - Duracao: 262200 Nota: C1 Vol.: 88
Chanel 7 Note Off - Duracao: 262260 Nota: C1 Vol.: 50
Chanel 7 Note On - Duracao: 262260 Nota: C1 Vol.: 40
Chanel 1 Note Off - Duracao: 262320 Nota: C1 Vol.: 91
Chanel 1 Note On - Duracao: 262320 Nota: C1 Vol.: 94
Chanel 1 Note Off - Duracao: 262380 Nota: C1 Vol.: 94
Chanel 1 Note On - Duracao: 262380 Nota: C1 Vol.: 95
Chanel 3 Note Off - Duracao: 262380 Nota: C1 Vol.: 63
Chanel 3 Note On - Duracao: 262380 Nota: C1 Vol.: 57
Chanel 4 Note Off - Duracao: 262380 Nota: C1 Vol.: 57
Chanel 4 Note On - Duracao: 262380 Nota: C1 Vol.: 53
Chanel 1 Note Off - Duracao: 262440 Nota: C1 Vol.: 95
Chanel 1 Note On - Duracao: 262440 Nota: C1 Vol.: 98
Chanel 10 Note Off - Duracao: 262440 Nota: C1 Vol.: 73
Chanel 10 Note On - Duracao: 262440 Nota: C1 Vol.: 64
Chanel 1 Note Off - Duracao: 262500 Nota: C1 Vol.: 98
Chanel 1 Note On - Duracao: 262500 Nota: C1 Vol.: 98
Chanel 1 Note Off - Duracao: 262560 Nota: C1 Vol.: 98
Chanel 1 Note On - Duracao: 262560 Nota: C1 Vol.: 98
Chanel 1 Note Off - Duracao: 262680 Nota: C1 Vol.: 98
Chanel 1 Note On - Duracao: 262680 Nota: C1 Vol.: 89
Chanel 9 Note Off - Duracao: 262680 Nota: C1 Vol.: 88
Chanel 9 Note On - Duracao: 262680 Nota: C1 Vol.: 89
Chanel 2 Note Off - Duracao: 262740 Nota: C1 Vol.: 94
Chanel 2 Note On - Duracao: 262740 Nota: C1 Vol.: 92
Chanel 1 Note Off - Duracao: 262920 Nota: C1 Vol.: 89
Chanel 1 Note On - Duracao: 262920 Nota: C1 Vol.: 87
Chanel 8 Note Off - Duracao: 263160 Nota: C1 Vol.: 54
Chanel 8 Note On - Duracao: 263160 Nota: C1 Vol.: 52
Chanel 9 Note Off - Duracao: 263160 Nota: C1 Vol.: 89
Chanel 9 Note On - Duracao: 263160 Nota: C1 Vol.: 87
Chanel 7 Note Off - Duracao: 263220 Nota: C1 Vol.: 40
Chanel 7 Note On - Duracao: 263220 Nota: C1 Vol.: 41
Chanel 1 Note Off - Duracao: 263400 Nota: C1 Vol.: 87
Chanel 1 Note On - Duracao: 263400 Nota: C1 Vol.: 93
Chanel 10 Note Off - Duracao: 263400 Nota: C1 Vol.: 64
Chanel 10 Note On - Duracao: 263400 Nota: C1 Vol.: 63
Chanel 5 Note Off - Duracao: 263460 Nota: C1 Vol.: 68
Chanel 5 Note On - Duracao: 263460 Nota: C1 Vol.: 69
Chanel 9 Note Off - Duracao: 263640 Nota: C1 Vol.: 87
Chanel 9 Note On - Duracao: 263640 Nota: C1 Vol.: 90
Chanel 1 Note Off - Duracao: 263880 Nota: C1 Vol.: 93
Chanel 1 Note On - Duracao: 263880 Nota: C1 Vol.: 93
Chanel 6 Note Off - Duracao: 263940 Nota: C1 Vol.: 64
Chanel 6 Note On - Duracao: 263940 Nota: C1 Vol.: 67
Chanel 9 Note Off - Duracao: 264120 Nota: C1 Vol.: 90
Chanel 9 Note On - Duracao: 264120 Nota: C1 Vol.: 84
Chanel 7 Note Off - Duracao: 264180 Nota: C1 Vol.: 41
Chanel 7 Note On - Duracao: 264180 Nota: C1 Vol.: 42
Chanel 3 Note Off - Duracao: 264300 Nota: C1 Vol.: 57
Chanel 3 Note On - Duracao: 264300 Nota: C1 Vol.: 64
Chanel 1 Note Off - Duracao: 264360 Nota: C1 Vol.: 93
Chanel 1 Note On - Duracao: 264360 Nota: C1 Vol.: 91
Chanel 5 Note Off - Duracao: 264420 Nota: C1 Vol.: 69
Chanel 5 Note On - Duracao: 264420 Nota: C1 Vol.: 70
Chanel 9 Note Off - Duracao: 264600 Nota: C1 Vol.: 84
Chanel 9 Note On - Duracao: 264600 Nota: C1 Vol.: 86
Chanel 1 Note Off - Duracao: 264840 Nota: C1 Vol.: 91
Chanel 1 Note On - Duracao: 264840 Nota: C1 Vol.: 88
Chanel 9 Note Off - Duracao: 265080 Nota: C1 Vol.: 86
Chanel 9 Note On - Duracao: 265080 Nota: C1 Vol.: 76
Chanel 7 Note Off - Duracao: 265140 Nota: C1 Vol.: 42
Chanel 7 Note On - Duracao: 265140 Nota: C1 Vol.: 40
Chanel 1 Note Off - Duracao: 265320 Nota: C1 Vol.: 88
Chanel 1 Note On - Duracao: 265320 Nota: C1 Vol.: 90
Chanel 10 Note Off - Duracao: 265320 Nota: C1 Vol.: 63
Chanel 10 Note On - Duracao: 265320 Nota: C1 Vol.: 61
Chanel 5 Note Off - Duracao: 265380 Nota: C1 Vol.: 70
Chanel 5 Note On - Duracao: 265380 Nota: C1 Vol.: 67
Chanel 1 Note Off - Duracao: 265800 Nota: C1 Vol.: 90
Chanel 1 Note On - Duracao: 265800 Nota: C1 Vol.: 78
Chanel 6 Note Off - Duracao: 265860 Nota: C1 Vol.: 67
Chanel 6 Note On - Duracao: 265860 Nota: C1 Vol.: 87
Chanel 9 Note Off - Duracao: 266040 Nota: C1 Vol.: 76
Chanel 9 Note On - Duracao: 266040 Nota: C1 Vol.: 84
Chanel 7 Note Off - Duracao: 266100 Nota: C1 Vol.: 40
Chanel 7 Note On - Duracao: 266100 Nota: C1 Vol.: 40
Chanel 3 Note Off - Duracao: 266220 Nota: C1 Vol.: 64
Chanel 3 Note On - Duracao: 266220 Nota: C1 Vol.: 66
Chanel 4 Note Off - Duracao: 266220 Nota: C1 Vol.: 53
Chanel 4 Note On - Duracao: 266220 Nota: C1 Vol.: 49
Chanel 9 Note Off - Duracao: 266280 Nota: C1 Vol.: 84
Chanel 9 Note On - Duracao: 266280 Nota: C1 Vol.: 89
Chanel 5 Note Off - Duracao: 266340 Nota: C1 Vol.: 67
Chanel 5 Note On - Duracao: 266340 Nota: C1 Vol.: 64
Chanel 6 Note Off - Duracao: 266340 Nota: C1 Vol.: 87
Chanel 6 Note On - Duracao: 266340 Nota: C1 Vol.: 88
Chanel 9 Note Off - Duracao: 266520 Nota: C1 Vol.: 89
Chanel 9 Note On - Duracao: 266520 Nota: C1 Vol.: 90
Chanel 2 Note Off - Duracao: 266580 Nota: C1 Vol.: 92
Chanel 2 Note On - Duracao: 266580 Nota: C1 Vol.: 95
Chanel 1 Note Off - Duracao: 266760 Nota: C1 Vol.: 78
Chanel 1 Note On - Duracao: 266760 Nota: C1 Vol.: 91
Chanel 9 Note Off - Duracao: 266760 Nota: C1 Vol.: 90
Chanel 9 Note On - Duracao: 266760 Nota: C1 Vol.: 71
Chanel 6 Note Off - Duracao: 266820 Nota: C1 Vol.: 88
Chanel 6 Note On - Duracao: 266820 Nota: C1 Vol.: 71
Chanel 8 Note Off - Duracao: 267000 Nota: C1 Vol.: 52
Chanel 8 Note On - Duracao: 267000 Nota: C1 Vol.: 55
Chanel 7 Note Off - Duracao: 267060 Nota: C1 Vol.: 40
Chanel 7 Note On - Duracao: 267060 Nota: C1 Vol.: 41
Chanel 3 Note Off - Duracao: 267180 Nota: C1 Vol.: 66
Chanel 3 Note On - Duracao: 267180 Nota: C1 Vol.: 63
Chanel 1 Note Off - Duracao: 267240 Nota: C1 Vol.: 91
Chanel 1 Note On - Duracao: 267240 Nota: C1 Vol.: 74
Chanel 9 Note Off - Duracao: 267720 Nota: C1 Vol.: 71
Chanel 9 Note On - Duracao: 267720 Nota: C1 Vol.: 75
Chanel 7 Note Off - Duracao: 268020 Nota: C1 Vol.: 41
Chanel 7 Note On - Duracao: 268020 Nota: C1 Vol.: 41
Chanel 1 Note Off - Duracao: 268200 Nota: C1 Vol.: 74
Chanel 1 Note On - Duracao: 268200 Nota: C1 Vol.: 72
Chanel 9 Note Off - Duracao: 268200 Nota: C1 Vol.: 75
Chanel 9 Note On - Duracao: 268200 Nota: C1 Vol.: 63
Chanel 5 Note Off - Duracao: 268260 Nota: C1 Vol.: 64
Chanel 5 Note On - Duracao: 268260 Nota: C1 Vol.: 59
Chanel 6 Note Off - Duracao: 268740 Nota: C1 Vol.: 71
Chanel 6 Note On - Duracao: 268740 Nota: C1 Vol.: 60
Chanel 8 Note Off - Duracao: 268920 Nota: C1 Vol.: 55
Chanel 8 Note On - Duracao: 268920 Nota: C1 Vol.: 59
Chanel 7 Note Off - Duracao: 268980 Nota: C1 Vol.: 41
Chanel 7 Note On - Duracao: 268980 Nota: C1 Vol.: 40
Chanel 3 Note Off - Duracao: 269100 Nota: C1 Vol.: 63
Chanel 3 Note On - Duracao: 269100 Nota: C1 Vol.: 79
Chanel 1 Note Off - Duracao: 269160 Nota: C1 Vol.: 72
Chanel 1 Note On - Duracao: 269160 Nota: C1 Vol.: 75
Chanel 9 Note Off - Duracao: 269160 Nota: C1 Vol.: 63
Chanel 9 Note On - Duracao: 269160 Nota: C1 Vol.: 55
Chanel 10 Note Off - Duracao: 269160 Nota: C1 Vol.: 61
Chanel 10 Note On - Duracao: 269160 Nota: C1 Vol.: 67
Chanel 3 Note Off - Duracao: 269580 Nota: C1 Vol.: 79
Chanel 3 Note On - Duracao: 269580 Nota: C1 Vol.: 68
Chanel 1 Note Off - Duracao: 269640 Nota: C1 Vol.: 75
Chanel 1 Note On - Duracao: 269640 Nota: C1 Vol.: 94
Chanel 1 Note Off - Duracao: 269760 Nota: C1 Vol.: 94
Chanel 1 Note On - Duracao: 269760 Nota: C1 Vol.: 95
Chanel 1 Note Off - Duracao: 269880 Nota: C1 Vol.: 95
Chanel 1 Note On - Duracao: 269880 Nota: C1 Vol.: 92
Chanel 7 Note Off - Duracao: 269940 Nota: C1 Vol.: 40
Chanel 7 Note On - Duracao: 269940 Nota: C1 Vol.: 40
Chanel 1 Note Off - Duracao: 270000 Nota: C1 Vol.: 92
Chanel 1 Note On - Duracao: 270000 Nota: C1 Vol.: 82
Chanel 4 Note Off - Duracao: 270060 Nota: C1 Vol.: 49
Chanel 4 Note On - Duracao: 270060 Nota: C1 Vol.: 50
Chanel 5 Note Off - Duracao: 270180 Nota: C1 Vol.: 59
Chanel 5 Note On - Duracao: 270180 Nota: C1 Vol.: 56
Chanel 2 Note Off - Duracao: 270420 Nota: C1 Vol.: 95
Chanel 2 Note On - Duracao: 270420 Nota: C1 Vol.: 93
Chanel 1 Note Off - Duracao: 270480 Nota: C1 Vol.: 82
Chanel 1 Note On - Duracao: 270480 Nota: C1 Vol.: 78
Chanel 3 Note Off - Duracao: 270540 Nota: C1 Vol.: 68
Chanel 3 Note On - Duracao: 270540 Nota: C1 Vol.: 75
Chanel 6 Note Off - Duracao: 270660 Nota: C1 Vol.: 60
Chanel 6 Note On - Duracao: 270660 Nota: C1 Vol.: 66
Chanel 8 Note Off - Duracao: 270840 Nota: C1 Vol.: 59
Chanel 8 Note On - Duracao: 270840 Nota: C1 Vol.: 60
Chanel 7 Note Off - Duracao: 270900 Nota: C1 Vol.: 40
Chanel 7 Note On - Duracao: 270900 Nota: C1 Vol.: 42
Chanel 1 Note Off - Duracao: 270960 Nota: C1 Vol.: 78
Chanel 1 Note On - Duracao: 270960 Nota: C1 Vol.: 78
Chanel 3 Note Off - Duracao: 271020 Nota: C1 Vol.: 75
Chanel 3 Note On - Duracao: 271020 Nota: C1 Vol.: 76
Chanel 9 Note Off - Duracao: 271080 Nota: C1 Vol.: 55
Chanel 9 Note On - Duracao: 271080 Nota: C1 Vol.: 69
Chanel 10 Note Off - Duracao: 271080 Nota: C1 Vol.: 67
Chanel 10 Note On - Duracao: 271080 Nota: C1 Vol.: 81
Chanel 7 Note Off - Duracao: 271380 Nota: C1 Vol.: 42
Chanel 7 Note On - Duracao: 271380 Nota: C1 Vol.: 44
Chanel 7 Note Off - Duracao: 271860 Nota: C1 Vol.: 44
Chanel 7 Note On - Duracao: 271860 Nota: C1 Vol.: 45
Chanel 1 Note Off - Duracao: 271920 Nota: C1 Vol.: 78
Chanel 1 Note On - Duracao: 271920 Nota: C1 Vol.: 76
Chanel 3 Note Off - Duracao: 271980 Nota: C1 Vol.: 76
Chanel 3 Note On - Duracao: 271980 Nota: C1 Vol.: 64
Chanel 9 Note Off - Duracao: 272040 Nota: C1 Vol.: 69
Chanel 9 Note On - Duracao: 272040 Nota: C1 Vol.: 74
Chanel 10 Note Off - Duracao: 272040 Nota: C1 Vol.: 81
Chanel 10 Note On - Duracao: 272040 Nota: C1 Vol.: 85
Chanel 5 Note Off - Duracao: 272100 Nota: C1 Vol.: 56
Chanel 5 Note On - Duracao: 272100 Nota: C1 Vol.: 57
Chanel 7 Note Off - Duracao: 272340 Nota: C1 Vol.: 45
Chanel 7 Note On - Duracao: 272340 Nota: C1 Vol.: 47
Chanel 6 Note Off - Duracao: 272580 Nota: C1 Vol.: 66
Chanel 6 Note On - Duracao: 272580 Nota: C1 Vol.: 63
Chanel 8 Note Off - Duracao: 272760 Nota: C1 Vol.: 60
Chanel 8 Note On - Duracao: 272760 Nota: C1 Vol.: 55
Chanel 7 Note Off - Duracao: 272820 Nota: C1 Vol.: 47
Chanel 7 Note On - Duracao: 272820 Nota: C1 Vol.: 48
Chanel 1 Note Off - Duracao: 272880 Nota: C1 Vol.: 76
Chanel 1 Note On - Duracao: 272880 Nota: C1 Vol.: 78
Chanel 9 Note Off - Duracao: 273000 Nota: C1 Vol.: 74
Chanel 9 Note On - Duracao: 273000 Nota: C1 Vol.: 71
Chanel 10 Note Off - Duracao: 273000 Nota: C1 Vol.: 85
Chanel 10 Note On - Duracao: 273000 Nota: C1 Vol.: 88
Chanel 7 Note Off - Duracao: 273300 Nota: C1 Vol.: 48
Chanel 7 Note On - Duracao: 273300 Nota: C1 Vol.: 49
Chanel 1 Note Off - Duracao: 273360 Nota: C1 Vol.: 78
Chanel 1 Note On - Duracao: 273360 Nota: C1 Vol.: 79
Chanel 7 Note Off - Duracao: 273780 Nota: C1 Vol.: 49
Chanel 7 Note On - Duracao: 273780 Nota: C1 Vol.: 50
Chanel 1 Note Off - Duracao: 273840 Nota: C1 Vol.: 79
Chanel 1 Note On - Duracao: 273840 Nota: C1 Vol.: 83
Chanel 3 Note Off - Duracao: 273900 Nota: C1 Vol.: 64
Chanel 3 Note On - Duracao: 273900 Nota: C1 Vol.: 69
Chanel 4 Note Off - Duracao: 273900 Nota: C1 Vol.: 50
Chanel 4 Note On - Duracao: 273900 Nota: C1 Vol.: 70
Chanel 9 Note Off - Duracao: 273960 Nota: C1 Vol.: 71
Chanel 9 Note On - Duracao: 273960 Nota: C1 Vol.: 71
Chanel 10 Note Off - Duracao: 273960 Nota: C1 Vol.: 88
Chanel 10 Note On - Duracao: 273960 Nota: C1 Vol.: 91
Chanel 2 Note Off - Duracao: 274260 Nota: C1 Vol.: 93
Chanel 2 Note On - Duracao: 274260 Nota: C1 Vol.: 92
Chanel 7 Note Off - Duracao: 274260 Nota: C1 Vol.: 50
Chanel 7 Note On - Duracao: 274260 Nota: C1 Vol.: 49
Chanel 1 Note Off - Duracao: 274320 Nota: C1 Vol.: 83
Chanel 1 Note On - Duracao: 274320 Nota: C1 Vol.: 89
Chanel 9 Note Off - Duracao: 274440 Nota: C1 Vol.: 71
Chanel 9 Note On - Duracao: 274440 Nota: C1 Vol.: 69
Chanel 10 Note Off - Duracao: 274440 Nota: C1 Vol.: 91
Chanel 10 Note On - Duracao: 274440 Nota: C1 Vol.: 89
Chanel 6 Note Off - Duracao: 274500 Nota: C1 Vol.: 63
Chanel 6 Note On - Duracao: 274500 Nota: C1 Vol.: 70
Chanel 1 Note Off - Duracao: 274560 Nota: C1 Vol.: 89
Chanel 1 Note On - Duracao: 274560 Nota: C1 Vol.: 85
Chanel 8 Note Off - Duracao: 274680 Nota: C1 Vol.: 55
Chanel 8 Note On - Duracao: 274680 Nota: C1 Vol.: 56
Chanel 7 Note Off - Duracao: 274740 Nota: C1 Vol.: 49
Chanel 7 Note On - Duracao: 274740 Nota: C1 Vol.: 48
Chanel 1 Note Off - Duracao: 274800 Nota: C1 Vol.: 85
Chanel 1 Note On - Duracao: 274800 Nota: C1 Vol.: 89
Chanel 3 Note Off - Duracao: 274860 Nota: C1 Vol.: 69
Chanel 3 Note On - Duracao: 274860 Nota: C1 Vol.: 65
Chanel 4 Note Off - Duracao: 274860 Nota: C1 Vol.: 70
Chanel 4 Note On - Duracao: 274860 Nota: C1 Vol.: 67
Chanel 1 Note Off - Duracao: 274920 Nota: C1 Vol.: 89
Chanel 1 Note On - Duracao: 274920 Nota: C1 Vol.: 95
Chanel 9 Note Off - Duracao: 274920 Nota: C1 Vol.: 69
Chanel 9 Note On - Duracao: 274920 Nota: C1 Vol.: 74
Chanel 1 Note Off - Duracao: 275040 Nota: C1 Vol.: 95
Chanel 1 Note On - Duracao: 275040 Nota: C1 Vol.: 98
Chanel 1 Note Off - Duracao: 275100 Nota: C1 Vol.: 98
Chanel 1 Note On - Duracao: 275100 Nota: C1 Vol.: 93
Chanel 1 Note Off - Duracao: 275220 Nota: C1 Vol.: 93
Chanel 1 Note On - Duracao: 275220 Nota: C1 Vol.: 95
Chanel 7 Note Off - Duracao: 275220 Nota: C1 Vol.: 48
Chanel 7 Note On - Duracao: 275220 Nota: C1 Vol.: 48
Chanel 1 Note Off - Duracao: 275340 Nota: C1 Vol.: 95
Chanel 1 Note On - Duracao: 275340 Nota: C1 Vol.: 96
Chanel 9 Note Off - Duracao: 275400 Nota: C1 Vol.: 74
Chanel 9 Note On - Duracao: 275400 Nota: C1 Vol.: 70
Chanel 10 Note Off - Duracao: 275400 Nota: C1 Vol.: 89
Chanel 10 Note On - Duracao: 275400 Nota: C1 Vol.: 87
Chanel 1 Note Off - Duracao: 275460 Nota: C1 Vol.: 96
Chanel 1 Note On - Duracao: 275460 Nota: C1 Vol.: 97
Chanel 6 Note Off - Duracao: 275460 Nota: C1 Vol.: 70
Chanel 6 Note On - Duracao: 275460 Nota: C1 Vol.: 67
Chanel 1 Note Off - Duracao: 275580 Nota: C1 Vol.: 97
Chanel 1 Note On - Duracao: 275580 Nota: C1 Vol.: 75
Chanel 7 Note Off - Duracao: 275700 Nota: C1 Vol.: 48
Chanel 7 Note On - Duracao: 275700 Nota: C1 Vol.: 48
Chanel 9 Note Off - Duracao: 275880 Nota: C1 Vol.: 70
Chanel 9 Note On - Duracao: 275880 Nota: C1 Vol.: 67
Chanel 5 Note Off - Duracao: 275940 Nota: C1 Vol.: 57
Chanel 5 Note On - Duracao: 275940 Nota: C1 Vol.: 60
Chanel 1 Note Off - Duracao: 276060 Nota: C1 Vol.: 75
Chanel 1 Note On - Duracao: 276060 Nota: C1 Vol.: 51
Chanel 7 Note Off - Duracao: 276180 Nota: C1 Vol.: 48
Chanel 7 Note On - Duracao: 276180 Nota: C1 Vol.: 46
Chanel 10 Note Off - Duracao: 276360 Nota: C1 Vol.: 87
Chanel 10 Note On - Duracao: 276360 Nota: C1 Vol.: 87
Chanel 6 Note Off - Duracao: 276420 Nota: C1 Vol.: 67
Chanel 6 Note On - Duracao: 276420 Nota: C1 Vol.: 68
Chanel 8 Note Off - Duracao: 276600 Nota: C1 Vol.: 56
Chanel 8 Note On - Duracao: 276600 Nota: C1 Vol.: 57
Chanel 7 Note Off - Duracao: 276660 Nota: C1 Vol.: 46
Chanel 7 Note On - Duracao: 276660 Nota: C1 Vol.: 47
Chanel 3 Note Off - Duracao: 276780 Nota: C1 Vol.: 65
Chanel 3 Note On - Duracao: 276780 Nota: C1 Vol.: 69
Chanel 4 Note Off - Duracao: 276780 Nota: C1 Vol.: 67
Chanel 4 Note On - Duracao: 276780 Nota: C1 Vol.: 70
Chanel 9 Note Off - Duracao: 276840 Nota: C1 Vol.: 67
Chanel 9 Note On - Duracao: 276840 Nota: C1 Vol.: 80
Chanel 9 Note Off - Duracao: 277080 Nota: C1 Vol.: 80
Chanel 9 Note On - Duracao: 277080 Nota: C1 Vol.: 70
Chanel 7 Note Off - Duracao: 277140 Nota: C1 Vol.: 47
Chanel 7 Note On - Duracao: 277140 Nota: C1 Vol.: 47
Chanel 10 Note Off - Duracao: 277320 Nota: C1 Vol.: 87
Chanel 10 Note On - Duracao: 277320 Nota: C1 Vol.: 91
Chanel 6 Note Off - Duracao: 277380 Nota: C1 Vol.: 68
Chanel 6 Note On - Duracao: 277380 Nota: C1 Vol.: 78
Chanel 9 Note Off - Duracao: 277560 Nota: C1 Vol.: 70
Chanel 9 Note On - Duracao: 277560 Nota: C1 Vol.: 78
Chanel 6 Note Off - Duracao: 277620 Nota: C1 Vol.: 78
Chanel 6 Note On - Duracao: 277620 Nota: C1 Vol.: 88
Chanel 7 Note Off - Duracao: 277620 Nota: C1 Vol.: 47
Chanel 7 Note On - Duracao: 277620 Nota: C1 Vol.: 48
Chanel 3 Note Off - Duracao: 277740 Nota: C1 Vol.: 69
Chanel 3 Note On - Duracao: 277740 Nota: C1 Vol.: 71
Chanel 4 Note Off - Duracao: 277740 Nota: C1 Vol.: 70
Chanel 4 Note On - Duracao: 277740 Nota: C1 Vol.: 67
Chanel 6 Note Off - Duracao: 277740 Nota: C1 Vol.: 88
Chanel 6 Note On - Duracao: 277740 Nota: C1 Vol.: 51
Chanel 5 Note Off - Duracao: 277860 Nota: C1 Vol.: 60
Chanel 5 Note On - Duracao: 277860 Nota: C1 Vol.: 60
Chanel 9 Note Off - Duracao: 278040 Nota: C1 Vol.: 78
Chanel 9 Note On - Duracao: 278040 Nota: C1 Vol.: 76
Chanel 2 Note Off - Duracao: 278100 Nota: C1 Vol.: 92
Chanel 2 Note On - Duracao: 278100 Nota: C1 Vol.: 90
Chanel 7 Note Off - Duracao: 278100 Nota: C1 Vol.: 48
Chanel 7 Note On - Duracao: 278100 Nota: C1 Vol.: 47
Chanel 10 Note Off - Duracao: 278280 Nota: C1 Vol.: 91
Chanel 10 Note On - Duracao: 278280 Nota: C1 Vol.: 86
Chanel 8 Note Off - Duracao: 278520 Nota: C1 Vol.: 57
Chanel 8 Note On - Duracao: 278520 Nota: C1 Vol.: 58
Chanel 9 Note Off - Duracao: 278520 Nota: C1 Vol.: 76
Chanel 9 Note On - Duracao: 278520 Nota: C1 Vol.: 76
Chanel 7 Note Off - Duracao: 278580 Nota: C1 Vol.: 47
Chanel 7 Note On - Duracao: 278580 Nota: C1 Vol.: 47
Chanel 3 Note Off - Duracao: 278700 Nota: C1 Vol.: 71
Chanel 3 Note On - Duracao: 278700 Nota: C1 Vol.: 88
Chanel 3 Note Off - Duracao: 278940 Nota: C1 Vol.: 88
Chanel 3 Note On - Duracao: 278940 Nota: C1 Vol.: 85
Chanel 7 Note Off - Duracao: 279060 Nota: C1 Vol.: 47
Chanel 7 Note On - Duracao: 279060 Nota: C1 Vol.: 48
Chanel 3 Note Off - Duracao: 279180 Nota: C1 Vol.: 85
Chanel 3 Note On - Duracao: 279180 Nota: C1 Vol.: 80
Chanel 10 Note Off - Duracao: 279240 Nota: C1 Vol.: 86
Chanel 10 Note On - Duracao: 279240 Nota: C1 Vol.: 82
Chanel 9 Note Off - Duracao: 279480 Nota: C1 Vol.: 76
Chanel 9 Note On - Duracao: 279480 Nota: C1 Vol.: 71
Chanel 7 Note Off - Duracao: 279540 Nota: C1 Vol.: 48
Chanel 7 Note On - Duracao: 279540 Nota: C1 Vol.: 48
Chanel 3 Note Off - Duracao: 279660 Nota: C1 Vol.: 80
Chanel 3 Note On - Duracao: 279660 Nota: C1 Vol.: 74
Chanel 4 Note Off - Duracao: 279660 Nota: C1 Vol.: 67
Chanel 4 Note On - Duracao: 279660 Nota: C1 Vol.: 58
Chanel 6 Note Off - Duracao: 279660 Nota: C1 Vol.: 51
Chanel 6 Note On - Duracao: 279660 Nota: C1 Vol.: 46
Chanel 5 Note Off - Duracao: 279780 Nota: C1 Vol.: 60
Chanel 5 Note On - Duracao: 279780 Nota: C1 Vol.: 73
Chanel 1 Note Off - Duracao: 279900 Nota: C1 Vol.: 51
Chanel 1 Note On - Duracao: 279900 Nota: C1 Vol.: 81
Chanel 2 Note Off - Duracao: 280020 Nota: C1 Vol.: 90
Chanel 2 Note On - Duracao: 280020 Nota: C1 Vol.: 88
Chanel 7 Note Off - Duracao: 280020 Nota: C1 Vol.: 48
Chanel 7 Note On - Duracao: 280020 Nota: C1 Vol.: 48
Chanel 10 Note Off - Duracao: 280200 Nota: C1 Vol.: 82
Chanel 10 Note On - Duracao: 280200 Nota: C1 Vol.: 80
Chanel 8 Note Off - Duracao: 280440 Nota: C1 Vol.: 58
Chanel 8 Note On - Duracao: 280440 Nota: C1 Vol.: 63
Chanel 7 Note Off - Duracao: 280500 Nota: C1 Vol.: 48
Chanel 7 Note On - Duracao: 280500 Nota: C1 Vol.: 44
Chanel 3 Note Off - Duracao: 280620 Nota: C1 Vol.: 74
Chanel 3 Note On - Duracao: 280620 Nota: C1 Vol.: 85
Chanel 5 Note Off - Duracao: 280740 Nota: C1 Vol.: 73
Chanel 5 Note On - Duracao: 280740 Nota: C1 Vol.: 72
Chanel 1 Note Off - Duracao: 280860 Nota: C1 Vol.: 81
Chanel 1 Note On - Duracao: 280860 Nota: C1 Vol.: 81
Chanel 2 Note Off - Duracao: 280980 Nota: C1 Vol.: 88
Chanel 2 Note On - Duracao: 280980 Nota: C1 Vol.: 54
Chanel 3 Note Off - Duracao: 281100 Nota: C1 Vol.: 85
Chanel 3 Note On - Duracao: 281100 Nota: C1 Vol.: 85
Chanel 10 Note Off - Duracao: 281160 Nota: C1 Vol.: 80
Chanel 10 Note On - Duracao: 281160 Nota: C1 Vol.: 64
Chanel 8 Note Off - Duracao: 281400 Nota: C1 Vol.: 63
Chanel 8 Note On - Duracao: 281400 Nota: C1 Vol.: 67
Chanel 9 Note Off - Duracao: 281400 Nota: C1 Vol.: 71
Chanel 9 Note On - Duracao: 281400 Nota: C1 Vol.: 69
Chanel 7 Note Off - Duracao: 281460 Nota: C1 Vol.: 44
Chanel 7 Note On - Duracao: 281460 Nota: C1 Vol.: 40
Chanel 3 Note Off - Duracao: 281580 Nota: C1 Vol.: 85
Chanel 3 Note On - Duracao: 281580 Nota: C1 Vol.: 67
Chanel 6 Note Off - Duracao: 281580 Nota: C1 Vol.: 46
Chanel 6 Note On - Duracao: 281580 Nota: C1 Vol.: 49
Chanel 5 Note Off - Duracao: 281700 Nota: C1 Vol.: 72
Chanel 5 Note On - Duracao: 281700 Nota: C1 Vol.: 66
Chanel 8 Note Off - Duracao: 282360 Nota: C1 Vol.: 67
Chanel 8 Note On - Duracao: 282360 Nota: C1 Vol.: 66
Chanel 7 Note Off - Duracao: 282420 Nota: C1 Vol.: 40
Chanel 7 Note On - Duracao: 282420 Nota: C1 Vol.: 43
Chanel 6 Note Off - Duracao: 282540 Nota: C1 Vol.: 49
Chanel 6 Note On - Duracao: 282540 Nota: C1 Vol.: 51
Chanel 5 Note Off - Duracao: 282660 Nota: C1 Vol.: 66
Chanel 5 Note On - Duracao: 282660 Nota: C1 Vol.: 48
Chanel 1 Note Off - Duracao: 282780 Nota: C1 Vol.: 81
Chanel 1 Note On - Duracao: 282780 Nota: C1 Vol.: 85
Chanel 10 Note Off - Duracao: 283080 Nota: C1 Vol.: 64
Chanel 10 Note On - Duracao: 283080 Nota: C1 Vol.: 62
Chanel 8 Note Off - Duracao: 283320 Nota: C1 Vol.: 66
Chanel 8 Note On - Duracao: 283320 Nota: C1 Vol.: 72
Chanel 9 Note Off - Duracao: 283320 Nota: C1 Vol.: 69
Chanel 9 Note On - Duracao: 283320 Nota: C1 Vol.: 70
Chanel 7 Note Off - Duracao: 283380 Nota: C1 Vol.: 43
Chanel 7 Note On - Duracao: 283380 Nota: C1 Vol.: 40
Chanel 3 Note Off - Duracao: 283500 Nota: C1 Vol.: 67
Chanel 3 Note On - Duracao: 283500 Nota: C1 Vol.: 71
Chanel 4 Note Off - Duracao: 283500 Nota: C1 Vol.: 58
Chanel 4 Note On - Duracao: 283500 Nota: C1 Vol.: 64
Chanel 6 Note Off - Duracao: 283500 Nota: C1 Vol.: 51
Chanel 6 Note On - Duracao: 283500 Nota: C1 Vol.: 42
Chanel 8 Note Off - Duracao: 283800 Nota: C1 Vol.: 72
Chanel 8 Note On - Duracao: 283800 Nota: C1 Vol.: 72
Chanel 8 Note Off - Duracao: 284280 Nota: C1 Vol.: 72
Chanel 8 Note On - Duracao: 284280 Nota: C1 Vol.: 70
Chanel 9 Note Off - Duracao: 284280 Nota: C1 Vol.: 70
Chanel 9 Note On - Duracao: 284280 Nota: C1 Vol.: 66
Chanel 7 Note Off - Duracao: 284340 Nota: C1 Vol.: 40
Chanel 7 Note On - Duracao: 284340 Nota: C1 Vol.: 42
Chanel 3 Note Off - Duracao: 284460 Nota: C1 Vol.: 71
Chanel 3 Note On - Duracao: 284460 Nota: C1 Vol.: 69
Chanel 6 Note Off - Duracao: 284460 Nota: C1 Vol.: 42
Chanel 6 Note On - Duracao: 284460 Nota: C1 Vol.: 43
Chanel 1 Note Off - Duracao: 284700 Nota: C1 Vol.: 85
Chanel 1 Note On - Duracao: 284700 Nota: C1 Vol.: 92
Chanel 8 Note Off - Duracao: 284760 Nota: C1 Vol.: 70
Chanel 8 Note On - Duracao: 284760 Nota: C1 Vol.: 58
Chanel 2 Note Off - Duracao: 284820 Nota: C1 Vol.: 54
Chanel 2 Note On - Duracao: 284820 Nota: C1 Vol.: 71
Chanel 10 Note Off - Duracao: 285000 Nota: C1 Vol.: 62
Chanel 10 Note On - Duracao: 285000 Nota: C1 Vol.: 66
Chanel 9 Note Off - Duracao: 285240 Nota: C1 Vol.: 66
Chanel 9 Note On - Duracao: 285240 Nota: C1 Vol.: 69
Chanel 4 Note Off - Duracao: 285420 Nota: C1 Vol.: 64
Chanel 4 Note On - Duracao: 285420 Nota: C1 Vol.: 63
Chanel 6 Note Off - Duracao: 285420 Nota: C1 Vol.: 43
Chanel 6 Note On - Duracao: 285420 Nota: C1 Vol.: 40
Chanel 2 Note Off - Duracao: 285780 Nota: C1 Vol.: 71
Chanel 2 Note On - Duracao: 285780 Nota: C1 Vol.: 75
Chanel 10 Note Off - Duracao: 285960 Nota: C1 Vol.: 66
Chanel 10 Note On - Duracao: 285960 Nota: C1 Vol.: 64
Chanel 9 Note Off - Duracao: 286200 Nota: C1 Vol.: 69
Chanel 9 Note On - Duracao: 286200 Nota: C1 Vol.: 75
Chanel 2 Note Off - Duracao: 286260 Nota: C1 Vol.: 75
Chanel 2 Note On - Duracao: 286260 Nota: C1 Vol.: 78
Chanel 7 Note Off - Duracao: 286260 Nota: C1 Vol.: 42
Chanel 7 Note On - Duracao: 286260 Nota: C1 Vol.: 43
Chanel 3 Note Off - Duracao: 286380 Nota: C1 Vol.: 69
Chanel 3 Note On - Duracao: 286380 Nota: C1 Vol.: 77
Chanel 6 Note Off - Duracao: 286380 Nota: C1 Vol.: 40
Chanel 6 Note On - Duracao: 286380 Nota: C1 Vol.: 42
Chanel 5 Note Off - Duracao: 286500 Nota: C1 Vol.: 48
Chanel 5 Note On - Duracao: 286500 Nota: C1 Vol.: 68
Chanel 1 Note Off - Duracao: 286620 Nota: C1 Vol.: 92
Chanel 1 Note On - Duracao: 286620 Nota: C1 Vol.: 91
Chanel 8 Note Off - Duracao: 286680 Nota: C1 Vol.: 58
Chanel 8 Note On - Duracao: 286680 Nota: C1 Vol.: 58
Chanel 9 Note Off - Duracao: 286680 Nota: C1 Vol.: 75
Chanel 9 Note On - Duracao: 286680 Nota: C1 Vol.: 65
Chanel 2 Note Off - Duracao: 286740 Nota: C1 Vol.: 78
Chanel 2 Note On - Duracao: 286740 Nota: C1 Vol.: 75
Chanel 10 Note Off - Duracao: 286920 Nota: C1 Vol.: 64
Chanel 10 Note On - Duracao: 286920 Nota: C1 Vol.: 60
Chanel 2 Note Off - Duracao: 287220 Nota: C1 Vol.: 75
Chanel 2 Note On - Duracao: 287220 Nota: C1 Vol.: 68
Chanel 3 Note Off - Duracao: 287340 Nota: C1 Vol.: 77
Chanel 3 Note On - Duracao: 287340 Nota: C1 Vol.: 79
Chanel 4 Note Off - Duracao: 287340 Nota: C1 Vol.: 63
Chanel 4 Note On - Duracao: 287340 Nota: C1 Vol.: 72
Chanel 6 Note Off - Duracao: 287340 Nota: C1 Vol.: 42
Chanel 6 Note On - Duracao: 287340 Nota: C1 Vol.: 42
Chanel 5 Note Off - Duracao: 287460 Nota: C1 Vol.: 68
Chanel 5 Note On - Duracao: 287460 Nota: C1 Vol.: 79
Chanel 9 Note Off - Duracao: 287640 Nota: C1 Vol.: 65
Chanel 9 Note On - Duracao: 287640 Nota: C1 Vol.: 79
Chanel 3 Note Off - Duracao: 287820 Nota: C1 Vol.: 79
Chanel 3 Note On - Duracao: 287820 Nota: C1 Vol.: 59
Chanel 9 Note Off - Duracao: 288120 Nota: C1 Vol.: 79
Chanel 9 Note On - Duracao: 288120 Nota: C1 Vol.: 78
Chanel 2 Note Off - Duracao: 288180 Nota: C1 Vol.: 68
Chanel 2 Note On - Duracao: 288180 Nota: C1 Vol.: 77
Chanel 7 Note Off - Duracao: 288180 Nota: C1 Vol.: 43
Chanel 7 Note On - Duracao: 288180 Nota: C1 Vol.: 44
Chanel 4 Note Off - Duracao: 288300 Nota: C1 Vol.: 72
Chanel 4 Note On - Duracao: 288300 Nota: C1 Vol.: 63
Chanel 5 Note Off - Duracao: 288420 Nota: C1 Vol.: 79
Chanel 5 Note On - Duracao: 288420 Nota: C1 Vol.: 83
Chanel 8 Note Off - Duracao: 288600 Nota: C1 Vol.: 58
Chanel 8 Note On - Duracao: 288600 Nota: C1 Vol.: 59
Chanel 9 Note Off - Duracao: 288600 Nota: C1 Vol.: 78
Chanel 9 Note On - Duracao: 288600 Nota: C1 Vol.: 63
Chanel 2 Note Off - Duracao: 288660 Nota: C1 Vol.: 77
Chanel 2 Note On - Duracao: 288660 Nota: C1 Vol.: 80
Chanel 10 Note Off - Duracao: 288840 Nota: C1 Vol.: 60
Chanel 10 Note On - Duracao: 288840 Nota: C1 Vol.: 69
Chanel 5 Note Off - Duracao: 288900 Nota: C1 Vol.: 83
Chanel 5 Note On - Duracao: 288900 Nota: C1 Vol.: 83
Chanel 2 Note Off - Duracao: 289140 Nota: C1 Vol.: 80
Chanel 2 Note On - Duracao: 289140 Nota: C1 Vol.: 75
Chanel 4 Note Off - Duracao: 289260 Nota: C1 Vol.: 63
Chanel 4 Note On - Duracao: 289260 Nota: C1 Vol.: 47
Chanel 6 Note Off - Duracao: 289260 Nota: C1 Vol.: 42
Chanel 6 Note On - Duracao: 289260 Nota: C1 Vol.: 52
Chanel 5 Note Off - Duracao: 289380 Nota: C1 Vol.: 83
Chanel 5 Note On - Duracao: 289380 Nota: C1 Vol.: 77
Chanel 2 Note Off - Duracao: 289620 Nota: C1 Vol.: 75
Chanel 2 Note On - Duracao: 289620 Nota: C1 Vol.: 83
Chanel 3 Note Off - Duracao: 289740 Nota: C1 Vol.: 59
Chanel 3 Note On - Duracao: 289740 Nota: C1 Vol.: 48
Chanel 10 Note Off - Duracao: 289800 Nota: C1 Vol.: 69
Chanel 10 Note On - Duracao: 289800 Nota: C1 Vol.: 64
Chanel 2 Note Off - Duracao: 289860 Nota: C1 Vol.: 83
Chanel 2 Note On - Duracao: 289860 Nota: C1 Vol.: 73
Chanel 5 Note Off - Duracao: 289860 Nota: C1 Vol.: 77
Chanel 5 Note On - Duracao: 289860 Nota: C1 Vol.: 68
Chanel 6 Note Off - Duracao: 290220 Nota: C1 Vol.: 52
Chanel 6 Note On - Duracao: 290220 Nota: C1 Vol.: 50
Chanel 1 Note Off - Duracao: 290460 Nota: C1 Vol.: 91
Chanel 1 Note On - Duracao: 290460 Nota: C1 Vol.: 91
Chanel 8 Note Off - Duracao: 290520 Nota: C1 Vol.: 59
Chanel 8 Note On - Duracao: 290520 Nota: C1 Vol.: 57
Chanel 9 Note Off - Duracao: 290520 Nota: C1 Vol.: 63
Chanel 9 Note On - Duracao: 290520 Nota: C1 Vol.: 62
Chanel 10 Note Off - Duracao: 290760 Nota: C1 Vol.: 64
Chanel 10 Note On - Duracao: 290760 Nota: C1 Vol.: 64
Chanel 2 Note Off - Duracao: 290820 Nota: C1 Vol.: 73
Chanel 2 Note On - Duracao: 290820 Nota: C1 Vol.: 67
Chanel 5 Note Off - Duracao: 290820 Nota: C1 Vol.: 68
Chanel 5 Note On - Duracao: 290820 Nota: C1 Vol.: 89
Chanel 5 Note Off - Duracao: 291060 Nota: C1 Vol.: 89
Chanel 5 Note On - Duracao: 291060 Nota: C1 Vol.: 79
Chanel 9 Note Off - Duracao: 291480 Nota: C1 Vol.: 62
Chanel 9 Note On - Duracao: 291480 Nota: C1 Vol.: 59
Chanel 5 Note Off - Duracao: 291540 Nota: C1 Vol.: 79
Chanel 5 Note On - Duracao: 291540 Nota: C1 Vol.: 57
Chanel 10 Note Off - Duracao: 291720 Nota: C1 Vol.: 64
Chanel 10 Note On - Duracao: 291720 Nota: C1 Vol.: 73
Chanel 2 Note Off - Duracao: 291780 Nota: C1 Vol.: 67
Chanel 2 Note On - Duracao: 291780 Nota: C1 Vol.: 85
Chanel 7 Note Off - Duracao: 292020 Nota: C1 Vol.: 44
Chanel 7 Note On - Duracao: 292020 Nota: C1 Vol.: 71
Chanel 6 Note Off - Duracao: 292140 Nota: C1 Vol.: 50
Chanel 6 Note On - Duracao: 292140 Nota: C1 Vol.: 54
Chanel 10 Note Off - Duracao: 292200 Nota: C1 Vol.: 73
Chanel 10 Note On - Duracao: 292200 Nota: C1 Vol.: 68
Chanel 2 Note Off - Duracao: 292260 Nota: C1 Vol.: 85
Chanel 2 Note On - Duracao: 292260 Nota: C1 Vol.: 87
Chanel 8 Note Off - Duracao: 292440 Nota: C1 Vol.: 57
Chanel 8 Note On - Duracao: 292440 Nota: C1 Vol.: 56
Chanel 9 Note Off - Duracao: 292440 Nota: C1 Vol.: 59
Chanel 9 Note On - Duracao: 292440 Nota: C1 Vol.: 56
Chanel 7 Note Off - Duracao: 292500 Nota: C1 Vol.: 71
Chanel 7 Note On - Duracao: 292500 Nota: C1 Vol.: 64
Chanel 2 Note Off - Duracao: 292740 Nota: C1 Vol.: 87
Chanel 2 Note On - Duracao: 292740 Nota: C1 Vol.: 76
Chanel 4 Note Off - Duracao: 293100 Nota: C1 Vol.: 47
Chanel 4 Note On - Duracao: 293100 Nota: C1 Vol.: 57
Chanel 10 Note Off - Duracao: 293160 Nota: C1 Vol.: 68
Chanel 10 Note On - Duracao: 293160 Nota: C1 Vol.: 62
Chanel 8 Note Off - Duracao: 293400 Nota: C1 Vol.: 56
Chanel 8 Note On - Duracao: 293400 Nota: C1 Vol.: 54
Chanel 9 Note Off - Duracao: 293400 Nota: C1 Vol.: 56
Chanel 9 Note On - Duracao: 293400 Nota: C1 Vol.: 65
Chanel 5 Note Off - Duracao: 293460 Nota: C1 Vol.: 57
Chanel 5 Note On - Duracao: 293460 Nota: C1 Vol.: 47
Chanel 7 Note Off - Duracao: 293460 Nota: C1 Vol.: 64
Chanel 7 Note On - Duracao: 293460 Nota: C1 Vol.: 61
Chanel 3 Note Off - Duracao: 293580 Nota: C1 Vol.: 48
Chanel 3 Note On - Duracao: 293580 Nota: C1 Vol.: 50
Chanel 2 Note Off - Duracao: 293700 Nota: C1 Vol.: 76
Chanel 2 Note On - Duracao: 293700 Nota: C1 Vol.: 77
Chanel 6 Note Off - Duracao: 294060 Nota: C1 Vol.: 54
Chanel 6 Note On - Duracao: 294060 Nota: C1 Vol.: 73
Chanel 10 Note Off - Duracao: 294120 Nota: C1 Vol.: 62
Chanel 10 Note On - Duracao: 294120 Nota: C1 Vol.: 67
Chanel 1 Note Off - Duracao: 294300 Nota: C1 Vol.: 91
Chanel 1 Note On - Duracao: 294300 Nota: C1 Vol.: 90
Chanel 8 Note Off - Duracao: 294360 Nota: C1 Vol.: 54
Chanel 8 Note On - Duracao: 294360 Nota: C1 Vol.: 52
Chanel 9 Note Off - Duracao: 294360 Nota: C1 Vol.: 65
Chanel 9 Note On - Duracao: 294360 Nota: C1 Vol.: 66
Chanel 2 Note Off - Duracao: 294660 Nota: C1 Vol.: 77
Chanel 2 Note On - Duracao: 294660 Nota: C1 Vol.: 82
Chanel 6 Note Off - Duracao: 295020 Nota: C1 Vol.: 73
Chanel 6 Note On - Duracao: 295020 Nota: C1 Vol.: 82
Chanel 10 Note Off - Duracao: 295080 Nota: C1 Vol.: 67
Chanel 10 Note On - Duracao: 295080 Nota: C1 Vol.: 78
Chanel 2 Note Off - Duracao: 295140 Nota: C1 Vol.: 82
Chanel 2 Note On - Duracao: 295140 Nota: C1 Vol.: 93
Chanel 2 Note Off - Duracao: 295200 Nota: C1 Vol.: 93
Chanel 2 Note On - Duracao: 295200 Nota: C1 Vol.: 88
Chanel 2 Note Off - Duracao: 295320 Nota: C1 Vol.: 88
Chanel 2 Note On - Duracao: 295320 Nota: C1 Vol.: 73
Chanel 9 Note Off - Duracao: 295320 Nota: C1 Vol.: 66
Chanel 9 Note On - Duracao: 295320 Nota: C1 Vol.: 58
Chanel 5 Note Off - Duracao: 295380 Nota: C1 Vol.: 47
Chanel 5 Note On - Duracao: 295380 Nota: C1 Vol.: 46
Chanel 7 Note Off - Duracao: 295380 Nota: C1 Vol.: 61
Chanel 7 Note On - Duracao: 295380 Nota: C1 Vol.: 61
Chanel 2 Note Off - Duracao: 295560 Nota: C1 Vol.: 73
Chanel 2 Note On - Duracao: 295560 Nota: C1 Vol.: 71
Chanel 10 Note Off - Duracao: 295560 Nota: C1 Vol.: 78
Chanel 10 Note On - Duracao: 295560 Nota: C1 Vol.: 73
Chanel 6 Note Off - Duracao: 295980 Nota: C1 Vol.: 82
Chanel 6 Note On - Duracao: 295980 Nota: C1 Vol.: 86
Chanel 2 Note Off - Duracao: 296040 Nota: C1 Vol.: 71
Chanel 2 Note On - Duracao: 296040 Nota: C1 Vol.: 74
Chanel 10 Note Off - Duracao: 296040 Nota: C1 Vol.: 73
Chanel 10 Note On - Duracao: 296040 Nota: C1 Vol.: 69
Chanel 1 Note Off - Duracao: 296220 Nota: C1 Vol.: 90
Chanel 1 Note On - Duracao: 296220 Nota: C1 Vol.: 93
Chanel 2 Note Off - Duracao: 296280 Nota: C1 Vol.: 74
Chanel 2 Note On - Duracao: 296280 Nota: C1 Vol.: 75
Chanel 8 Note Off - Duracao: 296280 Nota: C1 Vol.: 52
Chanel 8 Note On - Duracao: 296280 Nota: C1 Vol.: 48
Chanel 2 Note Off - Duracao: 296520 Nota: C1 Vol.: 75
Chanel 2 Note On - Duracao: 296520 Nota: C1 Vol.: 81
Chanel 2 Note Off - Duracao: 296760 Nota: C1 Vol.: 81
Chanel 2 Note On - Duracao: 296760 Nota: C1 Vol.: 80
Chanel 4 Note Off - Duracao: 296940 Nota: C1 Vol.: 57
Chanel 4 Note On - Duracao: 296940 Nota: C1 Vol.: 78
Chanel 6 Note Off - Duracao: 296940 Nota: C1 Vol.: 86
Chanel 6 Note On - Duracao: 296940 Nota: C1 Vol.: 87
Chanel 2 Note Off - Duracao: 297000 Nota: C1 Vol.: 80
Chanel 2 Note On - Duracao: 297000 Nota: C1 Vol.: 81
Chanel 10 Note Off - Duracao: 297000 Nota: C1 Vol.: 69
Chanel 10 Note On - Duracao: 297000 Nota: C1 Vol.: 75
Chanel 2 Note Off - Duracao: 297240 Nota: C1 Vol.: 81
Chanel 2 Note On - Duracao: 297240 Nota: C1 Vol.: 82
Chanel 9 Note Off - Duracao: 297240 Nota: C1 Vol.: 58
Chanel 9 Note On - Duracao: 297240 Nota: C1 Vol.: 68
Chanel 5 Note Off - Duracao: 297300 Nota: C1 Vol.: 46
Chanel 5 Note On - Duracao: 297300 Nota: C1 Vol.: 44
Chanel 7 Note Off - Duracao: 297300 Nota: C1 Vol.: 61
Chanel 7 Note On - Duracao: 297300 Nota: C1 Vol.: 59
Chanel 3 Note Off - Duracao: 297420 Nota: C1 Vol.: 50
Chanel 3 Note On - Duracao: 297420 Nota: C1 Vol.: 71
Chanel 2 Note Off - Duracao: 297480 Nota: C1 Vol.: 82
Chanel 2 Note On - Duracao: 297480 Nota: C1 Vol.: 79
Chanel 10 Note Off - Duracao: 297480 Nota: C1 Vol.: 75
Chanel 10 Note On - Duracao: 297480 Nota: C1 Vol.: 63
Chanel 2 Note Off - Duracao: 297720 Nota: C1 Vol.: 79
Chanel 2 Note On - Duracao: 297720 Nota: C1 Vol.: 77
Chanel 3 Note Off - Duracao: 297900 Nota: C1 Vol.: 71
Chanel 3 Note On - Duracao: 297900 Nota: C1 Vol.: 67
Chanel 4 Note Off - Duracao: 297900 Nota: C1 Vol.: 78
Chanel 4 Note On - Duracao: 297900 Nota: C1 Vol.: 75
Chanel 6 Note Off - Duracao: 297900 Nota: C1 Vol.: 87
Chanel 6 Note On - Duracao: 297900 Nota: C1 Vol.: 89
Chanel 2 Note Off - Duracao: 297960 Nota: C1 Vol.: 77
Chanel 2 Note On - Duracao: 297960 Nota: C1 Vol.: 83
Chanel 2 Note Off - Duracao: 298080 Nota: C1 Vol.: 83
Chanel 2 Note On - Duracao: 298080 Nota: C1 Vol.: 84
Chanel 1 Note Off - Duracao: 298140 Nota: C1 Vol.: 93
Chanel 1 Note On - Duracao: 298140 Nota: C1 Vol.: 92
Chanel 2 Note Off - Duracao: 298200 Nota: C1 Vol.: 84
Chanel 2 Note On - Duracao: 298200 Nota: C1 Vol.: 71
Chanel 8 Note Off - Duracao: 298200 Nota: C1 Vol.: 48
Chanel 8 Note On - Duracao: 298200 Nota: C1 Vol.: 47
Chanel 10 Note Off - Duracao: 298440 Nota: C1 Vol.: 63
Chanel 10 Note On - Duracao: 298440 Nota: C1 Vol.: 67
Chanel 2 Note Off - Duracao: 298680 Nota: C1 Vol.: 71
Chanel 2 Note On - Duracao: 298680 Nota: C1 Vol.: 71
Chanel 3 Note Off - Duracao: 298860 Nota: C1 Vol.: 67
Chanel 3 Note On - Duracao: 298860 Nota: C1 Vol.: 96
Chanel 4 Note Off - Duracao: 298860 Nota: C1 Vol.: 75
Chanel 4 Note On - Duracao: 298860 Nota: C1 Vol.: 74
Chanel 6 Note Off - Duracao: 298860 Nota: C1 Vol.: 89
Chanel 6 Note On - Duracao: 298860 Nota: C1 Vol.: 86
Chanel 3 Note Off - Duracao: 298980 Nota: C1 Vol.: 96
Chanel 3 Note On - Duracao: 298980 Nota: C1 Vol.: 99
Chanel 3 Note Off - Duracao: 299040 Nota: C1 Vol.: 99
Chanel 3 Note On - Duracao: 299040 Nota: C1 Vol.: 99
Chanel 3 Note Off - Duracao: 299100 Nota: C1 Vol.: 99
Chanel 3 Note On - Duracao: 299100 Nota: C1 Vol.: 79
Chanel 2 Note Off - Duracao: 299160 Nota: C1 Vol.: 71
Chanel 2 Note On - Duracao: 299160 Nota: C1 Vol.: 72
Chanel 9 Note Off - Duracao: 299160 Nota: C1 Vol.: 68
Chanel 9 Note On - Duracao: 299160 Nota: C1 Vol.: 77
Chanel 7 Note Off - Duracao: 299220 Nota: C1 Vol.: 59
Chanel 7 Note On - Duracao: 299220 Nota: C1 Vol.: 59
Chanel 3 Note Off - Duracao: 299340 Nota: C1 Vol.: 79
Chanel 3 Note On - Duracao: 299340 Nota: C1 Vol.: 74
Chanel 10 Note Off - Duracao: 299400 Nota: C1 Vol.: 67
Chanel 10 Note On - Duracao: 299400 Nota: C1 Vol.: 74
Chanel 2 Note Off - Duracao: 299640 Nota: C1 Vol.: 72
Chanel 2 Note On - Duracao: 299640 Nota: C1 Vol.: 73
Chanel 3 Note Off - Duracao: 299820 Nota: C1 Vol.: 74
Chanel 3 Note On - Duracao: 299820 Nota: C1 Vol.: 46
Chanel 4 Note Off - Duracao: 299820 Nota: C1 Vol.: 74
Chanel 4 Note On - Duracao: 299820 Nota: C1 Vol.: 77
Chanel 10 Note Off - Duracao: 299880 Nota: C1 Vol.: 74
Chanel 10 Note On - Duracao: 299880 Nota: C1 Vol.: 70
Chanel 1 Note Off - Duracao: 300060 Nota: C1 Vol.: 92
Chanel 1 Note On - Duracao: 300060 Nota: C1 Vol.: 93
Chanel 2 Note Off - Duracao: 300120 Nota: C1 Vol.: 73
Chanel 2 Note On - Duracao: 300120 Nota: C1 Vol.: 71
Chanel 8 Note Off - Duracao: 300120 Nota: C1 Vol.: 47
Chanel 8 Note On - Duracao: 300120 Nota: C1 Vol.: 50
Chanel 2 Note Off - Duracao: 300600 Nota: C1 Vol.: 71
Chanel 2 Note On - Duracao: 300600 Nota: C1 Vol.: 78
Chanel 4 Note Off - Duracao: 300780 Nota: C1 Vol.: 77
Chanel 4 Note On - Duracao: 300780 Nota: C1 Vol.: 75
Chanel 6 Note Off - Duracao: 300780 Nota: C1 Vol.: 86
Chanel 6 Note On - Duracao: 300780 Nota: C1 Vol.: 87
Chanel 2 Note Off - Duracao: 300840 Nota: C1 Vol.: 78
Chanel 2 Note On - Duracao: 300840 Nota: C1 Vol.: 77
Chanel 10 Note Off - Duracao: 300840 Nota: C1 Vol.: 70
Chanel 10 Note On - Duracao: 300840 Nota: C1 Vol.: 66
Chanel 2 Note Off - Duracao: 301080 Nota: C1 Vol.: 77
Chanel 2 Note On - Duracao: 301080 Nota: C1 Vol.: 83
Chanel 9 Note Off - Duracao: 301080 Nota: C1 Vol.: 77
Chanel 9 Note On - Duracao: 301080 Nota: C1 Vol.: 88
Chanel 5 Note Off - Duracao: 301140 Nota: C1 Vol.: 44
Chanel 5 Note On - Duracao: 301140 Nota: C1 Vol.: 74
Chanel 7 Note Off - Duracao: 301140 Nota: C1 Vol.: 59
Chanel 7 Note On - Duracao: 301140 Nota: C1 Vol.: 59
Chanel 2 Note Off - Duracao: 301320 Nota: C1 Vol.: 83
Chanel 2 Note On - Duracao: 301320 Nota: C1 Vol.: 92
Chanel 2 Note Off - Duracao: 301440 Nota: C1 Vol.: 92
Chanel 2 Note On - Duracao: 301440 Nota: C1 Vol.: 95
Chanel 2 Note Off - Duracao: 301500 Nota: C1 Vol.: 95
Chanel 2 Note On - Duracao: 301500 Nota: C1 Vol.: 94
Chanel 2 Note Off - Duracao: 301620 Nota: C1 Vol.: 94
Chanel 2 Note On - Duracao: 301620 Nota: C1 Vol.: 87
Chanel 5 Note Off - Duracao: 301620 Nota: C1 Vol.: 74
Chanel 5 Note On - Duracao: 301620 Nota: C1 Vol.: 75
Chanel 2 Note Off - Duracao: 301740 Nota: C1 Vol.: 87
Chanel 2 Note On - Duracao: 301740 Nota: C1 Vol.: 90
Chanel 4 Note Off - Duracao: 301740 Nota: C1 Vol.: 75
Chanel 4 Note On - Duracao: 301740 Nota: C1 Vol.: 69
Chanel 10 Note Off - Duracao: 301800 Nota: C1 Vol.: 66
Chanel 10 Note On - Duracao: 301800 Nota: C1 Vol.: 67
Chanel 2 Note Off - Duracao: 301860 Nota: C1 Vol.: 90
Chanel 2 Note On - Duracao: 301860 Nota: C1 Vol.: 87
Chanel 1 Note Off - Duracao: 301980 Nota: C1 Vol.: 93
Chanel 1 Note On - Duracao: 301980 Nota: C1 Vol.: 92
Chanel 8 Note Off - Duracao: 302040 Nota: C1 Vol.: 50
Chanel 8 Note On - Duracao: 302040 Nota: C1 Vol.: 48
Chanel 2 Note Off - Duracao: 302100 Nota: C1 Vol.: 87
Chanel 2 Note On - Duracao: 302100 Nota: C1 Vol.: 86
Chanel 2 Note Off - Duracao: 302580 Nota: C1 Vol.: 86
Chanel 2 Note On - Duracao: 302580 Nota: C1 Vol.: 90
Chanel 5 Note Off - Duracao: 302580 Nota: C1 Vol.: 75
Chanel 5 Note On - Duracao: 302580 Nota: C1 Vol.: 75
Chanel 4 Note Off - Duracao: 302700 Nota: C1 Vol.: 69
Chanel 4 Note On - Duracao: 302700 Nota: C1 Vol.: 48
Chanel 6 Note Off - Duracao: 302700 Nota: C1 Vol.: 87
Chanel 6 Note On - Duracao: 302700 Nota: C1 Vol.: 89
Chanel 10 Note Off - Duracao: 302760 Nota: C1 Vol.: 67
Chanel 10 Note On - Duracao: 302760 Nota: C1 Vol.: 62
Chanel 9 Note Off - Duracao: 303000 Nota: C1 Vol.: 88
Chanel 9 Note On - Duracao: 303000 Nota: C1 Vol.: 91
Chanel 2 Note Off - Duracao: 303060 Nota: C1 Vol.: 90
Chanel 2 Note On - Duracao: 303060 Nota: C1 Vol.: 91
Chanel 7 Note Off - Duracao: 303060 Nota: C1 Vol.: 59
Chanel 7 Note On - Duracao: 303060 Nota: C1 Vol.: 63
Chanel 2 Note Off - Duracao: 303540 Nota: C1 Vol.: 91
Chanel 2 Note On - Duracao: 303540 Nota: C1 Vol.: 87
Chanel 5 Note Off - Duracao: 303540 Nota: C1 Vol.: 75
Chanel 5 Note On - Duracao: 303540 Nota: C1 Vol.: 72
Chanel 3 Note Off - Duracao: 303660 Nota: C1 Vol.: 46
Chanel 3 Note On - Duracao: 303660 Nota: C1 Vol.: 46
Chanel 10 Note Off - Duracao: 303720 Nota: C1 Vol.: 62
Chanel 10 Note On - Duracao: 303720 Nota: C1 Vol.: 55
Chanel 8 Note Off - Duracao: 303960 Nota: C1 Vol.: 48
Chanel 8 Note On - Duracao: 303960 Nota: C1 Vol.: 58
Chanel 2 Note Off - Duracao: 304500 Nota: C1 Vol.: 87
Chanel 2 Note On - Duracao: 304500 Nota: C1 Vol.: 88
Chanel 5 Note Off - Duracao: 304500 Nota: C1 Vol.: 72
Chanel 5 Note On - Duracao: 304500 Nota: C1 Vol.: 75
Chanel 6 Note Off - Duracao: 304620 Nota: C1 Vol.: 89
Chanel 6 Note On - Duracao: 304620 Nota: C1 Vol.: 89
Chanel 8 Note Off - Duracao: 304920 Nota: C1 Vol.: 58
Chanel 8 Note On - Duracao: 304920 Nota: C1 Vol.: 54
Chanel 9 Note Off - Duracao: 304920 Nota: C1 Vol.: 91
Chanel 9 Note On - Duracao: 304920 Nota: C1 Vol.: 92
Chanel 7 Note Off - Duracao: 304980 Nota: C1 Vol.: 63
Chanel 7 Note On - Duracao: 304980 Nota: C1 Vol.: 68
Chanel 2 Note Off - Duracao: 305460 Nota: C1 Vol.: 88
Chanel 2 Note On - Duracao: 305460 Nota: C1 Vol.: 86
Chanel 5 Note Off - Duracao: 305460 Nota: C1 Vol.: 75
Chanel 5 Note On - Duracao: 305460 Nota: C1 Vol.: 75
Chanel 10 Note Off - Duracao: 305640 Nota: C1 Vol.: 55
Chanel 10 Note On - Duracao: 305640 Nota: C1 Vol.: 59
Chanel 1 Note Off - Duracao: 305820 Nota: C1 Vol.: 92
Chanel 1 Note On - Duracao: 305820 Nota: C1 Vol.: 91
Chanel 7 Note Off - Duracao: 305940 Nota: C1 Vol.: 68
Chanel 7 Note On - Duracao: 305940 Nota: C1 Vol.: 78
Chanel 2 Note Off - Duracao: 306420 Nota: C1 Vol.: 86
Chanel 2 Note On - Duracao: 306420 Nota: C1 Vol.: 85
Chanel 5 Note Off - Duracao: 306420 Nota: C1 Vol.: 75
Chanel 5 Note On - Duracao: 306420 Nota: C1 Vol.: 76
Chanel 7 Note Off - Duracao: 306420 Nota: C1 Vol.: 78
Chanel 7 Note On - Duracao: 306420 Nota: C1 Vol.: 64
Chanel 4 Note Off - Duracao: 306540 Nota: C1 Vol.: 48
Chanel 4 Note On - Duracao: 306540 Nota: C1 Vol.: 75
Chanel 6 Note Off - Duracao: 306540 Nota: C1 Vol.: 89
Chanel 6 Note On - Duracao: 306540 Nota: C1 Vol.: 87
Chanel 8 Note Off - Duracao: 306840 Nota: C1 Vol.: 54
Chanel 8 Note On - Duracao: 306840 Nota: C1 Vol.: 56
Chanel 9 Note Off - Duracao: 306840 Nota: C1 Vol.: 92
Chanel 9 Note On - Duracao: 306840 Nota: C1 Vol.: 86
Chanel 2 Note Off - Duracao: 307380 Nota: C1 Vol.: 85
Chanel 2 Note On - Duracao: 307380 Nota: C1 Vol.: 85
Chanel 5 Note Off - Duracao: 307380 Nota: C1 Vol.: 76
Chanel 5 Note On - Duracao: 307380 Nota: C1 Vol.: 77
Chanel 7 Note Off - Duracao: 307380 Nota: C1 Vol.: 64
Chanel 7 Note On - Duracao: 307380 Nota: C1 Vol.: 75
Chanel 3 Note Off - Duracao: 307500 Nota: C1 Vol.: 46
Chanel 3 Note On - Duracao: 307500 Nota: C1 Vol.: 70
Chanel 4 Note Off - Duracao: 307500 Nota: C1 Vol.: 75
Chanel 4 Note On - Duracao: 307500 Nota: C1 Vol.: 72
Chanel 10 Note Off - Duracao: 307560 Nota: C1 Vol.: 59
Chanel 10 Note On - Duracao: 307560 Nota: C1 Vol.: 68
Chanel 2 Note Off - Duracao: 307860 Nota: C1 Vol.: 85
Chanel 2 Note On - Duracao: 307860 Nota: C1 Vol.: 77
Chanel 7 Note Off - Duracao: 307860 Nota: C1 Vol.: 75
Chanel 7 Note On - Duracao: 307860 Nota: C1 Vol.: 68
Chanel 5 Note Off - Duracao: 308340 Nota: C1 Vol.: 77
Chanel 5 Note On - Duracao: 308340 Nota: C1 Vol.: 79
Chanel 7 Note Off - Duracao: 308340 Nota: C1 Vol.: 68
Chanel 7 Note On - Duracao: 308340 Nota: C1 Vol.: 64
Chanel 3 Note Off - Duracao: 308460 Nota: C1 Vol.: 70
Chanel 3 Note On - Duracao: 308460 Nota: C1 Vol.: 78
Chanel 4 Note Off - Duracao: 308460 Nota: C1 Vol.: 72
Chanel 4 Note On - Duracao: 308460 Nota: C1 Vol.: 47
Chanel 6 Note Off - Duracao: 308460 Nota: C1 Vol.: 87
Chanel 6 Note On - Duracao: 308460 Nota: C1 Vol.: 89
Chanel 10 Note Off - Duracao: 308520 Nota: C1 Vol.: 68
Chanel 10 Note On - Duracao: 308520 Nota: C1 Vol.: 64
Chanel 8 Note Off - Duracao: 308760 Nota: C1 Vol.: 56
Chanel 8 Note On - Duracao: 308760 Nota: C1 Vol.: 51
Chanel 2 Note Off - Duracao: 308820 Nota: C1 Vol.: 77
Chanel 2 Note On - Duracao: 308820 Nota: C1 Vol.: 74
Chanel 5 Note Off - Duracao: 309300 Nota: C1 Vol.: 79
Chanel 5 Note On - Duracao: 309300 Nota: C1 Vol.: 84
Chanel 7 Note Off - Duracao: 309300 Nota: C1 Vol.: 64
Chanel 7 Note On - Duracao: 309300 Nota: C1 Vol.: 64
Chanel 3 Note Off - Duracao: 309420 Nota: C1 Vol.: 78
Chanel 3 Note On - Duracao: 309420 Nota: C1 Vol.: 79
Chanel 1 Note Off - Duracao: 309660 Nota: C1 Vol.: 91
Chanel 1 Note On - Duracao: 309660 Nota: C1 Vol.: 94
Chanel 5 Note Off - Duracao: 309780 Nota: C1 Vol.: 84
Chanel 5 Note On - Duracao: 309780 Nota: C1 Vol.: 86
Chanel 5 Note Off - Duracao: 310260 Nota: C1 Vol.: 86
Chanel 5 Note On - Duracao: 310260 Nota: C1 Vol.: 84
Chanel 7 Note Off - Duracao: 310260 Nota: C1 Vol.: 64
Chanel 7 Note On - Duracao: 310260 Nota: C1 Vol.: 67
Chanel 3 Note Off - Duracao: 310380 Nota: C1 Vol.: 79
Chanel 3 Note On - Duracao: 310380 Nota: C1 Vol.: 79
Chanel 6 Note Off - Duracao: 310380 Nota: C1 Vol.: 89
Chanel 6 Note On - Duracao: 310380 Nota: C1 Vol.: 88
Chanel 10 Note Off - Duracao: 310440 Nota: C1 Vol.: 64
Chanel 10 Note On - Duracao: 310440 Nota: C1 Vol.: 71
Chanel 9 Note Off - Duracao: 310680 Nota: C1 Vol.: 86
Chanel 9 Note On - Duracao: 310680 Nota: C1 Vol.: 80
Chanel 2 Note Off - Duracao: 310740 Nota: C1 Vol.: 74
Chanel 2 Note On - Duracao: 310740 Nota: C1 Vol.: 72
Chanel 5 Note Off - Duracao: 310740 Nota: C1 Vol.: 84
Chanel 5 Note On - Duracao: 310740 Nota: C1 Vol.: 87
Chanel 3 Note Off - Duracao: 310860 Nota: C1 Vol.: 79
Chanel 3 Note On - Duracao: 310860 Nota: C1 Vol.: 59
Chanel 5 Note Off - Duracao: 311220 Nota: C1 Vol.: 87
Chanel 5 Note On - Duracao: 311220 Nota: C1 Vol.: 84
Chanel 7 Note Off - Duracao: 311220 Nota: C1 Vol.: 67
Chanel 7 Note On - Duracao: 311220 Nota: C1 Vol.: 96
Chanel 7 Note Off - Duracao: 311340 Nota: C1 Vol.: 96
Chanel 7 Note On - Duracao: 311340 Nota: C1 Vol.: 84
Chanel 10 Note Off - Duracao: 311400 Nota: C1 Vol.: 71
Chanel 10 Note On - Duracao: 311400 Nota: C1 Vol.: 69
Chanel 1 Note Off - Duracao: 311580 Nota: C1 Vol.: 94
Chanel 1 Note On - Duracao: 311580 Nota: C1 Vol.: 92
Chanel 7 Note Off - Duracao: 311580 Nota: C1 Vol.: 84
Chanel 7 Note On - Duracao: 311580 Nota: C1 Vol.: 76
Chanel 2 Note Off - Duracao: 311700 Nota: C1 Vol.: 72
Chanel 2 Note On - Duracao: 311700 Nota: C1 Vol.: 74
Chanel 5 Note Off - Duracao: 311700 Nota: C1 Vol.: 84
Chanel 5 Note On - Duracao: 311700 Nota: C1 Vol.: 83
Chanel 7 Note Off - Duracao: 312060 Nota: C1 Vol.: 76
Chanel 7 Note On - Duracao: 312060 Nota: C1 Vol.: 83
Chanel 5 Note Off - Duracao: 312180 Nota: C1 Vol.: 83
Chanel 5 Note On - Duracao: 312180 Nota: C1 Vol.: 86
Chanel 4 Note Off - Duracao: 312300 Nota: C1 Vol.: 47
Chanel 4 Note On - Duracao: 312300 Nota: C1 Vol.: 59
Chanel 6 Note Off - Duracao: 312300 Nota: C1 Vol.: 88
Chanel 6 Note On - Duracao: 312300 Nota: C1 Vol.: 91
Chanel 7 Note Off - Duracao: 312300 Nota: C1 Vol.: 83
Chanel 7 Note On - Duracao: 312300 Nota: C1 Vol.: 89
Chanel 10 Note Off - Duracao: 312360 Nota: C1 Vol.: 69
Chanel 10 Note On - Duracao: 312360 Nota: C1 Vol.: 72
Chanel 5 Note Off - Duracao: 312420 Nota: C1 Vol.: 86
Chanel 5 Note On - Duracao: 312420 Nota: C1 Vol.: 85
Chanel 7 Note Off - Duracao: 312420 Nota: C1 Vol.: 89
Chanel 7 Note On - Duracao: 312420 Nota: C1 Vol.: 74
Chanel 8 Note Off - Duracao: 312600 Nota: C1 Vol.: 51
Chanel 8 Note On - Duracao: 312600 Nota: C1 Vol.: 62
Chanel 2 Note Off - Duracao: 312660 Nota: C1 Vol.: 74
Chanel 2 Note On - Duracao: 312660 Nota: C1 Vol.: 88
Chanel 5 Note Off - Duracao: 312660 Nota: C1 Vol.: 85
Chanel 5 Note On - Duracao: 312660 Nota: C1 Vol.: 84
Chanel 3 Note Off - Duracao: 312780 Nota: C1 Vol.: 59
Chanel 3 Note On - Duracao: 312780 Nota: C1 Vol.: 54
Chanel 2 Note Off - Duracao: 312900 Nota: C1 Vol.: 88
Chanel 2 Note On - Duracao: 312900 Nota: C1 Vol.: 84
Chanel 7 Note Off - Duracao: 312900 Nota: C1 Vol.: 74
Chanel 7 Note On - Duracao: 312900 Nota: C1 Vol.: 90
Chanel 7 Note Off - Duracao: 313020 Nota: C1 Vol.: 90
Chanel 7 Note On - Duracao: 313020 Nota: C1 Vol.: 76
Chanel 2 Note Off - Duracao: 313140 Nota: C1 Vol.: 84
Chanel 2 Note On - Duracao: 313140 Nota: C1 Vol.: 77
Chanel 5 Note Off - Duracao: 313140 Nota: C1 Vol.: 84
Chanel 5 Note On - Duracao: 313140 Nota: C1 Vol.: 85
Chanel 10 Note Off - Duracao: 313320 Nota: C1 Vol.: 72
Chanel 10 Note On - Duracao: 313320 Nota: C1 Vol.: 65
Chanel 7 Note Off - Duracao: 313500 Nota: C1 Vol.: 76
Chanel 7 Note On - Duracao: 313500 Nota: C1 Vol.: 97
Chanel 2 Note Off - Duracao: 313620 Nota: C1 Vol.: 77
Chanel 2 Note On - Duracao: 313620 Nota: C1 Vol.: 81
Chanel 5 Note Off - Duracao: 313620 Nota: C1 Vol.: 85
Chanel 5 Note On - Duracao: 313620 Nota: C1 Vol.: 83
Chanel 7 Note Off - Duracao: 313620 Nota: C1 Vol.: 97
Chanel 7 Note On - Duracao: 313620 Nota: C1 Vol.: 95
Chanel 7 Note Off - Duracao: 313740 Nota: C1 Vol.: 95
Chanel 7 Note On - Duracao: 313740 Nota: C1 Vol.: 94
Chanel 7 Note Off - Duracao: 313860 Nota: C1 Vol.: 94
Chanel 7 Note On - Duracao: 313860 Nota: C1 Vol.: 95
Chanel 7 Note Off - Duracao: 313980 Nota: C1 Vol.: 95
Chanel 7 Note On - Duracao: 313980 Nota: C1 Vol.: 66
Chanel 2 Note Off - Duracao: 314100 Nota: C1 Vol.: 81
Chanel 2 Note On - Duracao: 314100 Nota: C1 Vol.: 86
Chanel 5 Note Off - Duracao: 314100 Nota: C1 Vol.: 83
Chanel 5 Note On - Duracao: 314100 Nota: C1 Vol.: 86
Chanel 4 Note Off - Duracao: 314220 Nota: C1 Vol.: 59
Chanel 4 Note On - Duracao: 314220 Nota: C1 Vol.: 87
Chanel 6 Note Off - Duracao: 314220 Nota: C1 Vol.: 91
Chanel 6 Note On - Duracao: 314220 Nota: C1 Vol.: 88
Chanel 2 Note Off - Duracao: 314340 Nota: C1 Vol.: 86
Chanel 2 Note On - Duracao: 314340 Nota: C1 Vol.: 80
Chanel 4 Note Off - Duracao: 314460 Nota: C1 Vol.: 87
Chanel 4 Note On - Duracao: 314460 Nota: C1 Vol.: 88
Chanel 8 Note Off - Duracao: 314520 Nota: C1 Vol.: 62
Chanel 8 Note On - Duracao: 314520 Nota: C1 Vol.: 67
Chanel 9 Note Off - Duracao: 314520 Nota: C1 Vol.: 80
Chanel 9 Note On - Duracao: 314520 Nota: C1 Vol.: 88
Chanel 5 Note Off - Duracao: 314580 Nota: C1 Vol.: 86
Chanel 5 Note On - Duracao: 314580 Nota: C1 Vol.: 84
Chanel 3 Note Off - Duracao: 314700 Nota: C1 Vol.: 54
Chanel 3 Note On - Duracao: 314700 Nota: C1 Vol.: 46
Chanel 4 Note Off - Duracao: 314700 Nota: C1 Vol.: 88
Chanel 4 Note On - Duracao: 314700 Nota: C1 Vol.: 49
Chanel 2 Note Off - Duracao: 314820 Nota: C1 Vol.: 80
Chanel 2 Note On - Duracao: 314820 Nota: C1 Vol.: 77
Chanel 7 Note Off - Duracao: 314940 Nota: C1 Vol.: 66
Chanel 7 Note On - Duracao: 314940 Nota: C1 Vol.: 60
Chanel 5 Note Off - Duracao: 315060 Nota: C1 Vol.: 84
Chanel 5 Note On - Duracao: 315060 Nota: C1 Vol.: 84
Chanel 6 Note Off - Duracao: 315180 Nota: C1 Vol.: 88
Chanel 6 Note On - Duracao: 315180 Nota: C1 Vol.: 49
Chanel 10 Note Off - Duracao: 315240 Nota: C1 Vol.: 65
Chanel 10 Note On - Duracao: 315240 Nota: C1 Vol.: 66
Chanel 2 Note Off - Duracao: 315300 Nota: C1 Vol.: 77
Chanel 2 Note On - Duracao: 315300 Nota: C1 Vol.: 85
Chanel 1 Note Off - Duracao: 315420 Nota: C1 Vol.: 92
Chanel 1 Note On - Duracao: 315420 Nota: C1 Vol.: 92
Chanel 5 Note Off - Duracao: 315540 Nota: C1 Vol.: 84
Chanel 5 Note On - Duracao: 315540 Nota: C1 Vol.: 85
Chanel 2 Note Off - Duracao: 315780 Nota: C1 Vol.: 85
Chanel 2 Note On - Duracao: 315780 Nota: C1 Vol.: 75
Chanel 5 Note Off - Duracao: 315780 Nota: C1 Vol.: 85
Chanel 5 Note On - Duracao: 315780 Nota: C1 Vol.: 63
Chanel 10 Note Off - Duracao: 316200 Nota: C1 Vol.: 66
Chanel 10 Note On - Duracao: 316200 Nota: C1 Vol.: 74
Chanel 8 Note Off - Duracao: 316440 Nota: C1 Vol.: 67
Chanel 8 Note On - Duracao: 316440 Nota: C1 Vol.: 72
Chanel 9 Note Off - Duracao: 316440 Nota: C1 Vol.: 88
Chanel 9 Note On - Duracao: 316440 Nota: C1 Vol.: 89
Chanel 4 Note Off - Duracao: 316620 Nota: C1 Vol.: 49
Chanel 4 Note On - Duracao: 316620 Nota: C1 Vol.: 47
Chanel 2 Note Off - Duracao: 316740 Nota: C1 Vol.: 75
Chanel 2 Note On - Duracao: 316740 Nota: C1 Vol.: 53
Chanel 5 Note Off - Duracao: 316740 Nota: C1 Vol.: 63
Chanel 5 Note On - Duracao: 316740 Nota: C1 Vol.: 49
Chanel 7 Note Off - Duracao: 316860 Nota: C1 Vol.: 60
Chanel 7 Note On - Duracao: 316860 Nota: C1 Vol.: 72
Chanel 10 Note Off - Duracao: 317160 Nota: C1 Vol.: 74
Chanel 10 Note On - Duracao: 317160 Nota: C1 Vol.: 69
Chanel 7 Note Off - Duracao: 317340 Nota: C1 Vol.: 72
Chanel 7 Note On - Duracao: 317340 Nota: C1 Vol.: 78
Chanel 8 Note Off - Duracao: 317400 Nota: C1 Vol.: 72
Chanel 8 Note On - Duracao: 317400 Nota: C1 Vol.: 73
Chanel 7 Note Off - Duracao: 317820 Nota: C1 Vol.: 78
Chanel 7 Note On - Duracao: 317820 Nota: C1 Vol.: 84
Chanel 7 Note Off - Duracao: 318060 Nota: C1 Vol.: 84
Chanel 7 Note On - Duracao: 318060 Nota: C1 Vol.: 87
Chanel 10 Note Off - Duracao: 318120 Nota: C1 Vol.: 69
Chanel 10 Note On - Duracao: 318120 Nota: C1 Vol.: 70
Chanel 7 Note Off - Duracao: 318300 Nota: C1 Vol.: 87
Chanel 7 Note On - Duracao: 318300 Nota: C1 Vol.: 61
Chanel 8 Note Off - Duracao: 318360 Nota: C1 Vol.: 73
Chanel 8 Note On - Duracao: 318360 Nota: C1 Vol.: 64
Chanel 9 Note Off - Duracao: 318360 Nota: C1 Vol.: 89
Chanel 9 Note On - Duracao: 318360 Nota: C1 Vol.: 81
Chanel 3 Note Off - Duracao: 318540 Nota: C1 Vol.: 46
Chanel 3 Note On - Duracao: 318540 Nota: C1 Vol.: 45
Chanel 4 Note Off - Duracao: 318540 Nota: C1 Vol.: 47
Chanel 4 Note On - Duracao: 318540 Nota: C1 Vol.: 56
Chanel 6 Note Off - Duracao: 319020 Nota: C1 Vol.: 49
Chanel 6 Note On - Duracao: 319020 Nota: C1 Vol.: 53
Chanel 10 Note Off - Duracao: 319080 Nota: C1 Vol.: 70
Chanel 10 Note On - Duracao: 319080 Nota: C1 Vol.: 75
Chanel 1 Note Off - Duracao: 319260 Nota: C1 Vol.: 92
Chanel 1 Note On - Duracao: 319260 Nota: C1 Vol.: 91
Chanel 4 Note Off - Duracao: 319500 Nota: C1 Vol.: 56
Chanel 4 Note On - Duracao: 319500 Nota: C1 Vol.: 53
Chanel 6 Note Off - Duracao: 319980 Nota: C1 Vol.: 53
Chanel 6 Note On - Duracao: 319980 Nota: C1 Vol.: 60
Chanel 10 Note Off - Duracao: 320040 Nota: C1 Vol.: 75
Chanel 10 Note On - Duracao: 320040 Nota: C1 Vol.: 78
Chanel 7 Note Off - Duracao: 320220 Nota: C1 Vol.: 61
Chanel 7 Note On - Duracao: 320220 Nota: C1 Vol.: 79
Chanel 8 Note Off - Duracao: 320280 Nota: C1 Vol.: 64
Chanel 8 Note On - Duracao: 320280 Nota: C1 Vol.: 63
Chanel 9 Note Off - Duracao: 320280 Nota: C1 Vol.: 81
Chanel 9 Note On - Duracao: 320280 Nota: C1 Vol.: 73
Chanel 4 Note Off - Duracao: 320460 Nota: C1 Vol.: 53
Chanel 4 Note On - Duracao: 320460 Nota: C1 Vol.: 56
Chanel 6 Note Off - Duracao: 320460 Nota: C1 Vol.: 60
Chanel 6 Note On - Duracao: 320460 Nota: C1 Vol.: 96
Chanel 6 Note Off - Duracao: 320520 Nota: C1 Vol.: 96
Chanel 6 Note On - Duracao: 320520 Nota: C1 Vol.: 97
Chanel 2 Note Off - Duracao: 320580 Nota: C1 Vol.: 53
Chanel 2 Note On - Duracao: 320580 Nota: C1 Vol.: 85
Chanel 5 Note Off - Duracao: 320580 Nota: C1 Vol.: 49
Chanel 5 Note On - Duracao: 320580 Nota: C1 Vol.: 80
Chanel 6 Note Off - Duracao: 320580 Nota: C1 Vol.: 97
Chanel 6 Note On - Duracao: 320580 Nota: C1 Vol.: 100
Chanel 6 Note Off - Duracao: 320640 Nota: C1 Vol.: 100
Chanel 6 Note On - Duracao: 320640 Nota: C1 Vol.: 60
Chanel 7 Note Off - Duracao: 320700 Nota: C1 Vol.: 79
Chanel 7 Note On - Duracao: 320700 Nota: C1 Vol.: 68
Chanel 5 Note Off - Duracao: 320820 Nota: C1 Vol.: 80
Chanel 5 Note On - Duracao: 320820 Nota: C1 Vol.: 76
Chanel 4 Note Off - Duracao: 320940 Nota: C1 Vol.: 56
Chanel 4 Note On - Duracao: 320940 Nota: C1 Vol.: 53
Chanel 10 Note Off - Duracao: 321000 Nota: C1 Vol.: 78
Chanel 10 Note On - Duracao: 321000 Nota: C1 Vol.: 68
Chanel 5 Note Off - Duracao: 321060 Nota: C1 Vol.: 76
Chanel 5 Note On - Duracao: 321060 Nota: C1 Vol.: 87
Chanel 5 Note Off - Duracao: 321180 Nota: C1 Vol.: 87
Chanel 5 Note On - Duracao: 321180 Nota: C1 Vol.: 90
Chanel 5 Note Off - Duracao: 321300 Nota: C1 Vol.: 90
Chanel 5 Note On - Duracao: 321300 Nota: C1 Vol.: 97
Chanel 5 Note Off - Duracao: 321360 Nota: C1 Vol.: 97
Chanel 5 Note On - Duracao: 321360 Nota: C1 Vol.: 98
Chanel 4 Note Off - Duracao: 321420 Nota: C1 Vol.: 53
Chanel 4 Note On - Duracao: 321420 Nota: C1 Vol.: 56
Chanel 5 Note Off - Duracao: 321420 Nota: C1 Vol.: 98
Chanel 5 Note On - Duracao: 321420 Nota: C1 Vol.: 98
Chanel 5 Note Off - Duracao: 321480 Nota: C1 Vol.: 98
Chanel 5 Note On - Duracao: 321480 Nota: C1 Vol.: 90
Chanel 2 Note Off - Duracao: 321540 Nota: C1 Vol.: 85
Chanel 2 Note On - Duracao: 321540 Nota: C1 Vol.: 88
Chanel 5 Note Off - Duracao: 321600 Nota: C1 Vol.: 90
Chanel 5 Note On - Duracao: 321600 Nota: C1 Vol.: 90
Chanel 6 Note Off - Duracao: 321600 Nota: C1 Vol.: 60
Chanel 6 Note On - Duracao: 321600 Nota: C1 Vol.: 45
Chanel 7 Note Off - Duracao: 321660 Nota: C1 Vol.: 68
Chanel 7 Note On - Duracao: 321660 Nota: C1 Vol.: 83
Chanel 5 Note Off - Duracao: 321720 Nota: C1 Vol.: 90
Chanel 5 Note On - Duracao: 321720 Nota: C1 Vol.: 91
Chanel 5 Note Off - Duracao: 321840 Nota: C1 Vol.: 91
Chanel 5 Note On - Duracao: 321840 Nota: C1 Vol.: 95
Chanel 4 Note Off - Duracao: 321900 Nota: C1 Vol.: 56
Chanel 4 Note On - Duracao: 321900 Nota: C1 Vol.: 59
Chanel 5 Note Off - Duracao: 321960 Nota: C1 Vol.: 95
Chanel 5 Note On - Duracao: 321960 Nota: C1 Vol.: 52
Chanel 10 Note Off - Duracao: 321960 Nota: C1 Vol.: 68
Chanel 10 Note On - Duracao: 321960 Nota: C1 Vol.: 74
Chanel 4 Note Off - Duracao: 322140 Nota: C1 Vol.: 59
Chanel 4 Note On - Duracao: 322140 Nota: C1 Vol.: 58
Chanel 7 Note Off - Duracao: 322140 Nota: C1 Vol.: 83
Chanel 7 Note On - Duracao: 322140 Nota: C1 Vol.: 80
Chanel 8 Note Off - Duracao: 322200 Nota: C1 Vol.: 63
Chanel 8 Note On - Duracao: 322200 Nota: C1 Vol.: 59
Chanel 3 Note Off - Duracao: 322380 Nota: C1 Vol.: 45
Chanel 3 Note On - Duracao: 322380 Nota: C1 Vol.: 64
Chanel 10 Note Off - Duracao: 322440 Nota: C1 Vol.: 74
Chanel 10 Note On - Duracao: 322440 Nota: C1 Vol.: 91
Chanel 10 Note Off - Duracao: 322560 Nota: C1 Vol.: 91
Chanel 10 Note On - Duracao: 322560 Nota: C1 Vol.: 87
Chanel 4 Note Off - Duracao: 322620 Nota: C1 Vol.: 58
Chanel 4 Note On - Duracao: 322620 Nota: C1 Vol.: 59
Chanel 10 Note Off - Duracao: 322680 Nota: C1 Vol.: 87
Chanel 10 Note On - Duracao: 322680 Nota: C1 Vol.: 91
Chanel 10 Note Off - Duracao: 322800 Nota: C1 Vol.: 91
Chanel 10 Note On - Duracao: 322800 Nota: C1 Vol.: 93
Chanel 10 Note Off - Duracao: 322920 Nota: C1 Vol.: 93
Chanel 10 Note On - Duracao: 322920 Nota: C1 Vol.: 95
Chanel 10 Note Off - Duracao: 323040 Nota: C1 Vol.: 95
Chanel 10 Note On - Duracao: 323040 Nota: C1 Vol.: 95
Chanel 1 Note Off - Duracao: 323100 Nota: C1 Vol.: 91
Chanel 1 Note On - Duracao: 323100 Nota: C1 Vol.: 92
Chanel 4 Note Off - Duracao: 323100 Nota: C1 Vol.: 59
Chanel 4 Note On - Duracao: 323100 Nota: C1 Vol.: 55
Chanel 7 Note Off - Duracao: 323100 Nota: C1 Vol.: 80
Chanel 7 Note On - Duracao: 323100 Nota: C1 Vol.: 79
Chanel 10 Note Off - Duracao: 323160 Nota: C1 Vol.: 95
Chanel 10 Note On - Duracao: 323160 Nota: C1 Vol.: 91
Chanel 10 Note Off - Duracao: 323280 Nota: C1 Vol.: 91
Chanel 10 Note On - Duracao: 323280 Nota: C1 Vol.: 91
Chanel 3 Note Off - Duracao: 323340 Nota: C1 Vol.: 64
Chanel 3 Note On - Duracao: 323340 Nota: C1 Vol.: 97
Chanel 3 Note Off - Duracao: 323400 Nota: C1 Vol.: 97
Chanel 3 Note On - Duracao: 323400 Nota: C1 Vol.: 96
Chanel 10 Note Off - Duracao: 323400 Nota: C1 Vol.: 91
Chanel 10 Note On - Duracao: 323400 Nota: C1 Vol.: 88
Chanel 2 Note Off - Duracao: 323460 Nota: C1 Vol.: 88
Chanel 2 Note On - Duracao: 323460 Nota: C1 Vol.: 92
Chanel 3 Note Off - Duracao: 323460 Nota: C1 Vol.: 96
Chanel 3 Note On - Duracao: 323460 Nota: C1 Vol.: 64
Chanel 6 Note Off - Duracao: 323520 Nota: C1 Vol.: 45
Chanel 6 Note On - Duracao: 323520 Nota: C1 Vol.: 83
Chanel 10 Note Off - Duracao: 323520 Nota: C1 Vol.: 88
Chanel 10 Note On - Duracao: 323520 Nota: C1 Vol.: 89
Chanel 4 Note Off - Duracao: 323580 Nota: C1 Vol.: 55
Chanel 4 Note On - Duracao: 323580 Nota: C1 Vol.: 57
Chanel 10 Note Off - Duracao: 323640 Nota: C1 Vol.: 89
Chanel 10 Note On - Duracao: 323640 Nota: C1 Vol.: 84
Chanel 6 Note Off - Duracao: 323760 Nota: C1 Vol.: 83
Chanel 6 Note On - Duracao: 323760 Nota: C1 Vol.: 87
Chanel 5 Note Off - Duracao: 323880 Nota: C1 Vol.: 52
Chanel 5 Note On - Duracao: 323880 Nota: C1 Vol.: 63
Chanel 6 Note Off - Duracao: 323880 Nota: C1 Vol.: 87
Chanel 6 Note On - Duracao: 323880 Nota: C1 Vol.: 91
Chanel 10 Note Off - Duracao: 323880 Nota: C1 Vol.: 84
Chanel 10 Note On - Duracao: 323880 Nota: C1 Vol.: 71
Chanel 6 Note Off - Duracao: 324000 Nota: C1 Vol.: 91
Chanel 6 Note On - Duracao: 324000 Nota: C1 Vol.: 90
Chanel 4 Note Off - Duracao: 324060 Nota: C1 Vol.: 57
Chanel 4 Note On - Duracao: 324060 Nota: C1 Vol.: 55
Chanel 7 Note Off - Duracao: 324060 Nota: C1 Vol.: 79
Chanel 7 Note On - Duracao: 324060 Nota: C1 Vol.: 83
Chanel 6 Note Off - Duracao: 324120 Nota: C1 Vol.: 90
Chanel 6 Note On - Duracao: 324120 Nota: C1 Vol.: 90
Chanel 8 Note Off - Duracao: 324120 Nota: C1 Vol.: 59
Chanel 8 Note On - Duracao: 324120 Nota: C1 Vol.: 56
Chanel 9 Note Off - Duracao: 324120 Nota: C1 Vol.: 73
Chanel 9 Note On - Duracao: 324120 Nota: C1 Vol.: 66
Chanel 6 Note Off - Duracao: 324240 Nota: C1 Vol.: 90
Chanel 6 Note On - Duracao: 324240 Nota: C1 Vol.: 90
Chanel 6 Note Off - Duracao: 324360 Nota: C1 Vol.: 90
Chanel 6 Note On - Duracao: 324360 Nota: C1 Vol.: 92
Chanel 10 Note Off - Duracao: 324360 Nota: C1 Vol.: 71
Chanel 10 Note On - Duracao: 324360 Nota: C1 Vol.: 58
Chanel 3 Note Off - Duracao: 324420 Nota: C1 Vol.: 64
Chanel 3 Note On - Duracao: 324420 Nota: C1 Vol.: 71
Chanel 6 Note Off - Duracao: 324480 Nota: C1 Vol.: 92
Chanel 6 Note On - Duracao: 324480 Nota: C1 Vol.: 91
Chanel 4 Note Off - Duracao: 324540 Nota: C1 Vol.: 55
Chanel 4 Note On - Duracao: 324540 Nota: C1 Vol.: 55
Chanel 7 Note Off - Duracao: 324540 Nota: C1 Vol.: 83
Chanel 7 Note On - Duracao: 324540 Nota: C1 Vol.: 57
Chanel 6 Note Off - Duracao: 324600 Nota: C1 Vol.: 91
Chanel 6 Note On - Duracao: 324600 Nota: C1 Vol.: 96
Chanel 6 Note Off - Duracao: 324660 Nota: C1 Vol.: 96
Chanel 6 Note On - Duracao: 324660 Nota: C1 Vol.: 99
Chanel 6 Note Off - Duracao: 324720 Nota: C1 Vol.: 99
Chanel 6 Note On - Duracao: 324720 Nota: C1 Vol.: 100
Chanel 6 Note Off - Duracao: 324780 Nota: C1 Vol.: 100
Chanel 6 Note On - Duracao: 324780 Nota: C1 Vol.: 100
Chanel 5 Note Off - Duracao: 324840 Nota: C1 Vol.: 63
Chanel 5 Note On - Duracao: 324840 Nota: C1 Vol.: 97
Chanel 6 Note Off - Duracao: 324840 Nota: C1 Vol.: 100
Chanel 6 Note On - Duracao: 324840 Nota: C1 Vol.: 100
Chanel 3 Note Off - Duracao: 324900 Nota: C1 Vol.: 71
Chanel 3 Note On - Duracao: 324900 Nota: C1 Vol.: 98
Chanel 6 Note Off - Duracao: 324900 Nota: C1 Vol.: 100
Chanel 6 Note On - Duracao: 324900 Nota: C1 Vol.: 99
Chanel 3 Note Off - Duracao: 324960 Nota: C1 Vol.: 98
Chanel 3 Note On - Duracao: 324960 Nota: C1 Vol.: 87
Chanel 5 Note Off - Duracao: 324960 Nota: C1 Vol.: 97
Chanel 5 Note On - Duracao: 324960 Nota: C1 Vol.: 100
Chanel 6 Note Off - Duracao: 324960 Nota: C1 Vol.: 99
Chanel 6 Note On - Duracao: 324960 Nota: C1 Vol.: 99
Chanel 1 Note Off - Duracao: 325020 Nota: C1 Vol.: 92
Chanel 1 Note On - Duracao: 325020 Nota: C1 Vol.: 83
Chanel 4 Note Off - Duracao: 325020 Nota: C1 Vol.: 55
Chanel 4 Note On - Duracao: 325020 Nota: C1 Vol.: 60
Chanel 5 Note Off - Duracao: 325020 Nota: C1 Vol.: 100
Chanel 5 Note On - Duracao: 325020 Nota: C1 Vol.: 99
Chanel 6 Note Off - Duracao: 325020 Nota: C1 Vol.: 99
Chanel 6 Note On - Duracao: 325020 Nota: C1 Vol.: 99
Chanel 3 Note Off - Duracao: 325080 Nota: C1 Vol.: 87
Chanel 3 Note On - Duracao: 325080 Nota: C1 Vol.: 71
Chanel 5 Note Off - Duracao: 325080 Nota: C1 Vol.: 99
Chanel 5 Note On - Duracao: 325080 Nota: C1 Vol.: 99
Chanel 6 Note Off - Duracao: 325080 Nota: C1 Vol.: 99
Chanel 6 Note On - Duracao: 325080 Nota: C1 Vol.: 98
Chanel 5 Note Off - Duracao: 325140 Nota: C1 Vol.: 99
Chanel 5 Note On - Duracao: 325140 Nota: C1 Vol.: 97
Chanel 6 Note Off - Duracao: 325140 Nota: C1 Vol.: 98
Chanel 6 Note On - Duracao: 325140 Nota: C1 Vol.: 91
Chanel 5 Note Off - Duracao: 325260 Nota: C1 Vol.: 97
Chanel 5 Note On - Duracao: 325260 Nota: C1 Vol.: 78
Chanel 6 Note Off - Duracao: 325260 Nota: C1 Vol.: 91
Chanel 6 Note On - Duracao: 325260 Nota: C1 Vol.: 52
Chanel 2 Note Off - Duracao: 325380 Nota: C1 Vol.: 92
Chanel 2 Note On - Duracao: 325380 Nota: C1 Vol.: 82
Chanel 4 Note Off - Duracao: 325500 Nota: C1 Vol.: 60
Chanel 4 Note On - Duracao: 325500 Nota: C1 Vol.: 47
Chanel 5 Note Off - Duracao: 325500 Nota: C1 Vol.: 78
Chanel 5 Note On - Duracao: 325500 Nota: C1 Vol.: 99
Chanel 3 Note Off - Duracao: 325560 Nota: C1 Vol.: 71
Chanel 3 Note On - Duracao: 325560 Nota: C1 Vol.: 58
Chanel 5 Note Off - Duracao: 325560 Nota: C1 Vol.: 99
Chanel 5 Note On - Duracao: 325560 Nota: C1 Vol.: 100
Chanel 5 Note Off - Duracao: 325620 Nota: C1 Vol.: 100
Chanel 5 Note On - Duracao: 325620 Nota: C1 Vol.: 100
Chanel 5 Note Off - Duracao: 325680 Nota: C1 Vol.: 100
Chanel 5 Note On - Duracao: 325680 Nota: C1 Vol.: 97
Chanel 5 Note Off - Duracao: 325740 Nota: C1 Vol.: 97
Chanel 5 Note On - Duracao: 325740 Nota: C1 Vol.: 99
Chanel 5 Note Off - Duracao: 325800 Nota: C1 Vol.: 99
Chanel 5 Note On - Duracao: 325800 Nota: C1 Vol.: 99
Chanel 5 Note Off - Duracao: 325860 Nota: C1 Vol.: 99
Chanel 5 Note On - Duracao: 325860 Nota: C1 Vol.: 94
Chanel 5 Note Off - Duracao: 325980 Nota: C1 Vol.: 94
Chanel 5 Note On - Duracao: 325980 Nota: C1 Vol.: 97
Chanel 5 Note Off - Duracao: 326040 Nota: C1 Vol.: 97
Chanel 5 Note On - Duracao: 326040 Nota: C1 Vol.: 99
Chanel 8 Note Off - Duracao: 326040 Nota: C1 Vol.: 56
Chanel 8 Note On - Duracao: 326040 Nota: C1 Vol.: 92
Chanel 5 Note Off - Duracao: 326100 Nota: C1 Vol.: 99
Chanel 5 Note On - Duracao: 326100 Nota: C1 Vol.: 98
Chanel 5 Note Off - Duracao: 326160 Nota: C1 Vol.: 98
Chanel 5 Note On - Duracao: 326160 Nota: C1 Vol.: 96
Chanel 8 Note Off - Duracao: 326160 Nota: C1 Vol.: 92
Chanel 8 Note On - Duracao: 326160 Nota: C1 Vol.: 91
Chanel 5 Note Off - Duracao: 326220 Nota: C1 Vol.: 96
Chanel 5 Note On - Duracao: 326220 Nota: C1 Vol.: 100
Chanel 5 Note Off - Duracao: 326280 Nota: C1 Vol.: 100
Chanel 5 Note On - Duracao: 326280 Nota: C1 Vol.: 95
Chanel 8 Note Off - Duracao: 326280 Nota: C1 Vol.: 91
Chanel 8 Note On - Duracao: 326280 Nota: C1 Vol.: 87
Chanel 10 Note Off - Duracao: 326280 Nota: C1 Vol.: 58
Chanel 10 Note On - Duracao: 326280 Nota: C1 Vol.: 62
Chanel 5 Note Off - Duracao: 326340 Nota: C1 Vol.: 95
Chanel 5 Note On - Duracao: 326340 Nota: C1 Vol.: 97
Chanel 5 Note Off - Duracao: 326400 Nota: C1 Vol.: 97
Chanel 5 Note On - Duracao: 326400 Nota: C1 Vol.: 92
Chanel 8 Note Off - Duracao: 326400 Nota: C1 Vol.: 87
Chanel 8 Note On - Duracao: 326400 Nota: C1 Vol.: 94
Chanel 7 Note Off - Duracao: 326460 Nota: C1 Vol.: 57
Chanel 7 Note On - Duracao: 326460 Nota: C1 Vol.: 62
Chanel 8 Note Off - Duracao: 326460 Nota: C1 Vol.: 94
Chanel 8 Note On - Duracao: 326460 Nota: C1 Vol.: 93
Chanel 5 Note Off - Duracao: 326520 Nota: C1 Vol.: 92
Chanel 5 Note On - Duracao: 326520 Nota: C1 Vol.: 92
Chanel 8 Note Off - Duracao: 326580 Nota: C1 Vol.: 93
Chanel 8 Note On - Duracao: 326580 Nota: C1 Vol.: 93
Chanel 5 Note Off - Duracao: 326640 Nota: C1 Vol.: 92
Chanel 5 Note On - Duracao: 326640 Nota: C1 Vol.: 95
Chanel 8 Note Off - Duracao: 326640 Nota: C1 Vol.: 93
Chanel 8 Note On - Duracao: 326640 Nota: C1 Vol.: 85
Chanel 5 Note Off - Duracao: 326760 Nota: C1 Vol.: 95
Chanel 5 Note On - Duracao: 326760 Nota: C1 Vol.: 92
Chanel 8 Note Off - Duracao: 326760 Nota: C1 Vol.: 85
Chanel 8 Note On - Duracao: 326760 Nota: C1 Vol.: 81
Chanel 5 Note Off - Duracao: 326880 Nota: C1 Vol.: 92
Chanel 5 Note On - Duracao: 326880 Nota: C1 Vol.: 81
Chanel 1 Note Off - Duracao: 326940 Nota: C1 Vol.: 83
Chanel 1 Note On - Duracao: 326940 Nota: C1 Vol.: 52
Chanel 8 Note Off - Duracao: 327000 Nota: C1 Vol.: 81
Chanel 8 Note On - Duracao: 327000 Nota: C1 Vol.: 78
Chanel 5 Note Off - Duracao: 327120 Nota: C1 Vol.: 81
Chanel 5 Note On - Duracao: 327120 Nota: C1 Vol.: 63
Chanel 6 Note Off - Duracao: 327180 Nota: C1 Vol.: 52
Chanel 6 Note On - Duracao: 327180 Nota: C1 Vol.: 83
Chanel 8 Note Off - Duracao: 327240 Nota: C1 Vol.: 78
Chanel 8 Note On - Duracao: 327240 Nota: C1 Vol.: 79
Chanel 10 Note Off - Duracao: 327240 Nota: C1 Vol.: 62
Chanel 10 Note On - Duracao: 327240 Nota: C1 Vol.: 60
Chanel 2 Note Off - Duracao: 327300 Nota: C1 Vol.: 82
Chanel 2 Note On - Duracao: 327300 Nota: C1 Vol.: 74
Chanel 4 Note Off - Duracao: 327420 Nota: C1 Vol.: 47
Chanel 4 Note On - Duracao: 327420 Nota: C1 Vol.: 44
Chanel 6 Note Off - Duracao: 327420 Nota: C1 Vol.: 83
Chanel 6 Note On - Duracao: 327420 Nota: C1 Vol.: 96
Chanel 3 Note Off - Duracao: 327480 Nota: C1 Vol.: 58
Chanel 3 Note On - Duracao: 327480 Nota: C1 Vol.: 64
Chanel 6 Note Off - Duracao: 327480 Nota: C1 Vol.: 96
Chanel 6 Note On - Duracao: 327480 Nota: C1 Vol.: 96
Chanel 8 Note Off - Duracao: 327480 Nota: C1 Vol.: 79
Chanel 8 Note On - Duracao: 327480 Nota: C1 Vol.: 80
Chanel 6 Note Off - Duracao: 327540 Nota: C1 Vol.: 96
Chanel 6 Note On - Duracao: 327540 Nota: C1 Vol.: 98
Chanel 5 Note Off - Duracao: 327600 Nota: C1 Vol.: 63
Chanel 5 Note On - Duracao: 327600 Nota: C1 Vol.: 58
Chanel 6 Note Off - Duracao: 327600 Nota: C1 Vol.: 98
Chanel 6 Note On - Duracao: 327600 Nota: C1 Vol.: 99
Chanel 6 Note Off - Duracao: 327660 Nota: C1 Vol.: 99
Chanel 6 Note On - Duracao: 327660 Nota: C1 Vol.: 97
Chanel 6 Note Off - Duracao: 327720 Nota: C1 Vol.: 97
Chanel 6 Note On - Duracao: 327720 Nota: C1 Vol.: 96
Chanel 8 Note Off - Duracao: 327720 Nota: C1 Vol.: 80
Chanel 8 Note On - Duracao: 327720 Nota: C1 Vol.: 84
Chanel 6 Note Off - Duracao: 327840 Nota: C1 Vol.: 96
Chanel 6 Note On - Duracao: 327840 Nota: C1 Vol.: 93
Chanel 6 Note Off - Duracao: 327960 Nota: C1 Vol.: 93
Chanel 6 Note On - Duracao: 327960 Nota: C1 Vol.: 89
Chanel 8 Note Off - Duracao: 327960 Nota: C1 Vol.: 84
Chanel 8 Note On - Duracao: 327960 Nota: C1 Vol.: 98
Chanel 9 Note Off - Duracao: 327960 Nota: C1 Vol.: 66
Chanel 9 Note On - Duracao: 327960 Nota: C1 Vol.: 80
Chanel 8 Note Off - Duracao: 328020 Nota: C1 Vol.: 98
Chanel 8 Note On - Duracao: 328020 Nota: C1 Vol.: 97
Chanel 8 Note Off - Duracao: 328140 Nota: C1 Vol.: 97
Chanel 8 Note On - Duracao: 328140 Nota: C1 Vol.: 99
Chanel 6 Note Off - Duracao: 328200 Nota: C1 Vol.: 89
Chanel 6 Note On - Duracao: 328200 Nota: C1 Vol.: 78
Chanel 8 Note Off - Duracao: 328260 Nota: C1 Vol.: 99
Chanel 8 Note On - Duracao: 328260 Nota: C1 Vol.: 93
Chanel 7 Note Off - Duracao: 328380 Nota: C1 Vol.: 62
Chanel 7 Note On - Duracao: 328380 Nota: C1 Vol.: 69
Chanel 8 Note Off - Duracao: 328500 Nota: C1 Vol.: 93
Chanel 8 Note On - Duracao: 328500 Nota: C1 Vol.: 89
Chanel 5 Note Off - Duracao: 328560 Nota: C1 Vol.: 58
Chanel 5 Note On - Duracao: 328560 Nota: C1 Vol.: 64
Chanel 6 Note Off - Duracao: 328680 Nota: C1 Vol.: 78
Chanel 6 Note On - Duracao: 328680 Nota: C1 Vol.: 71
Chanel 9 Note Off - Duracao: 328920 Nota: C1 Vol.: 80
Chanel 9 Note On - Duracao: 328920 Nota: C1 Vol.: 54
Chanel 8 Note Off - Duracao: 328980 Nota: C1 Vol.: 89
Chanel 8 Note On - Duracao: 328980 Nota: C1 Vol.: 84
Chanel 6 Note Off - Duracao: 329160 Nota: C1 Vol.: 71
Chanel 6 Note On - Duracao: 329160 Nota: C1 Vol.: 71
Chanel 10 Note Off - Duracao: 329160 Nota: C1 Vol.: 60
Chanel 10 Note On - Duracao: 329160 Nota: C1 Vol.: 56
Chanel 2 Note Off - Duracao: 329220 Nota: C1 Vol.: 74
Chanel 2 Note On - Duracao: 329220 Nota: C1 Vol.: 77
Chanel 7 Note Off - Duracao: 329340 Nota: C1 Vol.: 69
Chanel 7 Note On - Duracao: 329340 Nota: C1 Vol.: 97
Chanel 3 Note Off - Duracao: 329400 Nota: C1 Vol.: 64
Chanel 3 Note On - Duracao: 329400 Nota: C1 Vol.: 60
Chanel 7 Note Off - Duracao: 329460 Nota: C1 Vol.: 97
Chanel 7 Note On - Duracao: 329460 Nota: C1 Vol.: 94
Chanel 5 Note Off - Duracao: 329520 Nota: C1 Vol.: 64
Chanel 5 Note On - Duracao: 329520 Nota: C1 Vol.: 68
Chanel 7 Note Off - Duracao: 329580 Nota: C1 Vol.: 94
Chanel 7 Note On - Duracao: 329580 Nota: C1 Vol.: 95
Chanel 6 Note Off - Duracao: 329640 Nota: C1 Vol.: 71
Chanel 6 Note On - Duracao: 329640 Nota: C1 Vol.: 75
Chanel 7 Note Off - Duracao: 329700 Nota: C1 Vol.: 95
Chanel 7 Note On - Duracao: 329700 Nota: C1 Vol.: 92
Chanel 7 Note Off - Duracao: 329820 Nota: C1 Vol.: 92
Chanel 7 Note On - Duracao: 329820 Nota: C1 Vol.: 88
Chanel 8 Note Off - Duracao: 329940 Nota: C1 Vol.: 84
Chanel 8 Note On - Duracao: 329940 Nota: C1 Vol.: 91
Chanel 5 Note Off - Duracao: 330000 Nota: C1 Vol.: 68
Chanel 5 Note On - Duracao: 330000 Nota: C1 Vol.: 65
Chanel 7 Note Off - Duracao: 330060 Nota: C1 Vol.: 88
Chanel 7 Note On - Duracao: 330060 Nota: C1 Vol.: 80
Chanel 6 Note Off - Duracao: 330120 Nota: C1 Vol.: 75
Chanel 6 Note On - Duracao: 330120 Nota: C1 Vol.: 70
Chanel 8 Note Off - Duracao: 330420 Nota: C1 Vol.: 91
Chanel 8 Note On - Duracao: 330420 Nota: C1 Vol.: 66
Chanel 1 Note Off - Duracao: 330780 Nota: C1 Vol.: 52
Chanel 1 Note On - Duracao: 330780 Nota: C1 Vol.: 71
Chanel 5 Note Off - Duracao: 330960 Nota: C1 Vol.: 65
Chanel 5 Note On - Duracao: 330960 Nota: C1 Vol.: 69
Chanel 7 Note Off - Duracao: 331020 Nota: C1 Vol.: 80
Chanel 7 Note On - Duracao: 331020 Nota: C1 Vol.: 63
Chanel 6 Note Off - Duracao: 331080 Nota: C1 Vol.: 70
Chanel 6 Note On - Duracao: 331080 Nota: C1 Vol.: 71
Chanel 10 Note Off - Duracao: 331080 Nota: C1 Vol.: 56
Chanel 10 Note On - Duracao: 331080 Nota: C1 Vol.: 57
Chanel 2 Note Off - Duracao: 331140 Nota: C1 Vol.: 77
Chanel 2 Note On - Duracao: 331140 Nota: C1 Vol.: 82
Chanel 1 Note Off - Duracao: 331260 Nota: C1 Vol.: 71
Chanel 1 Note On - Duracao: 331260 Nota: C1 Vol.: 97
Chanel 4 Note Off - Duracao: 331260 Nota: C1 Vol.: 44
Chanel 4 Note On - Duracao: 331260 Nota: C1 Vol.: 45
Chanel 1 Note Off - Duracao: 331320 Nota: C1 Vol.: 97
Chanel 1 Note On - Duracao: 331320 Nota: C1 Vol.: 96
Chanel 3 Note Off - Duracao: 331320 Nota: C1 Vol.: 60
Chanel 3 Note On - Duracao: 331320 Nota: C1 Vol.: 64
Chanel 1 Note Off - Duracao: 331380 Nota: C1 Vol.: 96
Chanel 1 Note On - Duracao: 331380 Nota: C1 Vol.: 81
Chanel 1 Note Off - Duracao: 331620 Nota: C1 Vol.: 81
Chanel 1 Note On - Duracao: 331620 Nota: C1 Vol.: 81
Chanel 1 Note Off - Duracao: 331860 Nota: C1 Vol.: 81
Chanel 1 Note On - Duracao: 331860 Nota: C1 Vol.: 87
Chanel 5 Note Off - Duracao: 331920 Nota: C1 Vol.: 69
Chanel 5 Note On - Duracao: 331920 Nota: C1 Vol.: 61
Chanel 1 Note Off - Duracao: 331980 Nota: C1 Vol.: 87
Chanel 1 Note On - Duracao: 331980 Nota: C1 Vol.: 82
Chanel 6 Note Off - Duracao: 332040 Nota: C1 Vol.: 71
Chanel 6 Note On - Duracao: 332040 Nota: C1 Vol.: 64
Chanel 1 Note Off - Duracao: 332220 Nota: C1 Vol.: 82
Chanel 1 Note On - Duracao: 332220 Nota: C1 Vol.: 90
Chanel 1 Note Off - Duracao: 332340 Nota: C1 Vol.: 90
Chanel 1 Note On - Duracao: 332340 Nota: C1 Vol.: 81
Chanel 8 Note Off - Duracao: 332340 Nota: C1 Vol.: 66
Chanel 8 Note On - Duracao: 332340 Nota: C1 Vol.: 61
Chanel 1 Note Off - Duracao: 332580 Nota: C1 Vol.: 81
Chanel 1 Note On - Duracao: 332580 Nota: C1 Vol.: 91
Chanel 1 Note Off - Duracao: 332700 Nota: C1 Vol.: 91
Chanel 1 Note On - Duracao: 332700 Nota: C1 Vol.: 81
Chanel 9 Note Off - Duracao: 332760 Nota: C1 Vol.: 54
Chanel 9 Note On - Duracao: 332760 Nota: C1 Vol.: 52
Chanel 1 Note Off - Duracao: 332940 Nota: C1 Vol.: 81
Chanel 1 Note On - Duracao: 332940 Nota: C1 Vol.: 74
Chanel 7 Note Off - Duracao: 332940 Nota: C1 Vol.: 63
Chanel 7 Note On - Duracao: 332940 Nota: C1 Vol.: 67
Chanel 10 Note Off - Duracao: 333000 Nota: C1 Vol.: 57
Chanel 10 Note On - Duracao: 333000 Nota: C1 Vol.: 59
Chanel 2 Note Off - Duracao: 333060 Nota: C1 Vol.: 82
Chanel 2 Note On - Duracao: 333060 Nota: C1 Vol.: 82
Chanel 1 Note Off - Duracao: 333180 Nota: C1 Vol.: 74
Chanel 1 Note On - Duracao: 333180 Nota: C1 Vol.: 74
Chanel 3 Note Off - Duracao: 333240 Nota: C1 Vol.: 64
Chanel 3 Note On - Duracao: 333240 Nota: C1 Vol.: 76
Chanel 1 Note Off - Duracao: 333420 Nota: C1 Vol.: 74
Chanel 1 Note On - Duracao: 333420 Nota: C1 Vol.: 73
Chanel 5 Note Off - Duracao: 333840 Nota: C1 Vol.: 61
Chanel 5 Note On - Duracao: 333840 Nota: C1 Vol.: 65
Chanel 1 Note Off - Duracao: 333900 Nota: C1 Vol.: 73
Chanel 1 Note On - Duracao: 333900 Nota: C1 Vol.: 70
Chanel 6 Note Off - Duracao: 333960 Nota: C1 Vol.: 64
Chanel 6 Note On - Duracao: 333960 Nota: C1 Vol.: 69
Chanel 8 Note Off - Duracao: 334260 Nota: C1 Vol.: 61
Chanel 8 Note On - Duracao: 334260 Nota: C1 Vol.: 77
Chanel 1 Note Off - Duracao: 334380 Nota: C1 Vol.: 70
Chanel 1 Note On - Duracao: 334380 Nota: C1 Vol.: 71
Chanel 8 Note Off - Duracao: 334740 Nota: C1 Vol.: 77
Chanel 8 Note On - Duracao: 334740 Nota: C1 Vol.: 83
Chanel 7 Note Off - Duracao: 334860 Nota: C1 Vol.: 67
Chanel 7 Note On - Duracao: 334860 Nota: C1 Vol.: 67
Chanel 10 Note Off - Duracao: 334920 Nota: C1 Vol.: 59
Chanel 10 Note On - Duracao: 334920 Nota: C1 Vol.: 72
Chanel 2 Note Off - Duracao: 334980 Nota: C1 Vol.: 82
Chanel 2 Note On - Duracao: 334980 Nota: C1 Vol.: 81
Chanel 4 Note Off - Duracao: 335100 Nota: C1 Vol.: 45
Chanel 4 Note On - Duracao: 335100 Nota: C1 Vol.: 45
Chanel 3 Note Off - Duracao: 335160 Nota: C1 Vol.: 76
Chanel 3 Note On - Duracao: 335160 Nota: C1 Vol.: 83
Chanel 8 Note Off - Duracao: 335220 Nota: C1 Vol.: 83
Chanel 8 Note On - Duracao: 335220 Nota: C1 Vol.: 81
Chanel 1 Note Off - Duracao: 335340 Nota: C1 Vol.: 71
Chanel 1 Note On - Duracao: 335340 Nota: C1 Vol.: 85
Chanel 5 Note Off - Duracao: 335760 Nota: C1 Vol.: 65
Chanel 5 Note On - Duracao: 335760 Nota: C1 Vol.: 60
Chanel 1 Note Off - Duracao: 335820 Nota: C1 Vol.: 85
Chanel 1 Note On - Duracao: 335820 Nota: C1 Vol.: 97
Chanel 7 Note Off - Duracao: 335820 Nota: C1 Vol.: 67
Chanel 7 Note On - Duracao: 335820 Nota: C1 Vol.: 65
Chanel 6 Note Off - Duracao: 335880 Nota: C1 Vol.: 69
Chanel 6 Note On - Duracao: 335880 Nota: C1 Vol.: 87
Chanel 10 Note Off - Duracao: 335880 Nota: C1 Vol.: 72
Chanel 10 Note On - Duracao: 335880 Nota: C1 Vol.: 85
Chanel 1 Note Off - Duracao: 336060 Nota: C1 Vol.: 97
Chanel 1 Note On - Duracao: 336060 Nota: C1 Vol.: 83
Chanel 8 Note Off - Duracao: 336180 Nota: C1 Vol.: 81
Chanel 8 Note On - Duracao: 336180 Nota: C1 Vol.: 79
Chanel 6 Note Off - Duracao: 336360 Nota: C1 Vol.: 87
Chanel 6 Note On - Duracao: 336360 Nota: C1 Vol.: 65
Chanel 10 Note Off - Duracao: 336360 Nota: C1 Vol.: 85
Chanel 10 Note On - Duracao: 336360 Nota: C1 Vol.: 86
Chanel 1 Note Off - Duracao: 336540 Nota: C1 Vol.: 83
Chanel 1 Note On - Duracao: 336540 Nota: C1 Vol.: 82
Chanel 9 Note Off - Duracao: 336600 Nota: C1 Vol.: 52
Chanel 9 Note On - Duracao: 336600 Nota: C1 Vol.: 52
Chanel 7 Note Off - Duracao: 336780 Nota: C1 Vol.: 65
Chanel 7 Note On - Duracao: 336780 Nota: C1 Vol.: 60
Chanel 10 Note Off - Duracao: 336840 Nota: C1 Vol.: 86
Chanel 10 Note On - Duracao: 336840 Nota: C1 Vol.: 79
Chanel 2 Note Off - Duracao: 336900 Nota: C1 Vol.: 81
Chanel 2 Note On - Duracao: 336900 Nota: C1 Vol.: 81
Chanel 1 Note Off - Duracao: 337020 Nota: C1 Vol.: 82
Chanel 1 Note On - Duracao: 337020 Nota: C1 Vol.: 88
Chanel 3 Note Off - Duracao: 337080 Nota: C1 Vol.: 83
Chanel 3 Note On - Duracao: 337080 Nota: C1 Vol.: 83
Chanel 8 Note Off - Duracao: 337140 Nota: C1 Vol.: 79
Chanel 8 Note On - Duracao: 337140 Nota: C1 Vol.: 75
Chanel 1 Note Off - Duracao: 337260 Nota: C1 Vol.: 88
Chanel 1 Note On - Duracao: 337260 Nota: C1 Vol.: 98
Chanel 1 Note Off - Duracao: 337380 Nota: C1 Vol.: 98
Chanel 1 Note On - Duracao: 337380 Nota: C1 Vol.: 96
Chanel 1 Note Off - Duracao: 337500 Nota: C1 Vol.: 96
Chanel 1 Note On - Duracao: 337500 Nota: C1 Vol.: 95
Chanel 1 Note Off - Duracao: 337560 Nota: C1 Vol.: 95
Chanel 1 Note On - Duracao: 337560 Nota: C1 Vol.: 89
Chanel 1 Note Off - Duracao: 337680 Nota: C1 Vol.: 89
Chanel 1 Note On - Duracao: 337680 Nota: C1 Vol.: 87
Chanel 5 Note Off - Duracao: 337680 Nota: C1 Vol.: 60
Chanel 5 Note On - Duracao: 337680 Nota: C1 Vol.: 68
Chanel 1 Note Off - Duracao: 337800 Nota: C1 Vol.: 87
Chanel 1 Note On - Duracao: 337800 Nota: C1 Vol.: 89
Chanel 10 Note Off - Duracao: 337800 Nota: C1 Vol.: 79
Chanel 10 Note On - Duracao: 337800 Nota: C1 Vol.: 63
Chanel 2 Note Off - Duracao: 337860 Nota: C1 Vol.: 81
Chanel 2 Note On - Duracao: 337860 Nota: C1 Vol.: 91
Chanel 1 Note Off - Duracao: 337920 Nota: C1 Vol.: 89
Chanel 1 Note On - Duracao: 337920 Nota: C1 Vol.: 87
Chanel 1 Note Off - Duracao: 338040 Nota: C1 Vol.: 87
Chanel 1 Note On - Duracao: 338040 Nota: C1 Vol.: 89
Chanel 2 Note Off - Duracao: 338100 Nota: C1 Vol.: 91
Chanel 2 Note On - Duracao: 338100 Nota: C1 Vol.: 59
Chanel 8 Note Off - Duracao: 338100 Nota: C1 Vol.: 75
Chanel 8 Note On - Duracao: 338100 Nota: C1 Vol.: 76
Chanel 1 Note Off - Duracao: 338160 Nota: C1 Vol.: 89
Chanel 1 Note On - Duracao: 338160 Nota: C1 Vol.: 95
Chanel 1 Note Off - Duracao: 338220 Nota: C1 Vol.: 95
Chanel 1 Note On - Duracao: 338220 Nota: C1 Vol.: 96
Chanel 1 Note Off - Duracao: 338280 Nota: C1 Vol.: 96
Chanel 1 Note On - Duracao: 338280 Nota: C1 Vol.: 97
Chanel 6 Note Off - Duracao: 338280 Nota: C1 Vol.: 65
Chanel 6 Note On - Duracao: 338280 Nota: C1 Vol.: 63
Chanel 1 Note Off - Duracao: 338340 Nota: C1 Vol.: 97
Chanel 1 Note On - Duracao: 338340 Nota: C1 Vol.: 96
Chanel 1 Note Off - Duracao: 338400 Nota: C1 Vol.: 96
Chanel 1 Note On - Duracao: 338400 Nota: C1 Vol.: 97
Chanel 1 Note Off - Duracao: 338460 Nota: C1 Vol.: 97
Chanel 1 Note On - Duracao: 338460 Nota: C1 Vol.: 98
Chanel 1 Note Off - Duracao: 338520 Nota: C1 Vol.: 98
Chanel 1 Note On - Duracao: 338520 Nota: C1 Vol.: 91
Chanel 1 Note Off - Duracao: 338640 Nota: C1 Vol.: 91
Chanel 1 Note On - Duracao: 338640 Nota: C1 Vol.: 84
Chanel 7 Note Off - Duracao: 338700 Nota: C1 Vol.: 60
Chanel 7 Note On - Duracao: 338700 Nota: C1 Vol.: 60
Chanel 1 Note Off - Duracao: 338760 Nota: C1 Vol.: 84
Chanel 1 Note On - Duracao: 338760 Nota: C1 Vol.: 88
Chanel 1 Note Off - Duracao: 338880 Nota: C1 Vol.: 88
Chanel 1 Note On - Duracao: 338880 Nota: C1 Vol.: 97
Chanel 1 Note Off - Duracao: 338940 Nota: C1 Vol.: 97
Chanel 1 Note On - Duracao: 338940 Nota: C1 Vol.: 98
Chanel 4 Note Off - Duracao: 338940 Nota: C1 Vol.: 45
Chanel 4 Note On - Duracao: 338940 Nota: C1 Vol.: 44
Chanel 1 Note Off - Duracao: 339000 Nota: C1 Vol.: 98
Chanel 1 Note On - Duracao: 339000 Nota: C1 Vol.: 97
Chanel 1 Note Off - Duracao: 339060 Nota: C1 Vol.: 97
Chanel 1 Note On - Duracao: 339060 Nota: C1 Vol.: 95
Chanel 2 Note Off - Duracao: 339060 Nota: C1 Vol.: 59
Chanel 2 Note On - Duracao: 339060 Nota: C1 Vol.: 49
Chanel 8 Note Off - Duracao: 339060 Nota: C1 Vol.: 76
Chanel 8 Note On - Duracao: 339060 Nota: C1 Vol.: 81
Chanel 1 Note Off - Duracao: 339180 Nota: C1 Vol.: 95
Chanel 1 Note On - Duracao: 339180 Nota: C1 Vol.: 88
Chanel 1 Note Off - Duracao: 339300 Nota: C1 Vol.: 88
Chanel 1 Note On - Duracao: 339300 Nota: C1 Vol.: 93
Chanel 1 Note Off - Duracao: 339360 Nota: C1 Vol.: 93
Chanel 1 Note On - Duracao: 339360 Nota: C1 Vol.: 94
Chanel 1 Note Off - Duracao: 339420 Nota: C1 Vol.: 94
Chanel 1 Note On - Duracao: 339420 Nota: C1 Vol.: 99
Chanel 1 Note Off - Duracao: 339480 Nota: C1 Vol.: 99
Chanel 1 Note On - Duracao: 339480 Nota: C1 Vol.: 100
Chanel 1 Note Off - Duracao: 339600 Nota: C1 Vol.: 100
Chanel 1 Note On - Duracao: 339600 Nota: C1 Vol.: 95
Chanel 5 Note Off - Duracao: 339600 Nota: C1 Vol.: 68
Chanel 5 Note On - Duracao: 339600 Nota: C1 Vol.: 68
Chanel 10 Note Off - Duracao: 339720 Nota: C1 Vol.: 63
Chanel 10 Note On - Duracao: 339720 Nota: C1 Vol.: 60
Chanel 1 Note Off - Duracao: 339840 Nota: C1 Vol.: 95
Chanel 1 Note On - Duracao: 339840 Nota: C1 Vol.: 81
Chanel 8 Note Off - Duracao: 340020 Nota: C1 Vol.: 81
Chanel 8 Note On - Duracao: 340020 Nota: C1 Vol.: 93
Chanel 6 Note Off - Duracao: 340200 Nota: C1 Vol.: 63
Chanel 6 Note On - Duracao: 340200 Nota: C1 Vol.: 67
Chanel 1 Note Off - Duracao: 340320 Nota: C1 Vol.: 81
Chanel 1 Note On - Duracao: 340320 Nota: C1 Vol.: 93
Chanel 9 Note Off - Duracao: 340440 Nota: C1 Vol.: 52
Chanel 9 Note On - Duracao: 340440 Nota: C1 Vol.: 52
Chanel 8 Note Off - Duracao: 340500 Nota: C1 Vol.: 93
Chanel 8 Note On - Duracao: 340500 Nota: C1 Vol.: 87
Chanel 7 Note Off - Duracao: 340620 Nota: C1 Vol.: 60
Chanel 7 Note On - Duracao: 340620 Nota: C1 Vol.: 63
Chanel 1 Note Off - Duracao: 340800 Nota: C1 Vol.: 93
Chanel 1 Note On - Duracao: 340800 Nota: C1 Vol.: 90
Chanel 3 Note Off - Duracao: 340920 Nota: C1 Vol.: 83
Chanel 3 Note On - Duracao: 340920 Nota: C1 Vol.: 88
Chanel 2 Note Off - Duracao: 340980 Nota: C1 Vol.: 49
Chanel 2 Note On - Duracao: 340980 Nota: C1 Vol.: 51
Chanel 8 Note Off - Duracao: 340980 Nota: C1 Vol.: 87
Chanel 8 Note On - Duracao: 340980 Nota: C1 Vol.: 63
Chanel 5 Note Off - Duracao: 341520 Nota: C1 Vol.: 68
Chanel 5 Note On - Duracao: 341520 Nota: C1 Vol.: 71
Chanel 10 Note Off - Duracao: 341640 Nota: C1 Vol.: 60
Chanel 10 Note On - Duracao: 341640 Nota: C1 Vol.: 60
Chanel 1 Note Off - Duracao: 341760 Nota: C1 Vol.: 90
Chanel 1 Note On - Duracao: 341760 Nota: C1 Vol.: 92
Chanel 8 Note Off - Duracao: 341940 Nota: C1 Vol.: 63
Chanel 8 Note On - Duracao: 341940 Nota: C1 Vol.: 87
Chanel 8 Note Off - Duracao: 342060 Nota: C1 Vol.: 87
Chanel 8 Note On - Duracao: 342060 Nota: C1 Vol.: 80
Chanel 6 Note Off - Duracao: 342120 Nota: C1 Vol.: 67
Chanel 6 Note On - Duracao: 342120 Nota: C1 Vol.: 66
Chanel 1 Note Off - Duracao: 342240 Nota: C1 Vol.: 92
Chanel 1 Note On - Duracao: 342240 Nota: C1 Vol.: 83
Chanel 5 Note Off - Duracao: 342480 Nota: C1 Vol.: 71
Chanel 5 Note On - Duracao: 342480 Nota: C1 Vol.: 65
Chanel 7 Note Off - Duracao: 342540 Nota: C1 Vol.: 63
Chanel 7 Note On - Duracao: 342540 Nota: C1 Vol.: 63
Chanel 8 Note Off - Duracao: 342540 Nota: C1 Vol.: 80
Chanel 8 Note On - Duracao: 342540 Nota: C1 Vol.: 78
Chanel 4 Note Off - Duracao: 342780 Nota: C1 Vol.: 44
Chanel 4 Note On - Duracao: 342780 Nota: C1 Vol.: 45
Chanel 2 Note Off - Duracao: 342900 Nota: C1 Vol.: 51
Chanel 2 Note On - Duracao: 342900 Nota: C1 Vol.: 59
Chanel 1 Note Off - Duracao: 343200 Nota: C1 Vol.: 83
Chanel 1 Note On - Duracao: 343200 Nota: C1 Vol.: 84
Chanel 8 Note Off - Duracao: 343500 Nota: C1 Vol.: 78
Chanel 8 Note On - Duracao: 343500 Nota: C1 Vol.: 87
Chanel 10 Note Off - Duracao: 343560 Nota: C1 Vol.: 60
Chanel 10 Note On - Duracao: 343560 Nota: C1 Vol.: 66
Chanel 2 Note Off - Duracao: 343860 Nota: C1 Vol.: 59
Chanel 2 Note On - Duracao: 343860 Nota: C1 Vol.: 77
Chanel 8 Note Off - Duracao: 343980 Nota: C1 Vol.: 87
Chanel 8 Note On - Duracao: 343980 Nota: C1 Vol.: 86
Chanel 6 Note Off - Duracao: 344040 Nota: C1 Vol.: 66
Chanel 6 Note On - Duracao: 344040 Nota: C1 Vol.: 62
Chanel 2 Note Off - Duracao: 344100 Nota: C1 Vol.: 77
Chanel 2 Note On - Duracao: 344100 Nota: C1 Vol.: 49
Chanel 1 Note Off - Duracao: 344160 Nota: C1 Vol.: 84
Chanel 1 Note On - Duracao: 344160 Nota: C1 Vol.: 81
Chanel 9 Note Off - Duracao: 344280 Nota: C1 Vol.: 52
Chanel 9 Note On - Duracao: 344280 Nota: C1 Vol.: 49
Chanel 5 Note Off - Duracao: 344400 Nota: C1 Vol.: 65
Chanel 5 Note On - Duracao: 344400 Nota: C1 Vol.: 67
Chanel 7 Note Off - Duracao: 344460 Nota: C1 Vol.: 63
Chanel 7 Note On - Duracao: 344460 Nota: C1 Vol.: 62
Chanel 8 Note Off - Duracao: 344460 Nota: C1 Vol.: 86
Chanel 8 Note On - Duracao: 344460 Nota: C1 Vol.: 80
Chanel 10 Note Off - Duracao: 344520 Nota: C1 Vol.: 66
Chanel 10 Note On - Duracao: 344520 Nota: C1 Vol.: 71
Chanel 3 Note Off - Duracao: 344760 Nota: C1 Vol.: 88
Chanel 3 Note On - Duracao: 344760 Nota: C1 Vol.: 92
Chanel 8 Note Off - Duracao: 344940 Nota: C1 Vol.: 80
Chanel 8 Note On - Duracao: 344940 Nota: C1 Vol.: 87
Chanel 1 Note Off - Duracao: 345120 Nota: C1 Vol.: 81
Chanel 1 Note On - Duracao: 345120 Nota: C1 Vol.: 91
Chanel 8 Note Off - Duracao: 345180 Nota: C1 Vol.: 87
Chanel 8 Note On - Duracao: 345180 Nota: C1 Vol.: 82
Chanel 8 Note Off - Duracao: 345420 Nota: C1 Vol.: 82
Chanel 8 Note On - Duracao: 345420 Nota: C1 Vol.: 83
Chanel 10 Note Off - Duracao: 345480 Nota: C1 Vol.: 71
Chanel 10 Note On - Duracao: 345480 Nota: C1 Vol.: 63
Chanel 1 Note Off - Duracao: 345600 Nota: C1 Vol.: 91
Chanel 1 Note On - Duracao: 345600 Nota: C1 Vol.: 72
Chanel 8 Note Off - Duracao: 345660 Nota: C1 Vol.: 83
Chanel 8 Note On - Duracao: 345660 Nota: C1 Vol.: 84
Chanel 2 Note Off - Duracao: 346020 Nota: C1 Vol.: 49
Chanel 2 Note On - Duracao: 346020 Nota: C1 Vol.: 53
Chanel 8 Note Off - Duracao: 346140 Nota: C1 Vol.: 84
Chanel 8 Note On - Duracao: 346140 Nota: C1 Vol.: 64
Chanel 5 Note Off - Duracao: 346320 Nota: C1 Vol.: 67
Chanel 5 Note On - Duracao: 346320 Nota: C1 Vol.: 67
Chanel 7 Note Off - Duracao: 346380 Nota: C1 Vol.: 62
Chanel 7 Note On - Duracao: 346380 Nota: C1 Vol.: 57
Chanel 10 Note Off - Duracao: 346440 Nota: C1 Vol.: 63
Chanel 10 Note On - Duracao: 346440 Nota: C1 Vol.: 98
Chanel 10 Note Off - Duracao: 346560 Nota: C1 Vol.: 98
Chanel 10 Note On - Duracao: 346560 Nota: C1 Vol.: 86
Chanel 4 Note Off - Duracao: 346620 Nota: C1 Vol.: 45
Chanel 4 Note On - Duracao: 346620 Nota: C1 Vol.: 46
Chanel 3 Note Off - Duracao: 346680 Nota: C1 Vol.: 92
Chanel 3 Note On - Duracao: 346680 Nota: C1 Vol.: 93
Chanel 10 Note Off - Duracao: 346800 Nota: C1 Vol.: 86
Chanel 10 Note On - Duracao: 346800 Nota: C1 Vol.: 73
Chanel 2 Note Off - Duracao: 346980 Nota: C1 Vol.: 53
Chanel 2 Note On - Duracao: 346980 Nota: C1 Vol.: 52
Chanel 10 Note Off - Duracao: 347280 Nota: C1 Vol.: 73
Chanel 10 Note On - Duracao: 347280 Nota: C1 Vol.: 81
Chanel 1 Note Off - Duracao: 347520 Nota: C1 Vol.: 72
Chanel 1 Note On - Duracao: 347520 Nota: C1 Vol.: 73
Chanel 10 Note Off - Duracao: 347760 Nota: C1 Vol.: 81
Chanel 10 Note On - Duracao: 347760 Nota: C1 Vol.: 56
Chanel 6 Note Off - Duracao: 347880 Nota: C1 Vol.: 62
Chanel 6 Note On - Duracao: 347880 Nota: C1 Vol.: 60
Chanel 2 Note Off - Duracao: 347940 Nota: C1 Vol.: 52
Chanel 2 Note On - Duracao: 347940 Nota: C1 Vol.: 58
Chanel 8 Note Off - Duracao: 348060 Nota: C1 Vol.: 64
Chanel 8 Note On - Duracao: 348060 Nota: C1 Vol.: 91
Chanel 9 Note Off - Duracao: 348120 Nota: C1 Vol.: 49
Chanel 9 Note On - Duracao: 348120 Nota: C1 Vol.: 52
Chanel 5 Note Off - Duracao: 348240 Nota: C1 Vol.: 67
Chanel 5 Note On - Duracao: 348240 Nota: C1 Vol.: 68
Chanel 1 Note Off - Duracao: 348480 Nota: C1 Vol.: 73
Chanel 1 Note On - Duracao: 348480 Nota: C1 Vol.: 75
Chanel 8 Note Off - Duracao: 348540 Nota: C1 Vol.: 91
Chanel 8 Note On - Duracao: 348540 Nota: C1 Vol.: 87
Chanel 2 Note Off - Duracao: 348900 Nota: C1 Vol.: 58
Chanel 2 Note On - Duracao: 348900 Nota: C1 Vol.: 91
Chanel 2 Note Off - Duracao: 349020 Nota: C1 Vol.: 91
Chanel 2 Note On - Duracao: 349020 Nota: C1 Vol.: 90
Chanel 8 Note Off - Duracao: 349020 Nota: C1 Vol.: 87
Chanel 8 Note On - Duracao: 349020 Nota: C1 Vol.: 87
Chanel 5 Note Off - Duracao: 349200 Nota: C1 Vol.: 68
Chanel 5 Note On - Duracao: 349200 Nota: C1 Vol.: 68
Chanel 8 Note Off - Duracao: 349260 Nota: C1 Vol.: 87
Chanel 8 Note On - Duracao: 349260 Nota: C1 Vol.: 92
Chanel 8 Note Off - Duracao: 349380 Nota: C1 Vol.: 92
Chanel 8 Note On - Duracao: 349380 Nota: C1 Vol.: 81
Chanel 1 Note Off - Duracao: 349440 Nota: C1 Vol.: 75
Chanel 1 Note On - Duracao: 349440 Nota: C1 Vol.: 73
Chanel 2 Note Off - Duracao: 349500 Nota: C1 Vol.: 90
Chanel 2 Note On - Duracao: 349500 Nota: C1 Vol.: 87
Chanel 8 Note Off - Duracao: 349620 Nota: C1 Vol.: 81
Chanel 8 Note On - Duracao: 349620 Nota: C1 Vol.: 83
Chanel 10 Note Off - Duracao: 349680 Nota: C1 Vol.: 56
Chanel 10 Note On - Duracao: 349680 Nota: C1 Vol.: 63
Chanel 8 Note Off - Duracao: 349860 Nota: C1 Vol.: 83
Chanel 8 Note On - Duracao: 349860 Nota: C1 Vol.: 74
Chanel 5 Note Off - Duracao: 350160 Nota: C1 Vol.: 68
Chanel 5 Note On - Duracao: 350160 Nota: C1 Vol.: 67
Chanel 7 Note Off - Duracao: 350220 Nota: C1 Vol.: 57
Chanel 7 Note On - Duracao: 350220 Nota: C1 Vol.: 57
Chanel 8 Note Off - Duracao: 350340 Nota: C1 Vol.: 74
Chanel 8 Note On - Duracao: 350340 Nota: C1 Vol.: 71
Chanel 1 Note Off - Duracao: 350400 Nota: C1 Vol.: 73
Chanel 1 Note On - Duracao: 350400 Nota: C1 Vol.: 91
Chanel 4 Note Off - Duracao: 350460 Nota: C1 Vol.: 46
Chanel 4 Note On - Duracao: 350460 Nota: C1 Vol.: 46
Chanel 3 Note Off - Duracao: 350520 Nota: C1 Vol.: 93
Chanel 3 Note On - Duracao: 350520 Nota: C1 Vol.: 91
Chanel 1 Note Off - Duracao: 350640 Nota: C1 Vol.: 91
Chanel 1 Note On - Duracao: 350640 Nota: C1 Vol.: 91
Chanel 1 Note Off - Duracao: 350760 Nota: C1 Vol.: 91
Chanel 1 Note On - Duracao: 350760 Nota: C1 Vol.: 89
Chanel 8 Note Off - Duracao: 350820 Nota: C1 Vol.: 71
Chanel 8 Note On - Duracao: 350820 Nota: C1 Vol.: 72
Chanel 1 Note Off - Duracao: 350880 Nota: C1 Vol.: 89
Chanel 1 Note On - Duracao: 350880 Nota: C1 Vol.: 92
Chanel 1 Note Off - Duracao: 351120 Nota: C1 Vol.: 92
Chanel 1 Note On - Duracao: 351120 Nota: C1 Vol.: 81
Chanel 2 Note Off - Duracao: 351420 Nota: C1 Vol.: 87
Chanel 2 Note On - Duracao: 351420 Nota: C1 Vol.: 93
Chanel 1 Note Off - Duracao: 351600 Nota: C1 Vol.: 81
Chanel 1 Note On - Duracao: 351600 Nota: C1 Vol.: 83
Chanel 10 Note Off - Duracao: 351600 Nota: C1 Vol.: 63
Chanel 10 Note On - Duracao: 351600 Nota: C1 Vol.: 72
Chanel 6 Note Off - Duracao: 351720 Nota: C1 Vol.: 60
Chanel 6 Note On - Duracao: 351720 Nota: C1 Vol.: 62
Chanel 8 Note Off - Duracao: 351780 Nota: C1 Vol.: 72
Chanel 8 Note On - Duracao: 351780 Nota: C1 Vol.: 59
Chanel 9 Note Off - Duracao: 351960 Nota: C1 Vol.: 52
Chanel 9 Note On - Duracao: 351960 Nota: C1 Vol.: 51
Chanel 1 Note Off - Duracao: 352080 Nota: C1 Vol.: 83
Chanel 1 Note On - Duracao: 352080 Nota: C1 Vol.: 80
Chanel 5 Note Off - Duracao: 352080 Nota: C1 Vol.: 67
Chanel 5 Note On - Duracao: 352080 Nota: C1 Vol.: 63
Chanel 7 Note Off - Duracao: 352140 Nota: C1 Vol.: 57
Chanel 7 Note On - Duracao: 352140 Nota: C1 Vol.: 52
Chanel 10 Note Off - Duracao: 352560 Nota: C1 Vol.: 72
Chanel 10 Note On - Duracao: 352560 Nota: C1 Vol.: 73
Chanel 1 Note Off - Duracao: 353040 Nota: C1 Vol.: 80
Chanel 1 Note On - Duracao: 353040 Nota: C1 Vol.: 76
Chanel 2 Note Off - Duracao: 353340 Nota: C1 Vol.: 93
Chanel 2 Note On - Duracao: 353340 Nota: C1 Vol.: 93
Chanel 10 Note Off - Duracao: 353520 Nota: C1 Vol.: 73
Chanel 10 Note On - Duracao: 353520 Nota: C1 Vol.: 72
Chanel 8 Note Off - Duracao: 353700 Nota: C1 Vol.: 59
Chanel 8 Note On - Duracao: 353700 Nota: C1 Vol.: 52
Chanel 1 Note Off - Duracao: 354000 Nota: C1 Vol.: 76
Chanel 1 Note On - Duracao: 354000 Nota: C1 Vol.: 80
Chanel 5 Note Off - Duracao: 354000 Nota: C1 Vol.: 63
Chanel 5 Note On - Duracao: 354000 Nota: C1 Vol.: 60
Chanel 4 Note Off - Duracao: 354300 Nota: C1 Vol.: 46
Chanel 4 Note On - Duracao: 354300 Nota: C1 Vol.: 44
Chanel 3 Note Off - Duracao: 354360 Nota: C1 Vol.: 91
Chanel 3 Note On - Duracao: 354360 Nota: C1 Vol.: 93
Chanel 1 Note Off - Duracao: 354480 Nota: C1 Vol.: 80
Chanel 1 Note On - Duracao: 354480 Nota: C1 Vol.: 81
Chanel 10 Note Off - Duracao: 354480 Nota: C1 Vol.: 72
Chanel 10 Note On - Duracao: 354480 Nota: C1 Vol.: 71
Chanel 1 Note Off - Duracao: 354960 Nota: C1 Vol.: 81
Chanel 1 Note On - Duracao: 354960 Nota: C1 Vol.: 87
Chanel 1 Note Off - Duracao: 355200 Nota: C1 Vol.: 87
Chanel 1 Note On - Duracao: 355200 Nota: C1 Vol.: 93
Chanel 2 Note Off - Duracao: 355260 Nota: C1 Vol.: 93
Chanel 2 Note On - Duracao: 355260 Nota: C1 Vol.: 91
Chanel 1 Note Off - Duracao: 355320 Nota: C1 Vol.: 93
Chanel 1 Note On - Duracao: 355320 Nota: C1 Vol.: 95
Chanel 1 Note Off - Duracao: 355380 Nota: C1 Vol.: 95
Chanel 1 Note On - Duracao: 355380 Nota: C1 Vol.: 95
Chanel 10 Note Off - Duracao: 355440 Nota: C1 Vol.: 71
Chanel 10 Note On - Duracao: 355440 Nota: C1 Vol.: 71
Chanel 1 Note Off - Duracao: 355500 Nota: C1 Vol.: 95
Chanel 1 Note On - Duracao: 355500 Nota: C1 Vol.: 96
Chanel 1 Note Off - Duracao: 355560 Nota: C1 Vol.: 96
Chanel 1 Note On - Duracao: 355560 Nota: C1 Vol.: 92
Chanel 6 Note Off - Duracao: 355560 Nota: C1 Vol.: 62
Chanel 6 Note On - Duracao: 355560 Nota: C1 Vol.: 61
Chanel 1 Note Off - Duracao: 355680 Nota: C1 Vol.: 92
Chanel 1 Note On - Duracao: 355680 Nota: C1 Vol.: 91
Chanel 1 Note Off - Duracao: 355800 Nota: C1 Vol.: 91
Chanel 1 Note On - Duracao: 355800 Nota: C1 Vol.: 95
Chanel 9 Note Off - Duracao: 355800 Nota: C1 Vol.: 51
Chanel 9 Note On - Duracao: 355800 Nota: C1 Vol.: 52
Chanel 1 Note Off - Duracao: 355920 Nota: C1 Vol.: 95
Chanel 1 Note On - Duracao: 355920 Nota: C1 Vol.: 81
Chanel 5 Note Off - Duracao: 355920 Nota: C1 Vol.: 60
Chanel 5 Note On - Duracao: 355920 Nota: C1 Vol.: 63
Chanel 7 Note Off - Duracao: 355980 Nota: C1 Vol.: 52
Chanel 7 Note On - Duracao: 355980 Nota: C1 Vol.: 47
Chanel 1 Note Off - Duracao: 356160 Nota: C1 Vol.: 81
Chanel 1 Note On - Duracao: 356160 Nota: C1 Vol.: 48
Chanel 3 Note Off - Duracao: 356280 Nota: C1 Vol.: 93
Chanel 3 Note On - Duracao: 356280 Nota: C1 Vol.: 92
Chanel 10 Note Off - Duracao: 356400 Nota: C1 Vol.: 71
Chanel 10 Note On - Duracao: 356400 Nota: C1 Vol.: 72
Chanel 10 Note Off - Duracao: 357360 Nota: C1 Vol.: 72
Chanel 10 Note On - Duracao: 357360 Nota: C1 Vol.: 69
Chanel 6 Note Off - Duracao: 357480 Nota: C1 Vol.: 61
Chanel 6 Note On - Duracao: 357480 Nota: C1 Vol.: 62
Chanel 8 Note Off - Duracao: 357540 Nota: C1 Vol.: 52
Chanel 8 Note On - Duracao: 357540 Nota: C1 Vol.: 53
Chanel 5 Note Off - Duracao: 357840 Nota: C1 Vol.: 63
Chanel 5 Note On - Duracao: 357840 Nota: C1 Vol.: 64
Chanel 4 Note Off - Duracao: 358140 Nota: C1 Vol.: 44
Chanel 4 Note On - Duracao: 358140 Nota: C1 Vol.: 55
Chanel 3 Note Off - Duracao: 358200 Nota: C1 Vol.: 92
Chanel 3 Note On - Duracao: 358200 Nota: C1 Vol.: 88
Chanel 10 Note Off - Duracao: 358320 Nota: C1 Vol.: 69
Chanel 10 Note On - Duracao: 358320 Nota: C1 Vol.: 71
Chanel 2 Note Off - Duracao: 359100 Nota: C1 Vol.: 91
Chanel 2 Note On - Duracao: 359100 Nota: C1 Vol.: 94
Chanel 3 Note Off - Duracao: 359160 Nota: C1 Vol.: 88
Chanel 3 Note On - Duracao: 359160 Nota: C1 Vol.: 48
Chanel 10 Note Off - Duracao: 359280 Nota: C1 Vol.: 71
Chanel 10 Note On - Duracao: 359280 Nota: C1 Vol.: 73
Chanel 6 Note Off - Duracao: 359400 Nota: C1 Vol.: 62
Chanel 6 Note On - Duracao: 359400 Nota: C1 Vol.: 69
Chanel 9 Note Off - Duracao: 359640 Nota: C1 Vol.: 52
Chanel 9 Note On - Duracao: 359640 Nota: C1 Vol.: 67
Chanel 5 Note Off - Duracao: 359760 Nota: C1 Vol.: 64
Chanel 5 Note On - Duracao: 359760 Nota: C1 Vol.: 61
Chanel 7 Note Off - Duracao: 359820 Nota: C1 Vol.: 47
Chanel 7 Note On - Duracao: 359820 Nota: C1 Vol.: 43
Chanel 1 Note Off - Duracao: 360000 Nota: C1 Vol.: 48
Chanel 1 Note On - Duracao: 360000 Nota: C1 Vol.: 79
Chanel 4 Note Off - Duracao: 360060 Nota: C1 Vol.: 55
Chanel 4 Note On - Duracao: 360060 Nota: C1 Vol.: 78
Chanel 10 Note Off - Duracao: 360240 Nota: C1 Vol.: 73
Chanel 10 Note On - Duracao: 360240 Nota: C1 Vol.: 77
Chanel 4 Note Off - Duracao: 360540 Nota: C1 Vol.: 78
Chanel 4 Note On - Duracao: 360540 Nota: C1 Vol.: 45
Chanel 10 Note Off - Duracao: 360720 Nota: C1 Vol.: 77
Chanel 10 Note On - Duracao: 360720 Nota: C1 Vol.: 76
Chanel 1 Note Off - Duracao: 360960 Nota: C1 Vol.: 79
Chanel 1 Note On - Duracao: 360960 Nota: C1 Vol.: 80
Chanel 10 Note Off - Duracao: 361200 Nota: C1 Vol.: 76
Chanel 10 Note On - Duracao: 361200 Nota: C1 Vol.: 75
Chanel 6 Note Off - Duracao: 361320 Nota: C1 Vol.: 69
Chanel 6 Note On - Duracao: 361320 Nota: C1 Vol.: 57
Chanel 8 Note Off - Duracao: 361380 Nota: C1 Vol.: 53
Chanel 8 Note On - Duracao: 361380 Nota: C1 Vol.: 49
Chanel 9 Note Off - Duracao: 361560 Nota: C1 Vol.: 67
Chanel 9 Note On - Duracao: 361560 Nota: C1 Vol.: 80
Chanel 5 Note Off - Duracao: 361680 Nota: C1 Vol.: 61
Chanel 5 Note On - Duracao: 361680 Nota: C1 Vol.: 59
Chanel 10 Note Off - Duracao: 361680 Nota: C1 Vol.: 75
Chanel 10 Note On - Duracao: 361680 Nota: C1 Vol.: 72
Chanel 7 Note Off - Duracao: 361740 Nota: C1 Vol.: 43
Chanel 7 Note On - Duracao: 361740 Nota: C1 Vol.: 45
Chanel 9 Note Off - Duracao: 362520 Nota: C1 Vol.: 80
Chanel 9 Note On - Duracao: 362520 Nota: C1 Vol.: 70
Chanel 10 Note Off - Duracao: 362640 Nota: C1 Vol.: 72
Chanel 10 Note On - Duracao: 362640 Nota: C1 Vol.: 66
Chanel 1 Note Off - Duracao: 362880 Nota: C1 Vol.: 80
Chanel 1 Note On - Duracao: 362880 Nota: C1 Vol.: 86
Chanel 2 Note Off - Duracao: 362940 Nota: C1 Vol.: 94
Chanel 2 Note On - Duracao: 362940 Nota: C1 Vol.: 94
Chanel 3 Note Off - Duracao: 363000 Nota: C1 Vol.: 48
Chanel 3 Note On - Duracao: 363000 Nota: C1 Vol.: 66
Chanel 5 Note Off - Duracao: 363600 Nota: C1 Vol.: 59
Chanel 5 Note On - Duracao: 363600 Nota: C1 Vol.: 51
Chanel 10 Note Off - Duracao: 363600 Nota: C1 Vol.: 66
Chanel 10 Note On - Duracao: 363600 Nota: C1 Vol.: 65
Chanel 7 Note Off - Duracao: 363660 Nota: C1 Vol.: 45
Chanel 7 Note On - Duracao: 363660 Nota: C1 Vol.: 43
Chanel 4 Note Off - Duracao: 364380 Nota: C1 Vol.: 45
Chanel 4 Note On - Duracao: 364380 Nota: C1 Vol.: 48
Chanel 7 Note Off - Duracao: 364620 Nota: C1 Vol.: 43
Chanel 7 Note On - Duracao: 364620 Nota: C1 Vol.: 42
Chanel 1 Note Off - Duracao: 364800 Nota: C1 Vol.: 86
Chanel 1 Note On - Duracao: 364800 Nota: C1 Vol.: 76
Chanel 3 Note Off - Duracao: 364920 Nota: C1 Vol.: 66
Chanel 3 Note On - Duracao: 364920 Nota: C1 Vol.: 69
Chanel 6 Note Off - Duracao: 365160 Nota: C1 Vol.: 57
Chanel 6 Note On - Duracao: 365160 Nota: C1 Vol.: 73
Chanel 8 Note Off - Duracao: 365220 Nota: C1 Vol.: 49
Chanel 8 Note On - Duracao: 365220 Nota: C1 Vol.: 51
Chanel 10 Note Off - Duracao: 365520 Nota: C1 Vol.: 65
Chanel 10 Note On - Duracao: 365520 Nota: C1 Vol.: 67
Chanel 7 Note Off - Duracao: 365580 Nota: C1 Vol.: 42
Chanel 7 Note On - Duracao: 365580 Nota: C1 Vol.: 42
Chanel 3 Note Off - Duracao: 365880 Nota: C1 Vol.: 69
Chanel 3 Note On - Duracao: 365880 Nota: C1 Vol.: 68
Chanel 6 Note Off - Duracao: 366120 Nota: C1 Vol.: 73
Chanel 6 Note On - Duracao: 366120 Nota: C1 Vol.: 76
Chanel 9 Note Off - Duracao: 366360 Nota: C1 Vol.: 70
Chanel 9 Note On - Duracao: 366360 Nota: C1 Vol.: 81
Chanel 7 Note Off - Duracao: 366540 Nota: C1 Vol.: 42
Chanel 7 Note On - Duracao: 366540 Nota: C1 Vol.: 42
Chanel 2 Note Off - Duracao: 366780 Nota: C1 Vol.: 94
Chanel 2 Note On - Duracao: 366780 Nota: C1 Vol.: 91
Chanel 6 Note Off - Duracao: 367080 Nota: C1 Vol.: 76
Chanel 6 Note On - Duracao: 367080 Nota: C1 Vol.: 65
Chanel 5 Note Off - Duracao: 367440 Nota: C1 Vol.: 51
Chanel 5 Note On - Duracao: 367440 Nota: C1 Vol.: 71
Chanel 10 Note Off - Duracao: 367440 Nota: C1 Vol.: 67
Chanel 10 Note On - Duracao: 367440 Nota: C1 Vol.: 88
Chanel 7 Note Off - Duracao: 367500 Nota: C1 Vol.: 42
Chanel 7 Note On - Duracao: 367500 Nota: C1 Vol.: 40
Chanel 3 Note Off - Duracao: 367800 Nota: C1 Vol.: 68
Chanel 3 Note On - Duracao: 367800 Nota: C1 Vol.: 80
Chanel 10 Note Off - Duracao: 367920 Nota: C1 Vol.: 88
Chanel 10 Note On - Duracao: 367920 Nota: C1 Vol.: 70
Chanel 4 Note Off - Duracao: 368220 Nota: C1 Vol.: 48
Chanel 4 Note On - Duracao: 368220 Nota: C1 Vol.: 52
Chanel 9 Note Off - Duracao: 368280 Nota: C1 Vol.: 81
Chanel 9 Note On - Duracao: 368280 Nota: C1 Vol.: 84
Chanel 5 Note Off - Duracao: 368400 Nota: C1 Vol.: 71
Chanel 5 Note On - Duracao: 368400 Nota: C1 Vol.: 78
Chanel 7 Note Off - Duracao: 368460 Nota: C1 Vol.: 40
Chanel 7 Note On - Duracao: 368460 Nota: C1 Vol.: 40
Chanel 1 Note Off - Duracao: 368640 Nota: C1 Vol.: 76
Chanel 1 Note On - Duracao: 368640 Nota: C1 Vol.: 93
Chanel 3 Note Off - Duracao: 368760 Nota: C1 Vol.: 80
Chanel 3 Note On - Duracao: 368760 Nota: C1 Vol.: 83
Chanel 5 Note Off - Duracao: 368880 Nota: C1 Vol.: 78
Chanel 5 Note On - Duracao: 368880 Nota: C1 Vol.: 67
Chanel 6 Note Off - Duracao: 369000 Nota: C1 Vol.: 65
Chanel 6 Note On - Duracao: 369000 Nota: C1 Vol.: 57
Chanel 8 Note Off - Duracao: 369060 Nota: C1 Vol.: 51
Chanel 8 Note On - Duracao: 369060 Nota: C1 Vol.: 58
Chanel 3 Note Off - Duracao: 369240 Nota: C1 Vol.: 83
Chanel 3 Note On - Duracao: 369240 Nota: C1 Vol.: 75
Chanel 7 Note Off - Duracao: 369420 Nota: C1 Vol.: 40
Chanel 7 Note On - Duracao: 369420 Nota: C1 Vol.: 40
Chanel 1 Note Off - Duracao: 369600 Nota: C1 Vol.: 93
Chanel 1 Note On - Duracao: 369600 Nota: C1 Vol.: 95
Chanel 5 Note Off - Duracao: 369840 Nota: C1 Vol.: 67
Chanel 5 Note On - Duracao: 369840 Nota: C1 Vol.: 70
Chanel 10 Note Off - Duracao: 369840 Nota: C1 Vol.: 70
Chanel 10 Note On - Duracao: 369840 Nota: C1 Vol.: 71
Chanel 4 Note Off - Duracao: 370140 Nota: C1 Vol.: 52
Chanel 4 Note On - Duracao: 370140 Nota: C1 Vol.: 58
Chanel 3 Note Off - Duracao: 370200 Nota: C1 Vol.: 75
Chanel 3 Note On - Duracao: 370200 Nota: C1 Vol.: 69
Chanel 9 Note Off - Duracao: 370200 Nota: C1 Vol.: 84
Chanel 9 Note On - Duracao: 370200 Nota: C1 Vol.: 92
Chanel 7 Note Off - Duracao: 370380 Nota: C1 Vol.: 40
Chanel 7 Note On - Duracao: 370380 Nota: C1 Vol.: 40
Chanel 1 Note Off - Duracao: 370560 Nota: C1 Vol.: 95
Chanel 1 Note On - Duracao: 370560 Nota: C1 Vol.: 84
Chanel 2 Note Off - Duracao: 370620 Nota: C1 Vol.: 91
Chanel 2 Note On - Duracao: 370620 Nota: C1 Vol.: 91
Chanel 5 Note Off - Duracao: 370800 Nota: C1 Vol.: 70
Chanel 5 Note On - Duracao: 370800 Nota: C1 Vol.: 95
Chanel 5 Note Off - Duracao: 370920 Nota: C1 Vol.: 95
Chanel 5 Note On - Duracao: 370920 Nota: C1 Vol.: 94
Chanel 5 Note Off - Duracao: 371040 Nota: C1 Vol.: 94
Chanel 5 Note On - Duracao: 371040 Nota: C1 Vol.: 90
Chanel 3 Note Off - Duracao: 371160 Nota: C1 Vol.: 69
Chanel 3 Note On - Duracao: 371160 Nota: C1 Vol.: 80
Chanel 5 Note Off - Duracao: 371160 Nota: C1 Vol.: 90
Chanel 5 Note On - Duracao: 371160 Nota: C1 Vol.: 63
Chanel 9 Note Off - Duracao: 371160 Nota: C1 Vol.: 92
Chanel 9 Note On - Duracao: 371160 Nota: C1 Vol.: 79
Chanel 7 Note Off - Duracao: 371340 Nota: C1 Vol.: 40
Chanel 7 Note On - Duracao: 371340 Nota: C1 Vol.: 40
Chanel 3 Note Off - Duracao: 371640 Nota: C1 Vol.: 80
Chanel 3 Note On - Duracao: 371640 Nota: C1 Vol.: 91
Chanel 3 Note Off - Duracao: 371760 Nota: C1 Vol.: 91
Chanel 3 Note On - Duracao: 371760 Nota: C1 Vol.: 69
Chanel 10 Note Off - Duracao: 371760 Nota: C1 Vol.: 71
Chanel 10 Note On - Duracao: 371760 Nota: C1 Vol.: 76
Chanel 4 Note Off - Duracao: 372060 Nota: C1 Vol.: 58
Chanel 4 Note On - Duracao: 372060 Nota: C1 Vol.: 56
Chanel 5 Note Off - Duracao: 372120 Nota: C1 Vol.: 63
Chanel 5 Note On - Duracao: 372120 Nota: C1 Vol.: 43
Chanel 3 Note Off - Duracao: 372240 Nota: C1 Vol.: 69
Chanel 3 Note On - Duracao: 372240 Nota: C1 Vol.: 66
Chanel 7 Note Off - Duracao: 372300 Nota: C1 Vol.: 40
Chanel 7 Note On - Duracao: 372300 Nota: C1 Vol.: 40
Chanel 1 Note Off - Duracao: 372480 Nota: C1 Vol.: 84
Chanel 1 Note On - Duracao: 372480 Nota: C1 Vol.: 85
Chanel 3 Note Off - Duracao: 372720 Nota: C1 Vol.: 66
Chanel 3 Note On - Duracao: 372720 Nota: C1 Vol.: 73
Chanel 10 Note Off - Duracao: 372720 Nota: C1 Vol.: 76
Chanel 10 Note On - Duracao: 372720 Nota: C1 Vol.: 83
Chanel 6 Note Off - Duracao: 372840 Nota: C1 Vol.: 57
Chanel 6 Note On - Duracao: 372840 Nota: C1 Vol.: 65
Chanel 8 Note Off - Duracao: 372900 Nota: C1 Vol.: 58
Chanel 8 Note On - Duracao: 372900 Nota: C1 Vol.: 71
Chanel 9 Note Off - Duracao: 373080 Nota: C1 Vol.: 79
Chanel 9 Note On - Duracao: 373080 Nota: C1 Vol.: 90
Chanel 3 Note Off - Duracao: 373200 Nota: C1 Vol.: 73
Chanel 3 Note On - Duracao: 373200 Nota: C1 Vol.: 82
Chanel 7 Note Off - Duracao: 373260 Nota: C1 Vol.: 40
Chanel 7 Note On - Duracao: 373260 Nota: C1 Vol.: 41
Chanel 1 Note Off - Duracao: 373440 Nota: C1 Vol.: 85
Chanel 1 Note On - Duracao: 373440 Nota: C1 Vol.: 86
Chanel 3 Note Off - Duracao: 373440 Nota: C1 Vol.: 82
Chanel 3 Note On - Duracao: 373440 Nota: C1 Vol.: 80
Chanel 3 Note Off - Duracao: 373680 Nota: C1 Vol.: 80
Chanel 3 Note On - Duracao: 373680 Nota: C1 Vol.: 76
Chanel 10 Note Off - Duracao: 373680 Nota: C1 Vol.: 83
Chanel 10 Note On - Duracao: 373680 Nota: C1 Vol.: 76
Chanel 3 Note Off - Duracao: 373920 Nota: C1 Vol.: 76
Chanel 3 Note On - Duracao: 373920 Nota: C1 Vol.: 76
Chanel 4 Note Off - Duracao: 373980 Nota: C1 Vol.: 56
Chanel 4 Note On - Duracao: 373980 Nota: C1 Vol.: 47
Chanel 5 Note Off - Duracao: 374040 Nota: C1 Vol.: 43
Chanel 5 Note On - Duracao: 374040 Nota: C1 Vol.: 46
Chanel 9 Note Off - Duracao: 374040 Nota: C1 Vol.: 90
Chanel 9 Note On - Duracao: 374040 Nota: C1 Vol.: 87
Chanel 3 Note Off - Duracao: 374160 Nota: C1 Vol.: 76
Chanel 3 Note On - Duracao: 374160 Nota: C1 Vol.: 75
Chanel 7 Note Off - Duracao: 374220 Nota: C1 Vol.: 41
Chanel 7 Note On - Duracao: 374220 Nota: C1 Vol.: 40
Chanel 1 Note Off - Duracao: 374400 Nota: C1 Vol.: 86
Chanel 1 Note On - Duracao: 374400 Nota: C1 Vol.: 81
Chanel 3 Note Off - Duracao: 374400 Nota: C1 Vol.: 75
Chanel 3 Note On - Duracao: 374400 Nota: C1 Vol.: 80
Chanel 2 Note Off - Duracao: 374460 Nota: C1 Vol.: 91
Chanel 2 Note On - Duracao: 374460 Nota: C1 Vol.: 94
Chanel 3 Note Off - Duracao: 374640 Nota: C1 Vol.: 80
Chanel 3 Note On - Duracao: 374640 Nota: C1 Vol.: 84
Chanel 3 Note Off - Duracao: 374760 Nota: C1 Vol.: 84
Chanel 3 Note On - Duracao: 374760 Nota: C1 Vol.: 85
Chanel 6 Note Off - Duracao: 374760 Nota: C1 Vol.: 65
Chanel 6 Note On - Duracao: 374760 Nota: C1 Vol.: 67
Chanel 8 Note Off - Duracao: 374820 Nota: C1 Vol.: 71
Chanel 8 Note On - Duracao: 374820 Nota: C1 Vol.: 70
Chanel 3 Note Off - Duracao: 374880 Nota: C1 Vol.: 85
Chanel 3 Note On - Duracao: 374880 Nota: C1 Vol.: 96
Chanel 3 Note Off - Duracao: 374940 Nota: C1 Vol.: 96
Chanel 3 Note On - Duracao: 374940 Nota: C1 Vol.: 90
Chanel 9 Note Off - Duracao: 375000 Nota: C1 Vol.: 87
Chanel 9 Note On - Duracao: 375000 Nota: C1 Vol.: 86
Chanel 3 Note Off - Duracao: 375060 Nota: C1 Vol.: 90
Chanel 3 Note On - Duracao: 375060 Nota: C1 Vol.: 81
Chanel 7 Note Off - Duracao: 375180 Nota: C1 Vol.: 40
Chanel 7 Note On - Duracao: 375180 Nota: C1 Vol.: 41
Chanel 3 Note Off - Duracao: 375300 Nota: C1 Vol.: 81
Chanel 3 Note On - Duracao: 375300 Nota: C1 Vol.: 80
Chanel 9 Note Off - Duracao: 375480 Nota: C1 Vol.: 86
Chanel 9 Note On - Duracao: 375480 Nota: C1 Vol.: 84
Chanel 3 Note Off - Duracao: 375540 Nota: C1 Vol.: 80
Chanel 3 Note On - Duracao: 375540 Nota: C1 Vol.: 85
Chanel 10 Note Off - Duracao: 375600 Nota: C1 Vol.: 76
Chanel 10 Note On - Duracao: 375600 Nota: C1 Vol.: 80
Chanel 3 Note Off - Duracao: 375660 Nota: C1 Vol.: 85
Chanel 3 Note On - Duracao: 375660 Nota: C1 Vol.: 80
Chanel 3 Note Off - Duracao: 375900 Nota: C1 Vol.: 80
Chanel 3 Note On - Duracao: 375900 Nota: C1 Vol.: 79
Chanel 5 Note Off - Duracao: 375960 Nota: C1 Vol.: 46
Chanel 5 Note On - Duracao: 375960 Nota: C1 Vol.: 51
Chanel 3 Note Off - Duracao: 376140 Nota: C1 Vol.: 79
Chanel 3 Note On - Duracao: 376140 Nota: C1 Vol.: 74
Chanel 7 Note Off - Duracao: 376140 Nota: C1 Vol.: 41
Chanel 7 Note On - Duracao: 376140 Nota: C1 Vol.: 43
Chanel 1 Note Off - Duracao: 376320 Nota: C1 Vol.: 81
Chanel 1 Note On - Duracao: 376320 Nota: C1 Vol.: 86
Chanel 9 Note Off - Duracao: 376440 Nota: C1 Vol.: 84
Chanel 9 Note On - Duracao: 376440 Nota: C1 Vol.: 80
Chanel 3 Note Off - Duracao: 376620 Nota: C1 Vol.: 74
Chanel 3 Note On - Duracao: 376620 Nota: C1 Vol.: 73
Chanel 7 Note Off - Duracao: 376620 Nota: C1 Vol.: 43
Chanel 7 Note On - Duracao: 376620 Nota: C1 Vol.: 46
Chanel 6 Note Off - Duracao: 376680 Nota: C1 Vol.: 67
Chanel 6 Note On - Duracao: 376680 Nota: C1 Vol.: 70
Chanel 8 Note Off - Duracao: 376740 Nota: C1 Vol.: 70
Chanel 8 Note On - Duracao: 376740 Nota: C1 Vol.: 73
Chanel 3 Note Off - Duracao: 377100 Nota: C1 Vol.: 73
Chanel 3 Note On - Duracao: 377100 Nota: C1 Vol.: 79
Chanel 7 Note Off - Duracao: 377100 Nota: C1 Vol.: 46
Chanel 7 Note On - Duracao: 377100 Nota: C1 Vol.: 49
Chanel 9 Note Off - Duracao: 377400 Nota: C1 Vol.: 80
Chanel 9 Note On - Duracao: 377400 Nota: C1 Vol.: 82
Chanel 10 Note Off - Duracao: 377520 Nota: C1 Vol.: 80
Chanel 10 Note On - Duracao: 377520 Nota: C1 Vol.: 79
Chanel 3 Note Off - Duracao: 377580 Nota: C1 Vol.: 79
Chanel 3 Note On - Duracao: 377580 Nota: C1 Vol.: 75
Chanel 7 Note Off - Duracao: 377580 Nota: C1 Vol.: 49
Chanel 7 Note On - Duracao: 377580 Nota: C1 Vol.: 50
Chanel 8 Note Off - Duracao: 377700 Nota: C1 Vol.: 73
Chanel 8 Note On - Duracao: 377700 Nota: C1 Vol.: 73
Chanel 4 Note Off - Duracao: 377820 Nota: C1 Vol.: 47
Chanel 4 Note On - Duracao: 377820 Nota: C1 Vol.: 58
Chanel 5 Note Off - Duracao: 377880 Nota: C1 Vol.: 51
Chanel 5 Note On - Duracao: 377880 Nota: C1 Vol.: 76
Chanel 3 Note Off - Duracao: 378060 Nota: C1 Vol.: 75
Chanel 3 Note On - Duracao: 378060 Nota: C1 Vol.: 55
Chanel 7 Note Off - Duracao: 378060 Nota: C1 Vol.: 50
Chanel 7 Note On - Duracao: 378060 Nota: C1 Vol.: 48
Chanel 1 Note Off - Duracao: 378240 Nota: C1 Vol.: 86
Chanel 1 Note On - Duracao: 378240 Nota: C1 Vol.: 95
Chanel 2 Note Off - Duracao: 378300 Nota: C1 Vol.: 94
Chanel 2 Note On - Duracao: 378300 Nota: C1 Vol.: 93
Chanel 5 Note Off - Duracao: 378360 Nota: C1 Vol.: 76
Chanel 5 Note On - Duracao: 378360 Nota: C1 Vol.: 75
Chanel 9 Note Off - Duracao: 378360 Nota: C1 Vol.: 82
Chanel 9 Note On - Duracao: 378360 Nota: C1 Vol.: 81
Chanel 7 Note Off - Duracao: 378540 Nota: C1 Vol.: 48
Chanel 7 Note On - Duracao: 378540 Nota: C1 Vol.: 48
Chanel 6 Note Off - Duracao: 378600 Nota: C1 Vol.: 70
Chanel 6 Note On - Duracao: 378600 Nota: C1 Vol.: 72
Chanel 8 Note Off - Duracao: 378660 Nota: C1 Vol.: 73
Chanel 8 Note On - Duracao: 378660 Nota: C1 Vol.: 71
Chanel 7 Note Off - Duracao: 379020 Nota: C1 Vol.: 48
Chanel 7 Note On - Duracao: 379020 Nota: C1 Vol.: 47
Chanel 1 Note Off - Duracao: 379200 Nota: C1 Vol.: 95
Chanel 1 Note On - Duracao: 379200 Nota: C1 Vol.: 93
Chanel 5 Note Off - Duracao: 379320 Nota: C1 Vol.: 75
Chanel 5 Note On - Duracao: 379320 Nota: C1 Vol.: 75
Chanel 9 Note Off - Duracao: 379320 Nota: C1 Vol.: 81
Chanel 9 Note On - Duracao: 379320 Nota: C1 Vol.: 76
Chanel 10 Note Off - Duracao: 379440 Nota: C1 Vol.: 79
Chanel 10 Note On - Duracao: 379440 Nota: C1 Vol.: 86
Chanel 7 Note Off - Duracao: 379500 Nota: C1 Vol.: 47
Chanel 7 Note On - Duracao: 379500 Nota: C1 Vol.: 48
Chanel 8 Note Off - Duracao: 379620 Nota: C1 Vol.: 71
Chanel 8 Note On - Duracao: 379620 Nota: C1 Vol.: 62
Chanel 4 Note Off - Duracao: 379740 Nota: C1 Vol.: 58
Chanel 4 Note On - Duracao: 379740 Nota: C1 Vol.: 49
Chanel 7 Note Off - Duracao: 379980 Nota: C1 Vol.: 48
Chanel 7 Note On - Duracao: 379980 Nota: C1 Vol.: 48
Chanel 5 Note Off - Duracao: 380280 Nota: C1 Vol.: 75
Chanel 5 Note On - Duracao: 380280 Nota: C1 Vol.: 77
Chanel 9 Note Off - Duracao: 380280 Nota: C1 Vol.: 76
Chanel 9 Note On - Duracao: 380280 Nota: C1 Vol.: 72
Chanel 10 Note Off - Duracao: 380400 Nota: C1 Vol.: 86
Chanel 10 Note On - Duracao: 380400 Nota: C1 Vol.: 79
Chanel 7 Note Off - Duracao: 380460 Nota: C1 Vol.: 48
Chanel 7 Note On - Duracao: 380460 Nota: C1 Vol.: 48
Chanel 6 Note Off - Duracao: 380520 Nota: C1 Vol.: 72
Chanel 6 Note On - Duracao: 380520 Nota: C1 Vol.: 82
Chanel 7 Note Off - Duracao: 380940 Nota: C1 Vol.: 48
Chanel 7 Note On - Duracao: 380940 Nota: C1 Vol.: 48
Chanel 1 Note Off - Duracao: 381120 Nota: C1 Vol.: 93
Chanel 1 Note On - Duracao: 381120 Nota: C1 Vol.: 92
Chanel 5 Note Off - Duracao: 381240 Nota: C1 Vol.: 77
Chanel 5 Note On - Duracao: 381240 Nota: C1 Vol.: 77
Chanel 9 Note Off - Duracao: 381240 Nota: C1 Vol.: 72
Chanel 9 Note On - Duracao: 381240 Nota: C1 Vol.: 64
Chanel 10 Note Off - Duracao: 381360 Nota: C1 Vol.: 79
Chanel 10 Note On - Duracao: 381360 Nota: C1 Vol.: 61
Chanel 7 Note Off - Duracao: 381420 Nota: C1 Vol.: 48
Chanel 7 Note On - Duracao: 381420 Nota: C1 Vol.: 49
Chanel 6 Note Off - Duracao: 381480 Nota: C1 Vol.: 82
Chanel 6 Note On - Duracao: 381480 Nota: C1 Vol.: 78
Chanel 8 Note Off - Duracao: 381540 Nota: C1 Vol.: 62
Chanel 8 Note On - Duracao: 381540 Nota: C1 Vol.: 56
Chanel 4 Note Off - Duracao: 381660 Nota: C1 Vol.: 49
Chanel 4 Note On - Duracao: 381660 Nota: C1 Vol.: 86
Chanel 3 Note Off - Duracao: 381900 Nota: C1 Vol.: 55
Chanel 3 Note On - Duracao: 381900 Nota: C1 Vol.: 62
Chanel 4 Note Off - Duracao: 381900 Nota: C1 Vol.: 86
Chanel 4 Note On - Duracao: 381900 Nota: C1 Vol.: 88
Chanel 7 Note Off - Duracao: 381900 Nota: C1 Vol.: 49
Chanel 7 Note On - Duracao: 381900 Nota: C1 Vol.: 48
Chanel 4 Note Off - Duracao: 382020 Nota: C1 Vol.: 88
Chanel 4 Note On - Duracao: 382020 Nota: C1 Vol.: 99
Chanel 4 Note Off - Duracao: 382080 Nota: C1 Vol.: 99
Chanel 4 Note On - Duracao: 382080 Nota: C1 Vol.: 98
Chanel 2 Note Off - Duracao: 382140 Nota: C1 Vol.: 93
Chanel 2 Note On - Duracao: 382140 Nota: C1 Vol.: 91
Chanel 4 Note Off - Duracao: 382140 Nota: C1 Vol.: 98
Chanel 4 Note On - Duracao: 382140 Nota: C1 Vol.: 99
Chanel 4 Note Off - Duracao: 382200 Nota: C1 Vol.: 99
Chanel 4 Note On - Duracao: 382200 Nota: C1 Vol.: 99
Chanel 5 Note Off - Duracao: 382200 Nota: C1 Vol.: 77
Chanel 5 Note On - Duracao: 382200 Nota: C1 Vol.: 75
Chanel 4 Note Off - Duracao: 382260 Nota: C1 Vol.: 99
Chanel 4 Note On - Duracao: 382260 Nota: C1 Vol.: 100
Chanel 4 Note Off - Duracao: 382320 Nota: C1 Vol.: 100
Chanel 4 Note On - Duracao: 382320 Nota: C1 Vol.: 100
Chanel 4 Note Off - Duracao: 382380 Nota: C1 Vol.: 100
Chanel 4 Note On - Duracao: 382380 Nota: C1 Vol.: 99
Chanel 7 Note Off - Duracao: 382380 Nota: C1 Vol.: 48
Chanel 7 Note On - Duracao: 382380 Nota: C1 Vol.: 44
Chanel 4 Note Off - Duracao: 382440 Nota: C1 Vol.: 99
Chanel 4 Note On - Duracao: 382440 Nota: C1 Vol.: 70
Chanel 6 Note Off - Duracao: 382440 Nota: C1 Vol.: 78
Chanel 6 Note On - Duracao: 382440 Nota: C1 Vol.: 66
Chanel 4 Note Off - Duracao: 382920 Nota: C1 Vol.: 70
Chanel 4 Note On - Duracao: 382920 Nota: C1 Vol.: 50
Chanel 1 Note Off - Duracao: 383040 Nota: C1 Vol.: 92
Chanel 1 Note On - Duracao: 383040 Nota: C1 Vol.: 94
Chanel 5 Note Off - Duracao: 383160 Nota: C1 Vol.: 75
Chanel 5 Note On - Duracao: 383160 Nota: C1 Vol.: 70
Chanel 9 Note Off - Duracao: 383160 Nota: C1 Vol.: 64
Chanel 9 Note On - Duracao: 383160 Nota: C1 Vol.: 61
Chanel 10 Note Off - Duracao: 383280 Nota: C1 Vol.: 61
Chanel 10 Note On - Duracao: 383280 Nota: C1 Vol.: 69
Chanel 7 Note Off - Duracao: 383340 Nota: C1 Vol.: 44
Chanel 7 Note On - Duracao: 383340 Nota: C1 Vol.: 41
Chanel 8 Note Off - Duracao: 383460 Nota: C1 Vol.: 56
Chanel 8 Note On - Duracao: 383460 Nota: C1 Vol.: 55
Chanel 3 Note Off - Duracao: 383820 Nota: C1 Vol.: 62
Chanel 3 Note On - Duracao: 383820 Nota: C1 Vol.: 61
Chanel 2 Note Off - Duracao: 384060 Nota: C1 Vol.: 91
Chanel 2 Note On - Duracao: 384060 Nota: C1 Vol.: 86
Chanel 10 Note Off - Duracao: 384240 Nota: C1 Vol.: 69
Chanel 10 Note On - Duracao: 384240 Nota: C1 Vol.: 65
Chanel 7 Note Off - Duracao: 384300 Nota: C1 Vol.: 41
Chanel 7 Note On - Duracao: 384300 Nota: C1 Vol.: 42
Chanel 6 Note Off - Duracao: 384360 Nota: C1 Vol.: 66
Chanel 6 Note On - Duracao: 384360 Nota: C1 Vol.: 61
Chanel 4 Note Off - Duracao: 384840 Nota: C1 Vol.: 50
Chanel 4 Note On - Duracao: 384840 Nota: C1 Vol.: 52
Chanel 1 Note Off - Duracao: 384960 Nota: C1 Vol.: 94
Chanel 1 Note On - Duracao: 384960 Nota: C1 Vol.: 93
Chanel 2 Note Off - Duracao: 385020 Nota: C1 Vol.: 86
Chanel 2 Note On - Duracao: 385020 Nota: C1 Vol.: 54
Chanel 5 Note Off - Duracao: 385080 Nota: C1 Vol.: 70
Chanel 5 Note On - Duracao: 385080 Nota: C1 Vol.: 67
Chanel 9 Note Off - Duracao: 385080 Nota: C1 Vol.: 61
Chanel 9 Note On - Duracao: 385080 Nota: C1 Vol.: 67
Chanel 10 Note Off - Duracao: 385200 Nota: C1 Vol.: 65
Chanel 10 Note On - Duracao: 385200 Nota: C1 Vol.: 65
Chanel 7 Note Off - Duracao: 385260 Nota: C1 Vol.: 42
Chanel 7 Note On - Duracao: 385260 Nota: C1 Vol.: 42
Chanel 3 Note Off - Duracao: 385740 Nota: C1 Vol.: 61
Chanel 3 Note On - Duracao: 385740 Nota: C1 Vol.: 68
Chanel 10 Note Off - Duracao: 386160 Nota: C1 Vol.: 65
Chanel 10 Note On - Duracao: 386160 Nota: C1 Vol.: 66
Chanel 7 Note Off - Duracao: 386220 Nota: C1 Vol.: 42
Chanel 7 Note On - Duracao: 386220 Nota: C1 Vol.: 41
Chanel 6 Note Off - Duracao: 386280 Nota: C1 Vol.: 61
Chanel 6 Note On - Duracao: 386280 Nota: C1 Vol.: 64
Chanel 3 Note Off - Duracao: 386700 Nota: C1 Vol.: 68
Chanel 3 Note On - Duracao: 386700 Nota: C1 Vol.: 66
Chanel 4 Note Off - Duracao: 386760 Nota: C1 Vol.: 52
Chanel 4 Note On - Duracao: 386760 Nota: C1 Vol.: 97
Chanel 4 Note Off - Duracao: 386820 Nota: C1 Vol.: 97
Chanel 4 Note On - Duracao: 386820 Nota: C1 Vol.: 96
Chanel 4 Note Off - Duracao: 386880 Nota: C1 Vol.: 96
Chanel 4 Note On - Duracao: 386880 Nota: C1 Vol.: 100
Chanel 4 Note Off - Duracao: 386940 Nota: C1 Vol.: 100
Chanel 4 Note On - Duracao: 386940 Nota: C1 Vol.: 99
Chanel 4 Note Off - Duracao: 387000 Nota: C1 Vol.: 99
Chanel 4 Note On - Duracao: 387000 Nota: C1 Vol.: 100
Chanel 5 Note Off - Duracao: 387000 Nota: C1 Vol.: 67
Chanel 5 Note On - Duracao: 387000 Nota: C1 Vol.: 71
Chanel 9 Note Off - Duracao: 387000 Nota: C1 Vol.: 67
Chanel 9 Note On - Duracao: 387000 Nota: C1 Vol.: 71
Chanel 4 Note Off - Duracao: 387060 Nota: C1 Vol.: 100
Chanel 4 Note On - Duracao: 387060 Nota: C1 Vol.: 99
Chanel 4 Note Off - Duracao: 387120 Nota: C1 Vol.: 99
Chanel 4 Note On - Duracao: 387120 Nota: C1 Vol.: 98
Chanel 10 Note Off - Duracao: 387120 Nota: C1 Vol.: 66
Chanel 10 Note On - Duracao: 387120 Nota: C1 Vol.: 61
Chanel 4 Note Off - Duracao: 387180 Nota: C1 Vol.: 98
Chanel 4 Note On - Duracao: 387180 Nota: C1 Vol.: 100
Chanel 7 Note Off - Duracao: 387180 Nota: C1 Vol.: 41
Chanel 7 Note On - Duracao: 387180 Nota: C1 Vol.: 41
Chanel 4 Note Off - Duracao: 387240 Nota: C1 Vol.: 100
Chanel 4 Note On - Duracao: 387240 Nota: C1 Vol.: 100
Chanel 4 Note Off - Duracao: 387300 Nota: C1 Vol.: 100
Chanel 4 Note On - Duracao: 387300 Nota: C1 Vol.: 96
Chanel 8 Note Off - Duracao: 387300 Nota: C1 Vol.: 55
Chanel 8 Note On - Duracao: 387300 Nota: C1 Vol.: 53
Chanel 4 Note Off - Duracao: 387420 Nota: C1 Vol.: 96
Chanel 4 Note On - Duracao: 387420 Nota: C1 Vol.: 76
Chanel 3 Note Off - Duracao: 387660 Nota: C1 Vol.: 66
Chanel 3 Note On - Duracao: 387660 Nota: C1 Vol.: 67
Chanel 4 Note Off - Duracao: 387900 Nota: C1 Vol.: 76
Chanel 4 Note On - Duracao: 387900 Nota: C1 Vol.: 75
Chanel 5 Note Off - Duracao: 387960 Nota: C1 Vol.: 71
Chanel 5 Note On - Duracao: 387960 Nota: C1 Vol.: 79
Chanel 9 Note Off - Duracao: 387960 Nota: C1 Vol.: 71
Chanel 9 Note On - Duracao: 387960 Nota: C1 Vol.: 73
Chanel 10 Note Off - Duracao: 388080 Nota: C1 Vol.: 61
Chanel 10 Note On - Duracao: 388080 Nota: C1 Vol.: 68
Chanel 7 Note Off - Duracao: 388140 Nota: C1 Vol.: 41
Chanel 7 Note On - Duracao: 388140 Nota: C1 Vol.: 40
Chanel 6 Note Off - Duracao: 388200 Nota: C1 Vol.: 64
Chanel 6 Note On - Duracao: 388200 Nota: C1 Vol.: 66
Chanel 4 Note Off - Duracao: 388380 Nota: C1 Vol.: 75
Chanel 4 Note On - Duracao: 388380 Nota: C1 Vol.: 74
Chanel 3 Note Off - Duracao: 388620 Nota: C1 Vol.: 67
Chanel 3 Note On - Duracao: 388620 Nota: C1 Vol.: 76
Chanel 1 Note Off - Duracao: 388800 Nota: C1 Vol.: 93
Chanel 1 Note On - Duracao: 388800 Nota: C1 Vol.: 93
Chanel 2 Note Off - Duracao: 388860 Nota: C1 Vol.: 54
Chanel 2 Note On - Duracao: 388860 Nota: C1 Vol.: 80
Chanel 4 Note Off - Duracao: 388860 Nota: C1 Vol.: 74
Chanel 4 Note On - Duracao: 388860 Nota: C1 Vol.: 67
Chanel 5 Note Off - Duracao: 388920 Nota: C1 Vol.: 79
Chanel 5 Note On - Duracao: 388920 Nota: C1 Vol.: 77
Chanel 9 Note Off - Duracao: 388920 Nota: C1 Vol.: 73
Chanel 9 Note On - Duracao: 388920 Nota: C1 Vol.: 77
Chanel 10 Note Off - Duracao: 389040 Nota: C1 Vol.: 68
Chanel 10 Note On - Duracao: 389040 Nota: C1 Vol.: 66
Chanel 3 Note Off - Duracao: 389100 Nota: C1 Vol.: 76
Chanel 3 Note On - Duracao: 389100 Nota: C1 Vol.: 66
Chanel 2 Note Off - Duracao: 389340 Nota: C1 Vol.: 80
Chanel 2 Note On - Duracao: 389340 Nota: C1 Vol.: 90
Chanel 9 Note Off - Duracao: 389400 Nota: C1 Vol.: 77
Chanel 9 Note On - Duracao: 389400 Nota: C1 Vol.: 78
Chanel 2 Note Off - Duracao: 389580 Nota: C1 Vol.: 90
Chanel 2 Note On - Duracao: 389580 Nota: C1 Vol.: 73
Chanel 4 Note Off - Duracao: 389820 Nota: C1 Vol.: 67
Chanel 4 Note On - Duracao: 389820 Nota: C1 Vol.: 71
Chanel 5 Note Off - Duracao: 389880 Nota: C1 Vol.: 77
Chanel 5 Note On - Duracao: 389880 Nota: C1 Vol.: 81
Chanel 9 Note Off - Duracao: 389880 Nota: C1 Vol.: 78
Chanel 9 Note On - Duracao: 389880 Nota: C1 Vol.: 79
Chanel 10 Note Off - Duracao: 390000 Nota: C1 Vol.: 66
Chanel 10 Note On - Duracao: 390000 Nota: C1 Vol.: 64
Chanel 3 Note Off - Duracao: 390060 Nota: C1 Vol.: 66
Chanel 3 Note On - Duracao: 390060 Nota: C1 Vol.: 68
Chanel 7 Note Off - Duracao: 390060 Nota: C1 Vol.: 40
Chanel 7 Note On - Duracao: 390060 Nota: C1 Vol.: 48
Chanel 6 Note Off - Duracao: 390120 Nota: C1 Vol.: 66
Chanel 6 Note On - Duracao: 390120 Nota: C1 Vol.: 67
Chanel 5 Note Off - Duracao: 390360 Nota: C1 Vol.: 81
Chanel 5 Note On - Duracao: 390360 Nota: C1 Vol.: 78
Chanel 9 Note Off - Duracao: 390360 Nota: C1 Vol.: 79
Chanel 9 Note On - Duracao: 390360 Nota: C1 Vol.: 83
Chanel 2 Note Off - Duracao: 390540 Nota: C1 Vol.: 73
Chanel 2 Note On - Duracao: 390540 Nota: C1 Vol.: 70
Chanel 4 Note Off - Duracao: 390780 Nota: C1 Vol.: 71
Chanel 4 Note On - Duracao: 390780 Nota: C1 Vol.: 87
Chanel 9 Note Off - Duracao: 390840 Nota: C1 Vol.: 83
Chanel 9 Note On - Duracao: 390840 Nota: C1 Vol.: 73
Chanel 10 Note Off - Duracao: 390960 Nota: C1 Vol.: 64
Chanel 10 Note On - Duracao: 390960 Nota: C1 Vol.: 66
Chanel 3 Note Off - Duracao: 391020 Nota: C1 Vol.: 68
Chanel 3 Note On - Duracao: 391020 Nota: C1 Vol.: 63
Chanel 7 Note Off - Duracao: 391020 Nota: C1 Vol.: 48
Chanel 7 Note On - Duracao: 391020 Nota: C1 Vol.: 51
Chanel 6 Note Off - Duracao: 391080 Nota: C1 Vol.: 67
Chanel 6 Note On - Duracao: 391080 Nota: C1 Vol.: 60
Chanel 8 Note Off - Duracao: 391140 Nota: C1 Vol.: 53
Chanel 8 Note On - Duracao: 391140 Nota: C1 Vol.: 56
Chanel 4 Note Off - Duracao: 391260 Nota: C1 Vol.: 87
Chanel 4 Note On - Duracao: 391260 Nota: C1 Vol.: 97
Chanel 5 Note Off - Duracao: 391320 Nota: C1 Vol.: 78
Chanel 5 Note On - Duracao: 391320 Nota: C1 Vol.: 81
Chanel 9 Note Off - Duracao: 391320 Nota: C1 Vol.: 73
Chanel 9 Note On - Duracao: 391320 Nota: C1 Vol.: 83
Chanel 2 Note Off - Duracao: 391500 Nota: C1 Vol.: 70
Chanel 2 Note On - Duracao: 391500 Nota: C1 Vol.: 72
Chanel 4 Note Off - Duracao: 391500 Nota: C1 Vol.: 97
Chanel 4 Note On - Duracao: 391500 Nota: C1 Vol.: 88
Chanel 9 Note Off - Duracao: 391560 Nota: C1 Vol.: 83
Chanel 9 Note On - Duracao: 391560 Nota: C1 Vol.: 89
Chanel 9 Note Off - Duracao: 391680 Nota: C1 Vol.: 89
Chanel 9 Note On - Duracao: 391680 Nota: C1 Vol.: 85
Chanel 5 Note Off - Duracao: 391800 Nota: C1 Vol.: 81
Chanel 5 Note On - Duracao: 391800 Nota: C1 Vol.: 83
Chanel 9 Note Off - Duracao: 391920 Nota: C1 Vol.: 85
Chanel 9 Note On - Duracao: 391920 Nota: C1 Vol.: 66
Chanel 10 Note Off - Duracao: 391920 Nota: C1 Vol.: 66
Chanel 10 Note On - Duracao: 391920 Nota: C1 Vol.: 63
Chanel 2 Note Off - Duracao: 391980 Nota: C1 Vol.: 72
Chanel 2 Note On - Duracao: 391980 Nota: C1 Vol.: 75
Chanel 4 Note Off - Duracao: 391980 Nota: C1 Vol.: 88
Chanel 4 Note On - Duracao: 391980 Nota: C1 Vol.: 91
Chanel 4 Note Off - Duracao: 392220 Nota: C1 Vol.: 91
Chanel 4 Note On - Duracao: 392220 Nota: C1 Vol.: 96
Chanel 5 Note Off - Duracao: 392280 Nota: C1 Vol.: 83
Chanel 5 Note On - Duracao: 392280 Nota: C1 Vol.: 82
Chanel 4 Note Off - Duracao: 392340 Nota: C1 Vol.: 96
Chanel 4 Note On - Duracao: 392340 Nota: C1 Vol.: 98
Chanel 2 Note Off - Duracao: 392460 Nota: C1 Vol.: 75
Chanel 2 Note On - Duracao: 392460 Nota: C1 Vol.: 72
Chanel 4 Note Off - Duracao: 392460 Nota: C1 Vol.: 98
Chanel 4 Note On - Duracao: 392460 Nota: C1 Vol.: 97
Chanel 4 Note Off - Duracao: 392520 Nota: C1 Vol.: 97
Chanel 4 Note On - Duracao: 392520 Nota: C1 Vol.: 95
Chanel 1 Note Off - Duracao: 392640 Nota: C1 Vol.: 93
Chanel 1 Note On - Duracao: 392640 Nota: C1 Vol.: 93
Chanel 4 Note Off - Duracao: 392640 Nota: C1 Vol.: 95
Chanel 4 Note On - Duracao: 392640 Nota: C1 Vol.: 94
Chanel 4 Note Off - Duracao: 392760 Nota: C1 Vol.: 94
Chanel 4 Note On - Duracao: 392760 Nota: C1 Vol.: 61
Chanel 5 Note Off - Duracao: 392760 Nota: C1 Vol.: 82
Chanel 5 Note On - Duracao: 392760 Nota: C1 Vol.: 83
Chanel 9 Note Off - Duracao: 392880 Nota: C1 Vol.: 66
Chanel 9 Note On - Duracao: 392880 Nota: C1 Vol.: 60
Chanel 10 Note Off - Duracao: 392880 Nota: C1 Vol.: 63
Chanel 10 Note On - Duracao: 392880 Nota: C1 Vol.: 70
Chanel 2 Note Off - Duracao: 392940 Nota: C1 Vol.: 72
Chanel 2 Note On - Duracao: 392940 Nota: C1 Vol.: 64
Chanel 3 Note Off - Duracao: 392940 Nota: C1 Vol.: 63
Chanel 3 Note On - Duracao: 392940 Nota: C1 Vol.: 71
Chanel 7 Note Off - Duracao: 392940 Nota: C1 Vol.: 51
Chanel 7 Note On - Duracao: 392940 Nota: C1 Vol.: 57
Chanel 6 Note Off - Duracao: 393000 Nota: C1 Vol.: 60
Chanel 6 Note On - Duracao: 393000 Nota: C1 Vol.: 56
Chanel 8 Note Off - Duracao: 393060 Nota: C1 Vol.: 56
Chanel 8 Note On - Duracao: 393060 Nota: C1 Vol.: 58
Chanel 5 Note Off - Duracao: 393240 Nota: C1 Vol.: 83
Chanel 5 Note On - Duracao: 393240 Nota: C1 Vol.: 83
Chanel 10 Note Off - Duracao: 393360 Nota: C1 Vol.: 70
Chanel 10 Note On - Duracao: 393360 Nota: C1 Vol.: 67
Chanel 5 Note Off - Duracao: 393720 Nota: C1 Vol.: 83
Chanel 5 Note On - Duracao: 393720 Nota: C1 Vol.: 83
Chanel 2 Note Off - Duracao: 393900 Nota: C1 Vol.: 64
Chanel 2 Note On - Duracao: 393900 Nota: C1 Vol.: 71
Chanel 3 Note Off - Duracao: 393900 Nota: C1 Vol.: 71
Chanel 3 Note On - Duracao: 393900 Nota: C1 Vol.: 66
Chanel 6 Note Off - Duracao: 393960 Nota: C1 Vol.: 56
Chanel 6 Note On - Duracao: 393960 Nota: C1 Vol.: 72
Chanel 5 Note Off - Duracao: 394200 Nota: C1 Vol.: 83
Chanel 5 Note On - Duracao: 394200 Nota: C1 Vol.: 87
Chanel 6 Note Off - Duracao: 394200 Nota: C1 Vol.: 72
Chanel 6 Note On - Duracao: 394200 Nota: C1 Vol.: 56
Chanel 10 Note Off - Duracao: 394320 Nota: C1 Vol.: 67
Chanel 10 Note On - Duracao: 394320 Nota: C1 Vol.: 65
Chanel 2 Note Off - Duracao: 394380 Nota: C1 Vol.: 71
Chanel 2 Note On - Duracao: 394380 Nota: C1 Vol.: 67
Chanel 4 Note Off - Duracao: 394680 Nota: C1 Vol.: 61
Chanel 4 Note On - Duracao: 394680 Nota: C1 Vol.: 74
Chanel 5 Note Off - Duracao: 394680 Nota: C1 Vol.: 87
Chanel 5 Note On - Duracao: 394680 Nota: C1 Vol.: 83
Chanel 9 Note Off - Duracao: 394800 Nota: C1 Vol.: 60
Chanel 9 Note On - Duracao: 394800 Nota: C1 Vol.: 61
Chanel 3 Note Off - Duracao: 394860 Nota: C1 Vol.: 66
Chanel 3 Note On - Duracao: 394860 Nota: C1 Vol.: 68
Chanel 7 Note Off - Duracao: 394860 Nota: C1 Vol.: 57
Chanel 7 Note On - Duracao: 394860 Nota: C1 Vol.: 68
Chanel 8 Note Off - Duracao: 394980 Nota: C1 Vol.: 58
Chanel 8 Note On - Duracao: 394980 Nota: C1 Vol.: 56
Chanel 5 Note Off - Duracao: 395160 Nota: C1 Vol.: 83
Chanel 5 Note On - Duracao: 395160 Nota: C1 Vol.: 87
Chanel 6 Note Off - Duracao: 395160 Nota: C1 Vol.: 56
Chanel 6 Note On - Duracao: 395160 Nota: C1 Vol.: 46
Chanel 10 Note Off - Duracao: 395280 Nota: C1 Vol.: 65
Chanel 10 Note On - Duracao: 395280 Nota: C1 Vol.: 65
Chanel 2 Note Off - Duracao: 395340 Nota: C1 Vol.: 67
Chanel 2 Note On - Duracao: 395340 Nota: C1 Vol.: 68
Chanel 4 Note Off - Duracao: 395640 Nota: C1 Vol.: 74
Chanel 4 Note On - Duracao: 395640 Nota: C1 Vol.: 66
Chanel 5 Note Off - Duracao: 395640 Nota: C1 Vol.: 87
Chanel 5 Note On - Duracao: 395640 Nota: C1 Vol.: 85
Chanel 3 Note Off - Duracao: 395820 Nota: C1 Vol.: 68
Chanel 3 Note On - Duracao: 395820 Nota: C1 Vol.: 64
Chanel 7 Note Off - Duracao: 395820 Nota: C1 Vol.: 68
Chanel 7 Note On - Duracao: 395820 Nota: C1 Vol.: 68
Chanel 5 Note Off - Duracao: 396120 Nota: C1 Vol.: 85
Chanel 5 Note On - Duracao: 396120 Nota: C1 Vol.: 83
Chanel 10 Note Off - Duracao: 396240 Nota: C1 Vol.: 65
Chanel 10 Note On - Duracao: 396240 Nota: C1 Vol.: 68
Chanel 2 Note Off - Duracao: 396300 Nota: C1 Vol.: 68
Chanel 2 Note On - Duracao: 396300 Nota: C1 Vol.: 80
Chanel 1 Note Off - Duracao: 396480 Nota: C1 Vol.: 93
Chanel 1 Note On - Duracao: 396480 Nota: C1 Vol.: 92
Chanel 4 Note Off - Duracao: 396600 Nota: C1 Vol.: 66
Chanel 4 Note On - Duracao: 396600 Nota: C1 Vol.: 60
Chanel 5 Note Off - Duracao: 396600 Nota: C1 Vol.: 83
Chanel 5 Note On - Duracao: 396600 Nota: C1 Vol.: 65
Chanel 9 Note Off - Duracao: 396720 Nota: C1 Vol.: 61
Chanel 9 Note On - Duracao: 396720 Nota: C1 Vol.: 75
Chanel 2 Note Off - Duracao: 396780 Nota: C1 Vol.: 80
Chanel 2 Note On - Duracao: 396780 Nota: C1 Vol.: 87
Chanel 7 Note Off - Duracao: 396780 Nota: C1 Vol.: 68
Chanel 7 Note On - Duracao: 396780 Nota: C1 Vol.: 73
Chanel 8 Note Off - Duracao: 396900 Nota: C1 Vol.: 56
Chanel 8 Note On - Duracao: 396900 Nota: C1 Vol.: 56
Chanel 6 Note Off - Duracao: 397080 Nota: C1 Vol.: 46
Chanel 6 Note On - Duracao: 397080 Nota: C1 Vol.: 48
Chanel 10 Note Off - Duracao: 397200 Nota: C1 Vol.: 68
Chanel 10 Note On - Duracao: 397200 Nota: C1 Vol.: 76
Chanel 2 Note Off - Duracao: 397260 Nota: C1 Vol.: 87
Chanel 2 Note On - Duracao: 397260 Nota: C1 Vol.: 74
Chanel 5 Note Off - Duracao: 397560 Nota: C1 Vol.: 65
Chanel 5 Note On - Duracao: 397560 Nota: C1 Vol.: 46
Chanel 9 Note Off - Duracao: 397680 Nota: C1 Vol.: 75
Chanel 9 Note On - Duracao: 397680 Nota: C1 Vol.: 81
Chanel 10 Note Off - Duracao: 397680 Nota: C1 Vol.: 76
Chanel 10 Note On - Duracao: 397680 Nota: C1 Vol.: 65
Chanel 3 Note Off - Duracao: 397740 Nota: C1 Vol.: 64
Chanel 3 Note On - Duracao: 397740 Nota: C1 Vol.: 71
Chanel 7 Note Off - Duracao: 397740 Nota: C1 Vol.: 73
Chanel 7 Note On - Duracao: 397740 Nota: C1 Vol.: 77
Chanel 6 Note Off - Duracao: 398040 Nota: C1 Vol.: 48
Chanel 6 Note On - Duracao: 398040 Nota: C1 Vol.: 45
Chanel 9 Note Off - Duracao: 398160 Nota: C1 Vol.: 81
Chanel 9 Note On - Duracao: 398160 Nota: C1 Vol.: 82
Chanel 2 Note Off - Duracao: 398220 Nota: C1 Vol.: 74
Chanel 2 Note On - Duracao: 398220 Nota: C1 Vol.: 63
Chanel 7 Note Off - Duracao: 398220 Nota: C1 Vol.: 77
Chanel 7 Note On - Duracao: 398220 Nota: C1 Vol.: 79
Chanel 1 Note Off - Duracao: 398400 Nota: C1 Vol.: 92
Chanel 1 Note On - Duracao: 398400 Nota: C1 Vol.: 87
Chanel 4 Note Off - Duracao: 398520 Nota: C1 Vol.: 60
Chanel 4 Note On - Duracao: 398520 Nota: C1 Vol.: 60
Chanel 9 Note Off - Duracao: 398640 Nota: C1 Vol.: 82
Chanel 9 Note On - Duracao: 398640 Nota: C1 Vol.: 84
Chanel 10 Note Off - Duracao: 398640 Nota: C1 Vol.: 65
Chanel 10 Note On - Duracao: 398640 Nota: C1 Vol.: 67
Chanel 3 Note Off - Duracao: 398700 Nota: C1 Vol.: 71
Chanel 3 Note On - Duracao: 398700 Nota: C1 Vol.: 75
Chanel 7 Note Off - Duracao: 398700 Nota: C1 Vol.: 79
Chanel 7 Note On - Duracao: 398700 Nota: C1 Vol.: 76
Chanel 8 Note Off - Duracao: 398820 Nota: C1 Vol.: 56
Chanel 8 Note On - Duracao: 398820 Nota: C1 Vol.: 59
Chanel 6 Note Off - Duracao: 399000 Nota: C1 Vol.: 45
Chanel 6 Note On - Duracao: 399000 Nota: C1 Vol.: 41
Chanel 9 Note Off - Duracao: 399120 Nota: C1 Vol.: 84
Chanel 9 Note On - Duracao: 399120 Nota: C1 Vol.: 87
Chanel 3 Note Off - Duracao: 399180 Nota: C1 Vol.: 75
Chanel 3 Note On - Duracao: 399180 Nota: C1 Vol.: 72
Chanel 1 Note Off - Duracao: 399360 Nota: C1 Vol.: 87
Chanel 1 Note On - Duracao: 399360 Nota: C1 Vol.: 56
Chanel 9 Note Off - Duracao: 399600 Nota: C1 Vol.: 87
Chanel 9 Note On - Duracao: 399600 Nota: C1 Vol.: 86
Chanel 10 Note Off - Duracao: 399600 Nota: C1 Vol.: 67
Chanel 10 Note On - Duracao: 399600 Nota: C1 Vol.: 76
Chanel 7 Note Off - Duracao: 399660 Nota: C1 Vol.: 76
Chanel 7 Note On - Duracao: 399660 Nota: C1 Vol.: 65
Chanel 6 Note Off - Duracao: 399960 Nota: C1 Vol.: 41
Chanel 6 Note On - Duracao: 399960 Nota: C1 Vol.: 42
Chanel 9 Note Off - Duracao: 400080 Nota: C1 Vol.: 86
Chanel 9 Note On - Duracao: 400080 Nota: C1 Vol.: 91
Chanel 10 Note Off - Duracao: 400080 Nota: C1 Vol.: 76
Chanel 10 Note On - Duracao: 400080 Nota: C1 Vol.: 72
Chanel 2 Note Off - Duracao: 400140 Nota: C1 Vol.: 63
Chanel 2 Note On - Duracao: 400140 Nota: C1 Vol.: 88
Chanel 3 Note Off - Duracao: 400140 Nota: C1 Vol.: 72
Chanel 3 Note On - Duracao: 400140 Nota: C1 Vol.: 85
Chanel 2 Note Off - Duracao: 400260 Nota: C1 Vol.: 88
Chanel 2 Note On - Duracao: 400260 Nota: C1 Vol.: 78
Chanel 4 Note Off - Duracao: 400440 Nota: C1 Vol.: 60
Chanel 4 Note On - Duracao: 400440 Nota: C1 Vol.: 56
Chanel 2 Note Off - Duracao: 400500 Nota: C1 Vol.: 78
Chanel 2 Note On - Duracao: 400500 Nota: C1 Vol.: 71
Chanel 9 Note Off - Duracao: 400560 Nota: C1 Vol.: 91
Chanel 9 Note On - Duracao: 400560 Nota: C1 Vol.: 87
Chanel 3 Note Off - Duracao: 400620 Nota: C1 Vol.: 85
Chanel 3 Note On - Duracao: 400620 Nota: C1 Vol.: 80
Chanel 2 Note Off - Duracao: 400740 Nota: C1 Vol.: 71
Chanel 2 Note On - Duracao: 400740 Nota: C1 Vol.: 73
Chanel 8 Note Off - Duracao: 400740 Nota: C1 Vol.: 59
Chanel 8 Note On - Duracao: 400740 Nota: C1 Vol.: 60
Chanel 6 Note Off - Duracao: 400920 Nota: C1 Vol.: 42
Chanel 6 Note On - Duracao: 400920 Nota: C1 Vol.: 42
Chanel 2 Note Off - Duracao: 400980 Nota: C1 Vol.: 73
Chanel 2 Note On - Duracao: 400980 Nota: C1 Vol.: 77
Chanel 9 Note Off - Duracao: 401040 Nota: C1 Vol.: 87
Chanel 9 Note On - Duracao: 401040 Nota: C1 Vol.: 89
Chanel 10 Note Off - Duracao: 401040 Nota: C1 Vol.: 72
Chanel 10 Note On - Duracao: 401040 Nota: C1 Vol.: 69
Chanel 3 Note Off - Duracao: 401100 Nota: C1 Vol.: 80
Chanel 3 Note On - Duracao: 401100 Nota: C1 Vol.: 84
Chanel 2 Note Off - Duracao: 401220 Nota: C1 Vol.: 77
Chanel 2 Note On - Duracao: 401220 Nota: C1 Vol.: 73
Chanel 5 Note Off - Duracao: 401400 Nota: C1 Vol.: 46
Chanel 5 Note On - Duracao: 401400 Nota: C1 Vol.: 86
Chanel 9 Note Off - Duracao: 401520 Nota: C1 Vol.: 89
Chanel 9 Note On - Duracao: 401520 Nota: C1 Vol.: 87
Chanel 3 Note Off - Duracao: 401580 Nota: C1 Vol.: 84
Chanel 3 Note On - Duracao: 401580 Nota: C1 Vol.: 84
Chanel 7 Note Off - Duracao: 401580 Nota: C1 Vol.: 65
Chanel 7 Note On - Duracao: 401580 Nota: C1 Vol.: 87
Chanel 5 Note Off - Duracao: 401640 Nota: C1 Vol.: 86
Chanel 5 Note On - Duracao: 401640 Nota: C1 Vol.: 63
Chanel 2 Note Off - Duracao: 401700 Nota: C1 Vol.: 73
Chanel 2 Note On - Duracao: 401700 Nota: C1 Vol.: 82
Chanel 8 Note Off - Duracao: 401700 Nota: C1 Vol.: 60
Chanel 8 Note On - Duracao: 401700 Nota: C1 Vol.: 65
Chanel 6 Note Off - Duracao: 401880 Nota: C1 Vol.: 42
Chanel 6 Note On - Duracao: 401880 Nota: C1 Vol.: 41
Chanel 2 Note Off - Duracao: 401940 Nota: C1 Vol.: 82
Chanel 2 Note On - Duracao: 401940 Nota: C1 Vol.: 83
Chanel 9 Note Off - Duracao: 402000 Nota: C1 Vol.: 87
Chanel 9 Note On - Duracao: 402000 Nota: C1 Vol.: 86
Chanel 10 Note Off - Duracao: 402000 Nota: C1 Vol.: 69
Chanel 10 Note On - Duracao: 402000 Nota: C1 Vol.: 68
Chanel 3 Note Off - Duracao: 402060 Nota: C1 Vol.: 84
Chanel 3 Note On - Duracao: 402060 Nota: C1 Vol.: 74
Chanel 7 Note Off - Duracao: 402060 Nota: C1 Vol.: 87
Chanel 7 Note On - Duracao: 402060 Nota: C1 Vol.: 89
Chanel 2 Note Off - Duracao: 402180 Nota: C1 Vol.: 83
Chanel 2 Note On - Duracao: 402180 Nota: C1 Vol.: 81
Chanel 2 Note Off - Duracao: 402420 Nota: C1 Vol.: 81
Chanel 2 Note On - Duracao: 402420 Nota: C1 Vol.: 80
Chanel 9 Note Off - Duracao: 402480 Nota: C1 Vol.: 86
Chanel 9 Note On - Duracao: 402480 Nota: C1 Vol.: 69
Chanel 7 Note Off - Duracao: 402540 Nota: C1 Vol.: 89
Chanel 7 Note On - Duracao: 402540 Nota: C1 Vol.: 59
Chanel 5 Note Off - Duracao: 402600 Nota: C1 Vol.: 63
Chanel 5 Note On - Duracao: 402600 Nota: C1 Vol.: 85
Chanel 2 Note Off - Duracao: 402660 Nota: C1 Vol.: 80
Chanel 2 Note On - Duracao: 402660 Nota: C1 Vol.: 79
Chanel 8 Note Off - Duracao: 402660 Nota: C1 Vol.: 65
Chanel 8 Note On - Duracao: 402660 Nota: C1 Vol.: 62
Chanel 5 Note Off - Duracao: 402720 Nota: C1 Vol.: 85
Chanel 5 Note On - Duracao: 402720 Nota: C1 Vol.: 88
Chanel 5 Note Off - Duracao: 402840 Nota: C1 Vol.: 88
Chanel 5 Note On - Duracao: 402840 Nota: C1 Vol.: 89
Chanel 6 Note Off - Duracao: 402840 Nota: C1 Vol.: 41
Chanel 6 Note On - Duracao: 402840 Nota: C1 Vol.: 41
Chanel 2 Note Off - Duracao: 402900 Nota: C1 Vol.: 79
Chanel 2 Note On - Duracao: 402900 Nota: C1 Vol.: 82
Chanel 5 Note Off - Duracao: 402960 Nota: C1 Vol.: 89
Chanel 5 Note On - Duracao: 402960 Nota: C1 Vol.: 89
Chanel 10 Note Off - Duracao: 402960 Nota: C1 Vol.: 68
Chanel 10 Note On - Duracao: 402960 Nota: C1 Vol.: 61
Chanel 2 Note Off - Duracao: 403020 Nota: C1 Vol.: 82
Chanel 2 Note On - Duracao: 403020 Nota: C1 Vol.: 81
Chanel 3 Note Off - Duracao: 403020 Nota: C1 Vol.: 74
Chanel 3 Note On - Duracao: 403020 Nota: C1 Vol.: 66
Chanel 5 Note Off - Duracao: 403080 Nota: C1 Vol.: 89
Chanel 5 Note On - Duracao: 403080 Nota: C1 Vol.: 88
Chanel 1 Note Off - Duracao: 403200 Nota: C1 Vol.: 56
Chanel 1 Note On - Duracao: 403200 Nota: C1 Vol.: 67
Chanel 5 Note Off - Duracao: 403200 Nota: C1 Vol.: 88
Chanel 5 Note On - Duracao: 403200 Nota: C1 Vol.: 89
Chanel 2 Note Off - Duracao: 403260 Nota: C1 Vol.: 81
Chanel 2 Note On - Duracao: 403260 Nota: C1 Vol.: 79
Chanel 5 Note Off - Duracao: 403320 Nota: C1 Vol.: 89
Chanel 5 Note On - Duracao: 403320 Nota: C1 Vol.: 88
Chanel 5 Note Off - Duracao: 403440 Nota: C1 Vol.: 88
Chanel 5 Note On - Duracao: 403440 Nota: C1 Vol.: 90
Chanel 9 Note Off - Duracao: 403440 Nota: C1 Vol.: 69
Chanel 9 Note On - Duracao: 403440 Nota: C1 Vol.: 60
Chanel 2 Note Off - Duracao: 403500 Nota: C1 Vol.: 79
Chanel 2 Note On - Duracao: 403500 Nota: C1 Vol.: 75
Chanel 5 Note Off - Duracao: 403560 Nota: C1 Vol.: 90
Chanel 5 Note On - Duracao: 403560 Nota: C1 Vol.: 95
Chanel 8 Note Off - Duracao: 403620 Nota: C1 Vol.: 62
Chanel 8 Note On - Duracao: 403620 Nota: C1 Vol.: 71
Chanel 5 Note Off - Duracao: 403680 Nota: C1 Vol.: 95
Chanel 5 Note On - Duracao: 403680 Nota: C1 Vol.: 53
Chanel 2 Note Off - Duracao: 403740 Nota: C1 Vol.: 75
Chanel 2 Note On - Duracao: 403740 Nota: C1 Vol.: 68
Chanel 6 Note Off - Duracao: 403800 Nota: C1 Vol.: 41
Chanel 6 Note On - Duracao: 403800 Nota: C1 Vol.: 47
Chanel 10 Note Off - Duracao: 403920 Nota: C1 Vol.: 61
Chanel 10 Note On - Duracao: 403920 Nota: C1 Vol.: 54
Chanel 8 Note Off - Duracao: 404100 Nota: C1 Vol.: 71
Chanel 8 Note On - Duracao: 404100 Nota: C1 Vol.: 72
Chanel 1 Note Off - Duracao: 404160 Nota: C1 Vol.: 67
Chanel 1 Note On - Duracao: 404160 Nota: C1 Vol.: 96
Chanel 2 Note Off - Duracao: 404220 Nota: C1 Vol.: 68
Chanel 2 Note On - Duracao: 404220 Nota: C1 Vol.: 69
Chanel 1 Note Off - Duracao: 404280 Nota: C1 Vol.: 96
Chanel 1 Note On - Duracao: 404280 Nota: C1 Vol.: 96
Chanel 4 Note Off - Duracao: 404280 Nota: C1 Vol.: 56
Chanel 4 Note On - Duracao: 404280 Nota: C1 Vol.: 59
Chanel 1 Note Off - Duracao: 404400 Nota: C1 Vol.: 96
Chanel 1 Note On - Duracao: 404400 Nota: C1 Vol.: 83
Chanel 7 Note Off - Duracao: 404460 Nota: C1 Vol.: 59
Chanel 7 Note On - Duracao: 404460 Nota: C1 Vol.: 61
Chanel 8 Note Off - Duracao: 404580 Nota: C1 Vol.: 72
Chanel 8 Note On - Duracao: 404580 Nota: C1 Vol.: 70
Chanel 1 Note Off - Duracao: 404640 Nota: C1 Vol.: 83
Chanel 1 Note On - Duracao: 404640 Nota: C1 Vol.: 81
Chanel 2 Note Off - Duracao: 404700 Nota: C1 Vol.: 69
Chanel 2 Note On - Duracao: 404700 Nota: C1 Vol.: 74
Chanel 6 Note Off - Duracao: 404760 Nota: C1 Vol.: 47
Chanel 6 Note On - Duracao: 404760 Nota: C1 Vol.: 50
Chanel 1 Note Off - Duracao: 404880 Nota: C1 Vol.: 81
Chanel 1 Note On - Duracao: 404880 Nota: C1 Vol.: 86
Chanel 3 Note Off - Duracao: 404940 Nota: C1 Vol.: 66
Chanel 3 Note On - Duracao: 404940 Nota: C1 Vol.: 73
Chanel 1 Note Off - Duracao: 405000 Nota: C1 Vol.: 86
Chanel 1 Note On - Duracao: 405000 Nota: C1 Vol.: 86
Chanel 8 Note Off - Duracao: 405060 Nota: C1 Vol.: 70
Chanel 8 Note On - Duracao: 405060 Nota: C1 Vol.: 56
Chanel 1 Note Off - Duracao: 405120 Nota: C1 Vol.: 86
Chanel 1 Note On - Duracao: 405120 Nota: C1 Vol.: 82
Chanel 2 Note Off - Duracao: 405180 Nota: C1 Vol.: 74
Chanel 2 Note On - Duracao: 405180 Nota: C1 Vol.: 84
Chanel 1 Note Off - Duracao: 405360 Nota: C1 Vol.: 82
Chanel 1 Note On - Duracao: 405360 Nota: C1 Vol.: 85
Chanel 9 Note Off - Duracao: 405360 Nota: C1 Vol.: 60
Chanel 9 Note On - Duracao: 405360 Nota: C1 Vol.: 61
Chanel 2 Note Off - Duracao: 405420 Nota: C1 Vol.: 84
Chanel 2 Note On - Duracao: 405420 Nota: C1 Vol.: 78
Chanel 1 Note Off - Duracao: 405480 Nota: C1 Vol.: 85
Chanel 1 Note On - Duracao: 405480 Nota: C1 Vol.: 76
Chanel 5 Note Off - Duracao: 405600 Nota: C1 Vol.: 53
Chanel 5 Note On - Duracao: 405600 Nota: C1 Vol.: 57
Chanel 2 Note Off - Duracao: 405660 Nota: C1 Vol.: 78
Chanel 2 Note On - Duracao: 405660 Nota: C1 Vol.: 84
Chanel 1 Note Off - Duracao: 405720 Nota: C1 Vol.: 76
Chanel 1 Note On - Duracao: 405720 Nota: C1 Vol.: 79
Chanel 6 Note Off - Duracao: 405720 Nota: C1 Vol.: 50
Chanel 6 Note On - Duracao: 405720 Nota: C1 Vol.: 51
Chanel 10 Note Off - Duracao: 405840 Nota: C1 Vol.: 54
Chanel 10 Note On - Duracao: 405840 Nota: C1 Vol.: 62
Chanel 2 Note Off - Duracao: 405900 Nota: C1 Vol.: 84
Chanel 2 Note On - Duracao: 405900 Nota: C1 Vol.: 91
Chanel 3 Note Off - Duracao: 405900 Nota: C1 Vol.: 73
Chanel 3 Note On - Duracao: 405900 Nota: C1 Vol.: 59
Chanel 1 Note Off - Duracao: 405960 Nota: C1 Vol.: 79
Chanel 1 Note On - Duracao: 405960 Nota: C1 Vol.: 77
Chanel 2 Note Off - Duracao: 406020 Nota: C1 Vol.: 91
Chanel 2 Note On - Duracao: 406020 Nota: C1 Vol.: 98
Chanel 2 Note Off - Duracao: 406080 Nota: C1 Vol.: 98
Chanel 2 Note On - Duracao: 406080 Nota: C1 Vol.: 96
Chanel 1 Note Off - Duracao: 406200 Nota: C1 Vol.: 77
Chanel 1 Note On - Duracao: 406200 Nota: C1 Vol.: 74
Chanel 2 Note Off - Duracao: 406200 Nota: C1 Vol.: 96
Chanel 2 Note On - Duracao: 406200 Nota: C1 Vol.: 92
Chanel 4 Note Off - Duracao: 406200 Nota: C1 Vol.: 59
Chanel 4 Note On - Duracao: 406200 Nota: C1 Vol.: 75
Chanel 2 Note Off - Duracao: 406320 Nota: C1 Vol.: 92
Chanel 2 Note On - Duracao: 406320 Nota: C1 Vol.: 97
Chanel 9 Note Off - Duracao: 406320 Nota: C1 Vol.: 61
Chanel 9 Note On - Duracao: 406320 Nota: C1 Vol.: 78
Chanel 2 Note Off - Duracao: 406380 Nota: C1 Vol.: 97
Chanel 2 Note On - Duracao: 406380 Nota: C1 Vol.: 98
Chanel 7 Note Off - Duracao: 406380 Nota: C1 Vol.: 61
Chanel 7 Note On - Duracao: 406380 Nota: C1 Vol.: 63
Chanel 2 Note Off - Duracao: 406440 Nota: C1 Vol.: 98
Chanel 2 Note On - Duracao: 406440 Nota: C1 Vol.: 91
Chanel 2 Note Off - Duracao: 406560 Nota: C1 Vol.: 91
Chanel 2 Note On - Duracao: 406560 Nota: C1 Vol.: 88
Chanel 1 Note Off - Duracao: 406680 Nota: C1 Vol.: 74
Chanel 1 Note On - Duracao: 406680 Nota: C1 Vol.: 83
Chanel 6 Note Off - Duracao: 406680 Nota: C1 Vol.: 51
Chanel 6 Note On - Duracao: 406680 Nota: C1 Vol.: 50
Chanel 2 Note Off - Duracao: 406800 Nota: C1 Vol.: 88
Chanel 2 Note On - Duracao: 406800 Nota: C1 Vol.: 93
Chanel 9 Note Off - Duracao: 406800 Nota: C1 Vol.: 78
Chanel 9 Note On - Duracao: 406800 Nota: C1 Vol.: 75
Chanel 10 Note Off - Duracao: 406800 Nota: C1 Vol.: 62
Chanel 10 Note On - Duracao: 406800 Nota: C1 Vol.: 64
Chanel 1 Note Off - Duracao: 406920 Nota: C1 Vol.: 83
Chanel 1 Note On - Duracao: 406920 Nota: C1 Vol.: 77
Chanel 8 Note Off - Duracao: 406980 Nota: C1 Vol.: 56
Chanel 8 Note On - Duracao: 406980 Nota: C1 Vol.: 57
Chanel 2 Note Off - Duracao: 407040 Nota: C1 Vol.: 93
Chanel 2 Note On - Duracao: 407040 Nota: C1 Vol.: 91
Chanel 4 Note Off - Duracao: 407160 Nota: C1 Vol.: 75
Chanel 4 Note On - Duracao: 407160 Nota: C1 Vol.: 68
Chanel 9 Note Off - Duracao: 407280 Nota: C1 Vol.: 75
Chanel 9 Note On - Duracao: 407280 Nota: C1 Vol.: 56
Chanel 1 Note Off - Duracao: 407400 Nota: C1 Vol.: 77
Chanel 1 Note On - Duracao: 407400 Nota: C1 Vol.: 66
Chanel 2 Note Off - Duracao: 407520 Nota: C1 Vol.: 91
Chanel 2 Note On - Duracao: 407520 Nota: C1 Vol.: 85
Chanel 5 Note Off - Duracao: 407520 Nota: C1 Vol.: 57
Chanel 5 Note On - Duracao: 407520 Nota: C1 Vol.: 78
Chanel 3 Note Off - Duracao: 407820 Nota: C1 Vol.: 59
Chanel 3 Note On - Duracao: 407820 Nota: C1 Vol.: 75
Chanel 2 Note Off - Duracao: 408000 Nota: C1 Vol.: 85
Chanel 2 Note On - Duracao: 408000 Nota: C1 Vol.: 91
Chanel 5 Note Off - Duracao: 408000 Nota: C1 Vol.: 78
Chanel 5 Note On - Duracao: 408000 Nota: C1 Vol.: 100
Chanel 5 Note Off - Duracao: 408060 Nota: C1 Vol.: 100
Chanel 5 Note On - Duracao: 408060 Nota: C1 Vol.: 100
Chanel 5 Note Off - Duracao: 408120 Nota: C1 Vol.: 100
Chanel 5 Note On - Duracao: 408120 Nota: C1 Vol.: 99
Chanel 5 Note Off - Duracao: 408180 Nota: C1 Vol.: 99
Chanel 5 Note On - Duracao: 408180 Nota: C1 Vol.: 99
Chanel 5 Note Off - Duracao: 408240 Nota: C1 Vol.: 99
Chanel 5 Note On - Duracao: 408240 Nota: C1 Vol.: 100
Chanel 5 Note Off - Duracao: 408300 Nota: C1 Vol.: 100
Chanel 5 Note On - Duracao: 408300 Nota: C1 Vol.: 96
Chanel 7 Note Off - Duracao: 408300 Nota: C1 Vol.: 63
Chanel 7 Note On - Duracao: 408300 Nota: C1 Vol.: 62
Chanel 5 Note Off - Duracao: 408360 Nota: C1 Vol.: 96
Chanel 5 Note On - Duracao: 408360 Nota: C1 Vol.: 100
Chanel 5 Note Off - Duracao: 408420 Nota: C1 Vol.: 100
Chanel 5 Note On - Duracao: 408420 Nota: C1 Vol.: 95
Chanel 2 Note Off - Duracao: 408480 Nota: C1 Vol.: 91
Chanel 2 Note On - Duracao: 408480 Nota: C1 Vol.: 84
Chanel 5 Note Off - Duracao: 408540 Nota: C1 Vol.: 95
Chanel 5 Note On - Duracao: 408540 Nota: C1 Vol.: 100
Chanel 5 Note Off - Duracao: 408600 Nota: C1 Vol.: 100
Chanel 5 Note On - Duracao: 408600 Nota: C1 Vol.: 98
Chanel 6 Note Off - Duracao: 408600 Nota: C1 Vol.: 50
Chanel 6 Note On - Duracao: 408600 Nota: C1 Vol.: 57
Chanel 5 Note Off - Duracao: 408660 Nota: C1 Vol.: 98
Chanel 5 Note On - Duracao: 408660 Nota: C1 Vol.: 93
Chanel 10 Note Off - Duracao: 408720 Nota: C1 Vol.: 64
Chanel 10 Note On - Duracao: 408720 Nota: C1 Vol.: 67
Chanel 3 Note Off - Duracao: 408780 Nota: C1 Vol.: 75
Chanel 3 Note On - Duracao: 408780 Nota: C1 Vol.: 69
Chanel 5 Note Off - Duracao: 408780 Nota: C1 Vol.: 93
Chanel 5 Note On - Duracao: 408780 Nota: C1 Vol.: 100
Chanel 5 Note Off - Duracao: 408840 Nota: C1 Vol.: 100
Chanel 5 Note On - Duracao: 408840 Nota: C1 Vol.: 98
Chanel 5 Note Off - Duracao: 408900 Nota: C1 Vol.: 98
Chanel 5 Note On - Duracao: 408900 Nota: C1 Vol.: 97
Chanel 8 Note Off - Duracao: 408900 Nota: C1 Vol.: 57
Chanel 8 Note On - Duracao: 408900 Nota: C1 Vol.: 58
Chanel 5 Note Off - Duracao: 408960 Nota: C1 Vol.: 97
Chanel 5 Note On - Duracao: 408960 Nota: C1 Vol.: 98
Chanel 5 Note Off - Duracao: 409020 Nota: C1 Vol.: 98
Chanel 5 Note On - Duracao: 409020 Nota: C1 Vol.: 97
Chanel 4 Note Off - Duracao: 409080 Nota: C1 Vol.: 68
Chanel 4 Note On - Duracao: 409080 Nota: C1 Vol.: 76
Chanel 5 Note Off - Duracao: 409080 Nota: C1 Vol.: 97
Chanel 5 Note On - Duracao: 409080 Nota: C1 Vol.: 96
Chanel 5 Note Off - Duracao: 409140 Nota: C1 Vol.: 96
Chanel 5 Note On - Duracao: 409140 Nota: C1 Vol.: 97
Chanel 5 Note Off - Duracao: 409200 Nota: C1 Vol.: 97
Chanel 5 Note On - Duracao: 409200 Nota: C1 Vol.: 90
Chanel 9 Note Off - Duracao: 409200 Nota: C1 Vol.: 56
Chanel 9 Note On - Duracao: 409200 Nota: C1 Vol.: 58
Chanel 1 Note Off - Duracao: 409320 Nota: C1 Vol.: 66
Chanel 1 Note On - Duracao: 409320 Nota: C1 Vol.: 90
Chanel 5 Note Off - Duracao: 409320 Nota: C1 Vol.: 90
Chanel 5 Note On - Duracao: 409320 Nota: C1 Vol.: 93
Chanel 2 Note Off - Duracao: 409440 Nota: C1 Vol.: 84
Chanel 2 Note On - Duracao: 409440 Nota: C1 Vol.: 83
Chanel 5 Note Off - Duracao: 409440 Nota: C1 Vol.: 93
Chanel 5 Note On - Duracao: 409440 Nota: C1 Vol.: 93
Chanel 5 Note Off - Duracao: 409560 Nota: C1 Vol.: 93
Chanel 5 Note On - Duracao: 409560 Nota: C1 Vol.: 95
Chanel 5 Note Off - Duracao: 409680 Nota: C1 Vol.: 95
Chanel 5 Note On - Duracao: 409680 Nota: C1 Vol.: 87
Chanel 10 Note Off - Duracao: 409680 Nota: C1 Vol.: 67
Chanel 10 Note On - Duracao: 409680 Nota: C1 Vol.: 72
Chanel 3 Note Off - Duracao: 409740 Nota: C1 Vol.: 69
Chanel 3 Note On - Duracao: 409740 Nota: C1 Vol.: 49
Chanel 1 Note Off - Duracao: 409800 Nota: C1 Vol.: 90
Chanel 1 Note On - Duracao: 409800 Nota: C1 Vol.: 93
Chanel 2 Note Off - Duracao: 409920 Nota: C1 Vol.: 83
Chanel 2 Note On - Duracao: 409920 Nota: C1 Vol.: 71
Chanel 5 Note Off - Duracao: 409920 Nota: C1 Vol.: 87
Chanel 5 Note On - Duracao: 409920 Nota: C1 Vol.: 72
Chanel 4 Note Off - Duracao: 410040 Nota: C1 Vol.: 76
Chanel 4 Note On - Duracao: 410040 Nota: C1 Vol.: 74
Chanel 7 Note Off - Duracao: 410220 Nota: C1 Vol.: 62
Chanel 7 Note On - Duracao: 410220 Nota: C1 Vol.: 67
Chanel 1 Note Off - Duracao: 410280 Nota: C1 Vol.: 93
Chanel 1 Note On - Duracao: 410280 Nota: C1 Vol.: 73
Chanel 5 Note Off - Duracao: 410400 Nota: C1 Vol.: 72
Chanel 5 Note On - Duracao: 410400 Nota: C1 Vol.: 53
Chanel 6 Note Off - Duracao: 410520 Nota: C1 Vol.: 57
Chanel 6 Note On - Duracao: 410520 Nota: C1 Vol.: 70
Chanel 10 Note Off - Duracao: 410640 Nota: C1 Vol.: 72
Chanel 10 Note On - Duracao: 410640 Nota: C1 Vol.: 70
Chanel 8 Note Off - Duracao: 410820 Nota: C1 Vol.: 58
Chanel 8 Note On - Duracao: 410820 Nota: C1 Vol.: 58
Chanel 4 Note Off - Duracao: 411000 Nota: C1 Vol.: 74
Chanel 4 Note On - Duracao: 411000 Nota: C1 Vol.: 64
Chanel 9 Note Off - Duracao: 411120 Nota: C1 Vol.: 58
Chanel 9 Note On - Duracao: 411120 Nota: C1 Vol.: 66
Chanel 7 Note Off - Duracao: 411180 Nota: C1 Vol.: 67
Chanel 7 Note On - Duracao: 411180 Nota: C1 Vol.: 94
Chanel 1 Note Off - Duracao: 411240 Nota: C1 Vol.: 73
Chanel 1 Note On - Duracao: 411240 Nota: C1 Vol.: 77
Chanel 7 Note Off - Duracao: 411300 Nota: C1 Vol.: 94
Chanel 7 Note On - Duracao: 411300 Nota: C1 Vol.: 88
Chanel 5 Note Off - Duracao: 411360 Nota: C1 Vol.: 53
Chanel 5 Note On - Duracao: 411360 Nota: C1 Vol.: 64
Chanel 7 Note Off - Duracao: 411540 Nota: C1 Vol.: 88
Chanel 7 Note On - Duracao: 411540 Nota: C1 Vol.: 84
Chanel 10 Note Off - Duracao: 411600 Nota: C1 Vol.: 70
Chanel 10 Note On - Duracao: 411600 Nota: C1 Vol.: 67
Chanel 1 Note Off - Duracao: 411720 Nota: C1 Vol.: 77
Chanel 1 Note On - Duracao: 411720 Nota: C1 Vol.: 83
Chanel 7 Note Off - Duracao: 411780 Nota: C1 Vol.: 84
Chanel 7 Note On - Duracao: 411780 Nota: C1 Vol.: 77
Chanel 2 Note Off - Duracao: 411840 Nota: C1 Vol.: 71
Chanel 2 Note On - Duracao: 411840 Nota: C1 Vol.: 78
Chanel 5 Note Off - Duracao: 411840 Nota: C1 Vol.: 64
Chanel 5 Note On - Duracao: 411840 Nota: C1 Vol.: 69
Chanel 1 Note Off - Duracao: 411960 Nota: C1 Vol.: 83
Chanel 1 Note On - Duracao: 411960 Nota: C1 Vol.: 95
Chanel 7 Note Off - Duracao: 412020 Nota: C1 Vol.: 77
Chanel 7 Note On - Duracao: 412020 Nota: C1 Vol.: 81
Chanel 1 Note Off - Duracao: 412080 Nota: C1 Vol.: 95
Chanel 1 Note On - Duracao: 412080 Nota: C1 Vol.: 94
Chanel 9 Note Off - Duracao: 412080 Nota: C1 Vol.: 66
Chanel 9 Note On - Duracao: 412080 Nota: C1 Vol.: 69
Chanel 1 Note Off - Duracao: 412200 Nota: C1 Vol.: 94
Chanel 1 Note On - Duracao: 412200 Nota: C1 Vol.: 85
Chanel 7 Note Off - Duracao: 412260 Nota: C1 Vol.: 81
Chanel 7 Note On - Duracao: 412260 Nota: C1 Vol.: 83
Chanel 1 Note Off - Duracao: 412320 Nota: C1 Vol.: 85
Chanel 1 Note On - Duracao: 412320 Nota: C1 Vol.: 87
Chanel 5 Note Off - Duracao: 412320 Nota: C1 Vol.: 69
Chanel 5 Note On - Duracao: 412320 Nota: C1 Vol.: 66
Chanel 1 Note Off - Duracao: 412440 Nota: C1 Vol.: 87
Chanel 1 Note On - Duracao: 412440 Nota: C1 Vol.: 91
Chanel 6 Note Off - Duracao: 412440 Nota: C1 Vol.: 70
Chanel 6 Note On - Duracao: 412440 Nota: C1 Vol.: 79
Chanel 1 Note Off - Duracao: 412500 Nota: C1 Vol.: 91
Chanel 1 Note On - Duracao: 412500 Nota: C1 Vol.: 87
Chanel 7 Note Off - Duracao: 412500 Nota: C1 Vol.: 83
Chanel 7 Note On - Duracao: 412500 Nota: C1 Vol.: 94
Chanel 10 Note Off - Duracao: 412560 Nota: C1 Vol.: 67
Chanel 10 Note On - Duracao: 412560 Nota: C1 Vol.: 65
Chanel 1 Note Off - Duracao: 412620 Nota: C1 Vol.: 87
Chanel 1 Note On - Duracao: 412620 Nota: C1 Vol.: 90
Chanel 7 Note Off - Duracao: 412620 Nota: C1 Vol.: 94
Chanel 7 Note On - Duracao: 412620 Nota: C1 Vol.: 69
Chanel 1 Note Off - Duracao: 412740 Nota: C1 Vol.: 90
Chanel 1 Note On - Duracao: 412740 Nota: C1 Vol.: 97
Chanel 8 Note Off - Duracao: 412740 Nota: C1 Vol.: 58
Chanel 8 Note On - Duracao: 412740 Nota: C1 Vol.: 59
Chanel 1 Note Off - Duracao: 412800 Nota: C1 Vol.: 97
Chanel 1 Note On - Duracao: 412800 Nota: C1 Vol.: 97
Chanel 2 Note Off - Duracao: 412800 Nota: C1 Vol.: 78
Chanel 2 Note On - Duracao: 412800 Nota: C1 Vol.: 76
Chanel 1 Note Off - Duracao: 412860 Nota: C1 Vol.: 97
Chanel 1 Note On - Duracao: 412860 Nota: C1 Vol.: 97
Chanel 1 Note Off - Duracao: 412920 Nota: C1 Vol.: 97
Chanel 1 Note On - Duracao: 412920 Nota: C1 Vol.: 96
Chanel 4 Note Off - Duracao: 412920 Nota: C1 Vol.: 64
Chanel 4 Note On - Duracao: 412920 Nota: C1 Vol.: 55
Chanel 1 Note Off - Duracao: 412980 Nota: C1 Vol.: 96
Chanel 1 Note On - Duracao: 412980 Nota: C1 Vol.: 95
Chanel 1 Note Off - Duracao: 413040 Nota: C1 Vol.: 95
Chanel 1 Note On - Duracao: 413040 Nota: C1 Vol.: 79
Chanel 9 Note Off - Duracao: 413040 Nota: C1 Vol.: 69
Chanel 9 Note On - Duracao: 413040 Nota: C1 Vol.: 71
Chanel 7 Note Off - Duracao: 413100 Nota: C1 Vol.: 69
Chanel 7 Note On - Duracao: 413100 Nota: C1 Vol.: 71
Chanel 1 Note Off - Duracao: 413280 Nota: C1 Vol.: 79
Chanel 1 Note On - Duracao: 413280 Nota: C1 Vol.: 78
Chanel 5 Note Off - Duracao: 413280 Nota: C1 Vol.: 66
Chanel 5 Note On - Duracao: 413280 Nota: C1 Vol.: 64
Chanel 6 Note Off - Duracao: 413400 Nota: C1 Vol.: 79
Chanel 6 Note On - Duracao: 413400 Nota: C1 Vol.: 84
Chanel 1 Note Off - Duracao: 413520 Nota: C1 Vol.: 78
Chanel 1 Note On - Duracao: 413520 Nota: C1 Vol.: 92
Chanel 10 Note Off - Duracao: 413520 Nota: C1 Vol.: 65
Chanel 10 Note On - Duracao: 413520 Nota: C1 Vol.: 65
Chanel 3 Note Off - Duracao: 413580 Nota: C1 Vol.: 49
Chanel 3 Note On - Duracao: 413580 Nota: C1 Vol.: 51
Chanel 7 Note Off - Duracao: 413580 Nota: C1 Vol.: 71
Chanel 7 Note On - Duracao: 413580 Nota: C1 Vol.: 86
Chanel 1 Note Off - Duracao: 413640 Nota: C1 Vol.: 92
Chanel 1 Note On - Duracao: 413640 Nota: C1 Vol.: 89
Chanel 1 Note Off - Duracao: 413760 Nota: C1 Vol.: 89
Chanel 1 Note On - Duracao: 413760 Nota: C1 Vol.: 86
Chanel 2 Note Off - Duracao: 413760 Nota: C1 Vol.: 76
Chanel 2 Note On - Duracao: 413760 Nota: C1 Vol.: 75
Chanel 7 Note Off - Duracao: 413820 Nota: C1 Vol.: 86
Chanel 7 Note On - Duracao: 413820 Nota: C1 Vol.: 77
Chanel 1 Note Off - Duracao: 413880 Nota: C1 Vol.: 86
Chanel 1 Note On - Duracao: 413880 Nota: C1 Vol.: 95
Chanel 1 Note Off - Duracao: 413940 Nota: C1 Vol.: 95
Chanel 1 Note On - Duracao: 413940 Nota: C1 Vol.: 94
Chanel 9 Note Off - Duracao: 414000 Nota: C1 Vol.: 71
Chanel 9 Note On - Duracao: 414000 Nota: C1 Vol.: 70
Chanel 1 Note Off - Duracao: 414060 Nota: C1 Vol.: 94
Chanel 1 Note On - Duracao: 414060 Nota: C1 Vol.: 94
Chanel 1 Note Off - Duracao: 414180 Nota: C1 Vol.: 94
Chanel 1 Note On - Duracao: 414180 Nota: C1 Vol.: 97
Chanel 1 Note Off - Duracao: 414240 Nota: C1 Vol.: 97
Chanel 1 Note On - Duracao: 414240 Nota: C1 Vol.: 90
Chanel 5 Note Off - Duracao: 414240 Nota: C1 Vol.: 64
Chanel 5 Note On - Duracao: 414240 Nota: C1 Vol.: 70
Chanel 7 Note Off - Duracao: 414300 Nota: C1 Vol.: 77
Chanel 7 Note On - Duracao: 414300 Nota: C1 Vol.: 78
Chanel 1 Note Off - Duracao: 414360 Nota: C1 Vol.: 90
Chanel 1 Note On - Duracao: 414360 Nota: C1 Vol.: 97
Chanel 6 Note Off - Duracao: 414360 Nota: C1 Vol.: 84
Chanel 6 Note On - Duracao: 414360 Nota: C1 Vol.: 90
Chanel 1 Note Off - Duracao: 414420 Nota: C1 Vol.: 97
Chanel 1 Note On - Duracao: 414420 Nota: C1 Vol.: 97
Chanel 10 Note Off - Duracao: 414480 Nota: C1 Vol.: 65
Chanel 10 Note On - Duracao: 414480 Nota: C1 Vol.: 67
Chanel 1 Note Off - Duracao: 414540 Nota: C1 Vol.: 97
Chanel 1 Note On - Duracao: 414540 Nota: C1 Vol.: 93
Chanel 8 Note Off - Duracao: 414660 Nota: C1 Vol.: 59
Chanel 8 Note On - Duracao: 414660 Nota: C1 Vol.: 59
Chanel 2 Note Off - Duracao: 414720 Nota: C1 Vol.: 75
Chanel 2 Note On - Duracao: 414720 Nota: C1 Vol.: 71
Chanel 1 Note Off - Duracao: 414780 Nota: C1 Vol.: 93
Chanel 1 Note On - Duracao: 414780 Nota: C1 Vol.: 83
Chanel 7 Note Off - Duracao: 414780 Nota: C1 Vol.: 78
Chanel 7 Note On - Duracao: 414780 Nota: C1 Vol.: 99
Chanel 4 Note Off - Duracao: 414840 Nota: C1 Vol.: 55
Chanel 4 Note On - Duracao: 414840 Nota: C1 Vol.: 60
Chanel 7 Note Off - Duracao: 414900 Nota: C1 Vol.: 99
Chanel 7 Note On - Duracao: 414900 Nota: C1 Vol.: 73
Chanel 9 Note Off - Duracao: 414960 Nota: C1 Vol.: 70
Chanel 9 Note On - Duracao: 414960 Nota: C1 Vol.: 76
Chanel 5 Note Off - Duracao: 415200 Nota: C1 Vol.: 70
Chanel 5 Note On - Duracao: 415200 Nota: C1 Vol.: 71
Chanel 1 Note Off - Duracao: 415260 Nota: C1 Vol.: 83
Chanel 1 Note On - Duracao: 415260 Nota: C1 Vol.: 88
Chanel 6 Note Off - Duracao: 415320 Nota: C1 Vol.: 90
Chanel 6 Note On - Duracao: 415320 Nota: C1 Vol.: 90
Chanel 7 Note Off - Duracao: 415380 Nota: C1 Vol.: 73
Chanel 7 Note On - Duracao: 415380 Nota: C1 Vol.: 61
Chanel 9 Note Off - Duracao: 415440 Nota: C1 Vol.: 76
Chanel 9 Note On - Duracao: 415440 Nota: C1 Vol.: 70
Chanel 10 Note Off - Duracao: 415440 Nota: C1 Vol.: 67
Chanel 10 Note On - Duracao: 415440 Nota: C1 Vol.: 68
Chanel 2 Note Off - Duracao: 415680 Nota: C1 Vol.: 71
Chanel 2 Note On - Duracao: 415680 Nota: C1 Vol.: 76
Chanel 1 Note Off - Duracao: 415740 Nota: C1 Vol.: 88
Chanel 1 Note On - Duracao: 415740 Nota: C1 Vol.: 88
Chanel 9 Note Off - Duracao: 415920 Nota: C1 Vol.: 70
Chanel 9 Note On - Duracao: 415920 Nota: C1 Vol.: 71
Chanel 2 Note Off - Duracao: 416160 Nota: C1 Vol.: 76
Chanel 2 Note On - Duracao: 416160 Nota: C1 Vol.: 79
Chanel 5 Note Off - Duracao: 416160 Nota: C1 Vol.: 71
Chanel 5 Note On - Duracao: 416160 Nota: C1 Vol.: 67
Chanel 6 Note Off - Duracao: 416280 Nota: C1 Vol.: 90
Chanel 6 Note On - Duracao: 416280 Nota: C1 Vol.: 89
Chanel 7 Note Off - Duracao: 416340 Nota: C1 Vol.: 61
Chanel 7 Note On - Duracao: 416340 Nota: C1 Vol.: 61
Chanel 9 Note Off - Duracao: 416400 Nota: C1 Vol.: 71
Chanel 9 Note On - Duracao: 416400 Nota: C1 Vol.: 79
Chanel 10 Note Off - Duracao: 416400 Nota: C1 Vol.: 68
Chanel 10 Note On - Duracao: 416400 Nota: C1 Vol.: 71
Chanel 8 Note Off - Duracao: 416580 Nota: C1 Vol.: 59
Chanel 8 Note On - Duracao: 416580 Nota: C1 Vol.: 60
Chanel 2 Note Off - Duracao: 416640 Nota: C1 Vol.: 79
Chanel 2 Note On - Duracao: 416640 Nota: C1 Vol.: 79
Chanel 9 Note Off - Duracao: 416640 Nota: C1 Vol.: 79
Chanel 9 Note On - Duracao: 416640 Nota: C1 Vol.: 62
Chanel 1 Note Off - Duracao: 416700 Nota: C1 Vol.: 88
Chanel 1 Note On - Duracao: 416700 Nota: C1 Vol.: 85
Chanel 4 Note Off - Duracao: 416760 Nota: C1 Vol.: 60
Chanel 4 Note On - Duracao: 416760 Nota: C1 Vol.: 55
Chanel 2 Note Off - Duracao: 417120 Nota: C1 Vol.: 79
Chanel 2 Note On - Duracao: 417120 Nota: C1 Vol.: 87
Chanel 7 Note Off - Duracao: 417300 Nota: C1 Vol.: 61
Chanel 7 Note On - Duracao: 417300 Nota: C1 Vol.: 72
Chanel 2 Note Off - Duracao: 417360 Nota: C1 Vol.: 87
Chanel 2 Note On - Duracao: 417360 Nota: C1 Vol.: 78
Chanel 10 Note Off - Duracao: 417360 Nota: C1 Vol.: 71
Chanel 10 Note On - Duracao: 417360 Nota: C1 Vol.: 75
Chanel 3 Note Off - Duracao: 417420 Nota: C1 Vol.: 51
Chanel 3 Note On - Duracao: 417420 Nota: C1 Vol.: 74
Chanel 9 Note Off - Duracao: 417600 Nota: C1 Vol.: 62
Chanel 9 Note On - Duracao: 417600 Nota: C1 Vol.: 68
Chanel 1 Note Off - Duracao: 417660 Nota: C1 Vol.: 85
Chanel 1 Note On - Duracao: 417660 Nota: C1 Vol.: 80
Chanel 7 Note Off - Duracao: 417780 Nota: C1 Vol.: 72
Chanel 7 Note On - Duracao: 417780 Nota: C1 Vol.: 85
Chanel 2 Note Off - Duracao: 417840 Nota: C1 Vol.: 78
Chanel 2 Note On - Duracao: 417840 Nota: C1 Vol.: 78
Chanel 3 Note Off - Duracao: 417900 Nota: C1 Vol.: 74
Chanel 3 Note On - Duracao: 417900 Nota: C1 Vol.: 69
Chanel 7 Note Off - Duracao: 418020 Nota: C1 Vol.: 85
Chanel 7 Note On - Duracao: 418020 Nota: C1 Vol.: 79
Chanel 5 Note Off - Duracao: 418080 Nota: C1 Vol.: 67
Chanel 5 Note On - Duracao: 418080 Nota: C1 Vol.: 61
Chanel 6 Note Off - Duracao: 418200 Nota: C1 Vol.: 89
Chanel 6 Note On - Duracao: 418200 Nota: C1 Vol.: 89
Chanel 2 Note Off - Duracao: 418320 Nota: C1 Vol.: 78
Chanel 2 Note On - Duracao: 418320 Nota: C1 Vol.: 77
Chanel 10 Note Off - Duracao: 418320 Nota: C1 Vol.: 75
Chanel 10 Note On - Duracao: 418320 Nota: C1 Vol.: 79
Chanel 7 Note Off - Duracao: 418500 Nota: C1 Vol.: 79
Chanel 7 Note On - Duracao: 418500 Nota: C1 Vol.: 60
Chanel 8 Note Off - Duracao: 418500 Nota: C1 Vol.: 60
Chanel 8 Note On - Duracao: 418500 Nota: C1 Vol.: 60
Chanel 9 Note Off - Duracao: 418560 Nota: C1 Vol.: 68
Chanel 9 Note On - Duracao: 418560 Nota: C1 Vol.: 71
Chanel 1 Note Off - Duracao: 418620 Nota: C1 Vol.: 80
Chanel 1 Note On - Duracao: 418620 Nota: C1 Vol.: 86
Chanel 4 Note Off - Duracao: 418680 Nota: C1 Vol.: 55
Chanel 4 Note On - Duracao: 418680 Nota: C1 Vol.: 76
Chanel 2 Note Off - Duracao: 418800 Nota: C1 Vol.: 77
Chanel 2 Note On - Duracao: 418800 Nota: C1 Vol.: 77
Chanel 3 Note Off - Duracao: 418860 Nota: C1 Vol.: 69
Chanel 3 Note On - Duracao: 418860 Nota: C1 Vol.: 96
Chanel 3 Note Off - Duracao: 418980 Nota: C1 Vol.: 96
Chanel 3 Note On - Duracao: 418980 Nota: C1 Vol.: 99
Chanel 3 Note Off - Duracao: 419040 Nota: C1 Vol.: 99
Chanel 3 Note On - Duracao: 419040 Nota: C1 Vol.: 100
Chanel 3 Note Off - Duracao: 419100 Nota: C1 Vol.: 100
Chanel 3 Note On - Duracao: 419100 Nota: C1 Vol.: 100
Chanel 3 Note Off - Duracao: 419160 Nota: C1 Vol.: 100
Chanel 3 Note On - Duracao: 419160 Nota: C1 Vol.: 92
Chanel 3 Note Off - Duracao: 419280 Nota: C1 Vol.: 92
Chanel 3 Note On - Duracao: 419280 Nota: C1 Vol.: 73
Chanel 10 Note Off - Duracao: 419280 Nota: C1 Vol.: 79
Chanel 10 Note On - Duracao: 419280 Nota: C1 Vol.: 78
Chanel 7 Note Off - Duracao: 419460 Nota: C1 Vol.: 60
Chanel 7 Note On - Duracao: 419460 Nota: C1 Vol.: 98
Chanel 7 Note Off - Duracao: 419520 Nota: C1 Vol.: 98
Chanel 7 Note On - Duracao: 419520 Nota: C1 Vol.: 83
Chanel 9 Note Off - Duracao: 419520 Nota: C1 Vol.: 71
Chanel 9 Note On - Duracao: 419520 Nota: C1 Vol.: 63
Chanel 1 Note Off - Duracao: 419580 Nota: C1 Vol.: 86
Chanel 1 Note On - Duracao: 419580 Nota: C1 Vol.: 89
Chanel 4 Note Off - Duracao: 419640 Nota: C1 Vol.: 76
Chanel 4 Note On - Duracao: 419640 Nota: C1 Vol.: 77
Chanel 2 Note Off - Duracao: 419760 Nota: C1 Vol.: 77
Chanel 2 Note On - Duracao: 419760 Nota: C1 Vol.: 53
Chanel 3 Note Off - Duracao: 419760 Nota: C1 Vol.: 73
Chanel 3 Note On - Duracao: 419760 Nota: C1 Vol.: 43
Chanel 7 Note Off - Duracao: 419760 Nota: C1 Vol.: 83
Chanel 7 Note On - Duracao: 419760 Nota: C1 Vol.: 69
Chanel 10 Note Off - Duracao: 419760 Nota: C1 Vol.: 78
Chanel 10 Note On - Duracao: 419760 Nota: C1 Vol.: 78
Chanel 5 Note Off - Duracao: 420000 Nota: C1 Vol.: 61
Chanel 5 Note On - Duracao: 420000 Nota: C1 Vol.: 79
Chanel 1 Note Off - Duracao: 420060 Nota: C1 Vol.: 89
Chanel 1 Note On - Duracao: 420060 Nota: C1 Vol.: 78
Chanel 6 Note Off - Duracao: 420120 Nota: C1 Vol.: 89
Chanel 6 Note On - Duracao: 420120 Nota: C1 Vol.: 91
Chanel 10 Note Off - Duracao: 420240 Nota: C1 Vol.: 78
Chanel 10 Note On - Duracao: 420240 Nota: C1 Vol.: 85
Chanel 8 Note Off - Duracao: 420420 Nota: C1 Vol.: 60
Chanel 8 Note On - Duracao: 420420 Nota: C1 Vol.: 57
Chanel 10 Note Off - Duracao: 420480 Nota: C1 Vol.: 85
Chanel 10 Note On - Duracao: 420480 Nota: C1 Vol.: 84
Chanel 4 Note Off - Duracao: 420600 Nota: C1 Vol.: 77
Chanel 4 Note On - Duracao: 420600 Nota: C1 Vol.: 75
Chanel 7 Note Off - Duracao: 420720 Nota: C1 Vol.: 69
Chanel 7 Note On - Duracao: 420720 Nota: C1 Vol.: 64
Chanel 10 Note Off - Duracao: 420720 Nota: C1 Vol.: 84
Chanel 10 Note On - Duracao: 420720 Nota: C1 Vol.: 82
Chanel 5 Note Off - Duracao: 420960 Nota: C1 Vol.: 79
Chanel 5 Note On - Duracao: 420960 Nota: C1 Vol.: 86
Chanel 10 Note Off - Duracao: 420960 Nota: C1 Vol.: 82
Chanel 10 Note On - Duracao: 420960 Nota: C1 Vol.: 83
Chanel 1 Note Off - Duracao: 421020 Nota: C1 Vol.: 78
Chanel 1 Note On - Duracao: 421020 Nota: C1 Vol.: 70
Chanel 10 Note Off - Duracao: 421200 Nota: C1 Vol.: 83
Chanel 10 Note On - Duracao: 421200 Nota: C1 Vol.: 83
Chanel 5 Note Off - Duracao: 421440 Nota: C1 Vol.: 86
Chanel 5 Note On - Duracao: 421440 Nota: C1 Vol.: 83
Chanel 9 Note Off - Duracao: 421440 Nota: C1 Vol.: 63
Chanel 9 Note On - Duracao: 421440 Nota: C1 Vol.: 73
Chanel 10 Note Off - Duracao: 421440 Nota: C1 Vol.: 83
Chanel 10 Note On - Duracao: 421440 Nota: C1 Vol.: 87
Chanel 4 Note Off - Duracao: 421560 Nota: C1 Vol.: 75
Chanel 4 Note On - Duracao: 421560 Nota: C1 Vol.: 78
Chanel 10 Note Off - Duracao: 421680 Nota: C1 Vol.: 87
Chanel 10 Note On - Duracao: 421680 Nota: C1 Vol.: 95
Chanel 10 Note Off - Duracao: 421800 Nota: C1 Vol.: 95
Chanel 10 Note On - Duracao: 421800 Nota: C1 Vol.: 90
Chanel 5 Note Off - Duracao: 421920 Nota: C1 Vol.: 83
Chanel 5 Note On - Duracao: 421920 Nota: C1 Vol.: 75
Chanel 10 Note Off - Duracao: 421920 Nota: C1 Vol.: 90
Chanel 10 Note On - Duracao: 421920 Nota: C1 Vol.: 88
Chanel 6 Note Off - Duracao: 422040 Nota: C1 Vol.: 91
Chanel 6 Note On - Duracao: 422040 Nota: C1 Vol.: 92
Chanel 10 Note Off - Duracao: 422040 Nota: C1 Vol.: 88
Chanel 10 Note On - Duracao: 422040 Nota: C1 Vol.: 90
Chanel 10 Note Off - Duracao: 422160 Nota: C1 Vol.: 90
Chanel 10 Note On - Duracao: 422160 Nota: C1 Vol.: 91
Chanel 10 Note Off - Duracao: 422280 Nota: C1 Vol.: 91
Chanel 10 Note On - Duracao: 422280 Nota: C1 Vol.: 87
Chanel 8 Note Off - Duracao: 422340 Nota: C1 Vol.: 57
Chanel 8 Note On - Duracao: 422340 Nota: C1 Vol.: 59
Chanel 10 Note Off - Duracao: 422400 Nota: C1 Vol.: 87
Chanel 10 Note On - Duracao: 422400 Nota: C1 Vol.: 63
Chanel 4 Note Off - Duracao: 422520 Nota: C1 Vol.: 78
Chanel 4 Note On - Duracao: 422520 Nota: C1 Vol.: 75
Chanel 7 Note Off - Duracao: 422640 Nota: C1 Vol.: 64
Chanel 7 Note On - Duracao: 422640 Nota: C1 Vol.: 82
Chanel 5 Note Off - Duracao: 422880 Nota: C1 Vol.: 75
Chanel 5 Note On - Duracao: 422880 Nota: C1 Vol.: 71
Chanel 1 Note Off - Duracao: 422940 Nota: C1 Vol.: 70
Chanel 1 Note On - Duracao: 422940 Nota: C1 Vol.: 72
Chanel 7 Note Off - Duracao: 423120 Nota: C1 Vol.: 82
Chanel 7 Note On - Duracao: 423120 Nota: C1 Vol.: 82
Chanel 9 Note Off - Duracao: 423360 Nota: C1 Vol.: 73
Chanel 9 Note On - Duracao: 423360 Nota: C1 Vol.: 87
Chanel 10 Note Off - Duracao: 423360 Nota: C1 Vol.: 63
Chanel 10 Note On - Duracao: 423360 Nota: C1 Vol.: 60
Chanel 4 Note Off - Duracao: 423480 Nota: C1 Vol.: 75
Chanel 4 Note On - Duracao: 423480 Nota: C1 Vol.: 73
Chanel 2 Note Off - Duracao: 423600 Nota: C1 Vol.: 53
Chanel 2 Note On - Duracao: 423600 Nota: C1 Vol.: 84
Chanel 3 Note Off - Duracao: 423600 Nota: C1 Vol.: 43
Chanel 3 Note On - Duracao: 423600 Nota: C1 Vol.: 79
Chanel 7 Note Off - Duracao: 423600 Nota: C1 Vol.: 82
Chanel 7 Note On - Duracao: 423600 Nota: C1 Vol.: 76
Chanel 5 Note Off - Duracao: 423840 Nota: C1 Vol.: 71
Chanel 5 Note On - Duracao: 423840 Nota: C1 Vol.: 76
Chanel 6 Note Off - Duracao: 423960 Nota: C1 Vol.: 92
Chanel 6 Note On - Duracao: 423960 Nota: C1 Vol.: 92
Chanel 3 Note Off - Duracao: 424080 Nota: C1 Vol.: 79
Chanel 3 Note On - Duracao: 424080 Nota: C1 Vol.: 84
Chanel 7 Note Off - Duracao: 424080 Nota: C1 Vol.: 76
Chanel 7 Note On - Duracao: 424080 Nota: C1 Vol.: 80
Chanel 8 Note Off - Duracao: 424260 Nota: C1 Vol.: 59
Chanel 8 Note On - Duracao: 424260 Nota: C1 Vol.: 64
Chanel 9 Note Off - Duracao: 424320 Nota: C1 Vol.: 87
Chanel 9 Note On - Duracao: 424320 Nota: C1 Vol.: 76
Chanel 10 Note Off - Duracao: 424320 Nota: C1 Vol.: 60
Chanel 10 Note On - Duracao: 424320 Nota: C1 Vol.: 64
Chanel 4 Note Off - Duracao: 424440 Nota: C1 Vol.: 73
Chanel 4 Note On - Duracao: 424440 Nota: C1 Vol.: 75
Chanel 2 Note Off - Duracao: 424560 Nota: C1 Vol.: 84
Chanel 2 Note On - Duracao: 424560 Nota: C1 Vol.: 86
Chanel 3 Note Off - Duracao: 424560 Nota: C1 Vol.: 84
Chanel 3 Note On - Duracao: 424560 Nota: C1 Vol.: 84
Chanel 7 Note Off - Duracao: 424560 Nota: C1 Vol.: 80
Chanel 7 Note On - Duracao: 424560 Nota: C1 Vol.: 85
Chanel 5 Note Off - Duracao: 424800 Nota: C1 Vol.: 76
Chanel 5 Note On - Duracao: 424800 Nota: C1 Vol.: 71
Chanel 7 Note Off - Duracao: 424800 Nota: C1 Vol.: 85
Chanel 7 Note On - Duracao: 424800 Nota: C1 Vol.: 81
Chanel 1 Note Off - Duracao: 424860 Nota: C1 Vol.: 72
Chanel 1 Note On - Duracao: 424860 Nota: C1 Vol.: 74
Chanel 3 Note Off - Duracao: 425040 Nota: C1 Vol.: 84
Chanel 3 Note On - Duracao: 425040 Nota: C1 Vol.: 86
Chanel 7 Note Off - Duracao: 425040 Nota: C1 Vol.: 81
Chanel 7 Note On - Duracao: 425040 Nota: C1 Vol.: 80
Chanel 3 Note Off - Duracao: 425280 Nota: C1 Vol.: 86
Chanel 3 Note On - Duracao: 425280 Nota: C1 Vol.: 46
Chanel 7 Note Off - Duracao: 425280 Nota: C1 Vol.: 80
Chanel 7 Note On - Duracao: 425280 Nota: C1 Vol.: 95
Chanel 10 Note Off - Duracao: 425280 Nota: C1 Vol.: 64
Chanel 10 Note On - Duracao: 425280 Nota: C1 Vol.: 56
Chanel 4 Note Off - Duracao: 425400 Nota: C1 Vol.: 75
Chanel 4 Note On - Duracao: 425400 Nota: C1 Vol.: 78
Chanel 7 Note Off - Duracao: 425400 Nota: C1 Vol.: 95
Chanel 7 Note On - Duracao: 425400 Nota: C1 Vol.: 69
Chanel 5 Note Off - Duracao: 425760 Nota: C1 Vol.: 71
Chanel 5 Note On - Duracao: 425760 Nota: C1 Vol.: 67
Chanel 1 Note Off - Duracao: 425820 Nota: C1 Vol.: 74
Chanel 1 Note On - Duracao: 425820 Nota: C1 Vol.: 70
Chanel 6 Note Off - Duracao: 425880 Nota: C1 Vol.: 92
Chanel 6 Note On - Duracao: 425880 Nota: C1 Vol.: 88
Chanel 8 Note Off - Duracao: 426180 Nota: C1 Vol.: 64
Chanel 8 Note On - Duracao: 426180 Nota: C1 Vol.: 68
Chanel 9 Note Off - Duracao: 426240 Nota: C1 Vol.: 76
Chanel 9 Note On - Duracao: 426240 Nota: C1 Vol.: 64
Chanel 4 Note Off - Duracao: 426360 Nota: C1 Vol.: 78
Chanel 4 Note On - Duracao: 426360 Nota: C1 Vol.: 48
Chanel 7 Note Off - Duracao: 426360 Nota: C1 Vol.: 69
Chanel 7 Note On - Duracao: 426360 Nota: C1 Vol.: 72
Chanel 2 Note Off - Duracao: 426480 Nota: C1 Vol.: 86
Chanel 2 Note On - Duracao: 426480 Nota: C1 Vol.: 83
Chanel 8 Note Off - Duracao: 427140 Nota: C1 Vol.: 68
Chanel 8 Note On - Duracao: 427140 Nota: C1 Vol.: 62
Chanel 10 Note Off - Duracao: 427200 Nota: C1 Vol.: 56
Chanel 10 Note On - Duracao: 427200 Nota: C1 Vol.: 56
Chanel 7 Note Off - Duracao: 427320 Nota: C1 Vol.: 72
Chanel 7 Note On - Duracao: 427320 Nota: C1 Vol.: 79
Chanel 5 Note Off - Duracao: 427680 Nota: C1 Vol.: 67
Chanel 5 Note On - Duracao: 427680 Nota: C1 Vol.: 78
Chanel 1 Note Off - Duracao: 427740 Nota: C1 Vol.: 70
Chanel 1 Note On - Duracao: 427740 Nota: C1 Vol.: 70
Chanel 6 Note Off - Duracao: 427800 Nota: C1 Vol.: 88
Chanel 6 Note On - Duracao: 427800 Nota: C1 Vol.: 88
Chanel 9 Note Off - Duracao: 428160 Nota: C1 Vol.: 64
Chanel 9 Note On - Duracao: 428160 Nota: C1 Vol.: 69
Chanel 6 Note Off - Duracao: 428280 Nota: C1 Vol.: 88
Chanel 6 Note On - Duracao: 428280 Nota: C1 Vol.: 49
Chanel 7 Note Off - Duracao: 428280 Nota: C1 Vol.: 79
Chanel 7 Note On - Duracao: 428280 Nota: C1 Vol.: 75
Chanel 2 Note Off - Duracao: 428400 Nota: C1 Vol.: 83
Chanel 2 Note On - Duracao: 428400 Nota: C1 Vol.: 77
Chanel 5 Note Off - Duracao: 428640 Nota: C1 Vol.: 78
Chanel 5 Note On - Duracao: 428640 Nota: C1 Vol.: 77
Chanel 8 Note Off - Duracao: 429060 Nota: C1 Vol.: 62
Chanel 8 Note On - Duracao: 429060 Nota: C1 Vol.: 55
Chanel 3 Note Off - Duracao: 429120 Nota: C1 Vol.: 46
Chanel 3 Note On - Duracao: 429120 Nota: C1 Vol.: 47
Chanel 9 Note Off - Duracao: 429120 Nota: C1 Vol.: 69
Chanel 9 Note On - Duracao: 429120 Nota: C1 Vol.: 65
Chanel 10 Note Off - Duracao: 429120 Nota: C1 Vol.: 56
Chanel 10 Note On - Duracao: 429120 Nota: C1 Vol.: 60
Chanel 7 Note Off - Duracao: 429240 Nota: C1 Vol.: 75
Chanel 7 Note On - Duracao: 429240 Nota: C1 Vol.: 64
Chanel 5 Note Off - Duracao: 429600 Nota: C1 Vol.: 77
Chanel 5 Note On - Duracao: 429600 Nota: C1 Vol.: 68
Chanel 1 Note Off - Duracao: 429660 Nota: C1 Vol.: 70
Chanel 1 Note On - Duracao: 429660 Nota: C1 Vol.: 81
Chanel 1 Note Off - Duracao: 430140 Nota: C1 Vol.: 81
Chanel 1 Note On - Duracao: 430140 Nota: C1 Vol.: 78
Chanel 4 Note Off - Duracao: 430200 Nota: C1 Vol.: 48
Chanel 4 Note On - Duracao: 430200 Nota: C1 Vol.: 73
Chanel 6 Note Off - Duracao: 430200 Nota: C1 Vol.: 49
Chanel 6 Note On - Duracao: 430200 Nota: C1 Vol.: 52
Chanel 2 Note Off - Duracao: 430320 Nota: C1 Vol.: 77
Chanel 2 Note On - Duracao: 430320 Nota: C1 Vol.: 53
Chanel 1 Note Off - Duracao: 430620 Nota: C1 Vol.: 78
Chanel 1 Note On - Duracao: 430620 Nota: C1 Vol.: 89
Chanel 1 Note Off - Duracao: 430860 Nota: C1 Vol.: 89
Chanel 1 Note On - Duracao: 430860 Nota: C1 Vol.: 88
Chanel 8 Note Off - Duracao: 430980 Nota: C1 Vol.: 55
Chanel 8 Note On - Duracao: 430980 Nota: C1 Vol.: 57
Chanel 9 Note Off - Duracao: 431040 Nota: C1 Vol.: 65
Chanel 9 Note On - Duracao: 431040 Nota: C1 Vol.: 71
Chanel 10 Note Off - Duracao: 431040 Nota: C1 Vol.: 60
Chanel 10 Note On - Duracao: 431040 Nota: C1 Vol.: 79
Chanel 1 Note Off - Duracao: 431100 Nota: C1 Vol.: 88
Chanel 1 Note On - Duracao: 431100 Nota: C1 Vol.: 84
Chanel 4 Note Off - Duracao: 431160 Nota: C1 Vol.: 73
Chanel 4 Note On - Duracao: 431160 Nota: C1 Vol.: 75
Chanel 6 Note Off - Duracao: 431160 Nota: C1 Vol.: 52
Chanel 6 Note On - Duracao: 431160 Nota: C1 Vol.: 71
Chanel 7 Note Off - Duracao: 431160 Nota: C1 Vol.: 64
Chanel 7 Note On - Duracao: 431160 Nota: C1 Vol.: 67
Chanel 6 Note Off - Duracao: 431400 Nota: C1 Vol.: 71
Chanel 6 Note On - Duracao: 431400 Nota: C1 Vol.: 95
Chanel 6 Note Off - Duracao: 431460 Nota: C1 Vol.: 95
Chanel 6 Note On - Duracao: 431460 Nota: C1 Vol.: 99
Chanel 5 Note Off - Duracao: 431520 Nota: C1 Vol.: 68
Chanel 5 Note On - Duracao: 431520 Nota: C1 Vol.: 64
Chanel 6 Note Off - Duracao: 431520 Nota: C1 Vol.: 99
Chanel 6 Note On - Duracao: 431520 Nota: C1 Vol.: 97
Chanel 1 Note Off - Duracao: 431580 Nota: C1 Vol.: 84
Chanel 1 Note On - Duracao: 431580 Nota: C1 Vol.: 82
Chanel 6 Note Off - Duracao: 431640 Nota: C1 Vol.: 97
Chanel 6 Note On - Duracao: 431640 Nota: C1 Vol.: 95
Chanel 6 Note Off - Duracao: 431760 Nota: C1 Vol.: 95
Chanel 6 Note On - Duracao: 431760 Nota: C1 Vol.: 49
Chanel 10 Note Off - Duracao: 432000 Nota: C1 Vol.: 79
Chanel 10 Note On - Duracao: 432000 Nota: C1 Vol.: 87
Chanel 4 Note Off - Duracao: 432120 Nota: C1 Vol.: 75
Chanel 4 Note On - Duracao: 432120 Nota: C1 Vol.: 50
Chanel 10 Note Off - Duracao: 432480 Nota: C1 Vol.: 87
Chanel 10 Note On - Duracao: 432480 Nota: C1 Vol.: 84
Chanel 1 Note Off - Duracao: 432540 Nota: C1 Vol.: 82
Chanel 1 Note On - Duracao: 432540 Nota: C1 Vol.: 88
Chanel 8 Note Off - Duracao: 432900 Nota: C1 Vol.: 57
Chanel 8 Note On - Duracao: 432900 Nota: C1 Vol.: 66
Chanel 3 Note Off - Duracao: 432960 Nota: C1 Vol.: 47
Chanel 3 Note On - Duracao: 432960 Nota: C1 Vol.: 45
Chanel 9 Note Off - Duracao: 432960 Nota: C1 Vol.: 71
Chanel 9 Note On - Duracao: 432960 Nota: C1 Vol.: 78
Chanel 10 Note Off - Duracao: 432960 Nota: C1 Vol.: 84
Chanel 10 Note On - Duracao: 432960 Nota: C1 Vol.: 87
Chanel 1 Note Off - Duracao: 433020 Nota: C1 Vol.: 88
Chanel 1 Note On - Duracao: 433020 Nota: C1 Vol.: 76
Chanel 7 Note Off - Duracao: 433080 Nota: C1 Vol.: 67
Chanel 7 Note On - Duracao: 433080 Nota: C1 Vol.: 62
Chanel 5 Note Off - Duracao: 433440 Nota: C1 Vol.: 64
Chanel 5 Note On - Duracao: 433440 Nota: C1 Vol.: 58
Chanel 10 Note Off - Duracao: 433440 Nota: C1 Vol.: 87
Chanel 10 Note On - Duracao: 433440 Nota: C1 Vol.: 81
Chanel 6 Note Off - Duracao: 433680 Nota: C1 Vol.: 49
Chanel 6 Note On - Duracao: 433680 Nota: C1 Vol.: 48
Chanel 9 Note Off - Duracao: 433920 Nota: C1 Vol.: 78
Chanel 9 Note On - Duracao: 433920 Nota: C1 Vol.: 86
Chanel 10 Note Off - Duracao: 433920 Nota: C1 Vol.: 81
Chanel 10 Note On - Duracao: 433920 Nota: C1 Vol.: 61
Chanel 1 Note Off - Duracao: 433980 Nota: C1 Vol.: 76
Chanel 1 Note On - Duracao: 433980 Nota: C1 Vol.: 79
Chanel 2 Note Off - Duracao: 434160 Nota: C1 Vol.: 53
Chanel 2 Note On - Duracao: 434160 Nota: C1 Vol.: 48
Chanel 9 Note Off - Duracao: 434400 Nota: C1 Vol.: 86
Chanel 9 Note On - Duracao: 434400 Nota: C1 Vol.: 78
Chanel 1 Note Off - Duracao: 434460 Nota: C1 Vol.: 79
Chanel 1 Note On - Duracao: 434460 Nota: C1 Vol.: 90
Chanel 1 Note Off - Duracao: 434700 Nota: C1 Vol.: 90
Chanel 1 Note On - Duracao: 434700 Nota: C1 Vol.: 96
Chanel 1 Note Off - Duracao: 434820 Nota: C1 Vol.: 96
Chanel 1 Note On - Duracao: 434820 Nota: C1 Vol.: 96
Chanel 8 Note Off - Duracao: 434820 Nota: C1 Vol.: 66
Chanel 8 Note On - Duracao: 434820 Nota: C1 Vol.: 74
Chanel 1 Note Off - Duracao: 434940 Nota: C1 Vol.: 96
Chanel 1 Note On - Duracao: 434940 Nota: C1 Vol.: 92
Chanel 7 Note Off - Duracao: 435000 Nota: C1 Vol.: 62
Chanel 7 Note On - Duracao: 435000 Nota: C1 Vol.: 62
Chanel 1 Note Off - Duracao: 435060 Nota: C1 Vol.: 92
Chanel 1 Note On - Duracao: 435060 Nota: C1 Vol.: 95
Chanel 1 Note Off - Duracao: 435180 Nota: C1 Vol.: 95
Chanel 1 Note On - Duracao: 435180 Nota: C1 Vol.: 92
Chanel 1 Note Off - Duracao: 435300 Nota: C1 Vol.: 92
Chanel 1 Note On - Duracao: 435300 Nota: C1 Vol.: 96
Chanel 1 Note Off - Duracao: 435360 Nota: C1 Vol.: 96
Chanel 1 Note On - Duracao: 435360 Nota: C1 Vol.: 97
Chanel 5 Note Off - Duracao: 435360 Nota: C1 Vol.: 58
Chanel 5 Note On - Duracao: 435360 Nota: C1 Vol.: 59
Chanel 9 Note Off - Duracao: 435360 Nota: C1 Vol.: 78
Chanel 9 Note On - Duracao: 435360 Nota: C1 Vol.: 72
Chanel 1 Note Off - Duracao: 435420 Nota: C1 Vol.: 97
Chanel 1 Note On - Duracao: 435420 Nota: C1 Vol.: 94
Chanel 1 Note Off - Duracao: 435540 Nota: C1 Vol.: 94
Chanel 1 Note On - Duracao: 435540 Nota: C1 Vol.: 53
Chanel 6 Note Off - Duracao: 435600 Nota: C1 Vol.: 48
Chanel 6 Note On - Duracao: 435600 Nota: C1 Vol.: 75
Chanel 8 Note Off - Duracao: 435780 Nota: C1 Vol.: 74
Chanel 8 Note On - Duracao: 435780 Nota: C1 Vol.: 75
Chanel 6 Note Off - Duracao: 435840 Nota: C1 Vol.: 75
Chanel 6 Note On - Duracao: 435840 Nota: C1 Vol.: 86
Chanel 10 Note Off - Duracao: 435840 Nota: C1 Vol.: 61
Chanel 10 Note On - Duracao: 435840 Nota: C1 Vol.: 59
Chanel 4 Note Off - Duracao: 435960 Nota: C1 Vol.: 50
Chanel 4 Note On - Duracao: 435960 Nota: C1 Vol.: 49
Chanel 6 Note Off - Duracao: 436080 Nota: C1 Vol.: 86
Chanel 6 Note On - Duracao: 436080 Nota: C1 Vol.: 92
Chanel 6 Note Off - Duracao: 436200 Nota: C1 Vol.: 92
Chanel 6 Note On - Duracao: 436200 Nota: C1 Vol.: 88
Chanel 6 Note Off - Duracao: 436320 Nota: C1 Vol.: 88
Chanel 6 Note On - Duracao: 436320 Nota: C1 Vol.: 89
Chanel 9 Note Off - Duracao: 436320 Nota: C1 Vol.: 72
Chanel 9 Note On - Duracao: 436320 Nota: C1 Vol.: 72
Chanel 6 Note Off - Duracao: 436440 Nota: C1 Vol.: 89
Chanel 6 Note On - Duracao: 436440 Nota: C1 Vol.: 90
Chanel 6 Note Off - Duracao: 436560 Nota: C1 Vol.: 90
Chanel 6 Note On - Duracao: 436560 Nota: C1 Vol.: 86
Chanel 6 Note Off - Duracao: 436680 Nota: C1 Vol.: 86
Chanel 6 Note On - Duracao: 436680 Nota: C1 Vol.: 90
Chanel 8 Note Off - Duracao: 436740 Nota: C1 Vol.: 75
Chanel 8 Note On - Duracao: 436740 Nota: C1 Vol.: 76
Chanel 3 Note Off - Duracao: 436800 Nota: C1 Vol.: 45
Chanel 3 Note On - Duracao: 436800 Nota: C1 Vol.: 69
Chanel 6 Note Off - Duracao: 436800 Nota: C1 Vol.: 90
Chanel 6 Note On - Duracao: 436800 Nota: C1 Vol.: 96
Chanel 6 Note Off - Duracao: 436860 Nota: C1 Vol.: 96
Chanel 6 Note On - Duracao: 436860 Nota: C1 Vol.: 100
Chanel 6 Note Off - Duracao: 436920 Nota: C1 Vol.: 100
Chanel 6 Note On - Duracao: 436920 Nota: C1 Vol.: 100
Chanel 7 Note Off - Duracao: 436920 Nota: C1 Vol.: 62
Chanel 7 Note On - Duracao: 436920 Nota: C1 Vol.: 61
Chanel 6 Note Off - Duracao: 436980 Nota: C1 Vol.: 100
Chanel 6 Note On - Duracao: 436980 Nota: C1 Vol.: 99
Chanel 6 Note Off - Duracao: 437040 Nota: C1 Vol.: 99
Chanel 6 Note On - Duracao: 437040 Nota: C1 Vol.: 100
Chanel 6 Note Off - Duracao: 437100 Nota: C1 Vol.: 100
Chanel 6 Note On - Duracao: 437100 Nota: C1 Vol.: 98
Chanel 6 Note Off - Duracao: 437160 Nota: C1 Vol.: 98
Chanel 6 Note On - Duracao: 437160 Nota: C1 Vol.: 99
Chanel 6 Note Off - Duracao: 437220 Nota: C1 Vol.: 99
Chanel 6 Note On - Duracao: 437220 Nota: C1 Vol.: 96
Chanel 3 Note Off - Duracao: 437280 Nota: C1 Vol.: 69
Chanel 3 Note On - Duracao: 437280 Nota: C1 Vol.: 99
Chanel 5 Note Off - Duracao: 437280 Nota: C1 Vol.: 59
Chanel 5 Note On - Duracao: 437280 Nota: C1 Vol.: 69
Chanel 6 Note Off - Duracao: 437280 Nota: C1 Vol.: 96
Chanel 6 Note On - Duracao: 437280 Nota: C1 Vol.: 89
Chanel 9 Note Off - Duracao: 437280 Nota: C1 Vol.: 72
Chanel 9 Note On - Duracao: 437280 Nota: C1 Vol.: 67
Chanel 3 Note Off - Duracao: 437340 Nota: C1 Vol.: 99
Chanel 3 Note On - Duracao: 437340 Nota: C1 Vol.: 98
Chanel 3 Note Off - Duracao: 437400 Nota: C1 Vol.: 98
Chanel 3 Note On - Duracao: 437400 Nota: C1 Vol.: 97
Chanel 6 Note Off - Duracao: 437400 Nota: C1 Vol.: 89
Chanel 6 Note On - Duracao: 437400 Nota: C1 Vol.: 49
Chanel 3 Note Off - Duracao: 437460 Nota: C1 Vol.: 97
Chanel 3 Note On - Duracao: 437460 Nota: C1 Vol.: 63
Chanel 8 Note Off - Duracao: 437700 Nota: C1 Vol.: 76
Chanel 8 Note On - Duracao: 437700 Nota: C1 Vol.: 73
Chanel 10 Note Off - Duracao: 437760 Nota: C1 Vol.: 59
Chanel 10 Note On - Duracao: 437760 Nota: C1 Vol.: 63
Chanel 2 Note Off - Duracao: 438000 Nota: C1 Vol.: 48
Chanel 2 Note On - Duracao: 438000 Nota: C1 Vol.: 44
Chanel 5 Note Off - Duracao: 438240 Nota: C1 Vol.: 69
Chanel 5 Note On - Duracao: 438240 Nota: C1 Vol.: 54
Chanel 9 Note Off - Duracao: 438240 Nota: C1 Vol.: 67
Chanel 9 Note On - Duracao: 438240 Nota: C1 Vol.: 69
Chanel 3 Note Off - Duracao: 438420 Nota: C1 Vol.: 63
Chanel 3 Note On - Duracao: 438420 Nota: C1 Vol.: 80
Chanel 3 Note Off - Duracao: 438660 Nota: C1 Vol.: 80
Chanel 3 Note On - Duracao: 438660 Nota: C1 Vol.: 97
Chanel 8 Note Off - Duracao: 438660 Nota: C1 Vol.: 73
Chanel 8 Note On - Duracao: 438660 Nota: C1 Vol.: 68
Chanel 3 Note Off - Duracao: 438720 Nota: C1 Vol.: 97
Chanel 3 Note On - Duracao: 438720 Nota: C1 Vol.: 82
Chanel 9 Note Off - Duracao: 438720 Nota: C1 Vol.: 69
Chanel 9 Note On - Duracao: 438720 Nota: C1 Vol.: 61
Chanel 10 Note Off - Duracao: 438720 Nota: C1 Vol.: 63
Chanel 10 Note On - Duracao: 438720 Nota: C1 Vol.: 66
Chanel 7 Note Off - Duracao: 438840 Nota: C1 Vol.: 61
Chanel 7 Note On - Duracao: 438840 Nota: C1 Vol.: 63
Chanel 3 Note Off - Duracao: 438960 Nota: C1 Vol.: 82
Chanel 3 Note On - Duracao: 438960 Nota: C1 Vol.: 84
Chanel 3 Note Off - Duracao: 439200 Nota: C1 Vol.: 84
Chanel 3 Note On - Duracao: 439200 Nota: C1 Vol.: 71
Chanel 6 Note Off - Duracao: 439320 Nota: C1 Vol.: 49
Chanel 6 Note On - Duracao: 439320 Nota: C1 Vol.: 85
Chanel 1 Note Off - Duracao: 439380 Nota: C1 Vol.: 53
Chanel 1 Note On - Duracao: 439380 Nota: C1 Vol.: 78
Chanel 6 Note Off - Duracao: 439560 Nota: C1 Vol.: 85
Chanel 6 Note On - Duracao: 439560 Nota: C1 Vol.: 95
Chanel 6 Note Off - Duracao: 439620 Nota: C1 Vol.: 95
Chanel 6 Note On - Duracao: 439620 Nota: C1 Vol.: 98
Chanel 3 Note Off - Duracao: 439680 Nota: C1 Vol.: 71
Chanel 3 Note On - Duracao: 439680 Nota: C1 Vol.: 78
Chanel 6 Note Off - Duracao: 439680 Nota: C1 Vol.: 98
Chanel 6 Note On - Duracao: 439680 Nota: C1 Vol.: 98
Chanel 9 Note Off - Duracao: 439680 Nota: C1 Vol.: 61
Chanel 9 Note On - Duracao: 439680 Nota: C1 Vol.: 71
Chanel 10 Note Off - Duracao: 439680 Nota: C1 Vol.: 66
Chanel 10 Note On - Duracao: 439680 Nota: C1 Vol.: 71
Chanel 6 Note Off - Duracao: 439740 Nota: C1 Vol.: 98
Chanel 6 Note On - Duracao: 439740 Nota: C1 Vol.: 96
Chanel 4 Note Off - Duracao: 439800 Nota: C1 Vol.: 49
Chanel 4 Note On - Duracao: 439800 Nota: C1 Vol.: 85
Chanel 6 Note Off - Duracao: 439800 Nota: C1 Vol.: 96
Chanel 6 Note On - Duracao: 439800 Nota: C1 Vol.: 97
Chanel 6 Note Off - Duracao: 439860 Nota: C1 Vol.: 97
Chanel 6 Note On - Duracao: 439860 Nota: C1 Vol.: 95
Chanel 6 Note Off - Duracao: 439980 Nota: C1 Vol.: 95
Chanel 6 Note On - Duracao: 439980 Nota: C1 Vol.: 91
Chanel 4 Note Off - Duracao: 440040 Nota: C1 Vol.: 85
Chanel 4 Note On - Duracao: 440040 Nota: C1 Vol.: 81
Chanel 6 Note Off - Duracao: 440220 Nota: C1 Vol.: 91
Chanel 6 Note On - Duracao: 440220 Nota: C1 Vol.: 91
Chanel 4 Note Off - Duracao: 440280 Nota: C1 Vol.: 81
Chanel 4 Note On - Duracao: 440280 Nota: C1 Vol.: 81
Chanel 1 Note Off - Duracao: 440340 Nota: C1 Vol.: 78
Chanel 1 Note On - Duracao: 440340 Nota: C1 Vol.: 80
Chanel 6 Note Off - Duracao: 440460 Nota: C1 Vol.: 91
Chanel 6 Note On - Duracao: 440460 Nota: C1 Vol.: 82
Chanel 4 Note Off - Duracao: 440520 Nota: C1 Vol.: 81
Chanel 4 Note On - Duracao: 440520 Nota: C1 Vol.: 69
Chanel 8 Note Off - Duracao: 440580 Nota: C1 Vol.: 68
Chanel 8 Note On - Duracao: 440580 Nota: C1 Vol.: 72
Chanel 3 Note Off - Duracao: 440640 Nota: C1 Vol.: 78
Chanel 3 Note On - Duracao: 440640 Nota: C1 Vol.: 79
Chanel 9 Note Off - Duracao: 440640 Nota: C1 Vol.: 71
Chanel 9 Note On - Duracao: 440640 Nota: C1 Vol.: 69
Chanel 10 Note Off - Duracao: 440640 Nota: C1 Vol.: 71
Chanel 10 Note On - Duracao: 440640 Nota: C1 Vol.: 92
Chanel 7 Note Off - Duracao: 440760 Nota: C1 Vol.: 63
Chanel 7 Note On - Duracao: 440760 Nota: C1 Vol.: 62
Chanel 10 Note Off - Duracao: 440760 Nota: C1 Vol.: 92
Chanel 10 Note On - Duracao: 440760 Nota: C1 Vol.: 92
Chanel 10 Note Off - Duracao: 440880 Nota: C1 Vol.: 92
Chanel 10 Note On - Duracao: 440880 Nota: C1 Vol.: 80
Chanel 6 Note Off - Duracao: 440940 Nota: C1 Vol.: 82
Chanel 6 Note On - Duracao: 440940 Nota: C1 Vol.: 71
Chanel 4 Note Off - Duracao: 441000 Nota: C1 Vol.: 69
Chanel 4 Note On - Duracao: 441000 Nota: C1 Vol.: 41
Chanel 10 Note Off - Duracao: 441360 Nota: C1 Vol.: 80
Chanel 10 Note On - Duracao: 441360 Nota: C1 Vol.: 72
Chanel 6 Note Off - Duracao: 441420 Nota: C1 Vol.: 71
Chanel 6 Note On - Duracao: 441420 Nota: C1 Vol.: 69
Chanel 8 Note Off - Duracao: 441540 Nota: C1 Vol.: 72
Chanel 8 Note On - Duracao: 441540 Nota: C1 Vol.: 54
Chanel 3 Note Off - Duracao: 441600 Nota: C1 Vol.: 79
Chanel 3 Note On - Duracao: 441600 Nota: C1 Vol.: 67
Chanel 2 Note Off - Duracao: 441840 Nota: C1 Vol.: 44
Chanel 2 Note On - Duracao: 441840 Nota: C1 Vol.: 54
Chanel 6 Note Off - Duracao: 441900 Nota: C1 Vol.: 69
Chanel 6 Note On - Duracao: 441900 Nota: C1 Vol.: 76
Chanel 5 Note Off - Duracao: 442080 Nota: C1 Vol.: 54
Chanel 5 Note On - Duracao: 442080 Nota: C1 Vol.: 59
Chanel 1 Note Off - Duracao: 442260 Nota: C1 Vol.: 80
Chanel 1 Note On - Duracao: 442260 Nota: C1 Vol.: 83
Chanel 10 Note Off - Duracao: 442320 Nota: C1 Vol.: 72
Chanel 10 Note On - Duracao: 442320 Nota: C1 Vol.: 65
Chanel 6 Note Off - Duracao: 442380 Nota: C1 Vol.: 76
Chanel 6 Note On - Duracao: 442380 Nota: C1 Vol.: 86
Chanel 9 Note Off - Duracao: 442560 Nota: C1 Vol.: 69
Chanel 9 Note On - Duracao: 442560 Nota: C1 Vol.: 69
Chanel 6 Note Off - Duracao: 442620 Nota: C1 Vol.: 86
Chanel 6 Note On - Duracao: 442620 Nota: C1 Vol.: 70
Chanel 7 Note Off - Duracao: 442680 Nota: C1 Vol.: 62
Chanel 7 Note On - Duracao: 442680 Nota: C1 Vol.: 66
Chanel 1 Note Off - Duracao: 443220 Nota: C1 Vol.: 83
Chanel 1 Note On - Duracao: 443220 Nota: C1 Vol.: 71
Chanel 10 Note Off - Duracao: 443280 Nota: C1 Vol.: 65
Chanel 10 Note On - Duracao: 443280 Nota: C1 Vol.: 60
Chanel 8 Note Off - Duracao: 443460 Nota: C1 Vol.: 54
Chanel 8 Note On - Duracao: 443460 Nota: C1 Vol.: 72
Chanel 3 Note Off - Duracao: 443520 Nota: C1 Vol.: 67
Chanel 3 Note On - Duracao: 443520 Nota: C1 Vol.: 49
Chanel 6 Note Off - Duracao: 443580 Nota: C1 Vol.: 70
Chanel 6 Note On - Duracao: 443580 Nota: C1 Vol.: 75
Chanel 8 Note Off - Duracao: 443940 Nota: C1 Vol.: 72
Chanel 8 Note On - Duracao: 443940 Nota: C1 Vol.: 84
Chanel 5 Note Off - Duracao: 444000 Nota: C1 Vol.: 59
Chanel 5 Note On - Duracao: 444000 Nota: C1 Vol.: 65
Chanel 8 Note Off - Duracao: 444180 Nota: C1 Vol.: 84
Chanel 8 Note On - Duracao: 444180 Nota: C1 Vol.: 88
Chanel 8 Note Off - Duracao: 444300 Nota: C1 Vol.: 88
Chanel 8 Note On - Duracao: 444300 Nota: C1 Vol.: 83
Chanel 6 Note Off - Duracao: 444540 Nota: C1 Vol.: 75
Chanel 6 Note On - Duracao: 444540 Nota: C1 Vol.: 73
Chanel 8 Note Off - Duracao: 444540 Nota: C1 Vol.: 83
Chanel 8 Note On - Duracao: 444540 Nota: C1 Vol.: 90
Chanel 7 Note Off - Duracao: 444600 Nota: C1 Vol.: 66
Chanel 7 Note On - Duracao: 444600 Nota: C1 Vol.: 71
Chanel 8 Note Off - Duracao: 444660 Nota: C1 Vol.: 90
Chanel 8 Note On - Duracao: 444660 Nota: C1 Vol.: 94
Chanel 8 Note Off - Duracao: 444780 Nota: C1 Vol.: 94
Chanel 8 Note On - Duracao: 444780 Nota: C1 Vol.: 94
Chanel 4 Note Off - Duracao: 444840 Nota: C1 Vol.: 41
Chanel 4 Note On - Duracao: 444840 Nota: C1 Vol.: 47
Chanel 8 Note Off - Duracao: 444900 Nota: C1 Vol.: 94
Chanel 8 Note On - Duracao: 444900 Nota: C1 Vol.: 95
Chanel 5 Note Off - Duracao: 444960 Nota: C1 Vol.: 65
Chanel 5 Note On - Duracao: 444960 Nota: C1 Vol.: 89
Chanel 8 Note Off - Duracao: 445020 Nota: C1 Vol.: 95
Chanel 8 Note On - Duracao: 445020 Nota: C1 Vol.: 88
Chanel 1 Note Off - Duracao: 445140 Nota: C1 Vol.: 71
Chanel 1 Note On - Duracao: 445140 Nota: C1 Vol.: 58
Chanel 8 Note Off - Duracao: 445140 Nota: C1 Vol.: 88
Chanel 8 Note On - Duracao: 445140 Nota: C1 Vol.: 87
Chanel 5 Note Off - Duracao: 445200 Nota: C1 Vol.: 89
Chanel 5 Note On - Duracao: 445200 Nota: C1 Vol.: 98
Chanel 10 Note Off - Duracao: 445200 Nota: C1 Vol.: 60
Chanel 10 Note On - Duracao: 445200 Nota: C1 Vol.: 67
Chanel 5 Note Off - Duracao: 445320 Nota: C1 Vol.: 98
Chanel 5 Note On - Duracao: 445320 Nota: C1 Vol.: 94
Chanel 8 Note Off - Duracao: 445380 Nota: C1 Vol.: 87
Chanel 8 Note On - Duracao: 445380 Nota: C1 Vol.: 92
Chanel 5 Note Off - Duracao: 445440 Nota: C1 Vol.: 94
Chanel 5 Note On - Duracao: 445440 Nota: C1 Vol.: 87
Chanel 8 Note Off - Duracao: 445500 Nota: C1 Vol.: 92
Chanel 8 Note On - Duracao: 445500 Nota: C1 Vol.: 98
Chanel 5 Note Off - Duracao: 445560 Nota: C1 Vol.: 87
Chanel 5 Note On - Duracao: 445560 Nota: C1 Vol.: 75
Chanel 7 Note Off - Duracao: 445560 Nota: C1 Vol.: 71
Chanel 7 Note On - Duracao: 445560 Nota: C1 Vol.: 68
Chanel 8 Note Off - Duracao: 445560 Nota: C1 Vol.: 98
Chanel 8 Note On - Duracao: 445560 Nota: C1 Vol.: 98
Chanel 8 Note Off - Duracao: 445620 Nota: C1 Vol.: 98
Chanel 8 Note On - Duracao: 445620 Nota: C1 Vol.: 98
Chanel 2 Note Off - Duracao: 445680 Nota: C1 Vol.: 54
Chanel 2 Note On - Duracao: 445680 Nota: C1 Vol.: 78
Chanel 8 Note Off - Duracao: 445680 Nota: C1 Vol.: 98
Chanel 8 Note On - Duracao: 445680 Nota: C1 Vol.: 96
Chanel 8 Note Off - Duracao: 445800 Nota: C1 Vol.: 96
Chanel 8 Note On - Duracao: 445800 Nota: C1 Vol.: 85
Chanel 5 Note Off - Duracao: 446040 Nota: C1 Vol.: 75
Chanel 5 Note On - Duracao: 446040 Nota: C1 Vol.: 44
Chanel 10 Note Off - Duracao: 446160 Nota: C1 Vol.: 67
Chanel 10 Note On - Duracao: 446160 Nota: C1 Vol.: 72
Chanel 8 Note Off - Duracao: 446280 Nota: C1 Vol.: 85
Chanel 8 Note On - Duracao: 446280 Nota: C1 Vol.: 90
Chanel 9 Note Off - Duracao: 446400 Nota: C1 Vol.: 69
Chanel 9 Note On - Duracao: 446400 Nota: C1 Vol.: 72
Chanel 6 Note Off - Duracao: 446460 Nota: C1 Vol.: 73
Chanel 6 Note On - Duracao: 446460 Nota: C1 Vol.: 84
Chanel 2 Note Off - Duracao: 446640 Nota: C1 Vol.: 78
Chanel 2 Note On - Duracao: 446640 Nota: C1 Vol.: 79
Chanel 4 Note Off - Duracao: 446760 Nota: C1 Vol.: 47
Chanel 4 Note On - Duracao: 446760 Nota: C1 Vol.: 55
Chanel 8 Note Off - Duracao: 446760 Nota: C1 Vol.: 90
Chanel 8 Note On - Duracao: 446760 Nota: C1 Vol.: 87
Chanel 6 Note Off - Duracao: 446940 Nota: C1 Vol.: 84
Chanel 6 Note On - Duracao: 446940 Nota: C1 Vol.: 72
Chanel 10 Note Off - Duracao: 447120 Nota: C1 Vol.: 72
Chanel 10 Note On - Duracao: 447120 Nota: C1 Vol.: 71
Chanel 8 Note Off - Duracao: 447240 Nota: C1 Vol.: 87
Chanel 8 Note On - Duracao: 447240 Nota: C1 Vol.: 85
Chanel 3 Note Off - Duracao: 447360 Nota: C1 Vol.: 49
Chanel 3 Note On - Duracao: 447360 Nota: C1 Vol.: 70
Chanel 7 Note Off - Duracao: 447480 Nota: C1 Vol.: 68
Chanel 7 Note On - Duracao: 447480 Nota: C1 Vol.: 69
Chanel 2 Note Off - Duracao: 447600 Nota: C1 Vol.: 79
Chanel 2 Note On - Duracao: 447600 Nota: C1 Vol.: 71
Chanel 4 Note Off - Duracao: 447720 Nota: C1 Vol.: 55
Chanel 4 Note On - Duracao: 447720 Nota: C1 Vol.: 56
Chanel 8 Note Off - Duracao: 447720 Nota: C1 Vol.: 85
Chanel 8 Note On - Duracao: 447720 Nota: C1 Vol.: 68
Chanel 5 Note Off - Duracao: 447960 Nota: C1 Vol.: 44
Chanel 5 Note On - Duracao: 447960 Nota: C1 Vol.: 46
Chanel 10 Note Off - Duracao: 448080 Nota: C1 Vol.: 71
Chanel 10 Note On - Duracao: 448080 Nota: C1 Vol.: 72
Chanel 4 Note Off - Duracao: 448200 Nota: C1 Vol.: 56
Chanel 4 Note On - Duracao: 448200 Nota: C1 Vol.: 53
Chanel 7 Note Off - Duracao: 448440 Nota: C1 Vol.: 69
Chanel 7 Note On - Duracao: 448440 Nota: C1 Vol.: 65
Chanel 4 Note Off - Duracao: 448680 Nota: C1 Vol.: 53
Chanel 4 Note On - Duracao: 448680 Nota: C1 Vol.: 54
Chanel 8 Note Off - Duracao: 448680 Nota: C1 Vol.: 68
Chanel 8 Note On - Duracao: 448680 Nota: C1 Vol.: 62
Chanel 6 Note Off - Duracao: 448860 Nota: C1 Vol.: 72
Chanel 6 Note On - Duracao: 448860 Nota: C1 Vol.: 80
Chanel 5 Note Off - Duracao: 448920 Nota: C1 Vol.: 46
Chanel 5 Note On - Duracao: 448920 Nota: C1 Vol.: 43
Chanel 1 Note Off - Duracao: 448980 Nota: C1 Vol.: 58
Chanel 1 Note On - Duracao: 448980 Nota: C1 Vol.: 87
Chanel 10 Note Off - Duracao: 449040 Nota: C1 Vol.: 72
Chanel 10 Note On - Duracao: 449040 Nota: C1 Vol.: 71
Chanel 4 Note Off - Duracao: 449160 Nota: C1 Vol.: 54
Chanel 4 Note On - Duracao: 449160 Nota: C1 Vol.: 56
Chanel 3 Note Off - Duracao: 449280 Nota: C1 Vol.: 70
Chanel 3 Note On - Duracao: 449280 Nota: C1 Vol.: 81
Chanel 7 Note Off - Duracao: 449400 Nota: C1 Vol.: 65
Chanel 7 Note On - Duracao: 449400 Nota: C1 Vol.: 55
Chanel 1 Note Off - Duracao: 449460 Nota: C1 Vol.: 87
Chanel 1 Note On - Duracao: 449460 Nota: C1 Vol.: 80
Chanel 2 Note Off - Duracao: 449520 Nota: C1 Vol.: 71
Chanel 2 Note On - Duracao: 449520 Nota: C1 Vol.: 64
Chanel 4 Note Off - Duracao: 449640 Nota: C1 Vol.: 56
Chanel 4 Note On - Duracao: 449640 Nota: C1 Vol.: 54
Chanel 8 Note Off - Duracao: 449640 Nota: C1 Vol.: 62
Chanel 8 Note On - Duracao: 449640 Nota: C1 Vol.: 61
Chanel 6 Note Off - Duracao: 449820 Nota: C1 Vol.: 80
Chanel 6 Note On - Duracao: 449820 Nota: C1 Vol.: 83
Chanel 10 Note Off - Duracao: 450000 Nota: C1 Vol.: 71
Chanel 10 Note On - Duracao: 450000 Nota: C1 Vol.: 73
Chanel 4 Note Off - Duracao: 450120 Nota: C1 Vol.: 54
Chanel 4 Note On - Duracao: 450120 Nota: C1 Vol.: 57
Chanel 9 Note Off - Duracao: 450240 Nota: C1 Vol.: 72
Chanel 9 Note On - Duracao: 450240 Nota: C1 Vol.: 90
Chanel 1 Note Off - Duracao: 450420 Nota: C1 Vol.: 80
Chanel 1 Note On - Duracao: 450420 Nota: C1 Vol.: 94
Chanel 4 Note Off - Duracao: 450600 Nota: C1 Vol.: 57
Chanel 4 Note On - Duracao: 450600 Nota: C1 Vol.: 50
Chanel 8 Note Off - Duracao: 450600 Nota: C1 Vol.: 61
Chanel 8 Note On - Duracao: 450600 Nota: C1 Vol.: 79
Chanel 6 Note Off - Duracao: 450780 Nota: C1 Vol.: 83
Chanel 6 Note On - Duracao: 450780 Nota: C1 Vol.: 72
Chanel 5 Note Off - Duracao: 450840 Nota: C1 Vol.: 43
Chanel 5 Note On - Duracao: 450840 Nota: C1 Vol.: 41
Chanel 1 Note Off - Duracao: 450900 Nota: C1 Vol.: 94
Chanel 1 Note On - Duracao: 450900 Nota: C1 Vol.: 100
Chanel 10 Note Off - Duracao: 450960 Nota: C1 Vol.: 73
Chanel 10 Note On - Duracao: 450960 Nota: C1 Vol.: 72
Chanel 1 Note Off - Duracao: 451140 Nota: C1 Vol.: 100
Chanel 1 Note On - Duracao: 451140 Nota: C1 Vol.: 89
Chanel 3 Note Off - Duracao: 451200 Nota: C1 Vol.: 81
Chanel 3 Note On - Duracao: 451200 Nota: C1 Vol.: 82
Chanel 7 Note Off - Duracao: 451320 Nota: C1 Vol.: 55
Chanel 7 Note On - Duracao: 451320 Nota: C1 Vol.: 45
Chanel 4 Note Off - Duracao: 451560 Nota: C1 Vol.: 50
Chanel 4 Note On - Duracao: 451560 Nota: C1 Vol.: 57
Chanel 8 Note Off - Duracao: 451560 Nota: C1 Vol.: 79
Chanel 8 Note On - Duracao: 451560 Nota: C1 Vol.: 86
Chanel 1 Note Off - Duracao: 451620 Nota: C1 Vol.: 89
Chanel 1 Note On - Duracao: 451620 Nota: C1 Vol.: 100
Chanel 1 Note Off - Duracao: 451740 Nota: C1 Vol.: 100
Chanel 1 Note On - Duracao: 451740 Nota: C1 Vol.: 92
Chanel 10 Note Off - Duracao: 451920 Nota: C1 Vol.: 72
Chanel 10 Note On - Duracao: 451920 Nota: C1 Vol.: 68
Chanel 4 Note Off - Duracao: 452040 Nota: C1 Vol.: 57
Chanel 4 Note On - Duracao: 452040 Nota: C1 Vol.: 58
Chanel 9 Note Off - Duracao: 452160 Nota: C1 Vol.: 90
Chanel 9 Note On - Duracao: 452160 Nota: C1 Vol.: 91
Chanel 1 Note Off - Duracao: 452220 Nota: C1 Vol.: 92
Chanel 1 Note On - Duracao: 452220 Nota: C1 Vol.: 81
Chanel 8 Note Off - Duracao: 452520 Nota: C1 Vol.: 86
Chanel 8 Note On - Duracao: 452520 Nota: C1 Vol.: 88
Chanel 6 Note Off - Duracao: 452700 Nota: C1 Vol.: 72
Chanel 6 Note On - Duracao: 452700 Nota: C1 Vol.: 60
Chanel 10 Note Off - Duracao: 452880 Nota: C1 Vol.: 68
Chanel 10 Note On - Duracao: 452880 Nota: C1 Vol.: 72
Chanel 4 Note Off - Duracao: 453000 Nota: C1 Vol.: 58
Chanel 4 Note On - Duracao: 453000 Nota: C1 Vol.: 48
Chanel 2 Note Off - Duracao: 453360 Nota: C1 Vol.: 64
Chanel 2 Note On - Duracao: 453360 Nota: C1 Vol.: 66
Chanel 8 Note Off - Duracao: 453480 Nota: C1 Vol.: 88
Chanel 8 Note On - Duracao: 453480 Nota: C1 Vol.: 91
Chanel 10 Note Off - Duracao: 453840 Nota: C1 Vol.: 72
Chanel 10 Note On - Duracao: 453840 Nota: C1 Vol.: 72
Chanel 9 Note Off - Duracao: 454080 Nota: C1 Vol.: 91
Chanel 9 Note On - Duracao: 454080 Nota: C1 Vol.: 93
Chanel 1 Note Off - Duracao: 454140 Nota: C1 Vol.: 81
Chanel 1 Note On - Duracao: 454140 Nota: C1 Vol.: 92
Chanel 8 Note Off - Duracao: 454440 Nota: C1 Vol.: 91
Chanel 8 Note On - Duracao: 454440 Nota: C1 Vol.: 92
Chanel 5 Note Off - Duracao: 454680 Nota: C1 Vol.: 41
Chanel 5 Note On - Duracao: 454680 Nota: C1 Vol.: 77
Chanel 10 Note Off - Duracao: 454800 Nota: C1 Vol.: 72
Chanel 10 Note On - Duracao: 454800 Nota: C1 Vol.: 72
Chanel 4 Note Off - Duracao: 454920 Nota: C1 Vol.: 48
Chanel 4 Note On - Duracao: 454920 Nota: C1 Vol.: 43
Chanel 8 Note Off - Duracao: 454920 Nota: C1 Vol.: 92
Chanel 8 Note On - Duracao: 454920 Nota: C1 Vol.: 91
Chanel 3 Note Off - Duracao: 455040 Nota: C1 Vol.: 82
Chanel 3 Note On - Duracao: 455040 Nota: C1 Vol.: 90
Chanel 1 Note Off - Duracao: 455100 Nota: C1 Vol.: 92
Chanel 1 Note On - Duracao: 455100 Nota: C1 Vol.: 91
Chanel 5 Note Off - Duracao: 455160 Nota: C1 Vol.: 77
Chanel 5 Note On - Duracao: 455160 Nota: C1 Vol.: 76
Chanel 7 Note Off - Duracao: 455160 Nota: C1 Vol.: 45
Chanel 7 Note On - Duracao: 455160 Nota: C1 Vol.: 43
Chanel 8 Note Off - Duracao: 455400 Nota: C1 Vol.: 91
Chanel 8 Note On - Duracao: 455400 Nota: C1 Vol.: 82
Chanel 10 Note Off - Duracao: 455760 Nota: C1 Vol.: 72
Chanel 10 Note On - Duracao: 455760 Nota: C1 Vol.: 71
Chanel 8 Note Off - Duracao: 455880 Nota: C1 Vol.: 82
Chanel 8 Note On - Duracao: 455880 Nota: C1 Vol.: 64
Chanel 9 Note Off - Duracao: 456000 Nota: C1 Vol.: 93
Chanel 9 Note On - Duracao: 456000 Nota: C1 Vol.: 94
Chanel 1 Note Off - Duracao: 456060 Nota: C1 Vol.: 91
Chanel 1 Note On - Duracao: 456060 Nota: C1 Vol.: 86
Chanel 5 Note Off - Duracao: 456120 Nota: C1 Vol.: 76
Chanel 5 Note On - Duracao: 456120 Nota: C1 Vol.: 76
Chanel 6 Note Off - Duracao: 456540 Nota: C1 Vol.: 60
Chanel 6 Note On - Duracao: 456540 Nota: C1 Vol.: 65
Chanel 10 Note Off - Duracao: 456720 Nota: C1 Vol.: 71
Chanel 10 Note On - Duracao: 456720 Nota: C1 Vol.: 73
Chanel 8 Note Off - Duracao: 456840 Nota: C1 Vol.: 64
Chanel 8 Note On - Duracao: 456840 Nota: C1 Vol.: 66
Chanel 3 Note Off - Duracao: 456960 Nota: C1 Vol.: 90
Chanel 3 Note On - Duracao: 456960 Nota: C1 Vol.: 91
Chanel 5 Note Off - Duracao: 457080 Nota: C1 Vol.: 76
Chanel 5 Note On - Duracao: 457080 Nota: C1 Vol.: 75
Chanel 2 Note Off - Duracao: 457200 Nota: C1 Vol.: 66
Chanel 2 Note On - Duracao: 457200 Nota: C1 Vol.: 85
Chanel 10 Note Off - Duracao: 457200 Nota: C1 Vol.: 73
Chanel 10 Note On - Duracao: 457200 Nota: C1 Vol.: 72
Chanel 8 Note Off - Duracao: 457320 Nota: C1 Vol.: 66
Chanel 8 Note On - Duracao: 457320 Nota: C1 Vol.: 59
Chanel 9 Note Off - Duracao: 457920 Nota: C1 Vol.: 94
Chanel 9 Note On - Duracao: 457920 Nota: C1 Vol.: 91
Chanel 1 Note Off - Duracao: 457980 Nota: C1 Vol.: 86
Chanel 1 Note On - Duracao: 457980 Nota: C1 Vol.: 93
Chanel 5 Note Off - Duracao: 458040 Nota: C1 Vol.: 75
Chanel 5 Note On - Duracao: 458040 Nota: C1 Vol.: 78
Chanel 2 Note Off - Duracao: 458160 Nota: C1 Vol.: 85
Chanel 2 Note On - Duracao: 458160 Nota: C1 Vol.: 89
Chanel 10 Note Off - Duracao: 458160 Nota: C1 Vol.: 72
Chanel 10 Note On - Duracao: 458160 Nota: C1 Vol.: 69
Chanel 8 Note Off - Duracao: 458280 Nota: C1 Vol.: 59
Chanel 8 Note On - Duracao: 458280 Nota: C1 Vol.: 60
Chanel 6 Note Off - Duracao: 458460 Nota: C1 Vol.: 65
Chanel 6 Note On - Duracao: 458460 Nota: C1 Vol.: 62
Chanel 4 Note Off - Duracao: 458760 Nota: C1 Vol.: 43
Chanel 4 Note On - Duracao: 458760 Nota: C1 Vol.: 43
Chanel 3 Note Off - Duracao: 458880 Nota: C1 Vol.: 91
Chanel 3 Note On - Duracao: 458880 Nota: C1 Vol.: 93
Chanel 5 Note Off - Duracao: 459000 Nota: C1 Vol.: 78
Chanel 5 Note On - Duracao: 459000 Nota: C1 Vol.: 80
Chanel 7 Note Off - Duracao: 459000 Nota: C1 Vol.: 43
Chanel 7 Note On - Duracao: 459000 Nota: C1 Vol.: 44
Chanel 2 Note Off - Duracao: 459120 Nota: C1 Vol.: 89
Chanel 2 Note On - Duracao: 459120 Nota: C1 Vol.: 86
Chanel 10 Note Off - Duracao: 459120 Nota: C1 Vol.: 69
Chanel 10 Note On - Duracao: 459120 Nota: C1 Vol.: 66
Chanel 9 Note Off - Duracao: 459840 Nota: C1 Vol.: 91
Chanel 9 Note On - Duracao: 459840 Nota: C1 Vol.: 92
Chanel 1 Note Off - Duracao: 459900 Nota: C1 Vol.: 93
Chanel 1 Note On - Duracao: 459900 Nota: C1 Vol.: 93
Chanel 5 Note Off - Duracao: 459960 Nota: C1 Vol.: 80
Chanel 5 Note On - Duracao: 459960 Nota: C1 Vol.: 84
Chanel 2 Note Off - Duracao: 460080 Nota: C1 Vol.: 86
Chanel 2 Note On - Duracao: 460080 Nota: C1 Vol.: 82
Chanel 8 Note Off - Duracao: 460200 Nota: C1 Vol.: 60
Chanel 8 Note On - Duracao: 460200 Nota: C1 Vol.: 76
Chanel 5 Note Off - Duracao: 460440 Nota: C1 Vol.: 84
Chanel 5 Note On - Duracao: 460440 Nota: C1 Vol.: 79
Chanel 3 Note Off - Duracao: 460800 Nota: C1 Vol.: 93
Chanel 3 Note On - Duracao: 460800 Nota: C1 Vol.: 92
Chanel 7 Note Off - Duracao: 460920 Nota: C1 Vol.: 44
Chanel 7 Note On - Duracao: 460920 Nota: C1 Vol.: 44
Chanel 10 Note Off - Duracao: 461040 Nota: C1 Vol.: 66
Chanel 10 Note On - Duracao: 461040 Nota: C1 Vol.: 74
Chanel 8 Note Off - Duracao: 461160 Nota: C1 Vol.: 76
Chanel 8 Note On - Duracao: 461160 Nota: C1 Vol.: 78
Chanel 5 Note Off - Duracao: 461400 Nota: C1 Vol.: 79
Chanel 5 Note On - Duracao: 461400 Nota: C1 Vol.: 68
Chanel 8 Note Off - Duracao: 461640 Nota: C1 Vol.: 78
Chanel 8 Note On - Duracao: 461640 Nota: C1 Vol.: 80
Chanel 3 Note Off - Duracao: 461760 Nota: C1 Vol.: 92
Chanel 3 Note On - Duracao: 461760 Nota: C1 Vol.: 85
Chanel 9 Note Off - Duracao: 461760 Nota: C1 Vol.: 92
Chanel 9 Note On - Duracao: 461760 Nota: C1 Vol.: 90
Chanel 1 Note Off - Duracao: 461820 Nota: C1 Vol.: 93
Chanel 1 Note On - Duracao: 461820 Nota: C1 Vol.: 92
Chanel 2 Note Off - Duracao: 462000 Nota: C1 Vol.: 82
Chanel 2 Note On - Duracao: 462000 Nota: C1 Vol.: 76
Chanel 10 Note Off - Duracao: 462000 Nota: C1 Vol.: 74
Chanel 10 Note On - Duracao: 462000 Nota: C1 Vol.: 63
Chanel 8 Note Off - Duracao: 462120 Nota: C1 Vol.: 80
Chanel 8 Note On - Duracao: 462120 Nota: C1 Vol.: 86
Chanel 6 Note Off - Duracao: 462300 Nota: C1 Vol.: 62
Chanel 6 Note On - Duracao: 462300 Nota: C1 Vol.: 62
Chanel 4 Note Off - Duracao: 462600 Nota: C1 Vol.: 43
Chanel 4 Note On - Duracao: 462600 Nota: C1 Vol.: 43
Chanel 8 Note Off - Duracao: 462600 Nota: C1 Vol.: 86
Chanel 8 Note On - Duracao: 462600 Nota: C1 Vol.: 85
Chanel 3 Note Off - Duracao: 462720 Nota: C1 Vol.: 85
Chanel 3 Note On - Duracao: 462720 Nota: C1 Vol.: 56
Chanel 7 Note Off - Duracao: 462840 Nota: C1 Vol.: 44
Chanel 7 Note On - Duracao: 462840 Nota: C1 Vol.: 43
Chanel 8 Note Off - Duracao: 463080 Nota: C1 Vol.: 85
Chanel 8 Note On - Duracao: 463080 Nota: C1 Vol.: 84
Chanel 5 Note Off - Duracao: 463320 Nota: C1 Vol.: 68
Chanel 5 Note On - Duracao: 463320 Nota: C1 Vol.: 54
Chanel 8 Note Off - Duracao: 463560 Nota: C1 Vol.: 84
Chanel 8 Note On - Duracao: 463560 Nota: C1 Vol.: 79
Chanel 9 Note Off - Duracao: 463680 Nota: C1 Vol.: 90
Chanel 9 Note On - Duracao: 463680 Nota: C1 Vol.: 87
Chanel 7 Note Off - Duracao: 463800 Nota: C1 Vol.: 43
Chanel 7 Note On - Duracao: 463800 Nota: C1 Vol.: 43
Chanel 2 Note Off - Duracao: 463920 Nota: C1 Vol.: 76
Chanel 2 Note On - Duracao: 463920 Nota: C1 Vol.: 71
Chanel 10 Note Off - Duracao: 463920 Nota: C1 Vol.: 63
Chanel 10 Note On - Duracao: 463920 Nota: C1 Vol.: 60
Chanel 8 Note Off - Duracao: 464520 Nota: C1 Vol.: 79
Chanel 8 Note On - Duracao: 464520 Nota: C1 Vol.: 81
Chanel 7 Note Off - Duracao: 464760 Nota: C1 Vol.: 43
Chanel 7 Note On - Duracao: 464760 Nota: C1 Vol.: 40
Chanel 8 Note Off - Duracao: 465480 Nota: C1 Vol.: 81
Chanel 8 Note On - Duracao: 465480 Nota: C1 Vol.: 73
Chanel 9 Note Off - Duracao: 465600 Nota: C1 Vol.: 87
Chanel 9 Note On - Duracao: 465600 Nota: C1 Vol.: 83
Chanel 1 Note Off - Duracao: 465660 Nota: C1 Vol.: 92
Chanel 1 Note On - Duracao: 465660 Nota: C1 Vol.: 92
Chanel 7 Note Off - Duracao: 465720 Nota: C1 Vol.: 40
Chanel 7 Note On - Duracao: 465720 Nota: C1 Vol.: 40
Chanel 2 Note Off - Duracao: 465840 Nota: C1 Vol.: 71
Chanel 2 Note On - Duracao: 465840 Nota: C1 Vol.: 56
Chanel 10 Note Off - Duracao: 465840 Nota: C1 Vol.: 60
Chanel 10 Note On - Duracao: 465840 Nota: C1 Vol.: 62
Chanel 6 Note Off - Duracao: 466140 Nota: C1 Vol.: 62
Chanel 6 Note On - Duracao: 466140 Nota: C1 Vol.: 57
Chanel 4 Note Off - Duracao: 466440 Nota: C1 Vol.: 43
Chanel 4 Note On - Duracao: 466440 Nota: C1 Vol.: 45
Chanel 8 Note Off - Duracao: 466440 Nota: C1 Vol.: 73
Chanel 8 Note On - Duracao: 466440 Nota: C1 Vol.: 81
Chanel 3 Note Off - Duracao: 466560 Nota: C1 Vol.: 56
Chanel 3 Note On - Duracao: 466560 Nota: C1 Vol.: 47
Chanel 7 Note Off - Duracao: 466680 Nota: C1 Vol.: 40
Chanel 7 Note On - Duracao: 466680 Nota: C1 Vol.: 40
Chanel 5 Note Off - Duracao: 467160 Nota: C1 Vol.: 54
Chanel 5 Note On - Duracao: 467160 Nota: C1 Vol.: 59
Chanel 8 Note Off - Duracao: 467400 Nota: C1 Vol.: 81
Chanel 8 Note On - Duracao: 467400 Nota: C1 Vol.: 81
Chanel 9 Note Off - Duracao: 467520 Nota: C1 Vol.: 83
Chanel 9 Note On - Duracao: 467520 Nota: C1 Vol.: 83
Chanel 7 Note Off - Duracao: 467640 Nota: C1 Vol.: 40
Chanel 7 Note On - Duracao: 467640 Nota: C1 Vol.: 40
Chanel 10 Note Off - Duracao: 467760 Nota: C1 Vol.: 62
Chanel 10 Note On - Duracao: 467760 Nota: C1 Vol.: 58
Chanel 8 Note Off - Duracao: 467880 Nota: C1 Vol.: 81
Chanel 8 Note On - Duracao: 467880 Nota: C1 Vol.: 83
Chanel 8 Note Off - Duracao: 468120 Nota: C1 Vol.: 83
Chanel 8 Note On - Duracao: 468120 Nota: C1 Vol.: 90
Chanel 8 Note Off - Duracao: 468240 Nota: C1 Vol.: 90
Chanel 8 Note On - Duracao: 468240 Nota: C1 Vol.: 87
Chanel 8 Note Off - Duracao: 468360 Nota: C1 Vol.: 87
Chanel 8 Note On - Duracao: 468360 Nota: C1 Vol.: 82
Chanel 7 Note Off - Duracao: 468600 Nota: C1 Vol.: 40
Chanel 7 Note On - Duracao: 468600 Nota: C1 Vol.: 41
Chanel 8 Note Off - Duracao: 468600 Nota: C1 Vol.: 82
Chanel 8 Note On - Duracao: 468600 Nota: C1 Vol.: 78
Chanel 8 Note Off - Duracao: 468840 Nota: C1 Vol.: 78
Chanel 8 Note On - Duracao: 468840 Nota: C1 Vol.: 77
Chanel 8 Note Off - Duracao: 469080 Nota: C1 Vol.: 77
Chanel 8 Note On - Duracao: 469080 Nota: C1 Vol.: 71
Chanel 9 Note Off - Duracao: 469440 Nota: C1 Vol.: 83
Chanel 9 Note On - Duracao: 469440 Nota: C1 Vol.: 83
Chanel 1 Note Off - Duracao: 469500 Nota: C1 Vol.: 92
Chanel 1 Note On - Duracao: 469500 Nota: C1 Vol.: 93
Chanel 7 Note Off - Duracao: 469560 Nota: C1 Vol.: 41
Chanel 7 Note On - Duracao: 469560 Nota: C1 Vol.: 41
Chanel 2 Note Off - Duracao: 469680 Nota: C1 Vol.: 56
Chanel 2 Note On - Duracao: 469680 Nota: C1 Vol.: 79
Chanel 10 Note Off - Duracao: 469680 Nota: C1 Vol.: 58
Chanel 10 Note On - Duracao: 469680 Nota: C1 Vol.: 74
Chanel 6 Note Off - Duracao: 469980 Nota: C1 Vol.: 57
Chanel 6 Note On - Duracao: 469980 Nota: C1 Vol.: 68
Chanel 8 Note Off - Duracao: 470040 Nota: C1 Vol.: 71
Chanel 8 Note On - Duracao: 470040 Nota: C1 Vol.: 75
Chanel 2 Note Off - Duracao: 470160 Nota: C1 Vol.: 79
Chanel 2 Note On - Duracao: 470160 Nota: C1 Vol.: 90
Chanel 4 Note Off - Duracao: 470280 Nota: C1 Vol.: 45
Chanel 4 Note On - Duracao: 470280 Nota: C1 Vol.: 48
Chanel 2 Note Off - Duracao: 470400 Nota: C1 Vol.: 90
Chanel 2 Note On - Duracao: 470400 Nota: C1 Vol.: 76
Chanel 3 Note Off - Duracao: 470400 Nota: C1 Vol.: 47
Chanel 3 Note On - Duracao: 470400 Nota: C1 Vol.: 44
Chanel 9 Note Off - Duracao: 470400 Nota: C1 Vol.: 83
Chanel 9 Note On - Duracao: 470400 Nota: C1 Vol.: 67
Chanel 7 Note Off - Duracao: 470520 Nota: C1 Vol.: 41
Chanel 7 Note On - Duracao: 470520 Nota: C1 Vol.: 40
Chanel 10 Note Off - Duracao: 470640 Nota: C1 Vol.: 74
Chanel 10 Note On - Duracao: 470640 Nota: C1 Vol.: 72
Chanel 5 Note Off - Duracao: 471000 Nota: C1 Vol.: 59
Chanel 5 Note On - Duracao: 471000 Nota: C1 Vol.: 65
Chanel 8 Note Off - Duracao: 471000 Nota: C1 Vol.: 75
Chanel 8 Note On - Duracao: 471000 Nota: C1 Vol.: 53
Chanel 2 Note Off - Duracao: 471360 Nota: C1 Vol.: 76
Chanel 2 Note On - Duracao: 471360 Nota: C1 Vol.: 85
Chanel 1 Note Off - Duracao: 471420 Nota: C1 Vol.: 93
Chanel 1 Note On - Duracao: 471420 Nota: C1 Vol.: 88
Chanel 7 Note Off - Duracao: 471480 Nota: C1 Vol.: 40
Chanel 7 Note On - Duracao: 471480 Nota: C1 Vol.: 40
Chanel 6 Note Off - Duracao: 471900 Nota: C1 Vol.: 68
Chanel 6 Note On - Duracao: 471900 Nota: C1 Vol.: 60
Chanel 1 Note Off - Duracao: 472380 Nota: C1 Vol.: 88
Chanel 1 Note On - Duracao: 472380 Nota: C1 Vol.: 58
Chanel 7 Note Off - Duracao: 472440 Nota: C1 Vol.: 40
Chanel 7 Note On - Duracao: 472440 Nota: C1 Vol.: 40
Chanel 10 Note Off - Duracao: 472560 Nota: C1 Vol.: 72
Chanel 10 Note On - Duracao: 472560 Nota: C1 Vol.: 76
Chanel 5 Note Off - Duracao: 472920 Nota: C1 Vol.: 65
Chanel 5 Note On - Duracao: 472920 Nota: C1 Vol.: 70
Chanel 2 Note Off - Duracao: 473280 Nota: C1 Vol.: 85
Chanel 2 Note On - Duracao: 473280 Nota: C1 Vol.: 89
Chanel 7 Note Off - Duracao: 473400 Nota: C1 Vol.: 40
Chanel 7 Note On - Duracao: 473400 Nota: C1 Vol.: 40
Chanel 10 Note Off - Duracao: 473520 Nota: C1 Vol.: 76
Chanel 10 Note On - Duracao: 473520 Nota: C1 Vol.: 77
Chanel 5 Note Off - Duracao: 473880 Nota: C1 Vol.: 70
Chanel 5 Note On - Duracao: 473880 Nota: C1 Vol.: 74
Chanel 4 Note Off - Duracao: 474120 Nota: C1 Vol.: 48
Chanel 4 Note On - Duracao: 474120 Nota: C1 Vol.: 71
Chanel 3 Note Off - Duracao: 474240 Nota: C1 Vol.: 44
Chanel 3 Note On - Duracao: 474240 Nota: C1 Vol.: 47
Chanel 9 Note Off - Duracao: 474240 Nota: C1 Vol.: 67
Chanel 9 Note On - Duracao: 474240 Nota: C1 Vol.: 55
Chanel 7 Note Off - Duracao: 474360 Nota: C1 Vol.: 40
Chanel 7 Note On - Duracao: 474360 Nota: C1 Vol.: 40
Chanel 10 Note Off - Duracao: 474480 Nota: C1 Vol.: 77
Chanel 10 Note On - Duracao: 474480 Nota: C1 Vol.: 73
Chanel 4 Note Off - Duracao: 474600 Nota: C1 Vol.: 71
Chanel 4 Note On - Duracao: 474600 Nota: C1 Vol.: 47
Chanel 5 Note Off - Duracao: 474840 Nota: C1 Vol.: 74
Chanel 5 Note On - Duracao: 474840 Nota: C1 Vol.: 75
Chanel 8 Note Off - Duracao: 474840 Nota: C1 Vol.: 53
Chanel 8 Note On - Duracao: 474840 Nota: C1 Vol.: 50
Chanel 2 Note Off - Duracao: 475200 Nota: C1 Vol.: 89
Chanel 2 Note On - Duracao: 475200 Nota: C1 Vol.: 88
Chanel 7 Note Off - Duracao: 475320 Nota: C1 Vol.: 40
Chanel 7 Note On - Duracao: 475320 Nota: C1 Vol.: 42
Chanel 10 Note Off - Duracao: 475440 Nota: C1 Vol.: 73
Chanel 10 Note On - Duracao: 475440 Nota: C1 Vol.: 64
Chanel 6 Note Off - Duracao: 475740 Nota: C1 Vol.: 60
Chanel 6 Note On - Duracao: 475740 Nota: C1 Vol.: 66
Chanel 5 Note Off - Duracao: 475800 Nota: C1 Vol.: 75
Chanel 5 Note On - Duracao: 475800 Nota: C1 Vol.: 79
Chanel 1 Note Off - Duracao: 476220 Nota: C1 Vol.: 58
Chanel 1 Note On - Duracao: 476220 Nota: C1 Vol.: 70
Chanel 7 Note Off - Duracao: 476280 Nota: C1 Vol.: 42
Chanel 7 Note On - Duracao: 476280 Nota: C1 Vol.: 42
Chanel 5 Note Off - Duracao: 476760 Nota: C1 Vol.: 79
Chanel 5 Note On - Duracao: 476760 Nota: C1 Vol.: 76
Chanel 7 Note Off - Duracao: 476760 Nota: C1 Vol.: 42
Chanel 7 Note On - Duracao: 476760 Nota: C1 Vol.: 42
Chanel 2 Note Off - Duracao: 477120 Nota: C1 Vol.: 88
Chanel 2 Note On - Duracao: 477120 Nota: C1 Vol.: 91
Chanel 1 Note Off - Duracao: 477180 Nota: C1 Vol.: 70
Chanel 1 Note On - Duracao: 477180 Nota: C1 Vol.: 97
Chanel 7 Note Off - Duracao: 477240 Nota: C1 Vol.: 42
Chanel 7 Note On - Duracao: 477240 Nota: C1 Vol.: 44
Chanel 1 Note Off - Duracao: 477300 Nota: C1 Vol.: 97
Chanel 1 Note On - Duracao: 477300 Nota: C1 Vol.: 97
Chanel 1 Note Off - Duracao: 477360 Nota: C1 Vol.: 97
Chanel 1 Note On - Duracao: 477360 Nota: C1 Vol.: 86
Chanel 10 Note Off - Duracao: 477360 Nota: C1 Vol.: 64
Chanel 10 Note On - Duracao: 477360 Nota: C1 Vol.: 69
Chanel 1 Note Off - Duracao: 477480 Nota: C1 Vol.: 86
Chanel 1 Note On - Duracao: 477480 Nota: C1 Vol.: 83
Chanel 6 Note Off - Duracao: 477660 Nota: C1 Vol.: 66
Chanel 6 Note On - Duracao: 477660 Nota: C1 Vol.: 65
Chanel 1 Note Off - Duracao: 477720 Nota: C1 Vol.: 83
Chanel 1 Note On - Duracao: 477720 Nota: C1 Vol.: 79
Chanel 5 Note Off - Duracao: 477720 Nota: C1 Vol.: 76
Chanel 5 Note On - Duracao: 477720 Nota: C1 Vol.: 77
Chanel 7 Note Off - Duracao: 477720 Nota: C1 Vol.: 44
Chanel 7 Note On - Duracao: 477720 Nota: C1 Vol.: 44
Chanel 1 Note Off - Duracao: 477960 Nota: C1 Vol.: 79
Chanel 1 Note On - Duracao: 477960 Nota: C1 Vol.: 89
Chanel 1 Note Off - Duracao: 478080 Nota: C1 Vol.: 89
Chanel 1 Note On - Duracao: 478080 Nota: C1 Vol.: 82
Chanel 2 Note Off - Duracao: 478080 Nota: C1 Vol.: 91
Chanel 2 Note On - Duracao: 478080 Nota: C1 Vol.: 92
Chanel 3 Note Off - Duracao: 478080 Nota: C1 Vol.: 47
Chanel 3 Note On - Duracao: 478080 Nota: C1 Vol.: 49
Chanel 9 Note Off - Duracao: 478080 Nota: C1 Vol.: 55
Chanel 9 Note On - Duracao: 478080 Nota: C1 Vol.: 58
Chanel 7 Note Off - Duracao: 478200 Nota: C1 Vol.: 44
Chanel 7 Note On - Duracao: 478200 Nota: C1 Vol.: 43
Chanel 1 Note Off - Duracao: 478320 Nota: C1 Vol.: 82
Chanel 1 Note On - Duracao: 478320 Nota: C1 Vol.: 74
Chanel 10 Note Off - Duracao: 478320 Nota: C1 Vol.: 69
Chanel 10 Note On - Duracao: 478320 Nota: C1 Vol.: 69
Chanel 4 Note Off - Duracao: 478440 Nota: C1 Vol.: 47
Chanel 4 Note On - Duracao: 478440 Nota: C1 Vol.: 44
Chanel 5 Note Off - Duracao: 478680 Nota: C1 Vol.: 77
Chanel 5 Note On - Duracao: 478680 Nota: C1 Vol.: 84
Chanel 7 Note Off - Duracao: 478680 Nota: C1 Vol.: 43
Chanel 7 Note On - Duracao: 478680 Nota: C1 Vol.: 43
Chanel 8 Note Off - Duracao: 478680 Nota: C1 Vol.: 50
Chanel 8 Note On - Duracao: 478680 Nota: C1 Vol.: 49
Chanel 1 Note Off - Duracao: 478800 Nota: C1 Vol.: 74
Chanel 1 Note On - Duracao: 478800 Nota: C1 Vol.: 78
Chanel 1 Note Off - Duracao: 479040 Nota: C1 Vol.: 78
Chanel 1 Note On - Duracao: 479040 Nota: C1 Vol.: 80
Chanel 5 Note Off - Duracao: 479160 Nota: C1 Vol.: 84
Chanel 5 Note On - Duracao: 479160 Nota: C1 Vol.: 84
Chanel 1 Note Off - Duracao: 479280 Nota: C1 Vol.: 80
Chanel 1 Note On - Duracao: 479280 Nota: C1 Vol.: 76
Chanel 10 Note Off - Duracao: 479280 Nota: C1 Vol.: 69
Chanel 10 Note On - Duracao: 479280 Nota: C1 Vol.: 64
Chanel 1 Note Off - Duracao: 479520 Nota: C1 Vol.: 76
Chanel 1 Note On - Duracao: 479520 Nota: C1 Vol.: 74
Chanel 6 Note Off - Duracao: 479580 Nota: C1 Vol.: 65
Chanel 6 Note On - Duracao: 479580 Nota: C1 Vol.: 62
Chanel 5 Note Off - Duracao: 479640 Nota: C1 Vol.: 84
Chanel 5 Note On - Duracao: 479640 Nota: C1 Vol.: 80
Chanel 7 Note Off - Duracao: 479640 Nota: C1 Vol.: 43
Chanel 7 Note On - Duracao: 479640 Nota: C1 Vol.: 44
Chanel 1 Note Off - Duracao: 480000 Nota: C1 Vol.: 74
Chanel 1 Note On - Duracao: 480000 Nota: C1 Vol.: 68
Chanel 2 Note Off - Duracao: 480000 Nota: C1 Vol.: 92
Chanel 2 Note On - Duracao: 480000 Nota: C1 Vol.: 92
Chanel 5 Note Off - Duracao: 480120 Nota: C1 Vol.: 80
Chanel 5 Note On - Duracao: 480120 Nota: C1 Vol.: 79
Chanel 10 Note Off - Duracao: 480240 Nota: C1 Vol.: 64
Chanel 10 Note On - Duracao: 480240 Nota: C1 Vol.: 64
Chanel 5 Note Off - Duracao: 480600 Nota: C1 Vol.: 79
Chanel 5 Note On - Duracao: 480600 Nota: C1 Vol.: 77
Chanel 7 Note Off - Duracao: 480600 Nota: C1 Vol.: 44
Chanel 7 Note On - Duracao: 480600 Nota: C1 Vol.: 44
Chanel 1 Note Off - Duracao: 480960 Nota: C1 Vol.: 68
Chanel 1 Note On - Duracao: 480960 Nota: C1 Vol.: 81
Chanel 5 Note Off - Duracao: 481080 Nota: C1 Vol.: 77
Chanel 5 Note On - Duracao: 481080 Nota: C1 Vol.: 76
Chanel 10 Note Off - Duracao: 481200 Nota: C1 Vol.: 64
Chanel 10 Note On - Duracao: 481200 Nota: C1 Vol.: 71
Chanel 1 Note Off - Duracao: 481440 Nota: C1 Vol.: 81
Chanel 1 Note On - Duracao: 481440 Nota: C1 Vol.: 81
Chanel 6 Note Off - Duracao: 481500 Nota: C1 Vol.: 62
Chanel 6 Note On - Duracao: 481500 Nota: C1 Vol.: 67
Chanel 5 Note Off - Duracao: 481560 Nota: C1 Vol.: 76
Chanel 5 Note On - Duracao: 481560 Nota: C1 Vol.: 68
Chanel 7 Note Off - Duracao: 481560 Nota: C1 Vol.: 44
Chanel 7 Note On - Duracao: 481560 Nota: C1 Vol.: 42
Chanel 10 Note Off - Duracao: 481680 Nota: C1 Vol.: 71
Chanel 10 Note On - Duracao: 481680 Nota: C1 Vol.: 67
Chanel 2 Note Off - Duracao: 481920 Nota: C1 Vol.: 92
Chanel 2 Note On - Duracao: 481920 Nota: C1 Vol.: 91
Chanel 3 Note Off - Duracao: 481920 Nota: C1 Vol.: 49
Chanel 3 Note On - Duracao: 481920 Nota: C1 Vol.: 55
Chanel 9 Note Off - Duracao: 481920 Nota: C1 Vol.: 58
Chanel 9 Note On - Duracao: 481920 Nota: C1 Vol.: 56
Chanel 4 Note Off - Duracao: 482280 Nota: C1 Vol.: 44
Chanel 4 Note On - Duracao: 482280 Nota: C1 Vol.: 64
Chanel 1 Note Off - Duracao: 482400 Nota: C1 Vol.: 81
Chanel 1 Note On - Duracao: 482400 Nota: C1 Vol.: 86
Chanel 6 Note Off - Duracao: 482460 Nota: C1 Vol.: 67
Chanel 6 Note On - Duracao: 482460 Nota: C1 Vol.: 68
Chanel 5 Note Off - Duracao: 482520 Nota: C1 Vol.: 68
Chanel 5 Note On - Duracao: 482520 Nota: C1 Vol.: 46
Chanel 7 Note Off - Duracao: 482520 Nota: C1 Vol.: 42
Chanel 7 Note On - Duracao: 482520 Nota: C1 Vol.: 43
Chanel 8 Note Off - Duracao: 482520 Nota: C1 Vol.: 49
Chanel 8 Note On - Duracao: 482520 Nota: C1 Vol.: 52
Chanel 10 Note Off - Duracao: 482640 Nota: C1 Vol.: 67
Chanel 10 Note On - Duracao: 482640 Nota: C1 Vol.: 66
Chanel 1 Note Off - Duracao: 482880 Nota: C1 Vol.: 86
Chanel 1 Note On - Duracao: 482880 Nota: C1 Vol.: 77
Chanel 4 Note Off - Duracao: 483240 Nota: C1 Vol.: 64
Chanel 4 Note On - Duracao: 483240 Nota: C1 Vol.: 44
Chanel 6 Note Off - Duracao: 483420 Nota: C1 Vol.: 68
Chanel 6 Note On - Duracao: 483420 Nota: C1 Vol.: 69
Chanel 7 Note Off - Duracao: 483480 Nota: C1 Vol.: 43
Chanel 7 Note On - Duracao: 483480 Nota: C1 Vol.: 42
Chanel 10 Note Off - Duracao: 483600 Nota: C1 Vol.: 66
Chanel 10 Note On - Duracao: 483600 Nota: C1 Vol.: 70
Chanel 1 Note Off - Duracao: 483840 Nota: C1 Vol.: 77
Chanel 1 Note On - Duracao: 483840 Nota: C1 Vol.: 85
Chanel 1 Note Off - Duracao: 484080 Nota: C1 Vol.: 85
Chanel 1 Note On - Duracao: 484080 Nota: C1 Vol.: 83
Chanel 10 Note Off - Duracao: 484080 Nota: C1 Vol.: 70
Chanel 10 Note On - Duracao: 484080 Nota: C1 Vol.: 68
Chanel 1 Note Off - Duracao: 484320 Nota: C1 Vol.: 83
Chanel 1 Note On - Duracao: 484320 Nota: C1 Vol.: 77
Chanel 6 Note Off - Duracao: 484380 Nota: C1 Vol.: 69
Chanel 6 Note On - Duracao: 484380 Nota: C1 Vol.: 65
Chanel 7 Note Off - Duracao: 484440 Nota: C1 Vol.: 42
Chanel 7 Note On - Duracao: 484440 Nota: C1 Vol.: 44
Chanel 8 Note Off - Duracao: 484440 Nota: C1 Vol.: 52
Chanel 8 Note On - Duracao: 484440 Nota: C1 Vol.: 55
Chanel 10 Note Off - Duracao: 484560 Nota: C1 Vol.: 68
Chanel 10 Note On - Duracao: 484560 Nota: C1 Vol.: 68
Chanel 1 Note Off - Duracao: 484800 Nota: C1 Vol.: 77
Chanel 1 Note On - Duracao: 484800 Nota: C1 Vol.: 94
Chanel 1 Note Off - Duracao: 484860 Nota: C1 Vol.: 94
Chanel 1 Note On - Duracao: 484860 Nota: C1 Vol.: 89
Chanel 1 Note Off - Duracao: 484980 Nota: C1 Vol.: 89
Chanel 1 Note On - Duracao: 484980 Nota: C1 Vol.: 84
Chanel 10 Note Off - Duracao: 485040 Nota: C1 Vol.: 68
Chanel 10 Note On - Duracao: 485040 Nota: C1 Vol.: 71
Chanel 1 Note Off - Duracao: 485100 Nota: C1 Vol.: 84
Chanel 1 Note On - Duracao: 485100 Nota: C1 Vol.: 85
Chanel 1 Note Off - Duracao: 485220 Nota: C1 Vol.: 85
Chanel 1 Note On - Duracao: 485220 Nota: C1 Vol.: 85
Chanel 1 Note Off - Duracao: 485340 Nota: C1 Vol.: 85
Chanel 1 Note On - Duracao: 485340 Nota: C1 Vol.: 88
Chanel 7 Note Off - Duracao: 485400 Nota: C1 Vol.: 44
Chanel 7 Note On - Duracao: 485400 Nota: C1 Vol.: 42
Chanel 1 Note Off - Duracao: 485460 Nota: C1 Vol.: 88
Chanel 1 Note On - Duracao: 485460 Nota: C1 Vol.: 96
Chanel 1 Note Off - Duracao: 485520 Nota: C1 Vol.: 96
Chanel 1 Note On - Duracao: 485520 Nota: C1 Vol.: 96
Chanel 10 Note Off - Duracao: 485520 Nota: C1 Vol.: 71
Chanel 10 Note On - Duracao: 485520 Nota: C1 Vol.: 74
Chanel 1 Note Off - Duracao: 485580 Nota: C1 Vol.: 96
Chanel 1 Note On - Duracao: 485580 Nota: C1 Vol.: 96
Chanel 1 Note Off - Duracao: 485640 Nota: C1 Vol.: 96
Chanel 1 Note On - Duracao: 485640 Nota: C1 Vol.: 88
Chanel 1 Note Off - Duracao: 485760 Nota: C1 Vol.: 88
Chanel 1 Note On - Duracao: 485760 Nota: C1 Vol.: 76
Chanel 2 Note Off - Duracao: 485760 Nota: C1 Vol.: 91
Chanel 2 Note On - Duracao: 485760 Nota: C1 Vol.: 95
Chanel 3 Note Off - Duracao: 485760 Nota: C1 Vol.: 55
Chanel 3 Note On - Duracao: 485760 Nota: C1 Vol.: 64
Chanel 9 Note Off - Duracao: 485760 Nota: C1 Vol.: 56
Chanel 9 Note On - Duracao: 485760 Nota: C1 Vol.: 67
Chanel 1 Note Off - Duracao: 486000 Nota: C1 Vol.: 76
Chanel 1 Note On - Duracao: 486000 Nota: C1 Vol.: 83
Chanel 10 Note Off - Duracao: 486000 Nota: C1 Vol.: 74
Chanel 10 Note On - Duracao: 486000 Nota: C1 Vol.: 71
Chanel 1 Note Off - Duracao: 486120 Nota: C1 Vol.: 83
Chanel 1 Note On - Duracao: 486120 Nota: C1 Vol.: 93
Chanel 1 Note Off - Duracao: 486180 Nota: C1 Vol.: 93
Chanel 1 Note On - Duracao: 486180 Nota: C1 Vol.: 79
Chanel 6 Note Off - Duracao: 486300 Nota: C1 Vol.: 65
Chanel 6 Note On - Duracao: 486300 Nota: C1 Vol.: 81
Chanel 5 Note Off - Duracao: 486360 Nota: C1 Vol.: 46
Chanel 5 Note On - Duracao: 486360 Nota: C1 Vol.: 80
Chanel 1 Note Off - Duracao: 486420 Nota: C1 Vol.: 79
Chanel 1 Note On - Duracao: 486420 Nota: C1 Vol.: 77
Chanel 10 Note Off - Duracao: 486480 Nota: C1 Vol.: 71
Chanel 10 Note On - Duracao: 486480 Nota: C1 Vol.: 71
Chanel 5 Note Off - Duracao: 486600 Nota: C1 Vol.: 80
Chanel 5 Note On - Duracao: 486600 Nota: C1 Vol.: 84
Chanel 1 Note Off - Duracao: 486660 Nota: C1 Vol.: 77
Chanel 1 Note On - Duracao: 486660 Nota: C1 Vol.: 87
Chanel 1 Note Off - Duracao: 486780 Nota: C1 Vol.: 87
Chanel 1 Note On - Duracao: 486780 Nota: C1 Vol.: 89
Chanel 5 Note Off - Duracao: 486840 Nota: C1 Vol.: 84
Chanel 5 Note On - Duracao: 486840 Nota: C1 Vol.: 59
Chanel 1 Note Off - Duracao: 486900 Nota: C1 Vol.: 89
Chanel 1 Note On - Duracao: 486900 Nota: C1 Vol.: 93
Chanel 1 Note Off - Duracao: 486960 Nota: C1 Vol.: 93
Chanel 1 Note On - Duracao: 486960 Nota: C1 Vol.: 95
Chanel 10 Note Off - Duracao: 486960 Nota: C1 Vol.: 71
Chanel 10 Note On - Duracao: 486960 Nota: C1 Vol.: 63
Chanel 1 Note Off - Duracao: 487020 Nota: C1 Vol.: 95
Chanel 1 Note On - Duracao: 487020 Nota: C1 Vol.: 91
Chanel 4 Note Off - Duracao: 487080 Nota: C1 Vol.: 44
Chanel 4 Note On - Duracao: 487080 Nota: C1 Vol.: 78
Chanel 1 Note Off - Duracao: 487140 Nota: C1 Vol.: 91
Chanel 1 Note On - Duracao: 487140 Nota: C1 Vol.: 83
Chanel 6 Note Off - Duracao: 487260 Nota: C1 Vol.: 81
Chanel 6 Note On - Duracao: 487260 Nota: C1 Vol.: 82
Chanel 7 Note Off - Duracao: 487320 Nota: C1 Vol.: 42
Chanel 7 Note On - Duracao: 487320 Nota: C1 Vol.: 40
Chanel 1 Note Off - Duracao: 487380 Nota: C1 Vol.: 83
Chanel 1 Note On - Duracao: 487380 Nota: C1 Vol.: 88
Chanel 4 Note Off - Duracao: 487560 Nota: C1 Vol.: 78
Chanel 4 Note On - Duracao: 487560 Nota: C1 Vol.: 66
Chanel 1 Note Off - Duracao: 487620 Nota: C1 Vol.: 88
Chanel 1 Note On - Duracao: 487620 Nota: C1 Vol.: 84
Chanel 2 Note Off - Duracao: 487680 Nota: C1 Vol.: 95
Chanel 2 Note On - Duracao: 487680 Nota: C1 Vol.: 93
Chanel 3 Note Off - Duracao: 487680 Nota: C1 Vol.: 64
Chanel 3 Note On - Duracao: 487680 Nota: C1 Vol.: 81
Chanel 9 Note Off - Duracao: 487680 Nota: C1 Vol.: 67
Chanel 9 Note On - Duracao: 487680 Nota: C1 Vol.: 68
Chanel 5 Note Off - Duracao: 487800 Nota: C1 Vol.: 59
Chanel 5 Note On - Duracao: 487800 Nota: C1 Vol.: 89
Chanel 1 Note Off - Duracao: 487860 Nota: C1 Vol.: 84
Chanel 1 Note On - Duracao: 487860 Nota: C1 Vol.: 83
Chanel 5 Note Off - Duracao: 487920 Nota: C1 Vol.: 89
Chanel 5 Note On - Duracao: 487920 Nota: C1 Vol.: 89
Chanel 10 Note Off - Duracao: 487920 Nota: C1 Vol.: 63
Chanel 10 Note On - Duracao: 487920 Nota: C1 Vol.: 63
Chanel 5 Note Off - Duracao: 488040 Nota: C1 Vol.: 89
Chanel 5 Note On - Duracao: 488040 Nota: C1 Vol.: 89
Chanel 3 Note Off - Duracao: 488160 Nota: C1 Vol.: 81
Chanel 3 Note On - Duracao: 488160 Nota: C1 Vol.: 83
Chanel 5 Note Off - Duracao: 488160 Nota: C1 Vol.: 89
Chanel 5 Note On - Duracao: 488160 Nota: C1 Vol.: 90
Chanel 6 Note Off - Duracao: 488220 Nota: C1 Vol.: 82
Chanel 6 Note On - Duracao: 488220 Nota: C1 Vol.: 82
Chanel 5 Note Off - Duracao: 488280 Nota: C1 Vol.: 90
Chanel 5 Note On - Duracao: 488280 Nota: C1 Vol.: 90
Chanel 8 Note Off - Duracao: 488280 Nota: C1 Vol.: 55
Chanel 8 Note On - Duracao: 488280 Nota: C1 Vol.: 70
Chanel 1 Note Off - Duracao: 488340 Nota: C1 Vol.: 83
Chanel 1 Note On - Duracao: 488340 Nota: C1 Vol.: 84
Chanel 5 Note Off - Duracao: 488400 Nota: C1 Vol.: 90
Chanel 5 Note On - Duracao: 488400 Nota: C1 Vol.: 89
Chanel 4 Note Off - Duracao: 488520 Nota: C1 Vol.: 66
Chanel 4 Note On - Duracao: 488520 Nota: C1 Vol.: 48
Chanel 5 Note Off - Duracao: 488520 Nota: C1 Vol.: 89
Chanel 5 Note On - Duracao: 488520 Nota: C1 Vol.: 89
Chanel 3 Note Off - Duracao: 488640 Nota: C1 Vol.: 83
Chanel 3 Note On - Duracao: 488640 Nota: C1 Vol.: 72
Chanel 5 Note Off - Duracao: 488640 Nota: C1 Vol.: 89
Chanel 5 Note On - Duracao: 488640 Nota: C1 Vol.: 84
Chanel 1 Note Off - Duracao: 488820 Nota: C1 Vol.: 84
Chanel 1 Note On - Duracao: 488820 Nota: C1 Vol.: 84
Chanel 5 Note Off - Duracao: 488880 Nota: C1 Vol.: 84
Chanel 5 Note On - Duracao: 488880 Nota: C1 Vol.: 50
Chanel 10 Note Off - Duracao: 488880 Nota: C1 Vol.: 63
Chanel 10 Note On - Duracao: 488880 Nota: C1 Vol.: 70
Chanel 6 Note Off - Duracao: 489180 Nota: C1 Vol.: 82
Chanel 6 Note On - Duracao: 489180 Nota: C1 Vol.: 81
Chanel 7 Note Off - Duracao: 489240 Nota: C1 Vol.: 40
Chanel 7 Note On - Duracao: 489240 Nota: C1 Vol.: 43
Chanel 10 Note Off - Duracao: 489360 Nota: C1 Vol.: 70
Chanel 10 Note On - Duracao: 489360 Nota: C1 Vol.: 64
Chanel 3 Note Off - Duracao: 489600 Nota: C1 Vol.: 72
Chanel 3 Note On - Duracao: 489600 Nota: C1 Vol.: 83
Chanel 9 Note Off - Duracao: 489600 Nota: C1 Vol.: 68
Chanel 9 Note On - Duracao: 489600 Nota: C1 Vol.: 55
Chanel 6 Note Off - Duracao: 489660 Nota: C1 Vol.: 81
Chanel 6 Note On - Duracao: 489660 Nota: C1 Vol.: 79
Chanel 3 Note Off - Duracao: 489720 Nota: C1 Vol.: 83
Chanel 3 Note On - Duracao: 489720 Nota: C1 Vol.: 72
Chanel 1 Note Off - Duracao: 489780 Nota: C1 Vol.: 84
Chanel 1 Note On - Duracao: 489780 Nota: C1 Vol.: 85
Chanel 6 Note Off - Duracao: 490140 Nota: C1 Vol.: 79
Chanel 6 Note On - Duracao: 490140 Nota: C1 Vol.: 53
Chanel 3 Note Off - Duracao: 490200 Nota: C1 Vol.: 72
Chanel 3 Note On - Duracao: 490200 Nota: C1 Vol.: 67
Chanel 7 Note Off - Duracao: 490200 Nota: C1 Vol.: 43
Chanel 7 Note On - Duracao: 490200 Nota: C1 Vol.: 48
Chanel 8 Note Off - Duracao: 490200 Nota: C1 Vol.: 70
Chanel 8 Note On - Duracao: 490200 Nota: C1 Vol.: 65
Chanel 10 Note Off - Duracao: 490320 Nota: C1 Vol.: 64
Chanel 10 Note On - Duracao: 490320 Nota: C1 Vol.: 70
Chanel 3 Note Off - Duracao: 490680 Nota: C1 Vol.: 67
Chanel 3 Note On - Duracao: 490680 Nota: C1 Vol.: 71
Chanel 1 Note Off - Duracao: 490740 Nota: C1 Vol.: 85
Chanel 1 Note On - Duracao: 490740 Nota: C1 Vol.: 83
Chanel 5 Note Off - Duracao: 490800 Nota: C1 Vol.: 50
Chanel 5 Note On - Duracao: 490800 Nota: C1 Vol.: 95
Chanel 5 Note Off - Duracao: 490920 Nota: C1 Vol.: 95
Chanel 5 Note On - Duracao: 490920 Nota: C1 Vol.: 47
Chanel 3 Note Off - Duracao: 491160 Nota: C1 Vol.: 71
Chanel 3 Note On - Duracao: 491160 Nota: C1 Vol.: 77
Chanel 7 Note Off - Duracao: 491160 Nota: C1 Vol.: 48
Chanel 7 Note On - Duracao: 491160 Nota: C1 Vol.: 49
Chanel 10 Note Off - Duracao: 491280 Nota: C1 Vol.: 70
Chanel 10 Note On - Duracao: 491280 Nota: C1 Vol.: 65
Chanel 3 Note Off - Duracao: 491400 Nota: C1 Vol.: 77
Chanel 3 Note On - Duracao: 491400 Nota: C1 Vol.: 81
Chanel 2 Note Off - Duracao: 491520 Nota: C1 Vol.: 93
Chanel 2 Note On - Duracao: 491520 Nota: C1 Vol.: 93
Chanel 3 Note Off - Duracao: 491640 Nota: C1 Vol.: 81
Chanel 3 Note On - Duracao: 491640 Nota: C1 Vol.: 78
Chanel 1 Note Off - Duracao: 491700 Nota: C1 Vol.: 83
Chanel 1 Note On - Duracao: 491700 Nota: C1 Vol.: 79
Chanel 3 Note Off - Duracao: 491880 Nota: C1 Vol.: 78
Chanel 3 Note On - Duracao: 491880 Nota: C1 Vol.: 80
Chanel 3 Note Off - Duracao: 492120 Nota: C1 Vol.: 80
Chanel 3 Note On - Duracao: 492120 Nota: C1 Vol.: 77
Chanel 7 Note Off - Duracao: 492120 Nota: C1 Vol.: 49
Chanel 7 Note On - Duracao: 492120 Nota: C1 Vol.: 50
Chanel 8 Note Off - Duracao: 492120 Nota: C1 Vol.: 65
Chanel 8 Note On - Duracao: 492120 Nota: C1 Vol.: 75
Chanel 10 Note Off - Duracao: 492240 Nota: C1 Vol.: 65
Chanel 10 Note On - Duracao: 492240 Nota: C1 Vol.: 71
Chanel 3 Note Off - Duracao: 492360 Nota: C1 Vol.: 77
Chanel 3 Note On - Duracao: 492360 Nota: C1 Vol.: 83
Chanel 4 Note Off - Duracao: 492360 Nota: C1 Vol.: 48
Chanel 4 Note On - Duracao: 492360 Nota: C1 Vol.: 48
Chanel 3 Note Off - Duracao: 492600 Nota: C1 Vol.: 83
Chanel 3 Note On - Duracao: 492600 Nota: C1 Vol.: 96
Chanel 1 Note Off - Duracao: 492660 Nota: C1 Vol.: 79
Chanel 1 Note On - Duracao: 492660 Nota: C1 Vol.: 75
Chanel 3 Note Off - Duracao: 492660 Nota: C1 Vol.: 96
Chanel 3 Note On - Duracao: 492660 Nota: C1 Vol.: 98
Chanel 3 Note Off - Duracao: 492720 Nota: C1 Vol.: 98
Chanel 3 Note On - Duracao: 492720 Nota: C1 Vol.: 82
Chanel 3 Note Off - Duracao: 492960 Nota: C1 Vol.: 82
Chanel 3 Note On - Duracao: 492960 Nota: C1 Vol.: 72
Chanel 7 Note Off - Duracao: 493080 Nota: C1 Vol.: 50
Chanel 7 Note On - Duracao: 493080 Nota: C1 Vol.: 56
Chanel 8 Note Off - Duracao: 493080 Nota: C1 Vol.: 75
Chanel 8 Note On - Duracao: 493080 Nota: C1 Vol.: 71
Chanel 10 Note Off - Duracao: 493200 Nota: C1 Vol.: 71
Chanel 10 Note On - Duracao: 493200 Nota: C1 Vol.: 70
Chanel 3 Note Off - Duracao: 493440 Nota: C1 Vol.: 72
Chanel 3 Note On - Duracao: 493440 Nota: C1 Vol.: 80
Chanel 9 Note Off - Duracao: 493440 Nota: C1 Vol.: 55
Chanel 9 Note On - Duracao: 493440 Nota: C1 Vol.: 67
Chanel 1 Note Off - Duracao: 493620 Nota: C1 Vol.: 75
Chanel 1 Note On - Duracao: 493620 Nota: C1 Vol.: 75
Chanel 3 Note Off - Duracao: 493680 Nota: C1 Vol.: 80
Chanel 3 Note On - Duracao: 493680 Nota: C1 Vol.: 83
Chanel 3 Note Off - Duracao: 493920 Nota: C1 Vol.: 83
Chanel 3 Note On - Duracao: 493920 Nota: C1 Vol.: 79
Chanel 6 Note Off - Duracao: 493980 Nota: C1 Vol.: 53
Chanel 6 Note On - Duracao: 493980 Nota: C1 Vol.: 66
Chanel 7 Note Off - Duracao: 494040 Nota: C1 Vol.: 56
Chanel 7 Note On - Duracao: 494040 Nota: C1 Vol.: 72
Chanel 8 Note Off - Duracao: 494040 Nota: C1 Vol.: 71
Chanel 8 Note On - Duracao: 494040 Nota: C1 Vol.: 69
Chanel 10 Note Off - Duracao: 494160 Nota: C1 Vol.: 70
Chanel 10 Note On - Duracao: 494160 Nota: C1 Vol.: 62
Chanel 3 Note Off - Duracao: 494400 Nota: C1 Vol.: 79
Chanel 3 Note On - Duracao: 494400 Nota: C1 Vol.: 76
Chanel 1 Note Off - Duracao: 494580 Nota: C1 Vol.: 75
Chanel 1 Note On - Duracao: 494580 Nota: C1 Vol.: 79
Chanel 5 Note Off - Duracao: 494760 Nota: C1 Vol.: 47
Chanel 5 Note On - Duracao: 494760 Nota: C1 Vol.: 96
Chanel 3 Note Off - Duracao: 494880 Nota: C1 Vol.: 76
Chanel 3 Note On - Duracao: 494880 Nota: C1 Vol.: 78
Chanel 5 Note Off - Duracao: 494880 Nota: C1 Vol.: 96
Chanel 5 Note On - Duracao: 494880 Nota: C1 Vol.: 98
Chanel 5 Note Off - Duracao: 494940 Nota: C1 Vol.: 98
Chanel 5 Note On - Duracao: 494940 Nota: C1 Vol.: 100
Chanel 5 Note Off - Duracao: 495000 Nota: C1 Vol.: 100
Chanel 5 Note On - Duracao: 495000 Nota: C1 Vol.: 100
Chanel 7 Note Off - Duracao: 495000 Nota: C1 Vol.: 72
Chanel 7 Note On - Duracao: 495000 Nota: C1 Vol.: 72
Chanel 5 Note Off - Duracao: 495060 Nota: C1 Vol.: 100
Chanel 5 Note On - Duracao: 495060 Nota: C1 Vol.: 97
Chanel 3 Note Off - Duracao: 495120 Nota: C1 Vol.: 78
Chanel 3 Note On - Duracao: 495120 Nota: C1 Vol.: 79
Chanel 5 Note Off - Duracao: 495120 Nota: C1 Vol.: 97
Chanel 5 Note On - Duracao: 495120 Nota: C1 Vol.: 100
Chanel 10 Note Off - Duracao: 495120 Nota: C1 Vol.: 62
Chanel 10 Note On - Duracao: 495120 Nota: C1 Vol.: 56
Chanel 5 Note Off - Duracao: 495180 Nota: C1 Vol.: 100
Chanel 5 Note On - Duracao: 495180 Nota: C1 Vol.: 100
Chanel 5 Note Off - Duracao: 495240 Nota: C1 Vol.: 100
Chanel 5 Note On - Duracao: 495240 Nota: C1 Vol.: 98
Chanel 5 Note Off - Duracao: 495300 Nota: C1 Vol.: 98
Chanel 5 Note On - Duracao: 495300 Nota: C1 Vol.: 97
Chanel 2 Note Off - Duracao: 495360 Nota: C1 Vol.: 93
Chanel 2 Note On - Duracao: 495360 Nota: C1 Vol.: 92
Chanel 3 Note Off - Duracao: 495360 Nota: C1 Vol.: 79
Chanel 3 Note On - Duracao: 495360 Nota: C1 Vol.: 75
Chanel 5 Note Off - Duracao: 495360 Nota: C1 Vol.: 97
Chanel 5 Note On - Duracao: 495360 Nota: C1 Vol.: 94
Chanel 5 Note Off - Duracao: 495480 Nota: C1 Vol.: 94
Chanel 5 Note On - Duracao: 495480 Nota: C1 Vol.: 99
Chanel 1 Note Off - Duracao: 495540 Nota: C1 Vol.: 79
Chanel 1 Note On - Duracao: 495540 Nota: C1 Vol.: 75
Chanel 5 Note Off - Duracao: 495540 Nota: C1 Vol.: 99
Chanel 5 Note On - Duracao: 495540 Nota: C1 Vol.: 97
Chanel 5 Note Off - Duracao: 495600 Nota: C1 Vol.: 97
Chanel 5 Note On - Duracao: 495600 Nota: C1 Vol.: 95
Chanel 5 Note Off - Duracao: 495660 Nota: C1 Vol.: 95
Chanel 5 Note On - Duracao: 495660 Nota: C1 Vol.: 95
Chanel 5 Note Off - Duracao: 495720 Nota: C1 Vol.: 95
Chanel 5 Note On - Duracao: 495720 Nota: C1 Vol.: 96
Chanel 5 Note Off - Duracao: 495780 Nota: C1 Vol.: 96
Chanel 5 Note On - Duracao: 495780 Nota: C1 Vol.: 97
Chanel 3 Note Off - Duracao: 495840 Nota: C1 Vol.: 75
Chanel 3 Note On - Duracao: 495840 Nota: C1 Vol.: 78
Chanel 5 Note Off - Duracao: 495840 Nota: C1 Vol.: 97
Chanel 5 Note On - Duracao: 495840 Nota: C1 Vol.: 99
Chanel 5 Note Off - Duracao: 495900 Nota: C1 Vol.: 99
Chanel 5 Note On - Duracao: 495900 Nota: C1 Vol.: 95
Chanel 6 Note Off - Duracao: 495900 Nota: C1 Vol.: 66
Chanel 6 Note On - Duracao: 495900 Nota: C1 Vol.: 70
Chanel 5 Note Off - Duracao: 495960 Nota: C1 Vol.: 95
Chanel 5 Note On - Duracao: 495960 Nota: C1 Vol.: 93
Chanel 7 Note Off - Duracao: 495960 Nota: C1 Vol.: 72
Chanel 7 Note On - Duracao: 495960 Nota: C1 Vol.: 70
Chanel 8 Note Off - Duracao: 495960 Nota: C1 Vol.: 69
Chanel 8 Note On - Duracao: 495960 Nota: C1 Vol.: 68
Chanel 5 Note Off - Duracao: 496080 Nota: C1 Vol.: 93
Chanel 5 Note On - Duracao: 496080 Nota: C1 Vol.: 94
Chanel 4 Note Off - Duracao: 496200 Nota: C1 Vol.: 48
Chanel 4 Note On - Duracao: 496200 Nota: C1 Vol.: 49
Chanel 5 Note Off - Duracao: 496200 Nota: C1 Vol.: 94
Chanel 5 Note On - Duracao: 496200 Nota: C1 Vol.: 87
Chanel 3 Note Off - Duracao: 496320 Nota: C1 Vol.: 78
Chanel 3 Note On - Duracao: 496320 Nota: C1 Vol.: 85
Chanel 5 Note Off - Duracao: 496440 Nota: C1 Vol.: 87
Chanel 5 Note On - Duracao: 496440 Nota: C1 Vol.: 89
Chanel 1 Note Off - Duracao: 496500 Nota: C1 Vol.: 75
Chanel 1 Note On - Duracao: 496500 Nota: C1 Vol.: 66
Chanel 5 Note Off - Duracao: 496680 Nota: C1 Vol.: 89
Chanel 5 Note On - Duracao: 496680 Nota: C1 Vol.: 88
Chanel 3 Note Off - Duracao: 496800 Nota: C1 Vol.: 85
Chanel 3 Note On - Duracao: 496800 Nota: C1 Vol.: 62
Chanel 6 Note Off - Duracao: 496860 Nota: C1 Vol.: 70
Chanel 6 Note On - Duracao: 496860 Nota: C1 Vol.: 62
Chanel 5 Note Off - Duracao: 496920 Nota: C1 Vol.: 88
Chanel 5 Note On - Duracao: 496920 Nota: C1 Vol.: 78
Chanel 10 Note Off - Duracao: 497040 Nota: C1 Vol.: 56
Chanel 10 Note On - Duracao: 497040 Nota: C1 Vol.: 61
Chanel 5 Note Off - Duracao: 497160 Nota: C1 Vol.: 78
Chanel 5 Note On - Duracao: 497160 Nota: C1 Vol.: 63
Chanel 9 Note Off - Duracao: 497280 Nota: C1 Vol.: 67
Chanel 9 Note On - Duracao: 497280 Nota: C1 Vol.: 86
Chanel 6 Note Off - Duracao: 497820 Nota: C1 Vol.: 62
Chanel 6 Note On - Duracao: 497820 Nota: C1 Vol.: 44
Chanel 7 Note Off - Duracao: 497880 Nota: C1 Vol.: 70
Chanel 7 Note On - Duracao: 497880 Nota: C1 Vol.: 62
Chanel 8 Note Off - Duracao: 497880 Nota: C1 Vol.: 68
Chanel 8 Note On - Duracao: 497880 Nota: C1 Vol.: 65
Chanel 10 Note Off - Duracao: 498000 Nota: C1 Vol.: 61
Chanel 10 Note On - Duracao: 498000 Nota: C1 Vol.: 66
Chanel 5 Note Off - Duracao: 498120 Nota: C1 Vol.: 63
Chanel 5 Note On - Duracao: 498120 Nota: C1 Vol.: 73
Chanel 9 Note Off - Duracao: 498240 Nota: C1 Vol.: 86
Chanel 9 Note On - Duracao: 498240 Nota: C1 Vol.: 81
Chanel 1 Note Off - Duracao: 498420 Nota: C1 Vol.: 66
Chanel 1 Note On - Duracao: 498420 Nota: C1 Vol.: 72
Chanel 5 Note Off - Duracao: 498600 Nota: C1 Vol.: 73
Chanel 5 Note On - Duracao: 498600 Nota: C1 Vol.: 73
Chanel 3 Note Off - Duracao: 498720 Nota: C1 Vol.: 62
Chanel 3 Note On - Duracao: 498720 Nota: C1 Vol.: 60
Chanel 10 Note Off - Duracao: 498960 Nota: C1 Vol.: 66
Chanel 10 Note On - Duracao: 498960 Nota: C1 Vol.: 65
Chanel 5 Note Off - Duracao: 499080 Nota: C1 Vol.: 73
Chanel 5 Note On - Duracao: 499080 Nota: C1 Vol.: 65
Chanel 2 Note Off - Duracao: 499200 Nota: C1 Vol.: 92
Chanel 2 Note On - Duracao: 499200 Nota: C1 Vol.: 91
Chanel 6 Note Off - Duracao: 499740 Nota: C1 Vol.: 44
Chanel 6 Note On - Duracao: 499740 Nota: C1 Vol.: 52
Chanel 7 Note Off - Duracao: 499800 Nota: C1 Vol.: 62
Chanel 7 Note On - Duracao: 499800 Nota: C1 Vol.: 71
Chanel 8 Note Off - Duracao: 499800 Nota: C1 Vol.: 65
Chanel 8 Note On - Duracao: 499800 Nota: C1 Vol.: 69
Chanel 10 Note Off - Duracao: 499920 Nota: C1 Vol.: 65
Chanel 10 Note On - Duracao: 499920 Nota: C1 Vol.: 69
Chanel 4 Note Off - Duracao: 500040 Nota: C1 Vol.: 49
Chanel 4 Note On - Duracao: 500040 Nota: C1 Vol.: 58
Chanel 9 Note Off - Duracao: 500160 Nota: C1 Vol.: 81
Chanel 9 Note On - Duracao: 500160 Nota: C1 Vol.: 84
Chanel 1 Note Off - Duracao: 500340 Nota: C1 Vol.: 72
Chanel 1 Note On - Duracao: 500340 Nota: C1 Vol.: 73
Chanel 3 Note Off - Duracao: 500640 Nota: C1 Vol.: 60
Chanel 3 Note On - Duracao: 500640 Nota: C1 Vol.: 59
Chanel 6 Note Off - Duracao: 500700 Nota: C1 Vol.: 52
Chanel 6 Note On - Duracao: 500700 Nota: C1 Vol.: 43
Chanel 7 Note Off - Duracao: 500760 Nota: C1 Vol.: 71
Chanel 7 Note On - Duracao: 500760 Nota: C1 Vol.: 70
Chanel 10 Note Off - Duracao: 500880 Nota: C1 Vol.: 69
Chanel 10 Note On - Duracao: 500880 Nota: C1 Vol.: 67
Chanel 5 Note Off - Duracao: 501000 Nota: C1 Vol.: 65
Chanel 5 Note On - Duracao: 501000 Nota: C1 Vol.: 67
Chanel 2 Note Off - Duracao: 501120 Nota: C1 Vol.: 91
Chanel 2 Note On - Duracao: 501120 Nota: C1 Vol.: 75
Chanel 8 Note Off - Duracao: 501720 Nota: C1 Vol.: 69
Chanel 8 Note On - Duracao: 501720 Nota: C1 Vol.: 63
Chanel 10 Note Off - Duracao: 501840 Nota: C1 Vol.: 67
Chanel 10 Note On - Duracao: 501840 Nota: C1 Vol.: 60
Chanel 4 Note Off - Duracao: 501960 Nota: C1 Vol.: 58
Chanel 4 Note On - Duracao: 501960 Nota: C1 Vol.: 54
Chanel 9 Note Off - Duracao: 502080 Nota: C1 Vol.: 84
Chanel 9 Note On - Duracao: 502080 Nota: C1 Vol.: 81
Chanel 1 Note Off - Duracao: 502260 Nota: C1 Vol.: 73
Chanel 1 Note On - Duracao: 502260 Nota: C1 Vol.: 80
Chanel 3 Note Off - Duracao: 502560 Nota: C1 Vol.: 59
Chanel 3 Note On - Duracao: 502560 Nota: C1 Vol.: 62
Chanel 6 Note Off - Duracao: 502620 Nota: C1 Vol.: 43
Chanel 6 Note On - Duracao: 502620 Nota: C1 Vol.: 42
Chanel 7 Note Off - Duracao: 502680 Nota: C1 Vol.: 70
Chanel 7 Note On - Duracao: 502680 Nota: C1 Vol.: 71
Chanel 5 Note Off - Duracao: 502920 Nota: C1 Vol.: 67
Chanel 5 Note On - Duracao: 502920 Nota: C1 Vol.: 68
Chanel 2 Note Off - Duracao: 503040 Nota: C1 Vol.: 75
Chanel 2 Note On - Duracao: 503040 Nota: C1 Vol.: 58
Chanel 1 Note Off - Duracao: 503220 Nota: C1 Vol.: 80
Chanel 1 Note On - Duracao: 503220 Nota: C1 Vol.: 84
Chanel 8 Note Off - Duracao: 503640 Nota: C1 Vol.: 63
Chanel 8 Note On - Duracao: 503640 Nota: C1 Vol.: 59
Chanel 10 Note Off - Duracao: 503760 Nota: C1 Vol.: 60
Chanel 10 Note On - Duracao: 503760 Nota: C1 Vol.: 63
Chanel 4 Note Off - Duracao: 503880 Nota: C1 Vol.: 54
Chanel 4 Note On - Duracao: 503880 Nota: C1 Vol.: 46
Chanel 1 Note Off - Duracao: 504180 Nota: C1 Vol.: 84
Chanel 1 Note On - Duracao: 504180 Nota: C1 Vol.: 87
Chanel 3 Note Off - Duracao: 504480 Nota: C1 Vol.: 62
Chanel 3 Note On - Duracao: 504480 Nota: C1 Vol.: 65
Chanel 6 Note Off - Duracao: 504540 Nota: C1 Vol.: 42
Chanel 6 Note On - Duracao: 504540 Nota: C1 Vol.: 42
Chanel 7 Note Off - Duracao: 504600 Nota: C1 Vol.: 71
Chanel 7 Note On - Duracao: 504600 Nota: C1 Vol.: 83
Chanel 10 Note Off - Duracao: 504720 Nota: C1 Vol.: 63
Chanel 10 Note On - Duracao: 504720 Nota: C1 Vol.: 63
Chanel 5 Note Off - Duracao: 504840 Nota: C1 Vol.: 68
Chanel 5 Note On - Duracao: 504840 Nota: C1 Vol.: 64
Chanel 7 Note Off - Duracao: 505080 Nota: C1 Vol.: 83
Chanel 7 Note On - Duracao: 505080 Nota: C1 Vol.: 68
Chanel 1 Note Off - Duracao: 505140 Nota: C1 Vol.: 87
Chanel 1 Note On - Duracao: 505140 Nota: C1 Vol.: 83
Chanel 3 Note Off - Duracao: 505440 Nota: C1 Vol.: 65
Chanel 3 Note On - Duracao: 505440 Nota: C1 Vol.: 70
Chanel 8 Note Off - Duracao: 505560 Nota: C1 Vol.: 59
Chanel 8 Note On - Duracao: 505560 Nota: C1 Vol.: 58
Chanel 9 Note Off - Duracao: 505920 Nota: C1 Vol.: 81
Chanel 9 Note On - Duracao: 505920 Nota: C1 Vol.: 90
Chanel 1 Note Off - Duracao: 506100 Nota: C1 Vol.: 83
Chanel 1 Note On - Duracao: 506100 Nota: C1 Vol.: 81
Chanel 3 Note Off - Duracao: 506400 Nota: C1 Vol.: 70
Chanel 3 Note On - Duracao: 506400 Nota: C1 Vol.: 79
Chanel 6 Note Off - Duracao: 506460 Nota: C1 Vol.: 42
Chanel 6 Note On - Duracao: 506460 Nota: C1 Vol.: 40
Chanel 10 Note Off - Duracao: 506640 Nota: C1 Vol.: 63
Chanel 10 Note On - Duracao: 506640 Nota: C1 Vol.: 61
Chanel 5 Note Off - Duracao: 506760 Nota: C1 Vol.: 64
Chanel 5 Note On - Duracao: 506760 Nota: C1 Vol.: 63
Chanel 2 Note Off - Duracao: 506880 Nota: C1 Vol.: 58
Chanel 2 Note On - Duracao: 506880 Nota: C1 Vol.: 84
Chanel 3 Note Off - Duracao: 506880 Nota: C1 Vol.: 79
Chanel 3 Note On - Duracao: 506880 Nota: C1 Vol.: 63
Chanel 7 Note Off - Duracao: 507000 Nota: C1 Vol.: 68
Chanel 7 Note On - Duracao: 507000 Nota: C1 Vol.: 61
Chanel 1 Note Off - Duracao: 507060 Nota: C1 Vol.: 81
Chanel 1 Note On - Duracao: 507060 Nota: C1 Vol.: 82
Chanel 2 Note Off - Duracao: 507360 Nota: C1 Vol.: 84
Chanel 2 Note On - Duracao: 507360 Nota: C1 Vol.: 78
Chanel 8 Note Off - Duracao: 507480 Nota: C1 Vol.: 58
Chanel 8 Note On - Duracao: 507480 Nota: C1 Vol.: 59
Chanel 4 Note Off - Duracao: 507720 Nota: C1 Vol.: 46
Chanel 4 Note On - Duracao: 507720 Nota: C1 Vol.: 57
Chanel 2 Note Off - Duracao: 507840 Nota: C1 Vol.: 78
Chanel 2 Note On - Duracao: 507840 Nota: C1 Vol.: 65
Chanel 9 Note Off - Duracao: 507840 Nota: C1 Vol.: 90
Chanel 9 Note On - Duracao: 507840 Nota: C1 Vol.: 87
Chanel 1 Note Off - Duracao: 508020 Nota: C1 Vol.: 82
Chanel 1 Note On - Duracao: 508020 Nota: C1 Vol.: 83
Chanel 6 Note Off - Duracao: 508380 Nota: C1 Vol.: 40
Chanel 6 Note On - Duracao: 508380 Nota: C1 Vol.: 43
Chanel 10 Note Off - Duracao: 508560 Nota: C1 Vol.: 61
Chanel 10 Note On - Duracao: 508560 Nota: C1 Vol.: 65
Chanel 5 Note Off - Duracao: 508680 Nota: C1 Vol.: 63
Chanel 5 Note On - Duracao: 508680 Nota: C1 Vol.: 69
Chanel 2 Note Off - Duracao: 508800 Nota: C1 Vol.: 65
Chanel 2 Note On - Duracao: 508800 Nota: C1 Vol.: 71
Chanel 3 Note Off - Duracao: 508800 Nota: C1 Vol.: 63
Chanel 3 Note On - Duracao: 508800 Nota: C1 Vol.: 70
Chanel 7 Note Off - Duracao: 508920 Nota: C1 Vol.: 61
Chanel 7 Note On - Duracao: 508920 Nota: C1 Vol.: 62
Chanel 1 Note Off - Duracao: 508980 Nota: C1 Vol.: 83
Chanel 1 Note On - Duracao: 508980 Nota: C1 Vol.: 84
Chanel 2 Note Off - Duracao: 509280 Nota: C1 Vol.: 71
Chanel 2 Note On - Duracao: 509280 Nota: C1 Vol.: 67
Chanel 6 Note Off - Duracao: 509340 Nota: C1 Vol.: 43
Chanel 6 Note On - Duracao: 509340 Nota: C1 Vol.: 40
Chanel 8 Note Off - Duracao: 509400 Nota: C1 Vol.: 59
Chanel 8 Note On - Duracao: 509400 Nota: C1 Vol.: 60
Chanel 1 Note Off - Duracao: 509460 Nota: C1 Vol.: 84
Chanel 1 Note On - Duracao: 509460 Nota: C1 Vol.: 75
Chanel 4 Note Off - Duracao: 509640 Nota: C1 Vol.: 57
Chanel 4 Note On - Duracao: 509640 Nota: C1 Vol.: 91
Chanel 2 Note Off - Duracao: 509760 Nota: C1 Vol.: 67
Chanel 2 Note On - Duracao: 509760 Nota: C1 Vol.: 66
Chanel 3 Note Off - Duracao: 509760 Nota: C1 Vol.: 70
Chanel 3 Note On - Duracao: 509760 Nota: C1 Vol.: 68
Chanel 4 Note Off - Duracao: 509760 Nota: C1 Vol.: 91
Chanel 4 Note On - Duracao: 509760 Nota: C1 Vol.: 91
Chanel 9 Note Off - Duracao: 509760 Nota: C1 Vol.: 87
Chanel 9 Note On - Duracao: 509760 Nota: C1 Vol.: 80
Chanel 4 Note Off - Duracao: 509880 Nota: C1 Vol.: 91
Chanel 4 Note On - Duracao: 509880 Nota: C1 Vol.: 97
Chanel 4 Note Off - Duracao: 509940 Nota: C1 Vol.: 97
Chanel 4 Note On - Duracao: 509940 Nota: C1 Vol.: 99
Chanel 4 Note Off - Duracao: 510000 Nota: C1 Vol.: 99
Chanel 4 Note On - Duracao: 510000 Nota: C1 Vol.: 98
Chanel 4 Note Off - Duracao: 510060 Nota: C1 Vol.: 98
Chanel 4 Note On - Duracao: 510060 Nota: C1 Vol.: 100
Chanel 4 Note Off - Duracao: 510120 Nota: C1 Vol.: 100
Chanel 4 Note On - Duracao: 510120 Nota: C1 Vol.: 100
Chanel 4 Note Off - Duracao: 510180 Nota: C1 Vol.: 100
Chanel 4 Note On - Duracao: 510180 Nota: C1 Vol.: 99
Chanel 2 Note Off - Duracao: 510240 Nota: C1 Vol.: 66
Chanel 2 Note On - Duracao: 510240 Nota: C1 Vol.: 66
Chanel 4 Note Off - Duracao: 510240 Nota: C1 Vol.: 99
Chanel 4 Note On - Duracao: 510240 Nota: C1 Vol.: 97
Chanel 6 Note Off - Duracao: 510300 Nota: C1 Vol.: 40
Chanel 6 Note On - Duracao: 510300 Nota: C1 Vol.: 40
Chanel 4 Note Off - Duracao: 510360 Nota: C1 Vol.: 97
Chanel 4 Note On - Duracao: 510360 Nota: C1 Vol.: 52
Chanel 1 Note Off - Duracao: 510420 Nota: C1 Vol.: 75
Chanel 1 Note On - Duracao: 510420 Nota: C1 Vol.: 78
Chanel 10 Note Off - Duracao: 510480 Nota: C1 Vol.: 65
Chanel 10 Note On - Duracao: 510480 Nota: C1 Vol.: 70
Chanel 5 Note Off - Duracao: 510600 Nota: C1 Vol.: 69
Chanel 5 Note On - Duracao: 510600 Nota: C1 Vol.: 85
Chanel 2 Note Off - Duracao: 510720 Nota: C1 Vol.: 66
Chanel 2 Note On - Duracao: 510720 Nota: C1 Vol.: 64
Chanel 3 Note Off - Duracao: 510720 Nota: C1 Vol.: 68
Chanel 3 Note On - Duracao: 510720 Nota: C1 Vol.: 67
Chanel 7 Note Off - Duracao: 510840 Nota: C1 Vol.: 62
Chanel 7 Note On - Duracao: 510840 Nota: C1 Vol.: 65
Chanel 1 Note Off - Duracao: 510900 Nota: C1 Vol.: 78
Chanel 1 Note On - Duracao: 510900 Nota: C1 Vol.: 83
Chanel 2 Note Off - Duracao: 511200 Nota: C1 Vol.: 64
Chanel 2 Note On - Duracao: 511200 Nota: C1 Vol.: 65
Chanel 6 Note Off - Duracao: 511260 Nota: C1 Vol.: 40
Chanel 6 Note On - Duracao: 511260 Nota: C1 Vol.: 40
Chanel 8 Note Off - Duracao: 511320 Nota: C1 Vol.: 60
Chanel 8 Note On - Duracao: 511320 Nota: C1 Vol.: 61
Chanel 1 Note Off - Duracao: 511380 Nota: C1 Vol.: 83
Chanel 1 Note On - Duracao: 511380 Nota: C1 Vol.: 86
Chanel 5 Note Off - Duracao: 511560 Nota: C1 Vol.: 85
Chanel 5 Note On - Duracao: 511560 Nota: C1 Vol.: 91
Chanel 1 Note Off - Duracao: 511620 Nota: C1 Vol.: 86
Chanel 1 Note On - Duracao: 511620 Nota: C1 Vol.: 87
Chanel 2 Note Off - Duracao: 511680 Nota: C1 Vol.: 65
Chanel 2 Note On - Duracao: 511680 Nota: C1 Vol.: 64
Chanel 3 Note Off - Duracao: 511680 Nota: C1 Vol.: 67
Chanel 3 Note On - Duracao: 511680 Nota: C1 Vol.: 63
Chanel 9 Note Off - Duracao: 511680 Nota: C1 Vol.: 80
Chanel 9 Note On - Duracao: 511680 Nota: C1 Vol.: 91
Chanel 7 Note Off - Duracao: 511800 Nota: C1 Vol.: 65
Chanel 7 Note On - Duracao: 511800 Nota: C1 Vol.: 61
Chanel 1 Note Off - Duracao: 511860 Nota: C1 Vol.: 87
Chanel 1 Note On - Duracao: 511860 Nota: C1 Vol.: 83
Chanel 5 Note Off - Duracao: 512040 Nota: C1 Vol.: 91
Chanel 5 Note On - Duracao: 512040 Nota: C1 Vol.: 88
Chanel 1 Note Off - Duracao: 512100 Nota: C1 Vol.: 83
Chanel 1 Note On - Duracao: 512100 Nota: C1 Vol.: 81
Chanel 2 Note Off - Duracao: 512160 Nota: C1 Vol.: 64
Chanel 2 Note On - Duracao: 512160 Nota: C1 Vol.: 65
Chanel 9 Note Off - Duracao: 512160 Nota: C1 Vol.: 91
Chanel 9 Note On - Duracao: 512160 Nota: C1 Vol.: 87
Chanel 6 Note Off - Duracao: 512220 Nota: C1 Vol.: 40
Chanel 6 Note On - Duracao: 512220 Nota: C1 Vol.: 41
Chanel 4 Note Off - Duracao: 512280 Nota: C1 Vol.: 52
Chanel 4 Note On - Duracao: 512280 Nota: C1 Vol.: 54
Chanel 10 Note Off - Duracao: 512400 Nota: C1 Vol.: 70
Chanel 10 Note On - Duracao: 512400 Nota: C1 Vol.: 73
Chanel 5 Note Off - Duracao: 512520 Nota: C1 Vol.: 88
Chanel 5 Note On - Duracao: 512520 Nota: C1 Vol.: 78
Chanel 1 Note Off - Duracao: 512580 Nota: C1 Vol.: 81
Chanel 1 Note On - Duracao: 512580 Nota: C1 Vol.: 93
Chanel 9 Note Off - Duracao: 512640 Nota: C1 Vol.: 87
Chanel 9 Note On - Duracao: 512640 Nota: C1 Vol.: 88
Chanel 1 Note Off - Duracao: 512700 Nota: C1 Vol.: 93
Chanel 1 Note On - Duracao: 512700 Nota: C1 Vol.: 97
Chanel 1 Note Off - Duracao: 512760 Nota: C1 Vol.: 97
Chanel 1 Note On - Duracao: 512760 Nota: C1 Vol.: 96
Chanel 1 Note Off - Duracao: 512880 Nota: C1 Vol.: 96
Chanel 1 Note On - Duracao: 512880 Nota: C1 Vol.: 60
Chanel 2 Note Off - Duracao: 513120 Nota: C1 Vol.: 65
Chanel 2 Note On - Duracao: 513120 Nota: C1 Vol.: 82
Chanel 9 Note Off - Duracao: 513120 Nota: C1 Vol.: 88
Chanel 9 Note On - Duracao: 513120 Nota: C1 Vol.: 85
Chanel 6 Note Off - Duracao: 513180 Nota: C1 Vol.: 41
Chanel 6 Note On - Duracao: 513180 Nota: C1 Vol.: 47
Chanel 8 Note Off - Duracao: 513240 Nota: C1 Vol.: 61
Chanel 8 Note On - Duracao: 513240 Nota: C1 Vol.: 65
Chanel 10 Note Off - Duracao: 513360 Nota: C1 Vol.: 73
Chanel 10 Note On - Duracao: 513360 Nota: C1 Vol.: 77
Chanel 5 Note Off - Duracao: 513480 Nota: C1 Vol.: 78
Chanel 5 Note On - Duracao: 513480 Nota: C1 Vol.: 75
Chanel 2 Note Off - Duracao: 513600 Nota: C1 Vol.: 82
Chanel 2 Note On - Duracao: 513600 Nota: C1 Vol.: 83
Chanel 3 Note Off - Duracao: 513600 Nota: C1 Vol.: 63
Chanel 3 Note On - Duracao: 513600 Nota: C1 Vol.: 68
Chanel 6 Note Off - Duracao: 513660 Nota: C1 Vol.: 47
Chanel 6 Note On - Duracao: 513660 Nota: C1 Vol.: 48
Chanel 7 Note Off - Duracao: 513720 Nota: C1 Vol.: 61
Chanel 7 Note On - Duracao: 513720 Nota: C1 Vol.: 81
Chanel 2 Note Off - Duracao: 513840 Nota: C1 Vol.: 83
Chanel 2 Note On - Duracao: 513840 Nota: C1 Vol.: 76
Chanel 9 Note Off - Duracao: 514080 Nota: C1 Vol.: 85
Chanel 9 Note On - Duracao: 514080 Nota: C1 Vol.: 85
Chanel 6 Note Off - Duracao: 514140 Nota: C1 Vol.: 48
Chanel 6 Note On - Duracao: 514140 Nota: C1 Vol.: 51
Chanel 4 Note Off - Duracao: 514200 Nota: C1 Vol.: 54
Chanel 4 Note On - Duracao: 514200 Nota: C1 Vol.: 52
Chanel 7 Note Off - Duracao: 514200 Nota: C1 Vol.: 81
Chanel 7 Note On - Duracao: 514200 Nota: C1 Vol.: 89
Chanel 8 Note Off - Duracao: 514200 Nota: C1 Vol.: 65
Chanel 8 Note On - Duracao: 514200 Nota: C1 Vol.: 64
Chanel 2 Note Off - Duracao: 514320 Nota: C1 Vol.: 76
Chanel 2 Note On - Duracao: 514320 Nota: C1 Vol.: 76
Chanel 10 Note Off - Duracao: 514320 Nota: C1 Vol.: 77
Chanel 10 Note On - Duracao: 514320 Nota: C1 Vol.: 80
Chanel 5 Note Off - Duracao: 514440 Nota: C1 Vol.: 75
Chanel 5 Note On - Duracao: 514440 Nota: C1 Vol.: 71
Chanel 7 Note Off - Duracao: 514440 Nota: C1 Vol.: 89
Chanel 7 Note On - Duracao: 514440 Nota: C1 Vol.: 91
Chanel 2 Note Off - Duracao: 514560 Nota: C1 Vol.: 76
Chanel 2 Note On - Duracao: 514560 Nota: C1 Vol.: 81
Chanel 3 Note Off - Duracao: 514560 Nota: C1 Vol.: 68
Chanel 3 Note On - Duracao: 514560 Nota: C1 Vol.: 71
Chanel 7 Note Off - Duracao: 514560 Nota: C1 Vol.: 91
Chanel 7 Note On - Duracao: 514560 Nota: C1 Vol.: 86
Chanel 6 Note Off - Duracao: 514620 Nota: C1 Vol.: 51
Chanel 6 Note On - Duracao: 514620 Nota: C1 Vol.: 48
Chanel 2 Note Off - Duracao: 514680 Nota: C1 Vol.: 81
Chanel 2 Note On - Duracao: 514680 Nota: C1 Vol.: 81
Chanel 1 Note Off - Duracao: 514800 Nota: C1 Vol.: 60
Chanel 1 Note On - Duracao: 514800 Nota: C1 Vol.: 75
Chanel 2 Note Off - Duracao: 514800 Nota: C1 Vol.: 81
Chanel 2 Note On - Duracao: 514800 Nota: C1 Vol.: 73
Chanel 7 Note Off - Duracao: 514800 Nota: C1 Vol.: 86
Chanel 7 Note On - Duracao: 514800 Nota: C1 Vol.: 89
Chanel 10 Note Off - Duracao: 514800 Nota: C1 Vol.: 80
Chanel 10 Note On - Duracao: 514800 Nota: C1 Vol.: 69
Chanel 7 Note Off - Duracao: 514920 Nota: C1 Vol.: 89
Chanel 7 Note On - Duracao: 514920 Nota: C1 Vol.: 89
Chanel 2 Note Off - Duracao: 515040 Nota: C1 Vol.: 73
Chanel 2 Note On - Duracao: 515040 Nota: C1 Vol.: 76
Chanel 7 Note Off - Duracao: 515040 Nota: C1 Vol.: 89
Chanel 7 Note On - Duracao: 515040 Nota: C1 Vol.: 83
Chanel 9 Note Off - Duracao: 515040 Nota: C1 Vol.: 85
Chanel 9 Note On - Duracao: 515040 Nota: C1 Vol.: 79
Chanel 8 Note Off - Duracao: 515160 Nota: C1 Vol.: 64
Chanel 8 Note On - Duracao: 515160 Nota: C1 Vol.: 62
Chanel 2 Note Off - Duracao: 515280 Nota: C1 Vol.: 76
Chanel 2 Note On - Duracao: 515280 Nota: C1 Vol.: 78
Chanel 7 Note Off - Duracao: 515280 Nota: C1 Vol.: 83
Chanel 7 Note On - Duracao: 515280 Nota: C1 Vol.: 72
Chanel 5 Note Off - Duracao: 515400 Nota: C1 Vol.: 71
Chanel 5 Note On - Duracao: 515400 Nota: C1 Vol.: 71
Chanel 2 Note Off - Duracao: 515520 Nota: C1 Vol.: 78
Chanel 2 Note On - Duracao: 515520 Nota: C1 Vol.: 79
Chanel 3 Note Off - Duracao: 515520 Nota: C1 Vol.: 71
Chanel 3 Note On - Duracao: 515520 Nota: C1 Vol.: 75
Chanel 6 Note Off - Duracao: 515580 Nota: C1 Vol.: 48
Chanel 6 Note On - Duracao: 515580 Nota: C1 Vol.: 50
Chanel 2 Note Off - Duracao: 515760 Nota: C1 Vol.: 79
Chanel 2 Note On - Duracao: 515760 Nota: C1 Vol.: 80
Chanel 7 Note Off - Duracao: 515760 Nota: C1 Vol.: 72
Chanel 7 Note On - Duracao: 515760 Nota: C1 Vol.: 74
Chanel 2 Note Off - Duracao: 516000 Nota: C1 Vol.: 80
Chanel 2 Note On - Duracao: 516000 Nota: C1 Vol.: 83
Chanel 9 Note Off - Duracao: 516000 Nota: C1 Vol.: 79
Chanel 9 Note On - Duracao: 516000 Nota: C1 Vol.: 70
Chanel 2 Note Off - Duracao: 516120 Nota: C1 Vol.: 83
Chanel 2 Note On - Duracao: 516120 Nota: C1 Vol.: 81
Chanel 4 Note Off - Duracao: 516120 Nota: C1 Vol.: 52
Chanel 4 Note On - Duracao: 516120 Nota: C1 Vol.: 97
Chanel 8 Note Off - Duracao: 516120 Nota: C1 Vol.: 62
Chanel 8 Note On - Duracao: 516120 Nota: C1 Vol.: 68
Chanel 4 Note Off - Duracao: 516180 Nota: C1 Vol.: 97
Chanel 4 Note On - Duracao: 516180 Nota: C1 Vol.: 100
Chanel 4 Note Off - Duracao: 516240 Nota: C1 Vol.: 100
Chanel 4 Note On - Duracao: 516240 Nota: C1 Vol.: 100
Chanel 7 Note Off - Duracao: 516240 Nota: C1 Vol.: 74
Chanel 7 Note On - Duracao: 516240 Nota: C1 Vol.: 71
Chanel 4 Note Off - Duracao: 516300 Nota: C1 Vol.: 100
Chanel 4 Note On - Duracao: 516300 Nota: C1 Vol.: 99
Chanel 2 Note Off - Duracao: 516360 Nota: C1 Vol.: 81
Chanel 2 Note On - Duracao: 516360 Nota: C1 Vol.: 80
Chanel 4 Note Off - Duracao: 516360 Nota: C1 Vol.: 99
Chanel 4 Note On - Duracao: 516360 Nota: C1 Vol.: 99
Chanel 5 Note Off - Duracao: 516360 Nota: C1 Vol.: 71
Chanel 5 Note On - Duracao: 516360 Nota: C1 Vol.: 72
Chanel 4 Note Off - Duracao: 516420 Nota: C1 Vol.: 99
Chanel 4 Note On - Duracao: 516420 Nota: C1 Vol.: 100
Chanel 3 Note Off - Duracao: 516480 Nota: C1 Vol.: 75
Chanel 3 Note On - Duracao: 516480 Nota: C1 Vol.: 79
Chanel 4 Note Off - Duracao: 516480 Nota: C1 Vol.: 100
Chanel 4 Note On - Duracao: 516480 Nota: C1 Vol.: 98
Chanel 4 Note Off - Duracao: 516540 Nota: C1 Vol.: 98
Chanel 4 Note On - Duracao: 516540 Nota: C1 Vol.: 99
Chanel 6 Note Off - Duracao: 516540 Nota: C1 Vol.: 50
Chanel 6 Note On - Duracao: 516540 Nota: C1 Vol.: 52
Chanel 2 Note Off - Duracao: 516600 Nota: C1 Vol.: 80
Chanel 2 Note On - Duracao: 516600 Nota: C1 Vol.: 76
Chanel 4 Note Off - Duracao: 516600 Nota: C1 Vol.: 99
Chanel 4 Note On - Duracao: 516600 Nota: C1 Vol.: 95
Chanel 8 Note Off - Duracao: 516600 Nota: C1 Vol.: 68
Chanel 8 Note On - Duracao: 516600 Nota: C1 Vol.: 69
Chanel 1 Note Off - Duracao: 516720 Nota: C1 Vol.: 75
Chanel 1 Note On - Duracao: 516720 Nota: C1 Vol.: 82
Chanel 4 Note Off - Duracao: 516720 Nota: C1 Vol.: 95
Chanel 4 Note On - Duracao: 516720 Nota: C1 Vol.: 75
Chanel 7 Note Off - Duracao: 516720 Nota: C1 Vol.: 71
Chanel 7 Note On - Duracao: 516720 Nota: C1 Vol.: 95
Chanel 10 Note Off - Duracao: 516720 Nota: C1 Vol.: 69
Chanel 10 Note On - Duracao: 516720 Nota: C1 Vol.: 71
Chanel 2 Note Off - Duracao: 516840 Nota: C1 Vol.: 76
Chanel 2 Note On - Duracao: 516840 Nota: C1 Vol.: 77
Chanel 7 Note Off - Duracao: 516840 Nota: C1 Vol.: 95
Chanel 7 Note On - Duracao: 516840 Nota: C1 Vol.: 99
Chanel 3 Note Off - Duracao: 516960 Nota: C1 Vol.: 79
Chanel 3 Note On - Duracao: 516960 Nota: C1 Vol.: 80
Chanel 7 Note Off - Duracao: 516960 Nota: C1 Vol.: 99
Chanel 7 Note On - Duracao: 516960 Nota: C1 Vol.: 87
Chanel 2 Note Off - Duracao: 517080 Nota: C1 Vol.: 77
Chanel 2 Note On - Duracao: 517080 Nota: C1 Vol.: 79
Chanel 8 Note Off - Duracao: 517080 Nota: C1 Vol.: 69
Chanel 8 Note On - Duracao: 517080 Nota: C1 Vol.: 63
Chanel 4 Note Off - Duracao: 517200 Nota: C1 Vol.: 75
Chanel 4 Note On - Duracao: 517200 Nota: C1 Vol.: 67
Chanel 7 Note Off - Duracao: 517200 Nota: C1 Vol.: 87
Chanel 7 Note On - Duracao: 517200 Nota: C1 Vol.: 70
Chanel 2 Note Off - Duracao: 517320 Nota: C1 Vol.: 79
Chanel 2 Note On - Duracao: 517320 Nota: C1 Vol.: 79
Chanel 5 Note Off - Duracao: 517320 Nota: C1 Vol.: 72
Chanel 5 Note On - Duracao: 517320 Nota: C1 Vol.: 73
Chanel 3 Note Off - Duracao: 517440 Nota: C1 Vol.: 80
Chanel 3 Note On - Duracao: 517440 Nota: C1 Vol.: 64
Chanel 6 Note Off - Duracao: 517500 Nota: C1 Vol.: 52
Chanel 6 Note On - Duracao: 517500 Nota: C1 Vol.: 51
Chanel 2 Note Off - Duracao: 517560 Nota: C1 Vol.: 79
Chanel 2 Note On - Duracao: 517560 Nota: C1 Vol.: 72
Chanel 7 Note Off - Duracao: 517680 Nota: C1 Vol.: 70
Chanel 7 Note On - Duracao: 517680 Nota: C1 Vol.: 64
Chanel 10 Note Off - Duracao: 517680 Nota: C1 Vol.: 71
Chanel 10 Note On - Duracao: 517680 Nota: C1 Vol.: 83
Chanel 2 Note Off - Duracao: 517800 Nota: C1 Vol.: 72
Chanel 2 Note On - Duracao: 517800 Nota: C1 Vol.: 71
Chanel 9 Note Off - Duracao: 517920 Nota: C1 Vol.: 70
Chanel 9 Note On - Duracao: 517920 Nota: C1 Vol.: 71
Chanel 8 Note Off - Duracao: 518040 Nota: C1 Vol.: 63
Chanel 8 Note On - Duracao: 518040 Nota: C1 Vol.: 62
Chanel 4 Note Off - Duracao: 518160 Nota: C1 Vol.: 67
Chanel 4 Note On - Duracao: 518160 Nota: C1 Vol.: 70
Chanel 10 Note Off - Duracao: 518160 Nota: C1 Vol.: 83
Chanel 10 Note On - Duracao: 518160 Nota: C1 Vol.: 79
Chanel 2 Note Off - Duracao: 518280 Nota: C1 Vol.: 71
Chanel 2 Note On - Duracao: 518280 Nota: C1 Vol.: 74
Chanel 5 Note Off - Duracao: 518280 Nota: C1 Vol.: 73
Chanel 5 Note On - Duracao: 518280 Nota: C1 Vol.: 81
Chanel 1 Note Off - Duracao: 518640 Nota: C1 Vol.: 82
Chanel 1 Note On - Duracao: 518640 Nota: C1 Vol.: 83
Chanel 4 Note Off - Duracao: 518640 Nota: C1 Vol.: 70
Chanel 4 Note On - Duracao: 518640 Nota: C1 Vol.: 77
Chanel 7 Note Off - Duracao: 518640 Nota: C1 Vol.: 64
Chanel 7 Note On - Duracao: 518640 Nota: C1 Vol.: 88
Chanel 2 Note Off - Duracao: 518760 Nota: C1 Vol.: 74
Chanel 2 Note On - Duracao: 518760 Nota: C1 Vol.: 78
Chanel 5 Note Off - Duracao: 518760 Nota: C1 Vol.: 81
Chanel 5 Note On - Duracao: 518760 Nota: C1 Vol.: 72
Chanel 7 Note Off - Duracao: 518760 Nota: C1 Vol.: 88
Chanel 7 Note On - Duracao: 518760 Nota: C1 Vol.: 87
Chanel 7 Note Off - Duracao: 519000 Nota: C1 Vol.: 87
Chanel 7 Note On - Duracao: 519000 Nota: C1 Vol.: 69
Chanel 8 Note Off - Duracao: 519000 Nota: C1 Vol.: 62
Chanel 8 Note On - Duracao: 519000 Nota: C1 Vol.: 56
Chanel 4 Note Off - Duracao: 519120 Nota: C1 Vol.: 77
Chanel 4 Note On - Duracao: 519120 Nota: C1 Vol.: 76
Chanel 10 Note Off - Duracao: 519120 Nota: C1 Vol.: 79
Chanel 10 Note On - Duracao: 519120 Nota: C1 Vol.: 83
Chanel 2 Note Off - Duracao: 519240 Nota: C1 Vol.: 78
Chanel 2 Note On - Duracao: 519240 Nota: C1 Vol.: 87
Chanel 3 Note Off - Duracao: 519360 Nota: C1 Vol.: 64
Chanel 3 Note On - Duracao: 519360 Nota: C1 Vol.: 75
Chanel 6 Note Off - Duracao: 519420 Nota: C1 Vol.: 51
Chanel 6 Note On - Duracao: 519420 Nota: C1 Vol.: 49
Chanel 2 Note Off - Duracao: 519480 Nota: C1 Vol.: 87
Chanel 2 Note On - Duracao: 519480 Nota: C1 Vol.: 87
Chanel 7 Note Off - Duracao: 519480 Nota: C1 Vol.: 69
Chanel 7 Note On - Duracao: 519480 Nota: C1 Vol.: 65
Chanel 4 Note Off - Duracao: 519600 Nota: C1 Vol.: 76
Chanel 4 Note On - Duracao: 519600 Nota: C1 Vol.: 86
Chanel 10 Note Off - Duracao: 519600 Nota: C1 Vol.: 83
Chanel 10 Note On - Duracao: 519600 Nota: C1 Vol.: 87
Chanel 2 Note Off - Duracao: 519720 Nota: C1 Vol.: 87
Chanel 2 Note On - Duracao: 519720 Nota: C1 Vol.: 95
Chanel 5 Note Off - Duracao: 519720 Nota: C1 Vol.: 72
Chanel 5 Note On - Duracao: 519720 Nota: C1 Vol.: 71
Chanel 2 Note Off - Duracao: 519840 Nota: C1 Vol.: 95
Chanel 2 Note On - Duracao: 519840 Nota: C1 Vol.: 93
Chanel 4 Note Off - Duracao: 519840 Nota: C1 Vol.: 86
Chanel 4 Note On - Duracao: 519840 Nota: C1 Vol.: 97
Chanel 9 Note Off - Duracao: 519840 Nota: C1 Vol.: 71
Chanel 9 Note On - Duracao: 519840 Nota: C1 Vol.: 61
Chanel 10 Note Off - Duracao: 519840 Nota: C1 Vol.: 87
Chanel 10 Note On - Duracao: 519840 Nota: C1 Vol.: 79
Chanel 2 Note Off - Duracao: 519960 Nota: C1 Vol.: 93
Chanel 2 Note On - Duracao: 519960 Nota: C1 Vol.: 93
Chanel 2 Note Off - Duracao: 520080 Nota: C1 Vol.: 93
Chanel 2 Note On - Duracao: 520080 Nota: C1 Vol.: 95
Chanel 4 Note Off - Duracao: 520080 Nota: C1 Vol.: 97
Chanel 4 Note On - Duracao: 520080 Nota: C1 Vol.: 92
Chanel 2 Note Off - Duracao: 520200 Nota: C1 Vol.: 95
Chanel 2 Note On - Duracao: 520200 Nota: C1 Vol.: 98
Chanel 2 Note Off - Duracao: 520260 Nota: C1 Vol.: 98
Chanel 2 Note On - Duracao: 520260 Nota: C1 Vol.: 99
Chanel 2 Note Off - Duracao: 520320 Nota: C1 Vol.: 99
Chanel 2 Note On - Duracao: 520320 Nota: C1 Vol.: 97
Chanel 3 Note Off - Duracao: 520320 Nota: C1 Vol.: 75
Chanel 3 Note On - Duracao: 520320 Nota: C1 Vol.: 70
Chanel 4 Note Off - Duracao: 520320 Nota: C1 Vol.: 92
Chanel 4 Note On - Duracao: 520320 Nota: C1 Vol.: 88
Chanel 10 Note Off - Duracao: 520320 Nota: C1 Vol.: 79
Chanel 10 Note On - Duracao: 520320 Nota: C1 Vol.: 86
Chanel 2 Note Off - Duracao: 520440 Nota: C1 Vol.: 97
Chanel 2 Note On - Duracao: 520440 Nota: C1 Vol.: 95
Chanel 7 Note Off - Duracao: 520440 Nota: C1 Vol.: 65
Chanel 7 Note On - Duracao: 520440 Nota: C1 Vol.: 72
Chanel 1 Note Off - Duracao: 520560 Nota: C1 Vol.: 83
Chanel 1 Note On - Duracao: 520560 Nota: C1 Vol.: 79
Chanel 2 Note Off - Duracao: 520560 Nota: C1 Vol.: 95
Chanel 2 Note On - Duracao: 520560 Nota: C1 Vol.: 93
Chanel 4 Note Off - Duracao: 520560 Nota: C1 Vol.: 88
Chanel 4 Note On - Duracao: 520560 Nota: C1 Vol.: 95
Chanel 10 Note Off - Duracao: 520560 Nota: C1 Vol.: 86
Chanel 10 Note On - Duracao: 520560 Nota: C1 Vol.: 92
Chanel 4 Note Off - Duracao: 520680 Nota: C1 Vol.: 95
Chanel 4 Note On - Duracao: 520680 Nota: C1 Vol.: 96
Chanel 5 Note Off - Duracao: 520680 Nota: C1 Vol.: 71
Chanel 5 Note On - Duracao: 520680 Nota: C1 Vol.: 75
Chanel 10 Note Off - Duracao: 520680 Nota: C1 Vol.: 92
Chanel 10 Note On - Duracao: 520680 Nota: C1 Vol.: 88
Chanel 2 Note Off - Duracao: 520800 Nota: C1 Vol.: 93
Chanel 2 Note On - Duracao: 520800 Nota: C1 Vol.: 79
Chanel 4 Note Off - Duracao: 520800 Nota: C1 Vol.: 96
Chanel 4 Note On - Duracao: 520800 Nota: C1 Vol.: 95
Chanel 10 Note Off - Duracao: 520800 Nota: C1 Vol.: 88
Chanel 10 Note On - Duracao: 520800 Nota: C1 Vol.: 91
Chanel 4 Note Off - Duracao: 520920 Nota: C1 Vol.: 95
Chanel 4 Note On - Duracao: 520920 Nota: C1 Vol.: 95
Chanel 7 Note Off - Duracao: 520920 Nota: C1 Vol.: 72
Chanel 7 Note On - Duracao: 520920 Nota: C1 Vol.: 81
Chanel 8 Note Off - Duracao: 520920 Nota: C1 Vol.: 56
Chanel 8 Note On - Duracao: 520920 Nota: C1 Vol.: 51
Chanel 10 Note Off - Duracao: 520920 Nota: C1 Vol.: 91
Chanel 10 Note On - Duracao: 520920 Nota: C1 Vol.: 91
Chanel 4 Note Off - Duracao: 521040 Nota: C1 Vol.: 95
Chanel 4 Note On - Duracao: 521040 Nota: C1 Vol.: 92
Chanel 10 Note Off - Duracao: 521040 Nota: C1 Vol.: 91
Chanel 10 Note On - Duracao: 521040 Nota: C1 Vol.: 95
Chanel 10 Note Off - Duracao: 521100 Nota: C1 Vol.: 95
Chanel 10 Note On - Duracao: 521100 Nota: C1 Vol.: 74
Chanel 4 Note Off - Duracao: 521160 Nota: C1 Vol.: 92
Chanel 4 Note On - Duracao: 521160 Nota: C1 Vol.: 74
Chanel 7 Note Off - Duracao: 521160 Nota: C1 Vol.: 81
Chanel 7 Note On - Duracao: 521160 Nota: C1 Vol.: 87
Chanel 2 Note Off - Duracao: 521280 Nota: C1 Vol.: 79
Chanel 2 Note On - Duracao: 521280 Nota: C1 Vol.: 83
Chanel 7 Note Off - Duracao: 521280 Nota: C1 Vol.: 87
Chanel 7 Note On - Duracao: 521280 Nota: C1 Vol.: 68
Chanel 6 Note Off - Duracao: 521340 Nota: C1 Vol.: 49
Chanel 6 Note On - Duracao: 521340 Nota: C1 Vol.: 52
Chanel 1 Note Off - Duracao: 521520 Nota: C1 Vol.: 79
Chanel 1 Note On - Duracao: 521520 Nota: C1 Vol.: 53
Chanel 10 Note Off - Duracao: 521580 Nota: C1 Vol.: 74
Chanel 10 Note On - Duracao: 521580 Nota: C1 Vol.: 59
Chanel 4 Note Off - Duracao: 521640 Nota: C1 Vol.: 74
Chanel 4 Note On - Duracao: 521640 Nota: C1 Vol.: 62
Chanel 5 Note Off - Duracao: 521640 Nota: C1 Vol.: 75
Chanel 5 Note On - Duracao: 521640 Nota: C1 Vol.: 76
Chanel 2 Note Off - Duracao: 521760 Nota: C1 Vol.: 83
Chanel 2 Note On - Duracao: 521760 Nota: C1 Vol.: 77
Chanel 7 Note Off - Duracao: 521760 Nota: C1 Vol.: 68
Chanel 7 Note On - Duracao: 521760 Nota: C1 Vol.: 57
Chanel 9 Note Off - Duracao: 521760 Nota: C1 Vol.: 61
Chanel 9 Note On - Duracao: 521760 Nota: C1 Vol.: 64
Chanel 3 Note Off - Duracao: 522240 Nota: C1 Vol.: 70
Chanel 3 Note On - Duracao: 522240 Nota: C1 Vol.: 72
Chanel 10 Note Off - Duracao: 522540 Nota: C1 Vol.: 59
Chanel 10 Note On - Duracao: 522540 Nota: C1 Vol.: 65
Chanel 5 Note Off - Duracao: 522600 Nota: C1 Vol.: 76
Chanel 5 Note On - Duracao: 522600 Nota: C1 Vol.: 69
Chanel 2 Note Off - Duracao: 522720 Nota: C1 Vol.: 77
Chanel 2 Note On - Duracao: 522720 Nota: C1 Vol.: 75
Chanel 3 Note Off - Duracao: 523200 Nota: C1 Vol.: 72
Chanel 3 Note On - Duracao: 523200 Nota: C1 Vol.: 71
Chanel 10 Note Off - Duracao: 523500 Nota: C1 Vol.: 65
Chanel 10 Note On - Duracao: 523500 Nota: C1 Vol.: 56
Chanel 4 Note Off - Duracao: 523560 Nota: C1 Vol.: 62
Chanel 4 Note On - Duracao: 523560 Nota: C1 Vol.: 67
Chanel 5 Note Off - Duracao: 523560 Nota: C1 Vol.: 69
Chanel 5 Note On - Duracao: 523560 Nota: C1 Vol.: 48
Chanel 2 Note Off - Duracao: 523680 Nota: C1 Vol.: 75
Chanel 2 Note On - Duracao: 523680 Nota: C1 Vol.: 75
Chanel 7 Note Off - Duracao: 523680 Nota: C1 Vol.: 57
Chanel 7 Note On - Duracao: 523680 Nota: C1 Vol.: 62
Chanel 9 Note Off - Duracao: 523680 Nota: C1 Vol.: 64
Chanel 9 Note On - Duracao: 523680 Nota: C1 Vol.: 68
Chanel 3 Note Off - Duracao: 524160 Nota: C1 Vol.: 71
Chanel 3 Note On - Duracao: 524160 Nota: C1 Vol.: 57
Chanel 2 Note Off - Duracao: 524640 Nota: C1 Vol.: 75
Chanel 2 Note On - Duracao: 524640 Nota: C1 Vol.: 76
Chanel 9 Note Off - Duracao: 524640 Nota: C1 Vol.: 68
Chanel 9 Note On - Duracao: 524640 Nota: C1 Vol.: 62
Chanel 8 Note Off - Duracao: 524760 Nota: C1 Vol.: 51
Chanel 8 Note On - Duracao: 524760 Nota: C1 Vol.: 55
Chanel 6 Note Off - Duracao: 525180 Nota: C1 Vol.: 52
Chanel 6 Note On - Duracao: 525180 Nota: C1 Vol.: 63
Chanel 1 Note Off - Duracao: 525360 Nota: C1 Vol.: 53
Chanel 1 Note On - Duracao: 525360 Nota: C1 Vol.: 54
Chanel 10 Note Off - Duracao: 525420 Nota: C1 Vol.: 56
Chanel 10 Note On - Duracao: 525420 Nota: C1 Vol.: 56
Chanel 4 Note Off - Duracao: 525480 Nota: C1 Vol.: 67
Chanel 4 Note On - Duracao: 525480 Nota: C1 Vol.: 66
Chanel 2 Note Off - Duracao: 525600 Nota: C1 Vol.: 76
Chanel 2 Note On - Duracao: 525600 Nota: C1 Vol.: 71
Chanel 7 Note Off - Duracao: 525600 Nota: C1 Vol.: 62
Chanel 7 Note On - Duracao: 525600 Nota: C1 Vol.: 69
Chanel 3 Note Off - Duracao: 526080 Nota: C1 Vol.: 57
Chanel 3 Note On - Duracao: 526080 Nota: C1 Vol.: 78
Chanel 2 Note Off - Duracao: 526560 Nota: C1 Vol.: 71
Chanel 2 Note On - Duracao: 526560 Nota: C1 Vol.: 71
Chanel 3 Note Off - Duracao: 526560 Nota: C1 Vol.: 78
Chanel 3 Note On - Duracao: 526560 Nota: C1 Vol.: 60
Chanel 7 Note Off - Duracao: 526560 Nota: C1 Vol.: 69
Chanel 7 Note On - Duracao: 526560 Nota: C1 Vol.: 77
Chanel 9 Note Off - Duracao: 526560 Nota: C1 Vol.: 62
Chanel 9 Note On - Duracao: 526560 Nota: C1 Vol.: 65
Chanel 8 Note Off - Duracao: 526680 Nota: C1 Vol.: 55
Chanel 8 Note On - Duracao: 526680 Nota: C1 Vol.: 58
Chanel 7 Note Off - Duracao: 527040 Nota: C1 Vol.: 77
Chanel 7 Note On - Duracao: 527040 Nota: C1 Vol.: 88
Chanel 6 Note Off - Duracao: 527100 Nota: C1 Vol.: 63
Chanel 6 Note On - Duracao: 527100 Nota: C1 Vol.: 71
Chanel 1 Note Off - Duracao: 527280 Nota: C1 Vol.: 54
Chanel 1 Note On - Duracao: 527280 Nota: C1 Vol.: 64
Chanel 7 Note Off - Duracao: 527280 Nota: C1 Vol.: 88
Chanel 7 Note On - Duracao: 527280 Nota: C1 Vol.: 89
Chanel 10 Note Off - Duracao: 527340 Nota: C1 Vol.: 56
Chanel 10 Note On - Duracao: 527340 Nota: C1 Vol.: 63
Chanel 4 Note Off - Duracao: 527400 Nota: C1 Vol.: 66
Chanel 4 Note On - Duracao: 527400 Nota: C1 Vol.: 75
Chanel 5 Note Off - Duracao: 527400 Nota: C1 Vol.: 48
Chanel 5 Note On - Duracao: 527400 Nota: C1 Vol.: 99
Chanel 2 Note Off - Duracao: 527520 Nota: C1 Vol.: 71
Chanel 2 Note On - Duracao: 527520 Nota: C1 Vol.: 74
Chanel 5 Note Off - Duracao: 527520 Nota: C1 Vol.: 99
Chanel 5 Note On - Duracao: 527520 Nota: C1 Vol.: 98
Chanel 7 Note Off - Duracao: 527520 Nota: C1 Vol.: 89
Chanel 7 Note On - Duracao: 527520 Nota: C1 Vol.: 84
Chanel 5 Note Off - Duracao: 527580 Nota: C1 Vol.: 98
Chanel 5 Note On - Duracao: 527580 Nota: C1 Vol.: 97
Chanel 5 Note Off - Duracao: 527640 Nota: C1 Vol.: 97
Chanel 5 Note On - Duracao: 527640 Nota: C1 Vol.: 92
Chanel 5 Note Off - Duracao: 527760 Nota: C1 Vol.: 92
Chanel 5 Note On - Duracao: 527760 Nota: C1 Vol.: 90
Chanel 7 Note Off - Duracao: 527760 Nota: C1 Vol.: 84
Chanel 7 Note On - Duracao: 527760 Nota: C1 Vol.: 95
Chanel 5 Note Off - Duracao: 527880 Nota: C1 Vol.: 90
Chanel 5 Note On - Duracao: 527880 Nota: C1 Vol.: 79
Chanel 7 Note Off - Duracao: 527880 Nota: C1 Vol.: 95
Chanel 7 Note On - Duracao: 527880 Nota: C1 Vol.: 97
Chanel 7 Note Off - Duracao: 528000 Nota: C1 Vol.: 97
Chanel 7 Note On - Duracao: 528000 Nota: C1 Vol.: 95
Chanel 6 Note Off - Duracao: 528060 Nota: C1 Vol.: 71
Chanel 6 Note On - Duracao: 528060 Nota: C1 Vol.: 81
Chanel 5 Note Off - Duracao: 528120 Nota: C1 Vol.: 79
Chanel 5 Note On - Duracao: 528120 Nota: C1 Vol.: 65
Chanel 7 Note Off - Duracao: 528120 Nota: C1 Vol.: 95
Chanel 7 Note On - Duracao: 528120 Nota: C1 Vol.: 70
Chanel 1 Note Off - Duracao: 528240 Nota: C1 Vol.: 64
Chanel 1 Note On - Duracao: 528240 Nota: C1 Vol.: 99
Chanel 1 Note Off - Duracao: 528360 Nota: C1 Vol.: 99
Chanel 1 Note On - Duracao: 528360 Nota: C1 Vol.: 98
Chanel 4 Note Off - Duracao: 528360 Nota: C1 Vol.: 75
Chanel 4 Note On - Duracao: 528360 Nota: C1 Vol.: 71
Chanel 1 Note Off - Duracao: 528480 Nota: C1 Vol.: 98
Chanel 1 Note On - Duracao: 528480 Nota: C1 Vol.: 93
Chanel 2 Note Off - Duracao: 528480 Nota: C1 Vol.: 74
Chanel 2 Note On - Duracao: 528480 Nota: C1 Vol.: 70
Chanel 3 Note Off - Duracao: 528480 Nota: C1 Vol.: 60
Chanel 3 Note On - Duracao: 528480 Nota: C1 Vol.: 64
Chanel 9 Note Off - Duracao: 528480 Nota: C1 Vol.: 65
Chanel 9 Note On - Duracao: 528480 Nota: C1 Vol.: 71
Chanel 1 Note Off - Duracao: 528600 Nota: C1 Vol.: 93
Chanel 1 Note On - Duracao: 528600 Nota: C1 Vol.: 56
Chanel 8 Note Off - Duracao: 528600 Nota: C1 Vol.: 58
Chanel 8 Note On - Duracao: 528600 Nota: C1 Vol.: 61
Chanel 6 Note Off - Duracao: 529020 Nota: C1 Vol.: 81
Chanel 6 Note On - Duracao: 529020 Nota: C1 Vol.: 82
Chanel 5 Note Off - Duracao: 529080 Nota: C1 Vol.: 65
Chanel 5 Note On - Duracao: 529080 Nota: C1 Vol.: 64
Chanel 7 Note Off - Duracao: 529080 Nota: C1 Vol.: 70
Chanel 7 Note On - Duracao: 529080 Nota: C1 Vol.: 79
Chanel 10 Note Off - Duracao: 529260 Nota: C1 Vol.: 63
Chanel 10 Note On - Duracao: 529260 Nota: C1 Vol.: 71
Chanel 4 Note Off - Duracao: 529320 Nota: C1 Vol.: 71
Chanel 4 Note On - Duracao: 529320 Nota: C1 Vol.: 70
Chanel 3 Note Off - Duracao: 529440 Nota: C1 Vol.: 64
Chanel 3 Note On - Duracao: 529440 Nota: C1 Vol.: 54
Chanel 9 Note Off - Duracao: 529440 Nota: C1 Vol.: 71
Chanel 9 Note On - Duracao: 529440 Nota: C1 Vol.: 74
Chanel 6 Note Off - Duracao: 529980 Nota: C1 Vol.: 82
Chanel 6 Note On - Duracao: 529980 Nota: C1 Vol.: 83
Chanel 5 Note Off - Duracao: 530040 Nota: C1 Vol.: 64
Chanel 5 Note On - Duracao: 530040 Nota: C1 Vol.: 84
Chanel 7 Note Off - Duracao: 530040 Nota: C1 Vol.: 79
Chanel 7 Note On - Duracao: 530040 Nota: C1 Vol.: 79
Chanel 5 Note Off - Duracao: 530160 Nota: C1 Vol.: 84
Chanel 5 Note On - Duracao: 530160 Nota: C1 Vol.: 50
Chanel 10 Note Off - Duracao: 530220 Nota: C1 Vol.: 71
Chanel 10 Note On - Duracao: 530220 Nota: C1 Vol.: 79
Chanel 4 Note Off - Duracao: 530280 Nota: C1 Vol.: 70
Chanel 4 Note On - Duracao: 530280 Nota: C1 Vol.: 67
Chanel 2 Note Off - Duracao: 530400 Nota: C1 Vol.: 70
Chanel 2 Note On - Duracao: 530400 Nota: C1 Vol.: 71
Chanel 9 Note Off - Duracao: 530400 Nota: C1 Vol.: 74
Chanel 9 Note On - Duracao: 530400 Nota: C1 Vol.: 77
Chanel 1 Note Off - Duracao: 530520 Nota: C1 Vol.: 56
Chanel 1 Note On - Duracao: 530520 Nota: C1 Vol.: 90
Chanel 8 Note Off - Duracao: 530520 Nota: C1 Vol.: 61
Chanel 8 Note On - Duracao: 530520 Nota: C1 Vol.: 62
Chanel 1 Note Off - Duracao: 530640 Nota: C1 Vol.: 90
Chanel 1 Note On - Duracao: 530640 Nota: C1 Vol.: 100
Chanel 1 Note Off - Duracao: 530760 Nota: C1 Vol.: 100
Chanel 1 Note On - Duracao: 530760 Nota: C1 Vol.: 100
Chanel 1 Note Off - Duracao: 530880 Nota: C1 Vol.: 100
Chanel 1 Note On - Duracao: 530880 Nota: C1 Vol.: 91
Chanel 9 Note Off - Duracao: 530880 Nota: C1 Vol.: 77
Chanel 9 Note On - Duracao: 530880 Nota: C1 Vol.: 73
Chanel 6 Note Off - Duracao: 530940 Nota: C1 Vol.: 83
Chanel 6 Note On - Duracao: 530940 Nota: C1 Vol.: 83
Chanel 7 Note Off - Duracao: 531000 Nota: C1 Vol.: 79
Chanel 7 Note On - Duracao: 531000 Nota: C1 Vol.: 85
Chanel 1 Note Off - Duracao: 531120 Nota: C1 Vol.: 91
Chanel 1 Note On - Duracao: 531120 Nota: C1 Vol.: 65
Chanel 10 Note Off - Duracao: 531180 Nota: C1 Vol.: 79
Chanel 10 Note On - Duracao: 531180 Nota: C1 Vol.: 87
Chanel 2 Note Off - Duracao: 531360 Nota: C1 Vol.: 71
Chanel 2 Note On - Duracao: 531360 Nota: C1 Vol.: 76
Chanel 3 Note Off - Duracao: 531360 Nota: C1 Vol.: 54
Chanel 3 Note On - Duracao: 531360 Nota: C1 Vol.: 49
Chanel 7 Note Off - Duracao: 531480 Nota: C1 Vol.: 85
Chanel 7 Note On - Duracao: 531480 Nota: C1 Vol.: 62
Chanel 10 Note Off - Duracao: 531660 Nota: C1 Vol.: 87
Chanel 10 Note On - Duracao: 531660 Nota: C1 Vol.: 88
Chanel 9 Note Off - Duracao: 531840 Nota: C1 Vol.: 73
Chanel 9 Note On - Duracao: 531840 Nota: C1 Vol.: 81
Chanel 6 Note Off - Duracao: 531900 Nota: C1 Vol.: 83
Chanel 6 Note On - Duracao: 531900 Nota: C1 Vol.: 79
Chanel 1 Note Off - Duracao: 532080 Nota: C1 Vol.: 65
Chanel 1 Note On - Duracao: 532080 Nota: C1 Vol.: 56
Chanel 5 Note Off - Duracao: 532080 Nota: C1 Vol.: 50
Chanel 5 Note On - Duracao: 532080 Nota: C1 Vol.: 45
Chanel 10 Note Off - Duracao: 532140 Nota: C1 Vol.: 88
Chanel 10 Note On - Duracao: 532140 Nota: C1 Vol.: 84
Chanel 4 Note Off - Duracao: 532200 Nota: C1 Vol.: 67
Chanel 4 Note On - Duracao: 532200 Nota: C1 Vol.: 67
Chanel 2 Note Off - Duracao: 532320 Nota: C1 Vol.: 76
Chanel 2 Note On - Duracao: 532320 Nota: C1 Vol.: 84
Chanel 9 Note Off - Duracao: 532320 Nota: C1 Vol.: 81
Chanel 9 Note On - Duracao: 532320 Nota: C1 Vol.: 74
Chanel 8 Note Off - Duracao: 532440 Nota: C1 Vol.: 62
Chanel 8 Note On - Duracao: 532440 Nota: C1 Vol.: 62
Chanel 10 Note Off - Duracao: 532620 Nota: C1 Vol.: 84
Chanel 10 Note On - Duracao: 532620 Nota: C1 Vol.: 74
Chanel 2 Note Off - Duracao: 532800 Nota: C1 Vol.: 84
Chanel 2 Note On - Duracao: 532800 Nota: C1 Vol.: 83
Chanel 9 Note Off - Duracao: 532800 Nota: C1 Vol.: 74
Chanel 9 Note On - Duracao: 532800 Nota: C1 Vol.: 86
Chanel 6 Note Off - Duracao: 532860 Nota: C1 Vol.: 79
Chanel 6 Note On - Duracao: 532860 Nota: C1 Vol.: 71
Chanel 9 Note Off - Duracao: 533040 Nota: C1 Vol.: 86
Chanel 9 Note On - Duracao: 533040 Nota: C1 Vol.: 87
Chanel 9 Note Off - Duracao: 533160 Nota: C1 Vol.: 87
Chanel 9 Note On - Duracao: 533160 Nota: C1 Vol.: 84
Chanel 2 Note Off - Duracao: 533280 Nota: C1 Vol.: 83
Chanel 2 Note On - Duracao: 533280 Nota: C1 Vol.: 88
Chanel 9 Note Off - Duracao: 533400 Nota: C1 Vol.: 84
Chanel 9 Note On - Duracao: 533400 Nota: C1 Vol.: 65
Chanel 2 Note Off - Duracao: 533520 Nota: C1 Vol.: 88
Chanel 2 Note On - Duracao: 533520 Nota: C1 Vol.: 83
Chanel 10 Note Off - Duracao: 533580 Nota: C1 Vol.: 74
Chanel 10 Note On - Duracao: 533580 Nota: C1 Vol.: 54
Chanel 6 Note Off - Duracao: 533820 Nota: C1 Vol.: 71
Chanel 6 Note On - Duracao: 533820 Nota: C1 Vol.: 44
Chanel 2 Note Off - Duracao: 534000 Nota: C1 Vol.: 83
Chanel 2 Note On - Duracao: 534000 Nota: C1 Vol.: 78
Chanel 4 Note Off - Duracao: 534120 Nota: C1 Vol.: 67
Chanel 4 Note On - Duracao: 534120 Nota: C1 Vol.: 70
Chanel 8 Note Off - Duracao: 534360 Nota: C1 Vol.: 62
Chanel 8 Note On - Duracao: 534360 Nota: C1 Vol.: 62
Chanel 9 Note Off - Duracao: 534360 Nota: C1 Vol.: 65
Chanel 9 Note On - Duracao: 534360 Nota: C1 Vol.: 59
Chanel 2 Note Off - Duracao: 534480 Nota: C1 Vol.: 78
Chanel 2 Note On - Duracao: 534480 Nota: C1 Vol.: 53
Chanel 4 Note Off - Duracao: 535080 Nota: C1 Vol.: 70
Chanel 4 Note On - Duracao: 535080 Nota: C1 Vol.: 82
Chanel 3 Note Off - Duracao: 535200 Nota: C1 Vol.: 49
Chanel 3 Note On - Duracao: 535200 Nota: C1 Vol.: 53
Chanel 7 Note Off - Duracao: 535320 Nota: C1 Vol.: 62
Chanel 7 Note On - Duracao: 535320 Nota: C1 Vol.: 65
Chanel 4 Note Off - Duracao: 535560 Nota: C1 Vol.: 82
Chanel 4 Note On - Duracao: 535560 Nota: C1 Vol.: 73
Chanel 6 Note Off - Duracao: 535740 Nota: C1 Vol.: 44
Chanel 6 Note On - Duracao: 535740 Nota: C1 Vol.: 49
Chanel 1 Note Off - Duracao: 535920 Nota: C1 Vol.: 56
Chanel 1 Note On - Duracao: 535920 Nota: C1 Vol.: 83
Chanel 5 Note Off - Duracao: 535920 Nota: C1 Vol.: 45
Chanel 5 Note On - Duracao: 535920 Nota: C1 Vol.: 59
Chanel 8 Note Off - Duracao: 536280 Nota: C1 Vol.: 62
Chanel 8 Note On - Duracao: 536280 Nota: C1 Vol.: 62
Chanel 9 Note Off - Duracao: 536280 Nota: C1 Vol.: 59
Chanel 9 Note On - Duracao: 536280 Nota: C1 Vol.: 64
Chanel 4 Note Off - Duracao: 536520 Nota: C1 Vol.: 73
Chanel 4 Note On - Duracao: 536520 Nota: C1 Vol.: 60
Chanel 6 Note Off - Duracao: 536700 Nota: C1 Vol.: 49
Chanel 6 Note On - Duracao: 536700 Nota: C1 Vol.: 65
Chanel 1 Note Off - Duracao: 536880 Nota: C1 Vol.: 83
Chanel 1 Note On - Duracao: 536880 Nota: C1 Vol.: 93
Chanel 3 Note Off - Duracao: 537120 Nota: C1 Vol.: 53
Chanel 3 Note On - Duracao: 537120 Nota: C1 Vol.: 78
Chanel 6 Note Off - Duracao: 537180 Nota: C1 Vol.: 65
Chanel 6 Note On - Duracao: 537180 Nota: C1 Vol.: 90
Chanel 7 Note Off - Duracao: 537240 Nota: C1 Vol.: 65
Chanel 7 Note On - Duracao: 537240 Nota: C1 Vol.: 63
Chanel 9 Note Off - Duracao: 537240 Nota: C1 Vol.: 64
Chanel 9 Note On - Duracao: 537240 Nota: C1 Vol.: 67
Chanel 6 Note Off - Duracao: 537300 Nota: C1 Vol.: 90
Chanel 6 Note On - Duracao: 537300 Nota: C1 Vol.: 97
Chanel 6 Note Off - Duracao: 537360 Nota: C1 Vol.: 97
Chanel 6 Note On - Duracao: 537360 Nota: C1 Vol.: 99
Chanel 6 Note Off - Duracao: 537420 Nota: C1 Vol.: 99
Chanel 6 Note On - Duracao: 537420 Nota: C1 Vol.: 95
Chanel 10 Note Off - Duracao: 537420 Nota: C1 Vol.: 54
Chanel 10 Note On - Duracao: 537420 Nota: C1 Vol.: 63
Chanel 6 Note Off - Duracao: 537480 Nota: C1 Vol.: 95
Chanel 6 Note On - Duracao: 537480 Nota: C1 Vol.: 87
Chanel 3 Note Off - Duracao: 537600 Nota: C1 Vol.: 78
Chanel 3 Note On - Duracao: 537600 Nota: C1 Vol.: 70
Chanel 6 Note Off - Duracao: 537600 Nota: C1 Vol.: 87
Chanel 6 Note On - Duracao: 537600 Nota: C1 Vol.: 46
Chanel 1 Note Off - Duracao: 537840 Nota: C1 Vol.: 93
Chanel 1 Note On - Duracao: 537840 Nota: C1 Vol.: 95
Chanel 5 Note Off - Duracao: 537840 Nota: C1 Vol.: 59
Chanel 5 Note On - Duracao: 537840 Nota: C1 Vol.: 74
Chanel 8 Note Off - Duracao: 538200 Nota: C1 Vol.: 62
Chanel 8 Note On - Duracao: 538200 Nota: C1 Vol.: 65
Chanel 9 Note Off - Duracao: 538200 Nota: C1 Vol.: 67
Chanel 9 Note On - Duracao: 538200 Nota: C1 Vol.: 78
Chanel 2 Note Off - Duracao: 538320 Nota: C1 Vol.: 53
Chanel 2 Note On - Duracao: 538320 Nota: C1 Vol.: 75
Chanel 4 Note Off - Duracao: 538440 Nota: C1 Vol.: 60
Chanel 4 Note On - Duracao: 538440 Nota: C1 Vol.: 56
Chanel 3 Note Off - Duracao: 538560 Nota: C1 Vol.: 70
Chanel 3 Note On - Duracao: 538560 Nota: C1 Vol.: 91
Chanel 3 Note Off - Duracao: 538680 Nota: C1 Vol.: 91
Chanel 3 Note On - Duracao: 538680 Nota: C1 Vol.: 99
Chanel 3 Note Off - Duracao: 538740 Nota: C1 Vol.: 99
Chanel 3 Note On - Duracao: 538740 Nota: C1 Vol.: 99
Chanel 3 Note Off - Duracao: 538800 Nota: C1 Vol.: 99
Chanel 3 Note On - Duracao: 538800 Nota: C1 Vol.: 98
Chanel 5 Note Off - Duracao: 538800 Nota: C1 Vol.: 74
Chanel 5 Note On - Duracao: 538800 Nota: C1 Vol.: 78
Chanel 3 Note Off - Duracao: 538860 Nota: C1 Vol.: 98
Chanel 3 Note On - Duracao: 538860 Nota: C1 Vol.: 97
Chanel 3 Note Off - Duracao: 538920 Nota: C1 Vol.: 97
Chanel 3 Note On - Duracao: 538920 Nota: C1 Vol.: 76
Chanel 3 Note Off - Duracao: 539160 Nota: C1 Vol.: 76
Chanel 3 Note On - Duracao: 539160 Nota: C1 Vol.: 51
Chanel 7 Note Off - Duracao: 539160 Nota: C1 Vol.: 63
Chanel 7 Note On - Duracao: 539160 Nota: C1 Vol.: 61
Chanel 9 Note Off - Duracao: 539160 Nota: C1 Vol.: 78
Chanel 9 Note On - Duracao: 539160 Nota: C1 Vol.: 83
Chanel 10 Note Off - Duracao: 539340 Nota: C1 Vol.: 63
Chanel 10 Note On - Duracao: 539340 Nota: C1 Vol.: 59
Chanel 6 Note Off - Duracao: 539520 Nota: C1 Vol.: 46
Chanel 6 Note On - Duracao: 539520 Nota: C1 Vol.: 46
Chanel 9 Note Off - Duracao: 539640 Nota: C1 Vol.: 83
Chanel 9 Note On - Duracao: 539640 Nota: C1 Vol.: 84
Chanel 1 Note Off - Duracao: 539760 Nota: C1 Vol.: 95
Chanel 1 Note On - Duracao: 539760 Nota: C1 Vol.: 93
Chanel 5 Note Off - Duracao: 539760 Nota: C1 Vol.: 78
Chanel 5 Note On - Duracao: 539760 Nota: C1 Vol.: 76
Chanel 3 Note Off - Duracao: 540120 Nota: C1 Vol.: 51
Chanel 3 Note On - Duracao: 540120 Nota: C1 Vol.: 56
Chanel 8 Note Off - Duracao: 540120 Nota: C1 Vol.: 65
Chanel 8 Note On - Duracao: 540120 Nota: C1 Vol.: 67
Chanel 2 Note Off - Duracao: 540240 Nota: C1 Vol.: 75
Chanel 2 Note On - Duracao: 540240 Nota: C1 Vol.: 85
Chanel 4 Note Off - Duracao: 540360 Nota: C1 Vol.: 56
Chanel 4 Note On - Duracao: 540360 Nota: C1 Vol.: 50
Chanel 9 Note Off - Duracao: 540600 Nota: C1 Vol.: 84
Chanel 9 Note On - Duracao: 540600 Nota: C1 Vol.: 74
Chanel 5 Note Off - Duracao: 540720 Nota: C1 Vol.: 76
Chanel 5 Note On - Duracao: 540720 Nota: C1 Vol.: 75
Chanel 3 Note Off - Duracao: 541080 Nota: C1 Vol.: 56
Chanel 3 Note On - Duracao: 541080 Nota: C1 Vol.: 57
Chanel 7 Note Off - Duracao: 541080 Nota: C1 Vol.: 61
Chanel 7 Note On - Duracao: 541080 Nota: C1 Vol.: 60
Chanel 8 Note Off - Duracao: 541080 Nota: C1 Vol.: 67
Chanel 8 Note On - Duracao: 541080 Nota: C1 Vol.: 58
Chanel 2 Note Off - Duracao: 541200 Nota: C1 Vol.: 85
Chanel 2 Note On - Duracao: 541200 Nota: C1 Vol.: 82
Chanel 10 Note Off - Duracao: 541260 Nota: C1 Vol.: 59
Chanel 10 Note On - Duracao: 541260 Nota: C1 Vol.: 71
Chanel 6 Note Off - Duracao: 541440 Nota: C1 Vol.: 46
Chanel 6 Note On - Duracao: 541440 Nota: C1 Vol.: 54
Chanel 5 Note Off - Duracao: 541680 Nota: C1 Vol.: 75
Chanel 5 Note On - Duracao: 541680 Nota: C1 Vol.: 84
Chanel 3 Note Off - Duracao: 542040 Nota: C1 Vol.: 57
Chanel 3 Note On - Duracao: 542040 Nota: C1 Vol.: 59
Chanel 5 Note Off - Duracao: 542160 Nota: C1 Vol.: 84
Chanel 5 Note On - Duracao: 542160 Nota: C1 Vol.: 83
Chanel 10 Note Off - Duracao: 542220 Nota: C1 Vol.: 71
Chanel 10 Note On - Duracao: 542220 Nota: C1 Vol.: 86
Chanel 10 Note Off - Duracao: 542340 Nota: C1 Vol.: 86
Chanel 10 Note On - Duracao: 542340 Nota: C1 Vol.: 91
Chanel 10 Note Off - Duracao: 542460 Nota: C1 Vol.: 91
Chanel 10 Note On - Duracao: 542460 Nota: C1 Vol.: 83
Chanel 9 Note Off - Duracao: 542520 Nota: C1 Vol.: 74
Chanel 9 Note On - Duracao: 542520 Nota: C1 Vol.: 77
Chanel 5 Note Off - Duracao: 542640 Nota: C1 Vol.: 83
Chanel 5 Note On - Duracao: 542640 Nota: C1 Vol.: 84
Chanel 10 Note Off - Duracao: 542700 Nota: C1 Vol.: 83
Chanel 10 Note On - Duracao: 542700 Nota: C1 Vol.: 75
Chanel 3 Note Off - Duracao: 543000 Nota: C1 Vol.: 59
Chanel 3 Note On - Duracao: 543000 Nota: C1 Vol.: 65
Chanel 7 Note Off - Duracao: 543000 Nota: C1 Vol.: 60
Chanel 7 Note On - Duracao: 543000 Nota: C1 Vol.: 61
Chanel 8 Note Off - Duracao: 543000 Nota: C1 Vol.: 58
Chanel 8 Note On - Duracao: 543000 Nota: C1 Vol.: 60
Chanel 2 Note Off - Duracao: 543120 Nota: C1 Vol.: 82
Chanel 2 Note On - Duracao: 543120 Nota: C1 Vol.: 81
Chanel 5 Note Off - Duracao: 543120 Nota: C1 Vol.: 84
Chanel 5 Note On - Duracao: 543120 Nota: C1 Vol.: 70
Chanel 10 Note Off - Duracao: 543180 Nota: C1 Vol.: 75
Chanel 10 Note On - Duracao: 543180 Nota: C1 Vol.: 81
Chanel 6 Note Off - Duracao: 543360 Nota: C1 Vol.: 54
Chanel 6 Note On - Duracao: 543360 Nota: C1 Vol.: 84
Chanel 9 Note Off - Duracao: 543480 Nota: C1 Vol.: 77
Chanel 9 Note On - Duracao: 543480 Nota: C1 Vol.: 83
Chanel 1 Note Off - Duracao: 543600 Nota: C1 Vol.: 93
Chanel 1 Note On - Duracao: 543600 Nota: C1 Vol.: 94
Chanel 6 Note Off - Duracao: 543600 Nota: C1 Vol.: 84
Chanel 6 Note On - Duracao: 543600 Nota: C1 Vol.: 89
Chanel 10 Note Off - Duracao: 543660 Nota: C1 Vol.: 81
Chanel 10 Note On - Duracao: 543660 Nota: C1 Vol.: 66
Chanel 6 Note Off - Duracao: 543720 Nota: C1 Vol.: 89
Chanel 6 Note On - Duracao: 543720 Nota: C1 Vol.: 87
Chanel 6 Note Off - Duracao: 543840 Nota: C1 Vol.: 87
Chanel 6 Note On - Duracao: 543840 Nota: C1 Vol.: 87
Chanel 3 Note Off - Duracao: 543960 Nota: C1 Vol.: 65
Chanel 3 Note On - Duracao: 543960 Nota: C1 Vol.: 45
Chanel 6 Note Off - Duracao: 543960 Nota: C1 Vol.: 87
Chanel 6 Note On - Duracao: 543960 Nota: C1 Vol.: 91
Chanel 6 Note Off - Duracao: 544080 Nota: C1 Vol.: 91
Chanel 6 Note On - Duracao: 544080 Nota: C1 Vol.: 94
Chanel 6 Note Off - Duracao: 544140 Nota: C1 Vol.: 94
Chanel 6 Note On - Duracao: 544140 Nota: C1 Vol.: 99
Chanel 4 Note Off - Duracao: 544200 Nota: C1 Vol.: 50
Chanel 4 Note On - Duracao: 544200 Nota: C1 Vol.: 75
Chanel 6 Note Off - Duracao: 544200 Nota: C1 Vol.: 99
Chanel 6 Note On - Duracao: 544200 Nota: C1 Vol.: 100
Chanel 6 Note Off - Duracao: 544260 Nota: C1 Vol.: 100
Chanel 6 Note On - Duracao: 544260 Nota: C1 Vol.: 100
Chanel 6 Note Off - Duracao: 544320 Nota: C1 Vol.: 100
Chanel 6 Note On - Duracao: 544320 Nota: C1 Vol.: 100
Chanel 6 Note Off - Duracao: 544380 Nota: C1 Vol.: 100
Chanel 6 Note On - Duracao: 544380 Nota: C1 Vol.: 100
Chanel 6 Note Off - Duracao: 544440 Nota: C1 Vol.: 100
Chanel 6 Note On - Duracao: 544440 Nota: C1 Vol.: 98
Chanel 9 Note Off - Duracao: 544440 Nota: C1 Vol.: 83
Chanel 9 Note On - Duracao: 544440 Nota: C1 Vol.: 85
Chanel 6 Note Off - Duracao: 544500 Nota: C1 Vol.: 98
Chanel 6 Note On - Duracao: 544500 Nota: C1 Vol.: 99
Chanel 6 Note Off - Duracao: 544560 Nota: C1 Vol.: 99
Chanel 6 Note On - Duracao: 544560 Nota: C1 Vol.: 92
Chanel 10 Note Off - Duracao: 544620 Nota: C1 Vol.: 66
Chanel 10 Note On - Duracao: 544620 Nota: C1 Vol.: 56
Chanel 6 Note Off - Duracao: 544680 Nota: C1 Vol.: 92
Chanel 6 Note On - Duracao: 544680 Nota: C1 Vol.: 87
Chanel 6 Note Off - Duracao: 544800 Nota: C1 Vol.: 87
Chanel 6 Note On - Duracao: 544800 Nota: C1 Vol.: 48
Chanel 7 Note Off - Duracao: 544920 Nota: C1 Vol.: 61
Chanel 7 Note On - Duracao: 544920 Nota: C1 Vol.: 59
Chanel 8 Note Off - Duracao: 544920 Nota: C1 Vol.: 60
Chanel 8 Note On - Duracao: 544920 Nota: C1 Vol.: 63
Chanel 9 Note Off - Duracao: 544920 Nota: C1 Vol.: 85
Chanel 9 Note On - Duracao: 544920 Nota: C1 Vol.: 81
Chanel 2 Note Off - Duracao: 545040 Nota: C1 Vol.: 81
Chanel 2 Note On - Duracao: 545040 Nota: C1 Vol.: 50
Chanel 5 Note Off - Duracao: 545040 Nota: C1 Vol.: 70
Chanel 5 Note On - Duracao: 545040 Nota: C1 Vol.: 62
Chanel 4 Note Off - Duracao: 545160 Nota: C1 Vol.: 75
Chanel 4 Note On - Duracao: 545160 Nota: C1 Vol.: 76
Chanel 1 Note Off - Duracao: 545520 Nota: C1 Vol.: 94
Chanel 1 Note On - Duracao: 545520 Nota: C1 Vol.: 92
Chanel 9 Note Off - Duracao: 545880 Nota: C1 Vol.: 81
Chanel 9 Note On - Duracao: 545880 Nota: C1 Vol.: 85
Chanel 4 Note Off - Duracao: 546120 Nota: C1 Vol.: 76
Chanel 4 Note On - Duracao: 546120 Nota: C1 Vol.: 78
Chanel 9 Note Off - Duracao: 546360 Nota: C1 Vol.: 85
Chanel 9 Note On - Duracao: 546360 Nota: C1 Vol.: 83
Chanel 10 Note Off - Duracao: 546540 Nota: C1 Vol.: 56
Chanel 10 Note On - Duracao: 546540 Nota: C1 Vol.: 69
Chanel 6 Note Off - Duracao: 546720 Nota: C1 Vol.: 48
Chanel 6 Note On - Duracao: 546720 Nota: C1 Vol.: 87
Chanel 6 Note Off - Duracao: 546840 Nota: C1 Vol.: 87
Chanel 6 Note On - Duracao: 546840 Nota: C1 Vol.: 95
Chanel 8 Note Off - Duracao: 546840 Nota: C1 Vol.: 63
Chanel 8 Note On - Duracao: 546840 Nota: C1 Vol.: 54
Chanel 9 Note Off - Duracao: 546840 Nota: C1 Vol.: 83
Chanel 9 Note On - Duracao: 546840 Nota: C1 Vol.: 78
Chanel 6 Note Off - Duracao: 546900 Nota: C1 Vol.: 95
Chanel 6 Note On - Duracao: 546900 Nota: C1 Vol.: 98
Chanel 5 Note Off - Duracao: 546960 Nota: C1 Vol.: 62
Chanel 5 Note On - Duracao: 546960 Nota: C1 Vol.: 80
Chanel 6 Note Off - Duracao: 546960 Nota: C1 Vol.: 98
Chanel 6 Note On - Duracao: 546960 Nota: C1 Vol.: 96
Chanel 6 Note Off - Duracao: 547020 Nota: C1 Vol.: 96
Chanel 6 Note On - Duracao: 547020 Nota: C1 Vol.: 95
Chanel 4 Note Off - Duracao: 547080 Nota: C1 Vol.: 78
Chanel 4 Note On - Duracao: 547080 Nota: C1 Vol.: 76
Chanel 6 Note Off - Duracao: 547080 Nota: C1 Vol.: 95
Chanel 6 Note On - Duracao: 547080 Nota: C1 Vol.: 97
Chanel 6 Note Off - Duracao: 547140 Nota: C1 Vol.: 97
Chanel 6 Note On - Duracao: 547140 Nota: C1 Vol.: 95
Chanel 6 Note Off - Duracao: 547260 Nota: C1 Vol.: 95
Chanel 6 Note On - Duracao: 547260 Nota: C1 Vol.: 87
Chanel 9 Note Off - Duracao: 547320 Nota: C1 Vol.: 78
Chanel 9 Note On - Duracao: 547320 Nota: C1 Vol.: 71
Chanel 1 Note Off - Duracao: 547440 Nota: C1 Vol.: 92
Chanel 1 Note On - Duracao: 547440 Nota: C1 Vol.: 89
Chanel 5 Note Off - Duracao: 547440 Nota: C1 Vol.: 80
Chanel 5 Note On - Duracao: 547440 Nota: C1 Vol.: 81
Chanel 6 Note Off - Duracao: 547500 Nota: C1 Vol.: 87
Chanel 6 Note On - Duracao: 547500 Nota: C1 Vol.: 79
Chanel 10 Note Off - Duracao: 547500 Nota: C1 Vol.: 69
Chanel 10 Note On - Duracao: 547500 Nota: C1 Vol.: 73
Chanel 3 Note Off - Duracao: 547800 Nota: C1 Vol.: 45
Chanel 3 Note On - Duracao: 547800 Nota: C1 Vol.: 56
Chanel 5 Note Off - Duracao: 547920 Nota: C1 Vol.: 81
Chanel 5 Note On - Duracao: 547920 Nota: C1 Vol.: 76
Chanel 6 Note Off - Duracao: 547980 Nota: C1 Vol.: 79
Chanel 6 Note On - Duracao: 547980 Nota: C1 Vol.: 74
Chanel 4 Note Off - Duracao: 548040 Nota: C1 Vol.: 76
Chanel 4 Note On - Duracao: 548040 Nota: C1 Vol.: 76
Chanel 9 Note Off - Duracao: 548280 Nota: C1 Vol.: 71
Chanel 9 Note On - Duracao: 548280 Nota: C1 Vol.: 89
Chanel 1 Note Off - Duracao: 548400 Nota: C1 Vol.: 89
Chanel 1 Note On - Duracao: 548400 Nota: C1 Vol.: 58
Chanel 9 Note Off - Duracao: 548400 Nota: C1 Vol.: 89
Chanel 9 Note On - Duracao: 548400 Nota: C1 Vol.: 91
Chanel 6 Note Off - Duracao: 548460 Nota: C1 Vol.: 74
Chanel 6 Note On - Duracao: 548460 Nota: C1 Vol.: 72
Chanel 10 Note Off - Duracao: 548460 Nota: C1 Vol.: 73
Chanel 10 Note On - Duracao: 548460 Nota: C1 Vol.: 71
Chanel 9 Note Off - Duracao: 548520 Nota: C1 Vol.: 91
Chanel 9 Note On - Duracao: 548520 Nota: C1 Vol.: 93
Chanel 9 Note Off - Duracao: 548640 Nota: C1 Vol.: 93
Chanel 9 Note On - Duracao: 548640 Nota: C1 Vol.: 57
Chanel 7 Note Off - Duracao: 548760 Nota: C1 Vol.: 59
Chanel 7 Note On - Duracao: 548760 Nota: C1 Vol.: 78
Chanel 2 Note Off - Duracao: 548880 Nota: C1 Vol.: 50
Chanel 2 Note On - Duracao: 548880 Nota: C1 Vol.: 45
Chanel 5 Note Off - Duracao: 548880 Nota: C1 Vol.: 76
Chanel 5 Note On - Duracao: 548880 Nota: C1 Vol.: 75
Chanel 6 Note Off - Duracao: 548940 Nota: C1 Vol.: 72
Chanel 6 Note On - Duracao: 548940 Nota: C1 Vol.: 69
Chanel 4 Note Off - Duracao: 549000 Nota: C1 Vol.: 76
Chanel 4 Note On - Duracao: 549000 Nota: C1 Vol.: 76
Chanel 10 Note Off - Duracao: 549420 Nota: C1 Vol.: 71
Chanel 10 Note On - Duracao: 549420 Nota: C1 Vol.: 72
Chanel 3 Note Off - Duracao: 549720 Nota: C1 Vol.: 56
Chanel 3 Note On - Duracao: 549720 Nota: C1 Vol.: 82
Chanel 7 Note Off - Duracao: 549720 Nota: C1 Vol.: 78
Chanel 7 Note On - Duracao: 549720 Nota: C1 Vol.: 82
Chanel 5 Note Off - Duracao: 549840 Nota: C1 Vol.: 75
Chanel 5 Note On - Duracao: 549840 Nota: C1 Vol.: 74
Chanel 6 Note Off - Duracao: 549900 Nota: C1 Vol.: 69
Chanel 6 Note On - Duracao: 549900 Nota: C1 Vol.: 67
Chanel 3 Note Off - Duracao: 549960 Nota: C1 Vol.: 82
Chanel 3 Note On - Duracao: 549960 Nota: C1 Vol.: 99
Chanel 4 Note Off - Duracao: 549960 Nota: C1 Vol.: 76
Chanel 4 Note On - Duracao: 549960 Nota: C1 Vol.: 75
Chanel 3 Note Off - Duracao: 550020 Nota: C1 Vol.: 99
Chanel 3 Note On - Duracao: 550020 Nota: C1 Vol.: 100
Chanel 3 Note Off - Duracao: 550080 Nota: C1 Vol.: 100
Chanel 3 Note On - Duracao: 550080 Nota: C1 Vol.: 99
Chanel 3 Note Off - Duracao: 550140 Nota: C1 Vol.: 99
Chanel 3 Note On - Duracao: 550140 Nota: C1 Vol.: 99
Chanel 3 Note Off - Duracao: 550200 Nota: C1 Vol.: 99
Chanel 3 Note On - Duracao: 550200 Nota: C1 Vol.: 84
Chanel 10 Note Off - Duracao: 550380 Nota: C1 Vol.: 72
Chanel 10 Note On - Duracao: 550380 Nota: C1 Vol.: 73
Chanel 3 Note Off - Duracao: 550440 Nota: C1 Vol.: 84
Chanel 3 Note On - Duracao: 550440 Nota: C1 Vol.: 95
Chanel 3 Note Off - Duracao: 550560 Nota: C1 Vol.: 95
Chanel 3 Note On - Duracao: 550560 Nota: C1 Vol.: 98
Chanel 9 Note Off - Duracao: 550560 Nota: C1 Vol.: 57
Chanel 9 Note On - Duracao: 550560 Nota: C1 Vol.: 69
Chanel 3 Note Off - Duracao: 550620 Nota: C1 Vol.: 98
Chanel 3 Note On - Duracao: 550620 Nota: C1 Vol.: 81
Chanel 7 Note Off - Duracao: 550680 Nota: C1 Vol.: 82
Chanel 7 Note On - Duracao: 550680 Nota: C1 Vol.: 68
Chanel 8 Note Off - Duracao: 550680 Nota: C1 Vol.: 54
Chanel 8 Note On - Duracao: 550680 Nota: C1 Vol.: 83
Chanel 5 Note Off - Duracao: 550800 Nota: C1 Vol.: 74
Chanel 5 Note On - Duracao: 550800 Nota: C1 Vol.: 74
Chanel 3 Note Off - Duracao: 550860 Nota: C1 Vol.: 81
Chanel 3 Note On - Duracao: 550860 Nota: C1 Vol.: 83
Chanel 6 Note Off - Duracao: 550860 Nota: C1 Vol.: 67
Chanel 6 Note On - Duracao: 550860 Nota: C1 Vol.: 77
Chanel 4 Note Off - Duracao: 550920 Nota: C1 Vol.: 75
Chanel 4 Note On - Duracao: 550920 Nota: C1 Vol.: 78
Chanel 3 Note Off - Duracao: 551100 Nota: C1 Vol.: 83
Chanel 3 Note On - Duracao: 551100 Nota: C1 Vol.: 78
Chanel 8 Note Off - Duracao: 551160 Nota: C1 Vol.: 83
Chanel 8 Note On - Duracao: 551160 Nota: C1 Vol.: 80
Chanel 6 Note Off - Duracao: 551340 Nota: C1 Vol.: 77
Chanel 6 Note On - Duracao: 551340 Nota: C1 Vol.: 69
Chanel 10 Note Off - Duracao: 551340 Nota: C1 Vol.: 73
Chanel 10 Note On - Duracao: 551340 Nota: C1 Vol.: 71
Chanel 4 Note Off - Duracao: 551400 Nota: C1 Vol.: 78
Chanel 4 Note On - Duracao: 551400 Nota: C1 Vol.: 60
Chanel 9 Note Off - Duracao: 551520 Nota: C1 Vol.: 69
Chanel 9 Note On - Duracao: 551520 Nota: C1 Vol.: 60
Chanel 3 Note Off - Duracao: 551580 Nota: C1 Vol.: 78
Chanel 3 Note On - Duracao: 551580 Nota: C1 Vol.: 85
Chanel 5 Note Off - Duracao: 551760 Nota: C1 Vol.: 74
Chanel 5 Note On - Duracao: 551760 Nota: C1 Vol.: 79
Chanel 3 Note Off - Duracao: 552060 Nota: C1 Vol.: 85
Chanel 3 Note On - Duracao: 552060 Nota: C1 Vol.: 85
Chanel 8 Note Off - Duracao: 552120 Nota: C1 Vol.: 80
Chanel 8 Note On - Duracao: 552120 Nota: C1 Vol.: 80
Chanel 1 Note Off - Duracao: 552240 Nota: C1 Vol.: 58
Chanel 1 Note On - Duracao: 552240 Nota: C1 Vol.: 68
Chanel 6 Note Off - Duracao: 552300 Nota: C1 Vol.: 69
Chanel 6 Note On - Duracao: 552300 Nota: C1 Vol.: 79
Chanel 10 Note Off - Duracao: 552300 Nota: C1 Vol.: 71
Chanel 10 Note On - Duracao: 552300 Nota: C1 Vol.: 72
Chanel 3 Note Off - Duracao: 552540 Nota: C1 Vol.: 85
Chanel 3 Note On - Duracao: 552540 Nota: C1 Vol.: 69
Chanel 7 Note Off - Duracao: 552600 Nota: C1 Vol.: 68
Chanel 7 Note On - Duracao: 552600 Nota: C1 Vol.: 70
Chanel 2 Note Off - Duracao: 552720 Nota: C1 Vol.: 45
Chanel 2 Note On - Duracao: 552720 Nota: C1 Vol.: 45
Chanel 5 Note Off - Duracao: 552720 Nota: C1 Vol.: 79
Chanel 5 Note On - Duracao: 552720 Nota: C1 Vol.: 85
Chanel 8 Note Off - Duracao: 553080 Nota: C1 Vol.: 80
Chanel 8 Note On - Duracao: 553080 Nota: C1 Vol.: 67
Chanel 1 Note Off - Duracao: 553200 Nota: C1 Vol.: 68
Chanel 1 Note On - Duracao: 553200 Nota: C1 Vol.: 87
Chanel 5 Note Off - Duracao: 553200 Nota: C1 Vol.: 85
Chanel 5 Note On - Duracao: 553200 Nota: C1 Vol.: 88
Chanel 6 Note Off - Duracao: 553260 Nota: C1 Vol.: 79
Chanel 6 Note On - Duracao: 553260 Nota: C1 Vol.: 83
Chanel 10 Note Off - Duracao: 553260 Nota: C1 Vol.: 72
Chanel 10 Note On - Duracao: 553260 Nota: C1 Vol.: 71
Chanel 4 Note Off - Duracao: 553320 Nota: C1 Vol.: 60
Chanel 4 Note On - Duracao: 553320 Nota: C1 Vol.: 48
Chanel 1 Note Off - Duracao: 553440 Nota: C1 Vol.: 87
Chanel 1 Note On - Duracao: 553440 Nota: C1 Vol.: 87
Chanel 9 Note Off - Duracao: 553440 Nota: C1 Vol.: 60
Chanel 9 Note On - Duracao: 553440 Nota: C1 Vol.: 66
Chanel 3 Note Off - Duracao: 553500 Nota: C1 Vol.: 69
Chanel 3 Note On - Duracao: 553500 Nota: C1 Vol.: 48
Chanel 1 Note Off - Duracao: 553560 Nota: C1 Vol.: 87
Chanel 1 Note On - Duracao: 553560 Nota: C1 Vol.: 83
Chanel 5 Note Off - Duracao: 553680 Nota: C1 Vol.: 88
Chanel 5 Note On - Duracao: 553680 Nota: C1 Vol.: 82
Chanel 1 Note Off - Duracao: 553800 Nota: C1 Vol.: 83
Chanel 1 Note On - Duracao: 553800 Nota: C1 Vol.: 79
Chanel 1 Note Off - Duracao: 554040 Nota: C1 Vol.: 79
Chanel 1 Note On - Duracao: 554040 Nota: C1 Vol.: 88
Chanel 1 Note Off - Duracao: 554160 Nota: C1 Vol.: 88
Chanel 1 Note On - Duracao: 554160 Nota: C1 Vol.: 91
Chanel 5 Note Off - Duracao: 554160 Nota: C1 Vol.: 82
Chanel 5 Note On - Duracao: 554160 Nota: C1 Vol.: 68
Chanel 6 Note Off - Duracao: 554220 Nota: C1 Vol.: 83
Chanel 6 Note On - Duracao: 554220 Nota: C1 Vol.: 69
Chanel 10 Note Off - Duracao: 554220 Nota: C1 Vol.: 71
Chanel 10 Note On - Duracao: 554220 Nota: C1 Vol.: 74
Chanel 1 Note Off - Duracao: 554280 Nota: C1 Vol.: 91
Chanel 1 Note On - Duracao: 554280 Nota: C1 Vol.: 73
Chanel 9 Note Off - Duracao: 554400 Nota: C1 Vol.: 66
Chanel 9 Note On - Duracao: 554400 Nota: C1 Vol.: 65
Chanel 7 Note Off - Duracao: 554520 Nota: C1 Vol.: 70
Chanel 7 Note On - Duracao: 554520 Nota: C1 Vol.: 66
Chanel 1 Note Off - Duracao: 554760 Nota: C1 Vol.: 73
Chanel 1 Note On - Duracao: 554760 Nota: C1 Vol.: 74
Chanel 8 Note Off - Duracao: 555000 Nota: C1 Vol.: 67
Chanel 8 Note On - Duracao: 555000 Nota: C1 Vol.: 66
Chanel 10 Note Off - Duracao: 555180 Nota: C1 Vol.: 74
Chanel 10 Note On - Duracao: 555180 Nota: C1 Vol.: 73
Chanel 1 Note Off - Duracao: 555240 Nota: C1 Vol.: 74
Chanel 1 Note On - Duracao: 555240 Nota: C1 Vol.: 72
Chanel 9 Note Off - Duracao: 555360 Nota: C1 Vol.: 65
Chanel 9 Note On - Duracao: 555360 Nota: C1 Vol.: 71
Chanel 1 Note Off - Duracao: 555720 Nota: C1 Vol.: 72
Chanel 1 Note On - Duracao: 555720 Nota: C1 Vol.: 77
Chanel 1 Note Off - Duracao: 555960 Nota: C1 Vol.: 77
Chanel 1 Note On - Duracao: 555960 Nota: C1 Vol.: 74
Chanel 5 Note Off - Duracao: 556080 Nota: C1 Vol.: 68
Chanel 5 Note On - Duracao: 556080 Nota: C1 Vol.: 72
Chanel 6 Note Off - Duracao: 556140 Nota: C1 Vol.: 69
Chanel 6 Note On - Duracao: 556140 Nota: C1 Vol.: 77
Chanel 10 Note Off - Duracao: 556140 Nota: C1 Vol.: 73
Chanel 10 Note On - Duracao: 556140 Nota: C1 Vol.: 73
Chanel 9 Note Off - Duracao: 556320 Nota: C1 Vol.: 71
Chanel 9 Note On - Duracao: 556320 Nota: C1 Vol.: 77
Chanel 1 Note Off - Duracao: 556440 Nota: C1 Vol.: 74
Chanel 1 Note On - Duracao: 556440 Nota: C1 Vol.: 78
Chanel 7 Note Off - Duracao: 556440 Nota: C1 Vol.: 66
Chanel 7 Note On - Duracao: 556440 Nota: C1 Vol.: 70
Chanel 2 Note Off - Duracao: 556560 Nota: C1 Vol.: 45
Chanel 2 Note On - Duracao: 556560 Nota: C1 Vol.: 45
Chanel 1 Note Off - Duracao: 556680 Nota: C1 Vol.: 78
Chanel 1 Note On - Duracao: 556680 Nota: C1 Vol.: 86
Chanel 9 Note Off - Duracao: 556800 Nota: C1 Vol.: 77
Chanel 9 Note On - Duracao: 556800 Nota: C1 Vol.: 70
Chanel 1 Note Off - Duracao: 556920 Nota: C1 Vol.: 86
Chanel 1 Note On - Duracao: 556920 Nota: C1 Vol.: 70
Chanel 8 Note Off - Duracao: 556920 Nota: C1 Vol.: 66
Chanel 8 Note On - Duracao: 556920 Nota: C1 Vol.: 69
Chanel 5 Note Off - Duracao: 557040 Nota: C1 Vol.: 72
Chanel 5 Note On - Duracao: 557040 Nota: C1 Vol.: 74
Chanel 6 Note Off - Duracao: 557100 Nota: C1 Vol.: 77
Chanel 6 Note On - Duracao: 557100 Nota: C1 Vol.: 90
Chanel 10 Note Off - Duracao: 557100 Nota: C1 Vol.: 73
Chanel 10 Note On - Duracao: 557100 Nota: C1 Vol.: 71
Chanel 4 Note Off - Duracao: 557160 Nota: C1 Vol.: 48
Chanel 4 Note On - Duracao: 557160 Nota: C1 Vol.: 76
Chanel 3 Note Off - Duracao: 557340 Nota: C1 Vol.: 48
Chanel 3 Note On - Duracao: 557340 Nota: C1 Vol.: 49
Chanel 7 Note Off - Duracao: 557400 Nota: C1 Vol.: 70
Chanel 7 Note On - Duracao: 557400 Nota: C1 Vol.: 70
Chanel 6 Note Off - Duracao: 557580 Nota: C1 Vol.: 90
Chanel 6 Note On - Duracao: 557580 Nota: C1 Vol.: 83
Chanel 9 Note Off - Duracao: 557760 Nota: C1 Vol.: 70
Chanel 9 Note On - Duracao: 557760 Nota: C1 Vol.: 64
Chanel 1 Note Off - Duracao: 557880 Nota: C1 Vol.: 70
Chanel 1 Note On - Duracao: 557880 Nota: C1 Vol.: 68
Chanel 8 Note Off - Duracao: 557880 Nota: C1 Vol.: 69
Chanel 8 Note On - Duracao: 557880 Nota: C1 Vol.: 67
Chanel 5 Note Off - Duracao: 558000 Nota: C1 Vol.: 74
Chanel 5 Note On - Duracao: 558000 Nota: C1 Vol.: 59
Chanel 10 Note Off - Duracao: 558060 Nota: C1 Vol.: 71
Chanel 10 Note On - Duracao: 558060 Nota: C1 Vol.: 73
Chanel 4 Note Off - Duracao: 558120 Nota: C1 Vol.: 76
Chanel 4 Note On - Duracao: 558120 Nota: C1 Vol.: 71
Chanel 7 Note Off - Duracao: 558360 Nota: C1 Vol.: 70
Chanel 7 Note On - Duracao: 558360 Nota: C1 Vol.: 50
Chanel 6 Note Off - Duracao: 558540 Nota: C1 Vol.: 83
Chanel 6 Note On - Duracao: 558540 Nota: C1 Vol.: 88
Chanel 10 Note Off - Duracao: 558540 Nota: C1 Vol.: 73
Chanel 10 Note On - Duracao: 558540 Nota: C1 Vol.: 75
Chanel 9 Note Off - Duracao: 558720 Nota: C1 Vol.: 64
Chanel 9 Note On - Duracao: 558720 Nota: C1 Vol.: 66
Chanel 8 Note Off - Duracao: 558840 Nota: C1 Vol.: 67
Chanel 8 Note On - Duracao: 558840 Nota: C1 Vol.: 84
Chanel 8 Note Off - Duracao: 558960 Nota: C1 Vol.: 84
Chanel 8 Note On - Duracao: 558960 Nota: C1 Vol.: 80
Chanel 6 Note Off - Duracao: 559020 Nota: C1 Vol.: 88
Chanel 6 Note On - Duracao: 559020 Nota: C1 Vol.: 80
Chanel 10 Note Off - Duracao: 559020 Nota: C1 Vol.: 75
Chanel 10 Note On - Duracao: 559020 Nota: C1 Vol.: 72
Chanel 4 Note Off - Duracao: 559080 Nota: C1 Vol.: 71
Chanel 4 Note On - Duracao: 559080 Nota: C1 Vol.: 45
Chanel 8 Note Off - Duracao: 559200 Nota: C1 Vol.: 80
Chanel 8 Note On - Duracao: 559200 Nota: C1 Vol.: 85
Chanel 8 Note Off - Duracao: 559440 Nota: C1 Vol.: 85
Chanel 8 Note On - Duracao: 559440 Nota: C1 Vol.: 81
Chanel 8 Note Off - Duracao: 559680 Nota: C1 Vol.: 81
Chanel 8 Note On - Duracao: 559680 Nota: C1 Vol.: 82
Chanel 9 Note Off - Duracao: 559680 Nota: C1 Vol.: 66
Chanel 9 Note On - Duracao: 559680 Nota: C1 Vol.: 62
Chanel 1 Note Off - Duracao: 559800 Nota: C1 Vol.: 68
Chanel 1 Note On - Duracao: 559800 Nota: C1 Vol.: 71
Chanel 5 Note Off - Duracao: 559920 Nota: C1 Vol.: 59
Chanel 5 Note On - Duracao: 559920 Nota: C1 Vol.: 51
Chanel 8 Note Off - Duracao: 559920 Nota: C1 Vol.: 82
Chanel 8 Note On - Duracao: 559920 Nota: C1 Vol.: 92
Chanel 6 Note Off - Duracao: 559980 Nota: C1 Vol.: 80
Chanel 6 Note On - Duracao: 559980 Nota: C1 Vol.: 65
Chanel 10 Note Off - Duracao: 559980 Nota: C1 Vol.: 72
Chanel 10 Note On - Duracao: 559980 Nota: C1 Vol.: 73
Chanel 8 Note Off - Duracao: 560040 Nota: C1 Vol.: 92
Chanel 8 Note On - Duracao: 560040 Nota: C1 Vol.: 95
Chanel 8 Note Off - Duracao: 560160 Nota: C1 Vol.: 95
Chanel 8 Note On - Duracao: 560160 Nota: C1 Vol.: 99
Chanel 8 Note Off - Duracao: 560220 Nota: C1 Vol.: 99
Chanel 8 Note On - Duracao: 560220 Nota: C1 Vol.: 99
Chanel 8 Note Off - Duracao: 560280 Nota: C1 Vol.: 99
Chanel 8 Note On - Duracao: 560280 Nota: C1 Vol.: 98
Chanel 8 Note Off - Duracao: 560340 Nota: C1 Vol.: 98
Chanel 8 Note On - Duracao: 560340 Nota: C1 Vol.: 98
Chanel 2 Note Off - Duracao: 560400 Nota: C1 Vol.: 45
Chanel 2 Note On - Duracao: 560400 Nota: C1 Vol.: 45
Chanel 8 Note Off - Duracao: 560400 Nota: C1 Vol.: 98
Chanel 8 Note On - Duracao: 560400 Nota: C1 Vol.: 97
Chanel 8 Note Off - Duracao: 560460 Nota: C1 Vol.: 97
Chanel 8 Note On - Duracao: 560460 Nota: C1 Vol.: 99
Chanel 8 Note Off - Duracao: 560520 Nota: C1 Vol.: 99
Chanel 8 Note On - Duracao: 560520 Nota: C1 Vol.: 99
Chanel 8 Note Off - Duracao: 560580 Nota: C1 Vol.: 99
Chanel 8 Note On - Duracao: 560580 Nota: C1 Vol.: 97
Chanel 9 Note Off - Duracao: 560640 Nota: C1 Vol.: 62
Chanel 9 Note On - Duracao: 560640 Nota: C1 Vol.: 71
Chanel 8 Note Off - Duracao: 560700 Nota: C1 Vol.: 97
Chanel 8 Note On - Duracao: 560700 Nota: C1 Vol.: 92
Chanel 1 Note Off - Duracao: 560760 Nota: C1 Vol.: 71
Chanel 1 Note On - Duracao: 560760 Nota: C1 Vol.: 87
Chanel 8 Note Off - Duracao: 560940 Nota: C1 Vol.: 92
Chanel 8 Note On - Duracao: 560940 Nota: C1 Vol.: 74
Chanel 10 Note Off - Duracao: 560940 Nota: C1 Vol.: 73
Chanel 10 Note On - Duracao: 560940 Nota: C1 Vol.: 65
Chanel 1 Note Off - Duracao: 561000 Nota: C1 Vol.: 87
Chanel 1 Note On - Duracao: 561000 Nota: C1 Vol.: 87
Chanel 3 Note Off - Duracao: 561180 Nota: C1 Vol.: 49
Chanel 3 Note On - Duracao: 561180 Nota: C1 Vol.: 58
Chanel 1 Note Off - Duracao: 561240 Nota: C1 Vol.: 87
Chanel 1 Note On - Duracao: 561240 Nota: C1 Vol.: 76
Chanel 9 Note Off - Duracao: 561600 Nota: C1 Vol.: 71
Chanel 9 Note On - Duracao: 561600 Nota: C1 Vol.: 65
Chanel 1 Note Off - Duracao: 561720 Nota: C1 Vol.: 76
Chanel 1 Note On - Duracao: 561720 Nota: C1 Vol.: 95
Chanel 1 Note Off - Duracao: 561780 Nota: C1 Vol.: 95
Chanel 1 Note On - Duracao: 561780 Nota: C1 Vol.: 94
Chanel 1 Note Off - Duracao: 561840 Nota: C1 Vol.: 94
Chanel 1 Note On - Duracao: 561840 Nota: C1 Vol.: 87
Chanel 5 Note Off - Duracao: 561840 Nota: C1 Vol.: 51
Chanel 5 Note On - Duracao: 561840 Nota: C1 Vol.: 46
Chanel 6 Note Off - Duracao: 561900 Nota: C1 Vol.: 65
Chanel 6 Note On - Duracao: 561900 Nota: C1 Vol.: 66
Chanel 8 Note Off - Duracao: 561900 Nota: C1 Vol.: 74
Chanel 8 Note On - Duracao: 561900 Nota: C1 Vol.: 68
Chanel 1 Note Off - Duracao: 561960 Nota: C1 Vol.: 87
Chanel 1 Note On - Duracao: 561960 Nota: C1 Vol.: 82
Chanel 1 Note Off - Duracao: 562080 Nota: C1 Vol.: 82
Chanel 1 Note On - Duracao: 562080 Nota: C1 Vol.: 86
Chanel 1 Note Off - Duracao: 562200 Nota: C1 Vol.: 86
Chanel 1 Note On - Duracao: 562200 Nota: C1 Vol.: 85
Chanel 7 Note Off - Duracao: 562200 Nota: C1 Vol.: 50
Chanel 7 Note On - Duracao: 562200 Nota: C1 Vol.: 44
Chanel 1 Note Off - Duracao: 562320 Nota: C1 Vol.: 85
Chanel 1 Note On - Duracao: 562320 Nota: C1 Vol.: 94
Chanel 1 Note Off - Duracao: 562440 Nota: C1 Vol.: 94
Chanel 1 Note On - Duracao: 562440 Nota: C1 Vol.: 93
Chanel 1 Note Off - Duracao: 562560 Nota: C1 Vol.: 93
Chanel 1 Note On - Duracao: 562560 Nota: C1 Vol.: 84
Chanel 1 Note Off - Duracao: 562680 Nota: C1 Vol.: 84
Chanel 1 Note On - Duracao: 562680 Nota: C1 Vol.: 74
Chanel 8 Note Off - Duracao: 562860 Nota: C1 Vol.: 68
Chanel 8 Note On - Duracao: 562860 Nota: C1 Vol.: 75
Chanel 10 Note Off - Duracao: 562860 Nota: C1 Vol.: 65
Chanel 10 Note On - Duracao: 562860 Nota: C1 Vol.: 61
Chanel 1 Note Off - Duracao: 562920 Nota: C1 Vol.: 74
Chanel 1 Note On - Duracao: 562920 Nota: C1 Vol.: 84
Chanel 4 Note Off - Duracao: 562920 Nota: C1 Vol.: 45
Chanel 4 Note On - Duracao: 562920 Nota: C1 Vol.: 70
Chanel 1 Note Off - Duracao: 563040 Nota: C1 Vol.: 84
Chanel 1 Note On - Duracao: 563040 Nota: C1 Vol.: 93
Chanel 1 Note Off - Duracao: 563100 Nota: C1 Vol.: 93
Chanel 1 Note On - Duracao: 563100 Nota: C1 Vol.: 76
Chanel 1 Note Off - Duracao: 563340 Nota: C1 Vol.: 76
Chanel 1 Note On - Duracao: 563340 Nota: C1 Vol.: 77
Chanel 4 Note Off - Duracao: 563400 Nota: C1 Vol.: 70
Chanel 4 Note On - Duracao: 563400 Nota: C1 Vol.: 78
Chanel 9 Note Off - Duracao: 563520 Nota: C1 Vol.: 65
Chanel 9 Note On - Duracao: 563520 Nota: C1 Vol.: 61
Chanel 1 Note Off - Duracao: 563580 Nota: C1 Vol.: 77
Chanel 1 Note On - Duracao: 563580 Nota: C1 Vol.: 86
Chanel 4 Note Off - Duracao: 563640 Nota: C1 Vol.: 78
Chanel 4 Note On - Duracao: 563640 Nota: C1 Vol.: 76
Chanel 1 Note Off - Duracao: 563700 Nota: C1 Vol.: 86
Chanel 1 Note On - Duracao: 563700 Nota: C1 Vol.: 79
Chanel 6 Note Off - Duracao: 563820 Nota: C1 Vol.: 66
Chanel 6 Note On - Duracao: 563820 Nota: C1 Vol.: 69
Chanel 8 Note Off - Duracao: 563820 Nota: C1 Vol.: 75
Chanel 8 Note On - Duracao: 563820 Nota: C1 Vol.: 69
Chanel 4 Note Off - Duracao: 563880 Nota: C1 Vol.: 76
Chanel 4 Note On - Duracao: 563880 Nota: C1 Vol.: 90
Chanel 1 Note Off - Duracao: 563940 Nota: C1 Vol.: 79
Chanel 1 Note On - Duracao: 563940 Nota: C1 Vol.: 81
Chanel 4 Note Off - Duracao: 564000 Nota: C1 Vol.: 90
Chanel 4 Note On - Duracao: 564000 Nota: C1 Vol.: 91
Chanel 4 Note Off - Duracao: 564120 Nota: C1 Vol.: 91
Chanel 4 Note On - Duracao: 564120 Nota: C1 Vol.: 59
Chanel 1 Note Off - Duracao: 564180 Nota: C1 Vol.: 81
Chanel 1 Note On - Duracao: 564180 Nota: C1 Vol.: 77
Chanel 2 Note Off - Duracao: 564240 Nota: C1 Vol.: 45
Chanel 2 Note On - Duracao: 564240 Nota: C1 Vol.: 52
Chanel 1 Note Off - Duracao: 564420 Nota: C1 Vol.: 77
Chanel 1 Note On - Duracao: 564420 Nota: C1 Vol.: 80
Chanel 1 Note Off - Duracao: 564660 Nota: C1 Vol.: 80
Chanel 1 Note On - Duracao: 564660 Nota: C1 Vol.: 78
Chanel 8 Note Off - Duracao: 564780 Nota: C1 Vol.: 69
Chanel 8 Note On - Duracao: 564780 Nota: C1 Vol.: 88
Chanel 10 Note Off - Duracao: 564780 Nota: C1 Vol.: 61
Chanel 10 Note On - Duracao: 564780 Nota: C1 Vol.: 61
Chanel 1 Note Off - Duracao: 564900 Nota: C1 Vol.: 78
Chanel 1 Note On - Duracao: 564900 Nota: C1 Vol.: 71
Chanel 8 Note Off - Duracao: 564900 Nota: C1 Vol.: 88
Chanel 8 Note On - Duracao: 564900 Nota: C1 Vol.: 68
Chanel 3 Note Off - Duracao: 565020 Nota: C1 Vol.: 58
Chanel 3 Note On - Duracao: 565020 Nota: C1 Vol.: 79
Chanel 4 Note Off - Duracao: 565080 Nota: C1 Vol.: 59
Chanel 4 Note On - Duracao: 565080 Nota: C1 Vol.: 44
Chanel 1 Note Off - Duracao: 565380 Nota: C1 Vol.: 71
Chanel 1 Note On - Duracao: 565380 Nota: C1 Vol.: 77
Chanel 8 Note Off - Duracao: 565380 Nota: C1 Vol.: 68
Chanel 8 Note On - Duracao: 565380 Nota: C1 Vol.: 87
Chanel 1 Note Off - Duracao: 565620 Nota: C1 Vol.: 77
Chanel 1 Note On - Duracao: 565620 Nota: C1 Vol.: 90
Chanel 8 Note Off - Duracao: 565620 Nota: C1 Vol.: 87
Chanel 8 Note On - Duracao: 565620 Nota: C1 Vol.: 92
Chanel 5 Note Off - Duracao: 565680 Nota: C1 Vol.: 46
Chanel 5 Note On - Duracao: 565680 Nota: C1 Vol.: 72
Chanel 6 Note Off - Duracao: 565740 Nota: C1 Vol.: 69
Chanel 6 Note On - Duracao: 565740 Nota: C1 Vol.: 70
Chanel 1 Note Off - Duracao: 565860 Nota: C1 Vol.: 90
Chanel 1 Note On - Duracao: 565860 Nota: C1 Vol.: 86
Chanel 7 Note Off - Duracao: 566040 Nota: C1 Vol.: 44
Chanel 7 Note On - Duracao: 566040 Nota: C1 Vol.: 45
Chanel 8 Note Off - Duracao: 566100 Nota: C1 Vol.: 92
Chanel 8 Note On - Duracao: 566100 Nota: C1 Vol.: 91
Chanel 5 Note Off - Duracao: 566160 Nota: C1 Vol.: 72
Chanel 5 Note On - Duracao: 566160 Nota: C1 Vol.: 87
Chanel 5 Note Off - Duracao: 566280 Nota: C1 Vol.: 87
Chanel 5 Note On - Duracao: 566280 Nota: C1 Vol.: 64
Chanel 1 Note Off - Duracao: 566340 Nota: C1 Vol.: 86
Chanel 1 Note On - Duracao: 566340 Nota: C1 Vol.: 77
Chanel 8 Note Off - Duracao: 566580 Nota: C1 Vol.: 91
Chanel 8 Note On - Duracao: 566580 Nota: C1 Vol.: 87
Chanel 10 Note Off - Duracao: 566700 Nota: C1 Vol.: 61
Chanel 10 Note On - Duracao: 566700 Nota: C1 Vol.: 63
Chanel 3 Note Off - Duracao: 566940 Nota: C1 Vol.: 79
Chanel 3 Note On - Duracao: 566940 Nota: C1 Vol.: 81
Chanel 4 Note Off - Duracao: 567000 Nota: C1 Vol.: 44
Chanel 4 Note On - Duracao: 567000 Nota: C1 Vol.: 54
Chanel 5 Note Off - Duracao: 567240 Nota: C1 Vol.: 64
Chanel 5 Note On - Duracao: 567240 Nota: C1 Vol.: 56
Chanel 1 Note Off - Duracao: 567300 Nota: C1 Vol.: 77
Chanel 1 Note On - Duracao: 567300 Nota: C1 Vol.: 82
Chanel 9 Note Off - Duracao: 567360 Nota: C1 Vol.: 61
Chanel 9 Note On - Duracao: 567360 Nota: C1 Vol.: 81
Chanel 8 Note Off - Duracao: 567540 Nota: C1 Vol.: 87
Chanel 8 Note On - Duracao: 567540 Nota: C1 Vol.: 80
Chanel 6 Note Off - Duracao: 567660 Nota: C1 Vol.: 70
Chanel 6 Note On - Duracao: 567660 Nota: C1 Vol.: 67
Chanel 1 Note Off - Duracao: 567780 Nota: C1 Vol.: 82
Chanel 1 Note On - Duracao: 567780 Nota: C1 Vol.: 76
Chanel 4 Note Off - Duracao: 567960 Nota: C1 Vol.: 54
Chanel 4 Note On - Duracao: 567960 Nota: C1 Vol.: 57
Chanel 7 Note Off - Duracao: 567960 Nota: C1 Vol.: 45
Chanel 7 Note On - Duracao: 567960 Nota: C1 Vol.: 44
Chanel 2 Note Off - Duracao: 568080 Nota: C1 Vol.: 52
Chanel 2 Note On - Duracao: 568080 Nota: C1 Vol.: 60
Chanel 9 Note Off - Duracao: 568320 Nota: C1 Vol.: 81
Chanel 9 Note On - Duracao: 568320 Nota: C1 Vol.: 87
Chanel 8 Note Off - Duracao: 568500 Nota: C1 Vol.: 80
Chanel 8 Note On - Duracao: 568500 Nota: C1 Vol.: 72
Chanel 10 Note Off - Duracao: 568620 Nota: C1 Vol.: 63
Chanel 10 Note On - Duracao: 568620 Nota: C1 Vol.: 63
Chanel 1 Note Off - Duracao: 568740 Nota: C1 Vol.: 76
Chanel 1 Note On - Duracao: 568740 Nota: C1 Vol.: 72
Chanel 3 Note Off - Duracao: 568860 Nota: C1 Vol.: 81
Chanel 3 Note On - Duracao: 568860 Nota: C1 Vol.: 87
Chanel 4 Note Off - Duracao: 568920 Nota: C1 Vol.: 57
Chanel 4 Note On - Duracao: 568920 Nota: C1 Vol.: 58
Chanel 5 Note Off - Duracao: 569160 Nota: C1 Vol.: 56
Chanel 5 Note On - Duracao: 569160 Nota: C1 Vol.: 88
Chanel 5 Note Off - Duracao: 569280 Nota: C1 Vol.: 88
Chanel 5 Note On - Duracao: 569280 Nota: C1 Vol.: 87
Chanel 9 Note Off - Duracao: 569280 Nota: C1 Vol.: 87
Chanel 9 Note On - Duracao: 569280 Nota: C1 Vol.: 85
Chanel 4 Note Off - Duracao: 569400 Nota: C1 Vol.: 58
Chanel 4 Note On - Duracao: 569400 Nota: C1 Vol.: 57
Chanel 8 Note Off - Duracao: 569460 Nota: C1 Vol.: 72
Chanel 8 Note On - Duracao: 569460 Nota: C1 Vol.: 67
Chanel 5 Note Off - Duracao: 569520 Nota: C1 Vol.: 87
Chanel 5 Note On - Duracao: 569520 Nota: C1 Vol.: 89
Chanel 6 Note Off - Duracao: 569580 Nota: C1 Vol.: 67
Chanel 6 Note On - Duracao: 569580 Nota: C1 Vol.: 68
Chanel 5 Note Off - Duracao: 569640 Nota: C1 Vol.: 89
Chanel 5 Note On - Duracao: 569640 Nota: C1 Vol.: 90
Chanel 5 Note Off - Duracao: 569760 Nota: C1 Vol.: 90
Chanel 5 Note On - Duracao: 569760 Nota: C1 Vol.: 88
Chanel 5 Note Off - Duracao: 569880 Nota: C1 Vol.: 88
Chanel 5 Note On - Duracao: 569880 Nota: C1 Vol.: 66
Chanel 7 Note Off - Duracao: 569880 Nota: C1 Vol.: 44
Chanel 7 Note On - Duracao: 569880 Nota: C1 Vol.: 44
Chanel 9 Note Off - Duracao: 570240 Nota: C1 Vol.: 85
Chanel 9 Note On - Duracao: 570240 Nota: C1 Vol.: 76
Chanel 4 Note Off - Duracao: 570360 Nota: C1 Vol.: 57
Chanel 4 Note On - Duracao: 570360 Nota: C1 Vol.: 56
Chanel 5 Note Off - Duracao: 570360 Nota: C1 Vol.: 66
Chanel 5 Note On - Duracao: 570360 Nota: C1 Vol.: 47
Chanel 8 Note Off - Duracao: 570420 Nota: C1 Vol.: 67
Chanel 8 Note On - Duracao: 570420 Nota: C1 Vol.: 71
Chanel 10 Note Off - Duracao: 570540 Nota: C1 Vol.: 63
Chanel 10 Note On - Duracao: 570540 Nota: C1 Vol.: 63
Chanel 1 Note Off - Duracao: 570660 Nota: C1 Vol.: 72
Chanel 1 Note On - Duracao: 570660 Nota: C1 Vol.: 71
Chanel 3 Note Off - Duracao: 570780 Nota: C1 Vol.: 87
Chanel 3 Note On - Duracao: 570780 Nota: C1 Vol.: 83
Chanel 8 Note Off - Duracao: 570900 Nota: C1 Vol.: 71
Chanel 8 Note On - Duracao: 570900 Nota: C1 Vol.: 65
Chanel 4 Note Off - Duracao: 571320 Nota: C1 Vol.: 56
Chanel 4 Note On - Duracao: 571320 Nota: C1 Vol.: 59
Chanel 8 Note Off - Duracao: 571380 Nota: C1 Vol.: 65
Chanel 8 Note On - Duracao: 571380 Nota: C1 Vol.: 67
Chanel 6 Note Off - Duracao: 571500 Nota: C1 Vol.: 68
Chanel 6 Note On - Duracao: 571500 Nota: C1 Vol.: 67
Chanel 4 Note Off - Duracao: 571800 Nota: C1 Vol.: 59
Chanel 4 Note On - Duracao: 571800 Nota: C1 Vol.: 51
Chanel 7 Note Off - Duracao: 571800 Nota: C1 Vol.: 44
Chanel 7 Note On - Duracao: 571800 Nota: C1 Vol.: 42
Chanel 8 Note Off - Duracao: 571860 Nota: C1 Vol.: 67
Chanel 8 Note On - Duracao: 571860 Nota: C1 Vol.: 58
Chanel 2 Note Off - Duracao: 571920 Nota: C1 Vol.: 60
Chanel 2 Note On - Duracao: 571920 Nota: C1 Vol.: 67
Chanel 9 Note Off - Duracao: 572160 Nota: C1 Vol.: 76
Chanel 9 Note On - Duracao: 572160 Nota: C1 Vol.: 71
Chanel 5 Note Off - Duracao: 572280 Nota: C1 Vol.: 47
Chanel 5 Note On - Duracao: 572280 Nota: C1 Vol.: 78
Chanel 10 Note Off - Duracao: 572460 Nota: C1 Vol.: 63
Chanel 10 Note On - Duracao: 572460 Nota: C1 Vol.: 66
Chanel 5 Note Off - Duracao: 572520 Nota: C1 Vol.: 78
Chanel 5 Note On - Duracao: 572520 Nota: C1 Vol.: 99
Chanel 1 Note Off - Duracao: 572580 Nota: C1 Vol.: 71
Chanel 1 Note On - Duracao: 572580 Nota: C1 Vol.: 71
Chanel 5 Note Off - Duracao: 572580 Nota: C1 Vol.: 99
Chanel 5 Note On - Duracao: 572580 Nota: C1 Vol.: 58
Chanel 3 Note Off - Duracao: 572700 Nota: C1 Vol.: 83
Chanel 3 Note On - Duracao: 572700 Nota: C1 Vol.: 68
Chanel 4 Note Off - Duracao: 572760 Nota: C1 Vol.: 51
Chanel 4 Note On - Duracao: 572760 Nota: C1 Vol.: 41
Chanel 7 Note Off - Duracao: 572760 Nota: C1 Vol.: 42
Chanel 7 Note On - Duracao: 572760 Nota: C1 Vol.: 41
Chanel 6 Note Off - Duracao: 573420 Nota: C1 Vol.: 67
Chanel 6 Note On - Duracao: 573420 Nota: C1 Vol.: 52
Chanel 5 Note Off - Duracao: 573540 Nota: C1 Vol.: 58
Chanel 5 Note On - Duracao: 573540 Nota: C1 Vol.: 90
Chanel 5 Note Off - Duracao: 573660 Nota: C1 Vol.: 90
Chanel 5 Note On - Duracao: 573660 Nota: C1 Vol.: 99
Chanel 5 Note Off - Duracao: 573720 Nota: C1 Vol.: 99
Chanel 5 Note On - Duracao: 573720 Nota: C1 Vol.: 98
Chanel 7 Note Off - Duracao: 573720 Nota: C1 Vol.: 41
Chanel 7 Note On - Duracao: 573720 Nota: C1 Vol.: 41
Chanel 5 Note Off - Duracao: 573780 Nota: C1 Vol.: 98
Chanel 5 Note On - Duracao: 573780 Nota: C1 Vol.: 99
Chanel 8 Note Off - Duracao: 573780 Nota: C1 Vol.: 58
Chanel 8 Note On - Duracao: 573780 Nota: C1 Vol.: 86
Chanel 2 Note Off - Duracao: 573840 Nota: C1 Vol.: 67
Chanel 2 Note On - Duracao: 573840 Nota: C1 Vol.: 81
Chanel 5 Note Off - Duracao: 573840 Nota: C1 Vol.: 99
Chanel 5 Note On - Duracao: 573840 Nota: C1 Vol.: 100
Chanel 5 Note Off - Duracao: 573900 Nota: C1 Vol.: 100
Chanel 5 Note On - Duracao: 573900 Nota: C1 Vol.: 99
Chanel 5 Note Off - Duracao: 573960 Nota: C1 Vol.: 99
Chanel 5 Note On - Duracao: 573960 Nota: C1 Vol.: 99
Chanel 5 Note Off - Duracao: 574020 Nota: C1 Vol.: 99
Chanel 5 Note On - Duracao: 574020 Nota: C1 Vol.: 98
Chanel 8 Note Off - Duracao: 574020 Nota: C1 Vol.: 86
Chanel 8 Note On - Duracao: 574020 Nota: C1 Vol.: 91
Chanel 5 Note Off - Duracao: 574080 Nota: C1 Vol.: 98
Chanel 5 Note On - Duracao: 574080 Nota: C1 Vol.: 78
Chanel 9 Note Off - Duracao: 574080 Nota: C1 Vol.: 71
Chanel 9 Note On - Duracao: 574080 Nota: C1 Vol.: 68
Chanel 8 Note Off - Duracao: 574260 Nota: C1 Vol.: 91
Chanel 8 Note On - Duracao: 574260 Nota: C1 Vol.: 86
Chanel 5 Note Off - Duracao: 574320 Nota: C1 Vol.: 78
Chanel 5 Note On - Duracao: 574320 Nota: C1 Vol.: 95
Chanel 5 Note Off - Duracao: 574380 Nota: C1 Vol.: 95
Chanel 5 Note On - Duracao: 574380 Nota: C1 Vol.: 98
Chanel 10 Note Off - Duracao: 574380 Nota: C1 Vol.: 66
Chanel 10 Note On - Duracao: 574380 Nota: C1 Vol.: 62
Chanel 5 Note Off - Duracao: 574440 Nota: C1 Vol.: 98
Chanel 5 Note On - Duracao: 574440 Nota: C1 Vol.: 95
Chanel 1 Note Off - Duracao: 574500 Nota: C1 Vol.: 71
Chanel 1 Note On - Duracao: 574500 Nota: C1 Vol.: 73
Chanel 5 Note Off - Duracao: 574500 Nota: C1 Vol.: 95
Chanel 5 Note On - Duracao: 574500 Nota: C1 Vol.: 97
Chanel 5 Note Off - Duracao: 574560 Nota: C1 Vol.: 97
Chanel 5 Note On - Duracao: 574560 Nota: C1 Vol.: 96
Chanel 3 Note Off - Duracao: 574620 Nota: C1 Vol.: 68
Chanel 3 Note On - Duracao: 574620 Nota: C1 Vol.: 49
Chanel 5 Note Off - Duracao: 574620 Nota: C1 Vol.: 96
Chanel 5 Note On - Duracao: 574620 Nota: C1 Vol.: 96
Chanel 4 Note Off - Duracao: 574680 Nota: C1 Vol.: 41
Chanel 4 Note On - Duracao: 574680 Nota: C1 Vol.: 44
Chanel 5 Note Off - Duracao: 574680 Nota: C1 Vol.: 96
Chanel 5 Note On - Duracao: 574680 Nota: C1 Vol.: 97
Chanel 7 Note Off - Duracao: 574680 Nota: C1 Vol.: 41
Chanel 7 Note On - Duracao: 574680 Nota: C1 Vol.: 42
Chanel 5 Note Off - Duracao: 574740 Nota: C1 Vol.: 97
Chanel 5 Note On - Duracao: 574740 Nota: C1 Vol.: 96
Chanel 8 Note Off - Duracao: 574740 Nota: C1 Vol.: 86
Chanel 8 Note On - Duracao: 574740 Nota: C1 Vol.: 73
Chanel 2 Note Off - Duracao: 574800 Nota: C1 Vol.: 81
Chanel 2 Note On - Duracao: 574800 Nota: C1 Vol.: 85
Chanel 5 Note Off - Duracao: 574800 Nota: C1 Vol.: 96
Chanel 5 Note On - Duracao: 574800 Nota: C1 Vol.: 92
Chanel 5 Note Off - Duracao: 574920 Nota: C1 Vol.: 92
Chanel 5 Note On - Duracao: 574920 Nota: C1 Vol.: 95
Chanel 5 Note Off - Duracao: 574980 Nota: C1 Vol.: 95
Chanel 5 Note On - Duracao: 574980 Nota: C1 Vol.: 71
Chanel 1 Note Off - Duracao: 575460 Nota: C1 Vol.: 73
Chanel 1 Note On - Duracao: 575460 Nota: C1 Vol.: 78
Chanel 5 Note Off - Duracao: 575460 Nota: C1 Vol.: 71
Chanel 5 Note On - Duracao: 575460 Nota: C1 Vol.: 84
Chanel 7 Note Off - Duracao: 575640 Nota: C1 Vol.: 42
Chanel 7 Note On - Duracao: 575640 Nota: C1 Vol.: 41
Chanel 5 Note Off - Duracao: 575700 Nota: C1 Vol.: 84
Chanel 5 Note On - Duracao: 575700 Nota: C1 Vol.: 85
Chanel 8 Note Off - Duracao: 575700 Nota: C1 Vol.: 73
Chanel 8 Note On - Duracao: 575700 Nota: C1 Vol.: 75
Chanel 2 Note Off - Duracao: 575760 Nota: C1 Vol.: 85
Chanel 2 Note On - Duracao: 575760 Nota: C1 Vol.: 91
Chanel 5 Note Off - Duracao: 575940 Nota: C1 Vol.: 85
Chanel 5 Note On - Duracao: 575940 Nota: C1 Vol.: 69
Chanel 10 Note Off - Duracao: 576300 Nota: C1 Vol.: 62
Chanel 10 Note On - Duracao: 576300 Nota: C1 Vol.: 61
Chanel 1 Note Off - Duracao: 576420 Nota: C1 Vol.: 78
Chanel 1 Note On - Duracao: 576420 Nota: C1 Vol.: 70
Chanel 4 Note Off - Duracao: 576600 Nota: C1 Vol.: 44
Chanel 4 Note On - Duracao: 576600 Nota: C1 Vol.: 42
Chanel 7 Note Off - Duracao: 576600 Nota: C1 Vol.: 41
Chanel 7 Note On - Duracao: 576600 Nota: C1 Vol.: 41
Chanel 5 Note Off - Duracao: 576900 Nota: C1 Vol.: 69
Chanel 5 Note On - Duracao: 576900 Nota: C1 Vol.: 63
Chanel 6 Note Off - Duracao: 577260 Nota: C1 Vol.: 52
Chanel 6 Note On - Duracao: 577260 Nota: C1 Vol.: 57
Chanel 7 Note Off - Duracao: 577560 Nota: C1 Vol.: 41
Chanel 7 Note On - Duracao: 577560 Nota: C1 Vol.: 42
Chanel 8 Note Off - Duracao: 577620 Nota: C1 Vol.: 75
Chanel 8 Note On - Duracao: 577620 Nota: C1 Vol.: 75
Chanel 2 Note Off - Duracao: 577680 Nota: C1 Vol.: 91
Chanel 2 Note On - Duracao: 577680 Nota: C1 Vol.: 93
Chanel 5 Note Off - Duracao: 577860 Nota: C1 Vol.: 63
Chanel 5 Note On - Duracao: 577860 Nota: C1 Vol.: 73
Chanel 9 Note Off - Duracao: 577920 Nota: C1 Vol.: 68
Chanel 9 Note On - Duracao: 577920 Nota: C1 Vol.: 74
Chanel 10 Note Off - Duracao: 578220 Nota: C1 Vol.: 61
Chanel 10 Note On - Duracao: 578220 Nota: C1 Vol.: 64
Chanel 1 Note Off - Duracao: 578340 Nota: C1 Vol.: 70
Chanel 1 Note On - Duracao: 578340 Nota: C1 Vol.: 76
Chanel 5 Note Off - Duracao: 578340 Nota: C1 Vol.: 73
Chanel 5 Note On - Duracao: 578340 Nota: C1 Vol.: 75
Chanel 3 Note Off - Duracao: 578460 Nota: C1 Vol.: 49
Chanel 3 Note On - Duracao: 578460 Nota: C1 Vol.: 57
Chanel 7 Note Off - Duracao: 578520 Nota: C1 Vol.: 42
Chanel 7 Note On - Duracao: 578520 Nota: C1 Vol.: 41
Chanel 5 Note Off - Duracao: 578820 Nota: C1 Vol.: 75
Chanel 5 Note On - Duracao: 578820 Nota: C1 Vol.: 79
Chanel 5 Note Off - Duracao: 579300 Nota: C1 Vol.: 79
Chanel 5 Note On - Duracao: 579300 Nota: C1 Vol.: 78
Chanel 7 Note Off - Duracao: 579480 Nota: C1 Vol.: 41
Chanel 7 Note On - Duracao: 579480 Nota: C1 Vol.: 41
Chanel 8 Note Off - Duracao: 579540 Nota: C1 Vol.: 75
Chanel 8 Note On - Duracao: 579540 Nota: C1 Vol.: 75
Chanel 2 Note Off - Duracao: 579600 Nota: C1 Vol.: 93
Chanel 2 Note On - Duracao: 579600 Nota: C1 Vol.: 92
Chanel 9 Note Off - Duracao: 579840 Nota: C1 Vol.: 74
Chanel 9 Note On - Duracao: 579840 Nota: C1 Vol.: 76
Chanel 10 Note Off - Duracao: 580140 Nota: C1 Vol.: 64
Chanel 10 Note On - Duracao: 580140 Nota: C1 Vol.: 69
Chanel 1 Note Off - Duracao: 580260 Nota: C1 Vol.: 76
Chanel 1 Note On - Duracao: 580260 Nota: C1 Vol.: 78
Chanel 5 Note Off - Duracao: 580260 Nota: C1 Vol.: 78
Chanel 5 Note On - Duracao: 580260 Nota: C1 Vol.: 79
Chanel 3 Note Off - Duracao: 580380 Nota: C1 Vol.: 57
Chanel 3 Note On - Duracao: 580380 Nota: C1 Vol.: 79
Chanel 4 Note Off - Duracao: 580440 Nota: C1 Vol.: 42
Chanel 4 Note On - Duracao: 580440 Nota: C1 Vol.: 44
Chanel 7 Note Off - Duracao: 580440 Nota: C1 Vol.: 41
Chanel 7 Note On - Duracao: 580440 Nota: C1 Vol.: 40
Chanel 3 Note Off - Duracao: 580620 Nota: C1 Vol.: 79
Chanel 3 Note On - Duracao: 580620 Nota: C1 Vol.: 83
Chanel 3 Note Off - Duracao: 580860 Nota: C1 Vol.: 83
Chanel 3 Note On - Duracao: 580860 Nota: C1 Vol.: 74
Chanel 6 Note Off - Duracao: 581100 Nota: C1 Vol.: 57
Chanel 6 Note On - Duracao: 581100 Nota: C1 Vol.: 66
Chanel 10 Note Off - Duracao: 581100 Nota: C1 Vol.: 69
Chanel 10 Note On - Duracao: 581100 Nota: C1 Vol.: 64
Chanel 5 Note Off - Duracao: 581220 Nota: C1 Vol.: 79
Chanel 5 Note On - Duracao: 581220 Nota: C1 Vol.: 72
Chanel 3 Note Off - Duracao: 581340 Nota: C1 Vol.: 74
Chanel 3 Note On - Duracao: 581340 Nota: C1 Vol.: 70
Chanel 7 Note Off - Duracao: 581400 Nota: C1 Vol.: 40
Chanel 7 Note On - Duracao: 581400 Nota: C1 Vol.: 40
Chanel 8 Note Off - Duracao: 581460 Nota: C1 Vol.: 75
Chanel 8 Note On - Duracao: 581460 Nota: C1 Vol.: 71
Chanel 2 Note Off - Duracao: 581520 Nota: C1 Vol.: 92
Chanel 2 Note On - Duracao: 581520 Nota: C1 Vol.: 92
Chanel 9 Note Off - Duracao: 581760 Nota: C1 Vol.: 76
Chanel 9 Note On - Duracao: 581760 Nota: C1 Vol.: 78
Chanel 3 Note Off - Duracao: 581820 Nota: C1 Vol.: 70
Chanel 3 Note On - Duracao: 581820 Nota: C1 Vol.: 60
Chanel 10 Note Off - Duracao: 582060 Nota: C1 Vol.: 64
Chanel 10 Note On - Duracao: 582060 Nota: C1 Vol.: 64
Chanel 1 Note Off - Duracao: 582180 Nota: C1 Vol.: 78
Chanel 1 Note On - Duracao: 582180 Nota: C1 Vol.: 80
Chanel 7 Note Off - Duracao: 582360 Nota: C1 Vol.: 40
Chanel 7 Note On - Duracao: 582360 Nota: C1 Vol.: 41
Chanel 9 Note Off - Duracao: 582720 Nota: C1 Vol.: 78
Chanel 9 Note On - Duracao: 582720 Nota: C1 Vol.: 74
Chanel 3 Note Off - Duracao: 582780 Nota: C1 Vol.: 60
Chanel 3 Note On - Duracao: 582780 Nota: C1 Vol.: 48
Chanel 6 Note Off - Duracao: 583020 Nota: C1 Vol.: 66
Chanel 6 Note On - Duracao: 583020 Nota: C1 Vol.: 65
Chanel 10 Note Off - Duracao: 583020 Nota: C1 Vol.: 64
Chanel 10 Note On - Duracao: 583020 Nota: C1 Vol.: 67
Chanel 1 Note Off - Duracao: 583140 Nota: C1 Vol.: 80
Chanel 1 Note On - Duracao: 583140 Nota: C1 Vol.: 86
Chanel 5 Note Off - Duracao: 583140 Nota: C1 Vol.: 72
Chanel 5 Note On - Duracao: 583140 Nota: C1 Vol.: 70
Chanel 7 Note Off - Duracao: 583320 Nota: C1 Vol.: 41
Chanel 7 Note On - Duracao: 583320 Nota: C1 Vol.: 42
Chanel 8 Note Off - Duracao: 583380 Nota: C1 Vol.: 71
Chanel 8 Note On - Duracao: 583380 Nota: C1 Vol.: 77
Chanel 2 Note Off - Duracao: 583440 Nota: C1 Vol.: 92
Chanel 2 Note On - Duracao: 583440 Nota: C1 Vol.: 92
Chanel 9 Note Off - Duracao: 583680 Nota: C1 Vol.: 74
Chanel 9 Note On - Duracao: 583680 Nota: C1 Vol.: 68
Chanel 6 Note Off - Duracao: 583980 Nota: C1 Vol.: 65
Chanel 6 Note On - Duracao: 583980 Nota: C1 Vol.: 70
Chanel 10 Note Off - Duracao: 583980 Nota: C1 Vol.: 67
Chanel 10 Note On - Duracao: 583980 Nota: C1 Vol.: 65
Chanel 1 Note Off - Duracao: 584100 Nota: C1 Vol.: 86
Chanel 1 Note On - Duracao: 584100 Nota: C1 Vol.: 90
Chanel 4 Note Off - Duracao: 584280 Nota: C1 Vol.: 44
Chanel 4 Note On - Duracao: 584280 Nota: C1 Vol.: 45
Chanel 7 Note Off - Duracao: 584280 Nota: C1 Vol.: 42
Chanel 7 Note On - Duracao: 584280 Nota: C1 Vol.: 41
Chanel 8 Note Off - Duracao: 584340 Nota: C1 Vol.: 77
Chanel 8 Note On - Duracao: 584340 Nota: C1 Vol.: 85
Chanel 8 Note Off - Duracao: 584820 Nota: C1 Vol.: 85
Chanel 8 Note On - Duracao: 584820 Nota: C1 Vol.: 89
Chanel 6 Note Off - Duracao: 584940 Nota: C1 Vol.: 70
Chanel 6 Note On - Duracao: 584940 Nota: C1 Vol.: 66
Chanel 10 Note Off - Duracao: 584940 Nota: C1 Vol.: 65
Chanel 10 Note On - Duracao: 584940 Nota: C1 Vol.: 70
Chanel 1 Note Off - Duracao: 585060 Nota: C1 Vol.: 90
Chanel 1 Note On - Duracao: 585060 Nota: C1 Vol.: 90
Chanel 5 Note Off - Duracao: 585060 Nota: C1 Vol.: 70
Chanel 5 Note On - Duracao: 585060 Nota: C1 Vol.: 68
Chanel 8 Note Off - Duracao: 585060 Nota: C1 Vol.: 89
Chanel 8 Note On - Duracao: 585060 Nota: C1 Vol.: 84
Chanel 7 Note Off - Duracao: 585240 Nota: C1 Vol.: 41
Chanel 7 Note On - Duracao: 585240 Nota: C1 Vol.: 40
Chanel 8 Note Off - Duracao: 585300 Nota: C1 Vol.: 84
Chanel 8 Note On - Duracao: 585300 Nota: C1 Vol.: 83
Chanel 2 Note Off - Duracao: 585360 Nota: C1 Vol.: 92
Chanel 2 Note On - Duracao: 585360 Nota: C1 Vol.: 91
Chanel 10 Note Off - Duracao: 585420 Nota: C1 Vol.: 70
Chanel 10 Note On - Duracao: 585420 Nota: C1 Vol.: 73
Chanel 8 Note Off - Duracao: 585540 Nota: C1 Vol.: 83
Chanel 8 Note On - Duracao: 585540 Nota: C1 Vol.: 85
Chanel 9 Note Off - Duracao: 585600 Nota: C1 Vol.: 68
Chanel 9 Note On - Duracao: 585600 Nota: C1 Vol.: 74
Chanel 8 Note Off - Duracao: 585780 Nota: C1 Vol.: 85
Chanel 8 Note On - Duracao: 585780 Nota: C1 Vol.: 79
Chanel 10 Note Off - Duracao: 585900 Nota: C1 Vol.: 73
Chanel 10 Note On - Duracao: 585900 Nota: C1 Vol.: 75
Chanel 1 Note Off - Duracao: 586020 Nota: C1 Vol.: 90
Chanel 1 Note On - Duracao: 586020 Nota: C1 Vol.: 86
Chanel 8 Note Off - Duracao: 586020 Nota: C1 Vol.: 79
Chanel 8 Note On - Duracao: 586020 Nota: C1 Vol.: 75
Chanel 10 Note Off - Duracao: 586140 Nota: C1 Vol.: 75
Chanel 10 Note On - Duracao: 586140 Nota: C1 Vol.: 71
Chanel 7 Note Off - Duracao: 586200 Nota: C1 Vol.: 40
Chanel 7 Note On - Duracao: 586200 Nota: C1 Vol.: 42
Chanel 2 Note Off - Duracao: 586320 Nota: C1 Vol.: 91
Chanel 2 Note On - Duracao: 586320 Nota: C1 Vol.: 89
Chanel 8 Note Off - Duracao: 586500 Nota: C1 Vol.: 75
Chanel 8 Note On - Duracao: 586500 Nota: C1 Vol.: 77
Chanel 9 Note Off - Duracao: 586560 Nota: C1 Vol.: 74
Chanel 9 Note On - Duracao: 586560 Nota: C1 Vol.: 69
Chanel 3 Note Off - Duracao: 586620 Nota: C1 Vol.: 48
Chanel 3 Note On - Duracao: 586620 Nota: C1 Vol.: 48
Chanel 10 Note Off - Duracao: 586620 Nota: C1 Vol.: 71
Chanel 10 Note On - Duracao: 586620 Nota: C1 Vol.: 77
Chanel 6 Note Off - Duracao: 586860 Nota: C1 Vol.: 66
Chanel 6 Note On - Duracao: 586860 Nota: C1 Vol.: 75
Chanel 10 Note Off - Duracao: 586860 Nota: C1 Vol.: 77
Chanel 10 Note On - Duracao: 586860 Nota: C1 Vol.: 79
Chanel 1 Note Off - Duracao: 586980 Nota: C1 Vol.: 86
Chanel 1 Note On - Duracao: 586980 Nota: C1 Vol.: 84
Chanel 5 Note Off - Duracao: 586980 Nota: C1 Vol.: 68
Chanel 5 Note On - Duracao: 586980 Nota: C1 Vol.: 64
Chanel 8 Note Off - Duracao: 586980 Nota: C1 Vol.: 77
Chanel 8 Note On - Duracao: 586980 Nota: C1 Vol.: 81
Chanel 10 Note Off - Duracao: 587100 Nota: C1 Vol.: 79
Chanel 10 Note On - Duracao: 587100 Nota: C1 Vol.: 78
Chanel 7 Note Off - Duracao: 587160 Nota: C1 Vol.: 42
Chanel 7 Note On - Duracao: 587160 Nota: C1 Vol.: 41
Chanel 2 Note Off - Duracao: 587280 Nota: C1 Vol.: 89
Chanel 2 Note On - Duracao: 587280 Nota: C1 Vol.: 76
Chanel 10 Note Off - Duracao: 587340 Nota: C1 Vol.: 78
Chanel 10 Note On - Duracao: 587340 Nota: C1 Vol.: 74
Chanel 9 Note Off - Duracao: 587520 Nota: C1 Vol.: 69
Chanel 9 Note On - Duracao: 587520 Nota: C1 Vol.: 67
Chanel 10 Note Off - Duracao: 587580 Nota: C1 Vol.: 74
Chanel 10 Note On - Duracao: 587580 Nota: C1 Vol.: 76
Chanel 6 Note Off - Duracao: 587820 Nota: C1 Vol.: 75
Chanel 6 Note On - Duracao: 587820 Nota: C1 Vol.: 78
Chanel 10 Note Off - Duracao: 587820 Nota: C1 Vol.: 76
Chanel 10 Note On - Duracao: 587820 Nota: C1 Vol.: 77
Chanel 1 Note Off - Duracao: 587940 Nota: C1 Vol.: 84
Chanel 1 Note On - Duracao: 587940 Nota: C1 Vol.: 81
Chanel 8 Note Off - Duracao: 587940 Nota: C1 Vol.: 81
Chanel 8 Note On - Duracao: 587940 Nota: C1 Vol.: 75
Chanel 10 Note Off - Duracao: 588060 Nota: C1 Vol.: 77
Chanel 10 Note On - Duracao: 588060 Nota: C1 Vol.: 73
Chanel 4 Note Off - Duracao: 588120 Nota: C1 Vol.: 45
Chanel 4 Note On - Duracao: 588120 Nota: C1 Vol.: 60
Chanel 7 Note Off - Duracao: 588120 Nota: C1 Vol.: 41
Chanel 7 Note On - Duracao: 588120 Nota: C1 Vol.: 40
Chanel 9 Note Off - Duracao: 588480 Nota: C1 Vol.: 67
Chanel 9 Note On - Duracao: 588480 Nota: C1 Vol.: 65
Chanel 10 Note Off - Duracao: 588540 Nota: C1 Vol.: 73
Chanel 10 Note On - Duracao: 588540 Nota: C1 Vol.: 70
Chanel 6 Note Off - Duracao: 588780 Nota: C1 Vol.: 78
Chanel 6 Note On - Duracao: 588780 Nota: C1 Vol.: 75
Chanel 1 Note Off - Duracao: 588900 Nota: C1 Vol.: 81
Chanel 1 Note On - Duracao: 588900 Nota: C1 Vol.: 77
Chanel 5 Note Off - Duracao: 588900 Nota: C1 Vol.: 64
Chanel 5 Note On - Duracao: 588900 Nota: C1 Vol.: 77
Chanel 10 Note Off - Duracao: 589020 Nota: C1 Vol.: 70
Chanel 10 Note On - Duracao: 589020 Nota: C1 Vol.: 71
Chanel 4 Note Off - Duracao: 589080 Nota: C1 Vol.: 60
Chanel 4 Note On - Duracao: 589080 Nota: C1 Vol.: 43
Chanel 7 Note Off - Duracao: 589080 Nota: C1 Vol.: 40
Chanel 7 Note On - Duracao: 589080 Nota: C1 Vol.: 44
Chanel 2 Note Off - Duracao: 589200 Nota: C1 Vol.: 76
Chanel 2 Note On - Duracao: 589200 Nota: C1 Vol.: 67
Chanel 9 Note Off - Duracao: 589440 Nota: C1 Vol.: 65
Chanel 9 Note On - Duracao: 589440 Nota: C1 Vol.: 62
Chanel 10 Note Off - Duracao: 589500 Nota: C1 Vol.: 71
Chanel 10 Note On - Duracao: 589500 Nota: C1 Vol.: 67
Chanel 6 Note Off - Duracao: 589740 Nota: C1 Vol.: 75
Chanel 6 Note On - Duracao: 589740 Nota: C1 Vol.: 86
Chanel 1 Note Off - Duracao: 589860 Nota: C1 Vol.: 77
Chanel 1 Note On - Duracao: 589860 Nota: C1 Vol.: 88
Chanel 5 Note Off - Duracao: 589860 Nota: C1 Vol.: 77
Chanel 5 Note On - Duracao: 589860 Nota: C1 Vol.: 88
Chanel 8 Note Off - Duracao: 589860 Nota: C1 Vol.: 75
Chanel 8 Note On - Duracao: 589860 Nota: C1 Vol.: 73
Chanel 7 Note Off - Duracao: 590040 Nota: C1 Vol.: 44
Chanel 7 Note On - Duracao: 590040 Nota: C1 Vol.: 40
Chanel 6 Note Off - Duracao: 590220 Nota: C1 Vol.: 86
Chanel 6 Note On - Duracao: 590220 Nota: C1 Vol.: 83
Chanel 1 Note Off - Duracao: 590340 Nota: C1 Vol.: 88
Chanel 1 Note On - Duracao: 590340 Nota: C1 Vol.: 77
Chanel 5 Note Off - Duracao: 590340 Nota: C1 Vol.: 88
Chanel 5 Note On - Duracao: 590340 Nota: C1 Vol.: 79
Chanel 3 Note Off - Duracao: 590460 Nota: C1 Vol.: 48
Chanel 3 Note On - Duracao: 590460 Nota: C1 Vol.: 63
Chanel 10 Note Off - Duracao: 590460 Nota: C1 Vol.: 67
Chanel 10 Note On - Duracao: 590460 Nota: C1 Vol.: 70
Chanel 6 Note Off - Duracao: 590700 Nota: C1 Vol.: 83
Chanel 6 Note On - Duracao: 590700 Nota: C1 Vol.: 77
Chanel 8 Note Off - Duracao: 590820 Nota: C1 Vol.: 73
Chanel 8 Note On - Duracao: 590820 Nota: C1 Vol.: 52
Chanel 7 Note Off - Duracao: 591000 Nota: C1 Vol.: 40
Chanel 7 Note On - Duracao: 591000 Nota: C1 Vol.: 41
Chanel 2 Note Off - Duracao: 591120 Nota: C1 Vol.: 67
Chanel 2 Note On - Duracao: 591120 Nota: C1 Vol.: 68
Chanel 1 Note Off - Duracao: 591300 Nota: C1 Vol.: 77
Chanel 1 Note On - Duracao: 591300 Nota: C1 Vol.: 80
Chanel 5 Note Off - Duracao: 591300 Nota: C1 Vol.: 79
Chanel 5 Note On - Duracao: 591300 Nota: C1 Vol.: 72
Chanel 9 Note Off - Duracao: 591360 Nota: C1 Vol.: 62
Chanel 9 Note On - Duracao: 591360 Nota: C1 Vol.: 73
Chanel 10 Note Off - Duracao: 591420 Nota: C1 Vol.: 70
Chanel 10 Note On - Duracao: 591420 Nota: C1 Vol.: 68
Chanel 6 Note Off - Duracao: 591660 Nota: C1 Vol.: 77
Chanel 6 Note On - Duracao: 591660 Nota: C1 Vol.: 67
Chanel 1 Note Off - Duracao: 591780 Nota: C1 Vol.: 80
Chanel 1 Note On - Duracao: 591780 Nota: C1 Vol.: 76
Chanel 7 Note Off - Duracao: 591960 Nota: C1 Vol.: 41
Chanel 7 Note On - Duracao: 591960 Nota: C1 Vol.: 41
Chanel 5 Note Off - Duracao: 592260 Nota: C1 Vol.: 72
Chanel 5 Note On - Duracao: 592260 Nota: C1 Vol.: 71
Chanel 3 Note Off - Duracao: 592380 Nota: C1 Vol.: 63
Chanel 3 Note On - Duracao: 592380 Nota: C1 Vol.: 77
Chanel 10 Note Off - Duracao: 592380 Nota: C1 Vol.: 68
Chanel 10 Note On - Duracao: 592380 Nota: C1 Vol.: 65
Chanel 1 Note Off - Duracao: 592740 Nota: C1 Vol.: 76
Chanel 1 Note On - Duracao: 592740 Nota: C1 Vol.: 84
Chanel 3 Note Off - Duracao: 592860 Nota: C1 Vol.: 77
Chanel 3 Note On - Duracao: 592860 Nota: C1 Vol.: 81
Chanel 4 Note Off - Duracao: 592920 Nota: C1 Vol.: 43
Chanel 4 Note On - Duracao: 592920 Nota: C1 Vol.: 45
Chanel 7 Note Off - Duracao: 592920 Nota: C1 Vol.: 41
Chanel 7 Note On - Duracao: 592920 Nota: C1 Vol.: 40
Chanel 3 Note Off - Duracao: 592980 Nota: C1 Vol.: 81
Chanel 3 Note On - Duracao: 592980 Nota: C1 Vol.: 71
Chanel 2 Note Off - Duracao: 593040 Nota: C1 Vol.: 68
Chanel 2 Note On - Duracao: 593040 Nota: C1 Vol.: 81
Chanel 1 Note Off - Duracao: 593220 Nota: C1 Vol.: 84
Chanel 1 Note On - Duracao: 593220 Nota: C1 Vol.: 89
Chanel 5 Note Off - Duracao: 593220 Nota: C1 Vol.: 71
Chanel 5 Note On - Duracao: 593220 Nota: C1 Vol.: 72
Chanel 9 Note Off - Duracao: 593280 Nota: C1 Vol.: 73
Chanel 9 Note On - Duracao: 593280 Nota: C1 Vol.: 84
Chanel 10 Note Off - Duracao: 593340 Nota: C1 Vol.: 65
Chanel 10 Note On - Duracao: 593340 Nota: C1 Vol.: 63
Chanel 3 Note Off - Duracao: 593460 Nota: C1 Vol.: 71
Chanel 3 Note On - Duracao: 593460 Nota: C1 Vol.: 71
Chanel 6 Note Off - Duracao: 593580 Nota: C1 Vol.: 67
Chanel 6 Note On - Duracao: 593580 Nota: C1 Vol.: 62
Chanel 1 Note Off - Duracao: 593700 Nota: C1 Vol.: 89
Chanel 1 Note On - Duracao: 593700 Nota: C1 Vol.: 88
Chanel 3 Note Off - Duracao: 593940 Nota: C1 Vol.: 71
Chanel 3 Note On - Duracao: 593940 Nota: C1 Vol.: 76
Chanel 2 Note Off - Duracao: 594000 Nota: C1 Vol.: 81
Chanel 2 Note On - Duracao: 594000 Nota: C1 Vol.: 73
Chanel 1 Note Off - Duracao: 594180 Nota: C1 Vol.: 88
Chanel 1 Note On - Duracao: 594180 Nota: C1 Vol.: 79
Chanel 3 Note Off - Duracao: 594180 Nota: C1 Vol.: 76
Chanel 3 Note On - Duracao: 594180 Nota: C1 Vol.: 79
Chanel 5 Note Off - Duracao: 594180 Nota: C1 Vol.: 72
Chanel 5 Note On - Duracao: 594180 Nota: C1 Vol.: 72
Chanel 10 Note Off - Duracao: 594300 Nota: C1 Vol.: 63
Chanel 10 Note On - Duracao: 594300 Nota: C1 Vol.: 57
Chanel 3 Note Off - Duracao: 594420 Nota: C1 Vol.: 79
Chanel 3 Note On - Duracao: 594420 Nota: C1 Vol.: 89
Chanel 3 Note Off - Duracao: 594540 Nota: C1 Vol.: 89
Chanel 3 Note On - Duracao: 594540 Nota: C1 Vol.: 98
Chanel 3 Note Off - Duracao: 594600 Nota: C1 Vol.: 98
Chanel 3 Note On - Duracao: 594600 Nota: C1 Vol.: 87
Chanel 1 Note Off - Duracao: 594660 Nota: C1 Vol.: 79
Chanel 1 Note On - Duracao: 594660 Nota: C1 Vol.: 86
Chanel 8 Note Off - Duracao: 594660 Nota: C1 Vol.: 52
Chanel 8 Note On - Duracao: 594660 Nota: C1 Vol.: 51
Chanel 3 Note Off - Duracao: 594720 Nota: C1 Vol.: 87
Chanel 3 Note On - Duracao: 594720 Nota: C1 Vol.: 92
Chanel 3 Note Off - Duracao: 594780 Nota: C1 Vol.: 92
Chanel 3 Note On - Duracao: 594780 Nota: C1 Vol.: 100
Chanel 3 Note Off - Duracao: 594840 Nota: C1 Vol.: 100
Chanel 3 Note On - Duracao: 594840 Nota: C1 Vol.: 95
Chanel 7 Note Off - Duracao: 594840 Nota: C1 Vol.: 40
Chanel 7 Note On - Duracao: 594840 Nota: C1 Vol.: 42
Chanel 1 Note Off - Duracao: 594900 Nota: C1 Vol.: 86
Chanel 1 Note On - Duracao: 594900 Nota: C1 Vol.: 94
Chanel 3 Note Off - Duracao: 594960 Nota: C1 Vol.: 95
Chanel 3 Note On - Duracao: 594960 Nota: C1 Vol.: 79
Chanel 1 Note Off - Duracao: 595020 Nota: C1 Vol.: 94
Chanel 1 Note On - Duracao: 595020 Nota: C1 Vol.: 79
Chanel 5 Note Off - Duracao: 595140 Nota: C1 Vol.: 72
Chanel 5 Note On - Duracao: 595140 Nota: C1 Vol.: 69
Chanel 3 Note Off - Duracao: 595200 Nota: C1 Vol.: 79
Chanel 3 Note On - Duracao: 595200 Nota: C1 Vol.: 77
Chanel 9 Note Off - Duracao: 595200 Nota: C1 Vol.: 84
Chanel 9 Note On - Duracao: 595200 Nota: C1 Vol.: 87
Chanel 3 Note Off - Duracao: 595440 Nota: C1 Vol.: 77
Chanel 3 Note On - Duracao: 595440 Nota: C1 Vol.: 75
Chanel 1 Note Off - Duracao: 595500 Nota: C1 Vol.: 79
Chanel 1 Note On - Duracao: 595500 Nota: C1 Vol.: 67
Chanel 6 Note Off - Duracao: 595500 Nota: C1 Vol.: 62
Chanel 6 Note On - Duracao: 595500 Nota: C1 Vol.: 45
Chanel 2 Note Off - Duracao: 595920 Nota: C1 Vol.: 73
Chanel 2 Note On - Duracao: 595920 Nota: C1 Vol.: 63
Chanel 3 Note Off - Duracao: 595920 Nota: C1 Vol.: 75
Chanel 3 Note On - Duracao: 595920 Nota: C1 Vol.: 79
Chanel 10 Note Off - Duracao: 596220 Nota: C1 Vol.: 57
Chanel 10 Note On - Duracao: 596220 Nota: C1 Vol.: 63
Chanel 3 Note Off - Duracao: 596400 Nota: C1 Vol.: 79
Chanel 3 Note On - Duracao: 596400 Nota: C1 Vol.: 81
Chanel 8 Note Off - Duracao: 596580 Nota: C1 Vol.: 51
Chanel 8 Note On - Duracao: 596580 Nota: C1 Vol.: 50
Chanel 4 Note Off - Duracao: 596760 Nota: C1 Vol.: 45
Chanel 4 Note On - Duracao: 596760 Nota: C1 Vol.: 80
Chanel 7 Note Off - Duracao: 596760 Nota: C1 Vol.: 42
Chanel 7 Note On - Duracao: 596760 Nota: C1 Vol.: 46
Chanel 3 Note Off - Duracao: 596880 Nota: C1 Vol.: 81
Chanel 3 Note On - Duracao: 596880 Nota: C1 Vol.: 74
Chanel 4 Note Off - Duracao: 597000 Nota: C1 Vol.: 80
Chanel 4 Note On - Duracao: 597000 Nota: C1 Vol.: 88
Chanel 5 Note Off - Duracao: 597060 Nota: C1 Vol.: 69
Chanel 5 Note On - Duracao: 597060 Nota: C1 Vol.: 73
Chanel 4 Note Off - Duracao: 597120 Nota: C1 Vol.: 88
Chanel 4 Note On - Duracao: 597120 Nota: C1 Vol.: 78
Chanel 9 Note Off - Duracao: 597120 Nota: C1 Vol.: 87
Chanel 9 Note On - Duracao: 597120 Nota: C1 Vol.: 91
Chanel 10 Note Off - Duracao: 597180 Nota: C1 Vol.: 63
Chanel 10 Note On - Duracao: 597180 Nota: C1 Vol.: 64
Chanel 3 Note Off - Duracao: 597360 Nota: C1 Vol.: 74
Chanel 3 Note On - Duracao: 597360 Nota: C1 Vol.: 77
Chanel 4 Note Off - Duracao: 597360 Nota: C1 Vol.: 78
Chanel 4 Note On - Duracao: 597360 Nota: C1 Vol.: 62
Chanel 1 Note Off - Duracao: 597420 Nota: C1 Vol.: 67
Chanel 1 Note On - Duracao: 597420 Nota: C1 Vol.: 86
Chanel 7 Note Off - Duracao: 597720 Nota: C1 Vol.: 46
Chanel 7 Note On - Duracao: 597720 Nota: C1 Vol.: 49
Chanel 3 Note Off - Duracao: 597840 Nota: C1 Vol.: 77
Chanel 3 Note On - Duracao: 597840 Nota: C1 Vol.: 78
Chanel 5 Note Off - Duracao: 598020 Nota: C1 Vol.: 73
Chanel 5 Note On - Duracao: 598020 Nota: C1 Vol.: 72
Chanel 10 Note Off - Duracao: 598140 Nota: C1 Vol.: 64
Chanel 10 Note On - Duracao: 598140 Nota: C1 Vol.: 70
Chanel 3 Note Off - Duracao: 598320 Nota: C1 Vol.: 78
Chanel 3 Note On - Duracao: 598320 Nota: C1 Vol.: 78
Chanel 4 Note Off - Duracao: 598320 Nota: C1 Vol.: 62
Chanel 4 Note On - Duracao: 598320 Nota: C1 Vol.: 90
Chanel 4 Note Off - Duracao: 598440 Nota: C1 Vol.: 90
Chanel 4 Note On - Duracao: 598440 Nota: C1 Vol.: 63
Chanel 7 Note Off - Duracao: 598680 Nota: C1 Vol.: 49
Chanel 7 Note On - Duracao: 598680 Nota: C1 Vol.: 49
Chanel 3 Note Off - Duracao: 598800 Nota: C1 Vol.: 78
Chanel 3 Note On - Duracao: 598800 Nota: C1 Vol.: 77
Chanel 5 Note Off - Duracao: 598980 Nota: C1 Vol.: 72
Chanel 5 Note On - Duracao: 598980 Nota: C1 Vol.: 76
Chanel 9 Note Off - Duracao: 599040 Nota: C1 Vol.: 91
Chanel 9 Note On - Duracao: 599040 Nota: C1 Vol.: 94
Chanel 10 Note Off - Duracao: 599100 Nota: C1 Vol.: 70
Chanel 10 Note On - Duracao: 599100 Nota: C1 Vol.: 65
Chanel 7 Note Off - Duracao: 599160 Nota: C1 Vol.: 49
Chanel 7 Note On - Duracao: 599160 Nota: C1 Vol.: 48
Chanel 3 Note Off - Duracao: 599280 Nota: C1 Vol.: 77
Chanel 3 Note On - Duracao: 599280 Nota: C1 Vol.: 70
Chanel 1 Note Off - Duracao: 599340 Nota: C1 Vol.: 86
Chanel 1 Note On - Duracao: 599340 Nota: C1 Vol.: 85
Chanel 6 Note Off - Duracao: 599340 Nota: C1 Vol.: 45
Chanel 6 Note On - Duracao: 599340 Nota: C1 Vol.: 50
Chanel 4 Note Off - Duracao: 599400 Nota: C1 Vol.: 63
Chanel 4 Note On - Duracao: 599400 Nota: C1 Vol.: 67
Chanel 7 Note Off - Duracao: 599640 Nota: C1 Vol.: 48
Chanel 7 Note On - Duracao: 599640 Nota: C1 Vol.: 48
Chanel 2 Note Off - Duracao: 599760 Nota: C1 Vol.: 63
Chanel 2 Note On - Duracao: 599760 Nota: C1 Vol.: 58
Chanel 5 Note Off - Duracao: 599940 Nota: C1 Vol.: 76
Chanel 5 Note On - Duracao: 599940 Nota: C1 Vol.: 71
Chanel 10 Note Off - Duracao: 600060 Nota: C1 Vol.: 65
Chanel 10 Note On - Duracao: 600060 Nota: C1 Vol.: 65
Chanel 7 Note Off - Duracao: 600120 Nota: C1 Vol.: 48
Chanel 7 Note On - Duracao: 600120 Nota: C1 Vol.: 51
Chanel 3 Note Off - Duracao: 600240 Nota: C1 Vol.: 70
Chanel 3 Note On - Duracao: 600240 Nota: C1 Vol.: 86
Chanel 6 Note Off - Duracao: 600300 Nota: C1 Vol.: 50
Chanel 6 Note On - Duracao: 600300 Nota: C1 Vol.: 48
Chanel 4 Note Off - Duracao: 600360 Nota: C1 Vol.: 67
Chanel 4 Note On - Duracao: 600360 Nota: C1 Vol.: 87
Chanel 8 Note Off - Duracao: 600420 Nota: C1 Vol.: 50
Chanel 8 Note On - Duracao: 600420 Nota: C1 Vol.: 53
Chanel 4 Note Off - Duracao: 600600 Nota: C1 Vol.: 87
Chanel 4 Note On - Duracao: 600600 Nota: C1 Vol.: 54
Chanel 3 Note Off - Duracao: 600720 Nota: C1 Vol.: 86
Chanel 3 Note On - Duracao: 600720 Nota: C1 Vol.: 82
Chanel 5 Note Off - Duracao: 600900 Nota: C1 Vol.: 71
Chanel 5 Note On - Duracao: 600900 Nota: C1 Vol.: 68
Chanel 9 Note Off - Duracao: 600960 Nota: C1 Vol.: 94
Chanel 9 Note On - Duracao: 600960 Nota: C1 Vol.: 92
Chanel 10 Note Off - Duracao: 601020 Nota: C1 Vol.: 65
Chanel 10 Note On - Duracao: 601020 Nota: C1 Vol.: 61
Chanel 7 Note Off - Duracao: 601080 Nota: C1 Vol.: 51
Chanel 7 Note On - Duracao: 601080 Nota: C1 Vol.: 45
Chanel 3 Note Off - Duracao: 601200 Nota: C1 Vol.: 82
Chanel 3 Note On - Duracao: 601200 Nota: C1 Vol.: 67
Chanel 1 Note Off - Duracao: 601260 Nota: C1 Vol.: 85
Chanel 1 Note On - Duracao: 601260 Nota: C1 Vol.: 81
Chanel 6 Note Off - Duracao: 601260 Nota: C1 Vol.: 48
Chanel 6 Note On - Duracao: 601260 Nota: C1 Vol.: 43
Chanel 10 Note Off - Duracao: 601980 Nota: C1 Vol.: 61
Chanel 10 Note On - Duracao: 601980 Nota: C1 Vol.: 62
Chanel 3 Note Off - Duracao: 602160 Nota: C1 Vol.: 67
Chanel 3 Note On - Duracao: 602160 Nota: C1 Vol.: 65
Chanel 4 Note Off - Duracao: 602520 Nota: C1 Vol.: 54
Chanel 4 Note On - Duracao: 602520 Nota: C1 Vol.: 47
Chanel 5 Note Off - Duracao: 602820 Nota: C1 Vol.: 68
Chanel 5 Note On - Duracao: 602820 Nota: C1 Vol.: 71
Chanel 9 Note Off - Duracao: 602880 Nota: C1 Vol.: 92
Chanel 9 Note On - Duracao: 602880 Nota: C1 Vol.: 92
Chanel 7 Note Off - Duracao: 603000 Nota: C1 Vol.: 45
Chanel 7 Note On - Duracao: 603000 Nota: C1 Vol.: 71
Chanel 3 Note Off - Duracao: 603120 Nota: C1 Vol.: 65
Chanel 3 Note On - Duracao: 603120 Nota: C1 Vol.: 55
Chanel 1 Note Off - Duracao: 603180 Nota: C1 Vol.: 81
Chanel 1 Note On - Duracao: 603180 Nota: C1 Vol.: 72
Chanel 6 Note Off - Duracao: 603180 Nota: C1 Vol.: 43
Chanel 6 Note On - Duracao: 603180 Nota: C1 Vol.: 42
Chanel 2 Note Off - Duracao: 603600 Nota: C1 Vol.: 58
Chanel 2 Note On - Duracao: 603600 Nota: C1 Vol.: 59
Chanel 5 Note Off - Duracao: 603780 Nota: C1 Vol.: 71
Chanel 5 Note On - Duracao: 603780 Nota: C1 Vol.: 74
Chanel 10 Note Off - Duracao: 603900 Nota: C1 Vol.: 62
Chanel 10 Note On - Duracao: 603900 Nota: C1 Vol.: 65
Chanel 7 Note Off - Duracao: 603960 Nota: C1 Vol.: 71
Chanel 7 Note On - Duracao: 603960 Nota: C1 Vol.: 70
Chanel 8 Note Off - Duracao: 604260 Nota: C1 Vol.: 53
Chanel 8 Note On - Duracao: 604260 Nota: C1 Vol.: 69
Chanel 5 Note Off - Duracao: 604740 Nota: C1 Vol.: 74
Chanel 5 Note On - Duracao: 604740 Nota: C1 Vol.: 55
Chanel 9 Note Off - Duracao: 604800 Nota: C1 Vol.: 92
Chanel 9 Note On - Duracao: 604800 Nota: C1 Vol.: 88
Chanel 10 Note Off - Duracao: 604860 Nota: C1 Vol.: 65
Chanel 10 Note On - Duracao: 604860 Nota: C1 Vol.: 69
Chanel 3 Note Off - Duracao: 605040 Nota: C1 Vol.: 55
Chanel 3 Note On - Duracao: 605040 Nota: C1 Vol.: 53
Chanel 1 Note Off - Duracao: 605100 Nota: C1 Vol.: 72
Chanel 1 Note On - Duracao: 605100 Nota: C1 Vol.: 52
Chanel 6 Note Off - Duracao: 605100 Nota: C1 Vol.: 42
Chanel 6 Note On - Duracao: 605100 Nota: C1 Vol.: 42
Chanel 10 Note Off - Duracao: 605820 Nota: C1 Vol.: 69
Chanel 10 Note On - Duracao: 605820 Nota: C1 Vol.: 71
Chanel 7 Note Off - Duracao: 605880 Nota: C1 Vol.: 70
Chanel 7 Note On - Duracao: 605880 Nota: C1 Vol.: 79
Chanel 6 Note Off - Duracao: 606060 Nota: C1 Vol.: 42
Chanel 6 Note On - Duracao: 606060 Nota: C1 Vol.: 40
Chanel 8 Note Off - Duracao: 606180 Nota: C1 Vol.: 69
Chanel 8 Note On - Duracao: 606180 Nota: C1 Vol.: 72
Chanel 4 Note Off - Duracao: 606360 Nota: C1 Vol.: 47
Chanel 4 Note On - Duracao: 606360 Nota: C1 Vol.: 47
Chanel 9 Note Off - Duracao: 606720 Nota: C1 Vol.: 88
Chanel 9 Note On - Duracao: 606720 Nota: C1 Vol.: 92
Chanel 10 Note Off - Duracao: 606780 Nota: C1 Vol.: 71
Chanel 10 Note On - Duracao: 606780 Nota: C1 Vol.: 73
Chanel 7 Note Off - Duracao: 606840 Nota: C1 Vol.: 79
Chanel 7 Note On - Duracao: 606840 Nota: C1 Vol.: 80
Chanel 6 Note Off - Duracao: 607020 Nota: C1 Vol.: 40
Chanel 6 Note On - Duracao: 607020 Nota: C1 Vol.: 41
Chanel 2 Note Off - Duracao: 607440 Nota: C1 Vol.: 59
Chanel 2 Note On - Duracao: 607440 Nota: C1 Vol.: 73
Chanel 10 Note Off - Duracao: 607740 Nota: C1 Vol.: 73
Chanel 10 Note On - Duracao: 607740 Nota: C1 Vol.: 74
Chanel 7 Note Off - Duracao: 607800 Nota: C1 Vol.: 80
Chanel 7 Note On - Duracao: 607800 Nota: C1 Vol.: 71
Chanel 6 Note Off - Duracao: 607980 Nota: C1 Vol.: 41
Chanel 6 Note On - Duracao: 607980 Nota: C1 Vol.: 41
Chanel 8 Note Off - Duracao: 608100 Nota: C1 Vol.: 72
Chanel 8 Note On - Duracao: 608100 Nota: C1 Vol.: 77
Chanel 5 Note Off - Duracao: 608580 Nota: C1 Vol.: 55
Chanel 5 Note On - Duracao: 608580 Nota: C1 Vol.: 79
Chanel 9 Note Off - Duracao: 608640 Nota: C1 Vol.: 92
Chanel 9 Note On - Duracao: 608640 Nota: C1 Vol.: 90
Chanel 10 Note Off - Duracao: 608700 Nota: C1 Vol.: 74
Chanel 10 Note On - Duracao: 608700 Nota: C1 Vol.: 72
Chanel 7 Note Off - Duracao: 608760 Nota: C1 Vol.: 71
Chanel 7 Note On - Duracao: 608760 Nota: C1 Vol.: 58
Chanel 3 Note Off - Duracao: 608880 Nota: C1 Vol.: 53
Chanel 3 Note On - Duracao: 608880 Nota: C1 Vol.: 58
Chanel 1 Note Off - Duracao: 608940 Nota: C1 Vol.: 52
Chanel 1 Note On - Duracao: 608940 Nota: C1 Vol.: 53
Chanel 6 Note Off - Duracao: 608940 Nota: C1 Vol.: 41
Chanel 6 Note On - Duracao: 608940 Nota: C1 Vol.: 40
Chanel 5 Note Off - Duracao: 609060 Nota: C1 Vol.: 79
Chanel 5 Note On - Duracao: 609060 Nota: C1 Vol.: 91
Chanel 8 Note Off - Duracao: 609060 Nota: C1 Vol.: 77
Chanel 8 Note On - Duracao: 609060 Nota: C1 Vol.: 72
Chanel 5 Note Off - Duracao: 609180 Nota: C1 Vol.: 91
Chanel 5 Note On - Duracao: 609180 Nota: C1 Vol.: 87
Chanel 5 Note Off - Duracao: 609300 Nota: C1 Vol.: 87
Chanel 5 Note On - Duracao: 609300 Nota: C1 Vol.: 86
Chanel 5 Note Off - Duracao: 609420 Nota: C1 Vol.: 86
Chanel 5 Note On - Duracao: 609420 Nota: C1 Vol.: 70
Chanel 5 Note Off - Duracao: 609900 Nota: C1 Vol.: 70
Chanel 5 Note On - Duracao: 609900 Nota: C1 Vol.: 69
Chanel 6 Note Off - Duracao: 609900 Nota: C1 Vol.: 40
Chanel 6 Note On - Duracao: 609900 Nota: C1 Vol.: 42
Chanel 4 Note Off - Duracao: 610200 Nota: C1 Vol.: 47
Chanel 4 Note On - Duracao: 610200 Nota: C1 Vol.: 48
Chanel 5 Note Off - Duracao: 610380 Nota: C1 Vol.: 69
Chanel 5 Note On - Duracao: 610380 Nota: C1 Vol.: 68
Chanel 9 Note Off - Duracao: 610560 Nota: C1 Vol.: 90
Chanel 9 Note On - Duracao: 610560 Nota: C1 Vol.: 92
Chanel 10 Note Off - Duracao: 610620 Nota: C1 Vol.: 72
Chanel 10 Note On - Duracao: 610620 Nota: C1 Vol.: 78
Chanel 3 Note Off - Duracao: 610800 Nota: C1 Vol.: 58
Chanel 3 Note On - Duracao: 610800 Nota: C1 Vol.: 75
Chanel 1 Note Off - Duracao: 610860 Nota: C1 Vol.: 53
Chanel 1 Note On - Duracao: 610860 Nota: C1 Vol.: 50
Chanel 5 Note Off - Duracao: 610860 Nota: C1 Vol.: 68
Chanel 5 Note On - Duracao: 610860 Nota: C1 Vol.: 88
Chanel 6 Note Off - Duracao: 610860 Nota: C1 Vol.: 42
Chanel 6 Note On - Duracao: 610860 Nota: C1 Vol.: 40
Chanel 5 Note Off - Duracao: 610980 Nota: C1 Vol.: 88
Chanel 5 Note On - Duracao: 610980 Nota: C1 Vol.: 91
Chanel 8 Note Off - Duracao: 610980 Nota: C1 Vol.: 72
Chanel 8 Note On - Duracao: 610980 Nota: C1 Vol.: 72
Chanel 5 Note Off - Duracao: 611100 Nota: C1 Vol.: 91
Chanel 5 Note On - Duracao: 611100 Nota: C1 Vol.: 67
Chanel 2 Note Off - Duracao: 611280 Nota: C1 Vol.: 73
Chanel 2 Note On - Duracao: 611280 Nota: C1 Vol.: 89
Chanel 5 Note Off - Duracao: 611580 Nota: C1 Vol.: 67
Chanel 5 Note On - Duracao: 611580 Nota: C1 Vol.: 47
Chanel 10 Note Off - Duracao: 611580 Nota: C1 Vol.: 78
Chanel 10 Note On - Duracao: 611580 Nota: C1 Vol.: 75
Chanel 3 Note Off - Duracao: 611760 Nota: C1 Vol.: 75
Chanel 3 Note On - Duracao: 611760 Nota: C1 Vol.: 66
Chanel 1 Note Off - Duracao: 611820 Nota: C1 Vol.: 50
Chanel 1 Note On - Duracao: 611820 Nota: C1 Vol.: 80
Chanel 6 Note Off - Duracao: 611820 Nota: C1 Vol.: 40
Chanel 6 Note On - Duracao: 611820 Nota: C1 Vol.: 43
Chanel 1 Note Off - Duracao: 611940 Nota: C1 Vol.: 80
Chanel 1 Note On - Duracao: 611940 Nota: C1 Vol.: 99
Chanel 8 Note Off - Duracao: 611940 Nota: C1 Vol.: 72
Chanel 8 Note On - Duracao: 611940 Nota: C1 Vol.: 70
Chanel 1 Note Off - Duracao: 612000 Nota: C1 Vol.: 99
Chanel 1 Note On - Duracao: 612000 Nota: C1 Vol.: 67
Chanel 1 Note Off - Duracao: 612240 Nota: C1 Vol.: 67
Chanel 1 Note On - Duracao: 612240 Nota: C1 Vol.: 57
Chanel 9 Note Off - Duracao: 612480 Nota: C1 Vol.: 92
Chanel 9 Note On - Duracao: 612480 Nota: C1 Vol.: 91
Chanel 10 Note Off - Duracao: 612540 Nota: C1 Vol.: 75
Chanel 10 Note On - Duracao: 612540 Nota: C1 Vol.: 71
Chanel 7 Note Off - Duracao: 612600 Nota: C1 Vol.: 58
Chanel 7 Note On - Duracao: 612600 Nota: C1 Vol.: 74
Chanel 1 Note Off - Duracao: 612720 Nota: C1 Vol.: 57
Chanel 1 Note On - Duracao: 612720 Nota: C1 Vol.: 67
Chanel 6 Note Off - Duracao: 612780 Nota: C1 Vol.: 43
Chanel 6 Note On - Duracao: 612780 Nota: C1 Vol.: 49
Chanel 1 Note Off - Duracao: 613200 Nota: C1 Vol.: 67
Chanel 1 Note On - Duracao: 613200 Nota: C1 Vol.: 99
Chanel 2 Note Off - Duracao: 613200 Nota: C1 Vol.: 89
Chanel 2 Note On - Duracao: 613200 Nota: C1 Vol.: 92
Chanel 1 Note Off - Duracao: 613260 Nota: C1 Vol.: 99
Chanel 1 Note On - Duracao: 613260 Nota: C1 Vol.: 100
Chanel 6 Note Off - Duracao: 613260 Nota: C1 Vol.: 49
Chanel 6 Note On - Duracao: 613260 Nota: C1 Vol.: 47
Chanel 1 Note Off - Duracao: 613320 Nota: C1 Vol.: 100
Chanel 1 Note On - Duracao: 613320 Nota: C1 Vol.: 73
Chanel 5 Note Off - Duracao: 613500 Nota: C1 Vol.: 47
Chanel 5 Note On - Duracao: 613500 Nota: C1 Vol.: 44
Chanel 1 Note Off - Duracao: 613560 Nota: C1 Vol.: 73
Chanel 1 Note On - Duracao: 613560 Nota: C1 Vol.: 54
Chanel 7 Note Off - Duracao: 613560 Nota: C1 Vol.: 74
Chanel 7 Note On - Duracao: 613560 Nota: C1 Vol.: 57
Chanel 3 Note Off - Duracao: 613680 Nota: C1 Vol.: 66
Chanel 3 Note On - Duracao: 613680 Nota: C1 Vol.: 77
Chanel 6 Note Off - Duracao: 613740 Nota: C1 Vol.: 47
Chanel 6 Note On - Duracao: 613740 Nota: C1 Vol.: 49
Chanel 8 Note Off - Duracao: 613860 Nota: C1 Vol.: 70
Chanel 8 Note On - Duracao: 613860 Nota: C1 Vol.: 70
Chanel 4 Note Off - Duracao: 614040 Nota: C1 Vol.: 48
Chanel 4 Note On - Duracao: 614040 Nota: C1 Vol.: 54
Chanel 3 Note Off - Duracao: 614160 Nota: C1 Vol.: 77
Chanel 3 Note On - Duracao: 614160 Nota: C1 Vol.: 73
Chanel 6 Note Off - Duracao: 614220 Nota: C1 Vol.: 49
Chanel 6 Note On - Duracao: 614220 Nota: C1 Vol.: 47
Chanel 9 Note Off - Duracao: 614400 Nota: C1 Vol.: 91
Chanel 9 Note On - Duracao: 614400 Nota: C1 Vol.: 82
Chanel 10 Note Off - Duracao: 614460 Nota: C1 Vol.: 71
Chanel 10 Note On - Duracao: 614460 Nota: C1 Vol.: 85
Chanel 1 Note Off - Duracao: 614520 Nota: C1 Vol.: 54
Chanel 1 Note On - Duracao: 614520 Nota: C1 Vol.: 60
Chanel 6 Note Off - Duracao: 614700 Nota: C1 Vol.: 47
Chanel 6 Note On - Duracao: 614700 Nota: C1 Vol.: 50
Chanel 10 Note Off - Duracao: 614940 Nota: C1 Vol.: 85
Chanel 10 Note On - Duracao: 614940 Nota: C1 Vol.: 82
Chanel 2 Note Off - Duracao: 615120 Nota: C1 Vol.: 92
Chanel 2 Note On - Duracao: 615120 Nota: C1 Vol.: 94
Chanel 3 Note Off - Duracao: 615120 Nota: C1 Vol.: 73
Chanel 3 Note On - Duracao: 615120 Nota: C1 Vol.: 76
Chanel 6 Note Off - Duracao: 615180 Nota: C1 Vol.: 50
Chanel 6 Note On - Duracao: 615180 Nota: C1 Vol.: 50
Chanel 1 Note Off - Duracao: 615480 Nota: C1 Vol.: 60
Chanel 1 Note On - Duracao: 615480 Nota: C1 Vol.: 56
Chanel 3 Note Off - Duracao: 615600 Nota: C1 Vol.: 76
Chanel 3 Note On - Duracao: 615600 Nota: C1 Vol.: 83
Chanel 8 Note Off - Duracao: 615780 Nota: C1 Vol.: 70
Chanel 8 Note On - Duracao: 615780 Nota: C1 Vol.: 69
Chanel 10 Note Off - Duracao: 615900 Nota: C1 Vol.: 82
Chanel 10 Note On - Duracao: 615900 Nota: C1 Vol.: 81
Chanel 4 Note Off - Duracao: 615960 Nota: C1 Vol.: 54
Chanel 4 Note On - Duracao: 615960 Nota: C1 Vol.: 45
Chanel 3 Note Off - Duracao: 616080 Nota: C1 Vol.: 83
Chanel 3 Note On - Duracao: 616080 Nota: C1 Vol.: 79
Chanel 6 Note Off - Duracao: 616140 Nota: C1 Vol.: 50
Chanel 6 Note On - Duracao: 616140 Nota: C1 Vol.: 51
Chanel 10 Note Off - Duracao: 616380 Nota: C1 Vol.: 81
Chanel 10 Note On - Duracao: 616380 Nota: C1 Vol.: 80
Chanel 3 Note Off - Duracao: 616560 Nota: C1 Vol.: 79
Chanel 3 Note On - Duracao: 616560 Nota: C1 Vol.: 87
Chanel 3 Note Off - Duracao: 616800 Nota: C1 Vol.: 87
Chanel 3 Note On - Duracao: 616800 Nota: C1 Vol.: 85
Chanel 10 Note Off - Duracao: 616860 Nota: C1 Vol.: 80
Chanel 10 Note On - Duracao: 616860 Nota: C1 Vol.: 73
Chanel 6 Note Off - Duracao: 617100 Nota: C1 Vol.: 51
Chanel 6 Note On - Duracao: 617100 Nota: C1 Vol.: 51
Chanel 3 Note Off - Duracao: 617280 Nota: C1 Vol.: 85
Chanel 3 Note On - Duracao: 617280 Nota: C1 Vol.: 76
Chanel 5 Note Off - Duracao: 617340 Nota: C1 Vol.: 44
Chanel 5 Note On - Duracao: 617340 Nota: C1 Vol.: 72
Chanel 7 Note Off - Duracao: 617400 Nota: C1 Vol.: 57
Chanel 7 Note On - Duracao: 617400 Nota: C1 Vol.: 61
Chanel 8 Note Off - Duracao: 617700 Nota: C1 Vol.: 69
Chanel 8 Note On - Duracao: 617700 Nota: C1 Vol.: 68
Chanel 10 Note Off - Duracao: 617820 Nota: C1 Vol.: 73
Chanel 10 Note On - Duracao: 617820 Nota: C1 Vol.: 82
Chanel 6 Note Off - Duracao: 618060 Nota: C1 Vol.: 51
Chanel 6 Note On - Duracao: 618060 Nota: C1 Vol.: 50
Chanel 3 Note Off - Duracao: 618240 Nota: C1 Vol.: 76
Chanel 3 Note On - Duracao: 618240 Nota: C1 Vol.: 82
Chanel 9 Note Off - Duracao: 618240 Nota: C1 Vol.: 82
Chanel 9 Note On - Duracao: 618240 Nota: C1 Vol.: 80
Chanel 5 Note Off - Duracao: 618300 Nota: C1 Vol.: 72
Chanel 5 Note On - Duracao: 618300 Nota: C1 Vol.: 73
Chanel 10 Note Off - Duracao: 618300 Nota: C1 Vol.: 82
Chanel 10 Note On - Duracao: 618300 Nota: C1 Vol.: 85
Chanel 10 Note Off - Duracao: 618540 Nota: C1 Vol.: 85
Chanel 10 Note On - Duracao: 618540 Nota: C1 Vol.: 85
Chanel 10 Note Off - Duracao: 618660 Nota: C1 Vol.: 85
Chanel 10 Note On - Duracao: 618660 Nota: C1 Vol.: 90
Chanel 3 Note Off - Duracao: 618720 Nota: C1 Vol.: 82
Chanel 3 Note On - Duracao: 618720 Nota: C1 Vol.: 65
Chanel 10 Note Off - Duracao: 618780 Nota: C1 Vol.: 90
Chanel 10 Note On - Duracao: 618780 Nota: C1 Vol.: 92
Chanel 10 Note Off - Duracao: 618900 Nota: C1 Vol.: 92
Chanel 10 Note On - Duracao: 618900 Nota: C1 Vol.: 92
Chanel 2 Note Off - Duracao: 618960 Nota: C1 Vol.: 94
Chanel 2 Note On - Duracao: 618960 Nota: C1 Vol.: 94
Chanel 6 Note Off - Duracao: 619020 Nota: C1 Vol.: 50
Chanel 6 Note On - Duracao: 619020 Nota: C1 Vol.: 48
Chanel 10 Note Off - Duracao: 619020 Nota: C1 Vol.: 92
Chanel 10 Note On - Duracao: 619020 Nota: C1 Vol.: 80
Chanel 5 Note Off - Duracao: 619260 Nota: C1 Vol.: 73
Chanel 5 Note On - Duracao: 619260 Nota: C1 Vol.: 76
Chanel 10 Note Off - Duracao: 619260 Nota: C1 Vol.: 80
Chanel 10 Note On - Duracao: 619260 Nota: C1 Vol.: 63
Chanel 1 Note Off - Duracao: 619320 Nota: C1 Vol.: 56
Chanel 1 Note On - Duracao: 619320 Nota: C1 Vol.: 85
Chanel 7 Note Off - Duracao: 619320 Nota: C1 Vol.: 61
Chanel 7 Note On - Duracao: 619320 Nota: C1 Vol.: 61
Chanel 8 Note Off - Duracao: 619620 Nota: C1 Vol.: 68
Chanel 8 Note On - Duracao: 619620 Nota: C1 Vol.: 64
Chanel 4 Note Off - Duracao: 619800 Nota: C1 Vol.: 45
Chanel 4 Note On - Duracao: 619800 Nota: C1 Vol.: 69
Chanel 5 Note Off - Duracao: 620220 Nota: C1 Vol.: 76
Chanel 5 Note On - Duracao: 620220 Nota: C1 Vol.: 78
Chanel 10 Note Off - Duracao: 620220 Nota: C1 Vol.: 63
Chanel 10 Note On - Duracao: 620220 Nota: C1 Vol.: 63
Chanel 3 Note Off - Duracao: 620640 Nota: C1 Vol.: 65
Chanel 3 Note On - Duracao: 620640 Nota: C1 Vol.: 75
Chanel 4 Note Off - Duracao: 620760 Nota: C1 Vol.: 69
Chanel 4 Note On - Duracao: 620760 Nota: C1 Vol.: 88
Chanel 4 Note Off - Duracao: 620880 Nota: C1 Vol.: 88
Chanel 4 Note On - Duracao: 620880 Nota: C1 Vol.: 92
Chanel 6 Note Off - Duracao: 620940 Nota: C1 Vol.: 48
Chanel 6 Note On - Duracao: 620940 Nota: C1 Vol.: 49
Chanel 4 Note Off - Duracao: 621000 Nota: C1 Vol.: 92
Chanel 4 Note On - Duracao: 621000 Nota: C1 Vol.: 99
Chanel 4 Note Off - Duracao: 621060 Nota: C1 Vol.: 99
Chanel 4 Note On - Duracao: 621060 Nota: C1 Vol.: 99
Chanel 4 Note Off - Duracao: 621120 Nota: C1 Vol.: 99
Chanel 4 Note On - Duracao: 621120 Nota: C1 Vol.: 100
Chanel 4 Note Off - Duracao: 621180 Nota: C1 Vol.: 100
Chanel 4 Note On - Duracao: 621180 Nota: C1 Vol.: 99
Chanel 5 Note Off - Duracao: 621180 Nota: C1 Vol.: 78
Chanel 5 Note On - Duracao: 621180 Nota: C1 Vol.: 75
Chanel 10 Note Off - Duracao: 621180 Nota: C1 Vol.: 63
Chanel 10 Note On - Duracao: 621180 Nota: C1 Vol.: 59
Chanel 1 Note Off - Duracao: 621240 Nota: C1 Vol.: 85
Chanel 1 Note On - Duracao: 621240 Nota: C1 Vol.: 91
Chanel 4 Note Off - Duracao: 621240 Nota: C1 Vol.: 99
Chanel 4 Note On - Duracao: 621240 Nota: C1 Vol.: 100
Chanel 7 Note Off - Duracao: 621240 Nota: C1 Vol.: 61
Chanel 7 Note On - Duracao: 621240 Nota: C1 Vol.: 68
Chanel 4 Note Off - Duracao: 621300 Nota: C1 Vol.: 100
Chanel 4 Note On - Duracao: 621300 Nota: C1 Vol.: 100
Chanel 4 Note Off - Duracao: 621360 Nota: C1 Vol.: 100
Chanel 4 Note On - Duracao: 621360 Nota: C1 Vol.: 89
Chanel 4 Note Off - Duracao: 621480 Nota: C1 Vol.: 89
Chanel 4 Note On - Duracao: 621480 Nota: C1 Vol.: 46
Chanel 8 Note Off - Duracao: 621540 Nota: C1 Vol.: 64
Chanel 8 Note On - Duracao: 621540 Nota: C1 Vol.: 54
Chanel 3 Note Off - Duracao: 621600 Nota: C1 Vol.: 75
Chanel 3 Note On - Duracao: 621600 Nota: C1 Vol.: 85
Chanel 3 Note Off - Duracao: 622080 Nota: C1 Vol.: 85
Chanel 3 Note On - Duracao: 622080 Nota: C1 Vol.: 86
Chanel 9 Note Off - Duracao: 622080 Nota: C1 Vol.: 80
Chanel 9 Note On - Duracao: 622080 Nota: C1 Vol.: 88
Chanel 5 Note Off - Duracao: 622140 Nota: C1 Vol.: 75
Chanel 5 Note On - Duracao: 622140 Nota: C1 Vol.: 80
Chanel 10 Note Off - Duracao: 622140 Nota: C1 Vol.: 59
Chanel 10 Note On - Duracao: 622140 Nota: C1 Vol.: 56
Chanel 7 Note Off - Duracao: 622200 Nota: C1 Vol.: 68
Chanel 7 Note On - Duracao: 622200 Nota: C1 Vol.: 65
Chanel 3 Note Off - Duracao: 622560 Nota: C1 Vol.: 86
Chanel 3 Note On - Duracao: 622560 Nota: C1 Vol.: 66
Chanel 5 Note Off - Duracao: 622620 Nota: C1 Vol.: 80
Chanel 5 Note On - Duracao: 622620 Nota: C1 Vol.: 80
Chanel 2 Note Off - Duracao: 622800 Nota: C1 Vol.: 94
Chanel 2 Note On - Duracao: 622800 Nota: C1 Vol.: 93
Chanel 6 Note Off - Duracao: 622860 Nota: C1 Vol.: 49
Chanel 6 Note On - Duracao: 622860 Nota: C1 Vol.: 49
Chanel 5 Note Off - Duracao: 623100 Nota: C1 Vol.: 80
Chanel 5 Note On - Duracao: 623100 Nota: C1 Vol.: 56
Chanel 1 Note Off - Duracao: 623160 Nota: C1 Vol.: 91
Chanel 1 Note On - Duracao: 623160 Nota: C1 Vol.: 94
Chanel 7 Note Off - Duracao: 623160 Nota: C1 Vol.: 65
Chanel 7 Note On - Duracao: 623160 Nota: C1 Vol.: 65
Chanel 3 Note Off - Duracao: 623520 Nota: C1 Vol.: 66
Chanel 3 Note On - Duracao: 623520 Nota: C1 Vol.: 49
Chanel 9 Note Off - Duracao: 624000 Nota: C1 Vol.: 88
Chanel 9 Note On - Duracao: 624000 Nota: C1 Vol.: 81
Chanel 10 Note Off - Duracao: 624060 Nota: C1 Vol.: 56
Chanel 10 Note On - Duracao: 624060 Nota: C1 Vol.: 63
Chanel 7 Note Off - Duracao: 624120 Nota: C1 Vol.: 65
Chanel 7 Note On - Duracao: 624120 Nota: C1 Vol.: 87
Chanel 7 Note Off - Duracao: 624240 Nota: C1 Vol.: 87
Chanel 7 Note On - Duracao: 624240 Nota: C1 Vol.: 73
Chanel 7 Note Off - Duracao: 624720 Nota: C1 Vol.: 73
Chanel 7 Note On - Duracao: 624720 Nota: C1 Vol.: 87
Chanel 6 Note Off - Duracao: 624780 Nota: C1 Vol.: 49
Chanel 6 Note On - Duracao: 624780 Nota: C1 Vol.: 50
Chanel 7 Note Off - Duracao: 624840 Nota: C1 Vol.: 87
Chanel 7 Note On - Duracao: 624840 Nota: C1 Vol.: 87
Chanel 7 Note Off - Duracao: 624960 Nota: C1 Vol.: 87
Chanel 7 Note On - Duracao: 624960 Nota: C1 Vol.: 76
Chanel 7 Note Off - Duracao: 625200 Nota: C1 Vol.: 76
Chanel 7 Note On - Duracao: 625200 Nota: C1 Vol.: 79
Chanel 4 Note Off - Duracao: 625320 Nota: C1 Vol.: 46
Chanel 4 Note On - Duracao: 625320 Nota: C1 Vol.: 48
Chanel 8 Note Off - Duracao: 625380 Nota: C1 Vol.: 54
Chanel 8 Note On - Duracao: 625380 Nota: C1 Vol.: 56
Chanel 7 Note Off - Duracao: 625440 Nota: C1 Vol.: 79
Chanel 7 Note On - Duracao: 625440 Nota: C1 Vol.: 72
Chanel 7 Note Off - Duracao: 625920 Nota: C1 Vol.: 72
Chanel 7 Note On - Duracao: 625920 Nota: C1 Vol.: 79
Chanel 9 Note Off - Duracao: 625920 Nota: C1 Vol.: 81
Chanel 9 Note On - Duracao: 625920 Nota: C1 Vol.: 89
Chanel 10 Note Off - Duracao: 625980 Nota: C1 Vol.: 63
Chanel 10 Note On - Duracao: 625980 Nota: C1 Vol.: 62
Chanel 7 Note Off - Duracao: 626160 Nota: C1 Vol.: 79
Chanel 7 Note On - Duracao: 626160 Nota: C1 Vol.: 80
Chanel 7 Note Off - Duracao: 626400 Nota: C1 Vol.: 80
Chanel 7 Note On - Duracao: 626400 Nota: C1 Vol.: 70
Chanel 2 Note Off - Duracao: 626640 Nota: C1 Vol.: 93
Chanel 2 Note On - Duracao: 626640 Nota: C1 Vol.: 92
Chanel 6 Note Off - Duracao: 626700 Nota: C1 Vol.: 50
Chanel 6 Note On - Duracao: 626700 Nota: C1 Vol.: 48
Chanel 7 Note Off - Duracao: 626880 Nota: C1 Vol.: 70
Chanel 7 Note On - Duracao: 626880 Nota: C1 Vol.: 82
Chanel 9 Note Off - Duracao: 626880 Nota: C1 Vol.: 89
Chanel 9 Note On - Duracao: 626880 Nota: C1 Vol.: 87
Chanel 5 Note Off - Duracao: 626940 Nota: C1 Vol.: 56
Chanel 5 Note On - Duracao: 626940 Nota: C1 Vol.: 73
Chanel 1 Note Off - Duracao: 627000 Nota: C1 Vol.: 94
Chanel 1 Note On - Duracao: 627000 Nota: C1 Vol.: 94
Chanel 7 Note Off - Duracao: 627120 Nota: C1 Vol.: 82
Chanel 7 Note On - Duracao: 627120 Nota: C1 Vol.: 84
Chanel 8 Note Off - Duracao: 627300 Nota: C1 Vol.: 56
Chanel 8 Note On - Duracao: 627300 Nota: C1 Vol.: 56
Chanel 3 Note Off - Duracao: 627360 Nota: C1 Vol.: 49
Chanel 3 Note On - Duracao: 627360 Nota: C1 Vol.: 74
Chanel 7 Note Off - Duracao: 627360 Nota: C1 Vol.: 84
Chanel 7 Note On - Duracao: 627360 Nota: C1 Vol.: 93
Chanel 7 Note Off - Duracao: 627480 Nota: C1 Vol.: 93
Chanel 7 Note On - Duracao: 627480 Nota: C1 Vol.: 62
Chanel 9 Note Off - Duracao: 627840 Nota: C1 Vol.: 87
Chanel 9 Note On - Duracao: 627840 Nota: C1 Vol.: 87
Chanel 5 Note Off - Duracao: 627900 Nota: C1 Vol.: 73
Chanel 5 Note On - Duracao: 627900 Nota: C1 Vol.: 79
Chanel 10 Note Off - Duracao: 627900 Nota: C1 Vol.: 62
Chanel 10 Note On - Duracao: 627900 Nota: C1 Vol.: 71
Chanel 3 Note Off - Duracao: 628320 Nota: C1 Vol.: 74
Chanel 3 Note On - Duracao: 628320 Nota: C1 Vol.: 75
Chanel 7 Note Off - Duracao: 628440 Nota: C1 Vol.: 62
Chanel 7 Note On - Duracao: 628440 Nota: C1 Vol.: 71
Chanel 2 Note Off - Duracao: 628560 Nota: C1 Vol.: 92
Chanel 2 Note On - Duracao: 628560 Nota: C1 Vol.: 89
Chanel 6 Note Off - Duracao: 628620 Nota: C1 Vol.: 48
Chanel 6 Note On - Duracao: 628620 Nota: C1 Vol.: 48
Chanel 9 Note Off - Duracao: 628800 Nota: C1 Vol.: 87
Chanel 9 Note On - Duracao: 628800 Nota: C1 Vol.: 82
Chanel 5 Note Off - Duracao: 628860 Nota: C1 Vol.: 79
Chanel 5 Note On - Duracao: 628860 Nota: C1 Vol.: 85
Chanel 7 Note Off - Duracao: 628920 Nota: C1 Vol.: 71
Chanel 7 Note On - Duracao: 628920 Nota: C1 Vol.: 80
Chanel 4 Note Off - Duracao: 629160 Nota: C1 Vol.: 48
Chanel 4 Note On - Duracao: 629160 Nota: C1 Vol.: 72
Chanel 7 Note Off - Duracao: 629160 Nota: C1 Vol.: 80
Chanel 7 Note On - Duracao: 629160 Nota: C1 Vol.: 83
Chanel 8 Note Off - Duracao: 629220 Nota: C1 Vol.: 56
Chanel 8 Note On - Duracao: 629220 Nota: C1 Vol.: 55
Chanel 3 Note Off - Duracao: 629280 Nota: C1 Vol.: 75
Chanel 3 Note On - Duracao: 629280 Nota: C1 Vol.: 62
Chanel 5 Note Off - Duracao: 629340 Nota: C1 Vol.: 85
Chanel 5 Note On - Duracao: 629340 Nota: C1 Vol.: 84
Chanel 7 Note Off - Duracao: 629400 Nota: C1 Vol.: 83
Chanel 7 Note On - Duracao: 629400 Nota: C1 Vol.: 88
Chanel 7 Note Off - Duracao: 629520 Nota: C1 Vol.: 88
Chanel 7 Note On - Duracao: 629520 Nota: C1 Vol.: 70
Chanel 4 Note Off - Duracao: 629640 Nota: C1 Vol.: 72
Chanel 4 Note On - Duracao: 629640 Nota: C1 Vol.: 100
Chanel 4 Note Off - Duracao: 629700 Nota: C1 Vol.: 100
Chanel 4 Note On - Duracao: 629700 Nota: C1 Vol.: 100
Chanel 4 Note Off - Duracao: 629760 Nota: C1 Vol.: 100
Chanel 4 Note On - Duracao: 629760 Nota: C1 Vol.: 98
Chanel 4 Note Off - Duracao: 629820 Nota: C1 Vol.: 98
Chanel 4 Note On - Duracao: 629820 Nota: C1 Vol.: 100
Chanel 5 Note Off - Duracao: 629820 Nota: C1 Vol.: 84
Chanel 5 Note On - Duracao: 629820 Nota: C1 Vol.: 84
Chanel 10 Note Off - Duracao: 629820 Nota: C1 Vol.: 71
Chanel 10 Note On - Duracao: 629820 Nota: C1 Vol.: 83
Chanel 4 Note Off - Duracao: 629880 Nota: C1 Vol.: 100
Chanel 4 Note On - Duracao: 629880 Nota: C1 Vol.: 100
Chanel 4 Note Off - Duracao: 629940 Nota: C1 Vol.: 100
Chanel 4 Note On - Duracao: 629940 Nota: C1 Vol.: 100
Chanel 4 Note Off - Duracao: 630000 Nota: C1 Vol.: 100
Chanel 4 Note On - Duracao: 630000 Nota: C1 Vol.: 100
Chanel 7 Note Off - Duracao: 630000 Nota: C1 Vol.: 70
Chanel 7 Note On - Duracao: 630000 Nota: C1 Vol.: 76
Chanel 4 Note Off - Duracao: 630060 Nota: C1 Vol.: 100
Chanel 4 Note On - Duracao: 630060 Nota: C1 Vol.: 95
Chanel 4 Note Off - Duracao: 630180 Nota: C1 Vol.: 95
Chanel 4 Note On - Duracao: 630180 Nota: C1 Vol.: 77
Chanel 7 Note Off - Duracao: 630240 Nota: C1 Vol.: 76
Chanel 7 Note On - Duracao: 630240 Nota: C1 Vol.: 75
Chanel 5 Note Off - Duracao: 630300 Nota: C1 Vol.: 84
Chanel 5 Note On - Duracao: 630300 Nota: C1 Vol.: 84
Chanel 2 Note Off - Duracao: 630480 Nota: C1 Vol.: 89
Chanel 2 Note On - Duracao: 630480 Nota: C1 Vol.: 74
Chanel 7 Note Off - Duracao: 630480 Nota: C1 Vol.: 75
Chanel 7 Note On - Duracao: 630480 Nota: C1 Vol.: 64
Chanel 6 Note Off - Duracao: 630540 Nota: C1 Vol.: 48
Chanel 6 Note On - Duracao: 630540 Nota: C1 Vol.: 50
Chanel 4 Note Off - Duracao: 630660 Nota: C1 Vol.: 77
Chanel 4 Note On - Duracao: 630660 Nota: C1 Vol.: 74
Chanel 9 Note Off - Duracao: 630720 Nota: C1 Vol.: 82
Chanel 9 Note On - Duracao: 630720 Nota: C1 Vol.: 84
Chanel 5 Note Off - Duracao: 630780 Nota: C1 Vol.: 84
Chanel 5 Note On - Duracao: 630780 Nota: C1 Vol.: 86
Chanel 10 Note Off - Duracao: 630780 Nota: C1 Vol.: 83
Chanel 10 Note On - Duracao: 630780 Nota: C1 Vol.: 84
Chanel 1 Note Off - Duracao: 630840 Nota: C1 Vol.: 94
Chanel 1 Note On - Duracao: 630840 Nota: C1 Vol.: 91
Chanel 4 Note Off - Duracao: 631140 Nota: C1 Vol.: 74
Chanel 4 Note On - Duracao: 631140 Nota: C1 Vol.: 73
Chanel 8 Note Off - Duracao: 631140 Nota: C1 Vol.: 55
Chanel 8 Note On - Duracao: 631140 Nota: C1 Vol.: 61
Chanel 3 Note Off - Duracao: 631200 Nota: C1 Vol.: 62
Chanel 3 Note On - Duracao: 631200 Nota: C1 Vol.: 47
Chanel 5 Note Off - Duracao: 631260 Nota: C1 Vol.: 86
Chanel 5 Note On - Duracao: 631260 Nota: C1 Vol.: 86
Chanel 10 Note Off - Duracao: 631260 Nota: C1 Vol.: 84
Chanel 10 Note On - Duracao: 631260 Nota: C1 Vol.: 84
Chanel 7 Note Off - Duracao: 631440 Nota: C1 Vol.: 64
Chanel 7 Note On - Duracao: 631440 Nota: C1 Vol.: 52
Chanel 6 Note Off - Duracao: 631500 Nota: C1 Vol.: 50
Chanel 6 Note On - Duracao: 631500 Nota: C1 Vol.: 44
Chanel 4 Note Off - Duracao: 631620 Nota: C1 Vol.: 73
Chanel 4 Note On - Duracao: 631620 Nota: C1 Vol.: 63
Chanel 5 Note Off - Duracao: 631740 Nota: C1 Vol.: 86
Chanel 5 Note On - Duracao: 631740 Nota: C1 Vol.: 84
Chanel 10 Note Off - Duracao: 631740 Nota: C1 Vol.: 84
Chanel 10 Note On - Duracao: 631740 Nota: C1 Vol.: 83
Chanel 5 Note Off - Duracao: 632220 Nota: C1 Vol.: 84
Chanel 5 Note On - Duracao: 632220 Nota: C1 Vol.: 85
Chanel 10 Note Off - Duracao: 632220 Nota: C1 Vol.: 83
Chanel 10 Note On - Duracao: 632220 Nota: C1 Vol.: 65
Chanel 2 Note Off - Duracao: 632400 Nota: C1 Vol.: 74
Chanel 2 Note On - Duracao: 632400 Nota: C1 Vol.: 55
Chanel 4 Note Off - Duracao: 632580 Nota: C1 Vol.: 63
Chanel 4 Note On - Duracao: 632580 Nota: C1 Vol.: 69
Chanel 9 Note Off - Duracao: 632640 Nota: C1 Vol.: 84
Chanel 9 Note On - Duracao: 632640 Nota: C1 Vol.: 87
Chanel 5 Note Off - Duracao: 632700 Nota: C1 Vol.: 85
Chanel 5 Note On - Duracao: 632700 Nota: C1 Vol.: 86
Chanel 4 Note Off - Duracao: 633060 Nota: C1 Vol.: 69
Chanel 4 Note On - Duracao: 633060 Nota: C1 Vol.: 91
Chanel 8 Note Off - Duracao: 633060 Nota: C1 Vol.: 61
Chanel 8 Note On - Duracao: 633060 Nota: C1 Vol.: 65
Chanel 4 Note Off - Duracao: 633180 Nota: C1 Vol.: 91
Chanel 4 Note On - Duracao: 633180 Nota: C1 Vol.: 96
Chanel 5 Note Off - Duracao: 633180 Nota: C1 Vol.: 86
Chanel 5 Note On - Duracao: 633180 Nota: C1 Vol.: 84
Chanel 4 Note Off - Duracao: 633300 Nota: C1 Vol.: 96
Chanel 4 Note On - Duracao: 633300 Nota: C1 Vol.: 89
Chanel 7 Note Off - Duracao: 633360 Nota: C1 Vol.: 52
Chanel 7 Note On - Duracao: 633360 Nota: C1 Vol.: 53
Chanel 6 Note Off - Duracao: 633420 Nota: C1 Vol.: 44
Chanel 6 Note On - Duracao: 633420 Nota: C1 Vol.: 50
Chanel 4 Note Off - Duracao: 633540 Nota: C1 Vol.: 89
Chanel 4 Note On - Duracao: 633540 Nota: C1 Vol.: 90
Chanel 5 Note Off - Duracao: 633660 Nota: C1 Vol.: 84
Chanel 5 Note On - Duracao: 633660 Nota: C1 Vol.: 47
Chanel 4 Note Off - Duracao: 633780 Nota: C1 Vol.: 90
Chanel 4 Note On - Duracao: 633780 Nota: C1 Vol.: 91
Chanel 4 Note Off - Duracao: 633900 Nota: C1 Vol.: 91
Chanel 4 Note On - Duracao: 633900 Nota: C1 Vol.: 93
Chanel 4 Note Off - Duracao: 634020 Nota: C1 Vol.: 93
Chanel 4 Note On - Duracao: 634020 Nota: C1 Vol.: 95
Chanel 8 Note Off - Duracao: 634020 Nota: C1 Vol.: 65
Chanel 8 Note On - Duracao: 634020 Nota: C1 Vol.: 62
Chanel 4 Note Off - Duracao: 634140 Nota: C1 Vol.: 95
Chanel 4 Note On - Duracao: 634140 Nota: C1 Vol.: 95
Chanel 10 Note Off - Duracao: 634140 Nota: C1 Vol.: 65
Chanel 10 Note On - Duracao: 634140 Nota: C1 Vol.: 55
Chanel 4 Note Off - Duracao: 634260 Nota: C1 Vol.: 95
Chanel 4 Note On - Duracao: 634260 Nota: C1 Vol.: 85
Chanel 6 Note Off - Duracao: 634380 Nota: C1 Vol.: 50
Chanel 6 Note On - Duracao: 634380 Nota: C1 Vol.: 48
Chanel 4 Note Off - Duracao: 634500 Nota: C1 Vol.: 85
Chanel 4 Note On - Duracao: 634500 Nota: C1 Vol.: 79
Chanel 9 Note Off - Duracao: 634560 Nota: C1 Vol.: 87
Chanel 9 Note On - Duracao: 634560 Nota: C1 Vol.: 90
Chanel 1 Note Off - Duracao: 634680 Nota: C1 Vol.: 91
Chanel 1 Note On - Duracao: 634680 Nota: C1 Vol.: 92
Chanel 4 Note Off - Duracao: 634980 Nota: C1 Vol.: 79
Chanel 4 Note On - Duracao: 634980 Nota: C1 Vol.: 74
Chanel 8 Note Off - Duracao: 634980 Nota: C1 Vol.: 62
Chanel 8 Note On - Duracao: 634980 Nota: C1 Vol.: 68
Chanel 3 Note Off - Duracao: 635040 Nota: C1 Vol.: 47
Chanel 3 Note On - Duracao: 635040 Nota: C1 Vol.: 45
Chanel 7 Note Off - Duracao: 635280 Nota: C1 Vol.: 53
Chanel 7 Note On - Duracao: 635280 Nota: C1 Vol.: 66
Chanel 8 Note Off - Duracao: 635460 Nota: C1 Vol.: 68
Chanel 8 Note On - Duracao: 635460 Nota: C1 Vol.: 69
Chanel 9 Note Off - Duracao: 635520 Nota: C1 Vol.: 90
Chanel 9 Note On - Duracao: 635520 Nota: C1 Vol.: 86
Chanel 4 Note Off - Duracao: 635940 Nota: C1 Vol.: 74
Chanel 4 Note On - Duracao: 635940 Nota: C1 Vol.: 70
Chanel 8 Note Off - Duracao: 635940 Nota: C1 Vol.: 69
Chanel 8 Note On - Duracao: 635940 Nota: C1 Vol.: 60
Chanel 10 Note Off - Duracao: 636060 Nota: C1 Vol.: 55
Chanel 10 Note On - Duracao: 636060 Nota: C1 Vol.: 58
Chanel 2 Note Off - Duracao: 636240 Nota: C1 Vol.: 55
Chanel 2 Note On - Duracao: 636240 Nota: C1 Vol.: 73
Chanel 7 Note Off - Duracao: 636240 Nota: C1 Vol.: 66
Chanel 7 Note On - Duracao: 636240 Nota: C1 Vol.: 69
Chanel 6 Note Off - Duracao: 636300 Nota: C1 Vol.: 48
Chanel 6 Note On - Duracao: 636300 Nota: C1 Vol.: 83
Chanel 6 Note Off - Duracao: 636420 Nota: C1 Vol.: 83
Chanel 6 Note On - Duracao: 636420 Nota: C1 Vol.: 91
Chanel 6 Note Off - Duracao: 636540 Nota: C1 Vol.: 91
Chanel 6 Note On - Duracao: 636540 Nota: C1 Vol.: 92
Chanel 1 Note Off - Duracao: 636600 Nota: C1 Vol.: 92
Chanel 1 Note On - Duracao: 636600 Nota: C1 Vol.: 90
Chanel 6 Note Off - Duracao: 636660 Nota: C1 Vol.: 92
Chanel 6 Note On - Duracao: 636660 Nota: C1 Vol.: 93
Chanel 6 Note Off - Duracao: 636780 Nota: C1 Vol.: 93
Chanel 6 Note On - Duracao: 636780 Nota: C1 Vol.: 90
Chanel 4 Note Off - Duracao: 636900 Nota: C1 Vol.: 70
Chanel 4 Note On - Duracao: 636900 Nota: C1 Vol.: 53
Chanel 6 Note Off - Duracao: 636900 Nota: C1 Vol.: 90
Chanel 6 Note On - Duracao: 636900 Nota: C1 Vol.: 81
Chanel 8 Note Off - Duracao: 636900 Nota: C1 Vol.: 60
Chanel 8 Note On - Duracao: 636900 Nota: C1 Vol.: 63
Chanel 6 Note Off - Duracao: 637140 Nota: C1 Vol.: 81
Chanel 6 Note On - Duracao: 637140 Nota: C1 Vol.: 48
Chanel 2 Note Off - Duracao: 637200 Nota: C1 Vol.: 73
Chanel 2 Note On - Duracao: 637200 Nota: C1 Vol.: 71
Chanel 7 Note Off - Duracao: 637200 Nota: C1 Vol.: 69
Chanel 7 Note On - Duracao: 637200 Nota: C1 Vol.: 74
Chanel 9 Note Off - Duracao: 637440 Nota: C1 Vol.: 86
Chanel 9 Note On - Duracao: 637440 Nota: C1 Vol.: 88
Chanel 5 Note Off - Duracao: 637500 Nota: C1 Vol.: 47
Chanel 5 Note On - Duracao: 637500 Nota: C1 Vol.: 41
Chanel 1 Note Off - Duracao: 637560 Nota: C1 Vol.: 90
Chanel 1 Note On - Duracao: 637560 Nota: C1 Vol.: 59
Chanel 8 Note Off - Duracao: 637860 Nota: C1 Vol.: 63
Chanel 8 Note On - Duracao: 637860 Nota: C1 Vol.: 57
Chanel 10 Note Off - Duracao: 637980 Nota: C1 Vol.: 58
Chanel 10 Note On - Duracao: 637980 Nota: C1 Vol.: 67
Chanel 2 Note Off - Duracao: 638160 Nota: C1 Vol.: 71
Chanel 2 Note On - Duracao: 638160 Nota: C1 Vol.: 66
Chanel 7 Note Off - Duracao: 638160 Nota: C1 Vol.: 74
Chanel 7 Note On - Duracao: 638160 Nota: C1 Vol.: 80
Chanel 3 Note Off - Duracao: 638880 Nota: C1 Vol.: 45
Chanel 3 Note On - Duracao: 638880 Nota: C1 Vol.: 65
Chanel 10 Note Off - Duracao: 638940 Nota: C1 Vol.: 67
Chanel 10 Note On - Duracao: 638940 Nota: C1 Vol.: 90
Chanel 6 Note Off - Duracao: 639060 Nota: C1 Vol.: 48
Chanel 6 Note On - Duracao: 639060 Nota: C1 Vol.: 48
Chanel 10 Note Off - Duracao: 639060 Nota: C1 Vol.: 90
Chanel 10 Note On - Duracao: 639060 Nota: C1 Vol.: 74
Chanel 2 Note Off - Duracao: 639120 Nota: C1 Vol.: 66
Chanel 2 Note On - Duracao: 639120 Nota: C1 Vol.: 64
Chanel 7 Note Off - Duracao: 639120 Nota: C1 Vol.: 80
Chanel 7 Note On - Duracao: 639120 Nota: C1 Vol.: 87
Chanel 9 Note Off - Duracao: 639360 Nota: C1 Vol.: 88
Chanel 9 Note On - Duracao: 639360 Nota: C1 Vol.: 92
Chanel 10 Note Off - Duracao: 639540 Nota: C1 Vol.: 74
Chanel 10 Note On - Duracao: 639540 Nota: C1 Vol.: 78
Chanel 7 Note Off - Duracao: 639600 Nota: C1 Vol.: 87
Chanel 7 Note On - Duracao: 639600 Nota: C1 Vol.: 82
Chanel 8 Note Off - Duracao: 639780 Nota: C1 Vol.: 57
Chanel 8 Note On - Duracao: 639780 Nota: C1 Vol.: 56
Chanel 3 Note Off - Duracao: 639840 Nota: C1 Vol.: 65
Chanel 3 Note On - Duracao: 639840 Nota: C1 Vol.: 76
Chanel 10 Note Off - Duracao: 640020 Nota: C1 Vol.: 78
Chanel 10 Note On - Duracao: 640020 Nota: C1 Vol.: 79
Chanel 2 Note Off - Duracao: 640080 Nota: C1 Vol.: 64
Chanel 2 Note On - Duracao: 640080 Nota: C1 Vol.: 62
Chanel 7 Note Off - Duracao: 640080 Nota: C1 Vol.: 82
Chanel 7 Note On - Duracao: 640080 Nota: C1 Vol.: 92
Chanel 3 Note Off - Duracao: 640320 Nota: C1 Vol.: 76
Chanel 3 Note On - Duracao: 640320 Nota: C1 Vol.: 59
Chanel 7 Note Off - Duracao: 640320 Nota: C1 Vol.: 92
Chanel 7 Note On - Duracao: 640320 Nota: C1 Vol.: 91
Chanel 7 Note Off - Duracao: 640440 Nota: C1 Vol.: 91
Chanel 7 Note On - Duracao: 640440 Nota: C1 Vol.: 92
Chanel 10 Note Off - Duracao: 640500 Nota: C1 Vol.: 79
Chanel 10 Note On - Duracao: 640500 Nota: C1 Vol.: 81
Chanel 2 Note Off - Duracao: 640560 Nota: C1 Vol.: 62
Chanel 2 Note On - Duracao: 640560 Nota: C1 Vol.: 65
Chanel 7 Note Off - Duracao: 640560 Nota: C1 Vol.: 92
Chanel 7 Note On - Duracao: 640560 Nota: C1 Vol.: 88
Chanel 4 Note Off - Duracao: 640740 Nota: C1 Vol.: 53
Chanel 4 Note On - Duracao: 640740 Nota: C1 Vol.: 57
Chanel 7 Note Off - Duracao: 640800 Nota: C1 Vol.: 88
Chanel 7 Note On - Duracao: 640800 Nota: C1 Vol.: 75
Chanel 6 Note Off - Duracao: 640980 Nota: C1 Vol.: 48
Chanel 6 Note On - Duracao: 640980 Nota: C1 Vol.: 44
Chanel 10 Note Off - Duracao: 640980 Nota: C1 Vol.: 81
Chanel 10 Note On - Duracao: 640980 Nota: C1 Vol.: 80
Chanel 2 Note Off - Duracao: 641040 Nota: C1 Vol.: 65
Chanel 2 Note On - Duracao: 641040 Nota: C1 Vol.: 66
Chanel 9 Note Off - Duracao: 641280 Nota: C1 Vol.: 92
Chanel 9 Note On - Duracao: 641280 Nota: C1 Vol.: 89
Chanel 5 Note Off - Duracao: 641340 Nota: C1 Vol.: 41
Chanel 5 Note On - Duracao: 641340 Nota: C1 Vol.: 45
Chanel 1 Note Off - Duracao: 641400 Nota: C1 Vol.: 59
Chanel 1 Note On - Duracao: 641400 Nota: C1 Vol.: 67
Chanel 10 Note Off - Duracao: 641460 Nota: C1 Vol.: 80
Chanel 10 Note On - Duracao: 641460 Nota: C1 Vol.: 59
Chanel 2 Note Off - Duracao: 641520 Nota: C1 Vol.: 66
Chanel 2 Note On - Duracao: 641520 Nota: C1 Vol.: 64
Chanel 8 Note Off - Duracao: 641700 Nota: C1 Vol.: 56
Chanel 8 Note On - Duracao: 641700 Nota: C1 Vol.: 52
Chanel 2 Note Off - Duracao: 641760 Nota: C1 Vol.: 64
Chanel 2 Note On - Duracao: 641760 Nota: C1 Vol.: 65
Chanel 7 Note Off - Duracao: 641760 Nota: C1 Vol.: 75
Chanel 7 Note On - Duracao: 641760 Nota: C1 Vol.: 82
Chanel 2 Note Off - Duracao: 642000 Nota: C1 Vol.: 65
Chanel 2 Note On - Duracao: 642000 Nota: C1 Vol.: 64
Chanel 3 Note Off - Duracao: 642240 Nota: C1 Vol.: 59
Chanel 3 Note On - Duracao: 642240 Nota: C1 Vol.: 64
Chanel 7 Note Off - Duracao: 642240 Nota: C1 Vol.: 82
Chanel 7 Note On - Duracao: 642240 Nota: C1 Vol.: 86
Chanel 1 Note Off - Duracao: 642360 Nota: C1 Vol.: 67
Chanel 1 Note On - Duracao: 642360 Nota: C1 Vol.: 79
Chanel 2 Note Off - Duracao: 642480 Nota: C1 Vol.: 64
Chanel 2 Note On - Duracao: 642480 Nota: C1 Vol.: 68
Chanel 4 Note Off - Duracao: 642660 Nota: C1 Vol.: 57
Chanel 4 Note On - Duracao: 642660 Nota: C1 Vol.: 57
Chanel 7 Note Off - Duracao: 642720 Nota: C1 Vol.: 86
Chanel 7 Note On - Duracao: 642720 Nota: C1 Vol.: 87
Chanel 1 Note Off - Duracao: 642840 Nota: C1 Vol.: 79
Chanel 1 Note On - Duracao: 642840 Nota: C1 Vol.: 80
Chanel 6 Note Off - Duracao: 642900 Nota: C1 Vol.: 44
Chanel 6 Note On - Duracao: 642900 Nota: C1 Vol.: 57
Chanel 2 Note Off - Duracao: 642960 Nota: C1 Vol.: 68
Chanel 2 Note On - Duracao: 642960 Nota: C1 Vol.: 82
Chanel 1 Note Off - Duracao: 643080 Nota: C1 Vol.: 80
Chanel 1 Note On - Duracao: 643080 Nota: C1 Vol.: 80
Chanel 2 Note Off - Duracao: 643200 Nota: C1 Vol.: 82
Chanel 2 Note On - Duracao: 643200 Nota: C1 Vol.: 79
Chanel 3 Note Off - Duracao: 643200 Nota: C1 Vol.: 64
Chanel 3 Note On - Duracao: 643200 Nota: C1 Vol.: 88
Chanel 7 Note Off - Duracao: 643200 Nota: C1 Vol.: 87
Chanel 7 Note On - Duracao: 643200 Nota: C1 Vol.: 66
Chanel 9 Note Off - Duracao: 643200 Nota: C1 Vol.: 89
Chanel 9 Note On - Duracao: 643200 Nota: C1 Vol.: 86
Chanel 5 Note Off - Duracao: 643260 Nota: C1 Vol.: 45
Chanel 5 Note On - Duracao: 643260 Nota: C1 Vol.: 46
Chanel 1 Note Off - Duracao: 643320 Nota: C1 Vol.: 80
Chanel 1 Note On - Duracao: 643320 Nota: C1 Vol.: 84
Chanel 10 Note Off - Duracao: 643380 Nota: C1 Vol.: 59
Chanel 10 Note On - Duracao: 643380 Nota: C1 Vol.: 57
Chanel 2 Note Off - Duracao: 643440 Nota: C1 Vol.: 79
Chanel 2 Note On - Duracao: 643440 Nota: C1 Vol.: 79
Chanel 3 Note Off - Duracao: 643440 Nota: C1 Vol.: 88
Chanel 3 Note On - Duracao: 643440 Nota: C1 Vol.: 95
Chanel 1 Note Off - Duracao: 643560 Nota: C1 Vol.: 84
Chanel 1 Note On - Duracao: 643560 Nota: C1 Vol.: 81
Chanel 3 Note Off - Duracao: 643560 Nota: C1 Vol.: 95
Chanel 3 Note On - Duracao: 643560 Nota: C1 Vol.: 94
Chanel 3 Note Off - Duracao: 643620 Nota: C1 Vol.: 94
Chanel 3 Note On - Duracao: 643620 Nota: C1 Vol.: 89
Chanel 8 Note Off - Duracao: 643620 Nota: C1 Vol.: 52
Chanel 8 Note On - Duracao: 643620 Nota: C1 Vol.: 53
Chanel 2 Note Off - Duracao: 643680 Nota: C1 Vol.: 79
Chanel 2 Note On - Duracao: 643680 Nota: C1 Vol.: 87
Chanel 3 Note Off - Duracao: 643740 Nota: C1 Vol.: 89
Chanel 3 Note On - Duracao: 643740 Nota: C1 Vol.: 56
Chanel 1 Note Off - Duracao: 643800 Nota: C1 Vol.: 81
Chanel 1 Note On - Duracao: 643800 Nota: C1 Vol.: 86
Chanel 2 Note Off - Duracao: 643800 Nota: C1 Vol.: 87
Chanel 2 Note On - Duracao: 643800 Nota: C1 Vol.: 78
Chanel 6 Note Off - Duracao: 643860 Nota: C1 Vol.: 57
Chanel 6 Note On - Duracao: 643860 Nota: C1 Vol.: 81
Chanel 1 Note Off - Duracao: 644040 Nota: C1 Vol.: 86
Chanel 1 Note On - Duracao: 644040 Nota: C1 Vol.: 69
Chanel 2 Note Off - Duracao: 644040 Nota: C1 Vol.: 78
Chanel 2 Note On - Duracao: 644040 Nota: C1 Vol.: 72
Chanel 6 Note Off - Duracao: 644100 Nota: C1 Vol.: 81
Chanel 6 Note On - Duracao: 644100 Nota: C1 Vol.: 89
Chanel 6 Note Off - Duracao: 644220 Nota: C1 Vol.: 89
Chanel 6 Note On - Duracao: 644220 Nota: C1 Vol.: 88
Chanel 2 Note Off - Duracao: 644280 Nota: C1 Vol.: 72
Chanel 2 Note On - Duracao: 644280 Nota: C1 Vol.: 75
Chanel 6 Note Off - Duracao: 644340 Nota: C1 Vol.: 88
Chanel 6 Note On - Duracao: 644340 Nota: C1 Vol.: 98
Chanel 6 Note Off - Duracao: 644400 Nota: C1 Vol.: 98
Chanel 6 Note On - Duracao: 644400 Nota: C1 Vol.: 100
Chanel 6 Note Off - Duracao: 644460 Nota: C1 Vol.: 100
Chanel 6 Note On - Duracao: 644460 Nota: C1 Vol.: 100
Chanel 1 Note Off - Duracao: 644520 Nota: C1 Vol.: 69
Chanel 1 Note On - Duracao: 644520 Nota: C1 Vol.: 73
Chanel 2 Note Off - Duracao: 644520 Nota: C1 Vol.: 75
Chanel 2 Note On - Duracao: 644520 Nota: C1 Vol.: 74
Chanel 6 Note Off - Duracao: 644520 Nota: C1 Vol.: 100
Chanel 6 Note On - Duracao: 644520 Nota: C1 Vol.: 99
Chanel 6 Note Off - Duracao: 644580 Nota: C1 Vol.: 99
Chanel 6 Note On - Duracao: 644580 Nota: C1 Vol.: 100
Chanel 6 Note Off - Duracao: 644640 Nota: C1 Vol.: 100
Chanel 6 Note On - Duracao: 644640 Nota: C1 Vol.: 100
Chanel 3 Note Off - Duracao: 644700 Nota: C1 Vol.: 56
Chanel 3 Note On - Duracao: 644700 Nota: C1 Vol.: 61
Chanel 6 Note Off - Duracao: 644700 Nota: C1 Vol.: 100
Chanel 6 Note On - Duracao: 644700 Nota: C1 Vol.: 99
Chanel 2 Note Off - Duracao: 644760 Nota: C1 Vol.: 74
Chanel 2 Note On - Duracao: 644760 Nota: C1 Vol.: 81
Chanel 6 Note Off - Duracao: 644760 Nota: C1 Vol.: 99
Chanel 6 Note On - Duracao: 644760 Nota: C1 Vol.: 99
Chanel 6 Note Off - Duracao: 644820 Nota: C1 Vol.: 99
Chanel 6 Note On - Duracao: 644820 Nota: C1 Vol.: 91
Chanel 6 Note Off - Duracao: 644940 Nota: C1 Vol.: 91
Chanel 6 Note On - Duracao: 644940 Nota: C1 Vol.: 87
Chanel 1 Note Off - Duracao: 645000 Nota: C1 Vol.: 73
Chanel 1 Note On - Duracao: 645000 Nota: C1 Vol.: 72
Chanel 2 Note Off - Duracao: 645000 Nota: C1 Vol.: 81
Chanel 2 Note On - Duracao: 645000 Nota: C1 Vol.: 77
Chanel 6 Note Off - Duracao: 645060 Nota: C1 Vol.: 87
Chanel 6 Note On - Duracao: 645060 Nota: C1 Vol.: 49
Chanel 7 Note Off - Duracao: 645120 Nota: C1 Vol.: 66
Chanel 7 Note On - Duracao: 645120 Nota: C1 Vol.: 57
Chanel 9 Note Off - Duracao: 645120 Nota: C1 Vol.: 86
Chanel 9 Note On - Duracao: 645120 Nota: C1 Vol.: 85
Chanel 3 Note Off - Duracao: 645180 Nota: C1 Vol.: 61
Chanel 3 Note On - Duracao: 645180 Nota: C1 Vol.: 61
Chanel 5 Note Off - Duracao: 645180 Nota: C1 Vol.: 46
Chanel 5 Note On - Duracao: 645180 Nota: C1 Vol.: 44
Chanel 2 Note Off - Duracao: 645240 Nota: C1 Vol.: 77
Chanel 2 Note On - Duracao: 645240 Nota: C1 Vol.: 80
Chanel 10 Note Off - Duracao: 645300 Nota: C1 Vol.: 57
Chanel 10 Note On - Duracao: 645300 Nota: C1 Vol.: 71
Chanel 2 Note Off - Duracao: 645360 Nota: C1 Vol.: 80
Chanel 2 Note On - Duracao: 645360 Nota: C1 Vol.: 82
Chanel 1 Note Off - Duracao: 645480 Nota: C1 Vol.: 72
Chanel 1 Note On - Duracao: 645480 Nota: C1 Vol.: 75
Chanel 2 Note Off - Duracao: 645480 Nota: C1 Vol.: 82
Chanel 2 Note On - Duracao: 645480 Nota: C1 Vol.: 74
Chanel 8 Note Off - Duracao: 645540 Nota: C1 Vol.: 53
Chanel 8 Note On - Duracao: 645540 Nota: C1 Vol.: 60
Chanel 3 Note Off - Duracao: 645660 Nota: C1 Vol.: 61
Chanel 3 Note On - Duracao: 645660 Nota: C1 Vol.: 65
Chanel 2 Note Off - Duracao: 645720 Nota: C1 Vol.: 74
Chanel 2 Note On - Duracao: 645720 Nota: C1 Vol.: 79
Chanel 3 Note Off - Duracao: 645900 Nota: C1 Vol.: 65
Chanel 3 Note On - Duracao: 645900 Nota: C1 Vol.: 66
Chanel 1 Note Off - Duracao: 645960 Nota: C1 Vol.: 75
Chanel 1 Note On - Duracao: 645960 Nota: C1 Vol.: 60
Chanel 2 Note Off - Duracao: 645960 Nota: C1 Vol.: 79
Chanel 2 Note On - Duracao: 645960 Nota: C1 Vol.: 78
Chanel 9 Note Off - Duracao: 646080 Nota: C1 Vol.: 85
Chanel 9 Note On - Duracao: 646080 Nota: C1 Vol.: 85
Chanel 2 Note Off - Duracao: 646200 Nota: C1 Vol.: 78
Chanel 2 Note On - Duracao: 646200 Nota: C1 Vol.: 78
Chanel 10 Note Off - Duracao: 646260 Nota: C1 Vol.: 71
Chanel 10 Note On - Duracao: 646260 Nota: C1 Vol.: 71
Chanel 3 Note Off - Duracao: 646380 Nota: C1 Vol.: 66
Chanel 3 Note On - Duracao: 646380 Nota: C1 Vol.: 63
Chanel 2 Note Off - Duracao: 646440 Nota: C1 Vol.: 78
Chanel 2 Note On - Duracao: 646440 Nota: C1 Vol.: 80
Chanel 4 Note Off - Duracao: 646500 Nota: C1 Vol.: 57
Chanel 4 Note On - Duracao: 646500 Nota: C1 Vol.: 64
Chanel 2 Note Off - Duracao: 646680 Nota: C1 Vol.: 80
Chanel 2 Note On - Duracao: 646680 Nota: C1 Vol.: 73
Chanel 3 Note Off - Duracao: 646860 Nota: C1 Vol.: 63
Chanel 3 Note On - Duracao: 646860 Nota: C1 Vol.: 64
Chanel 1 Note Off - Duracao: 646920 Nota: C1 Vol.: 60
Chanel 1 Note On - Duracao: 646920 Nota: C1 Vol.: 61
Chanel 2 Note Off - Duracao: 646920 Nota: C1 Vol.: 73
Chanel 2 Note On - Duracao: 646920 Nota: C1 Vol.: 73
Chanel 6 Note Off - Duracao: 646980 Nota: C1 Vol.: 49
Chanel 6 Note On - Duracao: 646980 Nota: C1 Vol.: 85
Chanel 9 Note Off - Duracao: 647040 Nota: C1 Vol.: 85
Chanel 9 Note On - Duracao: 647040 Nota: C1 Vol.: 84
Chanel 2 Note Off - Duracao: 647160 Nota: C1 Vol.: 73
Chanel 2 Note On - Duracao: 647160 Nota: C1 Vol.: 77
Chanel 6 Note Off - Duracao: 647220 Nota: C1 Vol.: 85
Chanel 6 Note On - Duracao: 647220 Nota: C1 Vol.: 94
Chanel 10 Note Off - Duracao: 647220 Nota: C1 Vol.: 71
Chanel 10 Note On - Duracao: 647220 Nota: C1 Vol.: 71
Chanel 6 Note Off - Duracao: 647280 Nota: C1 Vol.: 94
Chanel 6 Note On - Duracao: 647280 Nota: C1 Vol.: 97
Chanel 6 Note Off - Duracao: 647340 Nota: C1 Vol.: 97
Chanel 6 Note On - Duracao: 647340 Nota: C1 Vol.: 98
Chanel 2 Note Off - Duracao: 647400 Nota: C1 Vol.: 77
Chanel 2 Note On - Duracao: 647400 Nota: C1 Vol.: 76
Chanel 6 Note Off - Duracao: 647400 Nota: C1 Vol.: 98
Chanel 6 Note On - Duracao: 647400 Nota: C1 Vol.: 92
Chanel 8 Note Off - Duracao: 647460 Nota: C1 Vol.: 60
Chanel 8 Note On - Duracao: 647460 Nota: C1 Vol.: 62
Chanel 6 Note Off - Duracao: 647520 Nota: C1 Vol.: 92
Chanel 6 Note On - Duracao: 647520 Nota: C1 Vol.: 97
Chanel 6 Note Off - Duracao: 647580 Nota: C1 Vol.: 97
Chanel 6 Note On - Duracao: 647580 Nota: C1 Vol.: 97
Chanel 6 Note Off - Duracao: 647640 Nota: C1 Vol.: 97
Chanel 6 Note On - Duracao: 647640 Nota: C1 Vol.: 77
Chanel 3 Note Off - Duracao: 647820 Nota: C1 Vol.: 64
Chanel 3 Note On - Duracao: 647820 Nota: C1 Vol.: 80
Chanel 1 Note Off - Duracao: 647880 Nota: C1 Vol.: 61
Chanel 1 Note On - Duracao: 647880 Nota: C1 Vol.: 67
Chanel 2 Note Off - Duracao: 647880 Nota: C1 Vol.: 76
Chanel 2 Note On - Duracao: 647880 Nota: C1 Vol.: 83
Chanel 9 Note Off - Duracao: 648000 Nota: C1 Vol.: 84
Chanel 9 Note On - Duracao: 648000 Nota: C1 Vol.: 85
Chanel 3 Note Off - Duracao: 648060 Nota: C1 Vol.: 80
Chanel 3 Note On - Duracao: 648060 Nota: C1 Vol.: 97
Chanel 2 Note Off - Duracao: 648120 Nota: C1 Vol.: 83
Chanel 2 Note On - Duracao: 648120 Nota: C1 Vol.: 85
Chanel 6 Note Off - Duracao: 648120 Nota: C1 Vol.: 77
Chanel 6 Note On - Duracao: 648120 Nota: C1 Vol.: 71
Chanel 3 Note Off - Duracao: 648180 Nota: C1 Vol.: 97
Chanel 3 Note On - Duracao: 648180 Nota: C1 Vol.: 100
Chanel 10 Note Off - Duracao: 648180 Nota: C1 Vol.: 71
Chanel 10 Note On - Duracao: 648180 Nota: C1 Vol.: 74
Chanel 3 Note Off - Duracao: 648240 Nota: C1 Vol.: 100
Chanel 3 Note On - Duracao: 648240 Nota: C1 Vol.: 97
Chanel 3 Note Off - Duracao: 648300 Nota: C1 Vol.: 97
Chanel 3 Note On - Duracao: 648300 Nota: C1 Vol.: 99
Chanel 2 Note Off - Duracao: 648360 Nota: C1 Vol.: 85
Chanel 2 Note On - Duracao: 648360 Nota: C1 Vol.: 83
Chanel 3 Note Off - Duracao: 648360 Nota: C1 Vol.: 99
Chanel 3 Note On - Duracao: 648360 Nota: C1 Vol.: 100
Chanel 3 Note Off - Duracao: 648420 Nota: C1 Vol.: 100
Chanel 3 Note On - Duracao: 648420 Nota: C1 Vol.: 99
Chanel 4 Note Off - Duracao: 648420 Nota: C1 Vol.: 64
Chanel 4 Note On - Duracao: 648420 Nota: C1 Vol.: 68
Chanel 3 Note Off - Duracao: 648480 Nota: C1 Vol.: 99
Chanel 3 Note On - Duracao: 648480 Nota: C1 Vol.: 99
Chanel 9 Note Off - Duracao: 648480 Nota: C1 Vol.: 85
Chanel 9 Note On - Duracao: 648480 Nota: C1 Vol.: 89
Chanel 3 Note Off - Duracao: 648540 Nota: C1 Vol.: 99
Chanel 3 Note On - Duracao: 648540 Nota: C1 Vol.: 99
Chanel 2 Note Off - Duracao: 648600 Nota: C1 Vol.: 83
Chanel 2 Note On - Duracao: 648600 Nota: C1 Vol.: 90
Chanel 3 Note Off - Duracao: 648600 Nota: C1 Vol.: 99
Chanel 3 Note On - Duracao: 648600 Nota: C1 Vol.: 79
Chanel 6 Note Off - Duracao: 648600 Nota: C1 Vol.: 71
Chanel 6 Note On - Duracao: 648600 Nota: C1 Vol.: 72
Chanel 1 Note Off - Duracao: 648840 Nota: C1 Vol.: 67
Chanel 1 Note On - Duracao: 648840 Nota: C1 Vol.: 71
Chanel 2 Note Off - Duracao: 648840 Nota: C1 Vol.: 90
Chanel 2 Note On - Duracao: 648840 Nota: C1 Vol.: 97
Chanel 3 Note Off - Duracao: 648840 Nota: C1 Vol.: 79
Chanel 3 Note On - Duracao: 648840 Nota: C1 Vol.: 70
Chanel 2 Note Off - Duracao: 648960 Nota: C1 Vol.: 97
Chanel 2 Note On - Duracao: 648960 Nota: C1 Vol.: 98
Chanel 7 Note Off - Duracao: 648960 Nota: C1 Vol.: 57
Chanel 7 Note On - Duracao: 648960 Nota: C1 Vol.: 55
Chanel 9 Note Off - Duracao: 648960 Nota: C1 Vol.: 89
Chanel 9 Note On - Duracao: 648960 Nota: C1 Vol.: 83
Chanel 5 Note Off - Duracao: 649020 Nota: C1 Vol.: 44
Chanel 5 Note On - Duracao: 649020 Nota: C1 Vol.: 58
Chanel 2 Note Off - Duracao: 649080 Nota: C1 Vol.: 98
Chanel 2 Note On - Duracao: 649080 Nota: C1 Vol.: 99
Chanel 6 Note Off - Duracao: 649080 Nota: C1 Vol.: 72
Chanel 6 Note On - Duracao: 649080 Nota: C1 Vol.: 72
Chanel 2 Note Off - Duracao: 649140 Nota: C1 Vol.: 99
Chanel 2 Note On - Duracao: 649140 Nota: C1 Vol.: 99
Chanel 10 Note Off - Duracao: 649140 Nota: C1 Vol.: 74
Chanel 10 Note On - Duracao: 649140 Nota: C1 Vol.: 72
Chanel 2 Note Off - Duracao: 649200 Nota: C1 Vol.: 99
Chanel 2 Note On - Duracao: 649200 Nota: C1 Vol.: 97
Chanel 2 Note Off - Duracao: 649320 Nota: C1 Vol.: 97
Chanel 2 Note On - Duracao: 649320 Nota: C1 Vol.: 87
Chanel 3 Note Off - Duracao: 649320 Nota: C1 Vol.: 70
Chanel 3 Note On - Duracao: 649320 Nota: C1 Vol.: 83
Chanel 8 Note Off - Duracao: 649380 Nota: C1 Vol.: 62
Chanel 8 Note On - Duracao: 649380 Nota: C1 Vol.: 62
Chanel 2 Note Off - Duracao: 649560 Nota: C1 Vol.: 87
Chanel 2 Note On - Duracao: 649560 Nota: C1 Vol.: 77
Chanel 6 Note Off - Duracao: 649560 Nota: C1 Vol.: 72
Chanel 6 Note On - Duracao: 649560 Nota: C1 Vol.: 87
Chanel 1 Note Off - Duracao: 649800 Nota: C1 Vol.: 71
Chanel 1 Note On - Duracao: 649800 Nota: C1 Vol.: 81
Chanel 3 Note Off - Duracao: 649800 Nota: C1 Vol.: 83
Chanel 3 Note On - Duracao: 649800 Nota: C1 Vol.: 88
Chanel 6 Note Off - Duracao: 649800 Nota: C1 Vol.: 87
Chanel 6 Note On - Duracao: 649800 Nota: C1 Vol.: 77
Chanel 9 Note Off - Duracao: 649920 Nota: C1 Vol.: 83
Chanel 9 Note On - Duracao: 649920 Nota: C1 Vol.: 76
Chanel 5 Note Off - Duracao: 649980 Nota: C1 Vol.: 58
Chanel 5 Note On - Duracao: 649980 Nota: C1 Vol.: 90
Chanel 2 Note Off - Duracao: 650040 Nota: C1 Vol.: 77
Chanel 2 Note On - Duracao: 650040 Nota: C1 Vol.: 73
Chanel 5 Note Off - Duracao: 650100 Nota: C1 Vol.: 90
Chanel 5 Note On - Duracao: 650100 Nota: C1 Vol.: 89
Chanel 10 Note Off - Duracao: 650100 Nota: C1 Vol.: 72
Chanel 10 Note On - Duracao: 650100 Nota: C1 Vol.: 71
Chanel 5 Note Off - Duracao: 650220 Nota: C1 Vol.: 89
Chanel 5 Note On - Duracao: 650220 Nota: C1 Vol.: 61
Chanel 3 Note Off - Duracao: 650280 Nota: C1 Vol.: 88
Chanel 3 Note On - Duracao: 650280 Nota: C1 Vol.: 86
Chanel 6 Note Off - Duracao: 650280 Nota: C1 Vol.: 77
Chanel 6 Note On - Duracao: 650280 Nota: C1 Vol.: 62
Chanel 4 Note Off - Duracao: 650340 Nota: C1 Vol.: 68
Chanel 4 Note On - Duracao: 650340 Nota: C1 Vol.: 71
Chanel 1 Note Off - Duracao: 650760 Nota: C1 Vol.: 81
Chanel 1 Note On - Duracao: 650760 Nota: C1 Vol.: 90
Chanel 3 Note Off - Duracao: 650760 Nota: C1 Vol.: 86
Chanel 3 Note On - Duracao: 650760 Nota: C1 Vol.: 75
Chanel 7 Note Off - Duracao: 650880 Nota: C1 Vol.: 55
Chanel 7 Note On - Duracao: 650880 Nota: C1 Vol.: 58
Chanel 2 Note Off - Duracao: 651000 Nota: C1 Vol.: 73
Chanel 2 Note On - Duracao: 651000 Nota: C1 Vol.: 73
Chanel 10 Note Off - Duracao: 651060 Nota: C1 Vol.: 71
Chanel 10 Note On - Duracao: 651060 Nota: C1 Vol.: 71
Chanel 5 Note Off - Duracao: 651180 Nota: C1 Vol.: 61
Chanel 5 Note On - Duracao: 651180 Nota: C1 Vol.: 49
Chanel 1 Note Off - Duracao: 651240 Nota: C1 Vol.: 90
Chanel 1 Note On - Duracao: 651240 Nota: C1 Vol.: 82
Chanel 3 Note Off - Duracao: 651240 Nota: C1 Vol.: 75
Chanel 3 Note On - Duracao: 651240 Nota: C1 Vol.: 47
Chanel 4 Note Off - Duracao: 651300 Nota: C1 Vol.: 71
Chanel 4 Note On - Duracao: 651300 Nota: C1 Vol.: 80
Chanel 8 Note Off - Duracao: 651300 Nota: C1 Vol.: 62
Chanel 8 Note On - Duracao: 651300 Nota: C1 Vol.: 64
Chanel 1 Note Off - Duracao: 651720 Nota: C1 Vol.: 82
Chanel 1 Note On - Duracao: 651720 Nota: C1 Vol.: 80
Chanel 4 Note Off - Duracao: 651780 Nota: C1 Vol.: 80
Chanel 4 Note On - Duracao: 651780 Nota: C1 Vol.: 79
Chanel 9 Note Off - Duracao: 651840 Nota: C1 Vol.: 76
Chanel 9 Note On - Duracao: 651840 Nota: C1 Vol.: 70
Chanel 2 Note Off - Duracao: 651960 Nota: C1 Vol.: 73
Chanel 2 Note On - Duracao: 651960 Nota: C1 Vol.: 72
Chanel 10 Note Off - Duracao: 652020 Nota: C1 Vol.: 71
Chanel 10 Note On - Duracao: 652020 Nota: C1 Vol.: 71
Chanel 1 Note Off - Duracao: 652200 Nota: C1 Vol.: 80
Chanel 6 Note Off - Duracao: 652200 Nota: C1 Vol.: 62
Chanel 6 Note On - Duracao: 652200 Nota: C1 Vol.: 80
Chanel 4 Note Off - Duracao: 652260 Nota: C1 Vol.: 79
Chanel 4 Note On - Duracao: 652260 Nota: C1 Vol.: 73
Chanel 6 Note Off - Duracao: 652680 Nota: C1 Vol.: 80
Chanel 6 Note On - Duracao: 652680 Nota: C1 Vol.: 75
Chanel 7 Note Off - Duracao: 652800 Nota: C1 Vol.: 58
Chanel 7 Note On - Duracao: 652800 Nota: C1 Vol.: 58
Chanel 2 Note Off - Duracao: 652920 Nota: C1 Vol.: 72
Chanel 2 Note On - Duracao: 652920 Nota: C1 Vol.: 70
Chanel 10 Note Off - Duracao: 652980 Nota: C1 Vol.: 71
Chanel 10 Note On - Duracao: 652980 Nota: C1 Vol.: 72
Chanel 5 Note Off - Duracao: 653100 Nota: C1 Vol.: 49
Chanel 5 Note On - Duracao: 653100 Nota: C1 Vol.: 76
Chanel 4 Note Off - Duracao: 653220 Nota: C1 Vol.: 73
Chanel 4 Note On - Duracao: 653220 Nota: C1 Vol.: 72
Chanel 8 Note Off - Duracao: 653220 Nota: C1 Vol.: 64
Chanel 8 Note On - Duracao: 653220 Nota: C1 Vol.: 63
Chanel 5 Note Off - Duracao: 653340 Nota: C1 Vol.: 76
Chanel 5 Note On - Duracao: 653340 Nota: C1 Vol.: 74
Chanel 6 Note Off - Duracao: 653640 Nota: C1 Vol.: 75
Chanel 6 Note On - Duracao: 653640 Nota: C1 Vol.: 82
Chanel 9 Note Off - Duracao: 653760 Nota: C1 Vol.: 70
Chanel 9 Note On - Duracao: 653760 Nota: C1 Vol.: 62
Chanel 5 Note Off - Duracao: 653820 Nota: C1 Vol.: 74
Chanel 5 Note On - Duracao: 653820 Nota: C1 Vol.: 60
Chanel 2 Note Off - Duracao: 653880 Nota: C1 Vol.: 70
Chanel 2 Note On - Duracao: 653880 Nota: C1 Vol.: 71
Chanel 10 Note Off - Duracao: 653940 Nota: C1 Vol.: 72
Chanel 10 Note On - Duracao: 653940 Nota: C1 Vol.: 69
Chanel 4 Note Off - Duracao: 654180 Nota: C1 Vol.: 72
Chanel 4 Note On - Duracao: 654180 Nota: C1 Vol.: 70
Chanel 6 Note Off - Duracao: 654600 Nota: C1 Vol.: 82
Chanel 6 Note On - Duracao: 654600 Nota: C1 Vol.: 75
Chanel 7 Note Off - Duracao: 654720 Nota: C1 Vol.: 58
Chanel 7 Note On - Duracao: 654720 Nota: C1 Vol.: 58
Chanel 5 Note Off - Duracao: 654780 Nota: C1 Vol.: 60
Chanel 5 Note On - Duracao: 654780 Nota: C1 Vol.: 47
Chanel 10 Note Off - Duracao: 654900 Nota: C1 Vol.: 69
Chanel 10 Note On - Duracao: 654900 Nota: C1 Vol.: 73
Chanel 3 Note Off - Duracao: 655080 Nota: C1 Vol.: 47
Chanel 3 Note On - Duracao: 655080 Nota: C1 Vol.: 50
Chanel 4 Note Off - Duracao: 655140 Nota: C1 Vol.: 70
Chanel 4 Note On - Duracao: 655140 Nota: C1 Vol.: 58
Chanel 8 Note Off - Duracao: 655140 Nota: C1 Vol.: 63
Chanel 8 Note On - Duracao: 655140 Nota: C1 Vol.: 62
Chanel 6 Note Off - Duracao: 655560 Nota: C1 Vol.: 75
Chanel 6 Note On - Duracao: 655560 Nota: C1 Vol.: 84
Chanel 9 Note Off - Duracao: 655680 Nota: C1 Vol.: 62
Chanel 9 Note On - Duracao: 655680 Nota: C1 Vol.: 60
Chanel 2 Note Off - Duracao: 655800 Nota: C1 Vol.: 71
Chanel 2 Note On - Duracao: 655800 Nota: C1 Vol.: 77
Chanel 10 Note Off - Duracao: 655860 Nota: C1 Vol.: 73
Chanel 10 Note On - Duracao: 655860 Nota: C1 Vol.: 72
Chanel 6 Note Off - Duracao: 656040 Nota: C1 Vol.: 84
Chanel 6 Note On - Duracao: 656040 Nota: C1 Vol.: 81
Chanel 5 Note Off - Duracao: 656700 Nota: C1 Vol.: 47
Chanel 5 Note On - Duracao: 656700 Nota: C1 Vol.: 55
Chanel 2 Note Off - Duracao: 656760 Nota: C1 Vol.: 77
Chanel 2 Note On - Duracao: 656760 Nota: C1 Vol.: 77
Chanel 10 Note Off - Duracao: 656820 Nota: C1 Vol.: 72
Chanel 10 Note On - Duracao: 656820 Nota: C1 Vol.: 73
Chanel 6 Note Off - Duracao: 657000 Nota: C1 Vol.: 81
Chanel 6 Note On - Duracao: 657000 Nota: C1 Vol.: 64
Chanel 4 Note Off - Duracao: 657060 Nota: C1 Vol.: 58
Chanel 4 Note On - Duracao: 657060 Nota: C1 Vol.: 52
Chanel 8 Note Off - Duracao: 657060 Nota: C1 Vol.: 62
Chanel 8 Note On - Duracao: 657060 Nota: C1 Vol.: 59
Chanel 9 Note Off - Duracao: 657600 Nota: C1 Vol.: 60
Chanel 9 Note On - Duracao: 657600 Nota: C1 Vol.: 64
Chanel 10 Note Off - Duracao: 657780 Nota: C1 Vol.: 73
Chanel 10 Note On - Duracao: 657780 Nota: C1 Vol.: 75
Chanel 10 Note Off - Duracao: 658260 Nota: C1 Vol.: 75
Chanel 10 Note On - Duracao: 658260 Nota: C1 Vol.: 77
Chanel 7 Note Off - Duracao: 658560 Nota: C1 Vol.: 58
Chanel 7 Note On - Duracao: 658560 Nota: C1 Vol.: 83
Chanel 5 Note Off - Duracao: 658620 Nota: C1 Vol.: 55
Chanel 5 Note On - Duracao: 658620 Nota: C1 Vol.: 86
Chanel 2 Note Off - Duracao: 658680 Nota: C1 Vol.: 77
Chanel 2 Note On - Duracao: 658680 Nota: C1 Vol.: 81
Chanel 10 Note Off - Duracao: 658740 Nota: C1 Vol.: 77
Chanel 10 Note On - Duracao: 658740 Nota: C1 Vol.: 70
Chanel 5 Note Off - Duracao: 658860 Nota: C1 Vol.: 86
Chanel 5 Note On - Duracao: 658860 Nota: C1 Vol.: 96
Chanel 3 Note Off - Duracao: 658920 Nota: C1 Vol.: 50
Chanel 3 Note On - Duracao: 658920 Nota: C1 Vol.: 58
Chanel 5 Note Off - Duracao: 658980 Nota: C1 Vol.: 96
Chanel 5 Note On - Duracao: 658980 Nota: C1 Vol.: 97
Chanel 8 Note Off - Duracao: 658980 Nota: C1 Vol.: 59
Chanel 8 Note On - Duracao: 658980 Nota: C1 Vol.: 63
Chanel 5 Note Off - Duracao: 659100 Nota: C1 Vol.: 97
Chanel 5 Note On - Duracao: 659100 Nota: C1 Vol.: 62
Chanel 7 Note Off - Duracao: 659520 Nota: C1 Vol.: 83
Chanel 7 Note On - Duracao: 659520 Nota: C1 Vol.: 81
Chanel 9 Note Off - Duracao: 659520 Nota: C1 Vol.: 64
Chanel 9 Note On - Duracao: 659520 Nota: C1 Vol.: 64
Chanel 2 Note Off - Duracao: 659640 Nota: C1 Vol.: 81
Chanel 2 Note On - Duracao: 659640 Nota: C1 Vol.: 77
Chanel 10 Note Off - Duracao: 659700 Nota: C1 Vol.: 70
Chanel 10 Note On - Duracao: 659700 Nota: C1 Vol.: 68
Chanel 5 Note Off - Duracao: 660060 Nota: C1 Vol.: 62
Chanel 5 Note On - Duracao: 660060 Nota: C1 Vol.: 93
Chanel 5 Note Off - Duracao: 660180 Nota: C1 Vol.: 93
Chanel 5 Note On - Duracao: 660180 Nota: C1 Vol.: 99
Chanel 5 Note Off - Duracao: 660240 Nota: C1 Vol.: 99
Chanel 5 Note On - Duracao: 660240 Nota: C1 Vol.: 99
Chanel 5 Note Off - Duracao: 660300 Nota: C1 Vol.: 99
Chanel 5 Note On - Duracao: 660300 Nota: C1 Vol.: 98
Chanel 5 Note Off - Duracao: 660360 Nota: C1 Vol.: 98
Chanel 5 Note On - Duracao: 660360 Nota: C1 Vol.: 99
Chanel 5 Note Off - Duracao: 660420 Nota: C1 Vol.: 99
Chanel 5 Note On - Duracao: 660420 Nota: C1 Vol.: 100
Chanel 5 Note Off - Duracao: 660480 Nota: C1 Vol.: 100
Chanel 5 Note On - Duracao: 660480 Nota: C1 Vol.: 100
Chanel 7 Note Off - Duracao: 660480 Nota: C1 Vol.: 81
Chanel 7 Note On - Duracao: 660480 Nota: C1 Vol.: 70
Chanel 5 Note Off - Duracao: 660540 Nota: C1 Vol.: 100
Chanel 5 Note On - Duracao: 660540 Nota: C1 Vol.: 99
Chanel 2 Note Off - Duracao: 660600 Nota: C1 Vol.: 77
Chanel 2 Note On - Duracao: 660600 Nota: C1 Vol.: 78
Chanel 5 Note Off - Duracao: 660600 Nota: C1 Vol.: 99
Chanel 5 Note On - Duracao: 660600 Nota: C1 Vol.: 96
Chanel 5 Note Off - Duracao: 660660 Nota: C1 Vol.: 96
Chanel 5 Note On - Duracao: 660660 Nota: C1 Vol.: 96
Chanel 10 Note Off - Duracao: 660660 Nota: C1 Vol.: 68
Chanel 10 Note On - Duracao: 660660 Nota: C1 Vol.: 67
Chanel 5 Note Off - Duracao: 660720 Nota: C1 Vol.: 96
Chanel 5 Note On - Duracao: 660720 Nota: C1 Vol.: 97
Chanel 5 Note Off - Duracao: 660780 Nota: C1 Vol.: 97
Chanel 5 Note On - Duracao: 660780 Nota: C1 Vol.: 97
Chanel 3 Note Off - Duracao: 660840 Nota: C1 Vol.: 58
Chanel 3 Note On - Duracao: 660840 Nota: C1 Vol.: 51
Chanel 5 Note Off - Duracao: 660840 Nota: C1 Vol.: 97
Chanel 5 Note On - Duracao: 660840 Nota: C1 Vol.: 96
Chanel 6 Note Off - Duracao: 660840 Nota: C1 Vol.: 64
Chanel 6 Note On - Duracao: 660840 Nota: C1 Vol.: 80
Chanel 4 Note Off - Duracao: 660900 Nota: C1 Vol.: 52
Chanel 4 Note On - Duracao: 660900 Nota: C1 Vol.: 70
Chanel 5 Note Off - Duracao: 660900 Nota: C1 Vol.: 96
Chanel 5 Note On - Duracao: 660900 Nota: C1 Vol.: 97
Chanel 8 Note Off - Duracao: 660900 Nota: C1 Vol.: 63
Chanel 8 Note On - Duracao: 660900 Nota: C1 Vol.: 63
Chanel 5 Note Off - Duracao: 660960 Nota: C1 Vol.: 97
Chanel 5 Note On - Duracao: 660960 Nota: C1 Vol.: 98
Chanel 5 Note Off - Duracao: 661020 Nota: C1 Vol.: 98
Chanel 5 Note On - Duracao: 661020 Nota: C1 Vol.: 97
Chanel 5 Note Off - Duracao: 661080 Nota: C1 Vol.: 97
Chanel 5 Note On - Duracao: 661080 Nota: C1 Vol.: 93
Chanel 5 Note Off - Duracao: 661140 Nota: C1 Vol.: 93
Chanel 5 Note On - Duracao: 661140 Nota: C1 Vol.: 96
Chanel 5 Note Off - Duracao: 661200 Nota: C1 Vol.: 96
Chanel 5 Note On - Duracao: 661200 Nota: C1 Vol.: 87
Chanel 5 Note Off - Duracao: 661320 Nota: C1 Vol.: 87
Chanel 5 Note On - Duracao: 661320 Nota: C1 Vol.: 54
Chanel 9 Note Off - Duracao: 661440 Nota: C1 Vol.: 64
Chanel 9 Note On - Duracao: 661440 Nota: C1 Vol.: 69
Chanel 2 Note Off - Duracao: 661560 Nota: C1 Vol.: 78
Chanel 2 Note On - Duracao: 661560 Nota: C1 Vol.: 75
Chanel 10 Note Off - Duracao: 661620 Nota: C1 Vol.: 67
Chanel 10 Note On - Duracao: 661620 Nota: C1 Vol.: 59
Chanel 6 Note Off - Duracao: 661800 Nota: C1 Vol.: 80
Chanel 6 Note On - Duracao: 661800 Nota: C1 Vol.: 79
Chanel 4 Note Off - Duracao: 661860 Nota: C1 Vol.: 70
Chanel 4 Note On - Duracao: 661860 Nota: C1 Vol.: 77
Chanel 7 Note Off - Duracao: 662400 Nota: C1 Vol.: 70
Chanel 7 Note On - Duracao: 662400 Nota: C1 Vol.: 68
Chanel 9 Note Off - Duracao: 662400 Nota: C1 Vol.: 69
Chanel 9 Note On - Duracao: 662400 Nota: C1 Vol.: 59
Chanel 2 Note Off - Duracao: 662520 Nota: C1 Vol.: 75
Chanel 2 Note On - Duracao: 662520 Nota: C1 Vol.: 74
Chanel 6 Note Off - Duracao: 662760 Nota: C1 Vol.: 79
Chanel 6 Note On - Duracao: 662760 Nota: C1 Vol.: 73
Chanel 4 Note Off - Duracao: 662820 Nota: C1 Vol.: 77
Chanel 4 Note On - Duracao: 662820 Nota: C1 Vol.: 76
Chanel 8 Note Off - Duracao: 662820 Nota: C1 Vol.: 63
Chanel 8 Note On - Duracao: 662820 Nota: C1 Vol.: 66
Chanel 5 Note Off - Duracao: 663240 Nota: C1 Vol.: 54
Chanel 5 Note On - Duracao: 663240 Nota: C1 Vol.: 58
Chanel 2 Note Off - Duracao: 663480 Nota: C1 Vol.: 74
Chanel 2 Note On - Duracao: 663480 Nota: C1 Vol.: 73
Chanel 10 Note Off - Duracao: 663540 Nota: C1 Vol.: 59
Chanel 10 Note On - Duracao: 663540 Nota: C1 Vol.: 66
Chanel 4 Note Off - Duracao: 663780 Nota: C1 Vol.: 76
Chanel 4 Note On - Duracao: 663780 Nota: C1 Vol.: 77
Chanel 5 Note Off - Duracao: 664200 Nota: C1 Vol.: 58
Chanel 5 Note On - Duracao: 664200 Nota: C1 Vol.: 61
Chanel 7 Note Off - Duracao: 664320 Nota: C1 Vol.: 68
Chanel 7 Note On - Duracao: 664320 Nota: C1 Vol.: 58
Chanel 9 Note Off - Duracao: 664320 Nota: C1 Vol.: 59
Chanel 9 Note On - Duracao: 664320 Nota: C1 Vol.: 72
Chanel 2 Note Off - Duracao: 664440 Nota: C1 Vol.: 73
Chanel 2 Note On - Duracao: 664440 Nota: C1 Vol.: 85
Chanel 10 Note Off - Duracao: 664500 Nota: C1 Vol.: 66
Chanel 10 Note On - Duracao: 664500 Nota: C1 Vol.: 61
Chanel 3 Note Off - Duracao: 664680 Nota: C1 Vol.: 51
Chanel 3 Note On - Duracao: 664680 Nota: C1 Vol.: 77
Chanel 6 Note Off - Duracao: 664680 Nota: C1 Vol.: 73
Chanel 6 Note On - Duracao: 664680 Nota: C1 Vol.: 66
Chanel 4 Note Off - Duracao: 664740 Nota: C1 Vol.: 77
Chanel 4 Note On - Duracao: 664740 Nota: C1 Vol.: 75
Chanel 8 Note Off - Duracao: 664740 Nota: C1 Vol.: 66
Chanel 8 Note On - Duracao: 664740 Nota: C1 Vol.: 52
Chanel 2 Note Off - Duracao: 664920 Nota: C1 Vol.: 85
Chanel 2 Note On - Duracao: 664920 Nota: C1 Vol.: 89
Chanel 2 Note Off - Duracao: 665160 Nota: C1 Vol.: 89
Chanel 2 Note On - Duracao: 665160 Nota: C1 Vol.: 80
Chanel 5 Note Off - Duracao: 665160 Nota: C1 Vol.: 61
Chanel 5 Note On - Duracao: 665160 Nota: C1 Vol.: 60
Chanel 9 Note Off - Duracao: 665280 Nota: C1 Vol.: 72
Chanel 9 Note On - Duracao: 665280 Nota: C1 Vol.: 79
Chanel 2 Note Off - Duracao: 665640 Nota: C1 Vol.: 80
Chanel 2 Note On - Duracao: 665640 Nota: C1 Vol.: 77
Chanel 4 Note Off - Duracao: 665700 Nota: C1 Vol.: 75
Chanel 4 Note On - Duracao: 665700 Nota: C1 Vol.: 75
Chanel 9 Note Off - Duracao: 665760 Nota: C1 Vol.: 79
Chanel 9 Note On - Duracao: 665760 Nota: C1 Vol.: 75
Chanel 5 Note Off - Duracao: 666120 Nota: C1 Vol.: 60
Chanel 5 Note On - Duracao: 666120 Nota: C1 Vol.: 70
Chanel 9 Note Off - Duracao: 666240 Nota: C1 Vol.: 75
Chanel 9 Note On - Duracao: 666240 Nota: C1 Vol.: 77
Chanel 10 Note Off - Duracao: 666420 Nota: C1 Vol.: 61
Chanel 10 Note On - Duracao: 666420 Nota: C1 Vol.: 66
Chanel 2 Note Off - Duracao: 666600 Nota: C1 Vol.: 77
Chanel 2 Note On - Duracao: 666600 Nota: C1 Vol.: 48
Chanel 3 Note Off - Duracao: 666600 Nota: C1 Vol.: 77
Chanel 3 Note On - Duracao: 666600 Nota: C1 Vol.: 79
Chanel 5 Note Off - Duracao: 666600 Nota: C1 Vol.: 70
Chanel 5 Note On - Duracao: 666600 Nota: C1 Vol.: 73
Chanel 6 Note Off - Duracao: 666600 Nota: C1 Vol.: 66
Chanel 6 Note On - Duracao: 666600 Nota: C1 Vol.: 68
Chanel 4 Note Off - Duracao: 666660 Nota: C1 Vol.: 75
Chanel 4 Note On - Duracao: 666660 Nota: C1 Vol.: 76
Chanel 9 Note Off - Duracao: 666720 Nota: C1 Vol.: 77
Chanel 9 Note On - Duracao: 666720 Nota: C1 Vol.: 75
Chanel 5 Note Off - Duracao: 667080 Nota: C1 Vol.: 73
Chanel 5 Note On - Duracao: 667080 Nota: C1 Vol.: 78
Chanel 9 Note Off - Duracao: 667200 Nota: C1 Vol.: 75
Chanel 9 Note On - Duracao: 667200 Nota: C1 Vol.: 70
Chanel 10 Note Off - Duracao: 667380 Nota: C1 Vol.: 66
Chanel 10 Note On - Duracao: 667380 Nota: C1 Vol.: 61
Chanel 5 Note Off - Duracao: 667560 Nota: C1 Vol.: 78
Chanel 5 Note On - Duracao: 667560 Nota: C1 Vol.: 92
Chanel 4 Note Off - Duracao: 667620 Nota: C1 Vol.: 76
Chanel 4 Note On - Duracao: 667620 Nota: C1 Vol.: 75
Chanel 5 Note Off - Duracao: 667800 Nota: C1 Vol.: 92
Chanel 5 Note On - Duracao: 667800 Nota: C1 Vol.: 85
Chanel 7 Note Off - Duracao: 668160 Nota: C1 Vol.: 58
Chanel 7 Note On - Duracao: 668160 Nota: C1 Vol.: 56
Chanel 9 Note Off - Duracao: 668160 Nota: C1 Vol.: 70
Chanel 9 Note On - Duracao: 668160 Nota: C1 Vol.: 80
Chanel 9 Note Off - Duracao: 668400 Nota: C1 Vol.: 80
Chanel 9 Note On - Duracao: 668400 Nota: C1 Vol.: 86
Chanel 3 Note Off - Duracao: 668520 Nota: C1 Vol.: 79
Chanel 3 Note On - Duracao: 668520 Nota: C1 Vol.: 79
Chanel 6 Note Off - Duracao: 668520 Nota: C1 Vol.: 68
Chanel 6 Note On - Duracao: 668520 Nota: C1 Vol.: 79
Chanel 9 Note Off - Duracao: 668520 Nota: C1 Vol.: 86
Chanel 9 Note On - Duracao: 668520 Nota: C1 Vol.: 82
Chanel 4 Note Off - Duracao: 668580 Nota: C1 Vol.: 75
Chanel 4 Note On - Duracao: 668580 Nota: C1 Vol.: 56
Chanel 8 Note Off - Duracao: 668580 Nota: C1 Vol.: 52
Chanel 8 Note On - Duracao: 668580 Nota: C1 Vol.: 79
Chanel 5 Note Off - Duracao: 668760 Nota: C1 Vol.: 85
Chanel 5 Note On - Duracao: 668760 Nota: C1 Vol.: 77
Chanel 9 Note Off - Duracao: 668760 Nota: C1 Vol.: 82
Chanel 9 Note On - Duracao: 668760 Nota: C1 Vol.: 59
Chanel 10 Note Off - Duracao: 669300 Nota: C1 Vol.: 61
Chanel 10 Note On - Duracao: 669300 Nota: C1 Vol.: 64
Chanel 3 Note Off - Duracao: 669480 Nota: C1 Vol.: 79
Chanel 3 Note On - Duracao: 669480 Nota: C1 Vol.: 47
Chanel 6 Note Off - Duracao: 669480 Nota: C1 Vol.: 79
Chanel 6 Note On - Duracao: 669480 Nota: C1 Vol.: 71
Chanel 8 Note Off - Duracao: 669540 Nota: C1 Vol.: 79
Chanel 8 Note On - Duracao: 669540 Nota: C1 Vol.: 80
Chanel 5 Note Off - Duracao: 669720 Nota: C1 Vol.: 77
Chanel 5 Note On - Duracao: 669720 Nota: C1 Vol.: 67
Chanel 10 Note Off - Duracao: 670260 Nota: C1 Vol.: 64
Chanel 10 Note On - Duracao: 670260 Nota: C1 Vol.: 65
Chanel 2 Note Off - Duracao: 670440 Nota: C1 Vol.: 48
Chanel 2 Note On - Duracao: 670440 Nota: C1 Vol.: 81
Chanel 8 Note Off - Duracao: 670500 Nota: C1 Vol.: 80
Chanel 8 Note On - Duracao: 670500 Nota: C1 Vol.: 65
Chanel 9 Note Off - Duracao: 670680 Nota: C1 Vol.: 59
Chanel 9 Note On - Duracao: 670680 Nota: C1 Vol.: 63
Chanel 10 Note Off - Duracao: 671220 Nota: C1 Vol.: 65
Chanel 10 Note On - Duracao: 671220 Nota: C1 Vol.: 66
Chanel 6 Note Off - Duracao: 671400 Nota: C1 Vol.: 71
Chanel 6 Note On - Duracao: 671400 Nota: C1 Vol.: 67
Chanel 5 Note Off - Duracao: 671640 Nota: C1 Vol.: 67
Chanel 5 Note On - Duracao: 671640 Nota: C1 Vol.: 70
Chanel 9 Note Off - Duracao: 671640 Nota: C1 Vol.: 63
Chanel 9 Note On - Duracao: 671640 Nota: C1 Vol.: 58
Chanel 7 Note Off - Duracao: 672000 Nota: C1 Vol.: 56
Chanel 7 Note On - Duracao: 672000 Nota: C1 Vol.: 61
Chanel 10 Note Off - Duracao: 672180 Nota: C1 Vol.: 66
Chanel 10 Note On - Duracao: 672180 Nota: C1 Vol.: 68
Chanel 2 Note Off - Duracao: 672360 Nota: C1 Vol.: 81
Chanel 2 Note On - Duracao: 672360 Nota: C1 Vol.: 80
Chanel 4 Note Off - Duracao: 672420 Nota: C1 Vol.: 56
Chanel 4 Note On - Duracao: 672420 Nota: C1 Vol.: 47
Chanel 8 Note Off - Duracao: 672420 Nota: C1 Vol.: 65
Chanel 8 Note On - Duracao: 672420 Nota: C1 Vol.: 63
Chanel 5 Note Off - Duracao: 672600 Nota: C1 Vol.: 70
Chanel 5 Note On - Duracao: 672600 Nota: C1 Vol.: 72
Chanel 10 Note Off - Duracao: 673140 Nota: C1 Vol.: 68
Chanel 10 Note On - Duracao: 673140 Nota: C1 Vol.: 69
Chanel 3 Note Off - Duracao: 673320 Nota: C1 Vol.: 47
Chanel 3 Note On - Duracao: 673320 Nota: C1 Vol.: 59
Chanel 6 Note Off - Duracao: 673320 Nota: C1 Vol.: 67
Chanel 6 Note On - Duracao: 673320 Nota: C1 Vol.: 67
Chanel 5 Note Off - Duracao: 673560 Nota: C1 Vol.: 72
Chanel 5 Note On - Duracao: 673560 Nota: C1 Vol.: 72
Chanel 9 Note Off - Duracao: 673560 Nota: C1 Vol.: 58
Chanel 9 Note On - Duracao: 673560 Nota: C1 Vol.: 68
Chanel 7 Note Off - Duracao: 673920 Nota: C1 Vol.: 61
Chanel 7 Note On - Duracao: 673920 Nota: C1 Vol.: 66
Chanel 10 Note Off - Duracao: 674100 Nota: C1 Vol.: 69
Chanel 10 Note On - Duracao: 674100 Nota: C1 Vol.: 75
Chanel 2 Note Off - Duracao: 674280 Nota: C1 Vol.: 80
Chanel 2 Note On - Duracao: 674280 Nota: C1 Vol.: 83
Chanel 8 Note Off - Duracao: 674340 Nota: C1 Vol.: 63
Chanel 8 Note On - Duracao: 674340 Nota: C1 Vol.: 75
Chanel 9 Note Off - Duracao: 674520 Nota: C1 Vol.: 68
Chanel 9 Note On - Duracao: 674520 Nota: C1 Vol.: 68
Chanel 10 Note Off - Duracao: 674580 Nota: C1 Vol.: 75
Chanel 10 Note On - Duracao: 674580 Nota: C1 Vol.: 65
Chanel 7 Note Off - Duracao: 674880 Nota: C1 Vol.: 66
Chanel 7 Note On - Duracao: 674880 Nota: C1 Vol.: 57
Chanel 3 Note Off - Duracao: 675240 Nota: C1 Vol.: 59
Chanel 3 Note On - Duracao: 675240 Nota: C1 Vol.: 90
Chanel 6 Note Off - Duracao: 675240 Nota: C1 Vol.: 67
Chanel 6 Note On - Duracao: 675240 Nota: C1 Vol.: 67
Chanel 8 Note Off - Duracao: 675300 Nota: C1 Vol.: 75
Chanel 8 Note On - Duracao: 675300 Nota: C1 Vol.: 69
Chanel 3 Note Off - Duracao: 675360 Nota: C1 Vol.: 90
Chanel 3 Note On - Duracao: 675360 Nota: C1 Vol.: 86
Chanel 5 Note Off - Duracao: 675480 Nota: C1 Vol.: 72
Chanel 5 Note On - Duracao: 675480 Nota: C1 Vol.: 67
Chanel 9 Note Off - Duracao: 675480 Nota: C1 Vol.: 68
Chanel 9 Note On - Duracao: 675480 Nota: C1 Vol.: 82
Chanel 10 Note Off - Duracao: 675540 Nota: C1 Vol.: 65
Chanel 10 Note On - Duracao: 675540 Nota: C1 Vol.: 72
Chanel 3 Note Off - Duracao: 675600 Nota: C1 Vol.: 86
Chanel 3 Note On - Duracao: 675600 Nota: C1 Vol.: 93
Chanel 3 Note Off - Duracao: 675720 Nota: C1 Vol.: 93
Chanel 3 Note On - Duracao: 675720 Nota: C1 Vol.: 98
Chanel 3 Note Off - Duracao: 675780 Nota: C1 Vol.: 98
Chanel 3 Note On - Duracao: 675780 Nota: C1 Vol.: 97
Chanel 3 Note Off - Duracao: 675840 Nota: C1 Vol.: 97
Chanel 3 Note On - Duracao: 675840 Nota: C1 Vol.: 97
Chanel 3 Note Off - Duracao: 675900 Nota: C1 Vol.: 97
Chanel 3 Note On - Duracao: 675900 Nota: C1 Vol.: 95
Chanel 9 Note Off - Duracao: 675960 Nota: C1 Vol.: 82
Chanel 9 Note On - Duracao: 675960 Nota: C1 Vol.: 82
Chanel 3 Note Off - Duracao: 676020 Nota: C1 Vol.: 95
Chanel 3 Note On - Duracao: 676020 Nota: C1 Vol.: 74
Chanel 10 Note Off - Duracao: 676020 Nota: C1 Vol.: 72
Chanel 10 Note On - Duracao: 676020 Nota: C1 Vol.: 80
Chanel 2 Note Off - Duracao: 676200 Nota: C1 Vol.: 83
Chanel 2 Note On - Duracao: 676200 Nota: C1 Vol.: 66
Chanel 4 Note Off - Duracao: 676260 Nota: C1 Vol.: 47
Chanel 4 Note On - Duracao: 676260 Nota: C1 Vol.: 75
Chanel 8 Note Off - Duracao: 676260 Nota: C1 Vol.: 69
Chanel 8 Note On - Duracao: 676260 Nota: C1 Vol.: 76
Chanel 10 Note Off - Duracao: 676260 Nota: C1 Vol.: 80
Chanel 10 Note On - Duracao: 676260 Nota: C1 Vol.: 75
Chanel 3 Note Off - Duracao: 676500 Nota: C1 Vol.: 74
Chanel 3 Note On - Duracao: 676500 Nota: C1 Vol.: 46
Chanel 10 Note Off - Duracao: 676500 Nota: C1 Vol.: 75
Chanel 10 Note On - Duracao: 676500 Nota: C1 Vol.: 75
Chanel 8 Note Off - Duracao: 676740 Nota: C1 Vol.: 76
Chanel 8 Note On - Duracao: 676740 Nota: C1 Vol.: 73
Chanel 10 Note Off - Duracao: 676740 Nota: C1 Vol.: 75
Chanel 10 Note On - Duracao: 676740 Nota: C1 Vol.: 82
Chanel 7 Note Off - Duracao: 676800 Nota: C1 Vol.: 57
Chanel 7 Note On - Duracao: 676800 Nota: C1 Vol.: 58
Chanel 9 Note Off - Duracao: 676920 Nota: C1 Vol.: 82
Chanel 9 Note On - Duracao: 676920 Nota: C1 Vol.: 66
Chanel 10 Note Off - Duracao: 676980 Nota: C1 Vol.: 82
Chanel 10 Note On - Duracao: 676980 Nota: C1 Vol.: 83
Chanel 10 Note Off - Duracao: 677100 Nota: C1 Vol.: 83
Chanel 10 Note On - Duracao: 677100 Nota: C1 Vol.: 82
Chanel 6 Note Off - Duracao: 677160 Nota: C1 Vol.: 67
Chanel 6 Note On - Duracao: 677160 Nota: C1 Vol.: 64
Chanel 4 Note Off - Duracao: 677220 Nota: C1 Vol.: 75
Chanel 4 Note On - Duracao: 677220 Nota: C1 Vol.: 73
Chanel 8 Note Off - Duracao: 677220 Nota: C1 Vol.: 73
Chanel 8 Note On - Duracao: 677220 Nota: C1 Vol.: 66
Chanel 10 Note Off - Duracao: 677340 Nota: C1 Vol.: 82
Chanel 10 Note On - Duracao: 677340 Nota: C1 Vol.: 84
Chanel 5 Note Off - Duracao: 677400 Nota: C1 Vol.: 67
Chanel 5 Note On - Duracao: 677400 Nota: C1 Vol.: 70
Chanel 10 Note Off - Duracao: 677580 Nota: C1 Vol.: 84
Chanel 10 Note On - Duracao: 677580 Nota: C1 Vol.: 82
Chanel 10 Note Off - Duracao: 677820 Nota: C1 Vol.: 82
Chanel 10 Note On - Duracao: 677820 Nota: C1 Vol.: 84
Chanel 10 Note Off - Duracao: 677940 Nota: C1 Vol.: 84
Chanel 10 Note On - Duracao: 677940 Nota: C1 Vol.: 79
Chanel 4 Note Off - Duracao: 678180 Nota: C1 Vol.: 73
Chanel 4 Note On - Duracao: 678180 Nota: C1 Vol.: 44
Chanel 8 Note Off - Duracao: 678180 Nota: C1 Vol.: 66
Chanel 8 Note On - Duracao: 678180 Nota: C1 Vol.: 85
Chanel 10 Note Off - Duracao: 678180 Nota: C1 Vol.: 79
Chanel 10 Note On - Duracao: 678180 Nota: C1 Vol.: 77
Chanel 8 Note Off - Duracao: 678420 Nota: C1 Vol.: 85
Chanel 8 Note On - Duracao: 678420 Nota: C1 Vol.: 83
Chanel 10 Note Off - Duracao: 678420 Nota: C1 Vol.: 77
Chanel 10 Note On - Duracao: 678420 Nota: C1 Vol.: 73
Chanel 7 Note Off - Duracao: 678720 Nota: C1 Vol.: 58
Chanel 7 Note On - Duracao: 678720 Nota: C1 Vol.: 51
Chanel 9 Note Off - Duracao: 678840 Nota: C1 Vol.: 66
Chanel 9 Note On - Duracao: 678840 Nota: C1 Vol.: 82
Chanel 8 Note Off - Duracao: 678900 Nota: C1 Vol.: 83
Chanel 8 Note On - Duracao: 678900 Nota: C1 Vol.: 85
Chanel 10 Note Off - Duracao: 678900 Nota: C1 Vol.: 73
Chanel 10 Note On - Duracao: 678900 Nota: C1 Vol.: 74
Chanel 6 Note Off - Duracao: 679080 Nota: C1 Vol.: 64
Chanel 6 Note On - Duracao: 679080 Nota: C1 Vol.: 64
Chanel 5 Note Off - Duracao: 679320 Nota: C1 Vol.: 70
Chanel 5 Note On - Duracao: 679320 Nota: C1 Vol.: 74
Chanel 8 Note Off - Duracao: 679380 Nota: C1 Vol.: 85
Chanel 8 Note On - Duracao: 679380 Nota: C1 Vol.: 80
Chanel 10 Note Off - Duracao: 679380 Nota: C1 Vol.: 74
Chanel 10 Note On - Duracao: 679380 Nota: C1 Vol.: 73
Chanel 9 Note Off - Duracao: 679800 Nota: C1 Vol.: 82
Chanel 9 Note On - Duracao: 679800 Nota: C1 Vol.: 81
Chanel 8 Note Off - Duracao: 679860 Nota: C1 Vol.: 80
Chanel 8 Note On - Duracao: 679860 Nota: C1 Vol.: 85
Chanel 10 Note Off - Duracao: 679860 Nota: C1 Vol.: 73
Chanel 10 Note On - Duracao: 679860 Nota: C1 Vol.: 70
Chanel 2 Note Off - Duracao: 680040 Nota: C1 Vol.: 66
Chanel 2 Note On - Duracao: 680040 Nota: C1 Vol.: 47
Chanel 8 Note Off - Duracao: 680100 Nota: C1 Vol.: 85
Chanel 8 Note On - Duracao: 680100 Nota: C1 Vol.: 87
Chanel 8 Note Off - Duracao: 680220 Nota: C1 Vol.: 87
Chanel 8 Note On - Duracao: 680220 Nota: C1 Vol.: 92
Chanel 5 Note Off - Duracao: 680280 Nota: C1 Vol.: 74
Chanel 5 Note On - Duracao: 680280 Nota: C1 Vol.: 79
Chanel 3 Note Off - Duracao: 680340 Nota: C1 Vol.: 46
Chanel 3 Note On - Duracao: 680340 Nota: C1 Vol.: 57
Chanel 8 Note Off - Duracao: 680340 Nota: C1 Vol.: 92
Chanel 8 Note On - Duracao: 680340 Nota: C1 Vol.: 98
Chanel 10 Note Off - Duracao: 680340 Nota: C1 Vol.: 70
Chanel 10 Note On - Duracao: 680340 Nota: C1 Vol.: 68
Chanel 8 Note Off - Duracao: 680400 Nota: C1 Vol.: 98
Chanel 8 Note On - Duracao: 680400 Nota: C1 Vol.: 95
Chanel 8 Note Off - Duracao: 680520 Nota: C1 Vol.: 95
Chanel 8 Note On - Duracao: 680520 Nota: C1 Vol.: 99
Chanel 7 Note Off - Duracao: 680640 Nota: C1 Vol.: 51
Chanel 7 Note On - Duracao: 680640 Nota: C1 Vol.: 43
Chanel 8 Note Off - Duracao: 680640 Nota: C1 Vol.: 99
Chanel 8 Note On - Duracao: 680640 Nota: C1 Vol.: 97
Chanel 8 Note Off - Duracao: 680760 Nota: C1 Vol.: 97
Chanel 8 Note On - Duracao: 680760 Nota: C1 Vol.: 92
Chanel 9 Note Off - Duracao: 680760 Nota: C1 Vol.: 81
Chanel 9 Note On - Duracao: 680760 Nota: C1 Vol.: 79
Chanel 10 Note Off - Duracao: 680820 Nota: C1 Vol.: 68
Chanel 10 Note On - Duracao: 680820 Nota: C1 Vol.: 70
Chanel 8 Note Off - Duracao: 680880 Nota: C1 Vol.: 92
Chanel 8 Note On - Duracao: 680880 Nota: C1 Vol.: 98
Chanel 6 Note Off - Duracao: 681000 Nota: C1 Vol.: 64
Chanel 6 Note On - Duracao: 681000 Nota: C1 Vol.: 67
Chanel 8 Note Off - Duracao: 681000 Nota: C1 Vol.: 98
Chanel 8 Note On - Duracao: 681000 Nota: C1 Vol.: 97
Chanel 8 Note Off - Duracao: 681120 Nota: C1 Vol.: 97
Chanel 8 Note On - Duracao: 681120 Nota: C1 Vol.: 61
Chanel 5 Note Off - Duracao: 681240 Nota: C1 Vol.: 79
Chanel 5 Note On - Duracao: 681240 Nota: C1 Vol.: 70
Chanel 10 Note Off - Duracao: 681300 Nota: C1 Vol.: 70
Chanel 10 Note On - Duracao: 681300 Nota: C1 Vol.: 65
Chanel 9 Note Off - Duracao: 681720 Nota: C1 Vol.: 79
Chanel 9 Note On - Duracao: 681720 Nota: C1 Vol.: 78
Chanel 6 Note Off - Duracao: 681960 Nota: C1 Vol.: 67
Chanel 6 Note On - Duracao: 681960 Nota: C1 Vol.: 71
Chanel 4 Note Off - Duracao: 682020 Nota: C1 Vol.: 44
Chanel 4 Note On - Duracao: 682020 Nota: C1 Vol.: 78
Chanel 8 Note Off - Duracao: 682080 Nota: C1 Vol.: 61
Chanel 8 Note On - Duracao: 682080 Nota: C1 Vol.: 58
Chanel 3 Note Off - Duracao: 682260 Nota: C1 Vol.: 57
Chanel 3 Note On - Duracao: 682260 Nota: C1 Vol.: 72
Chanel 4 Note Off - Duracao: 682260 Nota: C1 Vol.: 78
Chanel 4 Note On - Duracao: 682260 Nota: C1 Vol.: 87
Chanel 10 Note Off - Duracao: 682260 Nota: C1 Vol.: 65
Chanel 10 Note On - Duracao: 682260 Nota: C1 Vol.: 64
Chanel 4 Note Off - Duracao: 682380 Nota: C1 Vol.: 87
Chanel 4 Note On - Duracao: 682380 Nota: C1 Vol.: 75
Chanel 3 Note Off - Duracao: 682500 Nota: C1 Vol.: 72
Chanel 3 Note On - Duracao: 682500 Nota: C1 Vol.: 82
Chanel 3 Note Off - Duracao: 682620 Nota: C1 Vol.: 82
Chanel 3 Note On - Duracao: 682620 Nota: C1 Vol.: 73
Chanel 4 Note Off - Duracao: 682620 Nota: C1 Vol.: 75
Chanel 4 Note On - Duracao: 682620 Nota: C1 Vol.: 89
Chanel 9 Note Off - Duracao: 682680 Nota: C1 Vol.: 78
Chanel 9 Note On - Duracao: 682680 Nota: C1 Vol.: 72
Chanel 4 Note Off - Duracao: 682740 Nota: C1 Vol.: 89
Chanel 4 Note On - Duracao: 682740 Nota: C1 Vol.: 86
Chanel 3 Note Off - Duracao: 682860 Nota: C1 Vol.: 73
Chanel 3 Note On - Duracao: 682860 Nota: C1 Vol.: 88
Chanel 4 Note Off - Duracao: 682860 Nota: C1 Vol.: 86
Chanel 4 Note On - Duracao: 682860 Nota: C1 Vol.: 81
Chanel 6 Note Off - Duracao: 682920 Nota: C1 Vol.: 71
Chanel 6 Note On - Duracao: 682920 Nota: C1 Vol.: 69
Chanel 3 Note Off - Duracao: 682980 Nota: C1 Vol.: 88
Chanel 3 Note On - Duracao: 682980 Nota: C1 Vol.: 99
Chanel 3 Note Off - Duracao: 683040 Nota: C1 Vol.: 99
Chanel 3 Note On - Duracao: 683040 Nota: C1 Vol.: 100
Chanel 8 Note Off - Duracao: 683040 Nota: C1 Vol.: 58
Chanel 8 Note On - Duracao: 683040 Nota: C1 Vol.: 64
Chanel 3 Note Off - Duracao: 683100 Nota: C1 Vol.: 100
Chanel 3 Note On - Duracao: 683100 Nota: C1 Vol.: 100
Chanel 4 Note Off - Duracao: 683100 Nota: C1 Vol.: 81
Chanel 4 Note On - Duracao: 683100 Nota: C1 Vol.: 80
Chanel 3 Note Off - Duracao: 683160 Nota: C1 Vol.: 100
Chanel 3 Note On - Duracao: 683160 Nota: C1 Vol.: 98
Chanel 5 Note Off - Duracao: 683160 Nota: C1 Vol.: 70
Chanel 5 Note On - Duracao: 683160 Nota: C1 Vol.: 79
Chanel 3 Note Off - Duracao: 683220 Nota: C1 Vol.: 98
Chanel 3 Note On - Duracao: 683220 Nota: C1 Vol.: 96
Chanel 10 Note Off - Duracao: 683220 Nota: C1 Vol.: 64
Chanel 10 Note On - Duracao: 683220 Nota: C1 Vol.: 66
Chanel 3 Note Off - Duracao: 683280 Nota: C1 Vol.: 96
Chanel 3 Note On - Duracao: 683280 Nota: C1 Vol.: 88
Chanel 4 Note Off - Duracao: 683340 Nota: C1 Vol.: 80
Chanel 4 Note On - Duracao: 683340 Nota: C1 Vol.: 84
Chanel 3 Note Off - Duracao: 683400 Nota: C1 Vol.: 88
Chanel 3 Note On - Duracao: 683400 Nota: C1 Vol.: 71
Chanel 4 Note Off - Duracao: 683460 Nota: C1 Vol.: 84
Chanel 4 Note On - Duracao: 683460 Nota: C1 Vol.: 67
Chanel 9 Note Off - Duracao: 683640 Nota: C1 Vol.: 72
Chanel 9 Note On - Duracao: 683640 Nota: C1 Vol.: 78
Chanel 2 Note Off - Duracao: 683880 Nota: C1 Vol.: 47
Chanel 2 Note On - Duracao: 683880 Nota: C1 Vol.: 46
Chanel 3 Note Off - Duracao: 683880 Nota: C1 Vol.: 71
Chanel 3 Note On - Duracao: 683880 Nota: C1 Vol.: 77
Chanel 4 Note Off - Duracao: 683940 Nota: C1 Vol.: 67
Chanel 4 Note On - Duracao: 683940 Nota: C1 Vol.: 57
Chanel 8 Note Off - Duracao: 684000 Nota: C1 Vol.: 64
Chanel 8 Note On - Duracao: 684000 Nota: C1 Vol.: 66
Chanel 5 Note Off - Duracao: 684120 Nota: C1 Vol.: 79
Chanel 5 Note On - Duracao: 684120 Nota: C1 Vol.: 81
Chanel 10 Note Off - Duracao: 684180 Nota: C1 Vol.: 66
Chanel 10 Note On - Duracao: 684180 Nota: C1 Vol.: 66
Chanel 3 Note Off - Duracao: 684360 Nota: C1 Vol.: 77
Chanel 3 Note On - Duracao: 684360 Nota: C1 Vol.: 83
Chanel 7 Note Off - Duracao: 684480 Nota: C1 Vol.: 43
Chanel 7 Note On - Duracao: 684480 Nota: C1 Vol.: 41
Chanel 8 Note Off - Duracao: 684480 Nota: C1 Vol.: 66
Chanel 8 Note On - Duracao: 684480 Nota: C1 Vol.: 92
Chanel 8 Note Off - Duracao: 684540 Nota: C1 Vol.: 92
Chanel 8 Note On - Duracao: 684540 Nota: C1 Vol.: 65
Chanel 3 Note Off - Duracao: 684600 Nota: C1 Vol.: 83
Chanel 3 Note On - Duracao: 684600 Nota: C1 Vol.: 75
Chanel 9 Note Off - Duracao: 684600 Nota: C1 Vol.: 78
Chanel 9 Note On - Duracao: 684600 Nota: C1 Vol.: 69
Chanel 6 Note Off - Duracao: 684840 Nota: C1 Vol.: 69
Chanel 6 Note On - Duracao: 684840 Nota: C1 Vol.: 75
Chanel 4 Note Off - Duracao: 684900 Nota: C1 Vol.: 57
Chanel 4 Note On - Duracao: 684900 Nota: C1 Vol.: 54
Chanel 8 Note Off - Duracao: 685020 Nota: C1 Vol.: 65
Chanel 8 Note On - Duracao: 685020 Nota: C1 Vol.: 62
Chanel 3 Note Off - Duracao: 685080 Nota: C1 Vol.: 75
Chanel 3 Note On - Duracao: 685080 Nota: C1 Vol.: 80
Chanel 5 Note Off - Duracao: 685080 Nota: C1 Vol.: 81
Chanel 5 Note On - Duracao: 685080 Nota: C1 Vol.: 78
Chanel 10 Note Off - Duracao: 685140 Nota: C1 Vol.: 66
Chanel 10 Note On - Duracao: 685140 Nota: C1 Vol.: 67
Chanel 3 Note Off - Duracao: 685320 Nota: C1 Vol.: 80
Chanel 3 Note On - Duracao: 685320 Nota: C1 Vol.: 77
Chanel 9 Note Off - Duracao: 685560 Nota: C1 Vol.: 69
Chanel 9 Note On - Duracao: 685560 Nota: C1 Vol.: 72
Chanel 3 Note Off - Duracao: 685800 Nota: C1 Vol.: 77
Chanel 3 Note On - Duracao: 685800 Nota: C1 Vol.: 81
Chanel 6 Note Off - Duracao: 685800 Nota: C1 Vol.: 75
Chanel 6 Note On - Duracao: 685800 Nota: C1 Vol.: 74
Chanel 4 Note Off - Duracao: 685860 Nota: C1 Vol.: 54
Chanel 4 Note On - Duracao: 685860 Nota: C1 Vol.: 53
Chanel 8 Note Off - Duracao: 685980 Nota: C1 Vol.: 62
Chanel 8 Note On - Duracao: 685980 Nota: C1 Vol.: 64
Chanel 3 Note Off - Duracao: 686040 Nota: C1 Vol.: 81
Chanel 3 Note On - Duracao: 686040 Nota: C1 Vol.: 77
Chanel 5 Note Off - Duracao: 686040 Nota: C1 Vol.: 78
Chanel 5 Note On - Duracao: 686040 Nota: C1 Vol.: 68
Chanel 10 Note Off - Duracao: 686100 Nota: C1 Vol.: 67
Chanel 10 Note On - Duracao: 686100 Nota: C1 Vol.: 65
Chanel 7 Note Off - Duracao: 686400 Nota: C1 Vol.: 41
Chanel 7 Note On - Duracao: 686400 Nota: C1 Vol.: 43
Chanel 3 Note Off - Duracao: 686520 Nota: C1 Vol.: 77
Chanel 3 Note On - Duracao: 686520 Nota: C1 Vol.: 77
Chanel 9 Note Off - Duracao: 686520 Nota: C1 Vol.: 72
Chanel 9 Note On - Duracao: 686520 Nota: C1 Vol.: 85
Chanel 9 Note Off - Duracao: 686760 Nota: C1 Vol.: 85
Chanel 9 Note On - Duracao: 686760 Nota: C1 Vol.: 91
Chanel 4 Note Off - Duracao: 686820 Nota: C1 Vol.: 53
Chanel 4 Note On - Duracao: 686820 Nota: C1 Vol.: 62
Chanel 9 Note Off - Duracao: 686880 Nota: C1 Vol.: 91
Chanel 9 Note On - Duracao: 686880 Nota: C1 Vol.: 92
Chanel 8 Note Off - Duracao: 686940 Nota: C1 Vol.: 64
Chanel 8 Note On - Duracao: 686940 Nota: C1 Vol.: 67
Chanel 3 Note Off - Duracao: 687000 Nota: C1 Vol.: 77
Chanel 3 Note On - Duracao: 687000 Nota: C1 Vol.: 68
Chanel 5 Note Off - Duracao: 687000 Nota: C1 Vol.: 68
Chanel 5 Note On - Duracao: 687000 Nota: C1 Vol.: 65
Chanel 9 Note Off - Duracao: 687000 Nota: C1 Vol.: 92
Chanel 9 Note On - Duracao: 687000 Nota: C1 Vol.: 73
Chanel 10 Note Off - Duracao: 687060 Nota: C1 Vol.: 65
Chanel 10 Note On - Duracao: 687060 Nota: C1 Vol.: 61
Chanel 4 Note Off - Duracao: 687300 Nota: C1 Vol.: 62
Chanel 4 Note On - Duracao: 687300 Nota: C1 Vol.: 80
Chanel 9 Note Off - Duracao: 687480 Nota: C1 Vol.: 73
Chanel 9 Note On - Duracao: 687480 Nota: C1 Vol.: 64
Chanel 4 Note Off - Duracao: 687540 Nota: C1 Vol.: 80
Chanel 4 Note On - Duracao: 687540 Nota: C1 Vol.: 80
Chanel 2 Note Off - Duracao: 687720 Nota: C1 Vol.: 46
Chanel 2 Note On - Duracao: 687720 Nota: C1 Vol.: 44
Chanel 6 Note Off - Duracao: 687720 Nota: C1 Vol.: 74
Chanel 6 Note On - Duracao: 687720 Nota: C1 Vol.: 83
Chanel 4 Note Off - Duracao: 687780 Nota: C1 Vol.: 80
Chanel 4 Note On - Duracao: 687780 Nota: C1 Vol.: 46
Chanel 8 Note Off - Duracao: 687900 Nota: C1 Vol.: 67
Chanel 8 Note On - Duracao: 687900 Nota: C1 Vol.: 64
Chanel 3 Note Off - Duracao: 687960 Nota: C1 Vol.: 68
Chanel 3 Note On - Duracao: 687960 Nota: C1 Vol.: 75
Chanel 7 Note Off - Duracao: 688320 Nota: C1 Vol.: 43
Chanel 7 Note On - Duracao: 688320 Nota: C1 Vol.: 44
Chanel 3 Note Off - Duracao: 688440 Nota: C1 Vol.: 75
Chanel 3 Note On - Duracao: 688440 Nota: C1 Vol.: 70
Chanel 9 Note Off - Duracao: 688440 Nota: C1 Vol.: 64
Chanel 9 Note On - Duracao: 688440 Nota: C1 Vol.: 57
Chanel 6 Note Off - Duracao: 688680 Nota: C1 Vol.: 83
Chanel 6 Note On - Duracao: 688680 Nota: C1 Vol.: 77
Chanel 8 Note Off - Duracao: 688860 Nota: C1 Vol.: 64
Chanel 8 Note On - Duracao: 688860 Nota: C1 Vol.: 67
Chanel 5 Note Off - Duracao: 688920 Nota: C1 Vol.: 65
Chanel 5 Note On - Duracao: 688920 Nota: C1 Vol.: 68
Chanel 10 Note Off - Duracao: 688980 Nota: C1 Vol.: 61
Chanel 10 Note On - Duracao: 688980 Nota: C1 Vol.: 66
Chanel 8 Note Off - Duracao: 689340 Nota: C1 Vol.: 67
Chanel 8 Note On - Duracao: 689340 Nota: C1 Vol.: 66
Chanel 3 Note Off - Duracao: 689400 Nota: C1 Vol.: 70
Chanel 3 Note On - Duracao: 689400 Nota: C1 Vol.: 80
Chanel 6 Note Off - Duracao: 689640 Nota: C1 Vol.: 77
Chanel 6 Note On - Duracao: 689640 Nota: C1 Vol.: 75
Chanel 4 Note Off - Duracao: 689700 Nota: C1 Vol.: 46
Chanel 4 Note On - Duracao: 689700 Nota: C1 Vol.: 46
Chanel 8 Note Off - Duracao: 689820 Nota: C1 Vol.: 66
Chanel 8 Note On - Duracao: 689820 Nota: C1 Vol.: 68
Chanel 3 Note Off - Duracao: 689880 Nota: C1 Vol.: 80
Chanel 3 Note On - Duracao: 689880 Nota: C1 Vol.: 83
Chanel 10 Note Off - Duracao: 689940 Nota: C1 Vol.: 66
Chanel 10 Note On - Duracao: 689940 Nota: C1 Vol.: 65
Chanel 7 Note Off - Duracao: 690240 Nota: C1 Vol.: 44
Chanel 7 Note On - Duracao: 690240 Nota: C1 Vol.: 44
Chanel 8 Note Off - Duracao: 690300 Nota: C1 Vol.: 68
Chanel 8 Note On - Duracao: 690300 Nota: C1 Vol.: 65
Chanel 3 Note Off - Duracao: 690360 Nota: C1 Vol.: 83
Chanel 3 Note On - Duracao: 690360 Nota: C1 Vol.: 91
Chanel 9 Note Off - Duracao: 690360 Nota: C1 Vol.: 57
Chanel 9 Note On - Duracao: 690360 Nota: C1 Vol.: 62
Chanel 3 Note Off - Duracao: 690600 Nota: C1 Vol.: 91
Chanel 3 Note On - Duracao: 690600 Nota: C1 Vol.: 55
Chanel 6 Note Off - Duracao: 690600 Nota: C1 Vol.: 75
Chanel 6 Note On - Duracao: 690600 Nota: C1 Vol.: 83
Chanel 8 Note Off - Duracao: 690780 Nota: C1 Vol.: 65
Chanel 8 Note On - Duracao: 690780 Nota: C1 Vol.: 65
Chanel 5 Note Off - Duracao: 690840 Nota: C1 Vol.: 68
Chanel 5 Note On - Duracao: 690840 Nota: C1 Vol.: 62
Chanel 8 Note Off - Duracao: 691020 Nota: C1 Vol.: 65
Chanel 8 Note On - Duracao: 691020 Nota: C1 Vol.: 67
Chanel 6 Note Off - Duracao: 691080 Nota: C1 Vol.: 83
Chanel 6 Note On - Duracao: 691080 Nota: C1 Vol.: 83
Chanel 7 Note Off - Duracao: 691200 Nota: C1 Vol.: 44
Chanel 7 Note On - Duracao: 691200 Nota: C1 Vol.: 43
Chanel 8 Note Off - Duracao: 691500 Nota: C1 Vol.: 67
Chanel 8 Note On - Duracao: 691500 Nota: C1 Vol.: 59
Chanel 2 Note Off - Duracao: 691560 Nota: C1 Vol.: 44
Chanel 2 Note On - Duracao: 691560 Nota: C1 Vol.: 45
Chanel 6 Note Off - Duracao: 691560 Nota: C1 Vol.: 83
Chanel 6 Note On - Duracao: 691560 Nota: C1 Vol.: 56
Chanel 4 Note Off - Duracao: 691620 Nota: C1 Vol.: 46
Chanel 4 Note On - Duracao: 691620 Nota: C1 Vol.: 57
Chanel 10 Note Off - Duracao: 691860 Nota: C1 Vol.: 65
Chanel 10 Note On - Duracao: 691860 Nota: C1 Vol.: 71
Chanel 7 Note Off - Duracao: 692160 Nota: C1 Vol.: 43
Chanel 7 Note On - Duracao: 692160 Nota: C1 Vol.: 42
Chanel 9 Note Off - Duracao: 692280 Nota: C1 Vol.: 62
Chanel 9 Note On - Duracao: 692280 Nota: C1 Vol.: 69
Chanel 8 Note Off - Duracao: 692460 Nota: C1 Vol.: 59
Chanel 8 Note On - Duracao: 692460 Nota: C1 Vol.: 82
Chanel 3 Note Off - Duracao: 692520 Nota: C1 Vol.: 55
Chanel 3 Note On - Duracao: 692520 Nota: C1 Vol.: 52
Chanel 5 Note Off - Duracao: 692760 Nota: C1 Vol.: 62
Chanel 5 Note On - Duracao: 692760 Nota: C1 Vol.: 62
Chanel 10 Note Off - Duracao: 692820 Nota: C1 Vol.: 71
Chanel 10 Note On - Duracao: 692820 Nota: C1 Vol.: 66
Chanel 8 Note Off - Duracao: 692940 Nota: C1 Vol.: 82
Chanel 8 Note On - Duracao: 692940 Nota: C1 Vol.: 80
Chanel 7 Note Off - Duracao: 693120 Nota: C1 Vol.: 42
Chanel 7 Note On - Duracao: 693120 Nota: C1 Vol.: 43
Chanel 9 Note Off - Duracao: 693240 Nota: C1 Vol.: 69
Chanel 9 Note On - Duracao: 693240 Nota: C1 Vol.: 74
Chanel 6 Note Off - Duracao: 693480 Nota: C1 Vol.: 56
Chanel 6 Note On - Duracao: 693480 Nota: C1 Vol.: 54
Chanel 4 Note Off - Duracao: 693540 Nota: C1 Vol.: 57
Chanel 4 Note On - Duracao: 693540 Nota: C1 Vol.: 85
Chanel 4 Note Off - Duracao: 693780 Nota: C1 Vol.: 85
Chanel 4 Note On - Duracao: 693780 Nota: C1 Vol.: 91
Chanel 4 Note Off - Duracao: 693900 Nota: C1 Vol.: 91
Chanel 4 Note On - Duracao: 693900 Nota: C1 Vol.: 70
Chanel 8 Note Off - Duracao: 693900 Nota: C1 Vol.: 80
Chanel 8 Note On - Duracao: 693900 Nota: C1 Vol.: 74
Chanel 7 Note Off - Duracao: 694080 Nota: C1 Vol.: 43
Chanel 7 Note On - Duracao: 694080 Nota: C1 Vol.: 40
Chanel 9 Note Off - Duracao: 694200 Nota: C1 Vol.: 74
Chanel 9 Note On - Duracao: 694200 Nota: C1 Vol.: 73
Chanel 4 Note Off - Duracao: 694380 Nota: C1 Vol.: 70
Chanel 4 Note On - Duracao: 694380 Nota: C1 Vol.: 85
Chanel 3 Note Off - Duracao: 694440 Nota: C1 Vol.: 52
Chanel 3 Note On - Duracao: 694440 Nota: C1 Vol.: 48
Chanel 6 Note Off - Duracao: 694440 Nota: C1 Vol.: 54
Chanel 6 Note On - Duracao: 694440 Nota: C1 Vol.: 46
Chanel 4 Note Off - Duracao: 694620 Nota: C1 Vol.: 85
Chanel 4 Note On - Duracao: 694620 Nota: C1 Vol.: 99
Chanel 4 Note Off - Duracao: 694680 Nota: C1 Vol.: 99
Chanel 4 Note On - Duracao: 694680 Nota: C1 Vol.: 94
Chanel 5 Note Off - Duracao: 694680 Nota: C1 Vol.: 62
Chanel 5 Note On - Duracao: 694680 Nota: C1 Vol.: 71
Chanel 10 Note Off - Duracao: 694740 Nota: C1 Vol.: 66
Chanel 10 Note On - Duracao: 694740 Nota: C1 Vol.: 68
Chanel 4 Note Off - Duracao: 694800 Nota: C1 Vol.: 94
Chanel 4 Note On - Duracao: 694800 Nota: C1 Vol.: 89
Chanel 4 Note Off - Duracao: 694920 Nota: C1 Vol.: 89
Chanel 4 Note On - Duracao: 694920 Nota: C1 Vol.: 87
Chanel 4 Note Off - Duracao: 695040 Nota: C1 Vol.: 87
Chanel 4 Note On - Duracao: 695040 Nota: C1 Vol.: 91
Chanel 7 Note Off - Duracao: 695040 Nota: C1 Vol.: 40
Chanel 7 Note On - Duracao: 695040 Nota: C1 Vol.: 42
Chanel 4 Note Off - Duracao: 695160 Nota: C1 Vol.: 91
Chanel 4 Note On - Duracao: 695160 Nota: C1 Vol.: 51
Chanel 9 Note Off - Duracao: 695160 Nota: C1 Vol.: 73
Chanel 9 Note On - Duracao: 695160 Nota: C1 Vol.: 67
Chanel 2 Note Off - Duracao: 695400 Nota: C1 Vol.: 45
Chanel 2 Note On - Duracao: 695400 Nota: C1 Vol.: 45
Chanel 6 Note Off - Duracao: 695400 Nota: C1 Vol.: 46
Chanel 6 Note On - Duracao: 695400 Nota: C1 Vol.: 40
Chanel 10 Note Off - Duracao: 695700 Nota: C1 Vol.: 68
Chanel 10 Note On - Duracao: 695700 Nota: C1 Vol.: 65
Chanel 8 Note Off - Duracao: 695820 Nota: C1 Vol.: 74
Chanel 8 Note On - Duracao: 695820 Nota: C1 Vol.: 79
Chanel 7 Note Off - Duracao: 696000 Nota: C1 Vol.: 42
Chanel 7 Note On - Duracao: 696000 Nota: C1 Vol.: 42
Chanel 9 Note Off - Duracao: 696120 Nota: C1 Vol.: 67
Chanel 9 Note On - Duracao: 696120 Nota: C1 Vol.: 69
Chanel 6 Note Off - Duracao: 696360 Nota: C1 Vol.: 40
Chanel 6 Note On - Duracao: 696360 Nota: C1 Vol.: 44
Chanel 5 Note Off - Duracao: 696600 Nota: C1 Vol.: 71
Chanel 5 Note On - Duracao: 696600 Nota: C1 Vol.: 71
Chanel 8 Note Off - Duracao: 696780 Nota: C1 Vol.: 79
Chanel 8 Note On - Duracao: 696780 Nota: C1 Vol.: 73
Chanel 7 Note Off - Duracao: 696960 Nota: C1 Vol.: 42
Chanel 7 Note On - Duracao: 696960 Nota: C1 Vol.: 43
Chanel 4 Note Off - Duracao: 697080 Nota: C1 Vol.: 51
Chanel 4 Note On - Duracao: 697080 Nota: C1 Vol.: 58
Chanel 9 Note Off - Duracao: 697080 Nota: C1 Vol.: 69
Chanel 9 Note On - Duracao: 697080 Nota: C1 Vol.: 68
Chanel 6 Note Off - Duracao: 697320 Nota: C1 Vol.: 44
Chanel 6 Note On - Duracao: 697320 Nota: C1 Vol.: 40
Chanel 10 Note Off - Duracao: 697620 Nota: C1 Vol.: 65
Chanel 10 Note On - Duracao: 697620 Nota: C1 Vol.: 72
Chanel 7 Note Off - Duracao: 697920 Nota: C1 Vol.: 43
Chanel 7 Note On - Duracao: 697920 Nota: C1 Vol.: 43
Chanel 9 Note Off - Duracao: 698040 Nota: C1 Vol.: 68
Chanel 9 Note On - Duracao: 698040 Nota: C1 Vol.: 71
Chanel 3 Note Off - Duracao: 698280 Nota: C1 Vol.: 48
Chanel 3 Note On - Duracao: 698280 Nota: C1 Vol.: 54
Chanel 6 Note Off - Duracao: 698280 Nota: C1 Vol.: 40
Chanel 6 Note On - Duracao: 698280 Nota: C1 Vol.: 48
Chanel 5 Note Off - Duracao: 698520 Nota: C1 Vol.: 71
Chanel 5 Note On - Duracao: 698520 Nota: C1 Vol.: 73
Chanel 8 Note Off - Duracao: 698700 Nota: C1 Vol.: 73
Chanel 8 Note On - Duracao: 698700 Nota: C1 Vol.: 82
Chanel 6 Note Off - Duracao: 698760 Nota: C1 Vol.: 48
Chanel 6 Note On - Duracao: 698760 Nota: C1 Vol.: 45
Chanel 7 Note Off - Duracao: 698880 Nota: C1 Vol.: 43
Chanel 7 Note On - Duracao: 698880 Nota: C1 Vol.: 41
Chanel 4 Note Off - Duracao: 699000 Nota: C1 Vol.: 58
Chanel 4 Note On - Duracao: 699000 Nota: C1 Vol.: 52
Chanel 9 Note Off - Duracao: 699000 Nota: C1 Vol.: 71
Chanel 9 Note On - Duracao: 699000 Nota: C1 Vol.: 64
Chanel 2 Note Off - Duracao: 699240 Nota: C1 Vol.: 45
Chanel 2 Note On - Duracao: 699240 Nota: C1 Vol.: 44
Chanel 5 Note Off - Duracao: 699480 Nota: C1 Vol.: 73
Chanel 5 Note On - Duracao: 699480 Nota: C1 Vol.: 70
Chanel 10 Note Off - Duracao: 699540 Nota: C1 Vol.: 72
Chanel 10 Note On - Duracao: 699540 Nota: C1 Vol.: 79
Chanel 8 Note Off - Duracao: 699660 Nota: C1 Vol.: 82
Chanel 8 Note On - Duracao: 699660 Nota: C1 Vol.: 68
Chanel 6 Note Off - Duracao: 699720 Nota: C1 Vol.: 45
Chanel 6 Note On - Duracao: 699720 Nota: C1 Vol.: 43
Chanel 7 Note Off - Duracao: 699840 Nota: C1 Vol.: 41
Chanel 7 Note On - Duracao: 699840 Nota: C1 Vol.: 44
Chanel 3 Note Off - Duracao: 700200 Nota: C1 Vol.: 54
Chanel 3 Note On - Duracao: 700200 Nota: C1 Vol.: 67
Chanel 5 Note Off - Duracao: 700440 Nota: C1 Vol.: 70
Chanel 5 Note On - Duracao: 700440 Nota: C1 Vol.: 57
Chanel 10 Note Off - Duracao: 700500 Nota: C1 Vol.: 79
Chanel 10 Note On - Duracao: 700500 Nota: C1 Vol.: 72
Chanel 6 Note Off - Duracao: 700680 Nota: C1 Vol.: 43
Chanel 6 Note On - Duracao: 700680 Nota: C1 Vol.: 41
Chanel 7 Note Off - Duracao: 700800 Nota: C1 Vol.: 44
Chanel 7 Note On - Duracao: 700800 Nota: C1 Vol.: 45
Chanel 4 Note Off - Duracao: 700920 Nota: C1 Vol.: 52
Chanel 4 Note On - Duracao: 700920 Nota: C1 Vol.: 52
Chanel 9 Note Off - Duracao: 700920 Nota: C1 Vol.: 64
Chanel 9 Note On - Duracao: 700920 Nota: C1 Vol.: 60
Chanel 3 Note Off - Duracao: 701160 Nota: C1 Vol.: 67
Chanel 3 Note On - Duracao: 701160 Nota: C1 Vol.: 71
Chanel 8 Note Off - Duracao: 701580 Nota: C1 Vol.: 68
Chanel 8 Note On - Duracao: 701580 Nota: C1 Vol.: 66
Chanel 6 Note Off - Duracao: 701640 Nota: C1 Vol.: 41
Chanel 6 Note On - Duracao: 701640 Nota: C1 Vol.: 42
Chanel 7 Note Off - Duracao: 701760 Nota: C1 Vol.: 45
Chanel 7 Note On - Duracao: 701760 Nota: C1 Vol.: 41
Chanel 3 Note Off - Duracao: 702120 Nota: C1 Vol.: 71
Chanel 3 Note On - Duracao: 702120 Nota: C1 Vol.: 75
Chanel 5 Note Off - Duracao: 702360 Nota: C1 Vol.: 57
Chanel 5 Note On - Duracao: 702360 Nota: C1 Vol.: 68
Chanel 10 Note Off - Duracao: 702420 Nota: C1 Vol.: 72
Chanel 10 Note On - Duracao: 702420 Nota: C1 Vol.: 75
Chanel 6 Note Off - Duracao: 702600 Nota: C1 Vol.: 42
Chanel 6 Note On - Duracao: 702600 Nota: C1 Vol.: 42
Chanel 4 Note Off - Duracao: 702840 Nota: C1 Vol.: 52
Chanel 4 Note On - Duracao: 702840 Nota: C1 Vol.: 64
Chanel 5 Note Off - Duracao: 702840 Nota: C1 Vol.: 68
Chanel 5 Note On - Duracao: 702840 Nota: C1 Vol.: 74
Chanel 2 Note Off - Duracao: 703080 Nota: C1 Vol.: 44
Chanel 2 Note On - Duracao: 703080 Nota: C1 Vol.: 54
Chanel 3 Note Off - Duracao: 703080 Nota: C1 Vol.: 75
Chanel 3 Note On - Duracao: 703080 Nota: C1 Vol.: 85
Chanel 5 Note Off - Duracao: 703320 Nota: C1 Vol.: 74
Chanel 5 Note On - Duracao: 703320 Nota: C1 Vol.: 73
Chanel 10 Note Off - Duracao: 703380 Nota: C1 Vol.: 75
Chanel 10 Note On - Duracao: 703380 Nota: C1 Vol.: 79
Chanel 8 Note Off - Duracao: 703500 Nota: C1 Vol.: 66
Chanel 8 Note On - Duracao: 703500 Nota: C1 Vol.: 78
Chanel 3 Note Off - Duracao: 703560 Nota: C1 Vol.: 85
Chanel 3 Note On - Duracao: 703560 Nota: C1 Vol.: 87
Chanel 6 Note Off - Duracao: 703560 Nota: C1 Vol.: 42
Chanel 6 Note On - Duracao: 703560 Nota: C1 Vol.: 41
Chanel 7 Note Off - Duracao: 703680 Nota: C1 Vol.: 41
Chanel 7 Note On - Duracao: 703680 Nota: C1 Vol.: 43
Chanel 3 Note Off - Duracao: 703800 Nota: C1 Vol.: 87
Chanel 3 Note On - Duracao: 703800 Nota: C1 Vol.: 87
Chanel 4 Note Off - Duracao: 703800 Nota: C1 Vol.: 64
Chanel 4 Note On - Duracao: 703800 Nota: C1 Vol.: 61
Chanel 5 Note Off - Duracao: 703800 Nota: C1 Vol.: 73
Chanel 5 Note On - Duracao: 703800 Nota: C1 Vol.: 92
Chanel 5 Note Off - Duracao: 703920 Nota: C1 Vol.: 92
Chanel 5 Note On - Duracao: 703920 Nota: C1 Vol.: 74
Chanel 3 Note Off - Duracao: 704040 Nota: C1 Vol.: 87
Chanel 3 Note On - Duracao: 704040 Nota: C1 Vol.: 82
Chanel 10 Note Off - Duracao: 704340 Nota: C1 Vol.: 79
Chanel 10 Note On - Duracao: 704340 Nota: C1 Vol.: 75
Chanel 5 Note Off - Duracao: 704400 Nota: C1 Vol.: 74
Chanel 5 Note On - Duracao: 704400 Nota: C1 Vol.: 87
Chanel 8 Note Off - Duracao: 704460 Nota: C1 Vol.: 78
Chanel 8 Note On - Duracao: 704460 Nota: C1 Vol.: 78
Chanel 3 Note Off - Duracao: 704520 Nota: C1 Vol.: 82
Chanel 3 Note On - Duracao: 704520 Nota: C1 Vol.: 81
Chanel 5 Note Off - Duracao: 704520 Nota: C1 Vol.: 87
Chanel 5 Note On - Duracao: 704520 Nota: C1 Vol.: 90
Chanel 6 Note Off - Duracao: 704520 Nota: C1 Vol.: 41
Chanel 6 Note On - Duracao: 704520 Nota: C1 Vol.: 40
Chanel 5 Note Off - Duracao: 704640 Nota: C1 Vol.: 90
Chanel 5 Note On - Duracao: 704640 Nota: C1 Vol.: 67
Chanel 4 Note Off - Duracao: 704760 Nota: C1 Vol.: 61
Chanel 4 Note On - Duracao: 704760 Nota: C1 Vol.: 44
Chanel 9 Note Off - Duracao: 704760 Nota: C1 Vol.: 60
Chanel 9 Note On - Duracao: 704760 Nota: C1 Vol.: 82
Chanel 3 Note Off - Duracao: 705000 Nota: C1 Vol.: 81
Chanel 3 Note On - Duracao: 705000 Nota: C1 Vol.: 80
Chanel 5 Note Off - Duracao: 705120 Nota: C1 Vol.: 67
Chanel 5 Note On - Duracao: 705120 Nota: C1 Vol.: 50
Chanel 10 Note Off - Duracao: 705300 Nota: C1 Vol.: 75
Chanel 10 Note On - Duracao: 705300 Nota: C1 Vol.: 76
Chanel 8 Note Off - Duracao: 705420 Nota: C1 Vol.: 78
Chanel 8 Note On - Duracao: 705420 Nota: C1 Vol.: 91
Chanel 3 Note Off - Duracao: 705480 Nota: C1 Vol.: 80
Chanel 3 Note On - Duracao: 705480 Nota: C1 Vol.: 77
Chanel 6 Note Off - Duracao: 705480 Nota: C1 Vol.: 40
Chanel 6 Note On - Duracao: 705480 Nota: C1 Vol.: 43
Chanel 7 Note Off - Duracao: 705600 Nota: C1 Vol.: 43
Chanel 7 Note On - Duracao: 705600 Nota: C1 Vol.: 42
Chanel 9 Note Off - Duracao: 705720 Nota: C1 Vol.: 82
Chanel 9 Note On - Duracao: 705720 Nota: C1 Vol.: 87
Chanel 8 Note Off - Duracao: 705900 Nota: C1 Vol.: 91
Chanel 8 Note On - Duracao: 705900 Nota: C1 Vol.: 80
Chanel 6 Note Off - Duracao: 705960 Nota: C1 Vol.: 43
Chanel 6 Note On - Duracao: 705960 Nota: C1 Vol.: 47
Chanel 8 Note Off - Duracao: 706140 Nota: C1 Vol.: 80
Chanel 8 Note On - Duracao: 706140 Nota: C1 Vol.: 79
Chanel 10 Note Off - Duracao: 706260 Nota: C1 Vol.: 76
Chanel 10 Note On - Duracao: 706260 Nota: C1 Vol.: 75
Chanel 8 Note Off - Duracao: 706380 Nota: C1 Vol.: 79
Chanel 8 Note On - Duracao: 706380 Nota: C1 Vol.: 79
Chanel 3 Note Off - Duracao: 706440 Nota: C1 Vol.: 77
Chanel 3 Note On - Duracao: 706440 Nota: C1 Vol.: 68
Chanel 6 Note Off - Duracao: 706440 Nota: C1 Vol.: 47
Chanel 6 Note On - Duracao: 706440 Nota: C1 Vol.: 49
Chanel 8 Note Off - Duracao: 706620 Nota: C1 Vol.: 79
Chanel 8 Note On - Duracao: 706620 Nota: C1 Vol.: 82
Chanel 9 Note Off - Duracao: 706680 Nota: C1 Vol.: 87
Chanel 9 Note On - Duracao: 706680 Nota: C1 Vol.: 88
Chanel 8 Note Off - Duracao: 706860 Nota: C1 Vol.: 82
Chanel 8 Note On - Duracao: 706860 Nota: C1 Vol.: 77
Chanel 2 Note Off - Duracao: 706920 Nota: C1 Vol.: 54
Chanel 2 Note On - Duracao: 706920 Nota: C1 Vol.: 79
Chanel 6 Note Off - Duracao: 706920 Nota: C1 Vol.: 49
Chanel 6 Note On - Duracao: 706920 Nota: C1 Vol.: 48
Chanel 5 Note Off - Duracao: 707040 Nota: C1 Vol.: 50
Chanel 5 Note On - Duracao: 707040 Nota: C1 Vol.: 51
Chanel 10 Note Off - Duracao: 707220 Nota: C1 Vol.: 75
Chanel 10 Note On - Duracao: 707220 Nota: C1 Vol.: 70
Chanel 8 Note Off - Duracao: 707340 Nota: C1 Vol.: 77
Chanel 8 Note On - Duracao: 707340 Nota: C1 Vol.: 76
Chanel 3 Note Off - Duracao: 707400 Nota: C1 Vol.: 68
Chanel 3 Note On - Duracao: 707400 Nota: C1 Vol.: 76
Chanel 6 Note Off - Duracao: 707400 Nota: C1 Vol.: 48
Chanel 6 Note On - Duracao: 707400 Nota: C1 Vol.: 47
Chanel 7 Note Off - Duracao: 707520 Nota: C1 Vol.: 42
Chanel 7 Note On - Duracao: 707520 Nota: C1 Vol.: 41
Chanel 9 Note Off - Duracao: 707640 Nota: C1 Vol.: 88
Chanel 9 Note On - Duracao: 707640 Nota: C1 Vol.: 82
Chanel 2 Note Off - Duracao: 707880 Nota: C1 Vol.: 79
Chanel 2 Note On - Duracao: 707880 Nota: C1 Vol.: 79
Chanel 6 Note Off - Duracao: 707880 Nota: C1 Vol.: 47
Chanel 6 Note On - Duracao: 707880 Nota: C1 Vol.: 48
Chanel 10 Note Off - Duracao: 708180 Nota: C1 Vol.: 70
Chanel 10 Note On - Duracao: 708180 Nota: C1 Vol.: 75
Chanel 8 Note Off - Duracao: 708300 Nota: C1 Vol.: 76
Chanel 8 Note On - Duracao: 708300 Nota: C1 Vol.: 81
Chanel 3 Note Off - Duracao: 708360 Nota: C1 Vol.: 76
Chanel 3 Note On - Duracao: 708360 Nota: C1 Vol.: 71
Chanel 6 Note Off - Duracao: 708360 Nota: C1 Vol.: 48
Chanel 6 Note On - Duracao: 708360 Nota: C1 Vol.: 49
Chanel 4 Note Off - Duracao: 708600 Nota: C1 Vol.: 44
Chanel 4 Note On - Duracao: 708600 Nota: C1 Vol.: 48
Chanel 2 Note Off - Duracao: 708840 Nota: C1 Vol.: 79
Chanel 2 Note On - Duracao: 708840 Nota: C1 Vol.: 86
Chanel 6 Note Off - Duracao: 708840 Nota: C1 Vol.: 49
Chanel 6 Note On - Duracao: 708840 Nota: C1 Vol.: 48
Chanel 5 Note Off - Duracao: 708960 Nota: C1 Vol.: 51
Chanel 5 Note On - Duracao: 708960 Nota: C1 Vol.: 64
Chanel 10 Note Off - Duracao: 709140 Nota: C1 Vol.: 75
Chanel 10 Note On - Duracao: 709140 Nota: C1 Vol.: 81
Chanel 3 Note Off - Duracao: 709320 Nota: C1 Vol.: 71
Chanel 3 Note On - Duracao: 709320 Nota: C1 Vol.: 76
Chanel 6 Note Off - Duracao: 709320 Nota: C1 Vol.: 48
Chanel 6 Note On - Duracao: 709320 Nota: C1 Vol.: 50
Chanel 7 Note Off - Duracao: 709440 Nota: C1 Vol.: 41
Chanel 7 Note On - Duracao: 709440 Nota: C1 Vol.: 43
Chanel 9 Note Off - Duracao: 709560 Nota: C1 Vol.: 82
Chanel 9 Note On - Duracao: 709560 Nota: C1 Vol.: 79
Chanel 10 Note Off - Duracao: 709620 Nota: C1 Vol.: 81
Chanel 10 Note On - Duracao: 709620 Nota: C1 Vol.: 88
Chanel 10 Note Off - Duracao: 709740 Nota: C1 Vol.: 88
Chanel 10 Note On - Duracao: 709740 Nota: C1 Vol.: 92
Chanel 2 Note Off - Duracao: 709800 Nota: C1 Vol.: 86
Chanel 2 Note On - Duracao: 709800 Nota: C1 Vol.: 90
Chanel 6 Note Off - Duracao: 709800 Nota: C1 Vol.: 50
Chanel 6 Note On - Duracao: 709800 Nota: C1 Vol.: 49
Chanel 10 Note Off - Duracao: 709860 Nota: C1 Vol.: 92
Chanel 10 Note On - Duracao: 709860 Nota: C1 Vol.: 90
Chanel 10 Note Off - Duracao: 709980 Nota: C1 Vol.: 90
Chanel 10 Note On - Duracao: 709980 Nota: C1 Vol.: 81
Chanel 8 Note Off - Duracao: 710220 Nota: C1 Vol.: 81
Chanel 8 Note On - Duracao: 710220 Nota: C1 Vol.: 86
Chanel 10 Note Off - Duracao: 710220 Nota: C1 Vol.: 81
Chanel 10 Note On - Duracao: 710220 Nota: C1 Vol.: 72
Chanel 3 Note Off - Duracao: 710280 Nota: C1 Vol.: 76
Chanel 3 Note On - Duracao: 710280 Nota: C1 Vol.: 80
Chanel 6 Note Off - Duracao: 710280 Nota: C1 Vol.: 49
Chanel 6 Note On - Duracao: 710280 Nota: C1 Vol.: 49
Chanel 7 Note Off - Duracao: 710400 Nota: C1 Vol.: 43
Chanel 7 Note On - Duracao: 710400 Nota: C1 Vol.: 40
Chanel 10 Note Off - Duracao: 710460 Nota: C1 Vol.: 72
Chanel 10 Note On - Duracao: 710460 Nota: C1 Vol.: 68
Chanel 2 Note Off - Duracao: 710760 Nota: C1 Vol.: 90
Chanel 2 Note On - Duracao: 710760 Nota: C1 Vol.: 89
Chanel 3 Note Off - Duracao: 710760 Nota: C1 Vol.: 80
Chanel 3 Note On - Duracao: 710760 Nota: C1 Vol.: 69
Chanel 6 Note Off - Duracao: 710760 Nota: C1 Vol.: 49
Chanel 6 Note On - Duracao: 710760 Nota: C1 Vol.: 49
Chanel 5 Note Off - Duracao: 710880 Nota: C1 Vol.: 64
Chanel 5 Note On - Duracao: 710880 Nota: C1 Vol.: 60
Chanel 10 Note Off - Duracao: 710940 Nota: C1 Vol.: 68
Chanel 10 Note On - Duracao: 710940 Nota: C1 Vol.: 64
Chanel 8 Note Off - Duracao: 711180 Nota: C1 Vol.: 86
Chanel 8 Note On - Duracao: 711180 Nota: C1 Vol.: 69
Chanel 10 Note Off - Duracao: 711420 Nota: C1 Vol.: 64
Chanel 10 Note On - Duracao: 711420 Nota: C1 Vol.: 59
Chanel 9 Note Off - Duracao: 711480 Nota: C1 Vol.: 79
Chanel 9 Note On - Duracao: 711480 Nota: C1 Vol.: 75
Chanel 2 Note Off - Duracao: 711720 Nota: C1 Vol.: 89
Chanel 2 Note On - Duracao: 711720 Nota: C1 Vol.: 90
Chanel 3 Note Off - Duracao: 711720 Nota: C1 Vol.: 69
Chanel 3 Note On - Duracao: 711720 Nota: C1 Vol.: 62
Chanel 6 Note Off - Duracao: 711720 Nota: C1 Vol.: 49
Chanel 6 Note On - Duracao: 711720 Nota: C1 Vol.: 49
Chanel 6 Note Off - Duracao: 712200 Nota: C1 Vol.: 49
Chanel 6 Note On - Duracao: 712200 Nota: C1 Vol.: 49
Chanel 7 Note Off - Duracao: 712320 Nota: C1 Vol.: 40
Chanel 7 Note On - Duracao: 712320 Nota: C1 Vol.: 40
Chanel 10 Note Off - Duracao: 712380 Nota: C1 Vol.: 59
Chanel 10 Note On - Duracao: 712380 Nota: C1 Vol.: 63
Chanel 4 Note Off - Duracao: 712440 Nota: C1 Vol.: 48
Chanel 4 Note On - Duracao: 712440 Nota: C1 Vol.: 43
Chanel 2 Note Off - Duracao: 712680 Nota: C1 Vol.: 90
Chanel 2 Note On - Duracao: 712680 Nota: C1 Vol.: 90
Chanel 6 Note Off - Duracao: 712680 Nota: C1 Vol.: 49
Chanel 6 Note On - Duracao: 712680 Nota: C1 Vol.: 48
Chanel 5 Note Off - Duracao: 712800 Nota: C1 Vol.: 60
Chanel 5 Note On - Duracao: 712800 Nota: C1 Vol.: 58
Chanel 8 Note Off - Duracao: 713100 Nota: C1 Vol.: 69
Chanel 8 Note On - Duracao: 713100 Nota: C1 Vol.: 70
Chanel 6 Note Off - Duracao: 713160 Nota: C1 Vol.: 48
Chanel 6 Note On - Duracao: 713160 Nota: C1 Vol.: 49
Chanel 10 Note Off - Duracao: 713340 Nota: C1 Vol.: 63
Chanel 10 Note On - Duracao: 713340 Nota: C1 Vol.: 63
Chanel 9 Note Off - Duracao: 713400 Nota: C1 Vol.: 75
Chanel 9 Note On - Duracao: 713400 Nota: C1 Vol.: 75
Chanel 2 Note Off - Duracao: 713640 Nota: C1 Vol.: 90
Chanel 2 Note On - Duracao: 713640 Nota: C1 Vol.: 91
Chanel 3 Note Off - Duracao: 713640 Nota: C1 Vol.: 62
Chanel 3 Note On - Duracao: 713640 Nota: C1 Vol.: 69
Chanel 6 Note Off - Duracao: 713640 Nota: C1 Vol.: 49
Chanel 6 Note On - Duracao: 713640 Nota: C1 Vol.: 47
Chanel 7 Note Off - Duracao: 714240 Nota: C1 Vol.: 40
Chanel 7 Note On - Duracao: 714240 Nota: C1 Vol.: 42
Chanel 10 Note Off - Duracao: 714300 Nota: C1 Vol.: 63
Chanel 10 Note On - Duracao: 714300 Nota: C1 Vol.: 67
Chanel 2 Note Off - Duracao: 714600 Nota: C1 Vol.: 91
Chanel 2 Note On - Duracao: 714600 Nota: C1 Vol.: 91
Chanel 3 Note Off - Duracao: 714600 Nota: C1 Vol.: 69
Chanel 3 Note On - Duracao: 714600 Nota: C1 Vol.: 66
Chanel 6 Note Off - Duracao: 714600 Nota: C1 Vol.: 47
Chanel 6 Note On - Duracao: 714600 Nota: C1 Vol.: 44
Chanel 8 Note Off - Duracao: 715020 Nota: C1 Vol.: 70
Chanel 8 Note On - Duracao: 715020 Nota: C1 Vol.: 49
Chanel 7 Note Off - Duracao: 715200 Nota: C1 Vol.: 42
Chanel 7 Note On - Duracao: 715200 Nota: C1 Vol.: 43
Chanel 2 Note Off - Duracao: 715560 Nota: C1 Vol.: 91
Chanel 2 Note On - Duracao: 715560 Nota: C1 Vol.: 91
Chanel 7 Note Off - Duracao: 716160 Nota: C1 Vol.: 43
Chanel 7 Note On - Duracao: 716160 Nota: C1 Vol.: 49
Chanel 10 Note Off - Duracao: 716220 Nota: C1 Vol.: 67
Chanel 10 Note On - Duracao: 716220 Nota: C1 Vol.: 66
Chanel 4 Note Off - Duracao: 716280 Nota: C1 Vol.: 43
Chanel 4 Note On - Duracao: 716280 Nota: C1 Vol.: 80
Chanel 2 Note Off - Duracao: 716520 Nota: C1 Vol.: 91
Chanel 2 Note On - Duracao: 716520 Nota: C1 Vol.: 90
Chanel 3 Note Off - Duracao: 716520 Nota: C1 Vol.: 66
Chanel 3 Note On - Duracao: 716520 Nota: C1 Vol.: 57
Chanel 4 Note Off - Duracao: 716520 Nota: C1 Vol.: 80
Chanel 4 Note On - Duracao: 716520 Nota: C1 Vol.: 90
Chanel 6 Note Off - Duracao: 716520 Nota: C1 Vol.: 44
Chanel 6 Note On - Duracao: 716520 Nota: C1 Vol.: 53
Chanel 4 Note Off - Duracao: 716640 Nota: C1 Vol.: 90
Chanel 4 Note On - Duracao: 716640 Nota: C1 Vol.: 92
Chanel 5 Note Off - Duracao: 716640 Nota: C1 Vol.: 58
Chanel 5 Note On - Duracao: 716640 Nota: C1 Vol.: 67
Chanel 7 Note Off - Duracao: 716640 Nota: C1 Vol.: 49
Chanel 7 Note On - Duracao: 716640 Nota: C1 Vol.: 50
Chanel 4 Note Off - Duracao: 716760 Nota: C1 Vol.: 92
Chanel 4 Note On - Duracao: 716760 Nota: C1 Vol.: 100
Chanel 4 Note Off - Duracao: 716820 Nota: C1 Vol.: 100
Chanel 4 Note On - Duracao: 716820 Nota: C1 Vol.: 100
Chanel 4 Note Off - Duracao: 716880 Nota: C1 Vol.: 100
Chanel 4 Note On - Duracao: 716880 Nota: C1 Vol.: 100
Chanel 4 Note Off - Duracao: 716940 Nota: C1 Vol.: 100
Chanel 4 Note On - Duracao: 716940 Nota: C1 Vol.: 99
Chanel 4 Note Off - Duracao: 717000 Nota: C1 Vol.: 99
Chanel 4 Note On - Duracao: 717000 Nota: C1 Vol.: 100
Chanel 4 Note Off - Duracao: 717060 Nota: C1 Vol.: 100
Chanel 4 Note On - Duracao: 717060 Nota: C1 Vol.: 99
Chanel 4 Note Off - Duracao: 717120 Nota: C1 Vol.: 99
Chanel 4 Note On - Duracao: 717120 Nota: C1 Vol.: 60
Chanel 7 Note Off - Duracao: 717120 Nota: C1 Vol.: 50
Chanel 7 Note On - Duracao: 717120 Nota: C1 Vol.: 48
Chanel 9 Note Off - Duracao: 717240 Nota: C1 Vol.: 75
Chanel 9 Note On - Duracao: 717240 Nota: C1 Vol.: 76
Chanel 2 Note Off - Duracao: 717480 Nota: C1 Vol.: 90
Chanel 2 Note On - Duracao: 717480 Nota: C1 Vol.: 89
Chanel 6 Note Off - Duracao: 717480 Nota: C1 Vol.: 53
Chanel 6 Note On - Duracao: 717480 Nota: C1 Vol.: 51
Chanel 7 Note Off - Duracao: 717600 Nota: C1 Vol.: 48
Chanel 7 Note On - Duracao: 717600 Nota: C1 Vol.: 47
Chanel 2 Note Off - Duracao: 717960 Nota: C1 Vol.: 89
Chanel 2 Note On - Duracao: 717960 Nota: C1 Vol.: 70
Chanel 4 Note Off - Duracao: 718080 Nota: C1 Vol.: 60
Chanel 4 Note On - Duracao: 718080 Nota: C1 Vol.: 44
Chanel 7 Note Off - Duracao: 718080 Nota: C1 Vol.: 47
Chanel 7 Note On - Duracao: 718080 Nota: C1 Vol.: 47
Chanel 10 Note Off - Duracao: 718140 Nota: C1 Vol.: 66
Chanel 10 Note On - Duracao: 718140 Nota: C1 Vol.: 76
Chanel 3 Note Off - Duracao: 718440 Nota: C1 Vol.: 57
Chanel 3 Note On - Duracao: 718440 Nota: C1 Vol.: 46
Chanel 6 Note Off - Duracao: 718440 Nota: C1 Vol.: 51
Chanel 6 Note On - Duracao: 718440 Nota: C1 Vol.: 81
Chanel 5 Note Off - Duracao: 718560 Nota: C1 Vol.: 67
Chanel 5 Note On - Duracao: 718560 Nota: C1 Vol.: 77
Chanel 7 Note Off - Duracao: 718560 Nota: C1 Vol.: 47
Chanel 7 Note On - Duracao: 718560 Nota: C1 Vol.: 48
Chanel 6 Note Off - Duracao: 718680 Nota: C1 Vol.: 81
Chanel 6 Note On - Duracao: 718680 Nota: C1 Vol.: 84
Chanel 6 Note Off - Duracao: 718800 Nota: C1 Vol.: 84
Chanel 6 Note On - Duracao: 718800 Nota: C1 Vol.: 85
Chanel 8 Note Off - Duracao: 718860 Nota: C1 Vol.: 49
Chanel 8 Note On - Duracao: 718860 Nota: C1 Vol.: 52
Chanel 6 Note Off - Duracao: 718920 Nota: C1 Vol.: 85
Chanel 6 Note On - Duracao: 718920 Nota: C1 Vol.: 64
Chanel 7 Note Off - Duracao: 719040 Nota: C1 Vol.: 48
Chanel 7 Note On - Duracao: 719040 Nota: C1 Vol.: 44
Chanel 10 Note Off - Duracao: 719100 Nota: C1 Vol.: 76
Chanel 10 Note On - Duracao: 719100 Nota: C1 Vol.: 80
Chanel 9 Note Off - Duracao: 719160 Nota: C1 Vol.: 76
Chanel 9 Note On - Duracao: 719160 Nota: C1 Vol.: 74
Chanel 6 Note Off - Duracao: 719400 Nota: C1 Vol.: 64
Chanel 6 Note On - Duracao: 719400 Nota: C1 Vol.: 44
Chanel 5 Note Off - Duracao: 719520 Nota: C1 Vol.: 77
Chanel 5 Note On - Duracao: 719520 Nota: C1 Vol.: 77
Chanel 2 Note Off - Duracao: 719880 Nota: C1 Vol.: 70
Chanel 2 Note On - Duracao: 719880 Nota: C1 Vol.: 55
Chanel 10 Note Off - Duracao: 720060 Nota: C1 Vol.: 80
Chanel 10 Note On - Duracao: 720060 Nota: C1 Vol.: 86
Chanel 5 Note Off - Duracao: 720480 Nota: C1 Vol.: 77
Chanel 5 Note On - Duracao: 720480 Nota: C1 Vol.: 78
Chanel 10 Note Off - Duracao: 720540 Nota: C1 Vol.: 86
Chanel 10 Note On - Duracao: 720540 Nota: C1 Vol.: 85
Chanel 5 Note Off - Duracao: 720960 Nota: C1 Vol.: 78
Chanel 5 Note On - Duracao: 720960 Nota: C1 Vol.: 51
Chanel 7 Note Off - Duracao: 720960 Nota: C1 Vol.: 44
Chanel 7 Note On - Duracao: 720960 Nota: C1 Vol.: 61
Chanel 10 Note Off - Duracao: 721020 Nota: C1 Vol.: 85
Chanel 10 Note On - Duracao: 721020 Nota: C1 Vol.: 64
Chanel 9 Note Off - Duracao: 721080 Nota: C1 Vol.: 74
Chanel 9 Note On - Duracao: 721080 Nota: C1 Vol.: 73
Chanel 6 Note Off - Duracao: 721320 Nota: C1 Vol.: 44
Chanel 6 Note On - Duracao: 721320 Nota: C1 Vol.: 51
Chanel 4 Note Off - Duracao: 721920 Nota: C1 Vol.: 44
Chanel 4 Note On - Duracao: 721920 Nota: C1 Vol.: 58
Chanel 7 Note Off - Duracao: 721920 Nota: C1 Vol.: 61
Chanel 7 Note On - Duracao: 721920 Nota: C1 Vol.: 74
Chanel 10 Note Off - Duracao: 721980 Nota: C1 Vol.: 64
Chanel 10 Note On - Duracao: 721980 Nota: C1 Vol.: 56
Chanel 3 Note Off - Duracao: 722280 Nota: C1 Vol.: 46
Chanel 3 Note On - Duracao: 722280 Nota: C1 Vol.: 48
Chanel 6 Note Off - Duracao: 722280 Nota: C1 Vol.: 51
Chanel 6 Note On - Duracao: 722280 Nota: C1 Vol.: 42
Chanel 8 Note Off - Duracao: 722700 Nota: C1 Vol.: 52
Chanel 8 Note On - Duracao: 722700 Nota: C1 Vol.: 63
Chanel 4 Note Off - Duracao: 722880 Nota: C1 Vol.: 58
Chanel 4 Note On - Duracao: 722880 Nota: C1 Vol.: 88
Chanel 7 Note Off - Duracao: 722880 Nota: C1 Vol.: 74
Chanel 7 Note On - Duracao: 722880 Nota: C1 Vol.: 78
Chanel 4 Note Off - Duracao: 723000 Nota: C1 Vol.: 88
Chanel 4 Note On - Duracao: 723000 Nota: C1 Vol.: 99
Chanel 9 Note Off - Duracao: 723000 Nota: C1 Vol.: 73
Chanel 9 Note On - Duracao: 723000 Nota: C1 Vol.: 70
Chanel 4 Note Off - Duracao: 723060 Nota: C1 Vol.: 99
Chanel 4 Note On - Duracao: 723060 Nota: C1 Vol.: 99
Chanel 4 Note Off - Duracao: 723120 Nota: C1 Vol.: 99
Chanel 4 Note On - Duracao: 723120 Nota: C1 Vol.: 100
Chanel 4 Note Off - Duracao: 723180 Nota: C1 Vol.: 100
Chanel 4 Note On - Duracao: 723180 Nota: C1 Vol.: 98
Chanel 4 Note Off - Duracao: 723240 Nota: C1 Vol.: 98
Chanel 4 Note On - Duracao: 723240 Nota: C1 Vol.: 98
Chanel 4 Note Off - Duracao: 723300 Nota: C1 Vol.: 98
Chanel 4 Note On - Duracao: 723300 Nota: C1 Vol.: 100
Chanel 4 Note Off - Duracao: 723360 Nota: C1 Vol.: 100
Chanel 4 Note On - Duracao: 723360 Nota: C1 Vol.: 96
Chanel 4 Note Off - Duracao: 723480 Nota: C1 Vol.: 96
Chanel 4 Note On - Duracao: 723480 Nota: C1 Vol.: 76
Chanel 2 Note Off - Duracao: 723720 Nota: C1 Vol.: 55
Chanel 2 Note On - Duracao: 723720 Nota: C1 Vol.: 48
Chanel 7 Note Off - Duracao: 723840 Nota: C1 Vol.: 78
Chanel 7 Note On - Duracao: 723840 Nota: C1 Vol.: 76
Chanel 10 Note Off - Duracao: 723900 Nota: C1 Vol.: 56
Chanel 10 Note On - Duracao: 723900 Nota: C1 Vol.: 59
Chanel 4 Note Off - Duracao: 723960 Nota: C1 Vol.: 76
Chanel 4 Note On - Duracao: 723960 Nota: C1 Vol.: 71
Chanel 6 Note Off - Duracao: 724200 Nota: C1 Vol.: 42
Chanel 6 Note On - Duracao: 724200 Nota: C1 Vol.: 49
Chanel 4 Note Off - Duracao: 724440 Nota: C1 Vol.: 71
Chanel 4 Note On - Duracao: 724440 Nota: C1 Vol.: 75
Chanel 8 Note Off - Duracao: 724620 Nota: C1 Vol.: 63
Chanel 8 Note On - Duracao: 724620 Nota: C1 Vol.: 67
Chanel 5 Note Off - Duracao: 724800 Nota: C1 Vol.: 51
Chanel 5 Note On - Duracao: 724800 Nota: C1 Vol.: 69
Chanel 7 Note Off - Duracao: 724800 Nota: C1 Vol.: 76
Chanel 7 Note On - Duracao: 724800 Nota: C1 Vol.: 69
Chanel 4 Note Off - Duracao: 724920 Nota: C1 Vol.: 75
Chanel 4 Note On - Duracao: 724920 Nota: C1 Vol.: 66
Chanel 9 Note Off - Duracao: 724920 Nota: C1 Vol.: 70
Chanel 9 Note On - Duracao: 724920 Nota: C1 Vol.: 67
Chanel 6 Note Off - Duracao: 725160 Nota: C1 Vol.: 49
Chanel 6 Note On - Duracao: 725160 Nota: C1 Vol.: 50
Chanel 5 Note Off - Duracao: 725760 Nota: C1 Vol.: 69
Chanel 5 Note On - Duracao: 725760 Nota: C1 Vol.: 77
Chanel 7 Note Off - Duracao: 725760 Nota: C1 Vol.: 69
Chanel 7 Note On - Duracao: 725760 Nota: C1 Vol.: 69
Chanel 10 Note Off - Duracao: 725820 Nota: C1 Vol.: 59
Chanel 10 Note On - Duracao: 725820 Nota: C1 Vol.: 70
Chanel 4 Note Off - Duracao: 725880 Nota: C1 Vol.: 66
Chanel 4 Note On - Duracao: 725880 Nota: C1 Vol.: 75
Chanel 3 Note Off - Duracao: 726120 Nota: C1 Vol.: 48
Chanel 3 Note On - Duracao: 726120 Nota: C1 Vol.: 68
Chanel 4 Note Off - Duracao: 726120 Nota: C1 Vol.: 75
Chanel 4 Note On - Duracao: 726120 Nota: C1 Vol.: 91
Chanel 6 Note Off - Duracao: 726120 Nota: C1 Vol.: 50
Chanel 6 Note On - Duracao: 726120 Nota: C1 Vol.: 44
Chanel 4 Note Off - Duracao: 726240 Nota: C1 Vol.: 91
Chanel 4 Note On - Duracao: 726240 Nota: C1 Vol.: 96
Chanel 4 Note Off - Duracao: 726300 Nota: C1 Vol.: 96
Chanel 4 Note On - Duracao: 726300 Nota: C1 Vol.: 97
Chanel 10 Note Off - Duracao: 726300 Nota: C1 Vol.: 70
Chanel 10 Note On - Duracao: 726300 Nota: C1 Vol.: 96
Chanel 10 Note Off - Duracao: 726360 Nota: C1 Vol.: 96
Chanel 10 Note On - Duracao: 726360 Nota: C1 Vol.: 85
Chanel 4 Note Off - Duracao: 726420 Nota: C1 Vol.: 97
Chanel 4 Note On - Duracao: 726420 Nota: C1 Vol.: 83
Chanel 8 Note Off - Duracao: 726540 Nota: C1 Vol.: 67
Chanel 8 Note On - Duracao: 726540 Nota: C1 Vol.: 80
Chanel 10 Note Off - Duracao: 726600 Nota: C1 Vol.: 85
Chanel 10 Note On - Duracao: 726600 Nota: C1 Vol.: 68
Chanel 4 Note Off - Duracao: 726660 Nota: C1 Vol.: 83
Chanel 4 Note On - Duracao: 726660 Nota: C1 Vol.: 93
Chanel 5 Note Off - Duracao: 726720 Nota: C1 Vol.: 77
Chanel 5 Note On - Duracao: 726720 Nota: C1 Vol.: 78
Chanel 7 Note Off - Duracao: 726720 Nota: C1 Vol.: 69
Chanel 7 Note On - Duracao: 726720 Nota: C1 Vol.: 61
Chanel 4 Note Off - Duracao: 726780 Nota: C1 Vol.: 93
Chanel 4 Note On - Duracao: 726780 Nota: C1 Vol.: 97
Chanel 4 Note Off - Duracao: 726840 Nota: C1 Vol.: 97
Chanel 4 Note On - Duracao: 726840 Nota: C1 Vol.: 94
Chanel 9 Note Off - Duracao: 726840 Nota: C1 Vol.: 67
Chanel 9 Note On - Duracao: 726840 Nota: C1 Vol.: 73
Chanel 4 Note Off - Duracao: 726960 Nota: C1 Vol.: 94
Chanel 4 Note On - Duracao: 726960 Nota: C1 Vol.: 95
Chanel 3 Note Off - Duracao: 727080 Nota: C1 Vol.: 68
Chanel 3 Note On - Duracao: 727080 Nota: C1 Vol.: 64
Chanel 4 Note Off - Duracao: 727080 Nota: C1 Vol.: 95
Chanel 4 Note On - Duracao: 727080 Nota: C1 Vol.: 79
Chanel 8 Note Off - Duracao: 727500 Nota: C1 Vol.: 80
Chanel 8 Note On - Duracao: 727500 Nota: C1 Vol.: 88
Chanel 2 Note Off - Duracao: 727560 Nota: C1 Vol.: 48
Chanel 2 Note On - Duracao: 727560 Nota: C1 Vol.: 45
Chanel 4 Note Off - Duracao: 727560 Nota: C1 Vol.: 79
Chanel 4 Note On - Duracao: 727560 Nota: C1 Vol.: 77
Chanel 10 Note Off - Duracao: 727560 Nota: C1 Vol.: 68
Chanel 10 Note On - Duracao: 727560 Nota: C1 Vol.: 72
Chanel 5 Note Off - Duracao: 727680 Nota: C1 Vol.: 78
Chanel 5 Note On - Duracao: 727680 Nota: C1 Vol.: 80
Chanel 9 Note Off - Duracao: 727800 Nota: C1 Vol.: 73
Chanel 9 Note On - Duracao: 727800 Nota: C1 Vol.: 61
Chanel 3 Note Off - Duracao: 728040 Nota: C1 Vol.: 64
Chanel 3 Note On - Duracao: 728040 Nota: C1 Vol.: 68
Chanel 4 Note Off - Duracao: 728040 Nota: C1 Vol.: 77
Chanel 4 Note On - Duracao: 728040 Nota: C1 Vol.: 74
Chanel 6 Note Off - Duracao: 728040 Nota: C1 Vol.: 44
Chanel 6 Note On - Duracao: 728040 Nota: C1 Vol.: 83
Chanel 10 Note Off - Duracao: 728040 Nota: C1 Vol.: 72
Chanel 10 Note On - Duracao: 728040 Nota: C1 Vol.: 75
Chanel 6 Note Off - Duracao: 728160 Nota: C1 Vol.: 83
Chanel 6 Note On - Duracao: 728160 Nota: C1 Vol.: 87
Chanel 6 Note Off - Duracao: 728280 Nota: C1 Vol.: 87
Chanel 6 Note On - Duracao: 728280 Nota: C1 Vol.: 88
Chanel 6 Note Off - Duracao: 728400 Nota: C1 Vol.: 88
Chanel 6 Note On - Duracao: 728400 Nota: C1 Vol.: 99
Chanel 6 Note Off - Duracao: 728460 Nota: C1 Vol.: 99
Chanel 6 Note On - Duracao: 728460 Nota: C1 Vol.: 99
Chanel 8 Note Off - Duracao: 728460 Nota: C1 Vol.: 88
Chanel 8 Note On - Duracao: 728460 Nota: C1 Vol.: 81
Chanel 6 Note Off - Duracao: 728520 Nota: C1 Vol.: 99
Chanel 6 Note On - Duracao: 728520 Nota: C1 Vol.: 100
Chanel 10 Note Off - Duracao: 728520 Nota: C1 Vol.: 75
Chanel 10 Note On - Duracao: 728520 Nota: C1 Vol.: 78
Chanel 6 Note Off - Duracao: 728580 Nota: C1 Vol.: 100
Chanel 6 Note On - Duracao: 728580 Nota: C1 Vol.: 99
Chanel 5 Note Off - Duracao: 728640 Nota: C1 Vol.: 80
Chanel 5 Note On - Duracao: 728640 Nota: C1 Vol.: 83
Chanel 6 Note Off - Duracao: 728640 Nota: C1 Vol.: 99
Chanel 6 Note On - Duracao: 728640 Nota: C1 Vol.: 100
Chanel 7 Note Off - Duracao: 728640 Nota: C1 Vol.: 61
Chanel 7 Note On - Duracao: 728640 Nota: C1 Vol.: 55
Chanel 6 Note Off - Duracao: 728700 Nota: C1 Vol.: 100
Chanel 6 Note On - Duracao: 728700 Nota: C1 Vol.: 100
Chanel 6 Note Off - Duracao: 728760 Nota: C1 Vol.: 100
Chanel 6 Note On - Duracao: 728760 Nota: C1 Vol.: 99
Chanel 6 Note Off - Duracao: 728820 Nota: C1 Vol.: 99
Chanel 6 Note On - Duracao: 728820 Nota: C1 Vol.: 90
Chanel 6 Note Off - Duracao: 728940 Nota: C1 Vol.: 90
Chanel 6 Note On - Duracao: 728940 Nota: C1 Vol.: 90
Chanel 3 Note Off - Duracao: 729000 Nota: C1 Vol.: 68
Chanel 3 Note On - Duracao: 729000 Nota: C1 Vol.: 73
Chanel 4 Note Off - Duracao: 729000 Nota: C1 Vol.: 74
Chanel 4 Note On - Duracao: 729000 Nota: C1 Vol.: 75
Chanel 10 Note Off - Duracao: 729000 Nota: C1 Vol.: 78
Chanel 10 Note On - Duracao: 729000 Nota: C1 Vol.: 66
Chanel 6 Note Off - Duracao: 729060 Nota: C1 Vol.: 90
Chanel 6 Note On - Duracao: 729060 Nota: C1 Vol.: 51
Chanel 5 Note Off - Duracao: 729120 Nota: C1 Vol.: 83
Chanel 5 Note On - Duracao: 729120 Nota: C1 Vol.: 84
Chanel 8 Note Off - Duracao: 729420 Nota: C1 Vol.: 81
Chanel 8 Note On - Duracao: 729420 Nota: C1 Vol.: 80
Chanel 3 Note Off - Duracao: 729480 Nota: C1 Vol.: 73
Chanel 3 Note On - Duracao: 729480 Nota: C1 Vol.: 69
Chanel 5 Note Off - Duracao: 729600 Nota: C1 Vol.: 84
Chanel 5 Note On - Duracao: 729600 Nota: C1 Vol.: 84
Chanel 9 Note Off - Duracao: 729720 Nota: C1 Vol.: 61
Chanel 9 Note On - Duracao: 729720 Nota: C1 Vol.: 69
Chanel 3 Note Off - Duracao: 729960 Nota: C1 Vol.: 69
Chanel 3 Note On - Duracao: 729960 Nota: C1 Vol.: 55
Chanel 4 Note Off - Duracao: 729960 Nota: C1 Vol.: 75
Chanel 4 Note On - Duracao: 729960 Nota: C1 Vol.: 61
Chanel 10 Note Off - Duracao: 729960 Nota: C1 Vol.: 66
Chanel 10 Note On - Duracao: 729960 Nota: C1 Vol.: 54
Chanel 5 Note Off - Duracao: 730080 Nota: C1 Vol.: 84
Chanel 5 Note On - Duracao: 730080 Nota: C1 Vol.: 85
Chanel 8 Note Off - Duracao: 730380 Nota: C1 Vol.: 80
Chanel 8 Note On - Duracao: 730380 Nota: C1 Vol.: 73
Chanel 5 Note Off - Duracao: 730560 Nota: C1 Vol.: 85
Chanel 5 Note On - Duracao: 730560 Nota: C1 Vol.: 84
Chanel 7 Note Off - Duracao: 730560 Nota: C1 Vol.: 55
Chanel 7 Note On - Duracao: 730560 Nota: C1 Vol.: 60
Chanel 9 Note Off - Duracao: 730680 Nota: C1 Vol.: 69
Chanel 9 Note On - Duracao: 730680 Nota: C1 Vol.: 69
Chanel 3 Note Off - Duracao: 730920 Nota: C1 Vol.: 55
Chanel 3 Note On - Duracao: 730920 Nota: C1 Vol.: 52
Chanel 6 Note Off - Duracao: 730980 Nota: C1 Vol.: 51
Chanel 6 Note On - Duracao: 730980 Nota: C1 Vol.: 80
Chanel 5 Note Off - Duracao: 731040 Nota: C1 Vol.: 84
Chanel 5 Note On - Duracao: 731040 Nota: C1 Vol.: 86
Chanel 6 Note Off - Duracao: 731220 Nota: C1 Vol.: 80
Chanel 6 Note On - Duracao: 731220 Nota: C1 Vol.: 97
Chanel 6 Note Off - Duracao: 731280 Nota: C1 Vol.: 97
Chanel 6 Note On - Duracao: 731280 Nota: C1 Vol.: 97
Chanel 6 Note Off - Duracao: 731340 Nota: C1 Vol.: 97
Chanel 6 Note On - Duracao: 731340 Nota: C1 Vol.: 93
Chanel 2 Note Off - Duracao: 731400 Nota: C1 Vol.: 45
Chanel 2 Note On - Duracao: 731400 Nota: C1 Vol.: 46
Chanel 6 Note Off - Duracao: 731460 Nota: C1 Vol.: 93
Chanel 6 Note On - Duracao: 731460 Nota: C1 Vol.: 88
Chanel 5 Note Off - Duracao: 731520 Nota: C1 Vol.: 86
Chanel 5 Note On - Duracao: 731520 Nota: C1 Vol.: 85
Chanel 6 Note Off - Duracao: 731580 Nota: C1 Vol.: 88
Chanel 6 Note On - Duracao: 731580 Nota: C1 Vol.: 96
Chanel 6 Note Off - Duracao: 731640 Nota: C1 Vol.: 96
Chanel 6 Note On - Duracao: 731640 Nota: C1 Vol.: 93
Chanel 9 Note Off - Duracao: 731640 Nota: C1 Vol.: 69
Chanel 9 Note On - Duracao: 731640 Nota: C1 Vol.: 67
Chanel 6 Note Off - Duracao: 731760 Nota: C1 Vol.: 93
Chanel 6 Note On - Duracao: 731760 Nota: C1 Vol.: 70
Chanel 3 Note Off - Duracao: 731880 Nota: C1 Vol.: 52
Chanel 3 Note On - Duracao: 731880 Nota: C1 Vol.: 53
Chanel 4 Note Off - Duracao: 731880 Nota: C1 Vol.: 61
Chanel 4 Note On - Duracao: 731880 Nota: C1 Vol.: 70
Chanel 5 Note Off - Duracao: 732000 Nota: C1 Vol.: 85
Chanel 5 Note On - Duracao: 732000 Nota: C1 Vol.: 82
Chanel 6 Note Off - Duracao: 732240 Nota: C1 Vol.: 70
Chanel 6 Note On - Duracao: 732240 Nota: C1 Vol.: 75
Chanel 8 Note Off - Duracao: 732300 Nota: C1 Vol.: 73
Chanel 8 Note On - Duracao: 732300 Nota: C1 Vol.: 68
Chanel 5 Note Off - Duracao: 732480 Nota: C1 Vol.: 82
Chanel 5 Note On - Duracao: 732480 Nota: C1 Vol.: 44
Chanel 7 Note Off - Duracao: 732480 Nota: C1 Vol.: 60
Chanel 7 Note On - Duracao: 732480 Nota: C1 Vol.: 63
Chanel 6 Note Off - Duracao: 732720 Nota: C1 Vol.: 75
Chanel 6 Note On - Duracao: 732720 Nota: C1 Vol.: 72
Chanel 3 Note Off - Duracao: 732840 Nota: C1 Vol.: 53
Chanel 3 Note On - Duracao: 732840 Nota: C1 Vol.: 57
Chanel 4 Note Off - Duracao: 732840 Nota: C1 Vol.: 70
Chanel 4 Note On - Duracao: 732840 Nota: C1 Vol.: 57
Chanel 6 Note Off - Duracao: 733200 Nota: C1 Vol.: 72
Chanel 6 Note On - Duracao: 733200 Nota: C1 Vol.: 69
Chanel 3 Note Off - Duracao: 733320 Nota: C1 Vol.: 57
Chanel 3 Note On - Duracao: 733320 Nota: C1 Vol.: 62
Chanel 9 Note Off - Duracao: 733560 Nota: C1 Vol.: 67
Chanel 9 Note On - Duracao: 733560 Nota: C1 Vol.: 75
Chanel 6 Note Off - Duracao: 733680 Nota: C1 Vol.: 69
Chanel 6 Note On - Duracao: 733680 Nota: C1 Vol.: 81
Chanel 3 Note Off - Duracao: 733800 Nota: C1 Vol.: 62
Chanel 3 Note On - Duracao: 733800 Nota: C1 Vol.: 64
Chanel 10 Note Off - Duracao: 733800 Nota: C1 Vol.: 54
Chanel 10 Note On - Duracao: 733800 Nota: C1 Vol.: 64
Chanel 6 Note Off - Duracao: 734160 Nota: C1 Vol.: 81
Chanel 6 Note On - Duracao: 734160 Nota: C1 Vol.: 77
Chanel 8 Note Off - Duracao: 734220 Nota: C1 Vol.: 68
Chanel 8 Note On - Duracao: 734220 Nota: C1 Vol.: 70
Chanel 3 Note Off - Duracao: 734280 Nota: C1 Vol.: 64
Chanel 3 Note On - Duracao: 734280 Nota: C1 Vol.: 64
Chanel 7 Note Off - Duracao: 734400 Nota: C1 Vol.: 63
Chanel 7 Note On - Duracao: 734400 Nota: C1 Vol.: 68
Chanel 6 Note Off - Duracao: 734640 Nota: C1 Vol.: 77
Chanel 6 Note On - Duracao: 734640 Nota: C1 Vol.: 83
Chanel 3 Note Off - Duracao: 734760 Nota: C1 Vol.: 64
Chanel 3 Note On - Duracao: 734760 Nota: C1 Vol.: 69
Chanel 4 Note Off - Duracao: 734760 Nota: C1 Vol.: 57
Chanel 4 Note On - Duracao: 734760 Nota: C1 Vol.: 55
Chanel 3 Note Off - Duracao: 735000 Nota: C1 Vol.: 69
Chanel 3 Note On - Duracao: 735000 Nota: C1 Vol.: 69
Chanel 6 Note Off - Duracao: 735120 Nota: C1 Vol.: 83
Chanel 6 Note On - Duracao: 735120 Nota: C1 Vol.: 82
Chanel 2 Note Off - Duracao: 735240 Nota: C1 Vol.: 46
Chanel 2 Note On - Duracao: 735240 Nota: C1 Vol.: 46
Chanel 3 Note Off - Duracao: 735240 Nota: C1 Vol.: 69
Chanel 3 Note On - Duracao: 735240 Nota: C1 Vol.: 61
Chanel 7 Note Off - Duracao: 735360 Nota: C1 Vol.: 68
Chanel 7 Note On - Duracao: 735360 Nota: C1 Vol.: 67
Chanel 9 Note Off - Duracao: 735480 Nota: C1 Vol.: 75
Chanel 9 Note On - Duracao: 735480 Nota: C1 Vol.: 88
Chanel 6 Note Off - Duracao: 735600 Nota: C1 Vol.: 82
Chanel 6 Note On - Duracao: 735600 Nota: C1 Vol.: 80
Chanel 3 Note Off - Duracao: 735720 Nota: C1 Vol.: 61
Chanel 3 Note On - Duracao: 735720 Nota: C1 Vol.: 55
Chanel 10 Note Off - Duracao: 735720 Nota: C1 Vol.: 64
Chanel 10 Note On - Duracao: 735720 Nota: C1 Vol.: 72
Chanel 8 Note Off - Duracao: 736140 Nota: C1 Vol.: 70
Chanel 8 Note On - Duracao: 736140 Nota: C1 Vol.: 67
Chanel 5 Note Off - Duracao: 736320 Nota: C1 Vol.: 44
Chanel 5 Note On - Duracao: 736320 Nota: C1 Vol.: 45
Chanel 7 Note Off - Duracao: 736320 Nota: C1 Vol.: 67
Chanel 7 Note On - Duracao: 736320 Nota: C1 Vol.: 94
Chanel 7 Note Off - Duracao: 736440 Nota: C1 Vol.: 94
Chanel 7 Note On - Duracao: 736440 Nota: C1 Vol.: 78
Chanel 6 Note Off - Duracao: 736560 Nota: C1 Vol.: 80
Chanel 6 Note On - Duracao: 736560 Nota: C1 Vol.: 88
Chanel 3 Note Off - Duracao: 736680 Nota: C1 Vol.: 55
Chanel 3 Note On - Duracao: 736680 Nota: C1 Vol.: 70
Chanel 7 Note Off - Duracao: 736680 Nota: C1 Vol.: 78
Chanel 7 Note On - Duracao: 736680 Nota: C1 Vol.: 94
Chanel 10 Note Off - Duracao: 736680 Nota: C1 Vol.: 72
Chanel 10 Note On - Duracao: 736680 Nota: C1 Vol.: 74
Chanel 7 Note Off - Duracao: 736800 Nota: C1 Vol.: 94
Chanel 7 Note On - Duracao: 736800 Nota: C1 Vol.: 87
Chanel 7 Note Off - Duracao: 736920 Nota: C1 Vol.: 87
Chanel 7 Note On - Duracao: 736920 Nota: C1 Vol.: 81
Chanel 6 Note Off - Duracao: 737040 Nota: C1 Vol.: 88
Chanel 6 Note On - Duracao: 737040 Nota: C1 Vol.: 73
Chanel 3 Note Off - Duracao: 737160 Nota: C1 Vol.: 70
Chanel 3 Note On - Duracao: 737160 Nota: C1 Vol.: 92
Chanel 7 Note Off - Duracao: 737160 Nota: C1 Vol.: 81
Chanel 7 Note On - Duracao: 737160 Nota: C1 Vol.: 89
Chanel 3 Note Off - Duracao: 737280 Nota: C1 Vol.: 92
Chanel 3 Note On - Duracao: 737280 Nota: C1 Vol.: 98
Chanel 7 Note Off - Duracao: 737280 Nota: C1 Vol.: 89
Chanel 7 Note On - Duracao: 737280 Nota: C1 Vol.: 81
Chanel 3 Note Off - Duracao: 737340 Nota: C1 Vol.: 98
Chanel 3 Note On - Duracao: 737340 Nota: C1 Vol.: 98
Chanel 3 Note Off - Duracao: 737400 Nota: C1 Vol.: 98
Chanel 3 Note On - Duracao: 737400 Nota: C1 Vol.: 100
Chanel 9 Note Off - Duracao: 737400 Nota: C1 Vol.: 88
Chanel 9 Note On - Duracao: 737400 Nota: C1 Vol.: 94
Chanel 3 Note Off - Duracao: 737460 Nota: C1 Vol.: 100
Chanel 3 Note On - Duracao: 737460 Nota: C1 Vol.: 100
Chanel 3 Note Off - Duracao: 737520 Nota: C1 Vol.: 100
Chanel 3 Note On - Duracao: 737520 Nota: C1 Vol.: 100
Chanel 7 Note Off - Duracao: 737520 Nota: C1 Vol.: 81
Chanel 7 Note On - Duracao: 737520 Nota: C1 Vol.: 82
Chanel 3 Note Off - Duracao: 737580 Nota: C1 Vol.: 100
Chanel 3 Note On - Duracao: 737580 Nota: C1 Vol.: 99
Chanel 3 Note Off - Duracao: 737640 Nota: C1 Vol.: 99
Chanel 3 Note On - Duracao: 737640 Nota: C1 Vol.: 76
Chanel 10 Note Off - Duracao: 737640 Nota: C1 Vol.: 74
Chanel 10 Note On - Duracao: 737640 Nota: C1 Vol.: 74
Chanel 7 Note Off - Duracao: 737760 Nota: C1 Vol.: 82
Chanel 7 Note On - Duracao: 737760 Nota: C1 Vol.: 94
Chanel 7 Note Off - Duracao: 737880 Nota: C1 Vol.: 94
Chanel 7 Note On - Duracao: 737880 Nota: C1 Vol.: 96
Chanel 7 Note Off - Duracao: 738000 Nota: C1 Vol.: 96
Chanel 7 Note On - Duracao: 738000 Nota: C1 Vol.: 77
Chanel 8 Note Off - Duracao: 738060 Nota: C1 Vol.: 67
Chanel 8 Note On - Duracao: 738060 Nota: C1 Vol.: 66
Chanel 3 Note Off - Duracao: 738120 Nota: C1 Vol.: 76
Chanel 3 Note On - Duracao: 738120 Nota: C1 Vol.: 68
Chanel 5 Note Off - Duracao: 738240 Nota: C1 Vol.: 45
Chanel 5 Note On - Duracao: 738240 Nota: C1 Vol.: 43
Chanel 7 Note Off - Duracao: 738240 Nota: C1 Vol.: 77
Chanel 7 Note On - Duracao: 738240 Nota: C1 Vol.: 68
Chanel 4 Note Off - Duracao: 738600 Nota: C1 Vol.: 55
Chanel 4 Note On - Duracao: 738600 Nota: C1 Vol.: 54
Chanel 10 Note Off - Duracao: 738600 Nota: C1 Vol.: 74
Chanel 10 Note On - Duracao: 738600 Nota: C1 Vol.: 72
Chanel 7 Note Off - Duracao: 738720 Nota: C1 Vol.: 68
Chanel 7 Note On - Duracao: 738720 Nota: C1 Vol.: 85
Chanel 6 Note Off - Duracao: 738960 Nota: C1 Vol.: 73
Chanel 6 Note On - Duracao: 738960 Nota: C1 Vol.: 76
Chanel 7 Note Off - Duracao: 738960 Nota: C1 Vol.: 85
Chanel 7 Note On - Duracao: 738960 Nota: C1 Vol.: 88
Chanel 2 Note Off - Duracao: 739080 Nota: C1 Vol.: 46
Chanel 2 Note On - Duracao: 739080 Nota: C1 Vol.: 48
Chanel 3 Note Off - Duracao: 739080 Nota: C1 Vol.: 68
Chanel 3 Note On - Duracao: 739080 Nota: C1 Vol.: 89
Chanel 7 Note Off - Duracao: 739200 Nota: C1 Vol.: 88
Chanel 7 Note On - Duracao: 739200 Nota: C1 Vol.: 62
Chanel 3 Note Off - Duracao: 739320 Nota: C1 Vol.: 89
Chanel 3 Note On - Duracao: 739320 Nota: C1 Vol.: 84
Chanel 9 Note Off - Duracao: 739320 Nota: C1 Vol.: 94
Chanel 9 Note On - Duracao: 739320 Nota: C1 Vol.: 92
Chanel 10 Note Off - Duracao: 739560 Nota: C1 Vol.: 72
Chanel 10 Note On - Duracao: 739560 Nota: C1 Vol.: 73
Chanel 3 Note Off - Duracao: 739800 Nota: C1 Vol.: 84
Chanel 3 Note On - Duracao: 739800 Nota: C1 Vol.: 86
Chanel 6 Note Off - Duracao: 739920 Nota: C1 Vol.: 76
Chanel 6 Note On - Duracao: 739920 Nota: C1 Vol.: 67
Chanel 8 Note Off - Duracao: 739980 Nota: C1 Vol.: 66
Chanel 8 Note On - Duracao: 739980 Nota: C1 Vol.: 54
Chanel 5 Note Off - Duracao: 740160 Nota: C1 Vol.: 43
Chanel 5 Note On - Duracao: 740160 Nota: C1 Vol.: 42
Chanel 7 Note Off - Duracao: 740160 Nota: C1 Vol.: 62
Chanel 7 Note On - Duracao: 740160 Nota: C1 Vol.: 56
Chanel 3 Note Off - Duracao: 740280 Nota: C1 Vol.: 86
Chanel 3 Note On - Duracao: 740280 Nota: C1 Vol.: 76
Chanel 10 Note Off - Duracao: 740520 Nota: C1 Vol.: 73
Chanel 10 Note On - Duracao: 740520 Nota: C1 Vol.: 72
Chanel 3 Note Off - Duracao: 740760 Nota: C1 Vol.: 76
Chanel 3 Note On - Duracao: 740760 Nota: C1 Vol.: 51
Chanel 9 Note Off - Duracao: 741240 Nota: C1 Vol.: 92
Chanel 9 Note On - Duracao: 741240 Nota: C1 Vol.: 92
Chanel 10 Note Off - Duracao: 741480 Nota: C1 Vol.: 72
Chanel 10 Note On - Duracao: 741480 Nota: C1 Vol.: 72
Chanel 6 Note Off - Duracao: 741840 Nota: C1 Vol.: 67
Chanel 6 Note On - Duracao: 741840 Nota: C1 Vol.: 71
Chanel 5 Note Off - Duracao: 742080 Nota: C1 Vol.: 42
Chanel 5 Note On - Duracao: 742080 Nota: C1 Vol.: 46
Chanel 7 Note Off - Duracao: 742080 Nota: C1 Vol.: 56
Chanel 7 Note On - Duracao: 742080 Nota: C1 Vol.: 53
Chanel 4 Note Off - Duracao: 742440 Nota: C1 Vol.: 54
Chanel 4 Note On - Duracao: 742440 Nota: C1 Vol.: 58
Chanel 10 Note Off - Duracao: 742440 Nota: C1 Vol.: 72
Chanel 10 Note On - Duracao: 742440 Nota: C1 Vol.: 70
Chanel 2 Note Off - Duracao: 742920 Nota: C1 Vol.: 48
Chanel 2 Note On - Duracao: 742920 Nota: C1 Vol.: 54
Chanel 9 Note Off - Duracao: 743160 Nota: C1 Vol.: 92
Chanel 9 Note On - Duracao: 743160 Nota: C1 Vol.: 92
Chanel 10 Note Off - Duracao: 743400 Nota: C1 Vol.: 70
Chanel 10 Note On - Duracao: 743400 Nota: C1 Vol.: 69
Chanel 6 Note Off - Duracao: 743760 Nota: C1 Vol.: 71
Chanel 6 Note On - Duracao: 743760 Nota: C1 Vol.: 76
Chanel 8 Note Off - Duracao: 743820 Nota: C1 Vol.: 54
Chanel 8 Note On - Duracao: 743820 Nota: C1 Vol.: 56
Chanel 5 Note Off - Duracao: 744000 Nota: C1 Vol.: 46
Chanel 5 Note On - Duracao: 744000 Nota: C1 Vol.: 43
Chanel 7 Note Off - Duracao: 744000 Nota: C1 Vol.: 53
Chanel 7 Note On - Duracao: 744000 Nota: C1 Vol.: 58
Chanel 10 Note Off - Duracao: 744360 Nota: C1 Vol.: 69
Chanel 10 Note On - Duracao: 744360 Nota: C1 Vol.: 71
Chanel 3 Note Off - Duracao: 744600 Nota: C1 Vol.: 51
Chanel 3 Note On - Duracao: 744600 Nota: C1 Vol.: 48
Chanel 6 Note Off - Duracao: 744720 Nota: C1 Vol.: 76
Chanel 6 Note On - Duracao: 744720 Nota: C1 Vol.: 79
Chanel 7 Note Off - Duracao: 744960 Nota: C1 Vol.: 58
Chanel 7 Note On - Duracao: 744960 Nota: C1 Vol.: 61
Chanel 9 Note Off - Duracao: 745080 Nota: C1 Vol.: 92
Chanel 9 Note On - Duracao: 745080 Nota: C1 Vol.: 89
Chanel 10 Note Off - Duracao: 745320 Nota: C1 Vol.: 71
Chanel 10 Note On - Duracao: 745320 Nota: C1 Vol.: 70
Chanel 6 Note Off - Duracao: 745680 Nota: C1 Vol.: 79
Chanel 6 Note On - Duracao: 745680 Nota: C1 Vol.: 76
Chanel 8 Note Off - Duracao: 745740 Nota: C1 Vol.: 56
Chanel 8 Note On - Duracao: 745740 Nota: C1 Vol.: 58
Chanel 5 Note Off - Duracao: 745920 Nota: C1 Vol.: 43
Chanel 5 Note On - Duracao: 745920 Nota: C1 Vol.: 85
Chanel 7 Note Off - Duracao: 745920 Nota: C1 Vol.: 61
Chanel 7 Note On - Duracao: 745920 Nota: C1 Vol.: 71
Chanel 5 Note Off - Duracao: 746040 Nota: C1 Vol.: 85
Chanel 5 Note On - Duracao: 746040 Nota: C1 Vol.: 88
Chanel 5 Note Off - Duracao: 746160 Nota: C1 Vol.: 88
Chanel 5 Note On - Duracao: 746160 Nota: C1 Vol.: 87
Chanel 7 Note Off - Duracao: 746160 Nota: C1 Vol.: 71
Chanel 7 Note On - Duracao: 746160 Nota: C1 Vol.: 76
Chanel 4 Note Off - Duracao: 746280 Nota: C1 Vol.: 58
Chanel 4 Note On - Duracao: 746280 Nota: C1 Vol.: 57
Chanel 5 Note Off - Duracao: 746280 Nota: C1 Vol.: 87
Chanel 5 Note On - Duracao: 746280 Nota: C1 Vol.: 76
Chanel 10 Note Off - Duracao: 746280 Nota: C1 Vol.: 70
Chanel 10 Note On - Duracao: 746280 Nota: C1 Vol.: 72
Chanel 7 Note Off - Duracao: 746400 Nota: C1 Vol.: 76
Chanel 7 Note On - Duracao: 746400 Nota: C1 Vol.: 77
Chanel 5 Note Off - Duracao: 746520 Nota: C1 Vol.: 76
Chanel 5 Note On - Duracao: 746520 Nota: C1 Vol.: 62
Chanel 6 Note Off - Duracao: 746640 Nota: C1 Vol.: 76
Chanel 6 Note On - Duracao: 746640 Nota: C1 Vol.: 71
Chanel 7 Note Off - Duracao: 746640 Nota: C1 Vol.: 77
Chanel 7 Note On - Duracao: 746640 Nota: C1 Vol.: 71
Chanel 2 Note Off - Duracao: 746760 Nota: C1 Vol.: 54
Chanel 2 Note On - Duracao: 746760 Nota: C1 Vol.: 85
Chanel 9 Note Off - Duracao: 747000 Nota: C1 Vol.: 89
Chanel 9 Note On - Duracao: 747000 Nota: C1 Vol.: 90
Chanel 7 Note Off - Duracao: 747120 Nota: C1 Vol.: 71
Chanel 7 Note On - Duracao: 747120 Nota: C1 Vol.: 58
Chanel 10 Note Off - Duracao: 747240 Nota: C1 Vol.: 72
Chanel 10 Note On - Duracao: 747240 Nota: C1 Vol.: 75
Chanel 5 Note Off - Duracao: 747480 Nota: C1 Vol.: 62
Chanel 5 Note On - Duracao: 747480 Nota: C1 Vol.: 68
Chanel 8 Note Off - Duracao: 747660 Nota: C1 Vol.: 58
Chanel 8 Note On - Duracao: 747660 Nota: C1 Vol.: 57
Chanel 2 Note Off - Duracao: 747720 Nota: C1 Vol.: 85
Chanel 2 Note On - Duracao: 747720 Nota: C1 Vol.: 93
Chanel 10 Note Off - Duracao: 747720 Nota: C1 Vol.: 75
Chanel 10 Note On - Duracao: 747720 Nota: C1 Vol.: 73
Chanel 5 Note Off - Duracao: 747960 Nota: C1 Vol.: 68
Chanel 5 Note On - Duracao: 747960 Nota: C1 Vol.: 76
Chanel 7 Note Off - Duracao: 748080 Nota: C1 Vol.: 58
Chanel 7 Note On - Duracao: 748080 Nota: C1 Vol.: 74
Chanel 4 Note Off - Duracao: 748200 Nota: C1 Vol.: 57
Chanel 4 Note On - Duracao: 748200 Nota: C1 Vol.: 73
Chanel 5 Note Off - Duracao: 748200 Nota: C1 Vol.: 76
Chanel 5 Note On - Duracao: 748200 Nota: C1 Vol.: 86
Chanel 3 Note Off - Duracao: 748440 Nota: C1 Vol.: 48
Chanel 3 Note On - Duracao: 748440 Nota: C1 Vol.: 54
Chanel 5 Note Off - Duracao: 748440 Nota: C1 Vol.: 86
Chanel 5 Note On - Duracao: 748440 Nota: C1 Vol.: 91
Chanel 5 Note Off - Duracao: 748560 Nota: C1 Vol.: 91
Chanel 5 Note On - Duracao: 748560 Nota: C1 Vol.: 90
Chanel 6 Note Off - Duracao: 748560 Nota: C1 Vol.: 71
Chanel 6 Note On - Duracao: 748560 Nota: C1 Vol.: 67
Chanel 7 Note Off - Duracao: 748560 Nota: C1 Vol.: 74
Chanel 7 Note On - Duracao: 748560 Nota: C1 Vol.: 73
Chanel 5 Note Off - Duracao: 748680 Nota: C1 Vol.: 90
Chanel 5 Note On - Duracao: 748680 Nota: C1 Vol.: 97
Chanel 10 Note Off - Duracao: 748680 Nota: C1 Vol.: 73
Chanel 10 Note On - Duracao: 748680 Nota: C1 Vol.: 70
Chanel 5 Note Off - Duracao: 748800 Nota: C1 Vol.: 97
Chanel 5 Note On - Duracao: 748800 Nota: C1 Vol.: 99
Chanel 5 Note Off - Duracao: 748860 Nota: C1 Vol.: 99
Chanel 5 Note On - Duracao: 748860 Nota: C1 Vol.: 65
Chanel 9 Note Off - Duracao: 748920 Nota: C1 Vol.: 90
Chanel 9 Note On - Duracao: 748920 Nota: C1 Vol.: 86
Chanel 7 Note Off - Duracao: 749040 Nota: C1 Vol.: 73
Chanel 7 Note On - Duracao: 749040 Nota: C1 Vol.: 79
Chanel 4 Note Off - Duracao: 749160 Nota: C1 Vol.: 73
Chanel 4 Note On - Duracao: 749160 Nota: C1 Vol.: 83
Chanel 7 Note Off - Duracao: 749520 Nota: C1 Vol.: 79
Chanel 7 Note On - Duracao: 749520 Nota: C1 Vol.: 84
Chanel 8 Note Off - Duracao: 749580 Nota: C1 Vol.: 57
Chanel 8 Note On - Duracao: 749580 Nota: C1 Vol.: 60
Chanel 2 Note Off - Duracao: 749640 Nota: C1 Vol.: 93
Chanel 2 Note On - Duracao: 749640 Nota: C1 Vol.: 93
Chanel 4 Note Off - Duracao: 749640 Nota: C1 Vol.: 83
Chanel 4 Note On - Duracao: 749640 Nota: C1 Vol.: 75
Chanel 10 Note Off - Duracao: 749640 Nota: C1 Vol.: 70
Chanel 10 Note On - Duracao: 749640 Nota: C1 Vol.: 73
Chanel 5 Note Off - Duracao: 749820 Nota: C1 Vol.: 65
Chanel 5 Note On - Duracao: 749820 Nota: C1 Vol.: 96
Chanel 5 Note Off - Duracao: 749880 Nota: C1 Vol.: 96
Chanel 5 Note On - Duracao: 749880 Nota: C1 Vol.: 99
Chanel 5 Note Off - Duracao: 749940 Nota: C1 Vol.: 99
Chanel 5 Note On - Duracao: 749940 Nota: C1 Vol.: 99
Chanel 5 Note Off - Duracao: 750000 Nota: C1 Vol.: 99
Chanel 5 Note On - Duracao: 750000 Nota: C1 Vol.: 100
Chanel 7 Note Off - Duracao: 750000 Nota: C1 Vol.: 84
Chanel 7 Note On - Duracao: 750000 Nota: C1 Vol.: 80
Chanel 5 Note Off - Duracao: 750060 Nota: C1 Vol.: 100
Chanel 5 Note On - Duracao: 750060 Nota: C1 Vol.: 100
Chanel 5 Note Off - Duracao: 750120 Nota: C1 Vol.: 100
Chanel 5 Note On - Duracao: 750120 Nota: C1 Vol.: 100
Chanel 5 Note Off - Duracao: 750180 Nota: C1 Vol.: 100
Chanel 5 Note On - Duracao: 750180 Nota: C1 Vol.: 100
Chanel 5 Note Off - Duracao: 750240 Nota: C1 Vol.: 100
Chanel 5 Note On - Duracao: 750240 Nota: C1 Vol.: 99
Chanel 5 Note Off - Duracao: 750300 Nota: C1 Vol.: 99
Chanel 5 Note On - Duracao: 750300 Nota: C1 Vol.: 99
Chanel 5 Note Off - Duracao: 750360 Nota: C1 Vol.: 99
Chanel 5 Note On - Duracao: 750360 Nota: C1 Vol.: 96
Chanel 5 Note Off - Duracao: 750420 Nota: C1 Vol.: 96
Chanel 5 Note On - Duracao: 750420 Nota: C1 Vol.: 96
Chanel 5 Note Off - Duracao: 750480 Nota: C1 Vol.: 96
Chanel 5 Note On - Duracao: 750480 Nota: C1 Vol.: 98
Chanel 6 Note Off - Duracao: 750480 Nota: C1 Vol.: 67
Chanel 6 Note On - Duracao: 750480 Nota: C1 Vol.: 73
Chanel 5 Note Off - Duracao: 750540 Nota: C1 Vol.: 98
Chanel 5 Note On - Duracao: 750540 Nota: C1 Vol.: 99
Chanel 4 Note Off - Duracao: 750600 Nota: C1 Vol.: 75
Chanel 4 Note On - Duracao: 750600 Nota: C1 Vol.: 71
Chanel 5 Note Off - Duracao: 750600 Nota: C1 Vol.: 99
Chanel 5 Note On - Duracao: 750600 Nota: C1 Vol.: 96
Chanel 10 Note Off - Duracao: 750600 Nota: C1 Vol.: 73
Chanel 10 Note On - Duracao: 750600 Nota: C1 Vol.: 69
Chanel 5 Note Off - Duracao: 750660 Nota: C1 Vol.: 96
Chanel 5 Note On - Duracao: 750660 Nota: C1 Vol.: 96
Chanel 5 Note Off - Duracao: 750720 Nota: C1 Vol.: 96
Chanel 5 Note On - Duracao: 750720 Nota: C1 Vol.: 99
Chanel 5 Note Off - Duracao: 750780 Nota: C1 Vol.: 99
Chanel 5 Note On - Duracao: 750780 Nota: C1 Vol.: 98
Chanel 5 Note Off - Duracao: 750840 Nota: C1 Vol.: 98
Chanel 5 Note On - Duracao: 750840 Nota: C1 Vol.: 95
Chanel 9 Note Off - Duracao: 750840 Nota: C1 Vol.: 86
Chanel 9 Note On - Duracao: 750840 Nota: C1 Vol.: 89
Chanel 5 Note Off - Duracao: 750900 Nota: C1 Vol.: 95
Chanel 5 Note On - Duracao: 750900 Nota: C1 Vol.: 76
Chanel 7 Note Off - Duracao: 750960 Nota: C1 Vol.: 80
Chanel 7 Note On - Duracao: 750960 Nota: C1 Vol.: 83
Chanel 5 Note Off - Duracao: 751140 Nota: C1 Vol.: 76
Chanel 5 Note On - Duracao: 751140 Nota: C1 Vol.: 56
Chanel 6 Note Off - Duracao: 751440 Nota: C1 Vol.: 73
Chanel 6 Note On - Duracao: 751440 Nota: C1 Vol.: 72
Chanel 8 Note Off - Duracao: 751500 Nota: C1 Vol.: 60
Chanel 8 Note On - Duracao: 751500 Nota: C1 Vol.: 63
Chanel 4 Note Off - Duracao: 751560 Nota: C1 Vol.: 71
Chanel 4 Note On - Duracao: 751560 Nota: C1 Vol.: 76
Chanel 10 Note Off - Duracao: 751560 Nota: C1 Vol.: 69
Chanel 10 Note On - Duracao: 751560 Nota: C1 Vol.: 64
Chanel 7 Note Off - Duracao: 751920 Nota: C1 Vol.: 83
Chanel 7 Note On - Duracao: 751920 Nota: C1 Vol.: 85
Chanel 4 Note Off - Duracao: 752040 Nota: C1 Vol.: 76
Chanel 4 Note On - Duracao: 752040 Nota: C1 Vol.: 75
Chanel 5 Note Off - Duracao: 752100 Nota: C1 Vol.: 56
Chanel 5 Note On - Duracao: 752100 Nota: C1 Vol.: 62
Chanel 3 Note Off - Duracao: 752280 Nota: C1 Vol.: 54
Chanel 3 Note On - Duracao: 752280 Nota: C1 Vol.: 56
Chanel 7 Note Off - Duracao: 752400 Nota: C1 Vol.: 85
Chanel 7 Note On - Duracao: 752400 Nota: C1 Vol.: 93
Chanel 8 Note Off - Duracao: 752460 Nota: C1 Vol.: 63
Chanel 8 Note On - Duracao: 752460 Nota: C1 Vol.: 60
Chanel 10 Note Off - Duracao: 752520 Nota: C1 Vol.: 64
Chanel 10 Note On - Duracao: 752520 Nota: C1 Vol.: 61
Chanel 7 Note Off - Duracao: 752640 Nota: C1 Vol.: 93
Chanel 7 Note On - Duracao: 752640 Nota: C1 Vol.: 77
Chanel 9 Note Off - Duracao: 752760 Nota: C1 Vol.: 89
Chanel 9 Note On - Duracao: 752760 Nota: C1 Vol.: 90
Chanel 4 Note Off - Duracao: 753000 Nota: C1 Vol.: 75
Chanel 4 Note On - Duracao: 753000 Nota: C1 Vol.: 60
Chanel 5 Note Off - Duracao: 753060 Nota: C1 Vol.: 62
Chanel 5 Note On - Duracao: 753060 Nota: C1 Vol.: 66
Chanel 7 Note Off - Duracao: 753120 Nota: C1 Vol.: 77
Chanel 7 Note On - Duracao: 753120 Nota: C1 Vol.: 77
Chanel 6 Note Off - Duracao: 753360 Nota: C1 Vol.: 72
Chanel 6 Note On - Duracao: 753360 Nota: C1 Vol.: 71
Chanel 8 Note Off - Duracao: 753420 Nota: C1 Vol.: 60
Chanel 8 Note On - Duracao: 753420 Nota: C1 Vol.: 70
Chanel 2 Note Off - Duracao: 753480 Nota: C1 Vol.: 93
Chanel 2 Note On - Duracao: 753480 Nota: C1 Vol.: 93
Chanel 7 Note Off - Duracao: 753600 Nota: C1 Vol.: 77
Chanel 7 Note On - Duracao: 753600 Nota: C1 Vol.: 89
Chanel 7 Note Off - Duracao: 753840 Nota: C1 Vol.: 89
Chanel 7 Note On - Duracao: 753840 Nota: C1 Vol.: 74
Chanel 8 Note Off - Duracao: 753900 Nota: C1 Vol.: 70
Chanel 8 Note On - Duracao: 753900 Nota: C1 Vol.: 63
Chanel 5 Note Off - Duracao: 754020 Nota: C1 Vol.: 66
Chanel 5 Note On - Duracao: 754020 Nota: C1 Vol.: 70
Chanel 8 Note Off - Duracao: 754380 Nota: C1 Vol.: 63
Chanel 8 Note On - Duracao: 754380 Nota: C1 Vol.: 59
Chanel 10 Note Off - Duracao: 754440 Nota: C1 Vol.: 61
Chanel 10 Note On - Duracao: 754440 Nota: C1 Vol.: 65
Chanel 5 Note Off - Duracao: 754500 Nota: C1 Vol.: 70
Chanel 5 Note On - Duracao: 754500 Nota: C1 Vol.: 73
Chanel 9 Note Off - Duracao: 754680 Nota: C1 Vol.: 90
Chanel 9 Note On - Duracao: 754680 Nota: C1 Vol.: 90
Chanel 7 Note Off - Duracao: 754800 Nota: C1 Vol.: 74
Chanel 7 Note On - Duracao: 754800 Nota: C1 Vol.: 76
Chanel 4 Note Off - Duracao: 754920 Nota: C1 Vol.: 60
Chanel 4 Note On - Duracao: 754920 Nota: C1 Vol.: 53
Chanel 5 Note Off - Duracao: 754980 Nota: C1 Vol.: 73
Chanel 5 Note On - Duracao: 754980 Nota: C1 Vol.: 67
Chanel 6 Note Off - Duracao: 755280 Nota: C1 Vol.: 71
Chanel 6 Note On - Duracao: 755280 Nota: C1 Vol.: 85
Chanel 8 Note Off - Duracao: 755340 Nota: C1 Vol.: 59
Chanel 8 Note On - Duracao: 755340 Nota: C1 Vol.: 62
Chanel 10 Note Off - Duracao: 755400 Nota: C1 Vol.: 65
Chanel 10 Note On - Duracao: 755400 Nota: C1 Vol.: 64
Chanel 7 Note Off - Duracao: 755760 Nota: C1 Vol.: 76
Chanel 7 Note On - Duracao: 755760 Nota: C1 Vol.: 83
Chanel 5 Note Off - Duracao: 755940 Nota: C1 Vol.: 67
Chanel 5 Note On - Duracao: 755940 Nota: C1 Vol.: 72
Chanel 3 Note Off - Duracao: 756120 Nota: C1 Vol.: 56
Chanel 3 Note On - Duracao: 756120 Nota: C1 Vol.: 50
Chanel 6 Note Off - Duracao: 756240 Nota: C1 Vol.: 85
Chanel 6 Note On - Duracao: 756240 Nota: C1 Vol.: 85
Chanel 8 Note Off - Duracao: 756300 Nota: C1 Vol.: 62
Chanel 8 Note On - Duracao: 756300 Nota: C1 Vol.: 60
Chanel 10 Note Off - Duracao: 756360 Nota: C1 Vol.: 64
Chanel 10 Note On - Duracao: 756360 Nota: C1 Vol.: 64
Chanel 9 Note Off - Duracao: 756600 Nota: C1 Vol.: 90
Chanel 9 Note On - Duracao: 756600 Nota: C1 Vol.: 92
Chanel 7 Note Off - Duracao: 756720 Nota: C1 Vol.: 83
Chanel 7 Note On - Duracao: 756720 Nota: C1 Vol.: 87
Chanel 5 Note Off - Duracao: 756900 Nota: C1 Vol.: 72
Chanel 5 Note On - Duracao: 756900 Nota: C1 Vol.: 88
Chanel 6 Note Off - Duracao: 757200 Nota: C1 Vol.: 85
Chanel 6 Note On - Duracao: 757200 Nota: C1 Vol.: 72
Chanel 7 Note Off - Duracao: 757200 Nota: C1 Vol.: 87
Chanel 7 Note On - Duracao: 757200 Nota: C1 Vol.: 85
Chanel 8 Note Off - Duracao: 757260 Nota: C1 Vol.: 60
Chanel 8 Note On - Duracao: 757260 Nota: C1 Vol.: 55
Chanel 2 Note Off - Duracao: 757320 Nota: C1 Vol.: 93
Chanel 2 Note On - Duracao: 757320 Nota: C1 Vol.: 92
Chanel 10 Note Off - Duracao: 757320 Nota: C1 Vol.: 64
Chanel 10 Note On - Duracao: 757320 Nota: C1 Vol.: 59
Chanel 5 Note Off - Duracao: 757380 Nota: C1 Vol.: 88
Chanel 5 Note On - Duracao: 757380 Nota: C1 Vol.: 85
Chanel 9 Note Off - Duracao: 757560 Nota: C1 Vol.: 92
Chanel 9 Note On - Duracao: 757560 Nota: C1 Vol.: 91
Chanel 7 Note Off - Duracao: 757680 Nota: C1 Vol.: 85
Chanel 7 Note On - Duracao: 757680 Nota: C1 Vol.: 64
Chanel 6 Note Off - Duracao: 758160 Nota: C1 Vol.: 72
Chanel 6 Note On - Duracao: 758160 Nota: C1 Vol.: 65
Chanel 5 Note Off - Duracao: 758340 Nota: C1 Vol.: 85
Chanel 5 Note On - Duracao: 758340 Nota: C1 Vol.: 73
Chanel 4 Note Off - Duracao: 758760 Nota: C1 Vol.: 53
Chanel 4 Note On - Duracao: 758760 Nota: C1 Vol.: 78
Chanel 8 Note Off - Duracao: 759180 Nota: C1 Vol.: 55
Chanel 8 Note On - Duracao: 759180 Nota: C1 Vol.: 52
Chanel 10 Note Off - Duracao: 759240 Nota: C1 Vol.: 59
Chanel 10 Note On - Duracao: 759240 Nota: C1 Vol.: 64
Chanel 9 Note Off - Duracao: 759480 Nota: C1 Vol.: 91
Chanel 9 Note On - Duracao: 759480 Nota: C1 Vol.: 85
Chanel 7 Note Off - Duracao: 759600 Nota: C1 Vol.: 64
Chanel 7 Note On - Duracao: 759600 Nota: C1 Vol.: 56
Chanel 4 Note Off - Duracao: 759720 Nota: C1 Vol.: 78
Chanel 4 Note On - Duracao: 759720 Nota: C1 Vol.: 77
Chanel 3 Note Off - Duracao: 759960 Nota: C1 Vol.: 50
Chanel 3 Note On - Duracao: 759960 Nota: C1 Vol.: 63
Chanel 6 Note Off - Duracao: 760080 Nota: C1 Vol.: 65
Chanel 6 Note On - Duracao: 760080 Nota: C1 Vol.: 77
Chanel 10 Note Off - Duracao: 760200 Nota: C1 Vol.: 64
Chanel 10 Note On - Duracao: 760200 Nota: C1 Vol.: 67
Chanel 5 Note Off - Duracao: 760260 Nota: C1 Vol.: 73
Chanel 5 Note On - Duracao: 760260 Nota: C1 Vol.: 62
Chanel 4 Note Off - Duracao: 760680 Nota: C1 Vol.: 77
Chanel 4 Note On - Duracao: 760680 Nota: C1 Vol.: 75
Chanel 6 Note Off - Duracao: 761040 Nota: C1 Vol.: 77
Chanel 6 Note On - Duracao: 761040 Nota: C1 Vol.: 78
Chanel 8 Note Off - Duracao: 761100 Nota: C1 Vol.: 52
Chanel 8 Note On - Duracao: 761100 Nota: C1 Vol.: 49
Chanel 2 Note Off - Duracao: 761160 Nota: C1 Vol.: 92
Chanel 2 Note On - Duracao: 761160 Nota: C1 Vol.: 93
Chanel 10 Note Off - Duracao: 761160 Nota: C1 Vol.: 67
Chanel 10 Note On - Duracao: 761160 Nota: C1 Vol.: 67
Chanel 9 Note Off - Duracao: 761400 Nota: C1 Vol.: 85
Chanel 9 Note On - Duracao: 761400 Nota: C1 Vol.: 89
Chanel 4 Note Off - Duracao: 761640 Nota: C1 Vol.: 75
Chanel 4 Note On - Duracao: 761640 Nota: C1 Vol.: 75
Chanel 3 Note Off - Duracao: 761880 Nota: C1 Vol.: 63
Chanel 3 Note On - Duracao: 761880 Nota: C1 Vol.: 51
Chanel 6 Note Off - Duracao: 762000 Nota: C1 Vol.: 78
Chanel 6 Note On - Duracao: 762000 Nota: C1 Vol.: 71
Chanel 10 Note Off - Duracao: 762120 Nota: C1 Vol.: 67
Chanel 10 Note On - Duracao: 762120 Nota: C1 Vol.: 73
Chanel 5 Note Off - Duracao: 762180 Nota: C1 Vol.: 62
Chanel 5 Note On - Duracao: 762180 Nota: C1 Vol.: 66
Chanel 4 Note Off - Duracao: 762600 Nota: C1 Vol.: 75
Chanel 4 Note On - Duracao: 762600 Nota: C1 Vol.: 74
Chanel 10 Note Off - Duracao: 762600 Nota: C1 Vol.: 73
Chanel 10 Note On - Duracao: 762600 Nota: C1 Vol.: 72
Chanel 10 Note Off - Duracao: 763080 Nota: C1 Vol.: 72
Chanel 10 Note On - Duracao: 763080 Nota: C1 Vol.: 68
Chanel 9 Note Off - Duracao: 763320 Nota: C1 Vol.: 89
Chanel 9 Note On - Duracao: 763320 Nota: C1 Vol.: 91
Chanel 7 Note Off - Duracao: 763440 Nota: C1 Vol.: 56
Chanel 7 Note On - Duracao: 763440 Nota: C1 Vol.: 51
Chanel 4 Note Off - Duracao: 763560 Nota: C1 Vol.: 74
Chanel 4 Note On - Duracao: 763560 Nota: C1 Vol.: 76
Chanel 10 Note Off - Duracao: 763560 Nota: C1 Vol.: 68
Chanel 10 Note On - Duracao: 763560 Nota: C1 Vol.: 69
Chanel 6 Note Off - Duracao: 763920 Nota: C1 Vol.: 71
Chanel 6 Note On - Duracao: 763920 Nota: C1 Vol.: 69
Chanel 10 Note Off - Duracao: 764040 Nota: C1 Vol.: 69
Chanel 10 Note On - Duracao: 764040 Nota: C1 Vol.: 72
Chanel 5 Note Off - Duracao: 764100 Nota: C1 Vol.: 66
Chanel 5 Note On - Duracao: 764100 Nota: C1 Vol.: 78
Chanel 9 Note Off - Duracao: 764280 Nota: C1 Vol.: 91
Chanel 9 Note On - Duracao: 764280 Nota: C1 Vol.: 89
Chanel 4 Note Off - Duracao: 764520 Nota: C1 Vol.: 76
Chanel 4 Note On - Duracao: 764520 Nota: C1 Vol.: 69
Chanel 10 Note Off - Duracao: 764520 Nota: C1 Vol.: 72
Chanel 10 Note On - Duracao: 764520 Nota: C1 Vol.: 76
Chanel 10 Note Off - Duracao: 764760 Nota: C1 Vol.: 76
Chanel 10 Note On - Duracao: 764760 Nota: C1 Vol.: 77
Chanel 8 Note Off - Duracao: 764940 Nota: C1 Vol.: 49
Chanel 8 Note On - Duracao: 764940 Nota: C1 Vol.: 55
Chanel 2 Note Off - Duracao: 765000 Nota: C1 Vol.: 93
Chanel 2 Note On - Duracao: 765000 Nota: C1 Vol.: 91
Chanel 10 Note Off - Duracao: 765000 Nota: C1 Vol.: 77
Chanel 10 Note On - Duracao: 765000 Nota: C1 Vol.: 83
Chanel 5 Note Off - Duracao: 765060 Nota: C1 Vol.: 78
Chanel 5 Note On - Duracao: 765060 Nota: C1 Vol.: 73
Chanel 10 Note Off - Duracao: 765120 Nota: C1 Vol.: 83
Chanel 10 Note On - Duracao: 765120 Nota: C1 Vol.: 83
Chanel 10 Note Off - Duracao: 765240 Nota: C1 Vol.: 83
Chanel 10 Note On - Duracao: 765240 Nota: C1 Vol.: 83
Chanel 10 Note Off - Duracao: 765480 Nota: C1 Vol.: 83
Chanel 10 Note On - Duracao: 765480 Nota: C1 Vol.: 84
Chanel 10 Note Off - Duracao: 765600 Nota: C1 Vol.: 84
Chanel 10 Note On - Duracao: 765600 Nota: C1 Vol.: 83
Chanel 3 Note Off - Duracao: 765720 Nota: C1 Vol.: 51
Chanel 3 Note On - Duracao: 765720 Nota: C1 Vol.: 45
Chanel 6 Note Off - Duracao: 765840 Nota: C1 Vol.: 69
Chanel 6 Note On - Duracao: 765840 Nota: C1 Vol.: 80
Chanel 10 Note Off - Duracao: 765840 Nota: C1 Vol.: 83
Chanel 10 Note On - Duracao: 765840 Nota: C1 Vol.: 83
Chanel 10 Note Off - Duracao: 766080 Nota: C1 Vol.: 83
Chanel 10 Note On - Duracao: 766080 Nota: C1 Vol.: 83
Chanel 9 Note Off - Duracao: 766200 Nota: C1 Vol.: 89
Chanel 9 Note On - Duracao: 766200 Nota: C1 Vol.: 88
Chanel 10 Note Off - Duracao: 766320 Nota: C1 Vol.: 83
Chanel 10 Note On - Duracao: 766320 Nota: C1 Vol.: 82
Chanel 4 Note Off - Duracao: 766440 Nota: C1 Vol.: 69
Chanel 4 Note On - Duracao: 766440 Nota: C1 Vol.: 70
Chanel 10 Note Off - Duracao: 766560 Nota: C1 Vol.: 82
Chanel 10 Note On - Duracao: 766560 Nota: C1 Vol.: 81
Chanel 6 Note Off - Duracao: 766800 Nota: C1 Vol.: 80
Chanel 6 Note On - Duracao: 766800 Nota: C1 Vol.: 76
Chanel 10 Note Off - Duracao: 766800 Nota: C1 Vol.: 81
Chanel 10 Note On - Duracao: 766800 Nota: C1 Vol.: 83
Chanel 8 Note Off - Duracao: 766860 Nota: C1 Vol.: 55
Chanel 8 Note On - Duracao: 766860 Nota: C1 Vol.: 60
Chanel 2 Note Off - Duracao: 766920 Nota: C1 Vol.: 91
Chanel 2 Note On - Duracao: 766920 Nota: C1 Vol.: 89
Chanel 10 Note Off - Duracao: 766920 Nota: C1 Vol.: 83
Chanel 10 Note On - Duracao: 766920 Nota: C1 Vol.: 84
Chanel 5 Note Off - Duracao: 766980 Nota: C1 Vol.: 73
Chanel 5 Note On - Duracao: 766980 Nota: C1 Vol.: 71
Chanel 10 Note Off - Duracao: 767160 Nota: C1 Vol.: 84
Chanel 10 Note On - Duracao: 767160 Nota: C1 Vol.: 81
Chanel 7 Note Off - Duracao: 767280 Nota: C1 Vol.: 51
Chanel 7 Note On - Duracao: 767280 Nota: C1 Vol.: 50
Chanel 10 Note Off - Duracao: 767400 Nota: C1 Vol.: 81
Chanel 10 Note On - Duracao: 767400 Nota: C1 Vol.: 74
Chanel 10 Note Off - Duracao: 767640 Nota: C1 Vol.: 74
Chanel 10 Note On - Duracao: 767640 Nota: C1 Vol.: 73
Chanel 9 Note Off - Duracao: 768120 Nota: C1 Vol.: 88
Chanel 9 Note On - Duracao: 768120 Nota: C1 Vol.: 86
Chanel 10 Note Off - Duracao: 768120 Nota: C1 Vol.: 73
Chanel 10 Note On - Duracao: 768120 Nota: C1 Vol.: 72
Chanel 4 Note Off - Duracao: 768360 Nota: C1 Vol.: 70
Chanel 4 Note On - Duracao: 768360 Nota: C1 Vol.: 50
Chanel 10 Note Off - Duracao: 768600 Nota: C1 Vol.: 72
Chanel 10 Note On - Duracao: 768600 Nota: C1 Vol.: 67
Chanel 6 Note Off - Duracao: 768720 Nota: C1 Vol.: 76
Chanel 6 Note On - Duracao: 768720 Nota: C1 Vol.: 75
Chanel 8 Note Off - Duracao: 768780 Nota: C1 Vol.: 60
Chanel 8 Note On - Duracao: 768780 Nota: C1 Vol.: 63
Chanel 2 Note Off - Duracao: 768840 Nota: C1 Vol.: 89
Chanel 2 Note On - Duracao: 768840 Nota: C1 Vol.: 56
Chanel 5 Note Off - Duracao: 768900 Nota: C1 Vol.: 71
Chanel 5 Note On - Duracao: 768900 Nota: C1 Vol.: 75
Chanel 3 Note Off - Duracao: 769560 Nota: C1 Vol.: 45
Chanel 3 Note On - Duracao: 769560 Nota: C1 Vol.: 79
Chanel 10 Note Off - Duracao: 769560 Nota: C1 Vol.: 67
Chanel 10 Note On - Duracao: 769560 Nota: C1 Vol.: 64
Chanel 5 Note Off - Duracao: 769860 Nota: C1 Vol.: 75
Chanel 5 Note On - Duracao: 769860 Nota: C1 Vol.: 69
Chanel 3 Note Off - Duracao: 770040 Nota: C1 Vol.: 79
Chanel 3 Note On - Duracao: 770040 Nota: C1 Vol.: 89
Chanel 9 Note Off - Duracao: 770040 Nota: C1 Vol.: 86
Chanel 9 Note On - Duracao: 770040 Nota: C1 Vol.: 91
Chanel 3 Note Off - Duracao: 770160 Nota: C1 Vol.: 89
Chanel 3 Note On - Duracao: 770160 Nota: C1 Vol.: 91
Chanel 3 Note Off - Duracao: 770280 Nota: C1 Vol.: 91
Chanel 3 Note On - Duracao: 770280 Nota: C1 Vol.: 99
Chanel 3 Note Off - Duracao: 770340 Nota: C1 Vol.: 99
Chanel 3 Note On - Duracao: 770340 Nota: C1 Vol.: 99
Chanel 3 Note Off - Duracao: 770400 Nota: C1 Vol.: 99
Chanel 3 Note On - Duracao: 770400 Nota: C1 Vol.: 99
Chanel 3 Note Off - Duracao: 770460 Nota: C1 Vol.: 99
Chanel 3 Note On - Duracao: 770460 Nota: C1 Vol.: 97
Chanel 3 Note Off - Duracao: 770520 Nota: C1 Vol.: 97
Chanel 3 Note On - Duracao: 770520 Nota: C1 Vol.: 98
Chanel 10 Note Off - Duracao: 770520 Nota: C1 Vol.: 64
Chanel 10 Note On - Duracao: 770520 Nota: C1 Vol.: 64
Chanel 3 Note Off - Duracao: 770580 Nota: C1 Vol.: 98
Chanel 3 Note On - Duracao: 770580 Nota: C1 Vol.: 98
Chanel 3 Note Off - Duracao: 770640 Nota: C1 Vol.: 98
Chanel 3 Note On - Duracao: 770640 Nota: C1 Vol.: 62
Chanel 6 Note Off - Duracao: 770640 Nota: C1 Vol.: 75
Chanel 6 Note On - Duracao: 770640 Nota: C1 Vol.: 85
Chanel 8 Note Off - Duracao: 770700 Nota: C1 Vol.: 63
Chanel 8 Note On - Duracao: 770700 Nota: C1 Vol.: 64
Chanel 9 Note Off - Duracao: 771000 Nota: C1 Vol.: 91
Chanel 9 Note On - Duracao: 771000 Nota: C1 Vol.: 91
Chanel 7 Note Off - Duracao: 771120 Nota: C1 Vol.: 50
Chanel 7 Note On - Duracao: 771120 Nota: C1 Vol.: 51
Chanel 10 Note Off - Duracao: 771480 Nota: C1 Vol.: 64
Chanel 10 Note On - Duracao: 771480 Nota: C1 Vol.: 68
Chanel 3 Note Off - Duracao: 771600 Nota: C1 Vol.: 62
Chanel 3 Note On - Duracao: 771600 Nota: C1 Vol.: 46
Chanel 6 Note Off - Duracao: 771600 Nota: C1 Vol.: 85
Chanel 6 Note On - Duracao: 771600 Nota: C1 Vol.: 76
Chanel 5 Note Off - Duracao: 771780 Nota: C1 Vol.: 69
Chanel 5 Note On - Duracao: 771780 Nota: C1 Vol.: 69
Chanel 9 Note Off - Duracao: 771960 Nota: C1 Vol.: 91
Chanel 9 Note On - Duracao: 771960 Nota: C1 Vol.: 91
Chanel 10 Note Off - Duracao: 771960 Nota: C1 Vol.: 68
Chanel 10 Note On - Duracao: 771960 Nota: C1 Vol.: 68
Chanel 4 Note Off - Duracao: 772200 Nota: C1 Vol.: 50
Chanel 4 Note On - Duracao: 772200 Nota: C1 Vol.: 76
Chanel 6 Note Off - Duracao: 772560 Nota: C1 Vol.: 76
Chanel 6 Note On - Duracao: 772560 Nota: C1 Vol.: 81
Chanel 8 Note Off - Duracao: 772620 Nota: C1 Vol.: 64
Chanel 8 Note On - Duracao: 772620 Nota: C1 Vol.: 62
Chanel 2 Note Off - Duracao: 772680 Nota: C1 Vol.: 56
Chanel 2 Note On - Duracao: 772680 Nota: C1 Vol.: 62
Chanel 10 Note Off - Duracao: 772920 Nota: C1 Vol.: 68
Chanel 10 Note On - Duracao: 772920 Nota: C1 Vol.: 61
Chanel 6 Note Off - Duracao: 773040 Nota: C1 Vol.: 81
Chanel 6 Note On - Duracao: 773040 Nota: C1 Vol.: 54
Chanel 4 Note Off - Duracao: 773160 Nota: C1 Vol.: 76
Chanel 4 Note On - Duracao: 773160 Nota: C1 Vol.: 73
Chanel 5 Note Off - Duracao: 773700 Nota: C1 Vol.: 69
Chanel 5 Note On - Duracao: 773700 Nota: C1 Vol.: 66
Chanel 9 Note Off - Duracao: 773880 Nota: C1 Vol.: 91
Chanel 9 Note On - Duracao: 773880 Nota: C1 Vol.: 93
Chanel 4 Note Off - Duracao: 774120 Nota: C1 Vol.: 73
Chanel 4 Note On - Duracao: 774120 Nota: C1 Vol.: 45
Chanel 8 Note Off - Duracao: 774540 Nota: C1 Vol.: 62
Chanel 8 Note On - Duracao: 774540 Nota: C1 Vol.: 62
Chanel 2 Note Off - Duracao: 774600 Nota: C1 Vol.: 62
Chanel 2 Note On - Duracao: 774600 Nota: C1 Vol.: 69
Chanel 10 Note Off - Duracao: 774840 Nota: C1 Vol.: 61
Chanel 10 Note On - Duracao: 774840 Nota: C1 Vol.: 64
Chanel 6 Note Off - Duracao: 774960 Nota: C1 Vol.: 54
Chanel 6 Note On - Duracao: 774960 Nota: C1 Vol.: 49
Chanel 7 Note Off - Duracao: 774960 Nota: C1 Vol.: 51
Chanel 7 Note On - Duracao: 774960 Nota: C1 Vol.: 80
Chanel 3 Note Off - Duracao: 775440 Nota: C1 Vol.: 46
Chanel 3 Note On - Duracao: 775440 Nota: C1 Vol.: 78
Chanel 2 Note Off - Duracao: 775560 Nota: C1 Vol.: 69
Chanel 2 Note On - Duracao: 775560 Nota: C1 Vol.: 67
Chanel 5 Note Off - Duracao: 775620 Nota: C1 Vol.: 66
Chanel 5 Note On - Duracao: 775620 Nota: C1 Vol.: 80
Chanel 3 Note Off - Duracao: 775680 Nota: C1 Vol.: 78
Chanel 3 Note On - Duracao: 775680 Nota: C1 Vol.: 75
Chanel 9 Note Off - Duracao: 775800 Nota: C1 Vol.: 93
Chanel 9 Note On - Duracao: 775800 Nota: C1 Vol.: 88
Chanel 3 Note Off - Duracao: 775920 Nota: C1 Vol.: 75
Chanel 3 Note On - Duracao: 775920 Nota: C1 Vol.: 88
Chanel 6 Note Off - Duracao: 775920 Nota: C1 Vol.: 49
Chanel 6 Note On - Duracao: 775920 Nota: C1 Vol.: 42
Chanel 7 Note Off - Duracao: 775920 Nota: C1 Vol.: 80
Chanel 7 Note On - Duracao: 775920 Nota: C1 Vol.: 83
Chanel 3 Note Off - Duracao: 776040 Nota: C1 Vol.: 88
Chanel 3 Note On - Duracao: 776040 Nota: C1 Vol.: 99
Chanel 3 Note Off - Duracao: 776100 Nota: C1 Vol.: 99
Chanel 3 Note On - Duracao: 776100 Nota: C1 Vol.: 99
Chanel 3 Note Off - Duracao: 776160 Nota: C1 Vol.: 99
Chanel 3 Note On - Duracao: 776160 Nota: C1 Vol.: 100
Chanel 3 Note Off - Duracao: 776220 Nota: C1 Vol.: 100
Chanel 3 Note On - Duracao: 776220 Nota: C1 Vol.: 99
Chanel 3 Note Off - Duracao: 776280 Nota: C1 Vol.: 99
Chanel 3 Note On - Duracao: 776280 Nota: C1 Vol.: 97
Chanel 3 Note Off - Duracao: 776340 Nota: C1 Vol.: 97
Chanel 3 Note On - Duracao: 776340 Nota: C1 Vol.: 87
Chanel 3 Note Off - Duracao: 776460 Nota: C1 Vol.: 87
Chanel 3 Note On - Duracao: 776460 Nota: C1 Vol.: 74
Chanel 8 Note Off - Duracao: 776460 Nota: C1 Vol.: 62
Chanel 8 Note On - Duracao: 776460 Nota: C1 Vol.: 63
Chanel 2 Note Off - Duracao: 776520 Nota: C1 Vol.: 67
Chanel 2 Note On - Duracao: 776520 Nota: C1 Vol.: 68
Chanel 5 Note Off - Duracao: 776580 Nota: C1 Vol.: 80
Chanel 5 Note On - Duracao: 776580 Nota: C1 Vol.: 82
Chanel 3 Note Off - Duracao: 776700 Nota: C1 Vol.: 74
Chanel 3 Note On - Duracao: 776700 Nota: C1 Vol.: 76
Chanel 10 Note Off - Duracao: 776760 Nota: C1 Vol.: 64
Chanel 10 Note On - Duracao: 776760 Nota: C1 Vol.: 65
Chanel 6 Note Off - Duracao: 776880 Nota: C1 Vol.: 42
Chanel 6 Note On - Duracao: 776880 Nota: C1 Vol.: 42
Chanel 7 Note Off - Duracao: 776880 Nota: C1 Vol.: 83
Chanel 7 Note On - Duracao: 776880 Nota: C1 Vol.: 84
Chanel 3 Note Off - Duracao: 776940 Nota: C1 Vol.: 76
Chanel 3 Note On - Duracao: 776940 Nota: C1 Vol.: 75
Chanel 2 Note Off - Duracao: 777000 Nota: C1 Vol.: 68
Chanel 2 Note On - Duracao: 777000 Nota: C1 Vol.: 61
Chanel 3 Note Off - Duracao: 777420 Nota: C1 Vol.: 75
Chanel 3 Note On - Duracao: 777420 Nota: C1 Vol.: 71
Chanel 8 Note Off - Duracao: 777420 Nota: C1 Vol.: 63
Chanel 8 Note On - Duracao: 777420 Nota: C1 Vol.: 60
Chanel 5 Note Off - Duracao: 777540 Nota: C1 Vol.: 82
Chanel 5 Note On - Duracao: 777540 Nota: C1 Vol.: 75
Chanel 9 Note Off - Duracao: 777720 Nota: C1 Vol.: 88
Chanel 9 Note On - Duracao: 777720 Nota: C1 Vol.: 81
Chanel 10 Note Off - Duracao: 777720 Nota: C1 Vol.: 65
Chanel 10 Note On - Duracao: 777720 Nota: C1 Vol.: 67
Chanel 6 Note Off - Duracao: 777840 Nota: C1 Vol.: 42
Chanel 6 Note On - Duracao: 777840 Nota: C1 Vol.: 41
Chanel 7 Note Off - Duracao: 777840 Nota: C1 Vol.: 84
Chanel 7 Note On - Duracao: 777840 Nota: C1 Vol.: 64
Chanel 3 Note Off - Duracao: 777900 Nota: C1 Vol.: 71
Chanel 3 Note On - Duracao: 777900 Nota: C1 Vol.: 79
Chanel 2 Note Off - Duracao: 777960 Nota: C1 Vol.: 61
Chanel 2 Note On - Duracao: 777960 Nota: C1 Vol.: 62
Chanel 4 Note Off - Duracao: 777960 Nota: C1 Vol.: 45
Chanel 4 Note On - Duracao: 777960 Nota: C1 Vol.: 74
Chanel 3 Note Off - Duracao: 778140 Nota: C1 Vol.: 79
Chanel 3 Note On - Duracao: 778140 Nota: C1 Vol.: 77
Chanel 2 Note Off - Duracao: 778440 Nota: C1 Vol.: 62
Chanel 2 Note On - Duracao: 778440 Nota: C1 Vol.: 66
Chanel 4 Note Off - Duracao: 778440 Nota: C1 Vol.: 74
Chanel 4 Note On - Duracao: 778440 Nota: C1 Vol.: 88
Chanel 5 Note Off - Duracao: 778500 Nota: C1 Vol.: 75
Chanel 5 Note On - Duracao: 778500 Nota: C1 Vol.: 81
Chanel 3 Note Off - Duracao: 778620 Nota: C1 Vol.: 77
Chanel 3 Note On - Duracao: 778620 Nota: C1 Vol.: 78
Chanel 2 Note Off - Duracao: 778680 Nota: C1 Vol.: 66
Chanel 2 Note On - Duracao: 778680 Nota: C1 Vol.: 64
Chanel 4 Note Off - Duracao: 778680 Nota: C1 Vol.: 88
Chanel 4 Note On - Duracao: 778680 Nota: C1 Vol.: 86
Chanel 10 Note Off - Duracao: 778680 Nota: C1 Vol.: 67
Chanel 10 Note On - Duracao: 778680 Nota: C1 Vol.: 67
Chanel 6 Note Off - Duracao: 778800 Nota: C1 Vol.: 41
Chanel 6 Note On - Duracao: 778800 Nota: C1 Vol.: 42
Chanel 2 Note Off - Duracao: 778920 Nota: C1 Vol.: 64
Chanel 2 Note On - Duracao: 778920 Nota: C1 Vol.: 67
Chanel 4 Note Off - Duracao: 778920 Nota: C1 Vol.: 86
Chanel 4 Note On - Duracao: 778920 Nota: C1 Vol.: 89
Chanel 5 Note Off - Duracao: 778980 Nota: C1 Vol.: 81
Chanel 5 Note On - Duracao: 778980 Nota: C1 Vol.: 63
Chanel 4 Note Off - Duracao: 779040 Nota: C1 Vol.: 89
Chanel 4 Note On - Duracao: 779040 Nota: C1 Vol.: 83
Chanel 3 Note Off - Duracao: 779100 Nota: C1 Vol.: 78
Chanel 3 Note On - Duracao: 779100 Nota: C1 Vol.: 76
Chanel 4 Note Off - Duracao: 779280 Nota: C1 Vol.: 83
Chanel 4 Note On - Duracao: 779280 Nota: C1 Vol.: 66
Chanel 8 Note Off - Duracao: 779340 Nota: C1 Vol.: 60
Chanel 8 Note On - Duracao: 779340 Nota: C1 Vol.: 61
Chanel 2 Note Off - Duracao: 779400 Nota: C1 Vol.: 67
Chanel 2 Note On - Duracao: 779400 Nota: C1 Vol.: 64
Chanel 3 Note Off - Duracao: 779580 Nota: C1 Vol.: 76
Chanel 3 Note On - Duracao: 779580 Nota: C1 Vol.: 73
Chanel 10 Note Off - Duracao: 779640 Nota: C1 Vol.: 67
Chanel 10 Note On - Duracao: 779640 Nota: C1 Vol.: 68
Chanel 4 Note Off - Duracao: 779760 Nota: C1 Vol.: 66
Chanel 4 Note On - Duracao: 779760 Nota: C1 Vol.: 92
Chanel 6 Note Off - Duracao: 779760 Nota: C1 Vol.: 42
Chanel 6 Note On - Duracao: 779760 Nota: C1 Vol.: 44
Chanel 7 Note Off - Duracao: 779760 Nota: C1 Vol.: 64
Chanel 7 Note On - Duracao: 779760 Nota: C1 Vol.: 58
Chanel 4 Note Off - Duracao: 779880 Nota: C1 Vol.: 92
Chanel 4 Note On - Duracao: 779880 Nota: C1 Vol.: 89
Chanel 4 Note Off - Duracao: 780000 Nota: C1 Vol.: 89
Chanel 4 Note On - Duracao: 780000 Nota: C1 Vol.: 87
Chanel 3 Note Off - Duracao: 780060 Nota: C1 Vol.: 73
Chanel 3 Note On - Duracao: 780060 Nota: C1 Vol.: 72
Chanel 4 Note Off - Duracao: 780120 Nota: C1 Vol.: 87
Chanel 4 Note On - Duracao: 780120 Nota: C1 Vol.: 88
Chanel 4 Note Off - Duracao: 780240 Nota: C1 Vol.: 88
Chanel 4 Note On - Duracao: 780240 Nota: C1 Vol.: 85
Chanel 2 Note Off - Duracao: 780360 Nota: C1 Vol.: 64
Chanel 2 Note On - Duracao: 780360 Nota: C1 Vol.: 78
Chanel 4 Note Off - Duracao: 780360 Nota: C1 Vol.: 85
Chanel 4 Note On - Duracao: 780360 Nota: C1 Vol.: 92
Chanel 4 Note Off - Duracao: 780480 Nota: C1 Vol.: 92
Chanel 4 Note On - Duracao: 780480 Nota: C1 Vol.: 95
Chanel 4 Note Off - Duracao: 780540 Nota: C1 Vol.: 95
Chanel 4 Note On - Duracao: 780540 Nota: C1 Vol.: 98
Chanel 2 Note Off - Duracao: 780600 Nota: C1 Vol.: 78
Chanel 2 Note On - Duracao: 780600 Nota: C1 Vol.: 87
Chanel 4 Note Off - Duracao: 780600 Nota: C1 Vol.: 98
Chanel 4 Note On - Duracao: 780600 Nota: C1 Vol.: 97
Chanel 10 Note Off - Duracao: 780600 Nota: C1 Vol.: 68
Chanel 10 Note On - Duracao: 780600 Nota: C1 Vol.: 67
Chanel 4 Note Off - Duracao: 780660 Nota: C1 Vol.: 97
Chanel 4 Note On - Duracao: 780660 Nota: C1 Vol.: 80
Chanel 6 Note Off - Duracao: 780720 Nota: C1 Vol.: 44
Chanel 6 Note On - Duracao: 780720 Nota: C1 Vol.: 50
Chanel 2 Note Off - Duracao: 780840 Nota: C1 Vol.: 87
Chanel 2 Note On - Duracao: 780840 Nota: C1 Vol.: 81
Chanel 4 Note Off - Duracao: 780900 Nota: C1 Vol.: 80
Chanel 4 Note On - Duracao: 780900 Nota: C1 Vol.: 60
Chanel 5 Note Off - Duracao: 780900 Nota: C1 Vol.: 63
Chanel 5 Note On - Duracao: 780900 Nota: C1 Vol.: 64
Chanel 2 Note Off - Duracao: 780960 Nota: C1 Vol.: 81
Chanel 2 Note On - Duracao: 780960 Nota: C1 Vol.: 79
Chanel 3 Note Off - Duracao: 781020 Nota: C1 Vol.: 72
Chanel 3 Note On - Duracao: 781020 Nota: C1 Vol.: 70
Chanel 2 Note Off - Duracao: 781200 Nota: C1 Vol.: 79
Chanel 2 Note On - Duracao: 781200 Nota: C1 Vol.: 69
Chanel 6 Note Off - Duracao: 781200 Nota: C1 Vol.: 50
Chanel 6 Note On - Duracao: 781200 Nota: C1 Vol.: 43
Chanel 8 Note Off - Duracao: 781260 Nota: C1 Vol.: 61
Chanel 8 Note On - Duracao: 781260 Nota: C1 Vol.: 65
Chanel 9 Note Off - Duracao: 781560 Nota: C1 Vol.: 81
Chanel 9 Note On - Duracao: 781560 Nota: C1 Vol.: 91
Chanel 2 Note Off - Duracao: 781680 Nota: C1 Vol.: 69
Chanel 2 Note On - Duracao: 781680 Nota: C1 Vol.: 76
Chanel 4 Note Off - Duracao: 781860 Nota: C1 Vol.: 60
Chanel 4 Note On - Duracao: 781860 Nota: C1 Vol.: 91
Chanel 2 Note Off - Duracao: 781920 Nota: C1 Vol.: 76
Chanel 2 Note On - Duracao: 781920 Nota: C1 Vol.: 75
Chanel 3 Note Off - Duracao: 781980 Nota: C1 Vol.: 70
Chanel 3 Note On - Duracao: 781980 Nota: C1 Vol.: 70
Chanel 4 Note Off - Duracao: 781980 Nota: C1 Vol.: 91
Chanel 4 Note On - Duracao: 781980 Nota: C1 Vol.: 92
Chanel 4 Note Off - Duracao: 782100 Nota: C1 Vol.: 92
Chanel 4 Note On - Duracao: 782100 Nota: C1 Vol.: 98
Chanel 2 Note Off - Duracao: 782160 Nota: C1 Vol.: 75
Chanel 2 Note On - Duracao: 782160 Nota: C1 Vol.: 85
Chanel 4 Note Off - Duracao: 782160 Nota: C1 Vol.: 98
Chanel 4 Note On - Duracao: 782160 Nota: C1 Vol.: 99
Chanel 6 Note Off - Duracao: 782160 Nota: C1 Vol.: 43
Chanel 6 Note On - Duracao: 782160 Nota: C1 Vol.: 42
Chanel 4 Note Off - Duracao: 782220 Nota: C1 Vol.: 99
Chanel 4 Note On - Duracao: 782220 Nota: C1 Vol.: 97
Chanel 2 Note Off - Duracao: 782280 Nota: C1 Vol.: 85
Chanel 2 Note On - Duracao: 782280 Nota: C1 Vol.: 83
Chanel 4 Note Off - Duracao: 782280 Nota: C1 Vol.: 97
Chanel 4 Note On - Duracao: 782280 Nota: C1 Vol.: 87
Chanel 2 Note Off - Duracao: 782400 Nota: C1 Vol.: 83
Chanel 2 Note On - Duracao: 782400 Nota: C1 Vol.: 78
Chanel 4 Note Off - Duracao: 782400 Nota: C1 Vol.: 87
Chanel 4 Note On - Duracao: 782400 Nota: C1 Vol.: 98
Chanel 4 Note Off - Duracao: 782460 Nota: C1 Vol.: 98
Chanel 4 Note On - Duracao: 782460 Nota: C1 Vol.: 96
Chanel 4 Note Off - Duracao: 782520 Nota: C1 Vol.: 96
Chanel 4 Note On - Duracao: 782520 Nota: C1 Vol.: 92
Chanel 9 Note Off - Duracao: 782520 Nota: C1 Vol.: 91
Chanel 9 Note On - Duracao: 782520 Nota: C1 Vol.: 78
Chanel 10 Note Off - Duracao: 782520 Nota: C1 Vol.: 67
Chanel 10 Note On - Duracao: 782520 Nota: C1 Vol.: 73
Chanel 2 Note Off - Duracao: 782640 Nota: C1 Vol.: 78
Chanel 2 Note On - Duracao: 782640 Nota: C1 Vol.: 79
Chanel 4 Note Off - Duracao: 782640 Nota: C1 Vol.: 92
Chanel 4 Note On - Duracao: 782640 Nota: C1 Vol.: 56
Chanel 5 Note Off - Duracao: 782820 Nota: C1 Vol.: 64
Chanel 5 Note On - Duracao: 782820 Nota: C1 Vol.: 64
Chanel 2 Note Off - Duracao: 782880 Nota: C1 Vol.: 79
Chanel 2 Note On - Duracao: 782880 Nota: C1 Vol.: 81
Chanel 3 Note Off - Duracao: 782940 Nota: C1 Vol.: 70
Chanel 3 Note On - Duracao: 782940 Nota: C1 Vol.: 85
Chanel 2 Note Off - Duracao: 783120 Nota: C1 Vol.: 81
Chanel 2 Note On - Duracao: 783120 Nota: C1 Vol.: 75
Chanel 6 Note Off - Duracao: 783120 Nota: C1 Vol.: 42
Chanel 6 Note On - Duracao: 783120 Nota: C1 Vol.: 43
Chanel 3 Note Off - Duracao: 783180 Nota: C1 Vol.: 85
Chanel 3 Note On - Duracao: 783180 Nota: C1 Vol.: 88
Chanel 8 Note Off - Duracao: 783180 Nota: C1 Vol.: 65
Chanel 8 Note On - Duracao: 783180 Nota: C1 Vol.: 57
Chanel 2 Note Off - Duracao: 783360 Nota: C1 Vol.: 75
Chanel 2 Note On - Duracao: 783360 Nota: C1 Vol.: 79
Chanel 3 Note Off - Duracao: 783420 Nota: C1 Vol.: 88
Chanel 3 Note On - Duracao: 783420 Nota: C1 Vol.: 95
Chanel 10 Note Off - Duracao: 783480 Nota: C1 Vol.: 73
Chanel 10 Note On - Duracao: 783480 Nota: C1 Vol.: 76
Chanel 3 Note Off - Duracao: 783540 Nota: C1 Vol.: 95
Chanel 3 Note On - Duracao: 783540 Nota: C1 Vol.: 94
Chanel 2 Note Off - Duracao: 783600 Nota: C1 Vol.: 79
Chanel 2 Note On - Duracao: 783600 Nota: C1 Vol.: 81
Chanel 7 Note Off - Duracao: 783600 Nota: C1 Vol.: 58
Chanel 7 Note On - Duracao: 783600 Nota: C1 Vol.: 57
Chanel 3 Note Off - Duracao: 783660 Nota: C1 Vol.: 94
Chanel 3 Note On - Duracao: 783660 Nota: C1 Vol.: 72
Chanel 2 Note Off - Duracao: 783840 Nota: C1 Vol.: 81
Chanel 2 Note On - Duracao: 783840 Nota: C1 Vol.: 75
Chanel 2 Note Off - Duracao: 784080 Nota: C1 Vol.: 75
Chanel 2 Note On - Duracao: 784080 Nota: C1 Vol.: 79
Chanel 6 Note Off - Duracao: 784080 Nota: C1 Vol.: 43
Chanel 6 Note On - Duracao: 784080 Nota: C1 Vol.: 40
Chanel 3 Note Off - Duracao: 784140 Nota: C1 Vol.: 72
Chanel 3 Note On - Duracao: 784140 Nota: C1 Vol.: 53
Chanel 2 Note Off - Duracao: 784320 Nota: C1 Vol.: 79
Chanel 2 Note On - Duracao: 784320 Nota: C1 Vol.: 80
Chanel 9 Note Off - Duracao: 784440 Nota: C1 Vol.: 78
Chanel 9 Note On - Duracao: 784440 Nota: C1 Vol.: 70
Chanel 10 Note Off - Duracao: 784440 Nota: C1 Vol.: 76
Chanel 10 Note On - Duracao: 784440 Nota: C1 Vol.: 75
Chanel 2 Note Off - Duracao: 784560 Nota: C1 Vol.: 80
Chanel 2 Note On - Duracao: 784560 Nota: C1 Vol.: 79
Chanel 4 Note Off - Duracao: 784560 Nota: C1 Vol.: 56
Chanel 4 Note On - Duracao: 784560 Nota: C1 Vol.: 51
Chanel 5 Note Off - Duracao: 784740 Nota: C1 Vol.: 64
Chanel 5 Note On - Duracao: 784740 Nota: C1 Vol.: 70
Chanel 2 Note Off - Duracao: 784800 Nota: C1 Vol.: 79
Chanel 2 Note On - Duracao: 784800 Nota: C1 Vol.: 91
Chanel 2 Note Off - Duracao: 784920 Nota: C1 Vol.: 91
Chanel 2 Note On - Duracao: 784920 Nota: C1 Vol.: 82
Chanel 6 Note Off - Duracao: 785040 Nota: C1 Vol.: 40
Chanel 6 Note On - Duracao: 785040 Nota: C1 Vol.: 41
Chanel 2 Note Off - Duracao: 785160 Nota: C1 Vol.: 82
Chanel 2 Note On - Duracao: 785160 Nota: C1 Vol.: 76
Chanel 10 Note Off - Duracao: 785400 Nota: C1 Vol.: 75
Chanel 10 Note On - Duracao: 785400 Nota: C1 Vol.: 71
Chanel 7 Note Off - Duracao: 785520 Nota: C1 Vol.: 57
Chanel 7 Note On - Duracao: 785520 Nota: C1 Vol.: 57
Chanel 2 Note Off - Duracao: 785640 Nota: C1 Vol.: 76
Chanel 2 Note On - Duracao: 785640 Nota: C1 Vol.: 88
Chanel 2 Note Off - Duracao: 785880 Nota: C1 Vol.: 88
Chanel 2 Note On - Duracao: 785880 Nota: C1 Vol.: 78
Chanel 6 Note Off - Duracao: 786000 Nota: C1 Vol.: 41
Chanel 6 Note On - Duracao: 786000 Nota: C1 Vol.: 40
Chanel 3 Note Off - Duracao: 786060 Nota: C1 Vol.: 53
Chanel 3 Note On - Duracao: 786060 Nota: C1 Vol.: 49
Chanel 2 Note Off - Duracao: 786360 Nota: C1 Vol.: 78
Chanel 2 Note On - Duracao: 786360 Nota: C1 Vol.: 85
Chanel 4 Note Off - Duracao: 786480 Nota: C1 Vol.: 51
Chanel 4 Note On - Duracao: 786480 Nota: C1 Vol.: 65
Chanel 2 Note Off - Duracao: 786600 Nota: C1 Vol.: 85
Chanel 2 Note On - Duracao: 786600 Nota: C1 Vol.: 87
Chanel 5 Note Off - Duracao: 786660 Nota: C1 Vol.: 70
Chanel 5 Note On - Duracao: 786660 Nota: C1 Vol.: 75
Chanel 2 Note Off - Duracao: 786840 Nota: C1 Vol.: 87
Chanel 2 Note On - Duracao: 786840 Nota: C1 Vol.: 90
Chanel 2 Note Off - Duracao: 786960 Nota: C1 Vol.: 90
Chanel 2 Note On - Duracao: 786960 Nota: C1 Vol.: 98
Chanel 6 Note Off - Duracao: 786960 Nota: C1 Vol.: 40
Chanel 6 Note On - Duracao: 786960 Nota: C1 Vol.: 40
Chanel 8 Note Off - Duracao: 787020 Nota: C1 Vol.: 57
Chanel 8 Note On - Duracao: 787020 Nota: C1 Vol.: 80
Chanel 2 Note Off - Duracao: 787080 Nota: C1 Vol.: 98
Chanel 2 Note On - Duracao: 787080 Nota: C1 Vol.: 94
Chanel 2 Note Off - Duracao: 787200 Nota: C1 Vol.: 94
Chanel 2 Note On - Duracao: 787200 Nota: C1 Vol.: 82
Chanel 10 Note Off - Duracao: 787320 Nota: C1 Vol.: 71
Chanel 10 Note On - Duracao: 787320 Nota: C1 Vol.: 74
Chanel 2 Note Off - Duracao: 787440 Nota: C1 Vol.: 82
Chanel 2 Note On - Duracao: 787440 Nota: C1 Vol.: 73
Chanel 4 Note Off - Duracao: 787440 Nota: C1 Vol.: 65
Chanel 4 Note On - Duracao: 787440 Nota: C1 Vol.: 87
Chanel 7 Note Off - Duracao: 787440 Nota: C1 Vol.: 57
Chanel 7 Note On - Duracao: 787440 Nota: C1 Vol.: 59
Chanel 8 Note Off - Duracao: 787500 Nota: C1 Vol.: 80
Chanel 8 Note On - Duracao: 787500 Nota: C1 Vol.: 79
Chanel 5 Note Off - Duracao: 787620 Nota: C1 Vol.: 75
Chanel 5 Note On - Duracao: 787620 Nota: C1 Vol.: 71
Chanel 4 Note Off - Duracao: 787680 Nota: C1 Vol.: 87
Chanel 4 Note On - Duracao: 787680 Nota: C1 Vol.: 98
Chanel 4 Note Off - Duracao: 787740 Nota: C1 Vol.: 98
Chanel 4 Note On - Duracao: 787740 Nota: C1 Vol.: 99
Chanel 4 Note Off - Duracao: 787800 Nota: C1 Vol.: 99
Chanel 4 Note On - Duracao: 787800 Nota: C1 Vol.: 97
Chanel 4 Note Off - Duracao: 787920 Nota: C1 Vol.: 97
Chanel 4 Note On - Duracao: 787920 Nota: C1 Vol.: 65
Chanel 6 Note Off - Duracao: 787920 Nota: C1 Vol.: 40
Chanel 6 Note On - Duracao: 787920 Nota: C1 Vol.: 44
Chanel 8 Note Off - Duracao: 787980 Nota: C1 Vol.: 79
Chanel 8 Note On - Duracao: 787980 Nota: C1 Vol.: 56
Chanel 9 Note Off - Duracao: 788280 Nota: C1 Vol.: 70
Chanel 9 Note On - Duracao: 788280 Nota: C1 Vol.: 81
Chanel 10 Note Off - Duracao: 788280 Nota: C1 Vol.: 74
Chanel 10 Note On - Duracao: 788280 Nota: C1 Vol.: 73
Chanel 2 Note Off - Duracao: 788400 Nota: C1 Vol.: 73
Chanel 2 Note On - Duracao: 788400 Nota: C1 Vol.: 62
Chanel 6 Note Off - Duracao: 788400 Nota: C1 Vol.: 44
Chanel 6 Note On - Duracao: 788400 Nota: C1 Vol.: 48
Chanel 4 Note Off - Duracao: 788880 Nota: C1 Vol.: 65
Chanel 4 Note On - Duracao: 788880 Nota: C1 Vol.: 49
Chanel 6 Note Off - Duracao: 788880 Nota: C1 Vol.: 48
Chanel 6 Note On - Duracao: 788880 Nota: C1 Vol.: 48
Chanel 9 Note Off - Duracao: 789240 Nota: C1 Vol.: 81
Chanel 9 Note On - Duracao: 789240 Nota: C1 Vol.: 80
Chanel 10 Note Off - Duracao: 789240 Nota: C1 Vol.: 73
Chanel 10 Note On - Duracao: 789240 Nota: C1 Vol.: 71
Chanel 6 Note Off - Duracao: 789360 Nota: C1 Vol.: 48
Chanel 6 Note On - Duracao: 789360 Nota: C1 Vol.: 47
Chanel 7 Note Off - Duracao: 789360 Nota: C1 Vol.: 59
Chanel 7 Note On - Duracao: 789360 Nota: C1 Vol.: 59
Chanel 5 Note Off - Duracao: 789540 Nota: C1 Vol.: 71
Chanel 5 Note On - Duracao: 789540 Nota: C1 Vol.: 75
Chanel 6 Note Off - Duracao: 789840 Nota: C1 Vol.: 47
Chanel 6 Note On - Duracao: 789840 Nota: C1 Vol.: 48
Chanel 3 Note Off - Duracao: 789900 Nota: C1 Vol.: 49
Chanel 3 Note On - Duracao: 789900 Nota: C1 Vol.: 51
Chanel 9 Note Off - Duracao: 790200 Nota: C1 Vol.: 80
Chanel 9 Note On - Duracao: 790200 Nota: C1 Vol.: 89
Chanel 10 Note Off - Duracao: 790200 Nota: C1 Vol.: 71
Chanel 10 Note On - Duracao: 790200 Nota: C1 Vol.: 70
Chanel 2 Note Off - Duracao: 790320 Nota: C1 Vol.: 62
Chanel 2 Note On - Duracao: 790320 Nota: C1 Vol.: 69
Chanel 6 Note Off - Duracao: 790320 Nota: C1 Vol.: 48
Chanel 6 Note On - Duracao: 790320 Nota: C1 Vol.: 48
Chanel 5 Note Off - Duracao: 790500 Nota: C1 Vol.: 75
Chanel 5 Note On - Duracao: 790500 Nota: C1 Vol.: 76
Chanel 9 Note Off - Duracao: 790680 Nota: C1 Vol.: 89
Chanel 9 Note On - Duracao: 790680 Nota: C1 Vol.: 86
Chanel 4 Note Off - Duracao: 790800 Nota: C1 Vol.: 49
Chanel 4 Note On - Duracao: 790800 Nota: C1 Vol.: 48
Chanel 6 Note Off - Duracao: 790800 Nota: C1 Vol.: 48
Chanel 6 Note On - Duracao: 790800 Nota: C1 Vol.: 48
Chanel 9 Note Off - Duracao: 791160 Nota: C1 Vol.: 86
Chanel 9 Note On - Duracao: 791160 Nota: C1 Vol.: 86
Chanel 2 Note Off - Duracao: 791280 Nota: C1 Vol.: 69
Chanel 2 Note On - Duracao: 791280 Nota: C1 Vol.: 67
Chanel 6 Note Off - Duracao: 791280 Nota: C1 Vol.: 48
Chanel 6 Note On - Duracao: 791280 Nota: C1 Vol.: 48
Chanel 7 Note Off - Duracao: 791280 Nota: C1 Vol.: 59
Chanel 7 Note On - Duracao: 791280 Nota: C1 Vol.: 67
Chanel 5 Note Off - Duracao: 791460 Nota: C1 Vol.: 76
Chanel 5 Note On - Duracao: 791460 Nota: C1 Vol.: 64
Chanel 6 Note Off - Duracao: 791760 Nota: C1 Vol.: 48
Chanel 6 Note On - Duracao: 791760 Nota: C1 Vol.: 48
Chanel 3 Note Off - Duracao: 791820 Nota: C1 Vol.: 51
Chanel 3 Note On - Duracao: 791820 Nota: C1 Vol.: 57
Chanel 8 Note Off - Duracao: 791820 Nota: C1 Vol.: 56
Chanel 8 Note On - Duracao: 791820 Nota: C1 Vol.: 57
Chanel 9 Note Off - Duracao: 792120 Nota: C1 Vol.: 86
Chanel 9 Note On - Duracao: 792120 Nota: C1 Vol.: 85
Chanel 10 Note Off - Duracao: 792120 Nota: C1 Vol.: 70
Chanel 10 Note On - Duracao: 792120 Nota: C1 Vol.: 72
Chanel 2 Note Off - Duracao: 792240 Nota: C1 Vol.: 67
Chanel 2 Note On - Duracao: 792240 Nota: C1 Vol.: 63
Chanel 6 Note Off - Duracao: 792240 Nota: C1 Vol.: 48
Chanel 6 Note On - Duracao: 792240 Nota: C1 Vol.: 48
Chanel 6 Note Off - Duracao: 792720 Nota: C1 Vol.: 48
Chanel 6 Note On - Duracao: 792720 Nota: C1 Vol.: 48
Chanel 9 Note Off - Duracao: 793080 Nota: C1 Vol.: 85
Chanel 9 Note On - Duracao: 793080 Nota: C1 Vol.: 67
Chanel 10 Note Off - Duracao: 793080 Nota: C1 Vol.: 72
Chanel 10 Note On - Duracao: 793080 Nota: C1 Vol.: 81
Chanel 6 Note Off - Duracao: 793200 Nota: C1 Vol.: 48
Chanel 6 Note On - Duracao: 793200 Nota: C1 Vol.: 48
Chanel 7 Note Off - Duracao: 793200 Nota: C1 Vol.: 67
Chanel 7 Note On - Duracao: 793200 Nota: C1 Vol.: 68
Chanel 5 Note Off - Duracao: 793380 Nota: C1 Vol.: 64
Chanel 5 Note On - Duracao: 793380 Nota: C1 Vol.: 63
Chanel 10 Note Off - Duracao: 793560 Nota: C1 Vol.: 81
Chanel 10 Note On - Duracao: 793560 Nota: C1 Vol.: 89
Chanel 6 Note Off - Duracao: 793680 Nota: C1 Vol.: 48
Chanel 6 Note On - Duracao: 793680 Nota: C1 Vol.: 48
Chanel 3 Note Off - Duracao: 793740 Nota: C1 Vol.: 57
Chanel 3 Note On - Duracao: 793740 Nota: C1 Vol.: 69
Chanel 10 Note Off - Duracao: 793800 Nota: C1 Vol.: 89
Chanel 10 Note On - Duracao: 793800 Nota: C1 Vol.: 82
Chanel 10 Note Off - Duracao: 794040 Nota: C1 Vol.: 82
Chanel 10 Note On - Duracao: 794040 Nota: C1 Vol.: 85
Chanel 2 Note Off - Duracao: 794160 Nota: C1 Vol.: 63
Chanel 2 Note On - Duracao: 794160 Nota: C1 Vol.: 60
Chanel 6 Note Off - Duracao: 794160 Nota: C1 Vol.: 48
Chanel 6 Note On - Duracao: 794160 Nota: C1 Vol.: 47
Chanel 7 Note Off - Duracao: 794160 Nota: C1 Vol.: 68
Chanel 7 Note On - Duracao: 794160 Nota: C1 Vol.: 65
Chanel 10 Note Off - Duracao: 794280 Nota: C1 Vol.: 85
Chanel 10 Note On - Duracao: 794280 Nota: C1 Vol.: 86
Chanel 5 Note Off - Duracao: 794340 Nota: C1 Vol.: 63
Chanel 5 Note On - Duracao: 794340 Nota: C1 Vol.: 87
Chanel 10 Note Off - Duracao: 794400 Nota: C1 Vol.: 86
Chanel 10 Note On - Duracao: 794400 Nota: C1 Vol.: 83
Chanel 5 Note Off - Duracao: 794460 Nota: C1 Vol.: 87
Chanel 5 Note On - Duracao: 794460 Nota: C1 Vol.: 49
Chanel 10 Note Off - Duracao: 794520 Nota: C1 Vol.: 83
Chanel 10 Note On - Duracao: 794520 Nota: C1 Vol.: 77
Chanel 4 Note Off - Duracao: 794640 Nota: C1 Vol.: 48
Chanel 4 Note On - Duracao: 794640 Nota: C1 Vol.: 89
Chanel 6 Note Off - Duracao: 794640 Nota: C1 Vol.: 47
Chanel 6 Note On - Duracao: 794640 Nota: C1 Vol.: 48
Chanel 3 Note Off - Duracao: 794700 Nota: C1 Vol.: 69
Chanel 3 Note On - Duracao: 794700 Nota: C1 Vol.: 71
Chanel 4 Note Off - Duracao: 794760 Nota: C1 Vol.: 89
Chanel 4 Note On - Duracao: 794760 Nota: C1 Vol.: 87
Chanel 10 Note Off - Duracao: 794760 Nota: C1 Vol.: 77
Chanel 10 Note On - Duracao: 794760 Nota: C1 Vol.: 72
Chanel 4 Note Off - Duracao: 794880 Nota: C1 Vol.: 87
Chanel 4 Note On - Duracao: 794880 Nota: C1 Vol.: 98
Chanel 4 Note Off - Duracao: 794940 Nota: C1 Vol.: 98
Chanel 4 Note On - Duracao: 794940 Nota: C1 Vol.: 99
Chanel 4 Note Off - Duracao: 795000 Nota: C1 Vol.: 99
Chanel 4 Note On - Duracao: 795000 Nota: C1 Vol.: 100
Chanel 9 Note Off - Duracao: 795000 Nota: C1 Vol.: 67
Chanel 9 Note On - Duracao: 795000 Nota: C1 Vol.: 63
Chanel 10 Note Off - Duracao: 795000 Nota: C1 Vol.: 72
Chanel 10 Note On - Duracao: 795000 Nota: C1 Vol.: 70
Chanel 4 Note Off - Duracao: 795060 Nota: C1 Vol.: 100
Chanel 4 Note On - Duracao: 795060 Nota: C1 Vol.: 99
Chanel 4 Note Off - Duracao: 795120 Nota: C1 Vol.: 99
Chanel 4 Note On - Duracao: 795120 Nota: C1 Vol.: 99
Chanel 6 Note Off - Duracao: 795120 Nota: C1 Vol.: 48
Chanel 6 Note On - Duracao: 795120 Nota: C1 Vol.: 50
Chanel 7 Note Off - Duracao: 795120 Nota: C1 Vol.: 65
Chanel 7 Note On - Duracao: 795120 Nota: C1 Vol.: 57
Chanel 4 Note Off - Duracao: 795180 Nota: C1 Vol.: 99
Chanel 4 Note On - Duracao: 795180 Nota: C1 Vol.: 98
Chanel 4 Note Off - Duracao: 795240 Nota: C1 Vol.: 98
Chanel 4 Note On - Duracao: 795240 Nota: C1 Vol.: 91
Chanel 4 Note Off - Duracao: 795360 Nota: C1 Vol.: 91
Chanel 4 Note On - Duracao: 795360 Nota: C1 Vol.: 46
Chanel 10 Note Off - Duracao: 795480 Nota: C1 Vol.: 70
Chanel 10 Note On - Duracao: 795480 Nota: C1 Vol.: 71
Chanel 6 Note Off - Duracao: 795600 Nota: C1 Vol.: 50
Chanel 6 Note On - Duracao: 795600 Nota: C1 Vol.: 45
Chanel 3 Note Off - Duracao: 795660 Nota: C1 Vol.: 71
Chanel 3 Note On - Duracao: 795660 Nota: C1 Vol.: 78
Chanel 8 Note Off - Duracao: 795660 Nota: C1 Vol.: 57
Chanel 8 Note On - Duracao: 795660 Nota: C1 Vol.: 61
Chanel 10 Note Off - Duracao: 795960 Nota: C1 Vol.: 71
Chanel 10 Note On - Duracao: 795960 Nota: C1 Vol.: 64
Chanel 2 Note Off - Duracao: 796080 Nota: C1 Vol.: 60
Chanel 2 Note On - Duracao: 796080 Nota: C1 Vol.: 70
Chanel 3 Note Off - Duracao: 796140 Nota: C1 Vol.: 78
Chanel 3 Note On - Duracao: 796140 Nota: C1 Vol.: 87
Chanel 3 Note Off - Duracao: 796380 Nota: C1 Vol.: 87
Chanel 3 Note On - Duracao: 796380 Nota: C1 Vol.: 89
Chanel 5 Note Off - Duracao: 796380 Nota: C1 Vol.: 49
Chanel 5 Note On - Duracao: 796380 Nota: C1 Vol.: 65
Chanel 6 Note Off - Duracao: 796560 Nota: C1 Vol.: 45
Chanel 6 Note On - Duracao: 796560 Nota: C1 Vol.: 41
Chanel 3 Note Off - Duracao: 796620 Nota: C1 Vol.: 89
Chanel 3 Note On - Duracao: 796620 Nota: C1 Vol.: 79
Chanel 5 Note Off - Duracao: 796860 Nota: C1 Vol.: 65
Chanel 5 Note On - Duracao: 796860 Nota: C1 Vol.: 77
Chanel 10 Note Off - Duracao: 796920 Nota: C1 Vol.: 64
Chanel 10 Note On - Duracao: 796920 Nota: C1 Vol.: 76
Chanel 2 Note Off - Duracao: 797040 Nota: C1 Vol.: 70
Chanel 2 Note On - Duracao: 797040 Nota: C1 Vol.: 79
Chanel 7 Note Off - Duracao: 797040 Nota: C1 Vol.: 57
Chanel 7 Note On - Duracao: 797040 Nota: C1 Vol.: 45
Chanel 3 Note Off - Duracao: 797100 Nota: C1 Vol.: 79
Chanel 3 Note On - Duracao: 797100 Nota: C1 Vol.: 75
Chanel 5 Note Off - Duracao: 797100 Nota: C1 Vol.: 77
Chanel 5 Note On - Duracao: 797100 Nota: C1 Vol.: 87
Chanel 5 Note Off - Duracao: 797220 Nota: C1 Vol.: 87
Chanel 5 Note On - Duracao: 797220 Nota: C1 Vol.: 92
Chanel 5 Note Off - Duracao: 797280 Nota: C1 Vol.: 92
Chanel 5 Note On - Duracao: 797280 Nota: C1 Vol.: 57
Chanel 10 Note Off - Duracao: 797400 Nota: C1 Vol.: 76
Chanel 10 Note On - Duracao: 797400 Nota: C1 Vol.: 66
Chanel 8 Note Off - Duracao: 797580 Nota: C1 Vol.: 61
Chanel 8 Note On - Duracao: 797580 Nota: C1 Vol.: 64
Chanel 2 Note Off - Duracao: 798000 Nota: C1 Vol.: 79
Chanel 2 Note On - Duracao: 798000 Nota: C1 Vol.: 80
Chanel 3 Note Off - Duracao: 798060 Nota: C1 Vol.: 75
Chanel 3 Note On - Duracao: 798060 Nota: C1 Vol.: 78
Chanel 5 Note Off - Duracao: 798240 Nota: C1 Vol.: 57
Chanel 5 Note On - Duracao: 798240 Nota: C1 Vol.: 54
Chanel 6 Note Off - Duracao: 798480 Nota: C1 Vol.: 41
Chanel 6 Note On - Duracao: 798480 Nota: C1 Vol.: 48
Chanel 9 Note Off - Duracao: 798840 Nota: C1 Vol.: 63
Chanel 9 Note On - Duracao: 798840 Nota: C1 Vol.: 59
Chanel 2 Note Off - Duracao: 798960 Nota: C1 Vol.: 80
Chanel 2 Note On - Duracao: 798960 Nota: C1 Vol.: 82
Chanel 7 Note Off - Duracao: 798960 Nota: C1 Vol.: 45
Chanel 7 Note On - Duracao: 798960 Nota: C1 Vol.: 43
Chanel 3 Note Off - Duracao: 799020 Nota: C1 Vol.: 78
Chanel 3 Note On - Duracao: 799020 Nota: C1 Vol.: 77
Chanel 4 Note Off - Duracao: 799200 Nota: C1 Vol.: 46
Chanel 4 Note On - Duracao: 799200 Nota: C1 Vol.: 47
Chanel 5 Note Off - Duracao: 799200 Nota: C1 Vol.: 54
Chanel 5 Note On - Duracao: 799200 Nota: C1 Vol.: 46
Chanel 10 Note Off - Duracao: 799320 Nota: C1 Vol.: 66
Chanel 10 Note On - Duracao: 799320 Nota: C1 Vol.: 68
Chanel 6 Note Off - Duracao: 799440 Nota: C1 Vol.: 48
Chanel 6 Note On - Duracao: 799440 Nota: C1 Vol.: 50
Chanel 8 Note Off - Duracao: 799500 Nota: C1 Vol.: 64
Chanel 8 Note On - Duracao: 799500 Nota: C1 Vol.: 70
Chanel 2 Note Off - Duracao: 799920 Nota: C1 Vol.: 82
Chanel 2 Note On - Duracao: 799920 Nota: C1 Vol.: 80
Chanel 3 Note Off - Duracao: 799980 Nota: C1 Vol.: 77
Chanel 3 Note On - Duracao: 799980 Nota: C1 Vol.: 70
Chanel 6 Note Off - Duracao: 800400 Nota: C1 Vol.: 50
Chanel 6 Note On - Duracao: 800400 Nota: C1 Vol.: 51
Chanel 8 Note Off - Duracao: 800460 Nota: C1 Vol.: 70
Chanel 8 Note On - Duracao: 800460 Nota: C1 Vol.: 72
Chanel 2 Note Off - Duracao: 800880 Nota: C1 Vol.: 80
Chanel 2 Note On - Duracao: 800880 Nota: C1 Vol.: 79
Chanel 3 Note Off - Duracao: 800940 Nota: C1 Vol.: 70
Chanel 3 Note On - Duracao: 800940 Nota: C1 Vol.: 73
Chanel 8 Note Off - Duracao: 800940 Nota: C1 Vol.: 72
Chanel 8 Note On - Duracao: 800940 Nota: C1 Vol.: 79
Chanel 4 Note Off - Duracao: 801120 Nota: C1 Vol.: 47
Chanel 4 Note On - Duracao: 801120 Nota: C1 Vol.: 83
Chanel 5 Note Off - Duracao: 801120 Nota: C1 Vol.: 46
Chanel 5 Note On - Duracao: 801120 Nota: C1 Vol.: 71
Chanel 8 Note Off - Duracao: 801180 Nota: C1 Vol.: 79
Chanel 8 Note On - Duracao: 801180 Nota: C1 Vol.: 83
Chanel 10 Note Off - Duracao: 801240 Nota: C1 Vol.: 68
Chanel 10 Note On - Duracao: 801240 Nota: C1 Vol.: 73
Chanel 4 Note Off - Duracao: 801360 Nota: C1 Vol.: 83
Chanel 4 Note On - Duracao: 801360 Nota: C1 Vol.: 88
Chanel 6 Note Off - Duracao: 801360 Nota: C1 Vol.: 51
Chanel 6 Note On - Duracao: 801360 Nota: C1 Vol.: 49
Chanel 4 Note Off - Duracao: 801480 Nota: C1 Vol.: 88
Chanel 4 Note On - Duracao: 801480 Nota: C1 Vol.: 100
Chanel 4 Note Off - Duracao: 801540 Nota: C1 Vol.: 100
Chanel 4 Note On - Duracao: 801540 Nota: C1 Vol.: 100
Chanel 4 Note Off - Duracao: 801600 Nota: C1 Vol.: 100
Chanel 4 Note On - Duracao: 801600 Nota: C1 Vol.: 98
Chanel 5 Note Off - Duracao: 801600 Nota: C1 Vol.: 71
Chanel 5 Note On - Duracao: 801600 Nota: C1 Vol.: 80
Chanel 4 Note Off - Duracao: 801660 Nota: C1 Vol.: 98
Chanel 4 Note On - Duracao: 801660 Nota: C1 Vol.: 95
Chanel 8 Note Off - Duracao: 801660 Nota: C1 Vol.: 83
Chanel 8 Note On - Duracao: 801660 Nota: C1 Vol.: 82
Chanel 4 Note Off - Duracao: 801780 Nota: C1 Vol.: 95
Chanel 4 Note On - Duracao: 801780 Nota: C1 Vol.: 100
Chanel 2 Note Off - Duracao: 801840 Nota: C1 Vol.: 79
Chanel 2 Note On - Duracao: 801840 Nota: C1 Vol.: 87
Chanel 4 Note Off - Duracao: 801840 Nota: C1 Vol.: 100
Chanel 4 Note On - Duracao: 801840 Nota: C1 Vol.: 93
Chanel 3 Note Off - Duracao: 801900 Nota: C1 Vol.: 73
Chanel 3 Note On - Duracao: 801900 Nota: C1 Vol.: 79
Chanel 4 Note Off - Duracao: 801960 Nota: C1 Vol.: 93
Chanel 4 Note On - Duracao: 801960 Nota: C1 Vol.: 71
Chanel 5 Note Off - Duracao: 802080 Nota: C1 Vol.: 80
Chanel 5 Note On - Duracao: 802080 Nota: C1 Vol.: 75
Chanel 8 Note Off - Duracao: 802140 Nota: C1 Vol.: 82
Chanel 8 Note On - Duracao: 802140 Nota: C1 Vol.: 89
Chanel 2 Note Off - Duracao: 802320 Nota: C1 Vol.: 87
Chanel 2 Note On - Duracao: 802320 Nota: C1 Vol.: 79
Chanel 6 Note Off - Duracao: 802320 Nota: C1 Vol.: 49
Chanel 6 Note On - Duracao: 802320 Nota: C1 Vol.: 50
Chanel 3 Note Off - Duracao: 802380 Nota: C1 Vol.: 79
Chanel 3 Note On - Duracao: 802380 Nota: C1 Vol.: 70
Chanel 8 Note Off - Duracao: 802380 Nota: C1 Vol.: 89
Chanel 8 Note On - Duracao: 802380 Nota: C1 Vol.: 86
Chanel 4 Note Off - Duracao: 802440 Nota: C1 Vol.: 71
Chanel 4 Note On - Duracao: 802440 Nota: C1 Vol.: 70
Chanel 9 Note Off - Duracao: 802680 Nota: C1 Vol.: 59
Chanel 9 Note On - Duracao: 802680 Nota: C1 Vol.: 62
Chanel 7 Note Off - Duracao: 802800 Nota: C1 Vol.: 43
Chanel 7 Note On - Duracao: 802800 Nota: C1 Vol.: 44
Chanel 8 Note Off - Duracao: 802860 Nota: C1 Vol.: 86
Chanel 8 Note On - Duracao: 802860 Nota: C1 Vol.: 81
Chanel 4 Note Off - Duracao: 802920 Nota: C1 Vol.: 70
Chanel 4 Note On - Duracao: 802920 Nota: C1 Vol.: 71
Chanel 5 Note Off - Duracao: 803040 Nota: C1 Vol.: 75
Chanel 5 Note On - Duracao: 803040 Nota: C1 Vol.: 62
Chanel 8 Note Off - Duracao: 803100 Nota: C1 Vol.: 81
Chanel 8 Note On - Duracao: 803100 Nota: C1 Vol.: 81
Chanel 10 Note Off - Duracao: 803160 Nota: C1 Vol.: 73
Chanel 10 Note On - Duracao: 803160 Nota: C1 Vol.: 83
Chanel 2 Note Off - Duracao: 803280 Nota: C1 Vol.: 79
Chanel 2 Note On - Duracao: 803280 Nota: C1 Vol.: 73
Chanel 6 Note Off - Duracao: 803280 Nota: C1 Vol.: 50
Chanel 6 Note On - Duracao: 803280 Nota: C1 Vol.: 49
Chanel 3 Note Off - Duracao: 803340 Nota: C1 Vol.: 70
Chanel 3 Note On - Duracao: 803340 Nota: C1 Vol.: 66
Chanel 8 Note Off - Duracao: 803340 Nota: C1 Vol.: 81
Chanel 8 Note On - Duracao: 803340 Nota: C1 Vol.: 86
Chanel 4 Note Off - Duracao: 803400 Nota: C1 Vol.: 71
Chanel 4 Note On - Duracao: 803400 Nota: C1 Vol.: 82
Chanel 8 Note Off - Duracao: 803460 Nota: C1 Vol.: 86
Chanel 8 Note On - Duracao: 803460 Nota: C1 Vol.: 88
Chanel 8 Note Off - Duracao: 803580 Nota: C1 Vol.: 88
Chanel 8 Note On - Duracao: 803580 Nota: C1 Vol.: 93
Chanel 4 Note Off - Duracao: 803640 Nota: C1 Vol.: 82
Chanel 4 Note On - Duracao: 803640 Nota: C1 Vol.: 97
Chanel 4 Note Off - Duracao: 803700 Nota: C1 Vol.: 97
Chanel 4 Note On - Duracao: 803700 Nota: C1 Vol.: 96
Chanel 8 Note Off - Duracao: 803700 Nota: C1 Vol.: 93
Chanel 8 Note On - Duracao: 803700 Nota: C1 Vol.: 100
Chanel 4 Note Off - Duracao: 803760 Nota: C1 Vol.: 96
Chanel 4 Note On - Duracao: 803760 Nota: C1 Vol.: 98
Chanel 4 Note Off - Duracao: 803820 Nota: C1 Vol.: 98
Chanel 4 Note On - Duracao: 803820 Nota: C1 Vol.: 95
Chanel 8 Note Off - Duracao: 803820 Nota: C1 Vol.: 100
Chanel 8 Note On - Duracao: 803820 Nota: C1 Vol.: 98
Chanel 4 Note Off - Duracao: 803880 Nota: C1 Vol.: 95
Chanel 4 Note On - Duracao: 803880 Nota: C1 Vol.: 93
Chanel 8 Note Off - Duracao: 803940 Nota: C1 Vol.: 98
Chanel 8 Note On - Duracao: 803940 Nota: C1 Vol.: 89
Chanel 4 Note Off - Duracao: 804000 Nota: C1 Vol.: 93
Chanel 4 Note On - Duracao: 804000 Nota: C1 Vol.: 94
Chanel 4 Note Off - Duracao: 804120 Nota: C1 Vol.: 94
Chanel 4 Note On - Duracao: 804120 Nota: C1 Vol.: 95
Chanel 10 Note Off - Duracao: 804120 Nota: C1 Vol.: 83
Chanel 10 Note On - Duracao: 804120 Nota: C1 Vol.: 82
Chanel 4 Note Off - Duracao: 804180 Nota: C1 Vol.: 95
Chanel 4 Note On - Duracao: 804180 Nota: C1 Vol.: 93
Chanel 8 Note Off - Duracao: 804180 Nota: C1 Vol.: 89
Chanel 8 Note On - Duracao: 804180 Nota: C1 Vol.: 92
Chanel 2 Note Off - Duracao: 804240 Nota: C1 Vol.: 73
Chanel 2 Note On - Duracao: 804240 Nota: C1 Vol.: 81
Chanel 6 Note Off - Duracao: 804240 Nota: C1 Vol.: 49
Chanel 6 Note On - Duracao: 804240 Nota: C1 Vol.: 41
Chanel 4 Note Off - Duracao: 804300 Nota: C1 Vol.: 93
Chanel 4 Note On - Duracao: 804300 Nota: C1 Vol.: 95
Chanel 8 Note Off - Duracao: 804300 Nota: C1 Vol.: 92
Chanel 8 Note On - Duracao: 804300 Nota: C1 Vol.: 85
Chanel 4 Note Off - Duracao: 804420 Nota: C1 Vol.: 95
Chanel 4 Note On - Duracao: 804420 Nota: C1 Vol.: 80
Chanel 8 Note Off - Duracao: 804540 Nota: C1 Vol.: 85
Chanel 8 Note On - Duracao: 804540 Nota: C1 Vol.: 61
Chanel 9 Note Off - Duracao: 804600 Nota: C1 Vol.: 62
Chanel 9 Note On - Duracao: 804600 Nota: C1 Vol.: 63
Chanel 10 Note Off - Duracao: 804600 Nota: C1 Vol.: 82
Chanel 10 Note On - Duracao: 804600 Nota: C1 Vol.: 73
Chanel 7 Note Off - Duracao: 804720 Nota: C1 Vol.: 44
Chanel 7 Note On - Duracao: 804720 Nota: C1 Vol.: 44
Chanel 4 Note Off - Duracao: 804900 Nota: C1 Vol.: 80
Chanel 4 Note On - Duracao: 804900 Nota: C1 Vol.: 77
Chanel 8 Note Off - Duracao: 805020 Nota: C1 Vol.: 61
Chanel 8 Note On - Duracao: 805020 Nota: C1 Vol.: 64
Chanel 2 Note Off - Duracao: 805200 Nota: C1 Vol.: 81
Chanel 2 Note On - Duracao: 805200 Nota: C1 Vol.: 88
Chanel 3 Note Off - Duracao: 805260 Nota: C1 Vol.: 66
Chanel 3 Note On - Duracao: 805260 Nota: C1 Vol.: 76
Chanel 4 Note Off - Duracao: 805380 Nota: C1 Vol.: 77
Chanel 4 Note On - Duracao: 805380 Nota: C1 Vol.: 81
Chanel 8 Note Off - Duracao: 805500 Nota: C1 Vol.: 64
Chanel 8 Note On - Duracao: 805500 Nota: C1 Vol.: 59
Chanel 10 Note Off - Duracao: 805560 Nota: C1 Vol.: 73
Chanel 10 Note On - Duracao: 805560 Nota: C1 Vol.: 65
Chanel 2 Note Off - Duracao: 805680 Nota: C1 Vol.: 88
Chanel 2 Note On - Duracao: 805680 Nota: C1 Vol.: 84
Chanel 3 Note Off - Duracao: 805740 Nota: C1 Vol.: 76
Chanel 3 Note On - Duracao: 805740 Nota: C1 Vol.: 79
Chanel 4 Note Off - Duracao: 805860 Nota: C1 Vol.: 81
Chanel 4 Note On - Duracao: 805860 Nota: C1 Vol.: 71
Chanel 8 Note Off - Duracao: 805980 Nota: C1 Vol.: 59
Chanel 8 Note On - Duracao: 805980 Nota: C1 Vol.: 58
Chanel 2 Note Off - Duracao: 806160 Nota: C1 Vol.: 84
Chanel 2 Note On - Duracao: 806160 Nota: C1 Vol.: 82
Chanel 6 Note Off - Duracao: 806160 Nota: C1 Vol.: 41
Chanel 6 Note On - Duracao: 806160 Nota: C1 Vol.: 45
Chanel 3 Note Off - Duracao: 806220 Nota: C1 Vol.: 79
Chanel 3 Note On - Duracao: 806220 Nota: C1 Vol.: 58
Chanel 8 Note Off - Duracao: 806460 Nota: C1 Vol.: 58
Chanel 8 Note On - Duracao: 806460 Nota: C1 Vol.: 58
Chanel 9 Note Off - Duracao: 806520 Nota: C1 Vol.: 63
Chanel 9 Note On - Duracao: 806520 Nota: C1 Vol.: 66
Chanel 10 Note Off - Duracao: 806520 Nota: C1 Vol.: 65
Chanel 10 Note On - Duracao: 806520 Nota: C1 Vol.: 63
Chanel 2 Note Off - Duracao: 806640 Nota: C1 Vol.: 82
Chanel 2 Note On - Duracao: 806640 Nota: C1 Vol.: 47
Chanel 7 Note Off - Duracao: 806640 Nota: C1 Vol.: 44
Chanel 7 Note On - Duracao: 806640 Nota: C1 Vol.: 42
Chanel 4 Note Off - Duracao: 806820 Nota: C1 Vol.: 71
Chanel 4 Note On - Duracao: 806820 Nota: C1 Vol.: 60
Chanel 5 Note Off - Duracao: 806880 Nota: C1 Vol.: 62
Chanel 5 Note On - Duracao: 806880 Nota: C1 Vol.: 55
Chanel 6 Note Off - Duracao: 807120 Nota: C1 Vol.: 45
Chanel 6 Note On - Duracao: 807120 Nota: C1 Vol.: 51
Chanel 8 Note Off - Duracao: 807420 Nota: C1 Vol.: 58
Chanel 8 Note On - Duracao: 807420 Nota: C1 Vol.: 59
Chanel 9 Note Off - Duracao: 807480 Nota: C1 Vol.: 66
Chanel 9 Note On - Duracao: 807480 Nota: C1 Vol.: 68
Chanel 10 Note Off - Duracao: 807480 Nota: C1 Vol.: 63
Chanel 10 Note On - Duracao: 807480 Nota: C1 Vol.: 64
Chanel 6 Note Off - Duracao: 808080 Nota: C1 Vol.: 51
Chanel 6 Note On - Duracao: 808080 Nota: C1 Vol.: 51
Chanel 8 Note Off - Duracao: 808380 Nota: C1 Vol.: 59
Chanel 8 Note On - Duracao: 808380 Nota: C1 Vol.: 68
Chanel 9 Note Off - Duracao: 808440 Nota: C1 Vol.: 68
Chanel 9 Note On - Duracao: 808440 Nota: C1 Vol.: 71
Chanel 10 Note Off - Duracao: 808440 Nota: C1 Vol.: 64
Chanel 10 Note On - Duracao: 808440 Nota: C1 Vol.: 71
Chanel 7 Note Off - Duracao: 808560 Nota: C1 Vol.: 42
Chanel 7 Note On - Duracao: 808560 Nota: C1 Vol.: 44
Chanel 4 Note Off - Duracao: 808740 Nota: C1 Vol.: 60
Chanel 4 Note On - Duracao: 808740 Nota: C1 Vol.: 69
Chanel 8 Note Off - Duracao: 808860 Nota: C1 Vol.: 68
Chanel 8 Note On - Duracao: 808860 Nota: C1 Vol.: 68
Chanel 10 Note Off - Duracao: 808920 Nota: C1 Vol.: 71
Chanel 10 Note On - Duracao: 808920 Nota: C1 Vol.: 96
Chanel 10 Note Off - Duracao: 808980 Nota: C1 Vol.: 96
Chanel 10 Note On - Duracao: 808980 Nota: C1 Vol.: 91
Chanel 6 Note Off - Duracao: 809040 Nota: C1 Vol.: 51
Chanel 6 Note On - Duracao: 809040 Nota: C1 Vol.: 44
Chanel 10 Note Off - Duracao: 809100 Nota: C1 Vol.: 91
Chanel 10 Note On - Duracao: 809100 Nota: C1 Vol.: 84
Chanel 8 Note Off - Duracao: 809340 Nota: C1 Vol.: 68
Chanel 8 Note On - Duracao: 809340 Nota: C1 Vol.: 67
Chanel 10 Note Off - Duracao: 809340 Nota: C1 Vol.: 84
Chanel 10 Note On - Duracao: 809340 Nota: C1 Vol.: 68
Chanel 9 Note Off - Duracao: 809400 Nota: C1 Vol.: 71
Chanel 9 Note On - Duracao: 809400 Nota: C1 Vol.: 80
Chanel 4 Note Off - Duracao: 809700 Nota: C1 Vol.: 69
Chanel 4 Note On - Duracao: 809700 Nota: C1 Vol.: 71
Chanel 8 Note Off - Duracao: 809820 Nota: C1 Vol.: 67
Chanel 8 Note On - Duracao: 809820 Nota: C1 Vol.: 66
Chanel 9 Note Off - Duracao: 809880 Nota: C1 Vol.: 80
Chanel 9 Note On - Duracao: 809880 Nota: C1 Vol.: 81
Chanel 3 Note Off - Duracao: 810060 Nota: C1 Vol.: 58
Chanel 3 Note On - Duracao: 810060 Nota: C1 Vol.: 74
Chanel 8 Note Off - Duracao: 810300 Nota: C1 Vol.: 66
Chanel 8 Note On - Duracao: 810300 Nota: C1 Vol.: 65
Chanel 10 Note Off - Duracao: 810300 Nota: C1 Vol.: 68
Chanel 10 Note On - Duracao: 810300 Nota: C1 Vol.: 70
Chanel 9 Note Off - Duracao: 810360 Nota: C1 Vol.: 81
Chanel 9 Note On - Duracao: 810360 Nota: C1 Vol.: 81
Chanel 2 Note Off - Duracao: 810480 Nota: C1 Vol.: 47
Chanel 2 Note On - Duracao: 810480 Nota: C1 Vol.: 80
Chanel 7 Note Off - Duracao: 810480 Nota: C1 Vol.: 44
Chanel 7 Note On - Duracao: 810480 Nota: C1 Vol.: 42
Chanel 8 Note Off - Duracao: 810540 Nota: C1 Vol.: 65
Chanel 8 Note On - Duracao: 810540 Nota: C1 Vol.: 64
Chanel 4 Note Off - Duracao: 810660 Nota: C1 Vol.: 71
Chanel 4 Note On - Duracao: 810660 Nota: C1 Vol.: 70
Chanel 5 Note Off - Duracao: 810720 Nota: C1 Vol.: 55
Chanel 5 Note On - Duracao: 810720 Nota: C1 Vol.: 57
Chanel 8 Note Off - Duracao: 810780 Nota: C1 Vol.: 64
Chanel 8 Note On - Duracao: 810780 Nota: C1 Vol.: 63
Chanel 9 Note Off - Duracao: 810840 Nota: C1 Vol.: 81
Chanel 9 Note On - Duracao: 810840 Nota: C1 Vol.: 77
Chanel 6 Note Off - Duracao: 810960 Nota: C1 Vol.: 44
Chanel 6 Note On - Duracao: 810960 Nota: C1 Vol.: 52
Chanel 3 Note Off - Duracao: 811020 Nota: C1 Vol.: 74
Chanel 3 Note On - Duracao: 811020 Nota: C1 Vol.: 66
Chanel 8 Note Off - Duracao: 811020 Nota: C1 Vol.: 63
Chanel 8 Note On - Duracao: 811020 Nota: C1 Vol.: 65
Chanel 8 Note Off - Duracao: 811260 Nota: C1 Vol.: 65
Chanel 8 Note On - Duracao: 811260 Nota: C1 Vol.: 66
Chanel 10 Note Off - Duracao: 811260 Nota: C1 Vol.: 70
Chanel 10 Note On - Duracao: 811260 Nota: C1 Vol.: 69
Chanel 9 Note Off - Duracao: 811320 Nota: C1 Vol.: 77
Chanel 9 Note On - Duracao: 811320 Nota: C1 Vol.: 76
Chanel 8 Note Off - Duracao: 811500 Nota: C1 Vol.: 66
Chanel 8 Note On - Duracao: 811500 Nota: C1 Vol.: 68
Chanel 4 Note Off - Duracao: 811620 Nota: C1 Vol.: 70
Chanel 4 Note On - Duracao: 811620 Nota: C1 Vol.: 71
Chanel 9 Note Off - Duracao: 811800 Nota: C1 Vol.: 76
Chanel 9 Note On - Duracao: 811800 Nota: C1 Vol.: 78
Chanel 6 Note Off - Duracao: 811920 Nota: C1 Vol.: 52
Chanel 6 Note On - Duracao: 811920 Nota: C1 Vol.: 86
Chanel 8 Note Off - Duracao: 811980 Nota: C1 Vol.: 68
Chanel 8 Note On - Duracao: 811980 Nota: C1 Vol.: 58
Chanel 6 Note Off - Duracao: 812040 Nota: C1 Vol.: 86
Chanel 6 Note On - Duracao: 812040 Nota: C1 Vol.: 89
Chanel 9 Note Off - Duracao: 812040 Nota: C1 Vol.: 78
Chanel 9 Note On - Duracao: 812040 Nota: C1 Vol.: 80
Chanel 6 Note Off - Duracao: 812160 Nota: C1 Vol.: 89
Chanel 6 Note On - Duracao: 812160 Nota: C1 Vol.: 90
Chanel 10 Note Off - Duracao: 812220 Nota: C1 Vol.: 69
Chanel 10 Note On - Duracao: 812220 Nota: C1 Vol.: 73
Chanel 6 Note Off - Duracao: 812280 Nota: C1 Vol.: 90
Chanel 6 Note On - Duracao: 812280 Nota: C1 Vol.: 97
Chanel 9 Note Off - Duracao: 812280 Nota: C1 Vol.: 80
Chanel 9 Note On - Duracao: 812280 Nota: C1 Vol.: 78
Chanel 6 Note Off - Duracao: 812340 Nota: C1 Vol.: 97
Chanel 6 Note On - Duracao: 812340 Nota: C1 Vol.: 99
Chanel 2 Note Off - Duracao: 812400 Nota: C1 Vol.: 80
Chanel 2 Note On - Duracao: 812400 Nota: C1 Vol.: 81
Chanel 6 Note Off - Duracao: 812400 Nota: C1 Vol.: 99
Chanel 6 Note On - Duracao: 812400 Nota: C1 Vol.: 99
Chanel 7 Note Off - Duracao: 812400 Nota: C1 Vol.: 42
Chanel 7 Note On - Duracao: 812400 Nota: C1 Vol.: 44
Chanel 6 Note Off - Duracao: 812460 Nota: C1 Vol.: 99
Chanel 6 Note On - Duracao: 812460 Nota: C1 Vol.: 99
Chanel 6 Note Off - Duracao: 812520 Nota: C1 Vol.: 99
Chanel 6 Note On - Duracao: 812520 Nota: C1 Vol.: 99
Chanel 9 Note Off - Duracao: 812520 Nota: C1 Vol.: 78
Chanel 9 Note On - Duracao: 812520 Nota: C1 Vol.: 57
Chanel 4 Note Off - Duracao: 812580 Nota: C1 Vol.: 71
Chanel 4 Note On - Duracao: 812580 Nota: C1 Vol.: 67
Chanel 6 Note Off - Duracao: 812580 Nota: C1 Vol.: 99
Chanel 6 Note On - Duracao: 812580 Nota: C1 Vol.: 96
Chanel 6 Note Off - Duracao: 812640 Nota: C1 Vol.: 96
Chanel 6 Note On - Duracao: 812640 Nota: C1 Vol.: 89
Chanel 6 Note Off - Duracao: 812760 Nota: C1 Vol.: 89
Chanel 6 Note On - Duracao: 812760 Nota: C1 Vol.: 92
Chanel 6 Note Off - Duracao: 812880 Nota: C1 Vol.: 92
Chanel 6 Note On - Duracao: 812880 Nota: C1 Vol.: 61
Chanel 3 Note Off - Duracao: 812940 Nota: C1 Vol.: 66
Chanel 3 Note On - Duracao: 812940 Nota: C1 Vol.: 66
Chanel 10 Note Off - Duracao: 813180 Nota: C1 Vol.: 73
Chanel 10 Note On - Duracao: 813180 Nota: C1 Vol.: 62
Chanel 4 Note Off - Duracao: 813540 Nota: C1 Vol.: 67
Chanel 4 Note On - Duracao: 813540 Nota: C1 Vol.: 60
Chanel 6 Note Off - Duracao: 813840 Nota: C1 Vol.: 61
Chanel 6 Note On - Duracao: 813840 Nota: C1 Vol.: 61
Chanel 3 Note Off - Duracao: 813900 Nota: C1 Vol.: 66
Chanel 3 Note On - Duracao: 813900 Nota: C1 Vol.: 52
Chanel 8 Note Off - Duracao: 813900 Nota: C1 Vol.: 58
Chanel 8 Note On - Duracao: 813900 Nota: C1 Vol.: 88
Chanel 2 Note Off - Duracao: 814320 Nota: C1 Vol.: 81
Chanel 2 Note On - Duracao: 814320 Nota: C1 Vol.: 81
Chanel 7 Note Off - Duracao: 814320 Nota: C1 Vol.: 44
Chanel 7 Note On - Duracao: 814320 Nota: C1 Vol.: 44
Chanel 8 Note Off - Duracao: 814380 Nota: C1 Vol.: 88
Chanel 8 Note On - Duracao: 814380 Nota: C1 Vol.: 77
Chanel 9 Note Off - Duracao: 814440 Nota: C1 Vol.: 57
Chanel 9 Note On - Duracao: 814440 Nota: C1 Vol.: 58
Chanel 5 Note Off - Duracao: 814560 Nota: C1 Vol.: 57
Chanel 5 Note On - Duracao: 814560 Nota: C1 Vol.: 55
Chanel 6 Note Off - Duracao: 814800 Nota: C1 Vol.: 61
Chanel 6 Note On - Duracao: 814800 Nota: C1 Vol.: 95
Chanel 6 Note Off - Duracao: 814860 Nota: C1 Vol.: 95
Chanel 6 Note On - Duracao: 814860 Nota: C1 Vol.: 98
Chanel 6 Note Off - Duracao: 814920 Nota: C1 Vol.: 98
Chanel 6 Note On - Duracao: 814920 Nota: C1 Vol.: 91
Chanel 6 Note Off - Duracao: 815040 Nota: C1 Vol.: 91
Chanel 6 Note On - Duracao: 815040 Nota: C1 Vol.: 87
Chanel 10 Note Off - Duracao: 815100 Nota: C1 Vol.: 62
Chanel 10 Note On - Duracao: 815100 Nota: C1 Vol.: 57
Chanel 6 Note Off - Duracao: 815160 Nota: C1 Vol.: 87
Chanel 6 Note On - Duracao: 815160 Nota: C1 Vol.: 99
Chanel 6 Note Off - Duracao: 815220 Nota: C1 Vol.: 99
Chanel 6 Note On - Duracao: 815220 Nota: C1 Vol.: 81
Chanel 8 Note Off - Duracao: 815340 Nota: C1 Vol.: 77
Chanel 8 Note On - Duracao: 815340 Nota: C1 Vol.: 81
Chanel 4 Note Off - Duracao: 815460 Nota: C1 Vol.: 60
Chanel 4 Note On - Duracao: 815460 Nota: C1 Vol.: 57
Chanel 6 Note Off - Duracao: 815460 Nota: C1 Vol.: 81
Chanel 6 Note On - Duracao: 815460 Nota: C1 Vol.: 69
Chanel 6 Note Off - Duracao: 815940 Nota: C1 Vol.: 69
Chanel 6 Note On - Duracao: 815940 Nota: C1 Vol.: 71
Chanel 2 Note Off - Duracao: 816240 Nota: C1 Vol.: 81
Chanel 2 Note On - Duracao: 816240 Nota: C1 Vol.: 61
Chanel 7 Note Off - Duracao: 816240 Nota: C1 Vol.: 44
Chanel 7 Note On - Duracao: 816240 Nota: C1 Vol.: 44
Chanel 8 Note Off - Duracao: 816300 Nota: C1 Vol.: 81
Chanel 8 Note On - Duracao: 816300 Nota: C1 Vol.: 67
Chanel 9 Note Off - Duracao: 816360 Nota: C1 Vol.: 58
Chanel 9 Note On - Duracao: 816360 Nota: C1 Vol.: 59
Chanel 6 Note Off - Duracao: 816420 Nota: C1 Vol.: 71
Chanel 6 Note On - Duracao: 816420 Nota: C1 Vol.: 72
Chanel 6 Note Off - Duracao: 816900 Nota: C1 Vol.: 72
Chanel 6 Note On - Duracao: 816900 Nota: C1 Vol.: 73
Chanel 10 Note Off - Duracao: 817020 Nota: C1 Vol.: 57
Chanel 10 Note On - Duracao: 817020 Nota: C1 Vol.: 69
Chanel 4 Note Off - Duracao: 817380 Nota: C1 Vol.: 57
Chanel 4 Note On - Duracao: 817380 Nota: C1 Vol.: 57
Chanel 6 Note Off - Duracao: 817380 Nota: C1 Vol.: 73
Chanel 6 Note On - Duracao: 817380 Nota: C1 Vol.: 83
Chanel 6 Note Off - Duracao: 817620 Nota: C1 Vol.: 83
Chanel 6 Note On - Duracao: 817620 Nota: C1 Vol.: 77
Chanel 3 Note Off - Duracao: 817740 Nota: C1 Vol.: 52
Chanel 3 Note On - Duracao: 817740 Nota: C1 Vol.: 44
Chanel 10 Note Off - Duracao: 817980 Nota: C1 Vol.: 69
Chanel 10 Note On - Duracao: 817980 Nota: C1 Vol.: 72
Chanel 6 Note Off - Duracao: 818100 Nota: C1 Vol.: 77
Chanel 6 Note On - Duracao: 818100 Nota: C1 Vol.: 75
Chanel 7 Note Off - Duracao: 818160 Nota: C1 Vol.: 44
Chanel 7 Note On - Duracao: 818160 Nota: C1 Vol.: 43
Chanel 9 Note Off - Duracao: 818280 Nota: C1 Vol.: 59
Chanel 9 Note On - Duracao: 818280 Nota: C1 Vol.: 61
Chanel 5 Note Off - Duracao: 818400 Nota: C1 Vol.: 55
Chanel 5 Note On - Duracao: 818400 Nota: C1 Vol.: 53
Chanel 6 Note Off - Duracao: 818580 Nota: C1 Vol.: 75
Chanel 6 Note On - Duracao: 818580 Nota: C1 Vol.: 69
Chanel 10 Note Off - Duracao: 818940 Nota: C1 Vol.: 72
Chanel 10 Note On - Duracao: 818940 Nota: C1 Vol.: 72
Chanel 4 Note Off - Duracao: 819300 Nota: C1 Vol.: 57
Chanel 4 Note On - Duracao: 819300 Nota: C1 Vol.: 67
Chanel 6 Note Off - Duracao: 819540 Nota: C1 Vol.: 69
Chanel 6 Note On - Duracao: 819540 Nota: C1 Vol.: 81
Chanel 10 Note Off - Duracao: 819900 Nota: C1 Vol.: 72
Chanel 10 Note On - Duracao: 819900 Nota: C1 Vol.: 71
Chanel 6 Note Off - Duracao: 820020 Nota: C1 Vol.: 81
Chanel 6 Note On - Duracao: 820020 Nota: C1 Vol.: 89
Chanel 2 Note Off - Duracao: 820080 Nota: C1 Vol.: 61
Chanel 2 Note On - Duracao: 820080 Nota: C1 Vol.: 47
Chanel 7 Note Off - Duracao: 820080 Nota: C1 Vol.: 43
Chanel 7 Note On - Duracao: 820080 Nota: C1 Vol.: 46
Chanel 8 Note Off - Duracao: 820140 Nota: C1 Vol.: 67
Chanel 8 Note On - Duracao: 820140 Nota: C1 Vol.: 74
Chanel 9 Note Off - Duracao: 820200 Nota: C1 Vol.: 61
Chanel 9 Note On - Duracao: 820200 Nota: C1 Vol.: 62
Chanel 4 Note Off - Duracao: 820260 Nota: C1 Vol.: 67
Chanel 4 Note On - Duracao: 820260 Nota: C1 Vol.: 73
Chanel 6 Note Off - Duracao: 820500 Nota: C1 Vol.: 89
Chanel 6 Note On - Duracao: 820500 Nota: C1 Vol.: 84
Chanel 10 Note Off - Duracao: 820860 Nota: C1 Vol.: 71
Chanel 10 Note On - Duracao: 820860 Nota: C1 Vol.: 73
Chanel 4 Note Off - Duracao: 821220 Nota: C1 Vol.: 73
Chanel 4 Note On - Duracao: 821220 Nota: C1 Vol.: 81
Chanel 6 Note Off - Duracao: 821460 Nota: C1 Vol.: 84
Chanel 6 Note On - Duracao: 821460 Nota: C1 Vol.: 87
Chanel 3 Note Off - Duracao: 821580 Nota: C1 Vol.: 44
Chanel 3 Note On - Duracao: 821580 Nota: C1 Vol.: 46
Chanel 4 Note Off - Duracao: 821700 Nota: C1 Vol.: 81
Chanel 4 Note On - Duracao: 821700 Nota: C1 Vol.: 84
Chanel 10 Note Off - Duracao: 821820 Nota: C1 Vol.: 73
Chanel 10 Note On - Duracao: 821820 Nota: C1 Vol.: 73
Chanel 6 Note Off - Duracao: 821940 Nota: C1 Vol.: 87
Chanel 6 Note On - Duracao: 821940 Nota: C1 Vol.: 77
Chanel 7 Note Off - Duracao: 822000 Nota: C1 Vol.: 46
Chanel 7 Note On - Duracao: 822000 Nota: C1 Vol.: 42
Chanel 8 Note Off - Duracao: 822060 Nota: C1 Vol.: 74
Chanel 8 Note On - Duracao: 822060 Nota: C1 Vol.: 68
Chanel 9 Note Off - Duracao: 822120 Nota: C1 Vol.: 62
Chanel 9 Note On - Duracao: 822120 Nota: C1 Vol.: 69
Chanel 4 Note Off - Duracao: 822180 Nota: C1 Vol.: 84
Chanel 4 Note On - Duracao: 822180 Nota: C1 Vol.: 78
Chanel 5 Note Off - Duracao: 822240 Nota: C1 Vol.: 53
Chanel 5 Note On - Duracao: 822240 Nota: C1 Vol.: 62
Chanel 4 Note Off - Duracao: 822660 Nota: C1 Vol.: 78
Chanel 4 Note On - Duracao: 822660 Nota: C1 Vol.: 72
Chanel 10 Note Off - Duracao: 822780 Nota: C1 Vol.: 73
Chanel 10 Note On - Duracao: 822780 Nota: C1 Vol.: 72
Chanel 6 Note Off - Duracao: 822900 Nota: C1 Vol.: 77
Chanel 6 Note On - Duracao: 822900 Nota: C1 Vol.: 74
Chanel 4 Note Off - Duracao: 823620 Nota: C1 Vol.: 72
Chanel 4 Note On - Duracao: 823620 Nota: C1 Vol.: 52
Chanel 10 Note Off - Duracao: 823740 Nota: C1 Vol.: 72
Chanel 10 Note On - Duracao: 823740 Nota: C1 Vol.: 70
Chanel 6 Note Off - Duracao: 823860 Nota: C1 Vol.: 74
Chanel 6 Note On - Duracao: 823860 Nota: C1 Vol.: 76
Chanel 2 Note Off - Duracao: 823920 Nota: C1 Vol.: 47
Chanel 2 Note On - Duracao: 823920 Nota: C1 Vol.: 46
Chanel 7 Note Off - Duracao: 823920 Nota: C1 Vol.: 42
Chanel 7 Note On - Duracao: 823920 Nota: C1 Vol.: 44
Chanel 8 Note Off - Duracao: 823980 Nota: C1 Vol.: 68
Chanel 8 Note On - Duracao: 823980 Nota: C1 Vol.: 73
Chanel 9 Note Off - Duracao: 824040 Nota: C1 Vol.: 69
Chanel 9 Note On - Duracao: 824040 Nota: C1 Vol.: 73
Chanel 5 Note Off - Duracao: 824160 Nota: C1 Vol.: 62
Chanel 5 Note On - Duracao: 824160 Nota: C1 Vol.: 74
Chanel 10 Note Off - Duracao: 824700 Nota: C1 Vol.: 70
Chanel 10 Note On - Duracao: 824700 Nota: C1 Vol.: 70
Chanel 6 Note Off - Duracao: 824820 Nota: C1 Vol.: 76
Chanel 6 Note On - Duracao: 824820 Nota: C1 Vol.: 71
Chanel 9 Note Off - Duracao: 825000 Nota: C1 Vol.: 73
Chanel 9 Note On - Duracao: 825000 Nota: C1 Vol.: 65
Chanel 5 Note Off - Duracao: 825120 Nota: C1 Vol.: 74
Chanel 5 Note On - Duracao: 825120 Nota: C1 Vol.: 77
Chanel 3 Note Off - Duracao: 825420 Nota: C1 Vol.: 46
Chanel 3 Note On - Duracao: 825420 Nota: C1 Vol.: 47
Chanel 10 Note Off - Duracao: 825660 Nota: C1 Vol.: 70
Chanel 10 Note On - Duracao: 825660 Nota: C1 Vol.: 71
Chanel 7 Note Off - Duracao: 825840 Nota: C1 Vol.: 44
Chanel 7 Note On - Duracao: 825840 Nota: C1 Vol.: 45
Chanel 8 Note Off - Duracao: 825900 Nota: C1 Vol.: 73
Chanel 8 Note On - Duracao: 825900 Nota: C1 Vol.: 66
Chanel 5 Note Off - Duracao: 826080 Nota: C1 Vol.: 77
Chanel 5 Note On - Duracao: 826080 Nota: C1 Vol.: 76
Chanel 10 Note Off - Duracao: 826620 Nota: C1 Vol.: 71
Chanel 10 Note On - Duracao: 826620 Nota: C1 Vol.: 69
Chanel 6 Note Off - Duracao: 826740 Nota: C1 Vol.: 71
Chanel 6 Note On - Duracao: 826740 Nota: C1 Vol.: 69
Chanel 9 Note Off - Duracao: 826920 Nota: C1 Vol.: 65
Chanel 9 Note On - Duracao: 826920 Nota: C1 Vol.: 68
Chanel 5 Note Off - Duracao: 827040 Nota: C1 Vol.: 76
Chanel 5 Note On - Duracao: 827040 Nota: C1 Vol.: 76
Chanel 4 Note Off - Duracao: 827460 Nota: C1 Vol.: 52
Chanel 4 Note On - Duracao: 827460 Nota: C1 Vol.: 76
Chanel 10 Note Off - Duracao: 827580 Nota: C1 Vol.: 69
Chanel 10 Note On - Duracao: 827580 Nota: C1 Vol.: 72
Chanel 2 Note Off - Duracao: 827760 Nota: C1 Vol.: 46
Chanel 2 Note On - Duracao: 827760 Nota: C1 Vol.: 46
Chanel 7 Note Off - Duracao: 827760 Nota: C1 Vol.: 45
Chanel 7 Note On - Duracao: 827760 Nota: C1 Vol.: 44
Chanel 5 Note Off - Duracao: 828000 Nota: C1 Vol.: 76
Chanel 5 Note On - Duracao: 828000 Nota: C1 Vol.: 76
Chanel 4 Note Off - Duracao: 828420 Nota: C1 Vol.: 76
Chanel 4 Note On - Duracao: 828420 Nota: C1 Vol.: 75
Chanel 10 Note Off - Duracao: 828540 Nota: C1 Vol.: 72
Chanel 10 Note On - Duracao: 828540 Nota: C1 Vol.: 76
Chanel 6 Note Off - Duracao: 828660 Nota: C1 Vol.: 69
Chanel 6 Note On - Duracao: 828660 Nota: C1 Vol.: 65
Chanel 9 Note Off - Duracao: 828840 Nota: C1 Vol.: 68
Chanel 9 Note On - Duracao: 828840 Nota: C1 Vol.: 87
Chanel 5 Note Off - Duracao: 828960 Nota: C1 Vol.: 76
Chanel 5 Note On - Duracao: 828960 Nota: C1 Vol.: 75
Chanel 10 Note Off - Duracao: 829020 Nota: C1 Vol.: 76
Chanel 10 Note On - Duracao: 829020 Nota: C1 Vol.: 70
Chanel 3 Note Off - Duracao: 829260 Nota: C1 Vol.: 47
Chanel 3 Note On - Duracao: 829260 Nota: C1 Vol.: 45
Chanel 9 Note Off - Duracao: 829320 Nota: C1 Vol.: 87
Chanel 9 Note On - Duracao: 829320 Nota: C1 Vol.: 88
Chanel 4 Note Off - Duracao: 829380 Nota: C1 Vol.: 75
Chanel 4 Note On - Duracao: 829380 Nota: C1 Vol.: 66
Chanel 7 Note Off - Duracao: 829680 Nota: C1 Vol.: 44
Chanel 7 Note On - Duracao: 829680 Nota: C1 Vol.: 43
Chanel 8 Note Off - Duracao: 829740 Nota: C1 Vol.: 66
Chanel 8 Note On - Duracao: 829740 Nota: C1 Vol.: 79
Chanel 9 Note Off - Duracao: 829800 Nota: C1 Vol.: 88
Chanel 9 Note On - Duracao: 829800 Nota: C1 Vol.: 85
Chanel 5 Note Off - Duracao: 829920 Nota: C1 Vol.: 75
Chanel 5 Note On - Duracao: 829920 Nota: C1 Vol.: 78
Chanel 10 Note Off - Duracao: 829980 Nota: C1 Vol.: 70
Chanel 10 Note On - Duracao: 829980 Nota: C1 Vol.: 71
Chanel 9 Note Off - Duracao: 830280 Nota: C1 Vol.: 85
Chanel 9 Note On - Duracao: 830280 Nota: C1 Vol.: 87
Chanel 5 Note Off - Duracao: 830400 Nota: C1 Vol.: 78
Chanel 5 Note On - Duracao: 830400 Nota: C1 Vol.: 83
Chanel 6 Note Off - Duracao: 830580 Nota: C1 Vol.: 65
Chanel 6 Note On - Duracao: 830580 Nota: C1 Vol.: 76
Chanel 8 Note Off - Duracao: 830700 Nota: C1 Vol.: 79
Chanel 8 Note On - Duracao: 830700 Nota: C1 Vol.: 83
Chanel 9 Note Off - Duracao: 830760 Nota: C1 Vol.: 87
Chanel 9 Note On - Duracao: 830760 Nota: C1 Vol.: 87
Chanel 5 Note Off - Duracao: 830880 Nota: C1 Vol.: 83
Chanel 5 Note On - Duracao: 830880 Nota: C1 Vol.: 84
Chanel 10 Note Off - Duracao: 830940 Nota: C1 Vol.: 71
Chanel 10 Note On - Duracao: 830940 Nota: C1 Vol.: 76
Chanel 9 Note Off - Duracao: 831240 Nota: C1 Vol.: 87
Chanel 9 Note On - Duracao: 831240 Nota: C1 Vol.: 84
Chanel 4 Note Off - Duracao: 831300 Nota: C1 Vol.: 66
Chanel 4 Note On - Duracao: 831300 Nota: C1 Vol.: 77
Chanel 5 Note Off - Duracao: 831360 Nota: C1 Vol.: 84
Chanel 5 Note On - Duracao: 831360 Nota: C1 Vol.: 87
Chanel 10 Note Off - Duracao: 831420 Nota: C1 Vol.: 76
Chanel 10 Note On - Duracao: 831420 Nota: C1 Vol.: 79
Chanel 6 Note Off - Duracao: 831540 Nota: C1 Vol.: 76
Chanel 6 Note On - Duracao: 831540 Nota: C1 Vol.: 72
Chanel 2 Note Off - Duracao: 831600 Nota: C1 Vol.: 46
Chanel 2 Note On - Duracao: 831600 Nota: C1 Vol.: 46
Chanel 7 Note Off - Duracao: 831600 Nota: C1 Vol.: 43
Chanel 7 Note On - Duracao: 831600 Nota: C1 Vol.: 42
Chanel 8 Note Off - Duracao: 831660 Nota: C1 Vol.: 83
Chanel 8 Note On - Duracao: 831660 Nota: C1 Vol.: 80
Chanel 9 Note Off - Duracao: 831720 Nota: C1 Vol.: 84
Chanel 9 Note On - Duracao: 831720 Nota: C1 Vol.: 62
Chanel 5 Note Off - Duracao: 831840 Nota: C1 Vol.: 87
Chanel 5 Note On - Duracao: 831840 Nota: C1 Vol.: 67
Chanel 10 Note Off - Duracao: 831900 Nota: C1 Vol.: 79
Chanel 10 Note On - Duracao: 831900 Nota: C1 Vol.: 78
Chanel 4 Note Off - Duracao: 832260 Nota: C1 Vol.: 77
Chanel 4 Note On - Duracao: 832260 Nota: C1 Vol.: 75
Chanel 10 Note Off - Duracao: 832380 Nota: C1 Vol.: 78
Chanel 10 Note On - Duracao: 832380 Nota: C1 Vol.: 70
Chanel 8 Note Off - Duracao: 832620 Nota: C1 Vol.: 80
Chanel 8 Note On - Duracao: 832620 Nota: C1 Vol.: 78
Chanel 5 Note Off - Duracao: 832800 Nota: C1 Vol.: 67
Chanel 5 Note On - Duracao: 832800 Nota: C1 Vol.: 53
Chanel 3 Note Off - Duracao: 833100 Nota: C1 Vol.: 45
Chanel 3 Note On - Duracao: 833100 Nota: C1 Vol.: 42
Chanel 8 Note Off - Duracao: 833100 Nota: C1 Vol.: 78
Chanel 8 Note On - Duracao: 833100 Nota: C1 Vol.: 73
Chanel 4 Note Off - Duracao: 833220 Nota: C1 Vol.: 75
Chanel 4 Note On - Duracao: 833220 Nota: C1 Vol.: 76
Chanel 10 Note Off - Duracao: 833340 Nota: C1 Vol.: 70
Chanel 10 Note On - Duracao: 833340 Nota: C1 Vol.: 66
Chanel 6 Note Off - Duracao: 833460 Nota: C1 Vol.: 72
Chanel 6 Note On - Duracao: 833460 Nota: C1 Vol.: 76
Chanel 7 Note Off - Duracao: 833520 Nota: C1 Vol.: 42
Chanel 7 Note On - Duracao: 833520 Nota: C1 Vol.: 41
Chanel 8 Note Off - Duracao: 833580 Nota: C1 Vol.: 73
Chanel 8 Note On - Duracao: 833580 Nota: C1 Vol.: 72
Chanel 9 Note Off - Duracao: 833640 Nota: C1 Vol.: 62
Chanel 9 Note On - Duracao: 833640 Nota: C1 Vol.: 83
Chanel 9 Note Off - Duracao: 833880 Nota: C1 Vol.: 83
Chanel 9 Note On - Duracao: 833880 Nota: C1 Vol.: 84
Chanel 8 Note Off - Duracao: 834060 Nota: C1 Vol.: 72
Chanel 8 Note On - Duracao: 834060 Nota: C1 Vol.: 83
Chanel 9 Note Off - Duracao: 834120 Nota: C1 Vol.: 84
Chanel 9 Note On - Duracao: 834120 Nota: C1 Vol.: 87
Chanel 4 Note Off - Duracao: 834180 Nota: C1 Vol.: 76
Chanel 4 Note On - Duracao: 834180 Nota: C1 Vol.: 62
Chanel 10 Note Off - Duracao: 834300 Nota: C1 Vol.: 66
Chanel 10 Note On - Duracao: 834300 Nota: C1 Vol.: 60
Chanel 9 Note Off - Duracao: 834360 Nota: C1 Vol.: 87
Chanel 9 Note On - Duracao: 834360 Nota: C1 Vol.: 72
Chanel 8 Note Off - Duracao: 834540 Nota: C1 Vol.: 83
Chanel 8 Note On - Duracao: 834540 Nota: C1 Vol.: 82
Chanel 5 Note Off - Duracao: 834720 Nota: C1 Vol.: 53
Chanel 5 Note On - Duracao: 834720 Nota: C1 Vol.: 42
Chanel 9 Note Off - Duracao: 834840 Nota: C1 Vol.: 72
Chanel 9 Note On - Duracao: 834840 Nota: C1 Vol.: 82
Chanel 9 Note Off - Duracao: 835080 Nota: C1 Vol.: 82
Chanel 9 Note On - Duracao: 835080 Nota: C1 Vol.: 57
Chanel 6 Note Off - Duracao: 835380 Nota: C1 Vol.: 76
Chanel 6 Note On - Duracao: 835380 Nota: C1 Vol.: 85
Chanel 2 Note Off - Duracao: 835440 Nota: C1 Vol.: 46
Chanel 2 Note On - Duracao: 835440 Nota: C1 Vol.: 46
Chanel 7 Note Off - Duracao: 835440 Nota: C1 Vol.: 41
Chanel 7 Note On - Duracao: 835440 Nota: C1 Vol.: 42
Chanel 8 Note Off - Duracao: 835500 Nota: C1 Vol.: 82
Chanel 8 Note On - Duracao: 835500 Nota: C1 Vol.: 78
Chanel 10 Note Off - Duracao: 836220 Nota: C1 Vol.: 60
Chanel 10 Note On - Duracao: 836220 Nota: C1 Vol.: 63
Chanel 6 Note Off - Duracao: 836340 Nota: C1 Vol.: 85
Chanel 6 Note On - Duracao: 836340 Nota: C1 Vol.: 88
Chanel 7 Note Off - Duracao: 836400 Nota: C1 Vol.: 42
Chanel 7 Note On - Duracao: 836400 Nota: C1 Vol.: 41
Chanel 5 Note Off - Duracao: 836640 Nota: C1 Vol.: 42
Chanel 5 Note On - Duracao: 836640 Nota: C1 Vol.: 45
Chanel 3 Note Off - Duracao: 836940 Nota: C1 Vol.: 42
Chanel 3 Note On - Duracao: 836940 Nota: C1 Vol.: 55
Chanel 9 Note Off - Duracao: 837000 Nota: C1 Vol.: 57
Chanel 9 Note On - Duracao: 837000 Nota: C1 Vol.: 59
Chanel 10 Note Off - Duracao: 837180 Nota: C1 Vol.: 63
Chanel 10 Note On - Duracao: 837180 Nota: C1 Vol.: 62
Chanel 6 Note Off - Duracao: 837300 Nota: C1 Vol.: 88
Chanel 6 Note On - Duracao: 837300 Nota: C1 Vol.: 86
Chanel 7 Note Off - Duracao: 837360 Nota: C1 Vol.: 41
Chanel 7 Note On - Duracao: 837360 Nota: C1 Vol.: 42
Chanel 8 Note Off - Duracao: 837420 Nota: C1 Vol.: 78
Chanel 8 Note On - Duracao: 837420 Nota: C1 Vol.: 77
Chanel 5 Note Off - Duracao: 837600 Nota: C1 Vol.: 45
Chanel 5 Note On - Duracao: 837600 Nota: C1 Vol.: 46
Chanel 3 Note Off - Duracao: 837900 Nota: C1 Vol.: 55
Chanel 3 Note On - Duracao: 837900 Nota: C1 Vol.: 56
Chanel 4 Note Off - Duracao: 838020 Nota: C1 Vol.: 62
Chanel 4 Note On - Duracao: 838020 Nota: C1 Vol.: 77
Chanel 10 Note Off - Duracao: 838140 Nota: C1 Vol.: 62
Chanel 10 Note On - Duracao: 838140 Nota: C1 Vol.: 57
Chanel 6 Note Off - Duracao: 838260 Nota: C1 Vol.: 86
Chanel 6 Note On - Duracao: 838260 Nota: C1 Vol.: 68
Chanel 7 Note Off - Duracao: 838320 Nota: C1 Vol.: 42
Chanel 7 Note On - Duracao: 838320 Nota: C1 Vol.: 42
Chanel 3 Note Off - Duracao: 838380 Nota: C1 Vol.: 56
Chanel 3 Note On - Duracao: 838380 Nota: C1 Vol.: 57
Chanel 5 Note Off - Duracao: 838560 Nota: C1 Vol.: 46
Chanel 5 Note On - Duracao: 838560 Nota: C1 Vol.: 44
Chanel 3 Note Off - Duracao: 838860 Nota: C1 Vol.: 57
Chanel 3 Note On - Duracao: 838860 Nota: C1 Vol.: 56
Chanel 9 Note Off - Duracao: 838920 Nota: C1 Vol.: 59
Chanel 9 Note On - Duracao: 838920 Nota: C1 Vol.: 64
Chanel 4 Note Off - Duracao: 838980 Nota: C1 Vol.: 77
Chanel 4 Note On - Duracao: 838980 Nota: C1 Vol.: 64
Chanel 2 Note Off - Duracao: 839280 Nota: C1 Vol.: 46
Chanel 2 Note On - Duracao: 839280 Nota: C1 Vol.: 45
Chanel 7 Note Off - Duracao: 839280 Nota: C1 Vol.: 42
Chanel 7 Note On - Duracao: 839280 Nota: C1 Vol.: 45
Chanel 3 Note Off - Duracao: 839340 Nota: C1 Vol.: 56
Chanel 3 Note On - Duracao: 839340 Nota: C1 Vol.: 63
Chanel 8 Note Off - Duracao: 839340 Nota: C1 Vol.: 77
Chanel 8 Note On - Duracao: 839340 Nota: C1 Vol.: 75
Chanel 7 Note Off - Duracao: 839760 Nota: C1 Vol.: 45
Chanel 7 Note On - Duracao: 839760 Nota: C1 Vol.: 47
Chanel 3 Note Off - Duracao: 839820 Nota: C1 Vol.: 63
Chanel 3 Note On - Duracao: 839820 Nota: C1 Vol.: 62
Chanel 10 Note Off - Duracao: 840060 Nota: C1 Vol.: 57
Chanel 10 Note On - Duracao: 840060 Nota: C1 Vol.: 64
Chanel 6 Note Off - Duracao: 840180 Nota: C1 Vol.: 68
Chanel 6 Note On - Duracao: 840180 Nota: C1 Vol.: 62
Chanel 7 Note Off - Duracao: 840240 Nota: C1 Vol.: 47
Chanel 7 Note On - Duracao: 840240 Nota: C1 Vol.: 46
Chanel 3 Note Off - Duracao: 840300 Nota: C1 Vol.: 62
Chanel 3 Note On - Duracao: 840300 Nota: C1 Vol.: 65
Chanel 5 Note Off - Duracao: 840480 Nota: C1 Vol.: 44
Chanel 5 Note On - Duracao: 840480 Nota: C1 Vol.: 44
Chanel 3 Note Off - Duracao: 840540 Nota: C1 Vol.: 65
Chanel 3 Note On - Duracao: 840540 Nota: C1 Vol.: 69
Chanel 7 Note Off - Duracao: 840720 Nota: C1 Vol.: 46
Chanel 7 Note On - Duracao: 840720 Nota: C1 Vol.: 48
Chanel 3 Note Off - Duracao: 840780 Nota: C1 Vol.: 69
Chanel 3 Note On - Duracao: 840780 Nota: C1 Vol.: 70
Chanel 9 Note Off - Duracao: 840840 Nota: C1 Vol.: 64
Chanel 9 Note On - Duracao: 840840 Nota: C1 Vol.: 70
Chanel 7 Note Off - Duracao: 840960 Nota: C1 Vol.: 48
Chanel 7 Note On - Duracao: 840960 Nota: C1 Vol.: 48
Chanel 3 Note Off - Duracao: 841020 Nota: C1 Vol.: 70
Chanel 3 Note On - Duracao: 841020 Nota: C1 Vol.: 62
Chanel 10 Note Off - Duracao: 841020 Nota: C1 Vol.: 64
Chanel 10 Note On - Duracao: 841020 Nota: C1 Vol.: 67
Chanel 7 Note Off - Duracao: 841440 Nota: C1 Vol.: 48
Chanel 7 Note On - Duracao: 841440 Nota: C1 Vol.: 48
Chanel 3 Note Off - Duracao: 841500 Nota: C1 Vol.: 62
Chanel 3 Note On - Duracao: 841500 Nota: C1 Vol.: 64
Chanel 9 Note Off - Duracao: 841800 Nota: C1 Vol.: 70
Chanel 9 Note On - Duracao: 841800 Nota: C1 Vol.: 72
Chanel 7 Note Off - Duracao: 841920 Nota: C1 Vol.: 48
Chanel 7 Note On - Duracao: 841920 Nota: C1 Vol.: 44
Chanel 3 Note Off - Duracao: 841980 Nota: C1 Vol.: 64
Chanel 3 Note On - Duracao: 841980 Nota: C1 Vol.: 67
Chanel 10 Note Off - Duracao: 841980 Nota: C1 Vol.: 67
Chanel 10 Note On - Duracao: 841980 Nota: C1 Vol.: 74
Chanel 6 Note Off - Duracao: 842100 Nota: C1 Vol.: 62
Chanel 6 Note On - Duracao: 842100 Nota: C1 Vol.: 74
Chanel 5 Note Off - Duracao: 842400 Nota: C1 Vol.: 44
Chanel 5 Note On - Duracao: 842400 Nota: C1 Vol.: 64
Chanel 3 Note Off - Duracao: 842460 Nota: C1 Vol.: 67
Chanel 3 Note On - Duracao: 842460 Nota: C1 Vol.: 60
Chanel 10 Note Off - Duracao: 842460 Nota: C1 Vol.: 74
Chanel 10 Note On - Duracao: 842460 Nota: C1 Vol.: 65
Chanel 9 Note Off - Duracao: 842760 Nota: C1 Vol.: 72
Chanel 9 Note On - Duracao: 842760 Nota: C1 Vol.: 72
Chanel 4 Note Off - Duracao: 842820 Nota: C1 Vol.: 64
Chanel 4 Note On - Duracao: 842820 Nota: C1 Vol.: 66
Chanel 6 Note Off - Duracao: 843060 Nota: C1 Vol.: 74
Chanel 6 Note On - Duracao: 843060 Nota: C1 Vol.: 87
Chanel 2 Note Off - Duracao: 843120 Nota: C1 Vol.: 45
Chanel 2 Note On - Duracao: 843120 Nota: C1 Vol.: 46
Chanel 8 Note Off - Duracao: 843180 Nota: C1 Vol.: 75
Chanel 8 Note On - Duracao: 843180 Nota: C1 Vol.: 73
Chanel 5 Note Off - Duracao: 843360 Nota: C1 Vol.: 64
Chanel 5 Note On - Duracao: 843360 Nota: C1 Vol.: 89
Chanel 3 Note Off - Duracao: 843420 Nota: C1 Vol.: 60
Chanel 3 Note On - Duracao: 843420 Nota: C1 Vol.: 70
Chanel 10 Note Off - Duracao: 843420 Nota: C1 Vol.: 65
Chanel 10 Note On - Duracao: 843420 Nota: C1 Vol.: 68
Chanel 5 Note Off - Duracao: 843480 Nota: C1 Vol.: 89
Chanel 5 Note On - Duracao: 843480 Nota: C1 Vol.: 88
Chanel 6 Note Off - Duracao: 843540 Nota: C1 Vol.: 87
Chanel 6 Note On - Duracao: 843540 Nota: C1 Vol.: 83
Chanel 5 Note Off - Duracao: 843600 Nota: C1 Vol.: 88
Chanel 5 Note On - Duracao: 843600 Nota: C1 Vol.: 88
Chanel 5 Note Off - Duracao: 843720 Nota: C1 Vol.: 88
Chanel 5 Note On - Duracao: 843720 Nota: C1 Vol.: 88
Chanel 9 Note Off - Duracao: 843720 Nota: C1 Vol.: 72
Chanel 9 Note On - Duracao: 843720 Nota: C1 Vol.: 71
Chanel 5 Note Off - Duracao: 843840 Nota: C1 Vol.: 88
Chanel 5 Note On - Duracao: 843840 Nota: C1 Vol.: 87
Chanel 7 Note Off - Duracao: 843840 Nota: C1 Vol.: 44
Chanel 7 Note On - Duracao: 843840 Nota: C1 Vol.: 57
Chanel 3 Note Off - Duracao: 843900 Nota: C1 Vol.: 70
Chanel 3 Note On - Duracao: 843900 Nota: C1 Vol.: 69
Chanel 10 Note Off - Duracao: 843900 Nota: C1 Vol.: 68
Chanel 10 Note On - Duracao: 843900 Nota: C1 Vol.: 71
Chanel 5 Note Off - Duracao: 843960 Nota: C1 Vol.: 87
Chanel 5 Note On - Duracao: 843960 Nota: C1 Vol.: 88
Chanel 5 Note Off - Duracao: 844080 Nota: C1 Vol.: 88
Chanel 5 Note On - Duracao: 844080 Nota: C1 Vol.: 89
Chanel 5 Note Off - Duracao: 844200 Nota: C1 Vol.: 89
Chanel 5 Note On - Duracao: 844200 Nota: C1 Vol.: 90
Chanel 5 Note Off - Duracao: 844320 Nota: C1 Vol.: 90
Chanel 5 Note On - Duracao: 844320 Nota: C1 Vol.: 94
Chanel 3 Note Off - Duracao: 844380 Nota: C1 Vol.: 69
Chanel 3 Note On - Duracao: 844380 Nota: C1 Vol.: 68
Chanel 10 Note Off - Duracao: 844380 Nota: C1 Vol.: 71
Chanel 10 Note On - Duracao: 844380 Nota: C1 Vol.: 76
Chanel 5 Note Off - Duracao: 844440 Nota: C1 Vol.: 94
Chanel 5 Note On - Duracao: 844440 Nota: C1 Vol.: 100
Chanel 5 Note Off - Duracao: 844500 Nota: C1 Vol.: 100
Chanel 5 Note On - Duracao: 844500 Nota: C1 Vol.: 100
Chanel 6 Note Off - Duracao: 844500 Nota: C1 Vol.: 83
Chanel 6 Note On - Duracao: 844500 Nota: C1 Vol.: 71
Chanel 5 Note Off - Duracao: 844560 Nota: C1 Vol.: 100
Chanel 5 Note On - Duracao: 844560 Nota: C1 Vol.: 71
Chanel 10 Note Off - Duracao: 844620 Nota: C1 Vol.: 76
Chanel 10 Note On - Duracao: 844620 Nota: C1 Vol.: 79
Chanel 9 Note Off - Duracao: 844680 Nota: C1 Vol.: 71
Chanel 9 Note On - Duracao: 844680 Nota: C1 Vol.: 70
Chanel 4 Note Off - Duracao: 844740 Nota: C1 Vol.: 66
Chanel 4 Note On - Duracao: 844740 Nota: C1 Vol.: 75
Chanel 10 Note Off - Duracao: 844860 Nota: C1 Vol.: 79
Chanel 10 Note On - Duracao: 844860 Nota: C1 Vol.: 82
Chanel 5 Note Off - Duracao: 845040 Nota: C1 Vol.: 71
Chanel 5 Note On - Duracao: 845040 Nota: C1 Vol.: 98
Chanel 5 Note Off - Duracao: 845100 Nota: C1 Vol.: 98
Chanel 5 Note On - Duracao: 845100 Nota: C1 Vol.: 99
Chanel 8 Note Off - Duracao: 845100 Nota: C1 Vol.: 73
Chanel 8 Note On - Duracao: 845100 Nota: C1 Vol.: 69
Chanel 10 Note Off - Duracao: 845100 Nota: C1 Vol.: 82
Chanel 10 Note On - Duracao: 845100 Nota: C1 Vol.: 83
Chanel 5 Note Off - Duracao: 845160 Nota: C1 Vol.: 99
Chanel 5 Note On - Duracao: 845160 Nota: C1 Vol.: 100
Chanel 5 Note Off - Duracao: 845220 Nota: C1 Vol.: 100
Chanel 5 Note On - Duracao: 845220 Nota: C1 Vol.: 100
Chanel 5 Note Off - Duracao: 845280 Nota: C1 Vol.: 100
Chanel 5 Note On - Duracao: 845280 Nota: C1 Vol.: 100
Chanel 3 Note Off - Duracao: 845340 Nota: C1 Vol.: 68
Chanel 3 Note On - Duracao: 845340 Nota: C1 Vol.: 70
Chanel 5 Note Off - Duracao: 845340 Nota: C1 Vol.: 100
Chanel 5 Note On - Duracao: 845340 Nota: C1 Vol.: 100
Chanel 10 Note Off - Duracao: 845340 Nota: C1 Vol.: 83
Chanel 10 Note On - Duracao: 845340 Nota: C1 Vol.: 81
Chanel 5 Note Off - Duracao: 845400 Nota: C1 Vol.: 100
Chanel 5 Note On - Duracao: 845400 Nota: C1 Vol.: 99
Chanel 5 Note Off - Duracao: 845460 Nota: C1 Vol.: 99
Chanel 5 Note On - Duracao: 845460 Nota: C1 Vol.: 98
Chanel 5 Note Off - Duracao: 845520 Nota: C1 Vol.: 98
Chanel 5 Note On - Duracao: 845520 Nota: C1 Vol.: 99
Chanel 5 Note Off - Duracao: 845580 Nota: C1 Vol.: 99
Chanel 10 Note Off - Duracao: 845580 Nota: C1 Vol.: 81
Chanel 10 Note On - Duracao: 845580 Nota: C1 Vol.: 81
Chanel 9 Note Off - Duracao: 845640 Nota: C1 Vol.: 70
Chanel 9 Note On - Duracao: 845640 Nota: C1 Vol.: 72
Chanel 4 Note Off - Duracao: 845700 Nota: C1 Vol.: 75
Chanel 4 Note On - Duracao: 845700 Nota: C1 Vol.: 66
Chanel 7 Note Off - Duracao: 845760 Nota: C1 Vol.: 57
Chanel 7 Note On - Duracao: 845760 Nota: C1 Vol.: 65
Chanel 10 Note Off - Duracao: 845820 Nota: C1 Vol.: 81
Chanel 10 Note On - Duracao: 845820 Nota: C1 Vol.: 82
Chanel 10 Note Off - Duracao: 846060 Nota: C1 Vol.: 82
Chanel 10 Note On - Duracao: 846060 Nota: C1 Vol.: 82
Chanel 3 Note Off - Duracao: 846300 Nota: C1 Vol.: 70
Chanel 3 Note On - Duracao: 846300 Nota: C1 Vol.: 67
Chanel 10 Note Off - Duracao: 846300 Nota: C1 Vol.: 82
Chanel 10 Note On - Duracao: 846300 Nota: C1 Vol.: 83
Chanel 6 Note Off - Duracao: 846420 Nota: C1 Vol.: 71
Chanel 6 Note On - Duracao: 846420 Nota: C1 Vol.: 80
Chanel 10 Note Off - Duracao: 846540 Nota: C1 Vol.: 83
Chanel 10 Note On - Duracao: 846540 Nota: C1 Vol.: 82
Chanel 9 Note Off - Duracao: 846600 Nota: C1 Vol.: 72
Chanel 9 Note On - Duracao: 846600 Nota: C1 Vol.: 69
Chanel 10 Note Off - Duracao: 846780 Nota: C1 Vol.: 82
Chanel 10 Note On - Duracao: 846780 Nota: C1 Vol.: 80
Chanel 2 Note Off - Duracao: 846960 Nota: C1 Vol.: 46
Chanel 2 Note On - Duracao: 846960 Nota: C1 Vol.: 76
Chanel 8 Note Off - Duracao: 847020 Nota: C1 Vol.: 69
Chanel 8 Note On - Duracao: 847020 Nota: C1 Vol.: 65
Chanel 10 Note Off - Duracao: 847020 Nota: C1 Vol.: 80
Chanel 10 Note On - Duracao: 847020 Nota: C1 Vol.: 78
Chanel 3 Note Off - Duracao: 847260 Nota: C1 Vol.: 67
Chanel 3 Note On - Duracao: 847260 Nota: C1 Vol.: 64
Chanel 10 Note Off - Duracao: 847260 Nota: C1 Vol.: 78
Chanel 10 Note On - Duracao: 847260 Nota: C1 Vol.: 80
Chanel 6 Note Off - Duracao: 847380 Nota: C1 Vol.: 80
Chanel 6 Note On - Duracao: 847380 Nota: C1 Vol.: 77
Chanel 2 Note Off - Duracao: 847440 Nota: C1 Vol.: 76
Chanel 2 Note On - Duracao: 847440 Nota: C1 Vol.: 81
Chanel 10 Note Off - Duracao: 847500 Nota: C1 Vol.: 80
Chanel 10 Note On - Duracao: 847500 Nota: C1 Vol.: 81
Chanel 9 Note Off - Duracao: 847560 Nota: C1 Vol.: 69
Chanel 9 Note On - Duracao: 847560 Nota: C1 Vol.: 70
Chanel 4 Note Off - Duracao: 847620 Nota: C1 Vol.: 66
Chanel 4 Note On - Duracao: 847620 Nota: C1 Vol.: 58
Chanel 7 Note Off - Duracao: 847680 Nota: C1 Vol.: 65
Chanel 7 Note On - Duracao: 847680 Nota: C1 Vol.: 68
Chanel 10 Note Off - Duracao: 847740 Nota: C1 Vol.: 81
Chanel 10 Note On - Duracao: 847740 Nota: C1 Vol.: 80
Chanel 2 Note Off - Duracao: 847920 Nota: C1 Vol.: 81
Chanel 2 Note On - Duracao: 847920 Nota: C1 Vol.: 82
Chanel 10 Note Off - Duracao: 847980 Nota: C1 Vol.: 80
Chanel 10 Note On - Duracao: 847980 Nota: C1 Vol.: 76
Chanel 3 Note Off - Duracao: 848220 Nota: C1 Vol.: 64
Chanel 3 Note On - Duracao: 848220 Nota: C1 Vol.: 69
Chanel 10 Note Off - Duracao: 848220 Nota: C1 Vol.: 76
Chanel 10 Note On - Duracao: 848220 Nota: C1 Vol.: 75
Chanel 10 Note Off - Duracao: 848460 Nota: C1 Vol.: 75
Chanel 10 Note On - Duracao: 848460 Nota: C1 Vol.: 76
Chanel 10 Note Off - Duracao: 848700 Nota: C1 Vol.: 76
Chanel 10 Note On - Duracao: 848700 Nota: C1 Vol.: 73
Chanel 2 Note Off - Duracao: 848880 Nota: C1 Vol.: 82
Chanel 2 Note On - Duracao: 848880 Nota: C1 Vol.: 82
Chanel 8 Note Off - Duracao: 848940 Nota: C1 Vol.: 65
Chanel 8 Note On - Duracao: 848940 Nota: C1 Vol.: 66
Chanel 3 Note Off - Duracao: 849180 Nota: C1 Vol.: 69
Chanel 3 Note On - Duracao: 849180 Nota: C1 Vol.: 85
Chanel 10 Note Off - Duracao: 849180 Nota: C1 Vol.: 73
Chanel 10 Note On - Duracao: 849180 Nota: C1 Vol.: 72
Chanel 6 Note Off - Duracao: 849300 Nota: C1 Vol.: 77
Chanel 6 Note On - Duracao: 849300 Nota: C1 Vol.: 72
Chanel 3 Note Off - Duracao: 849420 Nota: C1 Vol.: 85
Chanel 3 Note On - Duracao: 849420 Nota: C1 Vol.: 86
Chanel 9 Note Off - Duracao: 849480 Nota: C1 Vol.: 70
Chanel 9 Note On - Duracao: 849480 Nota: C1 Vol.: 85
Chanel 4 Note Off - Duracao: 849540 Nota: C1 Vol.: 58
Chanel 4 Note On - Duracao: 849540 Nota: C1 Vol.: 88
Chanel 7 Note Off - Duracao: 849600 Nota: C1 Vol.: 68
Chanel 7 Note On - Duracao: 849600 Nota: C1 Vol.: 70
Chanel 3 Note Off - Duracao: 849660 Nota: C1 Vol.: 86
Chanel 3 Note On - Duracao: 849660 Nota: C1 Vol.: 80
Chanel 10 Note Off - Duracao: 849660 Nota: C1 Vol.: 72
Chanel 10 Note On - Duracao: 849660 Nota: C1 Vol.: 68
Chanel 4 Note Off - Duracao: 849780 Nota: C1 Vol.: 88
Chanel 4 Note On - Duracao: 849780 Nota: C1 Vol.: 90
Chanel 2 Note Off - Duracao: 849840 Nota: C1 Vol.: 82
Chanel 2 Note On - Duracao: 849840 Nota: C1 Vol.: 80
Chanel 4 Note Off - Duracao: 849900 Nota: C1 Vol.: 90
Chanel 4 Note On - Duracao: 849900 Nota: C1 Vol.: 90
Chanel 4 Note Off - Duracao: 850020 Nota: C1 Vol.: 90
Chanel 4 Note On - Duracao: 850020 Nota: C1 Vol.: 89
Chanel 3 Note Off - Duracao: 850140 Nota: C1 Vol.: 80
Chanel 3 Note On - Duracao: 850140 Nota: C1 Vol.: 50
Chanel 4 Note Off - Duracao: 850140 Nota: C1 Vol.: 89
Chanel 4 Note On - Duracao: 850140 Nota: C1 Vol.: 79
Chanel 10 Note Off - Duracao: 850140 Nota: C1 Vol.: 68
Chanel 10 Note On - Duracao: 850140 Nota: C1 Vol.: 67
Chanel 4 Note Off - Duracao: 850380 Nota: C1 Vol.: 79
Chanel 4 Note On - Duracao: 850380 Nota: C1 Vol.: 97
Chanel 4 Note Off - Duracao: 850440 Nota: C1 Vol.: 97
Chanel 4 Note On - Duracao: 850440 Nota: C1 Vol.: 98
Chanel 9 Note Off - Duracao: 850440 Nota: C1 Vol.: 85
Chanel 9 Note On - Duracao: 850440 Nota: C1 Vol.: 86
Chanel 4 Note Off - Duracao: 850500 Nota: C1 Vol.: 98
Chanel 4 Note On - Duracao: 850500 Nota: C1 Vol.: 97
Chanel 4 Note Off - Duracao: 850560 Nota: C1 Vol.: 97
Chanel 4 Note On - Duracao: 850560 Nota: C1 Vol.: 85
Chanel 7 Note Off - Duracao: 850560 Nota: C1 Vol.: 70
Chanel 7 Note On - Duracao: 850560 Nota: C1 Vol.: 68
Chanel 4 Note Off - Duracao: 850680 Nota: C1 Vol.: 85
Chanel 4 Note On - Duracao: 850680 Nota: C1 Vol.: 68
Chanel 2 Note Off - Duracao: 850800 Nota: C1 Vol.: 80
Chanel 2 Note On - Duracao: 850800 Nota: C1 Vol.: 76
Chanel 8 Note Off - Duracao: 850860 Nota: C1 Vol.: 66
Chanel 8 Note On - Duracao: 850860 Nota: C1 Vol.: 67
Chanel 10 Note Off - Duracao: 851100 Nota: C1 Vol.: 67
Chanel 10 Note On - Duracao: 851100 Nota: C1 Vol.: 66
Chanel 4 Note Off - Duracao: 851160 Nota: C1 Vol.: 68
Chanel 4 Note On - Duracao: 851160 Nota: C1 Vol.: 98
Chanel 4 Note Off - Duracao: 851220 Nota: C1 Vol.: 98
Chanel 4 Note On - Duracao: 851220 Nota: C1 Vol.: 99
Chanel 6 Note Off - Duracao: 851220 Nota: C1 Vol.: 72
Chanel 6 Note On - Duracao: 851220 Nota: C1 Vol.: 71
Chanel 4 Note Off - Duracao: 851280 Nota: C1 Vol.: 99
Chanel 4 Note On - Duracao: 851280 Nota: C1 Vol.: 98
Chanel 4 Note Off - Duracao: 851340 Nota: C1 Vol.: 98
Chanel 4 Note On - Duracao: 851340 Nota: C1 Vol.: 97
Chanel 4 Note Off - Duracao: 851400 Nota: C1 Vol.: 97
Chanel 4 Note On - Duracao: 851400 Nota: C1 Vol.: 99
Chanel 9 Note Off - Duracao: 851400 Nota: C1 Vol.: 86
Chanel 9 Note On - Duracao: 851400 Nota: C1 Vol.: 86
Chanel 4 Note Off - Duracao: 851460 Nota: C1 Vol.: 99
Chanel 4 Note On - Duracao: 851460 Nota: C1 Vol.: 83
Chanel 7 Note Off - Duracao: 851520 Nota: C1 Vol.: 68
Chanel 7 Note On - Duracao: 851520 Nota: C1 Vol.: 59
Chanel 4 Note Off - Duracao: 851700 Nota: C1 Vol.: 83
Chanel 4 Note On - Duracao: 851700 Nota: C1 Vol.: 97
Chanel 4 Note Off - Duracao: 851820 Nota: C1 Vol.: 97
Chanel 4 Note On - Duracao: 851820 Nota: C1 Vol.: 100
Chanel 4 Note Off - Duracao: 851880 Nota: C1 Vol.: 100
Chanel 4 Note On - Duracao: 851880 Nota: C1 Vol.: 100
Chanel 4 Note Off - Duracao: 851940 Nota: C1 Vol.: 100
Chanel 4 Note On - Duracao: 851940 Nota: C1 Vol.: 96
Chanel 4 Note Off - Duracao: 852000 Nota: C1 Vol.: 96
Chanel 4 Note On - Duracao: 852000 Nota: C1 Vol.: 86
Chanel 10 Note Off - Duracao: 852060 Nota: C1 Vol.: 66
Chanel 10 Note On - Duracao: 852060 Nota: C1 Vol.: 62
Chanel 4 Note Off - Duracao: 852120 Nota: C1 Vol.: 86
Chanel 4 Note On - Duracao: 852120 Nota: C1 Vol.: 66
Chanel 9 Note Off - Duracao: 852360 Nota: C1 Vol.: 86
Chanel 9 Note On - Duracao: 852360 Nota: C1 Vol.: 83
Chanel 4 Note Off - Duracao: 852600 Nota: C1 Vol.: 66
Chanel 4 Note On - Duracao: 852600 Nota: C1 Vol.: 91
Chanel 2 Note Off - Duracao: 852720 Nota: C1 Vol.: 76
Chanel 2 Note On - Duracao: 852720 Nota: C1 Vol.: 75
Chanel 4 Note Off - Duracao: 852720 Nota: C1 Vol.: 91
Chanel 4 Note On - Duracao: 852720 Nota: C1 Vol.: 99
Chanel 4 Note Off - Duracao: 852780 Nota: C1 Vol.: 99
Chanel 4 Note On - Duracao: 852780 Nota: C1 Vol.: 65
Chanel 8 Note Off - Duracao: 852780 Nota: C1 Vol.: 67
Chanel 8 Note On - Duracao: 852780 Nota: C1 Vol.: 77
Chanel 6 Note Off - Duracao: 853140 Nota: C1 Vol.: 71
Chanel 6 Note On - Duracao: 853140 Nota: C1 Vol.: 75
Chanel 4 Note Off - Duracao: 853260 Nota: C1 Vol.: 65
Chanel 4 Note On - Duracao: 853260 Nota: C1 Vol.: 63
Chanel 9 Note Off - Duracao: 853320 Nota: C1 Vol.: 83
Chanel 9 Note On - Duracao: 853320 Nota: C1 Vol.: 77
Chanel 7 Note Off - Duracao: 853440 Nota: C1 Vol.: 59
Chanel 7 Note On - Duracao: 853440 Nota: C1 Vol.: 56
Chanel 8 Note Off - Duracao: 853740 Nota: C1 Vol.: 77
Chanel 8 Note On - Duracao: 853740 Nota: C1 Vol.: 75
Chanel 3 Note Off - Duracao: 853980 Nota: C1 Vol.: 50
Chanel 3 Note On - Duracao: 853980 Nota: C1 Vol.: 67
Chanel 10 Note Off - Duracao: 853980 Nota: C1 Vol.: 62
Chanel 10 Note On - Duracao: 853980 Nota: C1 Vol.: 67
Chanel 6 Note Off - Duracao: 854100 Nota: C1 Vol.: 75
Chanel 6 Note On - Duracao: 854100 Nota: C1 Vol.: 84
Chanel 4 Note Off - Duracao: 854220 Nota: C1 Vol.: 63
Chanel 4 Note On - Duracao: 854220 Nota: C1 Vol.: 92
Chanel 4 Note Off - Duracao: 854340 Nota: C1 Vol.: 92
Chanel 4 Note On - Duracao: 854340 Nota: C1 Vol.: 99
Chanel 4 Note Off - Duracao: 854460 Nota: C1 Vol.: 99
Chanel 4 Note On - Duracao: 854460 Nota: C1 Vol.: 99
Chanel 4 Note Off - Duracao: 854520 Nota: C1 Vol.: 99
Chanel 4 Note On - Duracao: 854520 Nota: C1 Vol.: 100
Chanel 4 Note Off - Duracao: 854580 Nota: C1 Vol.: 100
Chanel 4 Note On - Duracao: 854580 Nota: C1 Vol.: 98
Chanel 6 Note Off - Duracao: 854580 Nota: C1 Vol.: 84
Chanel 6 Note On - Duracao: 854580 Nota: C1 Vol.: 61
Chanel 2 Note Off - Duracao: 854640 Nota: C1 Vol.: 75
Chanel 2 Note On - Duracao: 854640 Nota: C1 Vol.: 71
Chanel 4 Note Off - Duracao: 854640 Nota: C1 Vol.: 98
Chanel 4 Note On - Duracao: 854640 Nota: C1 Vol.: 99
Chanel 4 Note Off - Duracao: 854700 Nota: C1 Vol.: 99
Chanel 4 Note On - Duracao: 854700 Nota: C1 Vol.: 97
Chanel 4 Note Off - Duracao: 854820 Nota: C1 Vol.: 97
Chanel 4 Note On - Duracao: 854820 Nota: C1 Vol.: 62
Chanel 3 Note Off - Duracao: 854940 Nota: C1 Vol.: 67
Chanel 3 Note On - Duracao: 854940 Nota: C1 Vol.: 46
Chanel 10 Note Off - Duracao: 854940 Nota: C1 Vol.: 67
Chanel 10 Note On - Duracao: 854940 Nota: C1 Vol.: 67
Chanel 9 Note Off - Duracao: 855240 Nota: C1 Vol.: 77
Chanel 9 Note On - Duracao: 855240 Nota: C1 Vol.: 79
Chanel 7 Note Off - Duracao: 855360 Nota: C1 Vol.: 56
Chanel 7 Note On - Duracao: 855360 Nota: C1 Vol.: 58
Chanel 6 Note Off - Duracao: 855540 Nota: C1 Vol.: 61
Chanel 6 Note On - Duracao: 855540 Nota: C1 Vol.: 50
Chanel 8 Note Off - Duracao: 855660 Nota: C1 Vol.: 75
Chanel 8 Note On - Duracao: 855660 Nota: C1 Vol.: 84
Chanel 4 Note Off - Duracao: 855780 Nota: C1 Vol.: 62
Chanel 4 Note On - Duracao: 855780 Nota: C1 Vol.: 48
Chanel 10 Note Off - Duracao: 855900 Nota: C1 Vol.: 67
Chanel 10 Note On - Duracao: 855900 Nota: C1 Vol.: 67
Chanel 6 Note Off - Duracao: 856500 Nota: C1 Vol.: 50
Chanel 6 Note On - Duracao: 856500 Nota: C1 Vol.: 41
Chanel 2 Note Off - Duracao: 856560 Nota: C1 Vol.: 71
Chanel 2 Note On - Duracao: 856560 Nota: C1 Vol.: 67
Chanel 8 Note Off - Duracao: 856620 Nota: C1 Vol.: 84
Chanel 8 Note On - Duracao: 856620 Nota: C1 Vol.: 88
Chanel 10 Note Off - Duracao: 856860 Nota: C1 Vol.: 67
Chanel 10 Note On - Duracao: 856860 Nota: C1 Vol.: 70
Chanel 8 Note Off - Duracao: 857100 Nota: C1 Vol.: 88
Chanel 8 Note On - Duracao: 857100 Nota: C1 Vol.: 90
Chanel 9 Note Off - Duracao: 857160 Nota: C1 Vol.: 79
Chanel 9 Note On - Duracao: 857160 Nota: C1 Vol.: 87
Chanel 7 Note Off - Duracao: 857280 Nota: C1 Vol.: 58
Chanel 7 Note On - Duracao: 857280 Nota: C1 Vol.: 63
Chanel 6 Note Off - Duracao: 857460 Nota: C1 Vol.: 41
Chanel 6 Note On - Duracao: 857460 Nota: C1 Vol.: 40
Chanel 8 Note Off - Duracao: 857580 Nota: C1 Vol.: 90
Chanel 8 Note On - Duracao: 857580 Nota: C1 Vol.: 87
Chanel 4 Note Off - Duracao: 857700 Nota: C1 Vol.: 48
Chanel 4 Note On - Duracao: 857700 Nota: C1 Vol.: 91
Chanel 4 Note Off - Duracao: 857820 Nota: C1 Vol.: 91
Chanel 4 Note On - Duracao: 857820 Nota: C1 Vol.: 88
Chanel 10 Note Off - Duracao: 857820 Nota: C1 Vol.: 70
Chanel 10 Note On - Duracao: 857820 Nota: C1 Vol.: 69
Chanel 4 Note Off - Duracao: 857940 Nota: C1 Vol.: 88
Chanel 4 Note On - Duracao: 857940 Nota: C1 Vol.: 100
Chanel 4 Note Off - Duracao: 858000 Nota: C1 Vol.: 100
Chanel 4 Note On - Duracao: 858000 Nota: C1 Vol.: 99
Chanel 4 Note Off - Duracao: 858060 Nota: C1 Vol.: 99
Chanel 4 Note On - Duracao: 858060 Nota: C1 Vol.: 99
Chanel 8 Note Off - Duracao: 858060 Nota: C1 Vol.: 87
Chanel 8 Note On - Duracao: 858060 Nota: C1 Vol.: 81
Chanel 4 Note Off - Duracao: 858120 Nota: C1 Vol.: 99
Chanel 4 Note On - Duracao: 858120 Nota: C1 Vol.: 100
Chanel 9 Note Off - Duracao: 858120 Nota: C1 Vol.: 87
Chanel 9 Note On - Duracao: 858120 Nota: C1 Vol.: 87
Chanel 4 Note Off - Duracao: 858180 Nota: C1 Vol.: 100
Chanel 4 Note On - Duracao: 858180 Nota: C1 Vol.: 98
Chanel 4 Note Off - Duracao: 858240 Nota: C1 Vol.: 98
Chanel 4 Note On - Duracao: 858240 Nota: C1 Vol.: 99
Chanel 7 Note Off - Duracao: 858240 Nota: C1 Vol.: 63
Chanel 7 Note On - Duracao: 858240 Nota: C1 Vol.: 75
Chanel 4 Note Off - Duracao: 858300 Nota: C1 Vol.: 99
Chanel 4 Note On - Duracao: 858300 Nota: C1 Vol.: 74
Chanel 6 Note Off - Duracao: 858420 Nota: C1 Vol.: 40
Chanel 6 Note On - Duracao: 858420 Nota: C1 Vol.: 41
Chanel 3 Note Off - Duracao: 858780 Nota: C1 Vol.: 46
Chanel 3 Note On - Duracao: 858780 Nota: C1 Vol.: 46
Chanel 4 Note Off - Duracao: 858780 Nota: C1 Vol.: 74
Chanel 4 Note On - Duracao: 858780 Nota: C1 Vol.: 46
Chanel 10 Note Off - Duracao: 858780 Nota: C1 Vol.: 69
Chanel 10 Note On - Duracao: 858780 Nota: C1 Vol.: 69
Chanel 8 Note Off - Duracao: 859020 Nota: C1 Vol.: 81
Chanel 8 Note On - Duracao: 859020 Nota: C1 Vol.: 82
Chanel 7 Note Off - Duracao: 859200 Nota: C1 Vol.: 75
Chanel 7 Note On - Duracao: 859200 Nota: C1 Vol.: 72
Chanel 6 Note Off - Duracao: 859380 Nota: C1 Vol.: 41
Chanel 6 Note On - Duracao: 859380 Nota: C1 Vol.: 41
Chanel 8 Note Off - Duracao: 859980 Nota: C1 Vol.: 82
Chanel 8 Note On - Duracao: 859980 Nota: C1 Vol.: 79
Chanel 9 Note Off - Duracao: 860040 Nota: C1 Vol.: 87
Chanel 9 Note On - Duracao: 860040 Nota: C1 Vol.: 91
Chanel 7 Note Off - Duracao: 860160 Nota: C1 Vol.: 72
Chanel 7 Note On - Duracao: 860160 Nota: C1 Vol.: 75
Chanel 6 Note Off - Duracao: 860340 Nota: C1 Vol.: 41
Chanel 6 Note On - Duracao: 860340 Nota: C1 Vol.: 40
Chanel 2 Note Off - Duracao: 860400 Nota: C1 Vol.: 67
Chanel 2 Note On - Duracao: 860400 Nota: C1 Vol.: 66
Chanel 7 Note Off - Duracao: 860640 Nota: C1 Vol.: 75
Chanel 7 Note On - Duracao: 860640 Nota: C1 Vol.: 90
Chanel 10 Note Off - Duracao: 860700 Nota: C1 Vol.: 69
Chanel 10 Note On - Duracao: 860700 Nota: C1 Vol.: 73
Chanel 7 Note Off - Duracao: 860760 Nota: C1 Vol.: 90
Chanel 7 Note On - Duracao: 860760 Nota: C1 Vol.: 93
Chanel 7 Note Off - Duracao: 860880 Nota: C1 Vol.: 93
Chanel 7 Note On - Duracao: 860880 Nota: C1 Vol.: 91
Chanel 8 Note Off - Duracao: 860940 Nota: C1 Vol.: 79
Chanel 8 Note On - Duracao: 860940 Nota: C1 Vol.: 70
Chanel 7 Note Off - Duracao: 861000 Nota: C1 Vol.: 91
Chanel 7 Note On - Duracao: 861000 Nota: C1 Vol.: 89
Chanel 9 Note Off - Duracao: 861000 Nota: C1 Vol.: 91
Chanel 9 Note On - Duracao: 861000 Nota: C1 Vol.: 87
Chanel 7 Note Off - Duracao: 861120 Nota: C1 Vol.: 89
Chanel 7 Note On - Duracao: 861120 Nota: C1 Vol.: 83
Chanel 6 Note Off - Duracao: 861300 Nota: C1 Vol.: 40
Chanel 6 Note On - Duracao: 861300 Nota: C1 Vol.: 47
Chanel 7 Note Off - Duracao: 861360 Nota: C1 Vol.: 83
Chanel 7 Note On - Duracao: 861360 Nota: C1 Vol.: 78
Chanel 10 Note Off - Duracao: 861660 Nota: C1 Vol.: 73
Chanel 10 Note On - Duracao: 861660 Nota: C1 Vol.: 73
Chanel 7 Note Off - Duracao: 861840 Nota: C1 Vol.: 78
Chanel 7 Note On - Duracao: 861840 Nota: C1 Vol.: 78
Chanel 8 Note Off - Duracao: 861900 Nota: C1 Vol.: 70
Chanel 8 Note On - Duracao: 861900 Nota: C1 Vol.: 55
Chanel 7 Note Off - Duracao: 862080 Nota: C1 Vol.: 78
Chanel 7 Note On - Duracao: 862080 Nota: C1 Vol.: 80
Chanel 6 Note Off - Duracao: 862260 Nota: C1 Vol.: 47
Chanel 6 Note On - Duracao: 862260 Nota: C1 Vol.: 47
Chanel 7 Note Off - Duracao: 862320 Nota: C1 Vol.: 80
Chanel 7 Note On - Duracao: 862320 Nota: C1 Vol.: 80
Chanel 7 Note Off - Duracao: 862560 Nota: C1 Vol.: 80
Chanel 7 Note On - Duracao: 862560 Nota: C1 Vol.: 89
Chanel 3 Note Off - Duracao: 862620 Nota: C1 Vol.: 46
Chanel 3 Note On - Duracao: 862620 Nota: C1 Vol.: 61
Chanel 4 Note Off - Duracao: 862620 Nota: C1 Vol.: 46
Chanel 4 Note On - Duracao: 862620 Nota: C1 Vol.: 68
Chanel 7 Note Off - Duracao: 862680 Nota: C1 Vol.: 89
Chanel 7 Note On - Duracao: 862680 Nota: C1 Vol.: 97
Chanel 7 Note Off - Duracao: 862740 Nota: C1 Vol.: 97
Chanel 7 Note On - Duracao: 862740 Nota: C1 Vol.: 85
Chanel 9 Note Off - Duracao: 862920 Nota: C1 Vol.: 87
Chanel 9 Note On - Duracao: 862920 Nota: C1 Vol.: 82
Chanel 7 Note Off - Duracao: 862980 Nota: C1 Vol.: 85
Chanel 7 Note On - Duracao: 862980 Nota: C1 Vol.: 74
Chanel 4 Note Off - Duracao: 863100 Nota: C1 Vol.: 68
Chanel 4 Note On - Duracao: 863100 Nota: C1 Vol.: 90
Chanel 4 Note Off - Duracao: 863220 Nota: C1 Vol.: 90
Chanel 4 Note On - Duracao: 863220 Nota: C1 Vol.: 90
Chanel 6 Note Off - Duracao: 863220 Nota: C1 Vol.: 47
Chanel 6 Note On - Duracao: 863220 Nota: C1 Vol.: 40
Chanel 4 Note Off - Duracao: 863340 Nota: C1 Vol.: 90
Chanel 4 Note On - Duracao: 863340 Nota: C1 Vol.: 100
Chanel 4 Note Off - Duracao: 863400 Nota: C1 Vol.: 100
Chanel 4 Note On - Duracao: 863400 Nota: C1 Vol.: 96
Chanel 4 Note Off - Duracao: 863460 Nota: C1 Vol.: 96
Chanel 4 Note On - Duracao: 863460 Nota: C1 Vol.: 96
Chanel 7 Note Off - Duracao: 863460 Nota: C1 Vol.: 74
Chanel 7 Note On - Duracao: 863460 Nota: C1 Vol.: 77
Chanel 4 Note Off - Duracao: 863520 Nota: C1 Vol.: 96
Chanel 4 Note On - Duracao: 863520 Nota: C1 Vol.: 98
Chanel 4 Note Off - Duracao: 863580 Nota: C1 Vol.: 98
Chanel 4 Note On - Duracao: 863580 Nota: C1 Vol.: 93
Chanel 10 Note Off - Duracao: 863580 Nota: C1 Vol.: 73
Chanel 10 Note On - Duracao: 863580 Nota: C1 Vol.: 74
Chanel 4 Note Off - Duracao: 863700 Nota: C1 Vol.: 93
Chanel 4 Note On - Duracao: 863700 Nota: C1 Vol.: 85
Chanel 4 Note Off - Duracao: 863940 Nota: C1 Vol.: 85
Chanel 4 Note On - Duracao: 863940 Nota: C1 Vol.: 72
Chanel 7 Note Off - Duracao: 863940 Nota: C1 Vol.: 77
Chanel 7 Note On - Duracao: 863940 Nota: C1 Vol.: 71
Chanel 6 Note Off - Duracao: 864180 Nota: C1 Vol.: 40
Chanel 6 Note On - Duracao: 864180 Nota: C1 Vol.: 40
Chanel 2 Note Off - Duracao: 864240 Nota: C1 Vol.: 66
Chanel 2 Note On - Duracao: 864240 Nota: C1 Vol.: 74
Chanel 4 Note Off - Duracao: 864420 Nota: C1 Vol.: 72
Chanel 4 Note On - Duracao: 864420 Nota: C1 Vol.: 69
Chanel 3 Note Off - Duracao: 864540 Nota: C1 Vol.: 61
Chanel 3 Note On - Duracao: 864540 Nota: C1 Vol.: 59
Chanel 10 Note Off - Duracao: 864540 Nota: C1 Vol.: 74
Chanel 10 Note On - Duracao: 864540 Nota: C1 Vol.: 70
Chanel 9 Note Off - Duracao: 864840 Nota: C1 Vol.: 82
Chanel 9 Note On - Duracao: 864840 Nota: C1 Vol.: 79
Chanel 4 Note Off - Duracao: 864900 Nota: C1 Vol.: 69
Chanel 4 Note On - Duracao: 864900 Nota: C1 Vol.: 79
Chanel 7 Note Off - Duracao: 864900 Nota: C1 Vol.: 71
Chanel 7 Note On - Duracao: 864900 Nota: C1 Vol.: 64
Chanel 4 Note Off - Duracao: 865140 Nota: C1 Vol.: 79
Chanel 4 Note On - Duracao: 865140 Nota: C1 Vol.: 98
Chanel 6 Note Off - Duracao: 865140 Nota: C1 Vol.: 40
Chanel 6 Note On - Duracao: 865140 Nota: C1 Vol.: 41
Chanel 4 Note Off - Duracao: 865200 Nota: C1 Vol.: 98
Chanel 4 Note On - Duracao: 865200 Nota: C1 Vol.: 96
Chanel 4 Note Off - Duracao: 865260 Nota: C1 Vol.: 96
Chanel 4 Note On - Duracao: 865260 Nota: C1 Vol.: 96
Chanel 4 Note Off - Duracao: 865320 Nota: C1 Vol.: 96
Chanel 4 Note On - Duracao: 865320 Nota: C1 Vol.: 95
Chanel 4 Note Off - Duracao: 865380 Nota: C1 Vol.: 95
Chanel 4 Note On - Duracao: 865380 Nota: C1 Vol.: 97
Chanel 4 Note Off - Duracao: 865440 Nota: C1 Vol.: 97
Chanel 4 Note On - Duracao: 865440 Nota: C1 Vol.: 96
Chanel 4 Note Off - Duracao: 865500 Nota: C1 Vol.: 96
Chanel 4 Note On - Duracao: 865500 Nota: C1 Vol.: 95
Chanel 4 Note Off - Duracao: 865560 Nota: C1 Vol.: 95
Chanel 4 Note On - Duracao: 865560 Nota: C1 Vol.: 95
Chanel 4 Note Off - Duracao: 865620 Nota: C1 Vol.: 95
Chanel 4 Note On - Duracao: 865620 Nota: C1 Vol.: 95
Chanel 4 Note Off - Duracao: 865740 Nota: C1 Vol.: 95
Chanel 4 Note On - Duracao: 865740 Nota: C1 Vol.: 86
Chanel 8 Note Off - Duracao: 865740 Nota: C1 Vol.: 55
Chanel 8 Note On - Duracao: 865740 Nota: C1 Vol.: 57
Chanel 7 Note Off - Duracao: 865860 Nota: C1 Vol.: 64
Chanel 7 Note On - Duracao: 865860 Nota: C1 Vol.: 60
Chanel 4 Note Off - Duracao: 865980 Nota: C1 Vol.: 86
Chanel 4 Note On - Duracao: 865980 Nota: C1 Vol.: 90
Chanel 6 Note Off - Duracao: 866100 Nota: C1 Vol.: 41
Chanel 6 Note On - Duracao: 866100 Nota: C1 Vol.: 41
Chanel 2 Note Off - Duracao: 866160 Nota: C1 Vol.: 74
Chanel 2 Note On - Duracao: 866160 Nota: C1 Vol.: 78
Chanel 4 Note Off - Duracao: 866220 Nota: C1 Vol.: 90
Chanel 4 Note On - Duracao: 866220 Nota: C1 Vol.: 73
Chanel 3 Note Off - Duracao: 866460 Nota: C1 Vol.: 59
Chanel 3 Note On - Duracao: 866460 Nota: C1 Vol.: 58
Chanel 10 Note Off - Duracao: 866460 Nota: C1 Vol.: 70
Chanel 10 Note On - Duracao: 866460 Nota: C1 Vol.: 71
Chanel 9 Note Off - Duracao: 866760 Nota: C1 Vol.: 79
Chanel 9 Note On - Duracao: 866760 Nota: C1 Vol.: 72
Chanel 7 Note Off - Duracao: 866820 Nota: C1 Vol.: 60
Chanel 7 Note On - Duracao: 866820 Nota: C1 Vol.: 51
Chanel 6 Note Off - Duracao: 867060 Nota: C1 Vol.: 41
Chanel 6 Note On - Duracao: 867060 Nota: C1 Vol.: 41
Chanel 2 Note Off - Duracao: 867120 Nota: C1 Vol.: 78
Chanel 2 Note On - Duracao: 867120 Nota: C1 Vol.: 54
Chanel 4 Note Off - Duracao: 867180 Nota: C1 Vol.: 73
Chanel 4 Note On - Duracao: 867180 Nota: C1 Vol.: 67
Chanel 10 Note Off - Duracao: 867420 Nota: C1 Vol.: 71
Chanel 10 Note On - Duracao: 867420 Nota: C1 Vol.: 71
Chanel 8 Note Off - Duracao: 867660 Nota: C1 Vol.: 57
Chanel 8 Note On - Duracao: 867660 Nota: C1 Vol.: 56
Chanel 6 Note Off - Duracao: 868020 Nota: C1 Vol.: 41
Chanel 6 Note On - Duracao: 868020 Nota: C1 Vol.: 40
Chanel 3 Note Off - Duracao: 868380 Nota: C1 Vol.: 58
Chanel 3 Note On - Duracao: 868380 Nota: C1 Vol.: 55
Chanel 10 Note Off - Duracao: 868380 Nota: C1 Vol.: 71
Chanel 10 Note On - Duracao: 868380 Nota: C1 Vol.: 67
Chanel 9 Note Off - Duracao: 868680 Nota: C1 Vol.: 72
Chanel 9 Note On - Duracao: 868680 Nota: C1 Vol.: 73
Chanel 7 Note Off - Duracao: 868740 Nota: C1 Vol.: 51
Chanel 7 Note On - Duracao: 868740 Nota: C1 Vol.: 60
Chanel 6 Note Off - Duracao: 868980 Nota: C1 Vol.: 40
Chanel 6 Note On - Duracao: 868980 Nota: C1 Vol.: 41
Chanel 4 Note Off - Duracao: 869100 Nota: C1 Vol.: 67
Chanel 4 Note On - Duracao: 869100 Nota: C1 Vol.: 70
Chanel 8 Note Off - Duracao: 869580 Nota: C1 Vol.: 56
Chanel 8 Note On - Duracao: 869580 Nota: C1 Vol.: 54
Chanel 7 Note Off - Duracao: 869700 Nota: C1 Vol.: 60
Chanel 7 Note On - Duracao: 869700 Nota: C1 Vol.: 68
Chanel 6 Note Off - Duracao: 869940 Nota: C1 Vol.: 41
Chanel 6 Note On - Duracao: 869940 Nota: C1 Vol.: 43
Chanel 4 Note Off - Duracao: 870060 Nota: C1 Vol.: 70
Chanel 4 Note On - Duracao: 870060 Nota: C1 Vol.: 60
Chanel 7 Note Off - Duracao: 870180 Nota: C1 Vol.: 68
Chanel 7 Note On - Duracao: 870180 Nota: C1 Vol.: 72
Chanel 3 Note Off - Duracao: 870300 Nota: C1 Vol.: 55
Chanel 3 Note On - Duracao: 870300 Nota: C1 Vol.: 69
Chanel 10 Note Off - Duracao: 870300 Nota: C1 Vol.: 67
Chanel 10 Note On - Duracao: 870300 Nota: C1 Vol.: 62
Chanel 6 Note Off - Duracao: 870420 Nota: C1 Vol.: 43
Chanel 6 Note On - Duracao: 870420 Nota: C1 Vol.: 48
Chanel 9 Note Off - Duracao: 870600 Nota: C1 Vol.: 73
Chanel 9 Note On - Duracao: 870600 Nota: C1 Vol.: 67
Chanel 7 Note Off - Duracao: 870660 Nota: C1 Vol.: 72
Chanel 7 Note On - Duracao: 870660 Nota: C1 Vol.: 67
Chanel 6 Note Off - Duracao: 870900 Nota: C1 Vol.: 48
Chanel 6 Note On - Duracao: 870900 Nota: C1 Vol.: 49
Chanel 2 Note Off - Duracao: 870960 Nota: C1 Vol.: 54
Chanel 2 Note On - Duracao: 870960 Nota: C1 Vol.: 46
Chanel 7 Note Off - Duracao: 871140 Nota: C1 Vol.: 67
Chanel 7 Note On - Duracao: 871140 Nota: C1 Vol.: 59
Chanel 3 Note Off - Duracao: 871260 Nota: C1 Vol.: 69
Chanel 3 Note On - Duracao: 871260 Nota: C1 Vol.: 51
Chanel 6 Note Off - Duracao: 871380 Nota: C1 Vol.: 49
Chanel 6 Note On - Duracao: 871380 Nota: C1 Vol.: 48
Chanel 8 Note Off - Duracao: 871500 Nota: C1 Vol.: 54
Chanel 8 Note On - Duracao: 871500 Nota: C1 Vol.: 57
Chanel 6 Note Off - Duracao: 871860 Nota: C1 Vol.: 48
Chanel 6 Note On - Duracao: 871860 Nota: C1 Vol.: 48
Chanel 4 Note Off - Duracao: 871980 Nota: C1 Vol.: 60
Chanel 4 Note On - Duracao: 871980 Nota: C1 Vol.: 61
Chanel 7 Note Off - Duracao: 872100 Nota: C1 Vol.: 59
Chanel 7 Note On - Duracao: 872100 Nota: C1 Vol.: 70
Chanel 10 Note Off - Duracao: 872220 Nota: C1 Vol.: 62
Chanel 10 Note On - Duracao: 872220 Nota: C1 Vol.: 64
Chanel 6 Note Off - Duracao: 872340 Nota: C1 Vol.: 48
Chanel 6 Note On - Duracao: 872340 Nota: C1 Vol.: 48
Chanel 7 Note Off - Duracao: 872580 Nota: C1 Vol.: 70
Chanel 7 Note On - Duracao: 872580 Nota: C1 Vol.: 68
Chanel 6 Note Off - Duracao: 872820 Nota: C1 Vol.: 48
Chanel 6 Note On - Duracao: 872820 Nota: C1 Vol.: 48
Chanel 7 Note Off - Duracao: 873060 Nota: C1 Vol.: 68
Chanel 7 Note On - Duracao: 873060 Nota: C1 Vol.: 75
Chanel 3 Note Off - Duracao: 873180 Nota: C1 Vol.: 51
Chanel 3 Note On - Duracao: 873180 Nota: C1 Vol.: 91
Chanel 3 Note Off - Duracao: 873300 Nota: C1 Vol.: 91
Chanel 3 Note On - Duracao: 873300 Nota: C1 Vol.: 88
Chanel 6 Note Off - Duracao: 873300 Nota: C1 Vol.: 48
Chanel 6 Note On - Duracao: 873300 Nota: C1 Vol.: 48
Chanel 3 Note Off - Duracao: 873420 Nota: C1 Vol.: 88
Chanel 3 Note On - Duracao: 873420 Nota: C1 Vol.: 97
Chanel 8 Note Off - Duracao: 873420 Nota: C1 Vol.: 57
Chanel 8 Note On - Duracao: 873420 Nota: C1 Vol.: 62
Chanel 3 Note Off - Duracao: 873540 Nota: C1 Vol.: 97
Chanel 3 Note On - Duracao: 873540 Nota: C1 Vol.: 99
Chanel 7 Note Off - Duracao: 873540 Nota: C1 Vol.: 75
Chanel 7 Note On - Duracao: 873540 Nota: C1 Vol.: 78
Chanel 3 Note Off - Duracao: 873600 Nota: C1 Vol.: 99
Chanel 3 Note On - Duracao: 873600 Nota: C1 Vol.: 99
Chanel 3 Note Off - Duracao: 873660 Nota: C1 Vol.: 99
Chanel 3 Note On - Duracao: 873660 Nota: C1 Vol.: 99
Chanel 3 Note Off - Duracao: 873720 Nota: C1 Vol.: 99
Chanel 3 Note On - Duracao: 873720 Nota: C1 Vol.: 99
Chanel 3 Note Off - Duracao: 873780 Nota: C1 Vol.: 99
Chanel 3 Note On - Duracao: 873780 Nota: C1 Vol.: 97
Chanel 6 Note Off - Duracao: 873780 Nota: C1 Vol.: 48
Chanel 6 Note On - Duracao: 873780 Nota: C1 Vol.: 46
Chanel 3 Note Off - Duracao: 873840 Nota: C1 Vol.: 97
Chanel 3 Note On - Duracao: 873840 Nota: C1 Vol.: 98
Chanel 3 Note Off - Duracao: 873900 Nota: C1 Vol.: 98
Chanel 3 Note On - Duracao: 873900 Nota: C1 Vol.: 90
Chanel 4 Note Off - Duracao: 873900 Nota: C1 Vol.: 61
Chanel 4 Note On - Duracao: 873900 Nota: C1 Vol.: 64
Chanel 3 Note Off - Duracao: 874020 Nota: C1 Vol.: 90
Chanel 3 Note On - Duracao: 874020 Nota: C1 Vol.: 48
Chanel 7 Note Off - Duracao: 874020 Nota: C1 Vol.: 78
Chanel 7 Note On - Duracao: 874020 Nota: C1 Vol.: 83
Chanel 10 Note Off - Duracao: 874140 Nota: C1 Vol.: 64
Chanel 10 Note On - Duracao: 874140 Nota: C1 Vol.: 73
Chanel 6 Note Off - Duracao: 874260 Nota: C1 Vol.: 46
Chanel 6 Note On - Duracao: 874260 Nota: C1 Vol.: 46
Chanel 8 Note Off - Duracao: 874380 Nota: C1 Vol.: 62
Chanel 8 Note On - Duracao: 874380 Nota: C1 Vol.: 54
Chanel 9 Note Off - Duracao: 874440 Nota: C1 Vol.: 67
Chanel 9 Note On - Duracao: 874440 Nota: C1 Vol.: 68
Chanel 6 Note Off - Duracao: 874740 Nota: C1 Vol.: 46
Chanel 6 Note On - Duracao: 874740 Nota: C1 Vol.: 46
Chanel 2 Note Off - Duracao: 874800 Nota: C1 Vol.: 46
Chanel 2 Note On - Duracao: 874800 Nota: C1 Vol.: 45
Chanel 7 Note Off - Duracao: 874980 Nota: C1 Vol.: 83
Chanel 7 Note On - Duracao: 874980 Nota: C1 Vol.: 81
Chanel 10 Note Off - Duracao: 875100 Nota: C1 Vol.: 73
Chanel 10 Note On - Duracao: 875100 Nota: C1 Vol.: 82
Chanel 6 Note Off - Duracao: 875220 Nota: C1 Vol.: 46
Chanel 6 Note On - Duracao: 875220 Nota: C1 Vol.: 47
Chanel 10 Note Off - Duracao: 875580 Nota: C1 Vol.: 82
Chanel 10 Note On - Duracao: 875580 Nota: C1 Vol.: 84
Chanel 6 Note Off - Duracao: 875700 Nota: C1 Vol.: 47
Chanel 6 Note On - Duracao: 875700 Nota: C1 Vol.: 48
Chanel 4 Note Off - Duracao: 875820 Nota: C1 Vol.: 64
Chanel 4 Note On - Duracao: 875820 Nota: C1 Vol.: 67
Chanel 10 Note Off - Duracao: 875820 Nota: C1 Vol.: 84
Chanel 10 Note On - Duracao: 875820 Nota: C1 Vol.: 80
Chanel 3 Note Off - Duracao: 875940 Nota: C1 Vol.: 48
Chanel 3 Note On - Duracao: 875940 Nota: C1 Vol.: 95
Chanel 7 Note Off - Duracao: 875940 Nota: C1 Vol.: 81
Chanel 7 Note On - Duracao: 875940 Nota: C1 Vol.: 87
Chanel 3 Note Off - Duracao: 876000 Nota: C1 Vol.: 95
Chanel 3 Note On - Duracao: 876000 Nota: C1 Vol.: 97
Chanel 3 Note Off - Duracao: 876060 Nota: C1 Vol.: 97
Chanel 3 Note On - Duracao: 876060 Nota: C1 Vol.: 99
Chanel 10 Note Off - Duracao: 876060 Nota: C1 Vol.: 80
Chanel 10 Note On - Duracao: 876060 Nota: C1 Vol.: 75
Chanel 3 Note Off - Duracao: 876120 Nota: C1 Vol.: 99
Chanel 3 Note On - Duracao: 876120 Nota: C1 Vol.: 97
Chanel 3 Note Off - Duracao: 876180 Nota: C1 Vol.: 97
Chanel 3 Note On - Duracao: 876180 Nota: C1 Vol.: 99
Chanel 6 Note Off - Duracao: 876180 Nota: C1 Vol.: 48
Chanel 6 Note On - Duracao: 876180 Nota: C1 Vol.: 49
Chanel 3 Note Off - Duracao: 876240 Nota: C1 Vol.: 99
Chanel 3 Note On - Duracao: 876240 Nota: C1 Vol.: 98
Chanel 3 Note Off - Duracao: 876300 Nota: C1 Vol.: 98
Chanel 3 Note On - Duracao: 876300 Nota: C1 Vol.: 94
Chanel 8 Note Off - Duracao: 876300 Nota: C1 Vol.: 54
Chanel 8 Note On - Duracao: 876300 Nota: C1 Vol.: 63
Chanel 3 Note Off - Duracao: 876420 Nota: C1 Vol.: 94
Chanel 3 Note On - Duracao: 876420 Nota: C1 Vol.: 84
Chanel 10 Note Off - Duracao: 876540 Nota: C1 Vol.: 75
Chanel 10 Note On - Duracao: 876540 Nota: C1 Vol.: 73
Chanel 3 Note Off - Duracao: 876660 Nota: C1 Vol.: 84
Chanel 3 Note On - Duracao: 876660 Nota: C1 Vol.: 82
Chanel 6 Note Off - Duracao: 876660 Nota: C1 Vol.: 49
Chanel 6 Note On - Duracao: 876660 Nota: C1 Vol.: 48
Chanel 4 Note Off - Duracao: 876780 Nota: C1 Vol.: 67
Chanel 4 Note On - Duracao: 876780 Nota: C1 Vol.: 74
Chanel 3 Note Off - Duracao: 876900 Nota: C1 Vol.: 82
Chanel 3 Note On - Duracao: 876900 Nota: C1 Vol.: 87
Chanel 7 Note Off - Duracao: 876900 Nota: C1 Vol.: 87
Chanel 7 Note On - Duracao: 876900 Nota: C1 Vol.: 87
Chanel 3 Note Off - Duracao: 877020 Nota: C1 Vol.: 87
Chanel 3 Note On - Duracao: 877020 Nota: C1 Vol.: 79
Chanel 10 Note Off - Duracao: 877020 Nota: C1 Vol.: 73
Chanel 10 Note On - Duracao: 877020 Nota: C1 Vol.: 73
Chanel 6 Note Off - Duracao: 877140 Nota: C1 Vol.: 48
Chanel 6 Note On - Duracao: 877140 Nota: C1 Vol.: 49
Chanel 3 Note Off - Duracao: 877260 Nota: C1 Vol.: 79
Chanel 3 Note On - Duracao: 877260 Nota: C1 Vol.: 75
Chanel 8 Note Off - Duracao: 877260 Nota: C1 Vol.: 63
Chanel 8 Note On - Duracao: 877260 Nota: C1 Vol.: 63
Chanel 10 Note Off - Duracao: 877260 Nota: C1 Vol.: 73
Chanel 10 Note On - Duracao: 877260 Nota: C1 Vol.: 73
Chanel 3 Note Off - Duracao: 877500 Nota: C1 Vol.: 75
Chanel 3 Note On - Duracao: 877500 Nota: C1 Vol.: 76
Chanel 10 Note Off - Duracao: 877500 Nota: C1 Vol.: 73
Chanel 10 Note On - Duracao: 877500 Nota: C1 Vol.: 71
Chanel 6 Note Off - Duracao: 877620 Nota: C1 Vol.: 49
Chanel 6 Note On - Duracao: 877620 Nota: C1 Vol.: 47
Chanel 4 Note Off - Duracao: 877740 Nota: C1 Vol.: 74
Chanel 4 Note On - Duracao: 877740 Nota: C1 Vol.: 75
Chanel 8 Note Off - Duracao: 877740 Nota: C1 Vol.: 63
Chanel 8 Note On - Duracao: 877740 Nota: C1 Vol.: 61
Chanel 7 Note Off - Duracao: 877860 Nota: C1 Vol.: 87
Chanel 7 Note On - Duracao: 877860 Nota: C1 Vol.: 80
Chanel 3 Note Off - Duracao: 877980 Nota: C1 Vol.: 76
Chanel 3 Note On - Duracao: 877980 Nota: C1 Vol.: 83
Chanel 10 Note Off - Duracao: 877980 Nota: C1 Vol.: 71
Chanel 10 Note On - Duracao: 877980 Nota: C1 Vol.: 71
Chanel 6 Note Off - Duracao: 878100 Nota: C1 Vol.: 47
Chanel 6 Note On - Duracao: 878100 Nota: C1 Vol.: 41
Chanel 3 Note Off - Duracao: 878220 Nota: C1 Vol.: 83
Chanel 3 Note On - Duracao: 878220 Nota: C1 Vol.: 91
Chanel 9 Note Off - Duracao: 878280 Nota: C1 Vol.: 68
Chanel 9 Note On - Duracao: 878280 Nota: C1 Vol.: 78
Chanel 3 Note Off - Duracao: 878340 Nota: C1 Vol.: 91
Chanel 3 Note On - Duracao: 878340 Nota: C1 Vol.: 89
Chanel 10 Note Off - Duracao: 878460 Nota: C1 Vol.: 71
Chanel 10 Note On - Duracao: 878460 Nota: C1 Vol.: 65
Chanel 3 Note Off - Duracao: 878580 Nota: C1 Vol.: 89
Chanel 3 Note On - Duracao: 878580 Nota: C1 Vol.: 78
Chanel 2 Note Off - Duracao: 878640 Nota: C1 Vol.: 45
Chanel 2 Note On - Duracao: 878640 Nota: C1 Vol.: 43
Chanel 4 Note Off - Duracao: 878700 Nota: C1 Vol.: 75
Chanel 4 Note On - Duracao: 878700 Nota: C1 Vol.: 77
Chanel 8 Note Off - Duracao: 878700 Nota: C1 Vol.: 61
Chanel 8 Note On - Duracao: 878700 Nota: C1 Vol.: 58
Chanel 7 Note Off - Duracao: 878820 Nota: C1 Vol.: 80
Chanel 7 Note On - Duracao: 878820 Nota: C1 Vol.: 75
Chanel 3 Note Off - Duracao: 879060 Nota: C1 Vol.: 78
Chanel 3 Note On - Duracao: 879060 Nota: C1 Vol.: 73
Chanel 6 Note Off - Duracao: 879060 Nota: C1 Vol.: 41
Chanel 6 Note On - Duracao: 879060 Nota: C1 Vol.: 41
Chanel 10 Note Off - Duracao: 879420 Nota: C1 Vol.: 65
Chanel 10 Note On - Duracao: 879420 Nota: C1 Vol.: 71
Chanel 3 Note Off - Duracao: 879540 Nota: C1 Vol.: 73
Chanel 3 Note On - Duracao: 879540 Nota: C1 Vol.: 71
Chanel 4 Note Off - Duracao: 879660 Nota: C1 Vol.: 77
Chanel 4 Note On - Duracao: 879660 Nota: C1 Vol.: 79
Chanel 8 Note Off - Duracao: 879660 Nota: C1 Vol.: 58
Chanel 8 Note On - Duracao: 879660 Nota: C1 Vol.: 54
Chanel 7 Note Off - Duracao: 879780 Nota: C1 Vol.: 75
Chanel 7 Note On - Duracao: 879780 Nota: C1 Vol.: 69
Chanel 10 Note Off - Duracao: 879900 Nota: C1 Vol.: 71
Chanel 10 Note On - Duracao: 879900 Nota: C1 Vol.: 68
Chanel 4 Note Off - Duracao: 880140 Nota: C1 Vol.: 79
Chanel 4 Note On - Duracao: 880140 Nota: C1 Vol.: 60
Chanel 9 Note Off - Duracao: 880200 Nota: C1 Vol.: 78
Chanel 9 Note On - Duracao: 880200 Nota: C1 Vol.: 89
Chanel 3 Note Off - Duracao: 880500 Nota: C1 Vol.: 71
Chanel 3 Note On - Duracao: 880500 Nota: C1 Vol.: 74
Chanel 7 Note Off - Duracao: 880740 Nota: C1 Vol.: 69
Chanel 7 Note On - Duracao: 880740 Nota: C1 Vol.: 79
Chanel 10 Note Off - Duracao: 880860 Nota: C1 Vol.: 68
Chanel 10 Note On - Duracao: 880860 Nota: C1 Vol.: 75
Chanel 6 Note Off - Duracao: 880980 Nota: C1 Vol.: 41
Chanel 6 Note On - Duracao: 880980 Nota: C1 Vol.: 44
Chanel 9 Note Off - Duracao: 881160 Nota: C1 Vol.: 89
Chanel 9 Note On - Duracao: 881160 Nota: C1 Vol.: 92
Chanel 3 Note Off - Duracao: 881460 Nota: C1 Vol.: 74
Chanel 3 Note On - Duracao: 881460 Nota: C1 Vol.: 86
Chanel 8 Note Off - Duracao: 881580 Nota: C1 Vol.: 54
Chanel 8 Note On - Duracao: 881580 Nota: C1 Vol.: 53
Chanel 3 Note Off - Duracao: 881700 Nota: C1 Vol.: 86
Chanel 3 Note On - Duracao: 881700 Nota: C1 Vol.: 95
Chanel 7 Note Off - Duracao: 881700 Nota: C1 Vol.: 79
Chanel 7 Note On - Duracao: 881700 Nota: C1 Vol.: 76
Chanel 3 Note Off - Duracao: 881820 Nota: C1 Vol.: 95
Chanel 3 Note On - Duracao: 881820 Nota: C1 Vol.: 98
Chanel 10 Note Off - Duracao: 881820 Nota: C1 Vol.: 75
Chanel 10 Note On - Duracao: 881820 Nota: C1 Vol.: 75
Chanel 3 Note Off - Duracao: 881880 Nota: C1 Vol.: 98
Chanel 3 Note On - Duracao: 881880 Nota: C1 Vol.: 95
Chanel 3 Note Off - Duracao: 882000 Nota: C1 Vol.: 95
Chanel 3 Note On - Duracao: 882000 Nota: C1 Vol.: 89
Chanel 4 Note Off - Duracao: 882060 Nota: C1 Vol.: 60
Chanel 4 Note On - Duracao: 882060 Nota: C1 Vol.: 60
Chanel 3 Note Off - Duracao: 882240 Nota: C1 Vol.: 89
Chanel 3 Note On - Duracao: 882240 Nota: C1 Vol.: 64
Chanel 2 Note Off - Duracao: 882480 Nota: C1 Vol.: 43
Chanel 2 Note On - Duracao: 882480 Nota: C1 Vol.: 45
Chanel 10 Note Off - Duracao: 882780 Nota: C1 Vol.: 75
Chanel 10 Note On - Duracao: 882780 Nota: C1 Vol.: 79
Chanel 6 Note Off - Duracao: 882900 Nota: C1 Vol.: 44
Chanel 6 Note On - Duracao: 882900 Nota: C1 Vol.: 45
Chanel 9 Note Off - Duracao: 883080 Nota: C1 Vol.: 92
Chanel 9 Note On - Duracao: 883080 Nota: C1 Vol.: 93
Chanel 3 Note Off - Duracao: 883200 Nota: C1 Vol.: 64
Chanel 3 Note On - Duracao: 883200 Nota: C1 Vol.: 59
Chanel 8 Note Off - Duracao: 883500 Nota: C1 Vol.: 53
Chanel 8 Note On - Duracao: 883500 Nota: C1 Vol.: 50
Chanel 7 Note Off - Duracao: 883620 Nota: C1 Vol.: 76
Chanel 7 Note On - Duracao: 883620 Nota: C1 Vol.: 81
Chanel 10 Note Off - Duracao: 883740 Nota: C1 Vol.: 79
Chanel 10 Note On - Duracao: 883740 Nota: C1 Vol.: 81
Chanel 6 Note Off - Duracao: 883860 Nota: C1 Vol.: 45
Chanel 6 Note On - Duracao: 883860 Nota: C1 Vol.: 43
Chanel 4 Note Off - Duracao: 883980 Nota: C1 Vol.: 60
Chanel 4 Note On - Duracao: 883980 Nota: C1 Vol.: 76
Chanel 10 Note Off - Duracao: 884220 Nota: C1 Vol.: 81
Chanel 10 Note On - Duracao: 884220 Nota: C1 Vol.: 67
Chanel 4 Note Off - Duracao: 884460 Nota: C1 Vol.: 76
Chanel 4 Note On - Duracao: 884460 Nota: C1 Vol.: 85
Chanel 7 Note Off - Duracao: 884580 Nota: C1 Vol.: 81
Chanel 7 Note On - Duracao: 884580 Nota: C1 Vol.: 81
Chanel 6 Note Off - Duracao: 884820 Nota: C1 Vol.: 43
Chanel 6 Note On - Duracao: 884820 Nota: C1 Vol.: 40
Chanel 4 Note Off - Duracao: 884940 Nota: C1 Vol.: 85
Chanel 4 Note On - Duracao: 884940 Nota: C1 Vol.: 79
Chanel 9 Note Off - Duracao: 885000 Nota: C1 Vol.: 93
Chanel 9 Note On - Duracao: 885000 Nota: C1 Vol.: 93
Chanel 3 Note Off - Duracao: 885120 Nota: C1 Vol.: 59
Chanel 3 Note On - Duracao: 885120 Nota: C1 Vol.: 58
Chanel 10 Note Off - Duracao: 885180 Nota: C1 Vol.: 67
Chanel 10 Note On - Duracao: 885180 Nota: C1 Vol.: 69
Chanel 4 Note Off - Duracao: 885420 Nota: C1 Vol.: 79
Chanel 4 Note On - Duracao: 885420 Nota: C1 Vol.: 86
Chanel 8 Note Off - Duracao: 885420 Nota: C1 Vol.: 50
Chanel 8 Note On - Duracao: 885420 Nota: C1 Vol.: 50
Chanel 7 Note Off - Duracao: 885540 Nota: C1 Vol.: 81
Chanel 7 Note On - Duracao: 885540 Nota: C1 Vol.: 75
Chanel 10 Note Off - Duracao: 885660 Nota: C1 Vol.: 69
Chanel 10 Note On - Duracao: 885660 Nota: C1 Vol.: 72
Chanel 6 Note Off - Duracao: 885780 Nota: C1 Vol.: 40
Chanel 6 Note On - Duracao: 885780 Nota: C1 Vol.: 47
Chanel 4 Note Off - Duracao: 885900 Nota: C1 Vol.: 86
Chanel 4 Note On - Duracao: 885900 Nota: C1 Vol.: 71
Chanel 10 Note Off - Duracao: 886140 Nota: C1 Vol.: 72
Chanel 10 Note On - Duracao: 886140 Nota: C1 Vol.: 74
Chanel 6 Note Off - Duracao: 886260 Nota: C1 Vol.: 47
Chanel 6 Note On - Duracao: 886260 Nota: C1 Vol.: 48
Chanel 2 Note Off - Duracao: 886320 Nota: C1 Vol.: 45
Chanel 2 Note On - Duracao: 886320 Nota: C1 Vol.: 46
Chanel 7 Note Off - Duracao: 886500 Nota: C1 Vol.: 75
Chanel 7 Note On - Duracao: 886500 Nota: C1 Vol.: 81
Chanel 10 Note Off - Duracao: 886620 Nota: C1 Vol.: 74
Chanel 10 Note On - Duracao: 886620 Nota: C1 Vol.: 78
Chanel 6 Note Off - Duracao: 886740 Nota: C1 Vol.: 48
Chanel 6 Note On - Duracao: 886740 Nota: C1 Vol.: 48
Chanel 4 Note Off - Duracao: 886860 Nota: C1 Vol.: 71
Chanel 4 Note On - Duracao: 886860 Nota: C1 Vol.: 57
Chanel 10 Note Off - Duracao: 886860 Nota: C1 Vol.: 78
Chanel 10 Note On - Duracao: 886860 Nota: C1 Vol.: 95
Chanel 9 Note Off - Duracao: 886920 Nota: C1 Vol.: 93
Chanel 9 Note On - Duracao: 886920 Nota: C1 Vol.: 94
Chanel 10 Note Off - Duracao: 886920 Nota: C1 Vol.: 95
Chanel 10 Note On - Duracao: 886920 Nota: C1 Vol.: 96
Chanel 10 Note Off - Duracao: 886980 Nota: C1 Vol.: 96
Chanel 10 Note On - Duracao: 886980 Nota: C1 Vol.: 95
Chanel 3 Note Off - Duracao: 887040 Nota: C1 Vol.: 58
Chanel 3 Note On - Duracao: 887040 Nota: C1 Vol.: 54
Chanel 10 Note Off - Duracao: 887100 Nota: C1 Vol.: 95
Chanel 10 Note On - Duracao: 887100 Nota: C1 Vol.: 74
Chanel 6 Note Off - Duracao: 887220 Nota: C1 Vol.: 48
Chanel 6 Note On - Duracao: 887220 Nota: C1 Vol.: 50
Chanel 7 Note Off - Duracao: 887460 Nota: C1 Vol.: 81
Chanel 7 Note On - Duracao: 887460 Nota: C1 Vol.: 71
Chanel 10 Note Off - Duracao: 887580 Nota: C1 Vol.: 74
Chanel 10 Note On - Duracao: 887580 Nota: C1 Vol.: 62
Chanel 6 Note Off - Duracao: 887700 Nota: C1 Vol.: 50
Chanel 6 Note On - Duracao: 887700 Nota: C1 Vol.: 49
Chanel 6 Note Off - Duracao: 888660 Nota: C1 Vol.: 49
Chanel 6 Note On - Duracao: 888660 Nota: C1 Vol.: 42
Chanel 9 Note Off - Duracao: 888840 Nota: C1 Vol.: 94
Chanel 9 Note On - Duracao: 888840 Nota: C1 Vol.: 83
Chanel 3 Note Off - Duracao: 888960 Nota: C1 Vol.: 54
Chanel 3 Note On - Duracao: 888960 Nota: C1 Vol.: 57
Chanel 8 Note Off - Duracao: 889260 Nota: C1 Vol.: 50
Chanel 8 Note On - Duracao: 889260 Nota: C1 Vol.: 50
Chanel 7 Note Off - Duracao: 889380 Nota: C1 Vol.: 71
Chanel 7 Note On - Duracao: 889380 Nota: C1 Vol.: 61
Chanel 10 Note Off - Duracao: 889500 Nota: C1 Vol.: 62
Chanel 10 Note On - Duracao: 889500 Nota: C1 Vol.: 73
Chanel 2 Note Off - Duracao: 890160 Nota: C1 Vol.: 46
Chanel 2 Note On - Duracao: 890160 Nota: C1 Vol.: 45
Chanel 10 Note Off - Duracao: 890460 Nota: C1 Vol.: 73
Chanel 10 Note On - Duracao: 890460 Nota: C1 Vol.: 71
Chanel 6 Note Off - Duracao: 890580 Nota: C1 Vol.: 42
Chanel 6 Note On - Duracao: 890580 Nota: C1 Vol.: 54
Chanel 4 Note Off - Duracao: 890700 Nota: C1 Vol.: 57
Chanel 4 Note On - Duracao: 890700 Nota: C1 Vol.: 77
Chanel 3 Note Off - Duracao: 890880 Nota: C1 Vol.: 57
Chanel 3 Note On - Duracao: 890880 Nota: C1 Vol.: 78
Chanel 3 Note Off - Duracao: 891360 Nota: C1 Vol.: 78
Chanel 3 Note On - Duracao: 891360 Nota: C1 Vol.: 76
Chanel 10 Note Off - Duracao: 891420 Nota: C1 Vol.: 71
Chanel 10 Note On - Duracao: 891420 Nota: C1 Vol.: 71
Chanel 6 Note Off - Duracao: 891540 Nota: C1 Vol.: 54
Chanel 6 Note On - Duracao: 891540 Nota: C1 Vol.: 85
Chanel 4 Note Off - Duracao: 891660 Nota: C1 Vol.: 77
Chanel 4 Note On - Duracao: 891660 Nota: C1 Vol.: 77
Chanel 6 Note Off - Duracao: 891660 Nota: C1 Vol.: 85
Chanel 6 Note On - Duracao: 891660 Nota: C1 Vol.: 89
Chanel 6 Note Off - Duracao: 891780 Nota: C1 Vol.: 89
Chanel 6 Note On - Duracao: 891780 Nota: C1 Vol.: 89
Chanel 6 Note Off - Duracao: 891900 Nota: C1 Vol.: 89
Chanel 6 Note On - Duracao: 891900 Nota: C1 Vol.: 90
Chanel 6 Note Off - Duracao: 892020 Nota: C1 Vol.: 90
Chanel 6 Note On - Duracao: 892020 Nota: C1 Vol.: 88
Chanel 6 Note Off - Duracao: 892140 Nota: C1 Vol.: 88
Chanel 6 Note On - Duracao: 892140 Nota: C1 Vol.: 88
Chanel 6 Note Off - Duracao: 892260 Nota: C1 Vol.: 88
Chanel 6 Note On - Duracao: 892260 Nota: C1 Vol.: 90
Chanel 3 Note Off - Duracao: 892320 Nota: C1 Vol.: 76
Chanel 3 Note On - Duracao: 892320 Nota: C1 Vol.: 76
Chanel 6 Note Off - Duracao: 892380 Nota: C1 Vol.: 90
Chanel 6 Note On - Duracao: 892380 Nota: C1 Vol.: 88
Chanel 10 Note Off - Duracao: 892380 Nota: C1 Vol.: 71
Chanel 10 Note On - Duracao: 892380 Nota: C1 Vol.: 55
Chanel 6 Note Off - Duracao: 892500 Nota: C1 Vol.: 88
Chanel 6 Note On - Duracao: 892500 Nota: C1 Vol.: 89
Chanel 4 Note Off - Duracao: 892620 Nota: C1 Vol.: 77
Chanel 4 Note On - Duracao: 892620 Nota: C1 Vol.: 62
Chanel 6 Note Off - Duracao: 892620 Nota: C1 Vol.: 89
Chanel 6 Note On - Duracao: 892620 Nota: C1 Vol.: 88
Chanel 9 Note Off - Duracao: 892680 Nota: C1 Vol.: 83
Chanel 9 Note On - Duracao: 892680 Nota: C1 Vol.: 89
Chanel 6 Note Off - Duracao: 892740 Nota: C1 Vol.: 88
Chanel 6 Note On - Duracao: 892740 Nota: C1 Vol.: 83
Chanel 3 Note Off - Duracao: 892800 Nota: C1 Vol.: 76
Chanel 3 Note On - Duracao: 892800 Nota: C1 Vol.: 77
Chanel 6 Note Off - Duracao: 892980 Nota: C1 Vol.: 83
Chanel 6 Note On - Duracao: 892980 Nota: C1 Vol.: 58
Chanel 8 Note Off - Duracao: 893100 Nota: C1 Vol.: 50
Chanel 8 Note On - Duracao: 893100 Nota: C1 Vol.: 54
Chanel 7 Note Off - Duracao: 893220 Nota: C1 Vol.: 61
Chanel 7 Note On - Duracao: 893220 Nota: C1 Vol.: 63
Chanel 3 Note Off - Duracao: 893280 Nota: C1 Vol.: 77
Chanel 3 Note On - Duracao: 893280 Nota: C1 Vol.: 84
Chanel 3 Note Off - Duracao: 893760 Nota: C1 Vol.: 84
Chanel 3 Note On - Duracao: 893760 Nota: C1 Vol.: 79
Chanel 6 Note Off - Duracao: 893940 Nota: C1 Vol.: 58
Chanel 6 Note On - Duracao: 893940 Nota: C1 Vol.: 99
Chanel 2 Note Off - Duracao: 894000 Nota: C1 Vol.: 45
Chanel 2 Note On - Duracao: 894000 Nota: C1 Vol.: 46
Chanel 6 Note Off - Duracao: 894000 Nota: C1 Vol.: 99
Chanel 6 Note On - Duracao: 894000 Nota: C1 Vol.: 97
Chanel 6 Note Off - Duracao: 894060 Nota: C1 Vol.: 97
Chanel 6 Note On - Duracao: 894060 Nota: C1 Vol.: 86
Chanel 6 Note Off - Duracao: 894180 Nota: C1 Vol.: 86
Chanel 6 Note On - Duracao: 894180 Nota: C1 Vol.: 89
Chanel 3 Note Off - Duracao: 894240 Nota: C1 Vol.: 79
Chanel 3 Note On - Duracao: 894240 Nota: C1 Vol.: 79
Chanel 6 Note Off - Duracao: 894300 Nota: C1 Vol.: 89
Chanel 6 Note On - Duracao: 894300 Nota: C1 Vol.: 94
Chanel 10 Note Off - Duracao: 894300 Nota: C1 Vol.: 55
Chanel 10 Note On - Duracao: 894300 Nota: C1 Vol.: 63
Chanel 6 Note Off - Duracao: 894420 Nota: C1 Vol.: 94
Chanel 6 Note On - Duracao: 894420 Nota: C1 Vol.: 66
Chanel 9 Note Off - Duracao: 894600 Nota: C1 Vol.: 89
Chanel 9 Note On - Duracao: 894600 Nota: C1 Vol.: 78
Chanel 3 Note Off - Duracao: 894720 Nota: C1 Vol.: 79
Chanel 3 Note On - Duracao: 894720 Nota: C1 Vol.: 79
Chanel 6 Note Off - Duracao: 895380 Nota: C1 Vol.: 66
Chanel 6 Note On - Duracao: 895380 Nota: C1 Vol.: 71
Chanel 3 Note Off - Duracao: 895680 Nota: C1 Vol.: 79
Chanel 3 Note On - Duracao: 895680 Nota: C1 Vol.: 82
Chanel 6 Note Off - Duracao: 895860 Nota: C1 Vol.: 71
Chanel 6 Note On - Duracao: 895860 Nota: C1 Vol.: 70
Chanel 3 Note Off - Duracao: 896160 Nota: C1 Vol.: 82
Chanel 3 Note On - Duracao: 896160 Nota: C1 Vol.: 73
Chanel 10 Note Off - Duracao: 896220 Nota: C1 Vol.: 63
Chanel 10 Note On - Duracao: 896220 Nota: C1 Vol.: 66
Chanel 6 Note Off - Duracao: 896340 Nota: C1 Vol.: 70
Chanel 6 Note On - Duracao: 896340 Nota: C1 Vol.: 72
Chanel 4 Note Off - Duracao: 896460 Nota: C1 Vol.: 62
Chanel 4 Note On - Duracao: 896460 Nota: C1 Vol.: 76
Chanel 9 Note Off - Duracao: 896520 Nota: C1 Vol.: 78
Chanel 9 Note On - Duracao: 896520 Nota: C1 Vol.: 84
Chanel 6 Note Off - Duracao: 896820 Nota: C1 Vol.: 72
Chanel 6 Note On - Duracao: 896820 Nota: C1 Vol.: 96
Chanel 6 Note Off - Duracao: 896940 Nota: C1 Vol.: 96
Chanel 6 Note On - Duracao: 896940 Nota: C1 Vol.: 80
Chanel 8 Note Off - Duracao: 896940 Nota: C1 Vol.: 54
Chanel 8 Note On - Duracao: 896940 Nota: C1 Vol.: 60
Chanel 7 Note Off - Duracao: 897060 Nota: C1 Vol.: 63
Chanel 7 Note On - Duracao: 897060 Nota: C1 Vol.: 66
Chanel 3 Note Off - Duracao: 897120 Nota: C1 Vol.: 73
Chanel 3 Note On - Duracao: 897120 Nota: C1 Vol.: 79
Chanel 10 Note Off - Duracao: 897180 Nota: C1 Vol.: 66
Chanel 10 Note On - Duracao: 897180 Nota: C1 Vol.: 70
Chanel 4 Note Off - Duracao: 897420 Nota: C1 Vol.: 76
Chanel 4 Note On - Duracao: 897420 Nota: C1 Vol.: 75
Chanel 6 Note Off - Duracao: 897420 Nota: C1 Vol.: 80
Chanel 6 Note On - Duracao: 897420 Nota: C1 Vol.: 75
Chanel 9 Note Off - Duracao: 897480 Nota: C1 Vol.: 84
Chanel 9 Note On - Duracao: 897480 Nota: C1 Vol.: 81
Chanel 2 Note Off - Duracao: 897840 Nota: C1 Vol.: 46
Chanel 2 Note On - Duracao: 897840 Nota: C1 Vol.: 54
Chanel 6 Note Off - Duracao: 897900 Nota: C1 Vol.: 75
Chanel 6 Note On - Duracao: 897900 Nota: C1 Vol.: 94
Chanel 6 Note Off - Duracao: 898020 Nota: C1 Vol.: 94
Chanel 6 Note On - Duracao: 898020 Nota: C1 Vol.: 86
Chanel 3 Note Off - Duracao: 898080 Nota: C1 Vol.: 79
Chanel 3 Note On - Duracao: 898080 Nota: C1 Vol.: 67
Chanel 10 Note Off - Duracao: 898140 Nota: C1 Vol.: 70
Chanel 10 Note On - Duracao: 898140 Nota: C1 Vol.: 71
Chanel 6 Note Off - Duracao: 898260 Nota: C1 Vol.: 86
Chanel 6 Note On - Duracao: 898260 Nota: C1 Vol.: 92
Chanel 4 Note Off - Duracao: 898380 Nota: C1 Vol.: 75
Chanel 4 Note On - Duracao: 898380 Nota: C1 Vol.: 76
Chanel 6 Note Off - Duracao: 898500 Nota: C1 Vol.: 92
Chanel 6 Note On - Duracao: 898500 Nota: C1 Vol.: 78
Chanel 8 Note Off - Duracao: 898860 Nota: C1 Vol.: 60
Chanel 8 Note On - Duracao: 898860 Nota: C1 Vol.: 62
Chanel 6 Note Off - Duracao: 898980 Nota: C1 Vol.: 78
Chanel 6 Note On - Duracao: 898980 Nota: C1 Vol.: 77
Chanel 7 Note Off - Duracao: 898980 Nota: C1 Vol.: 66
Chanel 7 Note On - Duracao: 898980 Nota: C1 Vol.: 63
Chanel 10 Note Off - Duracao: 899100 Nota: C1 Vol.: 71
Chanel 10 Note On - Duracao: 899100 Nota: C1 Vol.: 73
Chanel 4 Note Off - Duracao: 899340 Nota: C1 Vol.: 76
Chanel 4 Note On - Duracao: 899340 Nota: C1 Vol.: 56
Chanel 9 Note Off - Duracao: 899400 Nota: C1 Vol.: 81
Chanel 9 Note On - Duracao: 899400 Nota: C1 Vol.: 79
Chanel 6 Note Off - Duracao: 899940 Nota: C1 Vol.: 77
Chanel 6 Note On - Duracao: 899940 Nota: C1 Vol.: 78
Chanel 3 Note Off - Duracao: 900000 Nota: C1 Vol.: 67
Chanel 3 Note On - Duracao: 900000 Nota: C1 Vol.: 66
Chanel 10 Note Off - Duracao: 900060 Nota: C1 Vol.: 73
Chanel 10 Note On - Duracao: 900060 Nota: C1 Vol.: 73
Chanel 8 Note Off - Duracao: 900780 Nota: C1 Vol.: 62
Chanel 8 Note On - Duracao: 900780 Nota: C1 Vol.: 60
Chanel 6 Note Off - Duracao: 900900 Nota: C1 Vol.: 78
Chanel 6 Note On - Duracao: 900900 Nota: C1 Vol.: 86
Chanel 10 Note Off - Duracao: 901020 Nota: C1 Vol.: 73
Chanel 10 Note On - Duracao: 901020 Nota: C1 Vol.: 72
Chanel 9 Note Off - Duracao: 901320 Nota: C1 Vol.: 79
Chanel 9 Note On - Duracao: 901320 Nota: C1 Vol.: 74
Chanel 6 Note Off - Duracao: 901380 Nota: C1 Vol.: 86
Chanel 6 Note On - Duracao: 901380 Nota: C1 Vol.: 71
Chanel 2 Note Off - Duracao: 901680 Nota: C1 Vol.: 54
Chanel 2 Note On - Duracao: 901680 Nota: C1 Vol.: 89
Chanel 3 Note Off - Duracao: 901920 Nota: C1 Vol.: 66
Chanel 3 Note On - Duracao: 901920 Nota: C1 Vol.: 63
Chanel 10 Note Off - Duracao: 901980 Nota: C1 Vol.: 72
Chanel 10 Note On - Duracao: 901980 Nota: C1 Vol.: 70
Chanel 8 Note Off - Duracao: 902700 Nota: C1 Vol.: 60
Chanel 8 Note On - Duracao: 902700 Nota: C1 Vol.: 62
Chanel 7 Note Off - Duracao: 902820 Nota: C1 Vol.: 63
Chanel 7 Note On - Duracao: 902820 Nota: C1 Vol.: 81
Chanel 10 Note Off - Duracao: 902940 Nota: C1 Vol.: 70
Chanel 10 Note On - Duracao: 902940 Nota: C1 Vol.: 70
Chanel 4 Note Off - Duracao: 903180 Nota: C1 Vol.: 56
Chanel 4 Note On - Duracao: 903180 Nota: C1 Vol.: 83
Chanel 9 Note Off - Duracao: 903240 Nota: C1 Vol.: 74
Chanel 9 Note On - Duracao: 903240 Nota: C1 Vol.: 84
Chanel 6 Note Off - Duracao: 903300 Nota: C1 Vol.: 71
Chanel 6 Note On - Duracao: 903300 Nota: C1 Vol.: 83
Chanel 2 Note Off - Duracao: 903600 Nota: C1 Vol.: 89
Chanel 2 Note On - Duracao: 903600 Nota: C1 Vol.: 93
Chanel 7 Note Off - Duracao: 903780 Nota: C1 Vol.: 81
Chanel 7 Note On - Duracao: 903780 Nota: C1 Vol.: 75
Chanel 3 Note Off - Duracao: 903840 Nota: C1 Vol.: 63
Chanel 3 Note On - Duracao: 903840 Nota: C1 Vol.: 77
Chanel 10 Note Off - Duracao: 903900 Nota: C1 Vol.: 70
Chanel 10 Note On - Duracao: 903900 Nota: C1 Vol.: 68
Chanel 6 Note Off - Duracao: 904260 Nota: C1 Vol.: 83
Chanel 6 Note On - Duracao: 904260 Nota: C1 Vol.: 88
Chanel 3 Note Off - Duracao: 904320 Nota: C1 Vol.: 77
Chanel 3 Note On - Duracao: 904320 Nota: C1 Vol.: 75
Chanel 8 Note Off - Duracao: 904620 Nota: C1 Vol.: 62
Chanel 8 Note On - Duracao: 904620 Nota: C1 Vol.: 61
Chanel 6 Note Off - Duracao: 904740 Nota: C1 Vol.: 88
Chanel 6 Note On - Duracao: 904740 Nota: C1 Vol.: 91
Chanel 3 Note Off - Duracao: 904800 Nota: C1 Vol.: 75
Chanel 3 Note On - Duracao: 904800 Nota: C1 Vol.: 66
Chanel 10 Note Off - Duracao: 904860 Nota: C1 Vol.: 68
Chanel 10 Note On - Duracao: 904860 Nota: C1 Vol.: 68
Chanel 4 Note Off - Duracao: 905100 Nota: C1 Vol.: 83
Chanel 4 Note On - Duracao: 905100 Nota: C1 Vol.: 79
Chanel 9 Note Off - Duracao: 905160 Nota: C1 Vol.: 84
Chanel 9 Note On - Duracao: 905160 Nota: C1 Vol.: 85
Chanel 6 Note Off - Duracao: 905220 Nota: C1 Vol.: 91
Chanel 6 Note On - Duracao: 905220 Nota: C1 Vol.: 90
Chanel 2 Note Off - Duracao: 905520 Nota: C1 Vol.: 93
Chanel 2 Note On - Duracao: 905520 Nota: C1 Vol.: 92
Chanel 6 Note Off - Duracao: 905700 Nota: C1 Vol.: 90
Chanel 6 Note On - Duracao: 905700 Nota: C1 Vol.: 75
Chanel 7 Note Off - Duracao: 905700 Nota: C1 Vol.: 75
Chanel 7 Note On - Duracao: 905700 Nota: C1 Vol.: 69
Chanel 10 Note Off - Duracao: 905820 Nota: C1 Vol.: 68
Chanel 10 Note On - Duracao: 905820 Nota: C1 Vol.: 72
Chanel 8 Note Off - Duracao: 906540 Nota: C1 Vol.: 61
Chanel 8 Note On - Duracao: 906540 Nota: C1 Vol.: 61
Chanel 6 Note Off - Duracao: 906660 Nota: C1 Vol.: 75
Chanel 6 Note On - Duracao: 906660 Nota: C1 Vol.: 64
Chanel 3 Note Off - Duracao: 906720 Nota: C1 Vol.: 66
Chanel 3 Note On - Duracao: 906720 Nota: C1 Vol.: 75
Chanel 10 Note Off - Duracao: 906780 Nota: C1 Vol.: 72
Chanel 10 Note On - Duracao: 906780 Nota: C1 Vol.: 78
Chanel 4 Note Off - Duracao: 907020 Nota: C1 Vol.: 79
Chanel 4 Note On - Duracao: 907020 Nota: C1 Vol.: 53
Chanel 9 Note Off - Duracao: 907080 Nota: C1 Vol.: 85
Chanel 9 Note On - Duracao: 907080 Nota: C1 Vol.: 78
Chanel 10 Note Off - Duracao: 907260 Nota: C1 Vol.: 78
Chanel 10 Note On - Duracao: 907260 Nota: C1 Vol.: 73
Chanel 7 Note Off - Duracao: 907620 Nota: C1 Vol.: 69
Chanel 7 Note On - Duracao: 907620 Nota: C1 Vol.: 70
Chanel 3 Note Off - Duracao: 907680 Nota: C1 Vol.: 75
Chanel 3 Note On - Duracao: 907680 Nota: C1 Vol.: 61
Chanel 10 Note Off - Duracao: 908220 Nota: C1 Vol.: 73
Chanel 10 Note On - Duracao: 908220 Nota: C1 Vol.: 75
Chanel 8 Note Off - Duracao: 908460 Nota: C1 Vol.: 61
Chanel 8 Note On - Duracao: 908460 Nota: C1 Vol.: 63
Chanel 10 Note Off - Duracao: 908700 Nota: C1 Vol.: 75
Chanel 10 Note On - Duracao: 908700 Nota: C1 Vol.: 77
Chanel 9 Note Off - Duracao: 909000 Nota: C1 Vol.: 78
Chanel 9 Note On - Duracao: 909000 Nota: C1 Vol.: 79
Chanel 10 Note Off - Duracao: 909180 Nota: C1 Vol.: 77
Chanel 10 Note On - Duracao: 909180 Nota: C1 Vol.: 79
Chanel 2 Note Off - Duracao: 909360 Nota: C1 Vol.: 92
Chanel 2 Note On - Duracao: 909360 Nota: C1 Vol.: 92
Chanel 7 Note Off - Duracao: 909540 Nota: C1 Vol.: 70
Chanel 7 Note On - Duracao: 909540 Nota: C1 Vol.: 55
Chanel 3 Note Off - Duracao: 909600 Nota: C1 Vol.: 61
Chanel 3 Note On - Duracao: 909600 Nota: C1 Vol.: 76
Chanel 10 Note Off - Duracao: 909660 Nota: C1 Vol.: 79
Chanel 10 Note On - Duracao: 909660 Nota: C1 Vol.: 76
Chanel 3 Note Off - Duracao: 910080 Nota: C1 Vol.: 76
Chanel 3 Note On - Duracao: 910080 Nota: C1 Vol.: 73
Chanel 10 Note Off - Duracao: 910140 Nota: C1 Vol.: 76
Chanel 10 Note On - Duracao: 910140 Nota: C1 Vol.: 76
Chanel 8 Note Off - Duracao: 910380 Nota: C1 Vol.: 63
Chanel 8 Note On - Duracao: 910380 Nota: C1 Vol.: 69
Chanel 6 Note Off - Duracao: 910500 Nota: C1 Vol.: 64
Chanel 6 Note On - Duracao: 910500 Nota: C1 Vol.: 84
Chanel 10 Note Off - Duracao: 910620 Nota: C1 Vol.: 76
Chanel 10 Note On - Duracao: 910620 Nota: C1 Vol.: 73
Chanel 4 Note Off - Duracao: 910860 Nota: C1 Vol.: 53
Chanel 4 Note On - Duracao: 910860 Nota: C1 Vol.: 78
Chanel 9 Note Off - Duracao: 910920 Nota: C1 Vol.: 79
Chanel 9 Note On - Duracao: 910920 Nota: C1 Vol.: 82
Chanel 3 Note Off - Duracao: 911040 Nota: C1 Vol.: 73
Chanel 3 Note On - Duracao: 911040 Nota: C1 Vol.: 44
Chanel 10 Note Off - Duracao: 911100 Nota: C1 Vol.: 73
Chanel 10 Note On - Duracao: 911100 Nota: C1 Vol.: 69
Chanel 8 Note Off - Duracao: 911340 Nota: C1 Vol.: 69
Chanel 8 Note On - Duracao: 911340 Nota: C1 Vol.: 52
Chanel 6 Note Off - Duracao: 911460 Nota: C1 Vol.: 84
Chanel 6 Note On - Duracao: 911460 Nota: C1 Vol.: 87
Chanel 4 Note Off - Duracao: 911820 Nota: C1 Vol.: 78
Chanel 4 Note On - Duracao: 911820 Nota: C1 Vol.: 78
Chanel 10 Note Off - Duracao: 912060 Nota: C1 Vol.: 69
Chanel 10 Note On - Duracao: 912060 Nota: C1 Vol.: 67
Chanel 6 Note Off - Duracao: 912420 Nota: C1 Vol.: 87
Chanel 6 Note On - Duracao: 912420 Nota: C1 Vol.: 89
Chanel 4 Note Off - Duracao: 912780 Nota: C1 Vol.: 78
Chanel 4 Note On - Duracao: 912780 Nota: C1 Vol.: 68
Chanel 9 Note Off - Duracao: 912840 Nota: C1 Vol.: 82
Chanel 9 Note On - Duracao: 912840 Nota: C1 Vol.: 79
Chanel 6 Note Off - Duracao: 912900 Nota: C1 Vol.: 89
Chanel 6 Note On - Duracao: 912900 Nota: C1 Vol.: 74
Chanel 10 Note Off - Duracao: 913020 Nota: C1 Vol.: 67
Chanel 10 Note On - Duracao: 913020 Nota: C1 Vol.: 67
Chanel 2 Note Off - Duracao: 913200 Nota: C1 Vol.: 92
Chanel 2 Note On - Duracao: 913200 Nota: C1 Vol.: 95
Chanel 7 Note Off - Duracao: 913380 Nota: C1 Vol.: 55
Chanel 7 Note On - Duracao: 913380 Nota: C1 Vol.: 58
Chanel 10 Note Off - Duracao: 913980 Nota: C1 Vol.: 67
Chanel 10 Note On - Duracao: 913980 Nota: C1 Vol.: 64
Chanel 4 Note Off - Duracao: 914700 Nota: C1 Vol.: 68
Chanel 4 Note On - Duracao: 914700 Nota: C1 Vol.: 71
Chanel 9 Note Off - Duracao: 914760 Nota: C1 Vol.: 79
Chanel 9 Note On - Duracao: 914760 Nota: C1 Vol.: 77
Chanel 6 Note Off - Duracao: 914820 Nota: C1 Vol.: 74
Chanel 6 Note On - Duracao: 914820 Nota: C1 Vol.: 64
Chanel 3 Note Off - Duracao: 914880 Nota: C1 Vol.: 44
Chanel 3 Note On - Duracao: 914880 Nota: C1 Vol.: 43
Chanel 10 Note Off - Duracao: 914940 Nota: C1 Vol.: 64
Chanel 10 Note On - Duracao: 914940 Nota: C1 Vol.: 61
Chanel 8 Note Off - Duracao: 915180 Nota: C1 Vol.: 52
Chanel 8 Note On - Duracao: 915180 Nota: C1 Vol.: 76
Chanel 7 Note Off - Duracao: 915300 Nota: C1 Vol.: 58
Chanel 7 Note On - Duracao: 915300 Nota: C1 Vol.: 58
Chanel 4 Note Off - Duracao: 915660 Nota: C1 Vol.: 71
Chanel 4 Note On - Duracao: 915660 Nota: C1 Vol.: 86
Chanel 4 Note Off - Duracao: 915900 Nota: C1 Vol.: 86
Chanel 4 Note On - Duracao: 915900 Nota: C1 Vol.: 91
Chanel 4 Note Off - Duracao: 916020 Nota: C1 Vol.: 91
Chanel 4 Note On - Duracao: 916020 Nota: C1 Vol.: 88
Chanel 4 Note Off - Duracao: 916140 Nota: C1 Vol.: 88
Chanel 4 Note On - Duracao: 916140 Nota: C1 Vol.: 99
Chanel 8 Note Off - Duracao: 916140 Nota: C1 Vol.: 76
Chanel 8 Note On - Duracao: 916140 Nota: C1 Vol.: 80
Chanel 4 Note Off - Duracao: 916200 Nota: C1 Vol.: 99
Chanel 4 Note On - Duracao: 916200 Nota: C1 Vol.: 99
Chanel 4 Note Off - Duracao: 916260 Nota: C1 Vol.: 99
Chanel 4 Note On - Duracao: 916260 Nota: C1 Vol.: 99
Chanel 4 Note Off - Duracao: 916320 Nota: C1 Vol.: 99
Chanel 4 Note On - Duracao: 916320 Nota: C1 Vol.: 99
Chanel 4 Note Off - Duracao: 916380 Nota: C1 Vol.: 99
Chanel 4 Note On - Duracao: 916380 Nota: C1 Vol.: 99
Chanel 4 Note Off - Duracao: 916440 Nota: C1 Vol.: 99
Chanel 4 Note On - Duracao: 916440 Nota: C1 Vol.: 68
Chanel 8 Note Off - Duracao: 916620 Nota: C1 Vol.: 80
Chanel 8 Note On - Duracao: 916620 Nota: C1 Vol.: 70
Chanel 9 Note Off - Duracao: 916680 Nota: C1 Vol.: 77
Chanel 9 Note On - Duracao: 916680 Nota: C1 Vol.: 89
Chanel 6 Note Off - Duracao: 916740 Nota: C1 Vol.: 64
Chanel 6 Note On - Duracao: 916740 Nota: C1 Vol.: 60
Chanel 10 Note Off - Duracao: 916860 Nota: C1 Vol.: 61
Chanel 10 Note On - Duracao: 916860 Nota: C1 Vol.: 62
Chanel 4 Note Off - Duracao: 916920 Nota: C1 Vol.: 68
Chanel 4 Note On - Duracao: 916920 Nota: C1 Vol.: 86
Chanel 2 Note Off - Duracao: 917040 Nota: C1 Vol.: 95
Chanel 2 Note On - Duracao: 917040 Nota: C1 Vol.: 94
Chanel 4 Note Off - Duracao: 917160 Nota: C1 Vol.: 86
Chanel 4 Note On - Duracao: 917160 Nota: C1 Vol.: 97
Chanel 4 Note Off - Duracao: 917220 Nota: C1 Vol.: 97
Chanel 4 Note On - Duracao: 917220 Nota: C1 Vol.: 99
Chanel 7 Note Off - Duracao: 917220 Nota: C1 Vol.: 58
Chanel 7 Note On - Duracao: 917220 Nota: C1 Vol.: 58
Chanel 4 Note Off - Duracao: 917280 Nota: C1 Vol.: 99
Chanel 4 Note On - Duracao: 917280 Nota: C1 Vol.: 92
Chanel 4 Note Off - Duracao: 917400 Nota: C1 Vol.: 92
Chanel 4 Note On - Duracao: 917400 Nota: C1 Vol.: 80
Chanel 8 Note Off - Duracao: 917580 Nota: C1 Vol.: 70
Chanel 8 Note On - Duracao: 917580 Nota: C1 Vol.: 59
Chanel 4 Note Off - Duracao: 917640 Nota: C1 Vol.: 80
Chanel 4 Note On - Duracao: 917640 Nota: C1 Vol.: 64
Chanel 9 Note Off - Duracao: 917640 Nota: C1 Vol.: 89
Chanel 9 Note On - Duracao: 917640 Nota: C1 Vol.: 90
Chanel 4 Note Off - Duracao: 918600 Nota: C1 Vol.: 64
Chanel 4 Note On - Duracao: 918600 Nota: C1 Vol.: 88
Chanel 9 Note Off - Duracao: 918600 Nota: C1 Vol.: 90
Chanel 9 Note On - Duracao: 918600 Nota: C1 Vol.: 81
Chanel 6 Note Off - Duracao: 918660 Nota: C1 Vol.: 60
Chanel 6 Note On - Duracao: 918660 Nota: C1 Vol.: 61
Chanel 3 Note Off - Duracao: 918720 Nota: C1 Vol.: 43
Chanel 3 Note On - Duracao: 918720 Nota: C1 Vol.: 42
Chanel 4 Note Off - Duracao: 918720 Nota: C1 Vol.: 88
Chanel 4 Note On - Duracao: 918720 Nota: C1 Vol.: 97
Chanel 4 Note Off - Duracao: 918780 Nota: C1 Vol.: 97
Chanel 4 Note On - Duracao: 918780 Nota: C1 Vol.: 99
Chanel 10 Note Off - Duracao: 918780 Nota: C1 Vol.: 62
Chanel 10 Note On - Duracao: 918780 Nota: C1 Vol.: 67
Chanel 4 Note Off - Duracao: 918840 Nota: C1 Vol.: 99
Chanel 4 Note On - Duracao: 918840 Nota: C1 Vol.: 99
Chanel 4 Note Off - Duracao: 918900 Nota: C1 Vol.: 99
Chanel 4 Note On - Duracao: 918900 Nota: C1 Vol.: 100
Chanel 4 Note Off - Duracao: 918960 Nota: C1 Vol.: 100
Chanel 4 Note On - Duracao: 918960 Nota: C1 Vol.: 86
Chanel 4 Note Off - Duracao: 919080 Nota: C1 Vol.: 86
Chanel 4 Note On - Duracao: 919080 Nota: C1 Vol.: 98
Chanel 4 Note Off - Duracao: 919140 Nota: C1 Vol.: 98
Chanel 4 Note On - Duracao: 919140 Nota: C1 Vol.: 96
Chanel 7 Note Off - Duracao: 919140 Nota: C1 Vol.: 58
Chanel 7 Note On - Duracao: 919140 Nota: C1 Vol.: 56
Chanel 4 Note Off - Duracao: 919200 Nota: C1 Vol.: 96
Chanel 4 Note On - Duracao: 919200 Nota: C1 Vol.: 44
Chanel 8 Note Off - Duracao: 919500 Nota: C1 Vol.: 59
Chanel 8 Note On - Duracao: 919500 Nota: C1 Vol.: 58
Chanel 10 Note Off - Duracao: 919740 Nota: C1 Vol.: 67
Chanel 10 Note On - Duracao: 919740 Nota: C1 Vol.: 65
Chanel 9 Note Off - Duracao: 920520 Nota: C1 Vol.: 81
Chanel 9 Note On - Duracao: 920520 Nota: C1 Vol.: 83
Chanel 6 Note Off - Duracao: 920580 Nota: C1 Vol.: 61
Chanel 6 Note On - Duracao: 920580 Nota: C1 Vol.: 71
Chanel 10 Note Off - Duracao: 920700 Nota: C1 Vol.: 65
Chanel 10 Note On - Duracao: 920700 Nota: C1 Vol.: 72
Chanel 2 Note Off - Duracao: 920880 Nota: C1 Vol.: 94
Chanel 2 Note On - Duracao: 920880 Nota: C1 Vol.: 92
Chanel 10 Note Off - Duracao: 921180 Nota: C1 Vol.: 72
Chanel 10 Note On - Duracao: 921180 Nota: C1 Vol.: 77
Chanel 8 Note Off - Duracao: 921420 Nota: C1 Vol.: 58
Chanel 8 Note On - Duracao: 921420 Nota: C1 Vol.: 66
Chanel 10 Note Off - Duracao: 921420 Nota: C1 Vol.: 77
Chanel 10 Note On - Duracao: 921420 Nota: C1 Vol.: 75
Chanel 10 Note Off - Duracao: 921660 Nota: C1 Vol.: 75
Chanel 10 Note On - Duracao: 921660 Nota: C1 Vol.: 73
Chanel 10 Note Off - Duracao: 922140 Nota: C1 Vol.: 73
Chanel 10 Note On - Duracao: 922140 Nota: C1 Vol.: 80
Chanel 8 Note Off - Duracao: 922380 Nota: C1 Vol.: 66
Chanel 8 Note On - Duracao: 922380 Nota: C1 Vol.: 64
Chanel 10 Note Off - Duracao: 922380 Nota: C1 Vol.: 80
Chanel 10 Note On - Duracao: 922380 Nota: C1 Vol.: 82
Chanel 9 Note Off - Duracao: 922440 Nota: C1 Vol.: 83
Chanel 9 Note On - Duracao: 922440 Nota: C1 Vol.: 81
Chanel 6 Note Off - Duracao: 922500 Nota: C1 Vol.: 71
Chanel 6 Note On - Duracao: 922500 Nota: C1 Vol.: 78
Chanel 3 Note Off - Duracao: 922560 Nota: C1 Vol.: 42
Chanel 3 Note On - Duracao: 922560 Nota: C1 Vol.: 41
Chanel 10 Note Off - Duracao: 922620 Nota: C1 Vol.: 82
Chanel 10 Note On - Duracao: 922620 Nota: C1 Vol.: 82
Chanel 2 Note Off - Duracao: 922800 Nota: C1 Vol.: 92
Chanel 2 Note On - Duracao: 922800 Nota: C1 Vol.: 89
Chanel 10 Note Off - Duracao: 922860 Nota: C1 Vol.: 82
Chanel 10 Note On - Duracao: 922860 Nota: C1 Vol.: 83
Chanel 7 Note Off - Duracao: 922980 Nota: C1 Vol.: 56
Chanel 7 Note On - Duracao: 922980 Nota: C1 Vol.: 67
Chanel 4 Note Off - Duracao: 923040 Nota: C1 Vol.: 44
Chanel 4 Note On - Duracao: 923040 Nota: C1 Vol.: 81
Chanel 10 Note Off - Duracao: 923100 Nota: C1 Vol.: 83
Chanel 10 Note On - Duracao: 923100 Nota: C1 Vol.: 82
Chanel 4 Note Off - Duracao: 923280 Nota: C1 Vol.: 81
Chanel 4 Note On - Duracao: 923280 Nota: C1 Vol.: 94
Chanel 10 Note Off - Duracao: 923340 Nota: C1 Vol.: 82
Chanel 10 Note On - Duracao: 923340 Nota: C1 Vol.: 83
Chanel 4 Note Off - Duracao: 923400 Nota: C1 Vol.: 94
Chanel 4 Note On - Duracao: 923400 Nota: C1 Vol.: 100
Chanel 4 Note Off - Duracao: 923460 Nota: C1 Vol.: 100
Chanel 4 Note On - Duracao: 923460 Nota: C1 Vol.: 99
Chanel 6 Note Off - Duracao: 923460 Nota: C1 Vol.: 78
Chanel 6 Note On - Duracao: 923460 Nota: C1 Vol.: 77
Chanel 4 Note Off - Duracao: 923520 Nota: C1 Vol.: 99
Chanel 4 Note On - Duracao: 923520 Nota: C1 Vol.: 99
Chanel 4 Note Off - Duracao: 923580 Nota: C1 Vol.: 99
Chanel 4 Note On - Duracao: 923580 Nota: C1 Vol.: 100
Chanel 10 Note Off - Duracao: 923580 Nota: C1 Vol.: 83
Chanel 10 Note On - Duracao: 923580 Nota: C1 Vol.: 83
Chanel 4 Note Off - Duracao: 923640 Nota: C1 Vol.: 100
Chanel 4 Note On - Duracao: 923640 Nota: C1 Vol.: 98
Chanel 4 Note Off - Duracao: 923700 Nota: C1 Vol.: 98
Chanel 4 Note On - Duracao: 923700 Nota: C1 Vol.: 97
Chanel 4 Note Off - Duracao: 923760 Nota: C1 Vol.: 97
Chanel 4 Note On - Duracao: 923760 Nota: C1 Vol.: 99
Chanel 4 Note Off - Duracao: 923820 Nota: C1 Vol.: 99
Chanel 4 Note On - Duracao: 923820 Nota: C1 Vol.: 61
Chanel 10 Note Off - Duracao: 923820 Nota: C1 Vol.: 83
Chanel 10 Note On - Duracao: 923820 Nota: C1 Vol.: 82
Chanel 10 Note Off - Duracao: 924060 Nota: C1 Vol.: 82
Chanel 10 Note On - Duracao: 924060 Nota: C1 Vol.: 82
Chanel 8 Note Off - Duracao: 924300 Nota: C1 Vol.: 64
Chanel 8 Note On - Duracao: 924300 Nota: C1 Vol.: 75
Chanel 10 Note Off - Duracao: 924300 Nota: C1 Vol.: 82
Chanel 10 Note On - Duracao: 924300 Nota: C1 Vol.: 81
Chanel 9 Note Off - Duracao: 924360 Nota: C1 Vol.: 81
Chanel 9 Note On - Duracao: 924360 Nota: C1 Vol.: 82
Chanel 6 Note Off - Duracao: 924420 Nota: C1 Vol.: 77
Chanel 6 Note On - Duracao: 924420 Nota: C1 Vol.: 76
Chanel 10 Note Off - Duracao: 924420 Nota: C1 Vol.: 81
Chanel 10 Note On - Duracao: 924420 Nota: C1 Vol.: 83
Chanel 10 Note Off - Duracao: 924540 Nota: C1 Vol.: 83
Chanel 10 Note On - Duracao: 924540 Nota: C1 Vol.: 83
Chanel 10 Note Off - Duracao: 924660 Nota: C1 Vol.: 83
Chanel 10 Note On - Duracao: 924660 Nota: C1 Vol.: 83
Chanel 2 Note Off - Duracao: 924720 Nota: C1 Vol.: 89
Chanel 2 Note On - Duracao: 924720 Nota: C1 Vol.: 64
Chanel 4 Note Off - Duracao: 924780 Nota: C1 Vol.: 61
Chanel 4 Note On - Duracao: 924780 Nota: C1 Vol.: 58
Chanel 8 Note Off - Duracao: 924780 Nota: C1 Vol.: 75
Chanel 8 Note On - Duracao: 924780 Nota: C1 Vol.: 77
Chanel 10 Note Off - Duracao: 924780 Nota: C1 Vol.: 83
Chanel 10 Note On - Duracao: 924780 Nota: C1 Vol.: 80
Chanel 7 Note Off - Duracao: 924900 Nota: C1 Vol.: 67
Chanel 7 Note On - Duracao: 924900 Nota: C1 Vol.: 69
Chanel 10 Note Off - Duracao: 925020 Nota: C1 Vol.: 80
Chanel 10 Note On - Duracao: 925020 Nota: C1 Vol.: 79
Chanel 8 Note Off - Duracao: 925260 Nota: C1 Vol.: 77
Chanel 8 Note On - Duracao: 925260 Nota: C1 Vol.: 77
Chanel 10 Note Off - Duracao: 925260 Nota: C1 Vol.: 79
Chanel 10 Note On - Duracao: 925260 Nota: C1 Vol.: 74
Chanel 10 Note Off - Duracao: 925500 Nota: C1 Vol.: 74
Chanel 10 Note On - Duracao: 925500 Nota: C1 Vol.: 74
Chanel 4 Note Off - Duracao: 925740 Nota: C1 Vol.: 58
Chanel 4 Note On - Duracao: 925740 Nota: C1 Vol.: 89
Chanel 8 Note Off - Duracao: 925740 Nota: C1 Vol.: 77
Chanel 8 Note On - Duracao: 925740 Nota: C1 Vol.: 78
Chanel 4 Note Off - Duracao: 925860 Nota: C1 Vol.: 89
Chanel 4 Note On - Duracao: 925860 Nota: C1 Vol.: 99
Chanel 7 Note Off - Duracao: 925860 Nota: C1 Vol.: 69
Chanel 7 Note On - Duracao: 925860 Nota: C1 Vol.: 68
Chanel 4 Note Off - Duracao: 925920 Nota: C1 Vol.: 99
Chanel 4 Note On - Duracao: 925920 Nota: C1 Vol.: 99
Chanel 4 Note Off - Duracao: 925980 Nota: C1 Vol.: 99
Chanel 4 Note On - Duracao: 925980 Nota: C1 Vol.: 99
Chanel 10 Note Off - Duracao: 925980 Nota: C1 Vol.: 74
Chanel 10 Note On - Duracao: 925980 Nota: C1 Vol.: 74
Chanel 4 Note Off - Duracao: 926040 Nota: C1 Vol.: 99
Chanel 4 Note On - Duracao: 926040 Nota: C1 Vol.: 99
Chanel 4 Note Off - Duracao: 926100 Nota: C1 Vol.: 99
Chanel 4 Note On - Duracao: 926100 Nota: C1 Vol.: 98
Chanel 4 Note Off - Duracao: 926160 Nota: C1 Vol.: 98
Chanel 4 Note On - Duracao: 926160 Nota: C1 Vol.: 95
Chanel 8 Note Off - Duracao: 926220 Nota: C1 Vol.: 78
Chanel 8 Note On - Duracao: 926220 Nota: C1 Vol.: 82
Chanel 4 Note Off - Duracao: 926280 Nota: C1 Vol.: 95
Chanel 4 Note On - Duracao: 926280 Nota: C1 Vol.: 52
Chanel 9 Note Off - Duracao: 926280 Nota: C1 Vol.: 82
Chanel 9 Note On - Duracao: 926280 Nota: C1 Vol.: 76
Chanel 6 Note Off - Duracao: 926340 Nota: C1 Vol.: 76
Chanel 6 Note On - Duracao: 926340 Nota: C1 Vol.: 77
Chanel 3 Note Off - Duracao: 926400 Nota: C1 Vol.: 41
Chanel 3 Note On - Duracao: 926400 Nota: C1 Vol.: 52
Chanel 10 Note Off - Duracao: 926460 Nota: C1 Vol.: 74
Chanel 10 Note On - Duracao: 926460 Nota: C1 Vol.: 73
Chanel 8 Note Off - Duracao: 926700 Nota: C1 Vol.: 82
Chanel 8 Note On - Duracao: 926700 Nota: C1 Vol.: 82
Chanel 7 Note Off - Duracao: 926820 Nota: C1 Vol.: 68
Chanel 7 Note On - Duracao: 926820 Nota: C1 Vol.: 69
Chanel 10 Note Off - Duracao: 926940 Nota: C1 Vol.: 73
Chanel 10 Note On - Duracao: 926940 Nota: C1 Vol.: 73
Chanel 8 Note Off - Duracao: 927180 Nota: C1 Vol.: 82
Chanel 8 Note On - Duracao: 927180 Nota: C1 Vol.: 82
Chanel 3 Note Off - Duracao: 927360 Nota: C1 Vol.: 52
Chanel 3 Note On - Duracao: 927360 Nota: C1 Vol.: 55
Chanel 8 Note Off - Duracao: 927420 Nota: C1 Vol.: 82
Chanel 8 Note On - Duracao: 927420 Nota: C1 Vol.: 80
Chanel 10 Note Off - Duracao: 927420 Nota: C1 Vol.: 73
Chanel 10 Note On - Duracao: 927420 Nota: C1 Vol.: 73
Chanel 8 Note Off - Duracao: 927660 Nota: C1 Vol.: 80
Chanel 8 Note On - Duracao: 927660 Nota: C1 Vol.: 82
Chanel 7 Note Off - Duracao: 927780 Nota: C1 Vol.: 69
Chanel 7 Note On - Duracao: 927780 Nota: C1 Vol.: 66
Chanel 3 Note Off - Duracao: 927840 Nota: C1 Vol.: 55
Chanel 3 Note On - Duracao: 927840 Nota: C1 Vol.: 57
Chanel 8 Note Off - Duracao: 927900 Nota: C1 Vol.: 82
Chanel 8 Note On - Duracao: 927900 Nota: C1 Vol.: 79
Chanel 10 Note Off - Duracao: 927900 Nota: C1 Vol.: 73
Chanel 10 Note On - Duracao: 927900 Nota: C1 Vol.: 71
Chanel 8 Note Off - Duracao: 928140 Nota: C1 Vol.: 79
Chanel 8 Note On - Duracao: 928140 Nota: C1 Vol.: 87
Chanel 4 Note Off - Duracao: 928200 Nota: C1 Vol.: 52
Chanel 4 Note On - Duracao: 928200 Nota: C1 Vol.: 51
Chanel 6 Note Off - Duracao: 928260 Nota: C1 Vol.: 77
Chanel 6 Note On - Duracao: 928260 Nota: C1 Vol.: 77
Chanel 8 Note Off - Duracao: 928260 Nota: C1 Vol.: 87
Chanel 8 Note On - Duracao: 928260 Nota: C1 Vol.: 89
Chanel 3 Note Off - Duracao: 928320 Nota: C1 Vol.: 57
Chanel 3 Note On - Duracao: 928320 Nota: C1 Vol.: 54
Chanel 8 Note Off - Duracao: 928500 Nota: C1 Vol.: 89
Chanel 8 Note On - Duracao: 928500 Nota: C1 Vol.: 100
Chanel 2 Note Off - Duracao: 928560 Nota: C1 Vol.: 64
Chanel 2 Note On - Duracao: 928560 Nota: C1 Vol.: 56
Chanel 8 Note Off - Duracao: 928620 Nota: C1 Vol.: 100
Chanel 8 Note On - Duracao: 928620 Nota: C1 Vol.: 91
Chanel 7 Note Off - Duracao: 928740 Nota: C1 Vol.: 66
Chanel 7 Note On - Duracao: 928740 Nota: C1 Vol.: 61
Chanel 3 Note Off - Duracao: 928800 Nota: C1 Vol.: 54
Chanel 3 Note On - Duracao: 928800 Nota: C1 Vol.: 59
Chanel 8 Note Off - Duracao: 928860 Nota: C1 Vol.: 91
Chanel 8 Note On - Duracao: 928860 Nota: C1 Vol.: 88
Chanel 10 Note Off - Duracao: 928860 Nota: C1 Vol.: 71
Chanel 10 Note On - Duracao: 928860 Nota: C1 Vol.: 78
Chanel 8 Note Off - Duracao: 929100 Nota: C1 Vol.: 88
Chanel 8 Note On - Duracao: 929100 Nota: C1 Vol.: 72
Chanel 3 Note Off - Duracao: 929280 Nota: C1 Vol.: 59
Chanel 3 Note On - Duracao: 929280 Nota: C1 Vol.: 65
Chanel 10 Note Off - Duracao: 929340 Nota: C1 Vol.: 78
Chanel 10 Note On - Duracao: 929340 Nota: C1 Vol.: 72
Chanel 3 Note Off - Duracao: 929520 Nota: C1 Vol.: 65
Chanel 3 Note On - Duracao: 929520 Nota: C1 Vol.: 64
Chanel 8 Note Off - Duracao: 929580 Nota: C1 Vol.: 72
Chanel 8 Note On - Duracao: 929580 Nota: C1 Vol.: 62
Chanel 3 Note Off - Duracao: 930000 Nota: C1 Vol.: 64
Chanel 3 Note On - Duracao: 930000 Nota: C1 Vol.: 62
Chanel 8 Note Off - Duracao: 930060 Nota: C1 Vol.: 62
Chanel 8 Note On - Duracao: 930060 Nota: C1 Vol.: 65
Chanel 4 Note Off - Duracao: 930120 Nota: C1 Vol.: 51
Chanel 4 Note On - Duracao: 930120 Nota: C1 Vol.: 87
Chanel 9 Note Off - Duracao: 930120 Nota: C1 Vol.: 76
Chanel 9 Note On - Duracao: 930120 Nota: C1 Vol.: 86
Chanel 6 Note Off - Duracao: 930180 Nota: C1 Vol.: 77
Chanel 6 Note On - Duracao: 930180 Nota: C1 Vol.: 72
Chanel 4 Note Off - Duracao: 930240 Nota: C1 Vol.: 87
Chanel 4 Note On - Duracao: 930240 Nota: C1 Vol.: 88
Chanel 10 Note Off - Duracao: 930300 Nota: C1 Vol.: 72
Chanel 10 Note On - Duracao: 930300 Nota: C1 Vol.: 78
Chanel 4 Note Off - Duracao: 930360 Nota: C1 Vol.: 88
Chanel 4 Note On - Duracao: 930360 Nota: C1 Vol.: 95
Chanel 3 Note Off - Duracao: 930480 Nota: C1 Vol.: 62
Chanel 3 Note On - Duracao: 930480 Nota: C1 Vol.: 68
Chanel 4 Note Off - Duracao: 930480 Nota: C1 Vol.: 95
Chanel 4 Note On - Duracao: 930480 Nota: C1 Vol.: 96
Chanel 4 Note Off - Duracao: 930540 Nota: C1 Vol.: 96
Chanel 4 Note On - Duracao: 930540 Nota: C1 Vol.: 96
Chanel 8 Note Off - Duracao: 930540 Nota: C1 Vol.: 65
Chanel 8 Note On - Duracao: 930540 Nota: C1 Vol.: 66
Chanel 4 Note Off - Duracao: 930600 Nota: C1 Vol.: 96
Chanel 4 Note On - Duracao: 930600 Nota: C1 Vol.: 96
Chanel 4 Note Off - Duracao: 930660 Nota: C1 Vol.: 96
Chanel 4 Note On - Duracao: 930660 Nota: C1 Vol.: 92
Chanel 7 Note Off - Duracao: 930660 Nota: C1 Vol.: 61
Chanel 7 Note On - Duracao: 930660 Nota: C1 Vol.: 50
Chanel 3 Note Off - Duracao: 930720 Nota: C1 Vol.: 68
Chanel 3 Note On - Duracao: 930720 Nota: C1 Vol.: 68
Chanel 4 Note Off - Duracao: 930780 Nota: C1 Vol.: 92
Chanel 4 Note On - Duracao: 930780 Nota: C1 Vol.: 95
Chanel 8 Note Off - Duracao: 930780 Nota: C1 Vol.: 66
Chanel 8 Note On - Duracao: 930780 Nota: C1 Vol.: 64
Chanel 10 Note Off - Duracao: 930780 Nota: C1 Vol.: 78
Chanel 10 Note On - Duracao: 930780 Nota: C1 Vol.: 77
Chanel 4 Note Off - Duracao: 930900 Nota: C1 Vol.: 95
Chanel 4 Note On - Duracao: 930900 Nota: C1 Vol.: 74
Chanel 3 Note Off - Duracao: 930960 Nota: C1 Vol.: 68
Chanel 3 Note On - Duracao: 930960 Nota: C1 Vol.: 63
Chanel 8 Note Off - Duracao: 931020 Nota: C1 Vol.: 64
Chanel 8 Note On - Duracao: 931020 Nota: C1 Vol.: 60
Chanel 9 Note Off - Duracao: 931080 Nota: C1 Vol.: 86
Chanel 9 Note On - Duracao: 931080 Nota: C1 Vol.: 87
Chanel 3 Note Off - Duracao: 931200 Nota: C1 Vol.: 63
Chanel 3 Note On - Duracao: 931200 Nota: C1 Vol.: 65
Chanel 10 Note Off - Duracao: 931260 Nota: C1 Vol.: 77
Chanel 10 Note On - Duracao: 931260 Nota: C1 Vol.: 73
Chanel 4 Note Off - Duracao: 931380 Nota: C1 Vol.: 74
Chanel 4 Note On - Duracao: 931380 Nota: C1 Vol.: 73
Chanel 3 Note Off - Duracao: 931440 Nota: C1 Vol.: 65
Chanel 3 Note On - Duracao: 931440 Nota: C1 Vol.: 64
Chanel 8 Note Off - Duracao: 931500 Nota: C1 Vol.: 60
Chanel 8 Note On - Duracao: 931500 Nota: C1 Vol.: 60
Chanel 4 Note Off - Duracao: 931860 Nota: C1 Vol.: 73
Chanel 4 Note On - Duracao: 931860 Nota: C1 Vol.: 70
Chanel 3 Note Off - Duracao: 931920 Nota: C1 Vol.: 64
Chanel 3 Note On - Duracao: 931920 Nota: C1 Vol.: 63
Chanel 8 Note Off - Duracao: 931980 Nota: C1 Vol.: 60
Chanel 8 Note On - Duracao: 931980 Nota: C1 Vol.: 67
Chanel 9 Note Off - Duracao: 932040 Nota: C1 Vol.: 87
Chanel 9 Note On - Duracao: 932040 Nota: C1 Vol.: 82
Chanel 6 Note Off - Duracao: 932100 Nota: C1 Vol.: 72
Chanel 6 Note On - Duracao: 932100 Nota: C1 Vol.: 85
Chanel 10 Note Off - Duracao: 932220 Nota: C1 Vol.: 73
Chanel 10 Note On - Duracao: 932220 Nota: C1 Vol.: 74
Chanel 4 Note Off - Duracao: 932340 Nota: C1 Vol.: 70
Chanel 4 Note On - Duracao: 932340 Nota: C1 Vol.: 91
Chanel 2 Note Off - Duracao: 932400 Nota: C1 Vol.: 56
Chanel 2 Note On - Duracao: 932400 Nota: C1 Vol.: 79
Chanel 3 Note Off - Duracao: 932400 Nota: C1 Vol.: 63
Chanel 3 Note On - Duracao: 932400 Nota: C1 Vol.: 60
Chanel 4 Note Off - Duracao: 932460 Nota: C1 Vol.: 91
Chanel 4 Note On - Duracao: 932460 Nota: C1 Vol.: 99
Chanel 8 Note Off - Duracao: 932460 Nota: C1 Vol.: 67
Chanel 8 Note On - Duracao: 932460 Nota: C1 Vol.: 75
Chanel 4 Note Off - Duracao: 932520 Nota: C1 Vol.: 99
Chanel 4 Note On - Duracao: 932520 Nota: C1 Vol.: 99
Chanel 4 Note Off - Duracao: 932580 Nota: C1 Vol.: 99
Chanel 4 Note On - Duracao: 932580 Nota: C1 Vol.: 98
Chanel 6 Note Off - Duracao: 932580 Nota: C1 Vol.: 85
Chanel 6 Note On - Duracao: 932580 Nota: C1 Vol.: 83
Chanel 4 Note Off - Duracao: 932640 Nota: C1 Vol.: 98
Chanel 4 Note On - Duracao: 932640 Nota: C1 Vol.: 97
Chanel 4 Note Off - Duracao: 932700 Nota: C1 Vol.: 97
Chanel 4 Note On - Duracao: 932700 Nota: C1 Vol.: 94
Chanel 8 Note Off - Duracao: 932700 Nota: C1 Vol.: 75
Chanel 8 Note On - Duracao: 932700 Nota: C1 Vol.: 77
Chanel 4 Note Off - Duracao: 932760 Nota: C1 Vol.: 94
Chanel 4 Note On - Duracao: 932760 Nota: C1 Vol.: 94
Chanel 4 Note Off - Duracao: 932820 Nota: C1 Vol.: 94
Chanel 4 Note On - Duracao: 932820 Nota: C1 Vol.: 94
Chanel 2 Note Off - Duracao: 932880 Nota: C1 Vol.: 79
Chanel 2 Note On - Duracao: 932880 Nota: C1 Vol.: 72
Chanel 4 Note Off - Duracao: 932880 Nota: C1 Vol.: 94
Chanel 4 Note On - Duracao: 932880 Nota: C1 Vol.: 94
Chanel 4 Note Off - Duracao: 932940 Nota: C1 Vol.: 94
Chanel 4 Note On - Duracao: 932940 Nota: C1 Vol.: 91
Chanel 8 Note Off - Duracao: 932940 Nota: C1 Vol.: 77
Chanel 8 Note On - Duracao: 932940 Nota: C1 Vol.: 65
Chanel 9 Note Off - Duracao: 933000 Nota: C1 Vol.: 82
Chanel 9 Note On - Duracao: 933000 Nota: C1 Vol.: 78
Chanel 4 Note Off - Duracao: 933060 Nota: C1 Vol.: 91
Chanel 4 Note On - Duracao: 933060 Nota: C1 Vol.: 94
Chanel 6 Note Off - Duracao: 933060 Nota: C1 Vol.: 83
Chanel 6 Note On - Duracao: 933060 Nota: C1 Vol.: 77
Chanel 4 Note Off - Duracao: 933180 Nota: C1 Vol.: 94
Chanel 4 Note On - Duracao: 933180 Nota: C1 Vol.: 80
Chanel 10 Note Off - Duracao: 933180 Nota: C1 Vol.: 74
Chanel 10 Note On - Duracao: 933180 Nota: C1 Vol.: 75
Chanel 2 Note Off - Duracao: 933360 Nota: C1 Vol.: 72
Chanel 2 Note On - Duracao: 933360 Nota: C1 Vol.: 71
Chanel 3 Note Off - Duracao: 933360 Nota: C1 Vol.: 60
Chanel 3 Note On - Duracao: 933360 Nota: C1 Vol.: 79
Chanel 8 Note Off - Duracao: 933420 Nota: C1 Vol.: 65
Chanel 8 Note On - Duracao: 933420 Nota: C1 Vol.: 67
Chanel 6 Note Off - Duracao: 933540 Nota: C1 Vol.: 77
Chanel 6 Note On - Duracao: 933540 Nota: C1 Vol.: 47
Chanel 4 Note Off - Duracao: 933660 Nota: C1 Vol.: 80
Chanel 4 Note On - Duracao: 933660 Nota: C1 Vol.: 67
Chanel 8 Note Off - Duracao: 933660 Nota: C1 Vol.: 67
Chanel 8 Note On - Duracao: 933660 Nota: C1 Vol.: 63
Chanel 2 Note Off - Duracao: 933840 Nota: C1 Vol.: 71
Chanel 2 Note On - Duracao: 933840 Nota: C1 Vol.: 61
Chanel 3 Note Off - Duracao: 933840 Nota: C1 Vol.: 79
Chanel 3 Note On - Duracao: 933840 Nota: C1 Vol.: 60
Chanel 8 Note Off - Duracao: 933900 Nota: C1 Vol.: 63
Chanel 8 Note On - Duracao: 933900 Nota: C1 Vol.: 66
Chanel 9 Note Off - Duracao: 933960 Nota: C1 Vol.: 78
Chanel 9 Note On - Duracao: 933960 Nota: C1 Vol.: 87
Chanel 8 Note Off - Duracao: 934140 Nota: C1 Vol.: 66
Chanel 8 Note On - Duracao: 934140 Nota: C1 Vol.: 63
Chanel 10 Note Off - Duracao: 934140 Nota: C1 Vol.: 75
Chanel 10 Note On - Duracao: 934140 Nota: C1 Vol.: 79
Chanel 8 Note Off - Duracao: 934380 Nota: C1 Vol.: 63
Chanel 8 Note On - Duracao: 934380 Nota: C1 Vol.: 66
Chanel 9 Note Off - Duracao: 934440 Nota: C1 Vol.: 87
Chanel 9 Note On - Duracao: 934440 Nota: C1 Vol.: 85
Chanel 7 Note Off - Duracao: 934500 Nota: C1 Vol.: 50
Chanel 7 Note On - Duracao: 934500 Nota: C1 Vol.: 49
Chanel 2 Note Off - Duracao: 934800 Nota: C1 Vol.: 61
Chanel 2 Note On - Duracao: 934800 Nota: C1 Vol.: 59
Chanel 8 Note Off - Duracao: 934860 Nota: C1 Vol.: 66
Chanel 8 Note On - Duracao: 934860 Nota: C1 Vol.: 65
Chanel 9 Note Off - Duracao: 934920 Nota: C1 Vol.: 85
Chanel 9 Note On - Duracao: 934920 Nota: C1 Vol.: 88
Chanel 10 Note Off - Duracao: 935100 Nota: C1 Vol.: 79
Chanel 10 Note On - Duracao: 935100 Nota: C1 Vol.: 74
Chanel 2 Note Off - Duracao: 935280 Nota: C1 Vol.: 59
Chanel 2 Note On - Duracao: 935280 Nota: C1 Vol.: 64
Chanel 9 Note Off - Duracao: 935400 Nota: C1 Vol.: 88
Chanel 9 Note On - Duracao: 935400 Nota: C1 Vol.: 89
Chanel 6 Note Off - Duracao: 935460 Nota: C1 Vol.: 47
Chanel 6 Note On - Duracao: 935460 Nota: C1 Vol.: 45
Chanel 4 Note Off - Duracao: 935580 Nota: C1 Vol.: 67
Chanel 4 Note On - Duracao: 935580 Nota: C1 Vol.: 61
Chanel 2 Note Off - Duracao: 935760 Nota: C1 Vol.: 64
Chanel 2 Note On - Duracao: 935760 Nota: C1 Vol.: 62
Chanel 3 Note Off - Duracao: 935760 Nota: C1 Vol.: 60
Chanel 3 Note On - Duracao: 935760 Nota: C1 Vol.: 85
Chanel 8 Note Off - Duracao: 935820 Nota: C1 Vol.: 65
Chanel 8 Note On - Duracao: 935820 Nota: C1 Vol.: 75
Chanel 9 Note Off - Duracao: 935880 Nota: C1 Vol.: 89
Chanel 9 Note On - Duracao: 935880 Nota: C1 Vol.: 85
Chanel 3 Note Off - Duracao: 936000 Nota: C1 Vol.: 85
Chanel 3 Note On - Duracao: 936000 Nota: C1 Vol.: 88
Chanel 10 Note Off - Duracao: 936060 Nota: C1 Vol.: 74
Chanel 10 Note On - Duracao: 936060 Nota: C1 Vol.: 76
Chanel 2 Note Off - Duracao: 936240 Nota: C1 Vol.: 62
Chanel 2 Note On - Duracao: 936240 Nota: C1 Vol.: 63
Chanel 3 Note Off - Duracao: 936240 Nota: C1 Vol.: 88
Chanel 3 Note On - Duracao: 936240 Nota: C1 Vol.: 65
Chanel 7 Note Off - Duracao: 936420 Nota: C1 Vol.: 49
Chanel 7 Note On - Duracao: 936420 Nota: C1 Vol.: 48
Chanel 2 Note Off - Duracao: 936720 Nota: C1 Vol.: 63
Chanel 2 Note On - Duracao: 936720 Nota: C1 Vol.: 74
Chanel 8 Note Off - Duracao: 936780 Nota: C1 Vol.: 75
Chanel 8 Note On - Duracao: 936780 Nota: C1 Vol.: 84
Chanel 9 Note Off - Duracao: 936840 Nota: C1 Vol.: 85
Chanel 9 Note On - Duracao: 936840 Nota: C1 Vol.: 85
Chanel 10 Note Off - Duracao: 937020 Nota: C1 Vol.: 76
Chanel 10 Note On - Duracao: 937020 Nota: C1 Vol.: 74
Chanel 2 Note Off - Duracao: 937200 Nota: C1 Vol.: 74
Chanel 2 Note On - Duracao: 937200 Nota: C1 Vol.: 72
Chanel 3 Note Off - Duracao: 937200 Nota: C1 Vol.: 65
Chanel 3 Note On - Duracao: 937200 Nota: C1 Vol.: 70
Chanel 6 Note Off - Duracao: 937380 Nota: C1 Vol.: 45
Chanel 6 Note On - Duracao: 937380 Nota: C1 Vol.: 43
Chanel 4 Note Off - Duracao: 937500 Nota: C1 Vol.: 61
Chanel 4 Note On - Duracao: 937500 Nota: C1 Vol.: 61
Chanel 2 Note Off - Duracao: 937680 Nota: C1 Vol.: 72
Chanel 2 Note On - Duracao: 937680 Nota: C1 Vol.: 77
Chanel 8 Note Off - Duracao: 937740 Nota: C1 Vol.: 84
Chanel 8 Note On - Duracao: 937740 Nota: C1 Vol.: 83
Chanel 9 Note Off - Duracao: 937800 Nota: C1 Vol.: 85
Chanel 9 Note On - Duracao: 937800 Nota: C1 Vol.: 80
Chanel 2 Note Off - Duracao: 937920 Nota: C1 Vol.: 77
Chanel 2 Note On - Duracao: 937920 Nota: C1 Vol.: 73
Chanel 10 Note Off - Duracao: 937980 Nota: C1 Vol.: 74
Chanel 10 Note On - Duracao: 937980 Nota: C1 Vol.: 75
Chanel 2 Note Off - Duracao: 938160 Nota: C1 Vol.: 73
Chanel 2 Note On - Duracao: 938160 Nota: C1 Vol.: 78
Chanel 3 Note Off - Duracao: 938160 Nota: C1 Vol.: 70
Chanel 3 Note On - Duracao: 938160 Nota: C1 Vol.: 80
Chanel 6 Note Off - Duracao: 938340 Nota: C1 Vol.: 43
Chanel 6 Note On - Duracao: 938340 Nota: C1 Vol.: 43
Chanel 7 Note Off - Duracao: 938340 Nota: C1 Vol.: 48
Chanel 7 Note On - Duracao: 938340 Nota: C1 Vol.: 48
Chanel 2 Note Off - Duracao: 938400 Nota: C1 Vol.: 78
Chanel 2 Note On - Duracao: 938400 Nota: C1 Vol.: 76
Chanel 2 Note Off - Duracao: 938640 Nota: C1 Vol.: 76
Chanel 2 Note On - Duracao: 938640 Nota: C1 Vol.: 86
Chanel 3 Note Off - Duracao: 938640 Nota: C1 Vol.: 80
Chanel 3 Note On - Duracao: 938640 Nota: C1 Vol.: 87
Chanel 8 Note Off - Duracao: 938700 Nota: C1 Vol.: 83
Chanel 8 Note On - Duracao: 938700 Nota: C1 Vol.: 77
Chanel 2 Note Off - Duracao: 938760 Nota: C1 Vol.: 86
Chanel 2 Note On - Duracao: 938760 Nota: C1 Vol.: 83
Chanel 9 Note Off - Duracao: 938760 Nota: C1 Vol.: 80
Chanel 9 Note On - Duracao: 938760 Nota: C1 Vol.: 71
Chanel 2 Note Off - Duracao: 938880 Nota: C1 Vol.: 83
Chanel 2 Note On - Duracao: 938880 Nota: C1 Vol.: 73
Chanel 3 Note Off - Duracao: 938880 Nota: C1 Vol.: 87
Chanel 3 Note On - Duracao: 938880 Nota: C1 Vol.: 79
Chanel 10 Note Off - Duracao: 938940 Nota: C1 Vol.: 75
Chanel 10 Note On - Duracao: 938940 Nota: C1 Vol.: 74
Chanel 6 Note Off - Duracao: 939300 Nota: C1 Vol.: 43
Chanel 6 Note On - Duracao: 939300 Nota: C1 Vol.: 43
Chanel 2 Note Off - Duracao: 939360 Nota: C1 Vol.: 73
Chanel 2 Note On - Duracao: 939360 Nota: C1 Vol.: 80
Chanel 3 Note Off - Duracao: 939360 Nota: C1 Vol.: 79
Chanel 3 Note On - Duracao: 939360 Nota: C1 Vol.: 45
Chanel 4 Note Off - Duracao: 939420 Nota: C1 Vol.: 61
Chanel 4 Note On - Duracao: 939420 Nota: C1 Vol.: 60
Chanel 2 Note Off - Duracao: 939600 Nota: C1 Vol.: 80
Chanel 2 Note On - Duracao: 939600 Nota: C1 Vol.: 73
Chanel 10 Note Off - Duracao: 939900 Nota: C1 Vol.: 74
Chanel 10 Note On - Duracao: 939900 Nota: C1 Vol.: 65
Chanel 2 Note Off - Duracao: 940080 Nota: C1 Vol.: 73
Chanel 2 Note On - Duracao: 940080 Nota: C1 Vol.: 79
Chanel 6 Note Off - Duracao: 940260 Nota: C1 Vol.: 43
Chanel 6 Note On - Duracao: 940260 Nota: C1 Vol.: 41
Chanel 7 Note Off - Duracao: 940260 Nota: C1 Vol.: 48
Chanel 7 Note On - Duracao: 940260 Nota: C1 Vol.: 47
Chanel 2 Note Off - Duracao: 940320 Nota: C1 Vol.: 79
Chanel 2 Note On - Duracao: 940320 Nota: C1 Vol.: 76
Chanel 8 Note Off - Duracao: 940620 Nota: C1 Vol.: 77
Chanel 8 Note On - Duracao: 940620 Nota: C1 Vol.: 70
Chanel 9 Note Off - Duracao: 940680 Nota: C1 Vol.: 71
Chanel 9 Note On - Duracao: 940680 Nota: C1 Vol.: 68
Chanel 2 Note Off - Duracao: 940800 Nota: C1 Vol.: 76
Chanel 2 Note On - Duracao: 940800 Nota: C1 Vol.: 80
Chanel 2 Note Off - Duracao: 941040 Nota: C1 Vol.: 80
Chanel 2 Note On - Duracao: 941040 Nota: C1 Vol.: 82
Chanel 6 Note Off - Duracao: 941220 Nota: C1 Vol.: 41
Chanel 6 Note On - Duracao: 941220 Nota: C1 Vol.: 44
Chanel 2 Note Off - Duracao: 941280 Nota: C1 Vol.: 82
Chanel 2 Note On - Duracao: 941280 Nota: C1 Vol.: 81
Chanel 4 Note Off - Duracao: 941340 Nota: C1 Vol.: 60
Chanel 4 Note On - Duracao: 941340 Nota: C1 Vol.: 69
Chanel 2 Note Off - Duracao: 941520 Nota: C1 Vol.: 81
Chanel 2 Note On - Duracao: 941520 Nota: C1 Vol.: 76
Chanel 2 Note Off - Duracao: 941760 Nota: C1 Vol.: 76
Chanel 2 Note On - Duracao: 941760 Nota: C1 Vol.: 82
Chanel 10 Note Off - Duracao: 941820 Nota: C1 Vol.: 65
Chanel 10 Note On - Duracao: 941820 Nota: C1 Vol.: 62
Chanel 2 Note Off - Duracao: 942000 Nota: C1 Vol.: 82
Chanel 2 Note On - Duracao: 942000 Nota: C1 Vol.: 78
Chanel 6 Note Off - Duracao: 942180 Nota: C1 Vol.: 44
Chanel 6 Note On - Duracao: 942180 Nota: C1 Vol.: 50
Chanel 7 Note Off - Duracao: 942180 Nota: C1 Vol.: 47
Chanel 7 Note On - Duracao: 942180 Nota: C1 Vol.: 43
Chanel 2 Note Off - Duracao: 942240 Nota: C1 Vol.: 78
Chanel 2 Note On - Duracao: 942240 Nota: C1 Vol.: 80
Chanel 4 Note Off - Duracao: 942300 Nota: C1 Vol.: 69
Chanel 4 Note On - Duracao: 942300 Nota: C1 Vol.: 55
Chanel 2 Note Off - Duracao: 942480 Nota: C1 Vol.: 80
Chanel 2 Note On - Duracao: 942480 Nota: C1 Vol.: 80
Chanel 9 Note Off - Duracao: 942600 Nota: C1 Vol.: 68
Chanel 9 Note On - Duracao: 942600 Nota: C1 Vol.: 60
Chanel 2 Note Off - Duracao: 942720 Nota: C1 Vol.: 80
Chanel 2 Note On - Duracao: 942720 Nota: C1 Vol.: 75
Chanel 6 Note Off - Duracao: 943140 Nota: C1 Vol.: 50
Chanel 6 Note On - Duracao: 943140 Nota: C1 Vol.: 44
Chanel 2 Note Off - Duracao: 943200 Nota: C1 Vol.: 75
Chanel 2 Note On - Duracao: 943200 Nota: C1 Vol.: 86
Chanel 3 Note Off - Duracao: 943200 Nota: C1 Vol.: 45
Chanel 3 Note On - Duracao: 943200 Nota: C1 Vol.: 43
Chanel 2 Note Off - Duracao: 943680 Nota: C1 Vol.: 86
Chanel 2 Note On - Duracao: 943680 Nota: C1 Vol.: 87
Chanel 10 Note Off - Duracao: 943740 Nota: C1 Vol.: 62
Chanel 10 Note On - Duracao: 943740 Nota: C1 Vol.: 71
Chanel 6 Note Off - Duracao: 944100 Nota: C1 Vol.: 44
Chanel 6 Note On - Duracao: 944100 Nota: C1 Vol.: 41
Chanel 2 Note Off - Duracao: 944160 Nota: C1 Vol.: 87
Chanel 2 Note On - Duracao: 944160 Nota: C1 Vol.: 83
Chanel 8 Note Off - Duracao: 944460 Nota: C1 Vol.: 70
Chanel 8 Note On - Duracao: 944460 Nota: C1 Vol.: 73
Chanel 9 Note Off - Duracao: 944520 Nota: C1 Vol.: 60
Chanel 9 Note On - Duracao: 944520 Nota: C1 Vol.: 63
Chanel 2 Note Off - Duracao: 944640 Nota: C1 Vol.: 83
Chanel 2 Note On - Duracao: 944640 Nota: C1 Vol.: 86
Chanel 10 Note Off - Duracao: 944700 Nota: C1 Vol.: 71
Chanel 10 Note On - Duracao: 944700 Nota: C1 Vol.: 79
Chanel 6 Note Off - Duracao: 945060 Nota: C1 Vol.: 41
Chanel 6 Note On - Duracao: 945060 Nota: C1 Vol.: 40
Chanel 2 Note Off - Duracao: 945120 Nota: C1 Vol.: 86
Chanel 2 Note On - Duracao: 945120 Nota: C1 Vol.: 86
Chanel 10 Note Off - Duracao: 945180 Nota: C1 Vol.: 79
Chanel 10 Note On - Duracao: 945180 Nota: C1 Vol.: 83
Chanel 2 Note Off - Duracao: 945360 Nota: C1 Vol.: 86
Chanel 2 Note On - Duracao: 945360 Nota: C1 Vol.: 95
Chanel 10 Note Off - Duracao: 945420 Nota: C1 Vol.: 83
Chanel 10 Note On - Duracao: 945420 Nota: C1 Vol.: 80
Chanel 2 Note Off - Duracao: 945480 Nota: C1 Vol.: 95
Chanel 2 Note On - Duracao: 945480 Nota: C1 Vol.: 85
Chanel 10 Note Off - Duracao: 945660 Nota: C1 Vol.: 80
Chanel 10 Note On - Duracao: 945660 Nota: C1 Vol.: 75
Chanel 2 Note Off - Duracao: 945720 Nota: C1 Vol.: 85
Chanel 2 Note On - Duracao: 945720 Nota: C1 Vol.: 82
Chanel 2 Note Off - Duracao: 945960 Nota: C1 Vol.: 82
Chanel 2 Note On - Duracao: 945960 Nota: C1 Vol.: 63
Chanel 6 Note Off - Duracao: 946020 Nota: C1 Vol.: 40
Chanel 6 Note On - Duracao: 946020 Nota: C1 Vol.: 40
Chanel 7 Note Off - Duracao: 946020 Nota: C1 Vol.: 43
Chanel 7 Note On - Duracao: 946020 Nota: C1 Vol.: 45
Chanel 4 Note Off - Duracao: 946140 Nota: C1 Vol.: 55
Chanel 4 Note On - Duracao: 946140 Nota: C1 Vol.: 58
Chanel 10 Note Off - Duracao: 946140 Nota: C1 Vol.: 75
Chanel 10 Note On - Duracao: 946140 Nota: C1 Vol.: 72
Chanel 9 Note Off - Duracao: 946440 Nota: C1 Vol.: 63
Chanel 9 Note On - Duracao: 946440 Nota: C1 Vol.: 68
Chanel 10 Note Off - Duracao: 946620 Nota: C1 Vol.: 72
Chanel 10 Note On - Duracao: 946620 Nota: C1 Vol.: 73
Chanel 10 Note Off - Duracao: 946860 Nota: C1 Vol.: 73
Chanel 10 Note On - Duracao: 946860 Nota: C1 Vol.: 74
Chanel 2 Note Off - Duracao: 946920 Nota: C1 Vol.: 63
Chanel 2 Note On - Duracao: 946920 Nota: C1 Vol.: 79
Chanel 6 Note Off - Duracao: 946980 Nota: C1 Vol.: 40
Chanel 6 Note On - Duracao: 946980 Nota: C1 Vol.: 40
Chanel 3 Note Off - Duracao: 947040 Nota: C1 Vol.: 43
Chanel 3 Note On - Duracao: 947040 Nota: C1 Vol.: 46
Chanel 10 Note Off - Duracao: 947100 Nota: C1 Vol.: 74
Chanel 10 Note On - Duracao: 947100 Nota: C1 Vol.: 74
Chanel 10 Note Off - Duracao: 947340 Nota: C1 Vol.: 74
Chanel 10 Note On - Duracao: 947340 Nota: C1 Vol.: 71
Chanel 2 Note Off - Duracao: 947400 Nota: C1 Vol.: 79
Chanel 2 Note On - Duracao: 947400 Nota: C1 Vol.: 83
Chanel 9 Note Off - Duracao: 947400 Nota: C1 Vol.: 68
Chanel 9 Note On - Duracao: 947400 Nota: C1 Vol.: 72
Chanel 10 Note Off - Duracao: 947820 Nota: C1 Vol.: 71
Chanel 10 Note On - Duracao: 947820 Nota: C1 Vol.: 69
Chanel 2 Note Off - Duracao: 947880 Nota: C1 Vol.: 83
Chanel 2 Note On - Duracao: 947880 Nota: C1 Vol.: 83
Chanel 6 Note Off - Duracao: 947940 Nota: C1 Vol.: 40
Chanel 6 Note On - Duracao: 947940 Nota: C1 Vol.: 42
Chanel 7 Note Off - Duracao: 947940 Nota: C1 Vol.: 45
Chanel 7 Note On - Duracao: 947940 Nota: C1 Vol.: 43
Chanel 4 Note Off - Duracao: 948060 Nota: C1 Vol.: 58
Chanel 4 Note On - Duracao: 948060 Nota: C1 Vol.: 63
Chanel 8 Note Off - Duracao: 948300 Nota: C1 Vol.: 73
Chanel 8 Note On - Duracao: 948300 Nota: C1 Vol.: 70
Chanel 10 Note Off - Duracao: 948300 Nota: C1 Vol.: 69
Chanel 10 Note On - Duracao: 948300 Nota: C1 Vol.: 67
Chanel 2 Note Off - Duracao: 948360 Nota: C1 Vol.: 83
Chanel 2 Note On - Duracao: 948360 Nota: C1 Vol.: 76
Chanel 9 Note Off - Duracao: 948360 Nota: C1 Vol.: 72
Chanel 9 Note On - Duracao: 948360 Nota: C1 Vol.: 82
Chanel 2 Note Off - Duracao: 948840 Nota: C1 Vol.: 76
Chanel 2 Note On - Duracao: 948840 Nota: C1 Vol.: 77
Chanel 9 Note Off - Duracao: 948840 Nota: C1 Vol.: 82
Chanel 9 Note On - Duracao: 948840 Nota: C1 Vol.: 83
Chanel 6 Note Off - Duracao: 948900 Nota: C1 Vol.: 42
Chanel 6 Note On - Duracao: 948900 Nota: C1 Vol.: 40
Chanel 10 Note Off - Duracao: 949260 Nota: C1 Vol.: 67
Chanel 10 Note On - Duracao: 949260 Nota: C1 Vol.: 69
Chanel 2 Note Off - Duracao: 949320 Nota: C1 Vol.: 77
Chanel 2 Note On - Duracao: 949320 Nota: C1 Vol.: 71
Chanel 9 Note Off - Duracao: 949320 Nota: C1 Vol.: 83
Chanel 9 Note On - Duracao: 949320 Nota: C1 Vol.: 78
Chanel 9 Note Off - Duracao: 949800 Nota: C1 Vol.: 78
Chanel 9 Note On - Duracao: 949800 Nota: C1 Vol.: 76
Chanel 6 Note Off - Duracao: 949860 Nota: C1 Vol.: 40
Chanel 6 Note On - Duracao: 949860 Nota: C1 Vol.: 40
Chanel 4 Note Off - Duracao: 949980 Nota: C1 Vol.: 63
Chanel 4 Note On - Duracao: 949980 Nota: C1 Vol.: 70
Chanel 10 Note Off - Duracao: 950220 Nota: C1 Vol.: 69
Chanel 10 Note On - Duracao: 950220 Nota: C1 Vol.: 69
Chanel 2 Note Off - Duracao: 950280 Nota: C1 Vol.: 71
Chanel 2 Note On - Duracao: 950280 Nota: C1 Vol.: 64
Chanel 9 Note Off - Duracao: 950280 Nota: C1 Vol.: 76
Chanel 9 Note On - Duracao: 950280 Nota: C1 Vol.: 70
Chanel 9 Note Off - Duracao: 950760 Nota: C1 Vol.: 70
Chanel 9 Note On - Duracao: 950760 Nota: C1 Vol.: 80
Chanel 6 Note Off - Duracao: 950820 Nota: C1 Vol.: 40
Chanel 6 Note On - Duracao: 950820 Nota: C1 Vol.: 44
Chanel 3 Note Off - Duracao: 950880 Nota: C1 Vol.: 46
Chanel 3 Note On - Duracao: 950880 Nota: C1 Vol.: 50
Chanel 4 Note Off - Duracao: 950940 Nota: C1 Vol.: 70
Chanel 4 Note On - Duracao: 950940 Nota: C1 Vol.: 74
Chanel 9 Note Off - Duracao: 951000 Nota: C1 Vol.: 80
Chanel 9 Note On - Duracao: 951000 Nota: C1 Vol.: 76
Chanel 10 Note Off - Duracao: 951180 Nota: C1 Vol.: 69
Chanel 10 Note On - Duracao: 951180 Nota: C1 Vol.: 70
Chanel 9 Note Off - Duracao: 951240 Nota: C1 Vol.: 76
Chanel 9 Note On - Duracao: 951240 Nota: C1 Vol.: 63
Chanel 9 Note Off - Duracao: 951720 Nota: C1 Vol.: 63
Chanel 9 Note On - Duracao: 951720 Nota: C1 Vol.: 59
Chanel 6 Note Off - Duracao: 951780 Nota: C1 Vol.: 44
Chanel 6 Note On - Duracao: 951780 Nota: C1 Vol.: 48
Chanel 7 Note Off - Duracao: 951780 Nota: C1 Vol.: 43
Chanel 7 Note On - Duracao: 951780 Nota: C1 Vol.: 45
Chanel 4 Note Off - Duracao: 951900 Nota: C1 Vol.: 74
Chanel 4 Note On - Duracao: 951900 Nota: C1 Vol.: 79
Chanel 8 Note Off - Duracao: 952140 Nota: C1 Vol.: 70
Chanel 8 Note On - Duracao: 952140 Nota: C1 Vol.: 69
Chanel 10 Note Off - Duracao: 952140 Nota: C1 Vol.: 70
Chanel 10 Note On - Duracao: 952140 Nota: C1 Vol.: 64
Chanel 2 Note Off - Duracao: 952200 Nota: C1 Vol.: 64
Chanel 2 Note On - Duracao: 952200 Nota: C1 Vol.: 66
Chanel 6 Note Off - Duracao: 952260 Nota: C1 Vol.: 48
Chanel 6 Note On - Duracao: 952260 Nota: C1 Vol.: 49
Chanel 4 Note Off - Duracao: 952380 Nota: C1 Vol.: 79
Chanel 4 Note On - Duracao: 952380 Nota: C1 Vol.: 75
Chanel 9 Note Off - Duracao: 952680 Nota: C1 Vol.: 59
Chanel 9 Note On - Duracao: 952680 Nota: C1 Vol.: 55
Chanel 6 Note Off - Duracao: 952740 Nota: C1 Vol.: 49
Chanel 6 Note On - Duracao: 952740 Nota: C1 Vol.: 48
Chanel 6 Note Off - Duracao: 953220 Nota: C1 Vol.: 48
Chanel 6 Note On - Duracao: 953220 Nota: C1 Vol.: 48
Chanel 4 Note Off - Duracao: 953340 Nota: C1 Vol.: 75
Chanel 4 Note On - Duracao: 953340 Nota: C1 Vol.: 73
Chanel 6 Note Off - Duracao: 953700 Nota: C1 Vol.: 48
Chanel 6 Note On - Duracao: 953700 Nota: C1 Vol.: 48
Chanel 8 Note Off - Duracao: 954060 Nota: C1 Vol.: 69
Chanel 8 Note On - Duracao: 954060 Nota: C1 Vol.: 64
Chanel 10 Note Off - Duracao: 954060 Nota: C1 Vol.: 64
Chanel 10 Note On - Duracao: 954060 Nota: C1 Vol.: 66
Chanel 2 Note Off - Duracao: 954120 Nota: C1 Vol.: 66
Chanel 2 Note On - Duracao: 954120 Nota: C1 Vol.: 84
Chanel 6 Note Off - Duracao: 954180 Nota: C1 Vol.: 48
Chanel 6 Note On - Duracao: 954180 Nota: C1 Vol.: 47
Chanel 4 Note Off - Duracao: 954300 Nota: C1 Vol.: 73
Chanel 4 Note On - Duracao: 954300 Nota: C1 Vol.: 82
Chanel 2 Note Off - Duracao: 954600 Nota: C1 Vol.: 84
Chanel 2 Note On - Duracao: 954600 Nota: C1 Vol.: 90
Chanel 9 Note Off - Duracao: 954600 Nota: C1 Vol.: 55
Chanel 9 Note On - Duracao: 954600 Nota: C1 Vol.: 57
Chanel 6 Note Off - Duracao: 954660 Nota: C1 Vol.: 47
Chanel 6 Note On - Duracao: 954660 Nota: C1 Vol.: 47
Chanel 3 Note Off - Duracao: 954720 Nota: C1 Vol.: 50
Chanel 3 Note On - Duracao: 954720 Nota: C1 Vol.: 57
Chanel 4 Note Off - Duracao: 954780 Nota: C1 Vol.: 82
Chanel 4 Note On - Duracao: 954780 Nota: C1 Vol.: 84
Chanel 2 Note Off - Duracao: 954840 Nota: C1 Vol.: 90
Chanel 2 Note On - Duracao: 954840 Nota: C1 Vol.: 95
Chanel 10 Note Off - Duracao: 955020 Nota: C1 Vol.: 66
Chanel 10 Note On - Duracao: 955020 Nota: C1 Vol.: 66
Chanel 2 Note Off - Duracao: 955080 Nota: C1 Vol.: 95
Chanel 2 Note On - Duracao: 955080 Nota: C1 Vol.: 85
Chanel 6 Note Off - Duracao: 955140 Nota: C1 Vol.: 47
Chanel 6 Note On - Duracao: 955140 Nota: C1 Vol.: 47
Chanel 4 Note Off - Duracao: 955260 Nota: C1 Vol.: 84
Chanel 4 Note On - Duracao: 955260 Nota: C1 Vol.: 83
Chanel 2 Note Off - Duracao: 955560 Nota: C1 Vol.: 85
Chanel 2 Note On - Duracao: 955560 Nota: C1 Vol.: 75
Chanel 6 Note Off - Duracao: 955620 Nota: C1 Vol.: 47
Chanel 6 Note On - Duracao: 955620 Nota: C1 Vol.: 48
Chanel 7 Note Off - Duracao: 955620 Nota: C1 Vol.: 45
Chanel 7 Note On - Duracao: 955620 Nota: C1 Vol.: 48
Chanel 4 Note Off - Duracao: 955740 Nota: C1 Vol.: 83
Chanel 4 Note On - Duracao: 955740 Nota: C1 Vol.: 77
Chanel 10 Note Off - Duracao: 955980 Nota: C1 Vol.: 66
Chanel 10 Note On - Duracao: 955980 Nota: C1 Vol.: 71
Chanel 6 Note Off - Duracao: 956100 Nota: C1 Vol.: 48
Chanel 6 Note On - Duracao: 956100 Nota: C1 Vol.: 48
Chanel 10 Note Off - Duracao: 956460 Nota: C1 Vol.: 71
Chanel 10 Note On - Duracao: 956460 Nota: C1 Vol.: 79
Chanel 2 Note Off - Duracao: 956520 Nota: C1 Vol.: 75
Chanel 2 Note On - Duracao: 956520 Nota: C1 Vol.: 75
Chanel 9 Note Off - Duracao: 956520 Nota: C1 Vol.: 57
Chanel 9 Note On - Duracao: 956520 Nota: C1 Vol.: 58
Chanel 6 Note Off - Duracao: 956580 Nota: C1 Vol.: 48
Chanel 6 Note On - Duracao: 956580 Nota: C1 Vol.: 48
Chanel 3 Note Off - Duracao: 956640 Nota: C1 Vol.: 57
Chanel 3 Note On - Duracao: 956640 Nota: C1 Vol.: 60
Chanel 4 Note Off - Duracao: 956700 Nota: C1 Vol.: 77
Chanel 4 Note On - Duracao: 956700 Nota: C1 Vol.: 62
Chanel 10 Note Off - Duracao: 956700 Nota: C1 Vol.: 79
Chanel 10 Note On - Duracao: 956700 Nota: C1 Vol.: 79
Chanel 10 Note Off - Duracao: 956940 Nota: C1 Vol.: 79
Chanel 10 Note On - Duracao: 956940 Nota: C1 Vol.: 80
Chanel 6 Note Off - Duracao: 957060 Nota: C1 Vol.: 48
Chanel 6 Note On - Duracao: 957060 Nota: C1 Vol.: 48
Chanel 10 Note Off - Duracao: 957180 Nota: C1 Vol.: 80
Chanel 2 Note Off - Duracao: 957480 Nota: C1 Vol.: 75
Chanel 2 Note On - Duracao: 957480 Nota: C1 Vol.: 73
Chanel 6 Note Off - Duracao: 957540 Nota: C1 Vol.: 48
Chanel 6 Note On - Duracao: 957540 Nota: C1 Vol.: 49
Chanel 7 Note Off - Duracao: 957540 Nota: C1 Vol.: 48
Chanel 7 Note On - Duracao: 957540 Nota: C1 Vol.: 52
Chanel 8 Note Off - Duracao: 957900 Nota: C1 Vol.: 64
Chanel 8 Note On - Duracao: 957900 Nota: C1 Vol.: 85
Chanel 6 Note Off - Duracao: 958020 Nota: C1 Vol.: 49
Chanel 6 Note On - Duracao: 958020 Nota: C1 Vol.: 48
Chanel 2 Note Off - Duracao: 958440 Nota: C1 Vol.: 73
Chanel 2 Note On - Duracao: 958440 Nota: C1 Vol.: 85
Chanel 9 Note Off - Duracao: 958440 Nota: C1 Vol.: 58
Chanel 9 Note On - Duracao: 958440 Nota: C1 Vol.: 61
Chanel 6 Note Off - Duracao: 958500 Nota: C1 Vol.: 48
Chanel 6 Note On - Duracao: 958500 Nota: C1 Vol.: 47
Chanel 3 Note Off - Duracao: 958560 Nota: C1 Vol.: 60
Chanel 3 Note On - Duracao: 958560 Nota: C1 Vol.: 56
Chanel 4 Note Off - Duracao: 958620 Nota: C1 Vol.: 62
Chanel 4 Note On - Duracao: 958620 Nota: C1 Vol.: 63
Chanel 8 Note Off - Duracao: 958860 Nota: C1 Vol.: 85
Chanel 8 Note On - Duracao: 958860 Nota: C1 Vol.: 76
Chanel 2 Note Off - Duracao: 958920 Nota: C1 Vol.: 85
Chanel 2 Note On - Duracao: 958920 Nota: C1 Vol.: 88
Chanel 6 Note Off - Duracao: 958980 Nota: C1 Vol.: 47
Chanel 6 Note On - Duracao: 958980 Nota: C1 Vol.: 48
Chanel 2 Note Off - Duracao: 959160 Nota: C1 Vol.: 88
Chanel 2 Note On - Duracao: 959160 Nota: C1 Vol.: 84
Chanel 2 Note Off - Duracao: 959400 Nota: C1 Vol.: 84
Chanel 2 Note On - Duracao: 959400 Nota: C1 Vol.: 47
Chanel 6 Note Off - Duracao: 959460 Nota: C1 Vol.: 48
Chanel 6 Note On - Duracao: 959460 Nota: C1 Vol.: 49
Chanel 7 Note Off - Duracao: 959460 Nota: C1 Vol.: 52
Chanel 7 Note On - Duracao: 959460 Nota: C1 Vol.: 52
Chanel 6 Note Off - Duracao: 959940 Nota: C1 Vol.: 49
Chanel 6 Note On - Duracao: 959940 Nota: C1 Vol.: 48
Chanel 9 Note Off - Duracao: 960360 Nota: C1 Vol.: 61
Chanel 9 Note On - Duracao: 960360 Nota: C1 Vol.: 64
Chanel 3 Note Off - Duracao: 960480 Nota: C1 Vol.: 56
Chanel 3 Note On - Duracao: 960480 Nota: C1 Vol.: 74
Chanel 4 Note Off - Duracao: 960540 Nota: C1 Vol.: 63
Chanel 4 Note On - Duracao: 960540 Nota: C1 Vol.: 76
Chanel 8 Note Off - Duracao: 960780 Nota: C1 Vol.: 76
Chanel 8 Note On - Duracao: 960780 Nota: C1 Vol.: 76
Chanel 6 Note Off - Duracao: 960900 Nota: C1 Vol.: 48
Chanel 6 Note On - Duracao: 960900 Nota: C1 Vol.: 48
Chanel 3 Note Off - Duracao: 960960 Nota: C1 Vol.: 74
Chanel 3 Note On - Duracao: 960960 Nota: C1 Vol.: 59
Chanel 7 Note Off - Duracao: 961380 Nota: C1 Vol.: 52
Chanel 7 Note On - Duracao: 961380 Nota: C1 Vol.: 63
Chanel 4 Note Off - Duracao: 961500 Nota: C1 Vol.: 76
Chanel 4 Note On - Duracao: 961500 Nota: C1 Vol.: 77
Chanel 6 Note Off - Duracao: 961860 Nota: C1 Vol.: 48
Chanel 6 Note On - Duracao: 961860 Nota: C1 Vol.: 48
Chanel 9 Note Off - Duracao: 962280 Nota: C1 Vol.: 64
Chanel 9 Note On - Duracao: 962280 Nota: C1 Vol.: 60
Chanel 7 Note Off - Duracao: 962340 Nota: C1 Vol.: 63
Chanel 7 Note On - Duracao: 962340 Nota: C1 Vol.: 61
Chanel 4 Note Off - Duracao: 962460 Nota: C1 Vol.: 77
Chanel 4 Note On - Duracao: 962460 Nota: C1 Vol.: 75
Chanel 8 Note Off - Duracao: 962700 Nota: C1 Vol.: 76
Chanel 8 Note On - Duracao: 962700 Nota: C1 Vol.: 77
Chanel 6 Note Off - Duracao: 962820 Nota: C1 Vol.: 48
Chanel 6 Note On - Duracao: 962820 Nota: C1 Vol.: 50
Chanel 3 Note Off - Duracao: 962880 Nota: C1 Vol.: 59
Chanel 3 Note On - Duracao: 962880 Nota: C1 Vol.: 66
Chanel 2 Note Off - Duracao: 963240 Nota: C1 Vol.: 47
Chanel 2 Note On - Duracao: 963240 Nota: C1 Vol.: 78
Chanel 6 Note Off - Duracao: 963300 Nota: C1 Vol.: 50
Chanel 6 Note On - Duracao: 963300 Nota: C1 Vol.: 48
Chanel 7 Note Off - Duracao: 963300 Nota: C1 Vol.: 61
Chanel 7 Note On - Duracao: 963300 Nota: C1 Vol.: 46
Chanel 4 Note Off - Duracao: 963420 Nota: C1 Vol.: 75
Chanel 4 Note On - Duracao: 963420 Nota: C1 Vol.: 64
Chanel 8 Note Off - Duracao: 963660 Nota: C1 Vol.: 77
Chanel 8 Note On - Duracao: 963660 Nota: C1 Vol.: 78
Chanel 6 Note Off - Duracao: 963780 Nota: C1 Vol.: 48
Chanel 6 Note On - Duracao: 963780 Nota: C1 Vol.: 47
Chanel 3 Note Off - Duracao: 963840 Nota: C1 Vol.: 66
Chanel 3 Note On - Duracao: 963840 Nota: C1 Vol.: 90
Chanel 3 Note Off - Duracao: 963960 Nota: C1 Vol.: 90
Chanel 3 Note On - Duracao: 963960 Nota: C1 Vol.: 90
Chanel 3 Note Off - Duracao: 964080 Nota: C1 Vol.: 90
Chanel 3 Note On - Duracao: 964080 Nota: C1 Vol.: 97
Chanel 3 Note Off - Duracao: 964140 Nota: C1 Vol.: 97
Chanel 3 Note On - Duracao: 964140 Nota: C1 Vol.: 100
Chanel 3 Note Off - Duracao: 964200 Nota: C1 Vol.: 100
Chanel 3 Note On - Duracao: 964200 Nota: C1 Vol.: 100
Chanel 9 Note Off - Duracao: 964200 Nota: C1 Vol.: 60
Chanel 9 Note On - Duracao: 964200 Nota: C1 Vol.: 61
Chanel 3 Note Off - Duracao: 964260 Nota: C1 Vol.: 100
Chanel 3 Note On - Duracao: 964260 Nota: C1 Vol.: 99
Chanel 6 Note Off - Duracao: 964260 Nota: C1 Vol.: 47
Chanel 6 Note On - Duracao: 964260 Nota: C1 Vol.: 49
Chanel 3 Note Off - Duracao: 964320 Nota: C1 Vol.: 99
Chanel 3 Note On - Duracao: 964320 Nota: C1 Vol.: 99
Chanel 3 Note Off - Duracao: 964380 Nota: C1 Vol.: 99
Chanel 3 Note On - Duracao: 964380 Nota: C1 Vol.: 98
Chanel 3 Note Off - Duracao: 964440 Nota: C1 Vol.: 98
Chanel 3 Note On - Duracao: 964440 Nota: C1 Vol.: 98
Chanel 3 Note Off - Duracao: 964500 Nota: C1 Vol.: 98
Chanel 3 Note On - Duracao: 964500 Nota: C1 Vol.: 89
Chanel 3 Note Off - Duracao: 964620 Nota: C1 Vol.: 89
Chanel 3 Note On - Duracao: 964620 Nota: C1 Vol.: 45
Chanel 8 Note Off - Duracao: 964620 Nota: C1 Vol.: 78
Chanel 8 Note On - Duracao: 964620 Nota: C1 Vol.: 80
Chanel 6 Note Off - Duracao: 964740 Nota: C1 Vol.: 49
Chanel 6 Note On - Duracao: 964740 Nota: C1 Vol.: 48
Chanel 2 Note Off - Duracao: 965160 Nota: C1 Vol.: 78
Chanel 2 Note On - Duracao: 965160 Nota: C1 Vol.: 82
Chanel 6 Note Off - Duracao: 965220 Nota: C1 Vol.: 48
Chanel 6 Note On - Duracao: 965220 Nota: C1 Vol.: 51
Chanel 7 Note Off - Duracao: 965220 Nota: C1 Vol.: 46
Chanel 7 Note On - Duracao: 965220 Nota: C1 Vol.: 44
Chanel 4 Note Off - Duracao: 965340 Nota: C1 Vol.: 64
Chanel 4 Note On - Duracao: 965340 Nota: C1 Vol.: 75
Chanel 8 Note Off - Duracao: 965580 Nota: C1 Vol.: 80
Chanel 8 Note On - Duracao: 965580 Nota: C1 Vol.: 80
Chanel 6 Note Off - Duracao: 965700 Nota: C1 Vol.: 51
Chanel 6 Note On - Duracao: 965700 Nota: C1 Vol.: 50
Chanel 9 Note Off - Duracao: 966120 Nota: C1 Vol.: 61
Chanel 9 Note On - Duracao: 966120 Nota: C1 Vol.: 61
Chanel 4 Note Off - Duracao: 966300 Nota: C1 Vol.: 75
Chanel 4 Note On - Duracao: 966300 Nota: C1 Vol.: 77
Chanel 8 Note Off - Duracao: 966540 Nota: C1 Vol.: 80
Chanel 8 Note On - Duracao: 966540 Nota: C1 Vol.: 79
Chanel 6 Note Off - Duracao: 966660 Nota: C1 Vol.: 50
Chanel 6 Note On - Duracao: 966660 Nota: C1 Vol.: 42
Chanel 2 Note Off - Duracao: 967080 Nota: C1 Vol.: 82
Chanel 2 Note On - Duracao: 967080 Nota: C1 Vol.: 82
Chanel 7 Note Off - Duracao: 967140 Nota: C1 Vol.: 44
Chanel 7 Note On - Duracao: 967140 Nota: C1 Vol.: 44
Chanel 4 Note Off - Duracao: 967260 Nota: C1 Vol.: 77
Chanel 4 Note On - Duracao: 967260 Nota: C1 Vol.: 61
Chanel 8 Note Off - Duracao: 967500 Nota: C1 Vol.: 79
Chanel 8 Note On - Duracao: 967500 Nota: C1 Vol.: 82
Chanel 9 Note Off - Duracao: 968040 Nota: C1 Vol.: 61
Chanel 9 Note On - Duracao: 968040 Nota: C1 Vol.: 70
Chanel 3 Note Off - Duracao: 968460 Nota: C1 Vol.: 45
Chanel 3 Note On - Duracao: 968460 Nota: C1 Vol.: 98
Chanel 8 Note Off - Duracao: 968460 Nota: C1 Vol.: 82
Chanel 8 Note On - Duracao: 968460 Nota: C1 Vol.: 81
Chanel 3 Note Off - Duracao: 968520 Nota: C1 Vol.: 98
Chanel 3 Note On - Duracao: 968520 Nota: C1 Vol.: 99
Chanel 3 Note Off - Duracao: 968580 Nota: C1 Vol.: 99
Chanel 3 Note On - Duracao: 968580 Nota: C1 Vol.: 99
Chanel 6 Note Off - Duracao: 968580 Nota: C1 Vol.: 42
Chanel 6 Note On - Duracao: 968580 Nota: C1 Vol.: 50
Chanel 3 Note Off - Duracao: 968640 Nota: C1 Vol.: 99
Chanel 3 Note On - Duracao: 968640 Nota: C1 Vol.: 98
Chanel 3 Note Off - Duracao: 968700 Nota: C1 Vol.: 98
Chanel 3 Note On - Duracao: 968700 Nota: C1 Vol.: 97
Chanel 3 Note Off - Duracao: 968760 Nota: C1 Vol.: 97
Chanel 3 Note On - Duracao: 968760 Nota: C1 Vol.: 91
Chanel 3 Note Off - Duracao: 968880 Nota: C1 Vol.: 91
Chanel 3 Note On - Duracao: 968880 Nota: C1 Vol.: 86
Chanel 2 Note Off - Duracao: 969000 Nota: C1 Vol.: 82
Chanel 2 Note On - Duracao: 969000 Nota: C1 Vol.: 65
Chanel 3 Note Off - Duracao: 969000 Nota: C1 Vol.: 86
Chanel 3 Note On - Duracao: 969000 Nota: C1 Vol.: 90
Chanel 9 Note Off - Duracao: 969000 Nota: C1 Vol.: 70
Chanel 9 Note On - Duracao: 969000 Nota: C1 Vol.: 84
Chanel 7 Note Off - Duracao: 969060 Nota: C1 Vol.: 44
Chanel 7 Note On - Duracao: 969060 Nota: C1 Vol.: 42
Chanel 3 Note Off - Duracao: 969120 Nota: C1 Vol.: 90
Chanel 3 Note On - Duracao: 969120 Nota: C1 Vol.: 92
Chanel 3 Note Off - Duracao: 969240 Nota: C1 Vol.: 92
Chanel 3 Note On - Duracao: 969240 Nota: C1 Vol.: 77
Chanel 8 Note Off - Duracao: 969420 Nota: C1 Vol.: 81
Chanel 8 Note On - Duracao: 969420 Nota: C1 Vol.: 81
Chanel 3 Note Off - Duracao: 969480 Nota: C1 Vol.: 77
Chanel 3 Note On - Duracao: 969480 Nota: C1 Vol.: 80
Chanel 9 Note Off - Duracao: 969480 Nota: C1 Vol.: 84
Chanel 9 Note On - Duracao: 969480 Nota: C1 Vol.: 85
Chanel 3 Note Off - Duracao: 969720 Nota: C1 Vol.: 80
Chanel 3 Note On - Duracao: 969720 Nota: C1 Vol.: 84
Chanel 3 Note Off - Duracao: 969840 Nota: C1 Vol.: 84
Chanel 3 Note On - Duracao: 969840 Nota: C1 Vol.: 91
Chanel 3 Note Off - Duracao: 969960 Nota: C1 Vol.: 91
Chanel 3 Note On - Duracao: 969960 Nota: C1 Vol.: 96
Chanel 9 Note Off - Duracao: 969960 Nota: C1 Vol.: 85
Chanel 9 Note On - Duracao: 969960 Nota: C1 Vol.: 87
Chanel 3 Note Off - Duracao: 970080 Nota: C1 Vol.: 96
Chanel 3 Note On - Duracao: 970080 Nota: C1 Vol.: 92
Chanel 3 Note Off - Duracao: 970320 Nota: C1 Vol.: 92
Chanel 3 Note On - Duracao: 970320 Nota: C1 Vol.: 79
Chanel 8 Note Off - Duracao: 970380 Nota: C1 Vol.: 81
Chanel 8 Note On - Duracao: 970380 Nota: C1 Vol.: 83
Chanel 9 Note Off - Duracao: 970440 Nota: C1 Vol.: 87
Chanel 9 Note On - Duracao: 970440 Nota: C1 Vol.: 84
Chanel 6 Note Off - Duracao: 970500 Nota: C1 Vol.: 50
Chanel 6 Note On - Duracao: 970500 Nota: C1 Vol.: 81
Chanel 6 Note Off - Duracao: 970740 Nota: C1 Vol.: 81
Chanel 6 Note On - Duracao: 970740 Nota: C1 Vol.: 86
Chanel 3 Note Off - Duracao: 970800 Nota: C1 Vol.: 79
Chanel 3 Note On - Duracao: 970800 Nota: C1 Vol.: 77
Chanel 6 Note Off - Duracao: 970860 Nota: C1 Vol.: 86
Chanel 6 Note On - Duracao: 970860 Nota: C1 Vol.: 89
Chanel 9 Note Off - Duracao: 970920 Nota: C1 Vol.: 84
Chanel 9 Note On - Duracao: 970920 Nota: C1 Vol.: 82
Chanel 6 Note Off - Duracao: 970980 Nota: C1 Vol.: 89
Chanel 6 Note On - Duracao: 970980 Nota: C1 Vol.: 88
Chanel 7 Note Off - Duracao: 970980 Nota: C1 Vol.: 42
Chanel 7 Note On - Duracao: 970980 Nota: C1 Vol.: 43
Chanel 4 Note Off - Duracao: 971100 Nota: C1 Vol.: 61
Chanel 4 Note On - Duracao: 971100 Nota: C1 Vol.: 82
Chanel 6 Note Off - Duracao: 971100 Nota: C1 Vol.: 88
Chanel 6 Note On - Duracao: 971100 Nota: C1 Vol.: 89
Chanel 6 Note Off - Duracao: 971220 Nota: C1 Vol.: 89
Chanel 6 Note On - Duracao: 971220 Nota: C1 Vol.: 87
Chanel 3 Note Off - Duracao: 971280 Nota: C1 Vol.: 77
Chanel 3 Note On - Duracao: 971280 Nota: C1 Vol.: 78
Chanel 6 Note Off - Duracao: 971340 Nota: C1 Vol.: 87
Chanel 6 Note On - Duracao: 971340 Nota: C1 Vol.: 91
Chanel 8 Note Off - Duracao: 971340 Nota: C1 Vol.: 83
Chanel 8 Note On - Duracao: 971340 Nota: C1 Vol.: 76
Chanel 6 Note Off - Duracao: 971460 Nota: C1 Vol.: 91
Chanel 6 Note On - Duracao: 971460 Nota: C1 Vol.: 90
Chanel 6 Note Off - Duracao: 971580 Nota: C1 Vol.: 90
Chanel 6 Note On - Duracao: 971580 Nota: C1 Vol.: 87
Chanel 6 Note Off - Duracao: 971700 Nota: C1 Vol.: 87
Chanel 6 Note On - Duracao: 971700 Nota: C1 Vol.: 90
Chanel 6 Note Off - Duracao: 971820 Nota: C1 Vol.: 90
Chanel 6 Note On - Duracao: 971820 Nota: C1 Vol.: 90
Chanel 9 Note Off - Duracao: 971880 Nota: C1 Vol.: 82
Chanel 9 Note On - Duracao: 971880 Nota: C1 Vol.: 87
Chanel 6 Note Off - Duracao: 971940 Nota: C1 Vol.: 90
Chanel 7 Note Off - Duracao: 971940 Nota: C1 Vol.: 43
Chanel 7 Note On - Duracao: 971940 Nota: C1 Vol.: 42
Chanel 3 Note Off - Duracao: 972240 Nota: C1 Vol.: 78
Chanel 3 Note On - Duracao: 972240 Nota: C1 Vol.: 80
Chanel 9 Note Off - Duracao: 972360 Nota: C1 Vol.: 87
Chanel 9 Note On - Duracao: 972360 Nota: C1 Vol.: 66
Chanel 3 Note Off - Duracao: 972720 Nota: C1 Vol.: 80
Chanel 3 Note On - Duracao: 972720 Nota: C1 Vol.: 81
Chanel 2 Note Off - Duracao: 972840 Nota: C1 Vol.: 65
Chanel 2 Note On - Duracao: 972840 Nota: C1 Vol.: 46
Chanel 7 Note Off - Duracao: 972900 Nota: C1 Vol.: 42
Chanel 7 Note On - Duracao: 972900 Nota: C1 Vol.: 40
Chanel 4 Note Off - Duracao: 973020 Nota: C1 Vol.: 82
Chanel 4 Note On - Duracao: 973020 Nota: C1 Vol.: 80
Chanel 3 Note Off - Duracao: 973200 Nota: C1 Vol.: 81
Chanel 3 Note On - Duracao: 973200 Nota: C1 Vol.: 95
Chanel 8 Note Off - Duracao: 973260 Nota: C1 Vol.: 76
Chanel 8 Note On - Duracao: 973260 Nota: C1 Vol.: 75
Chanel 3 Note Off - Duracao: 973320 Nota: C1 Vol.: 95
Chanel 3 Note On - Duracao: 973320 Nota: C1 Vol.: 98
Chanel 3 Note Off - Duracao: 973380 Nota: C1 Vol.: 98
Chanel 3 Note On - Duracao: 973380 Nota: C1 Vol.: 96
Chanel 3 Note Off - Duracao: 973440 Nota: C1 Vol.: 96
Chanel 3 Note On - Duracao: 973440 Nota: C1 Vol.: 96
Chanel 3 Note Off - Duracao: 973500 Nota: C1 Vol.: 96
Chanel 3 Note On - Duracao: 973500 Nota: C1 Vol.: 77
Chanel 7 Note Off - Duracao: 973860 Nota: C1 Vol.: 40
Chanel 7 Note On - Duracao: 973860 Nota: C1 Vol.: 41
Chanel 3 Note Off - Duracao: 973980 Nota: C1 Vol.: 77
Chanel 3 Note On - Duracao: 973980 Nota: C1 Vol.: 60
Chanel 9 Note Off - Duracao: 974280 Nota: C1 Vol.: 66
Chanel 9 Note On - Duracao: 974280 Nota: C1 Vol.: 72
Chanel 7 Note Off - Duracao: 974340 Nota: C1 Vol.: 41
Chanel 7 Note On - Duracao: 974340 Nota: C1 Vol.: 48
Chanel 7 Note Off - Duracao: 974820 Nota: C1 Vol.: 48
Chanel 7 Note On - Duracao: 974820 Nota: C1 Vol.: 47
Chanel 4 Note Off - Duracao: 974940 Nota: C1 Vol.: 80
Chanel 4 Note On - Duracao: 974940 Nota: C1 Vol.: 63
Chanel 7 Note Off - Duracao: 975060 Nota: C1 Vol.: 47
Chanel 7 Note On - Duracao: 975060 Nota: C1 Vol.: 47
Chanel 8 Note Off - Duracao: 975180 Nota: C1 Vol.: 75
Chanel 8 Note On - Duracao: 975180 Nota: C1 Vol.: 66
Chanel 9 Note Off - Duracao: 975240 Nota: C1 Vol.: 72
Chanel 9 Note On - Duracao: 975240 Nota: C1 Vol.: 70
Chanel 7 Note Off - Duracao: 975300 Nota: C1 Vol.: 47
Chanel 7 Note On - Duracao: 975300 Nota: C1 Vol.: 47
Chanel 7 Note Off - Duracao: 975780 Nota: C1 Vol.: 47
Chanel 7 Note On - Duracao: 975780 Nota: C1 Vol.: 51
Chanel 3 Note Off - Duracao: 975900 Nota: C1 Vol.: 60
Chanel 3 Note On - Duracao: 975900 Nota: C1 Vol.: 62
Chanel 9 Note Off - Duracao: 976200 Nota: C1 Vol.: 70
Chanel 9 Note On - Duracao: 976200 Nota: C1 Vol.: 72
Chanel 7 Note Off - Duracao: 976260 Nota: C1 Vol.: 51
Chanel 7 Note On - Duracao: 976260 Nota: C1 Vol.: 48
Chanel 2 Note Off - Duracao: 976680 Nota: C1 Vol.: 46
Chanel 2 Note On - Duracao: 976680 Nota: C1 Vol.: 45
Chanel 3 Note Off - Duracao: 976860 Nota: C1 Vol.: 62
Chanel 3 Note On - Duracao: 976860 Nota: C1 Vol.: 64
Chanel 9 Note Off - Duracao: 977160 Nota: C1 Vol.: 72
Chanel 9 Note On - Duracao: 977160 Nota: C1 Vol.: 79
Chanel 9 Note Off - Duracao: 977640 Nota: C1 Vol.: 79
Chanel 9 Note On - Duracao: 977640 Nota: C1 Vol.: 69
Chanel 3 Note Off - Duracao: 977820 Nota: C1 Vol.: 64
Chanel 3 Note On - Duracao: 977820 Nota: C1 Vol.: 64
Chanel 7 Note Off - Duracao: 978180 Nota: C1 Vol.: 48
Chanel 7 Note On - Duracao: 978180 Nota: C1 Vol.: 52
Chanel 9 Note Off - Duracao: 978600 Nota: C1 Vol.: 69
Chanel 9 Note On - Duracao: 978600 Nota: C1 Vol.: 55
Chanel 3 Note Off - Duracao: 978780 Nota: C1 Vol.: 64
Chanel 3 Note On - Duracao: 978780 Nota: C1 Vol.: 63
Chanel 4 Note Off - Duracao: 978780 Nota: C1 Vol.: 63
Chanel 4 Note On - Duracao: 978780 Nota: C1 Vol.: 59
Chanel 8 Note Off - Duracao: 979020 Nota: C1 Vol.: 66
Chanel 8 Note On - Duracao: 979020 Nota: C1 Vol.: 76
Chanel 7 Note Off - Duracao: 980100 Nota: C1 Vol.: 52
Chanel 7 Note On - Duracao: 980100 Nota: C1 Vol.: 59
Chanel 2 Note Off - Duracao: 980520 Nota: C1 Vol.: 45
Chanel 2 Note On - Duracao: 980520 Nota: C1 Vol.: 46
Chanel 9 Note Off - Duracao: 980520 Nota: C1 Vol.: 55
Chanel 9 Note On - Duracao: 980520 Nota: C1 Vol.: 65
Chanel 3 Note Off - Duracao: 980700 Nota: C1 Vol.: 63
Chanel 3 Note On - Duracao: 980700 Nota: C1 Vol.: 72
Chanel 8 Note Off - Duracao: 980940 Nota: C1 Vol.: 76
Chanel 8 Note On - Duracao: 980940 Nota: C1 Vol.: 75
Chanel 3 Note Off - Duracao: 981660 Nota: C1 Vol.: 72
Chanel 3 Note On - Duracao: 981660 Nota: C1 Vol.: 75
Chanel 7 Note Off - Duracao: 982020 Nota: C1 Vol.: 59
Chanel 7 Note On - Duracao: 982020 Nota: C1 Vol.: 66
Chanel 9 Note Off - Duracao: 982440 Nota: C1 Vol.: 65
Chanel 9 Note On - Duracao: 982440 Nota: C1 Vol.: 70
Chanel 3 Note Off - Duracao: 982620 Nota: C1 Vol.: 75
Chanel 3 Note On - Duracao: 982620 Nota: C1 Vol.: 75
Chanel 4 Note Off - Duracao: 982620 Nota: C1 Vol.: 59
Chanel 4 Note On - Duracao: 982620 Nota: C1 Vol.: 77
Chanel 8 Note Off - Duracao: 982860 Nota: C1 Vol.: 75
Chanel 8 Note On - Duracao: 982860 Nota: C1 Vol.: 88
Chanel 9 Note Off - Duracao: 983400 Nota: C1 Vol.: 70
Chanel 9 Note On - Duracao: 983400 Nota: C1 Vol.: 72
Chanel 3 Note Off - Duracao: 983580 Nota: C1 Vol.: 75
Chanel 3 Note On - Duracao: 983580 Nota: C1 Vol.: 68
Chanel 4 Note Off - Duracao: 983580 Nota: C1 Vol.: 77
Chanel 4 Note On - Duracao: 983580 Nota: C1 Vol.: 78
Chanel 8 Note Off - Duracao: 983820 Nota: C1 Vol.: 88
Chanel 8 Note On - Duracao: 983820 Nota: C1 Vol.: 92
Chanel 7 Note Off - Duracao: 983940 Nota: C1 Vol.: 66
Chanel 7 Note On - Duracao: 983940 Nota: C1 Vol.: 70
Chanel 8 Note Off - Duracao: 984300 Nota: C1 Vol.: 92
Chanel 8 Note On - Duracao: 984300 Nota: C1 Vol.: 90
Chanel 2 Note Off - Duracao: 984360 Nota: C1 Vol.: 46
Chanel 2 Note On - Duracao: 984360 Nota: C1 Vol.: 50
Chanel 9 Note Off - Duracao: 984360 Nota: C1 Vol.: 72
Chanel 9 Note On - Duracao: 984360 Nota: C1 Vol.: 71
Chanel 3 Note Off - Duracao: 984540 Nota: C1 Vol.: 68
Chanel 3 Note On - Duracao: 984540 Nota: C1 Vol.: 72
Chanel 4 Note Off - Duracao: 984540 Nota: C1 Vol.: 78
Chanel 4 Note On - Duracao: 984540 Nota: C1 Vol.: 74
Chanel 8 Note Off - Duracao: 984780 Nota: C1 Vol.: 90
Chanel 8 Note On - Duracao: 984780 Nota: C1 Vol.: 89
Chanel 8 Note Off - Duracao: 985260 Nota: C1 Vol.: 89
Chanel 8 Note On - Duracao: 985260 Nota: C1 Vol.: 79
Chanel 9 Note Off - Duracao: 985320 Nota: C1 Vol.: 71
Chanel 9 Note On - Duracao: 985320 Nota: C1 Vol.: 72
Chanel 3 Note Off - Duracao: 985500 Nota: C1 Vol.: 72
Chanel 3 Note On - Duracao: 985500 Nota: C1 Vol.: 77
Chanel 4 Note Off - Duracao: 985500 Nota: C1 Vol.: 74
Chanel 4 Note On - Duracao: 985500 Nota: C1 Vol.: 67
Chanel 7 Note Off - Duracao: 985860 Nota: C1 Vol.: 70
Chanel 7 Note On - Duracao: 985860 Nota: C1 Vol.: 73
Chanel 3 Note Off - Duracao: 985980 Nota: C1 Vol.: 77
Chanel 3 Note On - Duracao: 985980 Nota: C1 Vol.: 79
Chanel 8 Note Off - Duracao: 986220 Nota: C1 Vol.: 79
Chanel 8 Note On - Duracao: 986220 Nota: C1 Vol.: 86
Chanel 2 Note Off - Duracao: 986280 Nota: C1 Vol.: 50
Chanel 2 Note On - Duracao: 986280 Nota: C1 Vol.: 50
Chanel 9 Note Off - Duracao: 986280 Nota: C1 Vol.: 72
Chanel 9 Note On - Duracao: 986280 Nota: C1 Vol.: 72
Chanel 3 Note Off - Duracao: 986460 Nota: C1 Vol.: 79
Chanel 3 Note On - Duracao: 986460 Nota: C1 Vol.: 76
Chanel 4 Note Off - Duracao: 986460 Nota: C1 Vol.: 67
Chanel 4 Note On - Duracao: 986460 Nota: C1 Vol.: 78
Chanel 8 Note Off - Duracao: 986700 Nota: C1 Vol.: 86
Chanel 8 Note On - Duracao: 986700 Nota: C1 Vol.: 81
Chanel 7 Note Off - Duracao: 986820 Nota: C1 Vol.: 73
Chanel 7 Note On - Duracao: 986820 Nota: C1 Vol.: 58
Chanel 4 Note Off - Duracao: 986940 Nota: C1 Vol.: 78
Chanel 4 Note On - Duracao: 986940 Nota: C1 Vol.: 90
Chanel 4 Note Off - Duracao: 987180 Nota: C1 Vol.: 90
Chanel 4 Note On - Duracao: 987180 Nota: C1 Vol.: 97
Chanel 9 Note Off - Duracao: 987240 Nota: C1 Vol.: 72
Chanel 9 Note On - Duracao: 987240 Nota: C1 Vol.: 67
Chanel 4 Note Off - Duracao: 987300 Nota: C1 Vol.: 97
Chanel 4 Note On - Duracao: 987300 Nota: C1 Vol.: 99
Chanel 4 Note Off - Duracao: 987360 Nota: C1 Vol.: 99
Chanel 4 Note On - Duracao: 987360 Nota: C1 Vol.: 100
Chanel 3 Note Off - Duracao: 987420 Nota: C1 Vol.: 76
Chanel 3 Note On - Duracao: 987420 Nota: C1 Vol.: 80
Chanel 4 Note Off - Duracao: 987420 Nota: C1 Vol.: 100
Chanel 4 Note On - Duracao: 987420 Nota: C1 Vol.: 100
Chanel 4 Note Off - Duracao: 987480 Nota: C1 Vol.: 100
Chanel 4 Note On - Duracao: 987480 Nota: C1 Vol.: 100
Chanel 4 Note Off - Duracao: 987540 Nota: C1 Vol.: 100
Chanel 4 Note On - Duracao: 987540 Nota: C1 Vol.: 91
Chanel 4 Note Off - Duracao: 987660 Nota: C1 Vol.: 91
Chanel 4 Note On - Duracao: 987660 Nota: C1 Vol.: 100
Chanel 8 Note Off - Duracao: 987660 Nota: C1 Vol.: 81
Chanel 8 Note On - Duracao: 987660 Nota: C1 Vol.: 84
Chanel 4 Note Off - Duracao: 987720 Nota: C1 Vol.: 100
Chanel 4 Note On - Duracao: 987720 Nota: C1 Vol.: 99
Chanel 4 Note Off - Duracao: 987780 Nota: C1 Vol.: 99
Chanel 4 Note On - Duracao: 987780 Nota: C1 Vol.: 99
Chanel 4 Note Off - Duracao: 987840 Nota: C1 Vol.: 99
Chanel 4 Note On - Duracao: 987840 Nota: C1 Vol.: 99
Chanel 3 Note Off - Duracao: 987900 Nota: C1 Vol.: 80
Chanel 3 Note On - Duracao: 987900 Nota: C1 Vol.: 81
Chanel 4 Note Off - Duracao: 987900 Nota: C1 Vol.: 99
Chanel 4 Note On - Duracao: 987900 Nota: C1 Vol.: 100
Chanel 4 Note Off - Duracao: 987960 Nota: C1 Vol.: 100
Chanel 4 Note On - Duracao: 987960 Nota: C1 Vol.: 91
Chanel 4 Note Off - Duracao: 988080 Nota: C1 Vol.: 91
Chanel 4 Note On - Duracao: 988080 Nota: C1 Vol.: 100
Chanel 4 Note Off - Duracao: 988140 Nota: C1 Vol.: 100
Chanel 4 Note On - Duracao: 988140 Nota: C1 Vol.: 100
Chanel 8 Note Off - Duracao: 988140 Nota: C1 Vol.: 84
Chanel 8 Note On - Duracao: 988140 Nota: C1 Vol.: 71
Chanel 2 Note Off - Duracao: 988200 Nota: C1 Vol.: 50
Chanel 2 Note On - Duracao: 988200 Nota: C1 Vol.: 48
Chanel 4 Note Off - Duracao: 988200 Nota: C1 Vol.: 100
Chanel 4 Note On - Duracao: 988200 Nota: C1 Vol.: 99
Chanel 4 Note Off - Duracao: 988260 Nota: C1 Vol.: 99
Chanel 4 Note On - Duracao: 988260 Nota: C1 Vol.: 100
Chanel 4 Note Off - Duracao: 988320 Nota: C1 Vol.: 100
Chanel 4 Note On - Duracao: 988320 Nota: C1 Vol.: 97
Chanel 3 Note Off - Duracao: 988380 Nota: C1 Vol.: 81
Chanel 3 Note On - Duracao: 988380 Nota: C1 Vol.: 76
Chanel 4 Note Off - Duracao: 988380 Nota: C1 Vol.: 97
Chanel 4 Note On - Duracao: 988380 Nota: C1 Vol.: 98
Chanel 4 Note Off - Duracao: 988440 Nota: C1 Vol.: 98
Chanel 4 Note On - Duracao: 988440 Nota: C1 Vol.: 98
Chanel 4 Note Off - Duracao: 988500 Nota: C1 Vol.: 98
Chanel 4 Note On - Duracao: 988500 Nota: C1 Vol.: 80
Chanel 4 Note Off - Duracao: 988740 Nota: C1 Vol.: 80
Chanel 4 Note On - Duracao: 988740 Nota: C1 Vol.: 48
Chanel 7 Note Off - Duracao: 988740 Nota: C1 Vol.: 58
Chanel 7 Note On - Duracao: 988740 Nota: C1 Vol.: 56
Chanel 8 Note Off - Duracao: 989100 Nota: C1 Vol.: 71
Chanel 8 Note On - Duracao: 989100 Nota: C1 Vol.: 59
Chanel 9 Note Off - Duracao: 989160 Nota: C1 Vol.: 67
Chanel 9 Note On - Duracao: 989160 Nota: C1 Vol.: 75
Chanel 3 Note Off - Duracao: 989340 Nota: C1 Vol.: 76
Chanel 3 Note On - Duracao: 989340 Nota: C1 Vol.: 68
Chanel 2 Note Off - Duracao: 990120 Nota: C1 Vol.: 48
Chanel 2 Note On - Duracao: 990120 Nota: C1 Vol.: 46
Chanel 9 Note Off - Duracao: 990120 Nota: C1 Vol.: 75
Chanel 9 Note On - Duracao: 990120 Nota: C1 Vol.: 75
Chanel 4 Note Off - Duracao: 990660 Nota: C1 Vol.: 48
Chanel 4 Note On - Duracao: 990660 Nota: C1 Vol.: 87
Chanel 7 Note Off - Duracao: 990660 Nota: C1 Vol.: 56
Chanel 7 Note On - Duracao: 990660 Nota: C1 Vol.: 63
Chanel 4 Note Off - Duracao: 990780 Nota: C1 Vol.: 87
Chanel 4 Note On - Duracao: 990780 Nota: C1 Vol.: 96
Chanel 4 Note Off - Duracao: 990900 Nota: C1 Vol.: 96
Chanel 4 Note On - Duracao: 990900 Nota: C1 Vol.: 99
Chanel 4 Note Off - Duracao: 990960 Nota: C1 Vol.: 99
Chanel 4 Note On - Duracao: 990960 Nota: C1 Vol.: 100
Chanel 4 Note Off - Duracao: 991020 Nota: C1 Vol.: 100
Chanel 4 Note On - Duracao: 991020 Nota: C1 Vol.: 98
Chanel 8 Note Off - Duracao: 991020 Nota: C1 Vol.: 59
Chanel 8 Note On - Duracao: 991020 Nota: C1 Vol.: 59
Chanel 4 Note Off - Duracao: 991080 Nota: C1 Vol.: 98
Chanel 4 Note On - Duracao: 991080 Nota: C1 Vol.: 100
Chanel 9 Note Off - Duracao: 991080 Nota: C1 Vol.: 75
Chanel 9 Note On - Duracao: 991080 Nota: C1 Vol.: 87
Chanel 4 Note Off - Duracao: 991140 Nota: C1 Vol.: 100
Chanel 4 Note On - Duracao: 991140 Nota: C1 Vol.: 99
Chanel 4 Note Off - Duracao: 991200 Nota: C1 Vol.: 99
Chanel 4 Note On - Duracao: 991200 Nota: C1 Vol.: 100
Chanel 3 Note Off - Duracao: 991260 Nota: C1 Vol.: 68
Chanel 3 Note On - Duracao: 991260 Nota: C1 Vol.: 71
Chanel 4 Note Off - Duracao: 991260 Nota: C1 Vol.: 100
Chanel 4 Note On - Duracao: 991260 Nota: C1 Vol.: 98
Chanel 4 Note Off - Duracao: 991320 Nota: C1 Vol.: 98
Chanel 4 Note On - Duracao: 991320 Nota: C1 Vol.: 95
Chanel 4 Note Off - Duracao: 991440 Nota: C1 Vol.: 95
Chanel 4 Note On - Duracao: 991440 Nota: C1 Vol.: 64
Chanel 9 Note Off - Duracao: 991560 Nota: C1 Vol.: 87
Chanel 9 Note On - Duracao: 991560 Nota: C1 Vol.: 80
Chanel 7 Note Off - Duracao: 991620 Nota: C1 Vol.: 63
Chanel 7 Note On - Duracao: 991620 Nota: C1 Vol.: 66
Chanel 3 Note Off - Duracao: 992220 Nota: C1 Vol.: 71
Chanel 3 Note On - Duracao: 992220 Nota: C1 Vol.: 62
Chanel 4 Note Off - Duracao: 992400 Nota: C1 Vol.: 64
Chanel 4 Note On - Duracao: 992400 Nota: C1 Vol.: 63
Chanel 9 Note Off - Duracao: 992520 Nota: C1 Vol.: 80
Chanel 9 Note On - Duracao: 992520 Nota: C1 Vol.: 87
Chanel 7 Note Off - Duracao: 992580 Nota: C1 Vol.: 66
Chanel 7 Note On - Duracao: 992580 Nota: C1 Vol.: 84
Chanel 8 Note Off - Duracao: 992940 Nota: C1 Vol.: 59
Chanel 8 Note On - Duracao: 992940 Nota: C1 Vol.: 55
Chanel 7 Note Off - Duracao: 993060 Nota: C1 Vol.: 84
Chanel 7 Note On - Duracao: 993060 Nota: C1 Vol.: 84
Chanel 4 Note Off - Duracao: 993360 Nota: C1 Vol.: 63
Chanel 4 Note On - Duracao: 993360 Nota: C1 Vol.: 96
Chanel 4 Note Off - Duracao: 993420 Nota: C1 Vol.: 96
Chanel 4 Note On - Duracao: 993420 Nota: C1 Vol.: 99
Chanel 4 Note Off - Duracao: 993480 Nota: C1 Vol.: 99
Chanel 4 Note On - Duracao: 993480 Nota: C1 Vol.: 100
Chanel 9 Note Off - Duracao: 993480 Nota: C1 Vol.: 87
Chanel 9 Note On - Duracao: 993480 Nota: C1 Vol.: 91
Chanel 4 Note Off - Duracao: 993540 Nota: C1 Vol.: 100
Chanel 4 Note On - Duracao: 993540 Nota: C1 Vol.: 98
Chanel 7 Note Off - Duracao: 993540 Nota: C1 Vol.: 84
Chanel 7 Note On - Duracao: 993540 Nota: C1 Vol.: 94
Chanel 4 Note Off - Duracao: 993600 Nota: C1 Vol.: 98
Chanel 4 Note On - Duracao: 993600 Nota: C1 Vol.: 99
Chanel 4 Note Off - Duracao: 993660 Nota: C1 Vol.: 99
Chanel 4 Note On - Duracao: 993660 Nota: C1 Vol.: 74
Chanel 7 Note Off - Duracao: 993660 Nota: C1 Vol.: 94
Chanel 7 Note On - Duracao: 993660 Nota: C1 Vol.: 94
Chanel 7 Note Off - Duracao: 993780 Nota: C1 Vol.: 94
Chanel 7 Note On - Duracao: 993780 Nota: C1 Vol.: 95
Chanel 7 Note Off - Duracao: 993900 Nota: C1 Vol.: 95
Chanel 7 Note On - Duracao: 993900 Nota: C1 Vol.: 93
Chanel 2 Note Off - Duracao: 993960 Nota: C1 Vol.: 46
Chanel 2 Note On - Duracao: 993960 Nota: C1 Vol.: 73
Chanel 9 Note Off - Duracao: 993960 Nota: C1 Vol.: 91
Chanel 9 Note On - Duracao: 993960 Nota: C1 Vol.: 91
Chanel 7 Note Off - Duracao: 994020 Nota: C1 Vol.: 93
Chanel 7 Note On - Duracao: 994020 Nota: C1 Vol.: 81
Chanel 3 Note Off - Duracao: 994140 Nota: C1 Vol.: 62
Chanel 3 Note On - Duracao: 994140 Nota: C1 Vol.: 60
Chanel 4 Note Off - Duracao: 994140 Nota: C1 Vol.: 74
Chanel 4 Note On - Duracao: 994140 Nota: C1 Vol.: 44
Chanel 7 Note Off - Duracao: 994260 Nota: C1 Vol.: 81
Chanel 7 Note On - Duracao: 994260 Nota: C1 Vol.: 80
Chanel 2 Note Off - Duracao: 994440 Nota: C1 Vol.: 73
Chanel 2 Note On - Duracao: 994440 Nota: C1 Vol.: 89
Chanel 9 Note Off - Duracao: 994440 Nota: C1 Vol.: 91
Chanel 9 Note On - Duracao: 994440 Nota: C1 Vol.: 80
Chanel 7 Note Off - Duracao: 994500 Nota: C1 Vol.: 80
Chanel 7 Note On - Duracao: 994500 Nota: C1 Vol.: 93
Chanel 7 Note Off - Duracao: 994620 Nota: C1 Vol.: 93
Chanel 7 Note On - Duracao: 994620 Nota: C1 Vol.: 98
Chanel 2 Note Off - Duracao: 994680 Nota: C1 Vol.: 89
Chanel 2 Note On - Duracao: 994680 Nota: C1 Vol.: 91
Chanel 7 Note Off - Duracao: 994680 Nota: C1 Vol.: 98
Chanel 7 Note On - Duracao: 994680 Nota: C1 Vol.: 87
Chanel 8 Note Off - Duracao: 994860 Nota: C1 Vol.: 55
Chanel 8 Note On - Duracao: 994860 Nota: C1 Vol.: 57
Chanel 2 Note Off - Duracao: 994920 Nota: C1 Vol.: 91
Chanel 2 Note On - Duracao: 994920 Nota: C1 Vol.: 92
Chanel 7 Note Off - Duracao: 994920 Nota: C1 Vol.: 87
Chanel 7 Note On - Duracao: 994920 Nota: C1 Vol.: 79
Chanel 2 Note Off - Duracao: 995160 Nota: C1 Vol.: 92
Chanel 2 Note On - Duracao: 995160 Nota: C1 Vol.: 94
Chanel 7 Note Off - Duracao: 995160 Nota: C1 Vol.: 79
Chanel 7 Note On - Duracao: 995160 Nota: C1 Vol.: 78
Chanel 2 Note Off - Duracao: 995400 Nota: C1 Vol.: 94
Chanel 2 Note On - Duracao: 995400 Nota: C1 Vol.: 95
Chanel 7 Note Off - Duracao: 995400 Nota: C1 Vol.: 78
Chanel 7 Note On - Duracao: 995400 Nota: C1 Vol.: 95
Chanel 7 Note Off - Duracao: 995520 Nota: C1 Vol.: 95
Chanel 7 Note On - Duracao: 995520 Nota: C1 Vol.: 96
Chanel 7 Note Off - Duracao: 995580 Nota: C1 Vol.: 96
Chanel 7 Note On - Duracao: 995580 Nota: C1 Vol.: 83
Chanel 2 Note Off - Duracao: 995640 Nota: C1 Vol.: 95
Chanel 2 Note On - Duracao: 995640 Nota: C1 Vol.: 94
Chanel 7 Note Off - Duracao: 995820 Nota: C1 Vol.: 83
Chanel 7 Note On - Duracao: 995820 Nota: C1 Vol.: 81
Chanel 2 Note Off - Duracao: 995880 Nota: C1 Vol.: 94
Chanel 2 Note On - Duracao: 995880 Nota: C1 Vol.: 96
Chanel 2 Note Off - Duracao: 996000 Nota: C1 Vol.: 96
Chanel 2 Note On - Duracao: 996000 Nota: C1 Vol.: 99
Chanel 3 Note Off - Duracao: 996060 Nota: C1 Vol.: 60
Chanel 3 Note On - Duracao: 996060 Nota: C1 Vol.: 47
Chanel 7 Note Off - Duracao: 996060 Nota: C1 Vol.: 81
Chanel 7 Note On - Duracao: 996060 Nota: C1 Vol.: 85
Chanel 2 Note Off - Duracao: 996120 Nota: C1 Vol.: 99
Chanel 2 Note On - Duracao: 996120 Nota: C1 Vol.: 99
Chanel 2 Note Off - Duracao: 996240 Nota: C1 Vol.: 99
Chanel 2 Note On - Duracao: 996240 Nota: C1 Vol.: 76
Chanel 7 Note Off - Duracao: 996300 Nota: C1 Vol.: 85
Chanel 7 Note On - Duracao: 996300 Nota: C1 Vol.: 65
Chanel 9 Note Off - Duracao: 996360 Nota: C1 Vol.: 80
Chanel 9 Note On - Duracao: 996360 Nota: C1 Vol.: 77
Chanel 8 Note Off - Duracao: 996780 Nota: C1 Vol.: 57
Chanel 8 Note On - Duracao: 996780 Nota: C1 Vol.: 60
Chanel 2 Note Off - Duracao: 997200 Nota: C1 Vol.: 76
Chanel 2 Note On - Duracao: 997200 Nota: C1 Vol.: 45
Chanel 7 Note Off - Duracao: 997260 Nota: C1 Vol.: 65
Chanel 7 Note On - Duracao: 997260 Nota: C1 Vol.: 76
Chanel 7 Note Off - Duracao: 997740 Nota: C1 Vol.: 76
Chanel 7 Note On - Duracao: 997740 Nota: C1 Vol.: 71
Chanel 4 Note Off - Duracao: 997980 Nota: C1 Vol.: 44
Chanel 4 Note On - Duracao: 997980 Nota: C1 Vol.: 78
Chanel 4 Note Off - Duracao: 998220 Nota: C1 Vol.: 78
Chanel 4 Note On - Duracao: 998220 Nota: C1 Vol.: 90
Chanel 7 Note Off - Duracao: 998220 Nota: C1 Vol.: 71
Chanel 7 Note On - Duracao: 998220 Nota: C1 Vol.: 67
Chanel 9 Note Off - Duracao: 998280 Nota: C1 Vol.: 77
Chanel 9 Note On - Duracao: 998280 Nota: C1 Vol.: 86
Chanel 4 Note Off - Duracao: 998340 Nota: C1 Vol.: 90
Chanel 4 Note On - Duracao: 998340 Nota: C1 Vol.: 93
Chanel 4 Note Off - Duracao: 998460 Nota: C1 Vol.: 93
Chanel 4 Note On - Duracao: 998460 Nota: C1 Vol.: 98
Chanel 4 Note Off - Duracao: 998520 Nota: C1 Vol.: 98
Chanel 7 Note Off - Duracao: 998700 Nota: C1 Vol.: 67
Chanel 7 Note On - Duracao: 998700 Nota: C1 Vol.: 56
Chanel 8 Note Off - Duracao: 998700 Nota: C1 Vol.: 60
Chanel 8 Note On - Duracao: 998700 Nota: C1 Vol.: 58
Chanel 7 Note Off - Duracao: 999660 Nota: C1 Vol.: 56
Chanel 7 Note On - Duracao: 999660 Nota: C1 Vol.: 71
Chanel 3 Note Off - Duracao: 999900 Nota: C1 Vol.: 47
Chanel 3 Note On - Duracao: 999900 Nota: C1 Vol.: 71
Chanel 7 Note Off - Duracao: 1000140 Nota: C1 Vol.: 71
Chanel 7 Note On - Duracao: 1000140 Nota: C1 Vol.: 73
Chanel 9 Note Off - Duracao: 1000200 Nota: C1 Vol.: 86
Chanel 9 Note On - Duracao: 1000200 Nota: C1 Vol.: 80
Chanel 7 Note Off - Duracao: 1000620 Nota: C1 Vol.: 73
Chanel 7 Note On - Duracao: 1000620 Nota: C1 Vol.: 66
Chanel 8 Note Off - Duracao: 1000620 Nota: C1 Vol.: 58
Chanel 8 Note On - Duracao: 1000620 Nota: C1 Vol.: 59
Chanel 3 Note Off - Duracao: 1000860 Nota: C1 Vol.: 71
Chanel 3 Note On - Duracao: 1000860 Nota: C1 Vol.: 72
Chanel 2 Note Off - Duracao: 1001040 Nota: C1 Vol.: 45
Chanel 2 Note On - Duracao: 1001040 Nota: C1 Vol.: 46
Chanel 7 Note Off - Duracao: 1001580 Nota: C1 Vol.: 66
Chanel 7 Note On - Duracao: 1001580 Nota: C1 Vol.: 68
Chanel 3 Note Off - Duracao: 1001820 Nota: C1 Vol.: 72
Chanel 3 Note On - Duracao: 1001820 Nota: C1 Vol.: 63
Chanel 7 Note Off - Duracao: 1002060 Nota: C1 Vol.: 68
Chanel 7 Note On - Duracao: 1002060 Nota: C1 Vol.: 76
Chanel 9 Note Off - Duracao: 1002120 Nota: C1 Vol.: 80
Chanel 9 Note On - Duracao: 1002120 Nota: C1 Vol.: 88
Chanel 7 Note Off - Duracao: 1002540 Nota: C1 Vol.: 76
Chanel 7 Note On - Duracao: 1002540 Nota: C1 Vol.: 91
Chanel 8 Note Off - Duracao: 1002540 Nota: C1 Vol.: 59
Chanel 8 Note On - Duracao: 1002540 Nota: C1 Vol.: 67
Chanel 7 Note Off - Duracao: 1002780 Nota: C1 Vol.: 91
Chanel 7 Note On - Duracao: 1002780 Nota: C1 Vol.: 82
Chanel 7 Note Off - Duracao: 1003260 Nota: C1 Vol.: 82
Chanel 7 Note On - Duracao: 1003260 Nota: C1 Vol.: 83
Chanel 8 Note Off - Duracao: 1003500 Nota: C1 Vol.: 67
Chanel 8 Note On - Duracao: 1003500 Nota: C1 Vol.: 69
Chanel 3 Note Off - Duracao: 1003740 Nota: C1 Vol.: 63
Chanel 3 Note On - Duracao: 1003740 Nota: C1 Vol.: 76
Chanel 8 Note Off - Duracao: 1003980 Nota: C1 Vol.: 69
Chanel 8 Note On - Duracao: 1003980 Nota: C1 Vol.: 64
Chanel 9 Note Off - Duracao: 1004040 Nota: C1 Vol.: 88
Chanel 9 Note On - Duracao: 1004040 Nota: C1 Vol.: 85
Chanel 7 Note Off - Duracao: 1004220 Nota: C1 Vol.: 83
Chanel 7 Note On - Duracao: 1004220 Nota: C1 Vol.: 79
Chanel 3 Note Off - Duracao: 1004700 Nota: C1 Vol.: 76
Chanel 3 Note On - Duracao: 1004700 Nota: C1 Vol.: 67
Chanel 2 Note Off - Duracao: 1004880 Nota: C1 Vol.: 46
Chanel 2 Note On - Duracao: 1004880 Nota: C1 Vol.: 45
Chanel 8 Note Off - Duracao: 1004940 Nota: C1 Vol.: 64
Chanel 8 Note On - Duracao: 1004940 Nota: C1 Vol.: 63
Chanel 7 Note Off - Duracao: 1005180 Nota: C1 Vol.: 79
Chanel 7 Note On - Duracao: 1005180 Nota: C1 Vol.: 86
Chanel 3 Note Off - Duracao: 1005660 Nota: C1 Vol.: 67
Chanel 3 Note On - Duracao: 1005660 Nota: C1 Vol.: 46
Chanel 8 Note Off - Duracao: 1005900 Nota: C1 Vol.: 63
Chanel 8 Note On - Duracao: 1005900 Nota: C1 Vol.: 55
Chanel 9 Note Off - Duracao: 1005960 Nota: C1 Vol.: 85
Chanel 9 Note On - Duracao: 1005960 Nota: C1 Vol.: 87
Chanel 7 Note Off - Duracao: 1006140 Nota: C1 Vol.: 86
Chanel 7 Note On - Duracao: 1006140 Nota: C1 Vol.: 88
Chanel 9 Note Off - Duracao: 1006920 Nota: C1 Vol.: 87
Chanel 9 Note On - Duracao: 1006920 Nota: C1 Vol.: 75
Chanel 7 Note Off - Duracao: 1007100 Nota: C1 Vol.: 88
Chanel 7 Note On - Duracao: 1007100 Nota: C1 Vol.: 87
Chanel 7 Note Off - Duracao: 1007580 Nota: C1 Vol.: 87
Chanel 7 Note On - Duracao: 1007580 Nota: C1 Vol.: 83
Chanel 8 Note Off - Duracao: 1007820 Nota: C1 Vol.: 55
Chanel 8 Note On - Duracao: 1007820 Nota: C1 Vol.: 54
Chanel 7 Note Off - Duracao: 1008060 Nota: C1 Vol.: 83
Chanel 7 Note On - Duracao: 1008060 Nota: C1 Vol.: 83
Chanel 7 Note Off - Duracao: 1008540 Nota: C1 Vol.: 83
Chanel 7 Note On - Duracao: 1008540 Nota: C1 Vol.: 74
Chanel 2 Note Off - Duracao: 1008720 Nota: C1 Vol.: 45
Chanel 2 Note On - Duracao: 1008720 Nota: C1 Vol.: 44
Chanel 9 Note Off - Duracao: 1008840 Nota: C1 Vol.: 75
Chanel 9 Note On - Duracao: 1008840 Nota: C1 Vol.: 68
Chanel 3 Note Off - Duracao: 1009500 Nota: C1 Vol.: 46
Chanel 3 Note On - Duracao: 1009500 Nota: C1 Vol.: 46
Chanel 8 Note Off - Duracao: 1009740 Nota: C1 Vol.: 54
Chanel 8 Note On - Duracao: 1009740 Nota: C1 Vol.: 51
Chanel 7 Note Off - Duracao: 1010460 Nota: C1 Vol.: 74
Chanel 7 Note On - Duracao: 1010460 Nota: C1 Vol.: 75
Chanel 8 Note Off - Duracao: 1011660 Nota: C1 Vol.: 51
Chanel 8 Note On - Duracao: 1011660 Nota: C1 Vol.: 52
Chanel 7 Note Off - Duracao: 1012380 Nota: C1 Vol.: 75
Chanel 7 Note On - Duracao: 1012380 Nota: C1 Vol.: 80
Chanel 2 Note Off - Duracao: 1012560 Nota: C1 Vol.: 44
Chanel 2 Note On - Duracao: 1012560 Nota: C1 Vol.: 46
Chanel 9 Note Off - Duracao: 1012680 Nota: C1 Vol.: 68
Chanel 9 Note On - Duracao: 1012680 Nota: C1 Vol.: 79
Chanel 3 Note Off - Duracao: 1013340 Nota: C1 Vol.: 46
Chanel 3 Note On - Duracao: 1013340 Nota: C1 Vol.: 44
Chanel 8 Note Off - Duracao: 1013580 Nota: C1 Vol.: 52
Chanel 8 Note On - Duracao: 1013580 Nota: C1 Vol.: 49
Chanel 7 Note Off - Duracao: 1014300 Nota: C1 Vol.: 80
Chanel 7 Note On - Duracao: 1014300 Nota: C1 Vol.: 75
Chanel 9 Note Off - Duracao: 1014600 Nota: C1 Vol.: 79
Chanel 9 Note On - Duracao: 1014600 Nota: C1 Vol.: 86
Chanel 7 Note Off - Duracao: 1016220 Nota: C1 Vol.: 75
Chanel 7 Note On - Duracao: 1016220 Nota: C1 Vol.: 77
Chanel 2 Note Off - Duracao: 1016400 Nota: C1 Vol.: 46
Chanel 2 Note On - Duracao: 1016400 Nota: C1 Vol.: 44
Chanel 9 Note Off - Duracao: 1016520 Nota: C1 Vol.: 86
Chanel 9 Note On - Duracao: 1016520 Nota: C1 Vol.: 90
Chanel 3 Note Off - Duracao: 1017180 Nota: C1 Vol.: 44
Chanel 3 Note On - Duracao: 1017180 Nota: C1 Vol.: 41
Chanel 7 Note Off - Duracao: 1017180 Nota: C1 Vol.: 77
Chanel 7 Note On - Duracao: 1017180 Nota: C1 Vol.: 66
Chanel 8 Note Off - Duracao: 1017420 Nota: C1 Vol.: 49
Chanel 8 Note On - Duracao: 1017420 Nota: C1 Vol.: 50
Chanel 9 Note Off - Duracao: 1018440 Nota: C1 Vol.: 90
Chanel 9 Note On - Duracao: 1018440 Nota: C1 Vol.: 91
Chanel 7 Note Off - Duracao: 1019100 Nota: C1 Vol.: 66
Chanel 7 Note On - Duracao: 1019100 Nota: C1 Vol.: 88
Chanel 7 Note Off - Duracao: 1019580 Nota: C1 Vol.: 88
Chanel 7 Note On - Duracao: 1019580 Nota: C1 Vol.: 72
Chanel 2 Note Off - Duracao: 1020240 Nota: C1 Vol.: 44
Chanel 2 Note On - Duracao: 1020240 Nota: C1 Vol.: 43
Chanel 9 Note Off - Duracao: 1020360 Nota: C1 Vol.: 91
Chanel 9 Note On - Duracao: 1020360 Nota: C1 Vol.: 88
Chanel 3 Note Off - Duracao: 1021020 Nota: C1 Vol.: 41
Chanel 3 Note On - Duracao: 1021020 Nota: C1 Vol.: 57
Chanel 8 Note Off - Duracao: 1021260 Nota: C1 Vol.: 50
Chanel 8 Note On - Duracao: 1021260 Nota: C1 Vol.: 55
Chanel 7 Note Off - Duracao: 1021500 Nota: C1 Vol.: 72
Chanel 7 Note On - Duracao: 1021500 Nota: C1 Vol.: 84
Chanel 3 Note Off - Duracao: 1021980 Nota: C1 Vol.: 57
Chanel 3 Note On - Duracao: 1021980 Nota: C1 Vol.: 57
Chanel 9 Note Off - Duracao: 1022280 Nota: C1 Vol.: 88
Chanel 9 Note On - Duracao: 1022280 Nota: C1 Vol.: 90
Chanel 3 Note Off - Duracao: 1022460 Nota: C1 Vol.: 57
Chanel 3 Note On - Duracao: 1022460 Nota: C1 Vol.: 53
Chanel 7 Note Off - Duracao: 1022460 Nota: C1 Vol.: 84
Chanel 7 Note On - Duracao: 1022460 Nota: C1 Vol.: 91
Chanel 3 Note Off - Duracao: 1022940 Nota: C1 Vol.: 53
Chanel 3 Note On - Duracao: 1022940 Nota: C1 Vol.: 55
Chanel 7 Note Off - Duracao: 1022940 Nota: C1 Vol.: 91
Chanel 7 Note On - Duracao: 1022940 Nota: C1 Vol.: 80
Chanel 8 Note Off - Duracao: 1023180 Nota: C1 Vol.: 55
Chanel 8 Note On - Duracao: 1023180 Nota: C1 Vol.: 59
Chanel 3 Note Off - Duracao: 1023420 Nota: C1 Vol.: 55
Chanel 3 Note On - Duracao: 1023420 Nota: C1 Vol.: 61
Chanel 3 Note Off - Duracao: 1023900 Nota: C1 Vol.: 61
Chanel 3 Note On - Duracao: 1023900 Nota: C1 Vol.: 63
Chanel 2 Note Off - Duracao: 1024080 Nota: C1 Vol.: 43
Chanel 2 Note On - Duracao: 1024080 Nota: C1 Vol.: 47
Chanel 9 Note Off - Duracao: 1024200 Nota: C1 Vol.: 90
Chanel 9 Note On - Duracao: 1024200 Nota: C1 Vol.: 91
Chanel 3 Note Off - Duracao: 1024380 Nota: C1 Vol.: 63
Chanel 3 Note On - Duracao: 1024380 Nota: C1 Vol.: 62
Chanel 3 Note Off - Duracao: 1024860 Nota: C1 Vol.: 62
Chanel 3 Note On - Duracao: 1024860 Nota: C1 Vol.: 64
Chanel 7 Note Off - Duracao: 1024860 Nota: C1 Vol.: 80
Chanel 7 Note On - Duracao: 1024860 Nota: C1 Vol.: 84
Chanel 3 Note Off - Duracao: 1025100 Nota: C1 Vol.: 64
Chanel 3 Note On - Duracao: 1025100 Nota: C1 Vol.: 61
Chanel 8 Note Off - Duracao: 1025100 Nota: C1 Vol.: 59
Chanel 8 Note On - Duracao: 1025100 Nota: C1 Vol.: 61
Chanel 3 Note Off - Duracao: 1025580 Nota: C1 Vol.: 61
Chanel 3 Note On - Duracao: 1025580 Nota: C1 Vol.: 61
Chanel 3 Note Off - Duracao: 1025820 Nota: C1 Vol.: 61
Chanel 3 Note On - Duracao: 1025820 Nota: C1 Vol.: 62
Chanel 7 Note Off - Duracao: 1025820 Nota: C1 Vol.: 84
Chanel 7 Note On - Duracao: 1025820 Nota: C1 Vol.: 70
Chanel 3 Note Off - Duracao: 1026060 Nota: C1 Vol.: 62
Chanel 3 Note On - Duracao: 1026060 Nota: C1 Vol.: 63
Chanel 9 Note Off - Duracao: 1026120 Nota: C1 Vol.: 91
Chanel 9 Note On - Duracao: 1026120 Nota: C1 Vol.: 85
Chanel 3 Note Off - Duracao: 1026300 Nota: C1 Vol.: 63
Chanel 3 Note On - Duracao: 1026300 Nota: C1 Vol.: 65
Chanel 3 Note Off - Duracao: 1026780 Nota: C1 Vol.: 65
Chanel 3 Note On - Duracao: 1026780 Nota: C1 Vol.: 66
Chanel 8 Note Off - Duracao: 1027020 Nota: C1 Vol.: 61
Chanel 8 Note On - Duracao: 1027020 Nota: C1 Vol.: 62
Chanel 3 Note Off - Duracao: 1027260 Nota: C1 Vol.: 66
Chanel 3 Note On - Duracao: 1027260 Nota: C1 Vol.: 54
Chanel 7 Note Off - Duracao: 1027740 Nota: C1 Vol.: 70
Chanel 7 Note On - Duracao: 1027740 Nota: C1 Vol.: 68
Chanel 2 Note Off - Duracao: 1027920 Nota: C1 Vol.: 47
Chanel 2 Note On - Duracao: 1027920 Nota: C1 Vol.: 44
Chanel 9 Note Off - Duracao: 1028040 Nota: C1 Vol.: 85
Chanel 9 Note On - Duracao: 1028040 Nota: C1 Vol.: 85
Chanel 3 Note Off - Duracao: 1028220 Nota: C1 Vol.: 54
Chanel 3 Note On - Duracao: 1028220 Nota: C1 Vol.: 43
Chanel 8 Note Off - Duracao: 1028940 Nota: C1 Vol.: 62
Chanel 8 Note On - Duracao: 1028940 Nota: C1 Vol.: 60
Chanel 7 Note Off - Duracao: 1029660 Nota: C1 Vol.: 68
Chanel 7 Note On - Duracao: 1029660 Nota: C1 Vol.: 69
Chanel 9 Note Off - Duracao: 1029960 Nota: C1 Vol.: 85
Chanel 9 Note On - Duracao: 1029960 Nota: C1 Vol.: 90
Chanel 8 Note Off - Duracao: 1030860 Nota: C1 Vol.: 60
Chanel 8 Note On - Duracao: 1030860 Nota: C1 Vol.: 60
Chanel 9 Note Off - Duracao: 1030920 Nota: C1 Vol.: 90
Chanel 9 Note On - Duracao: 1030920 Nota: C1 Vol.: 77
Chanel 7 Note Off - Duracao: 1031580 Nota: C1 Vol.: 69
Chanel 7 Note On - Duracao: 1031580 Nota: C1 Vol.: 62
Chanel 2 Note Off - Duracao: 1031760 Nota: C1 Vol.: 44
Chanel 2 Note On - Duracao: 1031760 Nota: C1 Vol.: 46
Chanel 3 Note Off - Duracao: 1032060 Nota: C1 Vol.: 43
Chanel 3 Note On - Duracao: 1032060 Nota: C1 Vol.: 42
Chanel 8 Note Off - Duracao: 1032780 Nota: C1 Vol.: 60
Chanel 8 Note On - Duracao: 1032780 Nota: C1 Vol.: 64
Chanel 9 Note Off - Duracao: 1032840 Nota: C1 Vol.: 77
Chanel 9 Note On - Duracao: 1032840 Nota: C1 Vol.: 63
Chanel 7 Note Off - Duracao: 1033500 Nota: C1 Vol.: 62
Chanel 7 Note On - Duracao: 1033500 Nota: C1 Vol.: 58
Chanel 8 Note Off - Duracao: 1034700 Nota: C1 Vol.: 64
Chanel 8 Note On - Duracao: 1034700 Nota: C1 Vol.: 63
Chanel 2 Note Off - Duracao: 1035600 Nota: C1 Vol.: 46
Chanel 2 Note On - Duracao: 1035600 Nota: C1 Vol.: 69
Chanel 3 Note Off - Duracao: 1035900 Nota: C1 Vol.: 42
Chanel 3 Note On - Duracao: 1035900 Nota: C1 Vol.: 61
Chanel 8 Note Off - Duracao: 1036620 Nota: C1 Vol.: 63
Chanel 8 Note On - Duracao: 1036620 Nota: C1 Vol.: 61
Chanel 9 Note Off - Duracao: 1036680 Nota: C1 Vol.: 63
Chanel 9 Note On - Duracao: 1036680 Nota: C1 Vol.: 68
Chanel 7 Note Off - Duracao: 1037340 Nota: C1 Vol.: 58
Chanel 7 Note On - Duracao: 1037340 Nota: C1 Vol.: 62
Chanel 3 Note Off - Duracao: 1037820 Nota: C1 Vol.: 61
Chanel 3 Note On - Duracao: 1037820 Nota: C1 Vol.: 60
Chanel 8 Note Off - Duracao: 1038540 Nota: C1 Vol.: 61
Chanel 8 Note On - Duracao: 1038540 Nota: C1 Vol.: 83
Chanel 9 Note Off - Duracao: 1038600 Nota: C1 Vol.: 68
Chanel 9 Note On - Duracao: 1038600 Nota: C1 Vol.: 70
Chanel 8 Note Off - Duracao: 1039020 Nota: C1 Vol.: 83
Chanel 8 Note On - Duracao: 1039020 Nota: C1 Vol.: 70
Chanel 7 Note Off - Duracao: 1039260 Nota: C1 Vol.: 62
Chanel 7 Note On - Duracao: 1039260 Nota: C1 Vol.: 58
Chanel 2 Note Off - Duracao: 1039440 Nota: C1 Vol.: 69
Chanel 2 Note On - Duracao: 1039440 Nota: C1 Vol.: 91
Chanel 3 Note Off - Duracao: 1039740 Nota: C1 Vol.: 60
Chanel 3 Note On - Duracao: 1039740 Nota: C1 Vol.: 43
Chanel 8 Note Off - Duracao: 1039980 Nota: C1 Vol.: 70
Chanel 8 Note On - Duracao: 1039980 Nota: C1 Vol.: 77
Chanel 8 Note Off - Duracao: 1040460 Nota: C1 Vol.: 77
Chanel 8 Note On - Duracao: 1040460 Nota: C1 Vol.: 75
Chanel 9 Note Off - Duracao: 1040520 Nota: C1 Vol.: 70
Chanel 9 Note On - Duracao: 1040520 Nota: C1 Vol.: 84
Chanel 9 Note Off - Duracao: 1041000 Nota: C1 Vol.: 84
Chanel 9 Note On - Duracao: 1041000 Nota: C1 Vol.: 79
Chanel 7 Note Off - Duracao: 1041180 Nota: C1 Vol.: 58
Chanel 7 Note On - Duracao: 1041180 Nota: C1 Vol.: 60
Chanel 2 Note Off - Duracao: 1041360 Nota: C1 Vol.: 91
Chanel 2 Note On - Duracao: 1041360 Nota: C1 Vol.: 92
Chanel 8 Note Off - Duracao: 1041420 Nota: C1 Vol.: 75
Chanel 8 Note On - Duracao: 1041420 Nota: C1 Vol.: 63
Chanel 9 Note Off - Duracao: 1041960 Nota: C1 Vol.: 79
Chanel 9 Note On - Duracao: 1041960 Nota: C1 Vol.: 79
Chanel 7 Note Off - Duracao: 1043100 Nota: C1 Vol.: 60
Chanel 7 Note On - Duracao: 1043100 Nota: C1 Vol.: 63
Chanel 8 Note Off - Duracao: 1043340 Nota: C1 Vol.: 63
Chanel 8 Note On - Duracao: 1043340 Nota: C1 Vol.: 60
Chanel 3 Note Off - Duracao: 1043580 Nota: C1 Vol.: 43
Chanel 3 Note On - Duracao: 1043580 Nota: C1 Vol.: 51
Chanel 9 Note Off - Duracao: 1043880 Nota: C1 Vol.: 79
Chanel 9 Note On - Duracao: 1043880 Nota: C1 Vol.: 83
Chanel 9 Note Off - Duracao: 1044840 Nota: C1 Vol.: 83
Chanel 9 Note On - Duracao: 1044840 Nota: C1 Vol.: 90
Chanel 7 Note Off - Duracao: 1045020 Nota: C1 Vol.: 63
Chanel 7 Note On - Duracao: 1045020 Nota: C1 Vol.: 65
Chanel 2 Note Off - Duracao: 1045200 Nota: C1 Vol.: 92
Chanel 2 Note On - Duracao: 1045200 Nota: C1 Vol.: 93
Chanel 8 Note Off - Duracao: 1045260 Nota: C1 Vol.: 60
Chanel 8 Note On - Duracao: 1045260 Nota: C1 Vol.: 62
Chanel 9 Note Off - Duracao: 1045800 Nota: C1 Vol.: 90
Chanel 9 Note On - Duracao: 1045800 Nota: C1 Vol.: 87
Chanel 9 Note Off - Duracao: 1046760 Nota: C1 Vol.: 87
Chanel 9 Note On - Duracao: 1046760 Nota: C1 Vol.: 85
Chanel 7 Note Off - Duracao: 1046940 Nota: C1 Vol.: 65
Chanel 7 Note On - Duracao: 1046940 Nota: C1 Vol.: 64
Chanel 8 Note Off - Duracao: 1047180 Nota: C1 Vol.: 62
Chanel 8 Note On - Duracao: 1047180 Nota: C1 Vol.: 71
Chanel 3 Note Off - Duracao: 1047420 Nota: C1 Vol.: 51
Chanel 3 Note On - Duracao: 1047420 Nota: C1 Vol.: 82
Chanel 8 Note Off - Duracao: 1047660 Nota: C1 Vol.: 71
Chanel 8 Note On - Duracao: 1047660 Nota: C1 Vol.: 68
Chanel 9 Note Off - Duracao: 1047720 Nota: C1 Vol.: 85
Chanel 9 Note On - Duracao: 1047720 Nota: C1 Vol.: 85
Chanel 3 Note Off - Duracao: 1047900 Nota: C1 Vol.: 82
Chanel 3 Note On - Duracao: 1047900 Nota: C1 Vol.: 70
Chanel 8 Note Off - Duracao: 1048140 Nota: C1 Vol.: 68
Chanel 8 Note On - Duracao: 1048140 Nota: C1 Vol.: 70
Chanel 8 Note Off - Duracao: 1048620 Nota: C1 Vol.: 70
Chanel 8 Note On - Duracao: 1048620 Nota: C1 Vol.: 74
Chanel 9 Note Off - Duracao: 1048680 Nota: C1 Vol.: 85
Chanel 9 Note On - Duracao: 1048680 Nota: C1 Vol.: 76
Chanel 3 Note Off - Duracao: 1048860 Nota: C1 Vol.: 70
Chanel 3 Note On - Duracao: 1048860 Nota: C1 Vol.: 44
Chanel 7 Note Off - Duracao: 1048860 Nota: C1 Vol.: 64
Chanel 7 Note On - Duracao: 1048860 Nota: C1 Vol.: 65
Chanel 2 Note Off - Duracao: 1049040 Nota: C1 Vol.: 93
Chanel 2 Note On - Duracao: 1049040 Nota: C1 Vol.: 93
Chanel 8 Note Off - Duracao: 1049100 Nota: C1 Vol.: 74
Chanel 8 Note On - Duracao: 1049100 Nota: C1 Vol.: 69
Chanel 8 Note Off - Duracao: 1050060 Nota: C1 Vol.: 69
Chanel 8 Note On - Duracao: 1050060 Nota: C1 Vol.: 79
Chanel 8 Note Off - Duracao: 1050540 Nota: C1 Vol.: 79
Chanel 8 Note On - Duracao: 1050540 Nota: C1 Vol.: 81
Chanel 9 Note Off - Duracao: 1050600 Nota: C1 Vol.: 76
Chanel 9 Note On - Duracao: 1050600 Nota: C1 Vol.: 75
Chanel 7 Note Off - Duracao: 1050780 Nota: C1 Vol.: 65
Chanel 7 Note On - Duracao: 1050780 Nota: C1 Vol.: 65
Chanel 8 Note Off - Duracao: 1050780 Nota: C1 Vol.: 81
Chanel 8 Note On - Duracao: 1050780 Nota: C1 Vol.: 81
Chanel 8 Note Off - Duracao: 1051020 Nota: C1 Vol.: 81
Chanel 8 Note On - Duracao: 1051020 Nota: C1 Vol.: 79
Chanel 8 Note Off - Duracao: 1051260 Nota: C1 Vol.: 79
Chanel 8 Note On - Duracao: 1051260 Nota: C1 Vol.: 80
Chanel 8 Note Off - Duracao: 1051500 Nota: C1 Vol.: 80
Chanel 8 Note On - Duracao: 1051500 Nota: C1 Vol.: 85
Chanel 8 Note Off - Duracao: 1051740 Nota: C1 Vol.: 85
Chanel 8 Note On - Duracao: 1051740 Nota: C1 Vol.: 88
Chanel 8 Note Off - Duracao: 1051860 Nota: C1 Vol.: 88
Chanel 8 Note On - Duracao: 1051860 Nota: C1 Vol.: 88
Chanel 8 Note Off - Duracao: 1052100 Nota: C1 Vol.: 88
Chanel 8 Note On - Duracao: 1052100 Nota: C1 Vol.: 84
Chanel 8 Note Off - Duracao: 1052340 Nota: C1 Vol.: 84
Chanel 8 Note On - Duracao: 1052340 Nota: C1 Vol.: 93
Chanel 8 Note Off - Duracao: 1052460 Nota: C1 Vol.: 93
Chanel 8 Note On - Duracao: 1052460 Nota: C1 Vol.: 70
Chanel 9 Note Off - Duracao: 1052520 Nota: C1 Vol.: 75
Chanel 9 Note On - Duracao: 1052520 Nota: C1 Vol.: 82
Chanel 3 Note Off - Duracao: 1052700 Nota: C1 Vol.: 44
Chanel 3 Note On - Duracao: 1052700 Nota: C1 Vol.: 45
Chanel 7 Note Off - Duracao: 1052700 Nota: C1 Vol.: 65
Chanel 7 Note On - Duracao: 1052700 Nota: C1 Vol.: 65
Chanel 2 Note Off - Duracao: 1052880 Nota: C1 Vol.: 93
Chanel 2 Note On - Duracao: 1052880 Nota: C1 Vol.: 93
Chanel 8 Note Off - Duracao: 1052940 Nota: C1 Vol.: 70
Chanel 8 Note On - Duracao: 1052940 Nota: C1 Vol.: 62
Chanel 9 Note Off - Duracao: 1053480 Nota: C1 Vol.: 82
Chanel 9 Note On - Duracao: 1053480 Nota: C1 Vol.: 86
Chanel 8 Note Off - Duracao: 1053900 Nota: C1 Vol.: 62
Chanel 8 Note On - Duracao: 1053900 Nota: C1 Vol.: 67
Chanel 8 Note Off - Duracao: 1054380 Nota: C1 Vol.: 67
Chanel 8 Note On - Duracao: 1054380 Nota: C1 Vol.: 65
Chanel 9 Note Off - Duracao: 1054440 Nota: C1 Vol.: 86
Chanel 9 Note On - Duracao: 1054440 Nota: C1 Vol.: 90
Chanel 7 Note Off - Duracao: 1054620 Nota: C1 Vol.: 65
Chanel 7 Note On - Duracao: 1054620 Nota: C1 Vol.: 58
Chanel 8 Note Off - Duracao: 1054620 Nota: C1 Vol.: 65
Chanel 8 Note On - Duracao: 1054620 Nota: C1 Vol.: 63
Chanel 8 Note Off - Duracao: 1054860 Nota: C1 Vol.: 63
Chanel 8 Note On - Duracao: 1054860 Nota: C1 Vol.: 60
Chanel 8 Note Off - Duracao: 1055340 Nota: C1 Vol.: 60
Chanel 8 Note On - Duracao: 1055340 Nota: C1 Vol.: 59
Chanel 9 Note Off - Duracao: 1055400 Nota: C1 Vol.: 90
Chanel 9 Note On - Duracao: 1055400 Nota: C1 Vol.: 92
Chanel 8 Note Off - Duracao: 1055820 Nota: C1 Vol.: 59
Chanel 8 Note On - Duracao: 1055820 Nota: C1 Vol.: 65
Chanel 9 Note Off - Duracao: 1055880 Nota: C1 Vol.: 92
Chanel 9 Note On - Duracao: 1055880 Nota: C1 Vol.: 91
Chanel 8 Note Off - Duracao: 1056300 Nota: C1 Vol.: 65
Chanel 8 Note On - Duracao: 1056300 Nota: C1 Vol.: 79
Chanel 3 Note Off - Duracao: 1056540 Nota: C1 Vol.: 45
Chanel 3 Note On - Duracao: 1056540 Nota: C1 Vol.: 44
Chanel 7 Note Off - Duracao: 1056540 Nota: C1 Vol.: 58
Chanel 7 Note On - Duracao: 1056540 Nota: C1 Vol.: 61
Chanel 8 Note Off - Duracao: 1056540 Nota: C1 Vol.: 79
Chanel 8 Note On - Duracao: 1056540 Nota: C1 Vol.: 83
Chanel 2 Note Off - Duracao: 1056720 Nota: C1 Vol.: 93
Chanel 2 Note On - Duracao: 1056720 Nota: C1 Vol.: 92
Chanel 8 Note Off - Duracao: 1056780 Nota: C1 Vol.: 83
Chanel 8 Note On - Duracao: 1056780 Nota: C1 Vol.: 69
Chanel 9 Note Off - Duracao: 1056840 Nota: C1 Vol.: 91
Chanel 9 Note On - Duracao: 1056840 Nota: C1 Vol.: 80
Chanel 8 Note Off - Duracao: 1057260 Nota: C1 Vol.: 69
Chanel 8 Note On - Duracao: 1057260 Nota: C1 Vol.: 65
Chanel 8 Note Off - Duracao: 1057500 Nota: C1 Vol.: 65
Chanel 8 Note On - Duracao: 1057500 Nota: C1 Vol.: 65
Chanel 8 Note Off - Duracao: 1057740 Nota: C1 Vol.: 65
Chanel 8 Note On - Duracao: 1057740 Nota: C1 Vol.: 64
Chanel 9 Note Off - Duracao: 1057800 Nota: C1 Vol.: 80
Chanel 9 Note On - Duracao: 1057800 Nota: C1 Vol.: 79
Chanel 8 Note Off - Duracao: 1057980 Nota: C1 Vol.: 64
Chanel 8 Note On - Duracao: 1057980 Nota: C1 Vol.: 62
Chanel 7 Note Off - Duracao: 1058460 Nota: C1 Vol.: 61
Chanel 7 Note On - Duracao: 1058460 Nota: C1 Vol.: 57
Chanel 8 Note Off - Duracao: 1058460 Nota: C1 Vol.: 62
Chanel 8 Note On - Duracao: 1058460 Nota: C1 Vol.: 62
Chanel 9 Note Off - Duracao: 1058760 Nota: C1 Vol.: 79
Chanel 9 Note On - Duracao: 1058760 Nota: C1 Vol.: 79
Chanel 8 Note Off - Duracao: 1058940 Nota: C1 Vol.: 62
Chanel 8 Note On - Duracao: 1058940 Nota: C1 Vol.: 64
Chanel 9 Note Off - Duracao: 1059720 Nota: C1 Vol.: 79
Chanel 9 Note On - Duracao: 1059720 Nota: C1 Vol.: 85
Chanel 3 Note Off - Duracao: 1060380 Nota: C1 Vol.: 44
Chanel 3 Note On - Duracao: 1060380 Nota: C1 Vol.: 54
Chanel 7 Note Off - Duracao: 1060380 Nota: C1 Vol.: 57
Chanel 7 Note On - Duracao: 1060380 Nota: C1 Vol.: 65
Chanel 2 Note Off - Duracao: 1060560 Nota: C1 Vol.: 92
Chanel 2 Note On - Duracao: 1060560 Nota: C1 Vol.: 92
Chanel 9 Note Off - Duracao: 1060680 Nota: C1 Vol.: 85
Chanel 9 Note On - Duracao: 1060680 Nota: C1 Vol.: 86
Chanel 8 Note Off - Duracao: 1060860 Nota: C1 Vol.: 64
Chanel 8 Note On - Duracao: 1060860 Nota: C1 Vol.: 83
Chanel 9 Note Off - Duracao: 1061160 Nota: C1 Vol.: 86
Chanel 9 Note On - Duracao: 1061160 Nota: C1 Vol.: 87
Chanel 7 Note Off - Duracao: 1061340 Nota: C1 Vol.: 65
Chanel 7 Note On - Duracao: 1061340 Nota: C1 Vol.: 54
Chanel 9 Note Off - Duracao: 1061640 Nota: C1 Vol.: 87
Chanel 9 Note On - Duracao: 1061640 Nota: C1 Vol.: 87
Chanel 8 Note Off - Duracao: 1061820 Nota: C1 Vol.: 83
Chanel 8 Note On - Duracao: 1061820 Nota: C1 Vol.: 88
Chanel 9 Note Off - Duracao: 1062120 Nota: C1 Vol.: 87
Chanel 9 Note On - Duracao: 1062120 Nota: C1 Vol.: 86
Chanel 3 Note Off - Duracao: 1062300 Nota: C1 Vol.: 54
Chanel 3 Note On - Duracao: 1062300 Nota: C1 Vol.: 49
Chanel 2 Note Off - Duracao: 1062480 Nota: C1 Vol.: 92
Chanel 2 Note On - Duracao: 1062480 Nota: C1 Vol.: 94
Chanel 8 Note Off - Duracao: 1062780 Nota: C1 Vol.: 88
Chanel 8 Note On - Duracao: 1062780 Nota: C1 Vol.: 83
Chanel 9 Note Off - Duracao: 1063080 Nota: C1 Vol.: 86
Chanel 9 Note On - Duracao: 1063080 Nota: C1 Vol.: 87
Chanel 7 Note Off - Duracao: 1063260 Nota: C1 Vol.: 54
Chanel 7 Note On - Duracao: 1063260 Nota: C1 Vol.: 59
Chanel 2 Note Off - Duracao: 1063440 Nota: C1 Vol.: 94
Chanel 2 Note On - Duracao: 1063440 Nota: C1 Vol.: 73
Chanel 9 Note Off - Duracao: 1063560 Nota: C1 Vol.: 87
Chanel 9 Note On - Duracao: 1063560 Nota: C1 Vol.: 85
Chanel 9 Note Off - Duracao: 1064520 Nota: C1 Vol.: 85
Chanel 9 Note On - Duracao: 1064520 Nota: C1 Vol.: 82
Chanel 8 Note Off - Duracao: 1064700 Nota: C1 Vol.: 83
Chanel 8 Note On - Duracao: 1064700 Nota: C1 Vol.: 84
Chanel 7 Note Off - Duracao: 1065180 Nota: C1 Vol.: 59
Chanel 7 Note On - Duracao: 1065180 Nota: C1 Vol.: 55
Chanel 2 Note Off - Duracao: 1065360 Nota: C1 Vol.: 73
Chanel 2 Note On - Duracao: 1065360 Nota: C1 Vol.: 48
Chanel 9 Note Off - Duracao: 1065480 Nota: C1 Vol.: 82
Chanel 9 Note On - Duracao: 1065480 Nota: C1 Vol.: 82
Chanel 3 Note Off - Duracao: 1066140 Nota: C1 Vol.: 49
Chanel 3 Note On - Duracao: 1066140 Nota: C1 Vol.: 61
Chanel 9 Note Off - Duracao: 1066440 Nota: C1 Vol.: 82
Chanel 9 Note On - Duracao: 1066440 Nota: C1 Vol.: 71
Chanel 8 Note Off - Duracao: 1066620 Nota: C1 Vol.: 84
Chanel 8 Note On - Duracao: 1066620 Nota: C1 Vol.: 84
Chanel 7 Note Off - Duracao: 1067100 Nota: C1 Vol.: 55
Chanel 7 Note On - Duracao: 1067100 Nota: C1 Vol.: 64
Chanel 3 Note Off - Duracao: 1068060 Nota: C1 Vol.: 61
Chanel 3 Note On - Duracao: 1068060 Nota: C1 Vol.: 58
Chanel 7 Note Off - Duracao: 1068060 Nota: C1 Vol.: 64
Chanel 7 Note On - Duracao: 1068060 Nota: C1 Vol.: 66
Chanel 9 Note Off - Duracao: 1068360 Nota: C1 Vol.: 71
Chanel 9 Note On - Duracao: 1068360 Nota: C1 Vol.: 71
Chanel 8 Note Off - Duracao: 1068540 Nota: C1 Vol.: 84
Chanel 8 Note On - Duracao: 1068540 Nota: C1 Vol.: 80
Chanel 7 Note Off - Duracao: 1069020 Nota: C1 Vol.: 66
Chanel 7 Note On - Duracao: 1069020 Nota: C1 Vol.: 68
Chanel 2 Note Off - Duracao: 1069200 Nota: C1 Vol.: 48
Chanel 2 Note On - Duracao: 1069200 Nota: C1 Vol.: 71
Chanel 9 Note Off - Duracao: 1069320 Nota: C1 Vol.: 71
Chanel 9 Note On - Duracao: 1069320 Nota: C1 Vol.: 61
Chanel 3 Note Off - Duracao: 1069980 Nota: C1 Vol.: 58
Chanel 3 Note On - Duracao: 1069980 Nota: C1 Vol.: 55
Chanel 7 Note Off - Duracao: 1069980 Nota: C1 Vol.: 68
Chanel 7 Note On - Duracao: 1069980 Nota: C1 Vol.: 71
Chanel 2 Note Off - Duracao: 1070160 Nota: C1 Vol.: 71
Chanel 2 Note On - Duracao: 1070160 Nota: C1 Vol.: 74
Chanel 8 Note Off - Duracao: 1070460 Nota: C1 Vol.: 80
Chanel 8 Note On - Duracao: 1070460 Nota: C1 Vol.: 74
Chanel 2 Note Off - Duracao: 1070640 Nota: C1 Vol.: 74
Chanel 2 Note On - Duracao: 1070640 Nota: C1 Vol.: 73
Chanel 7 Note Off - Duracao: 1070940 Nota: C1 Vol.: 71
Chanel 7 Note On - Duracao: 1070940 Nota: C1 Vol.: 72
Chanel 2 Note Off - Duracao: 1071120 Nota: C1 Vol.: 73
Chanel 2 Note On - Duracao: 1071120 Nota: C1 Vol.: 66
Chanel 9 Note Off - Duracao: 1071240 Nota: C1 Vol.: 61
Chanel 9 Note On - Duracao: 1071240 Nota: C1 Vol.: 70
Chanel 7 Note Off - Duracao: 1071420 Nota: C1 Vol.: 72
Chanel 7 Note On - Duracao: 1071420 Nota: C1 Vol.: 75
Chanel 2 Note Off - Duracao: 1071600 Nota: C1 Vol.: 66
Chanel 2 Note On - Duracao: 1071600 Nota: C1 Vol.: 61
Chanel 3 Note Off - Duracao: 1071900 Nota: C1 Vol.: 55
Chanel 3 Note On - Duracao: 1071900 Nota: C1 Vol.: 80
Chanel 7 Note Off - Duracao: 1071900 Nota: C1 Vol.: 75
Chanel 7 Note On - Duracao: 1071900 Nota: C1 Vol.: 58
Chanel 9 Note Off - Duracao: 1072200 Nota: C1 Vol.: 70
Chanel 9 Note On - Duracao: 1072200 Nota: C1 Vol.: 75
Chanel 3 Note Off - Duracao: 1072380 Nota: C1 Vol.: 80
Chanel 3 Note On - Duracao: 1072380 Nota: C1 Vol.: 49
Chanel 2 Note Off - Duracao: 1072560 Nota: C1 Vol.: 61
Chanel 2 Note On - Duracao: 1072560 Nota: C1 Vol.: 63
Chanel 9 Note Off - Duracao: 1072680 Nota: C1 Vol.: 75
Chanel 9 Note On - Duracao: 1072680 Nota: C1 Vol.: 82
Chanel 9 Note Off - Duracao: 1073160 Nota: C1 Vol.: 82
Chanel 9 Note On - Duracao: 1073160 Nota: C1 Vol.: 79
Chanel 2 Note Off - Duracao: 1073520 Nota: C1 Vol.: 63
Chanel 2 Note On - Duracao: 1073520 Nota: C1 Vol.: 65
Chanel 9 Note Off - Duracao: 1073640 Nota: C1 Vol.: 79
Chanel 9 Note On - Duracao: 1073640 Nota: C1 Vol.: 78
Chanel 7 Note Off - Duracao: 1073820 Nota: C1 Vol.: 58
Chanel 7 Note On - Duracao: 1073820 Nota: C1 Vol.: 47
Chanel 9 Note Off - Duracao: 1074120 Nota: C1 Vol.: 78
Chanel 9 Note On - Duracao: 1074120 Nota: C1 Vol.: 76
Chanel 8 Note Off - Duracao: 1074300 Nota: C1 Vol.: 74
Chanel 8 Note On - Duracao: 1074300 Nota: C1 Vol.: 71
Chanel 2 Note Off - Duracao: 1074480 Nota: C1 Vol.: 65
Chanel 2 Note On - Duracao: 1074480 Nota: C1 Vol.: 69
Chanel 9 Note Off - Duracao: 1074600 Nota: C1 Vol.: 76
Chanel 9 Note On - Duracao: 1074600 Nota: C1 Vol.: 67
Chanel 2 Note Off - Duracao: 1074960 Nota: C1 Vol.: 69
Chanel 2 Note On - Duracao: 1074960 Nota: C1 Vol.: 86
Chanel 9 Note Off - Duracao: 1075080 Nota: C1 Vol.: 67
Chanel 9 Note On - Duracao: 1075080 Nota: C1 Vol.: 79
Chanel 2 Note Off - Duracao: 1075200 Nota: C1 Vol.: 86
Chanel 2 Note On - Duracao: 1075200 Nota: C1 Vol.: 75
Chanel 9 Note Off - Duracao: 1075320 Nota: C1 Vol.: 79
Chanel 9 Note On - Duracao: 1075320 Nota: C1 Vol.: 67
Chanel 2 Note Off - Duracao: 1075440 Nota: C1 Vol.: 75
Chanel 2 Note On - Duracao: 1075440 Nota: C1 Vol.: 76
Chanel 2 Note Off - Duracao: 1075680 Nota: C1 Vol.: 76
Chanel 2 Note On - Duracao: 1075680 Nota: C1 Vol.: 84
Chanel 7 Note Off - Duracao: 1075740 Nota: C1 Vol.: 47
Chanel 7 Note On - Duracao: 1075740 Nota: C1 Vol.: 48
Chanel 2 Note Off - Duracao: 1075800 Nota: C1 Vol.: 84
Chanel 2 Note On - Duracao: 1075800 Nota: C1 Vol.: 87
Chanel 9 Note Off - Duracao: 1075800 Nota: C1 Vol.: 67
Chanel 9 Note On - Duracao: 1075800 Nota: C1 Vol.: 65
Chanel 2 Note Off - Duracao: 1075920 Nota: C1 Vol.: 87
Chanel 2 Note On - Duracao: 1075920 Nota: C1 Vol.: 84
Chanel 2 Note Off - Duracao: 1076040 Nota: C1 Vol.: 84
Chanel 2 Note On - Duracao: 1076040 Nota: C1 Vol.: 76
Chanel 3 Note Off - Duracao: 1076220 Nota: C1 Vol.: 49
Chanel 3 Note On - Duracao: 1076220 Nota: C1 Vol.: 75
Chanel 8 Note Off - Duracao: 1076220 Nota: C1 Vol.: 71
Chanel 8 Note On - Duracao: 1076220 Nota: C1 Vol.: 62
Chanel 2 Note Off - Duracao: 1076280 Nota: C1 Vol.: 76
Chanel 2 Note On - Duracao: 1076280 Nota: C1 Vol.: 81
Chanel 9 Note Off - Duracao: 1076280 Nota: C1 Vol.: 65
Chanel 9 Note On - Duracao: 1076280 Nota: C1 Vol.: 56
Chanel 2 Note Off - Duracao: 1076520 Nota: C1 Vol.: 81
Chanel 2 Note On - Duracao: 1076520 Nota: C1 Vol.: 80
Chanel 3 Note Off - Duracao: 1076700 Nota: C1 Vol.: 75
Chanel 3 Note On - Duracao: 1076700 Nota: C1 Vol.: 88
Chanel 2 Note Off - Duracao: 1076760 Nota: C1 Vol.: 80
Chanel 2 Note On - Duracao: 1076760 Nota: C1 Vol.: 81
Chanel 3 Note Off - Duracao: 1076940 Nota: C1 Vol.: 88
Chanel 3 Note On - Duracao: 1076940 Nota: C1 Vol.: 89
Chanel 2 Note Off - Duracao: 1077000 Nota: C1 Vol.: 81
Chanel 2 Note On - Duracao: 1077000 Nota: C1 Vol.: 75
Chanel 3 Note Off - Duracao: 1077060 Nota: C1 Vol.: 89
Chanel 3 Note On - Duracao: 1077060 Nota: C1 Vol.: 100
Chanel 3 Note Off - Duracao: 1077120 Nota: C1 Vol.: 100
Chanel 3 Note On - Duracao: 1077120 Nota: C1 Vol.: 100
Chanel 3 Note Off - Duracao: 1077180 Nota: C1 Vol.: 100
Chanel 3 Note On - Duracao: 1077180 Nota: C1 Vol.: 99
Chanel 3 Note Off - Duracao: 1077240 Nota: C1 Vol.: 99
Chanel 3 Note On - Duracao: 1077240 Nota: C1 Vol.: 100
Chanel 9 Note Off - Duracao: 1077240 Nota: C1 Vol.: 56
Chanel 9 Note On - Duracao: 1077240 Nota: C1 Vol.: 58
Chanel 3 Note Off - Duracao: 1077300 Nota: C1 Vol.: 100
Chanel 3 Note On - Duracao: 1077300 Nota: C1 Vol.: 100
Chanel 3 Note Off - Duracao: 1077360 Nota: C1 Vol.: 100
Chanel 3 Note On - Duracao: 1077360 Nota: C1 Vol.: 100
Chanel 3 Note Off - Duracao: 1077420 Nota: C1 Vol.: 100
Chanel 3 Note On - Duracao: 1077420 Nota: C1 Vol.: 99
Chanel 2 Note Off - Duracao: 1077480 Nota: C1 Vol.: 75
Chanel 2 Note On - Duracao: 1077480 Nota: C1 Vol.: 79
Chanel 3 Note Off - Duracao: 1077480 Nota: C1 Vol.: 99
Chanel 3 Note On - Duracao: 1077480 Nota: C1 Vol.: 80
Chanel 7 Note Off - Duracao: 1077660 Nota: C1 Vol.: 48
Chanel 7 Note On - Duracao: 1077660 Nota: C1 Vol.: 45
Chanel 2 Note Off - Duracao: 1077720 Nota: C1 Vol.: 79
Chanel 2 Note On - Duracao: 1077720 Nota: C1 Vol.: 78
Chanel 3 Note Off - Duracao: 1077720 Nota: C1 Vol.: 80
Chanel 3 Note On - Duracao: 1077720 Nota: C1 Vol.: 47
Chanel 2 Note Off - Duracao: 1077960 Nota: C1 Vol.: 78
Chanel 2 Note On - Duracao: 1077960 Nota: C1 Vol.: 83
Chanel 2 Note Off - Duracao: 1078200 Nota: C1 Vol.: 83
Chanel 2 Note On - Duracao: 1078200 Nota: C1 Vol.: 79
Chanel 2 Note Off - Duracao: 1078440 Nota: C1 Vol.: 79
Chanel 2 Note On - Duracao: 1078440 Nota: C1 Vol.: 74
Chanel 2 Note Off - Duracao: 1078920 Nota: C1 Vol.: 74
Chanel 2 Note On - Duracao: 1078920 Nota: C1 Vol.: 80
Chanel 2 Note Off - Duracao: 1079160 Nota: C1 Vol.: 80
Chanel 2 Note On - Duracao: 1079160 Nota: C1 Vol.: 88
Chanel 9 Note Off - Duracao: 1079160 Nota: C1 Vol.: 58
Chanel 9 Note On - Duracao: 1079160 Nota: C1 Vol.: 55
Chanel 2 Note Off - Duracao: 1079280 Nota: C1 Vol.: 88
Chanel 2 Note On - Duracao: 1079280 Nota: C1 Vol.: 79
Chanel 2 Note Off - Duracao: 1079520 Nota: C1 Vol.: 79
Chanel 2 Note On - Duracao: 1079520 Nota: C1 Vol.: 78
Chanel 7 Note Off - Duracao: 1079580 Nota: C1 Vol.: 45
Chanel 7 Note On - Duracao: 1079580 Nota: C1 Vol.: 43
Chanel 2 Note Off - Duracao: 1079760 Nota: C1 Vol.: 78
Chanel 2 Note On - Duracao: 1079760 Nota: C1 Vol.: 81
Chanel 2 Note Off - Duracao: 1080000 Nota: C1 Vol.: 81
Chanel 2 Note On - Duracao: 1080000 Nota: C1 Vol.: 79
Chanel 8 Note Off - Duracao: 1080060 Nota: C1 Vol.: 62
Chanel 8 Note On - Duracao: 1080060 Nota: C1 Vol.: 83
Chanel 2 Note Off - Duracao: 1080480 Nota: C1 Vol.: 79
Chanel 2 Note On - Duracao: 1080480 Nota: C1 Vol.: 89
Chanel 2 Note Off - Duracao: 1080960 Nota: C1 Vol.: 89
Chanel 2 Note On - Duracao: 1080960 Nota: C1 Vol.: 86
Chanel 8 Note Off - Duracao: 1081020 Nota: C1 Vol.: 83
Chanel 8 Note On - Duracao: 1081020 Nota: C1 Vol.: 82
Chanel 9 Note Off - Duracao: 1081080 Nota: C1 Vol.: 55
Chanel 9 Note On - Duracao: 1081080 Nota: C1 Vol.: 56
Chanel 2 Note Off - Duracao: 1081440 Nota: C1 Vol.: 86
Chanel 2 Note On - Duracao: 1081440 Nota: C1 Vol.: 84
Chanel 7 Note Off - Duracao: 1081500 Nota: C1 Vol.: 43
Chanel 7 Note On - Duracao: 1081500 Nota: C1 Vol.: 42
Chanel 3 Note Off - Duracao: 1081560 Nota: C1 Vol.: 47
Chanel 2 Note Off - Duracao: 1081920 Nota: C1 Vol.: 84
Chanel 2 Note On - Duracao: 1081920 Nota: C1 Vol.: 84
Chanel 8 Note Off - Duracao: 1081980 Nota: C1 Vol.: 82
Chanel 8 Note On - Duracao: 1081980 Nota: C1 Vol.: 77
Chanel 2 Note Off - Duracao: 1082160 Nota: C1 Vol.: 84
Chanel 2 Note On - Duracao: 1082160 Nota: C1 Vol.: 70
Chanel 7 Note Off - Duracao: 1082460 Nota: C1 Vol.: 42
Chanel 7 Note On - Duracao: 1082460 Nota: C1 Vol.: 42
Chanel 2 Note Off - Duracao: 1082640 Nota: C1 Vol.: 70
Chanel 2 Note On - Duracao: 1082640 Nota: C1 Vol.: 65
Chanel 8 Note Off - Duracao: 1082940 Nota: C1 Vol.: 77
Chanel 8 Note On - Duracao: 1082940 Nota: C1 Vol.: 72
Chanel 9 Note Off - Duracao: 1083000 Nota: C1 Vol.: 56
Chanel 9 Note On - Duracao: 1083000 Nota: C1 Vol.: 59
Chanel 7 Note Off - Duracao: 1083420 Nota: C1 Vol.: 42
Chanel 7 Note On - Duracao: 1083420 Nota: C1 Vol.: 42
Chanel 2 Note Off - Duracao: 1083600 Nota: C1 Vol.: 65
Chanel 2 Note On - Duracao: 1083600 Nota: C1 Vol.: 76
Chanel 2 Note Off - Duracao: 1084080 Nota: C1 Vol.: 76
Chanel 2 Note On - Duracao: 1084080 Nota: C1 Vol.: 82
Chanel 2 Note Off - Duracao: 1084320 Nota: C1 Vol.: 82
Chanel 2 Note On - Duracao: 1084320 Nota: C1 Vol.: 83
Chanel 7 Note Off - Duracao: 1084380 Nota: C1 Vol.: 42
Chanel 7 Note On - Duracao: 1084380 Nota: C1 Vol.: 41
Chanel 2 Note Off - Duracao: 1084560 Nota: C1 Vol.: 83
Chanel 2 Note On - Duracao: 1084560 Nota: C1 Vol.: 77
Chanel 8 Note Off - Duracao: 1084860 Nota: C1 Vol.: 72
Chanel 8 Note On - Duracao: 1084860 Nota: C1 Vol.: 71
Chanel 9 Note Off - Duracao: 1084920 Nota: C1 Vol.: 59
Chanel 9 Note On - Duracao: 1084920 Nota: C1 Vol.: 56
Chanel 2 Note Off - Duracao: 1085040 Nota: C1 Vol.: 77
Chanel 2 Note On - Duracao: 1085040 Nota: C1 Vol.: 79
Chanel 7 Note Off - Duracao: 1085340 Nota: C1 Vol.: 41
Chanel 7 Note On - Duracao: 1085340 Nota: C1 Vol.: 46
Chanel 2 Note Off - Duracao: 1085520 Nota: C1 Vol.: 79
Chanel 2 Note On - Duracao: 1085520 Nota: C1 Vol.: 83
Chanel 7 Note Off - Duracao: 1085820 Nota: C1 Vol.: 46
Chanel 7 Note On - Duracao: 1085820 Nota: C1 Vol.: 46
Chanel 2 Note Off - Duracao: 1086000 Nota: C1 Vol.: 83
Chanel 2 Note On - Duracao: 1086000 Nota: C1 Vol.: 66
Chanel 7 Note Off - Duracao: 1086300 Nota: C1 Vol.: 46
Chanel 7 Note On - Duracao: 1086300 Nota: C1 Vol.: 47
Chanel 7 Note Off - Duracao: 1086780 Nota: C1 Vol.: 47
Chanel 7 Note On - Duracao: 1086780 Nota: C1 Vol.: 50
Chanel 8 Note Off - Duracao: 1086780 Nota: C1 Vol.: 71
Chanel 8 Note On - Duracao: 1086780 Nota: C1 Vol.: 69
Chanel 9 Note Off - Duracao: 1086840 Nota: C1 Vol.: 56
Chanel 9 Note On - Duracao: 1086840 Nota: C1 Vol.: 55
Chanel 2 Note Off - Duracao: 1086960 Nota: C1 Vol.: 66
Chanel 2 Note On - Duracao: 1086960 Nota: C1 Vol.: 79
Chanel 7 Note Off - Duracao: 1087260 Nota: C1 Vol.: 50
Chanel 7 Note On - Duracao: 1087260 Nota: C1 Vol.: 48
Chanel 2 Note Off - Duracao: 1087440 Nota: C1 Vol.: 79
Chanel 2 Note On - Duracao: 1087440 Nota: C1 Vol.: 82
Chanel 2 Note Off - Duracao: 1087920 Nota: C1 Vol.: 82
Chanel 2 Note On - Duracao: 1087920 Nota: C1 Vol.: 82
Chanel 7 Note Off - Duracao: 1088220 Nota: C1 Vol.: 48
Chanel 7 Note On - Duracao: 1088220 Nota: C1 Vol.: 49
Chanel 2 Note Off - Duracao: 1088400 Nota: C1 Vol.: 82
Chanel 2 Note On - Duracao: 1088400 Nota: C1 Vol.: 82
Chanel 8 Note Off - Duracao: 1088700 Nota: C1 Vol.: 69
Chanel 8 Note On - Duracao: 1088700 Nota: C1 Vol.: 66
Chanel 9 Note Off - Duracao: 1088760 Nota: C1 Vol.: 55
Chanel 9 Note On - Duracao: 1088760 Nota: C1 Vol.: 61
Chanel 2 Note Off - Duracao: 1088880 Nota: C1 Vol.: 82
Chanel 2 Note On - Duracao: 1088880 Nota: C1 Vol.: 98
Chanel 2 Note Off - Duracao: 1089000 Nota: C1 Vol.: 98
Chanel 2 Note On - Duracao: 1089000 Nota: C1 Vol.: 99
Chanel 2 Note Off - Duracao: 1089120 Nota: C1 Vol.: 99
Chanel 2 Note On - Duracao: 1089120 Nota: C1 Vol.: 91
Chanel 2 Note Off - Duracao: 1089360 Nota: C1 Vol.: 91
Chanel 2 Note On - Duracao: 1089360 Nota: C1 Vol.: 81
Chanel 2 Note Off - Duracao: 1089840 Nota: C1 Vol.: 81
Chanel 2 Note On - Duracao: 1089840 Nota: C1 Vol.: 87
Chanel 7 Note Off - Duracao: 1090140 Nota: C1 Vol.: 49
Chanel 7 Note On - Duracao: 1090140 Nota: C1 Vol.: 49
Chanel 2 Note Off - Duracao: 1090320 Nota: C1 Vol.: 87
Chanel 2 Note On - Duracao: 1090320 Nota: C1 Vol.: 80
Chanel 8 Note Off - Duracao: 1090620 Nota: C1 Vol.: 66
Chanel 8 Note On - Duracao: 1090620 Nota: C1 Vol.: 66
Chanel 9 Note Off - Duracao: 1090680 Nota: C1 Vol.: 61
Chanel 9 Note On - Duracao: 1090680 Nota: C1 Vol.: 60
Chanel 2 Note Off - Duracao: 1090800 Nota: C1 Vol.: 80
Chanel 2 Note On - Duracao: 1090800 Nota: C1 Vol.: 69
Chanel 2 Note Off - Duracao: 1091760 Nota: C1 Vol.: 69
Chanel 2 Note On - Duracao: 1091760 Nota: C1 Vol.: 55
Chanel 7 Note Off - Duracao: 1092060 Nota: C1 Vol.: 49
Chanel 7 Note On - Duracao: 1092060 Nota: C1 Vol.: 55
Chanel 8 Note Off - Duracao: 1092540 Nota: C1 Vol.: 66
Chanel 8 Note On - Duracao: 1092540 Nota: C1 Vol.: 63
Chanel 9 Note Off - Duracao: 1092600 Nota: C1 Vol.: 60
Chanel 9 Note On - Duracao: 1092600 Nota: C1 Vol.: 72
Chanel 9 Note Off - Duracao: 1093080 Nota: C1 Vol.: 72
Chanel 9 Note On - Duracao: 1093080 Nota: C1 Vol.: 73
Chanel 2 Note Off - Duracao: 1093680 Nota: C1 Vol.: 55
Chanel 2 Note On - Duracao: 1093680 Nota: C1 Vol.: 59
Chanel 7 Note Off - Duracao: 1093980 Nota: C1 Vol.: 55
Chanel 7 Note On - Duracao: 1093980 Nota: C1 Vol.: 67
Chanel 9 Note Off - Duracao: 1094040 Nota: C1 Vol.: 73
Chanel 9 Note On - Duracao: 1094040 Nota: C1 Vol.: 88
Chanel 9 Note Off - Duracao: 1094280 Nota: C1 Vol.: 88
Chanel 9 Note On - Duracao: 1094280 Nota: C1 Vol.: 86
Chanel 9 Note Off - Duracao: 1094760 Nota: C1 Vol.: 86
Chanel 9 Note On - Duracao: 1094760 Nota: C1 Vol.: 88
Chanel 9 Note Off - Duracao: 1095240 Nota: C1 Vol.: 88
Chanel 9 Note On - Duracao: 1095240 Nota: C1 Vol.: 78
Chanel 2 Note Off - Duracao: 1095600 Nota: C1 Vol.: 59
Chanel 2 Note On - Duracao: 1095600 Nota: C1 Vol.: 52
Chanel 7 Note Off - Duracao: 1095900 Nota: C1 Vol.: 67
Chanel 7 Note On - Duracao: 1095900 Nota: C1 Vol.: 71
Chanel 9 Note Off - Duracao: 1096200 Nota: C1 Vol.: 78
Chanel 9 Note On - Duracao: 1096200 Nota: C1 Vol.: 84
Chanel 8 Note Off - Duracao: 1096380 Nota: C1 Vol.: 63
Chanel 8 Note On - Duracao: 1096380 Nota: C1 Vol.: 64
Chanel 9 Note Off - Duracao: 1096680 Nota: C1 Vol.: 84
Chanel 9 Note On - Duracao: 1096680 Nota: C1 Vol.: 87
Chanel 7 Note Off - Duracao: 1096860 Nota: C1 Vol.: 71
Chanel 7 Note On - Duracao: 1096860 Nota: C1 Vol.: 73
Chanel 9 Note Off - Duracao: 1097160 Nota: C1 Vol.: 87
Chanel 9 Note On - Duracao: 1097160 Nota: C1 Vol.: 86
Chanel 9 Note Off - Duracao: 1097640 Nota: C1 Vol.: 86
Chanel 9 Note On - Duracao: 1097640 Nota: C1 Vol.: 87
Chanel 7 Note Off - Duracao: 1097820 Nota: C1 Vol.: 73
Chanel 7 Note On - Duracao: 1097820 Nota: C1 Vol.: 56
Chanel 9 Note Off - Duracao: 1098120 Nota: C1 Vol.: 87
Chanel 9 Note On - Duracao: 1098120 Nota: C1 Vol.: 80
Chanel 9 Note Off - Duracao: 1098600 Nota: C1 Vol.: 80
Chanel 9 Note On - Duracao: 1098600 Nota: C1 Vol.: 62
Chanel 2 Note Off - Duracao: 1099440 Nota: C1 Vol.: 52
Chanel 2 Note On - Duracao: 1099440 Nota: C1 Vol.: 74
Chanel 9 Note Off - Duracao: 1099560 Nota: C1 Vol.: 62
Chanel 9 Note On - Duracao: 1099560 Nota: C1 Vol.: 75
Chanel 7 Note Off - Duracao: 1099740 Nota: C1 Vol.: 56
Chanel 7 Note On - Duracao: 1099740 Nota: C1 Vol.: 59
Chanel 9 Note Off - Duracao: 1100040 Nota: C1 Vol.: 75
Chanel 9 Note On - Duracao: 1100040 Nota: C1 Vol.: 57
Chanel 8 Note Off - Duracao: 1100220 Nota: C1 Vol.: 64
Chanel 8 Note On - Duracao: 1100220 Nota: C1 Vol.: 65
Chanel 2 Note Off - Duracao: 1101360 Nota: C1 Vol.: 74
Chanel 2 Note On - Duracao: 1101360 Nota: C1 Vol.: 78
Chanel 7 Note Off - Duracao: 1101660 Nota: C1 Vol.: 59
Chanel 7 Note On - Duracao: 1101660 Nota: C1 Vol.: 55
Chanel 9 Note Off - Duracao: 1101960 Nota: C1 Vol.: 57
Chanel 9 Note On - Duracao: 1101960 Nota: C1 Vol.: 60
Chanel 2 Note Off - Duracao: 1103280 Nota: C1 Vol.: 78
Chanel 2 Note On - Duracao: 1103280 Nota: C1 Vol.: 81
Chanel 7 Note Off - Duracao: 1103580 Nota: C1 Vol.: 55
Chanel 7 Note On - Duracao: 1103580 Nota: C1 Vol.: 56
Chanel 9 Note Off - Duracao: 1103880 Nota: C1 Vol.: 60
Chanel 9 Note On - Duracao: 1103880 Nota: C1 Vol.: 67
Chanel 8 Note Off - Duracao: 1104060 Nota: C1 Vol.: 65
Chanel 8 Note On - Duracao: 1104060 Nota: C1 Vol.: 71
Chanel 7 Note Off - Duracao: 1104540 Nota: C1 Vol.: 56
Chanel 2 Note Off - Duracao: 1105200 Nota: C1 Vol.: 81
Chanel 2 Note On - Duracao: 1105200 Nota: C1 Vol.: 82
Chanel 9 Note Off - Duracao: 1105800 Nota: C1 Vol.: 67
Chanel 9 Note On - Duracao: 1105800 Nota: C1 Vol.: 69
Chanel 8 Note Off - Duracao: 1105980 Nota: C1 Vol.: 71
Chanel 8 Note On - Duracao: 1105980 Nota: C1 Vol.: 81
Chanel 2 Note Off - Duracao: 1106160 Nota: C1 Vol.: 82
Chanel 2 Note On - Duracao: 1106160 Nota: C1 Vol.: 60
Chanel 8 Note Off - Duracao: 1106940 Nota: C1 Vol.: 81
Chanel 8 Note On - Duracao: 1106940 Nota: C1 Vol.: 68
Chanel 9 Note Off - Duracao: 1107720 Nota: C1 Vol.: 69
Chanel 9 Note On - Duracao: 1107720 Nota: C1 Vol.: 72
Chanel 2 Note Off - Duracao: 1108080 Nota: C1 Vol.: 60
Chanel 2 Note On - Duracao: 1108080 Nota: C1 Vol.: 51
Chanel 9 Note Off - Duracao: 1108680 Nota: C1 Vol.: 72
Chanel 9 Note On - Duracao: 1108680 Nota: C1 Vol.: 73
Chanel 9 Note Off - Duracao: 1109640 Nota: C1 Vol.: 73
Chanel 9 Note On - Duracao: 1109640 Nota: C1 Vol.: 72
Chanel 2 Note Off - Duracao: 1110000 Nota: C1 Vol.: 51
Chanel 2 Note On - Duracao: 1110000 Nota: C1 Vol.: 59
Chanel 9 Note Off - Duracao: 1110600 Nota: C1 Vol.: 72
Chanel 9 Note On - Duracao: 1110600 Nota: C1 Vol.: 69
Chanel 8 Note Off - Duracao: 1110780 Nota: C1 Vol.: 68
Chanel 8 Note On - Duracao: 1110780 Nota: C1 Vol.: 85
Chanel 2 Note Off - Duracao: 1110960 Nota: C1 Vol.: 59
Chanel 2 Note On - Duracao: 1110960 Nota: C1 Vol.: 95
Chanel 2 Note Off - Duracao: 1111080 Nota: C1 Vol.: 95
Chanel 2 Note On - Duracao: 1111080 Nota: C1 Vol.: 97
Chanel 2 Note Off - Duracao: 1111140 Nota: C1 Vol.: 97
Chanel 2 Note On - Duracao: 1111140 Nota: C1 Vol.: 65
Chanel 8 Note Off - Duracao: 1111740 Nota: C1 Vol.: 85
Chanel 8 Note On - Duracao: 1111740 Nota: C1 Vol.: 86
Chanel 2 Note Off - Duracao: 1112100 Nota: C1 Vol.: 65
Chanel 2 Note On - Duracao: 1112100 Nota: C1 Vol.: 45
Chanel 9 Note Off - Duracao: 1112520 Nota: C1 Vol.: 69
Chanel 9 Note On - Duracao: 1112520 Nota: C1 Vol.: 71
Chanel 8 Note Off - Duracao: 1112700 Nota: C1 Vol.: 86
Chanel 8 Note On - Duracao: 1112700 Nota: C1 Vol.: 89
Chanel 9 Note Off - Duracao: 1113480 Nota: C1 Vol.: 71
Chanel 9 Note On - Duracao: 1113480 Nota: C1 Vol.: 73
Chanel 8 Note Off - Duracao: 1113660 Nota: C1 Vol.: 89
Chanel 8 Note On - Duracao: 1113660 Nota: C1 Vol.: 92
Chanel 2 Note Off - Duracao: 1114020 Nota: C1 Vol.: 45
Chanel 2 Note On - Duracao: 1114020 Nota: C1 Vol.: 49
Chanel 8 Note Off - Duracao: 1114140 Nota: C1 Vol.: 92
Chanel 8 Note On - Duracao: 1114140 Nota: C1 Vol.: 88
Chanel 9 Note Off - Duracao: 1114440 Nota: C1 Vol.: 73
Chanel 9 Note On - Duracao: 1114440 Nota: C1 Vol.: 80
Chanel 8 Note Off - Duracao: 1115100 Nota: C1 Vol.: 88
Chanel 8 Note On - Duracao: 1115100 Nota: C1 Vol.: 84
Chanel 9 Note Off - Duracao: 1115400 Nota: C1 Vol.: 80
Chanel 9 Note On - Duracao: 1115400 Nota: C1 Vol.: 62
Chanel 2 Note Off - Duracao: 1115940 Nota: C1 Vol.: 49
Chanel 2 Note On - Duracao: 1115940 Nota: C1 Vol.: 60
Chanel 8 Note Off - Duracao: 1116060 Nota: C1 Vol.: 84
Chanel 8 Note On - Duracao: 1116060 Nota: C1 Vol.: 74
Chanel 2 Note Off - Duracao: 1117860 Nota: C1 Vol.: 60
Chanel 2 Note On - Duracao: 1117860 Nota: C1 Vol.: 57
Chanel 8 Note Off - Duracao: 1117980 Nota: C1 Vol.: 74
Chanel 8 Note On - Duracao: 1117980 Nota: C1 Vol.: 78
Chanel 8 Note Off - Duracao: 1118940 Nota: C1 Vol.: 78
Chanel 8 Note On - Duracao: 1118940 Nota: C1 Vol.: 81
Chanel 9 Note Off - Duracao: 1119240 Nota: C1 Vol.: 62
Chanel 9 Note On - Duracao: 1119240 Nota: C1 Vol.: 67
Chanel 2 Note Off - Duracao: 1119780 Nota: C1 Vol.: 57
Chanel 2 Note On - Duracao: 1119780 Nota: C1 Vol.: 60
Chanel 8 Note Off - Duracao: 1119900 Nota: C1 Vol.: 81
Chanel 8 Note On - Duracao: 1119900 Nota: C1 Vol.: 83
Chanel 8 Note Off - Duracao: 1120860 Nota: C1 Vol.: 83
Chanel 8 Note On - Duracao: 1120860 Nota: C1 Vol.: 82
Chanel 9 Note Off - Duracao: 1121160 Nota: C1 Vol.: 67
Chanel 9 Note On - Duracao: 1121160 Nota: C1 Vol.: 81
Chanel 8 Note Off - Duracao: 1121340 Nota: C1 Vol.: 82
Chanel 8 Note On - Duracao: 1121340 Nota: C1 Vol.: 64
Chanel 2 Note Off - Duracao: 1121700 Nota: C1 Vol.: 60
Chanel 2 Note On - Duracao: 1121700 Nota: C1 Vol.: 56
Chanel 9 Note Off - Duracao: 1122120 Nota: C1 Vol.: 81
Chanel 9 Note On - Duracao: 1122120 Nota: C1 Vol.: 91
Chanel 9 Note Off - Duracao: 1122600 Nota: C1 Vol.: 91
Chanel 9 Note On - Duracao: 1122600 Nota: C1 Vol.: 93
Chanel 9 Note Off - Duracao: 1123080 Nota: C1 Vol.: 93
Chanel 9 Note On - Duracao: 1123080 Nota: C1 Vol.: 88
Chanel 8 Note Off - Duracao: 1123260 Nota: C1 Vol.: 64
Chanel 8 Note On - Duracao: 1123260 Nota: C1 Vol.: 59
Chanel 2 Note Off - Duracao: 1123620 Nota: C1 Vol.: 56
Chanel 2 Note On - Duracao: 1123620 Nota: C1 Vol.: 60
Chanel 9 Note Off - Duracao: 1124040 Nota: C1 Vol.: 88
Chanel 9 Note On - Duracao: 1124040 Nota: C1 Vol.: 85
Chanel 9 Note Off - Duracao: 1125000 Nota: C1 Vol.: 85
Chanel 9 Note On - Duracao: 1125000 Nota: C1 Vol.: 79
Chanel 8 Note Off - Duracao: 1125180 Nota: C1 Vol.: 59
Chanel 8 Note On - Duracao: 1125180 Nota: C1 Vol.: 55
Chanel 2 Note Off - Duracao: 1125540 Nota: C1 Vol.: 60
Chanel 2 Note On - Duracao: 1125540 Nota: C1 Vol.: 64
Chanel 2 Note Off - Duracao: 1126500 Nota: C1 Vol.: 64
Chanel 2 Note On - Duracao: 1126500 Nota: C1 Vol.: 69
Chanel 9 Note Off - Duracao: 1126920 Nota: C1 Vol.: 79
Chanel 9 Note On - Duracao: 1126920 Nota: C1 Vol.: 89
Chanel 2 Note Off - Duracao: 1126980 Nota: C1 Vol.: 69
Chanel 2 Note On - Duracao: 1126980 Nota: C1 Vol.: 74
Chanel 8 Note Off - Duracao: 1127100 Nota: C1 Vol.: 55
Chanel 8 Note On - Duracao: 1127100 Nota: C1 Vol.: 56
Chanel 2 Note Off - Duracao: 1127460 Nota: C1 Vol.: 74
Chanel 2 Note On - Duracao: 1127460 Nota: C1 Vol.: 72
Chanel 9 Note Off - Duracao: 1127880 Nota: C1 Vol.: 89
Chanel 9 Note On - Duracao: 1127880 Nota: C1 Vol.: 85
Chanel 2 Note Off - Duracao: 1127940 Nota: C1 Vol.: 72
Chanel 2 Note On - Duracao: 1127940 Nota: C1 Vol.: 46
Chanel 8 Note Off - Duracao: 1129020 Nota: C1 Vol.: 56
Chanel 8 Note On - Duracao: 1129020 Nota: C1 Vol.: 62
Chanel 9 Note Off - Duracao: 1129800 Nota: C1 Vol.: 85
Chanel 9 Note On - Duracao: 1129800 Nota: C1 Vol.: 84
Chanel 8 Note Off - Duracao: 1130940 Nota: C1 Vol.: 62
Chanel 8 Note On - Duracao: 1130940 Nota: C1 Vol.: 54
Chanel 9 Note Off - Duracao: 1131720 Nota: C1 Vol.: 84
Chanel 9 Note On - Duracao: 1131720 Nota: C1 Vol.: 85
Chanel 2 Note Off - Duracao: 1131780 Nota: C1 Vol.: 46
Chanel 2 Note On - Duracao: 1131780 Nota: C1 Vol.: 44
Chanel 8 Note Off - Duracao: 1132860 Nota: C1 Vol.: 54
Chanel 8 Note On - Duracao: 1132860 Nota: C1 Vol.: 63
Chanel 9 Note Off - Duracao: 1133640 Nota: C1 Vol.: 85
Chanel 9 Note On - Duracao: 1133640 Nota: C1 Vol.: 90
Chanel 9 Note Off - Duracao: 1134600 Nota: C1 Vol.: 90
Chanel 9 Note On - Duracao: 1134600 Nota: C1 Vol.: 89
Chanel 8 Note Off - Duracao: 1134780 Nota: C1 Vol.: 63
Chanel 8 Note On - Duracao: 1134780 Nota: C1 Vol.: 64
Chanel 2 Note Off - Duracao: 1135620 Nota: C1 Vol.: 44
Chanel 2 Note On - Duracao: 1135620 Nota: C1 Vol.: 46
Chanel 8 Note Off - Duracao: 1135740 Nota: C1 Vol.: 64
Chanel 8 Note On - Duracao: 1135740 Nota: C1 Vol.: 72
Chanel 8 Note Off - Duracao: 1136220 Nota: C1 Vol.: 72
Chanel 8 Note On - Duracao: 1136220 Nota: C1 Vol.: 74
Chanel 9 Note Off - Duracao: 1136520 Nota: C1 Vol.: 89
Chanel 9 Note On - Duracao: 1136520 Nota: C1 Vol.: 89
Chanel 8 Note Off - Duracao: 1136700 Nota: C1 Vol.: 74
Chanel 8 Note On - Duracao: 1136700 Nota: C1 Vol.: 76
Chanel 8 Note Off - Duracao: 1137180 Nota: C1 Vol.: 76
Chanel 8 Note On - Duracao: 1137180 Nota: C1 Vol.: 72
Chanel 8 Note Off - Duracao: 1137660 Nota: C1 Vol.: 72
Chanel 8 Note On - Duracao: 1137660 Nota: C1 Vol.: 63
Chanel 9 Note Off - Duracao: 1138440 Nota: C1 Vol.: 89
Chanel 9 Note On - Duracao: 1138440 Nota: C1 Vol.: 92
Chanel 8 Note Off - Duracao: 1138620 Nota: C1 Vol.: 63
Chanel 8 Note On - Duracao: 1138620 Nota: C1 Vol.: 58
Chanel 2 Note Off - Duracao: 1139460 Nota: C1 Vol.: 46
Chanel 2 Note On - Duracao: 1139460 Nota: C1 Vol.: 44
Chanel 9 Note Off - Duracao: 1140360 Nota: C1 Vol.: 92
Chanel 9 Note On - Duracao: 1140360 Nota: C1 Vol.: 90
Chanel 8 Note Off - Duracao: 1140540 Nota: C1 Vol.: 58
Chanel 8 Note On - Duracao: 1140540 Nota: C1 Vol.: 57
Chanel 9 Note Off - Duracao: 1142280 Nota: C1 Vol.: 90
Chanel 9 Note On - Duracao: 1142280 Nota: C1 Vol.: 81
Chanel 8 Note Off - Duracao: 1142460 Nota: C1 Vol.: 57
Chanel 8 Note On - Duracao: 1142460 Nota: C1 Vol.: 53
Chanel 2 Note Off - Duracao: 1143300 Nota: C1 Vol.: 44
Chanel 2 Note On - Duracao: 1143300 Nota: C1 Vol.: 43
Chanel 8 Note Off - Duracao: 1144380 Nota: C1 Vol.: 53
Chanel 8 Note On - Duracao: 1144380 Nota: C1 Vol.: 51
Chanel 9 Note Off - Duracao: 1146120 Nota: C1 Vol.: 81
Chanel 9 Note On - Duracao: 1146120 Nota: C1 Vol.: 86
Chanel 2 Note Off - Duracao: 1147140 Nota: C1 Vol.: 43
Chanel 2 Note On - Duracao: 1147140 Nota: C1 Vol.: 45
Chanel 9 Note Off - Duracao: 1148040 Nota: C1 Vol.: 86
Chanel 9 Note On - Duracao: 1148040 Nota: C1 Vol.: 85
Chanel 8 Note Off - Duracao: 1148220 Nota: C1 Vol.: 51
Chanel 8 Note On - Duracao: 1148220 Nota: C1 Vol.: 52
Chanel 9 Note Off - Duracao: 1149960 Nota: C1 Vol.: 85
Chanel 9 Note On - Duracao: 1149960 Nota: C1 Vol.: 84
Chanel 2 Note Off - Duracao: 1150980 Nota: C1 Vol.: 45
Chanel 2 Note On - Duracao: 1150980 Nota: C1 Vol.: 46
Chanel 9 Note Off - Duracao: 1151880 Nota: C1 Vol.: 84
Chanel 9 Note On - Duracao: 1151880 Nota: C1 Vol.: 74
Chanel 8 Note Off - Duracao: 1152060 Nota: C1 Vol.: 52
Chanel 8 Note On - Duracao: 1152060 Nota: C1 Vol.: 51
Chanel 2 Note Off - Duracao: 1154820 Nota: C1 Vol.: 46
Chanel 2 Note On - Duracao: 1154820 Nota: C1 Vol.: 43
Chanel 9 Note Off - Duracao: 1155720 Nota: C1 Vol.: 74
Chanel 9 Note On - Duracao: 1155720 Nota: C1 Vol.: 82
Chanel 8 Note Off - Duracao: 1155900 Nota: C1 Vol.: 51
Chanel 8 Note On - Duracao: 1155900 Nota: C1 Vol.: 51
Chanel 9 Note Off - Duracao: 1156680 Nota: C1 Vol.: 82
Chanel 9 Note On - Duracao: 1156680 Nota: C1 Vol.: 75
Chanel 9 Note Off - Duracao: 1158600 Nota: C1 Vol.: 75
Chanel 9 Note On - Duracao: 1158600 Nota: C1 Vol.: 62
Chanel 2 Note Off - Duracao: 1158660 Nota: C1 Vol.: 43
Chanel 2 Note On - Duracao: 1158660 Nota: C1 Vol.: 44
Chanel 8 Note Off - Duracao: 1159740 Nota: C1 Vol.: 51
Chanel 8 Note On - Duracao: 1159740 Nota: C1 Vol.: 56
Chanel 9 Note Off - Duracao: 1160520 Nota: C1 Vol.: 62
Chanel 9 Note On - Duracao: 1160520 Nota: C1 Vol.: 62
Chanel 9 Note Off - Duracao: 1162440 Nota: C1 Vol.: 62
Chanel 9 Note On - Duracao: 1162440 Nota: C1 Vol.: 64
Chanel 2 Note Off - Duracao: 1162500 Nota: C1 Vol.: 44
Chanel 2 Note On - Duracao: 1162500 Nota: C1 Vol.: 44
Chanel 8 Note Off - Duracao: 1163580 Nota: C1 Vol.: 56
Chanel 8 Note On - Duracao: 1163580 Nota: C1 Vol.: 56
Chanel 9 Note Off - Duracao: 1164360 Nota: C1 Vol.: 64
Chanel 9 Note On - Duracao: 1164360 Nota: C1 Vol.: 68
Chanel 9 Note Off - Duracao: 1165320 Nota: C1 Vol.: 68
Chanel 9 Note On - Duracao: 1165320 Nota: C1 Vol.: 62
Chanel 2 Note Off - Duracao: 1166340 Nota: C1 Vol.: 44
Chanel 2 Note On - Duracao: 1166340 Nota: C1 Vol.: 47
Chanel 9 Note Off - Duracao: 1167240 Nota: C1 Vol.: 62
Chanel 9 Note On - Duracao: 1167240 Nota: C1 Vol.: 68
Chanel 8 Note Off - Duracao: 1167420 Nota: C1 Vol.: 56
Chanel 8 Note On - Duracao: 1167420 Nota: C1 Vol.: 56
Chanel 9 Note Off - Duracao: 1169160 Nota: C1 Vol.: 68
Chanel 9 Note On - Duracao: 1169160 Nota: C1 Vol.: 70
Chanel 8 Note Off - Duracao: 1169340 Nota: C1 Vol.: 56
Chanel 8 Note On - Duracao: 1169340 Nota: C1 Vol.: 53
Chanel 2 Note Off - Duracao: 1170180 Nota: C1 Vol.: 47
Chanel 2 Note On - Duracao: 1170180 Nota: C1 Vol.: 57
Chanel 9 Note Off - Duracao: 1171080 Nota: C1 Vol.: 70
Chanel 9 Note On - Duracao: 1171080 Nota: C1 Vol.: 69
Chanel 9 Note Off - Duracao: 1173000 Nota: C1 Vol.: 69
Chanel 9 Note On - Duracao: 1173000 Nota: C1 Vol.: 70
Chanel 8 Note Off - Duracao: 1173180 Nota: C1 Vol.: 53
Chanel 8 Note On - Duracao: 1173180 Nota: C1 Vol.: 59
Chanel 2 Note Off - Duracao: 1174020 Nota: C1 Vol.: 57
Chanel 2 Note On - Duracao: 1174020 Nota: C1 Vol.: 93
Chanel 9 Note Off - Duracao: 1174920 Nota: C1 Vol.: 70
Chanel 9 Note On - Duracao: 1174920 Nota: C1 Vol.: 72
Chanel 2 Note Off - Duracao: 1174980 Nota: C1 Vol.: 93
Chanel 2 Note On - Duracao: 1174980 Nota: C1 Vol.: 93
Chanel 8 Note Off - Duracao: 1175100 Nota: C1 Vol.: 59
Chanel 8 Note On - Duracao: 1175100 Nota: C1 Vol.: 56
Chanel 9 Note Off - Duracao: 1175880 Nota: C1 Vol.: 72
Chanel 9 Note On - Duracao: 1175880 Nota: C1 Vol.: 67
Chanel 2 Note Off - Duracao: 1176900 Nota: C1 Vol.: 93
Chanel 2 Note On - Duracao: 1176900 Nota: C1 Vol.: 92
Chanel 9 Note Off - Duracao: 1177800 Nota: C1 Vol.: 67
Chanel 9 Note On - Duracao: 1177800 Nota: C1 Vol.: 64
Chanel 8 Note Off - Duracao: 1178940 Nota: C1 Vol.: 56
Chanel 8 Note On - Duracao: 1178940 Nota: C1 Vol.: 73
Chanel 9 Note Off - Duracao: 1179720 Nota: C1 Vol.: 64
Chanel 9 Note On - Duracao: 1179720 Nota: C1 Vol.: 72
Chanel 8 Note Off - Duracao: 1179900 Nota: C1 Vol.: 73
Chanel 8 Note On - Duracao: 1179900 Nota: C1 Vol.: 78
Chanel 8 Note Off - Duracao: 1180380 Nota: C1 Vol.: 78
Chanel 8 Note On - Duracao: 1180380 Nota: C1 Vol.: 78
Chanel 2 Note Off - Duracao: 1180740 Nota: C1 Vol.: 92
Chanel 2 Note On - Duracao: 1180740 Nota: C1 Vol.: 92
Chanel 8 Note Off - Duracao: 1180860 Nota: C1 Vol.: 78
Chanel 8 Note On - Duracao: 1180860 Nota: C1 Vol.: 83
Chanel 8 Note Off - Duracao: 1181340 Nota: C1 Vol.: 83
Chanel 8 Note On - Duracao: 1181340 Nota: C1 Vol.: 79
Chanel 9 Note Off - Duracao: 1181640 Nota: C1 Vol.: 72
Chanel 9 Note On - Duracao: 1181640 Nota: C1 Vol.: 69
Chanel 8 Note Off - Duracao: 1181820 Nota: C1 Vol.: 79
Chanel 8 Note On - Duracao: 1181820 Nota: C1 Vol.: 72
Chanel 8 Note Off - Duracao: 1182780 Nota: C1 Vol.: 72
Chanel 8 Note On - Duracao: 1182780 Nota: C1 Vol.: 73
Chanel 9 Note Off - Duracao: 1183560 Nota: C1 Vol.: 69
Chanel 9 Note On - Duracao: 1183560 Nota: C1 Vol.: 71
Chanel 8 Note Off - Duracao: 1183740 Nota: C1 Vol.: 73
Chanel 8 Note On - Duracao: 1183740 Nota: C1 Vol.: 65
Chanel 2 Note Off - Duracao: 1184580 Nota: C1 Vol.: 92
Chanel 2 Note On - Duracao: 1184580 Nota: C1 Vol.: 92
Chanel 9 Note Off - Duracao: 1185480 Nota: C1 Vol.: 71
Chanel 9 Note On - Duracao: 1185480 Nota: C1 Vol.: 79
Chanel 8 Note Off - Duracao: 1185660 Nota: C1 Vol.: 65
Chanel 9 Note Off - Duracao: 1186440 Nota: C1 Vol.: 79
Chanel 9 Note On - Duracao: 1186440 Nota: C1 Vol.: 87
Chanel 9 Note Off - Duracao: 1187400 Nota: C1 Vol.: 87
Chanel 9 Note On - Duracao: 1187400 Nota: C1 Vol.: 82
Chanel 9 Note Off - Duracao: 1188360 Nota: C1 Vol.: 82
Chanel 9 Note On - Duracao: 1188360 Nota: C1 Vol.: 84
Chanel 2 Note Off - Duracao: 1188420 Nota: C1 Vol.: 92
Chanel 2 Note On - Duracao: 1188420 Nota: C1 Vol.: 93
Chanel 9 Note Off - Duracao: 1189320 Nota: C1 Vol.: 84
Chanel 9 Note On - Duracao: 1189320 Nota: C1 Vol.: 77
Chanel 9 Note Off - Duracao: 1191240 Nota: C1 Vol.: 77
Chanel 9 Note On - Duracao: 1191240 Nota: C1 Vol.: 76
Chanel 2 Note Off - Duracao: 1192260 Nota: C1 Vol.: 93
Chanel 2 Note On - Duracao: 1192260 Nota: C1 Vol.: 94
Chanel 9 Note Off - Duracao: 1193160 Nota: C1 Vol.: 76
Chanel 9 Note On - Duracao: 1193160 Nota: C1 Vol.: 80
Chanel 9 Note Off - Duracao: 1194120 Nota: C1 Vol.: 80
Chanel 9 Note On - Duracao: 1194120 Nota: C1 Vol.: 84
Chanel 9 Note Off - Duracao: 1195080 Nota: C1 Vol.: 84
Chanel 9 Note On - Duracao: 1195080 Nota: C1 Vol.: 84
Chanel 9 Note Off - Duracao: 1196040 Nota: C1 Vol.: 84
Chanel 9 Note On - Duracao: 1196040 Nota: C1 Vol.: 86
Chanel 2 Note Off - Duracao: 1196100 Nota: C1 Vol.: 94
Chanel 2 Note On - Duracao: 1196100 Nota: C1 Vol.: 90
Chanel 9 Note Off - Duracao: 1197000 Nota: C1 Vol.: 86
Chanel 9 Note On - Duracao: 1197000 Nota: C1 Vol.: 87
Chanel 9 Note Off - Duracao: 1197960 Nota: C1 Vol.: 87
Chanel 9 Note On - Duracao: 1197960 Nota: C1 Vol.: 85
Chanel 2 Note Off - Duracao: 1198020 Nota: C1 Vol.: 90
Chanel 2 Note On - Duracao: 1198020 Nota: C1 Vol.: 91
Chanel 9 Note Off - Duracao: 1198920 Nota: C1 Vol.: 85
Chanel 9 Note On - Duracao: 1198920 Nota: C1 Vol.: 85
Chanel 2 Note Off - Duracao: 1198980 Nota: C1 Vol.: 91
Chanel 2 Note On - Duracao: 1198980 Nota: C1 Vol.: 79
Chanel 9 Note Off - Duracao: 1199880 Nota: C1 Vol.: 85
Chanel 9 Note On - Duracao: 1199880 Nota: C1 Vol.: 86
Chanel 2 Note Off - Duracao: 1199940 Nota: C1 Vol.: 79
Chanel 2 Note On - Duracao: 1199940 Nota: C1 Vol.: 48
Chanel 9 Note Off - Duracao: 1200840 Nota: C1 Vol.: 86
Chanel 9 Note On - Duracao: 1200840 Nota: C1 Vol.: 79
Chanel 9 Note Off - Duracao: 1201800 Nota: C1 Vol.: 79
Chanel 9 Note On - Duracao: 1201800 Nota: C1 Vol.: 73
Chanel 9 Note Off - Duracao: 1203720 Nota: C1 Vol.: 73
Chanel 9 Note On - Duracao: 1203720 Nota: C1 Vol.: 69
Chanel 2 Note Off - Duracao: 1203780 Nota: C1 Vol.: 48
Chanel 2 Note On - Duracao: 1203780 Nota: C1 Vol.: 73
Chanel 2 Note Off - Duracao: 1204740 Nota: C1 Vol.: 73
Chanel 2 Note On - Duracao: 1204740 Nota: C1 Vol.: 71
Chanel 9 Note Off - Duracao: 1205640 Nota: C1 Vol.: 69
Chanel 9 Note On - Duracao: 1205640 Nota: C1 Vol.: 70
Chanel 2 Note Off - Duracao: 1205700 Nota: C1 Vol.: 71
Chanel 2 Note On - Duracao: 1205700 Nota: C1 Vol.: 77
Chanel 2 Note Off - Duracao: 1206180 Nota: C1 Vol.: 77
Chanel 2 Note On - Duracao: 1206180 Nota: C1 Vol.: 79
Chanel 2 Note Off - Duracao: 1206660 Nota: C1 Vol.: 79
Chanel 2 Note On - Duracao: 1206660 Nota: C1 Vol.: 73
Chanel 2 Note Off - Duracao: 1207140 Nota: C1 Vol.: 73
Chanel 2 Note On - Duracao: 1207140 Nota: C1 Vol.: 71
Chanel 9 Note Off - Duracao: 1207560 Nota: C1 Vol.: 70
Chanel 9 Note On - Duracao: 1207560 Nota: C1 Vol.: 71
Chanel 2 Note Off - Duracao: 1207620 Nota: C1 Vol.: 71
Chanel 2 Note On - Duracao: 1207620 Nota: C1 Vol.: 84
Chanel 2 Note Off - Duracao: 1207860 Nota: C1 Vol.: 84
Chanel 2 Note On - Duracao: 1207860 Nota: C1 Vol.: 91
Chanel 2 Note Off - Duracao: 1207980 Nota: C1 Vol.: 91
Chanel 9 Note Off - Duracao: 1208520 Nota: C1 Vol.: 71
Chanel 9 Note On - Duracao: 1208520 Nota: C1 Vol.: 76
Chanel 9 Note Off - Duracao: 1209000 Nota: C1 Vol.: 76
Chanel 9 Note On - Duracao: 1209000 Nota: C1 Vol.: 80
Chanel 9 Note Off - Duracao: 1209480 Nota: C1 Vol.: 80
Chanel 9 Note On - Duracao: 1209480 Nota: C1 Vol.: 80
Chanel 9 Note Off - Duracao: 1209960 Nota: C1 Vol.: 80
Chanel 9 Note On - Duracao: 1209960 Nota: C1 Vol.: 79
Chanel 9 Note Off - Duracao: 1210440 Nota: C1 Vol.: 79
Chanel 9 Note On - Duracao: 1210440 Nota: C1 Vol.: 73
Chanel 9 Note Off - Duracao: 1210920 Nota: C1 Vol.: 73
Chanel 9 Note On - Duracao: 1210920 Nota: C1 Vol.: 72
Chanel 9 Note Off - Duracao: 1211400 Nota: C1 Vol.: 72
Chanel 9 Note On - Duracao: 1211400 Nota: C1 Vol.: 72
Chanel 9 Note Off - Duracao: 1211880 Nota: C1 Vol.: 72
Chanel 9 Note On - Duracao: 1211880 Nota: C1 Vol.: 65
Chanel 9 Note Off - Duracao: 1212360 Nota: C1 Vol.: 65
Chanel 9 Note On - Duracao: 1212360 Nota: C1 Vol.: 74
Chanel 9 Note Off - Duracao: 1212600 Nota: C1 Vol.: 74
Chanel 9 Note On - Duracao: 1212600 Nota: C1 Vol.: 56
Chanel 9 Note Off - Duracao: 1214520 Nota: C1 Vol.: 56
Chanel 9 Note On - Duracao: 1214520 Nota: C1 Vol.: 56
Chanel 9 Note Off - Duracao: 1216440 Nota: C1 Vol.: 56
Chanel 9 Note On - Duracao: 1216440 Nota: C1 Vol.: 58
Chanel 9 Note Off - Duracao: 1217400 Nota: C1 Vol.: 58
Chanel 9 Note On - Duracao: 1217400 Nota: C1 Vol.: 59
Chanel 9 Note Off - Duracao: 1218360 Nota: C1 Vol.: 59
Chanel 9 Note On - Duracao: 1218360 Nota: C1 Vol.: 56
Chanel 9 Note Off - Duracao: 1220280 Nota: C1 Vol.: 56
Chanel 9 Note On - Duracao: 1220280 Nota: C1 Vol.: 54
Chanel 9 Note Off - Duracao: 1222200 Nota: C1 Vol.: 54
Chanel 9 Note On - Duracao: 1222200 Nota: C1 Vol.: 60
Chanel 9 Note Off - Duracao: 1224120 Nota: C1 Vol.: 60
Chanel 9 Note On - Duracao: 1224120 Nota: C1 Vol.: 57
Chanel 9 Note Off - Duracao: 1226040 Nota: C1 Vol.: 57
Chanel 9 Note On - Duracao: 1226040 Nota: C1 Vol.: 60
Chanel 9 Note Off - Duracao: 1227000 Nota: C1 Vol.: 60
Chanel 9 Note On - Duracao: 1227000 Nota: C1 Vol.: 63
Chanel 9 Note Off - Duracao: 1227960 Nota: C1 Vol.: 63
Chanel 9 Note On - Duracao: 1227960 Nota: C1 Vol.: 65
Chanel 9 Note Off - Duracao: 1228920 Nota: C1 Vol.: 65
Chanel 9 Note On - Duracao: 1228920 Nota: C1 Vol.: 77
Chanel 9 Note Off - Duracao: 1229400 Nota: C1 Vol.: 77
Chanel 9 Note On - Duracao: 1229400 Nota: C1 Vol.: 86
Chanel 9 Note Off - Duracao: 1229880 Nota: C1 Vol.: 86
Chanel 9 Note On - Duracao: 1229880 Nota: C1 Vol.: 84
Chanel 9 Note Off - Duracao: 1230360 Nota: C1 Vol.: 84
Chanel 9 Note On - Duracao: 1230360 Nota: C1 Vol.: 84
Chanel 9 Note Off - Duracao: 1230840 Nota: C1 Vol.: 84
Chanel 9 Note On - Duracao: 1230840 Nota: C1 Vol.: 82
Chanel 9 Note Off - Duracao: 1231320 Nota: C1 Vol.: 82
Chanel 9 Note On - Duracao: 1231320 Nota: C1 Vol.: 89
Chanel 9 Note Off - Duracao: 1231800 Nota: C1 Vol.: 89
Chanel 9 Note On - Duracao: 1231800 Nota: C1 Vol.: 89
Chanel 9 Note Off - Duracao: 1232040 Nota: C1 Vol.: 89
Chanel 9 Note On - Duracao: 1232040 Nota: C1 Vol.: 75
Chanel 9 Note Off - Duracao: 1233000 Nota: C1 Vol.: 75
Chanel 9 Note On - Duracao: 1233000 Nota: C1 Vol.: 88
Chanel 9 Note Off - Duracao: 1233240 Nota: C1 Vol.: 88
Chanel 9 Note On - Duracao: 1233240 Nota: C1 Vol.: 68
Chanel 9 Note Off - Duracao: 1234200 Nota: C1 Vol.: 68
Chanel 9 Note On - Duracao: 1234200 Nota: C1 Vol.: 74
Chanel 9 Note Off - Duracao: 1234680 Nota: C1 Vol.: 74
Chanel 9 Note On - Duracao: 1234680 Nota: C1 Vol.: 59
Chanel 9 Note Off - Duracao: 1236600 Nota: C1 Vol.: 59
Chanel 9 Note On - Duracao: 1236600 Nota: C1 Vol.: 61
Chanel 9 Note Off - Duracao: 1238520 Nota: C1 Vol.: 61
Chanel 9 Note On - Duracao: 1238520 Nota: C1 Vol.: 65
Chanel 9 Note Off - Duracao: 1240440 Nota: C1 Vol.: 65
Chanel 9 Note On - Duracao: 1240440 Nota: C1 Vol.: 70
Chanel 9 Note Off - Duracao: 1241400 Nota: C1 Vol.: 70
Chanel 9 Note On - Duracao: 1241400 Nota: C1 Vol.: 72
Chanel 9 Note Off - Duracao: 1242360 Nota: C1 Vol.: 72
Chanel 9 Note On - Duracao: 1242360 Nota: C1 Vol.: 73
Chanel 9 Note Off - Duracao: 1243320 Nota: C1 Vol.: 73
Chanel 9 Note On - Duracao: 1243320 Nota: C1 Vol.: 71
Chanel 9 Note Off - Duracao: 1244280 Nota: C1 Vol.: 71
Chanel 9 Note On - Duracao: 1244280 Nota: C1 Vol.: 68
Chanel 9 Note Off - Duracao: 1246200 Nota: C1 Vol.: 68
Chanel 9 Note On - Duracao: 1246200 Nota: C1 Vol.: 69
Chanel 9 Note Off - Duracao: 1247160 Nota: C1 Vol.: 69
Chanel 9 Note On - Duracao: 1247160 Nota: C1 Vol.: 74
Chanel 9 Note Off - Duracao: 1248120 Nota: C1 Vol.: 74
Chanel 9 Note On - Duracao: 1248120 Nota: C1 Vol.: 73
Chanel 9 Note Off - Duracao: 1249080 Nota: C1 Vol.: 73
Chanel 9 Note On - Duracao: 1249080 Nota: C1 Vol.: 64
Chanel 9 Note Off - Duracao: 1251000 Nota: C1 Vol.: 64
Chanel 9 Note On - Duracao: 1251000 Nota: C1 Vol.: 54
Chanel 9 Note Off - Duracao: 1254840 Nota: C1 Vol.: 54
Chanel 9 Note On - Duracao: 1254840 Nota: C1 Vol.: 65
Chanel 9 Note Off - Duracao: 1256760 Nota: C1 Vol.: 65
Chanel 9 Note On - Duracao: 1256760 Nota: C1 Vol.: 67
Chanel 9 Note Off - Duracao: 1258680 Nota: C1 Vol.: 67
Chanel 9 Note On - Duracao: 1258680 Nota: C1 Vol.: 80
Chanel 9 Note Off - Duracao: 1259640 Nota: C1 Vol.: 80
Chanel 9 Note On - Duracao: 1259640 Nota: C1 Vol.: 85
Chanel 9 Note Off - Duracao: 1260120 Nota: C1 Vol.: 85
Chanel 9 Note On - Duracao: 1260120 Nota: C1 Vol.: 84
Chanel 9 Note Off - Duracao: 1261080 Nota: C1 Vol.: 84
Chanel 9 Note On - Duracao: 1261080 Nota: C1 Vol.: 92
Chanel 9 Note Off - Duracao: 1261560 Nota: C1 Vol.: 92
Chanel 9 Note On - Duracao: 1261560 Nota: C1 Vol.: 80
Chanel 9 Note Off - Duracao: 1263480 Nota: C1 Vol.: 80
Chanel 9 Note On - Duracao: 1263480 Nota: C1 Vol.: 86
Chanel 9 Note Off - Duracao: 1265400 Nota: C1 Vol.: 86
Chanel 9 Note On - Duracao: 1265400 Nota: C1 Vol.: 87
Chanel 9 Note Off - Duracao: 1267320 Nota: C1 Vol.: 87
Chanel 9 Note On - Duracao: 1267320 Nota: C1 Vol.: 81
Chanel 9 Note Off - Duracao: 1269240 Nota: C1 Vol.: 81
Chanel 9 Note On - Duracao: 1269240 Nota: C1 Vol.: 87
Chanel 9 Note Off - Duracao: 1271160 Nota: C1 Vol.: 87
Chanel 9 Note On - Duracao: 1271160 Nota: C1 Vol.: 88
Chanel 9 Note Off - Duracao: 1273080 Nota: C1 Vol.: 88
Chanel 9 Note On - Duracao: 1273080 Nota: C1 Vol.: 89
Chanel 9 Note Off - Duracao: 1275000 Nota: C1 Vol.: 89
Chanel 9 Note On - Duracao: 1275000 Nota: C1 Vol.: 88
Chanel 9 Note Off - Duracao: 1276920 Nota: C1 Vol.: 88
Chanel 9 Note On - Duracao: 1276920 Nota: C1 Vol.: 80
Chanel 9 Note Off - Duracao: 1280760 Nota: C1 Vol.: 80
Chanel 9 Note On - Duracao: 1280760 Nota: C1 Vol.: 91
Chanel 9 Note Off - Duracao: 1282680 Nota: C1 Vol.: 91
Chanel 9 Note On - Duracao: 1282680 Nota: C1 Vol.: 90
Chanel 9 Note Off - Duracao: 1283640 Nota: C1 Vol.: 90
Chanel 9 Note On - Duracao: 1283640 Nota: C1 Vol.: 86
Chanel 9 Note Off - Duracao: 1285560 Nota: C1 Vol.: 86
Chanel 9 Note On - Duracao: 1285560 Nota: C1 Vol.: 75
Chanel 9 Note Off - Duracao: 1287480 Nota: C1 Vol.: 75
Chanel 9 Note On - Duracao: 1287480 Nota: C1 Vol.: 87
Chanel 9 Note Off - Duracao: 1288440 Nota: C1 Vol.: 87
Chanel 9 Note On - Duracao: 1288440 Nota: C1 Vol.: 81
Chanel 9 Note Off - Duracao: 1289400 Nota: C1 Vol.: 81
Chanel 9 Note On - Duracao: 1289400 Nota: C1 Vol.: 64
Chanel 9 Note Off - Duracao: 1291320 Nota: C1 Vol.: 64
Chanel 9 Note On - Duracao: 1291320 Nota: C1 Vol.: 63
Chanel 9 Note Off - Duracao: 1293240 Nota: C1 Vol.: 63
Chanel 9 Note On - Duracao: 1293240 Nota: C1 Vol.: 59
Chanel 9 Note Off - Duracao: 1295160 Nota: C1 Vol.: 59
Chanel 9 Note On - Duracao: 1295160 Nota: C1 Vol.: 63
Chanel 9 Note Off - Duracao: 1296120 Nota: C1 Vol.: 63
Chanel 9 Note On - Duracao: 1296120 Nota: C1 Vol.: 66
Chanel 9 Note Off - Duracao: 1297080 Nota: C1 Vol.: 66
Chanel 9 Note On - Duracao: 1297080 Nota: C1 Vol.: 66
Chanel 9 Note Off - Duracao: 1298040 Nota: C1 Vol.: 66
Chanel 9 Note On - Duracao: 1298040 Nota: C1 Vol.: 63
Chanel 9 Note Off - Duracao: 1299960 Nota: C1 Vol.: 63
Chanel 9 Note On - Duracao: 1299960 Nota: C1 Vol.: 71
Chanel 9 Note Off - Duracao: 1300920 Nota: C1 Vol.: 71
Chanel 9 Note On - Duracao: 1300920 Nota: C1 Vol.: 68
Chanel 9 Note Off - Duracao: 1301880 Nota: C1 Vol.: 68
Chanel 9 Note On - Duracao: 1301880 Nota: C1 Vol.: 69
Chanel 9 Note Off - Duracao: 1302840 Nota: C1 Vol.: 69
Chanel 9 Note On - Duracao: 1302840 Nota: C1 Vol.: 71
Chanel 9 Note Off - Duracao: 1303800 Nota: C1 Vol.: 71
Chanel 9 Note On - Duracao: 1303800 Nota: C1 Vol.: 72
Chanel 9 Note Off - Duracao: 1304760 Nota: C1 Vol.: 72
Chanel 9 Note On - Duracao: 1304760 Nota: C1 Vol.: 61
Chanel 9 Note Off - Duracao: 1306680 Nota: C1 Vol.: 61
Chanel 9 Note On - Duracao: 1306680 Nota: C1 Vol.: 67
Chanel 9 Note Off - Duracao: 1307640 Nota: C1 Vol.: 67
Chanel 9 Note On - Duracao: 1307640 Nota: C1 Vol.: 72
Chanel 9 Note Off - Duracao: 1308600 Nota: C1 Vol.: 72
Chanel 9 Note On - Duracao: 1308600 Nota: C1 Vol.: 71
Chanel 9 Note Off - Duracao: 1309560 Nota: C1 Vol.: 71
Chanel 9 Note On - Duracao: 1309560 Nota: C1 Vol.: 62
Chanel 9 Note Off - Duracao: 1311480 Nota: C1 Vol.: 62
Chanel 9 Note On - Duracao: 1311480 Nota: C1 Vol.: 75
Chanel 9 Note Off - Duracao: 1312440 Nota: C1 Vol.: 75
Chanel 9 Note On - Duracao: 1312440 Nota: C1 Vol.: 80
Chanel 9 Note Off - Duracao: 1313400 Nota: C1 Vol.: 80
Chanel 9 Note On - Duracao: 1313400 Nota: C1 Vol.: 80
Chanel 9 Note Off - Duracao: 1314360 Nota: C1 Vol.: 80
Chanel 9 Note On - Duracao: 1314360 Nota: C1 Vol.: 70
Chanel 9 Note Off - Duracao: 1316280 Nota: C1 Vol.: 70
Chanel 9 Note On - Duracao: 1316280 Nota: C1 Vol.: 79
Chanel 9 Note Off - Duracao: 1317240 Nota: C1 Vol.: 79
Chanel 9 Note On - Duracao: 1317240 Nota: C1 Vol.: 76
Chanel 9 Note Off - Duracao: 1319160 Nota: C1 Vol.: 76
Chanel 9 Note On - Duracao: 1319160 Nota: C1 Vol.: 82
Chanel 9 Note Off - Duracao: 1320120 Nota: C1 Vol.: 82
Chanel 9 Note On - Duracao: 1320120 Nota: C1 Vol.: 81
Chanel 9 Note Off - Duracao: 1321080 Nota: C1 Vol.: 81
Chanel 9 Note On - Duracao: 1321080 Nota: C1 Vol.: 83
Chanel 9 Note Off - Duracao: 1322040 Nota: C1 Vol.: 83
Chanel 9 Note On - Duracao: 1322040 Nota: C1 Vol.: 84
Chanel 9 Note Off - Duracao: 1323000 Nota: C1 Vol.: 84
Chanel 9 Note On - Duracao: 1323000 Nota: C1 Vol.: 83
Chanel 9 Note Off - Duracao: 1323960 Nota: C1 Vol.: 83
Chanel 9 Note On - Duracao: 1323960 Nota: C1 Vol.: 85
Chanel 9 Note Off - Duracao: 1324920 Nota: C1 Vol.: 85
Chanel 9 Note On - Duracao: 1324920 Nota: C1 Vol.: 82
Chanel 9 Note Off - Duracao: 1325880 Nota: C1 Vol.: 82
Chanel 9 Note On - Duracao: 1325880 Nota: C1 Vol.: 78
Chanel 9 Note Off - Duracao: 1326840 Nota: C1 Vol.: 78
Chanel 9 Note On - Duracao: 1326840 Nota: C1 Vol.: 70
Chanel 9 Note Off - Duracao: 1328760 Nota: C1 Vol.: 70
Chanel 9 Note On - Duracao: 1328760 Nota: C1 Vol.: 70
Chanel 9 Note Off - Duracao: 1330680 Nota: C1 Vol.: 70
Chanel 9 Note On - Duracao: 1330680 Nota: C1 Vol.: 69
Chanel 9 Note Off - Duracao: 1332600 Nota: C1 Vol.: 69
Chanel 9 Note On - Duracao: 1332600 Nota: C1 Vol.: 72
Chanel 9 Note Off - Duracao: 1333560 Nota: C1 Vol.: 72
Chanel 9 Note On - Duracao: 1333560 Nota: C1 Vol.: 76
Chanel 9 Note Off - Duracao: 1334040 Nota: C1 Vol.: 76
Chanel 9 Note On - Duracao: 1334040 Nota: C1 Vol.: 77
Chanel 9 Note Off - Duracao: 1334520 Nota: C1 Vol.: 77
Chanel 9 Note On - Duracao: 1334520 Nota: C1 Vol.: 71
Chanel 9 Note Off - Duracao: 1335000 Nota: C1 Vol.: 71
Chanel 9 Note On - Duracao: 1335000 Nota: C1 Vol.: 67
Chanel 9 Note Off - Duracao: 1335960 Nota: C1 Vol.: 67
Chanel 9 Note On - Duracao: 1335960 Nota: C1 Vol.: 72
Chanel 9 Note Off - Duracao: 1336440 Nota: C1 Vol.: 72
Chanel 9 Note On - Duracao: 1336440 Nota: C1 Vol.: 74
Chanel 9 Note Off - Duracao: 1336920 Nota: C1 Vol.: 74
Chanel 9 Note On - Duracao: 1336920 Nota: C1 Vol.: 74
Chanel 9 Note Off - Duracao: 1337160 Nota: C1 Vol.: 74
Chanel 9 Note On - Duracao: 1337160 Nota: C1 Vol.: 70
Chanel 9 Note Off - Duracao: 1337640 Nota: C1 Vol.: 70
Chanel 9 Note On - Duracao: 1337640 Nota: C1 Vol.: 68
Chanel 9 Note Off - Duracao: 1338120 Nota: C1 Vol.: 68
Chanel 9 Note On - Duracao: 1338120 Nota: C1 Vol.: 66
Chanel 9 Note Off - Duracao: 1339080 Nota: C1 Vol.: 66
Chanel 9 Note On - Duracao: 1339080 Nota: C1 Vol.: 59
Chanel 9 Note Off - Duracao: 1340040 Nota: C1 Vol.: 59
Chanel 9 Note On - Duracao: 1340040 Nota: C1 Vol.: 61
Chanel 9 Note Off - Duracao: 1341000 Nota: C1 Vol.: 61
Chanel 9 Note On - Duracao: 1341000 Nota: C1 Vol.: 56
Chanel 9 Note Off - Duracao: 1342920 Nota: C1 Vol.: 56
Chanel 9 Note On - Duracao: 1342920 Nota: C1 Vol.: 55
Chanel 9 Note Off - Duracao: 1344840 Nota: C1 Vol.: 55
Chanel 9 Note On - Duracao: 1344840 Nota: C1 Vol.: 55
Chanel 9 Note Off - Duracao: 1346760 Nota: C1 Vol.: 55
Chanel 9 Note On - Duracao: 1346760 Nota: C1 Vol.: 56
Chanel 9 Note Off - Duracao: 1348680 Nota: C1 Vol.: 56
Chanel 9 Note On - Duracao: 1348680 Nota: C1 Vol.: 59
Chanel 9 Note Off - Duracao: 1350600 Nota: C1 Vol.: 59
Chanel 9 Note On - Duracao: 1350600 Nota: C1 Vol.: 57
Chanel 9 Note Off - Duracao: 1352520 Nota: C1 Vol.: 57
Chanel 9 Note On - Duracao: 1352520 Nota: C1 Vol.: 61
Chanel 9 Note Off - Duracao: 1353480 Nota: C1 Vol.: 61
Chanel 9 Note On - Duracao: 1353480 Nota: C1 Vol.: 63
Chanel 9 Note Off - Duracao: 1355400 Nota: C1 Vol.: 63
Chanel 9 Note On - Duracao: 1355400 Nota: C1 Vol.: 77
Chanel 9 Note Off - Duracao: 1356360 Nota: C1 Vol.: 77
Chanel 9 Note On - Duracao: 1356360 Nota: C1 Vol.: 88
Chanel 9 Note Off - Duracao: 1356840 Nota: C1 Vol.: 88
Chanel 9 Note On - Duracao: 1356840 Nota: C1 Vol.: 87
Chanel 9 Note Off - Duracao: 1357320 Nota: C1 Vol.: 87
Chanel 9 Note On - Duracao: 1357320 Nota: C1 Vol.: 80
Chanel 9 Note Off - Duracao: 1358280 Nota: C1 Vol.: 80
Chanel 9 Note On - Duracao: 1358280 Nota: C1 Vol.: 81
Chanel 9 Note Off - Duracao: 1358760 Nota: C1 Vol.: 81
Chanel 9 Note On - Duracao: 1358760 Nota: C1 Vol.: 82
Chanel 9 Note Off - Duracao: 1359240 Nota: C1 Vol.: 82
Chanel 9 Note On - Duracao: 1359240 Nota: C1 Vol.: 86
Chanel 9 Note Off - Duracao: 1359720 Nota: C1 Vol.: 86
Chanel 9 Note On - Duracao: 1359720 Nota: C1 Vol.: 83
Chanel 9 Note Off - Duracao: 1360200 Nota: C1 Vol.: 83
Chanel 9 Note On - Duracao: 1360200 Nota: C1 Vol.: 72
Chanel 9 Note Off - Duracao: 1361160 Nota: C1 Vol.: 72
Tick: 1361160 - 
System reset: 
First data byte: 0 Second data byte: 0
