Tipo de divisão:0.0
Duração:100320 ticks
Duração:0m52s
Tempo factor:1.0
Tempo in BPM:70.0
Chanel 1 program change: Instrumento: Piano
Chanel 2 program change: Instrumento: Piano
Chanel 3 program change: Instrumento: Piano
Chanel 4 program change: Instrumento: Piano
Chanel 5 program change: Instrumento: Piano
Chanel 6 program change: Instrumento: Piano
Chanel 7 program change: Instrumento: Piano
Chanel 8 program change: Instrumento: Piano
Chanel 9 program change: Instrumento: Piano
Chanel 9 Note On - Duracao: 0 Nota: C1 Vol.: 0
Chanel 9 Note Off - Duracao: 0 Nota: C1 Vol.: 0
Chanel 9 Note On - Duracao: 0 Nota: C1 Vol.: 0
Chanel 9 Note Off - Duracao: 0 Nota: C1 Vol.: 0
Chanel 10 program change: Instrumento: Piano
Chanel 2 Note On - Duracao: 480 Nota: C1 Vol.: 0
Chanel 2 Note Off - Duracao: 480 Nota: C1 Vol.: 0
Chanel 3 Note On - Duracao: 480 Nota: C1 Vol.: 0
Chanel 3 Note Off - Duracao: 480 Nota: C1 Vol.: 0
Chanel 5 Note On - Duracao: 480 Nota: C1 Vol.: 0
Chanel 5 Note Off - Duracao: 480 Nota: C1 Vol.: 0
Chanel 8 Note On - Duracao: 480 Nota: C1 Vol.: 0
Chanel 8 Note Off - Duracao: 480 Nota: C1 Vol.: 0
Chanel 6 Note On - Duracao: 960 Nota: C1 Vol.: 0
Chanel 6 Note Off - Duracao: 960 Nota: C1 Vol.: 0
Chanel 1 Note On - Duracao: 1440 Nota: C1 Vol.: 0
Chanel 1 Note Off - Duracao: 1440 Nota: C1 Vol.: 0
Chanel 2 Note On - Duracao: 1440 Nota: C1 Vol.: 0
Chanel 2 Note Off - Duracao: 1440 Nota: C1 Vol.: 0
Chanel 5 Note On - Duracao: 1440 Nota: C1 Vol.: 0
Chanel 5 Note Off - Duracao: 1440 Nota: C1 Vol.: 0
Chanel 7 Note On - Duracao: 1440 Nota: C1 Vol.: 0
Chanel 7 Note Off - Duracao: 1440 Nota: C1 Vol.: 0
Chanel 7 Note On - Duracao: 1440 Nota: C1 Vol.: 0
Chanel 7 Note Off - Duracao: 1440 Nota: C1 Vol.: 0
Chanel 4 Note On - Duracao: 1920 Nota: C1 Vol.: 0
Chanel 4 Note Off - Duracao: 1920 Nota: C1 Vol.: 0
Chanel 6 Note On - Duracao: 1920 Nota: C1 Vol.: 0
Chanel 6 Note Off - Duracao: 1920 Nota: C1 Vol.: 0
Chanel 6 Note On - Duracao: 1920 Nota: C1 Vol.: 0
Chanel 6 Note Off - Duracao: 1920 Nota: C1 Vol.: 0
Chanel 7 Note On - Duracao: 1920 Nota: C1 Vol.: 0
Chanel 7 Note Off - Duracao: 1920 Nota: C1 Vol.: 0
Chanel 9 Note On - Duracao: 1920 Nota: C1 Vol.: 0
Chanel 9 Note Off - Duracao: 1920 Nota: C1 Vol.: 0
Chanel 10 Note On - Duracao: 1920 Nota: C1 Vol.: 0
Chanel 10 Note Off - Duracao: 1920 Nota: C1 Vol.: 0
Chanel 2 Note On - Duracao: 2400 Nota: C1 Vol.: 0
Chanel 2 Note Off - Duracao: 2400 Nota: C1 Vol.: 0
Chanel 3 Note On - Duracao: 2400 Nota: C1 Vol.: 0
Chanel 3 Note Off - Duracao: 2400 Nota: C1 Vol.: 0
Chanel 5 Note On - Duracao: 2400 Nota: C1 Vol.: 0
Chanel 5 Note Off - Duracao: 2400 Nota: C1 Vol.: 0
Chanel 5 Note On - Duracao: 2400 Nota: C1 Vol.: 0
Chanel 5 Note Off - Duracao: 2400 Nota: C1 Vol.: 0
Chanel 8 Note On - Duracao: 2400 Nota: C1 Vol.: 0
Chanel 8 Note Off - Duracao: 2400 Nota: C1 Vol.: 0
Chanel 3 Note On - Duracao: 2880 Nota: C1 Vol.: 0
Chanel 3 Note Off - Duracao: 2880 Nota: C1 Vol.: 0
Chanel 4 Note On - Duracao: 2880 Nota: C1 Vol.: 0
Chanel 4 Note Off - Duracao: 2880 Nota: C1 Vol.: 0
Chanel 4 Note On - Duracao: 2880 Nota: C1 Vol.: 0
Chanel 4 Note Off - Duracao: 2880 Nota: C1 Vol.: 0
Chanel 5 Note On - Duracao: 2880 Nota: C1 Vol.: 0
Chanel 5 Note Off - Duracao: 2880 Nota: C1 Vol.: 0
Chanel 6 Note On - Duracao: 2880 Nota: C1 Vol.: 0
Chanel 6 Note Off - Duracao: 2880 Nota: C1 Vol.: 0
Chanel 9 Note On - Duracao: 2880 Nota: C1 Vol.: 0
Chanel 9 Note Off - Duracao: 2880 Nota: C1 Vol.: 0
Chanel 1 Note On - Duracao: 3360 Nota: C1 Vol.: 0
Chanel 1 Note Off - Duracao: 3360 Nota: C1 Vol.: 0
Chanel 4 Note On - Duracao: 3360 Nota: C1 Vol.: 0
Chanel 4 Note Off - Duracao: 3360 Nota: C1 Vol.: 0
Chanel 10 Note On - Duracao: 3360 Nota: C1 Vol.: 0
Chanel 10 Note Off - Duracao: 3360 Nota: C1 Vol.: 0
Chanel 10 Note On - Duracao: 3360 Nota: C1 Vol.: 0
Chanel 10 Note Off - Duracao: 3360 Nota: C1 Vol.: 0
Chanel 1 Note On - Duracao: 3840 Nota: C1 Vol.: 0
Chanel 1 Note Off - Duracao: 3840 Nota: C1 Vol.: 0
Chanel 2 Note On - Duracao: 3840 Nota: C1 Vol.: 0
Chanel 2 Note Off - Duracao: 3840 Nota: C1 Vol.: 0
Chanel 2 Note On - Duracao: 3840 Nota: C1 Vol.: 0
Chanel 2 Note Off - Duracao: 3840 Nota: C1 Vol.: 0
Chanel 6 Note On - Duracao: 3840 Nota: C1 Vol.: 0
Chanel 6 Note Off - Duracao: 3840 Nota: C1 Vol.: 0
Chanel 7 Note On - Duracao: 3840 Nota: C1 Vol.: 0
Chanel 7 Note Off - Duracao: 3840 Nota: C1 Vol.: 0
Chanel 1 Note On - Duracao: 4320 Nota: C1 Vol.: 0
Chanel 1 Note Off - Duracao: 4320 Nota: C1 Vol.: 0
Chanel 5 Note On - Duracao: 4320 Nota: C1 Vol.: 0
Chanel 5 Note Off - Duracao: 4320 Nota: C1 Vol.: 0
Chanel 7 Note On - Duracao: 4320 Nota: C1 Vol.: 0
Chanel 7 Note Off - Duracao: 4320 Nota: C1 Vol.: 0
Chanel 7 Note On - Duracao: 4320 Nota: C1 Vol.: 0
Chanel 7 Note Off - Duracao: 4320 Nota: C1 Vol.: 0
Chanel 7 Note On - Duracao: 4320 Nota: C1 Vol.: 0
Chanel 7 Note Off - Duracao: 4320 Nota: C1 Vol.: 0
Chanel 8 Note On - Duracao: 4320 Nota: C1 Vol.: 0
Chanel 8 Note Off - Duracao: 4320 Nota: C1 Vol.: 0
Chanel 3 Note On - Duracao: 4800 Nota: C1 Vol.: 0
Chanel 3 Note Off - Duracao: 4800 Nota: C1 Vol.: 0
Chanel 4 Note On - Duracao: 4800 Nota: C1 Vol.: 0
Chanel 4 Note Off - Duracao: 4800 Nota: C1 Vol.: 0
Chanel 8 Note On - Duracao: 4800 Nota: C1 Vol.: 0
Chanel 8 Note Off - Duracao: 4800 Nota: C1 Vol.: 0
Chanel 9 Note On - Duracao: 4800 Nota: C1 Vol.: 0
Chanel 9 Note Off - Duracao: 4800 Nota: C1 Vol.: 0
Chanel 10 Note On - Duracao: 4800 Nota: C1 Vol.: 0
Chanel 10 Note Off - Duracao: 4800 Nota: C1 Vol.: 0
Chanel 10 Note On - Duracao: 4800 Nota: C1 Vol.: 0
Chanel 10 Note Off - Duracao: 4800 Nota: C1 Vol.: 0
Chanel 3 Note On - Duracao: 5280 Nota: C1 Vol.: 0
Chanel 3 Note Off - Duracao: 5280 Nota: C1 Vol.: 0
Chanel 5 Note On - Duracao: 5280 Nota: C1 Vol.: 0
Chanel 5 Note Off - Duracao: 5280 Nota: C1 Vol.: 0
Chanel 8 Note On - Duracao: 5280 Nota: C1 Vol.: 0
Chanel 8 Note Off - Duracao: 5280 Nota: C1 Vol.: 0
Chanel 1 Note On - Duracao: 5760 Nota: C1 Vol.: 0
Chanel 1 Note Off - Duracao: 5760 Nota: C1 Vol.: 0
Chanel 2 Note On - Duracao: 5760 Nota: C1 Vol.: 0
Chanel 2 Note Off - Duracao: 5760 Nota: C1 Vol.: 0
Chanel 4 Note On - Duracao: 5760 Nota: C1 Vol.: 0
Chanel 4 Note Off - Duracao: 5760 Nota: C1 Vol.: 0
Chanel 5 Note On - Duracao: 5760 Nota: C1 Vol.: 0
Chanel 5 Note Off - Duracao: 5760 Nota: C1 Vol.: 0
Chanel 6 Note On - Duracao: 5760 Nota: C1 Vol.: 0
Chanel 6 Note Off - Duracao: 5760 Nota: C1 Vol.: 0
Chanel 9 Note On - Duracao: 5760 Nota: C1 Vol.: 0
Chanel 9 Note Off - Duracao: 5760 Nota: C1 Vol.: 0
Chanel 9 Note On - Duracao: 5760 Nota: C1 Vol.: 0
Chanel 9 Note Off - Duracao: 5760 Nota: C1 Vol.: 0
Chanel 9 Note On - Duracao: 5760 Nota: C1 Vol.: 0
Chanel 9 Note Off - Duracao: 5760 Nota: C1 Vol.: 0
Chanel 10 Note On - Duracao: 5760 Nota: C1 Vol.: 0
Chanel 10 Note Off - Duracao: 5760 Nota: C1 Vol.: 0
Chanel 1 Note On - Duracao: 6240 Nota: C1 Vol.: 0
Chanel 1 Note Off - Duracao: 6240 Nota: C1 Vol.: 0
Chanel 4 Note On - Duracao: 6240 Nota: C1 Vol.: 0
Chanel 4 Note Off - Duracao: 6240 Nota: C1 Vol.: 0
Chanel 4 Note On - Duracao: 6240 Nota: C1 Vol.: 0
Chanel 4 Note Off - Duracao: 6240 Nota: C1 Vol.: 0
Chanel 7 Note On - Duracao: 6240 Nota: C1 Vol.: 0
Chanel 7 Note Off - Duracao: 6240 Nota: C1 Vol.: 0
Chanel 2 Note On - Duracao: 6720 Nota: C1 Vol.: 0
Chanel 2 Note Off - Duracao: 6720 Nota: C1 Vol.: 0
Chanel 5 Note On - Duracao: 6720 Nota: C1 Vol.: 0
Chanel 5 Note Off - Duracao: 6720 Nota: C1 Vol.: 0
Chanel 3 Note On - Duracao: 7200 Nota: C1 Vol.: 0
Chanel 3 Note Off - Duracao: 7200 Nota: C1 Vol.: 0
Chanel 6 Note On - Duracao: 7200 Nota: C1 Vol.: 0
Chanel 6 Note Off - Duracao: 7200 Nota: C1 Vol.: 0
Chanel 8 Note On - Duracao: 7200 Nota: C1 Vol.: 0
Chanel 8 Note Off - Duracao: 7200 Nota: C1 Vol.: 0
Chanel 8 Note On - Duracao: 7200 Nota: C1 Vol.: 0
Chanel 8 Note Off - Duracao: 7200 Nota: C1 Vol.: 0
Chanel 8 Note On - Duracao: 7200 Nota: C1 Vol.: 0
Chanel 8 Note Off - Duracao: 7200 Nota: C1 Vol.: 0
Chanel 9 Note On - Duracao: 7200 Nota: C1 Vol.: 0
Chanel 9 Note Off - Duracao: 7200 Nota: C1 Vol.: 0
Chanel 2 Note On - Duracao: 7680 Nota: C1 Vol.: 0
Chanel 2 Note Off - Duracao: 7680 Nota: C1 Vol.: 0
Chanel 8 Note On - Duracao: 7680 Nota: C1 Vol.: 0
Chanel 8 Note Off - Duracao: 7680 Nota: C1 Vol.: 0
Chanel 10 Note On - Duracao: 7680 Nota: C1 Vol.: 0
Chanel 10 Note Off - Duracao: 7680 Nota: C1 Vol.: 0
Chanel 10 Note On - Duracao: 7680 Nota: C1 Vol.: 0
Chanel 10 Note Off - Duracao: 7680 Nota: C1 Vol.: 0
Chanel 1 Note On - Duracao: 8160 Nota: C1 Vol.: 0
Chanel 1 Note Off - Duracao: 8160 Nota: C1 Vol.: 0
Chanel 3 Note On - Duracao: 8160 Nota: C1 Vol.: 0
Chanel 3 Note Off - Duracao: 8160 Nota: C1 Vol.: 0
Chanel 4 Note On - Duracao: 8160 Nota: C1 Vol.: 0
Chanel 4 Note Off - Duracao: 8160 Nota: C1 Vol.: 0
Chanel 5 Note On - Duracao: 8160 Nota: C1 Vol.: 0
Chanel 5 Note Off - Duracao: 8160 Nota: C1 Vol.: 0
Chanel 6 Note On - Duracao: 8160 Nota: C1 Vol.: 0
Chanel 6 Note Off - Duracao: 8160 Nota: C1 Vol.: 0
Chanel 6 Note On - Duracao: 8160 Nota: C1 Vol.: 0
Chanel 6 Note Off - Duracao: 8160 Nota: C1 Vol.: 0
Chanel 7 Note On - Duracao: 8160 Nota: C1 Vol.: 0
Chanel 7 Note Off - Duracao: 8160 Nota: C1 Vol.: 0
Chanel 3 Note On - Duracao: 8640 Nota: C1 Vol.: 0
Chanel 3 Note Off - Duracao: 8640 Nota: C1 Vol.: 0
Chanel 5 Note On - Duracao: 8640 Nota: C1 Vol.: 0
Chanel 5 Note Off - Duracao: 8640 Nota: C1 Vol.: 0
Chanel 5 Note On - Duracao: 8640 Nota: C1 Vol.: 0
Chanel 5 Note Off - Duracao: 8640 Nota: C1 Vol.: 0
Chanel 5 Note On - Duracao: 8640 Nota: C1 Vol.: 0
Chanel 5 Note Off - Duracao: 8640 Nota: C1 Vol.: 0
Chanel 8 Note On - Duracao: 8640 Nota: C1 Vol.: 0
Chanel 8 Note Off - Duracao: 8640 Nota: C1 Vol.: 0
Chanel 9 Note On - Duracao: 8640 Nota: C1 Vol.: 0
Chanel 9 Note Off - Duracao: 8640 Nota: C1 Vol.: 0
Chanel 9 Note On - Duracao: 9120 Nota: C1 Vol.: 0
Chanel 9 Note Off - Duracao: 9120 Nota: C1 Vol.: 0
Chanel 10 Note On - Duracao: 9120 Nota: C1 Vol.: 0
Chanel 10 Note Off - Duracao: 9120 Nota: C1 Vol.: 0
Chanel 2 Note On - Duracao: 9600 Nota: C1 Vol.: 0
Chanel 2 Note Off - Duracao: 9600 Nota: C1 Vol.: 0
Chanel 2 Note On - Duracao: 9600 Nota: C1 Vol.: 0
Chanel 2 Note Off - Duracao: 9600 Nota: C1 Vol.: 0
Chanel 6 Note On - Duracao: 9600 Nota: C1 Vol.: 0
Chanel 6 Note Off - Duracao: 9600 Nota: C1 Vol.: 0
Chanel 8 Note On - Duracao: 9600 Nota: C1 Vol.: 0
Chanel 8 Note Off - Duracao: 9600 Nota: C1 Vol.: 0
Chanel 8 Note On - Duracao: 9600 Nota: C1 Vol.: 0
Chanel 8 Note Off - Duracao: 9600 Nota: C1 Vol.: 0
Chanel 8 Note On - Duracao: 9600 Nota: C1 Vol.: 0
Chanel 8 Note Off - Duracao: 9600 Nota: C1 Vol.: 0
Chanel 9 Note On - Duracao: 9600 Nota: C1 Vol.: 0
Chanel 9 Note Off - Duracao: 9600 Nota: C1 Vol.: 0
Chanel 1 Note On - Duracao: 10080 Nota: C1 Vol.: 0
Chanel 1 Note Off - Duracao: 10080 Nota: C1 Vol.: 0
Chanel 4 Note On - Duracao: 10080 Nota: C1 Vol.: 0
Chanel 4 Note Off - Duracao: 10080 Nota: C1 Vol.: 0
Chanel 5 Note On - Duracao: 10080 Nota: C1 Vol.: 0
Chanel 5 Note Off - Duracao: 10080 Nota: C1 Vol.: 0
Chanel 7 Note On - Duracao: 10080 Nota: C1 Vol.: 0
Chanel 7 Note Off - Duracao: 10080 Nota: C1 Vol.: 0
Chanel 10 Note On - Duracao: 10080 Nota: C1 Vol.: 0
Chanel 10 Note Off - Duracao: 10080 Nota: C1 Vol.: 0
Chanel 10 Note On - Duracao: 10080 Nota: C1 Vol.: 0
Chanel 10 Note Off - Duracao: 10080 Nota: C1 Vol.: 0
Chanel 3 Note On - Duracao: 10560 Nota: C1 Vol.: 0
Chanel 3 Note Off - Duracao: 10560 Nota: C1 Vol.: 0
Chanel 6 Note On - Duracao: 10560 Nota: C1 Vol.: 0
Chanel 6 Note Off - Duracao: 10560 Nota: C1 Vol.: 0
Chanel 8 Note On - Duracao: 10560 Nota: C1 Vol.: 0
Chanel 8 Note Off - Duracao: 10560 Nota: C1 Vol.: 0
Chanel 10 Note On - Duracao: 10560 Nota: C1 Vol.: 0
Chanel 10 Note Off - Duracao: 10560 Nota: C1 Vol.: 0
Chanel 1 Note On - Duracao: 11040 Nota: C1 Vol.: 0
Chanel 1 Note Off - Duracao: 11040 Nota: C1 Vol.: 0
Chanel 1 Note On - Duracao: 11040 Nota: C1 Vol.: 0
Chanel 1 Note Off - Duracao: 11040 Nota: C1 Vol.: 0
Chanel 2 Note On - Duracao: 11040 Nota: C1 Vol.: 0
Chanel 2 Note Off - Duracao: 11040 Nota: C1 Vol.: 0
Chanel 8 Note On - Duracao: 11040 Nota: C1 Vol.: 0
Chanel 8 Note Off - Duracao: 11040 Nota: C1 Vol.: 0
Chanel 8 Note On - Duracao: 11040 Nota: C1 Vol.: 0
Chanel 8 Note Off - Duracao: 11040 Nota: C1 Vol.: 0
Chanel 8 Note On - Duracao: 11040 Nota: C1 Vol.: 0
Chanel 8 Note Off - Duracao: 11040 Nota: C1 Vol.: 0
Chanel 9 Note On - Duracao: 11040 Nota: C1 Vol.: 0
Chanel 9 Note Off - Duracao: 11040 Nota: C1 Vol.: 0
Chanel 9 Note On - Duracao: 11040 Nota: C1 Vol.: 0
Chanel 9 Note Off - Duracao: 11040 Nota: C1 Vol.: 0
Chanel 1 Note On - Duracao: 11520 Nota: C1 Vol.: 0
Chanel 1 Note Off - Duracao: 11520 Nota: C1 Vol.: 0
Chanel 4 Note On - Duracao: 11520 Nota: C1 Vol.: 0
Chanel 4 Note Off - Duracao: 11520 Nota: C1 Vol.: 0
Chanel 6 Note On - Duracao: 11520 Nota: C1 Vol.: 0
Chanel 6 Note Off - Duracao: 11520 Nota: C1 Vol.: 0
Chanel 7 Note On - Duracao: 11520 Nota: C1 Vol.: 0
Chanel 7 Note Off - Duracao: 11520 Nota: C1 Vol.: 0
Chanel 7 Note On - Duracao: 11520 Nota: C1 Vol.: 0
Chanel 7 Note Off - Duracao: 11520 Nota: C1 Vol.: 0
Chanel 8 Note On - Duracao: 11520 Nota: C1 Vol.: 0
Chanel 8 Note Off - Duracao: 11520 Nota: C1 Vol.: 0
Chanel 3 Note On - Duracao: 12000 Nota: C1 Vol.: 0
Chanel 3 Note Off - Duracao: 12000 Nota: C1 Vol.: 0
Chanel 5 Note On - Duracao: 12000 Nota: C1 Vol.: 0
Chanel 5 Note Off - Duracao: 12000 Nota: C1 Vol.: 0
Chanel 8 Note On - Duracao: 12000 Nota: C1 Vol.: 0
Chanel 8 Note Off - Duracao: 12000 Nota: C1 Vol.: 0
Chanel 1 Note On - Duracao: 12480 Nota: C1 Vol.: 0
Chanel 1 Note Off - Duracao: 12480 Nota: C1 Vol.: 0
Chanel 6 Note On - Duracao: 12480 Nota: C1 Vol.: 0
Chanel 6 Note Off - Duracao: 12480 Nota: C1 Vol.: 0
Chanel 8 Note On - Duracao: 12480 Nota: C1 Vol.: 0
Chanel 8 Note Off - Duracao: 12480 Nota: C1 Vol.: 0
Chanel 8 Note On - Duracao: 12480 Nota: C1 Vol.: 0
Chanel 8 Note Off - Duracao: 12480 Nota: C1 Vol.: 0
Chanel 10 Note On - Duracao: 12480 Nota: C1 Vol.: 0
Chanel 10 Note Off - Duracao: 12480 Nota: C1 Vol.: 0
Chanel 2 Note On - Duracao: 12960 Nota: C1 Vol.: 0
Chanel 2 Note Off - Duracao: 12960 Nota: C1 Vol.: 0
Chanel 2 Note On - Duracao: 12960 Nota: C1 Vol.: 0
Chanel 2 Note Off - Duracao: 12960 Nota: C1 Vol.: 0
Chanel 3 Note On - Duracao: 12960 Nota: C1 Vol.: 0
Chanel 3 Note Off - Duracao: 12960 Nota: C1 Vol.: 0
Chanel 3 Note On - Duracao: 12960 Nota: C1 Vol.: 0
Chanel 3 Note Off - Duracao: 12960 Nota: C1 Vol.: 0
Chanel 4 Note On - Duracao: 12960 Nota: C1 Vol.: 0
Chanel 4 Note Off - Duracao: 12960 Nota: C1 Vol.: 0
Chanel 5 Note On - Duracao: 12960 Nota: C1 Vol.: 0
Chanel 5 Note Off - Duracao: 12960 Nota: C1 Vol.: 0
Chanel 7 Note On - Duracao: 12960 Nota: C1 Vol.: 0
Chanel 7 Note Off - Duracao: 12960 Nota: C1 Vol.: 0
Chanel 9 Note On - Duracao: 12960 Nota: C1 Vol.: 0
Chanel 9 Note Off - Duracao: 12960 Nota: C1 Vol.: 0
Chanel 10 Note On - Duracao: 12960 Nota: C1 Vol.: 0
Chanel 10 Note Off - Duracao: 12960 Nota: C1 Vol.: 0
Chanel 1 Note On - Duracao: 13440 Nota: C1 Vol.: 0
Chanel 1 Note Off - Duracao: 13440 Nota: C1 Vol.: 0
Chanel 4 Note On - Duracao: 13440 Nota: C1 Vol.: 0
Chanel 4 Note Off - Duracao: 13440 Nota: C1 Vol.: 0
Chanel 4 Note On - Duracao: 13440 Nota: C1 Vol.: 0
Chanel 4 Note Off - Duracao: 13440 Nota: C1 Vol.: 0
Chanel 5 Note On - Duracao: 13440 Nota: C1 Vol.: 0
Chanel 5 Note Off - Duracao: 13440 Nota: C1 Vol.: 0
Chanel 1 Note On - Duracao: 13920 Nota: C1 Vol.: 0
Chanel 1 Note Off - Duracao: 13920 Nota: C1 Vol.: 0
Chanel 7 Note On - Duracao: 13920 Nota: C1 Vol.: 0
Chanel 7 Note Off - Duracao: 13920 Nota: C1 Vol.: 0
Chanel 7 Note On - Duracao: 13920 Nota: C1 Vol.: 0
Chanel 7 Note Off - Duracao: 13920 Nota: C1 Vol.: 0
Chanel 3 Note On - Duracao: 14400 Nota: C1 Vol.: 0
Chanel 3 Note Off - Duracao: 14400 Nota: C1 Vol.: 0
Chanel 6 Note On - Duracao: 14400 Nota: C1 Vol.: 0
Chanel 6 Note Off - Duracao: 14400 Nota: C1 Vol.: 0
Chanel 8 Note On - Duracao: 14400 Nota: C1 Vol.: 0
Chanel 8 Note Off - Duracao: 14400 Nota: C1 Vol.: 0
Chanel 9 Note On - Duracao: 14400 Nota: C1 Vol.: 0
Chanel 9 Note Off - Duracao: 14400 Nota: C1 Vol.: 0
Chanel 2 Note On - Duracao: 14880 Nota: C1 Vol.: 0
Chanel 2 Note Off - Duracao: 14880 Nota: C1 Vol.: 0
Chanel 2 Note On - Duracao: 14880 Nota: C1 Vol.: 0
Chanel 2 Note Off - Duracao: 14880 Nota: C1 Vol.: 0
Chanel 5 Note On - Duracao: 14880 Nota: C1 Vol.: 0
Chanel 5 Note Off - Duracao: 14880 Nota: C1 Vol.: 0
Chanel 10 Note On - Duracao: 14880 Nota: C1 Vol.: 0
Chanel 10 Note Off - Duracao: 14880 Nota: C1 Vol.: 0
Chanel 1 Note On - Duracao: 15360 Nota: C1 Vol.: 0
Chanel 1 Note Off - Duracao: 15360 Nota: C1 Vol.: 0
Chanel 2 Note On - Duracao: 15360 Nota: C1 Vol.: 0
Chanel 2 Note Off - Duracao: 15360 Nota: C1 Vol.: 0
Chanel 3 Note On - Duracao: 15360 Nota: C1 Vol.: 0
Chanel 3 Note Off - Duracao: 15360 Nota: C1 Vol.: 0
Chanel 4 Note On - Duracao: 15360 Nota: C1 Vol.: 0
Chanel 4 Note Off - Duracao: 15360 Nota: C1 Vol.: 0
Chanel 4 Note On - Duracao: 15360 Nota: C1 Vol.: 0
Chanel 4 Note Off - Duracao: 15360 Nota: C1 Vol.: 0
Chanel 7 Note On - Duracao: 15360 Nota: C1 Vol.: 0
Chanel 7 Note Off - Duracao: 15360 Nota: C1 Vol.: 0
Chanel 1 Note On - Duracao: 15840 Nota: C1 Vol.: 0
Chanel 1 Note Off - Duracao: 15840 Nota: C1 Vol.: 0
Chanel 5 Note On - Duracao: 15840 Nota: C1 Vol.: 0
Chanel 5 Note Off - Duracao: 15840 Nota: C1 Vol.: 0
Chanel 5 Note On - Duracao: 15840 Nota: C1 Vol.: 0
Chanel 5 Note Off - Duracao: 15840 Nota: C1 Vol.: 0
Chanel 6 Note On - Duracao: 15840 Nota: C1 Vol.: 0
Chanel 6 Note Off - Duracao: 15840 Nota: C1 Vol.: 0
Chanel 8 Note On - Duracao: 15840 Nota: C1 Vol.: 0
Chanel 8 Note Off - Duracao: 15840 Nota: C1 Vol.: 0
Chanel 8 Note On - Duracao: 15840 Nota: C1 Vol.: 0
Chanel 8 Note Off - Duracao: 15840 Nota: C1 Vol.: 0
Chanel 9 Note On - Duracao: 15840 Nota: C1 Vol.: 0
Chanel 9 Note Off - Duracao: 15840 Nota: C1 Vol.: 0
Chanel 9 Note On - Duracao: 15840 Nota: C1 Vol.: 0
Chanel 9 Note Off - Duracao: 15840 Nota: C1 Vol.: 0
Chanel 9 Note On - Duracao: 15840 Nota: C1 Vol.: 0
Chanel 9 Note Off - Duracao: 15840 Nota: C1 Vol.: 0
Chanel 5 Note On - Duracao: 16320 Nota: C1 Vol.: 0
Chanel 5 Note Off - Duracao: 16320 Nota: C1 Vol.: 0
Chanel 5 Note On - Duracao: 16320 Nota: C1 Vol.: 0
Chanel 5 Note Off - Duracao: 16320 Nota: C1 Vol.: 0
Chanel 7 Note On - Duracao: 16320 Nota: C1 Vol.: 0
Chanel 7 Note Off - Duracao: 16320 Nota: C1 Vol.: 0
Chanel 3 Note On - Duracao: 16800 Nota: C1 Vol.: 0
Chanel 3 Note Off - Duracao: 16800 Nota: C1 Vol.: 0
Chanel 4 Note On - Duracao: 16800 Nota: C1 Vol.: 0
Chanel 4 Note Off - Duracao: 16800 Nota: C1 Vol.: 0
Chanel 5 Note On - Duracao: 16800 Nota: C1 Vol.: 0
Chanel 5 Note Off - Duracao: 16800 Nota: C1 Vol.: 0
Chanel 7 Note On - Duracao: 16800 Nota: C1 Vol.: 0
Chanel 7 Note Off - Duracao: 16800 Nota: C1 Vol.: 0
Chanel 7 Note On - Duracao: 16800 Nota: C1 Vol.: 0
Chanel 7 Note Off - Duracao: 16800 Nota: C1 Vol.: 0
Chanel 7 Note On - Duracao: 16800 Nota: C1 Vol.: 0
Chanel 7 Note Off - Duracao: 16800 Nota: C1 Vol.: 0
Chanel 10 Note On - Duracao: 16800 Nota: C1 Vol.: 0
Chanel 10 Note Off - Duracao: 16800 Nota: C1 Vol.: 0
Chanel 2 Note On - Duracao: 17280 Nota: C1 Vol.: 0
Chanel 2 Note Off - Duracao: 17280 Nota: C1 Vol.: 0
Chanel 4 Note On - Duracao: 17280 Nota: C1 Vol.: 0
Chanel 4 Note Off - Duracao: 17280 Nota: C1 Vol.: 0
Chanel 1 Note On - Duracao: 17760 Nota: C1 Vol.: 0
Chanel 1 Note Off - Duracao: 17760 Nota: C1 Vol.: 0
Chanel 3 Note On - Duracao: 17760 Nota: C1 Vol.: 0
Chanel 3 Note Off - Duracao: 17760 Nota: C1 Vol.: 0
Chanel 6 Note On - Duracao: 17760 Nota: C1 Vol.: 0
Chanel 6 Note Off - Duracao: 17760 Nota: C1 Vol.: 0
Chanel 8 Note On - Duracao: 17760 Nota: C1 Vol.: 0
Chanel 8 Note Off - Duracao: 17760 Nota: C1 Vol.: 0
Chanel 9 Note On - Duracao: 17760 Nota: C1 Vol.: 0
Chanel 9 Note Off - Duracao: 17760 Nota: C1 Vol.: 0
Chanel 10 Note On - Duracao: 17760 Nota: C1 Vol.: 0
Chanel 10 Note Off - Duracao: 17760 Nota: C1 Vol.: 0
Chanel 2 Note On - Duracao: 18240 Nota: C1 Vol.: 0
Chanel 2 Note Off - Duracao: 18240 Nota: C1 Vol.: 0
Chanel 2 Note On - Duracao: 18240 Nota: C1 Vol.: 0
Chanel 2 Note Off - Duracao: 18240 Nota: C1 Vol.: 0
Chanel 2 Note On - Duracao: 18240 Nota: C1 Vol.: 0
Chanel 2 Note Off - Duracao: 18240 Nota: C1 Vol.: 0
Chanel 5 Note On - Duracao: 18720 Nota: C1 Vol.: 0
Chanel 5 Note Off - Duracao: 18720 Nota: C1 Vol.: 0
Chanel 7 Note On - Duracao: 18720 Nota: C1 Vol.: 0
Chanel 7 Note Off - Duracao: 18720 Nota: C1 Vol.: 0
Chanel 9 Note On - Duracao: 18720 Nota: C1 Vol.: 0
Chanel 9 Note Off - Duracao: 18720 Nota: C1 Vol.: 0
Chanel 1 Note On - Duracao: 19200 Nota: C1 Vol.: 0
Chanel 1 Note Off - Duracao: 19200 Nota: C1 Vol.: 0
Chanel 1 Note On - Duracao: 19200 Nota: C1 Vol.: 0
Chanel 1 Note Off - Duracao: 19200 Nota: C1 Vol.: 0
Chanel 3 Note On - Duracao: 19200 Nota: C1 Vol.: 0
Chanel 3 Note Off - Duracao: 19200 Nota: C1 Vol.: 0
Chanel 3 Note On - Duracao: 19200 Nota: C1 Vol.: 0
Chanel 3 Note Off - Duracao: 19200 Nota: C1 Vol.: 0
Chanel 4 Note On - Duracao: 19200 Nota: C1 Vol.: 0
Chanel 4 Note Off - Duracao: 19200 Nota: C1 Vol.: 0
Chanel 4 Note On - Duracao: 19200 Nota: C1 Vol.: 0
Chanel 4 Note Off - Duracao: 19200 Nota: C1 Vol.: 0
Chanel 6 Note On - Duracao: 19200 Nota: C1 Vol.: 0
Chanel 6 Note Off - Duracao: 19200 Nota: C1 Vol.: 0
Chanel 9 Note On - Duracao: 19200 Nota: C1 Vol.: 0
Chanel 9 Note Off - Duracao: 19200 Nota: C1 Vol.: 0
Chanel 9 Note On - Duracao: 19200 Nota: C1 Vol.: 0
Chanel 9 Note Off - Duracao: 19200 Nota: C1 Vol.: 0
Chanel 10 Note On - Duracao: 19200 Nota: C1 Vol.: 0
Chanel 10 Note Off - Duracao: 19200 Nota: C1 Vol.: 0
Chanel 2 Note On - Duracao: 19680 Nota: C1 Vol.: 0
Chanel 2 Note Off - Duracao: 19680 Nota: C1 Vol.: 0
Chanel 5 Note On - Duracao: 19680 Nota: C1 Vol.: 0
Chanel 5 Note Off - Duracao: 19680 Nota: C1 Vol.: 0
Chanel 7 Note On - Duracao: 19680 Nota: C1 Vol.: 0
Chanel 7 Note Off - Duracao: 19680 Nota: C1 Vol.: 0
Chanel 7 Note On - Duracao: 19680 Nota: C1 Vol.: 0
Chanel 7 Note Off - Duracao: 19680 Nota: C1 Vol.: 0
Chanel 8 Note On - Duracao: 19680 Nota: C1 Vol.: 0
Chanel 8 Note Off - Duracao: 19680 Nota: C1 Vol.: 0
Chanel 9 Note On - Duracao: 19680 Nota: C1 Vol.: 0
Chanel 9 Note Off - Duracao: 19680 Nota: C1 Vol.: 0
Chanel 9 Note On - Duracao: 19680 Nota: C1 Vol.: 0
Chanel 9 Note Off - Duracao: 19680 Nota: C1 Vol.: 0
Chanel 3 Note On - Duracao: 20160 Nota: C1 Vol.: 0
Chanel 3 Note Off - Duracao: 20160 Nota: C1 Vol.: 0
Chanel 3 Note On - Duracao: 20160 Nota: C1 Vol.: 0
Chanel 3 Note Off - Duracao: 20160 Nota: C1 Vol.: 0
Chanel 5 Note On - Duracao: 20160 Nota: C1 Vol.: 0
Chanel 5 Note Off - Duracao: 20160 Nota: C1 Vol.: 0
Chanel 8 Note On - Duracao: 20160 Nota: C1 Vol.: 0
Chanel 8 Note Off - Duracao: 20160 Nota: C1 Vol.: 0
Chanel 9 Note On - Duracao: 20160 Nota: C1 Vol.: 0
Chanel 9 Note Off - Duracao: 20160 Nota: C1 Vol.: 0
Chanel 9 Note On - Duracao: 20160 Nota: C1 Vol.: 0
Chanel 9 Note Off - Duracao: 20160 Nota: C1 Vol.: 0
Chanel 10 Note On - Duracao: 20160 Nota: C1 Vol.: 0
Chanel 10 Note Off - Duracao: 20160 Nota: C1 Vol.: 0
Chanel 10 Note On - Duracao: 20160 Nota: C1 Vol.: 0
Chanel 10 Note Off - Duracao: 20160 Nota: C1 Vol.: 0
Chanel 10 Note On - Duracao: 20160 Nota: C1 Vol.: 0
Chanel 10 Note Off - Duracao: 20160 Nota: C1 Vol.: 0
Chanel 2 Note On - Duracao: 20640 Nota: C1 Vol.: 0
Chanel 2 Note Off - Duracao: 20640 Nota: C1 Vol.: 0
Chanel 6 Note On - Duracao: 20640 Nota: C1 Vol.: 0
Chanel 6 Note Off - Duracao: 20640 Nota: C1 Vol.: 0
Chanel 7 Note On - Duracao: 20640 Nota: C1 Vol.: 0
Chanel 7 Note Off - Duracao: 20640 Nota: C1 Vol.: 0
Chanel 7 Note On - Duracao: 20640 Nota: C1 Vol.: 0
Chanel 7 Note Off - Duracao: 20640 Nota: C1 Vol.: 0
Chanel 7 Note On - Duracao: 20640 Nota: C1 Vol.: 0
Chanel 7 Note Off - Duracao: 20640 Nota: C1 Vol.: 0
Chanel 7 Note On - Duracao: 20640 Nota: C1 Vol.: 0
Chanel 7 Note Off - Duracao: 20640 Nota: C1 Vol.: 0
Chanel 1 Note On - Duracao: 21120 Nota: C1 Vol.: 0
Chanel 1 Note Off - Duracao: 21120 Nota: C1 Vol.: 0
Chanel 4 Note On - Duracao: 21120 Nota: C1 Vol.: 0
Chanel 4 Note Off - Duracao: 21120 Nota: C1 Vol.: 0
Chanel 5 Note On - Duracao: 21120 Nota: C1 Vol.: 0
Chanel 5 Note Off - Duracao: 21120 Nota: C1 Vol.: 0
Chanel 5 Note On - Duracao: 21120 Nota: C1 Vol.: 0
Chanel 5 Note Off - Duracao: 21120 Nota: C1 Vol.: 0
Chanel 9 Note On - Duracao: 21120 Nota: C1 Vol.: 0
Chanel 9 Note Off - Duracao: 21120 Nota: C1 Vol.: 0
Chanel 10 Note On - Duracao: 21120 Nota: C1 Vol.: 0
Chanel 10 Note Off - Duracao: 21120 Nota: C1 Vol.: 0
Chanel 1 Note On - Duracao: 21600 Nota: C1 Vol.: 0
Chanel 1 Note Off - Duracao: 21600 Nota: C1 Vol.: 0
Chanel 6 Note On - Duracao: 21600 Nota: C1 Vol.: 0
Chanel 6 Note Off - Duracao: 21600 Nota: C1 Vol.: 0
Chanel 7 Note On - Duracao: 21600 Nota: C1 Vol.: 0
Chanel 7 Note Off - Duracao: 21600 Nota: C1 Vol.: 0
Chanel 8 Note On - Duracao: 21600 Nota: C1 Vol.: 0
Chanel 8 Note Off - Duracao: 21600 Nota: C1 Vol.: 0
Chanel 3 Note On - Duracao: 22080 Nota: C1 Vol.: 0
Chanel 3 Note Off - Duracao: 22080 Nota: C1 Vol.: 0
Chanel 5 Note On - Duracao: 22080 Nota: C1 Vol.: 0
Chanel 5 Note Off - Duracao: 22080 Nota: C1 Vol.: 0
Chanel 10 Note On - Duracao: 22080 Nota: C1 Vol.: 0
Chanel 10 Note Off - Duracao: 22080 Nota: C1 Vol.: 0
Chanel 2 Note On - Duracao: 22560 Nota: C1 Vol.: 0
Chanel 2 Note Off - Duracao: 22560 Nota: C1 Vol.: 0
Chanel 2 Note On - Duracao: 22560 Nota: C1 Vol.: 0
Chanel 2 Note Off - Duracao: 22560 Nota: C1 Vol.: 0
Chanel 4 Note On - Duracao: 22560 Nota: C1 Vol.: 0
Chanel 4 Note Off - Duracao: 22560 Nota: C1 Vol.: 0
Chanel 9 Note On - Duracao: 22560 Nota: C1 Vol.: 0
Chanel 9 Note Off - Duracao: 22560 Nota: C1 Vol.: 0
Chanel 1 Note On - Duracao: 23040 Nota: C1 Vol.: 0
Chanel 1 Note Off - Duracao: 23040 Nota: C1 Vol.: 0
Chanel 6 Note On - Duracao: 23040 Nota: C1 Vol.: 0
Chanel 6 Note Off - Duracao: 23040 Nota: C1 Vol.: 0
Chanel 6 Note On - Duracao: 23040 Nota: C1 Vol.: 0
Chanel 6 Note Off - Duracao: 23040 Nota: C1 Vol.: 0
Chanel 8 Note On - Duracao: 23040 Nota: C1 Vol.: 0
Chanel 8 Note Off - Duracao: 23040 Nota: C1 Vol.: 0
Chanel 10 Note On - Duracao: 23040 Nota: C1 Vol.: 0
Chanel 10 Note Off - Duracao: 23040 Nota: C1 Vol.: 0
Chanel 3 Note On - Duracao: 23520 Nota: C1 Vol.: 0
Chanel 3 Note Off - Duracao: 23520 Nota: C1 Vol.: 0
Chanel 7 Note On - Duracao: 23520 Nota: C1 Vol.: 0
Chanel 7 Note Off - Duracao: 23520 Nota: C1 Vol.: 0
Chanel 2 Note On - Duracao: 24000 Nota: C1 Vol.: 0
Chanel 2 Note Off - Duracao: 24000 Nota: C1 Vol.: 0
Chanel 4 Note On - Duracao: 24000 Nota: C1 Vol.: 0
Chanel 4 Note Off - Duracao: 24000 Nota: C1 Vol.: 0
Chanel 4 Note On - Duracao: 24000 Nota: C1 Vol.: 0
Chanel 4 Note Off - Duracao: 24000 Nota: C1 Vol.: 0
Chanel 5 Note On - Duracao: 24000 Nota: C1 Vol.: 0
Chanel 5 Note Off - Duracao: 24000 Nota: C1 Vol.: 0
Chanel 6 Note On - Duracao: 24000 Nota: C1 Vol.: 0
Chanel 6 Note Off - Duracao: 24000 Nota: C1 Vol.: 0
Chanel 6 Note On - Duracao: 24000 Nota: C1 Vol.: 0
Chanel 6 Note Off - Duracao: 24000 Nota: C1 Vol.: 0
Chanel 8 Note On - Duracao: 24000 Nota: C1 Vol.: 0
Chanel 8 Note Off - Duracao: 24000 Nota: C1 Vol.: 0
Chanel 9 Note On - Duracao: 24000 Nota: C1 Vol.: 0
Chanel 9 Note Off - Duracao: 24000 Nota: C1 Vol.: 0
Chanel 10 Note On - Duracao: 24000 Nota: C1 Vol.: 0
Chanel 10 Note Off - Duracao: 24000 Nota: C1 Vol.: 0
Chanel 6 Note On - Duracao: 24480 Nota: C1 Vol.: 0
Chanel 6 Note Off - Duracao: 24480 Nota: C1 Vol.: 0
Chanel 7 Note On - Duracao: 24480 Nota: C1 Vol.: 0
Chanel 7 Note Off - Duracao: 24480 Nota: C1 Vol.: 0
Chanel 7 Note On - Duracao: 24480 Nota: C1 Vol.: 0
Chanel 7 Note Off - Duracao: 24480 Nota: C1 Vol.: 0
Chanel 10 Note On - Duracao: 24480 Nota: C1 Vol.: 0
Chanel 10 Note Off - Duracao: 24480 Nota: C1 Vol.: 0
Chanel 1 Note On - Duracao: 24960 Nota: C1 Vol.: 0
Chanel 1 Note Off - Duracao: 24960 Nota: C1 Vol.: 0
Chanel 1 Note On - Duracao: 24960 Nota: C1 Vol.: 0
Chanel 1 Note Off - Duracao: 24960 Nota: C1 Vol.: 0
Chanel 2 Note On - Duracao: 24960 Nota: C1 Vol.: 0
Chanel 2 Note Off - Duracao: 24960 Nota: C1 Vol.: 0
Chanel 3 Note On - Duracao: 25440 Nota: C1 Vol.: 0
Chanel 3 Note Off - Duracao: 25440 Nota: C1 Vol.: 0
Chanel 4 Note On - Duracao: 25440 Nota: C1 Vol.: 0
Chanel 4 Note Off - Duracao: 25440 Nota: C1 Vol.: 0
Chanel 5 Note On - Duracao: 25440 Nota: C1 Vol.: 0
Chanel 5 Note Off - Duracao: 25440 Nota: C1 Vol.: 0
Chanel 5 Note On - Duracao: 25440 Nota: C1 Vol.: 0
Chanel 5 Note Off - Duracao: 25440 Nota: C1 Vol.: 0
Chanel 7 Note On - Duracao: 25440 Nota: C1 Vol.: 0
Chanel 7 Note Off - Duracao: 25440 Nota: C1 Vol.: 0
Chanel 8 Note On - Duracao: 25440 Nota: C1 Vol.: 0
Chanel 8 Note Off - Duracao: 25440 Nota: C1 Vol.: 0
Chanel 9 Note On - Duracao: 25920 Nota: C1 Vol.: 0
Chanel 9 Note Off - Duracao: 25920 Nota: C1 Vol.: 0
Chanel 10 Note On - Duracao: 25920 Nota: C1 Vol.: 0
Chanel 10 Note Off - Duracao: 25920 Nota: C1 Vol.: 0
Chanel 2 Note On - Duracao: 26400 Nota: C1 Vol.: 0
Chanel 2 Note Off - Duracao: 26400 Nota: C1 Vol.: 0
Chanel 6 Note On - Duracao: 26400 Nota: C1 Vol.: 0
Chanel 6 Note Off - Duracao: 26400 Nota: C1 Vol.: 0
Chanel 7 Note On - Duracao: 26400 Nota: C1 Vol.: 0
Chanel 7 Note Off - Duracao: 26400 Nota: C1 Vol.: 0
Chanel 1 Note On - Duracao: 26880 Nota: C1 Vol.: 0
Chanel 1 Note Off - Duracao: 26880 Nota: C1 Vol.: 0
Chanel 1 Note On - Duracao: 26880 Nota: C1 Vol.: 0
Chanel 1 Note Off - Duracao: 26880 Nota: C1 Vol.: 0
Chanel 1 Note On - Duracao: 26880 Nota: C1 Vol.: 0
Chanel 1 Note Off - Duracao: 26880 Nota: C1 Vol.: 0
Chanel 3 Note On - Duracao: 26880 Nota: C1 Vol.: 0
Chanel 3 Note Off - Duracao: 26880 Nota: C1 Vol.: 0
Chanel 3 Note On - Duracao: 26880 Nota: C1 Vol.: 0
Chanel 3 Note Off - Duracao: 26880 Nota: C1 Vol.: 0
Chanel 5 Note On - Duracao: 26880 Nota: C1 Vol.: 0
Chanel 5 Note Off - Duracao: 26880 Nota: C1 Vol.: 0
Chanel 5 Note On - Duracao: 26880 Nota: C1 Vol.: 0
Chanel 5 Note Off - Duracao: 26880 Nota: C1 Vol.: 0
Chanel 8 Note On - Duracao: 26880 Nota: C1 Vol.: 0
Chanel 8 Note Off - Duracao: 26880 Nota: C1 Vol.: 0
Chanel 8 Note On - Duracao: 26880 Nota: C1 Vol.: 0
Chanel 8 Note Off - Duracao: 26880 Nota: C1 Vol.: 0
Chanel 8 Note On - Duracao: 26880 Nota: C1 Vol.: 0
Chanel 8 Note Off - Duracao: 26880 Nota: C1 Vol.: 0
Chanel 3 Note On - Duracao: 27360 Nota: C1 Vol.: 0
Chanel 3 Note Off - Duracao: 27360 Nota: C1 Vol.: 0
Chanel 4 Note On - Duracao: 27360 Nota: C1 Vol.: 0
Chanel 4 Note Off - Duracao: 27360 Nota: C1 Vol.: 0
Chanel 4 Note On - Duracao: 27360 Nota: C1 Vol.: 0
Chanel 4 Note Off - Duracao: 27360 Nota: C1 Vol.: 0
Chanel 5 Note On - Duracao: 27360 Nota: C1 Vol.: 0
Chanel 5 Note Off - Duracao: 27360 Nota: C1 Vol.: 0
Chanel 7 Note On - Duracao: 27360 Nota: C1 Vol.: 0
Chanel 7 Note Off - Duracao: 27360 Nota: C1 Vol.: 0
Chanel 8 Note On - Duracao: 27360 Nota: C1 Vol.: 0
Chanel 8 Note Off - Duracao: 27360 Nota: C1 Vol.: 0
Chanel 9 Note On - Duracao: 27360 Nota: C1 Vol.: 0
Chanel 9 Note Off - Duracao: 27360 Nota: C1 Vol.: 0
Chanel 1 Note On - Duracao: 27840 Nota: C1 Vol.: 0
Chanel 1 Note Off - Duracao: 27840 Nota: C1 Vol.: 0
Chanel 2 Note On - Duracao: 27840 Nota: C1 Vol.: 0
Chanel 2 Note Off - Duracao: 27840 Nota: C1 Vol.: 0
Chanel 5 Note On - Duracao: 27840 Nota: C1 Vol.: 0
Chanel 5 Note Off - Duracao: 27840 Nota: C1 Vol.: 0
Chanel 8 Note On - Duracao: 27840 Nota: C1 Vol.: 0
Chanel 8 Note Off - Duracao: 27840 Nota: C1 Vol.: 0
Chanel 10 Note On - Duracao: 27840 Nota: C1 Vol.: 0
Chanel 10 Note Off - Duracao: 27840 Nota: C1 Vol.: 0
Chanel 2 Note On - Duracao: 28320 Nota: C1 Vol.: 0
Chanel 2 Note Off - Duracao: 28320 Nota: C1 Vol.: 0
Chanel 6 Note On - Duracao: 28320 Nota: C1 Vol.: 0
Chanel 6 Note Off - Duracao: 28320 Nota: C1 Vol.: 0
Chanel 7 Note On - Duracao: 28320 Nota: C1 Vol.: 0
Chanel 7 Note Off - Duracao: 28320 Nota: C1 Vol.: 0
Chanel 10 Note On - Duracao: 28320 Nota: C1 Vol.: 0
Chanel 10 Note Off - Duracao: 28320 Nota: C1 Vol.: 0
Chanel 3 Note On - Duracao: 28800 Nota: C1 Vol.: 0
Chanel 3 Note Off - Duracao: 28800 Nota: C1 Vol.: 0
Chanel 4 Note On - Duracao: 28800 Nota: C1 Vol.: 0
Chanel 4 Note Off - Duracao: 28800 Nota: C1 Vol.: 0
Chanel 7 Note On - Duracao: 28800 Nota: C1 Vol.: 0
Chanel 7 Note Off - Duracao: 28800 Nota: C1 Vol.: 0
Chanel 9 Note On - Duracao: 28800 Nota: C1 Vol.: 0
Chanel 9 Note Off - Duracao: 28800 Nota: C1 Vol.: 0
Chanel 9 Note On - Duracao: 28800 Nota: C1 Vol.: 0
Chanel 9 Note Off - Duracao: 28800 Nota: C1 Vol.: 0
Chanel 5 Note On - Duracao: 29280 Nota: C1 Vol.: 0
Chanel 5 Note Off - Duracao: 29280 Nota: C1 Vol.: 0
Chanel 5 Note On - Duracao: 29280 Nota: C1 Vol.: 0
Chanel 5 Note Off - Duracao: 29280 Nota: C1 Vol.: 0
Chanel 8 Note On - Duracao: 29280 Nota: C1 Vol.: 0
Chanel 8 Note Off - Duracao: 29280 Nota: C1 Vol.: 0
Chanel 10 Note On - Duracao: 29280 Nota: C1 Vol.: 0
Chanel 10 Note Off - Duracao: 29280 Nota: C1 Vol.: 0
Chanel 1 Note On - Duracao: 29760 Nota: C1 Vol.: 0
Chanel 1 Note Off - Duracao: 29760 Nota: C1 Vol.: 0
Chanel 1 Note On - Duracao: 29760 Nota: C1 Vol.: 0
Chanel 1 Note Off - Duracao: 29760 Nota: C1 Vol.: 0
Chanel 3 Note On - Duracao: 29760 Nota: C1 Vol.: 0
Chanel 3 Note Off - Duracao: 29760 Nota: C1 Vol.: 0
Chanel 6 Note On - Duracao: 29760 Nota: C1 Vol.: 0
Chanel 6 Note Off - Duracao: 29760 Nota: C1 Vol.: 0
Chanel 9 Note On - Duracao: 29760 Nota: C1 Vol.: 0
Chanel 9 Note Off - Duracao: 29760 Nota: C1 Vol.: 0
Chanel 2 Note On - Duracao: 30240 Nota: C1 Vol.: 0
Chanel 2 Note Off - Duracao: 30240 Nota: C1 Vol.: 0
Chanel 4 Note On - Duracao: 30240 Nota: C1 Vol.: 0
Chanel 4 Note Off - Duracao: 30240 Nota: C1 Vol.: 0
Chanel 6 Note On - Duracao: 30240 Nota: C1 Vol.: 0
Chanel 6 Note Off - Duracao: 30240 Nota: C1 Vol.: 0
Chanel 7 Note On - Duracao: 30240 Nota: C1 Vol.: 0
Chanel 7 Note Off - Duracao: 30240 Nota: C1 Vol.: 0
Chanel 2 Note On - Duracao: 30720 Nota: C1 Vol.: 0
Chanel 2 Note Off - Duracao: 30720 Nota: C1 Vol.: 0
Chanel 2 Note On - Duracao: 30720 Nota: C1 Vol.: 0
Chanel 2 Note Off - Duracao: 30720 Nota: C1 Vol.: 0
Chanel 3 Note On - Duracao: 30720 Nota: C1 Vol.: 0
Chanel 3 Note Off - Duracao: 30720 Nota: C1 Vol.: 0
Chanel 8 Note On - Duracao: 30720 Nota: C1 Vol.: 0
Chanel 8 Note Off - Duracao: 30720 Nota: C1 Vol.: 0
Chanel 1 Note On - Duracao: 31200 Nota: C1 Vol.: 0
Chanel 1 Note Off - Duracao: 31200 Nota: C1 Vol.: 0
Chanel 1 Note On - Duracao: 31200 Nota: C1 Vol.: 0
Chanel 1 Note Off - Duracao: 31200 Nota: C1 Vol.: 0
Chanel 4 Note On - Duracao: 31200 Nota: C1 Vol.: 0
Chanel 4 Note Off - Duracao: 31200 Nota: C1 Vol.: 0
Chanel 4 Note On - Duracao: 31200 Nota: C1 Vol.: 0
Chanel 4 Note Off - Duracao: 31200 Nota: C1 Vol.: 0
Chanel 5 Note On - Duracao: 31200 Nota: C1 Vol.: 0
Chanel 5 Note Off - Duracao: 31200 Nota: C1 Vol.: 0
Chanel 7 Note On - Duracao: 31200 Nota: C1 Vol.: 0
Chanel 7 Note Off - Duracao: 31200 Nota: C1 Vol.: 0
Chanel 10 Note On - Duracao: 31200 Nota: C1 Vol.: 0
Chanel 10 Note Off - Duracao: 31200 Nota: C1 Vol.: 0
Chanel 10 Note On - Duracao: 31200 Nota: C1 Vol.: 0
Chanel 10 Note Off - Duracao: 31200 Nota: C1 Vol.: 0
Chanel 1 Note On - Duracao: 31680 Nota: C1 Vol.: 0
Chanel 1 Note Off - Duracao: 31680 Nota: C1 Vol.: 0
Chanel 2 Note On - Duracao: 31680 Nota: C1 Vol.: 0
Chanel 2 Note Off - Duracao: 31680 Nota: C1 Vol.: 0
Chanel 2 Note On - Duracao: 31680 Nota: C1 Vol.: 0
Chanel 2 Note Off - Duracao: 31680 Nota: C1 Vol.: 0
Chanel 4 Note On - Duracao: 31680 Nota: C1 Vol.: 0
Chanel 4 Note Off - Duracao: 31680 Nota: C1 Vol.: 0
Chanel 5 Note On - Duracao: 31680 Nota: C1 Vol.: 0
Chanel 5 Note Off - Duracao: 31680 Nota: C1 Vol.: 0
Chanel 6 Note On - Duracao: 31680 Nota: C1 Vol.: 0
Chanel 6 Note Off - Duracao: 31680 Nota: C1 Vol.: 0
Chanel 9 Note On - Duracao: 31680 Nota: C1 Vol.: 0
Chanel 9 Note Off - Duracao: 31680 Nota: C1 Vol.: 0
Chanel 9 Note On - Duracao: 31680 Nota: C1 Vol.: 0
Chanel 9 Note Off - Duracao: 31680 Nota: C1 Vol.: 0
Chanel 3 Note On - Duracao: 32160 Nota: C1 Vol.: 0
Chanel 3 Note Off - Duracao: 32160 Nota: C1 Vol.: 0
Chanel 9 Note On - Duracao: 32160 Nota: C1 Vol.: 0
Chanel 9 Note Off - Duracao: 32160 Nota: C1 Vol.: 0
Chanel 9 Note On - Duracao: 32160 Nota: C1 Vol.: 0
Chanel 9 Note Off - Duracao: 32160 Nota: C1 Vol.: 0
Chanel 2 Note On - Duracao: 32640 Nota: C1 Vol.: 0
Chanel 2 Note Off - Duracao: 32640 Nota: C1 Vol.: 0
Chanel 6 Note On - Duracao: 32640 Nota: C1 Vol.: 0
Chanel 6 Note Off - Duracao: 32640 Nota: C1 Vol.: 0
Chanel 6 Note On - Duracao: 32640 Nota: C1 Vol.: 0
Chanel 6 Note Off - Duracao: 32640 Nota: C1 Vol.: 0
Chanel 7 Note On - Duracao: 32640 Nota: C1 Vol.: 0
Chanel 7 Note Off - Duracao: 32640 Nota: C1 Vol.: 0
Chanel 8 Note On - Duracao: 32640 Nota: C1 Vol.: 0
Chanel 8 Note Off - Duracao: 32640 Nota: C1 Vol.: 0
Chanel 8 Note On - Duracao: 32640 Nota: C1 Vol.: 0
Chanel 8 Note Off - Duracao: 32640 Nota: C1 Vol.: 0
Chanel 10 Note On - Duracao: 32640 Nota: C1 Vol.: 0
Chanel 10 Note Off - Duracao: 32640 Nota: C1 Vol.: 0
Chanel 4 Note On - Duracao: 33120 Nota: C1 Vol.: 0
Chanel 4 Note Off - Duracao: 33120 Nota: C1 Vol.: 0
Chanel 4 Note On - Duracao: 33120 Nota: C1 Vol.: 0
Chanel 4 Note Off - Duracao: 33120 Nota: C1 Vol.: 0
Chanel 5 Note On - Duracao: 33120 Nota: C1 Vol.: 0
Chanel 5 Note Off - Duracao: 33120 Nota: C1 Vol.: 0
Chanel 1 Note On - Duracao: 33600 Nota: C1 Vol.: 0
Chanel 1 Note Off - Duracao: 33600 Nota: C1 Vol.: 0
Chanel 7 Note On - Duracao: 33600 Nota: C1 Vol.: 0
Chanel 7 Note Off - Duracao: 33600 Nota: C1 Vol.: 0
Chanel 9 Note On - Duracao: 33600 Nota: C1 Vol.: 0
Chanel 9 Note Off - Duracao: 33600 Nota: C1 Vol.: 0
Chanel 3 Note On - Duracao: 34080 Nota: C1 Vol.: 0
Chanel 3 Note Off - Duracao: 34080 Nota: C1 Vol.: 0
Chanel 8 Note On - Duracao: 34080 Nota: C1 Vol.: 0
Chanel 8 Note Off - Duracao: 34080 Nota: C1 Vol.: 0
Chanel 9 Note On - Duracao: 34080 Nota: C1 Vol.: 0
Chanel 9 Note Off - Duracao: 34080 Nota: C1 Vol.: 0
Chanel 9 Note On - Duracao: 34080 Nota: C1 Vol.: 0
Chanel 9 Note Off - Duracao: 34080 Nota: C1 Vol.: 0
Chanel 10 Note On - Duracao: 34080 Nota: C1 Vol.: 0
Chanel 10 Note Off - Duracao: 34080 Nota: C1 Vol.: 0
Chanel 2 Note On - Duracao: 34560 Nota: C1 Vol.: 0
Chanel 2 Note Off - Duracao: 34560 Nota: C1 Vol.: 0
Chanel 4 Note On - Duracao: 34560 Nota: C1 Vol.: 0
Chanel 4 Note Off - Duracao: 34560 Nota: C1 Vol.: 0
Chanel 5 Note On - Duracao: 34560 Nota: C1 Vol.: 0
Chanel 5 Note Off - Duracao: 34560 Nota: C1 Vol.: 0
Chanel 6 Note On - Duracao: 34560 Nota: C1 Vol.: 0
Chanel 6 Note Off - Duracao: 34560 Nota: C1 Vol.: 0
Chanel 8 Note On - Duracao: 34560 Nota: C1 Vol.: 0
Chanel 8 Note Off - Duracao: 34560 Nota: C1 Vol.: 0
Chanel 1 Note On - Duracao: 35040 Nota: C1 Vol.: 0
Chanel 1 Note Off - Duracao: 35040 Nota: C1 Vol.: 0
Chanel 3 Note On - Duracao: 35040 Nota: C1 Vol.: 0
Chanel 3 Note Off - Duracao: 35040 Nota: C1 Vol.: 0
Chanel 3 Note On - Duracao: 35040 Nota: C1 Vol.: 0
Chanel 3 Note Off - Duracao: 35040 Nota: C1 Vol.: 0
Chanel 3 Note On - Duracao: 35040 Nota: C1 Vol.: 0
Chanel 3 Note Off - Duracao: 35040 Nota: C1 Vol.: 0
Chanel 4 Note On - Duracao: 35040 Nota: C1 Vol.: 0
Chanel 4 Note Off - Duracao: 35040 Nota: C1 Vol.: 0
Chanel 9 Note On - Duracao: 35040 Nota: C1 Vol.: 0
Chanel 9 Note Off - Duracao: 35040 Nota: C1 Vol.: 0
Chanel 10 Note On - Duracao: 35040 Nota: C1 Vol.: 0
Chanel 10 Note Off - Duracao: 35040 Nota: C1 Vol.: 0
Chanel 4 Note On - Duracao: 35520 Nota: C1 Vol.: 0
Chanel 4 Note Off - Duracao: 35520 Nota: C1 Vol.: 0
Chanel 7 Note On - Duracao: 35520 Nota: C1 Vol.: 0
Chanel 7 Note Off - Duracao: 35520 Nota: C1 Vol.: 0
Chanel 7 Note On - Duracao: 35520 Nota: C1 Vol.: 0
Chanel 7 Note Off - Duracao: 35520 Nota: C1 Vol.: 0
Chanel 7 Note On - Duracao: 35520 Nota: C1 Vol.: 0
Chanel 7 Note Off - Duracao: 35520 Nota: C1 Vol.: 0
Chanel 8 Note On - Duracao: 35520 Nota: C1 Vol.: 0
Chanel 8 Note Off - Duracao: 35520 Nota: C1 Vol.: 0
Chanel 10 Note On - Duracao: 35520 Nota: C1 Vol.: 0
Chanel 10 Note Off - Duracao: 35520 Nota: C1 Vol.: 0
Chanel 3 Note On - Duracao: 36000 Nota: C1 Vol.: 0
Chanel 3 Note Off - Duracao: 36000 Nota: C1 Vol.: 0
Chanel 4 Note On - Duracao: 36000 Nota: C1 Vol.: 0
Chanel 4 Note Off - Duracao: 36000 Nota: C1 Vol.: 0
Chanel 5 Note On - Duracao: 36000 Nota: C1 Vol.: 0
Chanel 5 Note Off - Duracao: 36000 Nota: C1 Vol.: 0
Chanel 7 Note On - Duracao: 36000 Nota: C1 Vol.: 0
Chanel 7 Note Off - Duracao: 36000 Nota: C1 Vol.: 0
Chanel 9 Note On - Duracao: 36000 Nota: C1 Vol.: 0
Chanel 9 Note Off - Duracao: 36000 Nota: C1 Vol.: 0
Chanel 2 Note On - Duracao: 36480 Nota: C1 Vol.: 0
Chanel 2 Note Off - Duracao: 36480 Nota: C1 Vol.: 0
Chanel 6 Note On - Duracao: 36480 Nota: C1 Vol.: 0
Chanel 6 Note Off - Duracao: 36480 Nota: C1 Vol.: 0
Chanel 6 Note On - Duracao: 36480 Nota: C1 Vol.: 0
Chanel 6 Note Off - Duracao: 36480 Nota: C1 Vol.: 0
Chanel 8 Note On - Duracao: 36480 Nota: C1 Vol.: 0
Chanel 8 Note Off - Duracao: 36480 Nota: C1 Vol.: 0
Chanel 1 Note On - Duracao: 36960 Nota: C1 Vol.: 0
Chanel 1 Note Off - Duracao: 36960 Nota: C1 Vol.: 0
Chanel 3 Note On - Duracao: 36960 Nota: C1 Vol.: 0
Chanel 3 Note Off - Duracao: 36960 Nota: C1 Vol.: 0
Chanel 5 Note On - Duracao: 36960 Nota: C1 Vol.: 0
Chanel 5 Note Off - Duracao: 36960 Nota: C1 Vol.: 0
Chanel 7 Note On - Duracao: 36960 Nota: C1 Vol.: 0
Chanel 7 Note Off - Duracao: 36960 Nota: C1 Vol.: 0
Chanel 3 Note On - Duracao: 37440 Nota: C1 Vol.: 0
Chanel 3 Note Off - Duracao: 37440 Nota: C1 Vol.: 0
Chanel 3 Note On - Duracao: 37440 Nota: C1 Vol.: 0
Chanel 3 Note Off - Duracao: 37440 Nota: C1 Vol.: 0
Chanel 7 Note On - Duracao: 37440 Nota: C1 Vol.: 0
Chanel 7 Note Off - Duracao: 37440 Nota: C1 Vol.: 0
Chanel 10 Note On - Duracao: 37440 Nota: C1 Vol.: 0
Chanel 10 Note Off - Duracao: 37440 Nota: C1 Vol.: 0
Chanel 2 Note On - Duracao: 37920 Nota: C1 Vol.: 0
Chanel 2 Note Off - Duracao: 37920 Nota: C1 Vol.: 0
Chanel 2 Note On - Duracao: 37920 Nota: C1 Vol.: 0
Chanel 2 Note Off - Duracao: 37920 Nota: C1 Vol.: 0
Chanel 4 Note On - Duracao: 37920 Nota: C1 Vol.: 0
Chanel 4 Note Off - Duracao: 37920 Nota: C1 Vol.: 0
Chanel 6 Note On - Duracao: 37920 Nota: C1 Vol.: 0
Chanel 6 Note Off - Duracao: 37920 Nota: C1 Vol.: 0
Chanel 8 Note On - Duracao: 37920 Nota: C1 Vol.: 0
Chanel 8 Note Off - Duracao: 37920 Nota: C1 Vol.: 0
Chanel 9 Note On - Duracao: 37920 Nota: C1 Vol.: 0
Chanel 9 Note Off - Duracao: 37920 Nota: C1 Vol.: 0
Chanel 9 Note On - Duracao: 37920 Nota: C1 Vol.: 0
Chanel 9 Note Off - Duracao: 37920 Nota: C1 Vol.: 0
Chanel 10 Note On - Duracao: 37920 Nota: C1 Vol.: 0
Chanel 10 Note Off - Duracao: 37920 Nota: C1 Vol.: 0
Chanel 10 Note On - Duracao: 37920 Nota: C1 Vol.: 0
Chanel 10 Note Off - Duracao: 37920 Nota: C1 Vol.: 0
Chanel 1 Note On - Duracao: 38400 Nota: C1 Vol.: 0
Chanel 1 Note Off - Duracao: 38400 Nota: C1 Vol.: 0
Chanel 6 Note On - Duracao: 38400 Nota: C1 Vol.: 0
Chanel 6 Note Off - Duracao: 38400 Nota: C1 Vol.: 0
Chanel 6 Note On - Duracao: 38400 Nota: C1 Vol.: 0
Chanel 6 Note Off - Duracao: 38400 Nota: C1 Vol.: 0
Chanel 2 Note On - Duracao: 38880 Nota: C1 Vol.: 0
Chanel 2 Note Off - Duracao: 38880 Nota: C1 Vol.: 0
Chanel 5 Note On - Duracao: 38880 Nota: C1 Vol.: 0
Chanel 5 Note Off - Duracao: 38880 Nota: C1 Vol.: 0
Chanel 7 Note On - Duracao: 38880 Nota: C1 Vol.: 0
Chanel 7 Note Off - Duracao: 38880 Nota: C1 Vol.: 0
Chanel 8 Note On - Duracao: 38880 Nota: C1 Vol.: 0
Chanel 8 Note Off - Duracao: 38880 Nota: C1 Vol.: 0
Chanel 1 Note On - Duracao: 39360 Nota: C1 Vol.: 0
Chanel 1 Note Off - Duracao: 39360 Nota: C1 Vol.: 0
Chanel 3 Note On - Duracao: 39360 Nota: C1 Vol.: 0
Chanel 3 Note Off - Duracao: 39360 Nota: C1 Vol.: 0
Chanel 4 Note On - Duracao: 39360 Nota: C1 Vol.: 0
Chanel 4 Note Off - Duracao: 39360 Nota: C1 Vol.: 0
Chanel 8 Note On - Duracao: 39360 Nota: C1 Vol.: 0
Chanel 8 Note Off - Duracao: 39360 Nota: C1 Vol.: 0
Chanel 8 Note On - Duracao: 39360 Nota: C1 Vol.: 0
Chanel 8 Note Off - Duracao: 39360 Nota: C1 Vol.: 0
Chanel 9 Note On - Duracao: 39360 Nota: C1 Vol.: 0
Chanel 9 Note Off - Duracao: 39360 Nota: C1 Vol.: 0
Chanel 2 Note On - Duracao: 39840 Nota: C1 Vol.: 0
Chanel 2 Note Off - Duracao: 39840 Nota: C1 Vol.: 0
Chanel 7 Note On - Duracao: 39840 Nota: C1 Vol.: 0
Chanel 7 Note Off - Duracao: 39840 Nota: C1 Vol.: 0
Chanel 7 Note On - Duracao: 39840 Nota: C1 Vol.: 0
Chanel 7 Note Off - Duracao: 39840 Nota: C1 Vol.: 0
Chanel 10 Note On - Duracao: 39840 Nota: C1 Vol.: 0
Chanel 10 Note Off - Duracao: 39840 Nota: C1 Vol.: 0
Chanel 2 Note On - Duracao: 40320 Nota: C1 Vol.: 0
Chanel 2 Note Off - Duracao: 40320 Nota: C1 Vol.: 0
Chanel 2 Note On - Duracao: 40320 Nota: C1 Vol.: 0
Chanel 2 Note Off - Duracao: 40320 Nota: C1 Vol.: 0
Chanel 3 Note On - Duracao: 40320 Nota: C1 Vol.: 0
Chanel 3 Note Off - Duracao: 40320 Nota: C1 Vol.: 0
Chanel 5 Note On - Duracao: 40320 Nota: C1 Vol.: 0
Chanel 5 Note Off - Duracao: 40320 Nota: C1 Vol.: 0
Chanel 6 Note On - Duracao: 40320 Nota: C1 Vol.: 0
Chanel 6 Note Off - Duracao: 40320 Nota: C1 Vol.: 0
Chanel 2 Note On - Duracao: 40800 Nota: C1 Vol.: 0
Chanel 2 Note Off - Duracao: 40800 Nota: C1 Vol.: 0
Chanel 4 Note On - Duracao: 40800 Nota: C1 Vol.: 0
Chanel 4 Note Off - Duracao: 40800 Nota: C1 Vol.: 0
Chanel 4 Note On - Duracao: 40800 Nota: C1 Vol.: 0
Chanel 4 Note Off - Duracao: 40800 Nota: C1 Vol.: 0
Chanel 7 Note On - Duracao: 40800 Nota: C1 Vol.: 0
Chanel 7 Note Off - Duracao: 40800 Nota: C1 Vol.: 0
Chanel 9 Note On - Duracao: 40800 Nota: C1 Vol.: 0
Chanel 9 Note Off - Duracao: 40800 Nota: C1 Vol.: 0
Chanel 1 Note On - Duracao: 41280 Nota: C1 Vol.: 0
Chanel 1 Note Off - Duracao: 41280 Nota: C1 Vol.: 0
Chanel 1 Note On - Duracao: 41280 Nota: C1 Vol.: 0
Chanel 1 Note Off - Duracao: 41280 Nota: C1 Vol.: 0
Chanel 1 Note On - Duracao: 41280 Nota: C1 Vol.: 0
Chanel 1 Note Off - Duracao: 41280 Nota: C1 Vol.: 0
Chanel 1 Note On - Duracao: 41280 Nota: C1 Vol.: 0
Chanel 1 Note Off - Duracao: 41280 Nota: C1 Vol.: 0
Chanel 2 Note On - Duracao: 41280 Nota: C1 Vol.: 0
Chanel 2 Note Off - Duracao: 41280 Nota: C1 Vol.: 0
Chanel 3 Note On - Duracao: 41280 Nota: C1 Vol.: 0
Chanel 3 Note Off - Duracao: 41280 Nota: C1 Vol.: 0
Chanel 3 Note On - Duracao: 41280 Nota: C1 Vol.: 0
Chanel 3 Note Off - Duracao: 41280 Nota: C1 Vol.: 0
Chanel 5 Note On - Duracao: 41280 Nota: C1 Vol.: 0
Chanel 5 Note Off - Duracao: 41280 Nota: C1 Vol.: 0
Chanel 7 Note On - Duracao: 41280 Nota: C1 Vol.: 0
Chanel 7 Note Off - Duracao: 41280 Nota: C1 Vol.: 0
Chanel 8 Note On - Duracao: 41280 Nota: C1 Vol.: 0
Chanel 8 Note Off - Duracao: 41280 Nota: C1 Vol.: 0
Chanel 10 Note On - Duracao: 41760 Nota: C1 Vol.: 0
Chanel 10 Note Off - Duracao: 41760 Nota: C1 Vol.: 0
Chanel 4 Note On - Duracao: 42240 Nota: C1 Vol.: 0
Chanel 4 Note Off - Duracao: 42240 Nota: C1 Vol.: 0
Chanel 4 Note On - Duracao: 42240 Nota: C1 Vol.: 0
Chanel 4 Note Off - Duracao: 42240 Nota: C1 Vol.: 0
Chanel 5 Note On - Duracao: 42240 Nota: C1 Vol.: 0
Chanel 5 Note Off - Duracao: 42240 Nota: C1 Vol.: 0
Chanel 6 Note On - Duracao: 42240 Nota: C1 Vol.: 0
Chanel 6 Note Off - Duracao: 42240 Nota: C1 Vol.: 0
Chanel 1 Note On - Duracao: 42720 Nota: C1 Vol.: 0
Chanel 1 Note Off - Duracao: 42720 Nota: C1 Vol.: 0
Chanel 1 Note On - Duracao: 42720 Nota: C1 Vol.: 0
Chanel 1 Note Off - Duracao: 42720 Nota: C1 Vol.: 0
Chanel 1 Note On - Duracao: 42720 Nota: C1 Vol.: 0
Chanel 1 Note Off - Duracao: 42720 Nota: C1 Vol.: 0
Chanel 2 Note On - Duracao: 42720 Nota: C1 Vol.: 0
Chanel 2 Note Off - Duracao: 42720 Nota: C1 Vol.: 0
Chanel 2 Note On - Duracao: 42720 Nota: C1 Vol.: 0
Chanel 2 Note Off - Duracao: 42720 Nota: C1 Vol.: 0
Chanel 4 Note On - Duracao: 42720 Nota: C1 Vol.: 0
Chanel 4 Note Off - Duracao: 42720 Nota: C1 Vol.: 0
Chanel 8 Note On - Duracao: 42720 Nota: C1 Vol.: 0
Chanel 8 Note Off - Duracao: 42720 Nota: C1 Vol.: 0
Chanel 9 Note On - Duracao: 42720 Nota: C1 Vol.: 0
Chanel 9 Note Off - Duracao: 42720 Nota: C1 Vol.: 0
Chanel 2 Note On - Duracao: 43200 Nota: C1 Vol.: 0
Chanel 2 Note Off - Duracao: 43200 Nota: C1 Vol.: 0
Chanel 3 Note On - Duracao: 43200 Nota: C1 Vol.: 0
Chanel 3 Note Off - Duracao: 43200 Nota: C1 Vol.: 0
Chanel 6 Note On - Duracao: 43200 Nota: C1 Vol.: 0
Chanel 6 Note Off - Duracao: 43200 Nota: C1 Vol.: 0
Chanel 7 Note On - Duracao: 43200 Nota: C1 Vol.: 0
Chanel 7 Note Off - Duracao: 43200 Nota: C1 Vol.: 0
Chanel 9 Note On - Duracao: 43680 Nota: C1 Vol.: 0
Chanel 9 Note Off - Duracao: 43680 Nota: C1 Vol.: 0
Chanel 9 Note On - Duracao: 43680 Nota: C1 Vol.: 0
Chanel 9 Note Off - Duracao: 43680 Nota: C1 Vol.: 0
Chanel 10 Note On - Duracao: 43680 Nota: C1 Vol.: 0
Chanel 10 Note Off - Duracao: 43680 Nota: C1 Vol.: 0
Chanel 1 Note On - Duracao: 44160 Nota: C1 Vol.: 0
Chanel 1 Note Off - Duracao: 44160 Nota: C1 Vol.: 0
Chanel 2 Note On - Duracao: 44160 Nota: C1 Vol.: 0
Chanel 2 Note Off - Duracao: 44160 Nota: C1 Vol.: 0
Chanel 3 Note On - Duracao: 44160 Nota: C1 Vol.: 0
Chanel 3 Note Off - Duracao: 44160 Nota: C1 Vol.: 0
Chanel 5 Note On - Duracao: 44160 Nota: C1 Vol.: 0
Chanel 5 Note Off - Duracao: 44160 Nota: C1 Vol.: 0
Chanel 2 Note On - Duracao: 44640 Nota: C1 Vol.: 0
Chanel 2 Note Off - Duracao: 44640 Nota: C1 Vol.: 0
Chanel 4 Note On - Duracao: 44640 Nota: C1 Vol.: 0
Chanel 4 Note Off - Duracao: 44640 Nota: C1 Vol.: 0
Chanel 6 Note On - Duracao: 44640 Nota: C1 Vol.: 0
Chanel 6 Note Off - Duracao: 44640 Nota: C1 Vol.: 0
Chanel 8 Note On - Duracao: 44640 Nota: C1 Vol.: 0
Chanel 8 Note Off - Duracao: 44640 Nota: C1 Vol.: 0
Chanel 8 Note On - Duracao: 44640 Nota: C1 Vol.: 0
Chanel 8 Note Off - Duracao: 44640 Nota: C1 Vol.: 0
Chanel 8 Note On - Duracao: 44640 Nota: C1 Vol.: 0
Chanel 8 Note Off - Duracao: 44640 Nota: C1 Vol.: 0
Chanel 2 Note On - Duracao: 45120 Nota: C1 Vol.: 0
Chanel 2 Note Off - Duracao: 45120 Nota: C1 Vol.: 0
Chanel 2 Note On - Duracao: 45120 Nota: C1 Vol.: 0
Chanel 2 Note Off - Duracao: 45120 Nota: C1 Vol.: 0
Chanel 7 Note On - Duracao: 45120 Nota: C1 Vol.: 0
Chanel 7 Note Off - Duracao: 45120 Nota: C1 Vol.: 0
Chanel 8 Note On - Duracao: 45120 Nota: C1 Vol.: 0
Chanel 8 Note Off - Duracao: 45120 Nota: C1 Vol.: 0
Chanel 9 Note On - Duracao: 45120 Nota: C1 Vol.: 0
Chanel 9 Note Off - Duracao: 45120 Nota: C1 Vol.: 0
Chanel 10 Note On - Duracao: 45120 Nota: C1 Vol.: 0
Chanel 10 Note Off - Duracao: 45120 Nota: C1 Vol.: 0
Chanel 1 Note On - Duracao: 45600 Nota: C1 Vol.: 0
Chanel 1 Note Off - Duracao: 45600 Nota: C1 Vol.: 0
Chanel 1 Note On - Duracao: 45600 Nota: C1 Vol.: 0
Chanel 1 Note Off - Duracao: 45600 Nota: C1 Vol.: 0
Chanel 4 Note On - Duracao: 45600 Nota: C1 Vol.: 0
Chanel 4 Note Off - Duracao: 45600 Nota: C1 Vol.: 0
Chanel 1 Note On - Duracao: 46080 Nota: C1 Vol.: 0
Chanel 1 Note Off - Duracao: 46080 Nota: C1 Vol.: 0
Chanel 3 Note On - Duracao: 46080 Nota: C1 Vol.: 0
Chanel 3 Note Off - Duracao: 46080 Nota: C1 Vol.: 0
Chanel 5 Note On - Duracao: 46080 Nota: C1 Vol.: 0
Chanel 5 Note Off - Duracao: 46080 Nota: C1 Vol.: 0
Chanel 6 Note On - Duracao: 46080 Nota: C1 Vol.: 0
Chanel 6 Note Off - Duracao: 46080 Nota: C1 Vol.: 0
Chanel 8 Note On - Duracao: 46080 Nota: C1 Vol.: 0
Chanel 8 Note Off - Duracao: 46080 Nota: C1 Vol.: 0
Chanel 2 Note On - Duracao: 46560 Nota: C1 Vol.: 0
Chanel 2 Note Off - Duracao: 46560 Nota: C1 Vol.: 0
Chanel 4 Note On - Duracao: 46560 Nota: C1 Vol.: 0
Chanel 4 Note Off - Duracao: 46560 Nota: C1 Vol.: 0
Chanel 5 Note On - Duracao: 46560 Nota: C1 Vol.: 0
Chanel 5 Note Off - Duracao: 46560 Nota: C1 Vol.: 0
Chanel 9 Note On - Duracao: 46560 Nota: C1 Vol.: 0
Chanel 9 Note Off - Duracao: 46560 Nota: C1 Vol.: 0
Chanel 10 Note On - Duracao: 46560 Nota: C1 Vol.: 0
Chanel 10 Note Off - Duracao: 46560 Nota: C1 Vol.: 0
Chanel 1 Note On - Duracao: 47040 Nota: C1 Vol.: 0
Chanel 1 Note Off - Duracao: 47040 Nota: C1 Vol.: 0
Chanel 3 Note On - Duracao: 47040 Nota: C1 Vol.: 0
Chanel 3 Note Off - Duracao: 47040 Nota: C1 Vol.: 0
Chanel 7 Note On - Duracao: 47040 Nota: C1 Vol.: 0
Chanel 7 Note Off - Duracao: 47040 Nota: C1 Vol.: 0
Chanel 8 Note On - Duracao: 47040 Nota: C1 Vol.: 0
Chanel 8 Note Off - Duracao: 47040 Nota: C1 Vol.: 0
Chanel 4 Note On - Duracao: 47520 Nota: C1 Vol.: 0
Chanel 4 Note Off - Duracao: 47520 Nota: C1 Vol.: 0
Chanel 4 Note On - Duracao: 47520 Nota: C1 Vol.: 0
Chanel 4 Note Off - Duracao: 47520 Nota: C1 Vol.: 0
Chanel 10 Note On - Duracao: 47520 Nota: C1 Vol.: 0
Chanel 10 Note Off - Duracao: 47520 Nota: C1 Vol.: 0
Chanel 10 Note On - Duracao: 47520 Nota: C1 Vol.: 0
Chanel 10 Note Off - Duracao: 47520 Nota: C1 Vol.: 0
Chanel 1 Note On - Duracao: 48000 Nota: C1 Vol.: 0
Chanel 1 Note Off - Duracao: 48000 Nota: C1 Vol.: 0
Chanel 1 Note On - Duracao: 48000 Nota: C1 Vol.: 0
Chanel 1 Note Off - Duracao: 48000 Nota: C1 Vol.: 0
Chanel 6 Note On - Duracao: 48000 Nota: C1 Vol.: 0
Chanel 6 Note Off - Duracao: 48000 Nota: C1 Vol.: 0
Chanel 6 Note On - Duracao: 48000 Nota: C1 Vol.: 0
Chanel 6 Note Off - Duracao: 48000 Nota: C1 Vol.: 0
Chanel 2 Note On - Duracao: 48480 Nota: C1 Vol.: 0
Chanel 2 Note Off - Duracao: 48480 Nota: C1 Vol.: 0
Chanel 3 Note On - Duracao: 48480 Nota: C1 Vol.: 0
Chanel 3 Note Off - Duracao: 48480 Nota: C1 Vol.: 0
Chanel 5 Note On - Duracao: 48480 Nota: C1 Vol.: 0
Chanel 5 Note Off - Duracao: 48480 Nota: C1 Vol.: 0
Chanel 9 Note On - Duracao: 48480 Nota: C1 Vol.: 0
Chanel 9 Note Off - Duracao: 48480 Nota: C1 Vol.: 0
Chanel 9 Note On - Duracao: 48480 Nota: C1 Vol.: 0
Chanel 9 Note Off - Duracao: 48480 Nota: C1 Vol.: 0
Chanel 10 Note On - Duracao: 48480 Nota: C1 Vol.: 0
Chanel 10 Note Off - Duracao: 48480 Nota: C1 Vol.: 0
Chanel 1 Note On - Duracao: 48960 Nota: C1 Vol.: 0
Chanel 1 Note Off - Duracao: 48960 Nota: C1 Vol.: 0
Chanel 1 Note On - Duracao: 48960 Nota: C1 Vol.: 0
Chanel 1 Note Off - Duracao: 48960 Nota: C1 Vol.: 0
Chanel 2 Note On - Duracao: 48960 Nota: C1 Vol.: 0
Chanel 2 Note Off - Duracao: 48960 Nota: C1 Vol.: 0
Chanel 4 Note On - Duracao: 48960 Nota: C1 Vol.: 0
Chanel 4 Note Off - Duracao: 48960 Nota: C1 Vol.: 0
Chanel 6 Note On - Duracao: 48960 Nota: C1 Vol.: 0
Chanel 6 Note Off - Duracao: 48960 Nota: C1 Vol.: 0
Chanel 7 Note On - Duracao: 48960 Nota: C1 Vol.: 0
Chanel 7 Note Off - Duracao: 48960 Nota: C1 Vol.: 0
Chanel 8 Note On - Duracao: 48960 Nota: C1 Vol.: 0
Chanel 8 Note Off - Duracao: 48960 Nota: C1 Vol.: 0
Chanel 9 Note On - Duracao: 48960 Nota: C1 Vol.: 0
Chanel 9 Note Off - Duracao: 48960 Nota: C1 Vol.: 0
Chanel 9 Note On - Duracao: 48960 Nota: C1 Vol.: 0
Chanel 9 Note Off - Duracao: 48960 Nota: C1 Vol.: 0
Chanel 3 Note On - Duracao: 49440 Nota: C1 Vol.: 0
Chanel 3 Note Off - Duracao: 49440 Nota: C1 Vol.: 0
Chanel 6 Note On - Duracao: 49440 Nota: C1 Vol.: 0
Chanel 6 Note Off - Duracao: 49440 Nota: C1 Vol.: 0
Chanel 1 Note On - Duracao: 49920 Nota: C1 Vol.: 0
Chanel 1 Note Off - Duracao: 49920 Nota: C1 Vol.: 0
Chanel 3 Note On - Duracao: 49920 Nota: C1 Vol.: 0
Chanel 3 Note Off - Duracao: 49920 Nota: C1 Vol.: 0
Chanel 3 Note On - Duracao: 49920 Nota: C1 Vol.: 0
Chanel 3 Note Off - Duracao: 49920 Nota: C1 Vol.: 0
Chanel 4 Note On - Duracao: 49920 Nota: C1 Vol.: 0
Chanel 4 Note Off - Duracao: 49920 Nota: C1 Vol.: 0
Chanel 4 Note On - Duracao: 49920 Nota: C1 Vol.: 0
Chanel 4 Note Off - Duracao: 49920 Nota: C1 Vol.: 0
Chanel 4 Note On - Duracao: 49920 Nota: C1 Vol.: 0
Chanel 4 Note Off - Duracao: 49920 Nota: C1 Vol.: 0
Chanel 4 Note On - Duracao: 49920 Nota: C1 Vol.: 0
Chanel 4 Note Off - Duracao: 49920 Nota: C1 Vol.: 0
Chanel 6 Note On - Duracao: 49920 Nota: C1 Vol.: 0
Chanel 6 Note Off - Duracao: 49920 Nota: C1 Vol.: 0
Chanel 1 Note On - Duracao: 50400 Nota: C1 Vol.: 0
Chanel 1 Note Off - Duracao: 50400 Nota: C1 Vol.: 0
Chanel 2 Note On - Duracao: 50400 Nota: C1 Vol.: 0
Chanel 2 Note Off - Duracao: 50400 Nota: C1 Vol.: 0
Chanel 5 Note On - Duracao: 50400 Nota: C1 Vol.: 0
Chanel 5 Note Off - Duracao: 50400 Nota: C1 Vol.: 0
Chanel 5 Note On - Duracao: 50400 Nota: C1 Vol.: 0
Chanel 5 Note Off - Duracao: 50400 Nota: C1 Vol.: 0
Chanel 6 Note On - Duracao: 50400 Nota: C1 Vol.: 0
Chanel 6 Note Off - Duracao: 50400 Nota: C1 Vol.: 0
Chanel 6 Note On - Duracao: 50400 Nota: C1 Vol.: 0
Chanel 6 Note Off - Duracao: 50400 Nota: C1 Vol.: 0
Chanel 8 Note On - Duracao: 50400 Nota: C1 Vol.: 0
Chanel 8 Note Off - Duracao: 50400 Nota: C1 Vol.: 0
Chanel 10 Note On - Duracao: 50400 Nota: C1 Vol.: 0
Chanel 10 Note Off - Duracao: 50400 Nota: C1 Vol.: 0
Chanel 10 Note On - Duracao: 50400 Nota: C1 Vol.: 0
Chanel 10 Note Off - Duracao: 50400 Nota: C1 Vol.: 0
Chanel 10 Note On - Duracao: 50400 Nota: C1 Vol.: 0
Chanel 10 Note Off - Duracao: 50400 Nota: C1 Vol.: 0
Chanel 10 Note On - Duracao: 50400 Nota: C1 Vol.: 0
Chanel 10 Note Off - Duracao: 50400 Nota: C1 Vol.: 0
Chanel 10 Note On - Duracao: 50400 Nota: C1 Vol.: 0
Chanel 10 Note Off - Duracao: 50400 Nota: C1 Vol.: 0
Chanel 2 Note On - Duracao: 50880 Nota: C1 Vol.: 0
Chanel 2 Note Off - Duracao: 50880 Nota: C1 Vol.: 0
Chanel 2 Note On - Duracao: 50880 Nota: C1 Vol.: 0
Chanel 2 Note Off - Duracao: 50880 Nota: C1 Vol.: 0
Chanel 2 Note On - Duracao: 50880 Nota: C1 Vol.: 0
Chanel 2 Note Off - Duracao: 50880 Nota: C1 Vol.: 0
Chanel 2 Note On - Duracao: 50880 Nota: C1 Vol.: 0
Chanel 2 Note Off - Duracao: 50880 Nota: C1 Vol.: 0
Chanel 5 Note On - Duracao: 50880 Nota: C1 Vol.: 0
Chanel 5 Note Off - Duracao: 50880 Nota: C1 Vol.: 0
Chanel 7 Note On - Duracao: 50880 Nota: C1 Vol.: 0
Chanel 7 Note Off - Duracao: 50880 Nota: C1 Vol.: 0
Chanel 9 Note On - Duracao: 50880 Nota: C1 Vol.: 0
Chanel 9 Note Off - Duracao: 50880 Nota: C1 Vol.: 0
Chanel 9 Note On - Duracao: 50880 Nota: C1 Vol.: 0
Chanel 9 Note Off - Duracao: 50880 Nota: C1 Vol.: 0
Chanel 2 Note On - Duracao: 51360 Nota: C1 Vol.: 0
Chanel 2 Note Off - Duracao: 51360 Nota: C1 Vol.: 0
Chanel 4 Note On - Duracao: 51360 Nota: C1 Vol.: 0
Chanel 4 Note Off - Duracao: 51360 Nota: C1 Vol.: 0
Chanel 6 Note On - Duracao: 51360 Nota: C1 Vol.: 0
Chanel 6 Note Off - Duracao: 51360 Nota: C1 Vol.: 0
Chanel 6 Note On - Duracao: 51360 Nota: C1 Vol.: 0
Chanel 6 Note Off - Duracao: 51360 Nota: C1 Vol.: 0
Chanel 3 Note On - Duracao: 51840 Nota: C1 Vol.: 0
Chanel 3 Note Off - Duracao: 51840 Nota: C1 Vol.: 0
Chanel 7 Note On - Duracao: 51840 Nota: C1 Vol.: 0
Chanel 7 Note Off - Duracao: 51840 Nota: C1 Vol.: 0
Chanel 8 Note On - Duracao: 51840 Nota: C1 Vol.: 0
Chanel 8 Note Off - Duracao: 51840 Nota: C1 Vol.: 0
Chanel 10 Note On - Duracao: 51840 Nota: C1 Vol.: 0
Chanel 10 Note Off - Duracao: 51840 Nota: C1 Vol.: 0
Chanel 1 Note On - Duracao: 52320 Nota: C1 Vol.: 0
Chanel 1 Note Off - Duracao: 52320 Nota: C1 Vol.: 0
Chanel 6 Note On - Duracao: 52320 Nota: C1 Vol.: 0
Chanel 6 Note Off - Duracao: 52320 Nota: C1 Vol.: 0
Chanel 1 Note On - Duracao: 52800 Nota: C1 Vol.: 0
Chanel 1 Note Off - Duracao: 52800 Nota: C1 Vol.: 0
Chanel 1 Note On - Duracao: 52800 Nota: C1 Vol.: 0
Chanel 1 Note Off - Duracao: 52800 Nota: C1 Vol.: 0
Chanel 1 Note On - Duracao: 52800 Nota: C1 Vol.: 0
Chanel 1 Note Off - Duracao: 52800 Nota: C1 Vol.: 0
Chanel 5 Note On - Duracao: 52800 Nota: C1 Vol.: 0
Chanel 5 Note Off - Duracao: 52800 Nota: C1 Vol.: 0
Chanel 5 Note On - Duracao: 52800 Nota: C1 Vol.: 0
Chanel 5 Note Off - Duracao: 52800 Nota: C1 Vol.: 0
Chanel 9 Note On - Duracao: 52800 Nota: C1 Vol.: 0
Chanel 9 Note Off - Duracao: 52800 Nota: C1 Vol.: 0
Chanel 10 Note On - Duracao: 52800 Nota: C1 Vol.: 0
Chanel 10 Note Off - Duracao: 52800 Nota: C1 Vol.: 0
Chanel 2 Note On - Duracao: 53280 Nota: C1 Vol.: 0
Chanel 2 Note Off - Duracao: 53280 Nota: C1 Vol.: 0
Chanel 4 Note On - Duracao: 53280 Nota: C1 Vol.: 0
Chanel 4 Note Off - Duracao: 53280 Nota: C1 Vol.: 0
Chanel 7 Note On - Duracao: 53280 Nota: C1 Vol.: 0
Chanel 7 Note Off - Duracao: 53280 Nota: C1 Vol.: 0
Chanel 9 Note On - Duracao: 53280 Nota: C1 Vol.: 0
Chanel 9 Note Off - Duracao: 53280 Nota: C1 Vol.: 0
Chanel 2 Note On - Duracao: 53760 Nota: C1 Vol.: 0
Chanel 2 Note Off - Duracao: 53760 Nota: C1 Vol.: 0
Chanel 2 Note On - Duracao: 53760 Nota: C1 Vol.: 0
Chanel 2 Note Off - Duracao: 53760 Nota: C1 Vol.: 0
Chanel 2 Note On - Duracao: 53760 Nota: C1 Vol.: 0
Chanel 2 Note Off - Duracao: 53760 Nota: C1 Vol.: 0
Chanel 3 Note On - Duracao: 53760 Nota: C1 Vol.: 0
Chanel 3 Note Off - Duracao: 53760 Nota: C1 Vol.: 0
Chanel 3 Note On - Duracao: 53760 Nota: C1 Vol.: 0
Chanel 3 Note Off - Duracao: 53760 Nota: C1 Vol.: 0
Chanel 4 Note On - Duracao: 53760 Nota: C1 Vol.: 0
Chanel 4 Note Off - Duracao: 53760 Nota: C1 Vol.: 0
Chanel 4 Note On - Duracao: 53760 Nota: C1 Vol.: 0
Chanel 4 Note Off - Duracao: 53760 Nota: C1 Vol.: 0
Chanel 6 Note On - Duracao: 53760 Nota: C1 Vol.: 0
Chanel 6 Note Off - Duracao: 53760 Nota: C1 Vol.: 0
Chanel 8 Note On - Duracao: 53760 Nota: C1 Vol.: 0
Chanel 8 Note Off - Duracao: 53760 Nota: C1 Vol.: 0
Chanel 10 Note On - Duracao: 53760 Nota: C1 Vol.: 0
Chanel 10 Note Off - Duracao: 53760 Nota: C1 Vol.: 0
Chanel 3 Note On - Duracao: 54240 Nota: C1 Vol.: 0
Chanel 3 Note Off - Duracao: 54240 Nota: C1 Vol.: 0
Chanel 8 Note On - Duracao: 54240 Nota: C1 Vol.: 0
Chanel 8 Note Off - Duracao: 54240 Nota: C1 Vol.: 0
Chanel 1 Note On - Duracao: 54720 Nota: C1 Vol.: 0
Chanel 1 Note Off - Duracao: 54720 Nota: C1 Vol.: 0
Chanel 5 Note On - Duracao: 54720 Nota: C1 Vol.: 0
Chanel 5 Note Off - Duracao: 54720 Nota: C1 Vol.: 0
Chanel 9 Note On - Duracao: 54720 Nota: C1 Vol.: 0
Chanel 9 Note Off - Duracao: 54720 Nota: C1 Vol.: 0
Chanel 1 Note On - Duracao: 55200 Nota: C1 Vol.: 0
Chanel 1 Note Off - Duracao: 55200 Nota: C1 Vol.: 0
Chanel 4 Note On - Duracao: 55200 Nota: C1 Vol.: 0
Chanel 4 Note Off - Duracao: 55200 Nota: C1 Vol.: 0
Chanel 7 Note On - Duracao: 55200 Nota: C1 Vol.: 0
Chanel 7 Note Off - Duracao: 55200 Nota: C1 Vol.: 0
Chanel 2 Note On - Duracao: 55680 Nota: C1 Vol.: 0
Chanel 2 Note Off - Duracao: 55680 Nota: C1 Vol.: 0
Chanel 4 Note On - Duracao: 55680 Nota: C1 Vol.: 0
Chanel 4 Note Off - Duracao: 55680 Nota: C1 Vol.: 0
Chanel 6 Note On - Duracao: 55680 Nota: C1 Vol.: 0
Chanel 6 Note Off - Duracao: 55680 Nota: C1 Vol.: 0
Chanel 9 Note On - Duracao: 55680 Nota: C1 Vol.: 0
Chanel 9 Note Off - Duracao: 55680 Nota: C1 Vol.: 0
Chanel 10 Note On - Duracao: 55680 Nota: C1 Vol.: 0
Chanel 10 Note Off - Duracao: 55680 Nota: C1 Vol.: 0
Chanel 1 Note On - Duracao: 56160 Nota: C1 Vol.: 0
Chanel 1 Note Off - Duracao: 56160 Nota: C1 Vol.: 0
Chanel 3 Note On - Duracao: 56160 Nota: C1 Vol.: 0
Chanel 3 Note Off - Duracao: 56160 Nota: C1 Vol.: 0
Chanel 8 Note On - Duracao: 56160 Nota: C1 Vol.: 0
Chanel 8 Note Off - Duracao: 56160 Nota: C1 Vol.: 0
Chanel 2 Note On - Duracao: 56640 Nota: C1 Vol.: 0
Chanel 2 Note Off - Duracao: 56640 Nota: C1 Vol.: 0
Chanel 4 Note On - Duracao: 56640 Nota: C1 Vol.: 0
Chanel 4 Note Off - Duracao: 56640 Nota: C1 Vol.: 0
Chanel 5 Note On - Duracao: 56640 Nota: C1 Vol.: 0
Chanel 5 Note Off - Duracao: 56640 Nota: C1 Vol.: 0
Chanel 7 Note On - Duracao: 56640 Nota: C1 Vol.: 0
Chanel 7 Note Off - Duracao: 56640 Nota: C1 Vol.: 0
Chanel 8 Note On - Duracao: 56640 Nota: C1 Vol.: 0
Chanel 8 Note Off - Duracao: 56640 Nota: C1 Vol.: 0
Chanel 6 Note On - Duracao: 57120 Nota: C1 Vol.: 0
Chanel 6 Note Off - Duracao: 57120 Nota: C1 Vol.: 0
Chanel 1 Note On - Duracao: 57600 Nota: C1 Vol.: 0
Chanel 1 Note Off - Duracao: 57600 Nota: C1 Vol.: 0
Chanel 4 Note On - Duracao: 57600 Nota: C1 Vol.: 0
Chanel 4 Note Off - Duracao: 57600 Nota: C1 Vol.: 0
Chanel 5 Note On - Duracao: 57600 Nota: C1 Vol.: 0
Chanel 5 Note Off - Duracao: 57600 Nota: C1 Vol.: 0
Chanel 6 Note On - Duracao: 57600 Nota: C1 Vol.: 0
Chanel 6 Note Off - Duracao: 57600 Nota: C1 Vol.: 0
Chanel 7 Note On - Duracao: 57600 Nota: C1 Vol.: 0
Chanel 7 Note Off - Duracao: 57600 Nota: C1 Vol.: 0
Chanel 9 Note On - Duracao: 57600 Nota: C1 Vol.: 0
Chanel 9 Note Off - Duracao: 57600 Nota: C1 Vol.: 0
Chanel 10 Note On - Duracao: 57600 Nota: C1 Vol.: 0
Chanel 10 Note Off - Duracao: 57600 Nota: C1 Vol.: 0
Chanel 10 Note On - Duracao: 57600 Nota: C1 Vol.: 0
Chanel 10 Note Off - Duracao: 57600 Nota: C1 Vol.: 0
Chanel 1 Note On - Duracao: 58080 Nota: C1 Vol.: 0
Chanel 1 Note Off - Duracao: 58080 Nota: C1 Vol.: 0
Chanel 2 Note On - Duracao: 58080 Nota: C1 Vol.: 0
Chanel 2 Note Off - Duracao: 58080 Nota: C1 Vol.: 0
Chanel 3 Note On - Duracao: 58080 Nota: C1 Vol.: 0
Chanel 3 Note Off - Duracao: 58080 Nota: C1 Vol.: 0
Chanel 8 Note On - Duracao: 58560 Nota: C1 Vol.: 0
Chanel 8 Note Off - Duracao: 58560 Nota: C1 Vol.: 0
Chanel 10 Note On - Duracao: 58560 Nota: C1 Vol.: 0
Chanel 10 Note Off - Duracao: 58560 Nota: C1 Vol.: 0
Chanel 10 Note On - Duracao: 58560 Nota: C1 Vol.: 0
Chanel 10 Note Off - Duracao: 58560 Nota: C1 Vol.: 0
Chanel 1 Note On - Duracao: 59040 Nota: C1 Vol.: 0
Chanel 1 Note Off - Duracao: 59040 Nota: C1 Vol.: 0
Chanel 10 Note On - Duracao: 59040 Nota: C1 Vol.: 0
Chanel 10 Note Off - Duracao: 59040 Nota: C1 Vol.: 0
Chanel 4 Note On - Duracao: 59520 Nota: C1 Vol.: 0
Chanel 4 Note Off - Duracao: 59520 Nota: C1 Vol.: 0
Chanel 4 Note On - Duracao: 59520 Nota: C1 Vol.: 0
Chanel 4 Note Off - Duracao: 59520 Nota: C1 Vol.: 0
Chanel 5 Note On - Duracao: 59520 Nota: C1 Vol.: 0
Chanel 5 Note Off - Duracao: 59520 Nota: C1 Vol.: 0
Chanel 5 Note On - Duracao: 59520 Nota: C1 Vol.: 0
Chanel 5 Note Off - Duracao: 59520 Nota: C1 Vol.: 0
Chanel 6 Note On - Duracao: 59520 Nota: C1 Vol.: 0
Chanel 6 Note Off - Duracao: 59520 Nota: C1 Vol.: 0
Chanel 7 Note On - Duracao: 59520 Nota: C1 Vol.: 0
Chanel 7 Note Off - Duracao: 59520 Nota: C1 Vol.: 0
Chanel 7 Note On - Duracao: 59520 Nota: C1 Vol.: 0
Chanel 7 Note Off - Duracao: 59520 Nota: C1 Vol.: 0
Chanel 9 Note On - Duracao: 59520 Nota: C1 Vol.: 0
Chanel 9 Note Off - Duracao: 59520 Nota: C1 Vol.: 0
Chanel 10 Note On - Duracao: 59520 Nota: C1 Vol.: 0
Chanel 10 Note Off - Duracao: 59520 Nota: C1 Vol.: 0
Chanel 10 Note On - Duracao: 59520 Nota: C1 Vol.: 0
Chanel 10 Note Off - Duracao: 59520 Nota: C1 Vol.: 0
Chanel 2 Note On - Duracao: 60000 Nota: C1 Vol.: 0
Chanel 2 Note Off - Duracao: 60000 Nota: C1 Vol.: 0
Chanel 3 Note On - Duracao: 60000 Nota: C1 Vol.: 0
Chanel 3 Note Off - Duracao: 60000 Nota: C1 Vol.: 0
Chanel 1 Note On - Duracao: 60480 Nota: C1 Vol.: 0
Chanel 1 Note Off - Duracao: 60480 Nota: C1 Vol.: 0
Chanel 5 Note On - Duracao: 60480 Nota: C1 Vol.: 0
Chanel 5 Note Off - Duracao: 60480 Nota: C1 Vol.: 0
Chanel 6 Note On - Duracao: 60480 Nota: C1 Vol.: 0
Chanel 6 Note Off - Duracao: 60480 Nota: C1 Vol.: 0
Chanel 7 Note On - Duracao: 60480 Nota: C1 Vol.: 0
Chanel 7 Note Off - Duracao: 60480 Nota: C1 Vol.: 0
Chanel 8 Note On - Duracao: 60480 Nota: C1 Vol.: 0
Chanel 8 Note Off - Duracao: 60480 Nota: C1 Vol.: 0
Chanel 3 Note On - Duracao: 60960 Nota: C1 Vol.: 0
Chanel 3 Note Off - Duracao: 60960 Nota: C1 Vol.: 0
Chanel 3 Note On - Duracao: 60960 Nota: C1 Vol.: 0
Chanel 3 Note Off - Duracao: 60960 Nota: C1 Vol.: 0
Chanel 4 Note On - Duracao: 60960 Nota: C1 Vol.: 0
Chanel 4 Note Off - Duracao: 60960 Nota: C1 Vol.: 0
Chanel 4 Note On - Duracao: 60960 Nota: C1 Vol.: 0
Chanel 4 Note Off - Duracao: 60960 Nota: C1 Vol.: 0
Chanel 10 Note On - Duracao: 60960 Nota: C1 Vol.: 0
Chanel 10 Note Off - Duracao: 60960 Nota: C1 Vol.: 0
Chanel 2 Note On - Duracao: 61440 Nota: C1 Vol.: 0
Chanel 2 Note Off - Duracao: 61440 Nota: C1 Vol.: 0
Chanel 3 Note On - Duracao: 61440 Nota: C1 Vol.: 0
Chanel 3 Note Off - Duracao: 61440 Nota: C1 Vol.: 0
Chanel 3 Note On - Duracao: 61440 Nota: C1 Vol.: 0
Chanel 3 Note Off - Duracao: 61440 Nota: C1 Vol.: 0
Chanel 4 Note On - Duracao: 61440 Nota: C1 Vol.: 0
Chanel 4 Note Off - Duracao: 61440 Nota: C1 Vol.: 0
Chanel 4 Note On - Duracao: 61440 Nota: C1 Vol.: 0
Chanel 4 Note Off - Duracao: 61440 Nota: C1 Vol.: 0
Chanel 6 Note On - Duracao: 61440 Nota: C1 Vol.: 0
Chanel 6 Note Off - Duracao: 61440 Nota: C1 Vol.: 0
Chanel 7 Note On - Duracao: 61440 Nota: C1 Vol.: 0
Chanel 7 Note Off - Duracao: 61440 Nota: C1 Vol.: 0
Chanel 9 Note On - Duracao: 61440 Nota: C1 Vol.: 0
Chanel 9 Note Off - Duracao: 61440 Nota: C1 Vol.: 0
Chanel 10 Note On - Duracao: 61440 Nota: C1 Vol.: 0
Chanel 10 Note Off - Duracao: 61440 Nota: C1 Vol.: 0
Chanel 5 Note On - Duracao: 61920 Nota: C1 Vol.: 0
Chanel 5 Note Off - Duracao: 61920 Nota: C1 Vol.: 0
Chanel 7 Note On - Duracao: 61920 Nota: C1 Vol.: 0
Chanel 7 Note Off - Duracao: 61920 Nota: C1 Vol.: 0
Chanel 7 Note On - Duracao: 61920 Nota: C1 Vol.: 0
Chanel 7 Note Off - Duracao: 61920 Nota: C1 Vol.: 0
Chanel 8 Note On - Duracao: 61920 Nota: C1 Vol.: 0
Chanel 8 Note Off - Duracao: 61920 Nota: C1 Vol.: 0
Chanel 8 Note On - Duracao: 61920 Nota: C1 Vol.: 0
Chanel 8 Note Off - Duracao: 61920 Nota: C1 Vol.: 0
Chanel 9 Note On - Duracao: 61920 Nota: C1 Vol.: 0
Chanel 9 Note Off - Duracao: 61920 Nota: C1 Vol.: 0
Chanel 10 Note On - Duracao: 61920 Nota: C1 Vol.: 0
Chanel 10 Note Off - Duracao: 61920 Nota: C1 Vol.: 0
Chanel 1 Note On - Duracao: 62400 Nota: C1 Vol.: 0
Chanel 1 Note Off - Duracao: 62400 Nota: C1 Vol.: 0
Chanel 3 Note On - Duracao: 62400 Nota: C1 Vol.: 0
Chanel 3 Note Off - Duracao: 62400 Nota: C1 Vol.: 0
Chanel 6 Note On - Duracao: 62400 Nota: C1 Vol.: 0
Chanel 6 Note Off - Duracao: 62400 Nota: C1 Vol.: 0
Chanel 6 Note On - Duracao: 62400 Nota: C1 Vol.: 0
Chanel 6 Note Off - Duracao: 62400 Nota: C1 Vol.: 0
Chanel 1 Note On - Duracao: 62880 Nota: C1 Vol.: 0
Chanel 1 Note Off - Duracao: 62880 Nota: C1 Vol.: 0
Chanel 2 Note On - Duracao: 62880 Nota: C1 Vol.: 0
Chanel 2 Note Off - Duracao: 62880 Nota: C1 Vol.: 0
Chanel 3 Note On - Duracao: 62880 Nota: C1 Vol.: 0
Chanel 3 Note Off - Duracao: 62880 Nota: C1 Vol.: 0
Chanel 7 Note On - Duracao: 62880 Nota: C1 Vol.: 0
Chanel 7 Note Off - Duracao: 62880 Nota: C1 Vol.: 0
Chanel 9 Note On - Duracao: 62880 Nota: C1 Vol.: 0
Chanel 9 Note Off - Duracao: 62880 Nota: C1 Vol.: 0
Chanel 1 Note On - Duracao: 63360 Nota: C1 Vol.: 0
Chanel 1 Note Off - Duracao: 63360 Nota: C1 Vol.: 0
Chanel 2 Note On - Duracao: 63360 Nota: C1 Vol.: 0
Chanel 2 Note Off - Duracao: 63360 Nota: C1 Vol.: 0
Chanel 4 Note On - Duracao: 63360 Nota: C1 Vol.: 0
Chanel 4 Note Off - Duracao: 63360 Nota: C1 Vol.: 0
Chanel 6 Note On - Duracao: 63360 Nota: C1 Vol.: 0
Chanel 6 Note Off - Duracao: 63360 Nota: C1 Vol.: 0
Chanel 8 Note On - Duracao: 63360 Nota: C1 Vol.: 0
Chanel 8 Note Off - Duracao: 63360 Nota: C1 Vol.: 0
Chanel 8 Note On - Duracao: 63360 Nota: C1 Vol.: 0
Chanel 8 Note Off - Duracao: 63360 Nota: C1 Vol.: 0
Chanel 4 Note On - Duracao: 63840 Nota: C1 Vol.: 0
Chanel 4 Note Off - Duracao: 63840 Nota: C1 Vol.: 0
Chanel 5 Note On - Duracao: 63840 Nota: C1 Vol.: 0
Chanel 5 Note Off - Duracao: 63840 Nota: C1 Vol.: 0
Chanel 7 Note On - Duracao: 63840 Nota: C1 Vol.: 0
Chanel 7 Note Off - Duracao: 63840 Nota: C1 Vol.: 0
Chanel 10 Note On - Duracao: 63840 Nota: C1 Vol.: 0
Chanel 10 Note Off - Duracao: 63840 Nota: C1 Vol.: 0
Chanel 3 Note On - Duracao: 64320 Nota: C1 Vol.: 0
Chanel 3 Note Off - Duracao: 64320 Nota: C1 Vol.: 0
Chanel 6 Note On - Duracao: 64320 Nota: C1 Vol.: 0
Chanel 6 Note Off - Duracao: 64320 Nota: C1 Vol.: 0
Chanel 6 Note On - Duracao: 64320 Nota: C1 Vol.: 0
Chanel 6 Note Off - Duracao: 64320 Nota: C1 Vol.: 0
Chanel 9 Note On - Duracao: 64320 Nota: C1 Vol.: 0
Chanel 9 Note Off - Duracao: 64320 Nota: C1 Vol.: 0
Chanel 2 Note On - Duracao: 64800 Nota: C1 Vol.: 0
Chanel 2 Note Off - Duracao: 64800 Nota: C1 Vol.: 0
Chanel 3 Note On - Duracao: 64800 Nota: C1 Vol.: 0
Chanel 3 Note Off - Duracao: 64800 Nota: C1 Vol.: 0
Chanel 8 Note On - Duracao: 64800 Nota: C1 Vol.: 0
Chanel 8 Note Off - Duracao: 64800 Nota: C1 Vol.: 0
Chanel 1 Note On - Duracao: 65280 Nota: C1 Vol.: 0
Chanel 1 Note Off - Duracao: 65280 Nota: C1 Vol.: 0
Chanel 1 Note On - Duracao: 65280 Nota: C1 Vol.: 0
Chanel 1 Note Off - Duracao: 65280 Nota: C1 Vol.: 0
Chanel 1 Note On - Duracao: 65280 Nota: C1 Vol.: 0
Chanel 1 Note Off - Duracao: 65280 Nota: C1 Vol.: 0
Chanel 3 Note On - Duracao: 65280 Nota: C1 Vol.: 0
Chanel 3 Note Off - Duracao: 65280 Nota: C1 Vol.: 0
Chanel 10 Note On - Duracao: 65280 Nota: C1 Vol.: 0
Chanel 10 Note Off - Duracao: 65280 Nota: C1 Vol.: 0
Chanel 3 Note On - Duracao: 65760 Nota: C1 Vol.: 0
Chanel 3 Note Off - Duracao: 65760 Nota: C1 Vol.: 0
Chanel 4 Note On - Duracao: 65760 Nota: C1 Vol.: 0
Chanel 4 Note Off - Duracao: 65760 Nota: C1 Vol.: 0
Chanel 5 Note On - Duracao: 65760 Nota: C1 Vol.: 0
Chanel 5 Note Off - Duracao: 65760 Nota: C1 Vol.: 0
Chanel 7 Note On - Duracao: 65760 Nota: C1 Vol.: 0
Chanel 7 Note Off - Duracao: 65760 Nota: C1 Vol.: 0
Chanel 1 Note On - Duracao: 66240 Nota: C1 Vol.: 0
Chanel 1 Note Off - Duracao: 66240 Nota: C1 Vol.: 0
Chanel 1 Note On - Duracao: 66240 Nota: C1 Vol.: 0
Chanel 1 Note Off - Duracao: 66240 Nota: C1 Vol.: 0
Chanel 3 Note On - Duracao: 66240 Nota: C1 Vol.: 0
Chanel 3 Note Off - Duracao: 66240 Nota: C1 Vol.: 0
Chanel 6 Note On - Duracao: 66240 Nota: C1 Vol.: 0
Chanel 6 Note Off - Duracao: 66240 Nota: C1 Vol.: 0
Chanel 6 Note On - Duracao: 66240 Nota: C1 Vol.: 0
Chanel 6 Note Off - Duracao: 66240 Nota: C1 Vol.: 0
Chanel 9 Note On - Duracao: 66240 Nota: C1 Vol.: 0
Chanel 9 Note Off - Duracao: 66240 Nota: C1 Vol.: 0
Chanel 2 Note On - Duracao: 66720 Nota: C1 Vol.: 0
Chanel 2 Note Off - Duracao: 66720 Nota: C1 Vol.: 0
Chanel 2 Note On - Duracao: 66720 Nota: C1 Vol.: 0
Chanel 2 Note Off - Duracao: 66720 Nota: C1 Vol.: 0
Chanel 8 Note On - Duracao: 66720 Nota: C1 Vol.: 0
Chanel 8 Note Off - Duracao: 66720 Nota: C1 Vol.: 0
Chanel 1 Note On - Duracao: 67200 Nota: C1 Vol.: 0
Chanel 1 Note Off - Duracao: 67200 Nota: C1 Vol.: 0
Chanel 5 Note On - Duracao: 67200 Nota: C1 Vol.: 0
Chanel 5 Note Off - Duracao: 67200 Nota: C1 Vol.: 0
Chanel 6 Note On - Duracao: 67200 Nota: C1 Vol.: 0
Chanel 6 Note Off - Duracao: 67200 Nota: C1 Vol.: 0
Chanel 10 Note On - Duracao: 67200 Nota: C1 Vol.: 0
Chanel 10 Note Off - Duracao: 67200 Nota: C1 Vol.: 0
Chanel 1 Note On - Duracao: 67680 Nota: C1 Vol.: 0
Chanel 1 Note Off - Duracao: 67680 Nota: C1 Vol.: 0
Chanel 1 Note On - Duracao: 67680 Nota: C1 Vol.: 0
Chanel 1 Note Off - Duracao: 67680 Nota: C1 Vol.: 0
Chanel 2 Note On - Duracao: 67680 Nota: C1 Vol.: 0
Chanel 2 Note Off - Duracao: 67680 Nota: C1 Vol.: 0
Chanel 3 Note On - Duracao: 67680 Nota: C1 Vol.: 0
Chanel 3 Note Off - Duracao: 67680 Nota: C1 Vol.: 0
Chanel 4 Note On - Duracao: 67680 Nota: C1 Vol.: 0
Chanel 4 Note Off - Duracao: 67680 Nota: C1 Vol.: 0
Chanel 4 Note On - Duracao: 67680 Nota: C1 Vol.: 0
Chanel 4 Note Off - Duracao: 67680 Nota: C1 Vol.: 0
Chanel 5 Note On - Duracao: 67680 Nota: C1 Vol.: 0
Chanel 5 Note Off - Duracao: 67680 Nota: C1 Vol.: 0
Chanel 7 Note On - Duracao: 67680 Nota: C1 Vol.: 0
Chanel 7 Note Off - Duracao: 67680 Nota: C1 Vol.: 0
Chanel 9 Note On - Duracao: 68160 Nota: C1 Vol.: 0
Chanel 9 Note Off - Duracao: 68160 Nota: C1 Vol.: 0
Chanel 1 Note On - Duracao: 68640 Nota: C1 Vol.: 0
Chanel 1 Note Off - Duracao: 68640 Nota: C1 Vol.: 0
Chanel 3 Note On - Duracao: 68640 Nota: C1 Vol.: 0
Chanel 3 Note Off - Duracao: 68640 Nota: C1 Vol.: 0
Chanel 3 Note On - Duracao: 68640 Nota: C1 Vol.: 0
Chanel 3 Note Off - Duracao: 68640 Nota: C1 Vol.: 0
Chanel 4 Note On - Duracao: 68640 Nota: C1 Vol.: 0
Chanel 4 Note Off - Duracao: 68640 Nota: C1 Vol.: 0
Chanel 8 Note On - Duracao: 68640 Nota: C1 Vol.: 0
Chanel 8 Note Off - Duracao: 68640 Nota: C1 Vol.: 0
Chanel 8 Note On - Duracao: 68640 Nota: C1 Vol.: 0
Chanel 8 Note Off - Duracao: 68640 Nota: C1 Vol.: 0
Chanel 2 Note On - Duracao: 69120 Nota: C1 Vol.: 0
Chanel 2 Note Off - Duracao: 69120 Nota: C1 Vol.: 0
Chanel 2 Note On - Duracao: 69120 Nota: C1 Vol.: 0
Chanel 2 Note Off - Duracao: 69120 Nota: C1 Vol.: 0
Chanel 2 Note On - Duracao: 69120 Nota: C1 Vol.: 0
Chanel 2 Note Off - Duracao: 69120 Nota: C1 Vol.: 0
Chanel 4 Note On - Duracao: 69120 Nota: C1 Vol.: 0
Chanel 4 Note Off - Duracao: 69120 Nota: C1 Vol.: 0
Chanel 5 Note On - Duracao: 69120 Nota: C1 Vol.: 0
Chanel 5 Note Off - Duracao: 69120 Nota: C1 Vol.: 0
Chanel 6 Note On - Duracao: 69120 Nota: C1 Vol.: 0
Chanel 6 Note Off - Duracao: 69120 Nota: C1 Vol.: 0
Chanel 7 Note On - Duracao: 69120 Nota: C1 Vol.: 0
Chanel 7 Note Off - Duracao: 69120 Nota: C1 Vol.: 0
Chanel 10 Note On - Duracao: 69120 Nota: C1 Vol.: 0
Chanel 10 Note Off - Duracao: 69120 Nota: C1 Vol.: 0
Chanel 3 Note On - Duracao: 69600 Nota: C1 Vol.: 0
Chanel 3 Note Off - Duracao: 69600 Nota: C1 Vol.: 0
Chanel 5 Note On - Duracao: 69600 Nota: C1 Vol.: 0
Chanel 5 Note Off - Duracao: 69600 Nota: C1 Vol.: 0
Chanel 9 Note On - Duracao: 69600 Nota: C1 Vol.: 0
Chanel 9 Note Off - Duracao: 69600 Nota: C1 Vol.: 0
Chanel 9 Note On - Duracao: 69600 Nota: C1 Vol.: 0
Chanel 9 Note Off - Duracao: 69600 Nota: C1 Vol.: 0
Chanel 6 Note On - Duracao: 70080 Nota: C1 Vol.: 0
Chanel 6 Note Off - Duracao: 70080 Nota: C1 Vol.: 0
Chanel 7 Note On - Duracao: 70080 Nota: C1 Vol.: 0
Chanel 7 Note Off - Duracao: 70080 Nota: C1 Vol.: 0
Chanel 8 Note On - Duracao: 70080 Nota: C1 Vol.: 0
Chanel 8 Note Off - Duracao: 70080 Nota: C1 Vol.: 0
Chanel 1 Note On - Duracao: 70560 Nota: C1 Vol.: 0
Chanel 1 Note Off - Duracao: 70560 Nota: C1 Vol.: 0
Chanel 2 Note On - Duracao: 70560 Nota: C1 Vol.: 0
Chanel 2 Note Off - Duracao: 70560 Nota: C1 Vol.: 0
Chanel 9 Note On - Duracao: 70560 Nota: C1 Vol.: 0
Chanel 9 Note Off - Duracao: 70560 Nota: C1 Vol.: 0
Chanel 9 Note On - Duracao: 70560 Nota: C1 Vol.: 0
Chanel 9 Note Off - Duracao: 70560 Nota: C1 Vol.: 0
Chanel 9 Note On - Duracao: 70560 Nota: C1 Vol.: 0
Chanel 9 Note Off - Duracao: 70560 Nota: C1 Vol.: 0
Chanel 9 Note On - Duracao: 70560 Nota: C1 Vol.: 0
Chanel 9 Note Off - Duracao: 70560 Nota: C1 Vol.: 0
Chanel 3 Note On - Duracao: 71040 Nota: C1 Vol.: 0
Chanel 3 Note Off - Duracao: 71040 Nota: C1 Vol.: 0
Chanel 4 Note On - Duracao: 71040 Nota: C1 Vol.: 0
Chanel 4 Note Off - Duracao: 71040 Nota: C1 Vol.: 0
Chanel 4 Note On - Duracao: 71040 Nota: C1 Vol.: 0
Chanel 4 Note Off - Duracao: 71040 Nota: C1 Vol.: 0
Chanel 5 Note On - Duracao: 71040 Nota: C1 Vol.: 0
Chanel 5 Note Off - Duracao: 71040 Nota: C1 Vol.: 0
Chanel 7 Note On - Duracao: 71040 Nota: C1 Vol.: 0
Chanel 7 Note Off - Duracao: 71040 Nota: C1 Vol.: 0
Chanel 8 Note On - Duracao: 71040 Nota: C1 Vol.: 0
Chanel 8 Note Off - Duracao: 71040 Nota: C1 Vol.: 0
Chanel 8 Note On - Duracao: 71040 Nota: C1 Vol.: 0
Chanel 8 Note Off - Duracao: 71040 Nota: C1 Vol.: 0
Chanel 9 Note On - Duracao: 71040 Nota: C1 Vol.: 0
Chanel 9 Note Off - Duracao: 71040 Nota: C1 Vol.: 0
Chanel 10 Note On - Duracao: 71040 Nota: C1 Vol.: 0
Chanel 10 Note Off - Duracao: 71040 Nota: C1 Vol.: 0
Chanel 3 Note On - Duracao: 71520 Nota: C1 Vol.: 0
Chanel 3 Note Off - Duracao: 71520 Nota: C1 Vol.: 0
Chanel 5 Note On - Duracao: 71520 Nota: C1 Vol.: 0
Chanel 5 Note Off - Duracao: 71520 Nota: C1 Vol.: 0
Chanel 6 Note On - Duracao: 71520 Nota: C1 Vol.: 0
Chanel 6 Note Off - Duracao: 71520 Nota: C1 Vol.: 0
Chanel 7 Note On - Duracao: 71520 Nota: C1 Vol.: 0
Chanel 7 Note Off - Duracao: 71520 Nota: C1 Vol.: 0
Chanel 7 Note On - Duracao: 71520 Nota: C1 Vol.: 0
Chanel 7 Note Off - Duracao: 71520 Nota: C1 Vol.: 0
Chanel 8 Note On - Duracao: 71520 Nota: C1 Vol.: 0
Chanel 8 Note Off - Duracao: 71520 Nota: C1 Vol.: 0
Chanel 10 Note On - Duracao: 71520 Nota: C1 Vol.: 0
Chanel 10 Note Off - Duracao: 71520 Nota: C1 Vol.: 0
Chanel 1 Note On - Duracao: 72000 Nota: C1 Vol.: 0
Chanel 1 Note Off - Duracao: 72000 Nota: C1 Vol.: 0
Chanel 5 Note On - Duracao: 72000 Nota: C1 Vol.: 0
Chanel 5 Note Off - Duracao: 72000 Nota: C1 Vol.: 0
Chanel 5 Note On - Duracao: 72000 Nota: C1 Vol.: 0
Chanel 5 Note Off - Duracao: 72000 Nota: C1 Vol.: 0
Chanel 5 Note On - Duracao: 72000 Nota: C1 Vol.: 0
Chanel 5 Note Off - Duracao: 72000 Nota: C1 Vol.: 0
Chanel 2 Note On - Duracao: 72480 Nota: C1 Vol.: 0
Chanel 2 Note Off - Duracao: 72480 Nota: C1 Vol.: 0
Chanel 3 Note On - Duracao: 72480 Nota: C1 Vol.: 0
Chanel 3 Note Off - Duracao: 72480 Nota: C1 Vol.: 0
Chanel 4 Note On - Duracao: 72480 Nota: C1 Vol.: 0
Chanel 4 Note Off - Duracao: 72480 Nota: C1 Vol.: 0
Chanel 9 Note On - Duracao: 72480 Nota: C1 Vol.: 0
Chanel 9 Note Off - Duracao: 72480 Nota: C1 Vol.: 0
Chanel 10 Note On - Duracao: 72480 Nota: C1 Vol.: 0
Chanel 10 Note Off - Duracao: 72480 Nota: C1 Vol.: 0
Chanel 3 Note On - Duracao: 72960 Nota: C1 Vol.: 0
Chanel 3 Note Off - Duracao: 72960 Nota: C1 Vol.: 0
Chanel 4 Note On - Duracao: 72960 Nota: C1 Vol.: 0
Chanel 4 Note Off - Duracao: 72960 Nota: C1 Vol.: 0
Chanel 4 Note On - Duracao: 72960 Nota: C1 Vol.: 0
Chanel 4 Note Off - Duracao: 72960 Nota: C1 Vol.: 0
Chanel 4 Note On - Duracao: 72960 Nota: C1 Vol.: 0
Chanel 4 Note Off - Duracao: 72960 Nota: C1 Vol.: 0
Chanel 4 Note On - Duracao: 72960 Nota: C1 Vol.: 0
Chanel 4 Note Off - Duracao: 72960 Nota: C1 Vol.: 0
Chanel 5 Note On - Duracao: 72960 Nota: C1 Vol.: 0
Chanel 5 Note Off - Duracao: 72960 Nota: C1 Vol.: 0
Chanel 6 Note On - Duracao: 72960 Nota: C1 Vol.: 0
Chanel 6 Note Off - Duracao: 72960 Nota: C1 Vol.: 0
Chanel 6 Note On - Duracao: 72960 Nota: C1 Vol.: 0
Chanel 6 Note Off - Duracao: 72960 Nota: C1 Vol.: 0
Chanel 5 Note On - Duracao: 73440 Nota: C1 Vol.: 0
Chanel 5 Note Off - Duracao: 73440 Nota: C1 Vol.: 0
Chanel 7 Note On - Duracao: 73440 Nota: C1 Vol.: 0
Chanel 7 Note Off - Duracao: 73440 Nota: C1 Vol.: 0
Chanel 8 Note On - Duracao: 73440 Nota: C1 Vol.: 0
Chanel 8 Note Off - Duracao: 73440 Nota: C1 Vol.: 0
Chanel 1 Note On - Duracao: 73920 Nota: C1 Vol.: 0
Chanel 1 Note Off - Duracao: 73920 Nota: C1 Vol.: 0
Chanel 3 Note On - Duracao: 73920 Nota: C1 Vol.: 0
Chanel 3 Note Off - Duracao: 73920 Nota: C1 Vol.: 0
Chanel 3 Note On - Duracao: 73920 Nota: C1 Vol.: 0
Chanel 3 Note Off - Duracao: 73920 Nota: C1 Vol.: 0
Chanel 4 Note On - Duracao: 73920 Nota: C1 Vol.: 0
Chanel 4 Note Off - Duracao: 73920 Nota: C1 Vol.: 0
Chanel 9 Note On - Duracao: 73920 Nota: C1 Vol.: 0
Chanel 9 Note Off - Duracao: 73920 Nota: C1 Vol.: 0
Chanel 10 Note On - Duracao: 73920 Nota: C1 Vol.: 0
Chanel 10 Note Off - Duracao: 73920 Nota: C1 Vol.: 0
Chanel 2 Note On - Duracao: 74400 Nota: C1 Vol.: 0
Chanel 2 Note Off - Duracao: 74400 Nota: C1 Vol.: 0
Chanel 7 Note On - Duracao: 74400 Nota: C1 Vol.: 0
Chanel 7 Note Off - Duracao: 74400 Nota: C1 Vol.: 0
Chanel 9 Note On - Duracao: 74400 Nota: C1 Vol.: 0
Chanel 9 Note Off - Duracao: 74400 Nota: C1 Vol.: 0
Chanel 10 Note On - Duracao: 74400 Nota: C1 Vol.: 0
Chanel 10 Note Off - Duracao: 74400 Nota: C1 Vol.: 0
Chanel 6 Note On - Duracao: 74880 Nota: C1 Vol.: 0
Chanel 6 Note Off - Duracao: 74880 Nota: C1 Vol.: 0
Chanel 6 Note On - Duracao: 74880 Nota: C1 Vol.: 0
Chanel 6 Note Off - Duracao: 74880 Nota: C1 Vol.: 0
Chanel 1 Note On - Duracao: 75360 Nota: C1 Vol.: 0
Chanel 1 Note Off - Duracao: 75360 Nota: C1 Vol.: 0
Chanel 1 Note On - Duracao: 75360 Nota: C1 Vol.: 0
Chanel 1 Note Off - Duracao: 75360 Nota: C1 Vol.: 0
Chanel 3 Note On - Duracao: 75360 Nota: C1 Vol.: 0
Chanel 3 Note Off - Duracao: 75360 Nota: C1 Vol.: 0
Chanel 5 Note On - Duracao: 75360 Nota: C1 Vol.: 0
Chanel 5 Note Off - Duracao: 75360 Nota: C1 Vol.: 0
Chanel 8 Note On - Duracao: 75360 Nota: C1 Vol.: 0
Chanel 8 Note Off - Duracao: 75360 Nota: C1 Vol.: 0
Chanel 2 Note On - Duracao: 75840 Nota: C1 Vol.: 0
Chanel 2 Note Off - Duracao: 75840 Nota: C1 Vol.: 0
Chanel 2 Note On - Duracao: 75840 Nota: C1 Vol.: 0
Chanel 2 Note Off - Duracao: 75840 Nota: C1 Vol.: 0
Chanel 4 Note On - Duracao: 75840 Nota: C1 Vol.: 0
Chanel 4 Note Off - Duracao: 75840 Nota: C1 Vol.: 0
Chanel 4 Note On - Duracao: 75840 Nota: C1 Vol.: 0
Chanel 4 Note Off - Duracao: 75840 Nota: C1 Vol.: 0
Chanel 4 Note On - Duracao: 76320 Nota: C1 Vol.: 0
Chanel 4 Note Off - Duracao: 76320 Nota: C1 Vol.: 0
Chanel 7 Note On - Duracao: 76320 Nota: C1 Vol.: 0
Chanel 7 Note Off - Duracao: 76320 Nota: C1 Vol.: 0
Chanel 9 Note On - Duracao: 76320 Nota: C1 Vol.: 0
Chanel 9 Note Off - Duracao: 76320 Nota: C1 Vol.: 0
Chanel 10 Note On - Duracao: 76320 Nota: C1 Vol.: 0
Chanel 10 Note Off - Duracao: 76320 Nota: C1 Vol.: 0
Chanel 1 Note On - Duracao: 76800 Nota: C1 Vol.: 0
Chanel 1 Note Off - Duracao: 76800 Nota: C1 Vol.: 0
Chanel 4 Note On - Duracao: 76800 Nota: C1 Vol.: 0
Chanel 4 Note Off - Duracao: 76800 Nota: C1 Vol.: 0
Chanel 5 Note On - Duracao: 76800 Nota: C1 Vol.: 0
Chanel 5 Note Off - Duracao: 76800 Nota: C1 Vol.: 0
Chanel 6 Note On - Duracao: 76800 Nota: C1 Vol.: 0
Chanel 6 Note Off - Duracao: 76800 Nota: C1 Vol.: 0
Chanel 8 Note On - Duracao: 76800 Nota: C1 Vol.: 0
Chanel 8 Note Off - Duracao: 76800 Nota: C1 Vol.: 0
Chanel 8 Note On - Duracao: 76800 Nota: C1 Vol.: 0
Chanel 8 Note Off - Duracao: 76800 Nota: C1 Vol.: 0
Chanel 8 Note On - Duracao: 76800 Nota: C1 Vol.: 0
Chanel 8 Note Off - Duracao: 76800 Nota: C1 Vol.: 0
Chanel 8 Note On - Duracao: 76800 Nota: C1 Vol.: 0
Chanel 8 Note Off - Duracao: 76800 Nota: C1 Vol.: 0
Chanel 9 Note On - Duracao: 76800 Nota: C1 Vol.: 0
Chanel 9 Note Off - Duracao: 76800 Nota: C1 Vol.: 0
Chanel 9 Note On - Duracao: 76800 Nota: C1 Vol.: 0
Chanel 9 Note Off - Duracao: 76800 Nota: C1 Vol.: 0
Chanel 1 Note On - Duracao: 77280 Nota: C1 Vol.: 0
Chanel 1 Note Off - Duracao: 77280 Nota: C1 Vol.: 0
Chanel 3 Note On - Duracao: 77280 Nota: C1 Vol.: 0
Chanel 3 Note Off - Duracao: 77280 Nota: C1 Vol.: 0
Chanel 4 Note On - Duracao: 77280 Nota: C1 Vol.: 0
Chanel 4 Note Off - Duracao: 77280 Nota: C1 Vol.: 0
Chanel 6 Note On - Duracao: 77280 Nota: C1 Vol.: 0
Chanel 6 Note Off - Duracao: 77280 Nota: C1 Vol.: 0
Chanel 10 Note On - Duracao: 77280 Nota: C1 Vol.: 0
Chanel 10 Note Off - Duracao: 77280 Nota: C1 Vol.: 0
Chanel 2 Note On - Duracao: 77760 Nota: C1 Vol.: 0
Chanel 2 Note Off - Duracao: 77760 Nota: C1 Vol.: 0
Chanel 3 Note On - Duracao: 77760 Nota: C1 Vol.: 0
Chanel 3 Note Off - Duracao: 77760 Nota: C1 Vol.: 0
Chanel 7 Note On - Duracao: 77760 Nota: C1 Vol.: 0
Chanel 7 Note Off - Duracao: 77760 Nota: C1 Vol.: 0
Chanel 8 Note On - Duracao: 77760 Nota: C1 Vol.: 0
Chanel 8 Note Off - Duracao: 77760 Nota: C1 Vol.: 0
Chanel 4 Note On - Duracao: 78240 Nota: C1 Vol.: 0
Chanel 4 Note Off - Duracao: 78240 Nota: C1 Vol.: 0
Chanel 4 Note On - Duracao: 78240 Nota: C1 Vol.: 0
Chanel 4 Note Off - Duracao: 78240 Nota: C1 Vol.: 0
Chanel 5 Note On - Duracao: 78240 Nota: C1 Vol.: 0
Chanel 5 Note Off - Duracao: 78240 Nota: C1 Vol.: 0
Chanel 8 Note On - Duracao: 78240 Nota: C1 Vol.: 0
Chanel 8 Note Off - Duracao: 78240 Nota: C1 Vol.: 0
Chanel 1 Note On - Duracao: 78720 Nota: C1 Vol.: 0
Chanel 1 Note Off - Duracao: 78720 Nota: C1 Vol.: 0
Chanel 6 Note On - Duracao: 78720 Nota: C1 Vol.: 0
Chanel 6 Note Off - Duracao: 78720 Nota: C1 Vol.: 0
Chanel 8 Note On - Duracao: 78720 Nota: C1 Vol.: 0
Chanel 8 Note Off - Duracao: 78720 Nota: C1 Vol.: 0
Chanel 9 Note On - Duracao: 78720 Nota: C1 Vol.: 0
Chanel 9 Note Off - Duracao: 78720 Nota: C1 Vol.: 0
Chanel 10 Note On - Duracao: 78720 Nota: C1 Vol.: 0
Chanel 10 Note Off - Duracao: 78720 Nota: C1 Vol.: 0
Chanel 10 Note On - Duracao: 78720 Nota: C1 Vol.: 0
Chanel 10 Note Off - Duracao: 78720 Nota: C1 Vol.: 0
Chanel 2 Note On - Duracao: 79200 Nota: C1 Vol.: 0
Chanel 2 Note Off - Duracao: 79200 Nota: C1 Vol.: 0
Chanel 5 Note On - Duracao: 79200 Nota: C1 Vol.: 0
Chanel 5 Note Off - Duracao: 79200 Nota: C1 Vol.: 0
Chanel 7 Note On - Duracao: 79200 Nota: C1 Vol.: 0
Chanel 7 Note Off - Duracao: 79200 Nota: C1 Vol.: 0
Chanel 1 Note On - Duracao: 79680 Nota: C1 Vol.: 0
Chanel 1 Note Off - Duracao: 79680 Nota: C1 Vol.: 0
Chanel 1 Note On - Duracao: 79680 Nota: C1 Vol.: 0
Chanel 1 Note Off - Duracao: 79680 Nota: C1 Vol.: 0
Chanel 3 Note On - Duracao: 79680 Nota: C1 Vol.: 0
Chanel 3 Note Off - Duracao: 79680 Nota: C1 Vol.: 0
Chanel 4 Note On - Duracao: 79680 Nota: C1 Vol.: 0
Chanel 4 Note Off - Duracao: 79680 Nota: C1 Vol.: 0
Chanel 4 Note On - Duracao: 79680 Nota: C1 Vol.: 0
Chanel 4 Note Off - Duracao: 79680 Nota: C1 Vol.: 0
Chanel 6 Note On - Duracao: 79680 Nota: C1 Vol.: 0
Chanel 6 Note Off - Duracao: 79680 Nota: C1 Vol.: 0
Chanel 8 Note On - Duracao: 79680 Nota: C1 Vol.: 0
Chanel 8 Note Off - Duracao: 79680 Nota: C1 Vol.: 0
Chanel 9 Note On - Duracao: 80160 Nota: C1 Vol.: 0
Chanel 9 Note Off - Duracao: 80160 Nota: C1 Vol.: 0
Chanel 2 Note On - Duracao: 80640 Nota: C1 Vol.: 0
Chanel 2 Note Off - Duracao: 80640 Nota: C1 Vol.: 0
Chanel 6 Note On - Duracao: 80640 Nota: C1 Vol.: 0
Chanel 6 Note Off - Duracao: 80640 Nota: C1 Vol.: 0
Chanel 10 Note On - Duracao: 80640 Nota: C1 Vol.: 0
Chanel 10 Note Off - Duracao: 80640 Nota: C1 Vol.: 0
Chanel 1 Note On - Duracao: 81120 Nota: C1 Vol.: 0
Chanel 1 Note Off - Duracao: 81120 Nota: C1 Vol.: 0
Chanel 3 Note On - Duracao: 81120 Nota: C1 Vol.: 0
Chanel 3 Note Off - Duracao: 81120 Nota: C1 Vol.: 0
Chanel 5 Note On - Duracao: 81120 Nota: C1 Vol.: 0
Chanel 5 Note Off - Duracao: 81120 Nota: C1 Vol.: 0
Chanel 7 Note On - Duracao: 81120 Nota: C1 Vol.: 0
Chanel 7 Note Off - Duracao: 81120 Nota: C1 Vol.: 0
Chanel 9 Note On - Duracao: 81120 Nota: C1 Vol.: 0
Chanel 9 Note Off - Duracao: 81120 Nota: C1 Vol.: 0
Chanel 4 Note On - Duracao: 81600 Nota: C1 Vol.: 0
Chanel 4 Note Off - Duracao: 81600 Nota: C1 Vol.: 0
Chanel 6 Note On - Duracao: 81600 Nota: C1 Vol.: 0
Chanel 6 Note Off - Duracao: 81600 Nota: C1 Vol.: 0
Chanel 8 Note On - Duracao: 81600 Nota: C1 Vol.: 0
Chanel 8 Note Off - Duracao: 81600 Nota: C1 Vol.: 0
Chanel 1 Note On - Duracao: 82080 Nota: C1 Vol.: 0
Chanel 1 Note Off - Duracao: 82080 Nota: C1 Vol.: 0
Chanel 3 Note On - Duracao: 82080 Nota: C1 Vol.: 0
Chanel 3 Note Off - Duracao: 82080 Nota: C1 Vol.: 0
Chanel 7 Note On - Duracao: 82080 Nota: C1 Vol.: 0
Chanel 7 Note Off - Duracao: 82080 Nota: C1 Vol.: 0
Chanel 7 Note On - Duracao: 82080 Nota: C1 Vol.: 0
Chanel 7 Note Off - Duracao: 82080 Nota: C1 Vol.: 0
Chanel 9 Note On - Duracao: 82080 Nota: C1 Vol.: 0
Chanel 9 Note Off - Duracao: 82080 Nota: C1 Vol.: 0
Chanel 10 Note On - Duracao: 82080 Nota: C1 Vol.: 0
Chanel 10 Note Off - Duracao: 82080 Nota: C1 Vol.: 0
Chanel 2 Note On - Duracao: 82560 Nota: C1 Vol.: 0
Chanel 2 Note Off - Duracao: 82560 Nota: C1 Vol.: 0
Chanel 5 Note On - Duracao: 82560 Nota: C1 Vol.: 0
Chanel 5 Note Off - Duracao: 82560 Nota: C1 Vol.: 0
Chanel 5 Note On - Duracao: 82560 Nota: C1 Vol.: 0
Chanel 5 Note Off - Duracao: 82560 Nota: C1 Vol.: 0
Chanel 5 Note On - Duracao: 82560 Nota: C1 Vol.: 0
Chanel 5 Note Off - Duracao: 82560 Nota: C1 Vol.: 0
Chanel 6 Note On - Duracao: 82560 Nota: C1 Vol.: 0
Chanel 6 Note Off - Duracao: 82560 Nota: C1 Vol.: 0
Chanel 7 Note On - Duracao: 82560 Nota: C1 Vol.: 0
Chanel 7 Note Off - Duracao: 82560 Nota: C1 Vol.: 0
Chanel 8 Note On - Duracao: 82560 Nota: C1 Vol.: 0
Chanel 8 Note Off - Duracao: 82560 Nota: C1 Vol.: 0
Chanel 8 Note On - Duracao: 82560 Nota: C1 Vol.: 0
Chanel 8 Note Off - Duracao: 82560 Nota: C1 Vol.: 0
Chanel 3 Note On - Duracao: 83040 Nota: C1 Vol.: 0
Chanel 3 Note Off - Duracao: 83040 Nota: C1 Vol.: 0
Chanel 10 Note On - Duracao: 83040 Nota: C1 Vol.: 0
Chanel 10 Note Off - Duracao: 83040 Nota: C1 Vol.: 0
Chanel 10 Note On - Duracao: 83040 Nota: C1 Vol.: 0
Chanel 10 Note Off - Duracao: 83040 Nota: C1 Vol.: 0
Chanel 1 Note On - Duracao: 83520 Nota: C1 Vol.: 0
Chanel 1 Note Off - Duracao: 83520 Nota: C1 Vol.: 0
Chanel 1 Note On - Duracao: 83520 Nota: C1 Vol.: 0
Chanel 1 Note Off - Duracao: 83520 Nota: C1 Vol.: 0
Chanel 4 Note On - Duracao: 83520 Nota: C1 Vol.: 0
Chanel 4 Note Off - Duracao: 83520 Nota: C1 Vol.: 0
Chanel 8 Note On - Duracao: 83520 Nota: C1 Vol.: 0
Chanel 8 Note Off - Duracao: 83520 Nota: C1 Vol.: 0
Chanel 6 Note On - Duracao: 84000 Nota: C1 Vol.: 0
Chanel 6 Note Off - Duracao: 84000 Nota: C1 Vol.: 0
Chanel 8 Note On - Duracao: 84000 Nota: C1 Vol.: 0
Chanel 8 Note Off - Duracao: 84000 Nota: C1 Vol.: 0
Chanel 8 Note On - Duracao: 84000 Nota: C1 Vol.: 0
Chanel 8 Note Off - Duracao: 84000 Nota: C1 Vol.: 0
Chanel 9 Note On - Duracao: 84000 Nota: C1 Vol.: 0
Chanel 9 Note Off - Duracao: 84000 Nota: C1 Vol.: 0
Chanel 2 Note On - Duracao: 84480 Nota: C1 Vol.: 0
Chanel 2 Note Off - Duracao: 84480 Nota: C1 Vol.: 0
Chanel 5 Note On - Duracao: 84480 Nota: C1 Vol.: 0
Chanel 5 Note Off - Duracao: 84480 Nota: C1 Vol.: 0
Chanel 7 Note On - Duracao: 84480 Nota: C1 Vol.: 0
Chanel 7 Note Off - Duracao: 84480 Nota: C1 Vol.: 0
Chanel 1 Note On - Duracao: 84960 Nota: C1 Vol.: 0
Chanel 1 Note Off - Duracao: 84960 Nota: C1 Vol.: 0
Chanel 2 Note On - Duracao: 84960 Nota: C1 Vol.: 0
Chanel 2 Note Off - Duracao: 84960 Nota: C1 Vol.: 0
Chanel 3 Note On - Duracao: 84960 Nota: C1 Vol.: 0
Chanel 3 Note Off - Duracao: 84960 Nota: C1 Vol.: 0
Chanel 3 Note On - Duracao: 84960 Nota: C1 Vol.: 0
Chanel 3 Note Off - Duracao: 84960 Nota: C1 Vol.: 0
Chanel 6 Note On - Duracao: 84960 Nota: C1 Vol.: 0
Chanel 6 Note Off - Duracao: 84960 Nota: C1 Vol.: 0
Chanel 8 Note On - Duracao: 84960 Nota: C1 Vol.: 0
Chanel 8 Note Off - Duracao: 84960 Nota: C1 Vol.: 0
Chanel 9 Note On - Duracao: 84960 Nota: C1 Vol.: 0
Chanel 9 Note Off - Duracao: 84960 Nota: C1 Vol.: 0
Chanel 10 Note On - Duracao: 84960 Nota: C1 Vol.: 0
Chanel 10 Note Off - Duracao: 84960 Nota: C1 Vol.: 0
Chanel 10 Note On - Duracao: 84960 Nota: C1 Vol.: 0
Chanel 10 Note Off - Duracao: 84960 Nota: C1 Vol.: 0
Chanel 10 Note On - Duracao: 84960 Nota: C1 Vol.: 0
Chanel 10 Note Off - Duracao: 84960 Nota: C1 Vol.: 0
Chanel 4 Note On - Duracao: 85440 Nota: C1 Vol.: 0
Chanel 4 Note Off - Duracao: 85440 Nota: C1 Vol.: 0
Chanel 4 Note On - Duracao: 85440 Nota: C1 Vol.: 0
Chanel 4 Note Off - Duracao: 85440 Nota: C1 Vol.: 0
Chanel 6 Note On - Duracao: 85440 Nota: C1 Vol.: 0
Chanel 6 Note Off - Duracao: 85440 Nota: C1 Vol.: 0
Chanel 1 Note On - Duracao: 85920 Nota: C1 Vol.: 0
Chanel 1 Note Off - Duracao: 85920 Nota: C1 Vol.: 0
Chanel 5 Note On - Duracao: 85920 Nota: C1 Vol.: 0
Chanel 5 Note Off - Duracao: 85920 Nota: C1 Vol.: 0
Chanel 7 Note On - Duracao: 85920 Nota: C1 Vol.: 0
Chanel 7 Note Off - Duracao: 85920 Nota: C1 Vol.: 0
Chanel 7 Note On - Duracao: 85920 Nota: C1 Vol.: 0
Chanel 7 Note Off - Duracao: 85920 Nota: C1 Vol.: 0
Chanel 7 Note On - Duracao: 85920 Nota: C1 Vol.: 0
Chanel 7 Note Off - Duracao: 85920 Nota: C1 Vol.: 0
Chanel 2 Note On - Duracao: 86400 Nota: C1 Vol.: 0
Chanel 2 Note Off - Duracao: 86400 Nota: C1 Vol.: 0
Chanel 3 Note On - Duracao: 86400 Nota: C1 Vol.: 0
Chanel 3 Note Off - Duracao: 86400 Nota: C1 Vol.: 0
Chanel 4 Note On - Duracao: 86400 Nota: C1 Vol.: 0
Chanel 4 Note Off - Duracao: 86400 Nota: C1 Vol.: 0
Chanel 6 Note On - Duracao: 86400 Nota: C1 Vol.: 0
Chanel 6 Note Off - Duracao: 86400 Nota: C1 Vol.: 0
Chanel 8 Note On - Duracao: 86400 Nota: C1 Vol.: 0
Chanel 8 Note Off - Duracao: 86400 Nota: C1 Vol.: 0
Chanel 8 Note On - Duracao: 86400 Nota: C1 Vol.: 0
Chanel 8 Note Off - Duracao: 86400 Nota: C1 Vol.: 0
Chanel 9 Note On - Duracao: 86400 Nota: C1 Vol.: 0
Chanel 9 Note Off - Duracao: 86400 Nota: C1 Vol.: 0
Chanel 10 Note On - Duracao: 86400 Nota: C1 Vol.: 0
Chanel 10 Note Off - Duracao: 86400 Nota: C1 Vol.: 0
Chanel 2 Note On - Duracao: 86880 Nota: C1 Vol.: 0
Chanel 2 Note Off - Duracao: 86880 Nota: C1 Vol.: 0
Chanel 2 Note On - Duracao: 86880 Nota: C1 Vol.: 0
Chanel 2 Note Off - Duracao: 86880 Nota: C1 Vol.: 0
Chanel 4 Note On - Duracao: 86880 Nota: C1 Vol.: 0
Chanel 4 Note Off - Duracao: 86880 Nota: C1 Vol.: 0
Chanel 4 Note On - Duracao: 86880 Nota: C1 Vol.: 0
Chanel 4 Note Off - Duracao: 86880 Nota: C1 Vol.: 0
Chanel 3 Note On - Duracao: 87360 Nota: C1 Vol.: 0
Chanel 3 Note Off - Duracao: 87360 Nota: C1 Vol.: 0
Chanel 5 Note On - Duracao: 87360 Nota: C1 Vol.: 0
Chanel 5 Note Off - Duracao: 87360 Nota: C1 Vol.: 0
Chanel 1 Note On - Duracao: 87840 Nota: C1 Vol.: 0
Chanel 1 Note Off - Duracao: 87840 Nota: C1 Vol.: 0
Chanel 5 Note On - Duracao: 87840 Nota: C1 Vol.: 0
Chanel 5 Note Off - Duracao: 87840 Nota: C1 Vol.: 0
Chanel 7 Note On - Duracao: 87840 Nota: C1 Vol.: 0
Chanel 7 Note Off - Duracao: 87840 Nota: C1 Vol.: 0
Chanel 8 Note On - Duracao: 87840 Nota: C1 Vol.: 0
Chanel 8 Note Off - Duracao: 87840 Nota: C1 Vol.: 0
Chanel 2 Note On - Duracao: 88320 Nota: C1 Vol.: 0
Chanel 2 Note Off - Duracao: 88320 Nota: C1 Vol.: 0
Chanel 2 Note On - Duracao: 88320 Nota: C1 Vol.: 0
Chanel 2 Note Off - Duracao: 88320 Nota: C1 Vol.: 0
Chanel 3 Note On - Duracao: 88320 Nota: C1 Vol.: 0
Chanel 3 Note Off - Duracao: 88320 Nota: C1 Vol.: 0
Chanel 6 Note On - Duracao: 88320 Nota: C1 Vol.: 0
Chanel 6 Note Off - Duracao: 88320 Nota: C1 Vol.: 0
Chanel 8 Note On - Duracao: 88320 Nota: C1 Vol.: 0
Chanel 8 Note Off - Duracao: 88320 Nota: C1 Vol.: 0
Chanel 9 Note On - Duracao: 88320 Nota: C1 Vol.: 0
Chanel 9 Note Off - Duracao: 88320 Nota: C1 Vol.: 0
Chanel 10 Note On - Duracao: 88320 Nota: C1 Vol.: 0
Chanel 10 Note Off - Duracao: 88320 Nota: C1 Vol.: 0
Chanel 10 Note On - Duracao: 88320 Nota: C1 Vol.: 0
Chanel 10 Note Off - Duracao: 88320 Nota: C1 Vol.: 0
Chanel 8 Note On - Duracao: 88800 Nota: C1 Vol.: 0
Chanel 8 Note Off - Duracao: 88800 Nota: C1 Vol.: 0
Chanel 2 Note On - Duracao: 89280 Nota: C1 Vol.: 0
Chanel 2 Note Off - Duracao: 89280 Nota: C1 Vol.: 0
Chanel 3 Note On - Duracao: 89280 Nota: C1 Vol.: 0
Chanel 3 Note Off - Duracao: 89280 Nota: C1 Vol.: 0
Chanel 5 Note On - Duracao: 89280 Nota: C1 Vol.: 0
Chanel 5 Note Off - Duracao: 89280 Nota: C1 Vol.: 0
Chanel 1 Note On - Duracao: 89760 Nota: C1 Vol.: 0
Chanel 1 Note Off - Duracao: 89760 Nota: C1 Vol.: 0
Chanel 1 Note On - Duracao: 89760 Nota: C1 Vol.: 0
Chanel 1 Note Off - Duracao: 89760 Nota: C1 Vol.: 0
Chanel 2 Note On - Duracao: 89760 Nota: C1 Vol.: 0
Chanel 2 Note Off - Duracao: 89760 Nota: C1 Vol.: 0
Chanel 7 Note On - Duracao: 89760 Nota: C1 Vol.: 0
Chanel 7 Note Off - Duracao: 89760 Nota: C1 Vol.: 0
Chanel 10 Note On - Duracao: 89760 Nota: C1 Vol.: 0
Chanel 10 Note Off - Duracao: 89760 Nota: C1 Vol.: 0
Chanel 1 Note On - Duracao: 90240 Nota: C1 Vol.: 0
Chanel 1 Note Off - Duracao: 90240 Nota: C1 Vol.: 0
Chanel 3 Note On - Duracao: 90240 Nota: C1 Vol.: 0
Chanel 3 Note Off - Duracao: 90240 Nota: C1 Vol.: 0
Chanel 5 Note On - Duracao: 90240 Nota: C1 Vol.: 0
Chanel 5 Note Off - Duracao: 90240 Nota: C1 Vol.: 0
Chanel 6 Note On - Duracao: 90240 Nota: C1 Vol.: 0
Chanel 6 Note Off - Duracao: 90240 Nota: C1 Vol.: 0
Chanel 6 Note On - Duracao: 90240 Nota: C1 Vol.: 0
Chanel 6 Note Off - Duracao: 90240 Nota: C1 Vol.: 0
Chanel 8 Note On - Duracao: 90240 Nota: C1 Vol.: 0
Chanel 8 Note Off - Duracao: 90240 Nota: C1 Vol.: 0
Chanel 9 Note On - Duracao: 90240 Nota: C1 Vol.: 0
Chanel 9 Note Off - Duracao: 90240 Nota: C1 Vol.: 0
Chanel 3 Note On - Duracao: 90720 Nota: C1 Vol.: 0
Chanel 3 Note Off - Duracao: 90720 Nota: C1 Vol.: 0
Chanel 5 Note On - Duracao: 90720 Nota: C1 Vol.: 0
Chanel 5 Note Off - Duracao: 90720 Nota: C1 Vol.: 0
Chanel 6 Note On - Duracao: 90720 Nota: C1 Vol.: 0
Chanel 6 Note Off - Duracao: 90720 Nota: C1 Vol.: 0
Chanel 6 Note On - Duracao: 90720 Nota: C1 Vol.: 0
Chanel 6 Note Off - Duracao: 90720 Nota: C1 Vol.: 0
Chanel 6 Note On - Duracao: 90720 Nota: C1 Vol.: 0
Chanel 6 Note Off - Duracao: 90720 Nota: C1 Vol.: 0
Chanel 6 Note On - Duracao: 90720 Nota: C1 Vol.: 0
Chanel 6 Note Off - Duracao: 90720 Nota: C1 Vol.: 0
Chanel 9 Note On - Duracao: 90720 Nota: C1 Vol.: 0
Chanel 9 Note Off - Duracao: 90720 Nota: C1 Vol.: 0
Chanel 10 Note On - Duracao: 90720 Nota: C1 Vol.: 0
Chanel 10 Note Off - Duracao: 90720 Nota: C1 Vol.: 0
Chanel 1 Note On - Duracao: 91200 Nota: C1 Vol.: 0
Chanel 1 Note Off - Duracao: 91200 Nota: C1 Vol.: 0
Chanel 3 Note On - Duracao: 91200 Nota: C1 Vol.: 0
Chanel 3 Note Off - Duracao: 91200 Nota: C1 Vol.: 0
Chanel 7 Note On - Duracao: 91200 Nota: C1 Vol.: 0
Chanel 7 Note Off - Duracao: 91200 Nota: C1 Vol.: 0
Chanel 2 Note On - Duracao: 91680 Nota: C1 Vol.: 0
Chanel 2 Note Off - Duracao: 91680 Nota: C1 Vol.: 0
Chanel 5 Note On - Duracao: 91680 Nota: C1 Vol.: 0
Chanel 5 Note Off - Duracao: 91680 Nota: C1 Vol.: 0
Chanel 3 Note On - Duracao: 92160 Nota: C1 Vol.: 0
Chanel 3 Note Off - Duracao: 92160 Nota: C1 Vol.: 0
Chanel 3 Note On - Duracao: 92160 Nota: C1 Vol.: 0
Chanel 3 Note Off - Duracao: 92160 Nota: C1 Vol.: 0
Chanel 2 Note On - Duracao: 92640 Nota: C1 Vol.: 0
Chanel 2 Note Off - Duracao: 92640 Nota: C1 Vol.: 0
Chanel 6 Note On - Duracao: 92640 Nota: C1 Vol.: 0
Chanel 6 Note Off - Duracao: 92640 Nota: C1 Vol.: 0
Chanel 9 Note On - Duracao: 92640 Nota: C1 Vol.: 0
Chanel 9 Note Off - Duracao: 92640 Nota: C1 Vol.: 0
Chanel 9 Note On - Duracao: 92640 Nota: C1 Vol.: 0
Chanel 9 Note Off - Duracao: 92640 Nota: C1 Vol.: 0
Chanel 9 Note On - Duracao: 92640 Nota: C1 Vol.: 0
Chanel 9 Note Off - Duracao: 92640 Nota: C1 Vol.: 0
Chanel 10 Note On - Duracao: 92640 Nota: C1 Vol.: 0
Chanel 10 Note Off - Duracao: 92640 Nota: C1 Vol.: 0
Chanel 7 Note On - Duracao: 93120 Nota: C1 Vol.: 0
Chanel 7 Note Off - Duracao: 93120 Nota: C1 Vol.: 0
Chanel 10 Note On - Duracao: 93120 Nota: C1 Vol.: 0
Chanel 10 Note Off - Duracao: 93120 Nota: C1 Vol.: 0
Chanel 3 Note On - Duracao: 93600 Nota: C1 Vol.: 0
Chanel 3 Note Off - Duracao: 93600 Nota: C1 Vol.: 0
Chanel 5 Note On - Duracao: 93600 Nota: C1 Vol.: 0
Chanel 5 Note Off - Duracao: 93600 Nota: C1 Vol.: 0
Chanel 5 Note On - Duracao: 93600 Nota: C1 Vol.: 0
Chanel 5 Note Off - Duracao: 93600 Nota: C1 Vol.: 0
Chanel 6 Note On - Duracao: 93600 Nota: C1 Vol.: 0
Chanel 6 Note Off - Duracao: 93600 Nota: C1 Vol.: 0
Chanel 7 Note On - Duracao: 94080 Nota: C1 Vol.: 0
Chanel 7 Note Off - Duracao: 94080 Nota: C1 Vol.: 0
Chanel 7 Note On - Duracao: 94080 Nota: C1 Vol.: 0
Chanel 7 Note Off - Duracao: 94080 Nota: C1 Vol.: 0
Chanel 7 Note On - Duracao: 94080 Nota: C1 Vol.: 0
Chanel 7 Note Off - Duracao: 94080 Nota: C1 Vol.: 0
Chanel 9 Note On - Duracao: 94080 Nota: C1 Vol.: 0
Chanel 9 Note Off - Duracao: 94080 Nota: C1 Vol.: 0
Chanel 9 Note On - Duracao: 94080 Nota: C1 Vol.: 0
Chanel 9 Note Off - Duracao: 94080 Nota: C1 Vol.: 0
Chanel 2 Note On - Duracao: 94560 Nota: C1 Vol.: 0
Chanel 2 Note Off - Duracao: 94560 Nota: C1 Vol.: 0
Chanel 3 Note On - Duracao: 94560 Nota: C1 Vol.: 0
Chanel 3 Note Off - Duracao: 94560 Nota: C1 Vol.: 0
Chanel 3 Note On - Duracao: 94560 Nota: C1 Vol.: 0
Chanel 3 Note Off - Duracao: 94560 Nota: C1 Vol.: 0
Chanel 3 Note On - Duracao: 94560 Nota: C1 Vol.: 0
Chanel 3 Note Off - Duracao: 94560 Nota: C1 Vol.: 0
Chanel 5 Note On - Duracao: 94560 Nota: C1 Vol.: 0
Chanel 5 Note Off - Duracao: 94560 Nota: C1 Vol.: 0
Chanel 6 Note On - Duracao: 95040 Nota: C1 Vol.: 0
Chanel 6 Note Off - Duracao: 95040 Nota: C1 Vol.: 0
Chanel 9 Note On - Duracao: 95040 Nota: C1 Vol.: 0
Chanel 9 Note Off - Duracao: 95040 Nota: C1 Vol.: 0
Chanel 10 Note On - Duracao: 95040 Nota: C1 Vol.: 0
Chanel 10 Note Off - Duracao: 95040 Nota: C1 Vol.: 0
Chanel 10 Note On - Duracao: 95040 Nota: C1 Vol.: 0
Chanel 10 Note Off - Duracao: 95040 Nota: C1 Vol.: 0
Chanel 7 Note On - Duracao: 95520 Nota: C1 Vol.: 0
Chanel 7 Note Off - Duracao: 95520 Nota: C1 Vol.: 0
Chanel 5 Note On - Duracao: 96480 Nota: C1 Vol.: 0
Chanel 5 Note Off - Duracao: 96480 Nota: C1 Vol.: 0
Chanel 6 Note On - Duracao: 96960 Nota: C1 Vol.: 0
Chanel 6 Note Off - Duracao: 96960 Nota: C1 Vol.: 0
Chanel 7 Note On - Duracao: 96960 Nota: C1 Vol.: 0
Chanel 7 Note Off - Duracao: 96960 Nota: C1 Vol.: 0
Chanel 10 Note On - Duracao: 96960 Nota: C1 Vol.: 0
Chanel 10 Note Off - Duracao: 96960 Nota: C1 Vol.: 0
Chanel 6 Note On - Duracao: 97440 Nota: C1 Vol.: 0
Chanel 6 Note Off - Duracao: 97440 Nota: C1 Vol.: 0
Chanel 10 Note On - Duracao: 97920 Nota: C1 Vol.: 0
Chanel 10 Note Off - Duracao: 97920 Nota: C1 Vol.: 0
Chanel 10 Note On - Duracao: 97920 Nota: C1 Vol.: 0
Chanel 10 Note Off - Duracao: 97920 Nota: C1 Vol.: 0
Chanel 10 Note On - Duracao: 97920 Nota: C1 Vol.: 0
Chanel 10 Note Off - Duracao: 97920 Nota: C1 Vol.: 0
Chanel 5 Note On - Duracao: 98400 Nota: C1 Vol.: 0
Chanel 5 Note Off - Duracao: 98400 Nota: C1 Vol.: 0
Chanel 7 Note On - Duracao: 98400 Nota: C1 Vol.: 0
Chanel 7 Note Off - Duracao: 98400 Nota: C1 Vol.: 0
Chanel 6 Note On - Duracao: 98880 Nota: C1 Vol.: 0
Chanel 6 Note Off - Duracao: 98880 Nota: C1 Vol.: 0
Chanel 6 Note On - Duracao: 98880 Nota: C1 Vol.: 0
Chanel 6 Note Off - Duracao: 98880 Nota: C1 Vol.: 0
Chanel 5 Note On - Duracao: 99360 Nota: C1 Vol.: 0
Chanel 5 Note Off - Duracao: 99360 Nota: C1 Vol.: 0
Chanel 6 Note On - Duracao: 99360 Nota: C1 Vol.: 0
Chanel 6 Note Off - Duracao: 99360 Nota: C1 Vol.: 0
Chanel 10 Note On - Duracao: 99840 Nota: C1 Vol.: 0
Chanel 10 Note Off - Duracao: 99840 Nota: C1 Vol.: 0
Chanel 5 Note On - Duracao: 100320 Nota: C1 Vol.: 0
Chanel 5 Note Off - Duracao: 100320 Nota: C1 Vol.: 0
Chanel 7 Note On - Duracao: 100320 Nota: C1 Vol.: 0
Chanel 7 Note Off - Duracao: 100320 Nota: C1 Vol.: 0
Tick: 100320 - 
System reset: 
First data byte: 0 Second data byte: 0
