Tipo de divisão:0.0
Duração:1378020 ticks
Duração:11m57s
Tempo factor:1.0
Tempo in BPM:25.0
Chanel 1 program change: Instrumento: Electric Grand
Chanel 1 Note On - Duracao: 0 Nota: C1 Vol.: 100
Chanel 2 program change: Instrumento: Electric Grand
Chanel 2 Note On - Duracao: 0 Nota: C1 Vol.: 95
Chanel 3 program change: Instrumento: Distortion Guitar
Chanel 3 Note On - Duracao: 0 Nota: C1 Vol.: 79
Chanel 4 program change: Instrumento: Music Box
Chanel 4 Note On - Duracao: 0 Nota: C1 Vol.: 99
Chanel 5 program change: Instrumento: Music Box
Chanel 5 Note On - Duracao: 0 Nota: C1 Vol.: 100
Chanel 6 program change: Instrumento: Polysynth
Chanel 6 Note On - Duracao: 0 Nota: C1 Vol.: 98
Chanel 7 program change: Instrumento: Violin
Chanel 7 Note On - Duracao: 0 Nota: C1 Vol.: 96
Chanel 8 program change: Instrumento: Violin
Chanel 8 Note On - Duracao: 0 Nota: C1 Vol.: 56
Chanel 9 program change: Instrumento: Distortion Guitar
Chanel 9 Note On - Duracao: 0 Nota: C1 Vol.: 67
Chanel 10 program change: Instrumento: Bright Piano
Chanel 10 Note On - Duracao: 0 Nota: C1 Vol.: 75
Chanel 1 Note Off - Duracao: 60 Nota: C1 Vol.: 100
Chanel 1 Note On - Duracao: 60 Nota: C1 Vol.: 100
Chanel 4 Note Off - Duracao: 60 Nota: C1 Vol.: 99
Chanel 4 Note On - Duracao: 60 Nota: C1 Vol.: 99
Chanel 5 Note Off - Duracao: 60 Nota: C1 Vol.: 100
Chanel 5 Note On - Duracao: 60 Nota: C1 Vol.: 100
Chanel 7 Note Off - Duracao: 60 Nota: C1 Vol.: 96
Chanel 7 Note On - Duracao: 60 Nota: C1 Vol.: 92
Chanel 1 Note Off - Duracao: 120 Nota: C1 Vol.: 100
Chanel 1 Note On - Duracao: 120 Nota: C1 Vol.: 100
Chanel 2 Note Off - Duracao: 120 Nota: C1 Vol.: 95
Chanel 2 Note On - Duracao: 120 Nota: C1 Vol.: 96
Chanel 4 Note Off - Duracao: 120 Nota: C1 Vol.: 99
Chanel 4 Note On - Duracao: 120 Nota: C1 Vol.: 99
Chanel 5 Note Off - Duracao: 120 Nota: C1 Vol.: 100
Chanel 5 Note On - Duracao: 120 Nota: C1 Vol.: 96
Chanel 6 Note Off - Duracao: 120 Nota: C1 Vol.: 98
Chanel 6 Note On - Duracao: 120 Nota: C1 Vol.: 99
Chanel 1 Note Off - Duracao: 180 Nota: C1 Vol.: 100
Chanel 1 Note On - Duracao: 180 Nota: C1 Vol.: 100
Chanel 4 Note Off - Duracao: 180 Nota: C1 Vol.: 99
Chanel 4 Note On - Duracao: 180 Nota: C1 Vol.: 96
Chanel 6 Note Off - Duracao: 180 Nota: C1 Vol.: 99
Chanel 6 Note On - Duracao: 180 Nota: C1 Vol.: 97
Chanel 7 Note Off - Duracao: 180 Nota: C1 Vol.: 92
Chanel 7 Note On - Duracao: 180 Nota: C1 Vol.: 86
Chanel 1 Note Off - Duracao: 240 Nota: C1 Vol.: 100
Chanel 1 Note On - Duracao: 240 Nota: C1 Vol.: 100
Chanel 2 Note Off - Duracao: 240 Nota: C1 Vol.: 96
Chanel 2 Note On - Duracao: 240 Nota: C1 Vol.: 95
Chanel 5 Note Off - Duracao: 240 Nota: C1 Vol.: 96
Chanel 5 Note On - Duracao: 240 Nota: C1 Vol.: 100
Chanel 6 Note Off - Duracao: 240 Nota: C1 Vol.: 97
Chanel 6 Note On - Duracao: 240 Nota: C1 Vol.: 97
Chanel 10 Note Off - Duracao: 240 Nota: C1 Vol.: 75
Chanel 10 Note On - Duracao: 240 Nota: C1 Vol.: 62
Chanel 1 Note Off - Duracao: 300 Nota: C1 Vol.: 100
Chanel 1 Note On - Duracao: 300 Nota: C1 Vol.: 100
Chanel 4 Note Off - Duracao: 300 Nota: C1 Vol.: 96
Chanel 4 Note On - Duracao: 300 Nota: C1 Vol.: 95
Chanel 5 Note Off - Duracao: 300 Nota: C1 Vol.: 100
Chanel 5 Note On - Duracao: 300 Nota: C1 Vol.: 87
Chanel 6 Note Off - Duracao: 300 Nota: C1 Vol.: 97
Chanel 6 Note On - Duracao: 300 Nota: C1 Vol.: 99
Chanel 7 Note Off - Duracao: 300 Nota: C1 Vol.: 86
Chanel 7 Note On - Duracao: 300 Nota: C1 Vol.: 79
Chanel 1 Note Off - Duracao: 360 Nota: C1 Vol.: 100
Chanel 1 Note On - Duracao: 360 Nota: C1 Vol.: 100
Chanel 2 Note Off - Duracao: 360 Nota: C1 Vol.: 95
Chanel 2 Note On - Duracao: 360 Nota: C1 Vol.: 81
Chanel 6 Note Off - Duracao: 360 Nota: C1 Vol.: 99
Chanel 6 Note On - Duracao: 360 Nota: C1 Vol.: 99
Chanel 4 Note Off - Duracao: 420 Nota: C1 Vol.: 95
Chanel 4 Note On - Duracao: 420 Nota: C1 Vol.: 92
Chanel 5 Note Off - Duracao: 420 Nota: C1 Vol.: 87
Chanel 5 Note On - Duracao: 420 Nota: C1 Vol.: 60
Chanel 6 Note Off - Duracao: 420 Nota: C1 Vol.: 99
Chanel 6 Note On - Duracao: 420 Nota: C1 Vol.: 98
Chanel 1 Note Off - Duracao: 480 Nota: C1 Vol.: 100
Chanel 1 Note On - Duracao: 480 Nota: C1 Vol.: 99
Chanel 3 Note Off - Duracao: 480 Nota: C1 Vol.: 79
Chanel 3 Note On - Duracao: 480 Nota: C1 Vol.: 87
Chanel 8 Note Off - Duracao: 480 Nota: C1 Vol.: 56
Chanel 8 Note On - Duracao: 480 Nota: C1 Vol.: 69
Chanel 9 Note Off - Duracao: 480 Nota: C1 Vol.: 67
Chanel 9 Note On - Duracao: 480 Nota: C1 Vol.: 63
Chanel 4 Note Off - Duracao: 540 Nota: C1 Vol.: 92
Chanel 4 Note On - Duracao: 540 Nota: C1 Vol.: 99
Chanel 6 Note Off - Duracao: 540 Nota: C1 Vol.: 98
Chanel 6 Note On - Duracao: 540 Nota: C1 Vol.: 98
Chanel 7 Note Off - Duracao: 540 Nota: C1 Vol.: 79
Chanel 7 Note On - Duracao: 540 Nota: C1 Vol.: 72
Chanel 1 Note Off - Duracao: 600 Nota: C1 Vol.: 99
Chanel 1 Note On - Duracao: 600 Nota: C1 Vol.: 98
Chanel 2 Note Off - Duracao: 600 Nota: C1 Vol.: 81
Chanel 2 Note On - Duracao: 600 Nota: C1 Vol.: 77
Chanel 4 Note Off - Duracao: 600 Nota: C1 Vol.: 99
Chanel 4 Note On - Duracao: 600 Nota: C1 Vol.: 89
Chanel 6 Note Off - Duracao: 660 Nota: C1 Vol.: 98
Chanel 6 Note On - Duracao: 660 Nota: C1 Vol.: 92
Chanel 1 Note Off - Duracao: 720 Nota: C1 Vol.: 98
Chanel 1 Note On - Duracao: 720 Nota: C1 Vol.: 97
Chanel 3 Note Off - Duracao: 720 Nota: C1 Vol.: 87
Chanel 3 Note On - Duracao: 720 Nota: C1 Vol.: 83
Chanel 4 Note Off - Duracao: 720 Nota: C1 Vol.: 89
Chanel 4 Note On - Duracao: 720 Nota: C1 Vol.: 89
Chanel 8 Note Off - Duracao: 720 Nota: C1 Vol.: 69
Chanel 8 Note On - Duracao: 720 Nota: C1 Vol.: 79
Chanel 10 Note Off - Duracao: 720 Nota: C1 Vol.: 62
Chanel 10 Note On - Duracao: 720 Nota: C1 Vol.: 52
Chanel 6 Note Off - Duracao: 780 Nota: C1 Vol.: 92
Chanel 6 Note On - Duracao: 780 Nota: C1 Vol.: 83
Chanel 1 Note Off - Duracao: 840 Nota: C1 Vol.: 97
Chanel 1 Note On - Duracao: 840 Nota: C1 Vol.: 98
Chanel 4 Note Off - Duracao: 840 Nota: C1 Vol.: 89
Chanel 4 Note On - Duracao: 840 Nota: C1 Vol.: 99
Chanel 8 Note Off - Duracao: 840 Nota: C1 Vol.: 79
Chanel 8 Note On - Duracao: 840 Nota: C1 Vol.: 89
Chanel 1 Note Off - Duracao: 900 Nota: C1 Vol.: 98
Chanel 1 Note On - Duracao: 900 Nota: C1 Vol.: 98
Chanel 4 Note Off - Duracao: 900 Nota: C1 Vol.: 99
Chanel 4 Note On - Duracao: 900 Nota: C1 Vol.: 100
Chanel 1 Note Off - Duracao: 960 Nota: C1 Vol.: 98
Chanel 1 Note On - Duracao: 960 Nota: C1 Vol.: 98
Chanel 3 Note Off - Duracao: 960 Nota: C1 Vol.: 83
Chanel 3 Note On - Duracao: 960 Nota: C1 Vol.: 87
Chanel 4 Note Off - Duracao: 960 Nota: C1 Vol.: 100
Chanel 4 Note On - Duracao: 960 Nota: C1 Vol.: 96
Chanel 8 Note Off - Duracao: 960 Nota: C1 Vol.: 89
Chanel 8 Note On - Duracao: 960 Nota: C1 Vol.: 92
Chanel 9 Note Off - Duracao: 960 Nota: C1 Vol.: 63
Chanel 9 Note On - Duracao: 960 Nota: C1 Vol.: 71
Chanel 4 Note Off - Duracao: 1020 Nota: C1 Vol.: 96
Chanel 4 Note On - Duracao: 1020 Nota: C1 Vol.: 87
Chanel 6 Note Off - Duracao: 1020 Nota: C1 Vol.: 83
Chanel 6 Note On - Duracao: 1020 Nota: C1 Vol.: 64
Chanel 7 Note Off - Duracao: 1020 Nota: C1 Vol.: 72
Chanel 7 Note On - Duracao: 1020 Nota: C1 Vol.: 61
Chanel 1 Note Off - Duracao: 1080 Nota: C1 Vol.: 98
Chanel 1 Note On - Duracao: 1080 Nota: C1 Vol.: 98
Chanel 2 Note Off - Duracao: 1080 Nota: C1 Vol.: 77
Chanel 2 Note On - Duracao: 1080 Nota: C1 Vol.: 77
Chanel 8 Note Off - Duracao: 1080 Nota: C1 Vol.: 92
Chanel 8 Note On - Duracao: 1080 Nota: C1 Vol.: 85
Chanel 1 Note Off - Duracao: 1140 Nota: C1 Vol.: 98
Chanel 1 Note On - Duracao: 1140 Nota: C1 Vol.: 99
Chanel 4 Note Off - Duracao: 1140 Nota: C1 Vol.: 87
Chanel 4 Note On - Duracao: 1140 Nota: C1 Vol.: 76
Chanel 1 Note Off - Duracao: 1200 Nota: C1 Vol.: 99
Chanel 1 Note On - Duracao: 1200 Nota: C1 Vol.: 99
Chanel 3 Note Off - Duracao: 1200 Nota: C1 Vol.: 87
Chanel 3 Note On - Duracao: 1200 Nota: C1 Vol.: 82
Chanel 8 Note Off - Duracao: 1200 Nota: C1 Vol.: 85
Chanel 8 Note On - Duracao: 1200 Nota: C1 Vol.: 80
Chanel 9 Note Off - Duracao: 1200 Nota: C1 Vol.: 71
Chanel 9 Note On - Duracao: 1200 Nota: C1 Vol.: 69
Chanel 4 Note Off - Duracao: 1260 Nota: C1 Vol.: 76
Chanel 4 Note On - Duracao: 1260 Nota: C1 Vol.: 71
Chanel 1 Note Off - Duracao: 1320 Nota: C1 Vol.: 99
Chanel 1 Note On - Duracao: 1320 Nota: C1 Vol.: 99
Chanel 2 Note Off - Duracao: 1320 Nota: C1 Vol.: 77
Chanel 2 Note On - Duracao: 1320 Nota: C1 Vol.: 81
Chanel 5 Note Off - Duracao: 1380 Nota: C1 Vol.: 60
Chanel 5 Note On - Duracao: 1380 Nota: C1 Vol.: 71
Chanel 1 Note Off - Duracao: 1440 Nota: C1 Vol.: 99
Chanel 1 Note On - Duracao: 1440 Nota: C1 Vol.: 99
Chanel 3 Note Off - Duracao: 1440 Nota: C1 Vol.: 82
Chanel 3 Note On - Duracao: 1440 Nota: C1 Vol.: 78
Chanel 8 Note Off - Duracao: 1440 Nota: C1 Vol.: 80
Chanel 8 Note On - Duracao: 1440 Nota: C1 Vol.: 81
Chanel 9 Note Off - Duracao: 1440 Nota: C1 Vol.: 69
Chanel 9 Note On - Duracao: 1440 Nota: C1 Vol.: 70
Chanel 4 Note Off - Duracao: 1500 Nota: C1 Vol.: 71
Chanel 4 Note On - Duracao: 1500 Nota: C1 Vol.: 57
Chanel 1 Note Off - Duracao: 1560 Nota: C1 Vol.: 99
Chanel 1 Note On - Duracao: 1560 Nota: C1 Vol.: 89
Chanel 2 Note Off - Duracao: 1560 Nota: C1 Vol.: 81
Chanel 2 Note On - Duracao: 1560 Nota: C1 Vol.: 77
Chanel 1 Note Off - Duracao: 1680 Nota: C1 Vol.: 89
Chanel 1 Note On - Duracao: 1680 Nota: C1 Vol.: 76
Chanel 3 Note Off - Duracao: 1680 Nota: C1 Vol.: 78
Chanel 3 Note On - Duracao: 1680 Nota: C1 Vol.: 78
Chanel 8 Note Off - Duracao: 1680 Nota: C1 Vol.: 81
Chanel 8 Note On - Duracao: 1680 Nota: C1 Vol.: 95
Chanel 9 Note Off - Duracao: 1680 Nota: C1 Vol.: 70
Chanel 9 Note On - Duracao: 1680 Nota: C1 Vol.: 72
Chanel 10 Note Off - Duracao: 1680 Nota: C1 Vol.: 52
Chanel 10 Note On - Duracao: 1680 Nota: C1 Vol.: 49
Chanel 8 Note Off - Duracao: 1740 Nota: C1 Vol.: 95
Chanel 8 Note On - Duracao: 1740 Nota: C1 Vol.: 81
Chanel 2 Note Off - Duracao: 1800 Nota: C1 Vol.: 77
Chanel 2 Note On - Duracao: 1800 Nota: C1 Vol.: 85
Chanel 5 Note Off - Duracao: 1860 Nota: C1 Vol.: 71
Chanel 5 Note On - Duracao: 1860 Nota: C1 Vol.: 93
Chanel 1 Note Off - Duracao: 1920 Nota: C1 Vol.: 76
Chanel 1 Note On - Duracao: 1920 Nota: C1 Vol.: 74
Chanel 3 Note Off - Duracao: 1920 Nota: C1 Vol.: 78
Chanel 3 Note On - Duracao: 1920 Nota: C1 Vol.: 74
Chanel 9 Note Off - Duracao: 1920 Nota: C1 Vol.: 72
Chanel 9 Note On - Duracao: 1920 Nota: C1 Vol.: 68
Chanel 4 Note Off - Duracao: 1980 Nota: C1 Vol.: 57
Chanel 4 Note On - Duracao: 1980 Nota: C1 Vol.: 61
Chanel 5 Note Off - Duracao: 1980 Nota: C1 Vol.: 93
Chanel 5 Note On - Duracao: 1980 Nota: C1 Vol.: 97
Chanel 6 Note Off - Duracao: 1980 Nota: C1 Vol.: 64
Chanel 6 Note On - Duracao: 1980 Nota: C1 Vol.: 70
Chanel 7 Note Off - Duracao: 1980 Nota: C1 Vol.: 61
Chanel 7 Note On - Duracao: 1980 Nota: C1 Vol.: 66
Chanel 8 Note Off - Duracao: 1980 Nota: C1 Vol.: 81
Chanel 8 Note On - Duracao: 1980 Nota: C1 Vol.: 84
Chanel 2 Note Off - Duracao: 2040 Nota: C1 Vol.: 85
Chanel 2 Note On - Duracao: 2040 Nota: C1 Vol.: 91
Chanel 5 Note Off - Duracao: 2040 Nota: C1 Vol.: 97
Chanel 5 Note On - Duracao: 2040 Nota: C1 Vol.: 99
Chanel 5 Note Off - Duracao: 2100 Nota: C1 Vol.: 99
Chanel 5 Note On - Duracao: 2100 Nota: C1 Vol.: 97
Chanel 8 Note Off - Duracao: 2100 Nota: C1 Vol.: 84
Chanel 8 Note On - Duracao: 2100 Nota: C1 Vol.: 80
Chanel 2 Note Off - Duracao: 2160 Nota: C1 Vol.: 91
Chanel 2 Note On - Duracao: 2160 Nota: C1 Vol.: 88
Chanel 3 Note Off - Duracao: 2160 Nota: C1 Vol.: 74
Chanel 3 Note On - Duracao: 2160 Nota: C1 Vol.: 74
Chanel 5 Note Off - Duracao: 2160 Nota: C1 Vol.: 97
Chanel 5 Note On - Duracao: 2160 Nota: C1 Vol.: 97
Chanel 4 Note Off - Duracao: 2220 Nota: C1 Vol.: 61
Chanel 4 Note On - Duracao: 2220 Nota: C1 Vol.: 59
Chanel 5 Note Off - Duracao: 2220 Nota: C1 Vol.: 97
Chanel 5 Note On - Duracao: 2220 Nota: C1 Vol.: 97
Chanel 5 Note Off - Duracao: 2280 Nota: C1 Vol.: 97
Chanel 5 Note On - Duracao: 2280 Nota: C1 Vol.: 97
Chanel 5 Note Off - Duracao: 2340 Nota: C1 Vol.: 97
Chanel 5 Note On - Duracao: 2340 Nota: C1 Vol.: 95
Chanel 8 Note Off - Duracao: 2340 Nota: C1 Vol.: 80
Chanel 8 Note On - Duracao: 2340 Nota: C1 Vol.: 77
Chanel 1 Note Off - Duracao: 2400 Nota: C1 Vol.: 74
Chanel 1 Note On - Duracao: 2400 Nota: C1 Vol.: 73
Chanel 2 Note Off - Duracao: 2400 Nota: C1 Vol.: 88
Chanel 2 Note On - Duracao: 2400 Nota: C1 Vol.: 82
Chanel 3 Note Off - Duracao: 2400 Nota: C1 Vol.: 74
Chanel 3 Note On - Duracao: 2400 Nota: C1 Vol.: 72
Chanel 9 Note Off - Duracao: 2400 Nota: C1 Vol.: 68
Chanel 9 Note On - Duracao: 2400 Nota: C1 Vol.: 74
Chanel 4 Note Off - Duracao: 2460 Nota: C1 Vol.: 59
Chanel 4 Note On - Duracao: 2460 Nota: C1 Vol.: 65
Chanel 5 Note Off - Duracao: 2460 Nota: C1 Vol.: 95
Chanel 5 Note On - Duracao: 2460 Nota: C1 Vol.: 95
Chanel 6 Note Off - Duracao: 2460 Nota: C1 Vol.: 70
Chanel 6 Note On - Duracao: 2460 Nota: C1 Vol.: 80
Chanel 7 Note Off - Duracao: 2460 Nota: C1 Vol.: 66
Chanel 7 Note On - Duracao: 2460 Nota: C1 Vol.: 68
Chanel 4 Note Off - Duracao: 2580 Nota: C1 Vol.: 65
Chanel 4 Note On - Duracao: 2580 Nota: C1 Vol.: 63
Chanel 5 Note Off - Duracao: 2580 Nota: C1 Vol.: 95
Chanel 5 Note On - Duracao: 2580 Nota: C1 Vol.: 94
Chanel 6 Note Off - Duracao: 2580 Nota: C1 Vol.: 80
Chanel 6 Note On - Duracao: 2580 Nota: C1 Vol.: 76
Chanel 8 Note Off - Duracao: 2580 Nota: C1 Vol.: 77
Chanel 8 Note On - Duracao: 2580 Nota: C1 Vol.: 90
Chanel 2 Note Off - Duracao: 2640 Nota: C1 Vol.: 82
Chanel 2 Note On - Duracao: 2640 Nota: C1 Vol.: 79
Chanel 3 Note Off - Duracao: 2640 Nota: C1 Vol.: 72
Chanel 3 Note On - Duracao: 2640 Nota: C1 Vol.: 81
Chanel 9 Note Off - Duracao: 2640 Nota: C1 Vol.: 74
Chanel 9 Note On - Duracao: 2640 Nota: C1 Vol.: 74
Chanel 10 Note Off - Duracao: 2640 Nota: C1 Vol.: 49
Chanel 10 Note On - Duracao: 2640 Nota: C1 Vol.: 51
Chanel 5 Note Off - Duracao: 2700 Nota: C1 Vol.: 94
Chanel 5 Note On - Duracao: 2700 Nota: C1 Vol.: 93
Chanel 8 Note Off - Duracao: 2700 Nota: C1 Vol.: 90
Chanel 8 Note On - Duracao: 2700 Nota: C1 Vol.: 97
Chanel 5 Note Off - Duracao: 2760 Nota: C1 Vol.: 93
Chanel 5 Note On - Duracao: 2760 Nota: C1 Vol.: 75
Chanel 8 Note Off - Duracao: 2760 Nota: C1 Vol.: 97
Chanel 8 Note On - Duracao: 2760 Nota: C1 Vol.: 87
Chanel 4 Note Off - Duracao: 2820 Nota: C1 Vol.: 63
Chanel 4 Note On - Duracao: 2820 Nota: C1 Vol.: 89
Chanel 6 Note Off - Duracao: 2820 Nota: C1 Vol.: 76
Chanel 6 Note On - Duracao: 2820 Nota: C1 Vol.: 67
Chanel 1 Note Off - Duracao: 2880 Nota: C1 Vol.: 73
Chanel 1 Note On - Duracao: 2880 Nota: C1 Vol.: 81
Chanel 3 Note Off - Duracao: 2880 Nota: C1 Vol.: 81
Chanel 3 Note On - Duracao: 2880 Nota: C1 Vol.: 78
Chanel 4 Note Off - Duracao: 2880 Nota: C1 Vol.: 89
Chanel 4 Note On - Duracao: 2880 Nota: C1 Vol.: 94
Chanel 5 Note Off - Duracao: 2880 Nota: C1 Vol.: 75
Chanel 5 Note On - Duracao: 2880 Nota: C1 Vol.: 60
Chanel 8 Note Off - Duracao: 2880 Nota: C1 Vol.: 87
Chanel 8 Note On - Duracao: 2880 Nota: C1 Vol.: 80
Chanel 9 Note Off - Duracao: 2880 Nota: C1 Vol.: 74
Chanel 9 Note On - Duracao: 2880 Nota: C1 Vol.: 75
Chanel 4 Note Off - Duracao: 2940 Nota: C1 Vol.: 94
Chanel 4 Note On - Duracao: 2940 Nota: C1 Vol.: 97
Chanel 7 Note Off - Duracao: 2940 Nota: C1 Vol.: 68
Chanel 7 Note On - Duracao: 2940 Nota: C1 Vol.: 89
Chanel 4 Note Off - Duracao: 3000 Nota: C1 Vol.: 97
Chanel 4 Note On - Duracao: 3000 Nota: C1 Vol.: 98
Chanel 8 Note Off - Duracao: 3000 Nota: C1 Vol.: 80
Chanel 8 Note On - Duracao: 3000 Nota: C1 Vol.: 77
Chanel 4 Note Off - Duracao: 3060 Nota: C1 Vol.: 98
Chanel 4 Note On - Duracao: 3060 Nota: C1 Vol.: 87
Chanel 7 Note Off - Duracao: 3060 Nota: C1 Vol.: 89
Chanel 7 Note On - Duracao: 3060 Nota: C1 Vol.: 73
Chanel 1 Note Off - Duracao: 3120 Nota: C1 Vol.: 81
Chanel 1 Note On - Duracao: 3120 Nota: C1 Vol.: 94
Chanel 2 Note Off - Duracao: 3120 Nota: C1 Vol.: 79
Chanel 2 Note On - Duracao: 3120 Nota: C1 Vol.: 86
Chanel 3 Note Off - Duracao: 3120 Nota: C1 Vol.: 78
Chanel 3 Note On - Duracao: 3120 Nota: C1 Vol.: 75
Chanel 9 Note Off - Duracao: 3120 Nota: C1 Vol.: 75
Chanel 9 Note On - Duracao: 3120 Nota: C1 Vol.: 86
Chanel 4 Note Off - Duracao: 3180 Nota: C1 Vol.: 87
Chanel 4 Note On - Duracao: 3180 Nota: C1 Vol.: 52
Chanel 1 Note Off - Duracao: 3240 Nota: C1 Vol.: 94
Chanel 1 Note On - Duracao: 3240 Nota: C1 Vol.: 95
Chanel 8 Note Off - Duracao: 3240 Nota: C1 Vol.: 77
Chanel 8 Note On - Duracao: 3240 Nota: C1 Vol.: 60
Chanel 9 Note Off - Duracao: 3240 Nota: C1 Vol.: 86
Chanel 9 Note On - Duracao: 3240 Nota: C1 Vol.: 78
Chanel 6 Note Off - Duracao: 3300 Nota: C1 Vol.: 67
Chanel 6 Note On - Duracao: 3300 Nota: C1 Vol.: 51
Chanel 7 Note Off - Duracao: 3300 Nota: C1 Vol.: 73
Chanel 7 Note On - Duracao: 3300 Nota: C1 Vol.: 56
Chanel 1 Note Off - Duracao: 3360 Nota: C1 Vol.: 95
Chanel 1 Note On - Duracao: 3360 Nota: C1 Vol.: 88
Chanel 2 Note Off - Duracao: 3360 Nota: C1 Vol.: 86
Chanel 2 Note On - Duracao: 3360 Nota: C1 Vol.: 88
Chanel 3 Note Off - Duracao: 3360 Nota: C1 Vol.: 75
Chanel 3 Note On - Duracao: 3360 Nota: C1 Vol.: 80
Chanel 5 Note Off - Duracao: 3360 Nota: C1 Vol.: 60
Chanel 5 Note On - Duracao: 3360 Nota: C1 Vol.: 50
Chanel 1 Note Off - Duracao: 3480 Nota: C1 Vol.: 88
Chanel 1 Note On - Duracao: 3480 Nota: C1 Vol.: 61
Chanel 2 Note Off - Duracao: 3480 Nota: C1 Vol.: 88
Chanel 2 Note On - Duracao: 3480 Nota: C1 Vol.: 79
Chanel 9 Note Off - Duracao: 3480 Nota: C1 Vol.: 78
Chanel 9 Note On - Duracao: 3480 Nota: C1 Vol.: 67
Chanel 3 Note Off - Duracao: 3600 Nota: C1 Vol.: 80
Chanel 3 Note On - Duracao: 3600 Nota: C1 Vol.: 84
Chanel 10 Note Off - Duracao: 3600 Nota: C1 Vol.: 51
Chanel 10 Note On - Duracao: 3600 Nota: C1 Vol.: 60
Chanel 1 Note Off - Duracao: 3720 Nota: C1 Vol.: 61
Chanel 1 Note On - Duracao: 3720 Nota: C1 Vol.: 58
Chanel 2 Note Off - Duracao: 3720 Nota: C1 Vol.: 79
Chanel 2 Note On - Duracao: 3720 Nota: C1 Vol.: 80
Chanel 8 Note Off - Duracao: 3720 Nota: C1 Vol.: 60
Chanel 8 Note On - Duracao: 3720 Nota: C1 Vol.: 64
Chanel 3 Note Off - Duracao: 3840 Nota: C1 Vol.: 84
Chanel 3 Note On - Duracao: 3840 Nota: C1 Vol.: 84
Chanel 1 Note Off - Duracao: 3960 Nota: C1 Vol.: 58
Chanel 1 Note On - Duracao: 3960 Nota: C1 Vol.: 57
Chanel 2 Note Off - Duracao: 3960 Nota: C1 Vol.: 80
Chanel 2 Note On - Duracao: 3960 Nota: C1 Vol.: 79
Chanel 9 Note Off - Duracao: 3960 Nota: C1 Vol.: 67
Chanel 9 Note On - Duracao: 3960 Nota: C1 Vol.: 65
Chanel 3 Note Off - Duracao: 4080 Nota: C1 Vol.: 84
Chanel 3 Note On - Duracao: 4080 Nota: C1 Vol.: 81
Chanel 10 Note Off - Duracao: 4080 Nota: C1 Vol.: 60
Chanel 10 Note On - Duracao: 4080 Nota: C1 Vol.: 59
Chanel 4 Note Off - Duracao: 4140 Nota: C1 Vol.: 52
Chanel 4 Note On - Duracao: 4140 Nota: C1 Vol.: 53
Chanel 1 Note Off - Duracao: 4200 Nota: C1 Vol.: 57
Chanel 1 Note On - Duracao: 4200 Nota: C1 Vol.: 56
Chanel 2 Note Off - Duracao: 4200 Nota: C1 Vol.: 79
Chanel 2 Note On - Duracao: 4200 Nota: C1 Vol.: 79
Chanel 8 Note Off - Duracao: 4200 Nota: C1 Vol.: 64
Chanel 8 Note On - Duracao: 4200 Nota: C1 Vol.: 69
Chanel 6 Note Off - Duracao: 4260 Nota: C1 Vol.: 51
Chanel 6 Note On - Duracao: 4260 Nota: C1 Vol.: 55
Chanel 7 Note Off - Duracao: 4260 Nota: C1 Vol.: 56
Chanel 7 Note On - Duracao: 4260 Nota: C1 Vol.: 87
Chanel 3 Note Off - Duracao: 4320 Nota: C1 Vol.: 81
Chanel 3 Note On - Duracao: 4320 Nota: C1 Vol.: 84
Chanel 5 Note Off - Duracao: 4320 Nota: C1 Vol.: 50
Chanel 5 Note On - Duracao: 4320 Nota: C1 Vol.: 47
Chanel 7 Note Off - Duracao: 4380 Nota: C1 Vol.: 87
Chanel 7 Note On - Duracao: 4380 Nota: C1 Vol.: 87
Chanel 1 Note Off - Duracao: 4440 Nota: C1 Vol.: 56
Chanel 1 Note On - Duracao: 4440 Nota: C1 Vol.: 71
Chanel 9 Note Off - Duracao: 4440 Nota: C1 Vol.: 65
Chanel 9 Note On - Duracao: 4440 Nota: C1 Vol.: 66
Chanel 7 Note Off - Duracao: 4500 Nota: C1 Vol.: 87
Chanel 7 Note On - Duracao: 4500 Nota: C1 Vol.: 95
Chanel 1 Note Off - Duracao: 4560 Nota: C1 Vol.: 71
Chanel 1 Note On - Duracao: 4560 Nota: C1 Vol.: 77
Chanel 3 Note Off - Duracao: 4560 Nota: C1 Vol.: 84
Chanel 3 Note On - Duracao: 4560 Nota: C1 Vol.: 87
Chanel 7 Note Off - Duracao: 4560 Nota: C1 Vol.: 95
Chanel 7 Note On - Duracao: 4560 Nota: C1 Vol.: 96
Chanel 10 Note Off - Duracao: 4560 Nota: C1 Vol.: 59
Chanel 10 Note On - Duracao: 4560 Nota: C1 Vol.: 59
Chanel 7 Note Off - Duracao: 4620 Nota: C1 Vol.: 96
Chanel 7 Note On - Duracao: 4620 Nota: C1 Vol.: 72
Chanel 1 Note Off - Duracao: 4680 Nota: C1 Vol.: 77
Chanel 1 Note On - Duracao: 4680 Nota: C1 Vol.: 79
Chanel 2 Note Off - Duracao: 4680 Nota: C1 Vol.: 79
Chanel 2 Note On - Duracao: 4680 Nota: C1 Vol.: 80
Chanel 8 Note Off - Duracao: 4680 Nota: C1 Vol.: 69
Chanel 8 Note On - Duracao: 4680 Nota: C1 Vol.: 67
Chanel 6 Note Off - Duracao: 4740 Nota: C1 Vol.: 55
Chanel 6 Note On - Duracao: 4740 Nota: C1 Vol.: 55
Chanel 1 Note Off - Duracao: 4800 Nota: C1 Vol.: 79
Chanel 1 Note On - Duracao: 4800 Nota: C1 Vol.: 71
Chanel 3 Note Off - Duracao: 4800 Nota: C1 Vol.: 87
Chanel 3 Note On - Duracao: 4800 Nota: C1 Vol.: 83
Chanel 7 Note Off - Duracao: 4860 Nota: C1 Vol.: 72
Chanel 7 Note On - Duracao: 4860 Nota: C1 Vol.: 60
Chanel 1 Note Off - Duracao: 4920 Nota: C1 Vol.: 71
Chanel 1 Note On - Duracao: 4920 Nota: C1 Vol.: 67
Chanel 2 Note Off - Duracao: 4920 Nota: C1 Vol.: 80
Chanel 2 Note On - Duracao: 4920 Nota: C1 Vol.: 93
Chanel 9 Note Off - Duracao: 4920 Nota: C1 Vol.: 66
Chanel 9 Note On - Duracao: 4920 Nota: C1 Vol.: 65
Chanel 1 Note Off - Duracao: 5040 Nota: C1 Vol.: 67
Chanel 1 Note On - Duracao: 5040 Nota: C1 Vol.: 64
Chanel 2 Note Off - Duracao: 5040 Nota: C1 Vol.: 93
Chanel 2 Note On - Duracao: 5040 Nota: C1 Vol.: 92
Chanel 3 Note Off - Duracao: 5040 Nota: C1 Vol.: 83
Chanel 3 Note On - Duracao: 5040 Nota: C1 Vol.: 70
Chanel 10 Note Off - Duracao: 5040 Nota: C1 Vol.: 59
Chanel 10 Note On - Duracao: 5040 Nota: C1 Vol.: 60
Chanel 4 Note Off - Duracao: 5100 Nota: C1 Vol.: 53
Chanel 4 Note On - Duracao: 5100 Nota: C1 Vol.: 55
Chanel 1 Note Off - Duracao: 5160 Nota: C1 Vol.: 64
Chanel 1 Note On - Duracao: 5160 Nota: C1 Vol.: 64
Chanel 2 Note Off - Duracao: 5160 Nota: C1 Vol.: 92
Chanel 2 Note On - Duracao: 5160 Nota: C1 Vol.: 84
Chanel 6 Note Off - Duracao: 5220 Nota: C1 Vol.: 55
Chanel 6 Note On - Duracao: 5220 Nota: C1 Vol.: 57
Chanel 1 Note Off - Duracao: 5280 Nota: C1 Vol.: 64
Chanel 1 Note On - Duracao: 5280 Nota: C1 Vol.: 67
Chanel 2 Note Off - Duracao: 5280 Nota: C1 Vol.: 84
Chanel 2 Note On - Duracao: 5280 Nota: C1 Vol.: 85
Chanel 3 Note Off - Duracao: 5280 Nota: C1 Vol.: 70
Chanel 3 Note On - Duracao: 5280 Nota: C1 Vol.: 73
Chanel 5 Note Off - Duracao: 5280 Nota: C1 Vol.: 47
Chanel 5 Note On - Duracao: 5280 Nota: C1 Vol.: 53
Chanel 7 Note Off - Duracao: 5340 Nota: C1 Vol.: 60
Chanel 7 Note On - Duracao: 5340 Nota: C1 Vol.: 64
Chanel 1 Note Off - Duracao: 5400 Nota: C1 Vol.: 67
Chanel 1 Note On - Duracao: 5400 Nota: C1 Vol.: 80
Chanel 2 Note Off - Duracao: 5400 Nota: C1 Vol.: 85
Chanel 2 Note On - Duracao: 5400 Nota: C1 Vol.: 83
Chanel 3 Note Off - Duracao: 5400 Nota: C1 Vol.: 73
Chanel 3 Note On - Duracao: 5400 Nota: C1 Vol.: 73
Chanel 9 Note Off - Duracao: 5400 Nota: C1 Vol.: 65
Chanel 9 Note On - Duracao: 5400 Nota: C1 Vol.: 61
Chanel 1 Note Off - Duracao: 5520 Nota: C1 Vol.: 80
Chanel 1 Note On - Duracao: 5520 Nota: C1 Vol.: 92
Chanel 2 Note Off - Duracao: 5520 Nota: C1 Vol.: 83
Chanel 2 Note On - Duracao: 5520 Nota: C1 Vol.: 83
Chanel 3 Note Off - Duracao: 5520 Nota: C1 Vol.: 73
Chanel 3 Note On - Duracao: 5520 Nota: C1 Vol.: 69
Chanel 10 Note Off - Duracao: 5520 Nota: C1 Vol.: 60
Chanel 10 Note On - Duracao: 5520 Nota: C1 Vol.: 59
Chanel 4 Note Off - Duracao: 5580 Nota: C1 Vol.: 55
Chanel 4 Note On - Duracao: 5580 Nota: C1 Vol.: 61
Chanel 7 Note Off - Duracao: 5580 Nota: C1 Vol.: 64
Chanel 7 Note On - Duracao: 5580 Nota: C1 Vol.: 42
Chanel 1 Note Off - Duracao: 5640 Nota: C1 Vol.: 92
Chanel 1 Note On - Duracao: 5640 Nota: C1 Vol.: 94
Chanel 2 Note Off - Duracao: 5640 Nota: C1 Vol.: 83
Chanel 2 Note On - Duracao: 5640 Nota: C1 Vol.: 72
Chanel 8 Note Off - Duracao: 5640 Nota: C1 Vol.: 67
Chanel 8 Note On - Duracao: 5640 Nota: C1 Vol.: 66
Chanel 6 Note Off - Duracao: 5700 Nota: C1 Vol.: 57
Chanel 6 Note On - Duracao: 5700 Nota: C1 Vol.: 46
Chanel 1 Note Off - Duracao: 5760 Nota: C1 Vol.: 94
Chanel 1 Note On - Duracao: 5760 Nota: C1 Vol.: 96
Chanel 3 Note Off - Duracao: 5760 Nota: C1 Vol.: 69
Chanel 3 Note On - Duracao: 5760 Nota: C1 Vol.: 77
Chanel 1 Note Off - Duracao: 5820 Nota: C1 Vol.: 96
Chanel 1 Note On - Duracao: 5820 Nota: C1 Vol.: 76
Chanel 2 Note Off - Duracao: 5880 Nota: C1 Vol.: 72
Chanel 2 Note On - Duracao: 5880 Nota: C1 Vol.: 63
Chanel 3 Note Off - Duracao: 5880 Nota: C1 Vol.: 77
Chanel 3 Note On - Duracao: 5880 Nota: C1 Vol.: 64
Chanel 10 Note Off - Duracao: 6000 Nota: C1 Vol.: 59
Chanel 10 Note On - Duracao: 6000 Nota: C1 Vol.: 55
Chanel 1 Note Off - Duracao: 6060 Nota: C1 Vol.: 76
Chanel 1 Note On - Duracao: 6060 Nota: C1 Vol.: 62
Chanel 4 Note Off - Duracao: 6060 Nota: C1 Vol.: 61
Chanel 4 Note On - Duracao: 6060 Nota: C1 Vol.: 61
Chanel 2 Note Off - Duracao: 6120 Nota: C1 Vol.: 63
Chanel 2 Note On - Duracao: 6120 Nota: C1 Vol.: 60
Chanel 8 Note Off - Duracao: 6120 Nota: C1 Vol.: 66
Chanel 8 Note On - Duracao: 6120 Nota: C1 Vol.: 63
Chanel 5 Note Off - Duracao: 6240 Nota: C1 Vol.: 53
Chanel 5 Note On - Duracao: 6240 Nota: C1 Vol.: 62
Chanel 2 Note Off - Duracao: 6360 Nota: C1 Vol.: 60
Chanel 2 Note On - Duracao: 6360 Nota: C1 Vol.: 56
Chanel 3 Note Off - Duracao: 6360 Nota: C1 Vol.: 64
Chanel 3 Note On - Duracao: 6360 Nota: C1 Vol.: 57
Chanel 9 Note Off - Duracao: 6360 Nota: C1 Vol.: 61
Chanel 9 Note On - Duracao: 6360 Nota: C1 Vol.: 71
Chanel 10 Note Off - Duracao: 6480 Nota: C1 Vol.: 55
Chanel 10 Note On - Duracao: 6480 Nota: C1 Vol.: 59
Chanel 1 Note Off - Duracao: 6540 Nota: C1 Vol.: 62
Chanel 1 Note On - Duracao: 6540 Nota: C1 Vol.: 69
Chanel 4 Note Off - Duracao: 6540 Nota: C1 Vol.: 61
Chanel 4 Note On - Duracao: 6540 Nota: C1 Vol.: 63
Chanel 7 Note Off - Duracao: 6540 Nota: C1 Vol.: 42
Chanel 7 Note On - Duracao: 6540 Nota: C1 Vol.: 67
Chanel 2 Note Off - Duracao: 6600 Nota: C1 Vol.: 56
Chanel 2 Note On - Duracao: 6600 Nota: C1 Vol.: 52
Chanel 6 Note Off - Duracao: 6660 Nota: C1 Vol.: 46
Chanel 6 Note On - Duracao: 6660 Nota: C1 Vol.: 48
Chanel 7 Note Off - Duracao: 6660 Nota: C1 Vol.: 67
Chanel 7 Note On - Duracao: 6660 Nota: C1 Vol.: 73
Chanel 5 Note Off - Duracao: 6720 Nota: C1 Vol.: 62
Chanel 5 Note On - Duracao: 6720 Nota: C1 Vol.: 48
Chanel 1 Note Off - Duracao: 6780 Nota: C1 Vol.: 69
Chanel 1 Note On - Duracao: 6780 Nota: C1 Vol.: 75
Chanel 4 Note Off - Duracao: 6780 Nota: C1 Vol.: 63
Chanel 4 Note On - Duracao: 6780 Nota: C1 Vol.: 60
Chanel 7 Note Off - Duracao: 6780 Nota: C1 Vol.: 73
Chanel 7 Note On - Duracao: 6780 Nota: C1 Vol.: 74
Chanel 9 Note Off - Duracao: 6840 Nota: C1 Vol.: 71
Chanel 9 Note On - Duracao: 6840 Nota: C1 Vol.: 74
Chanel 1 Note Off - Duracao: 6900 Nota: C1 Vol.: 75
Chanel 1 Note On - Duracao: 6900 Nota: C1 Vol.: 75
Chanel 7 Note Off - Duracao: 6900 Nota: C1 Vol.: 74
Chanel 7 Note On - Duracao: 6900 Nota: C1 Vol.: 76
Chanel 10 Note Off - Duracao: 6960 Nota: C1 Vol.: 59
Chanel 10 Note On - Duracao: 6960 Nota: C1 Vol.: 58
Chanel 7 Note Off - Duracao: 7020 Nota: C1 Vol.: 76
Chanel 7 Note On - Duracao: 7020 Nota: C1 Vol.: 67
Chanel 2 Note Off - Duracao: 7080 Nota: C1 Vol.: 52
Chanel 2 Note On - Duracao: 7080 Nota: C1 Vol.: 53
Chanel 8 Note Off - Duracao: 7080 Nota: C1 Vol.: 63
Chanel 8 Note On - Duracao: 7080 Nota: C1 Vol.: 66
Chanel 1 Note Off - Duracao: 7140 Nota: C1 Vol.: 75
Chanel 1 Note On - Duracao: 7140 Nota: C1 Vol.: 90
Chanel 1 Note Off - Duracao: 7260 Nota: C1 Vol.: 90
Chanel 1 Note On - Duracao: 7260 Nota: C1 Vol.: 91
Chanel 4 Note Off - Duracao: 7260 Nota: C1 Vol.: 60
Chanel 4 Note On - Duracao: 7260 Nota: C1 Vol.: 64
Chanel 7 Note Off - Duracao: 7260 Nota: C1 Vol.: 67
Chanel 7 Note On - Duracao: 7260 Nota: C1 Vol.: 74
Chanel 3 Note Off - Duracao: 7320 Nota: C1 Vol.: 57
Chanel 3 Note On - Duracao: 7320 Nota: C1 Vol.: 65
Chanel 9 Note Off - Duracao: 7320 Nota: C1 Vol.: 74
Chanel 9 Note On - Duracao: 7320 Nota: C1 Vol.: 66
Chanel 1 Note Off - Duracao: 7380 Nota: C1 Vol.: 91
Chanel 1 Note On - Duracao: 7380 Nota: C1 Vol.: 91
Chanel 7 Note Off - Duracao: 7380 Nota: C1 Vol.: 74
Chanel 7 Note On - Duracao: 7380 Nota: C1 Vol.: 65
Chanel 10 Note Off - Duracao: 7440 Nota: C1 Vol.: 58
Chanel 10 Note On - Duracao: 7440 Nota: C1 Vol.: 55
Chanel 1 Note Off - Duracao: 7500 Nota: C1 Vol.: 91
Chanel 1 Note On - Duracao: 7500 Nota: C1 Vol.: 96
Chanel 4 Note Off - Duracao: 7500 Nota: C1 Vol.: 64
Chanel 4 Note On - Duracao: 7500 Nota: C1 Vol.: 46
Chanel 7 Note Off - Duracao: 7500 Nota: C1 Vol.: 65
Chanel 7 Note On - Duracao: 7500 Nota: C1 Vol.: 52
Chanel 1 Note Off - Duracao: 7560 Nota: C1 Vol.: 96
Chanel 1 Note On - Duracao: 7560 Nota: C1 Vol.: 96
Chanel 2 Note Off - Duracao: 7560 Nota: C1 Vol.: 53
Chanel 2 Note On - Duracao: 7560 Nota: C1 Vol.: 48
Chanel 8 Note Off - Duracao: 7560 Nota: C1 Vol.: 66
Chanel 8 Note On - Duracao: 7560 Nota: C1 Vol.: 76
Chanel 1 Note Off - Duracao: 7620 Nota: C1 Vol.: 96
Chanel 1 Note On - Duracao: 7620 Nota: C1 Vol.: 95
Chanel 6 Note Off - Duracao: 7620 Nota: C1 Vol.: 48
Chanel 6 Note On - Duracao: 7620 Nota: C1 Vol.: 59
Chanel 5 Note Off - Duracao: 7680 Nota: C1 Vol.: 48
Chanel 5 Note On - Duracao: 7680 Nota: C1 Vol.: 46
Chanel 1 Note Off - Duracao: 7740 Nota: C1 Vol.: 95
Chanel 1 Note On - Duracao: 7740 Nota: C1 Vol.: 96
Chanel 7 Note Off - Duracao: 7740 Nota: C1 Vol.: 52
Chanel 7 Note On - Duracao: 7740 Nota: C1 Vol.: 60
Chanel 2 Note Off - Duracao: 7800 Nota: C1 Vol.: 48
Chanel 2 Note On - Duracao: 7800 Nota: C1 Vol.: 50
Chanel 3 Note Off - Duracao: 7800 Nota: C1 Vol.: 65
Chanel 3 Note On - Duracao: 7800 Nota: C1 Vol.: 66
Chanel 8 Note Off - Duracao: 7800 Nota: C1 Vol.: 76
Chanel 8 Note On - Duracao: 7800 Nota: C1 Vol.: 84
Chanel 1 Note Off - Duracao: 7860 Nota: C1 Vol.: 96
Chanel 1 Note On - Duracao: 7860 Nota: C1 Vol.: 98
Chanel 1 Note Off - Duracao: 7920 Nota: C1 Vol.: 98
Chanel 1 Note On - Duracao: 7920 Nota: C1 Vol.: 98
Chanel 8 Note Off - Duracao: 7920 Nota: C1 Vol.: 84
Chanel 8 Note On - Duracao: 7920 Nota: C1 Vol.: 83
Chanel 10 Note Off - Duracao: 7920 Nota: C1 Vol.: 55
Chanel 10 Note On - Duracao: 7920 Nota: C1 Vol.: 52
Chanel 1 Note Off - Duracao: 7980 Nota: C1 Vol.: 98
Chanel 1 Note On - Duracao: 7980 Nota: C1 Vol.: 99
Chanel 7 Note Off - Duracao: 7980 Nota: C1 Vol.: 60
Chanel 7 Note On - Duracao: 7980 Nota: C1 Vol.: 51
Chanel 1 Note Off - Duracao: 8040 Nota: C1 Vol.: 99
Chanel 1 Note On - Duracao: 8040 Nota: C1 Vol.: 97
Chanel 2 Note Off - Duracao: 8040 Nota: C1 Vol.: 50
Chanel 2 Note On - Duracao: 8040 Nota: C1 Vol.: 55
Chanel 8 Note Off - Duracao: 8040 Nota: C1 Vol.: 83
Chanel 8 Note On - Duracao: 8040 Nota: C1 Vol.: 81
Chanel 1 Note Off - Duracao: 8100 Nota: C1 Vol.: 97
Chanel 1 Note On - Duracao: 8100 Nota: C1 Vol.: 96
Chanel 6 Note Off - Duracao: 8100 Nota: C1 Vol.: 59
Chanel 6 Note On - Duracao: 8100 Nota: C1 Vol.: 62
Chanel 1 Note Off - Duracao: 8160 Nota: C1 Vol.: 96
Chanel 1 Note On - Duracao: 8160 Nota: C1 Vol.: 94
Chanel 8 Note Off - Duracao: 8160 Nota: C1 Vol.: 81
Chanel 8 Note On - Duracao: 8160 Nota: C1 Vol.: 69
Chanel 1 Note Off - Duracao: 8220 Nota: C1 Vol.: 94
Chanel 1 Note On - Duracao: 8220 Nota: C1 Vol.: 92
Chanel 1 Note Off - Duracao: 8280 Nota: C1 Vol.: 92
Chanel 1 Note On - Duracao: 8280 Nota: C1 Vol.: 88
Chanel 2 Note Off - Duracao: 8280 Nota: C1 Vol.: 55
Chanel 2 Note On - Duracao: 8280 Nota: C1 Vol.: 64
Chanel 3 Note Off - Duracao: 8280 Nota: C1 Vol.: 66
Chanel 3 Note On - Duracao: 8280 Nota: C1 Vol.: 71
Chanel 9 Note Off - Duracao: 8280 Nota: C1 Vol.: 66
Chanel 9 Note On - Duracao: 8280 Nota: C1 Vol.: 69
Chanel 6 Note Off - Duracao: 8340 Nota: C1 Vol.: 62
Chanel 6 Note On - Duracao: 8340 Nota: C1 Vol.: 60
Chanel 1 Note Off - Duracao: 8400 Nota: C1 Vol.: 88
Chanel 1 Note On - Duracao: 8400 Nota: C1 Vol.: 83
Chanel 2 Note Off - Duracao: 8400 Nota: C1 Vol.: 64
Chanel 2 Note On - Duracao: 8400 Nota: C1 Vol.: 62
Chanel 8 Note Off - Duracao: 8400 Nota: C1 Vol.: 69
Chanel 8 Note On - Duracao: 8400 Nota: C1 Vol.: 68
Chanel 4 Note Off - Duracao: 8460 Nota: C1 Vol.: 46
Chanel 4 Note On - Duracao: 8460 Nota: C1 Vol.: 52
Chanel 7 Note Off - Duracao: 8460 Nota: C1 Vol.: 51
Chanel 7 Note On - Duracao: 8460 Nota: C1 Vol.: 45
Chanel 2 Note Off - Duracao: 8520 Nota: C1 Vol.: 62
Chanel 2 Note On - Duracao: 8520 Nota: C1 Vol.: 66
Chanel 3 Note Off - Duracao: 8520 Nota: C1 Vol.: 71
Chanel 3 Note On - Duracao: 8520 Nota: C1 Vol.: 73
Chanel 6 Note Off - Duracao: 8580 Nota: C1 Vol.: 60
Chanel 6 Note On - Duracao: 8580 Nota: C1 Vol.: 57
Chanel 1 Note Off - Duracao: 8640 Nota: C1 Vol.: 83
Chanel 1 Note On - Duracao: 8640 Nota: C1 Vol.: 77
Chanel 2 Note Off - Duracao: 8640 Nota: C1 Vol.: 66
Chanel 2 Note On - Duracao: 8640 Nota: C1 Vol.: 57
Chanel 5 Note Off - Duracao: 8640 Nota: C1 Vol.: 46
Chanel 5 Note On - Duracao: 8640 Nota: C1 Vol.: 53
Chanel 8 Note Off - Duracao: 8640 Nota: C1 Vol.: 68
Chanel 8 Note On - Duracao: 8640 Nota: C1 Vol.: 56
Chanel 2 Note Off - Duracao: 8760 Nota: C1 Vol.: 57
Chanel 2 Note On - Duracao: 8760 Nota: C1 Vol.: 55
Chanel 3 Note Off - Duracao: 8760 Nota: C1 Vol.: 73
Chanel 3 Note On - Duracao: 8760 Nota: C1 Vol.: 69
Chanel 6 Note Off - Duracao: 8820 Nota: C1 Vol.: 57
Chanel 6 Note On - Duracao: 8820 Nota: C1 Vol.: 52
Chanel 1 Note Off - Duracao: 8880 Nota: C1 Vol.: 77
Chanel 1 Note On - Duracao: 8880 Nota: C1 Vol.: 73
Chanel 10 Note Off - Duracao: 8880 Nota: C1 Vol.: 52
Chanel 10 Note On - Duracao: 8880 Nota: C1 Vol.: 56
Chanel 2 Note Off - Duracao: 9000 Nota: C1 Vol.: 55
Chanel 2 Note On - Duracao: 9000 Nota: C1 Vol.: 62
Chanel 3 Note Off - Duracao: 9000 Nota: C1 Vol.: 69
Chanel 3 Note On - Duracao: 9000 Nota: C1 Vol.: 53
Chanel 1 Note Off - Duracao: 9120 Nota: C1 Vol.: 73
Chanel 1 Note On - Duracao: 9120 Nota: C1 Vol.: 72
Chanel 5 Note Off - Duracao: 9120 Nota: C1 Vol.: 53
Chanel 5 Note On - Duracao: 9120 Nota: C1 Vol.: 43
Chanel 8 Note Off - Duracao: 9120 Nota: C1 Vol.: 56
Chanel 8 Note On - Duracao: 9120 Nota: C1 Vol.: 67
Chanel 2 Note Off - Duracao: 9240 Nota: C1 Vol.: 62
Chanel 2 Note On - Duracao: 9240 Nota: C1 Vol.: 63
Chanel 8 Note Off - Duracao: 9240 Nota: C1 Vol.: 67
Chanel 8 Note On - Duracao: 9240 Nota: C1 Vol.: 67
Chanel 9 Note Off - Duracao: 9240 Nota: C1 Vol.: 69
Chanel 9 Note On - Duracao: 9240 Nota: C1 Vol.: 68
Chanel 6 Note Off - Duracao: 9300 Nota: C1 Vol.: 52
Chanel 6 Note On - Duracao: 9300 Nota: C1 Vol.: 55
Chanel 1 Note Off - Duracao: 9360 Nota: C1 Vol.: 72
Chanel 1 Note On - Duracao: 9360 Nota: C1 Vol.: 76
Chanel 8 Note Off - Duracao: 9360 Nota: C1 Vol.: 67
Chanel 8 Note On - Duracao: 9360 Nota: C1 Vol.: 69
Chanel 10 Note Off - Duracao: 9360 Nota: C1 Vol.: 56
Chanel 10 Note On - Duracao: 9360 Nota: C1 Vol.: 51
Chanel 4 Note Off - Duracao: 9420 Nota: C1 Vol.: 52
Chanel 4 Note On - Duracao: 9420 Nota: C1 Vol.: 63
Chanel 7 Note Off - Duracao: 9420 Nota: C1 Vol.: 45
Chanel 7 Note On - Duracao: 9420 Nota: C1 Vol.: 49
Chanel 2 Note Off - Duracao: 9480 Nota: C1 Vol.: 63
Chanel 2 Note On - Duracao: 9480 Nota: C1 Vol.: 76
Chanel 3 Note Off - Duracao: 9480 Nota: C1 Vol.: 53
Chanel 3 Note On - Duracao: 9480 Nota: C1 Vol.: 61
Chanel 8 Note Off - Duracao: 9480 Nota: C1 Vol.: 69
Chanel 8 Note On - Duracao: 9480 Nota: C1 Vol.: 65
Chanel 1 Note Off - Duracao: 9600 Nota: C1 Vol.: 76
Chanel 1 Note On - Duracao: 9600 Nota: C1 Vol.: 83
Chanel 2 Note Off - Duracao: 9600 Nota: C1 Vol.: 76
Chanel 2 Note On - Duracao: 9600 Nota: C1 Vol.: 85
Chanel 1 Note Off - Duracao: 9720 Nota: C1 Vol.: 83
Chanel 1 Note On - Duracao: 9720 Nota: C1 Vol.: 88
Chanel 2 Note Off - Duracao: 9720 Nota: C1 Vol.: 85
Chanel 2 Note On - Duracao: 9720 Nota: C1 Vol.: 74
Chanel 8 Note Off - Duracao: 9720 Nota: C1 Vol.: 65
Chanel 8 Note On - Duracao: 9720 Nota: C1 Vol.: 63
Chanel 6 Note Off - Duracao: 9780 Nota: C1 Vol.: 55
Chanel 6 Note On - Duracao: 9780 Nota: C1 Vol.: 56
Chanel 1 Note Off - Duracao: 9840 Nota: C1 Vol.: 88
Chanel 1 Note On - Duracao: 9840 Nota: C1 Vol.: 92
Chanel 4 Note Off - Duracao: 9900 Nota: C1 Vol.: 63
Chanel 4 Note On - Duracao: 9900 Nota: C1 Vol.: 66
Chanel 1 Note Off - Duracao: 9960 Nota: C1 Vol.: 92
Chanel 1 Note On - Duracao: 9960 Nota: C1 Vol.: 95
Chanel 2 Note Off - Duracao: 9960 Nota: C1 Vol.: 74
Chanel 2 Note On - Duracao: 9960 Nota: C1 Vol.: 66
Chanel 3 Note Off - Duracao: 9960 Nota: C1 Vol.: 61
Chanel 3 Note On - Duracao: 9960 Nota: C1 Vol.: 55
Chanel 8 Note Off - Duracao: 9960 Nota: C1 Vol.: 63
Chanel 8 Note On - Duracao: 9960 Nota: C1 Vol.: 62
Chanel 1 Note Off - Duracao: 10020 Nota: C1 Vol.: 95
Chanel 1 Note On - Duracao: 10020 Nota: C1 Vol.: 94
Chanel 6 Note Off - Duracao: 10020 Nota: C1 Vol.: 56
Chanel 6 Note On - Duracao: 10020 Nota: C1 Vol.: 50
Chanel 1 Note Off - Duracao: 10080 Nota: C1 Vol.: 94
Chanel 1 Note On - Duracao: 10080 Nota: C1 Vol.: 97
Chanel 5 Note Off - Duracao: 10080 Nota: C1 Vol.: 43
Chanel 5 Note On - Duracao: 10080 Nota: C1 Vol.: 44
Chanel 1 Note Off - Duracao: 10140 Nota: C1 Vol.: 97
Chanel 1 Note On - Duracao: 10140 Nota: C1 Vol.: 95
Chanel 2 Note Off - Duracao: 10200 Nota: C1 Vol.: 66
Chanel 2 Note On - Duracao: 10200 Nota: C1 Vol.: 64
Chanel 8 Note Off - Duracao: 10200 Nota: C1 Vol.: 62
Chanel 8 Note On - Duracao: 10200 Nota: C1 Vol.: 58
Chanel 9 Note Off - Duracao: 10200 Nota: C1 Vol.: 68
Chanel 9 Note On - Duracao: 10200 Nota: C1 Vol.: 65
Chanel 1 Note Off - Duracao: 10260 Nota: C1 Vol.: 95
Chanel 1 Note On - Duracao: 10260 Nota: C1 Vol.: 98
Chanel 1 Note Off - Duracao: 10320 Nota: C1 Vol.: 98
Chanel 1 Note On - Duracao: 10320 Nota: C1 Vol.: 91
Chanel 10 Note Off - Duracao: 10320 Nota: C1 Vol.: 51
Chanel 10 Note On - Duracao: 10320 Nota: C1 Vol.: 57
Chanel 4 Note Off - Duracao: 10380 Nota: C1 Vol.: 66
Chanel 4 Note On - Duracao: 10380 Nota: C1 Vol.: 72
Chanel 7 Note Off - Duracao: 10380 Nota: C1 Vol.: 49
Chanel 7 Note On - Duracao: 10380 Nota: C1 Vol.: 50
Chanel 1 Note Off - Duracao: 10440 Nota: C1 Vol.: 91
Chanel 1 Note On - Duracao: 10440 Nota: C1 Vol.: 85
Chanel 2 Note Off - Duracao: 10440 Nota: C1 Vol.: 64
Chanel 2 Note On - Duracao: 10440 Nota: C1 Vol.: 64
Chanel 3 Note Off - Duracao: 10440 Nota: C1 Vol.: 55
Chanel 3 Note On - Duracao: 10440 Nota: C1 Vol.: 70
Chanel 8 Note Off - Duracao: 10440 Nota: C1 Vol.: 58
Chanel 8 Note On - Duracao: 10440 Nota: C1 Vol.: 56
Chanel 6 Note Off - Duracao: 10500 Nota: C1 Vol.: 50
Chanel 6 Note On - Duracao: 10500 Nota: C1 Vol.: 54
Chanel 1 Note Off - Duracao: 10560 Nota: C1 Vol.: 85
Chanel 1 Note On - Duracao: 10560 Nota: C1 Vol.: 85
Chanel 4 Note Off - Duracao: 10620 Nota: C1 Vol.: 72
Chanel 4 Note On - Duracao: 10620 Nota: C1 Vol.: 67
Chanel 1 Note Off - Duracao: 10680 Nota: C1 Vol.: 85
Chanel 1 Note On - Duracao: 10680 Nota: C1 Vol.: 87
Chanel 2 Note Off - Duracao: 10680 Nota: C1 Vol.: 64
Chanel 2 Note On - Duracao: 10680 Nota: C1 Vol.: 69
Chanel 3 Note Off - Duracao: 10680 Nota: C1 Vol.: 70
Chanel 3 Note On - Duracao: 10680 Nota: C1 Vol.: 64
Chanel 8 Note Off - Duracao: 10680 Nota: C1 Vol.: 56
Chanel 8 Note On - Duracao: 10680 Nota: C1 Vol.: 60
Chanel 1 Note Off - Duracao: 10800 Nota: C1 Vol.: 87
Chanel 1 Note On - Duracao: 10800 Nota: C1 Vol.: 86
Chanel 2 Note Off - Duracao: 10800 Nota: C1 Vol.: 69
Chanel 2 Note On - Duracao: 10800 Nota: C1 Vol.: 70
Chanel 10 Note Off - Duracao: 10800 Nota: C1 Vol.: 57
Chanel 10 Note On - Duracao: 10800 Nota: C1 Vol.: 56
Chanel 4 Note Off - Duracao: 10860 Nota: C1 Vol.: 67
Chanel 4 Note On - Duracao: 10860 Nota: C1 Vol.: 65
Chanel 2 Note Off - Duracao: 10920 Nota: C1 Vol.: 70
Chanel 2 Note On - Duracao: 10920 Nota: C1 Vol.: 68
Chanel 8 Note Off - Duracao: 10920 Nota: C1 Vol.: 60
Chanel 8 Note On - Duracao: 10920 Nota: C1 Vol.: 63
Chanel 6 Note Off - Duracao: 10980 Nota: C1 Vol.: 54
Chanel 6 Note On - Duracao: 10980 Nota: C1 Vol.: 54
Chanel 1 Note Off - Duracao: 11040 Nota: C1 Vol.: 86
Chanel 1 Note On - Duracao: 11040 Nota: C1 Vol.: 85
Chanel 5 Note Off - Duracao: 11040 Nota: C1 Vol.: 44
Chanel 5 Note On - Duracao: 11040 Nota: C1 Vol.: 47
Chanel 4 Note Off - Duracao: 11100 Nota: C1 Vol.: 65
Chanel 4 Note On - Duracao: 11100 Nota: C1 Vol.: 69
Chanel 2 Note Off - Duracao: 11160 Nota: C1 Vol.: 68
Chanel 2 Note On - Duracao: 11160 Nota: C1 Vol.: 69
Chanel 3 Note Off - Duracao: 11160 Nota: C1 Vol.: 64
Chanel 3 Note On - Duracao: 11160 Nota: C1 Vol.: 72
Chanel 8 Note Off - Duracao: 11160 Nota: C1 Vol.: 63
Chanel 8 Note On - Duracao: 11160 Nota: C1 Vol.: 50
Chanel 9 Note Off - Duracao: 11160 Nota: C1 Vol.: 65
Chanel 9 Note On - Duracao: 11160 Nota: C1 Vol.: 72
Chanel 1 Note Off - Duracao: 11280 Nota: C1 Vol.: 85
Chanel 1 Note On - Duracao: 11280 Nota: C1 Vol.: 83
Chanel 10 Note Off - Duracao: 11280 Nota: C1 Vol.: 56
Chanel 10 Note On - Duracao: 11280 Nota: C1 Vol.: 60
Chanel 4 Note Off - Duracao: 11340 Nota: C1 Vol.: 69
Chanel 4 Note On - Duracao: 11340 Nota: C1 Vol.: 53
Chanel 7 Note Off - Duracao: 11340 Nota: C1 Vol.: 50
Chanel 7 Note On - Duracao: 11340 Nota: C1 Vol.: 50
Chanel 2 Note Off - Duracao: 11400 Nota: C1 Vol.: 69
Chanel 2 Note On - Duracao: 11400 Nota: C1 Vol.: 57
Chanel 3 Note Off - Duracao: 11400 Nota: C1 Vol.: 72
Chanel 3 Note On - Duracao: 11400 Nota: C1 Vol.: 95
Chanel 3 Note Off - Duracao: 11460 Nota: C1 Vol.: 95
Chanel 3 Note On - Duracao: 11460 Nota: C1 Vol.: 92
Chanel 6 Note Off - Duracao: 11460 Nota: C1 Vol.: 54
Chanel 6 Note On - Duracao: 11460 Nota: C1 Vol.: 57
Chanel 1 Note Off - Duracao: 11520 Nota: C1 Vol.: 83
Chanel 1 Note On - Duracao: 11520 Nota: C1 Vol.: 79
Chanel 3 Note Off - Duracao: 11520 Nota: C1 Vol.: 92
Chanel 3 Note On - Duracao: 11520 Nota: C1 Vol.: 89
Chanel 10 Note Off - Duracao: 11520 Nota: C1 Vol.: 60
Chanel 10 Note On - Duracao: 11520 Nota: C1 Vol.: 70
Chanel 3 Note Off - Duracao: 11580 Nota: C1 Vol.: 89
Chanel 3 Note On - Duracao: 11580 Nota: C1 Vol.: 89
Chanel 3 Note Off - Duracao: 11640 Nota: C1 Vol.: 89
Chanel 3 Note On - Duracao: 11640 Nota: C1 Vol.: 77
Chanel 8 Note Off - Duracao: 11640 Nota: C1 Vol.: 50
Chanel 8 Note On - Duracao: 11640 Nota: C1 Vol.: 65
Chanel 9 Note Off - Duracao: 11640 Nota: C1 Vol.: 72
Chanel 9 Note On - Duracao: 11640 Nota: C1 Vol.: 78
Chanel 10 Note Off - Duracao: 11640 Nota: C1 Vol.: 70
Chanel 10 Note On - Duracao: 11640 Nota: C1 Vol.: 56
Chanel 1 Note Off - Duracao: 11760 Nota: C1 Vol.: 79
Chanel 1 Note On - Duracao: 11760 Nota: C1 Vol.: 89
Chanel 3 Note Off - Duracao: 11760 Nota: C1 Vol.: 77
Chanel 3 Note On - Duracao: 11760 Nota: C1 Vol.: 63
Chanel 8 Note Off - Duracao: 11760 Nota: C1 Vol.: 65
Chanel 8 Note On - Duracao: 11760 Nota: C1 Vol.: 59
Chanel 1 Note Off - Duracao: 11880 Nota: C1 Vol.: 89
Chanel 1 Note On - Duracao: 11880 Nota: C1 Vol.: 87
Chanel 2 Note Off - Duracao: 11880 Nota: C1 Vol.: 57
Chanel 2 Note On - Duracao: 11880 Nota: C1 Vol.: 40
Chanel 8 Note Off - Duracao: 11880 Nota: C1 Vol.: 59
Chanel 8 Note On - Duracao: 11880 Nota: C1 Vol.: 57
Chanel 9 Note Off - Duracao: 11880 Nota: C1 Vol.: 78
Chanel 9 Note On - Duracao: 11880 Nota: C1 Vol.: 71
Chanel 10 Note Off - Duracao: 11880 Nota: C1 Vol.: 56
Chanel 10 Note On - Duracao: 11880 Nota: C1 Vol.: 66
Chanel 6 Note Off - Duracao: 11940 Nota: C1 Vol.: 57
Chanel 6 Note On - Duracao: 11940 Nota: C1 Vol.: 51
Chanel 1 Note Off - Duracao: 12000 Nota: C1 Vol.: 87
Chanel 1 Note On - Duracao: 12000 Nota: C1 Vol.: 85
Chanel 5 Note Off - Duracao: 12000 Nota: C1 Vol.: 47
Chanel 5 Note On - Duracao: 12000 Nota: C1 Vol.: 52
Chanel 8 Note Off - Duracao: 12000 Nota: C1 Vol.: 57
Chanel 8 Note On - Duracao: 12000 Nota: C1 Vol.: 54
Chanel 10 Note Off - Duracao: 12000 Nota: C1 Vol.: 66
Chanel 10 Note On - Duracao: 12000 Nota: C1 Vol.: 51
Chanel 8 Note Off - Duracao: 12120 Nota: C1 Vol.: 54
Chanel 8 Note On - Duracao: 12120 Nota: C1 Vol.: 58
Chanel 1 Note Off - Duracao: 12240 Nota: C1 Vol.: 85
Chanel 1 Note On - Duracao: 12240 Nota: C1 Vol.: 92
Chanel 3 Note Off - Duracao: 12240 Nota: C1 Vol.: 63
Chanel 3 Note On - Duracao: 12240 Nota: C1 Vol.: 54
Chanel 8 Note Off - Duracao: 12240 Nota: C1 Vol.: 58
Chanel 8 Note On - Duracao: 12240 Nota: C1 Vol.: 55
Chanel 10 Note Off - Duracao: 12240 Nota: C1 Vol.: 51
Chanel 10 Note On - Duracao: 12240 Nota: C1 Vol.: 51
Chanel 4 Note Off - Duracao: 12300 Nota: C1 Vol.: 53
Chanel 4 Note On - Duracao: 12300 Nota: C1 Vol.: 41
Chanel 7 Note Off - Duracao: 12300 Nota: C1 Vol.: 50
Chanel 7 Note On - Duracao: 12300 Nota: C1 Vol.: 52
Chanel 1 Note Off - Duracao: 12360 Nota: C1 Vol.: 92
Chanel 1 Note On - Duracao: 12360 Nota: C1 Vol.: 98
Chanel 9 Note Off - Duracao: 12360 Nota: C1 Vol.: 71
Chanel 9 Note On - Duracao: 12360 Nota: C1 Vol.: 75
Chanel 6 Note Off - Duracao: 12420 Nota: C1 Vol.: 51
Chanel 6 Note On - Duracao: 12420 Nota: C1 Vol.: 48
Chanel 1 Note Off - Duracao: 12480 Nota: C1 Vol.: 98
Chanel 1 Note On - Duracao: 12480 Nota: C1 Vol.: 97
Chanel 8 Note Off - Duracao: 12480 Nota: C1 Vol.: 55
Chanel 8 Note On - Duracao: 12480 Nota: C1 Vol.: 54
Chanel 10 Note Off - Duracao: 12480 Nota: C1 Vol.: 51
Chanel 10 Note On - Duracao: 12480 Nota: C1 Vol.: 55
Chanel 1 Note Off - Duracao: 12600 Nota: C1 Vol.: 97
Chanel 1 Note On - Duracao: 12600 Nota: C1 Vol.: 97
Chanel 10 Note Off - Duracao: 12600 Nota: C1 Vol.: 55
Chanel 10 Note On - Duracao: 12600 Nota: C1 Vol.: 50
Chanel 1 Note Off - Duracao: 12660 Nota: C1 Vol.: 97
Chanel 1 Note On - Duracao: 12660 Nota: C1 Vol.: 96
Chanel 1 Note Off - Duracao: 12720 Nota: C1 Vol.: 96
Chanel 1 Note On - Duracao: 12720 Nota: C1 Vol.: 97
Chanel 8 Note Off - Duracao: 12720 Nota: C1 Vol.: 54
Chanel 8 Note On - Duracao: 12720 Nota: C1 Vol.: 60
Chanel 1 Note Off - Duracao: 12780 Nota: C1 Vol.: 97
Chanel 1 Note On - Duracao: 12780 Nota: C1 Vol.: 100
Chanel 7 Note Off - Duracao: 12780 Nota: C1 Vol.: 52
Chanel 7 Note On - Duracao: 12780 Nota: C1 Vol.: 59
Chanel 1 Note Off - Duracao: 12840 Nota: C1 Vol.: 100
Chanel 1 Note On - Duracao: 12840 Nota: C1 Vol.: 99
Chanel 2 Note Off - Duracao: 12840 Nota: C1 Vol.: 40
Chanel 2 Note On - Duracao: 12840 Nota: C1 Vol.: 56
Chanel 9 Note Off - Duracao: 12840 Nota: C1 Vol.: 75
Chanel 9 Note On - Duracao: 12840 Nota: C1 Vol.: 75
Chanel 10 Note Off - Duracao: 12840 Nota: C1 Vol.: 50
Chanel 10 Note On - Duracao: 12840 Nota: C1 Vol.: 55
Chanel 1 Note Off - Duracao: 12960 Nota: C1 Vol.: 99
Chanel 1 Note On - Duracao: 12960 Nota: C1 Vol.: 100
Chanel 2 Note Off - Duracao: 12960 Nota: C1 Vol.: 56
Chanel 2 Note On - Duracao: 12960 Nota: C1 Vol.: 45
Chanel 5 Note Off - Duracao: 12960 Nota: C1 Vol.: 52
Chanel 5 Note On - Duracao: 12960 Nota: C1 Vol.: 62
Chanel 8 Note Off - Duracao: 12960 Nota: C1 Vol.: 60
Chanel 8 Note On - Duracao: 12960 Nota: C1 Vol.: 61
Chanel 10 Note Off - Duracao: 12960 Nota: C1 Vol.: 55
Chanel 10 Note On - Duracao: 12960 Nota: C1 Vol.: 54
Chanel 1 Note Off - Duracao: 13020 Nota: C1 Vol.: 100
Chanel 1 Note On - Duracao: 13020 Nota: C1 Vol.: 100
Chanel 7 Note Off - Duracao: 13020 Nota: C1 Vol.: 59
Chanel 7 Note On - Duracao: 13020 Nota: C1 Vol.: 59
Chanel 1 Note Off - Duracao: 13080 Nota: C1 Vol.: 100
Chanel 1 Note On - Duracao: 13080 Nota: C1 Vol.: 99
Chanel 10 Note Off - Duracao: 13080 Nota: C1 Vol.: 54
Chanel 10 Note On - Duracao: 13080 Nota: C1 Vol.: 47
Chanel 1 Note Off - Duracao: 13200 Nota: C1 Vol.: 99
Chanel 1 Note On - Duracao: 13200 Nota: C1 Vol.: 97
Chanel 2 Note Off - Duracao: 13200 Nota: C1 Vol.: 45
Chanel 2 Note On - Duracao: 13200 Nota: C1 Vol.: 41
Chanel 3 Note Off - Duracao: 13200 Nota: C1 Vol.: 54
Chanel 3 Note On - Duracao: 13200 Nota: C1 Vol.: 68
Chanel 8 Note Off - Duracao: 13200 Nota: C1 Vol.: 61
Chanel 8 Note On - Duracao: 13200 Nota: C1 Vol.: 64
Chanel 7 Note Off - Duracao: 13260 Nota: C1 Vol.: 59
Chanel 7 Note On - Duracao: 13260 Nota: C1 Vol.: 53
Chanel 1 Note Off - Duracao: 13320 Nota: C1 Vol.: 97
Chanel 1 Note On - Duracao: 13320 Nota: C1 Vol.: 96
Chanel 10 Note Off - Duracao: 13320 Nota: C1 Vol.: 47
Chanel 10 Note On - Duracao: 13320 Nota: C1 Vol.: 56
Chanel 6 Note Off - Duracao: 13380 Nota: C1 Vol.: 48
Chanel 6 Note On - Duracao: 13380 Nota: C1 Vol.: 64
Chanel 1 Note Off - Duracao: 13440 Nota: C1 Vol.: 96
Chanel 1 Note On - Duracao: 13440 Nota: C1 Vol.: 98
Chanel 2 Note Off - Duracao: 13440 Nota: C1 Vol.: 41
Chanel 2 Note On - Duracao: 13440 Nota: C1 Vol.: 46
Chanel 3 Note Off - Duracao: 13440 Nota: C1 Vol.: 68
Chanel 3 Note On - Duracao: 13440 Nota: C1 Vol.: 61
Chanel 5 Note Off - Duracao: 13440 Nota: C1 Vol.: 62
Chanel 5 Note On - Duracao: 13440 Nota: C1 Vol.: 65
Chanel 8 Note Off - Duracao: 13440 Nota: C1 Vol.: 64
Chanel 8 Note On - Duracao: 13440 Nota: C1 Vol.: 66
Chanel 10 Note Off - Duracao: 13440 Nota: C1 Vol.: 56
Chanel 10 Note On - Duracao: 13440 Nota: C1 Vol.: 44
Chanel 1 Note Off - Duracao: 13560 Nota: C1 Vol.: 98
Chanel 1 Note On - Duracao: 13560 Nota: C1 Vol.: 99
Chanel 1 Note Off - Duracao: 13620 Nota: C1 Vol.: 99
Chanel 1 Note On - Duracao: 13620 Nota: C1 Vol.: 99
Chanel 6 Note Off - Duracao: 13620 Nota: C1 Vol.: 64
Chanel 6 Note On - Duracao: 13620 Nota: C1 Vol.: 57
Chanel 2 Note Off - Duracao: 13680 Nota: C1 Vol.: 46
Chanel 2 Note On - Duracao: 13680 Nota: C1 Vol.: 59
Chanel 5 Note Off - Duracao: 13680 Nota: C1 Vol.: 65
Chanel 5 Note On - Duracao: 13680 Nota: C1 Vol.: 66
Chanel 8 Note Off - Duracao: 13680 Nota: C1 Vol.: 66
Chanel 8 Note On - Duracao: 13680 Nota: C1 Vol.: 62
Chanel 10 Note Off - Duracao: 13680 Nota: C1 Vol.: 44
Chanel 10 Note On - Duracao: 13680 Nota: C1 Vol.: 49
Chanel 1 Note Off - Duracao: 13740 Nota: C1 Vol.: 99
Chanel 1 Note On - Duracao: 13740 Nota: C1 Vol.: 100
Chanel 7 Note Off - Duracao: 13740 Nota: C1 Vol.: 53
Chanel 7 Note On - Duracao: 13740 Nota: C1 Vol.: 56
Chanel 1 Note Off - Duracao: 13800 Nota: C1 Vol.: 100
Chanel 1 Note On - Duracao: 13800 Nota: C1 Vol.: 100
Chanel 9 Note Off - Duracao: 13800 Nota: C1 Vol.: 75
Chanel 9 Note On - Duracao: 13800 Nota: C1 Vol.: 70
Chanel 1 Note Off - Duracao: 13860 Nota: C1 Vol.: 100
Chanel 1 Note On - Duracao: 13860 Nota: C1 Vol.: 100
Chanel 6 Note Off - Duracao: 13860 Nota: C1 Vol.: 57
Chanel 6 Note On - Duracao: 13860 Nota: C1 Vol.: 49
Chanel 1 Note Off - Duracao: 13920 Nota: C1 Vol.: 100
Chanel 1 Note On - Duracao: 13920 Nota: C1 Vol.: 100
Chanel 2 Note Off - Duracao: 13920 Nota: C1 Vol.: 59
Chanel 2 Note On - Duracao: 13920 Nota: C1 Vol.: 46
Chanel 3 Note Off - Duracao: 13920 Nota: C1 Vol.: 61
Chanel 3 Note On - Duracao: 13920 Nota: C1 Vol.: 40
Chanel 5 Note Off - Duracao: 13920 Nota: C1 Vol.: 66
Chanel 5 Note On - Duracao: 13920 Nota: C1 Vol.: 61
Chanel 8 Note Off - Duracao: 13920 Nota: C1 Vol.: 62
Chanel 8 Note On - Duracao: 13920 Nota: C1 Vol.: 58
Chanel 10 Note Off - Duracao: 13920 Nota: C1 Vol.: 49
Chanel 10 Note On - Duracao: 13920 Nota: C1 Vol.: 66
Chanel 7 Note Off - Duracao: 13980 Nota: C1 Vol.: 56
Chanel 7 Note On - Duracao: 13980 Nota: C1 Vol.: 63
Chanel 1 Note Off - Duracao: 14040 Nota: C1 Vol.: 100
Chanel 1 Note On - Duracao: 14040 Nota: C1 Vol.: 100
Chanel 10 Note Off - Duracao: 14040 Nota: C1 Vol.: 66
Chanel 10 Note On - Duracao: 14040 Nota: C1 Vol.: 60
Chanel 1 Note Off - Duracao: 14100 Nota: C1 Vol.: 100
Chanel 1 Note On - Duracao: 14100 Nota: C1 Vol.: 98
Chanel 1 Note Off - Duracao: 14220 Nota: C1 Vol.: 98
Chanel 1 Note On - Duracao: 14220 Nota: C1 Vol.: 99
Chanel 4 Note Off - Duracao: 14220 Nota: C1 Vol.: 41
Chanel 4 Note On - Duracao: 14220 Nota: C1 Vol.: 52
Chanel 7 Note Off - Duracao: 14220 Nota: C1 Vol.: 63
Chanel 7 Note On - Duracao: 14220 Nota: C1 Vol.: 64
Chanel 1 Note Off - Duracao: 14280 Nota: C1 Vol.: 99
Chanel 1 Note On - Duracao: 14280 Nota: C1 Vol.: 99
Chanel 10 Note Off - Duracao: 14280 Nota: C1 Vol.: 60
Chanel 10 Note On - Duracao: 14280 Nota: C1 Vol.: 48
Chanel 1 Note Off - Duracao: 14340 Nota: C1 Vol.: 99
Chanel 1 Note On - Duracao: 14340 Nota: C1 Vol.: 97
Chanel 5 Note Off - Duracao: 14400 Nota: C1 Vol.: 61
Chanel 5 Note On - Duracao: 14400 Nota: C1 Vol.: 65
Chanel 8 Note Off - Duracao: 14400 Nota: C1 Vol.: 58
Chanel 8 Note On - Duracao: 14400 Nota: C1 Vol.: 47
Chanel 1 Note Off - Duracao: 14460 Nota: C1 Vol.: 97
Chanel 1 Note On - Duracao: 14460 Nota: C1 Vol.: 99
Chanel 7 Note Off - Duracao: 14460 Nota: C1 Vol.: 64
Chanel 7 Note On - Duracao: 14460 Nota: C1 Vol.: 67
Chanel 1 Note Off - Duracao: 14520 Nota: C1 Vol.: 99
Chanel 1 Note On - Duracao: 14520 Nota: C1 Vol.: 98
Chanel 1 Note Off - Duracao: 14640 Nota: C1 Vol.: 98
Chanel 1 Note On - Duracao: 14640 Nota: C1 Vol.: 96
Chanel 5 Note Off - Duracao: 14640 Nota: C1 Vol.: 65
Chanel 5 Note On - Duracao: 14640 Nota: C1 Vol.: 61
Chanel 7 Note Off - Duracao: 14700 Nota: C1 Vol.: 67
Chanel 7 Note On - Duracao: 14700 Nota: C1 Vol.: 47
Chanel 1 Note Off - Duracao: 14760 Nota: C1 Vol.: 96
Chanel 1 Note On - Duracao: 14760 Nota: C1 Vol.: 99
Chanel 9 Note Off - Duracao: 14760 Nota: C1 Vol.: 70
Chanel 9 Note On - Duracao: 14760 Nota: C1 Vol.: 66
Chanel 1 Note Off - Duracao: 14820 Nota: C1 Vol.: 99
Chanel 1 Note On - Duracao: 14820 Nota: C1 Vol.: 99
Chanel 6 Note Off - Duracao: 14820 Nota: C1 Vol.: 49
Chanel 6 Note On - Duracao: 14820 Nota: C1 Vol.: 54
Chanel 2 Note Off - Duracao: 14880 Nota: C1 Vol.: 46
Chanel 2 Note On - Duracao: 14880 Nota: C1 Vol.: 56
Chanel 1 Note Off - Duracao: 14940 Nota: C1 Vol.: 99
Chanel 1 Note On - Duracao: 14940 Nota: C1 Vol.: 100
Chanel 1 Note Off - Duracao: 15000 Nota: C1 Vol.: 100
Chanel 1 Note On - Duracao: 15000 Nota: C1 Vol.: 99
Chanel 1 Note Off - Duracao: 15120 Nota: C1 Vol.: 99
Chanel 1 Note On - Duracao: 15120 Nota: C1 Vol.: 97
Chanel 5 Note Off - Duracao: 15120 Nota: C1 Vol.: 61
Chanel 5 Note On - Duracao: 15120 Nota: C1 Vol.: 40
Chanel 4 Note Off - Duracao: 15180 Nota: C1 Vol.: 52
Chanel 4 Note On - Duracao: 15180 Nota: C1 Vol.: 60
Chanel 1 Note Off - Duracao: 15240 Nota: C1 Vol.: 97
Chanel 1 Note On - Duracao: 15240 Nota: C1 Vol.: 98
Chanel 10 Note Off - Duracao: 15240 Nota: C1 Vol.: 48
Chanel 10 Note On - Duracao: 15240 Nota: C1 Vol.: 48
Chanel 1 Note Off - Duracao: 15300 Nota: C1 Vol.: 98
Chanel 1 Note On - Duracao: 15300 Nota: C1 Vol.: 95
Chanel 6 Note Off - Duracao: 15300 Nota: C1 Vol.: 54
Chanel 6 Note On - Duracao: 15300 Nota: C1 Vol.: 56
Chanel 8 Note Off - Duracao: 15360 Nota: C1 Vol.: 47
Chanel 8 Note On - Duracao: 15360 Nota: C1 Vol.: 46
Chanel 1 Note Off - Duracao: 15420 Nota: C1 Vol.: 95
Chanel 1 Note On - Duracao: 15420 Nota: C1 Vol.: 95
Chanel 1 Note Off - Duracao: 15540 Nota: C1 Vol.: 95
Chanel 1 Note On - Duracao: 15540 Nota: C1 Vol.: 95
Chanel 1 Note Off - Duracao: 15660 Nota: C1 Vol.: 95
Chanel 1 Note On - Duracao: 15660 Nota: C1 Vol.: 95
Chanel 4 Note Off - Duracao: 15660 Nota: C1 Vol.: 60
Chanel 4 Note On - Duracao: 15660 Nota: C1 Vol.: 53
Chanel 7 Note Off - Duracao: 15660 Nota: C1 Vol.: 47
Chanel 7 Note On - Duracao: 15660 Nota: C1 Vol.: 51
Chanel 9 Note Off - Duracao: 15720 Nota: C1 Vol.: 66
Chanel 9 Note On - Duracao: 15720 Nota: C1 Vol.: 55
Chanel 1 Note Off - Duracao: 15780 Nota: C1 Vol.: 95
Chanel 1 Note On - Duracao: 15780 Nota: C1 Vol.: 93
Chanel 6 Note Off - Duracao: 15780 Nota: C1 Vol.: 56
Chanel 6 Note On - Duracao: 15780 Nota: C1 Vol.: 60
Chanel 3 Note Off - Duracao: 15840 Nota: C1 Vol.: 40
Chanel 3 Note On - Duracao: 15840 Nota: C1 Vol.: 40
Chanel 1 Note Off - Duracao: 15900 Nota: C1 Vol.: 93
Chanel 1 Note On - Duracao: 15900 Nota: C1 Vol.: 85
Chanel 1 Note Off - Duracao: 16020 Nota: C1 Vol.: 85
Chanel 1 Note On - Duracao: 16020 Nota: C1 Vol.: 60
Chanel 6 Note Off - Duracao: 16020 Nota: C1 Vol.: 60
Chanel 6 Note On - Duracao: 16020 Nota: C1 Vol.: 55
Chanel 10 Note Off - Duracao: 16200 Nota: C1 Vol.: 48
Chanel 10 Note On - Duracao: 16200 Nota: C1 Vol.: 57
Chanel 1 Note Off - Duracao: 16260 Nota: C1 Vol.: 60
Chanel 1 Note On - Duracao: 16260 Nota: C1 Vol.: 50
Chanel 8 Note Off - Duracao: 16320 Nota: C1 Vol.: 46
Chanel 8 Note On - Duracao: 16320 Nota: C1 Vol.: 58
Chanel 1 Note Off - Duracao: 16500 Nota: C1 Vol.: 50
Chanel 1 Note On - Duracao: 16500 Nota: C1 Vol.: 52
Chanel 6 Note Off - Duracao: 16500 Nota: C1 Vol.: 55
Chanel 6 Note On - Duracao: 16500 Nota: C1 Vol.: 58
Chanel 4 Note Off - Duracao: 16620 Nota: C1 Vol.: 53
Chanel 4 Note On - Duracao: 16620 Nota: C1 Vol.: 57
Chanel 7 Note Off - Duracao: 16620 Nota: C1 Vol.: 51
Chanel 7 Note On - Duracao: 16620 Nota: C1 Vol.: 56
Chanel 9 Note Off - Duracao: 16680 Nota: C1 Vol.: 55
Chanel 9 Note On - Duracao: 16680 Nota: C1 Vol.: 62
Chanel 10 Note Off - Duracao: 16680 Nota: C1 Vol.: 57
Chanel 10 Note On - Duracao: 16680 Nota: C1 Vol.: 50
Chanel 1 Note Off - Duracao: 16740 Nota: C1 Vol.: 52
Chanel 1 Note On - Duracao: 16740 Nota: C1 Vol.: 51
Chanel 2 Note Off - Duracao: 16800 Nota: C1 Vol.: 56
Chanel 2 Note On - Duracao: 16800 Nota: C1 Vol.: 59
Chanel 3 Note Off - Duracao: 16800 Nota: C1 Vol.: 40
Chanel 3 Note On - Duracao: 16800 Nota: C1 Vol.: 59
Chanel 8 Note Off - Duracao: 16800 Nota: C1 Vol.: 58
Chanel 8 Note On - Duracao: 16800 Nota: C1 Vol.: 58
Chanel 9 Note Off - Duracao: 16920 Nota: C1 Vol.: 62
Chanel 9 Note On - Duracao: 16920 Nota: C1 Vol.: 61
Chanel 6 Note Off - Duracao: 16980 Nota: C1 Vol.: 58
Chanel 6 Note On - Duracao: 16980 Nota: C1 Vol.: 43
Chanel 3 Note Off - Duracao: 17040 Nota: C1 Vol.: 59
Chanel 3 Note On - Duracao: 17040 Nota: C1 Vol.: 57
Chanel 5 Note Off - Duracao: 17040 Nota: C1 Vol.: 40
Chanel 5 Note On - Duracao: 17040 Nota: C1 Vol.: 53
Chanel 9 Note Off - Duracao: 17040 Nota: C1 Vol.: 61
Chanel 9 Note On - Duracao: 17040 Nota: C1 Vol.: 54
Chanel 4 Note Off - Duracao: 17100 Nota: C1 Vol.: 57
Chanel 4 Note On - Duracao: 17100 Nota: C1 Vol.: 56
Chanel 9 Note Off - Duracao: 17160 Nota: C1 Vol.: 54
Chanel 9 Note On - Duracao: 17160 Nota: C1 Vol.: 52
Chanel 1 Note Off - Duracao: 17220 Nota: C1 Vol.: 51
Chanel 1 Note On - Duracao: 17220 Nota: C1 Vol.: 60
Chanel 3 Note Off - Duracao: 17280 Nota: C1 Vol.: 57
Chanel 3 Note On - Duracao: 17280 Nota: C1 Vol.: 48
Chanel 8 Note Off - Duracao: 17280 Nota: C1 Vol.: 58
Chanel 8 Note On - Duracao: 17280 Nota: C1 Vol.: 58
Chanel 9 Note Off - Duracao: 17280 Nota: C1 Vol.: 52
Chanel 9 Note On - Duracao: 17280 Nota: C1 Vol.: 53
Chanel 9 Note Off - Duracao: 17400 Nota: C1 Vol.: 53
Chanel 9 Note On - Duracao: 17400 Nota: C1 Vol.: 52
Chanel 1 Note Off - Duracao: 17460 Nota: C1 Vol.: 60
Chanel 1 Note On - Duracao: 17460 Nota: C1 Vol.: 64
Chanel 5 Note Off - Duracao: 17520 Nota: C1 Vol.: 53
Chanel 5 Note On - Duracao: 17520 Nota: C1 Vol.: 62
Chanel 9 Note Off - Duracao: 17520 Nota: C1 Vol.: 52
Chanel 9 Note On - Duracao: 17520 Nota: C1 Vol.: 51
Chanel 4 Note Off - Duracao: 17580 Nota: C1 Vol.: 56
Chanel 4 Note On - Duracao: 17580 Nota: C1 Vol.: 52
Chanel 7 Note Off - Duracao: 17580 Nota: C1 Vol.: 56
Chanel 7 Note On - Duracao: 17580 Nota: C1 Vol.: 46
Chanel 9 Note Off - Duracao: 17640 Nota: C1 Vol.: 51
Chanel 9 Note On - Duracao: 17640 Nota: C1 Vol.: 48
Chanel 10 Note Off - Duracao: 17640 Nota: C1 Vol.: 50
Chanel 10 Note On - Duracao: 17640 Nota: C1 Vol.: 56
Chanel 1 Note Off - Duracao: 17700 Nota: C1 Vol.: 64
Chanel 1 Note On - Duracao: 17700 Nota: C1 Vol.: 69
Chanel 3 Note Off - Duracao: 17760 Nota: C1 Vol.: 48
Chanel 3 Note On - Duracao: 17760 Nota: C1 Vol.: 49
Chanel 5 Note Off - Duracao: 17760 Nota: C1 Vol.: 62
Chanel 5 Note On - Duracao: 17760 Nota: C1 Vol.: 61
Chanel 8 Note Off - Duracao: 17760 Nota: C1 Vol.: 58
Chanel 8 Note On - Duracao: 17760 Nota: C1 Vol.: 60
Chanel 9 Note Off - Duracao: 17880 Nota: C1 Vol.: 48
Chanel 9 Note On - Duracao: 17880 Nota: C1 Vol.: 43
Chanel 1 Note Off - Duracao: 17940 Nota: C1 Vol.: 69
Chanel 1 Note On - Duracao: 17940 Nota: C1 Vol.: 74
Chanel 5 Note Off - Duracao: 18000 Nota: C1 Vol.: 61
Chanel 5 Note On - Duracao: 18000 Nota: C1 Vol.: 58
Chanel 1 Note Off - Duracao: 18060 Nota: C1 Vol.: 74
Chanel 1 Note On - Duracao: 18060 Nota: C1 Vol.: 71
Chanel 4 Note Off - Duracao: 18060 Nota: C1 Vol.: 52
Chanel 4 Note On - Duracao: 18060 Nota: C1 Vol.: 63
Chanel 1 Note Off - Duracao: 18180 Nota: C1 Vol.: 71
Chanel 1 Note On - Duracao: 18180 Nota: C1 Vol.: 69
Chanel 5 Note Off - Duracao: 18240 Nota: C1 Vol.: 58
Chanel 5 Note On - Duracao: 18240 Nota: C1 Vol.: 52
Chanel 8 Note Off - Duracao: 18240 Nota: C1 Vol.: 60
Chanel 8 Note On - Duracao: 18240 Nota: C1 Vol.: 54
Chanel 1 Note Off - Duracao: 18300 Nota: C1 Vol.: 69
Chanel 1 Note On - Duracao: 18300 Nota: C1 Vol.: 68
Chanel 9 Note Off - Duracao: 18360 Nota: C1 Vol.: 43
Chanel 9 Note On - Duracao: 18360 Nota: C1 Vol.: 42
Chanel 1 Note Off - Duracao: 18420 Nota: C1 Vol.: 68
Chanel 1 Note On - Duracao: 18420 Nota: C1 Vol.: 70
Chanel 1 Note Off - Duracao: 18540 Nota: C1 Vol.: 70
Chanel 1 Note On - Duracao: 18540 Nota: C1 Vol.: 81
Chanel 4 Note Off - Duracao: 18540 Nota: C1 Vol.: 63
Chanel 4 Note On - Duracao: 18540 Nota: C1 Vol.: 44
Chanel 10 Note Off - Duracao: 18600 Nota: C1 Vol.: 56
Chanel 10 Note On - Duracao: 18600 Nota: C1 Vol.: 58
Chanel 1 Note Off - Duracao: 18660 Nota: C1 Vol.: 81
Chanel 1 Note On - Duracao: 18660 Nota: C1 Vol.: 94
Chanel 2 Note Off - Duracao: 18720 Nota: C1 Vol.: 59
Chanel 2 Note On - Duracao: 18720 Nota: C1 Vol.: 66
Chanel 3 Note Off - Duracao: 18720 Nota: C1 Vol.: 49
Chanel 3 Note On - Duracao: 18720 Nota: C1 Vol.: 67
Chanel 5 Note Off - Duracao: 18720 Nota: C1 Vol.: 52
Chanel 5 Note On - Duracao: 18720 Nota: C1 Vol.: 50
Chanel 1 Note Off - Duracao: 18780 Nota: C1 Vol.: 94
Chanel 1 Note On - Duracao: 18780 Nota: C1 Vol.: 96
Chanel 1 Note Off - Duracao: 18840 Nota: C1 Vol.: 96
Chanel 1 Note On - Duracao: 18840 Nota: C1 Vol.: 87
Chanel 6 Note Off - Duracao: 18900 Nota: C1 Vol.: 43
Chanel 6 Note On - Duracao: 18900 Nota: C1 Vol.: 55
Chanel 1 Note Off - Duracao: 18960 Nota: C1 Vol.: 87
Chanel 1 Note On - Duracao: 18960 Nota: C1 Vol.: 77
Chanel 10 Note Off - Duracao: 19080 Nota: C1 Vol.: 58
Chanel 10 Note On - Duracao: 19080 Nota: C1 Vol.: 61
Chanel 1 Note Off - Duracao: 19200 Nota: C1 Vol.: 77
Chanel 1 Note On - Duracao: 19200 Nota: C1 Vol.: 68
Chanel 3 Note Off - Duracao: 19200 Nota: C1 Vol.: 67
Chanel 3 Note On - Duracao: 19200 Nota: C1 Vol.: 77
Chanel 5 Note Off - Duracao: 19200 Nota: C1 Vol.: 50
Chanel 5 Note On - Duracao: 19200 Nota: C1 Vol.: 62
Chanel 8 Note Off - Duracao: 19200 Nota: C1 Vol.: 54
Chanel 8 Note On - Duracao: 19200 Nota: C1 Vol.: 46
Chanel 9 Note Off - Duracao: 19320 Nota: C1 Vol.: 42
Chanel 9 Note On - Duracao: 19320 Nota: C1 Vol.: 61
Chanel 1 Note Off - Duracao: 19440 Nota: C1 Vol.: 68
Chanel 1 Note On - Duracao: 19440 Nota: C1 Vol.: 68
Chanel 3 Note Off - Duracao: 19440 Nota: C1 Vol.: 77
Chanel 3 Note On - Duracao: 19440 Nota: C1 Vol.: 97
Chanel 5 Note Off - Duracao: 19440 Nota: C1 Vol.: 62
Chanel 5 Note On - Duracao: 19440 Nota: C1 Vol.: 40
Chanel 3 Note Off - Duracao: 19500 Nota: C1 Vol.: 97
Chanel 3 Note On - Duracao: 19500 Nota: C1 Vol.: 95
Chanel 7 Note Off - Duracao: 19500 Nota: C1 Vol.: 46
Chanel 7 Note On - Duracao: 19500 Nota: C1 Vol.: 49
Chanel 3 Note Off - Duracao: 19560 Nota: C1 Vol.: 95
Chanel 3 Note On - Duracao: 19560 Nota: C1 Vol.: 94
Chanel 9 Note Off - Duracao: 19560 Nota: C1 Vol.: 61
Chanel 9 Note On - Duracao: 19560 Nota: C1 Vol.: 49
Chanel 10 Note Off - Duracao: 19560 Nota: C1 Vol.: 61
Chanel 10 Note On - Duracao: 19560 Nota: C1 Vol.: 53
Chanel 3 Note Off - Duracao: 19620 Nota: C1 Vol.: 94
Chanel 3 Note On - Duracao: 19620 Nota: C1 Vol.: 44
Chanel 1 Note Off - Duracao: 19680 Nota: C1 Vol.: 68
Chanel 1 Note On - Duracao: 19680 Nota: C1 Vol.: 73
Chanel 2 Note Off - Duracao: 19680 Nota: C1 Vol.: 66
Chanel 2 Note On - Duracao: 19680 Nota: C1 Vol.: 86
Chanel 1 Note Off - Duracao: 19800 Nota: C1 Vol.: 73
Chanel 1 Note On - Duracao: 19800 Nota: C1 Vol.: 82
Chanel 1 Note Off - Duracao: 19920 Nota: C1 Vol.: 82
Chanel 1 Note On - Duracao: 19920 Nota: C1 Vol.: 80
Chanel 1 Note Off - Duracao: 20040 Nota: C1 Vol.: 80
Chanel 1 Note On - Duracao: 20040 Nota: C1 Vol.: 81
Chanel 9 Note Off - Duracao: 20040 Nota: C1 Vol.: 49
Chanel 9 Note On - Duracao: 20040 Nota: C1 Vol.: 40
Chanel 2 Note Off - Duracao: 20160 Nota: C1 Vol.: 86
Chanel 2 Note On - Duracao: 20160 Nota: C1 Vol.: 71
Chanel 8 Note Off - Duracao: 20160 Nota: C1 Vol.: 46
Chanel 8 Note On - Duracao: 20160 Nota: C1 Vol.: 52
Chanel 1 Note Off - Duracao: 20280 Nota: C1 Vol.: 81
Chanel 1 Note On - Duracao: 20280 Nota: C1 Vol.: 87
Chanel 1 Note Off - Duracao: 20400 Nota: C1 Vol.: 87
Chanel 1 Note On - Duracao: 20400 Nota: C1 Vol.: 85
Chanel 5 Note Off - Duracao: 20400 Nota: C1 Vol.: 40
Chanel 5 Note On - Duracao: 20400 Nota: C1 Vol.: 51
Chanel 4 Note Off - Duracao: 20460 Nota: C1 Vol.: 44
Chanel 4 Note On - Duracao: 20460 Nota: C1 Vol.: 40
Chanel 1 Note Off - Duracao: 20520 Nota: C1 Vol.: 85
Chanel 1 Note On - Duracao: 20520 Nota: C1 Vol.: 87
Chanel 10 Note Off - Duracao: 20520 Nota: C1 Vol.: 53
Chanel 10 Note On - Duracao: 20520 Nota: C1 Vol.: 59
Chanel 1 Note Off - Duracao: 20640 Nota: C1 Vol.: 87
Chanel 1 Note On - Duracao: 20640 Nota: C1 Vol.: 91
Chanel 5 Note Off - Duracao: 20640 Nota: C1 Vol.: 51
Chanel 5 Note On - Duracao: 20640 Nota: C1 Vol.: 49
Chanel 1 Note Off - Duracao: 20760 Nota: C1 Vol.: 91
Chanel 1 Note On - Duracao: 20760 Nota: C1 Vol.: 93
Chanel 6 Note Off - Duracao: 20820 Nota: C1 Vol.: 55
Chanel 6 Note On - Duracao: 20820 Nota: C1 Vol.: 55
Chanel 1 Note Off - Duracao: 20880 Nota: C1 Vol.: 93
Chanel 1 Note On - Duracao: 20880 Nota: C1 Vol.: 98
Chanel 5 Note Off - Duracao: 20880 Nota: C1 Vol.: 49
Chanel 5 Note On - Duracao: 20880 Nota: C1 Vol.: 56
Chanel 1 Note Off - Duracao: 20940 Nota: C1 Vol.: 98
Chanel 1 Note On - Duracao: 20940 Nota: C1 Vol.: 99
Chanel 1 Note Off - Duracao: 21000 Nota: C1 Vol.: 99
Chanel 1 Note On - Duracao: 21000 Nota: C1 Vol.: 99
Chanel 10 Note Off - Duracao: 21000 Nota: C1 Vol.: 59
Chanel 10 Note On - Duracao: 21000 Nota: C1 Vol.: 61
Chanel 1 Note Off - Duracao: 21060 Nota: C1 Vol.: 99
Chanel 1 Note On - Duracao: 21060 Nota: C1 Vol.: 98
Chanel 1 Note Off - Duracao: 21120 Nota: C1 Vol.: 98
Chanel 1 Note On - Duracao: 21120 Nota: C1 Vol.: 95
Chanel 2 Note Off - Duracao: 21120 Nota: C1 Vol.: 71
Chanel 2 Note On - Duracao: 21120 Nota: C1 Vol.: 75
Chanel 5 Note Off - Duracao: 21120 Nota: C1 Vol.: 56
Chanel 5 Note On - Duracao: 21120 Nota: C1 Vol.: 40
Chanel 8 Note Off - Duracao: 21120 Nota: C1 Vol.: 52
Chanel 8 Note On - Duracao: 21120 Nota: C1 Vol.: 54
Chanel 1 Note Off - Duracao: 21180 Nota: C1 Vol.: 95
Chanel 1 Note On - Duracao: 21180 Nota: C1 Vol.: 95
Chanel 1 Note Off - Duracao: 21240 Nota: C1 Vol.: 95
Chanel 1 Note On - Duracao: 21240 Nota: C1 Vol.: 75
Chanel 7 Note Off - Duracao: 21420 Nota: C1 Vol.: 49
Chanel 7 Note On - Duracao: 21420 Nota: C1 Vol.: 52
Chanel 1 Note Off - Duracao: 21480 Nota: C1 Vol.: 75
Chanel 1 Note On - Duracao: 21480 Nota: C1 Vol.: 44
Chanel 10 Note Off - Duracao: 21480 Nota: C1 Vol.: 61
Chanel 10 Note On - Duracao: 21480 Nota: C1 Vol.: 60
Chanel 3 Note Off - Duracao: 21540 Nota: C1 Vol.: 44
Chanel 3 Note On - Duracao: 21540 Nota: C1 Vol.: 42
Chanel 9 Note Off - Duracao: 21960 Nota: C1 Vol.: 40
Chanel 9 Note On - Duracao: 21960 Nota: C1 Vol.: 40
Chanel 10 Note Off - Duracao: 21960 Nota: C1 Vol.: 60
Chanel 10 Note On - Duracao: 21960 Nota: C1 Vol.: 58
Chanel 2 Note Off - Duracao: 22080 Nota: C1 Vol.: 75
Chanel 2 Note On - Duracao: 22080 Nota: C1 Vol.: 63
Chanel 8 Note Off - Duracao: 22080 Nota: C1 Vol.: 54
Chanel 8 Note On - Duracao: 22080 Nota: C1 Vol.: 57
Chanel 10 Note Off - Duracao: 22440 Nota: C1 Vol.: 58
Chanel 10 Note On - Duracao: 22440 Nota: C1 Vol.: 64
Chanel 8 Note Off - Duracao: 22560 Nota: C1 Vol.: 57
Chanel 8 Note On - Duracao: 22560 Nota: C1 Vol.: 55
Chanel 6 Note Off - Duracao: 22740 Nota: C1 Vol.: 55
Chanel 6 Note On - Duracao: 22740 Nota: C1 Vol.: 56
Chanel 10 Note Off - Duracao: 22920 Nota: C1 Vol.: 64
Chanel 10 Note On - Duracao: 22920 Nota: C1 Vol.: 56
Chanel 5 Note Off - Duracao: 23040 Nota: C1 Vol.: 40
Chanel 5 Note On - Duracao: 23040 Nota: C1 Vol.: 56
Chanel 7 Note Off - Duracao: 23340 Nota: C1 Vol.: 52
Chanel 7 Note On - Duracao: 23340 Nota: C1 Vol.: 52
Chanel 1 Note Off - Duracao: 23400 Nota: C1 Vol.: 44
Chanel 1 Note On - Duracao: 23400 Nota: C1 Vol.: 40
Chanel 3 Note Off - Duracao: 23460 Nota: C1 Vol.: 42
Chanel 3 Note On - Duracao: 23460 Nota: C1 Vol.: 65
Chanel 5 Note Off - Duracao: 23520 Nota: C1 Vol.: 56
Chanel 5 Note On - Duracao: 23520 Nota: C1 Vol.: 62
Chanel 8 Note Off - Duracao: 23520 Nota: C1 Vol.: 55
Chanel 8 Note On - Duracao: 23520 Nota: C1 Vol.: 52
Chanel 5 Note Off - Duracao: 23760 Nota: C1 Vol.: 62
Chanel 5 Note On - Duracao: 23760 Nota: C1 Vol.: 63
Chanel 9 Note Off - Duracao: 23880 Nota: C1 Vol.: 40
Chanel 9 Note On - Duracao: 23880 Nota: C1 Vol.: 40
Chanel 10 Note Off - Duracao: 23880 Nota: C1 Vol.: 56
Chanel 10 Note On - Duracao: 23880 Nota: C1 Vol.: 56
Chanel 3 Note Off - Duracao: 23940 Nota: C1 Vol.: 65
Chanel 3 Note On - Duracao: 23940 Nota: C1 Vol.: 65
Chanel 2 Note Off - Duracao: 24000 Nota: C1 Vol.: 63
Chanel 2 Note On - Duracao: 24000 Nota: C1 Vol.: 92
Chanel 5 Note Off - Duracao: 24000 Nota: C1 Vol.: 63
Chanel 5 Note On - Duracao: 24000 Nota: C1 Vol.: 67
Chanel 2 Note Off - Duracao: 24120 Nota: C1 Vol.: 92
Chanel 2 Note On - Duracao: 24120 Nota: C1 Vol.: 79
Chanel 3 Note Off - Duracao: 24180 Nota: C1 Vol.: 65
Chanel 3 Note On - Duracao: 24180 Nota: C1 Vol.: 65
Chanel 5 Note Off - Duracao: 24240 Nota: C1 Vol.: 67
Chanel 5 Note On - Duracao: 24240 Nota: C1 Vol.: 63
Chanel 4 Note Off - Duracao: 24300 Nota: C1 Vol.: 40
Chanel 4 Note On - Duracao: 24300 Nota: C1 Vol.: 40
Chanel 3 Note Off - Duracao: 24420 Nota: C1 Vol.: 65
Chanel 3 Note On - Duracao: 24420 Nota: C1 Vol.: 64
Chanel 5 Note Off - Duracao: 24480 Nota: C1 Vol.: 63
Chanel 5 Note On - Duracao: 24480 Nota: C1 Vol.: 60
Chanel 8 Note Off - Duracao: 24480 Nota: C1 Vol.: 52
Chanel 8 Note On - Duracao: 24480 Nota: C1 Vol.: 59
Chanel 2 Note Off - Duracao: 24600 Nota: C1 Vol.: 79
Chanel 2 Note On - Duracao: 24600 Nota: C1 Vol.: 64
Chanel 3 Note Off - Duracao: 24660 Nota: C1 Vol.: 64
Chanel 3 Note On - Duracao: 24660 Nota: C1 Vol.: 61
Chanel 6 Note Off - Duracao: 24660 Nota: C1 Vol.: 56
Chanel 6 Note On - Duracao: 24660 Nota: C1 Vol.: 75
Chanel 10 Note Off - Duracao: 24840 Nota: C1 Vol.: 56
Chanel 10 Note On - Duracao: 24840 Nota: C1 Vol.: 65
Chanel 3 Note Off - Duracao: 24900 Nota: C1 Vol.: 61
Chanel 3 Note On - Duracao: 24900 Nota: C1 Vol.: 62
Chanel 5 Note Off - Duracao: 24960 Nota: C1 Vol.: 60
Chanel 5 Note On - Duracao: 24960 Nota: C1 Vol.: 81
Chanel 5 Note Off - Duracao: 25080 Nota: C1 Vol.: 81
Chanel 5 Note On - Duracao: 25080 Nota: C1 Vol.: 85
Chanel 6 Note Off - Duracao: 25140 Nota: C1 Vol.: 75
Chanel 6 Note On - Duracao: 25140 Nota: C1 Vol.: 92
Chanel 5 Note Off - Duracao: 25200 Nota: C1 Vol.: 85
Chanel 5 Note On - Duracao: 25200 Nota: C1 Vol.: 95
Chanel 5 Note Off - Duracao: 25260 Nota: C1 Vol.: 95
Chanel 5 Note On - Duracao: 25260 Nota: C1 Vol.: 95
Chanel 6 Note Off - Duracao: 25260 Nota: C1 Vol.: 92
Chanel 6 Note On - Duracao: 25260 Nota: C1 Vol.: 97
Chanel 1 Note Off - Duracao: 25320 Nota: C1 Vol.: 40
Chanel 1 Note On - Duracao: 25320 Nota: C1 Vol.: 40
Chanel 5 Note Off - Duracao: 25320 Nota: C1 Vol.: 95
Chanel 5 Note On - Duracao: 25320 Nota: C1 Vol.: 98
Chanel 10 Note Off - Duracao: 25320 Nota: C1 Vol.: 65
Chanel 10 Note On - Duracao: 25320 Nota: C1 Vol.: 60
Chanel 3 Note Off - Duracao: 25380 Nota: C1 Vol.: 62
Chanel 3 Note On - Duracao: 25380 Nota: C1 Vol.: 59
Chanel 5 Note Off - Duracao: 25380 Nota: C1 Vol.: 98
Chanel 5 Note On - Duracao: 25380 Nota: C1 Vol.: 98
Chanel 6 Note Off - Duracao: 25380 Nota: C1 Vol.: 97
Chanel 6 Note On - Duracao: 25380 Nota: C1 Vol.: 51
Chanel 5 Note Off - Duracao: 25440 Nota: C1 Vol.: 98
Chanel 5 Note On - Duracao: 25440 Nota: C1 Vol.: 97
Chanel 8 Note Off - Duracao: 25440 Nota: C1 Vol.: 59
Chanel 8 Note On - Duracao: 25440 Nota: C1 Vol.: 58
Chanel 5 Note Off - Duracao: 25500 Nota: C1 Vol.: 97
Chanel 5 Note On - Duracao: 25500 Nota: C1 Vol.: 100
Chanel 2 Note Off - Duracao: 25560 Nota: C1 Vol.: 64
Chanel 2 Note On - Duracao: 25560 Nota: C1 Vol.: 68
Chanel 5 Note Off - Duracao: 25560 Nota: C1 Vol.: 100
Chanel 5 Note On - Duracao: 25560 Nota: C1 Vol.: 100
Chanel 5 Note Off - Duracao: 25620 Nota: C1 Vol.: 100
Chanel 5 Note On - Duracao: 25620 Nota: C1 Vol.: 100
Chanel 5 Note Off - Duracao: 25680 Nota: C1 Vol.: 100
Chanel 5 Note On - Duracao: 25680 Nota: C1 Vol.: 99
Chanel 5 Note Off - Duracao: 25740 Nota: C1 Vol.: 99
Chanel 5 Note On - Duracao: 25740 Nota: C1 Vol.: 99
Chanel 5 Note Off - Duracao: 25800 Nota: C1 Vol.: 99
Chanel 5 Note On - Duracao: 25800 Nota: C1 Vol.: 100
Chanel 9 Note Off - Duracao: 25800 Nota: C1 Vol.: 40
Chanel 9 Note On - Duracao: 25800 Nota: C1 Vol.: 42
Chanel 10 Note Off - Duracao: 25800 Nota: C1 Vol.: 60
Chanel 10 Note On - Duracao: 25800 Nota: C1 Vol.: 58
Chanel 3 Note Off - Duracao: 25860 Nota: C1 Vol.: 59
Chanel 3 Note On - Duracao: 25860 Nota: C1 Vol.: 54
Chanel 5 Note Off - Duracao: 25860 Nota: C1 Vol.: 100
Chanel 5 Note On - Duracao: 25860 Nota: C1 Vol.: 99
Chanel 5 Note Off - Duracao: 25920 Nota: C1 Vol.: 99
Chanel 5 Note On - Duracao: 25920 Nota: C1 Vol.: 99
Chanel 5 Note Off - Duracao: 25980 Nota: C1 Vol.: 99
Chanel 5 Note On - Duracao: 25980 Nota: C1 Vol.: 98
Chanel 5 Note Off - Duracao: 26040 Nota: C1 Vol.: 98
Chanel 5 Note On - Duracao: 26040 Nota: C1 Vol.: 97
Chanel 5 Note Off - Duracao: 26100 Nota: C1 Vol.: 97
Chanel 5 Note On - Duracao: 26100 Nota: C1 Vol.: 96
Chanel 5 Note Off - Duracao: 26160 Nota: C1 Vol.: 96
Chanel 5 Note On - Duracao: 26160 Nota: C1 Vol.: 97
Chanel 5 Note Off - Duracao: 26220 Nota: C1 Vol.: 97
Chanel 5 Note On - Duracao: 26220 Nota: C1 Vol.: 71
Chanel 10 Note Off - Duracao: 26280 Nota: C1 Vol.: 58
Chanel 10 Note On - Duracao: 26280 Nota: C1 Vol.: 54
Chanel 8 Note Off - Duracao: 26400 Nota: C1 Vol.: 58
Chanel 8 Note On - Duracao: 26400 Nota: C1 Vol.: 60
Chanel 2 Note Off - Duracao: 26520 Nota: C1 Vol.: 68
Chanel 2 Note On - Duracao: 26520 Nota: C1 Vol.: 58
Chanel 5 Note Off - Duracao: 26700 Nota: C1 Vol.: 71
Chanel 5 Note On - Duracao: 26700 Nota: C1 Vol.: 52
Chanel 3 Note Off - Duracao: 26820 Nota: C1 Vol.: 54
Chanel 3 Note On - Duracao: 26820 Nota: C1 Vol.: 41
Chanel 8 Note Off - Duracao: 26880 Nota: C1 Vol.: 60
Chanel 8 Note On - Duracao: 26880 Nota: C1 Vol.: 61
Chanel 7 Note Off - Duracao: 27180 Nota: C1 Vol.: 52
Chanel 7 Note On - Duracao: 27180 Nota: C1 Vol.: 52
Chanel 1 Note Off - Duracao: 27240 Nota: C1 Vol.: 40
Chanel 1 Note On - Duracao: 27240 Nota: C1 Vol.: 40
Chanel 10 Note Off - Duracao: 27240 Nota: C1 Vol.: 54
Chanel 10 Note On - Duracao: 27240 Nota: C1 Vol.: 58
Chanel 6 Note Off - Duracao: 27300 Nota: C1 Vol.: 51
Chanel 6 Note On - Duracao: 27300 Nota: C1 Vol.: 60
Chanel 8 Note Off - Duracao: 27360 Nota: C1 Vol.: 61
Chanel 8 Note On - Duracao: 27360 Nota: C1 Vol.: 64
Chanel 2 Note Off - Duracao: 27480 Nota: C1 Vol.: 58
Chanel 2 Note On - Duracao: 27480 Nota: C1 Vol.: 40
Chanel 9 Note Off - Duracao: 27720 Nota: C1 Vol.: 42
Chanel 9 Note On - Duracao: 27720 Nota: C1 Vol.: 42
Chanel 10 Note Off - Duracao: 27720 Nota: C1 Vol.: 58
Chanel 10 Note On - Duracao: 27720 Nota: C1 Vol.: 50
Chanel 8 Note Off - Duracao: 27840 Nota: C1 Vol.: 64
Chanel 8 Note On - Duracao: 27840 Nota: C1 Vol.: 70
Chanel 4 Note Off - Duracao: 28140 Nota: C1 Vol.: 40
Chanel 4 Note On - Duracao: 28140 Nota: C1 Vol.: 43
Chanel 8 Note Off - Duracao: 28320 Nota: C1 Vol.: 70
Chanel 8 Note On - Duracao: 28320 Nota: C1 Vol.: 66
Chanel 2 Note Off - Duracao: 28440 Nota: C1 Vol.: 40
Chanel 2 Note On - Duracao: 28440 Nota: C1 Vol.: 53
Chanel 2 Note Off - Duracao: 28560 Nota: C1 Vol.: 53
Chanel 2 Note On - Duracao: 28560 Nota: C1 Vol.: 46
Chanel 5 Note Off - Duracao: 28620 Nota: C1 Vol.: 52
Chanel 5 Note On - Duracao: 28620 Nota: C1 Vol.: 90
Chanel 2 Note Off - Duracao: 28680 Nota: C1 Vol.: 46
Chanel 2 Note On - Duracao: 28680 Nota: C1 Vol.: 41
Chanel 10 Note Off - Duracao: 28680 Nota: C1 Vol.: 50
Chanel 10 Note On - Duracao: 28680 Nota: C1 Vol.: 41
Chanel 3 Note Off - Duracao: 28740 Nota: C1 Vol.: 41
Chanel 3 Note On - Duracao: 28740 Nota: C1 Vol.: 41
Chanel 5 Note Off - Duracao: 28740 Nota: C1 Vol.: 90
Chanel 5 Note On - Duracao: 28740 Nota: C1 Vol.: 92
Chanel 2 Note Off - Duracao: 28800 Nota: C1 Vol.: 41
Chanel 2 Note On - Duracao: 28800 Nota: C1 Vol.: 43
Chanel 8 Note Off - Duracao: 28800 Nota: C1 Vol.: 66
Chanel 8 Note On - Duracao: 28800 Nota: C1 Vol.: 50
Chanel 5 Note Off - Duracao: 28860 Nota: C1 Vol.: 92
Chanel 5 Note On - Duracao: 28860 Nota: C1 Vol.: 100
Chanel 2 Note Off - Duracao: 28920 Nota: C1 Vol.: 43
Chanel 2 Note On - Duracao: 28920 Nota: C1 Vol.: 44
Chanel 5 Note Off - Duracao: 28920 Nota: C1 Vol.: 100
Chanel 5 Note On - Duracao: 28920 Nota: C1 Vol.: 100
Chanel 5 Note Off - Duracao: 28980 Nota: C1 Vol.: 100
Chanel 5 Note On - Duracao: 28980 Nota: C1 Vol.: 100
Chanel 2 Note Off - Duracao: 29040 Nota: C1 Vol.: 44
Chanel 2 Note On - Duracao: 29040 Nota: C1 Vol.: 42
Chanel 5 Note Off - Duracao: 29040 Nota: C1 Vol.: 100
Chanel 5 Note On - Duracao: 29040 Nota: C1 Vol.: 100
Chanel 5 Note Off - Duracao: 29100 Nota: C1 Vol.: 100
Chanel 5 Note On - Duracao: 29100 Nota: C1 Vol.: 98
Chanel 1 Note Off - Duracao: 29160 Nota: C1 Vol.: 40
Chanel 1 Note On - Duracao: 29160 Nota: C1 Vol.: 40
Chanel 2 Note Off - Duracao: 29160 Nota: C1 Vol.: 42
Chanel 2 Note On - Duracao: 29160 Nota: C1 Vol.: 49
Chanel 5 Note Off - Duracao: 29160 Nota: C1 Vol.: 98
Chanel 5 Note On - Duracao: 29160 Nota: C1 Vol.: 99
Chanel 5 Note Off - Duracao: 29220 Nota: C1 Vol.: 99
Chanel 5 Note On - Duracao: 29220 Nota: C1 Vol.: 96
Chanel 6 Note Off - Duracao: 29220 Nota: C1 Vol.: 60
Chanel 6 Note On - Duracao: 29220 Nota: C1 Vol.: 50
Chanel 2 Note Off - Duracao: 29280 Nota: C1 Vol.: 49
Chanel 2 Note On - Duracao: 29280 Nota: C1 Vol.: 55
Chanel 5 Note Off - Duracao: 29280 Nota: C1 Vol.: 96
Chanel 5 Note On - Duracao: 29280 Nota: C1 Vol.: 98
Chanel 5 Note Off - Duracao: 29340 Nota: C1 Vol.: 98
Chanel 5 Note On - Duracao: 29340 Nota: C1 Vol.: 96
Chanel 2 Note Off - Duracao: 29400 Nota: C1 Vol.: 55
Chanel 2 Note On - Duracao: 29400 Nota: C1 Vol.: 40
Chanel 5 Note Off - Duracao: 29400 Nota: C1 Vol.: 96
Chanel 5 Note On - Duracao: 29400 Nota: C1 Vol.: 48
Chanel 9 Note Off - Duracao: 29640 Nota: C1 Vol.: 42
Chanel 9 Note On - Duracao: 29640 Nota: C1 Vol.: 40
Chanel 10 Note Off - Duracao: 29640 Nota: C1 Vol.: 41
Chanel 10 Note On - Duracao: 29640 Nota: C1 Vol.: 51
Chanel 4 Note Off - Duracao: 30060 Nota: C1 Vol.: 43
Chanel 4 Note On - Duracao: 30060 Nota: C1 Vol.: 44
Chanel 10 Note Off - Duracao: 30120 Nota: C1 Vol.: 51
Chanel 10 Note On - Duracao: 30120 Nota: C1 Vol.: 55
Chanel 2 Note Off - Duracao: 30360 Nota: C1 Vol.: 40
Chanel 2 Note On - Duracao: 30360 Nota: C1 Vol.: 54
Chanel 10 Note Off - Duracao: 30600 Nota: C1 Vol.: 55
Chanel 10 Note On - Duracao: 30600 Nota: C1 Vol.: 57
Chanel 3 Note Off - Duracao: 30660 Nota: C1 Vol.: 41
Chanel 3 Note On - Duracao: 30660 Nota: C1 Vol.: 42
Chanel 8 Note Off - Duracao: 30720 Nota: C1 Vol.: 50
Chanel 8 Note On - Duracao: 30720 Nota: C1 Vol.: 52
Chanel 10 Note Off - Duracao: 30840 Nota: C1 Vol.: 57
Chanel 10 Note On - Duracao: 30840 Nota: C1 Vol.: 63
Chanel 7 Note Off - Duracao: 31020 Nota: C1 Vol.: 52
Chanel 7 Note On - Duracao: 31020 Nota: C1 Vol.: 52
Chanel 1 Note Off - Duracao: 31080 Nota: C1 Vol.: 40
Chanel 1 Note On - Duracao: 31080 Nota: C1 Vol.: 40
Chanel 10 Note Off - Duracao: 31080 Nota: C1 Vol.: 63
Chanel 10 Note On - Duracao: 31080 Nota: C1 Vol.: 64
Chanel 2 Note Off - Duracao: 31320 Nota: C1 Vol.: 54
Chanel 2 Note On - Duracao: 31320 Nota: C1 Vol.: 78
Chanel 5 Note Off - Duracao: 31320 Nota: C1 Vol.: 48
Chanel 5 Note On - Duracao: 31320 Nota: C1 Vol.: 75
Chanel 10 Note Off - Duracao: 31320 Nota: C1 Vol.: 64
Chanel 10 Note On - Duracao: 31320 Nota: C1 Vol.: 68
Chanel 2 Note Off - Duracao: 31560 Nota: C1 Vol.: 78
Chanel 2 Note On - Duracao: 31560 Nota: C1 Vol.: 74
Chanel 5 Note Off - Duracao: 31560 Nota: C1 Vol.: 75
Chanel 5 Note On - Duracao: 31560 Nota: C1 Vol.: 96
Chanel 9 Note Off - Duracao: 31560 Nota: C1 Vol.: 40
Chanel 9 Note On - Duracao: 31560 Nota: C1 Vol.: 40
Chanel 10 Note Off - Duracao: 31560 Nota: C1 Vol.: 68
Chanel 10 Note On - Duracao: 31560 Nota: C1 Vol.: 64
Chanel 5 Note Off - Duracao: 31620 Nota: C1 Vol.: 96
Chanel 5 Note On - Duracao: 31620 Nota: C1 Vol.: 96
Chanel 5 Note Off - Duracao: 31680 Nota: C1 Vol.: 96
Chanel 5 Note On - Duracao: 31680 Nota: C1 Vol.: 97
Chanel 5 Note Off - Duracao: 31740 Nota: C1 Vol.: 97
Chanel 5 Note On - Duracao: 31740 Nota: C1 Vol.: 91
Chanel 2 Note Off - Duracao: 31800 Nota: C1 Vol.: 74
Chanel 2 Note On - Duracao: 31800 Nota: C1 Vol.: 79
Chanel 10 Note Off - Duracao: 31800 Nota: C1 Vol.: 64
Chanel 10 Note On - Duracao: 31800 Nota: C1 Vol.: 64
Chanel 5 Note Off - Duracao: 31860 Nota: C1 Vol.: 91
Chanel 5 Note On - Duracao: 31860 Nota: C1 Vol.: 44
Chanel 2 Note Off - Duracao: 32040 Nota: C1 Vol.: 79
Chanel 2 Note On - Duracao: 32040 Nota: C1 Vol.: 79
Chanel 10 Note Off - Duracao: 32040 Nota: C1 Vol.: 64
Chanel 10 Note On - Duracao: 32040 Nota: C1 Vol.: 63
Chanel 2 Note Off - Duracao: 32280 Nota: C1 Vol.: 79
Chanel 2 Note On - Duracao: 32280 Nota: C1 Vol.: 79
Chanel 10 Note Off - Duracao: 32280 Nota: C1 Vol.: 63
Chanel 10 Note On - Duracao: 32280 Nota: C1 Vol.: 62
Chanel 2 Note Off - Duracao: 32520 Nota: C1 Vol.: 79
Chanel 2 Note On - Duracao: 32520 Nota: C1 Vol.: 79
Chanel 10 Note Off - Duracao: 32520 Nota: C1 Vol.: 62
Chanel 10 Note On - Duracao: 32520 Nota: C1 Vol.: 52
Chanel 8 Note Off - Duracao: 32640 Nota: C1 Vol.: 52
Chanel 8 Note On - Duracao: 32640 Nota: C1 Vol.: 49
Chanel 2 Note Off - Duracao: 32760 Nota: C1 Vol.: 79
Chanel 2 Note On - Duracao: 32760 Nota: C1 Vol.: 82
Chanel 2 Note Off - Duracao: 32880 Nota: C1 Vol.: 82
Chanel 2 Note On - Duracao: 32880 Nota: C1 Vol.: 75
Chanel 1 Note Off - Duracao: 33000 Nota: C1 Vol.: 40
Chanel 1 Note On - Duracao: 33000 Nota: C1 Vol.: 40
Chanel 10 Note Off - Duracao: 33000 Nota: C1 Vol.: 52
Chanel 10 Note On - Duracao: 33000 Nota: C1 Vol.: 48
Chanel 6 Note Off - Duracao: 33060 Nota: C1 Vol.: 50
Chanel 6 Note On - Duracao: 33060 Nota: C1 Vol.: 48
Chanel 2 Note Off - Duracao: 33120 Nota: C1 Vol.: 75
Chanel 2 Note On - Duracao: 33120 Nota: C1 Vol.: 90
Chanel 2 Note Off - Duracao: 33240 Nota: C1 Vol.: 90
Chanel 2 Note On - Duracao: 33240 Nota: C1 Vol.: 90
Chanel 2 Note Off - Duracao: 33360 Nota: C1 Vol.: 90
Chanel 2 Note On - Duracao: 33360 Nota: C1 Vol.: 88
Chanel 2 Note Off - Duracao: 33480 Nota: C1 Vol.: 88
Chanel 2 Note On - Duracao: 33480 Nota: C1 Vol.: 62
Chanel 9 Note Off - Duracao: 33480 Nota: C1 Vol.: 40
Chanel 9 Note On - Duracao: 33480 Nota: C1 Vol.: 40
Chanel 10 Note Off - Duracao: 33480 Nota: C1 Vol.: 48
Chanel 10 Note On - Duracao: 33480 Nota: C1 Vol.: 54
Chanel 2 Note Off - Duracao: 33720 Nota: C1 Vol.: 62
Chanel 2 Note On - Duracao: 33720 Nota: C1 Vol.: 63
Chanel 5 Note Off - Duracao: 33780 Nota: C1 Vol.: 44
Chanel 5 Note On - Duracao: 33780 Nota: C1 Vol.: 62
Chanel 4 Note Off - Duracao: 33900 Nota: C1 Vol.: 44
Chanel 4 Note On - Duracao: 33900 Nota: C1 Vol.: 67
Chanel 2 Note Off - Duracao: 33960 Nota: C1 Vol.: 63
Chanel 2 Note On - Duracao: 33960 Nota: C1 Vol.: 64
Chanel 10 Note Off - Duracao: 33960 Nota: C1 Vol.: 54
Chanel 10 Note On - Duracao: 33960 Nota: C1 Vol.: 65
Chanel 2 Note Off - Duracao: 34080 Nota: C1 Vol.: 64
Chanel 2 Note On - Duracao: 34080 Nota: C1 Vol.: 61
Chanel 2 Note Off - Duracao: 34320 Nota: C1 Vol.: 61
Chanel 2 Note On - Duracao: 34320 Nota: C1 Vol.: 51
Chanel 10 Note Off - Duracao: 34440 Nota: C1 Vol.: 65
Chanel 10 Note On - Duracao: 34440 Nota: C1 Vol.: 69
Chanel 3 Note Off - Duracao: 34500 Nota: C1 Vol.: 42
Chanel 3 Note On - Duracao: 34500 Nota: C1 Vol.: 47
Chanel 8 Note Off - Duracao: 34560 Nota: C1 Vol.: 49
Chanel 8 Note On - Duracao: 34560 Nota: C1 Vol.: 50
Chanel 5 Note Off - Duracao: 34740 Nota: C1 Vol.: 62
Chanel 5 Note On - Duracao: 34740 Nota: C1 Vol.: 89
Chanel 2 Note Off - Duracao: 34800 Nota: C1 Vol.: 51
Chanel 2 Note On - Duracao: 34800 Nota: C1 Vol.: 53
Chanel 4 Note Off - Duracao: 34860 Nota: C1 Vol.: 67
Chanel 4 Note On - Duracao: 34860 Nota: C1 Vol.: 70
Chanel 5 Note Off - Duracao: 34860 Nota: C1 Vol.: 89
Chanel 5 Note On - Duracao: 34860 Nota: C1 Vol.: 90
Chanel 7 Note Off - Duracao: 34860 Nota: C1 Vol.: 52
Chanel 7 Note On - Duracao: 34860 Nota: C1 Vol.: 51
Chanel 1 Note Off - Duracao: 34920 Nota: C1 Vol.: 40
Chanel 1 Note On - Duracao: 34920 Nota: C1 Vol.: 40
Chanel 10 Note Off - Duracao: 34920 Nota: C1 Vol.: 69
Chanel 10 Note On - Duracao: 34920 Nota: C1 Vol.: 69
Chanel 5 Note Off - Duracao: 34980 Nota: C1 Vol.: 90
Chanel 5 Note On - Duracao: 34980 Nota: C1 Vol.: 99
Chanel 5 Note Off - Duracao: 35040 Nota: C1 Vol.: 99
Chanel 5 Note On - Duracao: 35040 Nota: C1 Vol.: 96
Chanel 5 Note Off - Duracao: 35100 Nota: C1 Vol.: 96
Chanel 5 Note On - Duracao: 35100 Nota: C1 Vol.: 98
Chanel 5 Note Off - Duracao: 35220 Nota: C1 Vol.: 98
Chanel 5 Note On - Duracao: 35220 Nota: C1 Vol.: 100
Chanel 2 Note Off - Duracao: 35280 Nota: C1 Vol.: 53
Chanel 2 Note On - Duracao: 35280 Nota: C1 Vol.: 99
Chanel 5 Note Off - Duracao: 35280 Nota: C1 Vol.: 100
Chanel 5 Note On - Duracao: 35280 Nota: C1 Vol.: 100
Chanel 2 Note Off - Duracao: 35340 Nota: C1 Vol.: 99
Chanel 2 Note On - Duracao: 35340 Nota: C1 Vol.: 97
Chanel 5 Note Off - Duracao: 35340 Nota: C1 Vol.: 100
Chanel 5 Note On - Duracao: 35340 Nota: C1 Vol.: 94
Chanel 9 Note Off - Duracao: 35400 Nota: C1 Vol.: 40
Chanel 9 Note On - Duracao: 35400 Nota: C1 Vol.: 40
Chanel 10 Note Off - Duracao: 35400 Nota: C1 Vol.: 69
Chanel 10 Note On - Duracao: 35400 Nota: C1 Vol.: 81
Chanel 2 Note Off - Duracao: 35460 Nota: C1 Vol.: 97
Chanel 2 Note On - Duracao: 35460 Nota: C1 Vol.: 97
Chanel 5 Note Off - Duracao: 35460 Nota: C1 Vol.: 94
Chanel 5 Note On - Duracao: 35460 Nota: C1 Vol.: 70
Chanel 2 Note Off - Duracao: 35580 Nota: C1 Vol.: 97
Chanel 2 Note On - Duracao: 35580 Nota: C1 Vol.: 86
Chanel 10 Note Off - Duracao: 35640 Nota: C1 Vol.: 81
Chanel 10 Note On - Duracao: 35640 Nota: C1 Vol.: 80
Chanel 2 Note Off - Duracao: 35820 Nota: C1 Vol.: 86
Chanel 2 Note On - Duracao: 35820 Nota: C1 Vol.: 75
Chanel 4 Note Off - Duracao: 35820 Nota: C1 Vol.: 70
Chanel 4 Note On - Duracao: 35820 Nota: C1 Vol.: 70
Chanel 10 Note Off - Duracao: 35880 Nota: C1 Vol.: 80
Chanel 10 Note On - Duracao: 35880 Nota: C1 Vol.: 82
Chanel 5 Note Off - Duracao: 35940 Nota: C1 Vol.: 70
Chanel 5 Note On - Duracao: 35940 Nota: C1 Vol.: 65
Chanel 10 Note Off - Duracao: 36120 Nota: C1 Vol.: 82
Chanel 10 Note On - Duracao: 36120 Nota: C1 Vol.: 85
Chanel 2 Note Off - Duracao: 36300 Nota: C1 Vol.: 75
Chanel 2 Note On - Duracao: 36300 Nota: C1 Vol.: 77
Chanel 10 Note Off - Duracao: 36360 Nota: C1 Vol.: 85
Chanel 10 Note On - Duracao: 36360 Nota: C1 Vol.: 83
Chanel 3 Note Off - Duracao: 36420 Nota: C1 Vol.: 47
Chanel 3 Note On - Duracao: 36420 Nota: C1 Vol.: 64
Chanel 5 Note Off - Duracao: 36420 Nota: C1 Vol.: 65
Chanel 5 Note On - Duracao: 36420 Nota: C1 Vol.: 72
Chanel 8 Note Off - Duracao: 36480 Nota: C1 Vol.: 50
Chanel 8 Note On - Duracao: 36480 Nota: C1 Vol.: 54
Chanel 2 Note Off - Duracao: 36540 Nota: C1 Vol.: 77
Chanel 2 Note On - Duracao: 36540 Nota: C1 Vol.: 76
Chanel 10 Note Off - Duracao: 36600 Nota: C1 Vol.: 83
Chanel 10 Note On - Duracao: 36600 Nota: C1 Vol.: 81
Chanel 2 Note Off - Duracao: 36780 Nota: C1 Vol.: 76
Chanel 2 Note On - Duracao: 36780 Nota: C1 Vol.: 76
Chanel 1 Note Off - Duracao: 36840 Nota: C1 Vol.: 40
Chanel 1 Note On - Duracao: 36840 Nota: C1 Vol.: 43
Chanel 10 Note Off - Duracao: 36840 Nota: C1 Vol.: 81
Chanel 10 Note On - Duracao: 36840 Nota: C1 Vol.: 84
Chanel 3 Note Off - Duracao: 36900 Nota: C1 Vol.: 64
Chanel 3 Note On - Duracao: 36900 Nota: C1 Vol.: 78
Chanel 5 Note Off - Duracao: 36900 Nota: C1 Vol.: 72
Chanel 5 Note On - Duracao: 36900 Nota: C1 Vol.: 99
Chanel 6 Note Off - Duracao: 36900 Nota: C1 Vol.: 48
Chanel 6 Note On - Duracao: 36900 Nota: C1 Vol.: 53
Chanel 5 Note Off - Duracao: 36960 Nota: C1 Vol.: 99
Chanel 5 Note On - Duracao: 36960 Nota: C1 Vol.: 97
Chanel 2 Note Off - Duracao: 37020 Nota: C1 Vol.: 76
Chanel 2 Note On - Duracao: 37020 Nota: C1 Vol.: 85
Chanel 5 Note Off - Duracao: 37020 Nota: C1 Vol.: 97
Chanel 5 Note On - Duracao: 37020 Nota: C1 Vol.: 99
Chanel 5 Note Off - Duracao: 37080 Nota: C1 Vol.: 99
Chanel 5 Note On - Duracao: 37080 Nota: C1 Vol.: 94
Chanel 10 Note Off - Duracao: 37080 Nota: C1 Vol.: 84
Chanel 10 Note On - Duracao: 37080 Nota: C1 Vol.: 85
Chanel 3 Note Off - Duracao: 37140 Nota: C1 Vol.: 78
Chanel 3 Note On - Duracao: 37140 Nota: C1 Vol.: 60
Chanel 5 Note Off - Duracao: 37200 Nota: C1 Vol.: 94
Chanel 5 Note On - Duracao: 37200 Nota: C1 Vol.: 98
Chanel 10 Note Off - Duracao: 37200 Nota: C1 Vol.: 85
Chanel 10 Note On - Duracao: 37200 Nota: C1 Vol.: 73
Chanel 2 Note Off - Duracao: 37260 Nota: C1 Vol.: 85
Chanel 2 Note On - Duracao: 37260 Nota: C1 Vol.: 77
Chanel 5 Note Off - Duracao: 37260 Nota: C1 Vol.: 98
Chanel 5 Note On - Duracao: 37260 Nota: C1 Vol.: 97
Chanel 5 Note Off - Duracao: 37320 Nota: C1 Vol.: 97
Chanel 5 Note On - Duracao: 37320 Nota: C1 Vol.: 94
Chanel 9 Note Off - Duracao: 37320 Nota: C1 Vol.: 40
Chanel 9 Note On - Duracao: 37320 Nota: C1 Vol.: 54
Chanel 5 Note Off - Duracao: 37440 Nota: C1 Vol.: 94
Chanel 5 Note On - Duracao: 37440 Nota: C1 Vol.: 95
Chanel 10 Note Off - Duracao: 37440 Nota: C1 Vol.: 73
Chanel 10 Note On - Duracao: 37440 Nota: C1 Vol.: 61
Chanel 2 Note Off - Duracao: 37500 Nota: C1 Vol.: 77
Chanel 2 Note On - Duracao: 37500 Nota: C1 Vol.: 80
Chanel 5 Note Off - Duracao: 37560 Nota: C1 Vol.: 95
Chanel 5 Note On - Duracao: 37560 Nota: C1 Vol.: 97
Chanel 5 Note Off - Duracao: 37680 Nota: C1 Vol.: 97
Chanel 5 Note On - Duracao: 37680 Nota: C1 Vol.: 92
Chanel 2 Note Off - Duracao: 37740 Nota: C1 Vol.: 80
Chanel 2 Note On - Duracao: 37740 Nota: C1 Vol.: 83
Chanel 4 Note Off - Duracao: 37740 Nota: C1 Vol.: 70
Chanel 4 Note On - Duracao: 37740 Nota: C1 Vol.: 68
Chanel 5 Note Off - Duracao: 37800 Nota: C1 Vol.: 92
Chanel 5 Note On - Duracao: 37800 Nota: C1 Vol.: 82
Chanel 9 Note Off - Duracao: 37800 Nota: C1 Vol.: 54
Chanel 9 Note On - Duracao: 37800 Nota: C1 Vol.: 53
Chanel 6 Note Off - Duracao: 37860 Nota: C1 Vol.: 53
Chanel 6 Note On - Duracao: 37860 Nota: C1 Vol.: 62
Chanel 5 Note Off - Duracao: 37920 Nota: C1 Vol.: 82
Chanel 5 Note On - Duracao: 37920 Nota: C1 Vol.: 63
Chanel 2 Note Off - Duracao: 37980 Nota: C1 Vol.: 83
Chanel 2 Note On - Duracao: 37980 Nota: C1 Vol.: 89
Chanel 3 Note Off - Duracao: 38100 Nota: C1 Vol.: 60
Chanel 3 Note On - Duracao: 38100 Nota: C1 Vol.: 42
Chanel 6 Note Off - Duracao: 38100 Nota: C1 Vol.: 62
Chanel 6 Note On - Duracao: 38100 Nota: C1 Vol.: 59
Chanel 2 Note Off - Duracao: 38220 Nota: C1 Vol.: 89
Chanel 2 Note On - Duracao: 38220 Nota: C1 Vol.: 88
Chanel 9 Note Off - Duracao: 38280 Nota: C1 Vol.: 53
Chanel 9 Note On - Duracao: 38280 Nota: C1 Vol.: 49
Chanel 6 Note Off - Duracao: 38340 Nota: C1 Vol.: 59
Chanel 6 Note On - Duracao: 38340 Nota: C1 Vol.: 51
Chanel 5 Note Off - Duracao: 38400 Nota: C1 Vol.: 63
Chanel 5 Note On - Duracao: 38400 Nota: C1 Vol.: 48
Chanel 8 Note Off - Duracao: 38400 Nota: C1 Vol.: 54
Chanel 8 Note On - Duracao: 38400 Nota: C1 Vol.: 54
Chanel 10 Note Off - Duracao: 38400 Nota: C1 Vol.: 61
Chanel 10 Note On - Duracao: 38400 Nota: C1 Vol.: 55
Chanel 2 Note Off - Duracao: 38460 Nota: C1 Vol.: 88
Chanel 2 Note On - Duracao: 38460 Nota: C1 Vol.: 78
Chanel 6 Note Off - Duracao: 38580 Nota: C1 Vol.: 51
Chanel 6 Note On - Duracao: 38580 Nota: C1 Vol.: 51
Chanel 7 Note Off - Duracao: 38700 Nota: C1 Vol.: 51
Chanel 7 Note On - Duracao: 38700 Nota: C1 Vol.: 60
Chanel 1 Note Off - Duracao: 38760 Nota: C1 Vol.: 43
Chanel 1 Note On - Duracao: 38760 Nota: C1 Vol.: 49
Chanel 9 Note Off - Duracao: 38760 Nota: C1 Vol.: 49
Chanel 9 Note On - Duracao: 38760 Nota: C1 Vol.: 59
Chanel 6 Note Off - Duracao: 38820 Nota: C1 Vol.: 51
Chanel 6 Note On - Duracao: 38820 Nota: C1 Vol.: 48
Chanel 9 Note Off - Duracao: 38880 Nota: C1 Vol.: 59
Chanel 9 Note On - Duracao: 38880 Nota: C1 Vol.: 63
Chanel 2 Note Off - Duracao: 38940 Nota: C1 Vol.: 78
Chanel 2 Note On - Duracao: 38940 Nota: C1 Vol.: 73
Chanel 9 Note Off - Duracao: 39000 Nota: C1 Vol.: 63
Chanel 9 Note On - Duracao: 39000 Nota: C1 Vol.: 54
Chanel 6 Note Off - Duracao: 39060 Nota: C1 Vol.: 48
Chanel 6 Note On - Duracao: 39060 Nota: C1 Vol.: 54
Chanel 9 Note Off - Duracao: 39240 Nota: C1 Vol.: 54
Chanel 9 Note On - Duracao: 39240 Nota: C1 Vol.: 69
Chanel 6 Note Off - Duracao: 39300 Nota: C1 Vol.: 54
Chanel 6 Note On - Duracao: 39300 Nota: C1 Vol.: 40
Chanel 5 Note Off - Duracao: 39360 Nota: C1 Vol.: 48
Chanel 5 Note On - Duracao: 39360 Nota: C1 Vol.: 48
Chanel 9 Note Off - Duracao: 39360 Nota: C1 Vol.: 69
Chanel 9 Note On - Duracao: 39360 Nota: C1 Vol.: 69
Chanel 10 Note Off - Duracao: 39360 Nota: C1 Vol.: 55
Chanel 10 Note On - Duracao: 39360 Nota: C1 Vol.: 55
Chanel 2 Note Off - Duracao: 39420 Nota: C1 Vol.: 73
Chanel 2 Note On - Duracao: 39420 Nota: C1 Vol.: 76
Chanel 9 Note Off - Duracao: 39480 Nota: C1 Vol.: 69
Chanel 9 Note On - Duracao: 39480 Nota: C1 Vol.: 68
Chanel 9 Note Off - Duracao: 39600 Nota: C1 Vol.: 68
Chanel 9 Note On - Duracao: 39600 Nota: C1 Vol.: 67
Chanel 2 Note Off - Duracao: 39660 Nota: C1 Vol.: 76
Chanel 2 Note On - Duracao: 39660 Nota: C1 Vol.: 80
Chanel 4 Note Off - Duracao: 39660 Nota: C1 Vol.: 68
Chanel 4 Note On - Duracao: 39660 Nota: C1 Vol.: 74
Chanel 1 Note Off - Duracao: 39720 Nota: C1 Vol.: 49
Chanel 1 Note On - Duracao: 39720 Nota: C1 Vol.: 61
Chanel 9 Note Off - Duracao: 39720 Nota: C1 Vol.: 67
Chanel 9 Note On - Duracao: 39720 Nota: C1 Vol.: 61
Chanel 2 Note Off - Duracao: 39900 Nota: C1 Vol.: 80
Chanel 2 Note On - Duracao: 39900 Nota: C1 Vol.: 83
Chanel 9 Note Off - Duracao: 39960 Nota: C1 Vol.: 61
Chanel 9 Note On - Duracao: 39960 Nota: C1 Vol.: 59
Chanel 2 Note Off - Duracao: 40140 Nota: C1 Vol.: 83
Chanel 2 Note On - Duracao: 40140 Nota: C1 Vol.: 91
Chanel 1 Note Off - Duracao: 40200 Nota: C1 Vol.: 61
Chanel 1 Note On - Duracao: 40200 Nota: C1 Vol.: 83
Chanel 9 Note Off - Duracao: 40200 Nota: C1 Vol.: 59
Chanel 9 Note On - Duracao: 40200 Nota: C1 Vol.: 60
Chanel 2 Note Off - Duracao: 40260 Nota: C1 Vol.: 91
Chanel 2 Note On - Duracao: 40260 Nota: C1 Vol.: 90
Chanel 6 Note Off - Duracao: 40260 Nota: C1 Vol.: 40
Chanel 6 Note On - Duracao: 40260 Nota: C1 Vol.: 40
Chanel 1 Note Off - Duracao: 40320 Nota: C1 Vol.: 83
Chanel 1 Note On - Duracao: 40320 Nota: C1 Vol.: 97
Chanel 5 Note Off - Duracao: 40320 Nota: C1 Vol.: 48
Chanel 5 Note On - Duracao: 40320 Nota: C1 Vol.: 54
Chanel 10 Note Off - Duracao: 40320 Nota: C1 Vol.: 55
Chanel 10 Note On - Duracao: 40320 Nota: C1 Vol.: 49
Chanel 1 Note Off - Duracao: 40380 Nota: C1 Vol.: 97
Chanel 1 Note On - Duracao: 40380 Nota: C1 Vol.: 96
Chanel 2 Note Off - Duracao: 40380 Nota: C1 Vol.: 90
Chanel 2 Note On - Duracao: 40380 Nota: C1 Vol.: 87
Chanel 1 Note Off - Duracao: 40440 Nota: C1 Vol.: 96
Chanel 1 Note On - Duracao: 40440 Nota: C1 Vol.: 90
Chanel 9 Note Off - Duracao: 40440 Nota: C1 Vol.: 60
Chanel 9 Note On - Duracao: 40440 Nota: C1 Vol.: 50
Chanel 1 Note Off - Duracao: 40560 Nota: C1 Vol.: 90
Chanel 1 Note On - Duracao: 40560 Nota: C1 Vol.: 89
Chanel 2 Note Off - Duracao: 40620 Nota: C1 Vol.: 87
Chanel 2 Note On - Duracao: 40620 Nota: C1 Vol.: 90
Chanel 4 Note Off - Duracao: 40620 Nota: C1 Vol.: 74
Chanel 4 Note On - Duracao: 40620 Nota: C1 Vol.: 76
Chanel 7 Note Off - Duracao: 40620 Nota: C1 Vol.: 60
Chanel 7 Note On - Duracao: 40620 Nota: C1 Vol.: 59
Chanel 1 Note Off - Duracao: 40680 Nota: C1 Vol.: 89
Chanel 1 Note On - Duracao: 40680 Nota: C1 Vol.: 85
Chanel 2 Note Off - Duracao: 40740 Nota: C1 Vol.: 90
Chanel 2 Note On - Duracao: 40740 Nota: C1 Vol.: 91
Chanel 1 Note Off - Duracao: 40800 Nota: C1 Vol.: 85
Chanel 1 Note On - Duracao: 40800 Nota: C1 Vol.: 84
Chanel 5 Note Off - Duracao: 40800 Nota: C1 Vol.: 54
Chanel 5 Note On - Duracao: 40800 Nota: C1 Vol.: 60
Chanel 2 Note Off - Duracao: 40860 Nota: C1 Vol.: 91
Chanel 2 Note On - Duracao: 40860 Nota: C1 Vol.: 92
Chanel 9 Note Off - Duracao: 40920 Nota: C1 Vol.: 50
Chanel 9 Note On - Duracao: 40920 Nota: C1 Vol.: 51
Chanel 2 Note Off - Duracao: 40980 Nota: C1 Vol.: 92
Chanel 2 Note On - Duracao: 40980 Nota: C1 Vol.: 91
Chanel 1 Note Off - Duracao: 41040 Nota: C1 Vol.: 84
Chanel 1 Note On - Duracao: 41040 Nota: C1 Vol.: 82
Chanel 2 Note Off - Duracao: 41100 Nota: C1 Vol.: 91
Chanel 2 Note On - Duracao: 41100 Nota: C1 Vol.: 89
Chanel 2 Note Off - Duracao: 41220 Nota: C1 Vol.: 89
Chanel 2 Note On - Duracao: 41220 Nota: C1 Vol.: 69
Chanel 1 Note Off - Duracao: 41280 Nota: C1 Vol.: 82
Chanel 1 Note On - Duracao: 41280 Nota: C1 Vol.: 85
Chanel 5 Note Off - Duracao: 41280 Nota: C1 Vol.: 60
Chanel 5 Note On - Duracao: 41280 Nota: C1 Vol.: 50
Chanel 10 Note Off - Duracao: 41280 Nota: C1 Vol.: 49
Chanel 10 Note On - Duracao: 41280 Nota: C1 Vol.: 48
Chanel 9 Note Off - Duracao: 41400 Nota: C1 Vol.: 51
Chanel 9 Note On - Duracao: 41400 Nota: C1 Vol.: 52
Chanel 2 Note Off - Duracao: 41460 Nota: C1 Vol.: 69
Chanel 2 Note On - Duracao: 41460 Nota: C1 Vol.: 58
Chanel 1 Note Off - Duracao: 41520 Nota: C1 Vol.: 85
Chanel 1 Note On - Duracao: 41520 Nota: C1 Vol.: 82
Chanel 4 Note Off - Duracao: 41580 Nota: C1 Vol.: 76
Chanel 4 Note On - Duracao: 41580 Nota: C1 Vol.: 76
Chanel 1 Note Off - Duracao: 41760 Nota: C1 Vol.: 82
Chanel 1 Note On - Duracao: 41760 Nota: C1 Vol.: 85
Chanel 1 Note Off - Duracao: 41880 Nota: C1 Vol.: 85
Chanel 1 Note On - Duracao: 41880 Nota: C1 Vol.: 87
Chanel 2 Note Off - Duracao: 41940 Nota: C1 Vol.: 58
Chanel 2 Note On - Duracao: 41940 Nota: C1 Vol.: 56
Chanel 3 Note Off - Duracao: 41940 Nota: C1 Vol.: 42
Chanel 3 Note On - Duracao: 41940 Nota: C1 Vol.: 47
Chanel 1 Note Off - Duracao: 42000 Nota: C1 Vol.: 87
Chanel 1 Note On - Duracao: 42000 Nota: C1 Vol.: 91
Chanel 1 Note Off - Duracao: 42120 Nota: C1 Vol.: 91
Chanel 1 Note On - Duracao: 42120 Nota: C1 Vol.: 88
Chanel 2 Note Off - Duracao: 42180 Nota: C1 Vol.: 56
Chanel 2 Note On - Duracao: 42180 Nota: C1 Vol.: 52
Chanel 6 Note Off - Duracao: 42180 Nota: C1 Vol.: 40
Chanel 6 Note On - Duracao: 42180 Nota: C1 Vol.: 40
Chanel 1 Note Off - Duracao: 42240 Nota: C1 Vol.: 88
Chanel 1 Note On - Duracao: 42240 Nota: C1 Vol.: 93
Chanel 5 Note Off - Duracao: 42240 Nota: C1 Vol.: 50
Chanel 5 Note On - Duracao: 42240 Nota: C1 Vol.: 54
Chanel 8 Note Off - Duracao: 42240 Nota: C1 Vol.: 54
Chanel 8 Note On - Duracao: 42240 Nota: C1 Vol.: 56
Chanel 1 Note Off - Duracao: 42360 Nota: C1 Vol.: 93
Chanel 1 Note On - Duracao: 42360 Nota: C1 Vol.: 88
Chanel 9 Note Off - Duracao: 42360 Nota: C1 Vol.: 52
Chanel 9 Note On - Duracao: 42360 Nota: C1 Vol.: 46
Chanel 4 Note Off - Duracao: 42540 Nota: C1 Vol.: 76
Chanel 4 Note On - Duracao: 42540 Nota: C1 Vol.: 76
Chanel 1 Note Off - Duracao: 42600 Nota: C1 Vol.: 88
Chanel 1 Note On - Duracao: 42600 Nota: C1 Vol.: 96
Chanel 2 Note Off - Duracao: 42660 Nota: C1 Vol.: 52
Chanel 2 Note On - Duracao: 42660 Nota: C1 Vol.: 56
Chanel 1 Note Off - Duracao: 42720 Nota: C1 Vol.: 96
Chanel 1 Note On - Duracao: 42720 Nota: C1 Vol.: 96
Chanel 1 Note Off - Duracao: 42840 Nota: C1 Vol.: 96
Chanel 1 Note On - Duracao: 42840 Nota: C1 Vol.: 95
Chanel 2 Note Off - Duracao: 42900 Nota: C1 Vol.: 56
Chanel 2 Note On - Duracao: 42900 Nota: C1 Vol.: 53
Chanel 1 Note Off - Duracao: 42960 Nota: C1 Vol.: 95
Chanel 1 Note On - Duracao: 42960 Nota: C1 Vol.: 98
Chanel 1 Note Off - Duracao: 43020 Nota: C1 Vol.: 98
Chanel 1 Note On - Duracao: 43020 Nota: C1 Vol.: 97
Chanel 1 Note Off - Duracao: 43080 Nota: C1 Vol.: 97
Chanel 1 Note On - Duracao: 43080 Nota: C1 Vol.: 99
Chanel 1 Note Off - Duracao: 43140 Nota: C1 Vol.: 99
Chanel 1 Note On - Duracao: 43140 Nota: C1 Vol.: 100
Chanel 2 Note Off - Duracao: 43140 Nota: C1 Vol.: 53
Chanel 2 Note On - Duracao: 43140 Nota: C1 Vol.: 57
Chanel 6 Note Off - Duracao: 43140 Nota: C1 Vol.: 40
Chanel 6 Note On - Duracao: 43140 Nota: C1 Vol.: 53
Chanel 1 Note Off - Duracao: 43200 Nota: C1 Vol.: 100
Chanel 1 Note On - Duracao: 43200 Nota: C1 Vol.: 99
Chanel 5 Note Off - Duracao: 43200 Nota: C1 Vol.: 54
Chanel 5 Note On - Duracao: 43200 Nota: C1 Vol.: 55
Chanel 10 Note Off - Duracao: 43200 Nota: C1 Vol.: 48
Chanel 10 Note On - Duracao: 43200 Nota: C1 Vol.: 50
Chanel 2 Note Off - Duracao: 43260 Nota: C1 Vol.: 57
Chanel 2 Note On - Duracao: 43260 Nota: C1 Vol.: 63
Chanel 1 Note Off - Duracao: 43320 Nota: C1 Vol.: 99
Chanel 1 Note On - Duracao: 43320 Nota: C1 Vol.: 97
Chanel 9 Note Off - Duracao: 43320 Nota: C1 Vol.: 46
Chanel 9 Note On - Duracao: 43320 Nota: C1 Vol.: 52
Chanel 2 Note Off - Duracao: 43380 Nota: C1 Vol.: 63
Chanel 2 Note On - Duracao: 43380 Nota: C1 Vol.: 61
Chanel 1 Note Off - Duracao: 43440 Nota: C1 Vol.: 97
Chanel 1 Note On - Duracao: 43440 Nota: C1 Vol.: 93
Chanel 2 Note Off - Duracao: 43500 Nota: C1 Vol.: 61
Chanel 2 Note On - Duracao: 43500 Nota: C1 Vol.: 66
Chanel 4 Note Off - Duracao: 43500 Nota: C1 Vol.: 76
Chanel 4 Note On - Duracao: 43500 Nota: C1 Vol.: 77
Chanel 1 Note Off - Duracao: 43560 Nota: C1 Vol.: 93
Chanel 1 Note On - Duracao: 43560 Nota: C1 Vol.: 95
Chanel 2 Note Off - Duracao: 43620 Nota: C1 Vol.: 66
Chanel 2 Note On - Duracao: 43620 Nota: C1 Vol.: 55
Chanel 6 Note Off - Duracao: 43620 Nota: C1 Vol.: 53
Chanel 6 Note On - Duracao: 43620 Nota: C1 Vol.: 60
Chanel 1 Note Off - Duracao: 43680 Nota: C1 Vol.: 95
Chanel 1 Note On - Duracao: 43680 Nota: C1 Vol.: 95
Chanel 5 Note Off - Duracao: 43680 Nota: C1 Vol.: 55
Chanel 5 Note On - Duracao: 43680 Nota: C1 Vol.: 57
Chanel 1 Note Off - Duracao: 43800 Nota: C1 Vol.: 95
Chanel 1 Note On - Duracao: 43800 Nota: C1 Vol.: 99
Chanel 1 Note Off - Duracao: 43860 Nota: C1 Vol.: 99
Chanel 1 Note On - Duracao: 43860 Nota: C1 Vol.: 98
Chanel 2 Note Off - Duracao: 43860 Nota: C1 Vol.: 55
Chanel 2 Note On - Duracao: 43860 Nota: C1 Vol.: 57
Chanel 3 Note Off - Duracao: 43860 Nota: C1 Vol.: 47
Chanel 3 Note On - Duracao: 43860 Nota: C1 Vol.: 43
Chanel 6 Note Off - Duracao: 43860 Nota: C1 Vol.: 60
Chanel 6 Note On - Duracao: 43860 Nota: C1 Vol.: 63
Chanel 1 Note Off - Duracao: 43920 Nota: C1 Vol.: 98
Chanel 1 Note On - Duracao: 43920 Nota: C1 Vol.: 99
Chanel 1 Note Off - Duracao: 43980 Nota: C1 Vol.: 99
Chanel 1 Note On - Duracao: 43980 Nota: C1 Vol.: 99
Chanel 1 Note Off - Duracao: 44040 Nota: C1 Vol.: 99
Chanel 1 Note On - Duracao: 44040 Nota: C1 Vol.: 99
Chanel 1 Note Off - Duracao: 44100 Nota: C1 Vol.: 99
Chanel 1 Note On - Duracao: 44100 Nota: C1 Vol.: 100
Chanel 2 Note Off - Duracao: 44100 Nota: C1 Vol.: 57
Chanel 2 Note On - Duracao: 44100 Nota: C1 Vol.: 60
Chanel 6 Note Off - Duracao: 44100 Nota: C1 Vol.: 63
Chanel 6 Note On - Duracao: 44100 Nota: C1 Vol.: 64
Chanel 1 Note Off - Duracao: 44160 Nota: C1 Vol.: 100
Chanel 1 Note On - Duracao: 44160 Nota: C1 Vol.: 100
Chanel 5 Note Off - Duracao: 44160 Nota: C1 Vol.: 57
Chanel 5 Note On - Duracao: 44160 Nota: C1 Vol.: 48
Chanel 10 Note Off - Duracao: 44160 Nota: C1 Vol.: 50
Chanel 10 Note On - Duracao: 44160 Nota: C1 Vol.: 54
Chanel 1 Note Off - Duracao: 44220 Nota: C1 Vol.: 100
Chanel 1 Note On - Duracao: 44220 Nota: C1 Vol.: 99
Chanel 9 Note Off - Duracao: 44280 Nota: C1 Vol.: 52
Chanel 9 Note On - Duracao: 44280 Nota: C1 Vol.: 52
Chanel 1 Note Off - Duracao: 44340 Nota: C1 Vol.: 99
Chanel 1 Note On - Duracao: 44340 Nota: C1 Vol.: 97
Chanel 2 Note Off - Duracao: 44340 Nota: C1 Vol.: 60
Chanel 2 Note On - Duracao: 44340 Nota: C1 Vol.: 66
Chanel 6 Note Off - Duracao: 44340 Nota: C1 Vol.: 64
Chanel 6 Note On - Duracao: 44340 Nota: C1 Vol.: 62
Chanel 1 Note Off - Duracao: 44460 Nota: C1 Vol.: 97
Chanel 1 Note On - Duracao: 44460 Nota: C1 Vol.: 98
Chanel 4 Note Off - Duracao: 44460 Nota: C1 Vol.: 77
Chanel 4 Note On - Duracao: 44460 Nota: C1 Vol.: 78
Chanel 7 Note Off - Duracao: 44460 Nota: C1 Vol.: 59
Chanel 7 Note On - Duracao: 44460 Nota: C1 Vol.: 60
Chanel 1 Note Off - Duracao: 44520 Nota: C1 Vol.: 98
Chanel 1 Note On - Duracao: 44520 Nota: C1 Vol.: 97
Chanel 2 Note Off - Duracao: 44580 Nota: C1 Vol.: 66
Chanel 2 Note On - Duracao: 44580 Nota: C1 Vol.: 69
Chanel 6 Note Off - Duracao: 44580 Nota: C1 Vol.: 62
Chanel 6 Note On - Duracao: 44580 Nota: C1 Vol.: 63
Chanel 1 Note Off - Duracao: 44640 Nota: C1 Vol.: 97
Chanel 1 Note On - Duracao: 44640 Nota: C1 Vol.: 98
Chanel 1 Note Off - Duracao: 44700 Nota: C1 Vol.: 98
Chanel 1 Note On - Duracao: 44700 Nota: C1 Vol.: 98
Chanel 1 Note Off - Duracao: 44820 Nota: C1 Vol.: 98
Chanel 1 Note On - Duracao: 44820 Nota: C1 Vol.: 98
Chanel 2 Note Off - Duracao: 44820 Nota: C1 Vol.: 69
Chanel 2 Note On - Duracao: 44820 Nota: C1 Vol.: 81
Chanel 6 Note Off - Duracao: 44820 Nota: C1 Vol.: 63
Chanel 6 Note On - Duracao: 44820 Nota: C1 Vol.: 63
Chanel 1 Note Off - Duracao: 44940 Nota: C1 Vol.: 98
Chanel 1 Note On - Duracao: 44940 Nota: C1 Vol.: 100
Chanel 2 Note Off - Duracao: 44940 Nota: C1 Vol.: 81
Chanel 2 Note On - Duracao: 44940 Nota: C1 Vol.: 81
Chanel 1 Note Off - Duracao: 45000 Nota: C1 Vol.: 100
Chanel 1 Note On - Duracao: 45000 Nota: C1 Vol.: 98
Chanel 2 Note Off - Duracao: 45060 Nota: C1 Vol.: 81
Chanel 2 Note On - Duracao: 45060 Nota: C1 Vol.: 75
Chanel 6 Note Off - Duracao: 45060 Nota: C1 Vol.: 63
Chanel 6 Note On - Duracao: 45060 Nota: C1 Vol.: 64
Chanel 1 Note Off - Duracao: 45120 Nota: C1 Vol.: 98
Chanel 1 Note On - Duracao: 45120 Nota: C1 Vol.: 100
Chanel 5 Note Off - Duracao: 45120 Nota: C1 Vol.: 48
Chanel 5 Note On - Duracao: 45120 Nota: C1 Vol.: 44
Chanel 10 Note Off - Duracao: 45120 Nota: C1 Vol.: 54
Chanel 10 Note On - Duracao: 45120 Nota: C1 Vol.: 49
Chanel 1 Note Off - Duracao: 45180 Nota: C1 Vol.: 100
Chanel 1 Note On - Duracao: 45180 Nota: C1 Vol.: 99
Chanel 9 Note Off - Duracao: 45240 Nota: C1 Vol.: 52
Chanel 9 Note On - Duracao: 45240 Nota: C1 Vol.: 48
Chanel 1 Note Off - Duracao: 45300 Nota: C1 Vol.: 99
Chanel 1 Note On - Duracao: 45300 Nota: C1 Vol.: 98
Chanel 2 Note Off - Duracao: 45300 Nota: C1 Vol.: 75
Chanel 2 Note On - Duracao: 45300 Nota: C1 Vol.: 69
Chanel 6 Note Off - Duracao: 45300 Nota: C1 Vol.: 64
Chanel 6 Note On - Duracao: 45300 Nota: C1 Vol.: 49
Chanel 1 Note Off - Duracao: 45420 Nota: C1 Vol.: 98
Chanel 1 Note On - Duracao: 45420 Nota: C1 Vol.: 97
Chanel 4 Note Off - Duracao: 45420 Nota: C1 Vol.: 78
Chanel 4 Note On - Duracao: 45420 Nota: C1 Vol.: 78
Chanel 1 Note Off - Duracao: 45540 Nota: C1 Vol.: 97
Chanel 1 Note On - Duracao: 45540 Nota: C1 Vol.: 98
Chanel 2 Note Off - Duracao: 45540 Nota: C1 Vol.: 69
Chanel 2 Note On - Duracao: 45540 Nota: C1 Vol.: 68
Chanel 1 Note Off - Duracao: 45660 Nota: C1 Vol.: 98
Chanel 1 Note On - Duracao: 45660 Nota: C1 Vol.: 98
Chanel 1 Note Off - Duracao: 45780 Nota: C1 Vol.: 98
Chanel 1 Note On - Duracao: 45780 Nota: C1 Vol.: 98
Chanel 2 Note Off - Duracao: 45780 Nota: C1 Vol.: 68
Chanel 2 Note On - Duracao: 45780 Nota: C1 Vol.: 66
Chanel 1 Note Off - Duracao: 45840 Nota: C1 Vol.: 98
Chanel 1 Note On - Duracao: 45840 Nota: C1 Vol.: 95
Chanel 1 Note Off - Duracao: 45900 Nota: C1 Vol.: 95
Chanel 1 Note On - Duracao: 45900 Nota: C1 Vol.: 95
Chanel 1 Note Off - Duracao: 45960 Nota: C1 Vol.: 95
Chanel 1 Note On - Duracao: 45960 Nota: C1 Vol.: 75
Chanel 2 Note Off - Duracao: 46020 Nota: C1 Vol.: 66
Chanel 2 Note On - Duracao: 46020 Nota: C1 Vol.: 66
Chanel 5 Note Off - Duracao: 46080 Nota: C1 Vol.: 44
Chanel 5 Note On - Duracao: 46080 Nota: C1 Vol.: 44
Chanel 8 Note Off - Duracao: 46080 Nota: C1 Vol.: 56
Chanel 8 Note On - Duracao: 46080 Nota: C1 Vol.: 59
Chanel 10 Note Off - Duracao: 46080 Nota: C1 Vol.: 49
Chanel 10 Note On - Duracao: 46080 Nota: C1 Vol.: 52
Chanel 1 Note Off - Duracao: 46200 Nota: C1 Vol.: 75
Chanel 1 Note On - Duracao: 46200 Nota: C1 Vol.: 53
Chanel 9 Note Off - Duracao: 46200 Nota: C1 Vol.: 48
Chanel 9 Note On - Duracao: 46200 Nota: C1 Vol.: 50
Chanel 2 Note Off - Duracao: 46260 Nota: C1 Vol.: 66
Chanel 2 Note On - Duracao: 46260 Nota: C1 Vol.: 60
Chanel 6 Note Off - Duracao: 46260 Nota: C1 Vol.: 49
Chanel 6 Note On - Duracao: 46260 Nota: C1 Vol.: 55
Chanel 4 Note Off - Duracao: 46380 Nota: C1 Vol.: 78
Chanel 4 Note On - Duracao: 46380 Nota: C1 Vol.: 76
Chanel 2 Note Off - Duracao: 46500 Nota: C1 Vol.: 60
Chanel 2 Note On - Duracao: 46500 Nota: C1 Vol.: 62
Chanel 1 Note Off - Duracao: 46680 Nota: C1 Vol.: 53
Chanel 1 Note On - Duracao: 46680 Nota: C1 Vol.: 48
Chanel 2 Note Off - Duracao: 46740 Nota: C1 Vol.: 62
Chanel 2 Note On - Duracao: 46740 Nota: C1 Vol.: 40
Chanel 5 Note Off - Duracao: 47040 Nota: C1 Vol.: 44
Chanel 5 Note On - Duracao: 47040 Nota: C1 Vol.: 44
Chanel 10 Note Off - Duracao: 47040 Nota: C1 Vol.: 52
Chanel 10 Note On - Duracao: 47040 Nota: C1 Vol.: 67
Chanel 1 Note Off - Duracao: 47160 Nota: C1 Vol.: 48
Chanel 1 Note On - Duracao: 47160 Nota: C1 Vol.: 48
Chanel 9 Note Off - Duracao: 47160 Nota: C1 Vol.: 50
Chanel 9 Note On - Duracao: 47160 Nota: C1 Vol.: 59
Chanel 6 Note Off - Duracao: 47220 Nota: C1 Vol.: 55
Chanel 6 Note On - Duracao: 47220 Nota: C1 Vol.: 56
Chanel 10 Note Off - Duracao: 47280 Nota: C1 Vol.: 67
Chanel 10 Note On - Duracao: 47280 Nota: C1 Vol.: 66
Chanel 4 Note Off - Duracao: 47340 Nota: C1 Vol.: 76
Chanel 4 Note On - Duracao: 47340 Nota: C1 Vol.: 75
Chanel 10 Note Off - Duracao: 47520 Nota: C1 Vol.: 66
Chanel 10 Note On - Duracao: 47520 Nota: C1 Vol.: 59
Chanel 1 Note Off - Duracao: 47640 Nota: C1 Vol.: 48
Chanel 1 Note On - Duracao: 47640 Nota: C1 Vol.: 55
Chanel 9 Note Off - Duracao: 47640 Nota: C1 Vol.: 59
Chanel 9 Note On - Duracao: 47640 Nota: C1 Vol.: 54
Chanel 2 Note Off - Duracao: 47700 Nota: C1 Vol.: 40
Chanel 2 Note On - Duracao: 47700 Nota: C1 Vol.: 40
Chanel 3 Note Off - Duracao: 47700 Nota: C1 Vol.: 43
Chanel 3 Note On - Duracao: 47700 Nota: C1 Vol.: 42
Chanel 10 Note Off - Duracao: 47760 Nota: C1 Vol.: 59
Chanel 10 Note On - Duracao: 47760 Nota: C1 Vol.: 51
Chanel 1 Note Off - Duracao: 47880 Nota: C1 Vol.: 55
Chanel 1 Note On - Duracao: 47880 Nota: C1 Vol.: 60
Chanel 5 Note Off - Duracao: 48000 Nota: C1 Vol.: 44
Chanel 5 Note On - Duracao: 48000 Nota: C1 Vol.: 47
Chanel 1 Note Off - Duracao: 48120 Nota: C1 Vol.: 60
Chanel 1 Note On - Duracao: 48120 Nota: C1 Vol.: 67
Chanel 1 Note Off - Duracao: 48240 Nota: C1 Vol.: 67
Chanel 1 Note On - Duracao: 48240 Nota: C1 Vol.: 70
Chanel 4 Note Off - Duracao: 48300 Nota: C1 Vol.: 75
Chanel 4 Note On - Duracao: 48300 Nota: C1 Vol.: 75
Chanel 7 Note Off - Duracao: 48300 Nota: C1 Vol.: 60
Chanel 7 Note On - Duracao: 48300 Nota: C1 Vol.: 63
Chanel 1 Note Off - Duracao: 48360 Nota: C1 Vol.: 70
Chanel 1 Note On - Duracao: 48360 Nota: C1 Vol.: 68
Chanel 1 Note Off - Duracao: 48480 Nota: C1 Vol.: 68
Chanel 1 Note On - Duracao: 48480 Nota: C1 Vol.: 66
Chanel 1 Note Off - Duracao: 48600 Nota: C1 Vol.: 66
Chanel 1 Note On - Duracao: 48600 Nota: C1 Vol.: 65
Chanel 9 Note Off - Duracao: 48600 Nota: C1 Vol.: 54
Chanel 9 Note On - Duracao: 48600 Nota: C1 Vol.: 62
Chanel 2 Note Off - Duracao: 48660 Nota: C1 Vol.: 40
Chanel 2 Note On - Duracao: 48660 Nota: C1 Vol.: 56
Chanel 10 Note Off - Duracao: 48720 Nota: C1 Vol.: 51
Chanel 10 Note On - Duracao: 48720 Nota: C1 Vol.: 58
Chanel 4 Note Off - Duracao: 48780 Nota: C1 Vol.: 75
Chanel 4 Note On - Duracao: 48780 Nota: C1 Vol.: 65
Chanel 1 Note Off - Duracao: 48840 Nota: C1 Vol.: 65
Chanel 1 Note On - Duracao: 48840 Nota: C1 Vol.: 66
Chanel 2 Note Off - Duracao: 48900 Nota: C1 Vol.: 56
Chanel 2 Note On - Duracao: 48900 Nota: C1 Vol.: 49
Chanel 5 Note Off - Duracao: 48960 Nota: C1 Vol.: 47
Chanel 5 Note On - Duracao: 48960 Nota: C1 Vol.: 52
Chanel 1 Note Off - Duracao: 49080 Nota: C1 Vol.: 66
Chanel 1 Note On - Duracao: 49080 Nota: C1 Vol.: 70
Chanel 9 Note Off - Duracao: 49080 Nota: C1 Vol.: 62
Chanel 9 Note On - Duracao: 49080 Nota: C1 Vol.: 70
Chanel 2 Note Off - Duracao: 49140 Nota: C1 Vol.: 49
Chanel 2 Note On - Duracao: 49140 Nota: C1 Vol.: 42
Chanel 6 Note Off - Duracao: 49140 Nota: C1 Vol.: 56
Chanel 6 Note On - Duracao: 49140 Nota: C1 Vol.: 60
Chanel 10 Note Off - Duracao: 49200 Nota: C1 Vol.: 58
Chanel 10 Note On - Duracao: 49200 Nota: C1 Vol.: 60
Chanel 1 Note Off - Duracao: 49320 Nota: C1 Vol.: 70
Chanel 1 Note On - Duracao: 49320 Nota: C1 Vol.: 91
Chanel 9 Note Off - Duracao: 49320 Nota: C1 Vol.: 70
Chanel 9 Note On - Duracao: 49320 Nota: C1 Vol.: 72
Chanel 2 Note Off - Duracao: 49380 Nota: C1 Vol.: 42
Chanel 2 Note On - Duracao: 49380 Nota: C1 Vol.: 41
Chanel 1 Note Off - Duracao: 49440 Nota: C1 Vol.: 91
Chanel 1 Note On - Duracao: 49440 Nota: C1 Vol.: 97
Chanel 1 Note Off - Duracao: 49500 Nota: C1 Vol.: 97
Chanel 1 Note On - Duracao: 49500 Nota: C1 Vol.: 93
Chanel 1 Note Off - Duracao: 49620 Nota: C1 Vol.: 93
Chanel 1 Note On - Duracao: 49620 Nota: C1 Vol.: 84
Chanel 2 Note Off - Duracao: 49620 Nota: C1 Vol.: 41
Chanel 2 Note On - Duracao: 49620 Nota: C1 Vol.: 44
Chanel 3 Note Off - Duracao: 49620 Nota: C1 Vol.: 42
Chanel 3 Note On - Duracao: 49620 Nota: C1 Vol.: 40
Chanel 10 Note Off - Duracao: 49680 Nota: C1 Vol.: 60
Chanel 10 Note On - Duracao: 49680 Nota: C1 Vol.: 60
Chanel 1 Note Off - Duracao: 49740 Nota: C1 Vol.: 84
Chanel 1 Note On - Duracao: 49740 Nota: C1 Vol.: 79
Chanel 4 Note Off - Duracao: 49740 Nota: C1 Vol.: 65
Chanel 4 Note On - Duracao: 49740 Nota: C1 Vol.: 41
Chanel 9 Note Off - Duracao: 49800 Nota: C1 Vol.: 72
Chanel 9 Note On - Duracao: 49800 Nota: C1 Vol.: 69
Chanel 1 Note Off - Duracao: 49860 Nota: C1 Vol.: 79
Chanel 1 Note On - Duracao: 49860 Nota: C1 Vol.: 70
Chanel 2 Note Off - Duracao: 49860 Nota: C1 Vol.: 44
Chanel 2 Note On - Duracao: 49860 Nota: C1 Vol.: 54
Chanel 5 Note Off - Duracao: 49920 Nota: C1 Vol.: 52
Chanel 5 Note On - Duracao: 49920 Nota: C1 Vol.: 69
Chanel 8 Note Off - Duracao: 49920 Nota: C1 Vol.: 59
Chanel 8 Note On - Duracao: 49920 Nota: C1 Vol.: 59
Chanel 1 Note Off - Duracao: 50100 Nota: C1 Vol.: 70
Chanel 1 Note On - Duracao: 50100 Nota: C1 Vol.: 67
Chanel 2 Note Off - Duracao: 50100 Nota: C1 Vol.: 54
Chanel 2 Note On - Duracao: 50100 Nota: C1 Vol.: 60
Chanel 5 Note Off - Duracao: 50160 Nota: C1 Vol.: 69
Chanel 5 Note On - Duracao: 50160 Nota: C1 Vol.: 69
Chanel 10 Note Off - Duracao: 50160 Nota: C1 Vol.: 60
Chanel 10 Note On - Duracao: 50160 Nota: C1 Vol.: 69
Chanel 9 Note Off - Duracao: 50280 Nota: C1 Vol.: 69
Chanel 9 Note On - Duracao: 50280 Nota: C1 Vol.: 56
Chanel 1 Note Off - Duracao: 50340 Nota: C1 Vol.: 67
Chanel 1 Note On - Duracao: 50340 Nota: C1 Vol.: 68
Chanel 2 Note Off - Duracao: 50340 Nota: C1 Vol.: 60
Chanel 2 Note On - Duracao: 50340 Nota: C1 Vol.: 54
Chanel 5 Note Off - Duracao: 50400 Nota: C1 Vol.: 69
Chanel 5 Note On - Duracao: 50400 Nota: C1 Vol.: 55
Chanel 10 Note Off - Duracao: 50400 Nota: C1 Vol.: 69
Chanel 10 Note On - Duracao: 50400 Nota: C1 Vol.: 74
Chanel 10 Note Off - Duracao: 50520 Nota: C1 Vol.: 74
Chanel 10 Note On - Duracao: 50520 Nota: C1 Vol.: 83
Chanel 1 Note Off - Duracao: 50580 Nota: C1 Vol.: 68
Chanel 1 Note On - Duracao: 50580 Nota: C1 Vol.: 75
Chanel 10 Note Off - Duracao: 50640 Nota: C1 Vol.: 83
Chanel 10 Note On - Duracao: 50640 Nota: C1 Vol.: 72
Chanel 1 Note Off - Duracao: 50820 Nota: C1 Vol.: 75
Chanel 1 Note On - Duracao: 50820 Nota: C1 Vol.: 77
Chanel 5 Note Off - Duracao: 50880 Nota: C1 Vol.: 55
Chanel 5 Note On - Duracao: 50880 Nota: C1 Vol.: 54
Chanel 10 Note Off - Duracao: 50880 Nota: C1 Vol.: 72
Chanel 10 Note On - Duracao: 50880 Nota: C1 Vol.: 64
Chanel 1 Note Off - Duracao: 50940 Nota: C1 Vol.: 77
Chanel 1 Note On - Duracao: 50940 Nota: C1 Vol.: 71
Chanel 6 Note Off - Duracao: 51060 Nota: C1 Vol.: 60
Chanel 6 Note On - Duracao: 51060 Nota: C1 Vol.: 57
Chanel 1 Note Off - Duracao: 51180 Nota: C1 Vol.: 71
Chanel 1 Note On - Duracao: 51180 Nota: C1 Vol.: 65
Chanel 9 Note Off - Duracao: 51240 Nota: C1 Vol.: 56
Chanel 9 Note On - Duracao: 51240 Nota: C1 Vol.: 53
Chanel 10 Note Off - Duracao: 51360 Nota: C1 Vol.: 64
Chanel 10 Note On - Duracao: 51360 Nota: C1 Vol.: 44
Chanel 1 Note Off - Duracao: 51660 Nota: C1 Vol.: 65
Chanel 1 Note On - Duracao: 51660 Nota: C1 Vol.: 86
Chanel 1 Note Off - Duracao: 51780 Nota: C1 Vol.: 86
Chanel 1 Note On - Duracao: 51780 Nota: C1 Vol.: 90
Chanel 5 Note Off - Duracao: 51840 Nota: C1 Vol.: 54
Chanel 5 Note On - Duracao: 51840 Nota: C1 Vol.: 45
Chanel 1 Note Off - Duracao: 51900 Nota: C1 Vol.: 90
Chanel 1 Note On - Duracao: 51900 Nota: C1 Vol.: 88
Chanel 1 Note Off - Duracao: 52020 Nota: C1 Vol.: 88
Chanel 1 Note On - Duracao: 52020 Nota: C1 Vol.: 98
Chanel 1 Note Off - Duracao: 52080 Nota: C1 Vol.: 98
Chanel 1 Note On - Duracao: 52080 Nota: C1 Vol.: 98
Chanel 1 Note Off - Duracao: 52140 Nota: C1 Vol.: 98
Chanel 1 Note On - Duracao: 52140 Nota: C1 Vol.: 99
Chanel 7 Note Off - Duracao: 52140 Nota: C1 Vol.: 63
Chanel 7 Note On - Duracao: 52140 Nota: C1 Vol.: 64
Chanel 1 Note Off - Duracao: 52200 Nota: C1 Vol.: 99
Chanel 1 Note On - Duracao: 52200 Nota: C1 Vol.: 99
Chanel 9 Note Off - Duracao: 52200 Nota: C1 Vol.: 53
Chanel 9 Note On - Duracao: 52200 Nota: C1 Vol.: 43
Chanel 1 Note Off - Duracao: 52260 Nota: C1 Vol.: 99
Chanel 1 Note On - Duracao: 52260 Nota: C1 Vol.: 97
Chanel 2 Note Off - Duracao: 52260 Nota: C1 Vol.: 54
Chanel 2 Note On - Duracao: 52260 Nota: C1 Vol.: 61
Chanel 1 Note Off - Duracao: 52320 Nota: C1 Vol.: 97
Chanel 1 Note On - Duracao: 52320 Nota: C1 Vol.: 94
Chanel 1 Note Off - Duracao: 52440 Nota: C1 Vol.: 94
Chanel 1 Note On - Duracao: 52440 Nota: C1 Vol.: 64
Chanel 1 Note Off - Duracao: 52920 Nota: C1 Vol.: 64
Chanel 1 Note On - Duracao: 52920 Nota: C1 Vol.: 40
Chanel 6 Note Off - Duracao: 52980 Nota: C1 Vol.: 57
Chanel 6 Note On - Duracao: 52980 Nota: C1 Vol.: 80
Chanel 6 Note Off - Duracao: 53220 Nota: C1 Vol.: 80
Chanel 6 Note On - Duracao: 53220 Nota: C1 Vol.: 59
Chanel 10 Note Off - Duracao: 53280 Nota: C1 Vol.: 44
Chanel 10 Note On - Duracao: 53280 Nota: C1 Vol.: 52
Chanel 3 Note Off - Duracao: 53460 Nota: C1 Vol.: 40
Chanel 3 Note On - Duracao: 53460 Nota: C1 Vol.: 40
Chanel 4 Note Off - Duracao: 53580 Nota: C1 Vol.: 41
Chanel 4 Note On - Duracao: 53580 Nota: C1 Vol.: 41
Chanel 5 Note Off - Duracao: 53760 Nota: C1 Vol.: 45
Chanel 5 Note On - Duracao: 53760 Nota: C1 Vol.: 52
Chanel 8 Note Off - Duracao: 53760 Nota: C1 Vol.: 59
Chanel 8 Note On - Duracao: 53760 Nota: C1 Vol.: 63
Chanel 3 Note Off - Duracao: 53940 Nota: C1 Vol.: 40
Chanel 3 Note On - Duracao: 53940 Nota: C1 Vol.: 48
Chanel 3 Note Off - Duracao: 54060 Nota: C1 Vol.: 48
Chanel 3 Note On - Duracao: 54060 Nota: C1 Vol.: 44
Chanel 9 Note Off - Duracao: 54120 Nota: C1 Vol.: 43
Chanel 9 Note On - Duracao: 54120 Nota: C1 Vol.: 41
Chanel 2 Note Off - Duracao: 54180 Nota: C1 Vol.: 61
Chanel 2 Note On - Duracao: 54180 Nota: C1 Vol.: 63
Chanel 3 Note Off - Duracao: 54180 Nota: C1 Vol.: 44
Chanel 3 Note On - Duracao: 54180 Nota: C1 Vol.: 43
Chanel 6 Note Off - Duracao: 54180 Nota: C1 Vol.: 59
Chanel 6 Note On - Duracao: 54180 Nota: C1 Vol.: 44
Chanel 10 Note Off - Duracao: 54240 Nota: C1 Vol.: 52
Chanel 10 Note On - Duracao: 54240 Nota: C1 Vol.: 62
Chanel 3 Note Off - Duracao: 54300 Nota: C1 Vol.: 43
Chanel 3 Note On - Duracao: 54300 Nota: C1 Vol.: 45
Chanel 3 Note Off - Duracao: 54420 Nota: C1 Vol.: 45
Chanel 3 Note On - Duracao: 54420 Nota: C1 Vol.: 45
Chanel 3 Note Off - Duracao: 54540 Nota: C1 Vol.: 45
Chanel 3 Note On - Duracao: 54540 Nota: C1 Vol.: 41
Chanel 3 Note Off - Duracao: 54660 Nota: C1 Vol.: 41
Chanel 3 Note On - Duracao: 54660 Nota: C1 Vol.: 40
Chanel 5 Note Off - Duracao: 54720 Nota: C1 Vol.: 52
Chanel 5 Note On - Duracao: 54720 Nota: C1 Vol.: 68
Chanel 10 Note Off - Duracao: 54720 Nota: C1 Vol.: 62
Chanel 10 Note On - Duracao: 54720 Nota: C1 Vol.: 58
Chanel 3 Note Off - Duracao: 54780 Nota: C1 Vol.: 40
Chanel 3 Note On - Duracao: 54780 Nota: C1 Vol.: 44
Chanel 1 Note Off - Duracao: 54840 Nota: C1 Vol.: 40
Chanel 1 Note On - Duracao: 54840 Nota: C1 Vol.: 50
Chanel 3 Note Off - Duracao: 54900 Nota: C1 Vol.: 44
Chanel 3 Note On - Duracao: 54900 Nota: C1 Vol.: 50
Chanel 5 Note Off - Duracao: 54960 Nota: C1 Vol.: 68
Chanel 5 Note On - Duracao: 54960 Nota: C1 Vol.: 66
Chanel 3 Note Off - Duracao: 55020 Nota: C1 Vol.: 50
Chanel 3 Note On - Duracao: 55020 Nota: C1 Vol.: 62
Chanel 3 Note Off - Duracao: 55140 Nota: C1 Vol.: 62
Chanel 3 Note On - Duracao: 55140 Nota: C1 Vol.: 40
Chanel 5 Note Off - Duracao: 55200 Nota: C1 Vol.: 66
Chanel 5 Note On - Duracao: 55200 Nota: C1 Vol.: 62
Chanel 10 Note Off - Duracao: 55200 Nota: C1 Vol.: 58
Chanel 10 Note On - Duracao: 55200 Nota: C1 Vol.: 61
Chanel 1 Note Off - Duracao: 55320 Nota: C1 Vol.: 50
Chanel 1 Note On - Duracao: 55320 Nota: C1 Vol.: 62
Chanel 1 Note Off - Duracao: 55440 Nota: C1 Vol.: 62
Chanel 1 Note On - Duracao: 55440 Nota: C1 Vol.: 59
Chanel 5 Note Off - Duracao: 55440 Nota: C1 Vol.: 62
Chanel 5 Note On - Duracao: 55440 Nota: C1 Vol.: 60
Chanel 4 Note Off - Duracao: 55500 Nota: C1 Vol.: 41
Chanel 4 Note On - Duracao: 55500 Nota: C1 Vol.: 41
Chanel 1 Note Off - Duracao: 55560 Nota: C1 Vol.: 59
Chanel 1 Note On - Duracao: 55560 Nota: C1 Vol.: 59
Chanel 1 Note Off - Duracao: 55680 Nota: C1 Vol.: 59
Chanel 1 Note On - Duracao: 55680 Nota: C1 Vol.: 58
Chanel 5 Note Off - Duracao: 55680 Nota: C1 Vol.: 60
Chanel 5 Note On - Duracao: 55680 Nota: C1 Vol.: 56
Chanel 10 Note Off - Duracao: 55680 Nota: C1 Vol.: 61
Chanel 10 Note On - Duracao: 55680 Nota: C1 Vol.: 60
Chanel 1 Note Off - Duracao: 55800 Nota: C1 Vol.: 58
Chanel 1 Note On - Duracao: 55800 Nota: C1 Vol.: 54
Chanel 1 Note Off - Duracao: 55920 Nota: C1 Vol.: 54
Chanel 1 Note On - Duracao: 55920 Nota: C1 Vol.: 52
Chanel 7 Note Off - Duracao: 55980 Nota: C1 Vol.: 64
Chanel 7 Note On - Duracao: 55980 Nota: C1 Vol.: 61
Chanel 1 Note Off - Duracao: 56040 Nota: C1 Vol.: 52
Chanel 1 Note On - Duracao: 56040 Nota: C1 Vol.: 50
Chanel 9 Note Off - Duracao: 56040 Nota: C1 Vol.: 41
Chanel 9 Note On - Duracao: 56040 Nota: C1 Vol.: 44
Chanel 2 Note Off - Duracao: 56100 Nota: C1 Vol.: 63
Chanel 2 Note On - Duracao: 56100 Nota: C1 Vol.: 65
Chanel 6 Note Off - Duracao: 56100 Nota: C1 Vol.: 44
Chanel 6 Note On - Duracao: 56100 Nota: C1 Vol.: 85
Chanel 5 Note Off - Duracao: 56160 Nota: C1 Vol.: 56
Chanel 5 Note On - Duracao: 56160 Nota: C1 Vol.: 47
Chanel 10 Note Off - Duracao: 56160 Nota: C1 Vol.: 60
Chanel 10 Note On - Duracao: 56160 Nota: C1 Vol.: 60
Chanel 6 Note Off - Duracao: 56220 Nota: C1 Vol.: 85
Chanel 6 Note On - Duracao: 56220 Nota: C1 Vol.: 87
Chanel 1 Note Off - Duracao: 56280 Nota: C1 Vol.: 50
Chanel 1 Note On - Duracao: 56280 Nota: C1 Vol.: 48
Chanel 6 Note Off - Duracao: 56340 Nota: C1 Vol.: 87
Chanel 6 Note On - Duracao: 56340 Nota: C1 Vol.: 91
Chanel 6 Note Off - Duracao: 56460 Nota: C1 Vol.: 91
Chanel 6 Note On - Duracao: 56460 Nota: C1 Vol.: 89
Chanel 1 Note Off - Duracao: 56520 Nota: C1 Vol.: 48
Chanel 1 Note On - Duracao: 56520 Nota: C1 Vol.: 47
Chanel 6 Note Off - Duracao: 56580 Nota: C1 Vol.: 89
Chanel 6 Note On - Duracao: 56580 Nota: C1 Vol.: 89
Chanel 10 Note Off - Duracao: 56640 Nota: C1 Vol.: 60
Chanel 10 Note On - Duracao: 56640 Nota: C1 Vol.: 57
Chanel 6 Note Off - Duracao: 56700 Nota: C1 Vol.: 89
Chanel 6 Note On - Duracao: 56700 Nota: C1 Vol.: 90
Chanel 6 Note Off - Duracao: 56820 Nota: C1 Vol.: 90
Chanel 6 Note On - Duracao: 56820 Nota: C1 Vol.: 95
Chanel 6 Note Off - Duracao: 56880 Nota: C1 Vol.: 95
Chanel 6 Note On - Duracao: 56880 Nota: C1 Vol.: 97
Chanel 6 Note Off - Duracao: 56940 Nota: C1 Vol.: 97
Chanel 6 Note On - Duracao: 56940 Nota: C1 Vol.: 99
Chanel 1 Note Off - Duracao: 57000 Nota: C1 Vol.: 47
Chanel 1 Note On - Duracao: 57000 Nota: C1 Vol.: 43
Chanel 6 Note Off - Duracao: 57000 Nota: C1 Vol.: 99
Chanel 6 Note On - Duracao: 57000 Nota: C1 Vol.: 98
Chanel 3 Note Off - Duracao: 57060 Nota: C1 Vol.: 40
Chanel 3 Note On - Duracao: 57060 Nota: C1 Vol.: 52
Chanel 6 Note Off - Duracao: 57060 Nota: C1 Vol.: 98
Chanel 6 Note On - Duracao: 57060 Nota: C1 Vol.: 99
Chanel 5 Note Off - Duracao: 57120 Nota: C1 Vol.: 47
Chanel 5 Note On - Duracao: 57120 Nota: C1 Vol.: 42
Chanel 6 Note Off - Duracao: 57120 Nota: C1 Vol.: 99
Chanel 6 Note On - Duracao: 57120 Nota: C1 Vol.: 80
Chanel 10 Note Off - Duracao: 57120 Nota: C1 Vol.: 57
Chanel 10 Note On - Duracao: 57120 Nota: C1 Vol.: 58
Chanel 6 Note Off - Duracao: 57360 Nota: C1 Vol.: 80
Chanel 6 Note On - Duracao: 57360 Nota: C1 Vol.: 100
Chanel 4 Note Off - Duracao: 57420 Nota: C1 Vol.: 41
Chanel 4 Note On - Duracao: 57420 Nota: C1 Vol.: 43
Chanel 6 Note Off - Duracao: 57420 Nota: C1 Vol.: 100
Chanel 6 Note On - Duracao: 57420 Nota: C1 Vol.: 100
Chanel 6 Note Off - Duracao: 57480 Nota: C1 Vol.: 100
Chanel 6 Note On - Duracao: 57480 Nota: C1 Vol.: 100
Chanel 3 Note Off - Duracao: 57540 Nota: C1 Vol.: 52
Chanel 3 Note On - Duracao: 57540 Nota: C1 Vol.: 60
Chanel 6 Note Off - Duracao: 57540 Nota: C1 Vol.: 100
Chanel 6 Note On - Duracao: 57540 Nota: C1 Vol.: 100
Chanel 6 Note Off - Duracao: 57600 Nota: C1 Vol.: 100
Chanel 6 Note On - Duracao: 57600 Nota: C1 Vol.: 100
Chanel 8 Note Off - Duracao: 57600 Nota: C1 Vol.: 63
Chanel 8 Note On - Duracao: 57600 Nota: C1 Vol.: 67
Chanel 10 Note Off - Duracao: 57600 Nota: C1 Vol.: 58
Chanel 10 Note On - Duracao: 57600 Nota: C1 Vol.: 61
Chanel 6 Note Off - Duracao: 57660 Nota: C1 Vol.: 100
Chanel 6 Note On - Duracao: 57660 Nota: C1 Vol.: 98
Chanel 6 Note Off - Duracao: 57720 Nota: C1 Vol.: 98
Chanel 6 Note On - Duracao: 57720 Nota: C1 Vol.: 99
Chanel 3 Note Off - Duracao: 57780 Nota: C1 Vol.: 60
Chanel 3 Note On - Duracao: 57780 Nota: C1 Vol.: 54
Chanel 6 Note Off - Duracao: 57780 Nota: C1 Vol.: 99
Chanel 6 Note On - Duracao: 57780 Nota: C1 Vol.: 98
Chanel 6 Note Off - Duracao: 57840 Nota: C1 Vol.: 98
Chanel 6 Note On - Duracao: 57840 Nota: C1 Vol.: 95
Chanel 6 Note Off - Duracao: 57900 Nota: C1 Vol.: 95
Chanel 6 Note On - Duracao: 57900 Nota: C1 Vol.: 98
Chanel 1 Note Off - Duracao: 57960 Nota: C1 Vol.: 43
Chanel 1 Note On - Duracao: 57960 Nota: C1 Vol.: 40
Chanel 9 Note Off - Duracao: 57960 Nota: C1 Vol.: 44
Chanel 9 Note On - Duracao: 57960 Nota: C1 Vol.: 47
Chanel 2 Note Off - Duracao: 58020 Nota: C1 Vol.: 65
Chanel 2 Note On - Duracao: 58020 Nota: C1 Vol.: 72
Chanel 6 Note Off - Duracao: 58020 Nota: C1 Vol.: 98
Chanel 6 Note On - Duracao: 58020 Nota: C1 Vol.: 98
Chanel 5 Note Off - Duracao: 58080 Nota: C1 Vol.: 42
Chanel 5 Note On - Duracao: 58080 Nota: C1 Vol.: 55
Chanel 6 Note Off - Duracao: 58080 Nota: C1 Vol.: 98
Chanel 6 Note On - Duracao: 58080 Nota: C1 Vol.: 99
Chanel 10 Note Off - Duracao: 58080 Nota: C1 Vol.: 61
Chanel 10 Note On - Duracao: 58080 Nota: C1 Vol.: 58
Chanel 6 Note Off - Duracao: 58140 Nota: C1 Vol.: 99
Chanel 6 Note On - Duracao: 58140 Nota: C1 Vol.: 97
Chanel 6 Note Off - Duracao: 58200 Nota: C1 Vol.: 97
Chanel 6 Note On - Duracao: 58200 Nota: C1 Vol.: 95
Chanel 3 Note Off - Duracao: 58260 Nota: C1 Vol.: 54
Chanel 3 Note On - Duracao: 58260 Nota: C1 Vol.: 62
Chanel 6 Note Off - Duracao: 58260 Nota: C1 Vol.: 95
Chanel 6 Note On - Duracao: 58260 Nota: C1 Vol.: 98
Chanel 5 Note Off - Duracao: 58320 Nota: C1 Vol.: 55
Chanel 5 Note On - Duracao: 58320 Nota: C1 Vol.: 56
Chanel 6 Note Off - Duracao: 58320 Nota: C1 Vol.: 98
Chanel 6 Note On - Duracao: 58320 Nota: C1 Vol.: 99
Chanel 6 Note Off - Duracao: 58380 Nota: C1 Vol.: 99
Chanel 6 Note On - Duracao: 58380 Nota: C1 Vol.: 95
Chanel 6 Note Off - Duracao: 58500 Nota: C1 Vol.: 95
Chanel 6 Note On - Duracao: 58500 Nota: C1 Vol.: 93
Chanel 5 Note Off - Duracao: 58560 Nota: C1 Vol.: 56
Chanel 5 Note On - Duracao: 58560 Nota: C1 Vol.: 62
Chanel 10 Note Off - Duracao: 58560 Nota: C1 Vol.: 58
Chanel 10 Note On - Duracao: 58560 Nota: C1 Vol.: 62
Chanel 6 Note Off - Duracao: 58620 Nota: C1 Vol.: 93
Chanel 6 Note On - Duracao: 58620 Nota: C1 Vol.: 65
Chanel 3 Note Off - Duracao: 58740 Nota: C1 Vol.: 62
Chanel 3 Note On - Duracao: 58740 Nota: C1 Vol.: 72
Chanel 5 Note Off - Duracao: 58800 Nota: C1 Vol.: 62
Chanel 5 Note On - Duracao: 58800 Nota: C1 Vol.: 40
Chanel 9 Note Off - Duracao: 58920 Nota: C1 Vol.: 47
Chanel 9 Note On - Duracao: 58920 Nota: C1 Vol.: 55
Chanel 2 Note Off - Duracao: 58980 Nota: C1 Vol.: 72
Chanel 2 Note On - Duracao: 58980 Nota: C1 Vol.: 74
Chanel 3 Note Off - Duracao: 58980 Nota: C1 Vol.: 72
Chanel 3 Note On - Duracao: 58980 Nota: C1 Vol.: 69
Chanel 10 Note Off - Duracao: 59040 Nota: C1 Vol.: 62
Chanel 10 Note On - Duracao: 59040 Nota: C1 Vol.: 61
Chanel 6 Note Off - Duracao: 59100 Nota: C1 Vol.: 65
Chanel 6 Note On - Duracao: 59100 Nota: C1 Vol.: 67
Chanel 3 Note Off - Duracao: 59220 Nota: C1 Vol.: 69
Chanel 3 Note On - Duracao: 59220 Nota: C1 Vol.: 68
Chanel 4 Note Off - Duracao: 59340 Nota: C1 Vol.: 43
Chanel 4 Note On - Duracao: 59340 Nota: C1 Vol.: 41
Chanel 9 Note Off - Duracao: 59400 Nota: C1 Vol.: 55
Chanel 9 Note On - Duracao: 59400 Nota: C1 Vol.: 55
Chanel 3 Note Off - Duracao: 59460 Nota: C1 Vol.: 68
Chanel 3 Note On - Duracao: 59460 Nota: C1 Vol.: 70
Chanel 8 Note Off - Duracao: 59520 Nota: C1 Vol.: 67
Chanel 8 Note On - Duracao: 59520 Nota: C1 Vol.: 67
Chanel 10 Note Off - Duracao: 59520 Nota: C1 Vol.: 61
Chanel 10 Note On - Duracao: 59520 Nota: C1 Vol.: 65
Chanel 6 Note Off - Duracao: 59580 Nota: C1 Vol.: 67
Chanel 6 Note On - Duracao: 59580 Nota: C1 Vol.: 64
Chanel 3 Note Off - Duracao: 59700 Nota: C1 Vol.: 70
Chanel 3 Note On - Duracao: 59700 Nota: C1 Vol.: 91
Chanel 3 Note Off - Duracao: 59820 Nota: C1 Vol.: 91
Chanel 3 Note On - Duracao: 59820 Nota: C1 Vol.: 85
Chanel 7 Note Off - Duracao: 59820 Nota: C1 Vol.: 61
Chanel 7 Note On - Duracao: 59820 Nota: C1 Vol.: 61
Chanel 1 Note Off - Duracao: 59880 Nota: C1 Vol.: 40
Chanel 1 Note On - Duracao: 59880 Nota: C1 Vol.: 52
Chanel 9 Note Off - Duracao: 59880 Nota: C1 Vol.: 55
Chanel 9 Note On - Duracao: 59880 Nota: C1 Vol.: 56
Chanel 2 Note Off - Duracao: 59940 Nota: C1 Vol.: 74
Chanel 2 Note On - Duracao: 59940 Nota: C1 Vol.: 69
Chanel 10 Note Off - Duracao: 60000 Nota: C1 Vol.: 65
Chanel 10 Note On - Duracao: 60000 Nota: C1 Vol.: 53
Chanel 3 Note Off - Duracao: 60060 Nota: C1 Vol.: 85
Chanel 3 Note On - Duracao: 60060 Nota: C1 Vol.: 81
Chanel 6 Note Off - Duracao: 60060 Nota: C1 Vol.: 64
Chanel 6 Note On - Duracao: 60060 Nota: C1 Vol.: 66
Chanel 3 Note Off - Duracao: 60300 Nota: C1 Vol.: 81
Chanel 3 Note On - Duracao: 60300 Nota: C1 Vol.: 81
Chanel 9 Note Off - Duracao: 60360 Nota: C1 Vol.: 56
Chanel 9 Note On - Duracao: 60360 Nota: C1 Vol.: 61
Chanel 3 Note Off - Duracao: 60540 Nota: C1 Vol.: 81
Chanel 3 Note On - Duracao: 60540 Nota: C1 Vol.: 78
Chanel 6 Note Off - Duracao: 60540 Nota: C1 Vol.: 66
Chanel 6 Note On - Duracao: 60540 Nota: C1 Vol.: 66
Chanel 5 Note Off - Duracao: 60720 Nota: C1 Vol.: 40
Chanel 5 Note On - Duracao: 60720 Nota: C1 Vol.: 40
Chanel 6 Note Off - Duracao: 60780 Nota: C1 Vol.: 66
Chanel 6 Note On - Duracao: 60780 Nota: C1 Vol.: 51
Chanel 1 Note Off - Duracao: 60840 Nota: C1 Vol.: 52
Chanel 1 Note On - Duracao: 60840 Nota: C1 Vol.: 85
Chanel 9 Note Off - Duracao: 60840 Nota: C1 Vol.: 61
Chanel 9 Note On - Duracao: 60840 Nota: C1 Vol.: 66
Chanel 2 Note Off - Duracao: 60900 Nota: C1 Vol.: 69
Chanel 2 Note On - Duracao: 60900 Nota: C1 Vol.: 65
Chanel 1 Note Off - Duracao: 60960 Nota: C1 Vol.: 85
Chanel 1 Note On - Duracao: 60960 Nota: C1 Vol.: 98
Chanel 10 Note Off - Duracao: 60960 Nota: C1 Vol.: 53
Chanel 10 Note On - Duracao: 60960 Nota: C1 Vol.: 51
Chanel 1 Note Off - Duracao: 61020 Nota: C1 Vol.: 98
Chanel 1 Note On - Duracao: 61020 Nota: C1 Vol.: 91
Chanel 3 Note Off - Duracao: 61020 Nota: C1 Vol.: 78
Chanel 3 Note On - Duracao: 61020 Nota: C1 Vol.: 76
Chanel 9 Note Off - Duracao: 61080 Nota: C1 Vol.: 66
Chanel 9 Note On - Duracao: 61080 Nota: C1 Vol.: 65
Chanel 1 Note Off - Duracao: 61140 Nota: C1 Vol.: 91
Chanel 1 Note On - Duracao: 61140 Nota: C1 Vol.: 87
Chanel 1 Note Off - Duracao: 61260 Nota: C1 Vol.: 87
Chanel 1 Note On - Duracao: 61260 Nota: C1 Vol.: 85
Chanel 9 Note Off - Duracao: 61320 Nota: C1 Vol.: 65
Chanel 9 Note On - Duracao: 61320 Nota: C1 Vol.: 57
Chanel 1 Note Off - Duracao: 61380 Nota: C1 Vol.: 85
Chanel 1 Note On - Duracao: 61380 Nota: C1 Vol.: 86
Chanel 8 Note Off - Duracao: 61440 Nota: C1 Vol.: 67
Chanel 8 Note On - Duracao: 61440 Nota: C1 Vol.: 64
Chanel 1 Note Off - Duracao: 61500 Nota: C1 Vol.: 86
Chanel 1 Note On - Duracao: 61500 Nota: C1 Vol.: 80
Chanel 3 Note Off - Duracao: 61500 Nota: C1 Vol.: 76
Chanel 3 Note On - Duracao: 61500 Nota: C1 Vol.: 76
Chanel 1 Note Off - Duracao: 61740 Nota: C1 Vol.: 80
Chanel 1 Note On - Duracao: 61740 Nota: C1 Vol.: 85
Chanel 3 Note Off - Duracao: 61740 Nota: C1 Vol.: 76
Chanel 3 Note On - Duracao: 61740 Nota: C1 Vol.: 78
Chanel 6 Note Off - Duracao: 61740 Nota: C1 Vol.: 51
Chanel 6 Note On - Duracao: 61740 Nota: C1 Vol.: 60
Chanel 9 Note Off - Duracao: 61800 Nota: C1 Vol.: 57
Chanel 9 Note On - Duracao: 61800 Nota: C1 Vol.: 57
Chanel 1 Note Off - Duracao: 61860 Nota: C1 Vol.: 85
Chanel 1 Note On - Duracao: 61860 Nota: C1 Vol.: 86
Chanel 2 Note Off - Duracao: 61860 Nota: C1 Vol.: 65
Chanel 2 Note On - Duracao: 61860 Nota: C1 Vol.: 69
Chanel 10 Note Off - Duracao: 61920 Nota: C1 Vol.: 51
Chanel 10 Note On - Duracao: 61920 Nota: C1 Vol.: 42
Chanel 1 Note Off - Duracao: 61980 Nota: C1 Vol.: 86
Chanel 1 Note On - Duracao: 61980 Nota: C1 Vol.: 87
Chanel 3 Note Off - Duracao: 61980 Nota: C1 Vol.: 78
Chanel 3 Note On - Duracao: 61980 Nota: C1 Vol.: 78
Chanel 1 Note Off - Duracao: 62100 Nota: C1 Vol.: 87
Chanel 1 Note On - Duracao: 62100 Nota: C1 Vol.: 92
Chanel 1 Note Off - Duracao: 62220 Nota: C1 Vol.: 92
Chanel 1 Note On - Duracao: 62220 Nota: C1 Vol.: 93
Chanel 3 Note Off - Duracao: 62220 Nota: C1 Vol.: 78
Chanel 3 Note On - Duracao: 62220 Nota: C1 Vol.: 76
Chanel 6 Note Off - Duracao: 62220 Nota: C1 Vol.: 60
Chanel 6 Note On - Duracao: 62220 Nota: C1 Vol.: 46
Chanel 9 Note Off - Duracao: 62280 Nota: C1 Vol.: 57
Chanel 9 Note On - Duracao: 62280 Nota: C1 Vol.: 55
Chanel 1 Note Off - Duracao: 62340 Nota: C1 Vol.: 93
Chanel 1 Note On - Duracao: 62340 Nota: C1 Vol.: 92
Chanel 1 Note Off - Duracao: 62460 Nota: C1 Vol.: 92
Chanel 1 Note On - Duracao: 62460 Nota: C1 Vol.: 95
Chanel 3 Note Off - Duracao: 62460 Nota: C1 Vol.: 76
Chanel 3 Note On - Duracao: 62460 Nota: C1 Vol.: 75
Chanel 1 Note Off - Duracao: 62580 Nota: C1 Vol.: 95
Chanel 1 Note On - Duracao: 62580 Nota: C1 Vol.: 88
Chanel 5 Note Off - Duracao: 62640 Nota: C1 Vol.: 40
Chanel 5 Note On - Duracao: 62640 Nota: C1 Vol.: 61
Chanel 1 Note Off - Duracao: 62700 Nota: C1 Vol.: 88
Chanel 1 Note On - Duracao: 62700 Nota: C1 Vol.: 91
Chanel 9 Note Off - Duracao: 62760 Nota: C1 Vol.: 55
Chanel 9 Note On - Duracao: 62760 Nota: C1 Vol.: 81
Chanel 1 Note Off - Duracao: 62820 Nota: C1 Vol.: 91
Chanel 1 Note On - Duracao: 62820 Nota: C1 Vol.: 96
Chanel 2 Note Off - Duracao: 62820 Nota: C1 Vol.: 69
Chanel 2 Note On - Duracao: 62820 Nota: C1 Vol.: 71
Chanel 9 Note Off - Duracao: 62880 Nota: C1 Vol.: 81
Chanel 9 Note On - Duracao: 62880 Nota: C1 Vol.: 83
Chanel 10 Note Off - Duracao: 62880 Nota: C1 Vol.: 42
Chanel 10 Note On - Duracao: 62880 Nota: C1 Vol.: 65
Chanel 1 Note Off - Duracao: 62940 Nota: C1 Vol.: 96
Chanel 1 Note On - Duracao: 62940 Nota: C1 Vol.: 96
Chanel 3 Note Off - Duracao: 62940 Nota: C1 Vol.: 75
Chanel 3 Note On - Duracao: 62940 Nota: C1 Vol.: 82
Chanel 9 Note Off - Duracao: 63000 Nota: C1 Vol.: 83
Chanel 9 Note On - Duracao: 63000 Nota: C1 Vol.: 68
Chanel 1 Note Off - Duracao: 63060 Nota: C1 Vol.: 96
Chanel 1 Note On - Duracao: 63060 Nota: C1 Vol.: 94
Chanel 5 Note Off - Duracao: 63120 Nota: C1 Vol.: 61
Chanel 5 Note On - Duracao: 63120 Nota: C1 Vol.: 51
Chanel 10 Note Off - Duracao: 63120 Nota: C1 Vol.: 65
Chanel 10 Note On - Duracao: 63120 Nota: C1 Vol.: 64
Chanel 1 Note Off - Duracao: 63180 Nota: C1 Vol.: 94
Chanel 1 Note On - Duracao: 63180 Nota: C1 Vol.: 95
Chanel 3 Note Off - Duracao: 63180 Nota: C1 Vol.: 82
Chanel 3 Note On - Duracao: 63180 Nota: C1 Vol.: 75
Chanel 4 Note Off - Duracao: 63180 Nota: C1 Vol.: 41
Chanel 4 Note On - Duracao: 63180 Nota: C1 Vol.: 41
Chanel 6 Note Off - Duracao: 63180 Nota: C1 Vol.: 46
Chanel 6 Note On - Duracao: 63180 Nota: C1 Vol.: 46
Chanel 9 Note Off - Duracao: 63240 Nota: C1 Vol.: 68
Chanel 9 Note On - Duracao: 63240 Nota: C1 Vol.: 56
Chanel 10 Note Off - Duracao: 63240 Nota: C1 Vol.: 64
Chanel 10 Note On - Duracao: 63240 Nota: C1 Vol.: 57
Chanel 1 Note Off - Duracao: 63300 Nota: C1 Vol.: 95
Chanel 1 Note On - Duracao: 63300 Nota: C1 Vol.: 96
Chanel 8 Note Off - Duracao: 63360 Nota: C1 Vol.: 64
Chanel 8 Note On - Duracao: 63360 Nota: C1 Vol.: 60
Chanel 1 Note Off - Duracao: 63420 Nota: C1 Vol.: 96
Chanel 1 Note On - Duracao: 63420 Nota: C1 Vol.: 99
Chanel 1 Note Off - Duracao: 63480 Nota: C1 Vol.: 99
Chanel 1 Note On - Duracao: 63480 Nota: C1 Vol.: 95
Chanel 10 Note Off - Duracao: 63480 Nota: C1 Vol.: 57
Chanel 10 Note On - Duracao: 63480 Nota: C1 Vol.: 64
Chanel 1 Note Off - Duracao: 63600 Nota: C1 Vol.: 95
Chanel 1 Note On - Duracao: 63600 Nota: C1 Vol.: 91
Chanel 10 Note Off - Duracao: 63600 Nota: C1 Vol.: 64
Chanel 10 Note On - Duracao: 63600 Nota: C1 Vol.: 65
Chanel 3 Note Off - Duracao: 63660 Nota: C1 Vol.: 75
Chanel 3 Note On - Duracao: 63660 Nota: C1 Vol.: 81
Chanel 7 Note Off - Duracao: 63660 Nota: C1 Vol.: 61
Chanel 7 Note On - Duracao: 63660 Nota: C1 Vol.: 60
Chanel 1 Note Off - Duracao: 63720 Nota: C1 Vol.: 91
Chanel 1 Note On - Duracao: 63720 Nota: C1 Vol.: 87
Chanel 9 Note Off - Duracao: 63720 Nota: C1 Vol.: 56
Chanel 9 Note On - Duracao: 63720 Nota: C1 Vol.: 67
Chanel 10 Note Off - Duracao: 63720 Nota: C1 Vol.: 65
Chanel 10 Note On - Duracao: 63720 Nota: C1 Vol.: 57
Chanel 2 Note Off - Duracao: 63780 Nota: C1 Vol.: 71
Chanel 2 Note On - Duracao: 63780 Nota: C1 Vol.: 67
Chanel 1 Note Off - Duracao: 63840 Nota: C1 Vol.: 87
Chanel 1 Note On - Duracao: 63840 Nota: C1 Vol.: 96
Chanel 10 Note Off - Duracao: 63840 Nota: C1 Vol.: 57
Chanel 10 Note On - Duracao: 63840 Nota: C1 Vol.: 52
Chanel 1 Note Off - Duracao: 63900 Nota: C1 Vol.: 96
Chanel 1 Note On - Duracao: 63900 Nota: C1 Vol.: 98
Chanel 3 Note Off - Duracao: 63900 Nota: C1 Vol.: 81
Chanel 3 Note On - Duracao: 63900 Nota: C1 Vol.: 85
Chanel 1 Note Off - Duracao: 63960 Nota: C1 Vol.: 98
Chanel 1 Note On - Duracao: 63960 Nota: C1 Vol.: 98
Chanel 9 Note Off - Duracao: 63960 Nota: C1 Vol.: 67
Chanel 9 Note On - Duracao: 63960 Nota: C1 Vol.: 52
Chanel 1 Note Off - Duracao: 64020 Nota: C1 Vol.: 98
Chanel 1 Note On - Duracao: 64020 Nota: C1 Vol.: 98
Chanel 1 Note Off - Duracao: 64080 Nota: C1 Vol.: 98
Chanel 1 Note On - Duracao: 64080 Nota: C1 Vol.: 98
Chanel 5 Note Off - Duracao: 64080 Nota: C1 Vol.: 51
Chanel 5 Note On - Duracao: 64080 Nota: C1 Vol.: 61
Chanel 10 Note Off - Duracao: 64080 Nota: C1 Vol.: 52
Chanel 10 Note On - Duracao: 64080 Nota: C1 Vol.: 47
Chanel 1 Note Off - Duracao: 64140 Nota: C1 Vol.: 98
Chanel 1 Note On - Duracao: 64140 Nota: C1 Vol.: 98
Chanel 3 Note Off - Duracao: 64140 Nota: C1 Vol.: 85
Chanel 3 Note On - Duracao: 64140 Nota: C1 Vol.: 83
Chanel 6 Note Off - Duracao: 64140 Nota: C1 Vol.: 46
Chanel 6 Note On - Duracao: 64140 Nota: C1 Vol.: 45
Chanel 1 Note Off - Duracao: 64200 Nota: C1 Vol.: 98
Chanel 1 Note On - Duracao: 64200 Nota: C1 Vol.: 99
Chanel 1 Note Off - Duracao: 64260 Nota: C1 Vol.: 99
Chanel 1 Note On - Duracao: 64260 Nota: C1 Vol.: 98
Chanel 1 Note Off - Duracao: 64320 Nota: C1 Vol.: 98
Chanel 1 Note On - Duracao: 64320 Nota: C1 Vol.: 98
Chanel 5 Note Off - Duracao: 64320 Nota: C1 Vol.: 61
Chanel 5 Note On - Duracao: 64320 Nota: C1 Vol.: 66
Chanel 10 Note Off - Duracao: 64320 Nota: C1 Vol.: 47
Chanel 10 Note On - Duracao: 64320 Nota: C1 Vol.: 47
Chanel 1 Note Off - Duracao: 64380 Nota: C1 Vol.: 98
Chanel 1 Note On - Duracao: 64380 Nota: C1 Vol.: 99
Chanel 3 Note Off - Duracao: 64380 Nota: C1 Vol.: 83
Chanel 3 Note On - Duracao: 64380 Nota: C1 Vol.: 79
Chanel 1 Note Off - Duracao: 64440 Nota: C1 Vol.: 99
Chanel 1 Note On - Duracao: 64440 Nota: C1 Vol.: 97
Chanel 1 Note Off - Duracao: 64560 Nota: C1 Vol.: 97
Chanel 1 Note On - Duracao: 64560 Nota: C1 Vol.: 99
Chanel 5 Note Off - Duracao: 64560 Nota: C1 Vol.: 66
Chanel 5 Note On - Duracao: 64560 Nota: C1 Vol.: 70
Chanel 10 Note Off - Duracao: 64560 Nota: C1 Vol.: 47
Chanel 10 Note On - Duracao: 64560 Nota: C1 Vol.: 51
Chanel 1 Note Off - Duracao: 64620 Nota: C1 Vol.: 99
Chanel 1 Note On - Duracao: 64620 Nota: C1 Vol.: 99
Chanel 1 Note Off - Duracao: 64680 Nota: C1 Vol.: 99
Chanel 1 Note On - Duracao: 64680 Nota: C1 Vol.: 98
Chanel 2 Note Off - Duracao: 64740 Nota: C1 Vol.: 67
Chanel 2 Note On - Duracao: 64740 Nota: C1 Vol.: 56
Chanel 1 Note Off - Duracao: 64800 Nota: C1 Vol.: 98
Chanel 1 Note On - Duracao: 64800 Nota: C1 Vol.: 97
Chanel 5 Note Off - Duracao: 64800 Nota: C1 Vol.: 70
Chanel 5 Note On - Duracao: 64800 Nota: C1 Vol.: 71
Chanel 10 Note Off - Duracao: 64800 Nota: C1 Vol.: 51
Chanel 10 Note On - Duracao: 64800 Nota: C1 Vol.: 50
Chanel 3 Note Off - Duracao: 64860 Nota: C1 Vol.: 79
Chanel 3 Note On - Duracao: 64860 Nota: C1 Vol.: 84
Chanel 1 Note Off - Duracao: 64920 Nota: C1 Vol.: 97
Chanel 1 Note On - Duracao: 64920 Nota: C1 Vol.: 97
Chanel 9 Note Off - Duracao: 64920 Nota: C1 Vol.: 52
Chanel 9 Note On - Duracao: 64920 Nota: C1 Vol.: 52
Chanel 1 Note Off - Duracao: 65040 Nota: C1 Vol.: 97
Chanel 1 Note On - Duracao: 65040 Nota: C1 Vol.: 99
Chanel 5 Note Off - Duracao: 65040 Nota: C1 Vol.: 71
Chanel 5 Note On - Duracao: 65040 Nota: C1 Vol.: 71
Chanel 10 Note Off - Duracao: 65040 Nota: C1 Vol.: 50
Chanel 10 Note On - Duracao: 65040 Nota: C1 Vol.: 55
Chanel 1 Note Off - Duracao: 65100 Nota: C1 Vol.: 99
Chanel 1 Note On - Duracao: 65100 Nota: C1 Vol.: 99
Chanel 3 Note Off - Duracao: 65100 Nota: C1 Vol.: 84
Chanel 3 Note On - Duracao: 65100 Nota: C1 Vol.: 86
Chanel 4 Note Off - Duracao: 65100 Nota: C1 Vol.: 41
Chanel 4 Note On - Duracao: 65100 Nota: C1 Vol.: 40
Chanel 6 Note Off - Duracao: 65100 Nota: C1 Vol.: 45
Chanel 6 Note On - Duracao: 65100 Nota: C1 Vol.: 46
Chanel 1 Note Off - Duracao: 65160 Nota: C1 Vol.: 99
Chanel 1 Note On - Duracao: 65160 Nota: C1 Vol.: 98
Chanel 1 Note Off - Duracao: 65220 Nota: C1 Vol.: 98
Chanel 1 Note On - Duracao: 65220 Nota: C1 Vol.: 99
Chanel 1 Note Off - Duracao: 65280 Nota: C1 Vol.: 99
Chanel 1 Note On - Duracao: 65280 Nota: C1 Vol.: 100
Chanel 5 Note Off - Duracao: 65280 Nota: C1 Vol.: 71
Chanel 5 Note On - Duracao: 65280 Nota: C1 Vol.: 66
Chanel 8 Note Off - Duracao: 65280 Nota: C1 Vol.: 60
Chanel 8 Note On - Duracao: 65280 Nota: C1 Vol.: 45
Chanel 10 Note Off - Duracao: 65280 Nota: C1 Vol.: 55
Chanel 10 Note On - Duracao: 65280 Nota: C1 Vol.: 67
Chanel 1 Note Off - Duracao: 65340 Nota: C1 Vol.: 100
Chanel 1 Note On - Duracao: 65340 Nota: C1 Vol.: 100
Chanel 3 Note Off - Duracao: 65340 Nota: C1 Vol.: 86
Chanel 3 Note On - Duracao: 65340 Nota: C1 Vol.: 81
Chanel 1 Note Off - Duracao: 65400 Nota: C1 Vol.: 100
Chanel 1 Note On - Duracao: 65400 Nota: C1 Vol.: 95
Chanel 10 Note Off - Duracao: 65400 Nota: C1 Vol.: 67
Chanel 10 Note On - Duracao: 65400 Nota: C1 Vol.: 59
Chanel 1 Note Off - Duracao: 65520 Nota: C1 Vol.: 95
Chanel 1 Note On - Duracao: 65520 Nota: C1 Vol.: 91
Chanel 3 Note Off - Duracao: 65580 Nota: C1 Vol.: 81
Chanel 3 Note On - Duracao: 65580 Nota: C1 Vol.: 70
Chanel 1 Note Off - Duracao: 65640 Nota: C1 Vol.: 91
Chanel 1 Note On - Duracao: 65640 Nota: C1 Vol.: 94
Chanel 10 Note Off - Duracao: 65640 Nota: C1 Vol.: 59
Chanel 10 Note On - Duracao: 65640 Nota: C1 Vol.: 44
Chanel 2 Note Off - Duracao: 65700 Nota: C1 Vol.: 56
Chanel 2 Note On - Duracao: 65700 Nota: C1 Vol.: 62
Chanel 1 Note Off - Duracao: 65760 Nota: C1 Vol.: 94
Chanel 1 Note On - Duracao: 65760 Nota: C1 Vol.: 92
Chanel 5 Note Off - Duracao: 65760 Nota: C1 Vol.: 66
Chanel 5 Note On - Duracao: 65760 Nota: C1 Vol.: 73
Chanel 2 Note Off - Duracao: 65820 Nota: C1 Vol.: 62
Chanel 2 Note On - Duracao: 65820 Nota: C1 Vol.: 54
Chanel 1 Note Off - Duracao: 65880 Nota: C1 Vol.: 92
Chanel 1 Note On - Duracao: 65880 Nota: C1 Vol.: 79
Chanel 9 Note Off - Duracao: 65880 Nota: C1 Vol.: 52
Chanel 9 Note On - Duracao: 65880 Nota: C1 Vol.: 63
Chanel 2 Note Off - Duracao: 65940 Nota: C1 Vol.: 54
Chanel 2 Note On - Duracao: 65940 Nota: C1 Vol.: 47
Chanel 1 Note Off - Duracao: 66000 Nota: C1 Vol.: 79
Chanel 1 Note On - Duracao: 66000 Nota: C1 Vol.: 54
Chanel 5 Note Off - Duracao: 66000 Nota: C1 Vol.: 73
Chanel 5 Note On - Duracao: 66000 Nota: C1 Vol.: 88
Chanel 2 Note Off - Duracao: 66060 Nota: C1 Vol.: 47
Chanel 2 Note On - Duracao: 66060 Nota: C1 Vol.: 42
Chanel 3 Note Off - Duracao: 66060 Nota: C1 Vol.: 70
Chanel 3 Note On - Duracao: 66060 Nota: C1 Vol.: 73
Chanel 6 Note Off - Duracao: 66060 Nota: C1 Vol.: 46
Chanel 6 Note On - Duracao: 66060 Nota: C1 Vol.: 48
Chanel 5 Note Off - Duracao: 66120 Nota: C1 Vol.: 88
Chanel 5 Note On - Duracao: 66120 Nota: C1 Vol.: 94
Chanel 2 Note Off - Duracao: 66180 Nota: C1 Vol.: 42
Chanel 2 Note On - Duracao: 66180 Nota: C1 Vol.: 42
Chanel 5 Note Off - Duracao: 66180 Nota: C1 Vol.: 94
Chanel 5 Note On - Duracao: 66180 Nota: C1 Vol.: 96
Chanel 5 Note Off - Duracao: 66240 Nota: C1 Vol.: 96
Chanel 5 Note On - Duracao: 66240 Nota: C1 Vol.: 97
Chanel 2 Note Off - Duracao: 66300 Nota: C1 Vol.: 42
Chanel 2 Note On - Duracao: 66300 Nota: C1 Vol.: 40
Chanel 3 Note Off - Duracao: 66300 Nota: C1 Vol.: 73
Chanel 3 Note On - Duracao: 66300 Nota: C1 Vol.: 73
Chanel 5 Note Off - Duracao: 66300 Nota: C1 Vol.: 97
Chanel 5 Note On - Duracao: 66300 Nota: C1 Vol.: 96
Chanel 5 Note Off - Duracao: 66360 Nota: C1 Vol.: 96
Chanel 5 Note On - Duracao: 66360 Nota: C1 Vol.: 97
Chanel 9 Note Off - Duracao: 66360 Nota: C1 Vol.: 63
Chanel 9 Note On - Duracao: 66360 Nota: C1 Vol.: 69
Chanel 2 Note Off - Duracao: 66420 Nota: C1 Vol.: 40
Chanel 2 Note On - Duracao: 66420 Nota: C1 Vol.: 40
Chanel 3 Note Off - Duracao: 66420 Nota: C1 Vol.: 73
Chanel 3 Note On - Duracao: 66420 Nota: C1 Vol.: 62
Chanel 5 Note Off - Duracao: 66420 Nota: C1 Vol.: 97
Chanel 5 Note On - Duracao: 66420 Nota: C1 Vol.: 98
Chanel 1 Note Off - Duracao: 66480 Nota: C1 Vol.: 54
Chanel 1 Note On - Duracao: 66480 Nota: C1 Vol.: 53
Chanel 5 Note Off - Duracao: 66480 Nota: C1 Vol.: 98
Chanel 5 Note On - Duracao: 66480 Nota: C1 Vol.: 97
Chanel 2 Note Off - Duracao: 66540 Nota: C1 Vol.: 40
Chanel 2 Note On - Duracao: 66540 Nota: C1 Vol.: 42
Chanel 5 Note Off - Duracao: 66540 Nota: C1 Vol.: 97
Chanel 5 Note On - Duracao: 66540 Nota: C1 Vol.: 97
Chanel 5 Note Off - Duracao: 66600 Nota: C1 Vol.: 97
Chanel 5 Note On - Duracao: 66600 Nota: C1 Vol.: 97
Chanel 9 Note Off - Duracao: 66600 Nota: C1 Vol.: 69
Chanel 9 Note On - Duracao: 66600 Nota: C1 Vol.: 63
Chanel 10 Note Off - Duracao: 66600 Nota: C1 Vol.: 44
Chanel 10 Note On - Duracao: 66600 Nota: C1 Vol.: 57
Chanel 2 Note Off - Duracao: 66660 Nota: C1 Vol.: 42
Chanel 2 Note On - Duracao: 66660 Nota: C1 Vol.: 49
Chanel 3 Note Off - Duracao: 66660 Nota: C1 Vol.: 62
Chanel 3 Note On - Duracao: 66660 Nota: C1 Vol.: 66
Chanel 5 Note Off - Duracao: 66660 Nota: C1 Vol.: 97
Chanel 5 Note On - Duracao: 66660 Nota: C1 Vol.: 95
Chanel 1 Note Off - Duracao: 66720 Nota: C1 Vol.: 53
Chanel 1 Note On - Duracao: 66720 Nota: C1 Vol.: 60
Chanel 5 Note Off - Duracao: 66720 Nota: C1 Vol.: 95
Chanel 5 Note On - Duracao: 66720 Nota: C1 Vol.: 95
Chanel 2 Note Off - Duracao: 66780 Nota: C1 Vol.: 49
Chanel 2 Note On - Duracao: 66780 Nota: C1 Vol.: 58
Chanel 5 Note Off - Duracao: 66780 Nota: C1 Vol.: 95
Chanel 5 Note On - Duracao: 66780 Nota: C1 Vol.: 93
Chanel 1 Note Off - Duracao: 66840 Nota: C1 Vol.: 60
Chanel 1 Note On - Duracao: 66840 Nota: C1 Vol.: 60
Chanel 5 Note Off - Duracao: 66840 Nota: C1 Vol.: 93
Chanel 5 Note On - Duracao: 66840 Nota: C1 Vol.: 94
Chanel 2 Note Off - Duracao: 66900 Nota: C1 Vol.: 58
Chanel 2 Note On - Duracao: 66900 Nota: C1 Vol.: 40
Chanel 3 Note Off - Duracao: 66900 Nota: C1 Vol.: 66
Chanel 3 Note On - Duracao: 66900 Nota: C1 Vol.: 60
Chanel 5 Note Off - Duracao: 66900 Nota: C1 Vol.: 94
Chanel 5 Note On - Duracao: 66900 Nota: C1 Vol.: 87
Chanel 4 Note Off - Duracao: 67020 Nota: C1 Vol.: 40
Chanel 4 Note On - Duracao: 67020 Nota: C1 Vol.: 40
Chanel 5 Note Off - Duracao: 67020 Nota: C1 Vol.: 87
Chanel 5 Note On - Duracao: 67020 Nota: C1 Vol.: 54
Chanel 6 Note Off - Duracao: 67020 Nota: C1 Vol.: 48
Chanel 6 Note On - Duracao: 67020 Nota: C1 Vol.: 66
Chanel 1 Note Off - Duracao: 67080 Nota: C1 Vol.: 60
Chanel 1 Note On - Duracao: 67080 Nota: C1 Vol.: 67
Chanel 9 Note Off - Duracao: 67080 Nota: C1 Vol.: 63
Chanel 9 Note On - Duracao: 67080 Nota: C1 Vol.: 69
Chanel 10 Note Off - Duracao: 67080 Nota: C1 Vol.: 57
Chanel 10 Note On - Duracao: 67080 Nota: C1 Vol.: 52
Chanel 1 Note Off - Duracao: 67200 Nota: C1 Vol.: 67
Chanel 1 Note On - Duracao: 67200 Nota: C1 Vol.: 69
Chanel 6 Note Off - Duracao: 67260 Nota: C1 Vol.: 66
Chanel 6 Note On - Duracao: 67260 Nota: C1 Vol.: 65
Chanel 1 Note Off - Duracao: 67320 Nota: C1 Vol.: 69
Chanel 1 Note On - Duracao: 67320 Nota: C1 Vol.: 71
Chanel 3 Note Off - Duracao: 67380 Nota: C1 Vol.: 60
Chanel 3 Note On - Duracao: 67380 Nota: C1 Vol.: 57
Chanel 1 Note Off - Duracao: 67440 Nota: C1 Vol.: 71
Chanel 1 Note On - Duracao: 67440 Nota: C1 Vol.: 69
Chanel 6 Note Off - Duracao: 67500 Nota: C1 Vol.: 65
Chanel 6 Note On - Duracao: 67500 Nota: C1 Vol.: 47
Chanel 7 Note Off - Duracao: 67500 Nota: C1 Vol.: 60
Chanel 7 Note On - Duracao: 67500 Nota: C1 Vol.: 58
Chanel 1 Note Off - Duracao: 67560 Nota: C1 Vol.: 69
Chanel 1 Note On - Duracao: 67560 Nota: C1 Vol.: 62
Chanel 9 Note Off - Duracao: 67560 Nota: C1 Vol.: 69
Chanel 9 Note On - Duracao: 67560 Nota: C1 Vol.: 75
Chanel 1 Note Off - Duracao: 67800 Nota: C1 Vol.: 62
Chanel 1 Note On - Duracao: 67800 Nota: C1 Vol.: 67
Chanel 9 Note Off - Duracao: 67800 Nota: C1 Vol.: 75
Chanel 9 Note On - Duracao: 67800 Nota: C1 Vol.: 67
Chanel 2 Note Off - Duracao: 67860 Nota: C1 Vol.: 40
Chanel 2 Note On - Duracao: 67860 Nota: C1 Vol.: 59
Chanel 5 Note Off - Duracao: 67980 Nota: C1 Vol.: 54
Chanel 5 Note On - Duracao: 67980 Nota: C1 Vol.: 54
Chanel 6 Note Off - Duracao: 67980 Nota: C1 Vol.: 47
Chanel 6 Note On - Duracao: 67980 Nota: C1 Vol.: 56
Chanel 1 Note Off - Duracao: 68040 Nota: C1 Vol.: 67
Chanel 1 Note On - Duracao: 68040 Nota: C1 Vol.: 70
Chanel 10 Note Off - Duracao: 68040 Nota: C1 Vol.: 52
Chanel 10 Note On - Duracao: 68040 Nota: C1 Vol.: 52
Chanel 1 Note Off - Duracao: 68280 Nota: C1 Vol.: 70
Chanel 1 Note On - Duracao: 68280 Nota: C1 Vol.: 84
Chanel 9 Note Off - Duracao: 68280 Nota: C1 Vol.: 67
Chanel 9 Note On - Duracao: 68280 Nota: C1 Vol.: 75
Chanel 2 Note Off - Duracao: 68340 Nota: C1 Vol.: 59
Chanel 2 Note On - Duracao: 68340 Nota: C1 Vol.: 65
Chanel 3 Note Off - Duracao: 68340 Nota: C1 Vol.: 57
Chanel 3 Note On - Duracao: 68340 Nota: C1 Vol.: 60
Chanel 1 Note Off - Duracao: 68400 Nota: C1 Vol.: 84
Chanel 1 Note On - Duracao: 68400 Nota: C1 Vol.: 89
Chanel 6 Note Off - Duracao: 68460 Nota: C1 Vol.: 56
Chanel 6 Note On - Duracao: 68460 Nota: C1 Vol.: 59
Chanel 1 Note Off - Duracao: 68520 Nota: C1 Vol.: 89
Chanel 1 Note On - Duracao: 68520 Nota: C1 Vol.: 91
Chanel 9 Note Off - Duracao: 68520 Nota: C1 Vol.: 75
Chanel 9 Note On - Duracao: 68520 Nota: C1 Vol.: 61
Chanel 1 Note Off - Duracao: 68640 Nota: C1 Vol.: 91
Chanel 1 Note On - Duracao: 68640 Nota: C1 Vol.: 80
Chanel 6 Note Off - Duracao: 68700 Nota: C1 Vol.: 59
Chanel 6 Note On - Duracao: 68700 Nota: C1 Vol.: 61
Chanel 2 Note Off - Duracao: 68820 Nota: C1 Vol.: 65
Chanel 2 Note On - Duracao: 68820 Nota: C1 Vol.: 73
Chanel 3 Note Off - Duracao: 68820 Nota: C1 Vol.: 60
Chanel 3 Note On - Duracao: 68820 Nota: C1 Vol.: 62
Chanel 1 Note Off - Duracao: 68880 Nota: C1 Vol.: 80
Chanel 1 Note On - Duracao: 68880 Nota: C1 Vol.: 74
Chanel 4 Note Off - Duracao: 68940 Nota: C1 Vol.: 40
Chanel 4 Note On - Duracao: 68940 Nota: C1 Vol.: 43
Chanel 5 Note Off - Duracao: 68940 Nota: C1 Vol.: 54
Chanel 5 Note On - Duracao: 68940 Nota: C1 Vol.: 88
Chanel 6 Note Off - Duracao: 68940 Nota: C1 Vol.: 61
Chanel 6 Note On - Duracao: 68940 Nota: C1 Vol.: 54
Chanel 10 Note Off - Duracao: 69000 Nota: C1 Vol.: 52
Chanel 10 Note On - Duracao: 69000 Nota: C1 Vol.: 61
Chanel 2 Note Off - Duracao: 69060 Nota: C1 Vol.: 73
Chanel 2 Note On - Duracao: 69060 Nota: C1 Vol.: 74
Chanel 5 Note Off - Duracao: 69060 Nota: C1 Vol.: 88
Chanel 5 Note On - Duracao: 69060 Nota: C1 Vol.: 92
Chanel 1 Note Off - Duracao: 69120 Nota: C1 Vol.: 74
Chanel 1 Note On - Duracao: 69120 Nota: C1 Vol.: 72
Chanel 8 Note Off - Duracao: 69120 Nota: C1 Vol.: 45
Chanel 8 Note On - Duracao: 69120 Nota: C1 Vol.: 46
Chanel 5 Note Off - Duracao: 69180 Nota: C1 Vol.: 92
Chanel 5 Note On - Duracao: 69180 Nota: C1 Vol.: 96
Chanel 2 Note Off - Duracao: 69300 Nota: C1 Vol.: 74
Chanel 2 Note On - Duracao: 69300 Nota: C1 Vol.: 70
Chanel 3 Note Off - Duracao: 69300 Nota: C1 Vol.: 62
Chanel 3 Note On - Duracao: 69300 Nota: C1 Vol.: 70
Chanel 5 Note Off - Duracao: 69300 Nota: C1 Vol.: 96
Chanel 5 Note On - Duracao: 69300 Nota: C1 Vol.: 100
Chanel 1 Note Off - Duracao: 69360 Nota: C1 Vol.: 72
Chanel 1 Note On - Duracao: 69360 Nota: C1 Vol.: 68
Chanel 5 Note Off - Duracao: 69360 Nota: C1 Vol.: 100
Chanel 5 Note On - Duracao: 69360 Nota: C1 Vol.: 100
Chanel 5 Note Off - Duracao: 69420 Nota: C1 Vol.: 100
Chanel 5 Note On - Duracao: 69420 Nota: C1 Vol.: 99
Chanel 6 Note Off - Duracao: 69420 Nota: C1 Vol.: 54
Chanel 6 Note On - Duracao: 69420 Nota: C1 Vol.: 57
Chanel 5 Note Off - Duracao: 69480 Nota: C1 Vol.: 99
Chanel 5 Note On - Duracao: 69480 Nota: C1 Vol.: 100
Chanel 9 Note Off - Duracao: 69480 Nota: C1 Vol.: 61
Chanel 9 Note On - Duracao: 69480 Nota: C1 Vol.: 83
Chanel 10 Note Off - Duracao: 69480 Nota: C1 Vol.: 61
Chanel 10 Note On - Duracao: 69480 Nota: C1 Vol.: 54
Chanel 2 Note Off - Duracao: 69540 Nota: C1 Vol.: 70
Chanel 2 Note On - Duracao: 69540 Nota: C1 Vol.: 72
Chanel 3 Note Off - Duracao: 69540 Nota: C1 Vol.: 70
Chanel 3 Note On - Duracao: 69540 Nota: C1 Vol.: 61
Chanel 5 Note Off - Duracao: 69540 Nota: C1 Vol.: 100
Chanel 5 Note On - Duracao: 69540 Nota: C1 Vol.: 99
Chanel 1 Note Off - Duracao: 69600 Nota: C1 Vol.: 68
Chanel 1 Note On - Duracao: 69600 Nota: C1 Vol.: 63
Chanel 5 Note Off - Duracao: 69600 Nota: C1 Vol.: 99
Chanel 5 Note On - Duracao: 69600 Nota: C1 Vol.: 98
Chanel 9 Note Off - Duracao: 69600 Nota: C1 Vol.: 83
Chanel 9 Note On - Duracao: 69600 Nota: C1 Vol.: 83
Chanel 5 Note Off - Duracao: 69660 Nota: C1 Vol.: 98
Chanel 5 Note On - Duracao: 69660 Nota: C1 Vol.: 96
Chanel 6 Note Off - Duracao: 69660 Nota: C1 Vol.: 57
Chanel 6 Note On - Duracao: 69660 Nota: C1 Vol.: 58
Chanel 5 Note Off - Duracao: 69720 Nota: C1 Vol.: 96
Chanel 5 Note On - Duracao: 69720 Nota: C1 Vol.: 96
Chanel 2 Note Off - Duracao: 69780 Nota: C1 Vol.: 72
Chanel 2 Note On - Duracao: 69780 Nota: C1 Vol.: 76
Chanel 5 Note Off - Duracao: 69780 Nota: C1 Vol.: 96
Chanel 5 Note On - Duracao: 69780 Nota: C1 Vol.: 53
Chanel 1 Note Off - Duracao: 69840 Nota: C1 Vol.: 63
Chanel 1 Note On - Duracao: 69840 Nota: C1 Vol.: 69
Chanel 9 Note Off - Duracao: 69840 Nota: C1 Vol.: 83
Chanel 9 Note On - Duracao: 69840 Nota: C1 Vol.: 65
Chanel 6 Note Off - Duracao: 69900 Nota: C1 Vol.: 58
Chanel 6 Note On - Duracao: 69900 Nota: C1 Vol.: 56
Chanel 2 Note Off - Duracao: 70020 Nota: C1 Vol.: 76
Chanel 2 Note On - Duracao: 70020 Nota: C1 Vol.: 78
Chanel 3 Note Off - Duracao: 70020 Nota: C1 Vol.: 61
Chanel 3 Note On - Duracao: 70020 Nota: C1 Vol.: 59
Chanel 1 Note Off - Duracao: 70080 Nota: C1 Vol.: 69
Chanel 1 Note On - Duracao: 70080 Nota: C1 Vol.: 77
Chanel 1 Note Off - Duracao: 70200 Nota: C1 Vol.: 77
Chanel 1 Note On - Duracao: 70200 Nota: C1 Vol.: 71
Chanel 2 Note Off - Duracao: 70260 Nota: C1 Vol.: 78
Chanel 2 Note On - Duracao: 70260 Nota: C1 Vol.: 75
Chanel 9 Note Off - Duracao: 70320 Nota: C1 Vol.: 65
Chanel 9 Note On - Duracao: 70320 Nota: C1 Vol.: 68
Chanel 6 Note Off - Duracao: 70380 Nota: C1 Vol.: 56
Chanel 6 Note On - Duracao: 70380 Nota: C1 Vol.: 57
Chanel 1 Note Off - Duracao: 70440 Nota: C1 Vol.: 71
Chanel 1 Note On - Duracao: 70440 Nota: C1 Vol.: 69
Chanel 10 Note Off - Duracao: 70440 Nota: C1 Vol.: 54
Chanel 10 Note On - Duracao: 70440 Nota: C1 Vol.: 55
Chanel 2 Note Off - Duracao: 70500 Nota: C1 Vol.: 75
Chanel 2 Note On - Duracao: 70500 Nota: C1 Vol.: 75
Chanel 3 Note Off - Duracao: 70500 Nota: C1 Vol.: 59
Chanel 3 Note On - Duracao: 70500 Nota: C1 Vol.: 57
Chanel 1 Note Off - Duracao: 70680 Nota: C1 Vol.: 69
Chanel 1 Note On - Duracao: 70680 Nota: C1 Vol.: 72
Chanel 2 Note Off - Duracao: 70740 Nota: C1 Vol.: 75
Chanel 2 Note On - Duracao: 70740 Nota: C1 Vol.: 71
Chanel 9 Note Off - Duracao: 70800 Nota: C1 Vol.: 68
Chanel 9 Note On - Duracao: 70800 Nota: C1 Vol.: 71
Chanel 6 Note Off - Duracao: 70860 Nota: C1 Vol.: 57
Chanel 6 Note On - Duracao: 70860 Nota: C1 Vol.: 41
Chanel 1 Note Off - Duracao: 70920 Nota: C1 Vol.: 72
Chanel 1 Note On - Duracao: 70920 Nota: C1 Vol.: 78
Chanel 2 Note Off - Duracao: 70980 Nota: C1 Vol.: 71
Chanel 2 Note On - Duracao: 70980 Nota: C1 Vol.: 64
Chanel 3 Note Off - Duracao: 70980 Nota: C1 Vol.: 57
Chanel 3 Note On - Duracao: 70980 Nota: C1 Vol.: 64
Chanel 8 Note Off - Duracao: 71040 Nota: C1 Vol.: 46
Chanel 8 Note On - Duracao: 71040 Nota: C1 Vol.: 44
Chanel 9 Note Off - Duracao: 71040 Nota: C1 Vol.: 71
Chanel 9 Note On - Duracao: 71040 Nota: C1 Vol.: 54
Chanel 1 Note Off - Duracao: 71160 Nota: C1 Vol.: 78
Chanel 1 Note On - Duracao: 71160 Nota: C1 Vol.: 84
Chanel 2 Note Off - Duracao: 71220 Nota: C1 Vol.: 64
Chanel 2 Note On - Duracao: 71220 Nota: C1 Vol.: 64
Chanel 3 Note Off - Duracao: 71220 Nota: C1 Vol.: 64
Chanel 3 Note On - Duracao: 71220 Nota: C1 Vol.: 60
Chanel 1 Note Off - Duracao: 71280 Nota: C1 Vol.: 84
Chanel 1 Note On - Duracao: 71280 Nota: C1 Vol.: 94
Chanel 1 Note Off - Duracao: 71340 Nota: C1 Vol.: 94
Chanel 1 Note On - Duracao: 71340 Nota: C1 Vol.: 96
Chanel 7 Note Off - Duracao: 71340 Nota: C1 Vol.: 58
Chanel 7 Note On - Duracao: 71340 Nota: C1 Vol.: 62
Chanel 1 Note Off - Duracao: 71400 Nota: C1 Vol.: 96
Chanel 1 Note On - Duracao: 71400 Nota: C1 Vol.: 98
Chanel 10 Note Off - Duracao: 71400 Nota: C1 Vol.: 55
Chanel 10 Note On - Duracao: 71400 Nota: C1 Vol.: 65
Chanel 1 Note Off - Duracao: 71460 Nota: C1 Vol.: 98
Chanel 1 Note On - Duracao: 71460 Nota: C1 Vol.: 98
Chanel 2 Note Off - Duracao: 71460 Nota: C1 Vol.: 64
Chanel 2 Note On - Duracao: 71460 Nota: C1 Vol.: 67
Chanel 1 Note Off - Duracao: 71520 Nota: C1 Vol.: 98
Chanel 1 Note On - Duracao: 71520 Nota: C1 Vol.: 96
Chanel 1 Note Off - Duracao: 71580 Nota: C1 Vol.: 96
Chanel 1 Note On - Duracao: 71580 Nota: C1 Vol.: 94
Chanel 2 Note Off - Duracao: 71580 Nota: C1 Vol.: 67
Chanel 2 Note On - Duracao: 71580 Nota: C1 Vol.: 69
Chanel 1 Note Off - Duracao: 71640 Nota: C1 Vol.: 94
Chanel 1 Note On - Duracao: 71640 Nota: C1 Vol.: 62
Chanel 2 Note Off - Duracao: 71700 Nota: C1 Vol.: 69
Chanel 2 Note On - Duracao: 71700 Nota: C1 Vol.: 65
Chanel 3 Note Off - Duracao: 71700 Nota: C1 Vol.: 60
Chanel 3 Note On - Duracao: 71700 Nota: C1 Vol.: 56
Chanel 5 Note Off - Duracao: 71700 Nota: C1 Vol.: 53
Chanel 5 Note On - Duracao: 71700 Nota: C1 Vol.: 67
Chanel 2 Note Off - Duracao: 71820 Nota: C1 Vol.: 65
Chanel 2 Note On - Duracao: 71820 Nota: C1 Vol.: 58
Chanel 6 Note Off - Duracao: 71820 Nota: C1 Vol.: 41
Chanel 6 Note On - Duracao: 71820 Nota: C1 Vol.: 53
Chanel 10 Note Off - Duracao: 71880 Nota: C1 Vol.: 65
Chanel 10 Note On - Duracao: 71880 Nota: C1 Vol.: 56
Chanel 9 Note Off - Duracao: 72000 Nota: C1 Vol.: 54
Chanel 9 Note On - Duracao: 72000 Nota: C1 Vol.: 62
Chanel 2 Note Off - Duracao: 72060 Nota: C1 Vol.: 58
Chanel 2 Note On - Duracao: 72060 Nota: C1 Vol.: 99
Chanel 1 Note Off - Duracao: 72120 Nota: C1 Vol.: 62
Chanel 1 Note On - Duracao: 72120 Nota: C1 Vol.: 43
Chanel 2 Note Off - Duracao: 72180 Nota: C1 Vol.: 99
Chanel 2 Note On - Duracao: 72180 Nota: C1 Vol.: 98
Chanel 3 Note Off - Duracao: 72180 Nota: C1 Vol.: 56
Chanel 3 Note On - Duracao: 72180 Nota: C1 Vol.: 67
Chanel 5 Note Off - Duracao: 72180 Nota: C1 Vol.: 67
Chanel 5 Note On - Duracao: 72180 Nota: C1 Vol.: 91
Chanel 2 Note Off - Duracao: 72300 Nota: C1 Vol.: 98
Chanel 2 Note On - Duracao: 72300 Nota: C1 Vol.: 89
Chanel 5 Note Off - Duracao: 72300 Nota: C1 Vol.: 91
Chanel 5 Note On - Duracao: 72300 Nota: C1 Vol.: 92
Chanel 6 Note Off - Duracao: 72300 Nota: C1 Vol.: 53
Chanel 6 Note On - Duracao: 72300 Nota: C1 Vol.: 52
Chanel 5 Note Off - Duracao: 72360 Nota: C1 Vol.: 92
Chanel 5 Note On - Duracao: 72360 Nota: C1 Vol.: 72
Chanel 2 Note Off - Duracao: 72420 Nota: C1 Vol.: 89
Chanel 2 Note On - Duracao: 72420 Nota: C1 Vol.: 80
Chanel 3 Note Off - Duracao: 72420 Nota: C1 Vol.: 67
Chanel 3 Note On - Duracao: 72420 Nota: C1 Vol.: 76
Chanel 9 Note Off - Duracao: 72480 Nota: C1 Vol.: 62
Chanel 9 Note On - Duracao: 72480 Nota: C1 Vol.: 66
Chanel 5 Note Off - Duracao: 72600 Nota: C1 Vol.: 72
Chanel 5 Note On - Duracao: 72600 Nota: C1 Vol.: 66
Chanel 2 Note Off - Duracao: 72660 Nota: C1 Vol.: 80
Chanel 2 Note On - Duracao: 72660 Nota: C1 Vol.: 76
Chanel 3 Note Off - Duracao: 72660 Nota: C1 Vol.: 76
Chanel 3 Note On - Duracao: 72660 Nota: C1 Vol.: 88
Chanel 3 Note Off - Duracao: 72780 Nota: C1 Vol.: 88
Chanel 3 Note On - Duracao: 72780 Nota: C1 Vol.: 95
Chanel 4 Note Off - Duracao: 72780 Nota: C1 Vol.: 43
Chanel 4 Note On - Duracao: 72780 Nota: C1 Vol.: 41
Chanel 6 Note Off - Duracao: 72780 Nota: C1 Vol.: 52
Chanel 6 Note On - Duracao: 72780 Nota: C1 Vol.: 72
Chanel 3 Note Off - Duracao: 72840 Nota: C1 Vol.: 95
Chanel 3 Note On - Duracao: 72840 Nota: C1 Vol.: 86
Chanel 10 Note Off - Duracao: 72840 Nota: C1 Vol.: 56
Chanel 10 Note On - Duracao: 72840 Nota: C1 Vol.: 59
Chanel 6 Note Off - Duracao: 72900 Nota: C1 Vol.: 72
Chanel 6 Note On - Duracao: 72900 Nota: C1 Vol.: 59
Chanel 3 Note Off - Duracao: 72960 Nota: C1 Vol.: 86
Chanel 3 Note On - Duracao: 72960 Nota: C1 Vol.: 69
Chanel 8 Note Off - Duracao: 72960 Nota: C1 Vol.: 44
Chanel 8 Note On - Duracao: 72960 Nota: C1 Vol.: 51
Chanel 9 Note Off - Duracao: 72960 Nota: C1 Vol.: 66
Chanel 9 Note On - Duracao: 72960 Nota: C1 Vol.: 66
Chanel 1 Note Off - Duracao: 73080 Nota: C1 Vol.: 43
Chanel 1 Note On - Duracao: 73080 Nota: C1 Vol.: 57
Chanel 5 Note Off - Duracao: 73080 Nota: C1 Vol.: 66
Chanel 5 Note On - Duracao: 73080 Nota: C1 Vol.: 44
Chanel 2 Note Off - Duracao: 73140 Nota: C1 Vol.: 76
Chanel 2 Note On - Duracao: 73140 Nota: C1 Vol.: 80
Chanel 6 Note Off - Duracao: 73140 Nota: C1 Vol.: 59
Chanel 6 Note On - Duracao: 73140 Nota: C1 Vol.: 52
Chanel 3 Note Off - Duracao: 73200 Nota: C1 Vol.: 69
Chanel 3 Note On - Duracao: 73200 Nota: C1 Vol.: 74
Chanel 1 Note Off - Duracao: 73320 Nota: C1 Vol.: 57
Chanel 1 Note On - Duracao: 73320 Nota: C1 Vol.: 54
Chanel 10 Note Off - Duracao: 73320 Nota: C1 Vol.: 59
Chanel 10 Note On - Duracao: 73320 Nota: C1 Vol.: 57
Chanel 2 Note Off - Duracao: 73380 Nota: C1 Vol.: 80
Chanel 2 Note On - Duracao: 73380 Nota: C1 Vol.: 77
Chanel 1 Note Off - Duracao: 73440 Nota: C1 Vol.: 54
Chanel 1 Note On - Duracao: 73440 Nota: C1 Vol.: 46
Chanel 3 Note Off - Duracao: 73440 Nota: C1 Vol.: 74
Chanel 3 Note On - Duracao: 73440 Nota: C1 Vol.: 70
Chanel 9 Note Off - Duracao: 73440 Nota: C1 Vol.: 66
Chanel 9 Note On - Duracao: 73440 Nota: C1 Vol.: 67
Chanel 1 Note Off - Duracao: 73560 Nota: C1 Vol.: 46
Chanel 1 Note On - Duracao: 73560 Nota: C1 Vol.: 46
Chanel 2 Note Off - Duracao: 73620 Nota: C1 Vol.: 77
Chanel 2 Note On - Duracao: 73620 Nota: C1 Vol.: 80
Chanel 6 Note Off - Duracao: 73620 Nota: C1 Vol.: 52
Chanel 6 Note On - Duracao: 73620 Nota: C1 Vol.: 60
Chanel 1 Note Off - Duracao: 73680 Nota: C1 Vol.: 46
Chanel 1 Note On - Duracao: 73680 Nota: C1 Vol.: 46
Chanel 3 Note Off - Duracao: 73680 Nota: C1 Vol.: 70
Chanel 3 Note On - Duracao: 73680 Nota: C1 Vol.: 66
Chanel 1 Note Off - Duracao: 73800 Nota: C1 Vol.: 46
Chanel 1 Note On - Duracao: 73800 Nota: C1 Vol.: 48
Chanel 2 Note Off - Duracao: 73860 Nota: C1 Vol.: 80
Chanel 2 Note On - Duracao: 73860 Nota: C1 Vol.: 76
Chanel 6 Note Off - Duracao: 73860 Nota: C1 Vol.: 60
Chanel 6 Note On - Duracao: 73860 Nota: C1 Vol.: 53
Chanel 1 Note Off - Duracao: 73920 Nota: C1 Vol.: 48
Chanel 1 Note On - Duracao: 73920 Nota: C1 Vol.: 43
Chanel 3 Note Off - Duracao: 73920 Nota: C1 Vol.: 66
Chanel 3 Note On - Duracao: 73920 Nota: C1 Vol.: 64
Chanel 8 Note Off - Duracao: 73920 Nota: C1 Vol.: 51
Chanel 8 Note On - Duracao: 73920 Nota: C1 Vol.: 54
Chanel 9 Note Off - Duracao: 73920 Nota: C1 Vol.: 67
Chanel 9 Note On - Duracao: 73920 Nota: C1 Vol.: 59
Chanel 1 Note Off - Duracao: 74040 Nota: C1 Vol.: 43
Chanel 1 Note On - Duracao: 74040 Nota: C1 Vol.: 41
Chanel 2 Note Off - Duracao: 74100 Nota: C1 Vol.: 76
Chanel 2 Note On - Duracao: 74100 Nota: C1 Vol.: 77
Chanel 1 Note Off - Duracao: 74160 Nota: C1 Vol.: 41
Chanel 1 Note On - Duracao: 74160 Nota: C1 Vol.: 45
Chanel 3 Note Off - Duracao: 74160 Nota: C1 Vol.: 64
Chanel 3 Note On - Duracao: 74160 Nota: C1 Vol.: 60
Chanel 1 Note Off - Duracao: 74280 Nota: C1 Vol.: 45
Chanel 1 Note On - Duracao: 74280 Nota: C1 Vol.: 49
Chanel 10 Note Off - Duracao: 74280 Nota: C1 Vol.: 57
Chanel 10 Note On - Duracao: 74280 Nota: C1 Vol.: 67
Chanel 2 Note Off - Duracao: 74340 Nota: C1 Vol.: 77
Chanel 2 Note On - Duracao: 74340 Nota: C1 Vol.: 82
Chanel 6 Note Off - Duracao: 74340 Nota: C1 Vol.: 53
Chanel 6 Note On - Duracao: 74340 Nota: C1 Vol.: 54
Chanel 1 Note Off - Duracao: 74400 Nota: C1 Vol.: 49
Chanel 1 Note On - Duracao: 74400 Nota: C1 Vol.: 53
Chanel 8 Note Off - Duracao: 74400 Nota: C1 Vol.: 54
Chanel 8 Note On - Duracao: 74400 Nota: C1 Vol.: 59
Chanel 1 Note Off - Duracao: 74520 Nota: C1 Vol.: 53
Chanel 1 Note On - Duracao: 74520 Nota: C1 Vol.: 57
Chanel 10 Note Off - Duracao: 74520 Nota: C1 Vol.: 67
Chanel 10 Note On - Duracao: 74520 Nota: C1 Vol.: 56
Chanel 2 Note Off - Duracao: 74580 Nota: C1 Vol.: 82
Chanel 2 Note On - Duracao: 74580 Nota: C1 Vol.: 83
Chanel 1 Note Off - Duracao: 74640 Nota: C1 Vol.: 57
Chanel 1 Note On - Duracao: 74640 Nota: C1 Vol.: 61
Chanel 3 Note Off - Duracao: 74640 Nota: C1 Vol.: 60
Chanel 3 Note On - Duracao: 74640 Nota: C1 Vol.: 61
Chanel 1 Note Off - Duracao: 74760 Nota: C1 Vol.: 61
Chanel 1 Note On - Duracao: 74760 Nota: C1 Vol.: 48
Chanel 2 Note Off - Duracao: 74820 Nota: C1 Vol.: 83
Chanel 2 Note On - Duracao: 74820 Nota: C1 Vol.: 82
Chanel 6 Note Off - Duracao: 74820 Nota: C1 Vol.: 54
Chanel 6 Note On - Duracao: 74820 Nota: C1 Vol.: 70
Chanel 3 Note Off - Duracao: 74880 Nota: C1 Vol.: 61
Chanel 3 Note On - Duracao: 74880 Nota: C1 Vol.: 41
Chanel 8 Note Off - Duracao: 74880 Nota: C1 Vol.: 59
Chanel 8 Note On - Duracao: 74880 Nota: C1 Vol.: 59
Chanel 9 Note Off - Duracao: 74880 Nota: C1 Vol.: 59
Chanel 9 Note On - Duracao: 74880 Nota: C1 Vol.: 61
Chanel 5 Note Off - Duracao: 75000 Nota: C1 Vol.: 44
Chanel 5 Note On - Duracao: 75000 Nota: C1 Vol.: 81
Chanel 10 Note Off - Duracao: 75000 Nota: C1 Vol.: 56
Chanel 10 Note On - Duracao: 75000 Nota: C1 Vol.: 63
Chanel 2 Note Off - Duracao: 75060 Nota: C1 Vol.: 82
Chanel 2 Note On - Duracao: 75060 Nota: C1 Vol.: 81
Chanel 6 Note Off - Duracao: 75060 Nota: C1 Vol.: 70
Chanel 6 Note On - Duracao: 75060 Nota: C1 Vol.: 51
Chanel 7 Note Off - Duracao: 75180 Nota: C1 Vol.: 62
Chanel 7 Note On - Duracao: 75180 Nota: C1 Vol.: 68
Chanel 1 Note Off - Duracao: 75240 Nota: C1 Vol.: 48
Chanel 1 Note On - Duracao: 75240 Nota: C1 Vol.: 40
Chanel 5 Note Off - Duracao: 75240 Nota: C1 Vol.: 81
Chanel 5 Note On - Duracao: 75240 Nota: C1 Vol.: 87
Chanel 2 Note Off - Duracao: 75300 Nota: C1 Vol.: 81
Chanel 2 Note On - Duracao: 75300 Nota: C1 Vol.: 81
Chanel 5 Note Off - Duracao: 75360 Nota: C1 Vol.: 87
Chanel 5 Note On - Duracao: 75360 Nota: C1 Vol.: 97
Chanel 8 Note Off - Duracao: 75360 Nota: C1 Vol.: 59
Chanel 8 Note On - Duracao: 75360 Nota: C1 Vol.: 45
Chanel 5 Note Off - Duracao: 75420 Nota: C1 Vol.: 97
Chanel 5 Note On - Duracao: 75420 Nota: C1 Vol.: 99
Chanel 5 Note Off - Duracao: 75480 Nota: C1 Vol.: 99
Chanel 5 Note On - Duracao: 75480 Nota: C1 Vol.: 99
Chanel 10 Note Off - Duracao: 75480 Nota: C1 Vol.: 63
Chanel 10 Note On - Duracao: 75480 Nota: C1 Vol.: 62
Chanel 2 Note Off - Duracao: 75540 Nota: C1 Vol.: 81
Chanel 2 Note On - Duracao: 75540 Nota: C1 Vol.: 73
Chanel 5 Note Off - Duracao: 75540 Nota: C1 Vol.: 99
Chanel 5 Note On - Duracao: 75540 Nota: C1 Vol.: 100
Chanel 5 Note Off - Duracao: 75600 Nota: C1 Vol.: 100
Chanel 5 Note On - Duracao: 75600 Nota: C1 Vol.: 98
Chanel 5 Note Off - Duracao: 75660 Nota: C1 Vol.: 98
Chanel 5 Note On - Duracao: 75660 Nota: C1 Vol.: 98
Chanel 5 Note Off - Duracao: 75720 Nota: C1 Vol.: 98
Chanel 5 Note On - Duracao: 75720 Nota: C1 Vol.: 72
Chanel 3 Note Off - Duracao: 75840 Nota: C1 Vol.: 41
Chanel 3 Note On - Duracao: 75840 Nota: C1 Vol.: 40
Chanel 9 Note Off - Duracao: 75840 Nota: C1 Vol.: 61
Chanel 9 Note On - Duracao: 75840 Nota: C1 Vol.: 62
Chanel 10 Note Off - Duracao: 75960 Nota: C1 Vol.: 62
Chanel 10 Note On - Duracao: 75960 Nota: C1 Vol.: 56
Chanel 2 Note Off - Duracao: 76020 Nota: C1 Vol.: 73
Chanel 2 Note On - Duracao: 76020 Nota: C1 Vol.: 72
Chanel 6 Note Off - Duracao: 76020 Nota: C1 Vol.: 51
Chanel 6 Note On - Duracao: 76020 Nota: C1 Vol.: 57
Chanel 5 Note Off - Duracao: 76200 Nota: C1 Vol.: 72
Chanel 5 Note On - Duracao: 76200 Nota: C1 Vol.: 61
Chanel 2 Note Off - Duracao: 76500 Nota: C1 Vol.: 72
Chanel 2 Note On - Duracao: 76500 Nota: C1 Vol.: 76
Chanel 4 Note Off - Duracao: 76620 Nota: C1 Vol.: 41
Chanel 4 Note On - Duracao: 76620 Nota: C1 Vol.: 44
Chanel 2 Note Off - Duracao: 76740 Nota: C1 Vol.: 76
Chanel 2 Note On - Duracao: 76740 Nota: C1 Vol.: 86
Chanel 9 Note Off - Duracao: 76800 Nota: C1 Vol.: 62
Chanel 9 Note On - Duracao: 76800 Nota: C1 Vol.: 64
Chanel 10 Note Off - Duracao: 76920 Nota: C1 Vol.: 56
Chanel 10 Note On - Duracao: 76920 Nota: C1 Vol.: 69
Chanel 2 Note Off - Duracao: 76980 Nota: C1 Vol.: 86
Chanel 2 Note On - Duracao: 76980 Nota: C1 Vol.: 79
Chanel 6 Note Off - Duracao: 76980 Nota: C1 Vol.: 57
Chanel 6 Note On - Duracao: 76980 Nota: C1 Vol.: 61
Chanel 7 Note Off - Duracao: 77100 Nota: C1 Vol.: 68
Chanel 7 Note On - Duracao: 77100 Nota: C1 Vol.: 71
Chanel 1 Note Off - Duracao: 77160 Nota: C1 Vol.: 40
Chanel 1 Note On - Duracao: 77160 Nota: C1 Vol.: 77
Chanel 5 Note Off - Duracao: 77160 Nota: C1 Vol.: 61
Chanel 5 Note On - Duracao: 77160 Nota: C1 Vol.: 78
Chanel 2 Note Off - Duracao: 77220 Nota: C1 Vol.: 79
Chanel 2 Note On - Duracao: 77220 Nota: C1 Vol.: 77
Chanel 8 Note Off - Duracao: 77280 Nota: C1 Vol.: 45
Chanel 8 Note On - Duracao: 77280 Nota: C1 Vol.: 61
Chanel 1 Note Off - Duracao: 77400 Nota: C1 Vol.: 77
Chanel 1 Note On - Duracao: 77400 Nota: C1 Vol.: 94
Chanel 5 Note Off - Duracao: 77400 Nota: C1 Vol.: 78
Chanel 5 Note On - Duracao: 77400 Nota: C1 Vol.: 97
Chanel 10 Note Off - Duracao: 77400 Nota: C1 Vol.: 69
Chanel 10 Note On - Duracao: 77400 Nota: C1 Vol.: 61
Chanel 1 Note Off - Duracao: 77460 Nota: C1 Vol.: 94
Chanel 1 Note On - Duracao: 77460 Nota: C1 Vol.: 95
Chanel 5 Note Off - Duracao: 77460 Nota: C1 Vol.: 97
Chanel 5 Note On - Duracao: 77460 Nota: C1 Vol.: 95
Chanel 1 Note Off - Duracao: 77520 Nota: C1 Vol.: 95
Chanel 1 Note On - Duracao: 77520 Nota: C1 Vol.: 82
Chanel 5 Note Off - Duracao: 77580 Nota: C1 Vol.: 95
Chanel 5 Note On - Duracao: 77580 Nota: C1 Vol.: 100
Chanel 5 Note Off - Duracao: 77640 Nota: C1 Vol.: 100
Chanel 5 Note On - Duracao: 77640 Nota: C1 Vol.: 98
Chanel 2 Note Off - Duracao: 77700 Nota: C1 Vol.: 77
Chanel 2 Note On - Duracao: 77700 Nota: C1 Vol.: 81
Chanel 5 Note Off - Duracao: 77700 Nota: C1 Vol.: 98
Chanel 5 Note On - Duracao: 77700 Nota: C1 Vol.: 98
Chanel 1 Note Off - Duracao: 77760 Nota: C1 Vol.: 82
Chanel 1 Note On - Duracao: 77760 Nota: C1 Vol.: 81
Chanel 3 Note Off - Duracao: 77760 Nota: C1 Vol.: 40
Chanel 3 Note On - Duracao: 77760 Nota: C1 Vol.: 44
Chanel 5 Note Off - Duracao: 77760 Nota: C1 Vol.: 98
Chanel 5 Note On - Duracao: 77760 Nota: C1 Vol.: 94
Chanel 9 Note Off - Duracao: 77760 Nota: C1 Vol.: 64
Chanel 9 Note On - Duracao: 77760 Nota: C1 Vol.: 61
Chanel 5 Note Off - Duracao: 77880 Nota: C1 Vol.: 94
Chanel 5 Note On - Duracao: 77880 Nota: C1 Vol.: 93
Chanel 10 Note Off - Duracao: 77880 Nota: C1 Vol.: 61
Chanel 10 Note On - Duracao: 77880 Nota: C1 Vol.: 64
Chanel 2 Note Off - Duracao: 77940 Nota: C1 Vol.: 81
Chanel 2 Note On - Duracao: 77940 Nota: C1 Vol.: 91
Chanel 6 Note Off - Duracao: 77940 Nota: C1 Vol.: 61
Chanel 6 Note On - Duracao: 77940 Nota: C1 Vol.: 75
Chanel 1 Note Off - Duracao: 78000 Nota: C1 Vol.: 81
Chanel 1 Note On - Duracao: 78000 Nota: C1 Vol.: 79
Chanel 5 Note Off - Duracao: 78000 Nota: C1 Vol.: 93
Chanel 5 Note On - Duracao: 78000 Nota: C1 Vol.: 95
Chanel 2 Note Off - Duracao: 78060 Nota: C1 Vol.: 91
Chanel 2 Note On - Duracao: 78060 Nota: C1 Vol.: 95
Chanel 2 Note Off - Duracao: 78120 Nota: C1 Vol.: 95
Chanel 2 Note On - Duracao: 78120 Nota: C1 Vol.: 98
Chanel 5 Note Off - Duracao: 78120 Nota: C1 Vol.: 95
Chanel 5 Note On - Duracao: 78120 Nota: C1 Vol.: 99
Chanel 2 Note Off - Duracao: 78180 Nota: C1 Vol.: 98
Chanel 2 Note On - Duracao: 78180 Nota: C1 Vol.: 87
Chanel 5 Note Off - Duracao: 78180 Nota: C1 Vol.: 99
Chanel 5 Note On - Duracao: 78180 Nota: C1 Vol.: 97
Chanel 1 Note Off - Duracao: 78240 Nota: C1 Vol.: 79
Chanel 1 Note On - Duracao: 78240 Nota: C1 Vol.: 82
Chanel 8 Note Off - Duracao: 78240 Nota: C1 Vol.: 61
Chanel 8 Note On - Duracao: 78240 Nota: C1 Vol.: 65
Chanel 2 Note Off - Duracao: 78300 Nota: C1 Vol.: 87
Chanel 2 Note On - Duracao: 78300 Nota: C1 Vol.: 86
Chanel 5 Note Off - Duracao: 78300 Nota: C1 Vol.: 97
Chanel 5 Note On - Duracao: 78300 Nota: C1 Vol.: 87
Chanel 10 Note Off - Duracao: 78360 Nota: C1 Vol.: 64
Chanel 10 Note On - Duracao: 78360 Nota: C1 Vol.: 64
Chanel 2 Note Off - Duracao: 78420 Nota: C1 Vol.: 86
Chanel 2 Note On - Duracao: 78420 Nota: C1 Vol.: 71
Chanel 5 Note Off - Duracao: 78420 Nota: C1 Vol.: 87
Chanel 5 Note On - Duracao: 78420 Nota: C1 Vol.: 68
Chanel 6 Note Off - Duracao: 78420 Nota: C1 Vol.: 75
Chanel 6 Note On - Duracao: 78420 Nota: C1 Vol.: 66
Chanel 1 Note Off - Duracao: 78480 Nota: C1 Vol.: 82
Chanel 1 Note On - Duracao: 78480 Nota: C1 Vol.: 88
Chanel 4 Note Off - Duracao: 78540 Nota: C1 Vol.: 44
Chanel 4 Note On - Duracao: 78540 Nota: C1 Vol.: 45
Chanel 1 Note Off - Duracao: 78600 Nota: C1 Vol.: 88
Chanel 1 Note On - Duracao: 78600 Nota: C1 Vol.: 89
Chanel 2 Note Off - Duracao: 78660 Nota: C1 Vol.: 71
Chanel 2 Note On - Duracao: 78660 Nota: C1 Vol.: 63
Chanel 1 Note Off - Duracao: 78720 Nota: C1 Vol.: 89
Chanel 1 Note On - Duracao: 78720 Nota: C1 Vol.: 89
Chanel 3 Note Off - Duracao: 78720 Nota: C1 Vol.: 44
Chanel 3 Note On - Duracao: 78720 Nota: C1 Vol.: 40
Chanel 9 Note Off - Duracao: 78720 Nota: C1 Vol.: 61
Chanel 9 Note On - Duracao: 78720 Nota: C1 Vol.: 61
Chanel 1 Note Off - Duracao: 78840 Nota: C1 Vol.: 89
Chanel 1 Note On - Duracao: 78840 Nota: C1 Vol.: 89
Chanel 10 Note Off - Duracao: 78840 Nota: C1 Vol.: 64
Chanel 10 Note On - Duracao: 78840 Nota: C1 Vol.: 56
Chanel 2 Note Off - Duracao: 78900 Nota: C1 Vol.: 63
Chanel 2 Note On - Duracao: 78900 Nota: C1 Vol.: 64
Chanel 5 Note Off - Duracao: 78900 Nota: C1 Vol.: 68
Chanel 5 Note On - Duracao: 78900 Nota: C1 Vol.: 68
Chanel 1 Note Off - Duracao: 78960 Nota: C1 Vol.: 89
Chanel 1 Note On - Duracao: 78960 Nota: C1 Vol.: 94
Chanel 2 Note Off - Duracao: 79020 Nota: C1 Vol.: 64
Chanel 2 Note On - Duracao: 79020 Nota: C1 Vol.: 62
Chanel 7 Note Off - Duracao: 79020 Nota: C1 Vol.: 71
Chanel 7 Note On - Duracao: 79020 Nota: C1 Vol.: 71
Chanel 1 Note Off - Duracao: 79080 Nota: C1 Vol.: 94
Chanel 1 Note On - Duracao: 79080 Nota: C1 Vol.: 95
Chanel 1 Note Off - Duracao: 79140 Nota: C1 Vol.: 95
Chanel 1 Note On - Duracao: 79140 Nota: C1 Vol.: 92
Chanel 2 Note Off - Duracao: 79140 Nota: C1 Vol.: 62
Chanel 2 Note On - Duracao: 79140 Nota: C1 Vol.: 61
Chanel 5 Note Off - Duracao: 79140 Nota: C1 Vol.: 68
Chanel 5 Note On - Duracao: 79140 Nota: C1 Vol.: 51
Chanel 8 Note Off - Duracao: 79200 Nota: C1 Vol.: 65
Chanel 8 Note On - Duracao: 79200 Nota: C1 Vol.: 58
Chanel 1 Note Off - Duracao: 79260 Nota: C1 Vol.: 92
Chanel 1 Note On - Duracao: 79260 Nota: C1 Vol.: 97
Chanel 2 Note Off - Duracao: 79260 Nota: C1 Vol.: 61
Chanel 2 Note On - Duracao: 79260 Nota: C1 Vol.: 59
Chanel 1 Note Off - Duracao: 79320 Nota: C1 Vol.: 97
Chanel 1 Note On - Duracao: 79320 Nota: C1 Vol.: 91
Chanel 2 Note Off - Duracao: 79380 Nota: C1 Vol.: 59
Chanel 2 Note On - Duracao: 79380 Nota: C1 Vol.: 63
Chanel 6 Note Off - Duracao: 79380 Nota: C1 Vol.: 66
Chanel 6 Note On - Duracao: 79380 Nota: C1 Vol.: 89
Chanel 1 Note Off - Duracao: 79440 Nota: C1 Vol.: 91
Chanel 1 Note On - Duracao: 79440 Nota: C1 Vol.: 83
Chanel 2 Note Off - Duracao: 79500 Nota: C1 Vol.: 63
Chanel 2 Note On - Duracao: 79500 Nota: C1 Vol.: 61
Chanel 6 Note Off - Duracao: 79500 Nota: C1 Vol.: 89
Chanel 6 Note On - Duracao: 79500 Nota: C1 Vol.: 70
Chanel 2 Note Off - Duracao: 79620 Nota: C1 Vol.: 61
Chanel 2 Note On - Duracao: 79620 Nota: C1 Vol.: 60
Chanel 1 Note Off - Duracao: 79680 Nota: C1 Vol.: 83
Chanel 1 Note On - Duracao: 79680 Nota: C1 Vol.: 92
Chanel 8 Note Off - Duracao: 79680 Nota: C1 Vol.: 58
Chanel 8 Note On - Duracao: 79680 Nota: C1 Vol.: 87
Chanel 9 Note Off - Duracao: 79680 Nota: C1 Vol.: 61
Chanel 9 Note On - Duracao: 79680 Nota: C1 Vol.: 64
Chanel 1 Note Off - Duracao: 79740 Nota: C1 Vol.: 92
Chanel 1 Note On - Duracao: 79740 Nota: C1 Vol.: 89
Chanel 8 Note Off - Duracao: 79740 Nota: C1 Vol.: 87
Chanel 8 Note On - Duracao: 79740 Nota: C1 Vol.: 87
Chanel 10 Note Off - Duracao: 79800 Nota: C1 Vol.: 56
Chanel 10 Note On - Duracao: 79800 Nota: C1 Vol.: 54
Chanel 1 Note Off - Duracao: 79860 Nota: C1 Vol.: 89
Chanel 1 Note On - Duracao: 79860 Nota: C1 Vol.: 90
Chanel 2 Note Off - Duracao: 79860 Nota: C1 Vol.: 60
Chanel 2 Note On - Duracao: 79860 Nota: C1 Vol.: 54
Chanel 8 Note Off - Duracao: 79860 Nota: C1 Vol.: 87
Chanel 8 Note On - Duracao: 79860 Nota: C1 Vol.: 90
Chanel 1 Note Off - Duracao: 79980 Nota: C1 Vol.: 90
Chanel 1 Note On - Duracao: 79980 Nota: C1 Vol.: 91
Chanel 6 Note Off - Duracao: 79980 Nota: C1 Vol.: 70
Chanel 6 Note On - Duracao: 79980 Nota: C1 Vol.: 58
Chanel 8 Note Off - Duracao: 79980 Nota: C1 Vol.: 90
Chanel 8 Note On - Duracao: 79980 Nota: C1 Vol.: 94
Chanel 8 Note Off - Duracao: 80040 Nota: C1 Vol.: 94
Chanel 8 Note On - Duracao: 80040 Nota: C1 Vol.: 86
Chanel 1 Note Off - Duracao: 80100 Nota: C1 Vol.: 91
Chanel 1 Note On - Duracao: 80100 Nota: C1 Vol.: 84
Chanel 2 Note Off - Duracao: 80100 Nota: C1 Vol.: 54
Chanel 2 Note On - Duracao: 80100 Nota: C1 Vol.: 68
Chanel 5 Note Off - Duracao: 80100 Nota: C1 Vol.: 51
Chanel 5 Note On - Duracao: 80100 Nota: C1 Vol.: 53
Chanel 8 Note Off - Duracao: 80160 Nota: C1 Vol.: 86
Chanel 8 Note On - Duracao: 80160 Nota: C1 Vol.: 80
Chanel 1 Note Off - Duracao: 80220 Nota: C1 Vol.: 84
Chanel 1 Note On - Duracao: 80220 Nota: C1 Vol.: 88
Chanel 2 Note Off - Duracao: 80220 Nota: C1 Vol.: 68
Chanel 2 Note On - Duracao: 80220 Nota: C1 Vol.: 55
Chanel 1 Note Off - Duracao: 80340 Nota: C1 Vol.: 88
Chanel 1 Note On - Duracao: 80340 Nota: C1 Vol.: 95
Chanel 1 Note Off - Duracao: 80400 Nota: C1 Vol.: 95
Chanel 1 Note On - Duracao: 80400 Nota: C1 Vol.: 93
Chanel 8 Note Off - Duracao: 80400 Nota: C1 Vol.: 80
Chanel 8 Note On - Duracao: 80400 Nota: C1 Vol.: 86
Chanel 2 Note Off - Duracao: 80460 Nota: C1 Vol.: 55
Chanel 2 Note On - Duracao: 80460 Nota: C1 Vol.: 59
Chanel 4 Note Off - Duracao: 80460 Nota: C1 Vol.: 45
Chanel 4 Note On - Duracao: 80460 Nota: C1 Vol.: 51
Chanel 1 Note Off - Duracao: 80520 Nota: C1 Vol.: 93
Chanel 1 Note On - Duracao: 80520 Nota: C1 Vol.: 97
Chanel 8 Note Off - Duracao: 80520 Nota: C1 Vol.: 86
Chanel 8 Note On - Duracao: 80520 Nota: C1 Vol.: 91
Chanel 1 Note Off - Duracao: 80580 Nota: C1 Vol.: 97
Chanel 1 Note On - Duracao: 80580 Nota: C1 Vol.: 98
Chanel 1 Note Off - Duracao: 80640 Nota: C1 Vol.: 98
Chanel 1 Note On - Duracao: 80640 Nota: C1 Vol.: 97
Chanel 3 Note Off - Duracao: 80640 Nota: C1 Vol.: 40
Chanel 3 Note On - Duracao: 80640 Nota: C1 Vol.: 61
Chanel 8 Note Off - Duracao: 80640 Nota: C1 Vol.: 91
Chanel 8 Note On - Duracao: 80640 Nota: C1 Vol.: 78
Chanel 9 Note Off - Duracao: 80640 Nota: C1 Vol.: 64
Chanel 9 Note On - Duracao: 80640 Nota: C1 Vol.: 69
Chanel 1 Note Off - Duracao: 80700 Nota: C1 Vol.: 97
Chanel 1 Note On - Duracao: 80700 Nota: C1 Vol.: 97
Chanel 10 Note Off - Duracao: 80760 Nota: C1 Vol.: 54
Chanel 10 Note On - Duracao: 80760 Nota: C1 Vol.: 43
Chanel 1 Note Off - Duracao: 80820 Nota: C1 Vol.: 97
Chanel 1 Note On - Duracao: 80820 Nota: C1 Vol.: 99
Chanel 1 Note Off - Duracao: 80880 Nota: C1 Vol.: 99
Chanel 1 Note On - Duracao: 80880 Nota: C1 Vol.: 98
Chanel 8 Note Off - Duracao: 80880 Nota: C1 Vol.: 78
Chanel 8 Note On - Duracao: 80880 Nota: C1 Vol.: 78
Chanel 1 Note Off - Duracao: 80940 Nota: C1 Vol.: 98
Chanel 1 Note On - Duracao: 80940 Nota: C1 Vol.: 97
Chanel 2 Note Off - Duracao: 80940 Nota: C1 Vol.: 59
Chanel 2 Note On - Duracao: 80940 Nota: C1 Vol.: 75
Chanel 7 Note Off - Duracao: 80940 Nota: C1 Vol.: 71
Chanel 7 Note On - Duracao: 80940 Nota: C1 Vol.: 72
Chanel 1 Note Off - Duracao: 81060 Nota: C1 Vol.: 97
Chanel 1 Note On - Duracao: 81060 Nota: C1 Vol.: 98
Chanel 5 Note Off - Duracao: 81060 Nota: C1 Vol.: 53
Chanel 5 Note On - Duracao: 81060 Nota: C1 Vol.: 52
Chanel 1 Note Off - Duracao: 81120 Nota: C1 Vol.: 98
Chanel 1 Note On - Duracao: 81120 Nota: C1 Vol.: 98
Chanel 3 Note Off - Duracao: 81120 Nota: C1 Vol.: 61
Chanel 3 Note On - Duracao: 81120 Nota: C1 Vol.: 61
Chanel 8 Note Off - Duracao: 81120 Nota: C1 Vol.: 78
Chanel 8 Note On - Duracao: 81120 Nota: C1 Vol.: 78
Chanel 1 Note Off - Duracao: 81180 Nota: C1 Vol.: 98
Chanel 1 Note On - Duracao: 81180 Nota: C1 Vol.: 99
Chanel 2 Note Off - Duracao: 81180 Nota: C1 Vol.: 75
Chanel 2 Note On - Duracao: 81180 Nota: C1 Vol.: 80
Chanel 1 Note Off - Duracao: 81240 Nota: C1 Vol.: 99
Chanel 1 Note On - Duracao: 81240 Nota: C1 Vol.: 98
Chanel 2 Note Off - Duracao: 81300 Nota: C1 Vol.: 80
Chanel 2 Note On - Duracao: 81300 Nota: C1 Vol.: 76
Chanel 1 Note Off - Duracao: 81360 Nota: C1 Vol.: 98
Chanel 1 Note On - Duracao: 81360 Nota: C1 Vol.: 97
Chanel 8 Note Off - Duracao: 81360 Nota: C1 Vol.: 78
Chanel 8 Note On - Duracao: 81360 Nota: C1 Vol.: 84
Chanel 4 Note Off - Duracao: 81420 Nota: C1 Vol.: 51
Chanel 4 Note On - Duracao: 81420 Nota: C1 Vol.: 47
Chanel 1 Note Off - Duracao: 81480 Nota: C1 Vol.: 97
Chanel 1 Note On - Duracao: 81480 Nota: C1 Vol.: 98
Chanel 8 Note Off - Duracao: 81480 Nota: C1 Vol.: 84
Chanel 8 Note On - Duracao: 81480 Nota: C1 Vol.: 93
Chanel 2 Note Off - Duracao: 81540 Nota: C1 Vol.: 76
Chanel 2 Note On - Duracao: 81540 Nota: C1 Vol.: 72
Chanel 8 Note Off - Duracao: 81540 Nota: C1 Vol.: 93
Chanel 8 Note On - Duracao: 81540 Nota: C1 Vol.: 96
Chanel 1 Note Off - Duracao: 81600 Nota: C1 Vol.: 98
Chanel 1 Note On - Duracao: 81600 Nota: C1 Vol.: 100
Chanel 8 Note Off - Duracao: 81600 Nota: C1 Vol.: 96
Chanel 8 Note On - Duracao: 81600 Nota: C1 Vol.: 92
Chanel 9 Note Off - Duracao: 81600 Nota: C1 Vol.: 69
Chanel 9 Note On - Duracao: 81600 Nota: C1 Vol.: 64
Chanel 1 Note Off - Duracao: 81660 Nota: C1 Vol.: 100
Chanel 1 Note On - Duracao: 81660 Nota: C1 Vol.: 100
Chanel 8 Note Off - Duracao: 81660 Nota: C1 Vol.: 92
Chanel 8 Note On - Duracao: 81660 Nota: C1 Vol.: 65
Chanel 1 Note Off - Duracao: 81720 Nota: C1 Vol.: 100
Chanel 1 Note On - Duracao: 81720 Nota: C1 Vol.: 96
Chanel 2 Note Off - Duracao: 81780 Nota: C1 Vol.: 72
Chanel 2 Note On - Duracao: 81780 Nota: C1 Vol.: 76
Chanel 1 Note Off - Duracao: 81840 Nota: C1 Vol.: 96
Chanel 1 Note On - Duracao: 81840 Nota: C1 Vol.: 96
Chanel 1 Note Off - Duracao: 81900 Nota: C1 Vol.: 96
Chanel 1 Note On - Duracao: 81900 Nota: C1 Vol.: 100
Chanel 6 Note Off - Duracao: 81900 Nota: C1 Vol.: 58
Chanel 6 Note On - Duracao: 81900 Nota: C1 Vol.: 59
Chanel 1 Note Off - Duracao: 81960 Nota: C1 Vol.: 100
Chanel 1 Note On - Duracao: 81960 Nota: C1 Vol.: 99
Chanel 1 Note Off - Duracao: 82020 Nota: C1 Vol.: 99
Chanel 1 Note On - Duracao: 82020 Nota: C1 Vol.: 97
Chanel 2 Note Off - Duracao: 82020 Nota: C1 Vol.: 76
Chanel 2 Note On - Duracao: 82020 Nota: C1 Vol.: 70
Chanel 5 Note Off - Duracao: 82020 Nota: C1 Vol.: 52
Chanel 5 Note On - Duracao: 82020 Nota: C1 Vol.: 49
Chanel 3 Note Off - Duracao: 82080 Nota: C1 Vol.: 61
Chanel 3 Note On - Duracao: 82080 Nota: C1 Vol.: 90
Chanel 1 Note Off - Duracao: 82140 Nota: C1 Vol.: 97
Chanel 1 Note On - Duracao: 82140 Nota: C1 Vol.: 93
Chanel 8 Note Off - Duracao: 82140 Nota: C1 Vol.: 65
Chanel 8 Note On - Duracao: 82140 Nota: C1 Vol.: 72
Chanel 3 Note Off - Duracao: 82200 Nota: C1 Vol.: 90
Chanel 3 Note On - Duracao: 82200 Nota: C1 Vol.: 97
Chanel 1 Note Off - Duracao: 82260 Nota: C1 Vol.: 93
Chanel 1 Note On - Duracao: 82260 Nota: C1 Vol.: 99
Chanel 2 Note Off - Duracao: 82260 Nota: C1 Vol.: 70
Chanel 2 Note On - Duracao: 82260 Nota: C1 Vol.: 67
Chanel 3 Note Off - Duracao: 82260 Nota: C1 Vol.: 97
Chanel 3 Note On - Duracao: 82260 Nota: C1 Vol.: 97
Chanel 3 Note Off - Duracao: 82320 Nota: C1 Vol.: 97
Chanel 3 Note On - Duracao: 82320 Nota: C1 Vol.: 85
Chanel 1 Note Off - Duracao: 82380 Nota: C1 Vol.: 99
Chanel 1 Note On - Duracao: 82380 Nota: C1 Vol.: 96
Chanel 4 Note Off - Duracao: 82380 Nota: C1 Vol.: 47
Chanel 4 Note On - Duracao: 82380 Nota: C1 Vol.: 51
Chanel 8 Note Off - Duracao: 82380 Nota: C1 Vol.: 72
Chanel 8 Note On - Duracao: 82380 Nota: C1 Vol.: 61
Chanel 3 Note Off - Duracao: 82440 Nota: C1 Vol.: 85
Chanel 3 Note On - Duracao: 82440 Nota: C1 Vol.: 46
Chanel 1 Note Off - Duracao: 82500 Nota: C1 Vol.: 96
Chanel 1 Note On - Duracao: 82500 Nota: C1 Vol.: 91
Chanel 2 Note Off - Duracao: 82500 Nota: C1 Vol.: 67
Chanel 2 Note On - Duracao: 82500 Nota: C1 Vol.: 75
Chanel 9 Note Off - Duracao: 82560 Nota: C1 Vol.: 64
Chanel 9 Note On - Duracao: 82560 Nota: C1 Vol.: 65
Chanel 1 Note Off - Duracao: 82620 Nota: C1 Vol.: 91
Chanel 1 Note On - Duracao: 82620 Nota: C1 Vol.: 88
Chanel 2 Note Off - Duracao: 82620 Nota: C1 Vol.: 75
Chanel 2 Note On - Duracao: 82620 Nota: C1 Vol.: 68
Chanel 10 Note Off - Duracao: 82680 Nota: C1 Vol.: 43
Chanel 10 Note On - Duracao: 82680 Nota: C1 Vol.: 52
Chanel 1 Note Off - Duracao: 82740 Nota: C1 Vol.: 88
Chanel 1 Note On - Duracao: 82740 Nota: C1 Vol.: 75
Chanel 2 Note Off - Duracao: 82860 Nota: C1 Vol.: 68
Chanel 2 Note On - Duracao: 82860 Nota: C1 Vol.: 58
Chanel 7 Note Off - Duracao: 82860 Nota: C1 Vol.: 72
Chanel 7 Note On - Duracao: 82860 Nota: C1 Vol.: 72
Chanel 8 Note Off - Duracao: 82860 Nota: C1 Vol.: 61
Chanel 8 Note On - Duracao: 82860 Nota: C1 Vol.: 71
Chanel 1 Note Off - Duracao: 82980 Nota: C1 Vol.: 75
Chanel 1 Note On - Duracao: 82980 Nota: C1 Vol.: 62
Chanel 5 Note Off - Duracao: 82980 Nota: C1 Vol.: 49
Chanel 5 Note On - Duracao: 82980 Nota: C1 Vol.: 52
Chanel 8 Note Off - Duracao: 83100 Nota: C1 Vol.: 71
Chanel 8 Note On - Duracao: 83100 Nota: C1 Vol.: 78
Chanel 1 Note Off - Duracao: 83220 Nota: C1 Vol.: 62
Chanel 1 Note On - Duracao: 83220 Nota: C1 Vol.: 63
Chanel 2 Note Off - Duracao: 83340 Nota: C1 Vol.: 58
Chanel 2 Note On - Duracao: 83340 Nota: C1 Vol.: 40
Chanel 4 Note Off - Duracao: 83340 Nota: C1 Vol.: 51
Chanel 4 Note On - Duracao: 83340 Nota: C1 Vol.: 45
Chanel 8 Note Off - Duracao: 83340 Nota: C1 Vol.: 78
Chanel 8 Note On - Duracao: 83340 Nota: C1 Vol.: 76
Chanel 1 Note Off - Duracao: 83460 Nota: C1 Vol.: 63
Chanel 1 Note On - Duracao: 83460 Nota: C1 Vol.: 63
Chanel 9 Note Off - Duracao: 83520 Nota: C1 Vol.: 65
Chanel 9 Note On - Duracao: 83520 Nota: C1 Vol.: 59
Chanel 8 Note Off - Duracao: 83580 Nota: C1 Vol.: 76
Chanel 8 Note On - Duracao: 83580 Nota: C1 Vol.: 77
Chanel 10 Note Off - Duracao: 83640 Nota: C1 Vol.: 52
Chanel 10 Note On - Duracao: 83640 Nota: C1 Vol.: 47
Chanel 1 Note Off - Duracao: 83700 Nota: C1 Vol.: 63
Chanel 1 Note On - Duracao: 83700 Nota: C1 Vol.: 73
Chanel 1 Note Off - Duracao: 83820 Nota: C1 Vol.: 73
Chanel 1 Note On - Duracao: 83820 Nota: C1 Vol.: 75
Chanel 6 Note Off - Duracao: 83820 Nota: C1 Vol.: 59
Chanel 6 Note On - Duracao: 83820 Nota: C1 Vol.: 57
Chanel 8 Note Off - Duracao: 83820 Nota: C1 Vol.: 77
Chanel 8 Note On - Duracao: 83820 Nota: C1 Vol.: 85
Chanel 1 Note Off - Duracao: 83940 Nota: C1 Vol.: 75
Chanel 1 Note On - Duracao: 83940 Nota: C1 Vol.: 72
Chanel 5 Note Off - Duracao: 83940 Nota: C1 Vol.: 52
Chanel 5 Note On - Duracao: 83940 Nota: C1 Vol.: 61
Chanel 8 Note Off - Duracao: 83940 Nota: C1 Vol.: 85
Chanel 8 Note On - Duracao: 83940 Nota: C1 Vol.: 86
Chanel 1 Note Off - Duracao: 84060 Nota: C1 Vol.: 72
Chanel 1 Note On - Duracao: 84060 Nota: C1 Vol.: 70
Chanel 8 Note Off - Duracao: 84060 Nota: C1 Vol.: 86
Chanel 8 Note On - Duracao: 84060 Nota: C1 Vol.: 78
Chanel 1 Note Off - Duracao: 84180 Nota: C1 Vol.: 70
Chanel 1 Note On - Duracao: 84180 Nota: C1 Vol.: 60
Chanel 8 Note Off - Duracao: 84180 Nota: C1 Vol.: 78
Chanel 8 Note On - Duracao: 84180 Nota: C1 Vol.: 75
Chanel 3 Note Off - Duracao: 84360 Nota: C1 Vol.: 46
Chanel 3 Note On - Duracao: 84360 Nota: C1 Vol.: 40
Chanel 1 Note Off - Duracao: 84420 Nota: C1 Vol.: 60
Chanel 1 Note On - Duracao: 84420 Nota: C1 Vol.: 65
Chanel 5 Note Off - Duracao: 84420 Nota: C1 Vol.: 61
Chanel 5 Note On - Duracao: 84420 Nota: C1 Vol.: 53
Chanel 8 Note Off - Duracao: 84420 Nota: C1 Vol.: 75
Chanel 8 Note On - Duracao: 84420 Nota: C1 Vol.: 78
Chanel 9 Note Off - Duracao: 84480 Nota: C1 Vol.: 59
Chanel 9 Note On - Duracao: 84480 Nota: C1 Vol.: 56
Chanel 8 Note Off - Duracao: 84540 Nota: C1 Vol.: 78
Chanel 8 Note On - Duracao: 84540 Nota: C1 Vol.: 63
Chanel 10 Note Off - Duracao: 84600 Nota: C1 Vol.: 47
Chanel 10 Note On - Duracao: 84600 Nota: C1 Vol.: 49
Chanel 1 Note Off - Duracao: 84660 Nota: C1 Vol.: 65
Chanel 1 Note On - Duracao: 84660 Nota: C1 Vol.: 66
Chanel 7 Note Off - Duracao: 84780 Nota: C1 Vol.: 72
Chanel 7 Note On - Duracao: 84780 Nota: C1 Vol.: 71
Chanel 1 Note Off - Duracao: 84900 Nota: C1 Vol.: 66
Chanel 1 Note On - Duracao: 84900 Nota: C1 Vol.: 69
Chanel 5 Note Off - Duracao: 84900 Nota: C1 Vol.: 53
Chanel 5 Note On - Duracao: 84900 Nota: C1 Vol.: 56
Chanel 9 Note Off - Duracao: 84960 Nota: C1 Vol.: 56
Chanel 9 Note On - Duracao: 84960 Nota: C1 Vol.: 57
Chanel 8 Note Off - Duracao: 85020 Nota: C1 Vol.: 63
Chanel 8 Note On - Duracao: 85020 Nota: C1 Vol.: 55
Chanel 10 Note Off - Duracao: 85080 Nota: C1 Vol.: 49
Chanel 10 Note On - Duracao: 85080 Nota: C1 Vol.: 48
Chanel 1 Note Off - Duracao: 85140 Nota: C1 Vol.: 69
Chanel 1 Note On - Duracao: 85140 Nota: C1 Vol.: 88
Chanel 9 Note Off - Duracao: 85200 Nota: C1 Vol.: 57
Chanel 9 Note On - Duracao: 85200 Nota: C1 Vol.: 56
Chanel 1 Note Off - Duracao: 85260 Nota: C1 Vol.: 88
Chanel 1 Note On - Duracao: 85260 Nota: C1 Vol.: 92
Chanel 2 Note Off - Duracao: 85260 Nota: C1 Vol.: 40
Chanel 2 Note On - Duracao: 85260 Nota: C1 Vol.: 51
Chanel 4 Note Off - Duracao: 85260 Nota: C1 Vol.: 45
Chanel 4 Note On - Duracao: 85260 Nota: C1 Vol.: 60
Chanel 9 Note Off - Duracao: 85320 Nota: C1 Vol.: 56
Chanel 9 Note On - Duracao: 85320 Nota: C1 Vol.: 48
Chanel 1 Note Off - Duracao: 85380 Nota: C1 Vol.: 92
Chanel 1 Note On - Duracao: 85380 Nota: C1 Vol.: 91
Chanel 5 Note Off - Duracao: 85380 Nota: C1 Vol.: 56
Chanel 5 Note On - Duracao: 85380 Nota: C1 Vol.: 54
Chanel 9 Note Off - Duracao: 85440 Nota: C1 Vol.: 48
Chanel 9 Note On - Duracao: 85440 Nota: C1 Vol.: 48
Chanel 1 Note Off - Duracao: 85500 Nota: C1 Vol.: 91
Chanel 1 Note On - Duracao: 85500 Nota: C1 Vol.: 85
Chanel 2 Note Off - Duracao: 85500 Nota: C1 Vol.: 51
Chanel 2 Note On - Duracao: 85500 Nota: C1 Vol.: 52
Chanel 8 Note Off - Duracao: 85500 Nota: C1 Vol.: 55
Chanel 8 Note On - Duracao: 85500 Nota: C1 Vol.: 59
Chanel 9 Note Off - Duracao: 85560 Nota: C1 Vol.: 48
Chanel 9 Note On - Duracao: 85560 Nota: C1 Vol.: 46
Chanel 1 Note Off - Duracao: 85620 Nota: C1 Vol.: 85
Chanel 1 Note On - Duracao: 85620 Nota: C1 Vol.: 71
Chanel 2 Note Off - Duracao: 85620 Nota: C1 Vol.: 52
Chanel 2 Note On - Duracao: 85620 Nota: C1 Vol.: 49
Chanel 9 Note Off - Duracao: 85680 Nota: C1 Vol.: 46
Chanel 9 Note On - Duracao: 85680 Nota: C1 Vol.: 46
Chanel 2 Note Off - Duracao: 85740 Nota: C1 Vol.: 49
Chanel 2 Note On - Duracao: 85740 Nota: C1 Vol.: 46
Chanel 9 Note Off - Duracao: 85800 Nota: C1 Vol.: 46
Chanel 9 Note On - Duracao: 85800 Nota: C1 Vol.: 47
Chanel 1 Note Off - Duracao: 85860 Nota: C1 Vol.: 71
Chanel 1 Note On - Duracao: 85860 Nota: C1 Vol.: 64
Chanel 5 Note Off - Duracao: 85860 Nota: C1 Vol.: 54
Chanel 5 Note On - Duracao: 85860 Nota: C1 Vol.: 57
Chanel 2 Note Off - Duracao: 85980 Nota: C1 Vol.: 46
Chanel 2 Note On - Duracao: 85980 Nota: C1 Vol.: 46
Chanel 8 Note Off - Duracao: 85980 Nota: C1 Vol.: 59
Chanel 8 Note On - Duracao: 85980 Nota: C1 Vol.: 58
Chanel 9 Note Off - Duracao: 86040 Nota: C1 Vol.: 47
Chanel 9 Note On - Duracao: 86040 Nota: C1 Vol.: 48
Chanel 10 Note Off - Duracao: 86040 Nota: C1 Vol.: 48
Chanel 10 Note On - Duracao: 86040 Nota: C1 Vol.: 50
Chanel 1 Note Off - Duracao: 86100 Nota: C1 Vol.: 64
Chanel 1 Note On - Duracao: 86100 Nota: C1 Vol.: 70
Chanel 2 Note Off - Duracao: 86220 Nota: C1 Vol.: 46
Chanel 2 Note On - Duracao: 86220 Nota: C1 Vol.: 43
Chanel 4 Note Off - Duracao: 86220 Nota: C1 Vol.: 60
Chanel 4 Note On - Duracao: 86220 Nota: C1 Vol.: 41
Chanel 3 Note Off - Duracao: 86280 Nota: C1 Vol.: 40
Chanel 3 Note On - Duracao: 86280 Nota: C1 Vol.: 45
Chanel 9 Note Off - Duracao: 86280 Nota: C1 Vol.: 48
Chanel 9 Note On - Duracao: 86280 Nota: C1 Vol.: 43
Chanel 1 Note Off - Duracao: 86340 Nota: C1 Vol.: 70
Chanel 1 Note On - Duracao: 86340 Nota: C1 Vol.: 64
Chanel 5 Note Off - Duracao: 86340 Nota: C1 Vol.: 57
Chanel 5 Note On - Duracao: 86340 Nota: C1 Vol.: 48
Chanel 2 Note Off - Duracao: 86460 Nota: C1 Vol.: 43
Chanel 2 Note On - Duracao: 86460 Nota: C1 Vol.: 45
Chanel 8 Note Off - Duracao: 86460 Nota: C1 Vol.: 58
Chanel 8 Note On - Duracao: 86460 Nota: C1 Vol.: 62
Chanel 1 Note Off - Duracao: 86580 Nota: C1 Vol.: 64
Chanel 1 Note On - Duracao: 86580 Nota: C1 Vol.: 61
Chanel 2 Note Off - Duracao: 86700 Nota: C1 Vol.: 45
Chanel 2 Note On - Duracao: 86700 Nota: C1 Vol.: 55
Chanel 7 Note Off - Duracao: 86700 Nota: C1 Vol.: 71
Chanel 7 Note On - Duracao: 86700 Nota: C1 Vol.: 71
Chanel 8 Note Off - Duracao: 86700 Nota: C1 Vol.: 62
Chanel 8 Note On - Duracao: 86700 Nota: C1 Vol.: 64
Chanel 9 Note Off - Duracao: 86760 Nota: C1 Vol.: 43
Chanel 9 Note On - Duracao: 86760 Nota: C1 Vol.: 43
Chanel 2 Note Off - Duracao: 86940 Nota: C1 Vol.: 55
Chanel 2 Note On - Duracao: 86940 Nota: C1 Vol.: 67
Chanel 8 Note Off - Duracao: 86940 Nota: C1 Vol.: 64
Chanel 8 Note On - Duracao: 86940 Nota: C1 Vol.: 60
Chanel 10 Note Off - Duracao: 87000 Nota: C1 Vol.: 50
Chanel 10 Note On - Duracao: 87000 Nota: C1 Vol.: 59
Chanel 1 Note Off - Duracao: 87060 Nota: C1 Vol.: 61
Chanel 1 Note On - Duracao: 87060 Nota: C1 Vol.: 74
Chanel 1 Note Off - Duracao: 87180 Nota: C1 Vol.: 74
Chanel 1 Note On - Duracao: 87180 Nota: C1 Vol.: 74
Chanel 2 Note Off - Duracao: 87180 Nota: C1 Vol.: 67
Chanel 2 Note On - Duracao: 87180 Nota: C1 Vol.: 73
Chanel 8 Note Off - Duracao: 87180 Nota: C1 Vol.: 60
Chanel 8 Note On - Duracao: 87180 Nota: C1 Vol.: 63
Chanel 3 Note Off - Duracao: 87240 Nota: C1 Vol.: 45
Chanel 3 Note On - Duracao: 87240 Nota: C1 Vol.: 50
Chanel 9 Note Off - Duracao: 87240 Nota: C1 Vol.: 43
Chanel 9 Note On - Duracao: 87240 Nota: C1 Vol.: 49
Chanel 1 Note Off - Duracao: 87300 Nota: C1 Vol.: 74
Chanel 1 Note On - Duracao: 87300 Nota: C1 Vol.: 75
Chanel 5 Note Off - Duracao: 87300 Nota: C1 Vol.: 48
Chanel 5 Note On - Duracao: 87300 Nota: C1 Vol.: 47
Chanel 1 Note Off - Duracao: 87420 Nota: C1 Vol.: 75
Chanel 1 Note On - Duracao: 87420 Nota: C1 Vol.: 80
Chanel 8 Note Off - Duracao: 87420 Nota: C1 Vol.: 63
Chanel 8 Note On - Duracao: 87420 Nota: C1 Vol.: 63
Chanel 10 Note Off - Duracao: 87480 Nota: C1 Vol.: 59
Chanel 10 Note On - Duracao: 87480 Nota: C1 Vol.: 51
Chanel 1 Note Off - Duracao: 87540 Nota: C1 Vol.: 80
Chanel 1 Note On - Duracao: 87540 Nota: C1 Vol.: 93
Chanel 1 Note Off - Duracao: 87660 Nota: C1 Vol.: 93
Chanel 1 Note On - Duracao: 87660 Nota: C1 Vol.: 91
Chanel 2 Note Off - Duracao: 87660 Nota: C1 Vol.: 73
Chanel 2 Note On - Duracao: 87660 Nota: C1 Vol.: 61
Chanel 6 Note Off - Duracao: 87660 Nota: C1 Vol.: 57
Chanel 6 Note On - Duracao: 87660 Nota: C1 Vol.: 54
Chanel 8 Note Off - Duracao: 87660 Nota: C1 Vol.: 63
Chanel 8 Note On - Duracao: 87660 Nota: C1 Vol.: 59
Chanel 9 Note Off - Duracao: 87720 Nota: C1 Vol.: 49
Chanel 9 Note On - Duracao: 87720 Nota: C1 Vol.: 56
Chanel 1 Note Off - Duracao: 87780 Nota: C1 Vol.: 91
Chanel 1 Note On - Duracao: 87780 Nota: C1 Vol.: 88
Chanel 1 Note Off - Duracao: 87900 Nota: C1 Vol.: 88
Chanel 1 Note On - Duracao: 87900 Nota: C1 Vol.: 91
Chanel 8 Note Off - Duracao: 87900 Nota: C1 Vol.: 59
Chanel 8 Note On - Duracao: 87900 Nota: C1 Vol.: 63
Chanel 1 Note Off - Duracao: 88020 Nota: C1 Vol.: 91
Chanel 1 Note On - Duracao: 88020 Nota: C1 Vol.: 92
Chanel 1 Note Off - Duracao: 88140 Nota: C1 Vol.: 92
Chanel 1 Note On - Duracao: 88140 Nota: C1 Vol.: 96
Chanel 4 Note Off - Duracao: 88140 Nota: C1 Vol.: 41
Chanel 4 Note On - Duracao: 88140 Nota: C1 Vol.: 78
Chanel 8 Note Off - Duracao: 88140 Nota: C1 Vol.: 63
Chanel 8 Note On - Duracao: 88140 Nota: C1 Vol.: 67
Chanel 1 Note Off - Duracao: 88200 Nota: C1 Vol.: 96
Chanel 1 Note On - Duracao: 88200 Nota: C1 Vol.: 94
Chanel 3 Note Off - Duracao: 88200 Nota: C1 Vol.: 50
Chanel 3 Note On - Duracao: 88200 Nota: C1 Vol.: 61
Chanel 9 Note Off - Duracao: 88200 Nota: C1 Vol.: 56
Chanel 9 Note On - Duracao: 88200 Nota: C1 Vol.: 41
Chanel 5 Note Off - Duracao: 88260 Nota: C1 Vol.: 47
Chanel 5 Note On - Duracao: 88260 Nota: C1 Vol.: 47
Chanel 1 Note Off - Duracao: 88320 Nota: C1 Vol.: 94
Chanel 1 Note On - Duracao: 88320 Nota: C1 Vol.: 62
Chanel 4 Note Off - Duracao: 88380 Nota: C1 Vol.: 78
Chanel 4 Note On - Duracao: 88380 Nota: C1 Vol.: 87
Chanel 8 Note Off - Duracao: 88380 Nota: C1 Vol.: 67
Chanel 8 Note On - Duracao: 88380 Nota: C1 Vol.: 72
Chanel 3 Note Off - Duracao: 88440 Nota: C1 Vol.: 61
Chanel 3 Note On - Duracao: 88440 Nota: C1 Vol.: 58
Chanel 10 Note Off - Duracao: 88440 Nota: C1 Vol.: 51
Chanel 10 Note On - Duracao: 88440 Nota: C1 Vol.: 57
Chanel 4 Note Off - Duracao: 88500 Nota: C1 Vol.: 87
Chanel 4 Note On - Duracao: 88500 Nota: C1 Vol.: 94
Chanel 8 Note Off - Duracao: 88500 Nota: C1 Vol.: 72
Chanel 8 Note On - Duracao: 88500 Nota: C1 Vol.: 53
Chanel 4 Note Off - Duracao: 88620 Nota: C1 Vol.: 94
Chanel 4 Note On - Duracao: 88620 Nota: C1 Vol.: 100
Chanel 7 Note Off - Duracao: 88620 Nota: C1 Vol.: 71
Chanel 7 Note On - Duracao: 88620 Nota: C1 Vol.: 70
Chanel 4 Note Off - Duracao: 88680 Nota: C1 Vol.: 100
Chanel 4 Note On - Duracao: 88680 Nota: C1 Vol.: 97
Chanel 4 Note Off - Duracao: 88740 Nota: C1 Vol.: 97
Chanel 4 Note On - Duracao: 88740 Nota: C1 Vol.: 99
Chanel 1 Note Off - Duracao: 88800 Nota: C1 Vol.: 62
Chanel 1 Note On - Duracao: 88800 Nota: C1 Vol.: 40
Chanel 4 Note Off - Duracao: 88800 Nota: C1 Vol.: 99
Chanel 4 Note On - Duracao: 88800 Nota: C1 Vol.: 98
Chanel 4 Note Off - Duracao: 88860 Nota: C1 Vol.: 98
Chanel 4 Note On - Duracao: 88860 Nota: C1 Vol.: 97
Chanel 3 Note Off - Duracao: 88920 Nota: C1 Vol.: 58
Chanel 3 Note On - Duracao: 88920 Nota: C1 Vol.: 56
Chanel 4 Note Off - Duracao: 88920 Nota: C1 Vol.: 97
Chanel 4 Note On - Duracao: 88920 Nota: C1 Vol.: 97
Chanel 10 Note Off - Duracao: 88920 Nota: C1 Vol.: 57
Chanel 10 Note On - Duracao: 88920 Nota: C1 Vol.: 62
Chanel 4 Note Off - Duracao: 88980 Nota: C1 Vol.: 97
Chanel 4 Note On - Duracao: 88980 Nota: C1 Vol.: 96
Chanel 8 Note Off - Duracao: 88980 Nota: C1 Vol.: 53
Chanel 8 Note On - Duracao: 88980 Nota: C1 Vol.: 56
Chanel 4 Note Off - Duracao: 89040 Nota: C1 Vol.: 96
Chanel 4 Note On - Duracao: 89040 Nota: C1 Vol.: 52
Chanel 10 Note Off - Duracao: 89160 Nota: C1 Vol.: 62
Chanel 10 Note On - Duracao: 89160 Nota: C1 Vol.: 60
Chanel 5 Note Off - Duracao: 89220 Nota: C1 Vol.: 47
Chanel 5 Note On - Duracao: 89220 Nota: C1 Vol.: 46
Chanel 8 Note Off - Duracao: 89220 Nota: C1 Vol.: 56
Chanel 8 Note On - Duracao: 89220 Nota: C1 Vol.: 60
Chanel 8 Note Off - Duracao: 89340 Nota: C1 Vol.: 60
Chanel 8 Note On - Duracao: 89340 Nota: C1 Vol.: 65
Chanel 3 Note Off - Duracao: 89400 Nota: C1 Vol.: 56
Chanel 3 Note On - Duracao: 89400 Nota: C1 Vol.: 56
Chanel 8 Note Off - Duracao: 89460 Nota: C1 Vol.: 65
Chanel 8 Note On - Duracao: 89460 Nota: C1 Vol.: 63
Chanel 2 Note Off - Duracao: 89580 Nota: C1 Vol.: 61
Chanel 2 Note On - Duracao: 89580 Nota: C1 Vol.: 61
Chanel 8 Note Off - Duracao: 89580 Nota: C1 Vol.: 63
Chanel 8 Note On - Duracao: 89580 Nota: C1 Vol.: 60
Chanel 10 Note Off - Duracao: 89640 Nota: C1 Vol.: 60
Chanel 10 Note On - Duracao: 89640 Nota: C1 Vol.: 53
Chanel 8 Note Off - Duracao: 89700 Nota: C1 Vol.: 60
Chanel 8 Note On - Duracao: 89700 Nota: C1 Vol.: 58
Chanel 3 Note Off - Duracao: 89880 Nota: C1 Vol.: 56
Chanel 3 Note On - Duracao: 89880 Nota: C1 Vol.: 66
Chanel 8 Note Off - Duracao: 89940 Nota: C1 Vol.: 58
Chanel 8 Note On - Duracao: 89940 Nota: C1 Vol.: 51
Chanel 4 Note Off - Duracao: 90000 Nota: C1 Vol.: 52
Chanel 4 Note On - Duracao: 90000 Nota: C1 Vol.: 51
Chanel 3 Note Off - Duracao: 90120 Nota: C1 Vol.: 66
Chanel 3 Note On - Duracao: 90120 Nota: C1 Vol.: 46
Chanel 9 Note Off - Duracao: 90120 Nota: C1 Vol.: 41
Chanel 9 Note On - Duracao: 90120 Nota: C1 Vol.: 41
Chanel 10 Note Off - Duracao: 90120 Nota: C1 Vol.: 53
Chanel 10 Note On - Duracao: 90120 Nota: C1 Vol.: 51
Chanel 5 Note Off - Duracao: 90180 Nota: C1 Vol.: 46
Chanel 5 Note On - Duracao: 90180 Nota: C1 Vol.: 50
Chanel 8 Note Off - Duracao: 90180 Nota: C1 Vol.: 51
Chanel 8 Note On - Duracao: 90180 Nota: C1 Vol.: 56
Chanel 8 Note Off - Duracao: 90420 Nota: C1 Vol.: 56
Chanel 8 Note On - Duracao: 90420 Nota: C1 Vol.: 57
Chanel 7 Note Off - Duracao: 90540 Nota: C1 Vol.: 70
Chanel 7 Note On - Duracao: 90540 Nota: C1 Vol.: 70
Chanel 10 Note Off - Duracao: 90600 Nota: C1 Vol.: 51
Chanel 10 Note On - Duracao: 90600 Nota: C1 Vol.: 58
Chanel 8 Note Off - Duracao: 90660 Nota: C1 Vol.: 57
Chanel 8 Note On - Duracao: 90660 Nota: C1 Vol.: 52
Chanel 1 Note Off - Duracao: 90720 Nota: C1 Vol.: 40
Chanel 1 Note On - Duracao: 90720 Nota: C1 Vol.: 54
Chanel 1 Note Off - Duracao: 90960 Nota: C1 Vol.: 54
Chanel 1 Note On - Duracao: 90960 Nota: C1 Vol.: 48
Chanel 10 Note Off - Duracao: 91080 Nota: C1 Vol.: 58
Chanel 10 Note On - Duracao: 91080 Nota: C1 Vol.: 58
Chanel 5 Note Off - Duracao: 91140 Nota: C1 Vol.: 50
Chanel 5 Note On - Duracao: 91140 Nota: C1 Vol.: 61
Chanel 8 Note Off - Duracao: 91140 Nota: C1 Vol.: 52
Chanel 8 Note On - Duracao: 91140 Nota: C1 Vol.: 46
Chanel 1 Note Off - Duracao: 91200 Nota: C1 Vol.: 48
Chanel 1 Note On - Duracao: 91200 Nota: C1 Vol.: 47
Chanel 1 Note Off - Duracao: 91320 Nota: C1 Vol.: 47
Chanel 1 Note On - Duracao: 91320 Nota: C1 Vol.: 44
Chanel 1 Note Off - Duracao: 91440 Nota: C1 Vol.: 44
Chanel 1 Note On - Duracao: 91440 Nota: C1 Vol.: 43
Chanel 2 Note Off - Duracao: 91500 Nota: C1 Vol.: 61
Chanel 2 Note On - Duracao: 91500 Nota: C1 Vol.: 62
Chanel 6 Note Off - Duracao: 91500 Nota: C1 Vol.: 54
Chanel 6 Note On - Duracao: 91500 Nota: C1 Vol.: 47
Chanel 1 Note Off - Duracao: 91560 Nota: C1 Vol.: 43
Chanel 1 Note On - Duracao: 91560 Nota: C1 Vol.: 47
Chanel 10 Note Off - Duracao: 91560 Nota: C1 Vol.: 58
Chanel 10 Note On - Duracao: 91560 Nota: C1 Vol.: 61
Chanel 5 Note Off - Duracao: 91620 Nota: C1 Vol.: 61
Chanel 5 Note On - Duracao: 91620 Nota: C1 Vol.: 53
Chanel 1 Note Off - Duracao: 91680 Nota: C1 Vol.: 47
Chanel 1 Note On - Duracao: 91680 Nota: C1 Vol.: 44
Chanel 1 Note Off - Duracao: 91800 Nota: C1 Vol.: 44
Chanel 1 Note On - Duracao: 91800 Nota: C1 Vol.: 43
Chanel 1 Note Off - Duracao: 91920 Nota: C1 Vol.: 43
Chanel 1 Note On - Duracao: 91920 Nota: C1 Vol.: 40
Chanel 4 Note Off - Duracao: 91920 Nota: C1 Vol.: 51
Chanel 4 Note On - Duracao: 91920 Nota: C1 Vol.: 98
Chanel 4 Note Off - Duracao: 91980 Nota: C1 Vol.: 98
Chanel 4 Note On - Duracao: 91980 Nota: C1 Vol.: 98
Chanel 1 Note Off - Duracao: 92040 Nota: C1 Vol.: 40
Chanel 1 Note On - Duracao: 92040 Nota: C1 Vol.: 40
Chanel 3 Note Off - Duracao: 92040 Nota: C1 Vol.: 46
Chanel 3 Note On - Duracao: 92040 Nota: C1 Vol.: 40
Chanel 4 Note Off - Duracao: 92040 Nota: C1 Vol.: 98
Chanel 4 Note On - Duracao: 92040 Nota: C1 Vol.: 97
Chanel 9 Note Off - Duracao: 92040 Nota: C1 Vol.: 41
Chanel 9 Note On - Duracao: 92040 Nota: C1 Vol.: 43
Chanel 10 Note Off - Duracao: 92040 Nota: C1 Vol.: 61
Chanel 10 Note On - Duracao: 92040 Nota: C1 Vol.: 83
Chanel 4 Note Off - Duracao: 92100 Nota: C1 Vol.: 97
Chanel 4 Note On - Duracao: 92100 Nota: C1 Vol.: 99
Chanel 5 Note Off - Duracao: 92100 Nota: C1 Vol.: 53
Chanel 5 Note On - Duracao: 92100 Nota: C1 Vol.: 61
Chanel 8 Note Off - Duracao: 92100 Nota: C1 Vol.: 46
Chanel 8 Note On - Duracao: 92100 Nota: C1 Vol.: 46
Chanel 1 Note Off - Duracao: 92160 Nota: C1 Vol.: 40
Chanel 1 Note On - Duracao: 92160 Nota: C1 Vol.: 45
Chanel 4 Note Off - Duracao: 92160 Nota: C1 Vol.: 99
Chanel 4 Note On - Duracao: 92160 Nota: C1 Vol.: 100
Chanel 4 Note Off - Duracao: 92220 Nota: C1 Vol.: 100
Chanel 4 Note On - Duracao: 92220 Nota: C1 Vol.: 100
Chanel 1 Note Off - Duracao: 92280 Nota: C1 Vol.: 45
Chanel 1 Note On - Duracao: 92280 Nota: C1 Vol.: 46
Chanel 4 Note Off - Duracao: 92280 Nota: C1 Vol.: 100
Chanel 4 Note On - Duracao: 92280 Nota: C1 Vol.: 95
Chanel 10 Note Off - Duracao: 92280 Nota: C1 Vol.: 83
Chanel 10 Note On - Duracao: 92280 Nota: C1 Vol.: 84
Chanel 1 Note Off - Duracao: 92400 Nota: C1 Vol.: 46
Chanel 1 Note On - Duracao: 92400 Nota: C1 Vol.: 49
Chanel 4 Note Off - Duracao: 92400 Nota: C1 Vol.: 95
Chanel 4 Note On - Duracao: 92400 Nota: C1 Vol.: 95
Chanel 7 Note Off - Duracao: 92460 Nota: C1 Vol.: 70
Chanel 7 Note On - Duracao: 92460 Nota: C1 Vol.: 71
Chanel 1 Note Off - Duracao: 92520 Nota: C1 Vol.: 49
Chanel 1 Note On - Duracao: 92520 Nota: C1 Vol.: 48
Chanel 4 Note Off - Duracao: 92520 Nota: C1 Vol.: 95
Chanel 4 Note On - Duracao: 92520 Nota: C1 Vol.: 99
Chanel 10 Note Off - Duracao: 92520 Nota: C1 Vol.: 84
Chanel 10 Note On - Duracao: 92520 Nota: C1 Vol.: 87
Chanel 4 Note Off - Duracao: 92580 Nota: C1 Vol.: 99
Chanel 4 Note On - Duracao: 92580 Nota: C1 Vol.: 97
Chanel 5 Note Off - Duracao: 92580 Nota: C1 Vol.: 61
Chanel 5 Note On - Duracao: 92580 Nota: C1 Vol.: 48
Chanel 1 Note Off - Duracao: 92640 Nota: C1 Vol.: 48
Chanel 1 Note On - Duracao: 92640 Nota: C1 Vol.: 55
Chanel 4 Note Off - Duracao: 92640 Nota: C1 Vol.: 97
Chanel 4 Note On - Duracao: 92640 Nota: C1 Vol.: 99
Chanel 4 Note Off - Duracao: 92700 Nota: C1 Vol.: 99
Chanel 4 Note On - Duracao: 92700 Nota: C1 Vol.: 91
Chanel 1 Note Off - Duracao: 92760 Nota: C1 Vol.: 55
Chanel 1 Note On - Duracao: 92760 Nota: C1 Vol.: 48
Chanel 10 Note Off - Duracao: 92760 Nota: C1 Vol.: 87
Chanel 10 Note On - Duracao: 92760 Nota: C1 Vol.: 90
Chanel 4 Note Off - Duracao: 92820 Nota: C1 Vol.: 91
Chanel 4 Note On - Duracao: 92820 Nota: C1 Vol.: 75
Chanel 10 Note Off - Duracao: 92880 Nota: C1 Vol.: 90
Chanel 10 Note On - Duracao: 92880 Nota: C1 Vol.: 91
Chanel 1 Note Off - Duracao: 93000 Nota: C1 Vol.: 48
Chanel 1 Note On - Duracao: 93000 Nota: C1 Vol.: 40
Chanel 10 Note Off - Duracao: 93000 Nota: C1 Vol.: 91
Chanel 10 Note On - Duracao: 93000 Nota: C1 Vol.: 92
Chanel 4 Note Off - Duracao: 93060 Nota: C1 Vol.: 75
Chanel 4 Note On - Duracao: 93060 Nota: C1 Vol.: 77
Chanel 8 Note Off - Duracao: 93060 Nota: C1 Vol.: 46
Chanel 8 Note On - Duracao: 93060 Nota: C1 Vol.: 53
Chanel 10 Note Off - Duracao: 93120 Nota: C1 Vol.: 92
Chanel 10 Note On - Duracao: 93120 Nota: C1 Vol.: 88
Chanel 4 Note Off - Duracao: 93180 Nota: C1 Vol.: 77
Chanel 4 Note On - Duracao: 93180 Nota: C1 Vol.: 68
Chanel 10 Note Off - Duracao: 93240 Nota: C1 Vol.: 88
Chanel 10 Note On - Duracao: 93240 Nota: C1 Vol.: 89
Chanel 10 Note Off - Duracao: 93360 Nota: C1 Vol.: 89
Chanel 10 Note On - Duracao: 93360 Nota: C1 Vol.: 87
Chanel 2 Note Off - Duracao: 93420 Nota: C1 Vol.: 62
Chanel 2 Note On - Duracao: 93420 Nota: C1 Vol.: 66
Chanel 4 Note Off - Duracao: 93420 Nota: C1 Vol.: 68
Chanel 4 Note On - Duracao: 93420 Nota: C1 Vol.: 62
Chanel 10 Note Off - Duracao: 93480 Nota: C1 Vol.: 87
Chanel 10 Note On - Duracao: 93480 Nota: C1 Vol.: 80
Chanel 5 Note Off - Duracao: 93540 Nota: C1 Vol.: 48
Chanel 5 Note On - Duracao: 93540 Nota: C1 Vol.: 45
Chanel 8 Note Off - Duracao: 93540 Nota: C1 Vol.: 53
Chanel 8 Note On - Duracao: 93540 Nota: C1 Vol.: 65
Chanel 4 Note Off - Duracao: 93660 Nota: C1 Vol.: 62
Chanel 4 Note On - Duracao: 93660 Nota: C1 Vol.: 57
Chanel 10 Note Off - Duracao: 93720 Nota: C1 Vol.: 80
Chanel 10 Note On - Duracao: 93720 Nota: C1 Vol.: 64
Chanel 8 Note Off - Duracao: 93780 Nota: C1 Vol.: 65
Chanel 8 Note On - Duracao: 93780 Nota: C1 Vol.: 64
Chanel 4 Note Off - Duracao: 93900 Nota: C1 Vol.: 57
Chanel 4 Note On - Duracao: 93900 Nota: C1 Vol.: 57
Chanel 9 Note Off - Duracao: 93960 Nota: C1 Vol.: 43
Chanel 9 Note On - Duracao: 93960 Nota: C1 Vol.: 43
Chanel 8 Note Off - Duracao: 94020 Nota: C1 Vol.: 64
Chanel 8 Note On - Duracao: 94020 Nota: C1 Vol.: 46
Chanel 4 Note Off - Duracao: 94140 Nota: C1 Vol.: 57
Chanel 4 Note On - Duracao: 94140 Nota: C1 Vol.: 57
Chanel 10 Note Off - Duracao: 94200 Nota: C1 Vol.: 64
Chanel 10 Note On - Duracao: 94200 Nota: C1 Vol.: 56
Chanel 4 Note Off - Duracao: 94380 Nota: C1 Vol.: 57
Chanel 4 Note On - Duracao: 94380 Nota: C1 Vol.: 69
Chanel 7 Note Off - Duracao: 94380 Nota: C1 Vol.: 71
Chanel 7 Note On - Duracao: 94380 Nota: C1 Vol.: 72
Chanel 4 Note Off - Duracao: 94620 Nota: C1 Vol.: 69
Chanel 4 Note On - Duracao: 94620 Nota: C1 Vol.: 90
Chanel 4 Note Off - Duracao: 94680 Nota: C1 Vol.: 90
Chanel 4 Note On - Duracao: 94680 Nota: C1 Vol.: 95
Chanel 4 Note Off - Duracao: 94740 Nota: C1 Vol.: 95
Chanel 4 Note On - Duracao: 94740 Nota: C1 Vol.: 96
Chanel 4 Note Off - Duracao: 94860 Nota: C1 Vol.: 96
Chanel 4 Note On - Duracao: 94860 Nota: C1 Vol.: 94
Chanel 1 Note Off - Duracao: 94920 Nota: C1 Vol.: 40
Chanel 1 Note On - Duracao: 94920 Nota: C1 Vol.: 70
Chanel 4 Note Off - Duracao: 94980 Nota: C1 Vol.: 94
Chanel 4 Note On - Duracao: 94980 Nota: C1 Vol.: 88
Chanel 8 Note Off - Duracao: 94980 Nota: C1 Vol.: 46
Chanel 8 Note On - Duracao: 94980 Nota: C1 Vol.: 56
Chanel 4 Note Off - Duracao: 95100 Nota: C1 Vol.: 88
Chanel 4 Note On - Duracao: 95100 Nota: C1 Vol.: 87
Chanel 1 Note Off - Duracao: 95160 Nota: C1 Vol.: 70
Chanel 1 Note On - Duracao: 95160 Nota: C1 Vol.: 98
Chanel 10 Note Off - Duracao: 95160 Nota: C1 Vol.: 56
Chanel 10 Note On - Duracao: 95160 Nota: C1 Vol.: 55
Chanel 1 Note Off - Duracao: 95220 Nota: C1 Vol.: 98
Chanel 1 Note On - Duracao: 95220 Nota: C1 Vol.: 96
Chanel 4 Note Off - Duracao: 95220 Nota: C1 Vol.: 87
Chanel 4 Note On - Duracao: 95220 Nota: C1 Vol.: 47
Chanel 1 Note Off - Duracao: 95340 Nota: C1 Vol.: 96
Chanel 1 Note On - Duracao: 95340 Nota: C1 Vol.: 93
Chanel 2 Note Off - Duracao: 95340 Nota: C1 Vol.: 66
Chanel 2 Note On - Duracao: 95340 Nota: C1 Vol.: 71
Chanel 6 Note Off - Duracao: 95340 Nota: C1 Vol.: 47
Chanel 6 Note On - Duracao: 95340 Nota: C1 Vol.: 41
Chanel 1 Note Off - Duracao: 95460 Nota: C1 Vol.: 93
Chanel 1 Note On - Duracao: 95460 Nota: C1 Vol.: 89
Chanel 5 Note Off - Duracao: 95460 Nota: C1 Vol.: 45
Chanel 5 Note On - Duracao: 95460 Nota: C1 Vol.: 67
Chanel 8 Note Off - Duracao: 95460 Nota: C1 Vol.: 56
Chanel 8 Note On - Duracao: 95460 Nota: C1 Vol.: 58
Chanel 1 Note Off - Duracao: 95580 Nota: C1 Vol.: 89
Chanel 1 Note On - Duracao: 95580 Nota: C1 Vol.: 82
Chanel 5 Note Off - Duracao: 95700 Nota: C1 Vol.: 67
Chanel 5 Note On - Duracao: 95700 Nota: C1 Vol.: 67
Chanel 1 Note Off - Duracao: 95820 Nota: C1 Vol.: 82
Chanel 1 Note On - Duracao: 95820 Nota: C1 Vol.: 81
Chanel 3 Note Off - Duracao: 95880 Nota: C1 Vol.: 40
Chanel 3 Note On - Duracao: 95880 Nota: C1 Vol.: 43
Chanel 9 Note Off - Duracao: 95880 Nota: C1 Vol.: 43
Chanel 9 Note On - Duracao: 95880 Nota: C1 Vol.: 45
Chanel 5 Note Off - Duracao: 95940 Nota: C1 Vol.: 67
Chanel 5 Note On - Duracao: 95940 Nota: C1 Vol.: 70
Chanel 8 Note Off - Duracao: 95940 Nota: C1 Vol.: 58
Chanel 8 Note On - Duracao: 95940 Nota: C1 Vol.: 60
Chanel 1 Note Off - Duracao: 96060 Nota: C1 Vol.: 81
Chanel 1 Note On - Duracao: 96060 Nota: C1 Vol.: 88
Chanel 5 Note Off - Duracao: 96060 Nota: C1 Vol.: 70
Chanel 5 Note On - Duracao: 96060 Nota: C1 Vol.: 68
Chanel 10 Note Off - Duracao: 96120 Nota: C1 Vol.: 55
Chanel 10 Note On - Duracao: 96120 Nota: C1 Vol.: 52
Chanel 1 Note Off - Duracao: 96180 Nota: C1 Vol.: 88
Chanel 1 Note On - Duracao: 96180 Nota: C1 Vol.: 88
Chanel 4 Note Off - Duracao: 96180 Nota: C1 Vol.: 47
Chanel 4 Note On - Duracao: 96180 Nota: C1 Vol.: 42
Chanel 1 Note Off - Duracao: 96300 Nota: C1 Vol.: 88
Chanel 1 Note On - Duracao: 96300 Nota: C1 Vol.: 88
Chanel 2 Note Off - Duracao: 96300 Nota: C1 Vol.: 71
Chanel 2 Note On - Duracao: 96300 Nota: C1 Vol.: 67
Chanel 5 Note Off - Duracao: 96300 Nota: C1 Vol.: 68
Chanel 5 Note On - Duracao: 96300 Nota: C1 Vol.: 66
Chanel 7 Note Off - Duracao: 96300 Nota: C1 Vol.: 72
Chanel 7 Note On - Duracao: 96300 Nota: C1 Vol.: 70
Chanel 1 Note Off - Duracao: 96420 Nota: C1 Vol.: 88
Chanel 1 Note On - Duracao: 96420 Nota: C1 Vol.: 95
Chanel 8 Note Off - Duracao: 96420 Nota: C1 Vol.: 60
Chanel 8 Note On - Duracao: 96420 Nota: C1 Vol.: 60
Chanel 1 Note Off - Duracao: 96540 Nota: C1 Vol.: 95
Chanel 1 Note On - Duracao: 96540 Nota: C1 Vol.: 92
Chanel 5 Note Off - Duracao: 96540 Nota: C1 Vol.: 66
Chanel 5 Note On - Duracao: 96540 Nota: C1 Vol.: 56
Chanel 1 Note Off - Duracao: 96660 Nota: C1 Vol.: 92
Chanel 1 Note On - Duracao: 96660 Nota: C1 Vol.: 91
Chanel 1 Note Off - Duracao: 96780 Nota: C1 Vol.: 91
Chanel 1 Note On - Duracao: 96780 Nota: C1 Vol.: 87
Chanel 1 Note Off - Duracao: 96900 Nota: C1 Vol.: 87
Chanel 1 Note On - Duracao: 96900 Nota: C1 Vol.: 84
Chanel 8 Note Off - Duracao: 96900 Nota: C1 Vol.: 60
Chanel 8 Note On - Duracao: 96900 Nota: C1 Vol.: 48
Chanel 10 Note Off - Duracao: 97080 Nota: C1 Vol.: 52
Chanel 10 Note On - Duracao: 97080 Nota: C1 Vol.: 50
Chanel 1 Note Off - Duracao: 97140 Nota: C1 Vol.: 84
Chanel 1 Note On - Duracao: 97140 Nota: C1 Vol.: 92
Chanel 1 Note Off - Duracao: 97260 Nota: C1 Vol.: 92
Chanel 1 Note On - Duracao: 97260 Nota: C1 Vol.: 71
Chanel 6 Note Off - Duracao: 97260 Nota: C1 Vol.: 41
Chanel 6 Note On - Duracao: 97260 Nota: C1 Vol.: 50
Chanel 1 Note Off - Duracao: 97500 Nota: C1 Vol.: 71
Chanel 1 Note On - Duracao: 97500 Nota: C1 Vol.: 74
Chanel 5 Note Off - Duracao: 97500 Nota: C1 Vol.: 56
Chanel 5 Note On - Duracao: 97500 Nota: C1 Vol.: 47
Chanel 1 Note Off - Duracao: 97620 Nota: C1 Vol.: 74
Chanel 1 Note On - Duracao: 97620 Nota: C1 Vol.: 74
Chanel 1 Note Off - Duracao: 97740 Nota: C1 Vol.: 74
Chanel 1 Note On - Duracao: 97740 Nota: C1 Vol.: 78
Chanel 3 Note Off - Duracao: 97800 Nota: C1 Vol.: 43
Chanel 3 Note On - Duracao: 97800 Nota: C1 Vol.: 62
Chanel 9 Note Off - Duracao: 97800 Nota: C1 Vol.: 45
Chanel 9 Note On - Duracao: 97800 Nota: C1 Vol.: 42
Chanel 1 Note Off - Duracao: 97860 Nota: C1 Vol.: 78
Chanel 1 Note On - Duracao: 97860 Nota: C1 Vol.: 71
Chanel 8 Note Off - Duracao: 97860 Nota: C1 Vol.: 48
Chanel 8 Note On - Duracao: 97860 Nota: C1 Vol.: 42
Chanel 10 Note Off - Duracao: 98040 Nota: C1 Vol.: 50
Chanel 10 Note On - Duracao: 98040 Nota: C1 Vol.: 49
Chanel 1 Note Off - Duracao: 98100 Nota: C1 Vol.: 71
Chanel 1 Note On - Duracao: 98100 Nota: C1 Vol.: 90
Chanel 4 Note Off - Duracao: 98100 Nota: C1 Vol.: 42
Chanel 4 Note On - Duracao: 98100 Nota: C1 Vol.: 47
Chanel 1 Note Off - Duracao: 98220 Nota: C1 Vol.: 90
Chanel 1 Note On - Duracao: 98220 Nota: C1 Vol.: 88
Chanel 2 Note Off - Duracao: 98220 Nota: C1 Vol.: 67
Chanel 2 Note On - Duracao: 98220 Nota: C1 Vol.: 70
Chanel 6 Note Off - Duracao: 98220 Nota: C1 Vol.: 50
Chanel 6 Note On - Duracao: 98220 Nota: C1 Vol.: 56
Chanel 7 Note Off - Duracao: 98220 Nota: C1 Vol.: 70
Chanel 7 Note On - Duracao: 98220 Nota: C1 Vol.: 72
Chanel 1 Note Off - Duracao: 98340 Nota: C1 Vol.: 88
Chanel 1 Note On - Duracao: 98340 Nota: C1 Vol.: 87
Chanel 1 Note Off - Duracao: 98460 Nota: C1 Vol.: 87
Chanel 1 Note On - Duracao: 98460 Nota: C1 Vol.: 97
Chanel 5 Note Off - Duracao: 98460 Nota: C1 Vol.: 47
Chanel 5 Note On - Duracao: 98460 Nota: C1 Vol.: 44
Chanel 6 Note Off - Duracao: 98460 Nota: C1 Vol.: 56
Chanel 6 Note On - Duracao: 98460 Nota: C1 Vol.: 55
Chanel 1 Note Off - Duracao: 98520 Nota: C1 Vol.: 97
Chanel 1 Note On - Duracao: 98520 Nota: C1 Vol.: 96
Chanel 1 Note Off - Duracao: 98580 Nota: C1 Vol.: 96
Chanel 1 Note On - Duracao: 98580 Nota: C1 Vol.: 95
Chanel 1 Note Off - Duracao: 98700 Nota: C1 Vol.: 95
Chanel 1 Note On - Duracao: 98700 Nota: C1 Vol.: 95
Chanel 6 Note Off - Duracao: 98700 Nota: C1 Vol.: 55
Chanel 6 Note On - Duracao: 98700 Nota: C1 Vol.: 51
Chanel 3 Note Off - Duracao: 98760 Nota: C1 Vol.: 62
Chanel 3 Note On - Duracao: 98760 Nota: C1 Vol.: 92
Chanel 1 Note Off - Duracao: 98820 Nota: C1 Vol.: 95
Chanel 1 Note On - Duracao: 98820 Nota: C1 Vol.: 96
Chanel 3 Note Off - Duracao: 98880 Nota: C1 Vol.: 92
Chanel 3 Note On - Duracao: 98880 Nota: C1 Vol.: 96
Chanel 1 Note Off - Duracao: 98940 Nota: C1 Vol.: 96
Chanel 1 Note On - Duracao: 98940 Nota: C1 Vol.: 96
Chanel 3 Note Off - Duracao: 98940 Nota: C1 Vol.: 96
Chanel 3 Note On - Duracao: 98940 Nota: C1 Vol.: 94
Chanel 6 Note Off - Duracao: 98940 Nota: C1 Vol.: 51
Chanel 6 Note On - Duracao: 98940 Nota: C1 Vol.: 51
Chanel 3 Note Off - Duracao: 99000 Nota: C1 Vol.: 94
Chanel 3 Note On - Duracao: 99000 Nota: C1 Vol.: 96
Chanel 10 Note Off - Duracao: 99000 Nota: C1 Vol.: 49
Chanel 10 Note On - Duracao: 99000 Nota: C1 Vol.: 48
Chanel 1 Note Off - Duracao: 99060 Nota: C1 Vol.: 96
Chanel 1 Note On - Duracao: 99060 Nota: C1 Vol.: 96
Chanel 3 Note Off - Duracao: 99060 Nota: C1 Vol.: 96
Chanel 3 Note On - Duracao: 99060 Nota: C1 Vol.: 74
Chanel 4 Note Off - Duracao: 99060 Nota: C1 Vol.: 47
Chanel 4 Note On - Duracao: 99060 Nota: C1 Vol.: 56
Chanel 1 Note Off - Duracao: 99180 Nota: C1 Vol.: 96
Chanel 1 Note On - Duracao: 99180 Nota: C1 Vol.: 99
Chanel 2 Note Off - Duracao: 99180 Nota: C1 Vol.: 70
Chanel 2 Note On - Duracao: 99180 Nota: C1 Vol.: 70
Chanel 6 Note Off - Duracao: 99180 Nota: C1 Vol.: 51
Chanel 6 Note On - Duracao: 99180 Nota: C1 Vol.: 55
Chanel 1 Note Off - Duracao: 99240 Nota: C1 Vol.: 99
Chanel 1 Note On - Duracao: 99240 Nota: C1 Vol.: 97
Chanel 3 Note Off - Duracao: 99300 Nota: C1 Vol.: 74
Chanel 3 Note On - Duracao: 99300 Nota: C1 Vol.: 40
Chanel 1 Note Off - Duracao: 99360 Nota: C1 Vol.: 97
Chanel 1 Note On - Duracao: 99360 Nota: C1 Vol.: 99
Chanel 1 Note Off - Duracao: 99420 Nota: C1 Vol.: 99
Chanel 1 Note On - Duracao: 99420 Nota: C1 Vol.: 98
Chanel 5 Note Off - Duracao: 99420 Nota: C1 Vol.: 44
Chanel 5 Note On - Duracao: 99420 Nota: C1 Vol.: 61
Chanel 6 Note Off - Duracao: 99420 Nota: C1 Vol.: 55
Chanel 6 Note On - Duracao: 99420 Nota: C1 Vol.: 53
Chanel 1 Note Off - Duracao: 99540 Nota: C1 Vol.: 98
Chanel 1 Note On - Duracao: 99540 Nota: C1 Vol.: 100
Chanel 4 Note Off - Duracao: 99540 Nota: C1 Vol.: 56
Chanel 4 Note On - Duracao: 99540 Nota: C1 Vol.: 64
Chanel 1 Note Off - Duracao: 99600 Nota: C1 Vol.: 100
Chanel 1 Note On - Duracao: 99600 Nota: C1 Vol.: 100
Chanel 1 Note Off - Duracao: 99660 Nota: C1 Vol.: 100
Chanel 1 Note On - Duracao: 99660 Nota: C1 Vol.: 97
Chanel 5 Note Off - Duracao: 99660 Nota: C1 Vol.: 61
Chanel 5 Note On - Duracao: 99660 Nota: C1 Vol.: 58
Chanel 6 Note Off - Duracao: 99660 Nota: C1 Vol.: 53
Chanel 6 Note On - Duracao: 99660 Nota: C1 Vol.: 45
Chanel 9 Note Off - Duracao: 99720 Nota: C1 Vol.: 42
Chanel 9 Note On - Duracao: 99720 Nota: C1 Vol.: 42
Chanel 1 Note Off - Duracao: 99780 Nota: C1 Vol.: 97
Chanel 1 Note On - Duracao: 99780 Nota: C1 Vol.: 100
Chanel 4 Note Off - Duracao: 99780 Nota: C1 Vol.: 64
Chanel 4 Note On - Duracao: 99780 Nota: C1 Vol.: 61
Chanel 8 Note Off - Duracao: 99780 Nota: C1 Vol.: 42
Chanel 8 Note On - Duracao: 99780 Nota: C1 Vol.: 48
Chanel 1 Note Off - Duracao: 99840 Nota: C1 Vol.: 100
Chanel 1 Note On - Duracao: 99840 Nota: C1 Vol.: 98
Chanel 1 Note Off - Duracao: 99900 Nota: C1 Vol.: 98
Chanel 1 Note On - Duracao: 99900 Nota: C1 Vol.: 98
Chanel 1 Note Off - Duracao: 99960 Nota: C1 Vol.: 98
Chanel 1 Note On - Duracao: 99960 Nota: C1 Vol.: 96
Chanel 10 Note Off - Duracao: 99960 Nota: C1 Vol.: 48
Chanel 10 Note On - Duracao: 99960 Nota: C1 Vol.: 54
Chanel 1 Note Off - Duracao: 100020 Nota: C1 Vol.: 96
Chanel 1 Note On - Duracao: 100020 Nota: C1 Vol.: 96
Chanel 1 Note Off - Duracao: 100080 Nota: C1 Vol.: 96
Chanel 1 Note On - Duracao: 100080 Nota: C1 Vol.: 92
Chanel 2 Note Off - Duracao: 100140 Nota: C1 Vol.: 70
Chanel 2 Note On - Duracao: 100140 Nota: C1 Vol.: 67
Chanel 5 Note Off - Duracao: 100140 Nota: C1 Vol.: 58
Chanel 5 Note On - Duracao: 100140 Nota: C1 Vol.: 40
Chanel 6 Note Off - Duracao: 100140 Nota: C1 Vol.: 45
Chanel 6 Note On - Duracao: 100140 Nota: C1 Vol.: 40
Chanel 7 Note Off - Duracao: 100140 Nota: C1 Vol.: 72
Chanel 7 Note On - Duracao: 100140 Nota: C1 Vol.: 72
Chanel 1 Note Off - Duracao: 100200 Nota: C1 Vol.: 92
Chanel 1 Note On - Duracao: 100200 Nota: C1 Vol.: 98
Chanel 4 Note Off - Duracao: 100260 Nota: C1 Vol.: 61
Chanel 4 Note On - Duracao: 100260 Nota: C1 Vol.: 49
Chanel 1 Note Off - Duracao: 100320 Nota: C1 Vol.: 98
Chanel 1 Note On - Duracao: 100320 Nota: C1 Vol.: 98
Chanel 1 Note Off - Duracao: 100440 Nota: C1 Vol.: 98
Chanel 1 Note On - Duracao: 100440 Nota: C1 Vol.: 98
Chanel 1 Note Off - Duracao: 100500 Nota: C1 Vol.: 98
Chanel 1 Note On - Duracao: 100500 Nota: C1 Vol.: 95
Chanel 1 Note Off - Duracao: 100560 Nota: C1 Vol.: 95
Chanel 1 Note On - Duracao: 100560 Nota: C1 Vol.: 93
Chanel 1 Note Off - Duracao: 100620 Nota: C1 Vol.: 93
Chanel 1 Note On - Duracao: 100620 Nota: C1 Vol.: 79
Chanel 1 Note Off - Duracao: 100740 Nota: C1 Vol.: 79
Chanel 1 Note On - Duracao: 100740 Nota: C1 Vol.: 68
Chanel 4 Note Off - Duracao: 100740 Nota: C1 Vol.: 49
Chanel 4 Note On - Duracao: 100740 Nota: C1 Vol.: 45
Chanel 8 Note Off - Duracao: 100740 Nota: C1 Vol.: 48
Chanel 8 Note On - Duracao: 100740 Nota: C1 Vol.: 50
Chanel 1 Note Off - Duracao: 100860 Nota: C1 Vol.: 68
Chanel 1 Note On - Duracao: 100860 Nota: C1 Vol.: 71
Chanel 10 Note Off - Duracao: 100920 Nota: C1 Vol.: 54
Chanel 10 Note On - Duracao: 100920 Nota: C1 Vol.: 61
Chanel 1 Note Off - Duracao: 100980 Nota: C1 Vol.: 71
Chanel 1 Note On - Duracao: 100980 Nota: C1 Vol.: 72
Chanel 1 Note Off - Duracao: 101100 Nota: C1 Vol.: 72
Chanel 1 Note On - Duracao: 101100 Nota: C1 Vol.: 71
Chanel 2 Note Off - Duracao: 101100 Nota: C1 Vol.: 67
Chanel 2 Note On - Duracao: 101100 Nota: C1 Vol.: 64
Chanel 6 Note Off - Duracao: 101100 Nota: C1 Vol.: 40
Chanel 6 Note On - Duracao: 101100 Nota: C1 Vol.: 40
Chanel 1 Note Off - Duracao: 101220 Nota: C1 Vol.: 71
Chanel 1 Note On - Duracao: 101220 Nota: C1 Vol.: 69
Chanel 1 Note Off - Duracao: 101340 Nota: C1 Vol.: 69
Chanel 1 Note On - Duracao: 101340 Nota: C1 Vol.: 70
Chanel 10 Note Off - Duracao: 101400 Nota: C1 Vol.: 61
Chanel 10 Note On - Duracao: 101400 Nota: C1 Vol.: 68
Chanel 1 Note Off - Duracao: 101460 Nota: C1 Vol.: 70
Chanel 1 Note On - Duracao: 101460 Nota: C1 Vol.: 58
Chanel 9 Note Off - Duracao: 101640 Nota: C1 Vol.: 42
Chanel 9 Note On - Duracao: 101640 Nota: C1 Vol.: 42
Chanel 10 Note Off - Duracao: 101640 Nota: C1 Vol.: 68
Chanel 10 Note On - Duracao: 101640 Nota: C1 Vol.: 63
Chanel 1 Note Off - Duracao: 101700 Nota: C1 Vol.: 58
Chanel 1 Note On - Duracao: 101700 Nota: C1 Vol.: 71
Chanel 4 Note Off - Duracao: 101700 Nota: C1 Vol.: 45
Chanel 4 Note On - Duracao: 101700 Nota: C1 Vol.: 44
Chanel 8 Note Off - Duracao: 101700 Nota: C1 Vol.: 50
Chanel 8 Note On - Duracao: 101700 Nota: C1 Vol.: 54
Chanel 1 Note Off - Duracao: 101820 Nota: C1 Vol.: 71
Chanel 1 Note On - Duracao: 101820 Nota: C1 Vol.: 57
Chanel 10 Note Off - Duracao: 101880 Nota: C1 Vol.: 63
Chanel 10 Note On - Duracao: 101880 Nota: C1 Vol.: 54
Chanel 2 Note Off - Duracao: 102060 Nota: C1 Vol.: 64
Chanel 2 Note On - Duracao: 102060 Nota: C1 Vol.: 79
Chanel 7 Note Off - Duracao: 102060 Nota: C1 Vol.: 72
Chanel 7 Note On - Duracao: 102060 Nota: C1 Vol.: 74
Chanel 2 Note Off - Duracao: 102180 Nota: C1 Vol.: 79
Chanel 2 Note On - Duracao: 102180 Nota: C1 Vol.: 60
Chanel 1 Note Off - Duracao: 102300 Nota: C1 Vol.: 57
Chanel 1 Note On - Duracao: 102300 Nota: C1 Vol.: 59
Chanel 2 Note Off - Duracao: 102300 Nota: C1 Vol.: 60
Chanel 2 Note On - Duracao: 102300 Nota: C1 Vol.: 47
Chanel 10 Note Off - Duracao: 102360 Nota: C1 Vol.: 54
Chanel 10 Note On - Duracao: 102360 Nota: C1 Vol.: 44
Chanel 2 Note Off - Duracao: 102420 Nota: C1 Vol.: 47
Chanel 2 Note On - Duracao: 102420 Nota: C1 Vol.: 44
Chanel 2 Note Off - Duracao: 102540 Nota: C1 Vol.: 44
Chanel 2 Note On - Duracao: 102540 Nota: C1 Vol.: 40
Chanel 2 Note Off - Duracao: 102660 Nota: C1 Vol.: 40
Chanel 2 Note On - Duracao: 102660 Nota: C1 Vol.: 40
Chanel 4 Note Off - Duracao: 102660 Nota: C1 Vol.: 44
Chanel 4 Note On - Duracao: 102660 Nota: C1 Vol.: 52
Chanel 8 Note Off - Duracao: 102660 Nota: C1 Vol.: 54
Chanel 8 Note On - Duracao: 102660 Nota: C1 Vol.: 51
Chanel 1 Note Off - Duracao: 102780 Nota: C1 Vol.: 59
Chanel 1 Note On - Duracao: 102780 Nota: C1 Vol.: 68
Chanel 2 Note Off - Duracao: 102780 Nota: C1 Vol.: 40
Chanel 2 Note On - Duracao: 102780 Nota: C1 Vol.: 40
Chanel 2 Note Off - Duracao: 102900 Nota: C1 Vol.: 40
Chanel 2 Note On - Duracao: 102900 Nota: C1 Vol.: 43
Chanel 1 Note Off - Duracao: 103020 Nota: C1 Vol.: 68
Chanel 1 Note On - Duracao: 103020 Nota: C1 Vol.: 90
Chanel 2 Note Off - Duracao: 103020 Nota: C1 Vol.: 43
Chanel 2 Note On - Duracao: 103020 Nota: C1 Vol.: 42
Chanel 6 Note Off - Duracao: 103020 Nota: C1 Vol.: 40
Chanel 6 Note On - Duracao: 103020 Nota: C1 Vol.: 40
Chanel 1 Note Off - Duracao: 103140 Nota: C1 Vol.: 90
Chanel 1 Note On - Duracao: 103140 Nota: C1 Vol.: 93
Chanel 2 Note Off - Duracao: 103140 Nota: C1 Vol.: 42
Chanel 2 Note On - Duracao: 103140 Nota: C1 Vol.: 43
Chanel 3 Note Off - Duracao: 103140 Nota: C1 Vol.: 40
Chanel 3 Note On - Duracao: 103140 Nota: C1 Vol.: 44
Chanel 1 Note Off - Duracao: 103260 Nota: C1 Vol.: 93
Chanel 1 Note On - Duracao: 103260 Nota: C1 Vol.: 89
Chanel 2 Note Off - Duracao: 103260 Nota: C1 Vol.: 43
Chanel 2 Note On - Duracao: 103260 Nota: C1 Vol.: 48
Chanel 10 Note Off - Duracao: 103320 Nota: C1 Vol.: 44
Chanel 10 Note On - Duracao: 103320 Nota: C1 Vol.: 56
Chanel 1 Note Off - Duracao: 103380 Nota: C1 Vol.: 89
Chanel 1 Note On - Duracao: 103380 Nota: C1 Vol.: 72
Chanel 2 Note Off - Duracao: 103380 Nota: C1 Vol.: 48
Chanel 2 Note On - Duracao: 103380 Nota: C1 Vol.: 58
Chanel 2 Note Off - Duracao: 103500 Nota: C1 Vol.: 58
Chanel 2 Note On - Duracao: 103500 Nota: C1 Vol.: 40
Chanel 9 Note Off - Duracao: 103560 Nota: C1 Vol.: 42
Chanel 9 Note On - Duracao: 103560 Nota: C1 Vol.: 40
Chanel 1 Note Off - Duracao: 103620 Nota: C1 Vol.: 72
Chanel 1 Note On - Duracao: 103620 Nota: C1 Vol.: 65
Chanel 4 Note Off - Duracao: 103620 Nota: C1 Vol.: 52
Chanel 4 Note On - Duracao: 103620 Nota: C1 Vol.: 65
Chanel 8 Note Off - Duracao: 103620 Nota: C1 Vol.: 51
Chanel 8 Note On - Duracao: 103620 Nota: C1 Vol.: 50
Chanel 10 Note Off - Duracao: 103800 Nota: C1 Vol.: 56
Chanel 10 Note On - Duracao: 103800 Nota: C1 Vol.: 58
Chanel 1 Note Off - Duracao: 103860 Nota: C1 Vol.: 65
Chanel 1 Note On - Duracao: 103860 Nota: C1 Vol.: 63
Chanel 5 Note Off - Duracao: 103980 Nota: C1 Vol.: 40
Chanel 5 Note On - Duracao: 103980 Nota: C1 Vol.: 40
Chanel 7 Note Off - Duracao: 103980 Nota: C1 Vol.: 74
Chanel 7 Note On - Duracao: 103980 Nota: C1 Vol.: 71
Chanel 1 Note Off - Duracao: 104100 Nota: C1 Vol.: 63
Chanel 1 Note On - Duracao: 104100 Nota: C1 Vol.: 63
Chanel 4 Note Off - Duracao: 104100 Nota: C1 Vol.: 65
Chanel 4 Note On - Duracao: 104100 Nota: C1 Vol.: 69
Chanel 10 Note Off - Duracao: 104280 Nota: C1 Vol.: 58
Chanel 10 Note On - Duracao: 104280 Nota: C1 Vol.: 61
Chanel 1 Note Off - Duracao: 104340 Nota: C1 Vol.: 63
Chanel 1 Note On - Duracao: 104340 Nota: C1 Vol.: 66
Chanel 1 Note Off - Duracao: 104580 Nota: C1 Vol.: 66
Chanel 1 Note On - Duracao: 104580 Nota: C1 Vol.: 67
Chanel 4 Note Off - Duracao: 104580 Nota: C1 Vol.: 69
Chanel 4 Note On - Duracao: 104580 Nota: C1 Vol.: 71
Chanel 8 Note Off - Duracao: 104580 Nota: C1 Vol.: 50
Chanel 8 Note On - Duracao: 104580 Nota: C1 Vol.: 60
Chanel 10 Note Off - Duracao: 104760 Nota: C1 Vol.: 61
Chanel 10 Note On - Duracao: 104760 Nota: C1 Vol.: 62
Chanel 1 Note Off - Duracao: 104820 Nota: C1 Vol.: 67
Chanel 1 Note On - Duracao: 104820 Nota: C1 Vol.: 70
Chanel 4 Note Off - Duracao: 104820 Nota: C1 Vol.: 71
Chanel 4 Note On - Duracao: 104820 Nota: C1 Vol.: 67
Chanel 6 Note Off - Duracao: 104940 Nota: C1 Vol.: 40
Chanel 6 Note On - Duracao: 104940 Nota: C1 Vol.: 40
Chanel 1 Note Off - Duracao: 105060 Nota: C1 Vol.: 70
Chanel 1 Note On - Duracao: 105060 Nota: C1 Vol.: 77
Chanel 3 Note Off - Duracao: 105060 Nota: C1 Vol.: 44
Chanel 3 Note On - Duracao: 105060 Nota: C1 Vol.: 40
Chanel 4 Note Off - Duracao: 105060 Nota: C1 Vol.: 67
Chanel 4 Note On - Duracao: 105060 Nota: C1 Vol.: 52
Chanel 8 Note Off - Duracao: 105060 Nota: C1 Vol.: 60
Chanel 8 Note On - Duracao: 105060 Nota: C1 Vol.: 60
Chanel 1 Note Off - Duracao: 105180 Nota: C1 Vol.: 77
Chanel 1 Note On - Duracao: 105180 Nota: C1 Vol.: 79
Chanel 10 Note Off - Duracao: 105240 Nota: C1 Vol.: 62
Chanel 10 Note On - Duracao: 105240 Nota: C1 Vol.: 61
Chanel 1 Note Off - Duracao: 105300 Nota: C1 Vol.: 79
Chanel 1 Note On - Duracao: 105300 Nota: C1 Vol.: 86
Chanel 1 Note Off - Duracao: 105420 Nota: C1 Vol.: 86
Chanel 1 Note On - Duracao: 105420 Nota: C1 Vol.: 94
Chanel 2 Note Off - Duracao: 105420 Nota: C1 Vol.: 40
Chanel 2 Note On - Duracao: 105420 Nota: C1 Vol.: 59
Chanel 9 Note Off - Duracao: 105480 Nota: C1 Vol.: 40
Chanel 9 Note On - Duracao: 105480 Nota: C1 Vol.: 62
Chanel 1 Note Off - Duracao: 105540 Nota: C1 Vol.: 94
Chanel 1 Note On - Duracao: 105540 Nota: C1 Vol.: 99
Chanel 8 Note Off - Duracao: 105540 Nota: C1 Vol.: 60
Chanel 8 Note On - Duracao: 105540 Nota: C1 Vol.: 59
Chanel 1 Note Off - Duracao: 105600 Nota: C1 Vol.: 99
Chanel 1 Note On - Duracao: 105600 Nota: C1 Vol.: 93
Chanel 1 Note Off - Duracao: 105720 Nota: C1 Vol.: 93
Chanel 1 Note On - Duracao: 105720 Nota: C1 Vol.: 94
Chanel 9 Note Off - Duracao: 105720 Nota: C1 Vol.: 62
Chanel 9 Note On - Duracao: 105720 Nota: C1 Vol.: 46
Chanel 10 Note Off - Duracao: 105720 Nota: C1 Vol.: 61
Chanel 10 Note On - Duracao: 105720 Nota: C1 Vol.: 89
Chanel 1 Note Off - Duracao: 105840 Nota: C1 Vol.: 94
Chanel 1 Note On - Duracao: 105840 Nota: C1 Vol.: 95
Chanel 10 Note Off - Duracao: 105840 Nota: C1 Vol.: 89
Chanel 10 Note On - Duracao: 105840 Nota: C1 Vol.: 70
Chanel 1 Note Off - Duracao: 105900 Nota: C1 Vol.: 95
Chanel 1 Note On - Duracao: 105900 Nota: C1 Vol.: 94
Chanel 2 Note Off - Duracao: 105900 Nota: C1 Vol.: 59
Chanel 2 Note On - Duracao: 105900 Nota: C1 Vol.: 67
Chanel 6 Note Off - Duracao: 105900 Nota: C1 Vol.: 40
Chanel 6 Note On - Duracao: 105900 Nota: C1 Vol.: 40
Chanel 7 Note Off - Duracao: 105900 Nota: C1 Vol.: 71
Chanel 7 Note On - Duracao: 105900 Nota: C1 Vol.: 71
Chanel 1 Note Off - Duracao: 105960 Nota: C1 Vol.: 94
Chanel 1 Note On - Duracao: 105960 Nota: C1 Vol.: 71
Chanel 4 Note Off - Duracao: 106020 Nota: C1 Vol.: 52
Chanel 4 Note On - Duracao: 106020 Nota: C1 Vol.: 50
Chanel 8 Note Off - Duracao: 106020 Nota: C1 Vol.: 59
Chanel 8 Note On - Duracao: 106020 Nota: C1 Vol.: 60
Chanel 10 Note Off - Duracao: 106080 Nota: C1 Vol.: 70
Chanel 10 Note On - Duracao: 106080 Nota: C1 Vol.: 58
Chanel 2 Note Off - Duracao: 106140 Nota: C1 Vol.: 67
Chanel 2 Note On - Duracao: 106140 Nota: C1 Vol.: 69
Chanel 1 Note Off - Duracao: 106200 Nota: C1 Vol.: 71
Chanel 1 Note On - Duracao: 106200 Nota: C1 Vol.: 40
Chanel 9 Note Off - Duracao: 106200 Nota: C1 Vol.: 46
Chanel 9 Note On - Duracao: 106200 Nota: C1 Vol.: 56
Chanel 2 Note Off - Duracao: 106380 Nota: C1 Vol.: 69
Chanel 2 Note On - Duracao: 106380 Nota: C1 Vol.: 68
Chanel 9 Note Off - Duracao: 106440 Nota: C1 Vol.: 56
Chanel 9 Note On - Duracao: 106440 Nota: C1 Vol.: 60
Chanel 8 Note Off - Duracao: 106500 Nota: C1 Vol.: 60
Chanel 8 Note On - Duracao: 106500 Nota: C1 Vol.: 63
Chanel 9 Note Off - Duracao: 106560 Nota: C1 Vol.: 60
Chanel 9 Note On - Duracao: 106560 Nota: C1 Vol.: 50
Chanel 10 Note Off - Duracao: 106560 Nota: C1 Vol.: 58
Chanel 10 Note On - Duracao: 106560 Nota: C1 Vol.: 43
Chanel 2 Note Off - Duracao: 106620 Nota: C1 Vol.: 68
Chanel 2 Note On - Duracao: 106620 Nota: C1 Vol.: 61
Chanel 9 Note Off - Duracao: 106800 Nota: C1 Vol.: 50
Chanel 9 Note On - Duracao: 106800 Nota: C1 Vol.: 53
Chanel 6 Note Off - Duracao: 106860 Nota: C1 Vol.: 40
Chanel 6 Note On - Duracao: 106860 Nota: C1 Vol.: 40
Chanel 4 Note Off - Duracao: 106980 Nota: C1 Vol.: 50
Chanel 4 Note On - Duracao: 106980 Nota: C1 Vol.: 65
Chanel 8 Note Off - Duracao: 106980 Nota: C1 Vol.: 63
Chanel 8 Note On - Duracao: 106980 Nota: C1 Vol.: 70
Chanel 9 Note Off - Duracao: 107040 Nota: C1 Vol.: 53
Chanel 9 Note On - Duracao: 107040 Nota: C1 Vol.: 65
Chanel 2 Note Off - Duracao: 107100 Nota: C1 Vol.: 61
Chanel 2 Note On - Duracao: 107100 Nota: C1 Vol.: 71
Chanel 9 Note Off - Duracao: 107160 Nota: C1 Vol.: 65
Chanel 9 Note On - Duracao: 107160 Nota: C1 Vol.: 65
Chanel 4 Note Off - Duracao: 107220 Nota: C1 Vol.: 65
Chanel 4 Note On - Duracao: 107220 Nota: C1 Vol.: 62
Chanel 9 Note Off - Duracao: 107280 Nota: C1 Vol.: 65
Chanel 9 Note On - Duracao: 107280 Nota: C1 Vol.: 65
Chanel 2 Note Off - Duracao: 107340 Nota: C1 Vol.: 71
Chanel 2 Note On - Duracao: 107340 Nota: C1 Vol.: 75
Chanel 9 Note Off - Duracao: 107400 Nota: C1 Vol.: 65
Chanel 9 Note On - Duracao: 107400 Nota: C1 Vol.: 65
Chanel 8 Note Off - Duracao: 107460 Nota: C1 Vol.: 70
Chanel 8 Note On - Duracao: 107460 Nota: C1 Vol.: 71
Chanel 2 Note Off - Duracao: 107580 Nota: C1 Vol.: 75
Chanel 2 Note On - Duracao: 107580 Nota: C1 Vol.: 69
Chanel 9 Note Off - Duracao: 107640 Nota: C1 Vol.: 65
Chanel 9 Note On - Duracao: 107640 Nota: C1 Vol.: 62
Chanel 4 Note Off - Duracao: 107700 Nota: C1 Vol.: 62
Chanel 4 Note On - Duracao: 107700 Nota: C1 Vol.: 67
Chanel 5 Note Off - Duracao: 107820 Nota: C1 Vol.: 40
Chanel 5 Note On - Duracao: 107820 Nota: C1 Vol.: 43
Chanel 6 Note Off - Duracao: 107820 Nota: C1 Vol.: 40
Chanel 6 Note On - Duracao: 107820 Nota: C1 Vol.: 40
Chanel 7 Note Off - Duracao: 107820 Nota: C1 Vol.: 71
Chanel 7 Note On - Duracao: 107820 Nota: C1 Vol.: 69
Chanel 9 Note Off - Duracao: 107880 Nota: C1 Vol.: 62
Chanel 9 Note On - Duracao: 107880 Nota: C1 Vol.: 61
Chanel 4 Note Off - Duracao: 107940 Nota: C1 Vol.: 67
Chanel 4 Note On - Duracao: 107940 Nota: C1 Vol.: 64
Chanel 8 Note Off - Duracao: 107940 Nota: C1 Vol.: 71
Chanel 8 Note On - Duracao: 107940 Nota: C1 Vol.: 51
Chanel 2 Note Off - Duracao: 108060 Nota: C1 Vol.: 69
Chanel 2 Note On - Duracao: 108060 Nota: C1 Vol.: 76
Chanel 1 Note Off - Duracao: 108120 Nota: C1 Vol.: 40
Chanel 1 Note On - Duracao: 108120 Nota: C1 Vol.: 58
Chanel 9 Note Off - Duracao: 108120 Nota: C1 Vol.: 61
Chanel 9 Note On - Duracao: 108120 Nota: C1 Vol.: 63
Chanel 2 Note Off - Duracao: 108300 Nota: C1 Vol.: 76
Chanel 2 Note On - Duracao: 108300 Nota: C1 Vol.: 64
Chanel 1 Note Off - Duracao: 108360 Nota: C1 Vol.: 58
Chanel 1 Note On - Duracao: 108360 Nota: C1 Vol.: 49
Chanel 9 Note Off - Duracao: 108360 Nota: C1 Vol.: 63
Chanel 9 Note On - Duracao: 108360 Nota: C1 Vol.: 64
Chanel 4 Note Off - Duracao: 108420 Nota: C1 Vol.: 64
Chanel 4 Note On - Duracao: 108420 Nota: C1 Vol.: 43
Chanel 10 Note Off - Duracao: 108480 Nota: C1 Vol.: 43
Chanel 10 Note On - Duracao: 108480 Nota: C1 Vol.: 50
Chanel 1 Note Off - Duracao: 108600 Nota: C1 Vol.: 49
Chanel 1 Note On - Duracao: 108600 Nota: C1 Vol.: 46
Chanel 9 Note Off - Duracao: 108600 Nota: C1 Vol.: 64
Chanel 9 Note On - Duracao: 108600 Nota: C1 Vol.: 64
Chanel 2 Note Off - Duracao: 108780 Nota: C1 Vol.: 64
Chanel 2 Note On - Duracao: 108780 Nota: C1 Vol.: 57
Chanel 6 Note Off - Duracao: 108780 Nota: C1 Vol.: 40
Chanel 6 Note On - Duracao: 108780 Nota: C1 Vol.: 40
Chanel 1 Note Off - Duracao: 108840 Nota: C1 Vol.: 46
Chanel 1 Note On - Duracao: 108840 Nota: C1 Vol.: 48
Chanel 9 Note Off - Duracao: 108840 Nota: C1 Vol.: 64
Chanel 9 Note On - Duracao: 108840 Nota: C1 Vol.: 49
Chanel 3 Note Off - Duracao: 108900 Nota: C1 Vol.: 40
Chanel 3 Note On - Duracao: 108900 Nota: C1 Vol.: 44
Chanel 1 Note Off - Duracao: 108960 Nota: C1 Vol.: 48
Chanel 1 Note On - Duracao: 108960 Nota: C1 Vol.: 45
Chanel 1 Note Off - Duracao: 109080 Nota: C1 Vol.: 45
Chanel 1 Note On - Duracao: 109080 Nota: C1 Vol.: 45
Chanel 1 Note Off - Duracao: 109200 Nota: C1 Vol.: 45
Chanel 1 Note On - Duracao: 109200 Nota: C1 Vol.: 49
Chanel 2 Note Off - Duracao: 109260 Nota: C1 Vol.: 57
Chanel 2 Note On - Duracao: 109260 Nota: C1 Vol.: 72
Chanel 1 Note Off - Duracao: 109320 Nota: C1 Vol.: 49
Chanel 1 Note On - Duracao: 109320 Nota: C1 Vol.: 52
Chanel 4 Note Off - Duracao: 109380 Nota: C1 Vol.: 43
Chanel 4 Note On - Duracao: 109380 Nota: C1 Vol.: 45
Chanel 1 Note Off - Duracao: 109440 Nota: C1 Vol.: 52
Chanel 1 Note On - Duracao: 109440 Nota: C1 Vol.: 49
Chanel 10 Note Off - Duracao: 109440 Nota: C1 Vol.: 50
Chanel 10 Note On - Duracao: 109440 Nota: C1 Vol.: 57
Chanel 2 Note Off - Duracao: 109500 Nota: C1 Vol.: 72
Chanel 2 Note On - Duracao: 109500 Nota: C1 Vol.: 71
Chanel 1 Note Off - Duracao: 109560 Nota: C1 Vol.: 49
Chanel 1 Note On - Duracao: 109560 Nota: C1 Vol.: 47
Chanel 2 Note Off - Duracao: 109620 Nota: C1 Vol.: 71
Chanel 2 Note On - Duracao: 109620 Nota: C1 Vol.: 59
Chanel 1 Note Off - Duracao: 109680 Nota: C1 Vol.: 47
Chanel 1 Note On - Duracao: 109680 Nota: C1 Vol.: 44
Chanel 5 Note Off - Duracao: 109740 Nota: C1 Vol.: 43
Chanel 5 Note On - Duracao: 109740 Nota: C1 Vol.: 58
Chanel 7 Note Off - Duracao: 109740 Nota: C1 Vol.: 69
Chanel 7 Note On - Duracao: 109740 Nota: C1 Vol.: 68
Chanel 1 Note Off - Duracao: 109800 Nota: C1 Vol.: 44
Chanel 1 Note On - Duracao: 109800 Nota: C1 Vol.: 43
Chanel 9 Note Off - Duracao: 109800 Nota: C1 Vol.: 49
Chanel 9 Note On - Duracao: 109800 Nota: C1 Vol.: 59
Chanel 2 Note Off - Duracao: 109860 Nota: C1 Vol.: 59
Chanel 2 Note On - Duracao: 109860 Nota: C1 Vol.: 61
Chanel 3 Note Off - Duracao: 109860 Nota: C1 Vol.: 44
Chanel 3 Note On - Duracao: 109860 Nota: C1 Vol.: 57
Chanel 8 Note Off - Duracao: 109860 Nota: C1 Vol.: 51
Chanel 8 Note On - Duracao: 109860 Nota: C1 Vol.: 53
Chanel 1 Note Off - Duracao: 109920 Nota: C1 Vol.: 43
Chanel 1 Note On - Duracao: 109920 Nota: C1 Vol.: 45
Chanel 10 Note Off - Duracao: 109920 Nota: C1 Vol.: 57
Chanel 10 Note On - Duracao: 109920 Nota: C1 Vol.: 61
Chanel 1 Note Off - Duracao: 110040 Nota: C1 Vol.: 45
Chanel 1 Note On - Duracao: 110040 Nota: C1 Vol.: 42
Chanel 2 Note Off - Duracao: 110100 Nota: C1 Vol.: 61
Chanel 2 Note On - Duracao: 110100 Nota: C1 Vol.: 67
Chanel 3 Note Off - Duracao: 110100 Nota: C1 Vol.: 57
Chanel 3 Note On - Duracao: 110100 Nota: C1 Vol.: 50
Chanel 1 Note Off - Duracao: 110160 Nota: C1 Vol.: 42
Chanel 1 Note On - Duracao: 110160 Nota: C1 Vol.: 40
Chanel 5 Note Off - Duracao: 110220 Nota: C1 Vol.: 58
Chanel 5 Note On - Duracao: 110220 Nota: C1 Vol.: 62
Chanel 1 Note Off - Duracao: 110280 Nota: C1 Vol.: 40
Chanel 1 Note On - Duracao: 110280 Nota: C1 Vol.: 43
Chanel 9 Note Off - Duracao: 110280 Nota: C1 Vol.: 59
Chanel 9 Note On - Duracao: 110280 Nota: C1 Vol.: 58
Chanel 2 Note Off - Duracao: 110340 Nota: C1 Vol.: 67
Chanel 2 Note On - Duracao: 110340 Nota: C1 Vol.: 99
Chanel 3 Note Off - Duracao: 110340 Nota: C1 Vol.: 50
Chanel 3 Note On - Duracao: 110340 Nota: C1 Vol.: 44
Chanel 4 Note Off - Duracao: 110340 Nota: C1 Vol.: 45
Chanel 4 Note On - Duracao: 110340 Nota: C1 Vol.: 56
Chanel 1 Note Off - Duracao: 110400 Nota: C1 Vol.: 43
Chanel 1 Note On - Duracao: 110400 Nota: C1 Vol.: 52
Chanel 10 Note Off - Duracao: 110400 Nota: C1 Vol.: 61
Chanel 10 Note On - Duracao: 110400 Nota: C1 Vol.: 61
Chanel 2 Note Off - Duracao: 110460 Nota: C1 Vol.: 99
Chanel 2 Note On - Duracao: 110460 Nota: C1 Vol.: 93
Chanel 1 Note Off - Duracao: 110520 Nota: C1 Vol.: 52
Chanel 1 Note On - Duracao: 110520 Nota: C1 Vol.: 54
Chanel 2 Note Off - Duracao: 110580 Nota: C1 Vol.: 93
Chanel 2 Note On - Duracao: 110580 Nota: C1 Vol.: 77
Chanel 3 Note Off - Duracao: 110580 Nota: C1 Vol.: 44
Chanel 3 Note On - Duracao: 110580 Nota: C1 Vol.: 45
Chanel 3 Note Off - Duracao: 110700 Nota: C1 Vol.: 45
Chanel 3 Note On - Duracao: 110700 Nota: C1 Vol.: 48
Chanel 5 Note Off - Duracao: 110700 Nota: C1 Vol.: 62
Chanel 5 Note On - Duracao: 110700 Nota: C1 Vol.: 62
Chanel 6 Note Off - Duracao: 110700 Nota: C1 Vol.: 40
Chanel 6 Note On - Duracao: 110700 Nota: C1 Vol.: 70
Chanel 1 Note Off - Duracao: 110760 Nota: C1 Vol.: 54
Chanel 1 Note On - Duracao: 110760 Nota: C1 Vol.: 40
Chanel 9 Note Off - Duracao: 110760 Nota: C1 Vol.: 58
Chanel 9 Note On - Duracao: 110760 Nota: C1 Vol.: 57
Chanel 3 Note Off - Duracao: 110820 Nota: C1 Vol.: 48
Chanel 3 Note On - Duracao: 110820 Nota: C1 Vol.: 43
Chanel 4 Note Off - Duracao: 110820 Nota: C1 Vol.: 56
Chanel 4 Note On - Duracao: 110820 Nota: C1 Vol.: 61
Chanel 8 Note Off - Duracao: 110820 Nota: C1 Vol.: 53
Chanel 8 Note On - Duracao: 110820 Nota: C1 Vol.: 53
Chanel 10 Note Off - Duracao: 110880 Nota: C1 Vol.: 61
Chanel 10 Note On - Duracao: 110880 Nota: C1 Vol.: 60
Chanel 3 Note Off - Duracao: 110940 Nota: C1 Vol.: 43
Chanel 3 Note On - Duracao: 110940 Nota: C1 Vol.: 41
Chanel 5 Note Off - Duracao: 110940 Nota: C1 Vol.: 62
Chanel 5 Note On - Duracao: 110940 Nota: C1 Vol.: 60
Chanel 6 Note Off - Duracao: 110940 Nota: C1 Vol.: 70
Chanel 6 Note On - Duracao: 110940 Nota: C1 Vol.: 48
Chanel 2 Note Off - Duracao: 111060 Nota: C1 Vol.: 77
Chanel 2 Note On - Duracao: 111060 Nota: C1 Vol.: 73
Chanel 3 Note Off - Duracao: 111060 Nota: C1 Vol.: 41
Chanel 3 Note On - Duracao: 111060 Nota: C1 Vol.: 41
Chanel 3 Note Off - Duracao: 111180 Nota: C1 Vol.: 41
Chanel 3 Note On - Duracao: 111180 Nota: C1 Vol.: 43
Chanel 9 Note Off - Duracao: 111240 Nota: C1 Vol.: 57
Chanel 9 Note On - Duracao: 111240 Nota: C1 Vol.: 60
Chanel 3 Note Off - Duracao: 111300 Nota: C1 Vol.: 43
Chanel 3 Note On - Duracao: 111300 Nota: C1 Vol.: 48
Chanel 4 Note Off - Duracao: 111300 Nota: C1 Vol.: 61
Chanel 4 Note On - Duracao: 111300 Nota: C1 Vol.: 40
Chanel 10 Note Off - Duracao: 111360 Nota: C1 Vol.: 60
Chanel 10 Note On - Duracao: 111360 Nota: C1 Vol.: 58
Chanel 3 Note Off - Duracao: 111420 Nota: C1 Vol.: 48
Chanel 3 Note On - Duracao: 111420 Nota: C1 Vol.: 64
Chanel 5 Note Off - Duracao: 111420 Nota: C1 Vol.: 60
Chanel 5 Note On - Duracao: 111420 Nota: C1 Vol.: 66
Chanel 2 Note Off - Duracao: 111540 Nota: C1 Vol.: 73
Chanel 2 Note On - Duracao: 111540 Nota: C1 Vol.: 75
Chanel 3 Note Off - Duracao: 111540 Nota: C1 Vol.: 64
Chanel 3 Note On - Duracao: 111540 Nota: C1 Vol.: 40
Chanel 5 Note Off - Duracao: 111660 Nota: C1 Vol.: 66
Chanel 5 Note On - Duracao: 111660 Nota: C1 Vol.: 70
Chanel 7 Note Off - Duracao: 111660 Nota: C1 Vol.: 68
Chanel 7 Note On - Duracao: 111660 Nota: C1 Vol.: 69
Chanel 9 Note Off - Duracao: 111720 Nota: C1 Vol.: 60
Chanel 9 Note On - Duracao: 111720 Nota: C1 Vol.: 58
Chanel 8 Note Off - Duracao: 111780 Nota: C1 Vol.: 53
Chanel 8 Note On - Duracao: 111780 Nota: C1 Vol.: 52
Chanel 10 Note Off - Duracao: 111840 Nota: C1 Vol.: 58
Chanel 10 Note On - Duracao: 111840 Nota: C1 Vol.: 59
Chanel 5 Note Off - Duracao: 111900 Nota: C1 Vol.: 70
Chanel 5 Note On - Duracao: 111900 Nota: C1 Vol.: 73
Chanel 2 Note Off - Duracao: 112020 Nota: C1 Vol.: 75
Chanel 2 Note On - Duracao: 112020 Nota: C1 Vol.: 76
Chanel 5 Note Off - Duracao: 112020 Nota: C1 Vol.: 73
Chanel 5 Note On - Duracao: 112020 Nota: C1 Vol.: 72
Chanel 9 Note Off - Duracao: 112200 Nota: C1 Vol.: 58
Chanel 9 Note On - Duracao: 112200 Nota: C1 Vol.: 65
Chanel 2 Note Off - Duracao: 112260 Nota: C1 Vol.: 76
Chanel 2 Note On - Duracao: 112260 Nota: C1 Vol.: 81
Chanel 5 Note Off - Duracao: 112260 Nota: C1 Vol.: 72
Chanel 5 Note On - Duracao: 112260 Nota: C1 Vol.: 63
Chanel 10 Note Off - Duracao: 112320 Nota: C1 Vol.: 59
Chanel 10 Note On - Duracao: 112320 Nota: C1 Vol.: 60
Chanel 9 Note Off - Duracao: 112440 Nota: C1 Vol.: 65
Chanel 9 Note On - Duracao: 112440 Nota: C1 Vol.: 70
Chanel 2 Note Off - Duracao: 112500 Nota: C1 Vol.: 81
Chanel 2 Note On - Duracao: 112500 Nota: C1 Vol.: 81
Chanel 1 Note Off - Duracao: 112680 Nota: C1 Vol.: 40
Chanel 1 Note On - Duracao: 112680 Nota: C1 Vol.: 65
Chanel 9 Note Off - Duracao: 112680 Nota: C1 Vol.: 70
Chanel 9 Note On - Duracao: 112680 Nota: C1 Vol.: 67
Chanel 2 Note Off - Duracao: 112740 Nota: C1 Vol.: 81
Chanel 2 Note On - Duracao: 112740 Nota: C1 Vol.: 82
Chanel 5 Note Off - Duracao: 112740 Nota: C1 Vol.: 63
Chanel 5 Note On - Duracao: 112740 Nota: C1 Vol.: 64
Chanel 10 Note Off - Duracao: 112800 Nota: C1 Vol.: 60
Chanel 10 Note On - Duracao: 112800 Nota: C1 Vol.: 58
Chanel 6 Note Off - Duracao: 112860 Nota: C1 Vol.: 48
Chanel 6 Note On - Duracao: 112860 Nota: C1 Vol.: 60
Chanel 9 Note Off - Duracao: 112920 Nota: C1 Vol.: 67
Chanel 9 Note On - Duracao: 112920 Nota: C1 Vol.: 75
Chanel 2 Note Off - Duracao: 112980 Nota: C1 Vol.: 82
Chanel 2 Note On - Duracao: 112980 Nota: C1 Vol.: 84
Chanel 1 Note Off - Duracao: 113160 Nota: C1 Vol.: 65
Chanel 1 Note On - Duracao: 113160 Nota: C1 Vol.: 96
Chanel 9 Note Off - Duracao: 113160 Nota: C1 Vol.: 75
Chanel 9 Note On - Duracao: 113160 Nota: C1 Vol.: 82
Chanel 1 Note Off - Duracao: 113220 Nota: C1 Vol.: 96
Chanel 1 Note On - Duracao: 113220 Nota: C1 Vol.: 97
Chanel 2 Note Off - Duracao: 113220 Nota: C1 Vol.: 84
Chanel 2 Note On - Duracao: 113220 Nota: C1 Vol.: 82
Chanel 4 Note Off - Duracao: 113220 Nota: C1 Vol.: 40
Chanel 4 Note On - Duracao: 113220 Nota: C1 Vol.: 50
Chanel 5 Note Off - Duracao: 113220 Nota: C1 Vol.: 64
Chanel 5 Note On - Duracao: 113220 Nota: C1 Vol.: 67
Chanel 1 Note Off - Duracao: 113280 Nota: C1 Vol.: 97
Chanel 1 Note On - Duracao: 113280 Nota: C1 Vol.: 80
Chanel 10 Note Off - Duracao: 113280 Nota: C1 Vol.: 58
Chanel 10 Note On - Duracao: 113280 Nota: C1 Vol.: 61
Chanel 9 Note Off - Duracao: 113400 Nota: C1 Vol.: 82
Chanel 9 Note On - Duracao: 113400 Nota: C1 Vol.: 79
Chanel 2 Note Off - Duracao: 113460 Nota: C1 Vol.: 82
Chanel 2 Note On - Duracao: 113460 Nota: C1 Vol.: 80
Chanel 3 Note Off - Duracao: 113460 Nota: C1 Vol.: 40
Chanel 3 Note On - Duracao: 113460 Nota: C1 Vol.: 54
Chanel 5 Note Off - Duracao: 113460 Nota: C1 Vol.: 67
Chanel 5 Note On - Duracao: 113460 Nota: C1 Vol.: 71
Chanel 1 Note Off - Duracao: 113520 Nota: C1 Vol.: 80
Chanel 1 Note On - Duracao: 113520 Nota: C1 Vol.: 80
Chanel 7 Note Off - Duracao: 113580 Nota: C1 Vol.: 69
Chanel 7 Note On - Duracao: 113580 Nota: C1 Vol.: 72
Chanel 9 Note Off - Duracao: 113640 Nota: C1 Vol.: 79
Chanel 9 Note On - Duracao: 113640 Nota: C1 Vol.: 67
Chanel 2 Note Off - Duracao: 113700 Nota: C1 Vol.: 80
Chanel 2 Note On - Duracao: 113700 Nota: C1 Vol.: 87
Chanel 5 Note Off - Duracao: 113700 Nota: C1 Vol.: 71
Chanel 5 Note On - Duracao: 113700 Nota: C1 Vol.: 77
Chanel 8 Note Off - Duracao: 113700 Nota: C1 Vol.: 52
Chanel 8 Note On - Duracao: 113700 Nota: C1 Vol.: 51
Chanel 1 Note Off - Duracao: 113760 Nota: C1 Vol.: 80
Chanel 1 Note On - Duracao: 113760 Nota: C1 Vol.: 86
Chanel 10 Note Off - Duracao: 113760 Nota: C1 Vol.: 61
Chanel 10 Note On - Duracao: 113760 Nota: C1 Vol.: 60
Chanel 1 Note Off - Duracao: 113880 Nota: C1 Vol.: 86
Chanel 1 Note On - Duracao: 113880 Nota: C1 Vol.: 81
Chanel 2 Note Off - Duracao: 113940 Nota: C1 Vol.: 87
Chanel 2 Note On - Duracao: 113940 Nota: C1 Vol.: 89
Chanel 3 Note Off - Duracao: 113940 Nota: C1 Vol.: 54
Chanel 3 Note On - Duracao: 113940 Nota: C1 Vol.: 57
Chanel 5 Note Off - Duracao: 113940 Nota: C1 Vol.: 77
Chanel 5 Note On - Duracao: 113940 Nota: C1 Vol.: 80
Chanel 5 Note Off - Duracao: 114060 Nota: C1 Vol.: 80
Chanel 5 Note On - Duracao: 114060 Nota: C1 Vol.: 78
Chanel 1 Note Off - Duracao: 114120 Nota: C1 Vol.: 81
Chanel 1 Note On - Duracao: 114120 Nota: C1 Vol.: 90
Chanel 9 Note Off - Duracao: 114120 Nota: C1 Vol.: 67
Chanel 9 Note On - Duracao: 114120 Nota: C1 Vol.: 53
Chanel 2 Note Off - Duracao: 114180 Nota: C1 Vol.: 89
Chanel 2 Note On - Duracao: 114180 Nota: C1 Vol.: 75
Chanel 4 Note Off - Duracao: 114180 Nota: C1 Vol.: 50
Chanel 4 Note On - Duracao: 114180 Nota: C1 Vol.: 60
Chanel 1 Note Off - Duracao: 114240 Nota: C1 Vol.: 90
Chanel 1 Note On - Duracao: 114240 Nota: C1 Vol.: 81
Chanel 10 Note Off - Duracao: 114240 Nota: C1 Vol.: 60
Chanel 10 Note On - Duracao: 114240 Nota: C1 Vol.: 64
Chanel 5 Note Off - Duracao: 114300 Nota: C1 Vol.: 78
Chanel 5 Note On - Duracao: 114300 Nota: C1 Vol.: 79
Chanel 3 Note Off - Duracao: 114420 Nota: C1 Vol.: 57
Chanel 3 Note On - Duracao: 114420 Nota: C1 Vol.: 61
Chanel 5 Note Off - Duracao: 114420 Nota: C1 Vol.: 79
Chanel 5 Note On - Duracao: 114420 Nota: C1 Vol.: 78
Chanel 1 Note Off - Duracao: 114480 Nota: C1 Vol.: 81
Chanel 1 Note On - Duracao: 114480 Nota: C1 Vol.: 91
Chanel 1 Note Off - Duracao: 114600 Nota: C1 Vol.: 91
Chanel 1 Note On - Duracao: 114600 Nota: C1 Vol.: 82
Chanel 2 Note Off - Duracao: 114660 Nota: C1 Vol.: 75
Chanel 2 Note On - Duracao: 114660 Nota: C1 Vol.: 73
Chanel 3 Note Off - Duracao: 114660 Nota: C1 Vol.: 61
Chanel 3 Note On - Duracao: 114660 Nota: C1 Vol.: 60
Chanel 4 Note Off - Duracao: 114660 Nota: C1 Vol.: 60
Chanel 4 Note On - Duracao: 114660 Nota: C1 Vol.: 67
Chanel 5 Note Off - Duracao: 114660 Nota: C1 Vol.: 78
Chanel 5 Note On - Duracao: 114660 Nota: C1 Vol.: 74
Chanel 10 Note Off - Duracao: 114720 Nota: C1 Vol.: 64
Chanel 10 Note On - Duracao: 114720 Nota: C1 Vol.: 67
Chanel 6 Note Off - Duracao: 114780 Nota: C1 Vol.: 60
Chanel 6 Note On - Duracao: 114780 Nota: C1 Vol.: 57
Chanel 1 Note Off - Duracao: 114840 Nota: C1 Vol.: 82
Chanel 1 Note On - Duracao: 114840 Nota: C1 Vol.: 77
Chanel 5 Note Off - Duracao: 114900 Nota: C1 Vol.: 74
Chanel 5 Note On - Duracao: 114900 Nota: C1 Vol.: 72
Chanel 10 Note Off - Duracao: 114960 Nota: C1 Vol.: 67
Chanel 10 Note On - Duracao: 114960 Nota: C1 Vol.: 65
Chanel 9 Note Off - Duracao: 115080 Nota: C1 Vol.: 53
Chanel 9 Note On - Duracao: 115080 Nota: C1 Vol.: 45
Chanel 2 Note Off - Duracao: 115140 Nota: C1 Vol.: 73
Chanel 2 Note On - Duracao: 115140 Nota: C1 Vol.: 72
Chanel 3 Note Off - Duracao: 115140 Nota: C1 Vol.: 60
Chanel 3 Note On - Duracao: 115140 Nota: C1 Vol.: 58
Chanel 4 Note Off - Duracao: 115140 Nota: C1 Vol.: 67
Chanel 4 Note On - Duracao: 115140 Nota: C1 Vol.: 45
Chanel 5 Note Off - Duracao: 115140 Nota: C1 Vol.: 72
Chanel 5 Note On - Duracao: 115140 Nota: C1 Vol.: 67
Chanel 1 Note Off - Duracao: 115320 Nota: C1 Vol.: 77
Chanel 1 Note On - Duracao: 115320 Nota: C1 Vol.: 76
Chanel 5 Note Off - Duracao: 115380 Nota: C1 Vol.: 67
Chanel 5 Note On - Duracao: 115380 Nota: C1 Vol.: 63
Chanel 10 Note Off - Duracao: 115440 Nota: C1 Vol.: 65
Chanel 10 Note On - Duracao: 115440 Nota: C1 Vol.: 55
Chanel 7 Note Off - Duracao: 115500 Nota: C1 Vol.: 72
Chanel 7 Note On - Duracao: 115500 Nota: C1 Vol.: 72
Chanel 2 Note Off - Duracao: 115620 Nota: C1 Vol.: 72
Chanel 2 Note On - Duracao: 115620 Nota: C1 Vol.: 72
Chanel 3 Note Off - Duracao: 115620 Nota: C1 Vol.: 58
Chanel 3 Note On - Duracao: 115620 Nota: C1 Vol.: 64
Chanel 8 Note Off - Duracao: 115620 Nota: C1 Vol.: 51
Chanel 8 Note On - Duracao: 115620 Nota: C1 Vol.: 52
Chanel 1 Note Off - Duracao: 115800 Nota: C1 Vol.: 76
Chanel 1 Note On - Duracao: 115800 Nota: C1 Vol.: 72
Chanel 5 Note Off - Duracao: 115860 Nota: C1 Vol.: 63
Chanel 5 Note On - Duracao: 115860 Nota: C1 Vol.: 55
Chanel 2 Note Off - Duracao: 116100 Nota: C1 Vol.: 72
Chanel 2 Note On - Duracao: 116100 Nota: C1 Vol.: 72
Chanel 3 Note Off - Duracao: 116100 Nota: C1 Vol.: 64
Chanel 3 Note On - Duracao: 116100 Nota: C1 Vol.: 79
Chanel 3 Note Off - Duracao: 116220 Nota: C1 Vol.: 79
Chanel 3 Note On - Duracao: 116220 Nota: C1 Vol.: 79
Chanel 1 Note Off - Duracao: 116280 Nota: C1 Vol.: 72
Chanel 1 Note On - Duracao: 116280 Nota: C1 Vol.: 66
Chanel 3 Note Off - Duracao: 116340 Nota: C1 Vol.: 79
Chanel 3 Note On - Duracao: 116340 Nota: C1 Vol.: 88
Chanel 10 Note Off - Duracao: 116400 Nota: C1 Vol.: 55
Chanel 10 Note On - Duracao: 116400 Nota: C1 Vol.: 51
Chanel 2 Note Off - Duracao: 116580 Nota: C1 Vol.: 72
Chanel 2 Note On - Duracao: 116580 Nota: C1 Vol.: 79
Chanel 3 Note Off - Duracao: 116580 Nota: C1 Vol.: 88
Chanel 3 Note On - Duracao: 116580 Nota: C1 Vol.: 75
Chanel 6 Note Off - Duracao: 116700 Nota: C1 Vol.: 57
Chanel 6 Note On - Duracao: 116700 Nota: C1 Vol.: 85
Chanel 1 Note Off - Duracao: 116760 Nota: C1 Vol.: 66
Chanel 1 Note On - Duracao: 116760 Nota: C1 Vol.: 60
Chanel 2 Note Off - Duracao: 116820 Nota: C1 Vol.: 79
Chanel 2 Note On - Duracao: 116820 Nota: C1 Vol.: 78
Chanel 5 Note Off - Duracao: 116820 Nota: C1 Vol.: 55
Chanel 5 Note On - Duracao: 116820 Nota: C1 Vol.: 59
Chanel 6 Note Off - Duracao: 116940 Nota: C1 Vol.: 85
Chanel 6 Note On - Duracao: 116940 Nota: C1 Vol.: 97
Chanel 6 Note Off - Duracao: 117000 Nota: C1 Vol.: 97
Chanel 6 Note On - Duracao: 117000 Nota: C1 Vol.: 81
Chanel 9 Note Off - Duracao: 117000 Nota: C1 Vol.: 45
Chanel 9 Note On - Duracao: 117000 Nota: C1 Vol.: 43
Chanel 2 Note Off - Duracao: 117060 Nota: C1 Vol.: 78
Chanel 2 Note On - Duracao: 117060 Nota: C1 Vol.: 83
Chanel 3 Note Off - Duracao: 117060 Nota: C1 Vol.: 75
Chanel 3 Note On - Duracao: 117060 Nota: C1 Vol.: 72
Chanel 1 Note Off - Duracao: 117240 Nota: C1 Vol.: 60
Chanel 1 Note On - Duracao: 117240 Nota: C1 Vol.: 69
Chanel 6 Note Off - Duracao: 117240 Nota: C1 Vol.: 81
Chanel 6 Note On - Duracao: 117240 Nota: C1 Vol.: 42
Chanel 2 Note Off - Duracao: 117300 Nota: C1 Vol.: 83
Chanel 2 Note On - Duracao: 117300 Nota: C1 Vol.: 92
Chanel 5 Note Off - Duracao: 117300 Nota: C1 Vol.: 59
Chanel 5 Note On - Duracao: 117300 Nota: C1 Vol.: 51
Chanel 10 Note Off - Duracao: 117360 Nota: C1 Vol.: 51
Chanel 10 Note On - Duracao: 117360 Nota: C1 Vol.: 45
Chanel 2 Note Off - Duracao: 117420 Nota: C1 Vol.: 92
Chanel 2 Note On - Duracao: 117420 Nota: C1 Vol.: 95
Chanel 7 Note Off - Duracao: 117420 Nota: C1 Vol.: 72
Chanel 7 Note On - Duracao: 117420 Nota: C1 Vol.: 71
Chanel 1 Note Off - Duracao: 117480 Nota: C1 Vol.: 69
Chanel 1 Note On - Duracao: 117480 Nota: C1 Vol.: 78
Chanel 1 Note Off - Duracao: 117540 Nota: C1 Vol.: 78
Chanel 1 Note On - Duracao: 117540 Nota: C1 Vol.: 66
Chanel 2 Note Off - Duracao: 117540 Nota: C1 Vol.: 95
Chanel 2 Note On - Duracao: 117540 Nota: C1 Vol.: 95
Chanel 3 Note Off - Duracao: 117540 Nota: C1 Vol.: 72
Chanel 3 Note On - Duracao: 117540 Nota: C1 Vol.: 84
Chanel 8 Note Off - Duracao: 117540 Nota: C1 Vol.: 52
Chanel 8 Note On - Duracao: 117540 Nota: C1 Vol.: 55
Chanel 2 Note Off - Duracao: 117660 Nota: C1 Vol.: 95
Chanel 2 Note On - Duracao: 117660 Nota: C1 Vol.: 88
Chanel 1 Note Off - Duracao: 117780 Nota: C1 Vol.: 66
Chanel 1 Note On - Duracao: 117780 Nota: C1 Vol.: 72
Chanel 2 Note Off - Duracao: 117780 Nota: C1 Vol.: 88
Chanel 2 Note On - Duracao: 117780 Nota: C1 Vol.: 89
Chanel 3 Note Off - Duracao: 117780 Nota: C1 Vol.: 84
Chanel 3 Note On - Duracao: 117780 Nota: C1 Vol.: 83
Chanel 2 Note Off - Duracao: 117900 Nota: C1 Vol.: 89
Chanel 2 Note On - Duracao: 117900 Nota: C1 Vol.: 80
Chanel 1 Note Off - Duracao: 118020 Nota: C1 Vol.: 72
Chanel 1 Note On - Duracao: 118020 Nota: C1 Vol.: 83
Chanel 2 Note Off - Duracao: 118020 Nota: C1 Vol.: 80
Chanel 2 Note On - Duracao: 118020 Nota: C1 Vol.: 71
Chanel 3 Note Off - Duracao: 118020 Nota: C1 Vol.: 83
Chanel 3 Note On - Duracao: 118020 Nota: C1 Vol.: 78
Chanel 1 Note Off - Duracao: 118140 Nota: C1 Vol.: 83
Chanel 1 Note On - Duracao: 118140 Nota: C1 Vol.: 93
Chanel 2 Note Off - Duracao: 118140 Nota: C1 Vol.: 71
Chanel 2 Note On - Duracao: 118140 Nota: C1 Vol.: 69
Chanel 1 Note Off - Duracao: 118200 Nota: C1 Vol.: 93
Chanel 1 Note On - Duracao: 118200 Nota: C1 Vol.: 92
Chanel 1 Note Off - Duracao: 118260 Nota: C1 Vol.: 92
Chanel 1 Note On - Duracao: 118260 Nota: C1 Vol.: 96
Chanel 2 Note Off - Duracao: 118260 Nota: C1 Vol.: 69
Chanel 2 Note On - Duracao: 118260 Nota: C1 Vol.: 68
Chanel 5 Note Off - Duracao: 118260 Nota: C1 Vol.: 51
Chanel 5 Note On - Duracao: 118260 Nota: C1 Vol.: 52
Chanel 1 Note Off - Duracao: 118320 Nota: C1 Vol.: 96
Chanel 1 Note On - Duracao: 118320 Nota: C1 Vol.: 90
Chanel 10 Note Off - Duracao: 118320 Nota: C1 Vol.: 45
Chanel 10 Note On - Duracao: 118320 Nota: C1 Vol.: 46
Chanel 2 Note Off - Duracao: 118380 Nota: C1 Vol.: 68
Chanel 2 Note On - Duracao: 118380 Nota: C1 Vol.: 62
Chanel 1 Note Off - Duracao: 118440 Nota: C1 Vol.: 90
Chanel 1 Note On - Duracao: 118440 Nota: C1 Vol.: 90
Chanel 2 Note Off - Duracao: 118500 Nota: C1 Vol.: 62
Chanel 2 Note On - Duracao: 118500 Nota: C1 Vol.: 62
Chanel 3 Note Off - Duracao: 118500 Nota: C1 Vol.: 78
Chanel 3 Note On - Duracao: 118500 Nota: C1 Vol.: 77
Chanel 1 Note Off - Duracao: 118560 Nota: C1 Vol.: 90
Chanel 1 Note On - Duracao: 118560 Nota: C1 Vol.: 93
Chanel 2 Note Off - Duracao: 118620 Nota: C1 Vol.: 62
Chanel 2 Note On - Duracao: 118620 Nota: C1 Vol.: 61
Chanel 1 Note Off - Duracao: 118680 Nota: C1 Vol.: 93
Chanel 1 Note On - Duracao: 118680 Nota: C1 Vol.: 91
Chanel 2 Note Off - Duracao: 118740 Nota: C1 Vol.: 61
Chanel 2 Note On - Duracao: 118740 Nota: C1 Vol.: 64
Chanel 1 Note Off - Duracao: 118800 Nota: C1 Vol.: 91
Chanel 1 Note On - Duracao: 118800 Nota: C1 Vol.: 92
Chanel 10 Note Off - Duracao: 118800 Nota: C1 Vol.: 46
Chanel 10 Note On - Duracao: 118800 Nota: C1 Vol.: 57
Chanel 2 Note Off - Duracao: 118860 Nota: C1 Vol.: 64
Chanel 2 Note On - Duracao: 118860 Nota: C1 Vol.: 65
Chanel 1 Note Off - Duracao: 118920 Nota: C1 Vol.: 92
Chanel 1 Note On - Duracao: 118920 Nota: C1 Vol.: 97
Chanel 9 Note Off - Duracao: 118920 Nota: C1 Vol.: 43
Chanel 9 Note On - Duracao: 118920 Nota: C1 Vol.: 60
Chanel 2 Note Off - Duracao: 118980 Nota: C1 Vol.: 65
Chanel 2 Note On - Duracao: 118980 Nota: C1 Vol.: 55
Chanel 3 Note Off - Duracao: 118980 Nota: C1 Vol.: 77
Chanel 3 Note On - Duracao: 118980 Nota: C1 Vol.: 76
Chanel 4 Note Off - Duracao: 118980 Nota: C1 Vol.: 45
Chanel 4 Note On - Duracao: 118980 Nota: C1 Vol.: 63
Chanel 1 Note Off - Duracao: 119040 Nota: C1 Vol.: 97
Chanel 1 Note On - Duracao: 119040 Nota: C1 Vol.: 98
Chanel 10 Note Off - Duracao: 119040 Nota: C1 Vol.: 57
Chanel 10 Note On - Duracao: 119040 Nota: C1 Vol.: 59
Chanel 1 Note Off - Duracao: 119100 Nota: C1 Vol.: 98
Chanel 1 Note On - Duracao: 119100 Nota: C1 Vol.: 99
Chanel 1 Note Off - Duracao: 119160 Nota: C1 Vol.: 99
Chanel 1 Note On - Duracao: 119160 Nota: C1 Vol.: 99
Chanel 1 Note Off - Duracao: 119220 Nota: C1 Vol.: 99
Chanel 1 Note On - Duracao: 119220 Nota: C1 Vol.: 100
Chanel 2 Note Off - Duracao: 119220 Nota: C1 Vol.: 55
Chanel 2 Note On - Duracao: 119220 Nota: C1 Vol.: 54
Chanel 1 Note Off - Duracao: 119280 Nota: C1 Vol.: 100
Chanel 1 Note On - Duracao: 119280 Nota: C1 Vol.: 100
Chanel 10 Note Off - Duracao: 119280 Nota: C1 Vol.: 59
Chanel 10 Note On - Duracao: 119280 Nota: C1 Vol.: 63
Chanel 1 Note Off - Duracao: 119340 Nota: C1 Vol.: 100
Chanel 1 Note On - Duracao: 119340 Nota: C1 Vol.: 94
Chanel 7 Note Off - Duracao: 119340 Nota: C1 Vol.: 71
Chanel 7 Note On - Duracao: 119340 Nota: C1 Vol.: 72
Chanel 9 Note Off - Duracao: 119400 Nota: C1 Vol.: 60
Chanel 9 Note On - Duracao: 119400 Nota: C1 Vol.: 68
Chanel 10 Note Off - Duracao: 119400 Nota: C1 Vol.: 63
Chanel 10 Note On - Duracao: 119400 Nota: C1 Vol.: 67
Chanel 1 Note Off - Duracao: 119460 Nota: C1 Vol.: 94
Chanel 1 Note On - Duracao: 119460 Nota: C1 Vol.: 87
Chanel 3 Note Off - Duracao: 119460 Nota: C1 Vol.: 76
Chanel 3 Note On - Duracao: 119460 Nota: C1 Vol.: 77
Chanel 8 Note Off - Duracao: 119460 Nota: C1 Vol.: 55
Chanel 8 Note On - Duracao: 119460 Nota: C1 Vol.: 55
Chanel 10 Note Off - Duracao: 119520 Nota: C1 Vol.: 67
Chanel 10 Note On - Duracao: 119520 Nota: C1 Vol.: 63
Chanel 9 Note Off - Duracao: 119640 Nota: C1 Vol.: 68
Chanel 9 Note On - Duracao: 119640 Nota: C1 Vol.: 69
Chanel 10 Note Off - Duracao: 119640 Nota: C1 Vol.: 63
Chanel 10 Note On - Duracao: 119640 Nota: C1 Vol.: 60
Chanel 1 Note Off - Duracao: 119700 Nota: C1 Vol.: 87
Chanel 1 Note On - Duracao: 119700 Nota: C1 Vol.: 91
Chanel 2 Note Off - Duracao: 119700 Nota: C1 Vol.: 54
Chanel 2 Note On - Duracao: 119700 Nota: C1 Vol.: 55
Chanel 3 Note Off - Duracao: 119700 Nota: C1 Vol.: 77
Chanel 3 Note On - Duracao: 119700 Nota: C1 Vol.: 79
Chanel 10 Note Off - Duracao: 119760 Nota: C1 Vol.: 60
Chanel 10 Note On - Duracao: 119760 Nota: C1 Vol.: 58
Chanel 1 Note Off - Duracao: 119820 Nota: C1 Vol.: 91
Chanel 1 Note On - Duracao: 119820 Nota: C1 Vol.: 98
Chanel 1 Note Off - Duracao: 119880 Nota: C1 Vol.: 98
Chanel 1 Note On - Duracao: 119880 Nota: C1 Vol.: 98
Chanel 9 Note Off - Duracao: 119880 Nota: C1 Vol.: 69
Chanel 9 Note On - Duracao: 119880 Nota: C1 Vol.: 71
Chanel 10 Note Off - Duracao: 119880 Nota: C1 Vol.: 58
Chanel 10 Note On - Duracao: 119880 Nota: C1 Vol.: 62
Chanel 1 Note Off - Duracao: 119940 Nota: C1 Vol.: 98
Chanel 1 Note On - Duracao: 119940 Nota: C1 Vol.: 96
Chanel 3 Note Off - Duracao: 119940 Nota: C1 Vol.: 79
Chanel 3 Note On - Duracao: 119940 Nota: C1 Vol.: 79
Chanel 4 Note Off - Duracao: 119940 Nota: C1 Vol.: 63
Chanel 4 Note On - Duracao: 119940 Nota: C1 Vol.: 67
Chanel 1 Note Off - Duracao: 120000 Nota: C1 Vol.: 96
Chanel 1 Note On - Duracao: 120000 Nota: C1 Vol.: 94
Chanel 9 Note Off - Duracao: 120000 Nota: C1 Vol.: 71
Chanel 9 Note On - Duracao: 120000 Nota: C1 Vol.: 73
Chanel 10 Note Off - Duracao: 120000 Nota: C1 Vol.: 62
Chanel 10 Note On - Duracao: 120000 Nota: C1 Vol.: 58
Chanel 1 Note Off - Duracao: 120060 Nota: C1 Vol.: 94
Chanel 1 Note On - Duracao: 120060 Nota: C1 Vol.: 88
Chanel 9 Note Off - Duracao: 120120 Nota: C1 Vol.: 73
Chanel 9 Note On - Duracao: 120120 Nota: C1 Vol.: 75
Chanel 10 Note Off - Duracao: 120120 Nota: C1 Vol.: 58
Chanel 10 Note On - Duracao: 120120 Nota: C1 Vol.: 57
Chanel 1 Note Off - Duracao: 120180 Nota: C1 Vol.: 88
Chanel 1 Note On - Duracao: 120180 Nota: C1 Vol.: 96
Chanel 2 Note Off - Duracao: 120180 Nota: C1 Vol.: 55
Chanel 2 Note On - Duracao: 120180 Nota: C1 Vol.: 62
Chanel 3 Note Off - Duracao: 120180 Nota: C1 Vol.: 79
Chanel 3 Note On - Duracao: 120180 Nota: C1 Vol.: 79
Chanel 5 Note Off - Duracao: 120180 Nota: C1 Vol.: 52
Chanel 5 Note On - Duracao: 120180 Nota: C1 Vol.: 87
Chanel 9 Note Off - Duracao: 120240 Nota: C1 Vol.: 75
Chanel 9 Note On - Duracao: 120240 Nota: C1 Vol.: 72
Chanel 1 Note Off - Duracao: 120300 Nota: C1 Vol.: 96
Chanel 1 Note On - Duracao: 120300 Nota: C1 Vol.: 95
Chanel 5 Note Off - Duracao: 120300 Nota: C1 Vol.: 87
Chanel 5 Note On - Duracao: 120300 Nota: C1 Vol.: 89
Chanel 9 Note Off - Duracao: 120360 Nota: C1 Vol.: 72
Chanel 9 Note On - Duracao: 120360 Nota: C1 Vol.: 74
Chanel 10 Note Off - Duracao: 120360 Nota: C1 Vol.: 57
Chanel 10 Note On - Duracao: 120360 Nota: C1 Vol.: 61
Chanel 1 Note Off - Duracao: 120420 Nota: C1 Vol.: 95
Chanel 1 Note On - Duracao: 120420 Nota: C1 Vol.: 96
Chanel 5 Note Off - Duracao: 120420 Nota: C1 Vol.: 89
Chanel 5 Note On - Duracao: 120420 Nota: C1 Vol.: 92
Chanel 1 Note Off - Duracao: 120480 Nota: C1 Vol.: 96
Chanel 1 Note On - Duracao: 120480 Nota: C1 Vol.: 93
Chanel 9 Note Off - Duracao: 120480 Nota: C1 Vol.: 74
Chanel 9 Note On - Duracao: 120480 Nota: C1 Vol.: 69
Chanel 1 Note Off - Duracao: 120540 Nota: C1 Vol.: 93
Chanel 1 Note On - Duracao: 120540 Nota: C1 Vol.: 84
Chanel 5 Note Off - Duracao: 120540 Nota: C1 Vol.: 92
Chanel 5 Note On - Duracao: 120540 Nota: C1 Vol.: 97
Chanel 5 Note Off - Duracao: 120600 Nota: C1 Vol.: 97
Chanel 5 Note On - Duracao: 120600 Nota: C1 Vol.: 98
Chanel 10 Note Off - Duracao: 120600 Nota: C1 Vol.: 61
Chanel 10 Note On - Duracao: 120600 Nota: C1 Vol.: 50
Chanel 1 Note Off - Duracao: 120660 Nota: C1 Vol.: 84
Chanel 1 Note On - Duracao: 120660 Nota: C1 Vol.: 65
Chanel 2 Note Off - Duracao: 120660 Nota: C1 Vol.: 62
Chanel 2 Note On - Duracao: 120660 Nota: C1 Vol.: 82
Chanel 3 Note Off - Duracao: 120660 Nota: C1 Vol.: 79
Chanel 3 Note On - Duracao: 120660 Nota: C1 Vol.: 85
Chanel 5 Note Off - Duracao: 120660 Nota: C1 Vol.: 98
Chanel 5 Note On - Duracao: 120660 Nota: C1 Vol.: 100
Chanel 5 Note Off - Duracao: 120720 Nota: C1 Vol.: 100
Chanel 5 Note On - Duracao: 120720 Nota: C1 Vol.: 97
Chanel 9 Note Off - Duracao: 120720 Nota: C1 Vol.: 69
Chanel 9 Note On - Duracao: 120720 Nota: C1 Vol.: 72
Chanel 2 Note Off - Duracao: 120780 Nota: C1 Vol.: 82
Chanel 2 Note On - Duracao: 120780 Nota: C1 Vol.: 79
Chanel 5 Note Off - Duracao: 120780 Nota: C1 Vol.: 97
Chanel 5 Note On - Duracao: 120780 Nota: C1 Vol.: 98
Chanel 5 Note Off - Duracao: 120840 Nota: C1 Vol.: 98
Chanel 5 Note On - Duracao: 120840 Nota: C1 Vol.: 98
Chanel 9 Note Off - Duracao: 120840 Nota: C1 Vol.: 72
Chanel 9 Note On - Duracao: 120840 Nota: C1 Vol.: 65
Chanel 1 Note Off - Duracao: 120900 Nota: C1 Vol.: 65
Chanel 1 Note On - Duracao: 120900 Nota: C1 Vol.: 69
Chanel 3 Note Off - Duracao: 120900 Nota: C1 Vol.: 85
Chanel 3 Note On - Duracao: 120900 Nota: C1 Vol.: 87
Chanel 5 Note Off - Duracao: 120900 Nota: C1 Vol.: 98
Chanel 5 Note On - Duracao: 120900 Nota: C1 Vol.: 92
Chanel 1 Note Off - Duracao: 121020 Nota: C1 Vol.: 69
Chanel 1 Note On - Duracao: 121020 Nota: C1 Vol.: 64
Chanel 2 Note Off - Duracao: 121020 Nota: C1 Vol.: 79
Chanel 2 Note On - Duracao: 121020 Nota: C1 Vol.: 68
Chanel 5 Note Off - Duracao: 121020 Nota: C1 Vol.: 92
Chanel 5 Note On - Duracao: 121020 Nota: C1 Vol.: 95
Chanel 5 Note Off - Duracao: 121080 Nota: C1 Vol.: 95
Chanel 5 Note On - Duracao: 121080 Nota: C1 Vol.: 50
Chanel 6 Note Off - Duracao: 121080 Nota: C1 Vol.: 42
Chanel 6 Note On - Duracao: 121080 Nota: C1 Vol.: 70
Chanel 9 Note Off - Duracao: 121080 Nota: C1 Vol.: 65
Chanel 9 Note On - Duracao: 121080 Nota: C1 Vol.: 77
Chanel 1 Note Off - Duracao: 121140 Nota: C1 Vol.: 64
Chanel 1 Note On - Duracao: 121140 Nota: C1 Vol.: 68
Chanel 3 Note Off - Duracao: 121140 Nota: C1 Vol.: 87
Chanel 3 Note On - Duracao: 121140 Nota: C1 Vol.: 88
Chanel 1 Note Off - Duracao: 121260 Nota: C1 Vol.: 68
Chanel 1 Note On - Duracao: 121260 Nota: C1 Vol.: 59
Chanel 2 Note Off - Duracao: 121260 Nota: C1 Vol.: 68
Chanel 2 Note On - Duracao: 121260 Nota: C1 Vol.: 71
Chanel 3 Note Off - Duracao: 121260 Nota: C1 Vol.: 88
Chanel 3 Note On - Duracao: 121260 Nota: C1 Vol.: 82
Chanel 7 Note Off - Duracao: 121260 Nota: C1 Vol.: 72
Chanel 7 Note On - Duracao: 121260 Nota: C1 Vol.: 66
Chanel 9 Note Off - Duracao: 121320 Nota: C1 Vol.: 77
Chanel 9 Note On - Duracao: 121320 Nota: C1 Vol.: 83
Chanel 9 Note Off - Duracao: 121440 Nota: C1 Vol.: 83
Chanel 9 Note On - Duracao: 121440 Nota: C1 Vol.: 83
Chanel 1 Note Off - Duracao: 121500 Nota: C1 Vol.: 59
Chanel 1 Note On - Duracao: 121500 Nota: C1 Vol.: 60
Chanel 2 Note Off - Duracao: 121500 Nota: C1 Vol.: 71
Chanel 2 Note On - Duracao: 121500 Nota: C1 Vol.: 77
Chanel 3 Note Off - Duracao: 121500 Nota: C1 Vol.: 82
Chanel 3 Note On - Duracao: 121500 Nota: C1 Vol.: 78
Chanel 6 Note Off - Duracao: 121560 Nota: C1 Vol.: 70
Chanel 6 Note On - Duracao: 121560 Nota: C1 Vol.: 90
Chanel 9 Note Off - Duracao: 121560 Nota: C1 Vol.: 83
Chanel 9 Note On - Duracao: 121560 Nota: C1 Vol.: 63
Chanel 10 Note Off - Duracao: 121560 Nota: C1 Vol.: 50
Chanel 10 Note On - Duracao: 121560 Nota: C1 Vol.: 50
Chanel 2 Note Off - Duracao: 121620 Nota: C1 Vol.: 77
Chanel 2 Note On - Duracao: 121620 Nota: C1 Vol.: 71
Chanel 6 Note Off - Duracao: 121680 Nota: C1 Vol.: 90
Chanel 6 Note On - Duracao: 121680 Nota: C1 Vol.: 89
Chanel 1 Note Off - Duracao: 121740 Nota: C1 Vol.: 60
Chanel 1 Note On - Duracao: 121740 Nota: C1 Vol.: 58
Chanel 3 Note Off - Duracao: 121740 Nota: C1 Vol.: 78
Chanel 3 Note On - Duracao: 121740 Nota: C1 Vol.: 87
Chanel 6 Note Off - Duracao: 121800 Nota: C1 Vol.: 89
Chanel 6 Note On - Duracao: 121800 Nota: C1 Vol.: 87
Chanel 2 Note Off - Duracao: 121860 Nota: C1 Vol.: 71
Chanel 2 Note On - Duracao: 121860 Nota: C1 Vol.: 65
Chanel 4 Note Off - Duracao: 121860 Nota: C1 Vol.: 67
Chanel 4 Note On - Duracao: 121860 Nota: C1 Vol.: 67
Chanel 6 Note Off - Duracao: 121920 Nota: C1 Vol.: 87
Chanel 6 Note On - Duracao: 121920 Nota: C1 Vol.: 88
Chanel 1 Note Off - Duracao: 121980 Nota: C1 Vol.: 58
Chanel 1 Note On - Duracao: 121980 Nota: C1 Vol.: 70
Chanel 3 Note Off - Duracao: 121980 Nota: C1 Vol.: 87
Chanel 3 Note On - Duracao: 121980 Nota: C1 Vol.: 85
Chanel 6 Note Off - Duracao: 122040 Nota: C1 Vol.: 88
Chanel 6 Note On - Duracao: 122040 Nota: C1 Vol.: 87
Chanel 9 Note Off - Duracao: 122040 Nota: C1 Vol.: 63
Chanel 9 Note On - Duracao: 122040 Nota: C1 Vol.: 66
Chanel 1 Note Off - Duracao: 122100 Nota: C1 Vol.: 70
Chanel 1 Note On - Duracao: 122100 Nota: C1 Vol.: 54
Chanel 2 Note Off - Duracao: 122100 Nota: C1 Vol.: 65
Chanel 2 Note On - Duracao: 122100 Nota: C1 Vol.: 72
Chanel 6 Note Off - Duracao: 122160 Nota: C1 Vol.: 87
Chanel 6 Note On - Duracao: 122160 Nota: C1 Vol.: 92
Chanel 2 Note Off - Duracao: 122220 Nota: C1 Vol.: 72
Chanel 2 Note On - Duracao: 122220 Nota: C1 Vol.: 62
Chanel 3 Note Off - Duracao: 122220 Nota: C1 Vol.: 85
Chanel 3 Note On - Duracao: 122220 Nota: C1 Vol.: 87
Chanel 6 Note Off - Duracao: 122280 Nota: C1 Vol.: 92
Chanel 6 Note On - Duracao: 122280 Nota: C1 Vol.: 97
Chanel 3 Note Off - Duracao: 122340 Nota: C1 Vol.: 87
Chanel 3 Note On - Duracao: 122340 Nota: C1 Vol.: 72
Chanel 6 Note Off - Duracao: 122340 Nota: C1 Vol.: 97
Chanel 6 Note On - Duracao: 122340 Nota: C1 Vol.: 99
Chanel 6 Note Off - Duracao: 122400 Nota: C1 Vol.: 99
Chanel 6 Note On - Duracao: 122400 Nota: C1 Vol.: 100
Chanel 6 Note Off - Duracao: 122460 Nota: C1 Vol.: 100
Chanel 6 Note On - Duracao: 122460 Nota: C1 Vol.: 100
Chanel 6 Note Off - Duracao: 122520 Nota: C1 Vol.: 100
Chanel 6 Note On - Duracao: 122520 Nota: C1 Vol.: 94
Chanel 9 Note Off - Duracao: 122520 Nota: C1 Vol.: 66
Chanel 9 Note On - Duracao: 122520 Nota: C1 Vol.: 55
Chanel 10 Note Off - Duracao: 122520 Nota: C1 Vol.: 50
Chanel 10 Note On - Duracao: 122520 Nota: C1 Vol.: 57
Chanel 1 Note Off - Duracao: 122580 Nota: C1 Vol.: 54
Chanel 1 Note On - Duracao: 122580 Nota: C1 Vol.: 57
Chanel 6 Note Off - Duracao: 122640 Nota: C1 Vol.: 94
Chanel 6 Note On - Duracao: 122640 Nota: C1 Vol.: 100
Chanel 2 Note Off - Duracao: 122700 Nota: C1 Vol.: 62
Chanel 2 Note On - Duracao: 122700 Nota: C1 Vol.: 40
Chanel 6 Note Off - Duracao: 122700 Nota: C1 Vol.: 100
Chanel 6 Note On - Duracao: 122700 Nota: C1 Vol.: 100
Chanel 6 Note Off - Duracao: 122760 Nota: C1 Vol.: 100
Chanel 6 Note On - Duracao: 122760 Nota: C1 Vol.: 99
Chanel 3 Note Off - Duracao: 122820 Nota: C1 Vol.: 72
Chanel 3 Note On - Duracao: 122820 Nota: C1 Vol.: 69
Chanel 6 Note Off - Duracao: 122820 Nota: C1 Vol.: 99
Chanel 6 Note On - Duracao: 122820 Nota: C1 Vol.: 100
Chanel 6 Note Off - Duracao: 122880 Nota: C1 Vol.: 100
Chanel 6 Note On - Duracao: 122880 Nota: C1 Vol.: 100
Chanel 6 Note Off - Duracao: 122940 Nota: C1 Vol.: 100
Chanel 6 Note On - Duracao: 122940 Nota: C1 Vol.: 99
Chanel 5 Note Off - Duracao: 123000 Nota: C1 Vol.: 50
Chanel 5 Note On - Duracao: 123000 Nota: C1 Vol.: 75
Chanel 6 Note Off - Duracao: 123000 Nota: C1 Vol.: 99
Chanel 6 Note On - Duracao: 123000 Nota: C1 Vol.: 92
Chanel 10 Note Off - Duracao: 123000 Nota: C1 Vol.: 57
Chanel 10 Note On - Duracao: 123000 Nota: C1 Vol.: 56
Chanel 1 Note Off - Duracao: 123060 Nota: C1 Vol.: 57
Chanel 1 Note On - Duracao: 123060 Nota: C1 Vol.: 61
Chanel 6 Note Off - Duracao: 123120 Nota: C1 Vol.: 92
Chanel 6 Note On - Duracao: 123120 Nota: C1 Vol.: 80
Chanel 7 Note Off - Duracao: 123180 Nota: C1 Vol.: 66
Chanel 7 Note On - Duracao: 123180 Nota: C1 Vol.: 56
Chanel 5 Note Off - Duracao: 123240 Nota: C1 Vol.: 75
Chanel 5 Note On - Duracao: 123240 Nota: C1 Vol.: 90
Chanel 3 Note Off - Duracao: 123300 Nota: C1 Vol.: 69
Chanel 3 Note On - Duracao: 123300 Nota: C1 Vol.: 73
Chanel 8 Note Off - Duracao: 123300 Nota: C1 Vol.: 55
Chanel 8 Note On - Duracao: 123300 Nota: C1 Vol.: 55
Chanel 5 Note Off - Duracao: 123360 Nota: C1 Vol.: 90
Chanel 5 Note On - Duracao: 123360 Nota: C1 Vol.: 97
Chanel 6 Note Off - Duracao: 123360 Nota: C1 Vol.: 80
Chanel 6 Note On - Duracao: 123360 Nota: C1 Vol.: 53
Chanel 5 Note Off - Duracao: 123420 Nota: C1 Vol.: 97
Chanel 5 Note On - Duracao: 123420 Nota: C1 Vol.: 94
Chanel 5 Note Off - Duracao: 123480 Nota: C1 Vol.: 94
Chanel 5 Note On - Duracao: 123480 Nota: C1 Vol.: 69
Chanel 9 Note Off - Duracao: 123480 Nota: C1 Vol.: 55
Chanel 9 Note On - Duracao: 123480 Nota: C1 Vol.: 48
Chanel 1 Note Off - Duracao: 123540 Nota: C1 Vol.: 61
Chanel 1 Note On - Duracao: 123540 Nota: C1 Vol.: 62
Chanel 3 Note Off - Duracao: 123540 Nota: C1 Vol.: 73
Chanel 3 Note On - Duracao: 123540 Nota: C1 Vol.: 54
Chanel 4 Note Off - Duracao: 123780 Nota: C1 Vol.: 67
Chanel 4 Note On - Duracao: 123780 Nota: C1 Vol.: 67
Chanel 5 Note Off - Duracao: 123960 Nota: C1 Vol.: 69
Chanel 5 Note On - Duracao: 123960 Nota: C1 Vol.: 60
Chanel 10 Note Off - Duracao: 123960 Nota: C1 Vol.: 56
Chanel 10 Note On - Duracao: 123960 Nota: C1 Vol.: 54
Chanel 1 Note Off - Duracao: 124020 Nota: C1 Vol.: 62
Chanel 1 Note On - Duracao: 124020 Nota: C1 Vol.: 83
Chanel 3 Note Off - Duracao: 124020 Nota: C1 Vol.: 54
Chanel 3 Note On - Duracao: 124020 Nota: C1 Vol.: 52
Chanel 1 Note Off - Duracao: 124140 Nota: C1 Vol.: 83
Chanel 1 Note On - Duracao: 124140 Nota: C1 Vol.: 88
Chanel 1 Note Off - Duracao: 124260 Nota: C1 Vol.: 88
Chanel 1 Note On - Duracao: 124260 Nota: C1 Vol.: 86
Chanel 6 Note Off - Duracao: 124320 Nota: C1 Vol.: 53
Chanel 6 Note On - Duracao: 124320 Nota: C1 Vol.: 96
Chanel 1 Note Off - Duracao: 124380 Nota: C1 Vol.: 86
Chanel 1 Note On - Duracao: 124380 Nota: C1 Vol.: 84
Chanel 6 Note Off - Duracao: 124440 Nota: C1 Vol.: 96
Chanel 6 Note On - Duracao: 124440 Nota: C1 Vol.: 100
Chanel 1 Note Off - Duracao: 124500 Nota: C1 Vol.: 84
Chanel 1 Note On - Duracao: 124500 Nota: C1 Vol.: 67
Chanel 6 Note Off - Duracao: 124500 Nota: C1 Vol.: 100
Chanel 6 Note On - Duracao: 124500 Nota: C1 Vol.: 99
Chanel 6 Note Off - Duracao: 124560 Nota: C1 Vol.: 99
Chanel 6 Note On - Duracao: 124560 Nota: C1 Vol.: 95
Chanel 2 Note Off - Duracao: 124620 Nota: C1 Vol.: 40
Chanel 2 Note On - Duracao: 124620 Nota: C1 Vol.: 56
Chanel 6 Note Off - Duracao: 124620 Nota: C1 Vol.: 95
Chanel 6 Note On - Duracao: 124620 Nota: C1 Vol.: 96
Chanel 6 Note Off - Duracao: 124680 Nota: C1 Vol.: 96
Chanel 6 Note On - Duracao: 124680 Nota: C1 Vol.: 95
Chanel 1 Note Off - Duracao: 124740 Nota: C1 Vol.: 67
Chanel 1 Note On - Duracao: 124740 Nota: C1 Vol.: 66
Chanel 6 Note Off - Duracao: 124740 Nota: C1 Vol.: 95
Chanel 6 Note On - Duracao: 124740 Nota: C1 Vol.: 91
Chanel 2 Note Off - Duracao: 124860 Nota: C1 Vol.: 56
Chanel 2 Note On - Duracao: 124860 Nota: C1 Vol.: 54
Chanel 6 Note Off - Duracao: 124860 Nota: C1 Vol.: 91
Chanel 6 Note On - Duracao: 124860 Nota: C1 Vol.: 90
Chanel 5 Note Off - Duracao: 124920 Nota: C1 Vol.: 60
Chanel 5 Note On - Duracao: 124920 Nota: C1 Vol.: 87
Chanel 10 Note Off - Duracao: 124920 Nota: C1 Vol.: 54
Chanel 10 Note On - Duracao: 124920 Nota: C1 Vol.: 62
Chanel 1 Note Off - Duracao: 124980 Nota: C1 Vol.: 66
Chanel 1 Note On - Duracao: 124980 Nota: C1 Vol.: 63
Chanel 2 Note Off - Duracao: 124980 Nota: C1 Vol.: 54
Chanel 2 Note On - Duracao: 124980 Nota: C1 Vol.: 55
Chanel 3 Note Off - Duracao: 124980 Nota: C1 Vol.: 52
Chanel 3 Note On - Duracao: 124980 Nota: C1 Vol.: 46
Chanel 6 Note Off - Duracao: 124980 Nota: C1 Vol.: 90
Chanel 6 Note On - Duracao: 124980 Nota: C1 Vol.: 71
Chanel 5 Note Off - Duracao: 125040 Nota: C1 Vol.: 87
Chanel 5 Note On - Duracao: 125040 Nota: C1 Vol.: 95
Chanel 2 Note Off - Duracao: 125100 Nota: C1 Vol.: 55
Chanel 2 Note On - Duracao: 125100 Nota: C1 Vol.: 47
Chanel 5 Note Off - Duracao: 125100 Nota: C1 Vol.: 95
Chanel 5 Note On - Duracao: 125100 Nota: C1 Vol.: 97
Chanel 5 Note Off - Duracao: 125160 Nota: C1 Vol.: 97
Chanel 5 Note On - Duracao: 125160 Nota: C1 Vol.: 99
Chanel 1 Note Off - Duracao: 125220 Nota: C1 Vol.: 63
Chanel 1 Note On - Duracao: 125220 Nota: C1 Vol.: 63
Chanel 5 Note Off - Duracao: 125220 Nota: C1 Vol.: 99
Chanel 5 Note On - Duracao: 125220 Nota: C1 Vol.: 99
Chanel 5 Note Off - Duracao: 125280 Nota: C1 Vol.: 99
Chanel 5 Note On - Duracao: 125280 Nota: C1 Vol.: 96
Chanel 2 Note Off - Duracao: 125340 Nota: C1 Vol.: 47
Chanel 2 Note On - Duracao: 125340 Nota: C1 Vol.: 47
Chanel 5 Note Off - Duracao: 125340 Nota: C1 Vol.: 96
Chanel 5 Note On - Duracao: 125340 Nota: C1 Vol.: 96
Chanel 5 Note Off - Duracao: 125400 Nota: C1 Vol.: 96
Chanel 5 Note On - Duracao: 125400 Nota: C1 Vol.: 96
Chanel 9 Note Off - Duracao: 125400 Nota: C1 Vol.: 48
Chanel 9 Note On - Duracao: 125400 Nota: C1 Vol.: 61
Chanel 10 Note Off - Duracao: 125400 Nota: C1 Vol.: 62
Chanel 10 Note On - Duracao: 125400 Nota: C1 Vol.: 58
Chanel 1 Note Off - Duracao: 125460 Nota: C1 Vol.: 63
Chanel 1 Note On - Duracao: 125460 Nota: C1 Vol.: 68
Chanel 5 Note Off - Duracao: 125460 Nota: C1 Vol.: 96
Chanel 5 Note On - Duracao: 125460 Nota: C1 Vol.: 79
Chanel 6 Note Off - Duracao: 125460 Nota: C1 Vol.: 71
Chanel 6 Note On - Duracao: 125460 Nota: C1 Vol.: 69
Chanel 1 Note Off - Duracao: 125700 Nota: C1 Vol.: 68
Chanel 1 Note On - Duracao: 125700 Nota: C1 Vol.: 67
Chanel 4 Note Off - Duracao: 125700 Nota: C1 Vol.: 67
Chanel 4 Note On - Duracao: 125700 Nota: C1 Vol.: 71
Chanel 5 Note Off - Duracao: 125700 Nota: C1 Vol.: 79
Chanel 5 Note On - Duracao: 125700 Nota: C1 Vol.: 82
Chanel 2 Note Off - Duracao: 125820 Nota: C1 Vol.: 47
Chanel 2 Note On - Duracao: 125820 Nota: C1 Vol.: 50
Chanel 9 Note Off - Duracao: 125880 Nota: C1 Vol.: 61
Chanel 9 Note On - Duracao: 125880 Nota: C1 Vol.: 65
Chanel 1 Note Off - Duracao: 125940 Nota: C1 Vol.: 67
Chanel 1 Note On - Duracao: 125940 Nota: C1 Vol.: 76
Chanel 3 Note Off - Duracao: 125940 Nota: C1 Vol.: 46
Chanel 3 Note On - Duracao: 125940 Nota: C1 Vol.: 54
Chanel 5 Note Off - Duracao: 125940 Nota: C1 Vol.: 82
Chanel 5 Note On - Duracao: 125940 Nota: C1 Vol.: 98
Chanel 6 Note Off - Duracao: 125940 Nota: C1 Vol.: 69
Chanel 6 Note On - Duracao: 125940 Nota: C1 Vol.: 69
Chanel 5 Note Off - Duracao: 126000 Nota: C1 Vol.: 98
Chanel 5 Note On - Duracao: 126000 Nota: C1 Vol.: 99
Chanel 1 Note Off - Duracao: 126060 Nota: C1 Vol.: 76
Chanel 1 Note On - Duracao: 126060 Nota: C1 Vol.: 91
Chanel 2 Note Off - Duracao: 126060 Nota: C1 Vol.: 50
Chanel 2 Note On - Duracao: 126060 Nota: C1 Vol.: 49
Chanel 5 Note Off - Duracao: 126060 Nota: C1 Vol.: 99
Chanel 5 Note On - Duracao: 126060 Nota: C1 Vol.: 97
Chanel 5 Note Off - Duracao: 126120 Nota: C1 Vol.: 97
Chanel 5 Note On - Duracao: 126120 Nota: C1 Vol.: 100
Chanel 1 Note Off - Duracao: 126180 Nota: C1 Vol.: 91
Chanel 1 Note On - Duracao: 126180 Nota: C1 Vol.: 96
Chanel 5 Note Off - Duracao: 126180 Nota: C1 Vol.: 100
Chanel 5 Note On - Duracao: 126180 Nota: C1 Vol.: 96
Chanel 1 Note Off - Duracao: 126240 Nota: C1 Vol.: 96
Chanel 1 Note On - Duracao: 126240 Nota: C1 Vol.: 95
Chanel 2 Note Off - Duracao: 126300 Nota: C1 Vol.: 49
Chanel 2 Note On - Duracao: 126300 Nota: C1 Vol.: 50
Chanel 5 Note Off - Duracao: 126300 Nota: C1 Vol.: 96
Chanel 5 Note On - Duracao: 126300 Nota: C1 Vol.: 95
Chanel 1 Note Off - Duracao: 126360 Nota: C1 Vol.: 95
Chanel 1 Note On - Duracao: 126360 Nota: C1 Vol.: 96
Chanel 9 Note Off - Duracao: 126360 Nota: C1 Vol.: 65
Chanel 9 Note On - Duracao: 126360 Nota: C1 Vol.: 62
Chanel 10 Note Off - Duracao: 126360 Nota: C1 Vol.: 58
Chanel 10 Note On - Duracao: 126360 Nota: C1 Vol.: 58
Chanel 1 Note Off - Duracao: 126420 Nota: C1 Vol.: 96
Chanel 1 Note On - Duracao: 126420 Nota: C1 Vol.: 92
Chanel 5 Note Off - Duracao: 126420 Nota: C1 Vol.: 95
Chanel 5 Note On - Duracao: 126420 Nota: C1 Vol.: 91
Chanel 6 Note Off - Duracao: 126420 Nota: C1 Vol.: 69
Chanel 6 Note On - Duracao: 126420 Nota: C1 Vol.: 70
Chanel 1 Note Off - Duracao: 126540 Nota: C1 Vol.: 92
Chanel 1 Note On - Duracao: 126540 Nota: C1 Vol.: 91
Chanel 2 Note Off - Duracao: 126540 Nota: C1 Vol.: 50
Chanel 2 Note On - Duracao: 126540 Nota: C1 Vol.: 55
Chanel 5 Note Off - Duracao: 126540 Nota: C1 Vol.: 91
Chanel 5 Note On - Duracao: 126540 Nota: C1 Vol.: 93
Chanel 1 Note Off - Duracao: 126660 Nota: C1 Vol.: 91
Chanel 1 Note On - Duracao: 126660 Nota: C1 Vol.: 94
Chanel 4 Note Off - Duracao: 126660 Nota: C1 Vol.: 71
Chanel 4 Note On - Duracao: 126660 Nota: C1 Vol.: 77
Chanel 5 Note Off - Duracao: 126660 Nota: C1 Vol.: 93
Chanel 5 Note On - Duracao: 126660 Nota: C1 Vol.: 95
Chanel 1 Note Off - Duracao: 126780 Nota: C1 Vol.: 94
Chanel 1 Note On - Duracao: 126780 Nota: C1 Vol.: 75
Chanel 2 Note Off - Duracao: 126780 Nota: C1 Vol.: 55
Chanel 2 Note On - Duracao: 126780 Nota: C1 Vol.: 62
Chanel 5 Note Off - Duracao: 126780 Nota: C1 Vol.: 95
Chanel 5 Note On - Duracao: 126780 Nota: C1 Vol.: 97
Chanel 9 Note Off - Duracao: 126840 Nota: C1 Vol.: 62
Chanel 9 Note On - Duracao: 126840 Nota: C1 Vol.: 65
Chanel 3 Note Off - Duracao: 126900 Nota: C1 Vol.: 54
Chanel 3 Note On - Duracao: 126900 Nota: C1 Vol.: 56
Chanel 5 Note Off - Duracao: 126900 Nota: C1 Vol.: 97
Chanel 5 Note On - Duracao: 126900 Nota: C1 Vol.: 89
Chanel 6 Note Off - Duracao: 126900 Nota: C1 Vol.: 70
Chanel 6 Note On - Duracao: 126900 Nota: C1 Vol.: 65
Chanel 1 Note Off - Duracao: 127020 Nota: C1 Vol.: 75
Chanel 1 Note On - Duracao: 127020 Nota: C1 Vol.: 40
Chanel 2 Note Off - Duracao: 127020 Nota: C1 Vol.: 62
Chanel 2 Note On - Duracao: 127020 Nota: C1 Vol.: 83
Chanel 5 Note Off - Duracao: 127020 Nota: C1 Vol.: 89
Chanel 5 Note On - Duracao: 127020 Nota: C1 Vol.: 54
Chanel 7 Note Off - Duracao: 127020 Nota: C1 Vol.: 56
Chanel 7 Note On - Duracao: 127020 Nota: C1 Vol.: 52
Chanel 2 Note Off - Duracao: 127140 Nota: C1 Vol.: 83
Chanel 2 Note On - Duracao: 127140 Nota: C1 Vol.: 57
Chanel 8 Note Off - Duracao: 127140 Nota: C1 Vol.: 55
Chanel 8 Note On - Duracao: 127140 Nota: C1 Vol.: 57
Chanel 9 Note Off - Duracao: 127320 Nota: C1 Vol.: 65
Chanel 9 Note On - Duracao: 127320 Nota: C1 Vol.: 66
Chanel 10 Note Off - Duracao: 127320 Nota: C1 Vol.: 58
Chanel 10 Note On - Duracao: 127320 Nota: C1 Vol.: 67
Chanel 3 Note Off - Duracao: 127380 Nota: C1 Vol.: 56
Chanel 3 Note On - Duracao: 127380 Nota: C1 Vol.: 52
Chanel 6 Note Off - Duracao: 127380 Nota: C1 Vol.: 65
Chanel 6 Note On - Duracao: 127380 Nota: C1 Vol.: 52
Chanel 4 Note Off - Duracao: 127620 Nota: C1 Vol.: 77
Chanel 4 Note On - Duracao: 127620 Nota: C1 Vol.: 78
Chanel 9 Note Off - Duracao: 127800 Nota: C1 Vol.: 66
Chanel 9 Note On - Duracao: 127800 Nota: C1 Vol.: 72
Chanel 10 Note Off - Duracao: 127800 Nota: C1 Vol.: 67
Chanel 10 Note On - Duracao: 127800 Nota: C1 Vol.: 63
Chanel 2 Note Off - Duracao: 128100 Nota: C1 Vol.: 57
Chanel 2 Note On - Duracao: 128100 Nota: C1 Vol.: 46
Chanel 9 Note Off - Duracao: 128280 Nota: C1 Vol.: 72
Chanel 9 Note On - Duracao: 128280 Nota: C1 Vol.: 68
Chanel 10 Note Off - Duracao: 128280 Nota: C1 Vol.: 63
Chanel 10 Note On - Duracao: 128280 Nota: C1 Vol.: 57
Chanel 3 Note Off - Duracao: 128340 Nota: C1 Vol.: 52
Chanel 3 Note On - Duracao: 128340 Nota: C1 Vol.: 69
Chanel 6 Note Off - Duracao: 128340 Nota: C1 Vol.: 52
Chanel 6 Note On - Duracao: 128340 Nota: C1 Vol.: 64
Chanel 3 Note Off - Duracao: 128580 Nota: C1 Vol.: 69
Chanel 3 Note On - Duracao: 128580 Nota: C1 Vol.: 59
Chanel 4 Note Off - Duracao: 128580 Nota: C1 Vol.: 78
Chanel 4 Note On - Duracao: 128580 Nota: C1 Vol.: 77
Chanel 6 Note Off - Duracao: 128580 Nota: C1 Vol.: 64
Chanel 6 Note On - Duracao: 128580 Nota: C1 Vol.: 50
Chanel 9 Note Off - Duracao: 128760 Nota: C1 Vol.: 68
Chanel 9 Note On - Duracao: 128760 Nota: C1 Vol.: 64
Chanel 1 Note Off - Duracao: 128940 Nota: C1 Vol.: 40
Chanel 1 Note On - Duracao: 128940 Nota: C1 Vol.: 59
Chanel 5 Note Off - Duracao: 128940 Nota: C1 Vol.: 54
Chanel 5 Note On - Duracao: 128940 Nota: C1 Vol.: 59
Chanel 3 Note Off - Duracao: 129060 Nota: C1 Vol.: 59
Chanel 3 Note On - Duracao: 129060 Nota: C1 Vol.: 65
Chanel 8 Note Off - Duracao: 129060 Nota: C1 Vol.: 57
Chanel 8 Note On - Duracao: 129060 Nota: C1 Vol.: 63
Chanel 1 Note Off - Duracao: 129180 Nota: C1 Vol.: 59
Chanel 1 Note On - Duracao: 129180 Nota: C1 Vol.: 54
Chanel 9 Note Off - Duracao: 129240 Nota: C1 Vol.: 64
Chanel 9 Note On - Duracao: 129240 Nota: C1 Vol.: 77
Chanel 10 Note Off - Duracao: 129240 Nota: C1 Vol.: 57
Chanel 10 Note On - Duracao: 129240 Nota: C1 Vol.: 62
Chanel 3 Note Off - Duracao: 129300 Nota: C1 Vol.: 65
Chanel 3 Note On - Duracao: 129300 Nota: C1 Vol.: 64
Chanel 1 Note Off - Duracao: 129420 Nota: C1 Vol.: 54
Chanel 1 Note On - Duracao: 129420 Nota: C1 Vol.: 55
Chanel 9 Note Off - Duracao: 129480 Nota: C1 Vol.: 77
Chanel 9 Note On - Duracao: 129480 Nota: C1 Vol.: 67
Chanel 1 Note Off - Duracao: 129540 Nota: C1 Vol.: 55
Chanel 1 Note On - Duracao: 129540 Nota: C1 Vol.: 43
Chanel 3 Note Off - Duracao: 129540 Nota: C1 Vol.: 64
Chanel 3 Note On - Duracao: 129540 Nota: C1 Vol.: 52
Chanel 4 Note Off - Duracao: 129540 Nota: C1 Vol.: 77
Chanel 4 Note On - Duracao: 129540 Nota: C1 Vol.: 76
Chanel 6 Note Off - Duracao: 129540 Nota: C1 Vol.: 50
Chanel 6 Note On - Duracao: 129540 Nota: C1 Vol.: 43
Chanel 10 Note Off - Duracao: 129720 Nota: C1 Vol.: 62
Chanel 10 Note On - Duracao: 129720 Nota: C1 Vol.: 72
Chanel 1 Note Off - Duracao: 129780 Nota: C1 Vol.: 43
Chanel 1 Note On - Duracao: 129780 Nota: C1 Vol.: 58
Chanel 1 Note Off - Duracao: 129900 Nota: C1 Vol.: 58
Chanel 1 Note On - Duracao: 129900 Nota: C1 Vol.: 58
Chanel 5 Note Off - Duracao: 129900 Nota: C1 Vol.: 59
Chanel 5 Note On - Duracao: 129900 Nota: C1 Vol.: 59
Chanel 9 Note Off - Duracao: 129960 Nota: C1 Vol.: 67
Chanel 9 Note On - Duracao: 129960 Nota: C1 Vol.: 73
Chanel 10 Note Off - Duracao: 129960 Nota: C1 Vol.: 72
Chanel 10 Note On - Duracao: 129960 Nota: C1 Vol.: 67
Chanel 1 Note Off - Duracao: 130020 Nota: C1 Vol.: 58
Chanel 1 Note On - Duracao: 130020 Nota: C1 Vol.: 49
Chanel 2 Note Off - Duracao: 130020 Nota: C1 Vol.: 46
Chanel 2 Note On - Duracao: 130020 Nota: C1 Vol.: 46
Chanel 9 Note Off - Duracao: 130200 Nota: C1 Vol.: 73
Chanel 9 Note On - Duracao: 130200 Nota: C1 Vol.: 67
Chanel 1 Note Off - Duracao: 130260 Nota: C1 Vol.: 49
Chanel 1 Note On - Duracao: 130260 Nota: C1 Vol.: 55
Chanel 9 Note Off - Duracao: 130440 Nota: C1 Vol.: 67
Chanel 9 Note On - Duracao: 130440 Nota: C1 Vol.: 64
Chanel 10 Note Off - Duracao: 130440 Nota: C1 Vol.: 67
Chanel 10 Note On - Duracao: 130440 Nota: C1 Vol.: 63
Chanel 1 Note Off - Duracao: 130500 Nota: C1 Vol.: 55
Chanel 1 Note On - Duracao: 130500 Nota: C1 Vol.: 58
Chanel 3 Note Off - Duracao: 130500 Nota: C1 Vol.: 52
Chanel 3 Note On - Duracao: 130500 Nota: C1 Vol.: 59
Chanel 4 Note Off - Duracao: 130500 Nota: C1 Vol.: 76
Chanel 4 Note On - Duracao: 130500 Nota: C1 Vol.: 76
Chanel 6 Note Off - Duracao: 130500 Nota: C1 Vol.: 43
Chanel 6 Note On - Duracao: 130500 Nota: C1 Vol.: 43
Chanel 1 Note Off - Duracao: 130620 Nota: C1 Vol.: 58
Chanel 1 Note On - Duracao: 130620 Nota: C1 Vol.: 52
Chanel 9 Note Off - Duracao: 130680 Nota: C1 Vol.: 64
Chanel 9 Note On - Duracao: 130680 Nota: C1 Vol.: 54
Chanel 1 Note Off - Duracao: 130860 Nota: C1 Vol.: 52
Chanel 1 Note On - Duracao: 130860 Nota: C1 Vol.: 53
Chanel 5 Note Off - Duracao: 130860 Nota: C1 Vol.: 59
Chanel 5 Note On - Duracao: 130860 Nota: C1 Vol.: 51
Chanel 7 Note Off - Duracao: 130860 Nota: C1 Vol.: 52
Chanel 7 Note On - Duracao: 130860 Nota: C1 Vol.: 48
Chanel 10 Note Off - Duracao: 130920 Nota: C1 Vol.: 63
Chanel 10 Note On - Duracao: 130920 Nota: C1 Vol.: 69
Chanel 1 Note Off - Duracao: 130980 Nota: C1 Vol.: 53
Chanel 1 Note On - Duracao: 130980 Nota: C1 Vol.: 55
Chanel 3 Note Off - Duracao: 130980 Nota: C1 Vol.: 59
Chanel 3 Note On - Duracao: 130980 Nota: C1 Vol.: 55
Chanel 8 Note Off - Duracao: 130980 Nota: C1 Vol.: 63
Chanel 8 Note On - Duracao: 130980 Nota: C1 Vol.: 59
Chanel 1 Note Off - Duracao: 131100 Nota: C1 Vol.: 55
Chanel 1 Note On - Duracao: 131100 Nota: C1 Vol.: 50
Chanel 9 Note Off - Duracao: 131160 Nota: C1 Vol.: 54
Chanel 9 Note On - Duracao: 131160 Nota: C1 Vol.: 53
Chanel 10 Note Off - Duracao: 131160 Nota: C1 Vol.: 69
Chanel 10 Note On - Duracao: 131160 Nota: C1 Vol.: 57
Chanel 1 Note Off - Duracao: 131220 Nota: C1 Vol.: 50
Chanel 1 Note On - Duracao: 131220 Nota: C1 Vol.: 48
Chanel 1 Note Off - Duracao: 131340 Nota: C1 Vol.: 48
Chanel 1 Note On - Duracao: 131340 Nota: C1 Vol.: 46
Chanel 1 Note Off - Duracao: 131460 Nota: C1 Vol.: 46
Chanel 1 Note On - Duracao: 131460 Nota: C1 Vol.: 42
Chanel 4 Note Off - Duracao: 131460 Nota: C1 Vol.: 76
Chanel 4 Note On - Duracao: 131460 Nota: C1 Vol.: 72
Chanel 6 Note Off - Duracao: 131460 Nota: C1 Vol.: 43
Chanel 6 Note On - Duracao: 131460 Nota: C1 Vol.: 43
Chanel 1 Note Off - Duracao: 131580 Nota: C1 Vol.: 42
Chanel 1 Note On - Duracao: 131580 Nota: C1 Vol.: 42
Chanel 9 Note Off - Duracao: 131640 Nota: C1 Vol.: 53
Chanel 9 Note On - Duracao: 131640 Nota: C1 Vol.: 62
Chanel 1 Note Off - Duracao: 131700 Nota: C1 Vol.: 42
Chanel 1 Note On - Duracao: 131700 Nota: C1 Vol.: 44
Chanel 1 Note Off - Duracao: 131820 Nota: C1 Vol.: 44
Chanel 1 Note On - Duracao: 131820 Nota: C1 Vol.: 52
Chanel 5 Note Off - Duracao: 131820 Nota: C1 Vol.: 51
Chanel 5 Note On - Duracao: 131820 Nota: C1 Vol.: 53
Chanel 1 Note Off - Duracao: 131940 Nota: C1 Vol.: 52
Chanel 1 Note On - Duracao: 131940 Nota: C1 Vol.: 58
Chanel 2 Note Off - Duracao: 131940 Nota: C1 Vol.: 46
Chanel 2 Note On - Duracao: 131940 Nota: C1 Vol.: 56
Chanel 3 Note Off - Duracao: 131940 Nota: C1 Vol.: 55
Chanel 3 Note On - Duracao: 131940 Nota: C1 Vol.: 59
Chanel 1 Note Off - Duracao: 132060 Nota: C1 Vol.: 58
Chanel 1 Note On - Duracao: 132060 Nota: C1 Vol.: 40
Chanel 9 Note Off - Duracao: 132120 Nota: C1 Vol.: 62
Chanel 9 Note On - Duracao: 132120 Nota: C1 Vol.: 60
Chanel 10 Note Off - Duracao: 132120 Nota: C1 Vol.: 57
Chanel 10 Note On - Duracao: 132120 Nota: C1 Vol.: 60
Chanel 3 Note Off - Duracao: 132420 Nota: C1 Vol.: 59
Chanel 3 Note On - Duracao: 132420 Nota: C1 Vol.: 62
Chanel 4 Note Off - Duracao: 132420 Nota: C1 Vol.: 72
Chanel 4 Note On - Duracao: 132420 Nota: C1 Vol.: 72
Chanel 6 Note Off - Duracao: 132420 Nota: C1 Vol.: 43
Chanel 6 Note On - Duracao: 132420 Nota: C1 Vol.: 48
Chanel 9 Note Off - Duracao: 132600 Nota: C1 Vol.: 60
Chanel 9 Note On - Duracao: 132600 Nota: C1 Vol.: 62
Chanel 10 Note Off - Duracao: 132600 Nota: C1 Vol.: 60
Chanel 10 Note On - Duracao: 132600 Nota: C1 Vol.: 66
Chanel 5 Note Off - Duracao: 132780 Nota: C1 Vol.: 53
Chanel 5 Note On - Duracao: 132780 Nota: C1 Vol.: 42
Chanel 2 Note Off - Duracao: 132900 Nota: C1 Vol.: 56
Chanel 2 Note On - Duracao: 132900 Nota: C1 Vol.: 75
Chanel 3 Note Off - Duracao: 132900 Nota: C1 Vol.: 62
Chanel 3 Note On - Duracao: 132900 Nota: C1 Vol.: 81
Chanel 8 Note Off - Duracao: 132900 Nota: C1 Vol.: 59
Chanel 8 Note On - Duracao: 132900 Nota: C1 Vol.: 56
Chanel 1 Note Off - Duracao: 133020 Nota: C1 Vol.: 40
Chanel 1 Note On - Duracao: 133020 Nota: C1 Vol.: 59
Chanel 3 Note Off - Duracao: 133020 Nota: C1 Vol.: 81
Chanel 3 Note On - Duracao: 133020 Nota: C1 Vol.: 78
Chanel 9 Note Off - Duracao: 133080 Nota: C1 Vol.: 62
Chanel 9 Note On - Duracao: 133080 Nota: C1 Vol.: 66
Chanel 10 Note Off - Duracao: 133080 Nota: C1 Vol.: 66
Chanel 10 Note On - Duracao: 133080 Nota: C1 Vol.: 63
Chanel 2 Note Off - Duracao: 133140 Nota: C1 Vol.: 75
Chanel 2 Note On - Duracao: 133140 Nota: C1 Vol.: 51
Chanel 3 Note Off - Duracao: 133260 Nota: C1 Vol.: 78
Chanel 3 Note On - Duracao: 133260 Nota: C1 Vol.: 71
Chanel 4 Note Off - Duracao: 133380 Nota: C1 Vol.: 72
Chanel 4 Note On - Duracao: 133380 Nota: C1 Vol.: 73
Chanel 6 Note Off - Duracao: 133380 Nota: C1 Vol.: 48
Chanel 6 Note On - Duracao: 133380 Nota: C1 Vol.: 47
Chanel 1 Note Off - Duracao: 133500 Nota: C1 Vol.: 59
Chanel 1 Note On - Duracao: 133500 Nota: C1 Vol.: 93
Chanel 3 Note Off - Duracao: 133500 Nota: C1 Vol.: 71
Chanel 3 Note On - Duracao: 133500 Nota: C1 Vol.: 63
Chanel 1 Note Off - Duracao: 133560 Nota: C1 Vol.: 93
Chanel 1 Note On - Duracao: 133560 Nota: C1 Vol.: 95
Chanel 9 Note Off - Duracao: 133560 Nota: C1 Vol.: 66
Chanel 9 Note On - Duracao: 133560 Nota: C1 Vol.: 56
Chanel 10 Note Off - Duracao: 133560 Nota: C1 Vol.: 63
Chanel 10 Note On - Duracao: 133560 Nota: C1 Vol.: 59
Chanel 1 Note Off - Duracao: 133620 Nota: C1 Vol.: 95
Chanel 1 Note On - Duracao: 133620 Nota: C1 Vol.: 83
Chanel 1 Note Off - Duracao: 133860 Nota: C1 Vol.: 83
Chanel 1 Note On - Duracao: 133860 Nota: C1 Vol.: 80
Chanel 3 Note Off - Duracao: 133980 Nota: C1 Vol.: 63
Chanel 3 Note On - Duracao: 133980 Nota: C1 Vol.: 72
Chanel 9 Note Off - Duracao: 134040 Nota: C1 Vol.: 56
Chanel 9 Note On - Duracao: 134040 Nota: C1 Vol.: 69
Chanel 10 Note Off - Duracao: 134040 Nota: C1 Vol.: 59
Chanel 10 Note On - Duracao: 134040 Nota: C1 Vol.: 60
Chanel 1 Note Off - Duracao: 134100 Nota: C1 Vol.: 80
Chanel 1 Note On - Duracao: 134100 Nota: C1 Vol.: 86
Chanel 1 Note Off - Duracao: 134220 Nota: C1 Vol.: 86
Chanel 1 Note On - Duracao: 134220 Nota: C1 Vol.: 86
Chanel 3 Note Off - Duracao: 134220 Nota: C1 Vol.: 72
Chanel 3 Note On - Duracao: 134220 Nota: C1 Vol.: 72
Chanel 9 Note Off - Duracao: 134280 Nota: C1 Vol.: 69
Chanel 9 Note On - Duracao: 134280 Nota: C1 Vol.: 69
Chanel 1 Note Off - Duracao: 134340 Nota: C1 Vol.: 86
Chanel 1 Note On - Duracao: 134340 Nota: C1 Vol.: 82
Chanel 4 Note Off - Duracao: 134340 Nota: C1 Vol.: 73
Chanel 4 Note On - Duracao: 134340 Nota: C1 Vol.: 71
Chanel 6 Note Off - Duracao: 134340 Nota: C1 Vol.: 47
Chanel 6 Note On - Duracao: 134340 Nota: C1 Vol.: 57
Chanel 3 Note Off - Duracao: 134460 Nota: C1 Vol.: 72
Chanel 3 Note On - Duracao: 134460 Nota: C1 Vol.: 55
Chanel 9 Note Off - Duracao: 134520 Nota: C1 Vol.: 69
Chanel 9 Note On - Duracao: 134520 Nota: C1 Vol.: 55
Chanel 10 Note Off - Duracao: 134520 Nota: C1 Vol.: 60
Chanel 10 Note On - Duracao: 134520 Nota: C1 Vol.: 56
Chanel 1 Note Off - Duracao: 134580 Nota: C1 Vol.: 82
Chanel 1 Note On - Duracao: 134580 Nota: C1 Vol.: 85
Chanel 6 Note Off - Duracao: 134580 Nota: C1 Vol.: 57
Chanel 6 Note On - Duracao: 134580 Nota: C1 Vol.: 57
Chanel 5 Note Off - Duracao: 134700 Nota: C1 Vol.: 42
Chanel 5 Note On - Duracao: 134700 Nota: C1 Vol.: 56
Chanel 7 Note Off - Duracao: 134700 Nota: C1 Vol.: 48
Chanel 7 Note On - Duracao: 134700 Nota: C1 Vol.: 48
Chanel 1 Note Off - Duracao: 134820 Nota: C1 Vol.: 85
Chanel 1 Note On - Duracao: 134820 Nota: C1 Vol.: 76
Chanel 6 Note Off - Duracao: 134820 Nota: C1 Vol.: 57
Chanel 6 Note On - Duracao: 134820 Nota: C1 Vol.: 46
Chanel 8 Note Off - Duracao: 134820 Nota: C1 Vol.: 56
Chanel 8 Note On - Duracao: 134820 Nota: C1 Vol.: 46
Chanel 3 Note Off - Duracao: 134940 Nota: C1 Vol.: 55
Chanel 3 Note On - Duracao: 134940 Nota: C1 Vol.: 59
Chanel 1 Note Off - Duracao: 135060 Nota: C1 Vol.: 76
Chanel 1 Note On - Duracao: 135060 Nota: C1 Vol.: 79
Chanel 2 Note Off - Duracao: 135060 Nota: C1 Vol.: 51
Chanel 2 Note On - Duracao: 135060 Nota: C1 Vol.: 56
Chanel 5 Note Off - Duracao: 135180 Nota: C1 Vol.: 56
Chanel 5 Note On - Duracao: 135180 Nota: C1 Vol.: 57
Chanel 1 Note Off - Duracao: 135300 Nota: C1 Vol.: 79
Chanel 1 Note On - Duracao: 135300 Nota: C1 Vol.: 78
Chanel 4 Note Off - Duracao: 135300 Nota: C1 Vol.: 71
Chanel 4 Note On - Duracao: 135300 Nota: C1 Vol.: 67
Chanel 3 Note Off - Duracao: 135420 Nota: C1 Vol.: 59
Chanel 3 Note On - Duracao: 135420 Nota: C1 Vol.: 55
Chanel 9 Note Off - Duracao: 135480 Nota: C1 Vol.: 55
Chanel 9 Note On - Duracao: 135480 Nota: C1 Vol.: 57
Chanel 10 Note Off - Duracao: 135480 Nota: C1 Vol.: 56
Chanel 10 Note On - Duracao: 135480 Nota: C1 Vol.: 47
Chanel 1 Note Off - Duracao: 135540 Nota: C1 Vol.: 78
Chanel 1 Note On - Duracao: 135540 Nota: C1 Vol.: 74
Chanel 5 Note Off - Duracao: 135660 Nota: C1 Vol.: 57
Chanel 5 Note On - Duracao: 135660 Nota: C1 Vol.: 53
Chanel 6 Note Off - Duracao: 135780 Nota: C1 Vol.: 46
Chanel 6 Note On - Duracao: 135780 Nota: C1 Vol.: 49
Chanel 3 Note Off - Duracao: 135900 Nota: C1 Vol.: 55
Chanel 3 Note On - Duracao: 135900 Nota: C1 Vol.: 62
Chanel 1 Note Off - Duracao: 136020 Nota: C1 Vol.: 74
Chanel 1 Note On - Duracao: 136020 Nota: C1 Vol.: 80
Chanel 3 Note Off - Duracao: 136140 Nota: C1 Vol.: 62
Chanel 3 Note On - Duracao: 136140 Nota: C1 Vol.: 66
Chanel 5 Note Off - Duracao: 136140 Nota: C1 Vol.: 53
Chanel 5 Note On - Duracao: 136140 Nota: C1 Vol.: 53
Chanel 1 Note Off - Duracao: 136260 Nota: C1 Vol.: 80
Chanel 1 Note On - Duracao: 136260 Nota: C1 Vol.: 70
Chanel 4 Note Off - Duracao: 136260 Nota: C1 Vol.: 67
Chanel 4 Note On - Duracao: 136260 Nota: C1 Vol.: 43
Chanel 3 Note Off - Duracao: 136380 Nota: C1 Vol.: 66
Chanel 3 Note On - Duracao: 136380 Nota: C1 Vol.: 47
Chanel 9 Note Off - Duracao: 136440 Nota: C1 Vol.: 57
Chanel 9 Note On - Duracao: 136440 Nota: C1 Vol.: 57
Chanel 1 Note Off - Duracao: 136500 Nota: C1 Vol.: 70
Chanel 1 Note On - Duracao: 136500 Nota: C1 Vol.: 53
Chanel 5 Note Off - Duracao: 136620 Nota: C1 Vol.: 53
Chanel 5 Note On - Duracao: 136620 Nota: C1 Vol.: 55
Chanel 7 Note Off - Duracao: 136620 Nota: C1 Vol.: 48
Chanel 7 Note On - Duracao: 136620 Nota: C1 Vol.: 72
Chanel 6 Note Off - Duracao: 136740 Nota: C1 Vol.: 49
Chanel 6 Note On - Duracao: 136740 Nota: C1 Vol.: 55
Chanel 1 Note Off - Duracao: 136980 Nota: C1 Vol.: 53
Chanel 1 Note On - Duracao: 136980 Nota: C1 Vol.: 69
Chanel 2 Note Off - Duracao: 136980 Nota: C1 Vol.: 56
Chanel 2 Note On - Duracao: 136980 Nota: C1 Vol.: 56
Chanel 1 Note Off - Duracao: 137100 Nota: C1 Vol.: 69
Chanel 1 Note On - Duracao: 137100 Nota: C1 Vol.: 73
Chanel 5 Note Off - Duracao: 137100 Nota: C1 Vol.: 55
Chanel 5 Note On - Duracao: 137100 Nota: C1 Vol.: 57
Chanel 7 Note Off - Duracao: 137100 Nota: C1 Vol.: 72
Chanel 7 Note On - Duracao: 137100 Nota: C1 Vol.: 83
Chanel 1 Note Off - Duracao: 137220 Nota: C1 Vol.: 73
Chanel 1 Note On - Duracao: 137220 Nota: C1 Vol.: 62
Chanel 6 Note Off - Duracao: 137220 Nota: C1 Vol.: 55
Chanel 6 Note On - Duracao: 137220 Nota: C1 Vol.: 58
Chanel 3 Note Off - Duracao: 137340 Nota: C1 Vol.: 47
Chanel 3 Note On - Duracao: 137340 Nota: C1 Vol.: 40
Chanel 7 Note Off - Duracao: 137340 Nota: C1 Vol.: 83
Chanel 7 Note On - Duracao: 137340 Nota: C1 Vol.: 88
Chanel 9 Note Off - Duracao: 137400 Nota: C1 Vol.: 57
Chanel 9 Note On - Duracao: 137400 Nota: C1 Vol.: 56
Chanel 10 Note Off - Duracao: 137400 Nota: C1 Vol.: 47
Chanel 10 Note On - Duracao: 137400 Nota: C1 Vol.: 49
Chanel 7 Note Off - Duracao: 137460 Nota: C1 Vol.: 88
Chanel 7 Note On - Duracao: 137460 Nota: C1 Vol.: 87
Chanel 5 Note Off - Duracao: 137580 Nota: C1 Vol.: 57
Chanel 5 Note On - Duracao: 137580 Nota: C1 Vol.: 55
Chanel 7 Note Off - Duracao: 137580 Nota: C1 Vol.: 87
Chanel 7 Note On - Duracao: 137580 Nota: C1 Vol.: 87
Chanel 1 Note Off - Duracao: 137700 Nota: C1 Vol.: 62
Chanel 1 Note On - Duracao: 137700 Nota: C1 Vol.: 70
Chanel 6 Note Off - Duracao: 137700 Nota: C1 Vol.: 58
Chanel 6 Note On - Duracao: 137700 Nota: C1 Vol.: 46
Chanel 7 Note Off - Duracao: 137700 Nota: C1 Vol.: 87
Chanel 7 Note On - Duracao: 137700 Nota: C1 Vol.: 87
Chanel 7 Note Off - Duracao: 137820 Nota: C1 Vol.: 87
Chanel 7 Note On - Duracao: 137820 Nota: C1 Vol.: 88
Chanel 1 Note Off - Duracao: 137940 Nota: C1 Vol.: 70
Chanel 1 Note On - Duracao: 137940 Nota: C1 Vol.: 78
Chanel 7 Note Off - Duracao: 137940 Nota: C1 Vol.: 88
Chanel 7 Note On - Duracao: 137940 Nota: C1 Vol.: 89
Chanel 5 Note Off - Duracao: 138060 Nota: C1 Vol.: 55
Chanel 5 Note On - Duracao: 138060 Nota: C1 Vol.: 53
Chanel 7 Note Off - Duracao: 138060 Nota: C1 Vol.: 89
Chanel 7 Note On - Duracao: 138060 Nota: C1 Vol.: 87
Chanel 1 Note Off - Duracao: 138180 Nota: C1 Vol.: 78
Chanel 1 Note On - Duracao: 138180 Nota: C1 Vol.: 90
Chanel 7 Note Off - Duracao: 138180 Nota: C1 Vol.: 87
Chanel 7 Note On - Duracao: 138180 Nota: C1 Vol.: 83
Chanel 1 Note Off - Duracao: 138300 Nota: C1 Vol.: 90
Chanel 1 Note On - Duracao: 138300 Nota: C1 Vol.: 95
Chanel 9 Note Off - Duracao: 138360 Nota: C1 Vol.: 56
Chanel 9 Note On - Duracao: 138360 Nota: C1 Vol.: 64
Chanel 10 Note Off - Duracao: 138360 Nota: C1 Vol.: 49
Chanel 10 Note On - Duracao: 138360 Nota: C1 Vol.: 56
Chanel 1 Note Off - Duracao: 138420 Nota: C1 Vol.: 95
Chanel 1 Note On - Duracao: 138420 Nota: C1 Vol.: 87
Chanel 7 Note Off - Duracao: 138420 Nota: C1 Vol.: 83
Chanel 7 Note On - Duracao: 138420 Nota: C1 Vol.: 94
Chanel 7 Note Off - Duracao: 138480 Nota: C1 Vol.: 94
Chanel 7 Note On - Duracao: 138480 Nota: C1 Vol.: 78
Chanel 1 Note Off - Duracao: 138540 Nota: C1 Vol.: 87
Chanel 1 Note On - Duracao: 138540 Nota: C1 Vol.: 91
Chanel 1 Note Off - Duracao: 138660 Nota: C1 Vol.: 91
Chanel 1 Note On - Duracao: 138660 Nota: C1 Vol.: 95
Chanel 6 Note Off - Duracao: 138660 Nota: C1 Vol.: 46
Chanel 6 Note On - Duracao: 138660 Nota: C1 Vol.: 56
Chanel 8 Note Off - Duracao: 138660 Nota: C1 Vol.: 46
Chanel 8 Note On - Duracao: 138660 Nota: C1 Vol.: 52
Chanel 7 Note Off - Duracao: 138720 Nota: C1 Vol.: 78
Chanel 7 Note On - Duracao: 138720 Nota: C1 Vol.: 86
Chanel 1 Note Off - Duracao: 138780 Nota: C1 Vol.: 95
Chanel 1 Note On - Duracao: 138780 Nota: C1 Vol.: 91
Chanel 7 Note Off - Duracao: 138840 Nota: C1 Vol.: 86
Chanel 7 Note On - Duracao: 138840 Nota: C1 Vol.: 72
Chanel 10 Note Off - Duracao: 138840 Nota: C1 Vol.: 56
Chanel 10 Note On - Duracao: 138840 Nota: C1 Vol.: 51
Chanel 1 Note Off - Duracao: 138900 Nota: C1 Vol.: 91
Chanel 1 Note On - Duracao: 138900 Nota: C1 Vol.: 94
Chanel 2 Note Off - Duracao: 138900 Nota: C1 Vol.: 56
Chanel 2 Note On - Duracao: 138900 Nota: C1 Vol.: 59
Chanel 6 Note Off - Duracao: 138900 Nota: C1 Vol.: 56
Chanel 6 Note On - Duracao: 138900 Nota: C1 Vol.: 66
Chanel 1 Note Off - Duracao: 139020 Nota: C1 Vol.: 94
Chanel 1 Note On - Duracao: 139020 Nota: C1 Vol.: 100
Chanel 5 Note Off - Duracao: 139020 Nota: C1 Vol.: 53
Chanel 5 Note On - Duracao: 139020 Nota: C1 Vol.: 49
Chanel 1 Note Off - Duracao: 139080 Nota: C1 Vol.: 100
Chanel 1 Note On - Duracao: 139080 Nota: C1 Vol.: 99
Chanel 1 Note Off - Duracao: 139140 Nota: C1 Vol.: 99
Chanel 1 Note On - Duracao: 139140 Nota: C1 Vol.: 100
Chanel 6 Note Off - Duracao: 139140 Nota: C1 Vol.: 66
Chanel 6 Note On - Duracao: 139140 Nota: C1 Vol.: 66
Chanel 1 Note Off - Duracao: 139200 Nota: C1 Vol.: 100
Chanel 1 Note On - Duracao: 139200 Nota: C1 Vol.: 99
Chanel 1 Note Off - Duracao: 139260 Nota: C1 Vol.: 99
Chanel 1 Note On - Duracao: 139260 Nota: C1 Vol.: 99
Chanel 3 Note Off - Duracao: 139260 Nota: C1 Vol.: 40
Chanel 3 Note On - Duracao: 139260 Nota: C1 Vol.: 41
Chanel 7 Note Off - Duracao: 139320 Nota: C1 Vol.: 72
Chanel 7 Note On - Duracao: 139320 Nota: C1 Vol.: 63
Chanel 9 Note Off - Duracao: 139320 Nota: C1 Vol.: 64
Chanel 9 Note On - Duracao: 139320 Nota: C1 Vol.: 61
Chanel 1 Note Off - Duracao: 139380 Nota: C1 Vol.: 99
Chanel 1 Note On - Duracao: 139380 Nota: C1 Vol.: 83
Chanel 6 Note Off - Duracao: 139380 Nota: C1 Vol.: 66
Chanel 6 Note On - Duracao: 139380 Nota: C1 Vol.: 49
Chanel 1 Note Off - Duracao: 139620 Nota: C1 Vol.: 83
Chanel 1 Note On - Duracao: 139620 Nota: C1 Vol.: 81
Chanel 7 Note Off - Duracao: 139800 Nota: C1 Vol.: 63
Chanel 7 Note On - Duracao: 139800 Nota: C1 Vol.: 59
Chanel 9 Note Off - Duracao: 139800 Nota: C1 Vol.: 61
Chanel 9 Note On - Duracao: 139800 Nota: C1 Vol.: 48
Chanel 10 Note Off - Duracao: 139800 Nota: C1 Vol.: 51
Chanel 10 Note On - Duracao: 139800 Nota: C1 Vol.: 57
Chanel 1 Note Off - Duracao: 139860 Nota: C1 Vol.: 81
Chanel 1 Note On - Duracao: 139860 Nota: C1 Vol.: 95
Chanel 2 Note Off - Duracao: 139860 Nota: C1 Vol.: 59
Chanel 2 Note On - Duracao: 139860 Nota: C1 Vol.: 88
Chanel 1 Note Off - Duracao: 139980 Nota: C1 Vol.: 95
Chanel 1 Note On - Duracao: 139980 Nota: C1 Vol.: 91
Chanel 2 Note Off - Duracao: 139980 Nota: C1 Vol.: 88
Chanel 2 Note On - Duracao: 139980 Nota: C1 Vol.: 75
Chanel 5 Note Off - Duracao: 139980 Nota: C1 Vol.: 49
Chanel 5 Note On - Duracao: 139980 Nota: C1 Vol.: 46
Chanel 1 Note Off - Duracao: 140100 Nota: C1 Vol.: 91
Chanel 1 Note On - Duracao: 140100 Nota: C1 Vol.: 87
Chanel 2 Note Off - Duracao: 140100 Nota: C1 Vol.: 75
Chanel 2 Note On - Duracao: 140100 Nota: C1 Vol.: 53
Chanel 4 Note Off - Duracao: 140100 Nota: C1 Vol.: 43
Chanel 4 Note On - Duracao: 140100 Nota: C1 Vol.: 42
Chanel 1 Note Off - Duracao: 140220 Nota: C1 Vol.: 87
Chanel 1 Note On - Duracao: 140220 Nota: C1 Vol.: 96
Chanel 2 Note Off - Duracao: 140220 Nota: C1 Vol.: 53
Chanel 2 Note On - Duracao: 140220 Nota: C1 Vol.: 49
Chanel 1 Note Off - Duracao: 140280 Nota: C1 Vol.: 96
Chanel 1 Note On - Duracao: 140280 Nota: C1 Vol.: 94
Chanel 10 Note Off - Duracao: 140280 Nota: C1 Vol.: 57
Chanel 10 Note On - Duracao: 140280 Nota: C1 Vol.: 56
Chanel 2 Note Off - Duracao: 140340 Nota: C1 Vol.: 49
Chanel 2 Note On - Duracao: 140340 Nota: C1 Vol.: 48
Chanel 6 Note Off - Duracao: 140340 Nota: C1 Vol.: 49
Chanel 6 Note On - Duracao: 140340 Nota: C1 Vol.: 52
Chanel 1 Note Off - Duracao: 140400 Nota: C1 Vol.: 94
Chanel 1 Note On - Duracao: 140400 Nota: C1 Vol.: 94
Chanel 2 Note Off - Duracao: 140460 Nota: C1 Vol.: 48
Chanel 2 Note On - Duracao: 140460 Nota: C1 Vol.: 44
Chanel 1 Note Off - Duracao: 140520 Nota: C1 Vol.: 94
Chanel 1 Note On - Duracao: 140520 Nota: C1 Vol.: 97
Chanel 1 Note Off - Duracao: 140580 Nota: C1 Vol.: 97
Chanel 1 Note On - Duracao: 140580 Nota: C1 Vol.: 91
Chanel 2 Note Off - Duracao: 140580 Nota: C1 Vol.: 44
Chanel 2 Note On - Duracao: 140580 Nota: C1 Vol.: 44
Chanel 8 Note Off - Duracao: 140580 Nota: C1 Vol.: 52
Chanel 8 Note On - Duracao: 140580 Nota: C1 Vol.: 51
Chanel 1 Note Off - Duracao: 140700 Nota: C1 Vol.: 91
Chanel 1 Note On - Duracao: 140700 Nota: C1 Vol.: 96
Chanel 2 Note Off - Duracao: 140700 Nota: C1 Vol.: 44
Chanel 2 Note On - Duracao: 140700 Nota: C1 Vol.: 44
Chanel 1 Note Off - Duracao: 140760 Nota: C1 Vol.: 96
Chanel 1 Note On - Duracao: 140760 Nota: C1 Vol.: 91
Chanel 7 Note Off - Duracao: 140760 Nota: C1 Vol.: 59
Chanel 7 Note On - Duracao: 140760 Nota: C1 Vol.: 62
Chanel 9 Note Off - Duracao: 140760 Nota: C1 Vol.: 48
Chanel 9 Note On - Duracao: 140760 Nota: C1 Vol.: 51
Chanel 10 Note Off - Duracao: 140760 Nota: C1 Vol.: 56
Chanel 10 Note On - Duracao: 140760 Nota: C1 Vol.: 60
Chanel 1 Note Off - Duracao: 140820 Nota: C1 Vol.: 91
Chanel 1 Note On - Duracao: 140820 Nota: C1 Vol.: 83
Chanel 2 Note Off - Duracao: 140820 Nota: C1 Vol.: 44
Chanel 2 Note On - Duracao: 140820 Nota: C1 Vol.: 42
Chanel 6 Note Off - Duracao: 140820 Nota: C1 Vol.: 52
Chanel 6 Note On - Duracao: 140820 Nota: C1 Vol.: 50
Chanel 1 Note Off - Duracao: 140940 Nota: C1 Vol.: 83
Chanel 1 Note On - Duracao: 140940 Nota: C1 Vol.: 68
Chanel 2 Note Off - Duracao: 140940 Nota: C1 Vol.: 42
Chanel 2 Note On - Duracao: 140940 Nota: C1 Vol.: 41
Chanel 5 Note Off - Duracao: 140940 Nota: C1 Vol.: 46
Chanel 5 Note On - Duracao: 140940 Nota: C1 Vol.: 45
Chanel 2 Note Off - Duracao: 141060 Nota: C1 Vol.: 41
Chanel 2 Note On - Duracao: 141060 Nota: C1 Vol.: 42
Chanel 1 Note Off - Duracao: 141180 Nota: C1 Vol.: 68
Chanel 1 Note On - Duracao: 141180 Nota: C1 Vol.: 69
Chanel 2 Note Off - Duracao: 141180 Nota: C1 Vol.: 42
Chanel 2 Note On - Duracao: 141180 Nota: C1 Vol.: 45
Chanel 3 Note Off - Duracao: 141180 Nota: C1 Vol.: 41
Chanel 3 Note On - Duracao: 141180 Nota: C1 Vol.: 65
Chanel 7 Note Off - Duracao: 141240 Nota: C1 Vol.: 62
Chanel 7 Note On - Duracao: 141240 Nota: C1 Vol.: 84
Chanel 9 Note Off - Duracao: 141240 Nota: C1 Vol.: 51
Chanel 9 Note On - Duracao: 141240 Nota: C1 Vol.: 51
Chanel 10 Note Off - Duracao: 141240 Nota: C1 Vol.: 60
Chanel 10 Note On - Duracao: 141240 Nota: C1 Vol.: 54
Chanel 1 Note Off - Duracao: 141300 Nota: C1 Vol.: 69
Chanel 1 Note On - Duracao: 141300 Nota: C1 Vol.: 64
Chanel 2 Note Off - Duracao: 141300 Nota: C1 Vol.: 45
Chanel 2 Note On - Duracao: 141300 Nota: C1 Vol.: 51
Chanel 7 Note Off - Duracao: 141360 Nota: C1 Vol.: 84
Chanel 7 Note On - Duracao: 141360 Nota: C1 Vol.: 80
Chanel 1 Note Off - Duracao: 141420 Nota: C1 Vol.: 64
Chanel 1 Note On - Duracao: 141420 Nota: C1 Vol.: 60
Chanel 2 Note Off - Duracao: 141420 Nota: C1 Vol.: 51
Chanel 2 Note On - Duracao: 141420 Nota: C1 Vol.: 56
Chanel 9 Note Off - Duracao: 141480 Nota: C1 Vol.: 51
Chanel 9 Note On - Duracao: 141480 Nota: C1 Vol.: 51
Chanel 1 Note Off - Duracao: 141540 Nota: C1 Vol.: 60
Chanel 1 Note On - Duracao: 141540 Nota: C1 Vol.: 57
Chanel 2 Note Off - Duracao: 141540 Nota: C1 Vol.: 56
Chanel 2 Note On - Duracao: 141540 Nota: C1 Vol.: 40
Chanel 8 Note Off - Duracao: 141540 Nota: C1 Vol.: 51
Chanel 8 Note On - Duracao: 141540 Nota: C1 Vol.: 45
Chanel 7 Note Off - Duracao: 141600 Nota: C1 Vol.: 80
Chanel 7 Note On - Duracao: 141600 Nota: C1 Vol.: 68
Chanel 9 Note Off - Duracao: 141600 Nota: C1 Vol.: 51
Chanel 9 Note On - Duracao: 141600 Nota: C1 Vol.: 50
Chanel 3 Note Off - Duracao: 141660 Nota: C1 Vol.: 65
Chanel 3 Note On - Duracao: 141660 Nota: C1 Vol.: 63
Chanel 9 Note Off - Duracao: 141720 Nota: C1 Vol.: 50
Chanel 9 Note On - Duracao: 141720 Nota: C1 Vol.: 51
Chanel 10 Note Off - Duracao: 141720 Nota: C1 Vol.: 54
Chanel 10 Note On - Duracao: 141720 Nota: C1 Vol.: 56
Chanel 1 Note Off - Duracao: 141780 Nota: C1 Vol.: 57
Chanel 1 Note On - Duracao: 141780 Nota: C1 Vol.: 64
Chanel 6 Note Off - Duracao: 141780 Nota: C1 Vol.: 50
Chanel 6 Note On - Duracao: 141780 Nota: C1 Vol.: 48
Chanel 9 Note Off - Duracao: 141840 Nota: C1 Vol.: 51
Chanel 9 Note On - Duracao: 141840 Nota: C1 Vol.: 45
Chanel 1 Note Off - Duracao: 141900 Nota: C1 Vol.: 64
Chanel 1 Note On - Duracao: 141900 Nota: C1 Vol.: 67
Chanel 5 Note Off - Duracao: 141900 Nota: C1 Vol.: 45
Chanel 5 Note On - Duracao: 141900 Nota: C1 Vol.: 47
Chanel 9 Note Off - Duracao: 141960 Nota: C1 Vol.: 45
Chanel 9 Note On - Duracao: 141960 Nota: C1 Vol.: 41
Chanel 1 Note Off - Duracao: 142020 Nota: C1 Vol.: 67
Chanel 1 Note On - Duracao: 142020 Nota: C1 Vol.: 56
Chanel 7 Note Off - Duracao: 142080 Nota: C1 Vol.: 68
Chanel 7 Note On - Duracao: 142080 Nota: C1 Vol.: 62
Chanel 3 Note Off - Duracao: 142140 Nota: C1 Vol.: 63
Chanel 3 Note On - Duracao: 142140 Nota: C1 Vol.: 93
Chanel 3 Note Off - Duracao: 142200 Nota: C1 Vol.: 93
Chanel 3 Note On - Duracao: 142200 Nota: C1 Vol.: 97
Chanel 9 Note Off - Duracao: 142200 Nota: C1 Vol.: 41
Chanel 9 Note On - Duracao: 142200 Nota: C1 Vol.: 50
Chanel 10 Note Off - Duracao: 142200 Nota: C1 Vol.: 56
Chanel 10 Note On - Duracao: 142200 Nota: C1 Vol.: 64
Chanel 1 Note Off - Duracao: 142260 Nota: C1 Vol.: 56
Chanel 1 Note On - Duracao: 142260 Nota: C1 Vol.: 51
Chanel 3 Note Off - Duracao: 142260 Nota: C1 Vol.: 97
Chanel 3 Note On - Duracao: 142260 Nota: C1 Vol.: 98
Chanel 6 Note Off - Duracao: 142260 Nota: C1 Vol.: 48
Chanel 6 Note On - Duracao: 142260 Nota: C1 Vol.: 67
Chanel 3 Note Off - Duracao: 142320 Nota: C1 Vol.: 98
Chanel 3 Note On - Duracao: 142320 Nota: C1 Vol.: 77
Chanel 9 Note Off - Duracao: 142320 Nota: C1 Vol.: 50
Chanel 9 Note On - Duracao: 142320 Nota: C1 Vol.: 53
Chanel 6 Note Off - Duracao: 142380 Nota: C1 Vol.: 67
Chanel 6 Note On - Duracao: 142380 Nota: C1 Vol.: 70
Chanel 9 Note Off - Duracao: 142440 Nota: C1 Vol.: 53
Chanel 9 Note On - Duracao: 142440 Nota: C1 Vol.: 48
Chanel 6 Note Off - Duracao: 142500 Nota: C1 Vol.: 70
Chanel 6 Note On - Duracao: 142500 Nota: C1 Vol.: 54
Chanel 3 Note Off - Duracao: 142560 Nota: C1 Vol.: 77
Chanel 3 Note On - Duracao: 142560 Nota: C1 Vol.: 71
Chanel 7 Note Off - Duracao: 142560 Nota: C1 Vol.: 62
Chanel 7 Note On - Duracao: 142560 Nota: C1 Vol.: 83
Chanel 7 Note Off - Duracao: 142680 Nota: C1 Vol.: 83
Chanel 7 Note On - Duracao: 142680 Nota: C1 Vol.: 78
Chanel 9 Note Off - Duracao: 142680 Nota: C1 Vol.: 48
Chanel 9 Note On - Duracao: 142680 Nota: C1 Vol.: 43
Chanel 10 Note Off - Duracao: 142680 Nota: C1 Vol.: 64
Chanel 10 Note On - Duracao: 142680 Nota: C1 Vol.: 58
Chanel 1 Note Off - Duracao: 142740 Nota: C1 Vol.: 51
Chanel 1 Note On - Duracao: 142740 Nota: C1 Vol.: 54
Chanel 5 Note Off - Duracao: 142860 Nota: C1 Vol.: 47
Chanel 5 Note On - Duracao: 142860 Nota: C1 Vol.: 46
Chanel 7 Note Off - Duracao: 142920 Nota: C1 Vol.: 78
Chanel 7 Note On - Duracao: 142920 Nota: C1 Vol.: 81
Chanel 6 Note Off - Duracao: 142980 Nota: C1 Vol.: 54
Chanel 6 Note On - Duracao: 142980 Nota: C1 Vol.: 45
Chanel 3 Note Off - Duracao: 143040 Nota: C1 Vol.: 71
Chanel 3 Note On - Duracao: 143040 Nota: C1 Vol.: 40
Chanel 7 Note Off - Duracao: 143160 Nota: C1 Vol.: 81
Chanel 7 Note On - Duracao: 143160 Nota: C1 Vol.: 95
Chanel 9 Note Off - Duracao: 143160 Nota: C1 Vol.: 43
Chanel 9 Note On - Duracao: 143160 Nota: C1 Vol.: 40
Chanel 10 Note Off - Duracao: 143160 Nota: C1 Vol.: 58
Chanel 10 Note On - Duracao: 143160 Nota: C1 Vol.: 57
Chanel 1 Note Off - Duracao: 143220 Nota: C1 Vol.: 54
Chanel 1 Note On - Duracao: 143220 Nota: C1 Vol.: 57
Chanel 7 Note Off - Duracao: 143220 Nota: C1 Vol.: 95
Chanel 7 Note On - Duracao: 143220 Nota: C1 Vol.: 84
Chanel 7 Note Off - Duracao: 143340 Nota: C1 Vol.: 84
Chanel 7 Note On - Duracao: 143340 Nota: C1 Vol.: 61
Chanel 2 Note Off - Duracao: 143460 Nota: C1 Vol.: 40
Chanel 2 Note On - Duracao: 143460 Nota: C1 Vol.: 67
Chanel 8 Note Off - Duracao: 143460 Nota: C1 Vol.: 45
Chanel 8 Note On - Duracao: 143460 Nota: C1 Vol.: 52
Chanel 9 Note Off - Duracao: 143640 Nota: C1 Vol.: 40
Chanel 9 Note On - Duracao: 143640 Nota: C1 Vol.: 59
Chanel 10 Note Off - Duracao: 143640 Nota: C1 Vol.: 57
Chanel 10 Note On - Duracao: 143640 Nota: C1 Vol.: 59
Chanel 1 Note Off - Duracao: 143700 Nota: C1 Vol.: 57
Chanel 1 Note On - Duracao: 143700 Nota: C1 Vol.: 54
Chanel 2 Note Off - Duracao: 143700 Nota: C1 Vol.: 67
Chanel 2 Note On - Duracao: 143700 Nota: C1 Vol.: 80
Chanel 2 Note Off - Duracao: 143820 Nota: C1 Vol.: 80
Chanel 2 Note On - Duracao: 143820 Nota: C1 Vol.: 65
Chanel 5 Note Off - Duracao: 143820 Nota: C1 Vol.: 46
Chanel 5 Note On - Duracao: 143820 Nota: C1 Vol.: 60
Chanel 7 Note Off - Duracao: 143820 Nota: C1 Vol.: 61
Chanel 7 Note On - Duracao: 143820 Nota: C1 Vol.: 60
Chanel 9 Note Off - Duracao: 143880 Nota: C1 Vol.: 59
Chanel 9 Note On - Duracao: 143880 Nota: C1 Vol.: 40
Chanel 10 Note Off - Duracao: 143880 Nota: C1 Vol.: 59
Chanel 10 Note On - Duracao: 143880 Nota: C1 Vol.: 62
Chanel 4 Note Off - Duracao: 143940 Nota: C1 Vol.: 42
Chanel 4 Note On - Duracao: 143940 Nota: C1 Vol.: 41
Chanel 6 Note Off - Duracao: 143940 Nota: C1 Vol.: 45
Chanel 6 Note On - Duracao: 143940 Nota: C1 Vol.: 53
Chanel 10 Note Off - Duracao: 144120 Nota: C1 Vol.: 62
Chanel 10 Note On - Duracao: 144120 Nota: C1 Vol.: 57
Chanel 1 Note Off - Duracao: 144180 Nota: C1 Vol.: 54
Chanel 1 Note On - Duracao: 144180 Nota: C1 Vol.: 54
Chanel 2 Note Off - Duracao: 144300 Nota: C1 Vol.: 65
Chanel 2 Note On - Duracao: 144300 Nota: C1 Vol.: 64
Chanel 5 Note Off - Duracao: 144300 Nota: C1 Vol.: 60
Chanel 5 Note On - Duracao: 144300 Nota: C1 Vol.: 62
Chanel 7 Note Off - Duracao: 144300 Nota: C1 Vol.: 60
Chanel 7 Note On - Duracao: 144300 Nota: C1 Vol.: 55
Chanel 6 Note Off - Duracao: 144420 Nota: C1 Vol.: 53
Chanel 6 Note On - Duracao: 144420 Nota: C1 Vol.: 49
Chanel 8 Note Off - Duracao: 144420 Nota: C1 Vol.: 52
Chanel 8 Note On - Duracao: 144420 Nota: C1 Vol.: 57
Chanel 10 Note Off - Duracao: 144600 Nota: C1 Vol.: 57
Chanel 10 Note On - Duracao: 144600 Nota: C1 Vol.: 67
Chanel 1 Note Off - Duracao: 144660 Nota: C1 Vol.: 54
Chanel 1 Note On - Duracao: 144660 Nota: C1 Vol.: 67
Chanel 2 Note Off - Duracao: 144780 Nota: C1 Vol.: 64
Chanel 2 Note On - Duracao: 144780 Nota: C1 Vol.: 67
Chanel 5 Note Off - Duracao: 144780 Nota: C1 Vol.: 62
Chanel 5 Note On - Duracao: 144780 Nota: C1 Vol.: 58
Chanel 7 Note Off - Duracao: 144780 Nota: C1 Vol.: 55
Chanel 7 Note On - Duracao: 144780 Nota: C1 Vol.: 55
Chanel 1 Note Off - Duracao: 144900 Nota: C1 Vol.: 67
Chanel 1 Note On - Duracao: 144900 Nota: C1 Vol.: 69
Chanel 8 Note Off - Duracao: 144900 Nota: C1 Vol.: 57
Chanel 8 Note On - Duracao: 144900 Nota: C1 Vol.: 57
Chanel 3 Note Off - Duracao: 144960 Nota: C1 Vol.: 40
Chanel 3 Note On - Duracao: 144960 Nota: C1 Vol.: 40
Chanel 7 Note Off - Duracao: 145020 Nota: C1 Vol.: 55
Chanel 7 Note On - Duracao: 145020 Nota: C1 Vol.: 63
Chanel 10 Note Off - Duracao: 145080 Nota: C1 Vol.: 67
Chanel 10 Note On - Duracao: 145080 Nota: C1 Vol.: 88
Chanel 1 Note Off - Duracao: 145140 Nota: C1 Vol.: 69
Chanel 1 Note On - Duracao: 145140 Nota: C1 Vol.: 80
Chanel 10 Note Off - Duracao: 145200 Nota: C1 Vol.: 88
Chanel 10 Note On - Duracao: 145200 Nota: C1 Vol.: 87
Chanel 1 Note Off - Duracao: 145260 Nota: C1 Vol.: 80
Chanel 1 Note On - Duracao: 145260 Nota: C1 Vol.: 76
Chanel 2 Note Off - Duracao: 145260 Nota: C1 Vol.: 67
Chanel 2 Note On - Duracao: 145260 Nota: C1 Vol.: 71
Chanel 5 Note Off - Duracao: 145260 Nota: C1 Vol.: 58
Chanel 5 Note On - Duracao: 145260 Nota: C1 Vol.: 40
Chanel 7 Note Off - Duracao: 145260 Nota: C1 Vol.: 63
Chanel 7 Note On - Duracao: 145260 Nota: C1 Vol.: 69
Chanel 10 Note Off - Duracao: 145320 Nota: C1 Vol.: 87
Chanel 10 Note On - Duracao: 145320 Nota: C1 Vol.: 91
Chanel 1 Note Off - Duracao: 145380 Nota: C1 Vol.: 76
Chanel 1 Note On - Duracao: 145380 Nota: C1 Vol.: 68
Chanel 6 Note Off - Duracao: 145380 Nota: C1 Vol.: 49
Chanel 6 Note On - Duracao: 145380 Nota: C1 Vol.: 58
Chanel 8 Note Off - Duracao: 145380 Nota: C1 Vol.: 57
Chanel 8 Note On - Duracao: 145380 Nota: C1 Vol.: 55
Chanel 10 Note Off - Duracao: 145440 Nota: C1 Vol.: 91
Chanel 10 Note On - Duracao: 145440 Nota: C1 Vol.: 93
Chanel 7 Note Off - Duracao: 145500 Nota: C1 Vol.: 69
Chanel 7 Note On - Duracao: 145500 Nota: C1 Vol.: 69
Chanel 10 Note Off - Duracao: 145560 Nota: C1 Vol.: 93
Chanel 10 Note On - Duracao: 145560 Nota: C1 Vol.: 94
Chanel 1 Note Off - Duracao: 145620 Nota: C1 Vol.: 68
Chanel 1 Note On - Duracao: 145620 Nota: C1 Vol.: 63
Chanel 10 Note Off - Duracao: 145680 Nota: C1 Vol.: 94
Chanel 10 Note On - Duracao: 145680 Nota: C1 Vol.: 95
Chanel 2 Note Off - Duracao: 145740 Nota: C1 Vol.: 71
Chanel 2 Note On - Duracao: 145740 Nota: C1 Vol.: 69
Chanel 7 Note Off - Duracao: 145740 Nota: C1 Vol.: 69
Chanel 7 Note On - Duracao: 145740 Nota: C1 Vol.: 53
Chanel 10 Note Off - Duracao: 145740 Nota: C1 Vol.: 95
Chanel 10 Note On - Duracao: 145740 Nota: C1 Vol.: 91
Chanel 9 Note Off - Duracao: 145800 Nota: C1 Vol.: 40
Chanel 9 Note On - Duracao: 145800 Nota: C1 Vol.: 40
Chanel 1 Note Off - Duracao: 145860 Nota: C1 Vol.: 63
Chanel 1 Note On - Duracao: 145860 Nota: C1 Vol.: 69
Chanel 6 Note Off - Duracao: 145860 Nota: C1 Vol.: 58
Chanel 6 Note On - Duracao: 145860 Nota: C1 Vol.: 59
Chanel 8 Note Off - Duracao: 145860 Nota: C1 Vol.: 55
Chanel 8 Note On - Duracao: 145860 Nota: C1 Vol.: 50
Chanel 10 Note Off - Duracao: 145860 Nota: C1 Vol.: 91
Chanel 10 Note On - Duracao: 145860 Nota: C1 Vol.: 90
Chanel 1 Note Off - Duracao: 145980 Nota: C1 Vol.: 69
Chanel 1 Note On - Duracao: 145980 Nota: C1 Vol.: 62
Chanel 10 Note Off - Duracao: 145980 Nota: C1 Vol.: 90
Chanel 10 Note On - Duracao: 145980 Nota: C1 Vol.: 88
Chanel 10 Note Off - Duracao: 146100 Nota: C1 Vol.: 88
Chanel 10 Note On - Duracao: 146100 Nota: C1 Vol.: 88
Chanel 1 Note Off - Duracao: 146220 Nota: C1 Vol.: 62
Chanel 1 Note On - Duracao: 146220 Nota: C1 Vol.: 68
Chanel 2 Note Off - Duracao: 146220 Nota: C1 Vol.: 69
Chanel 2 Note On - Duracao: 146220 Nota: C1 Vol.: 60
Chanel 7 Note Off - Duracao: 146220 Nota: C1 Vol.: 53
Chanel 7 Note On - Duracao: 146220 Nota: C1 Vol.: 69
Chanel 10 Note Off - Duracao: 146220 Nota: C1 Vol.: 88
Chanel 10 Note On - Duracao: 146220 Nota: C1 Vol.: 82
Chanel 6 Note Off - Duracao: 146340 Nota: C1 Vol.: 59
Chanel 6 Note On - Duracao: 146340 Nota: C1 Vol.: 65
Chanel 7 Note Off - Duracao: 146340 Nota: C1 Vol.: 69
Chanel 7 Note On - Duracao: 146340 Nota: C1 Vol.: 66
Chanel 1 Note Off - Duracao: 146460 Nota: C1 Vol.: 68
Chanel 1 Note On - Duracao: 146460 Nota: C1 Vol.: 78
Chanel 7 Note Off - Duracao: 146460 Nota: C1 Vol.: 66
Chanel 7 Note On - Duracao: 146460 Nota: C1 Vol.: 65
Chanel 10 Note Off - Duracao: 146460 Nota: C1 Vol.: 82
Chanel 10 Note On - Duracao: 146460 Nota: C1 Vol.: 68
Chanel 1 Note Off - Duracao: 146580 Nota: C1 Vol.: 78
Chanel 1 Note On - Duracao: 146580 Nota: C1 Vol.: 86
Chanel 7 Note Off - Duracao: 146580 Nota: C1 Vol.: 65
Chanel 7 Note On - Duracao: 146580 Nota: C1 Vol.: 63
Chanel 1 Note Off - Duracao: 146640 Nota: C1 Vol.: 86
Chanel 1 Note On - Duracao: 146640 Nota: C1 Vol.: 92
Chanel 1 Note Off - Duracao: 146700 Nota: C1 Vol.: 92
Chanel 1 Note On - Duracao: 146700 Nota: C1 Vol.: 91
Chanel 1 Note Off - Duracao: 146820 Nota: C1 Vol.: 91
Chanel 1 Note On - Duracao: 146820 Nota: C1 Vol.: 92
Chanel 6 Note Off - Duracao: 146820 Nota: C1 Vol.: 65
Chanel 6 Note On - Duracao: 146820 Nota: C1 Vol.: 79
Chanel 7 Note Off - Duracao: 146820 Nota: C1 Vol.: 63
Chanel 7 Note On - Duracao: 146820 Nota: C1 Vol.: 45
Chanel 8 Note Off - Duracao: 146820 Nota: C1 Vol.: 50
Chanel 8 Note On - Duracao: 146820 Nota: C1 Vol.: 50
Chanel 3 Note Off - Duracao: 146880 Nota: C1 Vol.: 40
Chanel 3 Note On - Duracao: 146880 Nota: C1 Vol.: 58
Chanel 1 Note Off - Duracao: 146940 Nota: C1 Vol.: 92
Chanel 1 Note On - Duracao: 146940 Nota: C1 Vol.: 89
Chanel 10 Note Off - Duracao: 146940 Nota: C1 Vol.: 68
Chanel 10 Note On - Duracao: 146940 Nota: C1 Vol.: 53
Chanel 1 Note Off - Duracao: 147060 Nota: C1 Vol.: 89
Chanel 1 Note On - Duracao: 147060 Nota: C1 Vol.: 95
Chanel 6 Note Off - Duracao: 147060 Nota: C1 Vol.: 79
Chanel 6 Note On - Duracao: 147060 Nota: C1 Vol.: 91
Chanel 1 Note Off - Duracao: 147120 Nota: C1 Vol.: 95
Chanel 1 Note On - Duracao: 147120 Nota: C1 Vol.: 95
Chanel 1 Note Off - Duracao: 147180 Nota: C1 Vol.: 95
Chanel 1 Note On - Duracao: 147180 Nota: C1 Vol.: 89
Chanel 2 Note Off - Duracao: 147180 Nota: C1 Vol.: 60
Chanel 2 Note On - Duracao: 147180 Nota: C1 Vol.: 67
Chanel 5 Note Off - Duracao: 147180 Nota: C1 Vol.: 40
Chanel 5 Note On - Duracao: 147180 Nota: C1 Vol.: 57
Chanel 6 Note Off - Duracao: 147180 Nota: C1 Vol.: 91
Chanel 6 Note On - Duracao: 147180 Nota: C1 Vol.: 54
Chanel 1 Note Off - Duracao: 147300 Nota: C1 Vol.: 89
Chanel 1 Note On - Duracao: 147300 Nota: C1 Vol.: 41
Chanel 3 Note Off - Duracao: 147360 Nota: C1 Vol.: 58
Chanel 3 Note On - Duracao: 147360 Nota: C1 Vol.: 62
Chanel 3 Note Off - Duracao: 147600 Nota: C1 Vol.: 62
Chanel 3 Note On - Duracao: 147600 Nota: C1 Vol.: 63
Chanel 2 Note Off - Duracao: 147660 Nota: C1 Vol.: 67
Chanel 2 Note On - Duracao: 147660 Nota: C1 Vol.: 64
Chanel 5 Note Off - Duracao: 147660 Nota: C1 Vol.: 57
Chanel 5 Note On - Duracao: 147660 Nota: C1 Vol.: 64
Chanel 9 Note Off - Duracao: 147720 Nota: C1 Vol.: 40
Chanel 9 Note On - Duracao: 147720 Nota: C1 Vol.: 42
Chanel 4 Note Off - Duracao: 147780 Nota: C1 Vol.: 41
Chanel 4 Note On - Duracao: 147780 Nota: C1 Vol.: 42
Chanel 7 Note Off - Duracao: 147780 Nota: C1 Vol.: 45
Chanel 7 Note On - Duracao: 147780 Nota: C1 Vol.: 43
Chanel 3 Note Off - Duracao: 147840 Nota: C1 Vol.: 63
Chanel 3 Note On - Duracao: 147840 Nota: C1 Vol.: 67
Chanel 5 Note Off - Duracao: 147900 Nota: C1 Vol.: 64
Chanel 5 Note On - Duracao: 147900 Nota: C1 Vol.: 68
Chanel 10 Note Off - Duracao: 147900 Nota: C1 Vol.: 53
Chanel 10 Note On - Duracao: 147900 Nota: C1 Vol.: 56
Chanel 3 Note Off - Duracao: 148080 Nota: C1 Vol.: 67
Chanel 3 Note On - Duracao: 148080 Nota: C1 Vol.: 50
Chanel 2 Note Off - Duracao: 148140 Nota: C1 Vol.: 64
Chanel 2 Note On - Duracao: 148140 Nota: C1 Vol.: 63
Chanel 5 Note Off - Duracao: 148140 Nota: C1 Vol.: 68
Chanel 5 Note On - Duracao: 148140 Nota: C1 Vol.: 71
Chanel 5 Note Off - Duracao: 148380 Nota: C1 Vol.: 71
Chanel 5 Note On - Duracao: 148380 Nota: C1 Vol.: 69
Chanel 2 Note Off - Duracao: 148620 Nota: C1 Vol.: 63
Chanel 2 Note On - Duracao: 148620 Nota: C1 Vol.: 69
Chanel 5 Note Off - Duracao: 148620 Nota: C1 Vol.: 69
Chanel 5 Note On - Duracao: 148620 Nota: C1 Vol.: 63
Chanel 7 Note Off - Duracao: 148740 Nota: C1 Vol.: 43
Chanel 7 Note On - Duracao: 148740 Nota: C1 Vol.: 47
Chanel 8 Note Off - Duracao: 148740 Nota: C1 Vol.: 50
Chanel 8 Note On - Duracao: 148740 Nota: C1 Vol.: 62
Chanel 2 Note Off - Duracao: 148860 Nota: C1 Vol.: 69
Chanel 2 Note On - Duracao: 148860 Nota: C1 Vol.: 74
Chanel 10 Note Off - Duracao: 148860 Nota: C1 Vol.: 56
Chanel 10 Note On - Duracao: 148860 Nota: C1 Vol.: 53
Chanel 2 Note Off - Duracao: 148980 Nota: C1 Vol.: 74
Chanel 2 Note On - Duracao: 148980 Nota: C1 Vol.: 62
Chanel 3 Note Off - Duracao: 149040 Nota: C1 Vol.: 50
Chanel 3 Note On - Duracao: 149040 Nota: C1 Vol.: 47
Chanel 5 Note Off - Duracao: 149100 Nota: C1 Vol.: 63
Chanel 5 Note On - Duracao: 149100 Nota: C1 Vol.: 83
Chanel 6 Note Off - Duracao: 149100 Nota: C1 Vol.: 54
Chanel 6 Note On - Duracao: 149100 Nota: C1 Vol.: 50
Chanel 1 Note Off - Duracao: 149220 Nota: C1 Vol.: 41
Chanel 1 Note On - Duracao: 149220 Nota: C1 Vol.: 56
Chanel 5 Note Off - Duracao: 149220 Nota: C1 Vol.: 83
Chanel 5 Note On - Duracao: 149220 Nota: C1 Vol.: 70
Chanel 1 Note Off - Duracao: 149460 Nota: C1 Vol.: 56
Chanel 1 Note On - Duracao: 149460 Nota: C1 Vol.: 54
Chanel 2 Note Off - Duracao: 149460 Nota: C1 Vol.: 62
Chanel 2 Note On - Duracao: 149460 Nota: C1 Vol.: 52
Chanel 5 Note Off - Duracao: 149460 Nota: C1 Vol.: 70
Chanel 5 Note On - Duracao: 149460 Nota: C1 Vol.: 50
Chanel 9 Note Off - Duracao: 149640 Nota: C1 Vol.: 42
Chanel 9 Note On - Duracao: 149640 Nota: C1 Vol.: 42
Chanel 1 Note Off - Duracao: 149700 Nota: C1 Vol.: 54
Chanel 1 Note On - Duracao: 149700 Nota: C1 Vol.: 56
Chanel 7 Note Off - Duracao: 149700 Nota: C1 Vol.: 47
Chanel 7 Note On - Duracao: 149700 Nota: C1 Vol.: 50
Chanel 8 Note Off - Duracao: 149700 Nota: C1 Vol.: 62
Chanel 8 Note On - Duracao: 149700 Nota: C1 Vol.: 85
Chanel 8 Note Off - Duracao: 149820 Nota: C1 Vol.: 85
Chanel 8 Note On - Duracao: 149820 Nota: C1 Vol.: 91
Chanel 10 Note Off - Duracao: 149820 Nota: C1 Vol.: 53
Chanel 10 Note On - Duracao: 149820 Nota: C1 Vol.: 48
Chanel 1 Note Off - Duracao: 149940 Nota: C1 Vol.: 56
Chanel 1 Note On - Duracao: 149940 Nota: C1 Vol.: 46
Chanel 8 Note Off - Duracao: 149940 Nota: C1 Vol.: 91
Chanel 8 Note On - Duracao: 149940 Nota: C1 Vol.: 90
Chanel 8 Note Off - Duracao: 150060 Nota: C1 Vol.: 90
Chanel 8 Note On - Duracao: 150060 Nota: C1 Vol.: 93
Chanel 8 Note Off - Duracao: 150180 Nota: C1 Vol.: 93
Chanel 8 Note On - Duracao: 150180 Nota: C1 Vol.: 97
Chanel 8 Note Off - Duracao: 150300 Nota: C1 Vol.: 97
Chanel 8 Note On - Duracao: 150300 Nota: C1 Vol.: 95
Chanel 1 Note Off - Duracao: 150420 Nota: C1 Vol.: 46
Chanel 1 Note On - Duracao: 150420 Nota: C1 Vol.: 40
Chanel 2 Note Off - Duracao: 150420 Nota: C1 Vol.: 52
Chanel 2 Note On - Duracao: 150420 Nota: C1 Vol.: 95
Chanel 5 Note Off - Duracao: 150420 Nota: C1 Vol.: 50
Chanel 5 Note On - Duracao: 150420 Nota: C1 Vol.: 47
Chanel 8 Note Off - Duracao: 150420 Nota: C1 Vol.: 95
Chanel 8 Note On - Duracao: 150420 Nota: C1 Vol.: 79
Chanel 2 Note Off - Duracao: 150540 Nota: C1 Vol.: 95
Chanel 2 Note On - Duracao: 150540 Nota: C1 Vol.: 84
Chanel 7 Note Off - Duracao: 150660 Nota: C1 Vol.: 50
Chanel 7 Note On - Duracao: 150660 Nota: C1 Vol.: 53
Chanel 8 Note Off - Duracao: 150660 Nota: C1 Vol.: 79
Chanel 8 Note On - Duracao: 150660 Nota: C1 Vol.: 79
Chanel 2 Note Off - Duracao: 150780 Nota: C1 Vol.: 84
Chanel 2 Note On - Duracao: 150780 Nota: C1 Vol.: 75
Chanel 10 Note Off - Duracao: 150780 Nota: C1 Vol.: 48
Chanel 10 Note On - Duracao: 150780 Nota: C1 Vol.: 49
Chanel 8 Note Off - Duracao: 150900 Nota: C1 Vol.: 79
Chanel 8 Note On - Duracao: 150900 Nota: C1 Vol.: 92
Chanel 3 Note Off - Duracao: 150960 Nota: C1 Vol.: 47
Chanel 3 Note On - Duracao: 150960 Nota: C1 Vol.: 40
Chanel 6 Note Off - Duracao: 151020 Nota: C1 Vol.: 50
Chanel 6 Note On - Duracao: 151020 Nota: C1 Vol.: 56
Chanel 8 Note Off - Duracao: 151020 Nota: C1 Vol.: 92
Chanel 8 Note On - Duracao: 151020 Nota: C1 Vol.: 86
Chanel 8 Note Off - Duracao: 151140 Nota: C1 Vol.: 86
Chanel 8 Note On - Duracao: 151140 Nota: C1 Vol.: 79
Chanel 2 Note Off - Duracao: 151260 Nota: C1 Vol.: 75
Chanel 2 Note On - Duracao: 151260 Nota: C1 Vol.: 76
Chanel 1 Note Off - Duracao: 151380 Nota: C1 Vol.: 40
Chanel 1 Note On - Duracao: 151380 Nota: C1 Vol.: 65
Chanel 8 Note Off - Duracao: 151380 Nota: C1 Vol.: 79
Chanel 8 Note On - Duracao: 151380 Nota: C1 Vol.: 79
Chanel 1 Note Off - Duracao: 151500 Nota: C1 Vol.: 65
Chanel 1 Note On - Duracao: 151500 Nota: C1 Vol.: 56
Chanel 9 Note Off - Duracao: 151560 Nota: C1 Vol.: 42
Chanel 9 Note On - Duracao: 151560 Nota: C1 Vol.: 40
Chanel 4 Note Off - Duracao: 151620 Nota: C1 Vol.: 42
Chanel 4 Note On - Duracao: 151620 Nota: C1 Vol.: 42
Chanel 7 Note Off - Duracao: 151620 Nota: C1 Vol.: 53
Chanel 7 Note On - Duracao: 151620 Nota: C1 Vol.: 53
Chanel 8 Note Off - Duracao: 151620 Nota: C1 Vol.: 79
Chanel 8 Note On - Duracao: 151620 Nota: C1 Vol.: 84
Chanel 1 Note Off - Duracao: 151740 Nota: C1 Vol.: 56
Chanel 1 Note On - Duracao: 151740 Nota: C1 Vol.: 72
Chanel 2 Note Off - Duracao: 151740 Nota: C1 Vol.: 76
Chanel 2 Note On - Duracao: 151740 Nota: C1 Vol.: 79
Chanel 8 Note Off - Duracao: 151740 Nota: C1 Vol.: 84
Chanel 8 Note On - Duracao: 151740 Nota: C1 Vol.: 96
Chanel 10 Note Off - Duracao: 151740 Nota: C1 Vol.: 49
Chanel 10 Note On - Duracao: 151740 Nota: C1 Vol.: 48
Chanel 8 Note Off - Duracao: 151800 Nota: C1 Vol.: 96
Chanel 8 Note On - Duracao: 151800 Nota: C1 Vol.: 94
Chanel 1 Note Off - Duracao: 151860 Nota: C1 Vol.: 72
Chanel 1 Note On - Duracao: 151860 Nota: C1 Vol.: 85
Chanel 8 Note Off - Duracao: 151860 Nota: C1 Vol.: 94
Chanel 8 Note On - Duracao: 151860 Nota: C1 Vol.: 91
Chanel 1 Note Off - Duracao: 151920 Nota: C1 Vol.: 85
Chanel 1 Note On - Duracao: 151920 Nota: C1 Vol.: 75
Chanel 8 Note Off - Duracao: 151920 Nota: C1 Vol.: 91
Chanel 8 Note On - Duracao: 151920 Nota: C1 Vol.: 57
Chanel 2 Note Off - Duracao: 151980 Nota: C1 Vol.: 79
Chanel 2 Note On - Duracao: 151980 Nota: C1 Vol.: 74
Chanel 1 Note Off - Duracao: 152040 Nota: C1 Vol.: 75
Chanel 1 Note On - Duracao: 152040 Nota: C1 Vol.: 85
Chanel 1 Note Off - Duracao: 152100 Nota: C1 Vol.: 85
Chanel 1 Note On - Duracao: 152100 Nota: C1 Vol.: 73
Chanel 7 Note Off - Duracao: 152100 Nota: C1 Vol.: 53
Chanel 7 Note On - Duracao: 152100 Nota: C1 Vol.: 54
Chanel 1 Note Off - Duracao: 152220 Nota: C1 Vol.: 73
Chanel 1 Note On - Duracao: 152220 Nota: C1 Vol.: 54
Chanel 5 Note Off - Duracao: 152340 Nota: C1 Vol.: 47
Chanel 5 Note On - Duracao: 152340 Nota: C1 Vol.: 48
Chanel 8 Note Off - Duracao: 152400 Nota: C1 Vol.: 57
Chanel 8 Note On - Duracao: 152400 Nota: C1 Vol.: 66
Chanel 1 Note Off - Duracao: 152460 Nota: C1 Vol.: 54
Chanel 1 Note On - Duracao: 152460 Nota: C1 Vol.: 62
Chanel 2 Note Off - Duracao: 152460 Nota: C1 Vol.: 74
Chanel 2 Note On - Duracao: 152460 Nota: C1 Vol.: 83
Chanel 1 Note Off - Duracao: 152580 Nota: C1 Vol.: 62
Chanel 1 Note On - Duracao: 152580 Nota: C1 Vol.: 60
Chanel 7 Note Off - Duracao: 152580 Nota: C1 Vol.: 54
Chanel 7 Note On - Duracao: 152580 Nota: C1 Vol.: 52
Chanel 8 Note Off - Duracao: 152640 Nota: C1 Vol.: 66
Chanel 8 Note On - Duracao: 152640 Nota: C1 Vol.: 65
Chanel 1 Note Off - Duracao: 152700 Nota: C1 Vol.: 60
Chanel 1 Note On - Duracao: 152700 Nota: C1 Vol.: 51
Chanel 2 Note Off - Duracao: 152700 Nota: C1 Vol.: 83
Chanel 2 Note On - Duracao: 152700 Nota: C1 Vol.: 84
Chanel 10 Note Off - Duracao: 152700 Nota: C1 Vol.: 48
Chanel 10 Note On - Duracao: 152700 Nota: C1 Vol.: 57
Chanel 1 Note Off - Duracao: 152820 Nota: C1 Vol.: 51
Chanel 1 Note On - Duracao: 152820 Nota: C1 Vol.: 51
Chanel 3 Note Off - Duracao: 152880 Nota: C1 Vol.: 40
Chanel 3 Note On - Duracao: 152880 Nota: C1 Vol.: 42
Chanel 8 Note Off - Duracao: 152880 Nota: C1 Vol.: 65
Chanel 8 Note On - Duracao: 152880 Nota: C1 Vol.: 65
Chanel 1 Note Off - Duracao: 152940 Nota: C1 Vol.: 51
Chanel 1 Note On - Duracao: 152940 Nota: C1 Vol.: 46
Chanel 2 Note Off - Duracao: 152940 Nota: C1 Vol.: 84
Chanel 2 Note On - Duracao: 152940 Nota: C1 Vol.: 82
Chanel 6 Note Off - Duracao: 152940 Nota: C1 Vol.: 56
Chanel 6 Note On - Duracao: 152940 Nota: C1 Vol.: 61
Chanel 1 Note Off - Duracao: 153060 Nota: C1 Vol.: 46
Chanel 1 Note On - Duracao: 153060 Nota: C1 Vol.: 41
Chanel 8 Note Off - Duracao: 153120 Nota: C1 Vol.: 65
Chanel 8 Note On - Duracao: 153120 Nota: C1 Vol.: 75
Chanel 1 Note Off - Duracao: 153180 Nota: C1 Vol.: 41
Chanel 1 Note On - Duracao: 153180 Nota: C1 Vol.: 44
Chanel 2 Note Off - Duracao: 153180 Nota: C1 Vol.: 82
Chanel 2 Note On - Duracao: 153180 Nota: C1 Vol.: 82
Chanel 10 Note Off - Duracao: 153180 Nota: C1 Vol.: 57
Chanel 10 Note On - Duracao: 153180 Nota: C1 Vol.: 67
Chanel 1 Note Off - Duracao: 153300 Nota: C1 Vol.: 44
Chanel 1 Note On - Duracao: 153300 Nota: C1 Vol.: 53
Chanel 8 Note Off - Duracao: 153360 Nota: C1 Vol.: 75
Chanel 8 Note On - Duracao: 153360 Nota: C1 Vol.: 73
Chanel 1 Note Off - Duracao: 153420 Nota: C1 Vol.: 53
Chanel 1 Note On - Duracao: 153420 Nota: C1 Vol.: 58
Chanel 2 Note Off - Duracao: 153420 Nota: C1 Vol.: 82
Chanel 2 Note On - Duracao: 153420 Nota: C1 Vol.: 82
Chanel 10 Note Off - Duracao: 153420 Nota: C1 Vol.: 67
Chanel 10 Note On - Duracao: 153420 Nota: C1 Vol.: 69
Chanel 9 Note Off - Duracao: 153480 Nota: C1 Vol.: 40
Chanel 9 Note On - Duracao: 153480 Nota: C1 Vol.: 40
Chanel 1 Note Off - Duracao: 153540 Nota: C1 Vol.: 58
Chanel 1 Note On - Duracao: 153540 Nota: C1 Vol.: 40
Chanel 4 Note Off - Duracao: 153540 Nota: C1 Vol.: 42
Chanel 4 Note On - Duracao: 153540 Nota: C1 Vol.: 41
Chanel 7 Note Off - Duracao: 153540 Nota: C1 Vol.: 52
Chanel 7 Note On - Duracao: 153540 Nota: C1 Vol.: 51
Chanel 10 Note Off - Duracao: 153540 Nota: C1 Vol.: 69
Chanel 10 Note On - Duracao: 153540 Nota: C1 Vol.: 62
Chanel 8 Note Off - Duracao: 153600 Nota: C1 Vol.: 73
Chanel 8 Note On - Duracao: 153600 Nota: C1 Vol.: 78
Chanel 2 Note Off - Duracao: 153660 Nota: C1 Vol.: 82
Chanel 2 Note On - Duracao: 153660 Nota: C1 Vol.: 86
Chanel 8 Note Off - Duracao: 153720 Nota: C1 Vol.: 78
Chanel 8 Note On - Duracao: 153720 Nota: C1 Vol.: 80
Chanel 10 Note Off - Duracao: 153780 Nota: C1 Vol.: 62
Chanel 10 Note On - Duracao: 153780 Nota: C1 Vol.: 50
Chanel 8 Note Off - Duracao: 153840 Nota: C1 Vol.: 80
Chanel 8 Note On - Duracao: 153840 Nota: C1 Vol.: 67
Chanel 2 Note Off - Duracao: 153900 Nota: C1 Vol.: 86
Chanel 2 Note On - Duracao: 153900 Nota: C1 Vol.: 85
Chanel 8 Note Off - Duracao: 154080 Nota: C1 Vol.: 67
Chanel 8 Note On - Duracao: 154080 Nota: C1 Vol.: 66
Chanel 2 Note Off - Duracao: 154140 Nota: C1 Vol.: 85
Chanel 2 Note On - Duracao: 154140 Nota: C1 Vol.: 84
Chanel 5 Note Off - Duracao: 154260 Nota: C1 Vol.: 48
Chanel 5 Note On - Duracao: 154260 Nota: C1 Vol.: 41
Chanel 8 Note Off - Duracao: 154320 Nota: C1 Vol.: 66
Chanel 8 Note On - Duracao: 154320 Nota: C1 Vol.: 73
Chanel 2 Note Off - Duracao: 154380 Nota: C1 Vol.: 84
Chanel 2 Note On - Duracao: 154380 Nota: C1 Vol.: 79
Chanel 8 Note Off - Duracao: 154440 Nota: C1 Vol.: 73
Chanel 8 Note On - Duracao: 154440 Nota: C1 Vol.: 65
Chanel 1 Note Off - Duracao: 154500 Nota: C1 Vol.: 40
Chanel 1 Note On - Duracao: 154500 Nota: C1 Vol.: 60
Chanel 7 Note Off - Duracao: 154500 Nota: C1 Vol.: 51
Chanel 7 Note On - Duracao: 154500 Nota: C1 Vol.: 60
Chanel 8 Note Off - Duracao: 154680 Nota: C1 Vol.: 65
Chanel 8 Note On - Duracao: 154680 Nota: C1 Vol.: 58
Chanel 10 Note Off - Duracao: 154740 Nota: C1 Vol.: 50
Chanel 10 Note On - Duracao: 154740 Nota: C1 Vol.: 50
Chanel 3 Note Off - Duracao: 154800 Nota: C1 Vol.: 42
Chanel 3 Note On - Duracao: 154800 Nota: C1 Vol.: 62
Chanel 2 Note Off - Duracao: 154860 Nota: C1 Vol.: 79
Chanel 2 Note On - Duracao: 154860 Nota: C1 Vol.: 71
Chanel 6 Note Off - Duracao: 154860 Nota: C1 Vol.: 61
Chanel 6 Note On - Duracao: 154860 Nota: C1 Vol.: 57
Chanel 8 Note Off - Duracao: 154920 Nota: C1 Vol.: 58
Chanel 8 Note On - Duracao: 154920 Nota: C1 Vol.: 69
Chanel 1 Note Off - Duracao: 154980 Nota: C1 Vol.: 60
Chanel 1 Note On - Duracao: 154980 Nota: C1 Vol.: 92
Chanel 7 Note Off - Duracao: 154980 Nota: C1 Vol.: 60
Chanel 7 Note On - Duracao: 154980 Nota: C1 Vol.: 59
Chanel 1 Note Off - Duracao: 155040 Nota: C1 Vol.: 92
Chanel 1 Note On - Duracao: 155040 Nota: C1 Vol.: 95
Chanel 8 Note Off - Duracao: 155040 Nota: C1 Vol.: 69
Chanel 8 Note On - Duracao: 155040 Nota: C1 Vol.: 57
Chanel 1 Note Off - Duracao: 155100 Nota: C1 Vol.: 95
Chanel 1 Note On - Duracao: 155100 Nota: C1 Vol.: 85
Chanel 1 Note Off - Duracao: 155220 Nota: C1 Vol.: 85
Chanel 1 Note On - Duracao: 155220 Nota: C1 Vol.: 83
Chanel 7 Note Off - Duracao: 155220 Nota: C1 Vol.: 59
Chanel 7 Note On - Duracao: 155220 Nota: C1 Vol.: 65
Chanel 2 Note Off - Duracao: 155340 Nota: C1 Vol.: 71
Chanel 2 Note On - Duracao: 155340 Nota: C1 Vol.: 71
Chanel 9 Note Off - Duracao: 155400 Nota: C1 Vol.: 40
Chanel 9 Note On - Duracao: 155400 Nota: C1 Vol.: 40
Chanel 1 Note Off - Duracao: 155460 Nota: C1 Vol.: 83
Chanel 1 Note On - Duracao: 155460 Nota: C1 Vol.: 77
Chanel 4 Note Off - Duracao: 155460 Nota: C1 Vol.: 41
Chanel 4 Note On - Duracao: 155460 Nota: C1 Vol.: 40
Chanel 7 Note Off - Duracao: 155460 Nota: C1 Vol.: 65
Chanel 7 Note On - Duracao: 155460 Nota: C1 Vol.: 53
Chanel 1 Note Off - Duracao: 155700 Nota: C1 Vol.: 77
Chanel 1 Note On - Duracao: 155700 Nota: C1 Vol.: 88
Chanel 10 Note Off - Duracao: 155700 Nota: C1 Vol.: 50
Chanel 10 Note On - Duracao: 155700 Nota: C1 Vol.: 52
Chanel 3 Note Off - Duracao: 155760 Nota: C1 Vol.: 62
Chanel 3 Note On - Duracao: 155760 Nota: C1 Vol.: 96
Chanel 1 Note Off - Duracao: 155820 Nota: C1 Vol.: 88
Chanel 1 Note On - Duracao: 155820 Nota: C1 Vol.: 82
Chanel 2 Note Off - Duracao: 155820 Nota: C1 Vol.: 71
Chanel 2 Note On - Duracao: 155820 Nota: C1 Vol.: 74
Chanel 3 Note Off - Duracao: 155820 Nota: C1 Vol.: 96
Chanel 3 Note On - Duracao: 155820 Nota: C1 Vol.: 97
Chanel 3 Note Off - Duracao: 155880 Nota: C1 Vol.: 97
Chanel 3 Note On - Duracao: 155880 Nota: C1 Vol.: 63
Chanel 7 Note Off - Duracao: 155940 Nota: C1 Vol.: 53
Chanel 7 Note On - Duracao: 155940 Nota: C1 Vol.: 42
Chanel 8 Note Off - Duracao: 156000 Nota: C1 Vol.: 57
Chanel 8 Note On - Duracao: 156000 Nota: C1 Vol.: 80
Chanel 1 Note Off - Duracao: 156060 Nota: C1 Vol.: 82
Chanel 1 Note On - Duracao: 156060 Nota: C1 Vol.: 75
Chanel 8 Note Off - Duracao: 156240 Nota: C1 Vol.: 80
Chanel 8 Note On - Duracao: 156240 Nota: C1 Vol.: 55
Chanel 2 Note Off - Duracao: 156300 Nota: C1 Vol.: 74
Chanel 2 Note On - Duracao: 156300 Nota: C1 Vol.: 82
Chanel 1 Note Off - Duracao: 156540 Nota: C1 Vol.: 75
Chanel 1 Note On - Duracao: 156540 Nota: C1 Vol.: 78
Chanel 2 Note Off - Duracao: 156540 Nota: C1 Vol.: 82
Chanel 2 Note On - Duracao: 156540 Nota: C1 Vol.: 75
Chanel 10 Note Off - Duracao: 156660 Nota: C1 Vol.: 52
Chanel 10 Note On - Duracao: 156660 Nota: C1 Vol.: 60
Chanel 8 Note Off - Duracao: 156720 Nota: C1 Vol.: 55
Chanel 8 Note On - Duracao: 156720 Nota: C1 Vol.: 63
Chanel 1 Note Off - Duracao: 156780 Nota: C1 Vol.: 78
Chanel 1 Note On - Duracao: 156780 Nota: C1 Vol.: 79
Chanel 2 Note Off - Duracao: 156780 Nota: C1 Vol.: 75
Chanel 2 Note On - Duracao: 156780 Nota: C1 Vol.: 82
Chanel 3 Note Off - Duracao: 156840 Nota: C1 Vol.: 63
Chanel 3 Note On - Duracao: 156840 Nota: C1 Vol.: 70
Chanel 7 Note Off - Duracao: 156900 Nota: C1 Vol.: 42
Chanel 7 Note On - Duracao: 156900 Nota: C1 Vol.: 51
Chanel 8 Note Off - Duracao: 156960 Nota: C1 Vol.: 63
Chanel 8 Note On - Duracao: 156960 Nota: C1 Vol.: 63
Chanel 1 Note Off - Duracao: 157020 Nota: C1 Vol.: 79
Chanel 1 Note On - Duracao: 157020 Nota: C1 Vol.: 75
Chanel 2 Note Off - Duracao: 157020 Nota: C1 Vol.: 82
Chanel 2 Note On - Duracao: 157020 Nota: C1 Vol.: 89
Chanel 2 Note Off - Duracao: 157140 Nota: C1 Vol.: 89
Chanel 2 Note On - Duracao: 157140 Nota: C1 Vol.: 96
Chanel 10 Note Off - Duracao: 157140 Nota: C1 Vol.: 60
Chanel 10 Note On - Duracao: 157140 Nota: C1 Vol.: 64
Chanel 2 Note Off - Duracao: 157200 Nota: C1 Vol.: 96
Chanel 2 Note On - Duracao: 157200 Nota: C1 Vol.: 95
Chanel 8 Note Off - Duracao: 157200 Nota: C1 Vol.: 63
Chanel 8 Note On - Duracao: 157200 Nota: C1 Vol.: 70
Chanel 1 Note Off - Duracao: 157260 Nota: C1 Vol.: 75
Chanel 1 Note On - Duracao: 157260 Nota: C1 Vol.: 71
Chanel 2 Note Off - Duracao: 157260 Nota: C1 Vol.: 95
Chanel 2 Note On - Duracao: 157260 Nota: C1 Vol.: 92
Chanel 3 Note Off - Duracao: 157320 Nota: C1 Vol.: 70
Chanel 3 Note On - Duracao: 157320 Nota: C1 Vol.: 97
Chanel 8 Note Off - Duracao: 157320 Nota: C1 Vol.: 70
Chanel 8 Note On - Duracao: 157320 Nota: C1 Vol.: 65
Chanel 9 Note Off - Duracao: 157320 Nota: C1 Vol.: 40
Chanel 9 Note On - Duracao: 157320 Nota: C1 Vol.: 40
Chanel 2 Note Off - Duracao: 157380 Nota: C1 Vol.: 92
Chanel 2 Note On - Duracao: 157380 Nota: C1 Vol.: 97
Chanel 3 Note Off - Duracao: 157380 Nota: C1 Vol.: 97
Chanel 3 Note On - Duracao: 157380 Nota: C1 Vol.: 87
Chanel 4 Note Off - Duracao: 157380 Nota: C1 Vol.: 40
Chanel 4 Note On - Duracao: 157380 Nota: C1 Vol.: 40
Chanel 2 Note Off - Duracao: 157440 Nota: C1 Vol.: 97
Chanel 2 Note On - Duracao: 157440 Nota: C1 Vol.: 98
Chanel 2 Note Off - Duracao: 157500 Nota: C1 Vol.: 98
Chanel 2 Note On - Duracao: 157500 Nota: C1 Vol.: 88
Chanel 3 Note Off - Duracao: 157500 Nota: C1 Vol.: 87
Chanel 3 Note On - Duracao: 157500 Nota: C1 Vol.: 69
Chanel 8 Note Off - Duracao: 157560 Nota: C1 Vol.: 65
Chanel 8 Note On - Duracao: 157560 Nota: C1 Vol.: 78
Chanel 2 Note Off - Duracao: 157620 Nota: C1 Vol.: 88
Chanel 2 Note On - Duracao: 157620 Nota: C1 Vol.: 80
Chanel 10 Note Off - Duracao: 157620 Nota: C1 Vol.: 64
Chanel 10 Note On - Duracao: 157620 Nota: C1 Vol.: 55
Chanel 8 Note Off - Duracao: 157680 Nota: C1 Vol.: 78
Chanel 8 Note On - Duracao: 157680 Nota: C1 Vol.: 84
Chanel 1 Note Off - Duracao: 157740 Nota: C1 Vol.: 71
Chanel 1 Note On - Duracao: 157740 Nota: C1 Vol.: 64
Chanel 2 Note Off - Duracao: 157740 Nota: C1 Vol.: 80
Chanel 2 Note On - Duracao: 157740 Nota: C1 Vol.: 80
Chanel 8 Note Off - Duracao: 157800 Nota: C1 Vol.: 84
Chanel 8 Note On - Duracao: 157800 Nota: C1 Vol.: 82
Chanel 2 Note Off - Duracao: 157860 Nota: C1 Vol.: 80
Chanel 2 Note On - Duracao: 157860 Nota: C1 Vol.: 73
Chanel 7 Note Off - Duracao: 157860 Nota: C1 Vol.: 51
Chanel 7 Note On - Duracao: 157860 Nota: C1 Vol.: 48
Chanel 8 Note Off - Duracao: 157920 Nota: C1 Vol.: 82
Chanel 8 Note On - Duracao: 157920 Nota: C1 Vol.: 76
Chanel 2 Note Off - Duracao: 157980 Nota: C1 Vol.: 73
Chanel 2 Note On - Duracao: 157980 Nota: C1 Vol.: 65
Chanel 3 Note Off - Duracao: 157980 Nota: C1 Vol.: 69
Chanel 3 Note On - Duracao: 157980 Nota: C1 Vol.: 53
Chanel 8 Note Off - Duracao: 158040 Nota: C1 Vol.: 76
Chanel 8 Note On - Duracao: 158040 Nota: C1 Vol.: 49
Chanel 5 Note Off - Duracao: 158100 Nota: C1 Vol.: 41
Chanel 5 Note On - Duracao: 158100 Nota: C1 Vol.: 66
Chanel 1 Note Off - Duracao: 158220 Nota: C1 Vol.: 64
Chanel 1 Note On - Duracao: 158220 Nota: C1 Vol.: 71
Chanel 2 Note Off - Duracao: 158220 Nota: C1 Vol.: 65
Chanel 2 Note On - Duracao: 158220 Nota: C1 Vol.: 71
Chanel 2 Note Off - Duracao: 158340 Nota: C1 Vol.: 71
Chanel 2 Note On - Duracao: 158340 Nota: C1 Vol.: 65
Chanel 1 Note Off - Duracao: 158460 Nota: C1 Vol.: 71
Chanel 1 Note On - Duracao: 158460 Nota: C1 Vol.: 62
Chanel 2 Note Off - Duracao: 158580 Nota: C1 Vol.: 65
Chanel 2 Note On - Duracao: 158580 Nota: C1 Vol.: 66
Chanel 5 Note Off - Duracao: 158580 Nota: C1 Vol.: 66
Chanel 5 Note On - Duracao: 158580 Nota: C1 Vol.: 63
Chanel 10 Note Off - Duracao: 158580 Nota: C1 Vol.: 55
Chanel 10 Note On - Duracao: 158580 Nota: C1 Vol.: 95
Chanel 10 Note Off - Duracao: 158640 Nota: C1 Vol.: 95
Chanel 10 Note On - Duracao: 158640 Nota: C1 Vol.: 82
Chanel 1 Note Off - Duracao: 158700 Nota: C1 Vol.: 62
Chanel 1 Note On - Duracao: 158700 Nota: C1 Vol.: 66
Chanel 6 Note Off - Duracao: 158700 Nota: C1 Vol.: 57
Chanel 6 Note On - Duracao: 158700 Nota: C1 Vol.: 61
Chanel 10 Note Off - Duracao: 158760 Nota: C1 Vol.: 82
Chanel 10 Note On - Duracao: 158760 Nota: C1 Vol.: 67
Chanel 1 Note Off - Duracao: 158820 Nota: C1 Vol.: 66
Chanel 1 Note On - Duracao: 158820 Nota: C1 Vol.: 64
Chanel 2 Note Off - Duracao: 158820 Nota: C1 Vol.: 66
Chanel 2 Note On - Duracao: 158820 Nota: C1 Vol.: 55
Chanel 7 Note Off - Duracao: 158820 Nota: C1 Vol.: 48
Chanel 7 Note On - Duracao: 158820 Nota: C1 Vol.: 50
Chanel 3 Note Off - Duracao: 158940 Nota: C1 Vol.: 53
Chanel 3 Note On - Duracao: 158940 Nota: C1 Vol.: 53
Chanel 8 Note Off - Duracao: 159000 Nota: C1 Vol.: 49
Chanel 8 Note On - Duracao: 159000 Nota: C1 Vol.: 59
Chanel 1 Note Off - Duracao: 159060 Nota: C1 Vol.: 64
Chanel 1 Note On - Duracao: 159060 Nota: C1 Vol.: 76
Chanel 5 Note Off - Duracao: 159060 Nota: C1 Vol.: 63
Chanel 5 Note On - Duracao: 159060 Nota: C1 Vol.: 61
Chanel 8 Note Off - Duracao: 159240 Nota: C1 Vol.: 59
Chanel 8 Note On - Duracao: 159240 Nota: C1 Vol.: 65
Chanel 9 Note Off - Duracao: 159240 Nota: C1 Vol.: 40
Chanel 9 Note On - Duracao: 159240 Nota: C1 Vol.: 47
Chanel 10 Note Off - Duracao: 159240 Nota: C1 Vol.: 67
Chanel 10 Note On - Duracao: 159240 Nota: C1 Vol.: 73
Chanel 1 Note Off - Duracao: 159300 Nota: C1 Vol.: 76
Chanel 1 Note On - Duracao: 159300 Nota: C1 Vol.: 76
Chanel 2 Note Off - Duracao: 159300 Nota: C1 Vol.: 55
Chanel 2 Note On - Duracao: 159300 Nota: C1 Vol.: 63
Chanel 4 Note Off - Duracao: 159300 Nota: C1 Vol.: 40
Chanel 4 Note On - Duracao: 159300 Nota: C1 Vol.: 45
Chanel 5 Note Off - Duracao: 159300 Nota: C1 Vol.: 61
Chanel 5 Note On - Duracao: 159300 Nota: C1 Vol.: 57
Chanel 8 Note Off - Duracao: 159360 Nota: C1 Vol.: 65
Chanel 8 Note On - Duracao: 159360 Nota: C1 Vol.: 64
Chanel 10 Note Off - Duracao: 159480 Nota: C1 Vol.: 73
Chanel 10 Note On - Duracao: 159480 Nota: C1 Vol.: 48
Chanel 1 Note Off - Duracao: 159540 Nota: C1 Vol.: 76
Chanel 1 Note On - Duracao: 159540 Nota: C1 Vol.: 71
Chanel 2 Note Off - Duracao: 159540 Nota: C1 Vol.: 63
Chanel 2 Note On - Duracao: 159540 Nota: C1 Vol.: 61
Chanel 8 Note Off - Duracao: 159600 Nota: C1 Vol.: 64
Chanel 8 Note On - Duracao: 159600 Nota: C1 Vol.: 77
Chanel 8 Note Off - Duracao: 159720 Nota: C1 Vol.: 77
Chanel 8 Note On - Duracao: 159720 Nota: C1 Vol.: 77
Chanel 9 Note Off - Duracao: 159720 Nota: C1 Vol.: 47
Chanel 9 Note On - Duracao: 159720 Nota: C1 Vol.: 56
Chanel 1 Note Off - Duracao: 159780 Nota: C1 Vol.: 71
Chanel 1 Note On - Duracao: 159780 Nota: C1 Vol.: 95
Chanel 2 Note Off - Duracao: 159780 Nota: C1 Vol.: 61
Chanel 2 Note On - Duracao: 159780 Nota: C1 Vol.: 58
Chanel 5 Note Off - Duracao: 159780 Nota: C1 Vol.: 57
Chanel 5 Note On - Duracao: 159780 Nota: C1 Vol.: 60
Chanel 7 Note Off - Duracao: 159780 Nota: C1 Vol.: 50
Chanel 7 Note On - Duracao: 159780 Nota: C1 Vol.: 56
Chanel 8 Note Off - Duracao: 159840 Nota: C1 Vol.: 77
Chanel 8 Note On - Duracao: 159840 Nota: C1 Vol.: 73
Chanel 1 Note Off - Duracao: 159900 Nota: C1 Vol.: 95
Chanel 1 Note On - Duracao: 159900 Nota: C1 Vol.: 91
Chanel 3 Note Off - Duracao: 159900 Nota: C1 Vol.: 53
Chanel 3 Note On - Duracao: 159900 Nota: C1 Vol.: 45
Chanel 9 Note Off - Duracao: 159960 Nota: C1 Vol.: 56
Chanel 9 Note On - Duracao: 159960 Nota: C1 Vol.: 43
Chanel 1 Note Off - Duracao: 160020 Nota: C1 Vol.: 91
Chanel 1 Note On - Duracao: 160020 Nota: C1 Vol.: 88
Chanel 8 Note Off - Duracao: 160080 Nota: C1 Vol.: 73
Chanel 8 Note On - Duracao: 160080 Nota: C1 Vol.: 63
Chanel 1 Note Off - Duracao: 160260 Nota: C1 Vol.: 88
Chanel 1 Note On - Duracao: 160260 Nota: C1 Vol.: 89
Chanel 2 Note Off - Duracao: 160260 Nota: C1 Vol.: 58
Chanel 2 Note On - Duracao: 160260 Nota: C1 Vol.: 55
Chanel 5 Note Off - Duracao: 160260 Nota: C1 Vol.: 60
Chanel 5 Note On - Duracao: 160260 Nota: C1 Vol.: 60
Chanel 1 Note Off - Duracao: 160380 Nota: C1 Vol.: 89
Chanel 1 Note On - Duracao: 160380 Nota: C1 Vol.: 89
Chanel 9 Note Off - Duracao: 160440 Nota: C1 Vol.: 43
Chanel 9 Note On - Duracao: 160440 Nota: C1 Vol.: 49
Chanel 10 Note Off - Duracao: 160440 Nota: C1 Vol.: 48
Chanel 10 Note On - Duracao: 160440 Nota: C1 Vol.: 53
Chanel 5 Note Off - Duracao: 160500 Nota: C1 Vol.: 60
Chanel 5 Note On - Duracao: 160500 Nota: C1 Vol.: 61
Chanel 8 Note Off - Duracao: 160560 Nota: C1 Vol.: 63
Chanel 8 Note On - Duracao: 160560 Nota: C1 Vol.: 57
Chanel 1 Note Off - Duracao: 160620 Nota: C1 Vol.: 89
Chanel 1 Note On - Duracao: 160620 Nota: C1 Vol.: 91
Chanel 9 Note Off - Duracao: 160680 Nota: C1 Vol.: 49
Chanel 9 Note On - Duracao: 160680 Nota: C1 Vol.: 51
Chanel 1 Note Off - Duracao: 160740 Nota: C1 Vol.: 91
Chanel 1 Note On - Duracao: 160740 Nota: C1 Vol.: 98
Chanel 2 Note Off - Duracao: 160740 Nota: C1 Vol.: 55
Chanel 2 Note On - Duracao: 160740 Nota: C1 Vol.: 66
Chanel 5 Note Off - Duracao: 160740 Nota: C1 Vol.: 61
Chanel 5 Note On - Duracao: 160740 Nota: C1 Vol.: 63
Chanel 7 Note Off - Duracao: 160740 Nota: C1 Vol.: 56
Chanel 7 Note On - Duracao: 160740 Nota: C1 Vol.: 51
Chanel 1 Note Off - Duracao: 160800 Nota: C1 Vol.: 98
Chanel 1 Note On - Duracao: 160800 Nota: C1 Vol.: 98
Chanel 1 Note Off - Duracao: 160860 Nota: C1 Vol.: 98
Chanel 1 Note On - Duracao: 160860 Nota: C1 Vol.: 99
Chanel 3 Note Off - Duracao: 160860 Nota: C1 Vol.: 45
Chanel 3 Note On - Duracao: 160860 Nota: C1 Vol.: 46
Chanel 1 Note Off - Duracao: 160920 Nota: C1 Vol.: 99
Chanel 1 Note On - Duracao: 160920 Nota: C1 Vol.: 91
Chanel 9 Note Off - Duracao: 160920 Nota: C1 Vol.: 51
Chanel 9 Note On - Duracao: 160920 Nota: C1 Vol.: 60
Chanel 2 Note Off - Duracao: 160980 Nota: C1 Vol.: 66
Chanel 2 Note On - Duracao: 160980 Nota: C1 Vol.: 70
Chanel 5 Note Off - Duracao: 160980 Nota: C1 Vol.: 63
Chanel 5 Note On - Duracao: 160980 Nota: C1 Vol.: 64
Chanel 1 Note Off - Duracao: 161040 Nota: C1 Vol.: 91
Chanel 1 Note On - Duracao: 161040 Nota: C1 Vol.: 80
Chanel 8 Note Off - Duracao: 161040 Nota: C1 Vol.: 57
Chanel 8 Note On - Duracao: 161040 Nota: C1 Vol.: 50
Chanel 9 Note Off - Duracao: 161040 Nota: C1 Vol.: 60
Chanel 9 Note On - Duracao: 161040 Nota: C1 Vol.: 49
Chanel 2 Note Off - Duracao: 161220 Nota: C1 Vol.: 70
Chanel 2 Note On - Duracao: 161220 Nota: C1 Vol.: 69
Chanel 4 Note Off - Duracao: 161220 Nota: C1 Vol.: 45
Chanel 4 Note On - Duracao: 161220 Nota: C1 Vol.: 48
Chanel 5 Note Off - Duracao: 161220 Nota: C1 Vol.: 64
Chanel 5 Note On - Duracao: 161220 Nota: C1 Vol.: 69
Chanel 1 Note Off - Duracao: 161280 Nota: C1 Vol.: 80
Chanel 1 Note On - Duracao: 161280 Nota: C1 Vol.: 87
Chanel 9 Note Off - Duracao: 161280 Nota: C1 Vol.: 49
Chanel 9 Note On - Duracao: 161280 Nota: C1 Vol.: 64
Chanel 9 Note Off - Duracao: 161400 Nota: C1 Vol.: 64
Chanel 9 Note On - Duracao: 161400 Nota: C1 Vol.: 63
Chanel 10 Note Off - Duracao: 161400 Nota: C1 Vol.: 53
Chanel 10 Note On - Duracao: 161400 Nota: C1 Vol.: 61
Chanel 2 Note Off - Duracao: 161460 Nota: C1 Vol.: 69
Chanel 2 Note On - Duracao: 161460 Nota: C1 Vol.: 77
Chanel 5 Note Off - Duracao: 161460 Nota: C1 Vol.: 69
Chanel 5 Note On - Duracao: 161460 Nota: C1 Vol.: 71
Chanel 1 Note Off - Duracao: 161520 Nota: C1 Vol.: 87
Chanel 1 Note On - Duracao: 161520 Nota: C1 Vol.: 97
Chanel 9 Note Off - Duracao: 161520 Nota: C1 Vol.: 63
Chanel 9 Note On - Duracao: 161520 Nota: C1 Vol.: 66
Chanel 2 Note Off - Duracao: 161580 Nota: C1 Vol.: 77
Chanel 2 Note On - Duracao: 161580 Nota: C1 Vol.: 67
Chanel 5 Note Off - Duracao: 161580 Nota: C1 Vol.: 71
Chanel 5 Note On - Duracao: 161580 Nota: C1 Vol.: 70
Chanel 1 Note Off - Duracao: 161640 Nota: C1 Vol.: 97
Chanel 1 Note On - Duracao: 161640 Nota: C1 Vol.: 82
Chanel 9 Note Off - Duracao: 161640 Nota: C1 Vol.: 66
Chanel 9 Note On - Duracao: 161640 Nota: C1 Vol.: 65
Chanel 2 Note Off - Duracao: 161820 Nota: C1 Vol.: 67
Chanel 2 Note On - Duracao: 161820 Nota: C1 Vol.: 66
Chanel 3 Note Off - Duracao: 161820 Nota: C1 Vol.: 46
Chanel 3 Note On - Duracao: 161820 Nota: C1 Vol.: 51
Chanel 5 Note Off - Duracao: 161820 Nota: C1 Vol.: 70
Chanel 5 Note On - Duracao: 161820 Nota: C1 Vol.: 74
Chanel 1 Note Off - Duracao: 161880 Nota: C1 Vol.: 82
Chanel 1 Note On - Duracao: 161880 Nota: C1 Vol.: 80
Chanel 9 Note Off - Duracao: 161880 Nota: C1 Vol.: 65
Chanel 9 Note On - Duracao: 161880 Nota: C1 Vol.: 60
Chanel 10 Note Off - Duracao: 161880 Nota: C1 Vol.: 61
Chanel 10 Note On - Duracao: 161880 Nota: C1 Vol.: 61
Chanel 5 Note Off - Duracao: 161940 Nota: C1 Vol.: 74
Chanel 5 Note On - Duracao: 161940 Nota: C1 Vol.: 72
Chanel 8 Note Off - Duracao: 162000 Nota: C1 Vol.: 50
Chanel 8 Note On - Duracao: 162000 Nota: C1 Vol.: 40
Chanel 2 Note Off - Duracao: 162060 Nota: C1 Vol.: 66
Chanel 2 Note On - Duracao: 162060 Nota: C1 Vol.: 66
Chanel 3 Note Off - Duracao: 162060 Nota: C1 Vol.: 51
Chanel 3 Note On - Duracao: 162060 Nota: C1 Vol.: 49
Chanel 1 Note Off - Duracao: 162120 Nota: C1 Vol.: 80
Chanel 1 Note On - Duracao: 162120 Nota: C1 Vol.: 89
Chanel 9 Note Off - Duracao: 162120 Nota: C1 Vol.: 60
Chanel 9 Note On - Duracao: 162120 Nota: C1 Vol.: 62
Chanel 5 Note Off - Duracao: 162180 Nota: C1 Vol.: 72
Chanel 5 Note On - Duracao: 162180 Nota: C1 Vol.: 72
Chanel 1 Note Off - Duracao: 162240 Nota: C1 Vol.: 89
Chanel 1 Note On - Duracao: 162240 Nota: C1 Vol.: 92
Chanel 2 Note Off - Duracao: 162300 Nota: C1 Vol.: 66
Chanel 2 Note On - Duracao: 162300 Nota: C1 Vol.: 64
Chanel 3 Note Off - Duracao: 162300 Nota: C1 Vol.: 49
Chanel 3 Note On - Duracao: 162300 Nota: C1 Vol.: 42
Chanel 1 Note Off - Duracao: 162360 Nota: C1 Vol.: 92
Chanel 1 Note On - Duracao: 162360 Nota: C1 Vol.: 96
Chanel 9 Note Off - Duracao: 162360 Nota: C1 Vol.: 62
Chanel 9 Note On - Duracao: 162360 Nota: C1 Vol.: 62
Chanel 10 Note Off - Duracao: 162360 Nota: C1 Vol.: 61
Chanel 10 Note On - Duracao: 162360 Nota: C1 Vol.: 60
Chanel 5 Note Off - Duracao: 162420 Nota: C1 Vol.: 72
Chanel 5 Note On - Duracao: 162420 Nota: C1 Vol.: 76
Chanel 1 Note Off - Duracao: 162480 Nota: C1 Vol.: 96
Chanel 1 Note On - Duracao: 162480 Nota: C1 Vol.: 98
Chanel 1 Note Off - Duracao: 162540 Nota: C1 Vol.: 98
Chanel 1 Note On - Duracao: 162540 Nota: C1 Vol.: 93
Chanel 2 Note Off - Duracao: 162540 Nota: C1 Vol.: 64
Chanel 2 Note On - Duracao: 162540 Nota: C1 Vol.: 40
Chanel 3 Note Off - Duracao: 162540 Nota: C1 Vol.: 42
Chanel 3 Note On - Duracao: 162540 Nota: C1 Vol.: 45
Chanel 5 Note Off - Duracao: 162540 Nota: C1 Vol.: 76
Chanel 5 Note On - Duracao: 162540 Nota: C1 Vol.: 75
Chanel 6 Note Off - Duracao: 162540 Nota: C1 Vol.: 61
Chanel 6 Note On - Duracao: 162540 Nota: C1 Vol.: 59
Chanel 9 Note Off - Duracao: 162600 Nota: C1 Vol.: 62
Chanel 9 Note On - Duracao: 162600 Nota: C1 Vol.: 59
Chanel 1 Note Off - Duracao: 162660 Nota: C1 Vol.: 93
Chanel 1 Note On - Duracao: 162660 Nota: C1 Vol.: 83
Chanel 3 Note Off - Duracao: 162660 Nota: C1 Vol.: 45
Chanel 3 Note On - Duracao: 162660 Nota: C1 Vol.: 45
Chanel 5 Note Off - Duracao: 162660 Nota: C1 Vol.: 75
Chanel 5 Note On - Duracao: 162660 Nota: C1 Vol.: 74
Chanel 7 Note Off - Duracao: 162660 Nota: C1 Vol.: 51
Chanel 7 Note On - Duracao: 162660 Nota: C1 Vol.: 51
Chanel 3 Note Off - Duracao: 162780 Nota: C1 Vol.: 45
Chanel 3 Note On - Duracao: 162780 Nota: C1 Vol.: 43
Chanel 9 Note Off - Duracao: 162840 Nota: C1 Vol.: 59
Chanel 9 Note On - Duracao: 162840 Nota: C1 Vol.: 57
Chanel 10 Note Off - Duracao: 162840 Nota: C1 Vol.: 60
Chanel 10 Note On - Duracao: 162840 Nota: C1 Vol.: 59
Chanel 1 Note Off - Duracao: 162900 Nota: C1 Vol.: 83
Chanel 1 Note On - Duracao: 162900 Nota: C1 Vol.: 84
Chanel 3 Note Off - Duracao: 162900 Nota: C1 Vol.: 43
Chanel 3 Note On - Duracao: 162900 Nota: C1 Vol.: 41
Chanel 5 Note Off - Duracao: 162900 Nota: C1 Vol.: 74
Chanel 5 Note On - Duracao: 162900 Nota: C1 Vol.: 74
Chanel 1 Note Off - Duracao: 163020 Nota: C1 Vol.: 84
Chanel 1 Note On - Duracao: 163020 Nota: C1 Vol.: 75
Chanel 3 Note Off - Duracao: 163020 Nota: C1 Vol.: 41
Chanel 3 Note On - Duracao: 163020 Nota: C1 Vol.: 47
Chanel 3 Note Off - Duracao: 163140 Nota: C1 Vol.: 47
Chanel 3 Note On - Duracao: 163140 Nota: C1 Vol.: 55
Chanel 4 Note Off - Duracao: 163140 Nota: C1 Vol.: 48
Chanel 4 Note On - Duracao: 163140 Nota: C1 Vol.: 42
Chanel 5 Note Off - Duracao: 163140 Nota: C1 Vol.: 74
Chanel 5 Note On - Duracao: 163140 Nota: C1 Vol.: 72
Chanel 1 Note Off - Duracao: 163260 Nota: C1 Vol.: 75
Chanel 1 Note On - Duracao: 163260 Nota: C1 Vol.: 69
Chanel 3 Note Off - Duracao: 163260 Nota: C1 Vol.: 55
Chanel 3 Note On - Duracao: 163260 Nota: C1 Vol.: 64
Chanel 9 Note Off - Duracao: 163320 Nota: C1 Vol.: 57
Chanel 9 Note On - Duracao: 163320 Nota: C1 Vol.: 51
Chanel 10 Note Off - Duracao: 163320 Nota: C1 Vol.: 59
Chanel 10 Note On - Duracao: 163320 Nota: C1 Vol.: 61
Chanel 3 Note Off - Duracao: 163380 Nota: C1 Vol.: 64
Chanel 3 Note On - Duracao: 163380 Nota: C1 Vol.: 40
Chanel 5 Note Off - Duracao: 163380 Nota: C1 Vol.: 72
Chanel 5 Note On - Duracao: 163380 Nota: C1 Vol.: 74
Chanel 1 Note Off - Duracao: 163500 Nota: C1 Vol.: 69
Chanel 1 Note On - Duracao: 163500 Nota: C1 Vol.: 68
Chanel 5 Note Off - Duracao: 163500 Nota: C1 Vol.: 74
Chanel 5 Note On - Duracao: 163500 Nota: C1 Vol.: 72
Chanel 1 Note Off - Duracao: 163740 Nota: C1 Vol.: 68
Chanel 1 Note On - Duracao: 163740 Nota: C1 Vol.: 65
Chanel 5 Note Off - Duracao: 163740 Nota: C1 Vol.: 72
Chanel 5 Note On - Duracao: 163740 Nota: C1 Vol.: 74
Chanel 10 Note Off - Duracao: 163800 Nota: C1 Vol.: 61
Chanel 10 Note On - Duracao: 163800 Nota: C1 Vol.: 62
Chanel 8 Note Off - Duracao: 163920 Nota: C1 Vol.: 40
Chanel 8 Note On - Duracao: 163920 Nota: C1 Vol.: 41
Chanel 1 Note Off - Duracao: 163980 Nota: C1 Vol.: 65
Chanel 1 Note On - Duracao: 163980 Nota: C1 Vol.: 64
Chanel 5 Note Off - Duracao: 163980 Nota: C1 Vol.: 74
Chanel 5 Note On - Duracao: 163980 Nota: C1 Vol.: 76
Chanel 1 Note Off - Duracao: 164100 Nota: C1 Vol.: 64
Chanel 1 Note On - Duracao: 164100 Nota: C1 Vol.: 61
Chanel 5 Note Off - Duracao: 164220 Nota: C1 Vol.: 76
Chanel 5 Note On - Duracao: 164220 Nota: C1 Vol.: 56
Chanel 9 Note Off - Duracao: 164280 Nota: C1 Vol.: 51
Chanel 9 Note On - Duracao: 164280 Nota: C1 Vol.: 47
Chanel 10 Note Off - Duracao: 164280 Nota: C1 Vol.: 62
Chanel 10 Note On - Duracao: 164280 Nota: C1 Vol.: 58
Chanel 1 Note Off - Duracao: 164340 Nota: C1 Vol.: 61
Chanel 1 Note On - Duracao: 164340 Nota: C1 Vol.: 60
Chanel 2 Note Off - Duracao: 164460 Nota: C1 Vol.: 40
Chanel 2 Note On - Duracao: 164460 Nota: C1 Vol.: 59
Chanel 1 Note Off - Duracao: 164580 Nota: C1 Vol.: 60
Chanel 1 Note On - Duracao: 164580 Nota: C1 Vol.: 58
Chanel 7 Note Off - Duracao: 164580 Nota: C1 Vol.: 51
Chanel 7 Note On - Duracao: 164580 Nota: C1 Vol.: 49
Chanel 2 Note Off - Duracao: 164700 Nota: C1 Vol.: 59
Chanel 2 Note On - Duracao: 164700 Nota: C1 Vol.: 52
Chanel 10 Note Off - Duracao: 164760 Nota: C1 Vol.: 58
Chanel 10 Note On - Duracao: 164760 Nota: C1 Vol.: 59
Chanel 1 Note Off - Duracao: 164820 Nota: C1 Vol.: 58
Chanel 1 Note On - Duracao: 164820 Nota: C1 Vol.: 59
Chanel 2 Note Off - Duracao: 164820 Nota: C1 Vol.: 52
Chanel 2 Note On - Duracao: 164820 Nota: C1 Vol.: 49
Chanel 2 Note Off - Duracao: 165060 Nota: C1 Vol.: 49
Chanel 2 Note On - Duracao: 165060 Nota: C1 Vol.: 51
Chanel 4 Note Off - Duracao: 165060 Nota: C1 Vol.: 42
Chanel 4 Note On - Duracao: 165060 Nota: C1 Vol.: 42
Chanel 5 Note Off - Duracao: 165180 Nota: C1 Vol.: 56
Chanel 5 Note On - Duracao: 165180 Nota: C1 Vol.: 45
Chanel 9 Note Off - Duracao: 165240 Nota: C1 Vol.: 47
Chanel 9 Note On - Duracao: 165240 Nota: C1 Vol.: 55
Chanel 10 Note Off - Duracao: 165240 Nota: C1 Vol.: 59
Chanel 10 Note On - Duracao: 165240 Nota: C1 Vol.: 60
Chanel 1 Note Off - Duracao: 165300 Nota: C1 Vol.: 59
Chanel 1 Note On - Duracao: 165300 Nota: C1 Vol.: 63
Chanel 2 Note Off - Duracao: 165300 Nota: C1 Vol.: 51
Chanel 2 Note On - Duracao: 165300 Nota: C1 Vol.: 40
Chanel 3 Note Off - Duracao: 165300 Nota: C1 Vol.: 40
Chanel 3 Note On - Duracao: 165300 Nota: C1 Vol.: 54
Chanel 1 Note Off - Duracao: 165540 Nota: C1 Vol.: 63
Chanel 1 Note On - Duracao: 165540 Nota: C1 Vol.: 58
Chanel 9 Note Off - Duracao: 165720 Nota: C1 Vol.: 55
Chanel 9 Note On - Duracao: 165720 Nota: C1 Vol.: 60
Chanel 10 Note Off - Duracao: 165720 Nota: C1 Vol.: 60
Chanel 10 Note On - Duracao: 165720 Nota: C1 Vol.: 65
Chanel 1 Note Off - Duracao: 165780 Nota: C1 Vol.: 58
Chanel 1 Note On - Duracao: 165780 Nota: C1 Vol.: 47
Chanel 3 Note Off - Duracao: 165780 Nota: C1 Vol.: 54
Chanel 3 Note On - Duracao: 165780 Nota: C1 Vol.: 58
Chanel 8 Note Off - Duracao: 165840 Nota: C1 Vol.: 41
Chanel 8 Note On - Duracao: 165840 Nota: C1 Vol.: 40
Chanel 10 Note Off - Duracao: 165960 Nota: C1 Vol.: 65
Chanel 10 Note On - Duracao: 165960 Nota: C1 Vol.: 67
Chanel 9 Note Off - Duracao: 166200 Nota: C1 Vol.: 60
Chanel 9 Note On - Duracao: 166200 Nota: C1 Vol.: 64
Chanel 10 Note Off - Duracao: 166200 Nota: C1 Vol.: 67
Chanel 10 Note On - Duracao: 166200 Nota: C1 Vol.: 67
Chanel 1 Note Off - Duracao: 166260 Nota: C1 Vol.: 47
Chanel 1 Note On - Duracao: 166260 Nota: C1 Vol.: 52
Chanel 3 Note Off - Duracao: 166260 Nota: C1 Vol.: 58
Chanel 3 Note On - Duracao: 166260 Nota: C1 Vol.: 54
Chanel 6 Note Off - Duracao: 166380 Nota: C1 Vol.: 59
Chanel 6 Note On - Duracao: 166380 Nota: C1 Vol.: 59
Chanel 10 Note Off - Duracao: 166440 Nota: C1 Vol.: 67
Chanel 10 Note On - Duracao: 166440 Nota: C1 Vol.: 64
Chanel 7 Note Off - Duracao: 166500 Nota: C1 Vol.: 49
Chanel 7 Note On - Duracao: 166500 Nota: C1 Vol.: 47
Chanel 9 Note Off - Duracao: 166680 Nota: C1 Vol.: 64
Chanel 9 Note On - Duracao: 166680 Nota: C1 Vol.: 66
Chanel 1 Note Off - Duracao: 166740 Nota: C1 Vol.: 52
Chanel 1 Note On - Duracao: 166740 Nota: C1 Vol.: 52
Chanel 3 Note Off - Duracao: 166740 Nota: C1 Vol.: 54
Chanel 3 Note On - Duracao: 166740 Nota: C1 Vol.: 64
Chanel 9 Note Off - Duracao: 166920 Nota: C1 Vol.: 66
Chanel 9 Note On - Duracao: 166920 Nota: C1 Vol.: 67
Chanel 10 Note Off - Duracao: 166920 Nota: C1 Vol.: 64
Chanel 10 Note On - Duracao: 166920 Nota: C1 Vol.: 57
Chanel 3 Note Off - Duracao: 166980 Nota: C1 Vol.: 64
Chanel 3 Note On - Duracao: 166980 Nota: C1 Vol.: 67
Chanel 4 Note Off - Duracao: 166980 Nota: C1 Vol.: 42
Chanel 4 Note On - Duracao: 166980 Nota: C1 Vol.: 49
Chanel 5 Note Off - Duracao: 167100 Nota: C1 Vol.: 45
Chanel 5 Note On - Duracao: 167100 Nota: C1 Vol.: 79
Chanel 9 Note Off - Duracao: 167160 Nota: C1 Vol.: 67
Chanel 9 Note On - Duracao: 167160 Nota: C1 Vol.: 69
Chanel 1 Note Off - Duracao: 167220 Nota: C1 Vol.: 52
Chanel 1 Note On - Duracao: 167220 Nota: C1 Vol.: 58
Chanel 2 Note Off - Duracao: 167220 Nota: C1 Vol.: 40
Chanel 2 Note On - Duracao: 167220 Nota: C1 Vol.: 40
Chanel 3 Note Off - Duracao: 167220 Nota: C1 Vol.: 67
Chanel 3 Note On - Duracao: 167220 Nota: C1 Vol.: 61
Chanel 5 Note Off - Duracao: 167340 Nota: C1 Vol.: 79
Chanel 5 Note On - Duracao: 167340 Nota: C1 Vol.: 78
Chanel 9 Note Off - Duracao: 167400 Nota: C1 Vol.: 69
Chanel 9 Note On - Duracao: 167400 Nota: C1 Vol.: 73
Chanel 10 Note Off - Duracao: 167400 Nota: C1 Vol.: 57
Chanel 10 Note On - Duracao: 167400 Nota: C1 Vol.: 52
Chanel 1 Note Off - Duracao: 167460 Nota: C1 Vol.: 58
Chanel 1 Note On - Duracao: 167460 Nota: C1 Vol.: 62
Chanel 3 Note Off - Duracao: 167460 Nota: C1 Vol.: 61
Chanel 3 Note On - Duracao: 167460 Nota: C1 Vol.: 55
Chanel 5 Note Off - Duracao: 167580 Nota: C1 Vol.: 78
Chanel 5 Note On - Duracao: 167580 Nota: C1 Vol.: 90
Chanel 9 Note Off - Duracao: 167640 Nota: C1 Vol.: 73
Chanel 9 Note On - Duracao: 167640 Nota: C1 Vol.: 66
Chanel 1 Note Off - Duracao: 167700 Nota: C1 Vol.: 62
Chanel 1 Note On - Duracao: 167700 Nota: C1 Vol.: 65
Chanel 5 Note Off - Duracao: 167700 Nota: C1 Vol.: 90
Chanel 5 Note On - Duracao: 167700 Nota: C1 Vol.: 90
Chanel 8 Note Off - Duracao: 167760 Nota: C1 Vol.: 40
Chanel 8 Note On - Duracao: 167760 Nota: C1 Vol.: 40
Chanel 1 Note Off - Duracao: 167820 Nota: C1 Vol.: 65
Chanel 1 Note On - Duracao: 167820 Nota: C1 Vol.: 62
Chanel 5 Note Off - Duracao: 167820 Nota: C1 Vol.: 90
Chanel 5 Note On - Duracao: 167820 Nota: C1 Vol.: 97
Chanel 5 Note Off - Duracao: 167880 Nota: C1 Vol.: 97
Chanel 5 Note On - Duracao: 167880 Nota: C1 Vol.: 97
Chanel 10 Note Off - Duracao: 167880 Nota: C1 Vol.: 52
Chanel 10 Note On - Duracao: 167880 Nota: C1 Vol.: 49
Chanel 3 Note Off - Duracao: 167940 Nota: C1 Vol.: 55
Chanel 3 Note On - Duracao: 167940 Nota: C1 Vol.: 66
Chanel 4 Note Off - Duracao: 167940 Nota: C1 Vol.: 49
Chanel 4 Note On - Duracao: 167940 Nota: C1 Vol.: 50
Chanel 5 Note Off - Duracao: 167940 Nota: C1 Vol.: 97
Chanel 5 Note On - Duracao: 167940 Nota: C1 Vol.: 96
Chanel 5 Note Off - Duracao: 168000 Nota: C1 Vol.: 96
Chanel 5 Note On - Duracao: 168000 Nota: C1 Vol.: 88
Chanel 1 Note Off - Duracao: 168060 Nota: C1 Vol.: 62
Chanel 1 Note On - Duracao: 168060 Nota: C1 Vol.: 60
Chanel 5 Note Off - Duracao: 168120 Nota: C1 Vol.: 88
Chanel 5 Note On - Duracao: 168120 Nota: C1 Vol.: 88
Chanel 9 Note Off - Duracao: 168120 Nota: C1 Vol.: 66
Chanel 9 Note On - Duracao: 168120 Nota: C1 Vol.: 79
Chanel 3 Note Off - Duracao: 168180 Nota: C1 Vol.: 66
Chanel 3 Note On - Duracao: 168180 Nota: C1 Vol.: 94
Chanel 5 Note Off - Duracao: 168240 Nota: C1 Vol.: 88
Chanel 5 Note On - Duracao: 168240 Nota: C1 Vol.: 89
Chanel 1 Note Off - Duracao: 168300 Nota: C1 Vol.: 60
Chanel 1 Note On - Duracao: 168300 Nota: C1 Vol.: 61
Chanel 3 Note Off - Duracao: 168300 Nota: C1 Vol.: 94
Chanel 3 Note On - Duracao: 168300 Nota: C1 Vol.: 71
Chanel 5 Note Off - Duracao: 168360 Nota: C1 Vol.: 89
Chanel 5 Note On - Duracao: 168360 Nota: C1 Vol.: 94
Chanel 9 Note Off - Duracao: 168360 Nota: C1 Vol.: 79
Chanel 9 Note On - Duracao: 168360 Nota: C1 Vol.: 87
Chanel 10 Note Off - Duracao: 168360 Nota: C1 Vol.: 49
Chanel 10 Note On - Duracao: 168360 Nota: C1 Vol.: 67
Chanel 7 Note Off - Duracao: 168420 Nota: C1 Vol.: 47
Chanel 7 Note On - Duracao: 168420 Nota: C1 Vol.: 48
Chanel 5 Note Off - Duracao: 168480 Nota: C1 Vol.: 94
Chanel 5 Note On - Duracao: 168480 Nota: C1 Vol.: 50
Chanel 9 Note Off - Duracao: 168480 Nota: C1 Vol.: 87
Chanel 9 Note On - Duracao: 168480 Nota: C1 Vol.: 83
Chanel 10 Note Off - Duracao: 168480 Nota: C1 Vol.: 67
Chanel 10 Note On - Duracao: 168480 Nota: C1 Vol.: 49
Chanel 1 Note Off - Duracao: 168540 Nota: C1 Vol.: 61
Chanel 1 Note On - Duracao: 168540 Nota: C1 Vol.: 63
Chanel 9 Note Off - Duracao: 168600 Nota: C1 Vol.: 83
Chanel 9 Note On - Duracao: 168600 Nota: C1 Vol.: 61
Chanel 1 Note Off - Duracao: 168780 Nota: C1 Vol.: 63
Chanel 1 Note On - Duracao: 168780 Nota: C1 Vol.: 67
Chanel 3 Note Off - Duracao: 168780 Nota: C1 Vol.: 71
Chanel 3 Note On - Duracao: 168780 Nota: C1 Vol.: 67
Chanel 4 Note Off - Duracao: 168900 Nota: C1 Vol.: 50
Chanel 4 Note On - Duracao: 168900 Nota: C1 Vol.: 50
Chanel 10 Note Off - Duracao: 168960 Nota: C1 Vol.: 49
Chanel 10 Note On - Duracao: 168960 Nota: C1 Vol.: 52
Chanel 1 Note Off - Duracao: 169020 Nota: C1 Vol.: 67
Chanel 1 Note On - Duracao: 169020 Nota: C1 Vol.: 63
Chanel 9 Note Off - Duracao: 169080 Nota: C1 Vol.: 61
Chanel 9 Note On - Duracao: 169080 Nota: C1 Vol.: 52
Chanel 2 Note Off - Duracao: 169140 Nota: C1 Vol.: 40
Chanel 2 Note On - Duracao: 169140 Nota: C1 Vol.: 40
Chanel 1 Note Off - Duracao: 169260 Nota: C1 Vol.: 63
Chanel 1 Note On - Duracao: 169260 Nota: C1 Vol.: 67
Chanel 3 Note Off - Duracao: 169260 Nota: C1 Vol.: 67
Chanel 3 Note On - Duracao: 169260 Nota: C1 Vol.: 74
Chanel 10 Note Off - Duracao: 169440 Nota: C1 Vol.: 52
Chanel 10 Note On - Duracao: 169440 Nota: C1 Vol.: 57
Chanel 1 Note Off - Duracao: 169500 Nota: C1 Vol.: 67
Chanel 1 Note On - Duracao: 169500 Nota: C1 Vol.: 72
Chanel 8 Note Off - Duracao: 169680 Nota: C1 Vol.: 40
Chanel 8 Note On - Duracao: 169680 Nota: C1 Vol.: 42
Chanel 10 Note Off - Duracao: 169680 Nota: C1 Vol.: 57
Chanel 10 Note On - Duracao: 169680 Nota: C1 Vol.: 63
Chanel 1 Note Off - Duracao: 169740 Nota: C1 Vol.: 72
Chanel 1 Note On - Duracao: 169740 Nota: C1 Vol.: 75
Chanel 3 Note Off - Duracao: 169740 Nota: C1 Vol.: 74
Chanel 3 Note On - Duracao: 169740 Nota: C1 Vol.: 84
Chanel 1 Note Off - Duracao: 169860 Nota: C1 Vol.: 75
Chanel 1 Note On - Duracao: 169860 Nota: C1 Vol.: 78
Chanel 4 Note Off - Duracao: 169860 Nota: C1 Vol.: 50
Chanel 4 Note On - Duracao: 169860 Nota: C1 Vol.: 43
Chanel 10 Note Off - Duracao: 169920 Nota: C1 Vol.: 63
Chanel 10 Note On - Duracao: 169920 Nota: C1 Vol.: 54
Chanel 1 Note Off - Duracao: 169980 Nota: C1 Vol.: 78
Chanel 1 Note On - Duracao: 169980 Nota: C1 Vol.: 75
Chanel 3 Note Off - Duracao: 169980 Nota: C1 Vol.: 84
Chanel 3 Note On - Duracao: 169980 Nota: C1 Vol.: 84
Chanel 9 Note Off - Duracao: 170040 Nota: C1 Vol.: 52
Chanel 9 Note On - Duracao: 170040 Nota: C1 Vol.: 53
Chanel 10 Note Off - Duracao: 170160 Nota: C1 Vol.: 54
Chanel 10 Note On - Duracao: 170160 Nota: C1 Vol.: 55
Chanel 1 Note Off - Duracao: 170220 Nota: C1 Vol.: 75
Chanel 1 Note On - Duracao: 170220 Nota: C1 Vol.: 73
Chanel 3 Note Off - Duracao: 170220 Nota: C1 Vol.: 84
Chanel 3 Note On - Duracao: 170220 Nota: C1 Vol.: 80
Chanel 6 Note Off - Duracao: 170220 Nota: C1 Vol.: 59
Chanel 6 Note On - Duracao: 170220 Nota: C1 Vol.: 55
Chanel 7 Note Off - Duracao: 170340 Nota: C1 Vol.: 48
Chanel 7 Note On - Duracao: 170340 Nota: C1 Vol.: 49
Chanel 5 Note Off - Duracao: 170400 Nota: C1 Vol.: 50
Chanel 5 Note On - Duracao: 170400 Nota: C1 Vol.: 60
Chanel 10 Note Off - Duracao: 170400 Nota: C1 Vol.: 55
Chanel 10 Note On - Duracao: 170400 Nota: C1 Vol.: 53
Chanel 1 Note Off - Duracao: 170460 Nota: C1 Vol.: 73
Chanel 1 Note On - Duracao: 170460 Nota: C1 Vol.: 87
Chanel 3 Note Off - Duracao: 170460 Nota: C1 Vol.: 80
Chanel 3 Note On - Duracao: 170460 Nota: C1 Vol.: 79
Chanel 1 Note Off - Duracao: 170580 Nota: C1 Vol.: 87
Chanel 1 Note On - Duracao: 170580 Nota: C1 Vol.: 95
Chanel 1 Note Off - Duracao: 170640 Nota: C1 Vol.: 95
Chanel 1 Note On - Duracao: 170640 Nota: C1 Vol.: 92
Chanel 8 Note Off - Duracao: 170640 Nota: C1 Vol.: 42
Chanel 8 Note On - Duracao: 170640 Nota: C1 Vol.: 64
Chanel 10 Note Off - Duracao: 170640 Nota: C1 Vol.: 53
Chanel 10 Note On - Duracao: 170640 Nota: C1 Vol.: 61
Chanel 1 Note Off - Duracao: 170700 Nota: C1 Vol.: 92
Chanel 1 Note On - Duracao: 170700 Nota: C1 Vol.: 47
Chanel 3 Note Off - Duracao: 170700 Nota: C1 Vol.: 79
Chanel 3 Note On - Duracao: 170700 Nota: C1 Vol.: 75
Chanel 10 Note Off - Duracao: 170760 Nota: C1 Vol.: 61
Chanel 10 Note On - Duracao: 170760 Nota: C1 Vol.: 58
Chanel 8 Note Off - Duracao: 170880 Nota: C1 Vol.: 64
Chanel 8 Note On - Duracao: 170880 Nota: C1 Vol.: 49
Chanel 3 Note Off - Duracao: 170940 Nota: C1 Vol.: 75
Chanel 3 Note On - Duracao: 170940 Nota: C1 Vol.: 81
Chanel 9 Note Off - Duracao: 171000 Nota: C1 Vol.: 53
Chanel 9 Note On - Duracao: 171000 Nota: C1 Vol.: 65
Chanel 10 Note Off - Duracao: 171000 Nota: C1 Vol.: 58
Chanel 10 Note On - Duracao: 171000 Nota: C1 Vol.: 45
Chanel 3 Note Off - Duracao: 171180 Nota: C1 Vol.: 81
Chanel 3 Note On - Duracao: 171180 Nota: C1 Vol.: 87
Chanel 9 Note Off - Duracao: 171240 Nota: C1 Vol.: 65
Chanel 9 Note On - Duracao: 171240 Nota: C1 Vol.: 67
Chanel 5 Note Off - Duracao: 171360 Nota: C1 Vol.: 60
Chanel 5 Note On - Duracao: 171360 Nota: C1 Vol.: 93
Chanel 8 Note Off - Duracao: 171360 Nota: C1 Vol.: 49
Chanel 8 Note On - Duracao: 171360 Nota: C1 Vol.: 57
Chanel 3 Note Off - Duracao: 171420 Nota: C1 Vol.: 87
Chanel 3 Note On - Duracao: 171420 Nota: C1 Vol.: 88
Chanel 5 Note Off - Duracao: 171420 Nota: C1 Vol.: 93
Chanel 5 Note On - Duracao: 171420 Nota: C1 Vol.: 97
Chanel 5 Note Off - Duracao: 171480 Nota: C1 Vol.: 97
Chanel 5 Note On - Duracao: 171480 Nota: C1 Vol.: 95
Chanel 9 Note Off - Duracao: 171480 Nota: C1 Vol.: 67
Chanel 9 Note On - Duracao: 171480 Nota: C1 Vol.: 66
Chanel 3 Note Off - Duracao: 171540 Nota: C1 Vol.: 88
Chanel 3 Note On - Duracao: 171540 Nota: C1 Vol.: 99
Chanel 5 Note Off - Duracao: 171540 Nota: C1 Vol.: 95
Chanel 5 Note On - Duracao: 171540 Nota: C1 Vol.: 96
Chanel 3 Note Off - Duracao: 171600 Nota: C1 Vol.: 99
Chanel 3 Note On - Duracao: 171600 Nota: C1 Vol.: 91
Chanel 5 Note Off - Duracao: 171600 Nota: C1 Vol.: 96
Chanel 5 Note On - Duracao: 171600 Nota: C1 Vol.: 95
Chanel 1 Note Off - Duracao: 171660 Nota: C1 Vol.: 47
Chanel 1 Note On - Duracao: 171660 Nota: C1 Vol.: 51
Chanel 5 Note Off - Duracao: 171660 Nota: C1 Vol.: 95
Chanel 5 Note On - Duracao: 171660 Nota: C1 Vol.: 77
Chanel 3 Note Off - Duracao: 171720 Nota: C1 Vol.: 91
Chanel 3 Note On - Duracao: 171720 Nota: C1 Vol.: 81
Chanel 9 Note Off - Duracao: 171720 Nota: C1 Vol.: 66
Chanel 9 Note On - Duracao: 171720 Nota: C1 Vol.: 66
Chanel 4 Note Off - Duracao: 171780 Nota: C1 Vol.: 43
Chanel 4 Note On - Duracao: 171780 Nota: C1 Vol.: 49
Chanel 8 Note Off - Duracao: 171840 Nota: C1 Vol.: 57
Chanel 8 Note On - Duracao: 171840 Nota: C1 Vol.: 58
Chanel 5 Note Off - Duracao: 171900 Nota: C1 Vol.: 77
Chanel 5 Note On - Duracao: 171900 Nota: C1 Vol.: 98
Chanel 3 Note Off - Duracao: 171960 Nota: C1 Vol.: 81
Chanel 3 Note On - Duracao: 171960 Nota: C1 Vol.: 79
Chanel 5 Note Off - Duracao: 171960 Nota: C1 Vol.: 98
Chanel 5 Note On - Duracao: 171960 Nota: C1 Vol.: 99
Chanel 9 Note Off - Duracao: 171960 Nota: C1 Vol.: 66
Chanel 9 Note On - Duracao: 171960 Nota: C1 Vol.: 69
Chanel 10 Note Off - Duracao: 171960 Nota: C1 Vol.: 45
Chanel 10 Note On - Duracao: 171960 Nota: C1 Vol.: 57
Chanel 5 Note Off - Duracao: 172020 Nota: C1 Vol.: 99
Chanel 5 Note On - Duracao: 172020 Nota: C1 Vol.: 99
Chanel 5 Note Off - Duracao: 172080 Nota: C1 Vol.: 99
Chanel 5 Note On - Duracao: 172080 Nota: C1 Vol.: 97
Chanel 9 Note Off - Duracao: 172080 Nota: C1 Vol.: 69
Chanel 9 Note On - Duracao: 172080 Nota: C1 Vol.: 67
Chanel 1 Note Off - Duracao: 172140 Nota: C1 Vol.: 51
Chanel 1 Note On - Duracao: 172140 Nota: C1 Vol.: 49
Chanel 5 Note Off - Duracao: 172140 Nota: C1 Vol.: 97
Chanel 5 Note On - Duracao: 172140 Nota: C1 Vol.: 97
Chanel 3 Note Off - Duracao: 172200 Nota: C1 Vol.: 79
Chanel 3 Note On - Duracao: 172200 Nota: C1 Vol.: 85
Chanel 5 Note Off - Duracao: 172200 Nota: C1 Vol.: 97
Chanel 5 Note On - Duracao: 172200 Nota: C1 Vol.: 97
Chanel 9 Note Off - Duracao: 172200 Nota: C1 Vol.: 67
Chanel 9 Note On - Duracao: 172200 Nota: C1 Vol.: 73
Chanel 5 Note Off - Duracao: 172260 Nota: C1 Vol.: 97
Chanel 5 Note On - Duracao: 172260 Nota: C1 Vol.: 93
Chanel 8 Note Off - Duracao: 172320 Nota: C1 Vol.: 58
Chanel 8 Note On - Duracao: 172320 Nota: C1 Vol.: 59
Chanel 9 Note Off - Duracao: 172320 Nota: C1 Vol.: 73
Chanel 9 Note On - Duracao: 172320 Nota: C1 Vol.: 70
Chanel 1 Note Off - Duracao: 172380 Nota: C1 Vol.: 49
Chanel 1 Note On - Duracao: 172380 Nota: C1 Vol.: 50
Chanel 5 Note Off - Duracao: 172380 Nota: C1 Vol.: 93
Chanel 5 Note On - Duracao: 172380 Nota: C1 Vol.: 97
Chanel 3 Note Off - Duracao: 172440 Nota: C1 Vol.: 85
Chanel 3 Note On - Duracao: 172440 Nota: C1 Vol.: 82
Chanel 5 Note Off - Duracao: 172440 Nota: C1 Vol.: 97
Chanel 5 Note On - Duracao: 172440 Nota: C1 Vol.: 98
Chanel 9 Note Off - Duracao: 172440 Nota: C1 Vol.: 70
Chanel 9 Note On - Duracao: 172440 Nota: C1 Vol.: 72
Chanel 10 Note Off - Duracao: 172440 Nota: C1 Vol.: 57
Chanel 10 Note On - Duracao: 172440 Nota: C1 Vol.: 55
Chanel 5 Note Off - Duracao: 172500 Nota: C1 Vol.: 98
Chanel 5 Note On - Duracao: 172500 Nota: C1 Vol.: 96
Chanel 5 Note Off - Duracao: 172560 Nota: C1 Vol.: 96
Chanel 5 Note On - Duracao: 172560 Nota: C1 Vol.: 96
Chanel 9 Note Off - Duracao: 172560 Nota: C1 Vol.: 72
Chanel 9 Note On - Duracao: 172560 Nota: C1 Vol.: 73
Chanel 1 Note Off - Duracao: 172620 Nota: C1 Vol.: 50
Chanel 1 Note On - Duracao: 172620 Nota: C1 Vol.: 57
Chanel 5 Note Off - Duracao: 172620 Nota: C1 Vol.: 96
Chanel 5 Note On - Duracao: 172620 Nota: C1 Vol.: 100
Chanel 3 Note Off - Duracao: 172680 Nota: C1 Vol.: 82
Chanel 3 Note On - Duracao: 172680 Nota: C1 Vol.: 80
Chanel 5 Note Off - Duracao: 172680 Nota: C1 Vol.: 100
Chanel 5 Note On - Duracao: 172680 Nota: C1 Vol.: 98
Chanel 9 Note Off - Duracao: 172680 Nota: C1 Vol.: 73
Chanel 9 Note On - Duracao: 172680 Nota: C1 Vol.: 74
Chanel 5 Note Off - Duracao: 172800 Nota: C1 Vol.: 98
Chanel 5 Note On - Duracao: 172800 Nota: C1 Vol.: 100
Chanel 8 Note Off - Duracao: 172800 Nota: C1 Vol.: 59
Chanel 8 Note On - Duracao: 172800 Nota: C1 Vol.: 59
Chanel 9 Note Off - Duracao: 172800 Nota: C1 Vol.: 74
Chanel 9 Note On - Duracao: 172800 Nota: C1 Vol.: 61
Chanel 1 Note Off - Duracao: 172860 Nota: C1 Vol.: 57
Chanel 1 Note On - Duracao: 172860 Nota: C1 Vol.: 40
Chanel 5 Note Off - Duracao: 172860 Nota: C1 Vol.: 100
Chanel 5 Note On - Duracao: 172860 Nota: C1 Vol.: 92
Chanel 3 Note Off - Duracao: 172920 Nota: C1 Vol.: 80
Chanel 3 Note On - Duracao: 172920 Nota: C1 Vol.: 73
Chanel 2 Note Off - Duracao: 172980 Nota: C1 Vol.: 40
Chanel 2 Note On - Duracao: 172980 Nota: C1 Vol.: 40
Chanel 5 Note Off - Duracao: 172980 Nota: C1 Vol.: 92
Chanel 5 Note On - Duracao: 172980 Nota: C1 Vol.: 92
Chanel 5 Note Off - Duracao: 173100 Nota: C1 Vol.: 92
Chanel 5 Note On - Duracao: 173100 Nota: C1 Vol.: 94
Chanel 5 Note Off - Duracao: 173160 Nota: C1 Vol.: 94
Chanel 5 Note On - Duracao: 173160 Nota: C1 Vol.: 91
Chanel 5 Note Off - Duracao: 173280 Nota: C1 Vol.: 91
Chanel 5 Note On - Duracao: 173280 Nota: C1 Vol.: 84
Chanel 8 Note Off - Duracao: 173280 Nota: C1 Vol.: 59
Chanel 8 Note On - Duracao: 173280 Nota: C1 Vol.: 44
Chanel 9 Note Off - Duracao: 173280 Nota: C1 Vol.: 61
Chanel 9 Note On - Duracao: 173280 Nota: C1 Vol.: 53
Chanel 3 Note Off - Duracao: 173400 Nota: C1 Vol.: 73
Chanel 3 Note On - Duracao: 173400 Nota: C1 Vol.: 70
Chanel 10 Note Off - Duracao: 173400 Nota: C1 Vol.: 55
Chanel 10 Note On - Duracao: 173400 Nota: C1 Vol.: 56
Chanel 5 Note Off - Duracao: 173520 Nota: C1 Vol.: 84
Chanel 5 Note On - Duracao: 173520 Nota: C1 Vol.: 67
Chanel 4 Note Off - Duracao: 173700 Nota: C1 Vol.: 49
Chanel 4 Note On - Duracao: 173700 Nota: C1 Vol.: 45
Chanel 3 Note Off - Duracao: 173880 Nota: C1 Vol.: 70
Chanel 3 Note On - Duracao: 173880 Nota: C1 Vol.: 73
Chanel 6 Note Off - Duracao: 174060 Nota: C1 Vol.: 55
Chanel 6 Note On - Duracao: 174060 Nota: C1 Vol.: 59
Chanel 3 Note Off - Duracao: 174120 Nota: C1 Vol.: 73
Chanel 3 Note On - Duracao: 174120 Nota: C1 Vol.: 66
Chanel 7 Note Off - Duracao: 174180 Nota: C1 Vol.: 49
Chanel 7 Note On - Duracao: 174180 Nota: C1 Vol.: 61
Chanel 9 Note Off - Duracao: 174240 Nota: C1 Vol.: 53
Chanel 9 Note On - Duracao: 174240 Nota: C1 Vol.: 56
Chanel 3 Note Off - Duracao: 174360 Nota: C1 Vol.: 66
Chanel 3 Note On - Duracao: 174360 Nota: C1 Vol.: 44
Chanel 10 Note Off - Duracao: 174360 Nota: C1 Vol.: 56
Chanel 10 Note On - Duracao: 174360 Nota: C1 Vol.: 59
Chanel 5 Note Off - Duracao: 174480 Nota: C1 Vol.: 67
Chanel 5 Note On - Duracao: 174480 Nota: C1 Vol.: 61
Chanel 1 Note Off - Duracao: 174780 Nota: C1 Vol.: 40
Chanel 1 Note On - Duracao: 174780 Nota: C1 Vol.: 46
Chanel 10 Note Off - Duracao: 174840 Nota: C1 Vol.: 59
Chanel 10 Note On - Duracao: 174840 Nota: C1 Vol.: 56
Chanel 2 Note Off - Duracao: 174900 Nota: C1 Vol.: 40
Chanel 2 Note On - Duracao: 174900 Nota: C1 Vol.: 57
Chanel 2 Note Off - Duracao: 175140 Nota: C1 Vol.: 57
Chanel 2 Note On - Duracao: 175140 Nota: C1 Vol.: 57
Chanel 8 Note Off - Duracao: 175200 Nota: C1 Vol.: 44
Chanel 8 Note On - Duracao: 175200 Nota: C1 Vol.: 42
Chanel 9 Note Off - Duracao: 175200 Nota: C1 Vol.: 56
Chanel 9 Note On - Duracao: 175200 Nota: C1 Vol.: 74
Chanel 3 Note Off - Duracao: 175320 Nota: C1 Vol.: 44
Chanel 3 Note On - Duracao: 175320 Nota: C1 Vol.: 51
Chanel 2 Note Off - Duracao: 175380 Nota: C1 Vol.: 57
Chanel 2 Note On - Duracao: 175380 Nota: C1 Vol.: 50
Chanel 5 Note Off - Duracao: 175440 Nota: C1 Vol.: 61
Chanel 5 Note On - Duracao: 175440 Nota: C1 Vol.: 65
Chanel 9 Note Off - Duracao: 175440 Nota: C1 Vol.: 74
Chanel 9 Note On - Duracao: 175440 Nota: C1 Vol.: 70
Chanel 4 Note Off - Duracao: 175620 Nota: C1 Vol.: 45
Chanel 4 Note On - Duracao: 175620 Nota: C1 Vol.: 81
Chanel 10 Note Off - Duracao: 175800 Nota: C1 Vol.: 56
Chanel 10 Note On - Duracao: 175800 Nota: C1 Vol.: 63
Chanel 2 Note Off - Duracao: 175860 Nota: C1 Vol.: 50
Chanel 2 Note On - Duracao: 175860 Nota: C1 Vol.: 44
Chanel 4 Note Off - Duracao: 175860 Nota: C1 Vol.: 81
Chanel 4 Note On - Duracao: 175860 Nota: C1 Vol.: 89
Chanel 9 Note Off - Duracao: 175920 Nota: C1 Vol.: 70
Chanel 9 Note On - Duracao: 175920 Nota: C1 Vol.: 51
Chanel 4 Note Off - Duracao: 175980 Nota: C1 Vol.: 89
Chanel 4 Note On - Duracao: 175980 Nota: C1 Vol.: 96
Chanel 6 Note Off - Duracao: 175980 Nota: C1 Vol.: 59
Chanel 6 Note On - Duracao: 175980 Nota: C1 Vol.: 50
Chanel 4 Note Off - Duracao: 176100 Nota: C1 Vol.: 96
Chanel 4 Note On - Duracao: 176100 Nota: C1 Vol.: 100
Chanel 7 Note Off - Duracao: 176100 Nota: C1 Vol.: 61
Chanel 7 Note On - Duracao: 176100 Nota: C1 Vol.: 60
Chanel 4 Note Off - Duracao: 176160 Nota: C1 Vol.: 100
Chanel 4 Note On - Duracao: 176160 Nota: C1 Vol.: 99
Chanel 4 Note Off - Duracao: 176220 Nota: C1 Vol.: 99
Chanel 4 Note On - Duracao: 176220 Nota: C1 Vol.: 98
Chanel 3 Note Off - Duracao: 176280 Nota: C1 Vol.: 51
Chanel 3 Note On - Duracao: 176280 Nota: C1 Vol.: 50
Chanel 4 Note Off - Duracao: 176280 Nota: C1 Vol.: 98
Chanel 4 Note On - Duracao: 176280 Nota: C1 Vol.: 99
Chanel 10 Note Off - Duracao: 176280 Nota: C1 Vol.: 63
Chanel 10 Note On - Duracao: 176280 Nota: C1 Vol.: 62
Chanel 4 Note Off - Duracao: 176340 Nota: C1 Vol.: 99
Chanel 4 Note On - Duracao: 176340 Nota: C1 Vol.: 98
Chanel 4 Note Off - Duracao: 176400 Nota: C1 Vol.: 98
Chanel 4 Note On - Duracao: 176400 Nota: C1 Vol.: 95
Chanel 5 Note Off - Duracao: 176400 Nota: C1 Vol.: 65
Chanel 5 Note On - Duracao: 176400 Nota: C1 Vol.: 66
Chanel 4 Note Off - Duracao: 176460 Nota: C1 Vol.: 95
Chanel 4 Note On - Duracao: 176460 Nota: C1 Vol.: 89
Chanel 4 Note Off - Duracao: 176580 Nota: C1 Vol.: 89
Chanel 4 Note On - Duracao: 176580 Nota: C1 Vol.: 42
Chanel 1 Note Off - Duracao: 176700 Nota: C1 Vol.: 46
Chanel 1 Note On - Duracao: 176700 Nota: C1 Vol.: 60
Chanel 10 Note Off - Duracao: 176760 Nota: C1 Vol.: 62
Chanel 10 Note On - Duracao: 176760 Nota: C1 Vol.: 60
Chanel 2 Note Off - Duracao: 176820 Nota: C1 Vol.: 44
Chanel 2 Note On - Duracao: 176820 Nota: C1 Vol.: 44
Chanel 5 Note Off - Duracao: 176880 Nota: C1 Vol.: 66
Chanel 5 Note On - Duracao: 176880 Nota: C1 Vol.: 60
Chanel 9 Note Off - Duracao: 176880 Nota: C1 Vol.: 51
Chanel 9 Note On - Duracao: 176880 Nota: C1 Vol.: 50
Chanel 8 Note Off - Duracao: 177120 Nota: C1 Vol.: 42
Chanel 8 Note On - Duracao: 177120 Nota: C1 Vol.: 46
Chanel 3 Note Off - Duracao: 177240 Nota: C1 Vol.: 50
Chanel 3 Note On - Duracao: 177240 Nota: C1 Vol.: 57
Chanel 2 Note Off - Duracao: 177300 Nota: C1 Vol.: 44
Chanel 2 Note On - Duracao: 177300 Nota: C1 Vol.: 58
Chanel 5 Note Off - Duracao: 177360 Nota: C1 Vol.: 60
Chanel 5 Note On - Duracao: 177360 Nota: C1 Vol.: 59
Chanel 2 Note Off - Duracao: 177540 Nota: C1 Vol.: 58
Chanel 2 Note On - Duracao: 177540 Nota: C1 Vol.: 59
Chanel 1 Note Off - Duracao: 177660 Nota: C1 Vol.: 60
Chanel 1 Note On - Duracao: 177660 Nota: C1 Vol.: 94
Chanel 2 Note Off - Duracao: 177660 Nota: C1 Vol.: 59
Chanel 2 Note On - Duracao: 177660 Nota: C1 Vol.: 57
Chanel 1 Note Off - Duracao: 177720 Nota: C1 Vol.: 94
Chanel 1 Note On - Duracao: 177720 Nota: C1 Vol.: 94
Chanel 3 Note Off - Duracao: 177720 Nota: C1 Vol.: 57
Chanel 3 Note On - Duracao: 177720 Nota: C1 Vol.: 56
Chanel 10 Note Off - Duracao: 177720 Nota: C1 Vol.: 60
Chanel 10 Note On - Duracao: 177720 Nota: C1 Vol.: 64
Chanel 1 Note Off - Duracao: 177780 Nota: C1 Vol.: 94
Chanel 1 Note On - Duracao: 177780 Nota: C1 Vol.: 91
Chanel 2 Note Off - Duracao: 177780 Nota: C1 Vol.: 57
Chanel 2 Note On - Duracao: 177780 Nota: C1 Vol.: 55
Chanel 5 Note Off - Duracao: 177840 Nota: C1 Vol.: 59
Chanel 5 Note On - Duracao: 177840 Nota: C1 Vol.: 51
Chanel 9 Note Off - Duracao: 177840 Nota: C1 Vol.: 50
Chanel 9 Note On - Duracao: 177840 Nota: C1 Vol.: 58
Chanel 1 Note Off - Duracao: 177900 Nota: C1 Vol.: 91
Chanel 1 Note On - Duracao: 177900 Nota: C1 Vol.: 55
Chanel 6 Note Off - Duracao: 177900 Nota: C1 Vol.: 50
Chanel 6 Note On - Duracao: 177900 Nota: C1 Vol.: 46
Chanel 2 Note Off - Duracao: 178020 Nota: C1 Vol.: 55
Chanel 2 Note On - Duracao: 178020 Nota: C1 Vol.: 50
Chanel 3 Note Off - Duracao: 178200 Nota: C1 Vol.: 56
Chanel 3 Note On - Duracao: 178200 Nota: C1 Vol.: 56
Chanel 10 Note Off - Duracao: 178200 Nota: C1 Vol.: 64
Chanel 10 Note On - Duracao: 178200 Nota: C1 Vol.: 61
Chanel 2 Note Off - Duracao: 178260 Nota: C1 Vol.: 50
Chanel 2 Note On - Duracao: 178260 Nota: C1 Vol.: 49
Chanel 9 Note Off - Duracao: 178320 Nota: C1 Vol.: 58
Chanel 9 Note On - Duracao: 178320 Nota: C1 Vol.: 59
Chanel 4 Note Off - Duracao: 178500 Nota: C1 Vol.: 42
Chanel 4 Note On - Duracao: 178500 Nota: C1 Vol.: 62
Chanel 3 Note Off - Duracao: 178680 Nota: C1 Vol.: 56
Chanel 3 Note On - Duracao: 178680 Nota: C1 Vol.: 65
Chanel 2 Note Off - Duracao: 178740 Nota: C1 Vol.: 49
Chanel 2 Note On - Duracao: 178740 Nota: C1 Vol.: 40
Chanel 5 Note Off - Duracao: 178800 Nota: C1 Vol.: 51
Chanel 5 Note On - Duracao: 178800 Nota: C1 Vol.: 54
Chanel 9 Note Off - Duracao: 178800 Nota: C1 Vol.: 59
Chanel 9 Note On - Duracao: 178800 Nota: C1 Vol.: 62
Chanel 1 Note Off - Duracao: 178860 Nota: C1 Vol.: 55
Chanel 1 Note On - Duracao: 178860 Nota: C1 Vol.: 86
Chanel 3 Note Off - Duracao: 178920 Nota: C1 Vol.: 65
Chanel 3 Note On - Duracao: 178920 Nota: C1 Vol.: 55
Chanel 1 Note Off - Duracao: 178980 Nota: C1 Vol.: 86
Chanel 1 Note On - Duracao: 178980 Nota: C1 Vol.: 94
Chanel 4 Note Off - Duracao: 178980 Nota: C1 Vol.: 62
Chanel 4 Note On - Duracao: 178980 Nota: C1 Vol.: 100
Chanel 1 Note Off - Duracao: 179040 Nota: C1 Vol.: 94
Chanel 1 Note On - Duracao: 179040 Nota: C1 Vol.: 90
Chanel 4 Note Off - Duracao: 179040 Nota: C1 Vol.: 100
Chanel 4 Note On - Duracao: 179040 Nota: C1 Vol.: 99
Chanel 8 Note Off - Duracao: 179040 Nota: C1 Vol.: 46
Chanel 8 Note On - Duracao: 179040 Nota: C1 Vol.: 51
Chanel 1 Note Off - Duracao: 179100 Nota: C1 Vol.: 90
Chanel 1 Note On - Duracao: 179100 Nota: C1 Vol.: 81
Chanel 4 Note Off - Duracao: 179100 Nota: C1 Vol.: 99
Chanel 4 Note On - Duracao: 179100 Nota: C1 Vol.: 98
Chanel 4 Note Off - Duracao: 179160 Nota: C1 Vol.: 98
Chanel 4 Note On - Duracao: 179160 Nota: C1 Vol.: 99
Chanel 10 Note Off - Duracao: 179160 Nota: C1 Vol.: 61
Chanel 10 Note On - Duracao: 179160 Nota: C1 Vol.: 69
Chanel 1 Note Off - Duracao: 179220 Nota: C1 Vol.: 81
Chanel 1 Note On - Duracao: 179220 Nota: C1 Vol.: 57
Chanel 4 Note Off - Duracao: 179220 Nota: C1 Vol.: 99
Chanel 4 Note On - Duracao: 179220 Nota: C1 Vol.: 100
Chanel 4 Note Off - Duracao: 179280 Nota: C1 Vol.: 100
Chanel 4 Note On - Duracao: 179280 Nota: C1 Vol.: 100
Chanel 9 Note Off - Duracao: 179280 Nota: C1 Vol.: 62
Chanel 9 Note On - Duracao: 179280 Nota: C1 Vol.: 63
Chanel 4 Note Off - Duracao: 179340 Nota: C1 Vol.: 100
Chanel 4 Note On - Duracao: 179340 Nota: C1 Vol.: 100
Chanel 3 Note Off - Duracao: 179400 Nota: C1 Vol.: 55
Chanel 3 Note On - Duracao: 179400 Nota: C1 Vol.: 57
Chanel 4 Note Off - Duracao: 179400 Nota: C1 Vol.: 100
Chanel 4 Note On - Duracao: 179400 Nota: C1 Vol.: 100
Chanel 4 Note Off - Duracao: 179460 Nota: C1 Vol.: 100
Chanel 4 Note On - Duracao: 179460 Nota: C1 Vol.: 99
Chanel 4 Note Off - Duracao: 179520 Nota: C1 Vol.: 99
Chanel 4 Note On - Duracao: 179520 Nota: C1 Vol.: 97
Chanel 4 Note Off - Duracao: 179580 Nota: C1 Vol.: 97
Chanel 4 Note On - Duracao: 179580 Nota: C1 Vol.: 96
Chanel 4 Note Off - Duracao: 179640 Nota: C1 Vol.: 96
Chanel 4 Note On - Duracao: 179640 Nota: C1 Vol.: 79
Chanel 10 Note Off - Duracao: 179640 Nota: C1 Vol.: 69
Chanel 10 Note On - Duracao: 179640 Nota: C1 Vol.: 65
Chanel 2 Note Off - Duracao: 179700 Nota: C1 Vol.: 40
Chanel 2 Note On - Duracao: 179700 Nota: C1 Vol.: 65
Chanel 5 Note Off - Duracao: 179760 Nota: C1 Vol.: 54
Chanel 5 Note On - Duracao: 179760 Nota: C1 Vol.: 47
Chanel 9 Note Off - Duracao: 179760 Nota: C1 Vol.: 63
Chanel 9 Note On - Duracao: 179760 Nota: C1 Vol.: 71
Chanel 6 Note Off - Duracao: 179820 Nota: C1 Vol.: 46
Chanel 6 Note On - Duracao: 179820 Nota: C1 Vol.: 57
Chanel 3 Note Off - Duracao: 179880 Nota: C1 Vol.: 57
Chanel 3 Note On - Duracao: 179880 Nota: C1 Vol.: 52
Chanel 4 Note Off - Duracao: 179880 Nota: C1 Vol.: 79
Chanel 4 Note On - Duracao: 179880 Nota: C1 Vol.: 65
Chanel 2 Note Off - Duracao: 179940 Nota: C1 Vol.: 65
Chanel 2 Note On - Duracao: 179940 Nota: C1 Vol.: 78
Chanel 7 Note Off - Duracao: 179940 Nota: C1 Vol.: 60
Chanel 7 Note On - Duracao: 179940 Nota: C1 Vol.: 64
Chanel 8 Note Off - Duracao: 180000 Nota: C1 Vol.: 51
Chanel 8 Note On - Duracao: 180000 Nota: C1 Vol.: 53
Chanel 9 Note Off - Duracao: 180000 Nota: C1 Vol.: 71
Chanel 9 Note On - Duracao: 180000 Nota: C1 Vol.: 66
Chanel 2 Note Off - Duracao: 180060 Nota: C1 Vol.: 78
Chanel 2 Note On - Duracao: 180060 Nota: C1 Vol.: 58
Chanel 10 Note Off - Duracao: 180120 Nota: C1 Vol.: 65
Chanel 10 Note On - Duracao: 180120 Nota: C1 Vol.: 62
Chanel 1 Note Off - Duracao: 180180 Nota: C1 Vol.: 57
Chanel 1 Note On - Duracao: 180180 Nota: C1 Vol.: 44
Chanel 2 Note Off - Duracao: 180300 Nota: C1 Vol.: 58
Chanel 2 Note On - Duracao: 180300 Nota: C1 Vol.: 54
Chanel 6 Note Off - Duracao: 180300 Nota: C1 Vol.: 57
Chanel 6 Note On - Duracao: 180300 Nota: C1 Vol.: 59
Chanel 4 Note Off - Duracao: 180360 Nota: C1 Vol.: 65
Chanel 4 Note On - Duracao: 180360 Nota: C1 Vol.: 68
Chanel 2 Note Off - Duracao: 180420 Nota: C1 Vol.: 54
Chanel 2 Note On - Duracao: 180420 Nota: C1 Vol.: 53
Chanel 9 Note Off - Duracao: 180480 Nota: C1 Vol.: 66
Chanel 9 Note On - Duracao: 180480 Nota: C1 Vol.: 68
Chanel 2 Note Off - Duracao: 180540 Nota: C1 Vol.: 53
Chanel 2 Note On - Duracao: 180540 Nota: C1 Vol.: 54
Chanel 6 Note Off - Duracao: 180540 Nota: C1 Vol.: 59
Chanel 6 Note On - Duracao: 180540 Nota: C1 Vol.: 58
Chanel 4 Note Off - Duracao: 180600 Nota: C1 Vol.: 68
Chanel 4 Note On - Duracao: 180600 Nota: C1 Vol.: 67
Chanel 2 Note Off - Duracao: 180660 Nota: C1 Vol.: 54
Chanel 2 Note On - Duracao: 180660 Nota: C1 Vol.: 56
Chanel 6 Note Off - Duracao: 180660 Nota: C1 Vol.: 58
Chanel 6 Note On - Duracao: 180660 Nota: C1 Vol.: 57
Chanel 5 Note Off - Duracao: 180720 Nota: C1 Vol.: 47
Chanel 5 Note On - Duracao: 180720 Nota: C1 Vol.: 53
Chanel 2 Note Off - Duracao: 180780 Nota: C1 Vol.: 56
Chanel 2 Note On - Duracao: 180780 Nota: C1 Vol.: 53
Chanel 6 Note Off - Duracao: 180780 Nota: C1 Vol.: 57
Chanel 6 Note On - Duracao: 180780 Nota: C1 Vol.: 58
Chanel 3 Note Off - Duracao: 180840 Nota: C1 Vol.: 52
Chanel 3 Note On - Duracao: 180840 Nota: C1 Vol.: 60
Chanel 4 Note Off - Duracao: 180840 Nota: C1 Vol.: 67
Chanel 4 Note On - Duracao: 180840 Nota: C1 Vol.: 63
Chanel 2 Note Off - Duracao: 180900 Nota: C1 Vol.: 53
Chanel 2 Note On - Duracao: 180900 Nota: C1 Vol.: 49
Chanel 6 Note Off - Duracao: 180900 Nota: C1 Vol.: 58
Chanel 6 Note On - Duracao: 180900 Nota: C1 Vol.: 53
Chanel 8 Note Off - Duracao: 180960 Nota: C1 Vol.: 53
Chanel 8 Note On - Duracao: 180960 Nota: C1 Vol.: 49
Chanel 9 Note Off - Duracao: 180960 Nota: C1 Vol.: 68
Chanel 9 Note On - Duracao: 180960 Nota: C1 Vol.: 76
Chanel 2 Note Off - Duracao: 181020 Nota: C1 Vol.: 49
Chanel 2 Note On - Duracao: 181020 Nota: C1 Vol.: 45
Chanel 6 Note Off - Duracao: 181020 Nota: C1 Vol.: 53
Chanel 6 Note On - Duracao: 181020 Nota: C1 Vol.: 50
Chanel 4 Note Off - Duracao: 181080 Nota: C1 Vol.: 63
Chanel 4 Note On - Duracao: 181080 Nota: C1 Vol.: 55
Chanel 10 Note Off - Duracao: 181080 Nota: C1 Vol.: 62
Chanel 10 Note On - Duracao: 181080 Nota: C1 Vol.: 62
Chanel 1 Note Off - Duracao: 181140 Nota: C1 Vol.: 44
Chanel 1 Note On - Duracao: 181140 Nota: C1 Vol.: 58
Chanel 2 Note Off - Duracao: 181140 Nota: C1 Vol.: 45
Chanel 2 Note On - Duracao: 181140 Nota: C1 Vol.: 46
Chanel 6 Note Off - Duracao: 181140 Nota: C1 Vol.: 50
Chanel 6 Note On - Duracao: 181140 Nota: C1 Vol.: 50
Chanel 5 Note Off - Duracao: 181200 Nota: C1 Vol.: 53
Chanel 5 Note On - Duracao: 181200 Nota: C1 Vol.: 52
Chanel 9 Note Off - Duracao: 181200 Nota: C1 Vol.: 76
Chanel 9 Note On - Duracao: 181200 Nota: C1 Vol.: 58
Chanel 2 Note Off - Duracao: 181260 Nota: C1 Vol.: 46
Chanel 2 Note On - Duracao: 181260 Nota: C1 Vol.: 40
Chanel 6 Note Off - Duracao: 181260 Nota: C1 Vol.: 50
Chanel 6 Note On - Duracao: 181260 Nota: C1 Vol.: 52
Chanel 3 Note Off - Duracao: 181320 Nota: C1 Vol.: 60
Chanel 3 Note On - Duracao: 181320 Nota: C1 Vol.: 56
Chanel 4 Note Off - Duracao: 181320 Nota: C1 Vol.: 55
Chanel 4 Note On - Duracao: 181320 Nota: C1 Vol.: 60
Chanel 1 Note Off - Duracao: 181380 Nota: C1 Vol.: 58
Chanel 1 Note On - Duracao: 181380 Nota: C1 Vol.: 56
Chanel 2 Note Off - Duracao: 181380 Nota: C1 Vol.: 40
Chanel 2 Note On - Duracao: 181380 Nota: C1 Vol.: 40
Chanel 6 Note Off - Duracao: 181380 Nota: C1 Vol.: 52
Chanel 6 Note On - Duracao: 181380 Nota: C1 Vol.: 49
Chanel 1 Note Off - Duracao: 181500 Nota: C1 Vol.: 56
Chanel 1 Note On - Duracao: 181500 Nota: C1 Vol.: 47
Chanel 2 Note Off - Duracao: 181500 Nota: C1 Vol.: 40
Chanel 2 Note On - Duracao: 181500 Nota: C1 Vol.: 44
Chanel 6 Note Off - Duracao: 181500 Nota: C1 Vol.: 49
Chanel 6 Note On - Duracao: 181500 Nota: C1 Vol.: 48
Chanel 4 Note Off - Duracao: 181560 Nota: C1 Vol.: 60
Chanel 4 Note On - Duracao: 181560 Nota: C1 Vol.: 69
Chanel 10 Note Off - Duracao: 181560 Nota: C1 Vol.: 62
Chanel 10 Note On - Duracao: 181560 Nota: C1 Vol.: 65
Chanel 1 Note Off - Duracao: 181620 Nota: C1 Vol.: 47
Chanel 1 Note On - Duracao: 181620 Nota: C1 Vol.: 42
Chanel 2 Note Off - Duracao: 181620 Nota: C1 Vol.: 44
Chanel 2 Note On - Duracao: 181620 Nota: C1 Vol.: 52
Chanel 6 Note Off - Duracao: 181620 Nota: C1 Vol.: 48
Chanel 6 Note On - Duracao: 181620 Nota: C1 Vol.: 46
Chanel 4 Note Off - Duracao: 181680 Nota: C1 Vol.: 69
Chanel 4 Note On - Duracao: 181680 Nota: C1 Vol.: 79
Chanel 5 Note Off - Duracao: 181680 Nota: C1 Vol.: 52
Chanel 5 Note On - Duracao: 181680 Nota: C1 Vol.: 56
Chanel 1 Note Off - Duracao: 181740 Nota: C1 Vol.: 42
Chanel 1 Note On - Duracao: 181740 Nota: C1 Vol.: 46
Chanel 2 Note Off - Duracao: 181740 Nota: C1 Vol.: 52
Chanel 2 Note On - Duracao: 181740 Nota: C1 Vol.: 48
Chanel 6 Note Off - Duracao: 181740 Nota: C1 Vol.: 46
Chanel 6 Note On - Duracao: 181740 Nota: C1 Vol.: 54
Chanel 3 Note Off - Duracao: 181800 Nota: C1 Vol.: 56
Chanel 3 Note On - Duracao: 181800 Nota: C1 Vol.: 58
Chanel 4 Note Off - Duracao: 181800 Nota: C1 Vol.: 79
Chanel 4 Note On - Duracao: 181800 Nota: C1 Vol.: 93
Chanel 1 Note Off - Duracao: 181860 Nota: C1 Vol.: 46
Chanel 1 Note On - Duracao: 181860 Nota: C1 Vol.: 52
Chanel 4 Note Off - Duracao: 181860 Nota: C1 Vol.: 93
Chanel 4 Note On - Duracao: 181860 Nota: C1 Vol.: 96
Chanel 6 Note Off - Duracao: 181860 Nota: C1 Vol.: 54
Chanel 6 Note On - Duracao: 181860 Nota: C1 Vol.: 64
Chanel 4 Note Off - Duracao: 181920 Nota: C1 Vol.: 96
Chanel 4 Note On - Duracao: 181920 Nota: C1 Vol.: 98
Chanel 8 Note Off - Duracao: 181920 Nota: C1 Vol.: 49
Chanel 8 Note On - Duracao: 181920 Nota: C1 Vol.: 52
Chanel 1 Note Off - Duracao: 181980 Nota: C1 Vol.: 52
Chanel 1 Note On - Duracao: 181980 Nota: C1 Vol.: 57
Chanel 4 Note Off - Duracao: 181980 Nota: C1 Vol.: 98
Chanel 4 Note On - Duracao: 181980 Nota: C1 Vol.: 96
Chanel 6 Note Off - Duracao: 181980 Nota: C1 Vol.: 64
Chanel 6 Note On - Duracao: 181980 Nota: C1 Vol.: 45
Chanel 10 Note Off - Duracao: 182040 Nota: C1 Vol.: 65
Chanel 10 Note On - Duracao: 182040 Nota: C1 Vol.: 72
Chanel 1 Note Off - Duracao: 182100 Nota: C1 Vol.: 57
Chanel 1 Note On - Duracao: 182100 Nota: C1 Vol.: 40
Chanel 4 Note Off - Duracao: 182100 Nota: C1 Vol.: 96
Chanel 4 Note On - Duracao: 182100 Nota: C1 Vol.: 81
Chanel 5 Note Off - Duracao: 182160 Nota: C1 Vol.: 56
Chanel 5 Note On - Duracao: 182160 Nota: C1 Vol.: 51
Chanel 9 Note Off - Duracao: 182160 Nota: C1 Vol.: 58
Chanel 9 Note On - Duracao: 182160 Nota: C1 Vol.: 63
Chanel 2 Note Off - Duracao: 182220 Nota: C1 Vol.: 48
Chanel 2 Note On - Duracao: 182220 Nota: C1 Vol.: 40
Chanel 4 Note Off - Duracao: 182220 Nota: C1 Vol.: 81
Chanel 4 Note On - Duracao: 182220 Nota: C1 Vol.: 56
Chanel 3 Note Off - Duracao: 182280 Nota: C1 Vol.: 58
Chanel 3 Note On - Duracao: 182280 Nota: C1 Vol.: 53
Chanel 10 Note Off - Duracao: 182280 Nota: C1 Vol.: 72
Chanel 10 Note On - Duracao: 182280 Nota: C1 Vol.: 60
Chanel 9 Note Off - Duracao: 182640 Nota: C1 Vol.: 63
Chanel 9 Note On - Duracao: 182640 Nota: C1 Vol.: 63
Chanel 8 Note Off - Duracao: 182880 Nota: C1 Vol.: 52
Chanel 8 Note On - Duracao: 182880 Nota: C1 Vol.: 53
Chanel 1 Note Off - Duracao: 183060 Nota: C1 Vol.: 40
Chanel 1 Note On - Duracao: 183060 Nota: C1 Vol.: 58
Chanel 5 Note Off - Duracao: 183120 Nota: C1 Vol.: 51
Chanel 5 Note On - Duracao: 183120 Nota: C1 Vol.: 53
Chanel 9 Note Off - Duracao: 183120 Nota: C1 Vol.: 63
Chanel 9 Note On - Duracao: 183120 Nota: C1 Vol.: 49
Chanel 2 Note Off - Duracao: 183180 Nota: C1 Vol.: 40
Chanel 2 Note On - Duracao: 183180 Nota: C1 Vol.: 70
Chanel 4 Note Off - Duracao: 183180 Nota: C1 Vol.: 56
Chanel 4 Note On - Duracao: 183180 Nota: C1 Vol.: 48
Chanel 3 Note Off - Duracao: 183240 Nota: C1 Vol.: 53
Chanel 3 Note On - Duracao: 183240 Nota: C1 Vol.: 61
Chanel 10 Note Off - Duracao: 183240 Nota: C1 Vol.: 60
Chanel 10 Note On - Duracao: 183240 Nota: C1 Vol.: 60
Chanel 2 Note Off - Duracao: 183420 Nota: C1 Vol.: 70
Chanel 2 Note On - Duracao: 183420 Nota: C1 Vol.: 68
Chanel 1 Note Off - Duracao: 183540 Nota: C1 Vol.: 58
Chanel 1 Note On - Duracao: 183540 Nota: C1 Vol.: 83
Chanel 5 Note Off - Duracao: 183600 Nota: C1 Vol.: 53
Chanel 5 Note On - Duracao: 183600 Nota: C1 Vol.: 53
Chanel 1 Note Off - Duracao: 183660 Nota: C1 Vol.: 83
Chanel 1 Note On - Duracao: 183660 Nota: C1 Vol.: 86
Chanel 2 Note Off - Duracao: 183660 Nota: C1 Vol.: 68
Chanel 2 Note On - Duracao: 183660 Nota: C1 Vol.: 57
Chanel 3 Note Off - Duracao: 183720 Nota: C1 Vol.: 61
Chanel 3 Note On - Duracao: 183720 Nota: C1 Vol.: 66
Chanel 10 Note Off - Duracao: 183720 Nota: C1 Vol.: 60
Chanel 10 Note On - Duracao: 183720 Nota: C1 Vol.: 69
Chanel 1 Note Off - Duracao: 183780 Nota: C1 Vol.: 86
Chanel 1 Note On - Duracao: 183780 Nota: C1 Vol.: 81
Chanel 7 Note Off - Duracao: 183780 Nota: C1 Vol.: 64
Chanel 7 Note On - Duracao: 183780 Nota: C1 Vol.: 64
Chanel 8 Note Off - Duracao: 183840 Nota: C1 Vol.: 53
Chanel 8 Note On - Duracao: 183840 Nota: C1 Vol.: 53
Chanel 6 Note Off - Duracao: 183900 Nota: C1 Vol.: 45
Chanel 6 Note On - Duracao: 183900 Nota: C1 Vol.: 60
Chanel 3 Note Off - Duracao: 183960 Nota: C1 Vol.: 66
Chanel 3 Note On - Duracao: 183960 Nota: C1 Vol.: 62
Chanel 10 Note Off - Duracao: 183960 Nota: C1 Vol.: 69
Chanel 10 Note On - Duracao: 183960 Nota: C1 Vol.: 65
Chanel 1 Note Off - Duracao: 184020 Nota: C1 Vol.: 81
Chanel 1 Note On - Duracao: 184020 Nota: C1 Vol.: 76
Chanel 5 Note Off - Duracao: 184080 Nota: C1 Vol.: 53
Chanel 5 Note On - Duracao: 184080 Nota: C1 Vol.: 56
Chanel 9 Note Off - Duracao: 184080 Nota: C1 Vol.: 49
Chanel 9 Note On - Duracao: 184080 Nota: C1 Vol.: 54
Chanel 2 Note Off - Duracao: 184140 Nota: C1 Vol.: 57
Chanel 2 Note On - Duracao: 184140 Nota: C1 Vol.: 67
Chanel 4 Note Off - Duracao: 184140 Nota: C1 Vol.: 48
Chanel 4 Note On - Duracao: 184140 Nota: C1 Vol.: 43
Chanel 1 Note Off - Duracao: 184260 Nota: C1 Vol.: 76
Chanel 1 Note On - Duracao: 184260 Nota: C1 Vol.: 86
Chanel 1 Note Off - Duracao: 184380 Nota: C1 Vol.: 86
Chanel 1 Note On - Duracao: 184380 Nota: C1 Vol.: 91
Chanel 3 Note Off - Duracao: 184440 Nota: C1 Vol.: 62
Chanel 3 Note On - Duracao: 184440 Nota: C1 Vol.: 74
Chanel 10 Note Off - Duracao: 184440 Nota: C1 Vol.: 65
Chanel 10 Note On - Duracao: 184440 Nota: C1 Vol.: 62
Chanel 1 Note Off - Duracao: 184500 Nota: C1 Vol.: 91
Chanel 1 Note On - Duracao: 184500 Nota: C1 Vol.: 75
Chanel 3 Note Off - Duracao: 184560 Nota: C1 Vol.: 74
Chanel 3 Note On - Duracao: 184560 Nota: C1 Vol.: 67
Chanel 5 Note Off - Duracao: 184560 Nota: C1 Vol.: 56
Chanel 5 Note On - Duracao: 184560 Nota: C1 Vol.: 55
Chanel 9 Note Off - Duracao: 184560 Nota: C1 Vol.: 54
Chanel 9 Note On - Duracao: 184560 Nota: C1 Vol.: 64
Chanel 2 Note Off - Duracao: 184620 Nota: C1 Vol.: 67
Chanel 2 Note On - Duracao: 184620 Nota: C1 Vol.: 67
Chanel 9 Note Off - Duracao: 184680 Nota: C1 Vol.: 64
Chanel 9 Note On - Duracao: 184680 Nota: C1 Vol.: 54
Chanel 3 Note Off - Duracao: 184800 Nota: C1 Vol.: 67
Chanel 3 Note On - Duracao: 184800 Nota: C1 Vol.: 70
Chanel 8 Note Off - Duracao: 184800 Nota: C1 Vol.: 53
Chanel 8 Note On - Duracao: 184800 Nota: C1 Vol.: 57
Chanel 9 Note Off - Duracao: 184920 Nota: C1 Vol.: 54
Chanel 9 Note On - Duracao: 184920 Nota: C1 Vol.: 49
Chanel 10 Note Off - Duracao: 184920 Nota: C1 Vol.: 62
Chanel 10 Note On - Duracao: 184920 Nota: C1 Vol.: 63
Chanel 1 Note Off - Duracao: 184980 Nota: C1 Vol.: 75
Chanel 1 Note On - Duracao: 184980 Nota: C1 Vol.: 75
Chanel 3 Note Off - Duracao: 185040 Nota: C1 Vol.: 70
Chanel 3 Note On - Duracao: 185040 Nota: C1 Vol.: 70
Chanel 5 Note Off - Duracao: 185040 Nota: C1 Vol.: 55
Chanel 5 Note On - Duracao: 185040 Nota: C1 Vol.: 54
Chanel 2 Note Off - Duracao: 185100 Nota: C1 Vol.: 67
Chanel 2 Note On - Duracao: 185100 Nota: C1 Vol.: 68
Chanel 3 Note Off - Duracao: 185280 Nota: C1 Vol.: 70
Chanel 3 Note On - Duracao: 185280 Nota: C1 Vol.: 62
Chanel 10 Note Off - Duracao: 185400 Nota: C1 Vol.: 63
Chanel 10 Note On - Duracao: 185400 Nota: C1 Vol.: 56
Chanel 1 Note Off - Duracao: 185460 Nota: C1 Vol.: 75
Chanel 1 Note On - Duracao: 185460 Nota: C1 Vol.: 72
Chanel 5 Note Off - Duracao: 185520 Nota: C1 Vol.: 54
Chanel 5 Note On - Duracao: 185520 Nota: C1 Vol.: 49
Chanel 2 Note Off - Duracao: 185580 Nota: C1 Vol.: 68
Chanel 2 Note On - Duracao: 185580 Nota: C1 Vol.: 69
Chanel 3 Note Off - Duracao: 185760 Nota: C1 Vol.: 62
Chanel 3 Note On - Duracao: 185760 Nota: C1 Vol.: 54
Chanel 8 Note Off - Duracao: 185760 Nota: C1 Vol.: 57
Chanel 8 Note On - Duracao: 185760 Nota: C1 Vol.: 63
Chanel 6 Note Off - Duracao: 185820 Nota: C1 Vol.: 60
Chanel 6 Note On - Duracao: 185820 Nota: C1 Vol.: 67
Chanel 9 Note Off - Duracao: 185880 Nota: C1 Vol.: 49
Chanel 9 Note On - Duracao: 185880 Nota: C1 Vol.: 56
Chanel 1 Note Off - Duracao: 185940 Nota: C1 Vol.: 72
Chanel 1 Note On - Duracao: 185940 Nota: C1 Vol.: 75
Chanel 2 Note Off - Duracao: 186060 Nota: C1 Vol.: 69
Chanel 2 Note On - Duracao: 186060 Nota: C1 Vol.: 68
Chanel 4 Note Off - Duracao: 186060 Nota: C1 Vol.: 43
Chanel 4 Note On - Duracao: 186060 Nota: C1 Vol.: 40
Chanel 1 Note Off - Duracao: 186180 Nota: C1 Vol.: 75
Chanel 1 Note On - Duracao: 186180 Nota: C1 Vol.: 72
Chanel 3 Note Off - Duracao: 186240 Nota: C1 Vol.: 54
Chanel 3 Note On - Duracao: 186240 Nota: C1 Vol.: 60
Chanel 8 Note Off - Duracao: 186240 Nota: C1 Vol.: 63
Chanel 8 Note On - Duracao: 186240 Nota: C1 Vol.: 63
Chanel 9 Note Off - Duracao: 186360 Nota: C1 Vol.: 56
Chanel 9 Note On - Duracao: 186360 Nota: C1 Vol.: 49
Chanel 10 Note Off - Duracao: 186360 Nota: C1 Vol.: 56
Chanel 10 Note On - Duracao: 186360 Nota: C1 Vol.: 48
Chanel 5 Note Off - Duracao: 186480 Nota: C1 Vol.: 49
Chanel 5 Note On - Duracao: 186480 Nota: C1 Vol.: 46
Chanel 1 Note Off - Duracao: 186660 Nota: C1 Vol.: 72
Chanel 1 Note On - Duracao: 186660 Nota: C1 Vol.: 77
Chanel 3 Note Off - Duracao: 186720 Nota: C1 Vol.: 60
Chanel 3 Note On - Duracao: 186720 Nota: C1 Vol.: 45
Chanel 8 Note Off - Duracao: 186720 Nota: C1 Vol.: 63
Chanel 8 Note On - Duracao: 186720 Nota: C1 Vol.: 70
Chanel 6 Note Off - Duracao: 186780 Nota: C1 Vol.: 67
Chanel 6 Note On - Duracao: 186780 Nota: C1 Vol.: 100
Chanel 6 Note Off - Duracao: 186840 Nota: C1 Vol.: 100
Chanel 6 Note On - Duracao: 186840 Nota: C1 Vol.: 96
Chanel 1 Note Off - Duracao: 186900 Nota: C1 Vol.: 77
Chanel 1 Note On - Duracao: 186900 Nota: C1 Vol.: 81
Chanel 6 Note Off - Duracao: 186900 Nota: C1 Vol.: 96
Chanel 6 Note On - Duracao: 186900 Nota: C1 Vol.: 97
Chanel 6 Note Off - Duracao: 186960 Nota: C1 Vol.: 97
Chanel 6 Note On - Duracao: 186960 Nota: C1 Vol.: 58
Chanel 1 Note Off - Duracao: 187020 Nota: C1 Vol.: 81
Chanel 1 Note On - Duracao: 187020 Nota: C1 Vol.: 58
Chanel 2 Note Off - Duracao: 187020 Nota: C1 Vol.: 68
Chanel 2 Note On - Duracao: 187020 Nota: C1 Vol.: 74
Chanel 8 Note Off - Duracao: 187200 Nota: C1 Vol.: 70
Chanel 8 Note On - Duracao: 187200 Nota: C1 Vol.: 70
Chanel 9 Note Off - Duracao: 187320 Nota: C1 Vol.: 49
Chanel 9 Note On - Duracao: 187320 Nota: C1 Vol.: 54
Chanel 5 Note Off - Duracao: 187440 Nota: C1 Vol.: 46
Chanel 5 Note On - Duracao: 187440 Nota: C1 Vol.: 51
Chanel 1 Note Off - Duracao: 187500 Nota: C1 Vol.: 58
Chanel 1 Note On - Duracao: 187500 Nota: C1 Vol.: 54
Chanel 2 Note Off - Duracao: 187500 Nota: C1 Vol.: 74
Chanel 2 Note On - Duracao: 187500 Nota: C1 Vol.: 70
Chanel 7 Note Off - Duracao: 187620 Nota: C1 Vol.: 64
Chanel 7 Note On - Duracao: 187620 Nota: C1 Vol.: 62
Chanel 3 Note Off - Duracao: 187680 Nota: C1 Vol.: 45
Chanel 3 Note On - Duracao: 187680 Nota: C1 Vol.: 64
Chanel 8 Note Off - Duracao: 187680 Nota: C1 Vol.: 70
Chanel 8 Note On - Duracao: 187680 Nota: C1 Vol.: 66
Chanel 9 Note Off - Duracao: 187800 Nota: C1 Vol.: 54
Chanel 9 Note On - Duracao: 187800 Nota: C1 Vol.: 60
Chanel 6 Note Off - Duracao: 187920 Nota: C1 Vol.: 58
Chanel 6 Note On - Duracao: 187920 Nota: C1 Vol.: 45
Chanel 1 Note Off - Duracao: 187980 Nota: C1 Vol.: 54
Chanel 1 Note On - Duracao: 187980 Nota: C1 Vol.: 58
Chanel 4 Note Off - Duracao: 187980 Nota: C1 Vol.: 40
Chanel 4 Note On - Duracao: 187980 Nota: C1 Vol.: 40
Chanel 9 Note Off - Duracao: 188040 Nota: C1 Vol.: 60
Chanel 9 Note On - Duracao: 188040 Nota: C1 Vol.: 69
Chanel 3 Note Off - Duracao: 188160 Nota: C1 Vol.: 64
Chanel 3 Note On - Duracao: 188160 Nota: C1 Vol.: 60
Chanel 8 Note Off - Duracao: 188160 Nota: C1 Vol.: 66
Chanel 8 Note On - Duracao: 188160 Nota: C1 Vol.: 51
Chanel 9 Note Off - Duracao: 188160 Nota: C1 Vol.: 69
Chanel 9 Note On - Duracao: 188160 Nota: C1 Vol.: 63
Chanel 10 Note Off - Duracao: 188280 Nota: C1 Vol.: 48
Chanel 10 Note On - Duracao: 188280 Nota: C1 Vol.: 55
Chanel 5 Note Off - Duracao: 188400 Nota: C1 Vol.: 51
Chanel 5 Note On - Duracao: 188400 Nota: C1 Vol.: 54
Chanel 9 Note Off - Duracao: 188400 Nota: C1 Vol.: 63
Chanel 9 Note On - Duracao: 188400 Nota: C1 Vol.: 60
Chanel 1 Note Off - Duracao: 188460 Nota: C1 Vol.: 58
Chanel 1 Note On - Duracao: 188460 Nota: C1 Vol.: 76
Chanel 2 Note Off - Duracao: 188460 Nota: C1 Vol.: 70
Chanel 2 Note On - Duracao: 188460 Nota: C1 Vol.: 61
Chanel 1 Note Off - Duracao: 188580 Nota: C1 Vol.: 76
Chanel 1 Note On - Duracao: 188580 Nota: C1 Vol.: 78
Chanel 3 Note Off - Duracao: 188640 Nota: C1 Vol.: 60
Chanel 3 Note On - Duracao: 188640 Nota: C1 Vol.: 42
Chanel 1 Note Off - Duracao: 188700 Nota: C1 Vol.: 78
Chanel 1 Note On - Duracao: 188700 Nota: C1 Vol.: 67
Chanel 9 Note Off - Duracao: 188880 Nota: C1 Vol.: 60
Chanel 9 Note On - Duracao: 188880 Nota: C1 Vol.: 64
Chanel 1 Note Off - Duracao: 188940 Nota: C1 Vol.: 67
Chanel 1 Note On - Duracao: 188940 Nota: C1 Vol.: 97
Chanel 1 Note Off - Duracao: 189000 Nota: C1 Vol.: 97
Chanel 1 Note On - Duracao: 189000 Nota: C1 Vol.: 96
Chanel 1 Note Off - Duracao: 189120 Nota: C1 Vol.: 96
Chanel 1 Note On - Duracao: 189120 Nota: C1 Vol.: 91
Chanel 8 Note Off - Duracao: 189120 Nota: C1 Vol.: 51
Chanel 8 Note On - Duracao: 189120 Nota: C1 Vol.: 50
Chanel 1 Note Off - Duracao: 189240 Nota: C1 Vol.: 91
Chanel 1 Note On - Duracao: 189240 Nota: C1 Vol.: 86
Chanel 10 Note Off - Duracao: 189240 Nota: C1 Vol.: 55
Chanel 10 Note On - Duracao: 189240 Nota: C1 Vol.: 55
Chanel 5 Note Off - Duracao: 189360 Nota: C1 Vol.: 54
Chanel 5 Note On - Duracao: 189360 Nota: C1 Vol.: 52
Chanel 9 Note Off - Duracao: 189360 Nota: C1 Vol.: 64
Chanel 9 Note On - Duracao: 189360 Nota: C1 Vol.: 61
Chanel 2 Note Off - Duracao: 189420 Nota: C1 Vol.: 61
Chanel 2 Note On - Duracao: 189420 Nota: C1 Vol.: 74
Chanel 1 Note Off - Duracao: 189480 Nota: C1 Vol.: 86
Chanel 1 Note On - Duracao: 189480 Nota: C1 Vol.: 90
Chanel 1 Note Off - Duracao: 189600 Nota: C1 Vol.: 90
Chanel 1 Note On - Duracao: 189600 Nota: C1 Vol.: 87
Chanel 2 Note Off - Duracao: 189660 Nota: C1 Vol.: 74
Chanel 2 Note On - Duracao: 189660 Nota: C1 Vol.: 76
Chanel 1 Note Off - Duracao: 189720 Nota: C1 Vol.: 87
Chanel 1 Note On - Duracao: 189720 Nota: C1 Vol.: 95
Chanel 1 Note Off - Duracao: 189840 Nota: C1 Vol.: 95
Chanel 1 Note On - Duracao: 189840 Nota: C1 Vol.: 95
Chanel 6 Note Off - Duracao: 189840 Nota: C1 Vol.: 45
Chanel 6 Note On - Duracao: 189840 Nota: C1 Vol.: 83
Chanel 9 Note Off - Duracao: 189840 Nota: C1 Vol.: 61
Chanel 9 Note On - Duracao: 189840 Nota: C1 Vol.: 65
Chanel 2 Note Off - Duracao: 189900 Nota: C1 Vol.: 76
Chanel 2 Note On - Duracao: 189900 Nota: C1 Vol.: 70
Chanel 4 Note Off - Duracao: 189900 Nota: C1 Vol.: 40
Chanel 4 Note On - Duracao: 189900 Nota: C1 Vol.: 60
Chanel 1 Note Off - Duracao: 189960 Nota: C1 Vol.: 95
Chanel 1 Note On - Duracao: 189960 Nota: C1 Vol.: 86
Chanel 6 Note Off - Duracao: 190080 Nota: C1 Vol.: 83
Chanel 6 Note On - Duracao: 190080 Nota: C1 Vol.: 86
Chanel 8 Note Off - Duracao: 190080 Nota: C1 Vol.: 50
Chanel 8 Note On - Duracao: 190080 Nota: C1 Vol.: 52
Chanel 2 Note Off - Duracao: 190140 Nota: C1 Vol.: 70
Chanel 2 Note On - Duracao: 190140 Nota: C1 Vol.: 83
Chanel 1 Note Off - Duracao: 190200 Nota: C1 Vol.: 86
Chanel 1 Note On - Duracao: 190200 Nota: C1 Vol.: 77
Chanel 6 Note Off - Duracao: 190200 Nota: C1 Vol.: 86
Chanel 6 Note On - Duracao: 190200 Nota: C1 Vol.: 89
Chanel 10 Note Off - Duracao: 190200 Nota: C1 Vol.: 55
Chanel 10 Note On - Duracao: 190200 Nota: C1 Vol.: 56
Chanel 5 Note Off - Duracao: 190320 Nota: C1 Vol.: 52
Chanel 5 Note On - Duracao: 190320 Nota: C1 Vol.: 49
Chanel 6 Note Off - Duracao: 190320 Nota: C1 Vol.: 89
Chanel 6 Note On - Duracao: 190320 Nota: C1 Vol.: 86
Chanel 9 Note Off - Duracao: 190320 Nota: C1 Vol.: 65
Chanel 9 Note On - Duracao: 190320 Nota: C1 Vol.: 56
Chanel 2 Note Off - Duracao: 190380 Nota: C1 Vol.: 83
Chanel 2 Note On - Duracao: 190380 Nota: C1 Vol.: 87
Chanel 4 Note Off - Duracao: 190380 Nota: C1 Vol.: 60
Chanel 4 Note On - Duracao: 190380 Nota: C1 Vol.: 55
Chanel 6 Note Off - Duracao: 190440 Nota: C1 Vol.: 86
Chanel 6 Note On - Duracao: 190440 Nota: C1 Vol.: 87
Chanel 3 Note Off - Duracao: 190560 Nota: C1 Vol.: 42
Chanel 3 Note On - Duracao: 190560 Nota: C1 Vol.: 45
Chanel 6 Note Off - Duracao: 190560 Nota: C1 Vol.: 87
Chanel 6 Note On - Duracao: 190560 Nota: C1 Vol.: 89
Chanel 2 Note Off - Duracao: 190620 Nota: C1 Vol.: 87
Chanel 2 Note On - Duracao: 190620 Nota: C1 Vol.: 86
Chanel 1 Note Off - Duracao: 190680 Nota: C1 Vol.: 77
Chanel 1 Note On - Duracao: 190680 Nota: C1 Vol.: 88
Chanel 6 Note Off - Duracao: 190680 Nota: C1 Vol.: 89
Chanel 6 Note On - Duracao: 190680 Nota: C1 Vol.: 93
Chanel 10 Note Off - Duracao: 190680 Nota: C1 Vol.: 56
Chanel 10 Note On - Duracao: 190680 Nota: C1 Vol.: 60
Chanel 6 Note Off - Duracao: 190800 Nota: C1 Vol.: 93
Chanel 6 Note On - Duracao: 190800 Nota: C1 Vol.: 94
Chanel 2 Note Off - Duracao: 190860 Nota: C1 Vol.: 86
Chanel 2 Note On - Duracao: 190860 Nota: C1 Vol.: 76
Chanel 4 Note Off - Duracao: 190860 Nota: C1 Vol.: 55
Chanel 4 Note On - Duracao: 190860 Nota: C1 Vol.: 55
Chanel 1 Note Off - Duracao: 190920 Nota: C1 Vol.: 88
Chanel 1 Note On - Duracao: 190920 Nota: C1 Vol.: 97
Chanel 6 Note Off - Duracao: 190920 Nota: C1 Vol.: 94
Chanel 6 Note On - Duracao: 190920 Nota: C1 Vol.: 98
Chanel 6 Note Off - Duracao: 190980 Nota: C1 Vol.: 98
Chanel 6 Note On - Duracao: 190980 Nota: C1 Vol.: 100
Chanel 1 Note Off - Duracao: 191040 Nota: C1 Vol.: 97
Chanel 1 Note On - Duracao: 191040 Nota: C1 Vol.: 80
Chanel 6 Note Off - Duracao: 191040 Nota: C1 Vol.: 100
Chanel 6 Note On - Duracao: 191040 Nota: C1 Vol.: 100
Chanel 8 Note Off - Duracao: 191040 Nota: C1 Vol.: 52
Chanel 8 Note On - Duracao: 191040 Nota: C1 Vol.: 54
Chanel 6 Note Off - Duracao: 191100 Nota: C1 Vol.: 100
Chanel 6 Note On - Duracao: 191100 Nota: C1 Vol.: 99
Chanel 6 Note Off - Duracao: 191160 Nota: C1 Vol.: 99
Chanel 6 Note On - Duracao: 191160 Nota: C1 Vol.: 99
Chanel 10 Note Off - Duracao: 191160 Nota: C1 Vol.: 60
Chanel 10 Note On - Duracao: 191160 Nota: C1 Vol.: 58
Chanel 6 Note Off - Duracao: 191220 Nota: C1 Vol.: 99
Chanel 6 Note On - Duracao: 191220 Nota: C1 Vol.: 99
Chanel 1 Note Off - Duracao: 191280 Nota: C1 Vol.: 80
Chanel 1 Note On - Duracao: 191280 Nota: C1 Vol.: 80
Chanel 5 Note Off - Duracao: 191280 Nota: C1 Vol.: 49
Chanel 5 Note On - Duracao: 191280 Nota: C1 Vol.: 41
Chanel 6 Note Off - Duracao: 191280 Nota: C1 Vol.: 99
Chanel 6 Note On - Duracao: 191280 Nota: C1 Vol.: 99
Chanel 9 Note Off - Duracao: 191280 Nota: C1 Vol.: 56
Chanel 9 Note On - Duracao: 191280 Nota: C1 Vol.: 61
Chanel 2 Note Off - Duracao: 191340 Nota: C1 Vol.: 76
Chanel 2 Note On - Duracao: 191340 Nota: C1 Vol.: 79
Chanel 4 Note Off - Duracao: 191340 Nota: C1 Vol.: 55
Chanel 4 Note On - Duracao: 191340 Nota: C1 Vol.: 52
Chanel 6 Note Off - Duracao: 191340 Nota: C1 Vol.: 99
Chanel 6 Note On - Duracao: 191340 Nota: C1 Vol.: 100
Chanel 6 Note Off - Duracao: 191400 Nota: C1 Vol.: 100
Chanel 6 Note On - Duracao: 191400 Nota: C1 Vol.: 98
Chanel 6 Note Off - Duracao: 191460 Nota: C1 Vol.: 98
Chanel 6 Note On - Duracao: 191460 Nota: C1 Vol.: 90
Chanel 7 Note Off - Duracao: 191460 Nota: C1 Vol.: 62
Chanel 7 Note On - Duracao: 191460 Nota: C1 Vol.: 60
Chanel 1 Note Off - Duracao: 191520 Nota: C1 Vol.: 80
Chanel 1 Note On - Duracao: 191520 Nota: C1 Vol.: 89
Chanel 2 Note Off - Duracao: 191580 Nota: C1 Vol.: 79
Chanel 2 Note On - Duracao: 191580 Nota: C1 Vol.: 80
Chanel 6 Note Off - Duracao: 191580 Nota: C1 Vol.: 90
Chanel 6 Note On - Duracao: 191580 Nota: C1 Vol.: 52
Chanel 1 Note Off - Duracao: 191640 Nota: C1 Vol.: 89
Chanel 1 Note On - Duracao: 191640 Nota: C1 Vol.: 82
Chanel 10 Note Off - Duracao: 191640 Nota: C1 Vol.: 58
Chanel 10 Note On - Duracao: 191640 Nota: C1 Vol.: 57
Chanel 9 Note Off - Duracao: 191760 Nota: C1 Vol.: 61
Chanel 9 Note On - Duracao: 191760 Nota: C1 Vol.: 53
Chanel 2 Note Off - Duracao: 191820 Nota: C1 Vol.: 80
Chanel 2 Note On - Duracao: 191820 Nota: C1 Vol.: 81
Chanel 4 Note Off - Duracao: 191820 Nota: C1 Vol.: 52
Chanel 4 Note On - Duracao: 191820 Nota: C1 Vol.: 44
Chanel 1 Note Off - Duracao: 191880 Nota: C1 Vol.: 82
Chanel 1 Note On - Duracao: 191880 Nota: C1 Vol.: 84
Chanel 8 Note Off - Duracao: 192000 Nota: C1 Vol.: 54
Chanel 8 Note On - Duracao: 192000 Nota: C1 Vol.: 55
Chanel 2 Note Off - Duracao: 192060 Nota: C1 Vol.: 81
Chanel 2 Note On - Duracao: 192060 Nota: C1 Vol.: 82
Chanel 1 Note Off - Duracao: 192120 Nota: C1 Vol.: 84
Chanel 1 Note On - Duracao: 192120 Nota: C1 Vol.: 80
Chanel 10 Note Off - Duracao: 192120 Nota: C1 Vol.: 57
Chanel 10 Note On - Duracao: 192120 Nota: C1 Vol.: 56
Chanel 9 Note Off - Duracao: 192240 Nota: C1 Vol.: 53
Chanel 9 Note On - Duracao: 192240 Nota: C1 Vol.: 45
Chanel 2 Note Off - Duracao: 192300 Nota: C1 Vol.: 82
Chanel 2 Note On - Duracao: 192300 Nota: C1 Vol.: 86
Chanel 1 Note Off - Duracao: 192360 Nota: C1 Vol.: 80
Chanel 1 Note On - Duracao: 192360 Nota: C1 Vol.: 84
Chanel 3 Note Off - Duracao: 192480 Nota: C1 Vol.: 45
Chanel 3 Note On - Duracao: 192480 Nota: C1 Vol.: 68
Chanel 2 Note Off - Duracao: 192540 Nota: C1 Vol.: 86
Chanel 2 Note On - Duracao: 192540 Nota: C1 Vol.: 83
Chanel 1 Note Off - Duracao: 192600 Nota: C1 Vol.: 84
Chanel 1 Note On - Duracao: 192600 Nota: C1 Vol.: 80
Chanel 10 Note Off - Duracao: 192600 Nota: C1 Vol.: 56
Chanel 10 Note On - Duracao: 192600 Nota: C1 Vol.: 56
Chanel 9 Note Off - Duracao: 192720 Nota: C1 Vol.: 45
Chanel 9 Note On - Duracao: 192720 Nota: C1 Vol.: 40
Chanel 2 Note Off - Duracao: 192780 Nota: C1 Vol.: 83
Chanel 2 Note On - Duracao: 192780 Nota: C1 Vol.: 82
Chanel 4 Note Off - Duracao: 192780 Nota: C1 Vol.: 44
Chanel 4 Note On - Duracao: 192780 Nota: C1 Vol.: 52
Chanel 1 Note Off - Duracao: 192840 Nota: C1 Vol.: 80
Chanel 1 Note On - Duracao: 192840 Nota: C1 Vol.: 73
Chanel 3 Note Off - Duracao: 192960 Nota: C1 Vol.: 68
Chanel 3 Note On - Duracao: 192960 Nota: C1 Vol.: 63
Chanel 8 Note Off - Duracao: 192960 Nota: C1 Vol.: 55
Chanel 8 Note On - Duracao: 192960 Nota: C1 Vol.: 55
Chanel 2 Note Off - Duracao: 193020 Nota: C1 Vol.: 82
Chanel 2 Note On - Duracao: 193020 Nota: C1 Vol.: 79
Chanel 5 Note Off - Duracao: 193200 Nota: C1 Vol.: 41
Chanel 5 Note On - Duracao: 193200 Nota: C1 Vol.: 60
Chanel 9 Note Off - Duracao: 193200 Nota: C1 Vol.: 40
Chanel 9 Note On - Duracao: 193200 Nota: C1 Vol.: 51
Chanel 2 Note Off - Duracao: 193260 Nota: C1 Vol.: 79
Chanel 2 Note On - Duracao: 193260 Nota: C1 Vol.: 81
Chanel 1 Note Off - Duracao: 193320 Nota: C1 Vol.: 73
Chanel 1 Note On - Duracao: 193320 Nota: C1 Vol.: 75
Chanel 9 Note Off - Duracao: 193320 Nota: C1 Vol.: 51
Chanel 9 Note On - Duracao: 193320 Nota: C1 Vol.: 47
Chanel 3 Note Off - Duracao: 193440 Nota: C1 Vol.: 63
Chanel 3 Note On - Duracao: 193440 Nota: C1 Vol.: 92
Chanel 9 Note Off - Duracao: 193440 Nota: C1 Vol.: 47
Chanel 9 Note On - Duracao: 193440 Nota: C1 Vol.: 51
Chanel 2 Note Off - Duracao: 193500 Nota: C1 Vol.: 81
Chanel 2 Note On - Duracao: 193500 Nota: C1 Vol.: 84
Chanel 3 Note Off - Duracao: 193500 Nota: C1 Vol.: 92
Chanel 3 Note On - Duracao: 193500 Nota: C1 Vol.: 97
Chanel 6 Note Off - Duracao: 193500 Nota: C1 Vol.: 52
Chanel 6 Note On - Duracao: 193500 Nota: C1 Vol.: 82
Chanel 1 Note Off - Duracao: 193560 Nota: C1 Vol.: 75
Chanel 1 Note On - Duracao: 193560 Nota: C1 Vol.: 81
Chanel 3 Note Off - Duracao: 193560 Nota: C1 Vol.: 97
Chanel 3 Note On - Duracao: 193560 Nota: C1 Vol.: 98
Chanel 9 Note Off - Duracao: 193560 Nota: C1 Vol.: 51
Chanel 9 Note On - Duracao: 193560 Nota: C1 Vol.: 54
Chanel 10 Note Off - Duracao: 193560 Nota: C1 Vol.: 56
Chanel 10 Note On - Duracao: 193560 Nota: C1 Vol.: 58
Chanel 3 Note Off - Duracao: 193620 Nota: C1 Vol.: 98
Chanel 3 Note On - Duracao: 193620 Nota: C1 Vol.: 99
Chanel 1 Note Off - Duracao: 193680 Nota: C1 Vol.: 81
Chanel 1 Note On - Duracao: 193680 Nota: C1 Vol.: 74
Chanel 3 Note Off - Duracao: 193680 Nota: C1 Vol.: 99
Chanel 3 Note On - Duracao: 193680 Nota: C1 Vol.: 90
Chanel 5 Note Off - Duracao: 193680 Nota: C1 Vol.: 60
Chanel 5 Note On - Duracao: 193680 Nota: C1 Vol.: 67
Chanel 9 Note Off - Duracao: 193680 Nota: C1 Vol.: 54
Chanel 9 Note On - Duracao: 193680 Nota: C1 Vol.: 52
Chanel 2 Note Off - Duracao: 193740 Nota: C1 Vol.: 84
Chanel 2 Note On - Duracao: 193740 Nota: C1 Vol.: 83
Chanel 4 Note Off - Duracao: 193740 Nota: C1 Vol.: 52
Chanel 4 Note On - Duracao: 193740 Nota: C1 Vol.: 55
Chanel 6 Note Off - Duracao: 193740 Nota: C1 Vol.: 82
Chanel 6 Note On - Duracao: 193740 Nota: C1 Vol.: 97
Chanel 1 Note Off - Duracao: 193800 Nota: C1 Vol.: 74
Chanel 1 Note On - Duracao: 193800 Nota: C1 Vol.: 63
Chanel 3 Note Off - Duracao: 193800 Nota: C1 Vol.: 90
Chanel 3 Note On - Duracao: 193800 Nota: C1 Vol.: 71
Chanel 6 Note Off - Duracao: 193800 Nota: C1 Vol.: 97
Chanel 6 Note On - Duracao: 193800 Nota: C1 Vol.: 97
Chanel 9 Note Off - Duracao: 193800 Nota: C1 Vol.: 52
Chanel 9 Note On - Duracao: 193800 Nota: C1 Vol.: 54
Chanel 6 Note Off - Duracao: 193860 Nota: C1 Vol.: 97
Chanel 6 Note On - Duracao: 193860 Nota: C1 Vol.: 98
Chanel 5 Note Off - Duracao: 193920 Nota: C1 Vol.: 67
Chanel 5 Note On - Duracao: 193920 Nota: C1 Vol.: 59
Chanel 6 Note Off - Duracao: 193920 Nota: C1 Vol.: 98
Chanel 6 Note On - Duracao: 193920 Nota: C1 Vol.: 99
Chanel 9 Note Off - Duracao: 193920 Nota: C1 Vol.: 54
Chanel 9 Note On - Duracao: 193920 Nota: C1 Vol.: 52
Chanel 2 Note Off - Duracao: 193980 Nota: C1 Vol.: 83
Chanel 2 Note On - Duracao: 193980 Nota: C1 Vol.: 75
Chanel 6 Note Off - Duracao: 193980 Nota: C1 Vol.: 99
Chanel 6 Note On - Duracao: 193980 Nota: C1 Vol.: 97
Chanel 1 Note Off - Duracao: 194040 Nota: C1 Vol.: 63
Chanel 1 Note On - Duracao: 194040 Nota: C1 Vol.: 67
Chanel 6 Note Off - Duracao: 194040 Nota: C1 Vol.: 97
Chanel 6 Note On - Duracao: 194040 Nota: C1 Vol.: 93
Chanel 9 Note Off - Duracao: 194040 Nota: C1 Vol.: 52
Chanel 9 Note On - Duracao: 194040 Nota: C1 Vol.: 51
Chanel 10 Note Off - Duracao: 194040 Nota: C1 Vol.: 58
Chanel 10 Note On - Duracao: 194040 Nota: C1 Vol.: 57
Chanel 6 Note Off - Duracao: 194100 Nota: C1 Vol.: 93
Chanel 6 Note On - Duracao: 194100 Nota: C1 Vol.: 87
Chanel 9 Note Off - Duracao: 194160 Nota: C1 Vol.: 51
Chanel 9 Note On - Duracao: 194160 Nota: C1 Vol.: 48
Chanel 6 Note Off - Duracao: 194220 Nota: C1 Vol.: 87
Chanel 6 Note On - Duracao: 194220 Nota: C1 Vol.: 82
Chanel 1 Note Off - Duracao: 194280 Nota: C1 Vol.: 67
Chanel 1 Note On - Duracao: 194280 Nota: C1 Vol.: 60
Chanel 3 Note Off - Duracao: 194280 Nota: C1 Vol.: 71
Chanel 3 Note On - Duracao: 194280 Nota: C1 Vol.: 40
Chanel 6 Note Off - Duracao: 194340 Nota: C1 Vol.: 82
Chanel 6 Note On - Duracao: 194340 Nota: C1 Vol.: 73
Chanel 5 Note Off - Duracao: 194400 Nota: C1 Vol.: 59
Chanel 5 Note On - Duracao: 194400 Nota: C1 Vol.: 64
Chanel 9 Note Off - Duracao: 194400 Nota: C1 Vol.: 48
Chanel 9 Note On - Duracao: 194400 Nota: C1 Vol.: 52
Chanel 2 Note Off - Duracao: 194460 Nota: C1 Vol.: 75
Chanel 2 Note On - Duracao: 194460 Nota: C1 Vol.: 75
Chanel 1 Note Off - Duracao: 194520 Nota: C1 Vol.: 60
Chanel 1 Note On - Duracao: 194520 Nota: C1 Vol.: 55
Chanel 10 Note Off - Duracao: 194520 Nota: C1 Vol.: 57
Chanel 10 Note On - Duracao: 194520 Nota: C1 Vol.: 57
Chanel 6 Note Off - Duracao: 194580 Nota: C1 Vol.: 73
Chanel 6 Note On - Duracao: 194580 Nota: C1 Vol.: 67
Chanel 9 Note Off - Duracao: 194640 Nota: C1 Vol.: 52
Chanel 9 Note On - Duracao: 194640 Nota: C1 Vol.: 56
Chanel 4 Note Off - Duracao: 194700 Nota: C1 Vol.: 55
Chanel 4 Note On - Duracao: 194700 Nota: C1 Vol.: 65
Chanel 5 Note Off - Duracao: 194880 Nota: C1 Vol.: 64
Chanel 5 Note On - Duracao: 194880 Nota: C1 Vol.: 92
Chanel 8 Note Off - Duracao: 194880 Nota: C1 Vol.: 55
Chanel 8 Note On - Duracao: 194880 Nota: C1 Vol.: 55
Chanel 9 Note Off - Duracao: 194880 Nota: C1 Vol.: 56
Chanel 9 Note On - Duracao: 194880 Nota: C1 Vol.: 44
Chanel 2 Note Off - Duracao: 194940 Nota: C1 Vol.: 75
Chanel 2 Note On - Duracao: 194940 Nota: C1 Vol.: 75
Chanel 1 Note Off - Duracao: 195000 Nota: C1 Vol.: 55
Chanel 1 Note On - Duracao: 195000 Nota: C1 Vol.: 53
Chanel 5 Note Off - Duracao: 195000 Nota: C1 Vol.: 92
Chanel 5 Note On - Duracao: 195000 Nota: C1 Vol.: 91
Chanel 10 Note Off - Duracao: 195000 Nota: C1 Vol.: 57
Chanel 10 Note On - Duracao: 195000 Nota: C1 Vol.: 60
Chanel 6 Note Off - Duracao: 195060 Nota: C1 Vol.: 67
Chanel 6 Note On - Duracao: 195060 Nota: C1 Vol.: 68
Chanel 5 Note Off - Duracao: 195120 Nota: C1 Vol.: 91
Chanel 5 Note On - Duracao: 195120 Nota: C1 Vol.: 87
Chanel 4 Note Off - Duracao: 195180 Nota: C1 Vol.: 65
Chanel 4 Note On - Duracao: 195180 Nota: C1 Vol.: 55
Chanel 5 Note Off - Duracao: 195240 Nota: C1 Vol.: 87
Chanel 5 Note On - Duracao: 195240 Nota: C1 Vol.: 64
Chanel 10 Note Off - Duracao: 195240 Nota: C1 Vol.: 60
Chanel 10 Note On - Duracao: 195240 Nota: C1 Vol.: 64
Chanel 7 Note Off - Duracao: 195300 Nota: C1 Vol.: 60
Chanel 7 Note On - Duracao: 195300 Nota: C1 Vol.: 59
Chanel 9 Note Off - Duracao: 195360 Nota: C1 Vol.: 44
Chanel 9 Note On - Duracao: 195360 Nota: C1 Vol.: 40
Chanel 2 Note Off - Duracao: 195420 Nota: C1 Vol.: 75
Chanel 2 Note On - Duracao: 195420 Nota: C1 Vol.: 75
Chanel 1 Note Off - Duracao: 195480 Nota: C1 Vol.: 53
Chanel 1 Note On - Duracao: 195480 Nota: C1 Vol.: 55
Chanel 10 Note Off - Duracao: 195480 Nota: C1 Vol.: 64
Chanel 10 Note On - Duracao: 195480 Nota: C1 Vol.: 66
Chanel 6 Note Off - Duracao: 195540 Nota: C1 Vol.: 68
Chanel 6 Note On - Duracao: 195540 Nota: C1 Vol.: 71
Chanel 2 Note Off - Duracao: 195660 Nota: C1 Vol.: 75
Chanel 2 Note On - Duracao: 195660 Nota: C1 Vol.: 82
Chanel 10 Note Off - Duracao: 195720 Nota: C1 Vol.: 66
Chanel 10 Note On - Duracao: 195720 Nota: C1 Vol.: 68
Chanel 2 Note Off - Duracao: 195780 Nota: C1 Vol.: 82
Chanel 2 Note On - Duracao: 195780 Nota: C1 Vol.: 82
Chanel 2 Note Off - Duracao: 195900 Nota: C1 Vol.: 82
Chanel 2 Note On - Duracao: 195900 Nota: C1 Vol.: 91
Chanel 1 Note Off - Duracao: 195960 Nota: C1 Vol.: 55
Chanel 1 Note On - Duracao: 195960 Nota: C1 Vol.: 58
Chanel 10 Note Off - Duracao: 195960 Nota: C1 Vol.: 68
Chanel 10 Note On - Duracao: 195960 Nota: C1 Vol.: 78
Chanel 2 Note Off - Duracao: 196020 Nota: C1 Vol.: 91
Chanel 2 Note On - Duracao: 196020 Nota: C1 Vol.: 90
Chanel 6 Note Off - Duracao: 196020 Nota: C1 Vol.: 71
Chanel 6 Note On - Duracao: 196020 Nota: C1 Vol.: 64
Chanel 10 Note Off - Duracao: 196080 Nota: C1 Vol.: 78
Chanel 10 Note On - Duracao: 196080 Nota: C1 Vol.: 78
Chanel 2 Note Off - Duracao: 196140 Nota: C1 Vol.: 90
Chanel 2 Note On - Duracao: 196140 Nota: C1 Vol.: 91
Chanel 4 Note Off - Duracao: 196140 Nota: C1 Vol.: 55
Chanel 4 Note On - Duracao: 196140 Nota: C1 Vol.: 40
Chanel 5 Note Off - Duracao: 196200 Nota: C1 Vol.: 64
Chanel 5 Note On - Duracao: 196200 Nota: C1 Vol.: 50
Chanel 2 Note Off - Duracao: 196260 Nota: C1 Vol.: 91
Chanel 2 Note On - Duracao: 196260 Nota: C1 Vol.: 93
Chanel 2 Note Off - Duracao: 196320 Nota: C1 Vol.: 93
Chanel 2 Note On - Duracao: 196320 Nota: C1 Vol.: 96
Chanel 10 Note Off - Duracao: 196320 Nota: C1 Vol.: 78
Chanel 10 Note On - Duracao: 196320 Nota: C1 Vol.: 76
Chanel 2 Note Off - Duracao: 196380 Nota: C1 Vol.: 96
Chanel 2 Note On - Duracao: 196380 Nota: C1 Vol.: 98
Chanel 1 Note Off - Duracao: 196440 Nota: C1 Vol.: 58
Chanel 1 Note On - Duracao: 196440 Nota: C1 Vol.: 62
Chanel 2 Note Off - Duracao: 196440 Nota: C1 Vol.: 98
Chanel 2 Note On - Duracao: 196440 Nota: C1 Vol.: 95
Chanel 2 Note Off - Duracao: 196500 Nota: C1 Vol.: 95
Chanel 2 Note On - Duracao: 196500 Nota: C1 Vol.: 89
Chanel 6 Note Off - Duracao: 196500 Nota: C1 Vol.: 64
Chanel 6 Note On - Duracao: 196500 Nota: C1 Vol.: 62
Chanel 2 Note Off - Duracao: 196560 Nota: C1 Vol.: 89
Chanel 2 Note On - Duracao: 196560 Nota: C1 Vol.: 83
Chanel 10 Note Off - Duracao: 196560 Nota: C1 Vol.: 76
Chanel 10 Note On - Duracao: 196560 Nota: C1 Vol.: 78
Chanel 1 Note Off - Duracao: 196680 Nota: C1 Vol.: 62
Chanel 1 Note On - Duracao: 196680 Nota: C1 Vol.: 50
Chanel 2 Note Off - Duracao: 196680 Nota: C1 Vol.: 83
Chanel 2 Note On - Duracao: 196680 Nota: C1 Vol.: 66
Chanel 8 Note Off - Duracao: 196800 Nota: C1 Vol.: 55
Chanel 8 Note On - Duracao: 196800 Nota: C1 Vol.: 50
Chanel 10 Note Off - Duracao: 196800 Nota: C1 Vol.: 78
Chanel 10 Note On - Duracao: 196800 Nota: C1 Vol.: 79
Chanel 2 Note Off - Duracao: 196920 Nota: C1 Vol.: 66
Chanel 2 Note On - Duracao: 196920 Nota: C1 Vol.: 68
Chanel 6 Note Off - Duracao: 196980 Nota: C1 Vol.: 62
Chanel 6 Note On - Duracao: 196980 Nota: C1 Vol.: 49
Chanel 10 Note Off - Duracao: 197040 Nota: C1 Vol.: 79
Chanel 10 Note On - Duracao: 197040 Nota: C1 Vol.: 84
Chanel 1 Note Off - Duracao: 197160 Nota: C1 Vol.: 50
Chanel 1 Note On - Duracao: 197160 Nota: C1 Vol.: 53
Chanel 2 Note Off - Duracao: 197160 Nota: C1 Vol.: 68
Chanel 2 Note On - Duracao: 197160 Nota: C1 Vol.: 63
Chanel 10 Note Off - Duracao: 197160 Nota: C1 Vol.: 84
Chanel 10 Note On - Duracao: 197160 Nota: C1 Vol.: 93
Chanel 10 Note Off - Duracao: 197220 Nota: C1 Vol.: 93
Chanel 10 Note On - Duracao: 197220 Nota: C1 Vol.: 89
Chanel 9 Note Off - Duracao: 197280 Nota: C1 Vol.: 40
Chanel 9 Note On - Duracao: 197280 Nota: C1 Vol.: 40
Chanel 10 Note Off - Duracao: 197340 Nota: C1 Vol.: 89
Chanel 10 Note On - Duracao: 197340 Nota: C1 Vol.: 89
Chanel 1 Note Off - Duracao: 197400 Nota: C1 Vol.: 53
Chanel 1 Note On - Duracao: 197400 Nota: C1 Vol.: 54
Chanel 2 Note Off - Duracao: 197400 Nota: C1 Vol.: 63
Chanel 2 Note On - Duracao: 197400 Nota: C1 Vol.: 60
Chanel 10 Note Off - Duracao: 197460 Nota: C1 Vol.: 89
Chanel 10 Note On - Duracao: 197460 Nota: C1 Vol.: 91
Chanel 10 Note Off - Duracao: 197580 Nota: C1 Vol.: 91
Chanel 10 Note On - Duracao: 197580 Nota: C1 Vol.: 92
Chanel 1 Note Off - Duracao: 197640 Nota: C1 Vol.: 54
Chanel 1 Note On - Duracao: 197640 Nota: C1 Vol.: 56
Chanel 2 Note Off - Duracao: 197640 Nota: C1 Vol.: 60
Chanel 2 Note On - Duracao: 197640 Nota: C1 Vol.: 60
Chanel 10 Note Off - Duracao: 197700 Nota: C1 Vol.: 92
Chanel 10 Note On - Duracao: 197700 Nota: C1 Vol.: 85
Chanel 10 Note Off - Duracao: 197820 Nota: C1 Vol.: 85
Chanel 10 Note On - Duracao: 197820 Nota: C1 Vol.: 59
Chanel 1 Note Off - Duracao: 197880 Nota: C1 Vol.: 56
Chanel 1 Note On - Duracao: 197880 Nota: C1 Vol.: 61
Chanel 2 Note Off - Duracao: 197880 Nota: C1 Vol.: 60
Chanel 2 Note On - Duracao: 197880 Nota: C1 Vol.: 61
Chanel 6 Note Off - Duracao: 197940 Nota: C1 Vol.: 49
Chanel 6 Note On - Duracao: 197940 Nota: C1 Vol.: 52
Chanel 1 Note Off - Duracao: 198000 Nota: C1 Vol.: 61
Chanel 1 Note On - Duracao: 198000 Nota: C1 Vol.: 63
Chanel 4 Note Off - Duracao: 198060 Nota: C1 Vol.: 40
Chanel 4 Note On - Duracao: 198060 Nota: C1 Vol.: 42
Chanel 1 Note Off - Duracao: 198120 Nota: C1 Vol.: 63
Chanel 1 Note On - Duracao: 198120 Nota: C1 Vol.: 62
Chanel 2 Note Off - Duracao: 198120 Nota: C1 Vol.: 61
Chanel 2 Note On - Duracao: 198120 Nota: C1 Vol.: 56
Chanel 3 Note Off - Duracao: 198120 Nota: C1 Vol.: 40
Chanel 3 Note On - Duracao: 198120 Nota: C1 Vol.: 73
Chanel 1 Note Off - Duracao: 198240 Nota: C1 Vol.: 62
Chanel 1 Note On - Duracao: 198240 Nota: C1 Vol.: 59
Chanel 9 Note Off - Duracao: 198240 Nota: C1 Vol.: 40
Chanel 9 Note On - Duracao: 198240 Nota: C1 Vol.: 40
Chanel 1 Note Off - Duracao: 198360 Nota: C1 Vol.: 59
Chanel 1 Note On - Duracao: 198360 Nota: C1 Vol.: 60
Chanel 3 Note Off - Duracao: 198360 Nota: C1 Vol.: 73
Chanel 3 Note On - Duracao: 198360 Nota: C1 Vol.: 75
Chanel 6 Note Off - Duracao: 198420 Nota: C1 Vol.: 52
Chanel 6 Note On - Duracao: 198420 Nota: C1 Vol.: 70
Chanel 6 Note Off - Duracao: 198540 Nota: C1 Vol.: 70
Chanel 6 Note On - Duracao: 198540 Nota: C1 Vol.: 48
Chanel 1 Note Off - Duracao: 198600 Nota: C1 Vol.: 60
Chanel 1 Note On - Duracao: 198600 Nota: C1 Vol.: 60
Chanel 2 Note Off - Duracao: 198600 Nota: C1 Vol.: 56
Chanel 2 Note On - Duracao: 198600 Nota: C1 Vol.: 56
Chanel 3 Note Off - Duracao: 198600 Nota: C1 Vol.: 75
Chanel 3 Note On - Duracao: 198600 Nota: C1 Vol.: 74
Chanel 8 Note Off - Duracao: 198720 Nota: C1 Vol.: 50
Chanel 8 Note On - Duracao: 198720 Nota: C1 Vol.: 47
Chanel 10 Note Off - Duracao: 198780 Nota: C1 Vol.: 59
Chanel 10 Note On - Duracao: 198780 Nota: C1 Vol.: 55
Chanel 1 Note Off - Duracao: 198840 Nota: C1 Vol.: 60
Chanel 1 Note On - Duracao: 198840 Nota: C1 Vol.: 60
Chanel 3 Note Off - Duracao: 198840 Nota: C1 Vol.: 74
Chanel 3 Note On - Duracao: 198840 Nota: C1 Vol.: 78
Chanel 3 Note Off - Duracao: 198960 Nota: C1 Vol.: 78
Chanel 3 Note On - Duracao: 198960 Nota: C1 Vol.: 40
Chanel 4 Note Off - Duracao: 199020 Nota: C1 Vol.: 42
Chanel 4 Note On - Duracao: 199020 Nota: C1 Vol.: 61
Chanel 6 Note Off - Duracao: 199020 Nota: C1 Vol.: 48
Chanel 6 Note On - Duracao: 199020 Nota: C1 Vol.: 47
Chanel 1 Note Off - Duracao: 199080 Nota: C1 Vol.: 60
Chanel 1 Note On - Duracao: 199080 Nota: C1 Vol.: 74
Chanel 2 Note Off - Duracao: 199080 Nota: C1 Vol.: 56
Chanel 2 Note On - Duracao: 199080 Nota: C1 Vol.: 56
Chanel 7 Note Off - Duracao: 199140 Nota: C1 Vol.: 59
Chanel 7 Note On - Duracao: 199140 Nota: C1 Vol.: 59
Chanel 1 Note Off - Duracao: 199200 Nota: C1 Vol.: 74
Chanel 1 Note On - Duracao: 199200 Nota: C1 Vol.: 65
Chanel 9 Note Off - Duracao: 199200 Nota: C1 Vol.: 40
Chanel 9 Note On - Duracao: 199200 Nota: C1 Vol.: 48
Chanel 4 Note Off - Duracao: 199260 Nota: C1 Vol.: 61
Chanel 4 Note On - Duracao: 199260 Nota: C1 Vol.: 57
Chanel 1 Note Off - Duracao: 199440 Nota: C1 Vol.: 65
Chanel 1 Note On - Duracao: 199440 Nota: C1 Vol.: 69
Chanel 4 Note Off - Duracao: 199500 Nota: C1 Vol.: 57
Chanel 4 Note On - Duracao: 199500 Nota: C1 Vol.: 56
Chanel 2 Note Off - Duracao: 199560 Nota: C1 Vol.: 56
Chanel 2 Note On - Duracao: 199560 Nota: C1 Vol.: 53
Chanel 1 Note Off - Duracao: 199680 Nota: C1 Vol.: 69
Chanel 1 Note On - Duracao: 199680 Nota: C1 Vol.: 64
Chanel 9 Note Off - Duracao: 199680 Nota: C1 Vol.: 48
Chanel 9 Note On - Duracao: 199680 Nota: C1 Vol.: 49
Chanel 10 Note Off - Duracao: 199740 Nota: C1 Vol.: 55
Chanel 10 Note On - Duracao: 199740 Nota: C1 Vol.: 58
Chanel 1 Note Off - Duracao: 199920 Nota: C1 Vol.: 64
Chanel 1 Note On - Duracao: 199920 Nota: C1 Vol.: 71
Chanel 4 Note Off - Duracao: 199980 Nota: C1 Vol.: 56
Chanel 4 Note On - Duracao: 199980 Nota: C1 Vol.: 63
Chanel 6 Note Off - Duracao: 199980 Nota: C1 Vol.: 47
Chanel 6 Note On - Duracao: 199980 Nota: C1 Vol.: 52
Chanel 2 Note Off - Duracao: 200040 Nota: C1 Vol.: 53
Chanel 2 Note On - Duracao: 200040 Nota: C1 Vol.: 56
Chanel 5 Note Off - Duracao: 200040 Nota: C1 Vol.: 50
Chanel 5 Note On - Duracao: 200040 Nota: C1 Vol.: 52
Chanel 1 Note Off - Duracao: 200160 Nota: C1 Vol.: 71
Chanel 1 Note On - Duracao: 200160 Nota: C1 Vol.: 75
Chanel 9 Note Off - Duracao: 200160 Nota: C1 Vol.: 49
Chanel 9 Note On - Duracao: 200160 Nota: C1 Vol.: 40
Chanel 4 Note Off - Duracao: 200220 Nota: C1 Vol.: 63
Chanel 4 Note On - Duracao: 200220 Nota: C1 Vol.: 61
Chanel 1 Note Off - Duracao: 200280 Nota: C1 Vol.: 75
Chanel 1 Note On - Duracao: 200280 Nota: C1 Vol.: 75
Chanel 1 Note Off - Duracao: 200400 Nota: C1 Vol.: 75
Chanel 1 Note On - Duracao: 200400 Nota: C1 Vol.: 67
Chanel 6 Note Off - Duracao: 200460 Nota: C1 Vol.: 52
Chanel 6 Note On - Duracao: 200460 Nota: C1 Vol.: 49
Chanel 2 Note Off - Duracao: 200520 Nota: C1 Vol.: 56
Chanel 2 Note On - Duracao: 200520 Nota: C1 Vol.: 64
Chanel 1 Note Off - Duracao: 200640 Nota: C1 Vol.: 67
Chanel 1 Note On - Duracao: 200640 Nota: C1 Vol.: 78
Chanel 8 Note Off - Duracao: 200640 Nota: C1 Vol.: 47
Chanel 8 Note On - Duracao: 200640 Nota: C1 Vol.: 49
Chanel 4 Note Off - Duracao: 200700 Nota: C1 Vol.: 61
Chanel 4 Note On - Duracao: 200700 Nota: C1 Vol.: 56
Chanel 10 Note Off - Duracao: 200700 Nota: C1 Vol.: 58
Chanel 10 Note On - Duracao: 200700 Nota: C1 Vol.: 48
Chanel 1 Note Off - Duracao: 200760 Nota: C1 Vol.: 78
Chanel 1 Note On - Duracao: 200760 Nota: C1 Vol.: 89
Chanel 2 Note Off - Duracao: 200760 Nota: C1 Vol.: 64
Chanel 2 Note On - Duracao: 200760 Nota: C1 Vol.: 73
Chanel 1 Note Off - Duracao: 200880 Nota: C1 Vol.: 89
Chanel 1 Note On - Duracao: 200880 Nota: C1 Vol.: 69
Chanel 3 Note Off - Duracao: 200880 Nota: C1 Vol.: 40
Chanel 3 Note On - Duracao: 200880 Nota: C1 Vol.: 41
Chanel 6 Note Off - Duracao: 200940 Nota: C1 Vol.: 49
Chanel 6 Note On - Duracao: 200940 Nota: C1 Vol.: 43
Chanel 2 Note Off - Duracao: 201000 Nota: C1 Vol.: 73
Chanel 2 Note On - Duracao: 201000 Nota: C1 Vol.: 72
Chanel 1 Note Off - Duracao: 201120 Nota: C1 Vol.: 69
Chanel 1 Note On - Duracao: 201120 Nota: C1 Vol.: 45
Chanel 9 Note Off - Duracao: 201120 Nota: C1 Vol.: 40
Chanel 9 Note On - Duracao: 201120 Nota: C1 Vol.: 44
Chanel 4 Note Off - Duracao: 201180 Nota: C1 Vol.: 56
Chanel 4 Note On - Duracao: 201180 Nota: C1 Vol.: 40
Chanel 2 Note Off - Duracao: 201240 Nota: C1 Vol.: 72
Chanel 2 Note On - Duracao: 201240 Nota: C1 Vol.: 75
Chanel 2 Note Off - Duracao: 201360 Nota: C1 Vol.: 75
Chanel 2 Note On - Duracao: 201360 Nota: C1 Vol.: 70
Chanel 1 Note Off - Duracao: 201600 Nota: C1 Vol.: 45
Chanel 1 Note On - Duracao: 201600 Nota: C1 Vol.: 54
Chanel 2 Note Off - Duracao: 201600 Nota: C1 Vol.: 70
Chanel 2 Note On - Duracao: 201600 Nota: C1 Vol.: 66
Chanel 9 Note Off - Duracao: 201600 Nota: C1 Vol.: 44
Chanel 9 Note On - Duracao: 201600 Nota: C1 Vol.: 60
Chanel 10 Note Off - Duracao: 201660 Nota: C1 Vol.: 48
Chanel 10 Note On - Duracao: 201660 Nota: C1 Vol.: 48
Chanel 1 Note Off - Duracao: 201720 Nota: C1 Vol.: 54
Chanel 1 Note On - Duracao: 201720 Nota: C1 Vol.: 46
Chanel 9 Note Off - Duracao: 201720 Nota: C1 Vol.: 60
Chanel 9 Note On - Duracao: 201720 Nota: C1 Vol.: 51
Chanel 2 Note Off - Duracao: 201840 Nota: C1 Vol.: 66
Chanel 2 Note On - Duracao: 201840 Nota: C1 Vol.: 40
Chanel 6 Note Off - Duracao: 201900 Nota: C1 Vol.: 43
Chanel 6 Note On - Duracao: 201900 Nota: C1 Vol.: 42
Chanel 1 Note Off - Duracao: 201960 Nota: C1 Vol.: 46
Chanel 1 Note On - Duracao: 201960 Nota: C1 Vol.: 45
Chanel 5 Note Off - Duracao: 201960 Nota: C1 Vol.: 52
Chanel 5 Note On - Duracao: 201960 Nota: C1 Vol.: 48
Chanel 9 Note Off - Duracao: 201960 Nota: C1 Vol.: 51
Chanel 9 Note On - Duracao: 201960 Nota: C1 Vol.: 51
Chanel 1 Note Off - Duracao: 202200 Nota: C1 Vol.: 45
Chanel 1 Note On - Duracao: 202200 Nota: C1 Vol.: 50
Chanel 9 Note Off - Duracao: 202200 Nota: C1 Vol.: 51
Chanel 9 Note On - Duracao: 202200 Nota: C1 Vol.: 45
Chanel 9 Note Off - Duracao: 202440 Nota: C1 Vol.: 45
Chanel 9 Note On - Duracao: 202440 Nota: C1 Vol.: 54
Chanel 8 Note Off - Duracao: 202560 Nota: C1 Vol.: 49
Chanel 8 Note On - Duracao: 202560 Nota: C1 Vol.: 46
Chanel 9 Note Off - Duracao: 202560 Nota: C1 Vol.: 54
Chanel 9 Note On - Duracao: 202560 Nota: C1 Vol.: 53
Chanel 10 Note Off - Duracao: 202620 Nota: C1 Vol.: 48
Chanel 10 Note On - Duracao: 202620 Nota: C1 Vol.: 49
Chanel 1 Note Off - Duracao: 202680 Nota: C1 Vol.: 50
Chanel 1 Note On - Duracao: 202680 Nota: C1 Vol.: 42
Chanel 9 Note Off - Duracao: 202680 Nota: C1 Vol.: 53
Chanel 9 Note On - Duracao: 202680 Nota: C1 Vol.: 50
Chanel 3 Note Off - Duracao: 202800 Nota: C1 Vol.: 41
Chanel 3 Note On - Duracao: 202800 Nota: C1 Vol.: 40
Chanel 6 Note Off - Duracao: 202860 Nota: C1 Vol.: 42
Chanel 6 Note On - Duracao: 202860 Nota: C1 Vol.: 44
Chanel 9 Note Off - Duracao: 202920 Nota: C1 Vol.: 50
Chanel 9 Note On - Duracao: 202920 Nota: C1 Vol.: 65
Chanel 7 Note Off - Duracao: 202980 Nota: C1 Vol.: 59
Chanel 7 Note On - Duracao: 202980 Nota: C1 Vol.: 60
Chanel 9 Note Off - Duracao: 203040 Nota: C1 Vol.: 65
Chanel 9 Note On - Duracao: 203040 Nota: C1 Vol.: 65
Chanel 4 Note Off - Duracao: 203100 Nota: C1 Vol.: 40
Chanel 4 Note On - Duracao: 203100 Nota: C1 Vol.: 62
Chanel 9 Note Off - Duracao: 203160 Nota: C1 Vol.: 65
Chanel 9 Note On - Duracao: 203160 Nota: C1 Vol.: 67
Chanel 9 Note Off - Duracao: 203280 Nota: C1 Vol.: 67
Chanel 9 Note On - Duracao: 203280 Nota: C1 Vol.: 65
Chanel 9 Note Off - Duracao: 203520 Nota: C1 Vol.: 65
Chanel 9 Note On - Duracao: 203520 Nota: C1 Vol.: 64
Chanel 4 Note Off - Duracao: 203580 Nota: C1 Vol.: 62
Chanel 4 Note On - Duracao: 203580 Nota: C1 Vol.: 60
Chanel 10 Note Off - Duracao: 203580 Nota: C1 Vol.: 49
Chanel 10 Note On - Duracao: 203580 Nota: C1 Vol.: 64
Chanel 9 Note Off - Duracao: 203640 Nota: C1 Vol.: 64
Chanel 9 Note On - Duracao: 203640 Nota: C1 Vol.: 58
Chanel 2 Note Off - Duracao: 203760 Nota: C1 Vol.: 40
Chanel 2 Note On - Duracao: 203760 Nota: C1 Vol.: 52
Chanel 6 Note Off - Duracao: 203820 Nota: C1 Vol.: 44
Chanel 6 Note On - Duracao: 203820 Nota: C1 Vol.: 46
Chanel 10 Note Off - Duracao: 203820 Nota: C1 Vol.: 64
Chanel 10 Note On - Duracao: 203820 Nota: C1 Vol.: 70
Chanel 5 Note Off - Duracao: 203880 Nota: C1 Vol.: 48
Chanel 5 Note On - Duracao: 203880 Nota: C1 Vol.: 66
Chanel 9 Note Off - Duracao: 203880 Nota: C1 Vol.: 58
Chanel 9 Note On - Duracao: 203880 Nota: C1 Vol.: 51
Chanel 10 Note Off - Duracao: 203940 Nota: C1 Vol.: 70
Chanel 10 Note On - Duracao: 203940 Nota: C1 Vol.: 66
Chanel 4 Note Off - Duracao: 204060 Nota: C1 Vol.: 60
Chanel 4 Note On - Duracao: 204060 Nota: C1 Vol.: 40
Chanel 5 Note Off - Duracao: 204120 Nota: C1 Vol.: 66
Chanel 5 Note On - Duracao: 204120 Nota: C1 Vol.: 60
Chanel 10 Note Off - Duracao: 204180 Nota: C1 Vol.: 66
Chanel 10 Note On - Duracao: 204180 Nota: C1 Vol.: 70
Chanel 2 Note Off - Duracao: 204240 Nota: C1 Vol.: 52
Chanel 2 Note On - Duracao: 204240 Nota: C1 Vol.: 56
Chanel 10 Note Off - Duracao: 204300 Nota: C1 Vol.: 70
Chanel 10 Note On - Duracao: 204300 Nota: C1 Vol.: 66
Chanel 2 Note Off - Duracao: 204360 Nota: C1 Vol.: 56
Chanel 2 Note On - Duracao: 204360 Nota: C1 Vol.: 47
Chanel 5 Note Off - Duracao: 204360 Nota: C1 Vol.: 60
Chanel 5 Note On - Duracao: 204360 Nota: C1 Vol.: 57
Chanel 9 Note Off - Duracao: 204360 Nota: C1 Vol.: 51
Chanel 9 Note On - Duracao: 204360 Nota: C1 Vol.: 55
Chanel 8 Note Off - Duracao: 204480 Nota: C1 Vol.: 46
Chanel 8 Note On - Duracao: 204480 Nota: C1 Vol.: 56
Chanel 10 Note Off - Duracao: 204540 Nota: C1 Vol.: 66
Chanel 10 Note On - Duracao: 204540 Nota: C1 Vol.: 50
Chanel 1 Note Off - Duracao: 204600 Nota: C1 Vol.: 42
Chanel 1 Note On - Duracao: 204600 Nota: C1 Vol.: 54
Chanel 2 Note Off - Duracao: 204600 Nota: C1 Vol.: 47
Chanel 2 Note On - Duracao: 204600 Nota: C1 Vol.: 50
Chanel 3 Note Off - Duracao: 204720 Nota: C1 Vol.: 40
Chanel 3 Note On - Duracao: 204720 Nota: C1 Vol.: 67
Chanel 6 Note Off - Duracao: 204780 Nota: C1 Vol.: 46
Chanel 6 Note On - Duracao: 204780 Nota: C1 Vol.: 47
Chanel 2 Note Off - Duracao: 204840 Nota: C1 Vol.: 50
Chanel 2 Note On - Duracao: 204840 Nota: C1 Vol.: 40
Chanel 5 Note Off - Duracao: 204840 Nota: C1 Vol.: 57
Chanel 5 Note On - Duracao: 204840 Nota: C1 Vol.: 61
Chanel 9 Note Off - Duracao: 204840 Nota: C1 Vol.: 55
Chanel 9 Note On - Duracao: 204840 Nota: C1 Vol.: 47
Chanel 5 Note Off - Duracao: 205080 Nota: C1 Vol.: 61
Chanel 5 Note On - Duracao: 205080 Nota: C1 Vol.: 62
Chanel 3 Note Off - Duracao: 205200 Nota: C1 Vol.: 67
Chanel 3 Note On - Duracao: 205200 Nota: C1 Vol.: 98
Chanel 3 Note Off - Duracao: 205260 Nota: C1 Vol.: 98
Chanel 3 Note On - Duracao: 205260 Nota: C1 Vol.: 98
Chanel 3 Note Off - Duracao: 205320 Nota: C1 Vol.: 98
Chanel 3 Note On - Duracao: 205320 Nota: C1 Vol.: 97
Chanel 5 Note Off - Duracao: 205320 Nota: C1 Vol.: 62
Chanel 5 Note On - Duracao: 205320 Nota: C1 Vol.: 60
Chanel 3 Note Off - Duracao: 205380 Nota: C1 Vol.: 97
Chanel 3 Note On - Duracao: 205380 Nota: C1 Vol.: 63
Chanel 8 Note Off - Duracao: 205440 Nota: C1 Vol.: 56
Chanel 8 Note On - Duracao: 205440 Nota: C1 Vol.: 49
Chanel 10 Note Off - Duracao: 205500 Nota: C1 Vol.: 50
Chanel 10 Note On - Duracao: 205500 Nota: C1 Vol.: 52
Chanel 5 Note Off - Duracao: 205560 Nota: C1 Vol.: 60
Chanel 5 Note On - Duracao: 205560 Nota: C1 Vol.: 55
Chanel 6 Note Off - Duracao: 205740 Nota: C1 Vol.: 47
Chanel 6 Note On - Duracao: 205740 Nota: C1 Vol.: 53
Chanel 9 Note Off - Duracao: 205800 Nota: C1 Vol.: 47
Chanel 9 Note On - Duracao: 205800 Nota: C1 Vol.: 51
Chanel 4 Note Off - Duracao: 205980 Nota: C1 Vol.: 40
Chanel 4 Note On - Duracao: 205980 Nota: C1 Vol.: 51
Chanel 5 Note Off - Duracao: 206040 Nota: C1 Vol.: 55
Chanel 5 Note On - Duracao: 206040 Nota: C1 Vol.: 51
Chanel 6 Note Off - Duracao: 206220 Nota: C1 Vol.: 53
Chanel 6 Note On - Duracao: 206220 Nota: C1 Vol.: 40
Chanel 3 Note Off - Duracao: 206340 Nota: C1 Vol.: 63
Chanel 3 Note On - Duracao: 206340 Nota: C1 Vol.: 80
Chanel 10 Note Off - Duracao: 206460 Nota: C1 Vol.: 52
Chanel 10 Note On - Duracao: 206460 Nota: C1 Vol.: 56
Chanel 1 Note Off - Duracao: 206520 Nota: C1 Vol.: 54
Chanel 1 Note On - Duracao: 206520 Nota: C1 Vol.: 56
Chanel 5 Note Off - Duracao: 206520 Nota: C1 Vol.: 51
Chanel 5 Note On - Duracao: 206520 Nota: C1 Vol.: 56
Chanel 3 Note Off - Duracao: 206580 Nota: C1 Vol.: 80
Chanel 3 Note On - Duracao: 206580 Nota: C1 Vol.: 98
Chanel 3 Note Off - Duracao: 206640 Nota: C1 Vol.: 98
Chanel 3 Note On - Duracao: 206640 Nota: C1 Vol.: 83
Chanel 2 Note Off - Duracao: 206760 Nota: C1 Vol.: 40
Chanel 2 Note On - Duracao: 206760 Nota: C1 Vol.: 40
Chanel 9 Note Off - Duracao: 206760 Nota: C1 Vol.: 51
Chanel 9 Note On - Duracao: 206760 Nota: C1 Vol.: 55
Chanel 7 Note Off - Duracao: 206820 Nota: C1 Vol.: 60
Chanel 7 Note On - Duracao: 206820 Nota: C1 Vol.: 63
Chanel 3 Note Off - Duracao: 206880 Nota: C1 Vol.: 83
Chanel 3 Note On - Duracao: 206880 Nota: C1 Vol.: 82
Chanel 4 Note Off - Duracao: 206940 Nota: C1 Vol.: 51
Chanel 4 Note On - Duracao: 206940 Nota: C1 Vol.: 82
Chanel 5 Note Off - Duracao: 207000 Nota: C1 Vol.: 56
Chanel 5 Note On - Duracao: 207000 Nota: C1 Vol.: 64
Chanel 4 Note Off - Duracao: 207060 Nota: C1 Vol.: 82
Chanel 4 Note On - Duracao: 207060 Nota: C1 Vol.: 85
Chanel 3 Note Off - Duracao: 207120 Nota: C1 Vol.: 82
Chanel 3 Note On - Duracao: 207120 Nota: C1 Vol.: 65
Chanel 4 Note Off - Duracao: 207180 Nota: C1 Vol.: 85
Chanel 4 Note On - Duracao: 207180 Nota: C1 Vol.: 49
Chanel 6 Note Off - Duracao: 207180 Nota: C1 Vol.: 40
Chanel 6 Note On - Duracao: 207180 Nota: C1 Vol.: 56
Chanel 5 Note Off - Duracao: 207240 Nota: C1 Vol.: 64
Chanel 5 Note On - Duracao: 207240 Nota: C1 Vol.: 62
Chanel 9 Note Off - Duracao: 207240 Nota: C1 Vol.: 55
Chanel 9 Note On - Duracao: 207240 Nota: C1 Vol.: 50
Chanel 8 Note Off - Duracao: 207360 Nota: C1 Vol.: 49
Chanel 8 Note On - Duracao: 207360 Nota: C1 Vol.: 49
Chanel 10 Note Off - Duracao: 207420 Nota: C1 Vol.: 56
Chanel 10 Note On - Duracao: 207420 Nota: C1 Vol.: 59
Chanel 5 Note Off - Duracao: 207480 Nota: C1 Vol.: 62
Chanel 5 Note On - Duracao: 207480 Nota: C1 Vol.: 66
Chanel 3 Note Off - Duracao: 207600 Nota: C1 Vol.: 65
Chanel 3 Note On - Duracao: 207600 Nota: C1 Vol.: 65
Chanel 6 Note Off - Duracao: 207660 Nota: C1 Vol.: 56
Chanel 6 Note On - Duracao: 207660 Nota: C1 Vol.: 59
Chanel 5 Note Off - Duracao: 207720 Nota: C1 Vol.: 66
Chanel 5 Note On - Duracao: 207720 Nota: C1 Vol.: 64
Chanel 3 Note Off - Duracao: 207840 Nota: C1 Vol.: 65
Chanel 3 Note On - Duracao: 207840 Nota: C1 Vol.: 63
Chanel 6 Note Off - Duracao: 207900 Nota: C1 Vol.: 59
Chanel 6 Note On - Duracao: 207900 Nota: C1 Vol.: 51
Chanel 10 Note Off - Duracao: 207900 Nota: C1 Vol.: 59
Chanel 10 Note On - Duracao: 207900 Nota: C1 Vol.: 64
Chanel 5 Note Off - Duracao: 207960 Nota: C1 Vol.: 64
Chanel 5 Note On - Duracao: 207960 Nota: C1 Vol.: 67
Chanel 3 Note Off - Duracao: 208080 Nota: C1 Vol.: 63
Chanel 3 Note On - Duracao: 208080 Nota: C1 Vol.: 54
Chanel 5 Note Off - Duracao: 208200 Nota: C1 Vol.: 67
Chanel 5 Note On - Duracao: 208200 Nota: C1 Vol.: 68
Chanel 9 Note Off - Duracao: 208200 Nota: C1 Vol.: 50
Chanel 9 Note On - Duracao: 208200 Nota: C1 Vol.: 54
Chanel 8 Note Off - Duracao: 208320 Nota: C1 Vol.: 49
Chanel 8 Note On - Duracao: 208320 Nota: C1 Vol.: 42
Chanel 6 Note Off - Duracao: 208380 Nota: C1 Vol.: 51
Chanel 6 Note On - Duracao: 208380 Nota: C1 Vol.: 44
Chanel 10 Note Off - Duracao: 208380 Nota: C1 Vol.: 64
Chanel 10 Note On - Duracao: 208380 Nota: C1 Vol.: 92
Chanel 1 Note Off - Duracao: 208440 Nota: C1 Vol.: 56
Chanel 1 Note On - Duracao: 208440 Nota: C1 Vol.: 86
Chanel 5 Note Off - Duracao: 208440 Nota: C1 Vol.: 68
Chanel 5 Note On - Duracao: 208440 Nota: C1 Vol.: 67
Chanel 10 Note Off - Duracao: 208500 Nota: C1 Vol.: 92
Chanel 10 Note On - Duracao: 208500 Nota: C1 Vol.: 91
Chanel 3 Note Off - Duracao: 208560 Nota: C1 Vol.: 54
Chanel 3 Note On - Duracao: 208560 Nota: C1 Vol.: 40
Chanel 10 Note Off - Duracao: 208620 Nota: C1 Vol.: 91
Chanel 10 Note On - Duracao: 208620 Nota: C1 Vol.: 74
Chanel 1 Note Off - Duracao: 208680 Nota: C1 Vol.: 86
Chanel 1 Note On - Duracao: 208680 Nota: C1 Vol.: 100
Chanel 5 Note Off - Duracao: 208680 Nota: C1 Vol.: 67
Chanel 5 Note On - Duracao: 208680 Nota: C1 Vol.: 69
Chanel 1 Note Off - Duracao: 208740 Nota: C1 Vol.: 100
Chanel 1 Note On - Duracao: 208740 Nota: C1 Vol.: 76
Chanel 10 Note Off - Duracao: 208860 Nota: C1 Vol.: 74
Chanel 10 Note On - Duracao: 208860 Nota: C1 Vol.: 64
Chanel 5 Note Off - Duracao: 208920 Nota: C1 Vol.: 69
Chanel 5 Note On - Duracao: 208920 Nota: C1 Vol.: 69
Chanel 4 Note Off - Duracao: 209100 Nota: C1 Vol.: 49
Chanel 4 Note On - Duracao: 209100 Nota: C1 Vol.: 50
Chanel 5 Note Off - Duracao: 209160 Nota: C1 Vol.: 69
Chanel 5 Note On - Duracao: 209160 Nota: C1 Vol.: 70
Chanel 9 Note Off - Duracao: 209160 Nota: C1 Vol.: 54
Chanel 9 Note On - Duracao: 209160 Nota: C1 Vol.: 62
Chanel 1 Note Off - Duracao: 209220 Nota: C1 Vol.: 76
Chanel 1 Note On - Duracao: 209220 Nota: C1 Vol.: 65
Chanel 6 Note Off - Duracao: 209340 Nota: C1 Vol.: 44
Chanel 6 Note On - Duracao: 209340 Nota: C1 Vol.: 54
Chanel 10 Note Off - Duracao: 209340 Nota: C1 Vol.: 64
Chanel 10 Note On - Duracao: 209340 Nota: C1 Vol.: 56
Chanel 5 Note Off - Duracao: 209400 Nota: C1 Vol.: 70
Chanel 5 Note On - Duracao: 209400 Nota: C1 Vol.: 72
Chanel 5 Note Off - Duracao: 209520 Nota: C1 Vol.: 72
Chanel 5 Note On - Duracao: 209520 Nota: C1 Vol.: 69
Chanel 9 Note Off - Duracao: 209640 Nota: C1 Vol.: 62
Chanel 9 Note On - Duracao: 209640 Nota: C1 Vol.: 65
Chanel 5 Note Off - Duracao: 209760 Nota: C1 Vol.: 69
Chanel 5 Note On - Duracao: 209760 Nota: C1 Vol.: 74
Chanel 6 Note Off - Duracao: 209820 Nota: C1 Vol.: 54
Chanel 6 Note On - Duracao: 209820 Nota: C1 Vol.: 53
Chanel 5 Note Off - Duracao: 209880 Nota: C1 Vol.: 74
Chanel 5 Note On - Duracao: 209880 Nota: C1 Vol.: 73
Chanel 5 Note Off - Duracao: 210000 Nota: C1 Vol.: 73
Chanel 5 Note On - Duracao: 210000 Nota: C1 Vol.: 73
Chanel 9 Note Off - Duracao: 210120 Nota: C1 Vol.: 65
Chanel 9 Note On - Duracao: 210120 Nota: C1 Vol.: 68
Chanel 1 Note Off - Duracao: 210180 Nota: C1 Vol.: 65
Chanel 1 Note On - Duracao: 210180 Nota: C1 Vol.: 72
Chanel 5 Note Off - Duracao: 210240 Nota: C1 Vol.: 73
Chanel 5 Note On - Duracao: 210240 Nota: C1 Vol.: 58
Chanel 8 Note Off - Duracao: 210240 Nota: C1 Vol.: 42
Chanel 8 Note On - Duracao: 210240 Nota: C1 Vol.: 52
Chanel 6 Note Off - Duracao: 210300 Nota: C1 Vol.: 53
Chanel 6 Note On - Duracao: 210300 Nota: C1 Vol.: 52
Chanel 10 Note Off - Duracao: 210300 Nota: C1 Vol.: 56
Chanel 10 Note On - Duracao: 210300 Nota: C1 Vol.: 50
Chanel 9 Note Off - Duracao: 210360 Nota: C1 Vol.: 68
Chanel 9 Note On - Duracao: 210360 Nota: C1 Vol.: 63
Chanel 3 Note Off - Duracao: 210480 Nota: C1 Vol.: 40
Chanel 3 Note On - Duracao: 210480 Nota: C1 Vol.: 45
Chanel 2 Note Off - Duracao: 210600 Nota: C1 Vol.: 40
Chanel 2 Note On - Duracao: 210600 Nota: C1 Vol.: 43
Chanel 1 Note Off - Duracao: 210660 Nota: C1 Vol.: 72
Chanel 1 Note On - Duracao: 210660 Nota: C1 Vol.: 100
Chanel 7 Note Off - Duracao: 210660 Nota: C1 Vol.: 63
Chanel 7 Note On - Duracao: 210660 Nota: C1 Vol.: 67
Chanel 1 Note Off - Duracao: 210720 Nota: C1 Vol.: 100
Chanel 1 Note On - Duracao: 210720 Nota: C1 Vol.: 100
Chanel 5 Note Off - Duracao: 210720 Nota: C1 Vol.: 58
Chanel 5 Note On - Duracao: 210720 Nota: C1 Vol.: 41
Chanel 1 Note Off - Duracao: 210780 Nota: C1 Vol.: 100
Chanel 1 Note On - Duracao: 210780 Nota: C1 Vol.: 75
Chanel 6 Note Off - Duracao: 210780 Nota: C1 Vol.: 52
Chanel 6 Note On - Duracao: 210780 Nota: C1 Vol.: 51
Chanel 9 Note Off - Duracao: 210840 Nota: C1 Vol.: 63
Chanel 9 Note On - Duracao: 210840 Nota: C1 Vol.: 72
Chanel 3 Note Off - Duracao: 210960 Nota: C1 Vol.: 45
Chanel 3 Note On - Duracao: 210960 Nota: C1 Vol.: 49
Chanel 4 Note Off - Duracao: 211020 Nota: C1 Vol.: 50
Chanel 4 Note On - Duracao: 211020 Nota: C1 Vol.: 63
Chanel 9 Note Off - Duracao: 211080 Nota: C1 Vol.: 72
Chanel 9 Note On - Duracao: 211080 Nota: C1 Vol.: 67
Chanel 3 Note Off - Duracao: 211200 Nota: C1 Vol.: 49
Chanel 3 Note On - Duracao: 211200 Nota: C1 Vol.: 44
Chanel 8 Note Off - Duracao: 211200 Nota: C1 Vol.: 52
Chanel 8 Note On - Duracao: 211200 Nota: C1 Vol.: 55
Chanel 1 Note Off - Duracao: 211260 Nota: C1 Vol.: 75
Chanel 1 Note On - Duracao: 211260 Nota: C1 Vol.: 60
Chanel 6 Note Off - Duracao: 211260 Nota: C1 Vol.: 51
Chanel 6 Note On - Duracao: 211260 Nota: C1 Vol.: 62
Chanel 10 Note Off - Duracao: 211260 Nota: C1 Vol.: 50
Chanel 10 Note On - Duracao: 211260 Nota: C1 Vol.: 56
Chanel 3 Note Off - Duracao: 211440 Nota: C1 Vol.: 44
Chanel 3 Note On - Duracao: 211440 Nota: C1 Vol.: 47
Chanel 6 Note Off - Duracao: 211500 Nota: C1 Vol.: 62
Chanel 6 Note On - Duracao: 211500 Nota: C1 Vol.: 60
Chanel 3 Note Off - Duracao: 211560 Nota: C1 Vol.: 47
Chanel 3 Note On - Duracao: 211560 Nota: C1 Vol.: 45
Chanel 9 Note Off - Duracao: 211560 Nota: C1 Vol.: 67
Chanel 9 Note On - Duracao: 211560 Nota: C1 Vol.: 81
Chanel 3 Note Off - Duracao: 211680 Nota: C1 Vol.: 45
Chanel 3 Note On - Duracao: 211680 Nota: C1 Vol.: 50
Chanel 8 Note Off - Duracao: 211680 Nota: C1 Vol.: 55
Chanel 8 Note On - Duracao: 211680 Nota: C1 Vol.: 56
Chanel 9 Note Off - Duracao: 211680 Nota: C1 Vol.: 81
Chanel 9 Note On - Duracao: 211680 Nota: C1 Vol.: 85
Chanel 6 Note Off - Duracao: 211740 Nota: C1 Vol.: 60
Chanel 6 Note On - Duracao: 211740 Nota: C1 Vol.: 51
Chanel 10 Note Off - Duracao: 211740 Nota: C1 Vol.: 56
Chanel 10 Note On - Duracao: 211740 Nota: C1 Vol.: 59
Chanel 3 Note Off - Duracao: 211800 Nota: C1 Vol.: 50
Chanel 3 Note On - Duracao: 211800 Nota: C1 Vol.: 55
Chanel 9 Note Off - Duracao: 211800 Nota: C1 Vol.: 85
Chanel 9 Note On - Duracao: 211800 Nota: C1 Vol.: 82
Chanel 3 Note Off - Duracao: 211920 Nota: C1 Vol.: 55
Chanel 3 Note On - Duracao: 211920 Nota: C1 Vol.: 57
Chanel 4 Note Off - Duracao: 211980 Nota: C1 Vol.: 63
Chanel 4 Note On - Duracao: 211980 Nota: C1 Vol.: 62
Chanel 3 Note Off - Duracao: 212040 Nota: C1 Vol.: 57
Chanel 3 Note On - Duracao: 212040 Nota: C1 Vol.: 40
Chanel 9 Note Off - Duracao: 212040 Nota: C1 Vol.: 82
Chanel 9 Note On - Duracao: 212040 Nota: C1 Vol.: 59
Chanel 8 Note Off - Duracao: 212160 Nota: C1 Vol.: 56
Chanel 8 Note On - Duracao: 212160 Nota: C1 Vol.: 56
Chanel 6 Note Off - Duracao: 212220 Nota: C1 Vol.: 51
Chanel 6 Note On - Duracao: 212220 Nota: C1 Vol.: 48
Chanel 10 Note Off - Duracao: 212220 Nota: C1 Vol.: 59
Chanel 10 Note On - Duracao: 212220 Nota: C1 Vol.: 58
Chanel 2 Note Off - Duracao: 212520 Nota: C1 Vol.: 43
Chanel 2 Note On - Duracao: 212520 Nota: C1 Vol.: 42
Chanel 5 Note Off - Duracao: 212640 Nota: C1 Vol.: 41
Chanel 5 Note On - Duracao: 212640 Nota: C1 Vol.: 83
Chanel 8 Note Off - Duracao: 212640 Nota: C1 Vol.: 56
Chanel 8 Note On - Duracao: 212640 Nota: C1 Vol.: 48
Chanel 10 Note Off - Duracao: 212700 Nota: C1 Vol.: 58
Chanel 10 Note On - Duracao: 212700 Nota: C1 Vol.: 60
Chanel 5 Note Off - Duracao: 212760 Nota: C1 Vol.: 83
Chanel 5 Note On - Duracao: 212760 Nota: C1 Vol.: 63
Chanel 3 Note Off - Duracao: 213000 Nota: C1 Vol.: 40
Chanel 3 Note On - Duracao: 213000 Nota: C1 Vol.: 40
Chanel 9 Note Off - Duracao: 213000 Nota: C1 Vol.: 59
Chanel 9 Note On - Duracao: 213000 Nota: C1 Vol.: 52
Chanel 1 Note Off - Duracao: 213180 Nota: C1 Vol.: 60
Chanel 1 Note On - Duracao: 213180 Nota: C1 Vol.: 59
Chanel 6 Note Off - Duracao: 213180 Nota: C1 Vol.: 48
Chanel 6 Note On - Duracao: 213180 Nota: C1 Vol.: 50
Chanel 10 Note Off - Duracao: 213180 Nota: C1 Vol.: 60
Chanel 10 Note On - Duracao: 213180 Nota: C1 Vol.: 60
Chanel 8 Note Off - Duracao: 213600 Nota: C1 Vol.: 48
Chanel 8 Note On - Duracao: 213600 Nota: C1 Vol.: 51
Chanel 10 Note Off - Duracao: 213660 Nota: C1 Vol.: 60
Chanel 10 Note On - Duracao: 213660 Nota: C1 Vol.: 63
Chanel 5 Note Off - Duracao: 213720 Nota: C1 Vol.: 63
Chanel 5 Note On - Duracao: 213720 Nota: C1 Vol.: 86
Chanel 5 Note Off - Duracao: 213840 Nota: C1 Vol.: 86
Chanel 5 Note On - Duracao: 213840 Nota: C1 Vol.: 87
Chanel 4 Note Off - Duracao: 213900 Nota: C1 Vol.: 62
Chanel 4 Note On - Duracao: 213900 Nota: C1 Vol.: 67
Chanel 5 Note Off - Duracao: 213960 Nota: C1 Vol.: 87
Chanel 5 Note On - Duracao: 213960 Nota: C1 Vol.: 87
Chanel 9 Note Off - Duracao: 213960 Nota: C1 Vol.: 52
Chanel 9 Note On - Duracao: 213960 Nota: C1 Vol.: 56
Chanel 5 Note Off - Duracao: 214080 Nota: C1 Vol.: 87
Chanel 5 Note On - Duracao: 214080 Nota: C1 Vol.: 88
Chanel 1 Note Off - Duracao: 214140 Nota: C1 Vol.: 59
Chanel 1 Note On - Duracao: 214140 Nota: C1 Vol.: 40
Chanel 6 Note Off - Duracao: 214140 Nota: C1 Vol.: 50
Chanel 6 Note On - Duracao: 214140 Nota: C1 Vol.: 53
Chanel 10 Note Off - Duracao: 214140 Nota: C1 Vol.: 63
Chanel 10 Note On - Duracao: 214140 Nota: C1 Vol.: 60
Chanel 5 Note Off - Duracao: 214200 Nota: C1 Vol.: 88
Chanel 5 Note On - Duracao: 214200 Nota: C1 Vol.: 87
Chanel 5 Note Off - Duracao: 214320 Nota: C1 Vol.: 87
Chanel 5 Note On - Duracao: 214320 Nota: C1 Vol.: 87
Chanel 2 Note Off - Duracao: 214440 Nota: C1 Vol.: 42
Chanel 2 Note On - Duracao: 214440 Nota: C1 Vol.: 40
Chanel 5 Note Off - Duracao: 214440 Nota: C1 Vol.: 87
Chanel 5 Note On - Duracao: 214440 Nota: C1 Vol.: 86
Chanel 7 Note Off - Duracao: 214500 Nota: C1 Vol.: 67
Chanel 7 Note On - Duracao: 214500 Nota: C1 Vol.: 70
Chanel 5 Note Off - Duracao: 214560 Nota: C1 Vol.: 86
Chanel 5 Note On - Duracao: 214560 Nota: C1 Vol.: 88
Chanel 8 Note Off - Duracao: 214560 Nota: C1 Vol.: 51
Chanel 8 Note On - Duracao: 214560 Nota: C1 Vol.: 53
Chanel 6 Note Off - Duracao: 214620 Nota: C1 Vol.: 53
Chanel 6 Note On - Duracao: 214620 Nota: C1 Vol.: 57
Chanel 10 Note Off - Duracao: 214620 Nota: C1 Vol.: 60
Chanel 10 Note On - Duracao: 214620 Nota: C1 Vol.: 55
Chanel 5 Note Off - Duracao: 214680 Nota: C1 Vol.: 88
Chanel 5 Note On - Duracao: 214680 Nota: C1 Vol.: 93
Chanel 5 Note Off - Duracao: 214800 Nota: C1 Vol.: 93
Chanel 5 Note On - Duracao: 214800 Nota: C1 Vol.: 51
Chanel 4 Note Off - Duracao: 214860 Nota: C1 Vol.: 67
Chanel 4 Note On - Duracao: 214860 Nota: C1 Vol.: 66
Chanel 3 Note Off - Duracao: 214920 Nota: C1 Vol.: 40
Chanel 3 Note On - Duracao: 214920 Nota: C1 Vol.: 40
Chanel 9 Note Off - Duracao: 214920 Nota: C1 Vol.: 56
Chanel 9 Note On - Duracao: 214920 Nota: C1 Vol.: 57
Chanel 1 Note Off - Duracao: 215100 Nota: C1 Vol.: 40
Chanel 1 Note On - Duracao: 215100 Nota: C1 Vol.: 51
Chanel 6 Note Off - Duracao: 215100 Nota: C1 Vol.: 57
Chanel 6 Note On - Duracao: 215100 Nota: C1 Vol.: 55
Chanel 10 Note Off - Duracao: 215100 Nota: C1 Vol.: 55
Chanel 10 Note On - Duracao: 215100 Nota: C1 Vol.: 57
Chanel 1 Note Off - Duracao: 215340 Nota: C1 Vol.: 51
Chanel 1 Note On - Duracao: 215340 Nota: C1 Vol.: 45
Chanel 9 Note Off - Duracao: 215400 Nota: C1 Vol.: 57
Chanel 9 Note On - Duracao: 215400 Nota: C1 Vol.: 64
Chanel 1 Note Off - Duracao: 215460 Nota: C1 Vol.: 45
Chanel 1 Note On - Duracao: 215460 Nota: C1 Vol.: 42
Chanel 8 Note Off - Duracao: 215520 Nota: C1 Vol.: 53
Chanel 8 Note On - Duracao: 215520 Nota: C1 Vol.: 53
Chanel 1 Note Off - Duracao: 215580 Nota: C1 Vol.: 42
Chanel 1 Note On - Duracao: 215580 Nota: C1 Vol.: 43
Chanel 10 Note Off - Duracao: 215580 Nota: C1 Vol.: 57
Chanel 10 Note On - Duracao: 215580 Nota: C1 Vol.: 58
Chanel 9 Note Off - Duracao: 215640 Nota: C1 Vol.: 64
Chanel 9 Note On - Duracao: 215640 Nota: C1 Vol.: 65
Chanel 1 Note Off - Duracao: 215700 Nota: C1 Vol.: 43
Chanel 1 Note On - Duracao: 215700 Nota: C1 Vol.: 44
Chanel 1 Note Off - Duracao: 215820 Nota: C1 Vol.: 44
Chanel 1 Note On - Duracao: 215820 Nota: C1 Vol.: 50
Chanel 9 Note Off - Duracao: 215880 Nota: C1 Vol.: 65
Chanel 9 Note On - Duracao: 215880 Nota: C1 Vol.: 65
Chanel 1 Note Off - Duracao: 215940 Nota: C1 Vol.: 50
Chanel 1 Note On - Duracao: 215940 Nota: C1 Vol.: 57
Chanel 1 Note Off - Duracao: 216060 Nota: C1 Vol.: 57
Chanel 1 Note On - Duracao: 216060 Nota: C1 Vol.: 40
Chanel 6 Note Off - Duracao: 216060 Nota: C1 Vol.: 55
Chanel 6 Note On - Duracao: 216060 Nota: C1 Vol.: 56
Chanel 10 Note Off - Duracao: 216060 Nota: C1 Vol.: 58
Chanel 10 Note On - Duracao: 216060 Nota: C1 Vol.: 61
Chanel 9 Note Off - Duracao: 216120 Nota: C1 Vol.: 65
Chanel 9 Note On - Duracao: 216120 Nota: C1 Vol.: 54
Chanel 7 Note Off - Duracao: 216420 Nota: C1 Vol.: 70
Chanel 7 Note On - Duracao: 216420 Nota: C1 Vol.: 71
Chanel 8 Note Off - Duracao: 216480 Nota: C1 Vol.: 53
Chanel 8 Note On - Duracao: 216480 Nota: C1 Vol.: 91
Chanel 10 Note Off - Duracao: 216540 Nota: C1 Vol.: 61
Chanel 10 Note On - Duracao: 216540 Nota: C1 Vol.: 62
Chanel 8 Note Off - Duracao: 216600 Nota: C1 Vol.: 91
Chanel 8 Note On - Duracao: 216600 Nota: C1 Vol.: 91
Chanel 9 Note Off - Duracao: 216600 Nota: C1 Vol.: 54
Chanel 9 Note On - Duracao: 216600 Nota: C1 Vol.: 57
Chanel 5 Note Off - Duracao: 216720 Nota: C1 Vol.: 51
Chanel 5 Note On - Duracao: 216720 Nota: C1 Vol.: 55
Chanel 8 Note Off - Duracao: 216720 Nota: C1 Vol.: 91
Chanel 8 Note On - Duracao: 216720 Nota: C1 Vol.: 87
Chanel 4 Note Off - Duracao: 216780 Nota: C1 Vol.: 66
Chanel 4 Note On - Duracao: 216780 Nota: C1 Vol.: 72
Chanel 8 Note Off - Duracao: 216840 Nota: C1 Vol.: 87
Chanel 8 Note On - Duracao: 216840 Nota: C1 Vol.: 95
Chanel 9 Note Off - Duracao: 216840 Nota: C1 Vol.: 57
Chanel 9 Note On - Duracao: 216840 Nota: C1 Vol.: 64
Chanel 8 Note Off - Duracao: 216960 Nota: C1 Vol.: 95
Chanel 8 Note On - Duracao: 216960 Nota: C1 Vol.: 95
Chanel 1 Note Off - Duracao: 217020 Nota: C1 Vol.: 40
Chanel 1 Note On - Duracao: 217020 Nota: C1 Vol.: 58
Chanel 6 Note Off - Duracao: 217020 Nota: C1 Vol.: 56
Chanel 6 Note On - Duracao: 217020 Nota: C1 Vol.: 76
Chanel 10 Note Off - Duracao: 217020 Nota: C1 Vol.: 62
Chanel 10 Note On - Duracao: 217020 Nota: C1 Vol.: 65
Chanel 8 Note Off - Duracao: 217080 Nota: C1 Vol.: 95
Chanel 8 Note On - Duracao: 217080 Nota: C1 Vol.: 96
Chanel 9 Note Off - Duracao: 217080 Nota: C1 Vol.: 64
Chanel 9 Note On - Duracao: 217080 Nota: C1 Vol.: 67
Chanel 8 Note Off - Duracao: 217200 Nota: C1 Vol.: 96
Chanel 8 Note On - Duracao: 217200 Nota: C1 Vol.: 86
Chanel 9 Note Off - Duracao: 217200 Nota: C1 Vol.: 67
Chanel 9 Note On - Duracao: 217200 Nota: C1 Vol.: 64
Chanel 8 Note Off - Duracao: 217320 Nota: C1 Vol.: 86
Chanel 8 Note On - Duracao: 217320 Nota: C1 Vol.: 81
Chanel 9 Note Off - Duracao: 217440 Nota: C1 Vol.: 64
Chanel 9 Note On - Duracao: 217440 Nota: C1 Vol.: 69
Chanel 1 Note Off - Duracao: 217500 Nota: C1 Vol.: 58
Chanel 1 Note On - Duracao: 217500 Nota: C1 Vol.: 74
Chanel 6 Note Off - Duracao: 217500 Nota: C1 Vol.: 76
Chanel 6 Note On - Duracao: 217500 Nota: C1 Vol.: 60
Chanel 10 Note Off - Duracao: 217500 Nota: C1 Vol.: 65
Chanel 10 Note On - Duracao: 217500 Nota: C1 Vol.: 64
Chanel 8 Note Off - Duracao: 217560 Nota: C1 Vol.: 81
Chanel 8 Note On - Duracao: 217560 Nota: C1 Vol.: 75
Chanel 9 Note Off - Duracao: 217560 Nota: C1 Vol.: 69
Chanel 9 Note On - Duracao: 217560 Nota: C1 Vol.: 70
Chanel 5 Note Off - Duracao: 217680 Nota: C1 Vol.: 55
Chanel 5 Note On - Duracao: 217680 Nota: C1 Vol.: 75
Chanel 1 Note Off - Duracao: 217740 Nota: C1 Vol.: 74
Chanel 1 Note On - Duracao: 217740 Nota: C1 Vol.: 78
Chanel 4 Note Off - Duracao: 217740 Nota: C1 Vol.: 72
Chanel 4 Note On - Duracao: 217740 Nota: C1 Vol.: 76
Chanel 8 Note Off - Duracao: 217800 Nota: C1 Vol.: 75
Chanel 8 Note On - Duracao: 217800 Nota: C1 Vol.: 77
Chanel 9 Note Off - Duracao: 217800 Nota: C1 Vol.: 70
Chanel 9 Note On - Duracao: 217800 Nota: C1 Vol.: 67
Chanel 5 Note Off - Duracao: 217920 Nota: C1 Vol.: 75
Chanel 5 Note On - Duracao: 217920 Nota: C1 Vol.: 97
Chanel 1 Note Off - Duracao: 217980 Nota: C1 Vol.: 78
Chanel 1 Note On - Duracao: 217980 Nota: C1 Vol.: 77
Chanel 5 Note Off - Duracao: 217980 Nota: C1 Vol.: 97
Chanel 5 Note On - Duracao: 217980 Nota: C1 Vol.: 97
Chanel 10 Note Off - Duracao: 217980 Nota: C1 Vol.: 64
Chanel 10 Note On - Duracao: 217980 Nota: C1 Vol.: 59
Chanel 5 Note Off - Duracao: 218040 Nota: C1 Vol.: 97
Chanel 5 Note On - Duracao: 218040 Nota: C1 Vol.: 98
Chanel 8 Note Off - Duracao: 218040 Nota: C1 Vol.: 77
Chanel 8 Note On - Duracao: 218040 Nota: C1 Vol.: 79
Chanel 9 Note Off - Duracao: 218040 Nota: C1 Vol.: 67
Chanel 9 Note On - Duracao: 218040 Nota: C1 Vol.: 64
Chanel 5 Note Off - Duracao: 218100 Nota: C1 Vol.: 98
Chanel 5 Note On - Duracao: 218100 Nota: C1 Vol.: 98
Chanel 5 Note Off - Duracao: 218160 Nota: C1 Vol.: 98
Chanel 5 Note On - Duracao: 218160 Nota: C1 Vol.: 99
Chanel 1 Note Off - Duracao: 218220 Nota: C1 Vol.: 77
Chanel 1 Note On - Duracao: 218220 Nota: C1 Vol.: 81
Chanel 5 Note Off - Duracao: 218220 Nota: C1 Vol.: 99
Chanel 5 Note On - Duracao: 218220 Nota: C1 Vol.: 96
Chanel 2 Note Off - Duracao: 218280 Nota: C1 Vol.: 40
Chanel 2 Note On - Duracao: 218280 Nota: C1 Vol.: 40
Chanel 5 Note Off - Duracao: 218280 Nota: C1 Vol.: 96
Chanel 5 Note On - Duracao: 218280 Nota: C1 Vol.: 99
Chanel 8 Note Off - Duracao: 218280 Nota: C1 Vol.: 79
Chanel 8 Note On - Duracao: 218280 Nota: C1 Vol.: 83
Chanel 5 Note Off - Duracao: 218340 Nota: C1 Vol.: 99
Chanel 5 Note On - Duracao: 218340 Nota: C1 Vol.: 95
Chanel 7 Note Off - Duracao: 218340 Nota: C1 Vol.: 71
Chanel 7 Note On - Duracao: 218340 Nota: C1 Vol.: 71
Chanel 5 Note Off - Duracao: 218400 Nota: C1 Vol.: 95
Chanel 5 Note On - Duracao: 218400 Nota: C1 Vol.: 99
Chanel 1 Note Off - Duracao: 218460 Nota: C1 Vol.: 81
Chanel 1 Note On - Duracao: 218460 Nota: C1 Vol.: 80
Chanel 5 Note Off - Duracao: 218460 Nota: C1 Vol.: 99
Chanel 5 Note On - Duracao: 218460 Nota: C1 Vol.: 97
Chanel 6 Note Off - Duracao: 218460 Nota: C1 Vol.: 60
Chanel 6 Note On - Duracao: 218460 Nota: C1 Vol.: 51
Chanel 10 Note Off - Duracao: 218460 Nota: C1 Vol.: 59
Chanel 10 Note On - Duracao: 218460 Nota: C1 Vol.: 54
Chanel 5 Note Off - Duracao: 218520 Nota: C1 Vol.: 97
Chanel 5 Note On - Duracao: 218520 Nota: C1 Vol.: 92
Chanel 8 Note Off - Duracao: 218520 Nota: C1 Vol.: 83
Chanel 8 Note On - Duracao: 218520 Nota: C1 Vol.: 97
Chanel 9 Note Off - Duracao: 218520 Nota: C1 Vol.: 64
Chanel 9 Note On - Duracao: 218520 Nota: C1 Vol.: 86
Chanel 8 Note Off - Duracao: 218580 Nota: C1 Vol.: 97
Chanel 8 Note On - Duracao: 218580 Nota: C1 Vol.: 94
Chanel 5 Note Off - Duracao: 218640 Nota: C1 Vol.: 92
Chanel 5 Note On - Duracao: 218640 Nota: C1 Vol.: 100
Chanel 8 Note Off - Duracao: 218640 Nota: C1 Vol.: 94
Chanel 8 Note On - Duracao: 218640 Nota: C1 Vol.: 92
Chanel 9 Note Off - Duracao: 218640 Nota: C1 Vol.: 86
Chanel 9 Note On - Duracao: 218640 Nota: C1 Vol.: 89
Chanel 1 Note Off - Duracao: 218700 Nota: C1 Vol.: 80
Chanel 1 Note On - Duracao: 218700 Nota: C1 Vol.: 85
Chanel 4 Note Off - Duracao: 218700 Nota: C1 Vol.: 76
Chanel 4 Note On - Duracao: 218700 Nota: C1 Vol.: 74
Chanel 5 Note Off - Duracao: 218700 Nota: C1 Vol.: 100
Chanel 5 Note On - Duracao: 218700 Nota: C1 Vol.: 99
Chanel 8 Note Off - Duracao: 218700 Nota: C1 Vol.: 92
Chanel 8 Note On - Duracao: 218700 Nota: C1 Vol.: 80
Chanel 3 Note Off - Duracao: 218760 Nota: C1 Vol.: 40
Chanel 3 Note On - Duracao: 218760 Nota: C1 Vol.: 40
Chanel 5 Note Off - Duracao: 218760 Nota: C1 Vol.: 99
Chanel 5 Note On - Duracao: 218760 Nota: C1 Vol.: 98
Chanel 9 Note Off - Duracao: 218760 Nota: C1 Vol.: 89
Chanel 9 Note On - Duracao: 218760 Nota: C1 Vol.: 90
Chanel 1 Note Off - Duracao: 218820 Nota: C1 Vol.: 85
Chanel 1 Note On - Duracao: 218820 Nota: C1 Vol.: 68
Chanel 5 Note Off - Duracao: 218820 Nota: C1 Vol.: 98
Chanel 5 Note On - Duracao: 218820 Nota: C1 Vol.: 99
Chanel 8 Note Off - Duracao: 218820 Nota: C1 Vol.: 80
Chanel 8 Note On - Duracao: 218820 Nota: C1 Vol.: 70
Chanel 5 Note Off - Duracao: 218880 Nota: C1 Vol.: 99
Chanel 5 Note On - Duracao: 218880 Nota: C1 Vol.: 98
Chanel 9 Note Off - Duracao: 218880 Nota: C1 Vol.: 90
Chanel 9 Note On - Duracao: 218880 Nota: C1 Vol.: 54
Chanel 5 Note Off - Duracao: 218940 Nota: C1 Vol.: 98
Chanel 5 Note On - Duracao: 218940 Nota: C1 Vol.: 97
Chanel 8 Note Off - Duracao: 218940 Nota: C1 Vol.: 70
Chanel 8 Note On - Duracao: 218940 Nota: C1 Vol.: 62
Chanel 10 Note Off - Duracao: 218940 Nota: C1 Vol.: 54
Chanel 10 Note On - Duracao: 218940 Nota: C1 Vol.: 59
Chanel 5 Note Off - Duracao: 219000 Nota: C1 Vol.: 97
Chanel 5 Note On - Duracao: 219000 Nota: C1 Vol.: 100
Chanel 5 Note Off - Duracao: 219060 Nota: C1 Vol.: 100
Chanel 5 Note On - Duracao: 219060 Nota: C1 Vol.: 91
Chanel 5 Note Off - Duracao: 219180 Nota: C1 Vol.: 91
Chanel 5 Note On - Duracao: 219180 Nota: C1 Vol.: 93
Chanel 8 Note Off - Duracao: 219180 Nota: C1 Vol.: 62
Chanel 8 Note On - Duracao: 219180 Nota: C1 Vol.: 72
Chanel 1 Note Off - Duracao: 219300 Nota: C1 Vol.: 68
Chanel 1 Note On - Duracao: 219300 Nota: C1 Vol.: 71
Chanel 5 Note Off - Duracao: 219300 Nota: C1 Vol.: 93
Chanel 5 Note On - Duracao: 219300 Nota: C1 Vol.: 91
Chanel 8 Note Off - Duracao: 219300 Nota: C1 Vol.: 72
Chanel 8 Note On - Duracao: 219300 Nota: C1 Vol.: 51
Chanel 5 Note Off - Duracao: 219420 Nota: C1 Vol.: 91
Chanel 5 Note On - Duracao: 219420 Nota: C1 Vol.: 92
Chanel 10 Note Off - Duracao: 219420 Nota: C1 Vol.: 59
Chanel 10 Note On - Duracao: 219420 Nota: C1 Vol.: 48
Chanel 5 Note Off - Duracao: 219540 Nota: C1 Vol.: 92
Chanel 5 Note On - Duracao: 219540 Nota: C1 Vol.: 85
Chanel 4 Note Off - Duracao: 219660 Nota: C1 Vol.: 74
Chanel 4 Note On - Duracao: 219660 Nota: C1 Vol.: 74
Chanel 5 Note Off - Duracao: 219660 Nota: C1 Vol.: 85
Chanel 5 Note On - Duracao: 219660 Nota: C1 Vol.: 73
Chanel 1 Note Off - Duracao: 219780 Nota: C1 Vol.: 71
Chanel 1 Note On - Duracao: 219780 Nota: C1 Vol.: 69
Chanel 8 Note Off - Duracao: 219780 Nota: C1 Vol.: 51
Chanel 8 Note On - Duracao: 219780 Nota: C1 Vol.: 52
Chanel 9 Note Off - Duracao: 219840 Nota: C1 Vol.: 54
Chanel 9 Note On - Duracao: 219840 Nota: C1 Vol.: 61
Chanel 5 Note Off - Duracao: 220140 Nota: C1 Vol.: 73
Chanel 5 Note On - Duracao: 220140 Nota: C1 Vol.: 56
Chanel 2 Note Off - Duracao: 220200 Nota: C1 Vol.: 40
Chanel 2 Note On - Duracao: 220200 Nota: C1 Vol.: 44
Chanel 1 Note Off - Duracao: 220260 Nota: C1 Vol.: 69
Chanel 1 Note On - Duracao: 220260 Nota: C1 Vol.: 72
Chanel 7 Note Off - Duracao: 220260 Nota: C1 Vol.: 71
Chanel 7 Note On - Duracao: 220260 Nota: C1 Vol.: 70
Chanel 9 Note Off - Duracao: 220320 Nota: C1 Vol.: 61
Chanel 9 Note On - Duracao: 220320 Nota: C1 Vol.: 52
Chanel 6 Note Off - Duracao: 220380 Nota: C1 Vol.: 51
Chanel 6 Note On - Duracao: 220380 Nota: C1 Vol.: 58
Chanel 10 Note Off - Duracao: 220380 Nota: C1 Vol.: 48
Chanel 10 Note On - Duracao: 220380 Nota: C1 Vol.: 47
Chanel 4 Note Off - Duracao: 220620 Nota: C1 Vol.: 74
Chanel 4 Note On - Duracao: 220620 Nota: C1 Vol.: 69
Chanel 3 Note Off - Duracao: 220680 Nota: C1 Vol.: 40
Chanel 3 Note On - Duracao: 220680 Nota: C1 Vol.: 40
Chanel 1 Note Off - Duracao: 220740 Nota: C1 Vol.: 72
Chanel 1 Note On - Duracao: 220740 Nota: C1 Vol.: 59
Chanel 8 Note Off - Duracao: 220740 Nota: C1 Vol.: 52
Chanel 8 Note On - Duracao: 220740 Nota: C1 Vol.: 68
Chanel 8 Note Off - Duracao: 220980 Nota: C1 Vol.: 68
Chanel 8 Note On - Duracao: 220980 Nota: C1 Vol.: 71
Chanel 2 Note Off - Duracao: 221160 Nota: C1 Vol.: 44
Chanel 2 Note On - Duracao: 221160 Nota: C1 Vol.: 47
Chanel 8 Note Off - Duracao: 221220 Nota: C1 Vol.: 71
Chanel 8 Note On - Duracao: 221220 Nota: C1 Vol.: 64
Chanel 9 Note Off - Duracao: 221280 Nota: C1 Vol.: 52
Chanel 9 Note On - Duracao: 221280 Nota: C1 Vol.: 56
Chanel 10 Note Off - Duracao: 221340 Nota: C1 Vol.: 47
Chanel 10 Note On - Duracao: 221340 Nota: C1 Vol.: 50
Chanel 8 Note Off - Duracao: 221460 Nota: C1 Vol.: 64
Chanel 8 Note On - Duracao: 221460 Nota: C1 Vol.: 62
Chanel 4 Note Off - Duracao: 221580 Nota: C1 Vol.: 69
Chanel 4 Note On - Duracao: 221580 Nota: C1 Vol.: 70
Chanel 2 Note Off - Duracao: 221640 Nota: C1 Vol.: 47
Chanel 2 Note On - Duracao: 221640 Nota: C1 Vol.: 57
Chanel 1 Note Off - Duracao: 221700 Nota: C1 Vol.: 59
Chanel 1 Note On - Duracao: 221700 Nota: C1 Vol.: 58
Chanel 8 Note Off - Duracao: 221700 Nota: C1 Vol.: 62
Chanel 8 Note On - Duracao: 221700 Nota: C1 Vol.: 56
Chanel 9 Note Off - Duracao: 221760 Nota: C1 Vol.: 56
Chanel 9 Note On - Duracao: 221760 Nota: C1 Vol.: 55
Chanel 2 Note Off - Duracao: 221880 Nota: C1 Vol.: 57
Chanel 2 Note On - Duracao: 221880 Nota: C1 Vol.: 56
Chanel 2 Note Off - Duracao: 222000 Nota: C1 Vol.: 56
Chanel 2 Note On - Duracao: 222000 Nota: C1 Vol.: 55
Chanel 5 Note Off - Duracao: 222060 Nota: C1 Vol.: 56
Chanel 5 Note On - Duracao: 222060 Nota: C1 Vol.: 67
Chanel 2 Note Off - Duracao: 222120 Nota: C1 Vol.: 55
Chanel 2 Note On - Duracao: 222120 Nota: C1 Vol.: 54
Chanel 7 Note Off - Duracao: 222180 Nota: C1 Vol.: 70
Chanel 7 Note On - Duracao: 222180 Nota: C1 Vol.: 70
Chanel 8 Note Off - Duracao: 222180 Nota: C1 Vol.: 56
Chanel 8 Note On - Duracao: 222180 Nota: C1 Vol.: 57
Chanel 2 Note Off - Duracao: 222240 Nota: C1 Vol.: 54
Chanel 2 Note On - Duracao: 222240 Nota: C1 Vol.: 54
Chanel 6 Note Off - Duracao: 222300 Nota: C1 Vol.: 58
Chanel 6 Note On - Duracao: 222300 Nota: C1 Vol.: 58
Chanel 10 Note Off - Duracao: 222300 Nota: C1 Vol.: 50
Chanel 10 Note On - Duracao: 222300 Nota: C1 Vol.: 45
Chanel 2 Note Off - Duracao: 222360 Nota: C1 Vol.: 54
Chanel 2 Note On - Duracao: 222360 Nota: C1 Vol.: 54
Chanel 8 Note Off - Duracao: 222420 Nota: C1 Vol.: 57
Chanel 8 Note On - Duracao: 222420 Nota: C1 Vol.: 60
Chanel 2 Note Off - Duracao: 222480 Nota: C1 Vol.: 54
Chanel 2 Note On - Duracao: 222480 Nota: C1 Vol.: 55
Chanel 4 Note Off - Duracao: 222540 Nota: C1 Vol.: 70
Chanel 4 Note On - Duracao: 222540 Nota: C1 Vol.: 67
Chanel 2 Note Off - Duracao: 222600 Nota: C1 Vol.: 55
Chanel 2 Note On - Duracao: 222600 Nota: C1 Vol.: 57
Chanel 3 Note Off - Duracao: 222600 Nota: C1 Vol.: 40
Chanel 3 Note On - Duracao: 222600 Nota: C1 Vol.: 43
Chanel 1 Note Off - Duracao: 222660 Nota: C1 Vol.: 58
Chanel 1 Note On - Duracao: 222660 Nota: C1 Vol.: 56
Chanel 8 Note Off - Duracao: 222660 Nota: C1 Vol.: 60
Chanel 8 Note On - Duracao: 222660 Nota: C1 Vol.: 71
Chanel 2 Note Off - Duracao: 222720 Nota: C1 Vol.: 57
Chanel 2 Note On - Duracao: 222720 Nota: C1 Vol.: 59
Chanel 9 Note Off - Duracao: 222720 Nota: C1 Vol.: 55
Chanel 9 Note On - Duracao: 222720 Nota: C1 Vol.: 63
Chanel 8 Note Off - Duracao: 222780 Nota: C1 Vol.: 71
Chanel 8 Note On - Duracao: 222780 Nota: C1 Vol.: 72
Chanel 2 Note Off - Duracao: 222840 Nota: C1 Vol.: 59
Chanel 2 Note On - Duracao: 222840 Nota: C1 Vol.: 51
Chanel 8 Note Off - Duracao: 222900 Nota: C1 Vol.: 72
Chanel 8 Note On - Duracao: 222900 Nota: C1 Vol.: 63
Chanel 5 Note Off - Duracao: 223020 Nota: C1 Vol.: 67
Chanel 5 Note On - Duracao: 223020 Nota: C1 Vol.: 70
Chanel 2 Note Off - Duracao: 223080 Nota: C1 Vol.: 51
Chanel 2 Note On - Duracao: 223080 Nota: C1 Vol.: 48
Chanel 1 Note Off - Duracao: 223140 Nota: C1 Vol.: 56
Chanel 1 Note On - Duracao: 223140 Nota: C1 Vol.: 57
Chanel 9 Note Off - Duracao: 223200 Nota: C1 Vol.: 63
Chanel 9 Note On - Duracao: 223200 Nota: C1 Vol.: 70
Chanel 10 Note Off - Duracao: 223260 Nota: C1 Vol.: 45
Chanel 10 Note On - Duracao: 223260 Nota: C1 Vol.: 59
Chanel 9 Note Off - Duracao: 223440 Nota: C1 Vol.: 70
Chanel 9 Note On - Duracao: 223440 Nota: C1 Vol.: 63
Chanel 4 Note Off - Duracao: 223500 Nota: C1 Vol.: 67
Chanel 4 Note On - Duracao: 223500 Nota: C1 Vol.: 65
Chanel 5 Note Off - Duracao: 223500 Nota: C1 Vol.: 70
Chanel 5 Note On - Duracao: 223500 Nota: C1 Vol.: 62
Chanel 2 Note Off - Duracao: 223560 Nota: C1 Vol.: 48
Chanel 2 Note On - Duracao: 223560 Nota: C1 Vol.: 49
Chanel 3 Note Off - Duracao: 223560 Nota: C1 Vol.: 43
Chanel 3 Note On - Duracao: 223560 Nota: C1 Vol.: 51
Chanel 1 Note Off - Duracao: 223620 Nota: C1 Vol.: 57
Chanel 1 Note On - Duracao: 223620 Nota: C1 Vol.: 65
Chanel 10 Note Off - Duracao: 223740 Nota: C1 Vol.: 59
Chanel 10 Note On - Duracao: 223740 Nota: C1 Vol.: 54
Chanel 1 Note Off - Duracao: 223860 Nota: C1 Vol.: 65
Chanel 1 Note On - Duracao: 223860 Nota: C1 Vol.: 74
Chanel 8 Note Off - Duracao: 223860 Nota: C1 Vol.: 63
Chanel 8 Note On - Duracao: 223860 Nota: C1 Vol.: 87
Chanel 9 Note Off - Duracao: 223920 Nota: C1 Vol.: 63
Chanel 9 Note On - Duracao: 223920 Nota: C1 Vol.: 59
Chanel 1 Note Off - Duracao: 223980 Nota: C1 Vol.: 74
Chanel 1 Note On - Duracao: 223980 Nota: C1 Vol.: 68
Chanel 5 Note Off - Duracao: 223980 Nota: C1 Vol.: 62
Chanel 5 Note On - Duracao: 223980 Nota: C1 Vol.: 56
Chanel 8 Note Off - Duracao: 223980 Nota: C1 Vol.: 87
Chanel 8 Note On - Duracao: 223980 Nota: C1 Vol.: 68
Chanel 2 Note Off - Duracao: 224040 Nota: C1 Vol.: 49
Chanel 2 Note On - Duracao: 224040 Nota: C1 Vol.: 56
Chanel 7 Note Off - Duracao: 224100 Nota: C1 Vol.: 70
Chanel 7 Note On - Duracao: 224100 Nota: C1 Vol.: 71
Chanel 1 Note Off - Duracao: 224220 Nota: C1 Vol.: 68
Chanel 1 Note On - Duracao: 224220 Nota: C1 Vol.: 67
Chanel 8 Note Off - Duracao: 224220 Nota: C1 Vol.: 68
Chanel 8 Note On - Duracao: 224220 Nota: C1 Vol.: 60
Chanel 10 Note Off - Duracao: 224220 Nota: C1 Vol.: 54
Chanel 10 Note On - Duracao: 224220 Nota: C1 Vol.: 56
Chanel 2 Note Off - Duracao: 224280 Nota: C1 Vol.: 56
Chanel 2 Note On - Duracao: 224280 Nota: C1 Vol.: 46
Chanel 1 Note Off - Duracao: 224460 Nota: C1 Vol.: 67
Chanel 4 Note Off - Duracao: 224460 Nota: C1 Vol.: 65
Chanel 4 Note On - Duracao: 224460 Nota: C1 Vol.: 67
Chanel 8 Note Off - Duracao: 224460 Nota: C1 Vol.: 60
Chanel 8 Note On - Duracao: 224460 Nota: C1 Vol.: 69
Chanel 10 Note Off - Duracao: 224460 Nota: C1 Vol.: 56
Chanel 10 Note On - Duracao: 224460 Nota: C1 Vol.: 56
Chanel 3 Note Off - Duracao: 224520 Nota: C1 Vol.: 51
Chanel 3 Note On - Duracao: 224520 Nota: C1 Vol.: 67
Chanel 8 Note Off - Duracao: 224580 Nota: C1 Vol.: 69
Chanel 8 Note On - Duracao: 224580 Nota: C1 Vol.: 71
Chanel 8 Note Off - Duracao: 224700 Nota: C1 Vol.: 71
Chanel 8 Note On - Duracao: 224700 Nota: C1 Vol.: 69
Chanel 10 Note Off - Duracao: 224700 Nota: C1 Vol.: 56
Chanel 10 Note On - Duracao: 224700 Nota: C1 Vol.: 55
Chanel 2 Note Off - Duracao: 224760 Nota: C1 Vol.: 46
Chanel 2 Note On - Duracao: 224760 Nota: C1 Vol.: 41
Chanel 3 Note Off - Duracao: 224760 Nota: C1 Vol.: 67
Chanel 3 Note On - Duracao: 224760 Nota: C1 Vol.: 69
Chanel 9 Note Off - Duracao: 224880 Nota: C1 Vol.: 59
Chanel 9 Note On - Duracao: 224880 Nota: C1 Vol.: 62
Chanel 5 Note Off - Duracao: 224940 Nota: C1 Vol.: 56
Chanel 5 Note On - Duracao: 224940 Nota: C1 Vol.: 59
Chanel 8 Note Off - Duracao: 224940 Nota: C1 Vol.: 69
Chanel 8 Note On - Duracao: 224940 Nota: C1 Vol.: 80
Chanel 3 Note Off - Duracao: 225000 Nota: C1 Vol.: 69
Chanel 3 Note On - Duracao: 225000 Nota: C1 Vol.: 58
Chanel 8 Note Off - Duracao: 225060 Nota: C1 Vol.: 80
Chanel 8 Note On - Duracao: 225060 Nota: C1 Vol.: 77
Chanel 10 Note Off - Duracao: 225180 Nota: C1 Vol.: 55
Chanel 10 Note On - Duracao: 225180 Nota: C1 Vol.: 51
Chanel 8 Note Off - Duracao: 225300 Nota: C1 Vol.: 77
Chanel 8 Note On - Duracao: 225300 Nota: C1 Vol.: 77
Chanel 9 Note Off - Duracao: 225360 Nota: C1 Vol.: 62
Chanel 9 Note On - Duracao: 225360 Nota: C1 Vol.: 56
Chanel 4 Note Off - Duracao: 225420 Nota: C1 Vol.: 67
Chanel 4 Note On - Duracao: 225420 Nota: C1 Vol.: 50
Chanel 5 Note Off - Duracao: 225420 Nota: C1 Vol.: 59
Chanel 5 Note On - Duracao: 225420 Nota: C1 Vol.: 58
Chanel 3 Note Off - Duracao: 225480 Nota: C1 Vol.: 58
Chanel 3 Note On - Duracao: 225480 Nota: C1 Vol.: 86
Chanel 8 Note Off - Duracao: 225540 Nota: C1 Vol.: 77
Chanel 8 Note On - Duracao: 225540 Nota: C1 Vol.: 74
Chanel 2 Note Off - Duracao: 225720 Nota: C1 Vol.: 41
Chanel 2 Note On - Duracao: 225720 Nota: C1 Vol.: 40
Chanel 3 Note Off - Duracao: 225720 Nota: C1 Vol.: 86
Chanel 3 Note On - Duracao: 225720 Nota: C1 Vol.: 74
Chanel 8 Note Off - Duracao: 225780 Nota: C1 Vol.: 74
Chanel 8 Note On - Duracao: 225780 Nota: C1 Vol.: 49
Chanel 5 Note Off - Duracao: 225900 Nota: C1 Vol.: 58
Chanel 5 Note On - Duracao: 225900 Nota: C1 Vol.: 55
Chanel 7 Note Off - Duracao: 226020 Nota: C1 Vol.: 71
Chanel 7 Note On - Duracao: 226020 Nota: C1 Vol.: 72
Chanel 6 Note Off - Duracao: 226140 Nota: C1 Vol.: 58
Chanel 6 Note On - Duracao: 226140 Nota: C1 Vol.: 58
Chanel 10 Note Off - Duracao: 226140 Nota: C1 Vol.: 51
Chanel 10 Note On - Duracao: 226140 Nota: C1 Vol.: 59
Chanel 3 Note Off - Duracao: 226200 Nota: C1 Vol.: 74
Chanel 3 Note On - Duracao: 226200 Nota: C1 Vol.: 67
Chanel 9 Note Off - Duracao: 226320 Nota: C1 Vol.: 56
Chanel 9 Note On - Duracao: 226320 Nota: C1 Vol.: 64
Chanel 5 Note Off - Duracao: 226380 Nota: C1 Vol.: 55
Chanel 5 Note On - Duracao: 226380 Nota: C1 Vol.: 47
Chanel 10 Note Off - Duracao: 226620 Nota: C1 Vol.: 59
Chanel 10 Note On - Duracao: 226620 Nota: C1 Vol.: 59
Chanel 2 Note Off - Duracao: 226680 Nota: C1 Vol.: 40
Chanel 2 Note On - Duracao: 226680 Nota: C1 Vol.: 40
Chanel 3 Note Off - Duracao: 226680 Nota: C1 Vol.: 67
Chanel 3 Note On - Duracao: 226680 Nota: C1 Vol.: 71
Chanel 8 Note Off - Duracao: 226740 Nota: C1 Vol.: 49
Chanel 8 Note On - Duracao: 226740 Nota: C1 Vol.: 70
Chanel 9 Note Off - Duracao: 226800 Nota: C1 Vol.: 64
Chanel 9 Note On - Duracao: 226800 Nota: C1 Vol.: 52
Chanel 8 Note Off - Duracao: 226860 Nota: C1 Vol.: 70
Chanel 8 Note On - Duracao: 226860 Nota: C1 Vol.: 68
Chanel 8 Note Off - Duracao: 226980 Nota: C1 Vol.: 68
Chanel 8 Note On - Duracao: 226980 Nota: C1 Vol.: 77
Chanel 8 Note Off - Duracao: 227100 Nota: C1 Vol.: 77
Chanel 8 Note On - Duracao: 227100 Nota: C1 Vol.: 88
Chanel 10 Note Off - Duracao: 227100 Nota: C1 Vol.: 59
Chanel 10 Note On - Duracao: 227100 Nota: C1 Vol.: 55
Chanel 3 Note Off - Duracao: 227160 Nota: C1 Vol.: 71
Chanel 3 Note On - Duracao: 227160 Nota: C1 Vol.: 79
Chanel 8 Note Off - Duracao: 227220 Nota: C1 Vol.: 88
Chanel 8 Note On - Duracao: 227220 Nota: C1 Vol.: 82
Chanel 4 Note Off - Duracao: 227340 Nota: C1 Vol.: 50
Chanel 4 Note On - Duracao: 227340 Nota: C1 Vol.: 44
Chanel 5 Note Off - Duracao: 227340 Nota: C1 Vol.: 47
Chanel 5 Note On - Duracao: 227340 Nota: C1 Vol.: 61
Chanel 3 Note Off - Duracao: 227400 Nota: C1 Vol.: 79
Chanel 3 Note On - Duracao: 227400 Nota: C1 Vol.: 83
Chanel 8 Note Off - Duracao: 227460 Nota: C1 Vol.: 82
Chanel 8 Note On - Duracao: 227460 Nota: C1 Vol.: 83
Chanel 5 Note Off - Duracao: 227580 Nota: C1 Vol.: 61
Chanel 5 Note On - Duracao: 227580 Nota: C1 Vol.: 67
Chanel 2 Note Off - Duracao: 227640 Nota: C1 Vol.: 40
Chanel 2 Note On - Duracao: 227640 Nota: C1 Vol.: 41
Chanel 3 Note Off - Duracao: 227640 Nota: C1 Vol.: 83
Chanel 3 Note On - Duracao: 227640 Nota: C1 Vol.: 82
Chanel 5 Note Off - Duracao: 227700 Nota: C1 Vol.: 67
Chanel 5 Note On - Duracao: 227700 Nota: C1 Vol.: 67
Chanel 8 Note Off - Duracao: 227700 Nota: C1 Vol.: 83
Chanel 8 Note On - Duracao: 227700 Nota: C1 Vol.: 72
Chanel 9 Note Off - Duracao: 227760 Nota: C1 Vol.: 52
Chanel 9 Note On - Duracao: 227760 Nota: C1 Vol.: 42
Chanel 3 Note Off - Duracao: 227880 Nota: C1 Vol.: 82
Chanel 3 Note On - Duracao: 227880 Nota: C1 Vol.: 83
Chanel 5 Note Off - Duracao: 227940 Nota: C1 Vol.: 67
Chanel 5 Note On - Duracao: 227940 Nota: C1 Vol.: 60
Chanel 7 Note Off - Duracao: 227940 Nota: C1 Vol.: 72
Chanel 7 Note On - Duracao: 227940 Nota: C1 Vol.: 72
Chanel 10 Note Off - Duracao: 228060 Nota: C1 Vol.: 55
Chanel 10 Note On - Duracao: 228060 Nota: C1 Vol.: 56
Chanel 2 Note Off - Duracao: 228120 Nota: C1 Vol.: 41
Chanel 2 Note On - Duracao: 228120 Nota: C1 Vol.: 53
Chanel 3 Note Off - Duracao: 228120 Nota: C1 Vol.: 83
Chanel 3 Note On - Duracao: 228120 Nota: C1 Vol.: 79
Chanel 8 Note Off - Duracao: 228180 Nota: C1 Vol.: 72
Chanel 8 Note On - Duracao: 228180 Nota: C1 Vol.: 66
Chanel 2 Note Off - Duracao: 228240 Nota: C1 Vol.: 53
Chanel 2 Note On - Duracao: 228240 Nota: C1 Vol.: 50
Chanel 2 Note Off - Duracao: 228360 Nota: C1 Vol.: 50
Chanel 2 Note On - Duracao: 228360 Nota: C1 Vol.: 45
Chanel 3 Note Off - Duracao: 228360 Nota: C1 Vol.: 79
Chanel 3 Note On - Duracao: 228360 Nota: C1 Vol.: 84
Chanel 5 Note Off - Duracao: 228420 Nota: C1 Vol.: 60
Chanel 5 Note On - Duracao: 228420 Nota: C1 Vol.: 57
Chanel 2 Note Off - Duracao: 228480 Nota: C1 Vol.: 45
Chanel 2 Note On - Duracao: 228480 Nota: C1 Vol.: 41
Chanel 2 Note Off - Duracao: 228600 Nota: C1 Vol.: 41
Chanel 2 Note On - Duracao: 228600 Nota: C1 Vol.: 42
Chanel 3 Note Off - Duracao: 228600 Nota: C1 Vol.: 84
Chanel 3 Note On - Duracao: 228600 Nota: C1 Vol.: 96
Chanel 3 Note Off - Duracao: 228660 Nota: C1 Vol.: 96
Chanel 3 Note On - Duracao: 228660 Nota: C1 Vol.: 97
Chanel 8 Note Off - Duracao: 228660 Nota: C1 Vol.: 66
Chanel 8 Note On - Duracao: 228660 Nota: C1 Vol.: 63
Chanel 2 Note Off - Duracao: 228720 Nota: C1 Vol.: 42
Chanel 2 Note On - Duracao: 228720 Nota: C1 Vol.: 46
Chanel 3 Note Off - Duracao: 228720 Nota: C1 Vol.: 97
Chanel 3 Note On - Duracao: 228720 Nota: C1 Vol.: 83
Chanel 9 Note Off - Duracao: 228720 Nota: C1 Vol.: 42
Chanel 9 Note On - Duracao: 228720 Nota: C1 Vol.: 57
Chanel 2 Note Off - Duracao: 228840 Nota: C1 Vol.: 46
Chanel 2 Note On - Duracao: 228840 Nota: C1 Vol.: 53
Chanel 5 Note Off - Duracao: 228900 Nota: C1 Vol.: 57
Chanel 5 Note On - Duracao: 228900 Nota: C1 Vol.: 62
Chanel 2 Note Off - Duracao: 228960 Nota: C1 Vol.: 53
Chanel 2 Note On - Duracao: 228960 Nota: C1 Vol.: 46
Chanel 3 Note Off - Duracao: 228960 Nota: C1 Vol.: 83
Chanel 3 Note On - Duracao: 228960 Nota: C1 Vol.: 72
Chanel 9 Note Off - Duracao: 228960 Nota: C1 Vol.: 57
Chanel 9 Note On - Duracao: 228960 Nota: C1 Vol.: 59
Chanel 10 Note Off - Duracao: 229020 Nota: C1 Vol.: 56
Chanel 10 Note On - Duracao: 229020 Nota: C1 Vol.: 66
Chanel 9 Note Off - Duracao: 229080 Nota: C1 Vol.: 59
Chanel 9 Note On - Duracao: 229080 Nota: C1 Vol.: 57
Chanel 5 Note Off - Duracao: 229140 Nota: C1 Vol.: 62
Chanel 5 Note On - Duracao: 229140 Nota: C1 Vol.: 57
Chanel 8 Note Off - Duracao: 229140 Nota: C1 Vol.: 63
Chanel 8 Note On - Duracao: 229140 Nota: C1 Vol.: 47
Chanel 9 Note Off - Duracao: 229320 Nota: C1 Vol.: 57
Chanel 9 Note On - Duracao: 229320 Nota: C1 Vol.: 52
Chanel 2 Note Off - Duracao: 229440 Nota: C1 Vol.: 46
Chanel 2 Note On - Duracao: 229440 Nota: C1 Vol.: 40
Chanel 3 Note Off - Duracao: 229440 Nota: C1 Vol.: 72
Chanel 3 Note On - Duracao: 229440 Nota: C1 Vol.: 76
Chanel 10 Note Off - Duracao: 229500 Nota: C1 Vol.: 66
Chanel 10 Note On - Duracao: 229500 Nota: C1 Vol.: 64
Chanel 9 Note Off - Duracao: 229560 Nota: C1 Vol.: 52
Chanel 9 Note On - Duracao: 229560 Nota: C1 Vol.: 47
Chanel 5 Note Off - Duracao: 229620 Nota: C1 Vol.: 57
Chanel 5 Note On - Duracao: 229620 Nota: C1 Vol.: 52
Chanel 3 Note Off - Duracao: 229680 Nota: C1 Vol.: 76
Chanel 3 Note On - Duracao: 229680 Nota: C1 Vol.: 78
Chanel 7 Note Off - Duracao: 229860 Nota: C1 Vol.: 72
Chanel 7 Note On - Duracao: 229860 Nota: C1 Vol.: 71
Chanel 3 Note Off - Duracao: 229920 Nota: C1 Vol.: 78
Chanel 3 Note On - Duracao: 229920 Nota: C1 Vol.: 75
Chanel 6 Note Off - Duracao: 229980 Nota: C1 Vol.: 58
Chanel 6 Note On - Duracao: 229980 Nota: C1 Vol.: 62
Chanel 10 Note Off - Duracao: 229980 Nota: C1 Vol.: 64
Chanel 10 Note On - Duracao: 229980 Nota: C1 Vol.: 65
Chanel 9 Note Off - Duracao: 230040 Nota: C1 Vol.: 47
Chanel 9 Note On - Duracao: 230040 Nota: C1 Vol.: 44
Chanel 5 Note Off - Duracao: 230100 Nota: C1 Vol.: 52
Chanel 5 Note On - Duracao: 230100 Nota: C1 Vol.: 64
Chanel 8 Note Off - Duracao: 230100 Nota: C1 Vol.: 47
Chanel 8 Note On - Duracao: 230100 Nota: C1 Vol.: 41
Chanel 3 Note Off - Duracao: 230160 Nota: C1 Vol.: 75
Chanel 3 Note On - Duracao: 230160 Nota: C1 Vol.: 74
Chanel 5 Note Off - Duracao: 230340 Nota: C1 Vol.: 64
Chanel 5 Note On - Duracao: 230340 Nota: C1 Vol.: 63
Chanel 2 Note Off - Duracao: 230400 Nota: C1 Vol.: 40
Chanel 2 Note On - Duracao: 230400 Nota: C1 Vol.: 57
Chanel 3 Note Off - Duracao: 230400 Nota: C1 Vol.: 74
Chanel 3 Note On - Duracao: 230400 Nota: C1 Vol.: 76
Chanel 10 Note Off - Duracao: 230460 Nota: C1 Vol.: 65
Chanel 10 Note On - Duracao: 230460 Nota: C1 Vol.: 70
Chanel 9 Note Off - Duracao: 230520 Nota: C1 Vol.: 44
Chanel 9 Note On - Duracao: 230520 Nota: C1 Vol.: 50
Chanel 5 Note Off - Duracao: 230580 Nota: C1 Vol.: 63
Chanel 5 Note On - Duracao: 230580 Nota: C1 Vol.: 55
Chanel 3 Note Off - Duracao: 230640 Nota: C1 Vol.: 76
Chanel 3 Note On - Duracao: 230640 Nota: C1 Vol.: 75
Chanel 2 Note Off - Duracao: 230880 Nota: C1 Vol.: 57
Chanel 2 Note On - Duracao: 230880 Nota: C1 Vol.: 60
Chanel 3 Note Off - Duracao: 230880 Nota: C1 Vol.: 75
Chanel 3 Note On - Duracao: 230880 Nota: C1 Vol.: 68
Chanel 10 Note Off - Duracao: 230940 Nota: C1 Vol.: 70
Chanel 10 Note On - Duracao: 230940 Nota: C1 Vol.: 69
Chanel 9 Note Off - Duracao: 231000 Nota: C1 Vol.: 50
Chanel 9 Note On - Duracao: 231000 Nota: C1 Vol.: 54
Chanel 5 Note Off - Duracao: 231060 Nota: C1 Vol.: 55
Chanel 5 Note On - Duracao: 231060 Nota: C1 Vol.: 51
Chanel 3 Note Off - Duracao: 231120 Nota: C1 Vol.: 68
Chanel 3 Note On - Duracao: 231120 Nota: C1 Vol.: 68
Chanel 4 Note Off - Duracao: 231180 Nota: C1 Vol.: 44
Chanel 4 Note On - Duracao: 231180 Nota: C1 Vol.: 42
Chanel 9 Note Off - Duracao: 231240 Nota: C1 Vol.: 54
Chanel 9 Note On - Duracao: 231240 Nota: C1 Vol.: 57
Chanel 2 Note Off - Duracao: 231360 Nota: C1 Vol.: 60
Chanel 2 Note On - Duracao: 231360 Nota: C1 Vol.: 60
Chanel 3 Note Off - Duracao: 231360 Nota: C1 Vol.: 68
Chanel 3 Note On - Duracao: 231360 Nota: C1 Vol.: 72
Chanel 10 Note Off - Duracao: 231420 Nota: C1 Vol.: 69
Chanel 10 Note On - Duracao: 231420 Nota: C1 Vol.: 69
Chanel 9 Note Off - Duracao: 231480 Nota: C1 Vol.: 57
Chanel 9 Note On - Duracao: 231480 Nota: C1 Vol.: 56
Chanel 3 Note Off - Duracao: 231600 Nota: C1 Vol.: 72
Chanel 3 Note On - Duracao: 231600 Nota: C1 Vol.: 49
Chanel 7 Note Off - Duracao: 231780 Nota: C1 Vol.: 71
Chanel 7 Note On - Duracao: 231780 Nota: C1 Vol.: 72
Chanel 2 Note Off - Duracao: 231840 Nota: C1 Vol.: 60
Chanel 2 Note On - Duracao: 231840 Nota: C1 Vol.: 64
Chanel 10 Note Off - Duracao: 231900 Nota: C1 Vol.: 69
Chanel 10 Note On - Duracao: 231900 Nota: C1 Vol.: 71
Chanel 9 Note Off - Duracao: 231960 Nota: C1 Vol.: 56
Chanel 9 Note On - Duracao: 231960 Nota: C1 Vol.: 52
Chanel 5 Note Off - Duracao: 232020 Nota: C1 Vol.: 51
Chanel 5 Note On - Duracao: 232020 Nota: C1 Vol.: 45
Chanel 8 Note Off - Duracao: 232020 Nota: C1 Vol.: 41
Chanel 8 Note On - Duracao: 232020 Nota: C1 Vol.: 42
Chanel 10 Note Off - Duracao: 232380 Nota: C1 Vol.: 71
Chanel 10 Note On - Duracao: 232380 Nota: C1 Vol.: 74
Chanel 9 Note Off - Duracao: 232440 Nota: C1 Vol.: 52
Chanel 9 Note On - Duracao: 232440 Nota: C1 Vol.: 61
Chanel 3 Note Off - Duracao: 232560 Nota: C1 Vol.: 49
Chanel 3 Note On - Duracao: 232560 Nota: C1 Vol.: 48
Chanel 2 Note Off - Duracao: 232800 Nota: C1 Vol.: 64
Chanel 2 Note On - Duracao: 232800 Nota: C1 Vol.: 65
Chanel 10 Note Off - Duracao: 232860 Nota: C1 Vol.: 74
Chanel 10 Note On - Duracao: 232860 Nota: C1 Vol.: 70
Chanel 9 Note Off - Duracao: 232920 Nota: C1 Vol.: 61
Chanel 9 Note On - Duracao: 232920 Nota: C1 Vol.: 59
Chanel 5 Note Off - Duracao: 232980 Nota: C1 Vol.: 45
Chanel 5 Note On - Duracao: 232980 Nota: C1 Vol.: 47
Chanel 10 Note Off - Duracao: 233340 Nota: C1 Vol.: 70
Chanel 10 Note On - Duracao: 233340 Nota: C1 Vol.: 72
Chanel 9 Note Off - Duracao: 233400 Nota: C1 Vol.: 59
Chanel 9 Note On - Duracao: 233400 Nota: C1 Vol.: 62
Chanel 3 Note Off - Duracao: 233520 Nota: C1 Vol.: 48
Chanel 3 Note On - Duracao: 233520 Nota: C1 Vol.: 50
Chanel 7 Note Off - Duracao: 233700 Nota: C1 Vol.: 72
Chanel 7 Note On - Duracao: 233700 Nota: C1 Vol.: 71
Chanel 2 Note Off - Duracao: 233760 Nota: C1 Vol.: 65
Chanel 2 Note On - Duracao: 233760 Nota: C1 Vol.: 70
Chanel 6 Note Off - Duracao: 233820 Nota: C1 Vol.: 62
Chanel 6 Note On - Duracao: 233820 Nota: C1 Vol.: 64
Chanel 10 Note Off - Duracao: 233820 Nota: C1 Vol.: 72
Chanel 10 Note On - Duracao: 233820 Nota: C1 Vol.: 63
Chanel 9 Note Off - Duracao: 233880 Nota: C1 Vol.: 62
Chanel 9 Note On - Duracao: 233880 Nota: C1 Vol.: 59
Chanel 5 Note Off - Duracao: 233940 Nota: C1 Vol.: 47
Chanel 5 Note On - Duracao: 233940 Nota: C1 Vol.: 58
Chanel 8 Note Off - Duracao: 233940 Nota: C1 Vol.: 42
Chanel 8 Note On - Duracao: 233940 Nota: C1 Vol.: 40
Chanel 9 Note Off - Duracao: 234360 Nota: C1 Vol.: 59
Chanel 9 Note On - Duracao: 234360 Nota: C1 Vol.: 52
Chanel 5 Note Off - Duracao: 234420 Nota: C1 Vol.: 58
Chanel 5 Note On - Duracao: 234420 Nota: C1 Vol.: 44
Chanel 3 Note Off - Duracao: 234480 Nota: C1 Vol.: 50
Chanel 3 Note On - Duracao: 234480 Nota: C1 Vol.: 52
Chanel 2 Note Off - Duracao: 234720 Nota: C1 Vol.: 70
Chanel 2 Note On - Duracao: 234720 Nota: C1 Vol.: 75
Chanel 10 Note Off - Duracao: 234780 Nota: C1 Vol.: 63
Chanel 10 Note On - Duracao: 234780 Nota: C1 Vol.: 63
Chanel 4 Note Off - Duracao: 235020 Nota: C1 Vol.: 42
Chanel 4 Note On - Duracao: 235020 Nota: C1 Vol.: 41
Chanel 2 Note Off - Duracao: 235200 Nota: C1 Vol.: 75
Chanel 2 Note On - Duracao: 235200 Nota: C1 Vol.: 78
Chanel 9 Note Off - Duracao: 235320 Nota: C1 Vol.: 52
Chanel 9 Note On - Duracao: 235320 Nota: C1 Vol.: 55
Chanel 3 Note Off - Duracao: 235440 Nota: C1 Vol.: 52
Chanel 3 Note On - Duracao: 235440 Nota: C1 Vol.: 55
Chanel 7 Note Off - Duracao: 235620 Nota: C1 Vol.: 71
Chanel 7 Note On - Duracao: 235620 Nota: C1 Vol.: 74
Chanel 10 Note Off - Duracao: 235740 Nota: C1 Vol.: 63
Chanel 10 Note On - Duracao: 235740 Nota: C1 Vol.: 68
Chanel 9 Note Off - Duracao: 235800 Nota: C1 Vol.: 55
Chanel 9 Note On - Duracao: 235800 Nota: C1 Vol.: 53
Chanel 8 Note Off - Duracao: 235860 Nota: C1 Vol.: 40
Chanel 8 Note On - Duracao: 235860 Nota: C1 Vol.: 41
Chanel 9 Note Off - Duracao: 236040 Nota: C1 Vol.: 53
Chanel 9 Note On - Duracao: 236040 Nota: C1 Vol.: 48
Chanel 2 Note Off - Duracao: 236160 Nota: C1 Vol.: 78
Chanel 2 Note On - Duracao: 236160 Nota: C1 Vol.: 77
Chanel 9 Note Off - Duracao: 236160 Nota: C1 Vol.: 48
Chanel 9 Note On - Duracao: 236160 Nota: C1 Vol.: 49
Chanel 10 Note Off - Duracao: 236220 Nota: C1 Vol.: 68
Chanel 10 Note On - Duracao: 236220 Nota: C1 Vol.: 60
Chanel 9 Note Off - Duracao: 236280 Nota: C1 Vol.: 49
Chanel 9 Note On - Duracao: 236280 Nota: C1 Vol.: 50
Chanel 5 Note Off - Duracao: 236340 Nota: C1 Vol.: 44
Chanel 5 Note On - Duracao: 236340 Nota: C1 Vol.: 50
Chanel 3 Note Off - Duracao: 236400 Nota: C1 Vol.: 55
Chanel 3 Note On - Duracao: 236400 Nota: C1 Vol.: 59
Chanel 9 Note Off - Duracao: 236400 Nota: C1 Vol.: 50
Chanel 9 Note On - Duracao: 236400 Nota: C1 Vol.: 50
Chanel 9 Note Off - Duracao: 236520 Nota: C1 Vol.: 50
Chanel 9 Note On - Duracao: 236520 Nota: C1 Vol.: 52
Chanel 2 Note Off - Duracao: 236640 Nota: C1 Vol.: 77
Chanel 2 Note On - Duracao: 236640 Nota: C1 Vol.: 66
Chanel 9 Note Off - Duracao: 236640 Nota: C1 Vol.: 52
Chanel 9 Note On - Duracao: 236640 Nota: C1 Vol.: 50
Chanel 9 Note Off - Duracao: 236760 Nota: C1 Vol.: 50
Chanel 9 Note On - Duracao: 236760 Nota: C1 Vol.: 53
Chanel 3 Note Off - Duracao: 236880 Nota: C1 Vol.: 59
Chanel 3 Note On - Duracao: 236880 Nota: C1 Vol.: 67
Chanel 9 Note Off - Duracao: 236880 Nota: C1 Vol.: 53
Chanel 9 Note On - Duracao: 236880 Nota: C1 Vol.: 51
Chanel 9 Note Off - Duracao: 237000 Nota: C1 Vol.: 51
Chanel 9 Note On - Duracao: 237000 Nota: C1 Vol.: 53
Chanel 3 Note Off - Duracao: 237120 Nota: C1 Vol.: 67
Chanel 3 Note On - Duracao: 237120 Nota: C1 Vol.: 52
Chanel 9 Note Off - Duracao: 237120 Nota: C1 Vol.: 53
Chanel 9 Note On - Duracao: 237120 Nota: C1 Vol.: 52
Chanel 10 Note Off - Duracao: 237180 Nota: C1 Vol.: 60
Chanel 10 Note On - Duracao: 237180 Nota: C1 Vol.: 64
Chanel 9 Note Off - Duracao: 237240 Nota: C1 Vol.: 52
Chanel 9 Note On - Duracao: 237240 Nota: C1 Vol.: 44
Chanel 5 Note Off - Duracao: 237300 Nota: C1 Vol.: 50
Chanel 5 Note On - Duracao: 237300 Nota: C1 Vol.: 58
Chanel 9 Note Off - Duracao: 237480 Nota: C1 Vol.: 44
Chanel 9 Note On - Duracao: 237480 Nota: C1 Vol.: 44
Chanel 7 Note Off - Duracao: 237540 Nota: C1 Vol.: 74
Chanel 7 Note On - Duracao: 237540 Nota: C1 Vol.: 73
Chanel 2 Note Off - Duracao: 237600 Nota: C1 Vol.: 66
Chanel 2 Note On - Duracao: 237600 Nota: C1 Vol.: 65
Chanel 6 Note Off - Duracao: 237660 Nota: C1 Vol.: 64
Chanel 6 Note On - Duracao: 237660 Nota: C1 Vol.: 63
Chanel 10 Note Off - Duracao: 237660 Nota: C1 Vol.: 64
Chanel 10 Note On - Duracao: 237660 Nota: C1 Vol.: 58
Chanel 9 Note Off - Duracao: 237720 Nota: C1 Vol.: 44
Chanel 9 Note On - Duracao: 237720 Nota: C1 Vol.: 55
Chanel 8 Note Off - Duracao: 237780 Nota: C1 Vol.: 41
Chanel 8 Note On - Duracao: 237780 Nota: C1 Vol.: 43
Chanel 9 Note Off - Duracao: 237840 Nota: C1 Vol.: 55
Chanel 9 Note On - Duracao: 237840 Nota: C1 Vol.: 49
Chanel 2 Note Off - Duracao: 238080 Nota: C1 Vol.: 65
Chanel 2 Note On - Duracao: 238080 Nota: C1 Vol.: 78
Chanel 3 Note Off - Duracao: 238080 Nota: C1 Vol.: 52
Chanel 3 Note On - Duracao: 238080 Nota: C1 Vol.: 59
Chanel 9 Note Off - Duracao: 238080 Nota: C1 Vol.: 49
Chanel 9 Note On - Duracao: 238080 Nota: C1 Vol.: 58
Chanel 10 Note Off - Duracao: 238140 Nota: C1 Vol.: 58
Chanel 10 Note On - Duracao: 238140 Nota: C1 Vol.: 64
Chanel 9 Note Off - Duracao: 238200 Nota: C1 Vol.: 58
Chanel 9 Note On - Duracao: 238200 Nota: C1 Vol.: 56
Chanel 5 Note Off - Duracao: 238260 Nota: C1 Vol.: 58
Chanel 5 Note On - Duracao: 238260 Nota: C1 Vol.: 84
Chanel 2 Note Off - Duracao: 238320 Nota: C1 Vol.: 78
Chanel 2 Note On - Duracao: 238320 Nota: C1 Vol.: 76
Chanel 9 Note Off - Duracao: 238320 Nota: C1 Vol.: 56
Chanel 9 Note On - Duracao: 238320 Nota: C1 Vol.: 55
Chanel 5 Note Off - Duracao: 238380 Nota: C1 Vol.: 84
Chanel 5 Note On - Duracao: 238380 Nota: C1 Vol.: 94
Chanel 5 Note Off - Duracao: 238440 Nota: C1 Vol.: 94
Chanel 5 Note On - Duracao: 238440 Nota: C1 Vol.: 92
Chanel 9 Note Off - Duracao: 238440 Nota: C1 Vol.: 55
Chanel 9 Note On - Duracao: 238440 Nota: C1 Vol.: 52
Chanel 2 Note Off - Duracao: 238560 Nota: C1 Vol.: 76
Chanel 2 Note On - Duracao: 238560 Nota: C1 Vol.: 85
Chanel 3 Note Off - Duracao: 238560 Nota: C1 Vol.: 59
Chanel 3 Note On - Duracao: 238560 Nota: C1 Vol.: 59
Chanel 5 Note Off - Duracao: 238560 Nota: C1 Vol.: 92
Chanel 5 Note On - Duracao: 238560 Nota: C1 Vol.: 85
Chanel 10 Note Off - Duracao: 238620 Nota: C1 Vol.: 64
Chanel 10 Note On - Duracao: 238620 Nota: C1 Vol.: 65
Chanel 5 Note Off - Duracao: 238680 Nota: C1 Vol.: 85
Chanel 5 Note On - Duracao: 238680 Nota: C1 Vol.: 74
Chanel 9 Note Off - Duracao: 238680 Nota: C1 Vol.: 52
Chanel 9 Note On - Duracao: 238680 Nota: C1 Vol.: 53
Chanel 8 Note Off - Duracao: 238740 Nota: C1 Vol.: 43
Chanel 8 Note On - Duracao: 238740 Nota: C1 Vol.: 55
Chanel 2 Note Off - Duracao: 238800 Nota: C1 Vol.: 85
Chanel 2 Note On - Duracao: 238800 Nota: C1 Vol.: 93
Chanel 4 Note Off - Duracao: 238860 Nota: C1 Vol.: 41
Chanel 4 Note On - Duracao: 238860 Nota: C1 Vol.: 40
Chanel 2 Note Off - Duracao: 238920 Nota: C1 Vol.: 93
Chanel 2 Note On - Duracao: 238920 Nota: C1 Vol.: 83
Chanel 5 Note Off - Duracao: 238920 Nota: C1 Vol.: 74
Chanel 5 Note On - Duracao: 238920 Nota: C1 Vol.: 47
Chanel 9 Note Off - Duracao: 238920 Nota: C1 Vol.: 53
Chanel 9 Note On - Duracao: 238920 Nota: C1 Vol.: 55
Chanel 3 Note Off - Duracao: 239040 Nota: C1 Vol.: 59
Chanel 3 Note On - Duracao: 239040 Nota: C1 Vol.: 58
Chanel 9 Note Off - Duracao: 239040 Nota: C1 Vol.: 55
Chanel 9 Note On - Duracao: 239040 Nota: C1 Vol.: 55
Chanel 10 Note Off - Duracao: 239100 Nota: C1 Vol.: 65
Chanel 10 Note On - Duracao: 239100 Nota: C1 Vol.: 57
Chanel 2 Note Off - Duracao: 239160 Nota: C1 Vol.: 83
Chanel 2 Note On - Duracao: 239160 Nota: C1 Vol.: 77
Chanel 9 Note Off - Duracao: 239160 Nota: C1 Vol.: 55
Chanel 9 Note On - Duracao: 239160 Nota: C1 Vol.: 49
Chanel 8 Note Off - Duracao: 239220 Nota: C1 Vol.: 55
Chanel 8 Note On - Duracao: 239220 Nota: C1 Vol.: 52
Chanel 9 Note Off - Duracao: 239280 Nota: C1 Vol.: 49
Chanel 9 Note On - Duracao: 239280 Nota: C1 Vol.: 50
Chanel 9 Note Off - Duracao: 239400 Nota: C1 Vol.: 50
Chanel 9 Note On - Duracao: 239400 Nota: C1 Vol.: 54
Chanel 7 Note Off - Duracao: 239460 Nota: C1 Vol.: 73
Chanel 7 Note On - Duracao: 239460 Nota: C1 Vol.: 75
Chanel 3 Note Off - Duracao: 239520 Nota: C1 Vol.: 58
Chanel 3 Note On - Duracao: 239520 Nota: C1 Vol.: 54
Chanel 9 Note Off - Duracao: 239520 Nota: C1 Vol.: 54
Chanel 9 Note On - Duracao: 239520 Nota: C1 Vol.: 52
Chanel 2 Note Off - Duracao: 239640 Nota: C1 Vol.: 77
Chanel 2 Note On - Duracao: 239640 Nota: C1 Vol.: 80
Chanel 9 Note Off - Duracao: 239640 Nota: C1 Vol.: 52
Chanel 9 Note On - Duracao: 239640 Nota: C1 Vol.: 53
Chanel 8 Note Off - Duracao: 239700 Nota: C1 Vol.: 52
Chanel 8 Note On - Duracao: 239700 Nota: C1 Vol.: 56
Chanel 9 Note Off - Duracao: 239760 Nota: C1 Vol.: 53
Chanel 9 Note On - Duracao: 239760 Nota: C1 Vol.: 56
Chanel 2 Note Off - Duracao: 239880 Nota: C1 Vol.: 80
Chanel 2 Note On - Duracao: 239880 Nota: C1 Vol.: 77
Chanel 9 Note Off - Duracao: 240000 Nota: C1 Vol.: 56
Chanel 9 Note On - Duracao: 240000 Nota: C1 Vol.: 60
Chanel 10 Note Off - Duracao: 240060 Nota: C1 Vol.: 57
Chanel 10 Note On - Duracao: 240060 Nota: C1 Vol.: 52
Chanel 9 Note Off - Duracao: 240120 Nota: C1 Vol.: 60
Chanel 9 Note On - Duracao: 240120 Nota: C1 Vol.: 62
Chanel 8 Note Off - Duracao: 240180 Nota: C1 Vol.: 56
Chanel 8 Note On - Duracao: 240180 Nota: C1 Vol.: 59
Chanel 2 Note Off - Duracao: 240360 Nota: C1 Vol.: 77
Chanel 2 Note On - Duracao: 240360 Nota: C1 Vol.: 84
Chanel 9 Note Off - Duracao: 240360 Nota: C1 Vol.: 62
Chanel 9 Note On - Duracao: 240360 Nota: C1 Vol.: 65
Chanel 3 Note Off - Duracao: 240480 Nota: C1 Vol.: 54
Chanel 3 Note On - Duracao: 240480 Nota: C1 Vol.: 59
Chanel 9 Note Off - Duracao: 240480 Nota: C1 Vol.: 65
Chanel 9 Note On - Duracao: 240480 Nota: C1 Vol.: 68
Chanel 2 Note Off - Duracao: 240600 Nota: C1 Vol.: 84
Chanel 2 Note On - Duracao: 240600 Nota: C1 Vol.: 81
Chanel 9 Note Off - Duracao: 240600 Nota: C1 Vol.: 68
Chanel 9 Note On - Duracao: 240600 Nota: C1 Vol.: 61
Chanel 8 Note Off - Duracao: 240660 Nota: C1 Vol.: 59
Chanel 8 Note On - Duracao: 240660 Nota: C1 Vol.: 59
Chanel 2 Note Off - Duracao: 240840 Nota: C1 Vol.: 81
Chanel 2 Note On - Duracao: 240840 Nota: C1 Vol.: 85
Chanel 9 Note Off - Duracao: 240840 Nota: C1 Vol.: 61
Chanel 9 Note On - Duracao: 240840 Nota: C1 Vol.: 55
Chanel 3 Note Off - Duracao: 240960 Nota: C1 Vol.: 59
Chanel 3 Note On - Duracao: 240960 Nota: C1 Vol.: 60
Chanel 10 Note Off - Duracao: 241020 Nota: C1 Vol.: 52
Chanel 10 Note On - Duracao: 241020 Nota: C1 Vol.: 56
Chanel 2 Note Off - Duracao: 241080 Nota: C1 Vol.: 85
Chanel 2 Note On - Duracao: 241080 Nota: C1 Vol.: 86
Chanel 9 Note Off - Duracao: 241080 Nota: C1 Vol.: 55
Chanel 9 Note On - Duracao: 241080 Nota: C1 Vol.: 51
Chanel 8 Note Off - Duracao: 241140 Nota: C1 Vol.: 59
Chanel 8 Note On - Duracao: 241140 Nota: C1 Vol.: 50
Chanel 2 Note Off - Duracao: 241320 Nota: C1 Vol.: 86
Chanel 2 Note On - Duracao: 241320 Nota: C1 Vol.: 75
Chanel 7 Note Off - Duracao: 241380 Nota: C1 Vol.: 75
Chanel 7 Note On - Duracao: 241380 Nota: C1 Vol.: 72
Chanel 3 Note Off - Duracao: 241440 Nota: C1 Vol.: 60
Chanel 3 Note On - Duracao: 241440 Nota: C1 Vol.: 64
Chanel 6 Note Off - Duracao: 241500 Nota: C1 Vol.: 63
Chanel 6 Note On - Duracao: 241500 Nota: C1 Vol.: 62
Chanel 9 Note Off - Duracao: 241560 Nota: C1 Vol.: 51
Chanel 9 Note On - Duracao: 241560 Nota: C1 Vol.: 45
Chanel 3 Note Off - Duracao: 241680 Nota: C1 Vol.: 64
Chanel 3 Note On - Duracao: 241680 Nota: C1 Vol.: 69
Chanel 2 Note Off - Duracao: 241800 Nota: C1 Vol.: 75
Chanel 2 Note On - Duracao: 241800 Nota: C1 Vol.: 80
Chanel 3 Note Off - Duracao: 241920 Nota: C1 Vol.: 69
Chanel 3 Note On - Duracao: 241920 Nota: C1 Vol.: 69
Chanel 10 Note Off - Duracao: 241980 Nota: C1 Vol.: 56
Chanel 10 Note On - Duracao: 241980 Nota: C1 Vol.: 59
Chanel 2 Note Off - Duracao: 242040 Nota: C1 Vol.: 80
Chanel 2 Note On - Duracao: 242040 Nota: C1 Vol.: 81
Chanel 8 Note Off - Duracao: 242100 Nota: C1 Vol.: 50
Chanel 8 Note On - Duracao: 242100 Nota: C1 Vol.: 45
Chanel 3 Note Off - Duracao: 242160 Nota: C1 Vol.: 69
Chanel 3 Note On - Duracao: 242160 Nota: C1 Vol.: 51
Chanel 2 Note Off - Duracao: 242280 Nota: C1 Vol.: 81
Chanel 2 Note On - Duracao: 242280 Nota: C1 Vol.: 82
Chanel 10 Note Off - Duracao: 242460 Nota: C1 Vol.: 59
Chanel 10 Note On - Duracao: 242460 Nota: C1 Vol.: 57
Chanel 2 Note Off - Duracao: 242520 Nota: C1 Vol.: 82
Chanel 2 Note On - Duracao: 242520 Nota: C1 Vol.: 83
Chanel 9 Note Off - Duracao: 242520 Nota: C1 Vol.: 45
Chanel 9 Note On - Duracao: 242520 Nota: C1 Vol.: 47
Chanel 4 Note Off - Duracao: 242700 Nota: C1 Vol.: 40
Chanel 4 Note On - Duracao: 242700 Nota: C1 Vol.: 40
Chanel 2 Note Off - Duracao: 242760 Nota: C1 Vol.: 83
Chanel 2 Note On - Duracao: 242760 Nota: C1 Vol.: 76
Chanel 5 Note Off - Duracao: 242760 Nota: C1 Vol.: 47
Chanel 5 Note On - Duracao: 242760 Nota: C1 Vol.: 55
Chanel 10 Note Off - Duracao: 242940 Nota: C1 Vol.: 57
Chanel 10 Note On - Duracao: 242940 Nota: C1 Vol.: 60
Chanel 8 Note Off - Duracao: 243060 Nota: C1 Vol.: 45
Chanel 8 Note On - Duracao: 243060 Nota: C1 Vol.: 45
Chanel 3 Note Off - Duracao: 243120 Nota: C1 Vol.: 51
Chanel 3 Note On - Duracao: 243120 Nota: C1 Vol.: 60
Chanel 2 Note Off - Duracao: 243240 Nota: C1 Vol.: 76
Chanel 2 Note On - Duracao: 243240 Nota: C1 Vol.: 77
Chanel 7 Note Off - Duracao: 243300 Nota: C1 Vol.: 72
Chanel 7 Note On - Duracao: 243300 Nota: C1 Vol.: 72
Chanel 10 Note Off - Duracao: 243420 Nota: C1 Vol.: 60
Chanel 10 Note On - Duracao: 243420 Nota: C1 Vol.: 58
Chanel 9 Note Off - Duracao: 243480 Nota: C1 Vol.: 47
Chanel 9 Note On - Duracao: 243480 Nota: C1 Vol.: 52
Chanel 3 Note Off - Duracao: 243600 Nota: C1 Vol.: 60
Chanel 3 Note On - Duracao: 243600 Nota: C1 Vol.: 54
Chanel 2 Note Off - Duracao: 243720 Nota: C1 Vol.: 77
Chanel 2 Note On - Duracao: 243720 Nota: C1 Vol.: 80
Chanel 10 Note Off - Duracao: 243900 Nota: C1 Vol.: 58
Chanel 10 Note On - Duracao: 243900 Nota: C1 Vol.: 54
Chanel 2 Note Off - Duracao: 243960 Nota: C1 Vol.: 80
Chanel 2 Note On - Duracao: 243960 Nota: C1 Vol.: 75
Chanel 8 Note Off - Duracao: 244020 Nota: C1 Vol.: 45
Chanel 8 Note On - Duracao: 244020 Nota: C1 Vol.: 44
Chanel 3 Note Off - Duracao: 244080 Nota: C1 Vol.: 54
Chanel 3 Note On - Duracao: 244080 Nota: C1 Vol.: 57
Chanel 2 Note Off - Duracao: 244200 Nota: C1 Vol.: 75
Chanel 2 Note On - Duracao: 244200 Nota: C1 Vol.: 79
Chanel 2 Note Off - Duracao: 244440 Nota: C1 Vol.: 79
Chanel 2 Note On - Duracao: 244440 Nota: C1 Vol.: 78
Chanel 9 Note Off - Duracao: 244440 Nota: C1 Vol.: 52
Chanel 9 Note On - Duracao: 244440 Nota: C1 Vol.: 52
Chanel 3 Note Off - Duracao: 244560 Nota: C1 Vol.: 57
Chanel 3 Note On - Duracao: 244560 Nota: C1 Vol.: 60
Chanel 4 Note Off - Duracao: 244620 Nota: C1 Vol.: 40
Chanel 4 Note On - Duracao: 244620 Nota: C1 Vol.: 40
Chanel 2 Note Off - Duracao: 244680 Nota: C1 Vol.: 78
Chanel 2 Note On - Duracao: 244680 Nota: C1 Vol.: 76
Chanel 5 Note Off - Duracao: 244680 Nota: C1 Vol.: 55
Chanel 5 Note On - Duracao: 244680 Nota: C1 Vol.: 50
Chanel 10 Note Off - Duracao: 244860 Nota: C1 Vol.: 54
Chanel 10 Note On - Duracao: 244860 Nota: C1 Vol.: 55
Chanel 2 Note Off - Duracao: 244920 Nota: C1 Vol.: 76
Chanel 2 Note On - Duracao: 244920 Nota: C1 Vol.: 85
Chanel 2 Note Off - Duracao: 245040 Nota: C1 Vol.: 85
Chanel 2 Note On - Duracao: 245040 Nota: C1 Vol.: 94
Chanel 3 Note Off - Duracao: 245040 Nota: C1 Vol.: 60
Chanel 3 Note On - Duracao: 245040 Nota: C1 Vol.: 47
Chanel 2 Note Off - Duracao: 245100 Nota: C1 Vol.: 94
Chanel 2 Note On - Duracao: 245100 Nota: C1 Vol.: 95
Chanel 2 Note Off - Duracao: 245160 Nota: C1 Vol.: 95
Chanel 2 Note On - Duracao: 245160 Nota: C1 Vol.: 96
Chanel 2 Note Off - Duracao: 245220 Nota: C1 Vol.: 96
Chanel 2 Note On - Duracao: 245220 Nota: C1 Vol.: 95
Chanel 7 Note Off - Duracao: 245220 Nota: C1 Vol.: 72
Chanel 7 Note On - Duracao: 245220 Nota: C1 Vol.: 71
Chanel 2 Note Off - Duracao: 245280 Nota: C1 Vol.: 95
Chanel 2 Note On - Duracao: 245280 Nota: C1 Vol.: 92
Chanel 2 Note Off - Duracao: 245340 Nota: C1 Vol.: 92
Chanel 2 Note On - Duracao: 245340 Nota: C1 Vol.: 79
Chanel 6 Note Off - Duracao: 245340 Nota: C1 Vol.: 62
Chanel 6 Note On - Duracao: 245340 Nota: C1 Vol.: 64
Chanel 9 Note Off - Duracao: 245400 Nota: C1 Vol.: 52
Chanel 9 Note On - Duracao: 245400 Nota: C1 Vol.: 58
Chanel 2 Note Off - Duracao: 245460 Nota: C1 Vol.: 79
Chanel 2 Note On - Duracao: 245460 Nota: C1 Vol.: 67
Chanel 2 Note Off - Duracao: 245700 Nota: C1 Vol.: 67
Chanel 2 Note On - Duracao: 245700 Nota: C1 Vol.: 61
Chanel 10 Note Off - Duracao: 245820 Nota: C1 Vol.: 55
Chanel 10 Note On - Duracao: 245820 Nota: C1 Vol.: 54
Chanel 9 Note Off - Duracao: 245880 Nota: C1 Vol.: 58
Chanel 9 Note On - Duracao: 245880 Nota: C1 Vol.: 49
Chanel 8 Note Off - Duracao: 245940 Nota: C1 Vol.: 44
Chanel 8 Note On - Duracao: 245940 Nota: C1 Vol.: 48
Chanel 3 Note Off - Duracao: 246000 Nota: C1 Vol.: 47
Chanel 3 Note On - Duracao: 246000 Nota: C1 Vol.: 67
Chanel 2 Note Off - Duracao: 246180 Nota: C1 Vol.: 61
Chanel 2 Note On - Duracao: 246180 Nota: C1 Vol.: 60
Chanel 3 Note Off - Duracao: 246240 Nota: C1 Vol.: 67
Chanel 3 Note On - Duracao: 246240 Nota: C1 Vol.: 49
Chanel 4 Note Off - Duracao: 246540 Nota: C1 Vol.: 40
Chanel 4 Note On - Duracao: 246540 Nota: C1 Vol.: 40
Chanel 2 Note Off - Duracao: 246660 Nota: C1 Vol.: 60
Chanel 2 Note On - Duracao: 246660 Nota: C1 Vol.: 61
Chanel 10 Note Off - Duracao: 246780 Nota: C1 Vol.: 54
Chanel 10 Note On - Duracao: 246780 Nota: C1 Vol.: 50
Chanel 9 Note Off - Duracao: 246840 Nota: C1 Vol.: 49
Chanel 9 Note On - Duracao: 246840 Nota: C1 Vol.: 63
Chanel 8 Note Off - Duracao: 246900 Nota: C1 Vol.: 48
Chanel 8 Note On - Duracao: 246900 Nota: C1 Vol.: 51
Chanel 2 Note Off - Duracao: 247140 Nota: C1 Vol.: 61
Chanel 2 Note On - Duracao: 247140 Nota: C1 Vol.: 58
Chanel 7 Note Off - Duracao: 247140 Nota: C1 Vol.: 71
Chanel 7 Note On - Duracao: 247140 Nota: C1 Vol.: 73
Chanel 3 Note Off - Duracao: 247200 Nota: C1 Vol.: 49
Chanel 3 Note On - Duracao: 247200 Nota: C1 Vol.: 55
Chanel 6 Note Off - Duracao: 247260 Nota: C1 Vol.: 64
Chanel 6 Note On - Duracao: 247260 Nota: C1 Vol.: 63
Chanel 9 Note Off - Duracao: 247320 Nota: C1 Vol.: 63
Chanel 9 Note On - Duracao: 247320 Nota: C1 Vol.: 70
Chanel 9 Note Off - Duracao: 247560 Nota: C1 Vol.: 70
Chanel 9 Note On - Duracao: 247560 Nota: C1 Vol.: 65
Chanel 2 Note Off - Duracao: 247620 Nota: C1 Vol.: 58
Chanel 2 Note On - Duracao: 247620 Nota: C1 Vol.: 55
Chanel 10 Note Off - Duracao: 247740 Nota: C1 Vol.: 50
Chanel 10 Note On - Duracao: 247740 Nota: C1 Vol.: 52
Chanel 8 Note Off - Duracao: 247860 Nota: C1 Vol.: 51
Chanel 8 Note On - Duracao: 247860 Nota: C1 Vol.: 51
Chanel 9 Note Off - Duracao: 248040 Nota: C1 Vol.: 65
Chanel 9 Note On - Duracao: 248040 Nota: C1 Vol.: 67
Chanel 2 Note Off - Duracao: 248100 Nota: C1 Vol.: 55
Chanel 2 Note On - Duracao: 248100 Nota: C1 Vol.: 57
Chanel 3 Note Off - Duracao: 248160 Nota: C1 Vol.: 55
Chanel 3 Note On - Duracao: 248160 Nota: C1 Vol.: 47
Chanel 9 Note Off - Duracao: 248280 Nota: C1 Vol.: 67
Chanel 9 Note On - Duracao: 248280 Nota: C1 Vol.: 67
Chanel 2 Note Off - Duracao: 248340 Nota: C1 Vol.: 57
Chanel 2 Note On - Duracao: 248340 Nota: C1 Vol.: 54
Chanel 4 Note Off - Duracao: 248460 Nota: C1 Vol.: 40
Chanel 4 Note On - Duracao: 248460 Nota: C1 Vol.: 40
Chanel 5 Note Off - Duracao: 248520 Nota: C1 Vol.: 50
Chanel 5 Note On - Duracao: 248520 Nota: C1 Vol.: 40
Chanel 9 Note Off - Duracao: 248520 Nota: C1 Vol.: 67
Chanel 9 Note On - Duracao: 248520 Nota: C1 Vol.: 64
Chanel 2 Note Off - Duracao: 248580 Nota: C1 Vol.: 54
Chanel 2 Note On - Duracao: 248580 Nota: C1 Vol.: 58
Chanel 10 Note Off - Duracao: 248700 Nota: C1 Vol.: 52
Chanel 10 Note On - Duracao: 248700 Nota: C1 Vol.: 55
Chanel 2 Note Off - Duracao: 248820 Nota: C1 Vol.: 58
Chanel 2 Note On - Duracao: 248820 Nota: C1 Vol.: 57
Chanel 8 Note Off - Duracao: 248820 Nota: C1 Vol.: 51
Chanel 8 Note On - Duracao: 248820 Nota: C1 Vol.: 52
Chanel 9 Note Off - Duracao: 249000 Nota: C1 Vol.: 64
Chanel 9 Note On - Duracao: 249000 Nota: C1 Vol.: 76
Chanel 2 Note Off - Duracao: 249060 Nota: C1 Vol.: 57
Chanel 2 Note On - Duracao: 249060 Nota: C1 Vol.: 59
Chanel 7 Note Off - Duracao: 249060 Nota: C1 Vol.: 73
Chanel 7 Note On - Duracao: 249060 Nota: C1 Vol.: 72
Chanel 6 Note Off - Duracao: 249180 Nota: C1 Vol.: 63
Chanel 6 Note On - Duracao: 249180 Nota: C1 Vol.: 57
Chanel 10 Note Off - Duracao: 249180 Nota: C1 Vol.: 55
Chanel 10 Note On - Duracao: 249180 Nota: C1 Vol.: 57
Chanel 9 Note Off - Duracao: 249240 Nota: C1 Vol.: 76
Chanel 9 Note On - Duracao: 249240 Nota: C1 Vol.: 86
Chanel 2 Note Off - Duracao: 249300 Nota: C1 Vol.: 59
Chanel 2 Note On - Duracao: 249300 Nota: C1 Vol.: 57
Chanel 9 Note Off - Duracao: 249360 Nota: C1 Vol.: 86
Chanel 9 Note On - Duracao: 249360 Nota: C1 Vol.: 81
Chanel 2 Note Off - Duracao: 249540 Nota: C1 Vol.: 57
Chanel 2 Note On - Duracao: 249540 Nota: C1 Vol.: 57
Chanel 9 Note Off - Duracao: 249600 Nota: C1 Vol.: 81
Chanel 9 Note On - Duracao: 249600 Nota: C1 Vol.: 55
Chanel 10 Note Off - Duracao: 249660 Nota: C1 Vol.: 57
Chanel 10 Note On - Duracao: 249660 Nota: C1 Vol.: 61
Chanel 8 Note Off - Duracao: 249780 Nota: C1 Vol.: 52
Chanel 8 Note On - Duracao: 249780 Nota: C1 Vol.: 53
Chanel 10 Note Off - Duracao: 249900 Nota: C1 Vol.: 61
Chanel 10 Note On - Duracao: 249900 Nota: C1 Vol.: 66
Chanel 2 Note Off - Duracao: 250020 Nota: C1 Vol.: 57
Chanel 2 Note On - Duracao: 250020 Nota: C1 Vol.: 58
Chanel 3 Note Off - Duracao: 250080 Nota: C1 Vol.: 47
Chanel 3 Note On - Duracao: 250080 Nota: C1 Vol.: 43
Chanel 10 Note Off - Duracao: 250140 Nota: C1 Vol.: 66
Chanel 10 Note On - Duracao: 250140 Nota: C1 Vol.: 55
Chanel 2 Note Off - Duracao: 250500 Nota: C1 Vol.: 58
Chanel 2 Note On - Duracao: 250500 Nota: C1 Vol.: 71
Chanel 9 Note Off - Duracao: 250560 Nota: C1 Vol.: 55
Chanel 9 Note On - Duracao: 250560 Nota: C1 Vol.: 57
Chanel 2 Note Off - Duracao: 250620 Nota: C1 Vol.: 71
Chanel 2 Note On - Duracao: 250620 Nota: C1 Vol.: 75
Chanel 10 Note Off - Duracao: 250620 Nota: C1 Vol.: 55
Chanel 10 Note On - Duracao: 250620 Nota: C1 Vol.: 57
Chanel 2 Note Off - Duracao: 250740 Nota: C1 Vol.: 75
Chanel 2 Note On - Duracao: 250740 Nota: C1 Vol.: 67
Chanel 8 Note Off - Duracao: 250740 Nota: C1 Vol.: 53
Chanel 8 Note On - Duracao: 250740 Nota: C1 Vol.: 55
Chanel 2 Note Off - Duracao: 250980 Nota: C1 Vol.: 67
Chanel 2 Note On - Duracao: 250980 Nota: C1 Vol.: 65
Chanel 7 Note Off - Duracao: 250980 Nota: C1 Vol.: 72
Chanel 7 Note On - Duracao: 250980 Nota: C1 Vol.: 72
Chanel 6 Note Off - Duracao: 251100 Nota: C1 Vol.: 57
Chanel 6 Note On - Duracao: 251100 Nota: C1 Vol.: 48
Chanel 10 Note Off - Duracao: 251100 Nota: C1 Vol.: 57
Chanel 10 Note On - Duracao: 251100 Nota: C1 Vol.: 69
Chanel 2 Note Off - Duracao: 251220 Nota: C1 Vol.: 65
Chanel 2 Note On - Duracao: 251220 Nota: C1 Vol.: 40
Chanel 10 Note Off - Duracao: 251340 Nota: C1 Vol.: 69
Chanel 10 Note On - Duracao: 251340 Nota: C1 Vol.: 65
Chanel 9 Note Off - Duracao: 251520 Nota: C1 Vol.: 57
Chanel 9 Note On - Duracao: 251520 Nota: C1 Vol.: 52
Chanel 10 Note Off - Duracao: 251580 Nota: C1 Vol.: 65
Chanel 10 Note On - Duracao: 251580 Nota: C1 Vol.: 71
Chanel 8 Note Off - Duracao: 251700 Nota: C1 Vol.: 55
Chanel 8 Note On - Duracao: 251700 Nota: C1 Vol.: 62
Chanel 10 Note Off - Duracao: 251820 Nota: C1 Vol.: 71
Chanel 10 Note On - Duracao: 251820 Nota: C1 Vol.: 79
Chanel 10 Note Off - Duracao: 251940 Nota: C1 Vol.: 79
Chanel 10 Note On - Duracao: 251940 Nota: C1 Vol.: 73
Chanel 3 Note Off - Duracao: 252000 Nota: C1 Vol.: 43
Chanel 3 Note On - Duracao: 252000 Nota: C1 Vol.: 47
Chanel 8 Note Off - Duracao: 252180 Nota: C1 Vol.: 62
Chanel 8 Note On - Duracao: 252180 Nota: C1 Vol.: 60
Chanel 10 Note Off - Duracao: 252180 Nota: C1 Vol.: 73
Chanel 10 Note On - Duracao: 252180 Nota: C1 Vol.: 82
Chanel 4 Note Off - Duracao: 252300 Nota: C1 Vol.: 40
Chanel 4 Note On - Duracao: 252300 Nota: C1 Vol.: 51
Chanel 10 Note Off - Duracao: 252300 Nota: C1 Vol.: 82
Chanel 10 Note On - Duracao: 252300 Nota: C1 Vol.: 90
Chanel 5 Note Off - Duracao: 252360 Nota: C1 Vol.: 40
Chanel 5 Note On - Duracao: 252360 Nota: C1 Vol.: 67
Chanel 10 Note Off - Duracao: 252420 Nota: C1 Vol.: 90
Chanel 10 Note On - Duracao: 252420 Nota: C1 Vol.: 90
Chanel 9 Note Off - Duracao: 252480 Nota: C1 Vol.: 52
Chanel 9 Note On - Duracao: 252480 Nota: C1 Vol.: 60
Chanel 10 Note Off - Duracao: 252540 Nota: C1 Vol.: 90
Chanel 10 Note On - Duracao: 252540 Nota: C1 Vol.: 93
Chanel 5 Note Off - Duracao: 252600 Nota: C1 Vol.: 67
Chanel 5 Note On - Duracao: 252600 Nota: C1 Vol.: 60
Chanel 10 Note Off - Duracao: 252660 Nota: C1 Vol.: 93
Chanel 10 Note On - Duracao: 252660 Nota: C1 Vol.: 93
Chanel 10 Note Off - Duracao: 252780 Nota: C1 Vol.: 93
Chanel 10 Note On - Duracao: 252780 Nota: C1 Vol.: 95
Chanel 5 Note Off - Duracao: 252840 Nota: C1 Vol.: 60
Chanel 5 Note On - Duracao: 252840 Nota: C1 Vol.: 58
Chanel 7 Note Off - Duracao: 252900 Nota: C1 Vol.: 72
Chanel 7 Note On - Duracao: 252900 Nota: C1 Vol.: 72
Chanel 10 Note Off - Duracao: 252900 Nota: C1 Vol.: 95
Chanel 10 Note On - Duracao: 252900 Nota: C1 Vol.: 72
Chanel 9 Note Off - Duracao: 252960 Nota: C1 Vol.: 60
Chanel 9 Note On - Duracao: 252960 Nota: C1 Vol.: 55
Chanel 6 Note Off - Duracao: 253020 Nota: C1 Vol.: 48
Chanel 6 Note On - Duracao: 253020 Nota: C1 Vol.: 48
Chanel 5 Note Off - Duracao: 253080 Nota: C1 Vol.: 58
Chanel 5 Note On - Duracao: 253080 Nota: C1 Vol.: 58
Chanel 2 Note Off - Duracao: 253140 Nota: C1 Vol.: 40
Chanel 2 Note On - Duracao: 253140 Nota: C1 Vol.: 55
Chanel 8 Note Off - Duracao: 253140 Nota: C1 Vol.: 60
Chanel 8 Note On - Duracao: 253140 Nota: C1 Vol.: 71
Chanel 4 Note Off - Duracao: 253260 Nota: C1 Vol.: 51
Chanel 4 Note On - Duracao: 253260 Nota: C1 Vol.: 74
Chanel 5 Note Off - Duracao: 253320 Nota: C1 Vol.: 58
Chanel 5 Note On - Duracao: 253320 Nota: C1 Vol.: 62
Chanel 2 Note Off - Duracao: 253380 Nota: C1 Vol.: 55
Chanel 2 Note On - Duracao: 253380 Nota: C1 Vol.: 49
Chanel 10 Note Off - Duracao: 253380 Nota: C1 Vol.: 72
Chanel 10 Note On - Duracao: 253380 Nota: C1 Vol.: 56
Chanel 9 Note Off - Duracao: 253440 Nota: C1 Vol.: 55
Chanel 9 Note On - Duracao: 253440 Nota: C1 Vol.: 66
Chanel 4 Note Off - Duracao: 253500 Nota: C1 Vol.: 74
Chanel 4 Note On - Duracao: 253500 Nota: C1 Vol.: 40
Chanel 5 Note Off - Duracao: 253560 Nota: C1 Vol.: 62
Chanel 5 Note On - Duracao: 253560 Nota: C1 Vol.: 64
Chanel 2 Note Off - Duracao: 253620 Nota: C1 Vol.: 49
Chanel 2 Note On - Duracao: 253620 Nota: C1 Vol.: 52
Chanel 8 Note Off - Duracao: 253620 Nota: C1 Vol.: 71
Chanel 8 Note On - Duracao: 253620 Nota: C1 Vol.: 71
Chanel 9 Note Off - Duracao: 253680 Nota: C1 Vol.: 66
Chanel 9 Note On - Duracao: 253680 Nota: C1 Vol.: 62
Chanel 5 Note Off - Duracao: 253800 Nota: C1 Vol.: 64
Chanel 5 Note On - Duracao: 253800 Nota: C1 Vol.: 68
Chanel 2 Note Off - Duracao: 253860 Nota: C1 Vol.: 52
Chanel 2 Note On - Duracao: 253860 Nota: C1 Vol.: 40
Chanel 3 Note Off - Duracao: 253920 Nota: C1 Vol.: 47
Chanel 3 Note On - Duracao: 253920 Nota: C1 Vol.: 69
Chanel 9 Note Off - Duracao: 253920 Nota: C1 Vol.: 62
Chanel 9 Note On - Duracao: 253920 Nota: C1 Vol.: 45
Chanel 6 Note Off - Duracao: 253980 Nota: C1 Vol.: 48
Chanel 6 Note On - Duracao: 253980 Nota: C1 Vol.: 52
Chanel 5 Note Off - Duracao: 254040 Nota: C1 Vol.: 68
Chanel 5 Note On - Duracao: 254040 Nota: C1 Vol.: 63
Chanel 8 Note Off - Duracao: 254100 Nota: C1 Vol.: 71
Chanel 8 Note On - Duracao: 254100 Nota: C1 Vol.: 66
Chanel 3 Note Off - Duracao: 254160 Nota: C1 Vol.: 69
Chanel 3 Note On - Duracao: 254160 Nota: C1 Vol.: 61
Chanel 5 Note Off - Duracao: 254280 Nota: C1 Vol.: 63
Chanel 5 Note On - Duracao: 254280 Nota: C1 Vol.: 52
Chanel 2 Note Off - Duracao: 254340 Nota: C1 Vol.: 40
Chanel 2 Note On - Duracao: 254340 Nota: C1 Vol.: 40
Chanel 10 Note Off - Duracao: 254340 Nota: C1 Vol.: 56
Chanel 10 Note On - Duracao: 254340 Nota: C1 Vol.: 60
Chanel 9 Note Off - Duracao: 254400 Nota: C1 Vol.: 45
Chanel 9 Note On - Duracao: 254400 Nota: C1 Vol.: 63
Chanel 6 Note Off - Duracao: 254460 Nota: C1 Vol.: 52
Chanel 6 Note On - Duracao: 254460 Nota: C1 Vol.: 56
Chanel 8 Note Off - Duracao: 254580 Nota: C1 Vol.: 66
Chanel 8 Note On - Duracao: 254580 Nota: C1 Vol.: 49
Chanel 3 Note Off - Duracao: 254640 Nota: C1 Vol.: 61
Chanel 3 Note On - Duracao: 254640 Nota: C1 Vol.: 85
Chanel 9 Note Off - Duracao: 254640 Nota: C1 Vol.: 63
Chanel 9 Note On - Duracao: 254640 Nota: C1 Vol.: 63
Chanel 6 Note Off - Duracao: 254700 Nota: C1 Vol.: 56
Chanel 6 Note On - Duracao: 254700 Nota: C1 Vol.: 59
Chanel 3 Note Off - Duracao: 254760 Nota: C1 Vol.: 85
Chanel 3 Note On - Duracao: 254760 Nota: C1 Vol.: 95
Chanel 5 Note Off - Duracao: 254760 Nota: C1 Vol.: 52
Chanel 5 Note On - Duracao: 254760 Nota: C1 Vol.: 40
Chanel 3 Note Off - Duracao: 254820 Nota: C1 Vol.: 95
Chanel 3 Note On - Duracao: 254820 Nota: C1 Vol.: 98
Chanel 7 Note Off - Duracao: 254820 Nota: C1 Vol.: 72
Chanel 7 Note On - Duracao: 254820 Nota: C1 Vol.: 65
Chanel 3 Note Off - Duracao: 254880 Nota: C1 Vol.: 98
Chanel 3 Note On - Duracao: 254880 Nota: C1 Vol.: 98
Chanel 9 Note Off - Duracao: 254880 Nota: C1 Vol.: 63
Chanel 9 Note On - Duracao: 254880 Nota: C1 Vol.: 61
Chanel 3 Note Off - Duracao: 254940 Nota: C1 Vol.: 98
Chanel 3 Note On - Duracao: 254940 Nota: C1 Vol.: 99
Chanel 6 Note Off - Duracao: 254940 Nota: C1 Vol.: 59
Chanel 6 Note On - Duracao: 254940 Nota: C1 Vol.: 61
Chanel 3 Note Off - Duracao: 255000 Nota: C1 Vol.: 99
Chanel 3 Note On - Duracao: 255000 Nota: C1 Vol.: 79
Chanel 6 Note Off - Duracao: 255060 Nota: C1 Vol.: 61
Chanel 6 Note On - Duracao: 255060 Nota: C1 Vol.: 56
Chanel 9 Note Off - Duracao: 255120 Nota: C1 Vol.: 61
Chanel 9 Note On - Duracao: 255120 Nota: C1 Vol.: 61
Chanel 6 Note Off - Duracao: 255180 Nota: C1 Vol.: 56
Chanel 6 Note On - Duracao: 255180 Nota: C1 Vol.: 54
Chanel 3 Note Off - Duracao: 255240 Nota: C1 Vol.: 79
Chanel 3 Note On - Duracao: 255240 Nota: C1 Vol.: 56
Chanel 6 Note Off - Duracao: 255300 Nota: C1 Vol.: 54
Chanel 6 Note On - Duracao: 255300 Nota: C1 Vol.: 54
Chanel 10 Note Off - Duracao: 255300 Nota: C1 Vol.: 60
Chanel 10 Note On - Duracao: 255300 Nota: C1 Vol.: 50
Chanel 9 Note Off - Duracao: 255360 Nota: C1 Vol.: 61
Chanel 9 Note On - Duracao: 255360 Nota: C1 Vol.: 55
Chanel 4 Note Off - Duracao: 255420 Nota: C1 Vol.: 40
Chanel 4 Note On - Duracao: 255420 Nota: C1 Vol.: 42
Chanel 6 Note Off - Duracao: 255420 Nota: C1 Vol.: 54
Chanel 6 Note On - Duracao: 255420 Nota: C1 Vol.: 54
Chanel 6 Note Off - Duracao: 255540 Nota: C1 Vol.: 54
Chanel 6 Note On - Duracao: 255540 Nota: C1 Vol.: 52
Chanel 8 Note Off - Duracao: 255540 Nota: C1 Vol.: 49
Chanel 8 Note On - Duracao: 255540 Nota: C1 Vol.: 46
Chanel 6 Note Off - Duracao: 255660 Nota: C1 Vol.: 52
Chanel 6 Note On - Duracao: 255660 Nota: C1 Vol.: 53
Chanel 6 Note Off - Duracao: 255780 Nota: C1 Vol.: 53
Chanel 6 Note On - Duracao: 255780 Nota: C1 Vol.: 53
Chanel 9 Note Off - Duracao: 255840 Nota: C1 Vol.: 55
Chanel 9 Note On - Duracao: 255840 Nota: C1 Vol.: 62
Chanel 6 Note Off - Duracao: 255900 Nota: C1 Vol.: 53
Chanel 6 Note On - Duracao: 255900 Nota: C1 Vol.: 66
Chanel 6 Note Off - Duracao: 256020 Nota: C1 Vol.: 66
Chanel 6 Note On - Duracao: 256020 Nota: C1 Vol.: 47
Chanel 9 Note Off - Duracao: 256080 Nota: C1 Vol.: 62
Chanel 9 Note On - Duracao: 256080 Nota: C1 Vol.: 56
Chanel 2 Note Off - Duracao: 256260 Nota: C1 Vol.: 40
Chanel 2 Note On - Duracao: 256260 Nota: C1 Vol.: 40
Chanel 10 Note Off - Duracao: 256260 Nota: C1 Vol.: 50
Chanel 10 Note On - Duracao: 256260 Nota: C1 Vol.: 48
Chanel 8 Note Off - Duracao: 256500 Nota: C1 Vol.: 46
Chanel 8 Note On - Duracao: 256500 Nota: C1 Vol.: 48
Chanel 9 Note Off - Duracao: 256560 Nota: C1 Vol.: 56
Chanel 9 Note On - Duracao: 256560 Nota: C1 Vol.: 62
Chanel 5 Note Off - Duracao: 256680 Nota: C1 Vol.: 40
Chanel 5 Note On - Duracao: 256680 Nota: C1 Vol.: 44
Chanel 9 Note Off - Duracao: 257040 Nota: C1 Vol.: 62
Chanel 9 Note On - Duracao: 257040 Nota: C1 Vol.: 81
Chanel 3 Note Off - Duracao: 257160 Nota: C1 Vol.: 56
Chanel 3 Note On - Duracao: 257160 Nota: C1 Vol.: 61
Chanel 9 Note Off - Duracao: 257160 Nota: C1 Vol.: 81
Chanel 9 Note On - Duracao: 257160 Nota: C1 Vol.: 90
Chanel 10 Note Off - Duracao: 257220 Nota: C1 Vol.: 48
Chanel 10 Note On - Duracao: 257220 Nota: C1 Vol.: 52
Chanel 9 Note Off - Duracao: 257280 Nota: C1 Vol.: 90
Chanel 9 Note On - Duracao: 257280 Nota: C1 Vol.: 91
Chanel 4 Note Off - Duracao: 257340 Nota: C1 Vol.: 42
Chanel 4 Note On - Duracao: 257340 Nota: C1 Vol.: 45
Chanel 9 Note Off - Duracao: 257400 Nota: C1 Vol.: 91
Chanel 9 Note On - Duracao: 257400 Nota: C1 Vol.: 71
Chanel 8 Note Off - Duracao: 257460 Nota: C1 Vol.: 48
Chanel 8 Note On - Duracao: 257460 Nota: C1 Vol.: 52
Chanel 5 Note Off - Duracao: 257640 Nota: C1 Vol.: 44
Chanel 5 Note On - Duracao: 257640 Nota: C1 Vol.: 51
Chanel 9 Note Off - Duracao: 257880 Nota: C1 Vol.: 71
Chanel 9 Note On - Duracao: 257880 Nota: C1 Vol.: 57
Chanel 6 Note Off - Duracao: 257940 Nota: C1 Vol.: 47
Chanel 6 Note On - Duracao: 257940 Nota: C1 Vol.: 60
Chanel 3 Note Off - Duracao: 258120 Nota: C1 Vol.: 61
Chanel 3 Note On - Duracao: 258120 Nota: C1 Vol.: 60
Chanel 2 Note Off - Duracao: 258180 Nota: C1 Vol.: 40
Chanel 2 Note On - Duracao: 258180 Nota: C1 Vol.: 41
Chanel 10 Note Off - Duracao: 258180 Nota: C1 Vol.: 52
Chanel 10 Note On - Duracao: 258180 Nota: C1 Vol.: 57
Chanel 8 Note Off - Duracao: 258420 Nota: C1 Vol.: 52
Chanel 8 Note On - Duracao: 258420 Nota: C1 Vol.: 55
Chanel 5 Note Off - Duracao: 258600 Nota: C1 Vol.: 51
Chanel 5 Note On - Duracao: 258600 Nota: C1 Vol.: 56
Chanel 7 Note Off - Duracao: 258660 Nota: C1 Vol.: 65
Chanel 7 Note On - Duracao: 258660 Nota: C1 Vol.: 60
Chanel 10 Note Off - Duracao: 258660 Nota: C1 Vol.: 57
Chanel 10 Note On - Duracao: 258660 Nota: C1 Vol.: 63
Chanel 9 Note Off - Duracao: 258840 Nota: C1 Vol.: 57
Chanel 9 Note On - Duracao: 258840 Nota: C1 Vol.: 49
Chanel 10 Note Off - Duracao: 258900 Nota: C1 Vol.: 63
Chanel 10 Note On - Duracao: 258900 Nota: C1 Vol.: 70
Chanel 10 Note Off - Duracao: 259020 Nota: C1 Vol.: 70
Chanel 10 Note On - Duracao: 259020 Nota: C1 Vol.: 70
Chanel 3 Note Off - Duracao: 259080 Nota: C1 Vol.: 60
Chanel 3 Note On - Duracao: 259080 Nota: C1 Vol.: 60
Chanel 5 Note Off - Duracao: 259080 Nota: C1 Vol.: 56
Chanel 5 Note On - Duracao: 259080 Nota: C1 Vol.: 59
Chanel 10 Note Off - Duracao: 259140 Nota: C1 Vol.: 70
Chanel 10 Note On - Duracao: 259140 Nota: C1 Vol.: 68
Chanel 4 Note Off - Duracao: 259260 Nota: C1 Vol.: 45
Chanel 4 Note On - Duracao: 259260 Nota: C1 Vol.: 52
Chanel 8 Note Off - Duracao: 259380 Nota: C1 Vol.: 55
Chanel 8 Note On - Duracao: 259380 Nota: C1 Vol.: 54
Chanel 10 Note Off - Duracao: 259380 Nota: C1 Vol.: 68
Chanel 10 Note On - Duracao: 259380 Nota: C1 Vol.: 61
Chanel 5 Note Off - Duracao: 259560 Nota: C1 Vol.: 59
Chanel 5 Note On - Duracao: 259560 Nota: C1 Vol.: 60
Chanel 9 Note Off - Duracao: 259800 Nota: C1 Vol.: 49
Chanel 9 Note On - Duracao: 259800 Nota: C1 Vol.: 53
Chanel 6 Note Off - Duracao: 259860 Nota: C1 Vol.: 60
Chanel 6 Note On - Duracao: 259860 Nota: C1 Vol.: 78
Chanel 10 Note Off - Duracao: 259860 Nota: C1 Vol.: 61
Chanel 10 Note On - Duracao: 259860 Nota: C1 Vol.: 44
Chanel 3 Note Off - Duracao: 260040 Nota: C1 Vol.: 60
Chanel 3 Note On - Duracao: 260040 Nota: C1 Vol.: 62
Chanel 5 Note Off - Duracao: 260040 Nota: C1 Vol.: 60
Chanel 5 Note On - Duracao: 260040 Nota: C1 Vol.: 63
Chanel 4 Note Off - Duracao: 260220 Nota: C1 Vol.: 52
Chanel 4 Note On - Duracao: 260220 Nota: C1 Vol.: 52
Chanel 5 Note Off - Duracao: 260280 Nota: C1 Vol.: 63
Chanel 5 Note On - Duracao: 260280 Nota: C1 Vol.: 60
Chanel 6 Note Off - Duracao: 260340 Nota: C1 Vol.: 78
Chanel 6 Note On - Duracao: 260340 Nota: C1 Vol.: 100
Chanel 8 Note Off - Duracao: 260340 Nota: C1 Vol.: 54
Chanel 8 Note On - Duracao: 260340 Nota: C1 Vol.: 55
Chanel 6 Note Off - Duracao: 260400 Nota: C1 Vol.: 100
Chanel 6 Note On - Duracao: 260400 Nota: C1 Vol.: 98
Chanel 6 Note Off - Duracao: 260460 Nota: C1 Vol.: 98
Chanel 6 Note On - Duracao: 260460 Nota: C1 Vol.: 95
Chanel 5 Note Off - Duracao: 260520 Nota: C1 Vol.: 60
Chanel 5 Note On - Duracao: 260520 Nota: C1 Vol.: 61
Chanel 6 Note Off - Duracao: 260520 Nota: C1 Vol.: 95
Chanel 6 Note On - Duracao: 260520 Nota: C1 Vol.: 94
Chanel 6 Note Off - Duracao: 260640 Nota: C1 Vol.: 94
Chanel 6 Note On - Duracao: 260640 Nota: C1 Vol.: 49
Chanel 5 Note Off - Duracao: 260760 Nota: C1 Vol.: 61
Chanel 5 Note On - Duracao: 260760 Nota: C1 Vol.: 68
Chanel 9 Note Off - Duracao: 260760 Nota: C1 Vol.: 53
Chanel 9 Note On - Duracao: 260760 Nota: C1 Vol.: 59
Chanel 3 Note Off - Duracao: 261000 Nota: C1 Vol.: 62
Chanel 3 Note On - Duracao: 261000 Nota: C1 Vol.: 41
Chanel 5 Note Off - Duracao: 261000 Nota: C1 Vol.: 68
Chanel 5 Note On - Duracao: 261000 Nota: C1 Vol.: 68
Chanel 4 Note Off - Duracao: 261180 Nota: C1 Vol.: 52
Chanel 4 Note On - Duracao: 261180 Nota: C1 Vol.: 42
Chanel 5 Note Off - Duracao: 261240 Nota: C1 Vol.: 68
Chanel 5 Note On - Duracao: 261240 Nota: C1 Vol.: 66
Chanel 9 Note Off - Duracao: 261240 Nota: C1 Vol.: 59
Chanel 9 Note On - Duracao: 261240 Nota: C1 Vol.: 64
Chanel 8 Note Off - Duracao: 261300 Nota: C1 Vol.: 55
Chanel 8 Note On - Duracao: 261300 Nota: C1 Vol.: 54
Chanel 5 Note Off - Duracao: 261480 Nota: C1 Vol.: 66
Chanel 5 Note On - Duracao: 261480 Nota: C1 Vol.: 66
Chanel 5 Note Off - Duracao: 261720 Nota: C1 Vol.: 66
Chanel 5 Note On - Duracao: 261720 Nota: C1 Vol.: 65
Chanel 9 Note Off - Duracao: 261720 Nota: C1 Vol.: 64
Chanel 9 Note On - Duracao: 261720 Nota: C1 Vol.: 63
Chanel 10 Note Off - Duracao: 261780 Nota: C1 Vol.: 44
Chanel 10 Note On - Duracao: 261780 Nota: C1 Vol.: 54
Chanel 5 Note Off - Duracao: 261960 Nota: C1 Vol.: 65
Chanel 5 Note On - Duracao: 261960 Nota: C1 Vol.: 67
Chanel 2 Note Off - Duracao: 262020 Nota: C1 Vol.: 41
Chanel 2 Note On - Duracao: 262020 Nota: C1 Vol.: 43
Chanel 5 Note Off - Duracao: 262200 Nota: C1 Vol.: 67
Chanel 5 Note On - Duracao: 262200 Nota: C1 Vol.: 61
Chanel 9 Note Off - Duracao: 262200 Nota: C1 Vol.: 63
Chanel 9 Note On - Duracao: 262200 Nota: C1 Vol.: 58
Chanel 8 Note Off - Duracao: 262260 Nota: C1 Vol.: 54
Chanel 8 Note On - Duracao: 262260 Nota: C1 Vol.: 50
Chanel 7 Note Off - Duracao: 262500 Nota: C1 Vol.: 60
Chanel 7 Note On - Duracao: 262500 Nota: C1 Vol.: 57
Chanel 6 Note Off - Duracao: 262560 Nota: C1 Vol.: 49
Chanel 6 Note On - Duracao: 262560 Nota: C1 Vol.: 48
Chanel 5 Note Off - Duracao: 262680 Nota: C1 Vol.: 61
Chanel 5 Note On - Duracao: 262680 Nota: C1 Vol.: 41
Chanel 9 Note Off - Duracao: 262680 Nota: C1 Vol.: 58
Chanel 9 Note On - Duracao: 262680 Nota: C1 Vol.: 60
Chanel 10 Note Off - Duracao: 262740 Nota: C1 Vol.: 54
Chanel 10 Note On - Duracao: 262740 Nota: C1 Vol.: 51
Chanel 4 Note Off - Duracao: 263100 Nota: C1 Vol.: 42
Chanel 4 Note On - Duracao: 263100 Nota: C1 Vol.: 53
Chanel 9 Note Off - Duracao: 263160 Nota: C1 Vol.: 60
Chanel 9 Note On - Duracao: 263160 Nota: C1 Vol.: 60
Chanel 8 Note Off - Duracao: 263220 Nota: C1 Vol.: 50
Chanel 8 Note On - Duracao: 263220 Nota: C1 Vol.: 50
Chanel 9 Note Off - Duracao: 263640 Nota: C1 Vol.: 60
Chanel 9 Note On - Duracao: 263640 Nota: C1 Vol.: 63
Chanel 10 Note Off - Duracao: 263700 Nota: C1 Vol.: 51
Chanel 10 Note On - Duracao: 263700 Nota: C1 Vol.: 62
Chanel 2 Note Off - Duracao: 263940 Nota: C1 Vol.: 43
Chanel 2 Note On - Duracao: 263940 Nota: C1 Vol.: 40
Chanel 4 Note Off - Duracao: 264060 Nota: C1 Vol.: 53
Chanel 4 Note On - Duracao: 264060 Nota: C1 Vol.: 45
Chanel 9 Note Off - Duracao: 264120 Nota: C1 Vol.: 63
Chanel 9 Note On - Duracao: 264120 Nota: C1 Vol.: 53
Chanel 8 Note Off - Duracao: 264180 Nota: C1 Vol.: 50
Chanel 8 Note On - Duracao: 264180 Nota: C1 Vol.: 55
Chanel 10 Note Off - Duracao: 264180 Nota: C1 Vol.: 62
Chanel 10 Note On - Duracao: 264180 Nota: C1 Vol.: 87
Chanel 10 Note Off - Duracao: 264300 Nota: C1 Vol.: 87
Chanel 10 Note On - Duracao: 264300 Nota: C1 Vol.: 90
Chanel 10 Note Off - Duracao: 264420 Nota: C1 Vol.: 90
Chanel 10 Note On - Duracao: 264420 Nota: C1 Vol.: 79
Chanel 6 Note Off - Duracao: 264480 Nota: C1 Vol.: 48
Chanel 6 Note On - Duracao: 264480 Nota: C1 Vol.: 75
Chanel 5 Note Off - Duracao: 264600 Nota: C1 Vol.: 41
Chanel 5 Note On - Duracao: 264600 Nota: C1 Vol.: 77
Chanel 10 Note Off - Duracao: 264660 Nota: C1 Vol.: 79
Chanel 10 Note On - Duracao: 264660 Nota: C1 Vol.: 68
Chanel 6 Note Off - Duracao: 264720 Nota: C1 Vol.: 75
Chanel 6 Note On - Duracao: 264720 Nota: C1 Vol.: 83
Chanel 3 Note Off - Duracao: 264840 Nota: C1 Vol.: 41
Chanel 3 Note On - Duracao: 264840 Nota: C1 Vol.: 50
Chanel 5 Note Off - Duracao: 264840 Nota: C1 Vol.: 77
Chanel 5 Note On - Duracao: 264840 Nota: C1 Vol.: 83
Chanel 6 Note Off - Duracao: 264840 Nota: C1 Vol.: 83
Chanel 6 Note On - Duracao: 264840 Nota: C1 Vol.: 89
Chanel 10 Note Off - Duracao: 264900 Nota: C1 Vol.: 68
Chanel 10 Note On - Duracao: 264900 Nota: C1 Vol.: 73
Chanel 6 Note Off - Duracao: 264960 Nota: C1 Vol.: 89
Chanel 6 Note On - Duracao: 264960 Nota: C1 Vol.: 85
Chanel 5 Note Off - Duracao: 265080 Nota: C1 Vol.: 83
Chanel 5 Note On - Duracao: 265080 Nota: C1 Vol.: 58
Chanel 6 Note Off - Duracao: 265080 Nota: C1 Vol.: 85
Chanel 6 Note On - Duracao: 265080 Nota: C1 Vol.: 88
Chanel 9 Note Off - Duracao: 265080 Nota: C1 Vol.: 53
Chanel 9 Note On - Duracao: 265080 Nota: C1 Vol.: 44
Chanel 8 Note Off - Duracao: 265140 Nota: C1 Vol.: 55
Chanel 8 Note On - Duracao: 265140 Nota: C1 Vol.: 60
Chanel 10 Note Off - Duracao: 265140 Nota: C1 Vol.: 73
Chanel 10 Note On - Duracao: 265140 Nota: C1 Vol.: 56
Chanel 6 Note Off - Duracao: 265200 Nota: C1 Vol.: 88
Chanel 6 Note On - Duracao: 265200 Nota: C1 Vol.: 92
Chanel 6 Note Off - Duracao: 265320 Nota: C1 Vol.: 92
Chanel 6 Note On - Duracao: 265320 Nota: C1 Vol.: 89
Chanel 6 Note Off - Duracao: 265440 Nota: C1 Vol.: 89
Chanel 6 Note On - Duracao: 265440 Nota: C1 Vol.: 92
Chanel 6 Note Off - Duracao: 265560 Nota: C1 Vol.: 92
Chanel 6 Note On - Duracao: 265560 Nota: C1 Vol.: 97
Chanel 6 Note Off - Duracao: 265620 Nota: C1 Vol.: 97
Chanel 6 Note On - Duracao: 265620 Nota: C1 Vol.: 99
Chanel 8 Note Off - Duracao: 265620 Nota: C1 Vol.: 60
Chanel 8 Note On - Duracao: 265620 Nota: C1 Vol.: 54
Chanel 10 Note Off - Duracao: 265620 Nota: C1 Vol.: 56
Chanel 10 Note On - Duracao: 265620 Nota: C1 Vol.: 45
Chanel 6 Note Off - Duracao: 265680 Nota: C1 Vol.: 99
Chanel 6 Note On - Duracao: 265680 Nota: C1 Vol.: 99
Chanel 6 Note Off - Duracao: 265740 Nota: C1 Vol.: 99
Chanel 6 Note On - Duracao: 265740 Nota: C1 Vol.: 96
Chanel 3 Note Off - Duracao: 265800 Nota: C1 Vol.: 50
Chanel 3 Note On - Duracao: 265800 Nota: C1 Vol.: 77
Chanel 6 Note Off - Duracao: 265800 Nota: C1 Vol.: 96
Chanel 6 Note On - Duracao: 265800 Nota: C1 Vol.: 99
Chanel 2 Note Off - Duracao: 265860 Nota: C1 Vol.: 40
Chanel 2 Note On - Duracao: 265860 Nota: C1 Vol.: 40
Chanel 6 Note Off - Duracao: 265860 Nota: C1 Vol.: 99
Chanel 6 Note On - Duracao: 265860 Nota: C1 Vol.: 99
Chanel 6 Note Off - Duracao: 265920 Nota: C1 Vol.: 99
Chanel 6 Note On - Duracao: 265920 Nota: C1 Vol.: 100
Chanel 4 Note Off - Duracao: 265980 Nota: C1 Vol.: 45
Chanel 4 Note On - Duracao: 265980 Nota: C1 Vol.: 84
Chanel 6 Note Off - Duracao: 265980 Nota: C1 Vol.: 100
Chanel 6 Note On - Duracao: 265980 Nota: C1 Vol.: 96
Chanel 3 Note Off - Duracao: 266040 Nota: C1 Vol.: 77
Chanel 3 Note On - Duracao: 266040 Nota: C1 Vol.: 96
Chanel 5 Note Off - Duracao: 266040 Nota: C1 Vol.: 58
Chanel 5 Note On - Duracao: 266040 Nota: C1 Vol.: 88
Chanel 6 Note Off - Duracao: 266040 Nota: C1 Vol.: 96
Chanel 6 Note On - Duracao: 266040 Nota: C1 Vol.: 89
Chanel 9 Note Off - Duracao: 266040 Nota: C1 Vol.: 44
Chanel 9 Note On - Duracao: 266040 Nota: C1 Vol.: 60
Chanel 3 Note Off - Duracao: 266100 Nota: C1 Vol.: 96
Chanel 3 Note On - Duracao: 266100 Nota: C1 Vol.: 98
Chanel 4 Note Off - Duracao: 266100 Nota: C1 Vol.: 84
Chanel 4 Note On - Duracao: 266100 Nota: C1 Vol.: 87
Chanel 3 Note Off - Duracao: 266160 Nota: C1 Vol.: 98
Chanel 3 Note On - Duracao: 266160 Nota: C1 Vol.: 98
Chanel 5 Note Off - Duracao: 266160 Nota: C1 Vol.: 88
Chanel 5 Note On - Duracao: 266160 Nota: C1 Vol.: 87
Chanel 6 Note Off - Duracao: 266160 Nota: C1 Vol.: 89
Chanel 6 Note On - Duracao: 266160 Nota: C1 Vol.: 49
Chanel 3 Note Off - Duracao: 266220 Nota: C1 Vol.: 98
Chanel 3 Note On - Duracao: 266220 Nota: C1 Vol.: 98
Chanel 4 Note Off - Duracao: 266220 Nota: C1 Vol.: 87
Chanel 4 Note On - Duracao: 266220 Nota: C1 Vol.: 100
Chanel 3 Note Off - Duracao: 266280 Nota: C1 Vol.: 98
Chanel 3 Note On - Duracao: 266280 Nota: C1 Vol.: 82
Chanel 4 Note Off - Duracao: 266280 Nota: C1 Vol.: 100
Chanel 4 Note On - Duracao: 266280 Nota: C1 Vol.: 100
Chanel 5 Note Off - Duracao: 266280 Nota: C1 Vol.: 87
Chanel 5 Note On - Duracao: 266280 Nota: C1 Vol.: 87
Chanel 9 Note Off - Duracao: 266280 Nota: C1 Vol.: 60
Chanel 9 Note On - Duracao: 266280 Nota: C1 Vol.: 61
Chanel 4 Note Off - Duracao: 266340 Nota: C1 Vol.: 100
Chanel 4 Note On - Duracao: 266340 Nota: C1 Vol.: 100
Chanel 7 Note Off - Duracao: 266340 Nota: C1 Vol.: 57
Chanel 7 Note On - Duracao: 266340 Nota: C1 Vol.: 57
Chanel 4 Note Off - Duracao: 266400 Nota: C1 Vol.: 100
Chanel 4 Note On - Duracao: 266400 Nota: C1 Vol.: 99
Chanel 5 Note Off - Duracao: 266400 Nota: C1 Vol.: 87
Chanel 5 Note On - Duracao: 266400 Nota: C1 Vol.: 88
Chanel 9 Note Off - Duracao: 266400 Nota: C1 Vol.: 61
Chanel 9 Note On - Duracao: 266400 Nota: C1 Vol.: 59
Chanel 4 Note Off - Duracao: 266460 Nota: C1 Vol.: 99
Chanel 4 Note On - Duracao: 266460 Nota: C1 Vol.: 99
Chanel 3 Note Off - Duracao: 266520 Nota: C1 Vol.: 82
Chanel 3 Note On - Duracao: 266520 Nota: C1 Vol.: 94
Chanel 4 Note Off - Duracao: 266520 Nota: C1 Vol.: 99
Chanel 4 Note On - Duracao: 266520 Nota: C1 Vol.: 98
Chanel 5 Note Off - Duracao: 266520 Nota: C1 Vol.: 88
Chanel 5 Note On - Duracao: 266520 Nota: C1 Vol.: 88
Chanel 9 Note Off - Duracao: 266520 Nota: C1 Vol.: 59
Chanel 9 Note On - Duracao: 266520 Nota: C1 Vol.: 52
Chanel 4 Note Off - Duracao: 266580 Nota: C1 Vol.: 98
Chanel 4 Note On - Duracao: 266580 Nota: C1 Vol.: 96
Chanel 8 Note Off - Duracao: 266580 Nota: C1 Vol.: 54
Chanel 8 Note On - Duracao: 266580 Nota: C1 Vol.: 46
Chanel 10 Note Off - Duracao: 266580 Nota: C1 Vol.: 45
Chanel 10 Note On - Duracao: 266580 Nota: C1 Vol.: 57
Chanel 3 Note Off - Duracao: 266640 Nota: C1 Vol.: 94
Chanel 3 Note On - Duracao: 266640 Nota: C1 Vol.: 99
Chanel 4 Note Off - Duracao: 266640 Nota: C1 Vol.: 96
Chanel 4 Note On - Duracao: 266640 Nota: C1 Vol.: 66
Chanel 5 Note Off - Duracao: 266640 Nota: C1 Vol.: 88
Chanel 5 Note On - Duracao: 266640 Nota: C1 Vol.: 87
Chanel 3 Note Off - Duracao: 266700 Nota: C1 Vol.: 99
Chanel 3 Note On - Duracao: 266700 Nota: C1 Vol.: 82
Chanel 5 Note Off - Duracao: 266760 Nota: C1 Vol.: 87
Chanel 5 Note On - Duracao: 266760 Nota: C1 Vol.: 88
Chanel 9 Note Off - Duracao: 266760 Nota: C1 Vol.: 52
Chanel 9 Note On - Duracao: 266760 Nota: C1 Vol.: 50
Chanel 5 Note Off - Duracao: 266880 Nota: C1 Vol.: 88
Chanel 5 Note On - Duracao: 266880 Nota: C1 Vol.: 82
Chanel 3 Note Off - Duracao: 266940 Nota: C1 Vol.: 82
Chanel 3 Note On - Duracao: 266940 Nota: C1 Vol.: 80
Chanel 9 Note Off - Duracao: 267000 Nota: C1 Vol.: 50
Chanel 9 Note On - Duracao: 267000 Nota: C1 Vol.: 47
Chanel 10 Note Off - Duracao: 267060 Nota: C1 Vol.: 57
Chanel 10 Note On - Duracao: 267060 Nota: C1 Vol.: 60
Chanel 4 Note Off - Duracao: 267120 Nota: C1 Vol.: 66
Chanel 4 Note On - Duracao: 267120 Nota: C1 Vol.: 46
Chanel 5 Note Off - Duracao: 267120 Nota: C1 Vol.: 82
Chanel 5 Note On - Duracao: 267120 Nota: C1 Vol.: 48
Chanel 3 Note Off - Duracao: 267180 Nota: C1 Vol.: 80
Chanel 3 Note On - Duracao: 267180 Nota: C1 Vol.: 71
Chanel 9 Note Off - Duracao: 267240 Nota: C1 Vol.: 47
Chanel 9 Note On - Duracao: 267240 Nota: C1 Vol.: 45
Chanel 3 Note Off - Duracao: 267420 Nota: C1 Vol.: 71
Chanel 3 Note On - Duracao: 267420 Nota: C1 Vol.: 71
Chanel 9 Note Off - Duracao: 267480 Nota: C1 Vol.: 45
Chanel 9 Note On - Duracao: 267480 Nota: C1 Vol.: 46
Chanel 8 Note Off - Duracao: 267540 Nota: C1 Vol.: 46
Chanel 8 Note On - Duracao: 267540 Nota: C1 Vol.: 47
Chanel 10 Note Off - Duracao: 267540 Nota: C1 Vol.: 60
Chanel 10 Note On - Duracao: 267540 Nota: C1 Vol.: 59
Chanel 3 Note Off - Duracao: 267660 Nota: C1 Vol.: 71
Chanel 3 Note On - Duracao: 267660 Nota: C1 Vol.: 69
Chanel 9 Note Off - Duracao: 267720 Nota: C1 Vol.: 46
Chanel 9 Note On - Duracao: 267720 Nota: C1 Vol.: 46
Chanel 3 Note Off - Duracao: 267900 Nota: C1 Vol.: 69
Chanel 3 Note On - Duracao: 267900 Nota: C1 Vol.: 59
Chanel 10 Note Off - Duracao: 268020 Nota: C1 Vol.: 59
Chanel 10 Note On - Duracao: 268020 Nota: C1 Vol.: 61
Chanel 6 Note Off - Duracao: 268080 Nota: C1 Vol.: 49
Chanel 6 Note On - Duracao: 268080 Nota: C1 Vol.: 84
Chanel 6 Note Off - Duracao: 268200 Nota: C1 Vol.: 84
Chanel 6 Note On - Duracao: 268200 Nota: C1 Vol.: 95
Chanel 9 Note Off - Duracao: 268200 Nota: C1 Vol.: 46
Chanel 9 Note On - Duracao: 268200 Nota: C1 Vol.: 48
Chanel 7 Note Off - Duracao: 268260 Nota: C1 Vol.: 57
Chanel 7 Note On - Duracao: 268260 Nota: C1 Vol.: 52
Chanel 6 Note Off - Duracao: 268320 Nota: C1 Vol.: 95
Chanel 6 Note On - Duracao: 268320 Nota: C1 Vol.: 99
Chanel 3 Note Off - Duracao: 268380 Nota: C1 Vol.: 59
Chanel 3 Note On - Duracao: 268380 Nota: C1 Vol.: 40
Chanel 6 Note Off - Duracao: 268380 Nota: C1 Vol.: 99
Chanel 6 Note On - Duracao: 268380 Nota: C1 Vol.: 98
Chanel 6 Note Off - Duracao: 268440 Nota: C1 Vol.: 98
Chanel 6 Note On - Duracao: 268440 Nota: C1 Vol.: 97
Chanel 6 Note Off - Duracao: 268500 Nota: C1 Vol.: 97
Chanel 6 Note On - Duracao: 268500 Nota: C1 Vol.: 98
Chanel 8 Note Off - Duracao: 268500 Nota: C1 Vol.: 47
Chanel 8 Note On - Duracao: 268500 Nota: C1 Vol.: 54
Chanel 10 Note Off - Duracao: 268500 Nota: C1 Vol.: 61
Chanel 10 Note On - Duracao: 268500 Nota: C1 Vol.: 63
Chanel 6 Note Off - Duracao: 268560 Nota: C1 Vol.: 98
Chanel 6 Note On - Duracao: 268560 Nota: C1 Vol.: 93
Chanel 6 Note Off - Duracao: 268680 Nota: C1 Vol.: 93
Chanel 6 Note On - Duracao: 268680 Nota: C1 Vol.: 83
Chanel 9 Note Off - Duracao: 268680 Nota: C1 Vol.: 48
Chanel 9 Note On - Duracao: 268680 Nota: C1 Vol.: 48
Chanel 6 Note Off - Duracao: 268800 Nota: C1 Vol.: 83
Chanel 6 Note On - Duracao: 268800 Nota: C1 Vol.: 81
Chanel 6 Note Off - Duracao: 268920 Nota: C1 Vol.: 81
Chanel 6 Note On - Duracao: 268920 Nota: C1 Vol.: 75
Chanel 8 Note Off - Duracao: 268980 Nota: C1 Vol.: 54
Chanel 8 Note On - Duracao: 268980 Nota: C1 Vol.: 61
Chanel 10 Note Off - Duracao: 268980 Nota: C1 Vol.: 63
Chanel 10 Note On - Duracao: 268980 Nota: C1 Vol.: 60
Chanel 4 Note Off - Duracao: 269040 Nota: C1 Vol.: 46
Chanel 4 Note On - Duracao: 269040 Nota: C1 Vol.: 49
Chanel 5 Note Off - Duracao: 269040 Nota: C1 Vol.: 48
Chanel 5 Note On - Duracao: 269040 Nota: C1 Vol.: 92
Chanel 5 Note Off - Duracao: 269160 Nota: C1 Vol.: 92
Chanel 5 Note On - Duracao: 269160 Nota: C1 Vol.: 44
Chanel 6 Note Off - Duracao: 269160 Nota: C1 Vol.: 75
Chanel 6 Note On - Duracao: 269160 Nota: C1 Vol.: 67
Chanel 9 Note Off - Duracao: 269160 Nota: C1 Vol.: 48
Chanel 9 Note On - Duracao: 269160 Nota: C1 Vol.: 47
Chanel 8 Note Off - Duracao: 269460 Nota: C1 Vol.: 61
Chanel 8 Note On - Duracao: 269460 Nota: C1 Vol.: 58
Chanel 10 Note Off - Duracao: 269460 Nota: C1 Vol.: 60
Chanel 10 Note On - Duracao: 269460 Nota: C1 Vol.: 59
Chanel 6 Note Off - Duracao: 269640 Nota: C1 Vol.: 67
Chanel 6 Note On - Duracao: 269640 Nota: C1 Vol.: 66
Chanel 9 Note Off - Duracao: 269640 Nota: C1 Vol.: 47
Chanel 9 Note On - Duracao: 269640 Nota: C1 Vol.: 55
Chanel 2 Note Off - Duracao: 269700 Nota: C1 Vol.: 40
Chanel 2 Note On - Duracao: 269700 Nota: C1 Vol.: 41
Chanel 8 Note Off - Duracao: 269940 Nota: C1 Vol.: 58
Chanel 8 Note On - Duracao: 269940 Nota: C1 Vol.: 59
Chanel 10 Note Off - Duracao: 269940 Nota: C1 Vol.: 59
Chanel 10 Note On - Duracao: 269940 Nota: C1 Vol.: 56
Chanel 6 Note Off - Duracao: 270120 Nota: C1 Vol.: 66
Chanel 6 Note On - Duracao: 270120 Nota: C1 Vol.: 73
Chanel 9 Note Off - Duracao: 270120 Nota: C1 Vol.: 55
Chanel 9 Note On - Duracao: 270120 Nota: C1 Vol.: 46
Chanel 7 Note Off - Duracao: 270180 Nota: C1 Vol.: 52
Chanel 7 Note On - Duracao: 270180 Nota: C1 Vol.: 44
Chanel 8 Note Off - Duracao: 270180 Nota: C1 Vol.: 59
Chanel 8 Note On - Duracao: 270180 Nota: C1 Vol.: 56
Chanel 3 Note Off - Duracao: 270300 Nota: C1 Vol.: 40
Chanel 3 Note On - Duracao: 270300 Nota: C1 Vol.: 40
Chanel 6 Note Off - Duracao: 270360 Nota: C1 Vol.: 73
Chanel 6 Note On - Duracao: 270360 Nota: C1 Vol.: 81
Chanel 10 Note Off - Duracao: 270420 Nota: C1 Vol.: 56
Chanel 10 Note On - Duracao: 270420 Nota: C1 Vol.: 59
Chanel 6 Note Off - Duracao: 270480 Nota: C1 Vol.: 81
Chanel 6 Note On - Duracao: 270480 Nota: C1 Vol.: 61
Chanel 8 Note Off - Duracao: 270660 Nota: C1 Vol.: 56
Chanel 8 Note On - Duracao: 270660 Nota: C1 Vol.: 53
Chanel 10 Note Off - Duracao: 270900 Nota: C1 Vol.: 59
Chanel 10 Note On - Duracao: 270900 Nota: C1 Vol.: 60
Chanel 4 Note Off - Duracao: 270960 Nota: C1 Vol.: 49
Chanel 4 Note On - Duracao: 270960 Nota: C1 Vol.: 98
Chanel 6 Note Off - Duracao: 270960 Nota: C1 Vol.: 61
Chanel 6 Note On - Duracao: 270960 Nota: C1 Vol.: 59
Chanel 4 Note Off - Duracao: 271020 Nota: C1 Vol.: 98
Chanel 4 Note On - Duracao: 271020 Nota: C1 Vol.: 97
Chanel 4 Note Off - Duracao: 271080 Nota: C1 Vol.: 97
Chanel 4 Note On - Duracao: 271080 Nota: C1 Vol.: 100
Chanel 5 Note Off - Duracao: 271080 Nota: C1 Vol.: 44
Chanel 5 Note On - Duracao: 271080 Nota: C1 Vol.: 93
Chanel 9 Note Off - Duracao: 271080 Nota: C1 Vol.: 46
Chanel 9 Note On - Duracao: 271080 Nota: C1 Vol.: 56
Chanel 4 Note Off - Duracao: 271140 Nota: C1 Vol.: 100
Chanel 4 Note On - Duracao: 271140 Nota: C1 Vol.: 99
Chanel 5 Note Off - Duracao: 271140 Nota: C1 Vol.: 93
Chanel 5 Note On - Duracao: 271140 Nota: C1 Vol.: 97
Chanel 8 Note Off - Duracao: 271140 Nota: C1 Vol.: 53
Chanel 8 Note On - Duracao: 271140 Nota: C1 Vol.: 63
Chanel 4 Note Off - Duracao: 271200 Nota: C1 Vol.: 99
Chanel 4 Note On - Duracao: 271200 Nota: C1 Vol.: 100
Chanel 5 Note Off - Duracao: 271200 Nota: C1 Vol.: 97
Chanel 5 Note On - Duracao: 271200 Nota: C1 Vol.: 99
Chanel 4 Note Off - Duracao: 271260 Nota: C1 Vol.: 100
Chanel 4 Note On - Duracao: 271260 Nota: C1 Vol.: 100
Chanel 5 Note Off - Duracao: 271260 Nota: C1 Vol.: 99
Chanel 5 Note On - Duracao: 271260 Nota: C1 Vol.: 100
Chanel 4 Note Off - Duracao: 271320 Nota: C1 Vol.: 100
Chanel 4 Note On - Duracao: 271320 Nota: C1 Vol.: 100
Chanel 5 Note Off - Duracao: 271320 Nota: C1 Vol.: 100
Chanel 5 Note On - Duracao: 271320 Nota: C1 Vol.: 97
Chanel 4 Note Off - Duracao: 271380 Nota: C1 Vol.: 100
Chanel 4 Note On - Duracao: 271380 Nota: C1 Vol.: 100
Chanel 5 Note Off - Duracao: 271380 Nota: C1 Vol.: 97
Chanel 5 Note On - Duracao: 271380 Nota: C1 Vol.: 99
Chanel 10 Note Off - Duracao: 271380 Nota: C1 Vol.: 60
Chanel 10 Note On - Duracao: 271380 Nota: C1 Vol.: 63
Chanel 4 Note Off - Duracao: 271440 Nota: C1 Vol.: 100
Chanel 4 Note On - Duracao: 271440 Nota: C1 Vol.: 98
Chanel 5 Note Off - Duracao: 271440 Nota: C1 Vol.: 99
Chanel 5 Note On - Duracao: 271440 Nota: C1 Vol.: 99
Chanel 6 Note Off - Duracao: 271440 Nota: C1 Vol.: 59
Chanel 6 Note On - Duracao: 271440 Nota: C1 Vol.: 54
Chanel 4 Note Off - Duracao: 271500 Nota: C1 Vol.: 98
Chanel 4 Note On - Duracao: 271500 Nota: C1 Vol.: 92
Chanel 5 Note Off - Duracao: 271500 Nota: C1 Vol.: 99
Chanel 5 Note On - Duracao: 271500 Nota: C1 Vol.: 97
Chanel 4 Note Off - Duracao: 271560 Nota: C1 Vol.: 92
Chanel 4 Note On - Duracao: 271560 Nota: C1 Vol.: 72
Chanel 5 Note Off - Duracao: 271560 Nota: C1 Vol.: 97
Chanel 5 Note On - Duracao: 271560 Nota: C1 Vol.: 96
Chanel 9 Note Off - Duracao: 271560 Nota: C1 Vol.: 56
Chanel 9 Note On - Duracao: 271560 Nota: C1 Vol.: 56
Chanel 2 Note Off - Duracao: 271620 Nota: C1 Vol.: 41
Chanel 2 Note On - Duracao: 271620 Nota: C1 Vol.: 63
Chanel 5 Note Off - Duracao: 271620 Nota: C1 Vol.: 96
Chanel 5 Note On - Duracao: 271620 Nota: C1 Vol.: 95
Chanel 8 Note Off - Duracao: 271620 Nota: C1 Vol.: 63
Chanel 8 Note On - Duracao: 271620 Nota: C1 Vol.: 47
Chanel 5 Note Off - Duracao: 271740 Nota: C1 Vol.: 95
Chanel 5 Note On - Duracao: 271740 Nota: C1 Vol.: 100
Chanel 4 Note Off - Duracao: 271800 Nota: C1 Vol.: 72
Chanel 4 Note On - Duracao: 271800 Nota: C1 Vol.: 70
Chanel 5 Note Off - Duracao: 271800 Nota: C1 Vol.: 100
Chanel 5 Note On - Duracao: 271800 Nota: C1 Vol.: 100
Chanel 2 Note Off - Duracao: 271860 Nota: C1 Vol.: 63
Chanel 2 Note On - Duracao: 271860 Nota: C1 Vol.: 59
Chanel 5 Note Off - Duracao: 271860 Nota: C1 Vol.: 100
Chanel 5 Note On - Duracao: 271860 Nota: C1 Vol.: 99
Chanel 10 Note Off - Duracao: 271860 Nota: C1 Vol.: 63
Chanel 10 Note On - Duracao: 271860 Nota: C1 Vol.: 63
Chanel 5 Note Off - Duracao: 271920 Nota: C1 Vol.: 99
Chanel 5 Note On - Duracao: 271920 Nota: C1 Vol.: 99
Chanel 6 Note Off - Duracao: 271920 Nota: C1 Vol.: 54
Chanel 6 Note On - Duracao: 271920 Nota: C1 Vol.: 67
Chanel 5 Note Off - Duracao: 271980 Nota: C1 Vol.: 99
Chanel 5 Note On - Duracao: 271980 Nota: C1 Vol.: 99
Chanel 5 Note Off - Duracao: 272040 Nota: C1 Vol.: 99
Chanel 5 Note On - Duracao: 272040 Nota: C1 Vol.: 99
Chanel 9 Note Off - Duracao: 272040 Nota: C1 Vol.: 56
Chanel 9 Note On - Duracao: 272040 Nota: C1 Vol.: 50
Chanel 2 Note Off - Duracao: 272100 Nota: C1 Vol.: 59
Chanel 2 Note On - Duracao: 272100 Nota: C1 Vol.: 62
Chanel 5 Note Off - Duracao: 272100 Nota: C1 Vol.: 99
Chanel 5 Note On - Duracao: 272100 Nota: C1 Vol.: 100
Chanel 5 Note Off - Duracao: 272160 Nota: C1 Vol.: 100
Chanel 5 Note On - Duracao: 272160 Nota: C1 Vol.: 97
Chanel 6 Note Off - Duracao: 272160 Nota: C1 Vol.: 67
Chanel 6 Note On - Duracao: 272160 Nota: C1 Vol.: 54
Chanel 2 Note Off - Duracao: 272220 Nota: C1 Vol.: 62
Chanel 2 Note On - Duracao: 272220 Nota: C1 Vol.: 61
Chanel 3 Note Off - Duracao: 272220 Nota: C1 Vol.: 40
Chanel 3 Note On - Duracao: 272220 Nota: C1 Vol.: 40
Chanel 4 Note Off - Duracao: 272280 Nota: C1 Vol.: 70
Chanel 4 Note On - Duracao: 272280 Nota: C1 Vol.: 68
Chanel 5 Note Off - Duracao: 272280 Nota: C1 Vol.: 97
Chanel 5 Note On - Duracao: 272280 Nota: C1 Vol.: 94
Chanel 2 Note Off - Duracao: 272340 Nota: C1 Vol.: 61
Chanel 2 Note On - Duracao: 272340 Nota: C1 Vol.: 58
Chanel 10 Note Off - Duracao: 272340 Nota: C1 Vol.: 63
Chanel 10 Note On - Duracao: 272340 Nota: C1 Vol.: 65
Chanel 5 Note Off - Duracao: 272400 Nota: C1 Vol.: 94
Chanel 5 Note On - Duracao: 272400 Nota: C1 Vol.: 92
Chanel 2 Note Off - Duracao: 272460 Nota: C1 Vol.: 58
Chanel 2 Note On - Duracao: 272460 Nota: C1 Vol.: 57
Chanel 5 Note Off - Duracao: 272520 Nota: C1 Vol.: 92
Chanel 5 Note On - Duracao: 272520 Nota: C1 Vol.: 83
Chanel 9 Note Off - Duracao: 272520 Nota: C1 Vol.: 50
Chanel 9 Note On - Duracao: 272520 Nota: C1 Vol.: 50
Chanel 2 Note Off - Duracao: 272580 Nota: C1 Vol.: 57
Chanel 2 Note On - Duracao: 272580 Nota: C1 Vol.: 56
Chanel 5 Note Off - Duracao: 272640 Nota: C1 Vol.: 83
Chanel 5 Note On - Duracao: 272640 Nota: C1 Vol.: 84
Chanel 6 Note Off - Duracao: 272640 Nota: C1 Vol.: 54
Chanel 6 Note On - Duracao: 272640 Nota: C1 Vol.: 61
Chanel 2 Note Off - Duracao: 272700 Nota: C1 Vol.: 56
Chanel 2 Note On - Duracao: 272700 Nota: C1 Vol.: 58
Chanel 4 Note Off - Duracao: 272760 Nota: C1 Vol.: 68
Chanel 4 Note On - Duracao: 272760 Nota: C1 Vol.: 59
Chanel 5 Note Off - Duracao: 272760 Nota: C1 Vol.: 84
Chanel 5 Note On - Duracao: 272760 Nota: C1 Vol.: 83
Chanel 2 Note Off - Duracao: 272820 Nota: C1 Vol.: 58
Chanel 2 Note On - Duracao: 272820 Nota: C1 Vol.: 59
Chanel 10 Note Off - Duracao: 272820 Nota: C1 Vol.: 65
Chanel 10 Note On - Duracao: 272820 Nota: C1 Vol.: 66
Chanel 5 Note Off - Duracao: 272880 Nota: C1 Vol.: 83
Chanel 5 Note On - Duracao: 272880 Nota: C1 Vol.: 76
Chanel 6 Note Off - Duracao: 272880 Nota: C1 Vol.: 61
Chanel 6 Note On - Duracao: 272880 Nota: C1 Vol.: 63
Chanel 2 Note Off - Duracao: 272940 Nota: C1 Vol.: 59
Chanel 2 Note On - Duracao: 272940 Nota: C1 Vol.: 59
Chanel 9 Note Off - Duracao: 273000 Nota: C1 Vol.: 50
Chanel 9 Note On - Duracao: 273000 Nota: C1 Vol.: 52
Chanel 2 Note Off - Duracao: 273060 Nota: C1 Vol.: 59
Chanel 2 Note On - Duracao: 273060 Nota: C1 Vol.: 60
Chanel 10 Note Off - Duracao: 273060 Nota: C1 Vol.: 66
Chanel 10 Note On - Duracao: 273060 Nota: C1 Vol.: 63
Chanel 5 Note Off - Duracao: 273120 Nota: C1 Vol.: 76
Chanel 5 Note On - Duracao: 273120 Nota: C1 Vol.: 62
Chanel 6 Note Off - Duracao: 273120 Nota: C1 Vol.: 63
Chanel 6 Note On - Duracao: 273120 Nota: C1 Vol.: 54
Chanel 9 Note Off - Duracao: 273120 Nota: C1 Vol.: 52
Chanel 9 Note On - Duracao: 273120 Nota: C1 Vol.: 52
Chanel 2 Note Off - Duracao: 273180 Nota: C1 Vol.: 60
Chanel 2 Note On - Duracao: 273180 Nota: C1 Vol.: 65
Chanel 3 Note Off - Duracao: 273180 Nota: C1 Vol.: 40
Chanel 3 Note On - Duracao: 273180 Nota: C1 Vol.: 49
Chanel 4 Note Off - Duracao: 273240 Nota: C1 Vol.: 59
Chanel 4 Note On - Duracao: 273240 Nota: C1 Vol.: 58
Chanel 9 Note Off - Duracao: 273240 Nota: C1 Vol.: 52
Chanel 9 Note On - Duracao: 273240 Nota: C1 Vol.: 49
Chanel 2 Note Off - Duracao: 273300 Nota: C1 Vol.: 65
Chanel 2 Note On - Duracao: 273300 Nota: C1 Vol.: 51
Chanel 9 Note Off - Duracao: 273360 Nota: C1 Vol.: 49
Chanel 9 Note On - Duracao: 273360 Nota: C1 Vol.: 49
Chanel 3 Note Off - Duracao: 273420 Nota: C1 Vol.: 49
Chanel 3 Note On - Duracao: 273420 Nota: C1 Vol.: 46
Chanel 9 Note Off - Duracao: 273480 Nota: C1 Vol.: 49
Chanel 9 Note On - Duracao: 273480 Nota: C1 Vol.: 51
Chanel 8 Note Off - Duracao: 273540 Nota: C1 Vol.: 47
Chanel 8 Note On - Duracao: 273540 Nota: C1 Vol.: 72
Chanel 10 Note Off - Duracao: 273540 Nota: C1 Vol.: 63
Chanel 10 Note On - Duracao: 273540 Nota: C1 Vol.: 63
Chanel 6 Note Off - Duracao: 273600 Nota: C1 Vol.: 54
Chanel 6 Note On - Duracao: 273600 Nota: C1 Vol.: 42
Chanel 9 Note Off - Duracao: 273600 Nota: C1 Vol.: 51
Chanel 9 Note On - Duracao: 273600 Nota: C1 Vol.: 51
Chanel 3 Note Off - Duracao: 273660 Nota: C1 Vol.: 46
Chanel 3 Note On - Duracao: 273660 Nota: C1 Vol.: 49
Chanel 4 Note Off - Duracao: 273720 Nota: C1 Vol.: 58
Chanel 4 Note On - Duracao: 273720 Nota: C1 Vol.: 69
Chanel 9 Note Off - Duracao: 273720 Nota: C1 Vol.: 51
Chanel 9 Note On - Duracao: 273720 Nota: C1 Vol.: 54
Chanel 2 Note Off - Duracao: 273780 Nota: C1 Vol.: 51
Chanel 2 Note On - Duracao: 273780 Nota: C1 Vol.: 40
Chanel 3 Note Off - Duracao: 273780 Nota: C1 Vol.: 49
Chanel 3 Note On - Duracao: 273780 Nota: C1 Vol.: 51
Chanel 4 Note Off - Duracao: 273840 Nota: C1 Vol.: 69
Chanel 4 Note On - Duracao: 273840 Nota: C1 Vol.: 76
Chanel 9 Note Off - Duracao: 273840 Nota: C1 Vol.: 54
Chanel 9 Note On - Duracao: 273840 Nota: C1 Vol.: 51
Chanel 4 Note Off - Duracao: 273900 Nota: C1 Vol.: 76
Chanel 4 Note On - Duracao: 273900 Nota: C1 Vol.: 70
Chanel 9 Note Off - Duracao: 273960 Nota: C1 Vol.: 51
Chanel 9 Note On - Duracao: 273960 Nota: C1 Vol.: 54
Chanel 3 Note Off - Duracao: 274020 Nota: C1 Vol.: 51
Chanel 3 Note On - Duracao: 274020 Nota: C1 Vol.: 47
Chanel 4 Note Off - Duracao: 274020 Nota: C1 Vol.: 70
Chanel 4 Note On - Duracao: 274020 Nota: C1 Vol.: 79
Chanel 7 Note Off - Duracao: 274020 Nota: C1 Vol.: 44
Chanel 7 Note On - Duracao: 274020 Nota: C1 Vol.: 45
Chanel 8 Note Off - Duracao: 274020 Nota: C1 Vol.: 72
Chanel 8 Note On - Duracao: 274020 Nota: C1 Vol.: 84
Chanel 10 Note Off - Duracao: 274020 Nota: C1 Vol.: 63
Chanel 10 Note On - Duracao: 274020 Nota: C1 Vol.: 55
Chanel 5 Note Off - Duracao: 274080 Nota: C1 Vol.: 62
Chanel 5 Note On - Duracao: 274080 Nota: C1 Vol.: 72
Chanel 9 Note Off - Duracao: 274080 Nota: C1 Vol.: 54
Chanel 9 Note On - Duracao: 274080 Nota: C1 Vol.: 54
Chanel 4 Note Off - Duracao: 274140 Nota: C1 Vol.: 79
Chanel 4 Note On - Duracao: 274140 Nota: C1 Vol.: 89
Chanel 4 Note Off - Duracao: 274200 Nota: C1 Vol.: 89
Chanel 4 Note On - Duracao: 274200 Nota: C1 Vol.: 95
Chanel 9 Note Off - Duracao: 274200 Nota: C1 Vol.: 54
Chanel 9 Note On - Duracao: 274200 Nota: C1 Vol.: 54
Chanel 4 Note Off - Duracao: 274260 Nota: C1 Vol.: 95
Chanel 4 Note On - Duracao: 274260 Nota: C1 Vol.: 95
Chanel 8 Note Off - Duracao: 274260 Nota: C1 Vol.: 84
Chanel 8 Note On - Duracao: 274260 Nota: C1 Vol.: 87
Chanel 4 Note Off - Duracao: 274320 Nota: C1 Vol.: 95
Chanel 4 Note On - Duracao: 274320 Nota: C1 Vol.: 94
Chanel 9 Note Off - Duracao: 274320 Nota: C1 Vol.: 54
Chanel 9 Note On - Duracao: 274320 Nota: C1 Vol.: 56
Chanel 4 Note Off - Duracao: 274380 Nota: C1 Vol.: 94
Chanel 4 Note On - Duracao: 274380 Nota: C1 Vol.: 91
Chanel 8 Note Off - Duracao: 274380 Nota: C1 Vol.: 87
Chanel 8 Note On - Duracao: 274380 Nota: C1 Vol.: 82
Chanel 9 Note Off - Duracao: 274440 Nota: C1 Vol.: 56
Chanel 9 Note On - Duracao: 274440 Nota: C1 Vol.: 55
Chanel 3 Note Off - Duracao: 274500 Nota: C1 Vol.: 47
Chanel 3 Note On - Duracao: 274500 Nota: C1 Vol.: 40
Chanel 4 Note Off - Duracao: 274500 Nota: C1 Vol.: 91
Chanel 4 Note On - Duracao: 274500 Nota: C1 Vol.: 54
Chanel 10 Note Off - Duracao: 274500 Nota: C1 Vol.: 55
Chanel 10 Note On - Duracao: 274500 Nota: C1 Vol.: 52
Chanel 5 Note Off - Duracao: 274560 Nota: C1 Vol.: 72
Chanel 5 Note On - Duracao: 274560 Nota: C1 Vol.: 69
Chanel 6 Note Off - Duracao: 274560 Nota: C1 Vol.: 42
Chanel 6 Note On - Duracao: 274560 Nota: C1 Vol.: 48
Chanel 9 Note Off - Duracao: 274560 Nota: C1 Vol.: 55
Chanel 9 Note On - Duracao: 274560 Nota: C1 Vol.: 49
Chanel 8 Note Off - Duracao: 274620 Nota: C1 Vol.: 82
Chanel 8 Note On - Duracao: 274620 Nota: C1 Vol.: 89
Chanel 2 Note Off - Duracao: 274740 Nota: C1 Vol.: 40
Chanel 2 Note On - Duracao: 274740 Nota: C1 Vol.: 40
Chanel 8 Note Off - Duracao: 274740 Nota: C1 Vol.: 89
Chanel 8 Note On - Duracao: 274740 Nota: C1 Vol.: 93
Chanel 9 Note Off - Duracao: 274800 Nota: C1 Vol.: 49
Chanel 9 Note On - Duracao: 274800 Nota: C1 Vol.: 53
Chanel 8 Note Off - Duracao: 274860 Nota: C1 Vol.: 93
Chanel 8 Note On - Duracao: 274860 Nota: C1 Vol.: 93
Chanel 9 Note Off - Duracao: 274920 Nota: C1 Vol.: 53
Chanel 9 Note On - Duracao: 274920 Nota: C1 Vol.: 55
Chanel 8 Note Off - Duracao: 274980 Nota: C1 Vol.: 93
Chanel 8 Note On - Duracao: 274980 Nota: C1 Vol.: 93
Chanel 5 Note Off - Duracao: 275040 Nota: C1 Vol.: 69
Chanel 5 Note On - Duracao: 275040 Nota: C1 Vol.: 55
Chanel 9 Note Off - Duracao: 275040 Nota: C1 Vol.: 55
Chanel 9 Note On - Duracao: 275040 Nota: C1 Vol.: 53
Chanel 8 Note Off - Duracao: 275100 Nota: C1 Vol.: 93
Chanel 8 Note On - Duracao: 275100 Nota: C1 Vol.: 86
Chanel 9 Note Off - Duracao: 275160 Nota: C1 Vol.: 53
Chanel 9 Note On - Duracao: 275160 Nota: C1 Vol.: 52
Chanel 8 Note Off - Duracao: 275220 Nota: C1 Vol.: 86
Chanel 8 Note On - Duracao: 275220 Nota: C1 Vol.: 84
Chanel 9 Note Off - Duracao: 275280 Nota: C1 Vol.: 52
Chanel 9 Note On - Duracao: 275280 Nota: C1 Vol.: 52
Chanel 8 Note Off - Duracao: 275340 Nota: C1 Vol.: 84
Chanel 8 Note On - Duracao: 275340 Nota: C1 Vol.: 92
Chanel 9 Note Off - Duracao: 275400 Nota: C1 Vol.: 52
Chanel 9 Note On - Duracao: 275400 Nota: C1 Vol.: 56
Chanel 4 Note Off - Duracao: 275460 Nota: C1 Vol.: 54
Chanel 4 Note On - Duracao: 275460 Nota: C1 Vol.: 64
Chanel 8 Note Off - Duracao: 275460 Nota: C1 Vol.: 92
Chanel 8 Note On - Duracao: 275460 Nota: C1 Vol.: 98
Chanel 10 Note Off - Duracao: 275460 Nota: C1 Vol.: 52
Chanel 10 Note On - Duracao: 275460 Nota: C1 Vol.: 53
Chanel 6 Note Off - Duracao: 275520 Nota: C1 Vol.: 48
Chanel 6 Note On - Duracao: 275520 Nota: C1 Vol.: 44
Chanel 8 Note Off - Duracao: 275520 Nota: C1 Vol.: 98
Chanel 8 Note On - Duracao: 275520 Nota: C1 Vol.: 98
Chanel 9 Note Off - Duracao: 275520 Nota: C1 Vol.: 56
Chanel 9 Note On - Duracao: 275520 Nota: C1 Vol.: 56
Chanel 8 Note Off - Duracao: 275580 Nota: C1 Vol.: 98
Chanel 8 Note On - Duracao: 275580 Nota: C1 Vol.: 95
Chanel 8 Note Off - Duracao: 275640 Nota: C1 Vol.: 95
Chanel 8 Note On - Duracao: 275640 Nota: C1 Vol.: 87
Chanel 9 Note Off - Duracao: 275640 Nota: C1 Vol.: 56
Chanel 9 Note On - Duracao: 275640 Nota: C1 Vol.: 55
Chanel 8 Note Off - Duracao: 275700 Nota: C1 Vol.: 87
Chanel 8 Note On - Duracao: 275700 Nota: C1 Vol.: 71
Chanel 9 Note Off - Duracao: 275760 Nota: C1 Vol.: 55
Chanel 9 Note On - Duracao: 275760 Nota: C1 Vol.: 55
Chanel 9 Note Off - Duracao: 275880 Nota: C1 Vol.: 55
Chanel 9 Note On - Duracao: 275880 Nota: C1 Vol.: 50
Chanel 4 Note Off - Duracao: 275940 Nota: C1 Vol.: 64
Chanel 4 Note On - Duracao: 275940 Nota: C1 Vol.: 57
Chanel 7 Note Off - Duracao: 275940 Nota: C1 Vol.: 45
Chanel 7 Note On - Duracao: 275940 Nota: C1 Vol.: 45
Chanel 8 Note Off - Duracao: 275940 Nota: C1 Vol.: 71
Chanel 8 Note On - Duracao: 275940 Nota: C1 Vol.: 71
Chanel 5 Note Off - Duracao: 276000 Nota: C1 Vol.: 55
Chanel 5 Note On - Duracao: 276000 Nota: C1 Vol.: 52
Chanel 9 Note Off - Duracao: 276000 Nota: C1 Vol.: 50
Chanel 9 Note On - Duracao: 276000 Nota: C1 Vol.: 44
Chanel 8 Note Off - Duracao: 276060 Nota: C1 Vol.: 71
Chanel 8 Note On - Duracao: 276060 Nota: C1 Vol.: 66
Chanel 8 Note Off - Duracao: 276180 Nota: C1 Vol.: 66
Chanel 8 Note On - Duracao: 276180 Nota: C1 Vol.: 68
Chanel 9 Note Off - Duracao: 276240 Nota: C1 Vol.: 44
Chanel 9 Note On - Duracao: 276240 Nota: C1 Vol.: 57
Chanel 8 Note Off - Duracao: 276300 Nota: C1 Vol.: 68
Chanel 8 Note On - Duracao: 276300 Nota: C1 Vol.: 56
Chanel 9 Note Off - Duracao: 276360 Nota: C1 Vol.: 57
Chanel 9 Note On - Duracao: 276360 Nota: C1 Vol.: 48
Chanel 3 Note Off - Duracao: 276420 Nota: C1 Vol.: 40
Chanel 3 Note On - Duracao: 276420 Nota: C1 Vol.: 50
Chanel 4 Note Off - Duracao: 276420 Nota: C1 Vol.: 57
Chanel 4 Note On - Duracao: 276420 Nota: C1 Vol.: 49
Chanel 10 Note Off - Duracao: 276420 Nota: C1 Vol.: 53
Chanel 10 Note On - Duracao: 276420 Nota: C1 Vol.: 54
Chanel 5 Note Off - Duracao: 276480 Nota: C1 Vol.: 52
Chanel 5 Note On - Duracao: 276480 Nota: C1 Vol.: 52
Chanel 6 Note Off - Duracao: 276480 Nota: C1 Vol.: 44
Chanel 6 Note On - Duracao: 276480 Nota: C1 Vol.: 45
Chanel 9 Note Off - Duracao: 276600 Nota: C1 Vol.: 48
Chanel 9 Note On - Duracao: 276600 Nota: C1 Vol.: 43
Chanel 2 Note Off - Duracao: 276660 Nota: C1 Vol.: 40
Chanel 2 Note On - Duracao: 276660 Nota: C1 Vol.: 40
Chanel 8 Note Off - Duracao: 276780 Nota: C1 Vol.: 56
Chanel 8 Note On - Duracao: 276780 Nota: C1 Vol.: 58
Chanel 5 Note Off - Duracao: 276960 Nota: C1 Vol.: 52
Chanel 5 Note On - Duracao: 276960 Nota: C1 Vol.: 47
Chanel 9 Note Off - Duracao: 277080 Nota: C1 Vol.: 43
Chanel 9 Note On - Duracao: 277080 Nota: C1 Vol.: 58
Chanel 9 Note Off - Duracao: 277320 Nota: C1 Vol.: 58
Chanel 9 Note On - Duracao: 277320 Nota: C1 Vol.: 59
Chanel 3 Note Off - Duracao: 277380 Nota: C1 Vol.: 50
Chanel 3 Note On - Duracao: 277380 Nota: C1 Vol.: 75
Chanel 4 Note Off - Duracao: 277380 Nota: C1 Vol.: 49
Chanel 4 Note On - Duracao: 277380 Nota: C1 Vol.: 48
Chanel 10 Note Off - Duracao: 277380 Nota: C1 Vol.: 54
Chanel 10 Note On - Duracao: 277380 Nota: C1 Vol.: 52
Chanel 6 Note Off - Duracao: 277440 Nota: C1 Vol.: 45
Chanel 6 Note On - Duracao: 277440 Nota: C1 Vol.: 41
Chanel 9 Note Off - Duracao: 277560 Nota: C1 Vol.: 59
Chanel 9 Note On - Duracao: 277560 Nota: C1 Vol.: 69
Chanel 3 Note Off - Duracao: 277620 Nota: C1 Vol.: 75
Chanel 3 Note On - Duracao: 277620 Nota: C1 Vol.: 79
Chanel 9 Note Off - Duracao: 277680 Nota: C1 Vol.: 69
Chanel 9 Note On - Duracao: 277680 Nota: C1 Vol.: 66
Chanel 8 Note Off - Duracao: 277740 Nota: C1 Vol.: 58
Chanel 8 Note On - Duracao: 277740 Nota: C1 Vol.: 55
Chanel 9 Note Off - Duracao: 277800 Nota: C1 Vol.: 66
Chanel 9 Note On - Duracao: 277800 Nota: C1 Vol.: 64
Chanel 3 Note Off - Duracao: 277860 Nota: C1 Vol.: 79
Chanel 3 Note On - Duracao: 277860 Nota: C1 Vol.: 70
Chanel 7 Note Off - Duracao: 277860 Nota: C1 Vol.: 45
Chanel 7 Note On - Duracao: 277860 Nota: C1 Vol.: 45
Chanel 5 Note Off - Duracao: 277920 Nota: C1 Vol.: 47
Chanel 5 Note On - Duracao: 277920 Nota: C1 Vol.: 49
Chanel 9 Note Off - Duracao: 277920 Nota: C1 Vol.: 64
Chanel 9 Note On - Duracao: 277920 Nota: C1 Vol.: 64
Chanel 9 Note Off - Duracao: 278040 Nota: C1 Vol.: 64
Chanel 9 Note On - Duracao: 278040 Nota: C1 Vol.: 48
Chanel 3 Note Off - Duracao: 278340 Nota: C1 Vol.: 70
Chanel 3 Note On - Duracao: 278340 Nota: C1 Vol.: 67
Chanel 4 Note Off - Duracao: 278340 Nota: C1 Vol.: 48
Chanel 4 Note On - Duracao: 278340 Nota: C1 Vol.: 44
Chanel 10 Note Off - Duracao: 278340 Nota: C1 Vol.: 52
Chanel 10 Note On - Duracao: 278340 Nota: C1 Vol.: 50
Chanel 6 Note Off - Duracao: 278400 Nota: C1 Vol.: 41
Chanel 6 Note On - Duracao: 278400 Nota: C1 Vol.: 52
Chanel 9 Note Off - Duracao: 278520 Nota: C1 Vol.: 48
Chanel 9 Note On - Duracao: 278520 Nota: C1 Vol.: 44
Chanel 2 Note Off - Duracao: 278580 Nota: C1 Vol.: 40
Chanel 2 Note On - Duracao: 278580 Nota: C1 Vol.: 40
Chanel 8 Note Off - Duracao: 278700 Nota: C1 Vol.: 55
Chanel 8 Note On - Duracao: 278700 Nota: C1 Vol.: 64
Chanel 3 Note Off - Duracao: 278820 Nota: C1 Vol.: 67
Chanel 3 Note On - Duracao: 278820 Nota: C1 Vol.: 56
Chanel 5 Note Off - Duracao: 278880 Nota: C1 Vol.: 49
Chanel 5 Note On - Duracao: 278880 Nota: C1 Vol.: 54
Chanel 6 Note Off - Duracao: 278880 Nota: C1 Vol.: 52
Chanel 6 Note On - Duracao: 278880 Nota: C1 Vol.: 44
Chanel 8 Note Off - Duracao: 278940 Nota: C1 Vol.: 64
Chanel 8 Note On - Duracao: 278940 Nota: C1 Vol.: 63
Chanel 8 Note Off - Duracao: 279060 Nota: C1 Vol.: 63
Chanel 8 Note On - Duracao: 279060 Nota: C1 Vol.: 59
Chanel 8 Note Off - Duracao: 279180 Nota: C1 Vol.: 59
Chanel 8 Note On - Duracao: 279180 Nota: C1 Vol.: 62
Chanel 4 Note Off - Duracao: 279300 Nota: C1 Vol.: 44
Chanel 4 Note On - Duracao: 279300 Nota: C1 Vol.: 48
Chanel 8 Note Off - Duracao: 279300 Nota: C1 Vol.: 62
Chanel 8 Note On - Duracao: 279300 Nota: C1 Vol.: 68
Chanel 10 Note Off - Duracao: 279300 Nota: C1 Vol.: 50
Chanel 10 Note On - Duracao: 279300 Nota: C1 Vol.: 52
Chanel 5 Note Off - Duracao: 279360 Nota: C1 Vol.: 54
Chanel 5 Note On - Duracao: 279360 Nota: C1 Vol.: 65
Chanel 8 Note Off - Duracao: 279420 Nota: C1 Vol.: 68
Chanel 8 Note On - Duracao: 279420 Nota: C1 Vol.: 72
Chanel 5 Note Off - Duracao: 279480 Nota: C1 Vol.: 65
Chanel 5 Note On - Duracao: 279480 Nota: C1 Vol.: 70
Chanel 9 Note Off - Duracao: 279480 Nota: C1 Vol.: 44
Chanel 9 Note On - Duracao: 279480 Nota: C1 Vol.: 45
Chanel 8 Note Off - Duracao: 279540 Nota: C1 Vol.: 72
Chanel 8 Note On - Duracao: 279540 Nota: C1 Vol.: 67
Chanel 5 Note Off - Duracao: 279600 Nota: C1 Vol.: 70
Chanel 5 Note On - Duracao: 279600 Nota: C1 Vol.: 70
Chanel 5 Note Off - Duracao: 279720 Nota: C1 Vol.: 70
Chanel 5 Note On - Duracao: 279720 Nota: C1 Vol.: 63
Chanel 3 Note Off - Duracao: 279780 Nota: C1 Vol.: 56
Chanel 3 Note On - Duracao: 279780 Nota: C1 Vol.: 41
Chanel 7 Note Off - Duracao: 279780 Nota: C1 Vol.: 45
Chanel 7 Note On - Duracao: 279780 Nota: C1 Vol.: 56
Chanel 8 Note Off - Duracao: 279780 Nota: C1 Vol.: 67
Chanel 8 Note On - Duracao: 279780 Nota: C1 Vol.: 57
Chanel 10 Note Off - Duracao: 279780 Nota: C1 Vol.: 52
Chanel 10 Note On - Duracao: 279780 Nota: C1 Vol.: 47
Chanel 6 Note Off - Duracao: 279840 Nota: C1 Vol.: 44
Chanel 6 Note On - Duracao: 279840 Nota: C1 Vol.: 50
Chanel 5 Note Off - Duracao: 279960 Nota: C1 Vol.: 63
Chanel 5 Note On - Duracao: 279960 Nota: C1 Vol.: 62
Chanel 5 Note Off - Duracao: 280200 Nota: C1 Vol.: 62
Chanel 5 Note On - Duracao: 280200 Nota: C1 Vol.: 58
Chanel 4 Note Off - Duracao: 280260 Nota: C1 Vol.: 48
Chanel 4 Note On - Duracao: 280260 Nota: C1 Vol.: 63
Chanel 6 Note Off - Duracao: 280320 Nota: C1 Vol.: 50
Chanel 6 Note On - Duracao: 280320 Nota: C1 Vol.: 51
Chanel 9 Note Off - Duracao: 280440 Nota: C1 Vol.: 45
Chanel 9 Note On - Duracao: 280440 Nota: C1 Vol.: 49
Chanel 2 Note Off - Duracao: 280500 Nota: C1 Vol.: 40
Chanel 2 Note On - Duracao: 280500 Nota: C1 Vol.: 40
Chanel 4 Note Off - Duracao: 280500 Nota: C1 Vol.: 63
Chanel 4 Note On - Duracao: 280500 Nota: C1 Vol.: 54
Chanel 5 Note Off - Duracao: 280680 Nota: C1 Vol.: 58
Chanel 5 Note On - Duracao: 280680 Nota: C1 Vol.: 56
Chanel 7 Note Off - Duracao: 280740 Nota: C1 Vol.: 56
Chanel 7 Note On - Duracao: 280740 Nota: C1 Vol.: 63
Chanel 8 Note Off - Duracao: 280740 Nota: C1 Vol.: 57
Chanel 8 Note On - Duracao: 280740 Nota: C1 Vol.: 72
Chanel 10 Note Off - Duracao: 280740 Nota: C1 Vol.: 47
Chanel 10 Note On - Duracao: 280740 Nota: C1 Vol.: 47
Chanel 6 Note Off - Duracao: 280800 Nota: C1 Vol.: 51
Chanel 6 Note On - Duracao: 280800 Nota: C1 Vol.: 49
Chanel 4 Note Off - Duracao: 280980 Nota: C1 Vol.: 54
Chanel 4 Note On - Duracao: 280980 Nota: C1 Vol.: 62
Chanel 5 Note Off - Duracao: 281160 Nota: C1 Vol.: 56
Chanel 5 Note On - Duracao: 281160 Nota: C1 Vol.: 57
Chanel 4 Note Off - Duracao: 281220 Nota: C1 Vol.: 62
Chanel 4 Note On - Duracao: 281220 Nota: C1 Vol.: 60
Chanel 7 Note Off - Duracao: 281220 Nota: C1 Vol.: 63
Chanel 7 Note On - Duracao: 281220 Nota: C1 Vol.: 61
Chanel 8 Note Off - Duracao: 281220 Nota: C1 Vol.: 72
Chanel 8 Note On - Duracao: 281220 Nota: C1 Vol.: 63
Chanel 9 Note Off - Duracao: 281400 Nota: C1 Vol.: 49
Chanel 9 Note On - Duracao: 281400 Nota: C1 Vol.: 50
Chanel 5 Note Off - Duracao: 281640 Nota: C1 Vol.: 57
Chanel 5 Note On - Duracao: 281640 Nota: C1 Vol.: 57
Chanel 3 Note Off - Duracao: 281700 Nota: C1 Vol.: 41
Chanel 3 Note On - Duracao: 281700 Nota: C1 Vol.: 40
Chanel 4 Note Off - Duracao: 281700 Nota: C1 Vol.: 60
Chanel 4 Note On - Duracao: 281700 Nota: C1 Vol.: 52
Chanel 7 Note Off - Duracao: 281700 Nota: C1 Vol.: 61
Chanel 7 Note On - Duracao: 281700 Nota: C1 Vol.: 59
Chanel 10 Note Off - Duracao: 281700 Nota: C1 Vol.: 47
Chanel 10 Note On - Duracao: 281700 Nota: C1 Vol.: 53
Chanel 6 Note Off - Duracao: 281760 Nota: C1 Vol.: 49
Chanel 6 Note On - Duracao: 281760 Nota: C1 Vol.: 56
Chanel 5 Note Off - Duracao: 282120 Nota: C1 Vol.: 57
Chanel 5 Note On - Duracao: 282120 Nota: C1 Vol.: 67
Chanel 8 Note Off - Duracao: 282180 Nota: C1 Vol.: 63
Chanel 8 Note On - Duracao: 282180 Nota: C1 Vol.: 52
Chanel 6 Note Off - Duracao: 282240 Nota: C1 Vol.: 56
Chanel 6 Note On - Duracao: 282240 Nota: C1 Vol.: 59
Chanel 5 Note Off - Duracao: 282360 Nota: C1 Vol.: 67
Chanel 5 Note On - Duracao: 282360 Nota: C1 Vol.: 59
Chanel 9 Note Off - Duracao: 282360 Nota: C1 Vol.: 50
Chanel 9 Note On - Duracao: 282360 Nota: C1 Vol.: 55
Chanel 2 Note Off - Duracao: 282420 Nota: C1 Vol.: 40
Chanel 2 Note On - Duracao: 282420 Nota: C1 Vol.: 40
Chanel 4 Note Off - Duracao: 282660 Nota: C1 Vol.: 52
Chanel 4 Note On - Duracao: 282660 Nota: C1 Vol.: 46
Chanel 7 Note Off - Duracao: 282660 Nota: C1 Vol.: 59
Chanel 7 Note On - Duracao: 282660 Nota: C1 Vol.: 51
Chanel 10 Note Off - Duracao: 282660 Nota: C1 Vol.: 53
Chanel 10 Note On - Duracao: 282660 Nota: C1 Vol.: 60
Chanel 6 Note Off - Duracao: 282720 Nota: C1 Vol.: 59
Chanel 6 Note On - Duracao: 282720 Nota: C1 Vol.: 58
Chanel 5 Note Off - Duracao: 282840 Nota: C1 Vol.: 59
Chanel 5 Note On - Duracao: 282840 Nota: C1 Vol.: 57
Chanel 9 Note Off - Duracao: 282840 Nota: C1 Vol.: 55
Chanel 9 Note On - Duracao: 282840 Nota: C1 Vol.: 58
Chanel 8 Note Off - Duracao: 283140 Nota: C1 Vol.: 52
Chanel 8 Note On - Duracao: 283140 Nota: C1 Vol.: 62
Chanel 10 Note Off - Duracao: 283140 Nota: C1 Vol.: 60
Chanel 10 Note On - Duracao: 283140 Nota: C1 Vol.: 55
Chanel 6 Note Off - Duracao: 283200 Nota: C1 Vol.: 58
Chanel 6 Note On - Duracao: 283200 Nota: C1 Vol.: 48
Chanel 5 Note Off - Duracao: 283320 Nota: C1 Vol.: 57
Chanel 5 Note On - Duracao: 283320 Nota: C1 Vol.: 60
Chanel 9 Note Off - Duracao: 283320 Nota: C1 Vol.: 58
Chanel 9 Note On - Duracao: 283320 Nota: C1 Vol.: 62
Chanel 8 Note Off - Duracao: 283380 Nota: C1 Vol.: 62
Chanel 8 Note On - Duracao: 283380 Nota: C1 Vol.: 66
Chanel 3 Note Off - Duracao: 283620 Nota: C1 Vol.: 40
Chanel 3 Note On - Duracao: 283620 Nota: C1 Vol.: 52
Chanel 7 Note Off - Duracao: 283620 Nota: C1 Vol.: 51
Chanel 7 Note On - Duracao: 283620 Nota: C1 Vol.: 45
Chanel 8 Note Off - Duracao: 283620 Nota: C1 Vol.: 66
Chanel 8 Note On - Duracao: 283620 Nota: C1 Vol.: 68
Chanel 5 Note Off - Duracao: 283800 Nota: C1 Vol.: 60
Chanel 5 Note On - Duracao: 283800 Nota: C1 Vol.: 62
Chanel 9 Note Off - Duracao: 283800 Nota: C1 Vol.: 62
Chanel 9 Note On - Duracao: 283800 Nota: C1 Vol.: 71
Chanel 8 Note Off - Duracao: 283860 Nota: C1 Vol.: 68
Chanel 8 Note On - Duracao: 283860 Nota: C1 Vol.: 72
Chanel 8 Note Off - Duracao: 283980 Nota: C1 Vol.: 72
Chanel 8 Note On - Duracao: 283980 Nota: C1 Vol.: 69
Chanel 5 Note Off - Duracao: 284040 Nota: C1 Vol.: 62
Chanel 5 Note On - Duracao: 284040 Nota: C1 Vol.: 55
Chanel 9 Note Off - Duracao: 284040 Nota: C1 Vol.: 71
Chanel 9 Note On - Duracao: 284040 Nota: C1 Vol.: 72
Chanel 10 Note Off - Duracao: 284100 Nota: C1 Vol.: 55
Chanel 10 Note On - Duracao: 284100 Nota: C1 Vol.: 56
Chanel 6 Note Off - Duracao: 284160 Nota: C1 Vol.: 48
Chanel 6 Note On - Duracao: 284160 Nota: C1 Vol.: 61
Chanel 8 Note Off - Duracao: 284220 Nota: C1 Vol.: 69
Chanel 8 Note On - Duracao: 284220 Nota: C1 Vol.: 67
Chanel 9 Note Off - Duracao: 284280 Nota: C1 Vol.: 72
Chanel 9 Note On - Duracao: 284280 Nota: C1 Vol.: 72
Chanel 2 Note Off - Duracao: 284340 Nota: C1 Vol.: 40
Chanel 2 Note On - Duracao: 284340 Nota: C1 Vol.: 40
Chanel 6 Note Off - Duracao: 284400 Nota: C1 Vol.: 61
Chanel 6 Note On - Duracao: 284400 Nota: C1 Vol.: 61
Chanel 8 Note Off - Duracao: 284460 Nota: C1 Vol.: 67
Chanel 8 Note On - Duracao: 284460 Nota: C1 Vol.: 62
Chanel 5 Note Off - Duracao: 284520 Nota: C1 Vol.: 55
Chanel 5 Note On - Duracao: 284520 Nota: C1 Vol.: 40
Chanel 9 Note Off - Duracao: 284520 Nota: C1 Vol.: 72
Chanel 9 Note On - Duracao: 284520 Nota: C1 Vol.: 69
Chanel 3 Note Off - Duracao: 284580 Nota: C1 Vol.: 52
Chanel 3 Note On - Duracao: 284580 Nota: C1 Vol.: 66
Chanel 4 Note Off - Duracao: 284580 Nota: C1 Vol.: 46
Chanel 4 Note On - Duracao: 284580 Nota: C1 Vol.: 51
Chanel 6 Note Off - Duracao: 284640 Nota: C1 Vol.: 61
Chanel 6 Note On - Duracao: 284640 Nota: C1 Vol.: 63
Chanel 8 Note Off - Duracao: 284700 Nota: C1 Vol.: 62
Chanel 8 Note On - Duracao: 284700 Nota: C1 Vol.: 65
Chanel 9 Note Off - Duracao: 284760 Nota: C1 Vol.: 69
Chanel 9 Note On - Duracao: 284760 Nota: C1 Vol.: 72
Chanel 3 Note Off - Duracao: 284820 Nota: C1 Vol.: 66
Chanel 3 Note On - Duracao: 284820 Nota: C1 Vol.: 85
Chanel 6 Note Off - Duracao: 284880 Nota: C1 Vol.: 63
Chanel 6 Note On - Duracao: 284880 Nota: C1 Vol.: 66
Chanel 8 Note Off - Duracao: 284940 Nota: C1 Vol.: 65
Chanel 8 Note On - Duracao: 284940 Nota: C1 Vol.: 57
Chanel 9 Note Off - Duracao: 285000 Nota: C1 Vol.: 72
Chanel 9 Note On - Duracao: 285000 Nota: C1 Vol.: 77
Chanel 3 Note Off - Duracao: 285060 Nota: C1 Vol.: 85
Chanel 3 Note On - Duracao: 285060 Nota: C1 Vol.: 74
Chanel 10 Note Off - Duracao: 285060 Nota: C1 Vol.: 56
Chanel 10 Note On - Duracao: 285060 Nota: C1 Vol.: 61
Chanel 6 Note Off - Duracao: 285120 Nota: C1 Vol.: 66
Chanel 6 Note On - Duracao: 285120 Nota: C1 Vol.: 65
Chanel 9 Note Off - Duracao: 285240 Nota: C1 Vol.: 77
Chanel 9 Note On - Duracao: 285240 Nota: C1 Vol.: 83
Chanel 6 Note Off - Duracao: 285360 Nota: C1 Vol.: 65
Chanel 6 Note On - Duracao: 285360 Nota: C1 Vol.: 40
Chanel 8 Note Off - Duracao: 285420 Nota: C1 Vol.: 57
Chanel 8 Note On - Duracao: 285420 Nota: C1 Vol.: 63
Chanel 9 Note Off - Duracao: 285480 Nota: C1 Vol.: 83
Chanel 9 Note On - Duracao: 285480 Nota: C1 Vol.: 79
Chanel 3 Note Off - Duracao: 285540 Nota: C1 Vol.: 74
Chanel 3 Note On - Duracao: 285540 Nota: C1 Vol.: 72
Chanel 4 Note Off - Duracao: 285540 Nota: C1 Vol.: 51
Chanel 4 Note On - Duracao: 285540 Nota: C1 Vol.: 46
Chanel 7 Note Off - Duracao: 285540 Nota: C1 Vol.: 45
Chanel 7 Note On - Duracao: 285540 Nota: C1 Vol.: 40
Chanel 10 Note Off - Duracao: 285540 Nota: C1 Vol.: 61
Chanel 10 Note On - Duracao: 285540 Nota: C1 Vol.: 61
Chanel 8 Note Off - Duracao: 285660 Nota: C1 Vol.: 63
Chanel 8 Note On - Duracao: 285660 Nota: C1 Vol.: 67
Chanel 9 Note Off - Duracao: 285720 Nota: C1 Vol.: 79
Chanel 9 Note On - Duracao: 285720 Nota: C1 Vol.: 53
Chanel 8 Note Off - Duracao: 285900 Nota: C1 Vol.: 67
Chanel 8 Note On - Duracao: 285900 Nota: C1 Vol.: 77
Chanel 3 Note Off - Duracao: 286020 Nota: C1 Vol.: 72
Chanel 3 Note On - Duracao: 286020 Nota: C1 Vol.: 77
Chanel 10 Note Off - Duracao: 286020 Nota: C1 Vol.: 61
Chanel 10 Note On - Duracao: 286020 Nota: C1 Vol.: 68
Chanel 8 Note Off - Duracao: 286140 Nota: C1 Vol.: 77
Chanel 8 Note On - Duracao: 286140 Nota: C1 Vol.: 88
Chanel 2 Note Off - Duracao: 286260 Nota: C1 Vol.: 40
Chanel 2 Note On - Duracao: 286260 Nota: C1 Vol.: 56
Chanel 3 Note Off - Duracao: 286260 Nota: C1 Vol.: 77
Chanel 3 Note On - Duracao: 286260 Nota: C1 Vol.: 80
Chanel 8 Note Off - Duracao: 286260 Nota: C1 Vol.: 88
Chanel 8 Note On - Duracao: 286260 Nota: C1 Vol.: 87
Chanel 2 Note Off - Duracao: 286380 Nota: C1 Vol.: 56
Chanel 2 Note On - Duracao: 286380 Nota: C1 Vol.: 50
Chanel 8 Note Off - Duracao: 286380 Nota: C1 Vol.: 87
Chanel 8 Note On - Duracao: 286380 Nota: C1 Vol.: 83
Chanel 5 Note Off - Duracao: 286440 Nota: C1 Vol.: 40
Chanel 5 Note On - Duracao: 286440 Nota: C1 Vol.: 94
Chanel 2 Note Off - Duracao: 286500 Nota: C1 Vol.: 50
Chanel 2 Note On - Duracao: 286500 Nota: C1 Vol.: 43
Chanel 3 Note Off - Duracao: 286500 Nota: C1 Vol.: 80
Chanel 3 Note On - Duracao: 286500 Nota: C1 Vol.: 91
Chanel 4 Note Off - Duracao: 286500 Nota: C1 Vol.: 46
Chanel 4 Note On - Duracao: 286500 Nota: C1 Vol.: 64
Chanel 5 Note Off - Duracao: 286500 Nota: C1 Vol.: 94
Chanel 5 Note On - Duracao: 286500 Nota: C1 Vol.: 95
Chanel 10 Note Off - Duracao: 286500 Nota: C1 Vol.: 68
Chanel 10 Note On - Duracao: 286500 Nota: C1 Vol.: 74
Chanel 5 Note Off - Duracao: 286560 Nota: C1 Vol.: 95
Chanel 5 Note On - Duracao: 286560 Nota: C1 Vol.: 95
Chanel 2 Note Off - Duracao: 286620 Nota: C1 Vol.: 43
Chanel 2 Note On - Duracao: 286620 Nota: C1 Vol.: 43
Chanel 3 Note Off - Duracao: 286620 Nota: C1 Vol.: 91
Chanel 3 Note On - Duracao: 286620 Nota: C1 Vol.: 100
Chanel 5 Note Off - Duracao: 286620 Nota: C1 Vol.: 95
Chanel 5 Note On - Duracao: 286620 Nota: C1 Vol.: 90
Chanel 8 Note Off - Duracao: 286620 Nota: C1 Vol.: 83
Chanel 8 Note On - Duracao: 286620 Nota: C1 Vol.: 80
Chanel 3 Note Off - Duracao: 286680 Nota: C1 Vol.: 100
Chanel 3 Note On - Duracao: 286680 Nota: C1 Vol.: 90
Chanel 9 Note Off - Duracao: 286680 Nota: C1 Vol.: 53
Chanel 9 Note On - Duracao: 286680 Nota: C1 Vol.: 52
Chanel 2 Note Off - Duracao: 286740 Nota: C1 Vol.: 43
Chanel 2 Note On - Duracao: 286740 Nota: C1 Vol.: 43
Chanel 4 Note Off - Duracao: 286740 Nota: C1 Vol.: 64
Chanel 4 Note On - Duracao: 286740 Nota: C1 Vol.: 60
Chanel 5 Note Off - Duracao: 286740 Nota: C1 Vol.: 90
Chanel 5 Note On - Duracao: 286740 Nota: C1 Vol.: 87
Chanel 3 Note Off - Duracao: 286800 Nota: C1 Vol.: 90
Chanel 3 Note On - Duracao: 286800 Nota: C1 Vol.: 95
Chanel 2 Note Off - Duracao: 286860 Nota: C1 Vol.: 43
Chanel 2 Note On - Duracao: 286860 Nota: C1 Vol.: 44
Chanel 5 Note Off - Duracao: 286860 Nota: C1 Vol.: 87
Chanel 5 Note On - Duracao: 286860 Nota: C1 Vol.: 75
Chanel 8 Note Off - Duracao: 286860 Nota: C1 Vol.: 80
Chanel 8 Note On - Duracao: 286860 Nota: C1 Vol.: 75
Chanel 3 Note Off - Duracao: 286920 Nota: C1 Vol.: 95
Chanel 3 Note On - Duracao: 286920 Nota: C1 Vol.: 100
Chanel 2 Note Off - Duracao: 286980 Nota: C1 Vol.: 44
Chanel 2 Note On - Duracao: 286980 Nota: C1 Vol.: 47
Chanel 3 Note Off - Duracao: 286980 Nota: C1 Vol.: 100
Chanel 3 Note On - Duracao: 286980 Nota: C1 Vol.: 94
Chanel 4 Note Off - Duracao: 286980 Nota: C1 Vol.: 60
Chanel 4 Note On - Duracao: 286980 Nota: C1 Vol.: 55
Chanel 10 Note Off - Duracao: 286980 Nota: C1 Vol.: 74
Chanel 10 Note On - Duracao: 286980 Nota: C1 Vol.: 77
Chanel 3 Note Off - Duracao: 287040 Nota: C1 Vol.: 94
Chanel 3 Note On - Duracao: 287040 Nota: C1 Vol.: 77
Chanel 2 Note Off - Duracao: 287100 Nota: C1 Vol.: 47
Chanel 2 Note On - Duracao: 287100 Nota: C1 Vol.: 54
Chanel 5 Note Off - Duracao: 287100 Nota: C1 Vol.: 75
Chanel 5 Note On - Duracao: 287100 Nota: C1 Vol.: 63
Chanel 8 Note Off - Duracao: 287100 Nota: C1 Vol.: 75
Chanel 8 Note On - Duracao: 287100 Nota: C1 Vol.: 60
Chanel 2 Note Off - Duracao: 287220 Nota: C1 Vol.: 54
Chanel 2 Note On - Duracao: 287220 Nota: C1 Vol.: 40
Chanel 4 Note Off - Duracao: 287220 Nota: C1 Vol.: 55
Chanel 4 Note On - Duracao: 287220 Nota: C1 Vol.: 57
Chanel 3 Note Off - Duracao: 287280 Nota: C1 Vol.: 77
Chanel 3 Note On - Duracao: 287280 Nota: C1 Vol.: 76
Chanel 6 Note Off - Duracao: 287280 Nota: C1 Vol.: 40
Chanel 6 Note On - Duracao: 287280 Nota: C1 Vol.: 53
Chanel 4 Note Off - Duracao: 287460 Nota: C1 Vol.: 57
Chanel 4 Note On - Duracao: 287460 Nota: C1 Vol.: 55
Chanel 7 Note Off - Duracao: 287460 Nota: C1 Vol.: 40
Chanel 7 Note On - Duracao: 287460 Nota: C1 Vol.: 83
Chanel 10 Note Off - Duracao: 287460 Nota: C1 Vol.: 77
Chanel 10 Note On - Duracao: 287460 Nota: C1 Vol.: 74
Chanel 3 Note Off - Duracao: 287520 Nota: C1 Vol.: 76
Chanel 3 Note On - Duracao: 287520 Nota: C1 Vol.: 74
Chanel 5 Note Off - Duracao: 287580 Nota: C1 Vol.: 63
Chanel 5 Note On - Duracao: 287580 Nota: C1 Vol.: 64
Chanel 8 Note Off - Duracao: 287580 Nota: C1 Vol.: 60
Chanel 8 Note On - Duracao: 287580 Nota: C1 Vol.: 60
Chanel 9 Note Off - Duracao: 287640 Nota: C1 Vol.: 52
Chanel 9 Note On - Duracao: 287640 Nota: C1 Vol.: 54
Chanel 7 Note Off - Duracao: 287700 Nota: C1 Vol.: 83
Chanel 7 Note On - Duracao: 287700 Nota: C1 Vol.: 75
Chanel 3 Note Off - Duracao: 287760 Nota: C1 Vol.: 74
Chanel 3 Note On - Duracao: 287760 Nota: C1 Vol.: 74
Chanel 6 Note Off - Duracao: 287760 Nota: C1 Vol.: 53
Chanel 6 Note On - Duracao: 287760 Nota: C1 Vol.: 59
Chanel 8 Note Off - Duracao: 287820 Nota: C1 Vol.: 60
Chanel 8 Note On - Duracao: 287820 Nota: C1 Vol.: 40
Chanel 4 Note Off - Duracao: 287940 Nota: C1 Vol.: 55
Chanel 4 Note On - Duracao: 287940 Nota: C1 Vol.: 57
Chanel 7 Note Off - Duracao: 287940 Nota: C1 Vol.: 75
Chanel 7 Note On - Duracao: 287940 Nota: C1 Vol.: 82
Chanel 10 Note Off - Duracao: 287940 Nota: C1 Vol.: 74
Chanel 10 Note On - Duracao: 287940 Nota: C1 Vol.: 79
Chanel 3 Note Off - Duracao: 288000 Nota: C1 Vol.: 74
Chanel 3 Note On - Duracao: 288000 Nota: C1 Vol.: 74
Chanel 2 Note Off - Duracao: 288180 Nota: C1 Vol.: 40
Chanel 2 Note On - Duracao: 288180 Nota: C1 Vol.: 46
Chanel 7 Note Off - Duracao: 288180 Nota: C1 Vol.: 82
Chanel 7 Note On - Duracao: 288180 Nota: C1 Vol.: 63
Chanel 10 Note Off - Duracao: 288180 Nota: C1 Vol.: 79
Chanel 10 Note On - Duracao: 288180 Nota: C1 Vol.: 81
Chanel 3 Note Off - Duracao: 288240 Nota: C1 Vol.: 74
Chanel 3 Note On - Duracao: 288240 Nota: C1 Vol.: 69
Chanel 6 Note Off - Duracao: 288240 Nota: C1 Vol.: 59
Chanel 6 Note On - Duracao: 288240 Nota: C1 Vol.: 56
Chanel 4 Note Off - Duracao: 288420 Nota: C1 Vol.: 57
Chanel 4 Note On - Duracao: 288420 Nota: C1 Vol.: 61
Chanel 10 Note Off - Duracao: 288420 Nota: C1 Vol.: 81
Chanel 10 Note On - Duracao: 288420 Nota: C1 Vol.: 78
Chanel 5 Note Off - Duracao: 288540 Nota: C1 Vol.: 64
Chanel 5 Note On - Duracao: 288540 Nota: C1 Vol.: 89
Chanel 9 Note Off - Duracao: 288600 Nota: C1 Vol.: 54
Chanel 9 Note On - Duracao: 288600 Nota: C1 Vol.: 54
Chanel 4 Note Off - Duracao: 288660 Nota: C1 Vol.: 61
Chanel 4 Note On - Duracao: 288660 Nota: C1 Vol.: 65
Chanel 7 Note Off - Duracao: 288660 Nota: C1 Vol.: 63
Chanel 7 Note On - Duracao: 288660 Nota: C1 Vol.: 59
Chanel 10 Note Off - Duracao: 288660 Nota: C1 Vol.: 78
Chanel 10 Note On - Duracao: 288660 Nota: C1 Vol.: 75
Chanel 3 Note Off - Duracao: 288720 Nota: C1 Vol.: 69
Chanel 3 Note On - Duracao: 288720 Nota: C1 Vol.: 72
Chanel 5 Note Off - Duracao: 288780 Nota: C1 Vol.: 89
Chanel 5 Note On - Duracao: 288780 Nota: C1 Vol.: 54
Chanel 4 Note Off - Duracao: 288900 Nota: C1 Vol.: 65
Chanel 4 Note On - Duracao: 288900 Nota: C1 Vol.: 40
Chanel 3 Note Off - Duracao: 288960 Nota: C1 Vol.: 72
Chanel 3 Note On - Duracao: 288960 Nota: C1 Vol.: 73
Chanel 2 Note Off - Duracao: 289140 Nota: C1 Vol.: 46
Chanel 2 Note On - Duracao: 289140 Nota: C1 Vol.: 59
Chanel 10 Note Off - Duracao: 289140 Nota: C1 Vol.: 75
Chanel 10 Note On - Duracao: 289140 Nota: C1 Vol.: 78
Chanel 3 Note Off - Duracao: 289200 Nota: C1 Vol.: 73
Chanel 3 Note On - Duracao: 289200 Nota: C1 Vol.: 71
Chanel 6 Note Off - Duracao: 289200 Nota: C1 Vol.: 56
Chanel 6 Note On - Duracao: 289200 Nota: C1 Vol.: 46
Chanel 10 Note Off - Duracao: 289380 Nota: C1 Vol.: 78
Chanel 10 Note On - Duracao: 289380 Nota: C1 Vol.: 79
Chanel 3 Note Off - Duracao: 289440 Nota: C1 Vol.: 71
Chanel 3 Note On - Duracao: 289440 Nota: C1 Vol.: 67
Chanel 9 Note Off - Duracao: 289560 Nota: C1 Vol.: 54
Chanel 9 Note On - Duracao: 289560 Nota: C1 Vol.: 51
Chanel 2 Note Off - Duracao: 289620 Nota: C1 Vol.: 59
Chanel 2 Note On - Duracao: 289620 Nota: C1 Vol.: 62
Chanel 7 Note Off - Duracao: 289620 Nota: C1 Vol.: 59
Chanel 7 Note On - Duracao: 289620 Nota: C1 Vol.: 61
Chanel 10 Note Off - Duracao: 289620 Nota: C1 Vol.: 79
Chanel 10 Note On - Duracao: 289620 Nota: C1 Vol.: 75
Chanel 3 Note Off - Duracao: 289680 Nota: C1 Vol.: 67
Chanel 3 Note On - Duracao: 289680 Nota: C1 Vol.: 58
Chanel 8 Note Off - Duracao: 289740 Nota: C1 Vol.: 40
Chanel 8 Note On - Duracao: 289740 Nota: C1 Vol.: 40
Chanel 2 Note Off - Duracao: 290100 Nota: C1 Vol.: 62
Chanel 2 Note On - Duracao: 290100 Nota: C1 Vol.: 66
Chanel 7 Note Off - Duracao: 290100 Nota: C1 Vol.: 61
Chanel 7 Note On - Duracao: 290100 Nota: C1 Vol.: 79
Chanel 10 Note Off - Duracao: 290100 Nota: C1 Vol.: 75
Chanel 10 Note On - Duracao: 290100 Nota: C1 Vol.: 70
Chanel 3 Note Off - Duracao: 290160 Nota: C1 Vol.: 58
Chanel 3 Note On - Duracao: 290160 Nota: C1 Vol.: 72
Chanel 3 Note Off - Duracao: 290280 Nota: C1 Vol.: 72
Chanel 3 Note On - Duracao: 290280 Nota: C1 Vol.: 69
Chanel 7 Note Off - Duracao: 290340 Nota: C1 Vol.: 79
Chanel 7 Note On - Duracao: 290340 Nota: C1 Vol.: 94
Chanel 7 Note Off - Duracao: 290460 Nota: C1 Vol.: 94
Chanel 7 Note On - Duracao: 290460 Nota: C1 Vol.: 77
Chanel 3 Note Off - Duracao: 290520 Nota: C1 Vol.: 69
Chanel 3 Note On - Duracao: 290520 Nota: C1 Vol.: 56
Chanel 9 Note Off - Duracao: 290520 Nota: C1 Vol.: 51
Chanel 9 Note On - Duracao: 290520 Nota: C1 Vol.: 55
Chanel 2 Note Off - Duracao: 290580 Nota: C1 Vol.: 66
Chanel 2 Note On - Duracao: 290580 Nota: C1 Vol.: 63
Chanel 10 Note Off - Duracao: 290580 Nota: C1 Vol.: 70
Chanel 10 Note On - Duracao: 290580 Nota: C1 Vol.: 69
Chanel 5 Note Off - Duracao: 290700 Nota: C1 Vol.: 54
Chanel 5 Note On - Duracao: 290700 Nota: C1 Vol.: 44
Chanel 7 Note Off - Duracao: 290700 Nota: C1 Vol.: 77
Chanel 7 Note On - Duracao: 290700 Nota: C1 Vol.: 67
Chanel 4 Note Off - Duracao: 290820 Nota: C1 Vol.: 40
Chanel 4 Note On - Duracao: 290820 Nota: C1 Vol.: 60
Chanel 3 Note Off - Duracao: 291000 Nota: C1 Vol.: 56
Chanel 3 Note On - Duracao: 291000 Nota: C1 Vol.: 56
Chanel 9 Note Off - Duracao: 291000 Nota: C1 Vol.: 55
Chanel 9 Note On - Duracao: 291000 Nota: C1 Vol.: 56
Chanel 10 Note Off - Duracao: 291060 Nota: C1 Vol.: 69
Chanel 10 Note On - Duracao: 291060 Nota: C1 Vol.: 64
Chanel 7 Note Off - Duracao: 291180 Nota: C1 Vol.: 67
Chanel 7 Note On - Duracao: 291180 Nota: C1 Vol.: 76
Chanel 4 Note Off - Duracao: 291300 Nota: C1 Vol.: 60
Chanel 4 Note On - Duracao: 291300 Nota: C1 Vol.: 64
Chanel 7 Note Off - Duracao: 291420 Nota: C1 Vol.: 76
Chanel 7 Note On - Duracao: 291420 Nota: C1 Vol.: 90
Chanel 9 Note Off - Duracao: 291480 Nota: C1 Vol.: 56
Chanel 9 Note On - Duracao: 291480 Nota: C1 Vol.: 47
Chanel 2 Note Off - Duracao: 291540 Nota: C1 Vol.: 63
Chanel 2 Note On - Duracao: 291540 Nota: C1 Vol.: 69
Chanel 4 Note Off - Duracao: 291540 Nota: C1 Vol.: 64
Chanel 4 Note On - Duracao: 291540 Nota: C1 Vol.: 42
Chanel 7 Note Off - Duracao: 291540 Nota: C1 Vol.: 90
Chanel 7 Note On - Duracao: 291540 Nota: C1 Vol.: 89
Chanel 10 Note Off - Duracao: 291540 Nota: C1 Vol.: 64
Chanel 10 Note On - Duracao: 291540 Nota: C1 Vol.: 65
Chanel 7 Note Off - Duracao: 291660 Nota: C1 Vol.: 89
Chanel 7 Note On - Duracao: 291660 Nota: C1 Vol.: 77
Chanel 8 Note Off - Duracao: 291660 Nota: C1 Vol.: 40
Chanel 8 Note On - Duracao: 291660 Nota: C1 Vol.: 44
Chanel 7 Note Off - Duracao: 291900 Nota: C1 Vol.: 77
Chanel 7 Note On - Duracao: 291900 Nota: C1 Vol.: 87
Chanel 3 Note Off - Duracao: 291960 Nota: C1 Vol.: 56
Chanel 3 Note On - Duracao: 291960 Nota: C1 Vol.: 47
Chanel 7 Note Off - Duracao: 292020 Nota: C1 Vol.: 87
Chanel 7 Note On - Duracao: 292020 Nota: C1 Vol.: 95
Chanel 10 Note Off - Duracao: 292020 Nota: C1 Vol.: 65
Chanel 10 Note On - Duracao: 292020 Nota: C1 Vol.: 63
Chanel 7 Note Off - Duracao: 292080 Nota: C1 Vol.: 95
Chanel 7 Note On - Duracao: 292080 Nota: C1 Vol.: 85
Chanel 7 Note Off - Duracao: 292200 Nota: C1 Vol.: 85
Chanel 7 Note On - Duracao: 292200 Nota: C1 Vol.: 59
Chanel 9 Note Off - Duracao: 292440 Nota: C1 Vol.: 47
Chanel 9 Note On - Duracao: 292440 Nota: C1 Vol.: 52
Chanel 2 Note Off - Duracao: 292500 Nota: C1 Vol.: 69
Chanel 2 Note On - Duracao: 292500 Nota: C1 Vol.: 78
Chanel 10 Note Off - Duracao: 292500 Nota: C1 Vol.: 63
Chanel 10 Note On - Duracao: 292500 Nota: C1 Vol.: 62
Chanel 5 Note Off - Duracao: 292620 Nota: C1 Vol.: 44
Chanel 5 Note On - Duracao: 292620 Nota: C1 Vol.: 52
Chanel 7 Note Off - Duracao: 292680 Nota: C1 Vol.: 59
Chanel 7 Note On - Duracao: 292680 Nota: C1 Vol.: 70
Chanel 3 Note Off - Duracao: 292920 Nota: C1 Vol.: 47
Chanel 3 Note On - Duracao: 292920 Nota: C1 Vol.: 45
Chanel 7 Note Off - Duracao: 292920 Nota: C1 Vol.: 70
Chanel 7 Note On - Duracao: 292920 Nota: C1 Vol.: 63
Chanel 9 Note Off - Duracao: 292920 Nota: C1 Vol.: 52
Chanel 9 Note On - Duracao: 292920 Nota: C1 Vol.: 72
Chanel 2 Note Off - Duracao: 292980 Nota: C1 Vol.: 78
Chanel 2 Note On - Duracao: 292980 Nota: C1 Vol.: 76
Chanel 10 Note Off - Duracao: 292980 Nota: C1 Vol.: 62
Chanel 10 Note On - Duracao: 292980 Nota: C1 Vol.: 60
Chanel 6 Note Off - Duracao: 293040 Nota: C1 Vol.: 46
Chanel 6 Note On - Duracao: 293040 Nota: C1 Vol.: 57
Chanel 9 Note Off - Duracao: 293040 Nota: C1 Vol.: 72
Chanel 9 Note On - Duracao: 293040 Nota: C1 Vol.: 73
Chanel 7 Note Off - Duracao: 293160 Nota: C1 Vol.: 63
Chanel 7 Note On - Duracao: 293160 Nota: C1 Vol.: 61
Chanel 9 Note Off - Duracao: 293160 Nota: C1 Vol.: 73
Chanel 9 Note On - Duracao: 293160 Nota: C1 Vol.: 70
Chanel 9 Note Off - Duracao: 293280 Nota: C1 Vol.: 70
Chanel 9 Note On - Duracao: 293280 Nota: C1 Vol.: 70
Chanel 9 Note Off - Duracao: 293400 Nota: C1 Vol.: 70
Chanel 9 Note On - Duracao: 293400 Nota: C1 Vol.: 70
Chanel 4 Note Off - Duracao: 293460 Nota: C1 Vol.: 42
Chanel 4 Note On - Duracao: 293460 Nota: C1 Vol.: 43
Chanel 9 Note Off - Duracao: 293520 Nota: C1 Vol.: 70
Chanel 9 Note On - Duracao: 293520 Nota: C1 Vol.: 67
Chanel 5 Note Off - Duracao: 293580 Nota: C1 Vol.: 52
Chanel 5 Note On - Duracao: 293580 Nota: C1 Vol.: 61
Chanel 8 Note Off - Duracao: 293580 Nota: C1 Vol.: 44
Chanel 8 Note On - Duracao: 293580 Nota: C1 Vol.: 46
Chanel 7 Note Off - Duracao: 293640 Nota: C1 Vol.: 61
Chanel 7 Note On - Duracao: 293640 Nota: C1 Vol.: 58
Chanel 9 Note Off - Duracao: 293760 Nota: C1 Vol.: 67
Chanel 9 Note On - Duracao: 293760 Nota: C1 Vol.: 48
Chanel 2 Note Off - Duracao: 293940 Nota: C1 Vol.: 76
Chanel 2 Note On - Duracao: 293940 Nota: C1 Vol.: 72
Chanel 10 Note Off - Duracao: 293940 Nota: C1 Vol.: 60
Chanel 10 Note On - Duracao: 293940 Nota: C1 Vol.: 53
Chanel 5 Note Off - Duracao: 294060 Nota: C1 Vol.: 61
Chanel 5 Note On - Duracao: 294060 Nota: C1 Vol.: 61
Chanel 7 Note Off - Duracao: 294120 Nota: C1 Vol.: 58
Chanel 7 Note On - Duracao: 294120 Nota: C1 Vol.: 57
Chanel 5 Note Off - Duracao: 294300 Nota: C1 Vol.: 61
Chanel 5 Note On - Duracao: 294300 Nota: C1 Vol.: 58
Chanel 2 Note Off - Duracao: 294420 Nota: C1 Vol.: 72
Chanel 2 Note On - Duracao: 294420 Nota: C1 Vol.: 65
Chanel 5 Note Off - Duracao: 294540 Nota: C1 Vol.: 58
Chanel 5 Note On - Duracao: 294540 Nota: C1 Vol.: 57
Chanel 7 Note Off - Duracao: 294600 Nota: C1 Vol.: 57
Chanel 7 Note On - Duracao: 294600 Nota: C1 Vol.: 63
Chanel 9 Note Off - Duracao: 294720 Nota: C1 Vol.: 48
Chanel 9 Note On - Duracao: 294720 Nota: C1 Vol.: 75
Chanel 5 Note Off - Duracao: 294780 Nota: C1 Vol.: 57
Chanel 5 Note On - Duracao: 294780 Nota: C1 Vol.: 67
Chanel 3 Note Off - Duracao: 294840 Nota: C1 Vol.: 45
Chanel 3 Note On - Duracao: 294840 Nota: C1 Vol.: 48
Chanel 10 Note Off - Duracao: 294900 Nota: C1 Vol.: 53
Chanel 10 Note On - Duracao: 294900 Nota: C1 Vol.: 59
Chanel 6 Note Off - Duracao: 294960 Nota: C1 Vol.: 57
Chanel 6 Note On - Duracao: 294960 Nota: C1 Vol.: 48
Chanel 9 Note Off - Duracao: 294960 Nota: C1 Vol.: 75
Chanel 9 Note On - Duracao: 294960 Nota: C1 Vol.: 80
Chanel 5 Note Off - Duracao: 295020 Nota: C1 Vol.: 67
Chanel 5 Note On - Duracao: 295020 Nota: C1 Vol.: 67
Chanel 7 Note Off - Duracao: 295080 Nota: C1 Vol.: 63
Chanel 7 Note On - Duracao: 295080 Nota: C1 Vol.: 64
Chanel 9 Note Off - Duracao: 295200 Nota: C1 Vol.: 80
Chanel 9 Note On - Duracao: 295200 Nota: C1 Vol.: 83
Chanel 5 Note Off - Duracao: 295260 Nota: C1 Vol.: 67
Chanel 5 Note On - Duracao: 295260 Nota: C1 Vol.: 69
Chanel 7 Note Off - Duracao: 295320 Nota: C1 Vol.: 64
Chanel 7 Note On - Duracao: 295320 Nota: C1 Vol.: 40
Chanel 9 Note Off - Duracao: 295320 Nota: C1 Vol.: 83
Chanel 9 Note On - Duracao: 295320 Nota: C1 Vol.: 67
Chanel 2 Note Off - Duracao: 295380 Nota: C1 Vol.: 65
Chanel 2 Note On - Duracao: 295380 Nota: C1 Vol.: 78
Chanel 4 Note Off - Duracao: 295380 Nota: C1 Vol.: 43
Chanel 4 Note On - Duracao: 295380 Nota: C1 Vol.: 82
Chanel 4 Note Off - Duracao: 295500 Nota: C1 Vol.: 82
Chanel 4 Note On - Duracao: 295500 Nota: C1 Vol.: 79
Chanel 5 Note Off - Duracao: 295500 Nota: C1 Vol.: 69
Chanel 5 Note On - Duracao: 295500 Nota: C1 Vol.: 54
Chanel 8 Note Off - Duracao: 295500 Nota: C1 Vol.: 46
Chanel 8 Note On - Duracao: 295500 Nota: C1 Vol.: 43
Chanel 2 Note Off - Duracao: 295620 Nota: C1 Vol.: 78
Chanel 2 Note On - Duracao: 295620 Nota: C1 Vol.: 85
Chanel 2 Note Off - Duracao: 295740 Nota: C1 Vol.: 85
Chanel 2 Note On - Duracao: 295740 Nota: C1 Vol.: 86
Chanel 4 Note Off - Duracao: 295740 Nota: C1 Vol.: 79
Chanel 4 Note On - Duracao: 295740 Nota: C1 Vol.: 81
Chanel 3 Note Off - Duracao: 295800 Nota: C1 Vol.: 48
Chanel 3 Note On - Duracao: 295800 Nota: C1 Vol.: 64
Chanel 9 Note Off - Duracao: 295800 Nota: C1 Vol.: 67
Chanel 9 Note On - Duracao: 295800 Nota: C1 Vol.: 76
Chanel 10 Note Off - Duracao: 295860 Nota: C1 Vol.: 59
Chanel 10 Note On - Duracao: 295860 Nota: C1 Vol.: 59
Chanel 2 Note Off - Duracao: 295980 Nota: C1 Vol.: 86
Chanel 2 Note On - Duracao: 295980 Nota: C1 Vol.: 83
Chanel 4 Note Off - Duracao: 295980 Nota: C1 Vol.: 81
Chanel 4 Note On - Duracao: 295980 Nota: C1 Vol.: 70
Chanel 5 Note Off - Duracao: 295980 Nota: C1 Vol.: 54
Chanel 5 Note On - Duracao: 295980 Nota: C1 Vol.: 47
Chanel 9 Note Off - Duracao: 296040 Nota: C1 Vol.: 76
Chanel 9 Note On - Duracao: 296040 Nota: C1 Vol.: 50
Chanel 2 Note Off - Duracao: 296220 Nota: C1 Vol.: 83
Chanel 2 Note On - Duracao: 296220 Nota: C1 Vol.: 75
Chanel 3 Note Off - Duracao: 296280 Nota: C1 Vol.: 64
Chanel 3 Note On - Duracao: 296280 Nota: C1 Vol.: 54
Chanel 4 Note Off - Duracao: 296460 Nota: C1 Vol.: 70
Chanel 4 Note On - Duracao: 296460 Nota: C1 Vol.: 44
Chanel 2 Note Off - Duracao: 296700 Nota: C1 Vol.: 75
Chanel 2 Note On - Duracao: 296700 Nota: C1 Vol.: 82
Chanel 3 Note Off - Duracao: 296760 Nota: C1 Vol.: 54
Chanel 3 Note On - Duracao: 296760 Nota: C1 Vol.: 65
Chanel 10 Note Off - Duracao: 296820 Nota: C1 Vol.: 59
Chanel 10 Note On - Duracao: 296820 Nota: C1 Vol.: 64
Chanel 2 Note Off - Duracao: 296940 Nota: C1 Vol.: 82
Chanel 2 Note On - Duracao: 296940 Nota: C1 Vol.: 80
Chanel 5 Note Off - Duracao: 296940 Nota: C1 Vol.: 47
Chanel 5 Note On - Duracao: 296940 Nota: C1 Vol.: 66
Chanel 3 Note Off - Duracao: 297000 Nota: C1 Vol.: 65
Chanel 3 Note On - Duracao: 297000 Nota: C1 Vol.: 64
Chanel 9 Note Off - Duracao: 297000 Nota: C1 Vol.: 50
Chanel 9 Note On - Duracao: 297000 Nota: C1 Vol.: 50
Chanel 5 Note Off - Duracao: 297180 Nota: C1 Vol.: 66
Chanel 5 Note On - Duracao: 297180 Nota: C1 Vol.: 68
Chanel 7 Note Off - Duracao: 297240 Nota: C1 Vol.: 40
Chanel 7 Note On - Duracao: 297240 Nota: C1 Vol.: 40
Chanel 10 Note Off - Duracao: 297300 Nota: C1 Vol.: 64
Chanel 10 Note On - Duracao: 297300 Nota: C1 Vol.: 59
Chanel 2 Note Off - Duracao: 297420 Nota: C1 Vol.: 80
Chanel 2 Note On - Duracao: 297420 Nota: C1 Vol.: 89
Chanel 5 Note Off - Duracao: 297420 Nota: C1 Vol.: 68
Chanel 5 Note On - Duracao: 297420 Nota: C1 Vol.: 63
Chanel 8 Note Off - Duracao: 297420 Nota: C1 Vol.: 43
Chanel 8 Note On - Duracao: 297420 Nota: C1 Vol.: 54
Chanel 3 Note Off - Duracao: 297480 Nota: C1 Vol.: 64
Chanel 3 Note On - Duracao: 297480 Nota: C1 Vol.: 67
Chanel 2 Note Off - Duracao: 297660 Nota: C1 Vol.: 89
Chanel 2 Note On - Duracao: 297660 Nota: C1 Vol.: 86
Chanel 5 Note Off - Duracao: 297660 Nota: C1 Vol.: 63
Chanel 5 Note On - Duracao: 297660 Nota: C1 Vol.: 60
Chanel 3 Note Off - Duracao: 297720 Nota: C1 Vol.: 67
Chanel 3 Note On - Duracao: 297720 Nota: C1 Vol.: 75
Chanel 2 Note Off - Duracao: 297900 Nota: C1 Vol.: 86
Chanel 2 Note On - Duracao: 297900 Nota: C1 Vol.: 80
Chanel 8 Note Off - Duracao: 297900 Nota: C1 Vol.: 54
Chanel 8 Note On - Duracao: 297900 Nota: C1 Vol.: 46
Chanel 3 Note Off - Duracao: 297960 Nota: C1 Vol.: 75
Chanel 3 Note On - Duracao: 297960 Nota: C1 Vol.: 69
Chanel 9 Note Off - Duracao: 297960 Nota: C1 Vol.: 50
Chanel 9 Note On - Duracao: 297960 Nota: C1 Vol.: 54
Chanel 2 Note Off - Duracao: 298140 Nota: C1 Vol.: 80
Chanel 2 Note On - Duracao: 298140 Nota: C1 Vol.: 82
Chanel 5 Note Off - Duracao: 298140 Nota: C1 Vol.: 60
Chanel 5 Note On - Duracao: 298140 Nota: C1 Vol.: 59
Chanel 3 Note Off - Duracao: 298200 Nota: C1 Vol.: 69
Chanel 3 Note On - Duracao: 298200 Nota: C1 Vol.: 76
Chanel 10 Note Off - Duracao: 298260 Nota: C1 Vol.: 59
Chanel 10 Note On - Duracao: 298260 Nota: C1 Vol.: 59
Chanel 3 Note Off - Duracao: 298320 Nota: C1 Vol.: 76
Chanel 3 Note On - Duracao: 298320 Nota: C1 Vol.: 73
Chanel 2 Note Off - Duracao: 298380 Nota: C1 Vol.: 82
Chanel 2 Note On - Duracao: 298380 Nota: C1 Vol.: 84
Chanel 3 Note Off - Duracao: 298560 Nota: C1 Vol.: 73
Chanel 3 Note On - Duracao: 298560 Nota: C1 Vol.: 65
Chanel 2 Note Off - Duracao: 298620 Nota: C1 Vol.: 84
Chanel 2 Note On - Duracao: 298620 Nota: C1 Vol.: 75
Chanel 5 Note Off - Duracao: 298620 Nota: C1 Vol.: 59
Chanel 5 Note On - Duracao: 298620 Nota: C1 Vol.: 59
Chanel 10 Note Off - Duracao: 298740 Nota: C1 Vol.: 59
Chanel 10 Note On - Duracao: 298740 Nota: C1 Vol.: 55
Chanel 3 Note Off - Duracao: 298800 Nota: C1 Vol.: 65
Chanel 3 Note On - Duracao: 298800 Nota: C1 Vol.: 70
Chanel 6 Note Off - Duracao: 298800 Nota: C1 Vol.: 48
Chanel 6 Note On - Duracao: 298800 Nota: C1 Vol.: 49
Chanel 2 Note Off - Duracao: 298860 Nota: C1 Vol.: 75
Chanel 2 Note On - Duracao: 298860 Nota: C1 Vol.: 79
Chanel 8 Note Off - Duracao: 298860 Nota: C1 Vol.: 46
Chanel 8 Note On - Duracao: 298860 Nota: C1 Vol.: 56
Chanel 9 Note Off - Duracao: 298920 Nota: C1 Vol.: 54
Chanel 9 Note On - Duracao: 298920 Nota: C1 Vol.: 59
Chanel 3 Note Off - Duracao: 299040 Nota: C1 Vol.: 70
Chanel 3 Note On - Duracao: 299040 Nota: C1 Vol.: 52
Chanel 2 Note Off - Duracao: 299100 Nota: C1 Vol.: 79
Chanel 2 Note On - Duracao: 299100 Nota: C1 Vol.: 82
Chanel 5 Note Off - Duracao: 299100 Nota: C1 Vol.: 59
Chanel 5 Note On - Duracao: 299100 Nota: C1 Vol.: 63
Chanel 7 Note Off - Duracao: 299160 Nota: C1 Vol.: 40
Chanel 7 Note On - Duracao: 299160 Nota: C1 Vol.: 73
Chanel 7 Note Off - Duracao: 299280 Nota: C1 Vol.: 73
Chanel 7 Note On - Duracao: 299280 Nota: C1 Vol.: 74
Chanel 2 Note Off - Duracao: 299340 Nota: C1 Vol.: 82
Chanel 2 Note On - Duracao: 299340 Nota: C1 Vol.: 77
Chanel 5 Note Off - Duracao: 299340 Nota: C1 Vol.: 63
Chanel 5 Note On - Duracao: 299340 Nota: C1 Vol.: 69
Chanel 7 Note Off - Duracao: 299340 Nota: C1 Vol.: 74
Chanel 7 Note On - Duracao: 299340 Nota: C1 Vol.: 52
Chanel 8 Note Off - Duracao: 299340 Nota: C1 Vol.: 56
Chanel 8 Note On - Duracao: 299340 Nota: C1 Vol.: 55
Chanel 9 Note Off - Duracao: 299400 Nota: C1 Vol.: 59
Chanel 9 Note On - Duracao: 299400 Nota: C1 Vol.: 60
Chanel 3 Note Off - Duracao: 299520 Nota: C1 Vol.: 52
Chanel 3 Note On - Duracao: 299520 Nota: C1 Vol.: 60
Chanel 2 Note Off - Duracao: 299580 Nota: C1 Vol.: 77
Chanel 2 Note On - Duracao: 299580 Nota: C1 Vol.: 81
Chanel 5 Note Off - Duracao: 299580 Nota: C1 Vol.: 69
Chanel 5 Note On - Duracao: 299580 Nota: C1 Vol.: 72
Chanel 5 Note Off - Duracao: 299700 Nota: C1 Vol.: 72
Chanel 5 Note On - Duracao: 299700 Nota: C1 Vol.: 67
Chanel 10 Note Off - Duracao: 299700 Nota: C1 Vol.: 55
Chanel 10 Note On - Duracao: 299700 Nota: C1 Vol.: 55
Chanel 3 Note Off - Duracao: 299760 Nota: C1 Vol.: 60
Chanel 3 Note On - Duracao: 299760 Nota: C1 Vol.: 69
Chanel 2 Note Off - Duracao: 299820 Nota: C1 Vol.: 81
Chanel 2 Note On - Duracao: 299820 Nota: C1 Vol.: 83
Chanel 7 Note Off - Duracao: 299820 Nota: C1 Vol.: 52
Chanel 7 Note On - Duracao: 299820 Nota: C1 Vol.: 54
Chanel 8 Note Off - Duracao: 299820 Nota: C1 Vol.: 55
Chanel 8 Note On - Duracao: 299820 Nota: C1 Vol.: 54
Chanel 9 Note Off - Duracao: 299880 Nota: C1 Vol.: 60
Chanel 9 Note On - Duracao: 299880 Nota: C1 Vol.: 59
Chanel 5 Note Off - Duracao: 299940 Nota: C1 Vol.: 67
Chanel 5 Note On - Duracao: 299940 Nota: C1 Vol.: 55
Chanel 3 Note Off - Duracao: 300000 Nota: C1 Vol.: 69
Chanel 3 Note On - Duracao: 300000 Nota: C1 Vol.: 71
Chanel 2 Note Off - Duracao: 300060 Nota: C1 Vol.: 83
Chanel 2 Note On - Duracao: 300060 Nota: C1 Vol.: 83
Chanel 3 Note Off - Duracao: 300120 Nota: C1 Vol.: 71
Chanel 3 Note On - Duracao: 300120 Nota: C1 Vol.: 55
Chanel 2 Note Off - Duracao: 300300 Nota: C1 Vol.: 83
Chanel 2 Note On - Duracao: 300300 Nota: C1 Vol.: 94
Chanel 4 Note Off - Duracao: 300300 Nota: C1 Vol.: 44
Chanel 4 Note On - Duracao: 300300 Nota: C1 Vol.: 52
Chanel 7 Note Off - Duracao: 300300 Nota: C1 Vol.: 54
Chanel 7 Note On - Duracao: 300300 Nota: C1 Vol.: 54
Chanel 8 Note Off - Duracao: 300300 Nota: C1 Vol.: 54
Chanel 8 Note On - Duracao: 300300 Nota: C1 Vol.: 52
Chanel 9 Note Off - Duracao: 300360 Nota: C1 Vol.: 59
Chanel 9 Note On - Duracao: 300360 Nota: C1 Vol.: 59
Chanel 2 Note Off - Duracao: 300420 Nota: C1 Vol.: 94
Chanel 2 Note On - Duracao: 300420 Nota: C1 Vol.: 81
Chanel 5 Note Off - Duracao: 300420 Nota: C1 Vol.: 55
Chanel 5 Note On - Duracao: 300420 Nota: C1 Vol.: 61
Chanel 3 Note Off - Duracao: 300600 Nota: C1 Vol.: 55
Chanel 3 Note On - Duracao: 300600 Nota: C1 Vol.: 40
Chanel 2 Note Off - Duracao: 300660 Nota: C1 Vol.: 81
Chanel 2 Note On - Duracao: 300660 Nota: C1 Vol.: 72
Chanel 10 Note Off - Duracao: 300660 Nota: C1 Vol.: 55
Chanel 10 Note On - Duracao: 300660 Nota: C1 Vol.: 56
Chanel 8 Note Off - Duracao: 300780 Nota: C1 Vol.: 52
Chanel 8 Note On - Duracao: 300780 Nota: C1 Vol.: 49
Chanel 9 Note Off - Duracao: 300840 Nota: C1 Vol.: 59
Chanel 9 Note On - Duracao: 300840 Nota: C1 Vol.: 58
Chanel 2 Note Off - Duracao: 300900 Nota: C1 Vol.: 72
Chanel 2 Note On - Duracao: 300900 Nota: C1 Vol.: 80
Chanel 5 Note Off - Duracao: 300900 Nota: C1 Vol.: 61
Chanel 5 Note On - Duracao: 300900 Nota: C1 Vol.: 65
Chanel 2 Note Off - Duracao: 301020 Nota: C1 Vol.: 80
Chanel 2 Note On - Duracao: 301020 Nota: C1 Vol.: 68
Chanel 10 Note Off - Duracao: 301140 Nota: C1 Vol.: 56
Chanel 10 Note On - Duracao: 301140 Nota: C1 Vol.: 57
Chanel 2 Note Off - Duracao: 301260 Nota: C1 Vol.: 68
Chanel 2 Note On - Duracao: 301260 Nota: C1 Vol.: 76
Chanel 7 Note Off - Duracao: 301260 Nota: C1 Vol.: 54
Chanel 7 Note On - Duracao: 301260 Nota: C1 Vol.: 55
Chanel 8 Note Off - Duracao: 301260 Nota: C1 Vol.: 49
Chanel 8 Note On - Duracao: 301260 Nota: C1 Vol.: 55
Chanel 9 Note Off - Duracao: 301320 Nota: C1 Vol.: 58
Chanel 9 Note On - Duracao: 301320 Nota: C1 Vol.: 61
Chanel 2 Note Off - Duracao: 301380 Nota: C1 Vol.: 76
Chanel 2 Note On - Duracao: 301380 Nota: C1 Vol.: 81
Chanel 5 Note Off - Duracao: 301380 Nota: C1 Vol.: 65
Chanel 5 Note On - Duracao: 301380 Nota: C1 Vol.: 52
Chanel 2 Note Off - Duracao: 301500 Nota: C1 Vol.: 81
Chanel 2 Note On - Duracao: 301500 Nota: C1 Vol.: 86
Chanel 2 Note Off - Duracao: 301620 Nota: C1 Vol.: 86
Chanel 2 Note On - Duracao: 301620 Nota: C1 Vol.: 95
Chanel 10 Note Off - Duracao: 301620 Nota: C1 Vol.: 57
Chanel 10 Note On - Duracao: 301620 Nota: C1 Vol.: 57
Chanel 2 Note Off - Duracao: 301680 Nota: C1 Vol.: 95
Chanel 2 Note On - Duracao: 301680 Nota: C1 Vol.: 90
Chanel 7 Note Off - Duracao: 301740 Nota: C1 Vol.: 55
Chanel 7 Note On - Duracao: 301740 Nota: C1 Vol.: 55
Chanel 8 Note Off - Duracao: 301740 Nota: C1 Vol.: 55
Chanel 8 Note On - Duracao: 301740 Nota: C1 Vol.: 51
Chanel 2 Note Off - Duracao: 301800 Nota: C1 Vol.: 90
Chanel 2 Note On - Duracao: 301800 Nota: C1 Vol.: 77
Chanel 9 Note Off - Duracao: 301800 Nota: C1 Vol.: 61
Chanel 9 Note On - Duracao: 301800 Nota: C1 Vol.: 56
Chanel 2 Note Off - Duracao: 302040 Nota: C1 Vol.: 77
Chanel 2 Note On - Duracao: 302040 Nota: C1 Vol.: 64
Chanel 10 Note Off - Duracao: 302100 Nota: C1 Vol.: 57
Chanel 10 Note On - Duracao: 302100 Nota: C1 Vol.: 58
Chanel 4 Note Off - Duracao: 302220 Nota: C1 Vol.: 52
Chanel 4 Note On - Duracao: 302220 Nota: C1 Vol.: 64
Chanel 7 Note Off - Duracao: 302220 Nota: C1 Vol.: 55
Chanel 7 Note On - Duracao: 302220 Nota: C1 Vol.: 68
Chanel 9 Note Off - Duracao: 302280 Nota: C1 Vol.: 56
Chanel 9 Note On - Duracao: 302280 Nota: C1 Vol.: 52
Chanel 5 Note Off - Duracao: 302340 Nota: C1 Vol.: 52
Chanel 5 Note On - Duracao: 302340 Nota: C1 Vol.: 47
Chanel 7 Note Off - Duracao: 302460 Nota: C1 Vol.: 68
Chanel 7 Note On - Duracao: 302460 Nota: C1 Vol.: 79
Chanel 2 Note Off - Duracao: 302520 Nota: C1 Vol.: 64
Chanel 2 Note On - Duracao: 302520 Nota: C1 Vol.: 52
Chanel 3 Note Off - Duracao: 302520 Nota: C1 Vol.: 40
Chanel 3 Note On - Duracao: 302520 Nota: C1 Vol.: 63
Chanel 7 Note Off - Duracao: 302580 Nota: C1 Vol.: 79
Chanel 7 Note On - Duracao: 302580 Nota: C1 Vol.: 81
Chanel 10 Note Off - Duracao: 302580 Nota: C1 Vol.: 58
Chanel 10 Note On - Duracao: 302580 Nota: C1 Vol.: 57
Chanel 6 Note Off - Duracao: 302640 Nota: C1 Vol.: 49
Chanel 6 Note On - Duracao: 302640 Nota: C1 Vol.: 53
Chanel 7 Note Off - Duracao: 302700 Nota: C1 Vol.: 81
Chanel 7 Note On - Duracao: 302700 Nota: C1 Vol.: 74
Chanel 8 Note Off - Duracao: 302700 Nota: C1 Vol.: 51
Chanel 8 Note On - Duracao: 302700 Nota: C1 Vol.: 48
Chanel 9 Note Off - Duracao: 302760 Nota: C1 Vol.: 52
Chanel 9 Note On - Duracao: 302760 Nota: C1 Vol.: 62
Chanel 9 Note Off - Duracao: 302880 Nota: C1 Vol.: 62
Chanel 9 Note On - Duracao: 302880 Nota: C1 Vol.: 60
Chanel 7 Note Off - Duracao: 302940 Nota: C1 Vol.: 74
Chanel 7 Note On - Duracao: 302940 Nota: C1 Vol.: 58
Chanel 3 Note Off - Duracao: 303000 Nota: C1 Vol.: 63
Chanel 3 Note On - Duracao: 303000 Nota: C1 Vol.: 64
Chanel 9 Note Off - Duracao: 303000 Nota: C1 Vol.: 60
Chanel 9 Note On - Duracao: 303000 Nota: C1 Vol.: 59
Chanel 10 Note Off - Duracao: 303060 Nota: C1 Vol.: 57
Chanel 10 Note On - Duracao: 303060 Nota: C1 Vol.: 55
Chanel 9 Note Off - Duracao: 303120 Nota: C1 Vol.: 59
Chanel 9 Note On - Duracao: 303120 Nota: C1 Vol.: 56
Chanel 4 Note Off - Duracao: 303180 Nota: C1 Vol.: 64
Chanel 4 Note On - Duracao: 303180 Nota: C1 Vol.: 67
Chanel 9 Note Off - Duracao: 303360 Nota: C1 Vol.: 56
Chanel 9 Note On - Duracao: 303360 Nota: C1 Vol.: 50
Chanel 7 Note Off - Duracao: 303420 Nota: C1 Vol.: 58
Chanel 7 Note On - Duracao: 303420 Nota: C1 Vol.: 63
Chanel 2 Note Off - Duracao: 303480 Nota: C1 Vol.: 52
Chanel 2 Note On - Duracao: 303480 Nota: C1 Vol.: 58
Chanel 3 Note Off - Duracao: 303480 Nota: C1 Vol.: 64
Chanel 3 Note On - Duracao: 303480 Nota: C1 Vol.: 54
Chanel 10 Note Off - Duracao: 303540 Nota: C1 Vol.: 55
Chanel 10 Note On - Duracao: 303540 Nota: C1 Vol.: 61
Chanel 9 Note Off - Duracao: 303600 Nota: C1 Vol.: 50
Chanel 9 Note On - Duracao: 303600 Nota: C1 Vol.: 51
Chanel 7 Note Off - Duracao: 303660 Nota: C1 Vol.: 63
Chanel 7 Note On - Duracao: 303660 Nota: C1 Vol.: 51
Chanel 8 Note Off - Duracao: 303660 Nota: C1 Vol.: 48
Chanel 8 Note On - Duracao: 303660 Nota: C1 Vol.: 48
Chanel 10 Note Off - Duracao: 303780 Nota: C1 Vol.: 61
Chanel 10 Note On - Duracao: 303780 Nota: C1 Vol.: 58
Chanel 9 Note Off - Duracao: 303840 Nota: C1 Vol.: 51
Chanel 9 Note On - Duracao: 303840 Nota: C1 Vol.: 55
Chanel 2 Note Off - Duracao: 303960 Nota: C1 Vol.: 58
Chanel 2 Note On - Duracao: 303960 Nota: C1 Vol.: 56
Chanel 9 Note Off - Duracao: 303960 Nota: C1 Vol.: 55
Chanel 9 Note On - Duracao: 303960 Nota: C1 Vol.: 54
Chanel 9 Note Off - Duracao: 304080 Nota: C1 Vol.: 54
Chanel 9 Note On - Duracao: 304080 Nota: C1 Vol.: 57
Chanel 4 Note Off - Duracao: 304140 Nota: C1 Vol.: 67
Chanel 4 Note On - Duracao: 304140 Nota: C1 Vol.: 66
Chanel 7 Note Off - Duracao: 304140 Nota: C1 Vol.: 51
Chanel 7 Note On - Duracao: 304140 Nota: C1 Vol.: 53
Chanel 9 Note Off - Duracao: 304200 Nota: C1 Vol.: 57
Chanel 9 Note On - Duracao: 304200 Nota: C1 Vol.: 55
Chanel 5 Note Off - Duracao: 304260 Nota: C1 Vol.: 47
Chanel 5 Note On - Duracao: 304260 Nota: C1 Vol.: 43
Chanel 10 Note Off - Duracao: 304260 Nota: C1 Vol.: 58
Chanel 10 Note On - Duracao: 304260 Nota: C1 Vol.: 53
Chanel 9 Note Off - Duracao: 304320 Nota: C1 Vol.: 55
Chanel 9 Note On - Duracao: 304320 Nota: C1 Vol.: 53
Chanel 2 Note Off - Duracao: 304440 Nota: C1 Vol.: 56
Chanel 2 Note On - Duracao: 304440 Nota: C1 Vol.: 53
Chanel 3 Note Off - Duracao: 304440 Nota: C1 Vol.: 54
Chanel 3 Note On - Duracao: 304440 Nota: C1 Vol.: 40
Chanel 9 Note Off - Duracao: 304560 Nota: C1 Vol.: 53
Chanel 9 Note On - Duracao: 304560 Nota: C1 Vol.: 53
Chanel 7 Note Off - Duracao: 304620 Nota: C1 Vol.: 53
Chanel 7 Note On - Duracao: 304620 Nota: C1 Vol.: 54
Chanel 8 Note Off - Duracao: 304620 Nota: C1 Vol.: 48
Chanel 8 Note On - Duracao: 304620 Nota: C1 Vol.: 52
Chanel 10 Note Off - Duracao: 304740 Nota: C1 Vol.: 53
Chanel 10 Note On - Duracao: 304740 Nota: C1 Vol.: 67
Chanel 9 Note Off - Duracao: 304800 Nota: C1 Vol.: 53
Chanel 9 Note On - Duracao: 304800 Nota: C1 Vol.: 50
Chanel 10 Note Off - Duracao: 304980 Nota: C1 Vol.: 67
Chanel 10 Note On - Duracao: 304980 Nota: C1 Vol.: 64
Chanel 10 Note Off - Duracao: 305220 Nota: C1 Vol.: 64
Chanel 10 Note On - Duracao: 305220 Nota: C1 Vol.: 65
Chanel 9 Note Off - Duracao: 305280 Nota: C1 Vol.: 50
Chanel 9 Note On - Duracao: 305280 Nota: C1 Vol.: 51
Chanel 2 Note Off - Duracao: 305400 Nota: C1 Vol.: 53
Chanel 2 Note On - Duracao: 305400 Nota: C1 Vol.: 49
Chanel 10 Note Off - Duracao: 305460 Nota: C1 Vol.: 65
Chanel 10 Note On - Duracao: 305460 Nota: C1 Vol.: 68
Chanel 7 Note Off - Duracao: 305580 Nota: C1 Vol.: 54
Chanel 7 Note On - Duracao: 305580 Nota: C1 Vol.: 50
Chanel 8 Note Off - Duracao: 305580 Nota: C1 Vol.: 52
Chanel 8 Note On - Duracao: 305580 Nota: C1 Vol.: 53
Chanel 10 Note Off - Duracao: 305700 Nota: C1 Vol.: 68
Chanel 10 Note On - Duracao: 305700 Nota: C1 Vol.: 63
Chanel 9 Note Off - Duracao: 305760 Nota: C1 Vol.: 51
Chanel 9 Note On - Duracao: 305760 Nota: C1 Vol.: 44
Chanel 4 Note Off - Duracao: 306060 Nota: C1 Vol.: 66
Chanel 4 Note On - Duracao: 306060 Nota: C1 Vol.: 68
Chanel 5 Note Off - Duracao: 306180 Nota: C1 Vol.: 43
Chanel 5 Note On - Duracao: 306180 Nota: C1 Vol.: 70
Chanel 10 Note Off - Duracao: 306180 Nota: C1 Vol.: 63
Chanel 10 Note On - Duracao: 306180 Nota: C1 Vol.: 75
Chanel 9 Note Off - Duracao: 306240 Nota: C1 Vol.: 44
Chanel 9 Note On - Duracao: 306240 Nota: C1 Vol.: 43
Chanel 2 Note Off - Duracao: 306360 Nota: C1 Vol.: 49
Chanel 2 Note On - Duracao: 306360 Nota: C1 Vol.: 56
Chanel 3 Note Off - Duracao: 306360 Nota: C1 Vol.: 40
Chanel 3 Note On - Duracao: 306360 Nota: C1 Vol.: 40
Chanel 10 Note Off - Duracao: 306420 Nota: C1 Vol.: 75
Chanel 10 Note On - Duracao: 306420 Nota: C1 Vol.: 81
Chanel 6 Note Off - Duracao: 306480 Nota: C1 Vol.: 53
Chanel 6 Note On - Duracao: 306480 Nota: C1 Vol.: 55
Chanel 7 Note Off - Duracao: 306540 Nota: C1 Vol.: 50
Chanel 7 Note On - Duracao: 306540 Nota: C1 Vol.: 48
Chanel 8 Note Off - Duracao: 306540 Nota: C1 Vol.: 53
Chanel 8 Note On - Duracao: 306540 Nota: C1 Vol.: 54
Chanel 5 Note Off - Duracao: 306660 Nota: C1 Vol.: 70
Chanel 5 Note On - Duracao: 306660 Nota: C1 Vol.: 86
Chanel 10 Note Off - Duracao: 306660 Nota: C1 Vol.: 81
Chanel 10 Note On - Duracao: 306660 Nota: C1 Vol.: 85
Chanel 9 Note Off - Duracao: 306720 Nota: C1 Vol.: 43
Chanel 9 Note On - Duracao: 306720 Nota: C1 Vol.: 48
Chanel 5 Note Off - Duracao: 306780 Nota: C1 Vol.: 86
Chanel 5 Note On - Duracao: 306780 Nota: C1 Vol.: 64
Chanel 2 Note Off - Duracao: 306840 Nota: C1 Vol.: 56
Chanel 2 Note On - Duracao: 306840 Nota: C1 Vol.: 61
Chanel 10 Note Off - Duracao: 306900 Nota: C1 Vol.: 85
Chanel 10 Note On - Duracao: 306900 Nota: C1 Vol.: 93
Chanel 9 Note Off - Duracao: 306960 Nota: C1 Vol.: 48
Chanel 9 Note On - Duracao: 306960 Nota: C1 Vol.: 55
Chanel 10 Note Off - Duracao: 307020 Nota: C1 Vol.: 93
Chanel 10 Note On - Duracao: 307020 Nota: C1 Vol.: 95
Chanel 2 Note Off - Duracao: 307080 Nota: C1 Vol.: 61
Chanel 2 Note On - Duracao: 307080 Nota: C1 Vol.: 57
Chanel 9 Note Off - Duracao: 307080 Nota: C1 Vol.: 55
Chanel 9 Note On - Duracao: 307080 Nota: C1 Vol.: 55
Chanel 10 Note Off - Duracao: 307140 Nota: C1 Vol.: 95
Chanel 10 Note On - Duracao: 307140 Nota: C1 Vol.: 94
Chanel 9 Note Off - Duracao: 307200 Nota: C1 Vol.: 55
Chanel 9 Note On - Duracao: 307200 Nota: C1 Vol.: 53
Chanel 10 Note Off - Duracao: 307260 Nota: C1 Vol.: 94
Chanel 10 Note On - Duracao: 307260 Nota: C1 Vol.: 81
Chanel 2 Note Off - Duracao: 307320 Nota: C1 Vol.: 57
Chanel 2 Note On - Duracao: 307320 Nota: C1 Vol.: 60
Chanel 9 Note Off - Duracao: 307320 Nota: C1 Vol.: 53
Chanel 9 Note On - Duracao: 307320 Nota: C1 Vol.: 52
Chanel 9 Note Off - Duracao: 307440 Nota: C1 Vol.: 52
Chanel 9 Note On - Duracao: 307440 Nota: C1 Vol.: 53
Chanel 7 Note Off - Duracao: 307500 Nota: C1 Vol.: 48
Chanel 7 Note On - Duracao: 307500 Nota: C1 Vol.: 51
Chanel 8 Note Off - Duracao: 307500 Nota: C1 Vol.: 54
Chanel 8 Note On - Duracao: 307500 Nota: C1 Vol.: 58
Chanel 10 Note Off - Duracao: 307500 Nota: C1 Vol.: 81
Chanel 10 Note On - Duracao: 307500 Nota: C1 Vol.: 63
Chanel 2 Note Off - Duracao: 307560 Nota: C1 Vol.: 60
Chanel 2 Note On - Duracao: 307560 Nota: C1 Vol.: 61
Chanel 9 Note Off - Duracao: 307560 Nota: C1 Vol.: 53
Chanel 9 Note On - Duracao: 307560 Nota: C1 Vol.: 45
Chanel 5 Note Off - Duracao: 307740 Nota: C1 Vol.: 64
Chanel 5 Note On - Duracao: 307740 Nota: C1 Vol.: 55
Chanel 2 Note Off - Duracao: 307800 Nota: C1 Vol.: 61
Chanel 2 Note On - Duracao: 307800 Nota: C1 Vol.: 63
Chanel 9 Note Off - Duracao: 307800 Nota: C1 Vol.: 45
Chanel 9 Note On - Duracao: 307800 Nota: C1 Vol.: 53
Chanel 9 Note Off - Duracao: 307920 Nota: C1 Vol.: 53
Chanel 9 Note On - Duracao: 307920 Nota: C1 Vol.: 46
Chanel 4 Note Off - Duracao: 307980 Nota: C1 Vol.: 68
Chanel 4 Note On - Duracao: 307980 Nota: C1 Vol.: 70
Chanel 8 Note Off - Duracao: 307980 Nota: C1 Vol.: 58
Chanel 8 Note On - Duracao: 307980 Nota: C1 Vol.: 60
Chanel 2 Note Off - Duracao: 308040 Nota: C1 Vol.: 63
Chanel 2 Note On - Duracao: 308040 Nota: C1 Vol.: 70
Chanel 2 Note Off - Duracao: 308160 Nota: C1 Vol.: 70
Chanel 2 Note On - Duracao: 308160 Nota: C1 Vol.: 62
Chanel 9 Note Off - Duracao: 308160 Nota: C1 Vol.: 46
Chanel 9 Note On - Duracao: 308160 Nota: C1 Vol.: 55
Chanel 2 Note Off - Duracao: 308400 Nota: C1 Vol.: 62
Chanel 2 Note On - Duracao: 308400 Nota: C1 Vol.: 56
Chanel 9 Note Off - Duracao: 308400 Nota: C1 Vol.: 55
Chanel 9 Note On - Duracao: 308400 Nota: C1 Vol.: 55
Chanel 7 Note Off - Duracao: 308460 Nota: C1 Vol.: 51
Chanel 7 Note On - Duracao: 308460 Nota: C1 Vol.: 51
Chanel 10 Note Off - Duracao: 308460 Nota: C1 Vol.: 63
Chanel 10 Note On - Duracao: 308460 Nota: C1 Vol.: 61
Chanel 9 Note Off - Duracao: 308640 Nota: C1 Vol.: 55
Chanel 9 Note On - Duracao: 308640 Nota: C1 Vol.: 53
Chanel 5 Note Off - Duracao: 308700 Nota: C1 Vol.: 55
Chanel 5 Note On - Duracao: 308700 Nota: C1 Vol.: 86
Chanel 5 Note Off - Duracao: 308820 Nota: C1 Vol.: 86
Chanel 5 Note On - Duracao: 308820 Nota: C1 Vol.: 85
Chanel 2 Note Off - Duracao: 308880 Nota: C1 Vol.: 56
Chanel 2 Note On - Duracao: 308880 Nota: C1 Vol.: 65
Chanel 9 Note Off - Duracao: 308880 Nota: C1 Vol.: 53
Chanel 9 Note On - Duracao: 308880 Nota: C1 Vol.: 47
Chanel 4 Note Off - Duracao: 308940 Nota: C1 Vol.: 70
Chanel 4 Note On - Duracao: 308940 Nota: C1 Vol.: 66
Chanel 5 Note Off - Duracao: 308940 Nota: C1 Vol.: 85
Chanel 5 Note On - Duracao: 308940 Nota: C1 Vol.: 87
Chanel 8 Note Off - Duracao: 308940 Nota: C1 Vol.: 60
Chanel 8 Note On - Duracao: 308940 Nota: C1 Vol.: 60
Chanel 5 Note Off - Duracao: 309060 Nota: C1 Vol.: 87
Chanel 5 Note On - Duracao: 309060 Nota: C1 Vol.: 88
Chanel 2 Note Off - Duracao: 309120 Nota: C1 Vol.: 65
Chanel 2 Note On - Duracao: 309120 Nota: C1 Vol.: 75
Chanel 5 Note Off - Duracao: 309180 Nota: C1 Vol.: 88
Chanel 5 Note On - Duracao: 309180 Nota: C1 Vol.: 86
Chanel 2 Note Off - Duracao: 309240 Nota: C1 Vol.: 75
Chanel 2 Note On - Duracao: 309240 Nota: C1 Vol.: 72
Chanel 5 Note Off - Duracao: 309300 Nota: C1 Vol.: 86
Chanel 5 Note On - Duracao: 309300 Nota: C1 Vol.: 65
Chanel 9 Note Off - Duracao: 309360 Nota: C1 Vol.: 47
Chanel 9 Note On - Duracao: 309360 Nota: C1 Vol.: 55
Chanel 7 Note Off - Duracao: 309420 Nota: C1 Vol.: 51
Chanel 7 Note On - Duracao: 309420 Nota: C1 Vol.: 51
Chanel 10 Note Off - Duracao: 309420 Nota: C1 Vol.: 61
Chanel 10 Note On - Duracao: 309420 Nota: C1 Vol.: 56
Chanel 2 Note Off - Duracao: 309480 Nota: C1 Vol.: 72
Chanel 2 Note On - Duracao: 309480 Nota: C1 Vol.: 71
Chanel 9 Note Off - Duracao: 309600 Nota: C1 Vol.: 55
Chanel 9 Note On - Duracao: 309600 Nota: C1 Vol.: 54
Chanel 2 Note Off - Duracao: 309720 Nota: C1 Vol.: 71
Chanel 2 Note On - Duracao: 309720 Nota: C1 Vol.: 40
Chanel 9 Note Off - Duracao: 309720 Nota: C1 Vol.: 54
Chanel 9 Note On - Duracao: 309720 Nota: C1 Vol.: 46
Chanel 5 Note Off - Duracao: 309780 Nota: C1 Vol.: 65
Chanel 5 Note On - Duracao: 309780 Nota: C1 Vol.: 46
Chanel 8 Note Off - Duracao: 309900 Nota: C1 Vol.: 60
Chanel 8 Note On - Duracao: 309900 Nota: C1 Vol.: 69
Chanel 9 Note Off - Duracao: 309960 Nota: C1 Vol.: 46
Chanel 9 Note On - Duracao: 309960 Nota: C1 Vol.: 47
Chanel 3 Note Off - Duracao: 310200 Nota: C1 Vol.: 40
Chanel 3 Note On - Duracao: 310200 Nota: C1 Vol.: 58
Chanel 9 Note Off - Duracao: 310200 Nota: C1 Vol.: 47
Chanel 9 Note On - Duracao: 310200 Nota: C1 Vol.: 50
Chanel 6 Note Off - Duracao: 310320 Nota: C1 Vol.: 55
Chanel 6 Note On - Duracao: 310320 Nota: C1 Vol.: 61
Chanel 7 Note Off - Duracao: 310380 Nota: C1 Vol.: 51
Chanel 7 Note On - Duracao: 310380 Nota: C1 Vol.: 50
Chanel 8 Note Off - Duracao: 310380 Nota: C1 Vol.: 69
Chanel 8 Note On - Duracao: 310380 Nota: C1 Vol.: 69
Chanel 10 Note Off - Duracao: 310380 Nota: C1 Vol.: 56
Chanel 10 Note On - Duracao: 310380 Nota: C1 Vol.: 51
Chanel 9 Note Off - Duracao: 310440 Nota: C1 Vol.: 50
Chanel 9 Note On - Duracao: 310440 Nota: C1 Vol.: 48
Chanel 9 Note Off - Duracao: 310680 Nota: C1 Vol.: 48
Chanel 9 Note On - Duracao: 310680 Nota: C1 Vol.: 47
Chanel 4 Note Off - Duracao: 310860 Nota: C1 Vol.: 66
Chanel 4 Note On - Duracao: 310860 Nota: C1 Vol.: 68
Chanel 8 Note Off - Duracao: 310860 Nota: C1 Vol.: 69
Chanel 8 Note On - Duracao: 310860 Nota: C1 Vol.: 60
Chanel 9 Note Off - Duracao: 310920 Nota: C1 Vol.: 47
Chanel 9 Note On - Duracao: 310920 Nota: C1 Vol.: 59
Chanel 9 Note Off - Duracao: 311040 Nota: C1 Vol.: 59
Chanel 9 Note On - Duracao: 311040 Nota: C1 Vol.: 59
Chanel 3 Note Off - Duracao: 311160 Nota: C1 Vol.: 58
Chanel 3 Note On - Duracao: 311160 Nota: C1 Vol.: 67
Chanel 9 Note Off - Duracao: 311160 Nota: C1 Vol.: 59
Chanel 9 Note On - Duracao: 311160 Nota: C1 Vol.: 50
Chanel 7 Note Off - Duracao: 311340 Nota: C1 Vol.: 50
Chanel 7 Note On - Duracao: 311340 Nota: C1 Vol.: 50
Chanel 10 Note Off - Duracao: 311340 Nota: C1 Vol.: 51
Chanel 10 Note On - Duracao: 311340 Nota: C1 Vol.: 54
Chanel 3 Note Off - Duracao: 311400 Nota: C1 Vol.: 67
Chanel 3 Note On - Duracao: 311400 Nota: C1 Vol.: 50
Chanel 9 Note Off - Duracao: 311400 Nota: C1 Vol.: 50
Chanel 9 Note On - Duracao: 311400 Nota: C1 Vol.: 51
Chanel 2 Note Off - Duracao: 311640 Nota: C1 Vol.: 40
Chanel 2 Note On - Duracao: 311640 Nota: C1 Vol.: 52
Chanel 9 Note Off - Duracao: 311640 Nota: C1 Vol.: 51
Chanel 9 Note On - Duracao: 311640 Nota: C1 Vol.: 49
Chanel 5 Note Off - Duracao: 311700 Nota: C1 Vol.: 46
Chanel 5 Note On - Duracao: 311700 Nota: C1 Vol.: 76
Chanel 4 Note Off - Duracao: 311820 Nota: C1 Vol.: 68
Chanel 4 Note On - Duracao: 311820 Nota: C1 Vol.: 60
Chanel 8 Note Off - Duracao: 311820 Nota: C1 Vol.: 60
Chanel 8 Note On - Duracao: 311820 Nota: C1 Vol.: 56
Chanel 2 Note Off - Duracao: 311880 Nota: C1 Vol.: 52
Chanel 2 Note On - Duracao: 311880 Nota: C1 Vol.: 49
Chanel 9 Note Off - Duracao: 311880 Nota: C1 Vol.: 49
Chanel 9 Note On - Duracao: 311880 Nota: C1 Vol.: 49
Chanel 5 Note Off - Duracao: 311940 Nota: C1 Vol.: 76
Chanel 5 Note On - Duracao: 311940 Nota: C1 Vol.: 97
Chanel 5 Note Off - Duracao: 312000 Nota: C1 Vol.: 97
Chanel 5 Note On - Duracao: 312000 Nota: C1 Vol.: 56
Chanel 2 Note Off - Duracao: 312120 Nota: C1 Vol.: 49
Chanel 2 Note On - Duracao: 312120 Nota: C1 Vol.: 52
Chanel 9 Note Off - Duracao: 312120 Nota: C1 Vol.: 49
Chanel 9 Note On - Duracao: 312120 Nota: C1 Vol.: 45
Chanel 7 Note Off - Duracao: 312300 Nota: C1 Vol.: 50
Chanel 7 Note On - Duracao: 312300 Nota: C1 Vol.: 48
Chanel 10 Note Off - Duracao: 312300 Nota: C1 Vol.: 54
Chanel 10 Note On - Duracao: 312300 Nota: C1 Vol.: 49
Chanel 2 Note Off - Duracao: 312360 Nota: C1 Vol.: 52
Chanel 2 Note On - Duracao: 312360 Nota: C1 Vol.: 40
Chanel 3 Note Off - Duracao: 312360 Nota: C1 Vol.: 50
Chanel 3 Note On - Duracao: 312360 Nota: C1 Vol.: 57
Chanel 9 Note Off - Duracao: 312360 Nota: C1 Vol.: 45
Chanel 9 Note On - Duracao: 312360 Nota: C1 Vol.: 57
Chanel 9 Note Off - Duracao: 312480 Nota: C1 Vol.: 57
Chanel 9 Note On - Duracao: 312480 Nota: C1 Vol.: 62
Chanel 9 Note Off - Duracao: 312600 Nota: C1 Vol.: 62
Chanel 9 Note On - Duracao: 312600 Nota: C1 Vol.: 59
Chanel 8 Note Off - Duracao: 312780 Nota: C1 Vol.: 56
Chanel 8 Note On - Duracao: 312780 Nota: C1 Vol.: 46
Chanel 9 Note Off - Duracao: 312840 Nota: C1 Vol.: 59
Chanel 9 Note On - Duracao: 312840 Nota: C1 Vol.: 58
Chanel 5 Note Off - Duracao: 312960 Nota: C1 Vol.: 56
Chanel 5 Note On - Duracao: 312960 Nota: C1 Vol.: 88
Chanel 5 Note Off - Duracao: 313080 Nota: C1 Vol.: 88
Chanel 5 Note On - Duracao: 313080 Nota: C1 Vol.: 98
Chanel 9 Note Off - Duracao: 313080 Nota: C1 Vol.: 58
Chanel 9 Note On - Duracao: 313080 Nota: C1 Vol.: 68
Chanel 5 Note Off - Duracao: 313140 Nota: C1 Vol.: 98
Chanel 5 Note On - Duracao: 313140 Nota: C1 Vol.: 98
Chanel 5 Note Off - Duracao: 313200 Nota: C1 Vol.: 98
Chanel 5 Note On - Duracao: 313200 Nota: C1 Vol.: 100
Chanel 9 Note Off - Duracao: 313200 Nota: C1 Vol.: 68
Chanel 9 Note On - Duracao: 313200 Nota: C1 Vol.: 65
Chanel 5 Note Off - Duracao: 313260 Nota: C1 Vol.: 100
Chanel 5 Note On - Duracao: 313260 Nota: C1 Vol.: 100
Chanel 10 Note Off - Duracao: 313260 Nota: C1 Vol.: 49
Chanel 10 Note On - Duracao: 313260 Nota: C1 Vol.: 54
Chanel 2 Note Off - Duracao: 313320 Nota: C1 Vol.: 40
Chanel 2 Note On - Duracao: 313320 Nota: C1 Vol.: 40
Chanel 3 Note Off - Duracao: 313320 Nota: C1 Vol.: 57
Chanel 3 Note On - Duracao: 313320 Nota: C1 Vol.: 84
Chanel 5 Note Off - Duracao: 313320 Nota: C1 Vol.: 100
Chanel 5 Note On - Duracao: 313320 Nota: C1 Vol.: 99
Chanel 5 Note Off - Duracao: 313380 Nota: C1 Vol.: 99
Chanel 5 Note On - Duracao: 313380 Nota: C1 Vol.: 98
Chanel 3 Note Off - Duracao: 313440 Nota: C1 Vol.: 84
Chanel 3 Note On - Duracao: 313440 Nota: C1 Vol.: 95
Chanel 5 Note Off - Duracao: 313440 Nota: C1 Vol.: 98
Chanel 5 Note On - Duracao: 313440 Nota: C1 Vol.: 97
Chanel 9 Note Off - Duracao: 313440 Nota: C1 Vol.: 65
Chanel 9 Note On - Duracao: 313440 Nota: C1 Vol.: 68
Chanel 5 Note Off - Duracao: 313500 Nota: C1 Vol.: 97
Chanel 5 Note On - Duracao: 313500 Nota: C1 Vol.: 77
Chanel 3 Note Off - Duracao: 313560 Nota: C1 Vol.: 95
Chanel 3 Note On - Duracao: 313560 Nota: C1 Vol.: 98
Chanel 9 Note Off - Duracao: 313560 Nota: C1 Vol.: 68
Chanel 9 Note On - Duracao: 313560 Nota: C1 Vol.: 67
Chanel 3 Note Off - Duracao: 313680 Nota: C1 Vol.: 98
Chanel 3 Note On - Duracao: 313680 Nota: C1 Vol.: 95
Chanel 9 Note Off - Duracao: 313680 Nota: C1 Vol.: 67
Chanel 9 Note On - Duracao: 313680 Nota: C1 Vol.: 63
Chanel 4 Note Off - Duracao: 313740 Nota: C1 Vol.: 60
Chanel 4 Note On - Duracao: 313740 Nota: C1 Vol.: 65
Chanel 5 Note Off - Duracao: 313740 Nota: C1 Vol.: 77
Chanel 5 Note On - Duracao: 313740 Nota: C1 Vol.: 97
Chanel 8 Note Off - Duracao: 313740 Nota: C1 Vol.: 46
Chanel 8 Note On - Duracao: 313740 Nota: C1 Vol.: 41
Chanel 10 Note Off - Duracao: 313740 Nota: C1 Vol.: 54
Chanel 10 Note On - Duracao: 313740 Nota: C1 Vol.: 65
Chanel 3 Note Off - Duracao: 313800 Nota: C1 Vol.: 95
Chanel 3 Note On - Duracao: 313800 Nota: C1 Vol.: 64
Chanel 5 Note Off - Duracao: 313860 Nota: C1 Vol.: 97
Chanel 5 Note On - Duracao: 313860 Nota: C1 Vol.: 100
Chanel 5 Note Off - Duracao: 313920 Nota: C1 Vol.: 100
Chanel 5 Note On - Duracao: 313920 Nota: C1 Vol.: 98
Chanel 9 Note Off - Duracao: 313920 Nota: C1 Vol.: 63
Chanel 9 Note On - Duracao: 313920 Nota: C1 Vol.: 64
Chanel 10 Note Off - Duracao: 313980 Nota: C1 Vol.: 65
Chanel 10 Note On - Duracao: 313980 Nota: C1 Vol.: 66
Chanel 5 Note Off - Duracao: 314040 Nota: C1 Vol.: 98
Chanel 5 Note On - Duracao: 314040 Nota: C1 Vol.: 100
Chanel 5 Note Off - Duracao: 314100 Nota: C1 Vol.: 100
Chanel 5 Note On - Duracao: 314100 Nota: C1 Vol.: 99
Chanel 5 Note Off - Duracao: 314160 Nota: C1 Vol.: 99
Chanel 5 Note On - Duracao: 314160 Nota: C1 Vol.: 99
Chanel 6 Note Off - Duracao: 314160 Nota: C1 Vol.: 61
Chanel 6 Note On - Duracao: 314160 Nota: C1 Vol.: 60
Chanel 9 Note Off - Duracao: 314160 Nota: C1 Vol.: 64
Chanel 9 Note On - Duracao: 314160 Nota: C1 Vol.: 60
Chanel 5 Note Off - Duracao: 314220 Nota: C1 Vol.: 99
Chanel 5 Note On - Duracao: 314220 Nota: C1 Vol.: 100
Chanel 7 Note Off - Duracao: 314220 Nota: C1 Vol.: 48
Chanel 7 Note On - Duracao: 314220 Nota: C1 Vol.: 48
Chanel 10 Note Off - Duracao: 314220 Nota: C1 Vol.: 66
Chanel 10 Note On - Duracao: 314220 Nota: C1 Vol.: 67
Chanel 5 Note Off - Duracao: 314280 Nota: C1 Vol.: 100
Chanel 5 Note On - Duracao: 314280 Nota: C1 Vol.: 99
Chanel 5 Note Off - Duracao: 314340 Nota: C1 Vol.: 99
Chanel 5 Note On - Duracao: 314340 Nota: C1 Vol.: 94
Chanel 9 Note Off - Duracao: 314400 Nota: C1 Vol.: 60
Chanel 9 Note On - Duracao: 314400 Nota: C1 Vol.: 54
Chanel 5 Note Off - Duracao: 314460 Nota: C1 Vol.: 94
Chanel 5 Note On - Duracao: 314460 Nota: C1 Vol.: 96
Chanel 10 Note Off - Duracao: 314460 Nota: C1 Vol.: 67
Chanel 10 Note On - Duracao: 314460 Nota: C1 Vol.: 69
Chanel 5 Note Off - Duracao: 314520 Nota: C1 Vol.: 96
Chanel 5 Note On - Duracao: 314520 Nota: C1 Vol.: 69
Chanel 4 Note Off - Duracao: 314700 Nota: C1 Vol.: 65
Chanel 4 Note On - Duracao: 314700 Nota: C1 Vol.: 65
Chanel 10 Note Off - Duracao: 314700 Nota: C1 Vol.: 69
Chanel 10 Note On - Duracao: 314700 Nota: C1 Vol.: 55
Chanel 3 Note Off - Duracao: 314760 Nota: C1 Vol.: 64
Chanel 3 Note On - Duracao: 314760 Nota: C1 Vol.: 71
Chanel 9 Note Off - Duracao: 314880 Nota: C1 Vol.: 54
Chanel 9 Note On - Duracao: 314880 Nota: C1 Vol.: 52
Chanel 5 Note Off - Duracao: 315000 Nota: C1 Vol.: 69
Chanel 5 Note On - Duracao: 315000 Nota: C1 Vol.: 80
Chanel 2 Note Off - Duracao: 315240 Nota: C1 Vol.: 40
Chanel 2 Note On - Duracao: 315240 Nota: C1 Vol.: 40
Chanel 5 Note Off - Duracao: 315240 Nota: C1 Vol.: 80
Chanel 5 Note On - Duracao: 315240 Nota: C1 Vol.: 79
Chanel 9 Note Off - Duracao: 315360 Nota: C1 Vol.: 52
Chanel 9 Note On - Duracao: 315360 Nota: C1 Vol.: 45
Chanel 5 Note Off - Duracao: 315480 Nota: C1 Vol.: 79
Chanel 5 Note On - Duracao: 315480 Nota: C1 Vol.: 64
Chanel 4 Note Off - Duracao: 315660 Nota: C1 Vol.: 65
Chanel 4 Note On - Duracao: 315660 Nota: C1 Vol.: 52
Chanel 8 Note Off - Duracao: 315660 Nota: C1 Vol.: 41
Chanel 8 Note On - Duracao: 315660 Nota: C1 Vol.: 47
Chanel 10 Note Off - Duracao: 315660 Nota: C1 Vol.: 55
Chanel 10 Note On - Duracao: 315660 Nota: C1 Vol.: 47
Chanel 3 Note Off - Duracao: 315720 Nota: C1 Vol.: 71
Chanel 3 Note On - Duracao: 315720 Nota: C1 Vol.: 71
Chanel 5 Note Off - Duracao: 315960 Nota: C1 Vol.: 64
Chanel 5 Note On - Duracao: 315960 Nota: C1 Vol.: 61
Chanel 7 Note Off - Duracao: 316140 Nota: C1 Vol.: 48
Chanel 7 Note On - Duracao: 316140 Nota: C1 Vol.: 50
Chanel 9 Note Off - Duracao: 316320 Nota: C1 Vol.: 45
Chanel 9 Note On - Duracao: 316320 Nota: C1 Vol.: 51
Chanel 10 Note Off - Duracao: 316620 Nota: C1 Vol.: 47
Chanel 10 Note On - Duracao: 316620 Nota: C1 Vol.: 50
Chanel 3 Note Off - Duracao: 316680 Nota: C1 Vol.: 71
Chanel 3 Note On - Duracao: 316680 Nota: C1 Vol.: 75
Chanel 5 Note Off - Duracao: 316920 Nota: C1 Vol.: 61
Chanel 5 Note On - Duracao: 316920 Nota: C1 Vol.: 71
Chanel 2 Note Off - Duracao: 317160 Nota: C1 Vol.: 40
Chanel 2 Note On - Duracao: 317160 Nota: C1 Vol.: 44
Chanel 3 Note Off - Duracao: 317160 Nota: C1 Vol.: 75
Chanel 3 Note On - Duracao: 317160 Nota: C1 Vol.: 73
Chanel 9 Note Off - Duracao: 317280 Nota: C1 Vol.: 51
Chanel 9 Note On - Duracao: 317280 Nota: C1 Vol.: 59
Chanel 5 Note Off - Duracao: 317400 Nota: C1 Vol.: 71
Chanel 5 Note On - Duracao: 317400 Nota: C1 Vol.: 70
Chanel 4 Note Off - Duracao: 317580 Nota: C1 Vol.: 52
Chanel 4 Note On - Duracao: 317580 Nota: C1 Vol.: 44
Chanel 8 Note Off - Duracao: 317580 Nota: C1 Vol.: 47
Chanel 8 Note On - Duracao: 317580 Nota: C1 Vol.: 52
Chanel 10 Note Off - Duracao: 317580 Nota: C1 Vol.: 50
Chanel 10 Note On - Duracao: 317580 Nota: C1 Vol.: 59
Chanel 3 Note Off - Duracao: 317640 Nota: C1 Vol.: 73
Chanel 3 Note On - Duracao: 317640 Nota: C1 Vol.: 66
Chanel 5 Note Off - Duracao: 317640 Nota: C1 Vol.: 70
Chanel 5 Note On - Duracao: 317640 Nota: C1 Vol.: 69
Chanel 9 Note Off - Duracao: 317760 Nota: C1 Vol.: 59
Chanel 9 Note On - Duracao: 317760 Nota: C1 Vol.: 63
Chanel 5 Note Off - Duracao: 317880 Nota: C1 Vol.: 69
Chanel 5 Note On - Duracao: 317880 Nota: C1 Vol.: 62
Chanel 6 Note Off - Duracao: 318000 Nota: C1 Vol.: 60
Chanel 6 Note On - Duracao: 318000 Nota: C1 Vol.: 61
Chanel 7 Note Off - Duracao: 318060 Nota: C1 Vol.: 50
Chanel 7 Note On - Duracao: 318060 Nota: C1 Vol.: 61
Chanel 10 Note Off - Duracao: 318060 Nota: C1 Vol.: 59
Chanel 10 Note On - Duracao: 318060 Nota: C1 Vol.: 91
Chanel 5 Note Off - Duracao: 318120 Nota: C1 Vol.: 62
Chanel 5 Note On - Duracao: 318120 Nota: C1 Vol.: 60
Chanel 10 Note Off - Duracao: 318180 Nota: C1 Vol.: 91
Chanel 10 Note On - Duracao: 318180 Nota: C1 Vol.: 73
Chanel 9 Note Off - Duracao: 318240 Nota: C1 Vol.: 63
Chanel 9 Note On - Duracao: 318240 Nota: C1 Vol.: 71
Chanel 5 Note Off - Duracao: 318360 Nota: C1 Vol.: 60
Chanel 5 Note On - Duracao: 318360 Nota: C1 Vol.: 53
Chanel 9 Note Off - Duracao: 318480 Nota: C1 Vol.: 71
Chanel 9 Note On - Duracao: 318480 Nota: C1 Vol.: 72
Chanel 8 Note Off - Duracao: 318540 Nota: C1 Vol.: 52
Chanel 8 Note On - Duracao: 318540 Nota: C1 Vol.: 53
Chanel 3 Note Off - Duracao: 318600 Nota: C1 Vol.: 66
Chanel 3 Note On - Duracao: 318600 Nota: C1 Vol.: 63
Chanel 10 Note Off - Duracao: 318660 Nota: C1 Vol.: 73
Chanel 10 Note On - Duracao: 318660 Nota: C1 Vol.: 74
Chanel 9 Note Off - Duracao: 318720 Nota: C1 Vol.: 72
Chanel 9 Note On - Duracao: 318720 Nota: C1 Vol.: 67
Chanel 5 Note Off - Duracao: 318840 Nota: C1 Vol.: 53
Chanel 5 Note On - Duracao: 318840 Nota: C1 Vol.: 52
Chanel 10 Note Off - Duracao: 318900 Nota: C1 Vol.: 74
Chanel 10 Note On - Duracao: 318900 Nota: C1 Vol.: 73
Chanel 9 Note Off - Duracao: 318960 Nota: C1 Vol.: 67
Chanel 9 Note On - Duracao: 318960 Nota: C1 Vol.: 68
Chanel 2 Note Off - Duracao: 319080 Nota: C1 Vol.: 44
Chanel 2 Note On - Duracao: 319080 Nota: C1 Vol.: 44
Chanel 10 Note Off - Duracao: 319140 Nota: C1 Vol.: 73
Chanel 10 Note On - Duracao: 319140 Nota: C1 Vol.: 71
Chanel 9 Note Off - Duracao: 319200 Nota: C1 Vol.: 68
Chanel 9 Note On - Duracao: 319200 Nota: C1 Vol.: 67
Chanel 5 Note Off - Duracao: 319320 Nota: C1 Vol.: 52
Chanel 5 Note On - Duracao: 319320 Nota: C1 Vol.: 53
Chanel 10 Note Off - Duracao: 319380 Nota: C1 Vol.: 71
Chanel 10 Note On - Duracao: 319380 Nota: C1 Vol.: 69
Chanel 8 Note Off - Duracao: 319500 Nota: C1 Vol.: 53
Chanel 8 Note On - Duracao: 319500 Nota: C1 Vol.: 52
Chanel 3 Note Off - Duracao: 319560 Nota: C1 Vol.: 63
Chanel 3 Note On - Duracao: 319560 Nota: C1 Vol.: 78
Chanel 10 Note Off - Duracao: 319620 Nota: C1 Vol.: 69
Chanel 10 Note On - Duracao: 319620 Nota: C1 Vol.: 48
Chanel 9 Note Off - Duracao: 319680 Nota: C1 Vol.: 67
Chanel 9 Note On - Duracao: 319680 Nota: C1 Vol.: 81
Chanel 3 Note Off - Duracao: 319800 Nota: C1 Vol.: 78
Chanel 3 Note On - Duracao: 319800 Nota: C1 Vol.: 95
Chanel 5 Note Off - Duracao: 319800 Nota: C1 Vol.: 53
Chanel 5 Note On - Duracao: 319800 Nota: C1 Vol.: 47
Chanel 3 Note Off - Duracao: 319860 Nota: C1 Vol.: 95
Chanel 3 Note On - Duracao: 319860 Nota: C1 Vol.: 98
Chanel 3 Note Off - Duracao: 319920 Nota: C1 Vol.: 98
Chanel 3 Note On - Duracao: 319920 Nota: C1 Vol.: 95
Chanel 9 Note Off - Duracao: 319920 Nota: C1 Vol.: 81
Chanel 9 Note On - Duracao: 319920 Nota: C1 Vol.: 80
Chanel 3 Note Off - Duracao: 319980 Nota: C1 Vol.: 95
Chanel 3 Note On - Duracao: 319980 Nota: C1 Vol.: 97
Chanel 7 Note Off - Duracao: 319980 Nota: C1 Vol.: 61
Chanel 7 Note On - Duracao: 319980 Nota: C1 Vol.: 57
Chanel 3 Note Off - Duracao: 320040 Nota: C1 Vol.: 97
Chanel 3 Note On - Duracao: 320040 Nota: C1 Vol.: 98
Chanel 3 Note Off - Duracao: 320100 Nota: C1 Vol.: 98
Chanel 3 Note On - Duracao: 320100 Nota: C1 Vol.: 96
Chanel 3 Note Off - Duracao: 320160 Nota: C1 Vol.: 96
Chanel 3 Note On - Duracao: 320160 Nota: C1 Vol.: 96
Chanel 9 Note Off - Duracao: 320160 Nota: C1 Vol.: 80
Chanel 9 Note On - Duracao: 320160 Nota: C1 Vol.: 66
Chanel 3 Note Off - Duracao: 320220 Nota: C1 Vol.: 96
Chanel 3 Note On - Duracao: 320220 Nota: C1 Vol.: 98
Chanel 3 Note Off - Duracao: 320280 Nota: C1 Vol.: 98
Chanel 3 Note On - Duracao: 320280 Nota: C1 Vol.: 78
Chanel 8 Note Off - Duracao: 320460 Nota: C1 Vol.: 52
Chanel 8 Note On - Duracao: 320460 Nota: C1 Vol.: 51
Chanel 3 Note Off - Duracao: 320520 Nota: C1 Vol.: 78
Chanel 3 Note On - Duracao: 320520 Nota: C1 Vol.: 66
Chanel 10 Note Off - Duracao: 320580 Nota: C1 Vol.: 48
Chanel 10 Note On - Duracao: 320580 Nota: C1 Vol.: 46
Chanel 5 Note Off - Duracao: 320760 Nota: C1 Vol.: 47
Chanel 5 Note On - Duracao: 320760 Nota: C1 Vol.: 56
Chanel 2 Note Off - Duracao: 321000 Nota: C1 Vol.: 44
Chanel 2 Note On - Duracao: 321000 Nota: C1 Vol.: 42
Chanel 3 Note Off - Duracao: 321000 Nota: C1 Vol.: 66
Chanel 3 Note On - Duracao: 321000 Nota: C1 Vol.: 75
Chanel 5 Note Off - Duracao: 321000 Nota: C1 Vol.: 56
Chanel 5 Note On - Duracao: 321000 Nota: C1 Vol.: 66
Chanel 5 Note Off - Duracao: 321120 Nota: C1 Vol.: 66
Chanel 5 Note On - Duracao: 321120 Nota: C1 Vol.: 61
Chanel 9 Note Off - Duracao: 321120 Nota: C1 Vol.: 66
Chanel 9 Note On - Duracao: 321120 Nota: C1 Vol.: 57
Chanel 3 Note Off - Duracao: 321240 Nota: C1 Vol.: 75
Chanel 3 Note On - Duracao: 321240 Nota: C1 Vol.: 74
Chanel 3 Note Off - Duracao: 321360 Nota: C1 Vol.: 74
Chanel 3 Note On - Duracao: 321360 Nota: C1 Vol.: 72
Chanel 5 Note Off - Duracao: 321360 Nota: C1 Vol.: 61
Chanel 5 Note On - Duracao: 321360 Nota: C1 Vol.: 57
Chanel 4 Note Off - Duracao: 321420 Nota: C1 Vol.: 44
Chanel 4 Note On - Duracao: 321420 Nota: C1 Vol.: 42
Chanel 8 Note Off - Duracao: 321420 Nota: C1 Vol.: 51
Chanel 8 Note On - Duracao: 321420 Nota: C1 Vol.: 49
Chanel 3 Note Off - Duracao: 321480 Nota: C1 Vol.: 72
Chanel 3 Note On - Duracao: 321480 Nota: C1 Vol.: 66
Chanel 10 Note Off - Duracao: 321540 Nota: C1 Vol.: 46
Chanel 10 Note On - Duracao: 321540 Nota: C1 Vol.: 60
Chanel 3 Note Off - Duracao: 321720 Nota: C1 Vol.: 66
Chanel 3 Note On - Duracao: 321720 Nota: C1 Vol.: 40
Chanel 5 Note Off - Duracao: 321840 Nota: C1 Vol.: 57
Chanel 5 Note On - Duracao: 321840 Nota: C1 Vol.: 57
Chanel 6 Note Off - Duracao: 321840 Nota: C1 Vol.: 61
Chanel 6 Note On - Duracao: 321840 Nota: C1 Vol.: 60
Chanel 10 Note Off - Duracao: 322020 Nota: C1 Vol.: 60
Chanel 10 Note On - Duracao: 322020 Nota: C1 Vol.: 60
Chanel 9 Note Off - Duracao: 322080 Nota: C1 Vol.: 57
Chanel 9 Note On - Duracao: 322080 Nota: C1 Vol.: 51
Chanel 5 Note Off - Duracao: 322320 Nota: C1 Vol.: 57
Chanel 5 Note On - Duracao: 322320 Nota: C1 Vol.: 57
Chanel 8 Note Off - Duracao: 322380 Nota: C1 Vol.: 49
Chanel 8 Note On - Duracao: 322380 Nota: C1 Vol.: 49
Chanel 10 Note Off - Duracao: 322500 Nota: C1 Vol.: 60
Chanel 10 Note On - Duracao: 322500 Nota: C1 Vol.: 60
Chanel 5 Note Off - Duracao: 322800 Nota: C1 Vol.: 57
Chanel 5 Note On - Duracao: 322800 Nota: C1 Vol.: 57
Chanel 2 Note Off - Duracao: 322920 Nota: C1 Vol.: 42
Chanel 2 Note On - Duracao: 322920 Nota: C1 Vol.: 40
Chanel 10 Note Off - Duracao: 322980 Nota: C1 Vol.: 60
Chanel 10 Note On - Duracao: 322980 Nota: C1 Vol.: 63
Chanel 9 Note Off - Duracao: 323040 Nota: C1 Vol.: 51
Chanel 9 Note On - Duracao: 323040 Nota: C1 Vol.: 54
Chanel 5 Note Off - Duracao: 323280 Nota: C1 Vol.: 57
Chanel 5 Note On - Duracao: 323280 Nota: C1 Vol.: 54
Chanel 8 Note Off - Duracao: 323340 Nota: C1 Vol.: 49
Chanel 8 Note On - Duracao: 323340 Nota: C1 Vol.: 54
Chanel 10 Note Off - Duracao: 323460 Nota: C1 Vol.: 63
Chanel 10 Note On - Duracao: 323460 Nota: C1 Vol.: 61
Chanel 3 Note Off - Duracao: 323640 Nota: C1 Vol.: 40
Chanel 3 Note On - Duracao: 323640 Nota: C1 Vol.: 44
Chanel 5 Note Off - Duracao: 323760 Nota: C1 Vol.: 54
Chanel 5 Note On - Duracao: 323760 Nota: C1 Vol.: 58
Chanel 7 Note Off - Duracao: 323820 Nota: C1 Vol.: 57
Chanel 7 Note On - Duracao: 323820 Nota: C1 Vol.: 61
Chanel 8 Note Off - Duracao: 323820 Nota: C1 Vol.: 54
Chanel 8 Note On - Duracao: 323820 Nota: C1 Vol.: 57
Chanel 10 Note Off - Duracao: 323940 Nota: C1 Vol.: 61
Chanel 10 Note On - Duracao: 323940 Nota: C1 Vol.: 60
Chanel 9 Note Off - Duracao: 324000 Nota: C1 Vol.: 54
Chanel 9 Note On - Duracao: 324000 Nota: C1 Vol.: 53
Chanel 5 Note Off - Duracao: 324240 Nota: C1 Vol.: 58
Chanel 5 Note On - Duracao: 324240 Nota: C1 Vol.: 58
Chanel 8 Note Off - Duracao: 324300 Nota: C1 Vol.: 57
Chanel 8 Note On - Duracao: 324300 Nota: C1 Vol.: 49
Chanel 10 Note Off - Duracao: 324420 Nota: C1 Vol.: 60
Chanel 10 Note On - Duracao: 324420 Nota: C1 Vol.: 59
Chanel 5 Note Off - Duracao: 324720 Nota: C1 Vol.: 58
Chanel 5 Note On - Duracao: 324720 Nota: C1 Vol.: 62
Chanel 2 Note Off - Duracao: 324840 Nota: C1 Vol.: 40
Chanel 2 Note On - Duracao: 324840 Nota: C1 Vol.: 40
Chanel 10 Note Off - Duracao: 324900 Nota: C1 Vol.: 59
Chanel 10 Note On - Duracao: 324900 Nota: C1 Vol.: 58
Chanel 5 Note Off - Duracao: 324960 Nota: C1 Vol.: 62
Chanel 5 Note On - Duracao: 324960 Nota: C1 Vol.: 57
Chanel 9 Note Off - Duracao: 324960 Nota: C1 Vol.: 53
Chanel 9 Note On - Duracao: 324960 Nota: C1 Vol.: 53
Chanel 4 Note Off - Duracao: 325260 Nota: C1 Vol.: 42
Chanel 4 Note On - Duracao: 325260 Nota: C1 Vol.: 42
Chanel 8 Note Off - Duracao: 325260 Nota: C1 Vol.: 49
Chanel 8 Note On - Duracao: 325260 Nota: C1 Vol.: 50
Chanel 10 Note Off - Duracao: 325380 Nota: C1 Vol.: 58
Chanel 10 Note On - Duracao: 325380 Nota: C1 Vol.: 59
Chanel 5 Note Off - Duracao: 325440 Nota: C1 Vol.: 57
Chanel 5 Note On - Duracao: 325440 Nota: C1 Vol.: 52
Chanel 3 Note Off - Duracao: 325560 Nota: C1 Vol.: 44
Chanel 3 Note On - Duracao: 325560 Nota: C1 Vol.: 46
Chanel 6 Note Off - Duracao: 325680 Nota: C1 Vol.: 60
Chanel 6 Note On - Duracao: 325680 Nota: C1 Vol.: 62
Chanel 10 Note Off - Duracao: 325860 Nota: C1 Vol.: 59
Chanel 10 Note On - Duracao: 325860 Nota: C1 Vol.: 58
Chanel 5 Note Off - Duracao: 325920 Nota: C1 Vol.: 52
Chanel 5 Note On - Duracao: 325920 Nota: C1 Vol.: 55
Chanel 9 Note Off - Duracao: 325920 Nota: C1 Vol.: 53
Chanel 9 Note On - Duracao: 325920 Nota: C1 Vol.: 52
Chanel 8 Note Off - Duracao: 326220 Nota: C1 Vol.: 50
Chanel 8 Note On - Duracao: 326220 Nota: C1 Vol.: 51
Chanel 10 Note Off - Duracao: 326340 Nota: C1 Vol.: 58
Chanel 10 Note On - Duracao: 326340 Nota: C1 Vol.: 63
Chanel 5 Note Off - Duracao: 326400 Nota: C1 Vol.: 55
Chanel 5 Note On - Duracao: 326400 Nota: C1 Vol.: 59
Chanel 3 Note Off - Duracao: 326520 Nota: C1 Vol.: 46
Chanel 3 Note On - Duracao: 326520 Nota: C1 Vol.: 40
Chanel 2 Note Off - Duracao: 326760 Nota: C1 Vol.: 40
Chanel 2 Note On - Duracao: 326760 Nota: C1 Vol.: 65
Chanel 10 Note Off - Duracao: 326820 Nota: C1 Vol.: 63
Chanel 10 Note On - Duracao: 326820 Nota: C1 Vol.: 64
Chanel 5 Note Off - Duracao: 326880 Nota: C1 Vol.: 59
Chanel 5 Note On - Duracao: 326880 Nota: C1 Vol.: 42
Chanel 9 Note Off - Duracao: 326880 Nota: C1 Vol.: 52
Chanel 9 Note On - Duracao: 326880 Nota: C1 Vol.: 47
Chanel 2 Note Off - Duracao: 327000 Nota: C1 Vol.: 65
Chanel 2 Note On - Duracao: 327000 Nota: C1 Vol.: 67
Chanel 8 Note Off - Duracao: 327180 Nota: C1 Vol.: 51
Chanel 8 Note On - Duracao: 327180 Nota: C1 Vol.: 41
Chanel 2 Note Off - Duracao: 327240 Nota: C1 Vol.: 67
Chanel 2 Note On - Duracao: 327240 Nota: C1 Vol.: 64
Chanel 10 Note Off - Duracao: 327300 Nota: C1 Vol.: 64
Chanel 10 Note On - Duracao: 327300 Nota: C1 Vol.: 64
Chanel 2 Note Off - Duracao: 327480 Nota: C1 Vol.: 64
Chanel 2 Note On - Duracao: 327480 Nota: C1 Vol.: 61
Chanel 7 Note Off - Duracao: 327660 Nota: C1 Vol.: 61
Chanel 7 Note On - Duracao: 327660 Nota: C1 Vol.: 63
Chanel 2 Note Off - Duracao: 327720 Nota: C1 Vol.: 61
Chanel 2 Note On - Duracao: 327720 Nota: C1 Vol.: 58
Chanel 10 Note Off - Duracao: 327780 Nota: C1 Vol.: 64
Chanel 10 Note On - Duracao: 327780 Nota: C1 Vol.: 66
Chanel 9 Note Off - Duracao: 327840 Nota: C1 Vol.: 47
Chanel 9 Note On - Duracao: 327840 Nota: C1 Vol.: 48
Chanel 2 Note Off - Duracao: 327960 Nota: C1 Vol.: 58
Chanel 2 Note On - Duracao: 327960 Nota: C1 Vol.: 52
Chanel 10 Note Off - Duracao: 328020 Nota: C1 Vol.: 66
Chanel 10 Note On - Duracao: 328020 Nota: C1 Vol.: 67
Chanel 2 Note Off - Duracao: 328200 Nota: C1 Vol.: 52
Chanel 2 Note On - Duracao: 328200 Nota: C1 Vol.: 52
Chanel 10 Note Off - Duracao: 328260 Nota: C1 Vol.: 67
Chanel 10 Note On - Duracao: 328260 Nota: C1 Vol.: 61
Chanel 2 Note Off - Duracao: 328440 Nota: C1 Vol.: 52
Chanel 2 Note On - Duracao: 328440 Nota: C1 Vol.: 48
Chanel 3 Note Off - Duracao: 328440 Nota: C1 Vol.: 40
Chanel 3 Note On - Duracao: 328440 Nota: C1 Vol.: 51
Chanel 3 Note Off - Duracao: 328680 Nota: C1 Vol.: 51
Chanel 3 Note On - Duracao: 328680 Nota: C1 Vol.: 52
Chanel 10 Note Off - Duracao: 328740 Nota: C1 Vol.: 61
Chanel 10 Note On - Duracao: 328740 Nota: C1 Vol.: 60
Chanel 5 Note Off - Duracao: 328800 Nota: C1 Vol.: 42
Chanel 5 Note On - Duracao: 328800 Nota: C1 Vol.: 73
Chanel 9 Note Off - Duracao: 328800 Nota: C1 Vol.: 48
Chanel 9 Note On - Duracao: 328800 Nota: C1 Vol.: 50
Chanel 2 Note Off - Duracao: 328920 Nota: C1 Vol.: 48
Chanel 2 Note On - Duracao: 328920 Nota: C1 Vol.: 44
Chanel 3 Note Off - Duracao: 328920 Nota: C1 Vol.: 52
Chanel 3 Note On - Duracao: 328920 Nota: C1 Vol.: 56
Chanel 5 Note Off - Duracao: 329040 Nota: C1 Vol.: 73
Chanel 5 Note On - Duracao: 329040 Nota: C1 Vol.: 88
Chanel 4 Note Off - Duracao: 329100 Nota: C1 Vol.: 42
Chanel 4 Note On - Duracao: 329100 Nota: C1 Vol.: 42
Chanel 8 Note Off - Duracao: 329100 Nota: C1 Vol.: 41
Chanel 8 Note On - Duracao: 329100 Nota: C1 Vol.: 69
Chanel 3 Note Off - Duracao: 329160 Nota: C1 Vol.: 56
Chanel 3 Note On - Duracao: 329160 Nota: C1 Vol.: 40
Chanel 5 Note Off - Duracao: 329160 Nota: C1 Vol.: 88
Chanel 5 Note On - Duracao: 329160 Nota: C1 Vol.: 86
Chanel 10 Note Off - Duracao: 329220 Nota: C1 Vol.: 60
Chanel 10 Note On - Duracao: 329220 Nota: C1 Vol.: 60
Chanel 5 Note Off - Duracao: 329280 Nota: C1 Vol.: 86
Chanel 5 Note On - Duracao: 329280 Nota: C1 Vol.: 86
Chanel 8 Note Off - Duracao: 329340 Nota: C1 Vol.: 69
Chanel 8 Note On - Duracao: 329340 Nota: C1 Vol.: 64
Chanel 2 Note Off - Duracao: 329400 Nota: C1 Vol.: 44
Chanel 2 Note On - Duracao: 329400 Nota: C1 Vol.: 40
Chanel 5 Note Off - Duracao: 329400 Nota: C1 Vol.: 86
Chanel 5 Note On - Duracao: 329400 Nota: C1 Vol.: 67
Chanel 6 Note Off - Duracao: 329520 Nota: C1 Vol.: 62
Chanel 6 Note On - Duracao: 329520 Nota: C1 Vol.: 67
Chanel 8 Note Off - Duracao: 329580 Nota: C1 Vol.: 64
Chanel 8 Note On - Duracao: 329580 Nota: C1 Vol.: 63
Chanel 10 Note Off - Duracao: 329700 Nota: C1 Vol.: 60
Chanel 10 Note On - Duracao: 329700 Nota: C1 Vol.: 52
Chanel 9 Note Off - Duracao: 329760 Nota: C1 Vol.: 50
Chanel 9 Note On - Duracao: 329760 Nota: C1 Vol.: 60
Chanel 8 Note Off - Duracao: 329820 Nota: C1 Vol.: 63
Chanel 8 Note On - Duracao: 329820 Nota: C1 Vol.: 50
Chanel 2 Note Off - Duracao: 329880 Nota: C1 Vol.: 40
Chanel 2 Note On - Duracao: 329880 Nota: C1 Vol.: 48
Chanel 5 Note Off - Duracao: 329880 Nota: C1 Vol.: 67
Chanel 5 Note On - Duracao: 329880 Nota: C1 Vol.: 65
Chanel 9 Note Off - Duracao: 330240 Nota: C1 Vol.: 60
Chanel 9 Note On - Duracao: 330240 Nota: C1 Vol.: 73
Chanel 8 Note Off - Duracao: 330300 Nota: C1 Vol.: 50
Chanel 8 Note On - Duracao: 330300 Nota: C1 Vol.: 51
Chanel 2 Note Off - Duracao: 330360 Nota: C1 Vol.: 48
Chanel 2 Note On - Duracao: 330360 Nota: C1 Vol.: 57
Chanel 5 Note Off - Duracao: 330360 Nota: C1 Vol.: 65
Chanel 5 Note On - Duracao: 330360 Nota: C1 Vol.: 66
Chanel 9 Note Off - Duracao: 330480 Nota: C1 Vol.: 73
Chanel 9 Note On - Duracao: 330480 Nota: C1 Vol.: 72
Chanel 2 Note Off - Duracao: 330600 Nota: C1 Vol.: 57
Chanel 2 Note On - Duracao: 330600 Nota: C1 Vol.: 40
Chanel 9 Note Off - Duracao: 330600 Nota: C1 Vol.: 72
Chanel 9 Note On - Duracao: 330600 Nota: C1 Vol.: 71
Chanel 10 Note Off - Duracao: 330660 Nota: C1 Vol.: 52
Chanel 10 Note On - Duracao: 330660 Nota: C1 Vol.: 58
Chanel 9 Note Off - Duracao: 330720 Nota: C1 Vol.: 71
Chanel 9 Note On - Duracao: 330720 Nota: C1 Vol.: 66
Chanel 8 Note Off - Duracao: 330780 Nota: C1 Vol.: 51
Chanel 8 Note On - Duracao: 330780 Nota: C1 Vol.: 57
Chanel 5 Note Off - Duracao: 330840 Nota: C1 Vol.: 66
Chanel 5 Note On - Duracao: 330840 Nota: C1 Vol.: 88
Chanel 5 Note Off - Duracao: 330960 Nota: C1 Vol.: 88
Chanel 5 Note On - Duracao: 330960 Nota: C1 Vol.: 95
Chanel 9 Note Off - Duracao: 330960 Nota: C1 Vol.: 66
Chanel 9 Note On - Duracao: 330960 Nota: C1 Vol.: 64
Chanel 3 Note Off - Duracao: 331080 Nota: C1 Vol.: 40
Chanel 3 Note On - Duracao: 331080 Nota: C1 Vol.: 54
Chanel 5 Note Off - Duracao: 331080 Nota: C1 Vol.: 95
Chanel 5 Note On - Duracao: 331080 Nota: C1 Vol.: 70
Chanel 10 Note Off - Duracao: 331140 Nota: C1 Vol.: 58
Chanel 10 Note On - Duracao: 331140 Nota: C1 Vol.: 54
Chanel 9 Note Off - Duracao: 331200 Nota: C1 Vol.: 64
Chanel 9 Note On - Duracao: 331200 Nota: C1 Vol.: 70
Chanel 8 Note Off - Duracao: 331260 Nota: C1 Vol.: 57
Chanel 8 Note On - Duracao: 331260 Nota: C1 Vol.: 58
Chanel 9 Note Off - Duracao: 331320 Nota: C1 Vol.: 70
Chanel 9 Note On - Duracao: 331320 Nota: C1 Vol.: 52
Chanel 6 Note Off - Duracao: 331440 Nota: C1 Vol.: 67
Chanel 6 Note On - Duracao: 331440 Nota: C1 Vol.: 68
Chanel 7 Note Off - Duracao: 331500 Nota: C1 Vol.: 63
Chanel 7 Note On - Duracao: 331500 Nota: C1 Vol.: 60
Chanel 5 Note Off - Duracao: 331560 Nota: C1 Vol.: 70
Chanel 5 Note On - Duracao: 331560 Nota: C1 Vol.: 47
Chanel 8 Note Off - Duracao: 331740 Nota: C1 Vol.: 58
Chanel 8 Note On - Duracao: 331740 Nota: C1 Vol.: 85
Chanel 9 Note Off - Duracao: 331800 Nota: C1 Vol.: 52
Chanel 9 Note On - Duracao: 331800 Nota: C1 Vol.: 60
Chanel 8 Note Off - Duracao: 331980 Nota: C1 Vol.: 85
Chanel 8 Note On - Duracao: 331980 Nota: C1 Vol.: 79
Chanel 3 Note Off - Duracao: 332040 Nota: C1 Vol.: 54
Chanel 3 Note On - Duracao: 332040 Nota: C1 Vol.: 87
Chanel 10 Note Off - Duracao: 332100 Nota: C1 Vol.: 54
Chanel 10 Note On - Duracao: 332100 Nota: C1 Vol.: 57
Chanel 3 Note Off - Duracao: 332160 Nota: C1 Vol.: 87
Chanel 3 Note On - Duracao: 332160 Nota: C1 Vol.: 85
Chanel 8 Note Off - Duracao: 332220 Nota: C1 Vol.: 79
Chanel 8 Note On - Duracao: 332220 Nota: C1 Vol.: 81
Chanel 3 Note Off - Duracao: 332280 Nota: C1 Vol.: 85
Chanel 3 Note On - Duracao: 332280 Nota: C1 Vol.: 91
Chanel 9 Note Off - Duracao: 332280 Nota: C1 Vol.: 60
Chanel 9 Note On - Duracao: 332280 Nota: C1 Vol.: 58
Chanel 3 Note Off - Duracao: 332400 Nota: C1 Vol.: 91
Chanel 3 Note On - Duracao: 332400 Nota: C1 Vol.: 97
Chanel 3 Note Off - Duracao: 332460 Nota: C1 Vol.: 97
Chanel 3 Note On - Duracao: 332460 Nota: C1 Vol.: 99
Chanel 8 Note Off - Duracao: 332460 Nota: C1 Vol.: 81
Chanel 8 Note On - Duracao: 332460 Nota: C1 Vol.: 76
Chanel 2 Note Off - Duracao: 332520 Nota: C1 Vol.: 40
Chanel 2 Note On - Duracao: 332520 Nota: C1 Vol.: 40
Chanel 3 Note Off - Duracao: 332520 Nota: C1 Vol.: 99
Chanel 3 Note On - Duracao: 332520 Nota: C1 Vol.: 98
Chanel 3 Note Off - Duracao: 332580 Nota: C1 Vol.: 98
Chanel 3 Note On - Duracao: 332580 Nota: C1 Vol.: 93
Chanel 10 Note Off - Duracao: 332580 Nota: C1 Vol.: 57
Chanel 10 Note On - Duracao: 332580 Nota: C1 Vol.: 52
Chanel 3 Note Off - Duracao: 332700 Nota: C1 Vol.: 93
Chanel 3 Note On - Duracao: 332700 Nota: C1 Vol.: 69
Chanel 8 Note Off - Duracao: 332700 Nota: C1 Vol.: 76
Chanel 8 Note On - Duracao: 332700 Nota: C1 Vol.: 77
Chanel 9 Note Off - Duracao: 332760 Nota: C1 Vol.: 58
Chanel 9 Note On - Duracao: 332760 Nota: C1 Vol.: 60
Chanel 4 Note Off - Duracao: 332940 Nota: C1 Vol.: 42
Chanel 4 Note On - Duracao: 332940 Nota: C1 Vol.: 44
Chanel 8 Note Off - Duracao: 332940 Nota: C1 Vol.: 77
Chanel 8 Note On - Duracao: 332940 Nota: C1 Vol.: 88
Chanel 8 Note Off - Duracao: 333060 Nota: C1 Vol.: 88
Chanel 8 Note On - Duracao: 333060 Nota: C1 Vol.: 92
Chanel 3 Note Off - Duracao: 333180 Nota: C1 Vol.: 69
Chanel 3 Note On - Duracao: 333180 Nota: C1 Vol.: 40
Chanel 8 Note Off - Duracao: 333180 Nota: C1 Vol.: 92
Chanel 8 Note On - Duracao: 333180 Nota: C1 Vol.: 97
Chanel 8 Note Off - Duracao: 333240 Nota: C1 Vol.: 97
Chanel 8 Note On - Duracao: 333240 Nota: C1 Vol.: 98
Chanel 9 Note Off - Duracao: 333240 Nota: C1 Vol.: 60
Chanel 9 Note On - Duracao: 333240 Nota: C1 Vol.: 74
Chanel 8 Note Off - Duracao: 333300 Nota: C1 Vol.: 98
Chanel 8 Note On - Duracao: 333300 Nota: C1 Vol.: 97
Chanel 6 Note Off - Duracao: 333360 Nota: C1 Vol.: 68
Chanel 6 Note On - Duracao: 333360 Nota: C1 Vol.: 68
Chanel 8 Note Off - Duracao: 333360 Nota: C1 Vol.: 97
Chanel 8 Note On - Duracao: 333360 Nota: C1 Vol.: 97
Chanel 8 Note Off - Duracao: 333420 Nota: C1 Vol.: 97
Chanel 8 Note On - Duracao: 333420 Nota: C1 Vol.: 96
Chanel 5 Note Off - Duracao: 333480 Nota: C1 Vol.: 47
Chanel 5 Note On - Duracao: 333480 Nota: C1 Vol.: 40
Chanel 8 Note Off - Duracao: 333480 Nota: C1 Vol.: 96
Chanel 8 Note On - Duracao: 333480 Nota: C1 Vol.: 97
Chanel 9 Note Off - Duracao: 333480 Nota: C1 Vol.: 74
Chanel 9 Note On - Duracao: 333480 Nota: C1 Vol.: 63
Chanel 8 Note Off - Duracao: 333540 Nota: C1 Vol.: 97
Chanel 8 Note On - Duracao: 333540 Nota: C1 Vol.: 95
Chanel 10 Note Off - Duracao: 333540 Nota: C1 Vol.: 52
Chanel 10 Note On - Duracao: 333540 Nota: C1 Vol.: 55
Chanel 8 Note Off - Duracao: 333600 Nota: C1 Vol.: 95
Chanel 8 Note On - Duracao: 333600 Nota: C1 Vol.: 89
Chanel 8 Note Off - Duracao: 333660 Nota: C1 Vol.: 89
Chanel 8 Note On - Duracao: 333660 Nota: C1 Vol.: 81
Chanel 8 Note Off - Duracao: 333780 Nota: C1 Vol.: 81
Chanel 8 Note On - Duracao: 333780 Nota: C1 Vol.: 61
Chanel 9 Note Off - Duracao: 333960 Nota: C1 Vol.: 63
Chanel 9 Note On - Duracao: 333960 Nota: C1 Vol.: 47
Chanel 8 Note Off - Duracao: 334260 Nota: C1 Vol.: 61
Chanel 8 Note On - Duracao: 334260 Nota: C1 Vol.: 56
Chanel 2 Note Off - Duracao: 334440 Nota: C1 Vol.: 40
Chanel 2 Note On - Duracao: 334440 Nota: C1 Vol.: 40
Chanel 10 Note Off - Duracao: 334500 Nota: C1 Vol.: 55
Chanel 10 Note On - Duracao: 334500 Nota: C1 Vol.: 58
Chanel 8 Note Off - Duracao: 334740 Nota: C1 Vol.: 56
Chanel 8 Note On - Duracao: 334740 Nota: C1 Vol.: 65
Chanel 4 Note Off - Duracao: 334860 Nota: C1 Vol.: 44
Chanel 4 Note On - Duracao: 334860 Nota: C1 Vol.: 66
Chanel 9 Note Off - Duracao: 334920 Nota: C1 Vol.: 47
Chanel 9 Note On - Duracao: 334920 Nota: C1 Vol.: 54
Chanel 8 Note Off - Duracao: 334980 Nota: C1 Vol.: 65
Chanel 8 Note On - Duracao: 334980 Nota: C1 Vol.: 63
Chanel 3 Note Off - Duracao: 335100 Nota: C1 Vol.: 40
Chanel 3 Note On - Duracao: 335100 Nota: C1 Vol.: 49
Chanel 6 Note Off - Duracao: 335280 Nota: C1 Vol.: 68
Chanel 6 Note On - Duracao: 335280 Nota: C1 Vol.: 63
Chanel 4 Note Off - Duracao: 335340 Nota: C1 Vol.: 66
Chanel 4 Note On - Duracao: 335340 Nota: C1 Vol.: 42
Chanel 7 Note Off - Duracao: 335340 Nota: C1 Vol.: 60
Chanel 7 Note On - Duracao: 335340 Nota: C1 Vol.: 60
Chanel 8 Note Off - Duracao: 335460 Nota: C1 Vol.: 63
Chanel 8 Note On - Duracao: 335460 Nota: C1 Vol.: 87
Chanel 10 Note Off - Duracao: 335460 Nota: C1 Vol.: 58
Chanel 10 Note On - Duracao: 335460 Nota: C1 Vol.: 59
Chanel 8 Note Off - Duracao: 335580 Nota: C1 Vol.: 87
Chanel 8 Note On - Duracao: 335580 Nota: C1 Vol.: 66
Chanel 9 Note Off - Duracao: 335880 Nota: C1 Vol.: 54
Chanel 9 Note On - Duracao: 335880 Nota: C1 Vol.: 58
Chanel 10 Note Off - Duracao: 335940 Nota: C1 Vol.: 59
Chanel 10 Note On - Duracao: 335940 Nota: C1 Vol.: 60
Chanel 3 Note Off - Duracao: 336060 Nota: C1 Vol.: 49
Chanel 3 Note On - Duracao: 336060 Nota: C1 Vol.: 78
Chanel 8 Note Off - Duracao: 336060 Nota: C1 Vol.: 66
Chanel 8 Note On - Duracao: 336060 Nota: C1 Vol.: 75
Chanel 8 Note Off - Duracao: 336180 Nota: C1 Vol.: 75
Chanel 8 Note On - Duracao: 336180 Nota: C1 Vol.: 72
Chanel 8 Note Off - Duracao: 336300 Nota: C1 Vol.: 72
Chanel 8 Note On - Duracao: 336300 Nota: C1 Vol.: 66
Chanel 2 Note Off - Duracao: 336360 Nota: C1 Vol.: 40
Chanel 2 Note On - Duracao: 336360 Nota: C1 Vol.: 40
Chanel 9 Note Off - Duracao: 336360 Nota: C1 Vol.: 58
Chanel 9 Note On - Duracao: 336360 Nota: C1 Vol.: 58
Chanel 8 Note Off - Duracao: 336420 Nota: C1 Vol.: 66
Chanel 8 Note On - Duracao: 336420 Nota: C1 Vol.: 63
Chanel 10 Note Off - Duracao: 336420 Nota: C1 Vol.: 60
Chanel 10 Note On - Duracao: 336420 Nota: C1 Vol.: 62
Chanel 3 Note Off - Duracao: 336540 Nota: C1 Vol.: 78
Chanel 3 Note On - Duracao: 336540 Nota: C1 Vol.: 86
Chanel 8 Note Off - Duracao: 336540 Nota: C1 Vol.: 63
Chanel 8 Note On - Duracao: 336540 Nota: C1 Vol.: 64
Chanel 3 Note Off - Duracao: 336780 Nota: C1 Vol.: 86
Chanel 3 Note On - Duracao: 336780 Nota: C1 Vol.: 75
Chanel 8 Note Off - Duracao: 336780 Nota: C1 Vol.: 64
Chanel 8 Note On - Duracao: 336780 Nota: C1 Vol.: 62
Chanel 9 Note Off - Duracao: 336840 Nota: C1 Vol.: 58
Chanel 9 Note On - Duracao: 336840 Nota: C1 Vol.: 56
Chanel 10 Note Off - Duracao: 336900 Nota: C1 Vol.: 62
Chanel 10 Note On - Duracao: 336900 Nota: C1 Vol.: 71
Chanel 10 Note Off - Duracao: 337140 Nota: C1 Vol.: 71
Chanel 10 Note On - Duracao: 337140 Nota: C1 Vol.: 63
Chanel 6 Note Off - Duracao: 337200 Nota: C1 Vol.: 63
Chanel 6 Note On - Duracao: 337200 Nota: C1 Vol.: 61
Chanel 3 Note Off - Duracao: 337260 Nota: C1 Vol.: 75
Chanel 3 Note On - Duracao: 337260 Nota: C1 Vol.: 90
Chanel 4 Note Off - Duracao: 337260 Nota: C1 Vol.: 42
Chanel 4 Note On - Duracao: 337260 Nota: C1 Vol.: 40
Chanel 8 Note Off - Duracao: 337260 Nota: C1 Vol.: 62
Chanel 8 Note On - Duracao: 337260 Nota: C1 Vol.: 62
Chanel 5 Note Off - Duracao: 337320 Nota: C1 Vol.: 40
Chanel 5 Note On - Duracao: 337320 Nota: C1 Vol.: 60
Chanel 9 Note Off - Duracao: 337320 Nota: C1 Vol.: 56
Chanel 9 Note On - Duracao: 337320 Nota: C1 Vol.: 56
Chanel 3 Note Off - Duracao: 337380 Nota: C1 Vol.: 90
Chanel 3 Note On - Duracao: 337380 Nota: C1 Vol.: 100
Chanel 3 Note Off - Duracao: 337440 Nota: C1 Vol.: 100
Chanel 3 Note On - Duracao: 337440 Nota: C1 Vol.: 100
Chanel 3 Note Off - Duracao: 337500 Nota: C1 Vol.: 100
Chanel 3 Note On - Duracao: 337500 Nota: C1 Vol.: 100
Chanel 3 Note Off - Duracao: 337560 Nota: C1 Vol.: 100
Chanel 3 Note On - Duracao: 337560 Nota: C1 Vol.: 99
Chanel 3 Note Off - Duracao: 337620 Nota: C1 Vol.: 99
Chanel 3 Note On - Duracao: 337620 Nota: C1 Vol.: 100
Chanel 10 Note Off - Duracao: 337620 Nota: C1 Vol.: 63
Chanel 10 Note On - Duracao: 337620 Nota: C1 Vol.: 72
Chanel 3 Note Off - Duracao: 337680 Nota: C1 Vol.: 100
Chanel 3 Note On - Duracao: 337680 Nota: C1 Vol.: 91
Chanel 8 Note Off - Duracao: 337740 Nota: C1 Vol.: 62
Chanel 8 Note On - Duracao: 337740 Nota: C1 Vol.: 71
Chanel 3 Note Off - Duracao: 337800 Nota: C1 Vol.: 91
Chanel 3 Note On - Duracao: 337800 Nota: C1 Vol.: 71
Chanel 5 Note Off - Duracao: 337800 Nota: C1 Vol.: 60
Chanel 5 Note On - Duracao: 337800 Nota: C1 Vol.: 57
Chanel 9 Note Off - Duracao: 337800 Nota: C1 Vol.: 56
Chanel 9 Note On - Duracao: 337800 Nota: C1 Vol.: 58
Chanel 10 Note Off - Duracao: 338100 Nota: C1 Vol.: 72
Chanel 10 Note On - Duracao: 338100 Nota: C1 Vol.: 81
Chanel 8 Note Off - Duracao: 338220 Nota: C1 Vol.: 71
Chanel 8 Note On - Duracao: 338220 Nota: C1 Vol.: 74
Chanel 3 Note Off - Duracao: 338280 Nota: C1 Vol.: 71
Chanel 3 Note On - Duracao: 338280 Nota: C1 Vol.: 75
Chanel 5 Note Off - Duracao: 338280 Nota: C1 Vol.: 57
Chanel 5 Note On - Duracao: 338280 Nota: C1 Vol.: 58
Chanel 9 Note Off - Duracao: 338280 Nota: C1 Vol.: 58
Chanel 9 Note On - Duracao: 338280 Nota: C1 Vol.: 54
Chanel 10 Note Off - Duracao: 338340 Nota: C1 Vol.: 81
Chanel 10 Note On - Duracao: 338340 Nota: C1 Vol.: 76
Chanel 3 Note Off - Duracao: 338520 Nota: C1 Vol.: 75
Chanel 3 Note On - Duracao: 338520 Nota: C1 Vol.: 81
Chanel 5 Note Off - Duracao: 338520 Nota: C1 Vol.: 58
Chanel 5 Note On - Duracao: 338520 Nota: C1 Vol.: 60
Chanel 8 Note Off - Duracao: 338700 Nota: C1 Vol.: 74
Chanel 8 Note On - Duracao: 338700 Nota: C1 Vol.: 74
Chanel 3 Note Off - Duracao: 338760 Nota: C1 Vol.: 81
Chanel 3 Note On - Duracao: 338760 Nota: C1 Vol.: 73
Chanel 5 Note Off - Duracao: 338760 Nota: C1 Vol.: 60
Chanel 5 Note On - Duracao: 338760 Nota: C1 Vol.: 59
Chanel 9 Note Off - Duracao: 338760 Nota: C1 Vol.: 54
Chanel 9 Note On - Duracao: 338760 Nota: C1 Vol.: 60
Chanel 10 Note Off - Duracao: 338820 Nota: C1 Vol.: 76
Chanel 10 Note On - Duracao: 338820 Nota: C1 Vol.: 77
Chanel 3 Note Off - Duracao: 339000 Nota: C1 Vol.: 73
Chanel 3 Note On - Duracao: 339000 Nota: C1 Vol.: 76
Chanel 5 Note Off - Duracao: 339000 Nota: C1 Vol.: 59
Chanel 5 Note On - Duracao: 339000 Nota: C1 Vol.: 66
Chanel 9 Note Off - Duracao: 339000 Nota: C1 Vol.: 60
Chanel 9 Note On - Duracao: 339000 Nota: C1 Vol.: 58
Chanel 6 Note Off - Duracao: 339120 Nota: C1 Vol.: 61
Chanel 6 Note On - Duracao: 339120 Nota: C1 Vol.: 57
Chanel 7 Note Off - Duracao: 339180 Nota: C1 Vol.: 60
Chanel 7 Note On - Duracao: 339180 Nota: C1 Vol.: 62
Chanel 8 Note Off - Duracao: 339180 Nota: C1 Vol.: 74
Chanel 8 Note On - Duracao: 339180 Nota: C1 Vol.: 53
Chanel 3 Note Off - Duracao: 339240 Nota: C1 Vol.: 76
Chanel 3 Note On - Duracao: 339240 Nota: C1 Vol.: 72
Chanel 5 Note Off - Duracao: 339240 Nota: C1 Vol.: 66
Chanel 5 Note On - Duracao: 339240 Nota: C1 Vol.: 66
Chanel 9 Note Off - Duracao: 339240 Nota: C1 Vol.: 58
Chanel 9 Note On - Duracao: 339240 Nota: C1 Vol.: 66
Chanel 10 Note Off - Duracao: 339300 Nota: C1 Vol.: 77
Chanel 10 Note On - Duracao: 339300 Nota: C1 Vol.: 84
Chanel 9 Note Off - Duracao: 339360 Nota: C1 Vol.: 66
Chanel 9 Note On - Duracao: 339360 Nota: C1 Vol.: 56
Chanel 3 Note Off - Duracao: 339480 Nota: C1 Vol.: 72
Chanel 3 Note On - Duracao: 339480 Nota: C1 Vol.: 77
Chanel 5 Note Off - Duracao: 339480 Nota: C1 Vol.: 66
Chanel 5 Note On - Duracao: 339480 Nota: C1 Vol.: 42
Chanel 10 Note Off - Duracao: 339540 Nota: C1 Vol.: 84
Chanel 10 Note On - Duracao: 339540 Nota: C1 Vol.: 85
Chanel 9 Note Off - Duracao: 339600 Nota: C1 Vol.: 56
Chanel 9 Note On - Duracao: 339600 Nota: C1 Vol.: 65
Chanel 3 Note Off - Duracao: 339720 Nota: C1 Vol.: 77
Chanel 3 Note On - Duracao: 339720 Nota: C1 Vol.: 72
Chanel 9 Note Off - Duracao: 339720 Nota: C1 Vol.: 65
Chanel 9 Note On - Duracao: 339720 Nota: C1 Vol.: 68
Chanel 10 Note Off - Duracao: 339780 Nota: C1 Vol.: 85
Chanel 10 Note On - Duracao: 339780 Nota: C1 Vol.: 84
Chanel 9 Note Off - Duracao: 339840 Nota: C1 Vol.: 68
Chanel 9 Note On - Duracao: 339840 Nota: C1 Vol.: 67
Chanel 3 Note Off - Duracao: 339960 Nota: C1 Vol.: 72
Chanel 3 Note On - Duracao: 339960 Nota: C1 Vol.: 71
Chanel 9 Note Off - Duracao: 339960 Nota: C1 Vol.: 67
Chanel 9 Note On - Duracao: 339960 Nota: C1 Vol.: 53
Chanel 10 Note Off - Duracao: 340020 Nota: C1 Vol.: 84
Chanel 10 Note On - Duracao: 340020 Nota: C1 Vol.: 85
Chanel 8 Note Off - Duracao: 340140 Nota: C1 Vol.: 53
Chanel 8 Note On - Duracao: 340140 Nota: C1 Vol.: 75
Chanel 2 Note Off - Duracao: 340200 Nota: C1 Vol.: 40
Chanel 2 Note On - Duracao: 340200 Nota: C1 Vol.: 40
Chanel 3 Note Off - Duracao: 340200 Nota: C1 Vol.: 71
Chanel 3 Note On - Duracao: 340200 Nota: C1 Vol.: 60
Chanel 9 Note Off - Duracao: 340200 Nota: C1 Vol.: 53
Chanel 9 Note On - Duracao: 340200 Nota: C1 Vol.: 48
Chanel 8 Note Off - Duracao: 340260 Nota: C1 Vol.: 75
Chanel 8 Note On - Duracao: 340260 Nota: C1 Vol.: 80
Chanel 10 Note Off - Duracao: 340260 Nota: C1 Vol.: 85
Chanel 10 Note On - Duracao: 340260 Nota: C1 Vol.: 84
Chanel 8 Note Off - Duracao: 340380 Nota: C1 Vol.: 80
Chanel 8 Note On - Duracao: 340380 Nota: C1 Vol.: 72
Chanel 5 Note Off - Duracao: 340440 Nota: C1 Vol.: 42
Chanel 5 Note On - Duracao: 340440 Nota: C1 Vol.: 59
Chanel 9 Note Off - Duracao: 340440 Nota: C1 Vol.: 48
Chanel 9 Note On - Duracao: 340440 Nota: C1 Vol.: 55
Chanel 8 Note Off - Duracao: 340500 Nota: C1 Vol.: 72
Chanel 8 Note On - Duracao: 340500 Nota: C1 Vol.: 55
Chanel 10 Note Off - Duracao: 340500 Nota: C1 Vol.: 84
Chanel 10 Note On - Duracao: 340500 Nota: C1 Vol.: 85
Chanel 9 Note Off - Duracao: 340560 Nota: C1 Vol.: 55
Chanel 9 Note On - Duracao: 340560 Nota: C1 Vol.: 46
Chanel 3 Note Off - Duracao: 340680 Nota: C1 Vol.: 60
Chanel 3 Note On - Duracao: 340680 Nota: C1 Vol.: 65
Chanel 10 Note Off - Duracao: 340740 Nota: C1 Vol.: 85
Chanel 10 Note On - Duracao: 340740 Nota: C1 Vol.: 79
Chanel 9 Note Off - Duracao: 340800 Nota: C1 Vol.: 46
Chanel 9 Note On - Duracao: 340800 Nota: C1 Vol.: 53
Chanel 3 Note Off - Duracao: 340920 Nota: C1 Vol.: 65
Chanel 3 Note On - Duracao: 340920 Nota: C1 Vol.: 59
Chanel 5 Note Off - Duracao: 340920 Nota: C1 Vol.: 59
Chanel 5 Note On - Duracao: 340920 Nota: C1 Vol.: 64
Chanel 9 Note Off - Duracao: 340920 Nota: C1 Vol.: 53
Chanel 9 Note On - Duracao: 340920 Nota: C1 Vol.: 52
Chanel 8 Note Off - Duracao: 340980 Nota: C1 Vol.: 55
Chanel 8 Note On - Duracao: 340980 Nota: C1 Vol.: 55
Chanel 10 Note Off - Duracao: 340980 Nota: C1 Vol.: 79
Chanel 10 Note On - Duracao: 340980 Nota: C1 Vol.: 77
Chanel 6 Note Off - Duracao: 341040 Nota: C1 Vol.: 57
Chanel 6 Note On - Duracao: 341040 Nota: C1 Vol.: 51
Chanel 4 Note Off - Duracao: 341100 Nota: C1 Vol.: 40
Chanel 4 Note On - Duracao: 341100 Nota: C1 Vol.: 60
Chanel 5 Note Off - Duracao: 341160 Nota: C1 Vol.: 64
Chanel 5 Note On - Duracao: 341160 Nota: C1 Vol.: 71
Chanel 9 Note Off - Duracao: 341160 Nota: C1 Vol.: 52
Chanel 9 Note On - Duracao: 341160 Nota: C1 Vol.: 57
Chanel 8 Note Off - Duracao: 341220 Nota: C1 Vol.: 55
Chanel 8 Note On - Duracao: 341220 Nota: C1 Vol.: 53
Chanel 10 Note Off - Duracao: 341220 Nota: C1 Vol.: 77
Chanel 10 Note On - Duracao: 341220 Nota: C1 Vol.: 73
Chanel 5 Note Off - Duracao: 341280 Nota: C1 Vol.: 71
Chanel 5 Note On - Duracao: 341280 Nota: C1 Vol.: 70
Chanel 9 Note Off - Duracao: 341280 Nota: C1 Vol.: 57
Chanel 9 Note On - Duracao: 341280 Nota: C1 Vol.: 47
Chanel 3 Note Off - Duracao: 341400 Nota: C1 Vol.: 59
Chanel 3 Note On - Duracao: 341400 Nota: C1 Vol.: 68
Chanel 8 Note Off - Duracao: 341460 Nota: C1 Vol.: 53
Chanel 8 Note On - Duracao: 341460 Nota: C1 Vol.: 52
Chanel 5 Note Off - Duracao: 341520 Nota: C1 Vol.: 70
Chanel 5 Note On - Duracao: 341520 Nota: C1 Vol.: 70
Chanel 9 Note Off - Duracao: 341520 Nota: C1 Vol.: 47
Chanel 9 Note On - Duracao: 341520 Nota: C1 Vol.: 40
Chanel 3 Note Off - Duracao: 341640 Nota: C1 Vol.: 68
Chanel 3 Note On - Duracao: 341640 Nota: C1 Vol.: 71
Chanel 10 Note Off - Duracao: 341700 Nota: C1 Vol.: 73
Chanel 10 Note On - Duracao: 341700 Nota: C1 Vol.: 74
Chanel 5 Note Off - Duracao: 341760 Nota: C1 Vol.: 70
Chanel 5 Note On - Duracao: 341760 Nota: C1 Vol.: 69
Chanel 3 Note Off - Duracao: 341880 Nota: C1 Vol.: 71
Chanel 3 Note On - Duracao: 341880 Nota: C1 Vol.: 82
Chanel 8 Note Off - Duracao: 341940 Nota: C1 Vol.: 52
Chanel 8 Note On - Duracao: 341940 Nota: C1 Vol.: 51
Chanel 3 Note Off - Duracao: 342000 Nota: C1 Vol.: 82
Chanel 3 Note On - Duracao: 342000 Nota: C1 Vol.: 48
Chanel 5 Note Off - Duracao: 342000 Nota: C1 Vol.: 69
Chanel 5 Note On - Duracao: 342000 Nota: C1 Vol.: 71
Chanel 9 Note Off - Duracao: 342000 Nota: C1 Vol.: 40
Chanel 9 Note On - Duracao: 342000 Nota: C1 Vol.: 49
Chanel 4 Note Off - Duracao: 342060 Nota: C1 Vol.: 60
Chanel 4 Note On - Duracao: 342060 Nota: C1 Vol.: 40
Chanel 5 Note Off - Duracao: 342120 Nota: C1 Vol.: 71
Chanel 5 Note On - Duracao: 342120 Nota: C1 Vol.: 70
Chanel 10 Note Off - Duracao: 342180 Nota: C1 Vol.: 74
Chanel 10 Note On - Duracao: 342180 Nota: C1 Vol.: 72
Chanel 5 Note Off - Duracao: 342240 Nota: C1 Vol.: 70
Chanel 5 Note On - Duracao: 342240 Nota: C1 Vol.: 68
Chanel 9 Note Off - Duracao: 342240 Nota: C1 Vol.: 49
Chanel 9 Note On - Duracao: 342240 Nota: C1 Vol.: 52
Chanel 9 Note Off - Duracao: 342360 Nota: C1 Vol.: 52
Chanel 9 Note On - Duracao: 342360 Nota: C1 Vol.: 53
Chanel 8 Note Off - Duracao: 342420 Nota: C1 Vol.: 51
Chanel 8 Note On - Duracao: 342420 Nota: C1 Vol.: 58
Chanel 5 Note Off - Duracao: 342480 Nota: C1 Vol.: 68
Chanel 5 Note On - Duracao: 342480 Nota: C1 Vol.: 70
Chanel 9 Note Off - Duracao: 342480 Nota: C1 Vol.: 53
Chanel 9 Note On - Duracao: 342480 Nota: C1 Vol.: 52
Chanel 9 Note Off - Duracao: 342600 Nota: C1 Vol.: 52
Chanel 9 Note On - Duracao: 342600 Nota: C1 Vol.: 50
Chanel 8 Note Off - Duracao: 342660 Nota: C1 Vol.: 58
Chanel 8 Note On - Duracao: 342660 Nota: C1 Vol.: 67
Chanel 10 Note Off - Duracao: 342660 Nota: C1 Vol.: 72
Chanel 10 Note On - Duracao: 342660 Nota: C1 Vol.: 69
Chanel 5 Note Off - Duracao: 342720 Nota: C1 Vol.: 70
Chanel 5 Note On - Duracao: 342720 Nota: C1 Vol.: 72
Chanel 9 Note Off - Duracao: 342720 Nota: C1 Vol.: 50
Chanel 9 Note On - Duracao: 342720 Nota: C1 Vol.: 51
Chanel 8 Note Off - Duracao: 342780 Nota: C1 Vol.: 67
Chanel 8 Note On - Duracao: 342780 Nota: C1 Vol.: 75
Chanel 5 Note Off - Duracao: 342840 Nota: C1 Vol.: 72
Chanel 5 Note On - Duracao: 342840 Nota: C1 Vol.: 73
Chanel 9 Note Off - Duracao: 342840 Nota: C1 Vol.: 51
Chanel 9 Note On - Duracao: 342840 Nota: C1 Vol.: 52
Chanel 8 Note Off - Duracao: 342900 Nota: C1 Vol.: 75
Chanel 8 Note On - Duracao: 342900 Nota: C1 Vol.: 80
Chanel 6 Note Off - Duracao: 342960 Nota: C1 Vol.: 51
Chanel 6 Note On - Duracao: 342960 Nota: C1 Vol.: 45
Chanel 9 Note Off - Duracao: 342960 Nota: C1 Vol.: 52
Chanel 9 Note On - Duracao: 342960 Nota: C1 Vol.: 47
Chanel 7 Note Off - Duracao: 343020 Nota: C1 Vol.: 62
Chanel 7 Note On - Duracao: 343020 Nota: C1 Vol.: 64
Chanel 5 Note Off - Duracao: 343080 Nota: C1 Vol.: 73
Chanel 5 Note On - Duracao: 343080 Nota: C1 Vol.: 40
Chanel 8 Note Off - Duracao: 343140 Nota: C1 Vol.: 80
Chanel 8 Note On - Duracao: 343140 Nota: C1 Vol.: 83
Chanel 10 Note Off - Duracao: 343140 Nota: C1 Vol.: 69
Chanel 10 Note On - Duracao: 343140 Nota: C1 Vol.: 67
Chanel 9 Note Off - Duracao: 343200 Nota: C1 Vol.: 47
Chanel 9 Note On - Duracao: 343200 Nota: C1 Vol.: 49
Chanel 8 Note Off - Duracao: 343380 Nota: C1 Vol.: 83
Chanel 8 Note On - Duracao: 343380 Nota: C1 Vol.: 85
Chanel 9 Note Off - Duracao: 343440 Nota: C1 Vol.: 49
Chanel 9 Note On - Duracao: 343440 Nota: C1 Vol.: 58
Chanel 8 Note Off - Duracao: 343500 Nota: C1 Vol.: 85
Chanel 8 Note On - Duracao: 343500 Nota: C1 Vol.: 78
Chanel 9 Note Off - Duracao: 343560 Nota: C1 Vol.: 58
Chanel 9 Note On - Duracao: 343560 Nota: C1 Vol.: 50
Chanel 10 Note Off - Duracao: 343620 Nota: C1 Vol.: 67
Chanel 10 Note On - Duracao: 343620 Nota: C1 Vol.: 70
Chanel 8 Note Off - Duracao: 343740 Nota: C1 Vol.: 78
Chanel 8 Note On - Duracao: 343740 Nota: C1 Vol.: 73
Chanel 9 Note Off - Duracao: 343800 Nota: C1 Vol.: 50
Chanel 9 Note On - Duracao: 343800 Nota: C1 Vol.: 40
Chanel 3 Note Off - Duracao: 343920 Nota: C1 Vol.: 48
Chanel 3 Note On - Duracao: 343920 Nota: C1 Vol.: 46
Chanel 2 Note Off - Duracao: 344040 Nota: C1 Vol.: 40
Chanel 2 Note On - Duracao: 344040 Nota: C1 Vol.: 41
Chanel 10 Note Off - Duracao: 344100 Nota: C1 Vol.: 70
Chanel 10 Note On - Duracao: 344100 Nota: C1 Vol.: 63
Chanel 8 Note Off - Duracao: 344220 Nota: C1 Vol.: 73
Chanel 8 Note On - Duracao: 344220 Nota: C1 Vol.: 71
Chanel 8 Note Off - Duracao: 344460 Nota: C1 Vol.: 71
Chanel 8 Note On - Duracao: 344460 Nota: C1 Vol.: 64
Chanel 8 Note Off - Duracao: 344700 Nota: C1 Vol.: 64
Chanel 8 Note On - Duracao: 344700 Nota: C1 Vol.: 55
Chanel 9 Note Off - Duracao: 344760 Nota: C1 Vol.: 40
Chanel 9 Note On - Duracao: 344760 Nota: C1 Vol.: 48
Chanel 6 Note Off - Duracao: 344880 Nota: C1 Vol.: 45
Chanel 6 Note On - Duracao: 344880 Nota: C1 Vol.: 43
Chanel 8 Note Off - Duracao: 344940 Nota: C1 Vol.: 55
Chanel 8 Note On - Duracao: 344940 Nota: C1 Vol.: 56
Chanel 5 Note Off - Duracao: 345000 Nota: C1 Vol.: 40
Chanel 5 Note On - Duracao: 345000 Nota: C1 Vol.: 40
Chanel 10 Note Off - Duracao: 345060 Nota: C1 Vol.: 63
Chanel 10 Note On - Duracao: 345060 Nota: C1 Vol.: 61
Chanel 9 Note Off - Duracao: 345240 Nota: C1 Vol.: 48
Chanel 9 Note On - Duracao: 345240 Nota: C1 Vol.: 52
Chanel 8 Note Off - Duracao: 345420 Nota: C1 Vol.: 56
Chanel 8 Note On - Duracao: 345420 Nota: C1 Vol.: 40
Chanel 9 Note Off - Duracao: 345720 Nota: C1 Vol.: 52
Chanel 9 Note On - Duracao: 345720 Nota: C1 Vol.: 65
Chanel 3 Note Off - Duracao: 345840 Nota: C1 Vol.: 46
Chanel 3 Note On - Duracao: 345840 Nota: C1 Vol.: 43
Chanel 4 Note Off - Duracao: 345900 Nota: C1 Vol.: 40
Chanel 4 Note On - Duracao: 345900 Nota: C1 Vol.: 74
Chanel 2 Note Off - Duracao: 345960 Nota: C1 Vol.: 41
Chanel 2 Note On - Duracao: 345960 Nota: C1 Vol.: 40
Chanel 9 Note Off - Duracao: 345960 Nota: C1 Vol.: 65
Chanel 9 Note On - Duracao: 345960 Nota: C1 Vol.: 59
Chanel 10 Note Off - Duracao: 346020 Nota: C1 Vol.: 61
Chanel 10 Note On - Duracao: 346020 Nota: C1 Vol.: 63
Chanel 4 Note Off - Duracao: 346140 Nota: C1 Vol.: 74
Chanel 4 Note On - Duracao: 346140 Nota: C1 Vol.: 61
Chanel 9 Note Off - Duracao: 346200 Nota: C1 Vol.: 59
Chanel 9 Note On - Duracao: 346200 Nota: C1 Vol.: 55
Chanel 9 Note Off - Duracao: 346440 Nota: C1 Vol.: 55
Chanel 9 Note On - Duracao: 346440 Nota: C1 Vol.: 57
Chanel 10 Note Off - Duracao: 346500 Nota: C1 Vol.: 63
Chanel 10 Note On - Duracao: 346500 Nota: C1 Vol.: 62
Chanel 4 Note Off - Duracao: 346620 Nota: C1 Vol.: 61
Chanel 4 Note On - Duracao: 346620 Nota: C1 Vol.: 42
Chanel 9 Note Off - Duracao: 346680 Nota: C1 Vol.: 57
Chanel 9 Note On - Duracao: 346680 Nota: C1 Vol.: 64
Chanel 6 Note Off - Duracao: 346800 Nota: C1 Vol.: 43
Chanel 6 Note On - Duracao: 346800 Nota: C1 Vol.: 50
Chanel 9 Note Off - Duracao: 346800 Nota: C1 Vol.: 64
Chanel 9 Note On - Duracao: 346800 Nota: C1 Vol.: 62
Chanel 7 Note Off - Duracao: 346860 Nota: C1 Vol.: 64
Chanel 7 Note On - Duracao: 346860 Nota: C1 Vol.: 63
Chanel 9 Note Off - Duracao: 346920 Nota: C1 Vol.: 62
Chanel 9 Note On - Duracao: 346920 Nota: C1 Vol.: 62
Chanel 10 Note Off - Duracao: 346980 Nota: C1 Vol.: 62
Chanel 10 Note On - Duracao: 346980 Nota: C1 Vol.: 64
Chanel 9 Note Off - Duracao: 347040 Nota: C1 Vol.: 62
Chanel 9 Note On - Duracao: 347040 Nota: C1 Vol.: 61
Chanel 9 Note Off - Duracao: 347280 Nota: C1 Vol.: 61
Chanel 9 Note On - Duracao: 347280 Nota: C1 Vol.: 52
Chanel 8 Note Off - Duracao: 347340 Nota: C1 Vol.: 40
Chanel 8 Note On - Duracao: 347340 Nota: C1 Vol.: 46
Chanel 10 Note Off - Duracao: 347460 Nota: C1 Vol.: 64
Chanel 10 Note On - Duracao: 347460 Nota: C1 Vol.: 60
Chanel 9 Note Off - Duracao: 347520 Nota: C1 Vol.: 52
Chanel 9 Note On - Duracao: 347520 Nota: C1 Vol.: 49
Chanel 3 Note Off - Duracao: 347760 Nota: C1 Vol.: 43
Chanel 3 Note On - Duracao: 347760 Nota: C1 Vol.: 47
Chanel 6 Note Off - Duracao: 347760 Nota: C1 Vol.: 50
Chanel 6 Note On - Duracao: 347760 Nota: C1 Vol.: 57
Chanel 10 Note Off - Duracao: 347940 Nota: C1 Vol.: 60
Chanel 10 Note On - Duracao: 347940 Nota: C1 Vol.: 52
Chanel 9 Note Off - Duracao: 348000 Nota: C1 Vol.: 49
Chanel 9 Note On - Duracao: 348000 Nota: C1 Vol.: 56
Chanel 6 Note Off - Duracao: 348240 Nota: C1 Vol.: 57
Chanel 6 Note On - Duracao: 348240 Nota: C1 Vol.: 64
Chanel 9 Note Off - Duracao: 348240 Nota: C1 Vol.: 56
Chanel 9 Note On - Duracao: 348240 Nota: C1 Vol.: 60
Chanel 9 Note Off - Duracao: 348360 Nota: C1 Vol.: 60
Chanel 9 Note On - Duracao: 348360 Nota: C1 Vol.: 63
Chanel 6 Note Off - Duracao: 348480 Nota: C1 Vol.: 64
Chanel 6 Note On - Duracao: 348480 Nota: C1 Vol.: 63
Chanel 9 Note Off - Duracao: 348480 Nota: C1 Vol.: 63
Chanel 9 Note On - Duracao: 348480 Nota: C1 Vol.: 65
Chanel 4 Note Off - Duracao: 348540 Nota: C1 Vol.: 42
Chanel 4 Note On - Duracao: 348540 Nota: C1 Vol.: 43
Chanel 9 Note Off - Duracao: 348600 Nota: C1 Vol.: 65
Chanel 9 Note On - Duracao: 348600 Nota: C1 Vol.: 64
Chanel 6 Note Off - Duracao: 348720 Nota: C1 Vol.: 63
Chanel 6 Note On - Duracao: 348720 Nota: C1 Vol.: 63
Chanel 9 Note Off - Duracao: 348720 Nota: C1 Vol.: 64
Chanel 9 Note On - Duracao: 348720 Nota: C1 Vol.: 55
Chanel 5 Note Off - Duracao: 348840 Nota: C1 Vol.: 40
Chanel 5 Note On - Duracao: 348840 Nota: C1 Vol.: 45
Chanel 10 Note Off - Duracao: 348900 Nota: C1 Vol.: 52
Chanel 10 Note On - Duracao: 348900 Nota: C1 Vol.: 56
Chanel 6 Note Off - Duracao: 348960 Nota: C1 Vol.: 63
Chanel 6 Note On - Duracao: 348960 Nota: C1 Vol.: 64
Chanel 9 Note Off - Duracao: 348960 Nota: C1 Vol.: 55
Chanel 9 Note On - Duracao: 348960 Nota: C1 Vol.: 56
Chanel 6 Note Off - Duracao: 349200 Nota: C1 Vol.: 64
Chanel 6 Note On - Duracao: 349200 Nota: C1 Vol.: 65
Chanel 9 Note Off - Duracao: 349200 Nota: C1 Vol.: 56
Chanel 9 Note On - Duracao: 349200 Nota: C1 Vol.: 58
Chanel 8 Note Off - Duracao: 349260 Nota: C1 Vol.: 46
Chanel 8 Note On - Duracao: 349260 Nota: C1 Vol.: 44
Chanel 10 Note Off - Duracao: 349380 Nota: C1 Vol.: 56
Chanel 10 Note On - Duracao: 349380 Nota: C1 Vol.: 55
Chanel 6 Note Off - Duracao: 349440 Nota: C1 Vol.: 65
Chanel 6 Note On - Duracao: 349440 Nota: C1 Vol.: 65
Chanel 9 Note Off - Duracao: 349440 Nota: C1 Vol.: 58
Chanel 9 Note On - Duracao: 349440 Nota: C1 Vol.: 64
Chanel 3 Note Off - Duracao: 349680 Nota: C1 Vol.: 47
Chanel 3 Note On - Duracao: 349680 Nota: C1 Vol.: 58
Chanel 9 Note Off - Duracao: 349680 Nota: C1 Vol.: 64
Chanel 9 Note On - Duracao: 349680 Nota: C1 Vol.: 66
Chanel 2 Note Off - Duracao: 349800 Nota: C1 Vol.: 40
Chanel 2 Note On - Duracao: 349800 Nota: C1 Vol.: 40
Chanel 9 Note Off - Duracao: 349800 Nota: C1 Vol.: 66
Chanel 9 Note On - Duracao: 349800 Nota: C1 Vol.: 67
Chanel 10 Note Off - Duracao: 349860 Nota: C1 Vol.: 55
Chanel 10 Note On - Duracao: 349860 Nota: C1 Vol.: 60
Chanel 6 Note Off - Duracao: 349920 Nota: C1 Vol.: 65
Chanel 6 Note On - Duracao: 349920 Nota: C1 Vol.: 48
Chanel 9 Note Off - Duracao: 349920 Nota: C1 Vol.: 67
Chanel 9 Note On - Duracao: 349920 Nota: C1 Vol.: 66
Chanel 9 Note Off - Duracao: 350040 Nota: C1 Vol.: 66
Chanel 9 Note On - Duracao: 350040 Nota: C1 Vol.: 64
Chanel 3 Note Off - Duracao: 350160 Nota: C1 Vol.: 58
Chanel 3 Note On - Duracao: 350160 Nota: C1 Vol.: 60
Chanel 9 Note Off - Duracao: 350160 Nota: C1 Vol.: 64
Chanel 9 Note On - Duracao: 350160 Nota: C1 Vol.: 65
Chanel 9 Note Off - Duracao: 350280 Nota: C1 Vol.: 65
Chanel 9 Note On - Duracao: 350280 Nota: C1 Vol.: 63
Chanel 10 Note Off - Duracao: 350340 Nota: C1 Vol.: 60
Chanel 10 Note On - Duracao: 350340 Nota: C1 Vol.: 55
Chanel 9 Note Off - Duracao: 350400 Nota: C1 Vol.: 63
Chanel 9 Note On - Duracao: 350400 Nota: C1 Vol.: 61
Chanel 4 Note Off - Duracao: 350460 Nota: C1 Vol.: 43
Chanel 4 Note On - Duracao: 350460 Nota: C1 Vol.: 44
Chanel 3 Note Off - Duracao: 350640 Nota: C1 Vol.: 60
Chanel 3 Note On - Duracao: 350640 Nota: C1 Vol.: 63
Chanel 9 Note Off - Duracao: 350640 Nota: C1 Vol.: 61
Chanel 9 Note On - Duracao: 350640 Nota: C1 Vol.: 62
Chanel 7 Note Off - Duracao: 350700 Nota: C1 Vol.: 63
Chanel 7 Note On - Duracao: 350700 Nota: C1 Vol.: 64
Chanel 5 Note Off - Duracao: 350760 Nota: C1 Vol.: 45
Chanel 5 Note On - Duracao: 350760 Nota: C1 Vol.: 48
Chanel 10 Note Off - Duracao: 350820 Nota: C1 Vol.: 55
Chanel 10 Note On - Duracao: 350820 Nota: C1 Vol.: 56
Chanel 9 Note Off - Duracao: 350880 Nota: C1 Vol.: 62
Chanel 9 Note On - Duracao: 350880 Nota: C1 Vol.: 54
Chanel 3 Note Off - Duracao: 351120 Nota: C1 Vol.: 63
Chanel 3 Note On - Duracao: 351120 Nota: C1 Vol.: 75
Chanel 8 Note Off - Duracao: 351180 Nota: C1 Vol.: 44
Chanel 8 Note On - Duracao: 351180 Nota: C1 Vol.: 42
Chanel 10 Note Off - Duracao: 351300 Nota: C1 Vol.: 56
Chanel 10 Note On - Duracao: 351300 Nota: C1 Vol.: 49
Chanel 3 Note Off - Duracao: 351360 Nota: C1 Vol.: 75
Chanel 3 Note On - Duracao: 351360 Nota: C1 Vol.: 78
Chanel 9 Note Off - Duracao: 351360 Nota: C1 Vol.: 54
Chanel 9 Note On - Duracao: 351360 Nota: C1 Vol.: 55
Chanel 3 Note Off - Duracao: 351480 Nota: C1 Vol.: 78
Chanel 3 Note On - Duracao: 351480 Nota: C1 Vol.: 77
Chanel 3 Note Off - Duracao: 351600 Nota: C1 Vol.: 77
Chanel 3 Note On - Duracao: 351600 Nota: C1 Vol.: 71
Chanel 2 Note Off - Duracao: 351720 Nota: C1 Vol.: 40
Chanel 2 Note On - Duracao: 351720 Nota: C1 Vol.: 40
Chanel 3 Note Off - Duracao: 351840 Nota: C1 Vol.: 71
Chanel 3 Note On - Duracao: 351840 Nota: C1 Vol.: 69
Chanel 9 Note Off - Duracao: 351840 Nota: C1 Vol.: 55
Chanel 9 Note On - Duracao: 351840 Nota: C1 Vol.: 48
Chanel 3 Note Off - Duracao: 352080 Nota: C1 Vol.: 69
Chanel 3 Note On - Duracao: 352080 Nota: C1 Vol.: 68
Chanel 10 Note Off - Duracao: 352260 Nota: C1 Vol.: 49
Chanel 10 Note On - Duracao: 352260 Nota: C1 Vol.: 54
Chanel 3 Note Off - Duracao: 352320 Nota: C1 Vol.: 68
Chanel 3 Note On - Duracao: 352320 Nota: C1 Vol.: 64
Chanel 4 Note Off - Duracao: 352380 Nota: C1 Vol.: 44
Chanel 4 Note On - Duracao: 352380 Nota: C1 Vol.: 53
Chanel 3 Note Off - Duracao: 352560 Nota: C1 Vol.: 64
Chanel 3 Note On - Duracao: 352560 Nota: C1 Vol.: 55
Chanel 5 Note Off - Duracao: 352680 Nota: C1 Vol.: 48
Chanel 5 Note On - Duracao: 352680 Nota: C1 Vol.: 45
Chanel 10 Note Off - Duracao: 352740 Nota: C1 Vol.: 54
Chanel 10 Note On - Duracao: 352740 Nota: C1 Vol.: 61
Chanel 9 Note Off - Duracao: 352800 Nota: C1 Vol.: 48
Chanel 9 Note On - Duracao: 352800 Nota: C1 Vol.: 60
Chanel 10 Note Off - Duracao: 352980 Nota: C1 Vol.: 61
Chanel 10 Note On - Duracao: 352980 Nota: C1 Vol.: 54
Chanel 3 Note Off - Duracao: 353040 Nota: C1 Vol.: 55
Chanel 3 Note On - Duracao: 353040 Nota: C1 Vol.: 63
Chanel 8 Note Off - Duracao: 353100 Nota: C1 Vol.: 42
Chanel 8 Note On - Duracao: 353100 Nota: C1 Vol.: 52
Chanel 3 Note Off - Duracao: 353280 Nota: C1 Vol.: 63
Chanel 3 Note On - Duracao: 353280 Nota: C1 Vol.: 57
Chanel 9 Note Off - Duracao: 353280 Nota: C1 Vol.: 60
Chanel 9 Note On - Duracao: 353280 Nota: C1 Vol.: 66
Chanel 4 Note Off - Duracao: 353340 Nota: C1 Vol.: 53
Chanel 4 Note On - Duracao: 353340 Nota: C1 Vol.: 49
Chanel 10 Note Off - Duracao: 353460 Nota: C1 Vol.: 54
Chanel 10 Note On - Duracao: 353460 Nota: C1 Vol.: 58
Chanel 9 Note Off - Duracao: 353520 Nota: C1 Vol.: 66
Chanel 9 Note On - Duracao: 353520 Nota: C1 Vol.: 72
Chanel 8 Note Off - Duracao: 353580 Nota: C1 Vol.: 52
Chanel 8 Note On - Duracao: 353580 Nota: C1 Vol.: 51
Chanel 2 Note Off - Duracao: 353640 Nota: C1 Vol.: 40
Chanel 2 Note On - Duracao: 353640 Nota: C1 Vol.: 53
Chanel 10 Note Off - Duracao: 353700 Nota: C1 Vol.: 58
Chanel 10 Note On - Duracao: 353700 Nota: C1 Vol.: 62
Chanel 2 Note Off - Duracao: 353760 Nota: C1 Vol.: 53
Chanel 2 Note On - Duracao: 353760 Nota: C1 Vol.: 47
Chanel 3 Note Off - Duracao: 353760 Nota: C1 Vol.: 57
Chanel 3 Note On - Duracao: 353760 Nota: C1 Vol.: 62
Chanel 6 Note Off - Duracao: 353760 Nota: C1 Vol.: 48
Chanel 6 Note On - Duracao: 353760 Nota: C1 Vol.: 58
Chanel 9 Note Off - Duracao: 353760 Nota: C1 Vol.: 72
Chanel 9 Note On - Duracao: 353760 Nota: C1 Vol.: 68
Chanel 2 Note Off - Duracao: 353880 Nota: C1 Vol.: 47
Chanel 2 Note On - Duracao: 353880 Nota: C1 Vol.: 44
Chanel 10 Note Off - Duracao: 353940 Nota: C1 Vol.: 62
Chanel 10 Note On - Duracao: 353940 Nota: C1 Vol.: 59
Chanel 2 Note Off - Duracao: 354000 Nota: C1 Vol.: 44
Chanel 2 Note On - Duracao: 354000 Nota: C1 Vol.: 41
Chanel 3 Note Off - Duracao: 354000 Nota: C1 Vol.: 62
Chanel 3 Note On - Duracao: 354000 Nota: C1 Vol.: 67
Chanel 9 Note Off - Duracao: 354000 Nota: C1 Vol.: 68
Chanel 9 Note On - Duracao: 354000 Nota: C1 Vol.: 69
Chanel 8 Note Off - Duracao: 354060 Nota: C1 Vol.: 51
Chanel 8 Note On - Duracao: 354060 Nota: C1 Vol.: 56
Chanel 2 Note Off - Duracao: 354120 Nota: C1 Vol.: 41
Chanel 2 Note On - Duracao: 354120 Nota: C1 Vol.: 42
Chanel 2 Note Off - Duracao: 354180 Nota: C1 Vol.: 42
Chanel 2 Note On - Duracao: 354180 Nota: C1 Vol.: 43
Chanel 10 Note Off - Duracao: 354180 Nota: C1 Vol.: 59
Chanel 10 Note On - Duracao: 354180 Nota: C1 Vol.: 61
Chanel 3 Note Off - Duracao: 354240 Nota: C1 Vol.: 67
Chanel 3 Note On - Duracao: 354240 Nota: C1 Vol.: 59
Chanel 9 Note Off - Duracao: 354240 Nota: C1 Vol.: 69
Chanel 9 Note On - Duracao: 354240 Nota: C1 Vol.: 70
Chanel 2 Note Off - Duracao: 354300 Nota: C1 Vol.: 43
Chanel 2 Note On - Duracao: 354300 Nota: C1 Vol.: 48
Chanel 8 Note Off - Duracao: 354300 Nota: C1 Vol.: 56
Chanel 8 Note On - Duracao: 354300 Nota: C1 Vol.: 55
Chanel 2 Note Off - Duracao: 354420 Nota: C1 Vol.: 48
Chanel 2 Note On - Duracao: 354420 Nota: C1 Vol.: 55
Chanel 10 Note Off - Duracao: 354420 Nota: C1 Vol.: 61
Chanel 10 Note On - Duracao: 354420 Nota: C1 Vol.: 61
Chanel 9 Note Off - Duracao: 354480 Nota: C1 Vol.: 70
Chanel 9 Note On - Duracao: 354480 Nota: C1 Vol.: 66
Chanel 2 Note Off - Duracao: 354540 Nota: C1 Vol.: 55
Chanel 2 Note On - Duracao: 354540 Nota: C1 Vol.: 40
Chanel 7 Note Off - Duracao: 354540 Nota: C1 Vol.: 64
Chanel 7 Note On - Duracao: 354540 Nota: C1 Vol.: 65
Chanel 10 Note Off - Duracao: 354660 Nota: C1 Vol.: 61
Chanel 10 Note On - Duracao: 354660 Nota: C1 Vol.: 57
Chanel 3 Note Off - Duracao: 354720 Nota: C1 Vol.: 59
Chanel 3 Note On - Duracao: 354720 Nota: C1 Vol.: 52
Chanel 8 Note Off - Duracao: 354780 Nota: C1 Vol.: 55
Chanel 8 Note On - Duracao: 354780 Nota: C1 Vol.: 55
Chanel 9 Note Off - Duracao: 354960 Nota: C1 Vol.: 66
Chanel 9 Note On - Duracao: 354960 Nota: C1 Vol.: 81
Chanel 10 Note Off - Duracao: 355140 Nota: C1 Vol.: 57
Chanel 10 Note On - Duracao: 355140 Nota: C1 Vol.: 64
Chanel 9 Note Off - Duracao: 355200 Nota: C1 Vol.: 81
Chanel 9 Note On - Duracao: 355200 Nota: C1 Vol.: 72
Chanel 4 Note Off - Duracao: 355260 Nota: C1 Vol.: 49
Chanel 4 Note On - Duracao: 355260 Nota: C1 Vol.: 41
Chanel 8 Note Off - Duracao: 355260 Nota: C1 Vol.: 55
Chanel 8 Note On - Duracao: 355260 Nota: C1 Vol.: 52
Chanel 10 Note Off - Duracao: 355380 Nota: C1 Vol.: 64
Chanel 10 Note On - Duracao: 355380 Nota: C1 Vol.: 73
Chanel 2 Note Off - Duracao: 355500 Nota: C1 Vol.: 40
Chanel 2 Note On - Duracao: 355500 Nota: C1 Vol.: 40
Chanel 10 Note Off - Duracao: 355620 Nota: C1 Vol.: 73
Chanel 10 Note On - Duracao: 355620 Nota: C1 Vol.: 85
Chanel 3 Note Off - Duracao: 355680 Nota: C1 Vol.: 52
Chanel 3 Note On - Duracao: 355680 Nota: C1 Vol.: 56
Chanel 6 Note Off - Duracao: 355680 Nota: C1 Vol.: 58
Chanel 6 Note On - Duracao: 355680 Nota: C1 Vol.: 72
Chanel 9 Note Off - Duracao: 355680 Nota: C1 Vol.: 72
Chanel 9 Note On - Duracao: 355680 Nota: C1 Vol.: 69
Chanel 8 Note Off - Duracao: 355740 Nota: C1 Vol.: 52
Chanel 8 Note On - Duracao: 355740 Nota: C1 Vol.: 52
Chanel 10 Note Off - Duracao: 355740 Nota: C1 Vol.: 85
Chanel 10 Note On - Duracao: 355740 Nota: C1 Vol.: 93
Chanel 10 Note Off - Duracao: 355860 Nota: C1 Vol.: 93
Chanel 10 Note On - Duracao: 355860 Nota: C1 Vol.: 92
Chanel 10 Note Off - Duracao: 355980 Nota: C1 Vol.: 92
Chanel 10 Note On - Duracao: 355980 Nota: C1 Vol.: 84
Chanel 3 Note Off - Duracao: 356160 Nota: C1 Vol.: 56
Chanel 3 Note On - Duracao: 356160 Nota: C1 Vol.: 53
Chanel 9 Note Off - Duracao: 356160 Nota: C1 Vol.: 69
Chanel 9 Note On - Duracao: 356160 Nota: C1 Vol.: 55
Chanel 8 Note Off - Duracao: 356220 Nota: C1 Vol.: 52
Chanel 8 Note On - Duracao: 356220 Nota: C1 Vol.: 53
Chanel 10 Note Off - Duracao: 356220 Nota: C1 Vol.: 84
Chanel 10 Note On - Duracao: 356220 Nota: C1 Vol.: 75
Chanel 2 Note Off - Duracao: 356460 Nota: C1 Vol.: 40
Chanel 2 Note On - Duracao: 356460 Nota: C1 Vol.: 68
Chanel 5 Note Off - Duracao: 356520 Nota: C1 Vol.: 45
Chanel 5 Note On - Duracao: 356520 Nota: C1 Vol.: 58
Chanel 3 Note Off - Duracao: 356640 Nota: C1 Vol.: 53
Chanel 3 Note On - Duracao: 356640 Nota: C1 Vol.: 47
Chanel 6 Note Off - Duracao: 356640 Nota: C1 Vol.: 72
Chanel 6 Note On - Duracao: 356640 Nota: C1 Vol.: 95
Chanel 2 Note Off - Duracao: 356700 Nota: C1 Vol.: 68
Chanel 2 Note On - Duracao: 356700 Nota: C1 Vol.: 67
Chanel 8 Note Off - Duracao: 356700 Nota: C1 Vol.: 53
Chanel 8 Note On - Duracao: 356700 Nota: C1 Vol.: 53
Chanel 10 Note Off - Duracao: 356700 Nota: C1 Vol.: 75
Chanel 10 Note On - Duracao: 356700 Nota: C1 Vol.: 71
Chanel 6 Note Off - Duracao: 356760 Nota: C1 Vol.: 95
Chanel 6 Note On - Duracao: 356760 Nota: C1 Vol.: 98
Chanel 6 Note Off - Duracao: 356820 Nota: C1 Vol.: 98
Chanel 6 Note On - Duracao: 356820 Nota: C1 Vol.: 99
Chanel 6 Note Off - Duracao: 356880 Nota: C1 Vol.: 99
Chanel 6 Note On - Duracao: 356880 Nota: C1 Vol.: 96
Chanel 6 Note Off - Duracao: 356940 Nota: C1 Vol.: 96
Chanel 6 Note On - Duracao: 356940 Nota: C1 Vol.: 88
Chanel 6 Note Off - Duracao: 357060 Nota: C1 Vol.: 88
Chanel 6 Note On - Duracao: 357060 Nota: C1 Vol.: 48
Chanel 9 Note Off - Duracao: 357120 Nota: C1 Vol.: 55
Chanel 9 Note On - Duracao: 357120 Nota: C1 Vol.: 54
Chanel 2 Note Off - Duracao: 357180 Nota: C1 Vol.: 67
Chanel 2 Note On - Duracao: 357180 Nota: C1 Vol.: 69
Chanel 4 Note Off - Duracao: 357180 Nota: C1 Vol.: 41
Chanel 4 Note On - Duracao: 357180 Nota: C1 Vol.: 53
Chanel 8 Note Off - Duracao: 357180 Nota: C1 Vol.: 53
Chanel 8 Note On - Duracao: 357180 Nota: C1 Vol.: 51
Chanel 10 Note Off - Duracao: 357180 Nota: C1 Vol.: 71
Chanel 10 Note On - Duracao: 357180 Nota: C1 Vol.: 66
Chanel 5 Note Off - Duracao: 357480 Nota: C1 Vol.: 58
Chanel 5 Note On - Duracao: 357480 Nota: C1 Vol.: 89
Chanel 3 Note Off - Duracao: 357600 Nota: C1 Vol.: 47
Chanel 3 Note On - Duracao: 357600 Nota: C1 Vol.: 40
Chanel 5 Note Off - Duracao: 357600 Nota: C1 Vol.: 89
Chanel 5 Note On - Duracao: 357600 Nota: C1 Vol.: 89
Chanel 2 Note Off - Duracao: 357660 Nota: C1 Vol.: 69
Chanel 2 Note On - Duracao: 357660 Nota: C1 Vol.: 64
Chanel 5 Note Off - Duracao: 357720 Nota: C1 Vol.: 89
Chanel 5 Note On - Duracao: 357720 Nota: C1 Vol.: 59
Chanel 9 Note Off - Duracao: 358080 Nota: C1 Vol.: 54
Chanel 9 Note On - Duracao: 358080 Nota: C1 Vol.: 52
Chanel 4 Note Off - Duracao: 358140 Nota: C1 Vol.: 53
Chanel 4 Note On - Duracao: 358140 Nota: C1 Vol.: 89
Chanel 8 Note Off - Duracao: 358140 Nota: C1 Vol.: 51
Chanel 8 Note On - Duracao: 358140 Nota: C1 Vol.: 43
Chanel 10 Note Off - Duracao: 358140 Nota: C1 Vol.: 66
Chanel 10 Note On - Duracao: 358140 Nota: C1 Vol.: 59
Chanel 4 Note Off - Duracao: 358260 Nota: C1 Vol.: 89
Chanel 4 Note On - Duracao: 358260 Nota: C1 Vol.: 89
Chanel 4 Note Off - Duracao: 358380 Nota: C1 Vol.: 89
Chanel 4 Note On - Duracao: 358380 Nota: C1 Vol.: 97
Chanel 7 Note Off - Duracao: 358380 Nota: C1 Vol.: 65
Chanel 7 Note On - Duracao: 358380 Nota: C1 Vol.: 65
Chanel 4 Note Off - Duracao: 358440 Nota: C1 Vol.: 97
Chanel 4 Note On - Duracao: 358440 Nota: C1 Vol.: 100
Chanel 4 Note Off - Duracao: 358500 Nota: C1 Vol.: 100
Chanel 4 Note On - Duracao: 358500 Nota: C1 Vol.: 100
Chanel 4 Note Off - Duracao: 358560 Nota: C1 Vol.: 100
Chanel 4 Note On - Duracao: 358560 Nota: C1 Vol.: 100
Chanel 2 Note Off - Duracao: 358620 Nota: C1 Vol.: 64
Chanel 2 Note On - Duracao: 358620 Nota: C1 Vol.: 67
Chanel 4 Note Off - Duracao: 358620 Nota: C1 Vol.: 100
Chanel 4 Note On - Duracao: 358620 Nota: C1 Vol.: 100
Chanel 4 Note Off - Duracao: 358680 Nota: C1 Vol.: 100
Chanel 4 Note On - Duracao: 358680 Nota: C1 Vol.: 96
Chanel 5 Note Off - Duracao: 358680 Nota: C1 Vol.: 59
Chanel 5 Note On - Duracao: 358680 Nota: C1 Vol.: 47
Chanel 4 Note Off - Duracao: 358740 Nota: C1 Vol.: 96
Chanel 4 Note On - Duracao: 358740 Nota: C1 Vol.: 94
Chanel 4 Note Off - Duracao: 358800 Nota: C1 Vol.: 94
Chanel 4 Note On - Duracao: 358800 Nota: C1 Vol.: 49
Chanel 6 Note Off - Duracao: 358980 Nota: C1 Vol.: 48
Chanel 6 Note On - Duracao: 358980 Nota: C1 Vol.: 47
Chanel 10 Note Off - Duracao: 359100 Nota: C1 Vol.: 59
Chanel 10 Note On - Duracao: 359100 Nota: C1 Vol.: 60
Chanel 3 Note Off - Duracao: 359520 Nota: C1 Vol.: 40
Chanel 3 Note On - Duracao: 359520 Nota: C1 Vol.: 40
Chanel 2 Note Off - Duracao: 359580 Nota: C1 Vol.: 67
Chanel 2 Note On - Duracao: 359580 Nota: C1 Vol.: 72
Chanel 9 Note Off - Duracao: 360000 Nota: C1 Vol.: 52
Chanel 9 Note On - Duracao: 360000 Nota: C1 Vol.: 53
Chanel 8 Note Off - Duracao: 360060 Nota: C1 Vol.: 43
Chanel 8 Note On - Duracao: 360060 Nota: C1 Vol.: 47
Chanel 10 Note Off - Duracao: 360060 Nota: C1 Vol.: 60
Chanel 10 Note On - Duracao: 360060 Nota: C1 Vol.: 56
Chanel 2 Note Off - Duracao: 360540 Nota: C1 Vol.: 72
Chanel 2 Note On - Duracao: 360540 Nota: C1 Vol.: 67
Chanel 5 Note Off - Duracao: 360600 Nota: C1 Vol.: 47
Chanel 5 Note On - Duracao: 360600 Nota: C1 Vol.: 75
Chanel 4 Note Off - Duracao: 360720 Nota: C1 Vol.: 49
Chanel 4 Note On - Duracao: 360720 Nota: C1 Vol.: 51
Chanel 5 Note Off - Duracao: 360840 Nota: C1 Vol.: 75
Chanel 5 Note On - Duracao: 360840 Nota: C1 Vol.: 74
Chanel 6 Note Off - Duracao: 360900 Nota: C1 Vol.: 47
Chanel 6 Note On - Duracao: 360900 Nota: C1 Vol.: 53
Chanel 9 Note Off - Duracao: 360960 Nota: C1 Vol.: 53
Chanel 9 Note On - Duracao: 360960 Nota: C1 Vol.: 52
Chanel 8 Note Off - Duracao: 361020 Nota: C1 Vol.: 47
Chanel 8 Note On - Duracao: 361020 Nota: C1 Vol.: 48
Chanel 10 Note Off - Duracao: 361020 Nota: C1 Vol.: 56
Chanel 10 Note On - Duracao: 361020 Nota: C1 Vol.: 54
Chanel 5 Note Off - Duracao: 361320 Nota: C1 Vol.: 74
Chanel 5 Note On - Duracao: 361320 Nota: C1 Vol.: 59
Chanel 3 Note Off - Duracao: 361440 Nota: C1 Vol.: 40
Chanel 3 Note On - Duracao: 361440 Nota: C1 Vol.: 60
Chanel 2 Note Off - Duracao: 361500 Nota: C1 Vol.: 67
Chanel 2 Note On - Duracao: 361500 Nota: C1 Vol.: 66
Chanel 10 Note Off - Duracao: 361500 Nota: C1 Vol.: 54
Chanel 10 Note On - Duracao: 361500 Nota: C1 Vol.: 49
Chanel 3 Note Off - Duracao: 361920 Nota: C1 Vol.: 60
Chanel 3 Note On - Duracao: 361920 Nota: C1 Vol.: 56
Chanel 9 Note Off - Duracao: 361920 Nota: C1 Vol.: 52
Chanel 9 Note On - Duracao: 361920 Nota: C1 Vol.: 48
Chanel 8 Note Off - Duracao: 361980 Nota: C1 Vol.: 48
Chanel 8 Note On - Duracao: 361980 Nota: C1 Vol.: 47
Chanel 10 Note Off - Duracao: 361980 Nota: C1 Vol.: 49
Chanel 10 Note On - Duracao: 361980 Nota: C1 Vol.: 57
Chanel 7 Note Off - Duracao: 362220 Nota: C1 Vol.: 65
Chanel 7 Note On - Duracao: 362220 Nota: C1 Vol.: 67
Chanel 10 Note Off - Duracao: 362220 Nota: C1 Vol.: 57
Chanel 10 Note On - Duracao: 362220 Nota: C1 Vol.: 61
Chanel 5 Note Off - Duracao: 362280 Nota: C1 Vol.: 59
Chanel 5 Note On - Duracao: 362280 Nota: C1 Vol.: 45
Chanel 2 Note Off - Duracao: 362460 Nota: C1 Vol.: 66
Chanel 2 Note On - Duracao: 362460 Nota: C1 Vol.: 74
Chanel 10 Note Off - Duracao: 362460 Nota: C1 Vol.: 61
Chanel 10 Note On - Duracao: 362460 Nota: C1 Vol.: 69
Chanel 10 Note Off - Duracao: 362580 Nota: C1 Vol.: 69
Chanel 10 Note On - Duracao: 362580 Nota: C1 Vol.: 72
Chanel 4 Note Off - Duracao: 362640 Nota: C1 Vol.: 51
Chanel 4 Note On - Duracao: 362640 Nota: C1 Vol.: 49
Chanel 10 Note Off - Duracao: 362700 Nota: C1 Vol.: 72
Chanel 10 Note On - Duracao: 362700 Nota: C1 Vol.: 55
Chanel 6 Note Off - Duracao: 362820 Nota: C1 Vol.: 53
Chanel 6 Note On - Duracao: 362820 Nota: C1 Vol.: 83
Chanel 3 Note Off - Duracao: 362880 Nota: C1 Vol.: 56
Chanel 3 Note On - Duracao: 362880 Nota: C1 Vol.: 61
Chanel 9 Note Off - Duracao: 362880 Nota: C1 Vol.: 48
Chanel 9 Note On - Duracao: 362880 Nota: C1 Vol.: 45
Chanel 2 Note Off - Duracao: 362940 Nota: C1 Vol.: 74
Chanel 2 Note On - Duracao: 362940 Nota: C1 Vol.: 71
Chanel 6 Note Off - Duracao: 363060 Nota: C1 Vol.: 83
Chanel 6 Note On - Duracao: 363060 Nota: C1 Vol.: 87
Chanel 6 Note Off - Duracao: 363180 Nota: C1 Vol.: 87
Chanel 6 Note On - Duracao: 363180 Nota: C1 Vol.: 87
Chanel 6 Note Off - Duracao: 363300 Nota: C1 Vol.: 87
Chanel 6 Note On - Duracao: 363300 Nota: C1 Vol.: 88
Chanel 3 Note Off - Duracao: 363360 Nota: C1 Vol.: 61
Chanel 3 Note On - Duracao: 363360 Nota: C1 Vol.: 68
Chanel 2 Note Off - Duracao: 363420 Nota: C1 Vol.: 71
Chanel 2 Note On - Duracao: 363420 Nota: C1 Vol.: 83
Chanel 6 Note Off - Duracao: 363420 Nota: C1 Vol.: 88
Chanel 6 Note On - Duracao: 363420 Nota: C1 Vol.: 93
Chanel 6 Note Off - Duracao: 363540 Nota: C1 Vol.: 93
Chanel 6 Note On - Duracao: 363540 Nota: C1 Vol.: 95
Chanel 2 Note Off - Duracao: 363660 Nota: C1 Vol.: 83
Chanel 2 Note On - Duracao: 363660 Nota: C1 Vol.: 78
Chanel 6 Note Off - Duracao: 363660 Nota: C1 Vol.: 95
Chanel 6 Note On - Duracao: 363660 Nota: C1 Vol.: 99
Chanel 10 Note Off - Duracao: 363660 Nota: C1 Vol.: 55
Chanel 10 Note On - Duracao: 363660 Nota: C1 Vol.: 51
Chanel 6 Note Off - Duracao: 363720 Nota: C1 Vol.: 99
Chanel 6 Note On - Duracao: 363720 Nota: C1 Vol.: 99
Chanel 6 Note Off - Duracao: 363780 Nota: C1 Vol.: 99
Chanel 6 Note On - Duracao: 363780 Nota: C1 Vol.: 98
Chanel 3 Note Off - Duracao: 363840 Nota: C1 Vol.: 68
Chanel 3 Note On - Duracao: 363840 Nota: C1 Vol.: 67
Chanel 6 Note Off - Duracao: 363840 Nota: C1 Vol.: 98
Chanel 6 Note On - Duracao: 363840 Nota: C1 Vol.: 97
Chanel 9 Note Off - Duracao: 363840 Nota: C1 Vol.: 45
Chanel 9 Note On - Duracao: 363840 Nota: C1 Vol.: 51
Chanel 6 Note Off - Duracao: 363900 Nota: C1 Vol.: 97
Chanel 6 Note On - Duracao: 363900 Nota: C1 Vol.: 98
Chanel 8 Note Off - Duracao: 363900 Nota: C1 Vol.: 47
Chanel 8 Note On - Duracao: 363900 Nota: C1 Vol.: 54
Chanel 6 Note Off - Duracao: 363960 Nota: C1 Vol.: 98
Chanel 6 Note On - Duracao: 363960 Nota: C1 Vol.: 98
Chanel 6 Note Off - Duracao: 364020 Nota: C1 Vol.: 98
Chanel 6 Note On - Duracao: 364020 Nota: C1 Vol.: 100
Chanel 6 Note Off - Duracao: 364080 Nota: C1 Vol.: 100
Chanel 6 Note On - Duracao: 364080 Nota: C1 Vol.: 92
Chanel 2 Note Off - Duracao: 364140 Nota: C1 Vol.: 78
Chanel 2 Note On - Duracao: 364140 Nota: C1 Vol.: 83
Chanel 7 Note Off - Duracao: 364140 Nota: C1 Vol.: 67
Chanel 7 Note On - Duracao: 364140 Nota: C1 Vol.: 70
Chanel 5 Note Off - Duracao: 364200 Nota: C1 Vol.: 45
Chanel 5 Note On - Duracao: 364200 Nota: C1 Vol.: 53
Chanel 6 Note Off - Duracao: 364200 Nota: C1 Vol.: 92
Chanel 6 Note On - Duracao: 364200 Nota: C1 Vol.: 87
Chanel 3 Note Off - Duracao: 364320 Nota: C1 Vol.: 67
Chanel 3 Note On - Duracao: 364320 Nota: C1 Vol.: 58
Chanel 6 Note Off - Duracao: 364320 Nota: C1 Vol.: 87
Chanel 6 Note On - Duracao: 364320 Nota: C1 Vol.: 47
Chanel 2 Note Off - Duracao: 364380 Nota: C1 Vol.: 83
Chanel 2 Note On - Duracao: 364380 Nota: C1 Vol.: 81
Chanel 4 Note Off - Duracao: 364560 Nota: C1 Vol.: 49
Chanel 4 Note On - Duracao: 364560 Nota: C1 Vol.: 97
Chanel 2 Note Off - Duracao: 364620 Nota: C1 Vol.: 81
Chanel 2 Note On - Duracao: 364620 Nota: C1 Vol.: 91
Chanel 4 Note Off - Duracao: 364620 Nota: C1 Vol.: 97
Chanel 4 Note On - Duracao: 364620 Nota: C1 Vol.: 100
Chanel 10 Note Off - Duracao: 364620 Nota: C1 Vol.: 51
Chanel 10 Note On - Duracao: 364620 Nota: C1 Vol.: 54
Chanel 4 Note Off - Duracao: 364680 Nota: C1 Vol.: 100
Chanel 4 Note On - Duracao: 364680 Nota: C1 Vol.: 99
Chanel 2 Note Off - Duracao: 364740 Nota: C1 Vol.: 91
Chanel 2 Note On - Duracao: 364740 Nota: C1 Vol.: 86
Chanel 4 Note Off - Duracao: 364740 Nota: C1 Vol.: 99
Chanel 4 Note On - Duracao: 364740 Nota: C1 Vol.: 98
Chanel 4 Note Off - Duracao: 364800 Nota: C1 Vol.: 98
Chanel 4 Note On - Duracao: 364800 Nota: C1 Vol.: 100
Chanel 9 Note Off - Duracao: 364800 Nota: C1 Vol.: 51
Chanel 9 Note On - Duracao: 364800 Nota: C1 Vol.: 53
Chanel 4 Note Off - Duracao: 364860 Nota: C1 Vol.: 100
Chanel 4 Note On - Duracao: 364860 Nota: C1 Vol.: 100
Chanel 8 Note Off - Duracao: 364860 Nota: C1 Vol.: 54
Chanel 8 Note On - Duracao: 364860 Nota: C1 Vol.: 61
Chanel 4 Note Off - Duracao: 364920 Nota: C1 Vol.: 100
Chanel 4 Note On - Duracao: 364920 Nota: C1 Vol.: 99
Chanel 2 Note Off - Duracao: 364980 Nota: C1 Vol.: 86
Chanel 2 Note On - Duracao: 364980 Nota: C1 Vol.: 72
Chanel 4 Note Off - Duracao: 364980 Nota: C1 Vol.: 99
Chanel 4 Note On - Duracao: 364980 Nota: C1 Vol.: 99
Chanel 4 Note Off - Duracao: 365040 Nota: C1 Vol.: 99
Chanel 4 Note On - Duracao: 365040 Nota: C1 Vol.: 93
Chanel 4 Note Off - Duracao: 365100 Nota: C1 Vol.: 93
Chanel 4 Note On - Duracao: 365100 Nota: C1 Vol.: 71
Chanel 5 Note Off - Duracao: 365160 Nota: C1 Vol.: 53
Chanel 5 Note On - Duracao: 365160 Nota: C1 Vol.: 84
Chanel 3 Note Off - Duracao: 365280 Nota: C1 Vol.: 58
Chanel 3 Note On - Duracao: 365280 Nota: C1 Vol.: 58
Chanel 5 Note Off - Duracao: 365280 Nota: C1 Vol.: 84
Chanel 5 Note On - Duracao: 365280 Nota: C1 Vol.: 93
Chanel 5 Note Off - Duracao: 365340 Nota: C1 Vol.: 93
Chanel 5 Note On - Duracao: 365340 Nota: C1 Vol.: 95
Chanel 8 Note Off - Duracao: 365340 Nota: C1 Vol.: 61
Chanel 8 Note On - Duracao: 365340 Nota: C1 Vol.: 60
Chanel 5 Note Off - Duracao: 365400 Nota: C1 Vol.: 95
Chanel 5 Note On - Duracao: 365400 Nota: C1 Vol.: 61
Chanel 2 Note Off - Duracao: 365460 Nota: C1 Vol.: 72
Chanel 2 Note On - Duracao: 365460 Nota: C1 Vol.: 77
Chanel 4 Note Off - Duracao: 365580 Nota: C1 Vol.: 71
Chanel 4 Note On - Duracao: 365580 Nota: C1 Vol.: 64
Chanel 10 Note Off - Duracao: 365580 Nota: C1 Vol.: 54
Chanel 10 Note On - Duracao: 365580 Nota: C1 Vol.: 65
Chanel 2 Note Off - Duracao: 365700 Nota: C1 Vol.: 77
Chanel 2 Note On - Duracao: 365700 Nota: C1 Vol.: 71
Chanel 9 Note Off - Duracao: 365760 Nota: C1 Vol.: 53
Chanel 9 Note On - Duracao: 365760 Nota: C1 Vol.: 66
Chanel 4 Note Off - Duracao: 366060 Nota: C1 Vol.: 64
Chanel 4 Note On - Duracao: 366060 Nota: C1 Vol.: 66
Chanel 7 Note Off - Duracao: 366060 Nota: C1 Vol.: 70
Chanel 7 Note On - Duracao: 366060 Nota: C1 Vol.: 72
Chanel 10 Note Off - Duracao: 366060 Nota: C1 Vol.: 65
Chanel 10 Note On - Duracao: 366060 Nota: C1 Vol.: 96
Chanel 10 Note Off - Duracao: 366120 Nota: C1 Vol.: 96
Chanel 10 Note On - Duracao: 366120 Nota: C1 Vol.: 84
Chanel 2 Note Off - Duracao: 366180 Nota: C1 Vol.: 71
Chanel 2 Note On - Duracao: 366180 Nota: C1 Vol.: 77
Chanel 6 Note Off - Duracao: 366240 Nota: C1 Vol.: 47
Chanel 6 Note On - Duracao: 366240 Nota: C1 Vol.: 86
Chanel 9 Note Off - Duracao: 366240 Nota: C1 Vol.: 66
Chanel 9 Note On - Duracao: 366240 Nota: C1 Vol.: 64
Chanel 8 Note Off - Duracao: 366300 Nota: C1 Vol.: 60
Chanel 8 Note On - Duracao: 366300 Nota: C1 Vol.: 70
Chanel 5 Note Off - Duracao: 366360 Nota: C1 Vol.: 61
Chanel 5 Note On - Duracao: 366360 Nota: C1 Vol.: 92
Chanel 6 Note Off - Duracao: 366360 Nota: C1 Vol.: 86
Chanel 6 Note On - Duracao: 366360 Nota: C1 Vol.: 96
Chanel 10 Note Off - Duracao: 366360 Nota: C1 Vol.: 84
Chanel 10 Note On - Duracao: 366360 Nota: C1 Vol.: 65
Chanel 2 Note Off - Duracao: 366420 Nota: C1 Vol.: 77
Chanel 2 Note On - Duracao: 366420 Nota: C1 Vol.: 75
Chanel 6 Note Off - Duracao: 366420 Nota: C1 Vol.: 96
Chanel 6 Note On - Duracao: 366420 Nota: C1 Vol.: 98
Chanel 5 Note Off - Duracao: 366480 Nota: C1 Vol.: 92
Chanel 5 Note On - Duracao: 366480 Nota: C1 Vol.: 99
Chanel 6 Note Off - Duracao: 366480 Nota: C1 Vol.: 98
Chanel 6 Note On - Duracao: 366480 Nota: C1 Vol.: 97
Chanel 4 Note Off - Duracao: 366540 Nota: C1 Vol.: 66
Chanel 4 Note On - Duracao: 366540 Nota: C1 Vol.: 73
Chanel 5 Note Off - Duracao: 366540 Nota: C1 Vol.: 99
Chanel 5 Note On - Duracao: 366540 Nota: C1 Vol.: 100
Chanel 6 Note Off - Duracao: 366540 Nota: C1 Vol.: 97
Chanel 6 Note On - Duracao: 366540 Nota: C1 Vol.: 96
Chanel 5 Note Off - Duracao: 366600 Nota: C1 Vol.: 100
Chanel 5 Note On - Duracao: 366600 Nota: C1 Vol.: 99
Chanel 6 Note Off - Duracao: 366600 Nota: C1 Vol.: 96
Chanel 6 Note On - Duracao: 366600 Nota: C1 Vol.: 98
Chanel 2 Note Off - Duracao: 366660 Nota: C1 Vol.: 75
Chanel 2 Note On - Duracao: 366660 Nota: C1 Vol.: 79
Chanel 5 Note Off - Duracao: 366660 Nota: C1 Vol.: 99
Chanel 5 Note On - Duracao: 366660 Nota: C1 Vol.: 100
Chanel 6 Note Off - Duracao: 366660 Nota: C1 Vol.: 98
Chanel 6 Note On - Duracao: 366660 Nota: C1 Vol.: 94
Chanel 5 Note Off - Duracao: 366720 Nota: C1 Vol.: 100
Chanel 5 Note On - Duracao: 366720 Nota: C1 Vol.: 100
Chanel 6 Note Off - Duracao: 366720 Nota: C1 Vol.: 94
Chanel 6 Note On - Duracao: 366720 Nota: C1 Vol.: 80
Chanel 9 Note Off - Duracao: 366720 Nota: C1 Vol.: 64
Chanel 9 Note On - Duracao: 366720 Nota: C1 Vol.: 76
Chanel 4 Note Off - Duracao: 366780 Nota: C1 Vol.: 73
Chanel 4 Note On - Duracao: 366780 Nota: C1 Vol.: 70
Chanel 5 Note Off - Duracao: 366780 Nota: C1 Vol.: 100
Chanel 5 Note On - Duracao: 366780 Nota: C1 Vol.: 99
Chanel 8 Note Off - Duracao: 366780 Nota: C1 Vol.: 70
Chanel 8 Note On - Duracao: 366780 Nota: C1 Vol.: 71
Chanel 5 Note Off - Duracao: 366840 Nota: C1 Vol.: 99
Chanel 5 Note On - Duracao: 366840 Nota: C1 Vol.: 98
Chanel 6 Note Off - Duracao: 366840 Nota: C1 Vol.: 80
Chanel 6 Note On - Duracao: 366840 Nota: C1 Vol.: 70
Chanel 9 Note Off - Duracao: 366840 Nota: C1 Vol.: 76
Chanel 9 Note On - Duracao: 366840 Nota: C1 Vol.: 70
Chanel 10 Note Off - Duracao: 366840 Nota: C1 Vol.: 65
Chanel 10 Note On - Duracao: 366840 Nota: C1 Vol.: 66
Chanel 2 Note Off - Duracao: 366900 Nota: C1 Vol.: 79
Chanel 2 Note On - Duracao: 366900 Nota: C1 Vol.: 79
Chanel 5 Note Off - Duracao: 366900 Nota: C1 Vol.: 98
Chanel 5 Note On - Duracao: 366900 Nota: C1 Vol.: 96
Chanel 5 Note Off - Duracao: 366960 Nota: C1 Vol.: 96
Chanel 5 Note On - Duracao: 366960 Nota: C1 Vol.: 97
Chanel 9 Note Off - Duracao: 366960 Nota: C1 Vol.: 70
Chanel 9 Note On - Duracao: 366960 Nota: C1 Vol.: 69
Chanel 4 Note Off - Duracao: 367020 Nota: C1 Vol.: 70
Chanel 4 Note On - Duracao: 367020 Nota: C1 Vol.: 76
Chanel 5 Note Off - Duracao: 367020 Nota: C1 Vol.: 97
Chanel 5 Note On - Duracao: 367020 Nota: C1 Vol.: 98
Chanel 5 Note Off - Duracao: 367080 Nota: C1 Vol.: 98
Chanel 5 Note On - Duracao: 367080 Nota: C1 Vol.: 98
Chanel 6 Note Off - Duracao: 367080 Nota: C1 Vol.: 70
Chanel 6 Note On - Duracao: 367080 Nota: C1 Vol.: 67
Chanel 9 Note Off - Duracao: 367080 Nota: C1 Vol.: 69
Chanel 9 Note On - Duracao: 367080 Nota: C1 Vol.: 60
Chanel 2 Note Off - Duracao: 367140 Nota: C1 Vol.: 79
Chanel 2 Note On - Duracao: 367140 Nota: C1 Vol.: 79
Chanel 4 Note Off - Duracao: 367140 Nota: C1 Vol.: 76
Chanel 4 Note On - Duracao: 367140 Nota: C1 Vol.: 84
Chanel 5 Note Off - Duracao: 367140 Nota: C1 Vol.: 98
Chanel 5 Note On - Duracao: 367140 Nota: C1 Vol.: 97
Chanel 3 Note Off - Duracao: 367200 Nota: C1 Vol.: 58
Chanel 3 Note On - Duracao: 367200 Nota: C1 Vol.: 62
Chanel 4 Note Off - Duracao: 367200 Nota: C1 Vol.: 84
Chanel 4 Note On - Duracao: 367200 Nota: C1 Vol.: 79
Chanel 5 Note Off - Duracao: 367200 Nota: C1 Vol.: 97
Chanel 5 Note On - Duracao: 367200 Nota: C1 Vol.: 98
Chanel 5 Note Off - Duracao: 367260 Nota: C1 Vol.: 98
Chanel 5 Note On - Duracao: 367260 Nota: C1 Vol.: 100
Chanel 8 Note Off - Duracao: 367260 Nota: C1 Vol.: 71
Chanel 8 Note On - Duracao: 367260 Nota: C1 Vol.: 59
Chanel 4 Note Off - Duracao: 367320 Nota: C1 Vol.: 79
Chanel 4 Note On - Duracao: 367320 Nota: C1 Vol.: 77
Chanel 5 Note Off - Duracao: 367320 Nota: C1 Vol.: 100
Chanel 5 Note On - Duracao: 367320 Nota: C1 Vol.: 100
Chanel 9 Note Off - Duracao: 367320 Nota: C1 Vol.: 60
Chanel 9 Note On - Duracao: 367320 Nota: C1 Vol.: 66
Chanel 10 Note Off - Duracao: 367320 Nota: C1 Vol.: 66
Chanel 10 Note On - Duracao: 367320 Nota: C1 Vol.: 65
Chanel 2 Note Off - Duracao: 367380 Nota: C1 Vol.: 79
Chanel 2 Note On - Duracao: 367380 Nota: C1 Vol.: 77
Chanel 5 Note Off - Duracao: 367380 Nota: C1 Vol.: 100
Chanel 5 Note On - Duracao: 367380 Nota: C1 Vol.: 96
Chanel 4 Note Off - Duracao: 367440 Nota: C1 Vol.: 77
Chanel 4 Note On - Duracao: 367440 Nota: C1 Vol.: 91
Chanel 5 Note Off - Duracao: 367500 Nota: C1 Vol.: 96
Chanel 5 Note On - Duracao: 367500 Nota: C1 Vol.: 97
Chanel 4 Note Off - Duracao: 367560 Nota: C1 Vol.: 91
Chanel 4 Note On - Duracao: 367560 Nota: C1 Vol.: 94
Chanel 5 Note Off - Duracao: 367560 Nota: C1 Vol.: 97
Chanel 5 Note On - Duracao: 367560 Nota: C1 Vol.: 86
Chanel 6 Note Off - Duracao: 367560 Nota: C1 Vol.: 67
Chanel 6 Note On - Duracao: 367560 Nota: C1 Vol.: 68
Chanel 9 Note Off - Duracao: 367560 Nota: C1 Vol.: 66
Chanel 9 Note On - Duracao: 367560 Nota: C1 Vol.: 70
Chanel 2 Note Off - Duracao: 367620 Nota: C1 Vol.: 77
Chanel 2 Note On - Duracao: 367620 Nota: C1 Vol.: 84
Chanel 4 Note Off - Duracao: 367620 Nota: C1 Vol.: 94
Chanel 4 Note On - Duracao: 367620 Nota: C1 Vol.: 92
Chanel 5 Note Off - Duracao: 367680 Nota: C1 Vol.: 86
Chanel 5 Note On - Duracao: 367680 Nota: C1 Vol.: 55
Chanel 9 Note Off - Duracao: 367680 Nota: C1 Vol.: 70
Chanel 9 Note On - Duracao: 367680 Nota: C1 Vol.: 71
Chanel 4 Note Off - Duracao: 367740 Nota: C1 Vol.: 92
Chanel 4 Note On - Duracao: 367740 Nota: C1 Vol.: 91
Chanel 4 Note Off - Duracao: 367800 Nota: C1 Vol.: 91
Chanel 4 Note On - Duracao: 367800 Nota: C1 Vol.: 87
Chanel 9 Note Off - Duracao: 367800 Nota: C1 Vol.: 71
Chanel 9 Note On - Duracao: 367800 Nota: C1 Vol.: 72
Chanel 10 Note Off - Duracao: 367800 Nota: C1 Vol.: 65
Chanel 10 Note On - Duracao: 367800 Nota: C1 Vol.: 67
Chanel 2 Note Off - Duracao: 367860 Nota: C1 Vol.: 84
Chanel 2 Note On - Duracao: 367860 Nota: C1 Vol.: 80
Chanel 4 Note Off - Duracao: 367920 Nota: C1 Vol.: 87
Chanel 4 Note On - Duracao: 367920 Nota: C1 Vol.: 66
Chanel 9 Note Off - Duracao: 367920 Nota: C1 Vol.: 72
Chanel 9 Note On - Duracao: 367920 Nota: C1 Vol.: 66
Chanel 7 Note Off - Duracao: 367980 Nota: C1 Vol.: 72
Chanel 7 Note On - Duracao: 367980 Nota: C1 Vol.: 75
Chanel 6 Note Off - Duracao: 368040 Nota: C1 Vol.: 68
Chanel 6 Note On - Duracao: 368040 Nota: C1 Vol.: 64
Chanel 10 Note Off - Duracao: 368040 Nota: C1 Vol.: 67
Chanel 10 Note On - Duracao: 368040 Nota: C1 Vol.: 57
Chanel 2 Note Off - Duracao: 368100 Nota: C1 Vol.: 80
Chanel 2 Note On - Duracao: 368100 Nota: C1 Vol.: 81
Chanel 9 Note Off - Duracao: 368160 Nota: C1 Vol.: 66
Chanel 9 Note On - Duracao: 368160 Nota: C1 Vol.: 56
Chanel 8 Note Off - Duracao: 368220 Nota: C1 Vol.: 59
Chanel 8 Note On - Duracao: 368220 Nota: C1 Vol.: 59
Chanel 2 Note Off - Duracao: 368340 Nota: C1 Vol.: 81
Chanel 2 Note On - Duracao: 368340 Nota: C1 Vol.: 79
Chanel 4 Note Off - Duracao: 368400 Nota: C1 Vol.: 66
Chanel 4 Note On - Duracao: 368400 Nota: C1 Vol.: 52
Chanel 6 Note Off - Duracao: 368520 Nota: C1 Vol.: 64
Chanel 6 Note On - Duracao: 368520 Nota: C1 Vol.: 62
Chanel 10 Note Off - Duracao: 368520 Nota: C1 Vol.: 57
Chanel 10 Note On - Duracao: 368520 Nota: C1 Vol.: 44
Chanel 2 Note Off - Duracao: 368580 Nota: C1 Vol.: 79
Chanel 2 Note On - Duracao: 368580 Nota: C1 Vol.: 70
Chanel 2 Note Off - Duracao: 368820 Nota: C1 Vol.: 70
Chanel 2 Note On - Duracao: 368820 Nota: C1 Vol.: 75
Chanel 2 Note Off - Duracao: 368940 Nota: C1 Vol.: 75
Chanel 2 Note On - Duracao: 368940 Nota: C1 Vol.: 73
Chanel 6 Note Off - Duracao: 369000 Nota: C1 Vol.: 62
Chanel 6 Note On - Duracao: 369000 Nota: C1 Vol.: 71
Chanel 2 Note Off - Duracao: 369060 Nota: C1 Vol.: 73
Chanel 2 Note On - Duracao: 369060 Nota: C1 Vol.: 70
Chanel 3 Note Off - Duracao: 369120 Nota: C1 Vol.: 62
Chanel 3 Note On - Duracao: 369120 Nota: C1 Vol.: 67
Chanel 9 Note Off - Duracao: 369120 Nota: C1 Vol.: 56
Chanel 9 Note On - Duracao: 369120 Nota: C1 Vol.: 68
Chanel 8 Note Off - Duracao: 369180 Nota: C1 Vol.: 59
Chanel 8 Note On - Duracao: 369180 Nota: C1 Vol.: 50
Chanel 6 Note Off - Duracao: 369240 Nota: C1 Vol.: 71
Chanel 6 Note On - Duracao: 369240 Nota: C1 Vol.: 58
Chanel 2 Note Off - Duracao: 369300 Nota: C1 Vol.: 70
Chanel 2 Note On - Duracao: 369300 Nota: C1 Vol.: 75
Chanel 4 Note Off - Duracao: 369360 Nota: C1 Vol.: 52
Chanel 4 Note On - Duracao: 369360 Nota: C1 Vol.: 55
Chanel 9 Note Off - Duracao: 369360 Nota: C1 Vol.: 68
Chanel 9 Note On - Duracao: 369360 Nota: C1 Vol.: 49
Chanel 2 Note Off - Duracao: 369420 Nota: C1 Vol.: 75
Chanel 2 Note On - Duracao: 369420 Nota: C1 Vol.: 80
Chanel 2 Note Off - Duracao: 369540 Nota: C1 Vol.: 80
Chanel 2 Note On - Duracao: 369540 Nota: C1 Vol.: 92
Chanel 5 Note Off - Duracao: 369600 Nota: C1 Vol.: 55
Chanel 5 Note On - Duracao: 369600 Nota: C1 Vol.: 58
Chanel 2 Note Off - Duracao: 369660 Nota: C1 Vol.: 92
Chanel 2 Note On - Duracao: 369660 Nota: C1 Vol.: 83
Chanel 6 Note Off - Duracao: 369720 Nota: C1 Vol.: 58
Chanel 6 Note On - Duracao: 369720 Nota: C1 Vol.: 62
Chanel 2 Note Off - Duracao: 369780 Nota: C1 Vol.: 83
Chanel 2 Note On - Duracao: 369780 Nota: C1 Vol.: 78
Chanel 4 Note Off - Duracao: 369840 Nota: C1 Vol.: 55
Chanel 4 Note On - Duracao: 369840 Nota: C1 Vol.: 55
Chanel 7 Note Off - Duracao: 369900 Nota: C1 Vol.: 75
Chanel 7 Note On - Duracao: 369900 Nota: C1 Vol.: 74
Chanel 6 Note Off - Duracao: 369960 Nota: C1 Vol.: 62
Chanel 6 Note On - Duracao: 369960 Nota: C1 Vol.: 64
Chanel 2 Note Off - Duracao: 370020 Nota: C1 Vol.: 78
Chanel 2 Note On - Duracao: 370020 Nota: C1 Vol.: 56
Chanel 3 Note Off - Duracao: 370080 Nota: C1 Vol.: 67
Chanel 3 Note On - Duracao: 370080 Nota: C1 Vol.: 72
Chanel 8 Note Off - Duracao: 370140 Nota: C1 Vol.: 50
Chanel 8 Note On - Duracao: 370140 Nota: C1 Vol.: 47
Chanel 6 Note Off - Duracao: 370200 Nota: C1 Vol.: 64
Chanel 6 Note On - Duracao: 370200 Nota: C1 Vol.: 51
Chanel 4 Note Off - Duracao: 370320 Nota: C1 Vol.: 55
Chanel 4 Note On - Duracao: 370320 Nota: C1 Vol.: 63
Chanel 9 Note Off - Duracao: 370320 Nota: C1 Vol.: 49
Chanel 9 Note On - Duracao: 370320 Nota: C1 Vol.: 49
Chanel 10 Note Off - Duracao: 370440 Nota: C1 Vol.: 44
Chanel 10 Note On - Duracao: 370440 Nota: C1 Vol.: 55
Chanel 5 Note Off - Duracao: 370560 Nota: C1 Vol.: 58
Chanel 5 Note On - Duracao: 370560 Nota: C1 Vol.: 59
Chanel 6 Note Off - Duracao: 370680 Nota: C1 Vol.: 51
Chanel 6 Note On - Duracao: 370680 Nota: C1 Vol.: 59
Chanel 4 Note Off - Duracao: 370800 Nota: C1 Vol.: 63
Chanel 4 Note On - Duracao: 370800 Nota: C1 Vol.: 57
Chanel 6 Note Off - Duracao: 370920 Nota: C1 Vol.: 59
Chanel 6 Note On - Duracao: 370920 Nota: C1 Vol.: 69
Chanel 2 Note Off - Duracao: 370980 Nota: C1 Vol.: 56
Chanel 2 Note On - Duracao: 370980 Nota: C1 Vol.: 71
Chanel 3 Note Off - Duracao: 371040 Nota: C1 Vol.: 72
Chanel 3 Note On - Duracao: 371040 Nota: C1 Vol.: 74
Chanel 6 Note Off - Duracao: 371040 Nota: C1 Vol.: 69
Chanel 6 Note On - Duracao: 371040 Nota: C1 Vol.: 62
Chanel 8 Note Off - Duracao: 371100 Nota: C1 Vol.: 47
Chanel 8 Note On - Duracao: 371100 Nota: C1 Vol.: 45
Chanel 2 Note Off - Duracao: 371220 Nota: C1 Vol.: 71
Chanel 2 Note On - Duracao: 371220 Nota: C1 Vol.: 74
Chanel 4 Note Off - Duracao: 371280 Nota: C1 Vol.: 57
Chanel 4 Note On - Duracao: 371280 Nota: C1 Vol.: 55
Chanel 6 Note Off - Duracao: 371280 Nota: C1 Vol.: 62
Chanel 6 Note On - Duracao: 371280 Nota: C1 Vol.: 69
Chanel 9 Note Off - Duracao: 371280 Nota: C1 Vol.: 49
Chanel 9 Note On - Duracao: 371280 Nota: C1 Vol.: 54
Chanel 6 Note Off - Duracao: 371400 Nota: C1 Vol.: 69
Chanel 6 Note On - Duracao: 371400 Nota: C1 Vol.: 61
Chanel 10 Note Off - Duracao: 371400 Nota: C1 Vol.: 55
Chanel 10 Note On - Duracao: 371400 Nota: C1 Vol.: 61
Chanel 2 Note Off - Duracao: 371460 Nota: C1 Vol.: 74
Chanel 2 Note On - Duracao: 371460 Nota: C1 Vol.: 73
Chanel 5 Note Off - Duracao: 371520 Nota: C1 Vol.: 59
Chanel 5 Note On - Duracao: 371520 Nota: C1 Vol.: 58
Chanel 6 Note Off - Duracao: 371640 Nota: C1 Vol.: 61
Chanel 6 Note On - Duracao: 371640 Nota: C1 Vol.: 48
Chanel 2 Note Off - Duracao: 371700 Nota: C1 Vol.: 73
Chanel 2 Note On - Duracao: 371700 Nota: C1 Vol.: 67
Chanel 4 Note Off - Duracao: 371760 Nota: C1 Vol.: 55
Chanel 4 Note On - Duracao: 371760 Nota: C1 Vol.: 53
Chanel 9 Note Off - Duracao: 371760 Nota: C1 Vol.: 54
Chanel 9 Note On - Duracao: 371760 Nota: C1 Vol.: 55
Chanel 7 Note Off - Duracao: 371820 Nota: C1 Vol.: 74
Chanel 7 Note On - Duracao: 371820 Nota: C1 Vol.: 71
Chanel 10 Note Off - Duracao: 371880 Nota: C1 Vol.: 61
Chanel 10 Note On - Duracao: 371880 Nota: C1 Vol.: 62
Chanel 2 Note Off - Duracao: 371940 Nota: C1 Vol.: 67
Chanel 2 Note On - Duracao: 371940 Nota: C1 Vol.: 67
Chanel 3 Note Off - Duracao: 372000 Nota: C1 Vol.: 74
Chanel 3 Note On - Duracao: 372000 Nota: C1 Vol.: 74
Chanel 6 Note Off - Duracao: 372120 Nota: C1 Vol.: 48
Chanel 6 Note On - Duracao: 372120 Nota: C1 Vol.: 48
Chanel 2 Note Off - Duracao: 372180 Nota: C1 Vol.: 67
Chanel 2 Note On - Duracao: 372180 Nota: C1 Vol.: 61
Chanel 4 Note Off - Duracao: 372240 Nota: C1 Vol.: 53
Chanel 4 Note On - Duracao: 372240 Nota: C1 Vol.: 54
Chanel 9 Note Off - Duracao: 372240 Nota: C1 Vol.: 55
Chanel 9 Note On - Duracao: 372240 Nota: C1 Vol.: 56
Chanel 10 Note Off - Duracao: 372360 Nota: C1 Vol.: 62
Chanel 10 Note On - Duracao: 372360 Nota: C1 Vol.: 62
Chanel 5 Note Off - Duracao: 372480 Nota: C1 Vol.: 58
Chanel 5 Note On - Duracao: 372480 Nota: C1 Vol.: 72
Chanel 6 Note Off - Duracao: 372600 Nota: C1 Vol.: 48
Chanel 6 Note On - Duracao: 372600 Nota: C1 Vol.: 51
Chanel 2 Note Off - Duracao: 372660 Nota: C1 Vol.: 61
Chanel 2 Note On - Duracao: 372660 Nota: C1 Vol.: 51
Chanel 4 Note Off - Duracao: 372720 Nota: C1 Vol.: 54
Chanel 4 Note On - Duracao: 372720 Nota: C1 Vol.: 56
Chanel 9 Note Off - Duracao: 372720 Nota: C1 Vol.: 56
Chanel 9 Note On - Duracao: 372720 Nota: C1 Vol.: 56
Chanel 10 Note Off - Duracao: 372840 Nota: C1 Vol.: 62
Chanel 10 Note On - Duracao: 372840 Nota: C1 Vol.: 61
Chanel 3 Note Off - Duracao: 372960 Nota: C1 Vol.: 74
Chanel 3 Note On - Duracao: 372960 Nota: C1 Vol.: 79
Chanel 5 Note Off - Duracao: 372960 Nota: C1 Vol.: 72
Chanel 5 Note On - Duracao: 372960 Nota: C1 Vol.: 72
Chanel 8 Note Off - Duracao: 373020 Nota: C1 Vol.: 45
Chanel 8 Note On - Duracao: 373020 Nota: C1 Vol.: 46
Chanel 6 Note Off - Duracao: 373080 Nota: C1 Vol.: 51
Chanel 6 Note On - Duracao: 373080 Nota: C1 Vol.: 53
Chanel 4 Note Off - Duracao: 373200 Nota: C1 Vol.: 56
Chanel 4 Note On - Duracao: 373200 Nota: C1 Vol.: 68
Chanel 9 Note Off - Duracao: 373200 Nota: C1 Vol.: 56
Chanel 9 Note On - Duracao: 373200 Nota: C1 Vol.: 58
Chanel 10 Note Off - Duracao: 373320 Nota: C1 Vol.: 61
Chanel 10 Note On - Duracao: 373320 Nota: C1 Vol.: 62
Chanel 3 Note Off - Duracao: 373440 Nota: C1 Vol.: 79
Chanel 3 Note On - Duracao: 373440 Nota: C1 Vol.: 77
Chanel 4 Note Off - Duracao: 373440 Nota: C1 Vol.: 68
Chanel 4 Note On - Duracao: 373440 Nota: C1 Vol.: 61
Chanel 5 Note Off - Duracao: 373440 Nota: C1 Vol.: 72
Chanel 5 Note On - Duracao: 373440 Nota: C1 Vol.: 67
Chanel 6 Note Off - Duracao: 373560 Nota: C1 Vol.: 53
Chanel 6 Note On - Duracao: 373560 Nota: C1 Vol.: 51
Chanel 2 Note Off - Duracao: 373620 Nota: C1 Vol.: 51
Chanel 2 Note On - Duracao: 373620 Nota: C1 Vol.: 51
Chanel 5 Note Off - Duracao: 373680 Nota: C1 Vol.: 67
Chanel 5 Note On - Duracao: 373680 Nota: C1 Vol.: 75
Chanel 9 Note Off - Duracao: 373680 Nota: C1 Vol.: 58
Chanel 9 Note On - Duracao: 373680 Nota: C1 Vol.: 55
Chanel 7 Note Off - Duracao: 373740 Nota: C1 Vol.: 71
Chanel 7 Note On - Duracao: 373740 Nota: C1 Vol.: 70
Chanel 5 Note Off - Duracao: 373800 Nota: C1 Vol.: 75
Chanel 5 Note On - Duracao: 373800 Nota: C1 Vol.: 63
Chanel 10 Note Off - Duracao: 373800 Nota: C1 Vol.: 62
Chanel 10 Note On - Duracao: 373800 Nota: C1 Vol.: 60
Chanel 3 Note Off - Duracao: 373920 Nota: C1 Vol.: 77
Chanel 3 Note On - Duracao: 373920 Nota: C1 Vol.: 66
Chanel 4 Note Off - Duracao: 373920 Nota: C1 Vol.: 61
Chanel 4 Note On - Duracao: 373920 Nota: C1 Vol.: 49
Chanel 5 Note Off - Duracao: 374040 Nota: C1 Vol.: 63
Chanel 5 Note On - Duracao: 374040 Nota: C1 Vol.: 56
Chanel 6 Note Off - Duracao: 374040 Nota: C1 Vol.: 51
Chanel 6 Note On - Duracao: 374040 Nota: C1 Vol.: 51
Chanel 2 Note Off - Duracao: 374100 Nota: C1 Vol.: 51
Chanel 2 Note On - Duracao: 374100 Nota: C1 Vol.: 69
Chanel 9 Note Off - Duracao: 374160 Nota: C1 Vol.: 55
Chanel 9 Note On - Duracao: 374160 Nota: C1 Vol.: 56
Chanel 5 Note Off - Duracao: 374280 Nota: C1 Vol.: 56
Chanel 5 Note On - Duracao: 374280 Nota: C1 Vol.: 52
Chanel 10 Note Off - Duracao: 374280 Nota: C1 Vol.: 60
Chanel 10 Note On - Duracao: 374280 Nota: C1 Vol.: 59
Chanel 2 Note Off - Duracao: 374340 Nota: C1 Vol.: 69
Chanel 2 Note On - Duracao: 374340 Nota: C1 Vol.: 79
Chanel 2 Note Off - Duracao: 374460 Nota: C1 Vol.: 79
Chanel 2 Note On - Duracao: 374460 Nota: C1 Vol.: 83
Chanel 6 Note Off - Duracao: 374520 Nota: C1 Vol.: 51
Chanel 6 Note On - Duracao: 374520 Nota: C1 Vol.: 50
Chanel 2 Note Off - Duracao: 374580 Nota: C1 Vol.: 83
Chanel 2 Note On - Duracao: 374580 Nota: C1 Vol.: 71
Chanel 9 Note Off - Duracao: 374640 Nota: C1 Vol.: 56
Chanel 9 Note On - Duracao: 374640 Nota: C1 Vol.: 57
Chanel 2 Note Off - Duracao: 374700 Nota: C1 Vol.: 71
Chanel 2 Note On - Duracao: 374700 Nota: C1 Vol.: 60
Chanel 5 Note Off - Duracao: 374760 Nota: C1 Vol.: 52
Chanel 5 Note On - Duracao: 374760 Nota: C1 Vol.: 57
Chanel 10 Note Off - Duracao: 374760 Nota: C1 Vol.: 59
Chanel 10 Note On - Duracao: 374760 Nota: C1 Vol.: 57
Chanel 3 Note Off - Duracao: 374880 Nota: C1 Vol.: 66
Chanel 3 Note On - Duracao: 374880 Nota: C1 Vol.: 58
Chanel 4 Note Off - Duracao: 374880 Nota: C1 Vol.: 49
Chanel 4 Note On - Duracao: 374880 Nota: C1 Vol.: 47
Chanel 2 Note Off - Duracao: 374940 Nota: C1 Vol.: 60
Chanel 2 Note On - Duracao: 374940 Nota: C1 Vol.: 59
Chanel 8 Note Off - Duracao: 374940 Nota: C1 Vol.: 46
Chanel 8 Note On - Duracao: 374940 Nota: C1 Vol.: 51
Chanel 6 Note Off - Duracao: 375000 Nota: C1 Vol.: 50
Chanel 6 Note On - Duracao: 375000 Nota: C1 Vol.: 40
Chanel 9 Note Off - Duracao: 375120 Nota: C1 Vol.: 57
Chanel 9 Note On - Duracao: 375120 Nota: C1 Vol.: 61
Chanel 2 Note Off - Duracao: 375180 Nota: C1 Vol.: 59
Chanel 2 Note On - Duracao: 375180 Nota: C1 Vol.: 59
Chanel 5 Note Off - Duracao: 375240 Nota: C1 Vol.: 57
Chanel 5 Note On - Duracao: 375240 Nota: C1 Vol.: 56
Chanel 10 Note Off - Duracao: 375240 Nota: C1 Vol.: 57
Chanel 10 Note On - Duracao: 375240 Nota: C1 Vol.: 57
Chanel 9 Note Off - Duracao: 375360 Nota: C1 Vol.: 61
Chanel 9 Note On - Duracao: 375360 Nota: C1 Vol.: 42
Chanel 2 Note Off - Duracao: 375660 Nota: C1 Vol.: 59
Chanel 2 Note On - Duracao: 375660 Nota: C1 Vol.: 74
Chanel 7 Note Off - Duracao: 375660 Nota: C1 Vol.: 70
Chanel 7 Note On - Duracao: 375660 Nota: C1 Vol.: 72
Chanel 5 Note Off - Duracao: 375720 Nota: C1 Vol.: 56
Chanel 5 Note On - Duracao: 375720 Nota: C1 Vol.: 53
Chanel 10 Note Off - Duracao: 375720 Nota: C1 Vol.: 57
Chanel 10 Note On - Duracao: 375720 Nota: C1 Vol.: 61
Chanel 3 Note Off - Duracao: 375840 Nota: C1 Vol.: 58
Chanel 3 Note On - Duracao: 375840 Nota: C1 Vol.: 73
Chanel 4 Note Off - Duracao: 375840 Nota: C1 Vol.: 47
Chanel 4 Note On - Duracao: 375840 Nota: C1 Vol.: 41
Chanel 2 Note Off - Duracao: 375900 Nota: C1 Vol.: 74
Chanel 2 Note On - Duracao: 375900 Nota: C1 Vol.: 80
Chanel 8 Note Off - Duracao: 375900 Nota: C1 Vol.: 51
Chanel 8 Note On - Duracao: 375900 Nota: C1 Vol.: 51
Chanel 2 Note Off - Duracao: 376020 Nota: C1 Vol.: 80
Chanel 2 Note On - Duracao: 376020 Nota: C1 Vol.: 78
Chanel 5 Note Off - Duracao: 376200 Nota: C1 Vol.: 53
Chanel 5 Note On - Duracao: 376200 Nota: C1 Vol.: 45
Chanel 10 Note Off - Duracao: 376200 Nota: C1 Vol.: 61
Chanel 10 Note On - Duracao: 376200 Nota: C1 Vol.: 60
Chanel 2 Note Off - Duracao: 376260 Nota: C1 Vol.: 78
Chanel 2 Note On - Duracao: 376260 Nota: C1 Vol.: 40
Chanel 3 Note Off - Duracao: 376320 Nota: C1 Vol.: 73
Chanel 3 Note On - Duracao: 376320 Nota: C1 Vol.: 95
Chanel 9 Note Off - Duracao: 376320 Nota: C1 Vol.: 42
Chanel 9 Note On - Duracao: 376320 Nota: C1 Vol.: 50
Chanel 3 Note Off - Duracao: 376440 Nota: C1 Vol.: 95
Chanel 3 Note On - Duracao: 376440 Nota: C1 Vol.: 100
Chanel 3 Note Off - Duracao: 376500 Nota: C1 Vol.: 100
Chanel 3 Note On - Duracao: 376500 Nota: C1 Vol.: 96
Chanel 3 Note Off - Duracao: 376560 Nota: C1 Vol.: 96
Chanel 3 Note On - Duracao: 376560 Nota: C1 Vol.: 97
Chanel 3 Note Off - Duracao: 376620 Nota: C1 Vol.: 97
Chanel 3 Note On - Duracao: 376620 Nota: C1 Vol.: 95
Chanel 3 Note Off - Duracao: 376680 Nota: C1 Vol.: 95
Chanel 3 Note On - Duracao: 376680 Nota: C1 Vol.: 96
Chanel 5 Note Off - Duracao: 376680 Nota: C1 Vol.: 45
Chanel 5 Note On - Duracao: 376680 Nota: C1 Vol.: 49
Chanel 10 Note Off - Duracao: 376680 Nota: C1 Vol.: 60
Chanel 10 Note On - Duracao: 376680 Nota: C1 Vol.: 64
Chanel 3 Note Off - Duracao: 376740 Nota: C1 Vol.: 96
Chanel 3 Note On - Duracao: 376740 Nota: C1 Vol.: 96
Chanel 3 Note Off - Duracao: 376800 Nota: C1 Vol.: 96
Chanel 3 Note On - Duracao: 376800 Nota: C1 Vol.: 72
Chanel 9 Note Off - Duracao: 376800 Nota: C1 Vol.: 50
Chanel 9 Note On - Duracao: 376800 Nota: C1 Vol.: 64
Chanel 8 Note Off - Duracao: 376860 Nota: C1 Vol.: 51
Chanel 8 Note On - Duracao: 376860 Nota: C1 Vol.: 48
Chanel 6 Note Off - Duracao: 376920 Nota: C1 Vol.: 40
Chanel 6 Note On - Duracao: 376920 Nota: C1 Vol.: 44
Chanel 3 Note Off - Duracao: 377040 Nota: C1 Vol.: 72
Chanel 3 Note On - Duracao: 377040 Nota: C1 Vol.: 61
Chanel 9 Note Off - Duracao: 377040 Nota: C1 Vol.: 64
Chanel 9 Note On - Duracao: 377040 Nota: C1 Vol.: 70
Chanel 5 Note Off - Duracao: 377160 Nota: C1 Vol.: 49
Chanel 5 Note On - Duracao: 377160 Nota: C1 Vol.: 57
Chanel 9 Note Off - Duracao: 377160 Nota: C1 Vol.: 70
Chanel 9 Note On - Duracao: 377160 Nota: C1 Vol.: 70
Chanel 10 Note Off - Duracao: 377160 Nota: C1 Vol.: 64
Chanel 10 Note On - Duracao: 377160 Nota: C1 Vol.: 67
Chanel 9 Note Off - Duracao: 377280 Nota: C1 Vol.: 70
Chanel 9 Note On - Duracao: 377280 Nota: C1 Vol.: 64
Chanel 9 Note Off - Duracao: 377400 Nota: C1 Vol.: 64
Chanel 9 Note On - Duracao: 377400 Nota: C1 Vol.: 59
Chanel 10 Note Off - Duracao: 377400 Nota: C1 Vol.: 67
Chanel 10 Note On - Duracao: 377400 Nota: C1 Vol.: 65
Chanel 3 Note Off - Duracao: 377520 Nota: C1 Vol.: 61
Chanel 3 Note On - Duracao: 377520 Nota: C1 Vol.: 79
Chanel 9 Note Off - Duracao: 377520 Nota: C1 Vol.: 59
Chanel 9 Note On - Duracao: 377520 Nota: C1 Vol.: 50
Chanel 7 Note Off - Duracao: 377580 Nota: C1 Vol.: 72
Chanel 7 Note On - Duracao: 377580 Nota: C1 Vol.: 72
Chanel 3 Note Off - Duracao: 377640 Nota: C1 Vol.: 79
Chanel 3 Note On - Duracao: 377640 Nota: C1 Vol.: 71
Chanel 5 Note Off - Duracao: 377640 Nota: C1 Vol.: 57
Chanel 5 Note On - Duracao: 377640 Nota: C1 Vol.: 64
Chanel 4 Note Off - Duracao: 377760 Nota: C1 Vol.: 41
Chanel 4 Note On - Duracao: 377760 Nota: C1 Vol.: 64
Chanel 9 Note Off - Duracao: 377760 Nota: C1 Vol.: 50
Chanel 9 Note On - Duracao: 377760 Nota: C1 Vol.: 56
Chanel 8 Note Off - Duracao: 377820 Nota: C1 Vol.: 48
Chanel 8 Note On - Duracao: 377820 Nota: C1 Vol.: 49
Chanel 3 Note Off - Duracao: 377880 Nota: C1 Vol.: 71
Chanel 3 Note On - Duracao: 377880 Nota: C1 Vol.: 73
Chanel 5 Note Off - Duracao: 377880 Nota: C1 Vol.: 64
Chanel 5 Note On - Duracao: 377880 Nota: C1 Vol.: 52
Chanel 6 Note Off - Duracao: 377880 Nota: C1 Vol.: 44
Chanel 6 Note On - Duracao: 377880 Nota: C1 Vol.: 54
Chanel 9 Note Off - Duracao: 377880 Nota: C1 Vol.: 56
Chanel 9 Note On - Duracao: 377880 Nota: C1 Vol.: 50
Chanel 10 Note Off - Duracao: 377880 Nota: C1 Vol.: 65
Chanel 10 Note On - Duracao: 377880 Nota: C1 Vol.: 62
Chanel 3 Note Off - Duracao: 378000 Nota: C1 Vol.: 73
Chanel 3 Note On - Duracao: 378000 Nota: C1 Vol.: 68
Chanel 9 Note Off - Duracao: 378000 Nota: C1 Vol.: 50
Chanel 9 Note On - Duracao: 378000 Nota: C1 Vol.: 48
Chanel 2 Note Off - Duracao: 378180 Nota: C1 Vol.: 40
Chanel 2 Note On - Duracao: 378180 Nota: C1 Vol.: 52
Chanel 3 Note Off - Duracao: 378240 Nota: C1 Vol.: 68
Chanel 3 Note On - Duracao: 378240 Nota: C1 Vol.: 44
Chanel 4 Note Off - Duracao: 378240 Nota: C1 Vol.: 64
Chanel 4 Note On - Duracao: 378240 Nota: C1 Vol.: 63
Chanel 9 Note Off - Duracao: 378240 Nota: C1 Vol.: 48
Chanel 9 Note On - Duracao: 378240 Nota: C1 Vol.: 50
Chanel 5 Note Off - Duracao: 378360 Nota: C1 Vol.: 52
Chanel 5 Note On - Duracao: 378360 Nota: C1 Vol.: 61
Chanel 6 Note Off - Duracao: 378360 Nota: C1 Vol.: 54
Chanel 6 Note On - Duracao: 378360 Nota: C1 Vol.: 56
Chanel 10 Note Off - Duracao: 378360 Nota: C1 Vol.: 62
Chanel 10 Note On - Duracao: 378360 Nota: C1 Vol.: 65
Chanel 2 Note Off - Duracao: 378420 Nota: C1 Vol.: 52
Chanel 2 Note On - Duracao: 378420 Nota: C1 Vol.: 51
Chanel 4 Note Off - Duracao: 378480 Nota: C1 Vol.: 63
Chanel 4 Note On - Duracao: 378480 Nota: C1 Vol.: 60
Chanel 9 Note Off - Duracao: 378480 Nota: C1 Vol.: 50
Chanel 9 Note On - Duracao: 378480 Nota: C1 Vol.: 56
Chanel 5 Note Off - Duracao: 378600 Nota: C1 Vol.: 61
Chanel 5 Note On - Duracao: 378600 Nota: C1 Vol.: 64
Chanel 9 Note Off - Duracao: 378600 Nota: C1 Vol.: 56
Chanel 9 Note On - Duracao: 378600 Nota: C1 Vol.: 54
Chanel 2 Note Off - Duracao: 378660 Nota: C1 Vol.: 51
Chanel 2 Note On - Duracao: 378660 Nota: C1 Vol.: 52
Chanel 4 Note Off - Duracao: 378720 Nota: C1 Vol.: 60
Chanel 4 Note On - Duracao: 378720 Nota: C1 Vol.: 56
Chanel 9 Note Off - Duracao: 378720 Nota: C1 Vol.: 54
Chanel 9 Note On - Duracao: 378720 Nota: C1 Vol.: 53
Chanel 8 Note Off - Duracao: 378780 Nota: C1 Vol.: 49
Chanel 8 Note On - Duracao: 378780 Nota: C1 Vol.: 49
Chanel 5 Note Off - Duracao: 378840 Nota: C1 Vol.: 64
Chanel 5 Note On - Duracao: 378840 Nota: C1 Vol.: 63
Chanel 9 Note Off - Duracao: 378840 Nota: C1 Vol.: 53
Chanel 9 Note On - Duracao: 378840 Nota: C1 Vol.: 54
Chanel 10 Note Off - Duracao: 378840 Nota: C1 Vol.: 65
Chanel 10 Note On - Duracao: 378840 Nota: C1 Vol.: 62
Chanel 2 Note Off - Duracao: 378900 Nota: C1 Vol.: 52
Chanel 2 Note On - Duracao: 378900 Nota: C1 Vol.: 42
Chanel 4 Note Off - Duracao: 378960 Nota: C1 Vol.: 56
Chanel 4 Note On - Duracao: 378960 Nota: C1 Vol.: 56
Chanel 9 Note Off - Duracao: 378960 Nota: C1 Vol.: 54
Chanel 9 Note On - Duracao: 378960 Nota: C1 Vol.: 51
Chanel 5 Note Off - Duracao: 379080 Nota: C1 Vol.: 63
Chanel 5 Note On - Duracao: 379080 Nota: C1 Vol.: 56
Chanel 9 Note Off - Duracao: 379080 Nota: C1 Vol.: 51
Chanel 9 Note On - Duracao: 379080 Nota: C1 Vol.: 43
Chanel 4 Note Off - Duracao: 379200 Nota: C1 Vol.: 56
Chanel 4 Note On - Duracao: 379200 Nota: C1 Vol.: 58
Chanel 6 Note Off - Duracao: 379320 Nota: C1 Vol.: 56
Chanel 6 Note On - Duracao: 379320 Nota: C1 Vol.: 59
Chanel 9 Note Off - Duracao: 379320 Nota: C1 Vol.: 43
Chanel 9 Note On - Duracao: 379320 Nota: C1 Vol.: 49
Chanel 10 Note Off - Duracao: 379320 Nota: C1 Vol.: 62
Chanel 10 Note On - Duracao: 379320 Nota: C1 Vol.: 57
Chanel 2 Note Off - Duracao: 379380 Nota: C1 Vol.: 42
Chanel 2 Note On - Duracao: 379380 Nota: C1 Vol.: 40
Chanel 4 Note Off - Duracao: 379440 Nota: C1 Vol.: 58
Chanel 4 Note On - Duracao: 379440 Nota: C1 Vol.: 60
Chanel 9 Note Off - Duracao: 379440 Nota: C1 Vol.: 49
Chanel 9 Note On - Duracao: 379440 Nota: C1 Vol.: 49
Chanel 7 Note Off - Duracao: 379500 Nota: C1 Vol.: 72
Chanel 7 Note On - Duracao: 379500 Nota: C1 Vol.: 71
Chanel 5 Note Off - Duracao: 379560 Nota: C1 Vol.: 56
Chanel 5 Note On - Duracao: 379560 Nota: C1 Vol.: 52
Chanel 9 Note Off - Duracao: 379560 Nota: C1 Vol.: 49
Chanel 9 Note On - Duracao: 379560 Nota: C1 Vol.: 50
Chanel 8 Note Off - Duracao: 379740 Nota: C1 Vol.: 49
Chanel 8 Note On - Duracao: 379740 Nota: C1 Vol.: 49
Chanel 6 Note Off - Duracao: 379800 Nota: C1 Vol.: 59
Chanel 6 Note On - Duracao: 379800 Nota: C1 Vol.: 50
Chanel 9 Note Off - Duracao: 379800 Nota: C1 Vol.: 50
Chanel 9 Note On - Duracao: 379800 Nota: C1 Vol.: 44
Chanel 4 Note Off - Duracao: 379920 Nota: C1 Vol.: 60
Chanel 4 Note On - Duracao: 379920 Nota: C1 Vol.: 66
Chanel 3 Note Off - Duracao: 380160 Nota: C1 Vol.: 44
Chanel 3 Note On - Duracao: 380160 Nota: C1 Vol.: 40
Chanel 4 Note Off - Duracao: 380160 Nota: C1 Vol.: 66
Chanel 4 Note On - Duracao: 380160 Nota: C1 Vol.: 50
Chanel 6 Note Off - Duracao: 380280 Nota: C1 Vol.: 50
Chanel 6 Note On - Duracao: 380280 Nota: C1 Vol.: 56
Chanel 9 Note Off - Duracao: 380280 Nota: C1 Vol.: 44
Chanel 9 Note On - Duracao: 380280 Nota: C1 Vol.: 55
Chanel 10 Note Off - Duracao: 380280 Nota: C1 Vol.: 57
Chanel 10 Note On - Duracao: 380280 Nota: C1 Vol.: 54
Chanel 5 Note Off - Duracao: 380520 Nota: C1 Vol.: 52
Chanel 5 Note On - Duracao: 380520 Nota: C1 Vol.: 52
Chanel 6 Note Off - Duracao: 380520 Nota: C1 Vol.: 56
Chanel 6 Note On - Duracao: 380520 Nota: C1 Vol.: 56
Chanel 9 Note Off - Duracao: 380520 Nota: C1 Vol.: 55
Chanel 9 Note On - Duracao: 380520 Nota: C1 Vol.: 54
Chanel 8 Note Off - Duracao: 380700 Nota: C1 Vol.: 49
Chanel 8 Note On - Duracao: 380700 Nota: C1 Vol.: 49
Chanel 6 Note Off - Duracao: 380760 Nota: C1 Vol.: 56
Chanel 6 Note On - Duracao: 380760 Nota: C1 Vol.: 55
Chanel 5 Note Off - Duracao: 381000 Nota: C1 Vol.: 52
Chanel 5 Note On - Duracao: 381000 Nota: C1 Vol.: 46
Chanel 6 Note Off - Duracao: 381000 Nota: C1 Vol.: 55
Chanel 6 Note On - Duracao: 381000 Nota: C1 Vol.: 69
Chanel 9 Note Off - Duracao: 381000 Nota: C1 Vol.: 54
Chanel 9 Note On - Duracao: 381000 Nota: C1 Vol.: 46
Chanel 4 Note Off - Duracao: 381120 Nota: C1 Vol.: 50
Chanel 4 Note On - Duracao: 381120 Nota: C1 Vol.: 40
Chanel 6 Note Off - Duracao: 381120 Nota: C1 Vol.: 69
Chanel 6 Note On - Duracao: 381120 Nota: C1 Vol.: 68
Chanel 10 Note Off - Duracao: 381240 Nota: C1 Vol.: 54
Chanel 10 Note On - Duracao: 381240 Nota: C1 Vol.: 59
Chanel 2 Note Off - Duracao: 381300 Nota: C1 Vol.: 40
Chanel 2 Note On - Duracao: 381300 Nota: C1 Vol.: 40
Chanel 6 Note Off - Duracao: 381360 Nota: C1 Vol.: 68
Chanel 6 Note On - Duracao: 381360 Nota: C1 Vol.: 62
Chanel 7 Note Off - Duracao: 381420 Nota: C1 Vol.: 71
Chanel 7 Note On - Duracao: 381420 Nota: C1 Vol.: 72
Chanel 6 Note Off - Duracao: 381600 Nota: C1 Vol.: 62
Chanel 6 Note On - Duracao: 381600 Nota: C1 Vol.: 54
Chanel 8 Note Off - Duracao: 381660 Nota: C1 Vol.: 49
Chanel 8 Note On - Duracao: 381660 Nota: C1 Vol.: 54
Chanel 10 Note Off - Duracao: 381720 Nota: C1 Vol.: 59
Chanel 10 Note On - Duracao: 381720 Nota: C1 Vol.: 59
Chanel 5 Note Off - Duracao: 381960 Nota: C1 Vol.: 46
Chanel 5 Note On - Duracao: 381960 Nota: C1 Vol.: 45
Chanel 9 Note Off - Duracao: 381960 Nota: C1 Vol.: 46
Chanel 9 Note On - Duracao: 381960 Nota: C1 Vol.: 49
Chanel 3 Note Off - Duracao: 382080 Nota: C1 Vol.: 40
Chanel 3 Note On - Duracao: 382080 Nota: C1 Vol.: 44
Chanel 6 Note Off - Duracao: 382080 Nota: C1 Vol.: 54
Chanel 6 Note On - Duracao: 382080 Nota: C1 Vol.: 52
Chanel 8 Note Off - Duracao: 382620 Nota: C1 Vol.: 54
Chanel 8 Note On - Duracao: 382620 Nota: C1 Vol.: 52
Chanel 10 Note Off - Duracao: 382680 Nota: C1 Vol.: 59
Chanel 10 Note On - Duracao: 382680 Nota: C1 Vol.: 58
Chanel 5 Note Off - Duracao: 382920 Nota: C1 Vol.: 45
Chanel 5 Note On - Duracao: 382920 Nota: C1 Vol.: 54
Chanel 9 Note Off - Duracao: 382920 Nota: C1 Vol.: 49
Chanel 9 Note On - Duracao: 382920 Nota: C1 Vol.: 53
Chanel 4 Note Off - Duracao: 383040 Nota: C1 Vol.: 40
Chanel 4 Note On - Duracao: 383040 Nota: C1 Vol.: 64
Chanel 6 Note Off - Duracao: 383040 Nota: C1 Vol.: 52
Chanel 6 Note On - Duracao: 383040 Nota: C1 Vol.: 43
Chanel 4 Note Off - Duracao: 383280 Nota: C1 Vol.: 64
Chanel 4 Note On - Duracao: 383280 Nota: C1 Vol.: 61
Chanel 7 Note Off - Duracao: 383340 Nota: C1 Vol.: 72
Chanel 7 Note On - Duracao: 383340 Nota: C1 Vol.: 72
Chanel 5 Note Off - Duracao: 383400 Nota: C1 Vol.: 54
Chanel 5 Note On - Duracao: 383400 Nota: C1 Vol.: 54
Chanel 8 Note Off - Duracao: 383580 Nota: C1 Vol.: 52
Chanel 8 Note On - Duracao: 383580 Nota: C1 Vol.: 53
Chanel 10 Note Off - Duracao: 383640 Nota: C1 Vol.: 58
Chanel 10 Note On - Duracao: 383640 Nota: C1 Vol.: 53
Chanel 4 Note Off - Duracao: 383760 Nota: C1 Vol.: 61
Chanel 4 Note On - Duracao: 383760 Nota: C1 Vol.: 41
Chanel 5 Note Off - Duracao: 383880 Nota: C1 Vol.: 54
Chanel 5 Note On - Duracao: 383880 Nota: C1 Vol.: 56
Chanel 9 Note Off - Duracao: 383880 Nota: C1 Vol.: 53
Chanel 9 Note On - Duracao: 383880 Nota: C1 Vol.: 58
Chanel 3 Note Off - Duracao: 384000 Nota: C1 Vol.: 44
Chanel 3 Note On - Duracao: 384000 Nota: C1 Vol.: 43
Chanel 8 Note Off - Duracao: 384060 Nota: C1 Vol.: 53
Chanel 8 Note On - Duracao: 384060 Nota: C1 Vol.: 40
Chanel 5 Note Off - Duracao: 384360 Nota: C1 Vol.: 56
Chanel 5 Note On - Duracao: 384360 Nota: C1 Vol.: 57
Chanel 9 Note Off - Duracao: 384360 Nota: C1 Vol.: 58
Chanel 9 Note On - Duracao: 384360 Nota: C1 Vol.: 50
Chanel 10 Note Off - Duracao: 384600 Nota: C1 Vol.: 53
Chanel 10 Note On - Duracao: 384600 Nota: C1 Vol.: 58
Chanel 5 Note Off - Duracao: 384840 Nota: C1 Vol.: 57
Chanel 5 Note On - Duracao: 384840 Nota: C1 Vol.: 49
Chanel 3 Note Off - Duracao: 384960 Nota: C1 Vol.: 43
Chanel 3 Note On - Duracao: 384960 Nota: C1 Vol.: 40
Chanel 6 Note Off - Duracao: 384960 Nota: C1 Vol.: 43
Chanel 6 Note On - Duracao: 384960 Nota: C1 Vol.: 56
Chanel 2 Note Off - Duracao: 385140 Nota: C1 Vol.: 40
Chanel 2 Note On - Duracao: 385140 Nota: C1 Vol.: 44
Chanel 7 Note Off - Duracao: 385260 Nota: C1 Vol.: 72
Chanel 7 Note On - Duracao: 385260 Nota: C1 Vol.: 73
Chanel 9 Note Off - Duracao: 385320 Nota: C1 Vol.: 50
Chanel 9 Note On - Duracao: 385320 Nota: C1 Vol.: 54
Chanel 10 Note Off - Duracao: 385560 Nota: C1 Vol.: 58
Chanel 10 Note On - Duracao: 385560 Nota: C1 Vol.: 61
Chanel 5 Note Off - Duracao: 385800 Nota: C1 Vol.: 49
Chanel 5 Note On - Duracao: 385800 Nota: C1 Vol.: 66
Chanel 9 Note Off - Duracao: 385800 Nota: C1 Vol.: 54
Chanel 9 Note On - Duracao: 385800 Nota: C1 Vol.: 54
Chanel 8 Note Off - Duracao: 385980 Nota: C1 Vol.: 40
Chanel 8 Note On - Duracao: 385980 Nota: C1 Vol.: 65
Chanel 10 Note Off - Duracao: 386040 Nota: C1 Vol.: 61
Chanel 10 Note On - Duracao: 386040 Nota: C1 Vol.: 60
Chanel 8 Note Off - Duracao: 386220 Nota: C1 Vol.: 65
Chanel 8 Note On - Duracao: 386220 Nota: C1 Vol.: 65
Chanel 5 Note Off - Duracao: 386280 Nota: C1 Vol.: 66
Chanel 5 Note On - Duracao: 386280 Nota: C1 Vol.: 74
Chanel 9 Note Off - Duracao: 386280 Nota: C1 Vol.: 54
Chanel 9 Note On - Duracao: 386280 Nota: C1 Vol.: 52
Chanel 8 Note Off - Duracao: 386460 Nota: C1 Vol.: 65
Chanel 8 Note On - Duracao: 386460 Nota: C1 Vol.: 50
Chanel 10 Note Off - Duracao: 386520 Nota: C1 Vol.: 60
Chanel 10 Note On - Duracao: 386520 Nota: C1 Vol.: 67
Chanel 5 Note Off - Duracao: 386760 Nota: C1 Vol.: 74
Chanel 5 Note On - Duracao: 386760 Nota: C1 Vol.: 73
Chanel 9 Note Off - Duracao: 386760 Nota: C1 Vol.: 52
Chanel 9 Note On - Duracao: 386760 Nota: C1 Vol.: 54
Chanel 3 Note Off - Duracao: 386880 Nota: C1 Vol.: 40
Chanel 3 Note On - Duracao: 386880 Nota: C1 Vol.: 50
Chanel 6 Note Off - Duracao: 386880 Nota: C1 Vol.: 56
Chanel 6 Note On - Duracao: 386880 Nota: C1 Vol.: 58
Chanel 8 Note Off - Duracao: 386940 Nota: C1 Vol.: 50
Chanel 8 Note On - Duracao: 386940 Nota: C1 Vol.: 47
Chanel 10 Note Off - Duracao: 387000 Nota: C1 Vol.: 67
Chanel 10 Note On - Duracao: 387000 Nota: C1 Vol.: 69
Chanel 2 Note Off - Duracao: 387060 Nota: C1 Vol.: 44
Chanel 2 Note On - Duracao: 387060 Nota: C1 Vol.: 49
Chanel 7 Note Off - Duracao: 387180 Nota: C1 Vol.: 73
Chanel 7 Note On - Duracao: 387180 Nota: C1 Vol.: 71
Chanel 5 Note Off - Duracao: 387240 Nota: C1 Vol.: 73
Chanel 5 Note On - Duracao: 387240 Nota: C1 Vol.: 91
Chanel 9 Note Off - Duracao: 387240 Nota: C1 Vol.: 54
Chanel 9 Note On - Duracao: 387240 Nota: C1 Vol.: 59
Chanel 5 Note Off - Duracao: 387360 Nota: C1 Vol.: 91
Chanel 5 Note On - Duracao: 387360 Nota: C1 Vol.: 74
Chanel 10 Note Off - Duracao: 387480 Nota: C1 Vol.: 69
Chanel 10 Note On - Duracao: 387480 Nota: C1 Vol.: 67
Chanel 4 Note Off - Duracao: 387600 Nota: C1 Vol.: 41
Chanel 4 Note On - Duracao: 387600 Nota: C1 Vol.: 70
Chanel 9 Note Off - Duracao: 387720 Nota: C1 Vol.: 59
Chanel 9 Note On - Duracao: 387720 Nota: C1 Vol.: 53
Chanel 3 Note Off - Duracao: 387840 Nota: C1 Vol.: 50
Chanel 3 Note On - Duracao: 387840 Nota: C1 Vol.: 40
Chanel 5 Note Off - Duracao: 387840 Nota: C1 Vol.: 74
Chanel 5 Note On - Duracao: 387840 Nota: C1 Vol.: 88
Chanel 8 Note Off - Duracao: 387900 Nota: C1 Vol.: 47
Chanel 8 Note On - Duracao: 387900 Nota: C1 Vol.: 60
Chanel 5 Note Off - Duracao: 387960 Nota: C1 Vol.: 88
Chanel 5 Note On - Duracao: 387960 Nota: C1 Vol.: 94
Chanel 10 Note Off - Duracao: 387960 Nota: C1 Vol.: 67
Chanel 10 Note On - Duracao: 387960 Nota: C1 Vol.: 69
Chanel 4 Note Off - Duracao: 388080 Nota: C1 Vol.: 70
Chanel 4 Note On - Duracao: 388080 Nota: C1 Vol.: 80
Chanel 5 Note Off - Duracao: 388080 Nota: C1 Vol.: 94
Chanel 5 Note On - Duracao: 388080 Nota: C1 Vol.: 71
Chanel 8 Note Off - Duracao: 388140 Nota: C1 Vol.: 60
Chanel 8 Note On - Duracao: 388140 Nota: C1 Vol.: 58
Chanel 9 Note Off - Duracao: 388200 Nota: C1 Vol.: 53
Chanel 9 Note On - Duracao: 388200 Nota: C1 Vol.: 48
Chanel 4 Note Off - Duracao: 388320 Nota: C1 Vol.: 80
Chanel 4 Note On - Duracao: 388320 Nota: C1 Vol.: 78
Chanel 10 Note Off - Duracao: 388440 Nota: C1 Vol.: 69
Chanel 10 Note On - Duracao: 388440 Nota: C1 Vol.: 73
Chanel 4 Note Off - Duracao: 388560 Nota: C1 Vol.: 78
Chanel 4 Note On - Duracao: 388560 Nota: C1 Vol.: 90
Chanel 5 Note Off - Duracao: 388560 Nota: C1 Vol.: 71
Chanel 5 Note On - Duracao: 388560 Nota: C1 Vol.: 52
Chanel 8 Note Off - Duracao: 388620 Nota: C1 Vol.: 58
Chanel 8 Note On - Duracao: 388620 Nota: C1 Vol.: 65
Chanel 4 Note Off - Duracao: 388680 Nota: C1 Vol.: 90
Chanel 4 Note On - Duracao: 388680 Nota: C1 Vol.: 90
Chanel 4 Note Off - Duracao: 388800 Nota: C1 Vol.: 90
Chanel 4 Note On - Duracao: 388800 Nota: C1 Vol.: 59
Chanel 6 Note Off - Duracao: 388800 Nota: C1 Vol.: 58
Chanel 6 Note On - Duracao: 388800 Nota: C1 Vol.: 52
Chanel 8 Note Off - Duracao: 388860 Nota: C1 Vol.: 65
Chanel 8 Note On - Duracao: 388860 Nota: C1 Vol.: 74
Chanel 10 Note Off - Duracao: 388920 Nota: C1 Vol.: 73
Chanel 10 Note On - Duracao: 388920 Nota: C1 Vol.: 77
Chanel 2 Note Off - Duracao: 388980 Nota: C1 Vol.: 49
Chanel 2 Note On - Duracao: 388980 Nota: C1 Vol.: 48
Chanel 7 Note Off - Duracao: 389100 Nota: C1 Vol.: 71
Chanel 7 Note On - Duracao: 389100 Nota: C1 Vol.: 70
Chanel 9 Note Off - Duracao: 389160 Nota: C1 Vol.: 48
Chanel 9 Note On - Duracao: 389160 Nota: C1 Vol.: 54
Chanel 10 Note Off - Duracao: 389160 Nota: C1 Vol.: 77
Chanel 10 Note On - Duracao: 389160 Nota: C1 Vol.: 79
Chanel 8 Note Off - Duracao: 389340 Nota: C1 Vol.: 74
Chanel 8 Note On - Duracao: 389340 Nota: C1 Vol.: 64
Chanel 10 Note Off - Duracao: 389400 Nota: C1 Vol.: 79
Chanel 10 Note On - Duracao: 389400 Nota: C1 Vol.: 85
Chanel 9 Note Off - Duracao: 389640 Nota: C1 Vol.: 54
Chanel 9 Note On - Duracao: 389640 Nota: C1 Vol.: 51
Chanel 10 Note Off - Duracao: 389640 Nota: C1 Vol.: 85
Chanel 10 Note On - Duracao: 389640 Nota: C1 Vol.: 86
Chanel 3 Note Off - Duracao: 389760 Nota: C1 Vol.: 40
Chanel 3 Note On - Duracao: 389760 Nota: C1 Vol.: 40
Chanel 4 Note Off - Duracao: 389760 Nota: C1 Vol.: 59
Chanel 4 Note On - Duracao: 389760 Nota: C1 Vol.: 46
Chanel 8 Note Off - Duracao: 389820 Nota: C1 Vol.: 64
Chanel 8 Note On - Duracao: 389820 Nota: C1 Vol.: 77
Chanel 10 Note Off - Duracao: 389880 Nota: C1 Vol.: 86
Chanel 10 Note On - Duracao: 389880 Nota: C1 Vol.: 85
Chanel 8 Note Off - Duracao: 390060 Nota: C1 Vol.: 77
Chanel 8 Note On - Duracao: 390060 Nota: C1 Vol.: 71
Chanel 9 Note Off - Duracao: 390120 Nota: C1 Vol.: 51
Chanel 9 Note On - Duracao: 390120 Nota: C1 Vol.: 52
Chanel 10 Note Off - Duracao: 390120 Nota: C1 Vol.: 85
Chanel 10 Note On - Duracao: 390120 Nota: C1 Vol.: 85
Chanel 8 Note Off - Duracao: 390300 Nota: C1 Vol.: 71
Chanel 8 Note On - Duracao: 390300 Nota: C1 Vol.: 73
Chanel 10 Note Off - Duracao: 390360 Nota: C1 Vol.: 85
Chanel 10 Note On - Duracao: 390360 Nota: C1 Vol.: 84
Chanel 5 Note Off - Duracao: 390480 Nota: C1 Vol.: 52
Chanel 5 Note On - Duracao: 390480 Nota: C1 Vol.: 48
Chanel 8 Note Off - Duracao: 390540 Nota: C1 Vol.: 73
Chanel 8 Note On - Duracao: 390540 Nota: C1 Vol.: 70
Chanel 9 Note Off - Duracao: 390600 Nota: C1 Vol.: 52
Chanel 9 Note On - Duracao: 390600 Nota: C1 Vol.: 59
Chanel 10 Note Off - Duracao: 390600 Nota: C1 Vol.: 84
Chanel 10 Note On - Duracao: 390600 Nota: C1 Vol.: 85
Chanel 8 Note Off - Duracao: 390780 Nota: C1 Vol.: 70
Chanel 8 Note On - Duracao: 390780 Nota: C1 Vol.: 80
Chanel 9 Note Off - Duracao: 390840 Nota: C1 Vol.: 59
Chanel 9 Note On - Duracao: 390840 Nota: C1 Vol.: 65
Chanel 10 Note Off - Duracao: 390840 Nota: C1 Vol.: 85
Chanel 10 Note On - Duracao: 390840 Nota: C1 Vol.: 84
Chanel 2 Note Off - Duracao: 390900 Nota: C1 Vol.: 48
Chanel 2 Note On - Duracao: 390900 Nota: C1 Vol.: 46
Chanel 9 Note Off - Duracao: 390960 Nota: C1 Vol.: 65
Chanel 9 Note On - Duracao: 390960 Nota: C1 Vol.: 60
Chanel 7 Note Off - Duracao: 391020 Nota: C1 Vol.: 70
Chanel 7 Note On - Duracao: 391020 Nota: C1 Vol.: 71
Chanel 8 Note Off - Duracao: 391020 Nota: C1 Vol.: 80
Chanel 8 Note On - Duracao: 391020 Nota: C1 Vol.: 86
Chanel 10 Note Off - Duracao: 391080 Nota: C1 Vol.: 84
Chanel 10 Note On - Duracao: 391080 Nota: C1 Vol.: 83
Chanel 8 Note Off - Duracao: 391140 Nota: C1 Vol.: 86
Chanel 8 Note On - Duracao: 391140 Nota: C1 Vol.: 92
Chanel 9 Note Off - Duracao: 391200 Nota: C1 Vol.: 60
Chanel 9 Note On - Duracao: 391200 Nota: C1 Vol.: 61
Chanel 8 Note Off - Duracao: 391260 Nota: C1 Vol.: 92
Chanel 8 Note On - Duracao: 391260 Nota: C1 Vol.: 98
Chanel 8 Note Off - Duracao: 391320 Nota: C1 Vol.: 98
Chanel 8 Note On - Duracao: 391320 Nota: C1 Vol.: 92
Chanel 10 Note Off - Duracao: 391320 Nota: C1 Vol.: 83
Chanel 10 Note On - Duracao: 391320 Nota: C1 Vol.: 83
Chanel 8 Note Off - Duracao: 391380 Nota: C1 Vol.: 92
Chanel 8 Note On - Duracao: 391380 Nota: C1 Vol.: 94
Chanel 8 Note Off - Duracao: 391440 Nota: C1 Vol.: 94
Chanel 8 Note On - Duracao: 391440 Nota: C1 Vol.: 92
Chanel 9 Note Off - Duracao: 391440 Nota: C1 Vol.: 61
Chanel 9 Note On - Duracao: 391440 Nota: C1 Vol.: 53
Chanel 8 Note Off - Duracao: 391500 Nota: C1 Vol.: 92
Chanel 8 Note On - Duracao: 391500 Nota: C1 Vol.: 86
Chanel 10 Note Off - Duracao: 391560 Nota: C1 Vol.: 83
Chanel 10 Note On - Duracao: 391560 Nota: C1 Vol.: 85
Chanel 8 Note Off - Duracao: 391620 Nota: C1 Vol.: 86
Chanel 8 Note On - Duracao: 391620 Nota: C1 Vol.: 93
Chanel 3 Note Off - Duracao: 391680 Nota: C1 Vol.: 40
Chanel 3 Note On - Duracao: 391680 Nota: C1 Vol.: 75
Chanel 8 Note Off - Duracao: 391680 Nota: C1 Vol.: 93
Chanel 8 Note On - Duracao: 391680 Nota: C1 Vol.: 94
Chanel 9 Note Off - Duracao: 391680 Nota: C1 Vol.: 53
Chanel 9 Note On - Duracao: 391680 Nota: C1 Vol.: 52
Chanel 8 Note Off - Duracao: 391740 Nota: C1 Vol.: 94
Chanel 8 Note On - Duracao: 391740 Nota: C1 Vol.: 61
Chanel 10 Note Off - Duracao: 391800 Nota: C1 Vol.: 85
Chanel 10 Note On - Duracao: 391800 Nota: C1 Vol.: 85
Chanel 3 Note Off - Duracao: 391920 Nota: C1 Vol.: 75
Chanel 3 Note On - Duracao: 391920 Nota: C1 Vol.: 86
Chanel 9 Note Off - Duracao: 391920 Nota: C1 Vol.: 52
Chanel 9 Note On - Duracao: 391920 Nota: C1 Vol.: 56
Chanel 3 Note Off - Duracao: 392040 Nota: C1 Vol.: 86
Chanel 3 Note On - Duracao: 392040 Nota: C1 Vol.: 90
Chanel 10 Note Off - Duracao: 392040 Nota: C1 Vol.: 85
Chanel 10 Note On - Duracao: 392040 Nota: C1 Vol.: 81
Chanel 3 Note Off - Duracao: 392160 Nota: C1 Vol.: 90
Chanel 3 Note On - Duracao: 392160 Nota: C1 Vol.: 98
Chanel 9 Note Off - Duracao: 392160 Nota: C1 Vol.: 56
Chanel 9 Note On - Duracao: 392160 Nota: C1 Vol.: 61
Chanel 3 Note Off - Duracao: 392220 Nota: C1 Vol.: 98
Chanel 3 Note On - Duracao: 392220 Nota: C1 Vol.: 99
Chanel 3 Note Off - Duracao: 392280 Nota: C1 Vol.: 99
Chanel 3 Note On - Duracao: 392280 Nota: C1 Vol.: 100
Chanel 10 Note Off - Duracao: 392280 Nota: C1 Vol.: 81
Chanel 10 Note On - Duracao: 392280 Nota: C1 Vol.: 76
Chanel 3 Note Off - Duracao: 392340 Nota: C1 Vol.: 100
Chanel 3 Note On - Duracao: 392340 Nota: C1 Vol.: 99
Chanel 3 Note Off - Duracao: 392400 Nota: C1 Vol.: 99
Chanel 3 Note On - Duracao: 392400 Nota: C1 Vol.: 100
Chanel 5 Note Off - Duracao: 392400 Nota: C1 Vol.: 48
Chanel 5 Note On - Duracao: 392400 Nota: C1 Vol.: 54
Chanel 9 Note Off - Duracao: 392400 Nota: C1 Vol.: 61
Chanel 9 Note On - Duracao: 392400 Nota: C1 Vol.: 61
Chanel 3 Note Off - Duracao: 392460 Nota: C1 Vol.: 100
Chanel 3 Note On - Duracao: 392460 Nota: C1 Vol.: 99
Chanel 3 Note Off - Duracao: 392520 Nota: C1 Vol.: 99
Chanel 3 Note On - Duracao: 392520 Nota: C1 Vol.: 61
Chanel 6 Note Off - Duracao: 392640 Nota: C1 Vol.: 52
Chanel 6 Note On - Duracao: 392640 Nota: C1 Vol.: 53
Chanel 9 Note Off - Duracao: 392640 Nota: C1 Vol.: 61
Chanel 9 Note On - Duracao: 392640 Nota: C1 Vol.: 64
Chanel 8 Note Off - Duracao: 392700 Nota: C1 Vol.: 61
Chanel 8 Note On - Duracao: 392700 Nota: C1 Vol.: 59
Chanel 9 Note Off - Duracao: 392760 Nota: C1 Vol.: 64
Chanel 9 Note On - Duracao: 392760 Nota: C1 Vol.: 65
Chanel 10 Note Off - Duracao: 392760 Nota: C1 Vol.: 76
Chanel 10 Note On - Duracao: 392760 Nota: C1 Vol.: 75
Chanel 2 Note Off - Duracao: 392820 Nota: C1 Vol.: 46
Chanel 2 Note On - Duracao: 392820 Nota: C1 Vol.: 44
Chanel 9 Note Off - Duracao: 392880 Nota: C1 Vol.: 65
Chanel 9 Note On - Duracao: 392880 Nota: C1 Vol.: 64
Chanel 7 Note Off - Duracao: 392940 Nota: C1 Vol.: 71
Chanel 7 Note On - Duracao: 392940 Nota: C1 Vol.: 71
Chanel 9 Note Off - Duracao: 393000 Nota: C1 Vol.: 64
Chanel 9 Note On - Duracao: 393000 Nota: C1 Vol.: 62
Chanel 9 Note Off - Duracao: 393240 Nota: C1 Vol.: 62
Chanel 9 Note On - Duracao: 393240 Nota: C1 Vol.: 64
Chanel 10 Note Off - Duracao: 393240 Nota: C1 Vol.: 75
Chanel 10 Note On - Duracao: 393240 Nota: C1 Vol.: 72
Chanel 5 Note Off - Duracao: 393360 Nota: C1 Vol.: 54
Chanel 5 Note On - Duracao: 393360 Nota: C1 Vol.: 45
Chanel 9 Note Off - Duracao: 393360 Nota: C1 Vol.: 64
Chanel 9 Note On - Duracao: 393360 Nota: C1 Vol.: 58
Chanel 3 Note Off - Duracao: 393480 Nota: C1 Vol.: 61
Chanel 3 Note On - Duracao: 393480 Nota: C1 Vol.: 44
Chanel 4 Note Off - Duracao: 393600 Nota: C1 Vol.: 46
Chanel 4 Note On - Duracao: 393600 Nota: C1 Vol.: 58
Chanel 9 Note Off - Duracao: 393600 Nota: C1 Vol.: 58
Chanel 9 Note On - Duracao: 393600 Nota: C1 Vol.: 54
Chanel 8 Note Off - Duracao: 393660 Nota: C1 Vol.: 59
Chanel 8 Note On - Duracao: 393660 Nota: C1 Vol.: 65
Chanel 10 Note Off - Duracao: 393720 Nota: C1 Vol.: 72
Chanel 10 Note On - Duracao: 393720 Nota: C1 Vol.: 65
Chanel 9 Note Off - Duracao: 394080 Nota: C1 Vol.: 54
Chanel 9 Note On - Duracao: 394080 Nota: C1 Vol.: 51
Chanel 10 Note Off - Duracao: 394200 Nota: C1 Vol.: 65
Chanel 10 Note On - Duracao: 394200 Nota: C1 Vol.: 62
Chanel 5 Note Off - Duracao: 394320 Nota: C1 Vol.: 45
Chanel 5 Note On - Duracao: 394320 Nota: C1 Vol.: 41
Chanel 9 Note Off - Duracao: 394560 Nota: C1 Vol.: 51
Chanel 9 Note On - Duracao: 394560 Nota: C1 Vol.: 54
Chanel 8 Note Off - Duracao: 394620 Nota: C1 Vol.: 65
Chanel 8 Note On - Duracao: 394620 Nota: C1 Vol.: 67
Chanel 2 Note Off - Duracao: 394740 Nota: C1 Vol.: 44
Chanel 2 Note On - Duracao: 394740 Nota: C1 Vol.: 70
Chanel 7 Note Off - Duracao: 394860 Nota: C1 Vol.: 71
Chanel 7 Note On - Duracao: 394860 Nota: C1 Vol.: 70
Chanel 9 Note Off - Duracao: 395040 Nota: C1 Vol.: 54
Chanel 9 Note On - Duracao: 395040 Nota: C1 Vol.: 60
Chanel 8 Note Off - Duracao: 395100 Nota: C1 Vol.: 67
Chanel 8 Note On - Duracao: 395100 Nota: C1 Vol.: 95
Chanel 10 Note Off - Duracao: 395160 Nota: C1 Vol.: 62
Chanel 10 Note On - Duracao: 395160 Nota: C1 Vol.: 61
Chanel 2 Note Off - Duracao: 395220 Nota: C1 Vol.: 70
Chanel 2 Note On - Duracao: 395220 Nota: C1 Vol.: 83
Chanel 8 Note Off - Duracao: 395220 Nota: C1 Vol.: 95
Chanel 8 Note On - Duracao: 395220 Nota: C1 Vol.: 67
Chanel 5 Note Off - Duracao: 395280 Nota: C1 Vol.: 41
Chanel 5 Note On - Duracao: 395280 Nota: C1 Vol.: 50
Chanel 2 Note Off - Duracao: 395340 Nota: C1 Vol.: 83
Chanel 2 Note On - Duracao: 395340 Nota: C1 Vol.: 82
Chanel 3 Note Off - Duracao: 395400 Nota: C1 Vol.: 44
Chanel 3 Note On - Duracao: 395400 Nota: C1 Vol.: 83
Chanel 2 Note Off - Duracao: 395460 Nota: C1 Vol.: 82
Chanel 2 Note On - Duracao: 395460 Nota: C1 Vol.: 81
Chanel 4 Note Off - Duracao: 395520 Nota: C1 Vol.: 58
Chanel 4 Note On - Duracao: 395520 Nota: C1 Vol.: 63
Chanel 9 Note Off - Duracao: 395520 Nota: C1 Vol.: 60
Chanel 9 Note On - Duracao: 395520 Nota: C1 Vol.: 67
Chanel 2 Note Off - Duracao: 395580 Nota: C1 Vol.: 81
Chanel 2 Note On - Duracao: 395580 Nota: C1 Vol.: 82
Chanel 3 Note Off - Duracao: 395640 Nota: C1 Vol.: 83
Chanel 3 Note On - Duracao: 395640 Nota: C1 Vol.: 79
Chanel 2 Note Off - Duracao: 395700 Nota: C1 Vol.: 82
Chanel 2 Note On - Duracao: 395700 Nota: C1 Vol.: 84
Chanel 2 Note Off - Duracao: 395760 Nota: C1 Vol.: 84
Chanel 2 Note On - Duracao: 395760 Nota: C1 Vol.: 84
Chanel 5 Note Off - Duracao: 395760 Nota: C1 Vol.: 50
Chanel 5 Note On - Duracao: 395760 Nota: C1 Vol.: 63
Chanel 9 Note Off - Duracao: 395760 Nota: C1 Vol.: 67
Chanel 9 Note On - Duracao: 395760 Nota: C1 Vol.: 71
Chanel 2 Note Off - Duracao: 395880 Nota: C1 Vol.: 84
Chanel 2 Note On - Duracao: 395880 Nota: C1 Vol.: 88
Chanel 2 Note Off - Duracao: 395940 Nota: C1 Vol.: 88
Chanel 2 Note On - Duracao: 395940 Nota: C1 Vol.: 90
Chanel 2 Note Off - Duracao: 396000 Nota: C1 Vol.: 90
Chanel 2 Note On - Duracao: 396000 Nota: C1 Vol.: 88
Chanel 5 Note Off - Duracao: 396000 Nota: C1 Vol.: 63
Chanel 5 Note On - Duracao: 396000 Nota: C1 Vol.: 65
Chanel 9 Note Off - Duracao: 396000 Nota: C1 Vol.: 71
Chanel 9 Note On - Duracao: 396000 Nota: C1 Vol.: 72
Chanel 2 Note Off - Duracao: 396060 Nota: C1 Vol.: 88
Chanel 2 Note On - Duracao: 396060 Nota: C1 Vol.: 65
Chanel 3 Note Off - Duracao: 396120 Nota: C1 Vol.: 79
Chanel 3 Note On - Duracao: 396120 Nota: C1 Vol.: 91
Chanel 10 Note Off - Duracao: 396120 Nota: C1 Vol.: 61
Chanel 10 Note On - Duracao: 396120 Nota: C1 Vol.: 66
Chanel 8 Note Off - Duracao: 396180 Nota: C1 Vol.: 67
Chanel 8 Note On - Duracao: 396180 Nota: C1 Vol.: 59
Chanel 3 Note Off - Duracao: 396240 Nota: C1 Vol.: 91
Chanel 3 Note On - Duracao: 396240 Nota: C1 Vol.: 100
Chanel 5 Note Off - Duracao: 396240 Nota: C1 Vol.: 65
Chanel 5 Note On - Duracao: 396240 Nota: C1 Vol.: 67
Chanel 9 Note Off - Duracao: 396240 Nota: C1 Vol.: 72
Chanel 9 Note On - Duracao: 396240 Nota: C1 Vol.: 73
Chanel 2 Note Off - Duracao: 396300 Nota: C1 Vol.: 65
Chanel 2 Note On - Duracao: 396300 Nota: C1 Vol.: 40
Chanel 3 Note Off - Duracao: 396300 Nota: C1 Vol.: 100
Chanel 3 Note On - Duracao: 396300 Nota: C1 Vol.: 100
Chanel 3 Note Off - Duracao: 396360 Nota: C1 Vol.: 100
Chanel 3 Note On - Duracao: 396360 Nota: C1 Vol.: 100
Chanel 3 Note Off - Duracao: 396420 Nota: C1 Vol.: 100
Chanel 3 Note On - Duracao: 396420 Nota: C1 Vol.: 99
Chanel 3 Note Off - Duracao: 396480 Nota: C1 Vol.: 99
Chanel 3 Note On - Duracao: 396480 Nota: C1 Vol.: 98
Chanel 4 Note Off - Duracao: 396480 Nota: C1 Vol.: 63
Chanel 4 Note On - Duracao: 396480 Nota: C1 Vol.: 65
Chanel 5 Note Off - Duracao: 396480 Nota: C1 Vol.: 67
Chanel 5 Note On - Duracao: 396480 Nota: C1 Vol.: 40
Chanel 6 Note Off - Duracao: 396480 Nota: C1 Vol.: 53
Chanel 6 Note On - Duracao: 396480 Nota: C1 Vol.: 56
Chanel 9 Note Off - Duracao: 396480 Nota: C1 Vol.: 73
Chanel 9 Note On - Duracao: 396480 Nota: C1 Vol.: 69
Chanel 3 Note Off - Duracao: 396540 Nota: C1 Vol.: 98
Chanel 3 Note On - Duracao: 396540 Nota: C1 Vol.: 91
Chanel 10 Note Off - Duracao: 396600 Nota: C1 Vol.: 66
Chanel 10 Note On - Duracao: 396600 Nota: C1 Vol.: 63
Chanel 3 Note Off - Duracao: 396660 Nota: C1 Vol.: 91
Chanel 3 Note On - Duracao: 396660 Nota: C1 Vol.: 78
Chanel 7 Note Off - Duracao: 396780 Nota: C1 Vol.: 70
Chanel 7 Note On - Duracao: 396780 Nota: C1 Vol.: 64
Chanel 9 Note Off - Duracao: 396960 Nota: C1 Vol.: 69
Chanel 9 Note On - Duracao: 396960 Nota: C1 Vol.: 71
Chanel 10 Note Off - Duracao: 397080 Nota: C1 Vol.: 63
Chanel 10 Note On - Duracao: 397080 Nota: C1 Vol.: 53
Chanel 3 Note Off - Duracao: 397140 Nota: C1 Vol.: 78
Chanel 3 Note On - Duracao: 397140 Nota: C1 Vol.: 77
Chanel 8 Note Off - Duracao: 397140 Nota: C1 Vol.: 59
Chanel 8 Note On - Duracao: 397140 Nota: C1 Vol.: 60
Chanel 3 Note Off - Duracao: 397380 Nota: C1 Vol.: 77
Chanel 3 Note On - Duracao: 397380 Nota: C1 Vol.: 74
Chanel 4 Note Off - Duracao: 397440 Nota: C1 Vol.: 65
Chanel 4 Note On - Duracao: 397440 Nota: C1 Vol.: 65
Chanel 9 Note Off - Duracao: 397440 Nota: C1 Vol.: 71
Chanel 9 Note On - Duracao: 397440 Nota: C1 Vol.: 74
Chanel 3 Note Off - Duracao: 397620 Nota: C1 Vol.: 74
Chanel 3 Note On - Duracao: 397620 Nota: C1 Vol.: 69
Chanel 9 Note Off - Duracao: 397920 Nota: C1 Vol.: 74
Chanel 9 Note On - Duracao: 397920 Nota: C1 Vol.: 69
Chanel 10 Note Off - Duracao: 398040 Nota: C1 Vol.: 53
Chanel 10 Note On - Duracao: 398040 Nota: C1 Vol.: 53
Chanel 3 Note Off - Duracao: 398100 Nota: C1 Vol.: 69
Chanel 3 Note On - Duracao: 398100 Nota: C1 Vol.: 76
Chanel 8 Note Off - Duracao: 398100 Nota: C1 Vol.: 60
Chanel 8 Note On - Duracao: 398100 Nota: C1 Vol.: 62
Chanel 3 Note Off - Duracao: 398340 Nota: C1 Vol.: 76
Chanel 3 Note On - Duracao: 398340 Nota: C1 Vol.: 73
Chanel 4 Note Off - Duracao: 398400 Nota: C1 Vol.: 65
Chanel 4 Note On - Duracao: 398400 Nota: C1 Vol.: 64
Chanel 5 Note Off - Duracao: 398400 Nota: C1 Vol.: 40
Chanel 5 Note On - Duracao: 398400 Nota: C1 Vol.: 55
Chanel 9 Note Off - Duracao: 398400 Nota: C1 Vol.: 69
Chanel 9 Note On - Duracao: 398400 Nota: C1 Vol.: 76
Chanel 3 Note Off - Duracao: 398580 Nota: C1 Vol.: 73
Chanel 3 Note On - Duracao: 398580 Nota: C1 Vol.: 74
Chanel 8 Note Off - Duracao: 398580 Nota: C1 Vol.: 62
Chanel 8 Note On - Duracao: 398580 Nota: C1 Vol.: 62
Chanel 3 Note Off - Duracao: 398820 Nota: C1 Vol.: 74
Chanel 3 Note On - Duracao: 398820 Nota: C1 Vol.: 72
Chanel 5 Note Off - Duracao: 398880 Nota: C1 Vol.: 55
Chanel 5 Note On - Duracao: 398880 Nota: C1 Vol.: 62
Chanel 9 Note Off - Duracao: 398880 Nota: C1 Vol.: 76
Chanel 9 Note On - Duracao: 398880 Nota: C1 Vol.: 55
Chanel 10 Note Off - Duracao: 399000 Nota: C1 Vol.: 53
Chanel 10 Note On - Duracao: 399000 Nota: C1 Vol.: 56
Chanel 3 Note Off - Duracao: 399060 Nota: C1 Vol.: 72
Chanel 3 Note On - Duracao: 399060 Nota: C1 Vol.: 68
Chanel 5 Note Off - Duracao: 399120 Nota: C1 Vol.: 62
Chanel 5 Note On - Duracao: 399120 Nota: C1 Vol.: 62
Chanel 4 Note Off - Duracao: 399360 Nota: C1 Vol.: 64
Chanel 4 Note On - Duracao: 399360 Nota: C1 Vol.: 67
Chanel 5 Note Off - Duracao: 399360 Nota: C1 Vol.: 62
Chanel 5 Note On - Duracao: 399360 Nota: C1 Vol.: 63
Chanel 10 Note Off - Duracao: 399480 Nota: C1 Vol.: 56
Chanel 10 Note On - Duracao: 399480 Nota: C1 Vol.: 56
Chanel 3 Note Off - Duracao: 399540 Nota: C1 Vol.: 68
Chanel 3 Note On - Duracao: 399540 Nota: C1 Vol.: 64
Chanel 8 Note Off - Duracao: 399540 Nota: C1 Vol.: 62
Chanel 8 Note On - Duracao: 399540 Nota: C1 Vol.: 69
Chanel 5 Note Off - Duracao: 399600 Nota: C1 Vol.: 63
Chanel 5 Note On - Duracao: 399600 Nota: C1 Vol.: 68
Chanel 5 Note Off - Duracao: 399840 Nota: C1 Vol.: 68
Chanel 5 Note On - Duracao: 399840 Nota: C1 Vol.: 70
Chanel 9 Note Off - Duracao: 399840 Nota: C1 Vol.: 55
Chanel 9 Note On - Duracao: 399840 Nota: C1 Vol.: 53
Chanel 10 Note Off - Duracao: 399960 Nota: C1 Vol.: 56
Chanel 10 Note On - Duracao: 399960 Nota: C1 Vol.: 58
Chanel 3 Note Off - Duracao: 400020 Nota: C1 Vol.: 64
Chanel 3 Note On - Duracao: 400020 Nota: C1 Vol.: 61
Chanel 8 Note Off - Duracao: 400020 Nota: C1 Vol.: 69
Chanel 8 Note On - Duracao: 400020 Nota: C1 Vol.: 72
Chanel 5 Note Off - Duracao: 400080 Nota: C1 Vol.: 70
Chanel 5 Note On - Duracao: 400080 Nota: C1 Vol.: 71
Chanel 2 Note Off - Duracao: 400140 Nota: C1 Vol.: 40
Chanel 2 Note On - Duracao: 400140 Nota: C1 Vol.: 40
Chanel 4 Note Off - Duracao: 400320 Nota: C1 Vol.: 67
Chanel 4 Note On - Duracao: 400320 Nota: C1 Vol.: 58
Chanel 5 Note Off - Duracao: 400320 Nota: C1 Vol.: 71
Chanel 5 Note On - Duracao: 400320 Nota: C1 Vol.: 71
Chanel 6 Note Off - Duracao: 400320 Nota: C1 Vol.: 56
Chanel 6 Note On - Duracao: 400320 Nota: C1 Vol.: 58
Chanel 10 Note Off - Duracao: 400440 Nota: C1 Vol.: 58
Chanel 10 Note On - Duracao: 400440 Nota: C1 Vol.: 57
Chanel 3 Note Off - Duracao: 400500 Nota: C1 Vol.: 61
Chanel 3 Note On - Duracao: 400500 Nota: C1 Vol.: 60
Chanel 8 Note Off - Duracao: 400500 Nota: C1 Vol.: 72
Chanel 8 Note On - Duracao: 400500 Nota: C1 Vol.: 75
Chanel 5 Note Off - Duracao: 400560 Nota: C1 Vol.: 71
Chanel 5 Note On - Duracao: 400560 Nota: C1 Vol.: 68
Chanel 7 Note Off - Duracao: 400620 Nota: C1 Vol.: 64
Chanel 7 Note On - Duracao: 400620 Nota: C1 Vol.: 58
Chanel 5 Note Off - Duracao: 400800 Nota: C1 Vol.: 68
Chanel 5 Note On - Duracao: 400800 Nota: C1 Vol.: 71
Chanel 9 Note Off - Duracao: 400800 Nota: C1 Vol.: 53
Chanel 9 Note On - Duracao: 400800 Nota: C1 Vol.: 56
Chanel 5 Note Off - Duracao: 400920 Nota: C1 Vol.: 71
Chanel 5 Note On - Duracao: 400920 Nota: C1 Vol.: 72
Chanel 10 Note Off - Duracao: 400920 Nota: C1 Vol.: 57
Chanel 10 Note On - Duracao: 400920 Nota: C1 Vol.: 52
Chanel 3 Note Off - Duracao: 400980 Nota: C1 Vol.: 60
Chanel 3 Note On - Duracao: 400980 Nota: C1 Vol.: 75
Chanel 8 Note Off - Duracao: 400980 Nota: C1 Vol.: 75
Chanel 8 Note On - Duracao: 400980 Nota: C1 Vol.: 73
Chanel 5 Note Off - Duracao: 401160 Nota: C1 Vol.: 72
Chanel 5 Note On - Duracao: 401160 Nota: C1 Vol.: 73
Chanel 3 Note Off - Duracao: 401220 Nota: C1 Vol.: 75
Chanel 3 Note On - Duracao: 401220 Nota: C1 Vol.: 80
Chanel 3 Note Off - Duracao: 401340 Nota: C1 Vol.: 80
Chanel 3 Note On - Duracao: 401340 Nota: C1 Vol.: 87
Chanel 5 Note Off - Duracao: 401400 Nota: C1 Vol.: 73
Chanel 5 Note On - Duracao: 401400 Nota: C1 Vol.: 42
Chanel 10 Note Off - Duracao: 401400 Nota: C1 Vol.: 52
Chanel 10 Note On - Duracao: 401400 Nota: C1 Vol.: 56
Chanel 3 Note Off - Duracao: 401460 Nota: C1 Vol.: 87
Chanel 3 Note On - Duracao: 401460 Nota: C1 Vol.: 87
Chanel 3 Note Off - Duracao: 401580 Nota: C1 Vol.: 87
Chanel 3 Note On - Duracao: 401580 Nota: C1 Vol.: 66
Chanel 9 Note Off - Duracao: 401760 Nota: C1 Vol.: 56
Chanel 9 Note On - Duracao: 401760 Nota: C1 Vol.: 55
Chanel 10 Note Off - Duracao: 401880 Nota: C1 Vol.: 56
Chanel 10 Note On - Duracao: 401880 Nota: C1 Vol.: 57
Chanel 8 Note Off - Duracao: 401940 Nota: C1 Vol.: 73
Chanel 8 Note On - Duracao: 401940 Nota: C1 Vol.: 75
Chanel 2 Note Off - Duracao: 402060 Nota: C1 Vol.: 40
Chanel 2 Note On - Duracao: 402060 Nota: C1 Vol.: 41
Chanel 3 Note Off - Duracao: 402060 Nota: C1 Vol.: 66
Chanel 3 Note On - Duracao: 402060 Nota: C1 Vol.: 48
Chanel 10 Note Off - Duracao: 402120 Nota: C1 Vol.: 57
Chanel 10 Note On - Duracao: 402120 Nota: C1 Vol.: 56
Chanel 4 Note Off - Duracao: 402240 Nota: C1 Vol.: 58
Chanel 4 Note On - Duracao: 402240 Nota: C1 Vol.: 46
Chanel 8 Note Off - Duracao: 402420 Nota: C1 Vol.: 75
Chanel 8 Note On - Duracao: 402420 Nota: C1 Vol.: 73
Chanel 10 Note Off - Duracao: 402600 Nota: C1 Vol.: 56
Chanel 10 Note On - Duracao: 402600 Nota: C1 Vol.: 54
Chanel 9 Note Off - Duracao: 402720 Nota: C1 Vol.: 55
Chanel 9 Note On - Duracao: 402720 Nota: C1 Vol.: 51
Chanel 8 Note Off - Duracao: 402900 Nota: C1 Vol.: 73
Chanel 8 Note On - Duracao: 402900 Nota: C1 Vol.: 56
Chanel 10 Note Off - Duracao: 403080 Nota: C1 Vol.: 54
Chanel 10 Note On - Duracao: 403080 Nota: C1 Vol.: 58
Chanel 10 Note Off - Duracao: 403560 Nota: C1 Vol.: 58
Chanel 10 Note On - Duracao: 403560 Nota: C1 Vol.: 58
Chanel 9 Note Off - Duracao: 403680 Nota: C1 Vol.: 51
Chanel 9 Note On - Duracao: 403680 Nota: C1 Vol.: 47
Chanel 8 Note Off - Duracao: 403860 Nota: C1 Vol.: 56
Chanel 8 Note On - Duracao: 403860 Nota: C1 Vol.: 71
Chanel 3 Note Off - Duracao: 403980 Nota: C1 Vol.: 48
Chanel 3 Note On - Duracao: 403980 Nota: C1 Vol.: 45
Chanel 10 Note Off - Duracao: 404040 Nota: C1 Vol.: 58
Chanel 10 Note On - Duracao: 404040 Nota: C1 Vol.: 56
Chanel 8 Note Off - Duracao: 404100 Nota: C1 Vol.: 71
Chanel 8 Note On - Duracao: 404100 Nota: C1 Vol.: 64
Chanel 6 Note Off - Duracao: 404160 Nota: C1 Vol.: 58
Chanel 6 Note On - Duracao: 404160 Nota: C1 Vol.: 60
Chanel 8 Note Off - Duracao: 404340 Nota: C1 Vol.: 64
Chanel 8 Note On - Duracao: 404340 Nota: C1 Vol.: 54
Chanel 7 Note Off - Duracao: 404460 Nota: C1 Vol.: 58
Chanel 7 Note On - Duracao: 404460 Nota: C1 Vol.: 61
Chanel 10 Note Off - Duracao: 404520 Nota: C1 Vol.: 56
Chanel 10 Note On - Duracao: 404520 Nota: C1 Vol.: 55
Chanel 8 Note Off - Duracao: 404820 Nota: C1 Vol.: 54
Chanel 8 Note On - Duracao: 404820 Nota: C1 Vol.: 57
Chanel 10 Note Off - Duracao: 405000 Nota: C1 Vol.: 55
Chanel 10 Note On - Duracao: 405000 Nota: C1 Vol.: 57
Chanel 8 Note Off - Duracao: 405060 Nota: C1 Vol.: 57
Chanel 8 Note On - Duracao: 405060 Nota: C1 Vol.: 50
Chanel 5 Note Off - Duracao: 405240 Nota: C1 Vol.: 42
Chanel 5 Note On - Duracao: 405240 Nota: C1 Vol.: 48
Chanel 10 Note Off - Duracao: 405480 Nota: C1 Vol.: 57
Chanel 10 Note On - Duracao: 405480 Nota: C1 Vol.: 68
Chanel 8 Note Off - Duracao: 405540 Nota: C1 Vol.: 50
Chanel 8 Note On - Duracao: 405540 Nota: C1 Vol.: 61
Chanel 9 Note Off - Duracao: 405600 Nota: C1 Vol.: 47
Chanel 9 Note On - Duracao: 405600 Nota: C1 Vol.: 52
Chanel 10 Note Off - Duracao: 405720 Nota: C1 Vol.: 68
Chanel 10 Note On - Duracao: 405720 Nota: C1 Vol.: 79
Chanel 8 Note Off - Duracao: 405780 Nota: C1 Vol.: 61
Chanel 8 Note On - Duracao: 405780 Nota: C1 Vol.: 48
Chanel 10 Note Off - Duracao: 405840 Nota: C1 Vol.: 79
Chanel 10 Note On - Duracao: 405840 Nota: C1 Vol.: 77
Chanel 2 Note Off - Duracao: 405900 Nota: C1 Vol.: 41
Chanel 2 Note On - Duracao: 405900 Nota: C1 Vol.: 41
Chanel 3 Note Off - Duracao: 405900 Nota: C1 Vol.: 45
Chanel 3 Note On - Duracao: 405900 Nota: C1 Vol.: 45
Chanel 4 Note Off - Duracao: 406080 Nota: C1 Vol.: 46
Chanel 4 Note On - Duracao: 406080 Nota: C1 Vol.: 48
Chanel 10 Note Off - Duracao: 406080 Nota: C1 Vol.: 77
Chanel 10 Note On - Duracao: 406080 Nota: C1 Vol.: 84
Chanel 10 Note Off - Duracao: 406200 Nota: C1 Vol.: 84
Chanel 10 Note On - Duracao: 406200 Nota: C1 Vol.: 87
Chanel 8 Note Off - Duracao: 406260 Nota: C1 Vol.: 48
Chanel 8 Note On - Duracao: 406260 Nota: C1 Vol.: 45
Chanel 10 Note Off - Duracao: 406320 Nota: C1 Vol.: 87
Chanel 10 Note On - Duracao: 406320 Nota: C1 Vol.: 86
Chanel 9 Note Off - Duracao: 406560 Nota: C1 Vol.: 52
Chanel 9 Note On - Duracao: 406560 Nota: C1 Vol.: 51
Chanel 10 Note Off - Duracao: 406560 Nota: C1 Vol.: 86
Chanel 10 Note On - Duracao: 406560 Nota: C1 Vol.: 80
Chanel 8 Note Off - Duracao: 406740 Nota: C1 Vol.: 45
Chanel 8 Note On - Duracao: 406740 Nota: C1 Vol.: 57
Chanel 10 Note Off - Duracao: 406800 Nota: C1 Vol.: 80
Chanel 10 Note On - Duracao: 406800 Nota: C1 Vol.: 76
Chanel 8 Note Off - Duracao: 406980 Nota: C1 Vol.: 57
Chanel 8 Note On - Duracao: 406980 Nota: C1 Vol.: 56
Chanel 8 Note Off - Duracao: 407220 Nota: C1 Vol.: 56
Chanel 8 Note On - Duracao: 407220 Nota: C1 Vol.: 75
Chanel 10 Note Off - Duracao: 407280 Nota: C1 Vol.: 76
Chanel 10 Note On - Duracao: 407280 Nota: C1 Vol.: 74
Chanel 8 Note Off - Duracao: 407340 Nota: C1 Vol.: 75
Chanel 8 Note On - Duracao: 407340 Nota: C1 Vol.: 76
Chanel 9 Note Off - Duracao: 407520 Nota: C1 Vol.: 51
Chanel 9 Note On - Duracao: 407520 Nota: C1 Vol.: 55
Chanel 8 Note Off - Duracao: 407580 Nota: C1 Vol.: 76
Chanel 8 Note On - Duracao: 407580 Nota: C1 Vol.: 80
Chanel 10 Note Off - Duracao: 407760 Nota: C1 Vol.: 74
Chanel 10 Note On - Duracao: 407760 Nota: C1 Vol.: 72
Chanel 3 Note Off - Duracao: 407820 Nota: C1 Vol.: 45
Chanel 3 Note On - Duracao: 407820 Nota: C1 Vol.: 49
Chanel 8 Note Off - Duracao: 407820 Nota: C1 Vol.: 80
Chanel 8 Note On - Duracao: 407820 Nota: C1 Vol.: 79
Chanel 6 Note Off - Duracao: 408000 Nota: C1 Vol.: 60
Chanel 6 Note On - Duracao: 408000 Nota: C1 Vol.: 60
Chanel 8 Note Off - Duracao: 408060 Nota: C1 Vol.: 79
Chanel 8 Note On - Duracao: 408060 Nota: C1 Vol.: 78
Chanel 10 Note Off - Duracao: 408240 Nota: C1 Vol.: 72
Chanel 10 Note On - Duracao: 408240 Nota: C1 Vol.: 63
Chanel 7 Note Off - Duracao: 408300 Nota: C1 Vol.: 61
Chanel 7 Note On - Duracao: 408300 Nota: C1 Vol.: 56
Chanel 8 Note Off - Duracao: 408300 Nota: C1 Vol.: 78
Chanel 8 Note On - Duracao: 408300 Nota: C1 Vol.: 66
Chanel 9 Note Off - Duracao: 408480 Nota: C1 Vol.: 55
Chanel 9 Note On - Duracao: 408480 Nota: C1 Vol.: 58
Chanel 8 Note Off - Duracao: 408540 Nota: C1 Vol.: 66
Chanel 8 Note On - Duracao: 408540 Nota: C1 Vol.: 58
Chanel 3 Note Off - Duracao: 408780 Nota: C1 Vol.: 49
Chanel 3 Note On - Duracao: 408780 Nota: C1 Vol.: 57
Chanel 8 Note Off - Duracao: 408780 Nota: C1 Vol.: 58
Chanel 8 Note On - Duracao: 408780 Nota: C1 Vol.: 54
Chanel 8 Note Off - Duracao: 409020 Nota: C1 Vol.: 54
Chanel 8 Note On - Duracao: 409020 Nota: C1 Vol.: 58
Chanel 5 Note Off - Duracao: 409080 Nota: C1 Vol.: 48
Chanel 5 Note On - Duracao: 409080 Nota: C1 Vol.: 52
Chanel 8 Note Off - Duracao: 409140 Nota: C1 Vol.: 58
Chanel 8 Note On - Duracao: 409140 Nota: C1 Vol.: 45
Chanel 10 Note Off - Duracao: 409200 Nota: C1 Vol.: 63
Chanel 10 Note On - Duracao: 409200 Nota: C1 Vol.: 70
Chanel 3 Note Off - Duracao: 409260 Nota: C1 Vol.: 57
Chanel 3 Note On - Duracao: 409260 Nota: C1 Vol.: 58
Chanel 9 Note Off - Duracao: 409440 Nota: C1 Vol.: 58
Chanel 9 Note On - Duracao: 409440 Nota: C1 Vol.: 57
Chanel 10 Note Off - Duracao: 409440 Nota: C1 Vol.: 70
Chanel 10 Note On - Duracao: 409440 Nota: C1 Vol.: 54
Chanel 8 Note Off - Duracao: 409620 Nota: C1 Vol.: 45
Chanel 8 Note On - Duracao: 409620 Nota: C1 Vol.: 53
Chanel 2 Note Off - Duracao: 409740 Nota: C1 Vol.: 41
Chanel 2 Note On - Duracao: 409740 Nota: C1 Vol.: 42
Chanel 3 Note Off - Duracao: 409740 Nota: C1 Vol.: 58
Chanel 3 Note On - Duracao: 409740 Nota: C1 Vol.: 68
Chanel 4 Note Off - Duracao: 409920 Nota: C1 Vol.: 48
Chanel 4 Note On - Duracao: 409920 Nota: C1 Vol.: 45
Chanel 9 Note Off - Duracao: 409920 Nota: C1 Vol.: 57
Chanel 9 Note On - Duracao: 409920 Nota: C1 Vol.: 66
Chanel 10 Note Off - Duracao: 409920 Nota: C1 Vol.: 54
Chanel 10 Note On - Duracao: 409920 Nota: C1 Vol.: 52
Chanel 3 Note Off - Duracao: 409980 Nota: C1 Vol.: 68
Chanel 3 Note On - Duracao: 409980 Nota: C1 Vol.: 77
Chanel 3 Note Off - Duracao: 410100 Nota: C1 Vol.: 77
Chanel 3 Note On - Duracao: 410100 Nota: C1 Vol.: 78
Chanel 8 Note Off - Duracao: 410100 Nota: C1 Vol.: 53
Chanel 8 Note On - Duracao: 410100 Nota: C1 Vol.: 40
Chanel 9 Note Off - Duracao: 410160 Nota: C1 Vol.: 66
Chanel 9 Note On - Duracao: 410160 Nota: C1 Vol.: 70
Chanel 3 Note Off - Duracao: 410220 Nota: C1 Vol.: 78
Chanel 3 Note On - Duracao: 410220 Nota: C1 Vol.: 68
Chanel 9 Note Off - Duracao: 410280 Nota: C1 Vol.: 70
Chanel 9 Note On - Duracao: 410280 Nota: C1 Vol.: 66
Chanel 10 Note Off - Duracao: 410400 Nota: C1 Vol.: 52
Chanel 10 Note On - Duracao: 410400 Nota: C1 Vol.: 55
Chanel 3 Note Off - Duracao: 410460 Nota: C1 Vol.: 68
Chanel 3 Note On - Duracao: 410460 Nota: C1 Vol.: 62
Chanel 9 Note Off - Duracao: 410520 Nota: C1 Vol.: 66
Chanel 9 Note On - Duracao: 410520 Nota: C1 Vol.: 67
Chanel 3 Note Off - Duracao: 410700 Nota: C1 Vol.: 62
Chanel 3 Note On - Duracao: 410700 Nota: C1 Vol.: 64
Chanel 9 Note Off - Duracao: 410760 Nota: C1 Vol.: 67
Chanel 9 Note On - Duracao: 410760 Nota: C1 Vol.: 65
Chanel 10 Note Off - Duracao: 410880 Nota: C1 Vol.: 55
Chanel 10 Note On - Duracao: 410880 Nota: C1 Vol.: 64
Chanel 3 Note Off - Duracao: 410940 Nota: C1 Vol.: 64
Chanel 3 Note On - Duracao: 410940 Nota: C1 Vol.: 63
Chanel 9 Note Off - Duracao: 411000 Nota: C1 Vol.: 65
Chanel 9 Note On - Duracao: 411000 Nota: C1 Vol.: 74
Chanel 9 Note Off - Duracao: 411120 Nota: C1 Vol.: 74
Chanel 9 Note On - Duracao: 411120 Nota: C1 Vol.: 75
Chanel 10 Note Off - Duracao: 411120 Nota: C1 Vol.: 64
Chanel 10 Note On - Duracao: 411120 Nota: C1 Vol.: 66
Chanel 3 Note Off - Duracao: 411180 Nota: C1 Vol.: 63
Chanel 3 Note On - Duracao: 411180 Nota: C1 Vol.: 56
Chanel 9 Note Off - Duracao: 411240 Nota: C1 Vol.: 75
Chanel 9 Note On - Duracao: 411240 Nota: C1 Vol.: 63
Chanel 10 Note Off - Duracao: 411360 Nota: C1 Vol.: 66
Chanel 10 Note On - Duracao: 411360 Nota: C1 Vol.: 62
Chanel 9 Note Off - Duracao: 411480 Nota: C1 Vol.: 63
Chanel 9 Note On - Duracao: 411480 Nota: C1 Vol.: 75
Chanel 9 Note Off - Duracao: 411600 Nota: C1 Vol.: 75
Chanel 9 Note On - Duracao: 411600 Nota: C1 Vol.: 61
Chanel 2 Note Off - Duracao: 411660 Nota: C1 Vol.: 42
Chanel 2 Note On - Duracao: 411660 Nota: C1 Vol.: 41
Chanel 3 Note Off - Duracao: 411660 Nota: C1 Vol.: 56
Chanel 3 Note On - Duracao: 411660 Nota: C1 Vol.: 60
Chanel 6 Note Off - Duracao: 411840 Nota: C1 Vol.: 60
Chanel 6 Note On - Duracao: 411840 Nota: C1 Vol.: 61
Chanel 10 Note Off - Duracao: 411840 Nota: C1 Vol.: 62
Chanel 10 Note On - Duracao: 411840 Nota: C1 Vol.: 60
Chanel 8 Note Off - Duracao: 412020 Nota: C1 Vol.: 40
Chanel 8 Note On - Duracao: 412020 Nota: C1 Vol.: 44
Chanel 9 Note Off - Duracao: 412080 Nota: C1 Vol.: 61
Chanel 9 Note On - Duracao: 412080 Nota: C1 Vol.: 67
Chanel 3 Note Off - Duracao: 412140 Nota: C1 Vol.: 60
Chanel 3 Note On - Duracao: 412140 Nota: C1 Vol.: 66
Chanel 7 Note Off - Duracao: 412140 Nota: C1 Vol.: 56
Chanel 7 Note On - Duracao: 412140 Nota: C1 Vol.: 54
Chanel 10 Note Off - Duracao: 412320 Nota: C1 Vol.: 60
Chanel 10 Note On - Duracao: 412320 Nota: C1 Vol.: 60
Chanel 3 Note Off - Duracao: 412380 Nota: C1 Vol.: 66
Chanel 3 Note On - Duracao: 412380 Nota: C1 Vol.: 56
Chanel 9 Note Off - Duracao: 412560 Nota: C1 Vol.: 67
Chanel 9 Note On - Duracao: 412560 Nota: C1 Vol.: 51
Chanel 3 Note Off - Duracao: 412860 Nota: C1 Vol.: 56
Chanel 3 Note On - Duracao: 412860 Nota: C1 Vol.: 54
Chanel 5 Note Off - Duracao: 412920 Nota: C1 Vol.: 52
Chanel 5 Note On - Duracao: 412920 Nota: C1 Vol.: 53
Chanel 10 Note Off - Duracao: 413280 Nota: C1 Vol.: 60
Chanel 10 Note On - Duracao: 413280 Nota: C1 Vol.: 62
Chanel 3 Note Off - Duracao: 413340 Nota: C1 Vol.: 54
Chanel 3 Note On - Duracao: 413340 Nota: C1 Vol.: 67
Chanel 9 Note Off - Duracao: 413520 Nota: C1 Vol.: 51
Chanel 9 Note On - Duracao: 413520 Nota: C1 Vol.: 51
Chanel 3 Note Off - Duracao: 413580 Nota: C1 Vol.: 67
Chanel 3 Note On - Duracao: 413580 Nota: C1 Vol.: 69
Chanel 4 Note Off - Duracao: 413760 Nota: C1 Vol.: 45
Chanel 4 Note On - Duracao: 413760 Nota: C1 Vol.: 44
Chanel 3 Note Off - Duracao: 413820 Nota: C1 Vol.: 69
Chanel 3 Note On - Duracao: 413820 Nota: C1 Vol.: 45
Chanel 8 Note Off - Duracao: 413940 Nota: C1 Vol.: 44
Chanel 8 Note On - Duracao: 413940 Nota: C1 Vol.: 49
Chanel 10 Note Off - Duracao: 414240 Nota: C1 Vol.: 62
Chanel 10 Note On - Duracao: 414240 Nota: C1 Vol.: 69
Chanel 9 Note Off - Duracao: 414480 Nota: C1 Vol.: 51
Chanel 9 Note On - Duracao: 414480 Nota: C1 Vol.: 53
Chanel 10 Note Off - Duracao: 414720 Nota: C1 Vol.: 69
Chanel 10 Note On - Duracao: 414720 Nota: C1 Vol.: 97
Chanel 3 Note Off - Duracao: 414780 Nota: C1 Vol.: 45
Chanel 3 Note On - Duracao: 414780 Nota: C1 Vol.: 60
Chanel 10 Note Off - Duracao: 414780 Nota: C1 Vol.: 97
Chanel 10 Note On - Duracao: 414780 Nota: C1 Vol.: 91
Chanel 8 Note Off - Duracao: 414900 Nota: C1 Vol.: 49
Chanel 8 Note On - Duracao: 414900 Nota: C1 Vol.: 48
Chanel 10 Note Off - Duracao: 414900 Nota: C1 Vol.: 91
Chanel 10 Note On - Duracao: 414900 Nota: C1 Vol.: 81
Chanel 9 Note Off - Duracao: 414960 Nota: C1 Vol.: 53
Chanel 9 Note On - Duracao: 414960 Nota: C1 Vol.: 56
Chanel 10 Note Off - Duracao: 415140 Nota: C1 Vol.: 81
Chanel 10 Note On - Duracao: 415140 Nota: C1 Vol.: 62
Chanel 3 Note Off - Duracao: 415260 Nota: C1 Vol.: 60
Chanel 3 Note On - Duracao: 415260 Nota: C1 Vol.: 54
Chanel 8 Note Off - Duracao: 415380 Nota: C1 Vol.: 48
Chanel 8 Note On - Duracao: 415380 Nota: C1 Vol.: 56
Chanel 9 Note Off - Duracao: 415440 Nota: C1 Vol.: 56
Chanel 9 Note On - Duracao: 415440 Nota: C1 Vol.: 56
Chanel 2 Note Off - Duracao: 415500 Nota: C1 Vol.: 41
Chanel 2 Note On - Duracao: 415500 Nota: C1 Vol.: 41
Chanel 8 Note Off - Duracao: 415620 Nota: C1 Vol.: 56
Chanel 8 Note On - Duracao: 415620 Nota: C1 Vol.: 65
Chanel 10 Note Off - Duracao: 415620 Nota: C1 Vol.: 62
Chanel 10 Note On - Duracao: 415620 Nota: C1 Vol.: 61
Chanel 6 Note Off - Duracao: 415680 Nota: C1 Vol.: 61
Chanel 6 Note On - Duracao: 415680 Nota: C1 Vol.: 63
Chanel 3 Note Off - Duracao: 415740 Nota: C1 Vol.: 54
Chanel 3 Note On - Duracao: 415740 Nota: C1 Vol.: 55
Chanel 8 Note Off - Duracao: 415740 Nota: C1 Vol.: 65
Chanel 8 Note On - Duracao: 415740 Nota: C1 Vol.: 61
Chanel 9 Note Off - Duracao: 415920 Nota: C1 Vol.: 56
Chanel 9 Note On - Duracao: 415920 Nota: C1 Vol.: 57
Chanel 7 Note Off - Duracao: 415980 Nota: C1 Vol.: 54
Chanel 7 Note On - Duracao: 415980 Nota: C1 Vol.: 50
Chanel 8 Note Off - Duracao: 415980 Nota: C1 Vol.: 61
Chanel 8 Note On - Duracao: 415980 Nota: C1 Vol.: 62
Chanel 10 Note Off - Duracao: 416100 Nota: C1 Vol.: 61
Chanel 10 Note On - Duracao: 416100 Nota: C1 Vol.: 58
Chanel 3 Note Off - Duracao: 416220 Nota: C1 Vol.: 55
Chanel 3 Note On - Duracao: 416220 Nota: C1 Vol.: 43
Chanel 8 Note Off - Duracao: 416220 Nota: C1 Vol.: 62
Chanel 8 Note On - Duracao: 416220 Nota: C1 Vol.: 54
Chanel 9 Note Off - Duracao: 416400 Nota: C1 Vol.: 57
Chanel 9 Note On - Duracao: 416400 Nota: C1 Vol.: 56
Chanel 10 Note Off - Duracao: 416580 Nota: C1 Vol.: 58
Chanel 10 Note On - Duracao: 416580 Nota: C1 Vol.: 63
Chanel 8 Note Off - Duracao: 416700 Nota: C1 Vol.: 54
Chanel 8 Note On - Duracao: 416700 Nota: C1 Vol.: 50
Chanel 5 Note Off - Duracao: 416760 Nota: C1 Vol.: 53
Chanel 5 Note On - Duracao: 416760 Nota: C1 Vol.: 53
Chanel 9 Note Off - Duracao: 416880 Nota: C1 Vol.: 56
Chanel 9 Note On - Duracao: 416880 Nota: C1 Vol.: 54
Chanel 10 Note Off - Duracao: 417060 Nota: C1 Vol.: 63
Chanel 10 Note On - Duracao: 417060 Nota: C1 Vol.: 52
Chanel 8 Note Off - Duracao: 417180 Nota: C1 Vol.: 50
Chanel 8 Note On - Duracao: 417180 Nota: C1 Vol.: 52
Chanel 9 Note Off - Duracao: 417360 Nota: C1 Vol.: 54
Chanel 9 Note On - Duracao: 417360 Nota: C1 Vol.: 56
Chanel 4 Note Off - Duracao: 417600 Nota: C1 Vol.: 44
Chanel 4 Note On - Duracao: 417600 Nota: C1 Vol.: 44
Chanel 8 Note Off - Duracao: 417660 Nota: C1 Vol.: 52
Chanel 8 Note On - Duracao: 417660 Nota: C1 Vol.: 51
Chanel 9 Note Off - Duracao: 417840 Nota: C1 Vol.: 56
Chanel 9 Note On - Duracao: 417840 Nota: C1 Vol.: 60
Chanel 10 Note Off - Duracao: 418020 Nota: C1 Vol.: 52
Chanel 10 Note On - Duracao: 418020 Nota: C1 Vol.: 48
Chanel 3 Note Off - Duracao: 418140 Nota: C1 Vol.: 43
Chanel 3 Note On - Duracao: 418140 Nota: C1 Vol.: 40
Chanel 8 Note Off - Duracao: 418140 Nota: C1 Vol.: 51
Chanel 8 Note On - Duracao: 418140 Nota: C1 Vol.: 52
Chanel 9 Note Off - Duracao: 418320 Nota: C1 Vol.: 60
Chanel 9 Note On - Duracao: 418320 Nota: C1 Vol.: 56
Chanel 8 Note Off - Duracao: 418620 Nota: C1 Vol.: 52
Chanel 8 Note On - Duracao: 418620 Nota: C1 Vol.: 42
Chanel 5 Note Off - Duracao: 418680 Nota: C1 Vol.: 53
Chanel 5 Note On - Duracao: 418680 Nota: C1 Vol.: 47
Chanel 9 Note Off - Duracao: 418800 Nota: C1 Vol.: 56
Chanel 9 Note On - Duracao: 418800 Nota: C1 Vol.: 48
Chanel 10 Note Off - Duracao: 418980 Nota: C1 Vol.: 48
Chanel 10 Note On - Duracao: 418980 Nota: C1 Vol.: 58
Chanel 2 Note Off - Duracao: 419340 Nota: C1 Vol.: 41
Chanel 2 Note On - Duracao: 419340 Nota: C1 Vol.: 44
Chanel 10 Note Off - Duracao: 419460 Nota: C1 Vol.: 58
Chanel 10 Note On - Duracao: 419460 Nota: C1 Vol.: 61
Chanel 6 Note Off - Duracao: 419520 Nota: C1 Vol.: 63
Chanel 6 Note On - Duracao: 419520 Nota: C1 Vol.: 62
Chanel 9 Note Off - Duracao: 419760 Nota: C1 Vol.: 48
Chanel 9 Note On - Duracao: 419760 Nota: C1 Vol.: 41
Chanel 7 Note Off - Duracao: 419820 Nota: C1 Vol.: 50
Chanel 7 Note On - Duracao: 419820 Nota: C1 Vol.: 44
Chanel 10 Note Off - Duracao: 419940 Nota: C1 Vol.: 61
Chanel 10 Note On - Duracao: 419940 Nota: C1 Vol.: 60
Chanel 10 Note Off - Duracao: 420420 Nota: C1 Vol.: 60
Chanel 10 Note On - Duracao: 420420 Nota: C1 Vol.: 60
Chanel 8 Note Off - Duracao: 420540 Nota: C1 Vol.: 42
Chanel 8 Note On - Duracao: 420540 Nota: C1 Vol.: 47
Chanel 10 Note Off - Duracao: 420900 Nota: C1 Vol.: 60
Chanel 10 Note On - Duracao: 420900 Nota: C1 Vol.: 62
Chanel 2 Note Off - Duracao: 421260 Nota: C1 Vol.: 44
Chanel 2 Note On - Duracao: 421260 Nota: C1 Vol.: 40
Chanel 10 Note Off - Duracao: 421380 Nota: C1 Vol.: 62
Chanel 10 Note On - Duracao: 421380 Nota: C1 Vol.: 61
Chanel 4 Note Off - Duracao: 421440 Nota: C1 Vol.: 44
Chanel 4 Note On - Duracao: 421440 Nota: C1 Vol.: 59
Chanel 8 Note Off - Duracao: 421500 Nota: C1 Vol.: 47
Chanel 8 Note On - Duracao: 421500 Nota: C1 Vol.: 50
Chanel 9 Note Off - Duracao: 421680 Nota: C1 Vol.: 41
Chanel 9 Note On - Duracao: 421680 Nota: C1 Vol.: 52
Chanel 10 Note Off - Duracao: 421860 Nota: C1 Vol.: 61
Chanel 10 Note On - Duracao: 421860 Nota: C1 Vol.: 60
Chanel 3 Note Off - Duracao: 421980 Nota: C1 Vol.: 40
Chanel 3 Note On - Duracao: 421980 Nota: C1 Vol.: 40
Chanel 10 Note Off - Duracao: 422340 Nota: C1 Vol.: 60
Chanel 10 Note On - Duracao: 422340 Nota: C1 Vol.: 58
Chanel 4 Note Off - Duracao: 422400 Nota: C1 Vol.: 59
Chanel 4 Note On - Duracao: 422400 Nota: C1 Vol.: 42
Chanel 8 Note Off - Duracao: 422460 Nota: C1 Vol.: 50
Chanel 8 Note On - Duracao: 422460 Nota: C1 Vol.: 49
Chanel 5 Note Off - Duracao: 422520 Nota: C1 Vol.: 47
Chanel 5 Note On - Duracao: 422520 Nota: C1 Vol.: 86
Chanel 5 Note Off - Duracao: 422640 Nota: C1 Vol.: 86
Chanel 5 Note On - Duracao: 422640 Nota: C1 Vol.: 88
Chanel 9 Note Off - Duracao: 422640 Nota: C1 Vol.: 52
Chanel 9 Note On - Duracao: 422640 Nota: C1 Vol.: 51
Chanel 5 Note Off - Duracao: 422760 Nota: C1 Vol.: 88
Chanel 5 Note On - Duracao: 422760 Nota: C1 Vol.: 87
Chanel 10 Note Off - Duracao: 422820 Nota: C1 Vol.: 58
Chanel 10 Note On - Duracao: 422820 Nota: C1 Vol.: 59
Chanel 5 Note Off - Duracao: 422880 Nota: C1 Vol.: 87
Chanel 5 Note On - Duracao: 422880 Nota: C1 Vol.: 76
Chanel 5 Note Off - Duracao: 423120 Nota: C1 Vol.: 76
Chanel 5 Note On - Duracao: 423120 Nota: C1 Vol.: 63
Chanel 9 Note Off - Duracao: 423120 Nota: C1 Vol.: 51
Chanel 9 Note On - Duracao: 423120 Nota: C1 Vol.: 61
Chanel 10 Note Off - Duracao: 423300 Nota: C1 Vol.: 59
Chanel 10 Note On - Duracao: 423300 Nota: C1 Vol.: 60
Chanel 6 Note Off - Duracao: 423360 Nota: C1 Vol.: 62
Chanel 6 Note On - Duracao: 423360 Nota: C1 Vol.: 65
Chanel 9 Note Off - Duracao: 423360 Nota: C1 Vol.: 61
Chanel 9 Note On - Duracao: 423360 Nota: C1 Vol.: 66
Chanel 8 Note Off - Duracao: 423420 Nota: C1 Vol.: 49
Chanel 8 Note On - Duracao: 423420 Nota: C1 Vol.: 53
Chanel 9 Note Off - Duracao: 423480 Nota: C1 Vol.: 66
Chanel 9 Note On - Duracao: 423480 Nota: C1 Vol.: 62
Chanel 7 Note Off - Duracao: 423660 Nota: C1 Vol.: 44
Chanel 7 Note On - Duracao: 423660 Nota: C1 Vol.: 67
Chanel 9 Note Off - Duracao: 423720 Nota: C1 Vol.: 62
Chanel 9 Note On - Duracao: 423720 Nota: C1 Vol.: 66
Chanel 10 Note Off - Duracao: 423780 Nota: C1 Vol.: 60
Chanel 10 Note On - Duracao: 423780 Nota: C1 Vol.: 60
Chanel 9 Note Off - Duracao: 423840 Nota: C1 Vol.: 66
Chanel 9 Note On - Duracao: 423840 Nota: C1 Vol.: 50
Chanel 3 Note Off - Duracao: 423900 Nota: C1 Vol.: 40
Chanel 3 Note On - Duracao: 423900 Nota: C1 Vol.: 42
Chanel 5 Note Off - Duracao: 424080 Nota: C1 Vol.: 63
Chanel 5 Note On - Duracao: 424080 Nota: C1 Vol.: 69
Chanel 9 Note Off - Duracao: 424080 Nota: C1 Vol.: 50
Chanel 9 Note On - Duracao: 424080 Nota: C1 Vol.: 53
Chanel 7 Note Off - Duracao: 424140 Nota: C1 Vol.: 67
Chanel 7 Note On - Duracao: 424140 Nota: C1 Vol.: 55
Chanel 9 Note Off - Duracao: 424200 Nota: C1 Vol.: 53
Chanel 9 Note On - Duracao: 424200 Nota: C1 Vol.: 52
Chanel 10 Note Off - Duracao: 424260 Nota: C1 Vol.: 60
Chanel 10 Note On - Duracao: 424260 Nota: C1 Vol.: 64
Chanel 9 Note Off - Duracao: 424320 Nota: C1 Vol.: 52
Chanel 9 Note On - Duracao: 424320 Nota: C1 Vol.: 45
Chanel 8 Note Off - Duracao: 424380 Nota: C1 Vol.: 53
Chanel 8 Note On - Duracao: 424380 Nota: C1 Vol.: 60
Chanel 5 Note Off - Duracao: 424560 Nota: C1 Vol.: 69
Chanel 5 Note On - Duracao: 424560 Nota: C1 Vol.: 76
Chanel 9 Note Off - Duracao: 424560 Nota: C1 Vol.: 45
Chanel 9 Note On - Duracao: 424560 Nota: C1 Vol.: 51
Chanel 9 Note Off - Duracao: 424680 Nota: C1 Vol.: 51
Chanel 9 Note On - Duracao: 424680 Nota: C1 Vol.: 52
Chanel 10 Note Off - Duracao: 424740 Nota: C1 Vol.: 64
Chanel 10 Note On - Duracao: 424740 Nota: C1 Vol.: 68
Chanel 5 Note Off - Duracao: 424800 Nota: C1 Vol.: 76
Chanel 5 Note On - Duracao: 424800 Nota: C1 Vol.: 84
Chanel 9 Note Off - Duracao: 424800 Nota: C1 Vol.: 52
Chanel 9 Note On - Duracao: 424800 Nota: C1 Vol.: 53
Chanel 5 Note Off - Duracao: 424920 Nota: C1 Vol.: 84
Chanel 5 Note On - Duracao: 424920 Nota: C1 Vol.: 88
Chanel 9 Note Off - Duracao: 424920 Nota: C1 Vol.: 53
Chanel 9 Note On - Duracao: 424920 Nota: C1 Vol.: 51
Chanel 10 Note Off - Duracao: 424980 Nota: C1 Vol.: 68
Chanel 10 Note On - Duracao: 424980 Nota: C1 Vol.: 61
Chanel 5 Note Off - Duracao: 425040 Nota: C1 Vol.: 88
Chanel 5 Note On - Duracao: 425040 Nota: C1 Vol.: 85
Chanel 9 Note Off - Duracao: 425040 Nota: C1 Vol.: 51
Chanel 9 Note On - Duracao: 425040 Nota: C1 Vol.: 43
Chanel 2 Note Off - Duracao: 425100 Nota: C1 Vol.: 40
Chanel 2 Note On - Duracao: 425100 Nota: C1 Vol.: 40
Chanel 7 Note Off - Duracao: 425100 Nota: C1 Vol.: 55
Chanel 7 Note On - Duracao: 425100 Nota: C1 Vol.: 52
Chanel 5 Note Off - Duracao: 425160 Nota: C1 Vol.: 85
Chanel 5 Note On - Duracao: 425160 Nota: C1 Vol.: 93
Chanel 5 Note Off - Duracao: 425220 Nota: C1 Vol.: 93
Chanel 5 Note On - Duracao: 425220 Nota: C1 Vol.: 97
Chanel 5 Note Off - Duracao: 425280 Nota: C1 Vol.: 97
Chanel 5 Note On - Duracao: 425280 Nota: C1 Vol.: 64
Chanel 9 Note Off - Duracao: 425280 Nota: C1 Vol.: 43
Chanel 9 Note On - Duracao: 425280 Nota: C1 Vol.: 54
Chanel 8 Note Off - Duracao: 425340 Nota: C1 Vol.: 60
Chanel 8 Note On - Duracao: 425340 Nota: C1 Vol.: 60
Chanel 9 Note Off - Duracao: 425400 Nota: C1 Vol.: 54
Chanel 9 Note On - Duracao: 425400 Nota: C1 Vol.: 55
Chanel 10 Note Off - Duracao: 425460 Nota: C1 Vol.: 61
Chanel 10 Note On - Duracao: 425460 Nota: C1 Vol.: 63
Chanel 9 Note Off - Duracao: 425520 Nota: C1 Vol.: 55
Chanel 9 Note On - Duracao: 425520 Nota: C1 Vol.: 54
Chanel 9 Note Off - Duracao: 425640 Nota: C1 Vol.: 54
Chanel 9 Note On - Duracao: 425640 Nota: C1 Vol.: 47
Chanel 5 Note Off - Duracao: 425760 Nota: C1 Vol.: 64
Chanel 5 Note On - Duracao: 425760 Nota: C1 Vol.: 96
Chanel 3 Note Off - Duracao: 425820 Nota: C1 Vol.: 42
Chanel 3 Note On - Duracao: 425820 Nota: C1 Vol.: 43
Chanel 5 Note Off - Duracao: 425820 Nota: C1 Vol.: 96
Chanel 5 Note On - Duracao: 425820 Nota: C1 Vol.: 100
Chanel 5 Note Off - Duracao: 425880 Nota: C1 Vol.: 100
Chanel 5 Note On - Duracao: 425880 Nota: C1 Vol.: 100
Chanel 9 Note Off - Duracao: 425880 Nota: C1 Vol.: 47
Chanel 9 Note On - Duracao: 425880 Nota: C1 Vol.: 62
Chanel 5 Note Off - Duracao: 425940 Nota: C1 Vol.: 100
Chanel 5 Note On - Duracao: 425940 Nota: C1 Vol.: 100
Chanel 10 Note Off - Duracao: 425940 Nota: C1 Vol.: 63
Chanel 10 Note On - Duracao: 425940 Nota: C1 Vol.: 68
Chanel 5 Note Off - Duracao: 426000 Nota: C1 Vol.: 100
Chanel 5 Note On - Duracao: 426000 Nota: C1 Vol.: 100
Chanel 9 Note Off - Duracao: 426000 Nota: C1 Vol.: 62
Chanel 9 Note On - Duracao: 426000 Nota: C1 Vol.: 60
Chanel 5 Note Off - Duracao: 426060 Nota: C1 Vol.: 100
Chanel 5 Note On - Duracao: 426060 Nota: C1 Vol.: 100
Chanel 7 Note Off - Duracao: 426060 Nota: C1 Vol.: 52
Chanel 7 Note On - Duracao: 426060 Nota: C1 Vol.: 51
Chanel 5 Note Off - Duracao: 426120 Nota: C1 Vol.: 100
Chanel 5 Note On - Duracao: 426120 Nota: C1 Vol.: 100
Chanel 5 Note Off - Duracao: 426180 Nota: C1 Vol.: 100
Chanel 5 Note On - Duracao: 426180 Nota: C1 Vol.: 99
Chanel 10 Note Off - Duracao: 426180 Nota: C1 Vol.: 68
Chanel 10 Note On - Duracao: 426180 Nota: C1 Vol.: 71
Chanel 4 Note Off - Duracao: 426240 Nota: C1 Vol.: 42
Chanel 4 Note On - Duracao: 426240 Nota: C1 Vol.: 44
Chanel 5 Note Off - Duracao: 426240 Nota: C1 Vol.: 99
Chanel 5 Note On - Duracao: 426240 Nota: C1 Vol.: 98
Chanel 9 Note Off - Duracao: 426240 Nota: C1 Vol.: 60
Chanel 9 Note On - Duracao: 426240 Nota: C1 Vol.: 48
Chanel 5 Note Off - Duracao: 426300 Nota: C1 Vol.: 98
Chanel 5 Note On - Duracao: 426300 Nota: C1 Vol.: 98
Chanel 8 Note Off - Duracao: 426300 Nota: C1 Vol.: 60
Chanel 8 Note On - Duracao: 426300 Nota: C1 Vol.: 73
Chanel 5 Note Off - Duracao: 426360 Nota: C1 Vol.: 98
Chanel 5 Note On - Duracao: 426360 Nota: C1 Vol.: 97
Chanel 5 Note Off - Duracao: 426420 Nota: C1 Vol.: 97
Chanel 5 Note On - Duracao: 426420 Nota: C1 Vol.: 98
Chanel 10 Note Off - Duracao: 426420 Nota: C1 Vol.: 71
Chanel 10 Note On - Duracao: 426420 Nota: C1 Vol.: 71
Chanel 5 Note Off - Duracao: 426480 Nota: C1 Vol.: 98
Chanel 5 Note On - Duracao: 426480 Nota: C1 Vol.: 98
Chanel 5 Note Off - Duracao: 426540 Nota: C1 Vol.: 98
Chanel 5 Note On - Duracao: 426540 Nota: C1 Vol.: 96
Chanel 5 Note Off - Duracao: 426600 Nota: C1 Vol.: 96
Chanel 5 Note On - Duracao: 426600 Nota: C1 Vol.: 97
Chanel 5 Note Off - Duracao: 426660 Nota: C1 Vol.: 97
Chanel 5 Note On - Duracao: 426660 Nota: C1 Vol.: 100
Chanel 10 Note Off - Duracao: 426660 Nota: C1 Vol.: 71
Chanel 10 Note On - Duracao: 426660 Nota: C1 Vol.: 63
Chanel 5 Note Off - Duracao: 426720 Nota: C1 Vol.: 100
Chanel 5 Note On - Duracao: 426720 Nota: C1 Vol.: 100
Chanel 5 Note Off - Duracao: 426780 Nota: C1 Vol.: 100
Chanel 5 Note On - Duracao: 426780 Nota: C1 Vol.: 96
Chanel 8 Note Off - Duracao: 426780 Nota: C1 Vol.: 73
Chanel 8 Note On - Duracao: 426780 Nota: C1 Vol.: 67
Chanel 5 Note Off - Duracao: 426840 Nota: C1 Vol.: 96
Chanel 5 Note On - Duracao: 426840 Nota: C1 Vol.: 75
Chanel 2 Note Off - Duracao: 427020 Nota: C1 Vol.: 40
Chanel 2 Note On - Duracao: 427020 Nota: C1 Vol.: 40
Chanel 7 Note Off - Duracao: 427020 Nota: C1 Vol.: 51
Chanel 7 Note On - Duracao: 427020 Nota: C1 Vol.: 51
Chanel 5 Note Off - Duracao: 427080 Nota: C1 Vol.: 75
Chanel 5 Note On - Duracao: 427080 Nota: C1 Vol.: 56
Chanel 10 Note Off - Duracao: 427140 Nota: C1 Vol.: 63
Chanel 10 Note On - Duracao: 427140 Nota: C1 Vol.: 59
Chanel 6 Note Off - Duracao: 427200 Nota: C1 Vol.: 65
Chanel 6 Note On - Duracao: 427200 Nota: C1 Vol.: 73
Chanel 9 Note Off - Duracao: 427200 Nota: C1 Vol.: 48
Chanel 9 Note On - Duracao: 427200 Nota: C1 Vol.: 51
Chanel 2 Note Off - Duracao: 427500 Nota: C1 Vol.: 40
Chanel 2 Note On - Duracao: 427500 Nota: C1 Vol.: 51
Chanel 2 Note Off - Duracao: 427620 Nota: C1 Vol.: 51
Chanel 2 Note On - Duracao: 427620 Nota: C1 Vol.: 44
Chanel 10 Note Off - Duracao: 427620 Nota: C1 Vol.: 59
Chanel 10 Note On - Duracao: 427620 Nota: C1 Vol.: 54
Chanel 2 Note Off - Duracao: 427740 Nota: C1 Vol.: 44
Chanel 2 Note On - Duracao: 427740 Nota: C1 Vol.: 42
Chanel 3 Note Off - Duracao: 427740 Nota: C1 Vol.: 43
Chanel 3 Note On - Duracao: 427740 Nota: C1 Vol.: 44
Chanel 8 Note Off - Duracao: 427740 Nota: C1 Vol.: 67
Chanel 8 Note On - Duracao: 427740 Nota: C1 Vol.: 61
Chanel 2 Note Off - Duracao: 427860 Nota: C1 Vol.: 42
Chanel 2 Note On - Duracao: 427860 Nota: C1 Vol.: 41
Chanel 2 Note Off - Duracao: 427980 Nota: C1 Vol.: 41
Chanel 2 Note On - Duracao: 427980 Nota: C1 Vol.: 42
Chanel 7 Note Off - Duracao: 427980 Nota: C1 Vol.: 51
Chanel 7 Note On - Duracao: 427980 Nota: C1 Vol.: 51
Chanel 5 Note Off - Duracao: 428040 Nota: C1 Vol.: 56
Chanel 5 Note On - Duracao: 428040 Nota: C1 Vol.: 62
Chanel 2 Note Off - Duracao: 428100 Nota: C1 Vol.: 42
Chanel 2 Note On - Duracao: 428100 Nota: C1 Vol.: 44
Chanel 4 Note Off - Duracao: 428160 Nota: C1 Vol.: 44
Chanel 4 Note On - Duracao: 428160 Nota: C1 Vol.: 79
Chanel 9 Note Off - Duracao: 428160 Nota: C1 Vol.: 51
Chanel 9 Note On - Duracao: 428160 Nota: C1 Vol.: 51
Chanel 2 Note Off - Duracao: 428220 Nota: C1 Vol.: 44
Chanel 2 Note On - Duracao: 428220 Nota: C1 Vol.: 49
Chanel 2 Note Off - Duracao: 428340 Nota: C1 Vol.: 49
Chanel 2 Note On - Duracao: 428340 Nota: C1 Vol.: 58
Chanel 4 Note Off - Duracao: 428400 Nota: C1 Vol.: 79
Chanel 4 Note On - Duracao: 428400 Nota: C1 Vol.: 87
Chanel 2 Note Off - Duracao: 428460 Nota: C1 Vol.: 58
Chanel 2 Note On - Duracao: 428460 Nota: C1 Vol.: 47
Chanel 4 Note Off - Duracao: 428520 Nota: C1 Vol.: 87
Chanel 4 Note On - Duracao: 428520 Nota: C1 Vol.: 77
Chanel 10 Note Off - Duracao: 428580 Nota: C1 Vol.: 54
Chanel 10 Note On - Duracao: 428580 Nota: C1 Vol.: 56
Chanel 8 Note Off - Duracao: 428700 Nota: C1 Vol.: 61
Chanel 8 Note On - Duracao: 428700 Nota: C1 Vol.: 62
Chanel 4 Note Off - Duracao: 428760 Nota: C1 Vol.: 77
Chanel 4 Note On - Duracao: 428760 Nota: C1 Vol.: 60
Chanel 2 Note Off - Duracao: 428940 Nota: C1 Vol.: 47
Chanel 2 Note On - Duracao: 428940 Nota: C1 Vol.: 40
Chanel 7 Note Off - Duracao: 428940 Nota: C1 Vol.: 51
Chanel 7 Note On - Duracao: 428940 Nota: C1 Vol.: 49
Chanel 5 Note Off - Duracao: 429000 Nota: C1 Vol.: 62
Chanel 5 Note On - Duracao: 429000 Nota: C1 Vol.: 63
Chanel 6 Note Off - Duracao: 429120 Nota: C1 Vol.: 73
Chanel 6 Note On - Duracao: 429120 Nota: C1 Vol.: 71
Chanel 9 Note Off - Duracao: 429120 Nota: C1 Vol.: 51
Chanel 9 Note On - Duracao: 429120 Nota: C1 Vol.: 56
Chanel 5 Note Off - Duracao: 429480 Nota: C1 Vol.: 63
Chanel 5 Note On - Duracao: 429480 Nota: C1 Vol.: 68
Chanel 10 Note Off - Duracao: 429540 Nota: C1 Vol.: 56
Chanel 10 Note On - Duracao: 429540 Nota: C1 Vol.: 55
Chanel 8 Note Off - Duracao: 429660 Nota: C1 Vol.: 62
Chanel 8 Note On - Duracao: 429660 Nota: C1 Vol.: 59
Chanel 4 Note Off - Duracao: 429720 Nota: C1 Vol.: 60
Chanel 4 Note On - Duracao: 429720 Nota: C1 Vol.: 88
Chanel 4 Note Off - Duracao: 429840 Nota: C1 Vol.: 88
Chanel 4 Note On - Duracao: 429840 Nota: C1 Vol.: 60
Chanel 7 Note Off - Duracao: 429900 Nota: C1 Vol.: 49
Chanel 7 Note On - Duracao: 429900 Nota: C1 Vol.: 51
Chanel 5 Note Off - Duracao: 429960 Nota: C1 Vol.: 68
Chanel 5 Note On - Duracao: 429960 Nota: C1 Vol.: 74
Chanel 9 Note Off - Duracao: 430080 Nota: C1 Vol.: 56
Chanel 9 Note On - Duracao: 430080 Nota: C1 Vol.: 59
Chanel 5 Note Off - Duracao: 430440 Nota: C1 Vol.: 74
Chanel 5 Note On - Duracao: 430440 Nota: C1 Vol.: 64
Chanel 10 Note Off - Duracao: 430500 Nota: C1 Vol.: 55
Chanel 10 Note On - Duracao: 430500 Nota: C1 Vol.: 51
Chanel 9 Note Off - Duracao: 430560 Nota: C1 Vol.: 59
Chanel 9 Note On - Duracao: 430560 Nota: C1 Vol.: 58
Chanel 8 Note Off - Duracao: 430620 Nota: C1 Vol.: 59
Chanel 8 Note On - Duracao: 430620 Nota: C1 Vol.: 52
Chanel 4 Note Off - Duracao: 430800 Nota: C1 Vol.: 60
Chanel 4 Note On - Duracao: 430800 Nota: C1 Vol.: 64
Chanel 2 Note Off - Duracao: 430860 Nota: C1 Vol.: 40
Chanel 2 Note On - Duracao: 430860 Nota: C1 Vol.: 60
Chanel 7 Note Off - Duracao: 430860 Nota: C1 Vol.: 51
Chanel 7 Note On - Duracao: 430860 Nota: C1 Vol.: 56
Chanel 5 Note Off - Duracao: 430920 Nota: C1 Vol.: 64
Chanel 5 Note On - Duracao: 430920 Nota: C1 Vol.: 59
Chanel 6 Note Off - Duracao: 431040 Nota: C1 Vol.: 71
Chanel 6 Note On - Duracao: 431040 Nota: C1 Vol.: 73
Chanel 9 Note Off - Duracao: 431040 Nota: C1 Vol.: 58
Chanel 9 Note On - Duracao: 431040 Nota: C1 Vol.: 53
Chanel 4 Note Off - Duracao: 431280 Nota: C1 Vol.: 64
Chanel 4 Note On - Duracao: 431280 Nota: C1 Vol.: 82
Chanel 2 Note Off - Duracao: 431340 Nota: C1 Vol.: 60
Chanel 2 Note On - Duracao: 431340 Nota: C1 Vol.: 67
Chanel 7 Note Off - Duracao: 431340 Nota: C1 Vol.: 56
Chanel 7 Note On - Duracao: 431340 Nota: C1 Vol.: 65
Chanel 4 Note Off - Duracao: 431400 Nota: C1 Vol.: 82
Chanel 4 Note On - Duracao: 431400 Nota: C1 Vol.: 49
Chanel 5 Note Off - Duracao: 431400 Nota: C1 Vol.: 59
Chanel 5 Note On - Duracao: 431400 Nota: C1 Vol.: 69
Chanel 10 Note Off - Duracao: 431460 Nota: C1 Vol.: 51
Chanel 10 Note On - Duracao: 431460 Nota: C1 Vol.: 58
Chanel 5 Note Off - Duracao: 431520 Nota: C1 Vol.: 69
Chanel 5 Note On - Duracao: 431520 Nota: C1 Vol.: 64
Chanel 3 Note Off - Duracao: 431580 Nota: C1 Vol.: 44
Chanel 3 Note On - Duracao: 431580 Nota: C1 Vol.: 61
Chanel 7 Note Off - Duracao: 431580 Nota: C1 Vol.: 65
Chanel 7 Note On - Duracao: 431580 Nota: C1 Vol.: 62
Chanel 8 Note Off - Duracao: 431580 Nota: C1 Vol.: 52
Chanel 8 Note On - Duracao: 431580 Nota: C1 Vol.: 48
Chanel 5 Note Off - Duracao: 431640 Nota: C1 Vol.: 64
Chanel 5 Note On - Duracao: 431640 Nota: C1 Vol.: 53
Chanel 2 Note Off - Duracao: 431820 Nota: C1 Vol.: 67
Chanel 2 Note On - Duracao: 431820 Nota: C1 Vol.: 70
Chanel 9 Note Off - Duracao: 432000 Nota: C1 Vol.: 53
Chanel 9 Note On - Duracao: 432000 Nota: C1 Vol.: 60
Chanel 5 Note Off - Duracao: 432120 Nota: C1 Vol.: 53
Chanel 5 Note On - Duracao: 432120 Nota: C1 Vol.: 48
Chanel 2 Note Off - Duracao: 432300 Nota: C1 Vol.: 70
Chanel 2 Note On - Duracao: 432300 Nota: C1 Vol.: 67
Chanel 10 Note Off - Duracao: 432420 Nota: C1 Vol.: 58
Chanel 10 Note On - Duracao: 432420 Nota: C1 Vol.: 60
Chanel 9 Note Off - Duracao: 432480 Nota: C1 Vol.: 60
Chanel 9 Note On - Duracao: 432480 Nota: C1 Vol.: 58
Chanel 7 Note Off - Duracao: 432540 Nota: C1 Vol.: 62
Chanel 7 Note On - Duracao: 432540 Nota: C1 Vol.: 72
Chanel 2 Note Off - Duracao: 432780 Nota: C1 Vol.: 67
Chanel 2 Note On - Duracao: 432780 Nota: C1 Vol.: 63
Chanel 7 Note Off - Duracao: 432780 Nota: C1 Vol.: 72
Chanel 7 Note On - Duracao: 432780 Nota: C1 Vol.: 65
Chanel 10 Note Off - Duracao: 432900 Nota: C1 Vol.: 60
Chanel 10 Note On - Duracao: 432900 Nota: C1 Vol.: 68
Chanel 6 Note Off - Duracao: 432960 Nota: C1 Vol.: 73
Chanel 6 Note On - Duracao: 432960 Nota: C1 Vol.: 69
Chanel 9 Note Off - Duracao: 432960 Nota: C1 Vol.: 58
Chanel 9 Note On - Duracao: 432960 Nota: C1 Vol.: 59
Chanel 5 Note Off - Duracao: 433080 Nota: C1 Vol.: 48
Chanel 5 Note On - Duracao: 433080 Nota: C1 Vol.: 53
Chanel 7 Note Off - Duracao: 433260 Nota: C1 Vol.: 65
Chanel 7 Note On - Duracao: 433260 Nota: C1 Vol.: 59
Chanel 4 Note Off - Duracao: 433320 Nota: C1 Vol.: 49
Chanel 4 Note On - Duracao: 433320 Nota: C1 Vol.: 43
Chanel 10 Note Off - Duracao: 433380 Nota: C1 Vol.: 68
Chanel 10 Note On - Duracao: 433380 Nota: C1 Vol.: 62
Chanel 9 Note Off - Duracao: 433440 Nota: C1 Vol.: 59
Chanel 9 Note On - Duracao: 433440 Nota: C1 Vol.: 61
Chanel 3 Note Off - Duracao: 433500 Nota: C1 Vol.: 61
Chanel 3 Note On - Duracao: 433500 Nota: C1 Vol.: 66
Chanel 8 Note Off - Duracao: 433500 Nota: C1 Vol.: 48
Chanel 8 Note On - Duracao: 433500 Nota: C1 Vol.: 43
Chanel 5 Note Off - Duracao: 433560 Nota: C1 Vol.: 53
Chanel 5 Note On - Duracao: 433560 Nota: C1 Vol.: 61
Chanel 2 Note Off - Duracao: 433740 Nota: C1 Vol.: 63
Chanel 2 Note On - Duracao: 433740 Nota: C1 Vol.: 64
Chanel 5 Note Off - Duracao: 433800 Nota: C1 Vol.: 61
Chanel 5 Note On - Duracao: 433800 Nota: C1 Vol.: 53
Chanel 10 Note Off - Duracao: 433860 Nota: C1 Vol.: 62
Chanel 10 Note On - Duracao: 433860 Nota: C1 Vol.: 66
Chanel 9 Note Off - Duracao: 433920 Nota: C1 Vol.: 61
Chanel 9 Note On - Duracao: 433920 Nota: C1 Vol.: 63
Chanel 7 Note Off - Duracao: 434220 Nota: C1 Vol.: 59
Chanel 7 Note On - Duracao: 434220 Nota: C1 Vol.: 57
Chanel 5 Note Off - Duracao: 434280 Nota: C1 Vol.: 53
Chanel 5 Note On - Duracao: 434280 Nota: C1 Vol.: 50
Chanel 10 Note Off - Duracao: 434340 Nota: C1 Vol.: 66
Chanel 10 Note On - Duracao: 434340 Nota: C1 Vol.: 72
Chanel 9 Note Off - Duracao: 434400 Nota: C1 Vol.: 63
Chanel 9 Note On - Duracao: 434400 Nota: C1 Vol.: 51
Chanel 3 Note Off - Duracao: 434460 Nota: C1 Vol.: 66
Chanel 3 Note On - Duracao: 434460 Nota: C1 Vol.: 68
Chanel 2 Note Off - Duracao: 434700 Nota: C1 Vol.: 64
Chanel 2 Note On - Duracao: 434700 Nota: C1 Vol.: 65
Chanel 5 Note Off - Duracao: 434760 Nota: C1 Vol.: 50
Chanel 5 Note On - Duracao: 434760 Nota: C1 Vol.: 55
Chanel 10 Note Off - Duracao: 434820 Nota: C1 Vol.: 72
Chanel 10 Note On - Duracao: 434820 Nota: C1 Vol.: 77
Chanel 6 Note Off - Duracao: 434880 Nota: C1 Vol.: 69
Chanel 6 Note On - Duracao: 434880 Nota: C1 Vol.: 68
Chanel 5 Note Off - Duracao: 435000 Nota: C1 Vol.: 55
Chanel 5 Note On - Duracao: 435000 Nota: C1 Vol.: 52
Chanel 10 Note Off - Duracao: 435060 Nota: C1 Vol.: 77
Chanel 10 Note On - Duracao: 435060 Nota: C1 Vol.: 80
Chanel 2 Note Off - Duracao: 435180 Nota: C1 Vol.: 65
Chanel 2 Note On - Duracao: 435180 Nota: C1 Vol.: 67
Chanel 7 Note Off - Duracao: 435180 Nota: C1 Vol.: 57
Chanel 7 Note On - Duracao: 435180 Nota: C1 Vol.: 61
Chanel 4 Note Off - Duracao: 435240 Nota: C1 Vol.: 43
Chanel 4 Note On - Duracao: 435240 Nota: C1 Vol.: 43
Chanel 10 Note Off - Duracao: 435300 Nota: C1 Vol.: 80
Chanel 10 Note On - Duracao: 435300 Nota: C1 Vol.: 83
Chanel 9 Note Off - Duracao: 435360 Nota: C1 Vol.: 51
Chanel 9 Note On - Duracao: 435360 Nota: C1 Vol.: 56
Chanel 3 Note Off - Duracao: 435420 Nota: C1 Vol.: 68
Chanel 3 Note On - Duracao: 435420 Nota: C1 Vol.: 67
Chanel 8 Note Off - Duracao: 435420 Nota: C1 Vol.: 43
Chanel 8 Note On - Duracao: 435420 Nota: C1 Vol.: 47
Chanel 5 Note Off - Duracao: 435480 Nota: C1 Vol.: 52
Chanel 5 Note On - Duracao: 435480 Nota: C1 Vol.: 52
Chanel 10 Note Off - Duracao: 435540 Nota: C1 Vol.: 83
Chanel 10 Note On - Duracao: 435540 Nota: C1 Vol.: 85
Chanel 2 Note Off - Duracao: 435660 Nota: C1 Vol.: 67
Chanel 2 Note On - Duracao: 435660 Nota: C1 Vol.: 83
Chanel 7 Note Off - Duracao: 435660 Nota: C1 Vol.: 61
Chanel 7 Note On - Duracao: 435660 Nota: C1 Vol.: 95
Chanel 7 Note Off - Duracao: 435720 Nota: C1 Vol.: 95
Chanel 7 Note On - Duracao: 435720 Nota: C1 Vol.: 84
Chanel 2 Note Off - Duracao: 435780 Nota: C1 Vol.: 83
Chanel 2 Note On - Duracao: 435780 Nota: C1 Vol.: 80
Chanel 10 Note Off - Duracao: 435780 Nota: C1 Vol.: 85
Chanel 10 Note On - Duracao: 435780 Nota: C1 Vol.: 83
Chanel 9 Note Off - Duracao: 435840 Nota: C1 Vol.: 56
Chanel 9 Note On - Duracao: 435840 Nota: C1 Vol.: 60
Chanel 5 Note Off - Duracao: 435960 Nota: C1 Vol.: 52
Chanel 5 Note On - Duracao: 435960 Nota: C1 Vol.: 46
Chanel 7 Note Off - Duracao: 435960 Nota: C1 Vol.: 84
Chanel 7 Note On - Duracao: 435960 Nota: C1 Vol.: 74
Chanel 10 Note Off - Duracao: 436020 Nota: C1 Vol.: 83
Chanel 10 Note On - Duracao: 436020 Nota: C1 Vol.: 82
Chanel 7 Note Off - Duracao: 436200 Nota: C1 Vol.: 74
Chanel 7 Note On - Duracao: 436200 Nota: C1 Vol.: 80
Chanel 2 Note Off - Duracao: 436260 Nota: C1 Vol.: 80
Chanel 2 Note On - Duracao: 436260 Nota: C1 Vol.: 81
Chanel 10 Note Off - Duracao: 436260 Nota: C1 Vol.: 82
Chanel 10 Note On - Duracao: 436260 Nota: C1 Vol.: 83
Chanel 9 Note Off - Duracao: 436320 Nota: C1 Vol.: 60
Chanel 9 Note On - Duracao: 436320 Nota: C1 Vol.: 58
Chanel 3 Note Off - Duracao: 436380 Nota: C1 Vol.: 67
Chanel 3 Note On - Duracao: 436380 Nota: C1 Vol.: 73
Chanel 5 Note Off - Duracao: 436440 Nota: C1 Vol.: 46
Chanel 5 Note On - Duracao: 436440 Nota: C1 Vol.: 60
Chanel 7 Note Off - Duracao: 436440 Nota: C1 Vol.: 80
Chanel 7 Note On - Duracao: 436440 Nota: C1 Vol.: 86
Chanel 2 Note Off - Duracao: 436500 Nota: C1 Vol.: 81
Chanel 2 Note On - Duracao: 436500 Nota: C1 Vol.: 89
Chanel 10 Note Off - Duracao: 436500 Nota: C1 Vol.: 83
Chanel 10 Note On - Duracao: 436500 Nota: C1 Vol.: 84
Chanel 7 Note Off - Duracao: 436560 Nota: C1 Vol.: 86
Chanel 7 Note On - Duracao: 436560 Nota: C1 Vol.: 70
Chanel 5 Note Off - Duracao: 436680 Nota: C1 Vol.: 60
Chanel 5 Note On - Duracao: 436680 Nota: C1 Vol.: 64
Chanel 2 Note Off - Duracao: 436740 Nota: C1 Vol.: 89
Chanel 2 Note On - Duracao: 436740 Nota: C1 Vol.: 91
Chanel 10 Note Off - Duracao: 436740 Nota: C1 Vol.: 84
Chanel 10 Note On - Duracao: 436740 Nota: C1 Vol.: 85
Chanel 6 Note Off - Duracao: 436800 Nota: C1 Vol.: 68
Chanel 6 Note On - Duracao: 436800 Nota: C1 Vol.: 65
Chanel 9 Note Off - Duracao: 436800 Nota: C1 Vol.: 58
Chanel 9 Note On - Duracao: 436800 Nota: C1 Vol.: 47
Chanel 2 Note Off - Duracao: 436860 Nota: C1 Vol.: 91
Chanel 2 Note On - Duracao: 436860 Nota: C1 Vol.: 88
Chanel 5 Note Off - Duracao: 436920 Nota: C1 Vol.: 64
Chanel 5 Note On - Duracao: 436920 Nota: C1 Vol.: 60
Chanel 10 Note Off - Duracao: 436980 Nota: C1 Vol.: 85
Chanel 10 Note On - Duracao: 436980 Nota: C1 Vol.: 84
Chanel 7 Note Off - Duracao: 437040 Nota: C1 Vol.: 70
Chanel 7 Note On - Duracao: 437040 Nota: C1 Vol.: 87
Chanel 2 Note Off - Duracao: 437100 Nota: C1 Vol.: 88
Chanel 2 Note On - Duracao: 437100 Nota: C1 Vol.: 78
Chanel 4 Note Off - Duracao: 437160 Nota: C1 Vol.: 43
Chanel 4 Note On - Duracao: 437160 Nota: C1 Vol.: 43
Chanel 5 Note Off - Duracao: 437160 Nota: C1 Vol.: 60
Chanel 5 Note On - Duracao: 437160 Nota: C1 Vol.: 68
Chanel 7 Note Off - Duracao: 437160 Nota: C1 Vol.: 87
Chanel 7 Note On - Duracao: 437160 Nota: C1 Vol.: 73
Chanel 10 Note Off - Duracao: 437220 Nota: C1 Vol.: 84
Chanel 10 Note On - Duracao: 437220 Nota: C1 Vol.: 82
Chanel 2 Note Off - Duracao: 437340 Nota: C1 Vol.: 78
Chanel 2 Note On - Duracao: 437340 Nota: C1 Vol.: 79
Chanel 3 Note Off - Duracao: 437340 Nota: C1 Vol.: 73
Chanel 3 Note On - Duracao: 437340 Nota: C1 Vol.: 72
Chanel 8 Note Off - Duracao: 437340 Nota: C1 Vol.: 47
Chanel 8 Note On - Duracao: 437340 Nota: C1 Vol.: 50
Chanel 5 Note Off - Duracao: 437400 Nota: C1 Vol.: 68
Chanel 5 Note On - Duracao: 437400 Nota: C1 Vol.: 50
Chanel 7 Note Off - Duracao: 437400 Nota: C1 Vol.: 73
Chanel 7 Note On - Duracao: 437400 Nota: C1 Vol.: 94
Chanel 7 Note Off - Duracao: 437460 Nota: C1 Vol.: 94
Chanel 7 Note On - Duracao: 437460 Nota: C1 Vol.: 92
Chanel 10 Note Off - Duracao: 437460 Nota: C1 Vol.: 82
Chanel 10 Note On - Duracao: 437460 Nota: C1 Vol.: 81
Chanel 2 Note Off - Duracao: 437580 Nota: C1 Vol.: 79
Chanel 2 Note On - Duracao: 437580 Nota: C1 Vol.: 75
Chanel 7 Note Off - Duracao: 437580 Nota: C1 Vol.: 92
Chanel 7 Note On - Duracao: 437580 Nota: C1 Vol.: 91
Chanel 7 Note Off - Duracao: 437700 Nota: C1 Vol.: 91
Chanel 7 Note On - Duracao: 437700 Nota: C1 Vol.: 90
Chanel 10 Note Off - Duracao: 437700 Nota: C1 Vol.: 81
Chanel 10 Note On - Duracao: 437700 Nota: C1 Vol.: 82
Chanel 7 Note Off - Duracao: 437760 Nota: C1 Vol.: 90
Chanel 7 Note On - Duracao: 437760 Nota: C1 Vol.: 57
Chanel 9 Note Off - Duracao: 437760 Nota: C1 Vol.: 47
Chanel 9 Note On - Duracao: 437760 Nota: C1 Vol.: 58
Chanel 2 Note Off - Duracao: 437820 Nota: C1 Vol.: 75
Chanel 2 Note On - Duracao: 437820 Nota: C1 Vol.: 75
Chanel 10 Note Off - Duracao: 437940 Nota: C1 Vol.: 82
Chanel 10 Note On - Duracao: 437940 Nota: C1 Vol.: 83
Chanel 2 Note Off - Duracao: 438060 Nota: C1 Vol.: 75
Chanel 2 Note On - Duracao: 438060 Nota: C1 Vol.: 71
Chanel 10 Note Off - Duracao: 438180 Nota: C1 Vol.: 83
Chanel 10 Note On - Duracao: 438180 Nota: C1 Vol.: 82
Chanel 7 Note Off - Duracao: 438240 Nota: C1 Vol.: 57
Chanel 7 Note On - Duracao: 438240 Nota: C1 Vol.: 51
Chanel 9 Note Off - Duracao: 438240 Nota: C1 Vol.: 58
Chanel 9 Note On - Duracao: 438240 Nota: C1 Vol.: 62
Chanel 3 Note Off - Duracao: 438300 Nota: C1 Vol.: 72
Chanel 3 Note On - Duracao: 438300 Nota: C1 Vol.: 76
Chanel 8 Note Off - Duracao: 438300 Nota: C1 Vol.: 50
Chanel 8 Note On - Duracao: 438300 Nota: C1 Vol.: 50
Chanel 5 Note Off - Duracao: 438360 Nota: C1 Vol.: 50
Chanel 5 Note On - Duracao: 438360 Nota: C1 Vol.: 47
Chanel 10 Note Off - Duracao: 438420 Nota: C1 Vol.: 82
Chanel 10 Note On - Duracao: 438420 Nota: C1 Vol.: 79
Chanel 9 Note Off - Duracao: 438480 Nota: C1 Vol.: 62
Chanel 9 Note On - Duracao: 438480 Nota: C1 Vol.: 61
Chanel 2 Note Off - Duracao: 438540 Nota: C1 Vol.: 71
Chanel 2 Note On - Duracao: 438540 Nota: C1 Vol.: 79
Chanel 10 Note Off - Duracao: 438660 Nota: C1 Vol.: 79
Chanel 10 Note On - Duracao: 438660 Nota: C1 Vol.: 77
Chanel 6 Note Off - Duracao: 438720 Nota: C1 Vol.: 65
Chanel 6 Note On - Duracao: 438720 Nota: C1 Vol.: 62
Chanel 9 Note Off - Duracao: 438720 Nota: C1 Vol.: 61
Chanel 9 Note On - Duracao: 438720 Nota: C1 Vol.: 50
Chanel 2 Note Off - Duracao: 438780 Nota: C1 Vol.: 79
Chanel 2 Note On - Duracao: 438780 Nota: C1 Vol.: 77
Chanel 2 Note Off - Duracao: 439020 Nota: C1 Vol.: 77
Chanel 2 Note On - Duracao: 439020 Nota: C1 Vol.: 79
Chanel 4 Note Off - Duracao: 439080 Nota: C1 Vol.: 43
Chanel 4 Note On - Duracao: 439080 Nota: C1 Vol.: 50
Chanel 10 Note Off - Duracao: 439140 Nota: C1 Vol.: 77
Chanel 10 Note On - Duracao: 439140 Nota: C1 Vol.: 76
Chanel 7 Note Off - Duracao: 439200 Nota: C1 Vol.: 51
Chanel 7 Note On - Duracao: 439200 Nota: C1 Vol.: 66
Chanel 9 Note Off - Duracao: 439200 Nota: C1 Vol.: 50
Chanel 9 Note On - Duracao: 439200 Nota: C1 Vol.: 57
Chanel 2 Note Off - Duracao: 439260 Nota: C1 Vol.: 79
Chanel 2 Note On - Duracao: 439260 Nota: C1 Vol.: 75
Chanel 3 Note Off - Duracao: 439260 Nota: C1 Vol.: 76
Chanel 3 Note On - Duracao: 439260 Nota: C1 Vol.: 80
Chanel 8 Note Off - Duracao: 439260 Nota: C1 Vol.: 50
Chanel 8 Note On - Duracao: 439260 Nota: C1 Vol.: 50
Chanel 5 Note Off - Duracao: 439320 Nota: C1 Vol.: 47
Chanel 5 Note On - Duracao: 439320 Nota: C1 Vol.: 46
Chanel 10 Note Off - Duracao: 439380 Nota: C1 Vol.: 76
Chanel 10 Note On - Duracao: 439380 Nota: C1 Vol.: 72
Chanel 9 Note Off - Duracao: 439440 Nota: C1 Vol.: 57
Chanel 9 Note On - Duracao: 439440 Nota: C1 Vol.: 53
Chanel 2 Note Off - Duracao: 439500 Nota: C1 Vol.: 75
Chanel 2 Note On - Duracao: 439500 Nota: C1 Vol.: 74
Chanel 7 Note Off - Duracao: 439680 Nota: C1 Vol.: 66
Chanel 7 Note On - Duracao: 439680 Nota: C1 Vol.: 73
Chanel 9 Note Off - Duracao: 439680 Nota: C1 Vol.: 53
Chanel 9 Note On - Duracao: 439680 Nota: C1 Vol.: 58
Chanel 3 Note Off - Duracao: 439740 Nota: C1 Vol.: 80
Chanel 3 Note On - Duracao: 439740 Nota: C1 Vol.: 81
Chanel 10 Note Off - Duracao: 439860 Nota: C1 Vol.: 72
Chanel 10 Note On - Duracao: 439860 Nota: C1 Vol.: 70
Chanel 7 Note Off - Duracao: 439920 Nota: C1 Vol.: 73
Chanel 7 Note On - Duracao: 439920 Nota: C1 Vol.: 77
Chanel 9 Note Off - Duracao: 439920 Nota: C1 Vol.: 58
Chanel 9 Note On - Duracao: 439920 Nota: C1 Vol.: 59
Chanel 2 Note Off - Duracao: 439980 Nota: C1 Vol.: 74
Chanel 2 Note On - Duracao: 439980 Nota: C1 Vol.: 83
Chanel 7 Note Off - Duracao: 440160 Nota: C1 Vol.: 77
Chanel 7 Note On - Duracao: 440160 Nota: C1 Vol.: 78
Chanel 9 Note Off - Duracao: 440160 Nota: C1 Vol.: 59
Chanel 9 Note On - Duracao: 440160 Nota: C1 Vol.: 62
Chanel 2 Note Off - Duracao: 440220 Nota: C1 Vol.: 83
Chanel 2 Note On - Duracao: 440220 Nota: C1 Vol.: 90
Chanel 3 Note Off - Duracao: 440220 Nota: C1 Vol.: 81
Chanel 3 Note On - Duracao: 440220 Nota: C1 Vol.: 72
Chanel 8 Note Off - Duracao: 440220 Nota: C1 Vol.: 50
Chanel 8 Note On - Duracao: 440220 Nota: C1 Vol.: 50
Chanel 5 Note Off - Duracao: 440280 Nota: C1 Vol.: 46
Chanel 5 Note On - Duracao: 440280 Nota: C1 Vol.: 54
Chanel 7 Note Off - Duracao: 440280 Nota: C1 Vol.: 78
Chanel 7 Note On - Duracao: 440280 Nota: C1 Vol.: 52
Chanel 2 Note Off - Duracao: 440340 Nota: C1 Vol.: 90
Chanel 2 Note On - Duracao: 440340 Nota: C1 Vol.: 81
Chanel 10 Note Off - Duracao: 440340 Nota: C1 Vol.: 70
Chanel 10 Note On - Duracao: 440340 Nota: C1 Vol.: 66
Chanel 9 Note Off - Duracao: 440400 Nota: C1 Vol.: 62
Chanel 9 Note On - Duracao: 440400 Nota: C1 Vol.: 65
Chanel 2 Note Off - Duracao: 440580 Nota: C1 Vol.: 81
Chanel 2 Note On - Duracao: 440580 Nota: C1 Vol.: 77
Chanel 6 Note Off - Duracao: 440640 Nota: C1 Vol.: 62
Chanel 6 Note On - Duracao: 440640 Nota: C1 Vol.: 60
Chanel 9 Note Off - Duracao: 440640 Nota: C1 Vol.: 65
Chanel 9 Note On - Duracao: 440640 Nota: C1 Vol.: 64
Chanel 5 Note Off - Duracao: 440760 Nota: C1 Vol.: 54
Chanel 5 Note On - Duracao: 440760 Nota: C1 Vol.: 59
Chanel 2 Note Off - Duracao: 440820 Nota: C1 Vol.: 77
Chanel 2 Note On - Duracao: 440820 Nota: C1 Vol.: 76
Chanel 10 Note Off - Duracao: 440820 Nota: C1 Vol.: 66
Chanel 10 Note On - Duracao: 440820 Nota: C1 Vol.: 65
Chanel 9 Note Off - Duracao: 440880 Nota: C1 Vol.: 64
Chanel 9 Note On - Duracao: 440880 Nota: C1 Vol.: 64
Chanel 4 Note Off - Duracao: 441000 Nota: C1 Vol.: 50
Chanel 4 Note On - Duracao: 441000 Nota: C1 Vol.: 41
Chanel 5 Note Off - Duracao: 441000 Nota: C1 Vol.: 59
Chanel 5 Note On - Duracao: 441000 Nota: C1 Vol.: 53
Chanel 2 Note Off - Duracao: 441060 Nota: C1 Vol.: 76
Chanel 2 Note On - Duracao: 441060 Nota: C1 Vol.: 68
Chanel 9 Note Off - Duracao: 441120 Nota: C1 Vol.: 64
Chanel 9 Note On - Duracao: 441120 Nota: C1 Vol.: 61
Chanel 3 Note Off - Duracao: 441180 Nota: C1 Vol.: 72
Chanel 3 Note On - Duracao: 441180 Nota: C1 Vol.: 71
Chanel 8 Note Off - Duracao: 441180 Nota: C1 Vol.: 50
Chanel 8 Note On - Duracao: 441180 Nota: C1 Vol.: 51
Chanel 7 Note Off - Duracao: 441240 Nota: C1 Vol.: 52
Chanel 7 Note On - Duracao: 441240 Nota: C1 Vol.: 69
Chanel 2 Note Off - Duracao: 441300 Nota: C1 Vol.: 68
Chanel 2 Note On - Duracao: 441300 Nota: C1 Vol.: 74
Chanel 10 Note Off - Duracao: 441300 Nota: C1 Vol.: 65
Chanel 10 Note On - Duracao: 441300 Nota: C1 Vol.: 62
Chanel 9 Note Off - Duracao: 441360 Nota: C1 Vol.: 61
Chanel 9 Note On - Duracao: 441360 Nota: C1 Vol.: 58
Chanel 2 Note Off - Duracao: 441420 Nota: C1 Vol.: 74
Chanel 2 Note On - Duracao: 441420 Nota: C1 Vol.: 71
Chanel 5 Note Off - Duracao: 441480 Nota: C1 Vol.: 53
Chanel 5 Note On - Duracao: 441480 Nota: C1 Vol.: 57
Chanel 7 Note Off - Duracao: 441480 Nota: C1 Vol.: 69
Chanel 7 Note On - Duracao: 441480 Nota: C1 Vol.: 58
Chanel 2 Note Off - Duracao: 441540 Nota: C1 Vol.: 71
Chanel 2 Note On - Duracao: 441540 Nota: C1 Vol.: 71
Chanel 9 Note Off - Duracao: 441600 Nota: C1 Vol.: 58
Chanel 9 Note On - Duracao: 441600 Nota: C1 Vol.: 51
Chanel 2 Note Off - Duracao: 441780 Nota: C1 Vol.: 71
Chanel 2 Note On - Duracao: 441780 Nota: C1 Vol.: 76
Chanel 10 Note Off - Duracao: 441780 Nota: C1 Vol.: 62
Chanel 10 Note On - Duracao: 441780 Nota: C1 Vol.: 54
Chanel 5 Note Off - Duracao: 441960 Nota: C1 Vol.: 57
Chanel 5 Note On - Duracao: 441960 Nota: C1 Vol.: 61
Chanel 7 Note Off - Duracao: 441960 Nota: C1 Vol.: 58
Chanel 7 Note On - Duracao: 441960 Nota: C1 Vol.: 69
Chanel 2 Note Off - Duracao: 442020 Nota: C1 Vol.: 76
Chanel 2 Note On - Duracao: 442020 Nota: C1 Vol.: 66
Chanel 9 Note Off - Duracao: 442080 Nota: C1 Vol.: 51
Chanel 9 Note On - Duracao: 442080 Nota: C1 Vol.: 52
Chanel 3 Note Off - Duracao: 442140 Nota: C1 Vol.: 71
Chanel 3 Note On - Duracao: 442140 Nota: C1 Vol.: 72
Chanel 8 Note Off - Duracao: 442140 Nota: C1 Vol.: 51
Chanel 8 Note On - Duracao: 442140 Nota: C1 Vol.: 55
Chanel 5 Note Off - Duracao: 442200 Nota: C1 Vol.: 61
Chanel 5 Note On - Duracao: 442200 Nota: C1 Vol.: 54
Chanel 7 Note Off - Duracao: 442200 Nota: C1 Vol.: 69
Chanel 7 Note On - Duracao: 442200 Nota: C1 Vol.: 61
Chanel 7 Note Off - Duracao: 442440 Nota: C1 Vol.: 61
Chanel 7 Note On - Duracao: 442440 Nota: C1 Vol.: 60
Chanel 2 Note Off - Duracao: 442500 Nota: C1 Vol.: 66
Chanel 2 Note On - Duracao: 442500 Nota: C1 Vol.: 62
Chanel 6 Note Off - Duracao: 442560 Nota: C1 Vol.: 60
Chanel 6 Note On - Duracao: 442560 Nota: C1 Vol.: 56
Chanel 9 Note Off - Duracao: 442560 Nota: C1 Vol.: 52
Chanel 9 Note On - Duracao: 442560 Nota: C1 Vol.: 53
Chanel 3 Note Off - Duracao: 442620 Nota: C1 Vol.: 72
Chanel 3 Note On - Duracao: 442620 Nota: C1 Vol.: 65
Chanel 7 Note Off - Duracao: 442680 Nota: C1 Vol.: 60
Chanel 7 Note On - Duracao: 442680 Nota: C1 Vol.: 70
Chanel 10 Note Off - Duracao: 442740 Nota: C1 Vol.: 54
Chanel 10 Note On - Duracao: 442740 Nota: C1 Vol.: 57
Chanel 4 Note Off - Duracao: 442920 Nota: C1 Vol.: 41
Chanel 4 Note On - Duracao: 442920 Nota: C1 Vol.: 65
Chanel 7 Note Off - Duracao: 442920 Nota: C1 Vol.: 70
Chanel 7 Note On - Duracao: 442920 Nota: C1 Vol.: 48
Chanel 2 Note Off - Duracao: 442980 Nota: C1 Vol.: 62
Chanel 2 Note On - Duracao: 442980 Nota: C1 Vol.: 72
Chanel 9 Note Off - Duracao: 443040 Nota: C1 Vol.: 53
Chanel 9 Note On - Duracao: 443040 Nota: C1 Vol.: 62
Chanel 8 Note Off - Duracao: 443100 Nota: C1 Vol.: 55
Chanel 8 Note On - Duracao: 443100 Nota: C1 Vol.: 52
Chanel 5 Note Off - Duracao: 443160 Nota: C1 Vol.: 54
Chanel 5 Note On - Duracao: 443160 Nota: C1 Vol.: 59
Chanel 2 Note Off - Duracao: 443220 Nota: C1 Vol.: 72
Chanel 2 Note On - Duracao: 443220 Nota: C1 Vol.: 76
Chanel 10 Note Off - Duracao: 443220 Nota: C1 Vol.: 57
Chanel 10 Note On - Duracao: 443220 Nota: C1 Vol.: 57
Chanel 4 Note Off - Duracao: 443400 Nota: C1 Vol.: 65
Chanel 4 Note On - Duracao: 443400 Nota: C1 Vol.: 85
Chanel 2 Note Off - Duracao: 443460 Nota: C1 Vol.: 76
Chanel 2 Note On - Duracao: 443460 Nota: C1 Vol.: 75
Chanel 4 Note Off - Duracao: 443520 Nota: C1 Vol.: 85
Chanel 4 Note On - Duracao: 443520 Nota: C1 Vol.: 90
Chanel 9 Note Off - Duracao: 443520 Nota: C1 Vol.: 62
Chanel 9 Note On - Duracao: 443520 Nota: C1 Vol.: 70
Chanel 3 Note Off - Duracao: 443580 Nota: C1 Vol.: 65
Chanel 3 Note On - Duracao: 443580 Nota: C1 Vol.: 73
Chanel 4 Note Off - Duracao: 443640 Nota: C1 Vol.: 90
Chanel 4 Note On - Duracao: 443640 Nota: C1 Vol.: 99
Chanel 2 Note Off - Duracao: 443700 Nota: C1 Vol.: 75
Chanel 2 Note On - Duracao: 443700 Nota: C1 Vol.: 70
Chanel 4 Note Off - Duracao: 443700 Nota: C1 Vol.: 99
Chanel 4 Note On - Duracao: 443700 Nota: C1 Vol.: 100
Chanel 10 Note Off - Duracao: 443700 Nota: C1 Vol.: 57
Chanel 10 Note On - Duracao: 443700 Nota: C1 Vol.: 58
Chanel 4 Note Off - Duracao: 443760 Nota: C1 Vol.: 100
Chanel 4 Note On - Duracao: 443760 Nota: C1 Vol.: 100
Chanel 9 Note Off - Duracao: 443760 Nota: C1 Vol.: 70
Chanel 9 Note On - Duracao: 443760 Nota: C1 Vol.: 71
Chanel 4 Note Off - Duracao: 443820 Nota: C1 Vol.: 100
Chanel 4 Note On - Duracao: 443820 Nota: C1 Vol.: 99
Chanel 4 Note Off - Duracao: 443880 Nota: C1 Vol.: 99
Chanel 4 Note On - Duracao: 443880 Nota: C1 Vol.: 99
Chanel 7 Note Off - Duracao: 443880 Nota: C1 Vol.: 48
Chanel 7 Note On - Duracao: 443880 Nota: C1 Vol.: 52
Chanel 2 Note Off - Duracao: 443940 Nota: C1 Vol.: 70
Chanel 2 Note On - Duracao: 443940 Nota: C1 Vol.: 71
Chanel 4 Note Off - Duracao: 443940 Nota: C1 Vol.: 99
Chanel 4 Note On - Duracao: 443940 Nota: C1 Vol.: 98
Chanel 4 Note Off - Duracao: 444000 Nota: C1 Vol.: 98
Chanel 4 Note On - Duracao: 444000 Nota: C1 Vol.: 86
Chanel 9 Note Off - Duracao: 444000 Nota: C1 Vol.: 71
Chanel 9 Note On - Duracao: 444000 Nota: C1 Vol.: 67
Chanel 3 Note Off - Duracao: 444060 Nota: C1 Vol.: 73
Chanel 3 Note On - Duracao: 444060 Nota: C1 Vol.: 68
Chanel 8 Note Off - Duracao: 444060 Nota: C1 Vol.: 52
Chanel 8 Note On - Duracao: 444060 Nota: C1 Vol.: 50
Chanel 4 Note Off - Duracao: 444120 Nota: C1 Vol.: 86
Chanel 4 Note On - Duracao: 444120 Nota: C1 Vol.: 42
Chanel 5 Note Off - Duracao: 444120 Nota: C1 Vol.: 59
Chanel 5 Note On - Duracao: 444120 Nota: C1 Vol.: 88
Chanel 2 Note Off - Duracao: 444180 Nota: C1 Vol.: 71
Chanel 2 Note On - Duracao: 444180 Nota: C1 Vol.: 73
Chanel 10 Note Off - Duracao: 444180 Nota: C1 Vol.: 58
Chanel 10 Note On - Duracao: 444180 Nota: C1 Vol.: 61
Chanel 5 Note Off - Duracao: 444240 Nota: C1 Vol.: 88
Chanel 5 Note On - Duracao: 444240 Nota: C1 Vol.: 51
Chanel 2 Note Off - Duracao: 444420 Nota: C1 Vol.: 73
Chanel 2 Note On - Duracao: 444420 Nota: C1 Vol.: 56
Chanel 6 Note Off - Duracao: 444480 Nota: C1 Vol.: 56
Chanel 6 Note On - Duracao: 444480 Nota: C1 Vol.: 52
Chanel 9 Note Off - Duracao: 444480 Nota: C1 Vol.: 67
Chanel 9 Note On - Duracao: 444480 Nota: C1 Vol.: 64
Chanel 3 Note Off - Duracao: 444540 Nota: C1 Vol.: 68
Chanel 3 Note On - Duracao: 444540 Nota: C1 Vol.: 64
Chanel 10 Note Off - Duracao: 444660 Nota: C1 Vol.: 61
Chanel 10 Note On - Duracao: 444660 Nota: C1 Vol.: 58
Chanel 7 Note Off - Duracao: 444840 Nota: C1 Vol.: 52
Chanel 7 Note On - Duracao: 444840 Nota: C1 Vol.: 60
Chanel 2 Note Off - Duracao: 444900 Nota: C1 Vol.: 56
Chanel 2 Note On - Duracao: 444900 Nota: C1 Vol.: 70
Chanel 9 Note Off - Duracao: 444960 Nota: C1 Vol.: 64
Chanel 9 Note On - Duracao: 444960 Nota: C1 Vol.: 71
Chanel 3 Note Off - Duracao: 445020 Nota: C1 Vol.: 64
Chanel 3 Note On - Duracao: 445020 Nota: C1 Vol.: 64
Chanel 8 Note Off - Duracao: 445020 Nota: C1 Vol.: 50
Chanel 8 Note On - Duracao: 445020 Nota: C1 Vol.: 52
Chanel 2 Note Off - Duracao: 445140 Nota: C1 Vol.: 70
Chanel 2 Note On - Duracao: 445140 Nota: C1 Vol.: 72
Chanel 10 Note Off - Duracao: 445140 Nota: C1 Vol.: 58
Chanel 10 Note On - Duracao: 445140 Nota: C1 Vol.: 55
Chanel 7 Note Off - Duracao: 445320 Nota: C1 Vol.: 60
Chanel 7 Note On - Duracao: 445320 Nota: C1 Vol.: 92
Chanel 2 Note Off - Duracao: 445380 Nota: C1 Vol.: 72
Chanel 2 Note On - Duracao: 445380 Nota: C1 Vol.: 71
Chanel 7 Note Off - Duracao: 445380 Nota: C1 Vol.: 92
Chanel 7 Note On - Duracao: 445380 Nota: C1 Vol.: 91
Chanel 9 Note Off - Duracao: 445440 Nota: C1 Vol.: 71
Chanel 9 Note On - Duracao: 445440 Nota: C1 Vol.: 75
Chanel 3 Note Off - Duracao: 445500 Nota: C1 Vol.: 64
Chanel 3 Note On - Duracao: 445500 Nota: C1 Vol.: 59
Chanel 7 Note Off - Duracao: 445500 Nota: C1 Vol.: 91
Chanel 7 Note On - Duracao: 445500 Nota: C1 Vol.: 92
Chanel 2 Note Off - Duracao: 445620 Nota: C1 Vol.: 71
Chanel 2 Note On - Duracao: 445620 Nota: C1 Vol.: 72
Chanel 7 Note Off - Duracao: 445620 Nota: C1 Vol.: 92
Chanel 7 Note On - Duracao: 445620 Nota: C1 Vol.: 87
Chanel 10 Note Off - Duracao: 445620 Nota: C1 Vol.: 55
Chanel 10 Note On - Duracao: 445620 Nota: C1 Vol.: 56
Chanel 7 Note Off - Duracao: 445740 Nota: C1 Vol.: 87
Chanel 7 Note On - Duracao: 445740 Nota: C1 Vol.: 76
Chanel 2 Note Off - Duracao: 445860 Nota: C1 Vol.: 72
Chanel 2 Note On - Duracao: 445860 Nota: C1 Vol.: 91
Chanel 7 Note Off - Duracao: 445860 Nota: C1 Vol.: 76
Chanel 7 Note On - Duracao: 445860 Nota: C1 Vol.: 65
Chanel 2 Note Off - Duracao: 445920 Nota: C1 Vol.: 91
Chanel 2 Note On - Duracao: 445920 Nota: C1 Vol.: 91
Chanel 9 Note Off - Duracao: 445920 Nota: C1 Vol.: 75
Chanel 9 Note On - Duracao: 445920 Nota: C1 Vol.: 75
Chanel 2 Note Off - Duracao: 445980 Nota: C1 Vol.: 91
Chanel 2 Note On - Duracao: 445980 Nota: C1 Vol.: 80
Chanel 3 Note Off - Duracao: 445980 Nota: C1 Vol.: 59
Chanel 3 Note On - Duracao: 445980 Nota: C1 Vol.: 57
Chanel 8 Note Off - Duracao: 445980 Nota: C1 Vol.: 52
Chanel 8 Note On - Duracao: 445980 Nota: C1 Vol.: 42
Chanel 4 Note Off - Duracao: 446040 Nota: C1 Vol.: 42
Chanel 4 Note On - Duracao: 446040 Nota: C1 Vol.: 44
Chanel 2 Note Off - Duracao: 446100 Nota: C1 Vol.: 80
Chanel 2 Note On - Duracao: 446100 Nota: C1 Vol.: 68
Chanel 7 Note Off - Duracao: 446100 Nota: C1 Vol.: 65
Chanel 7 Note On - Duracao: 446100 Nota: C1 Vol.: 47
Chanel 10 Note Off - Duracao: 446100 Nota: C1 Vol.: 56
Chanel 10 Note On - Duracao: 446100 Nota: C1 Vol.: 55
Chanel 5 Note Off - Duracao: 446160 Nota: C1 Vol.: 51
Chanel 5 Note On - Duracao: 446160 Nota: C1 Vol.: 66
Chanel 2 Note Off - Duracao: 446340 Nota: C1 Vol.: 68
Chanel 2 Note On - Duracao: 446340 Nota: C1 Vol.: 73
Chanel 6 Note Off - Duracao: 446400 Nota: C1 Vol.: 52
Chanel 6 Note On - Duracao: 446400 Nota: C1 Vol.: 49
Chanel 9 Note Off - Duracao: 446400 Nota: C1 Vol.: 75
Chanel 9 Note On - Duracao: 446400 Nota: C1 Vol.: 72
Chanel 2 Note Off - Duracao: 446460 Nota: C1 Vol.: 73
Chanel 2 Note On - Duracao: 446460 Nota: C1 Vol.: 67
Chanel 10 Note Off - Duracao: 446580 Nota: C1 Vol.: 55
Chanel 10 Note On - Duracao: 446580 Nota: C1 Vol.: 55
Chanel 2 Note Off - Duracao: 446700 Nota: C1 Vol.: 67
Chanel 2 Note On - Duracao: 446700 Nota: C1 Vol.: 60
Chanel 9 Note Off - Duracao: 446880 Nota: C1 Vol.: 72
Chanel 9 Note On - Duracao: 446880 Nota: C1 Vol.: 69
Chanel 3 Note Off - Duracao: 446940 Nota: C1 Vol.: 57
Chanel 3 Note On - Duracao: 446940 Nota: C1 Vol.: 63
Chanel 8 Note Off - Duracao: 446940 Nota: C1 Vol.: 42
Chanel 8 Note On - Duracao: 446940 Nota: C1 Vol.: 65
Chanel 7 Note Off - Duracao: 447060 Nota: C1 Vol.: 47
Chanel 7 Note On - Duracao: 447060 Nota: C1 Vol.: 52
Chanel 10 Note Off - Duracao: 447060 Nota: C1 Vol.: 55
Chanel 10 Note On - Duracao: 447060 Nota: C1 Vol.: 54
Chanel 5 Note Off - Duracao: 447120 Nota: C1 Vol.: 66
Chanel 5 Note On - Duracao: 447120 Nota: C1 Vol.: 79
Chanel 2 Note Off - Duracao: 447180 Nota: C1 Vol.: 60
Chanel 2 Note On - Duracao: 447180 Nota: C1 Vol.: 48
Chanel 8 Note Off - Duracao: 447180 Nota: C1 Vol.: 65
Chanel 8 Note On - Duracao: 447180 Nota: C1 Vol.: 65
Chanel 5 Note Off - Duracao: 447360 Nota: C1 Vol.: 79
Chanel 5 Note On - Duracao: 447360 Nota: C1 Vol.: 90
Chanel 9 Note Off - Duracao: 447360 Nota: C1 Vol.: 69
Chanel 9 Note On - Duracao: 447360 Nota: C1 Vol.: 65
Chanel 3 Note Off - Duracao: 447420 Nota: C1 Vol.: 63
Chanel 3 Note On - Duracao: 447420 Nota: C1 Vol.: 77
Chanel 8 Note Off - Duracao: 447420 Nota: C1 Vol.: 65
Chanel 8 Note On - Duracao: 447420 Nota: C1 Vol.: 43
Chanel 5 Note Off - Duracao: 447480 Nota: C1 Vol.: 90
Chanel 5 Note On - Duracao: 447480 Nota: C1 Vol.: 96
Chanel 3 Note Off - Duracao: 447540 Nota: C1 Vol.: 77
Chanel 3 Note On - Duracao: 447540 Nota: C1 Vol.: 76
Chanel 7 Note Off - Duracao: 447540 Nota: C1 Vol.: 52
Chanel 7 Note On - Duracao: 447540 Nota: C1 Vol.: 56
Chanel 10 Note Off - Duracao: 447540 Nota: C1 Vol.: 54
Chanel 10 Note On - Duracao: 447540 Nota: C1 Vol.: 56
Chanel 5 Note Off - Duracao: 447600 Nota: C1 Vol.: 96
Chanel 5 Note On - Duracao: 447600 Nota: C1 Vol.: 62
Chanel 3 Note Off - Duracao: 447660 Nota: C1 Vol.: 76
Chanel 3 Note On - Duracao: 447660 Nota: C1 Vol.: 70
Chanel 9 Note Off - Duracao: 447840 Nota: C1 Vol.: 65
Chanel 9 Note On - Duracao: 447840 Nota: C1 Vol.: 57
Chanel 3 Note Off - Duracao: 447900 Nota: C1 Vol.: 70
Chanel 3 Note On - Duracao: 447900 Nota: C1 Vol.: 40
Chanel 4 Note Off - Duracao: 447960 Nota: C1 Vol.: 44
Chanel 4 Note On - Duracao: 447960 Nota: C1 Vol.: 68
Chanel 7 Note Off - Duracao: 448020 Nota: C1 Vol.: 56
Chanel 7 Note On - Duracao: 448020 Nota: C1 Vol.: 55
Chanel 10 Note Off - Duracao: 448020 Nota: C1 Vol.: 56
Chanel 10 Note On - Duracao: 448020 Nota: C1 Vol.: 57
Chanel 2 Note Off - Duracao: 448140 Nota: C1 Vol.: 48
Chanel 2 Note On - Duracao: 448140 Nota: C1 Vol.: 52
Chanel 6 Note Off - Duracao: 448320 Nota: C1 Vol.: 49
Chanel 6 Note On - Duracao: 448320 Nota: C1 Vol.: 48
Chanel 8 Note Off - Duracao: 448380 Nota: C1 Vol.: 43
Chanel 8 Note On - Duracao: 448380 Nota: C1 Vol.: 44
Chanel 4 Note Off - Duracao: 448440 Nota: C1 Vol.: 68
Chanel 4 Note On - Duracao: 448440 Nota: C1 Vol.: 100
Chanel 4 Note Off - Duracao: 448500 Nota: C1 Vol.: 100
Chanel 4 Note On - Duracao: 448500 Nota: C1 Vol.: 99
Chanel 7 Note Off - Duracao: 448500 Nota: C1 Vol.: 55
Chanel 7 Note On - Duracao: 448500 Nota: C1 Vol.: 50
Chanel 10 Note Off - Duracao: 448500 Nota: C1 Vol.: 57
Chanel 10 Note On - Duracao: 448500 Nota: C1 Vol.: 53
Chanel 4 Note Off - Duracao: 448560 Nota: C1 Vol.: 99
Chanel 4 Note On - Duracao: 448560 Nota: C1 Vol.: 96
Chanel 5 Note Off - Duracao: 448560 Nota: C1 Vol.: 62
Chanel 5 Note On - Duracao: 448560 Nota: C1 Vol.: 60
Chanel 4 Note Off - Duracao: 448620 Nota: C1 Vol.: 96
Chanel 4 Note On - Duracao: 448620 Nota: C1 Vol.: 99
Chanel 4 Note Off - Duracao: 448680 Nota: C1 Vol.: 99
Chanel 4 Note On - Duracao: 448680 Nota: C1 Vol.: 100
Chanel 4 Note Off - Duracao: 448740 Nota: C1 Vol.: 100
Chanel 4 Note On - Duracao: 448740 Nota: C1 Vol.: 99
Chanel 4 Note Off - Duracao: 448800 Nota: C1 Vol.: 99
Chanel 4 Note On - Duracao: 448800 Nota: C1 Vol.: 99
Chanel 9 Note Off - Duracao: 448800 Nota: C1 Vol.: 57
Chanel 9 Note On - Duracao: 448800 Nota: C1 Vol.: 58
Chanel 4 Note Off - Duracao: 448860 Nota: C1 Vol.: 99
Chanel 4 Note On - Duracao: 448860 Nota: C1 Vol.: 93
Chanel 4 Note Off - Duracao: 448920 Nota: C1 Vol.: 93
Chanel 4 Note On - Duracao: 448920 Nota: C1 Vol.: 73
Chanel 10 Note Off - Duracao: 448980 Nota: C1 Vol.: 53
Chanel 10 Note On - Duracao: 448980 Nota: C1 Vol.: 48
Chanel 2 Note Off - Duracao: 449100 Nota: C1 Vol.: 52
Chanel 2 Note On - Duracao: 449100 Nota: C1 Vol.: 41
Chanel 4 Note Off - Duracao: 449160 Nota: C1 Vol.: 73
Chanel 4 Note On - Duracao: 449160 Nota: C1 Vol.: 71
Chanel 8 Note Off - Duracao: 449340 Nota: C1 Vol.: 44
Chanel 8 Note On - Duracao: 449340 Nota: C1 Vol.: 49
Chanel 7 Note Off - Duracao: 449460 Nota: C1 Vol.: 50
Chanel 7 Note On - Duracao: 449460 Nota: C1 Vol.: 48
Chanel 4 Note Off - Duracao: 449640 Nota: C1 Vol.: 71
Chanel 4 Note On - Duracao: 449640 Nota: C1 Vol.: 70
Chanel 9 Note Off - Duracao: 449760 Nota: C1 Vol.: 58
Chanel 9 Note On - Duracao: 449760 Nota: C1 Vol.: 53
Chanel 3 Note Off - Duracao: 449820 Nota: C1 Vol.: 40
Chanel 3 Note On - Duracao: 449820 Nota: C1 Vol.: 62
Chanel 10 Note Off - Duracao: 449940 Nota: C1 Vol.: 48
Chanel 10 Note On - Duracao: 449940 Nota: C1 Vol.: 50
Chanel 4 Note Off - Duracao: 450120 Nota: C1 Vol.: 70
Chanel 4 Note On - Duracao: 450120 Nota: C1 Vol.: 61
Chanel 6 Note Off - Duracao: 450240 Nota: C1 Vol.: 48
Chanel 6 Note On - Duracao: 450240 Nota: C1 Vol.: 48
Chanel 3 Note Off - Duracao: 450300 Nota: C1 Vol.: 62
Chanel 3 Note On - Duracao: 450300 Nota: C1 Vol.: 40
Chanel 8 Note Off - Duracao: 450300 Nota: C1 Vol.: 49
Chanel 8 Note On - Duracao: 450300 Nota: C1 Vol.: 53
Chanel 7 Note Off - Duracao: 450420 Nota: C1 Vol.: 48
Chanel 7 Note On - Duracao: 450420 Nota: C1 Vol.: 51
Chanel 5 Note Off - Duracao: 450480 Nota: C1 Vol.: 60
Chanel 5 Note On - Duracao: 450480 Nota: C1 Vol.: 48
Chanel 9 Note Off - Duracao: 450720 Nota: C1 Vol.: 53
Chanel 9 Note On - Duracao: 450720 Nota: C1 Vol.: 50
Chanel 10 Note Off - Duracao: 450900 Nota: C1 Vol.: 50
Chanel 10 Note On - Duracao: 450900 Nota: C1 Vol.: 60
Chanel 2 Note Off - Duracao: 451020 Nota: C1 Vol.: 41
Chanel 2 Note On - Duracao: 451020 Nota: C1 Vol.: 50
Chanel 4 Note Off - Duracao: 451080 Nota: C1 Vol.: 61
Chanel 4 Note On - Duracao: 451080 Nota: C1 Vol.: 67
Chanel 8 Note Off - Duracao: 451260 Nota: C1 Vol.: 53
Chanel 8 Note On - Duracao: 451260 Nota: C1 Vol.: 61
Chanel 7 Note Off - Duracao: 451380 Nota: C1 Vol.: 51
Chanel 7 Note On - Duracao: 451380 Nota: C1 Vol.: 51
Chanel 10 Note Off - Duracao: 451380 Nota: C1 Vol.: 60
Chanel 10 Note On - Duracao: 451380 Nota: C1 Vol.: 72
Chanel 2 Note Off - Duracao: 451500 Nota: C1 Vol.: 50
Chanel 2 Note On - Duracao: 451500 Nota: C1 Vol.: 50
Chanel 4 Note Off - Duracao: 451560 Nota: C1 Vol.: 67
Chanel 4 Note On - Duracao: 451560 Nota: C1 Vol.: 87
Chanel 10 Note Off - Duracao: 451620 Nota: C1 Vol.: 72
Chanel 10 Note On - Duracao: 451620 Nota: C1 Vol.: 79
Chanel 4 Note Off - Duracao: 451680 Nota: C1 Vol.: 87
Chanel 4 Note On - Duracao: 451680 Nota: C1 Vol.: 90
Chanel 2 Note Off - Duracao: 451740 Nota: C1 Vol.: 50
Chanel 2 Note On - Duracao: 451740 Nota: C1 Vol.: 54
Chanel 4 Note Off - Duracao: 451740 Nota: C1 Vol.: 90
Chanel 4 Note On - Duracao: 451740 Nota: C1 Vol.: 81
Chanel 8 Note Off - Duracao: 451740 Nota: C1 Vol.: 61
Chanel 8 Note On - Duracao: 451740 Nota: C1 Vol.: 72
Chanel 4 Note Off - Duracao: 451860 Nota: C1 Vol.: 81
Chanel 4 Note On - Duracao: 451860 Nota: C1 Vol.: 83
Chanel 10 Note Off - Duracao: 451860 Nota: C1 Vol.: 79
Chanel 10 Note On - Duracao: 451860 Nota: C1 Vol.: 78
Chanel 2 Note Off - Duracao: 451980 Nota: C1 Vol.: 54
Chanel 2 Note On - Duracao: 451980 Nota: C1 Vol.: 60
Chanel 4 Note Off - Duracao: 451980 Nota: C1 Vol.: 83
Chanel 4 Note On - Duracao: 451980 Nota: C1 Vol.: 86
Chanel 4 Note Off - Duracao: 452100 Nota: C1 Vol.: 86
Chanel 4 Note On - Duracao: 452100 Nota: C1 Vol.: 92
Chanel 10 Note Off - Duracao: 452100 Nota: C1 Vol.: 78
Chanel 10 Note On - Duracao: 452100 Nota: C1 Vol.: 75
Chanel 6 Note Off - Duracao: 452160 Nota: C1 Vol.: 48
Chanel 6 Note On - Duracao: 452160 Nota: C1 Vol.: 49
Chanel 2 Note Off - Duracao: 452220 Nota: C1 Vol.: 60
Chanel 2 Note On - Duracao: 452220 Nota: C1 Vol.: 48
Chanel 3 Note Off - Duracao: 452220 Nota: C1 Vol.: 40
Chanel 3 Note On - Duracao: 452220 Nota: C1 Vol.: 40
Chanel 4 Note Off - Duracao: 452220 Nota: C1 Vol.: 92
Chanel 4 Note On - Duracao: 452220 Nota: C1 Vol.: 94
Chanel 8 Note Off - Duracao: 452220 Nota: C1 Vol.: 72
Chanel 8 Note On - Duracao: 452220 Nota: C1 Vol.: 75
Chanel 4 Note Off - Duracao: 452340 Nota: C1 Vol.: 94
Chanel 4 Note On - Duracao: 452340 Nota: C1 Vol.: 90
Chanel 7 Note Off - Duracao: 452340 Nota: C1 Vol.: 51
Chanel 7 Note On - Duracao: 452340 Nota: C1 Vol.: 49
Chanel 10 Note Off - Duracao: 452340 Nota: C1 Vol.: 75
Chanel 10 Note On - Duracao: 452340 Nota: C1 Vol.: 74
Chanel 5 Note Off - Duracao: 452400 Nota: C1 Vol.: 48
Chanel 5 Note On - Duracao: 452400 Nota: C1 Vol.: 66
Chanel 4 Note Off - Duracao: 452460 Nota: C1 Vol.: 90
Chanel 4 Note On - Duracao: 452460 Nota: C1 Vol.: 78
Chanel 8 Note Off - Duracao: 452460 Nota: C1 Vol.: 75
Chanel 8 Note On - Duracao: 452460 Nota: C1 Vol.: 74
Chanel 4 Note Off - Duracao: 452580 Nota: C1 Vol.: 78
Chanel 4 Note On - Duracao: 452580 Nota: C1 Vol.: 70
Chanel 9 Note Off - Duracao: 452640 Nota: C1 Vol.: 50
Chanel 9 Note On - Duracao: 452640 Nota: C1 Vol.: 49
Chanel 8 Note Off - Duracao: 452700 Nota: C1 Vol.: 74
Chanel 8 Note On - Duracao: 452700 Nota: C1 Vol.: 70
Chanel 4 Note Off - Duracao: 452820 Nota: C1 Vol.: 70
Chanel 4 Note On - Duracao: 452820 Nota: C1 Vol.: 63
Chanel 10 Note Off - Duracao: 452820 Nota: C1 Vol.: 74
Chanel 10 Note On - Duracao: 452820 Nota: C1 Vol.: 76
Chanel 5 Note Off - Duracao: 452880 Nota: C1 Vol.: 66
Chanel 5 Note On - Duracao: 452880 Nota: C1 Vol.: 70
Chanel 8 Note Off - Duracao: 452940 Nota: C1 Vol.: 70
Chanel 8 Note On - Duracao: 452940 Nota: C1 Vol.: 75
Chanel 8 Note Off - Duracao: 453060 Nota: C1 Vol.: 75
Chanel 8 Note On - Duracao: 453060 Nota: C1 Vol.: 74
Chanel 5 Note Off - Duracao: 453120 Nota: C1 Vol.: 70
Chanel 5 Note On - Duracao: 453120 Nota: C1 Vol.: 59
Chanel 2 Note Off - Duracao: 453180 Nota: C1 Vol.: 48
Chanel 2 Note On - Duracao: 453180 Nota: C1 Vol.: 46
Chanel 8 Note Off - Duracao: 453180 Nota: C1 Vol.: 74
Chanel 8 Note On - Duracao: 453180 Nota: C1 Vol.: 75
Chanel 4 Note Off - Duracao: 453300 Nota: C1 Vol.: 63
Chanel 4 Note On - Duracao: 453300 Nota: C1 Vol.: 58
Chanel 7 Note Off - Duracao: 453300 Nota: C1 Vol.: 49
Chanel 7 Note On - Duracao: 453300 Nota: C1 Vol.: 45
Chanel 10 Note Off - Duracao: 453300 Nota: C1 Vol.: 76
Chanel 10 Note On - Duracao: 453300 Nota: C1 Vol.: 75
Chanel 8 Note Off - Duracao: 453420 Nota: C1 Vol.: 75
Chanel 8 Note On - Duracao: 453420 Nota: C1 Vol.: 79
Chanel 5 Note Off - Duracao: 453600 Nota: C1 Vol.: 59
Chanel 5 Note On - Duracao: 453600 Nota: C1 Vol.: 44
Chanel 8 Note Off - Duracao: 453660 Nota: C1 Vol.: 79
Chanel 8 Note On - Duracao: 453660 Nota: C1 Vol.: 87
Chanel 4 Note Off - Duracao: 453780 Nota: C1 Vol.: 58
Chanel 4 Note On - Duracao: 453780 Nota: C1 Vol.: 40
Chanel 8 Note Off - Duracao: 453780 Nota: C1 Vol.: 87
Chanel 8 Note On - Duracao: 453780 Nota: C1 Vol.: 89
Chanel 10 Note Off - Duracao: 453780 Nota: C1 Vol.: 75
Chanel 10 Note On - Duracao: 453780 Nota: C1 Vol.: 75
Chanel 8 Note Off - Duracao: 453900 Nota: C1 Vol.: 89
Chanel 8 Note On - Duracao: 453900 Nota: C1 Vol.: 89
Chanel 8 Note Off - Duracao: 454020 Nota: C1 Vol.: 89
Chanel 8 Note On - Duracao: 454020 Nota: C1 Vol.: 95
Chanel 6 Note Off - Duracao: 454080 Nota: C1 Vol.: 49
Chanel 6 Note On - Duracao: 454080 Nota: C1 Vol.: 52
Chanel 8 Note Off - Duracao: 454080 Nota: C1 Vol.: 95
Chanel 8 Note On - Duracao: 454080 Nota: C1 Vol.: 90
Chanel 3 Note Off - Duracao: 454140 Nota: C1 Vol.: 40
Chanel 3 Note On - Duracao: 454140 Nota: C1 Vol.: 51
Chanel 8 Note Off - Duracao: 454140 Nota: C1 Vol.: 90
Chanel 8 Note On - Duracao: 454140 Nota: C1 Vol.: 82
Chanel 7 Note Off - Duracao: 454260 Nota: C1 Vol.: 45
Chanel 7 Note On - Duracao: 454260 Nota: C1 Vol.: 45
Chanel 8 Note Off - Duracao: 454260 Nota: C1 Vol.: 82
Chanel 8 Note On - Duracao: 454260 Nota: C1 Vol.: 88
Chanel 10 Note Off - Duracao: 454260 Nota: C1 Vol.: 75
Chanel 10 Note On - Duracao: 454260 Nota: C1 Vol.: 72
Chanel 8 Note Off - Duracao: 454380 Nota: C1 Vol.: 88
Chanel 8 Note On - Duracao: 454380 Nota: C1 Vol.: 85
Chanel 5 Note Off - Duracao: 454560 Nota: C1 Vol.: 44
Chanel 5 Note On - Duracao: 454560 Nota: C1 Vol.: 40
Chanel 9 Note Off - Duracao: 454560 Nota: C1 Vol.: 49
Chanel 9 Note On - Duracao: 454560 Nota: C1 Vol.: 50
Chanel 8 Note Off - Duracao: 454620 Nota: C1 Vol.: 85
Chanel 8 Note On - Duracao: 454620 Nota: C1 Vol.: 66
Chanel 10 Note Off - Duracao: 454740 Nota: C1 Vol.: 72
Chanel 10 Note On - Duracao: 454740 Nota: C1 Vol.: 64
Chanel 2 Note Off - Duracao: 455100 Nota: C1 Vol.: 46
Chanel 2 Note On - Duracao: 455100 Nota: C1 Vol.: 57
Chanel 3 Note Off - Duracao: 455100 Nota: C1 Vol.: 51
Chanel 3 Note On - Duracao: 455100 Nota: C1 Vol.: 51
Chanel 7 Note Off - Duracao: 455220 Nota: C1 Vol.: 45
Chanel 7 Note On - Duracao: 455220 Nota: C1 Vol.: 44
Chanel 9 Note Off - Duracao: 455520 Nota: C1 Vol.: 50
Chanel 9 Note On - Duracao: 455520 Nota: C1 Vol.: 53
Chanel 8 Note Off - Duracao: 455580 Nota: C1 Vol.: 66
Chanel 8 Note On - Duracao: 455580 Nota: C1 Vol.: 72
Chanel 4 Note Off - Duracao: 455700 Nota: C1 Vol.: 40
Chanel 4 Note On - Duracao: 455700 Nota: C1 Vol.: 46
Chanel 10 Note Off - Duracao: 455700 Nota: C1 Vol.: 64
Chanel 10 Note On - Duracao: 455700 Nota: C1 Vol.: 66
Chanel 6 Note Off - Duracao: 456000 Nota: C1 Vol.: 52
Chanel 6 Note On - Duracao: 456000 Nota: C1 Vol.: 56
Chanel 2 Note Off - Duracao: 456060 Nota: C1 Vol.: 57
Chanel 2 Note On - Duracao: 456060 Nota: C1 Vol.: 94
Chanel 3 Note Off - Duracao: 456060 Nota: C1 Vol.: 51
Chanel 3 Note On - Duracao: 456060 Nota: C1 Vol.: 51
Chanel 2 Note Off - Duracao: 456120 Nota: C1 Vol.: 94
Chanel 2 Note On - Duracao: 456120 Nota: C1 Vol.: 95
Chanel 2 Note Off - Duracao: 456180 Nota: C1 Vol.: 95
Chanel 2 Note On - Duracao: 456180 Nota: C1 Vol.: 64
Chanel 10 Note Off - Duracao: 456180 Nota: C1 Vol.: 66
Chanel 10 Note On - Duracao: 456180 Nota: C1 Vol.: 57
Chanel 5 Note Off - Duracao: 456480 Nota: C1 Vol.: 40
Chanel 5 Note On - Duracao: 456480 Nota: C1 Vol.: 40
Chanel 9 Note Off - Duracao: 456480 Nota: C1 Vol.: 53
Chanel 9 Note On - Duracao: 456480 Nota: C1 Vol.: 53
Chanel 8 Note Off - Duracao: 456540 Nota: C1 Vol.: 72
Chanel 8 Note On - Duracao: 456540 Nota: C1 Vol.: 67
Chanel 4 Note Off - Duracao: 456660 Nota: C1 Vol.: 46
Chanel 4 Note On - Duracao: 456660 Nota: C1 Vol.: 45
Chanel 10 Note Off - Duracao: 456660 Nota: C1 Vol.: 57
Chanel 10 Note On - Duracao: 456660 Nota: C1 Vol.: 60
Chanel 3 Note Off - Duracao: 457020 Nota: C1 Vol.: 51
Chanel 3 Note On - Duracao: 457020 Nota: C1 Vol.: 49
Chanel 2 Note Off - Duracao: 457140 Nota: C1 Vol.: 64
Chanel 2 Note On - Duracao: 457140 Nota: C1 Vol.: 46
Chanel 7 Note Off - Duracao: 457140 Nota: C1 Vol.: 44
Chanel 7 Note On - Duracao: 457140 Nota: C1 Vol.: 44
Chanel 10 Note Off - Duracao: 457140 Nota: C1 Vol.: 60
Chanel 10 Note On - Duracao: 457140 Nota: C1 Vol.: 58
Chanel 5 Note Off - Duracao: 457440 Nota: C1 Vol.: 40
Chanel 5 Note On - Duracao: 457440 Nota: C1 Vol.: 40
Chanel 9 Note Off - Duracao: 457440 Nota: C1 Vol.: 53
Chanel 9 Note On - Duracao: 457440 Nota: C1 Vol.: 56
Chanel 8 Note Off - Duracao: 457500 Nota: C1 Vol.: 67
Chanel 8 Note On - Duracao: 457500 Nota: C1 Vol.: 66
Chanel 4 Note Off - Duracao: 457620 Nota: C1 Vol.: 45
Chanel 4 Note On - Duracao: 457620 Nota: C1 Vol.: 49
Chanel 10 Note Off - Duracao: 457620 Nota: C1 Vol.: 58
Chanel 10 Note On - Duracao: 457620 Nota: C1 Vol.: 63
Chanel 10 Note Off - Duracao: 457860 Nota: C1 Vol.: 63
Chanel 10 Note On - Duracao: 457860 Nota: C1 Vol.: 69
Chanel 6 Note Off - Duracao: 457920 Nota: C1 Vol.: 56
Chanel 6 Note On - Duracao: 457920 Nota: C1 Vol.: 54
Chanel 3 Note Off - Duracao: 457980 Nota: C1 Vol.: 49
Chanel 3 Note On - Duracao: 457980 Nota: C1 Vol.: 64
Chanel 10 Note Off - Duracao: 458100 Nota: C1 Vol.: 69
Chanel 10 Note On - Duracao: 458100 Nota: C1 Vol.: 60
Chanel 9 Note Off - Duracao: 458400 Nota: C1 Vol.: 56
Chanel 9 Note On - Duracao: 458400 Nota: C1 Vol.: 54
Chanel 3 Note Off - Duracao: 458460 Nota: C1 Vol.: 64
Chanel 3 Note On - Duracao: 458460 Nota: C1 Vol.: 46
Chanel 8 Note Off - Duracao: 458460 Nota: C1 Vol.: 66
Chanel 8 Note On - Duracao: 458460 Nota: C1 Vol.: 64
Chanel 4 Note Off - Duracao: 458580 Nota: C1 Vol.: 49
Chanel 4 Note On - Duracao: 458580 Nota: C1 Vol.: 52
Chanel 10 Note Off - Duracao: 458580 Nota: C1 Vol.: 60
Chanel 10 Note On - Duracao: 458580 Nota: C1 Vol.: 66
Chanel 4 Note Off - Duracao: 459060 Nota: C1 Vol.: 52
Chanel 4 Note On - Duracao: 459060 Nota: C1 Vol.: 57
Chanel 7 Note Off - Duracao: 459060 Nota: C1 Vol.: 44
Chanel 7 Note On - Duracao: 459060 Nota: C1 Vol.: 46
Chanel 10 Note Off - Duracao: 459060 Nota: C1 Vol.: 66
Chanel 10 Note On - Duracao: 459060 Nota: C1 Vol.: 72
Chanel 5 Note Off - Duracao: 459360 Nota: C1 Vol.: 40
Chanel 5 Note On - Duracao: 459360 Nota: C1 Vol.: 40
Chanel 9 Note Off - Duracao: 459360 Nota: C1 Vol.: 54
Chanel 9 Note On - Duracao: 459360 Nota: C1 Vol.: 64
Chanel 8 Note Off - Duracao: 459420 Nota: C1 Vol.: 64
Chanel 8 Note On - Duracao: 459420 Nota: C1 Vol.: 64
Chanel 4 Note Off - Duracao: 459540 Nota: C1 Vol.: 57
Chanel 4 Note On - Duracao: 459540 Nota: C1 Vol.: 67
Chanel 10 Note Off - Duracao: 459540 Nota: C1 Vol.: 72
Chanel 10 Note On - Duracao: 459540 Nota: C1 Vol.: 74
Chanel 9 Note Off - Duracao: 459600 Nota: C1 Vol.: 64
Chanel 9 Note On - Duracao: 459600 Nota: C1 Vol.: 72
Chanel 9 Note Off - Duracao: 459720 Nota: C1 Vol.: 72
Chanel 9 Note On - Duracao: 459720 Nota: C1 Vol.: 70
Chanel 4 Note Off - Duracao: 459780 Nota: C1 Vol.: 67
Chanel 4 Note On - Duracao: 459780 Nota: C1 Vol.: 66
Chanel 9 Note Off - Duracao: 459840 Nota: C1 Vol.: 70
Chanel 9 Note On - Duracao: 459840 Nota: C1 Vol.: 65
Chanel 4 Note Off - Duracao: 460020 Nota: C1 Vol.: 66
Chanel 4 Note On - Duracao: 460020 Nota: C1 Vol.: 61
Chanel 10 Note Off - Duracao: 460020 Nota: C1 Vol.: 74
Chanel 10 Note On - Duracao: 460020 Nota: C1 Vol.: 79
Chanel 9 Note Off - Duracao: 460080 Nota: C1 Vol.: 65
Chanel 9 Note On - Duracao: 460080 Nota: C1 Vol.: 67
Chanel 10 Note Off - Duracao: 460260 Nota: C1 Vol.: 79
Chanel 10 Note On - Duracao: 460260 Nota: C1 Vol.: 95
Chanel 9 Note Off - Duracao: 460320 Nota: C1 Vol.: 67
Chanel 9 Note On - Duracao: 460320 Nota: C1 Vol.: 70
Chanel 3 Note Off - Duracao: 460380 Nota: C1 Vol.: 46
Chanel 3 Note On - Duracao: 460380 Nota: C1 Vol.: 87
Chanel 8 Note Off - Duracao: 460380 Nota: C1 Vol.: 64
Chanel 8 Note On - Duracao: 460380 Nota: C1 Vol.: 71
Chanel 10 Note Off - Duracao: 460380 Nota: C1 Vol.: 95
Chanel 10 Note On - Duracao: 460380 Nota: C1 Vol.: 95
Chanel 10 Note Off - Duracao: 460440 Nota: C1 Vol.: 95
Chanel 10 Note On - Duracao: 460440 Nota: C1 Vol.: 92
Chanel 3 Note Off - Duracao: 460500 Nota: C1 Vol.: 87
Chanel 3 Note On - Duracao: 460500 Nota: C1 Vol.: 85
Chanel 4 Note Off - Duracao: 460500 Nota: C1 Vol.: 61
Chanel 4 Note On - Duracao: 460500 Nota: C1 Vol.: 61
Chanel 9 Note Off - Duracao: 460560 Nota: C1 Vol.: 70
Chanel 9 Note On - Duracao: 460560 Nota: C1 Vol.: 74
Chanel 10 Note Off - Duracao: 460560 Nota: C1 Vol.: 92
Chanel 10 Note On - Duracao: 460560 Nota: C1 Vol.: 68
Chanel 3 Note Off - Duracao: 460620 Nota: C1 Vol.: 85
Chanel 3 Note On - Duracao: 460620 Nota: C1 Vol.: 95
Chanel 3 Note Off - Duracao: 460680 Nota: C1 Vol.: 95
Chanel 3 Note On - Duracao: 460680 Nota: C1 Vol.: 98
Chanel 9 Note Off - Duracao: 460680 Nota: C1 Vol.: 74
Chanel 9 Note On - Duracao: 460680 Nota: C1 Vol.: 71
Chanel 3 Note Off - Duracao: 460740 Nota: C1 Vol.: 98
Chanel 3 Note On - Duracao: 460740 Nota: C1 Vol.: 99
Chanel 3 Note Off - Duracao: 460800 Nota: C1 Vol.: 99
Chanel 3 Note On - Duracao: 460800 Nota: C1 Vol.: 100
Chanel 3 Note Off - Duracao: 460860 Nota: C1 Vol.: 100
Chanel 3 Note On - Duracao: 460860 Nota: C1 Vol.: 100
Chanel 8 Note Off - Duracao: 460860 Nota: C1 Vol.: 71
Chanel 8 Note On - Duracao: 460860 Nota: C1 Vol.: 70
Chanel 3 Note Off - Duracao: 460920 Nota: C1 Vol.: 100
Chanel 3 Note On - Duracao: 460920 Nota: C1 Vol.: 100
Chanel 9 Note Off - Duracao: 460920 Nota: C1 Vol.: 71
Chanel 9 Note On - Duracao: 460920 Nota: C1 Vol.: 62
Chanel 2 Note Off - Duracao: 460980 Nota: C1 Vol.: 46
Chanel 2 Note On - Duracao: 460980 Nota: C1 Vol.: 48
Chanel 3 Note Off - Duracao: 460980 Nota: C1 Vol.: 100
Chanel 3 Note On - Duracao: 460980 Nota: C1 Vol.: 100
Chanel 4 Note Off - Duracao: 460980 Nota: C1 Vol.: 61
Chanel 4 Note On - Duracao: 460980 Nota: C1 Vol.: 60
Chanel 3 Note Off - Duracao: 461040 Nota: C1 Vol.: 100
Chanel 3 Note On - Duracao: 461040 Nota: C1 Vol.: 90
Chanel 10 Note Off - Duracao: 461040 Nota: C1 Vol.: 68
Chanel 10 Note On - Duracao: 461040 Nota: C1 Vol.: 53
Chanel 3 Note Off - Duracao: 461160 Nota: C1 Vol.: 90
Chanel 3 Note On - Duracao: 461160 Nota: C1 Vol.: 47
Chanel 5 Note Off - Duracao: 461280 Nota: C1 Vol.: 40
Chanel 5 Note On - Duracao: 461280 Nota: C1 Vol.: 45
Chanel 8 Note Off - Duracao: 461340 Nota: C1 Vol.: 70
Chanel 8 Note On - Duracao: 461340 Nota: C1 Vol.: 71
Chanel 9 Note Off - Duracao: 461400 Nota: C1 Vol.: 62
Chanel 4 Note Off - Duracao: 461460 Nota: C1 Vol.: 60
Chanel 4 Note On - Duracao: 461460 Nota: C1 Vol.: 49
Chanel 6 Note Off - Duracao: 461760 Nota: C1 Vol.: 54
Chanel 6 Note On - Duracao: 461760 Nota: C1 Vol.: 60
Chanel 8 Note Off - Duracao: 461820 Nota: C1 Vol.: 71
Chanel 8 Note On - Duracao: 461820 Nota: C1 Vol.: 73
Chanel 10 Note Off - Duracao: 462000 Nota: C1 Vol.: 53
Chanel 10 Note On - Duracao: 462000 Nota: C1 Vol.: 62
Chanel 5 Note Off - Duracao: 462240 Nota: C1 Vol.: 45
Chanel 5 Note On - Duracao: 462240 Nota: C1 Vol.: 56
Chanel 8 Note Off - Duracao: 462300 Nota: C1 Vol.: 73
Chanel 8 Note On - Duracao: 462300 Nota: C1 Vol.: 77
Chanel 4 Note Off - Duracao: 462420 Nota: C1 Vol.: 49
Chanel 4 Note On - Duracao: 462420 Nota: C1 Vol.: 42
Chanel 10 Note Off - Duracao: 462480 Nota: C1 Vol.: 62
Chanel 10 Note On - Duracao: 462480 Nota: C1 Vol.: 62
Chanel 5 Note Off - Duracao: 462720 Nota: C1 Vol.: 56
Chanel 5 Note On - Duracao: 462720 Nota: C1 Vol.: 59
Chanel 8 Note Off - Duracao: 462780 Nota: C1 Vol.: 77
Chanel 8 Note On - Duracao: 462780 Nota: C1 Vol.: 78
Chanel 2 Note Off - Duracao: 462900 Nota: C1 Vol.: 48
Chanel 2 Note On - Duracao: 462900 Nota: C1 Vol.: 55
Chanel 7 Note Off - Duracao: 462900 Nota: C1 Vol.: 46
Chanel 7 Note On - Duracao: 462900 Nota: C1 Vol.: 54
Chanel 5 Note Off - Duracao: 462960 Nota: C1 Vol.: 59
Chanel 5 Note On - Duracao: 462960 Nota: C1 Vol.: 59
Chanel 10 Note Off - Duracao: 462960 Nota: C1 Vol.: 62
Chanel 10 Note On - Duracao: 462960 Nota: C1 Vol.: 61
Chanel 3 Note Off - Duracao: 463080 Nota: C1 Vol.: 47
Chanel 3 Note On - Duracao: 463080 Nota: C1 Vol.: 99
Chanel 3 Note Off - Duracao: 463200 Nota: C1 Vol.: 99
Chanel 3 Note On - Duracao: 463200 Nota: C1 Vol.: 100
Chanel 5 Note Off - Duracao: 463200 Nota: C1 Vol.: 59
Chanel 5 Note On - Duracao: 463200 Nota: C1 Vol.: 61
Chanel 3 Note Off - Duracao: 463260 Nota: C1 Vol.: 100
Chanel 3 Note On - Duracao: 463260 Nota: C1 Vol.: 100
Chanel 3 Note Off - Duracao: 463320 Nota: C1 Vol.: 100
Chanel 3 Note On - Duracao: 463320 Nota: C1 Vol.: 100
Chanel 3 Note Off - Duracao: 463380 Nota: C1 Vol.: 100
Chanel 3 Note On - Duracao: 463380 Nota: C1 Vol.: 100
Chanel 3 Note Off - Duracao: 463440 Nota: C1 Vol.: 100
Chanel 3 Note On - Duracao: 463440 Nota: C1 Vol.: 100
Chanel 5 Note Off - Duracao: 463440 Nota: C1 Vol.: 61
Chanel 5 Note On - Duracao: 463440 Nota: C1 Vol.: 62
Chanel 10 Note Off - Duracao: 463440 Nota: C1 Vol.: 61
Chanel 10 Note On - Duracao: 463440 Nota: C1 Vol.: 45
Chanel 3 Note Off - Duracao: 463500 Nota: C1 Vol.: 100
Chanel 3 Note On - Duracao: 463500 Nota: C1 Vol.: 94
Chanel 3 Note Off - Duracao: 463620 Nota: C1 Vol.: 94
Chanel 3 Note On - Duracao: 463620 Nota: C1 Vol.: 84
Chanel 5 Note Off - Duracao: 463680 Nota: C1 Vol.: 62
Chanel 5 Note On - Duracao: 463680 Nota: C1 Vol.: 63
Chanel 6 Note Off - Duracao: 463680 Nota: C1 Vol.: 60
Chanel 6 Note On - Duracao: 463680 Nota: C1 Vol.: 55
Chanel 8 Note Off - Duracao: 463740 Nota: C1 Vol.: 78
Chanel 8 Note On - Duracao: 463740 Nota: C1 Vol.: 77
Chanel 2 Note Off - Duracao: 463860 Nota: C1 Vol.: 55
Chanel 2 Note On - Duracao: 463860 Nota: C1 Vol.: 49
Chanel 3 Note Off - Duracao: 463860 Nota: C1 Vol.: 84
Chanel 3 Note On - Duracao: 463860 Nota: C1 Vol.: 85
Chanel 5 Note Off - Duracao: 463920 Nota: C1 Vol.: 63
Chanel 5 Note On - Duracao: 463920 Nota: C1 Vol.: 65
Chanel 3 Note Off - Duracao: 464100 Nota: C1 Vol.: 85
Chanel 3 Note On - Duracao: 464100 Nota: C1 Vol.: 91
Chanel 5 Note Off - Duracao: 464160 Nota: C1 Vol.: 65
Chanel 5 Note On - Duracao: 464160 Nota: C1 Vol.: 67
Chanel 3 Note Off - Duracao: 464220 Nota: C1 Vol.: 91
Chanel 3 Note On - Duracao: 464220 Nota: C1 Vol.: 83
Chanel 4 Note Off - Duracao: 464340 Nota: C1 Vol.: 42
Chanel 4 Note On - Duracao: 464340 Nota: C1 Vol.: 58
Chanel 5 Note Off - Duracao: 464400 Nota: C1 Vol.: 67
Chanel 5 Note On - Duracao: 464400 Nota: C1 Vol.: 68
Chanel 3 Note Off - Duracao: 464460 Nota: C1 Vol.: 83
Chanel 3 Note On - Duracao: 464460 Nota: C1 Vol.: 76
Chanel 5 Note Off - Duracao: 464640 Nota: C1 Vol.: 68
Chanel 5 Note On - Duracao: 464640 Nota: C1 Vol.: 74
Chanel 3 Note Off - Duracao: 464700 Nota: C1 Vol.: 76
Chanel 3 Note On - Duracao: 464700 Nota: C1 Vol.: 73
Chanel 8 Note Off - Duracao: 464700 Nota: C1 Vol.: 77
Chanel 8 Note On - Duracao: 464700 Nota: C1 Vol.: 77
Chanel 5 Note Off - Duracao: 464760 Nota: C1 Vol.: 74
Chanel 5 Note On - Duracao: 464760 Nota: C1 Vol.: 60
Chanel 2 Note Off - Duracao: 464820 Nota: C1 Vol.: 49
Chanel 2 Note On - Duracao: 464820 Nota: C1 Vol.: 51
Chanel 4 Note Off - Duracao: 464820 Nota: C1 Vol.: 58
Chanel 4 Note On - Duracao: 464820 Nota: C1 Vol.: 62
Chanel 3 Note Off - Duracao: 464940 Nota: C1 Vol.: 73
Chanel 3 Note On - Duracao: 464940 Nota: C1 Vol.: 79
Chanel 4 Note Off - Duracao: 465060 Nota: C1 Vol.: 62
Chanel 4 Note On - Duracao: 465060 Nota: C1 Vol.: 58
Chanel 3 Note Off - Duracao: 465180 Nota: C1 Vol.: 79
Chanel 3 Note On - Duracao: 465180 Nota: C1 Vol.: 87
Chanel 5 Note Off - Duracao: 465240 Nota: C1 Vol.: 60
Chanel 5 Note On - Duracao: 465240 Nota: C1 Vol.: 53
Chanel 3 Note Off - Duracao: 465300 Nota: C1 Vol.: 87
Chanel 3 Note On - Duracao: 465300 Nota: C1 Vol.: 84
Chanel 4 Note Off - Duracao: 465300 Nota: C1 Vol.: 58
Chanel 4 Note On - Duracao: 465300 Nota: C1 Vol.: 58
Chanel 10 Note Off - Duracao: 465360 Nota: C1 Vol.: 45
Chanel 10 Note On - Duracao: 465360 Nota: C1 Vol.: 52
Chanel 3 Note Off - Duracao: 465420 Nota: C1 Vol.: 84
Chanel 3 Note On - Duracao: 465420 Nota: C1 Vol.: 72
Chanel 4 Note Off - Duracao: 465540 Nota: C1 Vol.: 58
Chanel 4 Note On - Duracao: 465540 Nota: C1 Vol.: 57
Chanel 6 Note Off - Duracao: 465600 Nota: C1 Vol.: 55
Chanel 6 Note On - Duracao: 465600 Nota: C1 Vol.: 87
Chanel 3 Note Off - Duracao: 465660 Nota: C1 Vol.: 72
Chanel 3 Note On - Duracao: 465660 Nota: C1 Vol.: 65
Chanel 8 Note Off - Duracao: 465660 Nota: C1 Vol.: 77
Chanel 8 Note On - Duracao: 465660 Nota: C1 Vol.: 76
Chanel 2 Note Off - Duracao: 465780 Nota: C1 Vol.: 51
Chanel 2 Note On - Duracao: 465780 Nota: C1 Vol.: 47
Chanel 4 Note Off - Duracao: 465780 Nota: C1 Vol.: 57
Chanel 4 Note On - Duracao: 465780 Nota: C1 Vol.: 59
Chanel 6 Note Off - Duracao: 465840 Nota: C1 Vol.: 87
Chanel 6 Note On - Duracao: 465840 Nota: C1 Vol.: 94
Chanel 6 Note Off - Duracao: 465960 Nota: C1 Vol.: 94
Chanel 6 Note On - Duracao: 465960 Nota: C1 Vol.: 93
Chanel 4 Note Off - Duracao: 466020 Nota: C1 Vol.: 59
Chanel 4 Note On - Duracao: 466020 Nota: C1 Vol.: 62
Chanel 6 Note Off - Duracao: 466080 Nota: C1 Vol.: 93
Chanel 6 Note On - Duracao: 466080 Nota: C1 Vol.: 95
Chanel 3 Note Off - Duracao: 466140 Nota: C1 Vol.: 65
Chanel 3 Note On - Duracao: 466140 Nota: C1 Vol.: 61
Chanel 8 Note Off - Duracao: 466140 Nota: C1 Vol.: 76
Chanel 8 Note On - Duracao: 466140 Nota: C1 Vol.: 71
Chanel 6 Note Off - Duracao: 466200 Nota: C1 Vol.: 95
Chanel 6 Note On - Duracao: 466200 Nota: C1 Vol.: 92
Chanel 4 Note Off - Duracao: 466260 Nota: C1 Vol.: 62
Chanel 4 Note On - Duracao: 466260 Nota: C1 Vol.: 62
Chanel 6 Note Off - Duracao: 466320 Nota: C1 Vol.: 92
Chanel 6 Note On - Duracao: 466320 Nota: C1 Vol.: 85
Chanel 10 Note Off - Duracao: 466320 Nota: C1 Vol.: 52
Chanel 10 Note On - Duracao: 466320 Nota: C1 Vol.: 55
Chanel 6 Note Off - Duracao: 466560 Nota: C1 Vol.: 85
Chanel 6 Note On - Duracao: 466560 Nota: C1 Vol.: 52
Chanel 3 Note Off - Duracao: 466620 Nota: C1 Vol.: 61
Chanel 3 Note On - Duracao: 466620 Nota: C1 Vol.: 64
Chanel 8 Note Off - Duracao: 466620 Nota: C1 Vol.: 71
Chanel 8 Note On - Duracao: 466620 Nota: C1 Vol.: 51
Chanel 2 Note Off - Duracao: 466740 Nota: C1 Vol.: 47
Chanel 2 Note On - Duracao: 466740 Nota: C1 Vol.: 52
Chanel 4 Note Off - Duracao: 466740 Nota: C1 Vol.: 62
Chanel 4 Note On - Duracao: 466740 Nota: C1 Vol.: 44
Chanel 7 Note Off - Duracao: 466740 Nota: C1 Vol.: 54
Chanel 7 Note On - Duracao: 466740 Nota: C1 Vol.: 56
Chanel 10 Note Off - Duracao: 466800 Nota: C1 Vol.: 55
Chanel 10 Note On - Duracao: 466800 Nota: C1 Vol.: 58
Chanel 3 Note Off - Duracao: 467100 Nota: C1 Vol.: 64
Chanel 3 Note On - Duracao: 467100 Nota: C1 Vol.: 79
Chanel 5 Note Off - Duracao: 467160 Nota: C1 Vol.: 53
Chanel 5 Note On - Duracao: 467160 Nota: C1 Vol.: 49
Chanel 3 Note Off - Duracao: 467220 Nota: C1 Vol.: 79
Chanel 3 Note On - Duracao: 467220 Nota: C1 Vol.: 90
Chanel 10 Note Off - Duracao: 467280 Nota: C1 Vol.: 58
Chanel 10 Note On - Duracao: 467280 Nota: C1 Vol.: 60
Chanel 3 Note Off - Duracao: 467340 Nota: C1 Vol.: 90
Chanel 3 Note On - Duracao: 467340 Nota: C1 Vol.: 96
Chanel 3 Note Off - Duracao: 467400 Nota: C1 Vol.: 96
Chanel 3 Note On - Duracao: 467400 Nota: C1 Vol.: 92
Chanel 3 Note Off - Duracao: 467520 Nota: C1 Vol.: 92
Chanel 3 Note On - Duracao: 467520 Nota: C1 Vol.: 84
Chanel 8 Note Off - Duracao: 467580 Nota: C1 Vol.: 51
Chanel 8 Note On - Duracao: 467580 Nota: C1 Vol.: 72
Chanel 3 Note Off - Duracao: 467640 Nota: C1 Vol.: 84
Chanel 3 Note On - Duracao: 467640 Nota: C1 Vol.: 58
Chanel 2 Note Off - Duracao: 467700 Nota: C1 Vol.: 52
Chanel 2 Note On - Duracao: 467700 Nota: C1 Vol.: 58
Chanel 4 Note Off - Duracao: 467700 Nota: C1 Vol.: 44
Chanel 4 Note On - Duracao: 467700 Nota: C1 Vol.: 40
Chanel 8 Note Off - Duracao: 467700 Nota: C1 Vol.: 72
Chanel 8 Note On - Duracao: 467700 Nota: C1 Vol.: 57
Chanel 10 Note Off - Duracao: 467760 Nota: C1 Vol.: 60
Chanel 10 Note On - Duracao: 467760 Nota: C1 Vol.: 62
Chanel 8 Note Off - Duracao: 467940 Nota: C1 Vol.: 57
Chanel 8 Note On - Duracao: 467940 Nota: C1 Vol.: 57
Chanel 8 Note Off - Duracao: 468180 Nota: C1 Vol.: 57
Chanel 8 Note On - Duracao: 468180 Nota: C1 Vol.: 41
Chanel 10 Note Off - Duracao: 468240 Nota: C1 Vol.: 62
Chanel 10 Note On - Duracao: 468240 Nota: C1 Vol.: 60
Chanel 6 Note Off - Duracao: 468480 Nota: C1 Vol.: 52
Chanel 6 Note On - Duracao: 468480 Nota: C1 Vol.: 51
Chanel 3 Note Off - Duracao: 468600 Nota: C1 Vol.: 58
Chanel 3 Note On - Duracao: 468600 Nota: C1 Vol.: 53
Chanel 2 Note Off - Duracao: 468660 Nota: C1 Vol.: 58
Chanel 2 Note On - Duracao: 468660 Nota: C1 Vol.: 66
Chanel 8 Note Off - Duracao: 468660 Nota: C1 Vol.: 41
Chanel 8 Note On - Duracao: 468660 Nota: C1 Vol.: 48
Chanel 10 Note Off - Duracao: 468720 Nota: C1 Vol.: 60
Chanel 10 Note On - Duracao: 468720 Nota: C1 Vol.: 59
Chanel 2 Note Off - Duracao: 469140 Nota: C1 Vol.: 66
Chanel 2 Note On - Duracao: 469140 Nota: C1 Vol.: 71
Chanel 8 Note Off - Duracao: 469140 Nota: C1 Vol.: 48
Chanel 8 Note On - Duracao: 469140 Nota: C1 Vol.: 46
Chanel 10 Note Off - Duracao: 469200 Nota: C1 Vol.: 59
Chanel 10 Note On - Duracao: 469200 Nota: C1 Vol.: 58
Chanel 3 Note Off - Duracao: 469560 Nota: C1 Vol.: 53
Chanel 3 Note On - Duracao: 469560 Nota: C1 Vol.: 52
Chanel 2 Note Off - Duracao: 469620 Nota: C1 Vol.: 71
Chanel 2 Note On - Duracao: 469620 Nota: C1 Vol.: 68
Chanel 4 Note Off - Duracao: 469620 Nota: C1 Vol.: 40
Chanel 4 Note On - Duracao: 469620 Nota: C1 Vol.: 62
Chanel 8 Note Off - Duracao: 469620 Nota: C1 Vol.: 46
Chanel 8 Note On - Duracao: 469620 Nota: C1 Vol.: 52
Chanel 10 Note Off - Duracao: 469680 Nota: C1 Vol.: 58
Chanel 10 Note On - Duracao: 469680 Nota: C1 Vol.: 59
Chanel 4 Note Off - Duracao: 469860 Nota: C1 Vol.: 62
Chanel 4 Note On - Duracao: 469860 Nota: C1 Vol.: 63
Chanel 2 Note Off - Duracao: 470100 Nota: C1 Vol.: 68
Chanel 2 Note On - Duracao: 470100 Nota: C1 Vol.: 41
Chanel 8 Note Off - Duracao: 470100 Nota: C1 Vol.: 52
Chanel 8 Note On - Duracao: 470100 Nota: C1 Vol.: 44
Chanel 10 Note Off - Duracao: 470160 Nota: C1 Vol.: 59
Chanel 10 Note On - Duracao: 470160 Nota: C1 Vol.: 58
Chanel 4 Note Off - Duracao: 470340 Nota: C1 Vol.: 63
Chanel 4 Note On - Duracao: 470340 Nota: C1 Vol.: 40
Chanel 6 Note Off - Duracao: 470400 Nota: C1 Vol.: 51
Chanel 6 Note On - Duracao: 470400 Nota: C1 Vol.: 47
Chanel 3 Note Off - Duracao: 470520 Nota: C1 Vol.: 52
Chanel 3 Note On - Duracao: 470520 Nota: C1 Vol.: 49
Chanel 7 Note Off - Duracao: 470580 Nota: C1 Vol.: 56
Chanel 7 Note On - Duracao: 470580 Nota: C1 Vol.: 57
Chanel 8 Note Off - Duracao: 470580 Nota: C1 Vol.: 44
Chanel 8 Note On - Duracao: 470580 Nota: C1 Vol.: 57
Chanel 10 Note Off - Duracao: 470640 Nota: C1 Vol.: 58
Chanel 10 Note On - Duracao: 470640 Nota: C1 Vol.: 59
Chanel 8 Note Off - Duracao: 470820 Nota: C1 Vol.: 57
Chanel 8 Note On - Duracao: 470820 Nota: C1 Vol.: 58
Chanel 5 Note Off - Duracao: 471000 Nota: C1 Vol.: 49
Chanel 5 Note On - Duracao: 471000 Nota: C1 Vol.: 57
Chanel 8 Note Off - Duracao: 471060 Nota: C1 Vol.: 58
Chanel 8 Note On - Duracao: 471060 Nota: C1 Vol.: 61
Chanel 10 Note Off - Duracao: 471120 Nota: C1 Vol.: 59
Chanel 10 Note On - Duracao: 471120 Nota: C1 Vol.: 63
Chanel 8 Note Off - Duracao: 471300 Nota: C1 Vol.: 61
Chanel 8 Note On - Duracao: 471300 Nota: C1 Vol.: 69
Chanel 8 Note Off - Duracao: 471540 Nota: C1 Vol.: 69
Chanel 8 Note On - Duracao: 471540 Nota: C1 Vol.: 70
Chanel 10 Note Off - Duracao: 471600 Nota: C1 Vol.: 63
Chanel 10 Note On - Duracao: 471600 Nota: C1 Vol.: 70
Chanel 10 Note Off - Duracao: 471840 Nota: C1 Vol.: 70
Chanel 10 Note On - Duracao: 471840 Nota: C1 Vol.: 64
Chanel 2 Note Off - Duracao: 472020 Nota: C1 Vol.: 41
Chanel 2 Note On - Duracao: 472020 Nota: C1 Vol.: 40
Chanel 8 Note Off - Duracao: 472020 Nota: C1 Vol.: 70
Chanel 8 Note On - Duracao: 472020 Nota: C1 Vol.: 67
Chanel 10 Note Off - Duracao: 472320 Nota: C1 Vol.: 64
Chanel 10 Note On - Duracao: 472320 Nota: C1 Vol.: 67
Chanel 3 Note Off - Duracao: 472440 Nota: C1 Vol.: 49
Chanel 3 Note On - Duracao: 472440 Nota: C1 Vol.: 49
Chanel 8 Note Off - Duracao: 472500 Nota: C1 Vol.: 67
Chanel 8 Note On - Duracao: 472500 Nota: C1 Vol.: 74
Chanel 10 Note Off - Duracao: 472560 Nota: C1 Vol.: 67
Chanel 10 Note On - Duracao: 472560 Nota: C1 Vol.: 69
Chanel 8 Note Off - Duracao: 472740 Nota: C1 Vol.: 74
Chanel 8 Note On - Duracao: 472740 Nota: C1 Vol.: 64
Chanel 10 Note Off - Duracao: 472800 Nota: C1 Vol.: 69
Chanel 10 Note On - Duracao: 472800 Nota: C1 Vol.: 71
Chanel 5 Note Off - Duracao: 472920 Nota: C1 Vol.: 57
Chanel 5 Note On - Duracao: 472920 Nota: C1 Vol.: 59
Chanel 8 Note Off - Duracao: 472980 Nota: C1 Vol.: 64
Chanel 8 Note On - Duracao: 472980 Nota: C1 Vol.: 54
Chanel 10 Note Off - Duracao: 473040 Nota: C1 Vol.: 71
Chanel 10 Note On - Duracao: 473040 Nota: C1 Vol.: 69
Chanel 8 Note Off - Duracao: 473220 Nota: C1 Vol.: 54
Chanel 8 Note On - Duracao: 473220 Nota: C1 Vol.: 47
Chanel 10 Note Off - Duracao: 473280 Nota: C1 Vol.: 69
Chanel 10 Note On - Duracao: 473280 Nota: C1 Vol.: 69
Chanel 3 Note Off - Duracao: 473400 Nota: C1 Vol.: 49
Chanel 3 Note On - Duracao: 473400 Nota: C1 Vol.: 66
Chanel 8 Note Off - Duracao: 473460 Nota: C1 Vol.: 47
Chanel 8 Note On - Duracao: 473460 Nota: C1 Vol.: 44
Chanel 10 Note Off - Duracao: 473520 Nota: C1 Vol.: 69
Chanel 10 Note On - Duracao: 473520 Nota: C1 Vol.: 66
Chanel 3 Note Off - Duracao: 473640 Nota: C1 Vol.: 66
Chanel 3 Note On - Duracao: 473640 Nota: C1 Vol.: 63
Chanel 3 Note Off - Duracao: 473880 Nota: C1 Vol.: 63
Chanel 3 Note On - Duracao: 473880 Nota: C1 Vol.: 66
Chanel 8 Note Off - Duracao: 473940 Nota: C1 Vol.: 44
Chanel 8 Note On - Duracao: 473940 Nota: C1 Vol.: 47
Chanel 10 Note Off - Duracao: 474000 Nota: C1 Vol.: 66
Chanel 10 Note On - Duracao: 474000 Nota: C1 Vol.: 62
Chanel 3 Note Off - Duracao: 474120 Nota: C1 Vol.: 66
Chanel 3 Note On - Duracao: 474120 Nota: C1 Vol.: 67
Chanel 4 Note Off - Duracao: 474180 Nota: C1 Vol.: 40
Chanel 4 Note On - Duracao: 474180 Nota: C1 Vol.: 78
Chanel 6 Note Off - Duracao: 474240 Nota: C1 Vol.: 47
Chanel 6 Note On - Duracao: 474240 Nota: C1 Vol.: 59
Chanel 3 Note Off - Duracao: 474360 Nota: C1 Vol.: 67
Chanel 3 Note On - Duracao: 474360 Nota: C1 Vol.: 74
Chanel 4 Note Off - Duracao: 474420 Nota: C1 Vol.: 78
Chanel 4 Note On - Duracao: 474420 Nota: C1 Vol.: 89
Chanel 7 Note Off - Duracao: 474420 Nota: C1 Vol.: 57
Chanel 7 Note On - Duracao: 474420 Nota: C1 Vol.: 60
Chanel 8 Note Off - Duracao: 474420 Nota: C1 Vol.: 47
Chanel 8 Note On - Duracao: 474420 Nota: C1 Vol.: 49
Chanel 10 Note Off - Duracao: 474480 Nota: C1 Vol.: 62
Chanel 10 Note On - Duracao: 474480 Nota: C1 Vol.: 61
Chanel 4 Note Off - Duracao: 474540 Nota: C1 Vol.: 89
Chanel 4 Note On - Duracao: 474540 Nota: C1 Vol.: 77
Chanel 3 Note Off - Duracao: 474600 Nota: C1 Vol.: 74
Chanel 3 Note On - Duracao: 474600 Nota: C1 Vol.: 67
Chanel 3 Note Off - Duracao: 474840 Nota: C1 Vol.: 67
Chanel 3 Note On - Duracao: 474840 Nota: C1 Vol.: 65
Chanel 5 Note Off - Duracao: 474840 Nota: C1 Vol.: 59
Chanel 5 Note On - Duracao: 474840 Nota: C1 Vol.: 52
Chanel 8 Note Off - Duracao: 474900 Nota: C1 Vol.: 49
Chanel 8 Note On - Duracao: 474900 Nota: C1 Vol.: 50
Chanel 10 Note Off - Duracao: 474960 Nota: C1 Vol.: 61
Chanel 10 Note On - Duracao: 474960 Nota: C1 Vol.: 61
Chanel 4 Note Off - Duracao: 475020 Nota: C1 Vol.: 77
Chanel 4 Note On - Duracao: 475020 Nota: C1 Vol.: 89
Chanel 3 Note Off - Duracao: 475080 Nota: C1 Vol.: 65
Chanel 3 Note On - Duracao: 475080 Nota: C1 Vol.: 63
Chanel 4 Note Off - Duracao: 475140 Nota: C1 Vol.: 89
Chanel 4 Note On - Duracao: 475140 Nota: C1 Vol.: 85
Chanel 6 Note Off - Duracao: 475200 Nota: C1 Vol.: 59
Chanel 6 Note On - Duracao: 475200 Nota: C1 Vol.: 83
Chanel 4 Note Off - Duracao: 475260 Nota: C1 Vol.: 85
Chanel 4 Note On - Duracao: 475260 Nota: C1 Vol.: 81
Chanel 3 Note Off - Duracao: 475320 Nota: C1 Vol.: 63
Chanel 3 Note On - Duracao: 475320 Nota: C1 Vol.: 65
Chanel 6 Note Off - Duracao: 475440 Nota: C1 Vol.: 83
Chanel 6 Note On - Duracao: 475440 Nota: C1 Vol.: 91
Chanel 10 Note Off - Duracao: 475440 Nota: C1 Vol.: 61
Chanel 10 Note On - Duracao: 475440 Nota: C1 Vol.: 57
Chanel 4 Note Off - Duracao: 475500 Nota: C1 Vol.: 81
Chanel 4 Note On - Duracao: 475500 Nota: C1 Vol.: 81
Chanel 3 Note Off - Duracao: 475560 Nota: C1 Vol.: 65
Chanel 3 Note On - Duracao: 475560 Nota: C1 Vol.: 57
Chanel 6 Note Off - Duracao: 475560 Nota: C1 Vol.: 91
Chanel 6 Note On - Duracao: 475560 Nota: C1 Vol.: 89
Chanel 6 Note Off - Duracao: 475680 Nota: C1 Vol.: 89
Chanel 6 Note On - Duracao: 475680 Nota: C1 Vol.: 98
Chanel 4 Note Off - Duracao: 475740 Nota: C1 Vol.: 81
Chanel 4 Note On - Duracao: 475740 Nota: C1 Vol.: 87
Chanel 6 Note Off - Duracao: 475740 Nota: C1 Vol.: 98
Chanel 6 Note On - Duracao: 475740 Nota: C1 Vol.: 99
Chanel 6 Note Off - Duracao: 475800 Nota: C1 Vol.: 99
Chanel 6 Note On - Duracao: 475800 Nota: C1 Vol.: 98
Chanel 2 Note Off - Duracao: 475860 Nota: C1 Vol.: 40
Chanel 2 Note On - Duracao: 475860 Nota: C1 Vol.: 43
Chanel 6 Note Off - Duracao: 475860 Nota: C1 Vol.: 98
Chanel 6 Note On - Duracao: 475860 Nota: C1 Vol.: 97
Chanel 8 Note Off - Duracao: 475860 Nota: C1 Vol.: 50
Chanel 8 Note On - Duracao: 475860 Nota: C1 Vol.: 52
Chanel 6 Note Off - Duracao: 475920 Nota: C1 Vol.: 97
Chanel 6 Note On - Duracao: 475920 Nota: C1 Vol.: 99
Chanel 4 Note Off - Duracao: 475980 Nota: C1 Vol.: 87
Chanel 4 Note On - Duracao: 475980 Nota: C1 Vol.: 71
Chanel 6 Note Off - Duracao: 475980 Nota: C1 Vol.: 99
Chanel 6 Note On - Duracao: 475980 Nota: C1 Vol.: 99
Chanel 3 Note Off - Duracao: 476040 Nota: C1 Vol.: 57
Chanel 3 Note On - Duracao: 476040 Nota: C1 Vol.: 65
Chanel 6 Note Off - Duracao: 476040 Nota: C1 Vol.: 99
Chanel 6 Note On - Duracao: 476040 Nota: C1 Vol.: 99
Chanel 6 Note Off - Duracao: 476100 Nota: C1 Vol.: 99
Chanel 6 Note On - Duracao: 476100 Nota: C1 Vol.: 99
Chanel 6 Note Off - Duracao: 476160 Nota: C1 Vol.: 99
Chanel 6 Note On - Duracao: 476160 Nota: C1 Vol.: 91
Chanel 3 Note Off - Duracao: 476280 Nota: C1 Vol.: 65
Chanel 3 Note On - Duracao: 476280 Nota: C1 Vol.: 53
Chanel 6 Note Off - Duracao: 476280 Nota: C1 Vol.: 91
Chanel 6 Note On - Duracao: 476280 Nota: C1 Vol.: 85
Chanel 8 Note Off - Duracao: 476340 Nota: C1 Vol.: 52
Chanel 8 Note On - Duracao: 476340 Nota: C1 Vol.: 49
Chanel 6 Note Off - Duracao: 476400 Nota: C1 Vol.: 85
Chanel 6 Note On - Duracao: 476400 Nota: C1 Vol.: 47
Chanel 10 Note Off - Duracao: 476400 Nota: C1 Vol.: 57
Chanel 10 Note On - Duracao: 476400 Nota: C1 Vol.: 54
Chanel 4 Note Off - Duracao: 476460 Nota: C1 Vol.: 71
Chanel 4 Note On - Duracao: 476460 Nota: C1 Vol.: 61
Chanel 3 Note Off - Duracao: 476760 Nota: C1 Vol.: 53
Chanel 3 Note On - Duracao: 476760 Nota: C1 Vol.: 53
Chanel 8 Note Off - Duracao: 476820 Nota: C1 Vol.: 49
Chanel 8 Note On - Duracao: 476820 Nota: C1 Vol.: 56
Chanel 8 Note Off - Duracao: 477060 Nota: C1 Vol.: 56
Chanel 8 Note On - Duracao: 477060 Nota: C1 Vol.: 50
Chanel 3 Note Off - Duracao: 477240 Nota: C1 Vol.: 53
Chanel 3 Note On - Duracao: 477240 Nota: C1 Vol.: 51
Chanel 10 Note Off - Duracao: 477360 Nota: C1 Vol.: 54
Chanel 10 Note On - Duracao: 477360 Nota: C1 Vol.: 55
Chanel 4 Note Off - Duracao: 477420 Nota: C1 Vol.: 61
Chanel 4 Note On - Duracao: 477420 Nota: C1 Vol.: 58
Chanel 8 Note Off - Duracao: 477540 Nota: C1 Vol.: 50
Chanel 8 Note On - Duracao: 477540 Nota: C1 Vol.: 60
Chanel 2 Note Off - Duracao: 477780 Nota: C1 Vol.: 43
Chanel 2 Note On - Duracao: 477780 Nota: C1 Vol.: 42
Chanel 8 Note Off - Duracao: 477780 Nota: C1 Vol.: 60
Chanel 8 Note On - Duracao: 477780 Nota: C1 Vol.: 67
Chanel 8 Note Off - Duracao: 477900 Nota: C1 Vol.: 67
Chanel 8 Note On - Duracao: 477900 Nota: C1 Vol.: 71
Chanel 8 Note Off - Duracao: 478020 Nota: C1 Vol.: 71
Chanel 8 Note On - Duracao: 478020 Nota: C1 Vol.: 68
Chanel 8 Note Off - Duracao: 478140 Nota: C1 Vol.: 68
Chanel 8 Note On - Duracao: 478140 Nota: C1 Vol.: 63
Chanel 3 Note Off - Duracao: 478200 Nota: C1 Vol.: 51
Chanel 3 Note On - Duracao: 478200 Nota: C1 Vol.: 69
Chanel 7 Note Off - Duracao: 478260 Nota: C1 Vol.: 60
Chanel 7 Note On - Duracao: 478260 Nota: C1 Vol.: 61
Chanel 6 Note Off - Duracao: 478320 Nota: C1 Vol.: 47
Chanel 6 Note On - Duracao: 478320 Nota: C1 Vol.: 83
Chanel 10 Note Off - Duracao: 478320 Nota: C1 Vol.: 55
Chanel 10 Note On - Duracao: 478320 Nota: C1 Vol.: 61
Chanel 8 Note Off - Duracao: 478380 Nota: C1 Vol.: 63
Chanel 8 Note On - Duracao: 478380 Nota: C1 Vol.: 64
Chanel 3 Note Off - Duracao: 478440 Nota: C1 Vol.: 69
Chanel 3 Note On - Duracao: 478440 Nota: C1 Vol.: 66
Chanel 6 Note Off - Duracao: 478560 Nota: C1 Vol.: 83
Chanel 6 Note On - Duracao: 478560 Nota: C1 Vol.: 97
Chanel 8 Note Off - Duracao: 478620 Nota: C1 Vol.: 64
Chanel 8 Note On - Duracao: 478620 Nota: C1 Vol.: 62
Chanel 3 Note Off - Duracao: 478680 Nota: C1 Vol.: 66
Chanel 3 Note On - Duracao: 478680 Nota: C1 Vol.: 53
Chanel 5 Note Off - Duracao: 478680 Nota: C1 Vol.: 52
Chanel 5 Note On - Duracao: 478680 Nota: C1 Vol.: 48
Chanel 6 Note Off - Duracao: 478680 Nota: C1 Vol.: 97
Chanel 6 Note On - Duracao: 478680 Nota: C1 Vol.: 99
Chanel 6 Note Off - Duracao: 478740 Nota: C1 Vol.: 99
Chanel 6 Note On - Duracao: 478740 Nota: C1 Vol.: 99
Chanel 6 Note Off - Duracao: 478800 Nota: C1 Vol.: 99
Chanel 6 Note On - Duracao: 478800 Nota: C1 Vol.: 93
Chanel 10 Note Off - Duracao: 478800 Nota: C1 Vol.: 61
Chanel 10 Note On - Duracao: 478800 Nota: C1 Vol.: 62
Chanel 8 Note Off - Duracao: 478860 Nota: C1 Vol.: 62
Chanel 8 Note On - Duracao: 478860 Nota: C1 Vol.: 56
Chanel 6 Note Off - Duracao: 478920 Nota: C1 Vol.: 93
Chanel 6 Note On - Duracao: 478920 Nota: C1 Vol.: 98
Chanel 6 Note Off - Duracao: 478980 Nota: C1 Vol.: 98
Chanel 6 Note On - Duracao: 478980 Nota: C1 Vol.: 97
Chanel 6 Note Off - Duracao: 479040 Nota: C1 Vol.: 97
Chanel 6 Note On - Duracao: 479040 Nota: C1 Vol.: 73
Chanel 3 Note Off - Duracao: 479160 Nota: C1 Vol.: 53
Chanel 3 Note On - Duracao: 479160 Nota: C1 Vol.: 61
Chanel 6 Note Off - Duracao: 479280 Nota: C1 Vol.: 73
Chanel 6 Note On - Duracao: 479280 Nota: C1 Vol.: 67
Chanel 10 Note Off - Duracao: 479280 Nota: C1 Vol.: 62
Chanel 10 Note On - Duracao: 479280 Nota: C1 Vol.: 70
Chanel 4 Note Off - Duracao: 479340 Nota: C1 Vol.: 58
Chanel 4 Note On - Duracao: 479340 Nota: C1 Vol.: 57
Chanel 8 Note Off - Duracao: 479340 Nota: C1 Vol.: 56
Chanel 8 Note On - Duracao: 479340 Nota: C1 Vol.: 43
Chanel 3 Note Off - Duracao: 479400 Nota: C1 Vol.: 61
Chanel 3 Note On - Duracao: 479400 Nota: C1 Vol.: 48
Chanel 6 Note Off - Duracao: 479760 Nota: C1 Vol.: 67
Chanel 6 Note On - Duracao: 479760 Nota: C1 Vol.: 70
Chanel 10 Note Off - Duracao: 479760 Nota: C1 Vol.: 70
Chanel 10 Note On - Duracao: 479760 Nota: C1 Vol.: 78
Chanel 10 Note Off - Duracao: 480000 Nota: C1 Vol.: 78
Chanel 10 Note On - Duracao: 480000 Nota: C1 Vol.: 75
Chanel 6 Note Off - Duracao: 480240 Nota: C1 Vol.: 70
Chanel 6 Note On - Duracao: 480240 Nota: C1 Vol.: 68
Chanel 8 Note Off - Duracao: 480300 Nota: C1 Vol.: 43
Chanel 8 Note On - Duracao: 480300 Nota: C1 Vol.: 49
Chanel 3 Note Off - Duracao: 480360 Nota: C1 Vol.: 48
Chanel 3 Note On - Duracao: 480360 Nota: C1 Vol.: 66
Chanel 10 Note Off - Duracao: 480480 Nota: C1 Vol.: 75
Chanel 10 Note On - Duracao: 480480 Nota: C1 Vol.: 74
Chanel 3 Note Off - Duracao: 480600 Nota: C1 Vol.: 66
Chanel 3 Note On - Duracao: 480600 Nota: C1 Vol.: 64
Chanel 6 Note Off - Duracao: 480720 Nota: C1 Vol.: 68
Chanel 6 Note On - Duracao: 480720 Nota: C1 Vol.: 80
Chanel 6 Note Off - Duracao: 480840 Nota: C1 Vol.: 80
Chanel 6 Note On - Duracao: 480840 Nota: C1 Vol.: 67
Chanel 10 Note Off - Duracao: 480960 Nota: C1 Vol.: 74
Chanel 10 Note On - Duracao: 480960 Nota: C1 Vol.: 82
Chanel 3 Note Off - Duracao: 481080 Nota: C1 Vol.: 64
Chanel 3 Note On - Duracao: 481080 Nota: C1 Vol.: 40
Chanel 6 Note Off - Duracao: 481080 Nota: C1 Vol.: 67
Chanel 6 Note On - Duracao: 481080 Nota: C1 Vol.: 51
Chanel 10 Note Off - Duracao: 481200 Nota: C1 Vol.: 82
Chanel 10 Note On - Duracao: 481200 Nota: C1 Vol.: 84
Chanel 4 Note Off - Duracao: 481260 Nota: C1 Vol.: 57
Chanel 4 Note On - Duracao: 481260 Nota: C1 Vol.: 66
Chanel 8 Note Off - Duracao: 481260 Nota: C1 Vol.: 49
Chanel 8 Note On - Duracao: 481260 Nota: C1 Vol.: 49
Chanel 10 Note Off - Duracao: 481440 Nota: C1 Vol.: 84
Chanel 10 Note On - Duracao: 481440 Nota: C1 Vol.: 84
Chanel 2 Note Off - Duracao: 481620 Nota: C1 Vol.: 42
Chanel 2 Note On - Duracao: 481620 Nota: C1 Vol.: 41
Chanel 10 Note Off - Duracao: 481680 Nota: C1 Vol.: 84
Chanel 10 Note On - Duracao: 481680 Nota: C1 Vol.: 84
Chanel 10 Note Off - Duracao: 481920 Nota: C1 Vol.: 84
Chanel 10 Note On - Duracao: 481920 Nota: C1 Vol.: 83
Chanel 6 Note Off - Duracao: 482040 Nota: C1 Vol.: 51
Chanel 6 Note On - Duracao: 482040 Nota: C1 Vol.: 67
Chanel 7 Note Off - Duracao: 482100 Nota: C1 Vol.: 61
Chanel 7 Note On - Duracao: 482100 Nota: C1 Vol.: 61
Chanel 10 Note Off - Duracao: 482160 Nota: C1 Vol.: 83
Chanel 10 Note On - Duracao: 482160 Nota: C1 Vol.: 84
Chanel 4 Note Off - Duracao: 482220 Nota: C1 Vol.: 66
Chanel 4 Note On - Duracao: 482220 Nota: C1 Vol.: 83
Chanel 8 Note Off - Duracao: 482220 Nota: C1 Vol.: 49
Chanel 8 Note On - Duracao: 482220 Nota: C1 Vol.: 47
Chanel 6 Note Off - Duracao: 482280 Nota: C1 Vol.: 67
Chanel 6 Note On - Duracao: 482280 Nota: C1 Vol.: 58
Chanel 10 Note Off - Duracao: 482400 Nota: C1 Vol.: 84
Chanel 10 Note On - Duracao: 482400 Nota: C1 Vol.: 84
Chanel 4 Note Off - Duracao: 482460 Nota: C1 Vol.: 83
Chanel 4 Note On - Duracao: 482460 Nota: C1 Vol.: 82
Chanel 5 Note Off - Duracao: 482520 Nota: C1 Vol.: 48
Chanel 5 Note On - Duracao: 482520 Nota: C1 Vol.: 63
Chanel 6 Note Off - Duracao: 482520 Nota: C1 Vol.: 58
Chanel 6 Note On - Duracao: 482520 Nota: C1 Vol.: 62
Chanel 10 Note Off - Duracao: 482640 Nota: C1 Vol.: 84
Chanel 10 Note On - Duracao: 482640 Nota: C1 Vol.: 84
Chanel 4 Note Off - Duracao: 482700 Nota: C1 Vol.: 82
Chanel 4 Note On - Duracao: 482700 Nota: C1 Vol.: 47
Chanel 6 Note Off - Duracao: 482760 Nota: C1 Vol.: 62
Chanel 6 Note On - Duracao: 482760 Nota: C1 Vol.: 56
Chanel 10 Note Off - Duracao: 482880 Nota: C1 Vol.: 84
Chanel 10 Note On - Duracao: 482880 Nota: C1 Vol.: 84
Chanel 6 Note Off - Duracao: 483000 Nota: C1 Vol.: 56
Chanel 6 Note On - Duracao: 483000 Nota: C1 Vol.: 65
Chanel 10 Note Off - Duracao: 483120 Nota: C1 Vol.: 84
Chanel 10 Note On - Duracao: 483120 Nota: C1 Vol.: 85
Chanel 6 Note Off - Duracao: 483240 Nota: C1 Vol.: 65
Chanel 6 Note On - Duracao: 483240 Nota: C1 Vol.: 62
Chanel 10 Note Off - Duracao: 483360 Nota: C1 Vol.: 85
Chanel 10 Note On - Duracao: 483360 Nota: C1 Vol.: 87
Chanel 5 Note Off - Duracao: 483480 Nota: C1 Vol.: 63
Chanel 5 Note On - Duracao: 483480 Nota: C1 Vol.: 88
Chanel 6 Note Off - Duracao: 483480 Nota: C1 Vol.: 62
Chanel 6 Note On - Duracao: 483480 Nota: C1 Vol.: 44
Chanel 5 Note Off - Duracao: 483600 Nota: C1 Vol.: 88
Chanel 5 Note On - Duracao: 483600 Nota: C1 Vol.: 89
Chanel 10 Note Off - Duracao: 483600 Nota: C1 Vol.: 87
Chanel 10 Note On - Duracao: 483600 Nota: C1 Vol.: 86
Chanel 5 Note Off - Duracao: 483720 Nota: C1 Vol.: 89
Chanel 5 Note On - Duracao: 483720 Nota: C1 Vol.: 90
Chanel 5 Note Off - Duracao: 483840 Nota: C1 Vol.: 90
Chanel 5 Note On - Duracao: 483840 Nota: C1 Vol.: 91
Chanel 10 Note Off - Duracao: 483840 Nota: C1 Vol.: 86
Chanel 10 Note On - Duracao: 483840 Nota: C1 Vol.: 86
Chanel 5 Note Off - Duracao: 483960 Nota: C1 Vol.: 91
Chanel 5 Note On - Duracao: 483960 Nota: C1 Vol.: 89
Chanel 5 Note Off - Duracao: 484080 Nota: C1 Vol.: 89
Chanel 5 Note On - Duracao: 484080 Nota: C1 Vol.: 88
Chanel 10 Note Off - Duracao: 484080 Nota: C1 Vol.: 86
Chanel 10 Note On - Duracao: 484080 Nota: C1 Vol.: 83
Chanel 8 Note Off - Duracao: 484140 Nota: C1 Vol.: 47
Chanel 8 Note On - Duracao: 484140 Nota: C1 Vol.: 52
Chanel 5 Note Off - Duracao: 484200 Nota: C1 Vol.: 88
Chanel 5 Note On - Duracao: 484200 Nota: C1 Vol.: 88
Chanel 5 Note Off - Duracao: 484320 Nota: C1 Vol.: 88
Chanel 5 Note On - Duracao: 484320 Nota: C1 Vol.: 86
Chanel 10 Note Off - Duracao: 484320 Nota: C1 Vol.: 83
Chanel 10 Note On - Duracao: 484320 Nota: C1 Vol.: 81
Chanel 5 Note Off - Duracao: 484440 Nota: C1 Vol.: 86
Chanel 5 Note On - Duracao: 484440 Nota: C1 Vol.: 90
Chanel 6 Note Off - Duracao: 484440 Nota: C1 Vol.: 44
Chanel 6 Note On - Duracao: 484440 Nota: C1 Vol.: 61
Chanel 5 Note Off - Duracao: 484560 Nota: C1 Vol.: 90
Chanel 5 Note On - Duracao: 484560 Nota: C1 Vol.: 96
Chanel 10 Note Off - Duracao: 484560 Nota: C1 Vol.: 81
Chanel 10 Note On - Duracao: 484560 Nota: C1 Vol.: 75
Chanel 4 Note Off - Duracao: 484620 Nota: C1 Vol.: 47
Chanel 4 Note On - Duracao: 484620 Nota: C1 Vol.: 45
Chanel 5 Note Off - Duracao: 484620 Nota: C1 Vol.: 96
Chanel 5 Note On - Duracao: 484620 Nota: C1 Vol.: 98
Chanel 5 Note Off - Duracao: 484680 Nota: C1 Vol.: 98
Chanel 5 Note On - Duracao: 484680 Nota: C1 Vol.: 70
Chanel 6 Note Off - Duracao: 484680 Nota: C1 Vol.: 61
Chanel 6 Note On - Duracao: 484680 Nota: C1 Vol.: 60
Chanel 3 Note Off - Duracao: 484920 Nota: C1 Vol.: 40
Chanel 3 Note On - Duracao: 484920 Nota: C1 Vol.: 40
Chanel 6 Note Off - Duracao: 484920 Nota: C1 Vol.: 60
Chanel 6 Note On - Duracao: 484920 Nota: C1 Vol.: 54
Chanel 10 Note Off - Duracao: 485040 Nota: C1 Vol.: 75
Chanel 10 Note On - Duracao: 485040 Nota: C1 Vol.: 73
Chanel 8 Note Off - Duracao: 485100 Nota: C1 Vol.: 52
Chanel 8 Note On - Duracao: 485100 Nota: C1 Vol.: 58
Chanel 5 Note Off - Duracao: 485160 Nota: C1 Vol.: 70
Chanel 5 Note On - Duracao: 485160 Nota: C1 Vol.: 99
Chanel 5 Note Off - Duracao: 485220 Nota: C1 Vol.: 99
Chanel 5 Note On - Duracao: 485220 Nota: C1 Vol.: 100
Chanel 5 Note Off - Duracao: 485280 Nota: C1 Vol.: 100
Chanel 5 Note On - Duracao: 485280 Nota: C1 Vol.: 100
Chanel 5 Note Off - Duracao: 485340 Nota: C1 Vol.: 100
Chanel 5 Note On - Duracao: 485340 Nota: C1 Vol.: 99
Chanel 5 Note Off - Duracao: 485400 Nota: C1 Vol.: 99
Chanel 5 Note On - Duracao: 485400 Nota: C1 Vol.: 99
Chanel 6 Note Off - Duracao: 485400 Nota: C1 Vol.: 54
Chanel 6 Note On - Duracao: 485400 Nota: C1 Vol.: 48
Chanel 2 Note Off - Duracao: 485460 Nota: C1 Vol.: 41
Chanel 2 Note On - Duracao: 485460 Nota: C1 Vol.: 42
Chanel 5 Note Off - Duracao: 485460 Nota: C1 Vol.: 99
Chanel 5 Note On - Duracao: 485460 Nota: C1 Vol.: 100
Chanel 5 Note Off - Duracao: 485520 Nota: C1 Vol.: 100
Chanel 5 Note On - Duracao: 485520 Nota: C1 Vol.: 100
Chanel 10 Note Off - Duracao: 485520 Nota: C1 Vol.: 73
Chanel 10 Note On - Duracao: 485520 Nota: C1 Vol.: 73
Chanel 5 Note Off - Duracao: 485580 Nota: C1 Vol.: 100
Chanel 5 Note On - Duracao: 485580 Nota: C1 Vol.: 98
Chanel 5 Note Off - Duracao: 485640 Nota: C1 Vol.: 98
Chanel 5 Note On - Duracao: 485640 Nota: C1 Vol.: 98
Chanel 5 Note Off - Duracao: 485700 Nota: C1 Vol.: 98
Chanel 6 Note Off - Duracao: 485880 Nota: C1 Vol.: 48
Chanel 6 Note On - Duracao: 485880 Nota: C1 Vol.: 51
Chanel 7 Note Off - Duracao: 485940 Nota: C1 Vol.: 61
Chanel 7 Note On - Duracao: 485940 Nota: C1 Vol.: 63
Chanel 10 Note Off - Duracao: 486000 Nota: C1 Vol.: 73
Chanel 10 Note On - Duracao: 486000 Nota: C1 Vol.: 71
Chanel 8 Note Off - Duracao: 486060 Nota: C1 Vol.: 58
Chanel 8 Note On - Duracao: 486060 Nota: C1 Vol.: 53
Chanel 6 Note Off - Duracao: 486360 Nota: C1 Vol.: 51
Chanel 6 Note On - Duracao: 486360 Nota: C1 Vol.: 62
Chanel 10 Note Off - Duracao: 486480 Nota: C1 Vol.: 71
Chanel 10 Note On - Duracao: 486480 Nota: C1 Vol.: 71
Chanel 4 Note Off - Duracao: 486540 Nota: C1 Vol.: 45
Chanel 4 Note On - Duracao: 486540 Nota: C1 Vol.: 55
Chanel 6 Note Off - Duracao: 486600 Nota: C1 Vol.: 62
Chanel 6 Note On - Duracao: 486600 Nota: C1 Vol.: 53
Chanel 10 Note Off - Duracao: 486960 Nota: C1 Vol.: 71
Chanel 10 Note On - Duracao: 486960 Nota: C1 Vol.: 69
Chanel 6 Note Off - Duracao: 487080 Nota: C1 Vol.: 53
Chanel 6 Note On - Duracao: 487080 Nota: C1 Vol.: 49
Chanel 10 Note Off - Duracao: 487440 Nota: C1 Vol.: 69
Chanel 10 Note On - Duracao: 487440 Nota: C1 Vol.: 64
Chanel 4 Note Off - Duracao: 487500 Nota: C1 Vol.: 55
Chanel 4 Note On - Duracao: 487500 Nota: C1 Vol.: 82
Chanel 6 Note Off - Duracao: 487560 Nota: C1 Vol.: 49
Chanel 6 Note On - Duracao: 487560 Nota: C1 Vol.: 47
Chanel 4 Note Off - Duracao: 487740 Nota: C1 Vol.: 82
Chanel 4 Note On - Duracao: 487740 Nota: C1 Vol.: 89
Chanel 4 Note Off - Duracao: 487860 Nota: C1 Vol.: 89
Chanel 4 Note On - Duracao: 487860 Nota: C1 Vol.: 69
Chanel 10 Note Off - Duracao: 487920 Nota: C1 Vol.: 64
Chanel 10 Note On - Duracao: 487920 Nota: C1 Vol.: 68
Chanel 8 Note Off - Duracao: 487980 Nota: C1 Vol.: 53
Chanel 8 Note On - Duracao: 487980 Nota: C1 Vol.: 65
Chanel 6 Note Off - Duracao: 488040 Nota: C1 Vol.: 47
Chanel 6 Note On - Duracao: 488040 Nota: C1 Vol.: 49
Chanel 10 Note Off - Duracao: 488160 Nota: C1 Vol.: 68
Chanel 10 Note On - Duracao: 488160 Nota: C1 Vol.: 63
Chanel 4 Note Off - Duracao: 488340 Nota: C1 Vol.: 69
Chanel 4 Note On - Duracao: 488340 Nota: C1 Vol.: 85
Chanel 6 Note Off - Duracao: 488520 Nota: C1 Vol.: 49
Chanel 6 Note On - Duracao: 488520 Nota: C1 Vol.: 50
Chanel 4 Note Off - Duracao: 488580 Nota: C1 Vol.: 85
Chanel 4 Note On - Duracao: 488580 Nota: C1 Vol.: 99
Chanel 4 Note Off - Duracao: 488640 Nota: C1 Vol.: 99
Chanel 4 Note On - Duracao: 488640 Nota: C1 Vol.: 95
Chanel 10 Note Off - Duracao: 488640 Nota: C1 Vol.: 63
Chanel 10 Note On - Duracao: 488640 Nota: C1 Vol.: 68
Chanel 3 Note Off - Duracao: 488760 Nota: C1 Vol.: 40
Chanel 3 Note On - Duracao: 488760 Nota: C1 Vol.: 40
Chanel 4 Note Off - Duracao: 488760 Nota: C1 Vol.: 95
Chanel 4 Note On - Duracao: 488760 Nota: C1 Vol.: 90
Chanel 4 Note Off - Duracao: 488880 Nota: C1 Vol.: 90
Chanel 4 Note On - Duracao: 488880 Nota: C1 Vol.: 87
Chanel 10 Note Off - Duracao: 488880 Nota: C1 Vol.: 68
Chanel 10 Note On - Duracao: 488880 Nota: C1 Vol.: 67
Chanel 8 Note Off - Duracao: 488940 Nota: C1 Vol.: 65
Chanel 8 Note On - Duracao: 488940 Nota: C1 Vol.: 67
Chanel 4 Note Off - Duracao: 489000 Nota: C1 Vol.: 87
Chanel 4 Note On - Duracao: 489000 Nota: C1 Vol.: 91
Chanel 4 Note Off - Duracao: 489120 Nota: C1 Vol.: 91
Chanel 4 Note On - Duracao: 489120 Nota: C1 Vol.: 49
Chanel 10 Note Off - Duracao: 489120 Nota: C1 Vol.: 67
Chanel 10 Note On - Duracao: 489120 Nota: C1 Vol.: 63
Chanel 2 Note Off - Duracao: 489300 Nota: C1 Vol.: 42
Chanel 2 Note On - Duracao: 489300 Nota: C1 Vol.: 44
Chanel 6 Note Off - Duracao: 489480 Nota: C1 Vol.: 50
Chanel 6 Note On - Duracao: 489480 Nota: C1 Vol.: 52
Chanel 10 Note Off - Duracao: 489600 Nota: C1 Vol.: 63
Chanel 10 Note On - Duracao: 489600 Nota: C1 Vol.: 60
Chanel 7 Note Off - Duracao: 489780 Nota: C1 Vol.: 63
Chanel 7 Note On - Duracao: 489780 Nota: C1 Vol.: 64
Chanel 8 Note Off - Duracao: 489900 Nota: C1 Vol.: 67
Chanel 8 Note On - Duracao: 489900 Nota: C1 Vol.: 63
Chanel 10 Note Off - Duracao: 490080 Nota: C1 Vol.: 60
Chanel 10 Note On - Duracao: 490080 Nota: C1 Vol.: 59
Chanel 6 Note Off - Duracao: 490440 Nota: C1 Vol.: 52
Chanel 6 Note On - Duracao: 490440 Nota: C1 Vol.: 56
Chanel 10 Note Off - Duracao: 490560 Nota: C1 Vol.: 59
Chanel 10 Note On - Duracao: 490560 Nota: C1 Vol.: 61
Chanel 10 Note Off - Duracao: 490800 Nota: C1 Vol.: 61
Chanel 10 Note On - Duracao: 490800 Nota: C1 Vol.: 56
Chanel 8 Note Off - Duracao: 490860 Nota: C1 Vol.: 63
Chanel 8 Note On - Duracao: 490860 Nota: C1 Vol.: 58
Chanel 6 Note Off - Duracao: 490920 Nota: C1 Vol.: 56
Chanel 6 Note On - Duracao: 490920 Nota: C1 Vol.: 59
Chanel 4 Note Off - Duracao: 491040 Nota: C1 Vol.: 49
Chanel 4 Note On - Duracao: 491040 Nota: C1 Vol.: 54
Chanel 2 Note Off - Duracao: 491220 Nota: C1 Vol.: 44
Chanel 2 Note On - Duracao: 491220 Nota: C1 Vol.: 42
Chanel 10 Note Off - Duracao: 491280 Nota: C1 Vol.: 56
Chanel 10 Note On - Duracao: 491280 Nota: C1 Vol.: 60
Chanel 6 Note Off - Duracao: 491400 Nota: C1 Vol.: 59
Chanel 6 Note On - Duracao: 491400 Nota: C1 Vol.: 53
Chanel 10 Note Off - Duracao: 491520 Nota: C1 Vol.: 60
Chanel 10 Note On - Duracao: 491520 Nota: C1 Vol.: 59
Chanel 8 Note Off - Duracao: 491820 Nota: C1 Vol.: 58
Chanel 8 Note On - Duracao: 491820 Nota: C1 Vol.: 53
Chanel 6 Note Off - Duracao: 491880 Nota: C1 Vol.: 53
Chanel 6 Note On - Duracao: 491880 Nota: C1 Vol.: 56
Chanel 4 Note Off - Duracao: 492000 Nota: C1 Vol.: 54
Chanel 4 Note On - Duracao: 492000 Nota: C1 Vol.: 48
Chanel 10 Note Off - Duracao: 492000 Nota: C1 Vol.: 59
Chanel 10 Note On - Duracao: 492000 Nota: C1 Vol.: 61
Chanel 6 Note Off - Duracao: 492120 Nota: C1 Vol.: 56
Chanel 6 Note On - Duracao: 492120 Nota: C1 Vol.: 52
Chanel 10 Note Off - Duracao: 492480 Nota: C1 Vol.: 61
Chanel 10 Note On - Duracao: 492480 Nota: C1 Vol.: 60
Chanel 3 Note Off - Duracao: 492600 Nota: C1 Vol.: 40
Chanel 3 Note On - Duracao: 492600 Nota: C1 Vol.: 42
Chanel 6 Note Off - Duracao: 492600 Nota: C1 Vol.: 52
Chanel 6 Note On - Duracao: 492600 Nota: C1 Vol.: 61
Chanel 6 Note Off - Duracao: 492840 Nota: C1 Vol.: 61
Chanel 6 Note On - Duracao: 492840 Nota: C1 Vol.: 58
Chanel 10 Note Off - Duracao: 492960 Nota: C1 Vol.: 60
Chanel 10 Note On - Duracao: 492960 Nota: C1 Vol.: 51
Chanel 6 Note Off - Duracao: 493080 Nota: C1 Vol.: 58
Chanel 6 Note On - Duracao: 493080 Nota: C1 Vol.: 57
Chanel 6 Note Off - Duracao: 493320 Nota: C1 Vol.: 57
Chanel 6 Note On - Duracao: 493320 Nota: C1 Vol.: 67
Chanel 10 Note Off - Duracao: 493440 Nota: C1 Vol.: 51
Chanel 10 Note On - Duracao: 493440 Nota: C1 Vol.: 48
Chanel 6 Note Off - Duracao: 493560 Nota: C1 Vol.: 67
Chanel 6 Note On - Duracao: 493560 Nota: C1 Vol.: 71
Chanel 7 Note Off - Duracao: 493620 Nota: C1 Vol.: 64
Chanel 7 Note On - Duracao: 493620 Nota: C1 Vol.: 64
Chanel 8 Note Off - Duracao: 493740 Nota: C1 Vol.: 53
Chanel 8 Note On - Duracao: 493740 Nota: C1 Vol.: 51
Chanel 6 Note Off - Duracao: 493800 Nota: C1 Vol.: 71
Chanel 6 Note On - Duracao: 493800 Nota: C1 Vol.: 50
Chanel 4 Note Off - Duracao: 493920 Nota: C1 Vol.: 48
Chanel 4 Note On - Duracao: 493920 Nota: C1 Vol.: 48
Chanel 10 Note Off - Duracao: 494400 Nota: C1 Vol.: 48
Chanel 10 Note On - Duracao: 494400 Nota: C1 Vol.: 58
Chanel 6 Note Off - Duracao: 494760 Nota: C1 Vol.: 50
Chanel 6 Note On - Duracao: 494760 Nota: C1 Vol.: 57
Chanel 10 Note Off - Duracao: 494880 Nota: C1 Vol.: 58
Chanel 10 Note On - Duracao: 494880 Nota: C1 Vol.: 69
Chanel 2 Note Off - Duracao: 495060 Nota: C1 Vol.: 42
Chanel 2 Note On - Duracao: 495060 Nota: C1 Vol.: 44
Chanel 10 Note Off - Duracao: 495120 Nota: C1 Vol.: 69
Chanel 10 Note On - Duracao: 495120 Nota: C1 Vol.: 77
Chanel 10 Note Off - Duracao: 495360 Nota: C1 Vol.: 77
Chanel 10 Note On - Duracao: 495360 Nota: C1 Vol.: 76
Chanel 10 Note Off - Duracao: 495600 Nota: C1 Vol.: 76
Chanel 10 Note On - Duracao: 495600 Nota: C1 Vol.: 75
Chanel 8 Note Off - Duracao: 495660 Nota: C1 Vol.: 51
Chanel 8 Note On - Duracao: 495660 Nota: C1 Vol.: 47
Chanel 4 Note Off - Duracao: 495840 Nota: C1 Vol.: 48
Chanel 4 Note On - Duracao: 495840 Nota: C1 Vol.: 60
Chanel 10 Note Off - Duracao: 495840 Nota: C1 Vol.: 75
Chanel 10 Note On - Duracao: 495840 Nota: C1 Vol.: 72
Chanel 10 Note Off - Duracao: 496320 Nota: C1 Vol.: 72
Chanel 10 Note On - Duracao: 496320 Nota: C1 Vol.: 75
Chanel 3 Note Off - Duracao: 496440 Nota: C1 Vol.: 42
Chanel 3 Note On - Duracao: 496440 Nota: C1 Vol.: 57
Chanel 6 Note Off - Duracao: 496680 Nota: C1 Vol.: 57
Chanel 6 Note On - Duracao: 496680 Nota: C1 Vol.: 60
Chanel 4 Note Off - Duracao: 496800 Nota: C1 Vol.: 60
Chanel 4 Note On - Duracao: 496800 Nota: C1 Vol.: 57
Chanel 10 Note Off - Duracao: 496800 Nota: C1 Vol.: 75
Chanel 10 Note On - Duracao: 496800 Nota: C1 Vol.: 76
Chanel 10 Note Off - Duracao: 497280 Nota: C1 Vol.: 76
Chanel 10 Note On - Duracao: 497280 Nota: C1 Vol.: 77
Chanel 7 Note Off - Duracao: 497460 Nota: C1 Vol.: 64
Chanel 7 Note On - Duracao: 497460 Nota: C1 Vol.: 62
Chanel 8 Note Off - Duracao: 497580 Nota: C1 Vol.: 47
Chanel 8 Note On - Duracao: 497580 Nota: C1 Vol.: 45
Chanel 4 Note Off - Duracao: 497760 Nota: C1 Vol.: 57
Chanel 4 Note On - Duracao: 497760 Nota: C1 Vol.: 40
Chanel 10 Note Off - Duracao: 497760 Nota: C1 Vol.: 77
Chanel 10 Note On - Duracao: 497760 Nota: C1 Vol.: 73
Chanel 10 Note Off - Duracao: 498240 Nota: C1 Vol.: 73
Chanel 10 Note On - Duracao: 498240 Nota: C1 Vol.: 68
Chanel 3 Note Off - Duracao: 498360 Nota: C1 Vol.: 57
Chanel 3 Note On - Duracao: 498360 Nota: C1 Vol.: 65
Chanel 6 Note Off - Duracao: 498600 Nota: C1 Vol.: 60
Chanel 6 Note On - Duracao: 498600 Nota: C1 Vol.: 58
Chanel 10 Note Off - Duracao: 498720 Nota: C1 Vol.: 68
Chanel 10 Note On - Duracao: 498720 Nota: C1 Vol.: 62
Chanel 2 Note Off - Duracao: 498900 Nota: C1 Vol.: 44
Chanel 2 Note On - Duracao: 498900 Nota: C1 Vol.: 42
Chanel 10 Note Off - Duracao: 499200 Nota: C1 Vol.: 62
Chanel 10 Note On - Duracao: 499200 Nota: C1 Vol.: 59
Chanel 8 Note Off - Duracao: 499500 Nota: C1 Vol.: 45
Chanel 8 Note On - Duracao: 499500 Nota: C1 Vol.: 44
Chanel 10 Note Off - Duracao: 499680 Nota: C1 Vol.: 59
Chanel 10 Note On - Duracao: 499680 Nota: C1 Vol.: 56
Chanel 10 Note Off - Duracao: 500160 Nota: C1 Vol.: 56
Chanel 10 Note On - Duracao: 500160 Nota: C1 Vol.: 56
Chanel 3 Note Off - Duracao: 500280 Nota: C1 Vol.: 65
Chanel 3 Note On - Duracao: 500280 Nota: C1 Vol.: 70
Chanel 10 Note Off - Duracao: 500640 Nota: C1 Vol.: 56
Chanel 10 Note On - Duracao: 500640 Nota: C1 Vol.: 50
Chanel 3 Note Off - Duracao: 501240 Nota: C1 Vol.: 70
Chanel 3 Note On - Duracao: 501240 Nota: C1 Vol.: 67
Chanel 7 Note Off - Duracao: 501300 Nota: C1 Vol.: 62
Chanel 7 Note On - Duracao: 501300 Nota: C1 Vol.: 62
Chanel 8 Note Off - Duracao: 501420 Nota: C1 Vol.: 44
Chanel 8 Note On - Duracao: 501420 Nota: C1 Vol.: 45
Chanel 4 Note Off - Duracao: 501600 Nota: C1 Vol.: 40
Chanel 4 Note On - Duracao: 501600 Nota: C1 Vol.: 44
Chanel 10 Note Off - Duracao: 501600 Nota: C1 Vol.: 50
Chanel 10 Note On - Duracao: 501600 Nota: C1 Vol.: 56
Chanel 10 Note Off - Duracao: 502080 Nota: C1 Vol.: 56
Chanel 10 Note On - Duracao: 502080 Nota: C1 Vol.: 60
Chanel 6 Note Off - Duracao: 502440 Nota: C1 Vol.: 58
Chanel 6 Note On - Duracao: 502440 Nota: C1 Vol.: 59
Chanel 10 Note Off - Duracao: 502560 Nota: C1 Vol.: 60
Chanel 10 Note On - Duracao: 502560 Nota: C1 Vol.: 71
Chanel 2 Note Off - Duracao: 502740 Nota: C1 Vol.: 42
Chanel 2 Note On - Duracao: 502740 Nota: C1 Vol.: 40
Chanel 10 Note Off - Duracao: 503040 Nota: C1 Vol.: 71
Chanel 10 Note On - Duracao: 503040 Nota: C1 Vol.: 80
Chanel 3 Note Off - Duracao: 503160 Nota: C1 Vol.: 67
Chanel 3 Note On - Duracao: 503160 Nota: C1 Vol.: 72
Chanel 10 Note Off - Duracao: 503280 Nota: C1 Vol.: 80
Chanel 10 Note On - Duracao: 503280 Nota: C1 Vol.: 81
Chanel 8 Note Off - Duracao: 503340 Nota: C1 Vol.: 45
Chanel 8 Note On - Duracao: 503340 Nota: C1 Vol.: 48
Chanel 4 Note Off - Duracao: 503520 Nota: C1 Vol.: 44
Chanel 4 Note On - Duracao: 503520 Nota: C1 Vol.: 40
Chanel 10 Note Off - Duracao: 503520 Nota: C1 Vol.: 81
Chanel 10 Note On - Duracao: 503520 Nota: C1 Vol.: 82
Chanel 10 Note Off - Duracao: 503760 Nota: C1 Vol.: 82
Chanel 3 Note Off - Duracao: 504120 Nota: C1 Vol.: 72
Chanel 3 Note On - Duracao: 504120 Nota: C1 Vol.: 76
Chanel 8 Note Off - Duracao: 504300 Nota: C1 Vol.: 48
Chanel 8 Note On - Duracao: 504300 Nota: C1 Vol.: 50
Chanel 3 Note Off - Duracao: 504600 Nota: C1 Vol.: 76
Chanel 3 Note On - Duracao: 504600 Nota: C1 Vol.: 74
Chanel 2 Note Off - Duracao: 504660 Nota: C1 Vol.: 40
Chanel 2 Note On - Duracao: 504660 Nota: C1 Vol.: 40
Chanel 7 Note Off - Duracao: 505140 Nota: C1 Vol.: 62
Chanel 7 Note On - Duracao: 505140 Nota: C1 Vol.: 62
Chanel 8 Note Off - Duracao: 505260 Nota: C1 Vol.: 50
Chanel 8 Note On - Duracao: 505260 Nota: C1 Vol.: 49
Chanel 3 Note Off - Duracao: 505560 Nota: C1 Vol.: 74
Chanel 3 Note On - Duracao: 505560 Nota: C1 Vol.: 73
Chanel 2 Note Off - Duracao: 505620 Nota: C1 Vol.: 40
Chanel 2 Note On - Duracao: 505620 Nota: C1 Vol.: 55
Chanel 2 Note Off - Duracao: 505740 Nota: C1 Vol.: 55
Chanel 2 Note On - Duracao: 505740 Nota: C1 Vol.: 46
Chanel 2 Note Off - Duracao: 505860 Nota: C1 Vol.: 46
Chanel 2 Note On - Duracao: 505860 Nota: C1 Vol.: 42
Chanel 2 Note Off - Duracao: 505980 Nota: C1 Vol.: 42
Chanel 2 Note On - Duracao: 505980 Nota: C1 Vol.: 43
Chanel 2 Note Off - Duracao: 506100 Nota: C1 Vol.: 43
Chanel 2 Note On - Duracao: 506100 Nota: C1 Vol.: 43
Chanel 2 Note Off - Duracao: 506220 Nota: C1 Vol.: 43
Chanel 2 Note On - Duracao: 506220 Nota: C1 Vol.: 42
Chanel 8 Note Off - Duracao: 506220 Nota: C1 Vol.: 49
Chanel 8 Note On - Duracao: 506220 Nota: C1 Vol.: 52
Chanel 6 Note Off - Duracao: 506280 Nota: C1 Vol.: 59
Chanel 6 Note On - Duracao: 506280 Nota: C1 Vol.: 56
Chanel 2 Note Off - Duracao: 506340 Nota: C1 Vol.: 42
Chanel 2 Note On - Duracao: 506340 Nota: C1 Vol.: 44
Chanel 2 Note Off - Duracao: 506460 Nota: C1 Vol.: 44
Chanel 2 Note On - Duracao: 506460 Nota: C1 Vol.: 47
Chanel 3 Note Off - Duracao: 506520 Nota: C1 Vol.: 73
Chanel 3 Note On - Duracao: 506520 Nota: C1 Vol.: 79
Chanel 2 Note Off - Duracao: 506580 Nota: C1 Vol.: 47
Chanel 2 Note On - Duracao: 506580 Nota: C1 Vol.: 56
Chanel 2 Note Off - Duracao: 506700 Nota: C1 Vol.: 56
Chanel 2 Note On - Duracao: 506700 Nota: C1 Vol.: 56
Chanel 2 Note Off - Duracao: 506940 Nota: C1 Vol.: 56
Chanel 2 Note On - Duracao: 506940 Nota: C1 Vol.: 40
Chanel 3 Note Off - Duracao: 507000 Nota: C1 Vol.: 79
Chanel 3 Note On - Duracao: 507000 Nota: C1 Vol.: 81
Chanel 8 Note Off - Duracao: 507180 Nota: C1 Vol.: 52
Chanel 8 Note On - Duracao: 507180 Nota: C1 Vol.: 53
Chanel 4 Note Off - Duracao: 507360 Nota: C1 Vol.: 40
Chanel 4 Note On - Duracao: 507360 Nota: C1 Vol.: 77
Chanel 3 Note Off - Duracao: 507480 Nota: C1 Vol.: 81
Chanel 3 Note On - Duracao: 507480 Nota: C1 Vol.: 76
Chanel 4 Note Off - Duracao: 507600 Nota: C1 Vol.: 77
Chanel 4 Note On - Duracao: 507600 Nota: C1 Vol.: 88
Chanel 4 Note Off - Duracao: 507720 Nota: C1 Vol.: 88
Chanel 4 Note On - Duracao: 507720 Nota: C1 Vol.: 91
Chanel 4 Note Off - Duracao: 507840 Nota: C1 Vol.: 91
Chanel 4 Note On - Duracao: 507840 Nota: C1 Vol.: 100
Chanel 4 Note Off - Duracao: 507900 Nota: C1 Vol.: 100
Chanel 4 Note On - Duracao: 507900 Nota: C1 Vol.: 100
Chanel 4 Note Off - Duracao: 507960 Nota: C1 Vol.: 100
Chanel 4 Note On - Duracao: 507960 Nota: C1 Vol.: 100
Chanel 4 Note Off - Duracao: 508020 Nota: C1 Vol.: 100
Chanel 4 Note On - Duracao: 508020 Nota: C1 Vol.: 99
Chanel 4 Note Off - Duracao: 508080 Nota: C1 Vol.: 99
Chanel 4 Note On - Duracao: 508080 Nota: C1 Vol.: 99
Chanel 4 Note Off - Duracao: 508140 Nota: C1 Vol.: 99
Chanel 4 Note On - Duracao: 508140 Nota: C1 Vol.: 97
Chanel 8 Note Off - Duracao: 508140 Nota: C1 Vol.: 53
Chanel 8 Note On - Duracao: 508140 Nota: C1 Vol.: 53
Chanel 4 Note Off - Duracao: 508200 Nota: C1 Vol.: 97
Chanel 4 Note On - Duracao: 508200 Nota: C1 Vol.: 58
Chanel 3 Note Off - Duracao: 508440 Nota: C1 Vol.: 76
Chanel 3 Note On - Duracao: 508440 Nota: C1 Vol.: 75
Chanel 2 Note Off - Duracao: 508860 Nota: C1 Vol.: 40
Chanel 2 Note On - Duracao: 508860 Nota: C1 Vol.: 60
Chanel 3 Note Off - Duracao: 508920 Nota: C1 Vol.: 75
Chanel 3 Note On - Duracao: 508920 Nota: C1 Vol.: 71
Chanel 7 Note Off - Duracao: 508980 Nota: C1 Vol.: 62
Chanel 7 Note On - Duracao: 508980 Nota: C1 Vol.: 63
Chanel 8 Note Off - Duracao: 509100 Nota: C1 Vol.: 53
Chanel 8 Note On - Duracao: 509100 Nota: C1 Vol.: 52
Chanel 4 Note Off - Duracao: 509160 Nota: C1 Vol.: 58
Chanel 4 Note On - Duracao: 509160 Nota: C1 Vol.: 41
Chanel 2 Note Off - Duracao: 509340 Nota: C1 Vol.: 60
Chanel 2 Note On - Duracao: 509340 Nota: C1 Vol.: 62
Chanel 2 Note Off - Duracao: 509820 Nota: C1 Vol.: 62
Chanel 2 Note On - Duracao: 509820 Nota: C1 Vol.: 71
Chanel 3 Note Off - Duracao: 509880 Nota: C1 Vol.: 71
Chanel 3 Note On - Duracao: 509880 Nota: C1 Vol.: 68
Chanel 2 Note Off - Duracao: 510060 Nota: C1 Vol.: 71
Chanel 2 Note On - Duracao: 510060 Nota: C1 Vol.: 75
Chanel 8 Note Off - Duracao: 510060 Nota: C1 Vol.: 52
Chanel 8 Note On - Duracao: 510060 Nota: C1 Vol.: 56
Chanel 6 Note Off - Duracao: 510120 Nota: C1 Vol.: 56
Chanel 6 Note On - Duracao: 510120 Nota: C1 Vol.: 67
Chanel 2 Note Off - Duracao: 510300 Nota: C1 Vol.: 75
Chanel 2 Note On - Duracao: 510300 Nota: C1 Vol.: 70
Chanel 8 Note Off - Duracao: 510540 Nota: C1 Vol.: 56
Chanel 8 Note On - Duracao: 510540 Nota: C1 Vol.: 40
Chanel 2 Note Off - Duracao: 510780 Nota: C1 Vol.: 70
Chanel 2 Note On - Duracao: 510780 Nota: C1 Vol.: 67
Chanel 3 Note Off - Duracao: 510840 Nota: C1 Vol.: 68
Chanel 3 Note On - Duracao: 510840 Nota: C1 Vol.: 61
Chanel 2 Note Off - Duracao: 511260 Nota: C1 Vol.: 67
Chanel 2 Note On - Duracao: 511260 Nota: C1 Vol.: 80
Chanel 2 Note Off - Duracao: 511500 Nota: C1 Vol.: 80
Chanel 2 Note On - Duracao: 511500 Nota: C1 Vol.: 86
Chanel 2 Note Off - Duracao: 511620 Nota: C1 Vol.: 86
Chanel 3 Note Off - Duracao: 511800 Nota: C1 Vol.: 61
Chanel 3 Note On - Duracao: 511800 Nota: C1 Vol.: 75
Chanel 3 Note Off - Duracao: 512040 Nota: C1 Vol.: 75
Chanel 3 Note On - Duracao: 512040 Nota: C1 Vol.: 52
Chanel 6 Note Off - Duracao: 512040 Nota: C1 Vol.: 67
Chanel 6 Note On - Duracao: 512040 Nota: C1 Vol.: 65
Chanel 8 Note Off - Duracao: 512460 Nota: C1 Vol.: 40
Chanel 8 Note On - Duracao: 512460 Nota: C1 Vol.: 62
Chanel 8 Note Off - Duracao: 512700 Nota: C1 Vol.: 62
Chanel 8 Note On - Duracao: 512700 Nota: C1 Vol.: 67
Chanel 7 Note Off - Duracao: 512820 Nota: C1 Vol.: 63
Chanel 7 Note On - Duracao: 512820 Nota: C1 Vol.: 65
Chanel 8 Note Off - Duracao: 512940 Nota: C1 Vol.: 67
Chanel 8 Note On - Duracao: 512940 Nota: C1 Vol.: 58
Chanel 3 Note Off - Duracao: 513000 Nota: C1 Vol.: 52
Chanel 3 Note On - Duracao: 513000 Nota: C1 Vol.: 75
Chanel 4 Note Off - Duracao: 513000 Nota: C1 Vol.: 41
Chanel 4 Note On - Duracao: 513000 Nota: C1 Vol.: 56
Chanel 3 Note Off - Duracao: 513240 Nota: C1 Vol.: 75
Chanel 3 Note On - Duracao: 513240 Nota: C1 Vol.: 79
Chanel 3 Note Off - Duracao: 513360 Nota: C1 Vol.: 79
Chanel 3 Note On - Duracao: 513360 Nota: C1 Vol.: 57
Chanel 8 Note Off - Duracao: 513420 Nota: C1 Vol.: 58
Chanel 8 Note On - Duracao: 513420 Nota: C1 Vol.: 47
Chanel 3 Note Off - Duracao: 513840 Nota: C1 Vol.: 57
Chanel 3 Note On - Duracao: 513840 Nota: C1 Vol.: 62
Chanel 4 Note Off - Duracao: 513960 Nota: C1 Vol.: 56
Chanel 4 Note On - Duracao: 513960 Nota: C1 Vol.: 86
Chanel 4 Note Off - Duracao: 514080 Nota: C1 Vol.: 86
Chanel 4 Note On - Duracao: 514080 Nota: C1 Vol.: 99
Chanel 4 Note Off - Duracao: 514140 Nota: C1 Vol.: 99
Chanel 4 Note On - Duracao: 514140 Nota: C1 Vol.: 99
Chanel 4 Note Off - Duracao: 514200 Nota: C1 Vol.: 99
Chanel 4 Note On - Duracao: 514200 Nota: C1 Vol.: 100
Chanel 4 Note Off - Duracao: 514260 Nota: C1 Vol.: 100
Chanel 4 Note On - Duracao: 514260 Nota: C1 Vol.: 97
Chanel 3 Note Off - Duracao: 514320 Nota: C1 Vol.: 62
Chanel 3 Note On - Duracao: 514320 Nota: C1 Vol.: 72
Chanel 4 Note Off - Duracao: 514320 Nota: C1 Vol.: 97
Chanel 4 Note On - Duracao: 514320 Nota: C1 Vol.: 96
Chanel 4 Note Off - Duracao: 514380 Nota: C1 Vol.: 96
Chanel 4 Note On - Duracao: 514380 Nota: C1 Vol.: 98
Chanel 8 Note Off - Duracao: 514380 Nota: C1 Vol.: 47
Chanel 8 Note On - Duracao: 514380 Nota: C1 Vol.: 47
Chanel 4 Note Off - Duracao: 514440 Nota: C1 Vol.: 98
Chanel 4 Note On - Duracao: 514440 Nota: C1 Vol.: 94
Chanel 4 Note Off - Duracao: 514500 Nota: C1 Vol.: 94
Chanel 4 Note On - Duracao: 514500 Nota: C1 Vol.: 73
Chanel 3 Note Off - Duracao: 514560 Nota: C1 Vol.: 72
Chanel 3 Note On - Duracao: 514560 Nota: C1 Vol.: 79
Chanel 3 Note Off - Duracao: 514680 Nota: C1 Vol.: 79
Chanel 3 Note On - Duracao: 514680 Nota: C1 Vol.: 74
Chanel 4 Note Off - Duracao: 514740 Nota: C1 Vol.: 73
Chanel 4 Note On - Duracao: 514740 Nota: C1 Vol.: 67
Chanel 3 Note Off - Duracao: 514920 Nota: C1 Vol.: 74
Chanel 3 Note On - Duracao: 514920 Nota: C1 Vol.: 41
Chanel 4 Note Off - Duracao: 515220 Nota: C1 Vol.: 67
Chanel 4 Note On - Duracao: 515220 Nota: C1 Vol.: 71
Chanel 8 Note Off - Duracao: 515340 Nota: C1 Vol.: 47
Chanel 8 Note On - Duracao: 515340 Nota: C1 Vol.: 56
Chanel 4 Note Off - Duracao: 515700 Nota: C1 Vol.: 71
Chanel 4 Note On - Duracao: 515700 Nota: C1 Vol.: 64
Chanel 8 Note Off - Duracao: 515820 Nota: C1 Vol.: 56
Chanel 8 Note On - Duracao: 515820 Nota: C1 Vol.: 55
Chanel 6 Note Off - Duracao: 515880 Nota: C1 Vol.: 65
Chanel 6 Note On - Duracao: 515880 Nota: C1 Vol.: 61
Chanel 4 Note Off - Duracao: 516180 Nota: C1 Vol.: 64
Chanel 4 Note On - Duracao: 516180 Nota: C1 Vol.: 75
Chanel 4 Note Off - Duracao: 516420 Nota: C1 Vol.: 75
Chanel 4 Note On - Duracao: 516420 Nota: C1 Vol.: 92
Chanel 4 Note Off - Duracao: 516540 Nota: C1 Vol.: 92
Chanel 4 Note On - Duracao: 516540 Nota: C1 Vol.: 96
Chanel 4 Note Off - Duracao: 516600 Nota: C1 Vol.: 96
Chanel 4 Note On - Duracao: 516600 Nota: C1 Vol.: 94
Chanel 4 Note Off - Duracao: 516660 Nota: C1 Vol.: 94
Chanel 4 Note On - Duracao: 516660 Nota: C1 Vol.: 79
Chanel 7 Note Off - Duracao: 516660 Nota: C1 Vol.: 65
Chanel 7 Note On - Duracao: 516660 Nota: C1 Vol.: 68
Chanel 8 Note Off - Duracao: 516780 Nota: C1 Vol.: 55
Chanel 8 Note On - Duracao: 516780 Nota: C1 Vol.: 75
Chanel 3 Note Off - Duracao: 516840 Nota: C1 Vol.: 41
Chanel 3 Note On - Duracao: 516840 Nota: C1 Vol.: 40
Chanel 4 Note Off - Duracao: 516900 Nota: C1 Vol.: 79
Chanel 4 Note On - Duracao: 516900 Nota: C1 Vol.: 90
Chanel 4 Note Off - Duracao: 517020 Nota: C1 Vol.: 90
Chanel 4 Note On - Duracao: 517020 Nota: C1 Vol.: 95
Chanel 8 Note Off - Duracao: 517020 Nota: C1 Vol.: 75
Chanel 8 Note On - Duracao: 517020 Nota: C1 Vol.: 74
Chanel 4 Note Off - Duracao: 517080 Nota: C1 Vol.: 95
Chanel 4 Note On - Duracao: 517080 Nota: C1 Vol.: 93
Chanel 4 Note Off - Duracao: 517200 Nota: C1 Vol.: 93
Chanel 4 Note On - Duracao: 517200 Nota: C1 Vol.: 92
Chanel 8 Note Off - Duracao: 517260 Nota: C1 Vol.: 74
Chanel 8 Note On - Duracao: 517260 Nota: C1 Vol.: 72
Chanel 4 Note Off - Duracao: 517320 Nota: C1 Vol.: 92
Chanel 4 Note On - Duracao: 517320 Nota: C1 Vol.: 71
Chanel 8 Note Off - Duracao: 517500 Nota: C1 Vol.: 72
Chanel 8 Note On - Duracao: 517500 Nota: C1 Vol.: 70
Chanel 4 Note Off - Duracao: 517560 Nota: C1 Vol.: 71
Chanel 4 Note On - Duracao: 517560 Nota: C1 Vol.: 66
Chanel 8 Note Off - Duracao: 517740 Nota: C1 Vol.: 70
Chanel 8 Note On - Duracao: 517740 Nota: C1 Vol.: 72
Chanel 4 Note Off - Duracao: 517800 Nota: C1 Vol.: 66
Chanel 4 Note On - Duracao: 517800 Nota: C1 Vol.: 62
Chanel 8 Note Off - Duracao: 517980 Nota: C1 Vol.: 72
Chanel 8 Note On - Duracao: 517980 Nota: C1 Vol.: 72
Chanel 8 Note Off - Duracao: 518220 Nota: C1 Vol.: 72
Chanel 8 Note On - Duracao: 518220 Nota: C1 Vol.: 76
Chanel 4 Note Off - Duracao: 518280 Nota: C1 Vol.: 62
Chanel 4 Note On - Duracao: 518280 Nota: C1 Vol.: 62
Chanel 8 Note Off - Duracao: 518460 Nota: C1 Vol.: 76
Chanel 8 Note On - Duracao: 518460 Nota: C1 Vol.: 77
Chanel 8 Note Off - Duracao: 518700 Nota: C1 Vol.: 77
Chanel 8 Note On - Duracao: 518700 Nota: C1 Vol.: 82
Chanel 4 Note Off - Duracao: 518760 Nota: C1 Vol.: 62
Chanel 4 Note On - Duracao: 518760 Nota: C1 Vol.: 48
Chanel 8 Note Off - Duracao: 518940 Nota: C1 Vol.: 82
Chanel 8 Note On - Duracao: 518940 Nota: C1 Vol.: 79
Chanel 8 Note Off - Duracao: 519180 Nota: C1 Vol.: 79
Chanel 8 Note On - Duracao: 519180 Nota: C1 Vol.: 85
Chanel 8 Note Off - Duracao: 519300 Nota: C1 Vol.: 85
Chanel 8 Note On - Duracao: 519300 Nota: C1 Vol.: 85
Chanel 8 Note Off - Duracao: 519420 Nota: C1 Vol.: 85
Chanel 8 Note On - Duracao: 519420 Nota: C1 Vol.: 94
Chanel 8 Note Off - Duracao: 519480 Nota: C1 Vol.: 94
Chanel 8 Note On - Duracao: 519480 Nota: C1 Vol.: 84
Chanel 8 Note Off - Duracao: 519600 Nota: C1 Vol.: 84
Chanel 8 Note On - Duracao: 519600 Nota: C1 Vol.: 84
Chanel 4 Note Off - Duracao: 519720 Nota: C1 Vol.: 48
Chanel 4 Note On - Duracao: 519720 Nota: C1 Vol.: 58
Chanel 6 Note Off - Duracao: 519720 Nota: C1 Vol.: 61
Chanel 6 Note On - Duracao: 519720 Nota: C1 Vol.: 59
Chanel 8 Note Off - Duracao: 519720 Nota: C1 Vol.: 84
Chanel 8 Note On - Duracao: 519720 Nota: C1 Vol.: 71
Chanel 4 Note Off - Duracao: 520200 Nota: C1 Vol.: 58
Chanel 4 Note On - Duracao: 520200 Nota: C1 Vol.: 46
Chanel 8 Note Off - Duracao: 520200 Nota: C1 Vol.: 71
Chanel 8 Note On - Duracao: 520200 Nota: C1 Vol.: 67
Chanel 7 Note Off - Duracao: 520500 Nota: C1 Vol.: 68
Chanel 7 Note On - Duracao: 520500 Nota: C1 Vol.: 70
Chanel 3 Note Off - Duracao: 520680 Nota: C1 Vol.: 40
Chanel 3 Note On - Duracao: 520680 Nota: C1 Vol.: 41
Chanel 4 Note Off - Duracao: 521160 Nota: C1 Vol.: 46
Chanel 4 Note On - Duracao: 521160 Nota: C1 Vol.: 44
Chanel 8 Note Off - Duracao: 521160 Nota: C1 Vol.: 67
Chanel 8 Note On - Duracao: 521160 Nota: C1 Vol.: 74
Chanel 8 Note Off - Duracao: 522120 Nota: C1 Vol.: 74
Chanel 8 Note On - Duracao: 522120 Nota: C1 Vol.: 79
Chanel 7 Note Off - Duracao: 522420 Nota: C1 Vol.: 70
Chanel 7 Note On - Duracao: 522420 Nota: C1 Vol.: 71
Chanel 3 Note Off - Duracao: 522600 Nota: C1 Vol.: 41
Chanel 3 Note On - Duracao: 522600 Nota: C1 Vol.: 40
Chanel 8 Note Off - Duracao: 522600 Nota: C1 Vol.: 79
Chanel 8 Note On - Duracao: 522600 Nota: C1 Vol.: 78
Chanel 4 Note Off - Duracao: 523080 Nota: C1 Vol.: 44
Chanel 4 Note On - Duracao: 523080 Nota: C1 Vol.: 41
Chanel 6 Note Off - Duracao: 523560 Nota: C1 Vol.: 59
Chanel 6 Note On - Duracao: 523560 Nota: C1 Vol.: 60
Chanel 8 Note Off - Duracao: 523560 Nota: C1 Vol.: 78
Chanel 8 Note On - Duracao: 523560 Nota: C1 Vol.: 71
Chanel 7 Note Off - Duracao: 524340 Nota: C1 Vol.: 71
Chanel 7 Note On - Duracao: 524340 Nota: C1 Vol.: 71
Chanel 3 Note Off - Duracao: 524520 Nota: C1 Vol.: 40
Chanel 3 Note On - Duracao: 524520 Nota: C1 Vol.: 45
Chanel 8 Note Off - Duracao: 524520 Nota: C1 Vol.: 71
Chanel 8 Note On - Duracao: 524520 Nota: C1 Vol.: 67
Chanel 4 Note Off - Duracao: 525000 Nota: C1 Vol.: 41
Chanel 4 Note On - Duracao: 525000 Nota: C1 Vol.: 45
Chanel 3 Note Off - Duracao: 525480 Nota: C1 Vol.: 45
Chanel 3 Note On - Duracao: 525480 Nota: C1 Vol.: 51
Chanel 8 Note Off - Duracao: 525480 Nota: C1 Vol.: 67
Chanel 8 Note On - Duracao: 525480 Nota: C1 Vol.: 70
Chanel 4 Note Off - Duracao: 525960 Nota: C1 Vol.: 45
Chanel 4 Note On - Duracao: 525960 Nota: C1 Vol.: 47
Chanel 8 Note Off - Duracao: 525960 Nota: C1 Vol.: 70
Chanel 8 Note On - Duracao: 525960 Nota: C1 Vol.: 77
Chanel 8 Note Off - Duracao: 526200 Nota: C1 Vol.: 77
Chanel 8 Note On - Duracao: 526200 Nota: C1 Vol.: 79
Chanel 7 Note Off - Duracao: 526260 Nota: C1 Vol.: 71
Chanel 7 Note On - Duracao: 526260 Nota: C1 Vol.: 71
Chanel 3 Note Off - Duracao: 526440 Nota: C1 Vol.: 51
Chanel 3 Note On - Duracao: 526440 Nota: C1 Vol.: 48
Chanel 8 Note Off - Duracao: 526440 Nota: C1 Vol.: 79
Chanel 8 Note On - Duracao: 526440 Nota: C1 Vol.: 71
Chanel 4 Note Off - Duracao: 526920 Nota: C1 Vol.: 47
Chanel 4 Note On - Duracao: 526920 Nota: C1 Vol.: 63
Chanel 8 Note Off - Duracao: 526920 Nota: C1 Vol.: 71
Chanel 8 Note On - Duracao: 526920 Nota: C1 Vol.: 77
Chanel 3 Note Off - Duracao: 527400 Nota: C1 Vol.: 48
Chanel 3 Note On - Duracao: 527400 Nota: C1 Vol.: 67
Chanel 4 Note Off - Duracao: 527400 Nota: C1 Vol.: 63
Chanel 4 Note On - Duracao: 527400 Nota: C1 Vol.: 71
Chanel 6 Note Off - Duracao: 527400 Nota: C1 Vol.: 60
Chanel 6 Note On - Duracao: 527400 Nota: C1 Vol.: 61
Chanel 8 Note Off - Duracao: 527400 Nota: C1 Vol.: 77
Chanel 8 Note On - Duracao: 527400 Nota: C1 Vol.: 78
Chanel 4 Note Off - Duracao: 527640 Nota: C1 Vol.: 71
Chanel 4 Note On - Duracao: 527640 Nota: C1 Vol.: 63
Chanel 3 Note Off - Duracao: 527880 Nota: C1 Vol.: 67
Chanel 3 Note On - Duracao: 527880 Nota: C1 Vol.: 53
Chanel 4 Note Off - Duracao: 528120 Nota: C1 Vol.: 63
Chanel 4 Note On - Duracao: 528120 Nota: C1 Vol.: 61
Chanel 7 Note Off - Duracao: 528180 Nota: C1 Vol.: 71
Chanel 7 Note On - Duracao: 528180 Nota: C1 Vol.: 73
Chanel 8 Note Off - Duracao: 528360 Nota: C1 Vol.: 78
Chanel 8 Note On - Duracao: 528360 Nota: C1 Vol.: 83
Chanel 4 Note Off - Duracao: 528600 Nota: C1 Vol.: 61
Chanel 4 Note On - Duracao: 528600 Nota: C1 Vol.: 66
Chanel 3 Note Off - Duracao: 528840 Nota: C1 Vol.: 53
Chanel 3 Note On - Duracao: 528840 Nota: C1 Vol.: 60
Chanel 4 Note Off - Duracao: 528840 Nota: C1 Vol.: 66
Chanel 4 Note On - Duracao: 528840 Nota: C1 Vol.: 65
Chanel 8 Note Off - Duracao: 528840 Nota: C1 Vol.: 83
Chanel 8 Note On - Duracao: 528840 Nota: C1 Vol.: 78
Chanel 4 Note Off - Duracao: 529080 Nota: C1 Vol.: 65
Chanel 4 Note On - Duracao: 529080 Nota: C1 Vol.: 48
Chanel 3 Note Off - Duracao: 529320 Nota: C1 Vol.: 60
Chanel 3 Note On - Duracao: 529320 Nota: C1 Vol.: 85
Chanel 3 Note Off - Duracao: 529440 Nota: C1 Vol.: 85
Chanel 3 Note On - Duracao: 529440 Nota: C1 Vol.: 87
Chanel 3 Note Off - Duracao: 529560 Nota: C1 Vol.: 87
Chanel 3 Note On - Duracao: 529560 Nota: C1 Vol.: 95
Chanel 3 Note Off - Duracao: 529620 Nota: C1 Vol.: 95
Chanel 3 Note On - Duracao: 529620 Nota: C1 Vol.: 99
Chanel 3 Note Off - Duracao: 529680 Nota: C1 Vol.: 99
Chanel 3 Note On - Duracao: 529680 Nota: C1 Vol.: 99
Chanel 3 Note Off - Duracao: 529740 Nota: C1 Vol.: 99
Chanel 3 Note On - Duracao: 529740 Nota: C1 Vol.: 99
Chanel 3 Note Off - Duracao: 529800 Nota: C1 Vol.: 99
Chanel 3 Note On - Duracao: 529800 Nota: C1 Vol.: 98
Chanel 8 Note Off - Duracao: 529800 Nota: C1 Vol.: 78
Chanel 8 Note On - Duracao: 529800 Nota: C1 Vol.: 74
Chanel 3 Note Off - Duracao: 529860 Nota: C1 Vol.: 98
Chanel 3 Note On - Duracao: 529860 Nota: C1 Vol.: 98
Chanel 3 Note Off - Duracao: 529920 Nota: C1 Vol.: 98
Chanel 3 Note On - Duracao: 529920 Nota: C1 Vol.: 98
Chanel 3 Note Off - Duracao: 529980 Nota: C1 Vol.: 98
Chanel 3 Note On - Duracao: 529980 Nota: C1 Vol.: 88
Chanel 4 Note Off - Duracao: 530040 Nota: C1 Vol.: 48
Chanel 4 Note On - Duracao: 530040 Nota: C1 Vol.: 40
Chanel 3 Note Off - Duracao: 530100 Nota: C1 Vol.: 88
Chanel 3 Note On - Duracao: 530100 Nota: C1 Vol.: 43
Chanel 7 Note Off - Duracao: 530100 Nota: C1 Vol.: 73
Chanel 7 Note On - Duracao: 530100 Nota: C1 Vol.: 72
Chanel 8 Note Off - Duracao: 530280 Nota: C1 Vol.: 74
Chanel 8 Note On - Duracao: 530280 Nota: C1 Vol.: 62
Chanel 6 Note Off - Duracao: 531240 Nota: C1 Vol.: 61
Chanel 6 Note On - Duracao: 531240 Nota: C1 Vol.: 63
Chanel 8 Note Off - Duracao: 531240 Nota: C1 Vol.: 62
Chanel 8 Note On - Duracao: 531240 Nota: C1 Vol.: 56
Chanel 8 Note Off - Duracao: 531480 Nota: C1 Vol.: 56
Chanel 8 Note On - Duracao: 531480 Nota: C1 Vol.: 58
Chanel 8 Note Off - Duracao: 531720 Nota: C1 Vol.: 58
Chanel 8 Note On - Duracao: 531720 Nota: C1 Vol.: 57
Chanel 4 Note Off - Duracao: 531960 Nota: C1 Vol.: 40
Chanel 4 Note On - Duracao: 531960 Nota: C1 Vol.: 61
Chanel 8 Note Off - Duracao: 531960 Nota: C1 Vol.: 57
Chanel 8 Note On - Duracao: 531960 Nota: C1 Vol.: 50
Chanel 7 Note Off - Duracao: 532020 Nota: C1 Vol.: 72
Chanel 7 Note On - Duracao: 532020 Nota: C1 Vol.: 73
Chanel 4 Note Off - Duracao: 532200 Nota: C1 Vol.: 61
Chanel 4 Note On - Duracao: 532200 Nota: C1 Vol.: 59
Chanel 8 Note Off - Duracao: 532200 Nota: C1 Vol.: 50
Chanel 8 Note On - Duracao: 532200 Nota: C1 Vol.: 41
Chanel 4 Note Off - Duracao: 532440 Nota: C1 Vol.: 59
Chanel 4 Note On - Duracao: 532440 Nota: C1 Vol.: 57
Chanel 4 Note Off - Duracao: 532680 Nota: C1 Vol.: 57
Chanel 4 Note On - Duracao: 532680 Nota: C1 Vol.: 58
Chanel 8 Note Off - Duracao: 532680 Nota: C1 Vol.: 41
Chanel 8 Note On - Duracao: 532680 Nota: C1 Vol.: 44
Chanel 4 Note Off - Duracao: 532920 Nota: C1 Vol.: 58
Chanel 4 Note On - Duracao: 532920 Nota: C1 Vol.: 59
Chanel 8 Note Off - Duracao: 533160 Nota: C1 Vol.: 44
Chanel 8 Note On - Duracao: 533160 Nota: C1 Vol.: 44
Chanel 4 Note Off - Duracao: 533400 Nota: C1 Vol.: 59
Chanel 4 Note On - Duracao: 533400 Nota: C1 Vol.: 61
Chanel 4 Note Off - Duracao: 533640 Nota: C1 Vol.: 61
Chanel 4 Note On - Duracao: 533640 Nota: C1 Vol.: 54
Chanel 8 Note Off - Duracao: 533640 Nota: C1 Vol.: 44
Chanel 8 Note On - Duracao: 533640 Nota: C1 Vol.: 46
Chanel 3 Note Off - Duracao: 533940 Nota: C1 Vol.: 43
Chanel 3 Note On - Duracao: 533940 Nota: C1 Vol.: 100
Chanel 7 Note Off - Duracao: 533940 Nota: C1 Vol.: 73
Chanel 7 Note On - Duracao: 533940 Nota: C1 Vol.: 72
Chanel 3 Note Off - Duracao: 534000 Nota: C1 Vol.: 100
Chanel 3 Note On - Duracao: 534000 Nota: C1 Vol.: 100
Chanel 3 Note Off - Duracao: 534060 Nota: C1 Vol.: 100
Chanel 3 Note On - Duracao: 534060 Nota: C1 Vol.: 100
Chanel 3 Note Off - Duracao: 534120 Nota: C1 Vol.: 100
Chanel 3 Note On - Duracao: 534120 Nota: C1 Vol.: 100
Chanel 4 Note Off - Duracao: 534120 Nota: C1 Vol.: 54
Chanel 4 Note On - Duracao: 534120 Nota: C1 Vol.: 54
Chanel 8 Note Off - Duracao: 534120 Nota: C1 Vol.: 46
Chanel 8 Note On - Duracao: 534120 Nota: C1 Vol.: 43
Chanel 3 Note Off - Duracao: 534180 Nota: C1 Vol.: 100
Chanel 3 Note On - Duracao: 534180 Nota: C1 Vol.: 99
Chanel 3 Note Off - Duracao: 534240 Nota: C1 Vol.: 99
Chanel 3 Note On - Duracao: 534240 Nota: C1 Vol.: 94
Chanel 3 Note Off - Duracao: 534360 Nota: C1 Vol.: 94
Chanel 3 Note On - Duracao: 534360 Nota: C1 Vol.: 87
Chanel 3 Note Off - Duracao: 534480 Nota: C1 Vol.: 87
Chanel 3 Note On - Duracao: 534480 Nota: C1 Vol.: 91
Chanel 3 Note Off - Duracao: 534600 Nota: C1 Vol.: 91
Chanel 3 Note On - Duracao: 534600 Nota: C1 Vol.: 93
Chanel 4 Note Off - Duracao: 534600 Nota: C1 Vol.: 54
Chanel 4 Note On - Duracao: 534600 Nota: C1 Vol.: 40
Chanel 3 Note Off - Duracao: 534720 Nota: C1 Vol.: 93
Chanel 3 Note On - Duracao: 534720 Nota: C1 Vol.: 80
Chanel 3 Note Off - Duracao: 534960 Nota: C1 Vol.: 80
Chanel 3 Note On - Duracao: 534960 Nota: C1 Vol.: 83
Chanel 6 Note Off - Duracao: 535080 Nota: C1 Vol.: 63
Chanel 6 Note On - Duracao: 535080 Nota: C1 Vol.: 63
Chanel 8 Note Off - Duracao: 535080 Nota: C1 Vol.: 43
Chanel 8 Note On - Duracao: 535080 Nota: C1 Vol.: 63
Chanel 3 Note Off - Duracao: 535200 Nota: C1 Vol.: 83
Chanel 3 Note On - Duracao: 535200 Nota: C1 Vol.: 85
Chanel 8 Note Off - Duracao: 535320 Nota: C1 Vol.: 63
Chanel 8 Note On - Duracao: 535320 Nota: C1 Vol.: 51
Chanel 3 Note Off - Duracao: 535440 Nota: C1 Vol.: 85
Chanel 3 Note On - Duracao: 535440 Nota: C1 Vol.: 87
Chanel 3 Note Off - Duracao: 535560 Nota: C1 Vol.: 87
Chanel 3 Note On - Duracao: 535560 Nota: C1 Vol.: 89
Chanel 8 Note Off - Duracao: 535560 Nota: C1 Vol.: 51
Chanel 8 Note On - Duracao: 535560 Nota: C1 Vol.: 53
Chanel 3 Note Off - Duracao: 535620 Nota: C1 Vol.: 89
Chanel 3 Note On - Duracao: 535620 Nota: C1 Vol.: 85
Chanel 3 Note Off - Duracao: 535740 Nota: C1 Vol.: 85
Chanel 3 Note On - Duracao: 535740 Nota: C1 Vol.: 70
Chanel 8 Note Off - Duracao: 535800 Nota: C1 Vol.: 53
Chanel 8 Note On - Duracao: 535800 Nota: C1 Vol.: 60
Chanel 7 Note Off - Duracao: 535860 Nota: C1 Vol.: 72
Chanel 7 Note On - Duracao: 535860 Nota: C1 Vol.: 72
Chanel 3 Note Off - Duracao: 535980 Nota: C1 Vol.: 70
Chanel 3 Note On - Duracao: 535980 Nota: C1 Vol.: 65
Chanel 8 Note Off - Duracao: 536040 Nota: C1 Vol.: 60
Chanel 8 Note On - Duracao: 536040 Nota: C1 Vol.: 63
Chanel 3 Note Off - Duracao: 536220 Nota: C1 Vol.: 65
Chanel 3 Note On - Duracao: 536220 Nota: C1 Vol.: 64
Chanel 8 Note Off - Duracao: 536280 Nota: C1 Vol.: 63
Chanel 8 Note On - Duracao: 536280 Nota: C1 Vol.: 64
Chanel 3 Note Off - Duracao: 536460 Nota: C1 Vol.: 64
Chanel 3 Note On - Duracao: 536460 Nota: C1 Vol.: 66
Chanel 4 Note Off - Duracao: 536520 Nota: C1 Vol.: 40
Chanel 4 Note On - Duracao: 536520 Nota: C1 Vol.: 61
Chanel 8 Note Off - Duracao: 536520 Nota: C1 Vol.: 64
Chanel 8 Note On - Duracao: 536520 Nota: C1 Vol.: 62
Chanel 3 Note Off - Duracao: 536700 Nota: C1 Vol.: 66
Chanel 3 Note On - Duracao: 536700 Nota: C1 Vol.: 69
Chanel 4 Note Off - Duracao: 536760 Nota: C1 Vol.: 61
Chanel 4 Note On - Duracao: 536760 Nota: C1 Vol.: 61
Chanel 8 Note Off - Duracao: 536760 Nota: C1 Vol.: 62
Chanel 8 Note On - Duracao: 536760 Nota: C1 Vol.: 58
Chanel 3 Note Off - Duracao: 536940 Nota: C1 Vol.: 69
Chanel 3 Note On - Duracao: 536940 Nota: C1 Vol.: 89
Chanel 3 Note Off - Duracao: 537000 Nota: C1 Vol.: 89
Chanel 3 Note On - Duracao: 537000 Nota: C1 Vol.: 95
Chanel 8 Note Off - Duracao: 537000 Nota: C1 Vol.: 58
Chanel 8 Note On - Duracao: 537000 Nota: C1 Vol.: 58
Chanel 3 Note Off - Duracao: 537060 Nota: C1 Vol.: 95
Chanel 3 Note On - Duracao: 537060 Nota: C1 Vol.: 97
Chanel 3 Note Off - Duracao: 537120 Nota: C1 Vol.: 97
Chanel 3 Note On - Duracao: 537120 Nota: C1 Vol.: 96
Chanel 3 Note Off - Duracao: 537180 Nota: C1 Vol.: 96
Chanel 3 Note On - Duracao: 537180 Nota: C1 Vol.: 74
Chanel 4 Note Off - Duracao: 537240 Nota: C1 Vol.: 61
Chanel 4 Note On - Duracao: 537240 Nota: C1 Vol.: 40
Chanel 8 Note Off - Duracao: 537240 Nota: C1 Vol.: 58
Chanel 8 Note On - Duracao: 537240 Nota: C1 Vol.: 56
Chanel 3 Note Off - Duracao: 537420 Nota: C1 Vol.: 74
Chanel 3 Note On - Duracao: 537420 Nota: C1 Vol.: 54
Chanel 8 Note Off - Duracao: 537480 Nota: C1 Vol.: 56
Chanel 8 Note On - Duracao: 537480 Nota: C1 Vol.: 55
Chanel 8 Note Off - Duracao: 537720 Nota: C1 Vol.: 55
Chanel 8 Note On - Duracao: 537720 Nota: C1 Vol.: 58
Chanel 7 Note Off - Duracao: 537780 Nota: C1 Vol.: 72
Chanel 7 Note On - Duracao: 537780 Nota: C1 Vol.: 71
Chanel 8 Note Off - Duracao: 537960 Nota: C1 Vol.: 58
Chanel 8 Note On - Duracao: 537960 Nota: C1 Vol.: 53
Chanel 8 Note Off - Duracao: 538200 Nota: C1 Vol.: 53
Chanel 8 Note On - Duracao: 538200 Nota: C1 Vol.: 55
Chanel 3 Note Off - Duracao: 538380 Nota: C1 Vol.: 54
Chanel 3 Note On - Duracao: 538380 Nota: C1 Vol.: 55
Chanel 8 Note Off - Duracao: 538440 Nota: C1 Vol.: 55
Chanel 8 Note On - Duracao: 538440 Nota: C1 Vol.: 45
Chanel 6 Note Off - Duracao: 538920 Nota: C1 Vol.: 63
Chanel 6 Note On - Duracao: 538920 Nota: C1 Vol.: 67
Chanel 8 Note Off - Duracao: 538920 Nota: C1 Vol.: 45
Chanel 8 Note On - Duracao: 538920 Nota: C1 Vol.: 54
Chanel 4 Note Off - Duracao: 539160 Nota: C1 Vol.: 40
Chanel 4 Note On - Duracao: 539160 Nota: C1 Vol.: 68
Chanel 8 Note Off - Duracao: 539160 Nota: C1 Vol.: 54
Chanel 8 Note On - Duracao: 539160 Nota: C1 Vol.: 52
Chanel 3 Note Off - Duracao: 539340 Nota: C1 Vol.: 55
Chanel 3 Note On - Duracao: 539340 Nota: C1 Vol.: 57
Chanel 8 Note Off - Duracao: 539400 Nota: C1 Vol.: 52
Chanel 8 Note On - Duracao: 539400 Nota: C1 Vol.: 63
Chanel 8 Note Off - Duracao: 539520 Nota: C1 Vol.: 63
Chanel 8 Note On - Duracao: 539520 Nota: C1 Vol.: 67
Chanel 4 Note Off - Duracao: 539640 Nota: C1 Vol.: 68
Chanel 4 Note On - Duracao: 539640 Nota: C1 Vol.: 85
Chanel 8 Note Off - Duracao: 539640 Nota: C1 Vol.: 67
Chanel 8 Note On - Duracao: 539640 Nota: C1 Vol.: 67
Chanel 7 Note Off - Duracao: 539700 Nota: C1 Vol.: 71
Chanel 7 Note On - Duracao: 539700 Nota: C1 Vol.: 71
Chanel 4 Note Off - Duracao: 539760 Nota: C1 Vol.: 85
Chanel 4 Note On - Duracao: 539760 Nota: C1 Vol.: 85
Chanel 8 Note Off - Duracao: 539760 Nota: C1 Vol.: 67
Chanel 8 Note On - Duracao: 539760 Nota: C1 Vol.: 67
Chanel 4 Note Off - Duracao: 539880 Nota: C1 Vol.: 85
Chanel 4 Note On - Duracao: 539880 Nota: C1 Vol.: 88
Chanel 8 Note Off - Duracao: 539880 Nota: C1 Vol.: 67
Chanel 8 Note On - Duracao: 539880 Nota: C1 Vol.: 58
Chanel 4 Note Off - Duracao: 540000 Nota: C1 Vol.: 88
Chanel 4 Note On - Duracao: 540000 Nota: C1 Vol.: 83
Chanel 8 Note Off - Duracao: 540120 Nota: C1 Vol.: 58
Chanel 8 Note On - Duracao: 540120 Nota: C1 Vol.: 66
Chanel 4 Note Off - Duracao: 540240 Nota: C1 Vol.: 83
Chanel 4 Note On - Duracao: 540240 Nota: C1 Vol.: 67
Chanel 8 Note Off - Duracao: 540240 Nota: C1 Vol.: 66
Chanel 8 Note On - Duracao: 540240 Nota: C1 Vol.: 63
Chanel 3 Note Off - Duracao: 540300 Nota: C1 Vol.: 57
Chanel 3 Note On - Duracao: 540300 Nota: C1 Vol.: 57
Chanel 8 Note Off - Duracao: 540480 Nota: C1 Vol.: 63
Chanel 8 Note On - Duracao: 540480 Nota: C1 Vol.: 68
Chanel 4 Note Off - Duracao: 540720 Nota: C1 Vol.: 67
Chanel 4 Note On - Duracao: 540720 Nota: C1 Vol.: 93
Chanel 8 Note Off - Duracao: 540720 Nota: C1 Vol.: 68
Chanel 8 Note On - Duracao: 540720 Nota: C1 Vol.: 57
Chanel 4 Note Off - Duracao: 540840 Nota: C1 Vol.: 93
Chanel 4 Note On - Duracao: 540840 Nota: C1 Vol.: 91
Chanel 4 Note Off - Duracao: 540960 Nota: C1 Vol.: 91
Chanel 4 Note On - Duracao: 540960 Nota: C1 Vol.: 90
Chanel 4 Note Off - Duracao: 541080 Nota: C1 Vol.: 90
Chanel 4 Note On - Duracao: 541080 Nota: C1 Vol.: 91
Chanel 4 Note Off - Duracao: 541200 Nota: C1 Vol.: 91
Chanel 4 Note On - Duracao: 541200 Nota: C1 Vol.: 87
Chanel 8 Note Off - Duracao: 541200 Nota: C1 Vol.: 57
Chanel 8 Note On - Duracao: 541200 Nota: C1 Vol.: 48
Chanel 3 Note Off - Duracao: 541260 Nota: C1 Vol.: 57
Chanel 3 Note On - Duracao: 541260 Nota: C1 Vol.: 54
Chanel 4 Note Off - Duracao: 541440 Nota: C1 Vol.: 87
Chanel 4 Note On - Duracao: 541440 Nota: C1 Vol.: 93
Chanel 4 Note Off - Duracao: 541560 Nota: C1 Vol.: 93
Chanel 4 Note On - Duracao: 541560 Nota: C1 Vol.: 95
Chanel 4 Note Off - Duracao: 541620 Nota: C1 Vol.: 95
Chanel 4 Note On - Duracao: 541620 Nota: C1 Vol.: 98
Chanel 7 Note Off - Duracao: 541620 Nota: C1 Vol.: 71
Chanel 7 Note On - Duracao: 541620 Nota: C1 Vol.: 69
Chanel 4 Note Off - Duracao: 541680 Nota: C1 Vol.: 98
Chanel 4 Note On - Duracao: 541680 Nota: C1 Vol.: 96
Chanel 4 Note Off - Duracao: 541740 Nota: C1 Vol.: 96
Chanel 4 Note On - Duracao: 541740 Nota: C1 Vol.: 78
Chanel 4 Note Off - Duracao: 541980 Nota: C1 Vol.: 78
Chanel 4 Note On - Duracao: 541980 Nota: C1 Vol.: 57
Chanel 8 Note Off - Duracao: 542160 Nota: C1 Vol.: 48
Chanel 8 Note On - Duracao: 542160 Nota: C1 Vol.: 51
Chanel 3 Note Off - Duracao: 542220 Nota: C1 Vol.: 54
Chanel 3 Note On - Duracao: 542220 Nota: C1 Vol.: 60
Chanel 3 Note Off - Duracao: 542700 Nota: C1 Vol.: 60
Chanel 3 Note On - Duracao: 542700 Nota: C1 Vol.: 61
Chanel 6 Note Off - Duracao: 542760 Nota: C1 Vol.: 67
Chanel 6 Note On - Duracao: 542760 Nota: C1 Vol.: 72
Chanel 3 Note Off - Duracao: 542940 Nota: C1 Vol.: 61
Chanel 3 Note On - Duracao: 542940 Nota: C1 Vol.: 63
Chanel 4 Note Off - Duracao: 542940 Nota: C1 Vol.: 57
Chanel 4 Note On - Duracao: 542940 Nota: C1 Vol.: 87
Chanel 4 Note Off - Duracao: 543060 Nota: C1 Vol.: 87
Chanel 4 Note On - Duracao: 543060 Nota: C1 Vol.: 89
Chanel 8 Note Off - Duracao: 543120 Nota: C1 Vol.: 51
Chanel 8 Note On - Duracao: 543120 Nota: C1 Vol.: 48
Chanel 4 Note Off - Duracao: 543180 Nota: C1 Vol.: 89
Chanel 4 Note On - Duracao: 543180 Nota: C1 Vol.: 95
Chanel 4 Note Off - Duracao: 543240 Nota: C1 Vol.: 95
Chanel 4 Note On - Duracao: 543240 Nota: C1 Vol.: 98
Chanel 4 Note Off - Duracao: 543300 Nota: C1 Vol.: 98
Chanel 4 Note On - Duracao: 543300 Nota: C1 Vol.: 98
Chanel 4 Note Off - Duracao: 543360 Nota: C1 Vol.: 98
Chanel 4 Note On - Duracao: 543360 Nota: C1 Vol.: 89
Chanel 3 Note Off - Duracao: 543420 Nota: C1 Vol.: 63
Chanel 3 Note On - Duracao: 543420 Nota: C1 Vol.: 57
Chanel 4 Note Off - Duracao: 543480 Nota: C1 Vol.: 89
Chanel 4 Note On - Duracao: 543480 Nota: C1 Vol.: 100
Chanel 4 Note Off - Duracao: 543540 Nota: C1 Vol.: 100
Chanel 4 Note On - Duracao: 543540 Nota: C1 Vol.: 98
Chanel 7 Note Off - Duracao: 543540 Nota: C1 Vol.: 69
Chanel 7 Note On - Duracao: 543540 Nota: C1 Vol.: 65
Chanel 4 Note Off - Duracao: 543600 Nota: C1 Vol.: 98
Chanel 4 Note On - Duracao: 543600 Nota: C1 Vol.: 92
Chanel 4 Note Off - Duracao: 543720 Nota: C1 Vol.: 92
Chanel 4 Note On - Duracao: 543720 Nota: C1 Vol.: 54
Chanel 3 Note Off - Duracao: 543900 Nota: C1 Vol.: 57
Chanel 3 Note On - Duracao: 543900 Nota: C1 Vol.: 61
Chanel 3 Note Off - Duracao: 544380 Nota: C1 Vol.: 61
Chanel 3 Note On - Duracao: 544380 Nota: C1 Vol.: 66
Chanel 3 Note Off - Duracao: 544620 Nota: C1 Vol.: 66
Chanel 3 Note On - Duracao: 544620 Nota: C1 Vol.: 67
Chanel 4 Note Off - Duracao: 544680 Nota: C1 Vol.: 54
Chanel 4 Note On - Duracao: 544680 Nota: C1 Vol.: 47
Chanel 6 Note Off - Duracao: 544680 Nota: C1 Vol.: 72
Chanel 6 Note On - Duracao: 544680 Nota: C1 Vol.: 73
Chanel 3 Note Off - Duracao: 544860 Nota: C1 Vol.: 67
Chanel 3 Note On - Duracao: 544860 Nota: C1 Vol.: 63
Chanel 8 Note Off - Duracao: 545040 Nota: C1 Vol.: 48
Chanel 8 Note On - Duracao: 545040 Nota: C1 Vol.: 50
Chanel 3 Note Off - Duracao: 545100 Nota: C1 Vol.: 63
Chanel 3 Note On - Duracao: 545100 Nota: C1 Vol.: 65
Chanel 3 Note Off - Duracao: 545340 Nota: C1 Vol.: 65
Chanel 3 Note On - Duracao: 545340 Nota: C1 Vol.: 66
Chanel 3 Note Off - Duracao: 545580 Nota: C1 Vol.: 66
Chanel 3 Note On - Duracao: 545580 Nota: C1 Vol.: 62
Chanel 3 Note Off - Duracao: 545820 Nota: C1 Vol.: 62
Chanel 3 Note On - Duracao: 545820 Nota: C1 Vol.: 55
Chanel 8 Note Off - Duracao: 546000 Nota: C1 Vol.: 50
Chanel 8 Note On - Duracao: 546000 Nota: C1 Vol.: 53
Chanel 3 Note Off - Duracao: 546300 Nota: C1 Vol.: 55
Chanel 3 Note On - Duracao: 546300 Nota: C1 Vol.: 59
Chanel 4 Note Off - Duracao: 546600 Nota: C1 Vol.: 47
Chanel 4 Note On - Duracao: 546600 Nota: C1 Vol.: 61
Chanel 6 Note Off - Duracao: 546600 Nota: C1 Vol.: 73
Chanel 6 Note On - Duracao: 546600 Nota: C1 Vol.: 71
Chanel 3 Note Off - Duracao: 546780 Nota: C1 Vol.: 59
Chanel 3 Note On - Duracao: 546780 Nota: C1 Vol.: 51
Chanel 8 Note Off - Duracao: 546960 Nota: C1 Vol.: 53
Chanel 8 Note On - Duracao: 546960 Nota: C1 Vol.: 52
Chanel 7 Note Off - Duracao: 547380 Nota: C1 Vol.: 65
Chanel 7 Note On - Duracao: 547380 Nota: C1 Vol.: 60
Chanel 4 Note Off - Duracao: 547560 Nota: C1 Vol.: 61
Chanel 4 Note On - Duracao: 547560 Nota: C1 Vol.: 84
Chanel 4 Note Off - Duracao: 547680 Nota: C1 Vol.: 84
Chanel 4 Note On - Duracao: 547680 Nota: C1 Vol.: 95
Chanel 3 Note Off - Duracao: 547740 Nota: C1 Vol.: 51
Chanel 3 Note On - Duracao: 547740 Nota: C1 Vol.: 52
Chanel 4 Note Off - Duracao: 547740 Nota: C1 Vol.: 95
Chanel 4 Note On - Duracao: 547740 Nota: C1 Vol.: 96
Chanel 4 Note Off - Duracao: 547800 Nota: C1 Vol.: 96
Chanel 4 Note On - Duracao: 547800 Nota: C1 Vol.: 94
Chanel 4 Note Off - Duracao: 547860 Nota: C1 Vol.: 94
Chanel 4 Note On - Duracao: 547860 Nota: C1 Vol.: 62
Chanel 8 Note Off - Duracao: 547920 Nota: C1 Vol.: 52
Chanel 8 Note On - Duracao: 547920 Nota: C1 Vol.: 55
Chanel 6 Note Off - Duracao: 548520 Nota: C1 Vol.: 71
Chanel 6 Note On - Duracao: 548520 Nota: C1 Vol.: 70
Chanel 3 Note Off - Duracao: 548700 Nota: C1 Vol.: 52
Chanel 3 Note On - Duracao: 548700 Nota: C1 Vol.: 40
Chanel 4 Note Off - Duracao: 548820 Nota: C1 Vol.: 62
Chanel 4 Note On - Duracao: 548820 Nota: C1 Vol.: 46
Chanel 8 Note Off - Duracao: 548880 Nota: C1 Vol.: 55
Chanel 8 Note On - Duracao: 548880 Nota: C1 Vol.: 65
Chanel 8 Note Off - Duracao: 549360 Nota: C1 Vol.: 65
Chanel 8 Note On - Duracao: 549360 Nota: C1 Vol.: 68
Chanel 8 Note Off - Duracao: 549840 Nota: C1 Vol.: 68
Chanel 8 Note On - Duracao: 549840 Nota: C1 Vol.: 62
Chanel 6 Note Off - Duracao: 550440 Nota: C1 Vol.: 70
Chanel 6 Note On - Duracao: 550440 Nota: C1 Vol.: 71
Chanel 3 Note Off - Duracao: 550620 Nota: C1 Vol.: 40
Chanel 3 Note On - Duracao: 550620 Nota: C1 Vol.: 59
Chanel 4 Note Off - Duracao: 550740 Nota: C1 Vol.: 46
Chanel 4 Note On - Duracao: 550740 Nota: C1 Vol.: 44
Chanel 8 Note Off - Duracao: 550800 Nota: C1 Vol.: 62
Chanel 8 Note On - Duracao: 550800 Nota: C1 Vol.: 60
Chanel 3 Note Off - Duracao: 551100 Nota: C1 Vol.: 59
Chanel 3 Note On - Duracao: 551100 Nota: C1 Vol.: 59
Chanel 7 Note Off - Duracao: 551220 Nota: C1 Vol.: 60
Chanel 7 Note On - Duracao: 551220 Nota: C1 Vol.: 60
Chanel 3 Note Off - Duracao: 551580 Nota: C1 Vol.: 59
Chanel 3 Note On - Duracao: 551580 Nota: C1 Vol.: 49
Chanel 8 Note Off - Duracao: 551760 Nota: C1 Vol.: 60
Chanel 8 Note On - Duracao: 551760 Nota: C1 Vol.: 52
Chanel 6 Note Off - Duracao: 552360 Nota: C1 Vol.: 71
Chanel 6 Note On - Duracao: 552360 Nota: C1 Vol.: 71
Chanel 3 Note Off - Duracao: 552540 Nota: C1 Vol.: 49
Chanel 3 Note On - Duracao: 552540 Nota: C1 Vol.: 64
Chanel 4 Note Off - Duracao: 552660 Nota: C1 Vol.: 44
Chanel 4 Note On - Duracao: 552660 Nota: C1 Vol.: 87
Chanel 3 Note Off - Duracao: 552780 Nota: C1 Vol.: 64
Chanel 3 Note On - Duracao: 552780 Nota: C1 Vol.: 59
Chanel 4 Note Off - Duracao: 552780 Nota: C1 Vol.: 87
Chanel 4 Note On - Duracao: 552780 Nota: C1 Vol.: 86
Chanel 4 Note Off - Duracao: 552900 Nota: C1 Vol.: 86
Chanel 4 Note On - Duracao: 552900 Nota: C1 Vol.: 96
Chanel 4 Note Off - Duracao: 552960 Nota: C1 Vol.: 96
Chanel 4 Note On - Duracao: 552960 Nota: C1 Vol.: 99
Chanel 4 Note Off - Duracao: 553020 Nota: C1 Vol.: 99
Chanel 4 Note On - Duracao: 553020 Nota: C1 Vol.: 100
Chanel 4 Note Off - Duracao: 553080 Nota: C1 Vol.: 100
Chanel 4 Note On - Duracao: 553080 Nota: C1 Vol.: 99
Chanel 4 Note Off - Duracao: 553140 Nota: C1 Vol.: 99
Chanel 4 Note On - Duracao: 553140 Nota: C1 Vol.: 98
Chanel 4 Note Off - Duracao: 553200 Nota: C1 Vol.: 98
Chanel 4 Note On - Duracao: 553200 Nota: C1 Vol.: 97
Chanel 3 Note Off - Duracao: 553260 Nota: C1 Vol.: 59
Chanel 3 Note On - Duracao: 553260 Nota: C1 Vol.: 40
Chanel 4 Note Off - Duracao: 553260 Nota: C1 Vol.: 97
Chanel 4 Note On - Duracao: 553260 Nota: C1 Vol.: 90
Chanel 4 Note Off - Duracao: 553380 Nota: C1 Vol.: 90
Chanel 4 Note On - Duracao: 553380 Nota: C1 Vol.: 44
Chanel 8 Note Off - Duracao: 553680 Nota: C1 Vol.: 52
Chanel 8 Note On - Duracao: 553680 Nota: C1 Vol.: 50
Chanel 6 Note Off - Duracao: 554280 Nota: C1 Vol.: 71
Chanel 6 Note On - Duracao: 554280 Nota: C1 Vol.: 69
Chanel 7 Note Off - Duracao: 555060 Nota: C1 Vol.: 60
Chanel 7 Note On - Duracao: 555060 Nota: C1 Vol.: 58
Chanel 3 Note Off - Duracao: 555180 Nota: C1 Vol.: 40
Chanel 3 Note On - Duracao: 555180 Nota: C1 Vol.: 41
Chanel 4 Note Off - Duracao: 555300 Nota: C1 Vol.: 44
Chanel 4 Note On - Duracao: 555300 Nota: C1 Vol.: 45
Chanel 8 Note Off - Duracao: 555600 Nota: C1 Vol.: 50
Chanel 8 Note On - Duracao: 555600 Nota: C1 Vol.: 46
Chanel 6 Note Off - Duracao: 556200 Nota: C1 Vol.: 69
Chanel 6 Note On - Duracao: 556200 Nota: C1 Vol.: 70
Chanel 3 Note Off - Duracao: 557100 Nota: C1 Vol.: 41
Chanel 3 Note On - Duracao: 557100 Nota: C1 Vol.: 42
Chanel 4 Note Off - Duracao: 557220 Nota: C1 Vol.: 45
Chanel 4 Note On - Duracao: 557220 Nota: C1 Vol.: 81
Chanel 4 Note Off - Duracao: 557460 Nota: C1 Vol.: 81
Chanel 4 Note On - Duracao: 557460 Nota: C1 Vol.: 86
Chanel 8 Note Off - Duracao: 557520 Nota: C1 Vol.: 46
Chanel 8 Note On - Duracao: 557520 Nota: C1 Vol.: 46
Chanel 4 Note Off - Duracao: 557580 Nota: C1 Vol.: 86
Chanel 4 Note On - Duracao: 557580 Nota: C1 Vol.: 100
Chanel 4 Note Off - Duracao: 557640 Nota: C1 Vol.: 100
Chanel 4 Note On - Duracao: 557640 Nota: C1 Vol.: 100
Chanel 4 Note Off - Duracao: 557700 Nota: C1 Vol.: 100
Chanel 4 Note On - Duracao: 557700 Nota: C1 Vol.: 97
Chanel 4 Note Off - Duracao: 557760 Nota: C1 Vol.: 97
Chanel 4 Note On - Duracao: 557760 Nota: C1 Vol.: 95
Chanel 4 Note Off - Duracao: 557820 Nota: C1 Vol.: 95
Chanel 4 Note On - Duracao: 557820 Nota: C1 Vol.: 99
Chanel 4 Note Off - Duracao: 557880 Nota: C1 Vol.: 99
Chanel 4 Note On - Duracao: 557880 Nota: C1 Vol.: 91
Chanel 4 Note Off - Duracao: 558000 Nota: C1 Vol.: 91
Chanel 4 Note On - Duracao: 558000 Nota: C1 Vol.: 68
Chanel 6 Note Off - Duracao: 558120 Nota: C1 Vol.: 70
Chanel 6 Note On - Duracao: 558120 Nota: C1 Vol.: 67
Chanel 4 Note Off - Duracao: 558480 Nota: C1 Vol.: 68
Chanel 4 Note On - Duracao: 558480 Nota: C1 Vol.: 67
Chanel 7 Note Off - Duracao: 558900 Nota: C1 Vol.: 58
Chanel 7 Note On - Duracao: 558900 Nota: C1 Vol.: 57
Chanel 4 Note Off - Duracao: 558960 Nota: C1 Vol.: 67
Chanel 4 Note On - Duracao: 558960 Nota: C1 Vol.: 67
Chanel 4 Note Off - Duracao: 559440 Nota: C1 Vol.: 67
Chanel 4 Note On - Duracao: 559440 Nota: C1 Vol.: 79
Chanel 8 Note Off - Duracao: 559440 Nota: C1 Vol.: 46
Chanel 8 Note On - Duracao: 559440 Nota: C1 Vol.: 44
Chanel 4 Note Off - Duracao: 559680 Nota: C1 Vol.: 79
Chanel 4 Note On - Duracao: 559680 Nota: C1 Vol.: 97
Chanel 4 Note Off - Duracao: 559740 Nota: C1 Vol.: 97
Chanel 4 Note On - Duracao: 559740 Nota: C1 Vol.: 97
Chanel 4 Note Off - Duracao: 559800 Nota: C1 Vol.: 97
Chanel 4 Note On - Duracao: 559800 Nota: C1 Vol.: 99
Chanel 4 Note Off - Duracao: 559860 Nota: C1 Vol.: 99
Chanel 4 Note On - Duracao: 559860 Nota: C1 Vol.: 97
Chanel 4 Note Off - Duracao: 559920 Nota: C1 Vol.: 97
Chanel 4 Note On - Duracao: 559920 Nota: C1 Vol.: 93
Chanel 4 Note Off - Duracao: 560040 Nota: C1 Vol.: 93
Chanel 4 Note On - Duracao: 560040 Nota: C1 Vol.: 93
Chanel 6 Note Off - Duracao: 560040 Nota: C1 Vol.: 67
Chanel 6 Note On - Duracao: 560040 Nota: C1 Vol.: 65
Chanel 4 Note Off - Duracao: 560160 Nota: C1 Vol.: 93
Chanel 4 Note On - Duracao: 560160 Nota: C1 Vol.: 96
Chanel 4 Note Off - Duracao: 560220 Nota: C1 Vol.: 96
Chanel 4 Note On - Duracao: 560220 Nota: C1 Vol.: 94
Chanel 4 Note Off - Duracao: 560340 Nota: C1 Vol.: 94
Chanel 4 Note On - Duracao: 560340 Nota: C1 Vol.: 93
Chanel 4 Note Off - Duracao: 560460 Nota: C1 Vol.: 93
Chanel 4 Note On - Duracao: 560460 Nota: C1 Vol.: 74
Chanel 4 Note Off - Duracao: 560700 Nota: C1 Vol.: 74
Chanel 4 Note On - Duracao: 560700 Nota: C1 Vol.: 67
Chanel 3 Note Off - Duracao: 560940 Nota: C1 Vol.: 42
Chanel 3 Note On - Duracao: 560940 Nota: C1 Vol.: 44
Chanel 4 Note Off - Duracao: 560940 Nota: C1 Vol.: 67
Chanel 4 Note On - Duracao: 560940 Nota: C1 Vol.: 69
Chanel 4 Note Off - Duracao: 561180 Nota: C1 Vol.: 69
Chanel 4 Note On - Duracao: 561180 Nota: C1 Vol.: 59
Chanel 8 Note Off - Duracao: 561360 Nota: C1 Vol.: 44
Chanel 8 Note On - Duracao: 561360 Nota: C1 Vol.: 43
Chanel 4 Note Off - Duracao: 561660 Nota: C1 Vol.: 59
Chanel 4 Note On - Duracao: 561660 Nota: C1 Vol.: 48
Chanel 6 Note Off - Duracao: 561960 Nota: C1 Vol.: 65
Chanel 6 Note On - Duracao: 561960 Nota: C1 Vol.: 65
Chanel 4 Note Off - Duracao: 562620 Nota: C1 Vol.: 48
Chanel 4 Note On - Duracao: 562620 Nota: C1 Vol.: 57
Chanel 7 Note Off - Duracao: 562740 Nota: C1 Vol.: 57
Chanel 7 Note On - Duracao: 562740 Nota: C1 Vol.: 57
Chanel 4 Note Off - Duracao: 563100 Nota: C1 Vol.: 57
Chanel 4 Note On - Duracao: 563100 Nota: C1 Vol.: 60
Chanel 8 Note Off - Duracao: 563280 Nota: C1 Vol.: 43
Chanel 8 Note On - Duracao: 563280 Nota: C1 Vol.: 46
Chanel 4 Note Off - Duracao: 563580 Nota: C1 Vol.: 60
Chanel 4 Note On - Duracao: 563580 Nota: C1 Vol.: 60
Chanel 6 Note Off - Duracao: 563880 Nota: C1 Vol.: 65
Chanel 6 Note On - Duracao: 563880 Nota: C1 Vol.: 65
Chanel 4 Note Off - Duracao: 564060 Nota: C1 Vol.: 60
Chanel 4 Note On - Duracao: 564060 Nota: C1 Vol.: 61
Chanel 8 Note Off - Duracao: 564240 Nota: C1 Vol.: 46
Chanel 8 Note On - Duracao: 564240 Nota: C1 Vol.: 48
Chanel 4 Note Off - Duracao: 564540 Nota: C1 Vol.: 61
Chanel 4 Note On - Duracao: 564540 Nota: C1 Vol.: 56
Chanel 3 Note Off - Duracao: 564780 Nota: C1 Vol.: 44
Chanel 3 Note On - Duracao: 564780 Nota: C1 Vol.: 64
Chanel 4 Note Off - Duracao: 565020 Nota: C1 Vol.: 56
Chanel 4 Note On - Duracao: 565020 Nota: C1 Vol.: 48
Chanel 8 Note Off - Duracao: 565200 Nota: C1 Vol.: 48
Chanel 8 Note On - Duracao: 565200 Nota: C1 Vol.: 50
Chanel 3 Note Off - Duracao: 565740 Nota: C1 Vol.: 64
Chanel 3 Note On - Duracao: 565740 Nota: C1 Vol.: 70
Chanel 6 Note Off - Duracao: 565800 Nota: C1 Vol.: 65
Chanel 6 Note On - Duracao: 565800 Nota: C1 Vol.: 66
Chanel 4 Note Off - Duracao: 565980 Nota: C1 Vol.: 48
Chanel 4 Note On - Duracao: 565980 Nota: C1 Vol.: 47
Chanel 8 Note Off - Duracao: 566160 Nota: C1 Vol.: 50
Chanel 8 Note On - Duracao: 566160 Nota: C1 Vol.: 52
Chanel 7 Note Off - Duracao: 566580 Nota: C1 Vol.: 57
Chanel 7 Note On - Duracao: 566580 Nota: C1 Vol.: 53
Chanel 3 Note Off - Duracao: 566700 Nota: C1 Vol.: 70
Chanel 3 Note On - Duracao: 566700 Nota: C1 Vol.: 69
Chanel 4 Note Off - Duracao: 566940 Nota: C1 Vol.: 47
Chanel 4 Note On - Duracao: 566940 Nota: C1 Vol.: 48
Chanel 8 Note Off - Duracao: 567120 Nota: C1 Vol.: 52
Chanel 8 Note On - Duracao: 567120 Nota: C1 Vol.: 52
Chanel 6 Note Off - Duracao: 567720 Nota: C1 Vol.: 66
Chanel 6 Note On - Duracao: 567720 Nota: C1 Vol.: 67
Chanel 4 Note Off - Duracao: 567900 Nota: C1 Vol.: 48
Chanel 4 Note On - Duracao: 567900 Nota: C1 Vol.: 57
Chanel 8 Note Off - Duracao: 568080 Nota: C1 Vol.: 52
Chanel 8 Note On - Duracao: 568080 Nota: C1 Vol.: 51
Chanel 4 Note Off - Duracao: 568380 Nota: C1 Vol.: 57
Chanel 4 Note On - Duracao: 568380 Nota: C1 Vol.: 62
Chanel 3 Note Off - Duracao: 568620 Nota: C1 Vol.: 69
Chanel 3 Note On - Duracao: 568620 Nota: C1 Vol.: 70
Chanel 4 Note Off - Duracao: 568860 Nota: C1 Vol.: 62
Chanel 4 Note On - Duracao: 568860 Nota: C1 Vol.: 70
Chanel 8 Note Off - Duracao: 569040 Nota: C1 Vol.: 51
Chanel 8 Note On - Duracao: 569040 Nota: C1 Vol.: 52
Chanel 4 Note Off - Duracao: 569100 Nota: C1 Vol.: 70
Chanel 4 Note On - Duracao: 569100 Nota: C1 Vol.: 73
Chanel 4 Note Off - Duracao: 569340 Nota: C1 Vol.: 73
Chanel 4 Note On - Duracao: 569340 Nota: C1 Vol.: 67
Chanel 3 Note Off - Duracao: 569580 Nota: C1 Vol.: 70
Chanel 3 Note On - Duracao: 569580 Nota: C1 Vol.: 75
Chanel 4 Note Off - Duracao: 569580 Nota: C1 Vol.: 67
Chanel 4 Note On - Duracao: 569580 Nota: C1 Vol.: 60
Chanel 6 Note Off - Duracao: 569640 Nota: C1 Vol.: 67
Chanel 6 Note On - Duracao: 569640 Nota: C1 Vol.: 67
Chanel 8 Note Off - Duracao: 570000 Nota: C1 Vol.: 52
Chanel 8 Note On - Duracao: 570000 Nota: C1 Vol.: 49
Chanel 4 Note Off - Duracao: 570060 Nota: C1 Vol.: 60
Chanel 4 Note On - Duracao: 570060 Nota: C1 Vol.: 40
Chanel 7 Note Off - Duracao: 570420 Nota: C1 Vol.: 53
Chanel 7 Note On - Duracao: 570420 Nota: C1 Vol.: 57
Chanel 3 Note Off - Duracao: 570540 Nota: C1 Vol.: 75
Chanel 3 Note On - Duracao: 570540 Nota: C1 Vol.: 75
Chanel 8 Note Off - Duracao: 570960 Nota: C1 Vol.: 49
Chanel 8 Note On - Duracao: 570960 Nota: C1 Vol.: 47
Chanel 3 Note Off - Duracao: 571500 Nota: C1 Vol.: 75
Chanel 3 Note On - Duracao: 571500 Nota: C1 Vol.: 74
Chanel 6 Note Off - Duracao: 571560 Nota: C1 Vol.: 67
Chanel 6 Note On - Duracao: 571560 Nota: C1 Vol.: 62
Chanel 8 Note Off - Duracao: 571920 Nota: C1 Vol.: 47
Chanel 8 Note On - Duracao: 571920 Nota: C1 Vol.: 69
Chanel 4 Note Off - Duracao: 571980 Nota: C1 Vol.: 40
Chanel 4 Note On - Duracao: 571980 Nota: C1 Vol.: 59
Chanel 8 Note Off - Duracao: 572160 Nota: C1 Vol.: 69
Chanel 8 Note On - Duracao: 572160 Nota: C1 Vol.: 57
Chanel 4 Note Off - Duracao: 572220 Nota: C1 Vol.: 59
Chanel 4 Note On - Duracao: 572220 Nota: C1 Vol.: 57
Chanel 7 Note Off - Duracao: 572340 Nota: C1 Vol.: 57
Chanel 7 Note On - Duracao: 572340 Nota: C1 Vol.: 55
Chanel 3 Note Off - Duracao: 572460 Nota: C1 Vol.: 74
Chanel 3 Note On - Duracao: 572460 Nota: C1 Vol.: 75
Chanel 8 Note Off - Duracao: 572640 Nota: C1 Vol.: 57
Chanel 8 Note On - Duracao: 572640 Nota: C1 Vol.: 65
Chanel 4 Note Off - Duracao: 572700 Nota: C1 Vol.: 57
Chanel 4 Note On - Duracao: 572700 Nota: C1 Vol.: 49
Chanel 8 Note Off - Duracao: 572880 Nota: C1 Vol.: 65
Chanel 8 Note On - Duracao: 572880 Nota: C1 Vol.: 63
Chanel 8 Note Off - Duracao: 573120 Nota: C1 Vol.: 63
Chanel 8 Note On - Duracao: 573120 Nota: C1 Vol.: 50
Chanel 4 Note Off - Duracao: 573180 Nota: C1 Vol.: 49
Chanel 4 Note On - Duracao: 573180 Nota: C1 Vol.: 61
Chanel 3 Note Off - Duracao: 573420 Nota: C1 Vol.: 75
Chanel 3 Note On - Duracao: 573420 Nota: C1 Vol.: 73
Chanel 4 Note Off - Duracao: 573420 Nota: C1 Vol.: 61
Chanel 4 Note On - Duracao: 573420 Nota: C1 Vol.: 60
Chanel 6 Note Off - Duracao: 573480 Nota: C1 Vol.: 62
Chanel 6 Note On - Duracao: 573480 Nota: C1 Vol.: 54
Chanel 4 Note Off - Duracao: 573660 Nota: C1 Vol.: 60
Chanel 4 Note On - Duracao: 573660 Nota: C1 Vol.: 60
Chanel 4 Note Off - Duracao: 573900 Nota: C1 Vol.: 60
Chanel 4 Note On - Duracao: 573900 Nota: C1 Vol.: 44
Chanel 8 Note Off - Duracao: 574080 Nota: C1 Vol.: 50
Chanel 8 Note On - Duracao: 574080 Nota: C1 Vol.: 48
Chanel 7 Note Off - Duracao: 574260 Nota: C1 Vol.: 55
Chanel 7 Note On - Duracao: 574260 Nota: C1 Vol.: 53
Chanel 3 Note Off - Duracao: 574380 Nota: C1 Vol.: 73
Chanel 3 Note On - Duracao: 574380 Nota: C1 Vol.: 76
Chanel 4 Note Off - Duracao: 574860 Nota: C1 Vol.: 44
Chanel 4 Note On - Duracao: 574860 Nota: C1 Vol.: 55
Chanel 8 Note Off - Duracao: 575040 Nota: C1 Vol.: 48
Chanel 8 Note On - Duracao: 575040 Nota: C1 Vol.: 51
Chanel 4 Note Off - Duracao: 575100 Nota: C1 Vol.: 55
Chanel 4 Note On - Duracao: 575100 Nota: C1 Vol.: 42
Chanel 7 Note Off - Duracao: 575220 Nota: C1 Vol.: 53
Chanel 7 Note On - Duracao: 575220 Nota: C1 Vol.: 58
Chanel 3 Note Off - Duracao: 575340 Nota: C1 Vol.: 76
Chanel 3 Note On - Duracao: 575340 Nota: C1 Vol.: 77
Chanel 7 Note Off - Duracao: 575700 Nota: C1 Vol.: 58
Chanel 7 Note On - Duracao: 575700 Nota: C1 Vol.: 55
Chanel 8 Note Off - Duracao: 576000 Nota: C1 Vol.: 51
Chanel 8 Note On - Duracao: 576000 Nota: C1 Vol.: 69
Chanel 4 Note Off - Duracao: 576060 Nota: C1 Vol.: 42
Chanel 4 Note On - Duracao: 576060 Nota: C1 Vol.: 49
Chanel 7 Note Off - Duracao: 576180 Nota: C1 Vol.: 55
Chanel 7 Note On - Duracao: 576180 Nota: C1 Vol.: 60
Chanel 3 Note Off - Duracao: 576300 Nota: C1 Vol.: 77
Chanel 3 Note On - Duracao: 576300 Nota: C1 Vol.: 75
Chanel 8 Note Off - Duracao: 576480 Nota: C1 Vol.: 69
Chanel 8 Note On - Duracao: 576480 Nota: C1 Vol.: 65
Chanel 4 Note Off - Duracao: 576540 Nota: C1 Vol.: 49
Chanel 4 Note On - Duracao: 576540 Nota: C1 Vol.: 62
Chanel 7 Note Off - Duracao: 576660 Nota: C1 Vol.: 60
Chanel 7 Note On - Duracao: 576660 Nota: C1 Vol.: 66
Chanel 4 Note Off - Duracao: 576780 Nota: C1 Vol.: 62
Chanel 4 Note On - Duracao: 576780 Nota: C1 Vol.: 54
Chanel 7 Note Off - Duracao: 576900 Nota: C1 Vol.: 66
Chanel 7 Note On - Duracao: 576900 Nota: C1 Vol.: 67
Chanel 8 Note Off - Duracao: 576960 Nota: C1 Vol.: 65
Chanel 8 Note On - Duracao: 576960 Nota: C1 Vol.: 65
Chanel 7 Note Off - Duracao: 577140 Nota: C1 Vol.: 67
Chanel 7 Note On - Duracao: 577140 Nota: C1 Vol.: 62
Chanel 3 Note Off - Duracao: 577260 Nota: C1 Vol.: 75
Chanel 3 Note On - Duracao: 577260 Nota: C1 Vol.: 75
Chanel 4 Note Off - Duracao: 577260 Nota: C1 Vol.: 54
Chanel 4 Note On - Duracao: 577260 Nota: C1 Vol.: 48
Chanel 6 Note Off - Duracao: 577320 Nota: C1 Vol.: 54
Chanel 6 Note On - Duracao: 577320 Nota: C1 Vol.: 60
Chanel 7 Note Off - Duracao: 577380 Nota: C1 Vol.: 62
Chanel 7 Note On - Duracao: 577380 Nota: C1 Vol.: 49
Chanel 8 Note Off - Duracao: 577440 Nota: C1 Vol.: 65
Chanel 8 Note On - Duracao: 577440 Nota: C1 Vol.: 68
Chanel 3 Note Off - Duracao: 577740 Nota: C1 Vol.: 75
Chanel 3 Note On - Duracao: 577740 Nota: C1 Vol.: 73
Chanel 8 Note Off - Duracao: 577920 Nota: C1 Vol.: 68
Chanel 8 Note On - Duracao: 577920 Nota: C1 Vol.: 62
Chanel 3 Note Off - Duracao: 578220 Nota: C1 Vol.: 73
Chanel 3 Note On - Duracao: 578220 Nota: C1 Vol.: 56
Chanel 4 Note Off - Duracao: 578220 Nota: C1 Vol.: 48
Chanel 4 Note On - Duracao: 578220 Nota: C1 Vol.: 81
Chanel 4 Note Off - Duracao: 578340 Nota: C1 Vol.: 81
Chanel 4 Note On - Duracao: 578340 Nota: C1 Vol.: 86
Chanel 7 Note Off - Duracao: 578340 Nota: C1 Vol.: 49
Chanel 7 Note On - Duracao: 578340 Nota: C1 Vol.: 72
Chanel 8 Note Off - Duracao: 578400 Nota: C1 Vol.: 62
Chanel 8 Note On - Duracao: 578400 Nota: C1 Vol.: 72
Chanel 4 Note Off - Duracao: 578460 Nota: C1 Vol.: 86
Chanel 4 Note On - Duracao: 578460 Nota: C1 Vol.: 88
Chanel 7 Note Off - Duracao: 578460 Nota: C1 Vol.: 72
Chanel 7 Note On - Duracao: 578460 Nota: C1 Vol.: 73
Chanel 4 Note Off - Duracao: 578580 Nota: C1 Vol.: 88
Chanel 4 Note On - Duracao: 578580 Nota: C1 Vol.: 89
Chanel 7 Note Off - Duracao: 578580 Nota: C1 Vol.: 73
Chanel 7 Note On - Duracao: 578580 Nota: C1 Vol.: 52
Chanel 8 Note Off - Duracao: 578640 Nota: C1 Vol.: 72
Chanel 8 Note On - Duracao: 578640 Nota: C1 Vol.: 75
Chanel 4 Note Off - Duracao: 578700 Nota: C1 Vol.: 89
Chanel 4 Note On - Duracao: 578700 Nota: C1 Vol.: 79
Chanel 8 Note Off - Duracao: 578880 Nota: C1 Vol.: 75
Chanel 8 Note On - Duracao: 578880 Nota: C1 Vol.: 78
Chanel 4 Note Off - Duracao: 578940 Nota: C1 Vol.: 79
Chanel 4 Note On - Duracao: 578940 Nota: C1 Vol.: 98
Chanel 4 Note Off - Duracao: 579000 Nota: C1 Vol.: 98
Chanel 4 Note On - Duracao: 579000 Nota: C1 Vol.: 99
Chanel 4 Note Off - Duracao: 579060 Nota: C1 Vol.: 99
Chanel 4 Note On - Duracao: 579060 Nota: C1 Vol.: 99
Chanel 4 Note Off - Duracao: 579120 Nota: C1 Vol.: 99
Chanel 4 Note On - Duracao: 579120 Nota: C1 Vol.: 86
Chanel 8 Note Off - Duracao: 579120 Nota: C1 Vol.: 78
Chanel 8 Note On - Duracao: 579120 Nota: C1 Vol.: 79
Chanel 6 Note Off - Duracao: 579240 Nota: C1 Vol.: 60
Chanel 6 Note On - Duracao: 579240 Nota: C1 Vol.: 56
Chanel 4 Note Off - Duracao: 579360 Nota: C1 Vol.: 86
Chanel 4 Note On - Duracao: 579360 Nota: C1 Vol.: 68
Chanel 8 Note Off - Duracao: 579360 Nota: C1 Vol.: 79
Chanel 8 Note On - Duracao: 579360 Nota: C1 Vol.: 80
Chanel 7 Note Off - Duracao: 579540 Nota: C1 Vol.: 52
Chanel 7 Note On - Duracao: 579540 Nota: C1 Vol.: 54
Chanel 8 Note Off - Duracao: 579600 Nota: C1 Vol.: 80
Chanel 8 Note On - Duracao: 579600 Nota: C1 Vol.: 83
Chanel 4 Note Off - Duracao: 579840 Nota: C1 Vol.: 68
Chanel 4 Note On - Duracao: 579840 Nota: C1 Vol.: 97
Chanel 8 Note Off - Duracao: 579840 Nota: C1 Vol.: 83
Chanel 8 Note On - Duracao: 579840 Nota: C1 Vol.: 85
Chanel 4 Note Off - Duracao: 579900 Nota: C1 Vol.: 97
Chanel 4 Note On - Duracao: 579900 Nota: C1 Vol.: 97
Chanel 4 Note Off - Duracao: 579960 Nota: C1 Vol.: 97
Chanel 4 Note On - Duracao: 579960 Nota: C1 Vol.: 97
Chanel 8 Note Off - Duracao: 579960 Nota: C1 Vol.: 85
Chanel 8 Note On - Duracao: 579960 Nota: C1 Vol.: 83
Chanel 4 Note Off - Duracao: 580020 Nota: C1 Vol.: 97
Chanel 4 Note On - Duracao: 580020 Nota: C1 Vol.: 95
Chanel 4 Note Off - Duracao: 580080 Nota: C1 Vol.: 95
Chanel 4 Note On - Duracao: 580080 Nota: C1 Vol.: 97
Chanel 8 Note Off - Duracao: 580080 Nota: C1 Vol.: 83
Chanel 8 Note On - Duracao: 580080 Nota: C1 Vol.: 79
Chanel 3 Note Off - Duracao: 580140 Nota: C1 Vol.: 56
Chanel 3 Note On - Duracao: 580140 Nota: C1 Vol.: 40
Chanel 4 Note Off - Duracao: 580140 Nota: C1 Vol.: 97
Chanel 4 Note On - Duracao: 580140 Nota: C1 Vol.: 80
Chanel 8 Note Off - Duracao: 580320 Nota: C1 Vol.: 79
Chanel 8 Note On - Duracao: 580320 Nota: C1 Vol.: 88
Chanel 4 Note Off - Duracao: 580380 Nota: C1 Vol.: 80
Chanel 4 Note On - Duracao: 580380 Nota: C1 Vol.: 93
Chanel 4 Note Off - Duracao: 580440 Nota: C1 Vol.: 93
Chanel 4 Note On - Duracao: 580440 Nota: C1 Vol.: 97
Chanel 8 Note Off - Duracao: 580440 Nota: C1 Vol.: 88
Chanel 8 Note On - Duracao: 580440 Nota: C1 Vol.: 67
Chanel 4 Note Off - Duracao: 580500 Nota: C1 Vol.: 97
Chanel 4 Note On - Duracao: 580500 Nota: C1 Vol.: 98
Chanel 7 Note Off - Duracao: 580500 Nota: C1 Vol.: 54
Chanel 7 Note On - Duracao: 580500 Nota: C1 Vol.: 54
Chanel 4 Note Off - Duracao: 580560 Nota: C1 Vol.: 98
Chanel 4 Note On - Duracao: 580560 Nota: C1 Vol.: 96
Chanel 4 Note Off - Duracao: 580620 Nota: C1 Vol.: 96
Chanel 4 Note On - Duracao: 580620 Nota: C1 Vol.: 87
Chanel 4 Note Off - Duracao: 580740 Nota: C1 Vol.: 87
Chanel 4 Note On - Duracao: 580740 Nota: C1 Vol.: 68
Chanel 8 Note Off - Duracao: 580920 Nota: C1 Vol.: 67
Chanel 8 Note On - Duracao: 580920 Nota: C1 Vol.: 64
Chanel 6 Note Off - Duracao: 581160 Nota: C1 Vol.: 56
Chanel 6 Note On - Duracao: 581160 Nota: C1 Vol.: 84
Chanel 4 Note Off - Duracao: 581220 Nota: C1 Vol.: 68
Chanel 4 Note On - Duracao: 581220 Nota: C1 Vol.: 93
Chanel 4 Note Off - Duracao: 581340 Nota: C1 Vol.: 93
Chanel 4 Note On - Duracao: 581340 Nota: C1 Vol.: 100
Chanel 4 Note Off - Duracao: 581400 Nota: C1 Vol.: 100
Chanel 4 Note On - Duracao: 581400 Nota: C1 Vol.: 65
Chanel 6 Note Off - Duracao: 581400 Nota: C1 Vol.: 84
Chanel 6 Note On - Duracao: 581400 Nota: C1 Vol.: 87
Chanel 7 Note Off - Duracao: 581460 Nota: C1 Vol.: 54
Chanel 7 Note On - Duracao: 581460 Nota: C1 Vol.: 53
Chanel 6 Note Off - Duracao: 581640 Nota: C1 Vol.: 87
Chanel 6 Note On - Duracao: 581640 Nota: C1 Vol.: 89
Chanel 6 Note Off - Duracao: 581880 Nota: C1 Vol.: 89
Chanel 6 Note On - Duracao: 581880 Nota: C1 Vol.: 70
Chanel 8 Note Off - Duracao: 581880 Nota: C1 Vol.: 64
Chanel 8 Note On - Duracao: 581880 Nota: C1 Vol.: 74
Chanel 4 Note Off - Duracao: 582360 Nota: C1 Vol.: 65
Chanel 4 Note On - Duracao: 582360 Nota: C1 Vol.: 61
Chanel 8 Note Off - Duracao: 582360 Nota: C1 Vol.: 74
Chanel 8 Note On - Duracao: 582360 Nota: C1 Vol.: 77
Chanel 7 Note Off - Duracao: 582420 Nota: C1 Vol.: 53
Chanel 7 Note On - Duracao: 582420 Nota: C1 Vol.: 59
Chanel 6 Note Off - Duracao: 582840 Nota: C1 Vol.: 70
Chanel 6 Note On - Duracao: 582840 Nota: C1 Vol.: 52
Chanel 7 Note Off - Duracao: 582900 Nota: C1 Vol.: 59
Chanel 7 Note On - Duracao: 582900 Nota: C1 Vol.: 88
Chanel 7 Note Off - Duracao: 583020 Nota: C1 Vol.: 88
Chanel 7 Note On - Duracao: 583020 Nota: C1 Vol.: 85
Chanel 7 Note Off - Duracao: 583140 Nota: C1 Vol.: 85
Chanel 7 Note On - Duracao: 583140 Nota: C1 Vol.: 83
Chanel 4 Note Off - Duracao: 583320 Nota: C1 Vol.: 61
Chanel 4 Note On - Duracao: 583320 Nota: C1 Vol.: 88
Chanel 8 Note Off - Duracao: 583320 Nota: C1 Vol.: 77
Chanel 8 Note On - Duracao: 583320 Nota: C1 Vol.: 77
Chanel 7 Note Off - Duracao: 583380 Nota: C1 Vol.: 83
Chanel 7 Note On - Duracao: 583380 Nota: C1 Vol.: 75
Chanel 4 Note Off - Duracao: 583440 Nota: C1 Vol.: 88
Chanel 4 Note On - Duracao: 583440 Nota: C1 Vol.: 95
Chanel 4 Note Off - Duracao: 583500 Nota: C1 Vol.: 95
Chanel 4 Note On - Duracao: 583500 Nota: C1 Vol.: 97
Chanel 4 Note Off - Duracao: 583560 Nota: C1 Vol.: 97
Chanel 4 Note On - Duracao: 583560 Nota: C1 Vol.: 99
Chanel 4 Note Off - Duracao: 583620 Nota: C1 Vol.: 99
Chanel 4 Note On - Duracao: 583620 Nota: C1 Vol.: 96
Chanel 7 Note Off - Duracao: 583620 Nota: C1 Vol.: 75
Chanel 7 Note On - Duracao: 583620 Nota: C1 Vol.: 80
Chanel 4 Note Off - Duracao: 583680 Nota: C1 Vol.: 96
Chanel 4 Note On - Duracao: 583680 Nota: C1 Vol.: 97
Chanel 4 Note Off - Duracao: 583740 Nota: C1 Vol.: 97
Chanel 4 Note On - Duracao: 583740 Nota: C1 Vol.: 95
Chanel 4 Note Off - Duracao: 583800 Nota: C1 Vol.: 95
Chanel 4 Note On - Duracao: 583800 Nota: C1 Vol.: 60
Chanel 7 Note Off - Duracao: 583860 Nota: C1 Vol.: 80
Chanel 7 Note On - Duracao: 583860 Nota: C1 Vol.: 81
Chanel 3 Note Off - Duracao: 583980 Nota: C1 Vol.: 40
Chanel 3 Note On - Duracao: 583980 Nota: C1 Vol.: 40
Chanel 7 Note Off - Duracao: 584100 Nota: C1 Vol.: 81
Chanel 7 Note On - Duracao: 584100 Nota: C1 Vol.: 93
Chanel 7 Note Off - Duracao: 584220 Nota: C1 Vol.: 93
Chanel 7 Note On - Duracao: 584220 Nota: C1 Vol.: 68
Chanel 8 Note Off - Duracao: 584280 Nota: C1 Vol.: 77
Chanel 8 Note On - Duracao: 584280 Nota: C1 Vol.: 72
Chanel 7 Note Off - Duracao: 584700 Nota: C1 Vol.: 68
Chanel 7 Note On - Duracao: 584700 Nota: C1 Vol.: 69
Chanel 4 Note Off - Duracao: 584760 Nota: C1 Vol.: 60
Chanel 4 Note On - Duracao: 584760 Nota: C1 Vol.: 46
Chanel 7 Note Off - Duracao: 585180 Nota: C1 Vol.: 69
Chanel 7 Note On - Duracao: 585180 Nota: C1 Vol.: 83
Chanel 8 Note Off - Duracao: 585240 Nota: C1 Vol.: 72
Chanel 8 Note On - Duracao: 585240 Nota: C1 Vol.: 67
Chanel 7 Note Off - Duracao: 585300 Nota: C1 Vol.: 83
Chanel 7 Note On - Duracao: 585300 Nota: C1 Vol.: 73
Chanel 7 Note Off - Duracao: 585540 Nota: C1 Vol.: 73
Chanel 7 Note On - Duracao: 585540 Nota: C1 Vol.: 74
Chanel 7 Note Off - Duracao: 585780 Nota: C1 Vol.: 74
Chanel 7 Note On - Duracao: 585780 Nota: C1 Vol.: 95
Chanel 7 Note Off - Duracao: 585840 Nota: C1 Vol.: 95
Chanel 7 Note On - Duracao: 585840 Nota: C1 Vol.: 68
Chanel 8 Note Off - Duracao: 586200 Nota: C1 Vol.: 67
Chanel 8 Note On - Duracao: 586200 Nota: C1 Vol.: 69
Chanel 7 Note Off - Duracao: 586320 Nota: C1 Vol.: 68
Chanel 7 Note On - Duracao: 586320 Nota: C1 Vol.: 56
Chanel 4 Note Off - Duracao: 586680 Nota: C1 Vol.: 46
Chanel 4 Note On - Duracao: 586680 Nota: C1 Vol.: 89
Chanel 6 Note Off - Duracao: 586680 Nota: C1 Vol.: 52
Chanel 6 Note On - Duracao: 586680 Nota: C1 Vol.: 59
Chanel 8 Note Off - Duracao: 586680 Nota: C1 Vol.: 69
Chanel 8 Note On - Duracao: 586680 Nota: C1 Vol.: 81
Chanel 4 Note Off - Duracao: 586800 Nota: C1 Vol.: 89
Chanel 4 Note On - Duracao: 586800 Nota: C1 Vol.: 87
Chanel 4 Note Off - Duracao: 586920 Nota: C1 Vol.: 87
Chanel 4 Note On - Duracao: 586920 Nota: C1 Vol.: 99
Chanel 8 Note Off - Duracao: 586920 Nota: C1 Vol.: 81
Chanel 8 Note On - Duracao: 586920 Nota: C1 Vol.: 85
Chanel 4 Note Off - Duracao: 586980 Nota: C1 Vol.: 99
Chanel 4 Note On - Duracao: 586980 Nota: C1 Vol.: 99
Chanel 4 Note Off - Duracao: 587040 Nota: C1 Vol.: 99
Chanel 4 Note On - Duracao: 587040 Nota: C1 Vol.: 99
Chanel 4 Note Off - Duracao: 587100 Nota: C1 Vol.: 99
Chanel 4 Note On - Duracao: 587100 Nota: C1 Vol.: 99
Chanel 4 Note Off - Duracao: 587160 Nota: C1 Vol.: 99
Chanel 4 Note On - Duracao: 587160 Nota: C1 Vol.: 97
Chanel 8 Note Off - Duracao: 587160 Nota: C1 Vol.: 85
Chanel 8 Note On - Duracao: 587160 Nota: C1 Vol.: 73
Chanel 4 Note Off - Duracao: 587220 Nota: C1 Vol.: 97
Chanel 4 Note On - Duracao: 587220 Nota: C1 Vol.: 98
Chanel 4 Note Off - Duracao: 587280 Nota: C1 Vol.: 98
Chanel 4 Note On - Duracao: 587280 Nota: C1 Vol.: 72
Chanel 7 Note Off - Duracao: 587280 Nota: C1 Vol.: 56
Chanel 7 Note On - Duracao: 587280 Nota: C1 Vol.: 57
Chanel 8 Note Off - Duracao: 587640 Nota: C1 Vol.: 73
Chanel 8 Note On - Duracao: 587640 Nota: C1 Vol.: 75
Chanel 4 Note Off - Duracao: 587760 Nota: C1 Vol.: 72
Chanel 4 Note On - Duracao: 587760 Nota: C1 Vol.: 45
Chanel 3 Note Off - Duracao: 587820 Nota: C1 Vol.: 40
Chanel 3 Note On - Duracao: 587820 Nota: C1 Vol.: 52
Chanel 7 Note Off - Duracao: 588240 Nota: C1 Vol.: 57
Chanel 7 Note On - Duracao: 588240 Nota: C1 Vol.: 67
Chanel 6 Note Off - Duracao: 588600 Nota: C1 Vol.: 59
Chanel 6 Note On - Duracao: 588600 Nota: C1 Vol.: 51
Chanel 8 Note Off - Duracao: 588600 Nota: C1 Vol.: 75
Chanel 8 Note On - Duracao: 588600 Nota: C1 Vol.: 79
Chanel 7 Note Off - Duracao: 588720 Nota: C1 Vol.: 67
Chanel 7 Note On - Duracao: 588720 Nota: C1 Vol.: 78
Chanel 3 Note Off - Duracao: 588780 Nota: C1 Vol.: 52
Chanel 3 Note On - Duracao: 588780 Nota: C1 Vol.: 51
Chanel 7 Note Off - Duracao: 588960 Nota: C1 Vol.: 78
Chanel 7 Note On - Duracao: 588960 Nota: C1 Vol.: 73
Chanel 7 Note Off - Duracao: 589200 Nota: C1 Vol.: 73
Chanel 7 Note On - Duracao: 589200 Nota: C1 Vol.: 57
Chanel 8 Note Off - Duracao: 589560 Nota: C1 Vol.: 79
Chanel 8 Note On - Duracao: 589560 Nota: C1 Vol.: 80
Chanel 4 Note Off - Duracao: 589680 Nota: C1 Vol.: 45
Chanel 4 Note On - Duracao: 589680 Nota: C1 Vol.: 67
Chanel 3 Note Off - Duracao: 589740 Nota: C1 Vol.: 51
Chanel 3 Note On - Duracao: 589740 Nota: C1 Vol.: 40
Chanel 4 Note Off - Duracao: 590160 Nota: C1 Vol.: 67
Chanel 4 Note On - Duracao: 590160 Nota: C1 Vol.: 88
Chanel 7 Note Off - Duracao: 590160 Nota: C1 Vol.: 57
Chanel 7 Note On - Duracao: 590160 Nota: C1 Vol.: 95
Chanel 7 Note Off - Duracao: 590220 Nota: C1 Vol.: 95
Chanel 7 Note On - Duracao: 590220 Nota: C1 Vol.: 78
Chanel 4 Note Off - Duracao: 590280 Nota: C1 Vol.: 88
Chanel 4 Note On - Duracao: 590280 Nota: C1 Vol.: 88
Chanel 4 Note Off - Duracao: 590400 Nota: C1 Vol.: 88
Chanel 4 Note On - Duracao: 590400 Nota: C1 Vol.: 100
Chanel 4 Note Off - Duracao: 590460 Nota: C1 Vol.: 100
Chanel 4 Note On - Duracao: 590460 Nota: C1 Vol.: 99
Chanel 7 Note Off - Duracao: 590460 Nota: C1 Vol.: 78
Chanel 7 Note On - Duracao: 590460 Nota: C1 Vol.: 61
Chanel 4 Note Off - Duracao: 590520 Nota: C1 Vol.: 99
Chanel 4 Note On - Duracao: 590520 Nota: C1 Vol.: 98
Chanel 8 Note Off - Duracao: 590520 Nota: C1 Vol.: 80
Chanel 8 Note On - Duracao: 590520 Nota: C1 Vol.: 75
Chanel 4 Note Off - Duracao: 590580 Nota: C1 Vol.: 98
Chanel 4 Note On - Duracao: 590580 Nota: C1 Vol.: 98
Chanel 4 Note Off - Duracao: 590640 Nota: C1 Vol.: 98
Chanel 4 Note On - Duracao: 590640 Nota: C1 Vol.: 93
Chanel 4 Note Off - Duracao: 590760 Nota: C1 Vol.: 93
Chanel 4 Note On - Duracao: 590760 Nota: C1 Vol.: 83
Chanel 7 Note Off - Duracao: 590940 Nota: C1 Vol.: 61
Chanel 7 Note On - Duracao: 590940 Nota: C1 Vol.: 50
Chanel 4 Note Off - Duracao: 591000 Nota: C1 Vol.: 83
Chanel 4 Note On - Duracao: 591000 Nota: C1 Vol.: 69
Chanel 4 Note Off - Duracao: 591480 Nota: C1 Vol.: 69
Chanel 4 Note On - Duracao: 591480 Nota: C1 Vol.: 66
Chanel 8 Note Off - Duracao: 591480 Nota: C1 Vol.: 75
Chanel 8 Note On - Duracao: 591480 Nota: C1 Vol.: 65
Chanel 7 Note Off - Duracao: 591900 Nota: C1 Vol.: 50
Chanel 7 Note On - Duracao: 591900 Nota: C1 Vol.: 67
Chanel 4 Note Off - Duracao: 591960 Nota: C1 Vol.: 66
Chanel 4 Note On - Duracao: 591960 Nota: C1 Vol.: 76
Chanel 7 Note Off - Duracao: 592140 Nota: C1 Vol.: 67
Chanel 7 Note On - Duracao: 592140 Nota: C1 Vol.: 71
Chanel 4 Note Off - Duracao: 592200 Nota: C1 Vol.: 76
Chanel 4 Note On - Duracao: 592200 Nota: C1 Vol.: 95
Chanel 4 Note Off - Duracao: 592260 Nota: C1 Vol.: 95
Chanel 4 Note On - Duracao: 592260 Nota: C1 Vol.: 97
Chanel 4 Note Off - Duracao: 592320 Nota: C1 Vol.: 97
Chanel 4 Note On - Duracao: 592320 Nota: C1 Vol.: 97
Chanel 4 Note Off - Duracao: 592380 Nota: C1 Vol.: 97
Chanel 4 Note On - Duracao: 592380 Nota: C1 Vol.: 97
Chanel 7 Note Off - Duracao: 592380 Nota: C1 Vol.: 71
Chanel 7 Note On - Duracao: 592380 Nota: C1 Vol.: 68
Chanel 4 Note Off - Duracao: 592440 Nota: C1 Vol.: 97
Chanel 4 Note On - Duracao: 592440 Nota: C1 Vol.: 99
Chanel 6 Note Off - Duracao: 592440 Nota: C1 Vol.: 51
Chanel 6 Note On - Duracao: 592440 Nota: C1 Vol.: 57
Chanel 8 Note Off - Duracao: 592440 Nota: C1 Vol.: 65
Chanel 8 Note On - Duracao: 592440 Nota: C1 Vol.: 55
Chanel 4 Note Off - Duracao: 592500 Nota: C1 Vol.: 99
Chanel 4 Note On - Duracao: 592500 Nota: C1 Vol.: 97
Chanel 4 Note Off - Duracao: 592560 Nota: C1 Vol.: 97
Chanel 4 Note On - Duracao: 592560 Nota: C1 Vol.: 96
Chanel 7 Note Off - Duracao: 592620 Nota: C1 Vol.: 68
Chanel 7 Note On - Duracao: 592620 Nota: C1 Vol.: 73
Chanel 4 Note Off - Duracao: 592680 Nota: C1 Vol.: 96
Chanel 4 Note On - Duracao: 592680 Nota: C1 Vol.: 97
Chanel 4 Note Off - Duracao: 592800 Nota: C1 Vol.: 97
Chanel 4 Note On - Duracao: 592800 Nota: C1 Vol.: 95
Chanel 7 Note Off - Duracao: 592860 Nota: C1 Vol.: 73
Chanel 7 Note On - Duracao: 592860 Nota: C1 Vol.: 80
Chanel 4 Note Off - Duracao: 592920 Nota: C1 Vol.: 95
Chanel 4 Note On - Duracao: 592920 Nota: C1 Vol.: 81
Chanel 4 Note Off - Duracao: 593040 Nota: C1 Vol.: 81
Chanel 4 Note On - Duracao: 593040 Nota: C1 Vol.: 81
Chanel 7 Note Off - Duracao: 593100 Nota: C1 Vol.: 80
Chanel 7 Note On - Duracao: 593100 Nota: C1 Vol.: 77
Chanel 4 Note Off - Duracao: 593160 Nota: C1 Vol.: 81
Chanel 4 Note On - Duracao: 593160 Nota: C1 Vol.: 60
Chanel 7 Note Off - Duracao: 593340 Nota: C1 Vol.: 77
Chanel 7 Note On - Duracao: 593340 Nota: C1 Vol.: 77
Chanel 8 Note Off - Duracao: 593400 Nota: C1 Vol.: 55
Chanel 8 Note On - Duracao: 593400 Nota: C1 Vol.: 57
Chanel 3 Note Off - Duracao: 593580 Nota: C1 Vol.: 40
Chanel 3 Note On - Duracao: 593580 Nota: C1 Vol.: 44
Chanel 7 Note Off - Duracao: 593580 Nota: C1 Vol.: 77
Chanel 7 Note On - Duracao: 593580 Nota: C1 Vol.: 92
Chanel 4 Note Off - Duracao: 593640 Nota: C1 Vol.: 60
Chanel 4 Note On - Duracao: 593640 Nota: C1 Vol.: 54
Chanel 8 Note Off - Duracao: 593640 Nota: C1 Vol.: 57
Chanel 8 Note On - Duracao: 593640 Nota: C1 Vol.: 55
Chanel 7 Note Off - Duracao: 593700 Nota: C1 Vol.: 92
Chanel 7 Note On - Duracao: 593700 Nota: C1 Vol.: 62
Chanel 8 Note Off - Duracao: 593760 Nota: C1 Vol.: 55
Chanel 8 Note On - Duracao: 593760 Nota: C1 Vol.: 52
Chanel 8 Note Off - Duracao: 594000 Nota: C1 Vol.: 52
Chanel 8 Note On - Duracao: 594000 Nota: C1 Vol.: 53
Chanel 4 Note Off - Duracao: 594120 Nota: C1 Vol.: 54
Chanel 4 Note On - Duracao: 594120 Nota: C1 Vol.: 60
Chanel 7 Note Off - Duracao: 594180 Nota: C1 Vol.: 62
Chanel 7 Note On - Duracao: 594180 Nota: C1 Vol.: 58
Chanel 8 Note Off - Duracao: 594240 Nota: C1 Vol.: 53
Chanel 8 Note On - Duracao: 594240 Nota: C1 Vol.: 52
Chanel 6 Note Off - Duracao: 594360 Nota: C1 Vol.: 57
Chanel 6 Note On - Duracao: 594360 Nota: C1 Vol.: 57
Chanel 8 Note Off - Duracao: 594480 Nota: C1 Vol.: 52
Chanel 8 Note On - Duracao: 594480 Nota: C1 Vol.: 48
Chanel 4 Note Off - Duracao: 594600 Nota: C1 Vol.: 60
Chanel 4 Note On - Duracao: 594600 Nota: C1 Vol.: 51
Chanel 7 Note Off - Duracao: 594660 Nota: C1 Vol.: 58
Chanel 7 Note On - Duracao: 594660 Nota: C1 Vol.: 61
Chanel 8 Note Off - Duracao: 594720 Nota: C1 Vol.: 48
Chanel 8 Note On - Duracao: 594720 Nota: C1 Vol.: 45
Chanel 7 Note Off - Duracao: 594900 Nota: C1 Vol.: 61
Chanel 7 Note On - Duracao: 594900 Nota: C1 Vol.: 57
Chanel 8 Note Off - Duracao: 595200 Nota: C1 Vol.: 45
Chanel 8 Note On - Duracao: 595200 Nota: C1 Vol.: 45
Chanel 7 Note Off - Duracao: 595380 Nota: C1 Vol.: 57
Chanel 7 Note On - Duracao: 595380 Nota: C1 Vol.: 48
Chanel 3 Note Off - Duracao: 595500 Nota: C1 Vol.: 44
Chanel 3 Note On - Duracao: 595500 Nota: C1 Vol.: 74
Chanel 4 Note Off - Duracao: 595560 Nota: C1 Vol.: 51
Chanel 4 Note On - Duracao: 595560 Nota: C1 Vol.: 51
Chanel 8 Note Off - Duracao: 595680 Nota: C1 Vol.: 45
Chanel 8 Note On - Duracao: 595680 Nota: C1 Vol.: 40
Chanel 3 Note Off - Duracao: 595740 Nota: C1 Vol.: 74
Chanel 3 Note On - Duracao: 595740 Nota: C1 Vol.: 63
Chanel 3 Note Off - Duracao: 596220 Nota: C1 Vol.: 63
Chanel 3 Note On - Duracao: 596220 Nota: C1 Vol.: 41
Chanel 6 Note Off - Duracao: 596280 Nota: C1 Vol.: 57
Chanel 6 Note On - Duracao: 596280 Nota: C1 Vol.: 49
Chanel 7 Note Off - Duracao: 596340 Nota: C1 Vol.: 48
Chanel 7 Note On - Duracao: 596340 Nota: C1 Vol.: 55
Chanel 4 Note Off - Duracao: 596520 Nota: C1 Vol.: 51
Chanel 4 Note On - Duracao: 596520 Nota: C1 Vol.: 53
Chanel 8 Note Off - Duracao: 596640 Nota: C1 Vol.: 40
Chanel 8 Note On - Duracao: 596640 Nota: C1 Vol.: 62
Chanel 7 Note Off - Duracao: 596820 Nota: C1 Vol.: 55
Chanel 7 Note On - Duracao: 596820 Nota: C1 Vol.: 51
Chanel 8 Note Off - Duracao: 596880 Nota: C1 Vol.: 62
Chanel 8 Note On - Duracao: 596880 Nota: C1 Vol.: 59
Chanel 8 Note Off - Duracao: 597120 Nota: C1 Vol.: 59
Chanel 8 Note On - Duracao: 597120 Nota: C1 Vol.: 55
Chanel 8 Note Off - Duracao: 597360 Nota: C1 Vol.: 55
Chanel 8 Note On - Duracao: 597360 Nota: C1 Vol.: 55
Chanel 4 Note Off - Duracao: 597480 Nota: C1 Vol.: 53
Chanel 4 Note On - Duracao: 597480 Nota: C1 Vol.: 57
Chanel 7 Note Off - Duracao: 597780 Nota: C1 Vol.: 51
Chanel 7 Note On - Duracao: 597780 Nota: C1 Vol.: 52
Chanel 8 Note Off - Duracao: 597840 Nota: C1 Vol.: 55
Chanel 8 Note On - Duracao: 597840 Nota: C1 Vol.: 55
Chanel 4 Note Off - Duracao: 597960 Nota: C1 Vol.: 57
Chanel 4 Note On - Duracao: 597960 Nota: C1 Vol.: 63
Chanel 8 Note Off - Duracao: 598320 Nota: C1 Vol.: 55
Chanel 8 Note On - Duracao: 598320 Nota: C1 Vol.: 51
Chanel 4 Note Off - Duracao: 598440 Nota: C1 Vol.: 63
Chanel 4 Note On - Duracao: 598440 Nota: C1 Vol.: 62
Chanel 7 Note Off - Duracao: 598740 Nota: C1 Vol.: 52
Chanel 7 Note On - Duracao: 598740 Nota: C1 Vol.: 51
Chanel 8 Note Off - Duracao: 598800 Nota: C1 Vol.: 51
Chanel 8 Note On - Duracao: 598800 Nota: C1 Vol.: 47
Chanel 4 Note Off - Duracao: 598920 Nota: C1 Vol.: 62
Chanel 4 Note On - Duracao: 598920 Nota: C1 Vol.: 64
Chanel 4 Note Off - Duracao: 599160 Nota: C1 Vol.: 64
Chanel 4 Note On - Duracao: 599160 Nota: C1 Vol.: 68
Chanel 8 Note Off - Duracao: 599280 Nota: C1 Vol.: 47
Chanel 8 Note On - Duracao: 599280 Nota: C1 Vol.: 47
Chanel 4 Note Off - Duracao: 599400 Nota: C1 Vol.: 68
Chanel 4 Note On - Duracao: 599400 Nota: C1 Vol.: 49
Chanel 7 Note Off - Duracao: 599700 Nota: C1 Vol.: 51
Chanel 7 Note On - Duracao: 599700 Nota: C1 Vol.: 50
Chanel 8 Note Off - Duracao: 599760 Nota: C1 Vol.: 47
Chanel 8 Note On - Duracao: 599760 Nota: C1 Vol.: 44
Chanel 3 Note Off - Duracao: 600060 Nota: C1 Vol.: 41
Chanel 3 Note On - Duracao: 600060 Nota: C1 Vol.: 44
Chanel 6 Note Off - Duracao: 600120 Nota: C1 Vol.: 49
Chanel 6 Note On - Duracao: 600120 Nota: C1 Vol.: 86
Chanel 4 Note Off - Duracao: 600360 Nota: C1 Vol.: 49
Chanel 4 Note On - Duracao: 600360 Nota: C1 Vol.: 50
Chanel 6 Note Off - Duracao: 600360 Nota: C1 Vol.: 86
Chanel 6 Note On - Duracao: 600360 Nota: C1 Vol.: 88
Chanel 6 Note Off - Duracao: 600480 Nota: C1 Vol.: 88
Chanel 6 Note On - Duracao: 600480 Nota: C1 Vol.: 88
Chanel 6 Note Off - Duracao: 600600 Nota: C1 Vol.: 88
Chanel 6 Note On - Duracao: 600600 Nota: C1 Vol.: 97
Chanel 6 Note Off - Duracao: 600660 Nota: C1 Vol.: 97
Chanel 6 Note On - Duracao: 600660 Nota: C1 Vol.: 98
Chanel 7 Note Off - Duracao: 600660 Nota: C1 Vol.: 50
Chanel 7 Note On - Duracao: 600660 Nota: C1 Vol.: 47
Chanel 6 Note Off - Duracao: 600720 Nota: C1 Vol.: 98
Chanel 6 Note On - Duracao: 600720 Nota: C1 Vol.: 99
Chanel 8 Note Off - Duracao: 600720 Nota: C1 Vol.: 44
Chanel 8 Note On - Duracao: 600720 Nota: C1 Vol.: 45
Chanel 6 Note Off - Duracao: 600780 Nota: C1 Vol.: 99
Chanel 6 Note On - Duracao: 600780 Nota: C1 Vol.: 99
Chanel 6 Note Off - Duracao: 600840 Nota: C1 Vol.: 99
Chanel 6 Note On - Duracao: 600840 Nota: C1 Vol.: 100
Chanel 6 Note Off - Duracao: 600900 Nota: C1 Vol.: 100
Chanel 6 Note On - Duracao: 600900 Nota: C1 Vol.: 100
Chanel 6 Note Off - Duracao: 600960 Nota: C1 Vol.: 100
Chanel 6 Note On - Duracao: 600960 Nota: C1 Vol.: 99
Chanel 6 Note Off - Duracao: 601020 Nota: C1 Vol.: 99
Chanel 6 Note On - Duracao: 601020 Nota: C1 Vol.: 88
Chanel 6 Note Off - Duracao: 601140 Nota: C1 Vol.: 88
Chanel 6 Note On - Duracao: 601140 Nota: C1 Vol.: 87
Chanel 6 Note Off - Duracao: 601260 Nota: C1 Vol.: 87
Chanel 6 Note On - Duracao: 601260 Nota: C1 Vol.: 48
Chanel 4 Note Off - Duracao: 601320 Nota: C1 Vol.: 50
Chanel 4 Note On - Duracao: 601320 Nota: C1 Vol.: 65
Chanel 4 Note Off - Duracao: 601560 Nota: C1 Vol.: 65
Chanel 4 Note On - Duracao: 601560 Nota: C1 Vol.: 73
Chanel 7 Note Off - Duracao: 601620 Nota: C1 Vol.: 47
Chanel 7 Note On - Duracao: 601620 Nota: C1 Vol.: 51
Chanel 8 Note Off - Duracao: 601680 Nota: C1 Vol.: 45
Chanel 8 Note On - Duracao: 601680 Nota: C1 Vol.: 44
Chanel 4 Note Off - Duracao: 601800 Nota: C1 Vol.: 73
Chanel 4 Note On - Duracao: 601800 Nota: C1 Vol.: 67
Chanel 4 Note Off - Duracao: 602040 Nota: C1 Vol.: 67
Chanel 4 Note On - Duracao: 602040 Nota: C1 Vol.: 74
Chanel 7 Note Off - Duracao: 602100 Nota: C1 Vol.: 51
Chanel 7 Note On - Duracao: 602100 Nota: C1 Vol.: 56
Chanel 4 Note Off - Duracao: 602160 Nota: C1 Vol.: 74
Chanel 4 Note On - Duracao: 602160 Nota: C1 Vol.: 57
Chanel 7 Note Off - Duracao: 602580 Nota: C1 Vol.: 56
Chanel 7 Note On - Duracao: 602580 Nota: C1 Vol.: 54
Chanel 4 Note Off - Duracao: 602640 Nota: C1 Vol.: 57
Chanel 4 Note On - Duracao: 602640 Nota: C1 Vol.: 42
Chanel 8 Note Off - Duracao: 602640 Nota: C1 Vol.: 44
Chanel 8 Note On - Duracao: 602640 Nota: C1 Vol.: 49
Chanel 7 Note Off - Duracao: 603060 Nota: C1 Vol.: 54
Chanel 7 Note On - Duracao: 603060 Nota: C1 Vol.: 56
Chanel 8 Note Off - Duracao: 603120 Nota: C1 Vol.: 49
Chanel 8 Note On - Duracao: 603120 Nota: C1 Vol.: 58
Chanel 6 Note Off - Duracao: 603180 Nota: C1 Vol.: 48
Chanel 6 Note On - Duracao: 603180 Nota: C1 Vol.: 76
Chanel 8 Note Off - Duracao: 603360 Nota: C1 Vol.: 58
Chanel 8 Note On - Duracao: 603360 Nota: C1 Vol.: 44
Chanel 6 Note Off - Duracao: 603420 Nota: C1 Vol.: 76
Chanel 6 Note On - Duracao: 603420 Nota: C1 Vol.: 100
Chanel 6 Note Off - Duracao: 603480 Nota: C1 Vol.: 100
Chanel 6 Note On - Duracao: 603480 Nota: C1 Vol.: 99
Chanel 6 Note Off - Duracao: 603540 Nota: C1 Vol.: 99
Chanel 6 Note On - Duracao: 603540 Nota: C1 Vol.: 94
Chanel 7 Note Off - Duracao: 603540 Nota: C1 Vol.: 56
Chanel 7 Note On - Duracao: 603540 Nota: C1 Vol.: 55
Chanel 4 Note Off - Duracao: 603600 Nota: C1 Vol.: 42
Chanel 4 Note On - Duracao: 603600 Nota: C1 Vol.: 60
Chanel 6 Note Off - Duracao: 603660 Nota: C1 Vol.: 94
Chanel 6 Note On - Duracao: 603660 Nota: C1 Vol.: 89
Chanel 6 Note Off - Duracao: 603780 Nota: C1 Vol.: 89
Chanel 6 Note On - Duracao: 603780 Nota: C1 Vol.: 97
Chanel 4 Note Off - Duracao: 603840 Nota: C1 Vol.: 60
Chanel 4 Note On - Duracao: 603840 Nota: C1 Vol.: 59
Chanel 6 Note Off - Duracao: 603840 Nota: C1 Vol.: 97
Chanel 6 Note On - Duracao: 603840 Nota: C1 Vol.: 93
Chanel 8 Note Off - Duracao: 603840 Nota: C1 Vol.: 44
Chanel 8 Note On - Duracao: 603840 Nota: C1 Vol.: 60
Chanel 3 Note Off - Duracao: 603900 Nota: C1 Vol.: 44
Chanel 3 Note On - Duracao: 603900 Nota: C1 Vol.: 42
Chanel 6 Note Off - Duracao: 603960 Nota: C1 Vol.: 93
Chanel 6 Note On - Duracao: 603960 Nota: C1 Vol.: 69
Chanel 7 Note Off - Duracao: 604020 Nota: C1 Vol.: 55
Chanel 7 Note On - Duracao: 604020 Nota: C1 Vol.: 48
Chanel 4 Note Off - Duracao: 604080 Nota: C1 Vol.: 59
Chanel 4 Note On - Duracao: 604080 Nota: C1 Vol.: 45
Chanel 8 Note Off - Duracao: 604080 Nota: C1 Vol.: 60
Chanel 8 Note On - Duracao: 604080 Nota: C1 Vol.: 60
Chanel 8 Note Off - Duracao: 604200 Nota: C1 Vol.: 60
Chanel 8 Note On - Duracao: 604200 Nota: C1 Vol.: 64
Chanel 8 Note Off - Duracao: 604320 Nota: C1 Vol.: 64
Chanel 8 Note On - Duracao: 604320 Nota: C1 Vol.: 67
Chanel 6 Note Off - Duracao: 604440 Nota: C1 Vol.: 69
Chanel 6 Note On - Duracao: 604440 Nota: C1 Vol.: 73
Chanel 8 Note Off - Duracao: 604440 Nota: C1 Vol.: 67
Chanel 8 Note On - Duracao: 604440 Nota: C1 Vol.: 64
Chanel 8 Note Off - Duracao: 604560 Nota: C1 Vol.: 64
Chanel 8 Note On - Duracao: 604560 Nota: C1 Vol.: 62
Chanel 6 Note Off - Duracao: 604680 Nota: C1 Vol.: 73
Chanel 6 Note On - Duracao: 604680 Nota: C1 Vol.: 71
Chanel 8 Note Off - Duracao: 604800 Nota: C1 Vol.: 62
Chanel 8 Note On - Duracao: 604800 Nota: C1 Vol.: 52
Chanel 7 Note Off - Duracao: 604980 Nota: C1 Vol.: 48
Chanel 7 Note On - Duracao: 604980 Nota: C1 Vol.: 41
Chanel 4 Note Off - Duracao: 605040 Nota: C1 Vol.: 45
Chanel 4 Note On - Duracao: 605040 Nota: C1 Vol.: 61
Chanel 6 Note Off - Duracao: 605160 Nota: C1 Vol.: 71
Chanel 6 Note On - Duracao: 605160 Nota: C1 Vol.: 66
Chanel 4 Note Off - Duracao: 605280 Nota: C1 Vol.: 61
Chanel 4 Note On - Duracao: 605280 Nota: C1 Vol.: 60
Chanel 8 Note Off - Duracao: 605280 Nota: C1 Vol.: 52
Chanel 8 Note On - Duracao: 605280 Nota: C1 Vol.: 56
Chanel 4 Note Off - Duracao: 605520 Nota: C1 Vol.: 60
Chanel 4 Note On - Duracao: 605520 Nota: C1 Vol.: 59
Chanel 8 Note Off - Duracao: 605520 Nota: C1 Vol.: 56
Chanel 8 Note On - Duracao: 605520 Nota: C1 Vol.: 60
Chanel 6 Note Off - Duracao: 605640 Nota: C1 Vol.: 66
Chanel 6 Note On - Duracao: 605640 Nota: C1 Vol.: 74
Chanel 4 Note Off - Duracao: 605760 Nota: C1 Vol.: 59
Chanel 4 Note On - Duracao: 605760 Nota: C1 Vol.: 40
Chanel 8 Note Off - Duracao: 605760 Nota: C1 Vol.: 60
Chanel 8 Note On - Duracao: 605760 Nota: C1 Vol.: 65
Chanel 6 Note Off - Duracao: 605880 Nota: C1 Vol.: 74
Chanel 6 Note On - Duracao: 605880 Nota: C1 Vol.: 67
Chanel 8 Note Off - Duracao: 606000 Nota: C1 Vol.: 65
Chanel 8 Note On - Duracao: 606000 Nota: C1 Vol.: 66
Chanel 6 Note Off - Duracao: 606120 Nota: C1 Vol.: 67
Chanel 6 Note On - Duracao: 606120 Nota: C1 Vol.: 72
Chanel 8 Note Off - Duracao: 606240 Nota: C1 Vol.: 66
Chanel 8 Note On - Duracao: 606240 Nota: C1 Vol.: 50
Chanel 6 Note Off - Duracao: 606360 Nota: C1 Vol.: 72
Chanel 6 Note On - Duracao: 606360 Nota: C1 Vol.: 68
Chanel 6 Note Off - Duracao: 606600 Nota: C1 Vol.: 68
Chanel 6 Note On - Duracao: 606600 Nota: C1 Vol.: 64
Chanel 4 Note Off - Duracao: 606720 Nota: C1 Vol.: 40
Chanel 4 Note On - Duracao: 606720 Nota: C1 Vol.: 53
Chanel 6 Note Off - Duracao: 606840 Nota: C1 Vol.: 64
Chanel 6 Note On - Duracao: 606840 Nota: C1 Vol.: 70
Chanel 4 Note Off - Duracao: 606960 Nota: C1 Vol.: 53
Chanel 4 Note On - Duracao: 606960 Nota: C1 Vol.: 50
Chanel 6 Note Off - Duracao: 606960 Nota: C1 Vol.: 70
Chanel 6 Note On - Duracao: 606960 Nota: C1 Vol.: 54
Chanel 4 Note Off - Duracao: 607200 Nota: C1 Vol.: 50
Chanel 4 Note On - Duracao: 607200 Nota: C1 Vol.: 40
Chanel 8 Note Off - Duracao: 607200 Nota: C1 Vol.: 50
Chanel 8 Note On - Duracao: 607200 Nota: C1 Vol.: 48
Chanel 6 Note Off - Duracao: 607440 Nota: C1 Vol.: 54
Chanel 6 Note On - Duracao: 607440 Nota: C1 Vol.: 56
Chanel 6 Note Off - Duracao: 607680 Nota: C1 Vol.: 56
Chanel 6 Note On - Duracao: 607680 Nota: C1 Vol.: 48
Chanel 3 Note Off - Duracao: 607740 Nota: C1 Vol.: 42
Chanel 3 Note On - Duracao: 607740 Nota: C1 Vol.: 49
Chanel 6 Note Off - Duracao: 608160 Nota: C1 Vol.: 48
Chanel 6 Note On - Duracao: 608160 Nota: C1 Vol.: 52
Chanel 8 Note Off - Duracao: 608160 Nota: C1 Vol.: 48
Chanel 8 Note On - Duracao: 608160 Nota: C1 Vol.: 47
Chanel 6 Note Off - Duracao: 608640 Nota: C1 Vol.: 52
Chanel 6 Note On - Duracao: 608640 Nota: C1 Vol.: 56
Chanel 7 Note Off - Duracao: 608820 Nota: C1 Vol.: 41
Chanel 7 Note On - Duracao: 608820 Nota: C1 Vol.: 44
Chanel 6 Note Off - Duracao: 608880 Nota: C1 Vol.: 56
Chanel 6 Note On - Duracao: 608880 Nota: C1 Vol.: 59
Chanel 4 Note Off - Duracao: 609120 Nota: C1 Vol.: 40
Chanel 4 Note On - Duracao: 609120 Nota: C1 Vol.: 64
Chanel 6 Note Off - Duracao: 609120 Nota: C1 Vol.: 59
Chanel 6 Note On - Duracao: 609120 Nota: C1 Vol.: 56
Chanel 8 Note Off - Duracao: 609120 Nota: C1 Vol.: 47
Chanel 8 Note On - Duracao: 609120 Nota: C1 Vol.: 48
Chanel 4 Note Off - Duracao: 609360 Nota: C1 Vol.: 64
Chanel 4 Note On - Duracao: 609360 Nota: C1 Vol.: 63
Chanel 6 Note Off - Duracao: 609360 Nota: C1 Vol.: 56
Chanel 6 Note On - Duracao: 609360 Nota: C1 Vol.: 51
Chanel 4 Note Off - Duracao: 609600 Nota: C1 Vol.: 63
Chanel 4 Note On - Duracao: 609600 Nota: C1 Vol.: 54
Chanel 3 Note Off - Duracao: 609660 Nota: C1 Vol.: 49
Chanel 3 Note On - Duracao: 609660 Nota: C1 Vol.: 40
Chanel 6 Note Off - Duracao: 609840 Nota: C1 Vol.: 51
Chanel 6 Note On - Duracao: 609840 Nota: C1 Vol.: 50
Chanel 4 Note Off - Duracao: 610080 Nota: C1 Vol.: 54
Chanel 4 Note On - Duracao: 610080 Nota: C1 Vol.: 60
Chanel 8 Note Off - Duracao: 610080 Nota: C1 Vol.: 48
Chanel 8 Note On - Duracao: 610080 Nota: C1 Vol.: 54
Chanel 6 Note Off - Duracao: 610320 Nota: C1 Vol.: 50
Chanel 6 Note On - Duracao: 610320 Nota: C1 Vol.: 56
Chanel 4 Note Off - Duracao: 610560 Nota: C1 Vol.: 60
Chanel 4 Note On - Duracao: 610560 Nota: C1 Vol.: 78
Chanel 4 Note Off - Duracao: 610680 Nota: C1 Vol.: 78
Chanel 4 Note On - Duracao: 610680 Nota: C1 Vol.: 86
Chanel 4 Note Off - Duracao: 610800 Nota: C1 Vol.: 86
Chanel 4 Note On - Duracao: 610800 Nota: C1 Vol.: 86
Chanel 6 Note Off - Duracao: 610800 Nota: C1 Vol.: 56
Chanel 6 Note On - Duracao: 610800 Nota: C1 Vol.: 52
Chanel 4 Note Off - Duracao: 610920 Nota: C1 Vol.: 86
Chanel 4 Note On - Duracao: 610920 Nota: C1 Vol.: 97
Chanel 4 Note Off - Duracao: 610980 Nota: C1 Vol.: 97
Chanel 4 Note On - Duracao: 610980 Nota: C1 Vol.: 98
Chanel 4 Note Off - Duracao: 611040 Nota: C1 Vol.: 98
Chanel 4 Note On - Duracao: 611040 Nota: C1 Vol.: 99
Chanel 8 Note Off - Duracao: 611040 Nota: C1 Vol.: 54
Chanel 8 Note On - Duracao: 611040 Nota: C1 Vol.: 45
Chanel 4 Note Off - Duracao: 611100 Nota: C1 Vol.: 99
Chanel 4 Note On - Duracao: 611100 Nota: C1 Vol.: 99
Chanel 4 Note Off - Duracao: 611160 Nota: C1 Vol.: 99
Chanel 4 Note On - Duracao: 611160 Nota: C1 Vol.: 99
Chanel 4 Note Off - Duracao: 611220 Nota: C1 Vol.: 99
Chanel 4 Note On - Duracao: 611220 Nota: C1 Vol.: 67
Chanel 6 Note Off - Duracao: 611280 Nota: C1 Vol.: 52
Chanel 6 Note On - Duracao: 611280 Nota: C1 Vol.: 49
Chanel 3 Note Off - Duracao: 611580 Nota: C1 Vol.: 40
Chanel 3 Note On - Duracao: 611580 Nota: C1 Vol.: 49
Chanel 4 Note Off - Duracao: 611700 Nota: C1 Vol.: 67
Chanel 4 Note On - Duracao: 611700 Nota: C1 Vol.: 84
Chanel 6 Note Off - Duracao: 611760 Nota: C1 Vol.: 49
Chanel 6 Note On - Duracao: 611760 Nota: C1 Vol.: 62
Chanel 4 Note Off - Duracao: 611820 Nota: C1 Vol.: 84
Chanel 4 Note On - Duracao: 611820 Nota: C1 Vol.: 95
Chanel 4 Note Off - Duracao: 611880 Nota: C1 Vol.: 95
Chanel 4 Note On - Duracao: 611880 Nota: C1 Vol.: 99
Chanel 4 Note Off - Duracao: 611940 Nota: C1 Vol.: 99
Chanel 4 Note On - Duracao: 611940 Nota: C1 Vol.: 92
Chanel 6 Note Off - Duracao: 612000 Nota: C1 Vol.: 62
Chanel 6 Note On - Duracao: 612000 Nota: C1 Vol.: 65
Chanel 4 Note Off - Duracao: 612060 Nota: C1 Vol.: 92
Chanel 4 Note On - Duracao: 612060 Nota: C1 Vol.: 79
Chanel 6 Note Off - Duracao: 612120 Nota: C1 Vol.: 65
Chanel 6 Note On - Duracao: 612120 Nota: C1 Vol.: 58
Chanel 4 Note Off - Duracao: 612300 Nota: C1 Vol.: 79
Chanel 4 Note On - Duracao: 612300 Nota: C1 Vol.: 62
Chanel 3 Note Off - Duracao: 612540 Nota: C1 Vol.: 49
Chanel 3 Note On - Duracao: 612540 Nota: C1 Vol.: 50
Chanel 6 Note Off - Duracao: 612600 Nota: C1 Vol.: 58
Chanel 6 Note On - Duracao: 612600 Nota: C1 Vol.: 53
Chanel 7 Note Off - Duracao: 612660 Nota: C1 Vol.: 44
Chanel 7 Note On - Duracao: 612660 Nota: C1 Vol.: 50
Chanel 8 Note Off - Duracao: 612960 Nota: C1 Vol.: 45
Chanel 8 Note On - Duracao: 612960 Nota: C1 Vol.: 54
Chanel 6 Note Off - Duracao: 613080 Nota: C1 Vol.: 53
Chanel 6 Note On - Duracao: 613080 Nota: C1 Vol.: 64
Chanel 4 Note Off - Duracao: 613260 Nota: C1 Vol.: 62
Chanel 4 Note On - Duracao: 613260 Nota: C1 Vol.: 85
Chanel 6 Note Off - Duracao: 613320 Nota: C1 Vol.: 64
Chanel 6 Note On - Duracao: 613320 Nota: C1 Vol.: 63
Chanel 4 Note Off - Duracao: 613380 Nota: C1 Vol.: 85
Chanel 4 Note On - Duracao: 613380 Nota: C1 Vol.: 95
Chanel 4 Note Off - Duracao: 613440 Nota: C1 Vol.: 95
Chanel 4 Note On - Duracao: 613440 Nota: C1 Vol.: 98
Chanel 3 Note Off - Duracao: 613500 Nota: C1 Vol.: 50
Chanel 3 Note On - Duracao: 613500 Nota: C1 Vol.: 48
Chanel 4 Note Off - Duracao: 613500 Nota: C1 Vol.: 98
Chanel 4 Note On - Duracao: 613500 Nota: C1 Vol.: 98
Chanel 4 Note Off - Duracao: 613560 Nota: C1 Vol.: 98
Chanel 4 Note On - Duracao: 613560 Nota: C1 Vol.: 100
Chanel 6 Note Off - Duracao: 613560 Nota: C1 Vol.: 63
Chanel 6 Note On - Duracao: 613560 Nota: C1 Vol.: 54
Chanel 4 Note Off - Duracao: 613620 Nota: C1 Vol.: 100
Chanel 4 Note On - Duracao: 613620 Nota: C1 Vol.: 88
Chanel 4 Note Off - Duracao: 613740 Nota: C1 Vol.: 88
Chanel 4 Note On - Duracao: 613740 Nota: C1 Vol.: 99
Chanel 4 Note Off - Duracao: 613800 Nota: C1 Vol.: 99
Chanel 4 Note On - Duracao: 613800 Nota: C1 Vol.: 97
Chanel 4 Note Off - Duracao: 613860 Nota: C1 Vol.: 97
Chanel 4 Note On - Duracao: 613860 Nota: C1 Vol.: 43
Chanel 8 Note Off - Duracao: 613920 Nota: C1 Vol.: 54
Chanel 8 Note On - Duracao: 613920 Nota: C1 Vol.: 56
Chanel 6 Note Off - Duracao: 614040 Nota: C1 Vol.: 54
Chanel 6 Note On - Duracao: 614040 Nota: C1 Vol.: 50
Chanel 6 Note Off - Duracao: 614520 Nota: C1 Vol.: 50
Chanel 6 Note On - Duracao: 614520 Nota: C1 Vol.: 57
Chanel 6 Note Off - Duracao: 614760 Nota: C1 Vol.: 57
Chanel 6 Note On - Duracao: 614760 Nota: C1 Vol.: 52
Chanel 8 Note Off - Duracao: 614880 Nota: C1 Vol.: 56
Chanel 8 Note On - Duracao: 614880 Nota: C1 Vol.: 66
Chanel 6 Note Off - Duracao: 615000 Nota: C1 Vol.: 52
Chanel 6 Note On - Duracao: 615000 Nota: C1 Vol.: 52
Chanel 8 Note Off - Duracao: 615360 Nota: C1 Vol.: 66
Chanel 8 Note On - Duracao: 615360 Nota: C1 Vol.: 69
Chanel 3 Note Off - Duracao: 615420 Nota: C1 Vol.: 48
Chanel 3 Note On - Duracao: 615420 Nota: C1 Vol.: 73
Chanel 6 Note Off - Duracao: 615480 Nota: C1 Vol.: 52
Chanel 6 Note On - Duracao: 615480 Nota: C1 Vol.: 65
Chanel 6 Note Off - Duracao: 615600 Nota: C1 Vol.: 65
Chanel 6 Note On - Duracao: 615600 Nota: C1 Vol.: 59
Chanel 3 Note Off - Duracao: 615660 Nota: C1 Vol.: 73
Chanel 3 Note On - Duracao: 615660 Nota: C1 Vol.: 42
Chanel 6 Note Off - Duracao: 615840 Nota: C1 Vol.: 59
Chanel 6 Note On - Duracao: 615840 Nota: C1 Vol.: 68
Chanel 8 Note Off - Duracao: 615840 Nota: C1 Vol.: 69
Chanel 8 Note On - Duracao: 615840 Nota: C1 Vol.: 71
Chanel 6 Note Off - Duracao: 616080 Nota: C1 Vol.: 68
Chanel 6 Note On - Duracao: 616080 Nota: C1 Vol.: 50
Chanel 8 Note Off - Duracao: 616080 Nota: C1 Vol.: 71
Chanel 8 Note On - Duracao: 616080 Nota: C1 Vol.: 68
Chanel 7 Note Off - Duracao: 616500 Nota: C1 Vol.: 50
Chanel 7 Note On - Duracao: 616500 Nota: C1 Vol.: 55
Chanel 8 Note Off - Duracao: 616560 Nota: C1 Vol.: 68
Chanel 8 Note On - Duracao: 616560 Nota: C1 Vol.: 60
Chanel 8 Note Off - Duracao: 617520 Nota: C1 Vol.: 60
Chanel 8 Note On - Duracao: 617520 Nota: C1 Vol.: 55
Chanel 3 Note Off - Duracao: 617580 Nota: C1 Vol.: 42
Chanel 3 Note On - Duracao: 617580 Nota: C1 Vol.: 70
Chanel 4 Note Off - Duracao: 617700 Nota: C1 Vol.: 43
Chanel 4 Note On - Duracao: 617700 Nota: C1 Vol.: 78
Chanel 3 Note Off - Duracao: 617820 Nota: C1 Vol.: 70
Chanel 3 Note On - Duracao: 617820 Nota: C1 Vol.: 84
Chanel 3 Note Off - Duracao: 617940 Nota: C1 Vol.: 84
Chanel 3 Note On - Duracao: 617940 Nota: C1 Vol.: 88
Chanel 4 Note Off - Duracao: 617940 Nota: C1 Vol.: 78
Chanel 4 Note On - Duracao: 617940 Nota: C1 Vol.: 90
Chanel 6 Note Off - Duracao: 618000 Nota: C1 Vol.: 50
Chanel 6 Note On - Duracao: 618000 Nota: C1 Vol.: 55
Chanel 3 Note Off - Duracao: 618060 Nota: C1 Vol.: 88
Chanel 3 Note On - Duracao: 618060 Nota: C1 Vol.: 100
Chanel 4 Note Off - Duracao: 618060 Nota: C1 Vol.: 90
Chanel 4 Note On - Duracao: 618060 Nota: C1 Vol.: 97
Chanel 3 Note Off - Duracao: 618120 Nota: C1 Vol.: 100
Chanel 3 Note On - Duracao: 618120 Nota: C1 Vol.: 99
Chanel 4 Note Off - Duracao: 618120 Nota: C1 Vol.: 97
Chanel 4 Note On - Duracao: 618120 Nota: C1 Vol.: 98
Chanel 3 Note Off - Duracao: 618180 Nota: C1 Vol.: 99
Chanel 3 Note On - Duracao: 618180 Nota: C1 Vol.: 96
Chanel 4 Note Off - Duracao: 618180 Nota: C1 Vol.: 98
Chanel 4 Note On - Duracao: 618180 Nota: C1 Vol.: 99
Chanel 3 Note Off - Duracao: 618240 Nota: C1 Vol.: 96
Chanel 3 Note On - Duracao: 618240 Nota: C1 Vol.: 99
Chanel 4 Note Off - Duracao: 618240 Nota: C1 Vol.: 99
Chanel 4 Note On - Duracao: 618240 Nota: C1 Vol.: 99
Chanel 3 Note Off - Duracao: 618300 Nota: C1 Vol.: 99
Chanel 3 Note On - Duracao: 618300 Nota: C1 Vol.: 99
Chanel 4 Note Off - Duracao: 618300 Nota: C1 Vol.: 99
Chanel 4 Note On - Duracao: 618300 Nota: C1 Vol.: 97
Chanel 3 Note Off - Duracao: 618360 Nota: C1 Vol.: 99
Chanel 3 Note On - Duracao: 618360 Nota: C1 Vol.: 98
Chanel 4 Note Off - Duracao: 618360 Nota: C1 Vol.: 97
Chanel 4 Note On - Duracao: 618360 Nota: C1 Vol.: 96
Chanel 3 Note Off - Duracao: 618420 Nota: C1 Vol.: 98
Chanel 3 Note On - Duracao: 618420 Nota: C1 Vol.: 97
Chanel 4 Note Off - Duracao: 618420 Nota: C1 Vol.: 96
Chanel 4 Note On - Duracao: 618420 Nota: C1 Vol.: 98
Chanel 3 Note Off - Duracao: 618480 Nota: C1 Vol.: 97
Chanel 3 Note On - Duracao: 618480 Nota: C1 Vol.: 78
Chanel 4 Note Off - Duracao: 618480 Nota: C1 Vol.: 98
Chanel 4 Note On - Duracao: 618480 Nota: C1 Vol.: 60
Chanel 8 Note Off - Duracao: 618480 Nota: C1 Vol.: 55
Chanel 8 Note On - Duracao: 618480 Nota: C1 Vol.: 52
Chanel 3 Note Off - Duracao: 618720 Nota: C1 Vol.: 78
Chanel 3 Note On - Duracao: 618720 Nota: C1 Vol.: 44
Chanel 4 Note Off - Duracao: 619440 Nota: C1 Vol.: 60
Chanel 4 Note On - Duracao: 619440 Nota: C1 Vol.: 57
Chanel 8 Note Off - Duracao: 619440 Nota: C1 Vol.: 52
Chanel 8 Note On - Duracao: 619440 Nota: C1 Vol.: 48
Chanel 6 Note Off - Duracao: 619920 Nota: C1 Vol.: 55
Chanel 6 Note On - Duracao: 619920 Nota: C1 Vol.: 59
Chanel 7 Note Off - Duracao: 620340 Nota: C1 Vol.: 55
Chanel 7 Note On - Duracao: 620340 Nota: C1 Vol.: 58
Chanel 4 Note Off - Duracao: 620400 Nota: C1 Vol.: 57
Chanel 4 Note On - Duracao: 620400 Nota: C1 Vol.: 88
Chanel 4 Note Off - Duracao: 620520 Nota: C1 Vol.: 88
Chanel 4 Note On - Duracao: 620520 Nota: C1 Vol.: 98
Chanel 4 Note Off - Duracao: 620580 Nota: C1 Vol.: 98
Chanel 4 Note On - Duracao: 620580 Nota: C1 Vol.: 99
Chanel 3 Note Off - Duracao: 620640 Nota: C1 Vol.: 44
Chanel 4 Note Off - Duracao: 620640 Nota: C1 Vol.: 99
Chanel 4 Note On - Duracao: 620640 Nota: C1 Vol.: 98
Chanel 4 Note Off - Duracao: 620700 Nota: C1 Vol.: 98
Chanel 4 Note On - Duracao: 620700 Nota: C1 Vol.: 98
Chanel 4 Note Off - Duracao: 620760 Nota: C1 Vol.: 98
Chanel 4 Note On - Duracao: 620760 Nota: C1 Vol.: 97
Chanel 4 Note Off - Duracao: 620820 Nota: C1 Vol.: 97
Chanel 4 Note On - Duracao: 620820 Nota: C1 Vol.: 94
Chanel 4 Note Off - Duracao: 620940 Nota: C1 Vol.: 94
Chanel 4 Note On - Duracao: 620940 Nota: C1 Vol.: 50
Chanel 8 Note Off - Duracao: 621360 Nota: C1 Vol.: 48
Chanel 8 Note On - Duracao: 621360 Nota: C1 Vol.: 44
Chanel 4 Note Off - Duracao: 622860 Nota: C1 Vol.: 50
Chanel 4 Note On - Duracao: 622860 Nota: C1 Vol.: 50
Chanel 8 Note Off - Duracao: 623280 Nota: C1 Vol.: 44
Chanel 8 Note On - Duracao: 623280 Nota: C1 Vol.: 45
Chanel 6 Note Off - Duracao: 623760 Nota: C1 Vol.: 59
Chanel 6 Note On - Duracao: 623760 Nota: C1 Vol.: 63
Chanel 7 Note Off - Duracao: 624180 Nota: C1 Vol.: 58
Chanel 7 Note On - Duracao: 624180 Nota: C1 Vol.: 61
Chanel 4 Note Off - Duracao: 624780 Nota: C1 Vol.: 50
Chanel 4 Note On - Duracao: 624780 Nota: C1 Vol.: 86
Chanel 4 Note Off - Duracao: 624900 Nota: C1 Vol.: 86
Chanel 4 Note On - Duracao: 624900 Nota: C1 Vol.: 87
Chanel 4 Note Off - Duracao: 625020 Nota: C1 Vol.: 87
Chanel 4 Note On - Duracao: 625020 Nota: C1 Vol.: 94
Chanel 4 Note Off - Duracao: 625080 Nota: C1 Vol.: 94
Chanel 4 Note On - Duracao: 625080 Nota: C1 Vol.: 100
Chanel 4 Note Off - Duracao: 625140 Nota: C1 Vol.: 100
Chanel 4 Note On - Duracao: 625140 Nota: C1 Vol.: 100
Chanel 4 Note Off - Duracao: 625200 Nota: C1 Vol.: 100
Chanel 4 Note On - Duracao: 625200 Nota: C1 Vol.: 100
Chanel 8 Note Off - Duracao: 625200 Nota: C1 Vol.: 45
Chanel 8 Note On - Duracao: 625200 Nota: C1 Vol.: 41
Chanel 4 Note Off - Duracao: 625260 Nota: C1 Vol.: 100
Chanel 4 Note On - Duracao: 625260 Nota: C1 Vol.: 93
Chanel 4 Note Off - Duracao: 625380 Nota: C1 Vol.: 93
Chanel 4 Note On - Duracao: 625380 Nota: C1 Vol.: 95
Chanel 4 Note Off - Duracao: 625500 Nota: C1 Vol.: 95
Chanel 4 Note On - Duracao: 625500 Nota: C1 Vol.: 73
Chanel 4 Note Off - Duracao: 625980 Nota: C1 Vol.: 73
Chanel 4 Note On - Duracao: 625980 Nota: C1 Vol.: 71
Chanel 4 Note Off - Duracao: 626460 Nota: C1 Vol.: 71
Chanel 4 Note On - Duracao: 626460 Nota: C1 Vol.: 67
Chanel 4 Note Off - Duracao: 626940 Nota: C1 Vol.: 67
Chanel 4 Note On - Duracao: 626940 Nota: C1 Vol.: 89
Chanel 4 Note Off - Duracao: 627060 Nota: C1 Vol.: 89
Chanel 4 Note On - Duracao: 627060 Nota: C1 Vol.: 98
Chanel 4 Note Off - Duracao: 627120 Nota: C1 Vol.: 98
Chanel 4 Note On - Duracao: 627120 Nota: C1 Vol.: 99
Chanel 8 Note Off - Duracao: 627120 Nota: C1 Vol.: 41
Chanel 8 Note On - Duracao: 627120 Nota: C1 Vol.: 40
Chanel 4 Note Off - Duracao: 627180 Nota: C1 Vol.: 99
Chanel 4 Note On - Duracao: 627180 Nota: C1 Vol.: 99
Chanel 4 Note Off - Duracao: 627240 Nota: C1 Vol.: 99
Chanel 4 Note On - Duracao: 627240 Nota: C1 Vol.: 99
Chanel 4 Note Off - Duracao: 627300 Nota: C1 Vol.: 99
Chanel 4 Note On - Duracao: 627300 Nota: C1 Vol.: 96
Chanel 4 Note Off - Duracao: 627420 Nota: C1 Vol.: 96
Chanel 4 Note On - Duracao: 627420 Nota: C1 Vol.: 97
Chanel 4 Note Off - Duracao: 627540 Nota: C1 Vol.: 97
Chanel 4 Note On - Duracao: 627540 Nota: C1 Vol.: 96
Chanel 6 Note Off - Duracao: 627600 Nota: C1 Vol.: 63
Chanel 6 Note On - Duracao: 627600 Nota: C1 Vol.: 59
Chanel 4 Note Off - Duracao: 627660 Nota: C1 Vol.: 96
Chanel 4 Note On - Duracao: 627660 Nota: C1 Vol.: 97
Chanel 4 Note Off - Duracao: 627780 Nota: C1 Vol.: 97
Chanel 4 Note On - Duracao: 627780 Nota: C1 Vol.: 91
Chanel 4 Note Off - Duracao: 627900 Nota: C1 Vol.: 91
Chanel 4 Note On - Duracao: 627900 Nota: C1 Vol.: 87
Chanel 4 Note Off - Duracao: 628020 Nota: C1 Vol.: 87
Chanel 4 Note On - Duracao: 628020 Nota: C1 Vol.: 68
Chanel 7 Note Off - Duracao: 628020 Nota: C1 Vol.: 61
Chanel 7 Note On - Duracao: 628020 Nota: C1 Vol.: 62
Chanel 4 Note Off - Duracao: 628260 Nota: C1 Vol.: 68
Chanel 4 Note On - Duracao: 628260 Nota: C1 Vol.: 52
Chanel 4 Note Off - Duracao: 628740 Nota: C1 Vol.: 52
Chanel 4 Note On - Duracao: 628740 Nota: C1 Vol.: 48
Chanel 8 Note Off - Duracao: 629040 Nota: C1 Vol.: 40
Chanel 8 Note On - Duracao: 629040 Nota: C1 Vol.: 45
Chanel 4 Note Off - Duracao: 629700 Nota: C1 Vol.: 48
Chanel 4 Note On - Duracao: 629700 Nota: C1 Vol.: 53
Chanel 8 Note Off - Duracao: 630000 Nota: C1 Vol.: 45
Chanel 8 Note On - Duracao: 630000 Nota: C1 Vol.: 45
Chanel 4 Note Off - Duracao: 630660 Nota: C1 Vol.: 53
Chanel 4 Note On - Duracao: 630660 Nota: C1 Vol.: 53
Chanel 8 Note Off - Duracao: 630960 Nota: C1 Vol.: 45
Chanel 8 Note On - Duracao: 630960 Nota: C1 Vol.: 46
Chanel 6 Note Off - Duracao: 631440 Nota: C1 Vol.: 59
Chanel 6 Note On - Duracao: 631440 Nota: C1 Vol.: 60
Chanel 4 Note Off - Duracao: 631620 Nota: C1 Vol.: 53
Chanel 4 Note On - Duracao: 631620 Nota: C1 Vol.: 59
Chanel 7 Note Off - Duracao: 631860 Nota: C1 Vol.: 62
Chanel 7 Note On - Duracao: 631860 Nota: C1 Vol.: 63
Chanel 8 Note Off - Duracao: 631920 Nota: C1 Vol.: 46
Chanel 8 Note On - Duracao: 631920 Nota: C1 Vol.: 44
Chanel 4 Note Off - Duracao: 632100 Nota: C1 Vol.: 59
Chanel 4 Note On - Duracao: 632100 Nota: C1 Vol.: 43
Chanel 8 Note Off - Duracao: 633840 Nota: C1 Vol.: 44
Chanel 8 Note On - Duracao: 633840 Nota: C1 Vol.: 46
Chanel 4 Note Off - Duracao: 634020 Nota: C1 Vol.: 43
Chanel 4 Note On - Duracao: 634020 Nota: C1 Vol.: 46
Chanel 8 Note Off - Duracao: 634800 Nota: C1 Vol.: 46
Chanel 8 Note On - Duracao: 634800 Nota: C1 Vol.: 43
Chanel 4 Note Off - Duracao: 634980 Nota: C1 Vol.: 46
Chanel 4 Note On - Duracao: 634980 Nota: C1 Vol.: 51
Chanel 6 Note Off - Duracao: 635280 Nota: C1 Vol.: 60
Chanel 6 Note On - Duracao: 635280 Nota: C1 Vol.: 65
Chanel 7 Note Off - Duracao: 635700 Nota: C1 Vol.: 63
Chanel 7 Note On - Duracao: 635700 Nota: C1 Vol.: 63
Chanel 8 Note Off - Duracao: 635760 Nota: C1 Vol.: 43
Chanel 8 Note On - Duracao: 635760 Nota: C1 Vol.: 60
Chanel 4 Note Off - Duracao: 635940 Nota: C1 Vol.: 51
Chanel 4 Note On - Duracao: 635940 Nota: C1 Vol.: 58
Chanel 8 Note Off - Duracao: 636240 Nota: C1 Vol.: 60
Chanel 8 Note On - Duracao: 636240 Nota: C1 Vol.: 65
Chanel 4 Note Off - Duracao: 636420 Nota: C1 Vol.: 58
Chanel 4 Note On - Duracao: 636420 Nota: C1 Vol.: 62
Chanel 8 Note Off - Duracao: 636480 Nota: C1 Vol.: 65
Chanel 8 Note On - Duracao: 636480 Nota: C1 Vol.: 67
Chanel 8 Note Off - Duracao: 636720 Nota: C1 Vol.: 67
Chanel 8 Note On - Duracao: 636720 Nota: C1 Vol.: 73
Chanel 4 Note Off - Duracao: 636900 Nota: C1 Vol.: 62
Chanel 4 Note On - Duracao: 636900 Nota: C1 Vol.: 67
Chanel 8 Note Off - Duracao: 636960 Nota: C1 Vol.: 73
Chanel 8 Note On - Duracao: 636960 Nota: C1 Vol.: 66
Chanel 4 Note Off - Duracao: 637140 Nota: C1 Vol.: 67
Chanel 4 Note On - Duracao: 637140 Nota: C1 Vol.: 64
Chanel 8 Note Off - Duracao: 637200 Nota: C1 Vol.: 66
Chanel 8 Note On - Duracao: 637200 Nota: C1 Vol.: 60
Chanel 4 Note Off - Duracao: 637380 Nota: C1 Vol.: 64
Chanel 4 Note On - Duracao: 637380 Nota: C1 Vol.: 62
Chanel 8 Note Off - Duracao: 637680 Nota: C1 Vol.: 60
Chanel 8 Note On - Duracao: 637680 Nota: C1 Vol.: 61
Chanel 4 Note Off - Duracao: 637860 Nota: C1 Vol.: 62
Chanel 4 Note On - Duracao: 637860 Nota: C1 Vol.: 71
Chanel 4 Note Off - Duracao: 638100 Nota: C1 Vol.: 71
Chanel 4 Note On - Duracao: 638100 Nota: C1 Vol.: 71
Chanel 8 Note Off - Duracao: 638160 Nota: C1 Vol.: 61
Chanel 8 Note On - Duracao: 638160 Nota: C1 Vol.: 54
Chanel 4 Note Off - Duracao: 638340 Nota: C1 Vol.: 71
Chanel 4 Note On - Duracao: 638340 Nota: C1 Vol.: 70
Chanel 4 Note Off - Duracao: 638580 Nota: C1 Vol.: 70
Chanel 4 Note On - Duracao: 638580 Nota: C1 Vol.: 65
Chanel 8 Note Off - Duracao: 638640 Nota: C1 Vol.: 54
Chanel 4 Note Off - Duracao: 638820 Nota: C1 Vol.: 65
Chanel 4 Note On - Duracao: 638820 Nota: C1 Vol.: 49
Chanel 6 Note Off - Duracao: 639120 Nota: C1 Vol.: 65
Chanel 6 Note On - Duracao: 639120 Nota: C1 Vol.: 70
Chanel 7 Note Off - Duracao: 639540 Nota: C1 Vol.: 63
Chanel 7 Note On - Duracao: 639540 Nota: C1 Vol.: 62
Chanel 4 Note Off - Duracao: 639780 Nota: C1 Vol.: 49
Chanel 4 Note On - Duracao: 639780 Nota: C1 Vol.: 49
Chanel 4 Note Off - Duracao: 640740 Nota: C1 Vol.: 49
Chanel 4 Note On - Duracao: 640740 Nota: C1 Vol.: 61
Chanel 4 Note Off - Duracao: 640980 Nota: C1 Vol.: 61
Chanel 4 Note On - Duracao: 640980 Nota: C1 Vol.: 59
Chanel 6 Note Off - Duracao: 641040 Nota: C1 Vol.: 70
Chanel 6 Note On - Duracao: 641040 Nota: C1 Vol.: 61
Chanel 4 Note Off - Duracao: 641220 Nota: C1 Vol.: 59
Chanel 4 Note On - Duracao: 641220 Nota: C1 Vol.: 57
Chanel 4 Note Off - Duracao: 641700 Nota: C1 Vol.: 57
Chanel 4 Note On - Duracao: 641700 Nota: C1 Vol.: 48
Chanel 4 Note Off - Duracao: 642660 Nota: C1 Vol.: 48
Chanel 4 Note On - Duracao: 642660 Nota: C1 Vol.: 60
Chanel 4 Note Off - Duracao: 642900 Nota: C1 Vol.: 60
Chanel 4 Note On - Duracao: 642900 Nota: C1 Vol.: 59
Chanel 4 Note Off - Duracao: 643140 Nota: C1 Vol.: 59
Chanel 4 Note On - Duracao: 643140 Nota: C1 Vol.: 40
Chanel 7 Note Off - Duracao: 643380 Nota: C1 Vol.: 62
Chanel 7 Note On - Duracao: 643380 Nota: C1 Vol.: 63
Chanel 4 Note Off - Duracao: 644100 Nota: C1 Vol.: 40
Chanel 4 Note On - Duracao: 644100 Nota: C1 Vol.: 49
Chanel 4 Note Off - Duracao: 644340 Nota: C1 Vol.: 49
Chanel 4 Note On - Duracao: 644340 Nota: C1 Vol.: 48
Chanel 4 Note Off - Duracao: 644580 Nota: C1 Vol.: 48
Chanel 4 Note On - Duracao: 644580 Nota: C1 Vol.: 43
Chanel 6 Note Off - Duracao: 644880 Nota: C1 Vol.: 61
Chanel 6 Note On - Duracao: 644880 Nota: C1 Vol.: 59
Chanel 4 Note Off - Duracao: 645540 Nota: C1 Vol.: 43
Chanel 4 Note On - Duracao: 645540 Nota: C1 Vol.: 44
Chanel 4 Note Off - Duracao: 646500 Nota: C1 Vol.: 44
Chanel 4 Note On - Duracao: 646500 Nota: C1 Vol.: 61
Chanel 4 Note Off - Duracao: 646740 Nota: C1 Vol.: 61
Chanel 4 Note On - Duracao: 646740 Nota: C1 Vol.: 62
Chanel 4 Note Off - Duracao: 646980 Nota: C1 Vol.: 62
Chanel 4 Note On - Duracao: 646980 Nota: C1 Vol.: 61
Chanel 7 Note Off - Duracao: 647220 Nota: C1 Vol.: 63
Chanel 7 Note On - Duracao: 647220 Nota: C1 Vol.: 62
Chanel 4 Note Off - Duracao: 647460 Nota: C1 Vol.: 61
Chanel 4 Note On - Duracao: 647460 Nota: C1 Vol.: 57
Chanel 4 Note Off - Duracao: 647940 Nota: C1 Vol.: 57
Chanel 4 Note On - Duracao: 647940 Nota: C1 Vol.: 70
Chanel 4 Note Off - Duracao: 648180 Nota: C1 Vol.: 70
Chanel 4 Note On - Duracao: 648180 Nota: C1 Vol.: 84
Chanel 4 Note Off - Duracao: 648300 Nota: C1 Vol.: 84
Chanel 4 Note On - Duracao: 648300 Nota: C1 Vol.: 92
Chanel 4 Note Off - Duracao: 648360 Nota: C1 Vol.: 92
Chanel 4 Note On - Duracao: 648360 Nota: C1 Vol.: 95
Chanel 4 Note Off - Duracao: 648420 Nota: C1 Vol.: 95
Chanel 4 Note On - Duracao: 648420 Nota: C1 Vol.: 98
Chanel 4 Note Off - Duracao: 648480 Nota: C1 Vol.: 98
Chanel 4 Note On - Duracao: 648480 Nota: C1 Vol.: 98
Chanel 4 Note Off - Duracao: 648540 Nota: C1 Vol.: 98
Chanel 4 Note On - Duracao: 648540 Nota: C1 Vol.: 99
Chanel 4 Note Off - Duracao: 648600 Nota: C1 Vol.: 99
Chanel 4 Note On - Duracao: 648600 Nota: C1 Vol.: 90
Chanel 4 Note Off - Duracao: 648720 Nota: C1 Vol.: 90
Chanel 4 Note On - Duracao: 648720 Nota: C1 Vol.: 99
Chanel 6 Note Off - Duracao: 648720 Nota: C1 Vol.: 59
Chanel 6 Note On - Duracao: 648720 Nota: C1 Vol.: 61
Chanel 4 Note Off - Duracao: 648780 Nota: C1 Vol.: 99
Chanel 4 Note On - Duracao: 648780 Nota: C1 Vol.: 98
Chanel 4 Note Off - Duracao: 648840 Nota: C1 Vol.: 98
Chanel 4 Note On - Duracao: 648840 Nota: C1 Vol.: 99
Chanel 4 Note Off - Duracao: 648900 Nota: C1 Vol.: 99
Chanel 4 Note On - Duracao: 648900 Nota: C1 Vol.: 100
Chanel 4 Note Off - Duracao: 648960 Nota: C1 Vol.: 100
Chanel 4 Note On - Duracao: 648960 Nota: C1 Vol.: 100
Chanel 4 Note Off - Duracao: 649020 Nota: C1 Vol.: 100
Chanel 4 Note On - Duracao: 649020 Nota: C1 Vol.: 90
Chanel 4 Note Off - Duracao: 649140 Nota: C1 Vol.: 90
Chanel 4 Note On - Duracao: 649140 Nota: C1 Vol.: 99
Chanel 4 Note Off - Duracao: 649200 Nota: C1 Vol.: 99
Chanel 4 Note On - Duracao: 649200 Nota: C1 Vol.: 99
Chanel 4 Note Off - Duracao: 649260 Nota: C1 Vol.: 99
Chanel 4 Note On - Duracao: 649260 Nota: C1 Vol.: 98
Chanel 4 Note Off - Duracao: 649320 Nota: C1 Vol.: 98
Chanel 4 Note On - Duracao: 649320 Nota: C1 Vol.: 99
Chanel 4 Note Off - Duracao: 649380 Nota: C1 Vol.: 99
Chanel 4 Note On - Duracao: 649380 Nota: C1 Vol.: 97
Chanel 4 Note Off - Duracao: 649440 Nota: C1 Vol.: 97
Chanel 4 Note On - Duracao: 649440 Nota: C1 Vol.: 98
Chanel 4 Note Off - Duracao: 649500 Nota: C1 Vol.: 98
Chanel 4 Note On - Duracao: 649500 Nota: C1 Vol.: 99
Chanel 4 Note Off - Duracao: 649560 Nota: C1 Vol.: 99
Chanel 4 Note On - Duracao: 649560 Nota: C1 Vol.: 80
Chanel 4 Note Off - Duracao: 649800 Nota: C1 Vol.: 80
Chanel 4 Note On - Duracao: 649800 Nota: C1 Vol.: 47
Chanel 7 Note Off - Duracao: 651060 Nota: C1 Vol.: 62
Chanel 7 Note On - Duracao: 651060 Nota: C1 Vol.: 60
Chanel 4 Note Off - Duracao: 651720 Nota: C1 Vol.: 47
Chanel 4 Note On - Duracao: 651720 Nota: C1 Vol.: 85
Chanel 4 Note Off - Duracao: 651840 Nota: C1 Vol.: 85
Chanel 4 Note On - Duracao: 651840 Nota: C1 Vol.: 94
Chanel 4 Note Off - Duracao: 651900 Nota: C1 Vol.: 94
Chanel 4 Note On - Duracao: 651900 Nota: C1 Vol.: 97
Chanel 4 Note Off - Duracao: 651960 Nota: C1 Vol.: 97
Chanel 4 Note On - Duracao: 651960 Nota: C1 Vol.: 100
Chanel 4 Note Off - Duracao: 652020 Nota: C1 Vol.: 100
Chanel 4 Note On - Duracao: 652020 Nota: C1 Vol.: 99
Chanel 4 Note Off - Duracao: 652080 Nota: C1 Vol.: 99
Chanel 4 Note On - Duracao: 652080 Nota: C1 Vol.: 100
Chanel 4 Note Off - Duracao: 652140 Nota: C1 Vol.: 100
Chanel 4 Note On - Duracao: 652140 Nota: C1 Vol.: 99
Chanel 4 Note Off - Duracao: 652200 Nota: C1 Vol.: 99
Chanel 4 Note On - Duracao: 652200 Nota: C1 Vol.: 99
Chanel 4 Note Off - Duracao: 652260 Nota: C1 Vol.: 99
Chanel 4 Note On - Duracao: 652260 Nota: C1 Vol.: 98
Chanel 4 Note Off - Duracao: 652320 Nota: C1 Vol.: 98
Chanel 4 Note On - Duracao: 652320 Nota: C1 Vol.: 94
Chanel 4 Note Off - Duracao: 652440 Nota: C1 Vol.: 94
Chanel 4 Note On - Duracao: 652440 Nota: C1 Vol.: 64
Chanel 6 Note Off - Duracao: 652560 Nota: C1 Vol.: 61
Chanel 6 Note On - Duracao: 652560 Nota: C1 Vol.: 60
Chanel 4 Note Off - Duracao: 653400 Nota: C1 Vol.: 64
Chanel 4 Note On - Duracao: 653400 Nota: C1 Vol.: 63
Chanel 4 Note Off - Duracao: 654360 Nota: C1 Vol.: 63
Chanel 4 Note On - Duracao: 654360 Nota: C1 Vol.: 96
Chanel 4 Note Off - Duracao: 654420 Nota: C1 Vol.: 96
Chanel 4 Note On - Duracao: 654420 Nota: C1 Vol.: 98
Chanel 4 Note Off - Duracao: 654480 Nota: C1 Vol.: 98
Chanel 4 Note On - Duracao: 654480 Nota: C1 Vol.: 99
Chanel 4 Note Off - Duracao: 654540 Nota: C1 Vol.: 99
Chanel 4 Note On - Duracao: 654540 Nota: C1 Vol.: 97
Chanel 4 Note Off - Duracao: 654600 Nota: C1 Vol.: 97
Chanel 4 Note On - Duracao: 654600 Nota: C1 Vol.: 98
Chanel 4 Note Off - Duracao: 654660 Nota: C1 Vol.: 98
Chanel 4 Note On - Duracao: 654660 Nota: C1 Vol.: 73
Chanel 7 Note Off - Duracao: 654900 Nota: C1 Vol.: 60
Chanel 7 Note On - Duracao: 654900 Nota: C1 Vol.: 60
Chanel 4 Note Off - Duracao: 655140 Nota: C1 Vol.: 73
Chanel 4 Note On - Duracao: 655140 Nota: C1 Vol.: 42
Chanel 6 Note Off - Duracao: 656400 Nota: C1 Vol.: 60
Chanel 6 Note On - Duracao: 656400 Nota: C1 Vol.: 63
Chanel 7 Note Off - Duracao: 658740 Nota: C1 Vol.: 60
Chanel 7 Note On - Duracao: 658740 Nota: C1 Vol.: 62
Chanel 4 Note Off - Duracao: 658980 Nota: C1 Vol.: 42
Chanel 4 Note On - Duracao: 658980 Nota: C1 Vol.: 77
Chanel 4 Note Off - Duracao: 659220 Nota: C1 Vol.: 77
Chanel 4 Note On - Duracao: 659220 Nota: C1 Vol.: 89
Chanel 4 Note Off - Duracao: 659340 Nota: C1 Vol.: 89
Chanel 4 Note On - Duracao: 659340 Nota: C1 Vol.: 92
Chanel 4 Note Off - Duracao: 659460 Nota: C1 Vol.: 92
Chanel 4 Note On - Duracao: 659460 Nota: C1 Vol.: 97
Chanel 4 Note Off - Duracao: 659520 Nota: C1 Vol.: 97
Chanel 6 Note Off - Duracao: 660240 Nota: C1 Vol.: 63
Chanel 6 Note On - Duracao: 660240 Nota: C1 Vol.: 63
Chanel 7 Note Off - Duracao: 662580 Nota: C1 Vol.: 62
Chanel 7 Note On - Duracao: 662580 Nota: C1 Vol.: 62
Chanel 6 Note Off - Duracao: 664080 Nota: C1 Vol.: 63
Chanel 6 Note On - Duracao: 664080 Nota: C1 Vol.: 63
Chanel 7 Note Off - Duracao: 666420 Nota: C1 Vol.: 62
Chanel 7 Note On - Duracao: 666420 Nota: C1 Vol.: 62
Chanel 6 Note Off - Duracao: 667920 Nota: C1 Vol.: 63
Chanel 6 Note On - Duracao: 667920 Nota: C1 Vol.: 68
Chanel 7 Note Off - Duracao: 670260 Nota: C1 Vol.: 62
Chanel 7 Note On - Duracao: 670260 Nota: C1 Vol.: 65
Chanel 6 Note Off - Duracao: 671760 Nota: C1 Vol.: 68
Chanel 6 Note On - Duracao: 671760 Nota: C1 Vol.: 72
Chanel 6 Note Off - Duracao: 673680 Nota: C1 Vol.: 72
Chanel 6 Note On - Duracao: 673680 Nota: C1 Vol.: 72
Chanel 7 Note Off - Duracao: 674100 Nota: C1 Vol.: 65
Chanel 7 Note On - Duracao: 674100 Nota: C1 Vol.: 66
Chanel 6 Note Off - Duracao: 675600 Nota: C1 Vol.: 72
Chanel 6 Note On - Duracao: 675600 Nota: C1 Vol.: 71
Chanel 6 Note Off - Duracao: 677520 Nota: C1 Vol.: 71
Chanel 6 Note On - Duracao: 677520 Nota: C1 Vol.: 72
Chanel 7 Note Off - Duracao: 677940 Nota: C1 Vol.: 66
Chanel 7 Note On - Duracao: 677940 Nota: C1 Vol.: 67
Chanel 6 Note Off - Duracao: 679440 Nota: C1 Vol.: 72
Chanel 6 Note On - Duracao: 679440 Nota: C1 Vol.: 74
Chanel 6 Note Off - Duracao: 681360 Nota: C1 Vol.: 74
Chanel 6 Note On - Duracao: 681360 Nota: C1 Vol.: 75
Chanel 7 Note Off - Duracao: 681780 Nota: C1 Vol.: 67
Chanel 7 Note On - Duracao: 681780 Nota: C1 Vol.: 70
Chanel 6 Note Off - Duracao: 683280 Nota: C1 Vol.: 75
Chanel 6 Note On - Duracao: 683280 Nota: C1 Vol.: 74
Chanel 6 Note Off - Duracao: 685200 Nota: C1 Vol.: 74
Chanel 6 Note On - Duracao: 685200 Nota: C1 Vol.: 74
Chanel 7 Note Off - Duracao: 685620 Nota: C1 Vol.: 70
Chanel 7 Note On - Duracao: 685620 Nota: C1 Vol.: 69
Chanel 6 Note Off - Duracao: 687120 Nota: C1 Vol.: 74
Chanel 6 Note On - Duracao: 687120 Nota: C1 Vol.: 73
Chanel 6 Note Off - Duracao: 689040 Nota: C1 Vol.: 73
Chanel 6 Note On - Duracao: 689040 Nota: C1 Vol.: 73
Chanel 7 Note Off - Duracao: 689460 Nota: C1 Vol.: 69
Chanel 7 Note On - Duracao: 689460 Nota: C1 Vol.: 66
Chanel 6 Note Off - Duracao: 690960 Nota: C1 Vol.: 73
Chanel 6 Note On - Duracao: 690960 Nota: C1 Vol.: 73
Chanel 6 Note Off - Duracao: 692880 Nota: C1 Vol.: 73
Chanel 6 Note On - Duracao: 692880 Nota: C1 Vol.: 72
Chanel 7 Note Off - Duracao: 693300 Nota: C1 Vol.: 66
Chanel 7 Note On - Duracao: 693300 Nota: C1 Vol.: 64
Chanel 6 Note Off - Duracao: 694800 Nota: C1 Vol.: 72
Chanel 6 Note On - Duracao: 694800 Nota: C1 Vol.: 73
Chanel 6 Note Off - Duracao: 696720 Nota: C1 Vol.: 73
Chanel 6 Note On - Duracao: 696720 Nota: C1 Vol.: 72
Chanel 7 Note Off - Duracao: 697140 Nota: C1 Vol.: 64
Chanel 7 Note On - Duracao: 697140 Nota: C1 Vol.: 64
Chanel 6 Note Off - Duracao: 698640 Nota: C1 Vol.: 72
Chanel 6 Note On - Duracao: 698640 Nota: C1 Vol.: 68
Chanel 6 Note Off - Duracao: 700560 Nota: C1 Vol.: 68
Chanel 6 Note On - Duracao: 700560 Nota: C1 Vol.: 58
Chanel 7 Note Off - Duracao: 700980 Nota: C1 Vol.: 64
Chanel 7 Note On - Duracao: 700980 Nota: C1 Vol.: 63
Chanel 6 Note Off - Duracao: 704400 Nota: C1 Vol.: 58
Chanel 6 Note On - Duracao: 704400 Nota: C1 Vol.: 52
Chanel 7 Note Off - Duracao: 704820 Nota: C1 Vol.: 63
Chanel 7 Note On - Duracao: 704820 Nota: C1 Vol.: 61
Chanel 6 Note Off - Duracao: 708240 Nota: C1 Vol.: 52
Chanel 6 Note On - Duracao: 708240 Nota: C1 Vol.: 56
Chanel 7 Note Off - Duracao: 708660 Nota: C1 Vol.: 61
Chanel 7 Note On - Duracao: 708660 Nota: C1 Vol.: 60
Chanel 6 Note Off - Duracao: 710160 Nota: C1 Vol.: 56
Chanel 6 Note On - Duracao: 710160 Nota: C1 Vol.: 57
Chanel 6 Note Off - Duracao: 712080 Nota: C1 Vol.: 57
Chanel 6 Note On - Duracao: 712080 Nota: C1 Vol.: 57
Chanel 7 Note Off - Duracao: 712500 Nota: C1 Vol.: 60
Chanel 7 Note On - Duracao: 712500 Nota: C1 Vol.: 56
Chanel 6 Note Off - Duracao: 714000 Nota: C1 Vol.: 57
Chanel 6 Note On - Duracao: 714000 Nota: C1 Vol.: 56
Chanel 6 Note Off - Duracao: 715920 Nota: C1 Vol.: 56
Chanel 6 Note On - Duracao: 715920 Nota: C1 Vol.: 59
Chanel 7 Note Off - Duracao: 716340 Nota: C1 Vol.: 56
Chanel 7 Note On - Duracao: 716340 Nota: C1 Vol.: 56
Chanel 6 Note Off - Duracao: 717840 Nota: C1 Vol.: 59
Chanel 6 Note On - Duracao: 717840 Nota: C1 Vol.: 61
Chanel 6 Note Off - Duracao: 719760 Nota: C1 Vol.: 61
Chanel 6 Note On - Duracao: 719760 Nota: C1 Vol.: 54
Chanel 7 Note Off - Duracao: 720180 Nota: C1 Vol.: 56
Chanel 7 Note On - Duracao: 720180 Nota: C1 Vol.: 53
Chanel 6 Note Off - Duracao: 723600 Nota: C1 Vol.: 54
Chanel 6 Note On - Duracao: 723600 Nota: C1 Vol.: 60
Chanel 7 Note Off - Duracao: 724020 Nota: C1 Vol.: 53
Chanel 7 Note On - Duracao: 724020 Nota: C1 Vol.: 54
Chanel 6 Note Off - Duracao: 725520 Nota: C1 Vol.: 60
Chanel 6 Note On - Duracao: 725520 Nota: C1 Vol.: 65
Chanel 6 Note Off - Duracao: 727440 Nota: C1 Vol.: 65
Chanel 6 Note On - Duracao: 727440 Nota: C1 Vol.: 63
Chanel 7 Note Off - Duracao: 727860 Nota: C1 Vol.: 54
Chanel 7 Note On - Duracao: 727860 Nota: C1 Vol.: 60
Chanel 6 Note Off - Duracao: 729360 Nota: C1 Vol.: 63
Chanel 6 Note On - Duracao: 729360 Nota: C1 Vol.: 53
Chanel 7 Note Off - Duracao: 731700 Nota: C1 Vol.: 60
Chanel 7 Note On - Duracao: 731700 Nota: C1 Vol.: 65
Chanel 6 Note Off - Duracao: 733200 Nota: C1 Vol.: 53
Chanel 6 Note On - Duracao: 733200 Nota: C1 Vol.: 57
Chanel 7 Note Off - Duracao: 733620 Nota: C1 Vol.: 65
Chanel 7 Note On - Duracao: 733620 Nota: C1 Vol.: 64
Chanel 6 Note Off - Duracao: 735120 Nota: C1 Vol.: 57
Chanel 6 Note On - Duracao: 735120 Nota: C1 Vol.: 88
Chanel 6 Note Off - Duracao: 735240 Nota: C1 Vol.: 88
Chanel 6 Note On - Duracao: 735240 Nota: C1 Vol.: 88
Chanel 6 Note Off - Duracao: 735360 Nota: C1 Vol.: 88
Chanel 6 Note On - Duracao: 735360 Nota: C1 Vol.: 88
Chanel 6 Note Off - Duracao: 735480 Nota: C1 Vol.: 88
Chanel 6 Note On - Duracao: 735480 Nota: C1 Vol.: 96
Chanel 6 Note Off - Duracao: 735540 Nota: C1 Vol.: 96
Chanel 6 Note On - Duracao: 735540 Nota: C1 Vol.: 99
Chanel 7 Note Off - Duracao: 735540 Nota: C1 Vol.: 64
Chanel 7 Note On - Duracao: 735540 Nota: C1 Vol.: 60
Chanel 6 Note Off - Duracao: 735600 Nota: C1 Vol.: 99
Chanel 6 Note On - Duracao: 735600 Nota: C1 Vol.: 100
Chanel 6 Note Off - Duracao: 735660 Nota: C1 Vol.: 100
Chanel 6 Note On - Duracao: 735660 Nota: C1 Vol.: 100
Chanel 6 Note Off - Duracao: 735720 Nota: C1 Vol.: 100
Chanel 6 Note On - Duracao: 735720 Nota: C1 Vol.: 99
Chanel 6 Note Off - Duracao: 735780 Nota: C1 Vol.: 99
Chanel 6 Note On - Duracao: 735780 Nota: C1 Vol.: 96
Chanel 6 Note Off - Duracao: 735840 Nota: C1 Vol.: 96
Chanel 6 Note On - Duracao: 735840 Nota: C1 Vol.: 87
Chanel 6 Note Off - Duracao: 735960 Nota: C1 Vol.: 87
Chanel 6 Note On - Duracao: 735960 Nota: C1 Vol.: 90
Chanel 6 Note Off - Duracao: 736080 Nota: C1 Vol.: 90
Chanel 6 Note On - Duracao: 736080 Nota: C1 Vol.: 58
Chanel 6 Note Off - Duracao: 737040 Nota: C1 Vol.: 58
Chanel 6 Note On - Duracao: 737040 Nota: C1 Vol.: 58
Chanel 7 Note Off - Duracao: 737460 Nota: C1 Vol.: 60
Chanel 7 Note On - Duracao: 737460 Nota: C1 Vol.: 55
Chanel 6 Note Off - Duracao: 738000 Nota: C1 Vol.: 58
Chanel 6 Note On - Duracao: 738000 Nota: C1 Vol.: 98
Chanel 6 Note Off - Duracao: 738060 Nota: C1 Vol.: 98
Chanel 6 Note On - Duracao: 738060 Nota: C1 Vol.: 100
Chanel 6 Note Off - Duracao: 738120 Nota: C1 Vol.: 100
Chanel 6 Note On - Duracao: 738120 Nota: C1 Vol.: 92
Chanel 6 Note Off - Duracao: 738240 Nota: C1 Vol.: 92
Chanel 6 Note On - Duracao: 738240 Nota: C1 Vol.: 88
Chanel 6 Note Off - Duracao: 738360 Nota: C1 Vol.: 88
Chanel 6 Note On - Duracao: 738360 Nota: C1 Vol.: 99
Chanel 6 Note Off - Duracao: 738420 Nota: C1 Vol.: 99
Chanel 6 Note On - Duracao: 738420 Nota: C1 Vol.: 80
Chanel 7 Note Off - Duracao: 738420 Nota: C1 Vol.: 55
Chanel 7 Note On - Duracao: 738420 Nota: C1 Vol.: 62
Chanel 6 Note Off - Duracao: 738660 Nota: C1 Vol.: 80
Chanel 6 Note On - Duracao: 738660 Nota: C1 Vol.: 67
Chanel 7 Note Off - Duracao: 738900 Nota: C1 Vol.: 62
Chanel 7 Note On - Duracao: 738900 Nota: C1 Vol.: 56
Chanel 6 Note Off - Duracao: 739140 Nota: C1 Vol.: 67
Chanel 6 Note On - Duracao: 739140 Nota: C1 Vol.: 71
Chanel 7 Note Off - Duracao: 739380 Nota: C1 Vol.: 56
Chanel 7 Note On - Duracao: 739380 Nota: C1 Vol.: 53
Chanel 6 Note Off - Duracao: 739620 Nota: C1 Vol.: 71
Chanel 6 Note On - Duracao: 739620 Nota: C1 Vol.: 71
Chanel 7 Note Off - Duracao: 739860 Nota: C1 Vol.: 53
Chanel 7 Note On - Duracao: 739860 Nota: C1 Vol.: 47
Chanel 6 Note Off - Duracao: 740100 Nota: C1 Vol.: 71
Chanel 6 Note On - Duracao: 740100 Nota: C1 Vol.: 70
Chanel 6 Note Off - Duracao: 740580 Nota: C1 Vol.: 70
Chanel 6 Note On - Duracao: 740580 Nota: C1 Vol.: 75
Chanel 6 Note Off - Duracao: 740820 Nota: C1 Vol.: 75
Chanel 6 Note On - Duracao: 740820 Nota: C1 Vol.: 67
Chanel 7 Note Off - Duracao: 740820 Nota: C1 Vol.: 47
Chanel 7 Note On - Duracao: 740820 Nota: C1 Vol.: 56
Chanel 6 Note Off - Duracao: 741060 Nota: C1 Vol.: 67
Chanel 6 Note On - Duracao: 741060 Nota: C1 Vol.: 66
Chanel 6 Note Off - Duracao: 741300 Nota: C1 Vol.: 66
Chanel 6 Note On - Duracao: 741300 Nota: C1 Vol.: 58
Chanel 7 Note Off - Duracao: 741300 Nota: C1 Vol.: 56
Chanel 7 Note On - Duracao: 741300 Nota: C1 Vol.: 53
Chanel 6 Note Off - Duracao: 741780 Nota: C1 Vol.: 58
Chanel 6 Note On - Duracao: 741780 Nota: C1 Vol.: 69
Chanel 7 Note Off - Duracao: 741780 Nota: C1 Vol.: 53
Chanel 7 Note On - Duracao: 741780 Nota: C1 Vol.: 55
Chanel 6 Note Off - Duracao: 742020 Nota: C1 Vol.: 69
Chanel 6 Note On - Duracao: 742020 Nota: C1 Vol.: 74
Chanel 6 Note Off - Duracao: 742140 Nota: C1 Vol.: 74
Chanel 6 Note On - Duracao: 742140 Nota: C1 Vol.: 64
Chanel 7 Note Off - Duracao: 742260 Nota: C1 Vol.: 55
Chanel 7 Note On - Duracao: 742260 Nota: C1 Vol.: 67
Chanel 6 Note Off - Duracao: 742380 Nota: C1 Vol.: 64
Chanel 6 Note On - Duracao: 742380 Nota: C1 Vol.: 66
Chanel 6 Note Off - Duracao: 742500 Nota: C1 Vol.: 66
Chanel 6 Note On - Duracao: 742500 Nota: C1 Vol.: 58
Chanel 7 Note Off - Duracao: 742500 Nota: C1 Vol.: 67
Chanel 7 Note On - Duracao: 742500 Nota: C1 Vol.: 52
Chanel 6 Note Off - Duracao: 742740 Nota: C1 Vol.: 58
Chanel 6 Note On - Duracao: 742740 Nota: C1 Vol.: 55
Chanel 7 Note Off - Duracao: 742980 Nota: C1 Vol.: 52
Chanel 7 Note On - Duracao: 742980 Nota: C1 Vol.: 52
Chanel 6 Note Off - Duracao: 743220 Nota: C1 Vol.: 55
Chanel 6 Note On - Duracao: 743220 Nota: C1 Vol.: 56
Chanel 6 Note Off - Duracao: 743460 Nota: C1 Vol.: 56
Chanel 6 Note On - Duracao: 743460 Nota: C1 Vol.: 49
Chanel 6 Note Off - Duracao: 743940 Nota: C1 Vol.: 49
Chanel 6 Note On - Duracao: 743940 Nota: C1 Vol.: 48
Chanel 7 Note Off - Duracao: 743940 Nota: C1 Vol.: 52
Chanel 7 Note On - Duracao: 743940 Nota: C1 Vol.: 53
Chanel 6 Note Off - Duracao: 744420 Nota: C1 Vol.: 48
Chanel 6 Note On - Duracao: 744420 Nota: C1 Vol.: 45
Chanel 7 Note Off - Duracao: 744900 Nota: C1 Vol.: 53
Chanel 7 Note On - Duracao: 744900 Nota: C1 Vol.: 56
Chanel 6 Note Off - Duracao: 745380 Nota: C1 Vol.: 45
Chanel 6 Note On - Duracao: 745380 Nota: C1 Vol.: 58
Chanel 7 Note Off - Duracao: 745380 Nota: C1 Vol.: 56
Chanel 7 Note On - Duracao: 745380 Nota: C1 Vol.: 53
Chanel 6 Note Off - Duracao: 745620 Nota: C1 Vol.: 58
Chanel 6 Note On - Duracao: 745620 Nota: C1 Vol.: 54
Chanel 6 Note Off - Duracao: 746100 Nota: C1 Vol.: 54
Chanel 6 Note On - Duracao: 746100 Nota: C1 Vol.: 54
Chanel 6 Note Off - Duracao: 746340 Nota: C1 Vol.: 54
Chanel 6 Note On - Duracao: 746340 Nota: C1 Vol.: 61
Chanel 7 Note Off - Duracao: 746340 Nota: C1 Vol.: 53
Chanel 7 Note On - Duracao: 746340 Nota: C1 Vol.: 74
Chanel 6 Note Off - Duracao: 746580 Nota: C1 Vol.: 61
Chanel 6 Note On - Duracao: 746580 Nota: C1 Vol.: 65
Chanel 7 Note Off - Duracao: 746580 Nota: C1 Vol.: 74
Chanel 7 Note On - Duracao: 746580 Nota: C1 Vol.: 84
Chanel 6 Note Off - Duracao: 746700 Nota: C1 Vol.: 65
Chanel 6 Note On - Duracao: 746700 Nota: C1 Vol.: 65
Chanel 7 Note Off - Duracao: 746700 Nota: C1 Vol.: 84
Chanel 7 Note On - Duracao: 746700 Nota: C1 Vol.: 89
Chanel 6 Note Off - Duracao: 746820 Nota: C1 Vol.: 65
Chanel 6 Note On - Duracao: 746820 Nota: C1 Vol.: 54
Chanel 7 Note Off - Duracao: 746820 Nota: C1 Vol.: 89
Chanel 7 Note On - Duracao: 746820 Nota: C1 Vol.: 84
Chanel 7 Note Off - Duracao: 746940 Nota: C1 Vol.: 84
Chanel 7 Note On - Duracao: 746940 Nota: C1 Vol.: 88
Chanel 7 Note Off - Duracao: 747060 Nota: C1 Vol.: 88
Chanel 7 Note On - Duracao: 747060 Nota: C1 Vol.: 88
Chanel 7 Note Off - Duracao: 747180 Nota: C1 Vol.: 88
Chanel 7 Note On - Duracao: 747180 Nota: C1 Vol.: 82
Chanel 6 Note Off - Duracao: 747300 Nota: C1 Vol.: 54
Chanel 6 Note On - Duracao: 747300 Nota: C1 Vol.: 50
Chanel 7 Note Off - Duracao: 747420 Nota: C1 Vol.: 82
Chanel 7 Note On - Duracao: 747420 Nota: C1 Vol.: 72
Chanel 7 Note Off - Duracao: 747900 Nota: C1 Vol.: 72
Chanel 7 Note On - Duracao: 747900 Nota: C1 Vol.: 74
Chanel 6 Note Off - Duracao: 748260 Nota: C1 Vol.: 50
Chanel 6 Note On - Duracao: 748260 Nota: C1 Vol.: 59
Chanel 7 Note Off - Duracao: 748380 Nota: C1 Vol.: 74
Chanel 7 Note On - Duracao: 748380 Nota: C1 Vol.: 70
Chanel 6 Note Off - Duracao: 748740 Nota: C1 Vol.: 59
Chanel 6 Note On - Duracao: 748740 Nota: C1 Vol.: 70
Chanel 6 Note Off - Duracao: 748860 Nota: C1 Vol.: 70
Chanel 6 Note On - Duracao: 748860 Nota: C1 Vol.: 64
Chanel 7 Note Off - Duracao: 748860 Nota: C1 Vol.: 70
Chanel 7 Note On - Duracao: 748860 Nota: C1 Vol.: 92
Chanel 7 Note Off - Duracao: 748920 Nota: C1 Vol.: 92
Chanel 7 Note On - Duracao: 748920 Nota: C1 Vol.: 95
Chanel 7 Note Off - Duracao: 748980 Nota: C1 Vol.: 95
Chanel 7 Note On - Duracao: 748980 Nota: C1 Vol.: 83
Chanel 6 Note Off - Duracao: 749100 Nota: C1 Vol.: 64
Chanel 6 Note On - Duracao: 749100 Nota: C1 Vol.: 50
Chanel 7 Note Off - Duracao: 749100 Nota: C1 Vol.: 83
Chanel 7 Note On - Duracao: 749100 Nota: C1 Vol.: 67
Chanel 6 Note Off - Duracao: 749580 Nota: C1 Vol.: 50
Chanel 6 Note On - Duracao: 749580 Nota: C1 Vol.: 56
Chanel 7 Note Off - Duracao: 749580 Nota: C1 Vol.: 67
Chanel 7 Note On - Duracao: 749580 Nota: C1 Vol.: 61
Chanel 6 Note Off - Duracao: 749820 Nota: C1 Vol.: 56
Chanel 6 Note On - Duracao: 749820 Nota: C1 Vol.: 52
Chanel 6 Note Off - Duracao: 750060 Nota: C1 Vol.: 52
Chanel 6 Note On - Duracao: 750060 Nota: C1 Vol.: 49
Chanel 6 Note Off - Duracao: 750540 Nota: C1 Vol.: 49
Chanel 6 Note On - Duracao: 750540 Nota: C1 Vol.: 50
Chanel 7 Note Off - Duracao: 750540 Nota: C1 Vol.: 61
Chanel 7 Note On - Duracao: 750540 Nota: C1 Vol.: 86
Chanel 7 Note Off - Duracao: 750660 Nota: C1 Vol.: 86
Chanel 7 Note On - Duracao: 750660 Nota: C1 Vol.: 84
Chanel 7 Note Off - Duracao: 750780 Nota: C1 Vol.: 84
Chanel 7 Note On - Duracao: 750780 Nota: C1 Vol.: 66
Chanel 6 Note Off - Duracao: 751020 Nota: C1 Vol.: 50
Chanel 6 Note On - Duracao: 751020 Nota: C1 Vol.: 57
Chanel 7 Note Off - Duracao: 751260 Nota: C1 Vol.: 66
Chanel 7 Note On - Duracao: 751260 Nota: C1 Vol.: 61
Chanel 6 Note Off - Duracao: 751500 Nota: C1 Vol.: 57
Chanel 6 Note On - Duracao: 751500 Nota: C1 Vol.: 72
Chanel 6 Note Off - Duracao: 751740 Nota: C1 Vol.: 72
Chanel 6 Note On - Duracao: 751740 Nota: C1 Vol.: 58
Chanel 7 Note Off - Duracao: 752220 Nota: C1 Vol.: 61
Chanel 7 Note On - Duracao: 752220 Nota: C1 Vol.: 70
Chanel 6 Note Off - Duracao: 752700 Nota: C1 Vol.: 58
Chanel 6 Note On - Duracao: 752700 Nota: C1 Vol.: 56
Chanel 7 Note Off - Duracao: 752700 Nota: C1 Vol.: 70
Chanel 7 Note On - Duracao: 752700 Nota: C1 Vol.: 81
Chanel 7 Note Off - Duracao: 752940 Nota: C1 Vol.: 81
Chanel 7 Note On - Duracao: 752940 Nota: C1 Vol.: 87
Chanel 7 Note Off - Duracao: 753060 Nota: C1 Vol.: 87
Chanel 7 Note On - Duracao: 753060 Nota: C1 Vol.: 67
Chanel 7 Note Off - Duracao: 753540 Nota: C1 Vol.: 67
Chanel 7 Note On - Duracao: 753540 Nota: C1 Vol.: 53
Chanel 7 Note Off - Duracao: 754500 Nota: C1 Vol.: 53
Chanel 7 Note On - Duracao: 754500 Nota: C1 Vol.: 52
Chanel 6 Note Off - Duracao: 754620 Nota: C1 Vol.: 56
Chanel 6 Note On - Duracao: 754620 Nota: C1 Vol.: 56
Chanel 7 Note Off - Duracao: 755460 Nota: C1 Vol.: 52
Chanel 7 Note On - Duracao: 755460 Nota: C1 Vol.: 56
Chanel 7 Note Off - Duracao: 755940 Nota: C1 Vol.: 56
Chanel 7 Note On - Duracao: 755940 Nota: C1 Vol.: 65
Chanel 7 Note Off - Duracao: 756180 Nota: C1 Vol.: 65
Chanel 7 Note On - Duracao: 756180 Nota: C1 Vol.: 77
Chanel 7 Note Off - Duracao: 756300 Nota: C1 Vol.: 77
Chanel 7 Note On - Duracao: 756300 Nota: C1 Vol.: 80
Chanel 7 Note Off - Duracao: 756420 Nota: C1 Vol.: 80
Chanel 7 Note On - Duracao: 756420 Nota: C1 Vol.: 77
Chanel 7 Note Off - Duracao: 756660 Nota: C1 Vol.: 77
Chanel 7 Note On - Duracao: 756660 Nota: C1 Vol.: 90
Chanel 7 Note Off - Duracao: 756780 Nota: C1 Vol.: 90
Chanel 7 Note On - Duracao: 756780 Nota: C1 Vol.: 93
Chanel 7 Note Off - Duracao: 756840 Nota: C1 Vol.: 93
Chanel 7 Note On - Duracao: 756840 Nota: C1 Vol.: 92
Chanel 7 Note Off - Duracao: 756900 Nota: C1 Vol.: 92
Chanel 7 Note On - Duracao: 756900 Nota: C1 Vol.: 64
Chanel 7 Note Off - Duracao: 757380 Nota: C1 Vol.: 64
Chanel 7 Note On - Duracao: 757380 Nota: C1 Vol.: 64
Chanel 7 Note Off - Duracao: 757620 Nota: C1 Vol.: 64
Chanel 7 Note On - Duracao: 757620 Nota: C1 Vol.: 61
Chanel 7 Note Off - Duracao: 757860 Nota: C1 Vol.: 61
Chanel 7 Note On - Duracao: 757860 Nota: C1 Vol.: 67
Chanel 7 Note Off - Duracao: 757980 Nota: C1 Vol.: 67
Chanel 7 Note On - Duracao: 757980 Nota: C1 Vol.: 45
Chanel 6 Note Off - Duracao: 758460 Nota: C1 Vol.: 56
Chanel 6 Note On - Duracao: 758460 Nota: C1 Vol.: 60
Chanel 7 Note Off - Duracao: 758940 Nota: C1 Vol.: 45
Chanel 7 Note On - Duracao: 758940 Nota: C1 Vol.: 51
Chanel 7 Note Off - Duracao: 759420 Nota: C1 Vol.: 51
Chanel 7 Note On - Duracao: 759420 Nota: C1 Vol.: 51
Chanel 7 Note Off - Duracao: 760380 Nota: C1 Vol.: 51
Chanel 7 Note On - Duracao: 760380 Nota: C1 Vol.: 52
Chanel 7 Note Off - Duracao: 761340 Nota: C1 Vol.: 52
Chanel 7 Note On - Duracao: 761340 Nota: C1 Vol.: 51
Chanel 6 Note Off - Duracao: 762300 Nota: C1 Vol.: 60
Chanel 6 Note On - Duracao: 762300 Nota: C1 Vol.: 60
Chanel 7 Note Off - Duracao: 762300 Nota: C1 Vol.: 51
Chanel 7 Note On - Duracao: 762300 Nota: C1 Vol.: 49
Chanel 7 Note Off - Duracao: 763260 Nota: C1 Vol.: 49
Chanel 7 Note On - Duracao: 763260 Nota: C1 Vol.: 43
Chanel 7 Note Off - Duracao: 764220 Nota: C1 Vol.: 43
Chanel 7 Note On - Duracao: 764220 Nota: C1 Vol.: 60
Chanel 7 Note Off - Duracao: 764460 Nota: C1 Vol.: 60
Chanel 7 Note On - Duracao: 764460 Nota: C1 Vol.: 63
Chanel 7 Note Off - Duracao: 764700 Nota: C1 Vol.: 63
Chanel 7 Note On - Duracao: 764700 Nota: C1 Vol.: 51
Chanel 7 Note Off - Duracao: 765180 Nota: C1 Vol.: 51
Chanel 7 Note On - Duracao: 765180 Nota: C1 Vol.: 55
Chanel 7 Note Off - Duracao: 765660 Nota: C1 Vol.: 55
Chanel 7 Note On - Duracao: 765660 Nota: C1 Vol.: 52
Chanel 6 Note Off - Duracao: 766140 Nota: C1 Vol.: 60
Chanel 6 Note On - Duracao: 766140 Nota: C1 Vol.: 59
Chanel 7 Note Off - Duracao: 766140 Nota: C1 Vol.: 52
Chanel 7 Note On - Duracao: 766140 Nota: C1 Vol.: 58
Chanel 7 Note Off - Duracao: 766620 Nota: C1 Vol.: 58
Chanel 7 Note On - Duracao: 766620 Nota: C1 Vol.: 60
Chanel 7 Note Off - Duracao: 767100 Nota: C1 Vol.: 60
Chanel 7 Note On - Duracao: 767100 Nota: C1 Vol.: 44
Chanel 7 Note Off - Duracao: 769020 Nota: C1 Vol.: 44
Chanel 7 Note On - Duracao: 769020 Nota: C1 Vol.: 41
Chanel 6 Note Off - Duracao: 769980 Nota: C1 Vol.: 59
Chanel 6 Note On - Duracao: 769980 Nota: C1 Vol.: 56
Chanel 7 Note Off - Duracao: 772860 Nota: C1 Vol.: 41
Chanel 7 Note On - Duracao: 772860 Nota: C1 Vol.: 47
Chanel 6 Note Off - Duracao: 773820 Nota: C1 Vol.: 56
Chanel 6 Note On - Duracao: 773820 Nota: C1 Vol.: 64
Chanel 6 Note Off - Duracao: 775740 Nota: C1 Vol.: 64
Chanel 6 Note On - Duracao: 775740 Nota: C1 Vol.: 64
Chanel 7 Note Off - Duracao: 776700 Nota: C1 Vol.: 47
Chanel 7 Note On - Duracao: 776700 Nota: C1 Vol.: 51
Chanel 6 Note Off - Duracao: 777660 Nota: C1 Vol.: 64
Chanel 6 Note On - Duracao: 777660 Nota: C1 Vol.: 58
Chanel 7 Note Off - Duracao: 780540 Nota: C1 Vol.: 51
Chanel 7 Note On - Duracao: 780540 Nota: C1 Vol.: 54
Chanel 6 Note Off - Duracao: 781500 Nota: C1 Vol.: 58
Chanel 6 Note On - Duracao: 781500 Nota: C1 Vol.: 59
Chanel 7 Note Off - Duracao: 784380 Nota: C1 Vol.: 54
Chanel 7 Note On - Duracao: 784380 Nota: C1 Vol.: 57
Chanel 6 Note Off - Duracao: 785340 Nota: C1 Vol.: 59
Chanel 6 Note On - Duracao: 785340 Nota: C1 Vol.: 61
Chanel 7 Note Off - Duracao: 788220 Nota: C1 Vol.: 57
Chanel 7 Note On - Duracao: 788220 Nota: C1 Vol.: 58
Chanel 6 Note Off - Duracao: 789180 Nota: C1 Vol.: 61
Chanel 6 Note On - Duracao: 789180 Nota: C1 Vol.: 62
Chanel 7 Note Off - Duracao: 792060 Nota: C1 Vol.: 58
Chanel 7 Note On - Duracao: 792060 Nota: C1 Vol.: 59
Chanel 6 Note Off - Duracao: 793020 Nota: C1 Vol.: 62
Chanel 6 Note On - Duracao: 793020 Nota: C1 Vol.: 63
Chanel 7 Note Off - Duracao: 795900 Nota: C1 Vol.: 59
Chanel 7 Note On - Duracao: 795900 Nota: C1 Vol.: 61
Chanel 6 Note Off - Duracao: 796860 Nota: C1 Vol.: 63
Chanel 6 Note On - Duracao: 796860 Nota: C1 Vol.: 62
Chanel 7 Note Off - Duracao: 799740 Nota: C1 Vol.: 61
Chanel 7 Note On - Duracao: 799740 Nota: C1 Vol.: 60
Chanel 6 Note Off - Duracao: 800700 Nota: C1 Vol.: 62
Chanel 6 Note On - Duracao: 800700 Nota: C1 Vol.: 63
Chanel 7 Note Off - Duracao: 803580 Nota: C1 Vol.: 60
Chanel 7 Note On - Duracao: 803580 Nota: C1 Vol.: 60
Chanel 6 Note Off - Duracao: 804540 Nota: C1 Vol.: 63
Chanel 6 Note On - Duracao: 804540 Nota: C1 Vol.: 66
Chanel 7 Note Off - Duracao: 807420 Nota: C1 Vol.: 60
Chanel 7 Note On - Duracao: 807420 Nota: C1 Vol.: 60
Chanel 6 Note Off - Duracao: 808380 Nota: C1 Vol.: 66
Chanel 6 Note On - Duracao: 808380 Nota: C1 Vol.: 71
Chanel 6 Note Off - Duracao: 810300 Nota: C1 Vol.: 71
Chanel 6 Note On - Duracao: 810300 Nota: C1 Vol.: 73
Chanel 7 Note Off - Duracao: 811260 Nota: C1 Vol.: 60
Chanel 7 Note On - Duracao: 811260 Nota: C1 Vol.: 59
Chanel 6 Note Off - Duracao: 812220 Nota: C1 Vol.: 73
Chanel 6 Note On - Duracao: 812220 Nota: C1 Vol.: 72
Chanel 6 Note Off - Duracao: 814140 Nota: C1 Vol.: 72
Chanel 6 Note On - Duracao: 814140 Nota: C1 Vol.: 70
Chanel 7 Note Off - Duracao: 815100 Nota: C1 Vol.: 59
Chanel 7 Note On - Duracao: 815100 Nota: C1 Vol.: 61
Chanel 6 Note Off - Duracao: 816060 Nota: C1 Vol.: 70
Chanel 6 Note On - Duracao: 816060 Nota: C1 Vol.: 71
Chanel 6 Note Off - Duracao: 817980 Nota: C1 Vol.: 71
Chanel 6 Note On - Duracao: 817980 Nota: C1 Vol.: 74
Chanel 7 Note Off - Duracao: 818940 Nota: C1 Vol.: 61
Chanel 7 Note On - Duracao: 818940 Nota: C1 Vol.: 60
Chanel 6 Note Off - Duracao: 819900 Nota: C1 Vol.: 74
Chanel 6 Note On - Duracao: 819900 Nota: C1 Vol.: 74
Chanel 6 Note Off - Duracao: 821820 Nota: C1 Vol.: 74
Chanel 6 Note On - Duracao: 821820 Nota: C1 Vol.: 73
Chanel 7 Note Off - Duracao: 822780 Nota: C1 Vol.: 60
Chanel 7 Note On - Duracao: 822780 Nota: C1 Vol.: 60
Chanel 6 Note Off - Duracao: 823740 Nota: C1 Vol.: 73
Chanel 6 Note On - Duracao: 823740 Nota: C1 Vol.: 72
Chanel 6 Note Off - Duracao: 825660 Nota: C1 Vol.: 72
Chanel 6 Note On - Duracao: 825660 Nota: C1 Vol.: 70
Chanel 7 Note Off - Duracao: 826620 Nota: C1 Vol.: 60
Chanel 7 Note On - Duracao: 826620 Nota: C1 Vol.: 61
Chanel 6 Note Off - Duracao: 827580 Nota: C1 Vol.: 70
Chanel 6 Note On - Duracao: 827580 Nota: C1 Vol.: 70
Chanel 6 Note Off - Duracao: 829500 Nota: C1 Vol.: 70
Chanel 6 Note On - Duracao: 829500 Nota: C1 Vol.: 71
Chanel 7 Note Off - Duracao: 830460 Nota: C1 Vol.: 61
Chanel 7 Note On - Duracao: 830460 Nota: C1 Vol.: 63
Chanel 6 Note Off - Duracao: 831420 Nota: C1 Vol.: 71
Chanel 6 Note On - Duracao: 831420 Nota: C1 Vol.: 72
Chanel 6 Note Off - Duracao: 833340 Nota: C1 Vol.: 72
Chanel 6 Note On - Duracao: 833340 Nota: C1 Vol.: 69
Chanel 7 Note Off - Duracao: 834300 Nota: C1 Vol.: 63
Chanel 7 Note On - Duracao: 834300 Nota: C1 Vol.: 63
Chanel 6 Note Off - Duracao: 835260 Nota: C1 Vol.: 69
Chanel 6 Note On - Duracao: 835260 Nota: C1 Vol.: 69
Chanel 6 Note Off - Duracao: 837180 Nota: C1 Vol.: 69
Chanel 6 Note On - Duracao: 837180 Nota: C1 Vol.: 65
Chanel 7 Note Off - Duracao: 838140 Nota: C1 Vol.: 63
Chanel 7 Note On - Duracao: 838140 Nota: C1 Vol.: 62
Chanel 6 Note Off - Duracao: 839100 Nota: C1 Vol.: 65
Chanel 6 Note On - Duracao: 839100 Nota: C1 Vol.: 57
Chanel 7 Note Off - Duracao: 841980 Nota: C1 Vol.: 62
Chanel 7 Note On - Duracao: 841980 Nota: C1 Vol.: 63
Chanel 6 Note Off - Duracao: 842940 Nota: C1 Vol.: 57
Chanel 6 Note On - Duracao: 842940 Nota: C1 Vol.: 52
Chanel 7 Note Off - Duracao: 845820 Nota: C1 Vol.: 63
Chanel 7 Note On - Duracao: 845820 Nota: C1 Vol.: 60
Chanel 6 Note Off - Duracao: 846780 Nota: C1 Vol.: 52
Chanel 6 Note On - Duracao: 846780 Nota: C1 Vol.: 53
Chanel 7 Note Off - Duracao: 849660 Nota: C1 Vol.: 60
Chanel 7 Note On - Duracao: 849660 Nota: C1 Vol.: 57
Chanel 6 Note Off - Duracao: 850620 Nota: C1 Vol.: 53
Chanel 6 Note On - Duracao: 850620 Nota: C1 Vol.: 56
Chanel 7 Note Off - Duracao: 853500 Nota: C1 Vol.: 57
Chanel 7 Note On - Duracao: 853500 Nota: C1 Vol.: 61
Chanel 6 Note Off - Duracao: 854460 Nota: C1 Vol.: 56
Chanel 6 Note On - Duracao: 854460 Nota: C1 Vol.: 56
Chanel 7 Note Off - Duracao: 857340 Nota: C1 Vol.: 61
Chanel 7 Note On - Duracao: 857340 Nota: C1 Vol.: 57
Chanel 6 Note Off - Duracao: 858300 Nota: C1 Vol.: 56
Chanel 6 Note On - Duracao: 858300 Nota: C1 Vol.: 56
Chanel 7 Note Off - Duracao: 861180 Nota: C1 Vol.: 57
Chanel 7 Note On - Duracao: 861180 Nota: C1 Vol.: 58
Chanel 6 Note Off - Duracao: 862140 Nota: C1 Vol.: 56
Chanel 6 Note On - Duracao: 862140 Nota: C1 Vol.: 66
Chanel 6 Note Off - Duracao: 864060 Nota: C1 Vol.: 66
Chanel 6 Note On - Duracao: 864060 Nota: C1 Vol.: 68
Chanel 7 Note Off - Duracao: 865020 Nota: C1 Vol.: 58
Chanel 7 Note On - Duracao: 865020 Nota: C1 Vol.: 56
Chanel 6 Note Off - Duracao: 865980 Nota: C1 Vol.: 68
Chanel 6 Note On - Duracao: 865980 Nota: C1 Vol.: 68
Chanel 6 Note Off - Duracao: 867900 Nota: C1 Vol.: 68
Chanel 6 Note On - Duracao: 867900 Nota: C1 Vol.: 67
Chanel 7 Note Off - Duracao: 868860 Nota: C1 Vol.: 56
Chanel 7 Note On - Duracao: 868860 Nota: C1 Vol.: 53
Chanel 6 Note Off - Duracao: 869820 Nota: C1 Vol.: 67
Chanel 6 Note On - Duracao: 869820 Nota: C1 Vol.: 63
Chanel 6 Note Off - Duracao: 871740 Nota: C1 Vol.: 63
Chanel 6 Note On - Duracao: 871740 Nota: C1 Vol.: 51
Chanel 7 Note Off - Duracao: 872700 Nota: C1 Vol.: 53
Chanel 7 Note On - Duracao: 872700 Nota: C1 Vol.: 53
Chanel 6 Note Off - Duracao: 875580 Nota: C1 Vol.: 51
Chanel 6 Note On - Duracao: 875580 Nota: C1 Vol.: 58
Chanel 7 Note Off - Duracao: 876540 Nota: C1 Vol.: 53
Chanel 7 Note On - Duracao: 876540 Nota: C1 Vol.: 58
Chanel 6 Note Off - Duracao: 877500 Nota: C1 Vol.: 58
Chanel 6 Note On - Duracao: 877500 Nota: C1 Vol.: 86
Chanel 6 Note Off - Duracao: 877740 Nota: C1 Vol.: 86
Chanel 6 Note On - Duracao: 877740 Nota: C1 Vol.: 88
Chanel 6 Note Off - Duracao: 877860 Nota: C1 Vol.: 88
Chanel 6 Note On - Duracao: 877860 Nota: C1 Vol.: 89
Chanel 6 Note Off - Duracao: 877980 Nota: C1 Vol.: 89
Chanel 6 Note On - Duracao: 877980 Nota: C1 Vol.: 91
Chanel 6 Note Off - Duracao: 878100 Nota: C1 Vol.: 91
Chanel 6 Note On - Duracao: 878100 Nota: C1 Vol.: 90
Chanel 6 Note Off - Duracao: 878220 Nota: C1 Vol.: 90
Chanel 6 Note On - Duracao: 878220 Nota: C1 Vol.: 90
Chanel 6 Note Off - Duracao: 878340 Nota: C1 Vol.: 90
Chanel 6 Note On - Duracao: 878340 Nota: C1 Vol.: 90
Chanel 6 Note Off - Duracao: 878460 Nota: C1 Vol.: 90
Chanel 6 Note On - Duracao: 878460 Nota: C1 Vol.: 88
Chanel 7 Note Off - Duracao: 878460 Nota: C1 Vol.: 58
Chanel 7 Note On - Duracao: 878460 Nota: C1 Vol.: 64
Chanel 6 Note Off - Duracao: 878580 Nota: C1 Vol.: 88
Chanel 6 Note On - Duracao: 878580 Nota: C1 Vol.: 89
Chanel 6 Note Off - Duracao: 878700 Nota: C1 Vol.: 89
Chanel 6 Note On - Duracao: 878700 Nota: C1 Vol.: 88
Chanel 6 Note Off - Duracao: 878820 Nota: C1 Vol.: 88
Chanel 6 Note On - Duracao: 878820 Nota: C1 Vol.: 83
Chanel 6 Note Off - Duracao: 879060 Nota: C1 Vol.: 83
Chanel 6 Note On - Duracao: 879060 Nota: C1 Vol.: 57
Chanel 6 Note Off - Duracao: 880020 Nota: C1 Vol.: 57
Chanel 6 Note On - Duracao: 880020 Nota: C1 Vol.: 100
Chanel 6 Note Off - Duracao: 880080 Nota: C1 Vol.: 100
Chanel 6 Note On - Duracao: 880080 Nota: C1 Vol.: 98
Chanel 6 Note Off - Duracao: 880140 Nota: C1 Vol.: 98
Chanel 6 Note On - Duracao: 880140 Nota: C1 Vol.: 87
Chanel 6 Note Off - Duracao: 880260 Nota: C1 Vol.: 87
Chanel 6 Note On - Duracao: 880260 Nota: C1 Vol.: 89
Chanel 6 Note Off - Duracao: 880380 Nota: C1 Vol.: 89
Chanel 6 Note On - Duracao: 880380 Nota: C1 Vol.: 92
Chanel 7 Note Off - Duracao: 880380 Nota: C1 Vol.: 64
Chanel 7 Note On - Duracao: 880380 Nota: C1 Vol.: 69
Chanel 6 Note Off - Duracao: 880500 Nota: C1 Vol.: 92
Chanel 6 Note On - Duracao: 880500 Nota: C1 Vol.: 64
Chanel 6 Note Off - Duracao: 880980 Nota: C1 Vol.: 64
Chanel 6 Note On - Duracao: 880980 Nota: C1 Vol.: 69
Chanel 6 Note Off - Duracao: 881460 Nota: C1 Vol.: 69
Chanel 6 Note On - Duracao: 881460 Nota: C1 Vol.: 68
Chanel 6 Note Off - Duracao: 881940 Nota: C1 Vol.: 68
Chanel 6 Note On - Duracao: 881940 Nota: C1 Vol.: 70
Chanel 7 Note Off - Duracao: 882300 Nota: C1 Vol.: 69
Chanel 7 Note On - Duracao: 882300 Nota: C1 Vol.: 69
Chanel 6 Note Off - Duracao: 882420 Nota: C1 Vol.: 70
Chanel 6 Note On - Duracao: 882420 Nota: C1 Vol.: 92
Chanel 6 Note Off - Duracao: 882480 Nota: C1 Vol.: 92
Chanel 6 Note On - Duracao: 882480 Nota: C1 Vol.: 73
Chanel 6 Note Off - Duracao: 882720 Nota: C1 Vol.: 73
Chanel 6 Note On - Duracao: 882720 Nota: C1 Vol.: 67
Chanel 6 Note Off - Duracao: 883200 Nota: C1 Vol.: 67
Chanel 6 Note On - Duracao: 883200 Nota: C1 Vol.: 87
Chanel 6 Note Off - Duracao: 883320 Nota: C1 Vol.: 87
Chanel 6 Note On - Duracao: 883320 Nota: C1 Vol.: 79
Chanel 6 Note Off - Duracao: 883440 Nota: C1 Vol.: 79
Chanel 6 Note On - Duracao: 883440 Nota: C1 Vol.: 84
Chanel 6 Note Off - Duracao: 883560 Nota: C1 Vol.: 84
Chanel 6 Note On - Duracao: 883560 Nota: C1 Vol.: 67
Chanel 6 Note Off - Duracao: 883800 Nota: C1 Vol.: 67
Chanel 6 Note On - Duracao: 883800 Nota: C1 Vol.: 60
Chanel 6 Note Off - Duracao: 884040 Nota: C1 Vol.: 60
Chanel 6 Note On - Duracao: 884040 Nota: C1 Vol.: 57
Chanel 7 Note Off - Duracao: 884220 Nota: C1 Vol.: 69
Chanel 7 Note On - Duracao: 884220 Nota: C1 Vol.: 68
Chanel 6 Note Off - Duracao: 884280 Nota: C1 Vol.: 57
Chanel 6 Note On - Duracao: 884280 Nota: C1 Vol.: 66
Chanel 6 Note Off - Duracao: 884400 Nota: C1 Vol.: 66
Chanel 6 Note On - Duracao: 884400 Nota: C1 Vol.: 51
Chanel 6 Note Off - Duracao: 884880 Nota: C1 Vol.: 51
Chanel 6 Note On - Duracao: 884880 Nota: C1 Vol.: 62
Chanel 6 Note Off - Duracao: 885120 Nota: C1 Vol.: 62
Chanel 6 Note On - Duracao: 885120 Nota: C1 Vol.: 67
Chanel 6 Note Off - Duracao: 885240 Nota: C1 Vol.: 67
Chanel 6 Note On - Duracao: 885240 Nota: C1 Vol.: 71
Chanel 6 Note Off - Duracao: 885360 Nota: C1 Vol.: 71
Chanel 6 Note On - Duracao: 885360 Nota: C1 Vol.: 71
Chanel 6 Note Off - Duracao: 885480 Nota: C1 Vol.: 71
Chanel 6 Note On - Duracao: 885480 Nota: C1 Vol.: 56
Chanel 6 Note Off - Duracao: 885960 Nota: C1 Vol.: 56
Chanel 6 Note On - Duracao: 885960 Nota: C1 Vol.: 44
Chanel 7 Note Off - Duracao: 886140 Nota: C1 Vol.: 68
Chanel 7 Note On - Duracao: 886140 Nota: C1 Vol.: 65
Chanel 6 Note Off - Duracao: 886920 Nota: C1 Vol.: 44
Chanel 6 Note On - Duracao: 886920 Nota: C1 Vol.: 61
Chanel 6 Note Off - Duracao: 887160 Nota: C1 Vol.: 61
Chanel 6 Note On - Duracao: 887160 Nota: C1 Vol.: 64
Chanel 6 Note Off - Duracao: 887280 Nota: C1 Vol.: 64
Chanel 6 Note On - Duracao: 887280 Nota: C1 Vol.: 66
Chanel 6 Note Off - Duracao: 887400 Nota: C1 Vol.: 66
Chanel 6 Note On - Duracao: 887400 Nota: C1 Vol.: 55
Chanel 6 Note Off - Duracao: 887880 Nota: C1 Vol.: 55
Chanel 6 Note On - Duracao: 887880 Nota: C1 Vol.: 50
Chanel 7 Note Off - Duracao: 888060 Nota: C1 Vol.: 65
Chanel 7 Note On - Duracao: 888060 Nota: C1 Vol.: 46
Chanel 6 Note Off - Duracao: 888840 Nota: C1 Vol.: 50
Chanel 6 Note On - Duracao: 888840 Nota: C1 Vol.: 48
Chanel 6 Note Off - Duracao: 889800 Nota: C1 Vol.: 48
Chanel 6 Note On - Duracao: 889800 Nota: C1 Vol.: 47
Chanel 6 Note Off - Duracao: 890760 Nota: C1 Vol.: 47
Chanel 6 Note On - Duracao: 890760 Nota: C1 Vol.: 54
Chanel 6 Note Off - Duracao: 891240 Nota: C1 Vol.: 54
Chanel 6 Note On - Duracao: 891240 Nota: C1 Vol.: 60
Chanel 6 Note Off - Duracao: 891480 Nota: C1 Vol.: 60
Chanel 6 Note On - Duracao: 891480 Nota: C1 Vol.: 57
Chanel 6 Note Off - Duracao: 891720 Nota: C1 Vol.: 57
Chanel 6 Note On - Duracao: 891720 Nota: C1 Vol.: 53
Chanel 7 Note Off - Duracao: 891900 Nota: C1 Vol.: 46
Chanel 7 Note On - Duracao: 891900 Nota: C1 Vol.: 63
Chanel 6 Note Off - Duracao: 891960 Nota: C1 Vol.: 53
Chanel 6 Note On - Duracao: 891960 Nota: C1 Vol.: 53
Chanel 6 Note Off - Duracao: 892200 Nota: C1 Vol.: 53
Chanel 6 Note On - Duracao: 892200 Nota: C1 Vol.: 54
Chanel 7 Note Off - Duracao: 892380 Nota: C1 Vol.: 63
Chanel 7 Note On - Duracao: 892380 Nota: C1 Vol.: 55
Chanel 6 Note Off - Duracao: 892440 Nota: C1 Vol.: 54
Chanel 6 Note On - Duracao: 892440 Nota: C1 Vol.: 52
Chanel 7 Note Off - Duracao: 892860 Nota: C1 Vol.: 55
Chanel 7 Note On - Duracao: 892860 Nota: C1 Vol.: 61
Chanel 6 Note Off - Duracao: 892920 Nota: C1 Vol.: 52
Chanel 6 Note On - Duracao: 892920 Nota: C1 Vol.: 68
Chanel 6 Note Off - Duracao: 893040 Nota: C1 Vol.: 68
Chanel 6 Note On - Duracao: 893040 Nota: C1 Vol.: 71
Chanel 7 Note Off - Duracao: 893100 Nota: C1 Vol.: 61
Chanel 7 Note On - Duracao: 893100 Nota: C1 Vol.: 64
Chanel 6 Note Off - Duracao: 893280 Nota: C1 Vol.: 71
Chanel 6 Note On - Duracao: 893280 Nota: C1 Vol.: 72
Chanel 7 Note Off - Duracao: 893340 Nota: C1 Vol.: 64
Chanel 7 Note On - Duracao: 893340 Nota: C1 Vol.: 56
Chanel 6 Note Off - Duracao: 893520 Nota: C1 Vol.: 72
Chanel 6 Note On - Duracao: 893520 Nota: C1 Vol.: 49
Chanel 7 Note Off - Duracao: 893820 Nota: C1 Vol.: 56
Chanel 7 Note On - Duracao: 893820 Nota: C1 Vol.: 43
Chanel 7 Note Off - Duracao: 894780 Nota: C1 Vol.: 43
Chanel 7 Note On - Duracao: 894780 Nota: C1 Vol.: 59
Chanel 7 Note Off - Duracao: 895260 Nota: C1 Vol.: 59
Chanel 7 Note On - Duracao: 895260 Nota: C1 Vol.: 44
Chanel 6 Note Off - Duracao: 895440 Nota: C1 Vol.: 49
Chanel 6 Note On - Duracao: 895440 Nota: C1 Vol.: 54
Chanel 7 Note Off - Duracao: 896220 Nota: C1 Vol.: 44
Chanel 7 Note On - Duracao: 896220 Nota: C1 Vol.: 49
Chanel 7 Note Off - Duracao: 897180 Nota: C1 Vol.: 49
Chanel 7 Note On - Duracao: 897180 Nota: C1 Vol.: 53
Chanel 7 Note Off - Duracao: 898140 Nota: C1 Vol.: 53
Chanel 7 Note On - Duracao: 898140 Nota: C1 Vol.: 60
Chanel 7 Note Off - Duracao: 898620 Nota: C1 Vol.: 60
Chanel 7 Note On - Duracao: 898620 Nota: C1 Vol.: 60
Chanel 7 Note Off - Duracao: 899100 Nota: C1 Vol.: 60
Chanel 7 Note On - Duracao: 899100 Nota: C1 Vol.: 61
Chanel 6 Note Off - Duracao: 899280 Nota: C1 Vol.: 54
Chanel 6 Note On - Duracao: 899280 Nota: C1 Vol.: 56
Chanel 7 Note Off - Duracao: 900060 Nota: C1 Vol.: 61
Chanel 7 Note On - Duracao: 900060 Nota: C1 Vol.: 85
Chanel 7 Note Off - Duracao: 900180 Nota: C1 Vol.: 85
Chanel 7 Note On - Duracao: 900180 Nota: C1 Vol.: 71
Chanel 7 Note Off - Duracao: 900660 Nota: C1 Vol.: 71
Chanel 7 Note On - Duracao: 900660 Nota: C1 Vol.: 86
Chanel 7 Note Off - Duracao: 900780 Nota: C1 Vol.: 86
Chanel 7 Note On - Duracao: 900780 Nota: C1 Vol.: 87
Chanel 7 Note Off - Duracao: 900900 Nota: C1 Vol.: 87
Chanel 7 Note On - Duracao: 900900 Nota: C1 Vol.: 75
Chanel 7 Note Off - Duracao: 901140 Nota: C1 Vol.: 75
Chanel 7 Note On - Duracao: 901140 Nota: C1 Vol.: 79
Chanel 7 Note Off - Duracao: 901380 Nota: C1 Vol.: 79
Chanel 7 Note On - Duracao: 901380 Nota: C1 Vol.: 72
Chanel 7 Note Off - Duracao: 901860 Nota: C1 Vol.: 72
Chanel 7 Note On - Duracao: 901860 Nota: C1 Vol.: 78
Chanel 7 Note Off - Duracao: 902100 Nota: C1 Vol.: 78
Chanel 7 Note On - Duracao: 902100 Nota: C1 Vol.: 79
Chanel 7 Note Off - Duracao: 902340 Nota: C1 Vol.: 79
Chanel 7 Note On - Duracao: 902340 Nota: C1 Vol.: 68
Chanel 7 Note Off - Duracao: 902820 Nota: C1 Vol.: 68
Chanel 7 Note On - Duracao: 902820 Nota: C1 Vol.: 80
Chanel 7 Note Off - Duracao: 903060 Nota: C1 Vol.: 80
Chanel 7 Note On - Duracao: 903060 Nota: C1 Vol.: 81
Chanel 6 Note Off - Duracao: 903120 Nota: C1 Vol.: 56
Chanel 6 Note On - Duracao: 903120 Nota: C1 Vol.: 57
Chanel 7 Note Off - Duracao: 903300 Nota: C1 Vol.: 81
Chanel 7 Note On - Duracao: 903300 Nota: C1 Vol.: 90
Chanel 7 Note Off - Duracao: 903420 Nota: C1 Vol.: 90
Chanel 7 Note On - Duracao: 903420 Nota: C1 Vol.: 58
Chanel 7 Note Off - Duracao: 904380 Nota: C1 Vol.: 58
Chanel 7 Note On - Duracao: 904380 Nota: C1 Vol.: 67
Chanel 7 Note Off - Duracao: 904860 Nota: C1 Vol.: 67
Chanel 7 Note On - Duracao: 904860 Nota: C1 Vol.: 78
Chanel 7 Note Off - Duracao: 905100 Nota: C1 Vol.: 78
Chanel 7 Note On - Duracao: 905100 Nota: C1 Vol.: 83
Chanel 7 Note Off - Duracao: 905340 Nota: C1 Vol.: 83
Chanel 7 Note On - Duracao: 905340 Nota: C1 Vol.: 90
Chanel 7 Note Off - Duracao: 905460 Nota: C1 Vol.: 90
Chanel 7 Note On - Duracao: 905460 Nota: C1 Vol.: 73
Chanel 7 Note Off - Duracao: 905940 Nota: C1 Vol.: 73
Chanel 7 Note On - Duracao: 905940 Nota: C1 Vol.: 79
Chanel 7 Note Off - Duracao: 906180 Nota: C1 Vol.: 79
Chanel 7 Note On - Duracao: 906180 Nota: C1 Vol.: 77
Chanel 7 Note Off - Duracao: 906420 Nota: C1 Vol.: 77
Chanel 7 Note On - Duracao: 906420 Nota: C1 Vol.: 64
Chanel 6 Note Off - Duracao: 906960 Nota: C1 Vol.: 57
Chanel 6 Note On - Duracao: 906960 Nota: C1 Vol.: 57
Chanel 7 Note Off - Duracao: 907380 Nota: C1 Vol.: 64
Chanel 7 Note On - Duracao: 907380 Nota: C1 Vol.: 52
Chanel 7 Note Off - Duracao: 909300 Nota: C1 Vol.: 52
Chanel 7 Note On - Duracao: 909300 Nota: C1 Vol.: 51
Chanel 6 Note Off - Duracao: 910800 Nota: C1 Vol.: 57
Chanel 6 Note On - Duracao: 910800 Nota: C1 Vol.: 55
Chanel 7 Note Off - Duracao: 911220 Nota: C1 Vol.: 51
Chanel 7 Note On - Duracao: 911220 Nota: C1 Vol.: 60
Chanel 7 Note Off - Duracao: 911700 Nota: C1 Vol.: 60
Chanel 7 Note On - Duracao: 911700 Nota: C1 Vol.: 59
Chanel 7 Note Off - Duracao: 912180 Nota: C1 Vol.: 59
Chanel 7 Note On - Duracao: 912180 Nota: C1 Vol.: 60
Chanel 7 Note Off - Duracao: 912660 Nota: C1 Vol.: 60
Chanel 7 Note On - Duracao: 912660 Nota: C1 Vol.: 64
Chanel 7 Note Off - Duracao: 912900 Nota: C1 Vol.: 64
Chanel 7 Note On - Duracao: 912900 Nota: C1 Vol.: 71
Chanel 7 Note Off - Duracao: 913020 Nota: C1 Vol.: 71
Chanel 7 Note On - Duracao: 913020 Nota: C1 Vol.: 69
Chanel 7 Note Off - Duracao: 913260 Nota: C1 Vol.: 69
Chanel 7 Note On - Duracao: 913260 Nota: C1 Vol.: 84
Chanel 7 Note Off - Duracao: 913380 Nota: C1 Vol.: 84
Chanel 7 Note On - Duracao: 913380 Nota: C1 Vol.: 87
Chanel 7 Note Off - Duracao: 913500 Nota: C1 Vol.: 87
Chanel 7 Note On - Duracao: 913500 Nota: C1 Vol.: 90
Chanel 7 Note Off - Duracao: 913620 Nota: C1 Vol.: 90
Chanel 7 Note On - Duracao: 913620 Nota: C1 Vol.: 83
Chanel 7 Note Off - Duracao: 913740 Nota: C1 Vol.: 83
Chanel 7 Note On - Duracao: 913740 Nota: C1 Vol.: 63
Chanel 7 Note Off - Duracao: 913980 Nota: C1 Vol.: 63
Chanel 7 Note On - Duracao: 913980 Nota: C1 Vol.: 65
Chanel 7 Note Off - Duracao: 914220 Nota: C1 Vol.: 65
Chanel 7 Note On - Duracao: 914220 Nota: C1 Vol.: 68
Chanel 7 Note Off - Duracao: 914340 Nota: C1 Vol.: 68
Chanel 7 Note On - Duracao: 914340 Nota: C1 Vol.: 69
Chanel 7 Note Off - Duracao: 914460 Nota: C1 Vol.: 69
Chanel 7 Note On - Duracao: 914460 Nota: C1 Vol.: 50
Chanel 6 Note Off - Duracao: 914640 Nota: C1 Vol.: 55
Chanel 6 Note On - Duracao: 914640 Nota: C1 Vol.: 57
Chanel 7 Note Off - Duracao: 914940 Nota: C1 Vol.: 50
Chanel 7 Note On - Duracao: 914940 Nota: C1 Vol.: 44
Chanel 7 Note Off - Duracao: 915900 Nota: C1 Vol.: 44
Chanel 7 Note On - Duracao: 915900 Nota: C1 Vol.: 45
Chanel 7 Note Off - Duracao: 916860 Nota: C1 Vol.: 45
Chanel 7 Note On - Duracao: 916860 Nota: C1 Vol.: 49
Chanel 7 Note Off - Duracao: 917820 Nota: C1 Vol.: 49
Chanel 7 Note On - Duracao: 917820 Nota: C1 Vol.: 48
Chanel 6 Note Off - Duracao: 918480 Nota: C1 Vol.: 57
Chanel 6 Note On - Duracao: 918480 Nota: C1 Vol.: 64
Chanel 7 Note Off - Duracao: 918780 Nota: C1 Vol.: 48
Chanel 7 Note On - Duracao: 918780 Nota: C1 Vol.: 44
Chanel 7 Note Off - Duracao: 919740 Nota: C1 Vol.: 44
Chanel 7 Note On - Duracao: 919740 Nota: C1 Vol.: 63
Chanel 7 Note Off - Duracao: 919980 Nota: C1 Vol.: 63
Chanel 7 Note On - Duracao: 919980 Nota: C1 Vol.: 59
Chanel 7 Note Off - Duracao: 920220 Nota: C1 Vol.: 59
Chanel 7 Note On - Duracao: 920220 Nota: C1 Vol.: 51
Chanel 6 Note Off - Duracao: 920400 Nota: C1 Vol.: 64
Chanel 6 Note On - Duracao: 920400 Nota: C1 Vol.: 60
Chanel 7 Note Off - Duracao: 920700 Nota: C1 Vol.: 51
Chanel 7 Note On - Duracao: 920700 Nota: C1 Vol.: 52
Chanel 7 Note Off - Duracao: 921180 Nota: C1 Vol.: 52
Chanel 7 Note On - Duracao: 921180 Nota: C1 Vol.: 44
Chanel 7 Note Off - Duracao: 922140 Nota: C1 Vol.: 44
Chanel 7 Note On - Duracao: 922140 Nota: C1 Vol.: 44
Chanel 7 Note Off - Duracao: 923100 Nota: C1 Vol.: 44
Chanel 7 Note On - Duracao: 923100 Nota: C1 Vol.: 51
Chanel 7 Note Off - Duracao: 924060 Nota: C1 Vol.: 51
Chanel 7 Note On - Duracao: 924060 Nota: C1 Vol.: 56
Chanel 6 Note Off - Duracao: 924240 Nota: C1 Vol.: 60
Chanel 6 Note On - Duracao: 924240 Nota: C1 Vol.: 59
Chanel 7 Note Off - Duracao: 924540 Nota: C1 Vol.: 56
Chanel 7 Note On - Duracao: 924540 Nota: C1 Vol.: 48
Chanel 7 Note Off - Duracao: 925500 Nota: C1 Vol.: 48
Chanel 7 Note On - Duracao: 925500 Nota: C1 Vol.: 50
Chanel 7 Note Off - Duracao: 926460 Nota: C1 Vol.: 50
Chanel 7 Note On - Duracao: 926460 Nota: C1 Vol.: 47
Chanel 6 Note Off - Duracao: 928080 Nota: C1 Vol.: 59
Chanel 6 Note On - Duracao: 928080 Nota: C1 Vol.: 61
Chanel 7 Note Off - Duracao: 928380 Nota: C1 Vol.: 47
Chanel 7 Note On - Duracao: 928380 Nota: C1 Vol.: 42
Chanel 6 Note Off - Duracao: 931920 Nota: C1 Vol.: 61
Chanel 6 Note On - Duracao: 931920 Nota: C1 Vol.: 62
Chanel 7 Note Off - Duracao: 932220 Nota: C1 Vol.: 42
Chanel 7 Note On - Duracao: 932220 Nota: C1 Vol.: 46
Chanel 6 Note Off - Duracao: 935760 Nota: C1 Vol.: 62
Chanel 6 Note On - Duracao: 935760 Nota: C1 Vol.: 63
Chanel 7 Note Off - Duracao: 936060 Nota: C1 Vol.: 46
Chanel 7 Note On - Duracao: 936060 Nota: C1 Vol.: 51
Chanel 6 Note Off - Duracao: 939600 Nota: C1 Vol.: 63
Chanel 6 Note On - Duracao: 939600 Nota: C1 Vol.: 63
Chanel 7 Note Off - Duracao: 939900 Nota: C1 Vol.: 51
Chanel 7 Note On - Duracao: 939900 Nota: C1 Vol.: 54
Chanel 6 Note Off - Duracao: 943440 Nota: C1 Vol.: 63
Chanel 6 Note On - Duracao: 943440 Nota: C1 Vol.: 61
Chanel 7 Note Off - Duracao: 943740 Nota: C1 Vol.: 54
Chanel 7 Note On - Duracao: 943740 Nota: C1 Vol.: 56
Chanel 6 Note Off - Duracao: 947280 Nota: C1 Vol.: 61
Chanel 6 Note On - Duracao: 947280 Nota: C1 Vol.: 61
Chanel 7 Note Off - Duracao: 947580 Nota: C1 Vol.: 56
Chanel 7 Note On - Duracao: 947580 Nota: C1 Vol.: 59
Chanel 6 Note Off - Duracao: 951120 Nota: C1 Vol.: 61
Chanel 6 Note On - Duracao: 951120 Nota: C1 Vol.: 65
Chanel 7 Note Off - Duracao: 951420 Nota: C1 Vol.: 59
Chanel 7 Note On - Duracao: 951420 Nota: C1 Vol.: 59
Chanel 6 Note Off - Duracao: 954960 Nota: C1 Vol.: 65
Chanel 6 Note On - Duracao: 954960 Nota: C1 Vol.: 70
Chanel 7 Note Off - Duracao: 955260 Nota: C1 Vol.: 59
Chanel 7 Note On - Duracao: 955260 Nota: C1 Vol.: 59
Chanel 6 Note Off - Duracao: 956880 Nota: C1 Vol.: 70
Chanel 6 Note On - Duracao: 956880 Nota: C1 Vol.: 71
Chanel 6 Note Off - Duracao: 958800 Nota: C1 Vol.: 71
Chanel 6 Note On - Duracao: 958800 Nota: C1 Vol.: 70
Chanel 7 Note Off - Duracao: 959100 Nota: C1 Vol.: 59
Chanel 7 Note On - Duracao: 959100 Nota: C1 Vol.: 55
Chanel 6 Note Off - Duracao: 960720 Nota: C1 Vol.: 70
Chanel 6 Note On - Duracao: 960720 Nota: C1 Vol.: 70
Chanel 6 Note Off - Duracao: 962640 Nota: C1 Vol.: 70
Chanel 6 Note On - Duracao: 962640 Nota: C1 Vol.: 72
Chanel 7 Note Off - Duracao: 962940 Nota: C1 Vol.: 55
Chanel 7 Note On - Duracao: 962940 Nota: C1 Vol.: 58
Chanel 6 Note Off - Duracao: 964560 Nota: C1 Vol.: 72
Chanel 6 Note On - Duracao: 964560 Nota: C1 Vol.: 73
Chanel 6 Note Off - Duracao: 966480 Nota: C1 Vol.: 73
Chanel 6 Note On - Duracao: 966480 Nota: C1 Vol.: 74
Chanel 7 Note Off - Duracao: 966780 Nota: C1 Vol.: 58
Chanel 7 Note On - Duracao: 966780 Nota: C1 Vol.: 58
Chanel 6 Note Off - Duracao: 968400 Nota: C1 Vol.: 74
Chanel 6 Note On - Duracao: 968400 Nota: C1 Vol.: 73
Chanel 6 Note Off - Duracao: 970320 Nota: C1 Vol.: 73
Chanel 6 Note On - Duracao: 970320 Nota: C1 Vol.: 71
Chanel 7 Note Off - Duracao: 970620 Nota: C1 Vol.: 58
Chanel 7 Note On - Duracao: 970620 Nota: C1 Vol.: 58
Chanel 6 Note Off - Duracao: 972240 Nota: C1 Vol.: 71
Chanel 6 Note On - Duracao: 972240 Nota: C1 Vol.: 70
Chanel 6 Note Off - Duracao: 974160 Nota: C1 Vol.: 70
Chanel 6 Note On - Duracao: 974160 Nota: C1 Vol.: 71
Chanel 7 Note Off - Duracao: 974460 Nota: C1 Vol.: 58
Chanel 7 Note On - Duracao: 974460 Nota: C1 Vol.: 57
Chanel 6 Note Off - Duracao: 976080 Nota: C1 Vol.: 71
Chanel 6 Note On - Duracao: 976080 Nota: C1 Vol.: 71
Chanel 6 Note Off - Duracao: 978000 Nota: C1 Vol.: 71
Chanel 6 Note On - Duracao: 978000 Nota: C1 Vol.: 72
Chanel 7 Note Off - Duracao: 978300 Nota: C1 Vol.: 57
Chanel 7 Note On - Duracao: 978300 Nota: C1 Vol.: 55
Chanel 6 Note Off - Duracao: 979920 Nota: C1 Vol.: 72
Chanel 6 Note On - Duracao: 979920 Nota: C1 Vol.: 71
Chanel 6 Note Off - Duracao: 981840 Nota: C1 Vol.: 71
Chanel 6 Note On - Duracao: 981840 Nota: C1 Vol.: 70
Chanel 7 Note Off - Duracao: 982140 Nota: C1 Vol.: 55
Chanel 7 Note On - Duracao: 982140 Nota: C1 Vol.: 58
Chanel 6 Note Off - Duracao: 983760 Nota: C1 Vol.: 70
Chanel 6 Note On - Duracao: 983760 Nota: C1 Vol.: 70
Chanel 6 Note Off - Duracao: 985680 Nota: C1 Vol.: 70
Chanel 6 Note On - Duracao: 985680 Nota: C1 Vol.: 66
Chanel 7 Note Off - Duracao: 985980 Nota: C1 Vol.: 58
Chanel 7 Note On - Duracao: 985980 Nota: C1 Vol.: 59
Chanel 6 Note Off - Duracao: 987600 Nota: C1 Vol.: 66
Chanel 6 Note On - Duracao: 987600 Nota: C1 Vol.: 63
Chanel 7 Note Off - Duracao: 987900 Nota: C1 Vol.: 59
Chanel 7 Note On - Duracao: 987900 Nota: C1 Vol.: 55
Chanel 6 Note Off - Duracao: 989520 Nota: C1 Vol.: 63
Chanel 6 Note On - Duracao: 989520 Nota: C1 Vol.: 63
Chanel 6 Note Off - Duracao: 991440 Nota: C1 Vol.: 63
Chanel 6 Note On - Duracao: 991440 Nota: C1 Vol.: 65
Chanel 7 Note Off - Duracao: 991740 Nota: C1 Vol.: 55
Chanel 7 Note On - Duracao: 991740 Nota: C1 Vol.: 55
Chanel 6 Note Off - Duracao: 993360 Nota: C1 Vol.: 65
Chanel 6 Note On - Duracao: 993360 Nota: C1 Vol.: 70
Chanel 6 Note Off - Duracao: 995280 Nota: C1 Vol.: 70
Chanel 6 Note On - Duracao: 995280 Nota: C1 Vol.: 70
Chanel 7 Note Off - Duracao: 995580 Nota: C1 Vol.: 55
Chanel 7 Note On - Duracao: 995580 Nota: C1 Vol.: 54
Chanel 6 Note Off - Duracao: 997200 Nota: C1 Vol.: 70
Chanel 6 Note On - Duracao: 997200 Nota: C1 Vol.: 71
Chanel 6 Note Off - Duracao: 999120 Nota: C1 Vol.: 71
Chanel 6 Note On - Duracao: 999120 Nota: C1 Vol.: 72
Chanel 7 Note Off - Duracao: 999420 Nota: C1 Vol.: 54
Chanel 7 Note On - Duracao: 999420 Nota: C1 Vol.: 54
Chanel 6 Note Off - Duracao: 1001040 Nota: C1 Vol.: 72
Chanel 6 Note On - Duracao: 1001040 Nota: C1 Vol.: 69
Chanel 6 Note Off - Duracao: 1002960 Nota: C1 Vol.: 69
Chanel 6 Note On - Duracao: 1002960 Nota: C1 Vol.: 67
Chanel 7 Note Off - Duracao: 1003260 Nota: C1 Vol.: 54
Chanel 7 Note On - Duracao: 1003260 Nota: C1 Vol.: 56
Chanel 6 Note Off - Duracao: 1004880 Nota: C1 Vol.: 67
Chanel 6 Note On - Duracao: 1004880 Nota: C1 Vol.: 61
Chanel 6 Note Off - Duracao: 1006800 Nota: C1 Vol.: 61
Chanel 6 Note On - Duracao: 1006800 Nota: C1 Vol.: 49
Chanel 7 Note Off - Duracao: 1007100 Nota: C1 Vol.: 56
Chanel 7 Note On - Duracao: 1007100 Nota: C1 Vol.: 55
Chanel 6 Note Off - Duracao: 1010640 Nota: C1 Vol.: 49
Chanel 6 Note On - Duracao: 1010640 Nota: C1 Vol.: 53
Chanel 7 Note Off - Duracao: 1010940 Nota: C1 Vol.: 55
Chanel 7 Note On - Duracao: 1010940 Nota: C1 Vol.: 55
Chanel 6 Note Off - Duracao: 1012560 Nota: C1 Vol.: 53
Chanel 6 Note On - Duracao: 1012560 Nota: C1 Vol.: 81
Chanel 6 Note Off - Duracao: 1012800 Nota: C1 Vol.: 81
Chanel 6 Note On - Duracao: 1012800 Nota: C1 Vol.: 86
Chanel 6 Note Off - Duracao: 1012920 Nota: C1 Vol.: 86
Chanel 6 Note On - Duracao: 1012920 Nota: C1 Vol.: 89
Chanel 6 Note Off - Duracao: 1013040 Nota: C1 Vol.: 89
Chanel 6 Note On - Duracao: 1013040 Nota: C1 Vol.: 89
Chanel 6 Note Off - Duracao: 1013160 Nota: C1 Vol.: 89
Chanel 6 Note On - Duracao: 1013160 Nota: C1 Vol.: 89
Chanel 6 Note Off - Duracao: 1013280 Nota: C1 Vol.: 89
Chanel 6 Note On - Duracao: 1013280 Nota: C1 Vol.: 87
Chanel 6 Note Off - Duracao: 1013400 Nota: C1 Vol.: 87
Chanel 6 Note On - Duracao: 1013400 Nota: C1 Vol.: 90
Chanel 6 Note Off - Duracao: 1013520 Nota: C1 Vol.: 90
Chanel 6 Note On - Duracao: 1013520 Nota: C1 Vol.: 90
Chanel 6 Note Off - Duracao: 1013640 Nota: C1 Vol.: 90
Chanel 6 Note On - Duracao: 1013640 Nota: C1 Vol.: 87
Chanel 6 Note Off - Duracao: 1013760 Nota: C1 Vol.: 87
Chanel 6 Note On - Duracao: 1013760 Nota: C1 Vol.: 90
Chanel 6 Note Off - Duracao: 1013880 Nota: C1 Vol.: 90
Chanel 6 Note On - Duracao: 1013880 Nota: C1 Vol.: 89
Chanel 6 Note Off - Duracao: 1014000 Nota: C1 Vol.: 89
Chanel 7 Note Off - Duracao: 1014780 Nota: C1 Vol.: 55
Chanel 7 Note On - Duracao: 1014780 Nota: C1 Vol.: 57
Chanel 7 Note Off - Duracao: 1018620 Nota: C1 Vol.: 57
Chanel 7 Note On - Duracao: 1018620 Nota: C1 Vol.: 59
Chanel 7 Note Off - Duracao: 1022460 Nota: C1 Vol.: 59
Chanel 7 Note On - Duracao: 1022460 Nota: C1 Vol.: 67
Chanel 7 Note Off - Duracao: 1024380 Nota: C1 Vol.: 67
Chanel 7 Note On - Duracao: 1024380 Nota: C1 Vol.: 71
Chanel 7 Note Off - Duracao: 1026300 Nota: C1 Vol.: 71
Chanel 7 Note On - Duracao: 1026300 Nota: C1 Vol.: 73
Chanel 7 Note Off - Duracao: 1028220 Nota: C1 Vol.: 73
Chanel 7 Note On - Duracao: 1028220 Nota: C1 Vol.: 72
Chanel 7 Note Off - Duracao: 1030140 Nota: C1 Vol.: 72
Chanel 7 Note On - Duracao: 1030140 Nota: C1 Vol.: 71
Chanel 7 Note Off - Duracao: 1032060 Nota: C1 Vol.: 71
Chanel 7 Note On - Duracao: 1032060 Nota: C1 Vol.: 66
Chanel 7 Note Off - Duracao: 1033980 Nota: C1 Vol.: 66
Chanel 7 Note On - Duracao: 1033980 Nota: C1 Vol.: 48
Chanel 7 Note Off - Duracao: 1037820 Nota: C1 Vol.: 48
Chanel 7 Note On - Duracao: 1037820 Nota: C1 Vol.: 56
Chanel 7 Note Off - Duracao: 1038780 Nota: C1 Vol.: 56
Chanel 7 Note On - Duracao: 1038780 Nota: C1 Vol.: 61
Chanel 7 Note Off - Duracao: 1039260 Nota: C1 Vol.: 61
Chanel 7 Note On - Duracao: 1039260 Nota: C1 Vol.: 63
Chanel 7 Note Off - Duracao: 1039500 Nota: C1 Vol.: 63
Chanel 7 Note On - Duracao: 1039500 Nota: C1 Vol.: 60
Chanel 7 Note Off - Duracao: 1039740 Nota: C1 Vol.: 60
Chanel 7 Note On - Duracao: 1039740 Nota: C1 Vol.: 56
Chanel 7 Note Off - Duracao: 1040220 Nota: C1 Vol.: 56
Chanel 7 Note On - Duracao: 1040220 Nota: C1 Vol.: 57
Chanel 7 Note Off - Duracao: 1040700 Nota: C1 Vol.: 57
Chanel 7 Note On - Duracao: 1040700 Nota: C1 Vol.: 51
Chanel 7 Note Off - Duracao: 1041660 Nota: C1 Vol.: 51
Chanel 7 Note On - Duracao: 1041660 Nota: C1 Vol.: 47
Chanel 7 Note Off - Duracao: 1043580 Nota: C1 Vol.: 47
Chanel 7 Note On - Duracao: 1043580 Nota: C1 Vol.: 54
Chanel 7 Note Off - Duracao: 1044540 Nota: C1 Vol.: 54
Chanel 7 Note On - Duracao: 1044540 Nota: C1 Vol.: 52
Chanel 7 Note Off - Duracao: 1045500 Nota: C1 Vol.: 52
Chanel 7 Note On - Duracao: 1045500 Nota: C1 Vol.: 59
Chanel 7 Note Off - Duracao: 1045980 Nota: C1 Vol.: 59
Chanel 7 Note On - Duracao: 1045980 Nota: C1 Vol.: 63
Chanel 7 Note Off - Duracao: 1046460 Nota: C1 Vol.: 63
Chanel 7 Note On - Duracao: 1046460 Nota: C1 Vol.: 92
Chanel 7 Note Off - Duracao: 1046580 Nota: C1 Vol.: 92
Chanel 7 Note On - Duracao: 1046580 Nota: C1 Vol.: 78
Chanel 7 Note Off - Duracao: 1046820 Nota: C1 Vol.: 78
Chanel 7 Note On - Duracao: 1046820 Nota: C1 Vol.: 94
Chanel 7 Note Off - Duracao: 1046940 Nota: C1 Vol.: 94
Chanel 7 Note On - Duracao: 1046940 Nota: C1 Vol.: 87
Chanel 7 Note Off - Duracao: 1047060 Nota: C1 Vol.: 87
Chanel 7 Note On - Duracao: 1047060 Nota: C1 Vol.: 80
Chanel 7 Note Off - Duracao: 1047300 Nota: C1 Vol.: 80
Chanel 7 Note On - Duracao: 1047300 Nota: C1 Vol.: 87
Chanel 7 Note Off - Duracao: 1047420 Nota: C1 Vol.: 87
Chanel 7 Note On - Duracao: 1047420 Nota: C1 Vol.: 80
Chanel 7 Note Off - Duracao: 1047660 Nota: C1 Vol.: 80
Chanel 7 Note On - Duracao: 1047660 Nota: C1 Vol.: 81
Chanel 7 Note Off - Duracao: 1047900 Nota: C1 Vol.: 81
Chanel 7 Note On - Duracao: 1047900 Nota: C1 Vol.: 93
Chanel 7 Note Off - Duracao: 1048020 Nota: C1 Vol.: 93
Chanel 7 Note On - Duracao: 1048020 Nota: C1 Vol.: 94
Chanel 7 Note Off - Duracao: 1048080 Nota: C1 Vol.: 94
Chanel 7 Note On - Duracao: 1048080 Nota: C1 Vol.: 75
Chanel 7 Note Off - Duracao: 1048320 Nota: C1 Vol.: 75
Chanel 7 Note On - Duracao: 1048320 Nota: C1 Vol.: 66
Chanel 7 Note Off - Duracao: 1048800 Nota: C1 Vol.: 66
Chanel 7 Note On - Duracao: 1048800 Nota: C1 Vol.: 83
Chanel 7 Note Off - Duracao: 1048920 Nota: C1 Vol.: 83
Chanel 7 Note On - Duracao: 1048920 Nota: C1 Vol.: 84
Chanel 7 Note Off - Duracao: 1049040 Nota: C1 Vol.: 84
Chanel 7 Note On - Duracao: 1049040 Nota: C1 Vol.: 58
Chanel 7 Note Off - Duracao: 1050000 Nota: C1 Vol.: 58
Chanel 7 Note On - Duracao: 1050000 Nota: C1 Vol.: 51
Chanel 7 Note Off - Duracao: 1050960 Nota: C1 Vol.: 51
Chanel 7 Note On - Duracao: 1050960 Nota: C1 Vol.: 50
Chanel 7 Note Off - Duracao: 1052880 Nota: C1 Vol.: 50
Chanel 7 Note On - Duracao: 1052880 Nota: C1 Vol.: 59
Chanel 7 Note Off - Duracao: 1053840 Nota: C1 Vol.: 59
Chanel 7 Note On - Duracao: 1053840 Nota: C1 Vol.: 64
Chanel 7 Note Off - Duracao: 1054800 Nota: C1 Vol.: 64
Chanel 7 Note On - Duracao: 1054800 Nota: C1 Vol.: 76
Chanel 7 Note Off - Duracao: 1055280 Nota: C1 Vol.: 76
Chanel 7 Note On - Duracao: 1055280 Nota: C1 Vol.: 80
Chanel 7 Note Off - Duracao: 1055520 Nota: C1 Vol.: 80
Chanel 7 Note On - Duracao: 1055520 Nota: C1 Vol.: 79
Chanel 7 Note Off - Duracao: 1055760 Nota: C1 Vol.: 79
Chanel 7 Note On - Duracao: 1055760 Nota: C1 Vol.: 71
Chanel 7 Note Off - Duracao: 1056240 Nota: C1 Vol.: 71
Chanel 7 Note On - Duracao: 1056240 Nota: C1 Vol.: 59
Chanel 7 Note Off - Duracao: 1057200 Nota: C1 Vol.: 59
Chanel 7 Note On - Duracao: 1057200 Nota: C1 Vol.: 72
Chanel 7 Note Off - Duracao: 1057680 Nota: C1 Vol.: 72
Chanel 7 Note On - Duracao: 1057680 Nota: C1 Vol.: 68
Chanel 7 Note Off - Duracao: 1058160 Nota: C1 Vol.: 68
Chanel 7 Note On - Duracao: 1058160 Nota: C1 Vol.: 69
Chanel 7 Note Off - Duracao: 1058400 Nota: C1 Vol.: 69
Chanel 7 Note On - Duracao: 1058400 Nota: C1 Vol.: 67
Chanel 7 Note Off - Duracao: 1058640 Nota: C1 Vol.: 67
Chanel 7 Note On - Duracao: 1058640 Nota: C1 Vol.: 59
Chanel 7 Note Off - Duracao: 1058880 Nota: C1 Vol.: 59
Chanel 7 Note On - Duracao: 1058880 Nota: C1 Vol.: 62
Chanel 7 Note Off - Duracao: 1059120 Nota: C1 Vol.: 62
Chanel 7 Note On - Duracao: 1059120 Nota: C1 Vol.: 67
Chanel 7 Note Off - Duracao: 1059240 Nota: C1 Vol.: 67
Chanel 7 Note On - Duracao: 1059240 Nota: C1 Vol.: 80
Chanel 7 Note Off - Duracao: 1059360 Nota: C1 Vol.: 80
Chanel 7 Note On - Duracao: 1059360 Nota: C1 Vol.: 68
Chanel 7 Note Off - Duracao: 1059600 Nota: C1 Vol.: 68
Chanel 7 Note On - Duracao: 1059600 Nota: C1 Vol.: 71
Chanel 7 Note Off - Duracao: 1059840 Nota: C1 Vol.: 71
Chanel 7 Note On - Duracao: 1059840 Nota: C1 Vol.: 80
Chanel 7 Note Off - Duracao: 1059960 Nota: C1 Vol.: 80
Chanel 7 Note On - Duracao: 1059960 Nota: C1 Vol.: 58
Chanel 7 Note Off - Duracao: 1060440 Nota: C1 Vol.: 58
Chanel 7 Note On - Duracao: 1060440 Nota: C1 Vol.: 57
Chanel 7 Note Off - Duracao: 1060680 Nota: C1 Vol.: 57
Chanel 7 Note On - Duracao: 1060680 Nota: C1 Vol.: 64
Chanel 7 Note Off - Duracao: 1060920 Nota: C1 Vol.: 64
Chanel 7 Note On - Duracao: 1060920 Nota: C1 Vol.: 68
Chanel 7 Note Off - Duracao: 1061040 Nota: C1 Vol.: 68
Chanel 7 Note On - Duracao: 1061040 Nota: C1 Vol.: 68
Chanel 7 Note Off - Duracao: 1061280 Nota: C1 Vol.: 68
Chanel 7 Note On - Duracao: 1061280 Nota: C1 Vol.: 48
Chanel 7 Note Off - Duracao: 1062240 Nota: C1 Vol.: 48
Chanel 7 Note On - Duracao: 1062240 Nota: C1 Vol.: 43
Chanel 7 Note Off - Duracao: 1063200 Nota: C1 Vol.: 43
Chanel 7 Note On - Duracao: 1063200 Nota: C1 Vol.: 40
Chanel 7 Note Off - Duracao: 1065120 Nota: C1 Vol.: 40
Chanel 7 Note On - Duracao: 1065120 Nota: C1 Vol.: 40
Chanel 7 Note Off - Duracao: 1067040 Nota: C1 Vol.: 40
Chanel 7 Note On - Duracao: 1067040 Nota: C1 Vol.: 40
Chanel 7 Note Off - Duracao: 1068960 Nota: C1 Vol.: 40
Chanel 7 Note On - Duracao: 1068960 Nota: C1 Vol.: 59
Chanel 7 Note Off - Duracao: 1069200 Nota: C1 Vol.: 59
Chanel 7 Note On - Duracao: 1069200 Nota: C1 Vol.: 60
Chanel 7 Note Off - Duracao: 1069440 Nota: C1 Vol.: 60
Chanel 7 Note On - Duracao: 1069440 Nota: C1 Vol.: 65
Chanel 7 Note Off - Duracao: 1069680 Nota: C1 Vol.: 65
Chanel 7 Note On - Duracao: 1069680 Nota: C1 Vol.: 48
Chanel 7 Note Off - Duracao: 1070640 Nota: C1 Vol.: 48
Chanel 7 Note On - Duracao: 1070640 Nota: C1 Vol.: 44
Chanel 7 Note Off - Duracao: 1071600 Nota: C1 Vol.: 44
Chanel 7 Note On - Duracao: 1071600 Nota: C1 Vol.: 45
Chanel 7 Note Off - Duracao: 1072560 Nota: C1 Vol.: 45
Chanel 7 Note On - Duracao: 1072560 Nota: C1 Vol.: 45
Chanel 7 Note Off - Duracao: 1073520 Nota: C1 Vol.: 45
Chanel 7 Note On - Duracao: 1073520 Nota: C1 Vol.: 48
Chanel 7 Note Off - Duracao: 1074480 Nota: C1 Vol.: 48
Chanel 7 Note On - Duracao: 1074480 Nota: C1 Vol.: 46
Chanel 7 Note Off - Duracao: 1075440 Nota: C1 Vol.: 46
Chanel 7 Note On - Duracao: 1075440 Nota: C1 Vol.: 54
Chanel 7 Note Off - Duracao: 1075920 Nota: C1 Vol.: 54
Chanel 7 Note On - Duracao: 1075920 Nota: C1 Vol.: 57
Chanel 7 Note Off - Duracao: 1076400 Nota: C1 Vol.: 57
Chanel 7 Note On - Duracao: 1076400 Nota: C1 Vol.: 57
Chanel 7 Note Off - Duracao: 1077360 Nota: C1 Vol.: 57
Chanel 7 Note On - Duracao: 1077360 Nota: C1 Vol.: 53
Chanel 7 Note Off - Duracao: 1078320 Nota: C1 Vol.: 53
Chanel 7 Note On - Duracao: 1078320 Nota: C1 Vol.: 45
Chanel 7 Note Off - Duracao: 1082160 Nota: C1 Vol.: 45
Chanel 7 Note On - Duracao: 1082160 Nota: C1 Vol.: 44
Chanel 7 Note Off - Duracao: 1086000 Nota: C1 Vol.: 44
Chanel 7 Note On - Duracao: 1086000 Nota: C1 Vol.: 48
Chanel 7 Note Off - Duracao: 1089840 Nota: C1 Vol.: 48
Chanel 7 Note On - Duracao: 1089840 Nota: C1 Vol.: 52
Chanel 7 Note Off - Duracao: 1093680 Nota: C1 Vol.: 52
Chanel 7 Note On - Duracao: 1093680 Nota: C1 Vol.: 52
Chanel 7 Note Off - Duracao: 1097520 Nota: C1 Vol.: 52
Chanel 7 Note On - Duracao: 1097520 Nota: C1 Vol.: 53
Chanel 7 Note Off - Duracao: 1101360 Nota: C1 Vol.: 53
Chanel 7 Note On - Duracao: 1101360 Nota: C1 Vol.: 51
Chanel 7 Note Off - Duracao: 1105200 Nota: C1 Vol.: 51
Chanel 7 Note On - Duracao: 1105200 Nota: C1 Vol.: 54
Chanel 7 Note Off - Duracao: 1109040 Nota: C1 Vol.: 54
Chanel 7 Note On - Duracao: 1109040 Nota: C1 Vol.: 54
Chanel 7 Note Off - Duracao: 1112880 Nota: C1 Vol.: 54
Chanel 7 Note On - Duracao: 1112880 Nota: C1 Vol.: 52
Chanel 7 Note Off - Duracao: 1116720 Nota: C1 Vol.: 52
Chanel 7 Note On - Duracao: 1116720 Nota: C1 Vol.: 50
Chanel 7 Note Off - Duracao: 1120560 Nota: C1 Vol.: 50
Chanel 7 Note On - Duracao: 1120560 Nota: C1 Vol.: 52
Chanel 7 Note Off - Duracao: 1122480 Nota: C1 Vol.: 52
Chanel 7 Note On - Duracao: 1122480 Nota: C1 Vol.: 48
Chanel 7 Note Off - Duracao: 1126320 Nota: C1 Vol.: 48
Chanel 7 Note On - Duracao: 1126320 Nota: C1 Vol.: 51
Chanel 7 Note Off - Duracao: 1130160 Nota: C1 Vol.: 51
Chanel 7 Note On - Duracao: 1130160 Nota: C1 Vol.: 51
Chanel 7 Note Off - Duracao: 1134000 Nota: C1 Vol.: 51
Chanel 7 Note On - Duracao: 1134000 Nota: C1 Vol.: 50
Chanel 7 Note Off - Duracao: 1137840 Nota: C1 Vol.: 50
Chanel 7 Note On - Duracao: 1137840 Nota: C1 Vol.: 49
Chanel 7 Note Off - Duracao: 1141680 Nota: C1 Vol.: 49
Chanel 7 Note On - Duracao: 1141680 Nota: C1 Vol.: 50
Chanel 7 Note Off - Duracao: 1145520 Nota: C1 Vol.: 50
Chanel 7 Note On - Duracao: 1145520 Nota: C1 Vol.: 52
Chanel 7 Note Off - Duracao: 1149360 Nota: C1 Vol.: 52
Chanel 7 Note On - Duracao: 1149360 Nota: C1 Vol.: 56
Chanel 7 Note Off - Duracao: 1153200 Nota: C1 Vol.: 56
Chanel 7 Note On - Duracao: 1153200 Nota: C1 Vol.: 56
Chanel 7 Note Off - Duracao: 1157040 Nota: C1 Vol.: 56
Chanel 7 Note On - Duracao: 1157040 Nota: C1 Vol.: 59
Chanel 7 Note Off - Duracao: 1160880 Nota: C1 Vol.: 59
Chanel 7 Note On - Duracao: 1160880 Nota: C1 Vol.: 61
Chanel 7 Note Off - Duracao: 1164720 Nota: C1 Vol.: 61
Chanel 7 Note On - Duracao: 1164720 Nota: C1 Vol.: 67
Chanel 7 Note Off - Duracao: 1166640 Nota: C1 Vol.: 67
Chanel 7 Note On - Duracao: 1166640 Nota: C1 Vol.: 72
Chanel 7 Note Off - Duracao: 1168560 Nota: C1 Vol.: 72
Chanel 7 Note On - Duracao: 1168560 Nota: C1 Vol.: 74
Chanel 7 Note Off - Duracao: 1170480 Nota: C1 Vol.: 74
Chanel 7 Note On - Duracao: 1170480 Nota: C1 Vol.: 76
Chanel 7 Note Off - Duracao: 1172400 Nota: C1 Vol.: 76
Chanel 7 Note On - Duracao: 1172400 Nota: C1 Vol.: 74
Chanel 7 Note Off - Duracao: 1174320 Nota: C1 Vol.: 74
Chanel 7 Note On - Duracao: 1174320 Nota: C1 Vol.: 66
Chanel 7 Note Off - Duracao: 1176240 Nota: C1 Vol.: 66
Chanel 7 Note On - Duracao: 1176240 Nota: C1 Vol.: 51
Chanel 7 Note Off - Duracao: 1180080 Nota: C1 Vol.: 51
Chanel 7 Note On - Duracao: 1180080 Nota: C1 Vol.: 54
Chanel 7 Note Off - Duracao: 1181040 Nota: C1 Vol.: 54
Chanel 7 Note On - Duracao: 1181040 Nota: C1 Vol.: 54
Chanel 7 Note Off - Duracao: 1182000 Nota: C1 Vol.: 54
Chanel 7 Note On - Duracao: 1182000 Nota: C1 Vol.: 53
Chanel 7 Note Off - Duracao: 1182480 Nota: C1 Vol.: 53
Chanel 7 Note On - Duracao: 1182480 Nota: C1 Vol.: 55
Chanel 7 Note Off - Duracao: 1182960 Nota: C1 Vol.: 55
Chanel 7 Note On - Duracao: 1182960 Nota: C1 Vol.: 55
Chanel 7 Note Off - Duracao: 1183440 Nota: C1 Vol.: 55
Chanel 7 Note On - Duracao: 1183440 Nota: C1 Vol.: 49
Chanel 7 Note Off - Duracao: 1184400 Nota: C1 Vol.: 49
Chanel 7 Note On - Duracao: 1184400 Nota: C1 Vol.: 49
Chanel 7 Note Off - Duracao: 1185360 Nota: C1 Vol.: 49
Chanel 7 Note On - Duracao: 1185360 Nota: C1 Vol.: 54
Chanel 7 Note Off - Duracao: 1186320 Nota: C1 Vol.: 54
Chanel 7 Note On - Duracao: 1186320 Nota: C1 Vol.: 60
Chanel 7 Note Off - Duracao: 1187280 Nota: C1 Vol.: 60
Chanel 7 Note On - Duracao: 1187280 Nota: C1 Vol.: 59
Chanel 7 Note Off - Duracao: 1187520 Nota: C1 Vol.: 59
Chanel 7 Note On - Duracao: 1187520 Nota: C1 Vol.: 59
Chanel 7 Note Off - Duracao: 1188000 Nota: C1 Vol.: 59
Chanel 7 Note On - Duracao: 1188000 Nota: C1 Vol.: 69
Chanel 7 Note Off - Duracao: 1188240 Nota: C1 Vol.: 69
Chanel 7 Note On - Duracao: 1188240 Nota: C1 Vol.: 88
Chanel 7 Note Off - Duracao: 1188360 Nota: C1 Vol.: 88
Chanel 7 Note On - Duracao: 1188360 Nota: C1 Vol.: 94
Chanel 7 Note Off - Duracao: 1188480 Nota: C1 Vol.: 94
Chanel 7 Note On - Duracao: 1188480 Nota: C1 Vol.: 92
Chanel 7 Note Off - Duracao: 1188600 Nota: C1 Vol.: 92
Chanel 7 Note On - Duracao: 1188600 Nota: C1 Vol.: 87
Chanel 7 Note Off - Duracao: 1188720 Nota: C1 Vol.: 87
Chanel 7 Note On - Duracao: 1188720 Nota: C1 Vol.: 80
Chanel 7 Note Off - Duracao: 1188960 Nota: C1 Vol.: 80
Chanel 7 Note On - Duracao: 1188960 Nota: C1 Vol.: 75
Chanel 7 Note Off - Duracao: 1189200 Nota: C1 Vol.: 75
Chanel 7 Note On - Duracao: 1189200 Nota: C1 Vol.: 75
Chanel 7 Note Off - Duracao: 1189440 Nota: C1 Vol.: 75
Chanel 7 Note On - Duracao: 1189440 Nota: C1 Vol.: 79
Chanel 7 Note Off - Duracao: 1189680 Nota: C1 Vol.: 79
Chanel 7 Note On - Duracao: 1189680 Nota: C1 Vol.: 79
Chanel 7 Note Off - Duracao: 1189920 Nota: C1 Vol.: 79
Chanel 7 Note On - Duracao: 1189920 Nota: C1 Vol.: 87
Chanel 7 Note Off - Duracao: 1190040 Nota: C1 Vol.: 87
Chanel 7 Note On - Duracao: 1190040 Nota: C1 Vol.: 96
Chanel 7 Note Off - Duracao: 1190100 Nota: C1 Vol.: 96
Chanel 7 Note On - Duracao: 1190100 Nota: C1 Vol.: 84
Chanel 7 Note Off - Duracao: 1190340 Nota: C1 Vol.: 84
Chanel 7 Note On - Duracao: 1190340 Nota: C1 Vol.: 72
Chanel 7 Note Off - Duracao: 1190820 Nota: C1 Vol.: 72
Chanel 7 Note On - Duracao: 1190820 Nota: C1 Vol.: 72
Chanel 7 Note Off - Duracao: 1191060 Nota: C1 Vol.: 72
Chanel 7 Note On - Duracao: 1191060 Nota: C1 Vol.: 65
Chanel 7 Note Off - Duracao: 1191540 Nota: C1 Vol.: 65
Chanel 7 Note On - Duracao: 1191540 Nota: C1 Vol.: 58
Chanel 7 Note Off - Duracao: 1192500 Nota: C1 Vol.: 58
Chanel 7 Note On - Duracao: 1192500 Nota: C1 Vol.: 56
Chanel 7 Note Off - Duracao: 1193460 Nota: C1 Vol.: 56
Chanel 7 Note On - Duracao: 1193460 Nota: C1 Vol.: 50
Chanel 7 Note Off - Duracao: 1195380 Nota: C1 Vol.: 50
Chanel 7 Note On - Duracao: 1195380 Nota: C1 Vol.: 62
Chanel 7 Note Off - Duracao: 1196340 Nota: C1 Vol.: 62
Chanel 7 Note On - Duracao: 1196340 Nota: C1 Vol.: 70
Chanel 7 Note Off - Duracao: 1196820 Nota: C1 Vol.: 70
Chanel 7 Note On - Duracao: 1196820 Nota: C1 Vol.: 74
Chanel 7 Note Off - Duracao: 1197300 Nota: C1 Vol.: 74
Chanel 7 Note On - Duracao: 1197300 Nota: C1 Vol.: 67
Chanel 7 Note Off - Duracao: 1197780 Nota: C1 Vol.: 67
Chanel 7 Note On - Duracao: 1197780 Nota: C1 Vol.: 58
Chanel 7 Note Off - Duracao: 1198740 Nota: C1 Vol.: 58
Chanel 7 Note On - Duracao: 1198740 Nota: C1 Vol.: 69
Chanel 7 Note Off - Duracao: 1199220 Nota: C1 Vol.: 69
Chanel 7 Note On - Duracao: 1199220 Nota: C1 Vol.: 66
Chanel 7 Note Off - Duracao: 1199700 Nota: C1 Vol.: 66
Chanel 7 Note On - Duracao: 1199700 Nota: C1 Vol.: 69
Chanel 7 Note Off - Duracao: 1199940 Nota: C1 Vol.: 69
Chanel 7 Note On - Duracao: 1199940 Nota: C1 Vol.: 66
Chanel 7 Note Off - Duracao: 1200180 Nota: C1 Vol.: 66
Chanel 7 Note On - Duracao: 1200180 Nota: C1 Vol.: 63
Chanel 7 Note Off - Duracao: 1200420 Nota: C1 Vol.: 63
Chanel 7 Note On - Duracao: 1200420 Nota: C1 Vol.: 56
Chanel 7 Note Off - Duracao: 1200660 Nota: C1 Vol.: 56
Chanel 7 Note On - Duracao: 1200660 Nota: C1 Vol.: 62
Chanel 7 Note Off - Duracao: 1200780 Nota: C1 Vol.: 62
Chanel 7 Note On - Duracao: 1200780 Nota: C1 Vol.: 65
Chanel 7 Note Off - Duracao: 1200900 Nota: C1 Vol.: 65
Chanel 7 Note On - Duracao: 1200900 Nota: C1 Vol.: 64
Chanel 7 Note Off - Duracao: 1201140 Nota: C1 Vol.: 64
Chanel 7 Note On - Duracao: 1201140 Nota: C1 Vol.: 62
Chanel 7 Note Off - Duracao: 1201380 Nota: C1 Vol.: 62
Chanel 7 Note On - Duracao: 1201380 Nota: C1 Vol.: 56
Chanel 7 Note Off - Duracao: 1201860 Nota: C1 Vol.: 56
Chanel 7 Note On - Duracao: 1201860 Nota: C1 Vol.: 62
Chanel 7 Note Off - Duracao: 1202100 Nota: C1 Vol.: 62
Chanel 7 Note On - Duracao: 1202100 Nota: C1 Vol.: 53
Chanel 7 Note Off - Duracao: 1202340 Nota: C1 Vol.: 53
Chanel 7 Note On - Duracao: 1202340 Nota: C1 Vol.: 56
Chanel 7 Note Off - Duracao: 1202580 Nota: C1 Vol.: 56
Chanel 7 Note On - Duracao: 1202580 Nota: C1 Vol.: 60
Chanel 7 Note Off - Duracao: 1202820 Nota: C1 Vol.: 60
Chanel 7 Note On - Duracao: 1202820 Nota: C1 Vol.: 56
Chanel 7 Note Off - Duracao: 1203060 Nota: C1 Vol.: 56
Chanel 7 Note On - Duracao: 1203060 Nota: C1 Vol.: 63
Chanel 7 Note Off - Duracao: 1203300 Nota: C1 Vol.: 63
Chanel 7 Note On - Duracao: 1203300 Nota: C1 Vol.: 53
Chanel 7 Note Off - Duracao: 1203780 Nota: C1 Vol.: 53
Chanel 7 Note On - Duracao: 1203780 Nota: C1 Vol.: 44
Chanel 7 Note Off - Duracao: 1204740 Nota: C1 Vol.: 44
Chanel 7 Note On - Duracao: 1204740 Nota: C1 Vol.: 45
Chanel 7 Note Off - Duracao: 1205700 Nota: C1 Vol.: 45
Chanel 7 Note On - Duracao: 1205700 Nota: C1 Vol.: 47
Chanel 7 Note Off - Duracao: 1206180 Nota: C1 Vol.: 47
Chanel 7 Note On - Duracao: 1206180 Nota: C1 Vol.: 42
Chanel 7 Note Off - Duracao: 1207140 Nota: C1 Vol.: 42
Chanel 7 Note On - Duracao: 1207140 Nota: C1 Vol.: 59
Chanel 7 Note Off - Duracao: 1207380 Nota: C1 Vol.: 59
Chanel 7 Note On - Duracao: 1207380 Nota: C1 Vol.: 52
Chanel 7 Note Off - Duracao: 1207860 Nota: C1 Vol.: 52
Chanel 7 Note On - Duracao: 1207860 Nota: C1 Vol.: 51
Chanel 7 Note Off - Duracao: 1208340 Nota: C1 Vol.: 51
Chanel 7 Note On - Duracao: 1208340 Nota: C1 Vol.: 54
Chanel 7 Note Off - Duracao: 1208820 Nota: C1 Vol.: 54
Chanel 7 Note On - Duracao: 1208820 Nota: C1 Vol.: 42
Chanel 7 Note Off - Duracao: 1209780 Nota: C1 Vol.: 42
Chanel 7 Note On - Duracao: 1209780 Nota: C1 Vol.: 46
Chanel 7 Note Off - Duracao: 1210740 Nota: C1 Vol.: 46
Chanel 7 Note On - Duracao: 1210740 Nota: C1 Vol.: 45
Chanel 7 Note Off - Duracao: 1211700 Nota: C1 Vol.: 45
Chanel 7 Note On - Duracao: 1211700 Nota: C1 Vol.: 47
Chanel 7 Note Off - Duracao: 1212660 Nota: C1 Vol.: 47
Chanel 7 Note On - Duracao: 1212660 Nota: C1 Vol.: 44
Chanel 7 Note Off - Duracao: 1213620 Nota: C1 Vol.: 44
Chanel 7 Note On - Duracao: 1213620 Nota: C1 Vol.: 55
Chanel 7 Note Off - Duracao: 1214100 Nota: C1 Vol.: 55
Chanel 7 Note On - Duracao: 1214100 Nota: C1 Vol.: 58
Chanel 7 Note Off - Duracao: 1214580 Nota: C1 Vol.: 58
Chanel 7 Note On - Duracao: 1214580 Nota: C1 Vol.: 57
Chanel 7 Note Off - Duracao: 1215060 Nota: C1 Vol.: 57
Chanel 7 Note On - Duracao: 1215060 Nota: C1 Vol.: 61
Chanel 7 Note Off - Duracao: 1215540 Nota: C1 Vol.: 61
Chanel 7 Note On - Duracao: 1215540 Nota: C1 Vol.: 59
Chanel 7 Note Off - Duracao: 1216020 Nota: C1 Vol.: 59
Chanel 7 Note On - Duracao: 1216020 Nota: C1 Vol.: 55
Chanel 7 Note Off - Duracao: 1216980 Nota: C1 Vol.: 55
Chanel 7 Note On - Duracao: 1216980 Nota: C1 Vol.: 45
Chanel 7 Note Off - Duracao: 1218900 Nota: C1 Vol.: 45
Chanel 7 Note On - Duracao: 1218900 Nota: C1 Vol.: 48
Chanel 7 Note Off - Duracao: 1220820 Nota: C1 Vol.: 48
Chanel 7 Note On - Duracao: 1220820 Nota: C1 Vol.: 48
Chanel 7 Note Off - Duracao: 1222740 Nota: C1 Vol.: 48
Chanel 7 Note On - Duracao: 1222740 Nota: C1 Vol.: 48
Chanel 7 Note Off - Duracao: 1224660 Nota: C1 Vol.: 48
Chanel 7 Note On - Duracao: 1224660 Nota: C1 Vol.: 46
Chanel 7 Note Off - Duracao: 1226580 Nota: C1 Vol.: 46
Chanel 7 Note On - Duracao: 1226580 Nota: C1 Vol.: 44
Chanel 7 Note Off - Duracao: 1230420 Nota: C1 Vol.: 44
Chanel 7 Note On - Duracao: 1230420 Nota: C1 Vol.: 46
Chanel 7 Note Off - Duracao: 1234260 Nota: C1 Vol.: 46
Chanel 7 Note On - Duracao: 1234260 Nota: C1 Vol.: 43
Chanel 7 Note Off - Duracao: 1238100 Nota: C1 Vol.: 43
Chanel 7 Note On - Duracao: 1238100 Nota: C1 Vol.: 43
Chanel 7 Note Off - Duracao: 1241940 Nota: C1 Vol.: 43
Chanel 7 Note On - Duracao: 1241940 Nota: C1 Vol.: 45
Chanel 7 Note Off - Duracao: 1243860 Nota: C1 Vol.: 45
Chanel 7 Note On - Duracao: 1243860 Nota: C1 Vol.: 50
Chanel 7 Note Off - Duracao: 1245780 Nota: C1 Vol.: 50
Chanel 7 Note On - Duracao: 1245780 Nota: C1 Vol.: 51
Chanel 7 Note Off - Duracao: 1247700 Nota: C1 Vol.: 51
Chanel 7 Note On - Duracao: 1247700 Nota: C1 Vol.: 62
Chanel 7 Note Off - Duracao: 1248660 Nota: C1 Vol.: 62
Chanel 7 Note On - Duracao: 1248660 Nota: C1 Vol.: 62
Chanel 7 Note Off - Duracao: 1249620 Nota: C1 Vol.: 62
Chanel 7 Note On - Duracao: 1249620 Nota: C1 Vol.: 48
Chanel 7 Note Off - Duracao: 1251540 Nota: C1 Vol.: 48
Chanel 7 Note On - Duracao: 1251540 Nota: C1 Vol.: 49
Chanel 7 Note Off - Duracao: 1255380 Nota: C1 Vol.: 49
Chanel 7 Note On - Duracao: 1255380 Nota: C1 Vol.: 51
Chanel 7 Note Off - Duracao: 1259220 Nota: C1 Vol.: 51
Chanel 7 Note On - Duracao: 1259220 Nota: C1 Vol.: 54
Chanel 7 Note Off - Duracao: 1263060 Nota: C1 Vol.: 54
Chanel 7 Note On - Duracao: 1263060 Nota: C1 Vol.: 57
Chanel 7 Note Off - Duracao: 1266900 Nota: C1 Vol.: 57
Chanel 7 Note On - Duracao: 1266900 Nota: C1 Vol.: 59
Chanel 7 Note Off - Duracao: 1270740 Nota: C1 Vol.: 59
Chanel 7 Note On - Duracao: 1270740 Nota: C1 Vol.: 60
Chanel 7 Note Off - Duracao: 1274580 Nota: C1 Vol.: 60
Chanel 7 Note On - Duracao: 1274580 Nota: C1 Vol.: 66
Chanel 7 Note Off - Duracao: 1278420 Nota: C1 Vol.: 66
Chanel 7 Note On - Duracao: 1278420 Nota: C1 Vol.: 75
Chanel 7 Note Off - Duracao: 1280340 Nota: C1 Vol.: 75
Chanel 7 Note On - Duracao: 1280340 Nota: C1 Vol.: 76
Chanel 7 Note Off - Duracao: 1282260 Nota: C1 Vol.: 76
Chanel 7 Note On - Duracao: 1282260 Nota: C1 Vol.: 75
Chanel 7 Note Off - Duracao: 1284180 Nota: C1 Vol.: 75
Chanel 7 Note On - Duracao: 1284180 Nota: C1 Vol.: 71
Chanel 7 Note Off - Duracao: 1286100 Nota: C1 Vol.: 71
Chanel 7 Note On - Duracao: 1286100 Nota: C1 Vol.: 67
Chanel 7 Note Off - Duracao: 1288020 Nota: C1 Vol.: 67
Chanel 7 Note On - Duracao: 1288020 Nota: C1 Vol.: 54
Chanel 7 Note Off - Duracao: 1289940 Nota: C1 Vol.: 54
Chanel 7 Note On - Duracao: 1289940 Nota: C1 Vol.: 48
Chanel 7 Note Off - Duracao: 1291860 Nota: C1 Vol.: 48
Chanel 7 Note On - Duracao: 1291860 Nota: C1 Vol.: 48
Chanel 7 Note Off - Duracao: 1292820 Nota: C1 Vol.: 48
Chanel 7 Note On - Duracao: 1292820 Nota: C1 Vol.: 52
Chanel 7 Note Off - Duracao: 1293300 Nota: C1 Vol.: 52
Chanel 7 Note On - Duracao: 1293300 Nota: C1 Vol.: 54
Chanel 7 Note Off - Duracao: 1293780 Nota: C1 Vol.: 54
Chanel 7 Note On - Duracao: 1293780 Nota: C1 Vol.: 59
Chanel 7 Note Off - Duracao: 1294260 Nota: C1 Vol.: 59
Chanel 7 Note On - Duracao: 1294260 Nota: C1 Vol.: 48
Chanel 7 Note Off - Duracao: 1295220 Nota: C1 Vol.: 48
Chanel 7 Note On - Duracao: 1295220 Nota: C1 Vol.: 50
Chanel 7 Note Off - Duracao: 1296180 Nota: C1 Vol.: 50
Chanel 7 Note On - Duracao: 1296180 Nota: C1 Vol.: 60
Chanel 7 Note Off - Duracao: 1297140 Nota: C1 Vol.: 60
Chanel 7 Note On - Duracao: 1297140 Nota: C1 Vol.: 65
Chanel 7 Note Off - Duracao: 1297620 Nota: C1 Vol.: 65
Chanel 7 Note On - Duracao: 1297620 Nota: C1 Vol.: 67
Chanel 7 Note Off - Duracao: 1297860 Nota: C1 Vol.: 67
Chanel 7 Note On - Duracao: 1297860 Nota: C1 Vol.: 70
Chanel 7 Note Off - Duracao: 1298100 Nota: C1 Vol.: 70
Chanel 7 Note On - Duracao: 1298100 Nota: C1 Vol.: 87
Chanel 7 Note Off - Duracao: 1298220 Nota: C1 Vol.: 87
Chanel 7 Note On - Duracao: 1298220 Nota: C1 Vol.: 91
Chanel 7 Note Off - Duracao: 1298340 Nota: C1 Vol.: 91
Chanel 7 Note On - Duracao: 1298340 Nota: C1 Vol.: 95
Chanel 7 Note Off - Duracao: 1298460 Nota: C1 Vol.: 95
Chanel 7 Note On - Duracao: 1298460 Nota: C1 Vol.: 92
Chanel 7 Note Off - Duracao: 1298580 Nota: C1 Vol.: 92
Chanel 7 Note On - Duracao: 1298580 Nota: C1 Vol.: 79
Chanel 7 Note Off - Duracao: 1298820 Nota: C1 Vol.: 79
Chanel 7 Note On - Duracao: 1298820 Nota: C1 Vol.: 76
Chanel 7 Note Off - Duracao: 1299060 Nota: C1 Vol.: 76
Chanel 7 Note On - Duracao: 1299060 Nota: C1 Vol.: 89
Chanel 7 Note Off - Duracao: 1299180 Nota: C1 Vol.: 89
Chanel 7 Note On - Duracao: 1299180 Nota: C1 Vol.: 95
Chanel 7 Note Off - Duracao: 1299240 Nota: C1 Vol.: 95
Chanel 7 Note On - Duracao: 1299240 Nota: C1 Vol.: 85
Chanel 7 Note Off - Duracao: 1299360 Nota: C1 Vol.: 85
Chanel 7 Note On - Duracao: 1299360 Nota: C1 Vol.: 77
Chanel 7 Note Off - Duracao: 1299600 Nota: C1 Vol.: 77
Chanel 7 Note On - Duracao: 1299600 Nota: C1 Vol.: 76
Chanel 7 Note Off - Duracao: 1299840 Nota: C1 Vol.: 76
Chanel 7 Note On - Duracao: 1299840 Nota: C1 Vol.: 93
Chanel 7 Note Off - Duracao: 1299960 Nota: C1 Vol.: 93
Chanel 7 Note On - Duracao: 1299960 Nota: C1 Vol.: 96
Chanel 7 Note Off - Duracao: 1300020 Nota: C1 Vol.: 96
Chanel 7 Note On - Duracao: 1300020 Nota: C1 Vol.: 81
Chanel 7 Note Off - Duracao: 1300260 Nota: C1 Vol.: 81
Chanel 7 Note On - Duracao: 1300260 Nota: C1 Vol.: 76
Chanel 7 Note Off - Duracao: 1300500 Nota: C1 Vol.: 76
Chanel 7 Note On - Duracao: 1300500 Nota: C1 Vol.: 78
Chanel 7 Note Off - Duracao: 1300740 Nota: C1 Vol.: 78
Chanel 7 Note On - Duracao: 1300740 Nota: C1 Vol.: 59
Chanel 7 Note Off - Duracao: 1301220 Nota: C1 Vol.: 59
Chanel 7 Note On - Duracao: 1301220 Nota: C1 Vol.: 71
Chanel 7 Note Off - Duracao: 1301460 Nota: C1 Vol.: 71
Chanel 7 Note On - Duracao: 1301460 Nota: C1 Vol.: 70
Chanel 7 Note Off - Duracao: 1301940 Nota: C1 Vol.: 70
Chanel 7 Note On - Duracao: 1301940 Nota: C1 Vol.: 68
Chanel 7 Note Off - Duracao: 1302420 Nota: C1 Vol.: 68
Chanel 7 Note On - Duracao: 1302420 Nota: C1 Vol.: 57
Chanel 7 Note Off - Duracao: 1303380 Nota: C1 Vol.: 57
Chanel 7 Note On - Duracao: 1303380 Nota: C1 Vol.: 70
Chanel 7 Note Off - Duracao: 1303860 Nota: C1 Vol.: 70
Chanel 7 Note On - Duracao: 1303860 Nota: C1 Vol.: 71
Chanel 7 Note Off - Duracao: 1304340 Nota: C1 Vol.: 71
Chanel 7 Note On - Duracao: 1304340 Nota: C1 Vol.: 64
Chanel 7 Note Off - Duracao: 1304820 Nota: C1 Vol.: 64
Chanel 7 Note On - Duracao: 1304820 Nota: C1 Vol.: 66
Chanel 7 Note Off - Duracao: 1305300 Nota: C1 Vol.: 66
Chanel 7 Note On - Duracao: 1305300 Nota: C1 Vol.: 73
Chanel 7 Note Off - Duracao: 1305540 Nota: C1 Vol.: 73
Chanel 7 Note On - Duracao: 1305540 Nota: C1 Vol.: 83
Chanel 7 Note Off - Duracao: 1305660 Nota: C1 Vol.: 83
Chanel 7 Note On - Duracao: 1305660 Nota: C1 Vol.: 70
Chanel 7 Note Off - Duracao: 1305900 Nota: C1 Vol.: 70
Chanel 7 Note On - Duracao: 1305900 Nota: C1 Vol.: 65
Chanel 7 Note Off - Duracao: 1306140 Nota: C1 Vol.: 65
Chanel 7 Note On - Duracao: 1306140 Nota: C1 Vol.: 56
Chanel 7 Note Off - Duracao: 1306380 Nota: C1 Vol.: 56
Chanel 7 Note On - Duracao: 1306380 Nota: C1 Vol.: 61
Chanel 7 Note Off - Duracao: 1306500 Nota: C1 Vol.: 61
Chanel 7 Note On - Duracao: 1306500 Nota: C1 Vol.: 65
Chanel 7 Note Off - Duracao: 1306620 Nota: C1 Vol.: 65
Chanel 7 Note On - Duracao: 1306620 Nota: C1 Vol.: 69
Chanel 7 Note Off - Duracao: 1306740 Nota: C1 Vol.: 69
Chanel 7 Note On - Duracao: 1306740 Nota: C1 Vol.: 67
Chanel 7 Note Off - Duracao: 1306980 Nota: C1 Vol.: 67
Chanel 7 Note On - Duracao: 1306980 Nota: C1 Vol.: 66
Chanel 7 Note Off - Duracao: 1307220 Nota: C1 Vol.: 66
Chanel 7 Note On - Duracao: 1307220 Nota: C1 Vol.: 52
Chanel 7 Note Off - Duracao: 1307700 Nota: C1 Vol.: 52
Chanel 7 Note On - Duracao: 1307700 Nota: C1 Vol.: 48
Chanel 7 Note Off - Duracao: 1307940 Nota: C1 Vol.: 48
Chanel 7 Note On - Duracao: 1307940 Nota: C1 Vol.: 54
Chanel 7 Note Off - Duracao: 1308180 Nota: C1 Vol.: 54
Chanel 7 Note On - Duracao: 1308180 Nota: C1 Vol.: 54
Chanel 7 Note Off - Duracao: 1308420 Nota: C1 Vol.: 54
Chanel 7 Note On - Duracao: 1308420 Nota: C1 Vol.: 58
Chanel 7 Note Off - Duracao: 1308660 Nota: C1 Vol.: 58
Chanel 7 Note On - Duracao: 1308660 Nota: C1 Vol.: 46
Chanel 7 Note Off - Duracao: 1309140 Nota: C1 Vol.: 46
Chanel 7 Note On - Duracao: 1309140 Nota: C1 Vol.: 67
Chanel 7 Note Off - Duracao: 1309260 Nota: C1 Vol.: 67
Chanel 7 Note On - Duracao: 1309260 Nota: C1 Vol.: 50
Chanel 7 Note Off - Duracao: 1309740 Nota: C1 Vol.: 50
Chanel 7 Note On - Duracao: 1309740 Nota: C1 Vol.: 60
Chanel 7 Note Off - Duracao: 1309980 Nota: C1 Vol.: 60
Chanel 7 Note On - Duracao: 1309980 Nota: C1 Vol.: 66
Chanel 7 Note Off - Duracao: 1310100 Nota: C1 Vol.: 66
Chanel 7 Note On - Duracao: 1310100 Nota: C1 Vol.: 54
Chanel 7 Note Off - Duracao: 1310340 Nota: C1 Vol.: 54
Chanel 7 Note On - Duracao: 1310340 Nota: C1 Vol.: 59
Chanel 7 Note Off - Duracao: 1310580 Nota: C1 Vol.: 59
Chanel 7 Note On - Duracao: 1310580 Nota: C1 Vol.: 48
Chanel 7 Note Off - Duracao: 1311060 Nota: C1 Vol.: 48
Chanel 7 Note On - Duracao: 1311060 Nota: C1 Vol.: 49
Chanel 7 Note Off - Duracao: 1311540 Nota: C1 Vol.: 49
Chanel 7 Note On - Duracao: 1311540 Nota: C1 Vol.: 52
Chanel 7 Note Off - Duracao: 1312020 Nota: C1 Vol.: 52
Chanel 7 Note On - Duracao: 1312020 Nota: C1 Vol.: 47
Chanel 7 Note Off - Duracao: 1312980 Nota: C1 Vol.: 47
Chanel 7 Note On - Duracao: 1312980 Nota: C1 Vol.: 44
Chanel 7 Note Off - Duracao: 1313940 Nota: C1 Vol.: 44
Chanel 7 Note On - Duracao: 1313940 Nota: C1 Vol.: 49
Chanel 7 Note Off - Duracao: 1314900 Nota: C1 Vol.: 49
Chanel 7 Note On - Duracao: 1314900 Nota: C1 Vol.: 45
Chanel 7 Note Off - Duracao: 1315860 Nota: C1 Vol.: 45
Chanel 7 Note On - Duracao: 1315860 Nota: C1 Vol.: 48
Chanel 7 Note Off - Duracao: 1316820 Nota: C1 Vol.: 48
Chanel 7 Note On - Duracao: 1316820 Nota: C1 Vol.: 50
Chanel 7 Note Off - Duracao: 1317780 Nota: C1 Vol.: 50
Chanel 7 Note On - Duracao: 1317780 Nota: C1 Vol.: 53
Chanel 7 Note Off - Duracao: 1318260 Nota: C1 Vol.: 53
Chanel 7 Note On - Duracao: 1318260 Nota: C1 Vol.: 52
Chanel 7 Note Off - Duracao: 1319220 Nota: C1 Vol.: 52
Chanel 7 Note On - Duracao: 1319220 Nota: C1 Vol.: 54
Chanel 7 Note Off - Duracao: 1319700 Nota: C1 Vol.: 54
Chanel 7 Note On - Duracao: 1319700 Nota: C1 Vol.: 54
Chanel 7 Note Off - Duracao: 1320660 Nota: C1 Vol.: 54
Chanel 7 Note On - Duracao: 1320660 Nota: C1 Vol.: 54
Chanel 7 Note Off - Duracao: 1321140 Nota: C1 Vol.: 54
Chanel 7 Note On - Duracao: 1321140 Nota: C1 Vol.: 49
Chanel 7 Note Off - Duracao: 1322100 Nota: C1 Vol.: 49
Chanel 7 Note On - Duracao: 1322100 Nota: C1 Vol.: 53
Chanel 7 Note Off - Duracao: 1323060 Nota: C1 Vol.: 53
Chanel 7 Note On - Duracao: 1323060 Nota: C1 Vol.: 51
Chanel 7 Note Off - Duracao: 1324020 Nota: C1 Vol.: 51
Chanel 7 Note On - Duracao: 1324020 Nota: C1 Vol.: 59
Chanel 7 Note Off - Duracao: 1324500 Nota: C1 Vol.: 59
Chanel 7 Note On - Duracao: 1324500 Nota: C1 Vol.: 48
Chanel 7 Note Off - Duracao: 1326420 Nota: C1 Vol.: 48
Chanel 7 Note On - Duracao: 1326420 Nota: C1 Vol.: 54
Chanel 7 Note Off - Duracao: 1327380 Nota: C1 Vol.: 54
Chanel 7 Note On - Duracao: 1327380 Nota: C1 Vol.: 51
Chanel 7 Note Off - Duracao: 1328340 Nota: C1 Vol.: 51
Chanel 7 Note On - Duracao: 1328340 Nota: C1 Vol.: 60
Chanel 7 Note Off - Duracao: 1329300 Nota: C1 Vol.: 60
Chanel 7 Note On - Duracao: 1329300 Nota: C1 Vol.: 60
Chanel 7 Note Off - Duracao: 1329780 Nota: C1 Vol.: 60
Chanel 7 Note On - Duracao: 1329780 Nota: C1 Vol.: 61
Chanel 7 Note Off - Duracao: 1330260 Nota: C1 Vol.: 61
Chanel 7 Note On - Duracao: 1330260 Nota: C1 Vol.: 64
Chanel 7 Note Off - Duracao: 1330740 Nota: C1 Vol.: 64
Chanel 7 Note On - Duracao: 1330740 Nota: C1 Vol.: 67
Chanel 7 Note Off - Duracao: 1331220 Nota: C1 Vol.: 67
Chanel 7 Note On - Duracao: 1331220 Nota: C1 Vol.: 71
Chanel 7 Note Off - Duracao: 1331460 Nota: C1 Vol.: 71
Chanel 7 Note On - Duracao: 1331460 Nota: C1 Vol.: 54
Chanel 7 Note Off - Duracao: 1332420 Nota: C1 Vol.: 54
Chanel 7 Note On - Duracao: 1332420 Nota: C1 Vol.: 45
Chanel 7 Note Off - Duracao: 1334340 Nota: C1 Vol.: 45
Chanel 7 Note On - Duracao: 1334340 Nota: C1 Vol.: 50
Chanel 7 Note Off - Duracao: 1336260 Nota: C1 Vol.: 50
Chanel 7 Note On - Duracao: 1336260 Nota: C1 Vol.: 50
Chanel 7 Note Off - Duracao: 1338180 Nota: C1 Vol.: 50
Chanel 7 Note On - Duracao: 1338180 Nota: C1 Vol.: 52
Chanel 7 Note Off - Duracao: 1342020 Nota: C1 Vol.: 52
Chanel 7 Note On - Duracao: 1342020 Nota: C1 Vol.: 55
Chanel 7 Note Off - Duracao: 1345860 Nota: C1 Vol.: 55
Chanel 7 Note On - Duracao: 1345860 Nota: C1 Vol.: 59
Chanel 7 Note Off - Duracao: 1349700 Nota: C1 Vol.: 59
Chanel 7 Note On - Duracao: 1349700 Nota: C1 Vol.: 62
Chanel 7 Note Off - Duracao: 1353540 Nota: C1 Vol.: 62
Chanel 7 Note On - Duracao: 1353540 Nota: C1 Vol.: 65
Chanel 7 Note Off - Duracao: 1357380 Nota: C1 Vol.: 65
Chanel 7 Note On - Duracao: 1357380 Nota: C1 Vol.: 72
Chanel 7 Note Off - Duracao: 1359300 Nota: C1 Vol.: 72
Chanel 7 Note On - Duracao: 1359300 Nota: C1 Vol.: 72
Chanel 7 Note Off - Duracao: 1361220 Nota: C1 Vol.: 72
Chanel 7 Note On - Duracao: 1361220 Nota: C1 Vol.: 71
Chanel 7 Note Off - Duracao: 1363140 Nota: C1 Vol.: 71
Chanel 7 Note On - Duracao: 1363140 Nota: C1 Vol.: 70
Chanel 7 Note Off - Duracao: 1365060 Nota: C1 Vol.: 70
Chanel 7 Note On - Duracao: 1365060 Nota: C1 Vol.: 62
Chanel 7 Note Off - Duracao: 1366980 Nota: C1 Vol.: 62
Chanel 7 Note On - Duracao: 1366980 Nota: C1 Vol.: 53
Chanel 7 Note Off - Duracao: 1368900 Nota: C1 Vol.: 53
Chanel 7 Note On - Duracao: 1368900 Nota: C1 Vol.: 46
Chanel 7 Note Off - Duracao: 1370820 Nota: C1 Vol.: 46
Chanel 7 Note On - Duracao: 1370820 Nota: C1 Vol.: 45
Chanel 7 Note Off - Duracao: 1372740 Nota: C1 Vol.: 45
Chanel 7 Note On - Duracao: 1372740 Nota: C1 Vol.: 53
Chanel 7 Note Off - Duracao: 1373220 Nota: C1 Vol.: 53
Chanel 7 Note On - Duracao: 1373220 Nota: C1 Vol.: 56
Chanel 7 Note Off - Duracao: 1373700 Nota: C1 Vol.: 56
Chanel 7 Note On - Duracao: 1373700 Nota: C1 Vol.: 58
Chanel 7 Note Off - Duracao: 1374180 Nota: C1 Vol.: 58
Chanel 7 Note On - Duracao: 1374180 Nota: C1 Vol.: 46
Chanel 7 Note Off - Duracao: 1375140 Nota: C1 Vol.: 46
Chanel 7 Note On - Duracao: 1375140 Nota: C1 Vol.: 53
Chanel 7 Note Off - Duracao: 1376100 Nota: C1 Vol.: 53
Chanel 7 Note On - Duracao: 1376100 Nota: C1 Vol.: 54
Chanel 7 Note Off - Duracao: 1377060 Nota: C1 Vol.: 54
Chanel 7 Note On - Duracao: 1377060 Nota: C1 Vol.: 58
Chanel 7 Note Off - Duracao: 1378020 Nota: C1 Vol.: 58
Tick: 1378020 - 
System reset: 
First data byte: 0 Second data byte: 0
